<svg width="144" height="50" viewBox="0 0 144 50" fill="none" xmlns="http://www.w3.org/2000/svg">
<g clip-path="url(#clip0_7635_3203)">
<path fill-rule="evenodd" clip-rule="evenodd" d="M14 4H36C41.5229 4 46 8.47715 46 14V31.155C46 33.4482 44.7201 35.631 42.5269 36.3011C40.9912 36.7703 39.423 37.0289 37.8326 36.9584C34.0774 36.7865 30.1758 34.3603 28.8824 30.2053C28.1519 27.87 28.4183 24.9534 30.0125 23.3157C31.6019 21.683 34.5626 22.0975 35.3618 24.3974C33.7848 19.1506 28.4742 16.5171 23.7685 17.0731C19.059 17.6342 14.8484 20.6518 10.9167 23.7453C10.6327 23.9687 10.3486 24.1933 10.0641 24.4182C8.08732 25.9805 6.09114 27.5582 4 28.8691V14C4 8.47715 8.47715 4 14 4ZM0 30.9259V14C0 6.26801 6.26801 0 14 0H36C43.732 0 50 6.26801 50 14V32.6883C50.2688 32.5283 50.5374 32.3675 50.8061 32.2067C53.4352 30.6332 56.0697 29.0566 58.9097 28.1632C60.2332 27.7487 61.6207 27.501 63 27.4808C59.6999 43.8379 47.2043 56 32.2938 56H20.615C7.02757 56 -4.55696 45.9002 -9 31.7318C-6.54634 32.2322 -4.00695 32.1463 -1.57915 31.4588C-1.04454 31.3072 -0.518467 31.1284 0 30.9259Z" fill="#1E1E1E"/>
</g>
<mask id="path-3-inside-1_7635_3203" fill="white">
<path d="M68.856 6.1C72.04 6.1 74.256 6.668 75.504 7.804C76.752 8.924 77.376 10.508 77.376 12.556C77.376 13.964 77.128 15.164 76.632 16.156C76.136 17.132 75.264 17.9 74.016 18.46C72.768 19.004 71.048 19.276 68.856 19.276H63.864V23.5H57.96C58.088 20.396 58.152 17.492 58.152 14.788C58.152 12.084 58.088 9.18 57.96 6.076H63.864V6.1H68.856ZM67.176 14.644C68.504 14.644 69.496 14.596 70.152 14.5C70.824 14.388 71.288 14.196 71.544 13.924C71.816 13.652 71.952 13.252 71.952 12.724C71.952 12.196 71.824 11.804 71.568 11.548C71.328 11.276 70.872 11.092 70.2 10.996C69.544 10.9 68.536 10.852 67.176 10.852H63.864V14.644H67.176ZM98.5601 11.884C98.5601 13.276 98.2161 14.452 97.5281 15.412C96.8561 16.372 95.6961 17.068 94.0481 17.5C94.2401 17.756 94.3761 17.956 94.4561 18.1L98.3441 23.5H91.8161C91.1121 22.188 90.0001 20.332 88.4801 17.932H84.9521V23.5H79.2881C79.4161 20.396 79.4801 17.492 79.4801 14.788C79.4801 12.084 79.4161 9.18 79.2881 6.076H84.9521V6.1H89.8721C93.1041 6.1 95.3601 6.62 96.6401 7.66C97.9201 8.7 98.5601 10.108 98.5601 11.884ZM84.9521 10.708V13.444H88.1921C89.5521 13.444 90.5761 13.404 91.2641 13.324C91.9681 13.228 92.4561 13.084 92.7281 12.892C93.0001 12.7 93.1361 12.42 93.1361 12.052C93.1361 11.7 93.0081 11.428 92.7521 11.236C92.4961 11.044 92.0161 10.908 91.3121 10.828C90.6081 10.748 89.5681 10.708 88.1921 10.708H84.9521ZM111.156 23.74C107.492 23.74 104.796 22.948 103.068 21.364C101.34 19.764 100.476 17.524 100.476 14.644C100.476 11.796 101.332 9.572 103.044 7.972C104.772 6.372 107.476 5.572 111.156 5.572C114.852 5.572 117.556 6.372 119.268 7.972C120.996 9.572 121.86 11.796 121.86 14.644C121.86 17.54 121.004 19.78 119.292 21.364C117.58 22.948 114.868 23.74 111.156 23.74ZM111.156 18.844C112.932 18.844 114.212 18.508 114.996 17.836C115.78 17.148 116.172 16.084 116.172 14.644C116.172 13.236 115.78 12.188 114.996 11.5C114.212 10.812 112.932 10.468 111.156 10.468C109.396 10.468 108.124 10.812 107.34 11.5C106.556 12.188 106.164 13.236 106.164 14.644C106.164 16.068 106.556 17.124 107.34 17.812C108.124 18.5 109.396 18.844 111.156 18.844ZM57.96 41.436C58.504 40.62 58.952 39.86 59.304 39.156C59.672 38.452 60.024 37.636 60.36 36.708C61.496 37.364 62.816 37.876 64.32 38.244C65.824 38.612 67.224 38.796 68.52 38.796C69.848 38.796 70.784 38.684 71.328 38.46C71.872 38.22 72.144 37.964 72.144 37.692C72.144 36.716 70.656 36.228 67.68 36.228C64.416 36.228 62.048 35.892 60.576 35.22C59.104 34.532 58.368 33.428 58.368 31.908C58.368 29.748 59.264 28.156 61.056 27.132C62.848 26.108 65.176 25.596 68.04 25.596C69.704 25.596 71.408 25.812 73.152 26.244C74.912 26.66 76.496 27.236 77.904 27.972C77.44 29.028 76.952 30.316 76.44 31.836C76.344 32.156 76.264 32.396 76.2 32.556C75.384 31.9 74.152 31.356 72.504 30.924C70.856 30.476 69.4 30.252 68.136 30.252C66.616 30.252 65.592 30.356 65.064 30.564C64.536 30.756 64.272 31.044 64.272 31.428C64.272 31.812 64.632 32.124 65.352 32.364C66.088 32.588 67.144 32.7 68.52 32.7C71.912 32.7 74.376 33.092 75.912 33.876C77.448 34.644 78.216 35.828 78.216 37.428C78.216 39.668 77.4 41.284 75.768 42.276C74.136 43.252 71.664 43.74 68.352 43.74C66.576 43.74 64.768 43.548 62.928 43.164C61.088 42.764 59.432 42.188 57.96 41.436ZM94.3399 26.052H100.292V35.604C100.26 37.956 99.4519 39.9 97.8679 41.436C96.2999 42.972 93.6519 43.74 89.9239 43.74C86.1479 43.74 83.5639 43.012 82.1719 41.556C80.7799 40.084 80.0999 38.156 80.1319 35.772V26.052H86.0839V35.388C86.0839 36.092 86.1319 36.668 86.2279 37.116C86.3399 37.548 86.6759 37.956 87.2359 38.34C87.8119 38.724 88.7319 38.916 89.9959 38.916C91.3719 38.916 92.3799 38.724 93.0199 38.34C93.6599 37.94 94.0359 37.5 94.1479 37.02C94.2759 36.54 94.3399 35.924 94.3399 35.172V26.052ZM121.482 31.884C121.482 33.276 121.138 34.452 120.45 35.412C119.778 36.372 118.618 37.068 116.97 37.5C117.162 37.756 117.298 37.956 117.378 38.1L121.266 43.5H114.738C114.034 42.188 112.922 40.332 111.402 37.932H107.874V43.5H102.21C102.338 40.396 102.402 37.492 102.402 34.788C102.402 32.084 102.338 29.18 102.21 26.076H107.874V26.1H112.794C116.026 26.1 118.282 26.62 119.562 27.66C120.842 28.7 121.482 30.108 121.482 31.884ZM107.874 30.708V33.444H111.114C112.474 33.444 113.498 33.404 114.186 33.324C114.89 33.228 115.378 33.084 115.65 32.892C115.922 32.7 116.058 32.42 116.058 32.052C116.058 31.7 115.93 31.428 115.674 31.236C115.418 31.044 114.938 30.908 114.234 30.828C113.53 30.748 112.49 30.708 111.114 30.708H107.874ZM142.118 30.564H129.062V33.084C129.878 33.1 131.102 33.108 132.734 33.108C135.55 33.108 138.414 33.06 141.326 32.964V37.668C138.414 37.556 135.342 37.5 132.11 37.5C130.766 37.5 129.75 37.508 129.062 37.524V43.5H123.398C123.526 40.396 123.59 37.492 123.59 34.788C123.59 32.084 123.526 29.18 123.398 26.076H142.118V30.564Z"/>
</mask>
<path d="M68.856 6.1C72.04 6.1 74.256 6.668 75.504 7.804C76.752 8.924 77.376 10.508 77.376 12.556C77.376 13.964 77.128 15.164 76.632 16.156C76.136 17.132 75.264 17.9 74.016 18.46C72.768 19.004 71.048 19.276 68.856 19.276H63.864V23.5H57.96C58.088 20.396 58.152 17.492 58.152 14.788C58.152 12.084 58.088 9.18 57.96 6.076H63.864V6.1H68.856ZM67.176 14.644C68.504 14.644 69.496 14.596 70.152 14.5C70.824 14.388 71.288 14.196 71.544 13.924C71.816 13.652 71.952 13.252 71.952 12.724C71.952 12.196 71.824 11.804 71.568 11.548C71.328 11.276 70.872 11.092 70.2 10.996C69.544 10.9 68.536 10.852 67.176 10.852H63.864V14.644H67.176ZM98.5601 11.884C98.5601 13.276 98.2161 14.452 97.5281 15.412C96.8561 16.372 95.6961 17.068 94.0481 17.5C94.2401 17.756 94.3761 17.956 94.4561 18.1L98.3441 23.5H91.8161C91.1121 22.188 90.0001 20.332 88.4801 17.932H84.9521V23.5H79.2881C79.4161 20.396 79.4801 17.492 79.4801 14.788C79.4801 12.084 79.4161 9.18 79.2881 6.076H84.9521V6.1H89.8721C93.1041 6.1 95.3601 6.62 96.6401 7.66C97.9201 8.7 98.5601 10.108 98.5601 11.884ZM84.9521 10.708V13.444H88.1921C89.5521 13.444 90.5761 13.404 91.2641 13.324C91.9681 13.228 92.4561 13.084 92.7281 12.892C93.0001 12.7 93.1361 12.42 93.1361 12.052C93.1361 11.7 93.0081 11.428 92.7521 11.236C92.4961 11.044 92.0161 10.908 91.3121 10.828C90.6081 10.748 89.5681 10.708 88.1921 10.708H84.9521ZM111.156 23.74C107.492 23.74 104.796 22.948 103.068 21.364C101.34 19.764 100.476 17.524 100.476 14.644C100.476 11.796 101.332 9.572 103.044 7.972C104.772 6.372 107.476 5.572 111.156 5.572C114.852 5.572 117.556 6.372 119.268 7.972C120.996 9.572 121.86 11.796 121.86 14.644C121.86 17.54 121.004 19.78 119.292 21.364C117.58 22.948 114.868 23.74 111.156 23.74ZM111.156 18.844C112.932 18.844 114.212 18.508 114.996 17.836C115.78 17.148 116.172 16.084 116.172 14.644C116.172 13.236 115.78 12.188 114.996 11.5C114.212 10.812 112.932 10.468 111.156 10.468C109.396 10.468 108.124 10.812 107.34 11.5C106.556 12.188 106.164 13.236 106.164 14.644C106.164 16.068 106.556 17.124 107.34 17.812C108.124 18.5 109.396 18.844 111.156 18.844ZM57.96 41.436C58.504 40.62 58.952 39.86 59.304 39.156C59.672 38.452 60.024 37.636 60.36 36.708C61.496 37.364 62.816 37.876 64.32 38.244C65.824 38.612 67.224 38.796 68.52 38.796C69.848 38.796 70.784 38.684 71.328 38.46C71.872 38.22 72.144 37.964 72.144 37.692C72.144 36.716 70.656 36.228 67.68 36.228C64.416 36.228 62.048 35.892 60.576 35.22C59.104 34.532 58.368 33.428 58.368 31.908C58.368 29.748 59.264 28.156 61.056 27.132C62.848 26.108 65.176 25.596 68.04 25.596C69.704 25.596 71.408 25.812 73.152 26.244C74.912 26.66 76.496 27.236 77.904 27.972C77.44 29.028 76.952 30.316 76.44 31.836C76.344 32.156 76.264 32.396 76.2 32.556C75.384 31.9 74.152 31.356 72.504 30.924C70.856 30.476 69.4 30.252 68.136 30.252C66.616 30.252 65.592 30.356 65.064 30.564C64.536 30.756 64.272 31.044 64.272 31.428C64.272 31.812 64.632 32.124 65.352 32.364C66.088 32.588 67.144 32.7 68.52 32.7C71.912 32.7 74.376 33.092 75.912 33.876C77.448 34.644 78.216 35.828 78.216 37.428C78.216 39.668 77.4 41.284 75.768 42.276C74.136 43.252 71.664 43.74 68.352 43.74C66.576 43.74 64.768 43.548 62.928 43.164C61.088 42.764 59.432 42.188 57.96 41.436ZM94.3399 26.052H100.292V35.604C100.26 37.956 99.4519 39.9 97.8679 41.436C96.2999 42.972 93.6519 43.74 89.9239 43.74C86.1479 43.74 83.5639 43.012 82.1719 41.556C80.7799 40.084 80.0999 38.156 80.1319 35.772V26.052H86.0839V35.388C86.0839 36.092 86.1319 36.668 86.2279 37.116C86.3399 37.548 86.6759 37.956 87.2359 38.34C87.8119 38.724 88.7319 38.916 89.9959 38.916C91.3719 38.916 92.3799 38.724 93.0199 38.34C93.6599 37.94 94.0359 37.5 94.1479 37.02C94.2759 36.54 94.3399 35.924 94.3399 35.172V26.052ZM121.482 31.884C121.482 33.276 121.138 34.452 120.45 35.412C119.778 36.372 118.618 37.068 116.97 37.5C117.162 37.756 117.298 37.956 117.378 38.1L121.266 43.5H114.738C114.034 42.188 112.922 40.332 111.402 37.932H107.874V43.5H102.21C102.338 40.396 102.402 37.492 102.402 34.788C102.402 32.084 102.338 29.18 102.21 26.076H107.874V26.1H112.794C116.026 26.1 118.282 26.62 119.562 27.66C120.842 28.7 121.482 30.108 121.482 31.884ZM107.874 30.708V33.444H111.114C112.474 33.444 113.498 33.404 114.186 33.324C114.89 33.228 115.378 33.084 115.65 32.892C115.922 32.7 116.058 32.42 116.058 32.052C116.058 31.7 115.93 31.428 115.674 31.236C115.418 31.044 114.938 30.908 114.234 30.828C113.53 30.748 112.49 30.708 111.114 30.708H107.874ZM142.118 30.564H129.062V33.084C129.878 33.1 131.102 33.108 132.734 33.108C135.55 33.108 138.414 33.06 141.326 32.964V37.668C138.414 37.556 135.342 37.5 132.11 37.5C130.766 37.5 129.75 37.508 129.062 37.524V43.5H123.398C123.526 40.396 123.59 37.492 123.59 34.788C123.59 32.084 123.526 29.18 123.398 26.076H142.118V30.564Z" fill="#1E1E1E"/>
<path d="M75.504 7.804L75.1674 8.17376L75.17 8.17612L75.504 7.804ZM76.632 16.156L77.0778 16.3825L77.0792 16.3796L76.632 16.156ZM74.016 18.46L74.2158 18.9184L74.2207 18.9162L74.016 18.46ZM63.864 19.276V18.776H63.364V19.276H63.864ZM63.864 23.5V24H64.364V23.5H63.864ZM57.96 23.5L57.4604 23.4794L57.439 24H57.96V23.5ZM57.96 6.076V5.576H57.439L57.4604 6.0966L57.96 6.076ZM63.864 6.076H64.364V5.576H63.864V6.076ZM63.864 6.1H63.364V6.6H63.864V6.1ZM70.152 14.5L70.2244 14.9948L70.2342 14.9932L70.152 14.5ZM71.544 13.924L71.1904 13.5704L71.1851 13.5758L71.1799 13.5813L71.544 13.924ZM71.568 11.548L71.1931 11.8788L71.2034 11.8905L71.2144 11.9016L71.568 11.548ZM70.2 10.996L70.1276 11.4907L70.1293 11.491L70.2 10.996ZM63.864 10.852V10.352H63.364V10.852H63.864ZM63.864 14.644H63.364V15.144H63.864V14.644ZM68.856 6.1V6.6C72.0128 6.6 74.0643 7.16966 75.1674 8.17375L75.504 7.804L75.8406 7.43424C74.4477 6.16634 72.0672 5.6 68.856 5.6V6.1ZM75.504 7.804L75.17 8.17612C76.2894 9.18071 76.876 10.616 76.876 12.556H77.376H77.876C77.876 10.4 77.2146 8.66729 75.838 7.43188L75.504 7.804ZM77.376 12.556H76.876C76.876 13.9067 76.638 15.026 76.1848 15.9324L76.632 16.156L77.0792 16.3796C77.618 15.302 77.876 14.0213 77.876 12.556H77.376ZM76.632 16.156L76.1863 15.9295C75.7538 16.7803 74.9817 17.4786 73.8113 18.0038L74.016 18.46L74.2207 18.9162C75.5463 18.3214 76.5182 17.4837 77.0777 16.3825L76.632 16.156ZM74.016 18.46L73.8162 18.0017C72.6581 18.5065 71.0163 18.776 68.856 18.776V19.276V19.776C71.0797 19.776 72.8779 19.5015 74.2158 18.9183L74.016 18.46ZM68.856 19.276V18.776H63.864V19.276V19.776H68.856V19.276ZM63.864 19.276H63.364V23.5H63.864H64.364V19.276H63.864ZM63.864 23.5V23H57.96V23.5V24H63.864V23.5ZM57.96 23.5L58.4596 23.5206C58.5878 20.4107 58.652 17.4998 58.652 14.788H58.152H57.652C57.652 17.4842 57.5882 20.3813 57.4604 23.4794L57.96 23.5ZM58.152 14.788H58.652C58.652 12.0762 58.5878 9.16528 58.4596 6.0554L57.96 6.076L57.4604 6.0966C57.5882 9.19472 57.652 12.0918 57.652 14.788H58.152ZM57.96 6.076V6.576H63.864V6.076V5.576H57.96V6.076ZM63.864 6.076H63.364V6.1H63.864H64.364V6.076H63.864ZM63.864 6.1V6.6H68.856V6.1V5.6H63.864V6.1ZM67.176 14.644V15.144C68.5093 15.144 69.531 15.0962 70.2244 14.9947L70.152 14.5L70.0796 14.0053C69.461 14.0958 68.4987 14.144 67.176 14.144V14.644ZM70.152 14.5L70.2342 14.9932C70.9363 14.8762 71.5368 14.6612 71.9081 14.2667L71.544 13.924L71.1799 13.5813C71.0392 13.7308 70.7117 13.8998 70.0698 14.0068L70.152 14.5ZM71.544 13.924L71.8976 14.2776C72.2938 13.8813 72.452 13.3341 72.452 12.724H71.952H71.452C71.452 13.1699 71.3382 13.4227 71.1904 13.5704L71.544 13.924ZM71.952 12.724H72.452C72.452 12.1241 72.307 11.5798 71.9216 11.1944L71.568 11.548L71.2144 11.9016C71.341 12.0281 71.452 12.2679 71.452 12.724H71.952ZM71.568 11.548L71.9429 11.2172C71.5799 10.8058 70.9704 10.601 70.2707 10.501L70.2 10.996L70.1293 11.491C70.7736 11.583 71.0761 11.7462 71.1931 11.8788L71.568 11.548ZM70.2 10.996L70.2724 10.5013C69.5787 10.3998 68.5406 10.352 67.176 10.352V10.852V11.352C68.5314 11.352 69.5093 11.4002 70.1276 11.4907L70.2 10.996ZM67.176 10.852V10.352H63.864V10.852V11.352H67.176V10.852ZM63.864 10.852H63.364V14.644H63.864H64.364V10.852H63.864ZM63.864 14.644V15.144H67.176V14.644V14.144H63.864V14.644ZM97.5281 15.412L97.1217 15.1207L97.1185 15.1253L97.5281 15.412ZM94.0481 17.5L93.9213 17.0163L93.2018 17.2049L93.6481 17.8L94.0481 17.5ZM94.4561 18.1L94.019 18.3428L94.0333 18.3684L94.0504 18.3922L94.4561 18.1ZM98.3441 23.5V24H99.3202L98.7499 23.2078L98.3441 23.5ZM91.8161 23.5L91.3755 23.7364L91.517 24H91.8161V23.5ZM88.4801 17.932L88.9025 17.6645L88.7553 17.432H88.4801V17.932ZM84.9521 17.932V17.432H84.4521V17.932H84.9521ZM84.9521 23.5V24H85.4521V23.5H84.9521ZM79.2881 23.5L78.7885 23.4794L78.7671 24H79.2881V23.5ZM79.2881 6.076V5.576H78.7671L78.7885 6.0966L79.2881 6.076ZM84.9521 6.076H85.4521V5.576H84.9521V6.076ZM84.9521 6.1H84.4521V6.6H84.9521V6.1ZM96.6401 7.66L96.3248 8.04806V8.04806L96.6401 7.66ZM84.9521 10.708V10.208H84.4521V10.708H84.9521ZM84.9521 13.444H84.4521V13.944H84.9521V13.444ZM91.2641 13.324L91.3219 13.8208L91.3317 13.8194L91.2641 13.324ZM92.7281 12.892L92.4398 12.4835L92.7281 12.892ZM92.7521 11.236L93.0521 10.836L92.7521 11.236ZM91.3121 10.828L91.2557 11.3248V11.3248L91.3121 10.828ZM98.5601 11.884H98.0601C98.0601 13.1907 97.7386 14.26 97.1217 15.1207L97.5281 15.412L97.9345 15.7033C98.6937 14.644 99.0601 13.3613 99.0601 11.884H98.5601ZM97.5281 15.412L97.1185 15.1253C96.5395 15.9524 95.5055 16.6011 93.9213 17.0163L94.0481 17.5L94.1749 17.9837C95.8867 17.5349 97.1727 16.7916 97.9377 15.6987L97.5281 15.412ZM94.0481 17.5L93.6481 17.8C93.8367 18.0514 93.9561 18.2294 94.019 18.3428L94.4561 18.1L94.8932 17.8572C94.7962 17.6826 94.6436 17.4606 94.4481 17.2L94.0481 17.5ZM94.4561 18.1L94.0504 18.3922L97.9384 23.7922L98.3441 23.5L98.7499 23.2078L94.8619 17.8078L94.4561 18.1ZM98.3441 23.5V23H91.8161V23.5V24H98.3441V23.5ZM91.8161 23.5L92.2567 23.2636C91.544 21.9354 90.4243 20.0673 88.9025 17.6645L88.4801 17.932L88.0577 18.1995C89.5759 20.5967 90.6802 22.4406 91.3755 23.7364L91.8161 23.5ZM88.4801 17.932V17.432H84.9521V17.932V18.432H88.4801V17.932ZM84.9521 17.932H84.4521V23.5H84.9521H85.4521V17.932H84.9521ZM84.9521 23.5V23H79.2881V23.5V24H84.9521V23.5ZM79.2881 23.5L79.7877 23.5206C79.9159 20.4107 79.9801 17.4998 79.9801 14.788H79.4801H78.9801C78.9801 17.4842 78.9163 20.3813 78.7885 23.4794L79.2881 23.5ZM79.4801 14.788H79.9801C79.9801 12.0762 79.9159 9.16528 79.7877 6.0554L79.2881 6.076L78.7885 6.0966C78.9163 9.19472 78.9801 12.0918 78.9801 14.788H79.4801ZM79.2881 6.076V6.576H84.9521V6.076V5.576H79.2881V6.076ZM84.9521 6.076H84.4521V6.1H84.9521H85.4521V6.076H84.9521ZM84.9521 6.1V6.6H89.8721V6.1V5.6H84.9521V6.1ZM89.8721 6.1V6.6C93.0833 6.6 95.1866 7.12325 96.3248 8.04806L96.6401 7.66L96.9554 7.27194C95.5336 6.11675 93.125 5.6 89.8721 5.6V6.1ZM96.6401 7.66L96.3248 8.04806C97.4781 8.98506 98.0601 10.2453 98.0601 11.884H98.5601H99.0601C99.0601 9.97068 98.3622 8.41493 96.9554 7.27194L96.6401 7.66ZM84.9521 10.708H84.4521V13.444H84.9521H85.4521V10.708H84.9521ZM84.9521 13.444V13.944H88.1921V13.444V12.944H84.9521V13.444ZM88.1921 13.444V13.944C89.5568 13.944 90.6042 13.9041 91.3219 13.8207L91.2641 13.324L91.2064 12.8273C90.548 12.9039 89.5475 12.944 88.1921 12.944V13.444ZM91.2641 13.324L91.3317 13.8194C92.0445 13.7222 92.6385 13.5673 93.0165 13.3005L92.7281 12.892L92.4398 12.4835C92.2738 12.6007 91.8917 12.7338 91.1966 12.8286L91.2641 13.324ZM92.7281 12.892L93.0165 13.3005C93.4367 13.0039 93.6361 12.5625 93.6361 12.052H93.1361H92.6361C92.6361 12.2775 92.5636 12.3961 92.4398 12.4835L92.7281 12.892ZM93.1361 12.052H93.6361C93.6361 11.5608 93.4479 11.1328 93.0521 10.836L92.7521 11.236L92.4521 11.636C92.5684 11.7232 92.6361 11.8392 92.6361 12.052H93.1361ZM92.7521 11.236L93.0521 10.836C92.6792 10.5563 92.0777 10.4118 91.3686 10.3312L91.3121 10.828L91.2557 11.3248C91.9546 11.4042 92.313 11.5317 92.4521 11.636L92.7521 11.236ZM91.3121 10.828L91.3686 10.3312C90.6357 10.2479 89.5729 10.208 88.1921 10.208V10.708V11.208C89.5633 11.208 90.5805 11.2481 91.2557 11.3248L91.3121 10.828ZM88.1921 10.708V10.208H84.9521V10.708V11.208H88.1921V10.708ZM103.068 21.364L102.728 21.7309L102.73 21.7326L103.068 21.364ZM103.044 7.972L102.704 7.60512L102.702 7.6067L103.044 7.972ZM119.268 7.972L118.926 8.3373L118.928 8.33888L119.268 7.972ZM119.292 21.364L119.631 21.731L119.292 21.364ZM114.996 17.836L115.321 18.2157L115.325 18.2118L114.996 17.836ZM114.996 11.5L114.666 11.8758V11.8758L114.996 11.5ZM107.34 11.5L107.669 11.8758V11.8758L107.34 11.5ZM107.34 17.812L107.669 17.4362L107.34 17.812ZM111.156 23.74V23.24C107.549 23.24 105.001 22.4583 103.405 20.9954L103.068 21.364L102.73 21.7326C104.59 23.4377 107.434 24.24 111.156 24.24V23.74ZM103.068 21.364L103.407 20.9971C101.804 19.5123 100.976 17.4182 100.976 14.644H100.476H99.9756C99.9756 17.6298 100.876 20.0157 102.728 21.7309L103.068 21.364ZM100.476 14.644H100.976C100.976 11.9023 101.796 9.82284 103.385 8.3373L103.044 7.972L102.702 7.6067C100.868 9.32116 99.9756 11.6897 99.9756 14.644H100.476ZM103.044 7.972L103.383 8.33888C104.979 6.86159 107.533 6.072 111.156 6.072V5.572V5.072C107.418 5.072 104.564 5.88241 102.704 7.60512L103.044 7.972ZM111.156 5.572V6.072C114.795 6.072 117.348 6.86212 118.926 8.3373L119.268 7.972L119.609 7.6067C117.763 5.88188 114.908 5.072 111.156 5.072V5.572ZM119.268 7.972L118.928 8.33888C120.533 9.82477 121.36 11.9038 121.36 14.644H121.86H122.36C122.36 11.6882 121.459 9.31923 119.607 7.60512L119.268 7.972ZM121.86 14.644H121.36C121.36 17.4367 120.538 19.5296 118.952 20.997L119.292 21.364L119.631 21.731C121.469 20.0304 122.36 17.6433 122.36 14.644H121.86ZM119.292 21.364L118.952 20.997C117.374 22.4571 114.813 23.24 111.156 23.24V23.74V24.24C114.923 24.24 117.785 23.4389 119.631 21.731L119.292 21.364ZM111.156 18.844V19.344C112.973 19.344 114.401 19.0044 115.321 18.2156L114.996 17.836L114.67 17.4564C114.022 18.0116 112.891 18.344 111.156 18.344V18.844ZM114.996 17.836L115.325 18.2118C116.254 17.3968 116.672 16.1709 116.672 14.644H116.172H115.672C115.672 15.9971 115.305 16.8992 114.666 17.4602L114.996 17.836ZM116.172 14.644H116.672C116.672 13.145 116.252 11.9372 115.325 11.1242L114.996 11.5L114.666 11.8758C115.307 12.4388 115.672 13.327 115.672 14.644H116.172ZM114.996 11.5L115.325 11.1242C114.405 10.3163 112.975 9.968 111.156 9.968V10.468V10.968C112.889 10.968 114.018 11.3077 114.666 11.8758L114.996 11.5ZM111.156 10.468V9.968C109.351 9.968 107.93 10.3168 107.01 11.1242L107.34 11.5L107.669 11.8758C108.317 11.3072 109.44 10.968 111.156 10.968V10.468ZM107.34 11.5L107.01 11.1242C106.083 11.9372 105.664 13.145 105.664 14.644H106.164H106.664C106.664 13.327 107.028 12.4388 107.669 11.8758L107.34 11.5ZM106.164 14.644H105.664C105.664 16.1569 106.082 17.3738 107.01 18.1878L107.34 17.812L107.669 17.4362C107.029 16.8742 106.664 15.9791 106.664 14.644H106.164ZM107.34 17.812L107.01 18.1878C107.93 18.9952 109.351 19.344 111.156 19.344V18.844V18.344C109.44 18.344 108.317 18.0048 107.669 17.4362L107.34 17.812ZM57.96 41.436L57.544 41.1586L57.2325 41.6258L57.7325 41.8813L57.96 41.436ZM59.304 39.156L58.8608 38.9243L58.8568 38.9324L59.304 39.156ZM60.36 36.708L60.61 36.275L60.0931 35.9765L59.8899 36.5378L60.36 36.708ZM64.32 38.244L64.2012 38.7297L64.32 38.244ZM71.328 38.46L71.5184 38.9225L71.5298 38.9175L71.328 38.46ZM60.576 35.22L60.3643 35.673L60.3684 35.6748L60.576 35.22ZM61.056 27.132L61.3041 27.5661L61.056 27.132ZM73.152 26.244L73.0318 26.7294L73.037 26.7306L73.152 26.244ZM77.904 27.972L78.3618 28.1731L78.5497 27.7453L78.1356 27.5289L77.904 27.972ZM76.44 31.836L75.9662 31.6764L75.9635 31.6843L75.9611 31.6923L76.44 31.836ZM76.2 32.556L75.8867 32.9457L76.4133 33.369L76.6642 32.7417L76.2 32.556ZM72.504 30.924L72.3728 31.4065L72.3772 31.4077L72.504 30.924ZM65.064 30.564L65.2349 31.0341L65.2473 31.0292L65.064 30.564ZM65.352 32.364L65.1938 32.8385L65.2064 32.8423L65.352 32.364ZM75.912 33.876L75.6847 34.3214L75.6884 34.3232L75.912 33.876ZM75.768 42.276L76.0246 42.7051L76.0277 42.7033L75.768 42.276ZM62.928 43.164L62.8218 43.6526L62.8259 43.6535L62.928 43.164ZM57.96 41.436L58.376 41.7133C58.9289 40.8841 59.388 40.106 59.7512 39.3796L59.304 39.156L58.8568 38.9324C58.516 39.614 58.0791 40.3559 57.544 41.1586L57.96 41.436ZM59.304 39.156L59.7471 39.3876C60.1276 38.6597 60.4883 37.8225 60.8301 36.8782L60.36 36.708L59.8899 36.5378C59.5597 37.4495 59.2164 38.2443 58.8609 38.9244L59.304 39.156ZM60.36 36.708L60.11 37.141C61.2936 37.8245 62.6592 38.3524 64.2012 38.7297L64.32 38.244L64.4388 37.7583C62.9728 37.3996 61.6984 36.9035 60.61 36.275L60.36 36.708ZM64.32 38.244L64.2012 38.7297C65.7368 39.1054 67.1771 39.296 68.52 39.296V38.796V38.296C67.2709 38.296 65.9112 38.1186 64.4388 37.7583L64.32 38.244ZM68.52 38.796V39.296C69.8516 39.296 70.8754 39.1871 71.5184 38.9223L71.328 38.46L71.1376 37.9977C70.6926 38.1809 69.8444 38.296 68.52 38.296V38.796ZM71.328 38.46L71.5298 38.9175C71.8268 38.7865 72.0883 38.6351 72.2827 38.4521C72.4804 38.266 72.644 38.0112 72.644 37.692H72.144H71.644C71.644 37.6448 71.6716 37.654 71.5973 37.7239C71.5197 37.7969 71.3732 37.8935 71.1262 38.0025L71.328 38.46ZM72.144 37.692H72.644C72.644 36.8671 71.9885 36.3828 71.1838 36.1189C70.3627 35.8496 69.1823 35.728 67.68 35.728V36.228V36.728C69.1537 36.728 70.2053 36.8504 70.8722 37.0691C71.5555 37.2932 71.644 37.5409 71.644 37.692H72.144ZM67.68 36.228V35.728C64.4294 35.728 62.1527 35.3902 60.7836 34.7652L60.576 35.22L60.3684 35.6748C61.9433 36.3938 64.4026 36.728 67.68 36.728V36.228ZM60.576 35.22L60.7877 34.767C60.116 34.4531 59.643 34.0591 59.336 33.5986C59.0304 33.1403 58.868 32.5841 58.868 31.908H58.368H57.868C57.868 32.7519 58.0736 33.5077 58.504 34.1533C58.933 34.7969 59.564 35.2989 60.3643 35.673L60.576 35.22ZM58.368 31.908H58.868C58.868 29.9171 59.6766 28.4961 61.3041 27.5661L61.056 27.132L60.8079 26.6979C58.8514 27.8159 57.868 29.5789 57.868 31.908H58.368ZM61.056 27.132L61.3041 27.5661C62.9968 26.5988 65.2309 26.096 68.04 26.096V25.596V25.096C65.1211 25.096 62.6992 25.6172 60.8079 26.6979L61.056 27.132ZM68.04 25.596V26.096C69.6604 26.096 71.324 26.3063 73.0318 26.7293L73.152 26.244L73.2722 25.7587C71.492 25.3177 69.7476 25.096 68.04 25.096V25.596ZM73.152 26.244L73.037 26.7306C74.7619 27.1383 76.306 27.7008 77.6724 28.4151L77.904 27.972L78.1356 27.5289C76.686 26.7712 75.0621 26.1817 73.267 25.7574L73.152 26.244ZM77.904 27.972L77.4462 27.7709C76.9745 28.8445 76.4812 30.1473 75.9662 31.6764L76.44 31.836L76.9138 31.9956C77.4228 30.4847 77.9055 29.2115 78.3618 28.1731L77.904 27.972ZM76.44 31.836L75.9611 31.6923C75.8662 32.0087 75.7913 32.2315 75.7358 32.3703L76.2 32.556L76.6642 32.7417C76.7367 32.5605 76.8218 32.3033 76.9189 31.9797L76.44 31.836ZM76.2 32.556L76.5133 32.1663C75.6186 31.4471 74.3093 30.8803 72.6308 30.4403L72.504 30.924L72.3772 31.4077C73.9947 31.8317 75.1494 32.3529 75.8867 32.9457L76.2 32.556ZM72.504 30.924L72.6352 30.4415C70.9583 29.9857 69.4567 29.752 68.136 29.752V30.252V30.752C69.3433 30.752 70.7537 30.9663 72.3728 31.4065L72.504 30.924ZM68.136 30.252V29.752C67.3663 29.752 66.7121 29.7783 66.1775 29.8326C65.6505 29.8861 65.2086 29.9696 64.8807 30.0988L65.064 30.564L65.2473 31.0292C65.4474 30.9504 65.7815 30.8779 66.2785 30.8274C66.7679 30.7777 67.3857 30.752 68.136 30.752V30.252ZM65.064 30.564L64.8931 30.0941C64.5845 30.2063 64.3063 30.3626 64.1014 30.5861C63.8865 30.8206 63.772 31.1085 63.772 31.428H64.272H64.772C64.772 31.3635 64.7895 31.3154 64.8386 31.2619C64.8977 31.1974 65.0155 31.1136 65.2349 31.0339L65.064 30.564ZM64.272 31.428H63.772C63.772 31.799 63.9535 32.1016 64.2145 32.3278C64.4648 32.5447 64.8043 32.7085 65.1939 32.8383L65.352 32.364L65.5101 31.8897C65.1797 31.7795 64.9792 31.6673 64.8695 31.5722C64.7705 31.4864 64.772 31.441 64.772 31.428H64.272ZM65.352 32.364L65.2064 32.8423C66.0129 33.0878 67.127 33.2 68.52 33.2V32.7V32.2C67.161 32.2 66.1631 32.0882 65.4976 31.8857L65.352 32.364ZM68.52 32.7V33.2C71.8953 33.2 74.259 33.5937 75.6847 34.3213L75.912 33.876L76.1393 33.4307C74.493 32.5903 71.9287 32.2 68.52 32.2V32.7ZM75.912 33.876L75.6884 34.3232C76.3939 34.676 76.8946 35.1096 77.2205 35.6121C77.5452 36.1126 77.716 36.7113 77.716 37.428H78.216H78.716C78.716 36.5447 78.5028 35.7514 78.0595 35.0679C77.6174 34.3864 76.9661 33.844 76.1356 33.4288L75.912 33.876ZM78.216 37.428H77.716C77.716 39.5289 76.963 40.9645 75.5083 41.8487L75.768 42.276L76.0277 42.7033C77.837 41.6035 78.716 39.8071 78.716 37.428H78.216ZM75.768 42.276L75.5114 41.8469C73.9952 42.7536 71.6321 43.24 68.352 43.24V43.74V44.24C71.6959 44.24 74.2768 43.7504 76.0246 42.7051L75.768 42.276ZM68.352 43.74V43.24C66.6123 43.24 64.8385 43.0519 63.0301 42.6745L62.928 43.164L62.8259 43.6535C64.6975 44.0441 66.5397 44.24 68.352 44.24V43.74ZM62.928 43.164L63.0342 42.6754C61.2306 42.2833 59.6162 41.7206 58.1875 40.9907L57.96 41.436L57.7325 41.8813C59.2478 42.6554 60.9454 43.2447 62.8218 43.6526L62.928 43.164ZM94.3399 26.052V25.552H93.8399V26.052H94.3399ZM100.292 26.052H100.792V25.552H100.292V26.052ZM100.292 35.604L100.792 35.6108V35.604H100.292ZM97.8679 41.436L97.5198 41.077L97.518 41.0788L97.8679 41.436ZM82.1719 41.556L81.8086 41.8995L81.8105 41.9015L82.1719 41.556ZM80.1319 35.772L80.6319 35.7787V35.772H80.1319ZM80.1319 26.052V25.552H79.6319V26.052H80.1319ZM86.0839 26.052H86.5839V25.552H86.0839V26.052ZM86.2279 37.116L85.739 37.2208L85.7412 37.2312L85.7439 37.2415L86.2279 37.116ZM87.2359 38.34L86.9531 38.7524L86.9585 38.756L87.2359 38.34ZM93.0199 38.34L93.2772 38.7688L93.2849 38.764L93.0199 38.34ZM94.1479 37.02L93.6648 36.8912L93.6627 36.8987L93.661 36.9064L94.1479 37.02ZM94.3399 26.052V26.552H100.292V26.052V25.552H94.3399V26.052ZM100.292 26.052H99.7919V35.604H100.292H100.792V26.052H100.292ZM100.292 35.604L99.7919 35.5972C99.7616 37.826 99.0016 39.6401 97.5198 41.077L97.8679 41.436L98.216 41.7949C99.9021 40.1599 100.758 38.086 100.792 35.6108L100.292 35.604ZM97.8679 41.436L97.518 41.0788C96.0905 42.4772 93.6065 43.24 89.9239 43.24V43.74V44.24C93.6973 44.24 96.5092 43.4668 98.2178 41.7932L97.8679 41.436ZM89.9239 43.74V43.24C86.1767 43.24 83.7761 42.5105 82.5333 41.2105L82.1719 41.556L81.8105 41.9015C83.3516 43.5135 86.119 44.24 89.9239 44.24V43.74ZM82.1719 41.556L82.5352 41.2125C81.2482 39.8515 80.6012 38.0573 80.6318 35.7787L80.1319 35.772L79.6319 35.7653C79.5985 38.2547 80.3116 40.3165 81.8086 41.8995L82.1719 41.556ZM80.1319 35.772H80.6319V26.052H80.1319H79.6319V35.772H80.1319ZM80.1319 26.052V26.552H86.0839V26.052V25.552H80.1319V26.052ZM86.0839 26.052H85.5839V35.388H86.0839H86.5839V26.052H86.0839ZM86.0839 35.388H85.5839C85.5839 36.1106 85.6328 36.7252 85.739 37.2208L86.2279 37.116L86.7168 37.0112C86.631 36.6108 86.5839 36.0734 86.5839 35.388H86.0839ZM86.2279 37.116L85.7439 37.2415C85.8985 37.8379 86.3436 38.3344 86.9531 38.7524L87.2359 38.34L87.5186 37.9276C87.0082 37.5776 86.7812 37.2581 86.7119 36.9905L86.2279 37.116ZM87.2359 38.34L86.9585 38.756C87.6603 39.2239 88.7035 39.416 89.9959 39.416V38.916V38.416C88.7602 38.416 87.9635 38.2241 87.5132 37.924L87.2359 38.34ZM89.9959 38.916V39.416C91.3975 39.416 92.518 39.2242 93.2771 38.7687L93.0199 38.34L92.7626 37.9113C92.2417 38.2238 91.3463 38.416 89.9959 38.416V38.916ZM93.0199 38.34L93.2849 38.764C93.9787 38.3304 94.4801 37.7966 94.6348 37.1336L94.1479 37.02L93.661 36.9064C93.5917 37.2034 93.3411 37.5496 92.7549 37.916L93.0199 38.34ZM94.1479 37.02L94.631 37.1488C94.7744 36.6112 94.8399 35.9477 94.8399 35.172H94.3399H93.8399C93.8399 35.9003 93.7774 36.4688 93.6648 36.8912L94.1479 37.02ZM94.3399 35.172H94.8399V26.052H94.3399H93.8399V35.172H94.3399ZM120.45 35.412L120.044 35.1207L120.04 35.1253L120.45 35.412ZM116.97 37.5L116.843 37.0163L116.124 37.205L116.57 37.8L116.97 37.5ZM117.378 38.1L116.941 38.3428L116.955 38.3684L116.972 38.3922L117.378 38.1ZM121.266 43.5V44H122.242L121.672 43.2078L121.266 43.5ZM114.738 43.5L114.297 43.7364L114.439 44H114.738V43.5ZM111.402 37.932L111.824 37.6645L111.677 37.432H111.402V37.932ZM107.874 37.932V37.432H107.374V37.932H107.874ZM107.874 43.5V44H108.374V43.5H107.874ZM102.21 43.5L101.71 43.4794L101.689 44H102.21V43.5ZM102.21 26.076V25.576H101.689L101.71 26.0966L102.21 26.076ZM107.874 26.076H108.374V25.576H107.874V26.076ZM107.874 26.1H107.374V26.6H107.874V26.1ZM119.562 27.66L119.247 28.0481L119.562 27.66ZM107.874 30.708V30.208H107.374V30.708H107.874ZM107.874 33.444H107.374V33.944H107.874V33.444ZM114.186 33.324L114.244 33.8207L114.254 33.8194L114.186 33.324ZM115.65 32.892L115.362 32.4835L115.65 32.892ZM115.674 31.236L115.974 30.836L115.674 31.236ZM114.234 30.828L114.178 31.3248L114.234 30.828ZM121.482 31.884H120.982C120.982 33.1907 120.66 34.26 120.044 35.1207L120.45 35.412L120.856 35.7033C121.616 34.644 121.982 33.3613 121.982 31.884H121.482ZM120.45 35.412L120.04 35.1253C119.461 35.9524 118.427 36.6011 116.843 37.0163L116.97 37.5L117.097 37.9837C118.809 37.5349 120.095 36.7916 120.86 35.6987L120.45 35.412ZM116.97 37.5L116.57 37.8C116.759 38.0514 116.878 38.2294 116.941 38.3428L117.378 38.1L117.815 37.8572C117.718 37.6826 117.565 37.4606 117.37 37.2L116.97 37.5ZM117.378 38.1L116.972 38.3922L120.86 43.7922L121.266 43.5L121.672 43.2078L117.784 37.8078L117.378 38.1ZM121.266 43.5V43H114.738V43.5V44H121.266V43.5ZM114.738 43.5L115.179 43.2636C114.466 41.9354 113.346 40.0673 111.824 37.6645L111.402 37.932L110.98 38.1995C112.498 40.5967 113.602 42.4406 114.297 43.7364L114.738 43.5ZM111.402 37.932V37.432H107.874V37.932V38.432H111.402V37.932ZM107.874 37.932H107.374V43.5H107.874H108.374V37.932H107.874ZM107.874 43.5V43H102.21V43.5V44H107.874V43.5ZM102.21 43.5L102.71 43.5206C102.838 40.4107 102.902 37.4998 102.902 34.788H102.402H101.902C101.902 37.4842 101.838 40.3813 101.71 43.4794L102.21 43.5ZM102.402 34.788H102.902C102.902 32.0762 102.838 29.1653 102.71 26.0554L102.21 26.076L101.71 26.0966C101.838 29.1947 101.902 32.0918 101.902 34.788H102.402ZM102.21 26.076V26.576H107.874V26.076V25.576H102.21V26.076ZM107.874 26.076H107.374V26.1H107.874H108.374V26.076H107.874ZM107.874 26.1V26.6H112.794V26.1V25.6H107.874V26.1ZM112.794 26.1V26.6C116.005 26.6 118.108 27.1232 119.247 28.0481L119.562 27.66L119.877 27.2719C118.456 26.1168 116.047 25.6 112.794 25.6V26.1ZM119.562 27.66L119.247 28.0481C120.4 28.9851 120.982 30.2453 120.982 31.884H121.482H121.982C121.982 29.9707 121.284 28.4149 119.877 27.2719L119.562 27.66ZM107.874 30.708H107.374V33.444H107.874H108.374V30.708H107.874ZM107.874 33.444V33.944H111.114V33.444V32.944H107.874V33.444ZM111.114 33.444V33.944C112.479 33.944 113.526 33.9041 114.244 33.8207L114.186 33.324L114.128 32.8273C113.47 32.9039 112.469 32.944 111.114 32.944V33.444ZM114.186 33.324L114.254 33.8194C114.966 33.7222 115.56 33.5673 115.938 33.3005L115.65 32.892L115.362 32.4835C115.196 32.6007 114.814 32.7338 114.118 32.8286L114.186 33.324ZM115.65 32.892L115.938 33.3005C116.359 33.0039 116.558 32.5625 116.558 32.052H116.058H115.558C115.558 32.2775 115.485 32.3961 115.362 32.4835L115.65 32.892ZM116.058 32.052H116.558C116.558 31.5608 116.37 31.1328 115.974 30.836L115.674 31.236L115.374 31.636C115.49 31.7232 115.558 31.8392 115.558 32.052H116.058ZM115.674 31.236L115.974 30.836C115.601 30.5563 115 30.4118 114.29 30.3312L114.234 30.828L114.178 31.3248C114.876 31.4042 115.235 31.5317 115.374 31.636L115.674 31.236ZM114.234 30.828L114.29 30.3312C113.558 30.2479 112.495 30.208 111.114 30.208V30.708V31.208C112.485 31.208 113.502 31.2481 114.178 31.3248L114.234 30.828ZM111.114 30.708V30.208H107.874V30.708V31.208H111.114V30.708ZM142.118 30.564V31.064H142.618V30.564H142.118ZM129.062 30.564V30.064H128.562V30.564H129.062ZM129.062 33.084H128.562V33.5743L129.052 33.5839L129.062 33.084ZM141.326 32.964H141.826V32.4472L141.309 32.4643L141.326 32.964ZM141.326 37.668L141.306 38.1676L141.826 38.1876V37.668H141.326ZM129.062 37.524L129.05 37.0241L128.562 37.0355V37.524H129.062ZM129.062 43.5V44H129.562V43.5H129.062ZM123.397 43.5L122.898 43.4794L122.876 44H123.397V43.5ZM123.397 26.076V25.576H122.876L122.898 26.0966L123.397 26.076ZM142.118 26.076H142.618V25.576H142.118V26.076ZM142.118 30.564V30.064H129.062V30.564V31.064H142.118V30.564ZM129.062 30.564H128.562V33.084H129.062H129.562V30.564H129.062ZM129.062 33.084L129.052 33.5839C129.873 33.6 131.101 33.608 132.733 33.608V33.108V32.608C131.102 32.608 129.882 32.6 129.071 32.5841L129.062 33.084ZM132.733 33.108V33.608C135.555 33.608 138.425 33.5599 141.342 33.4637L141.326 32.964L141.309 32.4643C138.402 32.5601 135.544 32.608 132.733 32.608V33.108ZM141.326 32.964H140.826V37.668H141.326H141.826V32.964H141.326ZM141.326 37.668L141.345 37.1684C138.426 37.0561 135.347 37 132.109 37V37.5V38C135.336 38 138.401 38.0559 141.306 38.1676L141.326 37.668ZM132.109 37.5V37C130.765 37 129.744 37.008 129.05 37.0241L129.062 37.524L129.073 38.0239C129.755 38.008 130.766 38 132.109 38V37.5ZM129.062 37.524H128.562V43.5H129.062H129.562V37.524H129.062ZM129.062 43.5V43H123.397V43.5V44H129.062V43.5ZM123.397 43.5L123.897 43.5206C124.025 40.4107 124.09 37.4998 124.09 34.788H123.59H123.09C123.09 37.4842 123.026 40.3813 122.898 43.4794L123.397 43.5ZM123.59 34.788H124.09C124.09 32.0762 124.025 29.1653 123.897 26.0554L123.397 26.076L122.898 26.0966C123.026 29.1947 123.09 32.0918 123.09 34.788H123.59ZM123.397 26.076V26.576H142.118V26.076V25.576H123.397V26.076ZM142.118 26.076H141.618V30.564H142.118H142.618V26.076H142.118Z" fill="#1E1E1E" mask="url(#path-3-inside-1_7635_3203)"/>
<defs>
<clipPath id="clip0_7635_3203">
<rect width="50" height="50" rx="14" fill="white"/>
</clipPath>
</defs>
</svg>
