<svg width="20" height="20" viewBox="0 0 20 20" fill="none" xmlns="http://www.w3.org/2000/svg">
<path d="M16.25 1.5625H5C4.5856 1.5625 4.18817 1.72712 3.89515 2.02015C3.60212 2.31317 3.4375 2.7106 3.4375 3.125V4.6875H2.5C2.25136 4.6875 2.0129 4.78627 1.83709 4.96209C1.66127 5.1379 1.5625 5.37636 1.5625 5.625C1.5625 5.87364 1.66127 6.1121 1.83709 6.28791C2.0129 6.46373 2.25136 6.5625 2.5 6.5625H3.4375V9.0625H2.5C2.25136 9.0625 2.0129 9.16127 1.83709 9.33709C1.66127 9.5129 1.5625 9.75136 1.5625 10C1.5625 10.2486 1.66127 10.4871 1.83709 10.6629C2.0129 10.8387 2.25136 10.9375 2.5 10.9375H3.4375V13.4375H2.5C2.25136 13.4375 2.0129 13.5363 1.83709 13.7121C1.66127 13.8879 1.5625 14.1264 1.5625 14.375C1.5625 14.6236 1.66127 14.8621 1.83709 15.0379C2.0129 15.2137 2.25136 15.3125 2.5 15.3125H3.4375V16.875C3.4375 17.2894 3.60212 17.6868 3.89515 17.9799C4.18817 18.2729 4.5856 18.4375 5 18.4375H16.25C16.6644 18.4375 17.0618 18.2729 17.3549 17.9799C17.6479 17.6868 17.8125 17.2894 17.8125 16.875V3.125C17.8125 2.7106 17.6479 2.31317 17.3549 2.02015C17.0618 1.72712 16.6644 1.5625 16.25 1.5625ZM15.9375 16.5625H5.3125V3.4375H15.9375V16.5625ZM7.875 13.3883C8.22604 13.0096 8.65149 12.7076 9.12469 12.501C9.5979 12.2944 10.1087 12.1878 10.625 12.1878C11.1413 12.1878 11.6521 12.2944 12.1253 12.501C12.5985 12.7076 13.024 13.0096 13.375 13.3883C13.5441 13.5706 13.7787 13.6783 14.0271 13.6877C14.2756 13.6971 14.5177 13.6074 14.7 13.4383C14.8823 13.2692 14.99 13.0346 14.9994 12.7861C15.0088 12.5377 14.9191 12.2956 14.75 12.1133C14.318 11.6491 13.8105 11.2614 13.2492 10.9664C13.6725 10.4659 13.9439 9.85485 14.0314 9.20522C14.1188 8.55559 14.0187 7.8945 13.7429 7.29988C13.467 6.70527 13.0269 6.20192 12.4744 5.84918C11.9219 5.49645 11.2801 5.30903 10.6246 5.30903C9.96912 5.30903 9.3273 5.49645 8.77481 5.84918C8.22232 6.20192 7.7822 6.70527 7.50634 7.29988C7.23048 7.8945 7.13038 8.55559 7.21785 9.20522C7.30532 9.85485 7.5767 10.4659 8 10.9664C7.43905 11.2616 6.93193 11.6493 6.5 12.1133C6.33092 12.2956 6.24121 12.5377 6.25058 12.7861C6.25996 13.0346 6.36766 13.2692 6.55 13.4383C6.73234 13.6074 6.97437 13.6971 7.22286 13.6877C7.47134 13.6783 7.70592 13.5706 7.875 13.3883ZM9.0625 8.75C9.0625 8.44097 9.15414 8.13887 9.32583 7.88192C9.49752 7.62497 9.74155 7.4247 10.0271 7.30644C10.3126 7.18818 10.6267 7.15723 10.9298 7.21752C11.2329 7.27781 11.5113 7.42663 11.7299 7.64515C11.9484 7.86367 12.0972 8.14208 12.1575 8.44517C12.2178 8.74827 12.1868 9.06243 12.0686 9.34794C11.9503 9.63345 11.75 9.87748 11.4931 10.0492C11.2361 10.2209 10.934 10.3125 10.625 10.3125C10.2106 10.3125 9.81317 10.1479 9.52015 9.85485C9.22712 9.56183 9.0625 9.1644 9.0625 8.75Z" fill="#191F2E"/>
</svg>
