<svg width="20" height="20" viewBox="0 0 20 20" fill="none" xmlns="http://www.w3.org/2000/svg">
<path d="M17.8991 4.90781C17.7838 4.7432 17.6305 4.60883 17.4522 4.51608C17.2739 4.42332 17.0759 4.37493 16.8749 4.375H10.6249V1.875H11.8749C12.0406 1.875 12.1996 1.80915 12.3168 1.69194C12.434 1.57473 12.4999 1.41576 12.4999 1.25C12.4999 1.08424 12.434 0.925268 12.3168 0.808058C12.1996 0.690848 12.0406 0.625 11.8749 0.625H8.12488C7.95912 0.625 7.80015 0.690848 7.68294 0.808058C7.56573 0.925268 7.49988 1.08424 7.49988 1.25C7.49988 1.41576 7.56573 1.57473 7.68294 1.69194C7.80015 1.80915 7.95912 1.875 8.12488 1.875H9.37488V4.375H3.12488C2.92418 4.37545 2.72654 4.42422 2.54868 4.51718C2.37081 4.61015 2.21794 4.74458 2.103 4.9091C1.98805 5.07362 1.91441 5.2634 1.88831 5.46239C1.8622 5.66139 1.88439 5.86374 1.95301 6.05234L3.9991 11.6773C4.08665 11.918 4.24599 12.1259 4.45558 12.2731C4.66517 12.4202 4.9149 12.4994 5.17097 12.5H14.8296C15.0856 12.4994 15.3354 12.4202 15.545 12.2731C15.7546 12.1259 15.9139 11.918 16.0014 11.6773L18.0475 6.05234C18.1166 5.86368 18.1392 5.66116 18.1133 5.46192C18.0875 5.26269 18.014 5.07262 17.8991 4.90781ZM8.00925 11.2398C7.97215 11.2467 7.93449 11.2501 7.89676 11.25C7.75052 11.2498 7.60899 11.1983 7.49679 11.1045C7.38459 11.0108 7.30883 10.8806 7.28269 10.7367L6.48426 6.36172C6.46958 6.28093 6.47097 6.19803 6.48833 6.11777C6.5057 6.03752 6.5387 5.96146 6.58546 5.89396C6.67988 5.75763 6.8246 5.6644 6.98777 5.63477C7.15094 5.60514 7.3192 5.64154 7.45553 5.73597C7.52303 5.78272 7.58067 5.84232 7.62514 5.91135C7.66961 5.98037 7.70005 6.05749 7.71472 6.13828L8.51004 10.5133C8.53969 10.676 8.50364 10.8438 8.40977 10.98C8.3159 11.1162 8.17188 11.2097 8.00925 11.2398ZM13.5155 6.36172L12.7194 10.7367C12.6933 10.8806 12.6175 11.0108 12.5053 11.1045C12.3931 11.1983 12.2516 11.2498 12.1053 11.25C12.0676 11.2501 12.03 11.2467 11.9928 11.2398C11.8298 11.2102 11.6852 11.117 11.5908 10.9807C11.4965 10.8445 11.4601 10.6763 11.4897 10.5133L12.285 6.13828C12.3147 5.97511 12.4079 5.83039 12.5442 5.73597C12.6806 5.64154 12.8488 5.60514 13.012 5.63477C13.1752 5.6644 13.3199 5.75763 13.4143 5.89396C13.5087 6.03029 13.5451 6.19855 13.5155 6.36172ZM12.4999 14.0625V17.5C12.4999 17.6658 12.434 17.8247 12.3168 17.9419C12.1996 18.0592 12.0406 18.125 11.8749 18.125H8.12488C7.95912 18.125 7.80015 18.0592 7.68294 17.9419C7.56573 17.8247 7.49988 17.6658 7.49988 17.5V14.0625C7.49988 13.9796 7.5328 13.9001 7.59141 13.8415C7.65001 13.7829 7.7295 13.75 7.81238 13.75H12.1874C12.2703 13.75 12.3497 13.7829 12.4084 13.8415C12.467 13.9001 12.4999 13.9796 12.4999 14.0625Z" fill="#191F2E"/>
</svg>
