<svg width="20" height="20" viewBox="0 0 20 20" fill="none" xmlns="http://www.w3.org/2000/svg">
<path d="M18.1546 4.72813C18.0105 4.52252 17.8189 4.35467 17.5962 4.23881C17.3734 4.12294 17.126 4.06246 16.8749 4.0625H10.9374V2.1875H11.8749C12.1236 2.1875 12.362 2.08873 12.5379 1.91291C12.7137 1.7371 12.8124 1.49864 12.8124 1.25C12.8124 1.00136 12.7137 0.762903 12.5379 0.587087C12.362 0.411272 12.1236 0.3125 11.8749 0.3125H8.12494C7.8763 0.3125 7.63784 0.411272 7.46203 0.587087C7.28621 0.762903 7.18744 1.00136 7.18744 1.25C7.18744 1.49864 7.28621 1.7371 7.46203 1.91291C7.63784 2.08873 7.8763 2.1875 8.12494 2.1875H9.06244V4.0625H3.12494C2.87381 4.06247 2.62637 4.12297 2.40359 4.23888C2.18081 4.35479 1.98924 4.52269 1.84513 4.72836C1.70102 4.93402 1.6086 5.1714 1.57571 5.42036C1.54282 5.66933 1.57043 5.92256 1.65619 6.15859L3.70228 11.7836C3.81238 12.0846 4.01214 12.3447 4.27463 12.5287C4.53712 12.7126 4.84971 12.8117 5.17025 12.8125H7.18744V17.5C7.18744 17.7486 7.28621 17.9871 7.46203 18.1629C7.63784 18.3387 7.8763 18.4375 8.12494 18.4375C8.37358 18.4375 8.61204 18.3387 8.78785 18.1629C8.96367 17.9871 9.06244 17.7486 9.06244 17.5V12.8125H10.9374V17.5C10.9374 17.7486 11.0362 17.9871 11.212 18.1629C11.3878 18.3387 11.6263 18.4375 11.8749 18.4375C12.1236 18.4375 12.362 18.3387 12.5379 18.1629C12.7137 17.9871 12.8124 17.7486 12.8124 17.5V12.8125H14.8296C15.1502 12.8117 15.4628 12.7126 15.7253 12.5287C15.9877 12.3447 16.1875 12.0846 16.2976 11.7836L18.3437 6.15859C18.4295 5.92252 18.4571 5.66924 18.4242 5.42023C18.3913 5.17122 18.2988 4.93381 18.1546 4.72813ZM8.90619 10.9375L7.99838 5.9375H12.0015L11.0937 10.9375H8.90619ZM3.57103 5.9375H6.09369L7.00307 10.9375H5.39057L3.57103 5.9375ZM14.6093 10.9375H12.9984L13.9062 5.9375H16.4273L14.6093 10.9375Z" fill="#191F2E"/>
</svg>
