<svg width="20" height="20" viewBox="0 0 20 20" fill="none" xmlns="http://www.w3.org/2000/svg">
<path d="M17.8991 4.90781C17.7838 4.7432 17.6305 4.60883 17.4522 4.51608C17.2739 4.42332 17.0759 4.37493 16.8749 4.375H10.6249V1.875H11.8749C12.0406 1.875 12.1996 1.80915 12.3168 1.69194C12.434 1.57473 12.4999 1.41576 12.4999 1.25C12.4999 1.08424 12.434 0.925268 12.3168 0.808058C12.1996 0.690848 12.0406 0.625 11.8749 0.625H8.12488C7.95912 0.625 7.80015 0.690848 7.68294 0.808058C7.56573 0.925268 7.49988 1.08424 7.49988 1.25C7.49988 1.41576 7.56573 1.57473 7.68294 1.69194C7.80015 1.80915 7.95912 1.875 8.12488 1.875H9.37488V4.375H3.12488C2.92418 4.37545 2.72654 4.42422 2.54868 4.51718C2.37081 4.61015 2.21794 4.74458 2.103 4.9091C1.98805 5.07362 1.91441 5.2634 1.88831 5.46239C1.8622 5.66139 1.88439 5.86374 1.95301 6.05234L3.9991 11.6773C4.08665 11.918 4.24599 12.1259 4.45558 12.2731C4.66517 12.4202 4.9149 12.4994 5.17097 12.5H7.49988V17.5C7.49988 17.6658 7.56573 17.8247 7.68294 17.9419C7.80015 18.0592 7.95912 18.125 8.12488 18.125C8.29064 18.125 8.44961 18.0592 8.56682 17.9419C8.68403 17.8247 8.74988 17.6658 8.74988 17.5V12.5H11.2499V17.5C11.2499 17.6658 11.3157 17.8247 11.4329 17.9419C11.5501 18.0592 11.7091 18.125 11.8749 18.125C12.0406 18.125 12.1996 18.0592 12.3168 17.9419C12.434 17.8247 12.4999 17.6658 12.4999 17.5V12.5H14.8296C15.0856 12.4994 15.3354 12.4202 15.545 12.2731C15.7546 12.1259 15.9139 11.918 16.0014 11.6773L18.0475 6.05234C18.1166 5.86368 18.1392 5.66116 18.1133 5.46192C18.0875 5.26269 18.014 5.07262 17.8991 4.90781ZM8.64676 11.25L7.62332 5.625H12.3764L11.353 11.25H8.64676ZM3.12488 5.625H6.35301L7.37566 11.25H5.17019L3.12488 5.625ZM14.8296 11.25H12.6241L13.6468 5.625H16.8749L14.8296 11.25Z" fill="#191F2E"/>
</svg>
