<svg width="20" height="20" viewBox="0 0 20 20" fill="none" xmlns="http://www.w3.org/2000/svg">
<path d="M14.2242 16.468C14.3021 16.5587 14.3523 16.6699 14.3689 16.7882C14.3855 16.9066 14.3678 17.0273 14.3178 17.136C14.2679 17.2446 14.1879 17.3366 14.0872 17.4012C13.9866 17.4657 13.8696 17.5 13.75 17.5H6.25C6.13044 17.5 6.0134 17.4657 5.91275 17.4012C5.8121 17.3366 5.73207 17.2446 5.68216 17.136C5.63224 17.0273 5.61453 16.9066 5.63112 16.7882C5.64772 16.6699 5.69792 16.5587 5.77578 16.468L9.52578 12.093C9.58446 12.0245 9.65725 11.9695 9.73918 11.9318C9.8211 11.8941 9.91021 11.8746 10.0004 11.8746C10.0906 11.8746 10.1797 11.8941 10.2616 11.9318C10.3435 11.9695 10.4163 12.0245 10.475 12.093L14.2242 16.468ZM16.25 3.125H3.75C3.25272 3.125 2.77581 3.32254 2.42417 3.67417C2.07254 4.02581 1.875 4.50272 1.875 5V13.75C1.875 14.2473 2.07254 14.7242 2.42417 15.0758C2.77581 15.4275 3.25272 15.625 3.75 15.625H4.70781C4.75242 15.6246 4.79642 15.6146 4.83685 15.5957C4.87727 15.5768 4.91319 15.5495 4.94219 15.5156L8.57344 11.2797C8.74946 11.0744 8.96781 10.9096 9.21351 10.7966C9.45921 10.6836 9.72644 10.6251 9.99687 10.6251C10.2673 10.6251 10.5345 10.6836 10.7802 10.7966C11.0259 10.9096 11.2443 11.0744 11.4203 11.2797L15.0547 15.5156C15.0837 15.5495 15.1196 15.5768 15.16 15.5957C15.2005 15.6146 15.2445 15.6246 15.2891 15.625H16.25C16.7473 15.625 17.2242 15.4275 17.5758 15.0758C17.9275 14.7242 18.125 14.2473 18.125 13.75V5C18.125 4.50272 17.9275 4.02581 17.5758 3.67417C17.2242 3.32254 16.7473 3.125 16.25 3.125Z" fill="#191F2E"/>
</svg>
