<svg width="20" height="20" viewBox="0 0 20 20" fill="none" xmlns="http://www.w3.org/2000/svg">
<path d="M18.75 10.625V13.125C18.75 13.2908 18.6842 13.4497 18.5669 13.5669C18.4497 13.6842 18.2908 13.75 18.125 13.75C18.0838 13.7501 18.0427 13.7459 18.0023 13.7375L12.1875 12.5781V14.432L13.5672 15.8109C13.6836 15.9275 13.7493 16.0853 13.75 16.25V18.125C13.7502 18.2274 13.7252 18.3283 13.6772 18.4188C13.6292 18.5093 13.5597 18.5867 13.4748 18.644C13.3899 18.7013 13.2923 18.7369 13.1904 18.7476C13.0885 18.7584 12.9856 18.7439 12.8906 18.7055L10 17.5484L7.10938 18.7055C7.01442 18.7439 6.91147 18.7584 6.8096 18.7476C6.70773 18.7369 6.61005 18.7013 6.52517 18.644C6.44028 18.5867 6.37079 18.5093 6.32281 18.4188C6.27483 18.3283 6.24982 18.2274 6.25 18.125V16.25C6.24994 16.1679 6.26605 16.0866 6.29741 16.0107C6.32878 15.9348 6.37479 15.8659 6.43281 15.8078L7.8125 14.4289V12.5781L1.99766 13.7375C1.95731 13.7459 1.91621 13.7501 1.875 13.75C1.70924 13.75 1.55027 13.6842 1.43306 13.5669C1.31585 13.4497 1.25 13.2908 1.25 13.125V10.625C1.24992 10.5089 1.28218 10.395 1.34317 10.2962C1.40417 10.1974 1.49148 10.1176 1.59531 10.0656L7.8125 6.95781V3.4375C7.8125 2.85734 8.04297 2.30094 8.4532 1.8907C8.86344 1.48047 9.41984 1.25 10 1.25C10.5802 1.25 11.1366 1.48047 11.5468 1.8907C11.957 2.30094 12.1875 2.85734 12.1875 3.4375V6.95781L18.4047 10.0656C18.5085 10.1176 18.5958 10.1974 18.6568 10.2962C18.7178 10.395 18.7501 10.5089 18.75 10.625Z" fill="#191F2E"/>
</svg>
