<svg width="20" height="20" viewBox="0 0 20 20" fill="none" xmlns="http://www.w3.org/2000/svg">
<path d="M16.8375 15.4109C16.8782 15.5226 16.8861 15.6437 16.8604 15.7598C16.8346 15.8759 16.7763 15.9822 16.6922 16.0663L14.8172 17.9413C14.7592 17.9995 14.6903 18.0456 14.6144 18.0771C14.5385 18.1086 14.4572 18.1249 14.375 18.1249C14.3545 18.1261 14.3339 18.1261 14.3133 18.1249C14.2213 18.1159 14.1324 18.0865 14.0531 18.0389C13.9738 17.9914 13.9061 17.9268 13.8547 17.8499L10.4118 12.6843L8.75004 14.3429V16.2499C8.74996 16.4155 8.68421 16.5742 8.56722 16.6913C8.56722 16.6913 7.47347 17.7898 7.3266 17.9319C7.26554 17.9959 7.19148 18.046 7.10941 18.0788C6.95645 18.1411 6.78505 18.1404 6.63266 18.0767C6.48027 18.013 6.35928 17.8916 6.29613 17.739L6.29144 17.7273L5.14301 14.8554L2.26566 13.7046C2.16968 13.6662 2.08471 13.6046 2.01839 13.5253C1.95206 13.446 1.90644 13.3515 1.88561 13.2502C1.86479 13.149 1.86941 13.0441 1.89906 12.9451C1.92871 12.846 1.98246 12.7559 2.05551 12.6827L3.30551 11.4327C3.36387 11.3744 3.4332 11.3283 3.50949 11.2969C3.58579 11.2655 3.66754 11.2495 3.75004 11.2499H5.65629L7.31801 9.5882L2.15316 6.14445C2.07613 6.09317 2.01144 6.02542 1.96378 5.9461C1.91611 5.86678 1.88666 5.77786 1.87754 5.68577C1.86842 5.59368 1.87987 5.50072 1.91105 5.41359C1.94223 5.32646 1.99237 5.24734 2.05785 5.18195L3.93285 3.30695C4.01696 3.22288 4.12331 3.16455 4.23942 3.13881C4.35552 3.11307 4.47656 3.12099 4.58832 3.16164L11.3024 5.60304L13.7657 3.13976C14.1759 2.7295 14.7323 2.49902 15.3125 2.49902C15.5998 2.49902 15.8843 2.55561 16.1497 2.66555C16.4151 2.77548 16.6563 2.93662 16.8594 3.13976C17.0626 3.3429 17.2237 3.58406 17.3336 3.84947C17.4436 4.11489 17.5001 4.39935 17.5001 4.68664C17.5001 4.97392 17.4436 5.25838 17.3336 5.5238C17.2237 5.78921 17.0626 6.03037 16.8594 6.23351L14.3961 8.69679L16.8375 15.4109Z" fill="#191F2E"/>
</svg>
