<svg width="20" height="20" viewBox="0 0 20 20" fill="none" xmlns="http://www.w3.org/2000/svg">
<path d="M19.375 16.8748C19.375 17.0406 19.3092 17.1996 19.1919 17.3168C19.0747 17.434 18.9158 17.4998 18.75 17.4998H7.5C7.33424 17.4998 7.17527 17.434 7.05806 17.3168C6.94085 17.1996 6.875 17.0406 6.875 16.8748C6.875 16.7091 6.94085 16.5501 7.05806 16.4329C7.17527 16.3157 7.33424 16.2498 7.5 16.2498H18.75C18.9158 16.2498 19.0747 16.3157 19.1919 16.4329C19.3092 16.5501 19.375 16.7091 19.375 16.8748ZM17.5 14.9998C17.6658 14.9998 17.8247 14.934 17.9419 14.8168C18.0592 14.6996 18.125 14.5406 18.125 14.3748V11.5873C18.1234 10.9049 17.8991 10.2416 17.4863 9.69818C17.0734 9.15477 16.4945 8.76091 15.8375 8.5764L11.0844 7.24827L9.32656 3.05843C9.29213 2.97619 9.24051 2.90228 9.17516 2.84164C9.1098 2.781 9.03223 2.73505 8.94766 2.70686L8.52031 2.56468C8.33247 2.50206 8.13243 2.48496 7.93668 2.51479C7.74093 2.54462 7.55507 2.62053 7.3944 2.73626C7.23374 2.85199 7.10286 3.00424 7.01256 3.18045C6.92226 3.35667 6.87511 3.55182 6.875 3.74983V6.04593L4.54141 5.38108L3.7125 3.08655C3.68037 2.99774 3.62853 2.91737 3.56087 2.85147C3.49321 2.78557 3.4115 2.73587 3.32188 2.70608L2.89453 2.5639C2.70667 2.50141 2.50665 2.48444 2.31094 2.51438C2.11524 2.54432 1.92944 2.62033 1.76886 2.73613C1.60827 2.85193 1.47749 3.00423 1.38729 3.18046C1.29708 3.3567 1.25003 3.55185 1.25 3.74983V8.10296C1.2515 8.78446 1.47507 9.44692 1.88686 9.98995C2.29865 10.533 2.8762 10.927 3.53203 11.1123L17.3312 14.9764C17.3862 14.9919 17.4429 14.9998 17.5 14.9998Z" fill="#191F2E"/>
</svg>
