<svg width="20" height="20" viewBox="0 0 20 20" fill="none" xmlns="http://www.w3.org/2000/svg">
<path d="M10.475 12.093C10.4163 12.0245 10.3435 11.9695 10.2616 11.9318C10.1797 11.8941 10.0906 11.8746 10.0004 11.8746C9.91021 11.8746 9.8211 11.8941 9.73918 11.9318C9.65725 11.9695 9.58446 12.0245 9.52578 12.093L5.77578 16.468C5.69792 16.5587 5.64772 16.6699 5.63112 16.7882C5.61453 16.9066 5.63224 17.0273 5.68216 17.136C5.73207 17.2446 5.8121 17.3366 5.91275 17.4012C6.0134 17.4657 6.13044 17.5 6.25 17.5H13.75C13.8696 17.5 13.9866 17.4657 14.0872 17.4012C14.1879 17.3366 14.2679 17.2446 14.3178 17.136C14.3678 17.0273 14.3855 16.9066 14.3689 16.7882C14.3523 16.6699 14.3021 16.5587 14.2242 16.468L10.475 12.093ZM7.60859 16.25L10 13.4602L12.3914 16.25H7.60859ZM18.125 5V13.75C18.125 14.2473 17.9275 14.7242 17.5758 15.0758C17.2242 15.4275 16.7473 15.625 16.25 15.625H15C14.8342 15.625 14.6753 15.5592 14.5581 15.4419C14.4408 15.3247 14.375 15.1658 14.375 15C14.375 14.8342 14.4408 14.6753 14.5581 14.5581C14.6753 14.4408 14.8342 14.375 15 14.375H16.25C16.4158 14.375 16.5747 14.3092 16.6919 14.1919C16.8092 14.0747 16.875 13.9158 16.875 13.75V5C16.875 4.83424 16.8092 4.67527 16.6919 4.55806C16.5747 4.44085 16.4158 4.375 16.25 4.375H3.75C3.58424 4.375 3.42527 4.44085 3.30806 4.55806C3.19085 4.67527 3.125 4.83424 3.125 5V13.75C3.125 13.9158 3.19085 14.0747 3.30806 14.1919C3.42527 14.3092 3.58424 14.375 3.75 14.375H5C5.16576 14.375 5.32473 14.4408 5.44194 14.5581C5.55915 14.6753 5.625 14.8342 5.625 15C5.625 15.1658 5.55915 15.3247 5.44194 15.4419C5.32473 15.5592 5.16576 15.625 5 15.625H3.75C3.25272 15.625 2.77581 15.4275 2.42417 15.0758C2.07254 14.7242 1.875 14.2473 1.875 13.75V5C1.875 4.50272 2.07254 4.02581 2.42417 3.67417C2.77581 3.32254 3.25272 3.125 3.75 3.125H16.25C16.7473 3.125 17.2242 3.32254 17.5758 3.67417C17.9275 4.02581 18.125 4.50272 18.125 5Z" fill="#191F2E"/>
</svg>
