<svg width="20" height="20" viewBox="0 0 20 20" fill="none" xmlns="http://www.w3.org/2000/svg">
<path d="M18.5445 9.78672L12.8125 6.92031V3.75C12.8125 3.00408 12.5162 2.28871 11.9887 1.76126C11.4613 1.23382 10.7459 0.9375 10 0.9375C9.25408 0.9375 8.53871 1.23382 8.01126 1.76126C7.48382 2.28871 7.1875 3.00408 7.1875 3.75V6.92031L1.45547 9.78672C1.29983 9.8646 1.16895 9.98427 1.07746 10.1323C0.985984 10.2804 0.93752 10.451 0.9375 10.625V13.125C0.937473 13.2637 0.968221 13.4007 1.02753 13.5261C1.08683 13.6514 1.17322 13.7621 1.28046 13.85C1.3877 13.938 1.51312 14.0011 1.64768 14.0347C1.78224 14.0683 1.92258 14.0717 2.05859 14.0445L7.1875 13.0188V13.9844L6.21172 14.9617C6.12469 15.0488 6.05567 15.1523 6.00862 15.2661C5.96157 15.3799 5.9374 15.5018 5.9375 15.625V18.125C5.93751 18.2782 5.97507 18.4291 6.0469 18.5645C6.11873 18.6998 6.22264 18.8155 6.34954 18.9014C6.47643 18.9873 6.62245 19.0407 6.7748 19.0571C6.92715 19.0735 7.08119 19.0523 7.22344 18.9953L10 17.8844L12.7766 18.9953C12.8873 19.0399 13.0056 19.0627 13.125 19.0625C13.3736 19.0625 13.6121 18.9637 13.7879 18.7879C13.9637 18.6121 14.0625 18.3736 14.0625 18.125V15.625C14.0626 15.5018 14.0384 15.3799 13.9914 15.2661C13.9443 15.1523 13.8753 15.0488 13.7883 14.9617L12.8125 13.9844V13.0188L17.9414 14.0445C18.0774 14.0717 18.2178 14.0683 18.3523 14.0347C18.4869 14.0011 18.6123 13.938 18.7195 13.85C18.8268 13.7621 18.9132 13.6514 18.9725 13.5261C19.0318 13.4007 19.0625 13.2637 19.0625 13.125V10.625C19.0625 10.451 19.014 10.2804 18.9225 10.1323C18.8311 9.98427 18.7002 9.8646 18.5445 9.78672ZM17.1875 11.9812L12.0586 10.9555C11.9226 10.9283 11.7822 10.9317 11.6477 10.9653C11.5131 10.9989 11.3877 11.062 11.2805 11.15C11.1732 11.2379 11.0868 11.3486 11.0275 11.4739C10.9682 11.5993 10.9375 11.7363 10.9375 11.875V14.375C10.9374 14.4982 10.9616 14.6201 11.0086 14.7339C11.0557 14.8477 11.1247 14.9512 11.2117 15.0383L12.1875 16.0156V16.743L10.3484 16.007C10.1248 15.9175 9.87523 15.9175 9.65156 16.007L7.8125 16.7406V16.0156L8.78828 15.0406C8.87559 14.9532 8.94477 14.8494 8.99183 14.7352C9.03889 14.621 9.06291 14.4985 9.0625 14.375V11.875C9.06253 11.7363 9.03178 11.5993 8.97247 11.4739C8.91317 11.3486 8.82678 11.2379 8.71954 11.15C8.6123 11.062 8.48688 10.9989 8.35232 10.9653C8.21776 10.9317 8.07742 10.9283 7.94141 10.9555L2.8125 11.9812V11.2047L8.54453 8.33828C8.70017 8.2604 8.83105 8.14073 8.92253 7.99268C9.01402 7.84463 9.06248 7.67404 9.0625 7.5V3.75C9.0625 3.50136 9.16127 3.2629 9.33709 3.08709C9.5129 2.91127 9.75136 2.8125 10 2.8125C10.2486 2.8125 10.4871 2.91127 10.6629 3.08709C10.8387 3.2629 10.9375 3.50136 10.9375 3.75V7.5C10.9375 7.67404 10.986 7.84463 11.0775 7.99268C11.1689 8.14073 11.2998 8.2604 11.4555 8.33828L17.1875 11.2047V11.9812Z" fill="#191F2E"/>
</svg>
