<svg width="20" height="20" viewBox="0 0 20 20" fill="none" xmlns="http://www.w3.org/2000/svg">
<path d="M10.7117 11.8898C10.6237 11.7872 10.5145 11.7048 10.3917 11.6483C10.2688 11.5918 10.1352 11.5626 10 11.5626C9.86478 11.5626 9.73117 11.5918 9.60832 11.6483C9.48547 11.7048 9.37629 11.7872 9.28828 11.8898L5.53828 16.2648C5.42159 16.401 5.34638 16.5677 5.32157 16.7453C5.29676 16.9228 5.32339 17.1038 5.3983 17.2667C5.47321 17.4296 5.59326 17.5676 5.74422 17.6643C5.89517 17.7611 6.07071 17.8125 6.25 17.8125H13.75C13.9293 17.8125 14.1048 17.7611 14.2558 17.6643C14.4067 17.5676 14.5268 17.4296 14.6017 17.2667C14.6766 17.1038 14.7032 16.9228 14.6784 16.7453C14.6536 16.5677 14.5784 16.401 14.4617 16.2648L10.7117 11.8898ZM8.28984 15.9375L10 13.9406L11.7117 15.9375H8.28984ZM18.4375 5V13.75C18.4375 14.0373 18.3809 14.3217 18.271 14.5871C18.1611 14.8525 17.9999 15.0937 17.7968 15.2968C17.5937 15.4999 17.3525 15.6611 17.0871 15.771C16.8217 15.8809 16.5373 15.9375 16.25 15.9375C16.0014 15.9375 15.7629 15.8387 15.5871 15.6629C15.4113 15.4871 15.3125 15.2486 15.3125 15C15.3125 14.7514 15.4113 14.5129 15.5871 14.3371C15.7629 14.1613 16.0014 14.0625 16.25 14.0625C16.3329 14.0625 16.4124 14.0296 16.471 13.971C16.5296 13.9124 16.5625 13.8329 16.5625 13.75V5C16.5625 4.91712 16.5296 4.83763 16.471 4.77903C16.4124 4.72042 16.3329 4.6875 16.25 4.6875H3.75C3.66712 4.6875 3.58763 4.72042 3.52903 4.77903C3.47042 4.83763 3.4375 4.91712 3.4375 5V13.75C3.4375 13.8329 3.47042 13.9124 3.52903 13.971C3.58763 14.0296 3.66712 14.0625 3.75 14.0625C3.99864 14.0625 4.2371 14.1613 4.41291 14.3371C4.58873 14.5129 4.6875 14.7514 4.6875 15C4.6875 15.2486 4.58873 15.4871 4.41291 15.6629C4.2371 15.8387 3.99864 15.9375 3.75 15.9375C3.16984 15.9375 2.61344 15.707 2.2032 15.2968C1.79297 14.8866 1.5625 14.3302 1.5625 13.75V5C1.5625 4.41984 1.79297 3.86344 2.2032 3.4532C2.61344 3.04297 3.16984 2.8125 3.75 2.8125H16.25C16.5373 2.8125 16.8217 2.86908 17.0871 2.97901C17.3525 3.08895 17.5937 3.25008 17.7968 3.4532C17.9999 3.65633 18.1611 3.89748 18.271 4.16288C18.3809 4.42828 18.4375 4.71273 18.4375 5Z" fill="#191F2E"/>
</svg>
