<svg width="20" height="20" viewBox="0 0 20 20" fill="none" xmlns="http://www.w3.org/2000/svg">
<path d="M13.7501 16.8751C13.7501 17.0409 13.6842 17.1999 13.567 17.3171C13.4498 17.4343 13.2908 17.5001 13.1251 17.5001H1.87508C1.70932 17.5001 1.55035 17.4343 1.43314 17.3171C1.31593 17.1999 1.25008 17.0409 1.25008 16.8751C1.25008 16.7094 1.31593 16.5504 1.43314 16.4332C1.55035 16.316 1.70932 16.2501 1.87508 16.2501H13.1251C13.2908 16.2501 13.4498 16.316 13.567 16.4332C13.6842 16.5504 13.7501 16.7094 13.7501 16.8751ZM19.243 6.77827L17.7868 4.91187L17.7774 4.90015C17.3065 4.32009 16.6426 3.92889 15.9069 3.79807C15.1713 3.66724 14.4132 3.80553 13.7712 4.18765L9.74227 6.59234L5.52821 5.04234C5.38737 4.98982 5.23232 4.98982 5.09149 5.04234L4.53133 5.25562L4.50633 5.26577C4.3147 5.34803 4.14669 5.47693 4.01761 5.64073C3.88853 5.80452 3.80248 5.99801 3.7673 6.20357C3.73212 6.40912 3.74893 6.62021 3.8162 6.81761C3.88347 7.01501 3.99905 7.19244 4.15243 7.33374L5.85946 8.98921L4.28368 9.94234L2.07586 9.19702C1.91961 9.14438 1.74888 9.15561 1.60086 9.22827L1.36649 9.34312C1.17898 9.42691 1.015 9.55562 0.889057 9.71785C0.763116 9.88009 0.679091 10.0709 0.644413 10.2733C0.609734 10.4757 0.62547 10.6836 0.690229 10.8785C0.754989 11.0734 0.866776 11.2493 1.01571 11.3908L3.82821 14.1462L3.83758 14.1556C4.41369 14.7001 5.17611 15.0039 5.96883 15.0048C6.52533 15.0039 7.07159 14.8551 7.55164 14.5736L19.0681 7.69859C19.144 7.65317 19.2095 7.59213 19.2601 7.51951C19.3108 7.44689 19.3454 7.36434 19.3617 7.27733C19.378 7.19032 19.3757 7.10083 19.3548 7.0148C19.334 6.92876 19.2951 6.84814 19.2407 6.77827H19.243Z" fill="#191F2E"/>
</svg>
