<svg width="20" height="20" viewBox="0 0 20 20" fill="none" xmlns="http://www.w3.org/2000/svg">
<path d="M19.6875 16.875C19.6875 17.1236 19.5887 17.3621 19.4129 17.5379C19.2371 17.7137 18.9986 17.8125 18.75 17.8125H7.5C7.25136 17.8125 7.0129 17.7137 6.83709 17.5379C6.66127 17.3621 6.5625 17.1236 6.5625 16.875C6.5625 16.6263 6.66127 16.3879 6.83709 16.2121C7.0129 16.0363 7.25136 15.9375 7.5 15.9375H18.75C18.9986 15.9375 19.2371 16.0363 19.4129 16.2121C19.5887 16.3879 19.6875 16.6263 19.6875 16.875ZM17.2469 14.9648L3.44844 11.1008C2.72691 10.8971 2.09145 10.4637 1.63834 9.8664C1.18524 9.26908 0.9392 8.54034 0.937501 7.79061V3.74999C0.937194 3.50227 0.995787 3.25804 1.10845 3.03742C1.22111 2.81681 1.3846 2.62615 1.58545 2.48116C1.7863 2.33617 2.01874 2.24101 2.26361 2.20353C2.50847 2.16606 2.75873 2.18733 2.99375 2.26561L3.42188 2.40858C3.55613 2.45331 3.67852 2.52786 3.77986 2.62663C3.8812 2.7254 3.95886 2.84583 4.00703 2.97889L4.78125 5.1242L6.5625 5.63202V3.74999C6.56219 3.50227 6.62079 3.25804 6.73345 3.03742C6.84611 2.81681 7.0096 2.62615 7.21045 2.48116C7.4113 2.33617 7.64374 2.24101 7.88861 2.20353C8.13347 2.16606 8.38373 2.18733 8.61875 2.26561L9.04688 2.40858C9.1736 2.45082 9.28982 2.51965 9.38778 2.61047C9.48573 2.70128 9.56315 2.81198 9.61485 2.93514L11.3141 6.98592L15.9234 8.27421C16.6461 8.47736 17.2827 8.9109 17.7365 9.50893C18.1903 10.107 18.4364 10.8368 18.4375 11.5875V14.0625C18.4374 14.2072 18.4039 14.3499 18.3395 14.4795C18.2751 14.609 18.1816 14.7219 18.0663 14.8093C17.9509 14.8967 17.817 14.9562 17.6748 14.9832C17.5327 15.0102 17.3862 15.0039 17.2469 14.9648ZM16.5625 11.5875C16.5618 11.2461 16.4497 10.9143 16.2431 10.6425C16.0365 10.3708 15.7467 10.174 15.418 10.082L10.3727 8.67186C10.2365 8.63389 10.1106 8.5656 10.0046 8.47212C9.89848 8.37863 9.81493 8.26236 9.76016 8.13202L8.4375 4.97733V6.87499C8.43738 7.01998 8.40363 7.16297 8.3389 7.29271C8.27417 7.42246 8.18023 7.53542 8.06446 7.62272C7.94869 7.71002 7.81425 7.76928 7.67171 7.79583C7.52917 7.82239 7.38241 7.81552 7.24297 7.77577L3.80547 6.79686C3.66256 6.75619 3.53137 6.68214 3.4227 6.58081C3.31403 6.47948 3.23101 6.35377 3.18047 6.21405L2.8125 5.19374V7.79061C2.81306 8.13165 2.9248 8.46321 3.13077 8.73502C3.33675 9.00684 3.62573 9.20408 3.95391 9.29686L16.5625 12.8265V11.5875Z" fill="#191F2E"/>
</svg>
