<svg width="20" height="20" viewBox="0 0 20 20" fill="none" xmlns="http://www.w3.org/2000/svg">
<path d="M9.99997 2.18747C8.4548 2.18747 6.94433 2.64566 5.65957 3.50411C4.37481 4.36256 3.37347 5.5827 2.78216 7.01025C2.19085 8.4378 2.03613 10.0086 2.33758 11.5241C2.63903 13.0396 3.3831 14.4316 4.47569 15.5242C5.56829 16.6168 6.96035 17.3609 8.47582 17.6624C9.9913 17.9638 11.5621 17.8091 12.9897 17.2178C14.4172 16.6265 15.6374 15.6251 16.4958 14.3404C17.3543 13.0556 17.8125 11.5451 17.8125 9.99997C17.8102 7.92866 16.9864 5.94284 15.5217 4.47821C14.0571 3.01357 12.0713 2.18974 9.99997 2.18747ZM9.99997 15.9375C8.82564 15.9375 7.67768 15.5892 6.70127 14.9368C5.72485 14.2844 4.96383 13.3571 4.51443 12.2721C4.06504 11.1872 3.94745 9.99338 4.17655 8.84162C4.40565 7.68986 4.97115 6.63189 5.80152 5.80152C6.63189 4.97115 7.68986 4.40565 8.84162 4.17655C9.99338 3.94745 11.1872 4.06504 12.2721 4.51443C13.3571 4.96383 14.2844 5.72485 14.9368 6.70127C15.5892 7.67768 15.9375 8.82564 15.9375 9.99997C15.9358 11.5742 15.3097 13.0834 14.1966 14.1966C13.0834 15.3097 11.5742 15.9358 9.99997 15.9375ZM2.53825 5.03825C2.45104 5.12545 2.34751 5.19463 2.23357 5.24182C2.11963 5.28902 1.99751 5.31331 1.87418 5.31331C1.75086 5.31331 1.62874 5.28902 1.5148 5.24182C1.40086 5.19463 1.29733 5.12545 1.21012 5.03825C1.12292 4.95104 1.05374 4.84751 1.00655 4.73357C0.95935 4.61963 0.935059 4.49751 0.935059 4.37418C0.935059 4.25086 0.95935 4.12874 1.00655 4.0148C1.05374 3.90086 1.12292 3.79733 1.21012 3.71012L3.71012 1.21012C3.88624 1.034 4.12511 0.935059 4.37418 0.935059C4.62326 0.935059 4.86213 1.034 5.03825 1.21012C5.21437 1.38624 5.31331 1.62511 5.31331 1.87418C5.31331 2.12326 5.21437 2.36213 5.03825 2.53825L2.53825 5.03825ZM18.7882 5.03825C18.7012 5.12565 18.5977 5.19499 18.4837 5.24231C18.3697 5.28963 18.2476 5.31399 18.1242 5.31399C18.0008 5.31399 17.8786 5.28963 17.7647 5.24231C17.6507 5.19499 17.5472 5.12565 17.4601 5.03825L14.9601 2.53825C14.784 2.36213 14.6851 2.12326 14.6851 1.87418C14.6851 1.62511 14.784 1.38624 14.9601 1.21012C15.1362 1.034 15.3751 0.935059 15.6242 0.935059C15.8733 0.935059 16.1121 1.034 16.2882 1.21012L18.7882 3.71012C18.8756 3.79722 18.945 3.90071 18.9923 4.01467C19.0396 4.12862 19.064 4.2508 19.064 4.37418C19.064 4.49757 19.0396 4.61975 18.9923 4.7337C18.945 4.84766 18.8756 4.95115 18.7882 5.03825ZM13.75 9.06247C13.9986 9.06247 14.2371 9.16124 14.4129 9.33705C14.5887 9.51287 14.6875 9.75133 14.6875 9.99997C14.6875 10.2486 14.5887 10.4871 14.4129 10.6629C14.2371 10.8387 13.9986 10.9375 13.75 10.9375H9.99997C9.75133 10.9375 9.51287 10.8387 9.33705 10.6629C9.16124 10.4871 9.06247 10.2486 9.06247 9.99997V6.24997C9.06247 6.00133 9.16124 5.76287 9.33705 5.58705C9.51287 5.41124 9.75133 5.31247 9.99997 5.31247C10.2486 5.31247 10.4871 5.41124 10.6629 5.58705C10.8387 5.76287 10.9375 6.00133 10.9375 6.24997V9.06247H13.75Z" fill="#191F2E"/>
</svg>
