<svg width="20" height="20" viewBox="0 0 20 20" fill="none" xmlns="http://www.w3.org/2000/svg">
<path d="M10.0001 2.49986C8.51674 2.49986 7.0667 2.93973 5.83333 3.76384C4.59996 4.58795 3.63866 5.75929 3.07101 7.12973C2.50335 8.50018 2.35482 10.0082 2.64421 11.463C2.9336 12.9179 3.64791 14.2543 4.6968 15.3032C5.7457 16.3521 7.08207 17.0664 8.53693 17.3557C9.99178 17.6451 11.4998 17.4966 12.8702 16.929C14.2407 16.3613 15.412 15.4 16.2361 14.1666C17.0602 12.9333 17.5001 11.4832 17.5001 9.99986C17.4978 8.01143 16.7069 6.1051 15.3009 4.69907C13.8949 3.29304 11.9885 2.50213 10.0001 2.49986ZM10.0001 16.2499C8.76397 16.2499 7.5556 15.8833 6.52779 15.1965C5.49998 14.5098 4.6989 13.5337 4.22586 12.3916C3.75281 11.2496 3.62904 9.99293 3.8702 8.78054C4.11135 7.56816 4.70661 6.45452 5.58069 5.58044C6.45476 4.70636 7.56841 4.11111 8.78079 3.86995C9.99317 3.62879 11.2498 3.75256 12.3919 4.22561C13.5339 4.69866 14.51 5.49974 15.1968 6.52755C15.8835 7.55535 16.2501 8.76373 16.2501 9.99986C16.2482 11.6569 15.5892 13.2455 14.4175 14.4172C13.2458 15.5889 11.6571 16.248 10.0001 16.2499ZM4.81729 2.31705L2.31729 4.81705C2.25922 4.87512 2.19028 4.92118 2.11441 4.95261C2.03854 4.98403 1.95723 5.00021 1.8751 5.00021C1.79298 5.00021 1.71166 4.98403 1.63579 4.95261C1.55992 4.92118 1.49098 4.87512 1.43292 4.81705C1.31564 4.69977 1.24976 4.54071 1.24976 4.37486C1.24976 4.20901 1.31564 4.04995 1.43292 3.93267L3.93292 1.43267C3.99098 1.3746 4.05992 1.32854 4.13579 1.29711C4.21166 1.26569 4.29298 1.24951 4.3751 1.24951C4.45723 1.24951 4.53854 1.26569 4.61441 1.29711C4.69028 1.32854 4.75922 1.3746 4.81729 1.43267C4.87536 1.49074 4.92142 1.55968 4.95285 1.63555C4.98428 1.71142 5.00045 1.79274 5.00045 1.87486C5.00045 1.95698 4.98428 2.0383 4.95285 2.11417C4.92142 2.19004 4.87536 2.25898 4.81729 2.31705ZM18.5673 4.81705C18.5092 4.87516 18.4403 4.92126 18.3644 4.95271C18.2886 4.98416 18.2072 5.00035 18.1251 5.00035C18.043 5.00035 17.9616 4.98416 17.8858 4.95271C17.8099 4.92126 17.741 4.87516 17.6829 4.81705L15.1829 2.31705C15.0656 2.19977 14.9998 2.04071 14.9998 1.87486C14.9998 1.70901 15.0656 1.54995 15.1829 1.43267C15.3002 1.3154 15.4593 1.24951 15.6251 1.24951C15.791 1.24951 15.95 1.3154 16.0673 1.43267L18.5673 3.93267C18.6254 3.99072 18.6715 4.05965 18.703 4.13552C18.7344 4.2114 18.7506 4.29272 18.7506 4.37486C18.7506 4.45699 18.7344 4.53832 18.703 4.6142C18.6715 4.69007 18.6254 4.759 18.5673 4.81705ZM14.3751 9.37486C14.5409 9.37486 14.6998 9.44071 14.817 9.55792C14.9343 9.67513 15.0001 9.8341 15.0001 9.99986C15.0001 10.1656 14.9343 10.3246 14.817 10.4418C14.6998 10.559 14.5409 10.6249 14.3751 10.6249H10.0001C9.83434 10.6249 9.67537 10.559 9.55816 10.4418C9.44095 10.3246 9.3751 10.1656 9.3751 9.99986V5.62486C9.3751 5.4591 9.44095 5.30013 9.55816 5.18292C9.67537 5.06571 9.83434 4.99986 10.0001 4.99986C10.1659 4.99986 10.3248 5.06571 10.442 5.18292C10.5593 5.30013 10.6251 5.4591 10.6251 5.62486V9.37486H14.3751Z" fill="#191F2E"/>
</svg>
