<svg width="20" height="20" viewBox="0 0 20 20" fill="none" xmlns="http://www.w3.org/2000/svg">
<path d="M4.81729 2.31705L2.31729 4.81705C2.25922 4.87512 2.19028 4.92118 2.11441 4.95261C2.03854 4.98403 1.95723 5.00021 1.8751 5.00021C1.79298 5.00021 1.71166 4.98403 1.63579 4.95261C1.55992 4.92118 1.49098 4.87512 1.43292 4.81705C1.31564 4.69977 1.24976 4.54071 1.24976 4.37486C1.24976 4.20901 1.31564 4.04995 1.43292 3.93267L3.93292 1.43267C3.99098 1.3746 4.05992 1.32854 4.13579 1.29711C4.21166 1.26569 4.29298 1.24951 4.3751 1.24951C4.45723 1.24951 4.53854 1.26569 4.61441 1.29711C4.69028 1.32854 4.75922 1.3746 4.81729 1.43267C4.87536 1.49074 4.92142 1.55968 4.95285 1.63555C4.98428 1.71142 5.00045 1.79274 5.00045 1.87486C5.00045 1.95698 4.98428 2.0383 4.95285 2.11417C4.92142 2.19004 4.87536 2.25898 4.81729 2.31705ZM18.5673 3.93267L16.0673 1.43267C15.95 1.3154 15.791 1.24951 15.6251 1.24951C15.4593 1.24951 15.3002 1.3154 15.1829 1.43267C15.0656 1.54995 14.9998 1.70901 14.9998 1.87486C14.9998 2.04071 15.0656 2.19977 15.1829 2.31705L17.6829 4.81705C17.741 4.87512 17.8099 4.92118 17.8858 4.95261C17.9617 4.98403 18.043 5.00021 18.1251 5.00021C18.2072 5.00021 18.2885 4.98403 18.3644 4.95261C18.4403 4.92118 18.5092 4.87512 18.5673 4.81705C18.6254 4.75898 18.6714 4.69004 18.7029 4.61417C18.7343 4.5383 18.7505 4.45698 18.7505 4.37486C18.7505 4.29274 18.7343 4.21142 18.7029 4.13555C18.6714 4.05968 18.6254 3.99074 18.5673 3.93267ZM17.5001 9.99986C17.5001 11.4832 17.0602 12.9333 16.2361 14.1666C15.412 15.4 14.2407 16.3613 12.8702 16.929C11.4998 17.4966 9.99178 17.6451 8.53693 17.3557C7.08207 17.0664 5.7457 16.3521 4.6968 15.3032C3.64791 14.2543 2.9336 12.9179 2.64421 11.463C2.35482 10.0082 2.50335 8.50018 3.07101 7.12973C3.63866 5.75929 4.59996 4.58795 5.83333 3.76384C7.0667 2.93973 8.51674 2.49986 10.0001 2.49986C11.9885 2.50213 13.8949 3.29304 15.3009 4.69907C16.7069 6.1051 17.4978 8.01143 17.5001 9.99986ZM15.0001 9.99986C15.0001 9.8341 14.9343 9.67513 14.817 9.55792C14.6998 9.44071 14.5409 9.37486 14.3751 9.37486H10.6251V5.62486C10.6251 5.4591 10.5593 5.30013 10.442 5.18292C10.3248 5.06571 10.1659 4.99986 10.0001 4.99986C9.83434 4.99986 9.67537 5.06571 9.55816 5.18292C9.44095 5.30013 9.3751 5.4591 9.3751 5.62486V9.99986C9.3751 10.1656 9.44095 10.3246 9.55816 10.4418C9.67537 10.559 9.83434 10.6249 10.0001 10.6249H14.3751C14.5409 10.6249 14.6998 10.559 14.817 10.4418C14.9343 10.3246 15.0001 10.1656 15.0001 9.99986Z" fill="#191F2E"/>
</svg>
