<svg width="20" height="20" viewBox="0 0 20 20" fill="none" xmlns="http://www.w3.org/2000/svg">
<path d="M10 0.9375C7.92869 0.939775 5.94288 1.76361 4.47824 3.22824C3.01361 4.69288 2.18977 6.67869 2.1875 8.75C2.1875 10.6922 3.19219 13.1875 4.87578 15.425C5.51797 16.2781 7.78438 19.0625 10 19.0625C12.2156 19.0625 14.482 16.2781 15.1242 15.425C16.8078 13.1875 17.8125 10.6922 17.8125 8.75C17.8102 6.67869 16.9864 4.69288 15.5218 3.22824C14.0571 1.76361 12.0713 0.939775 10 0.9375ZM13.6258 14.2969C12.5453 15.7328 10.9531 17.1875 10 17.1875C9.04688 17.1875 7.45469 15.7336 6.37422 14.2969C4.94844 12.4023 4.0625 10.2766 4.0625 8.75C4.0625 7.17528 4.68806 5.66505 5.80155 4.55155C6.91505 3.43806 8.42528 2.8125 10 2.8125C11.5747 2.8125 13.0849 3.43806 14.1984 4.55155C15.3119 5.66505 15.9375 7.17528 15.9375 8.75C15.9375 10.2766 15.0516 12.4023 13.6258 14.2969ZM8.125 11.5625C7.37908 11.5625 6.66371 11.2662 6.13626 10.7387C5.60882 10.2113 5.3125 9.49592 5.3125 8.75C5.3125 8.50136 5.41127 8.2629 5.58709 8.08709C5.7629 7.91127 6.00136 7.8125 6.25 7.8125C6.99592 7.8125 7.71129 8.10882 8.23874 8.63626C8.76618 9.16371 9.0625 9.87908 9.0625 10.625C9.0625 10.8736 8.96373 11.1121 8.78791 11.2879C8.6121 11.4637 8.37364 11.5625 8.125 11.5625ZM14.6875 8.75C14.6875 9.49592 14.3912 10.2113 13.8637 10.7387C13.3363 11.2662 12.6209 11.5625 11.875 11.5625C11.6264 11.5625 11.3879 11.4637 11.2121 11.2879C11.0363 11.1121 10.9375 10.8736 10.9375 10.625C10.9375 9.87908 11.2338 9.16371 11.7613 8.63626C12.2887 8.10882 13.0041 7.8125 13.75 7.8125C13.9986 7.8125 14.2371 7.91127 14.4129 8.08709C14.5887 8.2629 14.6875 8.50136 14.6875 8.75ZM11.875 14.375C11.875 14.6236 11.7762 14.8621 11.6004 15.0379C11.4246 15.2137 11.1861 15.3125 10.9375 15.3125H9.0625C8.81386 15.3125 8.5754 15.2137 8.39959 15.0379C8.22377 14.8621 8.125 14.6236 8.125 14.375C8.125 14.1264 8.22377 13.8879 8.39959 13.7121C8.5754 13.5363 8.81386 13.4375 9.0625 13.4375H10.9375C11.1861 13.4375 11.4246 13.5363 11.6004 13.7121C11.7762 13.8879 11.875 14.1264 11.875 14.375Z" fill="#191F2E"/>
</svg>
