<svg width="20" height="20" viewBox="0 0 20 20" fill="none" xmlns="http://www.w3.org/2000/svg">
<path d="M10 1.25C8.01157 1.25227 6.10524 2.04318 4.69921 3.44921C3.29318 4.85524 2.50227 6.76157 2.5 8.75C2.5 10.625 3.48125 13.0516 5.12578 15.2344C6.78047 17.4336 8.60234 18.75 10 18.75C11.3977 18.75 13.2195 17.4367 14.8742 15.2344C16.5188 13.0469 17.5 10.625 17.5 8.75C17.4977 6.76157 16.7068 4.85524 15.3008 3.44921C13.8948 2.04318 11.9884 1.25227 10 1.25ZM5 9.0625C5 8.81386 5.09877 8.5754 5.27459 8.39959C5.4504 8.22377 5.68886 8.125 5.9375 8.125C6.68342 8.125 7.39879 8.42132 7.92624 8.94876C8.45368 9.47621 8.75 10.1916 8.75 10.9375C8.75 11.1861 8.65123 11.4246 8.47541 11.6004C8.2996 11.7762 8.06114 11.875 7.8125 11.875C7.06658 11.875 6.35121 11.5787 5.82376 11.0512C5.29632 10.5238 5 9.80842 5 9.0625ZM11.25 15.625H8.75C8.58424 15.625 8.42527 15.5592 8.30806 15.4419C8.19085 15.3247 8.125 15.1658 8.125 15C8.125 14.8342 8.19085 14.6753 8.30806 14.5581C8.42527 14.4408 8.58424 14.375 8.75 14.375H11.25C11.4158 14.375 11.5747 14.4408 11.6919 14.5581C11.8092 14.6753 11.875 14.8342 11.875 15C11.875 15.1658 11.8092 15.3247 11.6919 15.4419C11.5747 15.5592 11.4158 15.625 11.25 15.625ZM12.1875 11.875C11.9389 11.875 11.7004 11.7762 11.5246 11.6004C11.3488 11.4246 11.25 11.1861 11.25 10.9375C11.25 10.1916 11.5463 9.47621 12.0738 8.94876C12.6012 8.42132 13.3166 8.125 14.0625 8.125C14.3111 8.125 14.5496 8.22377 14.7254 8.39959C14.9012 8.5754 15 8.81386 15 9.0625C15 9.43184 14.9273 9.79757 14.7859 10.1388C14.6446 10.48 14.4374 10.7901 14.1762 11.0512C13.9151 11.3124 13.605 11.5196 13.2638 11.6609C12.9226 11.8023 12.5568 11.875 12.1875 11.875Z" fill="#191F2E"/>
</svg>
