<svg width="20" height="20" viewBox="0 0 20 20" fill="none" xmlns="http://www.w3.org/2000/svg">
<path d="M18.125 4.375V15.625C18.125 15.7908 18.0592 15.9497 17.9419 16.0669C17.8247 16.1842 17.6658 16.25 17.5 16.25C17.3342 16.25 17.1753 16.1842 17.0581 16.0669C16.9408 15.9497 16.875 15.7908 16.875 15.625V4.375C16.875 4.20924 16.9408 4.05027 17.0581 3.93306C17.1753 3.81585 17.3342 3.75 17.5 3.75C17.6658 3.75 17.8247 3.81585 17.9419 3.93306C18.0592 4.05027 18.125 4.20924 18.125 4.375ZM15.625 7.5V12.5C15.625 12.8315 15.4933 13.1495 15.2589 13.3839C15.0245 13.6183 14.7065 13.75 14.375 13.75H2.5C2.16848 13.75 1.85054 13.6183 1.61612 13.3839C1.3817 13.1495 1.25 12.8315 1.25 12.5V7.5C1.25 7.16848 1.3817 6.85054 1.61612 6.61612C1.85054 6.3817 2.16848 6.25 2.5 6.25H14.375C14.7065 6.25 15.0245 6.3817 15.2589 6.61612C15.4933 6.85054 15.625 7.16848 15.625 7.5ZM14.375 7.5H2.5V12.5H14.375V7.5Z" fill="#191F2E"/>
</svg>
