<svg width="20" height="20" viewBox="0 0 20 20" fill="none" xmlns="http://www.w3.org/2000/svg">
<path d="M16.25 5.9375H10.9375V3.75C10.9375 3.50136 10.8387 3.2629 10.6629 3.08709C10.4871 2.91127 10.2486 2.8125 10 2.8125C9.75136 2.8125 9.5129 2.91127 9.33709 3.08709C9.16127 3.2629 9.0625 3.50136 9.0625 3.75V5.9375H3.75C3.3356 5.9375 2.93817 6.10212 2.64515 6.39515C2.35212 6.68817 2.1875 7.0856 2.1875 7.5V12.5C2.1875 12.9144 2.35212 13.3118 2.64515 13.6049C2.93817 13.8979 3.3356 14.0625 3.75 14.0625H9.0625V16.25C9.0625 16.4986 9.16127 16.7371 9.33709 16.9129C9.5129 17.0887 9.75136 17.1875 10 17.1875C10.2486 17.1875 10.4871 17.0887 10.6629 16.9129C10.8387 16.7371 10.9375 16.4986 10.9375 16.25V14.0625H16.25C16.6644 14.0625 17.0618 13.8979 17.3549 13.6049C17.6479 13.3118 17.8125 12.9144 17.8125 12.5V7.5C17.8125 7.0856 17.6479 6.68817 17.3549 6.39515C17.0618 6.10212 16.6644 5.9375 16.25 5.9375ZM15.9375 12.1875H4.0625V7.8125H15.9375V12.1875Z" fill="#191F2E"/>
</svg>
