<svg width="20" height="20" viewBox="0 0 20 20" fill="none" xmlns="http://www.w3.org/2000/svg">
<path d="M16.25 18.125C16.25 18.2908 16.1842 18.4497 16.0669 18.5669C15.9497 18.6842 15.7908 18.75 15.625 18.75H4.375C4.20924 18.75 4.05027 18.6842 3.93306 18.5669C3.81585 18.4497 3.75 18.2908 3.75 18.125C3.75 17.9592 3.81585 17.8003 3.93306 17.6831C4.05027 17.5658 4.20924 17.5 4.375 17.5H15.625C15.7908 17.5 15.9497 17.5658 16.0669 17.6831C16.1842 17.8003 16.25 17.9592 16.25 18.125ZM6.25 15V3.125C6.25 2.79348 6.3817 2.47554 6.61612 2.24112C6.85054 2.0067 7.16848 1.875 7.5 1.875H12.5C12.8315 1.875 13.1495 2.0067 13.3839 2.24112C13.6183 2.47554 13.75 2.79348 13.75 3.125V15C13.75 15.3315 13.6183 15.6495 13.3839 15.8839C13.1495 16.1183 12.8315 16.25 12.5 16.25H7.5C7.16848 16.25 6.85054 16.1183 6.61612 15.8839C6.3817 15.6495 6.25 15.3315 6.25 15ZM7.5 15H12.5V3.125H7.5V15Z" fill="#191F2E"/>
</svg>
