<svg width="20" height="20" viewBox="0 0 20 20" fill="none" xmlns="http://www.w3.org/2000/svg">
<path d="M4.0625 3.125V16.875C4.0625 17.1236 3.96373 17.3621 3.78791 17.5379C3.6121 17.7137 3.37364 17.8125 3.125 17.8125C2.87636 17.8125 2.6379 17.7137 2.46209 17.5379C2.28627 17.3621 2.1875 17.1236 2.1875 16.875V3.125C2.1875 2.87636 2.28627 2.6379 2.46209 2.46209C2.6379 2.28627 2.87636 2.1875 3.125 2.1875C3.37364 2.1875 3.6121 2.28627 3.78791 2.46209C3.96373 2.6379 4.0625 2.87636 4.0625 3.125ZM5.3125 7.8125V5C5.3125 4.5856 5.47712 4.18817 5.77015 3.89515C6.06317 3.60212 6.4606 3.4375 6.875 3.4375H13.75C14.1644 3.4375 14.5618 3.60212 14.8549 3.89515C15.1479 4.18817 15.3125 4.5856 15.3125 5V7.8125C15.3125 8.2269 15.1479 8.62433 14.8549 8.91735C14.5618 9.21038 14.1644 9.375 13.75 9.375H6.875C6.4606 9.375 6.06317 9.21038 5.77015 8.91735C5.47712 8.62433 5.3125 8.2269 5.3125 7.8125ZM7.1875 7.5H13.4375V5.3125H7.1875V7.5ZM18.4375 12.1875V15C18.4375 15.4144 18.2729 15.8118 17.9799 16.1049C17.6868 16.3979 17.2894 16.5625 16.875 16.5625H6.875C6.4606 16.5625 6.06317 16.3979 5.77015 16.1049C5.47712 15.8118 5.3125 15.4144 5.3125 15V12.1875C5.3125 11.7731 5.47712 11.3757 5.77015 11.0826C6.06317 10.7896 6.4606 10.625 6.875 10.625H16.875C17.2894 10.625 17.6868 10.7896 17.9799 11.0826C18.2729 11.3757 18.4375 11.7731 18.4375 12.1875ZM16.5625 12.5H7.1875V14.6875H16.5625V12.5Z" fill="#191F2E"/>
</svg>
