<svg width="20" height="20" viewBox="0 0 20 20" fill="none" xmlns="http://www.w3.org/2000/svg">
<path d="M16.25 10.625H10.9375V9.375H14.375C14.7894 9.375 15.1868 9.21038 15.4799 8.91735C15.7729 8.62433 15.9375 8.2269 15.9375 7.8125V4.6875C15.9375 4.2731 15.7729 3.87567 15.4799 3.58265C15.1868 3.28962 14.7894 3.125 14.375 3.125H10.9375V2.5C10.9375 2.25136 10.8387 2.0129 10.6629 1.83709C10.4871 1.66127 10.2486 1.5625 10 1.5625C9.75136 1.5625 9.5129 1.66127 9.33709 1.83709C9.16127 2.0129 9.0625 2.25136 9.0625 2.5V3.125H5.625C5.2106 3.125 4.81317 3.28962 4.52015 3.58265C4.22712 3.87567 4.0625 4.2731 4.0625 4.6875V7.8125C4.0625 8.2269 4.22712 8.62433 4.52015 8.91735C4.81317 9.21038 5.2106 9.375 5.625 9.375H9.0625V10.625H3.75C3.3356 10.625 2.93817 10.7896 2.64515 11.0826C2.35212 11.3757 2.1875 11.7731 2.1875 12.1875V15.3125C2.1875 15.7269 2.35212 16.1243 2.64515 16.4174C2.93817 16.7104 3.3356 16.875 3.75 16.875H9.0625V17.5C9.0625 17.7486 9.16127 17.9871 9.33709 18.1629C9.5129 18.3387 9.75136 18.4375 10 18.4375C10.2486 18.4375 10.4871 18.3387 10.6629 18.1629C10.8387 17.9871 10.9375 17.7486 10.9375 17.5V16.875H16.25C16.6644 16.875 17.0618 16.7104 17.3549 16.4174C17.6479 16.1243 17.8125 15.7269 17.8125 15.3125V12.1875C17.8125 11.7731 17.6479 11.3757 17.3549 11.0826C17.0618 10.7896 16.6644 10.625 16.25 10.625ZM5.9375 5H14.0625V7.5H5.9375V5ZM15.9375 15H4.0625V12.5H15.9375V15Z" fill="#191F2E"/>
</svg>
