<svg width="20" height="20" viewBox="0 0 20 20" fill="none" xmlns="http://www.w3.org/2000/svg">
<path d="M3.125 4.375V15.625C3.125 15.7908 3.05915 15.9497 2.94194 16.0669C2.82473 16.1842 2.66576 16.25 2.5 16.25C2.33424 16.25 2.17527 16.1842 2.05806 16.0669C1.94085 15.9497 1.875 15.7908 1.875 15.625V4.375C1.875 4.20924 1.94085 4.05027 2.05806 3.93306C2.17527 3.81585 2.33424 3.75 2.5 3.75C2.66576 3.75 2.82473 3.81585 2.94194 3.93306C3.05915 4.05027 3.125 4.20924 3.125 4.375ZM17.5 6.25H5.625C5.29348 6.25 4.97554 6.3817 4.74112 6.61612C4.5067 6.85054 4.375 7.16848 4.375 7.5V12.5C4.375 12.8315 4.5067 13.1495 4.74112 13.3839C4.97554 13.6183 5.29348 13.75 5.625 13.75H17.5C17.8315 13.75 18.1495 13.6183 18.3839 13.3839C18.6183 13.1495 18.75 12.8315 18.75 12.5V7.5C18.75 7.16848 18.6183 6.85054 18.3839 6.61612C18.1495 6.3817 17.8315 6.25 17.5 6.25Z" fill="#191F2E"/>
</svg>
