<svg width="20" height="20" viewBox="0 0 20 20" fill="none" xmlns="http://www.w3.org/2000/svg">
<path d="M17.5 3.125C17.5 3.29076 17.4342 3.44973 17.3169 3.56694C17.1997 3.68415 17.0408 3.75 16.875 3.75H3.125C2.95924 3.75 2.80027 3.68415 2.68306 3.56694C2.56585 3.44973 2.5 3.29076 2.5 3.125C2.5 2.95924 2.56585 2.80027 2.68306 2.68306C2.80027 2.56585 2.95924 2.5 3.125 2.5H16.875C17.0408 2.5 17.1997 2.56585 17.3169 2.68306C17.4342 2.80027 17.5 2.95924 17.5 3.125ZM15 5H11.875C11.5435 5 11.2255 5.1317 10.9911 5.36612C10.7567 5.60054 10.625 5.91848 10.625 6.25V13.75C10.625 14.0815 10.7567 14.3995 10.9911 14.6339C11.2255 14.8683 11.5435 15 11.875 15H15C15.3315 15 15.6495 14.8683 15.8839 14.6339C16.1183 14.3995 16.25 14.0815 16.25 13.75V6.25C16.25 5.91848 16.1183 5.60054 15.8839 5.36612C15.6495 5.1317 15.3315 5 15 5ZM8.125 5H5C4.66848 5 4.35054 5.1317 4.11612 5.36612C3.8817 5.60054 3.75 5.91848 3.75 6.25V16.875C3.75 17.2065 3.8817 17.5245 4.11612 17.7589C4.35054 17.9933 4.66848 18.125 5 18.125H8.125C8.45652 18.125 8.77446 17.9933 9.00888 17.7589C9.2433 17.5245 9.375 17.2065 9.375 16.875V6.25C9.375 5.91848 9.2433 5.60054 9.00888 5.36612C8.77446 5.1317 8.45652 5 8.125 5Z" fill="#191F2E"/>
</svg>
