<svg width="20" height="20" viewBox="0 0 20 20" fill="none" xmlns="http://www.w3.org/2000/svg">
<path d="M18.4375 4.375V15.625C18.4375 15.8736 18.3387 16.1121 18.1629 16.2879C17.9871 16.4637 17.7486 16.5625 17.5 16.5625C17.2514 16.5625 17.0129 16.4637 16.8371 16.2879C16.6613 16.1121 16.5625 15.8736 16.5625 15.625V4.375C16.5625 4.12636 16.6613 3.8879 16.8371 3.71209C17.0129 3.53627 17.2514 3.4375 17.5 3.4375C17.7486 3.4375 17.9871 3.53627 18.1629 3.71209C18.3387 3.8879 18.4375 4.12636 18.4375 4.375ZM15.3125 7.5V12.5C15.3125 12.9144 15.1479 13.3118 14.8549 13.6049C14.5618 13.8979 14.1644 14.0625 13.75 14.0625H2.5C2.0856 14.0625 1.68817 13.8979 1.39515 13.6049C1.10212 13.3118 0.9375 12.9144 0.9375 12.5V7.5C0.9375 7.0856 1.10212 6.68817 1.39515 6.39515C1.68817 6.10212 2.0856 5.9375 2.5 5.9375H13.75C14.1644 5.9375 14.5618 6.10212 14.8549 6.39515C15.1479 6.68817 15.3125 7.0856 15.3125 7.5ZM13.4375 7.8125H2.8125V12.1875H13.4375V7.8125Z" fill="#191F2E"/>
</svg>
