<svg width="20" height="20" viewBox="0 0 20 20" fill="none" xmlns="http://www.w3.org/2000/svg">
<path d="M17.5 16.875C17.5 17.0408 17.4342 17.1997 17.3169 17.3169C17.1997 17.4342 17.0408 17.5 16.875 17.5H3.125C2.95924 17.5 2.80027 17.4342 2.68306 17.3169C2.56585 17.1997 2.5 17.0408 2.5 16.875C2.5 16.7092 2.56585 16.5503 2.68306 16.4331C2.80027 16.3158 2.95924 16.25 3.125 16.25H16.875C17.0408 16.25 17.1997 16.3158 17.3169 16.4331C17.4342 16.5503 17.5 16.7092 17.5 16.875ZM10.625 13.75V6.25C10.625 5.91848 10.7567 5.60054 10.9911 5.36612C11.2255 5.1317 11.5435 5 11.875 5H15C15.3315 5 15.6495 5.1317 15.8839 5.36612C16.1183 5.60054 16.25 5.91848 16.25 6.25V13.75C16.25 14.0815 16.1183 14.3995 15.8839 14.6339C15.6495 14.8683 15.3315 15 15 15H11.875C11.5435 15 11.2255 14.8683 10.9911 14.6339C10.7567 14.3995 10.625 14.0815 10.625 13.75ZM11.875 13.75H15V6.25H11.875V13.75ZM3.75 13.75V3.125C3.75 2.79348 3.8817 2.47554 4.11612 2.24112C4.35054 2.0067 4.66848 1.875 5 1.875H8.125C8.45652 1.875 8.77446 2.0067 9.00888 2.24112C9.2433 2.47554 9.375 2.79348 9.375 3.125V13.75C9.375 14.0815 9.2433 14.3995 9.00888 14.6339C8.77446 14.8683 8.45652 15 8.125 15H5C4.66848 15 4.35054 14.8683 4.11612 14.6339C3.8817 14.3995 3.75 14.0815 3.75 13.75ZM5 13.75H8.125V3.125H5V13.75Z" fill="#191F2E"/>
</svg>
