<svg width="20" height="20" viewBox="0 0 20 20" fill="none" xmlns="http://www.w3.org/2000/svg">
<path d="M16.25 6.25H10.625V3.75C10.625 3.58424 10.5592 3.42527 10.4419 3.30806C10.3247 3.19085 10.1658 3.125 10 3.125C9.83424 3.125 9.67527 3.19085 9.55806 3.30806C9.44085 3.42527 9.375 3.58424 9.375 3.75V6.25H3.75C3.41848 6.25 3.10054 6.3817 2.86612 6.61612C2.6317 6.85054 2.5 7.16848 2.5 7.5V12.5C2.5 12.8315 2.6317 13.1495 2.86612 13.3839C3.10054 13.6183 3.41848 13.75 3.75 13.75H9.375V16.25C9.375 16.4158 9.44085 16.5747 9.55806 16.6919C9.67527 16.8092 9.83424 16.875 10 16.875C10.1658 16.875 10.3247 16.8092 10.4419 16.6919C10.5592 16.5747 10.625 16.4158 10.625 16.25V13.75H16.25C16.5815 13.75 16.8995 13.6183 17.1339 13.3839C17.3683 13.1495 17.5 12.8315 17.5 12.5V7.5C17.5 7.16848 17.3683 6.85054 17.1339 6.61612C16.8995 6.3817 16.5815 6.25 16.25 6.25ZM16.25 12.5H3.75V7.5H16.25V12.5Z" fill="#191F2E"/>
</svg>
