<svg width="20" height="20" viewBox="0 0 20 20" fill="none" xmlns="http://www.w3.org/2000/svg">
<path d="M18.125 4.375V15.625C18.125 15.7908 18.0592 15.9497 17.9419 16.0669C17.8247 16.1842 17.6658 16.25 17.5 16.25C17.3342 16.25 17.1753 16.1842 17.0581 16.0669C16.9408 15.9497 16.875 15.7908 16.875 15.625V4.375C16.875 4.20924 16.9408 4.05027 17.0581 3.93306C17.1753 3.81585 17.3342 3.75 17.5 3.75C17.6658 3.75 17.8247 3.81585 17.9419 3.93306C18.0592 4.05027 18.125 4.20924 18.125 4.375ZM14.375 6.25H2.5C2.16848 6.25 1.85054 6.3817 1.61612 6.61612C1.3817 6.85054 1.25 7.16848 1.25 7.5V12.5C1.25 12.8315 1.3817 13.1495 1.61612 13.3839C1.85054 13.6183 2.16848 13.75 2.5 13.75H14.375C14.7065 13.75 15.0245 13.6183 15.2589 13.3839C15.4933 13.1495 15.625 12.8315 15.625 12.5V7.5C15.625 7.16848 15.4933 6.85054 15.2589 6.61612C15.0245 6.3817 14.7065 6.25 14.375 6.25Z" fill="#191F2E"/>
</svg>
