<svg width="20" height="20" viewBox="0 0 20 20" fill="none" xmlns="http://www.w3.org/2000/svg">
<path d="M17.8125 3.125V16.875C17.8125 17.1236 17.7137 17.3621 17.5379 17.5379C17.3621 17.7137 17.1236 17.8125 16.875 17.8125C16.6264 17.8125 16.3879 17.7137 16.2121 17.5379C16.0363 17.3621 15.9375 17.1236 15.9375 16.875V3.125C15.9375 2.87636 16.0363 2.6379 16.2121 2.46209C16.3879 2.28627 16.6264 2.1875 16.875 2.1875C17.1236 2.1875 17.3621 2.28627 17.5379 2.46209C17.7137 2.6379 17.8125 2.87636 17.8125 3.125ZM14.6875 5V7.8125C14.6875 8.2269 14.5229 8.62433 14.2299 8.91735C13.9368 9.21038 13.5394 9.375 13.125 9.375H6.25C5.8356 9.375 5.43817 9.21038 5.14515 8.91735C4.85212 8.62433 4.6875 8.2269 4.6875 7.8125V5C4.6875 4.5856 4.85212 4.18817 5.14515 3.89515C5.43817 3.60212 5.8356 3.4375 6.25 3.4375H13.125C13.5394 3.4375 13.9368 3.60212 14.2299 3.89515C14.5229 4.18817 14.6875 4.5856 14.6875 5ZM12.8125 5.3125H6.5625V7.5H12.8125V5.3125ZM14.6875 12.1875V15C14.6875 15.4144 14.5229 15.8118 14.2299 16.1049C13.9368 16.3979 13.5394 16.5625 13.125 16.5625H3.125C2.7106 16.5625 2.31317 16.3979 2.02015 16.1049C1.72712 15.8118 1.5625 15.4144 1.5625 15V12.1875C1.5625 11.7731 1.72712 11.3757 2.02015 11.0826C2.31317 10.7896 2.7106 10.625 3.125 10.625H13.125C13.5394 10.625 13.9368 10.7896 14.2299 11.0826C14.5229 11.3757 14.6875 11.7731 14.6875 12.1875ZM12.8125 12.5H3.4375V14.6875H12.8125V12.5Z" fill="#191F2E"/>
</svg>
