<svg width="20" height="20" viewBox="0 0 20 20" fill="none" xmlns="http://www.w3.org/2000/svg">
<path d="M16.5625 18.125C16.5625 18.3736 16.4637 18.6121 16.2879 18.7879C16.1121 18.9637 15.8736 19.0625 15.625 19.0625H4.375C4.12636 19.0625 3.8879 18.9637 3.71209 18.7879C3.53627 18.6121 3.4375 18.3736 3.4375 18.125C3.4375 17.8764 3.53627 17.6379 3.71209 17.4621C3.8879 17.2863 4.12636 17.1875 4.375 17.1875H15.625C15.8736 17.1875 16.1121 17.2863 16.2879 17.4621C16.4637 17.6379 16.5625 17.8764 16.5625 18.125ZM5.9375 14.375V3.125C5.9375 2.7106 6.10212 2.31317 6.39515 2.02015C6.68817 1.72712 7.0856 1.5625 7.5 1.5625H12.5C12.9144 1.5625 13.3118 1.72712 13.6049 2.02015C13.8979 2.31317 14.0625 2.7106 14.0625 3.125V14.375C14.0625 14.7894 13.8979 15.1868 13.6049 15.4799C13.3118 15.7729 12.9144 15.9375 12.5 15.9375H7.5C7.0856 15.9375 6.68817 15.7729 6.39515 15.4799C6.10212 15.1868 5.9375 14.7894 5.9375 14.375ZM7.8125 14.0625H12.1875V3.4375H7.8125V14.0625Z" fill="#191F2E"/>
</svg>
