<svg width="20" height="20" viewBox="0 0 20 20" fill="none" xmlns="http://www.w3.org/2000/svg">
<path d="M16.25 9.0625H14.0625V3.75C14.0625 3.3356 13.8979 2.93817 13.6049 2.64515C13.3118 2.35212 12.9144 2.1875 12.5 2.1875H7.5C7.0856 2.1875 6.68817 2.35212 6.39515 2.64515C6.10212 2.93817 5.9375 3.3356 5.9375 3.75V9.0625H3.75C3.50136 9.0625 3.2629 9.16127 3.08709 9.33709C2.91127 9.5129 2.8125 9.75136 2.8125 10C2.8125 10.2486 2.91127 10.4871 3.08709 10.6629C3.2629 10.8387 3.50136 10.9375 3.75 10.9375H5.9375V16.25C5.9375 16.6644 6.10212 17.0618 6.39515 17.3549C6.68817 17.6479 7.0856 17.8125 7.5 17.8125H12.5C12.9144 17.8125 13.3118 17.6479 13.6049 17.3549C13.8979 17.0618 14.0625 16.6644 14.0625 16.25V10.9375H16.25C16.4986 10.9375 16.7371 10.8387 16.9129 10.6629C17.0887 10.4871 17.1875 10.2486 17.1875 10C17.1875 9.75136 17.0887 9.5129 16.9129 9.33709C16.7371 9.16127 16.4986 9.0625 16.25 9.0625ZM12.1875 15.9375H7.8125V4.0625H12.1875V15.9375Z" fill="#191F2E"/>
</svg>
