<svg width="20" height="20" viewBox="0 0 20 20" fill="none" xmlns="http://www.w3.org/2000/svg">
<path d="M3.75 3.125V16.875C3.75 17.0408 3.68415 17.1997 3.56694 17.3169C3.44973 17.4342 3.29076 17.5 3.125 17.5C2.95924 17.5 2.80027 17.4342 2.68306 17.3169C2.56585 17.1997 2.5 17.0408 2.5 16.875V3.125C2.5 2.95924 2.56585 2.80027 2.68306 2.68306C2.80027 2.56585 2.95924 2.5 3.125 2.5C3.29076 2.5 3.44973 2.56585 3.56694 2.68306C3.68415 2.80027 3.75 2.95924 3.75 3.125ZM5 8.125V5C5 4.66848 5.1317 4.35054 5.36612 4.11612C5.60054 3.8817 5.91848 3.75 6.25 3.75H13.75C14.0815 3.75 14.3995 3.8817 14.6339 4.11612C14.8683 4.35054 15 4.66848 15 5V8.125C15 8.45652 14.8683 8.77446 14.6339 9.00888C14.3995 9.2433 14.0815 9.375 13.75 9.375H6.25C5.91848 9.375 5.60054 9.2433 5.36612 9.00888C5.1317 8.77446 5 8.45652 5 8.125ZM6.25 8.125H13.75V5H6.25V8.125ZM18.125 11.875V15C18.125 15.3315 17.9933 15.6495 17.7589 15.8839C17.5245 16.1183 17.2065 16.25 16.875 16.25H6.25C5.91848 16.25 5.60054 16.1183 5.36612 15.8839C5.1317 15.6495 5 15.3315 5 15V11.875C5 11.5435 5.1317 11.2255 5.36612 10.9911C5.60054 10.7567 5.91848 10.625 6.25 10.625H16.875C17.2065 10.625 17.5245 10.7567 17.7589 10.9911C17.9933 11.2255 18.125 11.5435 18.125 11.875ZM16.875 15V11.875H6.25V15H16.875Z" fill="#191F2E"/>
</svg>
