<svg width="20" height="20" viewBox="0 0 20 20" fill="none" xmlns="http://www.w3.org/2000/svg">
<path d="M17.5 3.125V16.875C17.5 17.0408 17.4342 17.1997 17.3169 17.3169C17.1997 17.4342 17.0408 17.5 16.875 17.5C16.7092 17.5 16.5503 17.4342 16.4331 17.3169C16.3158 17.1997 16.25 17.0408 16.25 16.875V3.125C16.25 2.95924 16.3158 2.80027 16.4331 2.68306C16.5503 2.56585 16.7092 2.5 16.875 2.5C17.0408 2.5 17.1997 2.56585 17.3169 2.68306C17.4342 2.80027 17.5 2.95924 17.5 3.125ZM13.75 3.75H6.25C5.91848 3.75 5.60054 3.8817 5.36612 4.11612C5.1317 4.35054 5 4.66848 5 5V8.125C5 8.45652 5.1317 8.77446 5.36612 9.00888C5.60054 9.2433 5.91848 9.375 6.25 9.375H13.75C14.0815 9.375 14.3995 9.2433 14.6339 9.00888C14.8683 8.77446 15 8.45652 15 8.125V5C15 4.66848 14.8683 4.35054 14.6339 4.11612C14.3995 3.8817 14.0815 3.75 13.75 3.75ZM13.75 10.625H3.125C2.79348 10.625 2.47554 10.7567 2.24112 10.9911C2.0067 11.2255 1.875 11.5435 1.875 11.875V15C1.875 15.3315 2.0067 15.6495 2.24112 15.8839C2.47554 16.1183 2.79348 16.25 3.125 16.25H13.75C14.0815 16.25 14.3995 16.1183 14.6339 15.8839C14.8683 15.6495 15 15.3315 15 15V11.875C15 11.5435 14.8683 11.2255 14.6339 10.9911C14.3995 10.7567 14.0815 10.625 13.75 10.625Z" fill="#191F2E"/>
</svg>
