<svg width="20" height="20" viewBox="0 0 20 20" fill="none" xmlns="http://www.w3.org/2000/svg">
<path d="M16.25 10.625H10.625V9.375H14.375C14.7065 9.375 15.0245 9.2433 15.2589 9.00888C15.4933 8.77446 15.625 8.45652 15.625 8.125V5C15.625 4.66848 15.4933 4.35054 15.2589 4.11612C15.0245 3.8817 14.7065 3.75 14.375 3.75H10.625V2.5C10.625 2.33424 10.5592 2.17527 10.4419 2.05806C10.3247 1.94085 10.1658 1.875 10 1.875C9.83424 1.875 9.67527 1.94085 9.55806 2.05806C9.44085 2.17527 9.375 2.33424 9.375 2.5V3.75H5.625C5.29348 3.75 4.97554 3.8817 4.74112 4.11612C4.5067 4.35054 4.375 4.66848 4.375 5V8.125C4.375 8.45652 4.5067 8.77446 4.74112 9.00888C4.97554 9.2433 5.29348 9.375 5.625 9.375H9.375V10.625H3.75C3.41848 10.625 3.10054 10.7567 2.86612 10.9911C2.6317 11.2255 2.5 11.5435 2.5 11.875V15C2.5 15.3315 2.6317 15.6495 2.86612 15.8839C3.10054 16.1183 3.41848 16.25 3.75 16.25H9.375V17.5C9.375 17.6658 9.44085 17.8247 9.55806 17.9419C9.67527 18.0592 9.83424 18.125 10 18.125C10.1658 18.125 10.3247 18.0592 10.4419 17.9419C10.5592 17.8247 10.625 17.6658 10.625 17.5V16.25H16.25C16.5815 16.25 16.8995 16.1183 17.1339 15.8839C17.3683 15.6495 17.5 15.3315 17.5 15V11.875C17.5 11.5435 17.3683 11.2255 17.1339 10.9911C16.8995 10.7567 16.5815 10.625 16.25 10.625ZM5.625 5H14.375V8.125H5.625V5ZM16.25 15H3.75V11.875H16.25V15Z" fill="#191F2E"/>
</svg>
