<svg width="20" height="20" viewBox="0 0 20 20" fill="none" xmlns="http://www.w3.org/2000/svg">
<path d="M11.875 10.625C11.875 10.9958 11.765 11.3584 11.559 11.6667C11.353 11.975 11.0601 12.2154 10.7175 12.3573C10.3749 12.4992 9.99792 12.5363 9.63421 12.464C9.27049 12.3916 8.9364 12.213 8.67418 11.9508C8.41195 11.6886 8.23338 11.3545 8.16103 10.9908C8.08868 10.6271 8.12581 10.2501 8.26773 9.90747C8.40964 9.56486 8.64997 9.27202 8.95831 9.06599C9.26665 8.85997 9.62916 8.75 10 8.75C10.4973 8.75 10.9742 8.94754 11.3258 9.29917C11.6775 9.65081 11.875 10.1277 11.875 10.625ZM18.125 10C18.125 11.607 17.6485 13.1779 16.7557 14.514C15.8629 15.8502 14.594 16.8916 13.1093 17.5065C11.6247 18.1215 9.99099 18.2824 8.4149 17.9689C6.8388 17.6554 5.39106 16.8815 4.25476 15.7452C3.11846 14.6089 2.34463 13.1612 2.03112 11.5851C1.71762 10.009 1.87852 8.37535 2.49348 6.8907C3.10844 5.40605 4.14985 4.1371 5.486 3.24431C6.82214 2.35152 8.39303 1.875 10 1.875C12.1542 1.87727 14.2195 2.73403 15.7427 4.25727C17.266 5.78051 18.1227 7.84581 18.125 10ZM11.875 8.125C11.4107 7.77679 10.8587 7.56475 10.2806 7.51263C9.70264 7.46051 9.12154 7.57037 8.60246 7.82992C8.08338 8.08946 7.64683 8.48842 7.34172 8.98209C7.03661 9.47577 6.875 10.0447 6.875 10.625C6.875 11.2053 7.03661 11.7742 7.34172 12.2679C7.64683 12.7616 8.08338 13.1605 8.60246 13.4201C9.12154 13.6796 9.70264 13.7895 10.2806 13.7374C10.8587 13.6853 11.4107 13.4732 11.875 13.125C11.875 13.2908 11.9409 13.4497 12.0581 13.5669C12.1753 13.6842 12.3342 13.75 12.5 13.75C12.6658 13.75 12.8247 13.6842 12.9419 13.5669C13.0592 13.4497 13.125 13.2908 13.125 13.125V8.125C13.1252 7.447 12.9048 6.78733 12.4973 6.24553C12.0897 5.70373 11.5169 5.30918 10.8654 5.12141C10.2139 4.93365 9.51907 4.96286 8.88564 5.20463C8.25222 5.4464 7.7146 5.88762 7.35391 6.46172C7.26907 6.60192 7.24269 6.76983 7.28044 6.92929C7.31819 7.08875 7.41707 7.22701 7.55576 7.31428C7.69446 7.40156 7.86189 7.43087 8.02198 7.3959C8.18208 7.36094 8.32204 7.2645 8.41172 7.12734C8.628 6.78262 8.95057 6.51761 9.33072 6.37235C9.71087 6.22708 10.128 6.20945 10.519 6.3221C10.9101 6.43475 11.2539 6.67157 11.4985 6.99681C11.7431 7.32205 11.8753 7.71804 11.875 8.125ZM15.3758 13.2508C15.2434 13.1512 15.0768 13.1082 14.9127 13.1313C14.7486 13.1545 14.6005 13.2419 14.5008 13.3742C13.9769 14.0731 13.2974 14.6404 12.5162 15.0311C11.7349 15.4218 10.8735 15.6253 10 15.6253C9.12653 15.6253 8.26506 15.4218 7.48384 15.0311C6.70263 14.6404 6.02314 14.0731 5.49922 13.3742C5.45065 13.3066 5.38906 13.2494 5.31807 13.2059C5.24708 13.1624 5.16812 13.1336 5.08582 13.121C5.00353 13.1085 4.91955 13.1125 4.83883 13.1328C4.75811 13.1532 4.68226 13.1895 4.61575 13.2395C4.54924 13.2896 4.4934 13.3524 4.45151 13.4244C4.40962 13.4963 4.38253 13.5759 4.37182 13.6585C4.36111 13.741 4.367 13.8249 4.38915 13.9051C4.41129 13.9854 4.44925 14.0604 4.50078 14.1258C5.1412 14.9793 5.97151 15.6721 6.92599 16.1492C7.88047 16.6263 8.93291 16.8747 10 16.8747C11.0671 16.8747 12.1195 16.6263 13.074 16.1492C14.0285 15.6721 14.8588 14.9793 15.4992 14.1258C15.5988 13.9934 15.6418 13.8268 15.6187 13.6627C15.5955 13.4986 15.5082 13.3505 15.3758 13.2508Z" fill="#191F2E"/>
</svg>
