<svg width="20" height="20" viewBox="0 0 20 20" fill="none" xmlns="http://www.w3.org/2000/svg">
<path d="M19.375 13.1252V15.6252C19.375 15.791 19.3091 15.95 19.1919 16.0672C19.0747 16.1844 18.9157 16.2502 18.75 16.2502C18.5842 16.2502 18.4253 16.1844 18.308 16.0672C18.1908 15.95 18.125 15.791 18.125 15.6252V14.6338L17.9523 14.8073C17.7101 15.0705 14.8 18.1252 9.99999 18.1252C5.09061 18.1252 2.1578 14.9291 2.03515 14.7932C1.92429 14.6694 1.86716 14.5066 1.87632 14.3407C1.88548 14.1748 1.96017 14.0193 2.08397 13.9084C2.20778 13.7976 2.37054 13.7404 2.53647 13.7496C2.7024 13.7588 2.85789 13.8335 2.96874 13.9573C2.98983 13.9846 5.66405 16.8752 9.99999 16.8752C14.3359 16.8752 17.0101 13.9846 17.0367 13.9565C17.0433 13.9483 17.0504 13.9405 17.0578 13.933L17.2414 13.7502H16.25C16.0842 13.7502 15.9253 13.6844 15.808 13.5672C15.6908 13.45 15.625 13.291 15.625 13.1252C15.625 12.9595 15.6908 12.8005 15.808 12.6833C15.9253 12.5661 16.0842 12.5002 16.25 12.5002H18.75C18.9157 12.5002 19.0747 12.5661 19.1919 12.6833C19.3091 12.8005 19.375 12.9595 19.375 13.1252ZM12.5 7.38539V6.56273C12.5004 5.93078 12.288 5.3171 11.897 4.82064C11.5059 4.32418 10.9591 3.97388 10.3446 3.82623C9.73018 3.67857 9.08389 3.74215 8.50999 4.00673C7.93608 4.27131 7.46801 4.72146 7.18124 5.28461C7.10582 5.43224 6.97484 5.54386 6.81712 5.59492C6.6594 5.64598 6.48785 5.63229 6.34022 5.55687C6.19259 5.48145 6.08097 5.35047 6.02991 5.19275C5.97885 5.03503 5.99254 4.86349 6.06796 4.71586C6.48238 3.9027 7.15854 3.25279 7.98745 2.87086C8.81636 2.48894 9.74973 2.39726 10.6371 2.6106C11.5245 2.82394 12.3142 3.32987 12.8789 4.04684C13.4436 4.76382 13.7505 5.65006 13.75 6.56273V13.7502C13.75 13.916 13.6841 14.075 13.5669 14.1922C13.4497 14.3094 13.2907 14.3752 13.125 14.3752C12.9592 14.3752 12.8003 14.3094 12.683 14.1922C12.5658 14.075 12.5 13.916 12.5 13.7502V13.2401C11.9258 13.7926 11.2018 14.164 10.4181 14.3082C9.63446 14.4524 8.82569 14.3629 8.09248 14.0509C7.35926 13.7389 6.734 13.2181 6.29449 12.5535C5.85499 11.8888 5.62065 11.1096 5.62065 10.3127C5.62065 9.5159 5.85499 8.73666 6.29449 8.072C6.734 7.40733 7.35926 6.8866 8.09248 6.5746C8.82569 6.2626 9.63446 6.17311 10.4181 6.31727C11.2018 6.46144 11.9258 6.83288 12.5 7.38539ZM12.5 10.3127C12.5 9.75647 12.335 9.2127 12.026 8.75019C11.717 8.28768 11.2777 7.92719 10.7638 7.71432C10.2499 7.50145 9.68437 7.44575 9.1388 7.55427C8.59323 7.66279 8.09209 7.93066 7.69875 8.32399C7.30542 8.71733 7.03755 9.21847 6.92903 9.76404C6.82051 10.3096 6.87621 10.8751 7.08908 11.389C7.30195 11.9029 7.66243 12.3422 8.12495 12.6512C8.58746 12.9603 9.13123 13.1252 9.68749 13.1252C10.0568 13.1252 10.4226 13.0525 10.7638 12.9111C11.105 12.7698 11.4151 12.5626 11.6762 12.3015C11.9374 12.0403 12.1446 11.7303 12.2859 11.389C12.4272 11.0478 12.5 10.6821 12.5 10.3127Z" fill="#191F2E"/>
</svg>
