<svg width="20" height="20" viewBox="0 0 20 20" fill="none" xmlns="http://www.w3.org/2000/svg">
<path d="M19.6875 13.1249V15.6249C19.6875 15.8735 19.5887 16.112 19.4129 16.2878C19.2371 16.4636 18.9986 16.5624 18.75 16.5624C18.5013 16.5624 18.2629 16.4636 18.0871 16.2878C17.9113 16.112 17.8125 15.8735 17.8125 15.6249V15.3835C16.8406 16.2819 14.082 18.4374 9.99998 18.4374C4.95311 18.4374 1.92967 15.1421 1.80311 14.9999C1.71294 14.9098 1.64208 14.8023 1.59486 14.6839C1.54764 14.5656 1.52505 14.4388 1.52848 14.3114C1.5319 14.184 1.56126 14.0586 1.61477 13.943C1.66828 13.8273 1.74482 13.7237 1.83969 13.6387C1.93457 13.5536 2.0458 13.4887 2.16659 13.4481C2.28738 13.4074 2.41519 13.3918 2.54221 13.4022C2.66923 13.4126 2.7928 13.4488 2.90536 13.5086C3.01791 13.5684 3.1171 13.6505 3.19686 13.7499C3.2203 13.7757 5.81249 16.5624 9.99998 16.5624C13.332 16.5624 15.6515 14.7983 16.4742 14.0624H16.25C16.0013 14.0624 15.7629 13.9636 15.5871 13.7878C15.4113 13.612 15.3125 13.3735 15.3125 13.1249C15.3125 12.8762 15.4113 12.6378 15.5871 12.462C15.7629 12.2861 16.0013 12.1874 16.25 12.1874H18.75C18.9986 12.1874 19.2371 12.2861 19.4129 12.462C19.5887 12.6378 19.6875 12.8762 19.6875 13.1249ZM12.1875 6.72488V6.56238C12.1877 6.02326 12.0135 5.49854 11.6911 5.06646C11.3687 4.63439 10.9153 4.31811 10.3984 4.1648C9.88156 4.0115 9.32899 4.02937 8.82313 4.21576C8.31727 4.40216 7.88521 4.74708 7.59139 5.19909C7.45567 5.40743 7.24275 5.55333 6.99947 5.60468C6.75619 5.65603 6.50247 5.60864 6.29413 5.47292C6.08579 5.33721 5.93989 5.12429 5.88854 4.881C5.83719 4.63772 5.88458 4.384 6.0203 4.17566C6.53469 3.38501 7.29083 2.78179 8.176 2.45591C9.06117 2.13004 10.028 2.09897 10.9322 2.36733C11.8365 2.63569 12.6298 3.18912 13.1939 3.9451C13.758 4.70108 14.0627 5.61913 14.0625 6.56238V13.7499C14.0609 13.9852 13.9709 14.2112 13.8104 14.3833C13.6499 14.5553 13.4306 14.6607 13.1959 14.6785C12.9613 14.6963 12.7286 14.6252 12.544 14.4794C12.3593 14.3336 12.2363 14.1236 12.1992 13.8913C11.5444 14.3516 10.7758 14.6235 9.97716 14.6773C9.17852 14.7311 8.38042 14.5648 7.66977 14.1964C6.95911 13.828 6.36314 13.2718 5.94673 12.5881C5.53032 11.9045 5.30943 11.1198 5.30813 10.3193C5.30682 9.51889 5.52513 8.73342 5.9393 8.04845C6.35348 7.36348 6.94763 6.80527 7.65708 6.43458C8.36652 6.0639 9.16407 5.89495 9.96288 5.94614C10.7617 5.99732 11.5312 6.26668 12.1875 6.72488ZM12.1875 10.3124C12.1875 9.81792 12.0409 9.33457 11.7662 8.92345C11.4915 8.51233 11.101 8.1919 10.6442 8.00268C10.1874 7.81346 9.68471 7.76395 9.19976 7.86041C8.71481 7.95688 8.26935 8.19498 7.91972 8.54461C7.57009 8.89424 7.33198 9.3397 7.23552 9.82465C7.13906 10.3096 7.18857 10.8123 7.37779 11.2691C7.56701 11.7259 7.88744 12.1163 8.29856 12.391C8.70968 12.6658 9.19303 12.8124 9.68748 12.8124C10.3505 12.8124 10.9864 12.549 11.4553 12.0801C11.9241 11.6113 12.1875 10.9754 12.1875 10.3124Z" fill="#191F2E"/>
</svg>
