<svg width="20" height="20" viewBox="0 0 20 20" fill="none" xmlns="http://www.w3.org/2000/svg">
<path d="M17.5 8.43759H15.625C15.3764 8.43759 15.1379 8.53636 14.9621 8.71217C14.7863 8.88799 14.6875 9.12645 14.6875 9.37509C14.6875 9.62373 14.7863 9.86219 14.9621 10.038C15.1379 10.2138 15.3764 10.3126 15.625 10.3126H16.4961C16.2912 11.7139 15.6395 13.0116 14.6381 14.0129C13.6366 15.0142 12.3388 15.6657 10.9375 15.8704V7.65165C11.563 7.4305 12.0902 6.99534 12.4259 6.42308C12.7616 5.85082 12.8842 5.1783 12.772 4.5244C12.6598 3.8705 12.3201 3.27731 11.8128 2.84968C11.3056 2.42204 10.6635 2.1875 10 2.1875C9.33654 2.1875 8.69445 2.42204 8.18719 2.84968C7.67994 3.27731 7.3402 3.8705 7.228 4.5244C7.11581 5.1783 7.2384 5.85082 7.5741 6.42308C7.90979 6.99534 8.43699 7.4305 9.0625 7.65165V15.8704C7.6612 15.6657 6.36337 15.0142 5.36191 14.0129C4.36045 13.0116 3.70883 11.7139 3.50391 10.3126H4.375C4.62364 10.3126 4.8621 10.2138 5.03791 10.038C5.21373 9.86219 5.3125 9.62373 5.3125 9.37509C5.3125 9.12645 5.21373 8.88799 5.03791 8.71217C4.8621 8.53636 4.62364 8.43759 4.375 8.43759H2.5C2.25136 8.43759 2.0129 8.53636 1.83709 8.71217C1.66127 8.88799 1.5625 9.12645 1.5625 9.37509C1.5625 11.6129 2.45145 13.759 4.03379 15.3413C5.61613 16.9236 7.76224 17.8126 10 17.8126C12.2378 17.8126 14.3839 16.9236 15.9662 15.3413C17.5486 13.759 18.4375 11.6129 18.4375 9.37509C18.4375 9.12645 18.3387 8.88799 18.1629 8.71217C17.9871 8.53636 17.7486 8.43759 17.5 8.43759ZM10 4.06259C10.1854 4.06259 10.3667 4.11757 10.5208 4.22059C10.675 4.3236 10.7952 4.47002 10.8661 4.64132C10.9371 4.81263 10.9557 5.00113 10.9195 5.18299C10.8833 5.36484 10.794 5.53189 10.6629 5.663C10.5318 5.79411 10.3648 5.8834 10.1829 5.91957C10.001 5.95575 9.81254 5.93718 9.64123 5.86623C9.46993 5.79527 9.32351 5.67511 9.2205 5.52093C9.11748 5.36676 9.0625 5.18551 9.0625 5.00009C9.0625 4.75145 9.16127 4.51299 9.33709 4.33718C9.5129 4.16136 9.75136 4.06259 10 4.06259Z" fill="#191F2E"/>
</svg>
