<svg width="20" height="20" viewBox="0 0 20 20" fill="none" xmlns="http://www.w3.org/2000/svg">
<path d="M17.5 8.74996H15.625C15.4592 8.74996 15.3003 8.81581 15.1831 8.93302C15.0658 9.05023 15 9.2092 15 9.37496C15 9.54072 15.0658 9.69969 15.1831 9.8169C15.3003 9.93411 15.4592 9.99996 15.625 9.99996H16.8469C16.6984 11.5999 15.9952 13.0976 14.859 14.2337C13.7227 15.3698 12.2249 16.0728 10.625 16.2211V7.42184C11.2142 7.26971 11.7276 6.90794 12.0691 6.40433C12.4106 5.90072 12.5567 5.28984 12.4801 4.68621C12.4034 4.08258 12.1092 3.52763 11.6526 3.12538C11.1961 2.72314 10.6085 2.50122 10 2.50122C9.39152 2.50122 8.80392 2.72314 8.34735 3.12538C7.89079 3.52763 7.5966 4.08258 7.51993 4.68621C7.44325 5.28984 7.58937 5.90072 7.93087 6.40433C8.27238 6.90794 8.78584 7.26971 9.375 7.42184V16.2211C7.77505 16.0728 6.2773 15.3698 5.14105 14.2337C4.0048 13.0976 3.30157 11.5999 3.15313 9.99996H4.375C4.54076 9.99996 4.69973 9.93411 4.81694 9.8169C4.93415 9.69969 5 9.54072 5 9.37496C5 9.2092 4.93415 9.05023 4.81694 8.93302C4.69973 8.81581 4.54076 8.74996 4.375 8.74996H2.5C2.33424 8.74996 2.17527 8.81581 2.05806 8.93302C1.94085 9.05023 1.875 9.2092 1.875 9.37496C1.875 11.5298 2.73102 13.5965 4.25476 15.1202C5.77849 16.6439 7.84512 17.5 10 17.5C12.1549 17.5 14.2215 16.6439 15.7452 15.1202C17.269 13.5965 18.125 11.5298 18.125 9.37496C18.125 9.2092 18.0592 9.05023 17.9419 8.93302C17.8247 8.81581 17.6658 8.74996 17.5 8.74996ZM8.75 4.99996C8.75 4.75273 8.82331 4.51106 8.96066 4.3055C9.09801 4.09994 9.29324 3.93972 9.52165 3.84511C9.75005 3.7505 10.0014 3.72575 10.2439 3.77398C10.4863 3.82221 10.7091 3.94126 10.8839 4.11608C11.0587 4.29089 11.1778 4.51362 11.226 4.7561C11.2742 4.99857 11.2495 5.24991 11.1549 5.47831C11.0602 5.70672 10.9 5.90195 10.6945 6.0393C10.4889 6.17665 10.2472 6.24996 10 6.24996C9.66848 6.24996 9.35054 6.11826 9.11612 5.88384C8.8817 5.64942 8.75 5.33148 8.75 4.99996Z" fill="#191F2E"/>
</svg>
