<svg width="20" height="20" viewBox="0 0 20 20" fill="none" xmlns="http://www.w3.org/2000/svg">
<path d="M16.1766 6.9272C16.1188 6.86939 16.0602 6.81314 16.0016 6.75767L17.9422 4.81705C18.0003 4.75898 18.0463 4.69004 18.0777 4.61417C18.1092 4.5383 18.1254 4.45698 18.1254 4.37486C18.1254 4.29274 18.1092 4.21142 18.0777 4.13555C18.0463 4.05968 18.0003 3.99074 17.9422 3.93267C17.8841 3.8746 17.8152 3.82854 17.7393 3.79711C17.6634 3.76569 17.5821 3.74951 17.5 3.74951C17.4179 3.74951 17.3366 3.76569 17.2607 3.79711C17.1848 3.82854 17.1159 3.8746 17.0578 3.93267L15.0266 5.96392C13.556 4.92879 11.801 4.37447 10.0027 4.37712C8.20441 4.37978 6.45105 4.93929 4.9836 5.97877L2.94219 3.93267C2.82492 3.8154 2.66586 3.74951 2.5 3.74951C2.33415 3.74951 2.17509 3.8154 2.05782 3.93267C1.94054 4.04995 1.87466 4.20901 1.87466 4.37486C1.87466 4.54071 1.94054 4.69977 2.05782 4.81705L4.01563 6.77486C3.14101 7.60351 2.44464 8.60188 1.96911 9.7089C1.49358 10.8159 1.24889 12.0083 1.25 13.2131V14.9999C1.25 15.3314 1.3817 15.6493 1.61612 15.8837C1.85054 16.1182 2.16848 16.2499 2.5 16.2499H17.5C17.8315 16.2499 18.1495 16.1182 18.3839 15.8837C18.6183 15.6493 18.75 15.3314 18.75 14.9999V13.1249C18.7532 11.9728 18.5274 10.8316 18.0856 9.76764C17.6438 8.70367 16.9949 7.73814 16.1766 6.9272ZM7.1875 13.1249C7.00208 13.1249 6.82083 13.0699 6.66666 12.9669C6.51249 12.8638 6.39232 12.7174 6.32137 12.5461C6.25041 12.3748 6.23184 12.1863 6.26802 12.0045C6.30419 11.8226 6.39348 11.6556 6.52459 11.5244C6.6557 11.3933 6.82275 11.304 7.00461 11.2679C7.18646 11.2317 7.37496 11.2503 7.54627 11.3212C7.71758 11.3922 7.86399 11.5123 7.96701 11.6665C8.07002 11.8207 8.125 12.0019 8.125 12.1874C8.125 12.436 8.02623 12.6745 7.85042 12.8503C7.6746 13.0261 7.43614 13.1249 7.1875 13.1249ZM12.8125 13.1249C12.6271 13.1249 12.4458 13.0699 12.2917 12.9669C12.1375 12.8638 12.0173 12.7174 11.9464 12.5461C11.8754 12.3748 11.8568 12.1863 11.893 12.0045C11.9292 11.8226 12.0185 11.6556 12.1496 11.5244C12.2807 11.3933 12.4477 11.304 12.6296 11.2679C12.8115 11.2317 13 11.2503 13.1713 11.3212C13.3426 11.3922 13.489 11.5123 13.592 11.6665C13.695 11.8207 13.75 12.0019 13.75 12.1874C13.75 12.436 13.6512 12.6745 13.4754 12.8503C13.2996 13.0261 13.0611 13.1249 12.8125 13.1249Z" fill="#191F2E"/>
</svg>
