<svg width="20" height="20" viewBox="0 0 20 20" fill="none" xmlns="http://www.w3.org/2000/svg">
<path d="M14.0625 12.1875C14.0625 12.4347 13.9892 12.6764 13.8518 12.8819C13.7145 13.0875 13.5193 13.2477 13.2909 13.3423C13.0625 13.4369 12.8111 13.4617 12.5686 13.4134C12.3262 13.3652 12.1034 13.2462 11.9286 13.0713C11.7538 12.8965 11.6348 12.6738 11.5865 12.4313C11.5383 12.1889 11.563 11.9375 11.6577 11.7091C11.7523 11.4807 11.9125 11.2855 12.118 11.1481C12.3236 11.0108 12.5653 10.9375 12.8125 10.9375C13.144 10.9375 13.462 11.0692 13.6964 11.3036C13.9308 11.538 14.0625 11.8559 14.0625 12.1875ZM7.18751 10.9375C6.94028 10.9375 6.6986 11.0108 6.49304 11.1481C6.28748 11.2855 6.12727 11.4807 6.03266 11.7091C5.93805 11.9375 5.91329 12.1889 5.96152 12.4313C6.00976 12.6738 6.12881 12.8965 6.30362 13.0713C6.47844 13.2462 6.70117 13.3652 6.94364 13.4134C7.18612 13.4617 7.43745 13.4369 7.66586 13.3423C7.89427 13.2477 8.08949 13.0875 8.22684 12.8819C8.36419 12.6764 8.43751 12.4347 8.43751 12.1875C8.43751 11.8559 8.30581 11.538 8.07139 11.3036C7.83697 11.0692 7.51903 10.9375 7.18751 10.9375ZM19.0625 13.125V15C19.0625 15.4144 18.8979 15.8118 18.6049 16.1048C18.3118 16.3978 17.9144 16.5625 17.5 16.5625H2.5C2.0856 16.5625 1.68818 16.3978 1.39515 16.1048C1.10212 15.8118 0.937505 15.4144 0.937505 15V13.2132C0.935099 10.8036 1.88147 8.48987 3.57188 6.77262L1.83672 5.03825C1.6606 4.86213 1.56166 4.62326 1.56166 4.37418C1.56166 4.12511 1.6606 3.88624 1.83672 3.71012C2.01284 3.534 2.25171 3.43506 2.50079 3.43506C2.74986 3.43506 2.98873 3.534 3.16485 3.71012L5.02344 5.57262C6.48675 4.5929 8.20698 4.06751 9.96797 4.06247H10C11.7749 4.0576 13.5115 4.57786 14.9914 5.55778L16.8367 3.71168C16.9239 3.62448 17.0275 3.5553 17.1414 3.50811C17.2553 3.46091 17.3775 3.43662 17.5008 3.43662C17.6241 3.43662 17.7462 3.46091 17.8602 3.50811C17.9741 3.5553 18.0776 3.62448 18.1649 3.71168C18.2521 3.79889 18.3212 3.90242 18.3684 4.01636C18.4156 4.1303 18.4399 4.25242 18.4399 4.37575C18.4399 4.49907 18.4156 4.6212 18.3684 4.73514C18.3212 4.84908 18.2521 4.9526 18.1649 5.03981L16.4461 6.75856C18.1275 8.4501 19.0685 10.74 19.0625 13.125ZM17.1875 13.125C17.1875 12.1789 17.0008 11.2422 16.6379 10.3685C16.2751 9.49475 15.7434 8.70126 15.0732 8.0335C14.4031 7.36574 13.6077 6.83685 12.7327 6.47716C11.8577 6.11748 10.9203 5.93407 9.97422 5.93747C6.02501 5.95153 2.8125 9.21872 2.8125 13.2132V14.6875H17.1875V13.125Z" fill="#191F2E"/>
</svg>
