<svg width="20" height="20" viewBox="0 0 20 20" fill="none" xmlns="http://www.w3.org/2000/svg">
<path d="M10 8.16192L11.0211 10.0002H8.97891L10 8.16192ZM18.1195 5.70801L16.8695 15.083C16.8561 15.1842 16.8181 15.2805 16.7589 15.3635C16.6996 15.4466 16.6209 15.5139 16.5297 15.5596L10.2797 18.6846C10.1929 18.728 10.0971 18.7506 10 18.7506C9.90291 18.7506 9.80715 18.728 9.72032 18.6846L3.47032 15.5596C3.37908 15.5139 3.3004 15.4466 3.24116 15.3635C3.18192 15.2805 3.14392 15.1842 3.13048 15.083L1.88048 5.70801C1.86232 5.57173 1.8896 5.43327 1.9581 5.31406C2.0266 5.19486 2.1325 5.10157 2.25938 5.04864L9.75938 1.92364C9.83554 1.89154 9.91736 1.875 10 1.875C10.0827 1.875 10.1645 1.89154 10.2406 1.92364L17.7406 5.04864C17.8675 5.10157 17.9734 5.19486 18.0419 5.31406C18.1104 5.43327 18.1377 5.57173 18.1195 5.70801ZM13.6719 12.1971L10.5469 6.57208C10.4928 6.47439 10.4136 6.39296 10.3174 6.33626C10.2213 6.27956 10.1117 6.24965 10 6.24965C9.88836 6.24965 9.77876 6.27956 9.68259 6.33626C9.58641 6.39296 9.50718 6.47439 9.45313 6.57208L6.32813 12.1971C6.28833 12.2689 6.26305 12.3478 6.25376 12.4294C6.24447 12.511 6.25133 12.5936 6.27397 12.6726C6.2966 12.7515 6.33456 12.8252 6.38568 12.8894C6.43679 12.9537 6.50007 13.0073 6.57188 13.0471C6.6437 13.0869 6.72265 13.1122 6.80424 13.1214C6.88582 13.1307 6.96844 13.1239 7.04737 13.1012C7.1263 13.0786 7.19999 13.0406 7.26425 12.9895C7.32851 12.9384 7.38208 12.8751 7.42188 12.8033L8.28126 11.2502H11.7188L12.5781 12.8033C12.6179 12.8751 12.6715 12.9384 12.7358 12.9895C12.8 13.0406 12.8737 13.0786 12.9527 13.1012C13.0316 13.1239 13.1142 13.1307 13.1958 13.1214C13.2774 13.1122 13.3563 13.0869 13.4281 13.0471C13.5 13.0073 13.5632 12.9537 13.6143 12.8894C13.6655 12.8252 13.7034 12.7515 13.726 12.6726C13.7487 12.5936 13.7555 12.511 13.7463 12.4294C13.737 12.3478 13.7117 12.2689 13.6719 12.1971Z" fill="#191F2E"/>
</svg>
