<svg width="20" height="20" viewBox="0 0 20 20" fill="none" xmlns="http://www.w3.org/2000/svg">
<path d="M17.8601 4.75928L10.3601 1.63428C10.2458 1.58657 10.1231 1.56201 9.9992 1.56201C9.87529 1.56201 9.75262 1.58657 9.63826 1.63428L2.13826 4.75928C1.94771 4.83864 1.78869 4.97867 1.68585 5.15765C1.58301 5.33662 1.54212 5.54453 1.56951 5.74912L2.81951 15.1241C2.83976 15.2757 2.89676 15.4199 2.98554 15.5444C3.07432 15.6689 3.1922 15.7697 3.32889 15.8382L9.57889 18.9632C9.70913 19.0284 9.85277 19.0623 9.99842 19.0623C10.1441 19.0623 10.2877 19.0284 10.418 18.9632L16.668 15.8382C16.8046 15.7697 16.9225 15.6689 17.0113 15.5444C17.1001 15.4199 17.1571 15.2757 17.1773 15.1241L18.4273 5.74912C18.4548 5.54472 18.4142 5.33695 18.3116 5.158C18.2091 4.97905 18.0504 4.8389 17.8601 4.75928ZM15.3906 14.3835L9.99998 17.0765L4.61326 14.3835L3.5242 6.21397L9.99998 3.51553L16.4758 6.21397L15.3906 14.3835ZM9.18045 6.41943L6.05545 12.0444C5.99564 12.1522 5.95763 12.2706 5.94359 12.393C5.92956 12.5154 5.93977 12.6394 5.97365 12.7579C6.00753 12.8764 6.06441 12.987 6.14104 13.0835C6.21768 13.18 6.31257 13.2604 6.42029 13.3202C6.52802 13.38 6.64647 13.418 6.76888 13.4321C6.8913 13.4461 7.01528 13.4359 7.13375 13.402C7.25221 13.3681 7.36285 13.3113 7.45933 13.2346C7.55582 13.158 7.63626 13.0631 7.69607 12.9554L8.29451 11.8749H11.7054L12.3054 12.9554C12.4262 13.1729 12.6285 13.3336 12.8678 13.402C13.107 13.4704 13.3637 13.441 13.5812 13.3202C13.7988 13.1994 13.9595 12.9971 14.0279 12.7579C14.0963 12.5186 14.0669 12.262 13.9461 12.0444L10.8211 6.41943C10.74 6.2729 10.6212 6.15076 10.4769 6.06571C10.3326 5.98066 10.1682 5.9358 10.0008 5.9358C9.8333 5.9358 9.66889 5.98066 9.52463 6.06571C9.38037 6.15076 9.26152 6.2729 9.18045 6.41943ZM9.3367 9.9999L9.99998 8.80537L10.6633 9.9999H9.3367Z" fill="#191F2E"/>
</svg>
