<svg width="20" height="20" viewBox="0 0 20 20" fill="none" xmlns="http://www.w3.org/2000/svg">
<path d="M15.9694 4.0336C14.7894 2.85365 13.286 2.05011 11.6493 1.72459C10.0126 1.39907 8.31612 1.56619 6.7744 2.20482C5.23268 2.84345 3.91496 3.92491 2.98786 5.31244C2.06075 6.69996 1.56592 8.33125 1.56592 10C1.56592 11.6688 2.06075 13.3 2.98786 14.6876C3.91496 16.0751 5.23268 17.1566 6.7744 17.7952C8.31612 18.4338 10.0126 18.6009 11.6493 18.2754C13.286 17.9499 14.7894 17.1464 15.9694 15.9664C16.7588 15.1862 17.3855 14.2571 17.8132 13.2329C18.2409 12.2087 18.4612 11.1099 18.4612 10C18.4612 8.89011 18.2409 7.79126 17.8132 6.76709C17.3855 5.74293 16.7588 4.81382 15.9694 4.0336ZM14.6413 5.36172C14.8934 5.61256 15.1246 5.88351 15.3327 6.17188L13.203 8.67891L11.3827 3.58438C12.6184 3.84793 13.7509 4.46456 14.6429 5.35938L14.6413 5.36172ZM5.35616 5.36172C6.42651 4.28595 7.83864 3.61732 9.34913 3.4711L10.4554 6.56875L5.1335 5.59454C5.20616 5.51485 5.28038 5.43672 5.35772 5.35938L5.35616 5.36172ZM3.74991 12.0078C3.25493 10.4584 3.34952 8.78081 4.01553 7.29688L7.25303 7.89063L3.74991 12.0078ZM5.35538 14.6406C5.1043 14.3889 4.87412 14.1172 4.6671 13.8281L6.79678 11.3211L8.61709 16.4156C7.38174 16.1519 6.24949 15.5353 5.35772 14.6406H5.35538ZM8.196 9.6711L9.38194 8.27657L11.1835 8.60547L11.7991 10.3289L10.614 11.7234L8.81241 11.3945L8.196 9.6711ZM14.6405 14.6406C13.57 15.7161 12.158 16.3847 10.6476 16.5313L9.54288 13.4375L14.8663 14.4094C14.7937 14.4852 14.7194 14.5633 14.6429 14.6406H14.6405ZM12.7468 12.1094L16.2499 7.99219C16.745 9.54164 16.6501 11.2194 15.9835 12.7031L12.7468 12.1094Z" fill="#191F2E"/>
</svg>
