<svg width="20" height="20" viewBox="0 0 20 20" fill="none" xmlns="http://www.w3.org/2000/svg">
<path d="M18.1249 10.0001C18.1249 8.39315 17.6484 6.82224 16.7556 5.48606C15.8628 4.14989 14.5939 3.10846 13.1092 2.49349C11.6246 1.87852 9.99087 1.71761 8.41475 2.03113C6.83864 2.34465 5.39089 3.1185 4.25459 4.25483C3.11826 5.39113 2.3444 6.83888 2.03089 8.415C1.71737 9.99111 1.87827 11.6248 2.49325 13.1095C3.10822 14.5941 4.14964 15.8631 5.48582 16.7559C6.82199 17.6487 8.39291 18.1252 9.9999 18.1251H10.0069C12.1606 18.1233 14.2254 17.2664 15.7476 15.7429C17.2698 14.2194 18.1249 12.1538 18.1249 10.0001ZM3.84209 6.94702L7.84287 7.67749L3.64443 12.6197C3.27356 11.7141 3.0994 10.7401 3.13347 9.7621C3.16755 8.78413 3.40909 7.82457 3.84209 6.94702ZM16.3554 7.37983C16.7263 8.28552 16.9004 9.2597 16.8663 10.2378C16.8323 11.2159 16.5907 12.1756 16.1577 13.0533L12.1569 12.3228L16.3554 7.37983ZM15.7241 6.19233L13.0897 9.29702L10.9085 3.18608C12.406 3.38193 13.7962 4.06882 14.8616 5.13921C15.183 5.4611 15.4719 5.81385 15.7241 6.19233ZM9.56474 3.13999L10.9327 6.96811L4.55459 5.80639C4.73475 5.57158 4.92967 5.34847 5.13818 5.13842C6.31879 3.95211 7.89412 3.24091 9.56474 3.13999ZM4.27568 13.808L6.91006 10.7033L9.09131 16.8111C8.12085 16.6818 7.1892 16.3467 6.35871 15.8282C5.52822 15.3098 4.81803 14.6199 4.27568 13.8048V13.808ZM10.4351 16.8595L9.06709 13.0314L10.8702 13.3595L15.4421 14.1947C14.8466 14.9719 14.0911 15.6121 13.2267 16.072C12.3623 16.5319 11.4092 16.8007 10.4319 16.8603L10.4351 16.8595Z" fill="#191F2E"/>
</svg>
