<svg width="20" height="20" viewBox="0 0 20 20" fill="none" xmlns="http://www.w3.org/2000/svg">
<path d="M19.0625 12.4999C19.0625 12.7485 18.9637 12.987 18.7879 13.1628C18.6121 13.3386 18.3736 13.4374 18.125 13.4374H15.6773L17.057 15.7725C17.1214 15.8786 17.1641 15.9963 17.1826 16.119C17.2011 16.2416 17.1951 16.3667 17.165 16.4871C17.1348 16.6074 17.081 16.7205 17.0068 16.8199C16.9326 16.9193 16.8394 17.003 16.7326 17.0661C16.6258 17.1292 16.5076 17.1705 16.3847 17.1876C16.2618 17.2046 16.1368 17.1972 16.0169 17.1656C15.8969 17.134 15.7844 17.0789 15.6859 17.0035C15.5874 16.9281 15.5048 16.834 15.443 16.7264L11.0078 9.21861C10.8884 9.00494 10.8573 8.75302 10.9211 8.51671C10.9849 8.28039 11.1387 8.07842 11.3495 7.95395C11.5602 7.82948 11.8113 7.79239 12.0491 7.8506C12.2869 7.90882 12.4924 8.05772 12.6219 8.26549L14.5687 11.5624H18.125C18.3736 11.5624 18.6121 11.6611 18.7879 11.8369C18.9637 12.0128 19.0625 12.2512 19.0625 12.4999ZM10.4023 11.5624H7.60859L12.682 2.97721C12.7464 2.87117 12.7891 2.75341 12.8076 2.63076C12.8261 2.5081 12.8201 2.38299 12.79 2.26267C12.7598 2.14235 12.706 2.02922 12.6318 1.92982C12.5576 1.83043 12.4644 1.74675 12.3576 1.68364C12.2508 1.62052 12.1326 1.57923 12.0097 1.56215C11.8868 1.54507 11.7618 1.55255 11.6419 1.58414C11.5219 1.61573 11.4094 1.67082 11.3109 1.7462C11.2124 1.82159 11.1298 1.91577 11.068 2.0233L10 3.82799L8.93203 2.0233C8.87018 1.91577 8.78761 1.82159 8.6891 1.7462C8.59059 1.67082 8.4781 1.61573 8.35814 1.58414C8.23819 1.55255 8.11315 1.54507 7.99029 1.56215C7.86743 1.57923 7.74917 1.62052 7.64238 1.68364C7.53559 1.74675 7.44239 1.83043 7.36817 1.92982C7.29396 2.02922 7.2402 2.14235 7.21003 2.26267C7.17985 2.38299 7.17386 2.5081 7.19239 2.63076C7.21091 2.75341 7.2536 2.87117 7.31797 2.97721L8.91094 5.6733L5.43125 11.5624H1.875C1.62636 11.5624 1.3879 11.6611 1.21209 11.8369C1.03627 12.0128 0.9375 12.2512 0.9375 12.4999C0.9375 12.7485 1.03627 12.987 1.21209 13.1628C1.3879 13.3386 1.62636 13.4374 1.875 13.4374H10.4023C10.651 13.4374 10.8894 13.3386 11.0653 13.1628C11.2411 12.987 11.3398 12.7485 11.3398 12.4999C11.3398 12.2512 11.2411 12.0128 11.0653 11.8369C10.8894 11.6611 10.651 11.5624 10.4023 11.5624ZM4.59609 14.8178C4.38213 14.6914 4.12675 14.6552 3.88606 14.717C3.64537 14.7788 3.43907 14.9337 3.3125 15.1475L2.94297 15.7725C2.8786 15.8786 2.83591 15.9963 2.81739 16.119C2.79886 16.2416 2.80485 16.3667 2.83503 16.4871C2.8652 16.6074 2.91896 16.7205 2.99317 16.8199C3.06739 16.9193 3.16059 17.003 3.26738 17.0661C3.37417 17.1292 3.49243 17.1705 3.61529 17.1876C3.73815 17.2046 3.86319 17.1972 3.98314 17.1656C4.1031 17.134 4.21559 17.0789 4.3141 17.0035C4.41261 16.9281 4.49518 16.834 4.55703 16.7264L4.92656 16.1014C5.05288 15.8874 5.08903 15.6319 5.02706 15.3912C4.96509 15.1505 4.81008 14.9443 4.59609 14.8178Z" fill="#191F2E"/>
</svg>
