<svg width="20" height="20" viewBox="0 0 20 20" fill="none" xmlns="http://www.w3.org/2000/svg">
<path d="M10 1.875C8.39303 1.875 6.82214 2.35152 5.486 3.24431C4.14985 4.1371 3.10844 5.40605 2.49348 6.8907C1.87852 8.37535 1.71762 10.009 2.03112 11.5851C2.34463 13.1612 3.11846 14.6089 4.25476 15.7452C5.39106 16.8815 6.8388 17.6554 8.4149 17.9689C9.99099 18.2824 11.6247 18.1215 13.1093 17.5065C14.594 16.8916 15.8629 15.8502 16.7557 14.514C17.6485 13.1779 18.125 11.607 18.125 10C18.1227 7.84581 17.266 5.78051 15.7427 4.25727C14.2195 2.73403 12.1542 1.87727 10 1.875ZM6.53594 14.0719L6.16094 14.6969C6.11867 14.7673 6.06295 14.8286 5.99697 14.8775C5.93098 14.9263 5.85602 14.9617 5.77637 14.9816C5.69671 15.0014 5.61392 15.0054 5.53272 14.9933C5.45153 14.9812 5.37351 14.9532 5.30313 14.9109C5.23275 14.8687 5.17138 14.813 5.12254 14.747C5.07369 14.681 5.03832 14.606 5.01844 14.5264C4.99856 14.4467 4.99457 14.3639 5.00669 14.2827C5.0188 14.2015 5.0468 14.1235 5.08907 14.0531L5.46407 13.4281C5.54943 13.286 5.68777 13.1836 5.84864 13.1434C6.00951 13.1033 6.17974 13.1287 6.32188 13.2141C6.46402 13.2994 6.56642 13.4378 6.60657 13.5986C6.64671 13.7595 6.62131 13.9297 6.53594 14.0719ZM10 11.875H4.375C4.20924 11.875 4.05027 11.8092 3.93306 11.6919C3.81585 11.5747 3.75 11.4158 3.75 11.25C3.75 11.0842 3.81585 10.9253 3.93306 10.8081C4.05027 10.6908 4.20924 10.625 4.375 10.625H7.1461L9.2711 7.08359L8.21407 5.32188C8.1718 5.25149 8.1438 5.17348 8.13169 5.09228C8.11957 5.01108 8.12356 4.92829 8.14344 4.84863C8.16332 4.76898 8.19869 4.69402 8.24754 4.62803C8.29638 4.56205 8.35775 4.50633 8.42813 4.46406C8.57027 4.3787 8.7405 4.35329 8.90137 4.39343C8.98102 4.41331 9.05598 4.44868 9.12197 4.49753C9.18795 4.54638 9.24367 4.60774 9.28594 4.67813L10 5.86875L10.7141 4.67813C10.7563 4.60774 10.8121 4.54638 10.878 4.49753C10.944 4.44868 11.019 4.41331 11.0986 4.39343C11.1783 4.37356 11.2611 4.36956 11.3423 4.38168C11.4235 4.3938 11.5015 4.42179 11.5719 4.46406C11.6423 4.50633 11.7036 4.56205 11.7525 4.62803C11.8013 4.69402 11.8367 4.76898 11.8566 4.84863C11.8764 4.92829 11.8804 5.01108 11.8683 5.09228C11.8562 5.17348 11.8282 5.25149 11.7859 5.32188L8.60391 10.625H10C10.1658 10.625 10.3247 10.6908 10.4419 10.8081C10.5592 10.9253 10.625 11.0842 10.625 11.25C10.625 11.4158 10.5592 11.5747 10.4419 11.6919C10.3247 11.8092 10.1658 11.875 10 11.875ZM15.625 11.875H13.6039L14.9109 14.0531C14.9963 14.1953 15.0217 14.3655 14.9816 14.5264C14.9414 14.6872 14.839 14.8256 14.6969 14.9109C14.5547 14.9963 14.3845 15.0217 14.2236 14.9816C14.0628 14.9414 13.9244 14.839 13.8391 14.6969L10.8391 9.69688C10.7537 9.55474 10.7283 9.38451 10.7684 9.22364C10.8086 9.06276 10.911 8.92443 11.0531 8.83906C11.1953 8.7537 11.3655 8.72829 11.5264 8.76844C11.6872 8.80858 11.8256 8.91099 11.9109 9.05312L12.8539 10.625H15.625C15.7908 10.625 15.9497 10.6908 16.0669 10.8081C16.1842 10.9253 16.25 11.0842 16.25 11.25C16.25 11.4158 16.1842 11.5747 16.0669 11.6919C15.9497 11.8092 15.7908 11.875 15.625 11.875Z" fill="#191F2E"/>
</svg>
