<svg width="20" height="20" viewBox="0 0 20 20" fill="none" xmlns="http://www.w3.org/2000/svg">
<path d="M12.0469 10.8069C12.3095 10.4323 12.4644 9.99286 12.4946 9.53635C12.5247 9.07985 12.429 8.62382 12.2179 8.21794C12.0068 7.81206 11.6884 7.47189 11.2973 7.23448C10.9062 6.99707 10.4575 6.87153 10 6.87153C9.5425 6.87153 9.09377 6.99707 8.70269 7.23448C8.31161 7.47189 7.99318 7.81206 7.78207 8.21794C7.57096 8.62382 7.47528 9.07985 7.50544 9.53635C7.5356 9.99286 7.69045 10.4323 7.95313 10.8069C7.68544 10.9333 7.45106 11.1206 7.26875 11.3538C7.0938 11.577 6.97251 11.8375 6.91426 12.115C6.85601 12.3926 6.86236 12.6798 6.93281 12.9546L7.88438 16.7046C7.98877 17.1121 8.22622 17.4732 8.55908 17.7304C8.89194 17.9877 9.30117 18.1266 9.72188 18.1249H10.2781C10.6985 18.1267 11.1075 17.9882 11.4403 17.7314C11.7731 17.4745 12.0108 17.114 12.1156 16.7069L13.0672 12.9569C13.1376 12.6822 13.144 12.3949 13.0857 12.1174C13.0275 11.8398 12.9062 11.5793 12.7313 11.3561C12.5492 11.1221 12.3148 10.9339 12.0469 10.8069ZM10 8.12488C10.2472 8.12488 10.4889 8.19819 10.6945 8.33554C10.9 8.47289 11.0602 8.66812 11.1549 8.89652C11.2495 9.12493 11.2742 9.37626 11.226 9.61874C11.1778 9.86122 11.0587 10.0839 10.8839 10.2588C10.7091 10.4336 10.4863 10.5526 10.2439 10.6009C10.0014 10.6491 9.75005 10.6243 9.52165 10.5297C9.29324 10.4351 9.09802 10.2749 8.96066 10.0693C8.82331 9.86378 8.75 9.6221 8.75 9.37488C8.75 9.04336 8.8817 8.72541 9.11612 8.49099C9.35054 8.25657 9.66848 8.12488 10 8.12488ZM11.8555 12.6491L10.9039 16.3991C10.8676 16.5367 10.7863 16.6582 10.6731 16.7443C10.5599 16.8305 10.4212 16.8765 10.2789 16.8749H9.72266C9.58038 16.8765 9.44164 16.8305 9.32843 16.7443C9.21522 16.6582 9.134 16.5367 9.09766 16.3991L8.14609 12.6491C8.12263 12.5589 8.12043 12.4644 8.13968 12.3731C8.15893 12.2819 8.19911 12.1964 8.25703 12.1233C8.31792 12.0452 8.39595 11.9822 8.48509 11.9392C8.57423 11.8961 8.67209 11.8741 8.77109 11.8749H11.232C11.331 11.8741 11.4289 11.8961 11.518 11.9392C11.6072 11.9822 11.6852 12.0452 11.7461 12.1233C11.8038 12.1965 11.8436 12.2821 11.8626 12.3733C11.8816 12.4646 11.8792 12.559 11.8555 12.6491ZM5.625 9.99988C5.62476 10.3688 5.67096 10.7363 5.7625 11.0936C5.78445 11.1735 5.79028 11.257 5.77966 11.3392C5.76904 11.4214 5.74217 11.5007 5.70063 11.5724C5.65909 11.6441 5.60369 11.7069 5.53767 11.757C5.47166 11.8071 5.39633 11.8436 5.31608 11.8643C5.23583 11.885 5.15227 11.8896 5.07024 11.8777C4.98821 11.8658 4.90937 11.8377 4.8383 11.7951C4.76723 11.7525 4.70534 11.6961 4.65625 11.6293C4.60716 11.5626 4.57184 11.4867 4.55235 11.4061C4.33859 10.5751 4.31777 9.70626 4.49149 8.86598C4.66521 8.02571 5.02886 7.23631 5.55461 6.55821C6.08036 5.8801 6.75428 5.33126 7.52478 4.95369C8.29529 4.57612 9.14196 4.37982 10 4.37982C10.858 4.37982 11.7047 4.57612 12.4752 4.95369C13.2457 5.33126 13.9196 5.8801 14.4454 6.55821C14.9711 7.23631 15.3348 8.02571 15.5085 8.86598C15.6822 9.70626 15.6614 10.5751 15.4477 11.4061C15.413 11.5402 15.3349 11.659 15.2254 11.7438C15.116 11.8287 14.9815 11.8748 14.843 11.8749C14.7903 11.8749 14.7378 11.8683 14.6867 11.8553C14.5263 11.814 14.3888 11.7106 14.3046 11.5679C14.2203 11.4252 14.1962 11.2549 14.2375 11.0944C14.3919 10.4933 14.4166 9.86631 14.31 9.25496C14.2035 8.64361 13.9681 8.06192 13.6194 7.54852C13.2708 7.03512 12.817 6.60176 12.2881 6.27721C11.7591 5.95266 11.1672 5.74435 10.5516 5.66612C9.93594 5.58788 9.31072 5.6415 8.71742 5.82343C8.12412 6.00536 7.5763 6.31142 7.11036 6.7213C6.64441 7.13118 6.27099 7.6355 6.0149 8.20076C5.75881 8.76603 5.6259 9.37931 5.625 9.99988ZM18.125 9.99988C18.1261 11.3406 17.7949 12.6607 17.1611 13.8422C16.5273 15.0236 15.6106 16.0296 14.493 16.7702C14.355 16.8586 14.1878 16.8892 14.0274 16.8555C13.867 16.8218 13.7263 16.7264 13.6356 16.59C13.5448 16.4535 13.5113 16.2869 13.5422 16.126C13.5731 15.965 13.6659 15.8227 13.8008 15.7296C15.0313 14.913 15.9663 13.722 16.4671 12.3327C16.968 10.9434 17.0082 9.42975 16.5818 8.01583C16.1553 6.60192 15.285 5.36291 14.0995 4.48221C12.914 3.60152 11.4764 3.12598 9.99961 3.12598C8.52279 3.12598 7.08523 3.60152 5.89975 4.48221C4.71426 5.36291 3.84388 6.60192 3.41745 8.01583C2.99102 9.42975 3.03122 10.9434 3.53209 12.3327C4.03296 13.722 4.96788 14.913 6.19844 15.7296C6.31013 15.8039 6.39494 15.9122 6.44033 16.0385C6.48571 16.1647 6.48926 16.3022 6.45045 16.4307C6.41164 16.5591 6.33253 16.6716 6.22482 16.7516C6.11711 16.8316 5.98651 16.8748 5.85235 16.8749C5.7294 16.8751 5.60918 16.8386 5.50703 16.7702C4.33661 15.9934 3.38757 14.9264 2.75256 13.6734C2.11755 12.4204 1.81825 11.0241 1.88387 9.6209C1.9495 8.21769 2.37781 6.85547 3.127 5.66718C3.8762 4.4789 4.92067 3.50515 6.15849 2.84099C7.39631 2.17682 8.78518 1.84493 10.1895 1.8777C11.5939 1.91047 12.9658 2.30678 14.1713 3.02796C15.3768 3.74914 16.3747 4.77054 17.0676 5.99248C17.7606 7.21441 18.1249 8.59513 18.125 9.99988Z" fill="#191F2E"/>
</svg>
