<svg width="20" height="20" viewBox="0 0 20 20" fill="none" xmlns="http://www.w3.org/2000/svg">
<path d="M12.6062 10.1561C12.9178 9.68519 13.096 9.13861 13.1217 8.57451C13.1475 8.01041 13.02 7.44987 12.7526 6.95247C12.4853 6.45507 12.0882 6.03939 11.6035 5.74964C11.1188 5.45989 10.5647 5.30688 10 5.30688C9.43531 5.30688 8.88117 5.45989 8.39649 5.74964C7.91181 6.03939 7.5147 6.45507 7.24737 6.95247C6.98004 7.44987 6.85248 8.01041 6.87826 8.57451C6.90403 9.13861 7.08218 9.68519 7.39375 10.1561C7.26315 10.2599 7.14469 10.3781 7.04063 10.5085C6.83505 10.7648 6.69017 11.0643 6.61684 11.3845C6.5435 11.7048 6.54362 12.0375 6.61719 12.3577L7.61328 16.7327C7.72114 17.2177 7.99165 17.6513 8.3799 17.9614C8.76815 18.2715 9.25078 18.4394 9.74766 18.4374H10.2523C10.7489 18.4395 11.2313 18.2719 11.6195 17.9623C12.0077 17.6527 12.2784 17.2196 12.3867 16.735L13.3828 12.36C13.4564 12.0398 13.4565 11.7071 13.3832 11.3869C13.3098 11.0666 13.1649 10.7671 12.9594 10.5108C12.8554 10.3796 12.737 10.2606 12.6062 10.1561ZM10 7.18739C10.2472 7.18739 10.4889 7.2607 10.6945 7.39805C10.9 7.53541 11.0602 7.73063 11.1549 7.95904C11.2495 8.18744 11.2742 8.43878 11.226 8.68125C11.1778 8.92373 11.0587 9.14646 10.8839 9.32127C10.7091 9.49609 10.4863 9.61514 10.2439 9.66337C10.0014 9.7116 9.75005 9.68685 9.52165 9.59224C9.29324 9.49763 9.09802 9.33741 8.96066 9.13185C8.82331 8.92629 8.75 8.68462 8.75 8.43739C8.75 8.10587 8.8817 7.78793 9.11612 7.55351C9.35054 7.31909 9.66848 7.18739 10 7.18739ZM11.5539 11.9436L10.5586 16.3186C10.5429 16.3881 10.504 16.4501 10.4484 16.4944C10.3927 16.5387 10.3235 16.5627 10.2523 16.5624H9.74766C9.67648 16.5627 9.60733 16.5387 9.55164 16.4944C9.49595 16.4501 9.45706 16.3881 9.44141 16.3186L8.44609 11.9436C8.43533 11.8981 8.43515 11.8507 8.44558 11.805C8.45601 11.7594 8.47677 11.7167 8.50625 11.6804C8.53543 11.6437 8.57249 11.614 8.61468 11.5936C8.65688 11.5732 8.70312 11.5625 8.75 11.5624H11.25C11.2973 11.5622 11.344 11.5727 11.3866 11.5931C11.4292 11.6135 11.4667 11.6434 11.4961 11.6804C11.5252 11.7169 11.5455 11.7597 11.5555 11.8053C11.5655 11.8509 11.565 11.8983 11.5539 11.9436ZM18.4375 9.99989C18.4407 11.1109 18.2229 12.2114 17.7968 13.2375C17.3707 14.2635 16.7448 15.1946 15.9555 15.9765C15.7789 16.1496 15.541 16.246 15.2936 16.2446C15.0463 16.2432 14.8095 16.1441 14.6349 15.9689C14.4604 15.7937 14.3621 15.5565 14.3615 15.3092C14.361 15.0618 14.4582 14.8243 14.632 14.6483C15.5522 13.7315 16.1795 12.5622 16.4347 11.2886C16.6898 10.0149 16.5612 8.69421 16.0652 7.49369C15.5692 6.29318 14.7281 5.26686 13.6484 4.54472C12.5687 3.82258 11.2989 3.4371 10 3.4371C8.70106 3.4371 7.43133 3.82258 6.35162 4.54472C5.27191 5.26686 4.43079 6.29318 3.93478 7.49369C3.43878 8.69421 3.3102 10.0149 3.56533 11.2886C3.82046 12.5622 4.44782 13.7315 5.36797 14.6483C5.45631 14.735 5.52663 14.8382 5.57487 14.9522C5.6231 15.0662 5.6483 15.1885 5.64901 15.3123C5.64972 15.436 5.62593 15.5587 5.57901 15.6732C5.53208 15.7877 5.46296 15.8917 5.37561 15.9794C5.28827 16.067 5.18444 16.1365 5.07011 16.1839C4.95577 16.2312 4.8332 16.2554 4.70946 16.2551C4.58572 16.2549 4.46326 16.2301 4.34913 16.1823C4.23501 16.1344 4.13149 16.0645 4.04453 15.9765C3.06115 14.9966 2.33473 13.7893 1.92967 12.4615C1.52461 11.1337 1.45342 9.72642 1.72243 8.36452C1.99143 7.00262 2.59232 5.72813 3.4718 4.65405C4.35128 3.57997 5.4822 2.73949 6.76427 2.20712C8.04635 1.67474 9.43997 1.46693 10.8216 1.60211C12.2032 1.73728 13.5301 2.21127 14.6847 2.98204C15.8393 3.75281 16.7858 4.79655 17.4405 6.02072C18.0951 7.24489 18.4376 8.61168 18.4375 9.99989Z" fill="#191F2E"/>
</svg>
