<svg width="20" height="20" viewBox="0 0 20 20" fill="none" xmlns="http://www.w3.org/2000/svg">
<path d="M10.018 2.34375C10.1913 1.67243 10.583 1.07782 11.1313 0.653511C11.6796 0.229205 12.3535 -0.000694557 13.0469 1.57626e-06H13.125C13.2908 1.57626e-06 13.4497 0.0658496 13.5669 0.18306C13.6841 0.30027 13.75 0.459241 13.75 0.625002C13.75 0.790762 13.6841 0.949733 13.5669 1.06694C13.4497 1.18415 13.2908 1.25 13.125 1.25H13.0469C12.6312 1.24997 12.2272 1.38808 11.8986 1.64263C11.5699 1.89719 11.3352 2.25374 11.2312 2.65625C11.1898 2.81683 11.0863 2.95437 10.9434 3.03862C10.8006 3.12286 10.6301 3.14691 10.4695 3.10547C10.3089 3.06403 10.1714 2.9605 10.0872 2.81765C10.0029 2.6748 9.97886 2.50433 10.0203 2.34375H10.018ZM17.4453 13.2492C17.3984 13.1421 17.3227 13.0501 17.2266 12.9836C15.9008 12.0727 15.625 10.5188 15.625 9.375C15.625 7.99453 16.6773 6.79219 17.3047 6.19766C17.3664 6.13925 17.4155 6.06888 17.4491 5.99083C17.4827 5.91279 17.5 5.82872 17.5 5.74375C17.5 5.65879 17.4827 5.57471 17.4491 5.49667C17.4155 5.41863 17.3664 5.34825 17.3047 5.28985C16.3141 4.35469 14.6734 3.75 13.125 3.75C12.0127 3.751 10.9255 4.08069 9.99999 4.69766C8.9204 3.97372 7.62228 3.6486 6.32891 3.77821C5.03554 3.90781 3.82775 4.48405 2.91327 5.40781C2.36658 5.96593 1.93763 6.62823 1.65191 7.35536C1.36618 8.08249 1.2295 8.85964 1.24999 9.64063C1.28066 10.9589 1.57378 12.2578 2.11222 13.4614C2.65067 14.6651 3.42363 15.7493 4.38593 16.6508C4.96546 17.1983 5.73318 17.5023 6.53046 17.5H13.3805C13.8067 17.5008 14.2286 17.4141 14.6199 17.2451C15.0112 17.0762 15.3637 16.8287 15.6555 16.518C16.1959 15.9363 16.6634 15.2909 17.0476 14.5961C17.5961 13.5938 17.5258 13.4375 17.4453 13.2492Z" fill="#191F2E"/>
</svg>
