<svg width="20" height="20" viewBox="0 0 20 20" fill="none" xmlns="http://www.w3.org/2000/svg">
<path d="M16.25 2.1875H3.75C3.3356 2.1875 2.93817 2.35212 2.64515 2.64515C2.35212 2.93817 2.1875 3.3356 2.1875 3.75V16.25C2.1875 16.6644 2.35212 17.0618 2.64515 17.3549C2.93817 17.6479 3.3356 17.8125 3.75 17.8125H16.25C16.6644 17.8125 17.0618 17.6479 17.3549 17.3549C17.6479 17.0618 17.8125 16.6644 17.8125 16.25V3.75C17.8125 3.3356 17.6479 2.93817 17.3549 2.64515C17.0618 2.35212 16.6644 2.1875 16.25 2.1875ZM15.9375 4.0625V11.5625H14.0086C13.8033 11.5619 13.6 11.6021 13.4104 11.6807C13.2207 11.7593 13.0486 11.8747 12.9039 12.0203L11.4844 13.4375H8.51562L7.09609 12.0203C6.9514 11.8747 6.77925 11.7593 6.58963 11.6807C6.4 11.6021 6.19667 11.5619 5.99141 11.5625H4.0625V4.0625H15.9375ZM4.0625 15.9375V13.4375H5.85938L7.27656 14.8547C7.42154 15.0006 7.59406 15.1161 7.78411 15.1947C7.97416 15.2733 8.17794 15.3134 8.38359 15.3125H11.6164C11.8217 15.3131 12.025 15.2729 12.2146 15.1943C12.4043 15.1157 12.5764 15.0003 12.7211 14.8547L14.1406 13.4375H15.9375V15.9375H4.0625ZM6.83672 9.72578C6.6606 9.54966 6.56165 9.31079 6.56166 9.06172C6.56166 8.81265 6.6606 8.57378 6.83672 8.39766C7.01284 8.22154 7.25171 8.12259 7.50078 8.12259C7.74985 8.12259 7.98872 8.22154 8.16484 8.39766L9.0625 9.29688V5.9375C9.0625 5.68886 9.16127 5.4504 9.33709 5.27459C9.5129 5.09877 9.75136 5 10 5C10.2486 5 10.4871 5.09877 10.6629 5.27459C10.8387 5.4504 10.9375 5.68886 10.9375 5.9375V9.29688L11.8367 8.39688C12.0128 8.22076 12.2517 8.12181 12.5008 8.12181C12.7499 8.12181 12.9887 8.22076 13.1648 8.39688C13.341 8.573 13.4399 8.81187 13.4399 9.06094C13.4399 9.31001 13.341 9.54888 13.1648 9.725L10.6648 12.225C10.5777 12.3124 10.4743 12.3817 10.3603 12.4291C10.2463 12.4764 10.1242 12.5007 10.0008 12.5007C9.87739 12.5007 9.75522 12.4764 9.64126 12.4291C9.52731 12.3817 9.42382 12.3124 9.33672 12.225L6.83672 9.72578Z" fill="#191F2E"/>
</svg>
