<svg width="20" height="20" viewBox="0 0 20 20" fill="none" xmlns="http://www.w3.org/2000/svg">
<path d="M17.7133 5.20547L16.4633 2.70547C16.3854 2.54983 16.2657 2.41895 16.1177 2.32746C15.9696 2.23598 15.799 2.18752 15.625 2.1875H4.375C4.20096 2.18752 4.03037 2.23598 3.88232 2.32746C3.73427 2.41895 3.6146 2.54983 3.53672 2.70547L2.28672 5.20547C2.22151 5.33571 2.18753 5.47935 2.1875 5.625V16.25C2.1875 16.6644 2.35212 17.0618 2.64515 17.3549C2.93817 17.6479 3.3356 17.8125 3.75 17.8125H16.25C16.6644 17.8125 17.0618 17.6479 17.3549 17.3549C17.6479 17.0618 17.8125 16.6644 17.8125 16.25V5.625C17.8125 5.47935 17.7785 5.33571 17.7133 5.20547ZM15.0453 4.0625L15.5141 5H4.48594L4.95469 4.0625H15.0453ZM4.0625 15.9375V6.875H15.9375V15.9375H4.0625ZM13.1633 10.8992C13.2507 10.9863 13.32 11.0898 13.3673 11.2038C13.4147 11.3177 13.439 11.4399 13.439 11.5633C13.439 11.6867 13.4147 11.8088 13.3673 11.9228C13.32 12.0368 13.2507 12.1402 13.1633 12.2273L10.6633 14.7273C10.5762 14.8147 10.4727 14.8841 10.3587 14.9314C10.2448 14.9787 10.1226 15.0031 9.99922 15.0031C9.87583 15.0031 9.75366 14.9787 9.6397 14.9314C9.52575 14.8841 9.42225 14.8147 9.33516 14.7273L6.83516 12.2273C6.65904 12.0512 6.56009 11.8124 6.56009 11.5633C6.56009 11.3142 6.65904 11.0753 6.83516 10.8992C7.01128 10.7231 7.25015 10.6242 7.49922 10.6242C7.74829 10.6242 7.98716 10.7231 8.16328 10.8992L9.0625 11.7969V8.75C9.0625 8.50136 9.16127 8.2629 9.33709 8.08709C9.5129 7.91127 9.75136 7.8125 10 7.8125C10.2486 7.8125 10.4871 7.91127 10.6629 8.08709C10.8387 8.2629 10.9375 8.50136 10.9375 8.75V11.7969L11.8367 10.8969C11.9239 10.8099 12.0275 10.7409 12.1414 10.6939C12.2552 10.6469 12.3773 10.6229 12.5005 10.6231C12.6237 10.6233 12.7456 10.6478 12.8594 10.6952C12.9731 10.7426 13.0764 10.8119 13.1633 10.8992Z" fill="#191F2E"/>
</svg>
