<svg width="20" height="20" viewBox="0 0 20 20" fill="none" xmlns="http://www.w3.org/2000/svg">
<path d="M16.25 2.5H3.75C3.41848 2.5 3.10054 2.6317 2.86612 2.86612C2.6317 3.10054 2.5 3.41848 2.5 3.75V16.25C2.5 16.5815 2.6317 16.8995 2.86612 17.1339C3.10054 17.3683 3.41848 17.5 3.75 17.5H16.25C16.5815 17.5 16.8995 17.3683 17.1339 17.1339C17.3683 16.8995 17.5 16.5815 17.5 16.25V3.75C17.5 3.41848 17.3683 3.10054 17.1339 2.86612C16.8995 2.6317 16.5815 2.5 16.25 2.5ZM7.05781 8.93281C7.11586 8.8747 7.18479 8.8286 7.26066 8.79715C7.33654 8.7657 7.41787 8.74951 7.5 8.74951C7.58213 8.74951 7.66346 8.7657 7.73934 8.79715C7.81521 8.8286 7.88414 8.8747 7.94219 8.93281L9.375 10.3664V5.625C9.375 5.45924 9.44085 5.30027 9.55806 5.18306C9.67527 5.06585 9.83424 5 10 5C10.1658 5 10.3247 5.06585 10.4419 5.18306C10.5592 5.30027 10.625 5.45924 10.625 5.625V10.3664L12.0578 8.93281C12.1159 8.87474 12.1848 8.82868 12.2607 8.79725C12.3366 8.76583 12.4179 8.74965 12.5 8.74965C12.5821 8.74965 12.6634 8.76583 12.7393 8.79725C12.8152 8.82868 12.8841 8.87474 12.9422 8.93281C13.0003 8.99088 13.0463 9.05982 13.0777 9.13569C13.1092 9.21156 13.1253 9.29288 13.1253 9.375C13.1253 9.45712 13.1092 9.53844 13.0777 9.61431C13.0463 9.69018 13.0003 9.75912 12.9422 9.81719L10.4422 12.3172C10.3841 12.3753 10.3152 12.4214 10.2393 12.4529C10.1635 12.4843 10.0821 12.5005 10 12.5005C9.91787 12.5005 9.83654 12.4843 9.76066 12.4529C9.68479 12.4214 9.61586 12.3753 9.55781 12.3172L7.05781 9.81719C6.9997 9.75914 6.9536 9.69021 6.92215 9.61434C6.8907 9.53846 6.87451 9.45713 6.87451 9.375C6.87451 9.29287 6.8907 9.21154 6.92215 9.13566C6.9536 9.05979 6.9997 8.99086 7.05781 8.93281ZM16.25 16.25H3.75V13.125H5.99141L7.5 14.6344C7.6158 14.7507 7.75351 14.8429 7.90518 14.9057C8.05685 14.9684 8.21945 15.0005 8.38359 15H11.6164C11.7806 15.0005 11.9433 14.9684 12.095 14.9055C12.2467 14.8426 12.3843 14.7502 12.5 14.6336L14.0086 13.125H16.25V16.25Z" fill="#191F2E"/>
</svg>
