<svg width="20" height="20" viewBox="0 0 20 20" fill="none" xmlns="http://www.w3.org/2000/svg">
<path d="M16.875 6.9375V5.625C16.875 4.7962 16.5458 4.00134 15.9597 3.41529C15.3737 2.82924 14.5788 2.5 13.75 2.5H6.25C5.4212 2.5 4.62634 2.82924 4.04029 3.41529C3.45424 4.00134 3.125 4.7962 3.125 5.625V6.9375C2.41857 7.08095 1.78345 7.46421 1.32726 8.02234C0.871075 8.58047 0.621868 9.27915 0.621868 10C0.621868 10.7208 0.871075 11.4195 1.32726 11.9777C1.78345 12.5358 2.41857 12.9191 3.125 13.0625V15.625C3.125 15.9565 3.2567 16.2745 3.49112 16.5089C3.72554 16.7433 4.04348 16.875 4.375 16.875H15.625C15.9565 16.875 16.2745 16.7433 16.5089 16.5089C16.7433 16.2745 16.875 15.9565 16.875 15.625V13.0625C17.5814 12.9191 18.2165 12.5358 18.6727 11.9777C19.1289 11.4195 19.3781 10.7208 19.3781 10C19.3781 9.27915 19.1289 8.58047 18.6727 8.02234C18.2165 7.46421 17.5814 7.08095 16.875 6.9375ZM6.25 3.75H13.75C14.2473 3.75 14.7242 3.94754 15.0758 4.29917C15.4275 4.65081 15.625 5.12772 15.625 5.625V6.9375C14.9196 7.08253 14.2858 7.46633 13.8304 8.02419C13.375 8.58205 13.1259 9.27986 13.125 10H6.875C6.87412 9.27986 6.62498 8.58205 6.16959 8.02419C5.71419 7.46633 5.08038 7.08253 4.375 6.9375V5.625C4.375 5.12772 4.57255 4.65081 4.92418 4.29917C5.27581 3.94754 5.75272 3.75 6.25 3.75ZM16.2805 11.875H16.25C16.0842 11.875 15.9253 11.9408 15.8081 12.0581C15.6908 12.1753 15.625 12.3342 15.625 12.5V15.625H4.375V12.5C4.375 12.3342 4.30915 12.1753 4.19194 12.0581C4.07473 11.9408 3.91576 11.875 3.75 11.875H3.71953C3.35005 11.869 2.99058 11.7539 2.68627 11.5443C2.38196 11.3347 2.14639 11.0398 2.00913 10.6967C1.87188 10.3536 1.83907 9.97757 1.91482 9.61589C1.99057 9.2542 2.17151 8.92296 2.4349 8.66378C2.6983 8.4046 3.03241 8.22902 3.39527 8.15911C3.75813 8.0892 4.13355 8.12807 4.47439 8.27083C4.81523 8.4136 5.10629 8.65389 5.311 8.96154C5.51571 9.26919 5.62495 9.63047 5.625 10V13.125C5.625 13.2908 5.69085 13.4497 5.80806 13.5669C5.92527 13.6842 6.08424 13.75 6.25 13.75C6.41576 13.75 6.57473 13.6842 6.69194 13.5669C6.80915 13.4497 6.875 13.2908 6.875 13.125V11.25H13.125V13.125C13.125 13.2908 13.1908 13.4497 13.3081 13.5669C13.4253 13.6842 13.5842 13.75 13.75 13.75C13.9158 13.75 14.0747 13.6842 14.1919 13.5669C14.3092 13.4497 14.375 13.2908 14.375 13.125V10C14.375 9.63047 14.4843 9.26919 14.689 8.96154C14.8937 8.65389 15.1848 8.4136 15.5256 8.27083C15.8664 8.12807 16.2419 8.0892 16.6047 8.15911C16.9676 8.22902 17.3017 8.4046 17.5651 8.66378C17.8285 8.92296 18.0094 9.2542 18.0852 9.61589C18.1609 9.97757 18.1281 10.3536 17.9909 10.6967C17.8536 11.0398 17.618 11.3347 17.3137 11.5443C17.0094 11.7539 16.65 11.869 16.2805 11.875Z" fill="#191F2E"/>
</svg>
