<svg width="20" height="20" viewBox="0 0 20 20" fill="none" xmlns="http://www.w3.org/2000/svg">
<path d="M17.1875 6.13516V5.625C17.1865 4.71364 16.824 3.83989 16.1795 3.19546C15.5351 2.55103 14.6614 2.18853 13.75 2.1875H6.25C5.33863 2.18853 4.46489 2.55103 3.82046 3.19546C3.17603 3.83989 2.81353 4.71364 2.8125 5.625V6.13516C1.99397 6.39857 1.28012 6.9149 0.773726 7.60984C0.267328 8.30478 -0.00550842 9.14247 -0.00550842 10.0023C-0.00550842 10.8622 0.267328 11.6999 0.773726 12.3948C1.28012 13.0898 1.99397 13.6061 2.8125 13.8695V15.625C2.8125 16.0394 2.97712 16.4368 3.27014 16.7299C3.56317 17.0229 3.9606 17.1875 4.375 17.1875H15.625C16.0394 17.1875 16.4368 17.0229 16.7299 16.7299C17.0229 16.4368 17.1875 16.0394 17.1875 15.625V13.868C18.006 13.6046 18.7199 13.0882 19.2263 12.3933C19.7327 11.6983 20.0055 10.8607 20.0055 10.0008C20.0055 9.14091 19.7327 8.30322 19.2263 7.60828C18.7199 6.91334 18.006 6.397 17.1875 6.13359V6.13516ZM6.25 4.0625H13.75C14.1644 4.0625 14.5618 4.22712 14.8549 4.52015C15.1479 4.81317 15.3125 5.2106 15.3125 5.625V5.98594C14.4087 6.12821 13.5793 6.57086 12.958 7.24246C12.3367 7.91406 11.9599 8.77541 11.8883 9.6875H8.11172C8.04012 8.77541 7.66327 7.91406 7.04199 7.24246C6.42072 6.57086 5.59126 6.12821 4.6875 5.98594V5.625C4.6875 5.2106 4.85212 4.81317 5.14514 4.52015C5.43817 4.22712 5.8356 4.0625 6.25 4.0625ZM16.157 12.1766C15.9256 12.1996 15.7111 12.3079 15.555 12.4802C15.3989 12.6526 15.3125 12.8768 15.3125 13.1094V15.3125H4.6875V13.1094C4.68748 12.8768 4.60105 12.6526 4.44498 12.4802C4.28891 12.3079 4.07435 12.1996 3.84297 12.1766C3.42182 12.1341 3.02204 11.9703 2.69212 11.7052C2.36219 11.44 2.11628 11.0848 1.98421 10.6826C1.85213 10.2805 1.83957 9.84866 1.94805 9.43952C2.05652 9.03037 2.28137 8.66148 2.59533 8.37758C2.90929 8.09369 3.29887 7.90698 3.71683 7.84009C4.1348 7.7732 4.56319 7.82902 4.95007 8.00076C5.33694 8.17251 5.66568 8.45281 5.89641 8.80767C6.12715 9.16253 6.24998 9.57672 6.25 10V12.8125C6.25 13.0611 6.34877 13.2996 6.52458 13.4754C6.7004 13.6512 6.93886 13.75 7.1875 13.75C7.43614 13.75 7.67459 13.6512 7.85041 13.4754C8.02623 13.2996 8.125 13.0611 8.125 12.8125V11.5625H11.875V12.8125C11.875 13.0611 11.9738 13.2996 12.1496 13.4754C12.3254 13.6512 12.5639 13.75 12.8125 13.75C13.0611 13.75 13.2996 13.6512 13.4754 13.4754C13.6512 13.2996 13.75 13.0611 13.75 12.8125V10C13.75 9.57672 13.8728 9.16253 14.1036 8.80767C14.3343 8.45281 14.6631 8.17251 15.0499 8.00076C15.4368 7.82902 15.8652 7.7732 16.2832 7.84009C16.7011 7.90698 17.0907 8.09369 17.4047 8.37758C17.7186 8.66148 17.9435 9.03037 18.0519 9.43952C18.1604 9.84866 18.1479 10.2805 18.0158 10.6826C17.8837 11.0848 17.6378 11.44 17.3079 11.7052C16.9779 11.9703 16.5782 12.1341 16.157 12.1766Z" fill="#191F2E"/>
</svg>
