<svg width="20" height="20" viewBox="0 0 20 20" fill="none" xmlns="http://www.w3.org/2000/svg">
<path d="M18.3664 10.2664C18.2955 10.095 18.1753 9.94854 18.0211 9.84549C17.8668 9.74245 17.6855 9.68746 17.5 9.6875H14.6875V6.25C14.6875 6.00136 14.5887 5.7629 14.4129 5.58709C14.2371 5.41127 13.9987 5.3125 13.75 5.3125H6.25002C6.00138 5.3125 5.76292 5.41127 5.58711 5.58709C5.41129 5.7629 5.31252 6.00136 5.31252 6.25V9.6875H2.50002C2.31456 9.68751 2.13327 9.74253 1.97908 9.84559C1.82489 9.94865 1.70474 10.0951 1.63382 10.2665C1.5629 10.4379 1.54439 10.6264 1.58065 10.8083C1.61691 10.9902 1.7063 11.1572 1.83752 11.2883L9.33752 18.7883C9.42461 18.8757 9.52811 18.945 9.64206 18.9923C9.75602 19.0397 9.87819 19.064 10.0016 19.064C10.125 19.064 10.2471 19.0397 10.3611 18.9923C10.4751 18.945 10.5785 18.8757 10.6656 18.7883L18.1656 11.2883C18.2964 11.1569 18.3852 10.9897 18.421 10.8078C18.4567 10.6259 18.4377 10.4375 18.3664 10.2664ZM10 16.7969L4.76564 11.5625H6.25002C6.49866 11.5625 6.73711 11.4637 6.91293 11.2879C7.08875 11.1121 7.18752 10.8736 7.18752 10.625V7.1875H12.8125V10.625C12.8125 10.8736 12.9113 11.1121 13.0871 11.2879C13.2629 11.4637 13.5014 11.5625 13.75 11.5625H15.2344L10 16.7969ZM5.31252 3.125C5.31252 2.87636 5.41129 2.6379 5.58711 2.46209C5.76292 2.28627 6.00138 2.1875 6.25002 2.1875H13.75C13.9987 2.1875 14.2371 2.28627 14.4129 2.46209C14.5887 2.6379 14.6875 2.87636 14.6875 3.125C14.6875 3.37364 14.5887 3.6121 14.4129 3.78791C14.2371 3.96373 13.9987 4.0625 13.75 4.0625H6.25002C6.00138 4.0625 5.76292 3.96373 5.58711 3.78791C5.41129 3.6121 5.31252 3.37364 5.31252 3.125Z" fill="#191F2E"/>
</svg>
