<svg width="20" height="20" viewBox="0 0 20 20" fill="none" xmlns="http://www.w3.org/2000/svg">
<path d="M14.375 5.625H10V2.5C10.0001 2.37632 9.9635 2.25539 9.89483 2.15252C9.82616 2.04964 9.72851 1.96946 9.61425 1.92211C9.49998 1.87477 9.37424 1.86239 9.25294 1.88655C9.13163 1.9107 9.02023 1.97031 8.93282 2.05782L1.43282 9.55782C1.37471 9.61586 1.32861 9.68479 1.29715 9.76067C1.2657 9.83654 1.24951 9.91787 1.24951 10C1.24951 10.0821 1.2657 10.1635 1.29715 10.2393C1.32861 10.3152 1.37471 10.3841 1.43282 10.4422L8.93282 17.9422C9.02023 18.0297 9.13163 18.0893 9.25294 18.1135C9.37424 18.1376 9.49998 18.1252 9.61425 18.0779C9.72851 18.0305 9.82616 17.9504 9.89483 17.8475C9.9635 17.7446 10.0001 17.6237 10 17.5V14.375H14.375C14.5408 14.375 14.6997 14.3092 14.8169 14.1919C14.9342 14.0747 15 13.9158 15 13.75V6.25C15 6.08424 14.9342 5.92527 14.8169 5.80806C14.6997 5.69085 14.5408 5.625 14.375 5.625ZM13.75 13.125H9.375C9.20924 13.125 9.05027 13.1909 8.93306 13.3081C8.81585 13.4253 8.75 13.5842 8.75 13.75V15.9914L2.7586 10L8.75 4.0086V6.25C8.75 6.41576 8.81585 6.57474 8.93306 6.69195C9.05027 6.80916 9.20924 6.875 9.375 6.875H13.75V13.125ZM17.5 6.25V13.75C17.5 13.9158 17.4342 14.0747 17.3169 14.1919C17.1997 14.3092 17.0408 14.375 16.875 14.375C16.7092 14.375 16.5503 14.3092 16.4331 14.1919C16.3159 14.0747 16.25 13.9158 16.25 13.75V6.25C16.25 6.08424 16.3159 5.92527 16.4331 5.80806C16.5503 5.69085 16.7092 5.625 16.875 5.625C17.0408 5.625 17.1997 5.69085 17.3169 5.80806C17.4342 5.92527 17.5 6.08424 17.5 6.25Z" fill="#191F2E"/>
</svg>
