<svg width="20" height="20" viewBox="0 0 20 20" fill="none" xmlns="http://www.w3.org/2000/svg">
<path d="M18.1633 13.7883L14.4133 17.5383C14.2372 17.7144 13.9983 17.8133 13.7492 17.8133C13.5001 17.8133 13.2613 17.7144 13.0852 17.5383C12.909 17.3622 12.8101 17.1233 12.8101 16.8742C12.8101 16.6251 12.909 16.3863 13.0852 16.2102L15.2344 14.0625H6.875C5.46604 14.0625 4.11478 13.5028 3.1185 12.5065C2.12221 11.5102 1.5625 10.159 1.5625 8.75C1.5625 7.34104 2.12221 5.98978 3.1185 4.9935C4.11478 3.99721 5.46604 3.4375 6.875 3.4375H13.75C13.9986 3.4375 14.2371 3.53627 14.4129 3.71209C14.5887 3.8879 14.6875 4.12636 14.6875 4.375C14.6875 4.62364 14.5887 4.8621 14.4129 5.03791C14.2371 5.21373 13.9986 5.3125 13.75 5.3125H6.875C5.96332 5.3125 5.08898 5.67466 4.44432 6.31932C3.79966 6.96398 3.4375 7.83832 3.4375 8.75C3.4375 9.66168 3.79966 10.536 4.44432 11.1807C5.08898 11.8253 5.96332 12.1875 6.875 12.1875H15.2344L13.0844 10.0383C12.9972 9.95108 12.928 9.84755 12.8808 9.73361C12.8336 9.61967 12.8093 9.49755 12.8093 9.37422C12.8093 9.25089 12.8336 9.12877 12.8808 9.01483C12.928 8.90089 12.9972 8.79736 13.0844 8.71016C13.1716 8.62295 13.2751 8.55377 13.389 8.50658C13.503 8.45938 13.6251 8.43509 13.7484 8.43509C13.8718 8.43509 13.9939 8.45938 14.1078 8.50658C14.2218 8.55377 14.3253 8.62295 14.4125 8.71016L18.1625 12.4602C18.2499 12.5472 18.3194 12.6507 18.3667 12.7646C18.4141 12.8785 18.4386 13.0007 18.4386 13.1241C18.4387 13.2474 18.4144 13.3696 18.3672 13.4836C18.3199 13.5976 18.2506 13.7011 18.1633 13.7883Z" fill="#191F2E"/>
</svg>
