<svg width="20" height="20" viewBox="0 0 20 20" fill="none" xmlns="http://www.w3.org/2000/svg">
<path d="M16.25 2.1875H3.75C3.3356 2.1875 2.93817 2.35212 2.64515 2.64515C2.35212 2.93817 2.1875 3.3356 2.1875 3.75V16.25C2.1875 16.6644 2.35212 17.0618 2.64515 17.3549C2.93817 17.6479 3.3356 17.8125 3.75 17.8125H16.25C16.6644 17.8125 17.0618 17.6479 17.3549 17.3549C17.6479 17.0618 17.8125 16.6644 17.8125 16.25V3.75C17.8125 3.3356 17.6479 2.93817 17.3549 2.64515C17.0618 2.35212 16.6644 2.1875 16.25 2.1875ZM15.9375 15.9375H4.0625V4.0625H15.9375V15.9375ZM6.83672 13.1633C6.74932 13.0762 6.67997 12.9727 6.63265 12.8587C6.58534 12.7448 6.56098 12.6226 6.56098 12.4992C6.56098 12.3758 6.58534 12.2537 6.63265 12.1397C6.67997 12.0257 6.74932 11.9223 6.83672 11.8352L10.2344 8.4375H8.75C8.50136 8.4375 8.2629 8.33873 8.08709 8.16291C7.91127 7.9871 7.8125 7.74864 7.8125 7.5C7.8125 7.25136 7.91127 7.0129 8.08709 6.83709C8.2629 6.66127 8.50136 6.5625 8.75 6.5625H12.5C12.7486 6.5625 12.9871 6.66127 13.1629 6.83709C13.3387 7.0129 13.4375 7.25136 13.4375 7.5V11.25C13.4375 11.4986 13.3387 11.7371 13.1629 11.9129C12.9871 12.0887 12.7486 12.1875 12.5 12.1875C12.2514 12.1875 12.0129 12.0887 11.8371 11.9129C11.6613 11.7371 11.5625 11.4986 11.5625 11.25V9.76562L8.16328 13.1656C8.07618 13.253 7.97269 13.3224 7.85874 13.3697C7.74478 13.417 7.62261 13.4414 7.49922 13.4414C7.37583 13.4414 7.25366 13.417 7.1397 13.3697C7.02575 13.3224 6.92225 13.253 6.83516 13.1656L6.83672 13.1633Z" fill="#191F2E"/>
</svg>
