<svg width="20" height="20" viewBox="0 0 20 20" fill="none" xmlns="http://www.w3.org/2000/svg">
<path d="M17.9422 8.56729L14.1922 12.3173C14.0749 12.4346 13.9159 12.5005 13.75 12.5005C13.5841 12.5005 13.4251 12.4346 13.3078 12.3173C13.1905 12.2 13.1247 12.041 13.1247 11.8751C13.1247 11.7093 13.1905 11.5502 13.3078 11.4329L15.9914 8.7501H10C8.17727 8.75217 6.42979 9.47716 5.14092 10.766C3.85206 12.0549 3.12707 13.8024 3.125 15.6251C3.125 15.7909 3.05915 15.9498 2.94194 16.067C2.82473 16.1843 2.66576 16.2501 2.5 16.2501C2.33424 16.2501 2.17527 16.1843 2.05806 16.067C1.94085 15.9498 1.875 15.7909 1.875 15.6251C1.87727 13.4709 2.73403 11.4056 4.25727 9.88237C5.78051 8.35913 7.84581 7.50238 10 7.5001H15.9914L13.3078 4.81729C13.2497 4.75922 13.2037 4.69028 13.1723 4.61441C13.1408 4.53854 13.1247 4.45723 13.1247 4.3751C13.1247 4.29298 13.1408 4.21166 13.1723 4.13579C13.2037 4.05992 13.2497 3.99098 13.3078 3.93292C13.4251 3.81564 13.5841 3.74976 13.75 3.74976C13.8321 3.74976 13.9134 3.76593 13.9893 3.79736C14.0652 3.82878 14.1341 3.87485 14.1922 3.93292L17.9422 7.68292C18.0003 7.74096 18.0464 7.80989 18.0779 7.88577C18.1093 7.96164 18.1255 8.04297 18.1255 8.1251C18.1255 8.20724 18.1093 8.28857 18.0779 8.36444C18.0464 8.44031 18.0003 8.50925 17.9422 8.56729Z" fill="#191F2E"/>
</svg>
