<svg width="20" height="20" viewBox="0 0 20 20" fill="none" xmlns="http://www.w3.org/2000/svg">
<path d="M18.1633 8.16329C18.0762 8.25069 17.9727 8.32004 17.8587 8.36735C17.7448 8.41467 17.6226 8.43903 17.4992 8.43903C17.3758 8.43903 17.2537 8.41467 17.1397 8.36735C17.0257 8.32004 16.9223 8.25069 16.8352 8.16329L14.6875 6.01563V15C14.6875 15.2486 14.5887 15.4871 14.4129 15.6629C14.2371 15.8387 13.9986 15.9375 13.75 15.9375H2.5C2.25136 15.9375 2.0129 15.8387 1.83709 15.6629C1.66127 15.4871 1.5625 15.2486 1.5625 15C1.5625 14.7514 1.66127 14.5129 1.83709 14.3371C2.0129 14.1613 2.25136 14.0625 2.5 14.0625H12.8125V6.01563L10.6633 8.16563C10.5761 8.25284 10.4725 8.32201 10.3586 8.36921C10.2447 8.4164 10.1225 8.4407 9.99922 8.4407C9.87589 8.4407 9.75377 8.4164 9.63983 8.36921C9.52589 8.32201 9.42236 8.25284 9.33516 8.16563C9.24795 8.07843 9.17877 7.9749 9.13158 7.86096C9.08438 7.74702 9.06009 7.6249 9.06009 7.50157C9.06009 7.37824 9.08438 7.25612 9.13158 7.14218C9.17877 7.02824 9.24795 6.92471 9.33516 6.83751L13.0852 3.08751C13.1723 3.00011 13.2757 2.93076 13.3897 2.88344C13.5037 2.83612 13.6258 2.81177 13.7492 2.81177C13.8726 2.81177 13.9948 2.83612 14.1087 2.88344C14.2227 2.93076 14.3262 3.00011 14.4133 3.08751L18.1633 6.83751C18.3391 7.01332 18.4378 7.25177 18.4378 7.5004C18.4378 7.74903 18.3391 7.98747 18.1633 8.16329Z" fill="#191F2E"/>
</svg>
