<svg width="20" height="20" viewBox="0 0 20 20" fill="none" xmlns="http://www.w3.org/2000/svg">
<path d="M17.5 6.875V13.125C17.5 13.4565 17.3683 13.7745 17.1339 14.0089C16.8995 14.2433 16.5815 14.375 16.25 14.375H10V17.5C10.0001 17.6237 9.9635 17.7446 9.89483 17.8475C9.82616 17.9504 9.72851 18.0305 9.61425 18.0779C9.49998 18.1252 9.37424 18.1376 9.25294 18.1135C9.13163 18.0893 9.02023 18.0297 8.93282 17.9422L1.43282 10.4422C1.37471 10.3841 1.32861 10.3152 1.29715 10.2393C1.2657 10.1635 1.24951 10.0821 1.24951 10C1.24951 9.91787 1.2657 9.83654 1.29715 9.76067C1.32861 9.68479 1.37471 9.61586 1.43282 9.55782L8.93282 2.05782C9.02023 1.97031 9.13163 1.9107 9.25294 1.88655C9.37424 1.86239 9.49998 1.87477 9.61425 1.92211C9.72851 1.96946 9.82616 2.04964 9.89483 2.15252C9.9635 2.25539 10.0001 2.37632 10 2.5V5.625H16.25C16.5815 5.625 16.8995 5.7567 17.1339 5.99112C17.3683 6.22554 17.5 6.54348 17.5 6.875Z" fill="#191F2E"/>
</svg>
