<svg width="20" height="20" viewBox="0 0 20 20" fill="none" xmlns="http://www.w3.org/2000/svg">
<path d="M10.9375 8.12502V5.00001C10.9375 4.75137 11.0363 4.51292 11.2121 4.3371C11.3879 4.16129 11.6264 4.06251 11.875 4.06251C12.1237 4.06251 12.3621 4.16129 12.5379 4.3371C12.7138 4.51292 12.8125 4.75137 12.8125 5.00001V5.85939L15.5867 3.08439C15.7629 2.90827 16.0017 2.80933 16.2508 2.80933C16.4999 2.80933 16.7387 2.90827 16.9149 3.08439C17.091 3.26051 17.1899 3.49938 17.1899 3.74845C17.1899 3.99752 17.091 4.23639 16.9149 4.41251L14.1407 7.18751H15C15.2487 7.18751 15.4871 7.28629 15.6629 7.4621C15.8388 7.63792 15.9375 7.87637 15.9375 8.12502C15.9375 8.37366 15.8388 8.61211 15.6629 8.78793C15.4871 8.96374 15.2487 9.06251 15 9.06252H11.875C11.6264 9.06251 11.3879 8.96374 11.2121 8.78793C11.0363 8.61211 10.9375 8.37366 10.9375 8.12502ZM8.12503 10.9375H5.00003C4.75139 10.9375 4.51293 11.0363 4.33711 11.2121C4.1613 11.3879 4.06253 11.6264 4.06253 11.875C4.06253 12.1237 4.1613 12.3621 4.33711 12.5379C4.51293 12.7137 4.75139 12.8125 5.00003 12.8125H5.8594L3.08675 15.5867C2.91063 15.7629 2.81168 16.0017 2.81168 16.2508C2.81168 16.4999 2.91063 16.7387 3.08675 16.9149C3.26287 17.091 3.50174 17.1899 3.75081 17.1899C3.99988 17.1899 4.23875 17.091 4.41487 16.9149L7.18753 14.1406V15C7.18753 15.2487 7.2863 15.4871 7.46211 15.6629C7.63793 15.8387 7.87639 15.9375 8.12503 15.9375C8.37367 15.9375 8.61212 15.8387 8.78794 15.6629C8.96376 15.4871 9.06253 15.2487 9.06253 15V11.875C9.06253 11.6264 8.96376 11.3879 8.78794 11.2121C8.61212 11.0363 8.37367 10.9375 8.12503 10.9375ZM14.1407 12.8125H15C15.2487 12.8125 15.4871 12.7137 15.6629 12.5379C15.8388 12.3621 15.9375 12.1237 15.9375 11.875C15.9375 11.6264 15.8388 11.3879 15.6629 11.2121C15.4871 11.0363 15.2487 10.9375 15 10.9375H11.875C11.6264 10.9375 11.3879 11.0363 11.2121 11.2121C11.0363 11.3879 10.9375 11.6264 10.9375 11.875V15C10.9375 15.2487 11.0363 15.4871 11.2121 15.6629C11.3879 15.8387 11.6264 15.9375 11.875 15.9375C12.1237 15.9375 12.3621 15.8387 12.5379 15.6629C12.7138 15.4871 12.8125 15.2487 12.8125 15V14.1406L15.5867 16.9156C15.7629 17.0918 16.0017 17.1907 16.2508 17.1907C16.4999 17.1907 16.7387 17.0918 16.9149 16.9156C17.091 16.7395 17.1899 16.5006 17.1899 16.2516C17.1899 16.0025 17.091 15.7636 16.9149 15.5875L14.1407 12.8125ZM8.12503 4.06251C7.87639 4.06251 7.63793 4.16129 7.46211 4.3371C7.2863 4.51292 7.18753 4.75137 7.18753 5.00001V5.85939L4.41331 3.08673C4.23719 2.91061 3.99832 2.81167 3.74925 2.81167C3.50017 2.81167 3.2613 2.91061 3.08518 3.08673C2.90906 3.26285 2.81012 3.50172 2.81012 3.7508C2.81012 3.99987 2.90906 4.23874 3.08518 4.41486L5.8594 7.18751H5.00003C4.75139 7.18751 4.51293 7.28629 4.33711 7.4621C4.1613 7.63792 4.06253 7.87637 4.06253 8.12502C4.06253 8.37366 4.1613 8.61211 4.33711 8.78793C4.51293 8.96374 4.75139 9.06252 5.00003 9.06252H8.12503C8.37367 9.06251 8.61212 8.96374 8.78794 8.78793C8.96376 8.61211 9.06253 8.37366 9.06253 8.12502V5.00001C9.06253 4.75137 8.96376 4.51292 8.78794 4.3371C8.61212 4.16129 8.37367 4.06251 8.12503 4.06251Z" fill="#191F2E"/>
</svg>
