<svg width="20" height="20" viewBox="0 0 20 20" fill="none" xmlns="http://www.w3.org/2000/svg">
<path d="M16.25 2.5C16.25 2.66576 16.1842 2.82473 16.067 2.94194C15.9497 3.05915 15.7908 3.125 15.625 3.125C13.8023 3.12707 12.0548 3.85206 10.7659 5.14092C9.47707 6.42979 8.75208 8.17727 8.75001 10V15.9914L11.4328 13.3078C11.5501 13.1905 11.7092 13.1247 11.875 13.1247C12.0409 13.1247 12.1999 13.1905 12.3172 13.3078C12.4345 13.4251 12.5004 13.5841 12.5004 13.75C12.5004 13.9159 12.4345 14.0749 12.3172 14.1922L8.5672 17.9422C8.50915 18.0003 8.44022 18.0464 8.36435 18.0779C8.28848 18.1093 8.20715 18.1255 8.12501 18.1255C8.04288 18.1255 7.96155 18.1093 7.88567 18.0779C7.8098 18.0464 7.74087 18.0003 7.68282 17.9422L3.93282 14.1922C3.87476 14.1341 3.82869 14.0652 3.79727 13.9893C3.76584 13.9134 3.74966 13.8321 3.74966 13.75C3.74966 13.6679 3.76584 13.5866 3.79727 13.5107C3.82869 13.4348 3.87476 13.3659 3.93282 13.3078C4.0501 13.1905 4.20916 13.1247 4.37501 13.1247C4.45713 13.1247 4.53845 13.1408 4.61432 13.1723C4.69019 13.2037 4.75913 13.2497 4.8172 13.3078L7.50001 15.9914V10C7.50229 7.84581 8.35904 5.78051 9.88228 4.25727C11.4055 2.73403 13.4708 1.87727 15.625 1.875C15.7908 1.875 15.9497 1.94085 16.067 2.05806C16.1842 2.17527 16.25 2.33424 16.25 2.5Z" fill="#191F2E"/>
</svg>
