<svg width="20" height="20" viewBox="0 0 20 20" fill="none" xmlns="http://www.w3.org/2000/svg">
<path d="M3.71172 8.78828C3.5356 8.61216 3.43666 8.37329 3.43666 8.12422C3.43666 7.87515 3.5356 7.63628 3.71172 7.46016C3.88784 7.28404 4.12671 7.18509 4.37578 7.18509C4.62485 7.18509 4.86372 7.28404 5.03984 7.46016L9.0625 11.4844V2.5C9.0625 2.25136 9.16127 2.0129 9.33709 1.83709C9.5129 1.66127 9.75136 1.5625 10 1.5625C10.2486 1.5625 10.4871 1.66127 10.6629 1.83709C10.8387 2.0129 10.9375 2.25136 10.9375 2.5V11.4844L14.9617 7.45938C15.1378 7.28326 15.3767 7.18431 15.6258 7.18431C15.8749 7.18431 16.1137 7.28326 16.2898 7.45938C16.466 7.6355 16.5649 7.87437 16.5649 8.12344C16.5649 8.37251 16.466 8.61138 16.2898 8.7875L10.6648 14.4125C10.5777 14.4999 10.4743 14.5692 10.3603 14.6166C10.2463 14.6639 10.1242 14.6882 10.0008 14.6882C9.87739 14.6882 9.75522 14.6639 9.64126 14.6166C9.52731 14.5692 9.42382 14.4999 9.33672 14.4125L3.71172 8.78828ZM16.875 15.9375H3.125C2.87636 15.9375 2.6379 16.0363 2.46209 16.2121C2.28627 16.3879 2.1875 16.6264 2.1875 16.875C2.1875 17.1236 2.28627 17.3621 2.46209 17.5379C2.6379 17.7137 2.87636 17.8125 3.125 17.8125H16.875C17.1236 17.8125 17.3621 17.7137 17.5379 17.5379C17.7137 17.3621 17.8125 17.1236 17.8125 16.875C17.8125 16.6264 17.7137 16.3879 17.5379 16.2121C17.3621 16.0363 17.1236 15.9375 16.875 15.9375Z" fill="#191F2E"/>
</svg>
