<svg width="20" height="20" viewBox="0 0 20 20" fill="none" xmlns="http://www.w3.org/2000/svg">
<path d="M17.5 10C17.5 10.1658 17.4342 10.3247 17.3169 10.4419C17.1997 10.5592 17.0408 10.625 16.875 10.625H3.125C2.95924 10.625 2.80027 10.5592 2.68306 10.4419C2.56585 10.3247 2.5 10.1658 2.5 10C2.5 9.83424 2.56585 9.67527 2.68306 9.55806C2.80027 9.44085 2.95924 9.375 3.125 9.375H16.875C17.0408 9.375 17.1997 9.44085 17.3169 9.55806C17.4342 9.67527 17.5 9.83424 17.5 10ZM9.55781 7.94219C9.61586 8.0003 9.68479 8.0464 9.76066 8.07785C9.83654 8.1093 9.91787 8.12549 10 8.12549C10.0821 8.12549 10.1635 8.1093 10.2393 8.07785C10.3152 8.0464 10.3841 8.0003 10.4422 7.94219L12.9422 5.44219C13.0595 5.32491 13.1253 5.16585 13.1253 5C13.1253 4.83415 13.0595 4.67509 12.9422 4.55781C12.8249 4.44054 12.6659 4.37465 12.5 4.37465C12.3341 4.37465 12.1751 4.44054 12.0578 4.55781L10.625 5.99141V1.25C10.625 1.08424 10.5592 0.925268 10.4419 0.808058C10.3247 0.690848 10.1658 0.625 10 0.625C9.83424 0.625 9.67527 0.690848 9.55806 0.808058C9.44085 0.925268 9.375 1.08424 9.375 1.25V5.99141L7.94219 4.55781C7.88412 4.49974 7.81518 4.45368 7.73931 4.42225C7.66344 4.39083 7.58212 4.37465 7.5 4.37465C7.33415 4.37465 7.17509 4.44054 7.05781 4.55781C6.99974 4.61588 6.95368 4.68482 6.92225 4.76069C6.89083 4.83656 6.87465 4.91788 6.87465 5C6.87465 5.16585 6.94054 5.32491 7.05781 5.44219L9.55781 7.94219ZM10.4422 12.0578C10.3841 11.9997 10.3152 11.9536 10.2393 11.9221C10.1635 11.8907 10.0821 11.8745 10 11.8745C9.91787 11.8745 9.83654 11.8907 9.76066 11.9221C9.68479 11.9536 9.61586 11.9997 9.55781 12.0578L7.05781 14.5578C6.99974 14.6159 6.95368 14.6848 6.92225 14.7607C6.89083 14.8366 6.87465 14.9179 6.87465 15C6.87465 15.0821 6.89083 15.1634 6.92225 15.2393C6.95368 15.3152 6.99974 15.3841 7.05781 15.4422C7.17509 15.5595 7.33415 15.6253 7.5 15.6253C7.58212 15.6253 7.66344 15.6092 7.73931 15.5777C7.81518 15.5463 7.88412 15.5003 7.94219 15.4422L9.375 14.0086V18.75C9.375 18.9158 9.44085 19.0747 9.55806 19.1919C9.67527 19.3092 9.83424 19.375 10 19.375C10.1658 19.375 10.3247 19.3092 10.4419 19.1919C10.5592 19.0747 10.625 18.9158 10.625 18.75V14.0086L12.0578 15.4422C12.1159 15.5003 12.1848 15.5463 12.2607 15.5777C12.3366 15.6092 12.4179 15.6253 12.5 15.6253C12.5821 15.6253 12.6634 15.6092 12.7393 15.5777C12.8152 15.5463 12.8841 15.5003 12.9422 15.4422C13.0003 15.3841 13.0463 15.3152 13.0777 15.2393C13.1092 15.1634 13.1253 15.0821 13.1253 15C13.1253 14.9179 13.1092 14.8366 13.0777 14.7607C13.0463 14.6848 13.0003 14.6159 12.9422 14.5578L10.4422 12.0578Z" fill="#191F2E"/>
</svg>
