<svg width="20" height="20" viewBox="0 0 20 20" fill="none" xmlns="http://www.w3.org/2000/svg">
<path d="M18.0773 10.3859C18.0301 10.2717 17.95 10.1741 17.8472 10.1054C17.7444 10.0367 17.6236 10 17.5 10H14.375V3.75C14.375 3.41848 14.2433 3.10054 14.0089 2.86612C13.7745 2.6317 13.4565 2.5 13.125 2.5H6.875C6.54348 2.5 6.22554 2.6317 5.99112 2.86612C5.7567 3.10054 5.625 3.41848 5.625 3.75V10H2.5C2.37632 9.9999 2.25539 10.0365 2.15252 10.1052C2.04964 10.1738 1.96946 10.2715 1.92211 10.3858C1.87477 10.5 1.86239 10.6258 1.88655 10.7471C1.9107 10.8684 1.97031 10.9798 2.05782 11.0672L9.55782 18.5672C9.61586 18.6253 9.68479 18.6714 9.76067 18.7029C9.83654 18.7343 9.91787 18.7505 10 18.7505C10.0821 18.7505 10.1635 18.7343 10.2393 18.7029C10.3152 18.6714 10.3841 18.6253 10.4422 18.5672L17.9422 11.0672C18.0296 10.9797 18.0891 10.8683 18.1131 10.7471C18.1372 10.6258 18.1247 10.5001 18.0773 10.3859ZM10 17.2414L4.0086 11.25H6.25C6.41576 11.25 6.57474 11.1842 6.69195 11.0669C6.80916 10.9497 6.875 10.7908 6.875 10.625V3.75H13.125V10.625C13.125 10.7908 13.1909 10.9497 13.3081 11.0669C13.4253 11.1842 13.5842 11.25 13.75 11.25H15.9914L10 17.2414Z" fill="#191F2E"/>
</svg>
