<svg width="20" height="20" viewBox="0 0 20 20" fill="none" xmlns="http://www.w3.org/2000/svg">
<path d="M16.0672 11.6922L10.4422 17.3172C10.3841 17.3753 10.3152 17.4214 10.2393 17.4529C10.1635 17.4843 10.0821 17.5005 10 17.5005C9.91787 17.5005 9.83654 17.4843 9.76067 17.4529C9.68479 17.4214 9.61586 17.3753 9.55782 17.3172L3.93282 11.6922C3.84531 11.6048 3.7857 11.4934 3.76155 11.3721C3.73739 11.2508 3.74977 11.125 3.79711 11.0108C3.84446 10.8965 3.92464 10.7988 4.02752 10.7302C4.13039 10.6615 4.25132 10.6249 4.375 10.625H9.375V3.125C9.375 2.95924 9.44085 2.80027 9.55806 2.68306C9.67527 2.56585 9.83424 2.5 10 2.5C10.1658 2.5 10.3247 2.56585 10.4419 2.68306C10.5592 2.80027 10.625 2.95924 10.625 3.125V10.625H15.625C15.7487 10.6249 15.8696 10.6615 15.9725 10.7302C16.0754 10.7988 16.1555 10.8965 16.2029 11.0108C16.2502 11.125 16.2626 11.2508 16.2385 11.3721C16.2143 11.4934 16.1547 11.6048 16.0672 11.6922Z" fill="#191F2E"/>
</svg>
