<svg width="20" height="20" viewBox="0 0 20 20" fill="none" xmlns="http://www.w3.org/2000/svg">
<path d="M18.125 4.375C18.1227 6.52919 17.266 8.59449 15.7427 10.1177C14.2195 11.641 12.1542 12.4977 10 12.5H6.875V15.625C6.8751 15.7487 6.8385 15.8696 6.76983 15.9725C6.70116 16.0754 6.60351 16.1555 6.48925 16.2029C6.37498 16.2502 6.24924 16.2626 6.12794 16.2385C6.00663 16.2143 5.89523 16.1547 5.80782 16.0672L2.05782 12.3172C1.99971 12.2591 1.95361 12.1902 1.92215 12.1143C1.8907 12.0385 1.87451 11.9571 1.87451 11.875C1.87451 11.7929 1.8907 11.7115 1.92215 11.6357C1.95361 11.5598 1.99971 11.4909 2.05782 11.4328L5.80782 7.68281C5.89523 7.59531 6.00663 7.5357 6.12794 7.51154C6.24924 7.48739 6.37498 7.49977 6.48925 7.54711C6.60351 7.59446 6.70116 7.67464 6.76983 7.77751C6.8385 7.88038 6.8751 8.00132 6.875 8.125V11.25H10C11.8227 11.2479 13.5702 10.5229 14.8591 9.23408C16.1479 7.94521 16.8729 6.19773 16.875 4.375C16.875 4.20924 16.9409 4.05027 17.0581 3.93306C17.1753 3.81585 17.3342 3.75 17.5 3.75C17.6658 3.75 17.8247 3.81585 17.9419 3.93306C18.0592 4.05027 18.125 4.20924 18.125 4.375Z" fill="#191F2E"/>
</svg>
