<svg width="20" height="20" viewBox="0 0 20 20" fill="none" xmlns="http://www.w3.org/2000/svg">
<path d="M11.25 8.12498V4.99998C11.2499 4.8763 11.2865 4.75536 11.3552 4.65249C11.4238 4.54962 11.5215 4.46944 11.6357 4.42209C11.75 4.37475 11.8757 4.36237 11.997 4.38653C12.1184 4.41068 12.2298 4.47029 12.3172 4.55779L13.4375 5.67889L15.8078 3.30779C15.9251 3.19052 16.0841 3.12463 16.25 3.12463C16.4158 3.12463 16.5749 3.19052 16.6922 3.30779C16.8094 3.42507 16.8753 3.58413 16.8753 3.74998C16.8753 3.91583 16.8094 4.07489 16.6922 4.19217L14.3211 6.56248L15.4422 7.68279C15.5297 7.7702 15.5893 7.88161 15.6134 8.00291C15.6376 8.12422 15.6252 8.24996 15.5779 8.36423C15.5305 8.47849 15.4503 8.57614 15.3475 8.64481C15.2446 8.71348 15.1237 8.75008 15 8.74998H11.875C11.7092 8.74998 11.5502 8.68413 11.433 8.56692C11.3158 8.44971 11.25 8.29074 11.25 8.12498ZM8.12498 11.25H4.99998C4.8763 11.2499 4.75536 11.2865 4.65249 11.3552C4.54962 11.4238 4.46944 11.5215 4.42209 11.6357C4.37475 11.75 4.36237 11.8757 4.38653 11.997C4.41068 12.1184 4.47029 12.2298 4.55779 12.3172L5.67889 13.4375L3.30779 15.8078C3.19052 15.9251 3.12463 16.0841 3.12463 16.25C3.12463 16.4158 3.19052 16.5749 3.30779 16.6922C3.42507 16.8094 3.58413 16.8753 3.74998 16.8753C3.91583 16.8753 4.07489 16.8094 4.19217 16.6922L6.56248 14.3211L7.68279 15.4422C7.7702 15.5297 7.88161 15.5893 8.00291 15.6134C8.12422 15.6376 8.24996 15.6252 8.36423 15.5779C8.47849 15.5305 8.57614 15.4503 8.64481 15.3475C8.71348 15.2446 8.75008 15.1237 8.74998 15V11.875C8.74998 11.7092 8.68413 11.5502 8.56692 11.433C8.44971 11.3158 8.29074 11.25 8.12498 11.25ZM8.36404 4.42264C8.24985 4.37526 8.12418 4.36282 8.00292 4.38688C7.88165 4.41093 7.77025 4.47041 7.68279 4.55779L6.56248 5.67889L4.19217 3.30779C4.07489 3.19052 3.91583 3.12463 3.74998 3.12463C3.58413 3.12463 3.42507 3.19052 3.30779 3.30779C3.19052 3.42507 3.12463 3.58413 3.12463 3.74998C3.12463 3.91583 3.19052 4.07489 3.30779 4.19217L5.67889 6.56248L4.55779 7.68279C4.47029 7.7702 4.41068 7.88161 4.38653 8.00291C4.36237 8.12422 4.37475 8.24996 4.42209 8.36423C4.46944 8.47849 4.54962 8.57614 4.65249 8.64481C4.75536 8.71348 4.8763 8.75008 4.99998 8.74998H8.12498C8.29074 8.74998 8.44971 8.68413 8.56692 8.56692C8.68413 8.44971 8.74998 8.29074 8.74998 8.12498V4.99998C8.74996 4.87637 8.71328 4.75554 8.64458 4.65277C8.57588 4.55001 8.47826 4.46992 8.36404 4.42264ZM14.3211 13.4375L15.4422 12.3172C15.5297 12.2298 15.5893 12.1184 15.6134 11.997C15.6376 11.8757 15.6252 11.75 15.5779 11.6357C15.5305 11.5215 15.4503 11.4238 15.3475 11.3552C15.2446 11.2865 15.1237 11.2499 15 11.25H11.875C11.7092 11.25 11.5502 11.3158 11.433 11.433C11.3158 11.5502 11.25 11.7092 11.25 11.875V15C11.2499 15.1237 11.2865 15.2446 11.3552 15.3475C11.4238 15.4503 11.5215 15.5305 11.6357 15.5779C11.75 15.6252 11.8757 15.6376 11.997 15.6134C12.1184 15.5893 12.2298 15.5297 12.3172 15.4422L13.4375 14.3211L15.8078 16.6922C15.8659 16.7502 15.9348 16.7963 16.0107 16.8277C16.0865 16.8592 16.1679 16.8753 16.25 16.8753C16.3321 16.8753 16.4134 16.8592 16.4893 16.8277C16.5652 16.7963 16.6341 16.7502 16.6922 16.6922C16.7502 16.6341 16.7963 16.5652 16.8277 16.4893C16.8592 16.4134 16.8753 16.3321 16.8753 16.25C16.8753 16.1679 16.8592 16.0865 16.8277 16.0107C16.7963 15.9348 16.7502 15.8659 16.6922 15.8078L14.3211 13.4375Z" fill="#191F2E"/>
</svg>
