<svg width="20" height="20" viewBox="0 0 20 20" fill="none" xmlns="http://www.w3.org/2000/svg">
<path d="M18.125 15.6251C18.125 15.7909 18.0592 15.9498 17.9419 16.067C17.8247 16.1843 17.6658 16.2501 17.5 16.2501C17.3342 16.2501 17.1753 16.1843 17.0581 16.067C16.9409 15.9498 16.875 15.7909 16.875 15.6251C16.8729 13.8024 16.1479 12.0549 14.8591 10.766C13.5702 9.47716 11.8227 8.75217 10 8.7501H4.0086L6.69219 11.4329C6.80947 11.5502 6.87535 11.7093 6.87535 11.8751C6.87535 12.041 6.80947 12.2 6.69219 12.3173C6.57492 12.4346 6.41586 12.5005 6.25 12.5005C6.08415 12.5005 5.92509 12.4346 5.80782 12.3173L2.05782 8.56729C1.99971 8.50925 1.95361 8.44031 1.92215 8.36444C1.8907 8.28857 1.87451 8.20724 1.87451 8.1251C1.87451 8.04297 1.8907 7.96164 1.92215 7.88577C1.95361 7.80989 1.99971 7.74096 2.05782 7.68292L5.80782 3.93292C5.92509 3.81564 6.08415 3.74976 6.25 3.74976C6.41586 3.74976 6.57492 3.81564 6.69219 3.93292C6.80947 4.05019 6.87535 4.20925 6.87535 4.3751C6.87535 4.54096 6.80947 4.70002 6.69219 4.81729L4.0086 7.5001H10C12.1542 7.50238 14.2195 8.35913 15.7427 9.88237C17.266 11.4056 18.1227 13.4709 18.125 15.6251Z" fill="#191F2E"/>
</svg>
