<svg width="20" height="20" viewBox="0 0 20 20" fill="none" xmlns="http://www.w3.org/2000/svg">
<path d="M6.83672 5.66328C6.6606 5.48716 6.56165 5.24829 6.56166 4.99922C6.56166 4.75015 6.6606 4.51128 6.83672 4.33516C7.01284 4.15904 7.25171 4.06009 7.50078 4.06009C7.74985 4.06009 7.98872 4.15904 8.16484 4.33516L9.0625 5.23438V1.875C9.0625 1.62636 9.16127 1.3879 9.33709 1.21209C9.5129 1.03627 9.75136 0.9375 10 0.9375C10.2486 0.9375 10.4871 1.03627 10.6629 1.21209C10.8387 1.3879 10.9375 1.62636 10.9375 1.875V5.23438L11.8367 4.33437C12.0128 4.15825 12.2517 4.05931 12.5008 4.05931C12.7499 4.05931 12.9887 4.15825 13.1648 4.33437C13.341 4.5105 13.4399 4.74937 13.4399 4.99844C13.4399 5.24751 13.341 5.48638 13.1648 5.6625L10.6648 8.1625C10.5777 8.2499 10.4743 8.31925 10.3603 8.36656C10.2463 8.41388 10.1242 8.43824 10.0008 8.43824C9.87739 8.43824 9.75522 8.41388 9.64126 8.36656C9.52731 8.31925 9.42382 8.2499 9.33672 8.1625L6.83672 5.66328ZM10.6648 11.8352C10.5777 11.7478 10.4743 11.6784 10.3603 11.6311C10.2463 11.5838 10.1242 11.5594 10.0008 11.5594C9.87739 11.5594 9.75522 11.5838 9.64126 11.6311C9.52731 11.6784 9.42382 11.7478 9.33672 11.8352L6.83672 14.3352C6.74951 14.4224 6.68034 14.5259 6.63314 14.6398C6.58595 14.7538 6.56166 14.8759 6.56166 14.9992C6.56166 15.2483 6.6606 15.4872 6.83672 15.6633C7.01284 15.8394 7.25171 15.9383 7.50078 15.9383C7.74985 15.9383 7.98872 15.8394 8.16484 15.6633L9.0625 14.7656V18.125C9.0625 18.3736 9.16127 18.6121 9.33709 18.7879C9.5129 18.9637 9.75136 19.0625 10 19.0625C10.2486 19.0625 10.4871 18.9637 10.6629 18.7879C10.8387 18.6121 10.9375 18.3736 10.9375 18.125V14.7656L11.8367 15.6656C12.0128 15.8417 12.2517 15.9407 12.5008 15.9407C12.7499 15.9407 12.9887 15.8417 13.1648 15.6656C13.341 15.4895 13.4399 15.2506 13.4399 15.0016C13.4399 14.7525 13.341 14.5136 13.1648 14.3375L10.6648 11.8352ZM18.125 9.0625H14.7656L15.6656 8.16328C15.8417 7.98716 15.9407 7.74829 15.9407 7.49922C15.9407 7.25015 15.8417 7.01128 15.6656 6.83516C15.4895 6.65904 15.2506 6.56009 15.0016 6.56009C14.7525 6.56009 14.5136 6.65904 14.3375 6.83516L11.8375 9.33516C11.7501 9.42225 11.6808 9.52575 11.6334 9.6397C11.5861 9.75366 11.5618 9.87583 11.5618 9.99922C11.5618 10.1226 11.5861 10.2448 11.6334 10.3587C11.6808 10.4727 11.7501 10.5762 11.8375 10.6633L14.3375 13.1633C14.5136 13.3394 14.7525 13.4383 15.0016 13.4383C15.2506 13.4383 15.4895 13.3394 15.6656 13.1633C15.8417 12.9872 15.9407 12.7483 15.9407 12.4992C15.9407 12.2501 15.8417 12.0113 15.6656 11.8352L14.7656 10.9375H18.125C18.3736 10.9375 18.6121 10.8387 18.7879 10.6629C18.9637 10.4871 19.0625 10.2486 19.0625 10C19.0625 9.75136 18.9637 9.5129 18.7879 9.33709C18.6121 9.16127 18.3736 9.0625 18.125 9.0625ZM8.16328 9.33672L5.66328 6.83672C5.48716 6.6606 5.24829 6.56165 4.99922 6.56166C4.75015 6.56166 4.51128 6.6606 4.33516 6.83672C4.15904 7.01284 4.06009 7.25171 4.06009 7.50078C4.06009 7.74985 4.15904 7.98872 4.33516 8.16484L5.23438 9.0625H1.875C1.62636 9.0625 1.3879 9.16127 1.21209 9.33709C1.03627 9.5129 0.9375 9.75136 0.9375 10C0.9375 10.2486 1.03627 10.4871 1.21209 10.6629C1.3879 10.8387 1.62636 10.9375 1.875 10.9375H5.23438L4.33672 11.8367C4.24951 11.9239 4.18034 12.0275 4.13314 12.1414C4.08595 12.2553 4.06166 12.3775 4.06166 12.5008C4.06166 12.7499 4.1606 12.9887 4.33672 13.1648C4.51284 13.341 4.75171 13.4399 5.00078 13.4399C5.24985 13.4399 5.48872 13.341 5.66484 13.1648L8.16484 10.6648C8.25214 10.5776 8.32137 10.4741 8.36855 10.3601C8.41573 10.246 8.43995 10.1238 8.4398 10.0005C8.43966 9.87707 8.41516 9.75492 8.3677 9.64102C8.32025 9.52712 8.25078 9.42371 8.16328 9.33672Z" fill="#191F2E"/>
</svg>
