<svg width="20" height="20" viewBox="0 0 20 20" fill="none" xmlns="http://www.w3.org/2000/svg">
<path d="M3.93281 9.19219C3.84531 9.10478 3.7857 8.99337 3.76154 8.87207C3.73739 8.75076 3.74977 8.62502 3.79711 8.51076C3.84446 8.39649 3.92464 8.29884 4.02751 8.23018C4.13038 8.16151 4.25132 8.1249 4.375 8.125H9.375V2.5C9.375 2.33424 9.44085 2.17527 9.55806 2.05806C9.67527 1.94085 9.83424 1.875 10 1.875C10.1658 1.875 10.3247 1.94085 10.4419 2.05806C10.5592 2.17527 10.625 2.33424 10.625 2.5V8.125H15.625C15.7487 8.1249 15.8696 8.16151 15.9725 8.23018C16.0754 8.29884 16.1555 8.39649 16.2029 8.51076C16.2502 8.62502 16.2626 8.75076 16.2385 8.87207C16.2143 8.99337 16.1547 9.10478 16.0672 9.19219L10.4422 14.8172C10.3841 14.8753 10.3152 14.9214 10.2393 14.9529C10.1635 14.9843 10.0821 15.0005 10 15.0005C9.91787 15.0005 9.83654 14.9843 9.76066 14.9529C9.68479 14.9214 9.61586 14.8753 9.55781 14.8172L3.93281 9.19219ZM16.875 16.25H3.125C2.95924 16.25 2.80027 16.3158 2.68306 16.4331C2.56585 16.5503 2.5 16.7092 2.5 16.875C2.5 17.0408 2.56585 17.1997 2.68306 17.3169C2.80027 17.4342 2.95924 17.5 3.125 17.5H16.875C17.0408 17.5 17.1997 17.4342 17.3169 17.3169C17.4342 17.1997 17.5 17.0408 17.5 16.875C17.5 16.7092 17.4342 16.5503 17.3169 16.4331C17.1997 16.3158 17.0408 16.25 16.875 16.25Z" fill="#191F2E"/>
</svg>
