<svg width="20" height="20" viewBox="0 0 20 20" fill="none" xmlns="http://www.w3.org/2000/svg">
<path d="M5.80781 13.5672C5.7497 13.5091 5.7036 13.4402 5.67215 13.3643C5.6407 13.2885 5.62451 13.2071 5.62451 13.125C5.62451 13.0429 5.6407 12.9615 5.67215 12.8857C5.7036 12.8098 5.7497 12.7409 5.80781 12.6828L10.3664 8.125L7.05781 4.81719C6.9703 4.72978 6.9107 4.61837 6.88654 4.49707C6.86239 4.37576 6.87477 4.25002 6.92211 4.13576C6.96946 4.02149 7.04964 3.92384 7.15251 3.85517C7.25538 3.78651 7.37632 3.7499 7.5 3.75H15C15.1658 3.75 15.3247 3.81585 15.4419 3.93306C15.5592 4.05027 15.625 4.20924 15.625 4.375V11.875C15.6251 11.9987 15.5885 12.1196 15.5198 12.2225C15.4512 12.3254 15.3535 12.4055 15.2392 12.4529C15.125 12.5002 14.9992 12.5126 14.8779 12.4885C14.7566 12.4643 14.6452 12.4047 14.5578 12.3172L11.25 9.00859L6.69219 13.5672C6.63414 13.6253 6.56521 13.6714 6.48934 13.7029C6.41346 13.7343 6.33213 13.7505 6.25 13.7505C6.16787 13.7505 6.08654 13.7343 6.01066 13.7029C5.93479 13.6714 5.86586 13.6253 5.80781 13.5672ZM16.875 16.25H3.125C2.95924 16.25 2.80027 16.3158 2.68306 16.4331C2.56585 16.5503 2.5 16.7092 2.5 16.875C2.5 17.0408 2.56585 17.1997 2.68306 17.3169C2.80027 17.4342 2.95924 17.5 3.125 17.5H16.875C17.0408 17.5 17.1997 17.4342 17.3169 17.3169C17.4342 17.1997 17.5 17.0408 17.5 16.875C17.5 16.7092 17.4342 16.5503 17.3169 16.4331C17.1997 16.3158 17.0408 16.25 16.875 16.25Z" fill="#191F2E"/>
</svg>
