<svg width="20" height="20" viewBox="0 0 20 20" fill="none" xmlns="http://www.w3.org/2000/svg">
<path d="M8.125 10C8.125 10.1658 8.05916 10.3247 7.94195 10.4419C7.82473 10.5592 7.66576 10.625 7.5 10.625H4.375V12.5C4.3751 12.6237 4.3385 12.7446 4.26983 12.8475C4.20116 12.9504 4.10351 13.0305 3.98925 13.0779C3.87498 13.1252 3.74924 13.1376 3.62794 13.1135C3.50663 13.0893 3.39523 13.0297 3.30782 12.9422L0.807816 10.4422C0.749706 10.3841 0.703606 10.3152 0.672154 10.2393C0.640701 10.1635 0.624512 10.0821 0.624512 10C0.624512 9.91787 0.640701 9.83654 0.672154 9.76066C0.703606 9.68479 0.749706 9.61586 0.807816 9.55781L3.30782 7.05781C3.39523 6.9703 3.50663 6.9107 3.62794 6.88654C3.74924 6.86239 3.87498 6.87477 3.98925 6.92211C4.10351 6.96946 4.20116 7.04964 4.26983 7.15251C4.3385 7.25538 4.3751 7.37632 4.375 7.5V9.375H7.5C7.66576 9.375 7.82473 9.44085 7.94195 9.55806C8.05916 9.67527 8.125 9.83424 8.125 10ZM19.1922 9.55781L16.6922 7.05781C16.6048 6.9703 16.4934 6.9107 16.3721 6.88654C16.2508 6.86239 16.125 6.87477 16.0108 6.92211C15.8965 6.96946 15.7988 7.04964 15.7302 7.15251C15.6615 7.25538 15.6249 7.37632 15.625 7.5V9.375H12.5C12.3342 9.375 12.1753 9.44085 12.0581 9.55806C11.9409 9.67527 11.875 9.83424 11.875 10C11.875 10.1658 11.9409 10.3247 12.0581 10.4419C12.1753 10.5592 12.3342 10.625 12.5 10.625H15.625V12.5C15.6249 12.6237 15.6615 12.7446 15.7302 12.8475C15.7988 12.9504 15.8965 13.0305 16.0108 13.0779C16.125 13.1252 16.2508 13.1376 16.3721 13.1135C16.4934 13.0893 16.6048 13.0297 16.6922 12.9422L19.1922 10.4422C19.2503 10.3841 19.2964 10.3152 19.3279 10.2393C19.3593 10.1635 19.3755 10.0821 19.3755 10C19.3755 9.91787 19.3593 9.83654 19.3279 9.76066C19.2964 9.68479 19.2503 9.61586 19.1922 9.55781ZM10 2.5C9.83424 2.5 9.67527 2.56585 9.55806 2.68306C9.44085 2.80027 9.375 2.95924 9.375 3.125V16.875C9.375 17.0408 9.44085 17.1997 9.55806 17.3169C9.67527 17.4342 9.83424 17.5 10 17.5C10.1658 17.5 10.3247 17.4342 10.4419 17.3169C10.5592 17.1997 10.625 17.0408 10.625 16.875V3.125C10.625 2.95924 10.5592 2.80027 10.4419 2.68306C10.3247 2.56585 10.1658 2.5 10 2.5Z" fill="#191F2E"/>
</svg>
