<svg width="20" height="20" viewBox="0 0 20 20" fill="none" xmlns="http://www.w3.org/2000/svg">
<path d="M16.25 6.25V13.125C16.25 14.4511 15.7232 15.7229 14.7855 16.6605C13.8479 17.5982 12.5761 18.125 11.25 18.125C9.92393 18.125 8.65216 17.5982 7.71448 16.6605C6.7768 15.7229 6.25001 14.4511 6.25001 13.125V4.00859L3.5672 6.69219C3.44992 6.80946 3.29086 6.87535 3.12501 6.87535C2.95916 6.87535 2.8001 6.80946 2.68282 6.69219C2.56555 6.57491 2.49966 6.41585 2.49966 6.25C2.49966 6.08415 2.56555 5.92509 2.68282 5.80781L6.43282 2.05781C6.49087 1.9997 6.5598 1.9536 6.63567 1.92215C6.71155 1.8907 6.79288 1.87451 6.87501 1.87451C6.95715 1.87451 7.03848 1.8907 7.11435 1.92215C7.19022 1.9536 7.25915 1.9997 7.3172 2.05781L11.0672 5.80781C11.1845 5.92509 11.2504 6.08415 11.2504 6.25C11.2504 6.41585 11.1845 6.57491 11.0672 6.69219C10.9499 6.80946 10.7909 6.87535 10.625 6.87535C10.4592 6.87535 10.3001 6.80946 10.1828 6.69219L7.50001 4.00859V13.125C7.50001 14.1196 7.8951 15.0734 8.59836 15.7767C9.30162 16.4799 10.2554 16.875 11.25 16.875C12.2446 16.875 13.1984 16.4799 13.9017 15.7767C14.6049 15.0734 15 14.1196 15 13.125V6.25C15 6.08424 15.0659 5.92527 15.1831 5.80806C15.3003 5.69085 15.4593 5.625 15.625 5.625C15.7908 5.625 15.9497 5.69085 16.067 5.80806C16.1842 5.92527 16.25 6.08424 16.25 6.25Z" fill="#191F2E"/>
</svg>
