<svg width="20" height="20" viewBox="0 0 20 20" fill="none" xmlns="http://www.w3.org/2000/svg">
<path d="M16.25 6.25V13.125C16.25 14.4511 15.7232 15.7229 14.7855 16.6605C13.8479 17.5982 12.5761 18.125 11.25 18.125C9.92392 18.125 8.65215 17.5982 7.71447 16.6605C6.77679 15.7229 6.25 14.4511 6.25 13.125V6.875H3.125C3.00132 6.8751 2.88039 6.83849 2.77752 6.76983C2.67464 6.70116 2.59446 6.60351 2.54711 6.48924C2.49977 6.37498 2.48739 6.24924 2.51155 6.12793C2.5357 6.00663 2.59531 5.89522 2.68282 5.80781L6.43282 2.05781C6.49086 1.9997 6.55979 1.9536 6.63567 1.92215C6.71154 1.8907 6.79287 1.87451 6.875 1.87451C6.95714 1.87451 7.03847 1.8907 7.11434 1.92215C7.19022 1.9536 7.25915 1.9997 7.31719 2.05781L11.0672 5.80781C11.1547 5.89522 11.2143 6.00663 11.2385 6.12793C11.2626 6.24924 11.2502 6.37498 11.2029 6.48924C11.1555 6.60351 11.0754 6.70116 10.9725 6.76983C10.8696 6.83849 10.7487 6.8751 10.625 6.875H7.5V13.125C7.5 14.1196 7.89509 15.0734 8.59835 15.7767C9.30162 16.4799 10.2554 16.875 11.25 16.875C12.2446 16.875 13.1984 16.4799 13.9017 15.7767C14.6049 15.0734 15 14.1196 15 13.125V6.25C15 6.08424 15.0659 5.92527 15.1831 5.80806C15.3003 5.69085 15.4592 5.625 15.625 5.625C15.7908 5.625 15.9497 5.69085 16.0669 5.80806C16.1842 5.92527 16.25 6.08424 16.25 6.25Z" fill="#191F2E"/>
</svg>
