<svg width="20" height="20" viewBox="0 0 20 20" fill="none" xmlns="http://www.w3.org/2000/svg">
<path d="M16.5625 6.875V13.75C16.5625 13.9986 16.4637 14.2371 16.2879 14.4129C16.1121 14.5887 15.8736 14.6875 15.625 14.6875C15.3764 14.6875 15.1379 14.5887 14.9621 14.4129C14.7863 14.2371 14.6875 13.9986 14.6875 13.75V6.875C14.6875 5.96332 14.3253 5.08898 13.6807 4.44432C13.036 3.79966 12.1617 3.4375 11.25 3.4375C10.3383 3.4375 9.46397 3.79966 8.81931 4.44432C8.17465 5.08898 7.81249 5.96332 7.81249 6.875V15.2344L9.96171 13.0844C10.1378 12.9083 10.3767 12.8093 10.6258 12.8093C10.8748 12.8093 11.1137 12.9083 11.2898 13.0844C11.466 13.2605 11.5649 13.4994 11.5649 13.7484C11.5649 13.9975 11.466 14.2364 11.2898 14.4125L7.53983 18.1625C7.45274 18.2499 7.34924 18.3192 7.23529 18.3666C7.12133 18.4139 6.99916 18.4382 6.87577 18.4382C6.75238 18.4382 6.63021 18.4139 6.51625 18.3666C6.4023 18.3192 6.29881 18.2499 6.21171 18.1625L2.46171 14.4125C2.28559 14.2364 2.18665 13.9975 2.18665 13.7484C2.18665 13.4994 2.28559 13.2605 2.46171 13.0844C2.63783 12.9083 2.8767 12.8093 3.12577 12.8093C3.37484 12.8093 3.61371 12.9083 3.78983 13.0844L5.93749 15.2344V6.875C5.93749 5.46604 6.4972 4.11478 7.49349 3.1185C8.48977 2.12221 9.84103 1.5625 11.25 1.5625C12.659 1.5625 14.0102 2.12221 15.0065 3.1185C16.0028 4.11478 16.5625 5.46604 16.5625 6.875Z" fill="#191F2E"/>
</svg>
