<svg width="20" height="20" viewBox="0 0 20 20" fill="none" xmlns="http://www.w3.org/2000/svg">
<path d="M16.9133 6.91325L13.1633 10.6632C12.9872 10.8394 12.7483 10.9383 12.4992 10.9383C12.2501 10.9383 12.0113 10.8394 11.8352 10.6632C11.659 10.4871 11.5601 10.2483 11.5601 9.99918C11.5601 9.75011 11.659 9.51124 11.8352 9.33512L13.9844 7.18747H5.9375V17.5C5.9375 17.7486 5.83873 17.9871 5.66291 18.1629C5.4871 18.3387 5.24864 18.4375 5 18.4375C4.75136 18.4375 4.5129 18.3387 4.33709 18.1629C4.16127 17.9871 4.0625 17.7486 4.0625 17.5V6.24997C4.0625 6.00133 4.16127 5.76287 4.33709 5.58705C4.5129 5.41124 4.75136 5.31247 5 5.31247H13.9844L11.8367 3.16325C11.7495 3.07604 11.6803 2.97251 11.6331 2.85857C11.5859 2.74463 11.5617 2.62251 11.5617 2.49918C11.5617 2.37586 11.5859 2.25374 11.6331 2.1398C11.6803 2.02586 11.7495 1.92233 11.8367 1.83512C11.9239 1.74792 12.0275 1.67874 12.1414 1.63155C12.2553 1.58435 12.3775 1.56006 12.5008 1.56006C12.6241 1.56006 12.7462 1.58435 12.8602 1.63155C12.9741 1.67874 13.0776 1.74792 13.1648 1.83512L16.9148 5.58512C17.0021 5.67232 17.0714 5.7759 17.1186 5.88991C17.1657 6.00392 17.1899 6.12612 17.1898 6.24951C17.1897 6.3729 17.1652 6.49504 17.1177 6.60894C17.0703 6.72284 17.0008 6.82625 16.9133 6.91325Z" fill="#191F2E"/>
</svg>
