<svg width="20" height="20" viewBox="0 0 20 20" fill="none" xmlns="http://www.w3.org/2000/svg">
<path d="M10 1.875C8.39303 1.875 6.82214 2.35152 5.486 3.24431C4.14985 4.1371 3.10844 5.40605 2.49348 6.8907C1.87852 8.37535 1.71762 10.009 2.03112 11.5851C2.34463 13.1612 3.11846 14.6089 4.25476 15.7452C5.39106 16.8815 6.8388 17.6554 8.4149 17.9689C9.99099 18.2824 11.6247 18.1215 13.1093 17.5065C14.594 16.8916 15.8629 15.8502 16.7557 14.514C17.6485 13.1779 18.125 11.607 18.125 10C18.1227 7.84581 17.266 5.78051 15.7427 4.25727C14.2195 2.73403 12.1542 1.87727 10 1.875ZM10 16.875C8.64026 16.875 7.31105 16.4718 6.18046 15.7164C5.04987 14.9609 4.16868 13.8872 3.64833 12.6309C3.12798 11.3747 2.99183 9.99237 3.2571 8.65875C3.52238 7.32513 4.17716 6.10013 5.13864 5.13864C6.10013 4.17716 7.32514 3.52237 8.65876 3.2571C9.99238 2.99183 11.3747 3.12798 12.631 3.64833C13.8872 4.16868 14.9609 5.04987 15.7164 6.18045C16.4718 7.31104 16.875 8.64025 16.875 10C16.8729 11.8227 16.1479 13.5702 14.8591 14.8591C13.5702 16.1479 11.8227 16.8729 10 16.875ZM13.125 8.75V12.5C13.125 12.6658 13.0592 12.8247 12.9419 12.9419C12.8247 13.0592 12.6658 13.125 12.5 13.125H8.75C8.58424 13.125 8.42527 13.0592 8.30806 12.9419C8.19085 12.8247 8.125 12.6658 8.125 12.5C8.125 12.3342 8.19085 12.1753 8.30806 12.0581C8.42527 11.9408 8.58424 11.875 8.75 11.875H10.9914L7.05782 7.94219C6.94054 7.82491 6.87466 7.66585 6.87466 7.5C6.87466 7.33415 6.94054 7.17509 7.05782 7.05781C7.17509 6.94054 7.33415 6.87465 7.5 6.87465C7.66586 6.87465 7.82492 6.94054 7.94219 7.05781L11.875 10.9914V8.75C11.875 8.58424 11.9409 8.42527 12.0581 8.30806C12.1753 8.19085 12.3342 8.125 12.5 8.125C12.6658 8.125 12.8247 8.19085 12.9419 8.30806C13.0592 8.42527 13.125 8.58424 13.125 8.75Z" fill="#191F2E"/>
</svg>
