<svg width="20" height="20" viewBox="0 0 20 20" fill="none" xmlns="http://www.w3.org/2000/svg">
<path d="M18.4375 8.75C18.4361 10.1585 17.8759 11.5089 16.8799 12.5049C15.8839 13.5009 14.5335 14.0611 13.125 14.0625H4.76563L6.91563 16.2117C7.00284 16.2989 7.07201 16.4025 7.11921 16.5164C7.1664 16.6303 7.1907 16.7525 7.1907 16.8758C7.1907 16.9991 7.1664 17.1212 7.11921 17.2352C7.07201 17.3491 7.00284 17.4526 6.91563 17.5398C6.82843 17.627 6.7249 17.6962 6.61096 17.7434C6.49702 17.7906 6.3749 17.8149 6.25157 17.8149C6.12824 17.8149 6.00612 17.7906 5.89218 17.7434C5.77824 17.6962 5.67471 17.627 5.58751 17.5398L1.83751 13.7898C1.75011 13.7027 1.68076 13.5993 1.63344 13.4853C1.58612 13.3713 1.56177 13.2492 1.56177 13.1258C1.56177 13.0024 1.58612 12.8802 1.63344 12.7663C1.68076 12.6523 1.75011 12.5488 1.83751 12.4617L5.58751 8.71172C5.67471 8.62451 5.77824 8.55534 5.89218 8.50814C6.00612 8.46095 6.12824 8.43666 6.25157 8.43666C6.3749 8.43665 6.49702 8.46095 6.61096 8.50814C6.7249 8.55534 6.82843 8.62451 6.91563 8.71172C7.00284 8.79892 7.07201 8.90245 7.11921 9.01639C7.1664 9.13033 7.1907 9.25245 7.1907 9.37578C7.1907 9.49911 7.1664 9.62123 7.11921 9.73517C7.07201 9.84911 7.00284 9.95264 6.91563 10.0398L4.76563 12.1875H13.125C14.0367 12.1875 14.911 11.8253 15.5557 11.1807C16.2003 10.536 16.5625 9.66168 16.5625 8.75C16.5625 7.83832 16.2003 6.96398 15.5557 6.31932C14.911 5.67466 14.0367 5.3125 13.125 5.3125H6.25001C6.00137 5.3125 5.76291 5.21373 5.58709 5.03791C5.41128 4.8621 5.31251 4.62364 5.31251 4.375C5.31251 4.12636 5.41128 3.8879 5.58709 3.71209C5.76291 3.53627 6.00137 3.4375 6.25001 3.4375H13.125C14.5335 3.43895 15.8839 3.99912 16.8799 4.99509C17.8759 5.99107 18.4361 7.34148 18.4375 8.75Z" fill="#191F2E"/>
</svg>
