<svg width="20" height="20" viewBox="0 0 20 20" fill="none" xmlns="http://www.w3.org/2000/svg">
<path d="M16.2883 14.4133L12.5383 18.1633C12.4512 18.2507 12.3477 18.32 12.2337 18.3673C12.1198 18.4147 11.9976 18.439 11.8742 18.439C11.7508 18.439 11.6287 18.4147 11.5147 18.3673C11.4007 18.32 11.2973 18.2507 11.2102 18.1633L7.46016 14.4133C7.28404 14.2372 7.18509 13.9983 7.18509 13.7492C7.18509 13.5001 7.28404 13.2613 7.46016 13.0852C7.63628 12.909 7.87515 12.8101 8.12422 12.8101C8.37329 12.8101 8.61216 12.909 8.78828 13.0852L10.9375 15.2344V10C10.9356 8.26009 10.2436 6.59197 9.01333 5.36167C7.78303 4.13136 6.11491 3.43936 4.375 3.4375C4.12636 3.4375 3.8879 3.33873 3.71209 3.16291C3.53627 2.9871 3.4375 2.74864 3.4375 2.5C3.4375 2.25136 3.53627 2.0129 3.71209 1.83709C3.8879 1.66127 4.12636 1.5625 4.375 1.5625C6.612 1.56498 8.75667 2.45473 10.3385 4.03653C11.9203 5.61833 12.81 7.763 12.8125 10V15.2344L14.9617 13.0844C15.1378 12.9083 15.3767 12.8093 15.6258 12.8093C15.8749 12.8093 16.1137 12.9083 16.2898 13.0844C16.466 13.2605 16.5649 13.4994 16.5649 13.7484C16.5649 13.9975 16.466 14.2364 16.2898 14.4125L16.2883 14.4133Z" fill="#191F2E"/>
</svg>
