<svg width="20" height="20" viewBox="0 0 20 20" fill="none" xmlns="http://www.w3.org/2000/svg">
<path d="M16.25 2.5H3.75C3.41848 2.5 3.10054 2.6317 2.86612 2.86612C2.6317 3.10054 2.5 3.41848 2.5 3.75V16.25C2.5 16.5815 2.6317 16.8995 2.86612 17.1339C3.10054 17.3683 3.41848 17.5 3.75 17.5H16.25C16.5815 17.5 16.8995 17.3683 17.1339 17.1339C17.3683 16.8995 17.5 16.5815 17.5 16.25V3.75C17.5 3.41848 17.3683 3.10054 17.1339 2.86612C16.8995 2.6317 16.5815 2.5 16.25 2.5ZM13.5672 10.4422L11.0672 12.9422C10.9499 13.0595 10.7909 13.1253 10.625 13.1253C10.4591 13.1253 10.3001 13.0595 10.1828 12.9422C10.0655 12.8249 9.99965 12.6659 9.99965 12.5C9.99965 12.3341 10.0655 12.1751 10.1828 12.0578L11.6164 10.625H6.875C6.70924 10.625 6.55027 10.5592 6.43306 10.4419C6.31585 10.3247 6.25 10.1658 6.25 10C6.25 9.83424 6.31585 9.67527 6.43306 9.55806C6.55027 9.44085 6.70924 9.375 6.875 9.375H11.6164L10.1828 7.94219C10.0655 7.82491 9.99965 7.66585 9.99965 7.5C9.99965 7.33415 10.0655 7.17509 10.1828 7.05781C10.3001 6.94054 10.4591 6.87465 10.625 6.87465C10.7909 6.87465 10.9499 6.94054 11.0672 7.05781L13.5672 9.55781C13.6253 9.61586 13.6714 9.68479 13.7029 9.76066C13.7343 9.83654 13.7505 9.91787 13.7505 10C13.7505 10.0821 13.7343 10.1635 13.7029 10.2393C13.6714 10.3152 13.6253 10.3841 13.5672 10.4422Z" fill="#191F2E"/>
</svg>
