<svg width="20" height="20" viewBox="0 0 20 20" fill="none" xmlns="http://www.w3.org/2000/svg">
<path d="M16.2023 6.48907C16.1551 6.60328 16.075 6.70091 15.9722 6.7696C15.8694 6.8383 15.7486 6.87498 15.625 6.875H12.5V10C12.4977 12.1542 11.641 14.2195 10.1177 15.7427C8.59449 17.266 6.52919 18.1227 4.375 18.125C4.20924 18.125 4.05027 18.0592 3.93306 17.9419C3.81585 17.8247 3.75 17.6658 3.75 17.5C3.75 17.3342 3.81585 17.1753 3.93306 17.0581C4.05027 16.9409 4.20924 16.875 4.375 16.875C6.19773 16.8729 7.94521 16.1479 9.23408 14.8591C10.5229 13.5702 11.2479 11.8227 11.25 10V6.875H8.125C8.00132 6.8751 7.88038 6.8385 7.77751 6.76983C7.67464 6.70116 7.59446 6.60351 7.54711 6.48925C7.49977 6.37498 7.48739 6.24924 7.51154 6.12794C7.5357 6.00663 7.59531 5.89523 7.68281 5.80782L11.4328 2.05782C11.4909 1.99971 11.5598 1.95361 11.6357 1.92215C11.7115 1.8907 11.7929 1.87451 11.875 1.87451C11.9571 1.87451 12.0385 1.8907 12.1143 1.92215C12.1902 1.95361 12.2591 1.99971 12.3172 2.05782L16.0672 5.80782C16.1546 5.89527 16.214 6.00668 16.2381 6.12794C16.2622 6.2492 16.2497 6.37488 16.2023 6.48907Z" fill="#191F2E"/>
</svg>
