<svg width="20" height="20" viewBox="0 0 20 20" fill="none" xmlns="http://www.w3.org/2000/svg">
<path d="M4.375 11.875V4.375C4.375 4.20924 4.44085 4.05027 4.55806 3.93306C4.67527 3.81585 4.83424 3.75 5 3.75H12.5C12.6237 3.7499 12.7446 3.78651 12.8475 3.85517C12.9504 3.92384 13.0305 4.02149 13.0779 4.13576C13.1252 4.25002 13.1376 4.37576 13.1135 4.49707C13.0893 4.61837 13.0297 4.72978 12.9422 4.81719L9.63359 8.125L14.1922 12.6828C14.2503 12.7409 14.2963 12.8098 14.3277 12.8857C14.3592 12.9616 14.3753 13.0429 14.3753 13.125C14.3753 13.2071 14.3592 13.2884 14.3277 13.3643C14.2963 13.4402 14.2503 13.5091 14.1922 13.5672C14.1341 13.6253 14.0652 13.6713 13.9893 13.7027C13.9134 13.7342 13.8321 13.7503 13.75 13.7503C13.6679 13.7503 13.5866 13.7342 13.5107 13.7027C13.4348 13.6713 13.3659 13.6253 13.3078 13.5672L8.75 9.00859L5.44219 12.3172C5.35478 12.4047 5.24337 12.4643 5.12207 12.4885C5.00076 12.5126 4.87502 12.5002 4.76076 12.4529C4.64649 12.4055 4.54884 12.3254 4.48017 12.2225C4.41151 12.1196 4.3749 11.9987 4.375 11.875ZM16.875 16.25H3.125C2.95924 16.25 2.80027 16.3158 2.68306 16.4331C2.56585 16.5503 2.5 16.7092 2.5 16.875C2.5 17.0408 2.56585 17.1997 2.68306 17.3169C2.80027 17.4342 2.95924 17.5 3.125 17.5H16.875C17.0408 17.5 17.1997 17.4342 17.3169 17.3169C17.4342 17.1997 17.5 17.0408 17.5 16.875C17.5 16.7092 17.4342 16.5503 17.3169 16.4331C17.1997 16.3158 17.0408 16.25 16.875 16.25Z" fill="#191F2E"/>
</svg>
