<svg width="20" height="20" viewBox="0 0 20 20" fill="none" xmlns="http://www.w3.org/2000/svg">
<path d="M17.8125 16.875C17.8125 17.1236 17.7137 17.3621 17.5379 17.5379C17.3621 17.7137 17.1236 17.8125 16.875 17.8125H3.125C2.87636 17.8125 2.6379 17.7137 2.46209 17.5379C2.28627 17.3621 2.1875 17.1236 2.1875 16.875C2.1875 16.6264 2.28627 16.3879 2.46209 16.2121C2.6379 16.0363 2.87636 15.9375 3.125 15.9375H16.875C17.1236 15.9375 17.3621 16.0363 17.5379 16.2121C17.7137 16.3879 17.8125 16.6264 17.8125 16.875ZM6.25 14.0625C6.37315 14.0626 6.49511 14.0384 6.60892 13.9914C6.72273 13.9443 6.82615 13.8753 6.91328 13.7883L14.0625 6.64062V11.875C14.0625 12.1236 14.1613 12.3621 14.3371 12.5379C14.5129 12.7137 14.7514 12.8125 15 12.8125C15.2486 12.8125 15.4871 12.7137 15.6629 12.5379C15.8387 12.3621 15.9375 12.1236 15.9375 11.875V4.375C15.9375 4.12636 15.8387 3.8879 15.6629 3.71209C15.4871 3.53627 15.2486 3.4375 15 3.4375H7.5C7.25136 3.4375 7.0129 3.53627 6.83709 3.71209C6.66127 3.8879 6.5625 4.12636 6.5625 4.375C6.5625 4.62364 6.66127 4.8621 6.83709 5.03791C7.0129 5.21373 7.25136 5.3125 7.5 5.3125H12.7344L5.58672 12.4617C5.45546 12.5928 5.36605 12.7599 5.32982 12.9419C5.29358 13.1239 5.31215 13.3125 5.38317 13.4839C5.45418 13.6553 5.57446 13.8017 5.72877 13.9047C5.88307 14.0077 6.06447 14.0626 6.25 14.0625Z" fill="#191F2E"/>
</svg>
