<svg width="20" height="20" viewBox="0 0 20 20" fill="none" xmlns="http://www.w3.org/2000/svg">
<path d="M18.4375 10C18.4375 10.2486 18.3387 10.4871 18.1629 10.6629C17.9871 10.8387 17.7486 10.9375 17.5 10.9375H8.51562L12.5406 14.9617C12.7167 15.1378 12.8157 15.3767 12.8157 15.6258C12.8157 15.8749 12.7167 16.1137 12.5406 16.2898C12.3645 16.466 12.1256 16.5649 11.8766 16.5649C11.6275 16.5649 11.3886 16.466 11.2125 16.2898L5.5875 10.6648C5.5001 10.5777 5.43075 10.4743 5.38344 10.3603C5.33612 10.2463 5.31176 10.1242 5.31176 10.0008C5.31176 9.87739 5.33612 9.75522 5.38344 9.64126C5.43075 9.52731 5.5001 9.42382 5.5875 9.33672L11.2125 3.71172C11.2997 3.62451 11.4032 3.55534 11.5172 3.50814C11.6311 3.46095 11.7532 3.43666 11.8766 3.43666C11.9999 3.43666 12.122 3.46095 12.236 3.50814C12.3499 3.55534 12.4534 3.62451 12.5406 3.71172C12.6278 3.79892 12.697 3.90245 12.7442 4.01639C12.7914 4.13033 12.8157 4.25245 12.8157 4.37578C12.8157 4.49911 12.7914 4.62123 12.7442 4.73517C12.697 4.84911 12.6278 4.95264 12.5406 5.03984L8.51562 9.0625H17.5C17.7486 9.0625 17.9871 9.16127 18.1629 9.33709C18.3387 9.5129 18.4375 9.75136 18.4375 10ZM3.125 2.1875C2.87636 2.1875 2.6379 2.28627 2.46209 2.46209C2.28627 2.6379 2.1875 2.87636 2.1875 3.125V16.875C2.1875 17.1236 2.28627 17.3621 2.46209 17.5379C2.6379 17.7137 2.87636 17.8125 3.125 17.8125C3.37364 17.8125 3.6121 17.7137 3.78791 17.5379C3.96373 17.3621 4.0625 17.1236 4.0625 16.875V3.125C4.0625 2.87636 3.96373 2.6379 3.78791 2.46209C3.6121 2.28627 3.37364 2.1875 3.125 2.1875Z" fill="#191F2E"/>
</svg>
