<svg width="20" height="20" viewBox="0 0 20 20" fill="none" xmlns="http://www.w3.org/2000/svg">
<path d="M10 1.5625C8.33122 1.5625 6.69992 2.05735 5.31238 2.98448C3.92484 3.9116 2.84338 5.22936 2.20477 6.77111C1.56616 8.31286 1.39907 10.0094 1.72463 11.6461C2.05019 13.2828 2.85379 14.7862 4.03379 15.9662C5.2138 17.1462 6.71721 17.9498 8.35393 18.2754C9.99064 18.6009 11.6871 18.4338 13.2289 17.7952C14.7706 17.1566 16.0884 16.0752 17.0155 14.6876C17.9427 13.3001 18.4375 11.6688 18.4375 10C18.435 7.763 17.5453 5.61833 15.9635 4.03653C14.3817 2.45473 12.237 1.56498 10 1.5625ZM10 16.5625C8.70206 16.5625 7.43327 16.1776 6.35407 15.4565C5.27488 14.7354 4.43374 13.7105 3.93704 12.5114C3.44034 11.3122 3.31038 9.99272 3.5636 8.71972C3.81682 7.44672 4.44183 6.27739 5.35962 5.35961C6.2774 4.44183 7.44672 3.81681 8.71972 3.5636C9.99272 3.31038 11.3122 3.44034 12.5114 3.93704C13.7105 4.43374 14.7354 5.27487 15.4565 6.35407C16.1776 7.43327 16.5625 8.70206 16.5625 10C16.5606 11.7399 15.8686 13.408 14.6383 14.6383C13.408 15.8686 11.7399 16.5606 10 16.5625ZM13.1633 8.71172C13.3394 8.88784 13.4383 9.12671 13.4383 9.37578C13.4383 9.62485 13.3394 9.86372 13.1633 10.0398C12.9872 10.216 12.7483 10.3149 12.4992 10.3149C12.2502 10.3149 12.0113 10.216 11.8352 10.0398L10.9375 9.14062V13.125C10.9375 13.3736 10.8387 13.6121 10.6629 13.7879C10.4871 13.9637 10.2486 14.0625 10 14.0625C9.75136 14.0625 9.51291 13.9637 9.33709 13.7879C9.16128 13.6121 9.0625 13.3736 9.0625 13.125V9.14062L8.16328 10.0406C7.98716 10.2167 7.74829 10.3157 7.49922 10.3157C7.25015 10.3157 7.01128 10.2167 6.83516 10.0406C6.65904 9.8645 6.5601 9.62563 6.5601 9.37656C6.5601 9.12749 6.65904 8.88862 6.83516 8.7125L9.33516 6.2125C9.42226 6.1251 9.52575 6.05575 9.6397 6.00844C9.75366 5.96112 9.87583 5.93676 9.99922 5.93676C10.1226 5.93676 10.2448 5.96112 10.3587 6.00844C10.4727 6.05575 10.5762 6.1251 10.6633 6.2125L13.1633 8.71172Z" fill="#191F2E"/>
</svg>
