<svg width="20" height="20" viewBox="0 0 20 20" fill="none" xmlns="http://www.w3.org/2000/svg">
<path d="M16.25 2.1875H3.75C3.3356 2.1875 2.93817 2.35212 2.64515 2.64515C2.35212 2.93817 2.1875 3.3356 2.1875 3.75V16.25C2.1875 16.6644 2.35212 17.0618 2.64515 17.3549C2.93817 17.6479 3.3356 17.8125 3.75 17.8125H16.25C16.6644 17.8125 17.0618 17.6479 17.3549 17.3549C17.6479 17.0618 17.8125 16.6644 17.8125 16.25V3.75C17.8125 3.3356 17.6479 2.93817 17.3549 2.64515C17.0618 2.35212 16.6644 2.1875 16.25 2.1875ZM15.9375 15.9375H4.0625V4.0625H15.9375V15.9375ZM6.83672 11.2883C6.74951 11.2011 6.68034 11.0975 6.63314 10.9836C6.58595 10.8697 6.56166 10.7475 6.56166 10.6242C6.56165 10.5009 6.58595 10.3788 6.63314 10.2648C6.68034 10.1509 6.74951 10.0474 6.83672 9.96016C6.92392 9.87295 7.02745 9.80377 7.14139 9.75658C7.25533 9.70938 7.37745 9.68509 7.50078 9.68509C7.62411 9.68509 7.74623 9.70938 7.86017 9.75658C7.97411 9.80377 8.07764 9.87295 8.16484 9.96016L9.0625 10.8594V6.875C9.0625 6.62636 9.16127 6.3879 9.33709 6.21209C9.5129 6.03627 9.75136 5.9375 10 5.9375C10.2486 5.9375 10.4871 6.03627 10.6629 6.21209C10.8387 6.3879 10.9375 6.62636 10.9375 6.875V10.8594L11.8367 9.95938C11.9239 9.87217 12.0275 9.80299 12.1414 9.7558C12.2553 9.7086 12.3775 9.68431 12.5008 9.68431C12.6241 9.68431 12.7462 9.7086 12.8602 9.7558C12.9741 9.80299 13.0776 9.87217 13.1648 9.95938C13.252 10.0466 13.3212 10.1501 13.3684 10.264C13.4156 10.378 13.4399 10.5001 13.4399 10.6234C13.4399 10.7468 13.4156 10.8689 13.3684 10.9828C13.3212 11.0968 13.252 11.2003 13.1648 11.2875L10.6648 13.7875C10.5777 13.8749 10.4743 13.9442 10.3603 13.9916C10.2463 14.0389 10.1242 14.0632 10.0008 14.0632C9.87739 14.0632 9.75522 14.0389 9.64126 13.9916C9.52731 13.9442 9.42382 13.8749 9.33672 13.7875L6.83672 11.2883Z" fill="#191F2E"/>
</svg>
