<svg width="20" height="20" viewBox="0 0 20 20" fill="none" xmlns="http://www.w3.org/2000/svg">
<path d="M16.6922 6.69219L12.9422 10.4422C12.8548 10.5297 12.7434 10.5893 12.6221 10.6135C12.5008 10.6376 12.375 10.6252 12.2608 10.5779C12.1465 10.5305 12.0488 10.4504 11.9802 10.3475C11.9115 10.2446 11.8749 10.1237 11.875 10V6.875H5.625V17.5C5.625 17.6658 5.55915 17.8247 5.44194 17.9419C5.32473 18.0592 5.16576 18.125 5 18.125C4.83424 18.125 4.67527 18.0592 4.55806 17.9419C4.44085 17.8247 4.375 17.6658 4.375 17.5V6.25C4.375 6.08424 4.44085 5.92527 4.55806 5.80806C4.67527 5.69085 4.83424 5.625 5 5.625H11.875V2.5C11.8749 2.37632 11.9115 2.25539 11.9802 2.15252C12.0488 2.04964 12.1465 1.96946 12.2608 1.92211C12.375 1.87477 12.5008 1.86239 12.6221 1.88655C12.7434 1.9107 12.8548 1.97031 12.9422 2.05782L16.6922 5.80782C16.7503 5.86586 16.7964 5.93479 16.8279 6.01067C16.8593 6.08654 16.8755 6.16787 16.8755 6.25C16.8755 6.33214 16.8593 6.41347 16.8279 6.48934C16.7964 6.56522 16.7503 6.63415 16.6922 6.69219Z" fill="#191F2E"/>
</svg>
