<svg width="20" height="20" viewBox="0 0 20 20" fill="none" xmlns="http://www.w3.org/2000/svg">
<path d="M16.0672 14.1922L12.3172 17.9422C12.2591 18.0003 12.1902 18.0464 12.1143 18.0779C12.0385 18.1093 11.9571 18.1255 11.875 18.1255C11.7929 18.1255 11.7115 18.1093 11.6357 18.0779C11.5598 18.0464 11.4909 18.0003 11.4328 17.9422L7.68281 14.1922C7.59531 14.1048 7.5357 13.9934 7.51154 13.8721C7.48739 13.7508 7.49977 13.625 7.54711 13.5108C7.59446 13.3965 7.67464 13.2988 7.77751 13.2302C7.88038 13.1615 8.00132 13.1249 8.125 13.125H11.25V10C11.2479 8.17727 10.5229 6.42979 9.23408 5.14092C7.94521 3.85206 6.19773 3.12707 4.375 3.125C4.20924 3.125 4.05027 3.05915 3.93306 2.94194C3.81585 2.82473 3.75 2.66576 3.75 2.5C3.75 2.33424 3.81585 2.17527 3.93306 2.05806C4.05027 1.94085 4.20924 1.875 4.375 1.875C6.52919 1.87727 8.59449 2.73403 10.1177 4.25727C11.641 5.78051 12.4977 7.84581 12.5 10V13.125H15.625C15.7487 13.1249 15.8696 13.1615 15.9725 13.2302C16.0754 13.2988 16.1555 13.3965 16.2029 13.5108C16.2502 13.625 16.2626 13.7508 16.2385 13.8721C16.2143 13.9934 16.1547 14.1048 16.0672 14.1922Z" fill="#191F2E"/>
</svg>
