<svg width="20" height="20" viewBox="0 0 20 20" fill="none" xmlns="http://www.w3.org/2000/svg">
<path d="M17.5 12.5V16.25C17.5001 16.3737 17.4635 16.4946 17.3948 16.5975C17.3262 16.7004 17.2285 16.7805 17.1142 16.8279C17 16.8752 16.8742 16.8876 16.7529 16.8635C16.6316 16.8393 16.5202 16.7797 16.4328 16.6922L15.1781 15.4367C13.6039 16.7891 11.825 17.5 10 17.5C6.65469 17.5 4.64219 15.5258 4.55781 15.4422C4.44043 15.3251 4.37437 15.1662 4.37415 15.0004C4.37393 14.8347 4.43957 14.6756 4.55664 14.5582C4.67371 14.4408 4.83261 14.3748 4.99839 14.3745C5.16417 14.3743 5.32325 14.44 5.44063 14.557C5.46875 14.5844 7.2 16.25 10 16.25C11.8102 16.25 13.275 15.4023 14.2906 14.55L12.6828 12.9422C12.5953 12.8548 12.5357 12.7434 12.5115 12.6221C12.4874 12.5008 12.4998 12.375 12.5471 12.2608C12.5945 12.1465 12.6746 12.0488 12.7775 11.9802C12.8804 11.9115 13.0013 11.8749 13.125 11.875H16.875C17.0408 11.875 17.1997 11.9408 17.3169 12.0581C17.4342 12.1753 17.5 12.3342 17.5 12.5ZM7.45234 7.73906C7.49972 7.62487 7.51216 7.4992 7.4881 7.37794C7.46405 7.25667 7.40457 7.14527 7.31719 7.05781L5.70938 5.45C6.725 4.59766 8.18984 3.75 10 3.75C12.8086 3.75 14.5414 5.425 14.5594 5.44375C14.6769 5.56082 14.836 5.62642 15.0019 5.62613C15.1677 5.62584 15.3267 5.55967 15.4437 5.44219C15.5608 5.3247 15.6264 5.16553 15.6261 4.99968C15.6258 4.83382 15.5597 4.67488 15.4422 4.55781C15.3578 4.47422 13.3453 2.5 10 2.5C8.175 2.5 6.39609 3.21094 4.82188 4.56328L3.56719 3.30781C3.47978 3.22031 3.36837 3.1607 3.24707 3.13654C3.12576 3.11239 3.00002 3.12477 2.88576 3.17211C2.77149 3.21946 2.67384 3.29964 2.60517 3.40251C2.53651 3.50538 2.4999 3.62632 2.5 3.75V7.5C2.5 7.66576 2.56585 7.82473 2.68306 7.94194C2.80027 8.05915 2.95924 8.125 3.125 8.125H6.875C6.99861 8.12497 7.11944 8.08829 7.22221 8.0196C7.32497 7.9509 7.40506 7.85327 7.45234 7.73906Z" fill="#191F2E"/>
</svg>
