<svg width="20" height="20" viewBox="0 0 20 20" fill="none" xmlns="http://www.w3.org/2000/svg">
<path d="M18.5672 10.4422L11.0672 17.9422C10.9798 18.0297 10.8684 18.0893 10.7471 18.1135C10.6258 18.1376 10.5 18.1252 10.3858 18.0779C10.2715 18.0305 10.1738 17.9504 10.1052 17.8475C10.0365 17.7446 9.9999 17.6237 10 17.5V14.375H3.75C3.41848 14.375 3.10054 14.2433 2.86612 14.0089C2.6317 13.7745 2.5 13.4565 2.5 13.125V6.875C2.5 6.54348 2.6317 6.22554 2.86612 5.99112C3.10054 5.7567 3.41848 5.625 3.75 5.625H10V2.5C9.9999 2.37632 10.0365 2.25539 10.1052 2.15252C10.1738 2.04964 10.2715 1.96946 10.3858 1.92211C10.5 1.87477 10.6258 1.86239 10.7471 1.88655C10.8684 1.9107 10.9798 1.97031 11.0672 2.05782L18.5672 9.55782C18.6253 9.61586 18.6714 9.68479 18.7029 9.76067C18.7343 9.83654 18.7505 9.91787 18.7505 10C18.7505 10.0821 18.7343 10.1635 18.7029 10.2393C18.6714 10.3152 18.6253 10.3841 18.5672 10.4422Z" fill="#191F2E"/>
</svg>
