<svg width="20" height="20" viewBox="0 0 20 20" fill="none" xmlns="http://www.w3.org/2000/svg">
<path d="M18.125 14.375C18.125 14.5408 18.0592 14.6997 17.9419 14.8169C17.8247 14.9342 17.6658 15 17.5 15C17.3342 15 17.1753 14.9342 17.0581 14.8169C16.9408 14.6997 16.875 14.5408 16.875 14.375C16.8745 13.0312 16.4801 11.7171 15.7407 10.595C15.0014 9.47294 13.9494 8.59215 12.7148 8.06152C11.4803 7.53089 10.1172 7.37369 8.79431 7.60935C7.47136 7.84501 6.24648 8.4632 5.27109 9.3875L7.31719 11.4328C7.4047 11.5202 7.4643 11.6316 7.48846 11.7529C7.51261 11.8742 7.50023 12 7.45289 12.1142C7.40554 12.2285 7.32536 12.3262 7.22249 12.3948C7.11962 12.4635 6.99868 12.5001 6.875 12.5H1.875C1.70924 12.5 1.55027 12.4342 1.43306 12.3169C1.31585 12.1997 1.25 12.0408 1.25 11.875V6.875C1.2499 6.75132 1.28651 6.63039 1.35517 6.52752C1.42384 6.42464 1.52149 6.34446 1.63576 6.29711C1.75002 6.24977 1.87576 6.23739 1.99707 6.26155C2.11837 6.2857 2.22978 6.34531 2.31719 6.43282L4.38594 8.50157C5.53631 7.40201 6.98425 6.66447 8.55005 6.38048C10.1159 6.0965 11.7306 6.27857 13.1938 6.90411C14.6571 7.52965 15.9044 8.5711 16.781 9.89922C17.6577 11.2273 18.125 12.7837 18.125 14.375Z" fill="#191F2E"/>
</svg>
