<svg width="20" height="20" viewBox="0 0 20 20" fill="none" xmlns="http://www.w3.org/2000/svg">
<path d="M18.4375 11.25C18.4361 12.6585 17.8759 14.0089 16.8799 15.0049C15.8839 16.0009 14.5335 16.5611 13.125 16.5625H6.25001C6.00137 16.5625 5.76291 16.4637 5.58709 16.2879C5.41128 16.1121 5.31251 15.8736 5.31251 15.625C5.31251 15.3764 5.41128 15.1379 5.58709 14.9621C5.76291 14.7863 6.00137 14.6875 6.25001 14.6875H13.125C14.0367 14.6875 14.911 14.3253 15.5557 13.6807C16.2003 13.036 16.5625 12.1617 16.5625 11.25C16.5625 10.3383 16.2003 9.46398 15.5557 8.81933C14.911 8.17467 14.0367 7.81251 13.125 7.81251H4.76563L6.91563 9.96172C7.09175 10.1378 7.1907 10.3767 7.1907 10.6258C7.1907 10.8749 7.09175 11.1137 6.91563 11.2898C6.73951 11.466 6.50064 11.5649 6.25157 11.5649C6.0025 11.5649 5.76363 11.466 5.58751 11.2898L1.83751 7.53985C1.75011 7.45275 1.68076 7.34926 1.63344 7.2353C1.58612 7.12135 1.56177 6.99918 1.56177 6.87579C1.56177 6.7524 1.58612 6.63022 1.63344 6.51627C1.68076 6.40232 1.75011 6.29882 1.83751 6.21172L5.58751 2.46172C5.76363 2.2856 6.0025 2.18666 6.25157 2.18666C6.50064 2.18666 6.73951 2.2856 6.91563 2.46172C7.09175 2.63784 7.1907 2.87672 7.1907 3.12579C7.1907 3.37486 7.09175 3.61373 6.91563 3.78985L4.76563 5.93751H13.125C14.5335 5.93916 15.8838 6.4994 16.8797 7.49533C17.8756 8.49126 18.4359 9.84155 18.4375 11.25Z" fill="#191F2E"/>
</svg>
