<svg width="20" height="20" viewBox="0 0 20 20" fill="none" xmlns="http://www.w3.org/2000/svg">
<path d="M17.9422 13.5672L14.1922 17.3172C14.0749 17.4345 13.9159 17.5003 13.75 17.5003C13.5841 17.5003 13.4251 17.4345 13.3078 17.3172C13.1905 17.1999 13.1247 17.0409 13.1247 16.875C13.1247 16.7091 13.1905 16.5501 13.3078 16.4328L15.9914 13.75H6.875C5.54892 13.75 4.27715 13.2232 3.33947 12.2855C2.40178 11.3479 1.875 10.0761 1.875 8.75C1.875 7.42392 2.40178 6.15215 3.33947 5.21447C4.27715 4.27678 5.54892 3.75 6.875 3.75H13.75C13.9158 3.75 14.0747 3.81585 14.1919 3.93306C14.3092 4.05027 14.375 4.20924 14.375 4.375C14.375 4.54076 14.3092 4.69973 14.1919 4.81694C14.0747 4.93415 13.9158 5 13.75 5H6.875C5.88044 5 4.92661 5.39509 4.22335 6.09835C3.52009 6.80161 3.125 7.75544 3.125 8.75C3.125 9.74456 3.52009 10.6984 4.22335 11.4017C4.92661 12.1049 5.88044 12.5 6.875 12.5H15.9914L13.3078 9.81719C13.1905 9.69991 13.1247 9.54085 13.1247 9.375C13.1247 9.20915 13.1905 9.05009 13.3078 8.93281C13.4251 8.81554 13.5841 8.74965 13.75 8.74965C13.9159 8.74965 14.0749 8.81554 14.1922 8.93281L17.9422 12.6828C18.0003 12.7409 18.0464 12.8098 18.0779 12.8857C18.1093 12.9615 18.1255 13.0429 18.1255 13.125C18.1255 13.2071 18.1093 13.2885 18.0779 13.3643C18.0464 13.4402 18.0003 13.5091 17.9422 13.5672Z" fill="#191F2E"/>
</svg>
