<svg width="20" height="20" viewBox="0 0 20 20" fill="none" xmlns="http://www.w3.org/2000/svg">
<path d="M16.6922 14.1922L14.1922 16.6922C14.0749 16.8094 13.9159 16.8753 13.75 16.8753C13.5842 16.8753 13.4251 16.8094 13.3078 16.6922C13.1905 16.5749 13.1247 16.4158 13.1247 16.25C13.1247 16.0841 13.1905 15.9251 13.3078 15.8078L14.7414 14.375H3.75C3.58424 14.375 3.42527 14.3091 3.30806 14.1919C3.19085 14.0747 3.125 13.9157 3.125 13.75C3.125 13.5842 3.19085 13.4253 3.30806 13.308C3.42527 13.1908 3.58424 13.125 3.75 13.125H14.7414L13.3078 11.6922C13.1905 11.5749 13.1247 11.4158 13.1247 11.25C13.1247 11.0841 13.1905 10.9251 13.3078 10.8078C13.4251 10.6905 13.5842 10.6246 13.75 10.6246C13.9159 10.6246 14.0749 10.6905 14.1922 10.8078L16.6922 13.3078C16.7503 13.3658 16.7964 13.4348 16.8279 13.5106C16.8593 13.5865 16.8755 13.6678 16.8755 13.75C16.8755 13.8321 16.8593 13.9134 16.8279 13.9893C16.7964 14.0652 16.7503 14.1341 16.6922 14.1922ZM5.80782 9.19217C5.92509 9.30944 6.08415 9.37533 6.25 9.37533C6.41586 9.37533 6.57492 9.30944 6.69219 9.19217C6.80947 9.07489 6.87535 8.91583 6.87535 8.74998C6.87535 8.58413 6.80947 8.42507 6.69219 8.30779L5.2586 6.87498H16.25C16.4158 6.87498 16.5747 6.80913 16.6919 6.69192C16.8092 6.57471 16.875 6.41574 16.875 6.24998C16.875 6.08422 16.8092 5.92525 16.6919 5.80804C16.5747 5.69083 16.4158 5.62498 16.25 5.62498H5.2586L6.69219 4.19217C6.80947 4.07489 6.87535 3.91583 6.87535 3.74998C6.87535 3.58413 6.80947 3.42507 6.69219 3.30779C6.57492 3.19052 6.41586 3.12463 6.25 3.12463C6.08415 3.12463 5.92509 3.19052 5.80782 3.30779L3.30782 5.80779C3.24971 5.86584 3.20361 5.93477 3.17215 6.01064C3.1407 6.08652 3.12451 6.16785 3.12451 6.24998C3.12451 6.33212 3.1407 6.41345 3.17215 6.48932C3.20361 6.56519 3.24971 6.63412 3.30782 6.69217L5.80782 9.19217Z" fill="#191F2E"/>
</svg>
