<svg width="20" height="20" viewBox="0 0 20 20" fill="none" xmlns="http://www.w3.org/2000/svg">
<path d="M17.5 10.0001C17.5002 11.9719 16.7239 13.8644 15.3391 15.2681C13.9543 16.6718 12.0724 17.4736 10.1008 17.5001H10C8.08457 17.5049 6.24086 16.7719 4.85157 15.4532C4.79191 15.3968 4.74395 15.3292 4.71043 15.2542C4.6769 15.1793 4.65847 15.0984 4.65619 15.0163C4.6539 14.9343 4.66781 14.8525 4.69711 14.7758C4.72641 14.6991 4.77054 14.6289 4.82696 14.5693C4.88339 14.5096 4.95102 14.4616 5.02598 14.4281C5.10094 14.3946 5.18177 14.3762 5.26386 14.3739C5.34594 14.3716 5.42768 14.3855 5.50439 14.4148C5.5811 14.4441 5.65129 14.4882 5.71095 14.5446C6.60454 15.3874 7.72664 15.9481 8.93707 16.1568C10.1475 16.3655 11.3926 16.213 12.5168 15.7182C13.641 15.2233 14.5945 14.4083 15.2582 13.3747C15.9219 12.3411 16.2663 11.1349 16.2484 9.90678C16.2305 8.67863 15.8512 7.48296 15.1577 6.46914C14.4643 5.45533 13.4875 4.66833 12.3493 4.20644C11.2112 3.74455 9.96217 3.62826 8.75833 3.8721C7.55448 4.11594 6.44918 4.70909 5.58048 5.57746C5.5741 5.58436 5.56731 5.59088 5.56017 5.59699L4.73673 6.35089L6.06485 7.67902C6.15357 7.76607 6.21431 7.8776 6.23932 7.99936C6.26433 8.12111 6.25247 8.24755 6.20526 8.36253C6.15804 8.47751 6.07762 8.5758 5.97426 8.64484C5.8709 8.71388 5.7493 8.75053 5.62501 8.75011H1.87501C1.70925 8.75011 1.55028 8.68426 1.43307 8.56705C1.31586 8.44984 1.25001 8.29087 1.25001 8.12511V4.37511C1.24929 4.25116 1.28544 4.12979 1.35388 4.02644C1.42231 3.92309 1.51992 3.84242 1.63432 3.79469C1.74871 3.74695 1.87471 3.73431 1.99631 3.75837C2.1179 3.78243 2.2296 3.8421 2.3172 3.9298L3.85235 5.46886L4.70704 4.68761C5.75703 3.64171 7.09334 2.93032 8.5473 2.64326C10.0013 2.3562 11.5077 2.50633 12.8764 3.07471C14.2451 3.64309 15.4147 4.60422 16.2376 5.83679C17.0605 7.06935 17.4998 8.51809 17.5 10.0001Z" fill="#191F2E"/>
</svg>
