<svg width="20" height="20" viewBox="0 0 20 20" fill="none" xmlns="http://www.w3.org/2000/svg">
<path d="M18.5672 10.4422L16.0672 12.9422C15.9499 13.0594 15.7909 13.1253 15.625 13.1253C15.4592 13.1253 15.3001 13.0594 15.1828 12.9422C15.0655 12.8249 14.9997 12.6658 14.9997 12.5C14.9997 12.3341 15.0655 12.1751 15.1828 12.0578L16.6164 10.625H3.3836L4.81719 12.0578C4.93447 12.1751 5.00035 12.3341 5.00035 12.5C5.00035 12.6658 4.93447 12.8249 4.81719 12.9422C4.69992 13.0594 4.54086 13.1253 4.375 13.1253C4.20915 13.1253 4.05009 13.0594 3.93282 12.9422L1.43282 10.4422C1.37471 10.3841 1.32861 10.3152 1.29715 10.2393C1.2657 10.1634 1.24951 10.0821 1.24951 9.99998C1.24951 9.91785 1.2657 9.83652 1.29715 9.76064C1.32861 9.68477 1.37471 9.61584 1.43282 9.55779L3.93282 7.05779C4.05009 6.94052 4.20915 6.87463 4.375 6.87463C4.54086 6.87463 4.69992 6.94052 4.81719 7.05779C4.93447 7.17507 5.00035 7.33413 5.00035 7.49998C5.00035 7.66583 4.93447 7.82489 4.81719 7.94217L3.3836 9.37498H16.6164L15.1828 7.94217C15.0655 7.82489 14.9997 7.66583 14.9997 7.49998C14.9997 7.33413 15.0655 7.17507 15.1828 7.05779C15.3001 6.94052 15.4592 6.87463 15.625 6.87463C15.7909 6.87463 15.9499 6.94052 16.0672 7.05779L18.5672 9.55779C18.6253 9.61584 18.6714 9.68477 18.7029 9.76064C18.7343 9.83652 18.7505 9.91785 18.7505 9.99998C18.7505 10.0821 18.7343 10.1634 18.7029 10.2393C18.6714 10.3152 18.6253 10.3841 18.5672 10.4422Z" fill="#191F2E"/>
</svg>
