<svg width="20" height="20" viewBox="0 0 20 20" fill="none" xmlns="http://www.w3.org/2000/svg">
<path d="M17.9422 12.9422L14.1922 16.6922C14.1341 16.7503 14.0652 16.7964 13.9893 16.8279C13.9135 16.8593 13.8321 16.8755 13.75 16.8755C13.6679 16.8755 13.5865 16.8593 13.5107 16.8279C13.4348 16.7964 13.3659 16.7503 13.3078 16.6922L9.55781 12.9422C9.4703 12.8548 9.4107 12.7434 9.38654 12.6221C9.36239 12.5008 9.37477 12.375 9.42211 12.2608C9.46946 12.1465 9.54964 12.0488 9.65251 11.9802C9.75538 11.9115 9.87632 11.8749 10 11.875H13.125V5.625H2.5C2.33424 5.625 2.17527 5.55915 2.05806 5.44194C1.94085 5.32473 1.875 5.16576 1.875 5C1.875 4.83424 1.94085 4.67527 2.05806 4.55806C2.17527 4.44085 2.33424 4.375 2.5 4.375H13.75C13.9158 4.375 14.0747 4.44085 14.1919 4.55806C14.3092 4.67527 14.375 4.83424 14.375 5V11.875H17.5C17.6237 11.8749 17.7446 11.9115 17.8475 11.9802C17.9504 12.0488 18.0305 12.1465 18.0779 12.2608C18.1252 12.375 18.1376 12.5008 18.1135 12.6221C18.0893 12.7434 18.0297 12.8548 17.9422 12.9422Z" fill="#191F2E"/>
</svg>
