<svg width="20" height="20" viewBox="0 0 20 20" fill="none" xmlns="http://www.w3.org/2000/svg">
<path d="M6.69219 11.4328C6.80947 11.5501 6.87535 11.7092 6.87535 11.875C6.87535 12.0409 6.80947 12.1999 6.69219 12.3172C6.57492 12.4345 6.41586 12.5004 6.25 12.5004C6.08415 12.5004 5.92509 12.4345 5.80782 12.3172L2.05782 8.56719C1.99971 8.50915 1.95361 8.44022 1.92215 8.36434C1.8907 8.28847 1.87451 8.20714 1.87451 8.125C1.87451 8.04287 1.8907 7.96154 1.92215 7.88567C1.95361 7.80979 1.99971 7.74086 2.05782 7.68282L5.80782 3.93282C5.92509 3.81554 6.08415 3.74966 6.25 3.74966C6.41586 3.74966 6.57492 3.81554 6.69219 3.93282C6.80947 4.05009 6.87535 4.20915 6.87535 4.375C6.87535 4.54086 6.80947 4.69992 6.69219 4.81719L3.3836 8.125L6.69219 11.4328ZM10.625 7.52344V4.375C10.6251 4.25132 10.5885 4.13039 10.5198 4.02752C10.4512 3.92464 10.3535 3.84446 10.2392 3.79711C10.125 3.74977 9.99924 3.73739 9.87794 3.76155C9.75663 3.7857 9.64523 3.84531 9.55782 3.93282L5.80782 7.68282C5.74971 7.74086 5.70361 7.80979 5.67215 7.88567C5.6407 7.96154 5.62451 8.04287 5.62451 8.125C5.62451 8.20714 5.6407 8.28847 5.67215 8.36434C5.70361 8.44022 5.74971 8.50915 5.80782 8.56719L9.55782 12.3172C9.64523 12.4047 9.75663 12.4643 9.87794 12.4885C9.99924 12.5126 10.125 12.5002 10.2392 12.4529C10.3535 12.4055 10.4512 12.3254 10.5198 12.2225C10.5885 12.1196 10.6251 11.9987 10.625 11.875V8.77891C12.3323 8.93672 13.9192 9.72598 15.0751 10.9922C16.2311 12.2584 16.8729 13.9105 16.875 15.625C16.875 15.7908 16.9409 15.9497 17.0581 16.0669C17.1753 16.1842 17.3342 16.25 17.5 16.25C17.6658 16.25 17.8247 16.1842 17.9419 16.0669C18.0592 15.9497 18.125 15.7908 18.125 15.625C18.1224 13.579 17.3492 11.609 15.9592 10.1076C14.5693 8.60622 12.6647 7.68355 10.625 7.52344Z" fill="#191F2E"/>
</svg>
