<svg width="20" height="20" viewBox="0 0 20 20" fill="none" xmlns="http://www.w3.org/2000/svg">
<path d="M3.75 3.125V16.875C3.75 17.0408 3.68415 17.1997 3.56694 17.3169C3.44973 17.4342 3.29076 17.5 3.125 17.5C2.95924 17.5 2.80027 17.4342 2.68306 17.3169C2.56585 17.1997 2.5 17.0408 2.5 16.875V3.125C2.5 2.95924 2.56585 2.80027 2.68306 2.68306C2.80027 2.56585 2.95924 2.5 3.125 2.5C3.29076 2.5 3.44973 2.56585 3.56694 2.68306C3.68415 2.80027 3.75 2.95924 3.75 3.125ZM17.5 9.375H11.875V4.375C11.8751 4.25132 11.8385 4.13038 11.7698 4.02751C11.7012 3.92464 11.6035 3.84446 11.4892 3.79711C11.375 3.74977 11.2492 3.73739 11.1279 3.76154C11.0066 3.7857 10.8952 3.84531 10.8078 3.93281L5.18281 9.55781C5.1247 9.61586 5.0786 9.68479 5.04715 9.76066C5.0157 9.83654 4.99951 9.91787 4.99951 10C4.99951 10.0821 5.0157 10.1635 5.04715 10.2393C5.0786 10.3152 5.1247 10.3841 5.18281 10.4422L10.8078 16.0672C10.8952 16.1547 11.0066 16.2143 11.1279 16.2385C11.2492 16.2626 11.375 16.2502 11.4892 16.2029C11.6035 16.1555 11.7012 16.0754 11.7698 15.9725C11.8385 15.8696 11.8751 15.7487 11.875 15.625V10.625H17.5C17.6658 10.625 17.8247 10.5592 17.9419 10.4419C18.0592 10.3247 18.125 10.1658 18.125 10C18.125 9.83424 18.0592 9.67527 17.9419 9.55806C17.8247 9.44085 17.6658 9.375 17.5 9.375Z" fill="#191F2E"/>
</svg>
