<svg width="20" height="20" viewBox="0 0 20 20" fill="none" xmlns="http://www.w3.org/2000/svg">
<path d="M18.1633 13.1633L14.4133 16.9133C14.3262 17.0007 14.2227 17.07 14.1087 17.1173C13.9948 17.1647 13.8726 17.189 13.7492 17.189C13.6258 17.189 13.5037 17.1647 13.3897 17.1173C13.2757 17.07 13.1723 17.0007 13.0852 16.9133L9.33516 13.1633C9.24795 13.0761 9.17877 12.9725 9.13158 12.8586C9.08438 12.7447 9.06009 12.6225 9.06009 12.4992C9.06009 12.3759 9.08438 12.2538 9.13158 12.1398C9.17877 12.0259 9.24795 11.9224 9.33516 11.8352C9.42236 11.748 9.52589 11.6788 9.63983 11.6316C9.75377 11.5844 9.87589 11.5601 9.99922 11.5601C10.1225 11.5601 10.2447 11.5844 10.3586 11.6316C10.4725 11.6788 10.5761 11.748 10.6633 11.8352L12.8125 13.9844V5.9375H2.5C2.25136 5.9375 2.0129 5.83873 1.83709 5.66291C1.66127 5.4871 1.5625 5.24864 1.5625 5C1.5625 4.75136 1.66127 4.5129 1.83709 4.33709C2.0129 4.16127 2.25136 4.0625 2.5 4.0625H13.75C13.9986 4.0625 14.2371 4.16127 14.4129 4.33709C14.5887 4.5129 14.6875 4.75136 14.6875 5V13.9844L16.8367 11.8344C16.9239 11.7472 17.0275 11.678 17.1414 11.6308C17.2553 11.5836 17.3775 11.5593 17.5008 11.5593C17.6241 11.5593 17.7462 11.5836 17.8602 11.6308C17.9741 11.678 18.0776 11.7472 18.1648 11.8344C18.252 11.9216 18.3212 12.0251 18.3684 12.139C18.4156 12.253 18.4399 12.3751 18.4399 12.4984C18.4399 12.6218 18.4156 12.7439 18.3684 12.8578C18.3212 12.9718 18.252 13.0753 18.1648 13.1625L18.1633 13.1633Z" fill="#191F2E"/>
</svg>
