<svg width="20" height="20" viewBox="0 0 20 20" fill="none" xmlns="http://www.w3.org/2000/svg">
<path d="M17.8125 8.125C17.8125 8.37364 17.7137 8.6121 17.5379 8.78791C17.3621 8.96373 17.1236 9.0625 16.875 9.0625C16.6264 9.0625 16.3879 8.96373 16.2121 8.78791C16.0363 8.6121 15.9375 8.37364 15.9375 8.125V5.39062L11.2883 10.0398C11.1122 10.216 10.8733 10.3149 10.6242 10.3149C10.3751 10.3149 10.1363 10.216 9.96016 10.0398C9.78404 9.86372 9.68509 9.62485 9.68509 9.37578C9.68509 9.12671 9.78404 8.88784 9.96016 8.71172L14.6094 4.0625H11.875C11.6264 4.0625 11.3879 3.96373 11.2121 3.78791C11.0363 3.6121 10.9375 3.37364 10.9375 3.125C10.9375 2.87636 11.0363 2.6379 11.2121 2.46209C11.3879 2.28627 11.6264 2.1875 11.875 2.1875H16.875C17.1236 2.1875 17.3621 2.28627 17.5379 2.46209C17.7137 2.6379 17.8125 2.87636 17.8125 3.125V8.125ZM14.375 10C14.1264 10 13.8879 10.0988 13.7121 10.2746C13.5363 10.4504 13.4375 10.6889 13.4375 10.9375V15.9375H4.0625V6.5625H9.0625C9.31114 6.5625 9.5496 6.46373 9.72541 6.28791C9.90123 6.1121 10 5.87364 10 5.625C10 5.37636 9.90123 5.1379 9.72541 4.96209C9.5496 4.78627 9.31114 4.6875 9.0625 4.6875H3.75C3.3356 4.6875 2.93817 4.85212 2.64515 5.14515C2.35212 5.43817 2.1875 5.8356 2.1875 6.25V16.25C2.1875 16.6644 2.35212 17.0618 2.64515 17.3549C2.93817 17.6479 3.3356 17.8125 3.75 17.8125H13.75C14.1644 17.8125 14.5618 17.6479 14.8549 17.3549C15.1479 17.0618 15.3125 16.6644 15.3125 16.25V10.9375C15.3125 10.6889 15.2137 10.4504 15.0379 10.2746C14.8621 10.0988 14.6236 10 14.375 10Z" fill="#191F2E"/>
</svg>
