<svg width="20" height="20" viewBox="0 0 20 20" fill="none" xmlns="http://www.w3.org/2000/svg">
<path d="M18.4375 4.375C18.435 6.612 17.5453 8.75667 15.9635 10.3385C14.3817 11.9203 12.237 12.81 10 12.8125H4.76563L6.91563 14.9617C7.09175 15.1378 7.1907 15.3767 7.1907 15.6258C7.1907 15.8749 7.09175 16.1137 6.91563 16.2898C6.73951 16.466 6.50064 16.5649 6.25157 16.5649C6.0025 16.5649 5.76363 16.466 5.58751 16.2898L1.83751 12.5398C1.75011 12.4527 1.68076 12.3493 1.63344 12.2353C1.58612 12.1213 1.56177 11.9992 1.56177 11.8758C1.56177 11.7524 1.58612 11.6302 1.63344 11.5163C1.68076 11.4023 1.75011 11.2988 1.83751 11.2117L5.58751 7.46172C5.67471 7.37451 5.77824 7.30534 5.89218 7.25814C6.00612 7.21095 6.12824 7.18665 6.25157 7.18665C6.3749 7.18665 6.49702 7.21095 6.61096 7.25814C6.7249 7.30534 6.82843 7.37451 6.91563 7.46172C7.00284 7.54892 7.07201 7.65245 7.11921 7.76639C7.1664 7.88033 7.1907 8.00245 7.1907 8.12578C7.1907 8.24911 7.1664 8.37123 7.11921 8.48517C7.07201 8.59911 7.00284 8.70264 6.91563 8.78984L4.76563 10.9375H10C11.7399 10.9356 13.408 10.2436 14.6383 9.01333C15.8686 7.78303 16.5606 6.11491 16.5625 4.375C16.5625 4.12636 16.6613 3.8879 16.8371 3.71209C17.0129 3.53627 17.2514 3.4375 17.5 3.4375C17.7486 3.4375 17.9871 3.53627 18.1629 3.71209C18.3387 3.8879 18.4375 4.12636 18.4375 4.375Z" fill="#191F2E"/>
</svg>
