<svg width="20" height="20" viewBox="0 0 20 20" fill="none" xmlns="http://www.w3.org/2000/svg">
<path d="M16.25 2.5H3.75C3.41848 2.5 3.10054 2.6317 2.86612 2.86612C2.6317 3.10054 2.5 3.41848 2.5 3.75V16.25C2.5 16.5815 2.6317 16.8995 2.86612 17.1339C3.10054 17.3683 3.41848 17.5 3.75 17.5H16.25C16.5815 17.5 16.8995 17.3683 17.1339 17.1339C17.3683 16.8995 17.5 16.5815 17.5 16.25V3.75C17.5 3.41848 17.3683 3.10054 17.1339 2.86612C16.8995 2.6317 16.5815 2.5 16.25 2.5ZM16.25 16.25H3.75V3.75H16.25V16.25ZM7.05781 9.81719C6.9997 9.75914 6.9536 9.69021 6.92215 9.61434C6.8907 9.53846 6.87451 9.45713 6.87451 9.375C6.87451 9.29287 6.8907 9.21154 6.92215 9.13566C6.9536 9.05979 6.9997 8.99086 7.05781 8.93281L9.55781 6.43281C9.61586 6.3747 9.68479 6.3286 9.76066 6.29715C9.83654 6.2657 9.91787 6.24951 10 6.24951C10.0821 6.24951 10.1635 6.2657 10.2393 6.29715C10.3152 6.3286 10.3841 6.3747 10.4422 6.43281L12.9422 8.93281C13.0003 8.99088 13.0463 9.05982 13.0777 9.13569C13.1092 9.21156 13.1253 9.29288 13.1253 9.375C13.1253 9.45712 13.1092 9.53844 13.0777 9.61431C13.0463 9.69018 13.0003 9.75912 12.9422 9.81719C12.8841 9.87526 12.8152 9.92132 12.7393 9.95275C12.6634 9.98417 12.5821 10.0003 12.5 10.0003C12.4179 10.0003 12.3366 9.98417 12.2607 9.95275C12.1848 9.92132 12.1159 9.87526 12.0578 9.81719L10.625 8.38359V13.125C10.625 13.2908 10.5592 13.4497 10.4419 13.5669C10.3247 13.6842 10.1658 13.75 10 13.75C9.83424 13.75 9.67527 13.6842 9.55806 13.5669C9.44085 13.4497 9.375 13.2908 9.375 13.125V8.38359L7.94219 9.81719C7.88414 9.8753 7.81521 9.9214 7.73934 9.95285C7.66346 9.9843 7.58213 10.0005 7.5 10.0005C7.41787 10.0005 7.33654 9.9843 7.26066 9.95285C7.18479 9.9214 7.11586 9.8753 7.05781 9.81719Z" fill="#191F2E"/>
</svg>
