<svg width="20" height="20" viewBox="0 0 20 20" fill="none" xmlns="http://www.w3.org/2000/svg">
<path d="M17.1875 3.75V7.5C17.1875 7.74864 17.0887 7.9871 16.9129 8.16291C16.7371 8.33873 16.4986 8.4375 16.25 8.4375C16.0014 8.4375 15.7629 8.33873 15.5871 8.16291C15.4113 7.9871 15.3125 7.74864 15.3125 7.5V6.01562L12.2258 9.10312C12.0497 9.27924 11.8108 9.37819 11.5617 9.37819C11.3126 9.37819 11.0738 9.27924 10.8977 9.10312C10.7215 8.927 10.6226 8.68813 10.6226 8.43906C10.6226 8.18999 10.7215 7.95112 10.8977 7.775L13.9844 4.6875H12.5C12.2514 4.6875 12.0129 4.58873 11.8371 4.41291C11.6613 4.2371 11.5625 3.99864 11.5625 3.75C11.5625 3.50136 11.6613 3.2629 11.8371 3.08709C12.0129 2.91127 12.2514 2.8125 12.5 2.8125H16.25C16.4986 2.8125 16.7371 2.91127 16.9129 3.08709C17.0887 3.2629 17.1875 3.50136 17.1875 3.75ZM7.77422 10.8992L4.6875 13.9844V12.5C4.6875 12.2514 4.58873 12.0129 4.41291 11.8371C4.2371 11.6613 3.99864 11.5625 3.75 11.5625C3.50136 11.5625 3.2629 11.6613 3.08709 11.8371C2.91127 12.0129 2.8125 12.2514 2.8125 12.5V16.25C2.8125 16.4986 2.91127 16.7371 3.08709 16.9129C3.2629 17.0887 3.50136 17.1875 3.75 17.1875H7.5C7.74864 17.1875 7.9871 17.0887 8.16291 16.9129C8.33873 16.7371 8.4375 16.4986 8.4375 16.25C8.4375 16.0014 8.33873 15.7629 8.16291 15.5871C7.9871 15.4113 7.74864 15.3125 7.5 15.3125H6.01562L9.10312 12.2258C9.27924 12.0497 9.37819 11.8108 9.37819 11.5617C9.37819 11.3126 9.27924 11.0738 9.10312 10.8977C8.927 10.7215 8.68813 10.6226 8.43906 10.6226C8.18999 10.6226 7.95112 10.7215 7.775 10.8977L7.77422 10.8992Z" fill="#191F2E"/>
</svg>
