<svg width="20" height="20" viewBox="0 0 20 20" fill="none" xmlns="http://www.w3.org/2000/svg">
<path d="M10 1.5625C8.33122 1.5625 6.69992 2.05735 5.31238 2.98448C3.92484 3.9116 2.84338 5.22936 2.20477 6.77111C1.56616 8.31286 1.39907 10.0094 1.72463 11.6461C2.05019 13.2828 2.85379 14.7862 4.03379 15.9662C5.2138 17.1462 6.71721 17.9498 8.35393 18.2754C9.99064 18.6009 11.6871 18.4338 13.2289 17.7952C14.7706 17.1566 16.0884 16.0752 17.0155 14.6876C17.9427 13.3001 18.4375 11.6688 18.4375 10C18.435 7.763 17.5453 5.61833 15.9635 4.03653C14.3817 2.45473 12.237 1.56498 10 1.5625ZM10 16.5625C8.70206 16.5625 7.43327 16.1776 6.35407 15.4565C5.27488 14.7354 4.43374 13.7105 3.93704 12.5114C3.44034 11.3122 3.31038 9.99272 3.5636 8.71972C3.81682 7.44672 4.44183 6.27739 5.35962 5.35961C6.2774 4.44183 7.44672 3.81681 8.71972 3.5636C9.99272 3.31038 11.3122 3.44034 12.5114 3.93704C13.7105 4.43374 14.7354 5.27487 15.4565 6.35407C16.1776 7.43327 16.5625 8.70206 16.5625 10C16.5606 11.7399 15.8686 13.408 14.6383 14.6383C13.408 15.8686 11.7399 16.5606 10 16.5625ZM13.1633 9.96172C13.2507 10.0488 13.32 10.1523 13.3673 10.2663C13.4147 10.3802 13.439 10.5024 13.439 10.6258C13.439 10.7492 13.4147 10.8713 13.3673 10.9853C13.32 11.0993 13.2507 11.2027 13.1633 11.2898L10.6633 13.7898C10.5762 13.8772 10.4727 13.9466 10.3587 13.9939C10.2448 14.0412 10.1226 14.0656 9.99922 14.0656C9.87583 14.0656 9.75366 14.0412 9.6397 13.9939C9.52575 13.9466 9.42226 13.8772 9.33516 13.7898L6.83516 11.2898C6.74795 11.2026 6.67878 11.0991 6.63158 10.9852C6.58439 10.8712 6.5601 10.7491 6.5601 10.6258C6.5601 10.5025 6.58439 10.3803 6.63158 10.2664C6.67878 10.1525 6.74795 10.0489 6.83516 9.96172C6.92237 9.87451 7.02589 9.80534 7.13983 9.75814C7.25377 9.71095 7.37589 9.68666 7.49922 9.68666C7.62255 9.68666 7.74467 9.71095 7.85861 9.75814C7.97255 9.80534 8.07608 9.87451 8.16328 9.96172L9.0625 10.8594V6.875C9.0625 6.62636 9.16128 6.3879 9.33709 6.21209C9.51291 6.03627 9.75136 5.9375 10 5.9375C10.2486 5.9375 10.4871 6.03627 10.6629 6.21209C10.8387 6.3879 10.9375 6.62636 10.9375 6.875V10.8594L11.8367 9.95938C11.9239 9.87236 12.0275 9.8034 12.1414 9.75642C12.2553 9.70944 12.3773 9.68537 12.5005 9.68559C12.6237 9.68581 12.7456 9.71031 12.8594 9.75769C12.9731 9.80507 13.0764 9.8744 13.1633 9.96172Z" fill="#191F2E"/>
</svg>
