<svg width="20" height="20" viewBox="0 0 20 20" fill="none" xmlns="http://www.w3.org/2000/svg">
<path d="M11.25 8.12498V4.99998C11.25 4.83422 11.3159 4.67525 11.4331 4.55804C11.5503 4.44083 11.7093 4.37498 11.875 4.37498C12.0408 4.37498 12.1997 4.44083 12.317 4.55804C12.4342 4.67525 12.5 4.83422 12.5 4.99998V6.61639L15.8078 3.30779C15.9251 3.19052 16.0842 3.12463 16.25 3.12463C16.4159 3.12463 16.5749 3.19052 16.6922 3.30779C16.8095 3.42507 16.8754 3.58413 16.8754 3.74998C16.8754 3.91583 16.8095 4.07489 16.6922 4.19217L13.3836 7.49998H15C15.1658 7.49998 15.3247 7.56583 15.442 7.68304C15.5592 7.80025 15.625 7.95922 15.625 8.12498C15.625 8.29074 15.5592 8.44971 15.442 8.56692C15.3247 8.68413 15.1658 8.74998 15 8.74998H11.875C11.7093 8.74998 11.5503 8.68413 11.4331 8.56692C11.3159 8.44971 11.25 8.29074 11.25 8.12498ZM8.12501 11.25H5.00001C4.83425 11.25 4.67528 11.3158 4.55807 11.433C4.44086 11.5502 4.37501 11.7092 4.37501 11.875C4.37501 12.0407 4.44086 12.1997 4.55807 12.3169C4.67528 12.4341 4.83425 12.5 5.00001 12.5H6.61642L3.30782 15.8078C3.19055 15.9251 3.12466 16.0841 3.12466 16.25C3.12466 16.4158 3.19055 16.5749 3.30782 16.6922C3.4251 16.8094 3.58416 16.8753 3.75001 16.8753C3.91586 16.8753 4.07492 16.8094 4.1922 16.6922L7.50001 13.3836V15C7.50001 15.1657 7.56586 15.3247 7.68307 15.4419C7.80028 15.5591 7.95925 15.625 8.12501 15.625C8.29077 15.625 8.44974 15.5591 8.56695 15.4419C8.68416 15.3247 8.75001 15.1657 8.75001 15V11.875C8.75001 11.7092 8.68416 11.5502 8.56695 11.433C8.44974 11.3158 8.29077 11.25 8.12501 11.25ZM13.3836 12.5H15C15.1658 12.5 15.3247 12.4341 15.442 12.3169C15.5592 12.1997 15.625 12.0407 15.625 11.875C15.625 11.7092 15.5592 11.5502 15.442 11.433C15.3247 11.3158 15.1658 11.25 15 11.25H11.875C11.7093 11.25 11.5503 11.3158 11.4331 11.433C11.3159 11.5502 11.25 11.7092 11.25 11.875V15C11.25 15.1657 11.3159 15.3247 11.4331 15.4419C11.5503 15.5591 11.7093 15.625 11.875 15.625C12.0408 15.625 12.1997 15.5591 12.317 15.4419C12.4342 15.3247 12.5 15.1657 12.5 15V13.3836L15.8078 16.6922C15.8659 16.7502 15.9348 16.7963 16.0107 16.8277C16.0866 16.8592 16.1679 16.8753 16.25 16.8753C16.3321 16.8753 16.4135 16.8592 16.4893 16.8277C16.5652 16.7963 16.6341 16.7502 16.6922 16.6922C16.7503 16.6341 16.7963 16.5652 16.8278 16.4893C16.8592 16.4134 16.8754 16.3321 16.8754 16.25C16.8754 16.1679 16.8592 16.0865 16.8278 16.0107C16.7963 15.9348 16.7503 15.8659 16.6922 15.8078L13.3836 12.5ZM8.12501 4.37498C7.95925 4.37498 7.80028 4.44083 7.68307 4.55804C7.56586 4.67525 7.50001 4.83422 7.50001 4.99998V6.61639L4.1922 3.30779C4.07492 3.19052 3.91586 3.12463 3.75001 3.12463C3.58416 3.12463 3.4251 3.19052 3.30782 3.30779C3.19055 3.42507 3.12466 3.58413 3.12466 3.74998C3.12466 3.91583 3.19055 4.07489 3.30782 4.19217L6.61642 7.49998H5.00001C4.83425 7.49998 4.67528 7.56583 4.55807 7.68304C4.44086 7.80025 4.37501 7.95922 4.37501 8.12498C4.37501 8.29074 4.44086 8.44971 4.55807 8.56692C4.67528 8.68413 4.83425 8.74998 5.00001 8.74998H8.12501C8.29077 8.74998 8.44974 8.68413 8.56695 8.56692C8.68416 8.44971 8.75001 8.29074 8.75001 8.12498V4.99998C8.75001 4.83422 8.68416 4.67525 8.56695 4.55804C8.44974 4.44083 8.29077 4.37498 8.12501 4.37498Z" fill="#191F2E"/>
</svg>
