<svg width="20" height="20" viewBox="0 0 20 20" fill="none" xmlns="http://www.w3.org/2000/svg">
<path d="M17.5 3.125C17.5 3.29076 17.4342 3.44973 17.3169 3.56694C17.1997 3.68415 17.0408 3.75 16.875 3.75H3.125C2.95924 3.75 2.80027 3.68415 2.68306 3.56694C2.56585 3.44973 2.5 3.29076 2.5 3.125C2.5 2.95924 2.56585 2.80027 2.68306 2.68306C2.80027 2.56585 2.95924 2.5 3.125 2.5H16.875C17.0408 2.5 17.1997 2.56585 17.3169 2.68306C17.4342 2.80027 17.5 2.95924 17.5 3.125ZM13.3078 6.43281L5.625 14.1164V8.125C5.625 7.95924 5.55915 7.80027 5.44194 7.68306C5.32473 7.56585 5.16576 7.5 5 7.5C4.83424 7.5 4.67527 7.56585 4.55806 7.68306C4.44085 7.80027 4.375 7.95924 4.375 8.125V15.625C4.375 15.7908 4.44085 15.9497 4.55806 16.0669C4.67527 16.1842 4.83424 16.25 5 16.25H12.5C12.6658 16.25 12.8247 16.1842 12.9419 16.0669C13.0592 15.9497 13.125 15.7908 13.125 15.625C13.125 15.4592 13.0592 15.3003 12.9419 15.1831C12.8247 15.0658 12.6658 15 12.5 15H6.50859L14.1922 7.31719C14.2503 7.25912 14.2963 7.19018 14.3277 7.11431C14.3592 7.03844 14.3753 6.95712 14.3753 6.875C14.3753 6.79288 14.3592 6.71156 14.3277 6.63569C14.2963 6.55982 14.2503 6.49088 14.1922 6.43281C14.1341 6.37474 14.0652 6.32868 13.9893 6.29725C13.9134 6.26583 13.8321 6.24965 13.75 6.24965C13.6679 6.24965 13.5866 6.26583 13.5107 6.29725C13.4348 6.32868 13.3659 6.37474 13.3078 6.43281Z" fill="#191F2E"/>
</svg>
