<svg width="20" height="20" viewBox="0 0 20 20" fill="none" xmlns="http://www.w3.org/2000/svg">
<path d="M7.05782 4.81719C6.99971 4.75915 6.95361 4.69021 6.92215 4.61434C6.8907 4.53847 6.87451 4.45714 6.87451 4.375C6.87451 4.29287 6.8907 4.21154 6.92215 4.13567C6.95361 4.05979 6.99971 3.99086 7.05782 3.93282L9.55782 1.43282C9.61586 1.37471 9.68479 1.32861 9.76067 1.29715C9.83654 1.2657 9.91787 1.24951 10 1.24951C10.0821 1.24951 10.1635 1.2657 10.2393 1.29715C10.3152 1.32861 10.3841 1.37471 10.4422 1.43282L12.9422 3.93282C13.0595 4.05009 13.1254 4.20915 13.1254 4.375C13.1254 4.54086 13.0595 4.69992 12.9422 4.81719C12.8249 4.93447 12.6659 5.00035 12.5 5.00035C12.3342 5.00035 12.1751 4.93447 12.0578 4.81719L10.625 3.3836V7.5C10.625 7.66576 10.5592 7.82473 10.4419 7.94195C10.3247 8.05916 10.1658 8.125 10 8.125C9.83424 8.125 9.67527 8.05916 9.55806 7.94195C9.44085 7.82473 9.375 7.66576 9.375 7.5V3.3836L7.94219 4.81719C7.88415 4.8753 7.81522 4.9214 7.73934 4.95285C7.66347 4.98431 7.58214 5.0005 7.5 5.0005C7.41787 5.0005 7.33654 4.98431 7.26067 4.95285C7.18479 4.9214 7.11586 4.8753 7.05782 4.81719ZM12.0578 15.1828L10.625 16.6164V12.5C10.625 12.3342 10.5592 12.1753 10.4419 12.0581C10.3247 11.9409 10.1658 11.875 10 11.875C9.83424 11.875 9.67527 11.9409 9.55806 12.0581C9.44085 12.1753 9.375 12.3342 9.375 12.5V16.6164L7.94219 15.1828C7.82492 15.0655 7.66586 14.9997 7.5 14.9997C7.33415 14.9997 7.17509 15.0655 7.05782 15.1828C6.94054 15.3001 6.87466 15.4592 6.87466 15.625C6.87466 15.7909 6.94054 15.9499 7.05782 16.0672L9.55782 18.5672C9.61586 18.6253 9.68479 18.6714 9.76067 18.7029C9.83654 18.7343 9.91787 18.7505 10 18.7505C10.0821 18.7505 10.1635 18.7343 10.2393 18.7029C10.3152 18.6714 10.3841 18.6253 10.4422 18.5672L12.9422 16.0672C13.0595 15.9499 13.1254 15.7909 13.1254 15.625C13.1254 15.4592 13.0595 15.3001 12.9422 15.1828C12.8249 15.0655 12.6659 14.9997 12.5 14.9997C12.3342 14.9997 12.1751 15.0655 12.0578 15.1828ZM18.5672 9.55782L16.0672 7.05782C15.9499 6.94054 15.7909 6.87466 15.625 6.87466C15.4592 6.87466 15.3001 6.94054 15.1828 7.05782C15.0655 7.17509 14.9997 7.33415 14.9997 7.5C14.9997 7.66586 15.0655 7.82492 15.1828 7.94219L16.6164 9.375H12.5C12.3342 9.375 12.1753 9.44085 12.0581 9.55806C11.9409 9.67527 11.875 9.83424 11.875 10C11.875 10.1658 11.9409 10.3247 12.0581 10.4419C12.1753 10.5592 12.3342 10.625 12.5 10.625H16.6164L15.1828 12.0578C15.0655 12.1751 14.9997 12.3342 14.9997 12.5C14.9997 12.6659 15.0655 12.8249 15.1828 12.9422C15.3001 13.0595 15.4592 13.1254 15.625 13.1254C15.7909 13.1254 15.9499 13.0595 16.0672 12.9422L18.5672 10.4422C18.6253 10.3841 18.6714 10.3152 18.7029 10.2393C18.7343 10.1635 18.7505 10.0821 18.7505 10C18.7505 9.91787 18.7343 9.83654 18.7029 9.76067C18.6714 9.68479 18.6253 9.61586 18.5672 9.55782ZM3.3836 10.625H7.5C7.66576 10.625 7.82473 10.5592 7.94195 10.4419C8.05916 10.3247 8.125 10.1658 8.125 10C8.125 9.83424 8.05916 9.67527 7.94195 9.55806C7.82473 9.44085 7.66576 9.375 7.5 9.375H3.3836L4.81719 7.94219C4.93447 7.82492 5.00035 7.66586 5.00035 7.5C5.00035 7.33415 4.93447 7.17509 4.81719 7.05782C4.69992 6.94054 4.54086 6.87466 4.375 6.87466C4.20915 6.87466 4.05009 6.94054 3.93282 7.05782L1.43282 9.55782C1.37471 9.61586 1.32861 9.68479 1.29715 9.76067C1.2657 9.83654 1.24951 9.91787 1.24951 10C1.24951 10.0821 1.2657 10.1635 1.29715 10.2393C1.32861 10.3152 1.37471 10.3841 1.43282 10.4422L3.93282 12.9422C4.05009 13.0595 4.20915 13.1254 4.375 13.1254C4.54086 13.1254 4.69992 13.0595 4.81719 12.9422C4.93447 12.8249 5.00035 12.6659 5.00035 12.5C5.00035 12.3342 4.93447 12.1751 4.81719 12.0578L3.3836 10.625Z" fill="#191F2E"/>
</svg>
