<svg width="20" height="20" viewBox="0 0 20 20" fill="none" xmlns="http://www.w3.org/2000/svg">
<path d="M10 1.5625C8.33122 1.5625 6.69992 2.05735 5.31238 2.98448C3.92484 3.9116 2.84338 5.22936 2.20477 6.77111C1.56616 8.31286 1.39907 10.0094 1.72463 11.6461C2.05019 13.2828 2.85379 14.7862 4.03379 15.9662C5.2138 17.1462 6.71721 17.9498 8.35393 18.2754C9.99064 18.6009 11.6871 18.4338 13.2289 17.7952C14.7706 17.1566 16.0884 16.0752 17.0155 14.6876C17.9427 13.3001 18.4375 11.6688 18.4375 10C18.435 7.763 17.5453 5.61833 15.9635 4.03653C14.3817 2.45473 12.237 1.56498 10 1.5625ZM10 16.5625C8.70206 16.5625 7.43327 16.1776 6.35407 15.4565C5.27488 14.7354 4.43374 13.7105 3.93704 12.5114C3.44034 11.3122 3.31038 9.99272 3.5636 8.71972C3.81682 7.44672 4.44183 6.27739 5.35962 5.35961C6.2774 4.44183 7.44672 3.81681 8.71972 3.5636C9.99272 3.31038 11.3122 3.44034 12.5114 3.93704C13.7105 4.43374 14.7354 5.27487 15.4565 6.35407C16.1776 7.43327 16.5625 8.70206 16.5625 10C16.5606 11.7399 15.8686 13.408 14.6383 14.6383C13.408 15.8686 11.7399 16.5606 10 16.5625ZM13.7883 9.33672C13.8757 9.42382 13.945 9.52731 13.9923 9.64126C14.0397 9.75522 14.064 9.87739 14.064 10.0008C14.064 10.1242 14.0397 10.2463 13.9923 10.3603C13.945 10.4743 13.8757 10.5777 13.7883 10.6648L11.2883 13.1648C11.2011 13.252 11.0976 13.3212 10.9836 13.3684C10.8697 13.4156 10.7476 13.4399 10.6242 13.4399C10.5009 13.4399 10.3788 13.4156 10.2648 13.3684C10.1509 13.3212 10.0474 13.252 9.96016 13.1648C9.87295 13.0776 9.80378 12.9741 9.75658 12.8602C9.70939 12.7462 9.6851 12.6241 9.6851 12.5008C9.6851 12.3775 9.70939 12.2553 9.75658 12.1414C9.80378 12.0275 9.87295 11.9239 9.96016 11.8367L10.8594 10.9375H6.875C6.62636 10.9375 6.38791 10.8387 6.21209 10.6629C6.03628 10.4871 5.9375 10.2486 5.9375 10C5.9375 9.75136 6.03628 9.5129 6.21209 9.33709C6.38791 9.16127 6.62636 9.0625 6.875 9.0625H10.8594L9.95938 8.16328C9.87217 8.07608 9.803 7.97255 9.7558 7.85861C9.70861 7.74467 9.68431 7.62255 9.68431 7.49922C9.68431 7.37589 9.70861 7.25377 9.7558 7.13983C9.803 7.02589 9.87217 6.92236 9.95938 6.83516C10.0466 6.74795 10.1501 6.67877 10.2641 6.63158C10.378 6.58438 10.5001 6.56009 10.6234 6.56009C10.7468 6.56009 10.8689 6.58438 10.9828 6.63158C11.0968 6.67877 11.2003 6.74795 11.2875 6.83516L13.7883 9.33672Z" fill="#191F2E"/>
</svg>
