<svg width="20" height="20" viewBox="0 0 20 20" fill="none" xmlns="http://www.w3.org/2000/svg">
<path d="M17.4523 6.48907C17.4051 6.60328 17.325 6.70091 17.2222 6.7696C17.1194 6.8383 16.9986 6.87498 16.875 6.875H13.75V13.125C13.75 14.4511 13.2232 15.7229 12.2855 16.6605C11.3479 17.5982 10.0761 18.125 8.75 18.125C7.42392 18.125 6.15215 17.5982 5.21447 16.6605C4.27678 15.7229 3.75 14.4511 3.75 13.125V6.25C3.75 6.08424 3.81585 5.92527 3.93306 5.80806C4.05027 5.69085 4.20924 5.625 4.375 5.625C4.54076 5.625 4.69973 5.69085 4.81694 5.80806C4.93415 5.92527 5 6.08424 5 6.25V13.125C5 14.1196 5.39509 15.0734 6.09835 15.7767C6.80161 16.4799 7.75544 16.875 8.75 16.875C9.74456 16.875 10.6984 16.4799 11.4017 15.7767C12.1049 15.0734 12.5 14.1196 12.5 13.125V6.875H9.375C9.25132 6.8751 9.13038 6.8385 9.02751 6.76983C8.92464 6.70116 8.84446 6.60351 8.79711 6.48925C8.74977 6.37498 8.73739 6.24924 8.76154 6.12794C8.7857 6.00663 8.8453 5.89523 8.93281 5.80782L12.6828 2.05782C12.7409 1.99971 12.8098 1.95361 12.8857 1.92215C12.9615 1.8907 13.0429 1.87451 13.125 1.87451C13.2071 1.87451 13.2885 1.8907 13.3643 1.92215C13.4402 1.95361 13.5091 1.99971 13.5672 2.05782L17.3172 5.80782C17.4046 5.89527 17.464 6.00668 17.4881 6.12794C17.5122 6.2492 17.4997 6.37488 17.4523 6.48907Z" fill="#191F2E"/>
</svg>
