<svg width="20" height="20" viewBox="0 0 20 20" fill="none" xmlns="http://www.w3.org/2000/svg">
<path d="M10 1.875C8.39303 1.875 6.82214 2.35152 5.486 3.24431C4.14985 4.1371 3.10844 5.40605 2.49348 6.8907C1.87852 8.37535 1.71762 10.009 2.03112 11.5851C2.34463 13.1612 3.11846 14.6089 4.25476 15.7452C5.39106 16.8815 6.8388 17.6554 8.4149 17.9689C9.99099 18.2824 11.6247 18.1215 13.1093 17.5065C14.594 16.8916 15.8629 15.8502 16.7557 14.514C17.6485 13.1779 18.125 11.607 18.125 10C18.1227 7.84581 17.266 5.78051 15.7427 4.25727C14.2195 2.73403 12.1542 1.87727 10 1.875ZM12.9422 9.81719C12.8841 9.8753 12.8152 9.9214 12.7393 9.95285C12.6635 9.9843 12.5821 10.0005 12.5 10.0005C12.4179 10.0005 12.3365 9.9843 12.2607 9.95285C12.1848 9.9214 12.1159 9.8753 12.0578 9.81719L10.625 8.38359V13.125C10.625 13.2908 10.5592 13.4497 10.4419 13.5669C10.3247 13.6842 10.1658 13.75 10 13.75C9.83424 13.75 9.67527 13.6842 9.55806 13.5669C9.44085 13.4497 9.375 13.2908 9.375 13.125V8.38359L7.94219 9.81719C7.82492 9.93446 7.66586 10.0003 7.5 10.0003C7.33415 10.0003 7.17509 9.93446 7.05782 9.81719C6.94054 9.69991 6.87466 9.54085 6.87466 9.375C6.87466 9.20915 6.94054 9.05009 7.05782 8.93281L9.55782 6.43281C9.61586 6.3747 9.68479 6.3286 9.76067 6.29715C9.83654 6.2657 9.91787 6.24951 10 6.24951C10.0821 6.24951 10.1635 6.2657 10.2393 6.29715C10.3152 6.3286 10.3841 6.3747 10.4422 6.43281L12.9422 8.93281C13.0003 8.99086 13.0464 9.05979 13.0779 9.13566C13.1093 9.21154 13.1255 9.29287 13.1255 9.375C13.1255 9.45713 13.1093 9.53846 13.0779 9.61434C13.0464 9.69021 13.0003 9.75914 12.9422 9.81719Z" fill="#191F2E"/>
</svg>
