<svg width="20" height="20" viewBox="0 0 20 20" fill="none" xmlns="http://www.w3.org/2000/svg">
<path d="M15.4422 15.4422C15.3841 15.5003 15.3152 15.5464 15.2393 15.5779C15.1635 15.6093 15.0821 15.6255 15 15.6255C14.9179 15.6255 14.8365 15.6093 14.7607 15.5779C14.6848 15.5464 14.6159 15.5003 14.5578 15.4422L5.625 6.50859V13.125C5.625 13.2908 5.55915 13.4497 5.44194 13.5669C5.32473 13.6842 5.16576 13.75 5 13.75C4.83424 13.75 4.67527 13.6842 4.55806 13.5669C4.44085 13.4497 4.375 13.2908 4.375 13.125V5C4.375 4.83424 4.44085 4.67527 4.55806 4.55806C4.67527 4.44085 4.83424 4.375 5 4.375H13.125C13.2908 4.375 13.4497 4.44085 13.5669 4.55806C13.6842 4.67527 13.75 4.83424 13.75 5C13.75 5.16576 13.6842 5.32473 13.5669 5.44194C13.4497 5.55915 13.2908 5.625 13.125 5.625H6.50859L15.4422 14.5578C15.5003 14.6159 15.5464 14.6848 15.5779 14.7607C15.6093 14.8365 15.6255 14.9179 15.6255 15C15.6255 15.0821 15.6093 15.1635 15.5779 15.2393C15.5464 15.3152 15.5003 15.3841 15.4422 15.4422Z" fill="#191F2E"/>
</svg>
