<svg width="20" height="20" viewBox="0 0 20 20" fill="none" xmlns="http://www.w3.org/2000/svg">
<path d="M16.9133 4.41251L13.8281 7.50001H15.3125C15.5611 7.50001 15.7996 7.59879 15.9754 7.7746C16.1512 7.95042 16.25 8.18887 16.25 8.43752C16.25 8.68616 16.1512 8.92461 15.9754 9.10043C15.7996 9.27624 15.5611 9.37501 15.3125 9.37502H11.5625C11.3139 9.37501 11.0754 9.27624 10.8996 9.10043C10.7238 8.92461 10.625 8.68616 10.625 8.43752V4.68751C10.625 4.43887 10.7238 4.20042 10.8996 4.0246C11.0754 3.84879 11.3139 3.75001 11.5625 3.75001C11.8111 3.75001 12.0496 3.84879 12.2254 4.0246C12.4012 4.20042 12.5 4.43887 12.5 4.68751V6.17189L15.5867 3.08439C15.7628 2.90827 16.0017 2.80933 16.2508 2.80933C16.4998 2.80933 16.7387 2.90827 16.9148 3.08439C17.091 3.26051 17.1899 3.49938 17.1899 3.74845C17.1899 3.99752 17.091 4.23639 16.9148 4.41251H16.9133ZM8.43749 10.625H4.68749C4.43885 10.625 4.20039 10.7238 4.02458 10.8996C3.84876 11.0754 3.74999 11.3139 3.74999 11.5625C3.74999 11.8112 3.84876 12.0496 4.02458 12.2254C4.20039 12.4012 4.43885 12.5 4.68749 12.5H6.17187L3.08671 15.5867C2.91059 15.7629 2.81165 16.0017 2.81165 16.2508C2.81165 16.4999 2.91059 16.7387 3.08671 16.9149C3.26283 17.091 3.5017 17.1899 3.75077 17.1899C3.99984 17.1899 4.23871 17.091 4.41483 16.9149L7.49999 13.8281V15.3125C7.49999 15.5612 7.59876 15.7996 7.77458 15.9754C7.95039 16.1512 8.18885 16.25 8.43749 16.25C8.68613 16.25 8.92459 16.1512 9.1004 15.9754C9.27622 15.7996 9.37499 15.5612 9.37499 15.3125V11.5625C9.37499 11.3139 9.27622 11.0754 9.1004 10.8996C8.92459 10.7238 8.68613 10.625 8.43749 10.625Z" fill="#191F2E"/>
</svg>
