<svg width="20" height="20" viewBox="0 0 20 20" fill="none" xmlns="http://www.w3.org/2000/svg">
<path d="M16.0672 6.69219C16.0091 6.7503 15.9402 6.7964 15.8643 6.82785C15.7885 6.85931 15.7071 6.8755 15.625 6.8755C15.5429 6.8755 15.4615 6.85931 15.3857 6.82785C15.3098 6.7964 15.2409 6.7503 15.1828 6.69219L12.5 4.0086V10C12.4977 12.1542 11.641 14.2195 10.1177 15.7427C8.59449 17.266 6.52919 18.1227 4.375 18.125C4.20924 18.125 4.05027 18.0592 3.93306 17.9419C3.81585 17.8247 3.75 17.6658 3.75 17.5C3.75 17.3342 3.81585 17.1753 3.93306 17.0581C4.05027 16.9409 4.20924 16.875 4.375 16.875C6.19773 16.8729 7.94521 16.1479 9.23408 14.8591C10.5229 13.5702 11.2479 11.8227 11.25 10V4.0086L8.56719 6.69219C8.44991 6.80947 8.29085 6.87535 8.125 6.87535C7.95915 6.87535 7.80009 6.80947 7.68281 6.69219C7.56554 6.57492 7.49965 6.41586 7.49965 6.25C7.49965 6.08415 7.56554 5.92509 7.68281 5.80782L11.4328 2.05782C11.4909 1.99971 11.5598 1.95361 11.6357 1.92215C11.7115 1.8907 11.7929 1.87451 11.875 1.87451C11.9571 1.87451 12.0385 1.8907 12.1143 1.92215C12.1902 1.95361 12.2591 1.99971 12.3172 2.05782L16.0672 5.80782C16.1253 5.86586 16.1714 5.93479 16.2029 6.01067C16.2343 6.08654 16.2505 6.16787 16.2505 6.25C16.2505 6.33214 16.2343 6.41347 16.2029 6.48934C16.1714 6.56522 16.1253 6.63415 16.0672 6.69219Z" fill="#191F2E"/>
</svg>
