<svg width="20" height="20" viewBox="0 0 20 20" fill="none" xmlns="http://www.w3.org/2000/svg">
<path d="M18.5672 7.94219L11.0672 15.4422C11.0091 15.5003 10.9402 15.5464 10.8643 15.5779C10.7885 15.6093 10.7071 15.6255 10.625 15.6255C10.5429 15.6255 10.4615 15.6093 10.3857 15.5779C10.3098 15.5464 10.2409 15.5003 10.1828 15.4422L2.5 7.75859V11.875C2.5 12.0408 2.43415 12.1997 2.31694 12.3169C2.19973 12.4342 2.04076 12.5 1.875 12.5C1.70924 12.5 1.55027 12.4342 1.43306 12.3169C1.31585 12.1997 1.25 12.0408 1.25 11.875V6.25C1.25 6.08424 1.31585 5.92527 1.43306 5.80806C1.55027 5.69085 1.70924 5.625 1.875 5.625H7.5C7.66576 5.625 7.82473 5.69085 7.94194 5.80806C8.05915 5.92527 8.125 6.08424 8.125 6.25C8.125 6.41576 8.05915 6.57473 7.94194 6.69194C7.82473 6.80915 7.66576 6.875 7.5 6.875H3.38359L10.625 14.1164L17.6828 7.05781C17.7409 6.99974 17.8098 6.95368 17.8857 6.92225C17.9616 6.89083 18.0429 6.87465 18.125 6.87465C18.2071 6.87465 18.2884 6.89083 18.3643 6.92225C18.4402 6.95368 18.5091 6.99974 18.5672 7.05781C18.6253 7.11588 18.6713 7.18482 18.7027 7.26069C18.7342 7.33656 18.7503 7.41788 18.7503 7.5C18.7503 7.58212 18.7342 7.66344 18.7027 7.73931C18.6713 7.81518 18.6253 7.88412 18.5672 7.94219Z" fill="#191F2E"/>
</svg>
