<svg width="20" height="20" viewBox="0 0 20 20" fill="none" xmlns="http://www.w3.org/2000/svg">
<path d="M17.5 10C17.5 10.1658 17.4342 10.3247 17.3169 10.4419C17.1997 10.5592 17.0408 10.625 16.875 10.625H3.125C2.95924 10.625 2.80027 10.5592 2.68306 10.4419C2.56585 10.3247 2.5 10.1658 2.5 10C2.5 9.83424 2.56585 9.67527 2.68306 9.55806C2.80027 9.44085 2.95924 9.375 3.125 9.375H16.875C17.0408 9.375 17.1997 9.44085 17.3169 9.55806C17.4342 9.67527 17.5 9.83424 17.5 10ZM7.94219 4.19219L9.375 2.7586V7.5C9.375 7.66576 9.44085 7.82473 9.55806 7.94195C9.67527 8.05916 9.83424 8.125 10 8.125C10.1658 8.125 10.3247 8.05916 10.4419 7.94195C10.5592 7.82473 10.625 7.66576 10.625 7.5V2.7586L12.0578 4.19219C12.1751 4.30947 12.3341 4.37535 12.5 4.37535C12.6659 4.37535 12.8249 4.30947 12.9422 4.19219C13.0595 4.07492 13.1253 3.91586 13.1253 3.75C13.1253 3.58415 13.0595 3.42509 12.9422 3.30782L10.4422 0.807816C10.3841 0.749706 10.3152 0.703606 10.2393 0.672154C10.1635 0.640701 10.0821 0.624512 10 0.624512C9.91787 0.624512 9.83654 0.640701 9.76066 0.672154C9.68479 0.703606 9.61586 0.749706 9.55781 0.807816L7.05781 3.30782C6.94054 3.42509 6.87465 3.58415 6.87465 3.75C6.87465 3.91586 6.94054 4.07492 7.05781 4.19219C7.17509 4.30947 7.33415 4.37535 7.5 4.37535C7.66585 4.37535 7.82491 4.30947 7.94219 4.19219ZM12.0578 15.8078L10.625 17.2414V12.5C10.625 12.3342 10.5592 12.1753 10.4419 12.0581C10.3247 11.9409 10.1658 11.875 10 11.875C9.83424 11.875 9.67527 11.9409 9.55806 12.0581C9.44085 12.1753 9.375 12.3342 9.375 12.5V17.2414L7.94219 15.8078C7.82491 15.6905 7.66585 15.6247 7.5 15.6247C7.33415 15.6247 7.17509 15.6905 7.05781 15.8078C6.94054 15.9251 6.87465 16.0842 6.87465 16.25C6.87465 16.4159 6.94054 16.5749 7.05781 16.6922L9.55781 19.1922C9.61586 19.2503 9.68479 19.2964 9.76066 19.3279C9.83654 19.3593 9.91787 19.3755 10 19.3755C10.0821 19.3755 10.1635 19.3593 10.2393 19.3279C10.3152 19.2964 10.3841 19.2503 10.4422 19.1922L12.9422 16.6922C13.0595 16.5749 13.1253 16.4159 13.1253 16.25C13.1253 16.0842 13.0595 15.9251 12.9422 15.8078C12.8249 15.6905 12.6659 15.6247 12.5 15.6247C12.3341 15.6247 12.1751 15.6905 12.0578 15.8078Z" fill="#191F2E"/>
</svg>
