<svg width="20" height="20" viewBox="0 0 20 20" fill="none" xmlns="http://www.w3.org/2000/svg">
<path d="M9.1922 13.3078C9.25031 13.3659 9.29641 13.4348 9.32786 13.5107C9.35931 13.5865 9.3755 13.6679 9.3755 13.75C9.3755 13.8321 9.35931 13.9135 9.32786 13.9893C9.29641 14.0652 9.25031 14.1341 9.1922 14.1922L6.6922 16.6922C6.63415 16.7503 6.56522 16.7964 6.48935 16.8279C6.41348 16.8593 6.33215 16.8755 6.25001 16.8755C6.16788 16.8755 6.08655 16.8593 6.01067 16.8279C5.9348 16.7964 5.86587 16.7503 5.80782 16.6922L3.30782 14.1922C3.24976 14.1341 3.20369 14.0652 3.17227 13.9893C3.14084 13.9134 3.12466 13.8321 3.12466 13.75C3.12466 13.6679 3.14084 13.5866 3.17227 13.5107C3.20369 13.4348 3.24976 13.3659 3.30782 13.3078C3.4251 13.1905 3.58416 13.1247 3.75001 13.1247C3.83213 13.1247 3.91345 13.1408 3.98932 13.1723C4.06519 13.2037 4.13413 13.2497 4.1922 13.3078L5.62501 14.7414V3.75C5.62501 3.58424 5.69086 3.42527 5.80807 3.30806C5.92528 3.19085 6.08425 3.125 6.25001 3.125C6.41577 3.125 6.57474 3.19085 6.69195 3.30806C6.80916 3.42527 6.87501 3.58424 6.87501 3.75V14.7414L8.30782 13.3078C8.36587 13.2497 8.4348 13.2036 8.51067 13.1722C8.58655 13.1407 8.66788 13.1245 8.75001 13.1245C8.83215 13.1245 8.91348 13.1407 8.98935 13.1722C9.06522 13.2036 9.13415 13.2497 9.1922 13.3078ZM16.6922 5.80782L14.1922 3.30782C14.1342 3.24971 14.0652 3.20361 13.9893 3.17215C13.9135 3.1407 13.8321 3.12451 13.75 3.12451C13.6679 3.12451 13.5865 3.1407 13.5107 3.17215C13.4348 3.20361 13.3659 3.24971 13.3078 3.30782L10.8078 5.80782C10.6905 5.92509 10.6247 6.08415 10.6247 6.25C10.6247 6.41586 10.6905 6.57492 10.8078 6.69219C10.9251 6.80947 11.0842 6.87535 11.25 6.87535C11.4159 6.87535 11.5749 6.80947 11.6922 6.69219L13.125 5.2586V16.25C13.125 16.4158 13.1909 16.5747 13.3081 16.6919C13.4253 16.8092 13.5843 16.875 13.75 16.875C13.9158 16.875 14.0747 16.8092 14.192 16.6919C14.3092 16.5747 14.375 16.4158 14.375 16.25V5.2586L15.8078 6.69219C15.9251 6.80947 16.0842 6.87535 16.25 6.87535C16.4159 6.87535 16.5749 6.80947 16.6922 6.69219C16.8095 6.57492 16.8754 6.41586 16.8754 6.25C16.8754 6.08415 16.8095 5.92509 16.6922 5.80782Z" fill="#191F2E"/>
</svg>
