<svg width="20" height="20" viewBox="0 0 20 20" fill="none" xmlns="http://www.w3.org/2000/svg">
<path d="M17.5 16.875C17.5 17.0408 17.4342 17.1997 17.3169 17.3169C17.1997 17.4342 17.0408 17.5 16.875 17.5H3.125C2.95924 17.5 2.80027 17.4342 2.68306 17.3169C2.56585 17.1997 2.5 17.0408 2.5 16.875C2.5 16.7092 2.56585 16.5503 2.68306 16.4331C2.80027 16.3158 2.95924 16.25 3.125 16.25H16.875C17.0408 16.25 17.1997 16.3158 17.3169 16.4331C17.4342 16.5503 17.5 16.7092 17.5 16.875ZM5 12.5C5.16576 12.5 5.32473 12.4342 5.44194 12.3169C5.55915 12.1997 5.625 12.0408 5.625 11.875V5.88359L13.3078 13.5672C13.3659 13.6253 13.4348 13.6713 13.5107 13.7027C13.5866 13.7342 13.6679 13.7503 13.75 13.7503C13.8321 13.7503 13.9134 13.7342 13.9893 13.7027C14.0652 13.6713 14.1341 13.6253 14.1922 13.5672C14.2503 13.5091 14.2963 13.4402 14.3277 13.3643C14.3592 13.2884 14.3753 13.2071 14.3753 13.125C14.3753 13.0429 14.3592 12.9616 14.3277 12.8857C14.2963 12.8098 14.2503 12.7409 14.1922 12.6828L6.50859 5H12.5C12.6658 5 12.8247 4.93415 12.9419 4.81694C13.0592 4.69973 13.125 4.54076 13.125 4.375C13.125 4.20924 13.0592 4.05027 12.9419 3.93306C12.8247 3.81585 12.6658 3.75 12.5 3.75H5C4.83424 3.75 4.67527 3.81585 4.55806 3.93306C4.44085 4.05027 4.375 4.20924 4.375 4.375V11.875C4.375 12.0408 4.44085 12.1997 4.55806 12.3169C4.67527 12.4342 4.83424 12.5 5 12.5Z" fill="#191F2E"/>
</svg>
