<svg width="20" height="20" viewBox="0 0 20 20" fill="none" xmlns="http://www.w3.org/2000/svg">
<path d="M16.5625 2.5C16.5625 2.74864 16.4637 2.9871 16.2879 3.16291C16.1121 3.33873 15.8736 3.4375 15.625 3.4375C13.8851 3.43936 12.217 4.13136 10.9867 5.36167C9.75635 6.59197 9.06435 8.26009 9.06249 10V15.2344L11.2117 13.0844C11.3878 12.9083 11.6267 12.8093 11.8758 12.8093C12.1248 12.8093 12.3637 12.9083 12.5398 13.0844C12.716 13.2605 12.8149 13.4994 12.8149 13.7484C12.8149 13.9975 12.716 14.2364 12.5398 14.4125L8.78983 18.1625C8.70274 18.2499 8.59924 18.3192 8.48529 18.3666C8.37133 18.4139 8.24916 18.4382 8.12577 18.4382C8.00238 18.4382 7.88021 18.4139 7.76625 18.3666C7.6523 18.3192 7.54881 18.2499 7.46171 18.1625L3.71171 14.4125C3.6245 14.3253 3.55533 14.2218 3.50813 14.1078C3.46094 13.9939 3.43665 13.8718 3.43665 13.7484C3.43665 13.4994 3.53559 13.2605 3.71171 13.0844C3.88783 12.9083 4.1267 12.8093 4.37577 12.8093C4.62484 12.8093 4.86371 12.9083 5.03983 13.0844L7.18749 15.2344V10C7.18997 7.763 8.07972 5.61833 9.66152 4.03653C11.2433 2.45473 13.388 1.56498 15.625 1.5625C15.8736 1.5625 16.1121 1.66127 16.2879 1.83709C16.4637 2.0129 16.5625 2.25136 16.5625 2.5Z" fill="#191F2E"/>
</svg>
