<svg width="20" height="20" viewBox="0 0 20 20" fill="none" xmlns="http://www.w3.org/2000/svg">
<path d="M10 1.5625C8.33122 1.5625 6.69992 2.05735 5.31238 2.98448C3.92484 3.9116 2.84338 5.22936 2.20477 6.77111C1.56616 8.31286 1.39907 10.0094 1.72463 11.6461C2.05019 13.2828 2.85379 14.7862 4.03379 15.9662C5.2138 17.1462 6.71721 17.9498 8.35393 18.2754C9.99064 18.6009 11.6871 18.4338 13.2289 17.7952C14.7706 17.1566 16.0884 16.0752 17.0155 14.6876C17.9427 13.3001 18.4375 11.6688 18.4375 10C18.435 7.763 17.5453 5.61833 15.9635 4.03653C14.3817 2.45473 12.237 1.56498 10 1.5625ZM10 16.5625C8.70206 16.5625 7.43327 16.1776 6.35407 15.4565C5.27488 14.7354 4.43374 13.7105 3.93704 12.5114C3.44034 11.3122 3.31038 9.99272 3.5636 8.71972C3.81682 7.44672 4.44183 6.27739 5.35962 5.35961C6.2774 4.44183 7.44672 3.81681 8.71972 3.5636C9.99272 3.31038 11.3122 3.44034 12.5114 3.93704C13.7105 4.43374 14.7354 5.27487 15.4565 6.35407C16.1776 7.43327 16.5625 8.70206 16.5625 10C16.5606 11.7399 15.8686 13.408 14.6383 14.6383C13.408 15.8686 11.7399 16.5606 10 16.5625ZM14.0625 10C14.0625 10.2486 13.9637 10.4871 13.7879 10.6629C13.6121 10.8387 13.3736 10.9375 13.125 10.9375H9.14063L10.0406 11.8367C10.2167 12.0128 10.3157 12.2517 10.3157 12.5008C10.3157 12.7499 10.2167 12.9887 10.0406 13.1648C9.86451 13.341 9.62564 13.4399 9.37657 13.4399C9.12749 13.4399 8.88862 13.341 8.7125 13.1648L6.2125 10.6648C6.1251 10.5777 6.05576 10.4743 6.00844 10.3603C5.96112 10.2463 5.93676 10.1242 5.93676 10.0008C5.93676 9.87739 5.96112 9.75522 6.00844 9.64126C6.05576 9.52731 6.1251 9.42382 6.2125 9.33672L8.7125 6.83672C8.79971 6.74951 8.90324 6.68034 9.01718 6.63314C9.13112 6.58595 9.25324 6.56166 9.37657 6.56166C9.49989 6.56166 9.62201 6.58595 9.73595 6.63314C9.84989 6.68034 9.95342 6.74951 10.0406 6.83672C10.1278 6.92392 10.197 7.02745 10.2442 7.14139C10.2914 7.25533 10.3157 7.37745 10.3157 7.50078C10.3157 7.62411 10.2914 7.74623 10.2442 7.86017C10.197 7.97411 10.1278 8.07764 10.0406 8.16484L9.14063 9.0625H13.125C13.3736 9.0625 13.6121 9.16127 13.7879 9.33709C13.9637 9.5129 14.0625 9.75136 14.0625 10Z" fill="#191F2E"/>
</svg>
