<svg width="20" height="20" viewBox="0 0 20 20" fill="none" xmlns="http://www.w3.org/2000/svg">
<path d="M17.5383 14.4133L13.7883 18.1633C13.7012 18.2507 13.5977 18.32 13.4837 18.3673C13.3698 18.4147 13.2476 18.439 13.1242 18.439C13.0008 18.439 12.8787 18.4147 12.7647 18.3673C12.6507 18.32 12.5473 18.2507 12.4602 18.1633L8.71016 14.4133C8.62295 14.3261 8.55377 14.2225 8.50658 14.1086C8.45938 13.9947 8.43509 13.8725 8.43509 13.7492C8.43509 13.6259 8.45938 13.5038 8.50658 13.3898C8.55377 13.2759 8.62295 13.1724 8.71016 13.0852C8.79736 12.998 8.90089 12.9288 9.01483 12.8816C9.12877 12.8344 9.25089 12.8101 9.37422 12.8101C9.49755 12.8101 9.61967 12.8344 9.73361 12.8816C9.84755 12.9288 9.95108 12.998 10.0383 13.0852L12.1875 15.2344V6.875C12.1875 5.96332 11.8253 5.08898 11.1807 4.44432C10.536 3.79966 9.66168 3.4375 8.75 3.4375C7.83832 3.4375 6.96398 3.79966 6.31932 4.44432C5.67466 5.08898 5.3125 5.96332 5.3125 6.875V13.75C5.3125 13.9986 5.21373 14.2371 5.03791 14.4129C4.8621 14.5887 4.62364 14.6875 4.375 14.6875C4.12636 14.6875 3.8879 14.5887 3.71209 14.4129C3.53627 14.2371 3.4375 13.9986 3.4375 13.75V6.875C3.4375 5.46604 3.99721 4.11478 4.9935 3.1185C5.98978 2.12221 7.34104 1.5625 8.75 1.5625C10.159 1.5625 11.5102 2.12221 12.5065 3.1185C13.5028 4.11478 14.0625 5.46604 14.0625 6.875V15.2344L16.2117 13.0844C16.2989 12.9972 16.4025 12.928 16.5164 12.8808C16.6303 12.8336 16.7525 12.8093 16.8758 12.8093C16.9991 12.8093 17.1212 12.8336 17.2352 12.8808C17.3491 12.928 17.4526 12.9972 17.5398 13.0844C17.627 13.1716 17.6962 13.2751 17.7434 13.3891C17.7906 13.503 17.8149 13.6251 17.8149 13.7484C17.8149 13.8718 17.7906 13.9939 17.7434 14.1078C17.6962 14.2218 17.627 14.3253 17.5398 14.4125L17.5383 14.4133Z" fill="#191F2E"/>
</svg>
