<svg width="20" height="20" viewBox="0 0 20 20" fill="none" xmlns="http://www.w3.org/2000/svg">
<path d="M17.9422 11.0672L10.4422 18.5672C10.3841 18.6253 10.3152 18.6714 10.2393 18.7029C10.1635 18.7343 10.0821 18.7505 10 18.7505C9.91787 18.7505 9.83654 18.7343 9.76067 18.7029C9.68479 18.6714 9.61586 18.6253 9.55782 18.5672L2.05782 11.0672C1.97031 10.9798 1.9107 10.8684 1.88655 10.7471C1.86239 10.6258 1.87477 10.5 1.92211 10.3858C1.96946 10.2715 2.04964 10.1738 2.15252 10.1052C2.25539 10.0365 2.37632 9.9999 2.5 10H5.625V3.75C5.625 3.41848 5.7567 3.10054 5.99112 2.86612C6.22554 2.6317 6.54348 2.5 6.875 2.5H13.125C13.4565 2.5 13.7745 2.6317 14.0089 2.86612C14.2433 3.10054 14.375 3.41848 14.375 3.75V10H17.5C17.6237 9.9999 17.7446 10.0365 17.8475 10.1052C17.9504 10.1738 18.0305 10.2715 18.0779 10.3858C18.1252 10.5 18.1376 10.6258 18.1135 10.7471C18.0893 10.8684 18.0297 10.9798 17.9422 11.0672Z" fill="#191F2E"/>
</svg>
