<svg width="20" height="20" viewBox="0 0 20 20" fill="none" xmlns="http://www.w3.org/2000/svg">
<path d="M18.1633 8.7883L14.4133 12.5383C14.2372 12.7144 13.9983 12.8134 13.7492 12.8134C13.5001 12.8134 13.2613 12.7144 13.0852 12.5383C12.909 12.3622 12.8101 12.1233 12.8101 11.8742C12.8101 11.6252 12.909 11.3863 13.0852 11.2102L15.2344 9.06252H10C8.26009 9.06438 6.59197 9.75638 5.36167 10.9867C4.13136 12.217 3.43936 13.8851 3.4375 15.625C3.4375 15.8737 3.33873 16.1121 3.16291 16.2879C2.9871 16.4637 2.74864 16.5625 2.5 16.5625C2.25136 16.5625 2.0129 16.4637 1.83709 16.2879C1.66127 16.1121 1.5625 15.8737 1.5625 15.625C1.56498 13.388 2.45473 11.2433 4.03653 9.66154C5.61833 8.07974 7.763 7.19 10 7.18751H15.2344L13.0867 5.03751C12.9106 4.86139 12.8117 4.62252 12.8117 4.37345C12.8117 4.12438 12.9106 3.88551 13.0867 3.70939C13.2628 3.53327 13.5017 3.43433 13.7508 3.43433C13.9999 3.43433 14.2387 3.53327 14.4148 3.70939L18.1648 7.45939C18.2523 7.5466 18.3216 7.65023 18.3688 7.76431C18.4161 7.87839 18.4403 8.00069 18.4402 8.12417C18.44 8.24765 18.4155 8.36989 18.368 8.48386C18.3205 8.59783 18.2509 8.70129 18.1633 8.7883Z" fill="#191F2E"/>
</svg>
