<svg width="20" height="20" viewBox="0 0 20 20" fill="none" xmlns="http://www.w3.org/2000/svg">
<path d="M15.625 2.5V13.75C15.625 13.9158 15.5592 14.0747 15.4419 14.1919C15.3247 14.3092 15.1658 14.375 15 14.375H8.125V17.5C8.1251 17.6237 8.0885 17.7446 8.01983 17.8475C7.95116 17.9504 7.85351 18.0305 7.73925 18.0779C7.62498 18.1252 7.49924 18.1376 7.37794 18.1135C7.25663 18.0893 7.14523 18.0297 7.05782 17.9422L3.30782 14.1922C3.24971 14.1341 3.20361 14.0652 3.17215 13.9893C3.1407 13.9135 3.12451 13.8321 3.12451 13.75C3.12451 13.6679 3.1407 13.5865 3.17215 13.5107C3.20361 13.4348 3.24971 13.3659 3.30782 13.3078L7.05782 9.55781C7.14523 9.4703 7.25663 9.4107 7.37794 9.38654C7.49924 9.36239 7.62498 9.37477 7.73925 9.42211C7.85351 9.46946 7.95116 9.54964 8.01983 9.65251C8.0885 9.75538 8.1251 9.87632 8.125 10V13.125H14.375V2.5C14.375 2.33424 14.4409 2.17527 14.5581 2.05806C14.6753 1.94085 14.8342 1.875 15 1.875C15.1658 1.875 15.3247 1.94085 15.4419 2.05806C15.5592 2.17527 15.625 2.33424 15.625 2.5Z" fill="#191F2E"/>
</svg>
