<svg width="20" height="20" viewBox="0 0 20 20" fill="none" xmlns="http://www.w3.org/2000/svg">
<path d="M10 10.625V15.625C10 15.7908 9.93416 15.9497 9.81695 16.0669C9.69974 16.1842 9.54077 16.25 9.37501 16.25C9.20925 16.25 9.05028 16.1842 8.93307 16.0669C8.81586 15.9497 8.75001 15.7908 8.75001 15.625V12.1344L3.5672 17.3172C3.50913 17.3753 3.44019 17.4213 3.36432 17.4527C3.28845 17.4842 3.20713 17.5003 3.12501 17.5003C3.04289 17.5003 2.96157 17.4842 2.8857 17.4527C2.80983 17.4213 2.74089 17.3753 2.68282 17.3172C2.62476 17.2591 2.57869 17.1902 2.54727 17.1143C2.51584 17.0384 2.49966 16.9571 2.49966 16.875C2.49966 16.7929 2.51584 16.7116 2.54727 16.6357C2.57869 16.5598 2.62476 16.4909 2.68282 16.4328L7.86564 11.25H4.37501C4.20925 11.25 4.05028 11.1842 3.93307 11.0669C3.81586 10.9497 3.75001 10.7908 3.75001 10.625C3.75001 10.4592 3.81586 10.3003 3.93307 10.1831C4.05028 10.0658 4.20925 10 4.37501 10H9.37501C9.54077 10 9.69974 10.0658 9.81695 10.1831C9.93416 10.3003 10 10.4592 10 10.625ZM16.25 2.5H6.25001C5.91849 2.5 5.60055 2.6317 5.36613 2.86612C5.13171 3.10054 5.00001 3.41848 5.00001 3.75V7.5C5.00001 7.66576 5.06586 7.82473 5.18307 7.94194C5.30028 8.05915 5.45925 8.125 5.62501 8.125C5.79077 8.125 5.94974 8.05915 6.06695 7.94194C6.18416 7.82473 6.25001 7.66576 6.25001 7.5V3.75H16.25V13.75H12.5C12.3343 13.75 12.1753 13.8158 12.0581 13.9331C11.9409 14.0503 11.875 14.2092 11.875 14.375C11.875 14.5408 11.9409 14.6997 12.0581 14.8169C12.1753 14.9342 12.3343 15 12.5 15H16.25C16.5815 15 16.8995 14.8683 17.1339 14.6339C17.3683 14.3995 17.5 14.0815 17.5 13.75V3.75C17.5 3.41848 17.3683 3.10054 17.1339 2.86612C16.8995 2.6317 16.5815 2.5 16.25 2.5Z" fill="#191F2E"/>
</svg>
