<svg width="20" height="20" viewBox="0 0 20 20" fill="none" xmlns="http://www.w3.org/2000/svg">
<path d="M13.0867 9.96172L15.2344 7.8125H6.875C5.96332 7.8125 5.08898 8.17466 4.44432 8.81932C3.79966 9.46397 3.4375 10.3383 3.4375 11.25C3.4375 12.1617 3.79966 13.036 4.44432 13.6807C5.08898 14.3253 5.96332 14.6875 6.875 14.6875H13.75C13.9986 14.6875 14.2371 14.7863 14.4129 14.9621C14.5887 15.1379 14.6875 15.3764 14.6875 15.625C14.6875 15.8736 14.5887 16.1121 14.4129 16.2879C14.2371 16.4637 13.9986 16.5625 13.75 16.5625H6.875C5.46604 16.5625 4.11478 16.0028 3.1185 15.0065C2.12221 14.0102 1.5625 12.659 1.5625 11.25C1.5625 9.84103 2.12221 8.48978 3.1185 7.49349C4.11478 6.4972 5.46604 5.9375 6.875 5.9375H15.2344L13.0867 3.78828C12.9995 3.70107 12.9303 3.59754 12.8831 3.4836C12.8359 3.36966 12.8117 3.24754 12.8117 3.12422C12.8117 3.00089 12.8359 2.87877 12.8831 2.76483C12.9303 2.65089 12.9995 2.54736 13.0867 2.46015C13.1739 2.37295 13.2775 2.30377 13.3914 2.25658C13.5053 2.20938 13.6275 2.18509 13.7508 2.18509C13.8741 2.18509 13.9962 2.20938 14.1102 2.25658C14.2241 2.30377 14.3276 2.37295 14.4148 2.46015L18.1648 6.21015C18.2522 6.29725 18.3216 6.40074 18.3689 6.5147C18.4162 6.62865 18.4406 6.75083 18.4406 6.87422C18.4406 6.9976 18.4162 7.11978 18.3689 7.23373C18.3216 7.34769 18.2522 7.45118 18.1648 7.53828L14.4148 11.2883C14.2387 11.4644 13.9999 11.5633 13.7508 11.5633C13.5017 11.5633 13.2628 11.4644 13.0867 11.2883C12.9106 11.1122 12.8117 10.8733 12.8117 10.6242C12.8117 10.3751 12.9106 10.1363 13.0867 9.96015V9.96172Z" fill="#191F2E"/>
</svg>
