<svg width="20" height="20" viewBox="0 0 20 20" fill="none" xmlns="http://www.w3.org/2000/svg">
<path d="M19.0625 6.25V11.875C19.0625 12.1236 18.9638 12.3621 18.7879 12.5379C18.6121 12.7137 18.3737 12.8125 18.125 12.8125C17.8764 12.8125 17.6379 12.7137 17.4621 12.5379C17.2863 12.3621 17.1875 12.1236 17.1875 11.875V8.51562L10.0383 15.6656C9.95121 15.753 9.84772 15.8224 9.73376 15.8697C9.61981 15.917 9.49763 15.9414 9.37424 15.9414C9.25086 15.9414 9.12868 15.917 9.01473 15.8697C8.90077 15.8224 8.79728 15.753 8.71018 15.6656L1.21018 8.16562C1.03406 7.9895 0.93512 7.75063 0.93512 7.50156C0.93512 7.25249 1.03406 7.01362 1.21018 6.8375C1.3863 6.66138 1.62517 6.56244 1.87425 6.56244C2.12332 6.56244 2.36219 6.66138 2.53831 6.8375L9.37503 13.6719L15.8594 7.1875H12.5C12.2514 7.1875 12.0129 7.08873 11.8371 6.91291C11.6613 6.7371 11.5625 6.49864 11.5625 6.25C11.5625 6.00136 11.6613 5.7629 11.8371 5.58709C12.0129 5.41127 12.2514 5.3125 12.5 5.3125H18.125C18.3737 5.3125 18.6121 5.41127 18.7879 5.58709C18.9638 5.7629 19.0625 6.00136 19.0625 6.25Z" fill="#191F2E"/>
</svg>
