<svg width="20" height="20" viewBox="0 0 20 20" fill="none" xmlns="http://www.w3.org/2000/svg">
<path d="M10.9375 3.125V16.875C10.9375 17.1236 10.8387 17.3621 10.6629 17.5379C10.4871 17.7137 10.2486 17.8125 10 17.8125C9.75137 17.8125 9.51291 17.7137 9.33709 17.5379C9.16128 17.3621 9.06251 17.1236 9.06251 16.875V3.125C9.06251 2.87636 9.16128 2.6379 9.33709 2.46209C9.51291 2.28627 9.75137 2.1875 10 2.1875C10.2486 2.1875 10.4871 2.28627 10.6629 2.46209C10.8387 2.6379 10.9375 2.87636 10.9375 3.125ZM6.87501 9.0625H3.51563L4.41563 8.16328C4.59175 7.98716 4.6907 7.74829 4.6907 7.49922C4.6907 7.25015 4.59175 7.01128 4.41563 6.83516C4.23951 6.65904 4.00064 6.56009 3.75157 6.56009C3.5025 6.56009 3.26363 6.65904 3.08751 6.83516L0.587507 9.33516C0.500107 9.42225 0.43076 9.52575 0.383442 9.6397C0.336125 9.75366 0.311768 9.87583 0.311768 9.99922C0.311768 10.1226 0.336125 10.2448 0.383442 10.3587C0.43076 10.4727 0.500107 10.5762 0.587507 10.6633L3.08751 13.1633C3.26363 13.3394 3.5025 13.4383 3.75157 13.4383C4.00064 13.4383 4.23951 13.3394 4.41563 13.1633C4.59175 12.9872 4.6907 12.7483 4.6907 12.4992C4.6907 12.2501 4.59175 12.0113 4.41563 11.8352L3.51563 10.9375H6.87501C7.12365 10.9375 7.3621 10.8387 7.53792 10.6629C7.71373 10.4871 7.81251 10.2486 7.81251 10C7.81251 9.75136 7.71373 9.5129 7.53792 9.33709C7.3621 9.16127 7.12365 9.0625 6.87501 9.0625ZM19.4133 9.33672L16.9133 6.83672C16.7372 6.6606 16.4983 6.56166 16.2492 6.56166C16.0002 6.56166 15.7613 6.6606 15.5852 6.83672C15.409 7.01284 15.3101 7.25171 15.3101 7.50078C15.3101 7.74985 15.409 7.98872 15.5852 8.16484L16.4844 9.0625H13.125C12.8764 9.0625 12.6379 9.16127 12.4621 9.33709C12.2863 9.5129 12.1875 9.75136 12.1875 10C12.1875 10.2486 12.2863 10.4871 12.4621 10.6629C12.6379 10.8387 12.8764 10.9375 13.125 10.9375H16.4844L15.5844 11.8367C15.4083 12.0128 15.3093 12.2517 15.3093 12.5008C15.3093 12.7499 15.4083 12.9887 15.5844 13.1648C15.7605 13.341 15.9994 13.4399 16.2484 13.4399C16.4975 13.4399 16.7364 13.341 16.9125 13.1648L19.4125 10.6648C19.5 10.5778 19.5694 10.4743 19.6168 10.3604C19.6641 10.2465 19.6886 10.1243 19.6886 10.0009C19.6887 9.87755 19.6644 9.75537 19.6172 9.64138C19.5699 9.5274 19.5006 9.42387 19.4133 9.33672Z" fill="#191F2E"/>
</svg>
