<svg width="20" height="20" viewBox="0 0 20 20" fill="none" xmlns="http://www.w3.org/2000/svg">
<path d="M15.625 6.8751V15.0001C15.625 15.1659 15.5592 15.3248 15.442 15.442C15.3247 15.5593 15.1658 15.6251 15 15.6251H6.87501C6.70925 15.6251 6.55028 15.5593 6.43307 15.442C6.31586 15.3248 6.25001 15.1659 6.25001 15.0001C6.25001 14.8343 6.31586 14.6754 6.43307 14.5582C6.55028 14.441 6.70925 14.3751 6.87501 14.3751H13.4914L4.55782 5.44229C4.44055 5.32502 4.37466 5.16596 4.37466 5.0001C4.37466 4.83425 4.44055 4.67519 4.55782 4.55792C4.6751 4.44064 4.83416 4.37476 5.00001 4.37476C5.16586 4.37476 5.32492 4.44064 5.4422 4.55792L14.375 13.4915V6.8751C14.375 6.70934 14.4409 6.55037 14.5581 6.43316C14.6753 6.31595 14.8343 6.2501 15 6.2501C15.1658 6.2501 15.3247 6.31595 15.442 6.43316C15.5592 6.55037 15.625 6.70934 15.625 6.8751Z" fill="#191F2E"/>
</svg>
