<svg width="20" height="20" viewBox="0 0 20 20" fill="none" xmlns="http://www.w3.org/2000/svg">
<path d="M18.4375 15.6251C18.4375 15.8738 18.3387 16.1122 18.1629 16.288C17.9871 16.4638 17.7486 16.5626 17.5 16.5626C17.2514 16.5626 17.0129 16.4638 16.8371 16.288C16.6613 16.1122 16.5625 15.8738 16.5625 15.6251C16.5606 13.8852 15.8686 12.2171 14.6383 10.9868C13.408 9.75648 11.7399 9.06447 10 9.06261H4.76563L6.91563 11.2118C7.09175 11.388 7.1907 11.6268 7.1907 11.8759C7.1907 12.125 7.09175 12.3638 6.91563 12.54C6.73951 12.7161 6.50064 12.815 6.25157 12.815C6.0025 12.815 5.76363 12.7161 5.58751 12.54L1.83751 8.78996C1.75011 8.70286 1.68076 8.59937 1.63344 8.48541C1.58612 8.37146 1.56177 8.24928 1.56177 8.12589C1.56177 8.00251 1.58612 7.88033 1.63344 7.76638C1.68076 7.65242 1.75011 7.54893 1.83751 7.46183L5.58751 3.71183C5.67471 3.62463 5.77824 3.55545 5.89218 3.50825C6.00612 3.46106 6.12824 3.43677 6.25157 3.43677C6.3749 3.43677 6.49702 3.46106 6.61096 3.50825C6.7249 3.55545 6.82843 3.62463 6.91563 3.71183C7.00284 3.79904 7.07201 3.90257 7.11921 4.01651C7.1664 4.13045 7.1907 4.25257 7.1907 4.37589C7.1907 4.49922 7.1664 4.62134 7.11921 4.73528C7.07201 4.84922 7.00284 4.95275 6.91563 5.03996L4.76563 7.18761H10C12.237 7.19009 14.3817 8.07984 15.9635 9.66164C17.5453 11.2434 18.435 13.3881 18.4375 15.6251Z" fill="#191F2E"/>
</svg>
