<svg width="20" height="20" viewBox="0 0 20 20" fill="none" xmlns="http://www.w3.org/2000/svg">
<path d="M7.05781 5.44219C6.94054 5.32491 6.87465 5.16585 6.87465 5C6.87465 4.83415 6.94054 4.67509 7.05781 4.55781C7.17509 4.44054 7.33415 4.37465 7.5 4.37465C7.66585 4.37465 7.82491 4.44054 7.94219 4.55781L9.375 5.99141V1.875C9.375 1.70924 9.44085 1.55027 9.55806 1.43306C9.67527 1.31585 9.83424 1.25 10 1.25C10.1658 1.25 10.3247 1.31585 10.4419 1.43306C10.5592 1.55027 10.625 1.70924 10.625 1.875V5.99141L12.0578 4.55781C12.1751 4.44054 12.3341 4.37465 12.5 4.37465C12.6659 4.37465 12.8249 4.44054 12.9422 4.55781C13.0595 4.67509 13.1253 4.83415 13.1253 5C13.1253 5.16585 13.0595 5.32491 12.9422 5.44219L10.4422 7.94219C10.3841 8.0003 10.3152 8.0464 10.2393 8.07785C10.1635 8.1093 10.0821 8.12549 10 8.12549C9.91787 8.12549 9.83654 8.1093 9.76066 8.07785C9.68479 8.0464 9.61586 8.0003 9.55781 7.94219L7.05781 5.44219ZM10.4422 12.0578C10.3841 11.9997 10.3152 11.9536 10.2393 11.9221C10.1635 11.8907 10.0821 11.8745 10 11.8745C9.91787 11.8745 9.83654 11.8907 9.76066 11.9221C9.68479 11.9536 9.61586 11.9997 9.55781 12.0578L7.05781 14.5578C6.99974 14.6159 6.95368 14.6848 6.92225 14.7607C6.89083 14.8366 6.87465 14.9179 6.87465 15C6.87465 15.0821 6.89083 15.1634 6.92225 15.2393C6.95368 15.3152 6.99974 15.3841 7.05781 15.4422C7.17509 15.5595 7.33415 15.6253 7.5 15.6253C7.58212 15.6253 7.66344 15.6092 7.73931 15.5777C7.81518 15.5463 7.88412 15.5003 7.94219 15.4422L9.375 14.0086V18.125C9.375 18.2908 9.44085 18.4497 9.55806 18.5669C9.67527 18.6842 9.83424 18.75 10 18.75C10.1658 18.75 10.3247 18.6842 10.4419 18.5669C10.5592 18.4497 10.625 18.2908 10.625 18.125V14.0086L12.0578 15.4422C12.1159 15.5003 12.1848 15.5463 12.2607 15.5777C12.3366 15.6092 12.4179 15.6253 12.5 15.6253C12.5821 15.6253 12.6634 15.6092 12.7393 15.5777C12.8152 15.5463 12.8841 15.5003 12.9422 15.4422C13.0003 15.3841 13.0463 15.3152 13.0777 15.2393C13.1092 15.1634 13.1253 15.0821 13.1253 15C13.1253 14.9179 13.1092 14.8366 13.0777 14.7607C13.0463 14.6848 13.0003 14.6159 12.9422 14.5578L10.4422 12.0578ZM18.125 9.375H14.0086L15.4422 7.94219C15.5003 7.88412 15.5463 7.81518 15.5777 7.73931C15.6092 7.66344 15.6253 7.58212 15.6253 7.5C15.6253 7.41788 15.6092 7.33656 15.5777 7.26069C15.5463 7.18482 15.5003 7.11588 15.4422 7.05781C15.3841 6.99974 15.3152 6.95368 15.2393 6.92225C15.1634 6.89083 15.0821 6.87465 15 6.87465C14.9179 6.87465 14.8366 6.89083 14.7607 6.92225C14.6848 6.95368 14.6159 6.99974 14.5578 7.05781L12.0578 9.55781C11.9997 9.61586 11.9536 9.68479 11.9221 9.76066C11.8907 9.83654 11.8745 9.91787 11.8745 10C11.8745 10.0821 11.8907 10.1635 11.9221 10.2393C11.9536 10.3152 11.9997 10.3841 12.0578 10.4422L14.5578 12.9422C14.6159 13.0003 14.6848 13.0463 14.7607 13.0777C14.8366 13.1092 14.9179 13.1253 15 13.1253C15.0821 13.1253 15.1634 13.1092 15.2393 13.0777C15.3152 13.0463 15.3841 13.0003 15.4422 12.9422C15.5003 12.8841 15.5463 12.8152 15.5777 12.7393C15.6092 12.6634 15.6253 12.5821 15.6253 12.5C15.6253 12.4179 15.6092 12.3366 15.5777 12.2607C15.5463 12.1848 15.5003 12.1159 15.4422 12.0578L14.0086 10.625H18.125C18.2908 10.625 18.4497 10.5592 18.5669 10.4419C18.6842 10.3247 18.75 10.1658 18.75 10C18.75 9.83424 18.6842 9.67527 18.5669 9.55806C18.4497 9.44085 18.2908 9.375 18.125 9.375ZM7.94219 9.55781L5.44219 7.05781C5.32491 6.94054 5.16585 6.87465 5 6.87465C4.83415 6.87465 4.67509 6.94054 4.55781 7.05781C4.44054 7.17509 4.37465 7.33415 4.37465 7.5C4.37465 7.66585 4.44054 7.82491 4.55781 7.94219L5.99141 9.375H1.875C1.70924 9.375 1.55027 9.44085 1.43306 9.55806C1.31585 9.67527 1.25 9.83424 1.25 10C1.25 10.1658 1.31585 10.3247 1.43306 10.4419C1.55027 10.5592 1.70924 10.625 1.875 10.625H5.99141L4.55781 12.0578C4.49974 12.1159 4.45368 12.1848 4.42225 12.2607C4.39083 12.3366 4.37465 12.4179 4.37465 12.5C4.37465 12.5821 4.39083 12.6634 4.42225 12.7393C4.45368 12.8152 4.49974 12.8841 4.55781 12.9422C4.61588 13.0003 4.68482 13.0463 4.76069 13.0777C4.83656 13.1092 4.91788 13.1253 5 13.1253C5.08212 13.1253 5.16344 13.1092 5.23931 13.0777C5.31518 13.0463 5.38412 13.0003 5.44219 12.9422L7.94219 10.4422C8.0003 10.3841 8.0464 10.3152 8.07785 10.2393C8.1093 10.1635 8.12549 10.0821 8.12549 10C8.12549 9.91787 8.1093 9.83654 8.07785 9.76066C8.0464 9.68479 8.0003 9.61586 7.94219 9.55781Z" fill="#191F2E"/>
</svg>
