<svg width="20" height="20" viewBox="0 0 20 20" fill="none" xmlns="http://www.w3.org/2000/svg">
<path d="M10.625 3.125V16.875C10.625 17.0408 10.5592 17.1997 10.4419 17.3169C10.3247 17.4342 10.1658 17.5 10 17.5C9.83424 17.5 9.67527 17.4342 9.55806 17.3169C9.44085 17.1997 9.375 17.0408 9.375 16.875V3.125C9.375 2.95924 9.44085 2.80027 9.55806 2.68306C9.67527 2.56585 9.83424 2.5 10 2.5C10.1658 2.5 10.3247 2.56585 10.4419 2.68306C10.5592 2.80027 10.625 2.95924 10.625 3.125ZM7.5 9.375H2.7586L4.19219 7.94219C4.30947 7.82491 4.37535 7.66585 4.37535 7.5C4.37535 7.33415 4.30947 7.17509 4.19219 7.05781C4.07492 6.94054 3.91586 6.87465 3.75 6.87465C3.58415 6.87465 3.42509 6.94054 3.30782 7.05781L0.807816 9.55781C0.749706 9.61586 0.703606 9.68479 0.672154 9.76066C0.640701 9.83654 0.624512 9.91787 0.624512 10C0.624512 10.0821 0.640701 10.1635 0.672154 10.2393C0.703606 10.3152 0.749706 10.3841 0.807816 10.4422L3.30782 12.9422C3.42509 13.0595 3.58415 13.1253 3.75 13.1253C3.91586 13.1253 4.07492 13.0595 4.19219 12.9422C4.30947 12.8249 4.37535 12.6659 4.37535 12.5C4.37535 12.3341 4.30947 12.1751 4.19219 12.0578L2.7586 10.625H7.5C7.66576 10.625 7.82473 10.5592 7.94195 10.4419C8.05916 10.3247 8.125 10.1658 8.125 10C8.125 9.83424 8.05916 9.67527 7.94195 9.55806C7.82473 9.44085 7.66576 9.375 7.5 9.375ZM19.1922 9.55781L16.6922 7.05781C16.5749 6.94054 16.4159 6.87465 16.25 6.87465C16.0842 6.87465 15.9251 6.94054 15.8078 7.05781C15.6905 7.17509 15.6247 7.33415 15.6247 7.5C15.6247 7.66585 15.6905 7.82491 15.8078 7.94219L17.2414 9.375H12.5C12.3342 9.375 12.1753 9.44085 12.0581 9.55806C11.9409 9.67527 11.875 9.83424 11.875 10C11.875 10.1658 11.9409 10.3247 12.0581 10.4419C12.1753 10.5592 12.3342 10.625 12.5 10.625H17.2414L15.8078 12.0578C15.6905 12.1751 15.6247 12.3341 15.6247 12.5C15.6247 12.6659 15.6905 12.8249 15.8078 12.9422C15.9251 13.0595 16.0842 13.1253 16.25 13.1253C16.4159 13.1253 16.5749 13.0595 16.6922 12.9422L19.1922 10.4422C19.2503 10.3841 19.2964 10.3152 19.3279 10.2393C19.3593 10.1635 19.3755 10.0821 19.3755 10C19.3755 9.91787 19.3593 9.83654 19.3279 9.76066C19.2964 9.68479 19.2503 9.61586 19.1922 9.55781Z" fill="#191F2E"/>
</svg>
