<svg width="20" height="20" viewBox="0 0 20 20" fill="none" xmlns="http://www.w3.org/2000/svg">
<path d="M15.3125 3.125V8.125C15.3126 8.24815 15.2884 8.37011 15.2414 8.48392C15.1943 8.59773 15.1253 8.70115 15.0383 8.78828L10.9375 12.8906V15.8594L11.8367 14.9594C12.0128 14.7833 12.2517 14.6843 12.5008 14.6843C12.7499 14.6843 12.9887 14.7833 13.1648 14.9594C13.341 15.1355 13.4399 15.3744 13.4399 15.6234C13.4399 15.8725 13.341 16.1114 13.1648 16.2875L10.6648 18.7875C10.5777 18.8749 10.4743 18.9442 10.3603 18.9916C10.2463 19.0389 10.1242 19.0632 10.0008 19.0632C9.87739 19.0632 9.75522 19.0389 9.64126 18.9916C9.52731 18.9442 9.42382 18.8749 9.33672 18.7875L6.83672 16.2875C6.74951 16.2003 6.68034 16.0968 6.63314 15.9828C6.58595 15.8689 6.56166 15.7468 6.56166 15.6234C6.56166 15.5001 6.58595 15.378 6.63314 15.2641C6.68034 15.1501 6.74951 15.0466 6.83672 14.9594C6.92393 14.8722 7.02745 14.803 7.14139 14.7558C7.25533 14.7086 7.37745 14.6843 7.50078 14.6843C7.62411 14.6843 7.74623 14.7086 7.86017 14.7558C7.97411 14.803 8.07764 14.8722 8.16484 14.9594L9.0625 15.8594V12.8906L4.96172 8.78828C4.87469 8.70115 4.80567 8.59773 4.75862 8.48392C4.71157 8.37011 4.6874 8.24815 4.6875 8.125V3.125C4.6875 2.87636 4.78627 2.6379 4.96209 2.46209C5.1379 2.28627 5.37636 2.1875 5.625 2.1875C5.87364 2.1875 6.1121 2.28627 6.28791 2.46209C6.46373 2.6379 6.5625 2.87636 6.5625 3.125V7.73438L10 11.1719L13.4375 7.73438V3.125C13.4375 2.87636 13.5363 2.6379 13.7121 2.46209C13.8879 2.28627 14.1264 2.1875 14.375 2.1875C14.6236 2.1875 14.8621 2.28627 15.0379 2.46209C15.2137 2.6379 15.3125 2.87636 15.3125 3.125Z" fill="#191F2E"/>
</svg>
