<svg width="20" height="20" viewBox="0 0 20 20" fill="none" xmlns="http://www.w3.org/2000/svg">
<path d="M13.1633 14.9617C13.2507 15.0488 13.3201 15.1523 13.3674 15.2663C13.4147 15.3802 13.439 15.5024 13.439 15.6258C13.439 15.7492 13.4147 15.8714 13.3674 15.9853C13.3201 16.0993 13.2507 16.2028 13.1633 16.2899L10.6633 18.7899C10.5762 18.8773 10.4727 18.9466 10.3588 18.9939C10.2448 19.0413 10.1226 19.0656 9.99925 19.0656C9.87586 19.0656 9.75368 19.0413 9.63973 18.9939C9.52577 18.9466 9.42228 18.8773 9.33518 18.7899L6.83518 16.2899C6.65906 16.1138 6.56012 15.8749 6.56012 15.6258C6.56012 15.3767 6.65906 15.1379 6.83518 14.9617C7.0113 14.7856 7.25017 14.6867 7.49925 14.6867C7.74832 14.6867 7.98719 14.7856 8.16331 14.9617L9.06253 15.8594V4.14066L8.16331 5.03831C8.0761 5.12552 7.97257 5.19469 7.85863 5.24189C7.74469 5.28908 7.62257 5.31338 7.49925 5.31338C7.25017 5.31338 7.0113 5.21443 6.83518 5.03831C6.74798 4.95111 6.6788 4.84758 6.63161 4.73364C6.58441 4.6197 6.56012 4.49758 6.56012 4.37425C6.56012 4.12518 6.65906 3.88631 6.83518 3.71019L9.33518 1.21019C9.42228 1.12279 9.52577 1.05344 9.63973 1.00612C9.75368 0.958805 9.87586 0.934448 9.99925 0.934448C10.1226 0.934448 10.2448 0.958805 10.3588 1.00612C10.4727 1.05344 10.5762 1.12279 10.6633 1.21019L13.1633 3.71019C13.3394 3.88631 13.4384 4.12518 13.4384 4.37425C13.4384 4.62332 13.3394 4.86219 13.1633 5.03831C12.9872 5.21443 12.7483 5.31338 12.4992 5.31338C12.2502 5.31338 12.0113 5.21443 11.8352 5.03831L10.9375 4.14066V15.8594L11.8367 14.9594C11.924 14.8724 12.0275 14.8034 12.1414 14.7564C12.2553 14.7095 12.3773 14.6854 12.5005 14.6856C12.6237 14.6858 12.7457 14.7103 12.8594 14.7577C12.9731 14.8051 13.0764 14.8744 13.1633 14.9617Z" fill="#191F2E"/>
</svg>
