<svg width="20" height="20" viewBox="0 0 20 20" fill="none" xmlns="http://www.w3.org/2000/svg">
<path d="M6.69219 11.4327C6.80947 11.5499 6.87535 11.709 6.87535 11.8749C6.87535 12.0407 6.80947 12.1998 6.69219 12.317C6.57492 12.4343 6.41586 12.5002 6.25 12.5002C6.08415 12.5002 5.92509 12.4343 5.80782 12.317L2.05782 8.56705C1.99971 8.509 1.95361 8.44007 1.92215 8.3642C1.8907 8.28832 1.87451 8.20699 1.87451 8.12486C1.87451 8.04272 1.8907 7.9614 1.92215 7.88552C1.95361 7.80965 1.99971 7.74072 2.05782 7.68267L5.80782 3.93267C5.92509 3.8154 6.08415 3.74951 6.25 3.74951C6.41586 3.74951 6.57492 3.8154 6.69219 3.93267C6.80947 4.04995 6.87535 4.20901 6.87535 4.37486C6.87535 4.54071 6.80947 4.69977 6.69219 4.81705L3.3836 8.12486L6.69219 11.4327ZM10 7.49986H7.7586L10.4422 4.81705C10.5595 4.69977 10.6254 4.54071 10.6254 4.37486C10.6254 4.20901 10.5595 4.04995 10.4422 3.93267C10.3249 3.8154 10.1659 3.74951 10 3.74951C9.83415 3.74951 9.67509 3.8154 9.55782 3.93267L5.80782 7.68267C5.74971 7.74072 5.70361 7.80965 5.67215 7.88552C5.6407 7.9614 5.62451 8.04272 5.62451 8.12486C5.62451 8.20699 5.6407 8.28832 5.67215 8.3642C5.70361 8.44007 5.74971 8.509 5.80782 8.56705L9.55782 12.317C9.61589 12.3751 9.68482 12.4212 9.76069 12.4526C9.83656 12.484 9.91788 12.5002 10 12.5002C10.0821 12.5002 10.1634 12.484 10.2393 12.4526C10.3152 12.4212 10.3841 12.3751 10.4422 12.317C10.5003 12.259 10.5463 12.19 10.5777 12.1142C10.6092 12.0383 10.6254 11.957 10.6254 11.8749C10.6254 11.7927 10.6092 11.7114 10.5777 11.6355C10.5463 11.5597 10.5003 11.4907 10.4422 11.4327L7.7586 8.74986H10C11.8227 8.75193 13.5702 9.47692 14.8591 10.7658C16.1479 12.0546 16.8729 13.8021 16.875 15.6249C16.875 15.7906 16.9409 15.9496 17.0581 16.0668C17.1753 16.184 17.3342 16.2499 17.5 16.2499C17.6658 16.2499 17.8247 16.184 17.9419 16.0668C18.0592 15.9496 18.125 15.7906 18.125 15.6249C18.1227 13.4707 17.266 11.4054 15.7427 9.88213C14.2195 8.35889 12.1542 7.50213 10 7.49986Z" fill="#191F2E"/>
</svg>
