<svg width="20" height="20" viewBox="0 0 20 20" fill="none" xmlns="http://www.w3.org/2000/svg">
<path d="M16.2883 11.9133L10.6633 17.5383C10.5762 17.6257 10.4727 17.695 10.3588 17.7423C10.2448 17.7897 10.1226 17.814 9.99925 17.814C9.87586 17.814 9.75368 17.7897 9.63973 17.7423C9.52577 17.695 9.42228 17.6257 9.33518 17.5383L3.71018 11.9133C3.53406 11.7372 3.43512 11.4983 3.43512 11.2492C3.43512 11.0001 3.53406 10.7613 3.71018 10.5852C3.8863 10.409 4.12517 10.3101 4.37425 10.3101C4.62332 10.3101 4.86219 10.409 5.03831 10.5852L9.06253 14.6094V3.125C9.06253 2.87636 9.1613 2.6379 9.33711 2.46209C9.51293 2.28627 9.75139 2.1875 10 2.1875C10.2487 2.1875 10.4871 2.28627 10.6629 2.46209C10.8388 2.6379 10.9375 2.87636 10.9375 3.125V14.6094L14.9617 10.5844C15.1379 10.4083 15.3767 10.3093 15.6258 10.3093C15.8749 10.3093 16.1137 10.4083 16.2899 10.5844C16.466 10.7605 16.5649 10.9994 16.5649 11.2484C16.5649 11.4975 16.466 11.7364 16.2899 11.9125L16.2883 11.9133Z" fill="#191F2E"/>
</svg>
