<svg width="20" height="20" viewBox="0 0 20 20" fill="none" xmlns="http://www.w3.org/2000/svg">
<path d="M19.0625 6.8749V11.8749C19.0625 12.1235 18.9637 12.362 18.7879 12.5378C18.6121 12.7136 18.3736 12.8124 18.125 12.8124H13.125C12.8764 12.8124 12.6379 12.7136 12.4621 12.5378C12.2863 12.362 12.1875 12.1235 12.1875 11.8749C12.1875 11.6263 12.2863 11.3878 12.4621 11.212C12.6379 11.0362 12.8764 10.9374 13.125 10.9374H15.8516L14.6422 9.73662C13.7246 8.81835 12.5553 8.19283 11.2822 7.93919C10.0091 7.68555 8.68938 7.81519 7.48996 8.3117C6.29053 8.80822 5.26531 9.6493 4.54396 10.7286C3.82262 11.8078 3.43756 13.0768 3.4375 14.3749C3.4375 14.6235 3.33873 14.862 3.16291 15.0378C2.9871 15.2136 2.74864 15.3124 2.5 15.3124C2.25136 15.3124 2.0129 15.2136 1.83709 15.0378C1.66127 14.862 1.5625 14.6235 1.5625 14.3749C1.56242 12.7061 2.05723 11.0747 2.98435 9.68708C3.91147 8.29946 5.22926 7.21795 6.77106 6.5793C8.31286 5.94066 10.0094 5.77357 11.6462 6.09916C13.2829 6.42476 14.7864 7.22841 15.9664 8.40849L17.1875 9.62178V6.8749C17.1875 6.62626 17.2863 6.3878 17.4621 6.21199C17.6379 6.03617 17.8764 5.9374 18.125 5.9374C18.3736 5.9374 18.6121 6.03617 18.7879 6.21199C18.9637 6.3878 19.0625 6.62626 19.0625 6.8749Z" fill="#191F2E"/>
</svg>
