<svg width="20" height="20" viewBox="0 0 20 20" fill="none" xmlns="http://www.w3.org/2000/svg">
<path d="M18.0773 7.73907C18.0301 7.85328 17.95 7.95091 17.8472 8.0196C17.7444 8.0883 17.6236 8.12498 17.5 8.125H14.375V15C14.375 15.1658 14.3092 15.3247 14.1919 15.4419C14.0747 15.5592 13.9158 15.625 13.75 15.625H2.5C2.33424 15.625 2.17527 15.5592 2.05806 15.4419C1.94085 15.3247 1.875 15.1658 1.875 15C1.875 14.8342 1.94085 14.6753 2.05806 14.5581C2.17527 14.4409 2.33424 14.375 2.5 14.375H13.125V8.125H10C9.87632 8.1251 9.75538 8.0885 9.65251 8.01983C9.54964 7.95116 9.46946 7.85351 9.42211 7.73925C9.37477 7.62498 9.36239 7.49924 9.38654 7.37794C9.4107 7.25663 9.4703 7.14523 9.55781 7.05782L13.3078 3.30782C13.3659 3.24971 13.4348 3.20361 13.5107 3.17215C13.5865 3.1407 13.6679 3.12451 13.75 3.12451C13.8321 3.12451 13.9135 3.1407 13.9893 3.17215C14.0652 3.20361 14.1341 3.24971 14.1922 3.30782L17.9422 7.05782C18.0296 7.14527 18.089 7.25668 18.1131 7.37794C18.1372 7.4992 18.1247 7.62488 18.0773 7.73907Z" fill="#191F2E"/>
</svg>
