<svg width="20" height="20" viewBox="0 0 20 20" fill="none" xmlns="http://www.w3.org/2000/svg">
<path d="M18.1633 8.78805L14.4133 12.5381C14.2372 12.7142 13.9983 12.8131 13.7492 12.8131C13.5001 12.8131 13.2613 12.7142 13.0852 12.5381C12.909 12.3619 12.8101 12.1231 12.8101 11.874C12.8101 11.6249 12.909 11.386 13.0852 11.2099L16.1719 8.12477L13.0867 5.03727C12.9106 4.86115 12.8117 4.62228 12.8117 4.37321C12.8117 4.12414 12.9106 3.88527 13.0867 3.70915C13.2628 3.53303 13.5017 3.43408 13.7508 3.43408C13.9999 3.43408 14.2387 3.53303 14.4148 3.70915L18.1648 7.45915C18.2523 7.54636 18.3216 7.64998 18.3688 7.76407C18.4161 7.87815 18.4403 8.00044 18.4402 8.12392C18.44 8.24741 18.4155 8.36964 18.368 8.48361C18.3205 8.59758 18.2509 8.70104 18.1633 8.78805ZM13.7883 7.45993L10.0383 3.70993C9.95108 3.62272 9.84755 3.55355 9.73361 3.50635C9.61967 3.45915 9.49755 3.43486 9.37422 3.43486C9.25089 3.43486 9.12877 3.45915 9.01483 3.50635C8.90089 3.55355 8.79736 3.62272 8.71016 3.70993C8.62295 3.79713 8.55377 3.90066 8.50658 4.0146C8.45938 4.12854 8.43509 4.25066 8.43509 4.37399C8.43509 4.49732 8.45938 4.61944 8.50658 4.73338C8.55377 4.84732 8.62295 4.95085 8.71016 5.03805L10.8594 7.18727H10C7.763 7.18975 5.61833 8.0795 4.03653 9.6613C2.45473 11.2431 1.56498 13.3878 1.5625 15.6248C1.5625 15.8734 1.66127 16.1119 1.83709 16.2877C2.0129 16.4635 2.25136 16.5623 2.5 16.5623C2.74864 16.5623 2.9871 16.4635 3.16291 16.2877C3.33873 16.1119 3.4375 15.8734 3.4375 15.6248C3.43936 13.8849 4.13136 12.2167 5.36167 10.9864C6.59197 9.75613 8.26009 9.06413 10 9.06227H10.8594L8.70938 11.2115C8.53326 11.3876 8.43431 11.6265 8.43431 11.8756C8.43431 12.1246 8.53326 12.3635 8.70938 12.5396C8.8855 12.7157 9.12437 12.8147 9.37344 12.8147C9.62251 12.8147 9.86138 12.7157 10.0375 12.5396L13.7875 8.78961C13.875 8.70257 13.9444 8.59912 13.9917 8.48519C14.0391 8.37126 14.0636 8.2491 14.0636 8.12571C14.0637 8.00233 14.0394 7.88014 13.9922 7.76615C13.9449 7.65217 13.8756 7.54864 13.7883 7.46149V7.45993Z" fill="#191F2E"/>
</svg>
