<svg width="20" height="20" viewBox="0 0 20 20" fill="none" xmlns="http://www.w3.org/2000/svg">
<path d="M9.32735 13.5109C9.37472 13.6251 9.38717 13.7508 9.36311 13.8721C9.33905 13.9933 9.27957 14.1047 9.19219 14.1922L6.69219 16.6922C6.63415 16.7503 6.56522 16.7964 6.48934 16.8279C6.41347 16.8593 6.33214 16.8755 6.25 16.8755C6.16787 16.8755 6.08654 16.8593 6.01067 16.8279C5.93479 16.7964 5.86586 16.7503 5.80782 16.6922L3.30782 14.1922C3.22031 14.1048 3.1607 13.9934 3.13655 13.8721C3.11239 13.7508 3.12477 13.625 3.17211 13.5108C3.21946 13.3965 3.29964 13.2988 3.40252 13.2302C3.50539 13.1615 3.62632 13.1249 3.75 13.125H5.625V3.75C5.625 3.58424 5.69085 3.42527 5.80806 3.30806C5.92527 3.19085 6.08424 3.125 6.25 3.125C6.41576 3.125 6.57474 3.19085 6.69195 3.30806C6.80916 3.42527 6.875 3.58424 6.875 3.75V13.125H8.75C8.87362 13.125 8.99445 13.1617 9.09721 13.2304C9.19998 13.2991 9.28007 13.3967 9.32735 13.5109ZM16.6922 5.80782L14.1922 3.30782C14.1341 3.24971 14.0652 3.20361 13.9893 3.17215C13.9135 3.1407 13.8321 3.12451 13.75 3.12451C13.6679 3.12451 13.5865 3.1407 13.5107 3.17215C13.4348 3.20361 13.3659 3.24971 13.3078 3.30782L10.8078 5.80782C10.7203 5.89523 10.6607 6.00663 10.6365 6.12794C10.6124 6.24924 10.6248 6.37498 10.6721 6.48925C10.7195 6.60351 10.7996 6.70116 10.9025 6.76983C11.0054 6.8385 11.1263 6.8751 11.25 6.875H13.125V16.25C13.125 16.4158 13.1909 16.5747 13.3081 16.6919C13.4253 16.8092 13.5842 16.875 13.75 16.875C13.9158 16.875 14.0747 16.8092 14.1919 16.6919C14.3092 16.5747 14.375 16.4158 14.375 16.25V6.875H16.25C16.3737 6.8751 16.4946 6.8385 16.5975 6.76983C16.7004 6.70116 16.7805 6.60351 16.8279 6.48925C16.8752 6.37498 16.8876 6.24924 16.8635 6.12794C16.8393 6.00663 16.7797 5.89523 16.6922 5.80782Z" fill="#191F2E"/>
</svg>
