<svg width="20" height="20" viewBox="0 0 20 20" fill="none" xmlns="http://www.w3.org/2000/svg">
<path d="M18.1625 8.71178L10.6625 1.21177C10.5754 1.12437 10.4719 1.05503 10.3579 1.00771C10.244 0.960392 10.1218 0.936035 9.99841 0.936035C9.87502 0.936035 9.75285 0.960392 9.63889 1.00771C9.52494 1.05503 9.42145 1.12437 9.33435 1.21177L1.83435 8.71178C1.70295 8.84303 1.61349 9.01036 1.57733 9.19253C1.54117 9.37471 1.55993 9.56352 1.63124 9.73501C1.70255 9.9065 1.82319 10.0529 1.97786 10.1558C2.13252 10.2586 2.31425 10.3132 2.49997 10.3126H5.31247V16.2501C5.31247 16.6645 5.47709 17.0619 5.77012 17.3549C6.06315 17.6479 6.46057 17.8126 6.87497 17.8126H13.125C13.5394 17.8126 13.9368 17.6479 14.2298 17.3549C14.5229 17.0619 14.6875 16.6645 14.6875 16.2501V10.3126H17.5C17.6854 10.3125 17.8667 10.2575 18.0209 10.1545C18.1751 10.0514 18.2953 9.90493 18.3662 9.73356C18.4371 9.5622 18.4556 9.37365 18.4193 9.19176C18.3831 9.00988 18.2937 8.84284 18.1625 8.71178ZM13.75 8.43756C13.5013 8.43756 13.2629 8.53633 13.0871 8.71214C12.9112 8.88796 12.8125 9.12642 12.8125 9.37506V15.9376H7.18747V9.37506C7.18747 9.12642 7.0887 8.88796 6.91289 8.71214C6.73707 8.53633 6.49861 8.43756 6.24997 8.43756H4.7656L9.99997 3.20318L15.2343 8.43756H13.75Z" fill="#191F2E"/>
</svg>
