<svg width="20" height="20" viewBox="0 0 20 20" fill="none" xmlns="http://www.w3.org/2000/svg">
<path d="M18.75 6.875V11.875C18.75 12.0408 18.6842 12.1997 18.5669 12.3169C18.4497 12.4342 18.2908 12.5 18.125 12.5H13.125C13.0013 12.5001 12.8804 12.4635 12.7775 12.3948C12.6746 12.3262 12.5945 12.2285 12.5471 12.1142C12.4998 12 12.4874 11.8742 12.5115 11.7529C12.5357 11.6316 12.5953 11.5202 12.6828 11.4328L14.7289 9.3875C13.7535 8.4632 12.5286 7.84501 11.2057 7.60935C9.88275 7.37369 8.51975 7.53089 7.28518 8.06152C6.05062 8.59215 4.99863 9.47294 4.25925 10.595C3.51988 11.7171 3.12555 13.0312 3.125 14.375C3.125 14.5408 3.05915 14.6997 2.94194 14.8169C2.82473 14.9342 2.66576 15 2.5 15C2.33424 15 2.17527 14.9342 2.05806 14.8169C1.94085 14.6997 1.875 14.5408 1.875 14.375C1.87501 12.7837 2.34233 11.2273 3.21896 9.89922C4.09559 8.5711 5.34293 7.52965 6.80618 6.90411C8.26942 6.27857 9.88415 6.0965 11.4499 6.38048C13.0158 6.66447 14.4637 7.40201 15.6141 8.50157L17.6828 6.43282C17.7702 6.34531 17.8816 6.2857 18.0029 6.26155C18.1242 6.23739 18.25 6.24977 18.3642 6.29711C18.4785 6.34446 18.5762 6.42464 18.6448 6.52752C18.7135 6.63039 18.7501 6.75132 18.75 6.875Z" fill="#191F2E"/>
</svg>
