<svg width="20" height="20" viewBox="0 0 20 20" fill="none" xmlns="http://www.w3.org/2000/svg">
<path d="M17.8125 10C17.8125 10.2486 17.7137 10.4871 17.5379 10.6629C17.3621 10.8387 17.1236 10.9375 16.875 10.9375H3.125C2.87636 10.9375 2.6379 10.8387 2.46209 10.6629C2.28627 10.4871 2.1875 10.2486 2.1875 10C2.1875 9.75136 2.28627 9.5129 2.46209 9.33709C2.6379 9.16127 2.87636 9.0625 3.125 9.0625H16.875C17.1236 9.0625 17.3621 9.16127 17.5379 9.33709C17.7137 9.5129 17.8125 9.75136 17.8125 10ZM9.33672 7.53828C9.42382 7.62568 9.52731 7.69503 9.64126 7.74235C9.75522 7.78966 9.87739 7.81402 10.0008 7.81402C10.1242 7.81402 10.2463 7.78966 10.3603 7.74235C10.4743 7.69503 10.5777 7.62568 10.6648 7.53828L13.1648 5.03828C13.341 4.86216 13.4399 4.62329 13.4399 4.37422C13.4399 4.12515 13.341 3.88628 13.1648 3.71016C12.9887 3.53404 12.7499 3.43509 12.5008 3.43509C12.2517 3.43509 12.0128 3.53404 11.8367 3.71016L10.9375 4.60938V1.25C10.9375 1.00136 10.8387 0.762903 10.6629 0.587087C10.4871 0.411272 10.2486 0.3125 10 0.3125C9.75136 0.3125 9.5129 0.411272 9.33709 0.587087C9.16127 0.762903 9.0625 1.00136 9.0625 1.25V4.60938L8.16328 3.71172C7.98716 3.5356 7.74829 3.43666 7.49922 3.43666C7.25015 3.43666 7.01128 3.5356 6.83516 3.71172C6.65904 3.88784 6.56009 4.12671 6.56009 4.37578C6.56009 4.62485 6.65904 4.86372 6.83516 5.03984L9.33672 7.53828ZM10.6648 12.4602C10.5777 12.3728 10.4743 12.3034 10.3603 12.2561C10.2463 12.2088 10.1242 12.1844 10.0008 12.1844C9.87739 12.1844 9.75522 12.2088 9.64126 12.2561C9.52731 12.3034 9.42382 12.3728 9.33672 12.4602L6.83672 14.9602C6.6606 15.1363 6.56165 15.3751 6.56166 15.6242C6.56166 15.8733 6.6606 16.1122 6.83672 16.2883C7.01284 16.4644 7.25171 16.5633 7.50078 16.5633C7.74985 16.5633 7.98872 16.4644 8.16484 16.2883L9.0625 15.3906V18.75C9.0625 18.9986 9.16127 19.2371 9.33709 19.4129C9.5129 19.5887 9.75136 19.6875 10 19.6875C10.2486 19.6875 10.4871 19.5887 10.6629 19.4129C10.8387 19.2371 10.9375 18.9986 10.9375 18.75V15.3906L11.8367 16.2906C12.0128 16.4667 12.2517 16.5657 12.5008 16.5657C12.7499 16.5657 12.9887 16.4667 13.1648 16.2906C13.341 16.1145 13.4399 15.8756 13.4399 15.6266C13.4399 15.3775 13.341 15.1386 13.1648 14.9625L10.6648 12.4602Z" fill="#191F2E"/>
</svg>
