<svg width="20" height="20" viewBox="0 0 20 20" fill="none" xmlns="http://www.w3.org/2000/svg">
<path d="M16.2883 11.2117C16.4644 11.3878 16.5633 11.6267 16.5633 11.8758C16.5633 12.1249 16.4644 12.3637 16.2883 12.5398C16.1122 12.716 15.8733 12.8149 15.6242 12.8149C15.3751 12.8149 15.1363 12.716 14.9602 12.5398L10.9375 8.51562V17.5C10.9375 17.7486 10.8387 17.9871 10.6629 18.1629C10.4871 18.3387 10.2486 18.4375 10 18.4375C9.75136 18.4375 9.5129 18.3387 9.33709 18.1629C9.16127 17.9871 9.0625 17.7486 9.0625 17.5V8.51562L5.03828 12.5383C4.86216 12.7144 4.62329 12.8133 4.37422 12.8133C4.12515 12.8133 3.88628 12.7144 3.71016 12.5383C3.53404 12.3622 3.43509 12.1233 3.43509 11.8742C3.43509 11.6251 3.53404 11.3863 3.71016 11.2102L9.33516 5.58516C9.42225 5.49776 9.52575 5.42841 9.6397 5.38109C9.75366 5.33377 9.87583 5.30942 9.99922 5.30942C10.1226 5.30942 10.2448 5.33377 10.3587 5.38109C10.4727 5.42841 10.5762 5.49776 10.6633 5.58516L16.2883 11.2117ZM16.875 2.1875H3.125C2.87636 2.1875 2.6379 2.28627 2.46209 2.46209C2.28627 2.6379 2.1875 2.87636 2.1875 3.125C2.1875 3.37364 2.28627 3.6121 2.46209 3.78791C2.6379 3.96373 2.87636 4.0625 3.125 4.0625H16.875C17.1236 4.0625 17.3621 3.96373 17.5379 3.78791C17.7137 3.6121 17.8125 3.37364 17.8125 3.125C17.8125 2.87636 17.7137 2.6379 17.5379 2.46209C17.3621 2.28627 17.1236 2.1875 16.875 2.1875Z" fill="#191F2E"/>
</svg>
