<svg width="20" height="20" viewBox="0 0 20 20" fill="none" xmlns="http://www.w3.org/2000/svg">
<path d="M18.0773 9.61407C18.0301 9.72828 17.95 9.82591 17.8472 9.8946C17.7444 9.9633 17.6236 9.99998 17.5 10H14.375V16.25C14.375 16.5815 14.2433 16.8995 14.0089 17.1339C13.7745 17.3683 13.4565 17.5 13.125 17.5H6.875C6.54348 17.5 6.22554 17.3683 5.99112 17.1339C5.7567 16.8995 5.625 16.5815 5.625 16.25V10H2.5C2.37632 10.0001 2.25539 9.9635 2.15252 9.89483C2.04964 9.82616 1.96946 9.72851 1.92211 9.61425C1.87477 9.49998 1.86239 9.37424 1.88655 9.25294C1.9107 9.13163 1.97031 9.02023 2.05782 8.93282L9.55782 1.43282C9.61586 1.37471 9.68479 1.32861 9.76067 1.29715C9.83654 1.2657 9.91787 1.24951 10 1.24951C10.0821 1.24951 10.1635 1.2657 10.2393 1.29715C10.3152 1.32861 10.3841 1.37471 10.4422 1.43282L17.9422 8.93282C18.0296 9.02027 18.0891 9.13168 18.1131 9.25294C18.1372 9.3742 18.1247 9.49988 18.0773 9.61407Z" fill="#191F2E"/>
</svg>
