<svg width="20" height="20" viewBox="0 0 20 20" fill="none" xmlns="http://www.w3.org/2000/svg">
<path d="M16.25 2.1875H3.75C3.3356 2.1875 2.93817 2.35212 2.64515 2.64515C2.35212 2.93817 2.1875 3.3356 2.1875 3.75V16.25C2.1875 16.6644 2.35212 17.0618 2.64515 17.3549C2.93817 17.6479 3.3356 17.8125 3.75 17.8125H16.25C16.6644 17.8125 17.0618 17.6479 17.3549 17.3549C17.6479 17.0618 17.8125 16.6644 17.8125 16.25V3.75C17.8125 3.3356 17.6479 2.93817 17.3549 2.64515C17.0618 2.35212 16.6644 2.1875 16.25 2.1875ZM15.9375 15.9375H4.0625V4.0625H15.9375V15.9375ZM6.5625 12.5V8.75C6.5625 8.50136 6.66127 8.2629 6.83709 8.08709C7.0129 7.91127 7.25136 7.8125 7.5 7.8125C7.74864 7.8125 7.9871 7.91127 8.16291 8.08709C8.33873 8.2629 8.4375 8.50136 8.4375 8.75V10.2344L11.8367 6.83438C12.0128 6.65826 12.2517 6.55931 12.5008 6.55931C12.7499 6.55931 12.9887 6.65826 13.1648 6.83438C13.341 7.0105 13.4399 7.24937 13.4399 7.49844C13.4399 7.74751 13.341 7.98638 13.1648 8.1625L9.76562 11.5625H11.25C11.4986 11.5625 11.7371 11.6613 11.9129 11.8371C12.0887 12.0129 12.1875 12.2514 12.1875 12.5C12.1875 12.7486 12.0887 12.9871 11.9129 13.1629C11.7371 13.3387 11.4986 13.4375 11.25 13.4375H7.5C7.25136 13.4375 7.0129 13.3387 6.83709 13.1629C6.66127 12.9871 6.5625 12.7486 6.5625 12.5Z" fill="#191F2E"/>
</svg>
