<svg width="20" height="20" viewBox="0 0 20 20" fill="none" xmlns="http://www.w3.org/2000/svg">
<path d="M16.25 2.5C16.25 2.66576 16.1842 2.82473 16.0669 2.94194C15.9497 3.05915 15.7908 3.125 15.625 3.125C13.8023 3.12707 12.0548 3.85206 10.7659 5.14092C9.47706 6.42979 8.75207 8.17727 8.75 10V13.125H11.875C11.9987 13.1249 12.1196 13.1615 12.2225 13.2302C12.3254 13.2988 12.4055 13.3965 12.4529 13.5108C12.5002 13.625 12.5126 13.7508 12.4885 13.8721C12.4643 13.9934 12.4047 14.1048 12.3172 14.1922L8.56719 17.9422C8.50915 18.0003 8.44022 18.0464 8.36434 18.0779C8.28847 18.1093 8.20714 18.1255 8.125 18.1255C8.04287 18.1255 7.96154 18.1093 7.88567 18.0779C7.80979 18.0464 7.74086 18.0003 7.68282 17.9422L3.93282 14.1922C3.84531 14.1048 3.7857 13.9934 3.76155 13.8721C3.73739 13.7508 3.74977 13.625 3.79711 13.5108C3.84446 13.3965 3.92464 13.2988 4.02752 13.2302C4.13039 13.1615 4.25132 13.1249 4.375 13.125H7.5V10C7.50228 7.84581 8.35903 5.78051 9.88227 4.25727C11.4055 2.73403 13.4708 1.87727 15.625 1.875C15.7908 1.875 15.9497 1.94085 16.0669 2.05806C16.1842 2.17527 16.25 2.33424 16.25 2.5Z" fill="#191F2E"/>
</svg>
