<svg width="20" height="20" viewBox="0 0 20 20" fill="none" xmlns="http://www.w3.org/2000/svg">
<path d="M7.94219 9.55781C8.0003 9.61586 8.0464 9.68479 8.07785 9.76066C8.1093 9.83654 8.12549 9.91787 8.12549 10C8.12549 10.0821 8.1093 10.1635 8.07785 10.2393C8.0464 10.3152 8.0003 10.3841 7.94219 10.4422L5.44219 12.9422C5.35478 13.0297 5.24337 13.0893 5.12207 13.1135C5.00076 13.1376 4.87502 13.1252 4.76076 13.0779C4.64649 13.0305 4.54884 12.9504 4.48017 12.8475C4.41151 12.7446 4.3749 12.6237 4.375 12.5V10.625H1.25C1.08424 10.625 0.925268 10.5592 0.808058 10.4419C0.690848 10.3247 0.625 10.1658 0.625 10C0.625 9.83424 0.690848 9.67527 0.808058 9.55806C0.925268 9.44085 1.08424 9.375 1.25 9.375H4.375V7.5C4.3749 7.37632 4.41151 7.25538 4.48017 7.15251C4.54884 7.04964 4.64649 6.96946 4.76076 6.92211C4.87502 6.87477 5.00076 6.86239 5.12207 6.88654C5.24337 6.9107 5.35478 6.9703 5.44219 7.05781L7.94219 9.55781ZM18.75 9.375H15.625V7.5C15.6251 7.37632 15.5885 7.25538 15.5198 7.15251C15.4512 7.04964 15.3535 6.96946 15.2392 6.92211C15.125 6.87477 14.9992 6.86239 14.8779 6.88654C14.7566 6.9107 14.6452 6.9703 14.5578 7.05781L12.0578 9.55781C11.9997 9.61586 11.9536 9.68479 11.9221 9.76066C11.8907 9.83654 11.8745 9.91787 11.8745 10C11.8745 10.0821 11.8907 10.1635 11.9221 10.2393C11.9536 10.3152 11.9997 10.3841 12.0578 10.4422L14.5578 12.9422C14.6452 13.0297 14.7566 13.0893 14.8779 13.1135C14.9992 13.1376 15.125 13.1252 15.2392 13.0779C15.3535 13.0305 15.4512 12.9504 15.5198 12.8475C15.5885 12.7446 15.6251 12.6237 15.625 12.5V10.625H18.75C18.9158 10.625 19.0747 10.5592 19.1919 10.4419C19.3092 10.3247 19.375 10.1658 19.375 10C19.375 9.83424 19.3092 9.67527 19.1919 9.55806C19.0747 9.44085 18.9158 9.375 18.75 9.375ZM10 2.5C9.83424 2.5 9.67527 2.56585 9.55806 2.68306C9.44085 2.80027 9.375 2.95924 9.375 3.125V16.875C9.375 17.0408 9.44085 17.1997 9.55806 17.3169C9.67527 17.4342 9.83424 17.5 10 17.5C10.1658 17.5 10.3247 17.4342 10.4419 17.3169C10.5592 17.1997 10.625 17.0408 10.625 16.875V3.125C10.625 2.95924 10.5592 2.80027 10.4419 2.68306C10.3247 2.56585 10.1658 2.5 10 2.5Z" fill="#191F2E"/>
</svg>
