<svg width="20" height="20" viewBox="0 0 20 20" fill="none" xmlns="http://www.w3.org/2000/svg">
<path d="M18.75 6.25V11.875C18.75 12.0408 18.6842 12.1997 18.567 12.3169C18.4497 12.4342 18.2908 12.5 18.125 12.5C17.9593 12.5 17.8003 12.4342 17.6831 12.3169C17.5659 12.1997 17.5 12.0408 17.5 11.875V7.75859L9.8172 15.4422C9.75915 15.5003 9.69022 15.5464 9.61435 15.5779C9.53848 15.6093 9.45715 15.6255 9.37501 15.6255C9.29288 15.6255 9.21155 15.6093 9.13567 15.5779C9.0598 15.5464 8.99087 15.5003 8.93282 15.4422L1.43282 7.94219C1.31555 7.82491 1.24966 7.66585 1.24966 7.5C1.24966 7.33415 1.31555 7.17509 1.43282 7.05781C1.5501 6.94054 1.70916 6.87465 1.87501 6.87465C2.04086 6.87465 2.19992 6.94054 2.3172 7.05781L9.37501 14.1164L16.6164 6.875H12.5C12.3343 6.875 12.1753 6.80915 12.0581 6.69194C11.9409 6.57473 11.875 6.41576 11.875 6.25C11.875 6.08424 11.9409 5.92527 12.0581 5.80806C12.1753 5.69085 12.3343 5.625 12.5 5.625H18.125C18.2908 5.625 18.4497 5.69085 18.567 5.80806C18.6842 5.92527 18.75 6.08424 18.75 6.25Z" fill="#191F2E"/>
</svg>
