<svg width="20" height="20" viewBox="0 0 20 20" fill="none" xmlns="http://www.w3.org/2000/svg">
<path d="M16.25 2.1875H3.75C3.3356 2.1875 2.93817 2.35212 2.64515 2.64515C2.35212 2.93817 2.1875 3.3356 2.1875 3.75V16.25C2.1875 16.6644 2.35212 17.0618 2.64515 17.3549C2.93817 17.6479 3.3356 17.8125 3.75 17.8125H16.25C16.6644 17.8125 17.0618 17.6479 17.3549 17.3549C17.6479 17.0618 17.8125 16.6644 17.8125 16.25V3.75C17.8125 3.3356 17.6479 2.93817 17.3549 2.64515C17.0618 2.35212 16.6644 2.1875 16.25 2.1875ZM15.9375 15.9375H4.0625V4.0625H15.9375V15.9375ZM6.21172 10.6633C6.12432 10.5762 6.05497 10.4727 6.00765 10.3587C5.96034 10.2448 5.93598 10.1226 5.93598 9.99922C5.93598 9.87583 5.96034 9.75366 6.00765 9.6397C6.05497 9.52575 6.12432 9.42225 6.21172 9.33516L8.71172 6.83516C8.88784 6.65904 9.12671 6.56009 9.37578 6.56009C9.62485 6.56009 9.86372 6.65904 10.0398 6.83516C10.216 7.01128 10.3149 7.25015 10.3149 7.49922C10.3149 7.74829 10.216 7.98716 10.0398 8.16328L9.14062 9.0625H13.125C13.3736 9.0625 13.6121 9.16127 13.7879 9.33709C13.9637 9.5129 14.0625 9.75136 14.0625 10C14.0625 10.2486 13.9637 10.4871 13.7879 10.6629C13.6121 10.8387 13.3736 10.9375 13.125 10.9375H9.14062L10.0406 11.8367C10.2167 12.0128 10.3157 12.2517 10.3157 12.5008C10.3157 12.7499 10.2167 12.9887 10.0406 13.1648C9.8645 13.341 9.62563 13.4399 9.37656 13.4399C9.12749 13.4399 8.88862 13.341 8.7125 13.1648L6.21172 10.6633Z" fill="#191F2E"/>
</svg>
