<svg width="20" height="20" viewBox="0 0 20 20" fill="none" xmlns="http://www.w3.org/2000/svg">
<path d="M16.25 17.5C16.25 17.6658 16.1842 17.8247 16.067 17.9419C15.9497 18.0592 15.7908 18.125 15.625 18.125C13.4708 18.1227 11.4055 17.266 9.88228 15.7427C8.35904 14.2195 7.50229 12.1542 7.50001 10V4.0086L4.8172 6.69219C4.69992 6.80947 4.54086 6.87535 4.37501 6.87535C4.20916 6.87535 4.0501 6.80947 3.93282 6.69219C3.81555 6.57492 3.74966 6.41586 3.74966 6.25C3.74966 6.08415 3.81555 5.92509 3.93282 5.80782L7.68282 2.05782C7.74087 1.99971 7.8098 1.95361 7.88567 1.92215C7.96155 1.8907 8.04288 1.87451 8.12501 1.87451C8.20715 1.87451 8.28848 1.8907 8.36435 1.92215C8.44022 1.95361 8.50915 1.99971 8.5672 2.05782L12.3172 5.80782C12.4345 5.92509 12.5004 6.08415 12.5004 6.25C12.5004 6.41586 12.4345 6.57492 12.3172 6.69219C12.1999 6.80947 12.0409 6.87535 11.875 6.87535C11.7092 6.87535 11.5501 6.80947 11.4328 6.69219L8.75001 4.0086V10C8.75208 11.8227 9.47707 13.5702 10.7659 14.8591C12.0548 16.1479 13.8023 16.8729 15.625 16.875C15.7908 16.875 15.9497 16.9409 16.067 17.0581C16.1842 17.1753 16.25 17.3342 16.25 17.5Z" fill="#191F2E"/>
</svg>
