<svg width="20" height="20" viewBox="0 0 20 20" fill="none" xmlns="http://www.w3.org/2000/svg">
<path d="M10 1.875C8.39303 1.875 6.82214 2.35152 5.486 3.24431C4.14985 4.1371 3.10844 5.40605 2.49348 6.8907C1.87852 8.37535 1.71762 10.009 2.03112 11.5851C2.34463 13.1612 3.11846 14.6089 4.25476 15.7452C5.39106 16.8815 6.8388 17.6554 8.4149 17.9689C9.99099 18.2824 11.6247 18.1215 13.1093 17.5065C14.594 16.8916 15.8629 15.8502 16.7557 14.514C17.6485 13.1779 18.125 11.607 18.125 10C18.1227 7.84581 17.266 5.78051 15.7427 4.25727C14.2195 2.73403 12.1542 1.87727 10 1.875ZM10 16.875C8.64026 16.875 7.31105 16.4718 6.18046 15.7164C5.04987 14.9609 4.16868 13.8872 3.64833 12.6309C3.12798 11.3747 2.99183 9.99237 3.2571 8.65875C3.52238 7.32513 4.17716 6.10013 5.13864 5.13864C6.10013 4.17716 7.32514 3.52237 8.65876 3.2571C9.99238 2.99183 11.3747 3.12798 12.631 3.64833C13.8872 4.16868 14.9609 5.04987 15.7164 6.18045C16.4718 7.31104 16.875 8.64025 16.875 10C16.8729 11.8227 16.1479 13.5702 14.8591 14.8591C13.5702 16.1479 11.8227 16.8729 10 16.875ZM12.9422 10.1828C13.0003 10.2409 13.0464 10.3098 13.0779 10.3857C13.1093 10.4615 13.1255 10.5429 13.1255 10.625C13.1255 10.7071 13.1093 10.7885 13.0779 10.8643C13.0464 10.9402 13.0003 11.0091 12.9422 11.0672L10.4422 13.5672C10.3841 13.6253 10.3152 13.6714 10.2393 13.7029C10.1635 13.7343 10.0821 13.7505 10 13.7505C9.91787 13.7505 9.83654 13.7343 9.76067 13.7029C9.68479 13.6714 9.61586 13.6253 9.55782 13.5672L7.05782 11.0672C6.94054 10.9499 6.87466 10.7909 6.87466 10.625C6.87466 10.4591 6.94054 10.3001 7.05782 10.1828C7.17509 10.0655 7.33415 9.99965 7.5 9.99965C7.66586 9.99965 7.82492 10.0655 7.94219 10.1828L9.375 11.6164V6.875C9.375 6.70924 9.44085 6.55027 9.55806 6.43306C9.67527 6.31585 9.83424 6.25 10 6.25C10.1658 6.25 10.3247 6.31585 10.4419 6.43306C10.5592 6.55027 10.625 6.70924 10.625 6.875V11.6164L12.0578 10.1828C12.1159 10.1247 12.1848 10.0786 12.2607 10.0471C12.3365 10.0157 12.4179 9.99951 12.5 9.99951C12.5821 9.99951 12.6635 10.0157 12.7393 10.0471C12.8152 10.0786 12.8841 10.1247 12.9422 10.1828Z" fill="#191F2E"/>
</svg>
