<svg width="20" height="20" viewBox="0 0 20 20" fill="none" xmlns="http://www.w3.org/2000/svg">
<path d="M16.2883 9.41328C16.2012 9.50068 16.0977 9.57003 15.9838 9.61735C15.8698 9.66466 15.7476 9.68902 15.6242 9.68902C15.5009 9.68902 15.3787 9.66466 15.2647 9.61735C15.1508 9.57003 15.0473 9.50068 14.9602 9.41328L10.9375 5.39063V16.875C10.9375 17.1236 10.8388 17.3621 10.6629 17.5379C10.4871 17.7137 10.2487 17.8125 10 17.8125C9.75139 17.8125 9.51293 17.7137 9.33711 17.5379C9.1613 17.3621 9.06253 17.1236 9.06253 16.875V5.39063L5.03831 9.41328C4.86219 9.5894 4.62332 9.68835 4.37425 9.68835C4.12517 9.68835 3.8863 9.5894 3.71018 9.41328C3.53406 9.23716 3.43512 8.99829 3.43512 8.74922C3.43512 8.50015 3.53406 8.26128 3.71018 8.08516L9.33518 2.46016C9.42228 2.37276 9.52577 2.30341 9.63973 2.25609C9.75368 2.20877 9.87586 2.18442 9.99925 2.18442C10.1226 2.18442 10.2448 2.20877 10.3588 2.25609C10.4727 2.30341 10.5762 2.37276 10.6633 2.46016L16.2883 8.08516C16.3757 8.17225 16.4451 8.27575 16.4924 8.3897C16.5397 8.50366 16.564 8.62583 16.564 8.74922C16.564 8.87261 16.5397 8.99478 16.4924 9.10874C16.4451 9.22269 16.3757 9.32619 16.2883 9.41328Z" fill="#191F2E"/>
</svg>
