<svg width="20" height="20" viewBox="0 0 20 20" fill="none" xmlns="http://www.w3.org/2000/svg">
<path d="M17.9422 13.5672L14.1922 17.3172C14.1048 17.4047 13.9934 17.4643 13.8721 17.4885C13.7508 17.5126 13.625 17.5002 13.5108 17.4529C13.3965 17.4055 13.2988 17.3254 13.2302 17.2225C13.1615 17.1196 13.1249 16.9987 13.125 16.875V13.75H6.875C5.54892 13.75 4.27715 13.2232 3.33947 12.2855C2.40178 11.3479 1.875 10.0761 1.875 8.75C1.875 7.42392 2.40178 6.15215 3.33947 5.21447C4.27715 4.27678 5.54892 3.75 6.875 3.75H13.75C13.9158 3.75 14.0747 3.81585 14.1919 3.93306C14.3092 4.05027 14.375 4.20924 14.375 4.375C14.375 4.54076 14.3092 4.69973 14.1919 4.81694C14.0747 4.93415 13.9158 5 13.75 5H6.875C5.88044 5 4.92661 5.39509 4.22335 6.09835C3.52009 6.80161 3.125 7.75544 3.125 8.75C3.125 9.74456 3.52009 10.6984 4.22335 11.4017C4.92661 12.1049 5.88044 12.5 6.875 12.5H13.125V9.375C13.1249 9.25132 13.1615 9.13038 13.2302 9.02751C13.2988 8.92464 13.3965 8.84446 13.5108 8.79711C13.625 8.74977 13.7508 8.73739 13.8721 8.76154C13.9934 8.7857 14.1048 8.8453 14.1922 8.93281L17.9422 12.6828C18.0003 12.7409 18.0464 12.8098 18.0779 12.8857C18.1093 12.9615 18.1255 13.0429 18.1255 13.125C18.1255 13.2071 18.1093 13.2885 18.0779 13.3643C18.0464 13.4402 18.0003 13.5091 17.9422 13.5672Z" fill="#191F2E"/>
</svg>
