<svg width="20" height="20" viewBox="0 0 20 20" fill="none" xmlns="http://www.w3.org/2000/svg">
<path d="M17.3172 10.4422L11.6922 16.0672C11.6048 16.1547 11.4934 16.2143 11.3721 16.2385C11.2508 16.2626 11.125 16.2502 11.0108 16.2029C10.8965 16.1555 10.7988 16.0754 10.7302 15.9725C10.6615 15.8696 10.6249 15.7487 10.625 15.625V10.625H3.125C2.95924 10.625 2.80027 10.5592 2.68306 10.4419C2.56585 10.3247 2.5 10.1658 2.5 10C2.5 9.83424 2.56585 9.67527 2.68306 9.55806C2.80027 9.44085 2.95924 9.375 3.125 9.375H10.625V4.375C10.6249 4.25132 10.6615 4.13039 10.7302 4.02752C10.7988 3.92464 10.8965 3.84446 11.0108 3.79711C11.125 3.74977 11.2508 3.73739 11.3721 3.76155C11.4934 3.7857 11.6048 3.84531 11.6922 3.93282L17.3172 9.55782C17.3753 9.61586 17.4214 9.68479 17.4529 9.76067C17.4843 9.83654 17.5005 9.91787 17.5005 10C17.5005 10.0821 17.4843 10.1635 17.4529 10.2393C17.4214 10.3152 17.3753 10.3841 17.3172 10.4422Z" fill="#191F2E"/>
</svg>
