<svg width="20" height="20" viewBox="0 0 20 20" fill="none" xmlns="http://www.w3.org/2000/svg">
<path d="M18.7883 8.16328L11.2883 15.6633C11.2012 15.7507 11.0977 15.82 10.9837 15.8673C10.8698 15.9147 10.7476 15.939 10.6242 15.939C10.5008 15.939 10.3787 15.9147 10.2647 15.8673C10.1507 15.82 10.0473 15.7507 9.96016 15.6633L2.8125 8.51562V11.875C2.8125 12.1236 2.71373 12.3621 2.53791 12.5379C2.3621 12.7137 2.12364 12.8125 1.875 12.8125C1.62636 12.8125 1.3879 12.7137 1.21209 12.5379C1.03627 12.3621 0.9375 12.1236 0.9375 11.875V6.25C0.9375 6.00136 1.03627 5.7629 1.21209 5.58709C1.3879 5.41127 1.62636 5.3125 1.875 5.3125H7.5C7.74864 5.3125 7.9871 5.41127 8.16291 5.58709C8.33873 5.7629 8.4375 6.00136 8.4375 6.25C8.4375 6.49864 8.33873 6.7371 8.16291 6.91291C7.9871 7.08873 7.74864 7.1875 7.5 7.1875H4.14062L10.625 13.6719L17.4617 6.83438C17.6378 6.65825 17.8767 6.55931 18.1258 6.55931C18.3749 6.55931 18.6137 6.65825 18.7898 6.83438C18.966 7.0105 19.0649 7.24937 19.0649 7.49844C19.0649 7.74751 18.966 7.98638 18.7898 8.1625L18.7883 8.16328Z" fill="#191F2E"/>
</svg>
