<svg width="20" height="20" viewBox="0 0 20 20" fill="none" xmlns="http://www.w3.org/2000/svg">
<path d="M6.875 8.4375H3.125C2.87636 8.4375 2.6379 8.33873 2.46209 8.16291C2.28627 7.9871 2.1875 7.74864 2.1875 7.5V3.75C2.1875 3.50136 2.28627 3.2629 2.46209 3.08709C2.6379 2.91127 2.87636 2.8125 3.125 2.8125C3.37364 2.8125 3.6121 2.91127 3.78791 3.08709C3.96373 3.2629 4.0625 3.50136 4.0625 3.75V4.83281C5.36328 3.55156 7.36641 2.1875 10 2.1875C13.4734 2.1875 15.575 4.24922 15.6633 4.33672C15.8371 4.5127 15.9343 4.75024 15.9338 4.99759C15.9332 5.24494 15.835 5.48205 15.6604 5.65726C15.4858 5.83247 15.249 5.93158 15.0017 5.93301C14.7543 5.93443 14.5164 5.83804 14.3398 5.66484C14.3055 5.63203 12.6562 4.0625 10 4.0625C7.73438 4.0625 6.02031 5.44375 5 6.5625H6.875C7.12364 6.5625 7.3621 6.66127 7.53791 6.83709C7.71373 7.0129 7.8125 7.25136 7.8125 7.5C7.8125 7.74864 7.71373 7.9871 7.53791 8.16291C7.3621 8.33873 7.12364 8.4375 6.875 8.4375ZM16.875 11.5625H13.125C12.8764 11.5625 12.6379 11.6613 12.4621 11.8371C12.2863 12.0129 12.1875 12.2514 12.1875 12.5C12.1875 12.7486 12.2863 12.9871 12.4621 13.1629C12.6379 13.3387 12.8764 13.4375 13.125 13.4375H15C13.9844 14.5562 12.2656 15.9375 10 15.9375C7.34375 15.9375 5.69453 14.368 5.66016 14.3344C5.48356 14.1612 5.24568 14.0648 4.99833 14.0662C4.75099 14.0676 4.51423 14.1667 4.33963 14.342C4.16504 14.5172 4.06676 14.7543 4.06622 15.0016C4.06567 15.249 4.1629 15.4865 4.33672 15.6625C4.425 15.7508 6.52656 17.8125 10 17.8125C12.6336 17.8125 14.6367 16.4484 15.9375 15.1672V16.25C15.9375 16.4986 16.0363 16.7371 16.2121 16.9129C16.3879 17.0887 16.6264 17.1875 16.875 17.1875C17.1236 17.1875 17.3621 17.0887 17.5379 16.9129C17.7137 16.7371 17.8125 16.4986 17.8125 16.25V12.5C17.8125 12.2514 17.7137 12.0129 17.5379 11.8371C17.3621 11.6613 17.1236 11.5625 16.875 11.5625Z" fill="#191F2E"/>
</svg>
