<svg width="20" height="20" viewBox="0 0 20 20" fill="none" xmlns="http://www.w3.org/2000/svg">
<path d="M18.3664 10.2664C18.2955 10.095 18.1753 9.94854 18.021 9.84549C17.8668 9.74245 17.6855 9.68746 17.5 9.6875H14.6875V9.375C14.6875 9.12636 14.5887 8.8879 14.4129 8.71209C14.2371 8.53627 13.9986 8.4375 13.75 8.4375H6.25001C6.00137 8.4375 5.76291 8.53627 5.58709 8.71209C5.41128 8.8879 5.31251 9.12636 5.31251 9.375V9.6875H2.50001C2.31448 9.68735 2.13308 9.74226 1.97877 9.84526C1.82447 9.94827 1.70419 10.0947 1.63317 10.2661C1.56215 10.4375 1.54359 10.6261 1.57982 10.8081C1.61606 10.9901 1.70546 11.1572 1.83672 11.2883L9.33672 18.7883C9.42382 18.8757 9.52731 18.945 9.64127 18.9923C9.75522 19.0397 9.8774 19.064 10.0008 19.064C10.1242 19.064 10.2463 19.0397 10.3603 18.9923C10.4743 18.945 10.5778 18.8757 10.6648 18.7883L18.1648 11.2883C18.2957 11.157 18.3847 10.9898 18.4206 10.8079C18.4565 10.626 18.4376 10.4376 18.3664 10.2664ZM10 16.7969L4.76563 11.5625H6.25001C6.49865 11.5625 6.7371 11.4637 6.91292 11.2879C7.08873 11.1121 7.18751 10.8736 7.18751 10.625V10.3125H12.8125V10.625C12.8125 10.8736 12.9113 11.1121 13.0871 11.2879C13.2629 11.4637 13.5014 11.5625 13.75 11.5625H15.2344L10 16.7969ZM5.31251 3.125C5.31251 2.87636 5.41128 2.6379 5.58709 2.46209C5.76291 2.28627 6.00137 2.1875 6.25001 2.1875H13.75C13.9986 2.1875 14.2371 2.28627 14.4129 2.46209C14.5887 2.6379 14.6875 2.87636 14.6875 3.125C14.6875 3.37364 14.5887 3.6121 14.4129 3.78791C14.2371 3.96373 13.9986 4.0625 13.75 4.0625H6.25001C6.00137 4.0625 5.76291 3.96373 5.58709 3.78791C5.41128 3.6121 5.31251 3.37364 5.31251 3.125ZM5.31251 6.25C5.31251 6.00136 5.41128 5.7629 5.58709 5.58709C5.76291 5.41127 6.00137 5.3125 6.25001 5.3125H13.75C13.9986 5.3125 14.2371 5.41127 14.4129 5.58709C14.5887 5.7629 14.6875 6.00136 14.6875 6.25C14.6875 6.49864 14.5887 6.7371 14.4129 6.91291C14.2371 7.08873 13.9986 7.1875 13.75 7.1875H6.25001C6.00137 7.1875 5.76291 7.08873 5.58709 6.91291C5.41128 6.7371 5.31251 6.49864 5.31251 6.25Z" fill="#191F2E"/>
</svg>
