<svg width="20" height="20" viewBox="0 0 20 20" fill="none" xmlns="http://www.w3.org/2000/svg">
<path d="M17.9422 12.3172L14.1922 16.0672C14.1048 16.1547 13.9934 16.2143 13.8721 16.2385C13.7508 16.2626 13.625 16.2502 13.5108 16.2029C13.3965 16.1555 13.2988 16.0754 13.2302 15.9725C13.1615 15.8696 13.1249 15.7487 13.125 15.625V12.5H10C7.84581 12.4977 5.78051 11.641 4.25727 10.1177C2.73403 8.59449 1.87727 6.52919 1.875 4.375C1.875 4.20924 1.94085 4.05027 2.05806 3.93306C2.17527 3.81585 2.33424 3.75 2.5 3.75C2.66576 3.75 2.82473 3.81585 2.94194 3.93306C3.05915 4.05027 3.125 4.20924 3.125 4.375C3.12707 6.19773 3.85206 7.94521 5.14092 9.23408C6.42979 10.5229 8.17727 11.2479 10 11.25H13.125V8.125C13.1249 8.00132 13.1615 7.88038 13.2302 7.77751C13.2988 7.67464 13.3965 7.59446 13.5108 7.54711C13.625 7.49977 13.7508 7.48739 13.8721 7.51154C13.9934 7.5357 14.1048 7.59531 14.1922 7.68281L17.9422 11.4328C18.0003 11.4909 18.0464 11.5598 18.0779 11.6357C18.1093 11.7115 18.1255 11.7929 18.1255 11.875C18.1255 11.9571 18.1093 12.0385 18.0779 12.1143C18.0464 12.1902 18.0003 12.2591 17.9422 12.3172Z" fill="#191F2E"/>
</svg>
