<svg width="20" height="20" viewBox="0 0 20 20" fill="none" xmlns="http://www.w3.org/2000/svg">
<path d="M18.1633 15.0383L15.6633 17.5383C15.5762 17.6257 15.4727 17.695 15.3587 17.7423C15.2448 17.7897 15.1226 17.814 14.9992 17.814C14.8758 17.814 14.7536 17.7897 14.6397 17.7423C14.5257 17.695 14.4222 17.6257 14.3351 17.5383L11.8351 15.0383C11.659 14.8622 11.5601 14.6233 11.5601 14.3742C11.5601 14.1251 11.659 13.8863 11.8351 13.7102C12.0113 13.534 12.2501 13.4351 12.4992 13.4351C12.7483 13.4351 12.9872 13.534 13.1633 13.7102L14.0625 14.6094V11.0156L9.99999 6.95313L5.93749 11.0156V14.6094L6.83671 13.7094C7.01283 13.5333 7.2517 13.4343 7.50077 13.4343C7.74984 13.4343 7.98871 13.5333 8.16483 13.7094C8.34095 13.8855 8.4399 14.1244 8.4399 14.3734C8.4399 14.6225 8.34095 14.8614 8.16483 15.0375L5.66483 17.5375C5.57774 17.6249 5.47424 17.6942 5.36029 17.7416C5.24633 17.7889 5.12416 17.8132 5.00077 17.8132C4.87738 17.8132 4.75521 17.7889 4.64125 17.7416C4.5273 17.6942 4.42381 17.6249 4.33671 17.5375L1.83671 15.0375C1.66059 14.8614 1.56165 14.6225 1.56165 14.3734C1.56165 14.1244 1.66059 13.8855 1.83671 13.7094C2.01283 13.5333 2.2517 13.4343 2.50077 13.4343C2.74984 13.4343 2.98871 13.5333 3.16483 13.7094L4.06249 14.6094V10.625C4.06239 10.5019 4.08656 10.3799 4.13361 10.2661C4.18066 10.1523 4.24968 10.0488 4.33671 9.96172L9.06249 5.23438V1.875C9.06249 1.62636 9.16126 1.3879 9.33708 1.21209C9.51289 1.03627 9.75135 0.9375 9.99999 0.9375C10.2486 0.9375 10.4871 1.03627 10.6629 1.21209C10.8387 1.3879 10.9375 1.62636 10.9375 1.875V5.23438L15.6633 9.95938C15.7506 10.0468 15.8198 10.1506 15.8668 10.2648C15.9139 10.379 15.9379 10.5015 15.9375 10.625V14.6094L16.8367 13.7094C16.9239 13.6222 17.0274 13.553 17.1414 13.5058C17.2553 13.4586 17.3774 13.4343 17.5008 13.4343C17.6241 13.4343 17.7462 13.4586 17.8602 13.5058C17.9741 13.553 18.0776 13.6222 18.1648 13.7094C18.252 13.7966 18.3212 13.9001 18.3684 14.0141C18.4156 14.128 18.4399 14.2501 18.4399 14.3734C18.4399 14.4968 18.4156 14.6189 18.3684 14.7328C18.3212 14.8468 18.252 14.9503 18.1648 15.0375L18.1633 15.0383Z" fill="#191F2E"/>
</svg>
