<svg width="20" height="20" viewBox="0 0 20 20" fill="none" xmlns="http://www.w3.org/2000/svg">
<path d="M17.8125 3.125C17.8125 3.37364 17.7137 3.6121 17.5379 3.78791C17.3621 3.96373 17.1236 4.0625 16.875 4.0625H3.125C2.87636 4.0625 2.6379 3.96373 2.46209 3.78791C2.28627 3.6121 2.1875 3.37364 2.1875 3.125C2.1875 2.87636 2.28627 2.6379 2.46209 2.46209C2.6379 2.28627 2.87636 2.1875 3.125 2.1875H16.875C17.1236 2.1875 17.3621 2.28627 17.5379 2.46209C17.7137 2.6379 17.8125 2.87636 17.8125 3.125ZM13.0867 6.21172L5.9375 13.3594V8.125C5.9375 7.87636 5.83873 7.6379 5.66291 7.46209C5.4871 7.28627 5.24864 7.1875 5 7.1875C4.75136 7.1875 4.5129 7.28627 4.33709 7.46209C4.16127 7.6379 4.0625 7.87636 4.0625 8.125V15.625C4.0625 15.8736 4.16127 16.1121 4.33709 16.2879C4.5129 16.4637 4.75136 16.5625 5 16.5625H12.5C12.7486 16.5625 12.9871 16.4637 13.1629 16.2879C13.3387 16.1121 13.4375 15.8736 13.4375 15.625C13.4375 15.3764 13.3387 15.1379 13.1629 14.9621C12.9871 14.7863 12.7486 14.6875 12.5 14.6875H7.26562L14.4156 7.53828C14.5917 7.36216 14.6907 7.12329 14.6907 6.87422C14.6907 6.62515 14.5917 6.38628 14.4156 6.21016C14.2395 6.03404 14.0006 5.93509 13.7516 5.93509C13.5025 5.93509 13.2636 6.03404 13.0875 6.21016L13.0867 6.21172Z" fill="#191F2E"/>
</svg>
