<svg width="20" height="20" viewBox="0 0 20 20" fill="none" xmlns="http://www.w3.org/2000/svg">
<path d="M19.0625 4.37496V8.12496C19.0625 8.3736 18.9637 8.61205 18.7879 8.78787C18.6121 8.96369 18.3736 9.06246 18.125 9.06246H14.375C14.1263 9.06246 13.8879 8.96369 13.7121 8.78787C13.5363 8.61205 13.4375 8.3736 13.4375 8.12496C13.4375 7.87632 13.5363 7.63786 13.7121 7.46204C13.8879 7.28623 14.1263 7.18746 14.375 7.18746H15.7109L14.2265 5.82964C14.2164 5.82027 14.2062 5.81089 14.1969 5.80074C13.5086 5.11289 12.6618 4.60474 11.731 4.321C10.8003 4.03726 9.81403 3.98663 8.8591 4.17355C7.90416 4.36048 7.0098 4.77923 6.25471 5.39297C5.49961 6.00671 4.90693 6.79663 4.52881 7.69321C4.15069 8.5898 3.99872 9.56558 4.08627 10.5347C4.17382 11.5038 4.49821 12.4365 5.03089 13.2508C5.56357 14.0651 6.28823 14.7361 7.14109 15.2045C7.99395 15.673 8.94888 15.9247 9.92185 15.9375H9.99998C11.5155 15.9411 12.9744 15.3615 14.0742 14.3187C14.255 14.1479 14.4962 14.0558 14.7449 14.0629C14.9935 14.0699 15.2291 14.1754 15.4 14.3562C15.5708 14.537 15.6628 14.7782 15.6558 15.0269C15.6488 15.2755 15.5433 15.5112 15.3625 15.682C13.9147 17.0542 11.9947 17.817 9.99998 17.8125H9.89295C8.61408 17.7944 7.35919 17.4627 6.23848 16.8464C5.11776 16.2301 4.1655 15.3481 3.4653 14.2778C2.7651 13.2075 2.33839 11.9816 2.22262 10.7079C2.10686 9.43412 2.30558 8.15143 2.80135 6.97243C3.29712 5.79343 4.07477 4.75417 5.06601 3.94592C6.05725 3.13767 7.23177 2.58514 8.48643 2.33686C9.7411 2.08857 11.0375 2.15211 12.2619 2.52191C13.4863 2.89171 14.6011 3.55645 15.5086 4.45777L17.1875 5.99371V4.37496C17.1875 4.12632 17.2863 3.88786 17.4621 3.71204C17.6379 3.53623 17.8763 3.43746 18.125 3.43746C18.3736 3.43746 18.6121 3.53623 18.7879 3.71204C18.9637 3.88786 19.0625 4.12632 19.0625 4.37496Z" fill="#191F2E"/>
</svg>
