<svg width="20" height="20" viewBox="0 0 20 20" fill="none" xmlns="http://www.w3.org/2000/svg">
<path d="M12.9422 15.1828C13.0003 15.2409 13.0464 15.3098 13.0779 15.3857C13.1093 15.4615 13.1255 15.5429 13.1255 15.625C13.1255 15.7071 13.1093 15.7885 13.0779 15.8643C13.0464 15.9402 13.0003 16.0091 12.9422 16.0672L10.4422 18.5672C10.3842 18.6253 10.3152 18.6714 10.2393 18.7029C10.1635 18.7343 10.0821 18.7505 10 18.7505C9.91788 18.7505 9.83655 18.7343 9.76067 18.7029C9.6848 18.6714 9.61587 18.6253 9.55782 18.5672L7.05782 16.0672C6.94055 15.9499 6.87466 15.7909 6.87466 15.625C6.87466 15.4592 6.94055 15.3001 7.05782 15.1828C7.1751 15.0655 7.33416 14.9997 7.50001 14.9997C7.66586 14.9997 7.82492 15.0655 7.9422 15.1828L9.37501 16.6164V3.3836L7.9422 4.81719C7.82492 4.93447 7.66586 5.00035 7.50001 5.00035C7.33416 5.00035 7.1751 4.93447 7.05782 4.81719C6.94055 4.69992 6.87466 4.54086 6.87466 4.375C6.87466 4.20915 6.94055 4.05009 7.05782 3.93282L9.55782 1.43282C9.61587 1.37471 9.6848 1.32861 9.76067 1.29715C9.83655 1.2657 9.91788 1.24951 10 1.24951C10.0821 1.24951 10.1635 1.2657 10.2393 1.29715C10.3152 1.32861 10.3842 1.37471 10.4422 1.43282L12.9422 3.93282C13.0595 4.05009 13.1254 4.20915 13.1254 4.375C13.1254 4.54086 13.0595 4.69992 12.9422 4.81719C12.8249 4.93447 12.6659 5.00035 12.5 5.00035C12.3342 5.00035 12.1751 4.93447 12.0578 4.81719L10.625 3.3836V16.6164L12.0578 15.1828C12.1159 15.1247 12.1848 15.0786 12.2607 15.0472C12.3365 15.0157 12.4179 14.9995 12.5 14.9995C12.5821 14.9995 12.6635 15.0157 12.7393 15.0472C12.8152 15.0786 12.8842 15.1247 12.9422 15.1828Z" fill="#191F2E"/>
</svg>
