<svg width="20" height="20" viewBox="0 0 20 20" fill="none" xmlns="http://www.w3.org/2000/svg">
<path d="M14.1922 6.43281C14.2503 6.49086 14.2964 6.55979 14.3279 6.63566C14.3593 6.71154 14.3755 6.79287 14.3755 6.875C14.3755 6.95713 14.3593 7.03846 14.3279 7.11434C14.2964 7.19021 14.2503 7.25914 14.1922 7.31719L9.63359 11.875L12.9422 15.1828C13.0297 15.2702 13.0893 15.3816 13.1135 15.5029C13.1376 15.6242 13.1252 15.75 13.0779 15.8642C13.0305 15.9785 12.9504 16.0762 12.8475 16.1448C12.7446 16.2135 12.6237 16.2501 12.5 16.25H5C4.83424 16.25 4.67527 16.1842 4.55806 16.0669C4.44085 15.9497 4.375 15.7908 4.375 15.625V8.125C4.3749 8.00132 4.41151 7.88038 4.48017 7.77751C4.54884 7.67464 4.64649 7.59446 4.76076 7.54711C4.87502 7.49977 5.00076 7.48739 5.12207 7.51154C5.24337 7.5357 5.35478 7.5953 5.44219 7.68281L8.75 10.9914L13.3078 6.43281C13.3659 6.3747 13.4348 6.3286 13.5107 6.29715C13.5865 6.2657 13.6679 6.24951 13.75 6.24951C13.8321 6.24951 13.9135 6.2657 13.9893 6.29715C14.0652 6.3286 14.1341 6.3747 14.1922 6.43281ZM16.875 2.5H3.125C2.95924 2.5 2.80027 2.56585 2.68306 2.68306C2.56585 2.80027 2.5 2.95924 2.5 3.125C2.5 3.29076 2.56585 3.44973 2.68306 3.56694C2.80027 3.68415 2.95924 3.75 3.125 3.75H16.875C17.0408 3.75 17.1997 3.68415 17.3169 3.56694C17.4342 3.44973 17.5 3.29076 17.5 3.125C17.5 2.95924 17.4342 2.80027 17.3169 2.68306C17.1997 2.56585 17.0408 2.5 16.875 2.5Z" fill="#191F2E"/>
</svg>
