<svg width="20" height="20" viewBox="0 0 20 20" fill="none" xmlns="http://www.w3.org/2000/svg">
<path d="M18.125 5C18.125 5.16576 18.0592 5.32473 17.942 5.44194C17.8247 5.55915 17.6658 5.625 17.5 5.625H6.87501V14.7414L9.55782 12.0578C9.6751 11.9405 9.83416 11.8747 10 11.8747C10.1659 11.8747 10.3249 11.9405 10.4422 12.0578C10.5595 12.1751 10.6254 12.3341 10.6254 12.5C10.6254 12.6659 10.5595 12.8249 10.4422 12.9422L6.6922 16.6922C6.63415 16.7503 6.56522 16.7964 6.48935 16.8279C6.41348 16.8593 6.33215 16.8755 6.25001 16.8755C6.16788 16.8755 6.08655 16.8593 6.01067 16.8279C5.9348 16.7964 5.86587 16.7503 5.80782 16.6922L2.05782 12.9422C1.94055 12.8249 1.87466 12.6659 1.87466 12.5C1.87466 12.3341 1.94055 12.1751 2.05782 12.0578C2.1751 11.9405 2.33416 11.8747 2.50001 11.8747C2.66586 11.8747 2.82492 11.9405 2.9422 12.0578L5.62501 14.7414V5C5.62501 4.83424 5.69086 4.67527 5.80807 4.55806C5.92528 4.44085 6.08425 4.375 6.25001 4.375H17.5C17.6658 4.375 17.8247 4.44085 17.942 4.55806C18.0592 4.67527 18.125 4.83424 18.125 5Z" fill="#191F2E"/>
</svg>
