<svg width="20" height="20" viewBox="0 0 20 20" fill="none" xmlns="http://www.w3.org/2000/svg">
<path d="M16.6922 6.69229L12.9422 10.4423C12.8249 10.5596 12.6659 10.6255 12.5 10.6255C12.3341 10.6255 12.1751 10.5596 12.0578 10.4423C11.9405 10.325 11.8747 10.166 11.8747 10.0001C11.8747 9.83425 11.9405 9.67519 12.0578 9.55791L14.7414 6.8751H5.625V17.5001C5.625 17.6659 5.55915 17.8248 5.44194 17.942C5.32473 18.0593 5.16576 18.1251 5 18.1251C4.83424 18.1251 4.67527 18.0593 4.55806 17.942C4.44085 17.8248 4.375 17.6659 4.375 17.5001V6.2501C4.375 6.08434 4.44085 5.92537 4.55806 5.80816C4.67527 5.69095 4.83424 5.6251 5 5.6251H14.7414L12.0578 2.94229C11.9405 2.82502 11.8747 2.66596 11.8747 2.5001C11.8747 2.33425 11.9405 2.17519 12.0578 2.05792C12.1751 1.94064 12.3341 1.87476 12.5 1.87476C12.6659 1.87476 12.8249 1.94064 12.9422 2.05792L16.6922 5.80792C16.7503 5.86596 16.7964 5.93489 16.8279 6.01077C16.8593 6.08664 16.8755 6.16797 16.8755 6.2501C16.8755 6.33224 16.8593 6.41357 16.8279 6.48944C16.7964 6.56531 16.7503 6.63424 16.6922 6.69229Z" fill="#191F2E"/>
</svg>
