<svg width="20" height="20" viewBox="0 0 20 20" fill="none" xmlns="http://www.w3.org/2000/svg">
<path d="M10.9375 3.125V16.875C10.9375 17.1236 10.8387 17.3621 10.6629 17.5379C10.4871 17.7137 10.2486 17.8125 10 17.8125C9.75136 17.8125 9.5129 17.7137 9.33709 17.5379C9.16127 17.3621 9.0625 17.1236 9.0625 16.875V3.125C9.0625 2.87636 9.16127 2.6379 9.33709 2.46209C9.5129 2.28627 9.75136 2.1875 10 2.1875C10.2486 2.1875 10.4871 2.28627 10.6629 2.46209C10.8387 2.6379 10.9375 2.87636 10.9375 3.125ZM5.03828 6.83672C4.86216 6.6606 4.62329 6.56165 4.37422 6.56166C4.12515 6.56166 3.88628 6.6606 3.71016 6.83672C3.53404 7.01284 3.43509 7.25171 3.43509 7.50078C3.43509 7.74985 3.53404 7.98872 3.71016 8.16484L4.60938 9.0625H1.25C1.00136 9.0625 0.762903 9.16127 0.587087 9.33709C0.411272 9.5129 0.3125 9.75136 0.3125 10C0.3125 10.2486 0.411272 10.4871 0.587087 10.6629C0.762903 10.8387 1.00136 10.9375 1.25 10.9375H4.60938L3.71172 11.8367C3.5356 12.0128 3.43666 12.2517 3.43666 12.5008C3.43666 12.7499 3.5356 12.9887 3.71172 13.1648C3.88784 13.341 4.12671 13.4399 4.37578 13.4399C4.62485 13.4399 4.86372 13.341 5.03984 13.1648L7.53984 10.6648C7.62724 10.5777 7.69659 10.4743 7.74391 10.3603C7.79123 10.2463 7.81558 10.1242 7.81558 10.0008C7.81558 9.87739 7.79123 9.75522 7.74391 9.64126C7.69659 9.52731 7.62724 9.42382 7.53984 9.33672L5.03828 6.83672ZM18.75 9.0625H15.3906L16.2906 8.16328C16.4667 7.98716 16.5657 7.74829 16.5657 7.49922C16.5657 7.25015 16.4667 7.01128 16.2906 6.83516C16.1145 6.65904 15.8756 6.56009 15.6266 6.56009C15.3775 6.56009 15.1386 6.65904 14.9625 6.83516L12.4625 9.33516C12.3751 9.42225 12.3058 9.52575 12.2584 9.6397C12.2111 9.75366 12.1868 9.87583 12.1868 9.99922C12.1868 10.1226 12.2111 10.2448 12.2584 10.3587C12.3058 10.4727 12.3751 10.5762 12.4625 10.6633L14.9625 13.1633C15.1386 13.3394 15.3775 13.4383 15.6266 13.4383C15.8756 13.4383 16.1145 13.3394 16.2906 13.1633C16.4667 12.9872 16.5657 12.7483 16.5657 12.4992C16.5657 12.2501 16.4667 12.0113 16.2906 11.8352L15.3906 10.9375H18.75C18.9986 10.9375 19.2371 10.8387 19.4129 10.6629C19.5887 10.4871 19.6875 10.2486 19.6875 10C19.6875 9.75136 19.5887 9.5129 19.4129 9.33709C19.2371 9.16127 18.9986 9.0625 18.75 9.0625Z" fill="#191F2E"/>
</svg>
