<svg width="20" height="20" viewBox="0 0 20 20" fill="none" xmlns="http://www.w3.org/2000/svg">
<path d="M16.5625 6.25V13.125C16.5625 14.534 16.0028 15.8852 15.0065 16.8815C14.0102 17.8778 12.659 18.4375 11.25 18.4375C9.84106 18.4375 8.48981 17.8778 7.49352 16.8815C6.49724 15.8852 5.93753 14.534 5.93753 13.125V4.76563L3.78831 6.91328C3.61219 7.0894 3.37332 7.18835 3.12425 7.18835C2.87517 7.18835 2.6363 7.0894 2.46018 6.91328C2.28406 6.73716 2.18512 6.49829 2.18512 6.24922C2.18512 6.00015 2.28406 5.76128 2.46018 5.58516L6.21018 1.83516C6.29728 1.74776 6.40077 1.67841 6.51473 1.63109C6.62868 1.58377 6.75086 1.55942 6.87425 1.55942C6.99763 1.55942 7.11981 1.58377 7.23376 1.63109C7.34772 1.67841 7.45121 1.74776 7.53831 1.83516L11.2883 5.58516C11.4644 5.76128 11.5634 6.00015 11.5634 6.24922C11.5634 6.49829 11.4644 6.73716 11.2883 6.91328C11.1122 7.0894 10.8733 7.18835 10.6242 7.18835C10.3752 7.18835 10.1363 7.0894 9.96018 6.91328L7.81253 4.76563V13.125C7.81253 14.0367 8.17469 14.911 8.81935 15.5557C9.464 16.2003 10.3383 16.5625 11.25 16.5625C12.1617 16.5625 13.0361 16.2003 13.6807 15.5557C14.3254 14.911 14.6875 14.0367 14.6875 13.125V6.25C14.6875 6.00136 14.7863 5.7629 14.9621 5.58709C15.1379 5.41127 15.3764 5.3125 15.625 5.3125C15.8737 5.3125 16.1121 5.41127 16.2879 5.58709C16.4638 5.7629 16.5625 6.00136 16.5625 6.25Z" fill="#191F2E"/>
</svg>
