<svg width="20" height="20" viewBox="0 0 20 20" fill="none" xmlns="http://www.w3.org/2000/svg">
<path d="M16.25 2.1875H3.75C3.3356 2.1875 2.93817 2.35212 2.64515 2.64515C2.35212 2.93817 2.1875 3.3356 2.1875 3.75V16.25C2.1875 16.6644 2.35212 17.0618 2.64515 17.3549C2.93817 17.6479 3.3356 17.8125 3.75 17.8125H16.25C16.6644 17.8125 17.0618 17.6479 17.3549 17.3549C17.6479 17.0618 17.8125 16.6644 17.8125 16.25V3.75C17.8125 3.3356 17.6479 2.93817 17.3549 2.64515C17.0618 2.35212 16.6644 2.1875 16.25 2.1875ZM15.9375 15.9375H4.0625V4.0625H15.9375V15.9375ZM6.5625 11.25V7.5C6.5625 7.25136 6.66127 7.0129 6.83709 6.83709C7.0129 6.66127 7.25136 6.5625 7.5 6.5625H11.25C11.4986 6.5625 11.7371 6.66127 11.9129 6.83709C12.0887 7.0129 12.1875 7.25136 12.1875 7.5C12.1875 7.74864 12.0887 7.9871 11.9129 8.16291C11.7371 8.33873 11.4986 8.4375 11.25 8.4375H9.76562L13.1656 11.8367C13.3417 12.0128 13.4407 12.2517 13.4407 12.5008C13.4407 12.7499 13.3417 12.9887 13.1656 13.1648C12.9895 13.341 12.7506 13.4399 12.5016 13.4399C12.2525 13.4399 12.0136 13.341 11.8375 13.1648L8.4375 9.76562V11.25C8.4375 11.4986 8.33873 11.7371 8.16291 11.9129C7.9871 12.0887 7.74864 12.1875 7.5 12.1875C7.25136 12.1875 7.0129 12.0887 6.83709 11.9129C6.66127 11.7371 6.5625 11.4986 6.5625 11.25Z" fill="#191F2E"/>
</svg>
