<svg width="20" height="20" viewBox="0 0 20 20" fill="none" xmlns="http://www.w3.org/2000/svg">
<path d="M15.625 6.25V17.5C15.625 17.6658 15.5592 17.8247 15.4419 17.9419C15.3247 18.0592 15.1658 18.125 15 18.125C14.8342 18.125 14.6753 18.0592 14.5581 17.9419C14.4409 17.8247 14.375 17.6658 14.375 17.5V6.875H8.125V10C8.1251 10.1237 8.0885 10.2446 8.01983 10.3475C7.95116 10.4504 7.85351 10.5305 7.73925 10.5779C7.62498 10.6252 7.49924 10.6376 7.37794 10.6135C7.25663 10.5893 7.14523 10.5297 7.05782 10.4422L3.30782 6.69219C3.24971 6.63415 3.20361 6.56522 3.17215 6.48934C3.1407 6.41347 3.12451 6.33214 3.12451 6.25C3.12451 6.16787 3.1407 6.08654 3.17215 6.01067C3.20361 5.93479 3.24971 5.86586 3.30782 5.80782L7.05782 2.05782C7.14523 1.97031 7.25663 1.9107 7.37794 1.88655C7.49924 1.86239 7.62498 1.87477 7.73925 1.92211C7.85351 1.96946 7.95116 2.04964 8.01983 2.15252C8.0885 2.25539 8.1251 2.37632 8.125 2.5V5.625H15C15.1658 5.625 15.3247 5.69085 15.4419 5.80806C15.5592 5.92527 15.625 6.08424 15.625 6.25Z" fill="#191F2E"/>
</svg>
