<svg width="20" height="20" viewBox="0 0 20 20" fill="none" xmlns="http://www.w3.org/2000/svg">
<path d="M15.6633 5.66261L7.26562 14.0626H13.125C13.3736 14.0626 13.6121 14.1614 13.7879 14.3372C13.9637 14.513 14.0625 14.7515 14.0625 15.0001C14.0625 15.2488 13.9637 15.4872 13.7879 15.663C13.6121 15.8388 13.3736 15.9376 13.125 15.9376H5C4.75136 15.9376 4.5129 15.8388 4.33709 15.663C4.16127 15.4872 4.0625 15.2488 4.0625 15.0001V6.87511C4.0625 6.62647 4.16127 6.38802 4.33709 6.2122C4.5129 6.03638 4.75136 5.93761 5 5.93761C5.24864 5.93761 5.4871 6.03638 5.66291 6.2122C5.83873 6.38802 5.9375 6.62647 5.9375 6.87511V12.7345L14.3367 4.33683C14.4239 4.24963 14.5275 4.18045 14.6414 4.13325C14.7553 4.08606 14.8775 4.06177 15.0008 4.06177C15.1241 4.06177 15.2462 4.08606 15.3602 4.13325C15.4741 4.18045 15.5776 4.24963 15.6648 4.33683C15.752 4.42404 15.8212 4.52757 15.8684 4.64151C15.9156 4.75545 15.9399 4.87757 15.9399 5.00089C15.9399 5.12422 15.9156 5.24634 15.8684 5.36028C15.8212 5.47422 15.752 5.57775 15.6648 5.66496L15.6633 5.66261Z" fill="#191F2E"/>
</svg>
