<svg width="20" height="20" viewBox="0 0 20 20" fill="none" xmlns="http://www.w3.org/2000/svg">
<path d="M16.0672 14.1922L12.3172 17.9422C12.2591 18.0003 12.1902 18.0464 12.1143 18.0779C12.0385 18.1093 11.9571 18.1255 11.875 18.1255C11.7929 18.1255 11.7115 18.1093 11.6357 18.0779C11.5598 18.0464 11.4909 18.0003 11.4328 17.9422L7.68281 14.1922C7.56554 14.0749 7.49965 13.9159 7.49965 13.75C7.49965 13.5841 7.56554 13.4251 7.68281 13.3078C7.80009 13.1905 7.95915 13.1247 8.125 13.1247C8.29085 13.1247 8.44991 13.1905 8.56719 13.3078L11.25 15.9914V10C11.2479 8.17727 10.5229 6.42979 9.23408 5.14092C7.94521 3.85206 6.19773 3.12707 4.375 3.125C4.20924 3.125 4.05027 3.05915 3.93306 2.94194C3.81585 2.82473 3.75 2.66576 3.75 2.5C3.75 2.33424 3.81585 2.17527 3.93306 2.05806C4.05027 1.94085 4.20924 1.875 4.375 1.875C6.52919 1.87727 8.59449 2.73403 10.1177 4.25727C11.641 5.78051 12.4977 7.84581 12.5 10V15.9914L15.1828 13.3078C15.3001 13.1905 15.4591 13.1247 15.625 13.1247C15.7909 13.1247 15.9499 13.1905 16.0672 13.3078C16.1845 13.4251 16.2503 13.5841 16.2503 13.75C16.2503 13.9159 16.1845 14.0749 16.0672 14.1922Z" fill="#191F2E"/>
</svg>
