<svg width="20" height="20" viewBox="0 0 20 20" fill="none" xmlns="http://www.w3.org/2000/svg">
<path d="M18.5672 10.4422L16.0672 12.9422C15.9798 13.0297 15.8684 13.0893 15.7471 13.1135C15.6258 13.1376 15.5 13.1252 15.3858 13.0779C15.2715 13.0305 15.1738 12.9504 15.1052 12.8475C15.0365 12.7446 14.9999 12.6237 15 12.5V10.625H5V12.5C5.0001 12.6237 4.9635 12.7446 4.89483 12.8475C4.82616 12.9504 4.72851 13.0305 4.61425 13.0779C4.49998 13.1252 4.37424 13.1376 4.25294 13.1135C4.13163 13.0893 4.02023 13.0297 3.93282 12.9422L1.43282 10.4422C1.37471 10.3841 1.32861 10.3152 1.29715 10.2393C1.2657 10.1635 1.24951 10.0821 1.24951 10C1.24951 9.91787 1.2657 9.83654 1.29715 9.76067C1.32861 9.68479 1.37471 9.61586 1.43282 9.55782L3.93282 7.05782C4.02023 6.97031 4.13163 6.9107 4.25294 6.88655C4.37424 6.86239 4.49998 6.87477 4.61425 6.92211C4.72851 6.96946 4.82616 7.04964 4.89483 7.15252C4.9635 7.25539 5.0001 7.37632 5 7.5V9.375H15V7.5C14.9999 7.37632 15.0365 7.25539 15.1052 7.15252C15.1738 7.04964 15.2715 6.96946 15.3858 6.92211C15.5 6.87477 15.6258 6.86239 15.7471 6.88655C15.8684 6.9107 15.9798 6.97031 16.0672 7.05782L18.5672 9.55782C18.6253 9.61586 18.6714 9.68479 18.7029 9.76067C18.7343 9.83654 18.7505 9.91787 18.7505 10C18.7505 10.0821 18.7343 10.1635 18.7029 10.2393C18.6714 10.3152 18.6253 10.3841 18.5672 10.4422Z" fill="#191F2E"/>
</svg>
