<svg width="20" height="20" viewBox="0 0 20 20" fill="none" xmlns="http://www.w3.org/2000/svg">
<path d="M16.25 2.5H3.75C3.41848 2.5 3.10054 2.6317 2.86612 2.86612C2.6317 3.10054 2.5 3.41848 2.5 3.75V16.25C2.5 16.5815 2.6317 16.8995 2.86612 17.1339C3.10054 17.3683 3.41848 17.5 3.75 17.5H16.25C16.5815 17.5 16.8995 17.3683 17.1339 17.1339C17.3683 16.8995 17.5 16.5815 17.5 16.25V3.75C17.5 3.41848 17.3683 3.10054 17.1339 2.86612C16.8995 2.6317 16.5815 2.5 16.25 2.5ZM16.25 16.25H3.75V3.75H16.25V16.25ZM7.05781 7.94219C6.94054 7.82491 6.87465 7.66585 6.87465 7.5C6.87465 7.33415 6.94054 7.17509 7.05781 7.05781C7.17509 6.94054 7.33415 6.87465 7.5 6.87465C7.66585 6.87465 7.82491 6.94054 7.94219 7.05781L11.875 10.9914V8.75C11.875 8.58424 11.9408 8.42527 12.0581 8.30806C12.1753 8.19085 12.3342 8.125 12.5 8.125C12.6658 8.125 12.8247 8.19085 12.9419 8.30806C13.0592 8.42527 13.125 8.58424 13.125 8.75V12.5C13.125 12.6658 13.0592 12.8247 12.9419 12.9419C12.8247 13.0592 12.6658 13.125 12.5 13.125H8.75C8.58424 13.125 8.42527 13.0592 8.30806 12.9419C8.19085 12.8247 8.125 12.6658 8.125 12.5C8.125 12.3342 8.19085 12.1753 8.30806 12.0581C8.42527 11.9408 8.58424 11.875 8.75 11.875H10.9914L7.05781 7.94219Z" fill="#191F2E"/>
</svg>
