<svg width="20" height="20" viewBox="0 0 20 20" fill="none" xmlns="http://www.w3.org/2000/svg">
<path d="M13.125 10.625V7.5H6.875C5.88044 7.5 4.92661 7.89509 4.22335 8.59835C3.52009 9.30162 3.125 10.2554 3.125 11.25C3.125 12.2446 3.52009 13.1984 4.22335 13.9017C4.92661 14.6049 5.88044 15 6.875 15H13.75C13.9158 15 14.0747 15.0659 14.1919 15.1831C14.3092 15.3003 14.375 15.4592 14.375 15.625C14.375 15.7908 14.3092 15.9497 14.1919 16.0669C14.0747 16.1842 13.9158 16.25 13.75 16.25H6.875C5.54892 16.25 4.27715 15.7232 3.33947 14.7855C2.40178 13.8479 1.875 12.5761 1.875 11.25C1.875 9.92392 2.40178 8.65215 3.33947 7.71447C4.27715 6.77679 5.54892 6.25 6.875 6.25H13.125V3.125C13.1249 3.00132 13.1615 2.88039 13.2302 2.77752C13.2988 2.67464 13.3965 2.59446 13.5108 2.54711C13.625 2.49977 13.7508 2.48739 13.8721 2.51155C13.9934 2.5357 14.1048 2.59531 14.1922 2.68282L17.9422 6.43282C18.0003 6.49086 18.0464 6.55979 18.0779 6.63567C18.1093 6.71154 18.1255 6.79287 18.1255 6.875C18.1255 6.95714 18.1093 7.03847 18.0779 7.11434C18.0464 7.19022 18.0003 7.25915 17.9422 7.31719L14.1922 11.0672C14.1048 11.1547 13.9934 11.2143 13.8721 11.2385C13.7508 11.2626 13.625 11.2502 13.5108 11.2029C13.3965 11.1555 13.2988 11.0754 13.2302 10.9725C13.1615 10.8696 13.1249 10.7487 13.125 10.625Z" fill="#191F2E"/>
</svg>
