<svg width="20" height="20" viewBox="0 0 20 20" fill="none" xmlns="http://www.w3.org/2000/svg">
<path d="M15.9375 6.25011V17.5001C15.9375 17.7488 15.8387 17.9872 15.6629 18.163C15.4871 18.3388 15.2486 18.4376 15 18.4376C14.7514 18.4376 14.5129 18.3388 14.3371 18.163C14.1613 17.9872 14.0625 17.7488 14.0625 17.5001V7.18761H6.01563L8.16563 9.33683C8.34175 9.51295 8.4407 9.75182 8.4407 10.0009C8.4407 10.25 8.34175 10.4888 8.16563 10.665C7.98951 10.8411 7.75064 10.94 7.50157 10.94C7.2525 10.94 7.01363 10.8411 6.83751 10.665L3.08751 6.91496C3.00011 6.82786 2.93076 6.72437 2.88344 6.61041C2.83612 6.49646 2.81177 6.37428 2.81177 6.25089C2.81177 6.12751 2.83612 6.00533 2.88344 5.89138C2.93076 5.77742 3.00011 5.67393 3.08751 5.58683L6.83751 1.83683C7.01363 1.66071 7.2525 1.56177 7.50157 1.56177C7.75064 1.56177 7.98951 1.66071 8.16563 1.83683C8.34175 2.01295 8.4407 2.25182 8.4407 2.50089C8.4407 2.74997 8.34175 2.98884 8.16563 3.16496L6.01563 5.31261H15C15.2486 5.31261 15.4871 5.41138 15.6629 5.5872C15.8387 5.76302 15.9375 6.00147 15.9375 6.25011Z" fill="#191F2E"/>
</svg>
