<svg width="20" height="20" viewBox="0 0 20 20" fill="none" xmlns="http://www.w3.org/2000/svg">
<path d="M18.125 5C18.125 5.16576 18.0592 5.32473 17.9419 5.44194C17.8247 5.55915 17.6658 5.625 17.5 5.625H6.875V11.875H10C10.1237 11.8749 10.2446 11.9115 10.3475 11.9802C10.4504 12.0488 10.5305 12.1465 10.5779 12.2608C10.6252 12.375 10.6376 12.5008 10.6135 12.6221C10.5893 12.7434 10.5297 12.8548 10.4422 12.9422L6.69219 16.6922C6.63415 16.7503 6.56522 16.7964 6.48934 16.8279C6.41347 16.8593 6.33214 16.8755 6.25 16.8755C6.16787 16.8755 6.08654 16.8593 6.01067 16.8279C5.93479 16.7964 5.86586 16.7503 5.80782 16.6922L2.05782 12.9422C1.97031 12.8548 1.9107 12.7434 1.88655 12.6221C1.86239 12.5008 1.87477 12.375 1.92211 12.2608C1.96946 12.1465 2.04964 12.0488 2.15252 11.9802C2.25539 11.9115 2.37632 11.8749 2.5 11.875H5.625V5C5.625 4.83424 5.69085 4.67527 5.80806 4.55806C5.92527 4.44085 6.08424 4.375 6.25 4.375H17.5C17.6658 4.375 17.8247 4.44085 17.9419 4.55806C18.0592 4.67527 18.125 4.83424 18.125 5Z" fill="#191F2E"/>
</svg>
