<svg width="20" height="20" viewBox="0 0 20 20" fill="none" xmlns="http://www.w3.org/2000/svg">
<path d="M18.75 4.37503V8.12503C18.75 8.29079 18.6841 8.44976 18.5669 8.56697C18.4497 8.68418 18.2907 8.75003 18.125 8.75003H14.375C14.2092 8.75003 14.0503 8.68418 13.933 8.56697C13.8158 8.44976 13.75 8.29079 13.75 8.12503C13.75 7.95927 13.8158 7.8003 13.933 7.68309C14.0503 7.56588 14.2092 7.50003 14.375 7.50003H16.5156L14.4383 5.5969L14.4187 5.57815C13.55 4.70979 12.4447 4.11664 11.2409 3.8728C10.037 3.62896 8.78804 3.74525 7.6499 4.20714C6.51177 4.66903 5.53496 5.45603 4.8415 6.46984C4.14804 7.48365 3.76869 8.67932 3.75082 9.90748C3.73295 11.1356 4.07736 12.3418 4.74103 13.3754C5.40469 14.409 6.35819 15.224 7.48241 15.7189C8.60663 16.2137 9.85172 16.3662 11.0622 16.1575C12.2726 15.9488 13.3947 15.3881 14.2883 14.5453C14.4088 14.4314 14.5696 14.37 14.7354 14.3746C14.9011 14.3792 15.0583 14.4495 15.1723 14.57C15.2862 14.6904 15.3476 14.8513 15.343 15.017C15.3384 15.1828 15.2681 15.34 15.1476 15.4539C13.7582 16.7717 11.915 17.5043 9.99999 17.5H9.89686C8.66853 17.4832 7.46314 17.1649 6.38663 16.5731C5.31011 15.9814 4.39544 15.1342 3.723 14.1062C3.05056 13.0781 2.64094 11.9006 2.53014 10.6772C2.41935 9.45374 2.61076 8.22182 3.08757 7.08968C3.56438 5.95755 4.31198 4.95986 5.26467 4.18432C6.21735 3.40878 7.34595 2.87912 8.55128 2.6419C9.7566 2.40468 11.0017 2.46716 12.1773 2.82385C13.3528 3.18054 14.4227 3.82051 15.293 4.68753L17.5 6.70315V4.37503C17.5 4.20927 17.5658 4.0503 17.683 3.93309C17.8003 3.81588 17.9592 3.75003 18.125 3.75003C18.2907 3.75003 18.4497 3.81588 18.5669 3.93309C18.6841 4.0503 18.75 4.20927 18.75 4.37503Z" fill="#191F2E"/>
</svg>
