<svg width="20" height="20" viewBox="0 0 20 20" fill="none" xmlns="http://www.w3.org/2000/svg">
<path d="M17.8125 10.0001C17.8125 10.2487 17.7137 10.4872 17.5379 10.663C17.3621 10.8388 17.1236 10.9376 16.875 10.9376H3.125C2.87636 10.9376 2.6379 10.8388 2.46209 10.663C2.28627 10.4872 2.1875 10.2487 2.1875 10.0001C2.1875 9.75142 2.28627 9.51296 2.46209 9.33714C2.6379 9.16133 2.87636 9.06256 3.125 9.06256H16.875C17.1236 9.06256 17.3621 9.16133 17.5379 9.33714C17.7137 9.51296 17.8125 9.75142 17.8125 10.0001ZM8.16328 4.41256L9.0625 3.51568V6.87506C9.0625 7.1237 9.16127 7.36215 9.33709 7.53797C9.5129 7.71378 9.75136 7.81256 10 7.81256C10.2486 7.81256 10.4871 7.71378 10.6629 7.53797C10.8387 7.36215 10.9375 7.1237 10.9375 6.87506V3.51568L11.8367 4.4149C12.0128 4.59102 12.2517 4.68996 12.5008 4.68996C12.7499 4.68996 12.9887 4.59102 13.1648 4.4149C13.341 4.23878 13.4399 3.99991 13.4399 3.75084C13.4399 3.50177 13.341 3.26289 13.1648 3.08677L10.6648 0.586774C10.5777 0.499375 10.4743 0.430027 10.3603 0.38271C10.2463 0.335392 10.1242 0.311035 10.0008 0.311035C9.87739 0.311035 9.75522 0.335392 9.64126 0.38271C9.52731 0.430027 9.42382 0.499375 9.33672 0.586774L6.83672 3.08677C6.6606 3.26289 6.56165 3.50177 6.56166 3.75084C6.56166 3.99991 6.6606 4.23878 6.83672 4.4149C7.01284 4.59102 7.25171 4.68996 7.50078 4.68996C7.74985 4.68996 7.98872 4.59102 8.16484 4.4149L8.16328 4.41256ZM11.8352 15.5844L10.9375 16.4844V13.1251C10.9375 12.8764 10.8387 12.638 10.6629 12.4621C10.4871 12.2863 10.2486 12.1876 10 12.1876C9.75136 12.1876 9.5129 12.2863 9.33709 12.4621C9.16127 12.638 9.0625 12.8764 9.0625 13.1251V16.4844L8.16328 15.5844C7.98716 15.4083 7.74829 15.3094 7.49922 15.3094C7.25015 15.3094 7.01128 15.4083 6.83516 15.5844C6.65904 15.7606 6.56009 15.9994 6.56009 16.2485C6.56009 16.4976 6.65904 16.7364 6.83516 16.9126L9.33516 19.4126C9.42225 19.5 9.52575 19.5693 9.6397 19.6166C9.75366 19.6639 9.87583 19.6883 9.99922 19.6883C10.1226 19.6883 10.2448 19.6639 10.3587 19.6166C10.4727 19.5693 10.5762 19.5 10.6633 19.4126L13.1633 16.9126C13.3394 16.7364 13.4383 16.4976 13.4383 16.2485C13.4383 15.9994 13.3394 15.7606 13.1633 15.5844C12.9872 15.4083 12.7483 15.3094 12.4992 15.3094C12.2501 15.3094 12.0113 15.4083 11.8352 15.5844Z" fill="#191F2E"/>
</svg>
