<svg width="20" height="20" viewBox="0 0 20 20" fill="none" xmlns="http://www.w3.org/2000/svg">
<path d="M15.625 6.8751V15.0001C15.625 15.1659 15.5591 15.3248 15.4419 15.442C15.3247 15.5593 15.1657 15.6251 15 15.6251H6.87498C6.7513 15.6252 6.63036 15.5886 6.52749 15.5199C6.42462 15.4513 6.34444 15.3536 6.29709 15.2393C6.24975 15.1251 6.23737 14.9993 6.26153 14.878C6.28568 14.7567 6.34529 14.6453 6.43279 14.5579L10.0539 10.9376L4.55779 5.44229C4.44052 5.32502 4.37463 5.16596 4.37463 5.0001C4.37463 4.83425 4.44052 4.67519 4.55779 4.55792C4.67507 4.44064 4.83413 4.37476 4.99998 4.37476C5.16583 4.37476 5.32489 4.44064 5.44217 4.55792L10.9375 10.054L14.5578 6.43292C14.6452 6.34541 14.7566 6.2858 14.8779 6.26165C14.9992 6.23749 15.125 6.24987 15.2392 6.29721C15.3535 6.34456 15.4511 6.42474 15.5198 6.52761C15.5885 6.63049 15.6251 6.75142 15.625 6.8751Z" fill="#191F2E"/>
</svg>
