<svg width="20" height="20" viewBox="0 0 20 20" fill="none" xmlns="http://www.w3.org/2000/svg">
<path d="M18.4375 5C18.4375 5.24864 18.3387 5.4871 18.1629 5.66291C17.9871 5.83873 17.7486 5.9375 17.5 5.9375H7.18749V13.9844L9.33671 11.8344C9.51283 11.6583 9.7517 11.5593 10.0008 11.5593C10.2498 11.5593 10.4887 11.6583 10.6648 11.8344C10.841 12.0105 10.9399 12.2494 10.9399 12.4984C10.9399 12.7475 10.841 12.9864 10.6648 13.1625L6.91483 16.9125C6.82774 16.9999 6.72424 17.0692 6.61029 17.1166C6.49633 17.1639 6.37416 17.1882 6.25077 17.1882C6.12738 17.1882 6.00521 17.1639 5.89125 17.1166C5.7773 17.0692 5.67381 16.9999 5.58671 16.9125L1.83671 13.1625C1.66059 12.9864 1.56165 12.7475 1.56165 12.4984C1.56165 12.2494 1.66059 12.0105 1.83671 11.8344C2.01283 11.6583 2.2517 11.5593 2.50077 11.5593C2.74984 11.5593 2.98871 11.6583 3.16483 11.8344L5.31249 13.9844V5C5.31249 4.75136 5.41126 4.5129 5.58708 4.33709C5.76289 4.16127 6.00135 4.0625 6.24999 4.0625H17.5C17.7486 4.0625 17.9871 4.16127 18.1629 4.33709C18.3387 4.5129 18.4375 4.75136 18.4375 5Z" fill="#191F2E"/>
</svg>
