<svg width="20" height="20" viewBox="0 0 20 20" fill="none" xmlns="http://www.w3.org/2000/svg">
<path d="M16.25 2.5H3.75C3.41848 2.5 3.10054 2.6317 2.86612 2.86612C2.6317 3.10054 2.5 3.41848 2.5 3.75V16.25C2.5 16.5815 2.6317 16.8995 2.86612 17.1339C3.10054 17.3683 3.41848 17.5 3.75 17.5H16.25C16.5815 17.5 16.8995 17.3683 17.1339 17.1339C17.3683 16.8995 17.5 16.5815 17.5 16.25V3.75C17.5 3.41848 17.3683 3.10054 17.1339 2.86612C16.8995 2.6317 16.5815 2.5 16.25 2.5ZM16.25 16.25H3.75V3.75H16.25V16.25ZM12.9422 10.1828C13.0003 10.2409 13.0464 10.3098 13.0779 10.3857C13.1093 10.4615 13.1255 10.5429 13.1255 10.625C13.1255 10.7071 13.1093 10.7885 13.0779 10.8643C13.0464 10.9402 13.0003 11.0091 12.9422 11.0672L10.4422 13.5672C10.3841 13.6253 10.3152 13.6714 10.2393 13.7029C10.1635 13.7343 10.0821 13.7505 10 13.7505C9.91787 13.7505 9.83654 13.7343 9.76066 13.7029C9.68479 13.6714 9.61586 13.6253 9.55781 13.5672L7.05781 11.0672C6.94054 10.9499 6.87465 10.7909 6.87465 10.625C6.87465 10.4591 6.94054 10.3001 7.05781 10.1828C7.17509 10.0655 7.33415 9.99965 7.5 9.99965C7.66585 9.99965 7.82491 10.0655 7.94219 10.1828L9.375 11.6164V6.875C9.375 6.70924 9.44085 6.55027 9.55806 6.43306C9.67527 6.31585 9.83424 6.25 10 6.25C10.1658 6.25 10.3247 6.31585 10.4419 6.43306C10.5592 6.55027 10.625 6.70924 10.625 6.875V11.6164L12.0578 10.1828C12.1159 10.1247 12.1848 10.0786 12.2607 10.0471C12.3365 10.0157 12.4179 9.99951 12.5 9.99951C12.5821 9.99951 12.6635 10.0157 12.7393 10.0471C12.8152 10.0786 12.8841 10.1247 12.9422 10.1828Z" fill="#191F2E"/>
</svg>
