<svg width="20" height="20" viewBox="0 0 20 20" fill="none" xmlns="http://www.w3.org/2000/svg">
<path d="M6.83673 5.03831C6.74933 4.95122 6.67998 4.84772 6.63266 4.73377C6.58534 4.61981 6.56099 4.49764 6.56099 4.37425C6.56099 4.25086 6.58534 4.12869 6.63266 4.01473C6.67998 3.90078 6.74933 3.79728 6.83673 3.71019L9.33673 1.21019C9.42382 1.12279 9.52732 1.05344 9.64127 1.00612C9.75523 0.958805 9.8774 0.934448 10.0008 0.934448C10.1242 0.934448 10.2464 0.958805 10.3603 1.00612C10.4743 1.05344 10.5778 1.12279 10.6649 1.21019L13.1649 3.71019C13.341 3.88631 13.4399 4.12518 13.4399 4.37425C13.4399 4.62332 13.341 4.86219 13.1649 5.03831C12.9887 5.21443 12.7499 5.31338 12.5008 5.31338C12.2517 5.31338 12.0128 5.21443 11.8367 5.03831L10.9375 4.14066V7.50003C10.9375 7.74867 10.8387 7.98713 10.6629 8.16294C10.4871 8.33876 10.2486 8.43753 10 8.43753C9.75137 8.43753 9.51291 8.33876 9.33709 8.16294C9.16128 7.98713 9.06251 7.74867 9.06251 7.50003V4.14066L8.16329 5.03831C8.07622 5.12548 7.97282 5.19463 7.85901 5.24181C7.7452 5.28899 7.62321 5.31327 7.50001 5.31327C7.3768 5.31327 7.25481 5.28899 7.141 5.24181C7.02719 5.19463 6.92379 5.12548 6.83673 5.03831ZM11.8367 14.9602L10.9375 15.8594V12.5C10.9375 12.2514 10.8387 12.0129 10.6629 11.8371C10.4871 11.6613 10.2486 11.5625 10 11.5625C9.75137 11.5625 9.51291 11.6613 9.33709 11.8371C9.16128 12.0129 9.06251 12.2514 9.06251 12.5V15.8594L8.16329 14.9594C8.07608 14.8722 7.97255 14.803 7.85861 14.7558C7.74467 14.7086 7.62255 14.6843 7.49923 14.6843C7.3759 14.6843 7.25378 14.7086 7.13984 14.7558C7.0259 14.803 6.92237 14.8722 6.83516 14.9594C6.74796 15.0466 6.67878 15.1501 6.63159 15.2641C6.58439 15.378 6.5601 15.5001 6.5601 15.6235C6.5601 15.7468 6.58439 15.8689 6.63159 15.9829C6.67878 16.0968 6.74796 16.2003 6.83516 16.2875L9.33516 18.7875C9.42226 18.8749 9.52575 18.9443 9.63971 18.9916C9.75366 19.0389 9.87584 19.0633 9.99923 19.0633C10.1226 19.0633 10.2448 19.0389 10.3587 18.9916C10.4727 18.9443 10.5762 18.8749 10.6633 18.7875L13.1633 16.2875C13.3394 16.1114 13.4384 15.8725 13.4384 15.6235C13.4384 15.3744 13.3394 15.1355 13.1633 14.9594C12.9872 14.7833 12.7483 14.6843 12.4992 14.6843C12.2502 14.6843 12.0113 14.7833 11.8352 14.9594L11.8367 14.9602ZM18.7899 9.33519L16.2899 6.83519C16.1137 6.65907 15.8749 6.56012 15.6258 6.56012C15.3767 6.56012 15.1378 6.65907 14.9617 6.83519C14.7856 7.01131 14.6867 7.25018 14.6867 7.49925C14.6867 7.74832 14.7856 7.98719 14.9617 8.16331L15.8594 9.06253H12.5C12.2514 9.06253 12.0129 9.1613 11.8371 9.33712C11.6613 9.51293 11.5625 9.75139 11.5625 10C11.5625 10.2487 11.6613 10.4871 11.8371 10.6629C12.0129 10.8388 12.2514 10.9375 12.5 10.9375H15.8594L14.9594 11.8367C14.7833 12.0129 14.6843 12.2517 14.6843 12.5008C14.6843 12.7499 14.7833 12.9888 14.9594 13.1649C15.1355 13.341 15.3744 13.4399 15.6234 13.4399C15.8725 13.4399 16.1114 13.341 16.2875 13.1649L18.7875 10.6649C18.875 10.5778 18.9444 10.4744 18.9918 10.3604C19.0391 10.2465 19.0636 10.1244 19.0636 10.001C19.0637 9.87759 19.0394 9.7554 18.9922 9.64141C18.9449 9.52743 18.8756 9.4239 18.7883 9.33675L18.7899 9.33519ZM4.14063 10.9375H7.50001C7.74865 10.9375 7.9871 10.8388 8.16292 10.6629C8.33873 10.4871 8.43751 10.2487 8.43751 10C8.43751 9.75139 8.33873 9.51293 8.16292 9.33712C7.9871 9.1613 7.74865 9.06253 7.50001 9.06253H4.14063L5.04063 8.16331C5.21675 7.98719 5.3157 7.74832 5.3157 7.49925C5.3157 7.25018 5.21675 7.01131 5.04063 6.83519C4.86451 6.65907 4.62564 6.56012 4.37657 6.56012C4.1275 6.56012 3.88863 6.65907 3.71251 6.83519L1.21251 9.33519C1.12511 9.42229 1.05576 9.52578 1.00844 9.63973C0.961125 9.75369 0.936768 9.87586 0.936768 9.99925C0.936768 10.1226 0.961125 10.2448 1.00844 10.3588C1.05576 10.4727 1.12511 10.5762 1.21251 10.6633L3.71251 13.1633C3.79971 13.2505 3.90324 13.3197 4.01718 13.3669C4.13112 13.4141 4.25324 13.4384 4.37657 13.4384C4.4999 13.4384 4.62202 13.4141 4.73596 13.3669C4.8499 13.3197 4.95343 13.2505 5.04063 13.1633C5.12784 13.0761 5.19701 12.9726 5.24421 12.8586C5.2914 12.7447 5.3157 12.6226 5.3157 12.4993C5.3157 12.3759 5.2914 12.2538 5.24421 12.1399C5.19701 12.0259 5.12784 11.9224 5.04063 11.8352L4.14063 10.9375Z" fill="#191F2E"/>
</svg>
