<svg width="20" height="20" viewBox="0 0 20 20" fill="none" xmlns="http://www.w3.org/2000/svg">
<path d="M17.5 3.125C17.5 3.29076 17.4342 3.44973 17.3169 3.56694C17.1997 3.68415 17.0408 3.75 16.875 3.75H3.125C2.95924 3.75 2.80027 3.68415 2.68306 3.56694C2.56585 3.44973 2.5 3.29076 2.5 3.125C2.5 2.95924 2.56585 2.80027 2.68306 2.68306C2.80027 2.56585 2.95924 2.5 3.125 2.5H16.875C17.0408 2.5 17.1997 2.56585 17.3169 2.68306C17.4342 2.80027 17.5 2.95924 17.5 3.125ZM15.2391 7.54766C15.1249 7.50028 14.9992 7.48784 14.8779 7.5119C14.7567 7.53595 14.6453 7.59543 14.5578 7.68281L11.25 10.9914L6.69219 6.43281C6.57491 6.31554 6.41585 6.24965 6.25 6.24965C6.08415 6.24965 5.92509 6.31554 5.80781 6.43281C5.69054 6.55009 5.62465 6.70915 5.62465 6.875C5.62465 7.04085 5.69054 7.19991 5.80781 7.31719L10.3664 11.875L7.05781 15.1828C6.9703 15.2702 6.9107 15.3816 6.88654 15.5029C6.86239 15.6242 6.87477 15.75 6.92211 15.8642C6.96946 15.9785 7.04964 16.0762 7.15251 16.1448C7.25538 16.2135 7.37632 16.2501 7.5 16.25H15C15.1658 16.25 15.3247 16.1842 15.4419 16.0669C15.5592 15.9497 15.625 15.7908 15.625 15.625V8.125C15.625 8.00139 15.5883 7.88056 15.5196 7.77779C15.4509 7.67503 15.3533 7.59494 15.2391 7.54766Z" fill="#191F2E"/>
</svg>
