<svg width="20" height="20" viewBox="0 0 20 20" fill="none" xmlns="http://www.w3.org/2000/svg">
<path d="M15.6633 15.6633C15.5762 15.7507 15.4727 15.82 15.3587 15.8673C15.2448 15.9147 15.1226 15.939 14.9992 15.939C14.8758 15.939 14.7537 15.9147 14.6397 15.8673C14.5257 15.82 14.4223 15.7507 14.3352 15.6633L5.9375 7.26562V13.125C5.9375 13.3736 5.83873 13.6121 5.66291 13.7879C5.4871 13.9637 5.24864 14.0625 5 14.0625C4.75136 14.0625 4.5129 13.9637 4.33709 13.7879C4.16127 13.6121 4.0625 13.3736 4.0625 13.125V5C4.0625 4.75136 4.16127 4.5129 4.33709 4.33709C4.5129 4.16127 4.75136 4.0625 5 4.0625H13.125C13.3736 4.0625 13.6121 4.16127 13.7879 4.33709C13.9637 4.5129 14.0625 4.75136 14.0625 5C14.0625 5.24864 13.9637 5.4871 13.7879 5.66291C13.6121 5.83873 13.3736 5.9375 13.125 5.9375H7.26562L15.6633 14.3367C15.7504 14.4238 15.8196 14.5272 15.8668 14.641C15.914 14.7548 15.9382 14.8768 15.9382 15C15.9382 15.1232 15.914 15.2452 15.8668 15.359C15.8196 15.4728 15.7504 15.5762 15.6633 15.6633Z" fill="#191F2E"/>
</svg>
