<svg width="20" height="20" viewBox="0 0 20 20" fill="none" xmlns="http://www.w3.org/2000/svg">
<path d="M18.7883 9.33672L11.2883 1.83672C11.1572 1.70546 10.9901 1.61606 10.8081 1.57982C10.6261 1.54359 10.4375 1.56215 10.2661 1.63317C10.0947 1.70419 9.94827 1.82447 9.84526 1.97877C9.74226 2.13308 9.68735 2.31448 9.6875 2.50001V5.31251H3.75C3.3356 5.31251 2.93817 5.47713 2.64515 5.77015C2.35212 6.06318 2.1875 6.4606 2.1875 6.87501V13.125C2.1875 13.5394 2.35212 13.9368 2.64515 14.2299C2.93817 14.5229 3.3356 14.6875 3.75 14.6875H9.6875V17.5C9.68735 17.6855 9.74226 17.8669 9.84526 18.0212C9.94827 18.1755 10.0947 18.2958 10.2661 18.3668C10.4375 18.4379 10.6261 18.4564 10.8081 18.4202C10.9901 18.384 11.1572 18.2945 11.2883 18.1633L18.7883 10.6633C18.8754 10.5762 18.9446 10.4728 18.9918 10.359C19.039 10.2452 19.0632 10.1232 19.0632 10C19.0632 9.8768 19.039 9.75481 18.9918 9.641C18.9446 9.52719 18.8754 9.42379 18.7883 9.33672ZM11.5625 15.2344V13.75C11.5625 13.5014 11.4637 13.2629 11.2879 13.0871C11.1121 12.9113 10.8736 12.8125 10.625 12.8125H4.0625V7.18751H10.625C10.8736 7.18751 11.1121 7.08873 11.2879 6.91292C11.4637 6.7371 11.5625 6.49865 11.5625 6.25001V4.76563L16.7969 10L11.5625 15.2344Z" fill="#191F2E"/>
</svg>
