<svg width="20" height="20" viewBox="0 0 20 20" fill="none" xmlns="http://www.w3.org/2000/svg">
<path d="M15.625 6.2501V17.5001C15.625 17.6659 15.5591 17.8248 15.4419 17.942C15.3247 18.0593 15.1657 18.1251 15 18.1251C14.8342 18.1251 14.6753 18.0593 14.558 17.942C14.4408 17.8248 14.375 17.6659 14.375 17.5001V6.8751H5.25858L7.94218 9.55791C8.05945 9.67519 8.12534 9.83425 8.12534 10.0001C8.12534 10.166 8.05945 10.325 7.94218 10.4423C7.8249 10.5596 7.66584 10.6255 7.49999 10.6255C7.33414 10.6255 7.17508 10.5596 7.0578 10.4423L3.3078 6.69229L3.30311 6.68682C3.29061 6.67432 3.27811 6.66026 3.26639 6.6462L3.24843 6.62198C3.242 6.61397 3.236 6.60562 3.23046 6.59698L3.21249 6.56807C3.2076 6.56053 3.20317 6.5527 3.19921 6.54463C3.19374 6.53526 3.18905 6.5251 3.18436 6.51495C3.17968 6.50479 3.17655 6.49854 3.17264 6.48917C3.16874 6.47979 3.16561 6.46963 3.16171 6.46026L3.15155 6.43213L3.14452 6.40167C3.14452 6.39151 3.13905 6.38213 3.13671 6.37276C3.13436 6.36338 3.13671 6.34854 3.13202 6.33682C3.12733 6.3251 3.13202 6.32042 3.12811 6.31182C3.12421 6.27077 3.12421 6.22944 3.12811 6.18838C3.12811 6.17979 3.12811 6.17198 3.13202 6.16338C3.13593 6.15479 3.13202 6.13917 3.13671 6.12745C3.14139 6.11573 3.14139 6.1087 3.14452 6.09854L3.15155 6.06807L3.16171 6.03995C3.16561 6.03057 3.16874 6.02042 3.17264 6.01104C3.17655 6.00167 3.18046 5.99385 3.18436 5.98526C3.18827 5.97667 3.19374 5.96495 3.19921 5.95557C3.20317 5.9475 3.2076 5.93968 3.21249 5.93213L3.23046 5.90323C3.236 5.89458 3.242 5.88624 3.24843 5.87823L3.26639 5.85401C3.27811 5.83995 3.29061 5.82588 3.30311 5.81338L3.3078 5.80792L7.0578 2.05792C7.17508 1.94064 7.33414 1.87476 7.49999 1.87476C7.66584 1.87476 7.8249 1.94064 7.94218 2.05792C8.05945 2.17519 8.12534 2.33425 8.12534 2.5001C8.12534 2.66596 8.05945 2.82502 7.94218 2.94229L5.25858 5.6251H15C15.1657 5.6251 15.3247 5.69095 15.4419 5.80816C15.5591 5.92537 15.625 6.08434 15.625 6.2501Z" fill="#191F2E"/>
</svg>
