<svg width="20" height="20" viewBox="0 0 20 20" fill="none" xmlns="http://www.w3.org/2000/svg">
<path d="M18.125 11.25C18.1236 12.5756 17.5963 13.8466 16.6589 14.7839C15.7216 15.7213 14.4506 16.2485 13.125 16.25H6.25C6.08424 16.25 5.92527 16.1841 5.80806 16.0669C5.69085 15.9497 5.625 15.7908 5.625 15.625C5.625 15.4592 5.69085 15.3003 5.80806 15.1831C5.92527 15.0658 6.08424 15 6.25 15H13.125C14.1196 15 15.0734 14.6049 15.7767 13.9016C16.4799 13.1984 16.875 12.2446 16.875 11.25C16.875 10.2554 16.4799 9.30161 15.7767 8.59835C15.0734 7.89508 14.1196 7.5 13.125 7.5H4.0086L6.69219 10.1828C6.80947 10.3001 6.87535 10.4591 6.87535 10.625C6.87535 10.7908 6.80947 10.9499 6.69219 11.0672C6.57492 11.1845 6.41586 11.2503 6.25 11.2503C6.08415 11.2503 5.92509 11.1845 5.80782 11.0672L2.05782 7.31718C1.99971 7.25914 1.95361 7.19021 1.92215 7.11433C1.8907 7.03846 1.87451 6.95713 1.87451 6.875C1.87451 6.79286 1.8907 6.71153 1.92215 6.63566C1.95361 6.55978 1.99971 6.49085 2.05782 6.43281L5.80782 2.68281C5.92509 2.56553 6.08415 2.49965 6.25 2.49965C6.41586 2.49965 6.57492 2.56553 6.69219 2.68281C6.80947 2.80008 6.87535 2.95914 6.87535 3.125C6.87535 3.29085 6.80947 3.44991 6.69219 3.56718L4.0086 6.25H13.125C14.4506 6.25144 15.7216 6.77869 16.6589 7.71606C17.5963 8.65343 18.1236 9.92436 18.125 11.25Z" fill="#191F2E"/>
</svg>
