<svg width="20" height="20" viewBox="0 0 20 20" fill="none" xmlns="http://www.w3.org/2000/svg">
<path d="M16.25 17.5C16.25 17.6658 16.1842 17.8247 16.0669 17.9419C15.9497 18.0592 15.7908 18.125 15.625 18.125C13.4708 18.1227 11.4055 17.266 9.88227 15.7427C8.35903 14.2195 7.50228 12.1542 7.5 10V6.875H4.375C4.25132 6.8751 4.13039 6.8385 4.02752 6.76983C3.92464 6.70116 3.84446 6.60351 3.79711 6.48925C3.74977 6.37498 3.73739 6.24924 3.76155 6.12794C3.7857 6.00663 3.84531 5.89523 3.93282 5.80782L7.68282 2.05782C7.74086 1.99971 7.80979 1.95361 7.88567 1.92215C7.96154 1.8907 8.04287 1.87451 8.125 1.87451C8.20714 1.87451 8.28847 1.8907 8.36434 1.92215C8.44022 1.95361 8.50915 1.99971 8.56719 2.05782L12.3172 5.80782C12.4047 5.89523 12.4643 6.00663 12.4885 6.12794C12.5126 6.24924 12.5002 6.37498 12.4529 6.48925C12.4055 6.60351 12.3254 6.70116 12.2225 6.76983C12.1196 6.8385 11.9987 6.8751 11.875 6.875H8.75V10C8.75207 11.8227 9.47706 13.5702 10.7659 14.8591C12.0548 16.1479 13.8023 16.8729 15.625 16.875C15.7908 16.875 15.9497 16.9409 16.0669 17.0581C16.1842 17.1753 16.25 17.3342 16.25 17.5Z" fill="#191F2E"/>
</svg>
