<svg width="20" height="20" viewBox="0 0 20 20" fill="none" xmlns="http://www.w3.org/2000/svg">
<path d="M16.25 2.1875H3.75C3.3356 2.1875 2.93817 2.35212 2.64515 2.64515C2.35212 2.93817 2.1875 3.3356 2.1875 3.75V16.25C2.1875 16.6644 2.35212 17.0618 2.64515 17.3549C2.93817 17.6479 3.3356 17.8125 3.75 17.8125H16.25C16.6644 17.8125 17.0618 17.6479 17.3549 17.3549C17.6479 17.0618 17.8125 16.6644 17.8125 16.25V3.75C17.8125 3.3356 17.6479 2.93817 17.3549 2.64515C17.0618 2.35212 16.6644 2.1875 16.25 2.1875ZM15.9375 15.9375H4.0625V4.0625H15.9375V15.9375ZM6.83672 10.0383C6.74932 9.95118 6.67997 9.84769 6.63265 9.73374C6.58534 9.61978 6.56098 9.49761 6.56098 9.37422C6.56098 9.25083 6.58534 9.12866 6.63265 9.0147C6.67997 8.90075 6.74932 8.79725 6.83672 8.71016L9.33672 6.21016C9.42382 6.12276 9.52731 6.05341 9.64126 6.00609C9.75522 5.95877 9.87739 5.93442 10.0008 5.93442C10.1242 5.93442 10.2463 5.95877 10.3603 6.00609C10.4743 6.05341 10.5777 6.12276 10.6648 6.21016L13.1648 8.71016C13.341 8.88628 13.4399 9.12515 13.4399 9.37422C13.4399 9.62329 13.341 9.86216 13.1648 10.0383C12.9887 10.2144 12.7499 10.3133 12.5008 10.3133C12.2517 10.3133 12.0128 10.2144 11.8367 10.0383L10.9375 9.14062V13.125C10.9375 13.3736 10.8387 13.6121 10.6629 13.7879C10.4871 13.9637 10.2486 14.0625 10 14.0625C9.75136 14.0625 9.5129 13.9637 9.33709 13.7879C9.16127 13.6121 9.0625 13.3736 9.0625 13.125V9.14062L8.16328 10.0406C8.07606 10.1276 7.97254 10.1966 7.85865 10.2436C7.74475 10.2906 7.62272 10.3146 7.49951 10.3144C7.37631 10.3142 7.25436 10.2897 7.14063 10.2423C7.02691 10.1949 6.92363 10.1256 6.83672 10.0383Z" fill="#191F2E"/>
</svg>
