<svg width="20" height="20" viewBox="0 0 20 20" fill="none" xmlns="http://www.w3.org/2000/svg">
<path d="M6.92266 3.98907C6.87528 3.87488 6.86284 3.7492 6.8869 3.62794C6.91095 3.50668 6.97043 3.39527 7.05781 3.30782L9.55781 0.807816C9.61586 0.749706 9.68479 0.703606 9.76066 0.672154C9.83654 0.640701 9.91787 0.624512 10 0.624512C10.0821 0.624512 10.1635 0.640701 10.2393 0.672154C10.3152 0.703606 10.3841 0.749706 10.4422 0.807816L12.9422 3.30782C13.0297 3.39523 13.0893 3.50663 13.1135 3.62794C13.1376 3.74924 13.1252 3.87498 13.0779 3.98925C13.0305 4.10351 12.9504 4.20116 12.8475 4.26983C12.7446 4.3385 12.6237 4.3751 12.5 4.375H10.625V7.5C10.625 7.66576 10.5592 7.82473 10.4419 7.94195C10.3247 8.05916 10.1658 8.125 10 8.125C9.83424 8.125 9.67527 8.05916 9.55806 7.94195C9.44085 7.82473 9.375 7.66576 9.375 7.5V4.375H7.5C7.37639 4.37498 7.25556 4.3383 7.15279 4.2696C7.05003 4.20091 6.96994 4.10328 6.92266 3.98907ZM16.875 9.375H3.125C2.95924 9.375 2.80027 9.44085 2.68306 9.55806C2.56585 9.67527 2.5 9.83424 2.5 10C2.5 10.1658 2.56585 10.3247 2.68306 10.4419C2.80027 10.5592 2.95924 10.625 3.125 10.625H16.875C17.0408 10.625 17.1997 10.5592 17.3169 10.4419C17.4342 10.3247 17.5 10.1658 17.5 10C17.5 9.83424 17.4342 9.67527 17.3169 9.55806C17.1997 9.44085 17.0408 9.375 16.875 9.375ZM12.5 15.625H10.625V12.5C10.625 12.3342 10.5592 12.1753 10.4419 12.0581C10.3247 11.9409 10.1658 11.875 10 11.875C9.83424 11.875 9.67527 11.9409 9.55806 12.0581C9.44085 12.1753 9.375 12.3342 9.375 12.5V15.625H7.5C7.37632 15.6249 7.25538 15.6615 7.15251 15.7302C7.04964 15.7988 6.96946 15.8965 6.92211 16.0108C6.87477 16.125 6.86239 16.2508 6.88654 16.3721C6.9107 16.4934 6.9703 16.6048 7.05781 16.6922L9.55781 19.1922C9.61586 19.2503 9.68479 19.2964 9.76066 19.3279C9.83654 19.3593 9.91787 19.3755 10 19.3755C10.0821 19.3755 10.1635 19.3593 10.2393 19.3279C10.3152 19.2964 10.3841 19.2503 10.4422 19.1922L12.9422 16.6922C13.0297 16.6048 13.0893 16.4934 13.1135 16.3721C13.1376 16.2508 13.1252 16.125 13.0779 16.0108C13.0305 15.8965 12.9504 15.7988 12.8475 15.7302C12.7446 15.6615 12.6237 15.6249 12.5 15.625Z" fill="#191F2E"/>
</svg>
