<svg width="20" height="20" viewBox="0 0 20 20" fill="none" xmlns="http://www.w3.org/2000/svg">
<path d="M16.9133 14.4133L13.1633 18.1633C12.9872 18.3394 12.7483 18.4383 12.4992 18.4383C12.2501 18.4383 12.0113 18.3394 11.8352 18.1633C11.659 17.9872 11.5601 17.7483 11.5601 17.4992C11.5601 17.2501 11.659 17.0113 11.8352 16.8352L13.9844 14.6875H5C4.75136 14.6875 4.5129 14.5887 4.33709 14.4129C4.16127 14.2371 4.0625 13.9986 4.0625 13.75V2.5C4.0625 2.25136 4.16127 2.0129 4.33709 1.83709C4.5129 1.66127 4.75136 1.5625 5 1.5625C5.24864 1.5625 5.4871 1.66127 5.66291 1.83709C5.83873 2.0129 5.9375 2.25136 5.9375 2.5V12.8125H13.9844L11.8344 10.6633C11.7472 10.5761 11.678 10.4725 11.6308 10.3586C11.5836 10.2447 11.5593 10.1225 11.5593 9.99922C11.5593 9.87589 11.5836 9.75377 11.6308 9.63983C11.678 9.52589 11.7472 9.42236 11.8344 9.33516C11.9216 9.24795 12.0251 9.17877 12.139 9.13158C12.253 9.08438 12.3751 9.06009 12.4984 9.06009C12.6218 9.06009 12.7439 9.08438 12.8578 9.13158C12.9718 9.17877 13.0753 9.24795 13.1625 9.33516L16.9125 13.0852C17 13.1722 17.0694 13.2757 17.1167 13.3896C17.1641 13.5035 17.1886 13.6257 17.1886 13.7491C17.1887 13.8724 17.1644 13.9946 17.1172 14.1086C17.0699 14.2226 17.0006 14.3261 16.9133 14.4133Z" fill="#191F2E"/>
</svg>
