<svg width="20" height="20" viewBox="0 0 20 20" fill="none" xmlns="http://www.w3.org/2000/svg">
<path d="M17.1875 3.75V7.5C17.1875 7.74864 17.0887 7.9871 16.9129 8.16291C16.7371 8.33873 16.4986 8.4375 16.25 8.4375C16.0014 8.4375 15.7629 8.33873 15.5871 8.16291C15.4113 7.9871 15.3125 7.74864 15.3125 7.5V6.01562L12.5383 8.79062C12.3622 8.96674 12.1233 9.06569 11.8742 9.06569C11.6251 9.06569 11.3863 8.96674 11.2102 8.79062C11.034 8.6145 10.9351 8.37563 10.9351 8.12656C10.9351 7.87749 11.034 7.63862 11.2102 7.4625L13.9844 4.6875H12.5C12.2514 4.6875 12.0129 4.58873 11.8371 4.41291C11.6613 4.2371 11.5625 3.99864 11.5625 3.75C11.5625 3.50136 11.6613 3.2629 11.8371 3.08709C12.0129 2.91127 12.2514 2.8125 12.5 2.8125H16.25C16.4986 2.8125 16.7371 2.91127 16.9129 3.08709C17.0887 3.2629 17.1875 3.50136 17.1875 3.75ZM7.46172 11.2117L4.6875 13.9844V12.5C4.6875 12.2514 4.58873 12.0129 4.41291 11.8371C4.2371 11.6613 3.99864 11.5625 3.75 11.5625C3.50136 11.5625 3.2629 11.6613 3.08709 11.8371C2.91127 12.0129 2.8125 12.2514 2.8125 12.5V16.25C2.8125 16.4986 2.91127 16.7371 3.08709 16.9129C3.2629 17.0887 3.50136 17.1875 3.75 17.1875H7.5C7.74864 17.1875 7.9871 17.0887 8.16291 16.9129C8.33873 16.7371 8.4375 16.4986 8.4375 16.25C8.4375 16.0014 8.33873 15.7629 8.16291 15.5871C7.9871 15.4113 7.74864 15.3125 7.5 15.3125H6.01562L8.79062 12.5383C8.96674 12.3622 9.06569 12.1233 9.06569 11.8742C9.06569 11.6251 8.96674 11.3863 8.79062 11.2102C8.6145 11.034 8.37563 10.9351 8.12656 10.9351C7.87749 10.9351 7.63862 11.034 7.4625 11.2102L7.46172 11.2117ZM16.25 11.5625C16.0014 11.5625 15.7629 11.6613 15.5871 11.8371C15.4113 12.0129 15.3125 12.2514 15.3125 12.5V13.9844L12.5383 11.2094C12.3622 11.0333 12.1233 10.9343 11.8742 10.9343C11.6251 10.9343 11.3863 11.0333 11.2102 11.2094C11.034 11.3855 10.9351 11.6244 10.9351 11.8734C10.9351 12.1225 11.034 12.3614 11.2102 12.5375L13.9844 15.3125H12.5C12.2514 15.3125 12.0129 15.4113 11.8371 15.5871C11.6613 15.7629 11.5625 16.0014 11.5625 16.25C11.5625 16.4986 11.6613 16.7371 11.8371 16.9129C12.0129 17.0887 12.2514 17.1875 12.5 17.1875H16.25C16.4986 17.1875 16.7371 17.0887 16.9129 16.9129C17.0887 16.7371 17.1875 16.4986 17.1875 16.25V12.5C17.1875 12.2514 17.0887 12.0129 16.9129 11.8371C16.7371 11.6613 16.4986 11.5625 16.25 11.5625ZM6.01562 4.6875H7.5C7.74864 4.6875 7.9871 4.58873 8.16291 4.41291C8.33873 4.2371 8.4375 3.99864 8.4375 3.75C8.4375 3.50136 8.33873 3.2629 8.16291 3.08709C7.9871 2.91127 7.74864 2.8125 7.5 2.8125H3.75C3.50136 2.8125 3.2629 2.91127 3.08709 3.08709C2.91127 3.2629 2.8125 3.50136 2.8125 3.75V7.5C2.8125 7.74864 2.91127 7.9871 3.08709 8.16291C3.2629 8.33873 3.50136 8.4375 3.75 8.4375C3.99864 8.4375 4.2371 8.33873 4.41291 8.16291C4.58873 7.9871 4.6875 7.74864 4.6875 7.5V6.01562L7.46172 8.79062C7.63784 8.96674 7.87671 9.06569 8.12578 9.06569C8.37485 9.06569 8.61372 8.96674 8.78984 8.79062C8.96596 8.6145 9.06491 8.37563 9.06491 8.12656C9.06491 7.87749 8.96596 7.63862 8.78984 7.4625L6.01562 4.6875Z" fill="#191F2E"/>
</svg>
