<svg width="20" height="20" viewBox="0 0 20 20" fill="none" xmlns="http://www.w3.org/2000/svg">
<path d="M7.94219 10.4422L5.44219 12.9422C5.35478 13.0297 5.24337 13.0893 5.12207 13.1135C5.00076 13.1376 4.87502 13.1252 4.76076 13.0779C4.64649 13.0305 4.54884 12.9504 4.48017 12.8475C4.41151 12.7446 4.3749 12.6237 4.375 12.5V10.625H1.875C1.70924 10.625 1.55027 10.5592 1.43306 10.4419C1.31585 10.3247 1.25 10.1658 1.25 10C1.25 9.83424 1.31585 9.67527 1.43306 9.55806C1.55027 9.44085 1.70924 9.375 1.875 9.375H4.375V7.5C4.3749 7.37632 4.41151 7.25538 4.48017 7.15251C4.54884 7.04964 4.64649 6.96946 4.76076 6.92211C4.87502 6.87477 5.00076 6.86239 5.12207 6.88654C5.24337 6.9107 5.35478 6.9703 5.44219 7.05781L7.94219 9.55781C8.0003 9.61586 8.0464 9.68479 8.07785 9.76066C8.1093 9.83654 8.12549 9.91787 8.12549 10C8.12549 10.0821 8.1093 10.1635 8.07785 10.2393C8.0464 10.3152 8.0003 10.3841 7.94219 10.4422ZM9.55781 7.94219C9.61586 8.0003 9.68479 8.0464 9.76066 8.07785C9.83654 8.1093 9.91787 8.12549 10 8.12549C10.0821 8.12549 10.1635 8.1093 10.2393 8.07785C10.3152 8.0464 10.3841 8.0003 10.4422 7.94219L12.9422 5.44219C13.0297 5.35478 13.0893 5.24337 13.1135 5.12207C13.1376 5.00076 13.1252 4.87502 13.0779 4.76076C13.0305 4.64649 12.9504 4.54884 12.8475 4.48017C12.7446 4.41151 12.6237 4.3749 12.5 4.375H10.625V1.875C10.625 1.70924 10.5592 1.55027 10.4419 1.43306C10.3247 1.31585 10.1658 1.25 10 1.25C9.83424 1.25 9.67527 1.31585 9.55806 1.43306C9.44085 1.55027 9.375 1.70924 9.375 1.875V4.375H7.5C7.37632 4.3749 7.25538 4.41151 7.15251 4.48017C7.04964 4.54884 6.96946 4.64649 6.92211 4.76076C6.87477 4.87502 6.86239 5.00076 6.88654 5.12207C6.9107 5.24337 6.9703 5.35478 7.05781 5.44219L9.55781 7.94219ZM10.4422 12.0578C10.3841 11.9997 10.3152 11.9536 10.2393 11.9221C10.1635 11.8907 10.0821 11.8745 10 11.8745C9.91787 11.8745 9.83654 11.8907 9.76066 11.9221C9.68479 11.9536 9.61586 11.9997 9.55781 12.0578L7.05781 14.5578C6.9703 14.6452 6.9107 14.7566 6.88654 14.8779C6.86239 14.9992 6.87477 15.125 6.92211 15.2392C6.96946 15.3535 7.04964 15.4512 7.15251 15.5198C7.25538 15.5885 7.37632 15.6251 7.5 15.625H9.375V18.125C9.375 18.2908 9.44085 18.4497 9.55806 18.5669C9.67527 18.6842 9.83424 18.75 10 18.75C10.1658 18.75 10.3247 18.6842 10.4419 18.5669C10.5592 18.4497 10.625 18.2908 10.625 18.125V15.625H12.5C12.6237 15.6251 12.7446 15.5885 12.8475 15.5198C12.9504 15.4512 13.0305 15.3535 13.0779 15.2392C13.1252 15.125 13.1376 14.9992 13.1135 14.8779C13.0893 14.7566 13.0297 14.6452 12.9422 14.5578L10.4422 12.0578ZM18.125 9.375H15.625V7.5C15.6251 7.37632 15.5885 7.25538 15.5198 7.15251C15.4512 7.04964 15.3535 6.96946 15.2392 6.92211C15.125 6.87477 14.9992 6.86239 14.8779 6.88654C14.7566 6.9107 14.6452 6.9703 14.5578 7.05781L12.0578 9.55781C11.9997 9.61586 11.9536 9.68479 11.9221 9.76066C11.8907 9.83654 11.8745 9.91787 11.8745 10C11.8745 10.0821 11.8907 10.1635 11.9221 10.2393C11.9536 10.3152 11.9997 10.3841 12.0578 10.4422L14.5578 12.9422C14.6452 13.0297 14.7566 13.0893 14.8779 13.1135C14.9992 13.1376 15.125 13.1252 15.2392 13.0779C15.3535 13.0305 15.4512 12.9504 15.5198 12.8475C15.5885 12.7446 15.6251 12.6237 15.625 12.5V10.625H18.125C18.2908 10.625 18.4497 10.5592 18.5669 10.4419C18.6842 10.3247 18.75 10.1658 18.75 10C18.75 9.83424 18.6842 9.67527 18.5669 9.55806C18.4497 9.44085 18.2908 9.375 18.125 9.375Z" fill="#191F2E"/>
</svg>
