<svg width="20" height="20" viewBox="0 0 20 20" fill="none" xmlns="http://www.w3.org/2000/svg">
<path d="M15.625 5V13.125C15.6251 13.2487 15.5885 13.3696 15.5198 13.4725C15.4511 13.5754 15.3535 13.6555 15.2392 13.7029C15.125 13.7502 14.9992 13.7626 14.8779 13.7385C14.7566 13.7143 14.6452 13.6547 14.5578 13.5672L10.9375 9.94609L5.44217 15.4422C5.32489 15.5595 5.16583 15.6253 4.99998 15.6253C4.83413 15.6253 4.67507 15.5595 4.55779 15.4422C4.44052 15.3249 4.37463 15.1659 4.37463 15C4.37463 14.8341 4.44052 14.6751 4.55779 14.5578L10.0539 9.0625L6.43279 5.44219C6.34529 5.35478 6.28568 5.24337 6.26153 5.12207C6.23737 5.00076 6.24975 4.87502 6.29709 4.76076C6.34444 4.64649 6.42462 4.54884 6.52749 4.48017C6.63036 4.41151 6.7513 4.3749 6.87498 4.375H15C15.1657 4.375 15.3247 4.44085 15.4419 4.55806C15.5591 4.67527 15.625 4.83424 15.625 5Z" fill="#191F2E"/>
</svg>
