<svg width="20" height="20" viewBox="0 0 20 20" fill="none" xmlns="http://www.w3.org/2000/svg">
<path d="M18.1633 12.5383L14.4133 16.2883C14.2372 16.4644 13.9983 16.5633 13.7492 16.5633C13.5001 16.5633 13.2613 16.4644 13.0852 16.2883C12.909 16.1122 12.8101 15.8733 12.8101 15.6242C12.8101 15.3751 12.909 15.1363 13.0852 14.9602L15.2344 12.8125H10C7.763 12.81 5.61833 11.9203 4.03653 10.3385C2.45473 8.75667 1.56498 6.612 1.5625 4.375C1.5625 4.12636 1.66127 3.8879 1.83709 3.71209C2.0129 3.53627 2.25136 3.4375 2.5 3.4375C2.74864 3.4375 2.9871 3.53627 3.16291 3.71209C3.33873 3.8879 3.4375 4.12636 3.4375 4.375C3.43936 6.11491 4.13136 7.78303 5.36167 9.01333C6.59197 10.2436 8.26009 10.9356 10 10.9375H15.2344L13.0844 8.78828C12.9083 8.61216 12.8093 8.37329 12.8093 8.12422C12.8093 7.87515 12.9083 7.63628 13.0844 7.46016C13.2605 7.28404 13.4994 7.18509 13.7484 7.18509C13.9975 7.18509 14.2364 7.28404 14.4125 7.46016L18.1625 11.2102C18.2499 11.2972 18.3194 11.4007 18.3667 11.5146C18.4141 11.6285 18.4386 11.7507 18.4386 11.8741C18.4387 11.9974 18.4144 12.1196 18.3672 12.2336C18.3199 12.3476 18.2506 12.4511 18.1633 12.5383Z" fill="#191F2E"/>
</svg>
