<svg width="20" height="20" viewBox="0 0 20 20" fill="none" xmlns="http://www.w3.org/2000/svg">
<path d="M17.9422 7.94219C17.8841 8.0003 17.8152 8.0464 17.7393 8.07785C17.6635 8.10931 17.5821 8.12549 17.5 8.12549C17.4179 8.12549 17.3365 8.10931 17.2607 8.07785C17.1848 8.0464 17.1159 8.0003 17.0578 7.94219L14.375 5.2586V15C14.375 15.1658 14.3092 15.3247 14.1919 15.4419C14.0747 15.5592 13.9158 15.625 13.75 15.625H2.5C2.33424 15.625 2.17527 15.5592 2.05806 15.4419C1.94085 15.3247 1.875 15.1658 1.875 15C1.875 14.8342 1.94085 14.6753 2.05806 14.5581C2.17527 14.4409 2.33424 14.375 2.5 14.375H13.125V5.2586L10.4422 7.94219C10.3249 8.05947 10.1659 8.12535 10 8.12535C9.83415 8.12535 9.67509 8.05947 9.55781 7.94219C9.44054 7.82492 9.37465 7.66586 9.37465 7.5C9.37465 7.33415 9.44054 7.17509 9.55781 7.05782L13.3078 3.30782C13.3659 3.24971 13.4348 3.20361 13.5107 3.17215C13.5865 3.1407 13.6679 3.12451 13.75 3.12451C13.8321 3.12451 13.9135 3.1407 13.9893 3.17215C14.0652 3.20361 14.1341 3.24971 14.1922 3.30782L17.9422 7.05782C18.0003 7.11586 18.0464 7.18479 18.0779 7.26067C18.1093 7.33654 18.1255 7.41787 18.1255 7.5C18.1255 7.58214 18.1093 7.66347 18.0779 7.73934C18.0464 7.81522 18.0003 7.88415 17.9422 7.94219Z" fill="#191F2E"/>
</svg>
