<svg width="20" height="20" viewBox="0 0 20 20" fill="none" xmlns="http://www.w3.org/2000/svg">
<path d="M16.25 6.875V13.75C16.25 13.9158 16.1842 14.0747 16.0669 14.1919C15.9497 14.3092 15.7908 14.375 15.625 14.375C15.4592 14.375 15.3003 14.3092 15.1831 14.1919C15.0659 14.0747 15 13.9158 15 13.75V6.875C15 5.88044 14.6049 4.92661 13.9017 4.22335C13.1984 3.52009 12.2446 3.125 11.25 3.125C10.2554 3.125 9.30162 3.52009 8.59835 4.22335C7.89509 4.92661 7.5 5.88044 7.5 6.875V13.125H10.625C10.7487 13.1249 10.8696 13.1615 10.9725 13.2302C11.0754 13.2988 11.1555 13.3965 11.2029 13.5108C11.2502 13.625 11.2626 13.7508 11.2385 13.8721C11.2143 13.9934 11.1547 14.1048 11.0672 14.1922L7.31719 17.9422C7.25915 18.0003 7.19022 18.0464 7.11434 18.0779C7.03847 18.1093 6.95714 18.1255 6.875 18.1255C6.79287 18.1255 6.71154 18.1093 6.63567 18.0779C6.55979 18.0464 6.49086 18.0003 6.43282 17.9422L2.68282 14.1922C2.59531 14.1048 2.5357 13.9934 2.51155 13.8721C2.48739 13.7508 2.49977 13.625 2.54711 13.5108C2.59446 13.3965 2.67464 13.2988 2.77752 13.2302C2.88039 13.1615 3.00132 13.1249 3.125 13.125H6.25V6.875C6.25 5.54892 6.77679 4.27715 7.71447 3.33947C8.65215 2.40178 9.92392 1.875 11.25 1.875C12.5761 1.875 13.8479 2.40178 14.7855 3.33947C15.7232 4.27715 16.25 5.54892 16.25 6.875Z" fill="#191F2E"/>
</svg>
