<svg width="20" height="20" viewBox="0 0 20 20" fill="none" xmlns="http://www.w3.org/2000/svg">
<path d="M10 1.5625C8.33122 1.5625 6.69992 2.05735 5.31238 2.98448C3.92484 3.9116 2.84338 5.22936 2.20477 6.77111C1.56616 8.31286 1.39907 10.0094 1.72463 11.6461C2.05019 13.2828 2.85379 14.7862 4.03379 15.9662C5.2138 17.1462 6.71721 17.9498 8.35393 18.2754C9.99064 18.6009 11.6871 18.4338 13.2289 17.7952C14.7706 17.1566 16.0884 16.0752 17.0155 14.6876C17.9427 13.3001 18.4375 11.6688 18.4375 10C18.435 7.763 17.5453 5.61833 15.9635 4.03653C14.3817 2.45473 12.237 1.56498 10 1.5625ZM10 16.5625C8.70206 16.5625 7.43327 16.1776 6.35407 15.4565C5.27488 14.7354 4.43374 13.7105 3.93704 12.5114C3.44034 11.3122 3.31038 9.99272 3.5636 8.71972C3.81682 7.44672 4.44183 6.27739 5.35962 5.35961C6.2774 4.44183 7.44672 3.81681 8.71972 3.5636C9.99272 3.31038 11.3122 3.44034 12.5114 3.93704C13.7105 4.43374 14.7354 5.27487 15.4565 6.35407C16.1776 7.43327 16.5625 8.70206 16.5625 10C16.5606 11.7399 15.8686 13.408 14.6383 14.6383C13.408 15.8686 11.7399 16.5606 10 16.5625ZM13.4375 8.75V12.5C13.4375 12.7486 13.3387 12.9871 13.1629 13.1629C12.9871 13.3387 12.7486 13.4375 12.5 13.4375H8.75C8.50136 13.4375 8.26291 13.3387 8.08709 13.1629C7.91128 12.9871 7.8125 12.7486 7.8125 12.5C7.8125 12.2514 7.91128 12.0129 8.08709 11.8371C8.26291 11.6613 8.50136 11.5625 8.75 11.5625H10.2344L6.83672 8.16328C6.74952 8.07608 6.68034 7.97255 6.63315 7.85861C6.58595 7.74467 6.56166 7.62255 6.56166 7.49922C6.56166 7.25015 6.6606 7.01128 6.83672 6.83516C7.01284 6.65904 7.25171 6.56009 7.50078 6.56009C7.74986 6.56009 7.98873 6.65904 8.16485 6.83516L11.5625 10.2344V8.75C11.5625 8.50136 11.6613 8.2629 11.8371 8.08709C12.0129 7.91127 12.2514 7.8125 12.5 7.8125C12.7486 7.8125 12.9871 7.91127 13.1629 8.08709C13.3387 8.2629 13.4375 8.50136 13.4375 8.75Z" fill="#191F2E"/>
</svg>
