<svg width="20" height="20" viewBox="0 0 20 20" fill="none" xmlns="http://www.w3.org/2000/svg">
<path d="M18.125 15C18.125 15.1658 18.0592 15.3247 17.9419 15.4419C17.8247 15.5592 17.6658 15.625 17.5 15.625H6.25C6.08424 15.625 5.92527 15.5592 5.80806 15.4419C5.69085 15.3247 5.625 15.1658 5.625 15V8.125H2.5C2.37632 8.1251 2.25539 8.0885 2.15252 8.01983C2.04964 7.95116 1.96946 7.85351 1.92211 7.73925C1.87477 7.62498 1.86239 7.49924 1.88655 7.37794C1.9107 7.25663 1.97031 7.14523 2.05782 7.05782L5.80782 3.30782C5.86586 3.24971 5.93479 3.20361 6.01067 3.17215C6.08654 3.1407 6.16787 3.12451 6.25 3.12451C6.33214 3.12451 6.41347 3.1407 6.48934 3.17215C6.56522 3.20361 6.63415 3.24971 6.69219 3.30782L10.4422 7.05782C10.5297 7.14523 10.5893 7.25663 10.6135 7.37794C10.6376 7.49924 10.6252 7.62498 10.5779 7.73925C10.5305 7.85351 10.4504 7.95116 10.3475 8.01983C10.2446 8.0885 10.1237 8.1251 10 8.125H6.875V14.375H17.5C17.6658 14.375 17.8247 14.4409 17.9419 14.5581C18.0592 14.6753 18.125 14.8342 18.125 15Z" fill="#191F2E"/>
</svg>
