<svg width="20" height="20" viewBox="0 0 20 20" fill="none" xmlns="http://www.w3.org/2000/svg">
<path d="M16.25 2.5H3.75C3.41848 2.5 3.10054 2.6317 2.86612 2.86612C2.6317 3.10054 2.5 3.41848 2.5 3.75V16.25C2.5 16.5815 2.6317 16.8995 2.86612 17.1339C3.10054 17.3683 3.41848 17.5 3.75 17.5H16.25C16.5815 17.5 16.8995 17.3683 17.1339 17.1339C17.3683 16.8995 17.5 16.5815 17.5 16.25V3.75C17.5 3.41848 17.3683 3.10054 17.1339 2.86612C16.8995 2.6317 16.5815 2.5 16.25 2.5ZM16.25 16.25H3.75V3.75H16.25V16.25ZM6.875 11.25V7.5C6.875 7.33424 6.94085 7.17527 7.05806 7.05806C7.17527 6.94085 7.33424 6.875 7.5 6.875H11.25C11.4158 6.875 11.5747 6.94085 11.6919 7.05806C11.8092 7.17527 11.875 7.33424 11.875 7.5C11.875 7.66576 11.8092 7.82473 11.6919 7.94194C11.5747 8.05915 11.4158 8.125 11.25 8.125H9.00859L12.9422 12.0578C13.0003 12.1159 13.0463 12.1848 13.0777 12.2607C13.1092 12.3366 13.1253 12.4179 13.1253 12.5C13.1253 12.5821 13.1092 12.6634 13.0777 12.7393C13.0463 12.8152 13.0003 12.8841 12.9422 12.9422C12.8841 13.0003 12.8152 13.0463 12.7393 13.0777C12.6634 13.1092 12.5821 13.1253 12.5 13.1253C12.4179 13.1253 12.3366 13.1092 12.2607 13.0777C12.1848 13.0463 12.1159 13.0003 12.0578 12.9422L8.125 9.00859V11.25C8.125 11.4158 8.05915 11.5747 7.94194 11.6919C7.82473 11.8092 7.66576 11.875 7.5 11.875C7.33424 11.875 7.17527 11.8092 7.05806 11.6919C6.94085 11.5747 6.875 11.4158 6.875 11.25Z" fill="#191F2E"/>
</svg>
