<svg width="20" height="20" viewBox="0 0 20 20" fill="none" xmlns="http://www.w3.org/2000/svg">
<path d="M16.5625 17.4999C16.5625 17.7485 16.4638 17.987 16.2879 18.1628C16.1121 18.3386 15.8737 18.4374 15.625 18.4374C13.388 18.4349 11.2434 17.5452 9.66155 15.9634C8.07975 14.3816 7.19001 12.2369 7.18753 9.99991V4.76553L5.03831 6.91319C4.86219 7.08931 4.62332 7.18825 4.37425 7.18825C4.12517 7.18825 3.8863 7.08931 3.71018 6.91319C3.53406 6.73707 3.43512 6.4982 3.43512 6.24913C3.43512 6.00006 3.53406 5.76119 3.71018 5.58507L7.46018 1.83507C7.54728 1.74767 7.65077 1.67832 7.76473 1.631C7.87868 1.58368 8.00086 1.55933 8.12425 1.55933C8.24763 1.55933 8.36981 1.58368 8.48376 1.631C8.59772 1.67832 8.70121 1.74767 8.78831 1.83507L12.5383 5.58507C12.7144 5.76119 12.8134 6.00006 12.8134 6.24913C12.8134 6.4982 12.7144 6.73707 12.5383 6.91319C12.3622 7.08931 12.1233 7.18825 11.8742 7.18825C11.6252 7.18825 11.3863 7.08931 11.2102 6.91319L9.06253 4.76553V9.99991C9.06439 11.7398 9.75639 13.4079 10.9867 14.6382C12.217 15.8685 13.8851 16.5605 15.625 16.5624C15.8737 16.5624 16.1121 16.6612 16.2879 16.837C16.4638 17.0128 16.5625 17.2513 16.5625 17.4999Z" fill="#191F2E"/>
</svg>
