<svg width="20" height="20" viewBox="0 0 20 20" fill="none" xmlns="http://www.w3.org/2000/svg">
<path d="M16.2023 8.98907C16.1551 9.10328 16.075 9.20091 15.9722 9.2696C15.8694 9.3383 15.7486 9.37498 15.625 9.375H10.625V16.875C10.625 17.0408 10.5592 17.1997 10.4419 17.3169C10.3247 17.4342 10.1658 17.5 10 17.5C9.83424 17.5 9.67527 17.4342 9.55806 17.3169C9.44085 17.1997 9.375 17.0408 9.375 16.875V9.375H4.375C4.25132 9.3751 4.13039 9.3385 4.02752 9.26983C3.92464 9.20116 3.84446 9.10351 3.79711 8.98925C3.74977 8.87498 3.73739 8.74924 3.76155 8.62794C3.7857 8.50663 3.84531 8.39523 3.93282 8.30782L9.55782 2.68282C9.61586 2.62471 9.68479 2.57861 9.76067 2.54715C9.83654 2.5157 9.91787 2.49951 10 2.49951C10.0821 2.49951 10.1635 2.5157 10.2393 2.54715C10.3152 2.57861 10.3841 2.62471 10.4422 2.68282L16.0672 8.30782C16.1546 8.39527 16.2141 8.50668 16.2381 8.62794C16.2622 8.7492 16.2497 8.87488 16.2023 8.98907Z" fill="#191F2E"/>
</svg>
