<svg width="20" height="20" viewBox="0 0 20 20" fill="none" xmlns="http://www.w3.org/2000/svg">
<path d="M18.125 4.375C18.1227 6.52919 17.266 8.59449 15.7427 10.1177C14.2195 11.641 12.1542 12.4977 10 12.5H4.0086L6.69219 15.1828C6.80947 15.3001 6.87535 15.4591 6.87535 15.625C6.87535 15.7909 6.80947 15.9499 6.69219 16.0672C6.57492 16.1845 6.41586 16.2503 6.25 16.2503C6.08415 16.2503 5.92509 16.1845 5.80782 16.0672L2.05782 12.3172C1.99971 12.2591 1.95361 12.1902 1.92215 12.1143C1.8907 12.0385 1.87451 11.9571 1.87451 11.875C1.87451 11.7929 1.8907 11.7115 1.92215 11.6357C1.95361 11.5598 1.99971 11.4909 2.05782 11.4328L5.80782 7.68281C5.92509 7.56554 6.08415 7.49965 6.25 7.49965C6.41586 7.49965 6.57492 7.56554 6.69219 7.68281C6.80947 7.80009 6.87535 7.95915 6.87535 8.125C6.87535 8.29085 6.80947 8.44991 6.69219 8.56719L4.0086 11.25H10C11.8227 11.2479 13.5702 10.5229 14.8591 9.23408C16.1479 7.94521 16.8729 6.19773 16.875 4.375C16.875 4.20924 16.9409 4.05027 17.0581 3.93306C17.1753 3.81585 17.3342 3.75 17.5 3.75C17.6658 3.75 17.8247 3.81585 17.9419 3.93306C18.0592 4.05027 18.125 4.20924 18.125 4.375Z" fill="#191F2E"/>
</svg>
