<svg width="20" height="20" viewBox="0 0 20 20" fill="none" xmlns="http://www.w3.org/2000/svg">
<path d="M16.25 6.875V13.75C16.25 13.9158 16.1842 14.0747 16.067 14.1919C15.9497 14.3092 15.7908 14.375 15.625 14.375C15.4593 14.375 15.3003 14.3092 15.1831 14.1919C15.0659 14.0747 15 13.9158 15 13.75V6.875C15 5.88044 14.6049 4.92661 13.9017 4.22335C13.1984 3.52009 12.2446 3.125 11.25 3.125C10.2554 3.125 9.30162 3.52009 8.59836 4.22335C7.8951 4.92661 7.50001 5.88044 7.50001 6.875V15.9914L10.1828 13.3078C10.3001 13.1905 10.4592 13.1247 10.625 13.1247C10.7909 13.1247 10.9499 13.1905 11.0672 13.3078C11.1845 13.4251 11.2504 13.5841 11.2504 13.75C11.2504 13.9159 11.1845 14.0749 11.0672 14.1922L7.3172 17.9422C7.25915 18.0003 7.19022 18.0464 7.11435 18.0779C7.03848 18.1093 6.95715 18.1255 6.87501 18.1255C6.79288 18.1255 6.71155 18.1093 6.63567 18.0779C6.5598 18.0464 6.49087 18.0003 6.43282 17.9422L2.68282 14.1922C2.62476 14.1341 2.57869 14.0652 2.54727 13.9893C2.51584 13.9134 2.49966 13.8321 2.49966 13.75C2.49966 13.6679 2.51584 13.5866 2.54727 13.5107C2.57869 13.4348 2.62476 13.3659 2.68282 13.3078C2.8001 13.1905 2.95916 13.1247 3.12501 13.1247C3.20713 13.1247 3.28845 13.1408 3.36432 13.1723C3.44019 13.2037 3.50913 13.2497 3.5672 13.3078L6.25001 15.9914V6.875C6.25001 5.54892 6.7768 4.27715 7.71448 3.33947C8.65216 2.40178 9.92393 1.875 11.25 1.875C12.5761 1.875 13.8479 2.40178 14.7855 3.33947C15.7232 4.27715 16.25 5.54892 16.25 6.875Z" fill="#191F2E"/>
</svg>
