<svg width="20" height="20" viewBox="0 0 20 20" fill="none" xmlns="http://www.w3.org/2000/svg">
<path d="M18.125 11.25C18.1236 12.5756 17.5963 13.8466 16.6589 14.7839C15.7216 15.7213 14.4506 16.2486 13.125 16.25H6.25C6.08424 16.25 5.92527 16.1842 5.80806 16.0669C5.69085 15.9497 5.625 15.7908 5.625 15.625C5.625 15.4592 5.69085 15.3003 5.80806 15.1831C5.92527 15.0659 6.08424 15 6.25 15H13.125C14.1196 15 15.0734 14.6049 15.7767 13.9017C16.4799 13.1984 16.875 12.2446 16.875 11.25C16.875 10.2554 16.4799 9.30162 15.7767 8.59835C15.0734 7.89509 14.1196 7.5 13.125 7.5H6.875V10.625C6.8751 10.7487 6.8385 10.8696 6.76983 10.9725C6.70116 11.0754 6.60351 11.1555 6.48925 11.2029C6.37498 11.2502 6.24924 11.2626 6.12794 11.2385C6.00663 11.2143 5.89523 11.1547 5.80782 11.0672L2.05782 7.31719C1.99971 7.25915 1.95361 7.19022 1.92215 7.11434C1.8907 7.03847 1.87451 6.95714 1.87451 6.875C1.87451 6.79287 1.8907 6.71154 1.92215 6.63567C1.95361 6.55979 1.99971 6.49086 2.05782 6.43282L5.80782 2.68282C5.89523 2.59531 6.00663 2.5357 6.12794 2.51155C6.24924 2.48739 6.37498 2.49977 6.48925 2.54711C6.60351 2.59446 6.70116 2.67464 6.76983 2.77752C6.8385 2.88039 6.8751 3.00132 6.875 3.125V6.25H13.125C14.4506 6.25145 15.7216 6.7787 16.6589 7.71607C17.5963 8.65344 18.1236 9.92437 18.125 11.25Z" fill="#191F2E"/>
</svg>
