<svg width="20" height="20" viewBox="0 0 20 20" fill="none" xmlns="http://www.w3.org/2000/svg">
<path d="M18.75 6.25V11.875C18.7501 11.9987 18.7135 12.1196 18.6448 12.2225C18.5761 12.3254 18.4785 12.4055 18.3642 12.4529C18.25 12.5002 18.1242 12.5126 18.0029 12.4885C17.8816 12.4643 17.7702 12.4047 17.6828 12.3172L15.3125 9.94609L9.81717 15.4422C9.75912 15.5003 9.69019 15.5464 9.61432 15.5779C9.53844 15.6093 9.45712 15.6255 9.37498 15.6255C9.29285 15.6255 9.21152 15.6093 9.13564 15.5779C9.05977 15.5464 8.99084 15.5003 8.93279 15.4422L1.43279 7.94219C1.31552 7.82491 1.24963 7.66585 1.24963 7.5C1.24963 7.33415 1.31552 7.17509 1.43279 7.05781C1.55007 6.94054 1.70913 6.87465 1.87498 6.87465C2.04083 6.87465 2.19989 6.94054 2.31717 7.05781L9.37498 14.1164L14.4289 9.0625L12.0578 6.69219C11.9703 6.60478 11.9107 6.49337 11.8865 6.37207C11.8624 6.25076 11.8747 6.12502 11.9221 6.01076C11.9694 5.89649 12.0496 5.79884 12.1525 5.73017C12.2554 5.66151 12.3763 5.6249 12.5 5.625H18.125C18.2907 5.625 18.4497 5.69085 18.5669 5.80806C18.6841 5.92527 18.75 6.08424 18.75 6.25Z" fill="#191F2E"/>
</svg>
