<svg width="20" height="20" viewBox="0 0 20 20" fill="none" xmlns="http://www.w3.org/2000/svg">
<path d="M4.375 11.25C4.375 11.4158 4.30915 11.5747 4.19194 11.6919C4.07473 11.8092 3.91576 11.875 3.75 11.875H1.875C1.70924 11.875 1.55027 11.8092 1.43306 11.6919C1.31585 11.5747 1.25 11.4158 1.25 11.25C1.25 11.0842 1.31585 10.9253 1.43306 10.8081C1.55027 10.6908 1.70924 10.625 1.875 10.625H2.5V5.625H1.875C1.70924 5.625 1.55027 5.55915 1.43306 5.44194C1.31585 5.32473 1.25 5.16576 1.25 5C1.25 4.83424 1.31585 4.67527 1.43306 4.55806C1.55027 4.44085 1.70924 4.375 1.875 4.375H3.125C3.2308 4.37489 3.33491 4.40164 3.42755 4.45274C3.52019 4.50384 3.59835 4.57763 3.65469 4.66719L6.25 8.82109L8.84531 4.66875C8.90147 4.5789 8.97954 4.50481 9.0722 4.45342C9.16485 4.40204 9.26905 4.37505 9.375 4.375H10.625C10.7908 4.375 10.9497 4.44085 11.0669 4.55806C11.1842 4.67527 11.25 4.83424 11.25 5C11.25 5.16576 11.1842 5.32473 11.0669 5.44194C10.9497 5.55915 10.7908 5.625 10.625 5.625H10V10.625H10.625C10.7908 10.625 10.9497 10.6908 11.0669 10.8081C11.1842 10.9253 11.25 11.0842 11.25 11.25C11.25 11.4158 11.1842 11.5747 11.0669 11.6919C10.9497 11.8092 10.7908 11.875 10.625 11.875H8.75C8.58424 11.875 8.42527 11.8092 8.30806 11.6919C8.19085 11.5747 8.125 11.4158 8.125 11.25C8.125 11.0842 8.19085 10.9253 8.30806 10.8081C8.42527 10.6908 8.58424 10.625 8.75 10.625V7.17891L6.77969 10.3313C6.72347 10.421 6.64538 10.495 6.55272 10.5463C6.46007 10.5976 6.3559 10.6245 6.25 10.6245C6.1441 10.6245 6.03993 10.5976 5.94728 10.5463C5.85462 10.495 5.77653 10.421 5.72031 10.3313L3.75 7.17891V10.625C3.91576 10.625 4.07473 10.6908 4.19194 10.8081C4.30915 10.9253 4.375 11.0842 4.375 11.25ZM18.75 9.375H13.125C12.9592 9.375 12.8003 9.44085 12.6831 9.55806C12.5658 9.67527 12.5 9.83424 12.5 10V11.25C12.5 11.4158 12.5658 11.5747 12.6831 11.6919C12.8003 11.8092 12.9592 11.875 13.125 11.875H18.75C18.9158 11.875 19.0747 11.8092 19.1919 11.6919C19.3092 11.5747 19.375 11.4158 19.375 11.25V10C19.375 9.83424 19.3092 9.67527 19.1919 9.55806C19.0747 9.44085 18.9158 9.375 18.75 9.375ZM18.75 13.125H5.625C5.45924 13.125 5.30027 13.1908 5.18306 13.3081C5.06585 13.4253 5 13.5842 5 13.75V15C5 15.1658 5.06585 15.3247 5.18306 15.4419C5.30027 15.5592 5.45924 15.625 5.625 15.625H18.75C18.9158 15.625 19.0747 15.5592 19.1919 15.4419C19.3092 15.3247 19.375 15.1658 19.375 15V13.75C19.375 13.5842 19.3092 13.4253 19.1919 13.3081C19.0747 13.1908 18.9158 13.125 18.75 13.125ZM18.75 5.625H13.125C12.9592 5.625 12.8003 5.69085 12.6831 5.80806C12.5658 5.92527 12.5 6.08424 12.5 6.25V7.5C12.5 7.66576 12.5658 7.82473 12.6831 7.94194C12.8003 8.05915 12.9592 8.125 13.125 8.125H18.75C18.9158 8.125 19.0747 8.05915 19.1919 7.94194C19.3092 7.82473 19.375 7.66576 19.375 7.5V6.25C19.375 6.08424 19.3092 5.92527 19.1919 5.80806C19.0747 5.69085 18.9158 5.625 18.75 5.625Z" fill="#191F2E"/>
</svg>
