<svg width="20" height="20" viewBox="0 0 20 20" fill="none" xmlns="http://www.w3.org/2000/svg">
<path d="M4.375 10.625C4.375 10.7908 4.30915 10.9497 4.19194 11.0669C4.07473 11.1842 3.91576 11.25 3.75 11.25H1.875C1.70924 11.25 1.55027 11.1842 1.43306 11.0669C1.31585 10.9497 1.25 10.7908 1.25 10.625C1.25 10.4592 1.31585 10.3003 1.43306 10.1831C1.55027 10.0658 1.70924 10 1.875 10H2.5V5H1.875C1.70924 5 1.55027 4.93415 1.43306 4.81694C1.31585 4.69973 1.25 4.54076 1.25 4.375C1.25 4.20924 1.31585 4.05027 1.43306 3.93306C1.55027 3.81585 1.70924 3.75 1.875 3.75H3.125C3.2308 3.74989 3.33491 3.77664 3.42755 3.82774C3.52019 3.87884 3.59835 3.95263 3.65469 4.04219L6.25 8.19609L8.84531 4.04375C8.90147 3.9539 8.97954 3.87981 9.0722 3.82842C9.16485 3.77704 9.26905 3.75005 9.375 3.75H10.625C10.7908 3.75 10.9497 3.81585 11.0669 3.93306C11.1842 4.05027 11.25 4.20924 11.25 4.375C11.25 4.54076 11.1842 4.69973 11.0669 4.81694C10.9497 4.93415 10.7908 5 10.625 5H10V10H10.625C10.7908 10 10.9497 10.0658 11.0669 10.1831C11.1842 10.3003 11.25 10.4592 11.25 10.625C11.25 10.7908 11.1842 10.9497 11.0669 11.0669C10.9497 11.1842 10.7908 11.25 10.625 11.25H8.75C8.58424 11.25 8.42527 11.1842 8.30806 11.0669C8.19085 10.9497 8.125 10.7908 8.125 10.625C8.125 10.4592 8.19085 10.3003 8.30806 10.1831C8.42527 10.0658 8.58424 10 8.75 10V6.55391L6.77969 9.70625C6.72347 9.796 6.64538 9.87 6.55272 9.9213C6.46007 9.97259 6.3559 9.9995 6.25 9.9995C6.1441 9.9995 6.03993 9.97259 5.94728 9.9213C5.85462 9.87 5.77653 9.796 5.72031 9.70625L3.75 6.55391V10C3.91576 10 4.07473 10.0658 4.19194 10.1831C4.30915 10.3003 4.375 10.4592 4.375 10.625ZM13.125 8.75H18.75C18.9158 8.75 19.0747 8.68415 19.1919 8.56694C19.3092 8.44973 19.375 8.29076 19.375 8.125C19.375 7.95924 19.3092 7.80027 19.1919 7.68306C19.0747 7.56585 18.9158 7.5 18.75 7.5H13.125C12.9592 7.5 12.8003 7.56585 12.6831 7.68306C12.5658 7.80027 12.5 7.95924 12.5 8.125C12.5 8.29076 12.5658 8.44973 12.6831 8.56694C12.8003 8.68415 12.9592 8.75 13.125 8.75ZM18.75 10H13.125C12.9592 10 12.8003 10.0658 12.6831 10.1831C12.5658 10.3003 12.5 10.4592 12.5 10.625C12.5 10.7908 12.5658 10.9497 12.6831 11.0669C12.8003 11.1842 12.9592 11.25 13.125 11.25H18.75C18.9158 11.25 19.0747 11.1842 19.1919 11.0669C19.3092 10.9497 19.375 10.7908 19.375 10.625C19.375 10.4592 19.3092 10.3003 19.1919 10.1831C19.0747 10.0658 18.9158 10 18.75 10ZM18.75 12.5H5.625C5.45924 12.5 5.30027 12.5658 5.18306 12.6831C5.06585 12.8003 5 12.9592 5 13.125C5 13.2908 5.06585 13.4497 5.18306 13.5669C5.30027 13.6842 5.45924 13.75 5.625 13.75H18.75C18.9158 13.75 19.0747 13.6842 19.1919 13.5669C19.3092 13.4497 19.375 13.2908 19.375 13.125C19.375 12.9592 19.3092 12.8003 19.1919 12.6831C19.0747 12.5658 18.9158 12.5 18.75 12.5ZM18.75 15H5.625C5.45924 15 5.30027 15.0658 5.18306 15.1831C5.06585 15.3003 5 15.4592 5 15.625C5 15.7908 5.06585 15.9497 5.18306 16.0669C5.30027 16.1842 5.45924 16.25 5.625 16.25H18.75C18.9158 16.25 19.0747 16.1842 19.1919 16.0669C19.3092 15.9497 19.375 15.7908 19.375 15.625C19.375 15.4592 19.3092 15.3003 19.1919 15.1831C19.0747 15.0658 18.9158 15 18.75 15Z" fill="#191F2E"/>
</svg>
