<svg width="20" height="20" viewBox="0 0 20 20" fill="none" xmlns="http://www.w3.org/2000/svg">
<path d="M11.875 8.125C11.875 7.95924 11.9408 7.80027 12.058 7.68306C12.1752 7.56585 12.3342 7.5 12.5 7.5H18.75C18.9157 7.5 19.0747 7.56585 19.1919 7.68306C19.3091 7.80027 19.375 7.95924 19.375 8.125C19.375 8.29076 19.3091 8.44973 19.1919 8.56694C19.0747 8.68415 18.9157 8.75 18.75 8.75H12.5C12.3342 8.75 12.1752 8.68415 12.058 8.56694C11.9408 8.44973 11.875 8.29076 11.875 8.125ZM18.75 10H12.5C12.3342 10 12.1752 10.0658 12.058 10.1831C11.9408 10.3003 11.875 10.4592 11.875 10.625C11.875 10.7908 11.9408 10.9497 12.058 11.0669C12.1752 11.1842 12.3342 11.25 12.5 11.25H18.75C18.9157 11.25 19.0747 11.1842 19.1919 11.0669C19.3091 10.9497 19.375 10.7908 19.375 10.625C19.375 10.4592 19.3091 10.3003 19.1919 10.1831C19.0747 10.0658 18.9157 10 18.75 10ZM18.75 12.5H12.5C12.3342 12.5 12.1752 12.5658 12.058 12.6831C11.9408 12.8003 11.875 12.9592 11.875 13.125C11.875 13.2908 11.9408 13.4497 12.058 13.5669C12.1752 13.6842 12.3342 13.75 12.5 13.75H18.75C18.9157 13.75 19.0747 13.6842 19.1919 13.5669C19.3091 13.4497 19.375 13.2908 19.375 13.125C19.375 12.9592 19.3091 12.8003 19.1919 12.6831C19.0747 12.5658 18.9157 12.5 18.75 12.5ZM18.75 15H5.62497C5.45921 15 5.30023 15.0658 5.18302 15.1831C5.06581 15.3003 4.99997 15.4592 4.99997 15.625C4.99997 15.7908 5.06581 15.9497 5.18302 16.0669C5.30023 16.1842 5.45921 16.25 5.62497 16.25H18.75C18.9157 16.25 19.0747 16.1842 19.1919 16.0669C19.3091 15.9497 19.375 15.7908 19.375 15.625C19.375 15.4592 19.3091 15.3003 19.1919 15.1831C19.0747 15.0658 18.9157 15 18.75 15ZM6.24997 13.75C5.09002 13.7488 3.97795 13.2874 3.15774 12.4672C2.33754 11.647 1.87621 10.5349 1.87497 9.375C1.87454 8.81247 1.9836 8.25524 2.19606 7.73438C1.81373 7.46893 1.52604 7.08847 1.3748 6.64828C1.22357 6.2081 1.21667 5.73116 1.35513 5.28679C1.49358 4.84242 1.77016 4.4538 2.14465 4.17742C2.51914 3.90103 2.97203 3.75131 3.43747 3.75C3.54376 3.74978 3.64836 3.77666 3.74137 3.82813L9.20465 6.86328C9.43706 6.82621 9.64703 6.70309 9.79285 6.51836C9.93867 6.33363 10.0097 6.10082 9.99177 5.86615C9.97386 5.63149 9.86835 5.41214 9.69619 5.25168C9.52402 5.09122 9.29781 5.00138 9.06247 5C8.89671 5 8.73773 4.93415 8.62052 4.81694C8.50331 4.69973 8.43747 4.54076 8.43747 4.375C8.43747 4.20924 8.50331 4.05027 8.62052 3.93306C8.73773 3.81585 8.89671 3.75 9.06247 3.75C9.64263 3.75 10.199 3.98047 10.6093 4.39071C11.0195 4.80094 11.25 5.35734 11.25 5.9375C11.25 6.51766 11.0195 7.07406 10.6093 7.4843C10.199 7.89453 9.64263 8.125 9.06247 8.125C8.95617 8.12523 8.85157 8.09834 8.75856 8.04688L5.63356 6.31172C4.92651 6.45379 4.29035 6.83605 3.83299 7.39366C3.37563 7.95127 3.1252 8.64991 3.12419 9.3711C3.12318 10.0923 3.37164 10.7916 3.82744 11.3505C4.28324 11.9094 4.91831 12.2934 5.62497 12.4375V9.375C5.62497 9.20924 5.69081 9.05027 5.80802 8.93306C5.92523 8.81585 6.08421 8.75 6.24997 8.75C6.41573 8.75 6.5747 8.81585 6.69191 8.93306C6.80912 9.05027 6.87497 9.20924 6.87497 9.375V12.4367C7.4033 12.3284 7.89472 12.0856 8.30163 11.7316C8.70855 11.3777 9.01718 10.9246 9.19762 10.4164C9.25501 10.2629 9.37039 10.1381 9.5189 10.0688C9.66742 9.99959 9.8372 9.99143 9.99167 10.0461C10.1461 10.1008 10.273 10.214 10.3448 10.3613C10.4166 10.5086 10.4277 10.6782 10.3757 10.8336C10.0732 11.6861 9.51419 12.4241 8.77549 12.9463C8.03679 13.4684 7.15459 13.7492 6.24997 13.75ZM2.83043 6.65156C3.20384 6.18274 3.66908 5.79513 4.19762 5.5125L3.29528 5.01094C3.11741 5.03767 2.95098 5.11501 2.81585 5.23373C2.68072 5.35244 2.5826 5.50753 2.53319 5.68048C2.48377 5.85342 2.48516 6.03694 2.53717 6.20912C2.58918 6.38131 2.68963 6.5349 2.82653 6.65156H2.83043Z" fill="#191F2E"/>
</svg>
