<svg width="20" height="20" viewBox="0 0 20 20" fill="none" xmlns="http://www.w3.org/2000/svg">
<path d="M4.6875 10.3125C4.6875 10.5611 4.58873 10.7996 4.41291 10.9754C4.2371 11.1512 3.99864 11.25 3.75 11.25H1.875C1.62636 11.25 1.3879 11.1512 1.21209 10.9754C1.03627 10.7996 0.9375 10.5611 0.9375 10.3125C0.9375 10.0639 1.03627 9.8254 1.21209 9.64959C1.3879 9.47377 1.62636 9.375 1.875 9.375H2.1875V5H1.875C1.62636 5 1.3879 4.90123 1.21209 4.72541C1.03627 4.5496 0.9375 4.31114 0.9375 4.0625C0.9375 3.81386 1.03627 3.5754 1.21209 3.39959C1.3879 3.22377 1.62636 3.125 1.875 3.125H3.125C3.28398 3.12486 3.44039 3.16516 3.57952 3.2421C3.71865 3.31905 3.83592 3.43011 3.92031 3.56484L6.25 7.29375L8.57969 3.56563C8.66399 3.43074 8.78122 3.31953 8.92035 3.24245C9.05949 3.16536 9.21594 3.12495 9.375 3.125H10.625C10.8736 3.125 11.1121 3.22377 11.2879 3.39959C11.4637 3.5754 11.5625 3.81386 11.5625 4.0625C11.5625 4.31114 11.4637 4.5496 11.2879 4.72541C11.1121 4.90123 10.8736 5 10.625 5H10.3125V9.375H10.625C10.8736 9.375 11.1121 9.47377 11.2879 9.64959C11.4637 9.8254 11.5625 10.0639 11.5625 10.3125C11.5625 10.5611 11.4637 10.7996 11.2879 10.9754C11.1121 11.1512 10.8736 11.25 10.625 11.25H8.75C8.52938 11.2493 8.31608 11.1708 8.14762 11.0283C7.97916 10.8859 7.86635 10.6886 7.82902 10.4711C7.79169 10.2537 7.83224 10.0301 7.94354 9.83956C8.05483 9.64907 8.22975 9.50393 8.4375 9.42969V7.33125L7.04531 9.55938C6.96107 9.69435 6.84387 9.80566 6.70473 9.88284C6.56559 9.96001 6.40911 10.0005 6.25 10.0005C6.09089 10.0005 5.93441 9.96001 5.79527 9.88284C5.65613 9.80566 5.53893 9.69435 5.45469 9.55938L4.0625 7.33125V9.42969C4.24511 9.49425 4.40324 9.61379 4.51516 9.77187C4.62707 9.92995 4.68728 10.1188 4.6875 10.3125ZM13.75 8.125H18.75C18.9986 8.125 19.2371 8.02623 19.4129 7.85041C19.5887 7.6746 19.6875 7.43614 19.6875 7.1875C19.6875 6.93886 19.5887 6.7004 19.4129 6.52459C19.2371 6.34877 18.9986 6.25 18.75 6.25H13.75C13.5014 6.25 13.2629 6.34877 13.0871 6.52459C12.9113 6.7004 12.8125 6.93886 12.8125 7.1875C12.8125 7.43614 12.9113 7.6746 13.0871 7.85041C13.2629 8.02623 13.5014 8.125 13.75 8.125ZM18.75 9.375H13.75C13.5014 9.375 13.2629 9.47377 13.0871 9.64959C12.9113 9.8254 12.8125 10.0639 12.8125 10.3125C12.8125 10.5611 12.9113 10.7996 13.0871 10.9754C13.2629 11.1512 13.5014 11.25 13.75 11.25H18.75C18.9986 11.25 19.2371 11.1512 19.4129 10.9754C19.5887 10.7996 19.6875 10.5611 19.6875 10.3125C19.6875 10.0639 19.5887 9.8254 19.4129 9.64959C19.2371 9.47377 18.9986 9.375 18.75 9.375ZM18.75 12.5H5.625C5.37636 12.5 5.1379 12.5988 4.96209 12.7746C4.78627 12.9504 4.6875 13.1889 4.6875 13.4375C4.6875 13.6861 4.78627 13.9246 4.96209 14.1004C5.1379 14.2762 5.37636 14.375 5.625 14.375H18.75C18.9986 14.375 19.2371 14.2762 19.4129 14.1004C19.5887 13.9246 19.6875 13.6861 19.6875 13.4375C19.6875 13.1889 19.5887 12.9504 19.4129 12.7746C19.2371 12.5988 18.9986 12.5 18.75 12.5ZM18.75 15.625H5.625C5.37636 15.625 5.1379 15.7238 4.96209 15.8996C4.78627 16.0754 4.6875 16.3139 4.6875 16.5625C4.6875 16.8111 4.78627 17.0496 4.96209 17.2254C5.1379 17.4012 5.37636 17.5 5.625 17.5H18.75C18.9986 17.5 19.2371 17.4012 19.4129 17.2254C19.5887 17.0496 19.6875 16.8111 19.6875 16.5625C19.6875 16.3139 19.5887 16.0754 19.4129 15.8996C19.2371 15.7238 18.9986 15.625 18.75 15.625Z" fill="#191F2E"/>
</svg>
