<svg width="20" height="20" viewBox="0 0 20 20" fill="none" xmlns="http://www.w3.org/2000/svg">
<path d="M19.375 7.5V8.75C19.375 8.91576 19.3091 9.07473 19.1919 9.19194C19.0747 9.30915 18.9157 9.375 18.75 9.375H12.5C12.3342 9.375 12.1752 9.30915 12.058 9.19194C11.9408 9.07473 11.875 8.91576 11.875 8.75V7.5C11.875 7.33424 11.9408 7.17527 12.058 7.05806C12.1752 6.94085 12.3342 6.875 12.5 6.875H18.75C18.9157 6.875 19.0747 6.94085 19.1919 7.05806C19.3091 7.17527 19.375 7.33424 19.375 7.5ZM18.75 10.625H12.5C12.3342 10.625 12.1752 10.6908 12.058 10.8081C11.9408 10.9253 11.875 11.0842 11.875 11.25V12.5C11.875 12.6658 11.9408 12.8247 12.058 12.9419C12.1752 13.0592 12.3342 13.125 12.5 13.125H18.75C18.9157 13.125 19.0747 13.0592 19.1919 12.9419C19.3091 12.8247 19.375 12.6658 19.375 12.5V11.25C19.375 11.0842 19.3091 10.9253 19.1919 10.8081C19.0747 10.6908 18.9157 10.625 18.75 10.625ZM18.75 14.375H5.62497C5.45921 14.375 5.30023 14.4408 5.18302 14.5581C5.06581 14.6753 4.99997 14.8342 4.99997 15V16.25C4.99997 16.4158 5.06581 16.5747 5.18302 16.6919C5.30023 16.8092 5.45921 16.875 5.62497 16.875H18.75C18.9157 16.875 19.0747 16.8092 19.1919 16.6919C19.3091 16.5747 19.375 16.4158 19.375 16.25V15C19.375 14.8342 19.3091 14.6753 19.1919 14.5581C19.0747 14.4408 18.9157 14.375 18.75 14.375ZM6.24997 13.125C5.09002 13.1238 3.97795 12.6624 3.15774 11.8422C2.33754 11.022 1.87621 9.90994 1.87497 8.75C1.87454 8.18747 1.9836 7.63024 2.19606 7.10938C1.81373 6.84393 1.52604 6.46347 1.3748 6.02328C1.22357 5.5831 1.21667 5.10616 1.35513 4.66179C1.49358 4.21742 1.77016 3.8288 2.14465 3.55242C2.51914 3.27603 2.97203 3.12631 3.43747 3.125C3.54376 3.12478 3.64836 3.15166 3.74137 3.20313L9.20465 6.23828C9.43706 6.20121 9.64703 6.07809 9.79285 5.89336C9.93867 5.70863 10.0097 5.47582 9.99177 5.24115C9.97386 5.00649 9.86835 4.78714 9.69619 4.62668C9.52402 4.46622 9.29781 4.37638 9.06247 4.375C8.89671 4.375 8.73773 4.30915 8.62052 4.19194C8.50331 4.07473 8.43747 3.91576 8.43747 3.75C8.43747 3.58424 8.50331 3.42527 8.62052 3.30806C8.73773 3.19085 8.89671 3.125 9.06247 3.125C9.64263 3.125 10.199 3.35547 10.6093 3.76571C11.0195 4.17594 11.25 4.73234 11.25 5.3125C11.25 5.89266 11.0195 6.44906 10.6093 6.8593C10.199 7.26953 9.64263 7.5 9.06247 7.5C8.95617 7.50023 8.85157 7.47334 8.75856 7.42188L5.63356 5.68672C4.92651 5.82879 4.29035 6.21105 3.83299 6.76866C3.37563 7.32627 3.1252 8.02491 3.12419 8.7461C3.12318 9.46728 3.37164 10.1666 3.82744 10.7255C4.28324 11.2844 4.91831 11.6684 5.62497 11.8125V8.75C5.62497 8.58424 5.69081 8.42527 5.80802 8.30806C5.92523 8.19085 6.08421 8.125 6.24997 8.125C6.41573 8.125 6.5747 8.19085 6.69191 8.30806C6.80912 8.42527 6.87497 8.58424 6.87497 8.75V11.8117C7.4033 11.7034 7.89472 11.4606 8.30163 11.1066C8.70855 10.7527 9.01718 10.2996 9.19762 9.79141C9.25501 9.63791 9.37039 9.5131 9.5189 9.44384C9.66742 9.37459 9.8372 9.36643 9.99167 9.42113C10.1461 9.47583 10.273 9.58901 10.3448 9.7363C10.4166 9.88358 10.4277 10.0532 10.3757 10.2086C10.0732 11.0611 9.51419 11.7991 8.77549 12.3213C8.03679 12.8434 7.15459 13.1242 6.24997 13.125ZM2.83043 6.02656C3.20384 5.55774 3.66908 5.17013 4.19762 4.8875L3.29528 4.38594C3.11741 4.41267 2.95098 4.49001 2.81585 4.60873C2.68072 4.72744 2.5826 4.88253 2.53319 5.05548C2.48377 5.22842 2.48516 5.41194 2.53717 5.58412C2.58918 5.75631 2.68963 5.9099 2.82653 6.02656H2.83043Z" fill="#191F2E"/>
</svg>
