<svg width="20" height="20" viewBox="0 0 20 20" fill="none" xmlns="http://www.w3.org/2000/svg">
<path d="M11.8751 9.6875C11.8751 9.43886 11.9738 9.2004 12.1496 9.02459C12.3255 8.84877 12.5639 8.75 12.8126 8.75H18.7501C18.9987 8.75 19.2372 8.84877 19.413 9.02459C19.5888 9.2004 19.6876 9.43886 19.6876 9.6875C19.6876 9.93614 19.5888 10.1746 19.413 10.3504C19.2372 10.5262 18.9987 10.625 18.7501 10.625H12.8126C12.5639 10.625 12.3255 10.5262 12.1496 10.3504C11.9738 10.1746 11.8751 9.93614 11.8751 9.6875ZM18.7501 11.875H12.8126C12.5639 11.875 12.3255 11.9738 12.1496 12.1496C11.9738 12.3254 11.8751 12.5639 11.8751 12.8125C11.8751 13.0611 11.9738 13.2996 12.1496 13.4754C12.3255 13.6512 12.5639 13.75 12.8126 13.75H18.7501C18.9987 13.75 19.2372 13.6512 19.413 13.4754C19.5888 13.2996 19.6876 13.0611 19.6876 12.8125C19.6876 12.5639 19.5888 12.3254 19.413 12.1496C19.2372 11.9738 18.9987 11.875 18.7501 11.875ZM18.7501 15H5.62505C5.37641 15 5.13796 15.0988 4.96214 15.2746C4.78632 15.4504 4.68755 15.6889 4.68755 15.9375C4.68755 16.1861 4.78632 16.4246 4.96214 16.6004C5.13796 16.7762 5.37641 16.875 5.62505 16.875H18.7501C18.9987 16.875 19.2372 16.7762 19.413 16.6004C19.5888 16.4246 19.6876 16.1861 19.6876 15.9375C19.6876 15.6889 19.5888 15.4504 19.413 15.2746C19.2372 15.0988 18.9987 15 18.7501 15ZM6.25005 14.0625C5.00729 14.0611 3.81585 13.5667 2.93709 12.688C2.05833 11.8092 1.564 10.6178 1.56255 9.375C1.5625 8.8539 1.65018 8.33651 1.82193 7.84453C1.43144 7.51353 1.15198 7.07063 1.02131 6.57569C0.89063 6.08075 0.91504 5.55762 1.09124 5.077C1.26743 4.59638 1.58692 4.18143 2.00654 3.88822C2.42615 3.59502 2.92565 3.43769 3.43755 3.4375C3.59694 3.43747 3.75369 3.47807 3.89302 3.55547L9.2524 6.53281C9.39434 6.48743 9.5154 6.39282 9.59374 6.26605C9.67208 6.13927 9.70254 5.98868 9.67963 5.84142C9.65672 5.69417 9.58195 5.55995 9.46881 5.46296C9.35566 5.36598 9.21158 5.31262 9.06255 5.3125C8.81391 5.3125 8.57546 5.21373 8.39964 5.03791C8.22382 4.8621 8.12505 4.62364 8.12505 4.375C8.12505 4.12636 8.22382 3.8879 8.39964 3.71209C8.57546 3.53627 8.81391 3.4375 9.06255 3.4375C9.72559 3.4375 10.3615 3.70089 10.8303 4.16973C11.2992 4.63857 11.5626 5.27446 11.5626 5.9375C11.5626 6.60054 11.2992 7.23643 10.8303 7.70527C10.3615 8.17411 9.72559 8.4375 9.06255 8.4375C8.90317 8.43753 8.74641 8.39693 8.60708 8.31953L5.58677 6.64062C4.99738 6.78323 4.46987 7.1125 4.08288 7.57935C3.69589 8.04621 3.47015 8.62563 3.43931 9.23124C3.40848 9.83685 3.5742 10.4362 3.91178 10.9399C4.24935 11.4437 4.7407 11.8248 5.31255 12.0266V9.6875C5.31255 9.43886 5.41132 9.2004 5.58714 9.02459C5.76296 8.84877 6.00141 8.75 6.25005 8.75C6.49869 8.75 6.73715 8.84877 6.91297 9.02459C7.08878 9.2004 7.18755 9.43886 7.18755 9.6875V12.0242C7.58361 11.8852 7.94354 11.6594 8.24095 11.3632C8.53836 11.067 8.7657 10.708 8.9063 10.3125C8.94734 10.1964 9.01084 10.0895 9.09318 9.998C9.17552 9.90646 9.27508 9.83203 9.38619 9.77896C9.49729 9.72589 9.61776 9.69523 9.74071 9.68872C9.86367 9.68221 9.9867 9.69998 10.1028 9.74102C10.2189 9.78205 10.3257 9.84555 10.4173 9.92789C10.5088 10.0102 10.5833 10.1098 10.6363 10.2209C10.6894 10.332 10.7201 10.4525 10.7266 10.5754C10.7331 10.6984 10.7153 10.8214 10.6743 10.9375C10.3499 11.8515 9.75042 12.6427 8.95821 13.2023C8.166 13.7618 7.21995 14.0624 6.25005 14.0625ZM2.85083 6.15313C3.07177 5.92039 3.31602 5.71096 3.57974 5.52813L3.24771 5.34375C3.12167 5.38393 3.01164 5.46306 2.93344 5.56976C2.85524 5.67646 2.81292 5.80522 2.81255 5.9375C2.81287 6.01104 2.82582 6.08397 2.85083 6.15313Z" fill="#191F2E"/>
</svg>
