<svg width="20" height="20" viewBox="0 0 20 20" fill="none" xmlns="http://www.w3.org/2000/svg">
<path d="M17.0538 14.232C16.9905 14.3377 16.907 14.4298 16.808 14.5032C16.7091 14.5766 16.5966 14.6297 16.4772 14.6596C16.3577 14.6895 16.2334 14.6956 16.1116 14.6774C15.9898 14.6593 15.8727 14.6173 15.7671 14.5539L10.9374 11.6555V16.875C10.9374 17.1236 10.8386 17.3621 10.6628 17.5379C10.487 17.7137 10.2485 17.8125 9.9999 17.8125C9.75126 17.8125 9.51281 17.7137 9.33699 17.5379C9.16118 17.3621 9.0624 17.1236 9.0624 16.875V11.6555L4.23272 14.5539C4.12715 14.6173 4.01013 14.6592 3.88835 14.6773C3.76657 14.6955 3.64242 14.6894 3.52297 14.6596C3.40352 14.6297 3.29113 14.5766 3.1922 14.5033C3.09327 14.43 3.00974 14.338 2.94639 14.2324C2.81844 14.0192 2.78043 13.7639 2.84072 13.5227C2.90101 13.2814 3.05466 13.074 3.26787 12.9461L8.17803 10L3.26787 7.05391C3.05466 6.92596 2.90101 6.71856 2.84072 6.47732C2.78043 6.23609 2.81844 5.98079 2.94639 5.76758C3.07433 5.55437 3.28174 5.40072 3.52297 5.34043C3.7642 5.28014 4.01951 5.31815 4.23272 5.44609L9.0624 8.34453V3.125C9.0624 2.87636 9.16118 2.6379 9.33699 2.46209C9.51281 2.28627 9.75126 2.1875 9.9999 2.1875C10.2485 2.1875 10.487 2.28627 10.6628 2.46209C10.8386 2.6379 10.9374 2.87636 10.9374 3.125V8.34453L15.7671 5.44609C15.8727 5.38274 15.9897 5.3408 16.1115 5.32267C16.2332 5.30454 16.3574 5.31058 16.4768 5.34043C16.5963 5.37028 16.7087 5.42337 16.8076 5.49666C16.9065 5.56995 16.9901 5.66201 17.0534 5.76758C17.1168 5.87315 17.1587 5.99016 17.1768 6.11194C17.195 6.23372 17.1889 6.35788 17.1591 6.47732C17.1292 6.59677 17.0761 6.70917 17.0029 6.8081C16.9296 6.90703 16.8375 6.99055 16.7319 7.05391L11.8218 10L16.7319 12.9461C16.9451 13.074 17.0988 13.2813 17.1591 13.5224C17.2195 13.7636 17.1816 14.0188 17.0538 14.232Z" fill="#191F2E"/>
</svg>
