<svg width="20" height="20" viewBox="0 0 20 20" fill="none" xmlns="http://www.w3.org/2000/svg">
<path d="M16.4844 8.08047L11.0055 10.268L14.8703 15.2375C14.9221 15.3022 14.9605 15.3765 14.9833 15.4561C15.006 15.5357 15.0128 15.6191 15.0031 15.7013C14.9934 15.7835 14.9674 15.863 14.9267 15.9352C14.886 16.0073 14.8314 16.0706 14.766 16.1214C14.7006 16.1723 14.6258 16.2096 14.5459 16.2313C14.4659 16.2529 14.3825 16.2585 14.3004 16.2476C14.2183 16.2368 14.1392 16.2097 14.0676 16.168C13.9961 16.1263 13.9335 16.0708 13.8836 16.0047L10 11.0156L6.11877 16.0086C6.01615 16.1368 5.86717 16.2195 5.70407 16.2387C5.54097 16.258 5.37684 16.2123 5.24718 16.1115C5.11752 16.0107 5.03276 15.8629 5.01121 15.7C4.98967 15.5372 5.03308 15.3725 5.13205 15.2414L8.9969 10.2719L3.51565 8.08047C3.3617 8.01831 3.23875 7.89754 3.17384 7.74473C3.10894 7.59191 3.10739 7.41957 3.16955 7.26562C3.23171 7.11168 3.35248 6.98872 3.5053 6.92382C3.65811 6.85891 3.83045 6.85737 3.9844 6.91953L9.37502 9.07656V3.125C9.37502 2.95924 9.44087 2.80027 9.55808 2.68306C9.67529 2.56585 9.83426 2.5 10 2.5C10.1658 2.5 10.3248 2.56585 10.442 2.68306C10.5592 2.80027 10.625 2.95924 10.625 3.125V9.07656L16.0156 6.91953C16.0919 6.88875 16.1734 6.87329 16.2556 6.87403C16.3378 6.87476 16.4191 6.89168 16.4947 6.92382C16.5704 6.95596 16.639 7.00268 16.6966 7.06133C16.7542 7.11998 16.7997 7.1894 16.8305 7.26562C16.8613 7.34185 16.8767 7.4234 16.876 7.5056C16.8753 7.58781 16.8583 7.66906 16.8262 7.74473C16.7941 7.82039 16.7473 7.88899 16.6887 7.94659C16.63 8.0042 16.5606 8.04969 16.4844 8.08047Z" fill="#191F2E"/>
</svg>
