<svg width="20" height="20" viewBox="0 0 20 20" fill="none" xmlns="http://www.w3.org/2000/svg">
<path d="M10 1.875C8.39303 1.875 6.82214 2.35152 5.486 3.24431C4.14985 4.1371 3.10844 5.40605 2.49348 6.8907C1.87852 8.37535 1.71762 10.009 2.03112 11.5851C2.34463 13.1612 3.11846 14.6089 4.25476 15.7452C5.39106 16.8815 6.8388 17.6554 8.4149 17.9689C9.99099 18.2824 11.6247 18.1215 13.1093 17.5065C14.594 16.8916 15.8629 15.8502 16.7557 14.514C17.6485 13.1779 18.125 11.607 18.125 10C18.1227 7.84581 17.266 5.78051 15.7427 4.25727C14.2195 2.73403 12.1542 1.87727 10 1.875ZM15.0094 12.2766C15.1515 12.3619 15.2539 12.5003 15.2941 12.6611C15.3342 12.822 15.3088 12.9922 15.2234 13.1344C15.1381 13.2765 14.9997 13.3789 14.8389 13.4191C14.678 13.4592 14.5078 13.4338 14.3656 13.3484L10.625 11.1039V15.1562C10.625 15.322 10.5592 15.481 10.4419 15.5982C10.3247 15.7154 10.1658 15.7812 10 15.7812C9.83424 15.7812 9.67527 15.7154 9.55806 15.5982C9.44085 15.481 9.375 15.322 9.375 15.1562V11.1039L5.63438 13.3484C5.49224 13.4338 5.32201 13.4592 5.16114 13.4191C5.00027 13.3789 4.86193 13.2765 4.77657 13.1344C4.6912 12.9922 4.66579 12.822 4.70594 12.6611C4.74608 12.5003 4.84849 12.3619 4.99063 12.2766L8.78516 10L4.99063 7.72344C4.84849 7.63807 4.74608 7.49974 4.70594 7.33886C4.66579 7.17799 4.6912 7.00776 4.77657 6.86562C4.86193 6.72349 5.00027 6.62108 5.16114 6.58094C5.32201 6.54079 5.49224 6.5662 5.63438 6.65156L9.375 8.89609V4.84375C9.375 4.67799 9.44085 4.51902 9.55806 4.40181C9.67527 4.2846 9.83424 4.21875 10 4.21875C10.1658 4.21875 10.3247 4.2846 10.4419 4.40181C10.5592 4.51902 10.625 4.67799 10.625 4.84375V8.89609L14.3656 6.65156C14.436 6.60929 14.514 6.5813 14.5952 6.56918C14.6764 6.55706 14.7592 6.56106 14.8389 6.58094C14.9185 6.60081 14.9935 6.63618 15.0595 6.68503C15.1255 6.73388 15.1812 6.79524 15.2234 6.86562C15.2657 6.93601 15.2937 7.01402 15.3058 7.09522C15.3179 7.17642 15.3139 7.25921 15.2941 7.33886C15.2742 7.41852 15.2388 7.49348 15.19 7.55947C15.1411 7.62545 15.0798 7.68117 15.0094 7.72344L11.2148 10L15.0094 12.2766Z" fill="#191F2E"/>
</svg>
