<svg width="20" height="20" viewBox="0 0 20 20" fill="none" xmlns="http://www.w3.org/2000/svg">
<path d="M16.7859 14.0719C16.7436 14.1425 16.6878 14.204 16.6217 14.253C16.5556 14.302 16.4805 14.3375 16.4006 14.3574C16.3208 14.3773 16.2378 14.3812 16.1564 14.3689C16.0751 14.3567 15.9969 14.3285 15.9265 14.2859L10.6249 11.1039V16.875C10.6249 17.0408 10.5591 17.1997 10.4419 17.3169C10.3246 17.4342 10.1657 17.5 9.99991 17.5C9.83415 17.5 9.67518 17.4342 9.55797 17.3169C9.44076 17.1997 9.37491 17.0408 9.37491 16.875V11.1039L4.07179 14.2859C4.00138 14.3292 3.92309 14.3581 3.84146 14.3709C3.75982 14.3837 3.67646 14.3801 3.59619 14.3605C3.51592 14.3409 3.44034 14.3055 3.37382 14.2565C3.3073 14.2075 3.25117 14.1458 3.20866 14.0749C3.16615 14.004 3.13812 13.9255 3.12618 13.8437C3.11425 13.7619 3.11864 13.6786 3.13912 13.5985C3.15959 13.5185 3.19574 13.4433 3.24546 13.3773C3.29519 13.3113 3.35751 13.2558 3.42882 13.2141L8.78507 10L3.42882 6.78594C3.35751 6.74418 3.29519 6.6887 3.24546 6.62271C3.19574 6.55671 3.15959 6.48151 3.13912 6.40145C3.11864 6.3214 3.11425 6.23808 3.12618 6.15631C3.13812 6.07454 3.16615 5.99595 3.20866 5.92509C3.25117 5.85423 3.3073 5.7925 3.37382 5.74348C3.44034 5.69445 3.51592 5.6591 3.59619 5.63948C3.67646 5.61985 3.75982 5.61634 3.84146 5.62914C3.92309 5.64194 4.00138 5.67081 4.07179 5.71406L9.37491 8.89609V3.125C9.37491 2.95924 9.44076 2.80027 9.55797 2.68306C9.67518 2.56585 9.83415 2.5 9.99991 2.5C10.1657 2.5 10.3246 2.56585 10.4419 2.68306C10.5591 2.80027 10.6249 2.95924 10.6249 3.125V8.89609L15.928 5.71406C15.9984 5.67081 16.0767 5.64194 16.1584 5.62914C16.24 5.61634 16.3234 5.61985 16.4036 5.63948C16.4839 5.6591 16.5595 5.69445 16.626 5.74348C16.6925 5.7925 16.7487 5.85423 16.7912 5.92509C16.8337 5.99595 16.8617 6.07454 16.8736 6.15631C16.8856 6.23808 16.8812 6.3214 16.8607 6.40145C16.8402 6.48151 16.8041 6.55671 16.7544 6.62271C16.7046 6.6887 16.6423 6.74418 16.571 6.78594L11.2148 10L16.571 13.2141C16.6415 13.2563 16.7029 13.3119 16.7519 13.3779C16.8008 13.4438 16.8363 13.5188 16.8562 13.5984C16.8762 13.6781 16.8802 13.7609 16.8681 13.8422C16.8561 13.9234 16.8281 14.0015 16.7859 14.0719Z" fill="#191F2E"/>
</svg>
