<svg width="20" height="20" viewBox="0 0 20 20" fill="none" xmlns="http://www.w3.org/2000/svg">
<path d="M16.5977 8.37031L11.5047 10.4078L15.1149 15.0492C15.191 15.1463 15.2473 15.2575 15.2804 15.3764C15.3135 15.4953 15.3228 15.6196 15.3078 15.7421C15.2927 15.8646 15.2537 15.9829 15.1928 16.0903C15.1319 16.1976 15.0504 16.2919 14.953 16.3677C14.8556 16.4435 14.7442 16.4994 14.6252 16.532C14.5062 16.5647 14.3819 16.5735 14.2594 16.558C14.137 16.5424 14.0188 16.5029 13.9117 16.4416C13.8046 16.3803 13.7106 16.2985 13.6352 16.2008L10 11.5273L6.36485 16.2008C6.21177 16.3959 5.98761 16.5224 5.74145 16.5526C5.4953 16.5828 5.2472 16.5143 5.05148 16.362C4.85576 16.2096 4.72837 15.986 4.6972 15.7399C4.66603 15.4939 4.73362 15.2455 4.88517 15.0492L8.49532 10.4078L3.40235 8.37031C3.28576 8.32627 3.17912 8.25942 3.08867 8.17368C2.99822 8.08793 2.92577 7.98502 2.87557 7.87094C2.82536 7.75687 2.79841 7.63393 2.79628 7.50931C2.79415 7.3847 2.81689 7.26091 2.86317 7.14519C2.90945 7.02946 2.97834 6.92413 3.06581 6.83535C3.15328 6.74656 3.25757 6.67611 3.37259 6.62811C3.48761 6.58011 3.61104 6.55553 3.73568 6.5558C3.86031 6.55607 3.98364 6.58119 4.09845 6.62969L9.06251 8.61562V3.125C9.06251 2.87636 9.16128 2.6379 9.3371 2.46209C9.51291 2.28627 9.75137 2.1875 10 2.1875C10.2487 2.1875 10.4871 2.28627 10.6629 2.46209C10.8387 2.6379 10.9375 2.87636 10.9375 3.125V8.61562L15.9016 6.62969C16.0164 6.58119 16.1397 6.55607 16.2643 6.5558C16.389 6.55553 16.5124 6.58011 16.6274 6.62811C16.7425 6.67611 16.8467 6.74656 16.9342 6.83535C17.0217 6.92413 17.0906 7.02946 17.1369 7.14519C17.1831 7.26091 17.2059 7.3847 17.2037 7.50931C17.2016 7.63393 17.1747 7.75687 17.1245 7.87094C17.0742 7.98502 17.0018 8.08793 16.9114 8.17368C16.8209 8.25942 16.7143 8.32627 16.5977 8.37031Z" fill="#191F2E"/>
</svg>
