<svg width="20" height="20" viewBox="0 0 20 20" fill="none" xmlns="http://www.w3.org/2000/svg">
<path d="M10 1.875C8.39303 1.875 6.82214 2.35152 5.486 3.24431C4.14985 4.1371 3.10844 5.40605 2.49348 6.8907C1.87852 8.37535 1.71762 10.009 2.03112 11.5851C2.34463 13.1612 3.11846 14.6089 4.25476 15.7452C5.39106 16.8815 6.8388 17.6554 8.4149 17.9689C9.99099 18.2824 11.6247 18.1215 13.1093 17.5065C14.594 16.8916 15.8629 15.8502 16.7557 14.514C17.6485 13.1779 18.125 11.607 18.125 10C18.1227 7.84581 17.266 5.78051 15.7427 4.25727C14.2195 2.73403 12.1542 1.87727 10 1.875ZM14.6211 8.69922L11.0156 10.2437L13.6039 13.35C13.71 13.4774 13.7611 13.6418 13.746 13.8069C13.7309 13.972 13.6509 14.1244 13.5234 14.2305C13.396 14.3366 13.2317 14.3877 13.0665 14.3726C12.9014 14.3575 12.7491 14.2774 12.643 14.15L10 10.9766L7.35547 14.15C7.24939 14.2774 7.09702 14.3575 6.9319 14.3726C6.76678 14.3877 6.60243 14.3366 6.475 14.2305C6.34758 14.1244 6.26751 13.972 6.25242 13.8069C6.23733 13.6418 6.28845 13.4774 6.39453 13.35L8.98438 10.2437L5.37891 8.69922C5.30112 8.66855 5.23028 8.62258 5.17057 8.56403C5.11087 8.50549 5.06352 8.43556 5.03133 8.35838C4.99914 8.28121 4.98276 8.19836 4.98317 8.11474C4.98358 8.03113 5.00076 7.94844 5.0337 7.87158C5.06664 7.79473 5.11466 7.72526 5.17493 7.6673C5.2352 7.60934 5.30649 7.56406 5.38458 7.53414C5.46266 7.50423 5.54595 7.49029 5.62952 7.49315C5.71309 7.49601 5.79524 7.5156 5.8711 7.55078L9.375 9.05234V5.46875C9.375 5.30299 9.44085 5.14402 9.55806 5.02681C9.67527 4.9096 9.83424 4.84375 10 4.84375C10.1658 4.84375 10.3247 4.9096 10.4419 5.02681C10.5592 5.14402 10.625 5.30299 10.625 5.46875V9.05234L14.1289 7.55078C14.2048 7.5156 14.2869 7.49601 14.3705 7.49315C14.4541 7.49029 14.5373 7.50423 14.6154 7.53414C14.6935 7.56406 14.7648 7.60934 14.8251 7.6673C14.8853 7.72526 14.9334 7.79473 14.9663 7.87158C14.9992 7.94844 15.0164 8.03113 15.0168 8.11474C15.0172 8.19836 15.0009 8.28121 14.9687 8.35838C14.9365 8.43556 14.8891 8.50549 14.8294 8.56403C14.7697 8.62258 14.6989 8.66855 14.6211 8.69922Z" fill="#191F2E"/>
</svg>
