<svg width="20" height="20" viewBox="0 0 20 20" fill="none" xmlns="http://www.w3.org/2000/svg">
<path d="M17.1273 12.4376C16.7341 11.5838 16.2634 10.7679 15.7211 10.0001C16.2634 9.23233 16.7341 8.41641 17.1273 7.5626C18.0523 5.50713 18.0406 3.85323 17.0937 2.90635C16.1469 1.95948 14.4929 1.94776 12.4375 2.87276C11.5837 3.26596 10.7678 3.73668 9.99998 4.27901C9.23221 3.73668 8.41629 3.26596 7.56248 2.87276C5.50701 1.94776 3.85311 1.95948 2.90623 2.90635C1.95936 3.85323 1.94764 5.50713 2.87264 7.5626C3.26584 8.41641 3.73656 9.23233 4.27889 10.0001C3.73656 10.7679 3.26584 11.5838 2.87264 12.4376C1.94764 14.4931 1.95936 16.147 2.90623 17.0939C3.38514 17.5728 4.04529 17.8126 4.84373 17.8126C5.62498 17.8126 6.54451 17.5845 7.55936 17.1274C8.41316 16.7342 9.22908 16.2635 9.99686 15.7212C10.7646 16.2635 11.5805 16.7342 12.4344 17.1274C13.45 17.5845 14.3672 17.8126 15.15 17.8126C15.9515 17.8126 16.6117 17.5728 17.0906 17.0939C18.0406 16.147 18.0523 14.4931 17.1273 12.4376ZM15.7672 4.23448C16.1773 4.64542 15.907 6.26573 14.5172 8.43604C14.0789 7.91573 13.607 7.40088 13.1054 6.89932C12.6039 6.39776 12.0859 5.92432 11.5625 5.48604C13.7359 4.09307 15.3562 3.82276 15.7672 4.23292V4.23448ZM13.3781 10.0001C12.8758 10.62 12.3409 11.2127 11.7758 11.7759C11.2126 12.341 10.6198 12.8759 9.99998 13.3782C9.38012 12.8759 8.78736 12.341 8.2242 11.7759C7.65904 11.2127 7.12418 10.62 6.62186 10.0001C7.6293 8.7614 8.76128 7.62943 9.99998 6.62198C10.62 7.1241 11.2128 7.65897 11.7758 8.22432C12.3411 8.7873 12.876 9.38007 13.3781 10.0001ZM4.23279 4.23292C4.34686 4.11963 4.55311 4.05792 4.83826 4.05792C5.58279 4.05792 6.86482 4.47901 8.43201 5.48604C7.9117 5.92432 7.39686 6.3962 6.89529 6.89776C6.39373 7.39932 5.9242 7.91417 5.48592 8.4376C4.09295 6.26416 3.82264 4.64385 4.23279 4.23292ZM4.23279 15.7673C3.82264 15.3564 4.09295 13.736 5.48279 11.5657C5.92107 12.086 6.39295 12.6009 6.89451 13.1024C7.39607 13.604 7.91014 14.0759 8.43123 14.5142C6.26404 15.9071 4.64373 16.1774 4.23279 15.7673ZM15.7672 15.7673C15.3562 16.1774 13.7359 15.9071 11.5656 14.5173C12.0859 14.079 12.6008 13.6071 13.1023 13.1056C13.6039 12.604 14.0758 12.0899 14.514 11.5689C15.907 13.736 16.1773 15.3564 15.7672 15.7673ZM11.25 10.0001C11.25 10.2473 11.1767 10.489 11.0393 10.6946C10.902 10.9001 10.7067 11.0603 10.4783 11.155C10.2499 11.2496 9.99859 11.2743 9.75612 11.2261C9.51364 11.1779 9.29091 11.0588 9.1161 10.884C8.94128 10.7092 8.82223 10.4864 8.774 10.244C8.72577 10.0015 8.75052 9.75016 8.84513 9.52175C8.93974 9.29334 9.09996 9.09812 9.30552 8.96077C9.51108 8.82341 9.75275 8.7501 9.99998 8.7501C10.3315 8.7501 10.6494 8.8818 10.8839 9.11622C11.1183 9.35064 11.25 9.66858 11.25 10.0001Z" fill="#191F2E"/>
</svg>
