<svg width="20" height="20" viewBox="0 0 20 20" fill="none" xmlns="http://www.w3.org/2000/svg">
<path d="M7.1875 11.25C6.94028 11.25 6.6986 11.1767 6.49304 11.0393C6.28748 10.902 6.12726 10.7068 6.03265 10.4784C5.93805 10.2499 5.91329 9.99861 5.96152 9.75614C6.00975 9.51366 6.12881 9.29093 6.30362 9.11612C6.47844 8.9413 6.70116 8.82225 6.94364 8.77402C7.18612 8.72579 7.43745 8.75054 7.66586 8.84515C7.89427 8.93976 8.08949 9.09998 8.22684 9.30554C8.36419 9.5111 8.4375 9.75277 8.4375 10C8.4375 10.3315 8.30581 10.6495 8.07139 10.8839C7.83697 11.1183 7.51902 11.25 7.1875 11.25ZM12.8125 8.75C12.5653 8.75 12.3236 8.82331 12.118 8.96066C11.9125 9.09801 11.7523 9.29324 11.6577 9.52165C11.563 9.75005 11.5383 10.0014 11.5865 10.2439C11.6348 10.4863 11.7538 10.7091 11.9286 10.8839C12.1034 11.0587 12.3262 11.1778 12.5686 11.226C12.8111 11.2742 13.0625 11.2495 13.2909 11.1549C13.5193 11.0602 13.7145 10.9 13.8518 10.6945C13.9892 10.4889 14.0625 10.2472 14.0625 10C14.0625 9.66848 13.9308 9.35054 13.6964 9.11612C13.462 8.8817 13.144 8.75 12.8125 8.75ZM11.6875 12.6445C11.1807 12.9587 10.5963 13.1251 10 13.1251C9.40374 13.1251 8.81931 12.9587 8.3125 12.6445C8.20836 12.5773 8.09191 12.5313 7.96989 12.5093C7.84787 12.4874 7.7227 12.4898 7.60163 12.5165C7.48056 12.5433 7.366 12.5937 7.26457 12.6651C7.16315 12.7364 7.07687 12.8271 7.01074 12.932C6.94462 13.0368 6.89995 13.1538 6.87932 13.276C6.8587 13.3983 6.86253 13.5234 6.89059 13.6442C6.91866 13.765 6.9704 13.879 7.04282 13.9796C7.11524 14.0802 7.2069 14.1655 7.3125 14.2305C8.11871 14.7333 9.04983 14.9999 10 14.9999C10.9502 14.9999 11.8813 14.7333 12.6875 14.2305C12.7931 14.1655 12.8848 14.0802 12.9572 13.9796C13.0296 13.879 13.0813 13.765 13.1094 13.6442C13.1375 13.5234 13.1413 13.3983 13.1207 13.276C13.1001 13.1538 13.0554 13.0368 12.9893 12.932C12.9231 12.8271 12.8369 12.7364 12.7354 12.6651C12.634 12.5937 12.5194 12.5433 12.3984 12.5165C12.2773 12.4898 12.1521 12.4874 12.0301 12.5093C11.9081 12.5313 11.7916 12.5773 11.6875 12.6445ZM18.4375 10C18.4375 11.6688 17.9427 13.3001 17.0155 14.6876C16.0884 16.0752 14.7706 17.1566 13.2289 17.7952C11.6871 18.4338 9.99064 18.6009 8.35393 18.2754C6.71721 17.9498 5.2138 17.1462 4.03379 15.9662C2.85379 14.7862 2.05019 13.2828 1.72463 11.6461C1.39907 10.0094 1.56616 8.31286 2.20477 6.77111C2.84338 5.22936 3.92484 3.9116 5.31238 2.98448C6.69992 2.05735 8.33122 1.5625 10 1.5625C12.237 1.56498 14.3817 2.45473 15.9635 4.03653C17.5453 5.61833 18.435 7.763 18.4375 10ZM16.5625 10C16.5602 8.3404 15.93 6.74314 14.7985 5.52911C13.6669 4.31509 12.1178 3.57426 10.4625 3.45547C9.73516 4.55625 9.68985 5.56484 9.6875 5.62969C9.68813 5.71257 9.72165 5.79181 9.78069 5.84997C9.83974 5.90814 9.91947 5.94047 10.0023 5.93984C10.0852 5.93922 10.1645 5.9057 10.2226 5.84666C10.2808 5.78761 10.3131 5.70788 10.3125 5.625C10.3125 5.37636 10.4113 5.1379 10.5871 4.96209C10.7629 4.78627 11.0014 4.6875 11.25 4.6875C11.4986 4.6875 11.7371 4.78627 11.9129 4.96209C12.0887 5.1379 12.1875 5.37636 12.1875 5.625C12.1875 6.20516 11.957 6.76156 11.5468 7.1718C11.1366 7.58203 10.5802 7.8125 10 7.8125C9.41984 7.8125 8.86344 7.58203 8.45321 7.1718C8.04297 6.76156 7.8125 6.20516 7.8125 5.625C7.8125 5.57422 7.82032 4.75078 8.24375 3.67813C7.06596 4.00526 6.00295 4.65484 5.17451 5.55367C4.34607 6.4525 3.78514 7.56484 3.55493 8.76535C3.32472 9.96585 3.43439 11.2068 3.87157 12.3483C4.30875 13.4898 5.05606 14.4866 6.02929 15.2262C7.00253 15.9658 8.16298 16.4189 9.37989 16.5344C10.5968 16.6499 11.8218 16.4232 12.9168 15.8799C14.0118 15.3366 14.9333 14.4983 15.5774 13.4594C16.2216 12.4205 16.5627 11.2224 16.5625 10Z" fill="#191F2E"/>
</svg>
