<svg width="20" height="20" viewBox="0 0 20 20" fill="none" xmlns="http://www.w3.org/2000/svg">
<path d="M10.4813 1.88275C10.4266 1.87989 10.3721 1.89144 10.3233 1.91626C10.2745 1.94108 10.2331 1.97829 10.2032 2.02416C9.3985 3.24056 9.37506 4.35853 9.37506 4.37494C9.37543 4.46795 9.39655 4.5597 9.43688 4.64351C9.47722 4.72732 9.53575 4.80107 9.60821 4.85938C9.68067 4.9177 9.76523 4.9591 9.85573 4.98058C9.94622 5.00206 10.0404 5.00307 10.1313 4.98353C10.2732 4.94954 10.3994 4.86832 10.4891 4.75319C10.5788 4.63807 10.6268 4.49588 10.6251 4.34994C10.628 4.26445 10.6486 4.18049 10.6853 4.10324C10.7221 4.026 10.7743 3.95712 10.8387 3.90088C10.9032 3.84463 10.9785 3.80221 11.06 3.77625C11.1415 3.75029 11.2275 3.74133 11.3126 3.74994C11.4694 3.76815 11.6139 3.84406 11.7178 3.96291C11.8218 4.08175 11.8779 4.23503 11.8751 4.39291C11.8723 4.89019 11.672 5.36599 11.3184 5.71564C10.9648 6.0653 10.4868 6.26016 9.98951 6.25736C9.49223 6.25456 9.01643 6.05434 8.66678 5.70073C8.31712 5.34712 8.12226 4.8691 8.12506 4.37181C8.12506 4.3226 8.13209 3.52963 8.55006 2.49681C8.57123 2.44396 8.57756 2.38633 8.56836 2.33015C8.55917 2.27396 8.5348 2.22136 8.49788 2.17801C8.46097 2.13467 8.41292 2.10223 8.35892 2.0842C8.30491 2.06617 8.24701 2.06324 8.19146 2.07572C6.34995 2.49872 4.71303 3.54937 3.56152 5.04741C2.41002 6.54545 1.8157 8.39752 1.88053 10.2859C2.03131 14.5874 5.5649 18.0468 9.86881 18.1171C11.9919 18.1496 14.0434 17.3497 15.5842 15.8886C17.1249 14.4275 18.0324 12.4213 18.1125 10.2994C18.1925 8.17754 17.4387 6.10865 16.0125 4.53558C14.5862 2.96252 12.6009 2.0103 10.4813 1.88275ZM6.25006 9.99291C6.25006 9.80749 6.30504 9.62623 6.40806 9.47206C6.51107 9.31789 6.65749 9.19773 6.82879 9.12677C7.0001 9.05581 7.1886 9.03725 7.37046 9.07342C7.55231 9.10959 7.71936 9.19888 7.85047 9.32999C7.98158 9.46111 8.07087 9.62815 8.10704 9.81001C8.14322 9.99187 8.12465 10.1804 8.0537 10.3517C7.98274 10.523 7.86258 10.6694 7.70841 10.7724C7.55423 10.8754 7.37298 10.9304 7.18756 10.9304C6.93892 10.9304 6.70046 10.8316 6.52465 10.6558C6.34883 10.48 6.25006 10.2415 6.25006 9.99291ZM12.5212 14.2718C11.7648 14.7433 10.8914 14.9933 10.0001 14.9933C9.10876 14.9933 8.23533 14.7433 7.47896 14.2718C7.33869 14.1833 7.23931 14.0428 7.20268 13.881C7.16605 13.7193 7.19518 13.5496 7.28365 13.4093C7.37213 13.269 7.5127 13.1697 7.67445 13.133C7.8362 13.0964 8.00588 13.1255 8.14615 13.214C8.7028 13.5595 9.34491 13.7425 10.0001 13.7425C10.6552 13.7425 11.2973 13.5595 11.854 13.214C11.9234 13.1702 12.0008 13.1405 12.0818 13.1266C12.1627 13.1127 12.2456 13.1149 12.3257 13.133C12.4058 13.1512 12.4815 13.1849 12.5485 13.2323C12.6156 13.2797 12.6727 13.3399 12.7165 13.4093C12.7603 13.4788 12.79 13.5562 12.8039 13.6371C12.8178 13.718 12.8156 13.8009 12.7974 13.881C12.7793 13.9611 12.7456 14.0368 12.6982 14.1039C12.6508 14.1709 12.5906 14.228 12.5212 14.2718ZM12.8126 10.9304C12.6271 10.9304 12.4459 10.8754 12.2917 10.7724C12.1375 10.6694 12.0174 10.523 11.9464 10.3517C11.8755 10.1804 11.8569 9.99187 11.8931 9.81001C11.9292 9.62815 12.0185 9.46111 12.1496 9.32999C12.2808 9.19888 12.4478 9.10959 12.6297 9.07342C12.8115 9.03725 13 9.05581 13.1713 9.12677C13.3426 9.19773 13.489 9.31789 13.5921 9.47206C13.6951 9.62623 13.7501 9.80749 13.7501 9.99291C13.7501 10.2415 13.6513 10.48 13.4755 10.6558C13.2997 10.8316 13.0612 10.9304 12.8126 10.9304Z" fill="#191F2E"/>
</svg>
