<svg width="20" height="20" viewBox="0 0 20 20" fill="none" xmlns="http://www.w3.org/2000/svg">
<path d="M7.1875 10.9375C7.00208 10.9375 6.82083 10.8825 6.66666 10.7795C6.51249 10.6765 6.39232 10.5301 6.32137 10.3588C6.25041 10.1875 6.23184 9.99896 6.26802 9.8171C6.30419 9.63525 6.39348 9.4682 6.52459 9.33709C6.6557 9.20598 6.82275 9.11669 7.00461 9.08051C7.18646 9.04434 7.37496 9.06291 7.54627 9.13386C7.71758 9.20482 7.86399 9.32498 7.96701 9.47915C8.07002 9.63332 8.125 9.81458 8.125 10C8.125 10.2486 8.02623 10.4871 7.85042 10.6629C7.6746 10.8387 7.43614 10.9375 7.1875 10.9375ZM12.8125 9.0625C12.6271 9.0625 12.4458 9.11748 12.2917 9.2205C12.1375 9.32351 12.0173 9.46993 11.9464 9.64123C11.8754 9.81254 11.8568 10.001 11.893 10.1829C11.9292 10.3648 12.0185 10.5318 12.1496 10.6629C12.2807 10.794 12.4477 10.8833 12.6296 10.9195C12.8115 10.9557 13 10.9371 13.1713 10.8661C13.3426 10.7952 13.489 10.675 13.592 10.5208C13.695 10.3667 13.75 10.1854 13.75 10C13.75 9.75136 13.6512 9.5129 13.4754 9.33709C13.2996 9.16127 13.0611 9.0625 12.8125 9.0625ZM11.8539 12.5961C11.2973 12.9416 10.6551 13.1246 10 13.1246C9.34486 13.1246 8.70275 12.9416 8.1461 12.5961C8.00582 12.5076 7.83615 12.4785 7.6744 12.5151C7.51265 12.5517 7.37207 12.6511 7.2836 12.7914C7.19512 12.9317 7.166 13.1014 7.20262 13.2631C7.23925 13.4249 7.33864 13.5654 7.47891 13.6539C8.23527 14.1254 9.10871 14.3754 10 14.3754C10.8913 14.3754 11.7647 14.1254 12.5211 13.6539C12.6614 13.5654 12.7608 13.4249 12.7974 13.2631C12.834 13.1014 12.8049 12.9317 12.7164 12.7914C12.6279 12.6511 12.4874 12.5517 12.3256 12.5151C12.1639 12.4785 11.9942 12.5076 11.8539 12.5961ZM18.125 10C18.125 11.607 17.6485 13.1779 16.7557 14.514C15.8629 15.8502 14.594 16.8916 13.1093 17.5065C11.6247 18.1215 9.99099 18.2824 8.4149 17.9689C6.8388 17.6554 5.39106 16.8815 4.25476 15.7452C3.11846 14.6089 2.34463 13.1612 2.03112 11.5851C1.71762 10.009 1.87852 8.37535 2.49348 6.8907C3.10844 5.40605 4.14985 4.1371 5.486 3.24431C6.82214 2.35152 8.39303 1.875 10 1.875C12.1542 1.87727 14.2195 2.73403 15.7427 4.25727C17.266 5.78051 18.1227 7.84581 18.125 10ZM16.875 10C16.8728 8.23019 16.1891 6.52922 14.9657 5.2503C13.7424 3.97137 12.0734 3.21278 10.3055 3.13203C9.4 4.40469 9.375 5.61562 9.375 5.625C9.375 5.79076 9.44085 5.94973 9.55806 6.06694C9.67527 6.18415 9.83424 6.25 10 6.25C10.1658 6.25 10.3247 6.18415 10.4419 6.06694C10.5592 5.94973 10.625 5.79076 10.625 5.625C10.625 5.45924 10.6909 5.30027 10.8081 5.18306C10.9253 5.06585 11.0842 5 11.25 5C11.4158 5 11.5747 5.06585 11.6919 5.18306C11.8092 5.30027 11.875 5.45924 11.875 5.625C11.875 6.12228 11.6775 6.59919 11.3258 6.95083C10.9742 7.30246 10.4973 7.5 10 7.5C9.50272 7.5 9.02581 7.30246 8.67418 6.95083C8.32255 6.59919 8.125 6.12228 8.125 5.625C8.125 5.56797 8.13516 4.50781 8.78594 3.23203C7.49872 3.46297 6.30407 4.05626 5.34217 4.94228C4.38028 5.8283 3.69105 6.97029 3.35536 8.23425C3.01967 9.49821 3.05144 10.8317 3.44696 12.0782C3.84247 13.3248 4.58532 14.4326 5.58833 15.2718C6.59133 16.111 7.81289 16.6467 9.10965 16.8161C10.4064 16.9855 11.7246 16.7814 12.9095 16.228C14.0944 15.6746 15.0968 14.7946 15.7992 13.6915C16.5016 12.5884 16.8748 11.3078 16.875 10Z" fill="#191F2E"/>
</svg>
