<svg width="20" height="20" viewBox="0 0 20 20" fill="none" xmlns="http://www.w3.org/2000/svg">
<path d="M16.875 3.125H5.35392C5.13822 3.12592 4.92638 3.18223 4.7387 3.28852C4.55101 3.39481 4.39377 3.54753 4.28204 3.73203L0.714073 9.67812C0.655671 9.77533 0.624817 9.8866 0.624817 10C0.624817 10.1134 0.655671 10.2247 0.714073 10.3219L4.28204 16.268C4.39371 16.4525 4.55094 16.6053 4.73864 16.7116C4.92634 16.8179 5.13821 16.8742 5.35392 16.875H16.875C17.2065 16.875 17.5245 16.7433 17.7589 16.5089C17.9933 16.2745 18.125 15.9565 18.125 15.625V4.375C18.125 4.04348 17.9933 3.72554 17.7589 3.49112C17.5245 3.2567 17.2065 3.125 16.875 3.125ZM12.9422 11.4328C13.0003 11.4909 13.0463 11.5598 13.0778 11.6357C13.1092 11.7116 13.1254 11.7929 13.1254 11.875C13.1254 11.9571 13.1092 12.0384 13.0778 12.1143C13.0463 12.1902 13.0003 12.2591 12.9422 12.3172C12.8841 12.3753 12.8152 12.4213 12.7393 12.4527C12.6634 12.4842 12.5821 12.5003 12.5 12.5003C12.4179 12.5003 12.3366 12.4842 12.2607 12.4527C12.1848 12.4213 12.1159 12.3753 12.0578 12.3172L10.625 10.8836L9.19142 12.3172C9.07414 12.4344 8.91512 12.5001 8.74934 12.5001C8.58356 12.5 8.4246 12.4341 8.30743 12.3168C8.19026 12.1995 8.12448 12.0405 8.12455 11.8747C8.12462 11.7089 8.19055 11.55 8.30782 11.4328L9.74142 10L8.30782 8.56719C8.19055 8.45002 8.12462 8.29106 8.12455 8.12528C8.12451 8.04319 8.14064 7.9619 8.17202 7.88605C8.2034 7.8102 8.24941 7.74127 8.30743 7.6832C8.36545 7.62513 8.43434 7.57906 8.51016 7.54762C8.58598 7.51617 8.66726 7.49996 8.74934 7.49993C8.91512 7.49986 9.07414 7.56564 9.19142 7.68281L10.625 9.11641L12.0578 7.68281C12.1159 7.62474 12.1848 7.57868 12.2607 7.54725C12.3366 7.51583 12.4179 7.49965 12.5 7.49965C12.5821 7.49965 12.6634 7.51583 12.7393 7.54725C12.8152 7.57868 12.8841 7.62474 12.9422 7.68281C13.0003 7.74088 13.0463 7.80982 13.0778 7.88569C13.1092 7.96156 13.1254 8.04288 13.1254 8.125C13.1254 8.20712 13.1092 8.28844 13.0778 8.36431C13.0463 8.44018 13.0003 8.50912 12.9422 8.56719L11.5086 10L12.9422 11.4328Z" fill="#191F2E"/>
</svg>
