<svg width="20" height="20" viewBox="0 0 20 20" fill="none" xmlns="http://www.w3.org/2000/svg">
<path d="M16.875 3.125H5.35392C5.13816 3.12562 4.92621 3.1818 4.73847 3.28812C4.55073 3.39444 4.39354 3.54732 4.28204 3.73203L0.714073 9.67812C0.655671 9.77533 0.624817 9.8866 0.624817 10C0.624817 10.1134 0.655671 10.2247 0.714073 10.3219L4.28204 16.268C4.39354 16.4527 4.55073 16.6056 4.73847 16.7119C4.92621 16.8182 5.13816 16.8744 5.35392 16.875H16.875C17.2065 16.875 17.5245 16.7433 17.7589 16.5089C17.9933 16.2745 18.125 15.9565 18.125 15.625V4.375C18.125 4.04348 17.9933 3.72554 17.7589 3.49112C17.5245 3.2567 17.2065 3.125 16.875 3.125ZM16.875 15.625H5.35392L1.97892 10L5.35392 4.375H16.875V15.625ZM8.30782 11.4328L9.74142 10L8.30782 8.56719C8.19055 8.44991 8.12466 8.29085 8.12466 8.125C8.12466 7.95915 8.19055 7.80009 8.30782 7.68281C8.4251 7.56554 8.58416 7.49965 8.75001 7.49965C8.91586 7.49965 9.07492 7.56554 9.1922 7.68281L10.625 9.11641L12.0578 7.68281C12.1159 7.62474 12.1848 7.57868 12.2607 7.54725C12.3366 7.51583 12.4179 7.49965 12.5 7.49965C12.5821 7.49965 12.6634 7.51583 12.7393 7.54725C12.8152 7.57868 12.8841 7.62474 12.9422 7.68281C13.0003 7.74088 13.0463 7.80982 13.0778 7.88569C13.1092 7.96156 13.1254 8.04288 13.1254 8.125C13.1254 8.20712 13.1092 8.28844 13.0778 8.36431C13.0463 8.44018 13.0003 8.50912 12.9422 8.56719L11.5086 10L12.9422 11.4328C13.0003 11.4909 13.0463 11.5598 13.0778 11.6357C13.1092 11.7116 13.1254 11.7929 13.1254 11.875C13.1254 11.9571 13.1092 12.0384 13.0778 12.1143C13.0463 12.1902 13.0003 12.2591 12.9422 12.3172C12.8841 12.3753 12.8152 12.4213 12.7393 12.4527C12.6634 12.4842 12.5821 12.5003 12.5 12.5003C12.4179 12.5003 12.3366 12.4842 12.2607 12.4527C12.1848 12.4213 12.1159 12.3753 12.0578 12.3172L10.625 10.8836L9.1922 12.3172C9.13413 12.3753 9.06519 12.4213 8.98932 12.4527C8.91345 12.4842 8.83213 12.5003 8.75001 12.5003C8.66789 12.5003 8.58657 12.4842 8.5107 12.4527C8.43483 12.4213 8.36589 12.3753 8.30782 12.3172C8.24975 12.2591 8.20369 12.1902 8.17226 12.1143C8.14084 12.0384 8.12466 11.9571 8.12466 11.875C8.12466 11.7929 8.14084 11.7116 8.17226 11.6357C8.20369 11.5598 8.24975 11.4909 8.30782 11.4328Z" fill="#191F2E"/>
</svg>
