<svg width="20" height="20" viewBox="0 0 20 20" fill="none" xmlns="http://www.w3.org/2000/svg">
<path d="M16.875 4.6874H14.0492C13.9668 3.67011 13.5044 2.72113 12.7541 2.02921C12.0039 1.33729 11.0206 0.953125 10 0.953125C8.97938 0.953125 7.99615 1.33729 7.24587 2.02921C6.49559 2.72113 6.03324 3.67011 5.95078 4.6874H3.125C2.7106 4.6874 2.31317 4.85202 2.02015 5.14504C1.72712 5.43807 1.5625 5.8355 1.5625 6.2499V15.6249C1.5625 16.0393 1.72712 16.4367 2.02015 16.7298C2.31317 17.0228 2.7106 17.1874 3.125 17.1874H16.875C17.2894 17.1874 17.6868 17.0228 17.9799 16.7298C18.2729 16.4367 18.4375 16.0393 18.4375 15.6249V6.2499C18.4375 5.8355 18.2729 5.43807 17.9799 5.14504C17.6868 4.85202 17.2894 4.6874 16.875 4.6874ZM10 2.8124C10.526 2.81245 11.0343 3.00202 11.4319 3.34637C11.8295 3.69073 12.0897 4.16681 12.1648 4.6874H7.83516C7.9103 4.16681 8.1705 3.69073 8.56808 3.34637C8.96567 3.00202 9.47402 2.81245 10 2.8124ZM16.5625 15.3124H3.4375V6.5624H16.5625V15.3124Z" fill="#191F2E"/>
</svg>
