<svg width="20" height="20" viewBox="0 0 20 20" fill="none" xmlns="http://www.w3.org/2000/svg">
<path d="M16.875 5H13.75C13.75 4.00544 13.3549 3.05161 12.6517 2.34835C11.9484 1.64509 10.9946 1.25 10 1.25C9.00544 1.25 8.05161 1.64509 7.34835 2.34835C6.64509 3.05161 6.25 4.00544 6.25 5H3.125C2.79348 5 2.47554 5.1317 2.24112 5.36612C2.0067 5.60054 1.875 5.91848 1.875 6.25V15.625C1.875 15.9565 2.0067 16.2745 2.24112 16.5089C2.47554 16.7433 2.79348 16.875 3.125 16.875H16.875C17.2065 16.875 17.5245 16.7433 17.7589 16.5089C17.9933 16.2745 18.125 15.9565 18.125 15.625V6.25C18.125 5.91848 17.9933 5.60054 17.7589 5.36612C17.5245 5.1317 17.2065 5 16.875 5ZM7.5 8.125C7.5 8.29076 7.43415 8.44973 7.31694 8.56694C7.19973 8.68415 7.04076 8.75 6.875 8.75C6.70924 8.75 6.55027 8.68415 6.43306 8.56694C6.31585 8.44973 6.25 8.29076 6.25 8.125V6.875C6.25 6.70924 6.31585 6.55027 6.43306 6.43306C6.55027 6.31585 6.70924 6.25 6.875 6.25C7.04076 6.25 7.19973 6.31585 7.31694 6.43306C7.43415 6.55027 7.5 6.70924 7.5 6.875V8.125ZM10 2.5C10.663 2.5 11.2989 2.76339 11.7678 3.23223C12.2366 3.70107 12.5 4.33696 12.5 5H7.5C7.5 4.33696 7.76339 3.70107 8.23223 3.23223C8.70107 2.76339 9.33696 2.5 10 2.5ZM13.75 8.125C13.75 8.29076 13.6842 8.44973 13.5669 8.56694C13.4497 8.68415 13.2908 8.75 13.125 8.75C12.9592 8.75 12.8003 8.68415 12.6831 8.56694C12.5658 8.44973 12.5 8.29076 12.5 8.125V6.875C12.5 6.70924 12.5658 6.55027 12.6831 6.43306C12.8003 6.31585 12.9592 6.25 13.125 6.25C13.2908 6.25 13.4497 6.31585 13.5669 6.43306C13.6842 6.55027 13.75 6.70924 13.75 6.875V8.125Z" fill="#191F2E"/>
</svg>
