<svg width="20" height="20" viewBox="0 0 20 20" fill="none" xmlns="http://www.w3.org/2000/svg">
<path d="M10 1.25C8.17727 1.25207 6.42979 1.97706 5.14092 3.26592C3.85206 4.55479 3.12707 6.30227 3.125 8.125C3.125 9.95547 3.85937 11.9859 5.08828 13.5547C6.03203 14.7586 7.15859 15.5859 8.3625 15.9836L7.55078 17.8789C7.51007 17.9739 7.49357 18.0776 7.50277 18.1806C7.51196 18.2836 7.54656 18.3827 7.60347 18.469C7.66037 18.5553 7.7378 18.6262 7.82882 18.6752C7.91984 18.7243 8.02161 18.75 8.125 18.75H11.875C11.9784 18.75 12.0802 18.7243 12.1712 18.6752C12.2622 18.6262 12.3396 18.5553 12.3965 18.469C12.4534 18.3827 12.488 18.2836 12.4972 18.1806C12.5064 18.0776 12.4899 17.9739 12.4492 17.8789L11.6406 15.9836C12.8438 15.5875 13.9711 14.7586 14.9148 13.5547C16.1406 11.9859 16.875 9.95547 16.875 8.125C16.8729 6.30227 16.1479 4.55479 14.8591 3.26592C13.5702 1.97706 11.8227 1.25207 10 1.25ZM10.9273 17.5H9.07266L9.61484 16.2352C9.74297 16.2445 9.87109 16.25 10 16.25C10.1289 16.25 10.257 16.2445 10.3852 16.2352L10.9273 17.5ZM13.9273 12.7836C12.8078 14.2133 11.4133 15 10 15C8.58672 15 7.19219 14.2133 6.07266 12.7836C5.00938 11.4273 4.375 9.6875 4.375 8.125C4.375 6.63316 4.96763 5.20242 6.02252 4.14752C7.07742 3.09263 8.50816 2.5 10 2.5C11.4918 2.5 12.9226 3.09263 13.9775 4.14752C15.0324 5.20242 15.625 6.63316 15.625 8.125C15.625 9.6875 14.9906 11.4273 13.9273 12.7836ZM13.8492 8.11641C13.8164 8.12174 13.7832 8.12462 13.75 8.125C13.6023 8.12481 13.4594 8.07229 13.3467 7.97675C13.234 7.88121 13.1588 7.74884 13.1344 7.60313C13.0188 6.95276 12.7064 6.35355 12.2393 5.88647C11.7722 5.41939 11.173 5.10696 10.5227 4.99141C10.4411 4.97854 10.3629 4.94964 10.2926 4.90638C10.2223 4.86312 10.1612 4.80635 10.1129 4.73936C10.0647 4.67237 10.0302 4.59648 10.0114 4.51607C9.99266 4.43567 9.99001 4.35235 10.0036 4.27091C10.0173 4.18948 10.0469 4.11156 10.0908 4.04164C10.1347 3.97172 10.192 3.9112 10.2595 3.86356C10.3269 3.81592 10.4031 3.78212 10.4837 3.76411C10.5643 3.74609 10.6476 3.74422 10.7289 3.75859C11.635 3.91937 12.4698 4.35453 13.1205 5.00524C13.7712 5.65594 14.2064 6.49079 14.3672 7.39687C14.3807 7.47788 14.3782 7.56075 14.3596 7.64077C14.3411 7.72078 14.307 7.79635 14.2593 7.86318C14.2115 7.93 14.1511 7.98676 14.0814 8.03021C14.0117 8.07366 13.9341 8.10295 13.8531 8.11641H13.8492Z" fill="#191F2E"/>
</svg>
