<svg width="20" height="20" viewBox="0 0 20 20" fill="none" xmlns="http://www.w3.org/2000/svg">
<path d="M10 10.9375C10.5178 10.9375 10.9375 10.5178 10.9375 10C10.9375 9.48223 10.5178 9.0625 10 9.0625C9.48223 9.0625 9.0625 9.48223 9.0625 10C9.0625 10.5178 9.48223 10.9375 10 10.9375Z" fill="#191F2E"/>
<path d="M14.4195 9.99983L16.5843 7.8342C16.8828 7.54593 17.1209 7.2011 17.2846 6.81984C17.4484 6.43858 17.5346 6.02852 17.5382 5.61358C17.5418 5.19864 17.4628 4.78715 17.3056 4.4031C17.1485 4.01904 16.9165 3.67013 16.6231 3.37672C16.3296 3.0833 15.9807 2.85126 15.5967 2.69413C15.2126 2.53701 14.8011 2.45794 14.3862 2.46154C13.9713 2.46515 13.5612 2.55136 13.1799 2.71513C12.7987 2.87891 12.4538 3.11698 12.1656 3.41545L9.99995 5.5803L7.83432 3.41545C7.54605 3.11698 7.20123 2.87891 6.81996 2.71513C6.4387 2.55136 6.02864 2.46515 5.6137 2.46154C5.19877 2.45794 4.78727 2.53701 4.40322 2.69413C4.01917 2.85126 3.67025 3.0833 3.37684 3.37672C3.08342 3.67013 2.85138 4.01904 2.69426 4.4031C2.53713 4.78715 2.45806 5.19864 2.46167 5.61358C2.46527 6.02852 2.55148 6.43858 2.71526 6.81984C2.87903 7.2011 3.1171 7.54593 3.41557 7.8342L5.58042 9.99983L3.41557 12.1655C3.1171 12.4537 2.87903 12.7986 2.71526 13.1798C2.55148 13.5611 2.46527 13.9711 2.46167 14.3861C2.45806 14.801 2.53713 15.2125 2.69426 15.5966C2.85138 15.9806 3.08342 16.3295 3.37684 16.6229C3.67025 16.9164 4.01917 17.1484 4.40322 17.3055C4.78727 17.4626 5.19877 17.5417 5.6137 17.5381C6.02864 17.5345 6.4387 17.4483 6.81996 17.2845C7.20123 17.1207 7.54605 16.8827 7.83432 16.5842L9.99995 14.4194L12.1656 16.5842C12.4538 16.8827 12.7987 17.1207 13.1799 17.2845C13.5612 17.4483 13.9713 17.5345 14.3862 17.5381C14.8011 17.5417 15.2126 17.4626 15.5967 17.3055C15.9807 17.1484 16.3296 16.9164 16.6231 16.6229C16.9165 16.3295 17.1485 15.9806 17.3056 15.5966C17.4628 15.2125 17.5418 14.801 17.5382 14.3861C17.5346 13.9711 17.4484 13.5611 17.2846 13.1798C17.1209 12.7986 16.8828 12.4537 16.5843 12.1655L14.4195 9.99983ZM9.99995 7.34826L12.6515 9.99983L9.99995 12.6514L7.34839 9.99983L9.99995 7.34826ZM13.0468 4.30139C13.3984 3.94915 13.8756 3.75101 14.3733 3.75058C14.871 3.75014 15.3485 3.94743 15.7007 4.29905C16.053 4.65066 16.2511 5.12781 16.2515 5.62551C16.252 6.12322 16.0547 6.60071 15.7031 6.95295L13.5374 9.11858L10.8835 6.46467L13.0468 4.30139ZM6.95307 15.703C6.77866 15.8774 6.5716 16.0157 6.34372 16.1101C6.11584 16.2045 5.8716 16.2531 5.62495 16.2531C5.37829 16.2531 5.13405 16.2045 4.90617 16.1101C4.67829 16.0157 4.47124 15.8774 4.29682 15.703C4.12241 15.5285 3.98406 15.3215 3.88967 15.0936C3.79528 14.8657 3.7467 14.6215 3.7467 14.3748C3.7467 14.1282 3.79528 13.8839 3.88967 13.6561C3.98406 13.4282 4.12241 13.2211 4.29682 13.0467L6.46245 10.8811L9.11401 13.5326L6.95307 15.703Z" fill="#191F2E"/>
</svg>
