<svg width="20" height="20" viewBox="0 0 20 20" fill="none" xmlns="http://www.w3.org/2000/svg">
<path d="M14.8617 9.99979L16.8055 8.05525C17.1316 7.73763 17.3914 7.35839 17.5697 6.93955C17.7481 6.52072 17.8415 6.07063 17.8445 5.61541C17.8475 5.16019 17.76 4.70891 17.5872 4.28776C17.4144 3.86662 17.1596 3.48399 16.8377 3.16209C16.5158 2.8402 16.1332 2.58545 15.7121 2.41262C15.2909 2.2398 14.8396 2.15235 14.3844 2.15535C13.9292 2.15835 13.4791 2.25173 13.0603 2.43009C12.6414 2.60844 12.2622 2.86821 11.9446 3.19432L10 5.13807L8.0555 3.19432C7.73787 2.86821 7.35863 2.60844 6.9398 2.43009C6.52096 2.25173 6.07087 2.15835 5.61565 2.15535C5.16044 2.15235 4.70916 2.2398 4.28801 2.41262C3.86686 2.58545 3.48423 2.8402 3.16234 3.16209C2.84044 3.48399 2.58569 3.86662 2.41287 4.28776C2.24004 4.70891 2.15259 5.16019 2.15559 5.61541C2.15859 6.07063 2.25198 6.52072 2.43033 6.93955C2.60868 7.35839 2.86845 7.73763 3.19456 8.05525L5.13831 9.99979L3.19456 11.9443C2.86845 12.2619 2.60868 12.6412 2.43033 13.06C2.25198 13.4789 2.15859 13.9289 2.15559 14.3842C2.15259 14.8394 2.24004 15.2907 2.41287 15.7118C2.58569 16.133 2.84044 16.5156 3.16234 16.8375C3.48423 17.1594 3.86686 17.4141 4.28801 17.5869C4.70916 17.7598 5.16044 17.8472 5.61565 17.8442C6.07087 17.8412 6.52096 17.7478 6.9398 17.5695C7.35863 17.3911 7.73787 17.1314 8.0555 16.8053L10 14.8615L11.9446 16.8053C12.2622 17.1314 12.6414 17.3911 13.0603 17.5695C13.4791 17.7478 13.9292 17.8412 14.3844 17.8442C14.8396 17.8472 15.2909 17.7598 15.7121 17.5869C16.1332 17.4141 16.5158 17.1594 16.8377 16.8375C17.1596 16.5156 17.4144 16.133 17.5872 15.7118C17.76 15.2907 17.8475 14.8394 17.8445 14.3842C17.8415 13.9289 17.7481 13.4789 17.5697 13.06C17.3914 12.6412 17.1316 12.2619 16.8055 11.9443L14.8617 9.99979ZM13.2703 4.5201C13.4145 4.37086 13.5869 4.25183 13.7775 4.16994C13.9682 4.08805 14.1732 4.04495 14.3807 4.04314C14.5881 4.04134 14.7939 4.08088 14.9859 4.15944C15.1779 4.238 15.3524 4.35402 15.4991 4.50073C15.6458 4.64744 15.7618 4.82189 15.8404 5.01392C15.9189 5.20595 15.9585 5.41169 15.9567 5.61916C15.9549 5.82663 15.9118 6.03166 15.8299 6.22229C15.748 6.41292 15.629 6.58534 15.4797 6.72947L13.5352 8.67166L11.3282 6.46463L13.2703 4.5201ZM12.2094 9.99979L10 12.2092L7.79066 9.99979L10 7.79041L12.2094 9.99979ZM4.52034 6.72947C4.37111 6.58534 4.25207 6.41292 4.17018 6.22229C4.08829 6.03166 4.04519 5.82663 4.04339 5.61916C4.04159 5.41169 4.08112 5.20595 4.15968 5.01392C4.23825 4.82189 4.35427 4.64744 4.50097 4.50073C4.64768 4.35402 4.82214 4.238 5.01416 4.15944C5.20619 4.08088 5.41194 4.04134 5.61941 4.04314C5.82687 4.04495 6.03191 4.08805 6.22254 4.16994C6.41317 4.25183 6.58558 4.37086 6.72972 4.5201L8.67191 6.46463L6.46487 8.67166L4.52034 6.72947ZM6.72972 15.4795C6.58558 15.6287 6.41317 15.7477 6.22254 15.8296C6.03191 15.9115 5.82687 15.9546 5.61941 15.9564C5.41194 15.9582 5.20619 15.9187 5.01416 15.8401C4.82214 15.7616 4.64768 15.6455 4.50097 15.4988C4.35427 15.3521 4.23825 15.1777 4.15968 14.9857C4.08112 14.7936 4.04159 14.5879 4.04339 14.3804C4.04519 14.1729 4.08829 13.9679 4.17018 13.7773C4.25207 13.5866 4.37111 13.4142 4.52034 13.2701L6.46487 11.3279L8.67191 13.5349L6.72972 15.4795ZM15.4797 15.4795C15.1867 15.7724 14.7893 15.937 14.375 15.937C13.9607 15.937 13.5634 15.7724 13.2703 15.4795L11.3282 13.5349L13.5352 11.3279L15.4797 13.2724C15.7726 13.5655 15.9372 13.9628 15.9372 14.3771C15.9372 14.7914 15.7726 15.1888 15.4797 15.4818V15.4795Z" fill="#191F2E"/>
</svg>
