<svg width="20" height="20" viewBox="0 0 20 20" fill="none" xmlns="http://www.w3.org/2000/svg">
<path d="M14.4195 9.99983L16.5843 7.8342C16.8828 7.54593 17.1209 7.2011 17.2846 6.81984C17.4484 6.43858 17.5346 6.02852 17.5382 5.61358C17.5418 5.19864 17.4628 4.78715 17.3056 4.4031C17.1485 4.01904 16.9165 3.67013 16.6231 3.37672C16.3296 3.0833 15.9807 2.85126 15.5967 2.69413C15.2126 2.53701 14.8011 2.45794 14.3862 2.46154C13.9713 2.46515 13.5612 2.55136 13.1799 2.71513C12.7987 2.87891 12.4538 3.11698 12.1656 3.41545L9.99995 5.5803L7.83432 3.41545C7.54605 3.11698 7.20123 2.87891 6.81996 2.71513C6.4387 2.55136 6.02864 2.46515 5.6137 2.46154C5.19877 2.45794 4.78727 2.53701 4.40322 2.69413C4.01917 2.85126 3.67025 3.0833 3.37684 3.37672C3.08342 3.67013 2.85138 4.01904 2.69426 4.4031C2.53713 4.78715 2.45806 5.19864 2.46167 5.61358C2.46527 6.02852 2.55148 6.43858 2.71526 6.81984C2.87903 7.2011 3.1171 7.54593 3.41557 7.8342L5.58042 9.99983L3.41557 12.1655C3.1171 12.4537 2.87903 12.7986 2.71526 13.1798C2.55148 13.5611 2.46527 13.9711 2.46167 14.3861C2.45806 14.801 2.53713 15.2125 2.69426 15.5966C2.85138 15.9806 3.08342 16.3295 3.37684 16.6229C3.67025 16.9164 4.01917 17.1484 4.40322 17.3055C4.78727 17.4626 5.19877 17.5417 5.6137 17.5381C6.02864 17.5345 6.4387 17.4483 6.81996 17.2845C7.20123 17.1207 7.54605 16.8827 7.83432 16.5842L9.99995 14.4194L12.1656 16.5842C12.4538 16.8827 12.7987 17.1207 13.1799 17.2845C13.5612 17.4483 13.9713 17.5345 14.3862 17.5381C14.8011 17.5417 15.2126 17.4626 15.5967 17.3055C15.9807 17.1484 16.3296 16.9164 16.6231 16.6229C16.9165 16.3295 17.1485 15.9806 17.3056 15.5966C17.4628 15.2125 17.5418 14.801 17.5382 14.3861C17.5346 13.9711 17.4484 13.5611 17.2846 13.1798C17.1209 12.7986 16.8828 12.4537 16.5843 12.1655L14.4195 9.99983ZM13.0468 4.2967C13.2212 4.12229 13.4283 3.98394 13.6562 3.88955C13.8841 3.79516 14.1283 3.74657 14.3749 3.74657C14.6216 3.74657 14.8658 3.79516 15.0937 3.88955C15.3216 3.98394 15.5287 4.12229 15.7031 4.2967C15.8775 4.47111 16.0158 4.67817 16.1102 4.90605C16.2046 5.13393 16.2532 5.37817 16.2532 5.62483C16.2532 5.87148 16.2046 6.11572 16.1102 6.3436C16.0158 6.57148 15.8775 6.77854 15.7031 6.95295L13.5374 9.11858L10.8835 6.46467L13.0468 4.2967ZM12.6492 9.99983L9.99995 12.6514L7.34839 9.99983L9.99995 7.34826L12.6492 9.99983ZM4.29682 6.95295C4.12241 6.77854 3.98406 6.57148 3.88967 6.3436C3.79528 6.11572 3.7467 5.87148 3.7467 5.62483C3.7467 5.37817 3.79528 5.13393 3.88967 4.90605C3.98406 4.67817 4.12241 4.47111 4.29682 4.2967C4.47124 4.12229 4.67829 3.98394 4.90617 3.88955C5.13405 3.79516 5.37829 3.74657 5.62495 3.74657C5.8716 3.74657 6.11584 3.79516 6.34372 3.88955C6.5716 3.98394 6.77866 4.12229 6.95307 4.2967L9.1187 6.46233L6.46479 9.11623L4.29682 6.95295ZM6.95307 15.703C6.77866 15.8774 6.5716 16.0157 6.34372 16.1101C6.11584 16.2045 5.8716 16.2531 5.62495 16.2531C5.37829 16.2531 5.13405 16.2045 4.90617 16.1101C4.67829 16.0157 4.47124 15.8774 4.29682 15.703C4.12241 15.5285 3.98406 15.3215 3.88967 15.0936C3.79528 14.8657 3.7467 14.6215 3.7467 14.3748C3.7467 14.1282 3.79528 13.8839 3.88967 13.6561C3.98406 13.4282 4.12241 13.2211 4.29682 13.0467L6.46245 10.8811L9.11401 13.5326L6.95307 15.703ZM15.7031 15.703C15.5289 15.8778 15.3219 16.0164 15.094 16.1111C14.8661 16.2057 14.6217 16.2544 14.3749 16.2544C14.1282 16.2544 13.8838 16.2057 13.6559 16.1111C13.428 16.0164 13.221 15.8778 13.0468 15.703L10.8812 13.5373L13.5328 10.8858L15.7031 13.0467C15.8779 13.2209 16.0166 13.4279 16.1112 13.6558C16.2058 13.8837 16.2546 14.1281 16.2546 14.3748C16.2546 14.6216 16.2058 14.866 16.1112 15.0939C16.0166 15.3218 15.8779 15.5288 15.7031 15.703ZM9.06245 9.99983C9.06245 9.81441 9.11743 9.63315 9.22045 9.47898C9.32346 9.32481 9.46988 9.20465 9.64118 9.13369C9.81249 9.06273 10.001 9.04417 10.1828 9.08034C10.3647 9.11651 10.5317 9.2058 10.6629 9.33691C10.794 9.46803 10.8833 9.63507 10.9194 9.81693C10.9556 9.99879 10.937 10.1873 10.8661 10.3586C10.7951 10.5299 10.675 10.6763 10.5208 10.7793C10.3666 10.8823 10.1854 10.9373 9.99995 10.9373C9.75131 10.9373 9.51285 10.8386 9.33704 10.6627C9.16122 10.4869 9.06245 10.2485 9.06245 9.99983Z" fill="#191F2E"/>
</svg>
