<svg width="20" height="20" viewBox="0 0 20 20" fill="none" xmlns="http://www.w3.org/2000/svg">
<path d="M1.875 8.43755H3.4375V12.1875H2.5C2.25136 12.1875 2.0129 12.2863 1.83709 12.4621C1.66127 12.638 1.5625 12.8764 1.5625 13.125C1.5625 13.3737 1.66127 13.6121 1.83709 13.788C2.0129 13.9638 2.25136 14.0625 2.5 14.0625H17.5C17.7486 14.0625 17.9871 13.9638 18.1629 13.788C18.3387 13.6121 18.4375 13.3737 18.4375 13.125C18.4375 12.8764 18.3387 12.638 18.1629 12.4621C17.9871 12.2863 17.7486 12.1875 17.5 12.1875H16.5625V8.43755H18.125C18.3291 8.43756 18.5277 8.37095 18.6905 8.24783C18.8533 8.12471 18.9715 7.95181 19.0271 7.7554C19.0827 7.55898 19.0727 7.34979 18.9986 7.15959C18.9244 6.9694 18.7903 6.80859 18.6164 6.70161L10.4914 1.70161C10.3436 1.61066 10.1735 1.5625 10 1.5625C9.82648 1.5625 9.65637 1.61066 9.50859 1.70161L1.38359 6.70161C1.20974 6.80859 1.07556 6.9694 1.00143 7.15959C0.927294 7.34979 0.917268 7.55898 0.972868 7.7554C1.02847 7.95181 1.14666 8.12471 1.30948 8.24783C1.47231 8.37095 1.67087 8.43756 1.875 8.43755ZM5.3125 8.43755H7.1875V12.1875H5.3125V8.43755ZM10.9375 8.43755V12.1875H9.0625V8.43755H10.9375ZM14.6875 12.1875H12.8125V8.43755H14.6875V12.1875ZM10 3.60083L14.8125 6.56255H5.1875L10 3.60083ZM19.6875 16.25C19.6875 16.4987 19.5887 16.7371 19.4129 16.913C19.2371 17.0888 18.9986 17.1875 18.75 17.1875H1.25C1.00136 17.1875 0.762903 17.0888 0.587087 16.913C0.411272 16.7371 0.3125 16.4987 0.3125 16.25C0.3125 16.0014 0.411272 15.763 0.587087 15.5871C0.762903 15.4113 1.00136 15.3125 1.25 15.3125H18.75C18.9986 15.3125 19.2371 15.4113 19.4129 15.5871C19.5887 15.763 19.6875 16.0014 19.6875 16.25Z" fill="#191F2E"/>
</svg>
