<svg width="20" height="20" viewBox="0 0 20 20" fill="none" xmlns="http://www.w3.org/2000/svg">
<path d="M19.0625 9.0625V6.875C19.0625 6.4606 18.8979 6.06317 18.6049 5.77015C18.3118 5.47712 17.9144 5.3125 17.5 5.3125H16.25V5C16.25 4.5856 16.0854 4.18817 15.7924 3.89515C15.4993 3.60212 15.1019 3.4375 14.6875 3.4375H12.8125C12.3981 3.4375 12.0007 3.60212 11.7076 3.89515C11.4146 4.18817 11.25 4.5856 11.25 5V9.0625H8.75V5C8.75 4.5856 8.58538 4.18817 8.29235 3.89515C7.99933 3.60212 7.6019 3.4375 7.1875 3.4375H5.3125C4.8981 3.4375 4.50067 3.60212 4.20765 3.89515C3.91462 4.18817 3.75 4.5856 3.75 5V5.3125H2.5C2.0856 5.3125 1.68817 5.47712 1.39515 5.77015C1.10212 6.06317 0.9375 6.4606 0.9375 6.875V9.0625C0.68886 9.0625 0.450403 9.16127 0.274587 9.33709C0.098772 9.5129 0 9.75136 0 10C0 10.2486 0.098772 10.4871 0.274587 10.6629C0.450403 10.8387 0.68886 10.9375 0.9375 10.9375V13.125C0.9375 13.5394 1.10212 13.9368 1.39515 14.2299C1.68817 14.5229 2.0856 14.6875 2.5 14.6875H3.75V15C3.75 15.4144 3.91462 15.8118 4.20765 16.1049C4.50067 16.3979 4.8981 16.5625 5.3125 16.5625H7.1875C7.6019 16.5625 7.99933 16.3979 8.29235 16.1049C8.58538 15.8118 8.75 15.4144 8.75 15V10.9375H11.25V15C11.25 15.4144 11.4146 15.8118 11.7076 16.1049C12.0007 16.3979 12.3981 16.5625 12.8125 16.5625H14.6875C15.1019 16.5625 15.4993 16.3979 15.7924 16.1049C16.0854 15.8118 16.25 15.4144 16.25 15V14.6875H17.5C17.9144 14.6875 18.3118 14.5229 18.6049 14.2299C18.8979 13.9368 19.0625 13.5394 19.0625 13.125V10.9375C19.3111 10.9375 19.5496 10.8387 19.7254 10.6629C19.9012 10.4871 20 10.2486 20 10C20 9.75136 19.9012 9.5129 19.7254 9.33709C19.5496 9.16127 19.3111 9.0625 19.0625 9.0625ZM2.8125 12.8125V7.1875H3.75V12.8125H2.8125ZM6.875 14.6875H5.625V5.3125H6.875V14.6875ZM14.375 14.6875H13.125V5.3125H14.375V14.6875ZM17.1875 12.8125H16.25V7.1875H17.1875V12.8125Z" fill="#191F2E"/>
</svg>
