<svg width="20" height="20" viewBox="0 0 20 20" fill="none" xmlns="http://www.w3.org/2000/svg">
<path d="M19.375 9.375H18.75V6.875C18.75 6.54348 18.6183 6.22554 18.3839 5.99112C18.1495 5.7567 17.8315 5.625 17.5 5.625H16.25V5C16.25 4.66848 16.1183 4.35054 15.8839 4.11612C15.6495 3.8817 15.3315 3.75 15 3.75H13.125C12.7935 3.75 12.4755 3.8817 12.2411 4.11612C12.0067 4.35054 11.875 4.66848 11.875 5V9.375H8.125V5C8.125 4.66848 7.9933 4.35054 7.75888 4.11612C7.52446 3.8817 7.20652 3.75 6.875 3.75H5C4.66848 3.75 4.35054 3.8817 4.11612 4.11612C3.8817 4.35054 3.75 4.66848 3.75 5V5.625H2.5C2.16848 5.625 1.85054 5.7567 1.61612 5.99112C1.3817 6.22554 1.25 6.54348 1.25 6.875V9.375H0.625C0.45924 9.375 0.300269 9.44085 0.183058 9.55806C0.065848 9.67527 0 9.83424 0 10C0 10.1658 0.065848 10.3247 0.183058 10.4419C0.300269 10.5592 0.45924 10.625 0.625 10.625H1.25V13.125C1.25 13.4565 1.3817 13.7745 1.61612 14.0089C1.85054 14.2433 2.16848 14.375 2.5 14.375H3.75V15C3.75 15.3315 3.8817 15.6495 4.11612 15.8839C4.35054 16.1183 4.66848 16.25 5 16.25H6.875C7.20652 16.25 7.52446 16.1183 7.75888 15.8839C7.9933 15.6495 8.125 15.3315 8.125 15V10.625H11.875V15C11.875 15.3315 12.0067 15.6495 12.2411 15.8839C12.4755 16.1183 12.7935 16.25 13.125 16.25H15C15.3315 16.25 15.6495 16.1183 15.8839 15.8839C16.1183 15.6495 16.25 15.3315 16.25 15V14.375H17.5C17.8315 14.375 18.1495 14.2433 18.3839 14.0089C18.6183 13.7745 18.75 13.4565 18.75 13.125V10.625H19.375C19.5408 10.625 19.6997 10.5592 19.8169 10.4419C19.9342 10.3247 20 10.1658 20 10C20 9.83424 19.9342 9.67527 19.8169 9.55806C19.6997 9.44085 19.5408 9.375 19.375 9.375ZM2.5 13.125V6.875H3.75V13.125H2.5ZM6.875 15H5V5H6.875V15ZM15 15H13.125V5H15V13.7359C15 13.7406 15 13.7453 15 13.75C15 13.7547 15 13.7594 15 13.7641V15ZM17.5 13.125H16.25V6.875H17.5V13.125Z" fill="#191F2E"/>
</svg>
