<svg width="20" height="20" viewBox="0 0 20 20" fill="none" xmlns="http://www.w3.org/2000/svg">
<path d="M15.625 5V15C15.625 15.3315 15.4933 15.6495 15.2589 15.8839C15.0245 16.1183 14.7066 16.25 14.375 16.25H13.125C12.7935 16.25 12.4756 16.1183 12.2411 15.8839C12.0067 15.6495 11.875 15.3315 11.875 15V10.625H8.12503V15C8.12503 15.3315 7.99333 15.6495 7.75891 15.8839C7.52449 16.1183 7.20655 16.25 6.87503 16.25H5.62503C5.29351 16.25 4.97557 16.1183 4.74115 15.8839C4.50673 15.6495 4.37503 15.3315 4.37503 15V5C4.37503 4.66848 4.50673 4.35054 4.74115 4.11612C4.97557 3.8817 5.29351 3.75 5.62503 3.75H6.87503C7.20655 3.75 7.52449 3.8817 7.75891 4.11612C7.99333 4.35054 8.12503 4.66848 8.12503 5V9.375H11.875V5C11.875 4.66848 12.0067 4.35054 12.2411 4.11612C12.4756 3.8817 12.7935 3.75 13.125 3.75H14.375C14.7066 3.75 15.0245 3.8817 15.2589 4.11612C15.4933 4.35054 15.625 4.66848 15.625 5ZM2.81253 5.625H2.50003C2.16851 5.625 1.85057 5.7567 1.61615 5.99112C1.38173 6.22554 1.25003 6.54348 1.25003 6.875V9.375H0.646124C0.484613 9.37261 0.328191 9.43148 0.208322 9.53975C0.0884538 9.64803 0.0140331 9.79767 3.04654e-05 9.95859C-0.00564604 10.0441 0.00631597 10.1298 0.0351735 10.2105C0.064031 10.2912 0.109168 10.3651 0.16778 10.4276C0.226392 10.49 0.297228 10.5398 0.375888 10.5738C0.454547 10.6078 0.539351 10.6252 0.62503 10.625H1.25003V13.125C1.25003 13.4565 1.38173 13.7745 1.61615 14.0089C1.85057 14.2433 2.16851 14.375 2.50003 14.375H2.81253C2.89541 14.375 2.9749 14.3421 3.0335 14.2835C3.09211 14.2249 3.12503 14.1454 3.12503 14.0625V5.9375C3.12503 5.85462 3.09211 5.77513 3.0335 5.71653C2.9749 5.65792 2.89541 5.625 2.81253 5.625ZM20 9.95859C19.986 9.79795 19.9118 9.64852 19.7923 9.54029C19.6728 9.43206 19.5167 9.37301 19.3555 9.375H18.75V6.875C18.75 6.54348 18.6183 6.22554 18.3839 5.99112C18.1495 5.7567 17.8316 5.625 17.5 5.625H17.1875C17.1047 5.625 17.0252 5.65792 16.9666 5.71653C16.908 5.77513 16.875 5.85462 16.875 5.9375V14.0625C16.875 14.1454 16.908 14.2249 16.9666 14.2835C17.0252 14.3421 17.1047 14.375 17.1875 14.375H17.5C17.8316 14.375 18.1495 14.2433 18.3839 14.0089C18.6183 13.7745 18.75 13.4565 18.75 13.125V10.625H19.375C19.4607 10.6252 19.5455 10.6078 19.6242 10.5738C19.7028 10.5398 19.7737 10.49 19.8323 10.4276C19.8909 10.3651 19.936 10.2912 19.9649 10.2105C19.9937 10.1298 20.0057 10.0441 20 9.95859Z" fill="#191F2E"/>
</svg>
