<svg width="20" height="20" viewBox="0 0 20 20" fill="none" xmlns="http://www.w3.org/2000/svg">
<path d="M17.5 3.125H2.5C2.33424 3.125 2.17527 3.19085 2.05806 3.30806C1.94085 3.42527 1.875 3.58424 1.875 3.75V16.25C1.875 16.4158 1.94085 16.5747 2.05806 16.6919C2.17527 16.8092 2.33424 16.875 2.5 16.875H17.5C17.6658 16.875 17.8247 16.8092 17.9419 16.6919C18.0592 16.5747 18.125 16.4158 18.125 16.25V3.75C18.125 3.58424 18.0592 3.42527 17.9419 3.30806C17.8247 3.19085 17.6658 3.125 17.5 3.125ZM3.125 5C3.125 4.83424 3.19085 4.67527 3.30806 4.55806C3.42527 4.44085 3.58424 4.375 3.75 4.375H6.25C6.41576 4.375 6.57473 4.44085 6.69194 4.55806C6.80915 4.67527 6.875 4.83424 6.875 5C6.875 5.16576 6.80915 5.32473 6.69194 5.44194C6.57473 5.55915 6.41576 5.625 6.25 5.625H4.375V7.5C4.375 7.66576 4.30915 7.82473 4.19194 7.94194C4.07473 8.05915 3.91576 8.125 3.75 8.125C3.58424 8.125 3.42527 8.05915 3.30806 7.94194C3.19085 7.82473 3.125 7.66576 3.125 7.5V5ZM6.25 15.625H3.75C3.58424 15.625 3.42527 15.5592 3.30806 15.4419C3.19085 15.3247 3.125 15.1658 3.125 15V12.5C3.125 12.3342 3.19085 12.1753 3.30806 12.0581C3.42527 11.9408 3.58424 11.875 3.75 11.875C3.91576 11.875 4.07473 11.9408 4.19194 12.0581C4.30915 12.1753 4.375 12.3342 4.375 12.5V14.375H6.25C6.41576 14.375 6.57473 14.4408 6.69194 14.5581C6.80915 14.6753 6.875 14.8342 6.875 15C6.875 15.1658 6.80915 15.3247 6.69194 15.4419C6.57473 15.5592 6.41576 15.625 6.25 15.625ZM8.125 11.875C8.125 12.0408 8.05915 12.1997 7.94194 12.3169C7.82473 12.4342 7.66576 12.5 7.5 12.5C7.33424 12.5 7.17527 12.4342 7.05806 12.3169C6.94085 12.1997 6.875 12.0408 6.875 11.875V8.125C6.875 7.95924 6.94085 7.80027 7.05806 7.68306C7.17527 7.56585 7.33424 7.5 7.5 7.5C7.66576 7.5 7.82473 7.56585 7.94194 7.68306C8.05915 7.80027 8.125 7.95924 8.125 8.125V11.875ZM10.625 11.875C10.625 12.0408 10.5592 12.1997 10.4419 12.3169C10.3247 12.4342 10.1658 12.5 10 12.5C9.83424 12.5 9.67527 12.4342 9.55806 12.3169C9.44085 12.1997 9.375 12.0408 9.375 11.875V8.125C9.375 7.95924 9.44085 7.80027 9.55806 7.68306C9.67527 7.56585 9.83424 7.5 10 7.5C10.1658 7.5 10.3247 7.56585 10.4419 7.68306C10.5592 7.80027 10.625 7.95924 10.625 8.125V11.875ZM12.5 12.5C12.3342 12.5 12.1753 12.4342 12.0581 12.3169C11.9408 12.1997 11.875 12.0408 11.875 11.875V8.125C11.875 7.95924 11.9408 7.80027 12.0581 7.68306C12.1753 7.56585 12.3342 7.5 12.5 7.5C12.6658 7.5 12.8247 7.56585 12.9419 7.68306C13.0592 7.80027 13.125 7.95924 13.125 8.125V11.875C13.125 12.0408 13.0592 12.1997 12.9419 12.3169C12.8247 12.4342 12.6658 12.5 12.5 12.5ZM16.875 15C16.875 15.1658 16.8092 15.3247 16.6919 15.4419C16.5747 15.5592 16.4158 15.625 16.25 15.625H13.75C13.5842 15.625 13.4253 15.5592 13.3081 15.4419C13.1908 15.3247 13.125 15.1658 13.125 15C13.125 14.8342 13.1908 14.6753 13.3081 14.5581C13.4253 14.4408 13.5842 14.375 13.75 14.375H15.625V12.5C15.625 12.3342 15.6908 12.1753 15.8081 12.0581C15.9253 11.9408 16.0842 11.875 16.25 11.875C16.4158 11.875 16.5747 11.9408 16.6919 12.0581C16.8092 12.1753 16.875 12.3342 16.875 12.5V15ZM16.875 7.5C16.875 7.66576 16.8092 7.82473 16.6919 7.94194C16.5747 8.05915 16.4158 8.125 16.25 8.125C16.0842 8.125 15.9253 8.05915 15.8081 7.94194C15.6908 7.82473 15.625 7.66576 15.625 7.5V5.625H13.75C13.5842 5.625 13.4253 5.55915 13.3081 5.44194C13.1908 5.32473 13.125 5.16576 13.125 5C13.125 4.83424 13.1908 4.67527 13.3081 4.55806C13.4253 4.44085 13.5842 4.375 13.75 4.375H16.25C16.4158 4.375 16.5747 4.44085 16.6919 4.55806C16.8092 4.67527 16.875 4.83424 16.875 5V7.5Z" fill="#191F2E"/>
</svg>
