<svg width="20" height="20" viewBox="0 0 20 20" fill="none" xmlns="http://www.w3.org/2000/svg">
<path d="M18.125 3.75V6.875C18.125 7.04076 18.0592 7.19973 17.9419 7.31694C17.8247 7.43415 17.6658 7.5 17.5 7.5C17.3342 7.5 17.1753 7.43415 17.0581 7.31694C16.9408 7.19973 16.875 7.04076 16.875 6.875V4.375H14.375C14.2092 4.375 14.0503 4.30915 13.9331 4.19194C13.8158 4.07473 13.75 3.91576 13.75 3.75C13.75 3.58424 13.8158 3.42527 13.9331 3.30806C14.0503 3.19085 14.2092 3.125 14.375 3.125H17.5C17.6658 3.125 17.8247 3.19085 17.9419 3.30806C18.0592 3.42527 18.125 3.58424 18.125 3.75ZM5.625 15.625H3.125V13.125C3.125 12.9592 3.05915 12.8003 2.94194 12.6831C2.82473 12.5658 2.66576 12.5 2.5 12.5C2.33424 12.5 2.17527 12.5658 2.05806 12.6831C1.94085 12.8003 1.875 12.9592 1.875 13.125V16.25C1.875 16.4158 1.94085 16.5747 2.05806 16.6919C2.17527 16.8092 2.33424 16.875 2.5 16.875H5.625C5.79076 16.875 5.94973 16.8092 6.06694 16.6919C6.18415 16.5747 6.25 16.4158 6.25 16.25C6.25 16.0842 6.18415 15.9253 6.06694 15.8081C5.94973 15.6908 5.79076 15.625 5.625 15.625ZM17.5 12.5C17.3342 12.5 17.1753 12.5658 17.0581 12.6831C16.9408 12.8003 16.875 12.9592 16.875 13.125V15.625H14.375C14.2092 15.625 14.0503 15.6908 13.9331 15.8081C13.8158 15.9253 13.75 16.0842 13.75 16.25C13.75 16.4158 13.8158 16.5747 13.9331 16.6919C14.0503 16.8092 14.2092 16.875 14.375 16.875H17.5C17.6658 16.875 17.8247 16.8092 17.9419 16.6919C18.0592 16.5747 18.125 16.4158 18.125 16.25V13.125C18.125 12.9592 18.0592 12.8003 17.9419 12.6831C17.8247 12.5658 17.6658 12.5 17.5 12.5ZM2.5 7.5C2.66576 7.5 2.82473 7.43415 2.94194 7.31694C3.05915 7.19973 3.125 7.04076 3.125 6.875V4.375H5.625C5.79076 4.375 5.94973 4.30915 6.06694 4.19194C6.18415 4.07473 6.25 3.91576 6.25 3.75C6.25 3.58424 6.18415 3.42527 6.06694 3.30806C5.94973 3.19085 5.79076 3.125 5.625 3.125H2.5C2.33424 3.125 2.17527 3.19085 2.05806 3.30806C1.94085 3.42527 1.875 3.58424 1.875 3.75V6.875C1.875 7.04076 1.94085 7.19973 2.05806 7.31694C2.17527 7.43415 2.33424 7.5 2.5 7.5ZM6.25 6.25C6.08424 6.25 5.92527 6.31585 5.80806 6.43306C5.69085 6.55027 5.625 6.70924 5.625 6.875V13.125C5.625 13.2908 5.69085 13.4497 5.80806 13.5669C5.92527 13.6842 6.08424 13.75 6.25 13.75C6.41576 13.75 6.57473 13.6842 6.69194 13.5669C6.80915 13.4497 6.875 13.2908 6.875 13.125V6.875C6.875 6.70924 6.80915 6.55027 6.69194 6.43306C6.57473 6.31585 6.41576 6.25 6.25 6.25ZM14.375 13.125V6.875C14.375 6.70924 14.3092 6.55027 14.1919 6.43306C14.0747 6.31585 13.9158 6.25 13.75 6.25C13.5842 6.25 13.4253 6.31585 13.3081 6.43306C13.1908 6.55027 13.125 6.70924 13.125 6.875V13.125C13.125 13.2908 13.1908 13.4497 13.3081 13.5669C13.4253 13.6842 13.5842 13.75 13.75 13.75C13.9158 13.75 14.0747 13.6842 14.1919 13.5669C14.3092 13.4497 14.375 13.2908 14.375 13.125ZM11.25 6.25C11.0842 6.25 10.9253 6.31585 10.8081 6.43306C10.6908 6.55027 10.625 6.70924 10.625 6.875V13.125C10.625 13.2908 10.6908 13.4497 10.8081 13.5669C10.9253 13.6842 11.0842 13.75 11.25 13.75C11.4158 13.75 11.5747 13.6842 11.6919 13.5669C11.8092 13.4497 11.875 13.2908 11.875 13.125V6.875C11.875 6.70924 11.8092 6.55027 11.6919 6.43306C11.5747 6.31585 11.4158 6.25 11.25 6.25ZM8.75 6.25C8.58424 6.25 8.42527 6.31585 8.30806 6.43306C8.19085 6.55027 8.125 6.70924 8.125 6.875V13.125C8.125 13.2908 8.19085 13.4497 8.30806 13.5669C8.42527 13.6842 8.58424 13.75 8.75 13.75C8.91576 13.75 9.07473 13.6842 9.19194 13.5669C9.30915 13.4497 9.375 13.2908 9.375 13.125V6.875C9.375 6.70924 9.30915 6.55027 9.19194 6.43306C9.07473 6.31585 8.91576 6.25 8.75 6.25Z" fill="#191F2E"/>
</svg>
