<svg width="20" height="20" viewBox="0 0 20 20" fill="none" xmlns="http://www.w3.org/2000/svg">
<path d="M17.5 4.6875H2.5C2.0856 4.6875 1.68817 4.85212 1.39515 5.14515C1.10212 5.43817 0.9375 5.8356 0.9375 6.25V11.875C0.9375 12.2894 1.10212 12.6868 1.39515 12.9799C1.68817 13.2729 2.0856 13.4375 2.5 13.4375H4.0625V15.625C4.0625 15.8736 4.16127 16.1121 4.33709 16.2879C4.5129 16.4637 4.75136 16.5625 5 16.5625C5.24864 16.5625 5.4871 16.4637 5.66291 16.2879C5.83873 16.1121 5.9375 15.8736 5.9375 15.625V13.4375H14.0625V15.625C14.0625 15.8736 14.1613 16.1121 14.3371 16.2879C14.5129 16.4637 14.7514 16.5625 15 16.5625C15.2486 16.5625 15.4871 16.4637 15.6629 16.2879C15.8387 16.1121 15.9375 15.8736 15.9375 15.625V13.4375H17.5C17.9144 13.4375 18.3118 13.2729 18.6049 12.9799C18.8979 12.6868 19.0625 12.2894 19.0625 11.875V6.25C19.0625 5.8356 18.8979 5.43817 18.6049 5.14515C18.3118 4.85212 17.9144 4.6875 17.5 4.6875ZM17.1875 9.29688L14.4531 6.5625H17.1875V9.29688ZM13.8281 11.5625L8.82812 6.5625H11.7969L16.7969 11.5625H13.8281ZM8.20312 11.5625L3.20312 6.5625H6.17188L11.1719 11.5625H8.20312ZM2.8125 8.82812L5.54688 11.5625H2.8125V8.82812Z" fill="#191F2E"/>
</svg>
