<svg width="20" height="20" viewBox="0 0 20 20" fill="none" xmlns="http://www.w3.org/2000/svg">
<path d="M17.5 5H2.5C2.16848 5 1.85054 5.1317 1.61612 5.36612C1.3817 5.60054 1.25 5.91848 1.25 6.25V11.875C1.25 12.2065 1.3817 12.5245 1.61612 12.7589C1.85054 12.9933 2.16848 13.125 2.5 13.125H4.375V15.625C4.375 15.7908 4.44085 15.9497 4.55806 16.0669C4.67527 16.1842 4.83424 16.25 5 16.25C5.16576 16.25 5.32473 16.1842 5.44194 16.0669C5.55915 15.9497 5.625 15.7908 5.625 15.625V13.125H14.375V15.625C14.375 15.7908 14.4408 15.9497 14.5581 16.0669C14.6753 16.1842 14.8342 16.25 15 16.25C15.1658 16.25 15.3247 16.1842 15.4419 16.0669C15.5592 15.9497 15.625 15.7908 15.625 15.625V13.125H17.5C17.8315 13.125 18.1495 12.9933 18.3839 12.7589C18.6183 12.5245 18.75 12.2065 18.75 11.875V6.25C18.75 5.91848 18.6183 5.60054 18.3839 5.36612C18.1495 5.1317 17.8315 5 17.5 5ZM2.5 7.1875L7.1875 11.875H2.5V7.1875ZM17.5 11.875H12.8125L7.1875 6.25H12.8125L17.5 10.9375V11.875Z" fill="#191F2E"/>
</svg>
