<svg width="20" height="20" viewBox="0 0 20 20" fill="none" xmlns="http://www.w3.org/2000/svg">
<path d="M10 1.875C8.39303 1.875 6.82214 2.35152 5.486 3.24431C4.14985 4.1371 3.10844 5.40605 2.49348 6.8907C1.87852 8.37535 1.71762 10.009 2.03112 11.5851C2.34463 13.1612 3.11846 14.6089 4.25476 15.7452C5.39106 16.8815 6.8388 17.6554 8.4149 17.9689C9.99099 18.2824 11.6247 18.1215 13.1093 17.5065C14.594 16.8916 15.8629 15.8502 16.7557 14.514C17.6485 13.1779 18.125 11.607 18.125 10C18.1227 7.84581 17.266 5.78051 15.7427 4.25727C14.2195 2.73403 12.1542 1.87727 10 1.875ZM5.63203 15.3055C5.6961 15.2273 5.76016 15.1547 5.8211 15.0781C5.8724 15.014 5.91055 14.9403 5.93338 14.8614C5.95622 14.7825 5.96329 14.6998 5.95418 14.6182C5.94508 14.5365 5.91998 14.4575 5.88032 14.3855C5.84066 14.3136 5.78722 14.2501 5.72305 14.1988C5.65888 14.1475 5.58523 14.1094 5.50631 14.0865C5.42739 14.0637 5.34475 14.0566 5.2631 14.0657C5.18145 14.0748 5.10239 14.0999 5.03044 14.1396C4.95849 14.1793 4.89505 14.2327 4.84375 14.2969L4.73907 14.4234C3.69525 13.1859 3.12271 11.619 3.12271 10C3.12271 8.381 3.69525 6.81415 4.73907 5.57656L4.84375 5.70312C4.89505 5.7673 4.95849 5.82074 5.03044 5.8604C5.10239 5.90005 5.18145 5.92515 5.2631 5.93426C5.34475 5.94336 5.42739 5.93629 5.50631 5.91346C5.58523 5.89062 5.65888 5.85247 5.72305 5.80117C5.78722 5.74987 5.84066 5.68644 5.88032 5.61449C5.91998 5.54254 5.94508 5.46348 5.95418 5.38183C5.96329 5.30018 5.95622 5.21754 5.93338 5.13862C5.91055 5.0597 5.8724 4.98605 5.8211 4.92188C5.76016 4.84375 5.6961 4.76562 5.63203 4.69453C6.86153 3.67989 8.4059 3.12493 10 3.12493C11.5941 3.12493 13.1385 3.67989 14.368 4.69453C14.3039 4.77266 14.2398 4.84453 14.1789 4.92188C14.1276 4.98605 14.0895 5.0597 14.0666 5.13862C14.0438 5.21754 14.0367 5.30018 14.0458 5.38183C14.0549 5.46348 14.08 5.54254 14.1197 5.61449C14.1593 5.68644 14.2128 5.74987 14.277 5.80117C14.3411 5.85247 14.4148 5.89062 14.4937 5.91346C14.5726 5.93629 14.6553 5.94336 14.7369 5.93426C14.8186 5.92515 14.8976 5.90005 14.9696 5.8604C15.0415 5.82074 15.105 5.7673 15.1563 5.70312L15.2609 5.57656C16.3048 6.81415 16.8773 8.381 16.8773 10C16.8773 11.619 16.3048 13.1859 15.2609 14.4234L15.1563 14.2969C15.106 14.2299 15.0428 14.1738 14.9703 14.1318C14.8979 14.0897 14.8178 14.0627 14.7348 14.0522C14.6517 14.0417 14.5674 14.048 14.4868 14.0708C14.4063 14.0935 14.3311 14.1322 14.2657 14.1845C14.2004 14.2369 14.1463 14.3018 14.1065 14.3755C14.0667 14.4492 14.0422 14.5301 14.0343 14.6134C14.0264 14.6968 14.0354 14.7809 14.0606 14.8607C14.0859 14.9405 14.1269 15.0145 14.1813 15.0781C14.2422 15.1562 14.3063 15.2305 14.3703 15.3055C13.1408 16.3201 11.5964 16.8751 10.0023 16.8751C8.40825 16.8751 6.86387 16.3201 5.63438 15.3055H5.63203ZM7.49141 11.3531C7.41377 11.8141 7.29667 12.2676 7.14141 12.7086C7.08609 12.8649 6.97093 12.9929 6.82127 13.0643C6.6716 13.1357 6.4997 13.1448 6.34336 13.0895C6.18703 13.0341 6.05908 12.919 5.98765 12.7693C5.91623 12.6196 5.90718 12.4477 5.9625 12.2914C6.09422 11.9192 6.19329 11.5363 6.2586 11.1469C6.27147 11.0653 6.30036 10.9871 6.34363 10.9168C6.38689 10.8465 6.44365 10.7854 6.51064 10.7372C6.57764 10.6889 6.65353 10.6544 6.73393 10.6356C6.81433 10.6169 6.89766 10.6142 6.97909 10.6279C7.06052 10.6415 7.13845 10.6711 7.20837 10.715C7.27828 10.7589 7.33881 10.8163 7.38644 10.8837C7.43408 10.9511 7.46788 11.0273 7.4859 11.1079C7.50391 11.1885 7.50579 11.2718 7.49141 11.3531ZM7.49141 8.64687C7.51875 8.81036 7.48004 8.978 7.38378 9.11294C7.28752 9.24787 7.14161 9.33905 6.97813 9.36641C6.94403 9.37194 6.90955 9.37482 6.875 9.375C6.72726 9.37481 6.58436 9.32229 6.47166 9.22675C6.35897 9.13121 6.28376 8.99884 6.25938 8.85313C6.19407 8.46375 6.095 8.08079 5.96328 7.70859C5.90796 7.55226 5.91701 7.38035 5.98843 7.23069C6.05986 7.08103 6.18781 6.96587 6.34414 6.91055C6.50048 6.85522 6.67238 6.86427 6.82205 6.9357C6.97171 7.00712 7.08687 7.13507 7.14219 7.29141C7.29719 7.7324 7.41402 8.18589 7.49141 8.64687ZM13.6563 13.0891C13.5 13.1444 13.3282 13.1353 13.1786 13.064C13.0291 12.9926 12.9139 12.8648 12.8586 12.7086C12.7033 12.2676 12.5862 11.8141 12.5086 11.3531C12.4942 11.2718 12.4961 11.1885 12.5141 11.1079C12.5321 11.0273 12.5659 10.9511 12.6136 10.8837C12.6612 10.8163 12.7217 10.7589 12.7916 10.715C12.8616 10.6711 12.9395 10.6415 13.0209 10.6279C13.1024 10.6142 13.1857 10.6169 13.2661 10.6356C13.3465 10.6544 13.4224 10.6889 13.4894 10.7372C13.5564 10.7854 13.6131 10.8465 13.6564 10.9168C13.6996 10.9871 13.7285 11.0653 13.7414 11.1469C13.8067 11.5363 13.9058 11.9192 14.0375 12.2914C14.0649 12.3688 14.0767 12.4509 14.0724 12.5328C14.068 12.6148 14.0475 12.6951 14.0121 12.7692C13.9767 12.8433 13.9271 12.9097 13.866 12.9645C13.8049 13.0194 13.7337 13.0617 13.6563 13.0891ZM12.5086 8.64687C12.5862 8.18586 12.7033 7.73237 12.8586 7.29141C12.9139 7.13507 13.0291 7.00712 13.1787 6.9357C13.3284 6.86427 13.5003 6.85522 13.6566 6.91055C13.813 6.96587 13.9409 7.08103 14.0124 7.23069C14.0838 7.38035 14.0928 7.55226 14.0375 7.70859C13.9058 8.08079 13.8067 8.46375 13.7414 8.85313C13.717 8.99898 13.6417 9.13145 13.5288 9.227C13.416 9.32255 13.2729 9.37499 13.125 9.375C13.0902 9.37486 13.0555 9.37198 13.0211 9.36641C12.8578 9.33887 12.712 9.24761 12.6159 9.1127C12.5198 8.97778 12.4812 8.81024 12.5086 8.64687Z" fill="#191F2E"/>
</svg>
