<svg width="20" height="20" viewBox="0 0 20 20" fill="none" xmlns="http://www.w3.org/2000/svg">
<path d="M10 1.875C7.84588 1.87748 5.78069 2.7343 4.2575 4.2575C2.7343 5.78069 1.87748 7.84588 1.875 10V14.375C1.875 14.8723 2.07254 15.3492 2.42417 15.7008C2.77581 16.0525 3.25272 16.25 3.75 16.25C4.14831 16.2493 4.53616 16.1224 4.85781 15.8875C5.80703 15.1977 7.46875 14.375 10 14.375C12.5312 14.375 14.193 15.1969 15.1414 15.8867C15.4208 16.0915 15.7515 16.215 16.0968 16.2433C16.442 16.2716 16.7884 16.2037 17.0974 16.0471C17.4065 15.8905 17.6661 15.6514 17.8475 15.3562C18.0289 15.0611 18.1249 14.7214 18.125 14.375V10C18.1225 7.84588 17.2657 5.78069 15.7425 4.2575C14.2193 2.7343 12.1541 1.87748 10 1.875ZM16.875 10V10.693C15.8781 10.0761 14.8021 9.59727 13.6766 9.26953C13.4347 7.11445 12.6596 5.05363 11.4211 3.27344C12.9627 3.6012 14.3452 4.44787 15.3378 5.67208C16.3304 6.89629 16.873 8.42395 16.875 10ZM10 3.45859C11.248 5.061 12.0656 6.95591 12.375 8.96328C10.8034 8.67891 9.19349 8.67891 7.62187 8.96328C7.93501 6.95642 8.75337 5.06216 10 3.45859ZM8.57891 3.27344C7.34032 5.05385 6.56512 7.11496 6.32344 9.27031C5.19786 9.59805 4.12191 10.0769 3.125 10.6938V10C3.12702 8.42395 3.66962 6.89629 4.66222 5.67208C5.65481 4.44787 7.03731 3.6012 8.57891 3.27344ZM16.5359 14.9305C16.432 14.9841 16.3151 15.0074 16.1985 14.9979C16.082 14.9884 15.9704 14.9463 15.8766 14.8766C14.7781 14.0781 12.8672 13.125 10 13.125C7.13281 13.125 5.22187 14.0781 4.12344 14.8766C4.02958 14.9463 3.91803 14.9884 3.80147 14.9979C3.6849 15.0074 3.56801 14.9841 3.46406 14.9305C3.36065 14.8796 3.27385 14.8004 3.21381 14.702C3.15376 14.6036 3.12296 14.4902 3.125 14.375V12.193C5.13375 10.7667 7.53638 10.0004 10 10.0004C12.4636 10.0004 14.8663 10.7667 16.875 12.193V14.375C16.877 14.4902 16.8462 14.6036 16.7862 14.702C16.7262 14.8004 16.6394 14.8796 16.5359 14.9305Z" fill="#191F2E"/>
</svg>
