<svg width="20" height="20" viewBox="0 0 20 20" fill="none" xmlns="http://www.w3.org/2000/svg">
<path d="M10.625 9.37503V13.75C10.625 13.9158 10.5592 14.0748 10.4419 14.192C10.3247 14.3092 10.1658 14.375 10 14.375C9.83424 14.375 9.67527 14.3092 9.55806 14.192C9.44085 14.0748 9.375 13.9158 9.375 13.75V9.37503C9.375 9.20927 9.44085 9.0503 9.55806 8.93309C9.67527 8.81588 9.83424 8.75003 10 8.75003C10.1658 8.75003 10.3247 8.81588 10.4419 8.93309C10.5592 9.0503 10.625 9.20927 10.625 9.37503ZM18.7391 7.66487L17.6562 15.7907C17.6161 16.091 17.4683 16.3665 17.2402 16.5659C17.0121 16.7654 16.7194 16.8752 16.4164 16.875H3.58359C3.28061 16.8752 2.98787 16.7654 2.75981 16.5659C2.53175 16.3665 2.38389 16.091 2.34375 15.7907L1.26016 7.66565C1.23654 7.48901 1.25097 7.30936 1.30248 7.13875C1.35399 6.96814 1.44138 6.81052 1.5588 6.67646C1.67622 6.54239 1.82094 6.43498 1.98327 6.36144C2.1456 6.28789 2.32179 6.24991 2.5 6.25003H5.34141L9.53125 1.46331C9.5899 1.39681 9.66203 1.34354 9.74285 1.30706C9.82367 1.27058 9.91133 1.25171 10 1.25171C10.0887 1.25171 10.1763 1.27058 10.2571 1.30706C10.338 1.34354 10.4101 1.39681 10.4688 1.46331L14.6586 6.25003H17.5C17.678 6.25014 17.8539 6.28827 18.016 6.36187C18.1781 6.43547 18.3226 6.54284 18.4398 6.67679C18.5571 6.81074 18.6443 6.96818 18.6958 7.13859C18.7473 7.30899 18.7618 7.48842 18.7383 7.66487H18.7391ZM7.00234 6.25003H12.9977L10 2.82425L7.00234 6.25003ZM17.5 7.50003H2.5L3.58359 15.625H16.4164L17.5 7.50003ZM13.5031 9.31253L13.0656 13.6875C13.057 13.7694 13.0646 13.8523 13.0881 13.9312C13.1115 14.0102 13.1504 14.0837 13.2024 14.1476C13.2544 14.2115 13.3185 14.2645 13.391 14.3035C13.4635 14.3425 13.543 14.3668 13.625 14.375C13.6461 14.3762 13.6672 14.3762 13.6883 14.375C13.8431 14.3748 13.9923 14.3172 14.1071 14.2133C14.2218 14.1094 14.2939 13.9666 14.3094 13.8125L14.7469 9.43753C14.7634 9.2726 14.7138 9.10784 14.6089 8.97949C14.504 8.85115 14.3524 8.76973 14.1875 8.75315C14.0226 8.73658 13.8578 8.7862 13.7295 8.8911C13.6011 8.99601 13.5197 9.1476 13.5031 9.31253ZM6.49687 9.31253C6.4803 9.1476 6.39888 8.99601 6.27054 8.8911C6.14219 8.7862 5.97743 8.73658 5.8125 8.75315C5.64757 8.76973 5.49598 8.85115 5.39107 8.97949C5.28617 9.10784 5.23655 9.2726 5.25312 9.43753L5.69062 13.8125C5.70617 13.9672 5.77882 14.1106 5.89439 14.2146C6.00996 14.3186 6.16014 14.3758 6.31562 14.375C6.3367 14.3762 6.35783 14.3762 6.37891 14.375C6.46057 14.3668 6.53982 14.3426 6.61213 14.3038C6.68444 14.2649 6.74839 14.2122 6.80033 14.1487C6.85228 14.0851 6.89119 14.012 6.91486 13.9334C6.93853 13.8548 6.94649 13.7723 6.93828 13.6907L6.49687 9.31253Z" fill="#191F2E"/>
</svg>
