<svg width="20" height="20" viewBox="0 0 20 20" fill="none" xmlns="http://www.w3.org/2000/svg">
<path d="M10.9375 10V13.125C10.9375 13.3736 10.8387 13.6121 10.6629 13.7879C10.4871 13.9637 10.2486 14.0625 10 14.0625C9.75136 14.0625 9.5129 13.9637 9.33709 13.7879C9.16127 13.6121 9.0625 13.3736 9.0625 13.125V10C9.0625 9.75136 9.16127 9.5129 9.33709 9.33709C9.5129 9.16127 9.75136 9.0625 10 9.0625C10.2486 9.0625 10.4871 9.16127 10.6629 9.33709C10.8387 9.5129 10.9375 9.75136 10.9375 10ZM19.0484 7.70625L17.9688 15.8312C17.9177 16.2068 17.7324 16.5512 17.4469 16.8005C17.1615 17.0499 16.7954 17.1874 16.4164 17.1875H3.5836C3.20475 17.1872 2.83882 17.0498 2.55346 16.8006C2.2681 16.5514 2.08259 16.2074 2.03125 15.832L0.948439 7.70703C0.918902 7.48608 0.936985 7.26137 1.00147 7.04798C1.06596 6.8346 1.17536 6.63748 1.32232 6.46987C1.46929 6.30226 1.65041 6.16804 1.85354 6.07622C2.05666 5.98439 2.27709 5.9371 2.5 5.9375H5.19922L9.29688 1.25781C9.38487 1.15727 9.49333 1.0767 9.615 1.0215C9.73668 0.966302 9.86874 0.937744 10.0023 0.937744C10.136 0.937744 10.268 0.966302 10.3897 1.0215C10.5114 1.0767 10.6198 1.15727 10.7078 1.25781L14.8008 5.9375H17.5C17.7225 5.93767 17.9424 5.98536 18.145 6.07738C18.3476 6.1694 18.5282 6.30363 18.6747 6.47109C18.8213 6.63854 18.9303 6.83536 18.9946 7.04838C19.059 7.26139 19.077 7.48569 19.0477 7.70625H19.0484ZM7.69141 5.9375H12.3094L10 3.29844L7.69141 5.9375ZM17.1445 7.8125H2.85703L3.85703 15.3125H16.143L17.1445 7.8125ZM13.1313 9.90703L12.8188 13.032C12.7941 13.2794 12.8688 13.5265 13.0262 13.7188C13.1837 13.9112 13.4112 14.0331 13.6586 14.0578C13.6898 14.0578 13.7219 14.0625 13.7531 14.0625C13.9854 14.0621 14.2092 13.9755 14.3813 13.8195C14.5533 13.6634 14.6613 13.4491 14.6844 13.218L14.9969 10.093C15.0106 9.96968 14.9998 9.84489 14.965 9.72583C14.9302 9.60676 14.8721 9.49579 14.7941 9.39934C14.7161 9.30289 14.6197 9.22288 14.5105 9.16396C14.4014 9.10503 14.2816 9.06835 14.1581 9.05605C14.0347 9.04374 13.9101 9.05606 13.7914 9.09229C13.6728 9.12851 13.5625 9.18792 13.467 9.26708C13.3715 9.34623 13.2926 9.44355 13.235 9.5534C13.1773 9.66326 13.1421 9.78345 13.1313 9.90703ZM6.87188 9.90703C6.8445 9.66184 6.72157 9.43733 6.52975 9.28218C6.33793 9.12702 6.09269 9.05373 5.84719 9.0782C5.6017 9.10267 5.37574 9.22292 5.21832 9.41288C5.0609 9.60284 4.9847 9.8472 5.00625 10.093L5.31875 13.218C5.34178 13.4491 5.44979 13.6634 5.62184 13.8195C5.79389 13.9755 6.01774 14.0621 6.25 14.0625C6.28047 14.0625 6.3125 14.0625 6.34375 14.0578C6.59114 14.0331 6.8186 13.9112 6.9761 13.7188C7.1336 13.5265 7.20823 13.2794 7.18359 13.032L6.87188 9.90703Z" fill="#191F2E"/>
</svg>
