<svg width="20" height="20" viewBox="0 0 20 20" fill="none" xmlns="http://www.w3.org/2000/svg">
<path d="M10 1.875C8.39303 1.875 6.82214 2.35152 5.486 3.24431C4.14985 4.1371 3.10844 5.40605 2.49348 6.8907C1.87852 8.37535 1.71762 10.009 2.03112 11.5851C2.34463 13.1612 3.11846 14.6089 4.25476 15.7452C5.39106 16.8815 6.8388 17.6554 8.4149 17.9689C9.99099 18.2824 11.6247 18.1215 13.1093 17.5065C14.594 16.8916 15.8629 15.8502 16.7557 14.514C17.6485 13.1779 18.125 11.607 18.125 10C18.1227 7.84581 17.266 5.78051 15.7427 4.25727C14.2195 2.73403 12.1542 1.87727 10 1.875ZM4.6875 5.63828C5.56469 6.70018 6.0994 8.00304 6.2211 9.375H3.15391C3.27724 8.00343 3.81176 6.70105 4.6875 5.63828ZM10.625 9.375V3.15391C12.0262 3.28081 13.3542 3.8365 14.4281 4.74531C13.3174 6.04694 12.6503 7.66858 12.5234 9.375H10.625ZM9.375 9.375H7.47657C7.34975 7.66858 6.6826 6.04694 5.57188 4.74531C6.64585 3.8365 7.97384 3.28081 9.375 3.15391V9.375ZM6.2211 10.625C6.0994 11.997 5.56469 13.2998 4.6875 14.3617C3.81176 13.299 3.27724 11.9966 3.15391 10.625H6.2211ZM7.47657 10.625H9.375V16.8461C7.97384 16.7192 6.64585 16.1635 5.57188 15.2547C6.68246 13.953 7.34959 12.3314 7.47657 10.625ZM10.625 10.625H12.5234C12.6504 12.3314 13.3176 13.953 14.4281 15.2547C13.3542 16.1635 12.0262 16.7192 10.625 16.8461V10.625ZM13.7789 10.625H16.8461C16.7228 11.9966 16.1883 13.299 15.3125 14.3617C14.4353 13.2998 13.9006 11.997 13.7789 10.625ZM13.7789 9.375C13.9006 8.00304 14.4353 6.70018 15.3125 5.63828C16.1883 6.70105 16.7228 8.00343 16.8461 9.375H13.7789Z" fill="#191F2E"/>
</svg>
