<svg width="20" height="20" viewBox="0 0 20 20" fill="none" xmlns="http://www.w3.org/2000/svg">
<path d="M4.96879 3.62405C6.14051 2.69545 7.54678 2.10996 9.03129 1.93265C9.07518 1.92768 9.11963 1.93207 9.1617 1.94553C9.20377 1.959 9.24251 1.98123 9.27536 2.01075C9.30821 2.04028 9.33443 2.07644 9.35229 2.11685C9.37014 2.15725 9.37923 2.20098 9.37895 2.24515V9.37484H7.4766C7.3213 7.36249 6.42095 5.48043 4.9516 4.09671C4.91873 4.06616 4.89283 4.02889 4.87565 3.98743C4.85847 3.94597 4.85042 3.9013 4.85205 3.85645C4.85368 3.8116 4.86495 3.76763 4.8851 3.72753C4.90524 3.68743 4.93379 3.65214 4.96879 3.62405ZM3.59379 5.00531C2.68251 6.1683 2.10726 7.55873 1.93051 9.02562C1.9253 9.06963 1.92951 9.11425 1.94287 9.15651C1.95622 9.19877 1.97842 9.2377 2.00797 9.27073C2.03753 9.30376 2.07377 9.33012 2.11429 9.34807C2.15481 9.36602 2.19869 9.37514 2.24301 9.37484H6.22114C6.06697 7.68882 5.29513 6.11927 4.05395 4.9678C4.02215 4.9382 3.98454 4.91554 3.9435 4.90129C3.90246 4.88704 3.8589 4.8815 3.8156 4.88503C3.7723 4.88856 3.73021 4.90108 3.69202 4.92179C3.65383 4.9425 3.62037 4.97094 3.59379 5.00531ZM15.0313 3.62405C13.8596 2.69545 12.4533 2.10996 10.9688 1.93265C10.9249 1.92768 10.8805 1.93207 10.8384 1.94553C10.7963 1.959 10.7576 1.98123 10.7247 2.01075C10.6919 2.04028 10.6657 2.07644 10.6478 2.11685C10.6299 2.15725 10.6209 2.20098 10.6211 2.24515V9.37484H12.5196C12.6749 7.36249 13.5752 5.48043 15.0446 4.09671C15.0777 4.06643 15.1039 4.02938 15.1214 3.98808C15.1389 3.94678 15.1473 3.90219 15.146 3.85735C15.1448 3.8125 15.1339 3.76846 15.1141 3.7282C15.0943 3.68795 15.066 3.65243 15.0313 3.62405ZM18.0672 9.02562C17.8912 7.55897 17.3167 6.16856 16.4063 5.00531C16.3797 4.97131 16.3464 4.94318 16.3084 4.9227C16.2704 4.90222 16.2286 4.88983 16.1856 4.8863C16.1426 4.88278 16.0993 4.8882 16.0585 4.90223C16.0177 4.91626 15.9802 4.93858 15.9485 4.9678C14.7064 6.1189 13.9337 7.6885 13.7789 9.37484H17.7563C17.8005 9.37492 17.8442 9.36563 17.8845 9.34759C17.9249 9.32954 17.9609 9.30315 17.9903 9.27014C18.0197 9.23714 18.0417 9.19828 18.055 9.15613C18.0682 9.11398 18.0724 9.0695 18.0672 9.02562ZM1.93285 10.9741C2.10892 12.4407 2.68335 13.8311 3.59379 14.9944C3.62037 15.0284 3.6537 15.0565 3.69168 15.077C3.72966 15.0975 3.77148 15.1098 3.81449 15.1134C3.8575 15.1169 3.90077 15.1115 3.94158 15.0974C3.98239 15.0834 4.01985 15.0611 4.0516 15.0319C5.29365 13.8808 6.06635 12.3112 6.22114 10.6248H2.24379C2.1996 10.6248 2.1559 10.634 2.11557 10.6521C2.07523 10.6701 2.03918 10.6965 2.0098 10.7295C1.98041 10.7625 1.95836 10.8014 1.9451 10.8435C1.93184 10.8857 1.92766 10.9302 1.93285 10.9741ZM16.4063 14.9944C17.3176 13.8314 17.8928 12.4409 18.0696 10.9741C18.0748 10.93 18.0706 10.8854 18.0572 10.8432C18.0439 10.8009 18.0217 10.762 17.9921 10.7289C17.9626 10.6959 17.9263 10.6695 17.8858 10.6516C17.8453 10.6337 17.8014 10.6245 17.7571 10.6248H13.7789C13.9331 12.3108 14.705 13.8804 15.9461 15.0319C15.9779 15.0615 16.0155 15.0841 16.0566 15.0984C16.0976 15.1126 16.1412 15.1182 16.1845 15.1146C16.2278 15.1111 16.2699 15.0986 16.3081 15.0779C16.3463 15.0572 16.3797 15.0287 16.4063 14.9944ZM4.96879 16.3756C6.14051 17.3042 7.54678 17.8897 9.03129 18.067C9.07518 18.072 9.11963 18.0676 9.1617 18.0541C9.20377 18.0407 9.24251 18.0184 9.27536 17.9889C9.30821 17.9594 9.33443 17.9232 9.35229 17.8828C9.37014 17.8424 9.37923 17.7987 9.37895 17.7545V10.6248H7.4766C7.3213 12.6372 6.42095 14.5192 4.9516 15.903C4.91873 15.9335 4.89283 15.9708 4.87565 16.0122C4.85847 16.0537 4.85042 16.0984 4.85205 16.1432C4.85368 16.1881 4.86495 16.232 4.8851 16.2721C4.90524 16.3122 4.93379 16.3475 4.96879 16.3756ZM12.5235 10.6248H10.625V17.7561C10.6248 17.8003 10.6338 17.844 10.6517 17.8844C10.6696 17.9248 10.6958 17.961 10.7286 17.9905C10.7615 18.02 10.8002 18.0422 10.8423 18.0557C10.8844 18.0692 10.9288 18.0736 10.9727 18.0686C12.4572 17.8913 13.8635 17.3058 15.0352 16.3772C15.0702 16.3491 15.0987 16.3138 15.1189 16.2737C15.139 16.2336 15.1503 16.1896 15.1519 16.1448C15.1536 16.0999 15.1455 16.0553 15.1283 16.0138C15.1112 15.9723 15.0853 15.9351 15.0524 15.9045C13.5813 14.521 12.6794 12.6383 12.5235 10.6248Z" fill="#191F2E"/>
</svg>
