<svg width="20" height="20" viewBox="0 0 20 20" fill="none" xmlns="http://www.w3.org/2000/svg">
<path d="M18.4375 6.67659C18.3205 6.54297 18.1764 6.43582 18.0147 6.36226C17.8531 6.28871 17.6776 6.25045 17.5 6.25003H14.6586L10.4687 1.46331C10.4101 1.39681 10.338 1.34354 10.2571 1.30706C10.1763 1.27058 10.0887 1.25171 10 1.25171C9.91132 1.25171 9.82367 1.27058 9.74285 1.30706C9.66203 1.34354 9.5899 1.39681 9.53125 1.46331L5.3414 6.25003H2.49999C2.32192 6.25003 2.1459 6.28808 1.98373 6.36163C1.82156 6.43518 1.67697 6.54253 1.55965 6.67649C1.44233 6.81046 1.35499 6.96794 1.30347 7.1384C1.25195 7.30886 1.23745 7.48836 1.26093 7.66487L2.34374 15.7907C2.38389 16.091 2.53174 16.3665 2.7598 16.5659C2.98786 16.7654 3.28061 16.8752 3.58359 16.875H16.4164C16.7194 16.8752 17.0121 16.7654 17.2402 16.5659C17.4682 16.3665 17.6161 16.091 17.6562 15.7907L18.7398 7.66565C18.7629 7.48877 18.7479 7.30898 18.6958 7.13839C18.6436 6.96779 18.5555 6.81033 18.4375 6.67659ZM6.37499 14.375C6.35392 14.3762 6.33279 14.3762 6.31171 14.375C6.15623 14.3758 6.00605 14.3186 5.89048 14.2146C5.77491 14.1106 5.70226 13.9672 5.68671 13.8125L5.24921 9.43753C5.23264 9.2726 5.28226 9.10784 5.38716 8.97949C5.49207 8.85115 5.64366 8.76973 5.80859 8.75315C5.97352 8.73658 6.13828 8.7862 6.26663 8.8911C6.39497 8.99601 6.47639 9.1476 6.49296 9.31253L6.93046 13.6875C6.94797 13.8524 6.89928 14.0174 6.79511 14.1463C6.69094 14.2752 6.53982 14.3575 6.37499 14.375ZM10.625 13.75C10.625 13.9158 10.5591 14.0748 10.4419 14.192C10.3247 14.3092 10.1658 14.375 10 14.375C9.83423 14.375 9.67526 14.3092 9.55805 14.192C9.44084 14.0748 9.375 13.9158 9.375 13.75V9.37503C9.375 9.20927 9.44084 9.0503 9.55805 8.93309C9.67526 8.81588 9.83423 8.75003 10 8.75003C10.1658 8.75003 10.3247 8.81588 10.4419 8.93309C10.5591 9.0503 10.625 9.20927 10.625 9.37503V13.75ZM7.00234 6.25003L10 2.82425L12.9977 6.25003H7.00234ZM14.7469 9.43753L14.3094 13.8125C14.2939 13.9666 14.2218 14.1094 14.1071 14.2133C13.9923 14.3172 13.8431 14.3748 13.6883 14.375C13.6672 14.3762 13.6461 14.3762 13.625 14.375C13.5433 14.3668 13.4641 14.3426 13.3918 14.3038C13.3195 14.2649 13.2555 14.2122 13.2036 14.1487C13.1516 14.0851 13.1127 14.012 13.089 13.9334C13.0654 13.8548 13.0574 13.7723 13.0656 13.6907L13.5031 9.31565C13.5197 9.15072 13.6011 8.99913 13.7295 8.89423C13.8578 8.78932 14.0226 8.7397 14.1875 8.75628C14.3524 8.77286 14.504 8.85427 14.6089 8.98262C14.7138 9.11096 14.7634 9.27572 14.7469 9.44065V9.43753Z" fill="#191F2E"/>
</svg>
