<svg width="20" height="20" viewBox="0 0 20 20" fill="none" xmlns="http://www.w3.org/2000/svg">
<path d="M18.125 7.50003H16.875C16.875 7.33427 16.8092 7.1753 16.6919 7.05809C16.5747 6.94088 16.4158 6.87503 16.25 6.87503H10.625C10.4592 6.87503 10.3003 6.94088 10.1831 7.05809C10.0658 7.1753 10 7.33427 10 7.50003H5V4.06253C5 3.81389 5.09877 3.57543 5.27459 3.39962C5.4504 3.2238 5.68886 3.12503 5.9375 3.12503C6.15723 3.12413 6.37077 3.19772 6.5433 3.33378C6.71583 3.46985 6.83716 3.66036 6.8875 3.87425C6.92183 4.03531 7.01835 4.17632 7.15607 4.26662C7.2938 4.35692 7.46159 4.38921 7.62299 4.35648C7.78439 4.32375 7.92635 4.22864 8.01801 4.09182C8.10967 3.955 8.14363 3.78753 8.1125 3.62581C8.00638 3.12847 7.73218 2.68288 7.33605 2.364C6.93991 2.04513 6.44602 1.87245 5.9375 1.87503C5.35734 1.87503 4.80094 2.1055 4.3907 2.51573C3.98047 2.92597 3.75 3.48237 3.75 4.06253V7.50003H1.875C1.54348 7.50003 1.22554 7.63172 0.991117 7.86615C0.756696 8.10057 0.625 8.41851 0.625 8.75003V11.25C0.626241 12.41 1.08758 13.522 1.90778 14.3423C2.72798 15.1625 3.84006 15.6238 5 15.625V16.875C5 17.0408 5.06585 17.1998 5.18306 17.317C5.30027 17.4342 5.45924 17.5 5.625 17.5C5.79076 17.5 5.94973 17.4342 6.06694 17.317C6.18415 17.1998 6.25 17.0408 6.25 16.875V15.625H13.75V16.875C13.75 17.0408 13.8158 17.1998 13.9331 17.317C14.0503 17.4342 14.2092 17.5 14.375 17.5C14.5408 17.5 14.6997 17.4342 14.8169 17.317C14.9342 17.1998 15 17.0408 15 16.875V15.625C16.1599 15.6238 17.272 15.1625 18.0922 14.3423C18.9124 13.522 19.3738 12.41 19.375 11.25V8.75003C19.375 8.41851 19.2433 8.10057 19.0089 7.86615C18.7745 7.63172 18.4565 7.50003 18.125 7.50003ZM15.625 11.25H11.25V8.12503H15.625V11.25Z" fill="#191F2E"/>
</svg>
