<svg width="20" height="20" viewBox="0 0 20 20" fill="none" xmlns="http://www.w3.org/2000/svg">
<path d="M7.1875 0.9375C7.1875 0.68886 7.28627 0.450403 7.46209 0.274587C7.6379 0.098772 7.87636 0 8.125 0L11.875 0C12.1236 0 12.3621 0.098772 12.5379 0.274587C12.7137 0.450403 12.8125 0.68886 12.8125 0.9375C12.8125 1.18614 12.7137 1.4246 12.5379 1.60041C12.3621 1.77623 12.1236 1.875 11.875 1.875H8.125C7.87636 1.875 7.6379 1.77623 7.46209 1.60041C7.28627 1.4246 7.1875 1.18614 7.1875 0.9375ZM15.9375 4.6875V17.8125C15.9375 18.3927 15.707 18.9491 15.2968 19.3593C14.8866 19.7695 14.3302 20 13.75 20H6.25C5.66984 20 5.11344 19.7695 4.7032 19.3593C4.29297 18.9491 4.0625 18.3927 4.0625 17.8125V4.6875C4.0625 4.10734 4.29297 3.55094 4.7032 3.1407C5.11344 2.73047 5.66984 2.5 6.25 2.5H13.75C14.3302 2.5 14.8866 2.73047 15.2968 3.1407C15.707 3.55094 15.9375 4.10734 15.9375 4.6875ZM14.0625 4.6875C14.0625 4.60462 14.0296 4.52513 13.971 4.46653C13.9124 4.40792 13.8329 4.375 13.75 4.375H6.25C6.16712 4.375 6.08763 4.40792 6.02903 4.46653C5.97042 4.52513 5.9375 4.60462 5.9375 4.6875V17.8125C5.9375 17.8954 5.97042 17.9749 6.02903 18.0335C6.08763 18.0921 6.16712 18.125 6.25 18.125H13.75C13.8329 18.125 13.9124 18.0921 13.971 18.0335C14.0296 17.9749 14.0625 17.8954 14.0625 17.8125V4.6875ZM12.1875 11.875H7.8125C7.56386 11.875 7.3254 11.9738 7.14959 12.1496C6.97377 12.3254 6.875 12.5639 6.875 12.8125C6.875 13.0611 6.97377 13.2996 7.14959 13.4754C7.3254 13.6512 7.56386 13.75 7.8125 13.75H12.1875C12.4361 13.75 12.6746 13.6512 12.8504 13.4754C13.0262 13.2996 13.125 13.0611 13.125 12.8125C13.125 12.5639 13.0262 12.3254 12.8504 12.1496C12.6746 11.9738 12.4361 11.875 12.1875 11.875ZM12.1875 15H7.8125C7.56386 15 7.3254 15.0988 7.14959 15.2746C6.97377 15.4504 6.875 15.6889 6.875 15.9375C6.875 16.1861 6.97377 16.4246 7.14959 16.6004C7.3254 16.7762 7.56386 16.875 7.8125 16.875H12.1875C12.4361 16.875 12.6746 16.7762 12.8504 16.6004C13.0262 16.4246 13.125 16.1861 13.125 15.9375C13.125 15.6889 13.0262 15.4504 12.8504 15.2746C12.6746 15.0988 12.4361 15 12.1875 15Z" fill="#191F2E"/>
</svg>
