<svg width="20" height="20" viewBox="0 0 20 20" fill="none" xmlns="http://www.w3.org/2000/svg">
<path d="M20 7.5V12.5C20 12.6658 19.9342 12.8247 19.8169 12.9419C19.6997 13.0592 19.5408 13.125 19.375 13.125C19.2092 13.125 19.0503 13.0592 18.9331 12.9419C18.8158 12.8247 18.75 12.6658 18.75 12.5V7.5C18.75 7.33424 18.8158 7.17527 18.9331 7.05806C19.0503 6.94085 19.2092 6.875 19.375 6.875C19.5408 6.875 19.6997 6.94085 19.8169 7.05806C19.9342 7.17527 20 7.33424 20 7.5ZM17.5 6.25V13.75C17.5 14.2473 17.3025 14.7242 16.9508 15.0758C16.5992 15.4275 16.1223 15.625 15.625 15.625H2.5C2.00272 15.625 1.52581 15.4275 1.17417 15.0758C0.822544 14.7242 0.625 14.2473 0.625 13.75V6.25C0.625 5.75272 0.822544 5.27581 1.17417 4.92417C1.52581 4.57254 2.00272 4.375 2.5 4.375H15.625C16.1223 4.375 16.5992 4.57254 16.9508 4.92417C17.3025 5.27581 17.5 5.75272 17.5 6.25ZM10.8445 9.67109C10.7884 9.58048 10.7101 9.5057 10.617 9.45388C10.5239 9.40205 10.4191 9.3749 10.3125 9.375H8.82344L9.62188 7.77969C9.6586 7.70623 9.6805 7.62626 9.68633 7.54433C9.69215 7.46241 9.68178 7.38015 9.65581 7.30223C9.62984 7.22432 9.58877 7.15228 9.53496 7.09024C9.48115 7.02819 9.41565 6.97735 9.34219 6.94062C9.26873 6.9039 9.18876 6.88199 9.10683 6.87617C9.02491 6.87035 8.94265 6.88072 8.86473 6.90669C8.78682 6.93266 8.71478 6.97373 8.65274 7.02754C8.59069 7.08135 8.53985 7.14685 8.50312 7.22031L7.25312 9.72031C7.20543 9.81563 7.1829 9.92157 7.18768 10.0281C7.19247 10.1345 7.2244 10.238 7.28046 10.3287C7.33652 10.4193 7.41483 10.4942 7.50795 10.546C7.60107 10.5979 7.70591 10.6251 7.8125 10.625H9.30156L8.50312 12.2203C8.4664 12.2938 8.4445 12.3737 8.43867 12.4557C8.43285 12.5376 8.44322 12.6199 8.46919 12.6978C8.49516 12.7757 8.53623 12.8477 8.59004 12.9098C8.64385 12.9718 8.70935 13.0226 8.78281 13.0594C8.93117 13.1336 9.10291 13.1458 9.26027 13.0933C9.33818 13.0673 9.41022 13.0263 9.47226 12.9725C9.53431 12.9186 9.58515 12.8531 9.62188 12.7797L10.8719 10.2797C10.9196 10.1843 10.9422 10.0784 10.9374 9.97183C10.9326 9.86531 10.9006 9.76178 10.8445 9.67109Z" fill="#191F2E"/>
</svg>
