<svg width="20" height="20" viewBox="0 0 20 20" fill="none" xmlns="http://www.w3.org/2000/svg">
<path d="M11.782 10.2961C11.8381 10.3868 11.8701 10.4903 11.8749 10.5968C11.8797 10.7034 11.8571 10.8093 11.8094 10.9047L10.5594 13.4047C10.4852 13.553 10.3551 13.6659 10.1978 13.7183C10.0404 13.7708 9.86867 13.7586 9.72031 13.6844C9.57196 13.6102 9.45914 13.4801 9.40669 13.3228C9.35424 13.1654 9.36645 12.9937 9.44062 12.8453L10.2391 11.25H8.75C8.64341 11.2501 8.53857 11.2229 8.44545 11.171C8.35233 11.1192 8.27402 11.0443 8.21796 10.9537C8.1619 10.863 8.12997 10.7595 8.12518 10.6531C8.1204 10.5466 8.14293 10.4406 8.19062 10.3453L9.44062 7.84531C9.5148 7.69696 9.64488 7.58414 9.80223 7.53169C9.95959 7.47924 10.1313 7.49145 10.2797 7.56562C10.428 7.6398 10.5409 7.76988 10.5933 7.92723C10.6458 8.08459 10.6336 8.25633 10.5594 8.40469L9.76094 10H11.25C11.3566 9.9999 11.4614 10.0271 11.5545 10.0789C11.6476 10.1307 11.7259 10.2055 11.782 10.2961ZM7.5 1.25H12.5C12.6658 1.25 12.8247 1.18415 12.9419 1.06694C13.0592 0.949732 13.125 0.79076 13.125 0.625C13.125 0.45924 13.0592 0.300269 12.9419 0.183058C12.8247 0.065848 12.6658 0 12.5 0L7.5 0C7.33424 0 7.17527 0.065848 7.05806 0.183058C6.94085 0.300269 6.875 0.45924 6.875 0.625C6.875 0.79076 6.94085 0.949732 7.05806 1.06694C7.17527 1.18415 7.33424 1.25 7.5 1.25ZM15.625 4.375V17.5C15.625 17.9973 15.4275 18.4742 15.0758 18.8258C14.7242 19.1775 14.2473 19.375 13.75 19.375H6.25C5.75272 19.375 5.27581 19.1775 4.92417 18.8258C4.57254 18.4742 4.375 17.9973 4.375 17.5V4.375C4.375 3.87772 4.57254 3.40081 4.92417 3.04917C5.27581 2.69754 5.75272 2.5 6.25 2.5H13.75C14.2473 2.5 14.7242 2.69754 15.0758 3.04917C15.4275 3.40081 15.625 3.87772 15.625 4.375ZM14.375 4.375C14.375 4.20924 14.3092 4.05027 14.1919 3.93306C14.0747 3.81585 13.9158 3.75 13.75 3.75H6.25C6.08424 3.75 5.92527 3.81585 5.80806 3.93306C5.69085 4.05027 5.625 4.20924 5.625 4.375V17.5C5.625 17.6658 5.69085 17.8247 5.80806 17.9419C5.92527 18.0592 6.08424 18.125 6.25 18.125H13.75C13.9158 18.125 14.0747 18.0592 14.1919 17.9419C14.3092 17.8247 14.375 17.6658 14.375 17.5V4.375Z" fill="#191F2E"/>
</svg>
