<svg width="20" height="20" viewBox="0 0 20 20" fill="none" xmlns="http://www.w3.org/2000/svg">
<path d="M12.0477 10.4445C12.1317 10.5805 12.1795 10.7358 12.1866 10.8955C12.1937 11.0552 12.1599 11.2141 12.0883 11.357L10.8383 13.857C10.7843 13.9689 10.7086 14.069 10.6156 14.1514C10.5226 14.2338 10.4141 14.2969 10.2965 14.337C10.1789 14.3771 10.0545 14.3934 9.9305 14.385C9.80653 14.3766 9.68547 14.3436 9.57435 14.288C9.46323 14.2324 9.36428 14.1553 9.28324 14.0611C9.2022 13.9669 9.1407 13.8575 9.1023 13.7393C9.06391 13.6211 9.04939 13.4965 9.05959 13.3727C9.06979 13.2488 9.1045 13.1283 9.16172 13.018L9.73281 11.875H8.75C8.59018 11.875 8.43302 11.8341 8.29344 11.7563C8.15387 11.6784 8.03651 11.5662 7.95252 11.4302C7.86853 11.2942 7.82069 11.139 7.81355 10.9794C7.80641 10.8197 7.8402 10.6609 7.91172 10.518L9.16172 8.01797C9.21571 7.90606 9.29142 7.806 9.38443 7.7236C9.47744 7.64121 9.5859 7.57813 9.70351 7.53803C9.82112 7.49792 9.94552 7.4816 10.0695 7.49001C10.1935 7.49841 10.3145 7.53138 10.4257 7.58699C10.5368 7.6426 10.6357 7.71975 10.7168 7.81394C10.7978 7.90814 10.8593 8.0175 10.8977 8.13568C10.9361 8.25385 10.9506 8.37848 10.9404 8.50232C10.9302 8.62616 10.8955 8.74673 10.8383 8.85703L10.2672 10H11.25C11.4098 9.99996 11.567 10.0408 11.7066 10.1186C11.8462 10.1964 11.9636 10.3086 12.0477 10.4445ZM8.125 1.875H11.875C12.1236 1.875 12.3621 1.77623 12.5379 1.60041C12.7137 1.4246 12.8125 1.18614 12.8125 0.9375C12.8125 0.68886 12.7137 0.450403 12.5379 0.274587C12.3621 0.098772 12.1236 0 11.875 0L8.125 0C7.87636 0 7.6379 0.098772 7.46209 0.274587C7.28627 0.450403 7.1875 0.68886 7.1875 0.9375C7.1875 1.18614 7.28627 1.4246 7.46209 1.60041C7.6379 1.77623 7.87636 1.875 8.125 1.875ZM15.9375 4.6875V17.8125C15.9375 18.3927 15.707 18.9491 15.2968 19.3593C14.8866 19.7695 14.3302 20 13.75 20H6.25C5.66984 20 5.11344 19.7695 4.7032 19.3593C4.29297 18.9491 4.0625 18.3927 4.0625 17.8125V4.6875C4.0625 4.10734 4.29297 3.55094 4.7032 3.1407C5.11344 2.73047 5.66984 2.5 6.25 2.5H13.75C14.3302 2.5 14.8866 2.73047 15.2968 3.1407C15.707 3.55094 15.9375 4.10734 15.9375 4.6875ZM14.0625 4.6875C14.0625 4.60462 14.0296 4.52513 13.971 4.46653C13.9124 4.40792 13.8329 4.375 13.75 4.375H6.25C6.16712 4.375 6.08763 4.40792 6.02903 4.46653C5.97042 4.52513 5.9375 4.60462 5.9375 4.6875V17.8125C5.9375 17.8954 5.97042 17.9749 6.02903 18.0335C6.08763 18.0921 6.16712 18.125 6.25 18.125H13.75C13.8329 18.125 13.9124 18.0921 13.971 18.0335C14.0296 17.9749 14.0625 17.8954 14.0625 17.8125V4.6875Z" fill="#191F2E"/>
</svg>
