<svg width="20" height="20" viewBox="0 0 20 20" fill="none" xmlns="http://www.w3.org/2000/svg">
<path d="M15.625 4.375H2.5C2.00272 4.375 1.52581 4.57254 1.17417 4.92417C0.822544 5.27581 0.625 5.75272 0.625 6.25V13.75C0.625 14.2473 0.822544 14.7242 1.17417 15.0758C1.52581 15.4275 2.00272 15.625 2.5 15.625H15.625C16.1223 15.625 16.5992 15.4275 16.9508 15.0758C17.3025 14.7242 17.5 14.2473 17.5 13.75V6.25C17.5 5.75272 17.3025 5.27581 16.9508 4.92417C16.5992 4.57254 16.1223 4.375 15.625 4.375ZM8.4375 6.875C8.4375 6.70924 8.50335 6.55027 8.62056 6.43306C8.73777 6.31585 8.89674 6.25 9.0625 6.25C9.22826 6.25 9.38723 6.31585 9.50444 6.43306C9.62165 6.55027 9.6875 6.70924 9.6875 6.875V10C9.6875 10.1658 9.62165 10.3247 9.50444 10.4419C9.38723 10.5592 9.22826 10.625 9.0625 10.625C8.89674 10.625 8.73777 10.5592 8.62056 10.4419C8.50335 10.3247 8.4375 10.1658 8.4375 10V6.875ZM9.0625 13.75C8.87708 13.75 8.69582 13.695 8.54165 13.592C8.38748 13.489 8.26732 13.3426 8.19636 13.1713C8.12541 13 8.10684 12.8115 8.14301 12.6296C8.17919 12.4477 8.26848 12.2807 8.39959 12.1496C8.5307 12.0185 8.69775 11.9292 8.8796 11.893C9.06146 11.8568 9.24996 11.8754 9.42127 11.9464C9.59257 12.0173 9.73899 12.1375 9.842 12.2917C9.94502 12.4458 10 12.6271 10 12.8125C10 13.0611 9.90123 13.2996 9.72541 13.4754C9.5496 13.6512 9.31114 13.75 9.0625 13.75ZM20 7.5V12.5C20 12.6658 19.9342 12.8247 19.8169 12.9419C19.6997 13.0592 19.5408 13.125 19.375 13.125C19.2092 13.125 19.0503 13.0592 18.9331 12.9419C18.8158 12.8247 18.75 12.6658 18.75 12.5V7.5C18.75 7.33424 18.8158 7.17527 18.9331 7.05806C19.0503 6.94085 19.2092 6.875 19.375 6.875C19.5408 6.875 19.6997 6.94085 19.8169 7.05806C19.9342 7.17527 20 7.33424 20 7.5Z" fill="#191F2E"/>
</svg>
