<svg width="20" height="20" viewBox="0 0 20 20" fill="none" xmlns="http://www.w3.org/2000/svg">
<path d="M6.875 0.625C6.875 0.45924 6.94085 0.300269 7.05806 0.183058C7.17527 0.065848 7.33424 0 7.5 0L12.5 0C12.6658 0 12.8247 0.065848 12.9419 0.183058C13.0592 0.300269 13.125 0.45924 13.125 0.625C13.125 0.79076 13.0592 0.949732 12.9419 1.06694C12.8247 1.18415 12.6658 1.25 12.5 1.25H7.5C7.33424 1.25 7.17527 1.18415 7.05806 1.06694C6.94085 0.949732 6.875 0.79076 6.875 0.625ZM15.625 4.375V17.5C15.625 17.9973 15.4275 18.4742 15.0758 18.8258C14.7242 19.1775 14.2473 19.375 13.75 19.375H6.25C5.75272 19.375 5.27581 19.1775 4.92417 18.8258C4.57254 18.4742 4.375 17.9973 4.375 17.5V4.375C4.375 3.87772 4.57254 3.40081 4.92417 3.04917C5.27581 2.69754 5.75272 2.5 6.25 2.5H13.75C14.2473 2.5 14.7242 2.69754 15.0758 3.04917C15.4275 3.40081 15.625 3.87772 15.625 4.375ZM14.375 4.375C14.375 4.20924 14.3092 4.05027 14.1919 3.93306C14.0747 3.81585 13.9158 3.75 13.75 3.75H6.25C6.08424 3.75 5.92527 3.81585 5.80806 3.93306C5.69085 4.05027 5.625 4.20924 5.625 4.375V17.5C5.625 17.6658 5.69085 17.8247 5.80806 17.9419C5.92527 18.0592 6.08424 18.125 6.25 18.125H13.75C13.9158 18.125 14.0747 18.0592 14.1919 17.9419C14.3092 17.8247 14.375 17.6658 14.375 17.5V4.375ZM12.5 8.75H7.5C7.33424 8.75 7.17527 8.81585 7.05806 8.93306C6.94085 9.05027 6.875 9.20924 6.875 9.375C6.875 9.54076 6.94085 9.69973 7.05806 9.81694C7.17527 9.93415 7.33424 10 7.5 10H12.5C12.6658 10 12.8247 9.93415 12.9419 9.81694C13.0592 9.69973 13.125 9.54076 13.125 9.375C13.125 9.20924 13.0592 9.05027 12.9419 8.93306C12.8247 8.81585 12.6658 8.75 12.5 8.75ZM12.5 11.875H7.5C7.33424 11.875 7.17527 11.9408 7.05806 12.0581C6.94085 12.1753 6.875 12.3342 6.875 12.5C6.875 12.6658 6.94085 12.8247 7.05806 12.9419C7.17527 13.0592 7.33424 13.125 7.5 13.125H12.5C12.6658 13.125 12.8247 13.0592 12.9419 12.9419C13.0592 12.8247 13.125 12.6658 13.125 12.5C13.125 12.3342 13.0592 12.1753 12.9419 12.0581C12.8247 11.9408 12.6658 11.875 12.5 11.875ZM12.5 15H7.5C7.33424 15 7.17527 15.0658 7.05806 15.1831C6.94085 15.3003 6.875 15.4592 6.875 15.625C6.875 15.7908 6.94085 15.9497 7.05806 16.0669C7.17527 16.1842 7.33424 16.25 7.5 16.25H12.5C12.6658 16.25 12.8247 16.1842 12.9419 16.0669C13.0592 15.9497 13.125 15.7908 13.125 15.625C13.125 15.4592 13.0592 15.3003 12.9419 15.1831C12.8247 15.0658 12.6658 15 12.5 15Z" fill="#191F2E"/>
</svg>
