<svg width="20" height="20" viewBox="0 0 20 20" fill="none" xmlns="http://www.w3.org/2000/svg">
<path d="M6.875 0.625C6.875 0.45924 6.94085 0.300269 7.05806 0.183058C7.17527 0.065848 7.33424 0 7.5 0L12.5 0C12.6658 0 12.8247 0.065848 12.9419 0.183058C13.0592 0.300269 13.125 0.45924 13.125 0.625C13.125 0.79076 13.0592 0.949732 12.9419 1.06694C12.8247 1.18415 12.6658 1.25 12.5 1.25H7.5C7.33424 1.25 7.17527 1.18415 7.05806 1.06694C6.94085 0.949732 6.875 0.79076 6.875 0.625ZM15.625 4.375V17.5C15.625 17.9973 15.4275 18.4742 15.0758 18.8258C14.7242 19.1775 14.2473 19.375 13.75 19.375H6.25C5.75272 19.375 5.27581 19.1775 4.92417 18.8258C4.57254 18.4742 4.375 17.9973 4.375 17.5V4.375C4.375 3.87772 4.57254 3.40081 4.92417 3.04917C5.27581 2.69754 5.75272 2.5 6.25 2.5H13.75C14.2473 2.5 14.7242 2.69754 15.0758 3.04917C15.4275 3.40081 15.625 3.87772 15.625 4.375ZM9.375 10.625C9.375 10.7908 9.44085 10.9497 9.55806 11.0669C9.67527 11.1842 9.83424 11.25 10 11.25C10.1658 11.25 10.3247 11.1842 10.4419 11.0669C10.5592 10.9497 10.625 10.7908 10.625 10.625V7.5C10.625 7.33424 10.5592 7.17527 10.4419 7.05806C10.3247 6.94085 10.1658 6.875 10 6.875C9.83424 6.875 9.67527 6.94085 9.55806 7.05806C9.44085 7.17527 9.375 7.33424 9.375 7.5V10.625ZM10.9375 13.4375C10.9375 13.2521 10.8825 13.0708 10.7795 12.9167C10.6765 12.7625 10.5301 12.6423 10.3588 12.5714C10.1875 12.5004 9.99896 12.4818 9.8171 12.518C9.63525 12.5542 9.4682 12.6435 9.33709 12.7746C9.20598 12.9057 9.11669 13.0727 9.08051 13.2546C9.04434 13.4365 9.06291 13.625 9.13386 13.7963C9.20482 13.9676 9.32498 14.114 9.47915 14.217C9.63332 14.32 9.81458 14.375 10 14.375C10.2486 14.375 10.4871 14.2762 10.6629 14.1004C10.8387 13.9246 10.9375 13.6861 10.9375 13.4375Z" fill="#191F2E"/>
</svg>
