<svg width="20" height="20" viewBox="0 0 20 20" fill="none" xmlns="http://www.w3.org/2000/svg">
<path d="M6.875 0.625C6.875 0.45924 6.94085 0.300269 7.05806 0.183058C7.17527 0.065848 7.33424 0 7.5 0L12.5 0C12.6658 0 12.8247 0.065848 12.9419 0.183058C13.0592 0.300269 13.125 0.45924 13.125 0.625C13.125 0.79076 13.0592 0.949732 12.9419 1.06694C12.8247 1.18415 12.6658 1.25 12.5 1.25H7.5C7.33424 1.25 7.17527 1.18415 7.05806 1.06694C6.94085 0.949732 6.875 0.79076 6.875 0.625ZM12.5 8.125H7.5C7.33424 8.125 7.17527 8.19085 7.05806 8.30806C6.94085 8.42527 6.875 8.58424 6.875 8.75V16.25C6.875 16.4158 6.94085 16.5747 7.05806 16.6919C7.17527 16.8092 7.33424 16.875 7.5 16.875H12.5C12.6658 16.875 12.8247 16.8092 12.9419 16.6919C13.0592 16.5747 13.125 16.4158 13.125 16.25V8.75C13.125 8.58424 13.0592 8.42527 12.9419 8.30806C12.8247 8.19085 12.6658 8.125 12.5 8.125ZM15.625 4.375V17.5C15.625 17.9973 15.4275 18.4742 15.0758 18.8258C14.7242 19.1775 14.2473 19.375 13.75 19.375H6.25C5.75272 19.375 5.27581 19.1775 4.92417 18.8258C4.57254 18.4742 4.375 17.9973 4.375 17.5V4.375C4.375 3.87772 4.57254 3.40081 4.92417 3.04917C5.27581 2.69754 5.75272 2.5 6.25 2.5H13.75C14.2473 2.5 14.7242 2.69754 15.0758 3.04917C15.4275 3.40081 15.625 3.87772 15.625 4.375ZM14.375 4.375C14.375 4.20924 14.3092 4.05027 14.1919 3.93306C14.0747 3.81585 13.9158 3.75 13.75 3.75H6.25C6.08424 3.75 5.92527 3.81585 5.80806 3.93306C5.69085 4.05027 5.625 4.20924 5.625 4.375V17.5C5.625 17.6658 5.69085 17.8247 5.80806 17.9419C5.92527 18.0592 6.08424 18.125 6.25 18.125H13.75C13.9158 18.125 14.0747 18.0592 14.1919 17.9419C14.3092 17.8247 14.375 17.6658 14.375 17.5V4.375Z" fill="#191F2E"/>
</svg>
