<svg width="20" height="20" viewBox="0 0 20 20" fill="none" xmlns="http://www.w3.org/2000/svg">
<path d="M15.3125 4.0625H2.1875C1.60734 4.0625 1.05094 4.29297 0.640704 4.7032C0.230468 5.11344 0 5.66984 0 6.25L0 13.75C0 14.3302 0.230468 14.8866 0.640704 15.2968C1.05094 15.707 1.60734 15.9375 2.1875 15.9375H15.3125C15.8927 15.9375 16.4491 15.707 16.8593 15.2968C17.2695 14.8866 17.5 14.3302 17.5 13.75V6.25C17.5 5.66984 17.2695 5.11344 16.8593 4.7032C16.4491 4.29297 15.8927 4.0625 15.3125 4.0625ZM15.625 13.75C15.625 13.8329 15.5921 13.9124 15.5335 13.971C15.4749 14.0296 15.3954 14.0625 15.3125 14.0625H2.1875C2.10462 14.0625 2.02513 14.0296 1.96653 13.971C1.90792 13.9124 1.875 13.8329 1.875 13.75V6.25C1.875 6.16712 1.90792 6.08763 1.96653 6.02903C2.02513 5.97042 2.10462 5.9375 2.1875 5.9375H15.3125C15.3954 5.9375 15.4749 5.97042 15.5335 6.02903C15.5921 6.08763 15.625 6.16712 15.625 6.25V13.75ZM20 8.125V11.875C20 12.1236 19.9012 12.3621 19.7254 12.5379C19.5496 12.7137 19.3111 12.8125 19.0625 12.8125C18.8139 12.8125 18.5754 12.7137 18.3996 12.5379C18.2238 12.3621 18.125 12.1236 18.125 11.875V8.125C18.125 7.87636 18.2238 7.6379 18.3996 7.46209C18.5754 7.28627 18.8139 7.1875 19.0625 7.1875C19.3111 7.1875 19.5496 7.28627 19.7254 7.46209C19.9012 7.6379 20 7.87636 20 8.125ZM8.125 9.0625V7.8125C8.125 7.56386 8.22377 7.3254 8.39959 7.14959C8.5754 6.97377 8.81386 6.875 9.0625 6.875C9.31114 6.875 9.5496 6.97377 9.72541 7.14959C9.90123 7.3254 10 7.56386 10 7.8125V9.0625C10 9.31114 9.90123 9.5496 9.72541 9.72541C9.5496 9.90123 9.31114 10 9.0625 10C8.81386 10 8.5754 9.90123 8.39959 9.72541C8.22377 9.5496 8.125 9.31114 8.125 9.0625ZM10.3125 11.875C10.3125 12.1222 10.2392 12.3639 10.1018 12.5695C9.96449 12.775 9.76926 12.9352 9.54085 13.0299C9.31245 13.1245 9.06111 13.1492 8.81864 13.101C8.57616 13.0528 8.35343 12.9337 8.17862 12.7589C8.0038 12.5841 7.88475 12.3613 7.83652 12.1189C7.78829 11.8764 7.81304 11.6251 7.90765 11.3966C8.00226 11.1682 8.16248 10.973 8.36804 10.8357C8.5736 10.6983 8.81527 10.625 9.0625 10.625C9.39402 10.625 9.71196 10.7567 9.94638 10.9911C10.1808 11.2255 10.3125 11.5435 10.3125 11.875Z" fill="#191F2E"/>
</svg>
