<svg width="20" height="20" viewBox="0 0 20 20" fill="none" xmlns="http://www.w3.org/2000/svg">
<path d="M9.375 10.625V7.5C9.375 7.33424 9.44085 7.17527 9.55806 7.05806C9.67527 6.94085 9.83424 6.875 10 6.875C10.1658 6.875 10.3247 6.94085 10.4419 7.05806C10.5592 7.17527 10.625 7.33424 10.625 7.5V10.625C10.625 10.7908 10.5592 10.9497 10.4419 11.0669C10.3247 11.1842 10.1658 11.25 10 11.25C9.83424 11.25 9.67527 11.1842 9.55806 11.0669C9.44085 10.9497 9.375 10.7908 9.375 10.625ZM10 12.5C9.81458 12.5 9.63332 12.555 9.47915 12.658C9.32498 12.761 9.20482 12.9074 9.13386 13.0787C9.06291 13.25 9.04434 13.4385 9.08051 13.6204C9.11669 13.8023 9.20598 13.9693 9.33709 14.1004C9.4682 14.2315 9.63525 14.3208 9.8171 14.357C9.99896 14.3932 10.1875 14.3746 10.3588 14.3036C10.5301 14.2327 10.6765 14.1125 10.7795 13.9583C10.8825 13.8042 10.9375 13.6229 10.9375 13.4375C10.9375 13.1889 10.8387 12.9504 10.6629 12.7746C10.4871 12.5988 10.2486 12.5 10 12.5ZM7.5 1.25H12.5C12.6658 1.25 12.8247 1.18415 12.9419 1.06694C13.0592 0.949732 13.125 0.79076 13.125 0.625C13.125 0.45924 13.0592 0.300269 12.9419 0.183058C12.8247 0.065848 12.6658 0 12.5 0L7.5 0C7.33424 0 7.17527 0.065848 7.05806 0.183058C6.94085 0.300269 6.875 0.45924 6.875 0.625C6.875 0.79076 6.94085 0.949732 7.05806 1.06694C7.17527 1.18415 7.33424 1.25 7.5 1.25ZM15.625 4.375V17.5C15.625 17.9973 15.4275 18.4742 15.0758 18.8258C14.7242 19.1775 14.2473 19.375 13.75 19.375H6.25C5.75272 19.375 5.27581 19.1775 4.92417 18.8258C4.57254 18.4742 4.375 17.9973 4.375 17.5V4.375C4.375 3.87772 4.57254 3.40081 4.92417 3.04917C5.27581 2.69754 5.75272 2.5 6.25 2.5H13.75C14.2473 2.5 14.7242 2.69754 15.0758 3.04917C15.4275 3.40081 15.625 3.87772 15.625 4.375ZM14.375 4.375C14.375 4.20924 14.3092 4.05027 14.1919 3.93306C14.0747 3.81585 13.9158 3.75 13.75 3.75H6.25C6.08424 3.75 5.92527 3.81585 5.80806 3.93306C5.69085 4.05027 5.625 4.20924 5.625 4.375V17.5C5.625 17.6658 5.69085 17.8247 5.80806 17.9419C5.92527 18.0592 6.08424 18.125 6.25 18.125H13.75C13.9158 18.125 14.0747 18.0592 14.1919 17.9419C14.3092 17.8247 14.375 17.6658 14.375 17.5V4.375Z" fill="#191F2E"/>
</svg>
