<svg width="20" height="20" viewBox="0 0 20 20" fill="none" xmlns="http://www.w3.org/2000/svg">
<path d="M6.875 0.625C6.875 0.45924 6.94085 0.300269 7.05806 0.183058C7.17527 0.065848 7.33424 0 7.5 0L12.5 0C12.6658 0 12.8247 0.065848 12.9419 0.183058C13.0592 0.300269 13.125 0.45924 13.125 0.625C13.125 0.79076 13.0592 0.949732 12.9419 1.06694C12.8247 1.18415 12.6658 1.25 12.5 1.25H7.5C7.33424 1.25 7.17527 1.18415 7.05806 1.06694C6.94085 0.949732 6.875 0.79076 6.875 0.625ZM15.625 4.375V17.5C15.625 17.9973 15.4275 18.4742 15.0758 18.8258C14.7242 19.1775 14.2473 19.375 13.75 19.375H6.25C5.75272 19.375 5.27581 19.1775 4.92417 18.8258C4.57254 18.4742 4.375 17.9973 4.375 17.5V4.375C4.375 3.87772 4.57254 3.40081 4.92417 3.04917C5.27581 2.69754 5.75272 2.5 6.25 2.5H13.75C14.2473 2.5 14.7242 2.69754 15.0758 3.04917C15.4275 3.40081 15.625 3.87772 15.625 4.375ZM12.8125 10.9375C12.8125 10.7717 12.7467 10.6128 12.6294 10.4956C12.5122 10.3783 12.3533 10.3125 12.1875 10.3125H10.625V8.75C10.625 8.58424 10.5592 8.42527 10.4419 8.30806C10.3247 8.19085 10.1658 8.125 10 8.125C9.83424 8.125 9.67527 8.19085 9.55806 8.30806C9.44085 8.42527 9.375 8.58424 9.375 8.75V10.3125H7.8125C7.64674 10.3125 7.48777 10.3783 7.37056 10.4956C7.25335 10.6128 7.1875 10.7717 7.1875 10.9375C7.1875 11.1033 7.25335 11.2622 7.37056 11.3794C7.48777 11.4967 7.64674 11.5625 7.8125 11.5625H9.375V13.125C9.375 13.2908 9.44085 13.4497 9.55806 13.5669C9.67527 13.6842 9.83424 13.75 10 13.75C10.1658 13.75 10.3247 13.6842 10.4419 13.5669C10.5592 13.4497 10.625 13.2908 10.625 13.125V11.5625H12.1875C12.3533 11.5625 12.5122 11.4967 12.6294 11.3794C12.7467 11.2622 12.8125 11.1033 12.8125 10.9375Z" fill="#191F2E"/>
</svg>
