<svg width="20" height="20" viewBox="0 0 20 20" fill="none" xmlns="http://www.w3.org/2000/svg">
<path d="M8.125 8.125V14.375C8.125 14.5408 8.05915 14.6997 7.94194 14.8169C7.82473 14.9342 7.66576 15 7.5 15C7.33424 15 7.17527 14.9342 7.05806 14.8169C6.94085 14.6997 6.875 14.5408 6.875 14.375V8.125C6.875 7.95924 6.94085 7.80027 7.05806 7.68306C7.17527 7.56585 7.33424 7.5 7.5 7.5C7.66576 7.5 7.82473 7.56585 7.94194 7.68306C8.05915 7.80027 8.125 7.95924 8.125 8.125ZM11.25 7.5C11.0842 7.5 10.9253 7.56585 10.8081 7.68306C10.6908 7.80027 10.625 7.95924 10.625 8.125V14.375C10.625 14.5408 10.6908 14.6997 10.8081 14.8169C10.9253 14.9342 11.0842 15 11.25 15C11.4158 15 11.5747 14.9342 11.6919 14.8169C11.8092 14.6997 11.875 14.5408 11.875 14.375V8.125C11.875 7.95924 11.8092 7.80027 11.6919 7.68306C11.5747 7.56585 11.4158 7.5 11.25 7.5ZM18.75 8.75V13.75C18.75 14.2473 18.5525 14.7242 18.2008 15.0758C17.8492 15.4275 17.3723 15.625 16.875 15.625H15.625V16.25C15.625 16.5815 15.4933 16.8995 15.2589 17.1339C15.0245 17.3683 14.7065 17.5 14.375 17.5H4.375C4.04348 17.5 3.72554 17.3683 3.49112 17.1339C3.2567 16.8995 3.125 16.5815 3.125 16.25V5.625C3.125 3.2125 5.36797 1.25 8.125 1.25C9.43516 1.25 10.6961 1.70312 11.6266 2.5H12.5C13.3288 2.5 14.1237 2.82924 14.7097 3.41529C15.2958 4.00134 15.625 4.7962 15.625 5.625V6.875H16.875C17.3723 6.875 17.8492 7.07254 18.2008 7.42417C18.5525 7.77581 18.75 8.25272 18.75 8.75ZM4.45312 5H14.2672C14.138 4.63453 13.8987 4.31809 13.5822 4.09424C13.2657 3.87038 12.8876 3.75012 12.5 3.75H11.3859C11.225 3.74998 11.0702 3.68785 10.9539 3.57656C10.2391 2.89062 9.20859 2.5 8.125 2.5C6.31406 2.5 4.79922 3.575 4.45312 5ZM14.375 16.25V6.25H4.375V16.25H14.375ZM17.5 8.75C17.5 8.58424 17.4342 8.42527 17.3169 8.30806C17.1997 8.19085 17.0408 8.125 16.875 8.125H15.625V14.375H16.875C17.0408 14.375 17.1997 14.3092 17.3169 14.1919C17.4342 14.0747 17.5 13.9158 17.5 13.75V8.75Z" fill="#191F2E"/>
</svg>
