<svg width="20" height="20" viewBox="0 0 20 20" fill="none" xmlns="http://www.w3.org/2000/svg">
<path d="M16.875 6.5625H15.9375V5.625C15.9365 4.71364 15.574 3.83989 14.9295 3.19546C14.2851 2.55103 13.4114 2.18853 12.5 2.1875H11.7398C10.7633 1.38906 9.46719 0.9375 8.125 0.9375C5.19531 0.9375 2.8125 3.04062 2.8125 5.625V16.25C2.8125 16.6644 2.97712 17.0618 3.27015 17.3549C3.56317 17.6479 3.9606 17.8125 4.375 17.8125H14.375C14.7894 17.8125 15.1868 17.6479 15.4799 17.3549C15.7729 17.0618 15.9375 16.6644 15.9375 16.25V15.9375H16.875C17.4552 15.9375 18.0116 15.707 18.4218 15.2968C18.832 14.8866 19.0625 14.3302 19.0625 13.75V8.75C19.0625 8.16984 18.832 7.61344 18.4218 7.2032C18.0116 6.79297 17.4552 6.5625 16.875 6.5625ZM8.125 2.8125C9.12891 2.8125 10.0781 3.17344 10.7375 3.80234C10.9121 3.96937 11.1443 4.06257 11.3859 4.0625H12.5C12.8602 4.06243 13.2094 4.18681 13.4884 4.41459C13.7674 4.64238 13.9592 4.95957 14.0312 5.3125H4.70937C4.9 3.90625 6.35859 2.8125 8.125 2.8125ZM14.0625 15.9375H4.6875V7.1875H14.0625V15.9375ZM17.1875 13.75C17.1875 13.8329 17.1546 13.9124 17.096 13.971C17.0374 14.0296 16.9579 14.0625 16.875 14.0625H15.9375V8.4375H16.875C16.9579 8.4375 17.0374 8.47042 17.096 8.52903C17.1546 8.58763 17.1875 8.66712 17.1875 8.75V13.75ZM8.4375 9.375V13.75C8.4375 13.9986 8.33873 14.2371 8.16291 14.4129C7.9871 14.5887 7.74864 14.6875 7.5 14.6875C7.25136 14.6875 7.0129 14.5887 6.83709 14.4129C6.66127 14.2371 6.5625 13.9986 6.5625 13.75V9.375C6.5625 9.12636 6.66127 8.8879 6.83709 8.71209C7.0129 8.53627 7.25136 8.4375 7.5 8.4375C7.74864 8.4375 7.9871 8.53627 8.16291 8.71209C8.33873 8.8879 8.4375 9.12636 8.4375 9.375ZM12.1875 9.375V13.75C12.1875 13.9986 12.0887 14.2371 11.9129 14.4129C11.7371 14.5887 11.4986 14.6875 11.25 14.6875C11.0014 14.6875 10.7629 14.5887 10.5871 14.4129C10.4113 14.2371 10.3125 13.9986 10.3125 13.75V9.375C10.3125 9.12636 10.4113 8.8879 10.5871 8.71209C10.7629 8.53627 11.0014 8.4375 11.25 8.4375C11.4986 8.4375 11.7371 8.53627 11.9129 8.71209C12.0887 8.8879 12.1875 9.12636 12.1875 9.375Z" fill="#191F2E"/>
</svg>
