<svg width="20" height="20" viewBox="0 0 20 20" fill="none" xmlns="http://www.w3.org/2000/svg">
<path d="M19.4133 3.08673L16.9133 0.586732C16.7493 0.424169 16.5312 0.327818 16.3006 0.316142C16.07 0.304466 15.8432 0.378285 15.6637 0.523455C15.4842 0.668625 15.3645 0.874936 15.3277 1.10286C15.2909 1.33077 15.3394 1.56427 15.4641 1.75861L11.4844 4.74767L8.56797 5.33048C8.38641 5.36702 8.2196 5.45613 8.08829 5.58673L1.57813 12.0961C1.37498 12.2992 1.21383 12.5404 1.10388 12.8058C0.993936 13.0712 0.937347 13.3557 0.937347 13.643C0.937347 13.9303 0.993936 14.2147 1.10388 14.4802C1.21383 14.7456 1.37498 14.9867 1.57813 15.1899L4.81016 18.4219C5.01329 18.625 5.25445 18.7862 5.51987 18.8961C5.78528 19.0061 6.06975 19.0627 6.35704 19.0627C6.64432 19.0627 6.92879 19.0061 7.19421 18.8961C7.45962 18.7862 7.70078 18.625 7.90391 18.4219L14.4133 11.9133C14.5439 11.782 14.633 11.6152 14.6695 11.4336L15.2523 8.51564L18.2391 4.53126C18.4334 4.65592 18.6669 4.70447 18.8948 4.66764C19.1227 4.6308 19.329 4.51115 19.4742 4.33162C19.6194 4.1521 19.6932 3.92532 19.6815 3.69473C19.6699 3.46415 19.5735 3.24599 19.4109 3.08204L19.4133 3.08673ZM8.75001 14.9219L5.07813 11.25L7.50001 8.82814L11.1719 12.5L8.75001 14.9219ZM6.35704 17.1875C6.31599 17.1875 6.27533 17.1795 6.2374 17.1638C6.19946 17.1481 6.16499 17.1251 6.13594 17.0961L2.90391 13.8641C2.87486 13.8351 2.85181 13.8006 2.83608 13.7627C2.82035 13.7247 2.81226 13.684 2.81226 13.643C2.81226 13.6019 2.82035 13.5612 2.83608 13.5233C2.85181 13.4854 2.87486 13.4509 2.90391 13.4219L3.75001 12.5781L7.42188 16.25L6.57813 17.0961C6.54909 17.1251 6.51461 17.1481 6.47668 17.1638C6.43874 17.1795 6.39809 17.1875 6.35704 17.1875ZM13.6227 7.56251C13.5385 7.67456 13.4806 7.80404 13.4531 7.94142L12.8906 10.7875L12.5 11.1719L8.82813 7.50001L9.21876 7.10939L12.0648 6.54064C12.2022 6.51315 12.3317 6.45522 12.4438 6.37111L16.793 3.10861L16.8938 3.20939L13.6227 7.56251Z" fill="#191F2E"/>
</svg>
