<svg width="20" height="20" viewBox="0 0 20 20" fill="none" xmlns="http://www.w3.org/2000/svg">
<path d="M9.20469 9.48359C9.61416 9.00759 9.87847 8.42409 9.96623 7.80236C10.054 7.18063 9.96152 6.54677 9.69979 5.97602C9.43806 5.40528 9.01807 4.92161 8.48967 4.58243C7.96127 4.24325 7.34664 4.0628 6.71875 4.0625H2.5C2.25136 4.0625 2.0129 4.16127 1.83709 4.33709C1.66127 4.5129 1.5625 4.75136 1.5625 5V15C1.5625 15.2486 1.66127 15.4871 1.83709 15.6629C2.0129 15.8387 2.25136 15.9375 2.5 15.9375H7.03125C7.7832 15.937 8.51605 15.7006 9.12659 15.2617C9.73713 14.8227 10.1946 14.2033 10.4346 13.4907C10.6746 12.7781 10.685 12.0081 10.4644 11.2893C10.2437 10.5704 9.80314 9.93888 9.20469 9.48359ZM3.4375 5.9375H6.71875C7.09171 5.9375 7.4494 6.08566 7.71312 6.34938C7.97684 6.6131 8.125 6.97079 8.125 7.34375C8.125 7.71671 7.97684 8.0744 7.71312 8.33812C7.4494 8.60184 7.09171 8.75 6.71875 8.75H3.4375V5.9375ZM7.03125 14.0625H3.4375V10.625H7.03125C7.48709 10.625 7.92426 10.8061 8.24659 11.1284C8.56892 11.4507 8.75 11.8879 8.75 12.3438C8.75 12.7996 8.56892 13.2368 8.24659 13.5591C7.92426 13.8814 7.48709 14.0625 7.03125 14.0625ZM12.1875 5.9375C12.1875 5.68886 12.2863 5.4504 12.4621 5.27459C12.6379 5.09877 12.8764 5 13.125 5H18.125C18.3736 5 18.6121 5.09877 18.7879 5.27459C18.9637 5.4504 19.0625 5.68886 19.0625 5.9375C19.0625 6.18614 18.9637 6.4246 18.7879 6.60041C18.6121 6.77623 18.3736 6.875 18.125 6.875H13.125C12.8764 6.875 12.6379 6.77623 12.4621 6.60041C12.2863 6.4246 12.1875 6.18614 12.1875 5.9375ZM15.625 7.8125C14.5476 7.8125 13.5142 8.24051 12.7524 9.00238C11.9905 9.76425 11.5625 10.7976 11.5625 11.875C11.5625 12.9524 11.9905 13.9858 12.7524 14.7476C13.5142 15.5095 14.5476 15.9375 15.625 15.9375C16.2395 15.9392 16.8462 15.7999 17.3984 15.5305C17.5118 15.4783 17.6137 15.4041 17.698 15.312C17.7823 15.22 17.8474 15.1121 17.8894 14.9946C17.9314 14.8771 17.9496 14.7524 17.9428 14.6277C17.936 14.5031 17.9044 14.3811 17.8499 14.2689C17.7953 14.1566 17.7189 14.0564 17.6251 13.9741C17.5313 13.8918 17.422 13.829 17.3036 13.7895C17.1852 13.75 17.0601 13.7345 16.9357 13.7439C16.8113 13.7534 16.69 13.7876 16.5789 13.8445C16.2817 13.989 15.9554 14.0635 15.625 14.0625C15.2111 14.0621 14.8058 13.9444 14.456 13.7232C14.1062 13.502 13.8262 13.1862 13.6484 12.8125H18.75C18.9986 12.8125 19.2371 12.7137 19.4129 12.5379C19.5887 12.3621 19.6875 12.1236 19.6875 11.875C19.6863 10.7979 19.2578 9.76535 18.4963 9.00375C17.7347 8.24215 16.7021 7.81374 15.625 7.8125ZM13.6484 10.9375C13.8258 10.5634 14.1057 10.2473 14.4556 10.026C14.8055 9.8047 15.211 9.68721 15.625 9.68721C16.039 9.68721 16.4445 9.8047 16.7944 10.026C17.1443 10.2473 17.4242 10.5634 17.6016 10.9375H13.6484Z" fill="#191F2E"/>
</svg>
