<svg width="20" height="20" viewBox="0 0 20 20" fill="none" xmlns="http://www.w3.org/2000/svg">
<path d="M7.1875 9.375H5V7.5H7.1875C7.43614 7.5 7.6746 7.59877 7.85041 7.77459C8.02623 7.9504 8.125 8.18886 8.125 8.4375C8.125 8.68614 8.02623 8.9246 7.85041 9.10041C7.6746 9.27623 7.43614 9.375 7.1875 9.375ZM7.5 10.625H5V13.125H7.5C7.83152 13.125 8.14946 12.9933 8.38388 12.7589C8.6183 12.5245 8.75 12.2065 8.75 11.875C8.75 11.5435 8.6183 11.2255 8.38388 10.9911C8.14946 10.7567 7.83152 10.625 7.5 10.625ZM13.75 9.375C13.3624 9.37512 12.9843 9.49538 12.6678 9.71924C12.3513 9.94309 12.112 10.2595 11.9828 10.625H15.5172C15.388 10.2595 15.1487 9.94309 14.8322 9.71924C14.5157 9.49538 14.1376 9.37512 13.75 9.375ZM18.75 4.375V15.625C18.75 15.9565 18.6183 16.2745 18.3839 16.5089C18.1495 16.7433 17.8315 16.875 17.5 16.875H2.5C2.16848 16.875 1.85054 16.7433 1.61612 16.5089C1.3817 16.2745 1.25 15.9565 1.25 15.625V4.375C1.25 4.04348 1.3817 3.72554 1.61612 3.49112C1.85054 3.2567 2.16848 3.125 2.5 3.125H17.5C17.8315 3.125 18.1495 3.2567 18.3839 3.49112C18.6183 3.72554 18.75 4.04348 18.75 4.375ZM11.25 6.875C11.25 7.04076 11.3158 7.19973 11.4331 7.31694C11.5503 7.43415 11.7092 7.5 11.875 7.5H15.625C15.7908 7.5 15.9497 7.43415 16.0669 7.31694C16.1842 7.19973 16.25 7.04076 16.25 6.875C16.25 6.70924 16.1842 6.55027 16.0669 6.43306C15.9497 6.31585 15.7908 6.25 15.625 6.25H11.875C11.7092 6.25 11.5503 6.31585 11.4331 6.43306C11.3158 6.55027 11.25 6.70924 11.25 6.875ZM10 11.875C9.9998 11.4655 9.89903 11.0624 9.70655 10.701C9.51407 10.3396 9.23576 10.031 8.89609 9.80234C9.15302 9.48054 9.3139 9.09274 9.36022 8.68356C9.40654 8.27438 9.33642 7.86044 9.15793 7.48934C8.97944 7.11824 8.69983 6.80506 8.35125 6.58581C8.00268 6.36657 7.59929 6.25017 7.1875 6.25H4.375C4.20924 6.25 4.05027 6.31585 3.93306 6.43306C3.81585 6.55027 3.75 6.70924 3.75 6.875V13.75C3.75 13.9158 3.81585 14.0747 3.93306 14.1919C4.05027 14.3092 4.20924 14.375 4.375 14.375H7.5C8.16304 14.375 8.79893 14.1116 9.26777 13.6428C9.73661 13.1739 10 12.538 10 11.875ZM16.875 11.25C16.875 10.5354 16.63 9.84242 16.181 9.28653C15.732 8.73064 15.106 8.34543 14.4074 8.1951C13.7088 8.04478 12.9798 8.13841 12.3419 8.46041C11.7039 8.7824 11.1956 9.3133 10.9017 9.96462C10.6077 10.6159 10.5458 11.3483 10.7264 12.0397C10.9069 12.7311 11.319 13.3398 11.8939 13.7642C12.4688 14.1887 13.1717 14.4032 13.8857 14.3722C14.5996 14.3412 15.2813 14.0664 15.8172 13.5938C15.9415 13.484 16.0172 13.3294 16.0275 13.1639C16.0378 12.9985 15.982 12.8356 15.8723 12.7113C15.8179 12.6498 15.752 12.5995 15.6783 12.5634C15.6045 12.5274 15.5244 12.5061 15.4425 12.501C15.277 12.4907 15.1142 12.5465 14.9898 12.6562C14.7598 12.859 14.4834 13.0022 14.1852 13.0733C13.8869 13.1444 13.5757 13.1412 13.2789 13.0641C12.9821 12.987 12.7087 12.8383 12.4828 12.631C12.2568 12.4237 12.0851 12.1641 11.9828 11.875H16.25C16.4158 11.875 16.5747 11.8092 16.6919 11.6919C16.8092 11.5747 16.875 11.4158 16.875 11.25Z" fill="#191F2E"/>
</svg>
