<svg width="20" height="20" viewBox="0 0 20 20" fill="none" xmlns="http://www.w3.org/2000/svg">
<path d="M11.875 11.25C11.875 11.4158 11.8092 11.5747 11.692 11.6919C11.5748 11.8092 11.4158 11.875 11.25 11.875H8.75002C8.63691 11.8749 8.52594 11.8442 8.42893 11.786C8.33193 11.7278 8.25253 11.6444 8.19921 11.5446C8.14588 11.4449 8.12063 11.3325 8.12614 11.2196C8.13165 11.1066 8.16771 10.9972 8.23049 10.9031L10.0821 8.125H8.75002C8.58426 8.125 8.42529 8.05915 8.30808 7.94194C8.19087 7.82473 8.12502 7.66576 8.12502 7.5C8.12502 7.33424 8.19087 7.17527 8.30808 7.05806C8.42529 6.94085 8.58426 6.875 8.75002 6.875H11.25C11.3631 6.87507 11.4741 6.90583 11.5711 6.96401C11.6681 7.02219 11.7475 7.1056 11.8008 7.20535C11.8542 7.30511 11.8794 7.41746 11.8739 7.53044C11.8684 7.64342 11.8323 7.75278 11.7696 7.84688L9.9219 10.625H11.25C11.4158 10.625 11.5748 10.6908 11.692 10.8081C11.8092 10.9253 11.875 11.0842 11.875 11.25ZM17.3313 15C17.2229 15.1909 17.0656 15.3495 16.8755 15.4593C16.6855 15.5692 16.4695 15.6264 16.25 15.625H13.0617C12.9175 16.3306 12.5341 16.9647 11.9762 17.4201C11.4183 17.8756 10.7202 18.1243 10 18.1243C9.27985 18.1243 8.58177 17.8756 8.02388 17.4201C7.46598 16.9647 7.0825 16.3306 6.9383 15.625H3.75002C3.53029 15.6247 3.31451 15.5665 3.12444 15.4562C2.93437 15.346 2.77673 15.1875 2.6674 14.9969C2.55808 14.8063 2.50093 14.5903 2.50172 14.3705C2.50251 14.1508 2.5612 13.9351 2.6719 13.7453C3.10549 12.9984 3.75002 10.8859 3.75002 8.125C3.75002 6.4674 4.4085 4.87769 5.58061 3.70558C6.75271 2.53348 8.34242 1.875 10 1.875C11.6576 1.875 13.2473 2.53348 14.4194 3.70558C15.5915 4.87769 16.25 6.4674 16.25 8.125C16.25 10.8852 16.8953 12.9984 17.3289 13.7453C17.4407 13.9354 17.4999 14.1518 17.5003 14.3723C17.5007 14.5929 17.4424 14.8095 17.3313 15ZM11.7672 15.625H8.23283C8.36232 15.9902 8.60175 16.3063 8.9182 16.5298C9.23465 16.7533 9.61258 16.8734 10 16.8734C10.3875 16.8734 10.7654 16.7533 11.0818 16.5298C11.3983 16.3063 11.6377 15.9902 11.7672 15.625ZM16.25 14.375C15.6461 13.3383 15 10.9414 15 8.125C15 6.79892 14.4732 5.52715 13.5356 4.58947C12.5979 3.65178 11.3261 3.125 10 3.125C8.67394 3.125 7.40217 3.65178 6.46449 4.58947C5.52681 5.52715 5.00002 6.79892 5.00002 8.125C5.00002 10.9422 4.35315 13.3391 3.75002 14.375H16.25Z" fill="#191F2E"/>
</svg>
