<svg width="20" height="20" viewBox="0 0 20 20" fill="none" xmlns="http://www.w3.org/2000/svg">
<path d="M13.125 17.5C13.125 17.6657 13.0591 17.8247 12.9419 17.9419C12.8247 18.0591 12.6658 18.125 12.5 18.125H7.49999C7.33423 18.125 7.17526 18.0591 7.05805 17.9419C6.94084 17.8247 6.87499 17.6657 6.87499 17.5C6.87499 17.3342 6.94084 17.1752 7.05805 17.058C7.17526 16.9408 7.33423 16.875 7.49999 16.875H12.5C12.6658 16.875 12.8247 16.9408 12.9419 17.058C13.0591 17.1752 13.125 17.3342 13.125 17.5ZM17.7648 4.71245C17.0624 3.33952 16.0076 2.17799 14.7086 1.34683C14.6392 1.30249 14.5617 1.27231 14.4806 1.25802C14.3995 1.24372 14.3163 1.24561 14.236 1.26355C14.1556 1.2815 14.0795 1.31515 14.0122 1.36259C13.9449 1.41002 13.8876 1.47029 13.8436 1.53994C13.7997 1.60958 13.7699 1.68723 13.756 1.76842C13.7422 1.84961 13.7445 1.93273 13.7629 2.01302C13.7813 2.0933 13.8153 2.16916 13.8631 2.23623C13.9109 2.30331 13.9715 2.36027 14.0414 2.40386C15.1559 3.11284 16.0589 4.10893 16.6555 5.28745C16.7343 5.4299 16.8656 5.53596 17.0214 5.58308C17.1773 5.63019 17.3454 5.61463 17.4899 5.53971C17.6345 5.46479 17.7441 5.33642 17.7954 5.18192C17.8468 5.02742 17.8358 4.85899 17.7648 4.71245ZM2.78984 5.62495C2.90434 5.6249 3.01663 5.5934 3.11445 5.53388C3.21227 5.47436 3.29185 5.38912 3.34453 5.28745C3.94109 4.10893 4.84407 3.11284 5.95859 2.40386C6.02847 2.36027 6.08905 2.30331 6.13685 2.23623C6.18465 2.16916 6.21871 2.0933 6.23709 2.01302C6.25547 1.93273 6.2578 1.84961 6.24395 1.76842C6.2301 1.68723 6.20034 1.60958 6.15638 1.53994C6.11242 1.47029 6.05513 1.41002 5.98779 1.36259C5.92046 1.31515 5.84442 1.2815 5.76404 1.26355C5.68366 1.24561 5.60052 1.24372 5.51941 1.25802C5.4383 1.27231 5.36081 1.30249 5.2914 1.34683C3.99236 2.17799 2.93759 3.33952 2.23515 4.71245C2.18581 4.8077 2.16181 4.91405 2.16546 5.02126C2.16912 5.12847 2.20031 5.23293 2.25603 5.3246C2.31175 5.41626 2.39013 5.49204 2.48362 5.54465C2.57711 5.59725 2.68257 5.62491 2.78984 5.62495ZM17.3289 13.7453C17.4396 13.9351 17.4983 14.1509 17.4991 14.3707C17.4998 14.5905 17.4426 14.8066 17.3332 14.9972C17.2238 15.1878 17.066 15.3463 16.8758 15.4565C16.6857 15.5667 16.4698 15.6248 16.25 15.625H3.74999C3.53032 15.6245 3.31465 15.5662 3.12469 15.4559C2.93473 15.3456 2.7772 15.1871 2.66796 14.9965C2.55873 14.8059 2.50165 14.5899 2.50247 14.3703C2.50329 14.1506 2.56199 13.935 2.67265 13.7453C3.37656 12.5304 3.74999 10.8031 3.74999 8.74995C3.74999 7.09235 4.40847 5.50264 5.58058 4.33053C6.75268 3.15843 8.34239 2.49995 9.99999 2.49995C11.6576 2.49995 13.2473 3.15843 14.4194 4.33053C15.5915 5.50264 16.25 7.09235 16.25 8.74995C16.25 10.8023 16.6234 12.5296 17.3289 13.7453ZM16.25 14.375C15.4187 12.9476 15 11.0554 15 8.74995C15 7.42387 14.4732 6.1521 13.5355 5.21442C12.5978 4.27673 11.3261 3.74995 9.99999 3.74995C8.67391 3.74995 7.40214 4.27673 6.46446 5.21442C5.52678 6.1521 4.99999 7.42387 4.99999 8.74995C4.99999 11.0562 4.57968 12.9484 3.74999 14.375H16.25Z" fill="#191F2E"/>
</svg>
