<svg width="20" height="20" viewBox="0 0 20 20" fill="none" xmlns="http://www.w3.org/2000/svg">
<path d="M4.21406 2.7046C4.15917 2.64273 4.09255 2.59237 4.01806 2.55643C3.94357 2.5205 3.86268 2.49971 3.7801 2.49527C3.69751 2.49082 3.61486 2.50282 3.53694 2.53055C3.45902 2.55828 3.38739 2.60121 3.32618 2.65683C3.26497 2.71245 3.21541 2.77967 3.18037 2.85459C3.14534 2.92951 3.12552 3.01064 3.12207 3.09327C3.11861 3.17591 3.1316 3.25841 3.16026 3.33599C3.18893 3.41357 3.23271 3.48468 3.28906 3.54522L4.59687 4.98428C4.04056 5.93732 3.74824 7.02138 3.75 8.12491C3.75 10.8858 3.1039 12.9983 2.67031 13.7452C2.55955 13.9352 2.50085 14.1509 2.50013 14.3708C2.49941 14.5907 2.55669 14.8069 2.66621 14.9975C2.77572 15.1882 2.93358 15.3466 3.12387 15.4567C3.31415 15.5669 3.53013 15.6249 3.75 15.6249H6.93906C7.08288 16.3309 7.46625 16.9655 8.02427 17.4213C8.58228 17.8771 9.28066 18.1261 10.0012 18.1261C10.7217 18.1261 11.4201 17.8771 11.9781 17.4213C12.5361 16.9655 12.9195 16.3309 13.0633 15.6249H14.2703L15.7891 17.2952C15.8439 17.3571 15.9106 17.4075 15.9851 17.4434C16.0596 17.4793 16.1404 17.5001 16.223 17.5046C16.3056 17.509 16.3883 17.497 16.4662 17.4693C16.5441 17.4415 16.6157 17.3986 16.6769 17.343C16.7381 17.2874 16.7877 17.2201 16.8227 17.1452C16.8578 17.0703 16.8776 16.9892 16.8811 16.9065C16.8845 16.8239 16.8715 16.7414 16.8429 16.6638C16.8142 16.5863 16.7704 16.5151 16.7141 16.4546L4.21406 2.7046ZM10 16.8749C9.61222 16.875 9.23397 16.7548 8.91735 16.5309C8.60072 16.307 8.36129 15.9905 8.23203 15.6249H11.7672C11.638 15.9904 11.3987 16.3068 11.0822 16.5307C10.7657 16.7545 10.3876 16.8748 10 16.8749ZM16.8195 13.9523C16.6954 14.0294 16.5482 14.0606 16.4035 14.0405C16.2588 14.0204 16.1257 13.9502 16.0273 13.8421L6.76406 3.65147C6.70108 3.58195 6.65455 3.49915 6.62794 3.40919C6.60132 3.31924 6.59529 3.22445 6.6103 3.13186C6.62531 3.03926 6.66096 2.95123 6.71463 2.87429C6.7683 2.79735 6.83859 2.73348 6.92031 2.68741C7.87105 2.14904 8.94631 1.8693 10.0389 1.8761C11.1314 1.88289 12.2031 2.17599 13.1471 2.72615C14.0911 3.27631 14.8743 4.06431 15.4188 5.01159C15.9632 5.95887 16.2498 7.03232 16.25 8.12491C16.25 10.8866 16.875 12.7023 17.0711 13.1937C17.1245 13.3294 17.1287 13.4796 17.0831 13.6181C17.0374 13.7566 16.9447 13.8749 16.8211 13.9523H16.8195Z" fill="#191F2E"/>
</svg>
