<svg width="20" height="20" viewBox="0 0 20 20" fill="none" xmlns="http://www.w3.org/2000/svg">
<path d="M2.78903 5.93757C2.63912 5.93776 2.49141 5.90156 2.35856 5.8321C2.13796 5.71766 1.97183 5.52031 1.89668 5.28342C1.82152 5.04654 1.8435 4.78951 1.95778 4.56882C2.68552 3.14641 3.77865 1.94327 5.12497 1.08288C5.22905 1.01297 5.34609 0.964634 5.46918 0.94075C5.59227 0.916866 5.71889 0.917915 5.84157 0.943835C5.96424 0.969755 6.08047 1.02002 6.18337 1.09165C6.28628 1.16329 6.37377 1.25483 6.44067 1.36088C6.50757 1.46692 6.55251 1.58531 6.57285 1.70903C6.59318 1.83275 6.5885 1.9593 6.55906 2.08117C6.52963 2.20305 6.47604 2.31779 6.40148 2.41859C6.32692 2.51939 6.23289 2.60422 6.12497 2.66804C5.05843 3.34804 4.19483 4.30287 3.62497 5.4321C3.54555 5.58505 3.42551 5.71315 3.27804 5.80232C3.13057 5.89149 2.96137 5.93829 2.78903 5.93757ZM18.0422 4.56882C17.3144 3.14641 16.2213 1.94327 14.875 1.08288C14.7709 1.01297 14.6538 0.964634 14.5308 0.94075C14.4077 0.916866 14.281 0.917915 14.1584 0.943835C14.0357 0.969755 13.9195 1.02002 13.8166 1.09165C13.7137 1.16329 13.6262 1.25483 13.5593 1.36088C13.4924 1.46692 13.4474 1.58531 13.4271 1.70903C13.4068 1.83275 13.4114 1.9593 13.4409 2.08117C13.4703 2.20305 13.5239 2.31779 13.5985 2.41859C13.673 2.51939 13.767 2.60422 13.875 2.66804C14.9415 3.34804 15.8051 4.30287 16.375 5.4321C16.4544 5.58505 16.5744 5.71315 16.7219 5.80232C16.8694 5.89149 17.0386 5.93829 17.2109 5.93757C17.3608 5.93776 17.5085 5.90156 17.6414 5.8321C17.862 5.71766 18.0281 5.52031 18.1033 5.28342C18.1784 5.04654 18.1564 4.78951 18.0422 4.56882ZM17.1781 13.1157C17.3544 13.3472 17.4626 13.6233 17.4905 13.9129C17.5184 14.2025 17.4648 14.4942 17.3359 14.7551C17.2069 15.0159 17.0077 15.2355 16.7606 15.3893C16.5135 15.543 16.2284 15.6246 15.9375 15.6251H13.3797C13.233 16.4143 12.8148 17.1274 12.1975 17.6406C11.5802 18.1538 10.8027 18.4348 9.99997 18.4348C9.1972 18.4348 8.41974 18.1538 7.80243 17.6406C7.18512 17.1274 6.76689 16.4143 6.62028 15.6251H4.06247C3.77129 15.6251 3.4859 15.5437 3.2385 15.3902C2.99109 15.2366 2.79151 15.017 2.66227 14.7561C2.53302 14.4952 2.47926 14.2033 2.50704 13.9135C2.53483 13.6236 2.64305 13.3473 2.8195 13.1157C3.37966 12.3868 4.04841 11.036 4.06013 8.74538C4.06075 7.17035 4.68702 5.66007 5.80118 4.5468C6.91534 3.43352 8.42611 2.80843 10.0011 2.80906C11.5762 2.80968 13.0865 3.43595 14.1997 4.55011C15.313 5.66427 15.9381 7.17504 15.9375 8.75007C15.9492 11.036 16.6179 12.3868 17.1781 13.1157ZM11.4312 15.6251H8.56872C8.69055 15.9032 8.89081 16.1399 9.14499 16.3061C9.39918 16.4722 9.69629 16.5607 9.99997 16.5607C10.3037 16.5607 10.6008 16.4722 10.8549 16.3061C11.1091 16.1399 11.3094 15.9032 11.4312 15.6251ZM15.3375 13.7501C14.7 12.7344 14.0726 11.1274 14.0609 8.75476C14.0718 8.21467 13.9749 7.67783 13.7758 7.17566C13.5767 6.67348 13.2795 6.21605 12.9015 5.83013C12.5235 5.44421 12.0724 5.13755 11.5744 4.92809C11.0765 4.71864 10.5418 4.61059 10.0016 4.61028C9.46138 4.60997 8.92655 4.7174 8.42837 4.92628C7.93019 5.13516 7.47867 5.4413 7.10024 5.82678C6.7218 6.21227 6.42404 6.66935 6.22439 7.1713C6.02474 7.67325 5.92719 8.20997 5.93747 8.75007C5.92575 11.1266 5.29841 12.7344 4.66091 13.7501H15.3375Z" fill="#191F2E"/>
</svg>
