<svg width="20" height="20" viewBox="0 0 20 20" fill="none" xmlns="http://www.w3.org/2000/svg">
<path d="M13.125 17.5C13.125 17.6657 13.0591 17.8247 12.9419 17.9419C12.8247 18.0591 12.6658 18.125 12.5 18.125H7.49999C7.33423 18.125 7.17526 18.0591 7.05805 17.9419C6.94084 17.8247 6.87499 17.6657 6.87499 17.5C6.87499 17.3342 6.94084 17.1752 7.05805 17.058C7.17526 16.9408 7.33423 16.875 7.49999 16.875H12.5C12.6658 16.875 12.8247 16.9408 12.9419 17.058C13.0591 17.1752 13.125 17.3342 13.125 17.5ZM17.7648 4.71245C17.0624 3.33952 16.0076 2.17799 14.7086 1.34683C14.6392 1.30249 14.5617 1.27231 14.4806 1.25802C14.3995 1.24372 14.3163 1.24561 14.236 1.26355C14.1556 1.2815 14.0795 1.31515 14.0122 1.36259C13.9449 1.41002 13.8876 1.47029 13.8436 1.53994C13.7997 1.60958 13.7699 1.68723 13.756 1.76842C13.7422 1.84961 13.7445 1.93273 13.7629 2.01302C13.7813 2.0933 13.8153 2.16916 13.8631 2.23623C13.9109 2.30331 13.9715 2.36027 14.0414 2.40386C15.1559 3.11284 16.0589 4.10893 16.6555 5.28745C16.7343 5.4299 16.8656 5.53596 17.0214 5.58308C17.1773 5.63019 17.3454 5.61463 17.4899 5.53971C17.6345 5.46479 17.7441 5.33642 17.7954 5.18192C17.8468 5.02742 17.8358 4.85899 17.7648 4.71245ZM2.78984 5.62495C2.90434 5.6249 3.01663 5.5934 3.11445 5.53388C3.21227 5.47436 3.29185 5.38912 3.34453 5.28745C3.94109 4.10893 4.84407 3.11284 5.95859 2.40386C6.02847 2.36027 6.08905 2.30331 6.13685 2.23623C6.18465 2.16916 6.21871 2.0933 6.23709 2.01302C6.25547 1.93273 6.2578 1.84961 6.24395 1.76842C6.2301 1.68723 6.20034 1.60958 6.15638 1.53994C6.11242 1.47029 6.05513 1.41002 5.98779 1.36259C5.92046 1.31515 5.84442 1.2815 5.76404 1.26355C5.68366 1.24561 5.60052 1.24372 5.51941 1.25802C5.4383 1.27231 5.36081 1.30249 5.2914 1.34683C3.99236 2.17799 2.93759 3.33952 2.23515 4.71245C2.18581 4.8077 2.16181 4.91405 2.16546 5.02126C2.16912 5.12847 2.20031 5.23293 2.25603 5.3246C2.31175 5.41626 2.39013 5.49204 2.48362 5.54465C2.57711 5.59725 2.68257 5.62491 2.78984 5.62495ZM16.25 8.74995C16.25 7.09235 15.5915 5.50264 14.4194 4.33053C13.2473 3.15843 11.6576 2.49995 9.99999 2.49995C8.34239 2.49995 6.75268 3.15843 5.58058 4.33053C4.40847 5.50264 3.74999 7.09235 3.74999 8.74995C3.74999 10.8031 3.37656 12.5304 2.67109 13.7453C2.56036 13.9351 2.50166 14.1509 2.50091 14.3707C2.50015 14.5905 2.55737 14.8066 2.66679 14.9972C2.77621 15.1878 2.93396 15.3463 3.12414 15.4565C3.31432 15.5667 3.53019 15.6248 3.74999 15.625H16.25C16.4697 15.6245 16.6853 15.5662 16.8753 15.4559C17.0653 15.3456 17.2228 15.1871 17.332 14.9965C17.4413 14.8059 17.4983 14.5899 17.4975 14.3703C17.4967 14.1506 17.438 13.935 17.3273 13.7453C16.6234 12.5296 16.25 10.8023 16.25 8.74995Z" fill="#191F2E"/>
</svg>
