<svg width="20" height="20" viewBox="0 0 20 20" fill="none" xmlns="http://www.w3.org/2000/svg">
<path d="M4.21251 2.70461C4.15762 2.64274 4.091 2.59238 4.01651 2.55645C3.94202 2.52052 3.86113 2.49972 3.77855 2.49528C3.69596 2.49084 3.61331 2.50283 3.53539 2.53057C3.45747 2.5583 3.38583 2.60122 3.32463 2.65685C3.26342 2.71247 3.21386 2.77969 3.17882 2.85461C3.14379 2.92953 3.12397 3.01065 3.12051 3.09329C3.11706 3.17592 3.13005 3.25842 3.15871 3.336C3.18738 3.41358 3.23116 3.4847 3.28751 3.54524L4.59532 4.9843C4.0399 5.93764 3.74815 7.02159 3.75001 8.12492C3.75001 10.8859 3.1047 12.9984 2.6711 13.7452C2.56038 13.9351 2.50168 14.1508 2.50092 14.3706C2.50017 14.5904 2.55739 14.8066 2.66681 14.9972C2.77623 15.1878 2.93398 15.3462 3.12415 15.4564C3.31433 15.5666 3.53021 15.6248 3.75001 15.6249H6.93751C7.08096 16.3314 7.46422 16.9665 8.02235 17.4227C8.58048 17.8789 9.27916 18.1281 10 18.1281C10.7209 18.1281 11.4195 17.8789 11.9777 17.4227C12.5358 16.9665 12.9191 16.3314 13.0625 15.6249H14.2688L15.7875 17.2952C15.8424 17.3571 15.909 17.4075 15.9835 17.4434C16.058 17.4793 16.1389 17.5001 16.2215 17.5046C16.3041 17.509 16.3867 17.497 16.4646 17.4693C16.5425 17.4416 16.6142 17.3986 16.6754 17.343C16.7366 17.2874 16.7862 17.2202 16.8212 17.1452C16.8562 17.0703 16.8761 16.9892 16.8795 16.9066C16.883 16.8239 16.87 16.7414 16.8413 16.6638C16.8126 16.5863 16.7689 16.5151 16.7125 16.4546L4.21251 2.70461ZM10 16.8749C9.61237 16.8748 9.23429 16.7545 8.91782 16.5307C8.60135 16.3068 8.36204 15.9904 8.23282 15.6249H11.7672C11.638 15.9904 11.3987 16.3068 11.0822 16.5307C10.7657 16.7545 10.3877 16.8748 10 16.8749ZM3.75001 14.3749C4.35157 13.3405 5.00001 10.9437 5.00001 8.12492C4.99891 7.37805 5.16607 6.64053 5.48907 5.96711L13.132 14.3749H3.75001ZM16.7188 14.0054C16.6458 14.0337 16.5682 14.0483 16.4899 14.0484C16.3643 14.0482 16.2417 14.0103 16.1381 13.9395C16.0344 13.8687 15.9544 13.7684 15.9086 13.6515C15.3399 12.2023 15 10.1366 15 8.12492C15.0003 7.2504 14.7711 6.39111 14.3355 5.63281C13.8999 4.87451 13.273 4.24373 12.5174 3.80344C11.7618 3.36314 10.9039 3.12872 10.0294 3.12358C9.15489 3.11844 8.29433 3.34276 7.5336 3.77414C7.38976 3.85208 7.22109 3.87052 7.06381 3.82548C6.90653 3.78045 6.77318 3.67554 6.69239 3.53328C6.61159 3.39102 6.5898 3.22276 6.63168 3.06461C6.67357 2.90646 6.7758 2.77104 6.91642 2.68743C7.86726 2.14809 8.94294 1.86758 10.0361 1.87388C11.1292 1.88019 12.2016 2.1731 13.1461 2.72338C14.0907 3.27365 14.8744 4.06204 15.4191 5.00986C15.9637 5.95768 16.2502 7.03177 16.25 8.12492C16.25 10.8866 16.8789 12.7023 17.0719 13.1937C17.1325 13.3479 17.1293 13.5199 17.0631 13.6719C16.9969 13.8238 16.873 13.9432 16.7188 14.0038V14.0054Z" fill="#191F2E"/>
</svg>
