<svg width="20" height="20" viewBox="0 0 20 20" fill="none" xmlns="http://www.w3.org/2000/svg">
<path d="M16.9438 16.2446L4.44378 2.49463C4.36145 2.40182 4.26152 2.32628 4.14978 2.27238C4.03804 2.21848 3.91671 2.1873 3.79283 2.18063C3.66895 2.17397 3.54498 2.19196 3.4281 2.23356C3.31122 2.27516 3.20377 2.33954 3.11195 2.42298C3.02014 2.50641 2.94581 2.60724 2.89325 2.71962C2.84069 2.832 2.81096 2.95369 2.80579 3.07764C2.80061 3.20159 2.82008 3.32534 2.86308 3.44171C2.90608 3.55808 2.97175 3.66476 3.05628 3.75556L4.21253 5.02822C3.70194 5.98049 3.43565 7.04458 3.43753 8.1251C3.43753 10.1235 3.07893 11.797 2.40081 12.9634C2.26267 13.2014 2.18959 13.4716 2.18891 13.7468C2.18822 14.0221 2.25996 14.2926 2.3969 14.5313C2.53249 14.7702 2.72939 14.9686 2.96727 15.1059C3.20514 15.2432 3.47536 15.3146 3.75003 15.3126H13.5625L15.5563 17.5056C15.7244 17.6861 15.9569 17.7932 16.2033 17.8035C16.4498 17.8138 16.6904 17.7265 16.873 17.5606C17.0555 17.3947 17.1654 17.1635 17.1786 16.9171C17.1919 16.6708 17.1075 16.4292 16.9438 16.2446ZM4.2719 13.4376C4.96253 12.0313 5.31253 10.2454 5.31253 8.1251C5.31191 7.58479 5.40495 7.04846 5.58753 6.53994L11.8578 13.4376H4.2719ZM13.4375 17.5001C13.4375 17.7487 13.3388 17.9872 13.1629 18.163C12.9871 18.3388 12.7487 18.4376 12.5 18.4376H7.50003C7.25139 18.4376 7.01293 18.3388 6.83712 18.163C6.6613 17.9872 6.56253 17.7487 6.56253 17.5001C6.56253 17.2515 6.6613 17.013 6.83712 16.8372C7.01293 16.6614 7.25139 16.5626 7.50003 16.5626H12.5C12.7487 16.5626 12.9871 16.6614 13.1629 16.8372C13.3388 17.013 13.4375 17.2515 13.4375 17.5001ZM6.94456 3.30869C6.89654 3.19532 6.87133 3.07361 6.87035 2.95049C6.86937 2.82738 6.89265 2.70528 6.93887 2.59117C6.98508 2.47705 7.05332 2.37316 7.13968 2.28541C7.22605 2.19767 7.32885 2.1278 7.44222 2.07978C8.44014 1.65743 9.52712 1.48876 10.6061 1.58884C11.6851 1.68892 12.7225 2.05463 13.6257 2.65332C14.529 3.25201 15.2699 4.06505 15.7823 5.01985C16.2948 5.97464 16.5628 7.04147 16.5625 8.1251C16.5625 9.58447 16.7485 10.854 17.1149 11.897C17.1559 12.0131 17.1737 12.1362 17.1671 12.2592C17.1606 12.3822 17.1299 12.5027 17.0768 12.6138C17.0237 12.725 16.9492 12.8246 16.8576 12.9069C16.7661 12.9893 16.6591 13.0528 16.543 13.0938C16.4269 13.1349 16.3038 13.1526 16.1808 13.1461C16.0578 13.1396 15.9373 13.1089 15.8261 13.0558C15.715 13.0027 15.6154 12.9282 15.533 12.8366C15.4507 12.745 15.3872 12.6381 15.3461 12.522C14.9086 11.2751 14.6875 9.79697 14.6875 8.1251C14.6878 7.35108 14.4964 6.58904 14.1305 5.907C13.7645 5.22497 13.2353 4.64418 12.5902 4.21647C11.9451 3.78877 11.2041 3.52747 10.4334 3.45591C9.66273 3.38434 8.8863 3.50474 8.17347 3.80635C8.0601 3.85436 7.93838 3.87958 7.81527 3.88056C7.69216 3.88153 7.57006 3.85825 7.45594 3.81204C7.34183 3.76583 7.23793 3.69759 7.15019 3.61123C7.06245 3.52486 6.99257 3.42206 6.94456 3.30869Z" fill="#191F2E"/>
</svg>
