<svg width="20" height="20" viewBox="0 0 20 20" fill="none" xmlns="http://www.w3.org/2000/svg">
<path d="M13.125 17.5C13.125 17.6658 13.0592 17.8247 12.942 17.9419C12.8247 18.0592 12.6658 18.125 12.5 18.125H7.50001C7.33425 18.125 7.17528 18.0592 7.05807 17.9419C6.94086 17.8247 6.87501 17.6658 6.87501 17.5C6.87501 17.3342 6.94086 17.1753 7.05807 17.0581C7.17528 16.9408 7.33425 16.875 7.50001 16.875H12.5C12.6658 16.875 12.8247 16.9408 12.942 17.0581C13.0592 17.1753 13.125 17.3342 13.125 17.5ZM17.3289 13.7453C16.8945 12.9984 16.25 10.8852 16.25 8.125C16.25 6.4674 15.5915 4.87769 14.4194 3.70558C13.2473 2.53348 11.6576 1.875 10 1.875C8.34241 1.875 6.7527 2.53348 5.58059 3.70558C4.40849 4.87769 3.75001 6.4674 3.75001 8.125C3.75001 10.8859 3.1047 12.9984 2.6711 13.7453C2.56038 13.9352 2.50168 14.1509 2.50092 14.3707C2.50017 14.5905 2.55739 14.8066 2.66681 14.9973C2.77623 15.1879 2.93398 15.3463 3.12415 15.4565C3.31433 15.5667 3.53021 15.6248 3.75001 15.625H16.25C16.4697 15.6247 16.6855 15.5665 16.8756 15.4562C17.0657 15.346 17.2233 15.1875 17.3326 14.9969C17.442 14.8063 17.4991 14.5903 17.4983 14.3705C17.4975 14.1508 17.4388 13.9351 17.3281 13.7453H17.3289Z" fill="#191F2E"/>
</svg>
