<svg width="20" height="20" viewBox="0 0 20 20" fill="none" xmlns="http://www.w3.org/2000/svg">
<path d="M17.2711 11.2821C16.807 9.47715 15.692 7.90753 14.1406 6.87502H18.75C18.9157 6.87502 19.0747 6.80917 19.1919 6.69196C19.3091 6.57475 19.375 6.41578 19.375 6.25002C19.375 6.08426 19.3091 5.92529 19.1919 5.80808C19.0747 5.69087 18.9157 5.62502 18.75 5.62502H12.4219C12.2842 5.08726 11.9714 4.61062 11.5329 4.27024C11.0944 3.92987 10.5551 3.74512 9.99998 3.74512C9.44487 3.74512 8.90555 3.92987 8.46705 4.27024C8.02854 4.61062 7.71579 5.08726 7.5781 5.62502H1.24998C1.08422 5.62502 0.925247 5.69087 0.808037 5.80808C0.690827 5.92529 0.624979 6.08426 0.624979 6.25002C0.624979 6.41578 0.690827 6.57475 0.808037 6.69196C0.925247 6.80917 1.08422 6.87502 1.24998 6.87502H5.85935C4.30792 7.90753 3.19296 9.47715 2.72888 11.2821C2.12879 11.3778 1.58411 11.6889 1.1967 12.157C0.809289 12.6252 0.605676 13.2185 0.623932 13.8259C0.642188 14.4333 0.881062 15.0133 1.29589 15.4574C1.71072 15.9015 2.27309 16.1793 2.87786 16.2388C3.48262 16.2983 4.08837 16.1356 4.58184 15.7809C5.0753 15.4262 5.42269 14.904 5.55905 14.3118C5.69541 13.7196 5.6114 13.098 5.32274 12.5633C5.03407 12.0285 4.56051 11.6172 3.9906 11.4063C4.25895 10.4811 4.736 9.62974 5.38504 8.91785C6.03408 8.20597 6.8378 7.65249 7.73435 7.30002C7.93495 7.73254 8.25503 8.09869 8.65688 8.35528C9.05872 8.61187 9.52555 8.7482 10.0023 8.7482C10.4791 8.7482 10.9459 8.61187 11.3478 8.35528C11.7496 8.09869 12.0697 7.73254 12.2703 7.30002C13.166 7.65308 13.9688 8.20682 14.617 8.91867C15.2652 9.63052 15.7415 10.4815 16.0094 11.4063C15.4392 11.6165 14.9651 12.0272 14.6758 12.5616C14.3864 13.096 14.3016 13.7175 14.4373 14.3099C14.5729 14.9022 14.9196 15.4249 15.4127 15.7802C15.9057 16.1355 16.5113 16.299 17.1161 16.2402C17.7209 16.1814 18.2837 15.9043 18.699 15.4607C19.1144 15.0171 19.354 14.4374 19.373 13.83C19.392 13.2226 19.1891 12.6291 18.8022 12.1605C18.4154 11.6918 17.8711 11.3801 17.2711 11.2836V11.2821ZM4.37498 13.75C4.37498 13.9972 4.30167 14.2389 4.16432 14.4445C4.02696 14.65 3.83174 14.8103 3.60333 14.9049C3.37493 14.9995 3.12359 15.0242 2.88112 14.976C2.63864 14.9278 2.41591 14.8087 2.2411 14.6339C2.06628 14.4591 1.94723 14.2364 1.899 13.9939C1.85077 13.7514 1.87552 13.5001 1.97013 13.2717C2.06474 13.0433 2.22495 12.848 2.43052 12.7107C2.63608 12.5733 2.87775 12.5 3.12498 12.5C3.4565 12.5 3.77444 12.6317 4.00886 12.8661C4.24328 13.1006 4.37498 13.4185 4.37498 13.75ZM9.99998 7.50002C9.75275 7.50002 9.51108 7.42671 9.30552 7.28936C9.09995 7.152 8.93974 6.95678 8.84513 6.72837C8.75052 6.49997 8.72577 6.24863 8.774 6.00616C8.82223 5.76368 8.94128 5.54095 9.1161 5.36614C9.29091 5.19132 9.51364 5.07227 9.75612 5.02404C9.99859 4.97581 10.2499 5.00056 10.4783 5.09517C10.7067 5.18978 10.902 5.35 11.0393 5.55556C11.1767 5.76112 11.25 6.00279 11.25 6.25002C11.25 6.58154 11.1183 6.89948 10.8839 7.1339C10.6494 7.36832 10.3315 7.50002 9.99998 7.50002ZM16.875 15C16.6278 15 16.3861 14.9267 16.1805 14.7894C15.975 14.652 15.8147 14.4568 15.7201 14.2284C15.6255 14 15.6008 13.7486 15.649 13.5062C15.6972 13.2637 15.8163 13.041 15.9911 12.8661C16.1659 12.6913 16.3886 12.5723 16.6311 12.524C16.8736 12.4758 17.1249 12.5006 17.3533 12.5952C17.5817 12.6898 17.777 12.85 17.9143 13.0556C18.0517 13.2611 18.125 13.5028 18.125 13.75C18.125 14.0815 17.9933 14.3995 17.7589 14.6339C17.5244 14.8683 17.2065 15 16.875 15Z" fill="#191F2E"/>
</svg>
