<svg width="20" height="20" viewBox="0 0 20 20" fill="none" xmlns="http://www.w3.org/2000/svg">
<path d="M16.25 8.75C15.7982 8.7498 15.35 8.8316 14.9274 8.99141L12.9633 5.625H15C15.1658 5.625 15.3247 5.69085 15.442 5.80806C15.5592 5.92527 15.625 6.08424 15.625 6.25C15.625 6.41576 15.6909 6.57473 15.8081 6.69194C15.9253 6.80915 16.0843 6.875 16.25 6.875C16.4158 6.875 16.5747 6.80915 16.692 6.69194C16.8092 6.57473 16.875 6.41576 16.875 6.25C16.875 5.75272 16.6775 5.27581 16.3258 4.92417C15.9742 4.57254 15.4973 4.375 15 4.375H11.875C11.7654 4.37525 11.6578 4.40431 11.563 4.45927C11.4682 4.51422 11.3895 4.59314 11.3348 4.68811C11.2801 4.78308 11.2514 4.89077 11.2514 5.00036C11.2515 5.10995 11.2804 5.21759 11.3352 5.3125L12.2453 6.875H7.7547L6.47736 4.6875C6.42262 4.5927 6.34395 4.51393 6.24921 4.45909C6.15447 4.40425 6.04698 4.37525 5.93752 4.375H3.75002C3.58425 4.375 3.42528 4.44085 3.30807 4.55806C3.19086 4.67527 3.12502 4.83424 3.12502 5C3.12502 5.16576 3.19086 5.32473 3.30807 5.44194C3.42528 5.55915 3.58425 5.625 3.75002 5.625H5.57892L6.65002 7.46172L5.42267 9.14531C4.57941 8.72331 3.60836 8.63355 2.70203 8.89383C1.79569 9.1541 1.02024 9.74542 0.529373 10.5505C0.0385089 11.3557 -0.131928 12.3159 0.0518491 13.2407C0.235626 14.1656 0.760199 14.9877 1.52158 15.544C2.28297 16.1003 3.22558 16.3502 4.16257 16.2442C5.09956 16.1382 5.96252 15.6841 6.58039 14.9717C7.19827 14.2594 7.52594 13.3409 7.49846 12.3983C7.47099 11.4558 7.09036 10.5579 6.43205 9.88281L7.33751 8.64062L9.77267 12.8125C9.81072 12.8889 9.86403 12.9568 9.92931 13.0118C9.99459 13.0668 10.0704 13.1079 10.1522 13.1325C10.234 13.1571 10.3199 13.1646 10.4047 13.1547C10.4895 13.1448 10.5714 13.1176 10.6453 13.0748C10.7192 13.0321 10.7835 12.9746 10.8343 12.906C10.8852 12.8374 10.9214 12.7591 10.9408 12.676C10.9602 12.5928 10.9624 12.5066 10.9472 12.4226C10.9319 12.3386 10.8997 12.2586 10.8524 12.1875L8.48361 8.125H12.9742L13.8485 9.62266C13.1716 10.1883 12.7159 10.9745 12.5613 11.843C12.4068 12.7114 12.5633 13.6065 13.0034 14.371C13.4435 15.1354 14.139 15.7203 14.9676 16.0227C15.7963 16.3251 16.705 16.3258 17.534 16.0245C18.3631 15.7233 19.0594 15.1394 19.5006 14.3756C19.9418 13.6117 20.0996 12.7168 19.9462 11.8482C19.7929 10.9795 19.3383 10.1927 18.6623 9.62606C17.9862 9.05942 17.1321 8.74922 16.25 8.75ZM6.25002 12.5C6.25016 13.0347 6.07886 13.5554 5.76125 13.9856C5.44365 14.4158 4.99648 14.7328 4.48541 14.8901C3.97435 15.0474 3.42631 15.0367 2.92178 14.8595C2.41725 14.6824 1.98282 14.3481 1.68227 13.9058C1.38173 13.4636 1.2309 12.9366 1.25195 12.4023C1.273 11.868 1.46482 11.3545 1.79923 10.9372C2.13363 10.52 2.59302 10.2209 3.10992 10.084C3.62682 9.94712 4.174 9.97955 4.67111 10.1766L3.24533 12.1297C3.19342 12.1957 3.15535 12.2715 3.13339 12.3526C3.11143 12.4336 3.10604 12.5183 3.11753 12.6015C3.12902 12.6847 3.15716 12.7647 3.20027 12.8368C3.24338 12.9089 3.30058 12.9715 3.36844 13.021C3.4363 13.0705 3.51344 13.1058 3.59525 13.1248C3.67706 13.1438 3.76186 13.1461 3.84458 13.1316C3.9273 13.1171 4.00626 13.0861 4.07672 13.0404C4.14719 12.9947 4.20772 12.9352 4.2547 12.8656L5.68048 10.9125C6.04917 11.3593 6.25057 11.9207 6.25002 12.5ZM16.25 15C15.7549 14.9996 15.271 14.8522 14.8597 14.5765C14.4484 14.3007 14.1283 13.909 13.9399 13.4511C13.7515 12.9932 13.7034 12.4896 13.8016 12.0043C13.8998 11.5189 14.1399 11.0737 14.4914 10.725L15.7102 12.8125C15.7482 12.8889 15.8015 12.9568 15.8668 13.0118C15.9321 13.0668 16.0079 13.1079 16.0897 13.1325C16.1715 13.1571 16.2574 13.1646 16.3422 13.1547C16.427 13.1448 16.5089 13.1176 16.5828 13.0748C16.6567 13.0321 16.721 12.9746 16.7718 12.906C16.8227 12.8374 16.8589 12.7591 16.8783 12.676C16.8977 12.5928 16.8999 12.5066 16.8847 12.4226C16.8694 12.3386 16.8372 12.2586 16.7899 12.1875L15.5703 10.0945C15.9142 9.99718 16.275 9.97469 16.6283 10.0286C16.9816 10.0825 17.3193 10.2115 17.6185 10.407C17.9177 10.6024 18.1715 10.8597 18.3629 11.1616C18.5542 11.4635 18.6786 11.8029 18.7276 12.1569C18.7767 12.5109 18.7493 12.8713 18.6472 13.2138C18.5452 13.5564 18.3709 13.873 18.1361 14.1425C17.9012 14.4119 17.6114 14.6279 17.286 14.7758C16.9607 14.9237 16.6074 15.0002 16.25 15Z" fill="#191F2E"/>
</svg>
