<svg width="20" height="20" viewBox="0 0 20 20" fill="none" xmlns="http://www.w3.org/2000/svg">
<path d="M15.9375 8.4375C15.537 8.4373 15.1386 8.49654 14.7555 8.61328L13.1946 5.9375H15C15.0829 5.9375 15.1624 5.97042 15.221 6.02903C15.2796 6.08763 15.3125 6.16712 15.3125 6.25C15.3125 6.49864 15.4113 6.7371 15.5871 6.91291C15.7629 7.08873 16.0014 7.1875 16.25 7.1875C16.4987 7.1875 16.7371 7.08873 16.9129 6.91291C17.0887 6.7371 17.1875 6.49864 17.1875 6.25C17.1875 5.66984 16.9571 5.11344 16.5468 4.7032C16.1366 4.29297 15.5802 4.0625 15 4.0625H11.5625C11.3981 4.06281 11.2367 4.10635 11.0944 4.18875C10.9521 4.27116 10.834 4.38954 10.7519 4.532C10.6699 4.67447 10.6267 4.83602 10.6268 5.00044C10.6268 5.16485 10.6702 5.32636 10.7524 5.46875L11.3883 6.5625H8.5594L7.37268 4.53125C7.29054 4.38899 7.17247 4.2708 7.03028 4.18854C6.8881 4.10627 6.72679 4.06281 6.56252 4.0625H4.06252C3.81388 4.0625 3.57542 4.16127 3.39961 4.33709C3.22379 4.5129 3.12502 4.75136 3.12502 5C3.12502 5.24864 3.22379 5.4871 3.39961 5.66291C3.57542 5.83873 3.81388 5.9375 4.06252 5.9375H6.02424L6.88908 7.42188L5.78127 8.81953C4.87667 8.39506 3.84765 8.31769 2.88975 8.60213C1.93184 8.88656 1.1118 9.51297 0.585442 10.3623C0.0590813 11.2117 -0.136919 12.2248 0.0346829 13.2092C0.206285 14.1936 0.73353 15.0807 1.51624 15.7019C2.29895 16.323 3.28257 16.635 4.28022 16.5786C5.27786 16.5221 6.22 16.1011 6.92763 15.3956C7.63525 14.6901 8.05904 13.7492 8.11848 12.7517C8.17791 11.7543 7.86885 10.7697 7.25002 9.98516L7.90393 9.15937L9.21877 11.4102C9.27609 11.5247 9.35628 11.6263 9.45439 11.7087C9.55251 11.7911 9.66647 11.8525 9.78923 11.8891C9.912 11.9257 10.041 11.9368 10.1682 11.9216C10.2954 11.9065 10.4181 11.8654 10.5289 11.801C10.6396 11.7365 10.7359 11.65 10.8119 11.5469C10.8879 11.4438 10.942 11.3262 10.9708 11.2013C10.9995 11.0765 11.0024 10.9471 10.9792 10.8211C10.9561 10.6951 10.9073 10.5752 10.836 10.4688L9.65315 8.4375H12.4821L13.1375 9.56094C12.4545 10.2128 12.0198 11.0821 11.9081 12.0197C11.7965 12.9572 12.0149 13.9044 12.5258 14.6983C13.0367 15.4923 13.8082 16.0835 14.7078 16.3704C15.6073 16.6573 16.5786 16.6219 17.4549 16.2703C18.3312 15.9188 19.0576 15.2729 19.5094 14.4439C19.9611 13.6148 20.11 12.6543 19.9305 11.7274C19.7509 10.8004 19.2541 9.96501 18.5254 9.36463C17.7967 8.76425 16.8817 8.43643 15.9375 8.4375ZM6.25002 12.5C6.25009 12.9538 6.10903 13.3964 5.84639 13.7664C5.58374 14.1365 5.21251 14.4157 4.78412 14.5654C4.35573 14.7151 3.8914 14.7278 3.45543 14.6019C3.01947 14.476 2.63346 14.2176 2.35089 13.8625C2.06831 13.5074 1.90316 13.0733 1.8783 12.6201C1.85345 12.167 1.97013 11.7174 2.21217 11.3336C2.45421 10.9497 2.80964 10.6506 3.22921 10.4778C3.64879 10.3049 4.11174 10.2668 4.55393 10.3688L3.32736 11.918C3.173 12.1129 3.10241 12.3613 3.13113 12.6083C3.15985 12.8553 3.28551 13.0808 3.48049 13.2352C3.67547 13.3895 3.92378 13.4601 4.1708 13.4314C4.41782 13.4027 4.64331 13.277 4.79768 13.082L6.02424 11.5328C6.17309 11.8335 6.25036 12.1645 6.25002 12.5ZM15.9375 14.6875C15.5396 14.6873 15.1493 14.5786 14.8086 14.373C14.4678 14.1675 14.1896 13.8729 14.0039 13.521C13.8182 13.1691 13.732 12.7732 13.7546 12.3759C13.7771 11.9786 13.9077 11.595 14.1321 11.2664L15.1274 12.9727C15.2565 13.1787 15.4607 13.3265 15.6968 13.3848C15.9329 13.4432 16.1824 13.4075 16.3927 13.2853C16.6029 13.1632 16.7575 12.9641 16.8238 12.7301C16.89 12.4961 16.8627 12.2455 16.7477 12.0312L15.7516 10.325C15.8133 10.3195 15.875 10.3164 15.9375 10.3164C16.5177 10.3164 17.0741 10.5469 17.4843 10.9571C17.8946 11.3673 18.125 11.9237 18.125 12.5039C18.125 13.0841 17.8946 13.6405 17.4843 14.0507C17.0741 14.4609 16.5177 14.6914 15.9375 14.6914V14.6875Z" fill="#191F2E"/>
</svg>
