<svg width="20" height="20" viewBox="0 0 20 20" fill="none" xmlns="http://www.w3.org/2000/svg">
<path d="M4.25458 12.868L6.43193 9.88281C7.08806 10.5563 7.46723 11.4517 7.49431 12.3916C7.52138 13.3315 7.19439 14.2472 6.57812 14.9574C5.96185 15.6676 5.10129 16.1203 4.16696 16.2259C3.23264 16.3315 2.29274 16.0822 1.53353 15.5275C0.774324 14.9728 0.251208 14.1531 0.067851 13.2309C-0.115506 12.3086 0.054278 11.3512 0.543556 10.5482C1.03283 9.74531 1.8059 9.15547 2.70955 8.89563C3.61321 8.63579 4.5815 8.7249 5.42255 9.14531L3.24521 12.132C3.1933 12.1981 3.15523 12.2739 3.13327 12.3549C3.11131 12.436 3.10592 12.5206 3.11741 12.6038C3.1289 12.687 3.15704 12.7671 3.20015 12.8391C3.24326 12.9112 3.30046 12.9739 3.36832 13.0233C3.43618 13.0728 3.51332 13.1081 3.59513 13.1271C3.67694 13.1461 3.76174 13.1484 3.84446 13.1339C3.92719 13.1194 4.00614 13.0884 4.0766 13.0427C4.14707 12.997 4.2076 12.9376 4.25458 12.868ZM16.2499 8.75C15.798 8.7498 15.3499 8.8316 14.9272 8.99141L16.7897 12.1875C16.8371 12.2586 16.8693 12.3386 16.8845 12.4226C16.8998 12.5066 16.8976 12.5928 16.8782 12.676C16.8588 12.7591 16.8225 12.8374 16.7717 12.906C16.7209 12.9746 16.6565 13.0321 16.5827 13.0748C16.5088 13.1176 16.4269 13.1448 16.3421 13.1547C16.2573 13.1646 16.1714 13.1571 16.0896 13.1325C16.0078 13.1079 15.932 13.0668 15.8667 13.0118C15.8014 12.9568 15.7481 12.8889 15.7101 12.8125L13.8483 9.62031C13.1709 10.1854 12.7144 10.9711 12.559 11.8395C12.4036 12.7078 12.5594 13.6031 12.9988 14.368C13.4382 15.1329 14.1332 15.7184 14.9616 16.0216C15.79 16.3247 16.6987 16.3262 17.5281 16.0256C18.3574 15.7251 19.0543 15.1418 19.4961 14.3783C19.9379 13.6148 20.0965 12.72 19.9438 11.8511C19.7912 10.9823 19.3372 10.1951 18.6616 9.62793C17.986 9.06074 17.132 8.74988 16.2499 8.75ZM12.9632 5.625H14.9999C15.1657 5.625 15.3246 5.69085 15.4418 5.80806C15.559 5.92527 15.6249 6.08424 15.6249 6.25C15.6249 6.41576 15.6907 6.57473 15.808 6.69194C15.9252 6.80915 16.0841 6.875 16.2499 6.875C16.4157 6.875 16.5746 6.80915 16.6918 6.69194C16.809 6.57473 16.8749 6.41576 16.8749 6.25C16.8749 5.75272 16.6774 5.27581 16.3257 4.92417C15.9741 4.57254 15.4972 4.375 14.9999 4.375H11.8749C11.7653 4.37525 11.6577 4.40431 11.5629 4.45927C11.4681 4.51422 11.3894 4.59314 11.3347 4.68811C11.28 4.78308 11.2513 4.89077 11.2513 5.00036C11.2514 5.10995 11.2803 5.21759 11.3351 5.3125L12.2452 6.875H7.75458L6.47724 4.6875C6.42251 4.5927 6.34383 4.51393 6.24909 4.45909C6.15435 4.40425 6.04686 4.37525 5.9374 4.375H3.7499C3.58414 4.375 3.42516 4.44085 3.30795 4.55806C3.19074 4.67527 3.1249 4.83424 3.1249 5C3.1249 5.16576 3.19074 5.32473 3.30795 5.44194C3.42516 5.55915 3.58414 5.625 3.7499 5.625H5.5788L6.6499 7.46172L5.42255 9.14531C5.79801 9.33277 6.13923 9.58209 6.43193 9.88281L7.3374 8.64062L9.77255 12.8125C9.81061 12.8889 9.86391 12.9568 9.92919 13.0118C9.99447 13.0668 10.0703 13.1079 10.1521 13.1325C10.2339 13.1571 10.3198 13.1646 10.4046 13.1547C10.4894 13.1448 10.5713 13.1176 10.6452 13.0748C10.719 13.0321 10.7834 12.9746 10.8342 12.906C10.885 12.8374 10.9213 12.7591 10.9407 12.676C10.9601 12.5928 10.9623 12.5066 10.947 12.4226C10.9318 12.3386 10.8996 12.2586 10.8522 12.1875L8.48349 8.125H12.9741L13.8483 9.62266C14.1702 9.35349 14.5349 9.14013 14.9272 8.99141L12.9632 5.625Z" fill="#191F2E"/>
</svg>
