<svg width="20" height="20" viewBox="0 0 20 20" fill="none" xmlns="http://www.w3.org/2000/svg">
<path d="M18.5328 11.8672V11.8594C18.5315 11.8536 18.5296 11.8478 18.5273 11.8422C18.4755 11.7008 18.4152 11.5625 18.3469 11.4282L15.0992 4.04694C15.0679 3.97584 15.0237 3.9112 14.9687 3.85631C14.7366 3.62411 14.461 3.43991 14.1576 3.31423C13.8543 3.18856 13.5291 3.12388 13.2008 3.12388C12.8724 3.12388 12.5473 3.18856 12.2439 3.31423C11.9406 3.43991 11.665 3.62411 11.4328 3.85631C11.316 3.97324 11.2503 4.13167 11.25 4.29694V6.25006H8.74999V4.29694C8.75006 4.21484 8.73395 4.13353 8.70258 4.05766C8.67121 3.98178 8.6252 3.91284 8.56718 3.85475C8.33503 3.62254 8.0594 3.43834 7.75605 3.31267C7.4527 3.187 7.12757 3.12231 6.79921 3.12231C6.47086 3.12231 6.14572 3.187 5.84237 3.31267C5.53902 3.43834 5.2634 3.62254 5.03124 3.85475C4.97629 3.90963 4.93204 3.97428 4.90077 4.04537L1.65624 11.4282C1.5879 11.5625 1.52764 11.7008 1.47578 11.8422C1.4736 11.8476 1.47178 11.8531 1.47031 11.8587C1.47031 11.8587 1.47031 11.8649 1.47031 11.8672C1.14764 12.7996 1.20537 13.8215 1.63098 14.7115C2.05659 15.6015 2.81579 16.288 3.74405 16.6221C4.67231 16.9562 5.69485 16.9111 6.59006 16.4965C7.48527 16.0819 8.18103 15.3312 8.52656 14.4071C8.67869 13.992 8.75542 13.5531 8.75312 13.111V7.50006H11.2531V13.1118C11.2508 13.5539 11.3275 13.9928 11.4797 14.4079C11.8252 15.332 12.521 16.0826 13.4162 16.4973C14.3114 16.9119 15.3339 16.957 16.2622 16.6229C17.1904 16.2888 17.9496 15.6023 18.3753 14.7123C18.8009 13.8222 18.8586 12.8003 18.5359 11.868L18.5328 11.8672ZM7.34921 13.9766C7.11842 14.5924 6.65427 15.0925 6.05733 15.3685C5.46039 15.6445 4.77875 15.6741 4.1601 15.451C3.54146 15.2279 3.03564 14.77 2.75224 14.1766C2.46885 13.5831 2.43071 12.9019 2.64609 12.2805L2.78749 11.9579C3.04739 11.4638 3.46516 11.071 3.97423 10.842C4.4833 10.6129 5.05438 10.5609 5.59649 10.694C6.13859 10.8272 6.62052 11.138 6.96549 11.5769C7.31046 12.0158 7.49862 12.5575 7.49999 13.1157V13.1251C7.49995 13.4166 7.44892 13.7058 7.34921 13.9797V13.9766ZM15.8594 15.4743C15.4815 15.6126 15.0758 15.6577 14.6767 15.6056C14.2777 15.5536 13.8971 15.406 13.5673 15.1754C13.2375 14.9448 12.9683 14.6379 12.7825 14.281C12.5966 13.924 12.4997 13.5275 12.5 13.1251V13.1165C12.5021 12.5585 12.6907 12.0173 13.0359 11.5789C13.3812 11.1406 13.8631 10.8303 14.405 10.6976C14.9469 10.5648 15.5177 10.6171 16.0265 10.8462C16.5352 11.0753 16.9527 11.468 17.2125 11.9618L17.3539 12.2844C17.5762 12.9057 17.5438 13.5897 17.2639 14.1873C16.9839 14.7848 16.479 15.2475 15.8594 15.4743Z" fill="#191F2E"/>
</svg>
