<svg width="20" height="20" viewBox="0 0 20 20" fill="none" xmlns="http://www.w3.org/2000/svg">
<path d="M15 13.75C15 13.847 14.9774 13.9427 14.934 14.0295C14.8906 14.1163 14.8276 14.1918 14.75 14.25L9.75 18C9.64182 18.0811 9.51023 18.125 9.375 18.125C9.20924 18.125 9.05027 18.0592 8.93306 17.9419C8.81585 17.8247 8.75 17.6658 8.75 17.5V11.25L4.75 14.25C4.68434 14.2992 4.60962 14.3351 4.53012 14.3554C4.45061 14.3758 4.36787 14.3803 4.28661 14.3687C4.12252 14.3453 3.97446 14.2576 3.875 14.125C3.77555 13.9924 3.73284 13.8257 3.75628 13.6616C3.77973 13.4975 3.86739 13.3495 4 13.25L8.3336 10L4 6.75C3.86739 6.65054 3.77973 6.50248 3.75628 6.33839C3.73284 6.17429 3.77555 6.00761 3.875 5.875C3.97446 5.74239 4.12252 5.65472 4.28661 5.63128C4.45071 5.60784 4.61739 5.65054 4.75 5.75L8.75 8.75V2.5C8.75 2.38393 8.78232 2.27015 8.84335 2.17142C8.90437 2.07268 8.99168 1.99289 9.09549 1.94098C9.19931 1.88908 9.31553 1.8671 9.43113 1.87753C9.54673 1.88795 9.65715 1.93036 9.75 2L14.75 5.75C14.8276 5.80822 14.8906 5.88371 14.934 5.97049C14.9774 6.05728 15 6.15297 15 6.25C15 6.34703 14.9774 6.44272 14.934 6.52951C14.8906 6.61629 14.8276 6.69178 14.75 6.75L10.4164 10L14.75 13.25C14.8276 13.3082 14.8906 13.3837 14.934 13.4705C14.9774 13.5573 15 13.653 15 13.75Z" fill="#191F2E"/>
</svg>
