<svg width="20" height="20" viewBox="0 0 20 20" fill="none" xmlns="http://www.w3.org/2000/svg">
<path d="M14.9375 13L10.9375 10L11.8445 9.31953C12.0434 9.17035 12.1749 8.94826 12.2101 8.70211C12.2453 8.45597 12.1812 8.20594 12.032 8.00703C11.8828 7.80812 11.6608 7.67662 11.4146 7.64145C11.1685 7.60629 10.9184 7.67035 10.7195 7.81953L10.3125 8.125V4.375L10.7195 4.68047C10.9184 4.82965 11.1685 4.89371 11.4146 4.85855C11.6608 4.82338 11.8828 4.69188 12.032 4.49297C12.1812 4.29406 12.2453 4.04403 12.2101 3.79789C12.1749 3.55175 12.0434 3.32965 11.8445 3.18047L9.9375 1.75C9.79822 1.64554 9.6326 1.58192 9.4592 1.56629C9.28579 1.55065 9.11146 1.58361 8.95574 1.66147C8.80002 1.73934 8.66905 1.85903 8.57752 2.00713C8.48599 2.15523 8.4375 2.3259 8.4375 2.5V8.125L4.9375 5.5C4.73859 5.35082 4.48856 5.28676 4.24242 5.32192C3.99628 5.35709 3.77419 5.48859 3.625 5.6875C3.47582 5.88641 3.41176 6.13644 3.44693 6.38258C3.48209 6.62872 3.61359 6.85082 3.8125 7L7.8125 10L3.8125 13C3.71401 13.0739 3.63103 13.1664 3.56831 13.2724C3.50558 13.3783 3.46434 13.4955 3.44693 13.6174C3.42952 13.7393 3.43628 13.8634 3.46683 13.9827C3.49739 14.1019 3.55114 14.214 3.625 14.3125C3.69887 14.411 3.79142 14.494 3.89735 14.5567C4.00329 14.6194 4.12054 14.6607 4.24242 14.6781C4.3643 14.6955 4.48841 14.6887 4.60767 14.6582C4.72694 14.6276 4.83901 14.5739 4.9375 14.5L8.4375 11.875V17.5C8.4375 17.6741 8.48599 17.8448 8.57752 17.9929C8.66905 18.141 8.80002 18.2607 8.95574 18.3385C9.11146 18.4164 9.28579 18.4493 9.4592 18.4337C9.6326 18.4181 9.79822 18.3545 9.9375 18.25L14.9375 14.5C15.0539 14.4127 15.1484 14.2994 15.2135 14.1693C15.2786 14.0391 15.3125 13.8955 15.3125 13.75C15.3125 13.6045 15.2786 13.4609 15.2135 13.3307C15.1484 13.2006 15.0539 13.0873 14.9375 13ZM10.3125 15.625V11.875L12.8125 13.75L10.3125 15.625ZM18.7883 7.46172C18.9644 7.63784 19.0633 7.87671 19.0633 8.12578C19.0633 8.37485 18.9644 8.61372 18.7883 8.78984C18.6122 8.96596 18.3733 9.06491 18.1242 9.06491C17.8752 9.06491 17.6363 8.96596 17.4602 8.78984L16.25 7.57813L15.0383 8.79063C14.9511 8.87783 14.8476 8.94701 14.7336 8.9942C14.6197 9.0414 14.4976 9.06569 14.3742 9.06569C14.2509 9.06569 14.1288 9.0414 14.0148 8.9942C13.9009 8.94701 13.7974 8.87783 13.7102 8.79063C13.623 8.70342 13.5538 8.59989 13.5066 8.48595C13.4594 8.37201 13.4351 8.24989 13.4351 8.12656C13.4351 8.00323 13.4594 7.88111 13.5066 7.76717C13.5538 7.65323 13.623 7.54971 13.7102 7.4625L14.9219 6.25L13.7125 5.03828C13.5364 4.86216 13.4374 4.62329 13.4374 4.37422C13.4374 4.12515 13.5364 3.88628 13.7125 3.71016C13.8886 3.53404 14.1275 3.43509 14.3766 3.43509C14.6256 3.43509 14.8645 3.53404 15.0406 3.71016L16.25 4.92188L17.4617 3.70938C17.6378 3.53326 17.8767 3.43431 18.1258 3.43431C18.3749 3.43431 18.6137 3.53326 18.7898 3.70938C18.966 3.8855 19.0649 4.12437 19.0649 4.37344C19.0649 4.62251 18.966 4.86138 18.7898 5.0375L17.5781 6.25L18.7883 7.46172Z" fill="#191F2E"/>
</svg>
