<svg width="20" height="20" viewBox="0 0 20 20" fill="none" xmlns="http://www.w3.org/2000/svg">
<path d="M14.75 13.25L10.4164 10L14.75 6.75C14.8276 6.69178 14.8906 6.61629 14.934 6.52951C14.9774 6.44272 15 6.34703 15 6.25C15 6.15297 14.9774 6.05728 14.934 5.97049C14.8906 5.88371 14.8276 5.80822 14.75 5.75L9.75 2C9.65715 1.93036 9.54673 1.88795 9.43113 1.87753C9.31553 1.8671 9.19931 1.88908 9.09549 1.94098C8.99168 1.99289 8.90437 2.07268 8.84334 2.17142C8.78232 2.27015 8.75 2.38393 8.75 2.5V8.75L4.75 5.75C4.61739 5.65054 4.45071 5.60784 4.28661 5.63128C4.12252 5.65472 3.97446 5.74239 3.875 5.875C3.77554 6.00761 3.73284 6.17429 3.75628 6.33839C3.77972 6.50248 3.86739 6.65054 4 6.75L8.33359 10L4 13.25C3.93434 13.2992 3.87902 13.3609 3.8372 13.4316C3.79539 13.5022 3.76789 13.5804 3.75628 13.6616C3.73284 13.8257 3.77554 13.9924 3.875 14.125C3.97446 14.2576 4.12252 14.3453 4.28661 14.3687C4.45071 14.3922 4.61739 14.3495 4.75 14.25L8.75 11.25V17.5C8.75 17.6161 8.78232 17.7298 8.84334 17.8286C8.90437 17.9273 8.99168 18.0071 9.09549 18.059C9.19931 18.1109 9.31553 18.1329 9.43113 18.1225C9.54673 18.1121 9.65715 18.0696 9.75 18L14.75 14.25C14.8276 14.1918 14.8906 14.1163 14.934 14.0295C14.9774 13.9427 15 13.847 15 13.75C15 13.653 14.9774 13.5573 14.934 13.4705C14.8906 13.3837 14.8276 13.3082 14.75 13.25ZM10 3.75L13.3336 6.25L10 8.75V3.75ZM10 16.25V11.25L13.3336 13.75L10 16.25ZM4.0625 10.9375C3.87708 10.9375 3.69582 10.8825 3.54165 10.7795C3.38748 10.6765 3.26732 10.5301 3.19636 10.3588C3.12541 10.1875 3.10684 9.99896 3.14301 9.8171C3.17919 9.63525 3.26848 9.4682 3.39959 9.33709C3.5307 9.20598 3.69775 9.11669 3.8796 9.08051C4.06146 9.04434 4.24996 9.06291 4.42127 9.13386C4.59257 9.20482 4.73899 9.32498 4.842 9.47915C4.94502 9.63332 5 9.81458 5 10C5 10.2486 4.90123 10.4871 4.72541 10.6629C4.5496 10.8387 4.31114 10.9375 4.0625 10.9375ZM16.25 10C16.25 10.1854 16.195 10.3667 16.092 10.5208C15.989 10.675 15.8426 10.7952 15.6713 10.8661C15.5 10.9371 15.3115 10.9557 15.1296 10.9195C14.9477 10.8833 14.7807 10.794 14.6496 10.6629C14.5185 10.5318 14.4292 10.3648 14.393 10.1829C14.3568 10.001 14.3754 9.81254 14.4464 9.64123C14.5173 9.46993 14.6375 9.32351 14.7917 9.2205C14.9458 9.11748 15.1271 9.0625 15.3125 9.0625C15.5611 9.0625 15.7996 9.16127 15.9754 9.33709C16.1512 9.5129 16.25 9.75136 16.25 10Z" fill="#191F2E"/>
</svg>
