<svg width="20" height="20" viewBox="0 0 20 20" fill="none" xmlns="http://www.w3.org/2000/svg">
<path d="M15 13.75C15 13.847 14.9774 13.9427 14.934 14.0295C14.8906 14.1163 14.8276 14.1918 14.75 14.25L9.75 18C9.64181 18.0812 9.51023 18.125 9.375 18.125C9.26182 18.1253 9.15074 18.0945 9.0539 18.036C8.95905 17.9767 8.88114 17.8939 8.82775 17.7956C8.77436 17.6973 8.74731 17.5869 8.74921 17.475V11.25L4.74687 14.25C4.61495 14.3489 4.4493 14.3917 4.286 14.369C4.1227 14.3463 3.97497 14.26 3.875 14.1289C3.77681 13.9913 3.73653 13.8207 3.76283 13.6537C3.78912 13.4867 3.87989 13.3367 4.01562 13.236L8.33281 10L4.01406 6.7633C3.88379 6.66816 3.79426 6.52732 3.7634 6.36898C3.73255 6.21064 3.76264 6.04649 3.84765 5.90939C3.89456 5.83783 3.95566 5.77666 4.02717 5.72968C4.09868 5.68269 4.17907 5.65089 4.26337 5.63624C4.34767 5.62159 4.43408 5.62441 4.51725 5.64452C4.60042 5.66463 4.67857 5.7016 4.74687 5.75314L8.75 8.75002V2.51877C8.74843 2.42507 8.76741 2.33216 8.80561 2.24659C8.8438 2.16102 8.90029 2.08485 8.97109 2.02346C9.07926 1.93133 9.21558 1.87881 9.3576 1.87455C9.49962 1.87029 9.63885 1.91454 9.75234 2.00002L12.3789 3.96877C12.417 3.99828 12.4477 4.03621 12.4688 4.07957C12.4898 4.12294 12.5005 4.17058 12.5 4.21877V8.28127C12.5 8.32978 12.4887 8.37763 12.467 8.42102C12.4453 8.46442 12.4138 8.50216 12.375 8.53127L10.4172 10L14.7531 13.25C14.8302 13.3086 14.8926 13.3842 14.9354 13.471C14.9783 13.5577 15.0004 13.6533 15 13.75ZM18.5523 7.66642L17.1383 6.25002L18.5531 4.83517C18.6722 4.71992 18.742 4.56307 18.7479 4.39748C18.7539 4.2319 18.6956 4.07042 18.5852 3.94689C18.5278 3.88584 18.4588 3.83694 18.3822 3.80307C18.3056 3.76921 18.223 3.75109 18.1393 3.74978C18.0556 3.74846 17.9724 3.76399 17.8948 3.79544C17.8172 3.82688 17.7467 3.87361 17.6875 3.93283L16.2539 5.36643L14.8383 3.95158C14.7228 3.83267 14.5658 3.76295 14.4002 3.75698C14.2345 3.75101 14.073 3.80925 13.9492 3.91955C13.8882 3.97687 13.8393 4.04587 13.8054 4.12246C13.7715 4.19905 13.7534 4.28167 13.7521 4.3654C13.7508 4.44913 13.7663 4.53227 13.7978 4.60989C13.8292 4.6875 13.8759 4.758 13.9352 4.81721L15.3695 6.25002L13.9516 7.66642C13.8363 7.77867 13.7674 7.93019 13.7587 8.09086C13.7501 8.25154 13.8022 8.40959 13.9047 8.53361C13.9608 8.59863 14.0298 8.65138 14.1072 8.68856C14.1847 8.72574 14.2689 8.74655 14.3548 8.74971C14.4406 8.75286 14.5262 8.73828 14.6062 8.70688C14.6861 8.67548 14.7588 8.62793 14.8195 8.56721L16.2539 7.13361L17.6875 8.56721C17.7483 8.62806 17.8209 8.67571 17.901 8.70719C17.981 8.73866 18.0667 8.75328 18.1526 8.75013C18.2386 8.74697 18.3229 8.72612 18.4005 8.68886C18.478 8.65161 18.547 8.59875 18.6031 8.53361C18.7054 8.40942 18.7572 8.25135 18.7484 8.09073C18.7396 7.9301 18.6707 7.77866 18.5555 7.66642H18.5523Z" fill="#191F2E"/>
</svg>
