<svg width="20" height="20" viewBox="0 0 20 20" fill="none" xmlns="http://www.w3.org/2000/svg">
<path d="M15 13.75C15 13.847 14.9774 13.9427 14.934 14.0295C14.8906 14.1163 14.8276 14.1918 14.75 14.25L9.75 18C9.64182 18.0811 9.51023 18.125 9.375 18.125C9.20924 18.125 9.05027 18.0592 8.93306 17.9419C8.81585 17.8247 8.75 17.6658 8.75 17.5V11.25L4.75 14.25C4.68434 14.2992 4.60962 14.3351 4.53011 14.3554C4.45061 14.3758 4.36786 14.3803 4.28661 14.3687C4.12252 14.3453 3.97446 14.2576 3.875 14.125C3.77554 13.9924 3.73284 13.8257 3.75628 13.6616C3.77972 13.4975 3.86739 13.3495 4 13.25L8.33359 10L4 6.75C3.86739 6.65054 3.77972 6.50248 3.75628 6.33839C3.73284 6.17429 3.77554 6.00761 3.875 5.875C3.97446 5.74239 4.12252 5.65472 4.28661 5.63128C4.45071 5.60784 4.61739 5.65054 4.75 5.75L8.75 8.75V2.5C8.75 2.38393 8.78232 2.27015 8.84334 2.17142C8.90437 2.07268 8.99168 1.99289 9.09549 1.94098C9.19931 1.88908 9.31553 1.8671 9.43113 1.87753C9.54673 1.88795 9.65715 1.93036 9.75 2L14.75 5.75C14.8276 5.80822 14.8906 5.88371 14.934 5.97049C14.9774 6.05728 15 6.15297 15 6.25C15 6.34703 14.9774 6.44272 14.934 6.52951C14.8906 6.61629 14.8276 6.69178 14.75 6.75L10.4164 10L14.75 13.25C14.8276 13.3082 14.8906 13.3837 14.934 13.4705C14.9774 13.5573 15 13.653 15 13.75ZM5 10C5 9.81458 4.94502 9.63332 4.842 9.47915C4.73899 9.32498 4.59257 9.20482 4.42127 9.13386C4.24996 9.06291 4.06146 9.04434 3.8796 9.08051C3.69775 9.11669 3.5307 9.20598 3.39959 9.33709C3.26848 9.4682 3.17919 9.63525 3.14301 9.8171C3.10684 9.99896 3.12541 10.1875 3.19636 10.3588C3.26732 10.5301 3.38748 10.6765 3.54165 10.7795C3.69582 10.8825 3.87708 10.9375 4.0625 10.9375C4.31114 10.9375 4.5496 10.8387 4.72541 10.6629C4.90123 10.4871 5 10.2486 5 10ZM15.3125 9.0625C15.1271 9.0625 14.9458 9.11748 14.7917 9.2205C14.6375 9.32351 14.5173 9.46993 14.4464 9.64123C14.3754 9.81254 14.3568 10.001 14.393 10.1829C14.4292 10.3648 14.5185 10.5318 14.6496 10.6629C14.7807 10.794 14.9477 10.8833 15.1296 10.9195C15.3115 10.9557 15.5 10.9371 15.6713 10.8661C15.8426 10.7952 15.989 10.675 16.092 10.5208C16.195 10.3667 16.25 10.1854 16.25 10C16.25 9.75136 16.1512 9.5129 15.9754 9.33709C15.7996 9.16127 15.5611 9.0625 15.3125 9.0625Z" fill="#191F2E"/>
</svg>
