<svg width="20" height="20" viewBox="0 0 20 20" fill="none" xmlns="http://www.w3.org/2000/svg">
<path d="M16.6703 17.3375C16.5476 17.449 16.3857 17.5072 16.2201 17.4992C16.0546 17.4913 15.899 17.418 15.7875 17.2953L13.7211 15.0219L9.74997 18C9.65063 18.0745 9.53137 18.1176 9.4074 18.124C9.28343 18.1304 9.16036 18.0998 9.05388 18.036C8.95928 17.9765 8.88161 17.8936 8.82837 17.7953C8.77514 17.6971 8.74814 17.5868 8.74997 17.475V11.25L4.74997 14.25C4.61806 14.3489 4.45241 14.3917 4.2891 14.369C4.1258 14.3463 3.97807 14.26 3.8781 14.1289C3.78011 13.9913 3.73995 13.8207 3.76624 13.6538C3.79253 13.4868 3.88316 13.3368 4.01872 13.236L8.82185 9.63361L3.28747 3.54533C3.23112 3.4848 3.18734 3.41368 3.15868 3.3361C3.13001 3.25852 3.11703 3.17602 3.12048 3.09338C3.12393 3.01075 3.14375 2.92962 3.17879 2.8547C3.21383 2.77978 3.26338 2.71256 3.32459 2.65694C3.3858 2.60132 3.45744 2.55839 3.53536 2.53066C3.61327 2.50293 3.69592 2.49093 3.77851 2.49538C3.8611 2.49982 3.94198 2.52061 4.01647 2.55654C4.09097 2.59248 4.15759 2.64284 4.21247 2.70471L16.7125 16.4547C16.8239 16.5774 16.8821 16.7393 16.8742 16.9048C16.8663 17.0704 16.7929 17.226 16.6703 17.3375ZM11.2929 8.63517C11.3978 8.75008 11.5417 8.82176 11.6966 8.83621C11.8515 8.85065 12.0062 8.80683 12.1304 8.7133L14.7359 6.76017C14.8453 6.6809 14.9272 6.56947 14.9703 6.44142C15.0101 6.31758 15.0102 6.18441 14.9707 6.06047C14.9313 5.93654 14.8541 5.82801 14.75 5.75002L9.74997 2.00002C9.63648 1.91454 9.49725 1.87029 9.35523 1.87455C9.21322 1.87881 9.07689 1.93133 8.96872 2.02346C8.89848 2.08517 8.84252 2.16146 8.80474 2.24699C8.76696 2.33253 8.74827 2.42528 8.74997 2.51877V5.59611C8.75019 5.75128 8.80811 5.90082 8.91247 6.01564L11.2929 8.63517Z" fill="#191F2E"/>
</svg>
