<svg width="20" height="20" viewBox="0 0 20 20" fill="none" xmlns="http://www.w3.org/2000/svg">
<path d="M14.9375 13L10.9375 10L14.9375 7C15.0539 6.91267 15.1484 6.79944 15.2135 6.66926C15.2786 6.53909 15.3125 6.39554 15.3125 6.25C15.3125 6.10446 15.2786 5.96091 15.2135 5.83074C15.1484 5.70056 15.0539 5.58733 14.9375 5.5L9.9375 1.75C9.79822 1.64554 9.6326 1.58192 9.4592 1.56629C9.28579 1.55065 9.11146 1.58361 8.95574 1.66147C8.80002 1.73934 8.66905 1.85903 8.57752 2.00713C8.48599 2.15523 8.4375 2.3259 8.4375 2.5V8.125L4.9375 5.5C4.73859 5.35082 4.48856 5.28676 4.24242 5.32192C3.99628 5.35709 3.77419 5.48859 3.625 5.6875C3.47582 5.88641 3.41176 6.13644 3.44693 6.38258C3.48209 6.62872 3.61359 6.85082 3.8125 7L7.8125 10L3.8125 13C3.71401 13.0739 3.63103 13.1664 3.56831 13.2724C3.50558 13.3783 3.46434 13.4955 3.44693 13.6174C3.42952 13.7393 3.43628 13.8634 3.46683 13.9827C3.49739 14.1019 3.55114 14.214 3.625 14.3125C3.69887 14.411 3.79142 14.494 3.89735 14.5567C4.00329 14.6194 4.12054 14.6607 4.24242 14.6781C4.3643 14.6955 4.48841 14.6887 4.60767 14.6582C4.72694 14.6276 4.83901 14.5739 4.9375 14.5L8.4375 11.875V17.5C8.4375 17.6741 8.48599 17.8448 8.57752 17.9929C8.66905 18.141 8.80002 18.2607 8.95574 18.3385C9.11146 18.4164 9.28579 18.4493 9.4592 18.4337C9.6326 18.4181 9.79822 18.3545 9.9375 18.25L14.9375 14.5C15.0539 14.4127 15.1484 14.2994 15.2135 14.1693C15.2786 14.0391 15.3125 13.8955 15.3125 13.75C15.3125 13.6045 15.2786 13.4609 15.2135 13.3307C15.1484 13.2006 15.0539 13.0873 14.9375 13ZM10.3125 4.375L12.8125 6.25L10.3125 8.125V4.375ZM10.3125 15.625V11.875L12.8125 13.75L10.3125 15.625Z" fill="#191F2E"/>
</svg>
