<svg width="20" height="20" viewBox="0 0 20 20" fill="none" xmlns="http://www.w3.org/2000/svg">
<path d="M14.75 13.25L10.4164 10L12.25 8.625C12.3826 8.52554 12.4703 8.37748 12.4937 8.21339C12.5172 8.04929 12.4745 7.88261 12.375 7.75C12.2755 7.61739 12.1275 7.52972 11.9634 7.50628C11.7993 7.48284 11.6326 7.52554 11.5 7.625L10 8.75V3.75L11.5 4.875C11.5657 4.92425 11.6404 4.96008 11.7199 4.98045C11.7994 5.00082 11.8821 5.00533 11.9634 4.99372C12.0446 4.98211 12.1228 4.95461 12.1934 4.9128C12.2641 4.87098 12.3258 4.81566 12.375 4.75C12.4242 4.68434 12.4601 4.60962 12.4804 4.53011C12.5008 4.4506 12.5053 4.36786 12.4937 4.28661C12.4821 4.20536 12.4546 4.12719 12.4128 4.05657C12.371 3.98594 12.3157 3.92425 12.25 3.875L9.75 2C9.65715 1.93036 9.54673 1.88795 9.43113 1.87753C9.31553 1.8671 9.19931 1.88908 9.09549 1.94098C8.99168 1.99289 8.90437 2.07268 8.84335 2.17142C8.78232 2.27015 8.75 2.38393 8.75 2.5V8.75L4.75 5.75C4.61739 5.65054 4.45071 5.60784 4.28661 5.63128C4.12252 5.65472 3.97446 5.74239 3.875 5.875C3.77555 6.00761 3.73284 6.17429 3.75628 6.33839C3.77973 6.50248 3.86739 6.65054 4 6.75L8.3336 10L4 13.25C3.93434 13.2992 3.87902 13.3609 3.83721 13.4316C3.79539 13.5022 3.76789 13.5804 3.75628 13.6616C3.73284 13.8257 3.77555 13.9924 3.875 14.125C3.97446 14.2576 4.12252 14.3453 4.28661 14.3687C4.45071 14.3922 4.61739 14.3495 4.75 14.25L8.75 11.25V17.5C8.75 17.6161 8.78232 17.7298 8.84335 17.8286C8.90437 17.9273 8.99168 18.0071 9.09549 18.059C9.19931 18.1109 9.31553 18.1329 9.43113 18.1225C9.54673 18.1121 9.65715 18.0696 9.75 18L14.75 14.25C14.8276 14.1918 14.8906 14.1163 14.934 14.0295C14.9774 13.9427 15 13.847 15 13.75C15 13.653 14.9774 13.5573 14.934 13.4705C14.8906 13.3837 14.8276 13.3082 14.75 13.25ZM10 16.25V11.25L13.3336 13.75L10 16.25ZM18.5672 7.68281C18.6253 7.74088 18.6713 7.80982 18.7027 7.88569C18.7342 7.96156 18.7504 8.04288 18.7504 8.125C18.7504 8.20712 18.7342 8.28844 18.7027 8.36431C18.6713 8.44018 18.6253 8.50912 18.5672 8.56719C18.5091 8.62526 18.4402 8.67132 18.3643 8.70275C18.2884 8.73417 18.2071 8.75035 18.125 8.75035C18.0429 8.75035 17.9616 8.73417 17.8857 8.70275C17.8098 8.67132 17.7409 8.62526 17.6828 8.56719L16.25 7.13359L14.8172 8.56719C14.6999 8.68446 14.5409 8.75035 14.375 8.75035C14.2092 8.75035 14.0501 8.68446 13.9328 8.56719C13.8155 8.44991 13.7497 8.29085 13.7497 8.125C13.7497 7.95915 13.8155 7.80009 13.9328 7.68281L15.3664 6.25L13.9328 4.81719C13.8747 4.75912 13.8287 4.69018 13.7973 4.61431C13.7658 4.53844 13.7497 4.45712 13.7497 4.375C13.7497 4.29288 13.7658 4.21156 13.7973 4.13569C13.8287 4.05982 13.8747 3.99088 13.9328 3.93281C14.0501 3.81554 14.2092 3.74965 14.375 3.74965C14.4571 3.74965 14.5384 3.76583 14.6143 3.79725C14.6902 3.82868 14.7591 3.87474 14.8172 3.93281L16.25 5.36641L17.6828 3.93281C17.7409 3.87474 17.8098 3.82868 17.8857 3.79725C17.9616 3.76583 18.0429 3.74965 18.125 3.74965C18.2071 3.74965 18.2884 3.76583 18.3643 3.79725C18.4402 3.82868 18.5091 3.87474 18.5672 3.93281C18.6253 3.99088 18.6713 4.05982 18.7027 4.13569C18.7342 4.21156 18.7503 4.29288 18.7504 4.375C18.7503 4.45712 18.7342 4.53844 18.7027 4.61431C18.6713 4.69018 18.6253 4.75912 18.5672 4.81719L17.1336 6.25L18.5672 7.68281Z" fill="#191F2E"/>
</svg>
