<svg width="20" height="20" viewBox="0 0 20 20" fill="none" xmlns="http://www.w3.org/2000/svg">
<path d="M17.3695 8.34687L16.5625 8.07734V4.375C16.5625 3.9606 16.3979 3.56317 16.1049 3.27015C15.8118 2.97712 15.4144 2.8125 15 2.8125H10.9375V1.875C10.9375 1.62636 10.8387 1.3879 10.6629 1.21209C10.4871 1.03627 10.2486 0.9375 10 0.9375C9.75136 0.9375 9.5129 1.03627 9.33709 1.21209C9.16127 1.3879 9.0625 1.62636 9.0625 1.875V2.8125H5C4.5856 2.8125 4.18817 2.97712 3.89515 3.27015C3.60212 3.56317 3.4375 3.9606 3.4375 4.375V8.07734L2.63047 8.34687C2.3191 8.45076 2.04836 8.65007 1.85666 8.91652C1.66496 9.18296 1.56204 9.50301 1.5625 9.83125V12.5078C1.56272 12.5947 1.57481 12.6812 1.59844 12.7648C2.875 17.2375 8.52656 18.7617 9.64531 19.0219C9.87815 19.076 10.1203 19.076 10.3531 19.0219C11.4727 18.7617 17.1242 17.2375 18.4 12.7648C18.4236 12.6812 18.4357 12.5947 18.4359 12.5078V9.82969C18.4362 9.50191 18.3333 9.18235 18.142 8.91624C17.9506 8.65013 17.6804 8.45095 17.3695 8.34687ZM5.3125 4.6875H14.6875V7.45156L10.2969 5.98594C10.1042 5.92161 9.89582 5.92161 9.70313 5.98594L5.3125 7.45156V4.6875ZM16.5625 12.3703C15.5109 15.7 10.825 16.9797 10 17.1789C9.17578 16.9781 4.48906 15.7008 3.4375 12.3703V10.0539L9.0625 8.17891V13.125C9.0625 13.3736 9.16127 13.6121 9.33709 13.7879C9.5129 13.9637 9.75136 14.0625 10 14.0625C10.2486 14.0625 10.4871 13.9637 10.6629 13.7879C10.8387 13.6121 10.9375 13.3736 10.9375 13.125V8.17656L16.5625 10.0516V12.3703Z" fill="#191F2E"/>
</svg>
