<svg width="20" height="20" viewBox="0 0 20 20" fill="none" xmlns="http://www.w3.org/2000/svg">
<path d="M18.0562 8.41554C17.6168 8.91967 17.0117 9.25024 16.3501 9.34764C15.6884 9.44505 15.0137 9.30289 14.4476 8.94679C14.4451 8.94583 14.4424 8.94583 14.4398 8.94679L8.94374 14.4437C8.94374 14.4437 8.94374 14.4437 8.94374 14.4499C9.16643 14.8086 9.3055 15.2129 9.35064 15.6326C9.39578 16.0524 9.34582 16.477 9.20448 16.8748C9.06315 17.2727 8.83405 17.6336 8.53419 17.9308C8.23433 18.2281 7.8714 18.454 7.47232 18.5918C7.07324 18.7296 6.64825 18.7758 6.22888 18.7269C5.8095 18.6781 5.40651 18.5355 5.04979 18.3096C4.69306 18.0838 4.39177 17.7805 4.16824 17.4223C3.94472 17.0641 3.8047 16.6602 3.75859 16.2405C3.3389 16.1944 2.93499 16.0544 2.57681 15.8309C2.21862 15.6074 1.91536 15.3061 1.68951 14.9493C1.46366 14.5926 1.32103 14.1896 1.27218 13.7703C1.22334 13.3509 1.26954 12.9259 1.40735 12.5268C1.54517 12.1277 1.77107 11.7648 2.06829 11.4649C2.36551 11.1651 2.72644 10.936 3.12428 10.7946C3.52213 10.6533 3.94669 10.6034 4.36648 10.6485C4.78627 10.6936 5.19051 10.8327 5.54921 11.0554C5.55173 11.0563 5.55451 11.0563 5.55702 11.0554L11.0531 5.55851C11.0531 5.55851 11.0531 5.55851 11.0531 5.55226C10.8304 5.19356 10.6914 4.78932 10.6462 4.36953C10.6011 3.94974 10.651 3.52518 10.7924 3.12733C10.9337 2.72949 11.1628 2.36857 11.4627 2.07134C11.7625 1.77412 12.1255 1.54822 12.5245 1.4104C12.9236 1.27259 13.3486 1.22639 13.768 1.27523C14.1874 1.32408 14.5903 1.46672 14.9471 1.69256C15.3038 1.91841 15.6051 2.22168 15.8286 2.57986C16.0521 2.93804 16.1922 3.34196 16.2383 3.76164C16.7512 3.81563 17.2395 4.00966 17.6496 4.32248C18.0597 4.63531 18.3759 5.05489 18.5636 5.53534C18.7512 6.01578 18.8032 6.53859 18.7137 7.04657C18.6242 7.55455 18.3968 8.02814 18.0562 8.41554Z" fill="#191F2E"/>
</svg>
