<svg width="20" height="20" viewBox="0 0 20 20" fill="none" xmlns="http://www.w3.org/2000/svg">
<path d="M18.0992 4.75695C17.6325 4.19503 16.9647 3.83783 16.2383 3.76164C16.1921 3.34196 16.0521 2.93804 15.8286 2.57986C15.6051 2.22168 15.3038 1.91841 14.9471 1.69256C14.5903 1.46672 14.1873 1.32408 13.768 1.27523C13.3486 1.22639 12.9236 1.27259 12.5245 1.4104C12.1255 1.54822 11.7625 1.77412 11.4627 2.07134C11.1628 2.36857 10.9337 2.72949 10.7924 3.12733C10.651 3.52518 10.6011 3.94974 10.6462 4.36953C10.6913 4.78932 10.8304 5.19356 11.0531 5.55226C11.0534 5.55433 11.0534 5.55644 11.0531 5.55851L5.56014 11.0554C5.56014 11.0554 5.56014 11.0554 5.55232 11.0554C5.19362 10.8327 4.78938 10.6936 4.36959 10.6485C3.94981 10.6034 3.52524 10.6533 3.1274 10.7946C2.72955 10.936 2.36863 11.1651 2.0714 11.4649C1.77418 11.7648 1.54828 12.1277 1.41047 12.5268C1.27265 12.9259 1.22645 13.3509 1.27529 13.7703C1.32414 14.1896 1.46678 14.5926 1.69263 14.9493C1.91847 15.3061 2.22174 15.6074 2.57992 15.8309C2.9381 16.0544 3.34202 16.1944 3.7617 16.2405C3.80782 16.6602 3.94783 17.0641 4.17135 17.4223C4.39488 17.7805 4.69618 18.0838 5.0529 18.3096C5.40962 18.5355 5.81262 18.6781 6.23199 18.7269C6.65136 18.7758 7.07635 18.7296 7.47543 18.5918C7.87451 18.454 8.23744 18.2281 8.5373 17.9308C8.83716 17.6336 9.06626 17.2727 9.2076 16.8748C9.34894 16.477 9.39889 16.0524 9.35375 15.6326C9.30861 15.2129 9.16954 14.8086 8.94685 14.4499C8.9467 14.4478 8.9467 14.4457 8.94685 14.4437L14.4429 8.94679C14.4429 8.94679 14.4429 8.94679 14.4508 8.94679C15.0183 9.30429 15.695 9.44715 16.3586 9.34962C17.0223 9.25208 17.6292 8.92056 18.07 8.41488C18.5107 7.9092 18.7561 7.26265 18.7621 6.5919C18.768 5.92114 18.534 5.27035 18.1023 4.75695H18.0992ZM17.1172 7.59054C16.8728 7.87038 16.5366 8.05398 16.1691 8.10838C15.8016 8.16279 15.4267 8.08445 15.1117 7.88742C14.8719 7.73525 14.5874 7.66929 14.3051 7.70039C14.0228 7.73149 13.7595 7.85779 13.5586 8.05851L8.05857 13.5585C7.85834 13.7598 7.73262 14.0233 7.70209 14.3056C7.67156 14.5879 7.73804 14.8722 7.8906 15.1116C8.02363 15.3256 8.10293 15.5686 8.12176 15.8198C8.14058 16.0711 8.09837 16.3232 7.99871 16.5546C7.89905 16.786 7.74491 16.9899 7.54943 17.1488C7.35395 17.3078 7.12293 17.4171 6.87606 17.4675C6.62919 17.5179 6.3738 17.5078 6.13166 17.4382C5.88953 17.3685 5.66782 17.2414 5.48546 17.0675C5.3031 16.8936 5.16548 16.6783 5.08435 16.4397C5.00322 16.2012 4.98097 15.9466 5.01951 15.6976C5.03351 15.6084 5.02801 15.5172 5.00338 15.4303C4.97875 15.3434 4.93559 15.2629 4.87685 15.1943C4.81812 15.1256 4.74522 15.0706 4.66316 15.0329C4.58111 14.9951 4.49185 14.9756 4.40154 14.9757C4.36936 14.976 4.33725 14.9786 4.30545 14.9835C4.05671 15.0218 3.80242 14.9994 3.5642 14.9182C3.32598 14.8371 3.11088 14.6996 2.93721 14.5175C2.76353 14.3353 2.63642 14.114 2.56668 13.8722C2.49694 13.6304 2.48664 13.3753 2.53665 13.1286C2.58666 12.882 2.69551 12.6511 2.85393 12.4556C3.01235 12.26 3.21566 12.1056 3.44656 12.0056C3.67746 11.9055 3.92911 11.8626 4.18012 11.8807C4.43114 11.8988 4.67407 11.9772 4.88826 12.1093C5.12807 12.2615 5.41255 12.3274 5.69485 12.2963C5.97715 12.2652 6.24045 12.1389 6.44139 11.9382L11.9414 6.4382C12.1409 6.23709 12.2661 5.9742 12.2966 5.6926C12.3271 5.41099 12.2611 5.12737 12.1094 4.8882C11.9763 4.67422 11.897 4.43125 11.8782 4.17999C11.8594 3.92874 11.9016 3.67666 12.0012 3.44525C12.1009 3.21384 12.255 3.00996 12.4505 2.85099C12.646 2.69203 12.877 2.5827 13.1239 2.53232C13.3708 2.48193 13.6262 2.492 13.8683 2.56165C14.1104 2.63131 14.3321 2.75849 14.5145 2.93234C14.6969 3.1062 14.8345 3.32158 14.9156 3.56011C14.9967 3.79865 15.019 4.05327 14.9804 4.30226C14.9652 4.39951 14.9732 4.49897 15.0037 4.59255C15.0342 4.68612 15.0864 4.77117 15.156 4.84077C15.2256 4.91037 15.3106 4.96255 15.4042 4.99305C15.4978 5.02356 15.5973 5.03153 15.6945 5.01632C16.0127 4.96484 16.339 5.01301 16.6287 5.15422C16.9184 5.29544 17.1574 5.52279 17.3128 5.80513C17.4683 6.08746 17.5326 6.41096 17.497 6.7313C17.4615 7.05163 17.3277 7.35312 17.114 7.59445L17.1172 7.59054Z" fill="#191F2E"/>
</svg>
