<svg width="20" height="20" viewBox="0 0 20 20" fill="none" xmlns="http://www.w3.org/2000/svg">
<path d="M18.3391 4.55546C17.8743 3.99695 17.2291 3.61836 16.5148 3.48515C16.4296 3.04579 16.2511 2.62987 15.9912 2.26551C15.7313 1.90115 15.3962 1.59686 15.0086 1.37322C14.6209 1.14958 14.1897 1.01182 13.7442 0.969248C13.2987 0.926678 12.8493 0.980295 12.4263 1.12647C12.0033 1.27265 11.6166 1.50797 11.2925 1.81653C10.9683 2.12508 10.7142 2.49966 10.5473 2.91493C10.3805 3.3302 10.3047 3.77646 10.3253 4.22352C10.3458 4.67059 10.4622 5.10803 10.6664 5.50624L5.51015 10.6664C5.11193 10.4622 4.67449 10.3458 4.22743 10.3253C3.78036 10.3047 3.3341 10.3805 2.91884 10.5473C2.50357 10.7142 2.12899 10.9683 1.82043 11.2925C1.51188 11.6166 1.27656 12.0033 1.13038 12.4263C0.984202 12.8493 0.930584 13.2987 0.973154 13.7442C1.01572 14.1897 1.15349 14.6209 1.37713 15.0086C1.60076 15.3962 1.90505 15.7313 2.26941 15.9912C2.63377 16.2511 3.0497 16.4296 3.48905 16.5148C3.57409 16.9543 3.75254 17.3704 4.01233 17.7349C4.27212 18.0994 4.60718 18.4038 4.99485 18.6276C5.38251 18.8514 5.81372 18.9893 6.25929 19.0319C6.70487 19.0746 7.15441 19.021 7.57749 18.8749C8.00057 18.7287 8.38732 18.4934 8.71156 18.1848C9.0358 17.8762 9.28996 17.5016 9.45684 17.0862C9.62372 16.6709 9.69942 16.2245 9.67883 15.7774C9.65824 15.3303 9.54184 14.8928 9.33749 14.4945L14.4976 9.33358C15.1389 9.67074 15.8773 9.77463 16.5867 9.62747C17.2961 9.48032 17.9323 9.09127 18.3865 8.52687C18.8407 7.96247 19.0847 7.25778 19.0768 6.53336C19.0688 5.80893 18.8094 5.10977 18.343 4.55546H18.3391ZM16.8828 7.38358C16.6869 7.60704 16.4177 7.75336 16.1236 7.79632C15.8295 7.83927 15.5298 7.77603 15.2781 7.61796C14.9782 7.42817 14.6227 7.34613 14.27 7.38532C13.9173 7.42451 13.5884 7.5826 13.3375 7.83358L7.83749 13.3336C7.58663 13.5846 7.42868 13.9135 7.38963 14.2662C7.35058 14.6189 7.43276 14.9744 7.62265 15.2742C7.72885 15.4454 7.7921 15.6398 7.80701 15.8407C7.82192 16.0416 7.78804 16.2431 7.70825 16.4281C7.62847 16.6131 7.50515 16.7761 7.34881 16.9032C7.19246 17.0303 7.00771 17.1177 6.8103 17.1579C6.6129 17.1982 6.40868 17.1902 6.21505 17.1345C6.02142 17.0788 5.84412 16.9772 5.69825 16.8382C5.55237 16.6992 5.44225 16.5271 5.37726 16.3364C5.31227 16.1457 5.29434 15.9421 5.32499 15.743C5.34536 15.6095 5.33665 15.4731 5.29944 15.3433C5.26224 15.2135 5.19743 15.0932 5.10944 14.9908C5.02145 14.8883 4.91236 14.8061 4.78965 14.7497C4.66693 14.6933 4.53348 14.6641 4.39843 14.6641C4.35004 14.6638 4.3017 14.6675 4.2539 14.675C4.0547 14.7058 3.85101 14.688 3.66018 14.6231C3.46935 14.5582 3.29705 14.4481 3.15796 14.3022C3.01888 14.1563 2.91713 13.979 2.86141 13.7853C2.80569 13.5916 2.79763 13.3872 2.83794 13.1898C2.87824 12.9923 2.96571 12.8074 3.09288 12.6511C3.22005 12.4947 3.38316 12.3714 3.56829 12.2916C3.75342 12.2119 3.95508 12.1781 4.15608 12.1932C4.35708 12.2083 4.55146 12.2717 4.72265 12.3781C5.02245 12.5677 5.37783 12.6496 5.73038 12.6104C6.08292 12.5713 6.41164 12.4133 6.66249 12.1625L12.1625 6.66249C12.4135 6.41159 12.5716 6.08272 12.6108 5.73001C12.6499 5.37729 12.5679 5.02174 12.3781 4.72187C12.2717 4.55068 12.2083 4.3563 12.1932 4.1553C12.1781 3.9543 12.2119 3.75263 12.2916 3.56751C12.3714 3.38238 12.4947 3.21927 12.6511 3.0921C12.8074 2.96493 12.9923 2.87746 13.1898 2.83716C13.3872 2.79685 13.5916 2.80491 13.7853 2.86063C13.979 2.91635 14.1563 3.01809 14.3022 3.15718C14.4481 3.29626 14.5582 3.46857 14.6231 3.6594C14.688 3.85023 14.7058 4.05392 14.675 4.25312C14.6522 4.39898 14.6641 4.54817 14.7099 4.68854C14.7557 4.82891 14.8339 4.95648 14.9383 5.06088C15.0427 5.16528 15.1703 5.24354 15.3107 5.2893C15.451 5.33506 15.6002 5.34702 15.7461 5.32421C16.0001 5.28351 16.2605 5.32219 16.4918 5.43498C16.723 5.54777 16.9138 5.72917 17.0382 5.95441C17.1625 6.17966 17.2143 6.43779 17.1865 6.69357C17.1587 6.94935 17.0526 7.19032 16.8828 7.38358Z" fill="#191F2E"/>
</svg>
