<svg width="20" height="20" viewBox="0 0 20 20" fill="none" xmlns="http://www.w3.org/2000/svg">
<path d="M16.25 1.5625H5.625C4.87908 1.5625 4.16371 1.85882 3.63626 2.38626C3.10882 2.91371 2.8125 3.62908 2.8125 4.375V17.5C2.8125 17.7486 2.91127 17.9871 3.08709 18.1629C3.2629 18.3387 3.50136 18.4375 3.75 18.4375H15C15.2486 18.4375 15.4871 18.3387 15.6629 18.1629C15.8387 17.9871 15.9375 17.7486 15.9375 17.5C15.9375 17.2514 15.8387 17.0129 15.6629 16.8371C15.4871 16.6613 15.2486 16.5625 15 16.5625H4.6875V16.25C4.6875 16.0014 4.78627 15.7629 4.96209 15.5871C5.1379 15.4113 5.37636 15.3125 5.625 15.3125H16.25C16.4986 15.3125 16.7371 15.2137 16.9129 15.0379C17.0887 14.8621 17.1875 14.6236 17.1875 14.375V2.5C17.1875 2.25136 17.0887 2.0129 16.9129 1.83709C16.7371 1.66127 16.4986 1.5625 16.25 1.5625ZM9.375 3.4375H12.5V8.125L11.4992 7.375C11.3369 7.25329 11.1396 7.1875 10.9367 7.1875C10.7339 7.1875 10.5365 7.25329 10.3742 7.375L9.375 8.125V3.4375ZM15.3125 13.4375H5.625C5.30558 13.4369 4.98844 13.4913 4.6875 13.5984V4.375C4.6875 4.12636 4.78627 3.8879 4.96209 3.71209C5.1379 3.53627 5.37636 3.4375 5.625 3.4375H7.5V10C7.5 10.1741 7.54848 10.3448 7.64001 10.4929C7.73155 10.641 7.86251 10.7607 8.01824 10.8385C8.17396 10.9164 8.34829 10.9493 8.52169 10.9337C8.69509 10.9181 8.86072 10.8545 9 10.75L10.9375 9.29688L12.8758 10.75C13.0151 10.8542 13.1806 10.9177 13.3539 10.9332C13.5272 10.9487 13.7013 10.9157 13.8569 10.8379C14.0125 10.76 14.1434 10.6404 14.2349 10.4925C14.3264 10.3445 14.3749 10.174 14.375 10V3.4375H15.3125V13.4375Z" fill="#191F2E"/>
</svg>
