<svg width="20" height="20" viewBox="0 0 20 20" fill="none" xmlns="http://www.w3.org/2000/svg">
<path d="M18.0977 15.1993L15.5047 2.87116C15.4712 2.70994 15.4061 2.55694 15.3132 2.42094C15.2204 2.28495 15.1016 2.16863 14.9637 2.07869C14.8257 1.98874 14.6714 1.92693 14.5095 1.89682C14.3476 1.8667 14.1814 1.86887 14.0203 1.90319L10.3633 2.68913C10.0398 2.75996 9.75738 2.95564 9.57742 3.23362C9.39747 3.51159 9.33455 3.84938 9.40234 4.17351L11.9953 16.5016C12.0531 16.7829 12.206 17.0357 12.4282 17.2175C12.6504 17.3994 12.9285 17.4991 13.2156 17.5001C13.3044 17.5 13.3929 17.4905 13.4797 17.4719L17.1367 16.686C17.4606 16.615 17.7433 16.4189 17.9233 16.1405C18.1033 15.862 18.1659 15.5237 18.0977 15.1993ZM10.625 3.91804C10.625 3.91335 10.625 3.91101 10.625 3.91101L14.2812 3.12976L14.5414 4.3696L10.8852 5.15632L10.625 3.91804ZM11.4062 7.6196L11.1445 6.37741L14.8023 5.59147L15.0633 6.83366L11.4062 7.6196ZM16.875 15.4641L13.2188 16.2454L12.9586 15.0055L16.6148 14.2188L16.875 15.4571C16.875 15.4618 16.875 15.4641 16.875 15.4641ZM8.125 2.50007H4.375C4.04348 2.50007 3.72554 2.63176 3.49112 2.86618C3.2567 3.10061 3.125 3.41855 3.125 3.75007V16.2501C3.125 16.5816 3.2567 16.8995 3.49112 17.134C3.72554 17.3684 4.04348 17.5001 4.375 17.5001H8.125C8.45652 17.5001 8.77446 17.3684 9.00888 17.134C9.2433 16.8995 9.375 16.5816 9.375 16.2501V3.75007C9.375 3.41855 9.2433 3.10061 9.00888 2.86618C8.77446 2.63176 8.45652 2.50007 8.125 2.50007ZM4.375 3.75007H8.125V5.00007H4.375V3.75007ZM8.125 16.2501H4.375V15.0001H8.125V16.2501Z" fill="#191F2E"/>
</svg>
