<svg width="20" height="20" viewBox="0 0 20 20" fill="none" xmlns="http://www.w3.org/2000/svg">
<path d="M14.375 2.1875H5.625C5.2106 2.1875 4.81317 2.35212 4.52015 2.64515C4.22712 2.93817 4.0625 3.3356 4.0625 3.75V17.5C4.06244 17.6674 4.1072 17.8317 4.19211 17.9759C4.27703 18.1202 4.39901 18.2391 4.54539 18.3202C4.69177 18.4014 4.85721 18.4419 5.02453 18.4375C5.19185 18.4331 5.35494 18.384 5.49688 18.2953L9.99922 15.4828L14.5031 18.2953C14.6451 18.384 14.8082 18.4331 14.9755 18.4375C15.1428 18.4419 15.3082 18.4014 15.4546 18.3202C15.601 18.2391 15.723 18.1202 15.8079 17.9759C15.8928 17.8317 15.9376 17.6674 15.9375 17.5V3.75C15.9375 3.3356 15.7729 2.93817 15.4799 2.64515C15.1868 2.35212 14.7894 2.1875 14.375 2.1875ZM14.0625 4.0625V12.0586L10.4961 9.82969C10.3471 9.73656 10.1749 9.68719 9.99922 9.68719C9.82351 9.68719 9.65134 9.73656 9.50234 9.82969L5.9375 12.0586V4.0625H14.0625ZM10.4961 13.5797C10.3471 13.4866 10.1749 13.4372 9.99922 13.4372C9.82351 13.4372 9.65134 13.4866 9.50234 13.5797L5.9375 15.8086V14.2695L10 11.7305L14.0625 14.2695V15.8086L10.4961 13.5797Z" fill="#191F2E"/>
</svg>
