<svg width="20" height="20" viewBox="0 0 20 20" fill="none" xmlns="http://www.w3.org/2000/svg">
<path d="M15 1.875H7.5C7.16848 1.875 6.85054 2.0067 6.61612 2.24112C6.3817 2.47554 6.25 2.79348 6.25 3.125V4.375H5C4.66848 4.375 4.35054 4.5067 4.11612 4.74112C3.8817 4.97554 3.75 5.29348 3.75 5.625V17.5C3.75 17.6148 3.78163 17.7275 3.84144 17.8255C3.90124 17.9235 3.9869 18.0032 4.08901 18.0557C4.19112 18.1083 4.30573 18.1317 4.42027 18.1234C4.5348 18.1151 4.64483 18.0753 4.73828 18.0086L8.75 15.143L12.7625 18.0086C12.8559 18.0751 12.9659 18.1147 13.0803 18.1229C13.1947 18.1311 13.3092 18.1076 13.4112 18.0551C13.5131 18.0026 13.5987 17.923 13.6585 17.8251C13.7182 17.7272 13.7499 17.6147 13.75 17.5V14.4289L15.2617 15.5086C15.3552 15.5753 15.4652 15.6151 15.5797 15.6234C15.6943 15.6317 15.8089 15.6083 15.911 15.5557C16.0131 15.5032 16.0988 15.4235 16.1586 15.3255C16.2184 15.2275 16.25 15.1148 16.25 15V3.125C16.25 2.79348 16.1183 2.47554 15.8839 2.24112C15.6495 2.0067 15.3315 1.875 15 1.875ZM15 13.7859L13.75 12.8906V5.625C13.75 5.29348 13.6183 4.97554 13.3839 4.74112C13.1495 4.5067 12.8315 4.375 12.5 4.375H7.5V3.125H15V13.7859Z" fill="#191F2E"/>
</svg>
