<svg width="20" height="20" viewBox="0 0 20 20" fill="none" xmlns="http://www.w3.org/2000/svg">
<path d="M12.1875 4.375H4.6875C4.2731 4.375 3.87567 4.53962 3.58265 4.83265C3.28962 5.12567 3.125 5.5231 3.125 5.9375V17.8125C3.12481 17.985 3.17224 18.1543 3.26207 18.3016C3.35191 18.4489 3.48065 18.5686 3.63413 18.6474C3.78761 18.7263 3.95988 18.7612 4.13195 18.7485C4.30402 18.7357 4.46923 18.6757 4.60938 18.575L8.4375 15.8406L12.2656 18.575C12.4058 18.6757 12.571 18.7357 12.7431 18.7485C12.9151 18.7612 13.0874 18.7263 13.2409 18.6474C13.3943 18.5686 13.5231 18.4489 13.6129 18.3016C13.7028 18.1543 13.7502 17.985 13.75 17.8125V5.9375C13.75 5.5231 13.5854 5.12567 13.2924 4.83265C12.9993 4.53962 12.6019 4.375 12.1875 4.375ZM11.875 15.9906L8.98438 13.9242C8.825 13.8098 8.63372 13.7482 8.4375 13.7482C8.24128 13.7482 8.05 13.8098 7.89063 13.9242L5 15.9906V6.25H11.875V15.9906ZM16.875 2.8125V14.6875C16.875 14.9361 16.7762 15.1746 16.6004 15.3504C16.4246 15.5262 16.1861 15.625 15.9375 15.625C15.6889 15.625 15.4504 15.5262 15.2746 15.3504C15.0988 15.1746 15 14.9361 15 14.6875V3.125H7.1875C6.93886 3.125 6.7004 3.02623 6.52459 2.85041C6.34877 2.6746 6.25 2.43614 6.25 2.1875C6.25 1.93886 6.34877 1.7004 6.52459 1.52459C6.7004 1.34877 6.93886 1.25 7.1875 1.25H15.3125C15.7269 1.25 16.1243 1.41462 16.4174 1.70765C16.7104 2.00067 16.875 2.3981 16.875 2.8125Z" fill="#191F2E"/>
</svg>
