<svg width="20" height="20" viewBox="0 0 20 20" fill="none" xmlns="http://www.w3.org/2000/svg">
<path d="M15 1.5625H7.5C7.0856 1.5625 6.68817 1.72712 6.39515 2.02015C6.10212 2.31317 5.9375 2.7106 5.9375 3.125V4.6875H5C4.5856 4.6875 4.18817 4.85212 3.89515 5.14515C3.60212 5.43817 3.4375 5.8356 3.4375 6.25V17.5C3.43748 17.6751 3.48651 17.8467 3.57903 17.9954C3.67155 18.1441 3.80386 18.2639 3.96097 18.3412C4.11808 18.4185 4.29371 18.4503 4.46796 18.433C4.64221 18.4156 4.80812 18.3498 4.94687 18.243L8.4375 15.5578L11.9289 18.243C12.0677 18.3496 12.2335 18.4152 12.4076 18.4324C12.5818 18.4497 12.7572 18.4178 12.9142 18.3405C13.0712 18.2632 13.2034 18.1435 13.2959 17.995C13.3883 17.8464 13.4374 17.675 13.4375 17.5V13.875L15.0531 15.118C15.1919 15.2248 15.3578 15.2906 15.532 15.308C15.7063 15.3253 15.8819 15.2935 16.039 15.2162C16.1961 15.1389 16.3285 15.0191 16.421 14.8704C16.5135 14.7217 16.5625 14.5501 16.5625 14.375V3.125C16.5625 2.7106 16.3979 2.31317 16.1049 2.02015C15.8118 1.72712 15.4144 1.5625 15 1.5625ZM11.5625 15.5961L9.00859 13.632C8.84473 13.506 8.64382 13.4377 8.43711 13.4377C8.2304 13.4377 8.02949 13.506 7.86562 13.632L5.3125 15.5961V6.5625H11.5625V15.5961ZM14.6875 12.4711L13.4375 11.5102V6.25C13.4375 5.8356 13.2729 5.43817 12.9799 5.14515C12.6868 4.85212 12.2894 4.6875 11.875 4.6875H7.8125V3.4375H14.6875V12.4711Z" fill="#191F2E"/>
</svg>
