<svg width="20" height="20" viewBox="0 0 20 20" fill="none" xmlns="http://www.w3.org/2000/svg">
<path d="M15 8.75H12.5V4.375C12.5 4.04348 12.3683 3.72554 12.1339 3.49112C11.8995 3.2567 11.5815 3.125 11.25 3.125H2.5C2.39866 3.12502 2.29884 3.14968 2.20915 3.19685C2.11946 3.24403 2.04259 3.3123 1.98516 3.3958C1.92773 3.47929 1.89146 3.5755 1.87948 3.67613C1.86751 3.77676 1.88018 3.87879 1.91641 3.97344C2.78047 6.22656 2.60078 10.5133 1.89922 12.9523C1.88336 13.0085 1.87522 13.0666 1.875 13.125V15.625C1.875 15.9565 2.0067 16.2745 2.24112 16.5089C2.47554 16.7433 2.79348 16.875 3.125 16.875H5.16484C5.35903 16.875 5.55055 16.8298 5.72422 16.743L6.71016 16.25H7.97734L8.96328 16.743C9.13695 16.8298 9.32847 16.875 9.52266 16.875H11.7273C11.9215 16.875 12.113 16.8298 12.2867 16.743L13.2727 16.25H14.5398L15.5258 16.743C15.6995 16.8298 15.891 16.875 16.0852 16.875H18.125C18.4565 16.875 18.7745 16.7433 19.0089 16.5089C19.2433 16.2745 19.375 15.9565 19.375 15.625V13.125C19.3738 11.9651 18.9124 10.853 18.0922 10.0328C17.272 9.21257 16.1599 8.75124 15 8.75ZM3.34844 4.375H11.25V6.25H8.75C8.58424 6.25 8.42527 6.31585 8.30806 6.43306C8.19085 6.55027 8.125 6.70924 8.125 6.875C8.125 7.04076 8.19085 7.19973 8.30806 7.31694C8.42527 7.43415 8.58424 7.5 8.75 7.5H11.25V8.75H8.75C8.58424 8.75 8.42527 8.81585 8.30806 8.93306C8.19085 9.05027 8.125 9.20924 8.125 9.375C8.125 9.54076 8.19085 9.69973 8.30806 9.81694C8.42527 9.93415 8.58424 10 8.75 10H15C15.7201 10.0009 16.4179 10.25 16.9758 10.7054C17.5337 11.1608 17.9175 11.7946 18.0625 12.5H3.30078C3.82812 10.0906 3.93828 6.70547 3.34844 4.375ZM18.125 15.625H16.0852L15.0992 15.132C14.9255 15.0452 14.734 15 14.5398 15H13.2727C13.0785 15 12.887 15.0452 12.7133 15.132L11.7273 15.625H9.52266L8.53672 15.132C8.36305 15.0452 8.17153 15 7.97734 15H6.71016C6.51597 15 6.32445 15.0452 6.15078 15.132L5.16484 15.625H3.125V13.75H18.125V15.625Z" fill="#191F2E"/>
</svg>
