<svg width="20" height="20" viewBox="0 0 20 20" fill="none" xmlns="http://www.w3.org/2000/svg">
<path d="M15 8.125H12.8125V4.375C12.8125 4.16981 12.7721 3.96663 12.6936 3.77706C12.615 3.58749 12.4999 3.41524 12.3549 3.27015C12.2098 3.12505 12.0375 3.00996 11.8479 2.93144C11.6584 2.85292 11.4552 2.8125 11.25 2.8125H2.5C2.34793 2.81254 2.19815 2.84957 2.06358 2.92041C1.92901 2.99124 1.81369 3.09374 1.72757 3.21908C1.64145 3.34442 1.58711 3.48882 1.56924 3.63984C1.55137 3.79086 1.57051 3.94396 1.625 4.08594C2.475 6.30391 2.27344 10.2078 1.59922 12.5531C1.5749 12.6374 1.56254 12.7247 1.5625 12.8125V15.625C1.5625 16.0394 1.72712 16.4368 2.02015 16.7299C2.31317 17.0229 2.7106 17.1875 3.125 17.1875H5.16484C5.40882 17.1878 5.64953 17.1313 5.86797 17.0227L6.78359 16.5625H7.90391L8.82344 17.0227C9.04188 17.1313 9.28258 17.1878 9.52656 17.1875H11.7313C11.9739 17.1872 12.2132 17.1307 12.4305 17.0227L13.3461 16.5625H14.4664L15.3859 17.0227C15.6032 17.1307 15.8425 17.1872 16.0852 17.1875H18.125C18.5394 17.1875 18.9368 17.0229 19.2299 16.7299C19.5229 16.4368 19.6875 16.0394 19.6875 15.625V12.8125C19.6861 11.5697 19.1917 10.3783 18.313 9.49954C17.4342 8.62077 16.2428 8.12645 15 8.125ZM3.75 4.6875H10.9375V8.125H9.0625C8.81386 8.125 8.5754 8.22377 8.39959 8.39959C8.22377 8.5754 8.125 8.81386 8.125 9.0625C8.125 9.31114 8.22377 9.5496 8.39959 9.72541C8.5754 9.90123 8.81386 10 9.0625 10H15C15.5814 10.0008 16.1483 10.1814 16.623 10.5171C17.0977 10.8528 17.457 11.3271 17.6516 11.875H3.68828C4.12109 9.69375 4.23672 6.90703 3.75 4.6875ZM17.8125 15.3125H16.1586L15.2391 14.8523C15.0218 14.7443 14.7825 14.6878 14.5398 14.6875H13.2727C13.03 14.6878 12.7907 14.7443 12.5734 14.8523L11.6539 15.3125H9.59609L8.67656 14.8523C8.45812 14.7437 8.21742 14.6872 7.97344 14.6875H6.71016C6.46618 14.6872 6.22547 14.7437 6.00703 14.8523L5.09141 15.3125H3.4375V13.75H17.8125V15.3125Z" fill="#191F2E"/>
</svg>
