<svg width="20" height="20" viewBox="0 0 20 20" fill="none" xmlns="http://www.w3.org/2000/svg">
<path d="M16.25 7.8125C16.6644 7.8125 17.0618 7.64788 17.3549 7.35485C17.6479 7.06183 17.8125 6.6644 17.8125 6.25V3.75C17.8125 3.3356 17.6479 2.93817 17.3549 2.64515C17.0618 2.35212 16.6644 2.1875 16.25 2.1875H13.75C13.3356 2.1875 12.9382 2.35212 12.6451 2.64515C12.3521 2.93817 12.1875 3.3356 12.1875 3.75V4.0625H7.8125V3.75C7.8125 3.3356 7.64788 2.93817 7.35485 2.64515C7.06183 2.35212 6.6644 2.1875 6.25 2.1875H3.75C3.3356 2.1875 2.93817 2.35212 2.64515 2.64515C2.35212 2.93817 2.1875 3.3356 2.1875 3.75V6.25C2.1875 6.6644 2.35212 7.06183 2.64515 7.35485C2.93817 7.64788 3.3356 7.8125 3.75 7.8125H4.0625V12.1875H3.75C3.3356 12.1875 2.93817 12.3521 2.64515 12.6451C2.35212 12.9382 2.1875 13.3356 2.1875 13.75V16.25C2.1875 16.6644 2.35212 17.0618 2.64515 17.3549C2.93817 17.6479 3.3356 17.8125 3.75 17.8125H6.25C6.6644 17.8125 7.06183 17.6479 7.35485 17.3549C7.64788 17.0618 7.8125 16.6644 7.8125 16.25V15.9375H12.1875V16.25C12.1875 16.6644 12.3521 17.0618 12.6451 17.3549C12.9382 17.6479 13.3356 17.8125 13.75 17.8125H16.25C16.6644 17.8125 17.0618 17.6479 17.3549 17.3549C17.6479 17.0618 17.8125 16.6644 17.8125 16.25V13.75C17.8125 13.3356 17.6479 12.9382 17.3549 12.6451C17.0618 12.3521 16.6644 12.1875 16.25 12.1875H15.9375V7.8125H16.25ZM14.0625 4.0625H15.9375V5.9375H14.0625V4.0625ZM4.0625 4.0625H5.9375V5.9375H4.0625V4.0625ZM5.9375 15.9375H4.0625V14.0625H5.9375V15.9375ZM15.9375 15.9375H14.0625V14.0625H15.9375V15.9375ZM14.0625 12.1875H13.75C13.3356 12.1875 12.9382 12.3521 12.6451 12.6451C12.3521 12.9382 12.1875 13.3356 12.1875 13.75V14.0625H7.8125V13.75C7.8125 13.3356 7.64788 12.9382 7.35485 12.6451C7.06183 12.3521 6.6644 12.1875 6.25 12.1875H5.9375V7.8125H6.25C6.6644 7.8125 7.06183 7.64788 7.35485 7.35485C7.64788 7.06183 7.8125 6.6644 7.8125 6.25V5.9375H12.1875V6.25C12.1875 6.6644 12.3521 7.06183 12.6451 7.35485C12.9382 7.64788 13.3356 7.8125 13.75 7.8125H14.0625V12.1875Z" fill="#191F2E"/>
</svg>
