<svg width="20" height="20" viewBox="0 0 20 20" fill="none" xmlns="http://www.w3.org/2000/svg">
<path d="M3.125 9.99991C3.125 14.5538 5.83359 16.2694 5.94922 16.3405C6.09115 16.4262 6.19323 16.5648 6.23301 16.7257C6.27279 16.8867 6.24701 17.0568 6.16133 17.1987C6.07565 17.3407 5.9371 17.4428 5.77616 17.4825C5.61521 17.5223 5.44506 17.4965 5.30312 17.4108C5.16328 17.3265 1.875 15.2929 1.875 9.99991C1.875 4.70694 5.16328 2.67335 5.30312 2.58897C5.44491 2.50692 5.61325 2.48381 5.7719 2.52463C5.93055 2.56544 6.06684 2.66692 6.15142 2.80721C6.23601 2.9475 6.26213 3.11539 6.22416 3.27475C6.1862 3.43411 6.08719 3.57219 5.94844 3.65928C5.82344 3.73663 3.125 5.4546 3.125 9.99991ZM14.6969 2.58897C14.5549 2.50329 14.3848 2.47751 14.2238 2.51729C14.0629 2.55706 13.9243 2.65915 13.8387 2.80108C13.753 2.94301 13.7272 3.11317 13.767 3.27411C13.8068 3.43505 13.9088 3.57361 14.0508 3.65928C14.1664 3.73038 16.875 5.446 16.875 9.99991C16.875 14.5538 14.1664 16.2694 14.0531 16.339C13.911 16.4243 13.8086 16.5627 13.7684 16.7235C13.7283 16.8844 13.7537 17.0546 13.8391 17.1968C13.9244 17.3389 14.0628 17.4413 14.2236 17.4815C14.3845 17.5216 14.5547 17.4962 14.6969 17.4108C14.8367 17.3265 18.125 15.2929 18.125 9.99991C18.125 4.70694 14.8367 2.67335 14.6969 2.58897Z" fill="#191F2E"/>
</svg>
