<svg width="20" height="20" viewBox="0 0 20 20" fill="none" xmlns="http://www.w3.org/2000/svg">
<path d="M16.875 3.125H3.125C2.79348 3.125 2.47554 3.2567 2.24112 3.49112C2.0067 3.72554 1.875 4.04348 1.875 4.375V15.625C1.875 15.9565 2.0067 16.2745 2.24112 16.5089C2.47554 16.7433 2.79348 16.875 3.125 16.875H16.875C17.2065 16.875 17.5245 16.7433 17.7589 16.5089C17.9933 16.2745 18.125 15.9565 18.125 15.625V4.375C18.125 4.04348 17.9933 3.72554 17.7589 3.49112C17.5245 3.2567 17.2065 3.125 16.875 3.125ZM8.125 13.75C8.29076 13.75 8.44973 13.8158 8.56694 13.9331C8.68415 14.0503 8.75 14.2092 8.75 14.375C8.75 14.5408 8.68415 14.6997 8.56694 14.8169C8.44973 14.9342 8.29076 15 8.125 15H5.625C5.45924 15 5.30027 14.9342 5.18306 14.8169C5.06585 14.6997 5 14.5408 5 14.375V5.625C5 5.45924 5.06585 5.30027 5.18306 5.18306C5.30027 5.06585 5.45924 5 5.625 5H8.125C8.29076 5 8.44973 5.06585 8.56694 5.18306C8.68415 5.30027 8.75 5.45924 8.75 5.625C8.75 5.79076 8.68415 5.94973 8.56694 6.06694C8.44973 6.18415 8.29076 6.25 8.125 6.25H6.25V13.75H8.125ZM15 14.375C15 14.5408 14.9342 14.6997 14.8169 14.8169C14.6997 14.9342 14.5408 15 14.375 15H11.875C11.7092 15 11.5503 14.9342 11.4331 14.8169C11.3158 14.6997 11.25 14.5408 11.25 14.375C11.25 14.2092 11.3158 14.0503 11.4331 13.9331C11.5503 13.8158 11.7092 13.75 11.875 13.75H13.75V6.25H11.875C11.7092 6.25 11.5503 6.18415 11.4331 6.06694C11.3158 5.94973 11.25 5.79076 11.25 5.625C11.25 5.45924 11.3158 5.30027 11.4331 5.18306C11.5503 5.06585 11.7092 5 11.875 5H14.375C14.5408 5 14.6997 5.06585 14.8169 5.18306C14.9342 5.30027 15 5.45924 15 5.625V14.375Z" fill="#191F2E"/>
</svg>
