<svg width="20" height="20" viewBox="0 0 20 20" fill="none" xmlns="http://www.w3.org/2000/svg">
<path d="M16.875 3.125H3.125C2.79348 3.125 2.47554 3.2567 2.24112 3.49112C2.0067 3.72554 1.875 4.04348 1.875 4.375V15.625C1.875 15.9565 2.0067 16.2745 2.24112 16.5089C2.47554 16.7433 2.79348 16.875 3.125 16.875H16.875C17.2065 16.875 17.5245 16.7433 17.7589 16.5089C17.9933 16.2745 18.125 15.9565 18.125 15.625V4.375C18.125 4.04348 17.9933 3.72554 17.7589 3.49112C17.5245 3.2567 17.2065 3.125 16.875 3.125ZM6.875 12.175C6.89766 13.2891 6.90703 13.75 8.125 13.75C8.29076 13.75 8.44973 13.8158 8.56694 13.9331C8.68415 14.0503 8.75 14.2092 8.75 14.375C8.75 14.5408 8.68415 14.6997 8.56694 14.8169C8.44973 14.9342 8.29076 15 8.125 15C5.68203 15 5.64687 13.2477 5.625 12.2C5.60234 11.0859 5.59297 10.625 4.375 10.625C4.20924 10.625 4.05027 10.5592 3.93306 10.4419C3.81585 10.3247 3.75 10.1658 3.75 10C3.75 9.83424 3.81585 9.67527 3.93306 9.55806C4.05027 9.44085 4.20924 9.375 4.375 9.375C5.59297 9.375 5.60234 8.91406 5.625 7.8C5.64687 6.75234 5.68203 5 8.125 5C8.29076 5 8.44973 5.06585 8.56694 5.18306C8.68415 5.30027 8.75 5.45924 8.75 5.625C8.75 5.79076 8.68415 5.94973 8.56694 6.06694C8.44973 6.18415 8.29076 6.25 8.125 6.25C6.90703 6.25 6.89766 6.71094 6.875 7.825C6.86172 8.47422 6.84297 9.39453 6.25 10C6.84297 10.6055 6.86172 11.5258 6.875 12.175ZM15.625 10.625C14.407 10.625 14.3977 11.0859 14.375 12.2C14.3531 13.2477 14.318 15 11.875 15C11.7092 15 11.5503 14.9342 11.4331 14.8169C11.3158 14.6997 11.25 14.5408 11.25 14.375C11.25 14.2092 11.3158 14.0503 11.4331 13.9331C11.5503 13.8158 11.7092 13.75 11.875 13.75C13.093 13.75 13.1023 13.2891 13.125 12.175C13.1383 11.5258 13.157 10.6055 13.75 10C13.1562 9.39453 13.1375 8.47422 13.125 7.825C13.1023 6.71094 13.093 6.25 11.875 6.25C11.7092 6.25 11.5503 6.18415 11.4331 6.06694C11.3158 5.94973 11.25 5.79076 11.25 5.625C11.25 5.45924 11.3158 5.30027 11.4331 5.18306C11.5503 5.06585 11.7092 5 11.875 5C14.318 5 14.3531 6.75234 14.375 7.8C14.3977 8.91406 14.407 9.375 15.625 9.375C15.7908 9.375 15.9497 9.44085 16.0669 9.55806C16.1842 9.67527 16.25 9.83424 16.25 10C16.25 10.1658 16.1842 10.3247 16.0669 10.4419C15.9497 10.5592 15.7908 10.625 15.625 10.625Z" fill="#191F2E"/>
</svg>
