<svg width="20" height="20" viewBox="0 0 20 20" fill="none" xmlns="http://www.w3.org/2000/svg">
<path d="M16.875 3.125H3.125C2.79348 3.125 2.47554 3.2567 2.24112 3.49112C2.0067 3.72554 1.875 4.04348 1.875 4.375V15.625C1.875 15.9565 2.0067 16.2745 2.24112 16.5089C2.47554 16.7433 2.79348 16.875 3.125 16.875H16.875C17.2065 16.875 17.5245 16.7433 17.7589 16.5089C17.9933 16.2745 18.125 15.9565 18.125 15.625V4.375C18.125 4.04348 17.9933 3.72554 17.7589 3.49112C17.5245 3.2567 17.2065 3.125 16.875 3.125ZM8.04688 14.0625C8.12976 14.207 8.15183 14.3785 8.10824 14.5393C8.06465 14.7001 7.95898 14.837 7.81445 14.9199C7.66993 15.0028 7.4984 15.0249 7.33761 14.9813C7.17681 14.9377 7.03991 14.832 6.95703 14.6875L4.45703 10.3125C4.40304 10.218 4.37464 10.1111 4.37464 10.0023C4.37464 9.89355 4.40304 9.78664 4.45703 9.69219L6.95703 5.31719C7.03929 5.17267 7.17559 5.06674 7.33595 5.02271C7.49631 4.97869 7.66759 5.00016 7.81211 5.08242C7.95663 5.16468 8.06256 5.30098 8.10658 5.46134C8.15061 5.6217 8.12913 5.79298 8.04688 5.9375L5.71953 10L8.04688 14.0625ZM15.5469 10.3125L13.0469 14.6875C12.9646 14.8315 12.8285 14.9369 12.6685 14.9806C12.5085 15.0243 12.3378 15.0026 12.1938 14.9203C12.0497 14.8381 11.9443 14.702 11.9007 14.542C11.857 14.382 11.8787 14.2112 11.9609 14.0672L14.2844 10.0047L11.957 5.9375C11.916 5.86594 11.8895 5.787 11.8789 5.70518C11.8684 5.62336 11.8741 5.54027 11.8957 5.46065C11.9172 5.38103 11.9543 5.30645 12.0047 5.24115C12.0551 5.17585 12.1179 5.12112 12.1895 5.08008C12.261 5.03904 12.34 5.0125 12.4218 5.00197C12.5036 4.99144 12.5867 4.99713 12.6663 5.01871C12.7459 5.04029 12.8205 5.07735 12.8858 5.12775C12.9511 5.17816 13.0058 5.24094 13.0469 5.3125L15.5469 9.6875C15.6017 9.78251 15.6306 9.89029 15.6306 10C15.6306 10.1097 15.6017 10.2175 15.5469 10.3125Z" fill="#191F2E"/>
</svg>
