<svg width="20" height="20" viewBox="0 0 20 20" fill="none" xmlns="http://www.w3.org/2000/svg">
<path d="M19.375 9.68756C19.3742 8.85969 19.1389 8.04898 18.6965 7.34925C18.2541 6.64952 17.6225 6.08938 16.875 5.73365V5.62506C16.8743 4.81976 16.6143 4.03609 16.1336 3.38999C15.6529 2.7439 14.977 2.26971 14.2059 2.03758C13.4348 1.80546 12.6094 1.82773 11.8519 2.10111C11.0945 2.37449 10.4451 2.88445 9.99998 3.55553C9.55483 2.88445 8.90548 2.37449 8.148 2.10111C7.39053 1.82773 6.56517 1.80546 5.79405 2.03758C5.02293 2.26971 4.34702 2.7439 3.86633 3.38999C3.38563 4.03609 3.1257 4.81976 3.12498 5.62506V5.73365C2.3768 6.08841 1.74466 6.6482 1.30201 7.34797C0.859366 8.04774 0.62439 8.85876 0.62439 9.68678C0.62439 10.5148 0.859366 11.3258 1.30201 12.0256C1.74466 12.7254 2.3768 13.2851 3.12498 13.6399V13.7501C3.1257 14.5554 3.38563 15.339 3.86633 15.9851C4.34702 16.6312 5.02293 17.1054 5.79405 17.3375C6.56517 17.5697 7.39053 17.5474 8.148 17.274C8.90548 17.0006 9.55483 16.4907 9.99998 15.8196C10.4451 16.4907 11.0945 17.0006 11.8519 17.274C12.6094 17.5474 13.4348 17.5697 14.2059 17.3375C14.977 17.1054 15.6529 16.6312 16.1336 15.9851C16.6143 15.339 16.8743 14.5554 16.875 13.7501V13.6399C17.6224 13.2844 18.2539 12.7246 18.6963 12.0251C19.1387 11.3257 19.374 10.5152 19.375 9.68756ZM6.87498 16.2501C6.25853 16.25 5.66385 16.0221 5.20515 15.6103C4.74646 15.1985 4.45609 14.6317 4.38982 14.0188C4.59193 14.0476 4.79582 14.0623 4.99998 14.0626H5.62498C5.79074 14.0626 5.94971 13.9967 6.06692 13.8795C6.18413 13.7623 6.24998 13.6033 6.24998 13.4376C6.24998 13.2718 6.18413 13.1128 6.06692 12.9956C5.94971 12.8784 5.79074 12.8126 5.62498 12.8126H4.99998C4.26213 12.8134 3.54778 12.5532 2.9834 12.0779C2.41901 11.6026 2.041 10.943 1.91629 10.2158C1.79157 9.48853 1.9282 8.74063 2.30199 8.10447C2.67577 7.46831 3.2626 6.98493 3.95857 6.7399C4.08034 6.69679 4.18577 6.617 4.26034 6.51151C4.33491 6.40603 4.37495 6.28003 4.37498 6.15084V5.62506C4.37498 4.96202 4.63837 4.32614 5.10721 3.85729C5.57605 3.38845 6.21194 3.12506 6.87498 3.12506C7.53802 3.12506 8.1739 3.38845 8.64274 3.85729C9.11158 4.32614 9.37498 4.96202 9.37498 5.62506V10.9579C8.68866 10.3406 7.79805 9.99938 6.87498 10.0001C6.70922 10.0001 6.55024 10.0659 6.43303 10.1831C6.31582 10.3003 6.24998 10.4593 6.24998 10.6251C6.24998 10.7908 6.31582 10.9498 6.43303 11.067C6.55024 11.1842 6.70922 11.2501 6.87498 11.2501C7.53802 11.2501 8.1739 11.5135 8.64274 11.9823C9.11158 12.4511 9.37498 13.087 9.37498 13.7501C9.37498 14.4131 9.11158 15.049 8.64274 15.5178C8.1739 15.9867 7.53802 16.2501 6.87498 16.2501ZM15 12.8126H14.375C14.2092 12.8126 14.0502 12.8784 13.933 12.9956C13.8158 13.1128 13.75 13.2718 13.75 13.4376C13.75 13.6033 13.8158 13.7623 13.933 13.8795C14.0502 13.9967 14.2092 14.0626 14.375 14.0626H15C15.2041 14.0623 15.408 14.0476 15.6101 14.0188C15.5582 14.499 15.3683 14.9539 15.0633 15.3285C14.7584 15.703 14.3515 15.9812 13.8917 16.1295C13.432 16.2777 12.9392 16.2895 12.4729 16.1636C12.0066 16.0377 11.5868 15.7794 11.2641 15.42C10.9415 15.0605 10.7299 14.6153 10.6549 14.1382C10.5799 13.661 10.6448 13.1724 10.8416 12.7313C11.0385 12.2902 11.3589 11.9156 11.7641 11.6527C12.1693 11.3898 12.642 11.25 13.125 11.2501C13.2907 11.2501 13.4497 11.1842 13.5669 11.067C13.6841 10.9498 13.75 10.7908 13.75 10.6251C13.75 10.4593 13.6841 10.3003 13.5669 10.1831C13.4497 10.0659 13.2907 10.0001 13.125 10.0001C12.2019 9.99938 11.3113 10.3406 10.625 10.9579V5.62506C10.625 4.96202 10.8884 4.32614 11.3572 3.85729C11.8261 3.38845 12.4619 3.12506 13.125 3.12506C13.788 3.12506 14.4239 3.38845 14.8927 3.85729C15.3616 4.32614 15.625 4.96202 15.625 5.62506V6.15084C15.625 6.28003 15.665 6.40603 15.7396 6.51151C15.8142 6.617 15.9196 6.69679 16.0414 6.7399C16.7374 6.98493 17.3242 7.46831 17.698 8.10447C18.0717 8.74063 18.2084 9.48853 18.0837 10.2158C17.959 10.943 17.5809 11.6026 17.0166 12.0779C16.4522 12.5532 15.7378 12.8134 15 12.8126ZM16.25 8.75006C16.25 8.91582 16.1841 9.07479 16.0669 9.192C15.9497 9.30921 15.7907 9.37506 15.625 9.37506H15.3125C14.5666 9.37506 13.8512 9.07874 13.3237 8.5513C12.7963 8.02385 12.5 7.30848 12.5 6.56256V6.25006C12.5 6.0843 12.5658 5.92533 12.683 5.80812C12.8002 5.69091 12.9592 5.62506 13.125 5.62506C13.2907 5.62506 13.4497 5.69091 13.5669 5.80812C13.6841 5.92533 13.75 6.0843 13.75 6.25006V6.56256C13.75 6.97696 13.9146 7.37439 14.2076 7.66742C14.5006 7.96044 14.8981 8.12506 15.3125 8.12506H15.625C15.7907 8.12506 15.9497 8.19091 16.0669 8.30812C16.1841 8.42533 16.25 8.5843 16.25 8.75006ZM4.68748 9.37506H4.37498C4.20922 9.37506 4.05024 9.30921 3.93303 9.192C3.81582 9.07479 3.74998 8.91582 3.74998 8.75006C3.74998 8.5843 3.81582 8.42533 3.93303 8.30812C4.05024 8.19091 4.20922 8.12506 4.37498 8.12506H4.68748C5.10188 8.12506 5.4993 7.96044 5.79233 7.66742C6.08536 7.37439 6.24998 6.97696 6.24998 6.56256V6.25006C6.24998 6.0843 6.31582 5.92533 6.43303 5.80812C6.55024 5.69091 6.70922 5.62506 6.87498 5.62506C7.04074 5.62506 7.19971 5.69091 7.31692 5.80812C7.43413 5.92533 7.49998 6.0843 7.49998 6.25006V6.56256C7.49998 7.30848 7.20366 8.02385 6.67621 8.5513C6.14877 9.07874 5.4334 9.37506 4.68748 9.37506Z" fill="#191F2E"/>
</svg>
