<svg width="20" height="20" viewBox="0 0 20 20" fill="none" xmlns="http://www.w3.org/2000/svg">
<path d="M16.5625 5.9375V5.625C16.5617 4.94785 16.3609 4.28603 15.9853 3.72258C15.6097 3.15913 15.0761 2.71916 14.4514 2.45787C13.8267 2.19659 13.1387 2.12563 12.4738 2.25391C11.8089 2.38218 11.1967 2.70398 10.7141 3.17891C10.6855 3.20768 10.6629 3.24183 10.6477 3.27937C10.6324 3.31692 10.6247 3.35712 10.625 3.39766V10.3289C10.6252 10.3852 10.6405 10.4405 10.6695 10.4888C10.6985 10.5371 10.74 10.5767 10.7896 10.6034C10.8393 10.63 10.8952 10.6428 10.9515 10.6403C11.0078 10.6377 11.0623 10.6201 11.1094 10.5891C11.7037 10.208 12.394 10.0037 13.1 10C13.2634 9.99696 13.4218 10.0567 13.5425 10.1668C13.6633 10.277 13.7373 10.4292 13.7492 10.5922C13.7537 10.677 13.7408 10.7618 13.7114 10.8415C13.682 10.9211 13.6367 10.9939 13.5782 11.0555C13.5197 11.1171 13.4493 11.166 13.3712 11.1995C13.2932 11.2329 13.2091 11.2501 13.1242 11.25C12.4612 11.25 11.8253 11.5134 11.3565 11.9822C10.8876 12.4511 10.6242 13.087 10.6242 13.75V16.3969C10.6242 16.4436 10.6346 16.4898 10.6547 16.532C10.6749 16.5742 10.7042 16.6113 10.7406 16.6406C11.1841 17.0077 11.7063 17.2675 12.2666 17.3999C12.8268 17.5323 13.4101 17.5337 13.971 17.404C14.5319 17.2743 15.0553 17.017 15.5005 16.6521C15.9458 16.2872 16.3009 15.8245 16.5383 15.3C16.5622 15.2473 16.5709 15.1889 16.5636 15.1315C16.5563 15.074 16.5331 15.0198 16.4968 14.9747C16.4604 14.9297 16.4122 14.8956 16.3576 14.8763C16.303 14.8571 16.2441 14.8534 16.1875 14.8656C15.798 14.9549 15.3996 15 15 15H14.3961C14.2349 15.002 14.0788 14.9429 13.9593 14.8347C13.8397 14.7265 13.7655 14.5771 13.7516 14.4164C13.7459 14.3309 13.7578 14.2452 13.7867 14.1645C13.8156 14.0838 13.8607 14.0099 13.9193 13.9474C13.9779 13.885 14.0488 13.8352 14.1274 13.8012C14.2061 13.7672 14.2909 13.7498 14.3766 13.75H15.0016C15.6545 13.751 16.298 13.5933 16.8766 13.2906C17.5617 12.9338 18.131 12.389 18.5175 11.7201C18.904 11.0512 19.0918 10.286 19.0588 9.51415C19.0258 8.74232 18.7735 7.9959 18.3314 7.36241C17.8892 6.72891 17.2756 6.23462 16.5625 5.9375ZM15.625 8.75H15.3125C14.5666 8.75 13.8512 8.45368 13.3238 7.92624C12.7963 7.39879 12.5 6.68342 12.5 5.9375V5.625C12.5 5.45924 12.5658 5.30027 12.6831 5.18306C12.8003 5.06585 12.9592 5 13.125 5C13.2908 5 13.4497 5.06585 13.5669 5.18306C13.6842 5.30027 13.75 5.45924 13.75 5.625V5.9375C13.75 6.14269 13.7904 6.34587 13.8689 6.53544C13.9475 6.72501 14.0626 6.89726 14.2076 7.04235C14.5007 7.33538 14.8981 7.5 15.3125 7.5H15.625C15.7908 7.5 15.9497 7.56585 16.0669 7.68306C16.1842 7.80027 16.25 7.95924 16.25 8.125C16.25 8.29076 16.1842 8.44973 16.0669 8.56694C15.9497 8.68415 15.7908 8.75 15.625 8.75ZM6.875 2.1875C5.96364 2.18853 5.0899 2.55103 4.44546 3.19546C3.80103 3.83989 3.43853 4.71364 3.4375 5.625V5.9375C2.72448 6.23478 2.111 6.72921 1.669 7.36278C1.22701 7.99636 0.974821 8.74283 0.942019 9.51465C0.909218 10.2865 1.09716 11.0516 1.48381 11.7204C1.87045 12.3892 2.43977 12.9339 3.125 13.2906C3.70357 13.5933 4.34702 13.751 5 13.75H5.60391C5.76542 13.7476 5.92184 13.8065 6.04171 13.9148C6.16158 14.023 6.236 14.1727 6.25 14.3336C6.25568 14.4191 6.24372 14.5048 6.21486 14.5855C6.186 14.6662 6.14086 14.7401 6.08225 14.8026C6.02364 14.865 5.9528 14.9148 5.87414 14.9488C5.79548 14.9828 5.71068 15.0002 5.625 15H5C4.60006 15.0002 4.2014 14.9548 3.81172 14.8648C3.75517 14.8525 3.6963 14.8561 3.64168 14.8753C3.58706 14.8944 3.53884 14.9284 3.50238 14.9734C3.46593 15.0183 3.44268 15.0725 3.43522 15.1299C3.42776 15.1873 3.4364 15.2457 3.46016 15.2984C3.69745 15.8231 4.05253 16.2859 4.4978 16.651C4.94307 17.016 5.46653 17.2735 6.02749 17.4033C6.58845 17.5332 7.1718 17.5319 7.73219 17.3996C8.29258 17.2674 8.81492 17.0076 9.25859 16.6406C9.29499 16.6113 9.32435 16.5742 9.34449 16.532C9.36464 16.4898 9.37507 16.4436 9.375 16.3969V13.75C9.375 13.087 9.11161 12.4511 8.64277 11.9822C8.17393 11.5134 7.53804 11.25 6.875 11.25C6.79009 11.2501 6.70604 11.2329 6.62799 11.1995C6.54994 11.166 6.47953 11.1171 6.42104 11.0555C6.36255 10.9939 6.31722 10.9211 6.28782 10.8415C6.25841 10.7618 6.24554 10.677 6.25 10.5922C6.26197 10.429 6.33604 10.2767 6.45696 10.1665C6.57789 10.0564 6.73645 9.99676 6.9 10C7.60596 10.0037 8.29633 10.208 8.89063 10.5891C8.93768 10.6201 8.99224 10.6377 9.04852 10.6403C9.10481 10.6428 9.16073 10.63 9.21037 10.6034C9.26 10.5767 9.30151 10.5371 9.33049 10.4888C9.35947 10.4405 9.37485 10.3852 9.375 10.3289V3.39766C9.37528 3.31563 9.34329 3.23678 9.28594 3.17813C8.64421 2.54314 7.77778 2.18714 6.875 2.1875ZM7.5 5.9375C7.5 6.68342 7.20368 7.39879 6.67624 7.92624C6.14879 8.45368 5.43342 8.75 4.6875 8.75H4.375C4.20924 8.75 4.05027 8.68415 3.93306 8.56694C3.81585 8.44973 3.75 8.29076 3.75 8.125C3.75 7.95924 3.81585 7.80027 3.93306 7.68306C4.05027 7.56585 4.20924 7.5 4.375 7.5H4.6875C4.89269 7.5 5.09587 7.45958 5.28544 7.38106C5.47502 7.30254 5.64726 7.18745 5.79236 7.04235C5.93745 6.89726 6.05254 6.72501 6.13106 6.53544C6.20959 6.34587 6.25 6.14269 6.25 5.9375V5.625C6.25 5.45924 6.31585 5.30027 6.43306 5.18306C6.55027 5.06585 6.70924 5 6.875 5C7.04076 5 7.19973 5.06585 7.31694 5.18306C7.43415 5.30027 7.5 5.45924 7.5 5.625V5.9375Z" fill="#191F2E"/>
</svg>
