<svg width="20" height="20" viewBox="0 0 20 20" fill="none" xmlns="http://www.w3.org/2000/svg">
<path d="M19.6875 9.6877C19.6865 8.83465 19.4533 7.99797 19.0128 7.26741C18.5724 6.53685 17.9414 5.93998 17.1875 5.54083C17.1699 4.71281 16.8997 3.90994 16.4131 3.2398C15.9264 2.56966 15.2465 2.06428 14.4646 1.79136C13.6827 1.51844 12.836 1.49104 12.038 1.71282C11.2401 1.9346 10.529 2.39497 9.99998 3.03223C9.47101 2.39497 8.7599 1.9346 7.96194 1.71282C7.16399 1.49104 6.31731 1.51844 5.53536 1.79136C4.75342 2.06428 4.07357 2.56966 3.58691 3.2398C3.10025 3.90994 2.83004 4.71281 2.81248 5.54083C2.0578 5.93889 1.42608 6.53539 0.985428 7.26602C0.544771 7.99665 0.31189 8.83369 0.31189 9.68692C0.31189 10.5401 0.544771 11.3772 0.985428 12.1078C1.42608 12.8385 2.0578 13.4349 2.81248 13.833C2.82973 14.6612 3.09972 15.4643 3.58626 16.1346C4.0728 16.805 4.75264 17.3106 5.53465 17.5837C6.31666 17.8569 7.16347 17.8844 7.96157 17.6627C8.75967 17.4409 9.47092 16.9805 9.99998 16.3432C10.529 16.9805 11.2403 17.4409 12.0384 17.6627C12.8365 17.8844 13.6833 17.8569 14.4653 17.5837C15.2473 17.3106 15.9272 16.805 16.4137 16.1346C16.9002 15.4643 17.1702 14.6612 17.1875 13.833C17.9417 13.4346 18.5729 12.8381 19.0134 12.1077C19.4539 11.3773 19.687 10.5406 19.6875 9.6877ZM6.87498 15.9377C6.40297 15.9376 5.94365 15.7849 5.56558 15.5023C5.18752 15.2197 4.91101 14.8224 4.77733 14.3697C4.85545 14.3697 4.92498 14.3752 4.99998 14.3752H5.62498C5.87362 14.3752 6.11208 14.2764 6.2879 14.1006C6.46371 13.9248 6.56248 13.6863 6.56248 13.4377C6.56248 13.1891 6.46371 12.9506 6.2879 12.7748C6.11208 12.599 5.87362 12.5002 5.62498 12.5002H4.99998C4.33618 12.5007 3.6936 12.2663 3.18594 11.8386C2.67828 11.411 2.33825 10.8175 2.22601 10.1632C2.11377 9.509 2.23656 8.83614 2.57266 8.2637C2.90875 7.69127 3.43648 7.25616 4.06248 7.03536C4.24534 6.97071 4.40365 6.85093 4.51559 6.69254C4.62753 6.53415 4.68758 6.34494 4.68748 6.15098V5.6252C4.68748 5.04504 4.91795 4.48864 5.32819 4.07841C5.73842 3.66817 6.29482 3.4377 6.87498 3.4377C7.45514 3.4377 8.01154 3.66817 8.42178 4.07841C8.83201 4.48864 9.06248 5.04504 9.06248 5.6252V10.3244C8.76063 10.1325 8.43495 9.98096 8.09373 9.87364C7.85649 9.79905 7.59933 9.82176 7.37883 9.93677C7.15833 10.0518 6.99254 10.2497 6.91795 10.4869C6.84336 10.7242 6.86607 10.9813 6.98108 11.2018C7.09609 11.4223 7.29399 11.5881 7.53123 11.6627C8.03038 11.819 8.45699 12.1491 8.7337 12.5929C9.01042 13.0368 9.11894 13.5651 9.03957 14.0821C8.96021 14.5991 8.69822 15.0706 8.30111 15.411C7.90399 15.7514 7.39804 15.9383 6.87498 15.9377ZM15 12.5002H14.375C14.1263 12.5002 13.8879 12.599 13.7121 12.7748C13.5363 12.9506 13.4375 13.1891 13.4375 13.4377C13.4375 13.6863 13.5363 13.9248 13.7121 14.1006C13.8879 14.2764 14.1263 14.3752 14.375 14.3752H15C15.0781 14.3752 15.1484 14.3752 15.2226 14.3697C15.1155 14.7321 14.9163 15.0606 14.6445 15.3231C14.3727 15.5856 14.0375 15.7732 13.6717 15.8677C13.3058 15.9621 12.9217 15.9602 12.5567 15.8621C12.1918 15.7639 11.8586 15.5729 11.5894 15.3077C11.3203 15.0424 11.1244 14.712 11.021 14.3485C10.9175 13.9851 10.91 13.601 10.9991 13.2338C11.0882 12.8666 11.2709 12.5287 11.5294 12.2531C11.7879 11.9775 12.1134 11.7735 12.4742 11.6611C12.7117 11.5873 12.91 11.4221 13.0257 11.202C13.1414 10.9818 13.1649 10.7248 13.091 10.4873C13.0171 10.2499 12.852 10.0515 12.6318 9.93581C12.4117 9.82013 12.1546 9.79665 11.9172 9.87051C11.5719 9.97755 11.2424 10.1302 10.9375 10.3244V5.6252C10.9375 5.04504 11.1679 4.48864 11.5782 4.07841C11.9884 3.66817 12.5448 3.4377 13.125 3.4377C13.7051 3.4377 14.2615 3.66817 14.6718 4.07841C15.082 4.48864 15.3125 5.04504 15.3125 5.6252V6.15098C15.3124 6.34494 15.3724 6.53415 15.4844 6.69254C15.5963 6.85093 15.7546 6.97071 15.9375 7.03536C16.5663 7.25416 17.0971 7.68895 17.4354 8.26236C17.7738 8.83578 17.8977 9.51063 17.7852 10.1668C17.6728 10.8231 17.3311 11.4181 16.8211 11.8461C16.3111 12.2741 15.6658 12.5072 15 12.5041V12.5002ZM16.25 9.0627C16.25 9.31134 16.1512 9.5498 15.9754 9.72561C15.7996 9.90143 15.5611 10.0002 15.3125 10.0002C14.4837 10.0002 13.6888 9.67096 13.1028 9.08491C12.5167 8.49886 12.1875 7.704 12.1875 6.8752V6.5627C12.1875 6.31406 12.2863 6.0756 12.4621 5.89979C12.6379 5.72397 12.8763 5.6252 13.125 5.6252C13.3736 5.6252 13.6121 5.72397 13.7879 5.89979C13.9637 6.0756 14.0625 6.31406 14.0625 6.5627V6.8752C14.0625 7.20672 14.1942 7.52466 14.4286 7.75909C14.663 7.99351 14.981 8.1252 15.3125 8.1252C15.5611 8.1252 15.7996 8.22397 15.9754 8.39979C16.1512 8.5756 16.25 8.81406 16.25 9.0627ZM4.68748 10.0002C4.43884 10.0002 4.20039 9.90143 4.02457 9.72561C3.84875 9.5498 3.74998 9.31134 3.74998 9.0627C3.74998 8.81406 3.84875 8.5756 4.02457 8.39979C4.20039 8.22397 4.43884 8.1252 4.68748 8.1252C5.019 8.1252 5.33695 7.99351 5.57137 7.75909C5.80579 7.52466 5.93748 7.20672 5.93748 6.8752V6.5627C5.93748 6.31406 6.03625 6.0756 6.21207 5.89979C6.38789 5.72397 6.62634 5.6252 6.87498 5.6252C7.12362 5.6252 7.36208 5.72397 7.5379 5.89979C7.71371 6.0756 7.81248 6.31406 7.81248 6.5627V6.8752C7.81248 7.704 7.48324 8.49886 6.89719 9.08491C6.31114 9.67096 5.51628 10.0002 4.68748 10.0002Z" fill="#191F2E"/>
</svg>
