<svg width="20" height="20" viewBox="0 0 20 20" fill="none" xmlns="http://www.w3.org/2000/svg">
<path d="M17.8125 6.875C17.8144 5.36175 17.3751 3.88078 16.5484 2.61328C16.4637 2.48315 16.3479 2.37612 16.2115 2.30181C16.0752 2.22749 15.9225 2.18821 15.7672 2.1875H4.23672C4.08142 2.18821 3.92873 2.22749 3.79237 2.30181C3.656 2.37612 3.54024 2.48315 3.45547 2.61328C2.62742 3.88035 2.18679 5.36136 2.1875 6.875C2.18998 8.78397 2.89028 10.6262 4.15654 12.0547C5.42279 13.4833 7.16762 14.3997 9.0625 14.6313V16.5625H6.875C6.62636 16.5625 6.3879 16.6613 6.21209 16.8371C6.03627 17.0129 5.9375 17.2514 5.9375 17.5C5.9375 17.7486 6.03627 17.9871 6.21209 18.1629C6.3879 18.3387 6.62636 18.4375 6.875 18.4375H13.125C13.3736 18.4375 13.6121 18.3387 13.7879 18.1629C13.9637 17.9871 14.0625 17.7486 14.0625 17.5C14.0625 17.2514 13.9637 17.0129 13.7879 16.8371C13.6121 16.6613 13.3736 16.5625 13.125 16.5625H10.9375V14.6313C12.8324 14.3997 14.5772 13.4833 15.8435 12.0547C17.1097 10.6262 17.81 8.78397 17.8125 6.875ZM4.76953 4.0625H15.2344C15.5495 4.64736 15.7634 5.2813 15.8672 5.9375H4.14063C4.24314 5.28153 4.45577 4.64761 4.76953 4.0625ZM10.0039 12.8125C8.59283 12.8097 7.2287 12.3053 6.15531 11.3893C5.08192 10.4734 4.36921 9.20558 4.14453 7.8125H15.8594C15.6347 9.20558 14.922 10.4734 13.8486 11.3893C12.7752 12.3053 11.4111 12.8097 10 12.8125H10.0039Z" fill="#191F2E"/>
</svg>
