<svg width="20" height="20" viewBox="0 0 20 20" fill="none" xmlns="http://www.w3.org/2000/svg">
<path d="M17.5 6.875C17.502 5.42224 17.0803 4.00043 16.2867 2.78359C16.2299 2.69652 16.1523 2.62499 16.0609 2.57547C15.9695 2.52595 15.8672 2.50001 15.7633 2.5H4.23673C4.13278 2.50001 4.03047 2.52595 3.93907 2.57547C3.84767 2.62499 3.77007 2.69652 3.71329 2.78359C2.91967 4.00043 2.49804 5.42224 2.50001 6.875C2.50228 8.75522 3.20983 10.5662 4.48279 11.95C5.75575 13.3337 7.5015 14.1896 9.37501 14.3484V16.875H6.87501C6.70925 16.875 6.55028 16.9408 6.43307 17.0581C6.31586 17.1753 6.25001 17.3342 6.25001 17.5C6.25001 17.6658 6.31586 17.8247 6.43307 17.9419C6.55028 18.0592 6.70925 18.125 6.87501 18.125H13.125C13.2908 18.125 13.4497 18.0592 13.5669 17.9419C13.6842 17.8247 13.75 17.6658 13.75 17.5C13.75 17.3342 13.6842 17.1753 13.5669 17.0581C13.4497 16.9408 13.2908 16.875 13.125 16.875H10.625V14.3484C12.4985 14.1896 14.2443 13.3337 15.5172 11.95C16.7902 10.5662 17.4977 8.75522 17.5 6.875ZM4.58594 3.75H15.4141C15.8574 4.51647 16.1318 5.36884 16.2188 6.25H3.78126C3.86826 5.36884 4.14262 4.51647 4.58594 3.75Z" fill="#191F2E"/>
</svg>
