<svg width="20" height="20" viewBox="0 0 20 20" fill="none" xmlns="http://www.w3.org/2000/svg">
<path d="M17.5 6.875C17.502 5.42224 17.0803 4.00043 16.2867 2.78359C16.2299 2.69652 16.1523 2.62499 16.0609 2.57547C15.9695 2.52595 15.8672 2.50001 15.7633 2.5H4.23672C4.13277 2.50001 4.03046 2.52595 3.93906 2.57547C3.84767 2.62499 3.77006 2.69652 3.71328 2.78359C2.91967 4.00043 2.49804 5.42224 2.5 6.875C2.50228 8.75522 3.20982 10.5662 4.48278 11.95C5.75574 13.3337 7.50149 14.1896 9.375 14.3484V16.875H6.875C6.70924 16.875 6.55027 16.9408 6.43306 17.0581C6.31585 17.1753 6.25 17.3342 6.25 17.5C6.25 17.6658 6.31585 17.8247 6.43306 17.9419C6.55027 18.0592 6.70924 18.125 6.875 18.125H13.125C13.2908 18.125 13.4497 18.0592 13.5669 17.9419C13.6842 17.8247 13.75 17.6658 13.75 17.5C13.75 17.3342 13.6842 17.1753 13.5669 17.0581C13.4497 16.9408 13.2908 16.875 13.125 16.875H10.625V14.3484C12.4985 14.1896 14.2443 13.3337 15.5172 11.95C16.7902 10.5662 17.4977 8.75522 17.5 6.875ZM4.58594 3.75H15.4141C15.8574 4.51647 16.1317 5.36884 16.2188 6.25H3.78125C3.86826 5.36884 4.14262 4.51647 4.58594 3.75ZM10 13.125C8.45114 13.1231 6.958 12.5469 5.80933 11.5079C4.66065 10.4689 3.93805 9.0409 3.78125 7.5H16.2188C16.062 9.0409 15.3393 10.4689 14.1907 11.5079C13.042 12.5469 11.5489 13.1231 10 13.125Z" fill="#191F2E"/>
</svg>
