<svg width="20" height="20" viewBox="0 0 20 20" fill="none" xmlns="http://www.w3.org/2000/svg">
<path d="M18.125 12.5H17.5V9.41406C17.6273 9.47734 17.757 9.53672 17.8906 9.59063C18.0436 9.64958 18.2136 9.64605 18.3641 9.5808C18.5145 9.51556 18.6332 9.39382 18.6947 9.24183C18.7562 9.08984 18.7555 8.91978 18.6928 8.76829C18.6301 8.61681 18.5103 8.49605 18.3594 8.43203C17.5499 8.1071 16.8566 7.54674 16.3691 6.82345C15.8816 6.10016 15.6224 5.24723 15.625 4.375C15.625 4.20924 15.5592 4.05027 15.4419 3.93306C15.3247 3.81585 15.1658 3.75 15 3.75C14.8342 3.75 14.6753 3.81585 14.5581 3.93306C14.4408 4.05027 14.375 4.20924 14.375 4.375C14.375 5.53532 13.9141 6.64812 13.0936 7.46859C12.2731 8.28906 11.1603 8.75 10 8.75C8.83968 8.75 7.72688 8.28906 6.90641 7.46859C6.08594 6.64812 5.625 5.53532 5.625 4.375C5.625 4.20924 5.55915 4.05027 5.44194 3.93306C5.32473 3.81585 5.16576 3.75 5 3.75C4.83424 3.75 4.67527 3.81585 4.55806 3.93306C4.44085 4.05027 4.375 4.20924 4.375 4.375C4.37758 5.24723 4.11836 6.10016 3.63088 6.82345C3.14339 7.54674 2.45007 8.1071 1.64062 8.43203C1.48968 8.49605 1.36994 8.61681 1.30721 8.76829C1.24448 8.91978 1.24379 9.08984 1.30528 9.24183C1.36677 9.39382 1.48552 9.51556 1.63594 9.5808C1.78635 9.64605 1.95638 9.64958 2.10938 9.59063C2.24297 9.53672 2.37266 9.47734 2.5 9.41406V12.5H1.92188C1.42891 12.5 1.25 12.8734 1.25 13.125C1.25 13.2908 1.31585 13.4497 1.43306 13.5669C1.55027 13.6842 1.70924 13.75 1.875 13.75H4.375V15.625C4.375 15.7908 4.44085 15.9497 4.55806 16.0669C4.67527 16.1842 4.83424 16.25 5 16.25C5.16576 16.25 5.32473 16.1842 5.44194 16.0669C5.55915 15.9497 5.625 15.7908 5.625 15.625V13.75H14.375V15.625C14.375 15.7908 14.4408 15.9497 14.5581 16.0669C14.6753 16.1842 14.8342 16.25 15 16.25C15.1658 16.25 15.3247 16.1842 15.4419 16.0669C15.5592 15.9497 15.625 15.7908 15.625 15.625V13.75H18.125C18.2908 13.75 18.4497 13.6842 18.5669 13.5669C18.6842 13.4497 18.75 13.2908 18.75 13.125C18.75 12.9592 18.6842 12.8003 18.5669 12.6831C18.4497 12.5658 18.2908 12.5 18.125 12.5ZM5.625 11.875C5.625 12.0408 5.55915 12.1997 5.44194 12.3169C5.32473 12.4342 5.16576 12.5 5 12.5C4.83424 12.5 4.67527 12.4342 4.55806 12.3169C4.44085 12.1997 4.375 12.0408 4.375 11.875V8.38672C4.375 8.22096 4.44085 8.06199 4.55806 7.94478C4.67527 7.82757 4.83424 7.76172 5 7.76172C5.16576 7.76172 5.32473 7.82757 5.44194 7.94478C5.55915 8.06199 5.625 8.22096 5.625 8.38672V11.875ZM8.75 11.875C8.75 12.0408 8.68415 12.1997 8.56694 12.3169C8.44973 12.4342 8.29076 12.5 8.125 12.5C7.95924 12.5 7.80027 12.4342 7.68306 12.3169C7.56585 12.1997 7.5 12.0408 7.5 11.875V10.2617C7.5 10.096 7.56585 9.93699 7.68306 9.81978C7.80027 9.70257 7.95924 9.63672 8.125 9.63672C8.29076 9.63672 8.44973 9.70257 8.56694 9.81978C8.68415 9.93699 8.75 10.096 8.75 10.2617V11.875ZM12.5 11.875C12.5 12.0408 12.4342 12.1997 12.3169 12.3169C12.1997 12.4342 12.0408 12.5 11.875 12.5C11.7092 12.5 11.5503 12.4342 11.4331 12.3169C11.3158 12.1997 11.25 12.0408 11.25 11.875V10.2617C11.25 10.096 11.3158 9.93699 11.4331 9.81978C11.5503 9.70257 11.7092 9.63672 11.875 9.63672C12.0408 9.63672 12.1997 9.70257 12.3169 9.81978C12.4342 9.93699 12.5 10.096 12.5 10.2617V11.875ZM15.625 11.875C15.625 12.0408 15.5592 12.1997 15.4419 12.3169C15.3247 12.4342 15.1658 12.5 15 12.5C14.8342 12.5 14.6753 12.4342 14.5581 12.3169C14.4408 12.1997 14.375 12.0408 14.375 11.875V8.38672C14.375 8.22096 14.4408 8.06199 14.5581 7.94478C14.6753 7.82757 14.8342 7.76172 15 7.76172C15.1658 7.76172 15.3247 7.82757 15.4419 7.94478C15.5592 8.06199 15.625 8.22096 15.625 8.38672V11.875Z" fill="#191F2E"/>
</svg>
