<svg width="20" height="20" viewBox="0 0 20 20" fill="none" xmlns="http://www.w3.org/2000/svg">
<path d="M2.1875 8.75H17.8125C17.8954 8.75 17.9749 8.78292 18.0335 8.84153C18.0921 8.90013 18.125 8.97962 18.125 9.0625V12.1875C18.125 12.2704 18.0921 12.3499 18.0335 12.4085C17.9749 12.4671 17.8954 12.5 17.8125 12.5H2.1875C2.10462 12.5 2.02513 12.4671 1.96653 12.4085C1.90792 12.3499 1.875 12.2704 1.875 12.1875V9.0625C1.875 8.97962 1.90792 8.90013 1.96653 8.84153C2.02513 8.78292 2.10462 8.75 2.1875 8.75ZM1.875 15.625C1.875 15.9565 2.0067 16.2745 2.24112 16.5089C2.47554 16.7433 2.79348 16.875 3.125 16.875H16.875C17.2065 16.875 17.5245 16.7433 17.7589 16.5089C17.9933 16.2745 18.125 15.9565 18.125 15.625V14.0625C18.125 13.9796 18.0921 13.9001 18.0335 13.8415C17.9749 13.7829 17.8954 13.75 17.8125 13.75H2.1875C2.10462 13.75 2.02513 13.7829 1.96653 13.8415C1.90792 13.9001 1.875 13.9796 1.875 14.0625V15.625ZM18.125 5.625V7.1875C18.125 7.27038 18.0921 7.34987 18.0335 7.40847C17.9749 7.46708 17.8954 7.5 17.8125 7.5H2.1875C2.10462 7.5 2.02513 7.46708 1.96653 7.40847C1.90792 7.34987 1.875 7.27038 1.875 7.1875V5.625C1.875 5.29348 2.0067 4.97554 2.24112 4.74112C2.47554 4.5067 2.79348 4.375 3.125 4.375H6.25V3.75C6.25 3.25272 6.44754 2.77581 6.79917 2.42417C7.15081 2.07254 7.62772 1.875 8.125 1.875H11.875C12.3723 1.875 12.8492 2.07254 13.2008 2.42417C13.5525 2.77581 13.75 3.25272 13.75 3.75V4.375H16.875C17.2065 4.375 17.5245 4.5067 17.7589 4.74112C17.9933 4.97554 18.125 5.29348 18.125 5.625ZM12.5 3.75C12.5 3.58424 12.4342 3.42527 12.3169 3.30806C12.1997 3.19085 12.0408 3.125 11.875 3.125H8.125C7.95924 3.125 7.80027 3.19085 7.68306 3.30806C7.56585 3.42527 7.5 3.58424 7.5 3.75V4.375H12.5V3.75Z" fill="#191F2E"/>
</svg>
