<svg width="20" height="20" viewBox="0 0 20 20" fill="none" xmlns="http://www.w3.org/2000/svg">
<path d="M9.99995 6.87483C9.38188 6.87483 8.7777 7.0581 8.26379 7.40148C7.74989 7.74486 7.34935 8.23292 7.11283 8.80394C6.8763 9.37496 6.81442 10.0033 6.935 10.6095C7.05557 11.2157 7.3532 11.7725 7.79024 12.2095C8.22728 12.6466 8.7841 12.9442 9.39029 13.0648C9.99648 13.1854 10.6248 13.1235 11.1958 12.8869C11.7669 12.6504 12.2549 12.2499 12.5983 11.736C12.9417 11.2221 13.125 10.6179 13.125 9.99983C13.125 9.17102 12.7957 8.37617 12.2097 7.79012C11.6236 7.20407 10.8288 6.87483 9.99995 6.87483ZM9.99995 11.8748C9.62911 11.8748 9.2666 11.7649 8.95826 11.5588C8.64991 11.3528 8.40959 11.06 8.26768 10.7174C8.12576 10.3747 8.08863 9.99775 8.16098 9.63403C8.23333 9.27032 8.4119 8.93622 8.67412 8.674C8.93635 8.41178 9.27044 8.2332 9.63416 8.16085C9.99787 8.08851 10.3749 8.12564 10.7175 8.26755C11.0601 8.40947 11.3529 8.64979 11.559 8.95813C11.765 9.26647 11.875 9.62899 11.875 9.99983C11.875 10.4971 11.6774 10.974 11.3258 11.3257C10.9741 11.6773 10.4972 11.8748 9.99995 11.8748ZM15.7585 12.4326C15.49 13.0675 15.1183 13.6535 14.6585 14.167C14.5472 14.2875 14.393 14.3594 14.2291 14.3671C14.0653 14.3749 13.9049 14.3179 13.7827 14.2085C13.6605 14.0991 13.5862 13.946 13.5758 13.7823C13.5654 13.6186 13.6198 13.4574 13.7273 13.3334C14.548 12.4171 15.0017 11.2303 15.0017 10.0002C15.0017 8.77015 14.548 7.58331 13.7273 6.66701C13.671 6.60612 13.6274 6.53464 13.599 6.45674C13.5707 6.37884 13.5581 6.29606 13.562 6.21324C13.5659 6.13042 13.5863 6.04921 13.6219 5.97434C13.6575 5.89947 13.7077 5.83243 13.7694 5.77713C13.8312 5.72183 13.9034 5.67938 13.9817 5.65224C14.0601 5.6251 14.143 5.61382 14.2258 5.61906C14.3085 5.6243 14.3894 5.64595 14.4637 5.68275C14.538 5.71955 14.6042 5.77077 14.6585 5.83342C15.4477 6.7165 15.97 7.80544 16.1648 8.97364C16.3595 10.1418 16.2186 11.3413 15.7585 12.4326ZM5.39058 8.05373C5.02181 8.92668 4.90871 9.88644 5.06446 10.8212C5.2202 11.756 5.63838 12.6272 6.27026 13.3334C6.37771 13.4574 6.43213 13.6186 6.42176 13.7823C6.4114 13.946 6.33709 14.0991 6.21486 14.2085C6.09264 14.3179 5.9323 14.3749 5.76844 14.3671C5.60459 14.3594 5.45035 14.2875 5.33901 14.167C4.31291 13.0217 3.7455 11.538 3.7455 10.0002C3.7455 8.46246 4.31291 6.97877 5.33901 5.83342C5.44955 5.70962 5.60475 5.6348 5.77045 5.62542C5.93616 5.61604 6.0988 5.67288 6.22261 5.78342C6.34641 5.89396 6.42123 6.04916 6.4306 6.21486C6.43998 6.38057 6.38315 6.54321 6.27261 6.66701C5.90386 7.07724 5.60579 7.54585 5.39058 8.05373ZM19.375 9.99983C19.3787 12.4543 18.4164 14.8117 16.696 16.5623C16.6391 16.6232 16.5706 16.672 16.4945 16.706C16.4185 16.74 16.3364 16.7585 16.2531 16.7603C16.1698 16.762 16.0869 16.7472 16.0095 16.7165C15.932 16.6858 15.8615 16.64 15.802 16.5816C15.7425 16.5233 15.6953 16.4536 15.6631 16.3768C15.6309 16.2999 15.6144 16.2174 15.6146 16.1341C15.6148 16.0507 15.6316 15.9683 15.6641 15.8916C15.6966 15.8149 15.7441 15.7454 15.8039 15.6873C17.2935 14.1696 18.128 12.128 18.128 10.0014C18.128 7.8748 17.2935 5.83314 15.8039 4.31545C15.6874 4.19714 15.6227 4.03742 15.6241 3.87142C15.6254 3.70542 15.6926 3.54674 15.8109 3.43029C15.9292 3.31385 16.0889 3.24917 16.2549 3.25049C16.4209 3.25181 16.5796 3.31901 16.696 3.43733C18.4164 5.18797 19.3787 7.54535 19.375 9.99983ZM4.19604 15.6858C4.2536 15.7443 4.29905 15.8137 4.32981 15.8898C4.36057 15.966 4.37602 16.0474 4.3753 16.1296C4.37457 16.2117 4.35768 16.2929 4.32558 16.3685C4.29349 16.4441 4.24681 16.5126 4.18823 16.5701C4.12965 16.6277 4.06031 16.6731 3.98416 16.7039C3.90801 16.7347 3.82655 16.7501 3.74443 16.7494C3.6623 16.7487 3.58113 16.7318 3.50554 16.6997C3.42994 16.6676 3.36141 16.6209 3.30386 16.5623C1.58369 14.8111 0.619873 12.4545 0.619873 9.99983C0.619873 7.5451 1.58369 5.18852 3.30386 3.43733C3.36077 3.37647 3.42928 3.32762 3.50536 3.29363C3.58143 3.25964 3.66353 3.2412 3.74684 3.2394C3.83014 3.23761 3.91296 3.25248 3.99043 3.28316C4.0679 3.31384 4.13845 3.3597 4.19794 3.41804C4.25743 3.47638 4.30465 3.54603 4.33683 3.62289C4.369 3.69974 4.38549 3.78226 4.38531 3.86558C4.38514 3.9489 4.3683 4.03135 4.3358 4.10807C4.30329 4.18479 4.25578 4.25424 4.19604 4.31233C2.70641 5.83001 1.87186 7.87167 1.87186 9.99826C1.87186 12.1249 2.70641 14.1665 4.19604 15.6842V15.6858Z" fill="#191F2E"/>
</svg>
