<svg width="20" height="20" viewBox="0 0 20 20" fill="none" xmlns="http://www.w3.org/2000/svg">
<path d="M13.125 9.99983C13.125 10.6179 12.9417 11.2221 12.5983 11.736C12.2549 12.2499 11.7669 12.6504 11.1958 12.8869C10.6248 13.1235 9.99648 13.1854 9.39029 13.0648C8.7841 12.9442 8.22728 12.6466 7.79024 12.2095C7.3532 11.7725 7.05557 11.2157 6.935 10.6095C6.81442 10.0033 6.8763 9.37496 7.11283 8.80394C7.34935 8.23292 7.74989 7.74486 8.26379 7.40148C8.7777 7.0581 9.38188 6.87483 9.99995 6.87483C10.8288 6.87483 11.6236 7.20407 12.2097 7.79012C12.7957 8.37617 13.125 9.17102 13.125 9.99983ZM16.25 9.99983C16.2518 8.46222 15.685 6.97824 14.6585 5.83342C14.6042 5.77077 14.538 5.71955 14.4637 5.68275C14.3894 5.64595 14.3085 5.6243 14.2258 5.61906C14.143 5.61382 14.0601 5.6251 13.9817 5.65224C13.9034 5.67938 13.8312 5.72183 13.7694 5.77713C13.7077 5.83243 13.6575 5.89947 13.6219 5.97434C13.5863 6.04921 13.5659 6.13042 13.562 6.21324C13.5581 6.29606 13.5707 6.37884 13.599 6.45674C13.6274 6.53464 13.671 6.60612 13.7273 6.66701C14.5471 7.5837 15.0004 8.77039 15.0004 10.0002C15.0004 11.23 14.5471 12.4167 13.7273 13.3334C13.6198 13.4574 13.5654 13.6186 13.5758 13.7823C13.5862 13.946 13.6605 14.0991 13.7827 14.2085C13.9049 14.3179 14.0653 14.3749 14.2291 14.3671C14.393 14.3594 14.5472 14.2875 14.6585 14.167C15.6849 13.0218 16.2517 11.5376 16.25 9.99983ZM6.27261 6.66701C6.32888 6.60612 6.37248 6.53464 6.40086 6.45674C6.42924 6.37884 6.44183 6.29606 6.43791 6.21324C6.43399 6.13042 6.41362 6.04921 6.37801 5.97434C6.34239 5.89947 6.29224 5.83243 6.23046 5.77713C6.16868 5.72183 6.09652 5.67938 6.01817 5.65224C5.93983 5.6251 5.85686 5.61382 5.77412 5.61906C5.69137 5.6243 5.61049 5.64595 5.5362 5.68275C5.4619 5.71955 5.39567 5.77077 5.34136 5.83342C4.31541 6.97885 3.74811 8.4625 3.74811 10.0002C3.74811 11.5379 4.31541 13.0216 5.34136 14.167C5.45269 14.2875 5.60693 14.3594 5.77078 14.3671C5.93464 14.3749 6.09498 14.3179 6.2172 14.2085C6.33943 14.0991 6.41374 13.946 6.42411 13.7823C6.43447 13.6186 6.38006 13.4574 6.27261 13.3334C5.45195 12.4171 4.99817 11.2303 4.99817 10.0002C4.99817 8.77015 5.45195 7.58331 6.27261 6.66701ZM18.6382 6.35451C18.1808 5.26822 17.5218 4.27838 16.696 3.43733C16.6391 3.37647 16.5706 3.32762 16.4945 3.29363C16.4185 3.25964 16.3364 3.2412 16.2531 3.2394C16.1698 3.23761 16.0869 3.25248 16.0095 3.28316C15.932 3.31384 15.8615 3.3597 15.802 3.41804C15.7425 3.47638 15.6953 3.54603 15.6631 3.62289C15.6309 3.69974 15.6144 3.78226 15.6146 3.86558C15.6148 3.9489 15.6316 4.03135 15.6641 4.10807C15.6966 4.18479 15.7441 4.25424 15.8039 4.31233C17.2935 5.83001 18.128 7.87167 18.128 9.99826C18.128 12.1249 17.2935 14.1665 15.8039 15.6842C15.7462 15.7428 15.7006 15.8121 15.6698 15.8883C15.6389 15.9645 15.6234 16.046 15.6241 16.1282C15.6247 16.2104 15.6415 16.2917 15.6736 16.3674C15.7057 16.4431 15.7523 16.5117 15.8109 16.5694C15.8695 16.627 15.9388 16.6726 16.015 16.7034C16.0912 16.7343 16.1727 16.7498 16.2549 16.7492C16.3371 16.7485 16.4184 16.7317 16.4941 16.6996C16.5698 16.6676 16.6384 16.6209 16.696 16.5623C17.99 15.241 18.8646 13.5668 19.2102 11.7499C19.5557 9.93312 19.3567 8.05471 18.6382 6.35061V6.35451ZM2.51323 13.1623C1.88873 11.6861 1.71529 10.058 2.01477 8.48329C2.31424 6.9086 3.07323 5.45783 4.19604 4.31389C4.31228 4.19558 4.37676 4.03594 4.3753 3.87008C4.37383 3.70423 4.30654 3.54575 4.18823 3.42951C4.06992 3.31327 3.91028 3.24879 3.74443 3.25026C3.57857 3.25173 3.4201 3.31901 3.30386 3.43733C1.58369 5.18852 0.619873 7.5451 0.619873 9.99983C0.619873 12.4545 1.58369 14.8111 3.30386 16.5623C3.36077 16.6232 3.42928 16.672 3.50536 16.706C3.58143 16.74 3.66353 16.7585 3.74684 16.7603C3.83014 16.762 3.91296 16.7472 3.99043 16.7165C4.0679 16.6858 4.13845 16.64 4.19794 16.5816C4.25743 16.5233 4.30465 16.4536 4.33683 16.3768C4.369 16.2999 4.38549 16.2174 4.38531 16.1341C4.38514 16.0507 4.3683 15.9683 4.3358 15.8916C4.30329 15.8149 4.25578 15.7454 4.19604 15.6873C3.48095 14.9593 2.90999 14.1025 2.51323 13.1623Z" fill="#191F2E"/>
</svg>
