<svg width="20" height="20" viewBox="0 0 20 20" fill="none" xmlns="http://www.w3.org/2000/svg">
<path d="M18.3984 16.9384C16.6359 16.079 15.625 14.2368 15.625 11.8759V10.5259C15.6257 10.2754 15.5508 10.0306 15.4102 9.82337C15.2695 9.61613 15.0697 9.4561 14.8367 9.36418L12.8906 8.59387C12.7375 8.53263 12.6148 8.41336 12.5493 8.26204C12.4837 8.11073 12.4806 7.93965 12.5406 7.78606L14.2063 3.64543C14.3193 3.37367 14.3763 3.08188 14.3739 2.78755C14.3715 2.49323 14.3098 2.20241 14.1923 1.93251C14.0749 1.66262 13.9042 1.4192 13.6905 1.21684C13.4767 1.01448 13.2243 0.857329 12.9484 0.754807C12.411 0.557904 11.8181 0.578334 11.2955 0.811753C10.7729 1.04517 10.362 1.47318 10.15 2.00481C10.1497 2.00792 10.1497 2.01106 10.15 2.01418L8.50781 6.17199C8.44674 6.32582 8.32714 6.44913 8.17526 6.51489C8.02338 6.58065 7.85162 6.58349 7.69766 6.52278L5.71172 5.71418C5.48275 5.6214 5.2313 5.59905 4.98955 5.64999C4.74781 5.70092 4.52675 5.82284 4.35469 6.00012C2.70938 7.69153 1.875 9.66809 1.875 11.8751C1.87068 14.1336 2.74412 16.3055 4.31094 17.9322C4.36964 17.9935 4.44024 18.0423 4.51841 18.0755C4.59659 18.1086 4.6807 18.1255 4.76563 18.1251H18.125C18.2663 18.125 18.4033 18.077 18.5138 17.989C18.6243 17.901 18.7017 17.7781 18.7334 17.6405C18.7652 17.5028 18.7493 17.3585 18.6885 17.231C18.6276 17.1035 18.5254 17.0003 18.3984 16.9384ZM8.99297 16.8751C8.06244 15.9825 7.40323 14.845 7.09141 13.5939C7.04795 13.4356 6.944 13.3008 6.802 13.2186C6.66 13.1363 6.49134 13.1132 6.33245 13.1542C6.17356 13.1953 6.03718 13.2971 5.95276 13.4379C5.86834 13.5786 5.84266 13.7469 5.88125 13.9064C6.15385 14.9827 6.6418 15.9926 7.31563 16.8751H5.03438C3.80171 15.5018 3.12148 13.7205 3.125 11.8751C3.11736 10.8974 3.32347 9.92974 3.72891 9.03996L14.4945 13.3462C14.7289 14.7525 15.3195 15.9618 16.2047 16.8743L8.99297 16.8751Z" fill="#191F2E"/>
</svg>
