<svg width="20" height="20" viewBox="0 0 20 20" fill="none" xmlns="http://www.w3.org/2000/svg">
<path d="M18.5344 16.6569C16.8844 15.8593 15.9375 14.1124 15.9375 11.8749V10.5257C15.9382 10.2126 15.8444 9.90649 15.6686 9.64742C15.4927 9.38835 15.2428 9.18829 14.9516 9.07334L13.0094 8.30693C12.9331 8.2766 12.8718 8.21748 12.8388 8.14234C12.8058 8.0672 12.8036 7.98208 12.8328 7.90537L14.4992 3.76475C14.6272 3.45447 14.6914 3.1216 14.6879 2.78598C14.6845 2.45037 14.6135 2.11889 14.4792 1.8113C14.3449 1.5037 14.1501 1.2263 13.9063 0.995628C13.6625 0.764955 13.3747 0.585735 13.0602 0.468652C12.447 0.243027 11.7701 0.265334 11.1732 0.530833C10.5762 0.796333 10.1063 1.2841 9.86328 1.89053L9.85781 1.90459L8.21719 6.05225C8.20224 6.09062 8.17974 6.12561 8.15102 6.15513C8.1223 6.18466 8.08795 6.20811 8.05 6.22412C8.01319 6.24038 7.97352 6.24917 7.93328 6.24997C7.89305 6.25078 7.85306 6.24358 7.81563 6.22881L5.82813 5.42412C5.54173 5.30809 5.22723 5.28008 4.92484 5.34368C4.62244 5.40727 4.34587 5.55959 4.13047 5.78115C2.42656 7.5335 1.5625 9.58428 1.5625 11.8749C1.55817 14.214 2.46267 16.4634 4.08516 18.1483C4.17306 18.2401 4.27872 18.3131 4.39569 18.3628C4.51267 18.4125 4.63853 18.4379 4.76563 18.4374H18.125C18.337 18.4372 18.5426 18.3652 18.7084 18.2331C18.8742 18.101 18.9903 17.9166 19.0378 17.71C19.0853 17.5034 19.0614 17.2868 18.9699 17.0956C18.8785 16.9043 18.725 16.7497 18.5344 16.6569ZM5.32734 7.24443L7.11406 7.96865C7.38142 8.07567 7.66727 8.12884 7.95522 8.12512C8.24318 8.1214 8.52756 8.06086 8.79206 7.94698C9.05656 7.83309 9.29597 7.6681 9.49656 7.46147C9.69714 7.25484 9.85495 7.01064 9.96094 6.74287L11.5977 2.60225C11.6591 2.44869 11.7768 2.32433 11.9267 2.25451C12.0767 2.18469 12.2476 2.17466 12.4047 2.22646C12.4836 2.25568 12.5558 2.30052 12.6169 2.3583C12.678 2.41607 12.7269 2.4856 12.7605 2.56271C12.7941 2.63981 12.8119 2.72291 12.8126 2.80703C12.8134 2.89115 12.7971 2.97456 12.7648 3.05225C12.7647 3.05511 12.7647 3.05798 12.7648 3.06084L11.0938 7.21006C10.8813 7.749 10.8909 8.35013 11.1205 8.88201C11.3501 9.41388 11.7809 9.83322 12.3188 10.0483L14.0625 10.7382V11.8749C14.0625 11.953 14.0625 12.0366 14.0664 12.1171L4.50078 8.28896C4.74664 7.91831 5.02313 7.56891 5.32734 7.24443ZM9.12031 16.5624C8.27885 15.7225 7.68222 14.6691 7.39453 13.5155C7.33237 13.2747 7.17707 13.0683 6.9628 12.942C6.74852 12.8156 6.49282 12.7795 6.25195 12.8417C6.01108 12.9039 5.80477 13.0592 5.6784 13.2734C5.55204 13.4877 5.51597 13.7434 5.57813 13.9843C5.81152 14.8999 6.19398 15.7709 6.71016 16.5624H5.17578C4.05123 15.2599 3.43406 13.5957 3.4375 11.8749C3.43435 11.2374 3.52409 10.6029 3.70391 9.99131L14.3813 14.2616C14.6106 15.0942 14.9972 15.8752 15.5203 16.5624H9.12031Z" fill="#191F2E"/>
</svg>
