<svg width="20" height="20" viewBox="0 0 20 20" fill="none" xmlns="http://www.w3.org/2000/svg">
<path d="M14.9867 3.39698L16.0672 2.31729C16.1253 2.25922 16.1713 2.19028 16.2027 2.11441C16.2342 2.03854 16.2503 1.95723 16.2503 1.8751C16.2503 1.79298 16.2342 1.71166 16.2027 1.63579C16.1713 1.55992 16.1253 1.49098 16.0672 1.43292C16.0091 1.37485 15.9402 1.32878 15.8643 1.29736C15.7884 1.26593 15.7071 1.24976 15.625 1.24976C15.5429 1.24976 15.4616 1.26593 15.3857 1.29736C15.3098 1.32878 15.2409 1.37485 15.1828 1.43292L14.0461 2.57042C12.8715 1.71253 11.4546 1.25019 10 1.25019C8.54545 1.25019 7.12854 1.71253 5.95391 2.57042L4.81719 1.43292C4.69991 1.31564 4.54085 1.24976 4.375 1.24976C4.20915 1.24976 4.05009 1.31564 3.93281 1.43292C3.81554 1.55019 3.74965 1.70925 3.74965 1.8751C3.74965 2.04096 3.81554 2.20002 3.93281 2.31729L5.01328 3.39698C3.80006 4.67207 3.12393 6.36506 3.125 8.1251V11.2501C3.125 13.0735 3.84933 14.8221 5.13864 16.1115C6.42795 17.4008 8.17664 18.1251 10 18.1251C11.8234 18.1251 13.572 17.4008 14.8614 16.1115C16.1507 14.8221 16.875 13.0735 16.875 11.2501V8.1251C16.8761 6.36506 16.1999 4.67207 14.9867 3.39698ZM10 2.5001C11.4913 2.50176 12.9211 3.09492 13.9756 4.14945C15.0302 5.20399 15.6233 6.63377 15.625 8.1251V8.7501H4.375V8.1251C4.37666 6.63377 4.96982 5.20399 6.02435 4.14945C7.07889 3.09492 8.50867 2.50176 10 2.5001ZM11.25 6.5626C11.25 6.37718 11.305 6.19593 11.408 6.04176C11.511 5.88759 11.6574 5.76742 11.8287 5.69647C12 5.62551 12.1885 5.60694 12.3704 5.64312C12.5523 5.67929 12.7193 5.76858 12.8504 5.89969C12.9815 6.0308 13.0708 6.19785 13.107 6.37971C13.1432 6.56156 13.1246 6.75006 13.0536 6.92137C12.9827 7.09267 12.8625 7.23909 12.7083 7.34211C12.5542 7.44512 12.3729 7.5001 12.1875 7.5001C11.9389 7.5001 11.7004 7.40133 11.5246 7.22552C11.3488 7.0497 11.25 6.81124 11.25 6.5626ZM6.875 6.5626C6.875 6.37718 6.92998 6.19593 7.033 6.04176C7.13601 5.88759 7.28243 5.76742 7.45374 5.69647C7.62504 5.62551 7.81354 5.60694 7.9954 5.64312C8.17726 5.67929 8.3443 5.76858 8.47541 5.89969C8.60653 6.0308 8.69581 6.19785 8.73199 6.37971C8.76816 6.56156 8.7496 6.75006 8.67864 6.92137C8.60768 7.09267 8.48752 7.23909 8.33335 7.34211C8.17918 7.44512 7.99792 7.5001 7.8125 7.5001C7.56386 7.5001 7.3254 7.40133 7.14959 7.22552C6.97377 7.0497 6.875 6.81124 6.875 6.5626Z" fill="#191F2E"/>
</svg>
