<svg width="20" height="20" viewBox="0 0 20 20" fill="none" xmlns="http://www.w3.org/2000/svg">
<path d="M15.418 3.40778L16.2883 2.53825C16.4644 2.36213 16.5633 2.12326 16.5633 1.87418C16.5633 1.62511 16.4644 1.38624 16.2883 1.21012C16.1122 1.034 15.8733 0.935059 15.6242 0.935059C15.3752 0.935059 15.1363 1.034 14.9602 1.21012L14.0109 2.16325C12.8259 1.36429 11.4292 0.937449 10 0.937449C8.57078 0.937449 7.17412 1.36429 5.98907 2.16325L5.03828 1.21168C4.86216 1.03556 4.62329 0.936621 4.37422 0.936621C4.12515 0.936621 3.88628 1.03556 3.71016 1.21168C3.53404 1.38781 3.4351 1.62668 3.4351 1.87575C3.4351 2.12482 3.53404 2.36369 3.71016 2.53981L4.58203 3.40778C3.43977 4.71362 2.8109 6.39003 2.8125 8.12497V11.25C2.8125 13.1562 3.56976 14.9844 4.91767 16.3323C6.26559 17.6802 8.09376 18.4375 10 18.4375C11.9062 18.4375 13.7344 17.6802 15.0823 16.3323C16.4303 14.9844 17.1875 13.1562 17.1875 11.25V8.12497C17.1891 6.39003 16.5602 4.71362 15.418 3.40778ZM15.3125 8.12497V8.43747H4.6875V8.12497C4.6875 6.716 5.24721 5.36475 6.2435 4.36846C7.23979 3.37217 8.59104 2.81247 10 2.81247C11.409 2.81247 12.7602 3.37217 13.7565 4.36846C14.7528 5.36475 15.3125 6.716 15.3125 8.12497ZM10 16.5625C8.59148 16.561 7.24107 16.0008 6.2451 15.0049C5.24912 14.0089 4.68895 12.6585 4.6875 11.25V10.3125H15.3125V11.25C15.3111 12.6585 14.7509 14.0089 13.7549 15.0049C12.7589 16.0008 11.4085 16.561 10 16.5625ZM10.9375 6.24997C10.9375 6.00274 11.0108 5.76106 11.1482 5.5555C11.2855 5.34994 11.4807 5.18973 11.7091 5.09512C11.9376 5.00051 12.1889 4.97575 12.4314 5.02398C12.6738 5.07222 12.8966 5.19127 13.0714 5.36608C13.2462 5.5409 13.3653 5.76363 13.4135 6.0061C13.4617 6.24858 13.437 6.49991 13.3424 6.72832C13.2477 6.95673 13.0875 7.15195 12.882 7.2893C12.6764 7.42665 12.4347 7.49997 12.1875 7.49997C11.856 7.49997 11.538 7.36827 11.3036 7.13385C11.0692 6.89943 10.9375 6.58149 10.9375 6.24997ZM6.5625 6.24997C6.5625 6.00274 6.63581 5.76106 6.77317 5.5555C6.91052 5.34994 7.10574 5.18973 7.33415 5.09512C7.56256 5.00051 7.81389 4.97575 8.05637 5.02398C8.29884 5.07222 8.52157 5.19127 8.69639 5.36608C8.8712 5.5409 8.99025 5.76363 9.03848 6.0061C9.08672 6.24858 9.06196 6.49991 8.96735 6.72832C8.87274 6.95673 8.71253 7.15195 8.50697 7.2893C8.3014 7.42665 8.05973 7.49997 7.8125 7.49997C7.48098 7.49997 7.16304 7.36827 6.92862 7.13385C6.6942 6.89943 6.5625 6.58149 6.5625 6.24997Z" fill="#191F2E"/>
</svg>
