<svg width="20" height="20" viewBox="0 0 20 20" fill="none" xmlns="http://www.w3.org/2000/svg">
<path d="M17.5 11.875C17.7486 11.875 17.9871 11.7762 18.1629 11.6004C18.3387 11.4246 18.4375 11.1861 18.4375 10.9375C18.4375 10.6888 18.3387 10.4504 18.1629 10.2746C17.9871 10.0987 17.7486 9.99997 17.5 9.99997H16.5625V8.74997H17.5C17.7486 8.74997 17.9871 8.6512 18.1629 8.47538C18.3387 8.29956 18.4375 8.06111 18.4375 7.81247C18.4375 7.56383 18.3387 7.32537 18.1629 7.14955C17.9871 6.97374 17.7486 6.87497 17.5 6.87497H16.4414C16.2241 5.75655 15.7183 4.71431 14.9742 3.85153L16.2883 2.53825C16.4644 2.36213 16.5633 2.12326 16.5633 1.87418C16.5633 1.62511 16.4644 1.38624 16.2883 1.21012C16.1122 1.034 15.8733 0.935059 15.6242 0.935059C15.3751 0.935059 15.1363 1.034 14.9602 1.21012L13.5539 2.61637C12.4943 1.92904 11.2583 1.56327 9.99531 1.56327C8.7323 1.56327 7.49632 1.92904 6.43672 2.61637L5.03047 1.21012C4.94326 1.12292 4.83973 1.05374 4.72579 1.00655C4.61185 0.95935 4.48973 0.935059 4.36641 0.935059C4.11733 0.935059 3.87846 1.034 3.70234 1.21012C3.52622 1.38624 3.42728 1.62511 3.42728 1.87418C3.42728 2.12326 3.52622 2.36213 3.70234 2.53825L5.02578 3.85153C4.28167 4.71431 3.77591 5.75655 3.55859 6.87497H2.5C2.25136 6.87497 2.0129 6.97374 1.83709 7.14955C1.66127 7.32537 1.5625 7.56383 1.5625 7.81247C1.5625 8.06111 1.66127 8.29956 1.83709 8.47538C2.0129 8.6512 2.25136 8.74997 2.5 8.74997H3.4375V9.99997H2.5C2.25136 9.99997 2.0129 10.0987 1.83709 10.2746C1.66127 10.4504 1.5625 10.6888 1.5625 10.9375C1.5625 11.1861 1.66127 11.4246 1.83709 11.6004C2.0129 11.7762 2.25136 11.875 2.5 11.875H3.4375C3.43759 12.2946 3.47815 12.7132 3.55859 13.125H2.5C2.25136 13.125 2.0129 13.2237 1.83709 13.3996C1.66127 13.5754 1.5625 13.8138 1.5625 14.0625C1.5625 14.3111 1.66127 14.5496 1.83709 14.7254C2.0129 14.9012 2.25136 15 2.5 15H4.23047C4.79367 16.0391 5.62705 16.9068 6.64257 17.5115C7.6581 18.1161 8.81808 18.4353 10 18.4353C11.1819 18.4353 12.3419 18.1161 13.3574 17.5115C14.373 16.9068 15.2063 16.0391 15.7695 15H17.5C17.7486 15 17.9871 14.9012 18.1629 14.7254C18.3387 14.5496 18.4375 14.3111 18.4375 14.0625C18.4375 13.8138 18.3387 13.5754 18.1629 13.3996C17.9871 13.2237 17.7486 13.125 17.5 13.125H16.4414C16.5219 12.7132 16.5624 12.2946 16.5625 11.875H17.5ZM10 3.43747C11.0249 3.43889 12.0212 3.77564 12.8369 4.39631C13.6525 5.01699 14.2426 5.8875 14.5172 6.87497H5.48281C5.75738 5.8875 6.34751 5.01699 7.16313 4.39631C7.97876 3.77564 8.97507 3.43889 10 3.43747ZM10.9375 16.4679V10.9375C10.9375 10.6888 10.8387 10.4504 10.6629 10.2746C10.4871 10.0987 10.2486 9.99997 10 9.99997C9.75136 9.99997 9.5129 10.0987 9.33709 10.2746C9.16127 10.4504 9.0625 10.6888 9.0625 10.9375V16.4679C8.00446 16.2506 7.05372 15.6751 6.3706 14.8384C5.68749 14.0017 5.31378 12.9551 5.3125 11.875V8.74997H14.6875V11.875C14.6862 12.9551 14.3125 14.0017 13.6294 14.8384C12.9463 15.6751 11.9955 16.2506 10.9375 16.4679Z" fill="#191F2E"/>
</svg>
