<svg width="20" height="20" viewBox="0 0 20 20" fill="none" xmlns="http://www.w3.org/2000/svg">
<path d="M13.125 7.18774C13.125 7.37316 13.07 7.55442 12.967 7.70859C12.864 7.86276 12.7176 7.98292 12.5463 8.05388C12.375 8.12484 12.1865 8.1434 12.0046 8.10723C11.8227 8.07105 11.6557 7.98177 11.5246 7.85065C11.3935 7.71954 11.3042 7.5525 11.268 7.37064C11.2318 7.18878 11.2504 7.00028 11.3214 6.82898C11.3923 6.65767 11.5125 6.51125 11.6667 6.40824C11.8208 6.30522 12.0021 6.25024 12.1875 6.25024C12.4361 6.25024 12.6746 6.34901 12.8504 6.52483C13.0262 6.70064 13.125 6.9391 13.125 7.18774ZM7.8125 6.25024C7.62708 6.25024 7.44582 6.30522 7.29165 6.40824C7.13748 6.51125 7.01732 6.65767 6.94636 6.82898C6.87541 7.00028 6.85684 7.18878 6.89301 7.37064C6.92919 7.5525 7.01848 7.71954 7.14959 7.85065C7.2807 7.98177 7.44775 8.07105 7.6296 8.10723C7.81146 8.1434 7.99996 8.12484 8.17127 8.05388C8.34257 7.98292 8.48899 7.86276 8.592 7.70859C8.69502 7.55442 8.75 7.37316 8.75 7.18774C8.75 6.9391 8.65123 6.70064 8.47541 6.52483C8.2996 6.34901 8.06114 6.25024 7.8125 6.25024ZM16.875 11.2502C16.8767 11.8569 16.7979 12.4612 16.6406 13.0471L18.3781 13.8065C18.5076 13.8654 18.613 13.9668 18.6771 14.0938C18.7411 14.2207 18.76 14.3658 18.7305 14.5049C18.701 14.644 18.6249 14.769 18.5148 14.859C18.4047 14.9491 18.2672 14.9989 18.125 15.0002C18.0389 15.0004 17.9538 14.9826 17.875 14.9479L16.2016 14.219C15.6417 15.389 14.7623 16.3767 13.665 17.0681C12.5676 17.7596 11.297 18.1265 10 18.1265C8.70297 18.1265 7.43241 17.7596 6.33504 17.0681C5.23768 16.3767 4.35829 15.389 3.79844 14.219L2.125 14.9479C2.04624 14.9826 1.96107 15.0004 1.875 15.0002C1.73148 15.0002 1.59236 14.9507 1.48102 14.8601C1.36968 14.7696 1.29289 14.6434 1.26357 14.503C1.23424 14.3625 1.25416 14.2162 1.31998 14.0886C1.38579 13.9611 1.4935 13.8601 1.625 13.8026L3.35938 13.0471C3.20209 12.4612 3.12328 11.8569 3.125 11.2502V10.6252H1.25C1.08424 10.6252 0.925268 10.5594 0.808058 10.4422C0.690848 10.325 0.625 10.166 0.625 10.0002C0.625 9.83448 0.690848 9.67551 0.808058 9.5583C0.925268 9.44109 1.08424 9.37524 1.25 9.37524H3.125V8.75024C3.12328 8.14355 3.20209 7.53932 3.35938 6.95337L1.625 6.1979C1.548 6.16629 1.47809 6.11961 1.41938 6.06061C1.36066 6.00162 1.31432 5.93149 1.28308 5.85434C1.25183 5.77719 1.23631 5.69457 1.23743 5.61135C1.23855 5.52812 1.25628 5.44595 1.28958 5.36967C1.32288 5.29338 1.37108 5.22452 1.43136 5.16712C1.49164 5.10972 1.56277 5.06494 1.64059 5.0354C1.71841 5.00587 1.80135 4.99217 1.88453 4.99512C1.96771 4.99807 2.04947 5.01761 2.125 5.05259L3.79844 5.78149C4.35829 4.61152 5.23768 3.62377 6.33504 2.93235C7.43241 2.24092 8.70297 1.87402 10 1.87402C11.297 1.87402 12.5676 2.24092 13.665 2.93235C14.7623 3.62377 15.6417 4.61152 16.2016 5.78149L17.875 5.05024C18.0261 4.98819 18.1956 4.98779 18.347 5.04911C18.4984 5.11044 18.6198 5.22862 18.6852 5.37835C18.7505 5.52808 18.7547 5.69745 18.6967 5.85019C18.6387 6.00293 18.5233 6.1269 18.375 6.19555L16.6406 6.95727C16.7979 7.54322 16.8767 8.14746 16.875 8.75415V9.37915H18.75C18.9158 9.37915 19.0747 9.445 19.1919 9.56221C19.3092 9.67942 19.375 9.83839 19.375 10.0041C19.375 10.1699 19.3092 10.3289 19.1919 10.4461C19.0747 10.5633 18.9158 10.6291 18.75 10.6291H16.875V11.2502ZM10.625 11.2502C10.625 11.0845 10.5592 10.9255 10.4419 10.8083C10.3247 10.6911 10.1658 10.6252 10 10.6252C9.83424 10.6252 9.67527 10.6911 9.55806 10.8083C9.44085 10.9255 9.375 11.0845 9.375 11.2502V16.2502C9.375 16.416 9.44085 16.575 9.55806 16.6922C9.67527 16.8094 9.83424 16.8752 10 16.8752C10.1658 16.8752 10.3247 16.8094 10.4419 16.6922C10.5592 16.575 10.625 16.416 10.625 16.2502V11.2502ZM15.625 8.75024C15.625 7.2584 15.0324 5.82766 13.9775 4.77277C12.9226 3.71787 11.4918 3.12524 10 3.12524C8.50816 3.12524 7.07742 3.71787 6.02252 4.77277C4.96763 5.82766 4.375 7.2584 4.375 8.75024V9.37524H15.625V8.75024Z" fill="#191F2E"/>
</svg>
