<svg width="20" height="20" viewBox="0 0 20 20" fill="none" xmlns="http://www.w3.org/2000/svg">
<path d="M10.9375 6.87501C10.9375 6.62778 11.0108 6.38611 11.1482 6.18055C11.2855 5.97499 11.4807 5.81477 11.7091 5.72016C11.9376 5.62555 12.1889 5.6008 12.4314 5.64903C12.6738 5.69726 12.8966 5.81631 13.0714 5.99113C13.2462 6.16594 13.3653 6.38867 13.4135 6.63115C13.4617 6.87362 13.437 7.12496 13.3424 7.35337C13.2477 7.58177 13.0875 7.777 12.882 7.91435C12.6764 8.0517 12.4347 8.12501 12.1875 8.12501C11.856 8.12501 11.538 7.99332 11.3036 7.75889C11.0692 7.52447 10.9375 7.20653 10.9375 6.87501ZM7.8125 5.62501C7.56527 5.62501 7.3236 5.69832 7.11804 5.83567C6.91248 5.97303 6.75226 6.16825 6.65765 6.39666C6.56304 6.62507 6.53829 6.8764 6.58652 7.11887C6.63475 7.36135 6.7538 7.58408 6.92862 7.75889C7.10343 7.93371 7.32616 8.05276 7.56864 8.10099C7.81111 8.14922 8.06245 8.12447 8.29085 8.02986C8.51926 7.93525 8.71449 7.77504 8.85184 7.56947C8.98919 7.36391 9.0625 7.12224 9.0625 6.87501C9.0625 6.54349 8.9308 6.22555 8.69638 5.99113C8.46196 5.75671 8.14402 5.62501 7.8125 5.62501ZM17.1875 11.25C17.1877 11.7927 17.1264 12.3337 17.0047 12.8625L18.5008 13.5156C18.6136 13.565 18.7157 13.6361 18.801 13.7249C18.8864 13.8136 18.9535 13.9184 18.9984 14.0331C19.0433 14.1478 19.0652 14.2702 19.0628 14.3933C19.0604 14.5165 19.0337 14.6379 18.9844 14.7508C18.935 14.8636 18.8639 14.9657 18.7752 15.0511C18.6864 15.1364 18.5816 15.2035 18.467 15.2484C18.3523 15.2933 18.2298 15.3152 18.1067 15.3128C17.9835 15.3104 17.8621 15.2837 17.7492 15.2344L16.343 14.6211C15.7307 15.7726 14.8166 16.7358 13.6986 17.4075C12.5807 18.0792 11.3011 18.4341 9.99687 18.4341C8.69267 18.4341 7.41305 18.0792 6.29512 17.4075C5.1772 16.7358 4.2631 15.7726 3.65078 14.6211L2.24453 15.2344C2.13168 15.2837 2.01021 15.3104 1.88706 15.3128C1.76391 15.3152 1.64149 15.2933 1.5268 15.2484C1.4121 15.2035 1.30738 15.1364 1.2186 15.0511C1.12982 14.9657 1.05872 14.8636 1.00937 14.7508C0.960027 14.6379 0.93339 14.5165 0.930986 14.3933C0.928581 14.2702 0.950457 14.1478 0.995363 14.0331C1.04027 13.9184 1.10733 13.8136 1.1927 13.7249C1.27808 13.6361 1.38011 13.565 1.49297 13.5156L2.98906 12.8625C2.86944 12.3334 2.81021 11.7925 2.8125 11.25V10.9375H1.25C1.00136 10.9375 0.762903 10.8387 0.587087 10.6629C0.411272 10.4871 0.3125 10.2487 0.3125 10C0.3125 9.75137 0.411272 9.51291 0.587087 9.3371C0.762903 9.16128 1.00136 9.06251 1.25 9.06251H2.8125V8.75001C2.81226 8.20733 2.87359 7.66637 2.99531 7.13751L1.49922 6.48439C1.2713 6.38472 1.0923 6.1986 1.00161 5.96696C0.910921 5.73533 0.915962 5.47715 1.01562 5.24923C1.11529 5.02131 1.30141 4.84232 1.53305 4.75162C1.76468 4.66093 2.02286 4.66597 2.25078 4.76564L3.65703 5.37892C4.26935 4.22739 5.18344 3.26418 6.30137 2.59248C7.4193 1.92078 8.69892 1.56592 10.0031 1.56592C11.3073 1.56592 12.5869 1.92078 13.7049 2.59248C14.8228 3.26418 15.7369 4.22739 16.3492 5.37892L17.7555 4.76564C17.8683 4.71629 17.9898 4.68965 18.1129 4.68725C18.2361 4.68484 18.3585 4.70672 18.4732 4.75162C18.5879 4.79653 18.6926 4.86359 18.7814 4.94897C18.8702 5.03435 18.9413 5.13638 18.9906 5.24923C19.04 5.36209 19.0666 5.48355 19.069 5.6067C19.0714 5.72985 19.0495 5.85227 19.0046 5.96696C18.9597 6.08166 18.8927 6.18639 18.8073 6.27517C18.7219 6.36395 18.6199 6.43504 18.507 6.48439L17.0109 7.13751C17.1306 7.66661 17.1898 8.20757 17.1875 8.75001V9.06251H18.75C18.9986 9.06251 19.2371 9.16128 19.4129 9.3371C19.5887 9.51291 19.6875 9.75137 19.6875 10C19.6875 10.2487 19.5887 10.4871 19.4129 10.6629C19.2371 10.8387 18.9986 10.9375 18.75 10.9375H17.1875V11.25ZM4.6875 9.06251H15.3125V8.75001C15.3125 7.34105 14.7528 5.98979 13.7565 4.99351C12.7602 3.99722 11.409 3.43751 10 3.43751C8.59104 3.43751 7.23978 3.99722 6.2435 4.99351C5.24721 5.98979 4.6875 7.34105 4.6875 8.75001V9.06251ZM9.0625 16.4781V10.9375H4.6875V11.25C4.68926 12.4958 5.12814 13.7015 5.92764 14.6568C6.72713 15.6122 7.83654 16.2568 9.0625 16.4781ZM15.3125 11.25V10.9375H10.9375V16.4781C12.1635 16.2568 13.2729 15.6122 14.0724 14.6568C14.8719 13.7015 15.3107 12.4958 15.3125 11.25Z" fill="#191F2E"/>
</svg>
