<svg width="20" height="20" viewBox="0 0 20 20" fill="none" xmlns="http://www.w3.org/2000/svg">
<path d="M18.75 15.9374H17.8125V7.49992C17.8125 7.08552 17.6479 6.68809 17.3549 6.39507C17.0618 6.10204 16.6644 5.93742 16.25 5.93742H13.4375V2.49992C13.4374 2.23726 13.3711 1.97887 13.2447 1.74862C13.1183 1.51837 12.9359 1.32369 12.7144 1.18259C12.4928 1.04149 12.2393 0.958515 11.9772 0.941335C11.7151 0.924154 11.4529 0.973323 11.2148 1.0843L3.08984 4.87648C2.82055 5.00264 2.59271 5.20281 2.43293 5.45362C2.27315 5.70442 2.18803 5.99551 2.1875 6.29289V15.9374H1.25C1.00136 15.9374 0.762903 16.0362 0.587087 16.212C0.411272 16.3878 0.3125 16.6263 0.3125 16.8749C0.3125 17.1236 0.411272 17.362 0.587087 17.5378C0.762903 17.7136 1.00136 17.8124 1.25 17.8124H18.75C18.9986 17.8124 19.2371 17.7136 19.4129 17.5378C19.5887 17.362 19.6875 17.1236 19.6875 16.8749C19.6875 16.6263 19.5887 16.3878 19.4129 16.212C19.2371 16.0362 18.9986 15.9374 18.75 15.9374ZM15.9375 7.81242V15.9374H13.4375V7.81242H15.9375ZM4.0625 6.49133L11.5625 2.99211V15.9374H4.0625V6.49133ZM10.3125 8.74992V9.68742C10.3125 9.93606 10.2137 10.1745 10.0379 10.3503C9.8621 10.5261 9.62364 10.6249 9.375 10.6249C9.12636 10.6249 8.8879 10.5261 8.71209 10.3503C8.53627 10.1745 8.4375 9.93606 8.4375 9.68742V8.74992C8.4375 8.50128 8.53627 8.26282 8.71209 8.08701C8.8879 7.91119 9.12636 7.81242 9.375 7.81242C9.62364 7.81242 9.8621 7.91119 10.0379 8.08701C10.2137 8.26282 10.3125 8.50128 10.3125 8.74992ZM7.1875 8.74992V9.68742C7.1875 9.93606 7.08873 10.1745 6.91291 10.3503C6.7371 10.5261 6.49864 10.6249 6.25 10.6249C6.00136 10.6249 5.7629 10.5261 5.58709 10.3503C5.41127 10.1745 5.3125 9.93606 5.3125 9.68742V8.74992C5.3125 8.50128 5.41127 8.26282 5.58709 8.08701C5.7629 7.91119 6.00136 7.81242 6.25 7.81242C6.49864 7.81242 6.7371 7.91119 6.91291 8.08701C7.08873 8.26282 7.1875 8.50128 7.1875 8.74992ZM7.1875 12.8124V13.7499C7.1875 13.9986 7.08873 14.237 6.91291 14.4128C6.7371 14.5886 6.49864 14.6874 6.25 14.6874C6.00136 14.6874 5.7629 14.5886 5.58709 14.4128C5.41127 14.237 5.3125 13.9986 5.3125 13.7499V12.8124C5.3125 12.5638 5.41127 12.3253 5.58709 12.1495C5.7629 11.9737 6.00136 11.8749 6.25 11.8749C6.49864 11.8749 6.7371 11.9737 6.91291 12.1495C7.08873 12.3253 7.1875 12.5638 7.1875 12.8124ZM10.3125 12.8124V13.7499C10.3125 13.9986 10.2137 14.237 10.0379 14.4128C9.8621 14.5886 9.62364 14.6874 9.375 14.6874C9.12636 14.6874 8.8879 14.5886 8.71209 14.4128C8.53627 14.237 8.4375 13.9986 8.4375 13.7499V12.8124C8.4375 12.5638 8.53627 12.3253 8.71209 12.1495C8.8879 11.9737 9.12636 11.8749 9.375 11.8749C9.62364 11.8749 9.8621 11.9737 10.0379 12.1495C10.2137 12.3253 10.3125 12.5638 10.3125 12.8124Z" fill="#191F2E"/>
</svg>
