<svg width="20" height="20" viewBox="0 0 20 20" fill="none" xmlns="http://www.w3.org/2000/svg">
<path d="M18.1797 3.94375C17.8906 3.57031 17.3313 3.125 16.3281 3.125C15.0117 3.125 13.3234 4.00625 11.8117 5.48125C11.3795 5.90019 10.9826 6.35407 10.625 6.83828V4.375C10.625 4.20924 10.5592 4.05027 10.442 3.93306C10.3247 3.81585 10.1658 3.75 10 3.75C9.83425 3.75 9.67528 3.81585 9.55807 3.93306C9.44086 4.05027 9.37501 4.20924 9.37501 4.375V6.83828C9.01843 6.35419 8.62256 5.90031 8.19142 5.48125C6.67892 4.00625 4.99063 3.125 3.67188 3.125C2.66876 3.125 2.10938 3.57031 1.82032 3.94375C1.28751 4.62891 0.86876 5.825 1.80392 9.50625C2.27657 11.368 3.32814 12.0844 4.19688 12.3516C3.72312 13.1209 3.57127 14.0457 3.77417 14.9261C3.97707 15.8065 4.51842 16.5716 5.28111 17.056C6.04379 17.5403 6.96649 17.7049 7.84959 17.5141C8.7327 17.3234 9.50521 16.7927 10 16.0367C10.4948 16.7927 11.2673 17.3234 12.1504 17.5141C13.0335 17.7049 13.9562 17.5403 14.7189 17.056C15.4816 16.5716 16.0229 15.8065 16.2258 14.9261C16.4288 14.0457 16.2769 13.1209 15.8031 12.3516C16.6719 12.0859 17.7227 11.368 18.1961 9.50625C18.7211 7.44063 19.1289 5.16406 18.1797 3.94375ZM7.18751 16.25C6.63289 16.2403 6.10248 16.0211 5.70278 15.6365C5.30307 15.2519 5.06365 14.7303 5.0326 14.1765C5.00154 13.6226 5.18115 13.0775 5.53536 12.6507C5.88956 12.2238 6.39214 11.9467 6.9422 11.875C7.02493 11.8674 7.10532 11.8434 7.17867 11.8044C7.25202 11.7654 7.31686 11.7122 7.3694 11.6479C7.42193 11.5835 7.46112 11.5093 7.48465 11.4296C7.50818 11.35 7.51559 11.2664 7.50645 11.1838C7.49731 11.1013 7.47181 11.0213 7.43142 10.9487C7.39103 10.8762 7.33657 10.8123 7.27123 10.761C7.20589 10.7097 7.13098 10.672 7.05088 10.6499C6.97077 10.6279 6.88708 10.6221 6.8047 10.6328C6.22043 10.6955 5.66228 10.9081 5.18438 11.25C4.52579 11.257 3.46563 10.9711 3.01563 9.19844C2.79063 8.31172 2.10938 5.61406 2.80782 4.71094C2.91954 4.56719 3.13204 4.375 3.67188 4.375C5.80235 4.375 9.37501 7.88125 9.37501 9.97422V14.0625C9.37501 14.6427 9.14454 15.1991 8.73431 15.6093C8.32407 16.0195 7.76767 16.25 7.18751 16.25ZM16.9844 9.19844C16.5336 10.9711 15.4742 11.2563 14.8149 11.25C14.3374 10.9066 13.7792 10.6926 13.1945 10.6289C13.1122 10.6182 13.0285 10.624 12.9484 10.646C12.8683 10.6681 12.7933 10.7058 12.728 10.7571C12.6627 10.8084 12.6082 10.8722 12.5678 10.9448C12.5274 11.0174 12.5019 11.0974 12.4928 11.1799C12.4836 11.2625 12.4911 11.3461 12.5146 11.4257C12.5381 11.5054 12.5773 11.5796 12.6298 11.6439C12.6824 11.7083 12.7472 11.7615 12.8206 11.8005C12.8939 11.8395 12.9743 11.8635 13.057 11.8711C13.4785 11.9166 13.8778 12.0832 14.2067 12.3507C14.5356 12.6182 14.7801 12.9752 14.9106 13.3785C15.0411 13.7819 15.052 14.2144 14.9421 14.6238C14.8322 15.0333 14.6061 15.4022 14.2912 15.686C13.9762 15.9697 13.5858 16.1563 13.1672 16.2231C12.7486 16.2899 12.3195 16.2342 11.9319 16.0625C11.5443 15.8908 11.2146 15.6107 10.9827 15.2558C10.7508 14.9009 10.6266 14.4864 10.625 14.0625V9.97422C10.625 7.88125 14.1945 4.375 16.3281 4.375C16.8711 4.375 17.0828 4.56719 17.1953 4.71094C17.8945 5.61406 17.2094 8.31172 16.9844 9.19844Z" fill="#191F2E"/>
</svg>
