<svg width="20" height="20" viewBox="0 0 20 20" fill="none" xmlns="http://www.w3.org/2000/svg">
<path d="M18.4211 3.75C18.0875 3.32187 17.4524 2.8125 16.3211 2.8125C14.9258 2.8125 13.157 3.72656 11.5891 5.25781C11.3547 5.48359 11.1406 5.71484 10.9375 5.94844V4.375C10.9375 4.12636 10.8387 3.8879 10.6629 3.71209C10.4871 3.53627 10.2487 3.4375 10 3.4375C9.75138 3.4375 9.51292 3.53627 9.3371 3.71209C9.16129 3.8879 9.06252 4.12636 9.06252 4.375V5.94844C8.85939 5.71406 8.6422 5.47969 8.41095 5.25781C6.84298 3.72656 5.07814 2.8125 3.67892 2.8125C2.54767 2.8125 1.91252 3.32344 1.57892 3.75C0.54689 5.07812 0.937515 7.33672 1.50627 9.58281C1.95548 11.3516 2.89689 12.1609 3.76252 12.5273C3.50871 13.0989 3.40148 13.7247 3.45055 14.3481C3.49961 14.9715 3.70341 15.5728 4.04349 16.0976C4.38357 16.6224 4.84919 17.0541 5.39818 17.3535C5.94716 17.6529 6.56218 17.8107 7.18752 17.8125C7.71983 17.8129 8.24608 17.6996 8.7311 17.4803C9.21613 17.2609 9.64874 16.9406 10 16.5406C10.5037 17.1118 11.1693 17.516 11.9084 17.6996C12.6474 17.8832 13.4249 17.8375 14.1373 17.5684C14.8497 17.2994 15.4633 16.8199 15.8965 16.1936C16.3298 15.5673 16.5621 14.824 16.5625 14.0625C16.563 13.5338 16.4528 13.0109 16.2391 12.5273C17.1047 12.1625 18.0461 11.3555 18.4953 9.58281C19.0625 7.33672 19.4531 5.07812 18.4211 3.75ZM7.18752 15.9375C6.69023 15.9375 6.21332 15.74 5.86169 15.3883C5.51006 15.0367 5.31252 14.5598 5.31252 14.0625C5.31438 13.6004 5.48435 13.1547 5.7907 12.8086C6.09705 12.4626 6.51884 12.2399 6.97736 12.182C7.22455 12.1547 7.45075 12.0303 7.6062 11.8361C7.76165 11.642 7.83362 11.3941 7.80626 11.1469C7.77891 10.8997 7.65449 10.6735 7.46036 10.518C7.26623 10.3626 7.0183 10.2906 6.77111 10.318C6.16914 10.3847 5.59256 10.5974 5.09142 10.9375C4.45158 10.9148 3.68517 10.5531 3.32345 9.12188C2.74455 6.84219 2.65548 5.42266 3.05861 4.90312C3.1047 4.84375 3.22658 4.6875 3.67892 4.6875C4.5547 4.6875 5.93048 5.45547 7.10158 6.59922C8.29298 7.76328 9.06252 9.08828 9.06252 9.97422V14.0625C9.06252 14.5598 8.86497 15.0367 8.51334 15.3883C8.16171 15.74 7.6848 15.9375 7.18752 15.9375ZM16.6758 9.12109C16.3133 10.5523 15.5469 10.9141 14.9078 10.9375C14.4065 10.5973 13.8296 10.3849 13.2274 10.3188C13.105 10.3052 12.9811 10.3159 12.8628 10.3502C12.7446 10.3846 12.6342 10.4418 12.5381 10.5188C12.442 10.5958 12.362 10.6909 12.3026 10.7988C12.2433 10.9067 12.2057 11.0253 12.1922 11.1477C12.1787 11.2701 12.1894 11.3939 12.2237 11.5122C12.258 11.6304 12.3153 11.7408 12.3923 11.8369C12.4692 11.933 12.5644 12.0131 12.6723 12.0724C12.7802 12.1318 12.8987 12.1693 13.0211 12.1828C13.4798 12.2403 13.9018 12.4628 14.2085 12.8087C14.5151 13.1546 14.6854 13.6002 14.6875 14.0625C14.6875 14.5598 14.49 15.0367 14.1383 15.3883C13.7867 15.74 13.3098 15.9375 12.8125 15.9375C12.3152 15.9375 11.8383 15.74 11.4867 15.3883C11.1351 15.0367 10.9375 14.5598 10.9375 14.0625V9.97422C10.9375 9.08828 11.707 7.76328 12.8985 6.59922C14.0695 5.45547 15.4453 4.6875 16.3211 4.6875C16.7735 4.6875 16.8953 4.84375 16.9414 4.90312C17.3438 5.42187 17.2555 6.84141 16.6766 9.12109H16.6758Z" fill="#191F2E"/>
</svg>
