<svg width="20" height="20" viewBox="0 0 20 20" fill="none" xmlns="http://www.w3.org/2000/svg">
<path d="M16.875 15.9375H13.4375V14.6875C14.9288 14.6858 16.3586 14.0927 17.4131 13.0381C18.4677 11.9836 19.0608 10.5538 19.0625 9.0625C19.0625 8.39946 18.7991 7.76357 18.3303 7.29473C17.8614 6.82589 17.2255 6.5625 16.5625 6.5625C15.8995 6.5625 15.2636 6.82589 14.7947 7.29473C14.3259 7.76357 14.0625 8.39946 14.0625 9.0625C14.0625 9.22826 13.9967 9.38723 13.8794 9.50444C13.7622 9.62165 13.6033 9.6875 13.4375 9.6875V4.375C13.4375 3.46332 13.0753 2.58898 12.4307 1.94432C11.786 1.29966 10.9117 0.9375 10 0.9375C9.08832 0.9375 8.21398 1.29966 7.56932 1.94432C6.92466 2.58898 6.5625 3.46332 6.5625 4.375V6.5625C6.39674 6.5625 6.23777 6.49665 6.12056 6.37944C6.00335 6.26223 5.9375 6.10326 5.9375 5.9375C5.9375 5.27446 5.67411 4.63857 5.20527 4.16973C4.73643 3.70089 4.10054 3.4375 3.4375 3.4375C2.77446 3.4375 2.13857 3.70089 1.66973 4.16973C1.20089 4.63857 0.9375 5.27446 0.9375 5.9375C0.939154 7.42883 1.53232 8.85861 2.58685 9.91315C3.64139 10.9677 5.07117 11.5608 6.5625 11.5625V15.9375H3.125C2.87636 15.9375 2.6379 16.0363 2.46209 16.2121C2.28627 16.3879 2.1875 16.6264 2.1875 16.875C2.1875 17.1236 2.28627 17.3621 2.46209 17.5379C2.6379 17.7137 2.87636 17.8125 3.125 17.8125H16.875C17.1236 17.8125 17.3621 17.7137 17.5379 17.5379C17.7137 17.3621 17.8125 17.1236 17.8125 16.875C17.8125 16.6264 17.7137 16.3879 17.5379 16.2121C17.3621 16.0363 17.1236 15.9375 16.875 15.9375ZM7.5 9.6875H6.5625C5.56826 9.68647 4.61503 9.29105 3.91199 8.58801C3.20895 7.88497 2.81353 6.93174 2.8125 5.9375C2.8125 5.77174 2.87835 5.61277 2.99556 5.49556C3.11277 5.37835 3.27174 5.3125 3.4375 5.3125C3.60326 5.3125 3.76223 5.37835 3.87944 5.49556C3.99665 5.61277 4.0625 5.77174 4.0625 5.9375C4.0625 6.60054 4.32589 7.23643 4.79473 7.70527C5.26357 8.17411 5.89946 8.4375 6.5625 8.4375H7.5C7.74864 8.4375 7.9871 8.33873 8.16291 8.16291C8.33873 7.9871 8.4375 7.74864 8.4375 7.5V4.375C8.4375 3.9606 8.60212 3.56317 8.89515 3.27015C9.18817 2.97712 9.5856 2.8125 10 2.8125C10.4144 2.8125 10.8118 2.97712 11.1049 3.27015C11.3979 3.56317 11.5625 3.9606 11.5625 4.375V10.625C11.5625 10.8736 11.6613 11.1121 11.8371 11.2879C12.0129 11.4637 12.2514 11.5625 12.5 11.5625H13.4375C14.1005 11.5625 14.7364 11.2991 15.2053 10.8303C15.6741 10.3614 15.9375 9.72554 15.9375 9.0625C15.9375 8.89674 16.0033 8.73777 16.1206 8.62056C16.2378 8.50335 16.3967 8.4375 16.5625 8.4375C16.7283 8.4375 16.8872 8.50335 17.0044 8.62056C17.1217 8.73777 17.1875 8.89674 17.1875 9.0625C17.1865 10.0567 16.791 11.01 16.088 11.713C15.385 12.416 14.4317 12.8115 13.4375 12.8125H12.5C12.2514 12.8125 12.0129 12.9113 11.8371 13.0871C11.6613 13.2629 11.5625 13.5014 11.5625 13.75V15.9375H8.4375V10.625C8.4375 10.3764 8.33873 10.1379 8.16291 9.96209C7.9871 9.78627 7.74864 9.6875 7.5 9.6875Z" fill="#191F2E"/>
</svg>
