<svg width="20" height="20" viewBox="0 0 20 20" fill="none" xmlns="http://www.w3.org/2000/svg">
<path d="M16.875 16.25H13.125V14.375H13.4375C14.846 14.3736 16.1964 13.8134 17.1924 12.8174C18.1884 11.8214 18.7486 10.471 18.75 9.0625C18.75 8.48234 18.5195 7.92594 18.1093 7.5157C17.6991 7.10547 17.1427 6.875 16.5625 6.875C15.9823 6.875 15.4259 7.10547 15.0157 7.5157C14.6055 7.92594 14.375 8.48234 14.375 9.0625C14.375 9.31114 14.2762 9.5496 14.1004 9.72541C13.9246 9.90123 13.6861 10 13.4375 10H13.125V4.375C13.125 3.5462 12.7958 2.75134 12.2097 2.16529C11.6237 1.57924 10.8288 1.25 10 1.25C9.1712 1.25 8.37634 1.57924 7.79029 2.16529C7.20424 2.75134 6.875 3.5462 6.875 4.375V6.875H6.5625C6.31386 6.875 6.0754 6.77623 5.89959 6.60041C5.72377 6.4246 5.625 6.18614 5.625 5.9375C5.625 5.35734 5.39453 4.80094 4.9843 4.3907C4.57406 3.98047 4.01766 3.75 3.4375 3.75C2.85734 3.75 2.30094 3.98047 1.8907 4.3907C1.48047 4.80094 1.25 5.35734 1.25 5.9375C1.25145 7.34602 1.81162 8.69643 2.80759 9.69241C3.80357 10.6884 5.15398 11.2486 6.5625 11.25H6.875V16.25H3.125C2.95924 16.25 2.80027 16.3158 2.68306 16.4331C2.56585 16.5503 2.5 16.7092 2.5 16.875C2.5 17.0408 2.56585 17.1997 2.68306 17.3169C2.80027 17.4342 2.95924 17.5 3.125 17.5H16.875C17.0408 17.5 17.1997 17.4342 17.3169 17.3169C17.4342 17.1997 17.5 17.0408 17.5 16.875C17.5 16.7092 17.4342 16.5503 17.3169 16.4331C17.1997 16.3158 17.0408 16.25 16.875 16.25ZM7.5 10H6.5625C5.48544 9.99876 4.45285 9.57035 3.69125 8.80875C2.92965 8.04715 2.50124 7.01456 2.5 5.9375C2.5 5.68886 2.59877 5.4504 2.77459 5.27459C2.9504 5.09877 3.18886 5 3.4375 5C3.68614 5 3.9246 5.09877 4.10041 5.27459C4.27623 5.4504 4.375 5.68886 4.375 5.9375C4.375 6.51766 4.60547 7.07406 5.0157 7.4843C5.42594 7.89453 5.98234 8.125 6.5625 8.125H7.5C7.66576 8.125 7.82473 8.05915 7.94194 7.94194C8.05915 7.82473 8.125 7.66576 8.125 7.5V4.375C8.125 3.87772 8.32254 3.40081 8.67417 3.04917C9.02581 2.69754 9.50272 2.5 10 2.5C10.4973 2.5 10.9742 2.69754 11.3258 3.04917C11.6775 3.40081 11.875 3.87772 11.875 4.375V10.625C11.875 10.7908 11.9408 10.9497 12.0581 11.0669C12.1753 11.1842 12.3342 11.25 12.5 11.25H13.4375C14.0177 11.25 14.5741 11.0195 14.9843 10.6093C15.3945 10.1991 15.625 9.64266 15.625 9.0625C15.625 8.81386 15.7238 8.5754 15.8996 8.39959C16.0754 8.22377 16.3139 8.125 16.5625 8.125C16.8111 8.125 17.0496 8.22377 17.2254 8.39959C17.4012 8.5754 17.5 8.81386 17.5 9.0625C17.4988 10.1396 17.0703 11.1722 16.3088 11.9338C15.5472 12.6953 14.5146 13.1238 13.4375 13.125H12.5C12.3342 13.125 12.1753 13.1908 12.0581 13.3081C11.9408 13.4253 11.875 13.5842 11.875 13.75V16.25H8.125V10.625C8.125 10.4592 8.05915 10.3003 7.94194 10.1831C7.82473 10.0658 7.66576 10 7.5 10Z" fill="#191F2E"/>
</svg>
