<svg width="20" height="20" viewBox="0 0 20 20" fill="none" xmlns="http://www.w3.org/2000/svg">
<path d="M18.125 8.74992C18.125 8.25264 17.9275 7.77572 17.5758 7.42409C17.2242 7.07246 16.7473 6.87492 16.25 6.87492H10.625V6.17179C11.1615 6.03245 11.6365 5.71911 11.9758 5.28085C12.3151 4.84259 12.4995 4.30417 12.5 3.74992C12.5 1.56242 10.4344 0.163199 10.3469 0.104605C10.2442 0.0360809 10.1235 -0.000488281 10 -0.000488281C9.87653 -0.000488281 9.75583 0.0360809 9.65312 0.104605C9.56562 0.163199 7.5 1.56242 7.5 3.74992C7.50052 4.30417 7.68487 4.84259 8.02417 5.28085C8.36347 5.71911 8.83855 6.03245 9.375 6.17179V6.87492H3.75C3.25272 6.87492 2.77581 7.07246 2.42417 7.42409C2.07254 7.77572 1.875 8.25264 1.875 8.74992V10.5726C1.87564 11.2544 2.09468 11.9181 2.5 12.4663V15.6249C2.5 16.1222 2.69754 16.5991 3.04917 16.9507C3.40081 17.3024 3.87772 17.4999 4.375 17.4999H15.625C16.1223 17.4999 16.5992 17.3024 16.9508 16.9507C17.3025 16.5991 17.5 16.1222 17.5 15.6249V12.4663C17.9053 11.9181 18.1244 11.2544 18.125 10.5726V8.74992ZM8.75 3.74992C8.75 2.68976 9.53125 1.83898 10 1.42257C10.4688 1.83898 11.25 2.68976 11.25 3.74992C11.25 4.08144 11.1183 4.39938 10.8839 4.6338C10.6495 4.86822 10.3315 4.99992 10 4.99992C9.66848 4.99992 9.35054 4.86822 9.11612 4.6338C8.8817 4.39938 8.75 4.08144 8.75 3.74992ZM3.125 8.74992C3.125 8.58416 3.19085 8.42519 3.30806 8.30798C3.42527 8.19077 3.58424 8.12492 3.75 8.12492H16.25C16.4158 8.12492 16.5747 8.19077 16.6919 8.30798C16.8092 8.42519 16.875 8.58416 16.875 8.74992V10.5726C16.875 11.6077 16.0578 12.4718 15.0531 12.4991C14.8025 12.5062 14.5531 12.463 14.3194 12.372C14.0858 12.281 13.8729 12.1441 13.6931 11.9694C13.5133 11.7946 13.3704 11.5856 13.2729 11.3547C13.1753 11.1238 13.125 10.8756 13.125 10.6249C13.125 10.4592 13.0592 10.3002 12.9419 10.183C12.8247 10.0658 12.6658 9.99992 12.5 9.99992C12.3342 9.99992 12.1753 10.0658 12.0581 10.183C11.9408 10.3002 11.875 10.4592 11.875 10.6249C11.875 11.1222 11.6775 11.5991 11.3258 11.9507C10.9742 12.3024 10.4973 12.4999 10 12.4999C9.50272 12.4999 9.02581 12.3024 8.67417 11.9507C8.32254 11.5991 8.125 11.1222 8.125 10.6249C8.125 10.4592 8.05915 10.3002 7.94194 10.183C7.82473 10.0658 7.66576 9.99992 7.5 9.99992C7.33424 9.99992 7.17527 10.0658 7.05806 10.183C6.94085 10.3002 6.875 10.4592 6.875 10.6249C6.8751 10.8757 6.8249 11.1239 6.72737 11.3549C6.62983 11.586 6.48695 11.7951 6.30718 11.9699C6.1274 12.1447 5.91438 12.2817 5.68073 12.3727C5.44708 12.4638 5.19754 12.507 4.94688 12.4999C3.94219 12.4718 3.125 11.6077 3.125 10.5726V8.74992ZM15.625 16.2499H4.375C4.20924 16.2499 4.05027 16.1841 3.93306 16.0669C3.81585 15.9496 3.75 15.7907 3.75 15.6249V13.4812C4.11585 13.6469 4.51101 13.7383 4.9125 13.7499C5.3302 13.7629 5.74621 13.6913 6.13555 13.5395C6.52488 13.3877 6.87951 13.1587 7.17812 12.8663C7.29472 12.7527 7.40233 12.6302 7.5 12.4999C7.79108 12.888 8.16853 13.203 8.60246 13.42C9.03638 13.637 9.51486 13.7499 10 13.7499C10.4851 13.7499 10.9636 13.637 11.3975 13.42C11.8315 13.203 12.2089 12.888 12.5 12.4999C12.598 12.6297 12.7059 12.7516 12.8227 12.8648C13.4041 13.4343 14.1862 13.7522 15 13.7499C15.0297 13.7499 15.0594 13.7499 15.0891 13.7499C15.49 13.7381 15.8846 13.6467 16.25 13.4812V15.6249C16.25 15.7907 16.1842 15.9496 16.0669 16.0669C15.9497 16.1841 15.7908 16.2499 15.625 16.2499Z" fill="#191F2E"/>
</svg>
