<svg width="20" height="20" viewBox="0 0 20 20" fill="none" xmlns="http://www.w3.org/2000/svg">
<path d="M15.625 1.875H4.375C4.04348 1.875 3.72554 2.0067 3.49112 2.24112C3.2567 2.47554 3.125 2.79348 3.125 3.125V16.875C3.125 17.2065 3.2567 17.5245 3.49112 17.7589C3.72554 17.9933 4.04348 18.125 4.375 18.125H15.625C15.9565 18.125 16.2745 17.9933 16.5089 17.7589C16.7433 17.5245 16.875 17.2065 16.875 16.875V3.125C16.875 2.79348 16.7433 2.47554 16.5089 2.24112C16.2745 2.0067 15.9565 1.875 15.625 1.875ZM6.875 15.625C6.68958 15.625 6.50832 15.57 6.35415 15.467C6.19998 15.364 6.07982 15.2176 6.00886 15.0463C5.93791 14.875 5.91934 14.6865 5.95551 14.5046C5.99169 14.3227 6.08098 14.1557 6.21209 14.0246C6.3432 13.8935 6.51025 13.8042 6.6921 13.768C6.87396 13.7318 7.06246 13.7504 7.23377 13.8214C7.40507 13.8923 7.55149 14.0125 7.6545 14.1667C7.75752 14.3208 7.8125 14.5021 7.8125 14.6875C7.8125 14.9361 7.71373 15.1746 7.53791 15.3504C7.3621 15.5262 7.12364 15.625 6.875 15.625ZM6.875 12.5C6.68958 12.5 6.50832 12.445 6.35415 12.342C6.19998 12.239 6.07982 12.0926 6.00886 11.9213C5.93791 11.75 5.91934 11.5615 5.95551 11.3796C5.99169 11.1977 6.08098 11.0307 6.21209 10.8996C6.3432 10.7685 6.51025 10.6792 6.6921 10.643C6.87396 10.6068 7.06246 10.6254 7.23377 10.6964C7.40507 10.7673 7.55149 10.8875 7.6545 11.0417C7.75752 11.1958 7.8125 11.3771 7.8125 11.5625C7.8125 11.8111 7.71373 12.0496 7.53791 12.2254C7.3621 12.4012 7.12364 12.5 6.875 12.5ZM10 15.625C9.81458 15.625 9.63332 15.57 9.47915 15.467C9.32498 15.364 9.20482 15.2176 9.13386 15.0463C9.06291 14.875 9.04434 14.6865 9.08051 14.5046C9.11669 14.3227 9.20598 14.1557 9.33709 14.0246C9.4682 13.8935 9.63525 13.8042 9.8171 13.768C9.99896 13.7318 10.1875 13.7504 10.3588 13.8214C10.5301 13.8923 10.6765 14.0125 10.7795 14.1667C10.8825 14.3208 10.9375 14.5021 10.9375 14.6875C10.9375 14.9361 10.8387 15.1746 10.6629 15.3504C10.4871 15.5262 10.2486 15.625 10 15.625ZM10 12.5C9.81458 12.5 9.63332 12.445 9.47915 12.342C9.32498 12.239 9.20482 12.0926 9.13386 11.9213C9.06291 11.75 9.04434 11.5615 9.08051 11.3796C9.11669 11.1977 9.20598 11.0307 9.33709 10.8996C9.4682 10.7685 9.63525 10.6792 9.8171 10.643C9.99896 10.6068 10.1875 10.6254 10.3588 10.6964C10.5301 10.7673 10.6765 10.8875 10.7795 11.0417C10.8825 11.1958 10.9375 11.3771 10.9375 11.5625C10.9375 11.8111 10.8387 12.0496 10.6629 12.2254C10.4871 12.4012 10.2486 12.5 10 12.5ZM13.125 15.625C12.9396 15.625 12.7583 15.57 12.6042 15.467C12.45 15.364 12.3298 15.2176 12.2589 15.0463C12.1879 14.875 12.1693 14.6865 12.2055 14.5046C12.2417 14.3227 12.331 14.1557 12.4621 14.0246C12.5932 13.8935 12.7602 13.8042 12.9421 13.768C13.124 13.7318 13.3125 13.7504 13.4838 13.8214C13.6551 13.8923 13.8015 14.0125 13.9045 14.1667C14.0075 14.3208 14.0625 14.5021 14.0625 14.6875C14.0625 14.9361 13.9637 15.1746 13.7879 15.3504C13.6121 15.5262 13.3736 15.625 13.125 15.625ZM13.125 12.5C12.9396 12.5 12.7583 12.445 12.6042 12.342C12.45 12.239 12.3298 12.0926 12.2589 11.9213C12.1879 11.75 12.1693 11.5615 12.2055 11.3796C12.2417 11.1977 12.331 11.0307 12.4621 10.8996C12.5932 10.7685 12.7602 10.6792 12.9421 10.643C13.124 10.6068 13.3125 10.6254 13.4838 10.6964C13.6551 10.7673 13.8015 10.8875 13.9045 11.0417C14.0075 11.1958 14.0625 11.3771 14.0625 11.5625C14.0625 11.8111 13.9637 12.0496 13.7879 12.2254C13.6121 12.4012 13.3736 12.5 13.125 12.5ZM14.375 8.125C14.375 8.29076 14.3092 8.44973 14.1919 8.56694C14.0747 8.68415 13.9158 8.75 13.75 8.75H6.25C6.08424 8.75 5.92527 8.68415 5.80806 8.56694C5.69085 8.44973 5.625 8.29076 5.625 8.125V5C5.625 4.83424 5.69085 4.67527 5.80806 4.55806C5.92527 4.44085 6.08424 4.375 6.25 4.375H13.75C13.9158 4.375 14.0747 4.44085 14.1919 4.55806C14.3092 4.67527 14.375 4.83424 14.375 5V8.125Z" fill="#191F2E"/>
</svg>
