<svg width="20" height="20" viewBox="0 0 20 20" fill="none" xmlns="http://www.w3.org/2000/svg">
<path d="M16.25 2.1875H14.6875V1.875C14.6875 1.62636 14.5887 1.3879 14.4129 1.21209C14.2371 1.03627 13.9986 0.9375 13.75 0.9375C13.5014 0.9375 13.2629 1.03627 13.0871 1.21209C12.9113 1.3879 12.8125 1.62636 12.8125 1.875V2.1875H7.1875V1.875C7.1875 1.62636 7.08873 1.3879 6.91291 1.21209C6.7371 1.03627 6.49864 0.9375 6.25 0.9375C6.00136 0.9375 5.7629 1.03627 5.58709 1.21209C5.41127 1.3879 5.3125 1.62636 5.3125 1.875V2.1875H3.75C3.3356 2.1875 2.93817 2.35212 2.64515 2.64515C2.35212 2.93817 2.1875 3.3356 2.1875 3.75V16.25C2.1875 16.6644 2.35212 17.0618 2.64515 17.3549C2.93817 17.6479 3.3356 17.8125 3.75 17.8125H16.25C16.6644 17.8125 17.0618 17.6479 17.3549 17.3549C17.6479 17.0618 17.8125 16.6644 17.8125 16.25V3.75C17.8125 3.3356 17.6479 2.93817 17.3549 2.64515C17.0618 2.35212 16.6644 2.1875 16.25 2.1875ZM5.3125 4.0625C5.3125 4.31114 5.41127 4.5496 5.58709 4.72541C5.7629 4.90123 6.00136 5 6.25 5C6.49864 5 6.7371 4.90123 6.91291 4.72541C7.08873 4.5496 7.1875 4.31114 7.1875 4.0625H12.8125C12.8125 4.31114 12.9113 4.5496 13.0871 4.72541C13.2629 4.90123 13.5014 5 13.75 5C13.9986 5 14.2371 4.90123 14.4129 4.72541C14.5887 4.5496 14.6875 4.31114 14.6875 4.0625H15.9375V5.9375H4.0625V4.0625H5.3125ZM4.0625 15.9375V7.8125H15.9375V15.9375H4.0625ZM8.75 9.6875V14.0625C8.75 14.3111 8.65123 14.5496 8.47541 14.7254C8.2996 14.9012 8.06114 15 7.8125 15C7.56386 15 7.3254 14.9012 7.14959 14.7254C6.97377 14.5496 6.875 14.3111 6.875 14.0625V11.1969C6.65193 11.2701 6.40951 11.2569 6.19567 11.16C5.98183 11.0631 5.81213 10.8895 5.72014 10.6735C5.62814 10.4575 5.62054 10.2148 5.69883 9.99348C5.77712 9.77214 5.93561 9.58824 6.14297 9.47812L7.39297 8.85313C7.5356 8.78175 7.69408 8.74795 7.85341 8.7549C8.01275 8.76186 8.16768 8.80936 8.30354 8.89289C8.4394 8.97643 8.55171 9.09324 8.62983 9.23229C8.70796 9.37133 8.74932 9.52801 8.75 9.6875ZM13.5539 12.3344L12.8047 13.125H13.125C13.3736 13.125 13.6121 13.2238 13.7879 13.3996C13.9637 13.5754 14.0625 13.8139 14.0625 14.0625C14.0625 14.3111 13.9637 14.5496 13.7879 14.7254C13.6121 14.9012 13.3736 15 13.125 15H10.625C10.4418 14.9999 10.2626 14.9462 10.1096 14.8454C9.95662 14.7446 9.8365 14.6012 9.76412 14.4329C9.69173 14.2646 9.67023 14.0788 9.7023 13.8984C9.73436 13.718 9.81858 13.551 9.94453 13.418L12.1445 11.0938C12.1723 11.0464 12.1872 10.9925 12.1875 10.9375C12.1877 10.8686 12.1651 10.8015 12.1231 10.7468C12.0812 10.692 12.0224 10.6527 11.9558 10.6348C11.8892 10.617 11.8186 10.6217 11.755 10.6482C11.6913 10.6747 11.6382 10.7214 11.6039 10.7812C11.4772 10.9917 11.2729 11.144 11.035 11.2054C10.7971 11.2668 10.5447 11.2324 10.3319 11.1095C10.1192 10.9867 9.96313 10.7852 9.89741 10.5485C9.83168 10.3118 9.86151 10.0587 9.98047 9.84375C10.2212 9.42667 10.5929 9.10069 11.0378 8.91638C11.4827 8.73207 11.976 8.69972 12.4412 8.82436C12.9063 8.949 13.3174 9.22365 13.6105 9.60572C13.9037 9.98779 14.0625 10.4559 14.0625 10.9375C14.0639 11.413 13.9091 11.8758 13.6219 12.2547C13.6009 12.2827 13.5782 12.3093 13.5539 12.3344Z" fill="#191F2E"/>
</svg>
