<svg width="20" height="20" viewBox="0 0 20 20" fill="none" xmlns="http://www.w3.org/2000/svg">
<path d="M16.25 2.1875H14.6875V1.875C14.6875 1.62636 14.5887 1.3879 14.4129 1.21209C14.2371 1.03627 13.9986 0.9375 13.75 0.9375C13.5014 0.9375 13.2629 1.03627 13.0871 1.21209C12.9113 1.3879 12.8125 1.62636 12.8125 1.875V2.1875H7.1875V1.875C7.1875 1.62636 7.08873 1.3879 6.91291 1.21209C6.7371 1.03627 6.49864 0.9375 6.25 0.9375C6.00136 0.9375 5.7629 1.03627 5.58709 1.21209C5.41127 1.3879 5.3125 1.62636 5.3125 1.875V2.1875H3.75C3.3356 2.1875 2.93817 2.35212 2.64515 2.64515C2.35212 2.93817 2.1875 3.3356 2.1875 3.75V16.25C2.1875 16.6644 2.35212 17.0618 2.64515 17.3549C2.93817 17.6479 3.3356 17.8125 3.75 17.8125H16.25C16.6644 17.8125 17.0618 17.6479 17.3549 17.3549C17.6479 17.0618 17.8125 16.6644 17.8125 16.25V3.75C17.8125 3.3356 17.6479 2.93817 17.3549 2.64515C17.0618 2.35212 16.6644 2.1875 16.25 2.1875ZM5.3125 4.0625C5.3125 4.31114 5.41127 4.5496 5.58709 4.72541C5.7629 4.90123 6.00136 5 6.25 5C6.49864 5 6.7371 4.90123 6.91291 4.72541C7.08873 4.5496 7.1875 4.31114 7.1875 4.0625H12.8125C12.8125 4.31114 12.9113 4.5496 13.0871 4.72541C13.2629 4.90123 13.5014 5 13.75 5C13.9986 5 14.2371 4.90123 14.4129 4.72541C14.5887 4.5496 14.6875 4.31114 14.6875 4.0625H15.9375V5.9375H4.0625V4.0625H5.3125ZM4.0625 15.9375V7.8125H15.9375V15.9375H4.0625ZM12.8125 11.875C12.8125 12.1236 12.7137 12.3621 12.5379 12.5379C12.3621 12.7137 12.1236 12.8125 11.875 12.8125H10.9375V13.75C10.9375 13.9986 10.8387 14.2371 10.6629 14.4129C10.4871 14.5887 10.2486 14.6875 10 14.6875C9.75136 14.6875 9.5129 14.5887 9.33709 14.4129C9.16127 14.2371 9.0625 13.9986 9.0625 13.75V12.8125H8.125C7.87636 12.8125 7.6379 12.7137 7.46209 12.5379C7.28627 12.3621 7.1875 12.1236 7.1875 11.875C7.1875 11.6264 7.28627 11.3879 7.46209 11.2121C7.6379 11.0363 7.87636 10.9375 8.125 10.9375H9.0625V10C9.0625 9.75136 9.16127 9.5129 9.33709 9.33709C9.5129 9.16127 9.75136 9.0625 10 9.0625C10.2486 9.0625 10.4871 9.16127 10.6629 9.33709C10.8387 9.5129 10.9375 9.75136 10.9375 10V10.9375H11.875C12.1236 10.9375 12.3621 11.0363 12.5379 11.2121C12.7137 11.3879 12.8125 11.6264 12.8125 11.875Z" fill="#191F2E"/>
</svg>
