<svg width="20" height="20" viewBox="0 0 20 20" fill="none" xmlns="http://www.w3.org/2000/svg">
<path d="M12.5383 10.6633L11.3281 11.875L12.5406 13.0867C12.7167 13.2628 12.8157 13.5017 12.8157 13.7508C12.8157 13.9999 12.7167 14.2387 12.5406 14.4148C12.3645 14.591 12.1256 14.6899 11.8766 14.6899C11.6275 14.6899 11.3886 14.591 11.2125 14.4148L10 13.2031L8.78828 14.4156C8.61216 14.5917 8.37329 14.6907 8.12422 14.6907C7.87515 14.6907 7.63628 14.5917 7.46016 14.4156C7.28404 14.2395 7.18509 14.0006 7.18509 13.7516C7.18509 13.5025 7.28404 13.2636 7.46016 13.0875L8.67188 11.875L7.46172 10.6633C7.37451 10.5761 7.30534 10.4725 7.25814 10.3586C7.21095 10.2447 7.18666 10.1225 7.18666 9.99922C7.18665 9.87589 7.21095 9.75377 7.25814 9.63983C7.30534 9.52589 7.37451 9.42236 7.46172 9.33516C7.54892 9.24795 7.65245 9.17877 7.76639 9.13158C7.88033 9.08438 8.00245 9.06009 8.12578 9.06009C8.24911 9.06009 8.37123 9.08438 8.48517 9.13158C8.59911 9.17877 8.70264 9.24795 8.78984 9.33516L10 10.5469L11.2117 9.33438C11.2989 9.24717 11.4025 9.17799 11.5164 9.1308C11.6303 9.0836 11.7525 9.05931 11.8758 9.05931C11.9991 9.05931 12.1212 9.0836 12.2352 9.1308C12.3491 9.17799 12.4526 9.24717 12.5398 9.33438C12.627 9.42158 12.6962 9.52511 12.7434 9.63905C12.7906 9.75299 12.8149 9.87511 12.8149 9.99844C12.8149 10.1218 12.7906 10.2439 12.7434 10.3578C12.6962 10.4718 12.627 10.5753 12.5398 10.6625L12.5383 10.6633ZM17.8125 3.75V16.25C17.8125 16.6644 17.6479 17.0618 17.3549 17.3549C17.0618 17.6479 16.6644 17.8125 16.25 17.8125H3.75C3.3356 17.8125 2.93817 17.6479 2.64515 17.3549C2.35212 17.0618 2.1875 16.6644 2.1875 16.25V3.75C2.1875 3.3356 2.35212 2.93817 2.64515 2.64515C2.93817 2.35212 3.3356 2.1875 3.75 2.1875H5.3125V1.875C5.3125 1.62636 5.41127 1.3879 5.58709 1.21209C5.7629 1.03627 6.00136 0.9375 6.25 0.9375C6.49864 0.9375 6.7371 1.03627 6.91291 1.21209C7.08873 1.3879 7.1875 1.62636 7.1875 1.875V2.1875H12.8125V1.875C12.8125 1.62636 12.9113 1.3879 13.0871 1.21209C13.2629 1.03627 13.5014 0.9375 13.75 0.9375C13.9986 0.9375 14.2371 1.03627 14.4129 1.21209C14.5887 1.3879 14.6875 1.62636 14.6875 1.875V2.1875H16.25C16.6644 2.1875 17.0618 2.35212 17.3549 2.64515C17.6479 2.93817 17.8125 3.3356 17.8125 3.75ZM4.0625 4.0625V5.9375H15.9375V4.0625H14.6875C14.6875 4.31114 14.5887 4.5496 14.4129 4.72541C14.2371 4.90123 13.9986 5 13.75 5C13.5014 5 13.2629 4.90123 13.0871 4.72541C12.9113 4.5496 12.8125 4.31114 12.8125 4.0625H7.1875C7.1875 4.31114 7.08873 4.5496 6.91291 4.72541C6.7371 4.90123 6.49864 5 6.25 5C6.00136 5 5.7629 4.90123 5.58709 4.72541C5.41127 4.5496 5.3125 4.31114 5.3125 4.0625H4.0625ZM15.9375 15.9375V7.8125H4.0625V15.9375H15.9375Z" fill="#191F2E"/>
</svg>
