<svg width="20" height="20" viewBox="0 0 20 20" fill="none" xmlns="http://www.w3.org/2000/svg">
<path d="M1.875 14.0625H18.125C18.3736 14.0625 18.6121 13.9637 18.7879 13.7879C18.9637 13.6121 19.0625 13.3736 19.0625 13.125C19.0625 12.8764 18.9637 12.6379 18.7879 12.4621C18.6121 12.2863 18.3736 12.1875 18.125 12.1875H17.8055C17.7288 10.334 16.9962 8.56802 15.7382 7.20461C14.4803 5.8412 12.7788 4.96905 10.9375 4.74375V3.4375H11.875C12.1236 3.4375 12.3621 3.33873 12.5379 3.16291C12.7137 2.9871 12.8125 2.74864 12.8125 2.5C12.8125 2.25136 12.7137 2.0129 12.5379 1.83709C12.3621 1.66127 12.1236 1.5625 11.875 1.5625H8.125C7.87636 1.5625 7.6379 1.66127 7.46209 1.83709C7.28627 2.0129 7.1875 2.25136 7.1875 2.5C7.1875 2.74864 7.28627 2.9871 7.46209 3.16291C7.6379 3.33873 7.87636 3.4375 8.125 3.4375H9.0625V4.74375C7.22115 4.96905 5.51973 5.8412 4.26179 7.20461C3.00384 8.56802 2.27118 10.334 2.19453 12.1875H1.875C1.62636 12.1875 1.3879 12.2863 1.21209 12.4621C1.03627 12.6379 0.9375 12.8764 0.9375 13.125C0.9375 13.3736 1.03627 13.6121 1.21209 13.7879C1.3879 13.9637 1.62636 14.0625 1.875 14.0625ZM10 6.5625C11.5201 6.5643 12.9817 7.14833 14.0844 8.19454C15.1871 9.24075 15.8472 10.6696 15.9289 12.1875H4.07109C4.1528 10.6696 4.81286 9.24075 5.91559 8.19454C7.01833 7.14833 8.47994 6.5643 10 6.5625ZM19.0625 16.25C19.0625 16.4986 18.9637 16.7371 18.7879 16.9129C18.6121 17.0887 18.3736 17.1875 18.125 17.1875H1.875C1.62636 17.1875 1.3879 17.0887 1.21209 16.9129C1.03627 16.7371 0.9375 16.4986 0.9375 16.25C0.9375 16.0014 1.03627 15.7629 1.21209 15.5871C1.3879 15.4113 1.62636 15.3125 1.875 15.3125H18.125C18.3736 15.3125 18.6121 15.4113 18.7879 15.5871C18.9637 15.7629 19.0625 16.0014 19.0625 16.25Z" fill="#191F2E"/>
</svg>
