<svg width="20" height="20" viewBox="0 0 20 20" fill="none" xmlns="http://www.w3.org/2000/svg">
<path d="M4.44375 2.49455C4.36142 2.40174 4.26149 2.3262 4.14975 2.2723C4.03801 2.2184 3.91668 2.18722 3.7928 2.18055C3.66892 2.17389 3.54495 2.19188 3.42807 2.23348C3.3112 2.27508 3.20374 2.33946 3.11193 2.4229C3.02012 2.50634 2.94578 2.60716 2.89322 2.71954C2.84067 2.83192 2.81094 2.95361 2.80576 3.07756C2.80058 3.20152 2.82005 3.32526 2.86305 3.44163C2.90605 3.558 2.97172 3.66468 3.05625 3.75549L3.36875 4.09689C2.86273 4.18646 2.40439 4.45131 2.07411 4.84501C1.74384 5.23872 1.56271 5.73613 1.5625 6.25002V15C1.5625 15.5802 1.79297 16.1366 2.2032 16.5468C2.61344 16.9571 3.16984 17.1875 3.75 17.1875H15.2672L15.5562 17.5055C15.7243 17.6861 15.9568 17.7931 16.2033 17.8034C16.4498 17.8137 16.6904 17.7264 16.873 17.5605C17.0555 17.3946 17.1653 17.1634 17.1786 16.9171C17.1918 16.6707 17.1075 16.4291 16.9438 16.2445L4.44375 2.49455ZM8.29922 9.5258L10.625 12.0813C10.2769 12.2045 9.90006 12.2223 9.54189 12.1322C9.18372 12.0421 8.86012 11.8483 8.6117 11.575C8.36327 11.3017 8.20109 10.9611 8.1455 10.596C8.08991 10.2309 8.14339 9.85751 8.29922 9.52267V9.5258ZM3.75 15.3125C3.66712 15.3125 3.58763 15.2796 3.52903 15.221C3.47042 15.1624 3.4375 15.0829 3.4375 15V6.25002C3.4375 6.16714 3.47042 6.08765 3.52903 6.02905C3.58763 5.97044 3.66712 5.93752 3.75 5.93752H5.03984L6.98672 8.07892C6.47078 8.77656 6.21273 9.63154 6.25656 10.4981C6.30038 11.3647 6.64337 12.1893 7.22707 12.8313C7.81076 13.4733 8.59904 13.8931 9.45755 14.019C10.3161 14.1449 11.1917 13.9693 11.9352 13.5219L13.5625 15.3125H3.75ZM18.4375 6.25002V13.6047C18.4375 13.8533 18.3387 14.0918 18.1629 14.2676C17.9871 14.4434 17.7486 14.5422 17.5 14.5422C17.2514 14.5422 17.0129 14.4434 16.8371 14.2676C16.6613 14.0918 16.5625 13.8533 16.5625 13.6047V6.25002C16.5625 6.16714 16.5296 6.08765 16.471 6.02905C16.4124 5.97044 16.3329 5.93752 16.25 5.93752H13.75C13.5955 5.93775 13.4433 5.89978 13.307 5.827C13.1707 5.75421 13.0545 5.64887 12.9688 5.52033L11.9977 4.06252H7.97344C7.7248 4.06252 7.48634 3.96375 7.31052 3.78793C7.13471 3.61212 7.03594 3.37366 7.03594 3.12502C7.03594 2.87638 7.13471 2.63792 7.31052 2.46211C7.48634 2.28629 7.7248 2.18752 7.97344 2.18752H12.5C12.6545 2.18729 12.8067 2.22526 12.943 2.29804C13.0793 2.37082 13.1955 2.47617 13.2812 2.60471L14.2516 4.06252H16.25C16.5373 4.06252 16.8217 4.1191 17.0871 4.22903C17.3525 4.33896 17.5937 4.50009 17.7968 4.70322C17.9999 4.90635 18.1611 5.1475 18.271 5.4129C18.3809 5.6783 18.4375 5.96275 18.4375 6.25002Z" fill="#191F2E"/>
</svg>
