<svg width="20" height="20" viewBox="0 0 20 20" fill="none" xmlns="http://www.w3.org/2000/svg">
<path d="M4.2125 2.70462C4.15761 2.64275 4.09099 2.59239 4.0165 2.55645C3.94201 2.52052 3.86112 2.49973 3.77854 2.49529C3.69595 2.49084 3.6133 2.50284 3.53538 2.53057C3.45746 2.5583 3.38582 2.60123 3.32462 2.65685C3.26341 2.71248 3.21385 2.7797 3.17881 2.85461C3.14378 2.92953 3.12396 3.01066 3.1205 3.09329C3.11705 3.17593 3.13004 3.25843 3.1587 3.33601C3.18737 3.41359 3.23115 3.48471 3.2875 3.54524L4.04141 4.37493H3.75C3.25272 4.37493 2.77581 4.57247 2.42417 4.92411C2.07254 5.27574 1.875 5.75265 1.875 6.24993V14.9999C1.875 15.4972 2.07254 15.9741 2.42417 16.3258C2.77581 16.6774 3.25272 16.8749 3.75 16.8749H15.4055L15.7875 17.2952C15.8424 17.3571 15.909 17.4075 15.9835 17.4434C16.058 17.4793 16.1389 17.5001 16.2215 17.5046C16.3041 17.509 16.3867 17.497 16.4646 17.4693C16.5425 17.4416 16.6142 17.3986 16.6754 17.343C16.7366 17.2874 16.7861 17.2202 16.8212 17.1452C16.8562 17.0703 16.876 16.9892 16.8795 16.9066C16.8829 16.8239 16.87 16.7414 16.8413 16.6639C16.8126 16.5863 16.7689 16.5152 16.7125 16.4546L4.2125 2.70462ZM8.24844 9.00227L11.1391 12.1812C10.7963 12.3911 10.4019 12.5015 10 12.4999C9.59402 12.4999 9.19606 12.3869 8.85066 12.1735C8.50525 11.9602 8.22603 11.6549 8.04425 11.2919C7.86246 10.9289 7.78528 10.5225 7.82134 10.1181C7.8574 9.71375 8.00528 9.32738 8.24844 9.00227ZM3.75 15.6249C3.58424 15.6249 3.42527 15.5591 3.30806 15.4419C3.19085 15.3247 3.125 15.1657 3.125 14.9999V6.24993C3.125 6.08417 3.19085 5.9252 3.30806 5.80799C3.42527 5.69078 3.58424 5.62493 3.75 5.62493H5.17812L7.39766 8.06712C6.96767 8.56558 6.68986 9.17701 6.59723 9.82875C6.50461 10.4805 6.60107 11.1451 6.87515 11.7436C7.14923 12.3422 7.58941 12.8494 8.14335 13.2051C8.69729 13.5607 9.34171 13.7498 10 13.7499C10.7121 13.7484 11.4062 13.5268 11.9875 13.1156L14.2688 15.6249H3.75ZM18.125 6.24993V14.5312C18.125 14.6969 18.0592 14.8559 17.9419 14.9731C17.8247 15.0903 17.6658 15.1562 17.5 15.1562C17.3342 15.1562 17.1753 15.0903 17.0581 14.9731C16.9408 14.8559 16.875 14.6969 16.875 14.5312V6.24993C16.875 6.08417 16.8092 5.9252 16.6919 5.80799C16.5747 5.69078 16.4158 5.62493 16.25 5.62493H13.75C13.6472 5.62487 13.546 5.59946 13.4554 5.55094C13.3648 5.50243 13.2875 5.43231 13.2305 5.34681L12.1648 3.74993H7.83125C7.73048 3.8749 7.58548 3.95631 7.42631 3.97726C7.26714 3.99822 7.10601 3.95712 6.97632 3.8625C6.84664 3.76787 6.75833 3.62696 6.72972 3.46899C6.70112 3.31102 6.73439 3.14809 6.82266 3.01399L6.97891 2.77962C7.03592 2.6936 7.11335 2.62304 7.20428 2.57424C7.29521 2.52544 7.3968 2.49991 7.5 2.49993H12.5C12.6029 2.49986 12.7043 2.52522 12.795 2.57373C12.8858 2.62225 12.9632 2.69244 13.0203 2.77806L14.0844 4.37493H16.25C16.7473 4.37493 17.2242 4.57247 17.5758 4.92411C17.9275 5.27574 18.125 5.75265 18.125 6.24993Z" fill="#191F2E"/>
</svg>
