<svg width="20" height="20" viewBox="0 0 20 20" fill="none" xmlns="http://www.w3.org/2000/svg">
<path d="M16.25 4.0625H14.2516L13.2812 2.60469C13.1955 2.47615 13.0793 2.37081 12.943 2.29802C12.8067 2.22524 12.6545 2.18727 12.5 2.1875H7.5C7.34548 2.18727 7.19331 2.22524 7.057 2.29802C6.9207 2.37081 6.80451 2.47615 6.71875 2.60469L5.74766 4.0625H3.75C3.16984 4.0625 2.61344 4.29297 2.2032 4.7032C1.79297 5.11344 1.5625 5.66984 1.5625 6.25V15C1.5625 15.5802 1.79297 16.1366 2.2032 16.5468C2.61344 16.957 3.16984 17.1875 3.75 17.1875H16.25C16.5373 17.1875 16.8217 17.1309 17.0871 17.021C17.3525 16.9111 17.5937 16.7499 17.7968 16.5468C17.9999 16.3437 18.1611 16.1025 18.271 15.8371C18.3809 15.5717 18.4375 15.2873 18.4375 15V6.25C18.4375 5.96273 18.3809 5.67828 18.271 5.41288C18.1611 5.14748 17.9999 4.90633 17.7968 4.7032C17.5937 4.50008 17.3525 4.33895 17.0871 4.22901C16.8217 4.11908 16.5373 4.0625 16.25 4.0625ZM16.5625 15C16.5625 15.0829 16.5296 15.1624 16.471 15.221C16.4124 15.2796 16.3329 15.3125 16.25 15.3125H3.75C3.66712 15.3125 3.58763 15.2796 3.52903 15.221C3.47042 15.1624 3.4375 15.0829 3.4375 15V6.25C3.4375 6.16712 3.47042 6.08763 3.52903 6.02903C3.58763 5.97042 3.66712 5.9375 3.75 5.9375H6.25C6.40452 5.93773 6.55669 5.89976 6.693 5.82698C6.8293 5.75419 6.94549 5.64885 7.03125 5.52031L8.00156 4.0625H11.9977L12.9688 5.52031C13.0545 5.64885 13.1707 5.75419 13.307 5.82698C13.4433 5.89976 13.5955 5.93773 13.75 5.9375H16.25C16.3329 5.9375 16.4124 5.97042 16.471 6.02903C16.5296 6.08763 16.5625 6.16712 16.5625 6.25V15ZM13.4375 10.625C13.4375 10.8736 13.3387 11.1121 13.1629 11.2879C12.9871 11.4637 12.7486 11.5625 12.5 11.5625H10.9375V13.125C10.9375 13.3736 10.8387 13.6121 10.6629 13.7879C10.4871 13.9637 10.2486 14.0625 10 14.0625C9.75136 14.0625 9.5129 13.9637 9.33709 13.7879C9.16127 13.6121 9.0625 13.3736 9.0625 13.125V11.5625H7.5C7.25136 11.5625 7.0129 11.4637 6.83709 11.2879C6.66127 11.1121 6.5625 10.8736 6.5625 10.625C6.5625 10.3764 6.66127 10.1379 6.83709 9.96209C7.0129 9.78627 7.25136 9.6875 7.5 9.6875H9.0625V8.125C9.0625 7.87636 9.16127 7.6379 9.33709 7.46209C9.5129 7.28627 9.75136 7.1875 10 7.1875C10.2486 7.1875 10.4871 7.28627 10.6629 7.46209C10.8387 7.6379 10.9375 7.87636 10.9375 8.125V9.6875H12.5C12.7486 9.6875 12.9871 9.78627 13.1629 9.96209C13.3387 10.1379 13.4375 10.3764 13.4375 10.625Z" fill="#191F2E"/>
</svg>
