<svg width="20" height="20" viewBox="0 0 20 20" fill="none" xmlns="http://www.w3.org/2000/svg">
<path d="M4.2125 2.70462C4.15761 2.64275 4.09099 2.59239 4.0165 2.55645C3.94201 2.52052 3.86112 2.49973 3.77854 2.49529C3.69595 2.49084 3.6133 2.50284 3.53538 2.53057C3.45746 2.5583 3.38582 2.60123 3.32462 2.65685C3.26341 2.71248 3.21385 2.7797 3.17881 2.85461C3.14378 2.92953 3.12396 3.01066 3.1205 3.09329C3.11705 3.17593 3.13004 3.25843 3.1587 3.33601C3.18737 3.41359 3.23115 3.48471 3.2875 3.54524L4.04141 4.37493H3.75C3.25272 4.37493 2.77581 4.57247 2.42417 4.92411C2.07254 5.27574 1.875 5.75265 1.875 6.24993V14.9999C1.875 15.4972 2.07254 15.9741 2.42417 16.3258C2.77581 16.6774 3.25272 16.8749 3.75 16.8749H15.4055L15.7875 17.2952C15.8424 17.3571 15.909 17.4075 15.9835 17.4434C16.058 17.4793 16.1389 17.5001 16.2215 17.5046C16.3041 17.509 16.3867 17.497 16.4646 17.4693C16.5425 17.4416 16.6142 17.3986 16.6754 17.343C16.7366 17.2874 16.7861 17.2202 16.8212 17.1452C16.8562 17.0703 16.876 16.9892 16.8795 16.9066C16.8829 16.8239 16.87 16.7414 16.8413 16.6639C16.8126 16.5863 16.7689 16.5152 16.7125 16.4546L4.2125 2.70462ZM10 13.1249C9.46785 13.1249 8.94663 12.9738 8.49689 12.6894C8.04715 12.4049 7.68734 11.9987 7.45926 11.5179C7.23117 11.0371 7.14417 10.5015 7.20836 9.97319C7.27255 9.44493 7.48529 8.94571 7.82188 8.53352L11.5625 12.6499C11.1007 12.9605 10.5565 13.1259 10 13.1249ZM18.125 6.24993V14.5312C18.125 14.6573 18.0868 14.7805 18.0155 14.8846C17.9441 14.9886 17.843 15.0686 17.7253 15.1141C17.6077 15.1596 17.479 15.1684 17.3562 15.1394C17.2335 15.1103 17.1223 15.0448 17.0375 14.9515L6.88125 3.77962C6.78762 3.67656 6.73109 3.54519 6.72061 3.40635C6.71014 3.26751 6.74633 3.12915 6.82344 3.01321L6.97969 2.77884C7.03672 2.69308 7.11406 2.62274 7.20484 2.57408C7.29561 2.52542 7.39701 2.49995 7.5 2.49993H12.5C12.6029 2.49986 12.7043 2.52522 12.795 2.57373C12.8858 2.62225 12.9632 2.69244 13.0203 2.77806L14.0844 4.37493H16.25C16.7473 4.37493 17.2242 4.57247 17.5758 4.92411C17.9275 5.27574 18.125 5.75265 18.125 6.24993Z" fill="#191F2E"/>
</svg>
