<svg width="20" height="20" viewBox="0 0 20 20" fill="none" xmlns="http://www.w3.org/2000/svg">
<path d="M16.25 4.0625H14.2516L13.2812 2.60469C13.1955 2.47615 13.0793 2.37081 12.943 2.29802C12.8067 2.22524 12.6545 2.18727 12.5 2.1875H7.5C7.34548 2.18727 7.19331 2.22524 7.057 2.29802C6.9207 2.37081 6.80451 2.47615 6.71875 2.60469L5.74766 4.0625H3.75C3.16984 4.0625 2.61344 4.29297 2.2032 4.7032C1.79297 5.11344 1.5625 5.66984 1.5625 6.25V15C1.5625 15.5802 1.79297 16.1366 2.2032 16.5468C2.61344 16.957 3.16984 17.1875 3.75 17.1875H16.25C16.5373 17.1875 16.8217 17.1309 17.0871 17.021C17.3525 16.9111 17.5937 16.7499 17.7968 16.5468C17.9999 16.3437 18.1611 16.1025 18.271 15.8371C18.3809 15.5717 18.4375 15.2873 18.4375 15V6.25C18.4375 5.96273 18.3809 5.67828 18.271 5.41288C18.1611 5.14748 17.9999 4.90633 17.7968 4.7032C17.5937 4.50008 17.3525 4.33895 17.0871 4.22901C16.8217 4.11908 16.5373 4.0625 16.25 4.0625ZM16.5625 15C16.5625 15.0829 16.5296 15.1624 16.471 15.221C16.4124 15.2796 16.3329 15.3125 16.25 15.3125H3.75C3.66712 15.3125 3.58763 15.2796 3.52903 15.221C3.47042 15.1624 3.4375 15.0829 3.4375 15V6.25C3.4375 6.16712 3.47042 6.08763 3.52903 6.02903C3.58763 5.97042 3.66712 5.9375 3.75 5.9375H6.25C6.40452 5.93773 6.55669 5.89976 6.693 5.82698C6.8293 5.75419 6.94549 5.64885 7.03125 5.52031L8.00156 4.0625H11.9977L12.9688 5.52031C13.0545 5.64885 13.1707 5.75419 13.307 5.82698C13.4433 5.89976 13.5955 5.93773 13.75 5.9375H16.25C16.3329 5.9375 16.4124 5.97042 16.471 6.02903C16.5296 6.08763 16.5625 6.16712 16.5625 6.25V15ZM14.0625 7.8125V9.375C14.0625 9.62364 13.9637 9.8621 13.7879 10.0379C13.6121 10.2137 13.3736 10.3125 13.125 10.3125H11.5625C11.3708 10.3123 11.1837 10.2532 11.0265 10.1433C10.8694 10.0335 10.7497 9.87806 10.6836 9.69806C10.6176 9.51806 10.6083 9.32212 10.657 9.13667C10.7058 8.95123 10.8102 8.78518 10.9563 8.66094C10.5952 8.48582 10.1931 8.4131 9.79361 8.4507C9.39412 8.48831 9.01262 8.6348 8.69062 8.87422C8.49182 9.02392 8.24168 9.08852 7.99525 9.05379C7.74881 9.01907 7.52626 8.88787 7.37656 8.68906C7.22686 8.49025 7.16227 8.24012 7.19699 7.99369C7.23171 7.74725 7.36291 7.5247 7.56172 7.375C8.24968 6.8633 9.08122 6.58108 9.93852 6.56832C10.7958 6.55556 11.6354 6.81291 12.3383 7.30391C12.4482 7.13428 12.61 7.00473 12.7996 6.93457C12.9892 6.86441 13.1964 6.8574 13.3902 6.91459C13.5841 6.97178 13.7543 7.0901 13.8755 7.25191C13.9966 7.41373 14.0622 7.61036 14.0625 7.8125ZM12.6242 11.9375C12.7736 12.1362 12.8379 12.3861 12.803 12.6323C12.7681 12.8784 12.637 13.1006 12.4383 13.25C11.7368 13.7761 10.8831 14.0596 10.0063 14.0578C9.16784 14.0583 8.34958 13.8008 7.6625 13.3203C7.55274 13.4902 7.39095 13.6201 7.2013 13.6905C7.01165 13.7609 6.80431 13.7681 6.61025 13.711C6.41618 13.6539 6.24581 13.5355 6.12455 13.3735C6.0033 13.2116 5.93769 13.0148 5.9375 12.8125V11.25C5.9375 11.0014 6.03627 10.7629 6.21209 10.5871C6.3879 10.4113 6.62636 10.3125 6.875 10.3125H8.4375C8.62925 10.3128 8.81631 10.3718 8.97346 10.4817C9.1306 10.5915 9.25029 10.7469 9.31636 10.9269C9.38243 11.1069 9.39173 11.3029 9.34298 11.4883C9.29424 11.6738 9.1898 11.8398 9.04375 11.9641C9.40477 12.1392 9.80691 12.2119 10.2064 12.1743C10.6059 12.1367 10.9874 11.9902 11.3094 11.7508C11.4079 11.6765 11.5201 11.6224 11.6396 11.5916C11.759 11.5608 11.8834 11.5538 12.0056 11.5712C12.1277 11.5885 12.2452 11.6298 12.3514 11.6927C12.4576 11.7555 12.5503 11.8387 12.6242 11.9375Z" fill="#191F2E"/>
</svg>
