<svg width="20" height="20" viewBox="0 0 20 20" fill="none" xmlns="http://www.w3.org/2000/svg">
<path d="M17.4703 17.6892C17.4454 17.7674 17.4054 17.84 17.3525 17.9027C17.2995 17.9655 17.2348 18.0172 17.1619 18.0549C17.089 18.0927 17.0093 18.1157 16.9275 18.1226C16.8457 18.1295 16.7634 18.1203 16.6851 18.0954L9.99998 15.9681L3.31482 18.0954C3.23659 18.1203 3.15423 18.1295 3.07243 18.1226C2.99064 18.1156 2.91101 18.0926 2.8381 18.0549C2.76519 18.0172 2.70043 17.9655 2.64751 17.9027C2.59459 17.84 2.55454 17.7674 2.52966 17.6892C2.50478 17.6109 2.49556 17.5286 2.50251 17.4468C2.50946 17.365 2.53245 17.2854 2.57018 17.2124C2.6079 17.1395 2.65961 17.0748 2.72237 17.0219C2.78512 16.9689 2.85768 16.9289 2.93591 16.904L7.93591 15.3126L2.93591 13.7204C2.85552 13.6974 2.78057 13.6585 2.71549 13.606C2.65041 13.5535 2.59652 13.4885 2.55703 13.4148C2.51753 13.3411 2.49322 13.2602 2.48555 13.1769C2.47787 13.0936 2.48698 13.0097 2.51234 12.93C2.5377 12.8503 2.57879 12.7765 2.63317 12.713C2.68756 12.6495 2.75414 12.5976 2.82897 12.5602C2.9038 12.5229 2.98535 12.501 3.06881 12.4958C3.15226 12.4905 3.23592 12.5021 3.31482 12.5298L9.99998 14.6564L16.6851 12.5298C16.764 12.5021 16.8477 12.4905 16.9311 12.4958C17.0146 12.501 17.0962 12.5229 17.171 12.5602C17.2458 12.5976 17.3124 12.6495 17.3668 12.713C17.4212 12.7765 17.4623 12.8503 17.4876 12.93C17.513 13.0097 17.5221 13.0936 17.5144 13.1769C17.5067 13.2602 17.4824 13.3411 17.4429 13.4148C17.4034 13.4885 17.3495 13.5535 17.2845 13.606C17.2194 13.6585 17.1444 13.6974 17.064 13.7204L12.064 15.3126L17.064 16.904C17.1423 16.9289 17.2148 16.9689 17.2776 17.0218C17.3404 17.0747 17.3921 17.1395 17.4298 17.2124C17.4675 17.2853 17.4905 17.365 17.4975 17.4468C17.5044 17.5286 17.4952 17.6109 17.4703 17.6892ZM5.31247 8.4376C5.31247 6.86729 6.07576 5.24463 7.51872 3.7501C8.16618 3.07681 8.88889 2.48018 9.67263 1.97197C9.77109 1.91144 9.8844 1.87939 9.99998 1.87939C10.1156 1.87939 10.2289 1.91144 10.3273 1.97197C10.5054 2.07744 14.6875 4.69385 14.6875 8.4376C14.6875 9.6808 14.1936 10.8731 13.3145 11.7522C12.4355 12.6312 11.2432 13.1251 9.99998 13.1251C8.75677 13.1251 7.56449 12.6312 6.68541 11.7522C5.80633 10.8731 5.31247 9.6808 5.31247 8.4376ZM9.99998 11.8751C10.3315 11.8751 10.6494 11.7434 10.8839 11.509C11.1183 11.2746 11.25 10.9566 11.25 10.6251C11.25 9.56494 10.4687 8.71416 9.99998 8.29776C9.53123 8.71416 8.74998 9.56494 8.74998 10.6251C8.74998 10.9566 8.88167 11.2746 9.11609 11.509C9.35051 11.7434 9.66845 11.8751 9.99998 11.8751ZM6.56247 8.4376C6.5622 9.31718 6.90042 10.1631 7.50701 10.8001C7.50701 10.7423 7.49998 10.6837 7.49998 10.6251C7.49998 8.4376 9.5656 7.03838 9.6531 6.97979C9.75581 6.91126 9.87651 6.87469 9.99998 6.87469C10.1234 6.87469 10.2441 6.91126 10.3469 6.97979C10.4344 7.03838 12.5 8.4376 12.5 10.6251C12.5 10.6837 12.5 10.7423 12.4929 10.8001C13.0995 10.1631 13.4377 9.31718 13.4375 8.4376C13.4375 5.9376 10.9172 3.90635 9.99998 3.25479C9.08357 3.90635 6.56247 5.9376 6.56247 8.4376Z" fill="#191F2E"/>
</svg>
