<svg width="20" height="20" viewBox="0 0 20 20" fill="none" xmlns="http://www.w3.org/2000/svg">
<path d="M18.75 8.4375H18.1094L16.0219 3.74063C15.8991 3.46435 15.6989 3.22961 15.4454 3.06487C15.1919 2.90013 14.8961 2.81246 14.5938 2.8125H5.40625C5.10393 2.81246 4.8081 2.90013 4.55461 3.06487C4.30112 3.22961 4.10087 3.46435 3.97812 3.74063L1.89062 8.4375H1.25C1.00136 8.4375 0.762903 8.53627 0.587087 8.71209C0.411272 8.8879 0.3125 9.12636 0.3125 9.375C0.3125 9.62364 0.411272 9.8621 0.587087 10.0379C0.762903 10.2137 1.00136 10.3125 1.25 10.3125H1.5625V16.25C1.5625 16.6644 1.72712 17.0618 2.02015 17.3549C2.31317 17.6479 2.7106 17.8125 3.125 17.8125H5C5.4144 17.8125 5.81183 17.6479 6.10485 17.3549C6.39788 17.0618 6.5625 16.6644 6.5625 16.25V14.6875H13.4375V16.25C13.4375 16.6644 13.6021 17.0618 13.8951 17.3549C14.1882 17.6479 14.5856 17.8125 15 17.8125H16.875C17.2894 17.8125 17.6868 17.6479 17.9799 17.3549C18.2729 17.0618 18.4375 16.6644 18.4375 16.25V10.3125H18.75C18.9986 10.3125 19.2371 10.2137 19.4129 10.0379C19.5887 9.8621 19.6875 9.62364 19.6875 9.375C19.6875 9.12636 19.5887 8.8879 19.4129 8.71209C19.2371 8.53627 18.9986 8.4375 18.75 8.4375ZM5.60938 4.6875H14.3906L16.057 8.4375H3.94297L5.60938 4.6875ZM4.6875 15.9375H3.4375V14.6875H4.6875V15.9375ZM15.3125 15.9375V14.6875H16.5625V15.9375H15.3125ZM16.5625 12.8125H3.4375V10.3125H16.5625V12.8125Z" fill="#191F2E"/>
</svg>
