<svg width="20" height="20" viewBox="0 0 20 20" fill="none" xmlns="http://www.w3.org/2000/svg">
<path d="M14.375 5.625H3.125C2.43464 5.625 1.875 6.18464 1.875 6.875V15.625C1.875 16.3154 2.43464 16.875 3.125 16.875H14.375C15.0654 16.875 15.625 16.3154 15.625 15.625V6.875C15.625 6.18464 15.0654 5.625 14.375 5.625Z" fill="#191F2E"/>
<path d="M16.875 3.125H5C4.83424 3.125 4.67527 3.19085 4.55806 3.30806C4.44085 3.42527 4.375 3.58424 4.375 3.75C4.375 3.91576 4.44085 4.07473 4.55806 4.19194C4.67527 4.30915 4.83424 4.375 5 4.375H16.875V13.75C16.875 13.9158 16.9408 14.0747 17.0581 14.1919C17.1753 14.3092 17.3342 14.375 17.5 14.375C17.6658 14.375 17.8247 14.3092 17.9419 14.1919C18.0592 14.0747 18.125 13.9158 18.125 13.75V4.375C18.125 4.04348 17.9933 3.72554 17.7589 3.49112C17.5245 3.2567 17.2065 3.125 16.875 3.125Z" fill="#191F2E"/>
</svg>
