<svg width="20" height="20" viewBox="0 0 20 20" fill="none" xmlns="http://www.w3.org/2000/svg">
<path d="M16.25 3.75H3.75C3.25272 3.75 2.77581 3.94754 2.42417 4.29917C2.07254 4.65081 1.875 5.12772 1.875 5.625V14.375C1.875 14.8723 2.07254 15.3492 2.42417 15.7008C2.77581 16.0525 3.25272 16.25 3.75 16.25H16.25C16.7473 16.25 17.2242 16.0525 17.5758 15.7008C17.9275 15.3492 18.125 14.8723 18.125 14.375V5.625C18.125 5.12772 17.9275 4.65081 17.5758 4.29917C17.2242 3.94754 16.7473 3.75 16.25 3.75ZM3.125 7.5H16.875V8.75H13.0617C12.7736 8.75016 12.4943 8.84986 12.2713 9.03222C12.0482 9.21459 11.8949 9.46843 11.8375 9.75078C11.7499 10.173 11.5196 10.5521 11.1851 10.8243C10.8507 11.0964 10.4327 11.245 10.0016 11.245C9.57039 11.245 9.15239 11.0964 8.81798 10.8243C8.48357 10.5521 8.25318 10.173 8.16562 9.75078C8.10807 9.4679 7.95438 9.21366 7.73065 9.03123C7.50693 8.84881 7.22696 8.74944 6.93828 8.75H3.125V7.5ZM3.75 5H16.25C16.4158 5 16.5747 5.06585 16.6919 5.18306C16.8092 5.30027 16.875 5.45924 16.875 5.625V6.25H3.125V5.625C3.125 5.45924 3.19085 5.30027 3.30806 5.18306C3.42527 5.06585 3.58424 5 3.75 5ZM16.25 15H3.75C3.58424 15 3.42527 14.9342 3.30806 14.8169C3.19085 14.6997 3.125 14.5408 3.125 14.375V10H6.9375C7.08132 10.706 7.46469 11.3406 8.02271 11.7964C8.58072 12.2522 9.2791 12.5012 9.99961 12.5012C10.7201 12.5012 11.4185 12.2522 11.9765 11.7964C12.5345 11.3406 12.9179 10.706 13.0617 10H16.875V14.375C16.875 14.5408 16.8092 14.6997 16.6919 14.8169C16.5747 14.9342 16.4158 15 16.25 15Z" fill="#191F2E"/>
</svg>
