<svg width="20" height="20" viewBox="0 0 20 20" fill="none" xmlns="http://www.w3.org/2000/svg">
<path d="M15.7477 4.25159C14.6111 3.11608 13.1633 2.34304 11.5874 2.03018C10.0116 1.71732 8.3783 1.87868 6.89411 2.49388C5.40993 3.10907 4.14144 4.15048 3.24901 5.48645C2.35657 6.82243 1.88025 8.393 1.88025 9.99964C1.88025 11.6063 2.35657 13.1768 3.24901 14.5128C4.14144 15.8488 5.40993 16.8902 6.89411 17.5054C8.3783 18.1206 10.0116 18.282 11.5874 17.9691C13.1633 17.6562 14.6111 16.8832 15.7477 15.7477C17.2699 14.222 18.1248 12.1548 18.1248 9.99964C18.1248 7.84446 17.2699 5.77728 15.7477 4.25159ZM9.81722 10.4422L7.31722 12.9422C7.25915 13.0003 7.19021 13.0463 7.11434 13.0778C7.03847 13.1092 6.95715 13.1254 6.87503 13.1254C6.79291 13.1254 6.71159 13.1092 6.63572 13.0778C6.55985 13.0463 6.49091 13.0003 6.43284 12.9422C6.37477 12.8841 6.32871 12.8152 6.29728 12.7393C6.26586 12.6635 6.24968 12.5822 6.24968 12.5C6.24968 12.4179 6.26586 12.3366 6.29728 12.2607C6.32871 12.1848 6.37477 12.1159 6.43284 12.0578L8.49065 10L6.43128 7.94065C6.37321 7.88258 6.32715 7.81365 6.29572 7.73778C6.26429 7.6619 6.24812 7.58059 6.24812 7.49847C6.24812 7.41634 6.26429 7.33503 6.29572 7.25916C6.32715 7.18328 6.37321 7.11435 6.43128 7.05628C6.48935 6.99821 6.55829 6.95215 6.63416 6.92072C6.71003 6.88929 6.79135 6.87312 6.87347 6.87312C6.95559 6.87312 7.03691 6.88929 7.11278 6.92072C7.18865 6.95215 7.25759 6.99821 7.31565 7.05628L9.81565 9.55628C9.8741 9.61425 9.92052 9.6832 9.95225 9.75916C9.98397 9.83512 10.0004 9.9166 10.0005 9.99892C10.0007 10.0812 9.98455 10.1628 9.95309 10.2389C9.92164 10.3149 9.87546 10.384 9.81722 10.4422ZM14.1922 10.4422L11.6922 12.9422C11.5749 13.0595 11.4159 13.1254 11.25 13.1254C11.0842 13.1254 10.9251 13.0595 10.8078 12.9422C10.6906 12.8249 10.6247 12.6659 10.6247 12.5C10.6247 12.3342 10.6906 12.1751 10.8078 12.0578L12.868 10L10.8086 7.94065C10.7506 7.88258 10.7045 7.81365 10.6731 7.73778C10.6416 7.6619 10.6255 7.58059 10.6255 7.49847C10.6255 7.41634 10.6416 7.33503 10.6731 7.25916C10.7045 7.18328 10.7506 7.11435 10.8086 7.05628C10.8667 6.99821 10.9356 6.95215 11.0115 6.92072C11.0874 6.88929 11.1687 6.87312 11.2508 6.87312C11.3329 6.87312 11.4143 6.88929 11.4901 6.92072C11.566 6.95215 11.6349 6.99821 11.693 7.05628L14.193 9.55628C14.2514 9.6143 14.2978 9.68329 14.3294 9.75928C14.3611 9.83527 14.3774 9.91676 14.3775 9.99908C14.3776 10.0814 14.3614 10.1629 14.3298 10.239C14.2983 10.315 14.2521 10.3841 14.1938 10.4422H14.1922Z" fill="#191F2E"/>
</svg>
