<svg width="20" height="20" viewBox="0 0 20 20" fill="none" xmlns="http://www.w3.org/2000/svg">
<path d="M16.8273 12.7391C16.7801 12.8533 16.7 12.9509 16.5972 13.0196C16.4944 13.0883 16.3736 13.125 16.25 13.125H3.75C3.62632 13.1251 3.50539 13.0885 3.40252 13.0198C3.29964 12.9512 3.21946 12.8535 3.17211 12.7392C3.12477 12.625 3.11239 12.4992 3.13655 12.3779C3.1607 12.2566 3.22031 12.1452 3.30782 12.0578L9.55782 5.80782C9.61586 5.74971 9.68479 5.70361 9.76067 5.67215C9.83654 5.6407 9.91787 5.62451 10 5.62451C10.0821 5.62451 10.1635 5.6407 10.2393 5.67215C10.3152 5.70361 10.3841 5.74971 10.4422 5.80782L16.6922 12.0578C16.7796 12.1453 16.8391 12.2567 16.8631 12.3779C16.8872 12.4992 16.8747 12.6249 16.8273 12.7391Z" fill="#191F2E"/>
</svg>
