<svg width="20" height="20" viewBox="0 0 20 20" fill="none" xmlns="http://www.w3.org/2000/svg">
<path d="M16.8273 9.76094C16.8747 9.87513 16.8872 10.0008 16.8631 10.1221C16.8391 10.2433 16.7796 10.3547 16.6922 10.4422L10.4422 16.6922C10.3841 16.7503 10.3152 16.7964 10.2393 16.8279C10.1635 16.8593 10.0821 16.8755 10 16.8755C9.91787 16.8755 9.83654 16.8593 9.76067 16.8279C9.68479 16.7964 9.61586 16.7503 9.55782 16.6922L3.30782 10.4422C3.22031 10.3548 3.1607 10.2434 3.13655 10.1221C3.11239 10.0008 3.12477 9.87502 3.17211 9.76076C3.21946 9.64649 3.29964 9.54884 3.40252 9.48018C3.50539 9.41151 3.62632 9.3749 3.75 9.375H8.49141L3.30782 4.19219C3.22031 4.10478 3.1607 3.99337 3.13655 3.87207C3.11239 3.75076 3.12477 3.62502 3.17211 3.51076C3.21946 3.39649 3.29964 3.29884 3.40252 3.23017C3.50539 3.16151 3.62632 3.1249 3.75 3.125H16.25C16.3737 3.1249 16.4946 3.16151 16.5975 3.23017C16.7004 3.29884 16.7805 3.39649 16.8279 3.51076C16.8752 3.62502 16.8876 3.75076 16.8635 3.87207C16.8393 3.99337 16.7797 4.10478 16.6922 4.19219L11.5086 9.375H16.25C16.3736 9.37503 16.4944 9.41171 16.5972 9.4804C16.7 9.5491 16.7801 9.64673 16.8273 9.76094Z" fill="#191F2E"/>
</svg>
