<svg width="20" height="20" viewBox="0 0 20 20" fill="none" xmlns="http://www.w3.org/2000/svg">
<path d="M16.6922 15.8078C16.7503 15.8659 16.7963 15.9348 16.8278 16.0107C16.8592 16.0866 16.8754 16.1679 16.8754 16.25C16.8754 16.3321 16.8592 16.4134 16.8278 16.4893C16.7963 16.5652 16.7503 16.6341 16.6922 16.6922C16.6341 16.7503 16.5652 16.7963 16.4893 16.8277C16.4135 16.8592 16.3321 16.8754 16.25 16.8754C16.1679 16.8754 16.0866 16.8592 16.0107 16.8277C15.9348 16.7963 15.8659 16.7503 15.8078 16.6922L10 10.8836L4.1922 16.6922C4.07492 16.8095 3.91586 16.8754 3.75001 16.8754C3.58416 16.8754 3.4251 16.8095 3.30782 16.6922C3.19055 16.5749 3.12466 16.4159 3.12466 16.25C3.12466 16.0842 3.19055 15.9251 3.30782 15.8078L9.55782 9.55782C9.61587 9.49971 9.6848 9.45361 9.76067 9.42215C9.83655 9.3907 9.91788 9.37451 10 9.37451C10.0821 9.37451 10.1635 9.3907 10.2393 9.42215C10.3152 9.45361 10.3842 9.49971 10.4422 9.55782L16.6922 15.8078ZM4.1922 10.4422L10 4.6336L15.8078 10.4422C15.8659 10.5003 15.9348 10.5463 16.0107 10.5777C16.0866 10.6092 16.1679 10.6254 16.25 10.6254C16.3321 10.6254 16.4135 10.6092 16.4893 10.5777C16.5652 10.5463 16.6341 10.5003 16.6922 10.4422C16.7503 10.3841 16.7963 10.3152 16.8278 10.2393C16.8592 10.1634 16.8754 10.0821 16.8754 10C16.8754 9.91788 16.8592 9.83656 16.8278 9.76069C16.7963 9.68482 16.7503 9.61588 16.6922 9.55782L10.4422 3.30782C10.3842 3.24971 10.3152 3.20361 10.2393 3.17215C10.1635 3.1407 10.0821 3.12451 10 3.12451C9.91788 3.12451 9.83655 3.1407 9.76067 3.17215C9.6848 3.20361 9.61587 3.24971 9.55782 3.30782L3.30782 9.55782C3.19055 9.67509 3.12466 9.83415 3.12466 10C3.12466 10.1659 3.19055 10.3249 3.30782 10.4422C3.4251 10.5595 3.58416 10.6254 3.75001 10.6254C3.91586 10.6254 4.07492 10.5595 4.1922 10.4422Z" fill="#191F2E"/>
</svg>
