<svg width="20" height="20" viewBox="0 0 20 20" fill="none" xmlns="http://www.w3.org/2000/svg">
<path d="M16.9133 13.1632C16.8262 13.2506 16.7227 13.3199 16.6088 13.3673C16.4948 13.4146 16.3726 13.4389 16.2492 13.4389C16.1259 13.4389 16.0037 13.4146 15.8897 13.3673C15.7758 13.3199 15.6723 13.2506 15.5852 13.1632L10 7.57803L4.41331 13.1632C4.23719 13.3393 3.99832 13.4383 3.74925 13.4383C3.50017 13.4383 3.2613 13.3393 3.08518 13.1632C2.90906 12.9871 2.81012 12.7482 2.81012 12.4991C2.81012 12.2501 2.90906 12.0112 3.08518 11.8351L9.33518 5.58507C9.42228 5.49767 9.52577 5.42832 9.63973 5.381C9.75368 5.33368 9.87586 5.30933 9.99925 5.30933C10.1226 5.30933 10.2448 5.33368 10.3588 5.381C10.4727 5.42832 10.5762 5.49767 10.6633 5.58507L16.9133 11.8351C17.0007 11.9222 17.0701 12.0257 17.1174 12.1396C17.1647 12.2536 17.189 12.3757 17.189 12.4991C17.189 12.6225 17.1647 12.7447 17.1174 12.8586C17.0701 12.9726 17.0007 13.0761 16.9133 13.1632Z" fill="#191F2E"/>
</svg>
