<svg width="20" height="20" viewBox="0 0 20 20" fill="none" xmlns="http://www.w3.org/2000/svg">
<path d="M15.9687 4.03125C14.7885 2.85197 13.285 2.04908 11.6485 1.7241C10.012 1.39912 8.31585 1.56663 6.77452 2.20546C5.23318 2.84428 3.91585 3.92574 2.98904 5.31313C2.06224 6.70051 1.56757 8.33153 1.56757 10C1.56757 11.6685 2.06224 13.2995 2.98904 14.6869C3.91585 16.0743 5.23318 17.1557 6.77452 17.7945C8.31585 18.4334 10.012 18.6009 11.6485 18.2759C13.285 17.9509 14.7885 17.148 15.9687 15.9688C17.5496 14.3846 18.4374 12.238 18.4374 10C18.4374 7.76201 17.5496 5.61542 15.9687 4.03125ZM14.6406 14.6422C13.7226 15.5595 12.5533 16.184 11.2804 16.4368C10.0076 16.6896 8.68834 16.5593 7.48949 16.0625C6.29065 15.5656 5.26603 14.7245 4.54516 13.6454C3.82428 12.5663 3.43953 11.2977 3.43953 10C3.43953 8.70228 3.82428 7.43369 4.54516 6.3546C5.26603 5.27552 6.29065 4.43438 7.48949 3.93753C8.68834 3.44068 10.0076 3.31043 11.2804 3.56323C12.5533 3.81603 13.7226 4.44054 14.6406 5.35782C15.8703 6.58968 16.5611 8.25908 16.5614 9.99968C16.5617 11.7403 15.8715 13.4099 14.6422 14.6422H14.6406ZM13.7883 8.16172L11.9531 10L13.7914 11.8383C13.8786 11.9255 13.9478 12.029 13.995 12.143C14.0422 12.2569 14.0665 12.379 14.0665 12.5023C14.0665 12.6257 14.0422 12.7478 13.995 12.8617C13.9478 12.9757 13.8786 13.0792 13.7914 13.1664C13.7042 13.2536 13.6007 13.3228 13.4867 13.37C13.3728 13.4172 13.2507 13.4415 13.1273 13.4415C13.004 13.4415 12.8819 13.4172 12.7679 13.37C12.654 13.3228 12.5505 13.2536 12.4633 13.1664L9.96327 10.6664C9.87587 10.5793 9.80653 10.4758 9.75921 10.3619C9.71189 10.2479 9.68753 10.1257 9.68753 10.0023C9.68753 9.87896 9.71189 9.75678 9.75921 9.64283C9.80653 9.52888 9.87587 9.42538 9.96327 9.33828L12.4633 6.83828C12.6394 6.66216 12.8783 6.56322 13.1273 6.56322C13.3764 6.56322 13.6153 6.66216 13.7914 6.83828C13.9675 7.01441 14.0665 7.25328 14.0665 7.50235C14.0665 7.75142 13.9675 7.99029 13.7914 8.16641L13.7883 8.16172ZM9.41327 8.16172L7.57812 10L9.41562 11.8383C9.50282 11.9255 9.572 12.029 9.61919 12.143C9.66639 12.2569 9.69068 12.379 9.69068 12.5023C9.69068 12.6257 9.66639 12.7478 9.61919 12.8617C9.572 12.9757 9.50282 13.0792 9.41562 13.1664C9.32841 13.2536 9.22488 13.3228 9.11094 13.37C8.997 13.4172 8.87488 13.4415 8.75155 13.4415C8.62823 13.4415 8.50611 13.4172 8.39217 13.37C8.27823 13.3228 8.1747 13.2536 8.08749 13.1664L5.58749 10.6664C5.50009 10.5793 5.43074 10.4758 5.38343 10.3619C5.33611 10.2479 5.31175 10.1257 5.31175 10.0023C5.31175 9.87896 5.33611 9.75678 5.38343 9.64283C5.43074 9.52888 5.50009 9.42538 5.58749 9.33828L8.08749 6.83828C8.1747 6.75108 8.27823 6.6819 8.39217 6.63471C8.50611 6.58751 8.62823 6.56322 8.75155 6.56322C8.87488 6.56322 8.997 6.58751 9.11094 6.63471C9.22488 6.6819 9.32841 6.75108 9.41562 6.83828C9.50282 6.92549 9.572 7.02902 9.61919 7.14296C9.66639 7.2569 9.69068 7.37902 9.69068 7.50235C9.69068 7.62568 9.66639 7.7478 9.61919 7.86174C9.572 7.97568 9.50282 8.0792 9.41562 8.16641L9.41327 8.16172Z" fill="#191F2E"/>
</svg>
