<svg width="20" height="20" viewBox="0 0 20 20" fill="none" xmlns="http://www.w3.org/2000/svg">
<path d="M15.7453 4.25466C14.2216 2.73091 12.1549 1.87488 10 1.87488C7.8451 1.87488 5.77845 2.73091 4.25469 4.25466C2.73094 5.77842 1.87491 7.84507 1.87491 9.99998C1.87491 12.1549 2.73094 14.2215 4.25469 15.7453C5.77845 17.269 7.8451 18.1251 10 18.1251C12.1549 18.1251 14.2216 17.269 15.7453 15.7453C17.2691 14.2215 18.1251 12.1549 18.1251 9.99998C18.1251 7.84507 17.2691 5.77842 15.7453 4.25466ZM14.8617 14.8617C13.9002 15.8231 12.6752 16.4778 11.3416 16.743C10.008 17.0081 8.62573 16.8719 7.36954 16.3516C6.11336 15.8312 5.03969 14.95 4.2843 13.8194C3.52891 12.6889 3.12573 11.3597 3.12573 9.99998C3.12573 8.64027 3.52891 7.3111 4.2843 6.18054C5.03969 5.04997 6.11336 4.16878 7.36954 3.6484C8.62573 3.12802 10.008 2.99181 11.3416 3.257C12.6752 3.52219 13.9002 4.17687 14.8617 5.13826C16.1492 6.42871 16.8722 8.17713 16.8722 9.99998C16.8722 11.8228 16.1492 13.5712 14.8617 14.8617ZM9.81719 9.55779C9.87531 9.61583 9.9214 9.68477 9.95286 9.76064C9.98431 9.83651 10.0005 9.91784 10.0005 9.99998C10.0005 10.0821 9.98431 10.1634 9.95286 10.2393C9.9214 10.3152 9.87531 10.3841 9.81719 10.4422L7.31719 12.9422C7.25913 13.0002 7.19019 13.0463 7.11432 13.0777C7.03845 13.1091 6.95713 13.1253 6.87501 13.1253C6.79289 13.1253 6.71157 13.1091 6.6357 13.0777C6.55983 13.0463 6.49089 13.0002 6.43282 12.9422C6.37475 12.8841 6.32869 12.8152 6.29726 12.7393C6.26583 12.6634 6.24966 12.5821 6.24966 12.5C6.24966 12.4179 6.26583 12.3365 6.29726 12.2607C6.32869 12.1848 6.37475 12.1159 6.43282 12.0578L8.49141 9.99998L6.43282 7.94216C6.31554 7.82489 6.24966 7.66583 6.24966 7.49998C6.24966 7.33412 6.31554 7.17506 6.43282 7.05779C6.5501 6.94051 6.70916 6.87463 6.87501 6.87463C7.04086 6.87463 7.19992 6.94051 7.31719 7.05779L9.81719 9.55779ZM14.1922 9.55779C14.2503 9.61583 14.2964 9.68477 14.3279 9.76064C14.3593 9.83651 14.3755 9.91784 14.3755 9.99998C14.3755 10.0821 14.3593 10.1634 14.3279 10.2393C14.2964 10.3152 14.2503 10.3841 14.1922 10.4422L11.6922 12.9422C11.5749 13.0594 11.4159 13.1253 11.25 13.1253C11.0842 13.1253 10.9251 13.0594 10.8078 12.9422C10.6905 12.8249 10.6247 12.6658 10.6247 12.5C10.6247 12.3341 10.6905 12.1751 10.8078 12.0578L12.8664 9.99998L10.8078 7.94216C10.6905 7.82489 10.6247 7.66583 10.6247 7.49998C10.6247 7.33412 10.6905 7.17506 10.8078 7.05779C10.9251 6.94051 11.0842 6.87463 11.25 6.87463C11.4159 6.87463 11.5749 6.94051 11.6922 7.05779L14.1922 9.55779Z" fill="#191F2E"/>
</svg>
