<svg width="20" height="20" viewBox="0 0 20 20" fill="none" xmlns="http://www.w3.org/2000/svg">
<path d="M14.1922 10.4423L7.9422 16.6923C7.88413 16.7504 7.81519 16.7964 7.73932 16.8278C7.66345 16.8593 7.58213 16.8755 7.50001 16.8755C7.41789 16.8755 7.33657 16.8593 7.2607 16.8278C7.18483 16.7964 7.11589 16.7504 7.05782 16.6923C6.99976 16.6342 6.95369 16.5653 6.92227 16.4894C6.89084 16.4135 6.87466 16.3322 6.87466 16.2501C6.87466 16.168 6.89084 16.0867 6.92227 16.0108C6.95369 15.9349 6.99976 15.866 7.05782 15.8079L12.8664 10.0001L7.05782 4.19229C6.94055 4.07502 6.87466 3.91596 6.87466 3.7501C6.87466 3.58425 6.94055 3.42519 7.05782 3.30792C7.1751 3.19064 7.33416 3.12476 7.50001 3.12476C7.66586 3.12476 7.82492 3.19064 7.9422 3.30792L14.1922 9.55792C14.2503 9.61596 14.2964 9.68489 14.3279 9.76077C14.3593 9.83664 14.3755 9.91797 14.3755 10.0001C14.3755 10.0822 14.3593 10.1636 14.3279 10.2394C14.2964 10.3153 14.2503 10.3842 14.1922 10.4423Z" fill="#191F2E"/>
</svg>
