<svg width="20" height="20" viewBox="0 0 20 20" fill="none" xmlns="http://www.w3.org/2000/svg">
<path d="M10 1.5625C8.33122 1.5625 6.69992 2.05735 5.31238 2.98448C3.92484 3.9116 2.84338 5.22936 2.20477 6.77111C1.56616 8.31286 1.39907 10.0094 1.72463 11.6461C2.05019 13.2828 2.85379 14.7862 4.03379 15.9662C5.2138 17.1462 6.71721 17.9498 8.35393 18.2754C9.99064 18.6009 11.6871 18.4338 13.2289 17.7952C14.7706 17.1566 16.0884 16.0752 17.0155 14.6876C17.9427 13.3001 18.4375 11.6688 18.4375 10C18.435 7.763 17.5453 5.61833 15.9635 4.03653C14.3817 2.45473 12.237 1.56498 10 1.5625ZM10 16.5625C8.70206 16.5625 7.43327 16.1776 6.35407 15.4565C5.27488 14.7354 4.43374 13.7105 3.93704 12.5114C3.44034 11.3122 3.31038 9.99272 3.5636 8.71972C3.81682 7.44672 4.44183 6.27739 5.35962 5.35961C6.2774 4.44183 7.44672 3.81681 8.71972 3.5636C9.99272 3.31038 11.3122 3.44034 12.5114 3.93704C13.7105 4.43374 14.7354 5.27487 15.4565 6.35407C16.1776 7.43327 16.5625 8.70206 16.5625 10C16.5606 11.7399 15.8686 13.408 14.6383 14.6383C13.408 15.8686 11.7399 16.5606 10 16.5625ZM11.9133 7.53828L9.45313 10L11.9156 12.4617C12.0917 12.6378 12.1907 12.8767 12.1907 13.1258C12.1907 13.3749 12.0917 13.6137 11.9156 13.7898C11.7395 13.966 11.5006 14.0649 11.2516 14.0649C11.0025 14.0649 10.7636 13.966 10.5875 13.7898L7.4625 10.6648C7.3751 10.5777 7.30576 10.4743 7.25844 10.3603C7.21112 10.2463 7.18676 10.1242 7.18676 10.0008C7.18676 9.87739 7.21112 9.75522 7.25844 9.64126C7.30576 9.52731 7.3751 9.42382 7.4625 9.33672L10.5875 6.21172C10.6747 6.12451 10.7782 6.05534 10.8922 6.00814C11.0061 5.96095 11.1282 5.93666 11.2516 5.93666C11.3749 5.93666 11.497 5.96095 11.611 6.00814C11.7249 6.05534 11.8284 6.12451 11.9156 6.21172C12.0028 6.29892 12.072 6.40245 12.1192 6.51639C12.1664 6.63033 12.1907 6.75245 12.1907 6.87578C12.1907 6.99911 12.1664 7.12123 12.1192 7.23517C12.072 7.34911 12.0028 7.45264 11.9156 7.53984L11.9133 7.53828Z" fill="#191F2E"/>
</svg>
