<svg width="20" height="20" viewBox="0 0 20 20" fill="none" xmlns="http://www.w3.org/2000/svg">
<path d="M10 1.875C8.39303 1.875 6.82214 2.35152 5.486 3.24431C4.14985 4.1371 3.10844 5.40605 2.49348 6.8907C1.87852 8.37535 1.71762 10.009 2.03112 11.5851C2.34463 13.1612 3.11846 14.6089 4.25476 15.7452C5.39106 16.8815 6.8388 17.6554 8.4149 17.9689C9.99099 18.2824 11.6247 18.1215 13.1093 17.5065C14.594 16.8916 15.8629 15.8502 16.7557 14.514C17.6485 13.1779 18.125 11.607 18.125 10C18.1227 7.84581 17.266 5.78051 15.7427 4.25727C14.2195 2.73403 12.1542 1.87727 10 1.875ZM13.5672 9.19219L10.4422 12.3172C10.3841 12.3753 10.3152 12.4214 10.2393 12.4529C10.1635 12.4843 10.0821 12.5005 10 12.5005C9.91787 12.5005 9.83654 12.4843 9.76067 12.4529C9.68479 12.4214 9.61586 12.3753 9.55782 12.3172L6.43282 9.19219C6.31554 9.07491 6.24966 8.91585 6.24966 8.75C6.24966 8.58415 6.31554 8.42509 6.43282 8.30781C6.55009 8.19054 6.70915 8.12465 6.875 8.12465C7.04086 8.12465 7.19992 8.19054 7.31719 8.30781L10 10.9914L12.6828 8.30781C12.7409 8.24974 12.8098 8.20368 12.8857 8.17225C12.9616 8.14083 13.0429 8.12465 13.125 8.12465C13.2071 8.12465 13.2884 8.14083 13.3643 8.17225C13.4402 8.20368 13.5091 8.24974 13.5672 8.30781C13.6253 8.36588 13.6713 8.43482 13.7027 8.51069C13.7342 8.58656 13.7504 8.66788 13.7504 8.75C13.7504 8.83212 13.7342 8.91344 13.7027 8.98931C13.6713 9.06518 13.6253 9.13412 13.5672 9.19219Z" fill="#191F2E"/>
</svg>
