<svg width="20" height="20" viewBox="0 0 20 20" fill="none" xmlns="http://www.w3.org/2000/svg">
<path d="M13.125 3.75V16.25C13.1251 16.3737 13.0885 16.4946 13.0198 16.5975C12.9512 16.7004 12.8535 16.7805 12.7392 16.8279C12.625 16.8752 12.4992 16.8876 12.3779 16.8635C12.2566 16.8393 12.1452 16.7797 12.0578 16.6922L5.80782 10.4422C5.74971 10.3841 5.70361 10.3152 5.67215 10.2393C5.6407 10.1635 5.62451 10.0821 5.62451 10C5.62451 9.91787 5.6407 9.83654 5.67215 9.76067C5.70361 9.68479 5.74971 9.61586 5.80782 9.55782L12.0578 3.30782C12.1452 3.22031 12.2566 3.1607 12.3779 3.13655C12.4992 3.11239 12.625 3.12477 12.7392 3.17211C12.8535 3.21946 12.9512 3.29964 13.0198 3.40252C13.0885 3.50539 13.1251 3.62632 13.125 3.75Z" fill="#191F2E"/>
</svg>
