<svg width="20" height="20" viewBox="0 0 20 20" fill="none" xmlns="http://www.w3.org/2000/svg">
<path d="M10 1.875C8.39303 1.875 6.82214 2.35152 5.486 3.24431C4.14985 4.1371 3.10844 5.40605 2.49348 6.8907C1.87852 8.37535 1.71762 10.009 2.03112 11.5851C2.34463 13.1612 3.11846 14.6089 4.25476 15.7452C5.39106 16.8815 6.8388 17.6554 8.4149 17.9689C9.99099 18.2824 11.6247 18.1215 13.1093 17.5065C14.594 16.8916 15.8629 15.8502 16.7557 14.514C17.6485 13.1779 18.125 11.607 18.125 10C18.1227 7.84581 17.266 5.78051 15.7427 4.25727C14.2195 2.73403 12.1542 1.87727 10 1.875ZM11.6922 12.6828C11.7503 12.7409 11.7963 12.8098 11.8277 12.8857C11.8592 12.9616 11.8754 13.0429 11.8754 13.125C11.8754 13.2071 11.8592 13.2884 11.8277 13.3643C11.7963 13.4402 11.7503 13.5091 11.6922 13.5672C11.6341 13.6253 11.5652 13.6713 11.4893 13.7027C11.4134 13.7342 11.3321 13.7503 11.25 13.7503C11.1679 13.7503 11.0866 13.7342 11.0107 13.7027C10.9348 13.6713 10.8659 13.6253 10.8078 13.5672L7.68282 10.4422C7.62471 10.3841 7.57861 10.3152 7.54715 10.2393C7.5157 10.1635 7.49951 10.0821 7.49951 10C7.49951 9.91787 7.5157 9.83654 7.54715 9.76066C7.57861 9.68479 7.62471 9.61586 7.68282 9.55781L10.8078 6.43281C10.8659 6.37474 10.9348 6.32868 11.0107 6.29725C11.0866 6.26583 11.1679 6.24965 11.25 6.24965C11.3321 6.24965 11.4134 6.26583 11.4893 6.29725C11.5652 6.32868 11.6341 6.37474 11.6922 6.43281C11.7503 6.49088 11.7963 6.55982 11.8277 6.63569C11.8592 6.71156 11.8754 6.79288 11.8754 6.875C11.8754 6.95712 11.8592 7.03844 11.8277 7.11431C11.7963 7.19018 11.7503 7.25912 11.6922 7.31719L9.0086 10L11.6922 12.6828Z" fill="#191F2E"/>
</svg>
