<svg width="20" height="20" viewBox="0 0 20 20" fill="none" xmlns="http://www.w3.org/2000/svg">
<path d="M10 1.875C8.39303 1.875 6.82214 2.35152 5.486 3.24431C4.14985 4.1371 3.10844 5.40605 2.49348 6.8907C1.87852 8.37535 1.71762 10.009 2.03112 11.5851C2.34463 13.1612 3.11846 14.6089 4.25476 15.7452C5.39106 16.8815 6.8388 17.6554 8.4149 17.9689C9.99099 18.2824 11.6247 18.1215 13.1093 17.5065C14.594 16.8916 15.8629 15.8502 16.7557 14.514C17.6485 13.1779 18.125 11.607 18.125 10C18.1227 7.84581 17.266 5.78051 15.7427 4.25727C14.2195 2.73403 12.1542 1.87727 10 1.875ZM13.5672 11.6922C13.5091 11.7503 13.4402 11.7964 13.3643 11.8279C13.2885 11.8593 13.2071 11.8755 13.125 11.8755C13.0429 11.8755 12.9615 11.8593 12.8857 11.8279C12.8098 11.7964 12.7409 11.7503 12.6828 11.6922L10 9.00859L7.31719 11.6922C7.25912 11.7503 7.19018 11.7963 7.11431 11.8277C7.03844 11.8592 6.95713 11.8753 6.875 11.8753C6.79288 11.8753 6.71156 11.8592 6.63569 11.8277C6.55982 11.7963 6.49088 11.7503 6.43282 11.6922C6.37475 11.6341 6.32868 11.5652 6.29726 11.4893C6.26583 11.4134 6.24966 11.3321 6.24966 11.25C6.24966 11.1679 6.26583 11.0866 6.29726 11.0107C6.32868 10.9348 6.37475 10.8659 6.43282 10.8078L9.55782 7.68281C9.61586 7.6247 9.68479 7.5786 9.76067 7.54715C9.83654 7.5157 9.91787 7.49951 10 7.49951C10.0821 7.49951 10.1635 7.5157 10.2393 7.54715C10.3152 7.5786 10.3841 7.6247 10.4422 7.68281L13.5672 10.8078C13.6253 10.8659 13.6714 10.9348 13.7029 11.0107C13.7343 11.0865 13.7505 11.1679 13.7505 11.25C13.7505 11.3321 13.7343 11.4135 13.7029 11.4893C13.6714 11.5652 13.6253 11.6341 13.5672 11.6922Z" fill="#191F2E"/>
</svg>
