<svg width="20" height="20" viewBox="0 0 20 20" fill="none" xmlns="http://www.w3.org/2000/svg">
<path d="M10 1.5625C8.33122 1.5625 6.69992 2.05735 5.31238 2.98448C3.92484 3.9116 2.84338 5.22936 2.20477 6.77111C1.56616 8.31286 1.39907 10.0094 1.72463 11.6461C2.05019 13.2828 2.85379 14.7862 4.03379 15.9662C5.2138 17.1462 6.71721 17.9498 8.35393 18.2754C9.99064 18.6009 11.6871 18.4338 13.2289 17.7952C14.7706 17.1566 16.0884 16.0752 17.0155 14.6876C17.9427 13.3001 18.4375 11.6688 18.4375 10C18.435 7.763 17.5453 5.61833 15.9635 4.03653C14.3817 2.45473 12.237 1.56498 10 1.5625ZM10 16.5625C8.70206 16.5625 7.43327 16.1776 6.35407 15.4565C5.27488 14.7354 4.43374 13.7105 3.93704 12.5114C3.44034 11.3122 3.31038 9.99272 3.5636 8.71972C3.81682 7.44672 4.44183 6.27739 5.35962 5.35961C6.2774 4.44183 7.44672 3.81681 8.71972 3.5636C9.99272 3.31038 11.3122 3.44034 12.5114 3.93704C13.7105 4.43374 14.7354 5.27487 15.4565 6.35407C16.1776 7.43327 16.5625 8.70206 16.5625 10C16.5606 11.7399 15.8686 13.408 14.6383 14.6383C13.408 15.8686 11.7399 16.5606 10 16.5625ZM13.1633 7.46172C13.3394 7.63784 13.4383 7.87671 13.4383 8.12578C13.4383 8.37485 13.3394 8.61372 13.1633 8.78984C12.9872 8.96596 12.7483 9.06491 12.4992 9.06491C12.2502 9.06491 12.0113 8.96596 11.8352 8.78984L10 6.95312L8.16328 8.79062C7.98716 8.96674 7.74829 9.06569 7.49922 9.06569C7.25015 9.06569 7.01128 8.96674 6.83516 8.79062C6.65904 8.6145 6.5601 8.37563 6.5601 8.12656C6.5601 7.87749 6.65904 7.63862 6.83516 7.4625L9.33516 4.9625C9.42226 4.8751 9.52575 4.80575 9.6397 4.75844C9.75366 4.71112 9.87583 4.68676 9.99922 4.68676C10.1226 4.68676 10.2448 4.71112 10.3587 4.75844C10.4727 4.80575 10.5762 4.8751 10.6633 4.9625L13.1633 7.46172ZM13.1633 11.2117C13.2507 11.2988 13.32 11.4023 13.3673 11.5163C13.4147 11.6302 13.439 11.7524 13.439 11.8758C13.439 11.9992 13.4147 12.1213 13.3673 12.2353C13.32 12.3493 13.2507 12.4527 13.1633 12.5398L10.6633 15.0398C10.5762 15.1272 10.4727 15.1966 10.3587 15.2439C10.2448 15.2912 10.1226 15.3156 9.99922 15.3156C9.87583 15.3156 9.75366 15.2912 9.6397 15.2439C9.52575 15.1966 9.42226 15.1272 9.33516 15.0398L6.83516 12.5398C6.65904 12.3637 6.5601 12.1249 6.5601 11.8758C6.5601 11.6267 6.65904 11.3878 6.83516 11.2117C7.01128 11.0356 7.25015 10.9367 7.49922 10.9367C7.74829 10.9367 7.98716 11.0356 8.16328 11.2117L10 13.0469L11.8367 11.2094C11.9239 11.1224 12.0275 11.0534 12.1414 11.0064C12.2553 10.9594 12.3773 10.9354 12.5005 10.9356C12.6237 10.9358 12.7456 10.9603 12.8594 11.0077C12.9731 11.0551 13.0764 11.1244 13.1633 11.2117Z" fill="#191F2E"/>
</svg>
