<svg width="20" height="20" viewBox="0 0 20 20" fill="none" xmlns="http://www.w3.org/2000/svg">
<path d="M10 1.875C8.39303 1.875 6.82214 2.35152 5.486 3.24431C4.14985 4.1371 3.10844 5.40605 2.49348 6.8907C1.87852 8.37535 1.71762 10.009 2.03112 11.5851C2.34463 13.1612 3.11846 14.6089 4.25476 15.7452C5.39106 16.8815 6.8388 17.6554 8.4149 17.9689C9.99099 18.2824 11.6247 18.1215 13.1093 17.5065C14.594 16.8916 15.8629 15.8502 16.7557 14.514C17.6485 13.1779 18.125 11.607 18.125 10C18.1227 7.84581 17.266 5.78051 15.7427 4.25727C14.2195 2.73403 12.1542 1.87727 10 1.875ZM10 16.875C8.64026 16.875 7.31105 16.4718 6.18046 15.7164C5.04987 14.9609 4.16868 13.8872 3.64833 12.6309C3.12798 11.3747 2.99183 9.99237 3.2571 8.65875C3.52238 7.32513 4.17716 6.10013 5.13864 5.13864C6.10013 4.17716 7.32514 3.52237 8.65876 3.2571C9.99238 2.99183 11.3747 3.12798 12.631 3.64833C13.8872 4.16868 14.9609 5.04987 15.7164 6.18045C16.4718 7.31104 16.875 8.64025 16.875 10C16.8729 11.8227 16.1479 13.5702 14.8591 14.8591C13.5702 16.1479 11.8227 16.8729 10 16.875ZM12.9422 7.68281C13.0003 7.74088 13.0463 7.80982 13.0777 7.88569C13.1092 7.96156 13.1254 8.04288 13.1254 8.125C13.1254 8.20712 13.1092 8.28844 13.0777 8.36431C13.0463 8.44018 13.0003 8.50912 12.9422 8.56719C12.8841 8.62526 12.8152 8.67132 12.7393 8.70275C12.6634 8.73417 12.5821 8.75035 12.5 8.75035C12.4179 8.75035 12.3366 8.73417 12.2607 8.70275C12.1848 8.67132 12.1159 8.62526 12.0578 8.56719L10 6.50859L7.94219 8.56719C7.82492 8.68446 7.66586 8.75035 7.5 8.75035C7.33415 8.75035 7.17509 8.68446 7.05782 8.56719C6.94054 8.44991 6.87466 8.29085 6.87466 8.125C6.87466 7.95915 6.94054 7.80009 7.05782 7.68281L9.55782 5.18281C9.61586 5.1247 9.68479 5.0786 9.76067 5.04715C9.83654 5.0157 9.91787 4.99951 10 4.99951C10.0821 4.99951 10.1635 5.0157 10.2393 5.04715C10.3152 5.0786 10.3841 5.1247 10.4422 5.18281L12.9422 7.68281ZM12.9422 11.4328C13.0003 11.4909 13.0464 11.5598 13.0779 11.6357C13.1093 11.7115 13.1255 11.7929 13.1255 11.875C13.1255 11.9571 13.1093 12.0385 13.0779 12.1143C13.0464 12.1902 13.0003 12.2591 12.9422 12.3172L10.4422 14.8172C10.3841 14.8753 10.3152 14.9214 10.2393 14.9529C10.1635 14.9843 10.0821 15.0005 10 15.0005C9.91787 15.0005 9.83654 14.9843 9.76067 14.9529C9.68479 14.9214 9.61586 14.8753 9.55782 14.8172L7.05782 12.3172C6.94054 12.1999 6.87466 12.0409 6.87466 11.875C6.87466 11.7091 6.94054 11.5501 7.05782 11.4328C7.17509 11.3155 7.33415 11.2497 7.5 11.2497C7.66586 11.2497 7.82492 11.3155 7.94219 11.4328L10 13.4914L12.0578 11.4328C12.1159 11.3747 12.1848 11.3286 12.2607 11.2971C12.3365 11.2657 12.4179 11.2495 12.5 11.2495C12.5821 11.2495 12.6635 11.2657 12.7393 11.2971C12.8152 11.3286 12.8841 11.3747 12.9422 11.4328Z" fill="#191F2E"/>
</svg>
