<svg width="20" height="20" viewBox="0 0 20 20" fill="none" xmlns="http://www.w3.org/2000/svg">
<path d="M13.1633 15.5868C13.3394 15.763 13.4383 16.0018 13.4383 16.2509C13.4383 16.5 13.3394 16.7388 13.1633 16.915C12.9871 17.0911 12.7483 17.19 12.4992 17.19C12.2501 17.19 12.0112 17.0911 11.8351 16.915L5.58513 10.665C5.49773 10.5779 5.42838 10.4744 5.38106 10.3604C5.33374 10.2465 5.30939 10.1243 5.30939 10.0009C5.30939 9.87751 5.33374 9.75533 5.38106 9.64138C5.42838 9.52742 5.49773 9.42393 5.58513 9.33683L11.8351 3.08683C12.0112 2.91071 12.2501 2.81177 12.4992 2.81177C12.7483 2.81177 12.9871 2.91071 13.1633 3.08683C13.3394 3.26295 13.4383 3.50182 13.4383 3.75089C13.4383 3.99997 13.3394 4.23884 13.1633 4.41496L7.57809 10.0001L13.1633 15.5868Z" fill="#191F2E"/>
</svg>
