<svg width="20" height="20" viewBox="0 0 20 20" fill="none" xmlns="http://www.w3.org/2000/svg">
<path d="M16.6922 7.94229L10.4422 14.1923C10.3842 14.2504 10.3152 14.2965 10.2393 14.328C10.1635 14.3594 10.0821 14.3756 10 14.3756C9.91788 14.3756 9.83655 14.3594 9.76067 14.328C9.6848 14.2965 9.61587 14.2504 9.55782 14.1923L3.30782 7.94229C3.19055 7.82502 3.12466 7.66596 3.12466 7.5001C3.12466 7.33425 3.19055 7.17519 3.30782 7.05792C3.4251 6.94064 3.58416 6.87476 3.75001 6.87476C3.91586 6.87476 4.07492 6.94064 4.1922 7.05792L10 12.8665L15.8078 7.05792C15.8659 6.99985 15.9348 6.95378 16.0107 6.92236C16.0866 6.89093 16.1679 6.87476 16.25 6.87476C16.3321 6.87476 16.4135 6.89093 16.4893 6.92236C16.5652 6.95378 16.6341 6.99985 16.6922 7.05792C16.7503 7.11598 16.7963 7.18492 16.8278 7.26079C16.8592 7.33666 16.8754 7.41798 16.8754 7.5001C16.8754 7.58223 16.8592 7.66354 16.8278 7.73941C16.7963 7.81528 16.7503 7.88422 16.6922 7.94229Z" fill="#191F2E"/>
</svg>
