<svg width="20" height="20" viewBox="0 0 20 20" fill="none" xmlns="http://www.w3.org/2000/svg">
<path d="M10 1.875C8.39303 1.875 6.82214 2.35152 5.486 3.24431C4.14985 4.1371 3.10844 5.40605 2.49348 6.8907C1.87852 8.37535 1.71762 10.009 2.03112 11.5851C2.34463 13.1612 3.11846 14.6089 4.25476 15.7452C5.39106 16.8815 6.8388 17.6554 8.4149 17.9689C9.99099 18.2824 11.6247 18.1215 13.1093 17.5065C14.594 16.8916 15.8629 15.8502 16.7557 14.514C17.6485 13.1779 18.125 11.607 18.125 10C18.1227 7.84581 17.266 5.78051 15.7427 4.25727C14.2195 2.73403 12.1542 1.87727 10 1.875ZM10 16.875C8.64026 16.875 7.31105 16.4718 6.18046 15.7164C5.04987 14.9609 4.16868 13.8872 3.64833 12.6309C3.12798 11.3747 2.99183 9.99237 3.2571 8.65875C3.52238 7.32513 4.17716 6.10013 5.13864 5.13864C6.10013 4.17716 7.32514 3.52237 8.65876 3.2571C9.99238 2.99183 11.3747 3.12798 12.631 3.64833C13.8872 4.16868 14.9609 5.04987 15.7164 6.18045C16.4718 7.31104 16.875 8.64025 16.875 10C16.8729 11.8227 16.1479 13.5702 14.8591 14.8591C13.5702 16.1479 11.8227 16.8729 10 16.875ZM12.3172 9.55781C12.3753 9.61586 12.4214 9.68479 12.4529 9.76066C12.4843 9.83654 12.5005 9.91787 12.5005 10C12.5005 10.0821 12.4843 10.1635 12.4529 10.2393C12.4214 10.3152 12.3753 10.3841 12.3172 10.4422L9.19219 13.5672C9.13412 13.6253 9.06518 13.6713 8.98931 13.7027C8.91344 13.7342 8.83213 13.7503 8.75 13.7503C8.66788 13.7503 8.58656 13.7342 8.51069 13.7027C8.43482 13.6713 8.36588 13.6253 8.30782 13.5672C8.24975 13.5091 8.20368 13.4402 8.17226 13.3643C8.14083 13.2884 8.12466 13.2071 8.12466 13.125C8.12466 13.0429 8.14083 12.9616 8.17226 12.8857C8.20368 12.8098 8.24975 12.7409 8.30782 12.6828L10.9914 10L8.30782 7.31719C8.19054 7.19991 8.12466 7.04085 8.12466 6.875C8.12466 6.70915 8.19054 6.55009 8.30782 6.43281C8.42509 6.31554 8.58415 6.24965 8.75 6.24965C8.91586 6.24965 9.07492 6.31554 9.19219 6.43281L12.3172 9.55781Z" fill="#191F2E"/>
</svg>
