<svg width="20" height="20" viewBox="0 0 20 20" fill="none" xmlns="http://www.w3.org/2000/svg">
<path d="M15.7477 4.25159C14.6111 3.11608 13.1633 2.34304 11.5874 2.03018C10.0116 1.71732 8.3783 1.87868 6.89411 2.49388C5.40993 3.10907 4.14144 4.15048 3.24901 5.48645C2.35657 6.82243 1.88025 8.393 1.88025 9.99964C1.88025 11.6063 2.35657 13.1768 3.24901 14.5128C4.14144 15.8488 5.40993 16.8902 6.89411 17.5054C8.3783 18.1206 10.0116 18.282 11.5874 17.9691C13.1633 17.6562 14.6111 16.8832 15.7477 15.7477C17.2699 14.222 18.1248 12.1548 18.1248 9.99964C18.1248 7.84446 17.2699 5.77728 15.7477 4.25159ZM9.19144 12.0586C9.2495 12.1167 9.29557 12.1856 9.32699 12.2615C9.35842 12.3374 9.3746 12.4187 9.3746 12.5008C9.3746 12.5829 9.35842 12.6642 9.32699 12.7401C9.29557 12.816 9.2495 12.8849 9.19144 12.943C9.13337 13.0011 9.06443 13.0471 8.98856 13.0786C8.91269 13.11 8.83137 13.1262 8.74925 13.1262C8.66713 13.1262 8.58581 13.11 8.50994 13.0786C8.43407 13.0471 8.36513 13.0011 8.30706 12.943L5.80706 10.443C5.74895 10.385 5.70285 10.316 5.6714 10.2401C5.63995 10.1643 5.62376 10.0829 5.62376 10.0008C5.62376 9.91867 5.63995 9.83735 5.6714 9.76147C5.70285 9.6856 5.74895 9.61667 5.80706 9.55862L8.30706 7.05862C8.36513 7.00055 8.43407 6.95449 8.50994 6.92306C8.58581 6.89164 8.66713 6.87546 8.74925 6.87546C8.83137 6.87546 8.91269 6.89164 8.98856 6.92306C9.06443 6.95449 9.13337 7.00055 9.19144 7.05862C9.2495 7.11669 9.29557 7.18563 9.32699 7.2615C9.35842 7.33737 9.3746 7.41869 9.3746 7.50081C9.3746 7.58293 9.35842 7.66425 9.32699 7.74012C9.29557 7.81599 9.2495 7.88493 9.19144 7.943L7.13206 10L9.19144 12.0586ZM13.5664 12.0586C13.6245 12.1167 13.6706 12.1856 13.702 12.2615C13.7334 12.3374 13.7496 12.4187 13.7496 12.5008C13.7496 12.5829 13.7334 12.6642 13.702 12.7401C13.6706 12.816 13.6245 12.8849 13.5664 12.943C13.5084 13.0011 13.4394 13.0471 13.3636 13.0786C13.2877 13.11 13.2064 13.1262 13.1242 13.1262C13.0421 13.1262 12.9608 13.11 12.8849 13.0786C12.8091 13.0471 12.7401 13.0011 12.6821 12.943L10.1821 10.443C10.124 10.385 10.0779 10.316 10.0464 10.2401C10.0149 10.1643 9.99876 10.0829 9.99876 10.0008C9.99876 9.91867 10.0149 9.83735 10.0464 9.76147C10.0779 9.6856 10.124 9.61667 10.1821 9.55862L12.6821 7.05862C12.7401 7.00055 12.8091 6.95449 12.8849 6.92306C12.9608 6.89164 13.0421 6.87546 13.1242 6.87546C13.2064 6.87546 13.2877 6.89164 13.3636 6.92306C13.4394 6.95449 13.5084 7.00055 13.5664 7.05862C13.6245 7.11669 13.6706 7.18563 13.702 7.2615C13.7334 7.33737 13.7496 7.41869 13.7496 7.50081C13.7496 7.58293 13.7334 7.66425 13.702 7.74012C13.6706 7.81599 13.6245 7.88493 13.5664 7.943L11.5094 10L13.5664 12.0586Z" fill="#191F2E"/>
</svg>
