<svg width="20" height="20" viewBox="0 0 20 20" fill="none" xmlns="http://www.w3.org/2000/svg">
<path d="M15.9687 4.03125C14.7885 2.85197 13.285 2.04908 11.6485 1.7241C10.012 1.39912 8.31585 1.56663 6.77452 2.20546C5.23318 2.84428 3.91585 3.92574 2.98904 5.31313C2.06224 6.70051 1.56757 8.33153 1.56757 10C1.56757 11.6685 2.06224 13.2995 2.98904 14.6869C3.91585 16.0743 5.23318 17.1557 6.77452 17.7945C8.31585 18.4334 10.012 18.6009 11.6485 18.2759C13.285 17.9509 14.7885 17.148 15.9687 15.9688C17.5496 14.3846 18.4374 12.238 18.4374 10C18.4374 7.76201 17.5496 5.61542 15.9687 4.03125ZM14.6406 14.6422C13.7226 15.5595 12.5533 16.184 11.2804 16.4368C10.0076 16.6896 8.68834 16.5593 7.48949 16.0625C6.29065 15.5656 5.26603 14.7245 4.54516 13.6454C3.82428 12.5663 3.43953 11.2977 3.43953 10C3.43953 8.70228 3.82428 7.43369 4.54516 6.3546C5.26603 5.27552 6.29065 4.43438 7.48949 3.93753C8.68834 3.44068 10.0076 3.31043 11.2804 3.56323C12.5533 3.81603 13.7226 4.44054 14.6406 5.35782C15.8703 6.58968 16.5611 8.25908 16.5614 9.99968C16.5617 11.7403 15.8715 13.4099 14.6422 14.6422H14.6406ZM10.0367 9.33672C10.1241 9.42382 10.1935 9.52731 10.2408 9.64127C10.2881 9.75522 10.3125 9.8774 10.3125 10.0008C10.3125 10.1242 10.2881 10.2463 10.2408 10.3603C10.1935 10.4743 10.1241 10.5778 10.0367 10.6648L7.53671 13.1648C7.36059 13.341 7.12172 13.4399 6.87265 13.4399C6.62358 13.4399 6.38471 13.341 6.20859 13.1648C6.03247 12.9887 5.93352 12.7499 5.93352 12.5008C5.93352 12.2517 6.03247 12.0128 6.20859 11.8367L8.04687 10L6.21015 8.16172C6.03403 7.9856 5.93508 7.74673 5.93508 7.49766C5.93508 7.37433 5.95938 7.25221 6.00657 7.13827C6.05377 7.02433 6.12294 6.9208 6.21015 6.8336C6.29735 6.74639 6.40088 6.67722 6.51482 6.63002C6.62876 6.58282 6.75088 6.55853 6.87421 6.55853C7.12328 6.55853 7.36215 6.65748 7.53827 6.8336L10.0367 9.33672ZM14.4117 10.6648L11.9117 13.1648C11.7356 13.341 11.4967 13.4399 11.2476 13.4399C10.9986 13.4399 10.7597 13.341 10.5836 13.1648C10.4075 12.9887 10.3085 12.7499 10.3085 12.5008C10.3085 12.2517 10.4075 12.0128 10.5836 11.8367L12.4219 10L10.5844 8.16172C10.4082 7.9856 10.3093 7.74673 10.3093 7.49766C10.3093 7.37433 10.3336 7.25221 10.3808 7.13827C10.428 7.02433 10.4972 6.9208 10.5844 6.8336C10.6716 6.74639 10.7751 6.67722 10.889 6.63002C11.003 6.58282 11.1251 6.55853 11.2484 6.55853C11.4975 6.55853 11.7364 6.65748 11.9125 6.8336L14.4125 9.3336C14.5003 9.42057 14.57 9.52404 14.6177 9.63805C14.6653 9.75207 14.69 9.87438 14.6902 9.99795C14.6904 10.1215 14.6662 10.2439 14.6189 10.3581C14.5717 10.4723 14.5023 10.576 14.4148 10.6633L14.4117 10.6648Z" fill="#191F2E"/>
</svg>
