<svg width="20" height="20" viewBox="0 0 20 20" fill="none" xmlns="http://www.w3.org/2000/svg">
<path d="M16.9133 9.33683C17.0007 9.42393 17.0701 9.52742 17.1174 9.64138C17.1647 9.75533 17.189 9.87751 17.189 10.0009C17.189 10.1243 17.1647 10.2465 17.1174 10.3604C17.0701 10.4744 17.0007 10.5779 16.9133 10.665L10.6633 16.915C10.5762 17.0024 10.4727 17.0717 10.3588 17.119C10.2448 17.1663 10.1226 17.1907 9.99925 17.1907C9.87586 17.1907 9.75368 17.1663 9.63973 17.119C9.52577 17.0717 9.42228 17.0024 9.33518 16.915L3.08518 10.665C2.99798 10.5778 2.9288 10.4742 2.88161 10.3603C2.83441 10.2463 2.81012 10.1242 2.81012 10.0009C2.81012 9.87757 2.83441 9.75545 2.88161 9.64151C2.9288 9.52757 2.99798 9.42404 3.08518 9.33683C3.17239 9.24963 3.27592 9.18045 3.38986 9.13325C3.5038 9.08606 3.62592 9.06177 3.74925 9.06177C3.87257 9.06177 3.99469 9.08606 4.10863 9.13325C4.22257 9.18045 4.3261 9.24963 4.41331 9.33683L10 14.922L15.5867 9.33449C15.674 9.24748 15.7775 9.17851 15.8914 9.13153C16.0053 9.08455 16.1273 9.06049 16.2505 9.0607C16.3737 9.06092 16.4957 9.08542 16.6094 9.1328C16.7231 9.18018 16.8264 9.24951 16.9133 9.33683ZM9.33518 10.665C9.42228 10.7524 9.52577 10.8217 9.63973 10.869C9.75368 10.9163 9.87586 10.9407 9.99925 10.9407C10.1226 10.9407 10.2448 10.9163 10.3588 10.869C10.4727 10.8217 10.5762 10.7524 10.6633 10.665L16.9133 4.41496C17.0005 4.32775 17.0697 4.22422 17.1169 4.11028C17.1641 3.99634 17.1884 3.87422 17.1884 3.75089C17.1884 3.62757 17.1641 3.50545 17.1169 3.39151C17.0697 3.27757 17.0005 3.17404 16.9133 3.08683C16.8261 2.99963 16.7226 2.93045 16.6086 2.88325C16.4947 2.83606 16.3726 2.81177 16.2492 2.81177C16.1259 2.81177 16.0038 2.83606 15.8899 2.88325C15.7759 2.93045 15.6724 2.99963 15.5852 3.08683L10 8.67199L4.41331 3.08683C4.23719 2.91071 3.99832 2.81177 3.74925 2.81177C3.50017 2.81177 3.2613 2.91071 3.08518 3.08683C2.90906 3.26295 2.81012 3.50182 2.81012 3.75089C2.81012 3.99997 2.90906 4.23884 3.08518 4.41496L9.33518 10.665Z" fill="#191F2E"/>
</svg>
