<svg width="20" height="20" viewBox="0 0 20 20" fill="none" xmlns="http://www.w3.org/2000/svg">
<path d="M16.9133 15.5867C17.0894 15.7628 17.1884 16.0017 17.1884 16.2508C17.1884 16.4999 17.0894 16.7387 16.9133 16.9149C16.7372 17.091 16.4983 17.1899 16.2492 17.1899C16.0002 17.1899 15.7613 17.091 15.5852 16.9149L10 11.3281L4.41331 16.9133C4.3261 17.0005 4.22257 17.0697 4.10863 17.1169C3.99469 17.1641 3.87257 17.1884 3.74925 17.1884C3.62592 17.1884 3.5038 17.1641 3.38986 17.1169C3.27592 17.0697 3.17239 17.0005 3.08518 16.9133C2.99798 16.8261 2.9288 16.7226 2.88161 16.6086C2.83441 16.4947 2.81012 16.3726 2.81012 16.2492C2.81012 16.1259 2.83441 16.0038 2.88161 15.8898C2.9288 15.7759 2.99798 15.6724 3.08518 15.5852L9.33518 9.33516C9.42228 9.24776 9.52577 9.17842 9.63973 9.1311C9.75368 9.08378 9.87586 9.05942 9.99925 9.05942C10.1226 9.05942 10.2448 9.08378 10.3588 9.1311C10.4727 9.17842 10.5762 9.24776 10.6633 9.33516L16.9133 15.5867ZM4.41331 10.6649L10 5.07813L15.5867 10.6656C15.7629 10.8418 16.0017 10.9407 16.2508 10.9407C16.4999 10.9407 16.7387 10.8418 16.9149 10.6656C17.091 10.4895 17.1899 10.2506 17.1899 10.0016C17.1899 9.7525 17.091 9.51363 16.9149 9.33751L10.6649 3.08751C10.5778 3.00011 10.4743 2.93076 10.3603 2.88344C10.2464 2.83612 10.1242 2.81177 10.0008 2.81177C9.87742 2.81177 9.75525 2.83612 9.64129 2.88344C9.52734 2.93076 9.42384 3.00011 9.33675 3.08751L3.08675 9.33751C2.91063 9.51363 2.81168 9.7525 2.81168 10.0016C2.81168 10.2506 2.91063 10.4895 3.08675 10.6656C3.26287 10.8418 3.50174 10.9407 3.75081 10.9407C3.99988 10.9407 4.23875 10.8418 4.41487 10.6656L4.41331 10.6649Z" fill="#191F2E"/>
</svg>
