<svg width="20" height="20" viewBox="0 0 20 20" fill="none" xmlns="http://www.w3.org/2000/svg">
<path d="M16.6922 15.8078C16.7797 15.8952 16.8393 16.0066 16.8635 16.1279C16.8876 16.2492 16.8752 16.375 16.8279 16.4892C16.7805 16.6035 16.7004 16.7012 16.5975 16.7698C16.4946 16.8385 16.3737 16.8751 16.25 16.875H3.75C3.62632 16.8751 3.50539 16.8385 3.40252 16.7698C3.29964 16.7012 3.21946 16.6035 3.17211 16.4892C3.12477 16.375 3.11239 16.2492 3.13655 16.1279C3.1607 16.0066 3.22031 15.8952 3.30782 15.8078L8.49141 10.625H3.75C3.62632 10.6251 3.50539 10.5885 3.40252 10.5198C3.29964 10.4512 3.21946 10.3535 3.17211 10.2392C3.12477 10.125 3.11239 9.99924 3.13655 9.87794C3.1607 9.75663 3.22031 9.64523 3.30782 9.55782L9.55782 3.30782C9.61586 3.24971 9.68479 3.20361 9.76067 3.17215C9.83654 3.1407 9.91787 3.12451 10 3.12451C10.0821 3.12451 10.1635 3.1407 10.2393 3.17215C10.3152 3.20361 10.3841 3.24971 10.4422 3.30782L16.6922 9.55782C16.7797 9.64523 16.8393 9.75663 16.8635 9.87794C16.8876 9.99924 16.8752 10.125 16.8279 10.2392C16.7805 10.3535 16.7004 10.4512 16.5975 10.5198C16.4946 10.5885 16.3737 10.6251 16.25 10.625H11.5086L16.6922 15.8078Z" fill="#191F2E"/>
</svg>
