<svg width="20" height="20" viewBox="0 0 20 20" fill="none" xmlns="http://www.w3.org/2000/svg">
<path d="M11.0672 10.4423L4.8172 16.6923C4.69992 16.8096 4.54086 16.8755 4.37501 16.8755C4.20916 16.8755 4.0501 16.8096 3.93282 16.6923C3.81555 16.575 3.74966 16.416 3.74966 16.2501C3.74966 16.0843 3.81555 15.9252 3.93282 15.8079L9.74142 10.0001L3.93282 4.19229C3.81555 4.07502 3.74966 3.91596 3.74966 3.7501C3.74966 3.58425 3.81555 3.42519 3.93282 3.30792C4.0501 3.19064 4.20916 3.12476 4.37501 3.12476C4.54086 3.12476 4.69992 3.19064 4.8172 3.30792L11.0672 9.55792C11.1253 9.61596 11.1714 9.68489 11.2029 9.76077C11.2343 9.83664 11.2505 9.91797 11.2505 10.0001C11.2505 10.0822 11.2343 10.1636 11.2029 10.2394C11.1714 10.3153 11.1253 10.3842 11.0672 10.4423ZM17.3172 9.55792L11.0672 3.30792C10.9499 3.19064 10.7909 3.12476 10.625 3.12476C10.4592 3.12476 10.3001 3.19064 10.1828 3.30792C10.0655 3.42519 9.99966 3.58425 9.99966 3.7501C9.99966 3.91596 10.0655 4.07502 10.1828 4.19229L15.9914 10.0001L10.1828 15.8079C10.0655 15.9252 9.99966 16.0843 9.99966 16.2501C9.99966 16.416 10.0655 16.575 10.1828 16.6923C10.3001 16.8096 10.4592 16.8755 10.625 16.8755C10.7909 16.8755 10.9499 16.8096 11.0672 16.6923L17.3172 10.4423C17.3753 10.3842 17.4214 10.3153 17.4529 10.2394C17.4843 10.1636 17.5005 10.0822 17.5005 10.0001C17.5005 9.91797 17.4843 9.83664 17.4529 9.76077C17.4214 9.68489 17.3753 9.61596 17.3172 9.55792Z" fill="#191F2E"/>
</svg>
