<svg width="20" height="20" viewBox="0 0 20 20" fill="none" xmlns="http://www.w3.org/2000/svg">
<path d="M16.0672 15.8079C16.1253 15.866 16.1713 15.9349 16.2027 16.0108C16.2342 16.0867 16.2504 16.168 16.2504 16.2501C16.2504 16.3322 16.2342 16.4135 16.2027 16.4894C16.1713 16.5653 16.1253 16.6342 16.0672 16.6923C16.0091 16.7504 15.9402 16.7964 15.8643 16.8278C15.7884 16.8593 15.7071 16.8755 15.625 16.8755C15.5429 16.8755 15.4616 16.8593 15.3857 16.8278C15.3098 16.7964 15.2409 16.7504 15.1828 16.6923L8.93282 10.4423C8.87471 10.3842 8.82861 10.3153 8.79715 10.2394C8.7657 10.1636 8.74951 10.0822 8.74951 10.0001C8.74951 9.91797 8.7657 9.83664 8.79715 9.76077C8.82861 9.68489 8.87471 9.61596 8.93282 9.55792L15.1828 3.30792C15.3001 3.19064 15.4592 3.12476 15.625 3.12476C15.7909 3.12476 15.9499 3.19064 16.0672 3.30792C16.1845 3.42519 16.2504 3.58425 16.2504 3.7501C16.2504 3.91596 16.1845 4.07502 16.0672 4.19229L10.2586 10.0001L16.0672 15.8079ZM4.0086 10.0001L9.81719 4.19229C9.93447 4.07502 10.0004 3.91596 10.0004 3.7501C10.0004 3.58425 9.93447 3.42519 9.81719 3.30792C9.69992 3.19064 9.54086 3.12476 9.375 3.12476C9.20915 3.12476 9.05009 3.19064 8.93282 3.30792L2.68282 9.55792C2.62471 9.61596 2.57861 9.68489 2.54715 9.76077C2.5157 9.83664 2.49951 9.91797 2.49951 10.0001C2.49951 10.0822 2.5157 10.1636 2.54715 10.2394C2.57861 10.3153 2.62471 10.3842 2.68282 10.4423L8.93282 16.6923C8.99088 16.7504 9.05982 16.7964 9.13569 16.8278C9.21156 16.8593 9.29288 16.8755 9.375 16.8755C9.45713 16.8755 9.53844 16.8593 9.61431 16.8278C9.69018 16.7964 9.75912 16.7504 9.81719 16.6923C9.87526 16.6342 9.92132 16.5653 9.95275 16.4894C9.98418 16.4135 10.0004 16.3322 10.0004 16.2501C10.0004 16.168 9.98418 16.0867 9.95275 16.0108C9.92132 15.9349 9.87526 15.866 9.81719 15.8079L4.0086 10.0001Z" fill="#191F2E"/>
</svg>
