<svg width="20" height="20" viewBox="0 0 20 20" fill="none" xmlns="http://www.w3.org/2000/svg">
<path d="M16.2883 15.5867C16.4644 15.7628 16.5634 16.0017 16.5634 16.2507C16.5634 16.4998 16.4644 16.7387 16.2883 16.9148C16.1122 17.0909 15.8733 17.1899 15.6242 17.1899C15.3752 17.1899 15.1363 17.0909 14.9602 16.9148L8.71016 10.6648C8.62276 10.5777 8.55342 10.4742 8.5061 10.3603C8.45878 10.2463 8.43442 10.1241 8.43442 10.0007C8.43442 9.87736 8.45878 9.75518 8.5061 9.64123C8.55342 9.52728 8.62276 9.42378 8.71016 9.33669L14.9602 3.08668C15.1363 2.91056 15.3752 2.81162 15.6242 2.81162C15.8733 2.81162 16.1122 2.91056 16.2883 3.08668C16.4644 3.26281 16.5634 3.50168 16.5634 3.75075C16.5634 3.99982 16.4644 4.23869 16.2883 4.41481L10.7031 9.99997L16.2883 15.5867ZM4.45313 9.99997L10.0406 4.41325C10.2168 4.23713 10.3157 3.99826 10.3157 3.74918C10.3157 3.50011 10.2168 3.26124 10.0406 3.08512C9.86451 2.909 9.62564 2.81006 9.37657 2.81006C9.1275 2.81006 8.88863 2.909 8.71251 3.08512L2.46251 9.33512C2.37511 9.42222 2.30576 9.52571 2.25844 9.63967C2.21112 9.75362 2.18677 9.8758 2.18677 9.99918C2.18677 10.1226 2.21112 10.2447 2.25844 10.3587C2.30576 10.4727 2.37511 10.5762 2.46251 10.6632L8.71251 16.9132C8.79971 17.0005 8.90324 17.0696 9.01718 17.1168C9.13112 17.164 9.25324 17.1883 9.37657 17.1883C9.4999 17.1883 9.62202 17.164 9.73596 17.1168C9.8499 17.0696 9.95343 17.0005 10.0406 16.9132C10.1278 16.826 10.197 16.7225 10.2442 16.6086C10.2914 16.4946 10.3157 16.3725 10.3157 16.2492C10.3157 16.1259 10.2914 16.0037 10.2442 15.8898C10.197 15.7759 10.1278 15.6723 10.0406 15.5851L4.45313 9.99997Z" fill="#191F2E"/>
</svg>
