<svg width="20" height="20" viewBox="0 0 20 20" fill="none" xmlns="http://www.w3.org/2000/svg">
<path d="M14.4133 10.6632L8.16331 16.9132C7.98719 17.0894 7.74832 17.1883 7.49925 17.1883C7.25017 17.1883 7.0113 17.0894 6.83518 16.9132C6.65906 16.7371 6.56012 16.4983 6.56012 16.2492C6.56012 16.0001 6.65906 15.7612 6.83518 15.5851L12.4219 9.99997L6.83675 4.41325C6.74954 4.32604 6.68036 4.22251 6.63317 4.10857C6.58597 3.99463 6.56168 3.87251 6.56168 3.74918C6.56168 3.62586 6.58597 3.50374 6.63317 3.3898C6.68036 3.27586 6.74954 3.17233 6.83675 3.08512C6.92395 2.99792 7.02748 2.92874 7.14142 2.88155C7.25536 2.83435 7.37748 2.81006 7.50081 2.81006C7.62414 2.81006 7.74626 2.83435 7.8602 2.88155C7.97414 2.92874 8.07767 2.99792 8.16487 3.08512L14.4149 9.33512C14.5022 9.42232 14.5714 9.5259 14.6186 9.63991C14.6658 9.75392 14.69 9.87612 14.6898 9.99951C14.6897 10.1229 14.6652 10.245 14.6177 10.3589C14.5703 10.4728 14.5008 10.5763 14.4133 10.6632Z" fill="#191F2E"/>
</svg>
