<svg width="20" height="20" viewBox="0 0 20 20" fill="none" xmlns="http://www.w3.org/2000/svg">
<path d="M15.9687 4.03125C14.7885 2.85197 13.285 2.04908 11.6485 1.7241C10.012 1.39912 8.31585 1.56663 6.77452 2.20546C5.23318 2.84428 3.91585 3.92574 2.98904 5.31313C2.06224 6.70051 1.56757 8.33153 1.56757 10C1.56757 11.6685 2.06224 13.2995 2.98904 14.6869C3.91585 16.0743 5.23318 17.1557 6.77452 17.7945C8.31585 18.4334 10.012 18.6009 11.6485 18.2759C13.285 17.9509 14.7885 17.148 15.9687 15.9688C17.5496 14.3846 18.4374 12.238 18.4374 10C18.4374 7.76201 17.5496 5.61542 15.9687 4.03125ZM14.6406 14.6422C13.7226 15.5595 12.5533 16.184 11.2804 16.4368C10.0076 16.6896 8.68834 16.5593 7.48949 16.0625C6.29065 15.5656 5.26603 14.7245 4.54516 13.6454C3.82428 12.5663 3.43953 11.2977 3.43953 10C3.43953 8.70228 3.82428 7.43369 4.54516 6.3546C5.26603 5.27552 6.29065 4.43438 7.48949 3.93753C8.68834 3.44068 10.0076 3.31043 11.2804 3.56323C12.5533 3.81603 13.7226 4.44054 14.6406 5.35782C15.8703 6.58968 16.5611 8.25908 16.5614 9.99968C16.5617 11.7403 15.8715 13.4099 14.6422 14.6422H14.6406ZM13.1641 6.21016C13.2515 6.29726 13.3208 6.40075 13.3681 6.51471C13.4154 6.62866 13.4398 6.75083 13.4398 6.87422C13.4398 6.99761 13.4154 7.11978 13.3681 7.23374C13.3208 7.34769 13.2515 7.45119 13.1641 7.53828L10.6641 10.0383C10.577 10.1257 10.4735 10.195 10.3595 10.2423C10.2456 10.2897 10.1234 10.314 9.99999 10.314C9.8766 10.314 9.75443 10.2897 9.64047 10.2423C9.52652 10.195 9.42303 10.1257 9.33593 10.0383L6.83593 7.53828C6.74872 7.45108 6.67955 7.34755 6.63235 7.23361C6.58516 7.11967 6.56087 6.99755 6.56087 6.87422C6.56087 6.75089 6.58516 6.62877 6.63235 6.51483C6.67955 6.40089 6.74872 6.29737 6.83593 6.21016C6.92314 6.12295 7.02666 6.05378 7.1406 6.00658C7.25454 5.95939 7.37666 5.9351 7.49999 5.9351C7.62332 5.9351 7.74544 5.95939 7.85938 6.00658C7.97332 6.05378 8.07685 6.12295 8.16405 6.21016L9.99999 8.04688L11.8383 6.2086C12.0143 6.033 12.2529 5.93452 12.5015 5.93481C12.7501 5.93511 12.9884 6.03415 13.1641 6.21016ZM13.1641 10.5852C13.2515 10.6723 13.3208 10.7758 13.3681 10.8897C13.4154 11.0037 13.4398 11.1258 13.4398 11.2492C13.4398 11.3726 13.4154 11.4948 13.3681 11.6087C13.3208 11.7227 13.2515 11.8262 13.1641 11.9133L10.6641 14.4133C10.577 14.5007 10.4735 14.57 10.3595 14.6173C10.2456 14.6647 10.1234 14.689 9.99999 14.689C9.8766 14.689 9.75443 14.6647 9.64047 14.6173C9.52652 14.57 9.42303 14.5007 9.33593 14.4133L6.83593 11.9133C6.74872 11.8261 6.67955 11.7226 6.63235 11.6086C6.58516 11.4947 6.56087 11.3726 6.56087 11.2492C6.56087 11.1259 6.58516 11.0038 6.63235 10.8898C6.67955 10.7759 6.74872 10.6724 6.83593 10.5852C6.92314 10.498 7.02666 10.4288 7.1406 10.3816C7.25454 10.3344 7.37666 10.3101 7.49999 10.3101C7.62332 10.3101 7.74544 10.3344 7.85938 10.3816C7.97332 10.4288 8.07685 10.498 8.16405 10.5852L9.99999 12.4219L11.8383 10.5844C12.0145 10.409 12.2532 10.3108 12.5018 10.3114C12.7504 10.312 12.9887 10.4113 13.1641 10.5875V10.5852Z" fill="#191F2E"/>
</svg>
