<svg width="20" height="20" viewBox="0 0 20 20" fill="none" xmlns="http://www.w3.org/2000/svg">
<path d="M15.9687 4.03125C14.7885 2.85197 13.285 2.04908 11.6485 1.7241C10.012 1.39912 8.31585 1.56663 6.77452 2.20546C5.23318 2.84428 3.91585 3.92574 2.98904 5.31313C2.06224 6.70051 1.56757 8.33153 1.56757 10C1.56757 11.6685 2.06224 13.2995 2.98904 14.6869C3.91585 16.0743 5.23318 17.1557 6.77452 17.7945C8.31585 18.4334 10.012 18.6009 11.6485 18.2759C13.285 17.9509 14.7885 17.148 15.9687 15.9688C17.5496 14.3846 18.4374 12.238 18.4374 10C18.4374 7.76201 17.5496 5.61542 15.9687 4.03125ZM14.6406 14.6422C13.7226 15.5595 12.5533 16.184 11.2804 16.4368C10.0076 16.6896 8.68834 16.5593 7.48949 16.0625C6.29065 15.5656 5.26603 14.7245 4.54516 13.6454C3.82428 12.5663 3.43953 11.2977 3.43953 10C3.43953 8.70228 3.82428 7.43369 4.54516 6.3546C5.26603 5.27552 6.29065 4.43438 7.48949 3.93753C8.68834 3.44068 10.0076 3.31043 11.2804 3.56323C12.5533 3.81603 13.7226 4.44054 14.6406 5.35782C15.8703 6.58968 16.5611 8.25908 16.5614 9.99968C16.5617 11.7403 15.8715 13.4099 14.6422 14.6422H14.6406ZM13.1641 12.4633C13.3402 12.6394 13.4391 12.8783 13.4391 13.1273C13.4391 13.3764 13.3402 13.6153 13.1641 13.7914C12.9879 13.9675 12.7491 14.0665 12.5 14.0665C12.2509 14.0665 12.0121 13.9675 11.8359 13.7914L9.99999 11.9531L8.16171 13.7914C7.98559 13.9675 7.74672 14.0665 7.49765 14.0665C7.24858 14.0665 7.00971 13.9675 6.83359 13.7914C6.65747 13.6153 6.55852 13.3764 6.55852 13.1273C6.55852 12.8783 6.65747 12.6394 6.83359 12.4633L9.33359 9.96328C9.42068 9.87589 9.52418 9.80654 9.63813 9.75922C9.75209 9.7119 9.87426 9.68755 9.99765 9.68755C10.121 9.68755 10.2432 9.7119 10.3572 9.75922C10.4711 9.80654 10.5746 9.87589 10.6617 9.96328L13.1641 12.4633ZM13.1641 8.08828C13.2513 8.17549 13.3204 8.27902 13.3676 8.39296C13.4148 8.5069 13.4391 8.62902 13.4391 8.75235C13.4391 8.87568 13.4148 8.9978 13.3676 9.11174C13.3204 9.22568 13.2513 9.3292 13.1641 9.41641C13.0768 9.50362 12.9733 9.57279 12.8594 9.61999C12.7454 9.66718 12.6233 9.69147 12.5 9.69147C12.3767 9.69147 12.2545 9.66718 12.1406 9.61999C12.0267 9.57279 11.9231 9.50362 11.8359 9.41641L9.99999 7.57813L8.16171 9.41563C8.0745 9.50283 7.97098 9.57201 7.85704 9.61921C7.7431 9.6664 7.62098 9.69069 7.49765 9.69069C7.37432 9.69069 7.2522 9.6664 7.13826 9.61921C7.02432 9.57201 6.92079 9.50283 6.83359 9.41563C6.74638 9.32842 6.6772 9.22489 6.63001 9.11095C6.58281 8.99701 6.55852 8.87489 6.55852 8.75157C6.55852 8.62824 6.58281 8.50612 6.63001 8.39218C6.6772 8.27824 6.74638 8.17471 6.83359 8.0875L9.33359 5.5875C9.42068 5.5001 9.52418 5.43076 9.63813 5.38344C9.75209 5.33612 9.87426 5.31176 9.99765 5.31176C10.121 5.31176 10.2432 5.33612 10.3572 5.38344C10.4711 5.43076 10.5746 5.5001 10.6617 5.5875L13.1641 8.08828Z" fill="#191F2E"/>
</svg>
