<svg width="20" height="20" viewBox="0 0 20 20" fill="none" xmlns="http://www.w3.org/2000/svg">
<path d="M15.7484 4.25235C14.6119 3.11673 13.1641 2.34358 11.5882 2.03062C10.0123 1.71767 8.37899 1.87897 6.89474 2.49414C5.41048 3.1093 4.14193 4.1507 3.24945 5.48671C2.35697 6.82271 1.88062 8.39332 1.88062 10C1.88062 11.6067 2.35697 13.1773 3.24945 14.5133C4.14193 15.8493 5.41048 16.8907 6.89474 17.5059C8.37899 18.121 10.0123 18.2823 11.5882 17.9694C13.1641 17.6564 14.6119 16.8833 15.7484 15.7477C17.2704 14.222 18.1251 12.155 18.1251 10C18.1251 7.84501 17.2704 5.778 15.7484 4.25235ZM12.9438 13.5688C12.8857 13.6269 12.8168 13.673 12.7409 13.7044C12.665 13.7359 12.5837 13.7521 12.5016 13.7521C12.4194 13.7521 12.3381 13.7359 12.2622 13.7044C12.1864 13.673 12.1174 13.6269 12.0594 13.5688L10 11.5094L7.94141 13.5688C7.82414 13.686 7.66508 13.7519 7.49922 13.7519C7.33337 13.7519 7.17431 13.686 7.05704 13.5688C6.93976 13.4515 6.87388 13.2924 6.87388 13.1266C6.87388 12.9607 6.93976 12.8017 7.05704 12.6844L9.55704 10.1844C9.61508 10.1263 9.68401 10.0802 9.75989 10.0487C9.83576 10.0173 9.91709 10.0011 9.99922 10.0011C10.0814 10.0011 10.1627 10.0173 10.2386 10.0487C10.3144 10.0802 10.3834 10.1263 10.4414 10.1844L12.9414 12.6844C12.9997 12.7423 13.046 12.8111 13.0776 12.8869C13.1093 12.9627 13.1257 13.0439 13.1259 13.1261C13.1261 13.2082 13.1101 13.2896 13.0789 13.3655C13.0476 13.4415 13.0017 13.5106 12.9438 13.5688ZM12.9438 9.19375C12.8857 9.25186 12.8168 9.29796 12.7409 9.32942C12.665 9.36087 12.5837 9.37706 12.5016 9.37706C12.4194 9.37706 12.3381 9.36087 12.2622 9.32942C12.1864 9.29796 12.1174 9.25186 12.0594 9.19375L10 7.13203L7.94141 9.19141C7.82414 9.30869 7.66508 9.37457 7.49922 9.37457C7.33337 9.37457 7.17431 9.30869 7.05704 9.19141C6.93976 9.07413 6.87388 8.91507 6.87388 8.74922C6.87388 8.58337 6.93976 8.42431 7.05704 8.30703L9.55704 5.80703C9.61508 5.74892 9.68401 5.70283 9.75989 5.67137C9.83576 5.63992 9.91709 5.62373 9.99922 5.62373C10.0814 5.62373 10.1627 5.63992 10.2386 5.67137C10.3144 5.70283 10.3834 5.74892 10.4414 5.80703L12.9414 8.30703C12.9997 8.36493 13.046 8.43373 13.0776 8.50953C13.1093 8.58532 13.1257 8.6666 13.1259 8.74874C13.1261 8.83087 13.1101 8.91224 13.0789 8.9882C13.0476 9.06416 13.0017 9.13321 12.9438 9.19141V9.19375Z" fill="#191F2E"/>
</svg>
