<svg width="20" height="20" viewBox="0 0 20 20" fill="none" xmlns="http://www.w3.org/2000/svg">
<path d="M15.7453 4.25466C14.2216 2.73091 12.1549 1.87488 10 1.87488C7.8451 1.87488 5.77845 2.73091 4.25469 4.25466C2.73094 5.77842 1.87491 7.84507 1.87491 9.99998C1.87491 12.1549 2.73094 14.2215 4.25469 15.7453C5.77845 17.269 7.8451 18.1251 10 18.1251C12.1549 18.1251 14.2216 17.269 15.7453 15.7453C17.2691 14.2215 18.1251 12.1549 18.1251 9.99998C18.1251 7.84507 17.2691 5.77842 15.7453 4.25466ZM14.8617 14.8617C13.9002 15.8231 12.6752 16.4778 11.3416 16.743C10.008 17.0081 8.62573 16.8719 7.36954 16.3516C6.11336 15.8312 5.03969 14.95 4.2843 13.8194C3.52891 12.6889 3.12573 11.3597 3.12573 9.99998C3.12573 8.64027 3.52891 7.3111 4.2843 6.18054C5.03969 5.04997 6.11336 4.16878 7.36954 3.6484C8.62573 3.12802 10.008 2.99181 11.3416 3.257C12.6752 3.52219 13.9002 4.17687 14.8617 5.13826C16.1492 6.42871 16.8722 8.17713 16.8722 9.99998C16.8722 11.8228 16.1492 13.5712 14.8617 14.8617ZM13.5672 7.94216L11.5086 9.99998L13.5672 12.0578C13.6253 12.1159 13.6713 12.1848 13.7028 12.2607C13.7342 12.3365 13.7504 12.4179 13.7504 12.5C13.7504 12.5821 13.7342 12.6634 13.7028 12.7393C13.6713 12.8152 13.6253 12.8841 13.5672 12.9422C13.5091 13.0002 13.4402 13.0463 13.3643 13.0777C13.2884 13.1091 13.2071 13.1253 13.125 13.1253C13.0429 13.1253 12.9616 13.1091 12.8857 13.0777C12.8098 13.0463 12.7409 13.0002 12.6828 12.9422L10.1828 10.4422C10.1247 10.3841 10.0786 10.3152 10.0472 10.2393C10.0157 10.1634 9.99952 10.0821 9.99952 9.99998C9.99952 9.91784 10.0157 9.83651 10.0472 9.76064C10.0786 9.68477 10.1247 9.61583 10.1828 9.55779L12.6828 7.05779C12.7409 6.99972 12.8098 6.95366 12.8857 6.92223C12.9616 6.8908 13.0429 6.87463 13.125 6.87463C13.2071 6.87463 13.2884 6.8908 13.3643 6.92223C13.4402 6.95366 13.5091 6.99972 13.5672 7.05779C13.6253 7.11586 13.6713 7.1848 13.7028 7.26067C13.7342 7.33654 13.7504 7.41786 13.7504 7.49998C13.7504 7.5821 13.7342 7.66342 13.7028 7.73929C13.6713 7.81516 13.6253 7.8841 13.5672 7.94216ZM9.19219 7.94216L7.1336 9.99998L9.19219 12.0578C9.25026 12.1159 9.29633 12.1848 9.32775 12.2607C9.35918 12.3365 9.37535 12.4179 9.37535 12.5C9.37535 12.5821 9.35918 12.6634 9.32775 12.7393C9.29633 12.8152 9.25026 12.8841 9.19219 12.9422C9.13413 13.0002 9.06519 13.0463 8.98932 13.0777C8.91345 13.1091 8.83213 13.1253 8.75001 13.1253C8.66789 13.1253 8.58657 13.1091 8.5107 13.0777C8.43483 13.0463 8.36589 13.0002 8.30782 12.9422L5.80782 10.4422C5.74971 10.3841 5.70361 10.3152 5.67216 10.2393C5.6407 10.1634 5.62452 10.0821 5.62452 9.99998C5.62452 9.91784 5.6407 9.83651 5.67216 9.76064C5.70361 9.68477 5.74971 9.61583 5.80782 9.55779L8.30782 7.05779C8.4251 6.94051 8.58416 6.87463 8.75001 6.87463C8.91586 6.87463 9.07492 6.94051 9.19219 7.05779C9.30947 7.17506 9.37535 7.33412 9.37535 7.49998C9.37535 7.66583 9.30947 7.82489 9.19219 7.94216Z" fill="#191F2E"/>
</svg>
