<svg width="20" height="20" viewBox="0 0 20 20" fill="none" xmlns="http://www.w3.org/2000/svg">
<path d="M18.125 5H15.8836L17.9422 2.94219C18.0003 2.88412 18.0463 2.81518 18.0777 2.73931C18.1092 2.66344 18.1253 2.58212 18.1253 2.5C18.1253 2.41788 18.1092 2.33656 18.0777 2.26069C18.0463 2.18482 18.0003 2.11588 17.9422 2.05781C17.8841 1.99974 17.8152 1.95368 17.7393 1.92225C17.6634 1.89083 17.5821 1.87465 17.5 1.87465C17.4179 1.87465 17.3366 1.89083 17.2607 1.92225C17.1848 1.95368 17.1159 1.99974 17.0578 2.05781L15 4.11641V1.875C15 1.70924 14.9342 1.55027 14.8169 1.43306C14.6997 1.31585 14.5408 1.25 14.375 1.25C14.2092 1.25 14.0503 1.31585 13.9331 1.43306C13.8158 1.55027 13.75 1.70924 13.75 1.875V4.41953C12.7977 3.86975 11.6906 3.64926 10.6003 3.79219C9.51 3.93511 8.49721 4.43349 7.71875 5.21016C4.58594 8.2875 2.23047 15.607 2.00078 16.3391C1.89249 16.5715 1.85831 16.8317 1.90289 17.0842C1.94747 17.3368 2.06864 17.5695 2.24998 17.7508C2.43131 17.9321 2.66403 18.0533 2.91657 18.0979C3.16912 18.1425 3.42926 18.1083 3.66172 18C4.39375 17.7703 11.7227 15.4117 14.7922 12.2805C15.5683 11.5018 16.0661 10.489 16.2086 9.39886C16.3511 8.30873 16.1303 7.20202 15.5805 6.25H18.125C18.2908 6.25 18.4497 6.18415 18.5669 6.06694C18.6842 5.94973 18.75 5.79076 18.75 5.625C18.75 5.45924 18.6842 5.30027 18.5669 5.18306C18.4497 5.06585 18.2908 5 18.125 5ZM13.8969 11.4062C13.1984 12.1187 12.2367 12.7969 11.1742 13.4164L9.19141 11.4328C9.13334 11.3747 9.0644 11.3287 8.98853 11.2973C8.91266 11.2658 8.83134 11.2497 8.74922 11.2497C8.6671 11.2497 8.58578 11.2658 8.50991 11.2973C8.43404 11.3287 8.3651 11.3747 8.30703 11.4328C8.24896 11.4909 8.2029 11.5598 8.17147 11.6357C8.14005 11.7116 8.12387 11.7929 8.12387 11.875C8.12387 11.9571 8.14005 12.0384 8.17147 12.1143C8.2029 12.1902 8.24896 12.2591 8.30703 12.3172L10.0328 14.043C6.83984 15.6984 3.28906 16.8102 3.23594 16.8266C3.19747 16.839 3.16031 16.8553 3.125 16.875C3.14388 16.8399 3.15931 16.803 3.17109 16.7648C3.19375 16.6922 5.35859 9.76641 8.17109 6.55625L10.8094 9.19453C10.9267 9.31181 11.0857 9.37769 11.2516 9.37769C11.4174 9.37769 11.5765 9.31181 11.6938 9.19453C11.811 9.07726 11.8769 8.9182 11.8769 8.75234C11.8769 8.58649 11.811 8.42743 11.6938 8.31016L9.07656 5.69375C9.84335 5.14818 10.7872 4.91086 11.7209 5.02889C12.6545 5.14692 13.5097 5.61167 14.1166 6.3309C14.7235 7.05012 15.0377 7.97125 14.9971 8.91144C14.9564 9.85163 14.5636 10.7422 13.8969 11.4062Z" fill="#191F2E"/>
</svg>
