<svg width="20" height="20" viewBox="0 0 20 20" fill="none" xmlns="http://www.w3.org/2000/svg">
<path d="M18.125 6.24996H15.5813C16.1315 7.20337 16.3517 8.31172 16.2078 9.40306C16.0639 10.4944 15.5638 11.5078 14.7852 12.2859C14.1195 12.9648 13.2531 13.6078 12.2969 14.2007C12.237 14.2372 12.1667 14.2524 12.0971 14.2441C12.0275 14.2357 11.9628 14.2042 11.9133 14.1546L9.19141 11.4328C9.13221 11.3735 9.0617 11.3268 8.98409 11.2954C8.90648 11.2639 8.82334 11.2484 8.7396 11.2497C8.65587 11.251 8.57326 11.2692 8.49667 11.303C8.42008 11.3369 8.35108 11.3858 8.29376 11.4468C8.18346 11.5706 8.12522 11.7321 8.13119 11.8978C8.13715 12.0635 8.20687 12.2204 8.32579 12.3359L10.6602 14.6703C10.695 14.7051 10.7212 14.7476 10.7365 14.7945C10.7518 14.8413 10.7558 14.8911 10.7481 14.9398C10.7405 14.9884 10.7215 15.0346 10.6926 15.0745C10.6638 15.1145 10.6259 15.147 10.582 15.1695C7.47969 16.7804 4.14063 17.8546 3.65469 18.0062C3.42223 18.1145 3.16209 18.1487 2.90955 18.1041C2.657 18.0595 2.42428 17.9384 2.24295 17.757C2.06161 17.5757 1.94044 17.343 1.89586 17.0904C1.85128 16.8379 1.88546 16.5777 1.99376 16.3453C2.20704 15.6648 4.25938 9.29293 7.06094 5.9273C7.08878 5.894 7.12326 5.86687 7.16217 5.84763C7.20108 5.82838 7.24357 5.81746 7.28693 5.81555C7.3303 5.81364 7.37359 5.82078 7.41404 5.83653C7.45449 5.85227 7.49122 5.87627 7.52188 5.90699L10.807 9.19293C10.8678 9.25366 10.9404 9.3012 11.0204 9.3326C11.1004 9.364 11.1859 9.37858 11.2718 9.37543C11.3576 9.37228 11.4419 9.35146 11.5193 9.31428C11.5968 9.2771 11.6657 9.22435 11.7219 9.15934C11.8246 9.03539 11.8768 8.8773 11.8681 8.71657C11.8594 8.55585 11.7905 8.4043 11.675 8.29215L8.44375 5.0609C8.41081 5.02809 8.38559 4.98834 8.36996 4.94455C8.35432 4.90076 8.34865 4.85403 8.35337 4.80777C8.35809 4.76151 8.37307 4.71689 8.39722 4.67715C8.42137 4.63742 8.45408 4.60357 8.49297 4.57809C9.26813 4.06641 10.1705 3.78075 11.0989 3.75316C12.0273 3.72556 12.945 3.9571 13.7492 4.42184V1.87496C13.749 1.78921 13.7665 1.70434 13.8005 1.62562C13.8345 1.54691 13.8844 1.47603 13.9469 1.41741C14.0095 1.35878 14.0835 1.31367 14.1643 1.28486C14.245 1.25605 14.3309 1.24417 14.4164 1.24996C14.5775 1.26397 14.7272 1.3385 14.8355 1.45854C14.9438 1.57857 15.0026 1.73519 15 1.89684V4.11637L17.0578 2.05777C17.1159 1.9997 17.1848 1.95364 17.2607 1.92221C17.3366 1.89079 17.4179 1.87461 17.5 1.87461C17.5821 1.87461 17.6634 1.89079 17.7393 1.92221C17.8152 1.95364 17.8841 1.9997 17.9422 2.05777C18.0003 2.11584 18.0463 2.18478 18.0777 2.26065C18.1092 2.33652 18.1254 2.41784 18.1254 2.49996C18.1254 2.58208 18.1092 2.6634 18.0777 2.73927C18.0463 2.81514 18.0003 2.88408 17.9422 2.94215L15.8836 4.99996H18.1031C18.2648 4.99738 18.4214 5.05615 18.5414 5.16444C18.6615 5.27274 18.736 5.4225 18.75 5.58355C18.7557 5.66905 18.7437 5.75479 18.7149 5.83547C18.686 5.91614 18.6409 5.99002 18.5823 6.05251C18.5236 6.11501 18.4528 6.16479 18.3741 6.19875C18.2955 6.23272 18.2107 6.25015 18.125 6.24996Z" fill="#191F2E"/>
</svg>
