<svg width="20" height="20" viewBox="0 0 20 20" fill="none" xmlns="http://www.w3.org/2000/svg">
<path d="M17.5 3.75H2.5C2.16848 3.75 1.85054 3.8817 1.61612 4.11612C1.3817 4.35054 1.25 4.66848 1.25 5V15C1.25 15.3315 1.3817 15.6495 1.61612 15.8839C1.85054 16.1183 2.16848 16.25 2.5 16.25H17.5C17.8315 16.25 18.1495 16.1183 18.3839 15.8839C18.6183 15.6495 18.75 15.3315 18.75 15V5C18.75 4.66848 18.6183 4.35054 18.3839 4.11612C18.1495 3.8817 17.8315 3.75 17.5 3.75ZM6.25 15L7.1875 13.75H12.8125L13.75 15H6.25ZM17.5 15H15.3125L13.8125 13C13.6958 12.8451 13.5447 12.7193 13.3712 12.6325C13.1977 12.5458 13.0065 12.5004 12.8125 12.5H7.1875C6.99352 12.5004 6.80227 12.5458 6.62877 12.6325C6.45527 12.7193 6.30423 12.8451 6.1875 13L4.6875 15H2.5V5H17.5V15ZM13.75 6.25H6.25C5.58696 6.25 4.95107 6.51339 4.48223 6.98223C4.01339 7.45107 3.75 8.08696 3.75 8.75C3.75 9.41304 4.01339 10.0489 4.48223 10.5178C4.95107 10.9866 5.58696 11.25 6.25 11.25H13.75C14.413 11.25 15.0489 10.9866 15.5178 10.5178C15.9866 10.0489 16.25 9.41304 16.25 8.75C16.25 8.08696 15.9866 7.45107 15.5178 6.98223C15.0489 6.51339 14.413 6.25 13.75 6.25ZM11.5859 7.5C11.3659 7.87984 11.25 8.31103 11.25 8.75C11.25 9.18897 11.3659 9.62016 11.5859 10H8.41406C8.6341 9.62016 8.74997 9.18897 8.74997 8.75C8.74997 8.31103 8.6341 7.87984 8.41406 7.5H11.5859ZM5 8.75C5 8.50277 5.07331 8.2611 5.21066 8.05554C5.34801 7.84998 5.54324 7.68976 5.77165 7.59515C6.00005 7.50054 6.25139 7.47579 6.49386 7.52402C6.73634 7.57225 6.95907 7.6913 7.13388 7.86612C7.3087 8.04093 7.42775 8.26366 7.47598 8.50614C7.52421 8.74861 7.49946 8.99995 7.40485 9.22835C7.31024 9.45676 7.15002 9.65199 6.94446 9.78934C6.7389 9.92669 6.49723 10 6.25 10C5.91848 10 5.60054 9.8683 5.36612 9.63388C5.1317 9.39946 5 9.08152 5 8.75ZM13.75 10C13.5028 10 13.2611 9.92669 13.0555 9.78934C12.85 9.65199 12.6898 9.45676 12.5951 9.22835C12.5005 8.99995 12.4758 8.74861 12.524 8.50614C12.5722 8.26366 12.6913 8.04093 12.8661 7.86612C13.0409 7.6913 13.2637 7.57225 13.5061 7.52402C13.7486 7.47579 13.9999 7.50054 14.2284 7.59515C14.4568 7.68976 14.652 7.84998 14.7893 8.05554C14.9267 8.2611 15 8.50277 15 8.75C15 9.08152 14.8683 9.39946 14.6339 9.63388C14.3995 9.8683 14.0815 10 13.75 10Z" fill="#191F2E"/>
</svg>
