<svg width="20" height="20" viewBox="0 0 20 20" fill="none" xmlns="http://www.w3.org/2000/svg">
<path d="M6.875 8.75C6.875 8.99723 6.80169 9.2389 6.66434 9.44446C6.52699 9.65002 6.33176 9.81024 6.10335 9.90485C5.87495 9.99946 5.62361 10.0242 5.38114 9.97598C5.13866 9.92775 4.91593 9.8087 4.74112 9.63388C4.5663 9.45907 4.44725 9.23634 4.39902 8.99386C4.35079 8.75139 4.37554 8.50005 4.47015 8.27165C4.56476 8.04324 4.72498 7.84801 4.93054 7.71066C5.1361 7.57331 5.37777 7.5 5.625 7.5C5.95652 7.5 6.27446 7.6317 6.50888 7.86612C6.7433 8.10054 6.875 8.41848 6.875 8.75ZM18.75 5V15C18.75 15.3315 18.6183 15.6495 18.3839 15.8839C18.1495 16.1183 17.8315 16.25 17.5 16.25H2.5C2.16848 16.25 1.85054 16.1183 1.61612 15.8839C1.3817 15.6495 1.25 15.3315 1.25 15V5C1.25 4.66848 1.3817 4.35054 1.61612 4.11612C1.85054 3.8817 2.16848 3.75 2.5 3.75H17.5C17.8315 3.75 18.1495 3.8817 18.3839 4.11612C18.6183 4.35054 18.75 4.66848 18.75 5ZM14.5312 15L13.3125 13.375C13.2543 13.2974 13.1788 13.2344 13.092 13.191C13.0052 13.1476 12.9095 13.125 12.8125 13.125H7.1875C7.09047 13.125 6.99478 13.1476 6.90799 13.191C6.82121 13.2344 6.74572 13.2974 6.6875 13.375L5.46875 15H14.5312ZM16.875 8.75C16.875 8.08696 16.6116 7.45107 16.1428 6.98223C15.6739 6.51339 15.038 6.25 14.375 6.25H5.625C4.96196 6.25 4.32607 6.51339 3.85723 6.98223C3.38839 7.45107 3.125 8.08696 3.125 8.75C3.125 9.41304 3.38839 10.0489 3.85723 10.5178C4.32607 10.9866 4.96196 11.25 5.625 11.25H14.375C15.038 11.25 15.6739 10.9866 16.1428 10.5178C16.6116 10.0489 16.875 9.41304 16.875 8.75ZM7.78906 7.5C8.0091 7.87984 8.12497 8.31103 8.12497 8.75C8.12497 9.18897 8.0091 9.62016 7.78906 10H12.2109C11.9909 9.62016 11.875 9.18897 11.875 8.75C11.875 8.31103 11.9909 7.87984 12.2109 7.5H7.78906ZM14.375 7.5C14.1278 7.5 13.8861 7.57331 13.6805 7.71066C13.475 7.84801 13.3148 8.04324 13.2201 8.27165C13.1255 8.50005 13.1008 8.75139 13.149 8.99386C13.1972 9.23634 13.3163 9.45907 13.4911 9.63388C13.6659 9.8087 13.8887 9.92775 14.1311 9.97598C14.3736 10.0242 14.6249 9.99946 14.8534 9.90485C15.0818 9.81024 15.277 9.65002 15.4143 9.44446C15.5517 9.2389 15.625 8.99723 15.625 8.75C15.625 8.41848 15.4933 8.10054 15.2589 7.86612C15.0245 7.6317 14.7065 7.5 14.375 7.5Z" fill="#191F2E"/>
</svg>
