<svg width="20" height="20" viewBox="0 0 20 20" fill="none" xmlns="http://www.w3.org/2000/svg">
<path d="M15.625 1.875H15C14.6685 1.875 14.3505 2.0067 14.1161 2.24112C13.8817 2.47554 13.75 2.79348 13.75 3.125V4.375H11.5625V3.125C11.5625 2.79348 11.4308 2.47554 11.1964 2.24112C10.962 2.0067 10.644 1.875 10.3125 1.875H9.68751C9.35599 1.875 9.03804 2.0067 8.80362 2.24112C8.5692 2.47554 8.43751 2.79348 8.43751 3.125V4.375H6.25001V3.125C6.25001 2.79348 6.11831 2.47554 5.88389 2.24112C5.64947 2.0067 5.33153 1.875 5.00001 1.875H4.37501C4.04349 1.875 3.72554 2.0067 3.49112 2.24112C3.2567 2.47554 3.12501 2.79348 3.12501 3.125V6.61641C3.12448 6.78062 3.1566 6.9433 3.21951 7.09499C3.28241 7.24668 3.37483 7.38435 3.49141 7.5L4.37501 8.38359V16.875C4.37501 17.2065 4.5067 17.5245 4.74112 17.7589C4.97554 17.9933 5.29349 18.125 5.62501 18.125H14.375C14.7065 18.125 15.0245 17.9933 15.2589 17.7589C15.4933 17.5245 15.625 17.2065 15.625 16.875V8.38359L16.5086 7.5C16.6252 7.38435 16.7176 7.24668 16.7805 7.09499C16.8434 6.9433 16.8755 6.78062 16.875 6.61641V3.125C16.875 2.79348 16.7433 2.47554 16.5089 2.24112C16.2745 2.0067 15.9565 1.875 15.625 1.875ZM11.875 16.875H8.12501V11.875C8.12501 11.3777 8.32255 10.9008 8.67418 10.5492C9.02581 10.1975 9.50273 10 10 10C10.4973 10 10.9742 10.1975 11.3258 10.5492C11.6775 10.9008 11.875 11.3777 11.875 11.875V16.875Z" fill="#191F2E"/>
</svg>
