<svg width="20" height="20" viewBox="0 0 20 20" fill="none" xmlns="http://www.w3.org/2000/svg">
<path d="M15.625 1.5625H4.37501C3.9606 1.5625 3.56318 1.72712 3.27015 2.02015C2.97713 2.31317 2.81251 2.7106 2.81251 3.125V6.61641C2.81195 6.82167 2.85213 7.025 2.93071 7.21463C3.0093 7.40425 3.12473 7.5764 3.27032 7.72109L4.06251 8.51562V16.875C4.06251 17.2894 4.22713 17.6868 4.52015 17.9799C4.81318 18.2729 5.2106 18.4375 5.62501 18.4375H14.375C14.7894 18.4375 15.1868 18.2729 15.4799 17.9799C15.7729 17.6868 15.9375 17.2894 15.9375 16.875V8.51562L16.7297 7.72344C16.8756 7.57846 16.9912 7.40594 17.0697 7.21589C17.1483 7.02584 17.1884 6.82206 17.1875 6.61641V3.125C17.1875 2.7106 17.0229 2.31317 16.7299 2.02015C16.4368 1.72712 16.0394 1.5625 15.625 1.5625ZM10.9375 16.5625H9.06251V11.875C9.06251 11.6264 9.16128 11.3879 9.33709 11.2121C9.51291 11.0363 9.75137 10.9375 10 10.9375C10.2486 10.9375 10.4871 11.0363 10.6629 11.2121C10.8387 11.3879 10.9375 11.6264 10.9375 11.875V16.5625ZM15.3125 6.48438L14.5203 7.27891C14.3747 7.4236 14.2593 7.59575 14.1807 7.78537C14.1021 7.975 14.0619 8.17833 14.0625 8.38359V16.5625H12.8125V11.875C12.8125 11.1291 12.5162 10.4137 11.9887 9.88626C11.4613 9.35882 10.7459 9.0625 10 9.0625C9.25408 9.0625 8.53871 9.35882 8.01127 9.88626C7.48382 10.4137 7.18751 11.1291 7.18751 11.875V16.5625H5.93751V8.38359C5.93806 8.17833 5.89788 7.975 5.8193 7.78537C5.74071 7.59575 5.62528 7.4236 5.47969 7.27891L4.68751 6.48438V3.4375H6.87501V5.3125C6.87501 5.56114 6.97378 5.7996 7.14959 5.97541C7.32541 6.15123 7.56387 6.25 7.81251 6.25C8.06115 6.25 8.2996 6.15123 8.47542 5.97541C8.65123 5.7996 8.75001 5.56114 8.75001 5.3125V3.4375H11.25V5.3125C11.25 5.56114 11.3488 5.7996 11.5246 5.97541C11.7004 6.15123 11.9389 6.25 12.1875 6.25C12.4361 6.25 12.6746 6.15123 12.8504 5.97541C13.0262 5.7996 13.125 5.56114 13.125 5.3125V3.4375H15.3125V6.48438Z" fill="#191F2E"/>
</svg>
