<svg width="20" height="20" viewBox="0 0 20 20" fill="none" xmlns="http://www.w3.org/2000/svg">
<path d="M15.625 1.875H14.375C14.0435 1.875 13.7255 2.0067 13.4911 2.24112C13.2567 2.47554 13.125 2.79348 13.125 3.125V4.375H11.875V3.125C11.875 2.79348 11.7433 2.47554 11.5089 2.24112C11.2745 2.0067 10.9565 1.875 10.625 1.875H9.37501C9.04349 1.875 8.72554 2.0067 8.49112 2.24112C8.2567 2.47554 8.12501 2.79348 8.12501 3.125V4.375H6.87501V3.125C6.87501 2.79348 6.74331 2.47554 6.50889 2.24112C6.27447 2.0067 5.95653 1.875 5.62501 1.875H4.37501C4.04349 1.875 3.72554 2.0067 3.49112 2.24112C3.2567 2.47554 3.12501 2.79348 3.12501 3.125V6.61641C3.12448 6.78062 3.1566 6.9433 3.21951 7.09499C3.28241 7.24668 3.37483 7.38435 3.49141 7.5L4.37501 8.38359V16.875C4.37501 17.2065 4.5067 17.5245 4.74112 17.7589C4.97554 17.9933 5.29349 18.125 5.62501 18.125H14.375C14.7065 18.125 15.0245 17.9933 15.2589 17.7589C15.4933 17.5245 15.625 17.2065 15.625 16.875V8.38359L16.5086 7.5C16.6252 7.38435 16.7176 7.24668 16.7805 7.09499C16.8434 6.9433 16.8755 6.78062 16.875 6.61641V3.125C16.875 2.79348 16.7433 2.47554 16.5089 2.24112C16.2745 2.0067 15.9565 1.875 15.625 1.875ZM11.25 16.875H8.75001V11.875C8.75001 11.5435 8.8817 11.2255 9.11612 10.9911C9.35054 10.7567 9.66849 10.625 10 10.625C10.3315 10.625 10.6495 10.7567 10.8839 10.9911C11.1183 11.2255 11.25 11.5435 11.25 11.875V16.875ZM15.625 6.61641L14.7414 7.5C14.6248 7.61565 14.5324 7.75332 14.4695 7.90501C14.4066 8.0567 14.3745 8.21938 14.375 8.38359V16.875H12.5V11.875C12.5 11.212 12.2366 10.5761 11.7678 10.1072C11.2989 9.63839 10.663 9.375 10 9.375C9.33697 9.375 8.70108 9.63839 8.23224 10.1072C7.7634 10.5761 7.50001 11.212 7.50001 11.875V16.875H5.62501V8.38359C5.62553 8.21938 5.59341 8.0567 5.53051 7.90501C5.4676 7.75332 5.37518 7.61565 5.2586 7.5L4.37501 6.61641V3.125H5.62501V4.375C5.62501 4.70652 5.7567 5.02446 5.99112 5.25888C6.22554 5.4933 6.54349 5.625 6.87501 5.625H8.12501C8.45653 5.625 8.77447 5.4933 9.00889 5.25888C9.24331 5.02446 9.37501 4.70652 9.37501 4.375V3.125H10.625V4.375C10.625 4.70652 10.7567 5.02446 10.9911 5.25888C11.2255 5.4933 11.5435 5.625 11.875 5.625H13.125C13.4565 5.625 13.7745 5.4933 14.0089 5.25888C14.2433 5.02446 14.375 4.70652 14.375 4.375V3.125H15.625V6.61641Z" fill="#191F2E"/>
</svg>
