<svg width="20" height="20" viewBox="0 0 20 20" fill="none" xmlns="http://www.w3.org/2000/svg">
<path d="M7.5 10.9374C7.5 11.1228 7.44502 11.3041 7.342 11.4583C7.23899 11.6124 7.09257 11.7326 6.92127 11.8035C6.74996 11.8745 6.56146 11.8931 6.3796 11.8569C6.19775 11.8207 6.0307 11.7314 5.89959 11.6003C5.76848 11.4692 5.67919 11.3022 5.64301 11.1203C5.60684 10.9384 5.62541 10.75 5.69636 10.5786C5.76732 10.4073 5.88748 10.2609 6.04165 10.1579C6.19582 10.0549 6.37708 9.99991 6.5625 9.99991C6.81114 9.99991 7.0496 10.0987 7.22541 10.2745C7.40123 10.4503 7.5 10.6888 7.5 10.9374ZM13.4375 9.99991C13.2521 9.99991 13.0708 10.0549 12.9167 10.1579C12.7625 10.2609 12.6423 10.4073 12.5714 10.5786C12.5004 10.75 12.4818 10.9384 12.518 11.1203C12.5542 11.3022 12.6435 11.4692 12.7746 11.6003C12.9057 11.7314 13.0727 11.8207 13.2546 11.8569C13.4365 11.8931 13.625 11.8745 13.7963 11.8035C13.9676 11.7326 14.114 11.6124 14.217 11.4583C14.32 11.3041 14.375 11.1228 14.375 10.9374C14.375 10.6888 14.2762 10.4503 14.1004 10.2745C13.9246 10.0987 13.6861 9.99991 13.4375 9.99991ZM18.125 3.74991V10.6249C18.125 14.7601 14.4805 18.1249 10 18.1249C5.51953 18.1249 1.875 14.7601 1.875 10.6249V3.74991C1.87511 3.50277 1.94849 3.2612 2.08585 3.05575C2.22321 2.8503 2.41839 2.69017 2.64672 2.59561C2.87506 2.50105 3.1263 2.47629 3.3687 2.52448C3.6111 2.57266 3.83378 2.69162 4.00859 2.86632C4.01953 2.87725 4.02891 2.88741 4.03828 2.89835L5.39062 4.45303C6.77339 3.58669 8.37216 3.12722 10.0039 3.12722C11.6357 3.12722 13.2344 3.58669 14.6172 4.45303L15.9617 2.89835C15.9711 2.88741 15.9805 2.87725 15.9914 2.86632C16.1662 2.69162 16.3889 2.57266 16.6313 2.52448C16.8737 2.47629 17.1249 2.50105 17.3533 2.59561C17.5816 2.69017 17.7768 2.8503 17.9142 3.05575C18.0515 3.2612 18.1249 3.50277 18.125 3.74991ZM16.875 3.74991L15.1906 5.68741C15.0876 5.80661 14.9433 5.8825 14.7867 5.89988C14.6301 5.91726 14.4728 5.87486 14.3461 5.78116C13.9648 5.4992 13.5556 5.25705 13.125 5.0585V6.87491C13.125 7.04067 13.0592 7.19964 12.9419 7.31685C12.8247 7.43406 12.6658 7.49991 12.5 7.49991C12.3342 7.49991 12.1753 7.43406 12.0581 7.31685C11.9408 7.19964 11.875 7.04067 11.875 6.87491V4.61319C11.465 4.50772 11.0469 4.43664 10.625 4.40069V6.87491C10.625 7.04067 10.5592 7.19964 10.4419 7.31685C10.3247 7.43406 10.1658 7.49991 10 7.49991C9.83424 7.49991 9.67527 7.43406 9.55806 7.31685C9.44085 7.19964 9.375 7.04067 9.375 6.87491V4.40069C8.95315 4.43664 8.53503 4.50772 8.125 4.61319V6.87491C8.125 7.04067 8.05915 7.19964 7.94194 7.31685C7.82473 7.43406 7.66576 7.49991 7.5 7.49991C7.33424 7.49991 7.17527 7.43406 7.05806 7.31685C6.94085 7.19964 6.875 7.04067 6.875 6.87491V5.0585C6.44436 5.25705 6.03519 5.4992 5.65391 5.78116C5.52752 5.87514 5.37031 5.91793 5.21373 5.90098C5.05714 5.88404 4.91273 5.8086 4.80938 5.68975L3.125 3.74991V10.6249C3.125 13.8796 5.87578 16.5624 9.375 16.8491V15.2585L8.30781 14.1913C8.24979 14.1332 8.20378 14.0643 8.1724 13.9885C8.14102 13.9126 8.12489 13.8313 8.12493 13.7492C8.12496 13.6672 8.14117 13.5859 8.17262 13.5101C8.20406 13.4342 8.25013 13.3653 8.3082 13.3073C8.42548 13.1902 8.5845 13.1244 8.75028 13.1244C8.83236 13.1245 8.91364 13.1407 8.98946 13.1721C9.06528 13.2036 9.13417 13.2497 9.19219 13.3077L10 14.1155L10.8078 13.3077C10.8658 13.2497 10.9347 13.2036 11.0105 13.1721C11.0864 13.1407 11.1676 13.1245 11.2497 13.1244C11.3318 13.1244 11.4131 13.1405 11.4889 13.1719C11.5648 13.2033 11.6337 13.2493 11.6918 13.3073C11.7499 13.3653 11.7959 13.4342 11.8274 13.5101C11.8588 13.5859 11.875 13.6672 11.8751 13.7492C11.8751 13.8313 11.859 13.9126 11.8276 13.9885C11.7962 14.0643 11.7502 14.1332 11.6922 14.1913L10.625 15.2585V16.8491C14.1242 16.5608 16.875 13.8804 16.875 10.6249V3.74991Z" fill="#191F2E"/>
</svg>
