<svg width="20" height="20" viewBox="0 0 20 20" fill="none" xmlns="http://www.w3.org/2000/svg">
<path d="M16.9133 14.9617C17.0894 15.1378 17.1883 15.3767 17.1883 15.6258C17.1883 15.8749 17.0894 16.1137 16.9133 16.2898C16.7372 16.466 16.4983 16.5649 16.2492 16.5649C16.0001 16.5649 15.7613 16.466 15.5852 16.2898L14.375 15.0781L13.1633 16.2906C12.9872 16.4667 12.7483 16.5657 12.4992 16.5657C12.2501 16.5657 12.0113 16.4667 11.8352 16.2906C11.659 16.1145 11.5601 15.8756 11.5601 15.6266C11.5601 15.3775 11.659 15.1386 11.8352 14.9625L13.0469 13.75L11.8344 12.5383C11.6583 12.3622 11.5593 12.1233 11.5593 11.8742C11.5593 11.6251 11.6583 11.3863 11.8344 11.2102C12.0105 11.034 12.2494 10.9351 12.4984 10.9351C12.7475 10.9351 12.9864 11.034 13.1625 11.2102L14.375 12.4219L15.5867 11.2094C15.7628 11.0333 16.0017 10.9343 16.2508 10.9343C16.4999 10.9343 16.7387 11.0333 16.9148 11.2094C17.091 11.3855 17.1899 11.6244 17.1899 11.8734C17.1899 12.1225 17.091 12.3614 16.9148 12.5375L15.7031 13.75L16.9133 14.9617ZM12.5 9.6875C12.7486 9.6875 12.9871 9.58873 13.1629 9.41291C13.3387 9.2371 13.4375 8.99864 13.4375 8.75V5.625C13.4375 5.37636 13.3387 5.1379 13.1629 4.96209C12.9871 4.78627 12.7486 4.6875 12.5 4.6875C12.2514 4.6875 12.0129 4.78627 11.8371 4.96209C11.6613 5.1379 11.5625 5.37636 11.5625 5.625V8.75C11.5625 8.99864 11.6613 9.2371 11.8371 9.41291C12.0129 9.58873 12.2514 9.6875 12.5 9.6875ZM15.625 9.6875C15.8736 9.6875 16.1121 9.58873 16.2879 9.41291C16.4637 9.2371 16.5625 8.99864 16.5625 8.75V2.5C16.5625 2.25136 16.4637 2.0129 16.2879 1.83709C16.1121 1.66127 15.8736 1.5625 15.625 1.5625C15.3764 1.5625 15.1379 1.66127 14.9621 1.83709C14.7863 2.0129 14.6875 2.25136 14.6875 2.5V8.75C14.6875 8.99864 14.7863 9.2371 14.9621 9.41291C15.1379 9.58873 15.3764 9.6875 15.625 9.6875ZM9.375 7.8125C9.12636 7.8125 8.8879 7.91127 8.71209 8.08709C8.53627 8.2629 8.4375 8.50136 8.4375 8.75V15.625C8.4375 15.8736 8.53627 16.1121 8.71209 16.2879C8.8879 16.4637 9.12636 16.5625 9.375 16.5625C9.62364 16.5625 9.8621 16.4637 10.0379 16.2879C10.2137 16.1121 10.3125 15.8736 10.3125 15.625V8.75C10.3125 8.50136 10.2137 8.2629 10.0379 8.08709C9.8621 7.91127 9.62364 7.8125 9.375 7.8125ZM6.25 10.9375C6.00136 10.9375 5.7629 11.0363 5.58709 11.2121C5.41127 11.3879 5.3125 11.6264 5.3125 11.875V15.625C5.3125 15.8736 5.41127 16.1121 5.58709 16.2879C5.7629 16.4637 6.00136 16.5625 6.25 16.5625C6.49864 16.5625 6.7371 16.4637 6.91291 16.2879C7.08873 16.1121 7.1875 15.8736 7.1875 15.625V11.875C7.1875 11.6264 7.08873 11.3879 6.91291 11.2121C6.7371 11.0363 6.49864 10.9375 6.25 10.9375ZM3.125 14.0625C2.87636 14.0625 2.6379 14.1613 2.46209 14.3371C2.28627 14.5129 2.1875 14.7514 2.1875 15V15.625C2.1875 15.8736 2.28627 16.1121 2.46209 16.2879C2.6379 16.4637 2.87636 16.5625 3.125 16.5625C3.37364 16.5625 3.6121 16.4637 3.78791 16.2879C3.96373 16.1121 4.0625 15.8736 4.0625 15.625V15C4.0625 14.7514 3.96373 14.5129 3.78791 14.3371C3.6121 14.1613 3.37364 14.0625 3.125 14.0625Z" fill="#191F2E"/>
</svg>
