<svg width="20" height="20" viewBox="0 0 20 20" fill="none" xmlns="http://www.w3.org/2000/svg">
<path d="M15.4781 1.97115C15.2498 1.8764 14.9984 1.85151 14.7559 1.89963C14.5134 1.94775 14.2906 2.06671 14.1156 2.24146L1.61564 14.7415C1.4409 14.9163 1.32192 15.1391 1.27377 15.3815C1.22561 15.624 1.25043 15.8753 1.34509 16.1037C1.43974 16.3321 1.59999 16.5272 1.80557 16.6645C2.01114 16.8018 2.25281 16.8751 2.50002 16.8751H15C15.3315 16.8751 15.6495 16.7434 15.8839 16.5089C16.1183 16.2745 16.25 15.9566 16.25 15.6251V3.12506C16.2504 2.87783 16.1773 2.63606 16.0398 2.43057C15.9023 2.22507 15.7068 2.06514 15.4781 1.97115ZM15 15.6251H2.50002L15 3.12506V15.6251Z" fill="#191F2E"/>
</svg>
