<svg width="20" height="20" viewBox="0 0 20 20" fill="none" xmlns="http://www.w3.org/2000/svg">
<path d="M11.5008 13.5289C11.5298 13.5579 11.5529 13.5924 11.5686 13.6303C11.5843 13.6683 11.5924 13.7089 11.5924 13.75C11.5924 13.7911 11.5843 13.8317 11.5686 13.8697C11.5529 13.9076 11.5298 13.9421 11.5008 13.9711L11.1718 14.2969C10.8981 14.5712 10.7161 14.9237 10.6509 15.3058C10.5857 15.6879 10.6405 16.0808 10.8078 16.4305C10.8295 16.4781 10.8389 16.5304 10.8352 16.5826C10.8314 16.6347 10.8146 16.6852 10.7863 16.7292C10.758 16.7732 10.7191 16.8094 10.6732 16.8345C10.6272 16.8595 10.5757 16.8727 10.5234 16.8726H2.49997C2.24253 16.8727 1.99136 16.7932 1.78077 16.6451C1.57019 16.4971 1.41046 16.2876 1.32341 16.0453C1.24559 15.8165 1.23415 15.5703 1.29042 15.3353C1.34669 15.1002 1.46837 14.8859 1.64138 14.7172L14.1156 2.24139C14.2976 2.05946 14.5313 1.93812 14.7848 1.89393C15.0383 1.84975 15.2992 1.88488 15.532 1.99452C15.7497 2.10116 15.9327 2.26735 16.0598 2.47381C16.1869 2.68026 16.2528 2.91851 16.25 3.16092V9.71014C16.2507 9.78621 16.2236 9.85991 16.1738 9.91744C16.1241 9.97497 16.055 10.0124 15.9797 10.0226C15.5797 10.0785 15.2085 10.2624 14.9218 10.5469L14.5937 10.875C14.5647 10.904 14.5302 10.9271 14.4923 10.9428C14.4544 10.9585 14.4137 10.9666 14.3726 10.9666C14.3316 10.9666 14.2909 10.9585 14.253 10.9428C14.215 10.9271 14.1806 10.904 14.1515 10.875L13.8281 10.5469C13.4809 10.1994 13.0113 10.002 12.5201 9.99719C12.0289 9.99236 11.5555 10.1805 11.2015 10.5211C10.4445 11.25 10.4625 12.4851 11.2015 13.2281L11.5008 13.5289ZM15.2586 13.75L16.6922 12.3164C16.8093 12.1991 16.8751 12.0401 16.875 11.8743C16.875 11.7085 16.809 11.5496 16.6918 11.4324C16.5745 11.3152 16.4155 11.2494 16.2497 11.2495C16.0839 11.2496 15.925 11.3155 15.8078 11.4328L14.375 12.8656L12.9414 11.4328C12.8232 11.3205 12.6659 11.2589 12.5029 11.261C12.3399 11.263 12.1842 11.3287 12.069 11.444C11.9537 11.5592 11.888 11.7149 11.8859 11.8779C11.8839 12.0409 11.9455 12.1982 12.0578 12.3164L13.4906 13.75L12.057 15.1828C11.9397 15.3 11.8738 15.4589 11.8737 15.6247C11.8737 15.7905 11.9394 15.9495 12.0566 16.0668C12.1738 16.1841 12.3327 16.25 12.4985 16.2501C12.6643 16.2501 12.8233 16.1843 12.9406 16.0672L14.375 14.6336L15.8086 16.0672C15.9258 16.1844 16.0849 16.2503 16.2508 16.2503C16.4166 16.2503 16.5757 16.1844 16.6929 16.0672C16.8102 15.9499 16.8761 15.7908 16.8761 15.625C16.8761 15.4591 16.8102 15.3001 16.6929 15.1828L15.2586 13.75Z" fill="#191F2E"/>
</svg>
