<svg width="20" height="20" viewBox="0 0 20 20" fill="none" xmlns="http://www.w3.org/2000/svg">
<path d="M7.1875 11.875V15.625C7.1875 15.8736 7.08873 16.1121 6.91291 16.2879C6.7371 16.4637 6.49864 16.5625 6.25 16.5625C6.00136 16.5625 5.7629 16.4637 5.58709 16.2879C5.41127 16.1121 5.3125 15.8736 5.3125 15.625V11.875C5.3125 11.6264 5.41127 11.3879 5.58709 11.2121C5.7629 11.0363 6.00136 10.9375 6.25 10.9375C6.49864 10.9375 6.7371 11.0363 6.91291 11.2121C7.08873 11.3879 7.1875 11.6264 7.1875 11.875ZM3.125 14.0625C2.87636 14.0625 2.6379 14.1613 2.46209 14.3371C2.28627 14.5129 2.1875 14.7514 2.1875 15V15.625C2.1875 15.8736 2.28627 16.1121 2.46209 16.2879C2.6379 16.4637 2.87636 16.5625 3.125 16.5625C3.37364 16.5625 3.6121 16.4637 3.78791 16.2879C3.96373 16.1121 4.0625 15.8736 4.0625 15.625V15C4.0625 14.7514 3.96373 14.5129 3.78791 14.3371C3.6121 14.1613 3.37364 14.0625 3.125 14.0625ZM16.9438 16.2445L4.44375 2.49453C4.36142 2.40173 4.26149 2.32618 4.14975 2.27229C4.03801 2.21839 3.91668 2.1872 3.7928 2.18054C3.66892 2.17387 3.54495 2.19186 3.42807 2.23346C3.3112 2.27506 3.20374 2.33945 3.11193 2.42288C3.02012 2.50632 2.94578 2.60715 2.89322 2.71953C2.84067 2.8319 2.81094 2.95359 2.80576 3.07755C2.80058 3.2015 2.82005 3.32525 2.86305 3.44162C2.90605 3.55799 2.97172 3.66466 3.05625 3.75547L8.4375 9.675V15.625C8.4375 15.8736 8.53627 16.1121 8.71209 16.2879C8.8879 16.4637 9.12636 16.5625 9.375 16.5625C9.62364 16.5625 9.8621 16.4637 10.0379 16.2879C10.2137 16.1121 10.3125 15.8736 10.3125 15.625V11.7375L11.5625 13.1125V15.625C11.5625 15.8736 11.6613 16.1121 11.8371 16.2879C12.0129 16.4637 12.2514 16.5625 12.5 16.5625C12.7486 16.5625 12.9871 16.4637 13.1629 16.2879C13.3387 16.1121 13.4375 15.8736 13.4375 15.625V15.175L15.5562 17.5055C15.7243 17.686 15.9568 17.7931 16.2033 17.8034C16.4498 17.8137 16.6904 17.7264 16.873 17.5605C17.0555 17.3946 17.1653 17.1634 17.1786 16.917C17.1918 16.6707 17.1075 16.4291 16.9438 16.2445ZM12.5 9.04219C12.7486 9.04219 12.9871 8.94342 13.1629 8.7676C13.3387 8.59178 13.4375 8.35333 13.4375 8.10469V5.625C13.4375 5.37636 13.3387 5.1379 13.1629 4.96209C12.9871 4.78627 12.7486 4.6875 12.5 4.6875C12.2514 4.6875 12.0129 4.78627 11.8371 4.96209C11.6613 5.1379 11.5625 5.37636 11.5625 5.625V8.10469C11.5625 8.35333 11.6613 8.59178 11.8371 8.7676C12.0129 8.94342 12.2514 9.04219 12.5 9.04219ZM15.625 12.4797C15.8736 12.4797 16.1121 12.3809 16.2879 12.2051C16.4637 12.0293 16.5625 11.7908 16.5625 11.5422V2.5C16.5625 2.25136 16.4637 2.0129 16.2879 1.83709C16.1121 1.66127 15.8736 1.5625 15.625 1.5625C15.3764 1.5625 15.1379 1.66127 14.9621 1.83709C14.7863 2.0129 14.6875 2.25136 14.6875 2.5V11.5422C14.6875 11.7908 14.7863 12.0293 14.9621 12.2051C15.1379 12.3809 15.3764 12.4797 15.625 12.4797Z" fill="#191F2E"/>
</svg>
