<svg width="20" height="20" viewBox="0 0 20 20" fill="none" xmlns="http://www.w3.org/2000/svg">
<path d="M13.125 5.625V15.625C13.125 15.7908 13.0592 15.9497 12.9419 16.0669C12.8247 16.1842 12.6658 16.25 12.5 16.25C12.3342 16.25 12.1753 16.1842 12.0581 16.0669C11.9408 15.9497 11.875 15.7908 11.875 15.625V5.625C11.875 5.45924 11.9408 5.30027 12.0581 5.18306C12.1753 5.06585 12.3342 5 12.5 5C12.6658 5 12.8247 5.06585 12.9419 5.18306C13.0592 5.30027 13.125 5.45924 13.125 5.625ZM15.625 1.875C15.4592 1.875 15.3003 1.94085 15.1831 2.05806C15.0658 2.17527 15 2.33424 15 2.5V15.625C15 15.7908 15.0658 15.9497 15.1831 16.0669C15.3003 16.1842 15.4592 16.25 15.625 16.25C15.7908 16.25 15.9497 16.1842 16.0669 16.0669C16.1842 15.9497 16.25 15.7908 16.25 15.625V2.5C16.25 2.33424 16.1842 2.17527 16.0669 2.05806C15.9497 1.94085 15.7908 1.875 15.625 1.875ZM9.375 8.125C9.20924 8.125 9.05027 8.19085 8.93306 8.30806C8.81585 8.42527 8.75 8.58424 8.75 8.75V15.625C8.75 15.7908 8.81585 15.9497 8.93306 16.0669C9.05027 16.1842 9.20924 16.25 9.375 16.25C9.54076 16.25 9.69973 16.1842 9.81694 16.0669C9.93415 15.9497 10 15.7908 10 15.625V8.75C10 8.58424 9.93415 8.42527 9.81694 8.30806C9.69973 8.19085 9.54076 8.125 9.375 8.125ZM6.25 11.25C6.08424 11.25 5.92527 11.3158 5.80806 11.4331C5.69085 11.5503 5.625 11.7092 5.625 11.875V15.625C5.625 15.7908 5.69085 15.9497 5.80806 16.0669C5.92527 16.1842 6.08424 16.25 6.25 16.25C6.41576 16.25 6.57473 16.1842 6.69194 16.0669C6.80915 15.9497 6.875 15.7908 6.875 15.625V11.875C6.875 11.7092 6.80915 11.5503 6.69194 11.4331C6.57473 11.3158 6.41576 11.25 6.25 11.25ZM3.125 14.375C2.95924 14.375 2.80027 14.4408 2.68306 14.5581C2.56585 14.6753 2.5 14.8342 2.5 15V15.625C2.5 15.7908 2.56585 15.9497 2.68306 16.0669C2.80027 16.1842 2.95924 16.25 3.125 16.25C3.29076 16.25 3.44973 16.1842 3.56694 16.0669C3.68415 15.9497 3.75 15.7908 3.75 15.625V15C3.75 14.8342 3.68415 14.6753 3.56694 14.5581C3.44973 14.4408 3.29076 14.375 3.125 14.375Z" fill="#191F2E"/>
</svg>
