<svg width="20" height="20" viewBox="0 0 20 20" fill="none" xmlns="http://www.w3.org/2000/svg">
<path d="M6.875 11.875V15.625C6.875 15.7908 6.80915 15.9497 6.69194 16.0669C6.57473 16.1842 6.41576 16.25 6.25 16.25C6.08424 16.25 5.92527 16.1842 5.80806 16.0669C5.69085 15.9497 5.625 15.7908 5.625 15.625V11.875C5.625 11.7092 5.69085 11.5503 5.80806 11.4331C5.92527 11.3158 6.08424 11.25 6.25 11.25C6.41576 11.25 6.57473 11.3158 6.69194 11.4331C6.80915 11.5503 6.875 11.7092 6.875 11.875ZM3.125 14.375C2.95924 14.375 2.80027 14.4408 2.68306 14.5581C2.56585 14.6753 2.5 14.8342 2.5 15V15.625C2.5 15.7908 2.56585 15.9497 2.68306 16.0669C2.80027 16.1842 2.95924 16.25 3.125 16.25C3.29076 16.25 3.44973 16.1842 3.56694 16.0669C3.68415 15.9497 3.75 15.7908 3.75 15.625V15C3.75 14.8342 3.68415 14.6753 3.56694 14.5581C3.44973 14.4408 3.29076 14.375 3.125 14.375ZM16.7125 16.4547L4.2125 2.70469C4.15761 2.64282 4.09099 2.59246 4.0165 2.55652C3.94201 2.52059 3.86112 2.4998 3.77854 2.49536C3.69595 2.49091 3.6133 2.50291 3.53538 2.53064C3.45746 2.55837 3.38582 2.6013 3.32462 2.65692C3.26341 2.71255 3.21385 2.77976 3.17881 2.85468C3.14378 2.9296 3.12396 3.01073 3.1205 3.09336C3.11705 3.176 3.13004 3.2585 3.1587 3.33608C3.18737 3.41366 3.23115 3.48478 3.2875 3.54531L8.75 9.55391V15.625C8.75 15.7908 8.81585 15.9497 8.93306 16.0669C9.05027 16.1842 9.20924 16.25 9.375 16.25C9.54076 16.25 9.69973 16.1842 9.81694 16.0669C9.93415 15.9497 10 15.7908 10 15.625V10.9289L11.875 12.9914V15.625C11.875 15.7908 11.9408 15.9497 12.0581 16.0669C12.1753 16.1842 12.3342 16.25 12.5 16.25C12.6658 16.25 12.8247 16.1842 12.9419 16.0669C13.0592 15.9497 13.125 15.7908 13.125 15.625V14.3664L15.7875 17.2953C15.8424 17.3572 15.909 17.4075 15.9835 17.4435C16.058 17.4794 16.1389 17.5002 16.2215 17.5046C16.3041 17.5091 16.3867 17.4971 16.4646 17.4694C16.5425 17.4416 16.6142 17.3987 16.6754 17.3431C16.7366 17.2875 16.7861 17.2202 16.8212 17.1453C16.8562 17.0704 16.876 16.9893 16.8795 16.9066C16.8829 16.824 16.87 16.7415 16.8413 16.6639C16.8126 16.5863 16.7689 16.5152 16.7125 16.4547ZM12.5 9.65781C12.6658 9.65781 12.8247 9.59196 12.9419 9.47475C13.0592 9.35754 13.125 9.19857 13.125 9.03281V5.625C13.125 5.45924 13.0592 5.30027 12.9419 5.18306C12.8247 5.06585 12.6658 5 12.5 5C12.3342 5 12.1753 5.06585 12.0581 5.18306C11.9408 5.30027 11.875 5.45924 11.875 5.625V9.03359C11.875 9.19935 11.9408 9.35833 12.0581 9.47554C12.1753 9.59275 12.3342 9.65859 12.5 9.65859V9.65781ZM15.625 13.0953C15.7908 13.0953 15.9497 13.0295 16.0669 12.9123C16.1842 12.795 16.25 12.6361 16.25 12.4703V2.5C16.25 2.33424 16.1842 2.17527 16.0669 2.05806C15.9497 1.94085 15.7908 1.875 15.625 1.875C15.4592 1.875 15.3003 1.94085 15.1831 2.05806C15.0658 2.17527 15 2.33424 15 2.5V12.4711C15 12.6369 15.0658 12.7958 15.1831 12.913C15.3003 13.0302 15.4592 13.0961 15.625 13.0961V13.0953Z" fill="#191F2E"/>
</svg>
