<svg width="20" height="20" viewBox="0 0 20 20" fill="none" xmlns="http://www.w3.org/2000/svg">
<path d="M7.1875 11.875V15.625C7.1875 15.8736 7.08873 16.1121 6.91291 16.2879C6.7371 16.4637 6.49864 16.5625 6.25 16.5625C6.00136 16.5625 5.7629 16.4637 5.58709 16.2879C5.41127 16.1121 5.3125 15.8736 5.3125 15.625V11.875C5.3125 11.6264 5.41127 11.3879 5.58709 11.2121C5.7629 11.0363 6.00136 10.9375 6.25 10.9375C6.49864 10.9375 6.7371 11.0363 6.91291 11.2121C7.08873 11.3879 7.1875 11.6264 7.1875 11.875ZM3.125 14.0625C2.87636 14.0625 2.6379 14.1613 2.46209 14.3371C2.28627 14.5129 2.1875 14.7514 2.1875 15V15.625C2.1875 15.8736 2.28627 16.1121 2.46209 16.2879C2.6379 16.4637 2.87636 16.5625 3.125 16.5625C3.37364 16.5625 3.6121 16.4637 3.78791 16.2879C3.96373 16.1121 4.0625 15.8736 4.0625 15.625V15C4.0625 14.7514 3.96373 14.5129 3.78791 14.3371C3.6121 14.1613 3.37364 14.0625 3.125 14.0625Z" fill="#191F2E"/>
</svg>
