<svg width="20" height="20" viewBox="0 0 20 20" fill="none" xmlns="http://www.w3.org/2000/svg">
<path d="M16.25 3.12491V15.6249C16.25 15.9564 16.1183 16.2744 15.8839 16.5088C15.6494 16.7432 15.3315 16.8749 15 16.8749H2.49997C2.25273 16.8748 2.01108 16.8014 1.80558 16.6639C1.60008 16.5265 1.43995 16.3311 1.34546 16.1027C1.25096 15.8742 1.22634 15.6229 1.2747 15.3804C1.32306 15.1379 1.44224 14.9153 1.61716 14.7405L14.1172 2.24054C14.2921 2.06606 14.5147 1.94732 14.7571 1.89931C14.9994 1.85131 15.2505 1.87619 15.4788 1.97082C15.707 2.06545 15.902 2.22557 16.0393 2.43098C16.1765 2.63639 16.2499 2.87786 16.25 3.12491Z" fill="#191F2E"/>
</svg>
