<svg width="20" height="20" viewBox="0 0 20 20" fill="none" xmlns="http://www.w3.org/2000/svg">
<path d="M16.6922 15.1828C16.7503 15.2409 16.7963 15.3098 16.8277 15.3857C16.8592 15.4616 16.8753 15.5429 16.8753 15.625C16.8753 15.7071 16.8592 15.7884 16.8277 15.8643C16.7963 15.9402 16.7503 16.0091 16.6922 16.0672C16.6341 16.1253 16.5652 16.1713 16.4893 16.2027C16.4134 16.2342 16.3321 16.2503 16.25 16.2503C16.1679 16.2503 16.0866 16.2342 16.0107 16.2027C15.9348 16.1713 15.8659 16.1253 15.8078 16.0672L14.375 14.6336L12.9422 16.0672C12.8249 16.1845 12.6659 16.2503 12.5 16.2503C12.3341 16.2503 12.1751 16.1845 12.0578 16.0672C11.9405 15.9499 11.8747 15.7909 11.8747 15.625C11.8747 15.4591 11.9405 15.3001 12.0578 15.1828L13.4914 13.75L12.0578 12.3172C11.9405 12.1999 11.8747 12.0409 11.8747 11.875C11.8747 11.7091 11.9405 11.5501 12.0578 11.4328C12.1751 11.3155 12.3341 11.2497 12.5 11.2497C12.6659 11.2497 12.8249 11.3155 12.9422 11.4328L14.375 12.8664L15.8078 11.4328C15.9251 11.3155 16.0841 11.2497 16.25 11.2497C16.4159 11.2497 16.5749 11.3155 16.6922 11.4328C16.8095 11.5501 16.8753 11.7091 16.8753 11.875C16.8753 12.0409 16.8095 12.1999 16.6922 12.3172L15.2586 13.75L16.6922 15.1828ZM12.5 10C12.6658 10 12.8247 9.93415 12.9419 9.81694C13.0592 9.69973 13.125 9.54076 13.125 9.375V5.625C13.125 5.45924 13.0592 5.30027 12.9419 5.18306C12.8247 5.06585 12.6658 5 12.5 5C12.3342 5 12.1753 5.06585 12.0581 5.18306C11.9408 5.30027 11.875 5.45924 11.875 5.625V9.375C11.875 9.54076 11.9408 9.69973 12.0581 9.81694C12.1753 9.93415 12.3342 10 12.5 10ZM15.625 10C15.7908 10 15.9497 9.93415 16.0669 9.81694C16.1842 9.69973 16.25 9.54076 16.25 9.375V2.5C16.25 2.33424 16.1842 2.17527 16.0669 2.05806C15.9497 1.94085 15.7908 1.875 15.625 1.875C15.4592 1.875 15.3003 1.94085 15.1831 2.05806C15.0658 2.17527 15 2.33424 15 2.5V9.375C15 9.54076 15.0658 9.69973 15.1831 9.81694C15.3003 9.93415 15.4592 10 15.625 10ZM9.375 8.125C9.20924 8.125 9.05027 8.19085 8.93306 8.30806C8.81585 8.42527 8.75 8.58424 8.75 8.75V15.625C8.75 15.7908 8.81585 15.9497 8.93306 16.0669C9.05027 16.1842 9.20924 16.25 9.375 16.25C9.54076 16.25 9.69973 16.1842 9.81694 16.0669C9.93415 15.9497 10 15.7908 10 15.625V8.75C10 8.58424 9.93415 8.42527 9.81694 8.30806C9.69973 8.19085 9.54076 8.125 9.375 8.125ZM6.25 11.25C6.08424 11.25 5.92527 11.3158 5.80806 11.4331C5.69085 11.5503 5.625 11.7092 5.625 11.875V15.625C5.625 15.7908 5.69085 15.9497 5.80806 16.0669C5.92527 16.1842 6.08424 16.25 6.25 16.25C6.41576 16.25 6.57473 16.1842 6.69194 16.0669C6.80915 15.9497 6.875 15.7908 6.875 15.625V11.875C6.875 11.7092 6.80915 11.5503 6.69194 11.4331C6.57473 11.3158 6.41576 11.25 6.25 11.25ZM3.125 14.375C2.95924 14.375 2.80027 14.4408 2.68306 14.5581C2.56585 14.6753 2.5 14.8342 2.5 15V15.625C2.5 15.7908 2.56585 15.9497 2.68306 16.0669C2.80027 16.1842 2.95924 16.25 3.125 16.25C3.29076 16.25 3.44973 16.1842 3.56694 16.0669C3.68415 15.9497 3.75 15.7908 3.75 15.625V15C3.75 14.8342 3.68415 14.6753 3.56694 14.5581C3.44973 14.4408 3.29076 14.375 3.125 14.375Z" fill="#191F2E"/>
</svg>
