<svg width="20" height="20" viewBox="0 0 20 20" fill="none" xmlns="http://www.w3.org/2000/svg">
<path d="M16.6703 17.3376C16.5477 17.4491 16.3857 17.5072 16.2202 17.4993C16.0546 17.4914 15.899 17.4181 15.7875 17.2954L15.4055 16.8751H2.50001C2.25264 16.8753 2.01077 16.8021 1.80503 16.6648C1.59929 16.5274 1.43892 16.3321 1.34423 16.1036C1.24954 15.8751 1.22478 15.6236 1.2731 15.381C1.32141 15.1384 1.44062 14.9155 1.61563 14.7407L7.82266 8.53448L3.28673 3.54542C3.23148 3.48468 3.18874 3.41366 3.16094 3.3364C3.13314 3.25915 3.12083 3.17717 3.12471 3.09516C3.12859 3.01315 3.14859 2.9327 3.18356 2.85842C3.21853 2.78413 3.26779 2.71746 3.32852 2.66221C3.38926 2.60697 3.46028 2.56422 3.53754 2.53642C3.61479 2.50863 3.69677 2.49631 3.77878 2.5002C3.86079 2.50408 3.94124 2.52407 4.01552 2.55904C4.08981 2.59402 4.15648 2.64328 4.21173 2.70401L16.7117 16.454C16.7671 16.5147 16.8099 16.5857 16.8378 16.663C16.8657 16.7403 16.8781 16.8223 16.8742 16.9044C16.8704 16.9865 16.8504 17.067 16.8154 17.1413C16.7804 17.2156 16.7311 17.2823 16.6703 17.3376ZM15.1625 12.8907C15.2473 12.984 15.3583 13.0495 15.481 13.0785C15.6037 13.1076 15.7323 13.0988 15.85 13.0535C15.9676 13.0081 16.0687 12.9282 16.1401 12.8243C16.2115 12.7204 16.2498 12.5973 16.25 12.4712V3.12511C16.2497 2.87803 16.1763 2.63657 16.0388 2.43124C15.9014 2.2259 15.7062 2.0659 15.4779 1.97143C15.2496 1.87697 14.9984 1.85228 14.7561 1.90049C14.5138 1.9487 14.2912 2.06764 14.1164 2.24229L10.0141 6.34386C9.90139 6.45731 9.83649 6.60964 9.83271 6.7695C9.82893 6.92935 9.88657 7.08458 9.99376 7.20323L15.1625 12.8907Z" fill="#191F2E"/>
</svg>
