<svg width="20" height="20" viewBox="0 0 20 20" fill="none" xmlns="http://www.w3.org/2000/svg">
<path d="M19.375 10C19.3757 9.28224 19.1997 8.57535 18.8627 7.94164C18.5257 7.30793 18.0379 6.76688 17.4424 6.36618C16.8469 5.96548 16.162 5.71745 15.448 5.64395C14.734 5.57045 14.0129 5.67375 13.3483 5.94472C12.6836 6.2157 12.0959 6.64604 11.6368 7.1978C11.1778 7.74956 10.8615 8.40579 10.7159 9.10862C10.5704 9.81146 10.5999 10.5393 10.8021 11.228C11.0042 11.9167 11.3727 12.5451 11.875 13.0578V17.5C11.8749 17.6066 11.9021 17.7114 11.954 17.8046C12.0058 17.8977 12.0807 17.976 12.1713 18.032C12.262 18.0881 12.3655 18.12 12.4719 18.1248C12.5784 18.1296 12.6844 18.1071 12.7797 18.0594L15 16.9484L17.2203 18.0594C17.3156 18.1071 17.4216 18.1296 17.5281 18.1248C17.6345 18.12 17.738 18.0881 17.8287 18.032C17.9193 17.976 17.9942 17.8977 18.046 17.8046C18.0979 17.7114 18.1251 17.6066 18.125 17.5V13.0578C18.9266 12.2419 19.3755 11.1438 19.375 10ZM15 6.875C15.6181 6.875 16.2223 7.05828 16.7362 7.40166C17.2501 7.74504 17.6506 8.2331 17.8871 8.80411C18.1236 9.37513 18.1855 10.0035 18.065 10.6097C17.9444 11.2158 17.6467 11.7727 17.2097 12.2097C16.7727 12.6467 16.2158 12.9444 15.6097 13.065C15.0035 13.1855 14.3751 13.1236 13.8041 12.8871C13.2331 12.6506 12.745 12.2501 12.4017 11.7362C12.0583 11.2223 11.875 10.6181 11.875 10C11.875 9.1712 12.2042 8.37634 12.7903 7.79029C13.3763 7.20424 14.1712 6.875 15 6.875ZM15.2797 15.6906C15.1929 15.6472 15.0971 15.6246 15 15.6246C14.9029 15.6246 14.8071 15.6472 14.7203 15.6906L13.125 16.4891V13.9523C13.7109 14.2306 14.3514 14.375 15 14.375C15.6486 14.375 16.2891 14.2306 16.875 13.9523V16.4891L15.2797 15.6906ZM10.625 15C10.625 15.1658 10.5592 15.3247 10.4419 15.4419C10.3247 15.5592 10.1658 15.625 10 15.625H3.125C2.79348 15.625 2.47554 15.4933 2.24112 15.2589C2.0067 15.0245 1.875 14.7065 1.875 14.375V4.375C1.875 4.04348 2.0067 3.72554 2.24112 3.49112C2.47554 3.2567 2.79348 3.125 3.125 3.125H16.875C17.2065 3.125 17.5245 3.2567 17.7589 3.49112C17.9933 3.72554 18.125 4.04348 18.125 4.375C18.125 4.54076 18.0592 4.69973 17.9419 4.81694C17.8247 4.93415 17.6658 5 17.5 5C17.3342 5 17.1753 4.93415 17.0581 4.81694C16.9408 4.69973 16.875 4.54076 16.875 4.375H3.125V14.375H10C10.1658 14.375 10.3247 14.4408 10.4419 14.5581C10.5592 14.6753 10.625 14.8342 10.625 15ZM9.375 10.625C9.375 10.7908 9.30915 10.9497 9.19194 11.0669C9.07473 11.1842 8.91576 11.25 8.75 11.25H5.625C5.45924 11.25 5.30027 11.1842 5.18306 11.0669C5.06585 10.9497 5 10.7908 5 10.625C5 10.4592 5.06585 10.3003 5.18306 10.1831C5.30027 10.0658 5.45924 10 5.625 10H8.75C8.91576 10 9.07473 10.0658 9.19194 10.1831C9.30915 10.3003 9.375 10.4592 9.375 10.625ZM9.375 8.125C9.375 8.29076 9.30915 8.44973 9.19194 8.56694C9.07473 8.68415 8.91576 8.75 8.75 8.75H5.625C5.45924 8.75 5.30027 8.68415 5.18306 8.56694C5.06585 8.44973 5 8.29076 5 8.125C5 7.95924 5.06585 7.80027 5.18306 7.68306C5.30027 7.56585 5.45924 7.5 5.625 7.5H8.75C8.91576 7.5 9.07473 7.56585 9.19194 7.68306C9.30915 7.80027 9.375 7.95924 9.375 8.125Z" fill="#191F2E"/>
</svg>
