<svg width="20" height="20" viewBox="0 0 20 20" fill="none" xmlns="http://www.w3.org/2000/svg">
<path d="M18.125 6.94219V4.375C18.125 4.04348 17.9933 3.72554 17.7589 3.49112C17.5245 3.2567 17.2065 3.125 16.875 3.125H3.125C2.79348 3.125 2.47554 3.2567 2.24112 3.49112C2.0067 3.72554 1.875 4.04348 1.875 4.375V14.375C1.875 14.7065 2.0067 15.0245 2.24112 15.2589C2.47554 15.4933 2.79348 15.625 3.125 15.625H11.875V17.5C11.8749 17.6066 11.9021 17.7114 11.954 17.8046C12.0058 17.8977 12.0807 17.976 12.1713 18.032C12.262 18.0881 12.3655 18.12 12.4719 18.1248C12.5784 18.1296 12.6844 18.1071 12.7797 18.0594L15 16.9484L17.2203 18.0594C17.3156 18.1071 17.4216 18.1296 17.5281 18.1248C17.6345 18.12 17.738 18.0881 17.8287 18.032C17.9193 17.976 17.9942 17.8977 18.046 17.8046C18.0979 17.7114 18.1251 17.6066 18.125 17.5V13.0578C18.9262 12.2417 19.3751 11.1437 19.3751 10C19.3751 8.85632 18.9262 7.75832 18.125 6.94219ZM10 11.25H5.625C5.45924 11.25 5.30027 11.1842 5.18306 11.0669C5.06585 10.9497 5 10.7908 5 10.625C5 10.4592 5.06585 10.3003 5.18306 10.1831C5.30027 10.0658 5.45924 10 5.625 10H10C10.1658 10 10.3247 10.0658 10.4419 10.1831C10.5592 10.3003 10.625 10.4592 10.625 10.625C10.625 10.7908 10.5592 10.9497 10.4419 11.0669C10.3247 11.1842 10.1658 11.25 10 11.25ZM10 8.75H5.625C5.45924 8.75 5.30027 8.68415 5.18306 8.56694C5.06585 8.44973 5 8.29076 5 8.125C5 7.95924 5.06585 7.80027 5.18306 7.68306C5.30027 7.56585 5.45924 7.5 5.625 7.5H10C10.1658 7.5 10.3247 7.56585 10.4419 7.68306C10.5592 7.80027 10.625 7.95924 10.625 8.125C10.625 8.29076 10.5592 8.44973 10.4419 8.56694C10.3247 8.68415 10.1658 8.75 10 8.75ZM16.875 16.4891L15.2797 15.6906C15.1929 15.6472 15.0971 15.6246 15 15.6246C14.9029 15.6246 14.8071 15.6472 14.7203 15.6906L13.125 16.4891V13.9523C13.7109 14.2306 14.3514 14.375 15 14.375C15.6486 14.375 16.2891 14.2306 16.875 13.9523V16.4891ZM15 13.125C14.3819 13.125 13.7777 12.9417 13.2638 12.5983C12.7499 12.255 12.3494 11.7669 12.1129 11.1959C11.8764 10.6249 11.8145 9.99653 11.935 9.39034C12.0556 8.78415 12.3533 8.22733 12.7903 7.79029C13.2273 7.35325 13.7842 7.05562 14.3903 6.93505C14.9965 6.81447 15.6249 6.87635 16.1959 7.11288C16.7669 7.3494 17.255 7.74994 17.5983 8.26384C17.9417 8.77775 18.125 9.38193 18.125 10C18.125 10.8288 17.7958 11.6237 17.2097 12.2097C16.6237 12.7958 15.8288 13.125 15 13.125Z" fill="#191F2E"/>
</svg>
