<svg width="20" height="20" viewBox="0 0 20 20" fill="none" xmlns="http://www.w3.org/2000/svg">
<path d="M19.375 10C19.3755 9.34764 19.2188 8.70477 18.9183 8.12575C18.6178 7.54673 18.1823 7.04859 17.6485 6.67347C17.1148 6.29835 16.4986 6.05728 15.852 5.97064C15.2055 5.884 14.5475 5.95434 13.9339 6.17572C13.3202 6.3971 12.7689 6.763 12.3266 7.24248C11.8842 7.72196 11.5639 8.30092 11.3926 8.93038C11.2213 9.55985 11.2041 10.2213 11.3424 10.8588C11.4808 11.4963 11.7707 12.0912 12.1875 12.593V17.1875C12.1871 17.3522 12.2302 17.5142 12.3123 17.657C12.3944 17.7998 12.5127 17.9185 12.6553 18.001C12.7979 18.0836 12.9597 18.1271 13.1245 18.1272C13.2892 18.1273 13.4511 18.0839 13.5938 18.0016L15.3125 17.0172L17.0352 18.0016C17.1777 18.083 17.3392 18.1255 17.5034 18.1249C17.6675 18.1243 17.8287 18.0806 17.9707 17.9982C18.1127 17.9158 18.2305 17.7975 18.3124 17.6552C18.3944 17.513 18.4375 17.3517 18.4375 17.1875V12.593C19.0441 11.8651 19.3759 10.9475 19.375 10ZM15.3125 7.8125C15.7451 7.8125 16.1681 7.94079 16.5278 8.18116C16.8875 8.42153 17.1679 8.76317 17.3335 9.16288C17.4991 9.56259 17.5424 10.0024 17.458 10.4268C17.3736 10.8511 17.1652 11.2409 16.8593 11.5468C16.5534 11.8527 16.1636 12.0611 15.7393 12.1455C15.3149 12.2299 14.8751 12.1866 14.4754 12.021C14.0757 11.8554 13.734 11.575 13.4937 11.2153C13.2533 10.8556 13.125 10.4326 13.125 10C13.125 9.41984 13.3555 8.86344 13.7657 8.4532C14.1759 8.04297 14.7323 7.8125 15.3125 7.8125ZM15.7812 15.1234C15.6397 15.0426 15.4794 15.0001 15.3164 15.0001C15.1534 15.0001 14.9931 15.0426 14.8516 15.1234L14.0625 15.5719V13.8648C14.875 14.1284 15.75 14.1284 16.5625 13.8648V15.5719L15.7812 15.1234ZM10.9375 15C10.9375 15.2486 10.8387 15.4871 10.6629 15.6629C10.4871 15.8387 10.2486 15.9375 10 15.9375H3.125C2.7106 15.9375 2.31317 15.7729 2.02015 15.4799C1.72712 15.1868 1.5625 14.7894 1.5625 14.375V4.375C1.5625 3.9606 1.72712 3.56317 2.02015 3.27015C2.31317 2.97712 2.7106 2.8125 3.125 2.8125H16.875C17.2894 2.8125 17.6868 2.97712 17.9799 3.27015C18.2729 3.56317 18.4375 3.9606 18.4375 4.375C18.4378 4.5964 18.3598 4.81077 18.2172 4.98015C18.0746 5.14952 17.8767 5.26297 17.6585 5.3004C17.4403 5.33783 17.2159 5.29682 17.025 5.18465C16.8341 5.07247 16.6891 4.89635 16.6156 4.6875H3.4375V14.0625H10C10.2486 14.0625 10.4871 14.1613 10.6629 14.3371C10.8387 14.5129 10.9375 14.7514 10.9375 15ZM10 10.9375C10 11.1861 9.90123 11.4246 9.72541 11.6004C9.5496 11.7762 9.31114 11.875 9.0625 11.875H5.9375C5.68886 11.875 5.4504 11.7762 5.27459 11.6004C5.09877 11.4246 5 11.1861 5 10.9375C5 10.6889 5.09877 10.4504 5.27459 10.2746C5.4504 10.0988 5.68886 10 5.9375 10H9.0625C9.31114 10 9.5496 10.0988 9.72541 10.2746C9.90123 10.4504 10 10.6889 10 10.9375ZM10 7.8125C10 8.06114 9.90123 8.2996 9.72541 8.47541C9.5496 8.65123 9.31114 8.75 9.0625 8.75H5.9375C5.68886 8.75 5.4504 8.65123 5.27459 8.47541C5.09877 8.2996 5 8.06114 5 7.8125C5 7.56386 5.09877 7.3254 5.27459 7.14959C5.4504 6.97377 5.68886 6.875 5.9375 6.875H9.0625C9.31114 6.875 9.5496 6.97377 9.72541 7.14959C9.90123 7.3254 10 7.56386 10 7.8125Z" fill="#191F2E"/>
</svg>
