<svg width="20" height="20" viewBox="0 0 20 20" fill="none" xmlns="http://www.w3.org/2000/svg">
<path d="M16.25 10H14.0625V8.4375H15C15.4144 8.4375 15.8118 8.27288 16.1049 7.97985C16.3979 7.68683 16.5625 7.2894 16.5625 6.875V3.125C16.5625 2.7106 16.3979 2.31317 16.1049 2.02015C15.8118 1.72712 15.4144 1.5625 15 1.5625H5C4.5856 1.5625 4.18817 1.72712 3.89515 2.02015C3.60212 2.31317 3.4375 2.7106 3.4375 3.125V6.875C3.4375 7.2894 3.60212 7.68683 3.89515 7.97985C4.18817 8.27288 4.5856 8.4375 5 8.4375H5.9375V10H3.75C3.3356 10 2.93817 10.1646 2.64515 10.4576C2.35212 10.7507 2.1875 11.1481 2.1875 11.5625V13.4375C2.1875 13.6427 2.22792 13.8459 2.30644 14.0354C2.38496 14.225 2.50005 14.3973 2.64515 14.5424C2.79024 14.6874 2.96249 14.8025 3.15206 14.8811C3.34163 14.9596 3.54481 15 3.75 15H4.375V17.5C4.375 17.7486 4.47377 17.9871 4.64959 18.1629C4.8254 18.3387 5.06386 18.4375 5.3125 18.4375C5.56114 18.4375 5.7996 18.3387 5.97541 18.1629C6.15123 17.9871 6.25 17.7486 6.25 17.5V15H13.75V17.5C13.75 17.7486 13.8488 17.9871 14.0246 18.1629C14.2004 18.3387 14.4389 18.4375 14.6875 18.4375C14.9361 18.4375 15.1746 18.3387 15.3504 18.1629C15.5262 17.9871 15.625 17.7486 15.625 17.5V15H16.25C16.4552 15 16.6584 14.9596 16.8479 14.8811C17.0375 14.8025 17.2098 14.6874 17.3549 14.5424C17.4999 14.3973 17.615 14.225 17.6936 14.0354C17.7721 13.8459 17.8125 13.6427 17.8125 13.4375V11.5625C17.8125 11.1481 17.6479 10.7507 17.3549 10.4576C17.0618 10.1646 16.6644 10 16.25 10ZM5.3125 3.4375H14.6875V6.5625H5.3125V3.4375ZM7.8125 8.4375H12.1875V10H7.8125V8.4375ZM15.9375 13.125H4.0625V11.875H15.9375V13.125Z" fill="#191F2E"/>
</svg>
