<svg width="20" height="20" viewBox="0 0 20 20" fill="none" xmlns="http://www.w3.org/2000/svg">
<path d="M16.25 10.625H13.75V8.125H15C15.3315 8.125 15.6495 7.9933 15.8839 7.75888C16.1183 7.52446 16.25 7.20652 16.25 6.875V3.125C16.25 2.79348 16.1183 2.47554 15.8839 2.24112C15.6495 2.0067 15.3315 1.875 15 1.875H5C4.66848 1.875 4.35054 2.0067 4.11612 2.24112C3.8817 2.47554 3.75 2.79348 3.75 3.125V6.875C3.75 7.20652 3.8817 7.52446 4.11612 7.75888C4.35054 7.9933 4.66848 8.125 5 8.125H6.25V10.625H3.75C3.41848 10.625 3.10054 10.7567 2.86612 10.9911C2.6317 11.2255 2.5 11.5435 2.5 11.875V13.125C2.5 13.4565 2.6317 13.7745 2.86612 14.0089C3.10054 14.2433 3.41848 14.375 3.75 14.375H4.375V17.5C4.375 17.6658 4.44085 17.8247 4.55806 17.9419C4.67527 18.0592 4.83424 18.125 5 18.125C5.16576 18.125 5.32473 18.0592 5.44194 17.9419C5.55915 17.8247 5.625 17.6658 5.625 17.5V14.375H14.375V17.5C14.375 17.6658 14.4408 17.8247 14.5581 17.9419C14.6753 18.0592 14.8342 18.125 15 18.125C15.1658 18.125 15.3247 18.0592 15.4419 17.9419C15.5592 17.8247 15.625 17.6658 15.625 17.5V14.375H16.25C16.5815 14.375 16.8995 14.2433 17.1339 14.0089C17.3683 13.7745 17.5 13.4565 17.5 13.125V11.875C17.5 11.5435 17.3683 11.2255 17.1339 10.9911C16.8995 10.7567 16.5815 10.625 16.25 10.625ZM12.5 10.625H7.5V8.125H12.5V10.625Z" fill="#191F2E"/>
</svg>
