<svg width="20" height="20" viewBox="0 0 20 20" fill="none" xmlns="http://www.w3.org/2000/svg">
<path d="M18.75 15H18.125V4.375C18.125 4.04348 17.9933 3.72554 17.7589 3.49112C17.5245 3.2567 17.2065 3.125 16.875 3.125H3.125C2.79348 3.125 2.47554 3.2567 2.24112 3.49112C2.0067 3.72554 1.875 4.04348 1.875 4.375V15H1.25C1.08424 15 0.925268 15.0658 0.808058 15.1831C0.690848 15.3003 0.625 15.4592 0.625 15.625C0.625 15.7908 0.690848 15.9497 0.808058 16.0669C0.925268 16.1842 1.08424 16.25 1.25 16.25H18.75C18.9158 16.25 19.0747 16.1842 19.1919 16.0669C19.3092 15.9497 19.375 15.7908 19.375 15.625C19.375 15.4592 19.3092 15.3003 19.1919 15.1831C19.0747 15.0658 18.9158 15 18.75 15ZM3.125 4.375H16.875V15H15.625V13.125C15.625 12.9592 15.5592 12.8003 15.4419 12.6831C15.3247 12.5658 15.1658 12.5 15 12.5H9.375C9.20924 12.5 9.05027 12.5658 8.93306 12.6831C8.81585 12.8003 8.75 12.9592 8.75 13.125V15H5.625V6.875H14.375V10.625C14.375 10.7908 14.4408 10.9497 14.5581 11.0669C14.6753 11.1842 14.8342 11.25 15 11.25C15.1658 11.25 15.3247 11.1842 15.4419 11.0669C15.5592 10.9497 15.625 10.7908 15.625 10.625V6.25C15.625 6.08424 15.5592 5.92527 15.4419 5.80806C15.3247 5.69085 15.1658 5.625 15 5.625H5C4.83424 5.625 4.67527 5.69085 4.55806 5.80806C4.44085 5.92527 4.375 6.08424 4.375 6.25V15H3.125V4.375ZM14.375 15H10V13.75H14.375V15Z" fill="#191F2E"/>
</svg>
