<svg width="20" height="20" viewBox="0 0 20 20" fill="none" xmlns="http://www.w3.org/2000/svg">
<path d="M18.75 15H18.125V4.375C18.125 4.04348 17.9933 3.72554 17.7589 3.49112C17.5245 3.2567 17.2065 3.125 16.875 3.125H3.125C2.79348 3.125 2.47554 3.2567 2.24112 3.49112C2.0067 3.72554 1.875 4.04348 1.875 4.375V15H1.25C1.08424 15 0.925268 15.0658 0.808058 15.1831C0.690848 15.3003 0.625 15.4592 0.625 15.625C0.625 15.7908 0.690848 15.9497 0.808058 16.0669C0.925268 16.1842 1.08424 16.25 1.25 16.25H18.75C18.9158 16.25 19.0747 16.1842 19.1919 16.0669C19.3092 15.9497 19.375 15.7908 19.375 15.625C19.375 15.4592 19.3092 15.3003 19.1919 15.1831C19.0747 15.0658 18.9158 15 18.75 15ZM16.875 15H11.25V13.75C11.25 13.5842 11.3158 13.4253 11.4331 13.3081C11.5503 13.1908 11.7092 13.125 11.875 13.125H16.25C16.4158 13.125 16.5747 13.1908 16.6919 13.3081C16.8092 13.4253 16.875 13.5842 16.875 13.75V15ZM16.875 11.25C16.875 11.4158 16.8092 11.5747 16.6919 11.6919C16.5747 11.8092 16.4158 11.875 16.25 11.875C16.0842 11.875 15.9253 11.8092 15.8081 11.6919C15.6908 11.5747 15.625 11.4158 15.625 11.25V5.625H4.375V14.375C4.375 14.5408 4.30915 14.6997 4.19194 14.8169C4.07473 14.9342 3.91576 15 3.75 15C3.58424 15 3.42527 14.9342 3.30806 14.8169C3.19085 14.6997 3.125 14.5408 3.125 14.375V5C3.125 4.83424 3.19085 4.67527 3.30806 4.55806C3.42527 4.44085 3.58424 4.375 3.75 4.375H16.25C16.4158 4.375 16.5747 4.44085 16.6919 4.55806C16.8092 4.67527 16.875 4.83424 16.875 5V11.25Z" fill="#191F2E"/>
</svg>
