<svg width="20" height="20" viewBox="0 0 20 20" fill="none" xmlns="http://www.w3.org/2000/svg">
<path d="M1.875 13.125V4.375C1.875 4.04348 2.0067 3.72554 2.24112 3.49112C2.47554 3.2567 2.79348 3.125 3.125 3.125H16.875C17.2065 3.125 17.5245 3.2567 17.7589 3.49112C17.9933 3.72554 18.125 4.04348 18.125 4.375V13.125C18.125 13.2908 18.0592 13.4497 17.9419 13.5669C17.8247 13.6842 17.6658 13.75 17.5 13.75C17.3342 13.75 17.1753 13.6842 17.0581 13.5669C16.9408 13.4497 16.875 13.2908 16.875 13.125V4.375H3.125V13.125C3.125 13.2908 3.05915 13.4497 2.94194 13.5669C2.82473 13.6842 2.66576 13.75 2.5 13.75C2.33424 13.75 2.17527 13.6842 2.05806 13.5669C1.94085 13.4497 1.875 13.2908 1.875 13.125ZM19.375 15.625C19.375 15.7908 19.3092 15.9497 19.1919 16.0669C19.0747 16.1842 18.9158 16.25 18.75 16.25H1.25C1.08424 16.25 0.925268 16.1842 0.808058 16.0669C0.690848 15.9497 0.625 15.7908 0.625 15.625C0.625 15.4592 0.690848 15.3003 0.808058 15.1831C0.925268 15.0658 1.08424 15 1.25 15H8.75V13.125C8.75 12.9592 8.81585 12.8003 8.93306 12.6831C9.05027 12.5658 9.20924 12.5 9.375 12.5H14.375C14.5408 12.5 14.6997 12.5658 14.8169 12.6831C14.9342 12.8003 15 12.9592 15 13.125V15H18.75C18.9158 15 19.0747 15.0658 19.1919 15.1831C19.3092 15.3003 19.375 15.4592 19.375 15.625ZM10 15H13.75V13.75H10V15Z" fill="#191F2E"/>
</svg>
