<svg width="20" height="20" viewBox="0 0 20 20" fill="none" xmlns="http://www.w3.org/2000/svg">
<path d="M1.5625 12.5V4.375C1.5625 3.9606 1.72712 3.56317 2.02015 3.27015C2.31317 2.97712 2.7106 2.8125 3.125 2.8125H16.875C17.2894 2.8125 17.6868 2.97712 17.9799 3.27015C18.2729 3.56317 18.4375 3.9606 18.4375 4.375V12.5C18.4375 12.7486 18.3387 12.9871 18.1629 13.1629C17.9871 13.3387 17.7486 13.4375 17.5 13.4375C17.2514 13.4375 17.0129 13.3387 16.8371 13.1629C16.6613 12.9871 16.5625 12.7486 16.5625 12.5V4.6875H3.4375V12.5C3.4375 12.7486 3.33873 12.9871 3.16291 13.1629C2.9871 13.3387 2.74864 13.4375 2.5 13.4375C2.25136 13.4375 2.0129 13.3387 1.83709 13.1629C1.66127 12.9871 1.5625 12.7486 1.5625 12.5ZM19.6875 15.625C19.6875 15.8736 19.5887 16.1121 19.4129 16.2879C19.2371 16.4637 18.9986 16.5625 18.75 16.5625H1.25C1.00136 16.5625 0.762903 16.4637 0.587087 16.2879C0.411272 16.1121 0.3125 15.8736 0.3125 15.625C0.3125 15.3764 0.411272 15.1379 0.587087 14.9621C0.762903 14.7863 1.00136 14.6875 1.25 14.6875H8.4375V12.5C8.4375 12.2514 8.53627 12.0129 8.71209 11.8371C8.8879 11.6613 9.12636 11.5625 9.375 11.5625H14.375C14.6236 11.5625 14.8621 11.6613 15.0379 11.8371C15.2137 12.0129 15.3125 12.2514 15.3125 12.5V14.6875H18.75C18.9986 14.6875 19.2371 14.7863 19.4129 14.9621C19.5887 15.1379 19.6875 15.3764 19.6875 15.625ZM10.3125 14.6875H13.4375V13.4375H10.3125V14.6875Z" fill="#191F2E"/>
</svg>
