<svg width="20" height="20" viewBox="0 0 20 20" fill="none" xmlns="http://www.w3.org/2000/svg">
<path d="M18.75 14.6875H18.4375V4.375C18.4375 3.9606 18.2729 3.56317 17.9799 3.27015C17.6868 2.97712 17.2894 2.8125 16.875 2.8125H3.125C2.7106 2.8125 2.31317 2.97712 2.02015 3.27015C1.72712 3.56317 1.5625 3.9606 1.5625 4.375V14.6875H1.25C1.00136 14.6875 0.762903 14.7863 0.587087 14.9621C0.411272 15.1379 0.3125 15.3764 0.3125 15.625C0.3125 15.8736 0.411272 16.1121 0.587087 16.2879C0.762903 16.4637 1.00136 16.5625 1.25 16.5625H18.75C18.9986 16.5625 19.2371 16.4637 19.4129 16.2879C19.5887 16.1121 19.6875 15.8736 19.6875 15.625C19.6875 15.3764 19.5887 15.1379 19.4129 14.9621C19.2371 14.7863 18.9986 14.6875 18.75 14.6875ZM3.4375 4.6875H16.5625V14.6875H15.3125V12.5C15.3125 12.2514 15.2137 12.0129 15.0379 11.8371C14.8621 11.6613 14.6236 11.5625 14.375 11.5625H9.375C9.12636 11.5625 8.8879 11.6613 8.71209 11.8371C8.53627 12.0129 8.4375 12.2514 8.4375 12.5V14.6875H6.5625V7.8125H13.4375V9.375C13.4375 9.62364 13.5363 9.8621 13.7121 10.0379C13.8879 10.2137 14.1264 10.3125 14.375 10.3125C14.6236 10.3125 14.8621 10.2137 15.0379 10.0379C15.2137 9.8621 15.3125 9.62364 15.3125 9.375V6.875C15.3125 6.62636 15.2137 6.3879 15.0379 6.21209C14.8621 6.03627 14.6236 5.9375 14.375 5.9375H5.625C5.37636 5.9375 5.1379 6.03627 4.96209 6.21209C4.78627 6.3879 4.6875 6.62636 4.6875 6.875V14.6875H3.4375V4.6875ZM13.4375 14.6875H10.3125V13.4375H13.4375V14.6875Z" fill="#191F2E"/>
</svg>
