<svg width="20" height="20" viewBox="0 0 20 20" fill="none" xmlns="http://www.w3.org/2000/svg">
<path d="M11.7117 1.05703C11.671 0.931454 11.5915 0.82201 11.4847 0.744397C11.3779 0.666783 11.2492 0.624986 11.1172 0.625H7.6336C7.50157 0.624986 7.37293 0.666783 7.26612 0.744397C7.15931 0.82201 7.07983 0.931454 7.03907 1.05703C6.56355 2.58471 6.19264 4.143 5.92891 5.72109C5.36172 9.17813 5.58907 11.6398 6.60469 13.0383C6.85392 13.3898 7.17315 13.686 7.54235 13.9083C7.91154 14.1305 8.3227 14.274 8.75 14.3297V18.125H7.5C7.33424 18.125 7.17527 18.1908 7.05806 18.3081C6.94085 18.4253 6.875 18.5842 6.875 18.75C6.875 18.9158 6.94085 19.0747 7.05806 19.1919C7.17527 19.3092 7.33424 19.375 7.5 19.375H11.25C11.4158 19.375 11.5747 19.3092 11.6919 19.1919C11.8092 19.0747 11.875 18.9158 11.875 18.75C11.875 18.5842 11.8092 18.4253 11.6919 18.3081C11.5747 18.1908 11.4158 18.125 11.25 18.125H10V14.3297C10.4274 14.2743 10.8387 14.1309 11.2079 13.9086C11.5771 13.6864 11.8963 13.39 12.1453 13.0383C13.1609 11.6398 13.3891 9.17813 12.8219 5.72109C12.5582 4.143 12.1872 2.58471 11.7117 1.05703ZM7.32813 5C7.5625 3.78281 7.85391 2.67109 8.09297 1.875H10.6578C10.8969 2.67109 11.1867 3.78281 11.4234 5H7.32813ZM18.125 4.0625C18.125 4.24792 18.07 4.42918 17.967 4.58335C17.864 4.73752 17.7176 4.85768 17.5463 4.92864C17.375 4.99959 17.1865 5.01816 17.0046 4.98199C16.8228 4.94581 16.6557 4.85652 16.5246 4.72541C16.3935 4.5943 16.3042 4.42725 16.268 4.2454C16.2318 4.06354 16.2504 3.87504 16.3214 3.70373C16.3923 3.53243 16.5125 3.38601 16.6667 3.283C16.8208 3.17998 17.0021 3.125 17.1875 3.125C17.4361 3.125 17.6746 3.22377 17.8504 3.39959C18.0262 3.5754 18.125 3.81386 18.125 4.0625ZM14.375 1.5625C14.375 1.37708 14.43 1.19582 14.533 1.04165C14.636 0.887482 14.7824 0.767321 14.9537 0.696363C15.125 0.625406 15.3135 0.606841 15.4954 0.643014C15.6773 0.679188 15.8443 0.768476 15.9754 0.899588C16.1065 1.0307 16.1958 1.19775 16.232 1.3796C16.2682 1.56146 16.2496 1.74996 16.1786 1.92127C16.1077 2.09257 15.9875 2.23899 15.8334 2.342C15.6792 2.44502 15.4979 2.5 15.3125 2.5C15.0639 2.5 14.8254 2.40123 14.6496 2.22541C14.4738 2.0496 14.375 1.81114 14.375 1.5625ZM16.25 7.8125C16.25 7.99792 16.195 8.17918 16.092 8.33335C15.989 8.48752 15.8426 8.60768 15.6713 8.67864C15.5 8.74959 15.3115 8.76816 15.1296 8.73199C14.9478 8.69581 14.7807 8.60652 14.6496 8.47541C14.5185 8.3443 14.4292 8.17726 14.393 7.9954C14.3568 7.81354 14.3754 7.62504 14.4464 7.45373C14.5173 7.28243 14.6375 7.13601 14.7917 7.033C14.9458 6.92998 15.1271 6.875 15.3125 6.875C15.5611 6.875 15.7996 6.97377 15.9754 7.14959C16.1512 7.3254 16.25 7.56386 16.25 7.8125Z" fill="#191F2E"/>
</svg>
