<svg width="20" height="20" viewBox="0 0 20 20" fill="none" xmlns="http://www.w3.org/2000/svg">
<path d="M12.0078 0.960157C11.9466 0.771926 11.8274 0.607892 11.6673 0.491552C11.5072 0.375212 11.3143 0.312535 11.1164 0.312501H7.63203C7.4341 0.312535 7.24126 0.375212 7.08113 0.491552C6.92101 0.607892 6.80181 0.771926 6.74062 0.960157C6.25977 2.50281 5.88494 4.07653 5.61874 5.67031C5.03749 9.2125 5.28437 11.7531 6.35078 13.2219C6.85147 13.9216 7.59583 14.4088 8.43749 14.5875V17.8125H7.49999C7.25135 17.8125 7.0129 17.9113 6.83708 18.0871C6.66127 18.2629 6.56249 18.5014 6.56249 18.75C6.56249 18.9986 6.66127 19.2371 6.83708 19.4129C7.0129 19.5887 7.25135 19.6875 7.49999 19.6875H11.25C11.4986 19.6875 11.7371 19.5887 11.9129 19.4129C12.0887 19.2371 12.1875 18.9986 12.1875 18.75C12.1875 18.5014 12.0887 18.2629 11.9129 18.0871C11.7371 17.9113 11.4986 17.8125 11.25 17.8125H10.3125V14.5875C11.1539 14.4086 11.8979 13.9215 12.3984 13.2219C13.4656 11.7531 13.7117 9.2125 13.1305 5.67031C12.864 4.07651 12.4889 2.50279 12.0078 0.960157ZM10.4187 2.1875C10.5812 2.75391 10.8203 3.64844 11.0375 4.6875H7.71093C7.92812 3.64844 8.16718 2.75391 8.32968 2.1875H10.4187ZM10.8805 12.1203C10.5367 12.5891 10.0586 12.8125 9.37421 12.8125C8.68984 12.8125 8.21171 12.5922 7.86796 12.1203C7.17812 11.1719 7.00859 9.20938 7.37968 6.5625H11.3687C11.7398 9.20938 11.5703 11.1719 10.8805 12.1203ZM18.75 4.375C18.75 4.62223 18.6767 4.8639 18.5393 5.06946C18.402 5.27502 18.2068 5.43524 17.9783 5.52985C17.7499 5.62446 17.4986 5.64921 17.2561 5.60098C17.0137 5.55275 16.7909 5.4337 16.6161 5.25888C16.4413 5.08407 16.3222 4.86134 16.274 4.61886C16.2258 4.37639 16.2505 4.12505 16.3451 3.89665C16.4398 3.66824 16.6 3.47302 16.8055 3.33566C17.0111 3.19831 17.2528 3.125 17.5 3.125C17.8315 3.125 18.1495 3.2567 18.3839 3.49112C18.6183 3.72554 18.75 4.04348 18.75 4.375ZM14.0625 1.5625C14.0625 1.31527 14.1358 1.0736 14.2732 0.868038C14.4105 0.662476 14.6057 0.502261 14.8341 0.407651C15.0625 0.313042 15.3139 0.288287 15.5564 0.336519C15.7988 0.38475 16.0216 0.503801 16.1964 0.678617C16.3712 0.853433 16.4902 1.07616 16.5385 1.31864C16.5867 1.56111 16.562 1.81245 16.4673 2.04085C16.3727 2.26926 16.2125 2.46449 16.007 2.60184C15.8014 2.73919 15.5597 2.8125 15.3125 2.8125C14.981 2.8125 14.663 2.6808 14.4286 2.44638C14.1942 2.21196 14.0625 1.89402 14.0625 1.5625ZM16.875 8.125C16.875 8.37223 16.8017 8.6139 16.6643 8.81946C16.527 9.02502 16.3318 9.18524 16.1033 9.27985C15.8749 9.37446 15.6236 9.39921 15.3811 9.35098C15.1387 9.30275 14.9159 9.1837 14.7411 9.00888C14.5663 8.83407 14.4472 8.61134 14.399 8.36886C14.3508 8.12639 14.3755 7.87505 14.4701 7.64665C14.5648 7.41824 14.725 7.22302 14.9305 7.08566C15.1361 6.94831 15.3778 6.875 15.625 6.875C15.9565 6.875 16.2745 7.0067 16.5089 7.24112C16.7433 7.47554 16.875 7.79348 16.875 8.125Z" fill="#191F2E"/>
</svg>
