<svg width="20" height="20" viewBox="0 0 20 20" fill="none" xmlns="http://www.w3.org/2000/svg">
<path d="M16.875 3.125H3.125C2.79348 3.125 2.47554 3.2567 2.24112 3.49112C2.0067 3.72554 1.875 4.04348 1.875 4.375V15.625C1.875 15.9565 2.0067 16.2745 2.24112 16.5089C2.47554 16.7433 2.79348 16.875 3.125 16.875H16.875C17.2065 16.875 17.5245 16.7433 17.7589 16.5089C17.9933 16.2745 18.125 15.9565 18.125 15.625V4.375C18.125 4.04348 17.9933 3.72554 17.7589 3.49112C17.5245 3.2567 17.2065 3.125 16.875 3.125ZM15.625 13.75C15.7908 13.75 15.9497 13.8158 16.0669 13.9331C16.1842 14.0503 16.25 14.2092 16.25 14.375C16.25 14.5408 16.1842 14.6997 16.0669 14.8169C15.9497 14.9342 15.7908 15 15.625 15H4.375C4.20924 15 4.05027 14.9342 3.93306 14.8169C3.81585 14.6997 3.75 14.5408 3.75 14.375V5.625C3.75 5.45924 3.81585 5.30027 3.93306 5.18306C4.05027 5.06585 4.20924 5 4.375 5C4.54076 5 4.69973 5.06585 4.81694 5.18306C4.93415 5.30027 5 5.45924 5 5.625V10.5406L7.725 8.26953C7.82855 8.18324 7.95722 8.13274 8.09182 8.12556C8.22642 8.11838 8.35973 8.1549 8.47188 8.22969L11.8313 10.4711L15.2227 7.64453C15.3501 7.53844 15.5144 7.48732 15.6796 7.50241C15.8447 7.51751 15.997 7.59757 16.1031 7.725C16.2092 7.85243 16.2603 8.01678 16.2452 8.1819C16.2302 8.34702 16.1501 8.49938 16.0227 8.60547L12.2727 11.7305C12.1691 11.8168 12.0404 11.8673 11.9058 11.8744C11.7712 11.8816 11.6379 11.8451 11.5258 11.7703L8.16641 9.52891L5 12.168V13.75H15.625Z" fill="#191F2E"/>
</svg>
