<svg width="20" height="20" viewBox="0 0 20 20" fill="none" xmlns="http://www.w3.org/2000/svg">
<path d="M18.4375 16.25C18.4375 16.4986 18.3387 16.7371 18.1629 16.9129C17.9871 17.0887 17.7486 17.1875 17.5 17.1875H2.5C2.25136 17.1875 2.0129 17.0887 1.83709 16.9129C1.66127 16.7371 1.5625 16.4986 1.5625 16.25V3.75C1.5625 3.50136 1.66127 3.2629 1.83709 3.08709C2.0129 2.91127 2.25136 2.8125 2.5 2.8125C2.74864 2.8125 2.9871 2.91127 3.16291 3.08709C3.33873 3.2629 3.4375 3.50136 3.4375 3.75V4.60938L7.5 8.67188L9.33672 6.83438C9.42382 6.74698 9.52731 6.67763 9.64126 6.63031C9.75522 6.58299 9.87739 6.55864 10.0008 6.55864C10.1242 6.55864 10.2463 6.58299 10.3603 6.63031C10.4743 6.67763 10.5777 6.74698 10.6648 6.83438L14.6875 10.8594V10C14.6875 9.75136 14.7863 9.5129 14.9621 9.33709C15.1379 9.16127 15.3764 9.0625 15.625 9.0625C15.8736 9.0625 16.1121 9.16127 16.2879 9.33709C16.4637 9.5129 16.5625 9.75136 16.5625 10V13.125C16.5625 13.1562 16.5609 13.1875 16.5578 13.2188C16.5578 13.2312 16.5539 13.2445 16.5523 13.257C16.5508 13.2695 16.5477 13.2922 16.5445 13.3094C16.5414 13.3266 16.5375 13.3391 16.5336 13.3531C16.5297 13.3672 16.5266 13.3836 16.5219 13.3984L16.507 13.4406C16.5016 13.4555 16.4969 13.4703 16.4906 13.4844C16.4844 13.4984 16.4789 13.5109 16.4727 13.5234C16.4664 13.5359 16.4594 13.5531 16.4516 13.568C16.4438 13.5828 16.4375 13.5914 16.4305 13.6031C16.4234 13.6148 16.4141 13.6328 16.4047 13.6469C16.3953 13.6609 16.3859 13.6719 16.3766 13.6836C16.3672 13.6953 16.3594 13.7086 16.35 13.7203C16.3406 13.732 16.3141 13.7617 16.2945 13.7812L16.2883 13.7891L16.2805 13.7953C16.2609 13.8148 16.2406 13.8328 16.2195 13.8508L16.1836 13.8773C16.1711 13.8867 16.1586 13.8969 16.1461 13.9055C16.1336 13.9141 16.1172 13.9227 16.1031 13.9313C16.0891 13.9398 16.0797 13.9461 16.0672 13.9523C16.0547 13.9586 16.0383 13.9664 16.0234 13.9734C16.0086 13.9805 15.9977 13.9859 15.9836 13.9914L15.9414 14.0078L15.8969 14.0227C15.8828 14.0271 15.8684 14.0308 15.8539 14.0336L15.8086 14.0453L15.7586 14.0523L15.7172 14.0586C15.6865 14.0615 15.6558 14.0628 15.625 14.0625H12.5C12.2514 14.0625 12.0129 13.9637 11.8371 13.7879C11.6613 13.6121 11.5625 13.3736 11.5625 13.125C11.5625 12.8764 11.6613 12.6379 11.8371 12.4621C12.0129 12.2863 12.2514 12.1875 12.5 12.1875H13.3594L10 8.82812L8.16328 10.6656C8.07618 10.753 7.97269 10.8224 7.85874 10.8697C7.74478 10.917 7.62261 10.9414 7.49922 10.9414C7.37583 10.9414 7.25366 10.917 7.1397 10.8697C7.02575 10.8224 6.92225 10.753 6.83516 10.6656L3.4375 7.26562V15.3125H17.5C17.7486 15.3125 17.9871 15.4113 18.1629 15.5871C18.3387 15.7629 18.4375 16.0014 18.4375 16.25Z" fill="#191F2E"/>
</svg>
