<svg width="20" height="20" viewBox="0 0 20 20" fill="none" xmlns="http://www.w3.org/2000/svg">
<path d="M10.7336 1.87973C10.5609 1.86467 10.387 1.88568 10.2229 1.94143C10.0588 1.99717 9.90813 2.08643 9.78038 2.20354C9.65262 2.32064 9.55061 2.46304 9.48082 2.62167C9.41104 2.78031 9.375 2.95173 9.37501 3.12504V6.30238C9.37285 6.59721 9.47589 6.88315 9.66562 7.10882C9.85536 7.3345 10.1193 7.48512 10.4102 7.53363C10.8748 7.61159 11.308 7.81926 11.6597 8.13272C12.0115 8.44617 12.2675 8.85264 12.3983 9.30529C12.5291 9.75793 12.5293 10.2383 12.3989 10.6911C12.2685 11.1438 12.0128 11.5505 11.6613 11.8642C11.3098 12.178 10.8768 12.386 10.4122 12.4644C9.94763 12.5427 9.47036 12.4882 9.03541 12.307C8.60047 12.1259 8.22556 11.8256 7.95391 11.4406C7.68225 11.0557 7.52491 10.6018 7.50001 10.1313C7.46798 9.4891 7.59923 8.95941 7.89063 8.54848C8.0619 8.30957 8.14265 8.01756 8.11846 7.72461C8.09428 7.43165 7.96673 7.15684 7.7586 6.94926L5.60079 4.74066C5.47779 4.61766 5.33048 4.52168 5.16827 4.45887C5.00606 4.39606 4.83252 4.36779 4.65876 4.37588C4.485 4.38397 4.31484 4.42823 4.15917 4.50585C4.0035 4.58346 3.86573 4.6927 3.7547 4.8266C2.45233 6.38753 1.78505 8.38139 1.88551 10.4118C1.98596 12.4422 2.8468 14.3604 4.29688 15.7852C5.81313 17.2895 7.86414 18.131 10 18.125H10.1164C12.2293 18.0891 14.2456 17.2337 15.7398 15.7393C17.234 14.245 18.0893 12.2286 18.125 10.1157C18.1836 5.87348 14.9367 2.25629 10.7336 1.87973ZM4.71251 5.62035L6.86954 7.82269V7.82738C6.54936 8.28686 6.34829 8.81866 6.28438 9.37504H3.15313C3.2783 7.99385 3.82237 6.68384 4.71251 5.62035ZM3.15391 10.625H6.30235C6.43196 11.393 6.79745 12.1015 7.34807 12.6522C7.89868 13.203 8.60711 13.5687 9.37501 13.6985V16.8469C7.77426 16.7007 6.27536 15.9982 5.13882 14.8615C4.00228 13.7248 3.29995 12.2258 3.15391 10.625ZM14.8547 14.8547C13.7226 15.9947 12.225 16.6992 10.625 16.8446V13.6985C11.3493 13.5779 12.0216 13.2454 12.557 12.743C13.0689 12.2661 13.4372 11.6555 13.6202 10.9803C13.8032 10.305 13.7937 9.59204 13.5927 8.92193C13.3917 8.25181 13.0072 7.65128 12.4828 7.18823C11.9584 6.72517 11.3149 6.41806 10.625 6.3016V3.12504C14.1813 3.44379 16.9274 6.50629 16.875 10.0977C16.8505 11.8867 16.1251 13.5948 14.8547 14.8547Z" fill="#191F2E"/>
</svg>
