<svg width="20" height="20" viewBox="0 0 20 20" fill="none" xmlns="http://www.w3.org/2000/svg">
<path d="M10 1.5625C8.33122 1.5625 6.69992 2.05735 5.31238 2.98448C3.92484 3.9116 2.84338 5.22936 2.20477 6.77111C1.56616 8.31286 1.39907 10.0094 1.72463 11.6461C2.05019 13.2828 2.85379 14.7862 4.03379 15.9662C5.2138 17.1462 6.71721 17.9498 8.35393 18.2754C9.99064 18.6009 11.6871 18.4338 13.2289 17.7952C14.7706 17.1566 16.0884 16.0752 17.0155 14.6876C17.9427 13.3001 18.4375 11.6688 18.4375 10C18.435 7.763 17.5453 5.61833 15.9635 4.03653C14.3817 2.45473 12.237 1.56498 10 1.5625ZM16.4945 9.0625H15.2281C15.0349 7.99554 14.5205 7.013 13.7537 6.24627C12.987 5.47953 12.0045 4.96514 10.9375 4.77188V3.50547C12.3386 3.71011 13.6361 4.36145 14.6374 5.36265C15.6386 6.36386 16.2899 7.66145 16.4945 9.0625ZM9.0625 9.0625H6.69375C6.85466 8.49887 7.15662 7.98556 7.57109 7.57109C7.98557 7.15662 8.49887 6.85466 9.0625 6.69375V9.0625ZM9.0625 10.9375V13.3063C8.49887 13.1453 7.98557 12.8434 7.57109 12.4289C7.15662 12.0144 6.85466 11.5011 6.69375 10.9375H9.0625ZM10.9375 10.9375H13.3063C13.1453 11.5011 12.8434 12.0144 12.4289 12.4289C12.0144 12.8434 11.5011 13.1453 10.9375 13.3063V10.9375ZM10.9375 9.0625V6.69375C11.5011 6.85466 12.0144 7.15662 12.4289 7.57109C12.8434 7.98556 13.1453 8.49887 13.3063 9.0625H10.9375ZM9.0625 3.50547V4.77188C7.99554 4.96514 7.013 5.47953 6.24627 6.24627C5.47953 7.013 4.96515 7.99554 4.77188 9.0625H3.50547C3.71011 7.66145 4.36145 6.36386 5.36266 5.36265C6.36386 4.36145 7.66145 3.71011 9.0625 3.50547ZM3.50547 10.9375H4.77188C4.96515 12.0045 5.47953 12.987 6.24627 13.7537C7.013 14.5205 7.99554 15.0349 9.0625 15.2281V16.4945C7.66145 16.2899 6.36386 15.6386 5.36266 14.6373C4.36145 13.6361 3.71011 12.3385 3.50547 10.9375ZM10.9375 16.4945V15.2281C12.0045 15.0349 12.987 14.5205 13.7537 13.7537C14.5205 12.987 15.0349 12.0045 15.2281 10.9375H16.4945C16.2899 12.3385 15.6386 13.6361 14.6374 14.6373C13.6361 15.6386 12.3386 16.2899 10.9375 16.4945Z" fill="#191F2E"/>
</svg>
