<svg width="20" height="20" viewBox="0 0 20 20" fill="none" xmlns="http://www.w3.org/2000/svg">
<path d="M18.8281 5.44219L17.3172 3.93281C17.1999 3.81554 17.0409 3.74965 16.875 3.74965C16.7091 3.74965 16.5501 3.81554 16.4328 3.93281C16.3155 4.05009 16.2497 4.20915 16.2497 4.375C16.2497 4.54085 16.3155 4.69991 16.4328 4.81719L17.9422 6.32812C18.0588 6.44486 18.1245 6.60297 18.125 6.76797V13.125C18.125 13.2908 18.0592 13.4497 17.9419 13.5669C17.8247 13.6842 17.6658 13.75 17.5 13.75C17.3342 13.75 17.1753 13.6842 17.0581 13.5669C16.9408 13.4497 16.875 13.2908 16.875 13.125V10C16.875 9.50272 16.6775 9.02581 16.3258 8.67417C15.9742 8.32254 15.4973 8.125 15 8.125H13.75V4.375C13.75 3.87772 13.5525 3.40081 13.2008 3.04917C12.8492 2.69754 12.3723 2.5 11.875 2.5H5.625C5.12772 2.5 4.65081 2.69754 4.29917 3.04917C3.94754 3.40081 3.75 3.87772 3.75 4.375V16.25H2.5C2.33424 16.25 2.17527 16.3158 2.05806 16.4331C1.94085 16.5503 1.875 16.7092 1.875 16.875C1.875 17.0408 1.94085 17.1997 2.05806 17.3169C2.17527 17.4342 2.33424 17.5 2.5 17.5H15C15.1658 17.5 15.3247 17.4342 15.4419 17.3169C15.5592 17.1997 15.625 17.0408 15.625 16.875C15.625 16.7092 15.5592 16.5503 15.4419 16.4331C15.3247 16.3158 15.1658 16.25 15 16.25H13.75V9.375H15C15.1658 9.375 15.3247 9.44085 15.4419 9.55806C15.5592 9.67527 15.625 9.83424 15.625 10V13.125C15.625 13.6223 15.8225 14.0992 16.1742 14.4508C16.5258 14.8025 17.0027 15 17.5 15C17.9973 15 18.4742 14.8025 18.8258 14.4508C19.1775 14.0992 19.375 13.6223 19.375 13.125V6.76797C19.3759 6.52181 19.3281 6.27791 19.2342 6.05036C19.1404 5.8228 19.0023 5.6161 18.8281 5.44219ZM10.5805 10.2344L9.33047 13.3594C9.26831 13.5133 9.14754 13.6363 8.99473 13.7012C8.84191 13.7661 8.66957 13.7676 8.51562 13.7055C8.36168 13.6433 8.23872 13.5225 8.17382 13.3697C8.10891 13.2169 8.10737 13.0446 8.16953 12.8906L9.07656 10.625H7.5C7.39757 10.6252 7.29666 10.6002 7.20616 10.5522C7.11566 10.5042 7.03834 10.4347 6.981 10.3498C6.92366 10.2649 6.88807 10.1673 6.87735 10.0654C6.86663 9.96353 6.88112 9.86058 6.91953 9.76562L8.16953 6.64062C8.20031 6.5644 8.2458 6.49498 8.30341 6.43633C8.36101 6.37768 8.42961 6.33096 8.50527 6.29882C8.58094 6.26668 8.66219 6.24976 8.7444 6.24903C8.8266 6.24829 8.90815 6.26375 8.98438 6.29453C9.0606 6.32531 9.13002 6.3708 9.18867 6.42841C9.24732 6.48602 9.29404 6.55461 9.32618 6.63027C9.35832 6.70594 9.37524 6.78719 9.37597 6.8694C9.37671 6.9516 9.36125 7.03315 9.33047 7.10938L8.42344 9.375H10C10.1024 9.37482 10.2033 9.39983 10.2938 9.44781C10.3843 9.49579 10.4617 9.56528 10.519 9.65017C10.5763 9.73505 10.6119 9.83273 10.6226 9.9346C10.6334 10.0365 10.6189 10.1394 10.5805 10.2344Z" fill="#191F2E"/>
</svg>
