<svg width="20" height="20" viewBox="0 0 20 20" fill="none" xmlns="http://www.w3.org/2000/svg">
<path d="M18.4375 16.25C18.4375 16.4986 18.3387 16.7371 18.1629 16.9129C17.9871 17.0887 17.7486 17.1875 17.5 17.1875H2.5C2.25136 17.1875 2.0129 17.0887 1.83709 16.9129C1.66127 16.7371 1.5625 16.4986 1.5625 16.25V3.75C1.5625 3.50136 1.66127 3.2629 1.83709 3.08709C2.0129 2.91127 2.25136 2.8125 2.5 2.8125C2.74864 2.8125 2.9871 2.91127 3.16291 3.08709C3.33873 3.2629 3.4375 3.50136 3.4375 3.75V15.3125H17.5C17.7486 15.3125 17.9871 15.4113 18.1629 15.5871C18.3387 15.7629 18.4375 16.0014 18.4375 16.25ZM9.0625 11.5625C9.0625 11.8097 9.13581 12.0514 9.27316 12.257C9.41051 12.4625 9.60574 12.6227 9.83415 12.7174C10.0626 12.812 10.3139 12.8367 10.5564 12.7885C10.7988 12.7403 11.0216 12.6212 11.1964 12.4464C11.3712 12.2716 11.4903 12.0488 11.5385 11.8064C11.5867 11.5639 11.562 11.3126 11.4674 11.0841C11.3727 10.8557 11.2125 10.6605 11.007 10.5232C10.8014 10.3858 10.5597 10.3125 10.3125 10.3125C9.98098 10.3125 9.66304 10.4442 9.42862 10.6786C9.1942 10.913 9.0625 11.231 9.0625 11.5625ZM8.4375 8.4375C8.68473 8.4375 8.9264 8.36419 9.13196 8.22684C9.33752 8.08949 9.49774 7.89426 9.59235 7.66585C9.68696 7.43745 9.71171 7.18611 9.66348 6.94364C9.61525 6.70116 9.4962 6.47843 9.32138 6.30362C9.14657 6.1288 8.92384 6.00975 8.68136 5.96152C8.43889 5.91329 8.18755 5.93804 7.95915 6.03265C7.73074 6.12726 7.53551 6.28748 7.39816 6.49304C7.26081 6.6986 7.1875 6.94027 7.1875 7.1875C7.1875 7.51902 7.3192 7.83696 7.55362 8.07138C7.78804 8.3058 8.10598 8.4375 8.4375 8.4375ZM5.9375 14.0625C6.18473 14.0625 6.4264 13.9892 6.63196 13.8518C6.83752 13.7145 6.99774 13.5193 7.09235 13.2909C7.18696 13.0624 7.21171 12.8111 7.16348 12.5686C7.11525 12.3262 6.9962 12.1034 6.82138 11.9286C6.64657 11.7538 6.42384 11.6347 6.18136 11.5865C5.93889 11.5383 5.68755 11.563 5.45915 11.6576C5.23074 11.7523 5.03551 11.9125 4.89816 12.118C4.76081 12.3236 4.6875 12.5653 4.6875 12.8125C4.6875 13.144 4.8192 13.462 5.05362 13.6964C5.28804 13.9308 5.60598 14.0625 5.9375 14.0625ZM13.4375 10.3125C13.6847 10.3125 13.9264 10.2392 14.132 10.1018C14.3375 9.96449 14.4977 9.76926 14.5924 9.54085C14.687 9.31245 14.7117 9.06111 14.6635 8.81864C14.6153 8.57616 14.4962 8.35343 14.3214 8.17862C14.1466 8.0038 13.9238 7.88475 13.6814 7.83652C13.4389 7.78829 13.1876 7.81304 12.9591 7.90765C12.7307 8.00226 12.5355 8.16248 12.3982 8.36804C12.2608 8.5736 12.1875 8.81527 12.1875 9.0625C12.1875 9.39402 12.3192 9.71196 12.5536 9.94638C12.788 10.1808 13.106 10.3125 13.4375 10.3125ZM15.3125 7.1875C15.5597 7.1875 15.8014 7.11419 16.007 6.97684C16.2125 6.83949 16.3727 6.64426 16.4674 6.41585C16.562 6.18745 16.5867 5.93611 16.5385 5.69364C16.4903 5.45116 16.3712 5.22843 16.1964 5.05362C16.0216 4.8788 15.7988 4.75975 15.5564 4.71152C15.3139 4.66329 15.0626 4.68804 14.8341 4.78265C14.6057 4.87726 14.4105 5.03748 14.2732 5.24304C14.1358 5.4486 14.0625 5.69027 14.0625 5.9375C14.0625 6.26902 14.1942 6.58696 14.4286 6.82138C14.663 7.0558 14.981 7.1875 15.3125 7.1875ZM13.4375 12.8125C13.4375 13.0597 13.5108 13.3014 13.6482 13.507C13.7855 13.7125 13.9807 13.8727 14.2091 13.9674C14.4376 14.062 14.6889 14.0867 14.9314 14.0385C15.1738 13.9903 15.3966 13.8712 15.5714 13.6964C15.7462 13.5216 15.8653 13.2988 15.9135 13.0564C15.9617 12.8139 15.937 12.5626 15.8424 12.3341C15.7477 12.1057 15.5875 11.9105 15.382 11.7732C15.1764 11.6358 14.9347 11.5625 14.6875 11.5625C14.356 11.5625 14.038 11.6942 13.8036 11.9286C13.5692 12.163 13.4375 12.481 13.4375 12.8125Z" fill="#191F2E"/>
</svg>
