<svg width="20" height="20" viewBox="0 0 20 20" fill="none" xmlns="http://www.w3.org/2000/svg">
<path d="M18.4375 16.25C18.4375 16.4986 18.3387 16.7371 18.1629 16.9129C17.9871 17.0887 17.7486 17.1875 17.5 17.1875H2.5C2.25136 17.1875 2.0129 17.0887 1.83709 16.9129C1.66127 16.7371 1.5625 16.4986 1.5625 16.25V3.75C1.5625 3.50136 1.66127 3.2629 1.83709 3.08709C2.0129 2.91127 2.25136 2.8125 2.5 2.8125C2.74864 2.8125 2.9871 2.91127 3.16291 3.08709C3.33873 3.2629 3.4375 3.50136 3.4375 3.75V10.4336L6.88281 7.42188C7.04456 7.28036 7.25001 7.19872 7.46477 7.19061C7.67953 7.1825 7.89055 7.24843 8.0625 7.37734L12.4547 10.6711L16.8828 6.79688C16.9735 6.70633 17.0818 6.63535 17.2011 6.58832C17.3203 6.54128 17.4479 6.5192 17.576 6.52342C17.7041 6.52765 17.83 6.55809 17.9458 6.61288C18.0617 6.66767 18.1651 6.74563 18.2497 6.84196C18.3342 6.93828 18.3981 7.05092 18.4374 7.17291C18.4767 7.29491 18.4906 7.42366 18.4782 7.55123C18.4658 7.6788 18.4273 7.80246 18.3652 7.91459C18.3032 8.02671 18.2187 8.12491 18.1172 8.20312L13.1172 12.5781C12.9554 12.7196 12.75 12.8013 12.5352 12.8094C12.3205 12.8175 12.1095 12.7516 11.9375 12.6227L7.54531 9.33125L3.4375 12.9258V15.3125H17.5C17.7486 15.3125 17.9871 15.4113 18.1629 15.5871C18.3387 15.7629 18.4375 16.0014 18.4375 16.25Z" fill="#191F2E"/>
</svg>
