<svg width="20" height="20" viewBox="0 0 20 20" fill="none" xmlns="http://www.w3.org/2000/svg">
<path d="M10.7766 9.47422C10.8625 9.60117 10.9159 9.74725 10.9323 9.89966C10.9486 10.0521 10.9273 10.2062 10.8703 10.3484L9.62031 13.4734C9.55069 13.6473 9.43058 13.7964 9.27546 13.9014C9.12033 14.0064 8.93731 14.0625 8.75 14.0625C8.63061 14.0628 8.5123 14.0399 8.40156 13.9953C8.17075 13.9029 7.98609 13.7226 7.88822 13.494C7.79036 13.2655 7.78728 13.0074 7.87969 12.7766L8.61562 10.9375H7.5C7.34677 10.9375 7.19588 10.8999 7.06054 10.8281C6.92519 10.7563 6.80951 10.6524 6.72363 10.5255C6.63775 10.3986 6.58428 10.2526 6.5679 10.1002C6.55152 9.94785 6.57274 9.79381 6.62969 9.65156L7.87969 6.52656C7.97342 6.29764 8.15384 6.11504 8.38161 6.01856C8.60939 5.92207 8.86607 5.91952 9.09572 6.01146C9.32537 6.10341 9.50938 6.28239 9.60764 6.50941C9.7059 6.73642 9.71046 6.99308 9.62031 7.22344L8.88438 9.0625H10C10.1532 9.06244 10.3041 9.09994 10.4395 9.17171C10.5749 9.24349 10.6906 9.34735 10.7766 9.47422ZM20 6.76797V12.9688C20 13.5904 19.7531 14.1865 19.3135 14.626C18.874 15.0656 18.2779 15.3125 17.6562 15.3125C17.0346 15.3125 16.4385 15.0656 15.999 14.626C15.5594 14.1865 15.3125 13.5904 15.3125 12.9688V10C15.3125 9.91712 15.2796 9.83763 15.221 9.77903C15.1624 9.72042 15.0829 9.6875 15 9.6875H14.0625V15.9375H15C15.2486 15.9375 15.4871 16.0363 15.6629 16.2121C15.8387 16.3879 15.9375 16.6264 15.9375 16.875C15.9375 17.1236 15.8387 17.3621 15.6629 17.5379C15.4871 17.7137 15.2486 17.8125 15 17.8125H2.5C2.25136 17.8125 2.0129 17.7137 1.83709 17.5379C1.66127 17.3621 1.5625 17.1236 1.5625 16.875C1.5625 16.6264 1.66127 16.3879 1.83709 16.2121C2.0129 16.0363 2.25136 15.9375 2.5 15.9375H3.4375V4.375C3.4375 3.79484 3.66797 3.23844 4.0782 2.8282C4.48844 2.41797 5.04484 2.1875 5.625 2.1875H11.875C12.4552 2.1875 13.0116 2.41797 13.4218 2.8282C13.832 3.23844 14.0625 3.79484 14.0625 4.375V7.8125H15C15.5802 7.8125 16.1366 8.04297 16.5468 8.4532C16.957 8.86344 17.1875 9.41984 17.1875 10V12.9688C17.1875 13.0931 17.2369 13.2123 17.3248 13.3002C17.4127 13.3881 17.5319 13.4375 17.6562 13.4375C17.7806 13.4375 17.8998 13.3881 17.9877 13.3002C18.0756 13.2123 18.125 13.0931 18.125 12.9688V6.76797C18.125 6.72692 18.117 6.68626 18.1013 6.64833C18.0856 6.61039 18.0626 6.57592 18.0336 6.54688L16.5242 5.03828C16.437 4.95108 16.3678 4.84755 16.3206 4.73361C16.2734 4.61967 16.2492 4.49755 16.2492 4.37422C16.2492 4.12515 16.3481 3.88628 16.5242 3.71016C16.7003 3.53404 16.9392 3.43509 17.1883 3.43509C17.3116 3.43509 17.4337 3.45938 17.5477 3.50658C17.6616 3.55377 17.7651 3.62295 17.8523 3.71016L19.3594 5.22109C19.5632 5.42375 19.7247 5.66482 19.8347 5.93034C19.9446 6.19587 20.0008 6.48057 20 6.76797ZM12.1875 15.9375V4.375C12.1875 4.29212 12.1546 4.21263 12.096 4.15403C12.0374 4.09542 11.9579 4.0625 11.875 4.0625H5.625C5.54212 4.0625 5.46263 4.09542 5.40403 4.15403C5.34542 4.21263 5.3125 4.29212 5.3125 4.375V15.9375H12.1875Z" fill="#191F2E"/>
</svg>
