<svg width="20" height="20" viewBox="0 0 20 20" fill="none" xmlns="http://www.w3.org/2000/svg">
<path d="M10.5172 9.64922C10.5746 9.73379 10.6104 9.83114 10.6214 9.93274C10.6324 10.0344 10.6184 10.1371 10.5805 10.232L9.33047 13.357C9.26862 13.511 9.14815 13.6341 8.99555 13.6992C8.84296 13.7643 8.67075 13.7661 8.5168 13.7043C8.36285 13.6424 8.23977 13.522 8.17465 13.3694C8.10952 13.2168 8.10768 13.0446 8.16953 12.8906L9.07656 10.625H7.5C7.39757 10.6252 7.29666 10.6002 7.20616 10.5522C7.11566 10.5042 7.03834 10.4347 6.981 10.3498C6.92366 10.2649 6.88807 10.1673 6.87735 10.0654C6.86663 9.96353 6.88112 9.86058 6.91953 9.76562L8.16953 6.64062C8.20031 6.5644 8.2458 6.49498 8.30341 6.43633C8.36101 6.37768 8.42961 6.33096 8.50527 6.29882C8.58094 6.26668 8.66219 6.24976 8.7444 6.24903C8.8266 6.24829 8.90815 6.26375 8.98438 6.29453C9.0606 6.32531 9.13002 6.3708 9.18867 6.42841C9.24732 6.48602 9.29404 6.55461 9.32618 6.63027C9.35832 6.70594 9.37524 6.78719 9.37597 6.8694C9.37671 6.9516 9.36125 7.03315 9.33047 7.10938L8.42344 9.375H10C10.102 9.37501 10.2025 9.40001 10.2927 9.44782C10.3828 9.49562 10.4599 9.56476 10.5172 9.64922ZM19.375 6.76797V13.125C19.375 13.6223 19.1775 14.0992 18.8258 14.4508C18.4742 14.8025 17.9973 15 17.5 15C17.0027 15 16.5258 14.8025 16.1742 14.4508C15.8225 14.0992 15.625 13.6223 15.625 13.125V10C15.625 9.83424 15.5592 9.67527 15.4419 9.55806C15.3247 9.44085 15.1658 9.375 15 9.375H13.75V16.25H15C15.1658 16.25 15.3247 16.3158 15.4419 16.4331C15.5592 16.5503 15.625 16.7092 15.625 16.875C15.625 17.0408 15.5592 17.1997 15.4419 17.3169C15.3247 17.4342 15.1658 17.5 15 17.5H2.5C2.33424 17.5 2.17527 17.4342 2.05806 17.3169C1.94085 17.1997 1.875 17.0408 1.875 16.875C1.875 16.7092 1.94085 16.5503 2.05806 16.4331C2.17527 16.3158 2.33424 16.25 2.5 16.25H3.75V4.375C3.75 3.87772 3.94754 3.40081 4.29917 3.04917C4.65081 2.69754 5.12772 2.5 5.625 2.5H11.875C12.3723 2.5 12.8492 2.69754 13.2008 3.04917C13.5525 3.40081 13.75 3.87772 13.75 4.375V8.125H15C15.4973 8.125 15.9742 8.32254 16.3258 8.67417C16.6775 9.02581 16.875 9.50272 16.875 10V13.125C16.875 13.2908 16.9408 13.4497 17.0581 13.5669C17.1753 13.6842 17.3342 13.75 17.5 13.75C17.6658 13.75 17.8247 13.6842 17.9419 13.5669C18.0592 13.4497 18.125 13.2908 18.125 13.125V6.76797C18.1245 6.60297 18.0588 6.44486 17.9422 6.32812L16.4328 4.81719C16.3155 4.69991 16.2497 4.54085 16.2497 4.375C16.2497 4.20915 16.3155 4.05009 16.4328 3.93281C16.5501 3.81554 16.7091 3.74965 16.875 3.74965C17.0409 3.74965 17.1999 3.81554 17.3172 3.93281L18.8281 5.44219C19.0023 5.6161 19.1404 5.8228 19.2342 6.05036C19.3281 6.27791 19.3759 6.52181 19.375 6.76797ZM12.5 16.25V4.375C12.5 4.20924 12.4342 4.05027 12.3169 3.93306C12.1997 3.81585 12.0408 3.75 11.875 3.75H5.625C5.45924 3.75 5.30027 3.81585 5.18306 3.93306C5.06585 4.05027 5 4.20924 5 4.375V16.25H12.5Z" fill="#191F2E"/>
</svg>
