<svg width="20" height="20" viewBox="0 0 20 20" fill="none" xmlns="http://www.w3.org/2000/svg">
<path d="M9.37493 15.589V17.7562C9.37522 17.8004 9.36611 17.8442 9.34821 17.8847C9.33031 17.9251 9.30402 17.9613 9.27108 17.9909C9.23814 18.0204 9.1993 18.0426 9.15714 18.0561C9.11497 18.0695 9.07044 18.0738 9.02649 18.0687C7.22182 17.848 5.54293 17.0297 4.25733 15.7441C2.97174 14.4585 2.15341 12.7796 1.93274 10.9749C1.92765 10.931 1.93195 10.8864 1.94536 10.8443C1.95877 10.8021 1.98098 10.7633 2.01052 10.7303C2.04006 10.6974 2.07626 10.6711 2.11673 10.6532C2.15719 10.6353 2.20099 10.6262 2.24524 10.6265H4.41086C4.55465 11.8933 5.12391 13.0739 6.02559 13.9753C6.92727 14.8767 8.10805 15.4456 9.37493 15.589ZM14.3296 10.6249H10.6249V14.3296C11.559 14.1933 12.4241 13.7591 13.0916 13.0916C13.7591 12.4241 14.1933 11.559 14.3296 10.6249ZM10.6249 5.67024V9.37493H14.3296C14.1933 8.44084 13.7591 7.57571 13.0916 6.90822C12.4241 6.24073 11.559 5.80654 10.6249 5.67024ZM17.7562 10.6249H15.589C15.4455 11.892 14.8764 13.073 13.9747 13.9747C13.073 14.8764 11.892 15.4455 10.6249 15.589V17.7562C10.6246 17.8004 10.6337 17.8442 10.6516 17.8847C10.6695 17.9251 10.6958 17.9613 10.7288 17.9909C10.7617 18.0204 10.8005 18.0426 10.8427 18.0561C10.8849 18.0695 10.9294 18.0738 10.9734 18.0687C12.778 17.848 14.4569 17.0297 15.7425 15.7441C17.0281 14.4585 17.8464 12.7796 18.0671 10.9749C18.0724 10.931 18.0683 10.8864 18.0551 10.8442C18.0419 10.8019 18.0199 10.763 17.9905 10.7299C17.9611 10.6968 17.925 10.6703 17.8846 10.6522C17.8442 10.6341 17.8004 10.6248 17.7562 10.6249ZM15.589 9.37493H17.7562C17.8004 9.37522 17.8442 9.36611 17.8847 9.34821C17.9251 9.33031 17.9613 9.30402 17.9909 9.27108C18.0204 9.23814 18.0426 9.1993 18.0561 9.15714C18.0695 9.11497 18.0738 9.07044 18.0687 9.02649C17.848 7.22182 17.0297 5.54293 15.7441 4.25733C14.4585 2.97174 12.7796 2.15341 10.9749 1.93274C10.931 1.92765 10.8864 1.93195 10.8443 1.94536C10.8021 1.95877 10.7633 1.98098 10.7303 2.01052C10.6974 2.04006 10.6711 2.07626 10.6532 2.11673C10.6353 2.15719 10.6262 2.20099 10.6265 2.24524V4.41086C11.8933 4.55465 13.0739 5.12391 13.9753 6.02559C14.8767 6.92727 15.4456 8.10805 15.589 9.37493ZM9.02649 1.93274C7.22182 2.15341 5.54293 2.97174 4.25733 4.25733C2.97174 5.54293 2.15341 7.22182 1.93274 9.02649C1.92765 9.07044 1.93195 9.11497 1.94536 9.15714C1.95877 9.1993 1.98098 9.23814 2.01052 9.27108C2.04006 9.30402 2.07626 9.33031 2.11673 9.34821C2.15719 9.36611 2.20099 9.37522 2.24524 9.37493H4.41086C4.55432 8.10781 5.12343 6.92685 6.02514 6.02514C6.92685 5.12343 8.10781 4.55432 9.37493 4.41086V2.24368C9.375 2.19956 9.36573 2.15593 9.34773 2.11566C9.32973 2.07538 9.30341 2.03938 9.27049 2.01C9.23758 1.98063 9.19882 1.95856 9.15676 1.94524C9.11471 1.93193 9.07031 1.92767 9.02649 1.93274ZM5.67024 9.37493H9.37493V5.67024C8.44084 5.80654 7.57571 6.24073 6.90822 6.90822C6.24073 7.57571 5.80654 8.44084 5.67024 9.37493ZM9.37493 14.3296V10.6249H5.67024C5.80654 11.559 6.24073 12.4241 6.90822 13.0916C7.57571 13.7591 8.44084 14.1933 9.37493 14.3296Z" fill="#191F2E"/>
</svg>
