<svg width="20" height="20" viewBox="0 0 20 20" fill="none" xmlns="http://www.w3.org/2000/svg">
<path d="M18.125 16.25C18.125 16.4158 18.0592 16.5747 17.9419 16.6919C17.8247 16.8092 17.6658 16.875 17.5 16.875H2.5C2.33424 16.875 2.17527 16.8092 2.05806 16.6919C1.94085 16.5747 1.875 16.4158 1.875 16.25V3.75C1.875 3.58424 1.94085 3.42527 2.05806 3.30806C2.17527 3.19085 2.33424 3.125 2.5 3.125C2.66576 3.125 2.82473 3.19085 2.94194 3.30806C3.05915 3.42527 3.125 3.58424 3.125 3.75V4.74141L7.5 9.11641L9.55781 7.05781C9.61586 6.9997 9.68479 6.9536 9.76066 6.92215C9.83654 6.8907 9.91787 6.87451 10 6.87451C10.0821 6.87451 10.1635 6.8907 10.2393 6.92215C10.3152 6.9536 10.3841 6.9997 10.4422 7.05781L14.0625 10.6789L15.1828 9.55781C15.2702 9.4703 15.3816 9.4107 15.5029 9.38654C15.6242 9.36239 15.75 9.37477 15.8642 9.42211C15.9785 9.46946 16.0762 9.54964 16.1448 9.65251C16.2135 9.75538 16.2501 9.87632 16.25 10V13.125C16.25 13.2908 16.1842 13.4497 16.0669 13.5669C15.9497 13.6842 15.7908 13.75 15.625 13.75H12.5C12.3763 13.7501 12.2554 13.7135 12.1525 13.6448C12.0496 13.5762 11.9695 13.4785 11.9221 13.3642C11.8748 13.25 11.8624 13.1242 11.8865 13.0029C11.9107 12.8816 11.9703 12.7702 12.0578 12.6828L13.1789 11.5625L10 8.38359L7.94219 10.4422C7.88414 10.5003 7.81521 10.5464 7.73934 10.5779C7.66346 10.6093 7.58213 10.6255 7.5 10.6255C7.41787 10.6255 7.33654 10.6093 7.26066 10.5779C7.18479 10.5464 7.11586 10.5003 7.05781 10.4422L3.125 6.50859V15.625H17.5C17.6658 15.625 17.8247 15.6908 17.9419 15.8081C18.0592 15.9253 18.125 16.0842 18.125 16.25Z" fill="#191F2E"/>
</svg>
