<svg width="20" height="20" viewBox="0 0 20 20" fill="none" xmlns="http://www.w3.org/2000/svg">
<path d="M18.125 16.25C18.125 16.4158 18.0592 16.5747 17.9419 16.6919C17.8247 16.8092 17.6658 16.875 17.5 16.875H2.5C2.33424 16.875 2.17527 16.8092 2.05806 16.6919C1.94085 16.5747 1.875 16.4158 1.875 16.25V3.75C1.875 3.58424 1.94085 3.42527 2.05806 3.30806C2.17527 3.19085 2.33424 3.125 2.5 3.125C2.66576 3.125 2.82473 3.19085 2.94194 3.30806C3.05915 3.42527 3.125 3.58424 3.125 3.75V4.74141L7.5 9.11641L9.55781 7.05781C9.61586 6.9997 9.68479 6.9536 9.76066 6.92215C9.83654 6.8907 9.91787 6.87451 10 6.87451C10.0821 6.87451 10.1635 6.8907 10.2393 6.92215C10.3152 6.9536 10.3841 6.9997 10.4422 7.05781L15 11.6164V10C15 9.83424 15.0658 9.67527 15.1831 9.55806C15.3003 9.44085 15.4592 9.375 15.625 9.375C15.7908 9.375 15.9497 9.44085 16.0669 9.55806C16.1842 9.67527 16.25 9.83424 16.25 10V13.125C16.2512 13.1458 16.2512 13.1667 16.25 13.1875C16.25 13.1961 16.25 13.2039 16.2461 13.2125C16.2422 13.2211 16.2461 13.2359 16.2406 13.2484C16.2389 13.2582 16.2366 13.2679 16.2336 13.2773C16.2336 13.2875 16.2289 13.2977 16.2258 13.3078C16.2227 13.318 16.2195 13.3258 16.2164 13.3352L16.2055 13.3656L16.1938 13.3898C16.1891 13.4 16.1844 13.4109 16.1789 13.4211C16.1734 13.4312 16.1703 13.4352 16.1664 13.443L16.1477 13.4734L16.1312 13.4953L16.1109 13.5227C16.1023 13.5336 16.0922 13.5438 16.0828 13.5539L16.0703 13.568L16.057 13.5797C16.0467 13.5899 16.0357 13.5996 16.0242 13.6086C16.0162 13.6155 16.0079 13.6221 15.9992 13.6281L15.9758 13.6453L15.9461 13.6633C15.9386 13.6682 15.9307 13.6726 15.9227 13.6766L15.8938 13.6914L15.8672 13.7031L15.8391 13.7133C15.8294 13.7174 15.8195 13.7208 15.8094 13.7234L15.7812 13.7312C15.7703 13.7312 15.7609 13.7367 15.75 13.7383L15.7172 13.7437L15.6898 13.7477C15.6693 13.7488 15.6487 13.7488 15.6281 13.7477H12.5C12.3342 13.7477 12.1753 13.6818 12.0581 13.5646C11.9408 13.4474 11.875 13.2884 11.875 13.1227C11.875 12.9569 11.9408 12.7979 12.0581 12.6807C12.1753 12.5635 12.3342 12.4977 12.5 12.4977H14.1164L10 8.38359L7.94219 10.4422C7.88414 10.5003 7.81521 10.5464 7.73934 10.5779C7.66346 10.6093 7.58213 10.6255 7.5 10.6255C7.41787 10.6255 7.33654 10.6093 7.26066 10.5779C7.18479 10.5464 7.11586 10.5003 7.05781 10.4422L3.125 6.50859V15.625H17.5C17.6658 15.625 17.8247 15.6908 17.9419 15.8081C18.0592 15.9253 18.125 16.0842 18.125 16.25Z" fill="#191F2E"/>
</svg>
