<svg width="20" height="20" viewBox="0 0 20 20" fill="none" xmlns="http://www.w3.org/2000/svg">
<path d="M10 1.875C8.39303 1.875 6.82214 2.35152 5.486 3.24431C4.14985 4.1371 3.10844 5.40605 2.49348 6.8907C1.87852 8.37535 1.71762 10.009 2.03112 11.5851C2.34463 13.1612 3.11846 14.6089 4.25476 15.7452C5.39106 16.8815 6.8388 17.6554 8.4149 17.9689C9.99099 18.2824 11.6247 18.1215 13.1093 17.5065C14.594 16.8916 15.8629 15.8502 16.7557 14.514C17.6485 13.1779 18.125 11.607 18.125 10C18.1227 7.84581 17.266 5.78051 15.7427 4.25727C14.2195 2.73403 12.1542 1.87727 10 1.875ZM10 3.125C11.1006 3.12545 12.1851 3.39014 13.1621 3.89683C14.1392 4.40351 14.9804 5.13738 15.6148 6.03672L10 9.27813V3.125ZM10 16.875C8.89937 16.8745 7.81493 16.6099 6.83786 16.1032C5.86079 15.5965 5.01965 14.8626 4.38516 13.9633L16.2414 7.11875C16.7249 8.16621 16.937 9.3185 16.8582 10.4695C16.7795 11.6204 16.4123 12.7331 15.7906 13.7049C15.1689 14.6767 14.3126 15.4765 13.3007 16.0305C12.2888 16.5844 11.1537 16.8749 10 16.875Z" fill="#191F2E"/>
</svg>
