<svg width="20" height="20" viewBox="0 0 20 20" fill="none" xmlns="http://www.w3.org/2000/svg">
<path d="M16.875 7.1875H14.0625V4.375C14.0625 4.12636 13.9637 3.8879 13.7879 3.71209C13.6121 3.53627 13.3736 3.4375 13.125 3.4375H4.0625V3.125C4.0625 2.87636 3.96373 2.6379 3.78791 2.46209C3.6121 2.28627 3.37364 2.1875 3.125 2.1875C2.87636 2.1875 2.6379 2.28627 2.46209 2.46209C2.28627 2.6379 2.1875 2.87636 2.1875 3.125V16.875C2.1875 17.1236 2.28627 17.3621 2.46209 17.5379C2.6379 17.7137 2.87636 17.8125 3.125 17.8125C3.37364 17.8125 3.6121 17.7137 3.78791 17.5379C3.96373 17.3621 4.0625 17.1236 4.0625 16.875V16.5625H10.625C10.8736 16.5625 11.1121 16.4637 11.2879 16.2879C11.4637 16.1121 11.5625 15.8736 11.5625 15.625V12.8125H16.875C17.1236 12.8125 17.3621 12.7137 17.5379 12.5379C17.7137 12.3621 17.8125 12.1236 17.8125 11.875V8.125C17.8125 7.87636 17.7137 7.6379 17.5379 7.46209C17.3621 7.28627 17.1236 7.1875 16.875 7.1875ZM12.1875 5.3125V7.1875H4.0625V5.3125H12.1875ZM9.6875 14.6875H4.0625V12.8125H9.6875V14.6875ZM15.9375 10.9375H4.0625V9.0625H15.9375V10.9375Z" fill="#191F2E"/>
</svg>
