<svg width="20" height="20" viewBox="0 0 20 20" fill="none" xmlns="http://www.w3.org/2000/svg">
<path d="M18.1087 14.6351C18.5495 13.7391 18.7692 12.7505 18.7493 11.7522C18.7295 10.7538 18.4708 9.7747 17.9948 8.8969C17.5188 8.01909 16.8393 7.26812 16.0134 6.70687C15.1875 6.14562 14.2392 5.79043 13.2478 5.67105C12.919 4.90458 12.4401 4.21168 11.8394 3.63315C11.2386 3.05463 10.5282 2.60219 9.74987 2.30249C8.97156 2.00279 8.14115 1.86189 7.30755 1.8881C6.47395 1.9143 5.65403 2.10709 4.89609 2.45508C4.13815 2.80308 3.45752 3.29925 2.89431 3.91437C2.3311 4.52949 1.8967 5.25111 1.6167 6.03672C1.3367 6.82232 1.21676 7.65602 1.26396 8.4887C1.31116 9.32137 1.52453 10.1362 1.89151 10.8851L1.29307 12.9804C1.23967 13.1679 1.23733 13.3662 1.2863 13.5549C1.33526 13.7435 1.43375 13.9157 1.57157 14.0535C1.7094 14.1913 1.88154 14.2898 2.0702 14.3388C2.25886 14.3877 2.45718 14.3854 2.64463 14.332L4.73995 13.7336C5.37222 14.044 6.05234 14.2455 6.75167 14.3296C7.08502 15.1107 7.57404 15.8155 8.18887 16.4013C8.80369 16.987 9.53144 17.4413 10.3277 17.7365C11.1239 18.0316 11.9719 18.1614 12.82 18.1179C13.6681 18.0744 14.4984 17.8586 15.2603 17.4836L17.3556 18.082C17.543 18.1354 17.7413 18.1377 17.93 18.0888C18.1187 18.0398 18.2908 17.9413 18.4286 17.8035C18.5665 17.6657 18.6649 17.4935 18.7139 17.3049C18.7629 17.1162 18.7605 16.9179 18.7071 16.7304L18.1087 14.6351ZM16.8384 14.7398L17.4282 16.8031L15.3649 16.2132C15.2078 16.169 15.0395 16.1881 14.8962 16.2664C13.7441 16.8932 12.392 17.0426 11.1308 16.6826C9.86955 16.3226 8.80007 15.4819 8.15245 14.3414C9.00827 14.2522 9.83644 13.9872 10.585 13.5629C11.3335 13.1386 11.9863 12.5641 12.5024 11.8756C13.0184 11.1871 13.3866 10.3993 13.5839 9.56181C13.7811 8.72427 13.8031 7.855 13.6485 7.00855C14.3975 7.18505 15.0955 7.53201 15.6884 8.02243C16.2813 8.51284 16.7531 9.13348 17.0669 9.83601C17.3807 10.5386 17.5281 11.304 17.4977 12.0729C17.4673 12.8417 17.2598 13.5932 16.8915 14.2687C16.8126 14.4127 16.7935 14.5819 16.8384 14.7398Z" fill="#191F2E"/>
</svg>
