<svg width="20" height="20" viewBox="0 0 20 20" fill="none" xmlns="http://www.w3.org/2000/svg">
<path d="M18.4423 14.6634C18.8772 13.7369 19.0893 12.7215 19.0618 11.6984C19.0342 10.6753 18.7677 9.67281 18.2837 8.77106C17.7996 7.8693 17.1113 7.09327 16.2738 6.50497C15.4363 5.91667 14.4728 5.53242 13.4603 5.38291C13.1021 4.59366 12.5911 3.88317 11.9568 3.29248C11.3225 2.70179 10.5775 2.2426 9.76478 1.94142C8.95205 1.64024 8.08772 1.50304 7.22168 1.53773C6.35564 1.57243 5.50506 1.77833 4.71903 2.14356C3.93301 2.50879 3.22712 3.02611 2.64212 3.66564C2.05712 4.30518 1.6046 5.05426 1.3107 5.86964C1.01679 6.68502 0.887312 7.55055 0.929744 8.41624C0.972176 9.28194 1.18567 10.1307 1.55791 10.9134L0.992288 12.8946C0.923101 13.1361 0.919873 13.3918 0.98294 13.6349C1.04601 13.8781 1.17307 14.1 1.3509 14.2774C1.52874 14.4548 1.75087 14.5814 1.99419 14.6439C2.2375 14.7064 2.49313 14.7026 2.73448 14.6329L4.71573 14.0673C5.29433 14.3371 5.90909 14.5213 6.54072 14.6142C6.90261 15.401 7.41658 16.1085 8.05303 16.6959C8.68948 17.2832 9.43585 17.7389 10.2491 18.0366C11.0624 18.3344 11.9266 18.4683 12.7918 18.4306C13.6571 18.393 14.5064 18.1845 15.2907 17.8173L17.272 18.3829C17.5131 18.4517 17.7682 18.4549 18.0109 18.392C18.2536 18.329 18.4751 18.2024 18.6524 18.0251C18.8297 17.8478 18.9564 17.6263 19.0193 17.3836C19.0822 17.1409 19.0791 16.8857 19.0103 16.6446L18.4423 14.6634ZM4.80713 12.1267C4.71994 12.1266 4.63317 12.1387 4.54932 12.1626L3.02666 12.5978L3.46182 11.0751C3.52967 10.8383 3.50161 10.5843 3.38369 10.3681C2.84465 9.37816 2.68035 8.22717 2.9209 7.12598C3.16145 6.02479 3.79074 5.04715 4.69347 4.37219C5.5962 3.69723 6.7119 3.37016 7.83617 3.45089C8.96043 3.53163 10.018 4.01477 10.815 4.81179C11.612 5.60881 12.0951 6.66634 12.1759 7.7906C12.2566 8.91486 11.9295 10.0306 11.2546 10.9333C10.5796 11.836 9.60198 12.4653 8.50079 12.7059C7.3996 12.9464 6.2486 12.7821 5.25869 12.2431C5.12042 12.1668 4.96502 12.127 4.80713 12.1274V12.1267ZM16.5384 14.8251L16.9735 16.3478L15.4509 15.9126C15.2141 15.8447 14.9601 15.8728 14.7438 15.9907C13.7346 16.5398 12.559 16.6995 11.4399 16.4396C10.3208 16.1797 9.3359 15.5182 8.67198 14.5806C10.3008 14.2863 11.7581 13.387 12.7514 12.063C13.7447 10.739 14.2005 9.08839 14.0274 7.44229C14.6722 7.6641 15.2608 8.0239 15.7522 8.49659C16.2436 8.96929 16.626 9.5435 16.8727 10.1792C17.1193 10.8149 17.2243 11.4967 17.1803 12.1771C17.1364 12.8576 16.9445 13.5202 16.6181 14.1189C16.4996 14.3349 16.471 14.5889 16.5384 14.8259V14.8251Z" fill="#191F2E"/>
</svg>
