<svg width="20" height="20" viewBox="0 0 20 20" fill="none" xmlns="http://www.w3.org/2000/svg">
<path d="M16.875 2.8125H3.125C2.7106 2.8125 2.31317 2.97712 2.02015 3.27015C1.72712 3.56317 1.5625 3.9606 1.5625 4.375V14.375C1.5625 14.7894 1.72712 15.1868 2.02015 15.4799C2.31317 15.7729 2.7106 15.9375 3.125 15.9375H7.59609L8.66016 17.6789C8.79867 17.9097 8.99446 18.1008 9.22855 18.2337C9.46264 18.3666 9.7271 18.4368 9.99628 18.4374C10.2655 18.438 10.5302 18.3691 10.765 18.2373C10.9997 18.1055 11.1964 17.9153 11.3359 17.6852L12.4039 15.9375H16.875C17.2894 15.9375 17.6868 15.7729 17.9799 15.4799C18.2729 15.1868 18.4375 14.7894 18.4375 14.375V4.375C18.4375 3.9606 18.2729 3.56317 17.9799 3.27015C17.6868 2.97712 17.2894 2.8125 16.875 2.8125ZM16.5625 14.0625H12.2289C11.9603 14.0625 11.6963 14.1318 11.4623 14.2635C11.2283 14.3953 11.0322 14.5852 10.893 14.8148L10 16.2758L9.10859 14.8172C8.96892 14.5874 8.77259 14.3973 8.53839 14.2652C8.3042 14.133 8.04 14.0633 7.77109 14.0625H3.4375V4.6875H16.5625V14.0625ZM6.5625 7.8125C6.5625 7.56386 6.66127 7.3254 6.83709 7.14959C7.0129 6.97377 7.25136 6.875 7.5 6.875H12.5C12.7486 6.875 12.9871 6.97377 13.1629 7.14959C13.3387 7.3254 13.4375 7.56386 13.4375 7.8125C13.4375 8.06114 13.3387 8.2996 13.1629 8.47541C12.9871 8.65123 12.7486 8.75 12.5 8.75H7.5C7.25136 8.75 7.0129 8.65123 6.83709 8.47541C6.66127 8.2996 6.5625 8.06114 6.5625 7.8125ZM6.5625 10.9375C6.5625 10.6889 6.66127 10.4504 6.83709 10.2746C7.0129 10.0988 7.25136 10 7.5 10H12.5C12.7486 10 12.9871 10.0988 13.1629 10.2746C13.3387 10.4504 13.4375 10.6889 13.4375 10.9375C13.4375 11.1861 13.3387 11.4246 13.1629 11.6004C12.9871 11.7762 12.7486 11.875 12.5 11.875H7.5C7.25136 11.875 7.0129 11.7762 6.83709 11.6004C6.66127 11.4246 6.5625 11.1861 6.5625 10.9375Z" fill="#191F2E"/>
</svg>
