<svg width="20" height="20" viewBox="0 0 20 20" fill="none" xmlns="http://www.w3.org/2000/svg">
<path d="M16.875 3.125H3.125C2.79348 3.125 2.47554 3.2567 2.24112 3.49112C2.0067 3.72554 1.875 4.04348 1.875 4.375V14.375C1.875 14.7065 2.0067 15.0245 2.24112 15.2589C2.47554 15.4933 2.79348 15.625 3.125 15.625H7.77109L8.92812 17.518C9.03891 17.7028 9.1956 17.8558 9.38297 17.9622C9.57034 18.0686 9.78203 18.1248 9.9975 18.1253C10.213 18.1257 10.4249 18.0705 10.6128 17.9649C10.8006 17.8593 10.9579 17.707 11.0695 17.5227L12.2289 15.625H16.875C17.2065 15.625 17.5245 15.4933 17.7589 15.2589C17.9933 15.0245 18.125 14.7065 18.125 14.375V4.375C18.125 4.04348 17.9933 3.72554 17.7589 3.49112C17.5245 3.2567 17.2065 3.125 16.875 3.125ZM16.875 14.375H12.2289C12.014 14.3755 11.8028 14.4311 11.6155 14.5366C11.4282 14.642 11.2712 14.7938 11.1594 14.9773L10 16.875L8.83984 14.9766C8.72795 14.7933 8.57097 14.6418 8.38387 14.5365C8.19676 14.4312 7.9858 14.3756 7.77109 14.375H3.125V4.375H16.875V14.375Z" fill="#191F2E"/>
</svg>
