<svg width="20" height="20" viewBox="0 0 20 20" fill="none" xmlns="http://www.w3.org/2000/svg">
<path d="M13.2477 5.671C12.682 4.34675 11.6765 3.25843 10.401 2.59004C9.12553 1.92166 7.65839 1.7142 6.2476 2.00275C4.83682 2.2913 3.56895 3.05816 2.65834 4.17367C1.74773 5.28918 1.25025 6.68492 1.25 8.12491V13.2812C1.25 13.5712 1.36523 13.8494 1.57035 14.0546C1.77547 14.2597 2.05367 14.3749 2.34375 14.3749H6.77109C7.25882 15.4887 8.06026 16.4364 9.07758 17.1023C10.0949 17.7682 11.2841 18.1236 12.5 18.1249H17.6562C17.9463 18.1249 18.2245 18.0097 18.4296 17.8046C18.6348 17.5994 18.75 17.3212 18.75 17.0312V11.8749C18.7497 10.347 18.1897 8.8721 17.1759 7.729C16.1621 6.5859 14.7646 5.85378 13.2477 5.671ZM17.5 16.8749H12.5C11.6159 16.8739 10.7477 16.639 9.98375 16.194C9.21976 15.749 8.5871 15.1098 8.15 14.3413C9.00603 14.2525 9.83445 13.9877 10.5833 13.5635C11.3321 13.1393 11.9852 12.5649 12.5015 11.8763C13.0178 11.1878 13.3862 10.3999 13.5836 9.56226C13.7809 8.72457 13.803 7.85513 13.6484 7.0085C14.7447 7.26723 15.7216 7.88856 16.4206 8.77181C17.1197 9.65506 17.5 10.7485 17.5 11.8749V16.8749Z" fill="#191F2E"/>
</svg>
