<svg width="20" height="20" viewBox="0 0 20 20" fill="none" xmlns="http://www.w3.org/2000/svg">
<path d="M13.4375 8.43739C13.4375 8.68603 13.3388 8.92449 13.163 9.1003C12.9871 9.27612 12.7487 9.37489 12.5 9.37489H7.50004C7.2514 9.37489 7.01294 9.27612 6.83713 9.1003C6.66131 8.92449 6.56254 8.68603 6.56254 8.43739C6.56254 8.18875 6.66131 7.95029 6.83713 7.77448C7.01294 7.59866 7.2514 7.49989 7.50004 7.49989H12.5C12.7487 7.49989 12.9871 7.59866 13.163 7.77448C13.3388 7.95029 13.4375 8.18875 13.4375 8.43739ZM12.5 10.6249H7.50004C7.2514 10.6249 7.01294 10.7237 6.83713 10.8995C6.66131 11.0753 6.56254 11.3138 6.56254 11.5624C6.56254 11.811 6.66131 12.0495 6.83713 12.2253C7.01294 12.4011 7.2514 12.4999 7.50004 12.4999H12.5C12.7487 12.4999 12.9871 12.4011 13.163 12.2253C13.3388 12.0495 13.4375 11.811 13.4375 11.5624C13.4375 11.3138 13.3388 11.0753 13.163 10.8995C12.9871 10.7237 12.7487 10.6249 12.5 10.6249ZM18.4375 9.99989C18.4378 11.4452 18.0669 12.8663 17.3602 14.1271C16.6536 15.3878 15.6349 16.4459 14.4019 17.1999C13.1689 17.9539 11.7629 18.3786 10.3187 18.4332C8.87441 18.4877 7.44034 18.1704 6.15395 17.5116L3.62035 18.3593C3.34454 18.4522 3.04825 18.4663 2.76487 18.3999C2.48149 18.3335 2.22229 18.1893 2.01648 17.9834C1.81068 17.7776 1.66644 17.5184 1.60004 17.2351C1.53364 16.9517 1.54771 16.6554 1.64067 16.3796L2.4852 13.846C1.90527 12.71 1.59042 11.4574 1.56431 10.1822C1.53821 8.90703 1.80154 7.64254 2.3345 6.48379C2.86746 5.32505 3.65617 4.30221 4.64135 3.49217C5.62653 2.68214 6.78253 2.10599 8.02244 1.80705C9.26235 1.50811 10.5539 1.49416 11.8 1.76624C13.046 2.03832 14.2142 2.58935 15.2167 3.37791C16.2191 4.16647 17.0298 5.17203 17.5876 6.31899C18.1455 7.46595 18.4361 8.72446 18.4375 9.99989ZM16.5625 9.99989C16.5622 8.99328 16.3302 8.00026 15.8847 7.09763C15.4391 6.195 14.7919 5.40697 13.993 4.79449C13.1942 4.18201 12.2652 3.76151 11.2779 3.5655C10.2905 3.3695 9.27132 3.40326 8.29911 3.66416C7.32691 3.92506 6.42775 4.40611 5.67119 5.07011C4.91464 5.7341 4.32098 6.56323 3.93612 7.49336C3.55126 8.42349 3.38554 9.42969 3.45176 10.4341C3.51798 11.4385 3.81437 12.4143 4.31801 13.2858C4.38458 13.4008 4.42596 13.5285 4.43943 13.6606C4.4529 13.7928 4.43814 13.9262 4.39613 14.0522L3.62035 16.3796L5.9477 15.6038C6.04344 15.5719 6.14366 15.5556 6.24457 15.5554C6.40922 15.5557 6.5709 15.5993 6.71332 15.6819C7.711 16.2592 8.84312 16.5635 9.99578 16.5643C11.1484 16.565 12.281 16.2622 13.2794 15.6862C14.2778 15.1102 15.1069 14.2814 15.6833 13.2832C16.2596 12.285 16.5629 11.1525 16.5625 9.99989Z" fill="#191F2E"/>
</svg>
