<svg width="20" height="20" viewBox="0 0 20 20" fill="none" xmlns="http://www.w3.org/2000/svg">
<path d="M16.875 3.4375H3.12501C2.71061 3.4375 2.31318 3.60212 2.02016 3.89515C1.72713 4.18817 1.56251 4.5856 1.56251 5V17.5C1.56127 17.7976 1.64578 18.0892 1.80595 18.34C1.96611 18.5907 2.19515 18.7901 2.46564 18.9141C2.67328 19.0113 2.89965 19.0619 3.12892 19.0625C3.49582 19.0616 3.85057 18.9309 4.13048 18.6938L4.14533 18.6812L6.56251 16.5625H16.875C17.2894 16.5625 17.6868 16.3979 17.9799 16.1049C18.2729 15.8118 18.4375 15.4144 18.4375 15V5C18.4375 4.5856 18.2729 4.18817 17.9799 3.89515C17.6868 3.60212 17.2894 3.4375 16.875 3.4375ZM16.5625 14.6875H6.44533C6.07749 14.6875 5.72144 14.8172 5.43986 15.0539L5.42501 15.0664L3.43751 16.8078V5.3125H16.5625V14.6875Z" fill="#191F2E"/>
</svg>
