<svg width="20" height="20" viewBox="0 0 20 20" fill="none" xmlns="http://www.w3.org/2000/svg">
<path d="M13.125 8.75C13.125 8.91576 13.0592 9.07473 12.9419 9.19194C12.8247 9.30915 12.6658 9.375 12.5 9.375H7.5C7.33424 9.375 7.17527 9.30915 7.05806 9.19194C6.94085 9.07473 6.875 8.91576 6.875 8.75C6.875 8.58424 6.94085 8.42527 7.05806 8.30806C7.17527 8.19085 7.33424 8.125 7.5 8.125H12.5C12.6658 8.125 12.8247 8.19085 12.9419 8.30806C13.0592 8.42527 13.125 8.58424 13.125 8.75ZM12.5 10.625H7.5C7.33424 10.625 7.17527 10.6908 7.05806 10.8081C6.94085 10.9253 6.875 11.0842 6.875 11.25C6.875 11.4158 6.94085 11.5747 7.05806 11.6919C7.17527 11.8092 7.33424 11.875 7.5 11.875H12.5C12.6658 11.875 12.8247 11.8092 12.9419 11.6919C13.0592 11.5747 13.125 11.4158 13.125 11.25C13.125 11.0842 13.0592 10.9253 12.9419 10.8081C12.8247 10.6908 12.6658 10.625 12.5 10.625ZM18.125 9.6875C18.1227 11.7588 17.2989 13.7446 15.8343 15.2093C14.3696 16.6739 12.3838 17.4977 10.3125 17.5H3.72422C3.39966 17.4996 3.08852 17.3705 2.85902 17.141C2.62953 16.9115 2.50041 16.6003 2.5 16.2758V9.6875C2.5 7.6155 3.3231 5.62836 4.78823 4.16323C6.25336 2.6981 8.2405 1.875 10.3125 1.875C12.3845 1.875 14.3716 2.6981 15.8368 4.16323C17.3019 5.62836 18.125 7.6155 18.125 9.6875ZM16.875 9.6875C16.875 7.94702 16.1836 6.27782 14.9529 5.04711C13.7222 3.8164 12.053 3.125 10.3125 3.125C8.57202 3.125 6.90282 3.8164 5.67211 5.04711C4.4414 6.27782 3.75 7.94702 3.75 9.6875V16.25H10.3125C12.0524 16.2481 13.7205 15.5561 14.9508 14.3258C16.1811 13.0955 16.8731 11.4274 16.875 9.6875Z" fill="#191F2E"/>
</svg>
