<svg width="20" height="20" viewBox="0 0 20 20" fill="none" xmlns="http://www.w3.org/2000/svg">
<path d="M6.875 8.125C6.875 7.95924 6.94085 7.80027 7.05806 7.68306C7.17527 7.56585 7.33424 7.5 7.5 7.5H12.5C12.6658 7.5 12.8247 7.56585 12.9419 7.68306C13.0592 7.80027 13.125 7.95924 13.125 8.125C13.125 8.29076 13.0592 8.44973 12.9419 8.56694C12.8247 8.68415 12.6658 8.75 12.5 8.75H7.5C7.33424 8.75 7.17527 8.68415 7.05806 8.56694C6.94085 8.44973 6.875 8.29076 6.875 8.125ZM7.5 11.25H12.5C12.6658 11.25 12.8247 11.1842 12.9419 11.0669C13.0592 10.9497 13.125 10.7908 13.125 10.625C13.125 10.4592 13.0592 10.3003 12.9419 10.1831C12.8247 10.0658 12.6658 10 12.5 10H7.5C7.33424 10 7.17527 10.0658 7.05806 10.1831C6.94085 10.3003 6.875 10.4592 6.875 10.625C6.875 10.7908 6.94085 10.9497 7.05806 11.0669C7.17527 11.1842 7.33424 11.25 7.5 11.25ZM18.125 4.375V14.375C18.125 14.7065 17.9933 15.0245 17.7589 15.2589C17.5245 15.4933 17.2065 15.625 16.875 15.625H12.2289L11.0695 17.5227C10.9579 17.707 10.8006 17.8593 10.6128 17.9649C10.4249 18.0705 10.213 18.1257 9.9975 18.1253C9.78203 18.1248 9.57034 18.0686 9.38297 17.9622C9.1956 17.8558 9.03891 17.7028 8.92812 17.518L7.77109 15.625H3.125C2.79348 15.625 2.47554 15.4933 2.24112 15.2589C2.0067 15.0245 1.875 14.7065 1.875 14.375V4.375C1.875 4.04348 2.0067 3.72554 2.24112 3.49112C2.47554 3.2567 2.79348 3.125 3.125 3.125H16.875C17.2065 3.125 17.5245 3.2567 17.7589 3.49112C17.9933 3.72554 18.125 4.04348 18.125 4.375ZM16.875 4.375H3.125V14.375H7.77109C7.98628 14.3756 8.19772 14.4314 8.38514 14.5371C8.57255 14.6429 8.72966 14.795 8.84141 14.9789L10 16.875L11.1578 14.975C11.27 14.7917 11.4275 14.6402 11.615 14.5351C11.8026 14.4301 12.0139 14.3749 12.2289 14.375H16.875V4.375Z" fill="#191F2E"/>
</svg>
