<svg width="20" height="20" viewBox="0 0 20 20" fill="none" xmlns="http://www.w3.org/2000/svg">
<path d="M16.875 3.125H3.125C2.79348 3.125 2.47554 3.2567 2.24112 3.49112C2.0067 3.72554 1.875 4.04348 1.875 4.375V14.375C1.875 14.7065 2.0067 15.0245 2.24112 15.2589C2.47554 15.4933 2.79348 15.625 3.125 15.625L7.77344 15.6297L8.92812 17.518C9.03891 17.7028 9.1956 17.8558 9.38297 17.9622C9.57034 18.0686 9.78203 18.1248 9.9975 18.1253C10.213 18.1257 10.4249 18.0705 10.6128 17.9649C10.8006 17.8593 10.9579 17.707 11.0695 17.5227L12.2289 15.625H16.875C17.2065 15.625 17.5245 15.4933 17.7589 15.2589C17.9933 15.0245 18.125 14.7065 18.125 14.375V4.375C18.125 4.04348 17.9933 3.72554 17.7589 3.49112C17.5245 3.2567 17.2065 3.125 16.875 3.125ZM6.5625 10.3125C6.37708 10.3125 6.19582 10.2575 6.04165 10.1545C5.88748 10.0515 5.76732 9.90507 5.69636 9.73377C5.62541 9.56246 5.60684 9.37396 5.64301 9.1921C5.67919 9.01025 5.76848 8.8432 5.89959 8.71209C6.0307 8.58098 6.19775 8.49169 6.3796 8.45551C6.56146 8.41934 6.74996 8.43791 6.92127 8.50886C7.09257 8.57982 7.23899 8.69998 7.342 8.85415C7.44502 9.00832 7.5 9.18958 7.5 9.375C7.5 9.62364 7.40123 9.8621 7.22541 10.0379C7.0496 10.2137 6.81114 10.3125 6.5625 10.3125ZM10 10.3125C9.81458 10.3125 9.63332 10.2575 9.47915 10.1545C9.32498 10.0515 9.20482 9.90507 9.13386 9.73377C9.06291 9.56246 9.04434 9.37396 9.08051 9.1921C9.11669 9.01025 9.20598 8.8432 9.33709 8.71209C9.4682 8.58098 9.63525 8.49169 9.8171 8.45551C9.99896 8.41934 10.1875 8.43791 10.3588 8.50886C10.5301 8.57982 10.6765 8.69998 10.7795 8.85415C10.8825 9.00832 10.9375 9.18958 10.9375 9.375C10.9375 9.62364 10.8387 9.8621 10.6629 10.0379C10.4871 10.2137 10.2486 10.3125 10 10.3125ZM13.4375 10.3125C13.2521 10.3125 13.0708 10.2575 12.9167 10.1545C12.7625 10.0515 12.6423 9.90507 12.5714 9.73377C12.5004 9.56246 12.4818 9.37396 12.518 9.1921C12.5542 9.01025 12.6435 8.8432 12.7746 8.71209C12.9057 8.58098 13.0727 8.49169 13.2546 8.45551C13.4365 8.41934 13.625 8.43791 13.7963 8.50886C13.9676 8.57982 14.114 8.69998 14.217 8.85415C14.32 9.00832 14.375 9.18958 14.375 9.375C14.375 9.62364 14.2762 9.8621 14.1004 10.0379C13.9246 10.2137 13.6861 10.3125 13.4375 10.3125Z" fill="#191F2E"/>
</svg>
