<svg width="20" height="20" viewBox="0 0 20 20" fill="none" xmlns="http://www.w3.org/2000/svg">
<path d="M18.125 5V15C18.125 15.3315 17.9933 15.6495 17.7589 15.8839C17.5245 16.1183 17.2065 16.25 16.875 16.25H6.44533L3.93908 18.4461C3.93607 18.4494 3.93266 18.4523 3.92893 18.4547C3.70447 18.6454 3.41954 18.75 3.12502 18.75C2.94164 18.7497 2.76057 18.7091 2.59455 18.6312C2.37862 18.5317 2.19592 18.3721 2.06832 18.1715C1.94072 17.9709 1.87361 17.7378 1.87502 17.5V5C1.87502 4.66848 2.00672 4.35054 2.24114 4.11612C2.47556 3.8817 2.7935 3.75 3.12502 3.75H16.875C17.2065 3.75 17.5245 3.8817 17.7589 4.11612C17.9933 4.35054 18.125 4.66848 18.125 5Z" fill="#191F2E"/>
</svg>
