<svg width="20" height="20" viewBox="0 0 20 20" fill="none" xmlns="http://www.w3.org/2000/svg">
<path d="M16.875 3.4375H3.12501C2.71061 3.4375 2.31318 3.60212 2.02016 3.89515C1.72713 4.18817 1.56251 4.5856 1.56251 5V17.5C1.56127 17.7976 1.64578 18.0892 1.80595 18.34C1.96611 18.5907 2.19515 18.7901 2.46564 18.9141C2.67328 19.0113 2.89965 19.0619 3.12892 19.0625C3.49582 19.0616 3.85057 18.9309 4.13048 18.6938L4.14533 18.6812L6.56251 16.5625H16.875C17.2894 16.5625 17.6868 16.3979 17.9799 16.1049C18.2729 15.8118 18.4375 15.4144 18.4375 15V5C18.4375 4.5856 18.2729 4.18817 17.9799 3.89515C17.6868 3.60212 17.2894 3.4375 16.875 3.4375ZM16.5625 14.6875H6.44533C6.07749 14.6875 5.72144 14.8172 5.43986 15.0539L5.42501 15.0664L3.43751 16.8078V5.3125H16.5625V14.6875ZM6.56251 8.4375C6.56251 8.18886 6.66129 7.9504 6.8371 7.77459C7.01292 7.59877 7.25137 7.5 7.50001 7.5H12.5C12.7487 7.5 12.9871 7.59877 13.1629 7.77459C13.3387 7.9504 13.4375 8.18886 13.4375 8.4375C13.4375 8.68614 13.3387 8.9246 13.1629 9.10041C12.9871 9.27623 12.7487 9.375 12.5 9.375H7.50001C7.25137 9.375 7.01292 9.27623 6.8371 9.10041C6.66129 8.9246 6.56251 8.68614 6.56251 8.4375ZM6.56251 11.5625C6.56251 11.3139 6.66129 11.0754 6.8371 10.8996C7.01292 10.7238 7.25137 10.625 7.50001 10.625H12.5C12.7487 10.625 12.9871 10.7238 13.1629 10.8996C13.3387 11.0754 13.4375 11.3139 13.4375 11.5625C13.4375 11.8111 13.3387 12.0496 13.1629 12.2254C12.9871 12.4012 12.7487 12.5 12.5 12.5H7.50001C7.25137 12.5 7.01292 12.4012 6.8371 12.2254C6.66129 12.0496 6.56251 11.8111 6.56251 11.5625Z" fill="#191F2E"/>
</svg>
