<svg width="20" height="20" viewBox="0 0 20 20" fill="none" xmlns="http://www.w3.org/2000/svg">
<path d="M10 1.5625C8.55476 1.56219 7.13362 1.93314 5.87287 2.63979C4.61212 3.34644 3.55402 4.36509 2.80001 5.5981C2.04599 6.83111 1.62134 8.23713 1.56676 9.68138C1.51219 11.1256 1.82951 12.5597 2.48832 13.8461L1.64067 16.3797C1.54771 16.6555 1.53364 16.9518 1.60004 17.2352C1.66644 17.5186 1.81068 17.7778 2.01648 17.9836C2.22229 18.1894 2.48149 18.3336 2.76487 18.4C3.04825 18.4664 3.34454 18.4523 3.62035 18.3594L6.15395 17.5148C7.28991 18.0948 8.54257 18.4096 9.81773 18.4357C11.0929 18.4618 12.3574 18.1985 13.5161 17.6655C14.6749 17.1326 15.6977 16.3439 16.5078 15.3587C17.3178 14.3735 17.8939 13.2175 18.1929 11.9776C18.4918 10.7377 18.5058 9.44615 18.2337 8.20008C17.9616 6.954 17.4106 5.78582 16.622 4.78337C15.8335 3.78092 14.8279 2.97028 13.6809 2.41241C12.534 1.85454 11.2755 1.56396 10 1.5625ZM10 16.5625C8.84638 16.5629 7.71298 16.2592 6.7141 15.682C6.57168 15.5994 6.41001 15.5558 6.24535 15.5555C6.14444 15.5557 6.04422 15.572 5.94848 15.6039L3.62113 16.3797L4.39692 14.0523C4.43892 13.9264 4.45368 13.7929 4.44021 13.6607C4.42674 13.5286 4.38536 13.4009 4.31879 13.2859C3.59534 12.0353 3.30485 10.5808 3.49239 9.1482C3.67993 7.71559 4.335 6.38491 5.356 5.3626C6.37699 4.34029 7.70682 3.6835 9.13919 3.49412C10.5716 3.30474 12.0264 3.59335 13.278 4.31519C14.5296 5.03703 15.508 6.15173 16.0614 7.48638C16.6148 8.82103 16.7123 10.301 16.3387 11.6967C15.9652 13.0924 15.1415 14.3258 13.9954 15.2056C12.8493 16.0854 11.4449 16.5624 10 16.5625Z" fill="#191F2E"/>
</svg>
