<svg width="20" height="20" viewBox="0 0 20 20" fill="none" xmlns="http://www.w3.org/2000/svg">
<path d="M10.3125 1.5625C8.15831 1.56477 6.09301 2.42153 4.56977 3.94477C3.04653 5.46801 2.18977 7.53331 2.1875 9.6875V16.2758C2.18791 16.6832 2.34995 17.0738 2.63805 17.3619C2.92615 17.65 3.31678 17.8121 3.72422 17.8125H10.3125C12.4674 17.8125 14.534 16.9565 16.0577 15.4327C17.5815 13.909 18.4375 11.8424 18.4375 9.6875C18.4375 7.53262 17.5815 5.46599 16.0577 3.94226C14.534 2.41852 12.4674 1.5625 10.3125 1.5625ZM10.3125 15.9375H4.0625V9.6875C4.0625 8.45137 4.42906 7.24299 5.11581 6.21519C5.80257 5.18738 6.77869 4.3863 7.92073 3.91325C9.06277 3.44021 10.3194 3.31643 11.5318 3.55759C12.7442 3.79875 13.8578 4.394 14.7319 5.26808C15.606 6.14216 16.2013 7.2558 16.4424 8.46819C16.6836 9.68057 16.5598 10.9372 16.0867 12.0793C15.6137 13.2213 14.8126 14.1974 13.7848 14.8842C12.757 15.5709 11.5486 15.9375 10.3125 15.9375ZM9.6875 10C9.6875 10.2472 9.61419 10.4889 9.47684 10.6945C9.33949 10.9 9.14426 11.0602 8.91585 11.1549C8.68745 11.2495 8.43611 11.2742 8.19364 11.226C7.95116 11.1778 7.72843 11.0587 7.55362 10.8839C7.3788 10.7091 7.25975 10.4863 7.21152 10.2439C7.16329 10.0014 7.18804 9.75005 7.28265 9.52165C7.37726 9.29324 7.53748 9.09801 7.74304 8.96066C7.9486 8.82331 8.19027 8.75 8.4375 8.75C8.76902 8.75 9.08696 8.8817 9.32138 9.11612C9.5558 9.35054 9.6875 9.66848 9.6875 10ZM13.4375 10C13.4375 10.2472 13.3642 10.4889 13.2268 10.6945C13.0895 10.9 12.8943 11.0602 12.6659 11.1549C12.4374 11.2495 12.1861 11.2742 11.9436 11.226C11.7012 11.1778 11.4784 11.0587 11.3036 10.8839C11.1288 10.7091 11.0097 10.4863 10.9615 10.2439C10.9133 10.0014 10.938 9.75005 11.0326 9.52165C11.1273 9.29324 11.2875 9.09801 11.493 8.96066C11.6986 8.82331 11.9403 8.75 12.1875 8.75C12.519 8.75 12.837 8.8817 13.0714 9.11612C13.3058 9.35054 13.4375 9.66848 13.4375 10Z" fill="#191F2E"/>
</svg>
