<svg width="20" height="20" viewBox="0 0 20 20" fill="none" xmlns="http://www.w3.org/2000/svg">
<path d="M13.4375 8.4375C13.4375 8.68614 13.3387 8.9246 13.1629 9.10041C12.9871 9.27623 12.7486 9.375 12.5 9.375H7.5C7.25136 9.375 7.0129 9.27623 6.83709 9.10041C6.66127 8.9246 6.5625 8.68614 6.5625 8.4375C6.5625 8.18886 6.66127 7.9504 6.83709 7.77459C7.0129 7.59877 7.25136 7.5 7.5 7.5H12.5C12.7486 7.5 12.9871 7.59877 13.1629 7.77459C13.3387 7.9504 13.4375 8.18886 13.4375 8.4375ZM12.5 10.625H7.5C7.25136 10.625 7.0129 10.7238 6.83709 10.8996C6.66127 11.0754 6.5625 11.3139 6.5625 11.5625C6.5625 11.8111 6.66127 12.0496 6.83709 12.2254C7.0129 12.4012 7.25136 12.5 7.5 12.5H12.5C12.7486 12.5 12.9871 12.4012 13.1629 12.2254C13.3387 12.0496 13.4375 11.8111 13.4375 11.5625C13.4375 11.3139 13.3387 11.0754 13.1629 10.8996C12.9871 10.7238 12.7486 10.625 12.5 10.625ZM18.4375 9.6875C18.4352 11.8417 17.5785 13.907 16.0552 15.4302C14.532 16.9535 12.4667 17.8102 10.3125 17.8125H3.72422C3.31678 17.8121 2.92615 17.65 2.63805 17.3619C2.34995 17.0738 2.18791 16.6832 2.1875 16.2758V9.6875C2.1875 7.53262 3.04352 5.46599 4.56726 3.94226C6.09099 2.41852 8.15762 1.5625 10.3125 1.5625C12.4674 1.5625 14.534 2.41852 16.0577 3.94226C17.5815 5.46599 18.4375 7.53262 18.4375 9.6875ZM16.5625 9.6875C16.5625 8.0299 15.904 6.44019 14.7319 5.26808C13.5598 4.09598 11.9701 3.4375 10.3125 3.4375C8.6549 3.4375 7.06519 4.09598 5.89308 5.26808C4.72098 6.44019 4.0625 8.0299 4.0625 9.6875V15.9375H10.3125C11.9695 15.9356 13.5582 15.2766 14.7299 14.1049C15.9016 12.9332 16.5606 11.3445 16.5625 9.6875Z" fill="#191F2E"/>
</svg>
