<svg width="20" height="20" viewBox="0 0 20 20" fill="none" xmlns="http://www.w3.org/2000/svg">
<path d="M16.875 3.4375H3.12501C2.71061 3.4375 2.31318 3.60212 2.02016 3.89515C1.72713 4.18817 1.56251 4.5856 1.56251 5V17.5C1.56127 17.7976 1.64578 18.0892 1.80595 18.34C1.96611 18.5907 2.19515 18.7901 2.46564 18.9141C2.67328 19.0113 2.89965 19.0619 3.12892 19.0625C3.49582 19.0616 3.85057 18.9309 4.13048 18.6938L4.14533 18.6812L6.56251 16.5625H16.875C17.2894 16.5625 17.6868 16.3979 17.9799 16.1049C18.2729 15.8118 18.4375 15.4144 18.4375 15V5C18.4375 4.5856 18.2729 4.18817 17.9799 3.89515C17.6868 3.60212 17.2894 3.4375 16.875 3.4375ZM16.5625 14.6875H6.44533C6.07749 14.6875 5.72144 14.8172 5.43986 15.0539L5.42501 15.0664L3.43751 16.8078V5.3125H16.5625V14.6875ZM6.87501 10C6.87501 9.75277 6.94833 9.5111 7.08568 9.30554C7.22303 9.09998 7.41825 8.93976 7.64666 8.84515C7.87507 8.75054 8.1264 8.72579 8.36888 8.77402C8.61135 8.82225 8.83408 8.9413 9.0089 9.11612C9.18371 9.29093 9.30276 9.51366 9.351 9.75614C9.39923 9.99861 9.37447 10.2499 9.27986 10.4784C9.18525 10.7068 9.02504 10.902 8.81948 11.0393C8.61391 11.1767 8.37224 11.25 8.12501 11.25C7.79349 11.25 7.47555 11.1183 7.24113 10.8839C7.00671 10.6495 6.87501 10.3315 6.87501 10ZM10.625 10C10.625 9.75277 10.6983 9.5111 10.8357 9.30554C10.973 9.09998 11.1683 8.93976 11.3967 8.84515C11.6251 8.75054 11.8764 8.72579 12.1189 8.77402C12.3614 8.82225 12.5841 8.9413 12.7589 9.11612C12.9337 9.29093 13.0528 9.51366 13.101 9.75614C13.1492 9.99861 13.1245 10.2499 13.0299 10.4784C12.9353 10.7068 12.775 10.902 12.5695 11.0393C12.3639 11.1767 12.1222 11.25 11.875 11.25C11.5435 11.25 11.2256 11.1183 10.9911 10.8839C10.7567 10.6495 10.625 10.3315 10.625 10Z" fill="#191F2E"/>
</svg>
