<svg width="20" height="20" viewBox="0 0 20 20" fill="none" xmlns="http://www.w3.org/2000/svg">
<path d="M18.125 4.375V14.375C18.125 14.7065 17.9933 15.0245 17.7589 15.2589C17.5245 15.4933 17.2065 15.625 16.875 15.625H12.2289L11.0695 17.5227C10.9579 17.707 10.8006 17.8593 10.6128 17.9649C10.4249 18.0705 10.213 18.1257 9.9975 18.1253C9.78203 18.1248 9.57034 18.0686 9.38297 17.9622C9.1956 17.8558 9.03891 17.7028 8.92812 17.518L7.77344 15.6297L3.125 15.625C2.79348 15.625 2.47554 15.4933 2.24112 15.2589C2.0067 15.0245 1.875 14.7065 1.875 14.375V4.375C1.875 4.04348 2.0067 3.72554 2.24112 3.49112C2.47554 3.2567 2.79348 3.125 3.125 3.125H16.875C17.2065 3.125 17.5245 3.2567 17.7589 3.49112C17.9933 3.72554 18.125 4.04348 18.125 4.375Z" fill="#191F2E"/>
</svg>
