<svg width="20" height="20" viewBox="0 0 20 20" fill="none" xmlns="http://www.w3.org/2000/svg">
<path d="M17.5 3.75H2.5C2.16848 3.75 1.85054 3.8817 1.61612 4.11612C1.3817 4.35054 1.25 4.66848 1.25 5V15C1.25 15.3315 1.3817 15.6495 1.61612 15.8839C1.85054 16.1183 2.16848 16.25 2.5 16.25H17.5C17.8315 16.25 18.1495 16.1183 18.3839 15.8839C18.6183 15.6495 18.75 15.3315 18.75 15V5C18.75 4.66848 18.6183 4.35054 18.3839 4.11612C18.1495 3.8817 17.8315 3.75 17.5 3.75ZM6.25 12.5C6.1679 12.5001 6.08659 12.484 6.01072 12.4526C5.93485 12.4212 5.8659 12.3752 5.80781 12.3172L3.93281 10.4422C3.81554 10.3249 3.74965 10.1659 3.74965 10C3.74965 9.83415 3.81554 9.67509 3.93281 9.55781C4.05009 9.44054 4.20915 9.37465 4.375 9.37465C4.54085 9.37465 4.69991 9.44054 4.81719 9.55781L6.25 10.9914L10.1828 7.05781C10.2409 6.99974 10.3098 6.95368 10.3857 6.92225C10.4616 6.89083 10.5429 6.87465 10.625 6.87465C10.7071 6.87465 10.7884 6.89083 10.8643 6.92225C10.9402 6.95368 11.0091 6.99974 11.0672 7.05781C11.1253 7.11588 11.1713 7.18482 11.2027 7.26069C11.2342 7.33656 11.2503 7.41788 11.2503 7.5C11.2503 7.58212 11.2342 7.66344 11.2027 7.73931C11.1713 7.81518 11.1253 7.88412 11.0672 7.94219L6.69219 12.3172C6.6341 12.3752 6.56515 12.4212 6.48928 12.4526C6.41341 12.484 6.3321 12.5001 6.25 12.5ZM16.6922 7.94219L12.3172 12.3172C12.2591 12.3753 12.1902 12.4214 12.1143 12.4529C12.0385 12.4843 11.9571 12.5005 11.875 12.5005C11.7929 12.5005 11.7115 12.4843 11.6357 12.4529C11.5598 12.4214 11.4909 12.3753 11.4328 12.3172L10.1828 11.0672C10.0655 10.9499 9.99965 10.7909 9.99965 10.625C9.99965 10.4591 10.0655 10.3001 10.1828 10.1828C10.3001 10.0655 10.4591 9.99965 10.625 9.99965C10.7909 9.99965 10.9499 10.0655 11.0672 10.1828L11.875 10.9914L15.8078 7.05781C15.8659 6.99974 15.9348 6.95368 16.0107 6.92225C16.0866 6.89083 16.1679 6.87465 16.25 6.87465C16.3321 6.87465 16.4134 6.89083 16.4893 6.92225C16.5652 6.95368 16.6341 6.99974 16.6922 7.05781C16.7503 7.11588 16.7963 7.18482 16.8277 7.26069C16.8592 7.33656 16.8753 7.41788 16.8753 7.5C16.8753 7.58212 16.8592 7.66344 16.8277 7.73931C16.7963 7.81518 16.7503 7.88412 16.6922 7.94219Z" fill="#191F2E"/>
</svg>
