<svg width="20" height="20" viewBox="0 0 20 20" fill="none" xmlns="http://www.w3.org/2000/svg">
<path d="M11.907 6.91873L4.90701 13.7937C4.7317 13.966 4.49575 14.0625 4.24998 14.0625C4.00421 14.0625 3.76826 13.966 3.59295 13.7937L0.592948 10.8476C0.505075 10.7614 0.435057 10.6586 0.386892 10.5453C0.338727 10.4319 0.313358 10.3102 0.312234 10.1871C0.309963 9.93836 0.406583 9.69894 0.580838 9.52147C0.667121 9.4336 0.769867 9.36358 0.883209 9.31541C0.996551 9.26725 1.11827 9.24188 1.24142 9.24076C1.49012 9.23848 1.72954 9.3351 1.90701 9.50936L4.25076 11.8109L10.5937 5.58124C10.7711 5.40698 11.0104 5.31032 11.259 5.31252C11.5077 5.31471 11.7453 5.41559 11.9195 5.59295C12.0938 5.77032 12.1904 6.00964 12.1882 6.25827C12.186 6.5069 12.0852 6.74448 11.9078 6.91873H11.907ZM19.4187 5.59061C19.3324 5.50244 19.2295 5.43217 19.116 5.38385C19.0024 5.33552 18.8805 5.31009 18.7571 5.309C18.6337 5.30791 18.5113 5.33119 18.3969 5.3775C18.2826 5.42382 18.1785 5.49226 18.0906 5.57889L11.75 11.8109L11.1344 11.2062C10.957 11.032 10.7177 10.9353 10.469 10.9375C10.2204 10.9397 9.98283 11.0406 9.80857 11.218C9.63432 11.3953 9.53766 11.6346 9.53985 11.8833C9.54205 12.1319 9.64293 12.3695 9.82029 12.5437L11.0929 13.7937C11.2683 13.966 11.5042 14.0625 11.75 14.0625C11.9958 14.0625 12.2317 13.966 12.407 13.7937L19.407 6.91873C19.4948 6.83245 19.5648 6.72972 19.6129 6.6164C19.661 6.50307 19.6864 6.38138 19.6875 6.25827C19.6885 6.13516 19.6654 6.01304 19.6193 5.89889C19.5732 5.78473 19.505 5.68077 19.4187 5.59295V5.59061Z" fill="#191F2E"/>
</svg>
