<svg width="20" height="20" viewBox="0 0 20 20" fill="none" xmlns="http://www.w3.org/2000/svg">
<path d="M16.875 3.125H3.125C2.79348 3.125 2.47554 3.2567 2.24112 3.49112C2.0067 3.72554 1.875 4.04348 1.875 4.375V15.625C1.875 15.9565 2.0067 16.2745 2.24112 16.5089C2.47554 16.7433 2.79348 16.875 3.125 16.875H16.875C17.2065 16.875 17.5245 16.7433 17.7589 16.5089C17.9933 16.2745 18.125 15.9565 18.125 15.625V4.375C18.125 4.04348 17.9933 3.72554 17.7589 3.49112C17.5245 3.2567 17.2065 3.125 16.875 3.125ZM16.0672 6.69219L8.56719 14.1922C8.50914 14.2503 8.44021 14.2964 8.36434 14.3279C8.28846 14.3593 8.20713 14.3755 8.125 14.3755C8.04287 14.3755 7.96154 14.3593 7.88566 14.3279C7.80979 14.2964 7.74086 14.2503 7.68281 14.1922L4.55781 11.0672C4.44054 10.9499 4.37465 10.7909 4.37465 10.625C4.37465 10.4591 4.44054 10.3001 4.55781 10.1828C4.67509 10.0655 4.83415 9.99965 5 9.99965C5.16585 9.99965 5.32491 10.0655 5.44219 10.1828L8.125 12.8664L15.1828 5.80781C15.3001 5.69054 15.4591 5.62465 15.625 5.62465C15.7909 5.62465 15.9499 5.69054 16.0672 5.80781C16.1845 5.92509 16.2503 6.08415 16.2503 6.25C16.2503 6.41585 16.1845 6.57491 16.0672 6.69219Z" fill="#191F2E"/>
</svg>
