<svg width="20" height="20" viewBox="0 0 20 20" fill="none" xmlns="http://www.w3.org/2000/svg">
<path d="M17.8125 3.75V16.25C17.8125 16.6644 17.6479 17.0618 17.3549 17.3549C17.0619 17.6479 16.6644 17.8125 16.25 17.8125H10.9375C10.6889 17.8125 10.4504 17.7137 10.2746 17.5379C10.0988 17.3621 10 17.1236 10 16.875C10 16.6264 10.0988 16.3879 10.2746 16.2121C10.4504 16.0363 10.6889 15.9375 10.9375 15.9375H15.9375V4.0625H4.06253V10.9375C4.06253 11.1861 3.96376 11.4246 3.78794 11.6004C3.61212 11.7762 3.37367 11.875 3.12503 11.875C2.87639 11.875 2.63793 11.7762 2.46211 11.6004C2.2863 11.4246 2.18753 11.1861 2.18753 10.9375V3.75C2.18753 3.3356 2.35215 2.93817 2.64517 2.64515C2.9382 2.35212 3.33563 2.1875 3.75003 2.1875H16.25C16.6644 2.1875 17.0619 2.35212 17.3549 2.64515C17.6479 2.93817 17.8125 3.3356 17.8125 3.75ZM10.0383 11.8367C9.95121 11.7493 9.84772 11.68 9.73376 11.6327C9.61981 11.5853 9.49763 11.561 9.37425 11.561C9.25086 11.561 9.12868 11.5853 9.01473 11.6327C8.90077 11.68 8.79728 11.7493 8.71018 11.8367L5.00003 15.5469L3.78831 14.3367C3.7011 14.2495 3.59757 14.1803 3.48363 14.1331C3.36969 14.0859 3.24757 14.0617 3.12425 14.0617C3.00092 14.0617 2.8788 14.0859 2.76486 14.1331C2.65092 14.1803 2.54739 14.2495 2.46018 14.3367C2.37298 14.4239 2.3038 14.5275 2.25661 14.6414C2.20941 14.7553 2.18512 14.8775 2.18512 15.0008C2.18512 15.1241 2.20941 15.2462 2.25661 15.3602C2.3038 15.4741 2.37298 15.5776 2.46018 15.6648L4.33518 17.5398C4.42228 17.6272 4.52577 17.6966 4.63973 17.7439C4.75368 17.7912 4.87586 17.8156 4.99925 17.8156C5.12263 17.8156 5.24481 17.7912 5.35876 17.7439C5.47272 17.6966 5.57621 17.6272 5.66331 17.5398L10.0383 13.1648C10.1257 13.0777 10.1951 12.9743 10.2424 12.8603C10.2897 12.7463 10.314 12.6242 10.314 12.5008C10.314 12.3774 10.2897 12.2552 10.2424 12.1413C10.1951 12.0273 10.1257 11.9238 10.0383 11.8367Z" fill="#191F2E"/>
</svg>
