<svg width="20" height="20" viewBox="0 0 20 20" fill="none" xmlns="http://www.w3.org/2000/svg">
<path d="M9.81717 12.9422L5.44217 17.3172C5.38412 17.3753 5.31519 17.4214 5.23932 17.4529C5.16345 17.4843 5.08212 17.5005 4.99998 17.5005C4.91785 17.5005 4.83652 17.4843 4.76064 17.4529C4.68477 17.4214 4.61584 17.3753 4.55779 17.3172L2.68279 15.4422C2.62472 15.3841 2.57866 15.3152 2.54724 15.2393C2.51581 15.1634 2.49963 15.0821 2.49963 15C2.49963 14.9179 2.51581 14.8366 2.54724 14.7607C2.57866 14.6848 2.62472 14.6159 2.68279 14.5578C2.74086 14.4997 2.8098 14.4537 2.88567 14.4223C2.96154 14.3908 3.04286 14.3747 3.12498 14.3747C3.2071 14.3747 3.28842 14.3908 3.36429 14.4223C3.44016 14.4537 3.5091 14.4997 3.56717 14.5578L4.99998 15.9914L8.93279 12.0578C9.05007 11.9405 9.20913 11.8747 9.37498 11.8747C9.54083 11.8747 9.69989 11.9405 9.81717 12.0578C9.93444 12.1751 10.0003 12.3341 10.0003 12.5C10.0003 12.6659 9.93444 12.8249 9.81717 12.9422ZM16.25 2.5H3.74998C3.41846 2.5 3.10052 2.6317 2.8661 2.86612C2.63168 3.10054 2.49998 3.41848 2.49998 3.75V12.2055C2.49975 12.2493 2.50876 12.2928 2.52643 12.3329C2.5441 12.3731 2.57003 12.4091 2.60253 12.4386C2.63503 12.4681 2.67337 12.4904 2.71507 12.504C2.75676 12.5177 2.80086 12.5225 2.84451 12.518C3.21778 12.4757 3.59578 12.5181 3.95042 12.642C4.30505 12.7659 4.62721 12.9681 4.89295 13.2336C4.90697 13.2477 4.92364 13.2589 4.94201 13.2666C4.96038 13.2742 4.98008 13.2782 4.99998 13.2782C5.01988 13.2782 5.03958 13.2742 5.05795 13.2666C5.07632 13.2589 5.093 13.2477 5.10701 13.2336L7.60701 10.7336C8.07591 10.2647 8.71186 10.0013 9.37498 10.0013C10.0381 10.0013 10.6741 10.2647 11.143 10.7336C11.6118 11.2025 11.8753 11.8384 11.8753 12.5016C11.8753 13.1647 11.6118 13.8006 11.143 14.2695L8.44373 16.968C8.39998 17.0117 8.37018 17.0674 8.3581 17.128C8.34602 17.1887 8.35221 17.2516 8.37588 17.3087C8.39955 17.3658 8.43965 17.4146 8.49108 17.449C8.54252 17.4833 8.60298 17.5016 8.66483 17.5016H16.25C16.5815 17.5016 16.8994 17.3699 17.1339 17.1354C17.3683 16.901 17.5 16.5831 17.5 16.2516V3.75C17.5 3.41848 17.3683 3.10054 17.1339 2.86612C16.8994 2.6317 16.5815 2.5 16.25 2.5Z" fill="#191F2E"/>
</svg>
