<svg width="20" height="20" viewBox="0 0 20 20" fill="none" xmlns="http://www.w3.org/2000/svg">
<path d="M17.8219 11.3391L15 9.64609V8.125C15.001 8.01434 14.9726 7.9054 14.9177 7.80932C14.8628 7.71323 14.7833 7.63345 14.6875 7.57812L10.625 5.2625V3.75H11.875C12.0408 3.75 12.1997 3.68415 12.3169 3.56694C12.4342 3.44973 12.5 3.29076 12.5 3.125C12.5 2.95924 12.4342 2.80027 12.3169 2.68306C12.1997 2.56585 12.0408 2.5 11.875 2.5H10.625V1.25C10.625 1.08424 10.5592 0.925268 10.4419 0.808058C10.3247 0.690848 10.1658 0.625 10 0.625C9.83424 0.625 9.67527 0.690848 9.55806 0.808058C9.44085 0.925268 9.375 1.08424 9.375 1.25V2.5H8.125C7.95924 2.5 7.80027 2.56585 7.68306 2.68306C7.56585 2.80027 7.5 2.95924 7.5 3.125C7.5 3.29076 7.56585 3.44973 7.68306 3.56694C7.80027 3.68415 7.95924 3.75 8.125 3.75H9.375V5.2625L5.3125 7.58203C5.21666 7.63736 5.13723 7.71714 5.08232 7.81322C5.02742 7.90931 4.99901 8.01825 5 8.12891V9.65L2.17812 11.3391C2.08564 11.3946 2.00911 11.4732 1.95599 11.5671C1.90287 11.661 1.87497 11.7671 1.875 11.875V16.875C1.875 17.0408 1.94085 17.1997 2.05806 17.3169C2.17527 17.4342 2.33424 17.5 2.5 17.5H8.75C8.91576 17.5 9.07473 17.4342 9.19194 17.3169C9.30915 17.1997 9.375 17.0408 9.375 16.875V13.125C9.375 12.9592 9.44085 12.8003 9.55806 12.6831C9.67527 12.5658 9.83424 12.5 10 12.5C10.1658 12.5 10.3247 12.5658 10.4419 12.6831C10.5592 12.8003 10.625 12.9592 10.625 13.125V16.875C10.625 17.0408 10.6908 17.1997 10.8081 17.3169C10.9253 17.4342 11.0842 17.5 11.25 17.5H17.5C17.6658 17.5 17.8247 17.4342 17.9419 17.3169C18.0592 17.1997 18.125 17.0408 18.125 16.875V11.875C18.125 11.7671 18.0971 11.661 18.044 11.5671C17.9909 11.4732 17.9144 11.3946 17.8219 11.3391ZM3.125 12.2289L5 11.1039V16.25H3.125V12.2289ZM10 11.25C9.50272 11.25 9.02581 11.4475 8.67417 11.7992C8.32254 12.1508 8.125 12.6277 8.125 13.125V16.25H6.25V8.4875L10 6.34453L13.75 8.4875V16.25H11.875V13.125C11.875 12.6277 11.6775 12.1508 11.3258 11.7992C10.9742 11.4475 10.4973 11.25 10 11.25ZM16.875 16.25H15V11.1039L16.875 12.2289V16.25Z" fill="#191F2E"/>
</svg>
