<svg width="20" height="20" viewBox="0 0 20 20" fill="none" xmlns="http://www.w3.org/2000/svg">
<path d="M17.982 11.0711L15.3125 9.46953V8.125C15.3129 7.96007 15.2697 7.79795 15.1874 7.65502C15.1051 7.51209 14.9866 7.3934 14.8438 7.31094L10.9375 5.07812V4.0625H11.875C12.1236 4.0625 12.3621 3.96373 12.5379 3.78791C12.7137 3.6121 12.8125 3.37364 12.8125 3.125C12.8125 2.87636 12.7137 2.6379 12.5379 2.46209C12.3621 2.28627 12.1236 2.1875 11.875 2.1875H10.9375V1.25C10.9375 1.00136 10.8387 0.762903 10.6629 0.587087C10.4871 0.411272 10.2486 0.3125 10 0.3125C9.75136 0.3125 9.5129 0.411272 9.33709 0.587087C9.16127 0.762903 9.0625 1.00136 9.0625 1.25V2.1875H8.125C7.87636 2.1875 7.6379 2.28627 7.46209 2.46209C7.28627 2.6379 7.1875 2.87636 7.1875 3.125C7.1875 3.37364 7.28627 3.6121 7.46209 3.78791C7.6379 3.96373 7.87636 4.0625 8.125 4.0625H9.0625V5.07812L5.16016 7.31094C5.01659 7.39291 4.89726 7.51138 4.81425 7.65435C4.73124 7.79731 4.68751 7.95968 4.6875 8.125V9.46953L2.01797 11.0711C1.87909 11.1544 1.76414 11.2722 1.68432 11.413C1.6045 11.5539 1.56253 11.7131 1.5625 11.875V16.875C1.5625 17.1236 1.66127 17.3621 1.83709 17.5379C2.0129 17.7137 2.25136 17.8125 2.5 17.8125H8.4375C8.68614 17.8125 8.9246 17.7137 9.10041 17.5379C9.27623 17.3621 9.375 17.1236 9.375 16.875V13.4375C9.375 13.2717 9.44085 13.1128 9.55806 12.9956C9.67527 12.8783 9.83424 12.8125 10 12.8125C10.1658 12.8125 10.3247 12.8783 10.4419 12.9956C10.5592 13.1128 10.625 13.2717 10.625 13.4375V16.875C10.625 17.1236 10.7238 17.3621 10.8996 17.5379C11.0754 17.7137 11.3139 17.8125 11.5625 17.8125H17.5C17.7486 17.8125 17.9871 17.7137 18.1629 17.5379C18.3387 17.3621 18.4375 17.1236 18.4375 16.875V11.875C18.4375 11.7131 18.3955 11.5539 18.3157 11.413C18.2359 11.2722 18.1209 11.1544 17.982 11.0711ZM3.4375 12.4055L4.6875 11.6555V15.9375H3.4375V12.4055ZM10 10.9375C9.33696 10.9375 8.70107 11.2009 8.23223 11.6697C7.76339 12.1386 7.5 12.7745 7.5 13.4375V15.9375H6.5625V8.67188L10 6.70781L13.4375 8.67188V15.9375H12.5V13.4375C12.5 12.7745 12.2366 12.1386 11.7678 11.6697C11.2989 11.2009 10.663 10.9375 10 10.9375ZM16.5625 15.9375H15.3125V11.6555L16.5625 12.4055V15.9375Z" fill="#191F2E"/>
</svg>
