<svg width="20" height="20" viewBox="0 0 20 20" fill="none" xmlns="http://www.w3.org/2000/svg">
<path d="M9.375 6.25C9.375 6.86807 9.19172 7.47225 8.84834 7.98616C8.50496 8.50006 8.01691 8.9006 7.44589 9.13713C6.87487 9.37365 6.24654 9.43553 5.64034 9.31496C5.03415 9.19438 4.47733 8.89675 4.04029 8.45971C3.60325 8.02267 3.30563 7.46585 3.18505 6.85966C3.06447 6.25347 3.12635 5.62513 3.36288 5.05412C3.5994 4.4831 3.99994 3.99504 4.51384 3.65166C5.02775 3.30828 5.63193 3.125 6.25 3.125C7.0788 3.125 7.87366 3.45424 8.45971 4.04029C9.04576 4.62634 9.375 5.4212 9.375 6.25ZM13.75 9.375C14.3681 9.375 14.9723 9.19172 15.4862 8.84834C16.0001 8.50496 16.4006 8.01691 16.6371 7.44589C16.8736 6.87487 16.9355 6.24654 16.815 5.64034C16.6944 5.03415 16.3967 4.47733 15.9597 4.04029C15.5227 3.60325 14.9658 3.30563 14.3597 3.18505C13.7535 3.06447 13.1251 3.12635 12.5541 3.36288C11.9831 3.5994 11.495 3.99994 11.1517 4.51384C10.8083 5.02775 10.625 5.63193 10.625 6.25C10.625 7.0788 10.9542 7.87366 11.5403 8.45971C12.1263 9.04576 12.9212 9.375 13.75 9.375ZM6.25 10.625C5.63193 10.625 5.02775 10.8083 4.51384 11.1517C3.99994 11.495 3.5994 11.9831 3.36288 12.5541C3.12635 13.1251 3.06447 13.7535 3.18505 14.3597C3.30563 14.9658 3.60325 15.5227 4.04029 15.9597C4.47733 16.3967 5.03415 16.6944 5.64034 16.815C6.24654 16.9355 6.87487 16.8736 7.44589 16.6371C8.01691 16.4006 8.50496 16.0001 8.84834 15.4862C9.19172 14.9723 9.375 14.3681 9.375 13.75C9.375 12.9212 9.04576 12.1263 8.45971 11.5403C7.87366 10.9542 7.0788 10.625 6.25 10.625ZM13.75 10.625C13.1319 10.625 12.5277 10.8083 12.0138 11.1517C11.4999 11.495 11.0994 11.9831 10.8629 12.5541C10.6264 13.1251 10.5645 13.7535 10.685 14.3597C10.8056 14.9658 11.1033 15.5227 11.5403 15.9597C11.9773 16.3967 12.5342 16.6944 13.1403 16.815C13.7465 16.9355 14.3749 16.8736 14.9459 16.6371C15.5169 16.4006 16.005 16.0001 16.3483 15.4862C16.6917 14.9723 16.875 14.3681 16.875 13.75C16.875 12.9212 16.5458 12.1263 15.9597 11.5403C15.3737 10.9542 14.5788 10.625 13.75 10.625Z" fill="#191F2E"/>
</svg>
