<svg width="20" height="20" viewBox="0 0 20 20" fill="none" xmlns="http://www.w3.org/2000/svg">
<path d="M16.25 2.5H3.75C3.41848 2.5 3.10054 2.6317 2.86612 2.86612C2.6317 3.10054 2.5 3.41848 2.5 3.75V16.25C2.5 16.5815 2.6317 16.8995 2.86612 17.1339C3.10054 17.3683 3.41848 17.5 3.75 17.5H16.25C16.5815 17.5 16.8995 17.3683 17.1339 17.1339C17.3683 16.8995 17.5 16.5815 17.5 16.25V3.75C17.5 3.41848 17.3683 3.10054 17.1339 2.86612C16.8995 2.6317 16.5815 2.5 16.25 2.5ZM6.875 12.5C6.99861 12.5 7.11945 12.5367 7.22223 12.6053C7.32501 12.674 7.40512 12.7716 7.45243 12.8858C7.49973 13 7.51211 13.1257 7.48799 13.2469C7.46388 13.3682 7.40435 13.4795 7.31694 13.5669C7.22953 13.6544 7.11817 13.7139 6.99693 13.738C6.87569 13.7621 6.75003 13.7497 6.63582 13.7024C6.52162 13.6551 6.42401 13.575 6.35533 13.4722C6.28666 13.3695 6.25 13.2486 6.25 13.125C6.25 12.9592 6.31585 12.8003 6.43306 12.6831C6.55027 12.5658 6.70924 12.5 6.875 12.5ZM3.75 3.75H6.25V11.3578C5.83299 11.5052 5.48153 11.7954 5.25773 12.1769C5.03393 12.5584 4.95221 13.0067 5.027 13.4426C5.1018 13.8786 5.32829 14.274 5.66646 14.5591C6.00463 14.8442 6.4327 15.0006 6.875 15.0006C7.3173 15.0006 7.74537 14.8442 8.08354 14.5591C8.42171 14.274 8.6482 13.8786 8.723 13.4426C8.79779 13.0067 8.71607 12.5584 8.49227 12.1769C8.26847 11.7954 7.91701 11.5052 7.5 11.3578V9.00859L11.25 12.7586V16.25H3.75V3.75ZM16.25 16.25H12.5V12.5C12.5001 12.4179 12.484 12.3366 12.4526 12.2607C12.4212 12.1848 12.3752 12.1159 12.3172 12.0578L7.5 7.24141V3.75H10V5.625C9.99994 5.7071 10.016 5.78841 10.0474 5.86428C10.0788 5.94015 10.1248 6.0091 10.1828 6.06719L11.4328 7.31719C11.3118 7.56924 11.2493 7.84539 11.25 8.125C11.25 8.49584 11.36 8.85835 11.566 9.16669C11.772 9.47504 12.0649 9.71536 12.4075 9.85727C12.7501 9.99919 13.1271 10.0363 13.4908 9.96397C13.8545 9.89163 14.1886 9.71305 14.4508 9.45083C14.713 9.1886 14.8916 8.85451 14.964 8.49079C15.0363 8.12708 14.9992 7.75008 14.8573 7.40747C14.7154 7.06486 14.475 6.77202 14.1667 6.56599C13.8584 6.35997 13.4958 6.25 13.125 6.25C12.8453 6.24951 12.5692 6.31227 12.3172 6.43359L11.25 5.36641V3.75H16.25V16.25ZM13.125 7.5C13.2486 7.5 13.3695 7.53666 13.4722 7.60533C13.575 7.67401 13.6551 7.77162 13.7024 7.88582C13.7497 8.00003 13.7621 8.12569 13.738 8.24693C13.7139 8.36817 13.6544 8.47953 13.5669 8.56694C13.4795 8.65435 13.3682 8.71388 13.2469 8.73799C13.1257 8.76211 13 8.74973 12.8858 8.70243C12.7716 8.65512 12.674 8.57501 12.6053 8.47223C12.5367 8.36945 12.5 8.24861 12.5 8.125C12.5 7.95924 12.5658 7.80027 12.6831 7.68306C12.8003 7.56585 12.9592 7.5 13.125 7.5Z" fill="#191F2E"/>
</svg>
