<svg width="20" height="20" viewBox="0 0 20 20" fill="none" xmlns="http://www.w3.org/2000/svg">
<path d="M6.25 3.125C5.63193 3.125 5.02775 3.30828 4.51384 3.65166C3.99994 3.99504 3.5994 4.4831 3.36288 5.05412C3.12635 5.62513 3.06447 6.25347 3.18505 6.85966C3.30563 7.46585 3.60325 8.02267 4.04029 8.45971C4.47733 8.89675 5.03415 9.19438 5.64034 9.31496C6.24654 9.43553 6.87487 9.37365 7.44589 9.13713C8.01691 8.9006 8.50496 8.50006 8.84834 7.98616C9.19172 7.47225 9.375 6.86807 9.375 6.25C9.375 5.4212 9.04576 4.62634 8.45971 4.04029C7.87366 3.45424 7.0788 3.125 6.25 3.125ZM6.25 8.125C5.87916 8.125 5.51665 8.01503 5.20831 7.80901C4.89996 7.60298 4.65964 7.31014 4.51773 6.96753C4.37581 6.62492 4.33868 6.24792 4.41103 5.88421C4.48338 5.52049 4.66195 5.1864 4.92418 4.92418C5.1864 4.66195 5.52049 4.48338 5.88421 4.41103C6.24792 4.33868 6.62492 4.37581 6.96753 4.51773C7.31014 4.65964 7.60298 4.89996 7.80901 5.20831C8.01503 5.51665 8.125 5.87916 8.125 6.25C8.125 6.74728 7.92746 7.2242 7.57583 7.57583C7.2242 7.92746 6.74728 8.125 6.25 8.125ZM13.75 9.375C14.3681 9.375 14.9723 9.19172 15.4862 8.84834C16.0001 8.50496 16.4006 8.01691 16.6371 7.44589C16.8736 6.87487 16.9355 6.24654 16.815 5.64034C16.6944 5.03415 16.3967 4.47733 15.9597 4.04029C15.5227 3.60325 14.9658 3.30563 14.3597 3.18505C13.7535 3.06447 13.1251 3.12635 12.5541 3.36288C11.9831 3.5994 11.495 3.99994 11.1517 4.51384C10.8083 5.02775 10.625 5.63193 10.625 6.25C10.625 7.0788 10.9542 7.87366 11.5403 8.45971C12.1263 9.04576 12.9212 9.375 13.75 9.375ZM13.75 4.375C14.1208 4.375 14.4834 4.48497 14.7917 4.691C15.1 4.89702 15.3404 5.18986 15.4823 5.53247C15.6242 5.87508 15.6613 6.25208 15.589 6.6158C15.5166 6.97951 15.338 7.3136 15.0758 7.57583C14.8136 7.83805 14.4795 8.01663 14.1158 8.08897C13.7521 8.16132 13.3751 8.12419 13.0325 7.98228C12.6899 7.84036 12.397 7.60004 12.191 7.2917C11.985 6.98335 11.875 6.62084 11.875 6.25C11.875 5.75272 12.0725 5.27581 12.4242 4.92418C12.7758 4.57255 13.2527 4.375 13.75 4.375ZM6.25 10.625C5.63193 10.625 5.02775 10.8083 4.51384 11.1517C3.99994 11.495 3.5994 11.9831 3.36288 12.5541C3.12635 13.1251 3.06447 13.7535 3.18505 14.3597C3.30563 14.9658 3.60325 15.5227 4.04029 15.9597C4.47733 16.3967 5.03415 16.6944 5.64034 16.815C6.24654 16.9355 6.87487 16.8736 7.44589 16.6371C8.01691 16.4006 8.50496 16.0001 8.84834 15.4862C9.19172 14.9723 9.375 14.3681 9.375 13.75C9.375 12.9212 9.04576 12.1263 8.45971 11.5403C7.87366 10.9542 7.0788 10.625 6.25 10.625ZM6.25 15.625C5.87916 15.625 5.51665 15.515 5.20831 15.309C4.89996 15.103 4.65964 14.8101 4.51773 14.4675C4.37581 14.1249 4.33868 13.7479 4.41103 13.3842C4.48338 13.0205 4.66195 12.6864 4.92418 12.4242C5.1864 12.162 5.52049 11.9834 5.88421 11.911C6.24792 11.8387 6.62492 11.8758 6.96753 12.0177C7.31014 12.1596 7.60298 12.4 7.80901 12.7083C8.01503 13.0166 8.125 13.3792 8.125 13.75C8.125 14.2473 7.92746 14.7242 7.57583 15.0758C7.2242 15.4275 6.74728 15.625 6.25 15.625ZM13.75 10.625C13.1319 10.625 12.5277 10.8083 12.0138 11.1517C11.4999 11.495 11.0994 11.9831 10.8629 12.5541C10.6264 13.1251 10.5645 13.7535 10.685 14.3597C10.8056 14.9658 11.1033 15.5227 11.5403 15.9597C11.9773 16.3967 12.5342 16.6944 13.1403 16.815C13.7465 16.9355 14.3749 16.8736 14.9459 16.6371C15.5169 16.4006 16.005 16.0001 16.3483 15.4862C16.6917 14.9723 16.875 14.3681 16.875 13.75C16.875 12.9212 16.5458 12.1263 15.9597 11.5403C15.3737 10.9542 14.5788 10.625 13.75 10.625ZM13.75 15.625C13.3792 15.625 13.0166 15.515 12.7083 15.309C12.4 15.103 12.1596 14.8101 12.0177 14.4675C11.8758 14.1249 11.8387 13.7479 11.911 13.3842C11.9834 13.0205 12.162 12.6864 12.4242 12.4242C12.6864 12.162 13.0205 11.9834 13.3842 11.911C13.7479 11.8387 14.1249 11.8758 14.4675 12.0177C14.8101 12.1596 15.103 12.4 15.309 12.7083C15.515 13.0166 15.625 13.3792 15.625 13.75C15.625 14.2473 15.4275 14.7242 15.0758 15.0758C14.7242 15.4275 14.2473 15.625 13.75 15.625Z" fill="#191F2E"/>
</svg>
