<svg width="20" height="20" viewBox="0 0 20 20" fill="none" xmlns="http://www.w3.org/2000/svg">
<path d="M10 1.5625C8.33122 1.5625 6.69992 2.05735 5.31238 2.98448C3.92484 3.9116 2.84338 5.22936 2.20477 6.77111C1.56616 8.31286 1.39907 10.0094 1.72463 11.6461C2.05019 13.2828 2.85379 14.7862 4.03379 15.9662C5.2138 17.1462 6.71721 17.9498 8.35393 18.2754C9.99064 18.6009 11.6871 18.4338 13.2289 17.7952C14.7706 17.1566 16.0884 16.0752 17.0155 14.6876C17.9427 13.3001 18.4375 11.6688 18.4375 10C18.435 7.763 17.5453 5.61833 15.9635 4.03653C14.3817 2.45473 12.237 1.56498 10 1.5625ZM10.9375 3.50547C11.5874 3.59887 12.2196 3.78982 12.8125 4.07187V15.9281C12.2196 16.2102 11.5874 16.4011 10.9375 16.4945V3.50547ZM3.4375 10C3.43961 8.4226 4.00901 6.89858 5.04172 5.70622C6.07443 4.51387 7.50156 3.73274 9.0625 3.50547V16.4945C7.50156 16.2673 6.07443 15.4861 5.04172 14.2938C4.00901 13.1014 3.43961 11.5774 3.4375 10ZM14.6875 14.5867V5.41328C15.8892 6.63753 16.5625 8.2845 16.5625 10C16.5625 11.7155 15.8892 13.3625 14.6875 14.5867Z" fill="#191F2E"/>
</svg>
