<svg width="20" height="20" viewBox="0 0 20 20" fill="none" xmlns="http://www.w3.org/2000/svg">
<path d="M6.875 8.69609L10.625 12.4461V17.1875C10.625 17.2704 10.5921 17.3499 10.5335 17.4085C10.4749 17.4671 10.3954 17.5 10.3125 17.5H3.75C3.41848 17.5 3.10054 17.3683 2.86612 17.1339C2.6317 16.8995 2.5 16.5815 2.5 16.25V3.75C2.5 3.41848 2.6317 3.10054 2.86612 2.86612C3.10054 2.6317 3.41848 2.5 3.75 2.5H5.3125C5.39538 2.5 5.47487 2.53292 5.53347 2.59153C5.59208 2.65013 5.625 2.72962 5.625 2.8125V11.9828C5.20799 12.1302 4.85653 12.4204 4.63273 12.8019C4.40893 13.1834 4.32721 13.6317 4.402 14.0676C4.4768 14.5036 4.70329 14.899 5.04146 15.1841C5.37963 15.4692 5.8077 15.6256 6.25 15.6256C6.6923 15.6256 7.12037 15.4692 7.45854 15.1841C7.79671 14.899 8.0232 14.5036 8.098 14.0676C8.17279 13.6317 8.09107 13.1834 7.86727 12.8019C7.64347 12.4204 7.29201 12.1302 6.875 11.9828V8.69609ZM6.25 14.375C6.37361 14.375 6.49445 14.3383 6.59723 14.2697C6.70001 14.201 6.78012 14.1034 6.82743 13.9892C6.87473 13.875 6.88711 13.7493 6.86299 13.6281C6.83888 13.5068 6.77935 13.3955 6.69194 13.3081C6.60453 13.2206 6.49317 13.1611 6.37193 13.137C6.25069 13.1129 6.12503 13.1253 6.01082 13.1726C5.89662 13.2199 5.79901 13.3 5.73033 13.4028C5.66166 13.5055 5.625 13.6264 5.625 13.75C5.625 13.9158 5.69085 14.0747 5.80806 14.1919C5.92527 14.3092 6.08424 14.375 6.25 14.375ZM14.375 8.125C14.375 8.00139 14.3383 7.88055 14.2697 7.77777C14.201 7.67499 14.1034 7.59488 13.9892 7.54757C13.875 7.50027 13.7493 7.48789 13.6281 7.51201C13.5068 7.53612 13.3955 7.59565 13.3081 7.68306C13.2206 7.77047 13.1611 7.88183 13.137 8.00307C13.1129 8.12431 13.1253 8.24997 13.1726 8.36418C13.2199 8.47838 13.3 8.57599 13.4028 8.64467C13.5055 8.71334 13.6264 8.75 13.75 8.75C13.9158 8.75 14.0747 8.68415 14.1919 8.56694C14.3092 8.44973 14.375 8.29076 14.375 8.125ZM16.25 2.5H12.1875C12.1046 2.5 12.0251 2.53292 11.9665 2.59153C11.9079 2.65013 11.875 2.72962 11.875 2.8125V5.36641L12.9422 6.43359C13.3413 6.24292 13.795 6.19949 14.223 6.31097C14.6511 6.42246 15.0259 6.68168 15.2813 7.04282C15.5367 7.40396 15.6562 7.84377 15.6187 8.28449C15.5812 8.72522 15.389 9.1385 15.0763 9.45127C14.7635 9.76404 14.3502 9.95616 13.9095 9.99368C13.4688 10.0312 13.029 9.91171 12.6678 9.65631C12.3067 9.40091 12.0475 9.02607 11.936 8.59802C11.8245 8.16998 11.8679 7.7163 12.0586 7.31719L10.8086 6.06719C10.7504 6.00917 10.7043 5.94025 10.6728 5.86437C10.6413 5.7885 10.625 5.70715 10.625 5.625V2.8125C10.625 2.72962 10.5921 2.65013 10.5335 2.59153C10.4749 2.53292 10.3954 2.5 10.3125 2.5H7.1875C7.10462 2.5 7.02513 2.53292 6.96653 2.59153C6.90792 2.65013 6.875 2.72962 6.875 2.8125V6.92891L11.6922 11.7453C11.7502 11.8034 11.7962 11.8723 11.8276 11.9482C11.859 12.0241 11.8751 12.1054 11.875 12.1875V17.1875C11.875 17.2704 11.9079 17.3499 11.9665 17.4085C12.0251 17.4671 12.1046 17.5 12.1875 17.5H16.25C16.5815 17.5 16.8995 17.3683 17.1339 17.1339C17.3683 16.8995 17.5 16.5815 17.5 16.25V3.75C17.5 3.41848 17.3683 3.10054 17.1339 2.86612C16.8995 2.6317 16.5815 2.5 16.25 2.5Z" fill="#191F2E"/>
</svg>
