<svg width="20" height="20" viewBox="0 0 20 20" fill="none" xmlns="http://www.w3.org/2000/svg">
<path d="M6.09375 2.8125C5.44478 2.8125 4.81039 3.00494 4.27079 3.36549C3.73119 3.72604 3.31062 4.2385 3.06227 4.83807C2.81392 5.43764 2.74894 6.09739 2.87555 6.73389C3.00216 7.37039 3.31467 7.95505 3.77356 8.41395C4.23245 8.87284 4.81711 9.18535 5.45361 9.31195C6.09011 9.43856 6.74986 9.37358 7.34943 9.12523C7.949 8.87688 8.46146 8.45631 8.82201 7.91672C9.18256 7.37712 9.375 6.74272 9.375 6.09375C9.375 5.22351 9.0293 4.38891 8.41395 3.77356C7.79859 3.1582 6.96399 2.8125 6.09375 2.8125ZM6.09375 7.5C5.81562 7.5 5.54374 7.41753 5.31248 7.26301C5.08122 7.10848 4.90098 6.88886 4.79455 6.6319C4.68811 6.37494 4.66026 6.09219 4.71452 5.81941C4.76878 5.54662 4.90272 5.29605 5.09938 5.09938C5.29605 4.90272 5.54662 4.76878 5.81941 4.71452C6.09219 4.66026 6.37494 4.68811 6.6319 4.79455C6.88886 4.90098 7.10848 5.08122 7.26301 5.31248C7.41753 5.54374 7.5 5.81562 7.5 6.09375C7.5 6.46671 7.35184 6.8244 7.08812 7.08812C6.8244 7.35184 6.46671 7.5 6.09375 7.5ZM13.9063 9.375C14.5552 9.375 15.1896 9.18256 15.7292 8.82201C16.2688 8.46146 16.6894 7.949 16.9377 7.34943C17.1861 6.74986 17.2511 6.09011 17.1245 5.45361C16.9978 4.81711 16.6853 4.23245 16.2264 3.77356C15.7676 3.31467 15.1829 3.00216 14.5464 2.87555C13.9099 2.74894 13.2501 2.81392 12.6506 3.06227C12.051 3.31062 11.5385 3.73119 11.178 4.27079C10.8174 4.81039 10.625 5.44478 10.625 6.09375C10.625 6.96399 10.9707 7.79859 11.5861 8.41395C12.2014 9.0293 13.036 9.375 13.9063 9.375ZM13.9063 4.6875C14.1844 4.6875 14.4563 4.76998 14.6875 4.9245C14.9188 5.07902 15.099 5.29864 15.2055 5.5556C15.3119 5.81256 15.3397 6.09531 15.2855 6.3681C15.2312 6.64088 15.0973 6.89145 14.9006 7.08812C14.704 7.28479 14.4534 7.41872 14.1806 7.47298C13.9078 7.52724 13.6251 7.49939 13.3681 7.39296C13.1111 7.28652 12.8915 7.10628 12.737 6.87502C12.5825 6.64377 12.5 6.37188 12.5 6.09375C12.5 5.72079 12.6482 5.36311 12.9119 5.09938C13.1756 4.83566 13.5333 4.6875 13.9063 4.6875ZM6.09375 10.625C5.44478 10.625 4.81039 10.8174 4.27079 11.178C3.73119 11.5385 3.31062 12.051 3.06227 12.6506C2.81392 13.2501 2.74894 13.9099 2.87555 14.5464C3.00216 15.1829 3.31467 15.7676 3.77356 16.2264C4.23245 16.6853 4.81711 16.9978 5.45361 17.1245C6.09011 17.2511 6.74986 17.1861 7.34943 16.9377C7.949 16.6894 8.46146 16.2688 8.82201 15.7292C9.18256 15.1896 9.375 14.5552 9.375 13.9063C9.375 13.036 9.0293 12.2014 8.41395 11.5861C7.79859 10.9707 6.96399 10.625 6.09375 10.625ZM6.09375 15.3125C5.81562 15.3125 5.54374 15.23 5.31248 15.0755C5.08122 14.921 4.90098 14.7014 4.79455 14.4444C4.68811 14.1874 4.66026 13.9047 4.71452 13.6319C4.76878 13.3591 4.90272 13.1086 5.09938 12.9119C5.29605 12.7152 5.54662 12.5813 5.81941 12.527C6.09219 12.4728 6.37494 12.5006 6.6319 12.607C6.88886 12.7135 7.10848 12.8937 7.26301 13.125C7.41753 13.3562 7.5 13.6281 7.5 13.9063C7.5 14.2792 7.35184 14.6369 7.08812 14.9006C6.8244 15.1643 6.46671 15.3125 6.09375 15.3125ZM17.1875 13.9063C17.1875 14.1549 17.0887 14.3933 16.9129 14.5692C16.7371 14.745 16.4986 14.8438 16.25 14.8438H14.8438V16.25C14.8438 16.4986 14.745 16.7371 14.5692 16.9129C14.3933 17.0887 14.1549 17.1875 13.9063 17.1875C13.6576 17.1875 13.4192 17.0887 13.2433 16.9129C13.0675 16.7371 12.9688 16.4986 12.9688 16.25V14.8438H11.5625C11.3139 14.8438 11.0754 14.745 10.8996 14.5692C10.7238 14.3933 10.625 14.1549 10.625 13.9063C10.625 13.6576 10.7238 13.4192 10.8996 13.2433C11.0754 13.0675 11.3139 12.9688 11.5625 12.9688H12.9688V11.5625C12.9688 11.3139 13.0675 11.0754 13.2433 10.8996C13.4192 10.7238 13.6576 10.625 13.9063 10.625C14.1549 10.625 14.3933 10.7238 14.5692 10.8996C14.745 11.0754 14.8438 11.3139 14.8438 11.5625V12.9688H16.25C16.4986 12.9688 16.7371 13.0675 16.9129 13.2433C17.0887 13.4192 17.1875 13.6576 17.1875 13.9063Z" fill="#191F2E"/>
</svg>
