<svg width="20" height="20" viewBox="0 0 20 20" fill="none" xmlns="http://www.w3.org/2000/svg">
<path d="M18.125 10C18.125 12.1549 17.269 14.2216 15.7452 15.7453C14.2215 17.269 12.1549 18.125 10 18.125C7.84512 18.125 5.77849 17.269 4.25476 15.7453C2.73102 14.2216 1.875 12.1549 1.875 10C1.875 6.79692 3.73516 3.87817 6.61406 2.55707C6.68865 2.52281 6.76925 2.50357 6.85128 2.50045C6.9333 2.49734 7.01513 2.51041 7.0921 2.53892C7.16908 2.56743 7.23968 2.61082 7.29988 2.66661C7.36008 2.72241 7.4087 2.78952 7.44297 2.8641C7.47724 2.93869 7.49648 3.0193 7.49959 3.10132C7.50271 3.18334 7.48964 3.26517 7.46113 3.34215C7.43261 3.41912 7.38922 3.48972 7.33343 3.54992C7.27763 3.61012 7.21052 3.65874 7.13594 3.69301C4.69922 4.81176 3.125 7.28676 3.125 10C3.125 11.8234 3.84933 13.5721 5.13864 14.8614C6.42795 16.1507 8.17664 16.875 10 16.875C11.8234 16.875 13.572 16.1507 14.8614 14.8614C16.1507 13.5721 16.875 11.8234 16.875 10C16.875 7.28676 15.3008 4.81176 12.8641 3.69301C12.7134 3.62381 12.5965 3.4976 12.5389 3.34215C12.4813 3.1867 12.4878 3.01474 12.557 2.8641C12.6262 2.71347 12.7524 2.5965 12.9079 2.53892C13.0633 2.48134 13.2353 2.48787 13.3859 2.55707C16.2648 3.87817 18.125 6.79692 18.125 10Z" fill="#191F2E"/>
</svg>
