<svg width="20" height="20" viewBox="0 0 20 20" fill="none" xmlns="http://www.w3.org/2000/svg">
<path d="M15.7453 4.25479C14.2215 2.73103 12.1549 1.875 9.99998 1.875C7.84507 1.875 5.77842 2.73103 4.25466 4.25479C2.73091 5.77854 1.87488 7.84519 1.87488 10.0001C1.87488 12.155 2.73091 14.2217 4.25466 15.7454C5.77842 17.2692 7.84507 18.1252 9.99998 18.1252C12.1549 18.1252 14.2215 17.2692 15.7453 15.7454C17.269 14.2217 18.1251 12.155 18.1251 10.0001C18.1251 7.84519 17.269 5.77854 15.7453 4.25479ZM14.375 15.3024C13.9897 15.6209 13.5705 15.896 13.125 16.1228V7.75869L14.375 6.50869V15.3024ZM8.12498 12.7587L9.37498 11.5087V16.8431C8.95199 16.8036 8.53355 16.7251 8.12498 16.6087V12.7587ZM6.87498 16.1228C6.42029 15.8912 5.99312 15.6092 5.60154 15.2821L6.87498 14.0087V16.1228ZM10.625 10.2587L11.875 9.00869V16.6118C11.4664 16.7282 11.048 16.8067 10.625 16.8462V10.2587ZM3.12498 10.0001C3.12533 8.69386 3.4978 7.41476 4.19878 6.31254C4.89976 5.21032 5.90024 4.33061 7.08308 3.77641C8.26592 3.2222 9.58216 3.01644 10.8777 3.18321C12.1733 3.34997 13.3945 3.88237 14.3984 4.71807L4.71716 14.3993C3.68459 13.1664 3.12069 11.6083 3.12498 10.0001ZM15.625 13.9524V6.04776C16.4382 7.20526 16.8746 8.58546 16.8746 10.0001C16.8746 11.4147 16.4382 12.7949 15.625 13.9524Z" fill="#191F2E"/>
</svg>
