<svg width="20" height="20" viewBox="0 0 20 20" fill="none" xmlns="http://www.w3.org/2000/svg">
<path d="M10 1.875C8.39303 1.875 6.82214 2.35152 5.486 3.24431C4.14985 4.1371 3.10844 5.40605 2.49348 6.8907C1.87852 8.37535 1.71762 10.009 2.03112 11.5851C2.34463 13.1612 3.11846 14.6089 4.25476 15.7452C5.39106 16.8815 6.8388 17.6554 8.4149 17.9689C9.99099 18.2824 11.6247 18.1215 13.1093 17.5065C14.594 16.8916 15.8629 15.8502 16.7557 14.514C17.6485 13.1779 18.125 11.607 18.125 10C18.1227 7.84581 17.266 5.78051 15.7427 4.25727C14.2195 2.73403 12.1542 1.87727 10 1.875ZM14.2648 5.39062C14.3891 5.28094 14.5518 5.22509 14.7172 5.23534C14.8826 5.2456 15.0372 5.32112 15.1469 5.44531C15.7608 6.13814 16.2285 6.94781 16.5219 7.82578C16.5745 7.98305 16.5625 8.15478 16.4885 8.30319C16.4145 8.45161 16.2846 8.56456 16.1273 8.61719C15.9701 8.66982 15.7984 8.65782 15.6499 8.58383C15.5015 8.50984 15.3886 8.37992 15.3359 8.22266C15.0968 7.50227 14.7141 6.83784 14.2109 6.26953C14.1021 6.14557 14.0467 5.98361 14.0568 5.81897C14.0669 5.65434 14.1417 5.50036 14.2648 5.39062ZM5.73516 14.6133C5.61093 14.723 5.44823 14.7788 5.28282 14.7686C5.11742 14.7583 4.96286 14.6828 4.85313 14.5586C4.23921 13.8658 3.77153 13.0561 3.47813 12.1781C3.4255 12.0209 3.4375 11.8491 3.51149 11.7007C3.58548 11.5523 3.71539 11.4393 3.87266 11.3867C4.02992 11.3341 4.20166 11.3461 4.35007 11.4201C4.49849 11.4941 4.61144 11.624 4.66407 11.7812C4.90367 12.5003 5.28636 13.1633 5.78907 13.7305C5.84354 13.792 5.88537 13.8636 5.91214 13.9412C5.93892 14.0189 5.95012 14.1011 5.94512 14.183C5.94011 14.265 5.91899 14.3452 5.88296 14.4191C5.84694 14.4929 5.79671 14.5589 5.73516 14.6133ZM5.78907 6.26953C5.2859 6.83784 4.90319 7.50227 4.66407 8.22266C4.63801 8.30053 4.59687 8.3725 4.54299 8.43447C4.48912 8.49644 4.42356 8.54719 4.35007 8.58383C4.27658 8.62046 4.1966 8.64227 4.11468 8.64799C4.03277 8.65371 3.95053 8.64325 3.87266 8.61719C3.79479 8.59113 3.72282 8.54999 3.66085 8.49611C3.59888 8.44224 3.54812 8.37668 3.51149 8.30319C3.47485 8.22971 3.45305 8.14972 3.44733 8.06781C3.4416 7.98589 3.45207 7.90365 3.47813 7.82578C3.77153 6.94781 4.23921 6.13814 4.85313 5.44531C4.96294 5.32099 5.11765 5.24539 5.28321 5.23513C5.44877 5.22488 5.61162 5.28081 5.73594 5.39062C5.86026 5.50044 5.93587 5.65515 5.94612 5.82071C5.95638 5.98626 5.90044 6.14912 5.79063 6.27344L5.78907 6.26953ZM11.3742 16.7383C10.4675 16.9237 9.53255 16.9237 8.62578 16.7383C8.46472 16.7039 8.32371 16.6074 8.23341 16.4697C8.14311 16.332 8.11082 16.1642 8.14355 16.0028C8.17628 15.8414 8.2714 15.6994 8.40822 15.6078C8.54504 15.5161 8.7125 15.4822 8.87422 15.5133C9.61709 15.6649 10.3829 15.6649 11.1258 15.5133C11.2875 15.4822 11.455 15.5161 11.5918 15.6078C11.7286 15.6994 11.8237 15.8414 11.8565 16.0028C11.8892 16.1642 11.8569 16.332 11.7666 16.4697C11.6763 16.6074 11.5353 16.7039 11.3742 16.7383ZM11.8625 4.00391C11.8331 4.1445 11.7561 4.27066 11.6445 4.36116C11.533 4.45165 11.3936 4.50096 11.25 4.50078C11.208 4.50088 11.1661 4.49669 11.125 4.48828C10.3821 4.33671 9.61631 4.33671 8.87344 4.48828C8.79266 4.5055 8.70926 4.50654 8.62808 4.49133C8.54689 4.47612 8.46952 4.44497 8.40045 4.39968C8.33138 4.3544 8.27196 4.29586 8.22565 4.22747C8.17933 4.15908 8.14703 4.08219 8.13061 4.00124C8.1142 3.92029 8.11399 3.83689 8.13 3.75586C8.14601 3.67482 8.17793 3.59777 8.2239 3.52915C8.26987 3.46053 8.32899 3.4017 8.39784 3.35606C8.46668 3.31043 8.54389 3.27889 8.625 3.26328C9.53179 3.07812 10.4667 3.07812 11.3734 3.26328C11.4539 3.27951 11.5305 3.31144 11.5986 3.35726C11.6668 3.40307 11.7252 3.46187 11.7706 3.53029C11.8161 3.59871 11.8476 3.67541 11.8633 3.756C11.8791 3.8366 11.8788 3.91951 11.8625 4V4.00391ZM16.5219 12.182C16.2285 13.06 15.7608 13.8697 15.1469 14.5625C15.0925 14.6241 15.0265 14.6743 14.9527 14.7104C14.8789 14.7464 14.7988 14.7676 14.7168 14.7727C14.6348 14.7778 14.5526 14.7666 14.475 14.74C14.3973 14.7133 14.3256 14.6716 14.2641 14.6172C14.2025 14.5628 14.1523 14.4968 14.1162 14.4231C14.0801 14.3493 14.059 14.2691 14.0539 14.1871C14.0488 14.1051 14.0599 14.023 14.0866 13.9453C14.1133 13.8676 14.155 13.7959 14.2094 13.7344C14.7121 13.1672 15.0948 12.5042 15.3344 11.7852C15.387 11.6279 15.5 11.498 15.6484 11.424C15.7968 11.35 15.9685 11.338 16.1258 11.3906C16.2831 11.4433 16.413 11.5562 16.487 11.7046C16.5609 11.853 16.5729 12.0248 16.5203 12.182H16.5219Z" fill="#191F2E"/>
</svg>
