<svg width="20" height="20" viewBox="0 0 20 20" fill="none" xmlns="http://www.w3.org/2000/svg">
<path d="M7.52031 2.89449C7.49962 2.81498 7.49481 2.73216 7.50615 2.65079C7.5175 2.56942 7.54478 2.49108 7.58643 2.42026C7.62808 2.34944 7.68328 2.28752 7.74888 2.23806C7.81449 2.1886 7.8892 2.15255 7.96874 2.13199C9.30111 1.78836 10.6989 1.78836 12.0312 2.13199C12.1788 2.16977 12.3075 2.26015 12.3931 2.38615C12.4788 2.51214 12.5154 2.66507 12.4962 2.81619C12.4771 2.96731 12.4033 3.10623 12.2889 3.20682C12.1745 3.30741 12.0273 3.36276 11.875 3.36246C11.8223 3.36218 11.7698 3.35536 11.7187 3.34214C10.5914 3.05137 9.40863 3.05137 8.28124 3.34214C8.12098 3.38349 7.95087 3.35957 7.80822 3.27565C7.66556 3.19173 7.56202 3.05465 7.52031 2.89449ZM4.20234 4.30777C3.23878 5.28896 2.53989 6.49857 2.17109 7.82339C2.12685 7.98315 2.14789 8.15393 2.22957 8.29817C2.31125 8.44241 2.44688 8.5483 2.60663 8.59254C2.76639 8.63677 2.93717 8.61574 3.08141 8.53406C3.22565 8.45238 3.33154 8.31674 3.37577 8.15699C3.68755 7.03556 4.27894 6.01165 5.09452 5.18121C5.2012 5.06121 5.25761 4.90476 5.25204 4.7443C5.24648 4.58383 5.17938 4.43166 5.06464 4.31934C4.94991 4.20702 4.79635 4.14316 4.63581 4.14101C4.47526 4.13885 4.32004 4.19857 4.20234 4.30777ZM3.37577 11.8398C3.35382 11.7607 3.3165 11.6867 3.26594 11.622C3.21539 11.5573 3.15259 11.5033 3.08113 11.4628C3.00968 11.4224 2.93096 11.3965 2.84948 11.3865C2.768 11.3765 2.68534 11.3827 2.60624 11.4046C2.52714 11.4266 2.45314 11.4639 2.38846 11.5145C2.32379 11.565 2.2697 11.6278 2.22929 11.6993C2.18888 11.7707 2.16294 11.8495 2.15296 11.9309C2.14297 12.0124 2.14913 12.0951 2.17109 12.1742C2.54012 13.4989 3.23897 14.7085 4.20234 15.6898C4.31858 15.808 4.47701 15.8752 4.64279 15.8766C4.80857 15.878 4.96811 15.8135 5.08632 15.6972C5.20453 15.581 5.27172 15.4225 5.27311 15.2568C5.2745 15.091 5.20998 14.9314 5.09374 14.8132C4.27917 13.9831 3.68813 12.9601 3.37577 11.8398ZM11.7187 16.6578C10.5914 16.9489 9.40859 16.9489 8.28124 16.6578C8.20132 16.6358 8.11783 16.63 8.03564 16.6406C7.95344 16.6512 7.87417 16.6781 7.80246 16.7196C7.73074 16.7612 7.668 16.8166 7.6179 16.8826C7.56779 16.9486 7.53131 17.0239 7.51059 17.1042C7.48987 17.1844 7.48531 17.268 7.49719 17.35C7.50907 17.4321 7.53714 17.5109 7.57978 17.582C7.62241 17.653 7.67876 17.7149 7.74554 17.764C7.81231 17.8131 7.88819 17.8484 7.96874 17.8679C9.30111 18.2116 10.6989 18.2116 12.0312 17.8679C12.1895 17.8245 12.3243 17.7205 12.4066 17.5785C12.4888 17.4365 12.5119 17.2679 12.4709 17.109C12.4299 16.9501 12.328 16.8137 12.1873 16.7293C12.0465 16.6449 11.8782 16.6192 11.7187 16.6578ZM17.3945 11.4062C17.3154 11.3842 17.2327 11.3781 17.1511 11.3881C17.0696 11.3982 16.9909 11.4242 16.9194 11.4647C16.8479 11.5051 16.7851 11.5593 16.7346 11.6241C16.6841 11.6889 16.6469 11.763 16.625 11.8421C16.3134 12.9634 15.722 13.9871 14.9062 14.8171C14.8487 14.8757 14.8033 14.9451 14.7726 15.0212C14.7419 15.0973 14.7265 15.1788 14.7273 15.2608C14.728 15.3429 14.7449 15.4241 14.7771 15.4996C14.8092 15.5751 14.8559 15.6436 14.9144 15.7011C14.973 15.7586 15.0424 15.804 15.1185 15.8347C15.1946 15.8655 15.2761 15.8809 15.3581 15.8801C15.4402 15.8793 15.5214 15.8624 15.5969 15.8303C15.6724 15.7982 15.7409 15.7515 15.7984 15.6929C16.7621 14.7118 17.461 13.5022 17.8297 12.1773C17.8519 12.0981 17.8582 12.0153 17.8484 11.9336C17.8385 11.852 17.8126 11.773 17.7722 11.7014C17.7318 11.6298 17.6776 11.5668 17.6128 11.5162C17.548 11.4655 17.4738 11.4281 17.3945 11.4062ZM16.6242 8.16089C16.6462 8.24 16.6835 8.314 16.734 8.37867C16.7846 8.44335 16.8474 8.49744 16.9189 8.53785C16.9903 8.57826 17.069 8.60419 17.1505 8.61418C17.232 8.62417 17.3146 8.61801 17.3937 8.59605C17.4728 8.5741 17.5468 8.53678 17.6115 8.48622C17.6762 8.43567 17.7303 8.37287 17.7707 8.30141C17.8111 8.22995 17.837 8.15123 17.847 8.06975C17.857 7.98827 17.8509 7.90562 17.8289 7.82652C17.4603 6.50163 16.7613 5.29198 15.7977 4.31089C15.7401 4.25236 15.6716 4.20574 15.596 4.17369C15.5204 4.14164 15.4393 4.12479 15.3572 4.1241C15.2751 4.12342 15.1937 4.1389 15.1176 4.16968C15.0415 4.20045 14.9722 4.24592 14.9137 4.30347C14.8551 4.36103 14.8085 4.42955 14.7765 4.50512C14.7444 4.5807 14.7276 4.66184 14.7269 4.74393C14.7262 4.82601 14.7417 4.90743 14.7724 4.98353C14.8032 5.05963 14.8487 5.12893 14.9062 5.18746C15.7211 6.0171 16.3122 7.03988 16.6242 8.16011V8.16089Z" fill="#191F2E"/>
</svg>
