<svg width="20" height="20" viewBox="0 0 20 20" fill="none" xmlns="http://www.w3.org/2000/svg">
<path d="M10 1.875C8.39303 1.875 6.82214 2.35152 5.486 3.24431C4.14985 4.1371 3.10844 5.40605 2.49348 6.8907C1.87852 8.37535 1.71762 10.009 2.03112 11.5851C2.34463 13.1612 3.11846 14.6089 4.25476 15.7452C5.39106 16.8815 6.8388 17.6554 8.4149 17.9689C9.99099 18.2824 11.6247 18.1215 13.1093 17.5065C14.594 16.8916 15.8629 15.8502 16.7557 14.514C17.6485 13.1779 18.125 11.607 18.125 10C18.1227 7.84581 17.266 5.78051 15.7427 4.25727C14.2195 2.73403 12.1542 1.87727 10 1.875ZM10 15.625C8.76159 15.6252 7.55774 15.2167 6.57519 14.4628C5.59264 13.709 4.88633 12.652 4.56582 11.4558C4.24531 10.2596 4.32852 8.99103 4.80254 7.84693C5.27657 6.70283 6.1149 5.74715 7.1875 5.12812C7.33067 5.05038 7.49853 5.03162 7.65533 5.07582C7.81213 5.12002 7.94547 5.2237 8.02696 5.36476C8.10844 5.50583 8.13162 5.67314 8.09156 5.83105C8.05151 5.98896 7.95138 6.12499 7.8125 6.21016C6.97845 6.6917 6.32659 7.435 5.95803 8.32478C5.58947 9.21455 5.52481 10.2011 5.77408 11.1314C6.02334 12.0616 6.5726 12.8836 7.33667 13.4699C8.10074 14.0562 9.03692 14.374 10 14.374C10.9631 14.374 11.8993 14.0562 12.6633 13.4699C13.4274 12.8836 13.9767 12.0616 14.2259 11.1314C14.4752 10.2011 14.4105 9.21455 14.042 8.32478C13.6734 7.435 13.0216 6.6917 12.1875 6.21016C12.0486 6.12499 11.9485 5.98896 11.9084 5.83105C11.8684 5.67314 11.8916 5.50583 11.9731 5.36476C12.0545 5.2237 12.1879 5.12002 12.3447 5.07582C12.5015 5.03162 12.6693 5.05038 12.8125 5.12812C13.8851 5.74715 14.7234 6.70283 15.1975 7.84693C15.6715 8.99103 15.7547 10.2596 15.4342 11.4558C15.1137 12.652 14.4074 13.709 13.4248 14.4628C12.4423 15.2167 11.2384 15.6252 10 15.625Z" fill="#191F2E"/>
</svg>
