<svg width="20" height="20" viewBox="0 0 20 20" fill="none" xmlns="http://www.w3.org/2000/svg">
<path d="M13.4375 5.9375C13.4375 5.25763 13.2359 4.59302 12.8582 4.02773C12.4805 3.46243 11.9436 3.02184 11.3155 2.76167C10.6874 2.50149 9.99619 2.43342 9.32938 2.56605C8.66257 2.69869 8.05007 3.02608 7.56932 3.50682C7.08858 3.98757 6.76119 4.60007 6.62855 5.26688C6.49592 5.93369 6.56399 6.62486 6.82417 7.25298C7.08434 7.8811 7.52494 8.41796 8.09023 8.79568C8.65552 9.1734 9.32013 9.375 10 9.375C10.9114 9.37397 11.7851 9.01147 12.4295 8.36704C13.074 7.72261 13.4365 6.84887 13.4375 5.9375ZM10 8.125C9.56736 8.125 9.14442 7.99671 8.78469 7.75634C8.42496 7.51598 8.14458 7.17433 7.97902 6.77462C7.81345 6.37491 7.77013 5.93507 7.85453 5.51074C7.93894 5.08641 8.14728 4.69663 8.45321 4.39071C8.75913 4.08478 9.14891 3.87644 9.57324 3.79203C9.99757 3.70763 10.4374 3.75095 10.8371 3.91652C11.2368 4.08208 11.5785 4.36246 11.8188 4.72219C12.0592 5.08192 12.1875 5.50485 12.1875 5.9375C12.1875 6.51766 11.957 7.07406 11.5468 7.4843C11.1366 7.89453 10.5802 8.125 10 8.125ZM14.6875 10C14.0076 10 13.343 10.2016 12.7777 10.5793C12.2124 10.957 11.7718 11.4939 11.5117 12.122C11.2515 12.7501 11.1834 13.4413 11.3161 14.1081C11.4487 14.7749 11.7761 15.3874 12.2568 15.8682C12.7376 16.3489 13.3501 16.6763 14.0169 16.809C14.6837 16.9416 15.3749 16.8735 16.003 16.6133C16.6311 16.3532 17.168 15.9126 17.5457 15.3473C17.9234 14.782 18.125 14.1174 18.125 13.4375C18.124 12.5261 17.7615 11.6524 17.117 11.008C16.4726 10.3635 15.5989 10.001 14.6875 10ZM14.6875 15.625C14.2549 15.625 13.8319 15.4967 13.4722 15.2563C13.1125 15.016 12.8321 14.6743 12.6665 14.2746C12.5009 13.8749 12.4576 13.4351 12.542 13.0107C12.6264 12.5864 12.8348 12.1966 13.1407 11.8907C13.4466 11.5848 13.8364 11.3764 14.2607 11.292C14.6851 11.2076 15.1249 11.2509 15.5246 11.4165C15.9243 11.5821 16.266 11.8625 16.5063 12.2222C16.7467 12.5819 16.875 13.0049 16.875 13.4375C16.875 14.0177 16.6445 14.5741 16.2343 14.9843C15.8241 15.3945 15.2677 15.625 14.6875 15.625ZM5.3125 10C4.63263 10 3.96802 10.2016 3.40273 10.5793C2.83743 10.957 2.39684 11.4939 2.13667 12.122C1.87649 12.7501 1.80842 13.4413 1.94105 14.1081C2.07369 14.7749 2.40108 15.3874 2.88182 15.8682C3.36257 16.3489 3.97507 16.6763 4.64188 16.809C5.30869 16.9416 5.99986 16.8735 6.62798 16.6133C7.2561 16.3532 7.79296 15.9126 8.17068 15.3473C8.5484 14.782 8.75 14.1174 8.75 13.4375C8.74897 12.5261 8.38647 11.6524 7.74204 11.008C7.09761 10.3635 6.22387 10.001 5.3125 10ZM5.3125 15.625C4.87985 15.625 4.45692 15.4967 4.09719 15.2563C3.73746 15.016 3.45708 14.6743 3.29152 14.2746C3.12595 13.8749 3.08263 13.4351 3.16703 13.0107C3.25144 12.5864 3.45978 12.1966 3.76571 11.8907C4.07163 11.5848 4.46141 11.3764 4.88574 11.292C5.31007 11.2076 5.74991 11.2509 6.14962 11.4165C6.54933 11.5821 6.89098 11.8625 7.13134 12.2222C7.37171 12.5819 7.5 13.0049 7.5 13.4375C7.5 14.0177 7.26953 14.5741 6.8593 14.9843C6.44906 15.3945 5.89266 15.625 5.3125 15.625Z" fill="#191F2E"/>
</svg>
