<svg width="20" height="20" viewBox="0 0 20 20" fill="none" xmlns="http://www.w3.org/2000/svg">
<path d="M15.625 2.18757H12.9273C12.549 1.79248 12.0946 1.47807 11.5915 1.26327C11.0884 1.04848 10.547 0.937744 10 0.937744C9.45297 0.937744 8.9116 1.04848 8.40851 1.26327C7.90541 1.47807 7.451 1.79248 7.07266 2.18757H4.375C3.9606 2.18757 3.56317 2.35219 3.27015 2.64522C2.97712 2.93824 2.8125 3.33567 2.8125 3.75007V16.8751C2.8125 17.2895 2.97712 17.6869 3.27015 17.9799C3.56317 18.273 3.9606 18.4376 4.375 18.4376H15.625C16.0394 18.4376 16.4368 18.273 16.7299 17.9799C17.0229 17.6869 17.1875 17.2895 17.1875 16.8751V3.75007C17.1875 3.33567 17.0229 2.93824 16.7299 2.64522C16.4368 2.35219 16.0394 2.18757 15.625 2.18757ZM12.1648 4.68757H7.83516C7.91063 4.16726 8.17097 3.69154 8.56853 3.34749C8.96608 3.00345 9.47425 2.81409 10 2.81409C10.5258 2.81409 11.0339 3.00345 11.4315 3.34749C11.829 3.69154 12.0894 4.16726 12.1648 4.68757ZM15.3125 16.5626H4.6875V4.06257H6.04766C5.97472 4.36975 5.93776 4.68436 5.9375 5.00007V5.62507C5.9375 5.87371 6.03627 6.11217 6.21209 6.28798C6.3879 6.4638 6.62636 6.56257 6.875 6.56257H13.125C13.3736 6.56257 13.6121 6.4638 13.7879 6.28798C13.9637 6.11217 14.0625 5.87371 14.0625 5.62507V5.00007C14.0622 4.68436 14.0253 4.36975 13.9523 4.06257H15.3125V16.5626Z" fill="#191F2E"/>
</svg>
