<svg width="20" height="20" viewBox="0 0 20 20" fill="none" xmlns="http://www.w3.org/2000/svg">
<path d="M10 1.5625C8.33122 1.5625 6.69992 2.05735 5.31238 2.98448C3.92484 3.9116 2.84338 5.22936 2.20477 6.77111C1.56616 8.31286 1.39907 10.0094 1.72463 11.6461C2.05019 13.2828 2.85379 14.7862 4.03379 15.9662C5.2138 17.1462 6.71721 17.9498 8.35393 18.2754C9.99064 18.6009 11.6871 18.4338 13.2289 17.7952C14.7706 17.1566 16.0884 16.0752 17.0155 14.6876C17.9427 13.3001 18.4375 11.6688 18.4375 10C18.435 7.763 17.5453 5.61833 15.9635 4.03653C14.3817 2.45473 12.237 1.56498 10 1.5625ZM10 16.5625C8.70206 16.5625 7.43327 16.1776 6.35407 15.4565C5.27488 14.7354 4.43374 13.7105 3.93704 12.5114C3.44034 11.3122 3.31038 9.99272 3.5636 8.71972C3.81682 7.44672 4.44183 6.27739 5.35962 5.35961C6.2774 4.44183 7.44672 3.81681 8.71972 3.5636C9.99272 3.31038 11.3122 3.44034 12.5114 3.93704C13.7105 4.43374 14.7354 5.27487 15.4565 6.35407C16.1776 7.43327 16.5625 8.70206 16.5625 10C16.5606 11.7399 15.8686 13.408 14.6383 14.6383C13.408 15.8686 11.7399 16.5606 10 16.5625ZM15.3125 10C15.3125 10.2486 15.2137 10.4871 15.0379 10.6629C14.8621 10.8387 14.6236 10.9375 14.375 10.9375H12.2656L13.7906 12.4617C13.9667 12.6378 14.0657 12.8767 14.0657 13.1258C14.0657 13.3749 13.9667 13.6137 13.7906 13.7898C13.6145 13.966 13.3756 14.0649 13.1266 14.0649C12.8775 14.0649 12.6386 13.966 12.4625 13.7898L9.3375 10.6648C9.20575 10.5339 9.11589 10.3667 9.07932 10.1845C9.04275 10.0024 9.06112 9.81348 9.13211 9.64179C9.20309 9.47011 9.32349 9.32338 9.47801 9.22024C9.63254 9.1171 9.81422 9.0622 10 9.0625H14.375C14.6236 9.0625 14.8621 9.16127 15.0379 9.33709C15.2137 9.5129 15.3125 9.75136 15.3125 10Z" fill="#191F2E"/>
</svg>
