<svg width="20" height="20" viewBox="0 0 20 20" fill="none" xmlns="http://www.w3.org/2000/svg">
<path d="M16.2501 7.49993C16.2501 7.31451 16.305 7.13325 16.4081 6.97908C16.5111 6.82491 16.6575 6.70475 16.8288 6.63379C17.0001 6.56283 17.1886 6.54427 17.3705 6.58044C17.5523 6.61661 17.7194 6.7059 17.8505 6.83701C17.9816 6.96813 18.0709 7.13517 18.107 7.31703C18.1432 7.49889 18.1246 7.68739 18.0537 7.85869C17.9827 8.03 17.8626 8.17641 17.7084 8.27943C17.5542 8.38244 17.373 8.43743 17.1876 8.43743C16.9389 8.43743 16.7005 8.33865 16.5246 8.16284C16.3488 7.98702 16.2501 7.74857 16.2501 7.49993ZM15.3126 5.62493C15.498 5.62493 15.6792 5.56994 15.8334 5.46693C15.9876 5.36392 16.1077 5.2175 16.1787 5.04619C16.2496 4.87489 16.2682 4.68639 16.232 4.50453C16.1959 4.32267 16.1066 4.15563 15.9755 4.02451C15.8444 3.8934 15.6773 3.80411 15.4955 3.76794C15.3136 3.73177 15.1251 3.75033 14.9538 3.82129C14.7825 3.89225 14.6361 4.01241 14.5331 4.16658C14.43 4.32075 14.3751 4.50201 14.3751 4.68743C14.3751 4.93607 14.4738 5.17452 14.6496 5.35034C14.8255 5.52615 15.0639 5.62493 15.3126 5.62493ZM17.5516 9.99993C17.3865 9.98631 17.2227 10.0388 17.0963 10.1459C16.9699 10.253 16.8911 10.4059 16.8774 10.571C16.7655 11.8776 16.2828 13.1251 15.4861 14.1667C14.6893 15.2083 13.6116 16.0006 12.3798 16.4505C11.148 16.9003 9.81329 16.989 8.53279 16.7061C7.25229 16.4231 6.07924 15.7804 5.15165 14.8534C4.22407 13.9264 3.58055 12.7537 3.29681 11.4734C3.01307 10.1931 3.10091 8.85834 3.55001 7.62625C3.9991 6.39416 4.79076 5.31596 5.83183 4.51853C6.8729 3.72109 8.12008 3.2376 9.42662 3.12493C9.50869 3.11815 9.58863 3.09528 9.66187 3.05762C9.73511 3.01995 9.80021 2.96823 9.85346 2.90541C9.90671 2.84258 9.94706 2.76989 9.97221 2.69147C9.99737 2.61305 10.0068 2.53044 10.0001 2.44836C9.99328 2.36629 9.97041 2.28635 9.93275 2.21311C9.89508 2.13987 9.84336 2.07477 9.78054 2.02152C9.71771 1.96828 9.64502 1.92792 9.5666 1.90277C9.48818 1.87762 9.40557 1.86815 9.32349 1.87493C7.77976 2.00771 6.30607 2.57863 5.07579 3.52052C3.84551 4.4624 2.90983 5.73607 2.37883 7.19167C1.84783 8.64727 1.7436 10.2242 2.07841 11.7371C2.41321 13.2499 3.17312 14.6356 4.26874 15.7312C5.36435 16.8269 6.75008 17.5868 8.26291 17.9216C9.77573 18.2564 11.3527 18.1522 12.8083 17.6212C14.2639 17.0902 15.5376 16.1545 16.4795 14.9242C17.4213 13.6939 17.9923 12.2202 18.1251 10.6765C18.1321 10.5944 18.1229 10.5116 18.0978 10.4331C18.0728 10.3546 18.0324 10.2818 17.9791 10.2189C17.9258 10.156 17.8606 10.1043 17.7872 10.0667C17.7139 10.0291 17.6338 10.0064 17.5516 9.99993ZM10.0001 4.37493C11.1126 4.37493 12.2001 4.70483 13.1251 5.32291C14.0502 5.94099 14.7711 6.8195 15.1969 7.84733C15.6226 8.87517 15.734 10.0062 15.517 11.0973C15.2999 12.1885 14.7642 13.1907 13.9775 13.9774C13.1909 14.7641 12.1886 15.2998 11.0974 15.5168C10.0063 15.7339 8.8753 15.6225 7.84746 15.1967C6.81963 14.771 5.94112 14.05 5.32304 13.125C4.70496 12.2 4.37506 11.1124 4.37506 9.99993C4.37671 8.50859 4.96987 7.07881 6.02441 6.02428C7.07894 4.96974 8.50872 4.37658 10.0001 4.37493ZM9.37506 9.99993C9.37506 10.1657 9.4409 10.3247 9.55811 10.4419C9.67532 10.5591 9.8343 10.6249 10.0001 10.6249H13.7501C13.9158 10.6249 14.0748 10.5591 14.192 10.4419C14.3092 10.3247 14.3751 10.1657 14.3751 9.99993C14.3751 9.83417 14.3092 9.67519 14.192 9.55798C14.0748 9.44077 13.9158 9.37493 13.7501 9.37493H10.6251V6.24993C10.6251 6.08417 10.5592 5.92519 10.442 5.80798C10.3248 5.69077 10.1658 5.62493 10.0001 5.62493C9.8343 5.62493 9.67532 5.69077 9.55811 5.80798C9.4409 5.92519 9.37506 6.08417 9.37506 6.24993V9.99993ZM12.5001 3.74993C12.6855 3.74993 12.8667 3.69494 13.0209 3.59193C13.1751 3.48891 13.2952 3.3425 13.3662 3.17119C13.4371 2.99989 13.4557 2.81139 13.4195 2.62953C13.3834 2.44767 13.2941 2.28063 13.163 2.14951C13.0319 2.0184 12.8648 1.92911 12.683 1.89294C12.5011 1.85677 12.3126 1.87533 12.1413 1.94629C11.97 2.01725 11.8236 2.13741 11.7206 2.29158C11.6175 2.44575 11.5626 2.62701 11.5626 2.81243C11.5626 3.06107 11.6613 3.29952 11.8371 3.47534C12.013 3.65115 12.2514 3.74993 12.5001 3.74993Z" fill="#191F2E"/>
</svg>
