<svg width="20" height="20" viewBox="0 0 20 20" fill="none" xmlns="http://www.w3.org/2000/svg">
<path d="M10.6249 6.25012V9.64621L13.4468 11.3392C13.5889 11.4245 13.6913 11.5629 13.7314 11.7238C13.7716 11.8846 13.7462 12.0549 13.6608 12.197C13.5755 12.3391 13.4371 12.4415 13.2762 12.4817C13.1154 12.5218 12.9451 12.4964 12.803 12.4111L9.67801 10.5361C9.58552 10.4805 9.50899 10.4019 9.45587 10.308C9.40275 10.2141 9.37485 10.108 9.37488 10.0001V6.25012C9.37488 6.08436 9.44073 5.92539 9.55794 5.80818C9.67515 5.69097 9.83412 5.62512 9.99988 5.62512C10.1656 5.62512 10.3246 5.69097 10.4418 5.80818C10.559 5.92539 10.6249 6.08436 10.6249 6.25012ZM17.7389 4.42277C17.6248 4.3754 17.4991 4.36296 17.3778 4.38701C17.2566 4.41107 17.1451 4.47055 17.0577 4.55793L16.0936 5.52434C15.8413 5.25012 15.5811 4.97746 15.3046 4.69699C14.2623 3.65458 12.9359 2.94243 11.4912 2.64954C10.0464 2.35664 8.54742 2.49599 7.18143 3.05017C5.81545 3.60435 4.64306 4.54878 3.81077 5.76546C2.97847 6.98214 2.52318 8.41712 2.50177 9.89108C2.48036 11.365 2.89379 12.8126 3.6904 14.053C4.48701 15.2933 5.63147 16.2714 6.98078 16.865C8.3301 17.4586 9.82442 17.6415 11.2771 17.3906C12.7297 17.1398 14.0762 16.4665 15.1483 15.4548C15.208 15.3984 15.256 15.3307 15.2896 15.2558C15.3232 15.1808 15.3417 15.0999 15.344 15.0178C15.3463 14.9357 15.3324 14.8539 15.3031 14.7771C15.2739 14.7004 15.2297 14.6301 15.1733 14.5704C15.1169 14.5107 15.0493 14.4627 14.9743 14.4291C14.8993 14.3956 14.8184 14.3771 14.7363 14.3748C14.6542 14.3724 14.5724 14.3863 14.4957 14.4156C14.4189 14.4449 14.3487 14.489 14.2889 14.5454C13.3956 15.3884 12.2736 15.9494 11.0632 16.1585C9.85287 16.3675 8.60774 16.2152 7.48339 15.7207C6.35904 15.2262 5.40532 14.4114 4.74138 13.378C4.07744 12.3446 3.73272 11.1385 3.75026 9.91034C3.76781 8.68218 4.14686 7.48641 4.84005 6.47241C5.53325 5.45842 6.50985 4.67116 7.64787 4.20897C8.78589 3.74679 10.0349 3.63018 11.2388 3.87371C12.4427 4.11723 13.5481 4.7101 14.4171 5.57824C14.6936 5.85793 14.9538 6.13293 15.2069 6.40871L13.9327 7.68293C13.8452 7.77034 13.7856 7.88175 13.7614 8.00305C13.7373 8.12435 13.7496 8.2501 13.797 8.36436C13.8443 8.47863 13.9245 8.57627 14.0274 8.64494C14.1303 8.71361 14.2512 8.75022 14.3749 8.75012H17.4999C17.6656 8.75012 17.8246 8.68427 17.9418 8.56706C18.059 8.44985 18.1249 8.29088 18.1249 8.12512V5.00012C18.1249 4.87651 18.0882 4.75568 18.0195 4.65291C17.9508 4.55014 17.8532 4.47006 17.7389 4.42277Z" fill="#191F2E"/>
</svg>
