<svg width="20" height="20" viewBox="0 0 20 20" fill="none" xmlns="http://www.w3.org/2000/svg">
<path d="M10.9375 6.24989V9.46942L13.607 11.071C13.715 11.1331 13.8095 11.2161 13.885 11.3151C13.9605 11.4141 14.0155 11.5272 14.0469 11.6478C14.0782 11.7683 14.0852 11.8939 14.0675 12.0171C14.0497 12.1404 14.0076 12.2589 13.9436 12.3657C13.8795 12.4725 13.7948 12.5655 13.6945 12.6392C13.5941 12.7129 13.48 12.7659 13.3589 12.7951C13.2379 12.8242 13.1122 12.8289 12.9892 12.809C12.8663 12.789 12.7486 12.7448 12.643 12.6788L9.51796 10.8038C9.37908 10.7205 9.26413 10.6027 9.18431 10.4619C9.10449 10.321 9.06253 10.1618 9.06249 9.99989V6.24989C9.06249 6.00125 9.16127 5.76279 9.33708 5.58698C9.5129 5.41116 9.75135 5.31239 9.99999 5.31239C10.2486 5.31239 10.4871 5.41116 10.6629 5.58698C10.8387 5.76279 10.9375 6.00125 10.9375 6.24989ZM17.5 4.06239C17.2514 4.06239 17.0129 4.16116 16.8371 4.33698C16.6613 4.51279 16.5625 4.75125 16.5625 4.99989V5.57567C16.2336 5.21083 15.8922 4.84833 15.5242 4.47567C14.4384 3.38995 13.0567 2.64828 11.5517 2.34335C10.0468 2.03841 8.48532 2.18373 7.06249 2.76114C5.63965 3.33855 4.41853 4.32245 3.55168 5.5899C2.68484 6.85735 2.21071 8.35215 2.18856 9.88752C2.1664 11.4229 2.59719 12.9307 3.4271 14.2227C4.25701 15.5146 5.44924 16.5333 6.85482 17.1516C8.26039 17.7698 9.81699 17.9601 11.3301 17.6987C12.8432 17.4373 14.2458 16.7359 15.3625 15.6819C15.5434 15.5112 15.649 15.2756 15.6562 15.027C15.6634 14.7783 15.5715 14.537 15.4008 14.3561C15.23 14.1753 14.9944 14.0696 14.7458 14.0624C14.4972 14.0552 14.2559 14.1471 14.075 14.3179C13.2264 15.1187 12.1607 15.6517 11.011 15.8505C9.86123 16.0492 8.67842 15.9047 7.61029 15.4352C6.54216 14.9656 5.63605 14.1917 5.00514 13.2102C4.37424 12.2287 4.0465 11.0831 4.06287 9.91641C4.07923 8.74973 4.43898 7.61374 5.09717 6.65032C5.75536 5.6869 6.68282 4.93876 7.76371 4.49934C8.84459 4.05993 10.031 3.94872 11.1747 4.1796C12.3184 4.41049 13.3688 4.97323 14.1945 5.79755C14.657 6.26552 15.0781 6.71864 15.4867 7.18739H14.375C14.1264 7.18739 13.8879 7.28616 13.7121 7.46198C13.5363 7.63779 13.4375 7.87625 13.4375 8.12489C13.4375 8.37353 13.5363 8.61199 13.7121 8.7878C13.8879 8.96362 14.1264 9.06239 14.375 9.06239H17.5C17.7486 9.06239 17.9871 8.96362 18.1629 8.7878C18.3387 8.61199 18.4375 8.37353 18.4375 8.12489V4.99989C18.4375 4.75125 18.3387 4.51279 18.1629 4.33698C17.9871 4.16116 17.7486 4.06239 17.5 4.06239Z" fill="#191F2E"/>
</svg>
