<svg width="20" height="20" viewBox="0 0 20 20" fill="none" xmlns="http://www.w3.org/2000/svg">
<path d="M10.625 6.25012V9.64621L13.4469 11.3392C13.589 11.4245 13.6914 11.5629 13.7315 11.7238C13.7717 11.8846 13.7463 12.0549 13.6609 12.197C13.5756 12.3391 13.4372 12.4415 13.2763 12.4817C13.1155 12.5218 12.9452 12.4964 12.8031 12.4111L9.6781 10.5361C9.58561 10.4805 9.50909 10.4019 9.45597 10.308C9.40285 10.2141 9.37495 10.108 9.37498 10.0001V6.25012C9.37498 6.08436 9.44083 5.92539 9.55804 5.80818C9.67525 5.69097 9.83422 5.62512 9.99998 5.62512C10.1657 5.62512 10.3247 5.69097 10.4419 5.80818C10.5591 5.92539 10.625 6.08436 10.625 6.25012ZM17.5 4.37512C17.3342 4.37512 17.1752 4.44097 17.058 4.55818C16.9408 4.67539 16.875 4.83436 16.875 5.00012V6.40637C16.3789 5.83137 15.8726 5.27746 15.3031 4.7009C14.2608 3.65848 12.9344 2.94634 11.4897 2.65344C10.045 2.36055 8.54595 2.4999 7.17997 3.05408C5.81398 3.60826 4.6416 4.55269 3.8093 5.76937C2.97701 6.98605 2.52171 8.42102 2.5003 9.89499C2.47889 11.369 2.89232 12.8165 3.68893 14.0569C4.48554 15.2972 5.63 16.2753 6.97932 16.8689C8.32863 17.4625 9.82296 17.6454 11.2756 17.3946C12.7282 17.1437 14.0747 16.4704 15.1469 15.4587C15.2066 15.4023 15.2546 15.3346 15.2881 15.2597C15.3217 15.1847 15.3402 15.1038 15.3425 15.0217C15.3448 14.9396 15.331 14.8578 15.3017 14.781C15.2724 14.7043 15.2283 14.634 15.1719 14.5743C15.1154 14.5146 15.0478 14.4666 14.9728 14.433C14.8978 14.3995 14.817 14.381 14.7348 14.3787C14.6527 14.3764 14.5709 14.3902 14.4942 14.4195C14.4174 14.4488 14.3472 14.4929 14.2875 14.5493C13.3938 15.3916 12.2717 15.9519 11.0615 16.1603C9.85124 16.3686 8.60642 16.2159 7.48249 15.721C6.35855 15.2261 5.40531 14.4111 4.74179 13.3778C4.07827 12.3444 3.73388 11.1385 3.75163 9.91055C3.76938 8.68262 4.14848 7.48714 4.8416 6.47338C5.53471 5.45962 6.51112 4.67252 7.64889 4.21036C8.78666 3.7482 10.0354 3.63147 11.2391 3.87475C12.4428 4.11802 13.5482 4.71051 14.4172 5.57824C15.0531 6.22199 15.6101 6.84231 16.1719 7.50012H14.375C14.2092 7.50012 14.0502 7.56597 13.933 7.68318C13.8158 7.80039 13.75 7.95936 13.75 8.12512C13.75 8.29088 13.8158 8.44985 13.933 8.56706C14.0502 8.68427 14.2092 8.75012 14.375 8.75012H17.5C17.6657 8.75012 17.8247 8.68427 17.9419 8.56706C18.0591 8.44985 18.125 8.29088 18.125 8.12512V5.00012C18.125 4.83436 18.0591 4.67539 17.9419 4.55818C17.8247 4.44097 17.6657 4.37512 17.5 4.37512Z" fill="#191F2E"/>
</svg>
