<svg width="20" height="20" viewBox="0 0 20 20" fill="none" xmlns="http://www.w3.org/2000/svg">
<path d="M18.4375 10.7032C18.2996 12.3064 17.7066 13.8368 16.7285 15.1145C15.7503 16.3921 14.4276 17.3638 12.9159 17.9153C11.4043 18.4667 9.76656 18.5749 8.19548 18.2272C6.6244 17.8795 5.18531 17.0903 4.04751 15.9525C2.9097 14.8147 2.12053 13.3756 1.77282 11.8046C1.42512 10.2335 1.53336 8.59578 2.0848 7.08412C2.63624 5.57247 3.60794 4.24975 4.88559 3.27158C6.16323 2.29341 7.69367 1.7005 9.29684 1.56258C9.54548 1.54186 9.79217 1.62076 9.98264 1.78192C10.1731 1.94309 10.2917 2.17331 10.3125 2.42195C10.3332 2.67059 10.2543 2.91728 10.0931 3.10775C9.93196 3.29821 9.70173 3.41686 9.45309 3.43758C8.20572 3.54455 7.01486 4.00559 6.02064 4.76645C5.02642 5.52731 4.27022 6.55632 3.84102 7.7324C3.41182 8.90848 3.32748 10.1827 3.59792 11.4051C3.86837 12.6275 4.48235 13.7472 5.36761 14.6324C6.25287 15.5177 7.37258 16.1317 8.59497 16.4021C9.81736 16.6726 11.0916 16.5882 12.2676 16.159C13.4437 15.7298 14.4727 14.9736 15.2336 13.9794C15.9945 12.9852 16.4555 11.7943 16.5625 10.547C16.5727 10.4238 16.6071 10.304 16.6637 10.1941C16.7203 10.0843 16.798 9.98672 16.8923 9.90692C16.9866 9.82712 17.0957 9.76668 17.2134 9.72904C17.3311 9.69141 17.455 9.67732 17.5781 9.68758C17.7012 9.69784 17.8211 9.73225 17.9309 9.78884C18.0407 9.84543 18.1383 9.9231 18.2181 10.0174C18.2979 10.1117 18.3584 10.2208 18.396 10.3385C18.4336 10.4562 18.4477 10.5801 18.4375 10.7032ZM9.06247 5.93758V10.0001C9.06247 10.2487 9.16124 10.4872 9.33706 10.663C9.51287 10.8388 9.75133 10.9376 9.99997 10.9376H14.0625C14.3111 10.9376 14.5496 10.8388 14.7254 10.663C14.9012 10.4872 15 10.2487 15 10.0001C15 9.75144 14.9012 9.51298 14.7254 9.33717C14.5496 9.16135 14.3111 9.06258 14.0625 9.06258H10.9375V5.93758C10.9375 5.68894 10.8387 5.45048 10.6629 5.27467C10.4871 5.09885 10.2486 5.00008 9.99997 5.00008C9.75133 5.00008 9.51287 5.09885 9.33706 5.27467C9.16124 5.45048 9.06247 5.68894 9.06247 5.93758ZM16.25 7.50008C16.4972 7.50008 16.7389 7.42677 16.9444 7.28942C17.15 7.15206 17.3102 6.95684 17.4048 6.72843C17.4994 6.50002 17.5242 6.24869 17.476 6.00622C17.4277 5.76374 17.3087 5.54101 17.1339 5.36619C16.959 5.19138 16.7363 5.07233 16.4938 5.0241C16.2514 4.97586 16 5.00062 15.7716 5.09523C15.5432 5.18984 15.348 5.35005 15.2106 5.55562C15.0733 5.76118 15 6.00285 15 6.25008C15 6.5816 15.1317 6.89954 15.3661 7.13396C15.6005 7.36838 15.9184 7.50008 16.25 7.50008ZM13.75 5.00008C13.9972 5.00008 14.2389 4.92677 14.4444 4.78942C14.65 4.65206 14.8102 4.45684 14.9048 4.22843C14.9994 4.00003 15.0242 3.74869 14.976 3.50622C14.9277 3.26374 14.8087 3.04101 14.6339 2.86619C14.459 2.69138 14.2363 2.57233 13.9938 2.5241C13.7514 2.47586 13.5 2.50062 13.2716 2.59523C13.0432 2.68984 12.848 2.85005 12.7106 3.05562C12.5733 3.26118 12.5 3.50285 12.5 3.75008C12.5 4.0816 12.6317 4.39954 12.8661 4.63396C13.1005 4.86838 13.4184 5.00008 13.75 5.00008Z" fill="#191F2E"/>
</svg>
