<svg width="20" height="20" viewBox="0 0 20 20" fill="none" xmlns="http://www.w3.org/2000/svg">
<path d="M17.5 3.75H2.5C2.16848 3.75 1.85054 3.8817 1.61612 4.11612C1.3817 4.35054 1.25 4.66848 1.25 5V15C1.25 15.3315 1.3817 15.6495 1.61612 15.8839C1.85054 16.1183 2.16848 16.25 2.5 16.25H17.5C17.8315 16.25 18.1495 16.1183 18.3839 15.8839C18.6183 15.6495 18.75 15.3315 18.75 15V5C18.75 4.66848 18.6183 4.35054 18.3839 4.11612C18.1495 3.8817 17.8315 3.75 17.5 3.75ZM17.5 15H2.5V5H17.5V15ZM9.29062 11.8523C9.3736 11.9958 9.39618 12.1664 9.3534 12.3265C9.31062 12.4867 9.20598 12.6233 9.0625 12.7063C8.58744 12.9806 8.04855 13.125 7.49998 13.125C6.95142 13.125 6.41251 12.9806 5.93743 12.7064C5.46235 12.4321 5.06784 12.0376 4.79355 11.5625C4.51926 11.0875 4.37486 10.5486 4.37486 10C4.37486 9.45143 4.51926 8.91253 4.79355 8.43747C5.06784 7.9624 5.46235 7.5679 5.93743 7.29363C6.41251 7.01936 6.95142 6.87498 7.49998 6.875C8.04855 6.87502 8.58744 7.01944 9.0625 7.29375C9.13585 7.33358 9.20047 7.38769 9.25256 7.4529C9.30466 7.51811 9.34316 7.59309 9.36581 7.67342C9.38845 7.75375 9.39478 7.8378 9.38441 7.92062C9.37405 8.00343 9.3472 8.08333 9.30545 8.15561C9.26371 8.22788 9.20791 8.29105 9.14135 8.34141C9.0748 8.39177 8.99883 8.42829 8.91793 8.44881C8.83703 8.46933 8.75284 8.47344 8.67033 8.4609C8.58781 8.44836 8.50865 8.41941 8.4375 8.37578C8.15245 8.21138 7.82916 8.12489 7.5001 8.125C7.17104 8.12511 6.8478 8.21182 6.56286 8.37641C6.27793 8.54101 6.04132 8.77769 5.87683 9.06268C5.71233 9.34767 5.62573 9.67094 5.62573 10C5.62573 10.3291 5.71233 10.6523 5.87683 10.9373C6.04132 11.2223 6.27793 11.459 6.56286 11.6236C6.8478 11.7882 7.17104 11.8749 7.5001 11.875C7.82916 11.8751 8.15245 11.7886 8.4375 11.6242C8.58092 11.5415 8.7513 11.519 8.91125 11.5618C9.0712 11.6046 9.20764 11.7091 9.29062 11.8523ZM15.5406 11.8523C15.6236 11.9958 15.6462 12.1664 15.6034 12.3265C15.5606 12.4867 15.456 12.6233 15.3125 12.7063C14.8374 12.9806 14.2985 13.125 13.75 13.125C13.2014 13.125 12.6625 12.9806 12.1874 12.7064C11.7124 12.4321 11.3178 12.0376 11.0436 11.5625C10.7693 11.0875 10.6249 10.5486 10.6249 10C10.6249 9.45143 10.7693 8.91253 11.0436 8.43747C11.3178 7.9624 11.7124 7.5679 12.1874 7.29363C12.6625 7.01936 13.2014 6.87498 13.75 6.875C14.2985 6.87502 14.8374 7.01944 15.3125 7.29375C15.3858 7.33358 15.4505 7.38769 15.5026 7.4529C15.5547 7.51811 15.5932 7.59309 15.6158 7.67342C15.6385 7.75375 15.6448 7.8378 15.6344 7.92062C15.624 8.00343 15.5972 8.08333 15.5555 8.15561C15.5137 8.22788 15.4579 8.29105 15.3914 8.34141C15.3248 8.39177 15.2488 8.42829 15.1679 8.44881C15.087 8.46933 15.0028 8.47344 14.9203 8.4609C14.8378 8.44836 14.7586 8.41941 14.6875 8.37578C14.4025 8.21138 14.0792 8.12489 13.7501 8.125C13.421 8.12511 13.0978 8.21182 12.8129 8.37641C12.5279 8.54101 12.2913 8.77769 12.1268 9.06268C11.9623 9.34767 11.8757 9.67094 11.8757 10C11.8757 10.3291 11.9623 10.6523 12.1268 10.9373C12.2913 11.2223 12.5279 11.459 12.8129 11.6236C13.0978 11.7882 13.421 11.8749 13.7501 11.875C14.0792 11.8751 14.4025 11.7886 14.6875 11.6242C14.8309 11.5415 15.0013 11.519 15.1612 11.5618C15.3212 11.6046 15.4576 11.7091 15.5406 11.8523Z" fill="#191F2E"/>
</svg>
