<svg width="20" height="20" viewBox="0 0 20 20" fill="none" xmlns="http://www.w3.org/2000/svg">
<path d="M12.8125 5.31248C12.6828 5.31248 12.5539 5.31717 12.4258 5.32498C12.2422 4.15484 11.7125 3.06645 10.9049 2.19998C10.0974 1.33351 9.04889 0.72864 7.89454 0.46326C7.73981 0.427898 7.57863 0.432401 7.42611 0.476347C7.27359 0.520293 7.13473 0.602242 7.02253 0.714515C6.91034 0.826788 6.82848 0.965709 6.78464 1.11826C6.7408 1.27081 6.73641 1.43199 6.77188 1.5867C6.92594 2.25812 6.9069 2.95768 6.71654 3.61973C6.52619 4.28179 6.17076 4.88463 5.68362 5.3717C5.19647 5.85876 4.59357 6.21409 3.93149 6.40434C3.26941 6.59459 2.56985 6.61352 1.89845 6.45935C1.74363 6.42394 1.58236 6.42843 1.42976 6.47242C1.27716 6.5164 1.13824 6.59842 1.02602 6.7108C0.9138 6.82317 0.831968 6.96221 0.7882 7.11487C0.744431 7.26753 0.740161 7.42881 0.775789 7.58357C1.09083 8.92822 1.86119 10.1225 2.95626 10.964C2.50598 11.621 2.24358 12.3884 2.19734 13.1835C2.1511 13.9786 2.32278 14.7712 2.69386 15.4759C3.06495 16.1806 3.62136 16.7707 4.30311 17.1824C4.98485 17.5942 5.76607 17.812 6.56251 17.8125H12.8125C14.4701 17.8125 16.0598 17.154 17.2319 15.9819C18.404 14.8098 19.0625 13.2201 19.0625 11.5625C19.0625 9.90487 18.404 8.31516 17.2319 7.14306C16.0598 5.97096 14.4701 5.31248 12.8125 5.31248ZM8.74141 2.81248C9.24492 3.13005 9.67191 3.5551 9.99176 4.05716C10.3116 4.55922 10.5164 5.12584 10.5914 5.71638C9.80787 6.0143 9.0919 6.46605 8.4857 7.04502C7.87949 7.62399 7.39532 8.31845 7.06173 9.08748C6.89593 9.06972 6.72925 9.06138 6.56251 9.06248C5.78716 9.06188 5.02574 9.26848 4.35704 9.66092C3.86712 9.34164 3.45085 8.92163 3.13595 8.42888C4.59787 8.34713 5.97824 7.72885 7.01258 6.69249C8.04692 5.65613 8.66251 4.27456 8.74141 2.81248ZM12.8125 15.9375H6.56251C5.89947 15.9375 5.26358 15.6741 4.79474 15.2052C4.3259 14.7364 4.06251 14.1005 4.06251 13.4375C4.06251 12.7744 4.3259 12.1386 4.79474 11.6697C5.26358 11.2009 5.89947 10.9375 6.56251 10.9375H6.58438C6.57579 11.0234 6.56876 11.1094 6.56407 11.1953C6.54957 11.4439 6.63443 11.6882 6.79999 11.8742C6.96555 12.0603 7.19824 12.173 7.44688 12.1875C7.69552 12.202 7.93974 12.1171 8.12581 11.9516C8.31188 11.786 8.42457 11.5533 8.43907 11.3047C8.4556 11.0144 8.50114 10.7265 8.57501 10.4453L8.58673 10.4023C8.80212 9.61481 9.23335 8.90319 9.83174 8.34777C10.4301 7.79235 11.1719 7.41525 11.9732 7.25903C12.7746 7.10281 13.6036 7.17369 14.3668 7.46367C15.13 7.75365 15.797 8.25119 16.2924 8.90012C16.7878 9.54906 17.092 10.3236 17.1706 11.1362C17.2492 11.9488 17.0991 12.7673 16.7372 13.4991C16.3753 14.231 15.816 14.8471 15.1225 15.2779C14.4291 15.7088 13.6289 15.9372 12.8125 15.9375Z" fill="#191F2E"/>
</svg>
