<svg width="20" height="20" viewBox="0 0 20 20" fill="none" xmlns="http://www.w3.org/2000/svg">
<path d="M19.3695 9.72812C19.2273 6.05781 16.1773 3.125 12.5047 3.125C11.2271 3.1252 9.97479 3.48098 8.88793 4.15253C7.80107 4.82407 6.92258 5.78486 6.35078 6.92734C5.87555 7.87451 5.62708 8.91921 5.625 9.97891C5.62745 10.1399 5.56902 10.2959 5.46139 10.4157C5.35377 10.5355 5.20489 10.6103 5.04453 10.625C4.95879 10.6311 4.8727 10.6195 4.79166 10.5908C4.71061 10.5622 4.63635 10.5171 4.57351 10.4585C4.51067 10.3998 4.46061 10.3288 4.42645 10.2499C4.3923 10.171 4.37478 10.086 4.375 10C4.37434 9.12581 4.51523 8.25728 4.79219 7.42813C4.81044 7.37496 4.81401 7.31786 4.80252 7.26283C4.79104 7.20781 4.76493 7.1569 4.72694 7.11547C4.68895 7.07404 4.64049 7.04363 4.58666 7.02743C4.53284 7.01123 4.47564 7.00985 4.42109 7.02344C3.33814 7.29336 2.37642 7.91736 1.68866 8.79635C1.00089 9.67534 0.626523 10.7589 0.625 11.875C0.625 14.6242 2.94922 16.875 5.70312 16.875H12.5C13.4254 16.874 14.3412 16.6864 15.1924 16.3233C16.0437 15.9603 16.8129 15.4293 17.4542 14.7621C18.0956 14.0949 18.5957 13.3052 18.9248 12.4403C19.2539 11.5753 19.4051 10.6529 19.3695 9.72812ZM14.8172 12.0578C14.8753 12.1159 14.9213 12.1848 14.9527 12.2607C14.9842 12.3366 15.0003 12.4179 15.0003 12.5C15.0003 12.5821 14.9842 12.6634 14.9527 12.7393C14.9213 12.8152 14.8753 12.8841 14.8172 12.9422C14.7591 13.0003 14.6902 13.0463 14.6143 13.0777C14.5384 13.1092 14.4571 13.1253 14.375 13.1253C14.2929 13.1253 14.2116 13.1092 14.1357 13.0777C14.0598 13.0463 13.9909 13.0003 13.9328 12.9422L12.5 11.5086L11.0672 12.9422C10.9499 13.0595 10.7909 13.1253 10.625 13.1253C10.4591 13.1253 10.3001 13.0595 10.1828 12.9422C10.0655 12.8249 9.99965 12.6659 9.99965 12.5C9.99965 12.3341 10.0655 12.1751 10.1828 12.0578L11.6164 10.625L10.1828 9.19219C10.0655 9.07491 9.99965 8.91585 9.99965 8.75C9.99965 8.58415 10.0655 8.42509 10.1828 8.30781C10.3001 8.19054 10.4591 8.12465 10.625 8.12465C10.7909 8.12465 10.9499 8.19054 11.0672 8.30781L12.5 9.74141L13.9328 8.30781C13.9909 8.24974 14.0598 8.20368 14.1357 8.17225C14.2116 8.14083 14.2929 8.12465 14.375 8.12465C14.4571 8.12465 14.5384 8.14083 14.6143 8.17225C14.6902 8.20368 14.7591 8.24974 14.8172 8.30781C14.8753 8.36588 14.9213 8.43482 14.9527 8.51069C14.9842 8.58656 15.0003 8.66788 15.0003 8.75C15.0003 8.83212 14.9842 8.91344 14.9527 8.98931C14.9213 9.06518 14.8753 9.13412 14.8172 9.19219L13.3836 10.625L14.8172 12.0578Z" fill="#191F2E"/>
</svg>
