<svg width="20" height="20" viewBox="0 0 20 20" fill="none" xmlns="http://www.w3.org/2000/svg">
<path d="M19.3695 9.72812C19.2273 6.05781 16.1773 3.125 12.5047 3.125C11.2271 3.1252 9.97479 3.48098 8.88793 4.15253C7.80107 4.82407 6.92258 5.78486 6.35078 6.92734C5.87555 7.87451 5.62708 8.91921 5.625 9.97891C5.62745 10.1399 5.56902 10.2959 5.46139 10.4157C5.35377 10.5355 5.20489 10.6103 5.04453 10.625C4.95879 10.6311 4.8727 10.6195 4.79166 10.5908C4.71061 10.5622 4.63635 10.5171 4.57351 10.4585C4.51067 10.3998 4.46061 10.3288 4.42645 10.2499C4.3923 10.171 4.37478 10.086 4.375 10C4.37434 9.12581 4.51523 8.25728 4.79219 7.42813C4.81044 7.37496 4.81401 7.31786 4.80252 7.26283C4.79104 7.20781 4.76493 7.1569 4.72694 7.11547C4.68895 7.07404 4.64049 7.04363 4.58666 7.02743C4.53284 7.01123 4.47564 7.00985 4.42109 7.02344C3.33814 7.29336 2.37642 7.91736 1.68866 8.79635C1.00089 9.67534 0.626523 10.7589 0.625 11.875C0.625 14.6242 2.94922 16.875 5.70312 16.875H12.5C13.4254 16.874 14.3412 16.6864 15.1924 16.3233C16.0437 15.9603 16.8129 15.4293 17.4542 14.7621C18.0956 14.0949 18.5957 13.3052 18.9248 12.4403C19.2539 11.5753 19.4051 10.6529 19.3695 9.72812ZM14.8172 12.9422L12.3172 15.4422C12.2591 15.5003 12.1902 15.5464 12.1143 15.5779C12.0385 15.6093 11.9571 15.6255 11.875 15.6255C11.7929 15.6255 11.7115 15.6093 11.6357 15.5779C11.5598 15.5464 11.4909 15.5003 11.4328 15.4422L8.93281 12.9422C8.81554 12.8249 8.74965 12.6659 8.74965 12.5C8.74965 12.3341 8.81554 12.1751 8.93281 12.0578C9.05009 11.9405 9.20915 11.8747 9.375 11.8747C9.54085 11.8747 9.69991 11.9405 9.81719 12.0578L11.25 13.4914V8.75C11.25 8.58424 11.3158 8.42527 11.4331 8.30806C11.5503 8.19085 11.7092 8.125 11.875 8.125C12.0408 8.125 12.1997 8.19085 12.3169 8.30806C12.4342 8.42527 12.5 8.58424 12.5 8.75V13.4914L13.9328 12.0578C14.0501 11.9405 14.2091 11.8747 14.375 11.8747C14.5409 11.8747 14.6999 11.9405 14.8172 12.0578C14.9345 12.1751 15.0003 12.3341 15.0003 12.5C15.0003 12.6659 14.9345 12.8249 14.8172 12.9422Z" fill="#191F2E"/>
</svg>
