<svg width="20" height="20" viewBox="0 0 20 20" fill="none" xmlns="http://www.w3.org/2000/svg">
<path d="M19.375 10C19.3789 11.4885 18.896 12.9373 18 14.1258C17.9506 14.1915 17.8888 14.2468 17.8181 14.2886C17.7474 14.3303 17.6691 14.3578 17.5878 14.3693C17.5065 14.3808 17.4237 14.3762 17.3442 14.3558C17.2646 14.3353 17.1899 14.2994 17.1242 14.25C17.0585 14.2007 17.0032 14.1389 16.9615 14.0682C16.9197 13.9975 16.8923 13.9192 16.8807 13.8379C16.8692 13.7565 16.8738 13.6737 16.8942 13.5942C16.9147 13.5147 16.9506 13.4399 17 13.3743C17.7334 12.4026 18.1286 11.2175 18.125 10C18.125 8.50819 17.5324 7.07745 16.4775 6.02256C15.4226 4.96767 13.9918 4.37504 12.5 4.37504C11.0081 4.37504 9.5774 4.96767 8.52251 6.02256C7.46762 7.07745 6.87499 8.50819 6.87499 10C6.87499 10.1658 6.80914 10.3248 6.69193 10.442C6.57472 10.5592 6.41575 10.625 6.24999 10.625C6.08423 10.625 5.92526 10.5592 5.80805 10.442C5.69084 10.3248 5.62499 10.1658 5.62499 10C5.62468 9.36932 5.71117 8.74155 5.88202 8.13441C5.79686 8.12504 5.71093 8.12504 5.62499 8.12504C4.63043 8.12504 3.6766 8.52013 2.97334 9.22339C2.27008 9.92665 1.87499 10.8805 1.87499 11.875C1.87499 12.8696 2.27008 13.8234 2.97334 14.5267C3.6766 15.2299 4.63043 15.625 5.62499 15.625H7.49999C7.66575 15.625 7.82472 15.6909 7.94193 15.8081C8.05914 15.9253 8.12499 16.0843 8.12499 16.25C8.12499 16.4158 8.05914 16.5748 7.94193 16.692C7.82472 16.8092 7.66575 16.875 7.49999 16.875H5.62499C4.93763 16.8752 4.25761 16.7336 3.62742 16.4592C2.99723 16.1847 2.43039 15.7833 1.96231 15.2799C1.49423 14.7766 1.13497 14.1821 0.906956 13.5337C0.678942 12.8852 0.587077 12.1967 0.637098 11.5112C0.687119 10.8256 0.877952 10.1578 1.19768 9.54929C1.5174 8.94082 1.95915 8.4048 2.49534 7.97472C3.03153 7.54464 3.65063 7.22973 4.31399 7.04966C4.97735 6.86959 5.67071 6.82823 6.35077 6.92816C7.04327 5.54313 8.18307 4.43244 9.58555 3.776C10.988 3.11956 12.5711 2.95582 14.0782 3.31129C15.5854 3.66677 16.9284 4.52064 17.8897 5.73461C18.851 6.94857 19.3744 8.45153 19.375 10ZM12.3172 9.55785C12.2591 9.49974 12.1902 9.45364 12.1143 9.42219C12.0385 9.39073 11.9571 9.37455 11.875 9.37455C11.7929 9.37455 11.7115 9.39073 11.6357 9.42219C11.5598 9.45364 11.4908 9.49974 11.4328 9.55785L8.9328 12.0578C8.87473 12.1159 8.82867 12.1849 8.79724 12.2607C8.76582 12.3366 8.74964 12.4179 8.74964 12.5C8.74964 12.5822 8.76582 12.6635 8.79724 12.7393C8.82867 12.8152 8.87473 12.8842 8.9328 12.9422C9.05008 13.0595 9.20914 13.1254 9.37499 13.1254C9.45711 13.1254 9.53843 13.1092 9.6143 13.0778C9.69017 13.0464 9.75911 13.0003 9.81718 12.9422L11.25 11.5086V16.25C11.25 16.4158 11.3158 16.5748 11.433 16.692C11.5503 16.8092 11.7092 16.875 11.875 16.875C12.0407 16.875 12.1997 16.8092 12.3169 16.692C12.4341 16.5748 12.5 16.4158 12.5 16.25V11.5086L13.9328 12.9422C13.9909 13.0003 14.0598 13.0464 14.1357 13.0778C14.2115 13.1092 14.2929 13.1254 14.375 13.1254C14.4571 13.1254 14.5384 13.1092 14.6143 13.0778C14.6902 13.0464 14.7591 13.0003 14.8172 12.9422C14.8752 12.8842 14.9213 12.8152 14.9527 12.7393C14.9842 12.6635 15.0003 12.5822 15.0003 12.5C15.0003 12.4179 14.9842 12.3366 14.9527 12.2607C14.9213 12.1849 14.8752 12.1159 14.8172 12.0578L12.3172 9.55785Z" fill="#191F2E"/>
</svg>
