<svg width="20" height="20" viewBox="0 0 20 20" fill="none" xmlns="http://www.w3.org/2000/svg">
<path d="M19.3695 9.72812C19.2273 6.05781 16.1773 3.125 12.5047 3.125C11.2271 3.1252 9.97479 3.48098 8.88793 4.15253C7.80107 4.82407 6.92258 5.78486 6.35078 6.92734C5.87555 7.87451 5.62708 8.91921 5.625 9.97891C5.62745 10.1399 5.56902 10.2959 5.46139 10.4157C5.35377 10.5355 5.20489 10.6103 5.04453 10.625C4.95879 10.6311 4.8727 10.6195 4.79166 10.5908C4.71061 10.5622 4.63635 10.5171 4.57351 10.4585C4.51067 10.3998 4.46061 10.3288 4.42645 10.2499C4.3923 10.171 4.37478 10.086 4.375 10C4.37434 9.12581 4.51523 8.25728 4.79219 7.42813C4.81044 7.37496 4.81401 7.31786 4.80252 7.26283C4.79104 7.20781 4.76493 7.1569 4.72694 7.11547C4.68895 7.07404 4.64049 7.04363 4.58666 7.02743C4.53284 7.01123 4.47564 7.00985 4.42109 7.02344C3.33814 7.29336 2.37642 7.91736 1.68866 8.79635C1.00089 9.67534 0.626523 10.7589 0.625 11.875C0.625 14.6242 2.94922 16.875 5.70312 16.875H12.5C13.4254 16.874 14.3412 16.6864 15.1924 16.3233C16.0437 15.9603 16.8129 15.4293 17.4542 14.7621C18.0956 14.0949 18.5957 13.3052 18.9248 12.4403C19.2539 11.5753 19.4051 10.6529 19.3695 9.72812ZM15.4422 9.19219L11.6922 12.9422C11.6341 13.0003 11.5652 13.0464 11.4893 13.0779C11.4135 13.1093 11.3321 13.1255 11.25 13.1255C11.1679 13.1255 11.0865 13.1093 11.0107 13.0779C10.9348 13.0464 10.8659 13.0003 10.8078 12.9422L8.93281 11.0672C8.81554 10.9499 8.74965 10.7909 8.74965 10.625C8.74965 10.4591 8.81554 10.3001 8.93281 10.1828C9.05009 10.0655 9.20915 9.99965 9.375 9.99965C9.54085 9.99965 9.69991 10.0655 9.81719 10.1828L11.25 11.6164L14.5578 8.30781C14.6159 8.24974 14.6848 8.20368 14.7607 8.17225C14.8366 8.14083 14.9179 8.12465 15 8.12465C15.0821 8.12465 15.1634 8.14083 15.2393 8.17225C15.3152 8.20368 15.3841 8.24974 15.4422 8.30781C15.5003 8.36588 15.5463 8.43482 15.5777 8.51069C15.6092 8.58656 15.6253 8.66788 15.6253 8.75C15.6253 8.83212 15.6092 8.91344 15.5777 8.98931C15.5463 9.06518 15.5003 9.13412 15.4422 9.19219Z" fill="#191F2E"/>
</svg>
