<svg width="20" height="20" viewBox="0 0 20 20" fill="none" xmlns="http://www.w3.org/2000/svg">
<path d="M13.125 17.5001C13.125 17.6659 13.0592 17.8248 12.9419 17.942C12.8247 18.0593 12.6658 18.1251 12.5 18.1251H8.12501C7.95925 18.1251 7.80028 18.0593 7.68307 17.942C7.56586 17.8248 7.50001 17.6659 7.50001 17.5001C7.50001 17.3343 7.56586 17.1754 7.68307 17.0582C7.80028 16.941 7.95925 16.8751 8.12501 16.8751H12.5C12.6658 16.8751 12.8247 16.941 12.9419 17.0582C13.0592 17.1754 13.125 17.3343 13.125 17.5001ZM10 15.0001C10 14.8343 9.93416 14.6754 9.81695 14.5582C9.69974 14.441 9.54077 14.3751 9.37501 14.3751H5.62501C5.45925 14.3751 5.30028 14.441 5.18307 14.5582C5.06586 14.6754 5.00001 14.8343 5.00001 15.0001C5.00001 15.1659 5.06586 15.3248 5.18307 15.442C5.30028 15.5593 5.45925 15.6251 5.62501 15.6251H9.37501C9.54077 15.6251 9.69974 15.5593 9.81695 15.442C9.93416 15.3248 10 15.1659 10 15.0001ZM14.375 14.3751H12.5C12.3342 14.3751 12.1753 14.441 12.0581 14.5582C11.9409 14.6754 11.875 14.8343 11.875 15.0001C11.875 15.1659 11.9409 15.3248 12.0581 15.442C12.1753 15.5593 12.3342 15.6251 12.5 15.6251H14.375C14.5408 15.6251 14.6997 15.5593 14.8169 15.442C14.9342 15.3248 15 15.1659 15 15.0001C15 14.8343 14.9342 14.6754 14.8169 14.5582C14.6997 14.441 14.5408 14.3751 14.375 14.3751ZM18.1149 6.83995C18.0261 5.32288 17.3591 3.89757 16.2511 2.8575C15.1432 1.81743 13.6786 1.24178 12.1589 1.24909C10.6393 1.2564 9.18028 1.84611 8.08235 2.89679C6.98442 3.94746 6.33115 5.37913 6.25704 6.89698C6.24792 7.05896 6.17755 7.2114 6.06018 7.32341C5.94281 7.43541 5.78723 7.49858 5.62501 7.50011H5.57813C5.41314 7.48536 5.26042 7.40682 5.15245 7.2812C5.04448 7.15558 4.98979 6.99278 5.00001 6.82745C5.02172 6.3929 5.08265 5.96119 5.18204 5.53761C5.19486 5.48442 5.1935 5.4288 5.17808 5.3763C5.16266 5.32381 5.13374 5.27628 5.09419 5.23848C5.05464 5.20067 5.00586 5.17391 4.95273 5.16087C4.8996 5.14783 4.84397 5.14897 4.79142 5.16417C3.94539 5.41412 3.2035 5.93222 2.67749 6.64042C2.15149 7.34862 1.86985 8.20857 1.87501 9.09073C1.89063 11.3337 3.75938 13.1251 6.00313 13.1251H12.1875C12.9963 13.1242 13.7963 12.9583 14.5387 12.6375C15.2811 12.3166 15.9502 11.8477 16.5051 11.2593C17.0599 10.671 17.4889 9.97555 17.7657 9.21565C18.0425 8.45575 18.1613 7.64736 18.1149 6.83995Z" fill="#191F2E"/>
</svg>
