<svg width="20" height="20" viewBox="0 0 20 20" fill="none" xmlns="http://www.w3.org/2000/svg">
<path d="M4.44372 2.49455C4.36139 2.40174 4.26146 2.3262 4.14972 2.2723C4.03798 2.2184 3.91665 2.18722 3.79277 2.18055C3.66889 2.17389 3.54492 2.19188 3.42804 2.23348C3.31117 2.27508 3.20371 2.33946 3.1119 2.4229C3.02008 2.50634 2.94575 2.60716 2.89319 2.71954C2.84064 2.83192 2.81091 2.95361 2.80573 3.07756C2.80055 3.20152 2.82002 3.32526 2.86302 3.44163C2.90602 3.558 2.97169 3.66468 3.05622 3.75549L5.60856 6.56252C4.1996 6.56469 2.84921 7.12649 1.85446 8.12431C0.859713 9.12214 0.302091 10.4743 0.304267 11.8832C0.306442 13.2922 0.868237 14.6426 1.86606 15.6373C2.86389 16.6321 4.21601 17.1897 5.62497 17.1875H12.5C13.316 17.1891 14.1262 17.0507 14.8953 16.7781L15.5562 17.5055C15.7243 17.6861 15.9568 17.7931 16.2033 17.8034C16.4498 17.8137 16.6904 17.7264 16.8729 17.5605C17.0555 17.3946 17.1653 17.1634 17.1786 16.9171C17.1918 16.6707 17.1074 16.4291 16.9437 16.2445L4.44372 2.49455ZM12.5 15.3125H5.62497C4.72925 15.3068 3.87113 14.9518 3.23328 14.3229C2.59544 13.694 2.22827 12.841 2.20994 11.9454C2.19162 11.0499 2.52358 10.1825 3.13515 9.52809C3.74673 8.87363 4.58961 8.48374 5.48434 8.44142C5.37033 8.95312 5.31269 9.47577 5.31247 10C5.31247 10.2487 5.41124 10.4871 5.58706 10.6629C5.76287 10.8387 6.00133 10.9375 6.24997 10.9375C6.49861 10.9375 6.73707 10.8387 6.91288 10.6629C7.0887 10.4871 7.18747 10.2487 7.18747 10C7.18765 9.50209 7.2576 9.00665 7.39528 8.52814L13.4797 15.2211C13.1566 15.2815 12.8286 15.3121 12.5 15.3125ZM19.6875 10C19.6908 11.5161 19.2111 12.9937 18.3179 14.2188C18.2465 14.3206 18.1554 14.4072 18.0501 14.4735C17.9448 14.5398 17.8274 14.5845 17.7047 14.605C17.5819 14.6254 17.4564 14.6212 17.3353 14.5927C17.2142 14.5641 17.1 14.5117 16.9993 14.4385C16.8987 14.3654 16.8136 14.2729 16.749 14.1665C16.6845 14.0601 16.6418 13.942 16.6234 13.8189C16.605 13.6959 16.6112 13.5704 16.6418 13.4498C16.6724 13.3292 16.7267 13.2158 16.8015 13.1164C17.5193 12.1282 17.8747 10.9229 17.8077 9.70336C17.7408 8.48384 17.2558 7.32461 16.4342 6.42086C15.6126 5.51711 14.5048 4.92405 13.2971 4.74153C12.0895 4.55901 10.8558 4.79818 9.80388 5.41877C9.5902 5.5382 9.33829 5.56932 9.10197 5.50548C8.86565 5.44164 8.66368 5.2879 8.53921 5.07712C8.41474 4.86634 8.37765 4.61524 8.43587 4.37747C8.49408 4.13971 8.64298 3.93414 8.85075 3.80471C9.94263 3.16124 11.1852 2.81792 12.4526 2.80956C13.7199 2.80121 14.967 3.12811 16.0672 3.75713C17.1675 4.38615 18.0819 5.29491 18.7177 6.39128C19.3534 7.48765 19.688 8.73264 19.6875 10Z" fill="#191F2E"/>
</svg>
