<svg width="20" height="20" viewBox="0 0 20 20" fill="none" xmlns="http://www.w3.org/2000/svg">
<path d="M19.3695 9.72812C19.2273 6.05781 16.1773 3.125 12.5047 3.125C11.2271 3.1252 9.97479 3.48098 8.88793 4.15253C7.80107 4.82407 6.92258 5.78486 6.35078 6.92734C5.87555 7.87451 5.62708 8.91921 5.625 9.97891C5.62745 10.1399 5.56902 10.2959 5.46139 10.4157C5.35377 10.5355 5.20489 10.6103 5.04453 10.625C4.95879 10.6311 4.8727 10.6195 4.79166 10.5908C4.71061 10.5622 4.63635 10.5171 4.57351 10.4585C4.51067 10.3998 4.46061 10.3288 4.42645 10.2499C4.3923 10.171 4.37478 10.086 4.375 10C4.37434 9.12581 4.51523 8.25728 4.79219 7.42813C4.81044 7.37496 4.81401 7.31786 4.80252 7.26283C4.79104 7.20781 4.76493 7.1569 4.72694 7.11547C4.68895 7.07404 4.64049 7.04363 4.58666 7.02743C4.53284 7.01123 4.47564 7.00985 4.42109 7.02344C3.33814 7.29336 2.37642 7.91736 1.68866 8.79635C1.00089 9.67534 0.626523 10.7589 0.625 11.875C0.625 14.6242 2.94922 16.875 5.70312 16.875H12.5C13.4254 16.874 14.3412 16.6864 15.1924 16.3233C16.0437 15.9603 16.8129 15.4293 17.4542 14.7621C18.0956 14.0949 18.5957 13.3052 18.9248 12.4403C19.2539 11.5753 19.4051 10.6529 19.3695 9.72812ZM11.875 6.875C11.875 6.70924 11.9408 6.55027 12.0581 6.43306C12.1753 6.31585 12.3342 6.25 12.5 6.25C12.6658 6.25 12.8247 6.31585 12.9419 6.43306C13.0592 6.55027 13.125 6.70924 13.125 6.875V10C13.125 10.1658 13.0592 10.3247 12.9419 10.4419C12.8247 10.5592 12.6658 10.625 12.5 10.625C12.3342 10.625 12.1753 10.5592 12.0581 10.4419C11.9408 10.3247 11.875 10.1658 11.875 10V6.875ZM12.5 13.75C12.3146 13.75 12.1333 13.695 11.9792 13.592C11.825 13.489 11.7048 13.3426 11.6339 13.1713C11.5629 13 11.5443 12.8115 11.5805 12.6296C11.6167 12.4477 11.706 12.2807 11.8371 12.1496C11.9682 12.0185 12.1352 11.9292 12.3171 11.893C12.499 11.8568 12.6875 11.8754 12.8588 11.9464C13.0301 12.0173 13.1765 12.1375 13.2795 12.2917C13.3825 12.4458 13.4375 12.6271 13.4375 12.8125C13.4375 13.0611 13.3387 13.2996 13.1629 13.4754C12.9871 13.6512 12.7486 13.75 12.5 13.75Z" fill="#191F2E"/>
</svg>
