<svg width="20" height="20" viewBox="0 0 20 20" fill="none" xmlns="http://www.w3.org/2000/svg">
<path d="M4.2125 2.70474C4.15761 2.64287 4.09099 2.59251 4.0165 2.55658C3.94201 2.52064 3.86112 2.49985 3.77854 2.49541C3.69595 2.49097 3.6133 2.50296 3.53538 2.53069C3.45746 2.55843 3.38582 2.60135 3.32462 2.65697C3.26341 2.7126 3.21385 2.77982 3.17881 2.85474C3.14378 2.92965 3.12396 3.01078 3.1205 3.09342C3.11705 3.17605 3.13004 3.25855 3.1587 3.33613C3.18737 3.41371 3.23115 3.48483 3.2875 3.54536L6.35313 6.91802L6.34844 6.9274C6.10885 6.89273 5.86709 6.87523 5.625 6.87505C4.29892 6.87505 3.02715 7.40184 2.08947 8.33952C1.15178 9.2772 0.625 10.549 0.625 11.8751C0.625 13.2011 1.15178 14.4729 2.08947 15.4106C3.02715 16.3483 4.29892 16.8751 5.625 16.8751H12.5C13.3497 16.8767 14.1923 16.7195 14.9844 16.4118L15.7875 17.2954C15.8424 17.3572 15.909 17.4076 15.9835 17.4435C16.058 17.4795 16.1389 17.5003 16.2215 17.5047C16.3041 17.5091 16.3867 17.4971 16.4646 17.4694C16.5425 17.4417 16.6142 17.3988 16.6754 17.3431C16.7366 17.2875 16.7861 17.2203 16.8212 17.1454C16.8562 17.0705 16.876 16.9893 16.8795 16.9067C16.8829 16.8241 16.87 16.7416 16.8413 16.664C16.8126 16.5864 16.7689 16.5153 16.7125 16.4547L4.2125 2.70474ZM12.5 15.6251H5.625C4.63044 15.6251 3.67661 15.23 2.97335 14.5267C2.27009 13.8234 1.875 12.8696 1.875 11.8751C1.875 10.8805 2.27009 9.92666 2.97335 9.2234C3.67661 8.52014 4.63044 8.12505 5.625 8.12505C5.71094 8.12505 5.79688 8.12505 5.88281 8.13443C5.71209 8.74161 5.62534 9.36932 5.625 10.0001C5.625 10.1658 5.69085 10.3248 5.80806 10.442C5.92527 10.5592 6.08424 10.6251 6.25 10.6251C6.41576 10.6251 6.57473 10.5592 6.69194 10.442C6.80915 10.3248 6.875 10.1658 6.875 10.0001C6.87522 9.2902 7.00934 8.58675 7.27031 7.92661L14.0672 15.4032C13.5579 15.551 13.0303 15.6257 12.5 15.6251ZM19.375 10.0001C19.376 11.6892 18.7543 13.3194 17.6289 14.579C17.5162 14.6918 17.3647 14.7573 17.2053 14.7621C17.0459 14.7668 16.8907 14.7105 16.7715 14.6046C16.6523 14.4986 16.5781 14.3511 16.564 14.1923C16.55 14.0334 16.5973 13.8752 16.6961 13.7501C17.6245 12.7131 18.1356 11.3688 18.1304 9.97693C18.1252 8.58509 17.6042 7.2446 16.668 6.2146C15.7319 5.1846 14.4471 4.53825 13.0621 4.40049C11.6771 4.26274 10.2902 4.64337 9.16953 5.4688C9.10341 5.51743 9.02835 5.55256 8.94866 5.57219C8.86896 5.59181 8.78617 5.59555 8.70503 5.58318C8.62389 5.57081 8.54598 5.54258 8.47574 5.5001C8.40551 5.45762 8.34433 5.40172 8.2957 5.3356C8.19749 5.20206 8.15635 5.03497 8.18133 4.8711C8.20631 4.70722 8.29537 4.55998 8.42891 4.46177C9.45304 3.70919 10.6657 3.25521 11.9323 3.15027C13.1989 3.04533 14.4698 3.29352 15.6038 3.8673C16.7378 4.44107 17.6906 5.31796 18.3563 6.40057C19.0221 7.48318 19.3747 8.72913 19.375 10.0001Z" fill="#191F2E"/>
</svg>
