<svg width="20" height="20" viewBox="0 0 20 20" fill="none" xmlns="http://www.w3.org/2000/svg">
<path d="M4.21249 2.70474C4.1576 2.64287 4.09098 2.59251 4.01649 2.55658C3.94199 2.52064 3.86111 2.49985 3.77852 2.49541C3.69593 2.49097 3.61329 2.50296 3.53537 2.53069C3.45745 2.55843 3.38581 2.60135 3.3246 2.65697C3.2634 2.7126 3.21384 2.77982 3.1788 2.85474C3.14376 2.92965 3.12394 3.01078 3.12049 3.09342C3.11704 3.17605 3.13002 3.25855 3.15869 3.33613C3.18735 3.41371 3.23113 3.48483 3.28749 3.54536L6.35311 6.91802L6.34842 6.9274C5.66861 6.82825 4.97565 6.87026 4.31279 7.05081C3.64993 7.23136 3.03139 7.54658 2.49576 7.9768C1.96013 8.40701 1.51891 8.94299 1.19962 9.5513C0.880334 10.1596 0.689832 10.8272 0.640001 11.5124C0.590171 12.1976 0.682081 12.8857 0.909997 13.5338C1.13791 14.1819 1.49695 14.7761 1.96469 15.2793C2.43244 15.7825 2.99886 16.1839 3.62863 16.4584C4.25839 16.733 4.93798 16.8748 5.62499 16.8751H12.5C13.3497 16.8767 14.1923 16.7195 14.9844 16.4118L15.7875 17.2954C15.8424 17.3572 15.909 17.4076 15.9835 17.4435C16.058 17.4795 16.1389 17.5003 16.2215 17.5047C16.304 17.5091 16.3867 17.4971 16.4646 17.4694C16.5425 17.4417 16.6142 17.3988 16.6754 17.3431C16.7366 17.2875 16.7861 17.2203 16.8212 17.1454C16.8562 17.0705 16.876 16.9893 16.8795 16.9067C16.8829 16.8241 16.8699 16.7416 16.8413 16.664C16.8126 16.5864 16.7688 16.5153 16.7125 16.4547L4.21249 2.70474Z" fill="#191F2E"/>
<path d="M12.5 3.12502C11.0349 3.12127 9.6075 3.58913 8.42889 4.4594C8.35833 4.51126 8.29945 4.57736 8.25607 4.65344C8.2127 4.72951 8.18579 4.81385 8.1771 4.90099C8.16841 4.98813 8.17812 5.07612 8.20562 5.15926C8.23311 5.2424 8.27778 5.31884 8.33671 5.38362L16.7 14.5828C16.7586 14.6473 16.83 14.6988 16.9096 14.7341C16.9893 14.7693 17.0754 14.7875 17.1625 14.7875C17.2501 14.7872 17.3368 14.7685 17.4167 14.7326C17.4967 14.6966 17.5682 14.6443 17.6265 14.5789C18.51 13.5894 19.0884 12.3655 19.2919 11.0547C19.4954 9.74385 19.3153 8.40216 18.7734 7.19139C18.2315 5.98062 17.3509 4.95248 16.2377 4.23096C15.1246 3.50944 13.8265 3.12535 12.5 3.12502Z" fill="#191F2E"/>
</svg>
