<svg width="20" height="20" viewBox="0 0 20 20" fill="none" xmlns="http://www.w3.org/2000/svg">
<path d="M12.5 3.125C11.2232 3.12598 9.97184 3.48214 8.88588 4.15364C7.79991 4.82514 6.92216 5.78551 6.35079 6.92734C5.67107 6.82821 4.97822 6.8702 4.31544 7.05069C3.65267 7.23117 3.03419 7.54629 2.49859 7.97638C1.96299 8.40647 1.52176 8.94231 1.20241 9.55047C0.883062 10.1586 0.692451 10.8261 0.642467 11.5112C0.592483 12.1963 0.684198 12.8843 0.911891 13.5324C1.13958 14.1804 1.49837 14.7747 1.96587 15.2779C2.43337 15.7812 2.99956 16.1828 3.62912 16.4575C4.25868 16.7323 4.9381 16.8744 5.62501 16.875H12.5C14.3234 16.875 16.0721 16.1507 17.3614 14.8614C18.6507 13.572 19.375 11.8234 19.375 10C19.375 8.17664 18.6507 6.42795 17.3614 5.13864C16.0721 3.84933 14.3234 3.125 12.5 3.125ZM12.5 15.625H5.62501C4.63045 15.625 3.67662 15.2299 2.97336 14.5267C2.2701 13.8234 1.87501 12.8696 1.87501 11.875C1.87501 10.8804 2.2701 9.92661 2.97336 9.22335C3.67662 8.52009 4.63045 8.125 5.62501 8.125C5.71095 8.125 5.79689 8.125 5.88204 8.13359C5.71112 8.74099 5.62463 9.36902 5.62501 10C5.62501 10.1658 5.69086 10.3247 5.80807 10.4419C5.92528 10.5592 6.08425 10.625 6.25001 10.625C6.41577 10.625 6.57474 10.5592 6.69195 10.4419C6.80916 10.3247 6.87501 10.1658 6.87501 10C6.87501 8.88748 7.20491 7.79994 7.823 6.87492C8.44108 5.94989 9.31958 5.22892 10.3474 4.80318C11.3753 4.37743 12.5063 4.26604 13.5974 4.48308C14.6885 4.70012 15.6908 5.23585 16.4775 6.02252C17.2642 6.80919 17.7999 7.81147 18.0169 8.90262C18.234 9.99376 18.1226 11.1248 17.6968 12.1526C17.2711 13.1804 16.5501 14.0589 15.6251 14.677C14.7001 15.2951 13.6125 15.625 12.5 15.625ZM11.875 10V6.875C11.875 6.70924 11.9409 6.55027 12.0581 6.43306C12.1753 6.31585 12.3343 6.25 12.5 6.25C12.6658 6.25 12.8247 6.31585 12.942 6.43306C13.0592 6.55027 13.125 6.70924 13.125 6.875V10C13.125 10.1658 13.0592 10.3247 12.942 10.4419C12.8247 10.5592 12.6658 10.625 12.5 10.625C12.3343 10.625 12.1753 10.5592 12.0581 10.4419C11.9409 10.3247 11.875 10.1658 11.875 10ZM13.4375 12.8125C13.4375 12.9979 13.3825 13.1792 13.2795 13.3333C13.1765 13.4875 13.0301 13.6077 12.8588 13.6786C12.6875 13.7496 12.499 13.7682 12.3171 13.732C12.1353 13.6958 11.9682 13.6065 11.8371 13.4754C11.706 13.3443 11.6167 13.1773 11.5805 12.9954C11.5444 12.8135 11.5629 12.625 11.6339 12.4537C11.7048 12.2824 11.825 12.136 11.9792 12.033C12.1333 11.93 12.3146 11.875 12.5 11.875C12.7487 11.875 12.9871 11.9738 13.1629 12.1496C13.3387 12.3254 13.4375 12.5639 13.4375 12.8125Z" fill="#191F2E"/>
</svg>
