<svg width="20" height="20" viewBox="0 0 20 20" fill="none" xmlns="http://www.w3.org/2000/svg">
<path d="M12.8125 5.6251C12.489 5.62495 12.1661 5.65108 11.8469 5.70322C11.7333 4.53006 11.2538 3.4223 10.4761 2.53665C9.69841 1.651 8.66193 1.0323 7.51329 0.768066C7.41013 0.744366 7.30264 0.747253 7.20091 0.776456C7.09917 0.805659 7.00652 0.860221 6.93163 0.935025C6.85675 1.00983 6.80209 1.10243 6.77279 1.20413C6.74348 1.30584 6.74048 1.41332 6.76407 1.5165C6.83784 1.83917 6.87505 2.16911 6.87501 2.5001C6.87377 3.66004 6.41243 4.77212 5.59223 5.59232C4.77202 6.41252 3.65995 6.87386 2.50001 6.8751C2.16902 6.87514 1.83908 6.83793 1.51641 6.76416C1.41318 6.74041 1.3056 6.74329 1.20378 6.77252C1.10196 6.80176 1.00925 6.8564 0.93434 6.93131C0.859434 7.00621 0.804797 7.09893 0.775559 7.20075C0.746321 7.30256 0.743442 7.41014 0.767194 7.51338C0.935097 8.23739 1.24439 8.92109 1.67731 9.52522C2.11022 10.1293 2.65823 10.642 3.28985 11.0337C2.84563 11.6389 2.57779 12.3553 2.51604 13.1035C2.45429 13.8516 2.60106 14.6023 2.94005 15.2721C3.27905 15.9419 3.79701 16.5047 4.43645 16.898C5.07589 17.2913 5.8118 17.4997 6.56251 17.5001H12.8125C14.3872 17.5001 15.8975 16.8745 17.011 15.761C18.1244 14.6475 18.75 13.1373 18.75 11.5626C18.75 9.98787 18.1244 8.47765 17.011 7.36415C15.8975 6.25065 14.3872 5.6251 12.8125 5.6251ZM2.29454 8.1251C2.36251 8.1251 2.43126 8.1251 2.50001 8.1251C3.99134 8.12344 5.42112 7.53028 6.47565 6.47574C7.53019 5.42121 8.12335 3.99143 8.12501 2.5001C8.12501 2.43057 8.12501 2.36103 8.12501 2.2915C8.84471 2.6283 9.45831 3.15596 9.89908 3.81712C10.3399 4.47828 10.5909 5.24762 10.625 6.0415C9.86162 6.34464 9.16914 6.80232 8.59104 7.3858C8.01294 7.96928 7.56169 8.66597 7.26563 9.43213C6.73722 9.34069 6.19593 9.35478 5.67299 9.47359C5.15004 9.59239 4.6558 9.81355 4.21876 10.1243C3.37817 9.68335 2.70306 8.98192 2.29454 8.1251ZM12.8125 16.2501H6.56251C6.17784 16.2494 5.7974 16.1698 5.44473 16.0162C5.09205 15.8626 4.77463 15.6383 4.51209 15.3572C4.24955 15.076 4.04747 14.744 3.91835 14.3816C3.78924 14.0193 3.73582 13.6343 3.76141 13.2505C3.787 12.8667 3.89106 12.4922 4.06714 12.1502C4.24322 11.8082 4.48759 11.5059 4.78513 11.2621C5.08267 11.0183 5.42706 10.8382 5.79701 10.7327C6.16695 10.6273 6.55459 10.5989 6.93594 10.6493C6.90704 10.8345 6.88673 11.0235 6.87579 11.2142C6.86626 11.3799 6.92296 11.5427 7.03343 11.6666C7.1439 11.7906 7.29909 11.8656 7.46485 11.8751C7.63061 11.8846 7.79337 11.8279 7.91732 11.7174C8.04127 11.607 8.11626 11.4518 8.12579 11.286C8.14332 10.9743 8.19253 10.6652 8.27266 10.3634C8.27266 10.3509 8.27969 10.3384 8.28204 10.3259C8.51176 9.48169 8.97292 8.71855 9.61344 8.12261C10.254 7.52667 11.0484 7.12169 11.9069 6.95337C12.7654 6.78506 13.6539 6.86013 14.4721 7.1701C15.2902 7.48008 16.0053 8.01261 16.5368 8.70757C17.0683 9.40252 17.3948 10.2322 17.4797 11.103C17.5645 11.9737 17.4042 12.8509 17.0168 13.6353C16.6295 14.4198 16.0305 15.0803 15.2876 15.5424C14.5447 16.0044 13.6874 16.2496 12.8125 16.2501Z" fill="#191F2E"/>
</svg>
