<svg width="20" height="20" viewBox="0 0 20 20" fill="none" xmlns="http://www.w3.org/2000/svg">
<path d="M12.5 2.8125C11.2026 2.81313 9.92945 3.16461 8.81544 3.82971C7.70143 4.49481 6.78801 5.44879 6.1719 6.59063C5.4551 6.51657 4.73072 6.58913 4.04283 6.80387C3.35495 7.01862 2.71795 7.37107 2.17059 7.83979C1.62323 8.3085 1.17694 8.88367 0.858893 9.53031C0.540844 10.1769 0.357677 10.8815 0.320537 11.6012C0.283397 12.3209 0.393061 13.0406 0.642855 13.7165C0.89265 14.3925 1.27735 15.0105 1.77356 15.5331C2.26977 16.0556 2.8671 16.4718 3.52922 16.7562C4.19134 17.0406 4.90441 17.1874 5.62503 17.1875H12.5C14.4063 17.1875 16.2344 16.4302 17.5824 15.0823C18.9303 13.7344 19.6875 11.9062 19.6875 10C19.6875 8.09376 18.9303 6.26559 17.5824 4.91767C16.2344 3.56975 14.4063 2.8125 12.5 2.8125ZM12.5 15.3125H5.62503C4.71335 15.3314 3.83152 14.9873 3.17353 14.356C2.51554 13.7246 2.13529 12.8578 2.11644 11.9461C2.09758 11.0344 2.44166 10.1526 3.07298 9.49459C3.70431 8.8366 4.57116 8.45636 5.48284 8.4375C5.36904 8.95053 5.31192 9.4745 5.31253 10C5.31253 10.2486 5.4113 10.4871 5.58712 10.6629C5.76293 10.8387 6.00139 10.9375 6.25003 10.9375C6.49867 10.9375 6.73713 10.8387 6.91294 10.6629C7.08876 10.4871 7.18753 10.2486 7.18753 10C7.18753 8.94929 7.4991 7.92217 8.08285 7.04853C8.66659 6.1749 9.49629 5.49398 10.467 5.09189C11.4378 4.6898 12.5059 4.58459 13.5364 4.78958C14.567 4.99456 15.5136 5.50053 16.2565 6.2435C16.9995 6.98646 17.5055 7.93306 17.7105 8.96358C17.9154 9.99411 17.8102 11.0623 17.4081 12.033C17.006 13.0037 16.3251 13.8334 15.4515 14.4172C14.5779 15.0009 13.5507 15.3125 12.5 15.3125ZM11.5625 9.375V6.875C11.5625 6.62636 11.6613 6.3879 11.8371 6.21209C12.0129 6.03627 12.2514 5.9375 12.5 5.9375C12.7487 5.9375 12.9871 6.03627 13.1629 6.21209C13.3388 6.3879 13.4375 6.62636 13.4375 6.875V9.375C13.4375 9.62364 13.3388 9.8621 13.1629 10.0379C12.9871 10.2137 12.7487 10.3125 12.5 10.3125C12.2514 10.3125 12.0129 10.2137 11.8371 10.0379C11.6613 9.8621 11.5625 9.62364 11.5625 9.375ZM13.75 12.5C13.75 12.7472 13.6767 12.9889 13.5394 13.1945C13.402 13.4 13.2068 13.5602 12.9784 13.6549C12.75 13.7495 12.4986 13.7742 12.2562 13.726C12.0137 13.6778 11.791 13.5587 11.6161 13.3839C11.4413 13.2091 11.3223 12.9863 11.274 12.7439C11.2258 12.5014 11.2506 12.2501 11.3452 12.0216C11.4398 11.7932 11.6 11.598 11.8056 11.4607C12.0111 11.3233 12.2528 11.25 12.5 11.25C12.8315 11.25 13.1495 11.3817 13.3839 11.6161C13.6183 11.8505 13.75 12.1685 13.75 12.5Z" fill="#191F2E"/>
</svg>
