<svg width="20" height="20" viewBox="0 0 20 20" fill="none" xmlns="http://www.w3.org/2000/svg">
<path d="M12.5 2.8125C11.2026 2.81313 9.92945 3.16461 8.81544 3.82971C7.70143 4.49481 6.78801 5.44879 6.1719 6.59063C5.4551 6.51657 4.73072 6.58913 4.04283 6.80387C3.35495 7.01862 2.71795 7.37107 2.17059 7.83979C1.62323 8.3085 1.17694 8.88367 0.858893 9.53031C0.540844 10.1769 0.357677 10.8815 0.320537 11.6012C0.283397 12.3209 0.393061 13.0406 0.642855 13.7165C0.89265 14.3925 1.27735 15.0105 1.77356 15.5331C2.26977 16.0556 2.8671 16.4718 3.52922 16.7562C4.19134 17.0406 4.90441 17.1874 5.62503 17.1875H12.5C14.4063 17.1875 16.2344 16.4302 17.5824 15.0823C18.9303 13.7344 19.6875 11.9062 19.6875 10C19.6875 8.09376 18.9303 6.26559 17.5824 4.91767C16.2344 3.56975 14.4063 2.8125 12.5 2.8125ZM12.5 15.3125H5.62503C4.71335 15.3314 3.83152 14.9873 3.17353 14.356C2.51554 13.7246 2.13529 12.8578 2.11644 11.9461C2.09758 11.0344 2.44166 10.1526 3.07298 9.49459C3.70431 8.8366 4.57116 8.45636 5.48284 8.4375C5.36904 8.95053 5.31192 9.4745 5.31253 10C5.31253 10.2486 5.4113 10.4871 5.58712 10.6629C5.76293 10.8387 6.00139 10.9375 6.25003 10.9375C6.49867 10.9375 6.73713 10.8387 6.91294 10.6629C7.08876 10.4871 7.18753 10.2486 7.18753 10C7.18753 8.94929 7.4991 7.92217 8.08285 7.04853C8.66659 6.1749 9.49629 5.49398 10.467 5.09189C11.4378 4.6898 12.5059 4.58459 13.5364 4.78958C14.567 4.99456 15.5136 5.50053 16.2565 6.2435C16.9995 6.98646 17.5055 7.93306 17.7105 8.96358C17.9154 9.99411 17.8102 11.0623 17.4081 12.033C17.006 13.0037 16.3251 13.8334 15.4515 14.4172C14.5779 15.0009 13.5507 15.3125 12.5 15.3125ZM15.6633 8.08672C15.7507 8.17382 15.8201 8.27731 15.8674 8.39126C15.9147 8.50522 15.939 8.62739 15.939 8.75078C15.939 8.87417 15.9147 8.99634 15.8674 9.1103C15.8201 9.22425 15.7507 9.32775 15.6633 9.41484L11.9133 13.1648C11.8262 13.2522 11.7227 13.3216 11.6088 13.3689C11.4948 13.4162 11.3726 13.4406 11.2492 13.4406C11.1259 13.4406 11.0037 13.4162 10.8897 13.3689C10.7758 13.3216 10.6723 13.2522 10.5852 13.1648L8.71019 11.2898C8.62298 11.2026 8.5538 11.0991 8.50661 10.9852C8.45941 10.8712 8.43512 10.7491 8.43512 10.6258C8.43512 10.5025 8.45941 10.3803 8.50661 10.2664C8.5538 10.1525 8.62298 10.0489 8.71019 9.96172C8.79739 9.87451 8.90092 9.80534 9.01486 9.75814C9.1288 9.71095 9.25092 9.68665 9.37425 9.68666C9.49757 9.68666 9.6197 9.71095 9.73363 9.75814C9.84758 9.80534 9.9511 9.87451 10.0383 9.96172L11.25 11.1719L14.3367 8.08438C14.424 7.99736 14.5275 7.9284 14.6414 7.88142C14.7553 7.83444 14.8773 7.81037 15.0005 7.81059C15.1237 7.81081 15.2457 7.83531 15.3594 7.88269C15.4731 7.93007 15.5764 7.9994 15.6633 8.08672Z" fill="#191F2E"/>
</svg>
