<svg width="20" height="20" viewBox="0 0 20 20" fill="none" xmlns="http://www.w3.org/2000/svg">
<path d="M12.5 3.125C11.2232 3.12598 9.97184 3.48214 8.88588 4.15364C7.79991 4.82514 6.92216 5.78551 6.35079 6.92734C5.67107 6.82821 4.97822 6.8702 4.31544 7.05069C3.65267 7.23117 3.03419 7.54629 2.49859 7.97638C1.96299 8.40647 1.52176 8.94231 1.20241 9.55047C0.883062 10.1586 0.692451 10.8261 0.642467 11.5112C0.592483 12.1963 0.684198 12.8843 0.911891 13.5324C1.13958 14.1804 1.49837 14.7747 1.96587 15.2779C2.43337 15.7812 2.99956 16.1828 3.62912 16.4575C4.25868 16.7323 4.9381 16.8744 5.62501 16.875H12.5C14.3234 16.875 16.0721 16.1507 17.3614 14.8614C18.6507 13.572 19.375 11.8234 19.375 10C19.375 8.17664 18.6507 6.42795 17.3614 5.13864C16.0721 3.84933 14.3234 3.125 12.5 3.125ZM12.5 15.625H5.62501C4.63045 15.625 3.67662 15.2299 2.97336 14.5267C2.2701 13.8234 1.87501 12.8696 1.87501 11.875C1.87501 10.8804 2.2701 9.92661 2.97336 9.22335C3.67662 8.52009 4.63045 8.125 5.62501 8.125C5.71095 8.125 5.79689 8.125 5.88204 8.13359C5.71112 8.74099 5.62463 9.36902 5.62501 10C5.62501 10.1658 5.69086 10.3247 5.80807 10.4419C5.92528 10.5592 6.08425 10.625 6.25001 10.625C6.41577 10.625 6.57474 10.5592 6.69195 10.4419C6.80916 10.3247 6.87501 10.1658 6.87501 10C6.87501 8.88748 7.20491 7.79994 7.823 6.87492C8.44108 5.94989 9.31958 5.22892 10.3474 4.80318C11.3753 4.37743 12.5063 4.26604 13.5974 4.48308C14.6885 4.70012 15.6908 5.23585 16.4775 6.02252C17.2642 6.80919 17.7999 7.81147 18.0169 8.90262C18.234 9.99376 18.1226 11.1248 17.6968 12.1526C17.2711 13.1804 16.5501 14.0589 15.6251 14.677C14.7001 15.2951 13.6125 15.625 12.5 15.625ZM14.8172 9.19219L13.3836 10.625L14.8172 12.0578C14.8753 12.1159 14.9213 12.1848 14.9528 12.2607C14.9842 12.3366 15.0004 12.4179 15.0004 12.5C15.0004 12.5821 14.9842 12.6634 14.9528 12.7393C14.9213 12.8152 14.8753 12.8841 14.8172 12.9422C14.7591 13.0003 14.6902 13.0463 14.6143 13.0777C14.5385 13.1092 14.4571 13.1253 14.375 13.1253C14.2929 13.1253 14.2116 13.1092 14.1357 13.0777C14.0598 13.0463 13.9909 13.0003 13.9328 12.9422L12.5 11.5086L11.0672 12.9422C10.9499 13.0595 10.7909 13.1253 10.625 13.1253C10.4592 13.1253 10.3001 13.0595 10.1828 12.9422C10.0655 12.8249 9.99966 12.6659 9.99966 12.5C9.99966 12.3341 10.0655 12.1751 10.1828 12.0578L11.6164 10.625L10.1828 9.19219C10.0655 9.07491 9.99966 8.91585 9.99966 8.75C9.99966 8.58415 10.0655 8.42509 10.1828 8.30781C10.3001 8.19054 10.4592 8.12465 10.625 8.12465C10.7909 8.12465 10.9499 8.19054 11.0672 8.30781L12.5 9.74141L13.9328 8.30781C13.9909 8.24974 14.0598 8.20368 14.1357 8.17225C14.2116 8.14083 14.2929 8.12465 14.375 8.12465C14.4571 8.12465 14.5385 8.14083 14.6143 8.17225C14.6902 8.20368 14.7591 8.24974 14.8172 8.30781C14.8753 8.36588 14.9213 8.43482 14.9528 8.51069C14.9842 8.58656 15.0004 8.66788 15.0004 8.75C15.0004 8.83212 14.9842 8.91344 14.9528 8.98931C14.9213 9.06518 14.8753 9.13412 14.8172 9.19219Z" fill="#191F2E"/>
</svg>
