<svg width="20" height="20" viewBox="0 0 20 20" fill="none" xmlns="http://www.w3.org/2000/svg">
<path d="M12.3953 15.347L9.89532 19.097C9.84977 19.1653 9.7912 19.224 9.72297 19.2697C9.65474 19.3154 9.57817 19.3472 9.49765 19.3633C9.33502 19.3958 9.16613 19.3624 9.02813 19.2704C8.89014 19.1784 8.79434 19.0354 8.76181 18.8727C8.72929 18.7101 8.7627 18.5412 8.8547 18.4032L11.3547 14.6532C11.4467 14.5152 11.5897 14.4194 11.7524 14.3869C11.915 14.3544 12.0839 14.3878 12.2219 14.4798C12.3599 14.5718 12.4557 14.7148 12.4882 14.8775C12.5207 15.0401 12.4873 15.209 12.3953 15.347ZM18.1149 6.83995C18.0261 5.32288 17.3591 3.89757 16.2511 2.8575C15.1432 1.81743 13.6786 1.24178 12.1589 1.24909C10.6393 1.2564 9.18028 1.84611 8.08235 2.89679C6.98442 3.94746 6.33115 5.37913 6.25704 6.89698C6.24792 7.05896 6.17755 7.2114 6.06018 7.32341C5.94281 7.43541 5.78723 7.49858 5.62501 7.50011H5.57813C5.41314 7.48536 5.26042 7.40682 5.15245 7.2812C5.04448 7.15558 4.98979 6.99278 5.00001 6.82745C5.02172 6.3929 5.08265 5.96119 5.18204 5.53761C5.19486 5.48442 5.1935 5.4288 5.17808 5.3763C5.16266 5.32381 5.13374 5.27628 5.09419 5.23848C5.05464 5.20067 5.00586 5.17391 4.95273 5.16087C4.8996 5.14783 4.84397 5.14897 4.79142 5.16417C3.94539 5.41412 3.2035 5.93222 2.67749 6.64042C2.15149 7.34862 1.86985 8.20857 1.87501 9.09073C1.89063 11.3337 3.75938 13.1251 6.00313 13.1251H8.83204L6.9797 15.9032C6.8877 16.0412 6.85429 16.2101 6.88681 16.3727C6.91934 16.5354 7.01514 16.6784 7.15313 16.7704C7.29113 16.8624 7.46002 16.8958 7.62265 16.8633C7.78528 16.8308 7.92832 16.735 8.02032 16.597L10.3344 13.1251H12.1875C12.9963 13.1242 13.7963 12.9583 14.5387 12.6375C15.2811 12.3166 15.9502 11.8477 16.5051 11.2593C17.0599 10.671 17.4889 9.97555 17.7657 9.21565C18.0425 8.45575 18.1613 7.64736 18.1149 6.83995Z" fill="#191F2E"/>
</svg>
