<svg width="20" height="20" viewBox="0 0 20 20" fill="none" xmlns="http://www.w3.org/2000/svg">
<path d="M12.1875 5.62492C11.6527 5.62459 11.1203 5.69633 10.6047 5.8382C10.4012 5.50609 10.1539 5.20285 9.86955 4.93664L10.6125 3.87648C10.6596 3.80923 10.693 3.73336 10.7108 3.65321C10.7285 3.57305 10.7303 3.49019 10.7161 3.40933C10.7018 3.32848 10.6718 3.25123 10.6277 3.18199C10.5836 3.11274 10.5263 3.05287 10.459 3.00578C10.3917 2.95868 10.3159 2.9253 10.2357 2.90753C10.1556 2.88976 10.0727 2.88795 9.99186 2.90221C9.911 2.91646 9.83375 2.9465 9.76451 2.99061C9.69526 3.03472 9.63539 3.09204 9.5883 3.15929L8.84533 4.21867C8.23436 3.91018 7.55944 3.74961 6.87502 3.74992C6.8297 3.74992 6.78439 3.74992 6.73908 3.74992L6.5133 2.47726C6.50145 2.39434 6.47305 2.31464 6.42979 2.24291C6.38653 2.17117 6.32929 2.10887 6.26148 2.05969C6.19366 2.01052 6.11665 1.97548 6.03503 1.95666C5.9534 1.93783 5.86882 1.93561 5.78632 1.95012C5.70382 1.96463 5.62508 1.99558 5.55477 2.04112C5.48447 2.08666 5.42404 2.14588 5.37707 2.21524C5.3301 2.2846 5.29756 2.36269 5.28137 2.44488C5.26518 2.52707 5.26567 2.61167 5.28283 2.69367L5.50783 3.97023C4.81467 4.19949 4.18976 4.59828 3.68986 5.13039L2.6258 4.38585C2.5586 4.33761 2.48249 4.30318 2.40189 4.28457C2.32128 4.26595 2.23779 4.26353 2.15624 4.27743C2.07469 4.29133 1.99671 4.32129 1.92683 4.36556C1.85694 4.40982 1.79654 4.46752 1.74912 4.53531C1.70171 4.6031 1.66822 4.67963 1.65061 4.76045C1.63299 4.84128 1.6316 4.9248 1.64651 5.00617C1.66141 5.08755 1.69233 5.16515 1.73745 5.23448C1.78258 5.30381 1.84102 5.3635 1.90939 5.41007L2.96877 6.15382C2.65919 6.76467 2.49856 7.4401 2.50002 8.12492C2.50002 8.16945 2.50002 8.21476 2.50002 8.25929L1.22736 8.48429C1.07332 8.51128 0.93499 8.59503 0.839683 8.71902C0.744375 8.84301 0.699014 8.99823 0.712553 9.15403C0.726092 9.30983 0.797549 9.45489 0.912816 9.56058C1.02808 9.66627 1.17878 9.72491 1.33517 9.72492C1.37157 9.72487 1.4079 9.72173 1.44377 9.71554L2.71877 9.49054C2.83079 9.83161 2.98456 10.1575 3.17658 10.4609C2.57876 11.0161 2.162 11.7386 1.98056 12.5341C1.79913 13.3296 1.86144 14.1612 2.15937 14.9208C2.4573 15.6804 2.97705 16.3327 3.65093 16.7927C4.32481 17.2527 5.1216 17.4991 5.93752 17.4999H12.1875C13.7622 17.4999 15.2725 16.8744 16.386 15.7609C17.4995 14.6474 18.125 13.1371 18.125 11.5624C18.125 9.98769 17.4995 8.47747 16.386 7.36397C15.2725 6.25047 13.7622 5.62492 12.1875 5.62492ZM3.75002 8.12492C3.75039 7.46309 3.96088 6.81846 4.35114 6.28394C4.74141 5.74942 5.2913 5.3526 5.92158 5.15068C6.55186 4.94876 7.22997 4.95215 7.85819 5.16037C8.48641 5.36859 9.03231 5.77089 9.4172 6.30929C8.14227 6.98023 7.15365 8.09042 6.63439 9.43429C5.81278 9.29247 4.96744 9.40618 4.21252 9.76007C3.91027 9.26821 3.75018 8.70223 3.75002 8.12492ZM12.1875 16.2499H5.93752C5.55285 16.2492 5.17241 16.1696 4.81974 16.016C4.46706 15.8624 4.14964 15.6381 3.8871 15.357C3.62456 15.0758 3.42248 14.7438 3.29336 14.3815C3.16425 14.0191 3.11083 13.6341 3.13642 13.2503C3.16201 12.8665 3.26607 12.492 3.44215 12.15C3.61823 11.808 3.8626 11.5058 4.16014 11.262C4.45768 11.0182 4.80207 10.838 5.17201 10.7326C5.54196 10.6272 5.9296 10.5988 6.31095 10.6491C6.28205 10.8343 6.26174 11.0234 6.2508 11.214C6.24608 11.2961 6.25757 11.3783 6.28462 11.4559C6.31167 11.5335 6.35374 11.6051 6.40844 11.6664C6.46314 11.7278 6.5294 11.7778 6.60342 11.8136C6.67744 11.8494 6.75778 11.8702 6.83986 11.8749C6.92194 11.8796 7.00414 11.8681 7.08177 11.8411C7.15941 11.814 7.23095 11.772 7.29233 11.7173C7.3537 11.6626 7.4037 11.5963 7.43947 11.5223C7.47524 11.4483 7.49608 11.3679 7.5008 11.2859C7.51833 10.9741 7.56754 10.665 7.64767 10.3632C7.64767 10.3507 7.6547 10.3382 7.65705 10.3257C7.88677 9.48151 8.34793 8.71837 8.98845 8.12243C9.62898 7.5265 10.4234 7.12151 11.2819 6.95319C12.1404 6.78488 13.0289 6.85995 13.8471 7.16992C14.6652 7.4799 15.3804 8.01243 15.9118 8.70739C16.4433 9.40235 16.7699 10.232 16.8547 11.1028C16.9395 11.9736 16.7792 12.8507 16.3918 13.6352C16.0045 14.4196 15.4055 15.0802 14.6626 15.5422C13.9197 16.0042 13.0624 16.2494 12.1875 16.2499Z" fill="#191F2E"/>
</svg>
