<svg width="20" height="20" viewBox="0 0 20 20" fill="none" xmlns="http://www.w3.org/2000/svg">
<path d="M6.87501 15.3126C6.87501 15.498 6.82003 15.6793 6.71701 15.8335C6.614 15.9876 6.46758 16.1078 6.29627 16.1787C6.12497 16.2497 5.93647 16.2683 5.75461 16.2321C5.57275 16.1959 5.40571 16.1066 5.2746 15.9755C5.14348 15.8444 5.0542 15.6774 5.01802 15.4955C4.98185 15.3136 5.00041 15.1251 5.07137 14.9538C5.14233 14.7825 5.26249 14.6361 5.41666 14.5331C5.57083 14.4301 5.75209 14.3751 5.93751 14.3751C6.18615 14.3751 6.42461 14.4739 6.60042 14.6497C6.77624 14.8255 6.87501 15.064 6.87501 15.3126ZM9.06251 15.6251C8.87709 15.6251 8.69583 15.6801 8.54166 15.7831C8.38749 15.8861 8.26733 16.0325 8.19637 16.2038C8.12541 16.3751 8.10685 16.5636 8.14302 16.7455C8.1792 16.9274 8.26848 17.0944 8.3996 17.2255C8.53071 17.3566 8.69775 17.4459 8.87961 17.4821C9.06147 17.5183 9.24997 17.4997 9.42127 17.4287C9.59258 17.3578 9.739 17.2376 9.84201 17.0835C9.94503 16.9293 10 16.748 10 16.5626C10 16.314 9.90124 16.0755 9.72542 15.8997C9.54961 15.7239 9.31115 15.6251 9.06251 15.6251ZM12.8125 14.3751C12.6271 14.3751 12.4458 14.4301 12.2917 14.5331C12.1375 14.6361 12.0173 14.7825 11.9464 14.9538C11.8754 15.1251 11.8568 15.3136 11.893 15.4955C11.9292 15.6774 12.0185 15.8444 12.1496 15.9755C12.2807 16.1066 12.4478 16.1959 12.6296 16.2321C12.8115 16.2683 13 16.2497 13.1713 16.1787C13.3426 16.1078 13.489 15.9876 13.592 15.8335C13.695 15.6793 13.75 15.498 13.75 15.3126C13.75 15.064 13.6512 14.8255 13.4754 14.6497C13.2996 14.4739 13.0611 14.3751 12.8125 14.3751ZM5.31251 17.5001C5.12709 17.5001 4.94583 17.5551 4.79166 17.6581C4.63749 17.7611 4.51733 17.9075 4.44637 18.0788C4.37541 18.2501 4.35685 18.4386 4.39302 18.6205C4.4292 18.8024 4.51848 18.9694 4.6496 19.1005C4.78071 19.2316 4.94775 19.3209 5.12961 19.3571C5.31147 19.3933 5.49997 19.3747 5.67127 19.3037C5.84258 19.2328 5.989 19.1126 6.09201 18.9585C6.19503 18.8043 6.25001 18.623 6.25001 18.4376C6.25001 18.189 6.15124 17.9505 5.97542 17.7747C5.79961 17.5989 5.56115 17.5001 5.31251 17.5001ZM12.1875 17.5001C12.0021 17.5001 11.8208 17.5551 11.6667 17.6581C11.5125 17.7611 11.3923 17.9075 11.3214 18.0788C11.2504 18.2501 11.2318 18.4386 11.268 18.6205C11.3042 18.8024 11.3935 18.9694 11.5246 19.1005C11.6557 19.2316 11.8228 19.3209 12.0046 19.3571C12.1865 19.3933 12.375 19.3747 12.5463 19.3037C12.7176 19.2328 12.864 19.1126 12.967 18.9585C13.07 18.8043 13.125 18.623 13.125 18.4376C13.125 18.189 13.0262 17.9505 12.8504 17.7747C12.6746 17.5989 12.4361 17.5001 12.1875 17.5001ZM18.1149 6.83995C18.0261 5.32288 17.3591 3.89757 16.2511 2.8575C15.1432 1.81743 13.6786 1.24178 12.1589 1.24909C10.6393 1.2564 9.18028 1.84611 8.08235 2.89679C6.98442 3.94746 6.33115 5.37913 6.25704 6.89698C6.24792 7.05896 6.17755 7.21141 6.06018 7.32341C5.94281 7.43541 5.78723 7.49858 5.62501 7.50011H5.57813C5.41314 7.48536 5.26042 7.40682 5.15245 7.2812C5.04448 7.15558 4.98979 6.99278 5.00001 6.82745C5.02172 6.3929 5.08265 5.9612 5.18204 5.53761C5.19486 5.48442 5.1935 5.4288 5.17808 5.3763C5.16266 5.32381 5.13374 5.27628 5.09419 5.23848C5.05464 5.20067 5.00586 5.17391 4.95273 5.16087C4.8996 5.14783 4.84397 5.14897 4.79142 5.16417C3.94539 5.41412 3.2035 5.93222 2.67749 6.64042C2.15149 7.34862 1.86985 8.20857 1.87501 9.09073C1.89063 11.3337 3.75938 13.1251 6.00313 13.1251H12.1875C12.9963 13.1242 13.7963 12.9583 14.5387 12.6375C15.2811 12.3166 15.9502 11.8477 16.5051 11.2593C17.0599 10.671 17.4889 9.97555 17.7657 9.21565C18.0425 8.45575 18.1613 7.64736 18.1149 6.83995Z" fill="#191F2E"/>
</svg>
