<svg width="20" height="20" viewBox="0 0 20 20" fill="none" xmlns="http://www.w3.org/2000/svg">
<path d="M9.375 15.6249H5.625C5.45924 15.6249 5.30027 15.559 5.18306 15.4418C5.06585 15.3246 5 15.1656 5 14.9999C5 14.8341 5.06585 14.6751 5.18306 14.5579C5.30027 14.4407 5.45924 14.3749 5.625 14.3749H9.375C9.54076 14.3749 9.69973 14.4407 9.81694 14.5579C9.93415 14.6751 10 14.8341 10 14.9999C10 15.1656 9.93415 15.3246 9.81694 15.4418C9.69973 15.559 9.54076 15.6249 9.375 15.6249ZM14.375 14.3749H12.5C12.3342 14.3749 12.1753 14.4407 12.0581 14.5579C11.9408 14.6751 11.875 14.8341 11.875 14.9999C11.875 15.1656 11.9408 15.3246 12.0581 15.4418C12.1753 15.559 12.3342 15.6249 12.5 15.6249H14.375C14.5408 15.6249 14.6997 15.559 14.8169 15.4418C14.9342 15.3246 15 15.1656 15 14.9999C15 14.8341 14.9342 14.6751 14.8169 14.5579C14.6997 14.4407 14.5408 14.3749 14.375 14.3749ZM12.5 16.8749H8.125C7.95924 16.8749 7.80027 16.9407 7.68306 17.0579C7.56585 17.1751 7.5 17.3341 7.5 17.4999C7.5 17.6656 7.56585 17.8246 7.68306 17.9418C7.80027 18.059 7.95924 18.1249 8.125 18.1249H12.5C12.6658 18.1249 12.8247 18.059 12.9419 17.9418C13.0592 17.8246 13.125 17.6656 13.125 17.4999C13.125 17.3341 13.0592 17.1751 12.9419 17.0579C12.8247 16.9407 12.6658 16.8749 12.5 16.8749ZM18.125 7.18738C18.1233 8.76159 17.4973 10.2709 16.3841 11.384C15.271 12.4971 13.7617 13.1232 12.1875 13.1249H5.9375C4.86006 13.1249 3.82675 12.6969 3.06488 11.935C2.30301 11.1731 1.875 10.1398 1.875 9.06238C1.875 7.98494 2.30301 6.95162 3.06488 6.18976C3.82675 5.42789 4.86006 4.99988 5.9375 4.99988C6.17105 5.00008 6.40416 5.01994 6.63437 5.05925C7.13282 3.76454 8.06847 2.68498 9.27922 2.00761C10.49 1.33023 11.8995 1.09773 13.2637 1.35038C14.6278 1.60302 15.8606 2.3249 16.7485 3.39095C17.6363 4.45699 18.1233 5.80003 18.125 7.18738ZM16.875 7.18738C16.87 5.97024 16.3922 4.80266 15.5426 3.93115C14.6929 3.05964 13.5378 2.5524 12.3212 2.51651C11.1046 2.48062 9.92162 2.91889 9.02206 3.7388C8.1225 4.55871 7.57674 5.69608 7.5 6.91082C7.49528 6.99289 7.47444 7.07324 7.43867 7.14726C7.4029 7.22128 7.3529 7.28753 7.29153 7.34223C7.16758 7.4527 7.00482 7.50941 6.83906 7.49988C6.6733 7.49035 6.51812 7.41536 6.40765 7.29141C6.29718 7.16746 6.24047 7.0047 6.25 6.83894C6.26094 6.64832 6.28099 6.46003 6.31016 6.2741C6.18657 6.25823 6.0621 6.25015 5.9375 6.24988C5.19158 6.24988 4.47621 6.5462 3.94876 7.07364C3.42132 7.60109 3.125 8.31646 3.125 9.06238C3.125 9.8083 3.42132 10.5237 3.94876 11.0511C4.47621 11.5786 5.19158 11.8749 5.9375 11.8749H12.1875C13.4303 11.8734 14.6217 11.3791 15.5005 10.5003C16.3792 9.62158 16.8736 8.43014 16.875 7.18738Z" fill="#191F2E"/>
</svg>
