<svg width="20" height="20" viewBox="0 0 20 20" fill="none" xmlns="http://www.w3.org/2000/svg">
<path d="M12.1875 5.31239C11.7019 5.31244 11.2179 5.36881 10.7453 5.48036C10.6047 5.27497 10.448 5.08112 10.2765 4.90067L10.8679 4.05536C11.0106 3.85168 11.0665 3.59968 11.0234 3.35478C10.9802 3.10989 10.8415 2.89216 10.6379 2.7495C10.4342 2.60685 10.1822 2.55094 9.93729 2.59409C9.69239 2.63724 9.47466 2.7759 9.33201 2.97958L8.73982 3.82802C8.19054 3.5875 7.60013 3.45489 7.00076 3.43739L6.82107 2.42177C6.77356 2.18104 6.63358 1.96854 6.43116 1.82986C6.22874 1.69119 5.98002 1.6374 5.73838 1.68004C5.49675 1.72268 5.28147 1.85835 5.13874 2.05794C4.99601 2.25752 4.93722 2.50511 4.97498 2.74755L5.15466 3.76317C4.59756 3.98457 4.08809 4.31078 3.65388 4.72411L2.80544 4.12958C2.60177 3.98692 2.34976 3.93102 2.10486 3.97417C1.85997 4.01732 1.64224 4.15598 1.49958 4.35966C1.35693 4.56334 1.30102 4.81534 1.34417 5.06024C1.38732 5.30514 1.52598 5.52286 1.72966 5.66552L2.5781 6.25849C2.33694 6.80728 2.20429 7.39756 2.18748 7.99677L1.17185 8.17646C0.940788 8.21693 0.733296 8.34257 0.590335 8.52855C0.447373 8.71453 0.379331 8.94736 0.39964 9.18106C0.419949 9.41476 0.527133 9.63235 0.700034 9.79089C0.872935 9.94942 1.09899 10.0374 1.33357 10.0374C1.38855 10.0373 1.44343 10.0326 1.49763 10.0233L2.51326 9.84364C2.58995 10.0383 2.67973 10.2275 2.78201 10.41C2.18889 11.0288 1.79061 11.8082 1.63663 12.6514C1.48265 13.4946 1.57975 14.3645 1.91587 15.153C2.25198 15.9415 2.81232 16.6139 3.52728 17.0867C4.24224 17.5595 5.08033 17.8118 5.93748 17.8124H12.1875C13.8451 17.8124 15.4348 17.1539 16.6069 15.9818C17.779 14.8097 18.4375 13.22 18.4375 11.5624C18.4375 9.90479 17.779 8.31508 16.6069 7.14298C15.4348 5.97087 13.8451 5.31239 12.1875 5.31239ZM6.87498 5.31239C7.26337 5.3127 7.6475 5.39346 8.00314 5.54956C8.35879 5.70567 8.67824 5.93375 8.94138 6.21942C7.82926 6.89393 6.95406 7.89716 6.43669 9.09052C6.27095 9.07172 6.10428 9.06233 5.93748 9.06239C5.39403 9.06234 4.85536 9.16382 4.34919 9.36161C4.13927 8.93284 4.04194 8.4577 4.06638 7.98092C4.09082 7.50415 4.23622 7.04144 4.48888 6.63638C4.74154 6.23132 5.09316 5.89725 5.5106 5.66562C5.92804 5.43399 6.39758 5.31243 6.87498 5.31239ZM12.1875 15.9374H5.93748C5.27443 15.9374 4.63855 15.674 4.16971 15.2052C3.70087 14.7363 3.43748 14.1004 3.43748 13.4374C3.43748 12.7744 3.70087 12.1385 4.16971 11.6696C4.63855 11.2008 5.27443 10.9374 5.93748 10.9374H5.95935C5.95076 11.0233 5.94373 11.1093 5.93904 11.1952C5.92453 11.4438 6.0094 11.6881 6.17496 11.8741C6.34051 12.0602 6.57321 12.1729 6.82185 12.1874C7.07049 12.2019 7.31471 12.117 7.50078 11.9515C7.68685 11.7859 7.79953 11.5532 7.81404 11.3046C7.83057 11.0143 7.87611 10.7264 7.94998 10.4452L7.96169 10.4022C8.17709 9.61473 8.60832 8.9031 9.20671 8.34768C9.8051 7.79226 10.5468 7.41516 11.3482 7.25894C12.1495 7.10272 12.9786 7.1736 13.7418 7.46358C14.505 7.75357 15.1719 8.2511 15.6674 8.90004C16.1628 9.54897 16.467 10.3235 16.5456 11.1361C16.6242 11.9488 16.474 12.7672 16.1121 13.499C15.7502 14.2309 15.191 14.847 14.4975 15.2779C13.804 15.7087 13.0039 15.9372 12.1875 15.9374Z" fill="#191F2E"/>
</svg>
