<svg width="20" height="20" viewBox="0 0 20 20" fill="none" xmlns="http://www.w3.org/2000/svg">
<path d="M19.3695 9.72812C19.2273 6.05781 16.1773 3.125 12.5047 3.125C11.2271 3.1252 9.97479 3.48098 8.88793 4.15253C7.80107 4.82407 6.92258 5.78486 6.35078 6.92734C5.87555 7.87451 5.62708 8.91921 5.625 9.97891C5.62745 10.1399 5.56902 10.2959 5.46139 10.4157C5.35377 10.5355 5.20489 10.6103 5.04453 10.625C4.95879 10.6311 4.8727 10.6195 4.79166 10.5908C4.71061 10.5622 4.63635 10.5171 4.57351 10.4585C4.51067 10.3998 4.46061 10.3288 4.42645 10.2499C4.3923 10.171 4.37478 10.086 4.375 10C4.37434 9.12581 4.51523 8.25728 4.79219 7.42813C4.81044 7.37496 4.81401 7.31786 4.80252 7.26283C4.79104 7.20781 4.76493 7.1569 4.72694 7.11547C4.68895 7.07404 4.64049 7.04363 4.58666 7.02743C4.53284 7.01123 4.47564 7.00985 4.42109 7.02344C3.33814 7.29336 2.37642 7.91736 1.68866 8.79635C1.00089 9.67534 0.626523 10.7589 0.625 11.875C0.625 14.6242 2.94922 16.875 5.70312 16.875H12.5C13.4254 16.874 14.3412 16.6864 15.1924 16.3233C16.0437 15.9603 16.8129 15.4293 17.4542 14.7621C18.0956 14.0949 18.5957 13.3052 18.9248 12.4403C19.2539 11.5753 19.4051 10.6529 19.3695 9.72812ZM14.8172 11.6922C14.7591 11.7503 14.6902 11.7964 14.6143 11.8279C14.5385 11.8593 14.4571 11.8755 14.375 11.8755C14.2929 11.8755 14.2115 11.8593 14.1357 11.8279C14.0598 11.7964 13.9909 11.7503 13.9328 11.6922L12.5 10.2586V15C12.5 15.1658 12.4342 15.3247 12.3169 15.4419C12.1997 15.5592 12.0408 15.625 11.875 15.625C11.7092 15.625 11.5503 15.5592 11.4331 15.4419C11.3158 15.3247 11.25 15.1658 11.25 15V10.2586L9.81719 11.6922C9.75912 11.7503 9.69018 11.7963 9.61431 11.8277C9.53844 11.8592 9.45712 11.8753 9.375 11.8753C9.29288 11.8753 9.21156 11.8592 9.13569 11.8277C9.05982 11.7963 8.99088 11.7503 8.93281 11.6922C8.87474 11.6341 8.82868 11.5652 8.79725 11.4893C8.76583 11.4134 8.74965 11.3321 8.74965 11.25C8.74965 11.1679 8.76583 11.0866 8.79725 11.0107C8.82868 10.9348 8.87474 10.8659 8.93281 10.8078L11.4328 8.30781C11.4909 8.2497 11.5598 8.2036 11.6357 8.17215C11.7115 8.1407 11.7929 8.12451 11.875 8.12451C11.9571 8.12451 12.0385 8.1407 12.1143 8.17215C12.1902 8.2036 12.2591 8.2497 12.3172 8.30781L14.8172 10.8078C14.8753 10.8659 14.9214 10.9348 14.9529 11.0107C14.9843 11.0865 15.0005 11.1679 15.0005 11.25C15.0005 11.3321 14.9843 11.4135 14.9529 11.4893C14.9214 11.5652 14.8753 11.6341 14.8172 11.6922Z" fill="#191F2E"/>
</svg>
