<svg width="20" height="20" viewBox="0 0 20 20" fill="none" xmlns="http://www.w3.org/2000/svg">
<path d="M6.875 15.3124C6.875 15.4978 6.82002 15.6791 6.717 15.8332C6.61399 15.9874 6.46757 16.1076 6.29627 16.1785C6.12496 16.2495 5.93646 16.268 5.7546 16.2319C5.57275 16.1957 5.4057 16.1064 5.27459 15.9753C5.14348 15.8442 5.05419 15.6771 5.01801 15.4953C4.98184 15.3134 5.00041 15.1249 5.07136 14.9536C5.14232 14.7823 5.26248 14.6359 5.41665 14.5329C5.57082 14.4299 5.75208 14.3749 5.9375 14.3749C6.18614 14.3749 6.4246 14.4737 6.60041 14.6495C6.77623 14.8253 6.875 15.0637 6.875 15.3124ZM9.0625 15.6249C8.87708 15.6249 8.69582 15.6799 8.54165 15.7829C8.38748 15.8859 8.26732 16.0323 8.19636 16.2036C8.12541 16.3749 8.10684 16.5634 8.14301 16.7453C8.17919 16.9271 8.26848 17.0942 8.39959 17.2253C8.5307 17.3564 8.69775 17.4457 8.8796 17.4819C9.06146 17.518 9.24996 17.4995 9.42127 17.4285C9.59257 17.3576 9.73899 17.2374 9.842 17.0832C9.94502 16.9291 10 16.7478 10 16.5624C10 16.3137 9.90123 16.0753 9.72541 15.8995C9.5496 15.7237 9.31114 15.6249 9.0625 15.6249ZM12.8125 14.3749C12.6271 14.3749 12.4458 14.4299 12.2917 14.5329C12.1375 14.6359 12.0173 14.7823 11.9464 14.9536C11.8754 15.1249 11.8568 15.3134 11.893 15.4953C11.9292 15.6771 12.0185 15.8442 12.1496 15.9753C12.2807 16.1064 12.4477 16.1957 12.6296 16.2319C12.8115 16.268 13 16.2495 13.1713 16.1785C13.3426 16.1076 13.489 15.9874 13.592 15.8332C13.695 15.6791 13.75 15.4978 13.75 15.3124C13.75 15.0637 13.6512 14.8253 13.4754 14.6495C13.2996 14.4737 13.0611 14.3749 12.8125 14.3749ZM5.3125 17.4999C5.12708 17.4999 4.94582 17.5549 4.79165 17.6579C4.63748 17.7609 4.51732 17.9073 4.44636 18.0786C4.37541 18.2499 4.35684 18.4384 4.39301 18.6203C4.42919 18.8021 4.51848 18.9692 4.64959 19.1003C4.7807 19.2314 4.94775 19.3207 5.1296 19.3569C5.31146 19.393 5.49996 19.3745 5.67127 19.3035C5.84257 19.2326 5.98899 19.1124 6.092 18.9582C6.19502 18.8041 6.25 18.6228 6.25 18.4374C6.25 18.1887 6.15123 17.9503 5.97541 17.7745C5.7996 17.5987 5.56114 17.4999 5.3125 17.4999ZM12.1875 17.4999C12.0021 17.4999 11.8208 17.5549 11.6667 17.6579C11.5125 17.7609 11.3923 17.9073 11.3214 18.0786C11.2504 18.2499 11.2318 18.4384 11.268 18.6203C11.3042 18.8021 11.3935 18.9692 11.5246 19.1003C11.6557 19.2314 11.8227 19.3207 12.0046 19.3569C12.1865 19.393 12.375 19.3745 12.5463 19.3035C12.7176 19.2326 12.864 19.1124 12.967 18.9582C13.07 18.8041 13.125 18.6228 13.125 18.4374C13.125 18.1887 13.0262 17.9503 12.8504 17.7745C12.6746 17.5987 12.4361 17.4999 12.1875 17.4999ZM18.125 7.18738C18.1233 8.76159 17.4973 10.2709 16.3841 11.384C15.271 12.4971 13.7617 13.1232 12.1875 13.1249H5.9375C4.86006 13.1249 3.82675 12.6969 3.06488 11.935C2.30301 11.1731 1.875 10.1398 1.875 9.06238C1.875 7.98494 2.30301 6.95162 3.06488 6.18976C3.82675 5.42789 4.86006 4.99988 5.9375 4.99988C6.17105 5.00008 6.40416 5.01994 6.63437 5.05925C7.13282 3.76454 8.06847 2.68498 9.27922 2.00761C10.49 1.33023 11.8995 1.09773 13.2637 1.35038C14.6278 1.60302 15.8606 2.3249 16.7485 3.39095C17.6363 4.45699 18.1233 5.80003 18.125 7.18738ZM16.875 7.18738C16.87 5.97024 16.3922 4.80266 15.5426 3.93115C14.6929 3.05964 13.5378 2.5524 12.3212 2.51651C11.1046 2.48062 9.92162 2.91889 9.02206 3.7388C8.1225 4.55871 7.57674 5.69608 7.5 6.91082C7.49528 6.99289 7.47444 7.07324 7.43867 7.14726C7.4029 7.22128 7.3529 7.28753 7.29153 7.34223C7.16758 7.4527 7.00482 7.50941 6.83906 7.49988C6.6733 7.49035 6.51812 7.41536 6.40765 7.29141C6.29718 7.16746 6.24047 7.0047 6.25 6.83894C6.26094 6.64832 6.28099 6.46003 6.31016 6.2741C6.18657 6.25823 6.0621 6.25015 5.9375 6.24988C5.19158 6.24988 4.47621 6.5462 3.94876 7.07364C3.42132 7.60109 3.125 8.31646 3.125 9.06238C3.125 9.8083 3.42132 10.5237 3.94876 11.0511C4.47621 11.5786 5.19158 11.8749 5.9375 11.8749H12.1875C13.4303 11.8734 14.6217 11.3791 15.5005 10.5003C16.3792 9.62158 16.8736 8.43014 16.875 7.18738Z" fill="#191F2E"/>
</svg>
