<svg width="20" height="20" viewBox="0 0 20 20" fill="none" xmlns="http://www.w3.org/2000/svg">
<path d="M19.6875 10C19.6921 11.5563 19.1869 13.0713 18.2492 14.3133C18.098 14.507 17.8769 14.6335 17.6333 14.6658C17.3897 14.698 17.1433 14.6334 16.9469 14.4857C16.7505 14.3381 16.6199 14.1193 16.5833 13.8763C16.5466 13.6334 16.6067 13.3858 16.7508 13.1868C17.2556 12.5133 17.5932 11.7294 17.7358 10.8999C17.8783 10.0703 17.8217 9.21879 17.5706 8.41541C17.3195 7.61203 16.8811 6.87981 16.2915 6.27909C15.7019 5.67837 14.978 5.22634 14.1795 4.96025C13.3809 4.69415 12.5306 4.62161 11.6985 4.7486C10.8664 4.87559 10.0764 5.19847 9.39362 5.69065C8.7108 6.18282 8.1547 6.83019 7.77114 7.57943C7.38758 8.32867 7.18754 9.15832 7.18749 10C7.18749 10.2487 7.08872 10.4871 6.91291 10.6629C6.73709 10.8388 6.49864 10.9375 6.24999 10.9375C6.00135 10.9375 5.7629 10.8388 5.58708 10.6629C5.41127 10.4871 5.31249 10.2487 5.31249 10C5.31204 9.4745 5.36942 8.95051 5.48359 8.43753C4.57191 8.45628 3.70501 8.83643 3.07362 9.49435C2.44222 10.1523 2.09804 11.0341 2.11679 11.9457C2.13554 12.8574 2.51569 13.7243 3.17361 14.3557C3.83152 14.9871 4.71331 15.3313 5.62499 15.3125H7.49999C7.74864 15.3125 7.98709 15.4113 8.16291 15.5871C8.33872 15.7629 8.4375 16.0014 8.4375 16.25C8.4375 16.4987 8.33872 16.7371 8.16291 16.9129C7.98709 17.0888 7.74864 17.1875 7.49999 17.1875H5.62499C4.90374 17.1884 4.18986 17.0424 3.52686 16.7585C2.86386 16.4745 2.26563 16.0585 1.76862 15.5358C1.27161 15.0131 0.88624 14.3947 0.635991 13.7183C0.385741 13.0418 0.275856 12.3215 0.313031 11.6012C0.350206 10.8809 0.533663 10.1757 0.852222 9.52865C1.17078 8.88156 1.61777 8.30611 2.16594 7.83737C2.71412 7.36864 3.352 7.01644 4.04071 6.80223C4.72942 6.58803 5.45454 6.51631 6.17187 6.59144C6.93076 5.18233 8.13825 4.06683 9.60294 3.42173C11.0676 2.77664 12.7057 2.63886 14.2576 3.03023C15.8095 3.42161 17.1864 4.31975 18.1699 5.5823C19.1535 6.84485 19.6876 8.39957 19.6875 10ZM12.5383 9.33675C12.4512 9.24935 12.3477 9.18 12.2337 9.13269C12.1198 9.08537 11.9976 9.06101 11.8742 9.06101C11.7508 9.06101 11.6287 9.08537 11.5147 9.13269C11.4007 9.18 11.2972 9.24935 11.2102 9.33675L8.71015 11.8368C8.62294 11.924 8.55377 12.0275 8.50657 12.1414C8.45938 12.2554 8.43509 12.3775 8.43509 12.5008C8.43509 12.6241 8.45938 12.7463 8.50657 12.8602C8.55377 12.9741 8.62294 13.0777 8.71015 13.1649C8.79736 13.2521 8.90089 13.3213 9.01483 13.3685C9.12877 13.4156 9.25089 13.4399 9.37421 13.4399C9.49754 13.4399 9.61966 13.4156 9.7336 13.3685C9.84754 13.3213 9.95107 13.2521 10.0383 13.1649L10.9375 12.2657V16.25C10.9375 16.4987 11.0363 16.7371 11.2121 16.9129C11.3879 17.0888 11.6264 17.1875 11.875 17.1875C12.1236 17.1875 12.3621 17.0888 12.5379 16.9129C12.7137 16.7371 12.8125 16.4987 12.8125 16.25V12.2657L13.7117 13.1657C13.8878 13.3418 14.1267 13.4407 14.3758 13.4407C14.6248 13.4407 14.8637 13.3418 15.0398 13.1657C15.216 12.9895 15.3149 12.7507 15.3149 12.5016C15.3149 12.2525 15.216 12.0137 15.0398 11.8375L12.5383 9.33675Z" fill="#191F2E"/>
</svg>
