<svg width="20" height="20" viewBox="0 0 20 20" fill="none" xmlns="http://www.w3.org/2000/svg">
<path d="M14.3749 6.87483C14.314 6.87483 14.2531 6.87483 14.1929 6.87483C14.3874 6.22188 14.4267 5.53253 14.3077 4.86171C14.1887 4.19089 13.9146 3.55713 13.5074 3.01093C13.1002 2.46474 12.571 2.02119 11.9621 1.71564C11.3531 1.41009 10.6812 1.25098 9.99995 1.25098C9.31865 1.25098 8.64677 1.41009 8.03783 1.71564C7.42889 2.02119 6.89973 2.46474 6.4925 3.01093C6.08527 3.55713 5.81124 4.19089 5.69222 4.86171C5.57321 5.53253 5.6125 6.22188 5.80698 6.87483C5.74604 6.87483 5.68589 6.87483 5.62495 6.87483C4.96699 6.87515 4.31758 7.02387 3.72505 7.30991C3.13253 7.59596 2.61215 8.01197 2.20266 8.52696C1.79317 9.04196 1.50511 9.64269 1.35992 10.2844C1.21473 10.9262 1.21616 11.5924 1.36409 12.2335C1.51203 12.8746 1.80266 13.4741 2.21436 13.9873C2.62605 14.5006 3.14821 14.9144 3.74195 15.1979C4.3357 15.4814 4.98574 15.6273 5.64369 15.6248C6.30165 15.6223 6.95056 15.4714 7.54214 15.1834L6.90151 17.3201C6.8735 17.4135 6.86769 17.512 6.88455 17.608C6.90141 17.7039 6.94047 17.7946 6.99861 17.8728C7.05675 17.951 7.13236 18.0145 7.21941 18.0582C7.30645 18.102 7.40252 18.1248 7.49995 18.1248H12.4999C12.5974 18.1248 12.6934 18.102 12.7805 18.0582C12.8675 18.0145 12.9431 17.951 13.0013 17.8728C13.0594 17.7946 13.0985 17.7039 13.1153 17.608C13.1322 17.512 13.1264 17.4135 13.0984 17.3201L12.4578 15.1834C13.0493 15.4714 13.6983 15.6223 14.3562 15.6248C15.0142 15.6273 15.6642 15.4814 16.2579 15.1979C16.8517 14.9144 17.3738 14.5006 17.7855 13.9873C18.1972 13.4741 18.4879 12.8746 18.6358 12.2335C18.7837 11.5924 18.7852 10.9262 18.64 10.2844C18.4948 9.64269 18.2067 9.04196 17.7972 8.52696C17.3877 8.01197 16.8674 7.59596 16.2748 7.30991C15.6823 7.02387 15.0329 6.87515 14.3749 6.87483ZM14.3749 14.3748C13.8576 14.3747 13.3483 14.2462 12.8929 14.0008C12.4375 13.7553 12.0501 13.4007 11.7656 12.9686C11.6827 12.8439 11.5578 12.7531 11.4137 12.7128C11.2695 12.6724 11.1156 12.6851 10.9801 12.7486C10.8445 12.8121 10.7362 12.9221 10.6749 13.0587C10.6136 13.1953 10.6034 13.3493 10.646 13.4928L11.6617 16.8725H8.34136L9.35698 13.4928C9.40234 13.3483 9.3937 13.1923 9.33265 13.0537C9.27161 12.9151 9.16233 12.8034 9.02511 12.7393C8.88789 12.6752 8.73207 12.6631 8.58662 12.7053C8.44117 12.7475 8.31598 12.841 8.23432 12.9686C7.9114 13.4577 7.45744 13.8461 6.92429 14.0895C6.39114 14.3329 5.80029 14.4215 5.2192 14.3451C4.63811 14.2687 4.09022 14.0305 3.63808 13.6576C3.18594 13.2846 2.84778 12.7921 2.66222 12.2362C2.47666 11.6802 2.45118 11.0833 2.58868 10.5136C2.72619 9.94386 3.02114 9.42428 3.43985 9.01419C3.85856 8.6041 4.38416 8.32002 4.95662 8.19439C5.52908 8.06877 6.12534 8.10666 6.67729 8.30374C6.80124 8.34805 6.93601 8.3521 7.0624 8.31531C7.18878 8.27852 7.30032 8.20277 7.38112 8.09885C7.46191 7.99493 7.50784 7.86816 7.51234 7.73661C7.51684 7.60505 7.4797 7.47544 7.4062 7.36624C7.09017 6.89596 6.90795 6.34861 6.87902 5.78274C6.8501 5.21688 6.97557 4.6538 7.242 4.15375C7.50844 3.6537 7.90581 3.2355 8.39161 2.94389C8.87741 2.65227 9.43335 2.49823 9.99995 2.49823C10.5666 2.49823 11.1225 2.65227 11.6083 2.94389C12.0941 3.2355 12.4915 3.6537 12.7579 4.15375C13.0243 4.6538 13.1498 5.21688 13.1209 5.78274C13.092 6.34861 12.9097 6.89596 12.5937 7.36624C12.5202 7.47544 12.4831 7.60505 12.4876 7.73661C12.4921 7.86816 12.538 7.99493 12.6188 8.09885C12.6996 8.20277 12.8111 8.27852 12.9375 8.31531C13.0639 8.3521 13.1987 8.34805 13.3226 8.30374C13.7513 8.1521 14.2079 8.09584 14.6605 8.13888C15.1132 8.18192 15.551 8.32322 15.9434 8.55292C16.3358 8.78262 16.6734 9.09519 16.9325 9.46881C17.1917 9.84244 17.3662 10.2681 17.4438 10.7161C17.5215 11.1641 17.5004 11.6237 17.3822 12.0628C17.2639 12.5018 17.0512 12.9098 16.759 13.2581C16.4668 13.6065 16.1021 13.8869 15.6903 14.0798C15.2785 14.2727 14.8296 14.3733 14.3749 14.3748Z" fill="#191F2E"/>
</svg>
