<svg width="20" height="20" viewBox="0 0 20 20" fill="none" xmlns="http://www.w3.org/2000/svg">
<path d="M14.593 6.56701C14.7319 5.88601 14.7176 5.18265 14.5511 4.50785C14.3847 3.83305 14.0703 3.20371 13.6307 2.6654C13.191 2.12708 12.6372 1.69326 12.0093 1.39534C11.3813 1.09742 10.695 0.942871 10 0.942871C9.30499 0.942871 8.61867 1.09742 7.99074 1.39534C7.36281 1.69326 6.80898 2.12708 6.36936 2.6654C5.92974 3.20371 5.61533 3.83305 5.4489 4.50785C5.28246 5.18265 5.26816 5.88601 5.40704 6.56701C4.74819 6.59892 4.10349 6.76952 3.51509 7.06767C2.92669 7.36581 2.40783 7.78478 1.99245 8.29719C1.57707 8.8096 1.27451 9.4039 1.10456 10.0413C0.934599 10.6786 0.901072 11.3447 1.00617 11.9959C1.11126 12.6471 1.35261 13.2687 1.71444 13.8203C2.07626 14.3718 2.55042 14.8408 3.1059 15.1965C3.66139 15.5522 4.2857 15.7867 4.93802 15.8846C5.59033 15.9825 6.25597 15.9416 6.89141 15.7647L6.57891 17.3162C6.55172 17.4524 6.55511 17.5928 6.58883 17.7275C6.62255 17.8622 6.68576 17.9877 6.77389 18.095C6.86202 18.2022 6.97288 18.2886 7.09845 18.3478C7.22402 18.407 7.36118 18.4376 7.50001 18.4373H12.5C12.6387 18.4373 12.7757 18.4066 12.9011 18.3473C13.0264 18.288 13.1371 18.2016 13.2251 18.0944C13.313 17.9871 13.3761 17.8617 13.4097 17.7271C13.4433 17.5926 13.4467 17.4522 13.4195 17.3162L13.107 15.7647C13.7425 15.9416 14.4081 15.9825 15.0604 15.8846C15.7128 15.7867 16.3371 15.5522 16.8925 15.1965C17.448 14.8408 17.9222 14.3718 18.284 13.8203C18.6458 13.2687 18.8872 12.6471 18.9923 11.9959C19.0974 11.3447 19.0639 10.6786 18.8939 10.0413C18.7239 9.4039 18.4214 8.8096 18.006 8.29719C17.5906 7.78478 17.0718 7.36581 16.4834 7.06767C15.895 6.76952 15.2503 6.59892 14.5914 6.56701H14.593ZM14.375 14.0623C13.6545 14.0634 12.9612 13.787 12.4391 13.2904C12.2945 13.1543 12.1104 13.0675 11.9133 13.0428C11.7163 13.018 11.5164 13.0564 11.3426 13.1525C11.1688 13.2486 11.03 13.3975 10.9463 13.5775C10.8625 13.7576 10.8381 13.9597 10.8766 14.1545L11.3563 16.5623H8.64376L9.12501 14.1545C9.16348 13.9597 9.13907 13.7576 9.05531 13.5775C8.97154 13.3975 8.83275 13.2486 8.65895 13.1525C8.48514 13.0564 8.2853 13.018 8.08824 13.0428C7.89118 13.0675 7.70709 13.1543 7.56251 13.2904C7.19962 13.635 6.75138 13.8765 6.26403 13.99C5.77669 14.1035 5.26788 14.0849 4.79011 13.9362C4.31233 13.7875 3.88288 13.514 3.54606 13.1439C3.20924 12.7739 2.97725 12.3206 2.87402 11.831C2.7708 11.3414 2.80006 10.8331 2.95881 10.3585C3.11756 9.88399 3.40004 9.4604 3.7771 9.13144C4.15417 8.80249 4.61217 8.58009 5.10387 8.48719C5.59556 8.39429 6.10313 8.43425 6.57423 8.60295C6.76017 8.66955 6.9624 8.67573 7.15206 8.62059C7.34171 8.56546 7.50912 8.45183 7.63038 8.29593C7.75164 8.14002 7.82056 7.9498 7.82731 7.75241C7.83406 7.55501 7.7783 7.36053 7.66798 7.1967C7.35347 6.73294 7.18603 6.18516 7.18751 5.62482C7.18751 5.18534 7.29051 4.75196 7.48825 4.35947C7.68598 3.96698 7.97294 3.62628 8.32612 3.36472C8.67929 3.10315 9.08885 2.92799 9.52194 2.85329C9.95504 2.77859 10.3996 2.80642 10.82 2.93456C11.2404 3.06269 11.6249 3.28756 11.9427 3.59113C12.2605 3.8947 12.5027 4.26853 12.65 4.68262C12.7972 5.09671 12.8454 5.53954 12.7906 5.9756C12.7357 6.41165 12.5795 6.8288 12.3344 7.19357C12.2241 7.3574 12.1683 7.55189 12.175 7.74928C12.1818 7.94668 12.2507 8.1369 12.372 8.2928C12.4932 8.44871 12.6606 8.56233 12.8503 8.61747C13.04 8.6726 13.2422 8.66643 13.4281 8.59982C13.8141 8.46261 14.2253 8.41136 14.6331 8.44964C15.041 8.48792 15.4355 8.61482 15.7891 8.82146C16.1428 9.0281 16.4471 9.30949 16.6806 9.64597C16.9142 9.98245 17.0715 10.3659 17.1415 10.7695C17.2114 11.1731 17.1924 11.5871 17.0857 11.9825C16.979 12.378 16.7872 12.7454 16.5237 13.059C16.2602 13.3726 15.9314 13.6249 15.5603 13.7982C15.1891 13.9715 14.7846 14.0616 14.375 14.0623Z" fill="#191F2E"/>
</svg>
