<svg width="20" height="20" viewBox="0 0 20 20" fill="none" xmlns="http://www.w3.org/2000/svg">
<path d="M18.8727 13.375L11.0414 7.5L12.8742 6.125C12.952 6.06686 13.0151 5.99141 13.0587 5.90462C13.1022 5.81783 13.1249 5.72209 13.125 5.625C13.125 4.7962 12.7958 4.00134 12.2097 3.41529C11.6237 2.82924 10.8288 2.5 9.99999 2.5C9.17119 2.5 8.37634 2.82924 7.79029 3.41529C7.20423 4.00134 6.87499 4.7962 6.87499 5.625C6.87499 5.79076 6.94084 5.94973 7.05805 6.06694C7.17526 6.18415 7.33423 6.25 7.49999 6.25C7.66575 6.25 7.82473 6.18415 7.94194 6.06694C8.05915 5.94973 8.12499 5.79076 8.12499 5.625C8.12626 5.15424 8.30456 4.70117 8.62449 4.35582C8.94441 4.01047 9.38254 3.79809 9.85184 3.7609C10.3211 3.7237 10.7872 3.8644 11.1576 4.15504C11.5279 4.44568 11.7754 4.865 11.8508 5.32969L1.12734 13.375C0.917614 13.5323 0.762651 13.7515 0.684368 14.0017C0.606085 14.2519 0.608443 14.5204 0.69111 14.7692C0.773777 15.018 0.932568 15.2344 1.14502 15.388C1.35748 15.5416 1.61284 15.6245 1.87499 15.625H18.125C18.3873 15.625 18.643 15.5425 18.8559 15.3891C19.0687 15.2357 19.2279 15.0192 19.3108 14.7703C19.3938 14.5214 19.3964 14.2527 19.3181 14.0023C19.2399 13.7519 19.0849 13.5324 18.875 13.375H18.8727ZM2.55702 14.375C4.18749 13.3273 6.9914 11.875 9.99999 11.875C13.0086 11.875 15.8125 13.3273 17.443 14.375H2.55702Z" fill="#191F2E"/>
</svg>
