<svg width="20" height="20" viewBox="0 0 20 20" fill="none" xmlns="http://www.w3.org/2000/svg">
<path d="M13.75 7.1875C14.2852 7.18211 14.8107 7.33042 15.2641 7.61484C15.4529 7.73561 15.6708 7.80338 15.8948 7.81103C16.1188 7.81869 16.3408 7.76596 16.5375 7.65836C16.7341 7.55077 16.8982 7.39227 17.0126 7.19947C17.127 7.00667 17.1874 6.78667 17.1875 6.5625V3.75C17.1875 3.3356 17.0229 2.93817 16.7299 2.64515C16.4368 2.35212 16.0394 2.1875 15.625 2.1875H4.375C3.9606 2.1875 3.56317 2.35212 3.27015 2.64515C2.97712 2.93817 2.8125 3.3356 2.8125 3.75V16.25C2.8125 16.6644 2.97712 17.0618 3.27015 17.3549C3.56317 17.6479 3.9606 17.8125 4.375 17.8125H15.625C16.0394 17.8125 16.4368 17.6479 16.7299 17.3549C17.0229 17.0618 17.1875 16.6644 17.1875 16.25V13.4375C17.1873 13.2135 17.127 12.9937 17.0127 12.801C16.8985 12.6083 16.7346 12.4499 16.5382 12.3422C16.3418 12.2346 16.12 12.1817 15.8961 12.1891C15.6723 12.1966 15.4545 12.264 15.2656 12.3844C14.7516 12.7141 14.3367 12.8344 13.7875 12.8125H13.75C13.0041 12.8125 12.2887 12.5162 11.7613 11.9887C11.2338 11.4613 10.9375 10.7459 10.9375 10C10.9375 9.25408 11.2338 8.53871 11.7613 8.01126C12.2887 7.48382 13.0041 7.1875 13.75 7.1875ZM13.7312 14.6875C14.2686 14.714 14.8059 14.6344 15.3125 14.4531V15.9375H4.6875V4.0625H15.3125V5.57031C14.8095 5.39861 14.2815 5.31149 13.75 5.3125C12.5068 5.31001 11.3135 5.80149 10.4327 6.67881C9.55186 7.55613 9.05561 8.74742 9.05312 9.99062C9.05064 11.2338 9.54211 12.4271 10.4194 13.3079C11.2968 14.1888 12.488 14.685 13.7312 14.6875Z" fill="#191F2E"/>
</svg>
