<svg width="20" height="20" viewBox="0 0 20 20" fill="none" xmlns="http://www.w3.org/2000/svg">
<path d="M13.75 6.875C14.3447 6.86968 14.9285 7.03507 15.432 7.35156C15.5737 7.44223 15.7371 7.49314 15.9051 7.49894C16.0732 7.50475 16.2397 7.46524 16.3873 7.38455C16.5348 7.30387 16.658 7.18498 16.7438 7.04035C16.8296 6.89572 16.8749 6.73067 16.875 6.5625V3.75C16.875 3.41848 16.7433 3.10054 16.5089 2.86612C16.2745 2.6317 15.9565 2.5 15.625 2.5H4.375C4.04348 2.5 3.72554 2.6317 3.49112 2.86612C3.2567 3.10054 3.125 3.41848 3.125 3.75V16.25C3.125 16.5815 3.2567 16.8995 3.49112 17.1339C3.72554 17.3683 4.04348 17.5 4.375 17.5H15.625C15.9565 17.5 16.2745 17.3683 16.5089 17.1339C16.7433 16.8995 16.875 16.5815 16.875 16.25V13.4375C16.8748 13.2696 16.8295 13.1049 16.7439 12.9605C16.6582 12.8161 16.5354 12.6974 16.3882 12.6167C16.241 12.536 16.0748 12.4963 15.9071 12.5017C15.7393 12.5072 15.576 12.5576 15.4344 12.6477C14.868 13.0109 14.3867 13.1484 13.775 13.125H13.75C12.9212 13.125 12.1263 12.7958 11.5403 12.2097C10.9542 11.6237 10.625 10.8288 10.625 10C10.625 9.1712 10.9542 8.37634 11.5403 7.79029C12.1263 7.20424 12.9212 6.875 13.75 6.875ZM9.375 10C9.37644 11.1577 9.83612 12.2678 10.6536 13.0876C11.471 13.9074 12.5798 14.3703 13.7375 14.375C14.3906 14.4075 15.041 14.2699 15.625 13.9758V16.25H4.375V3.75H15.625V6.03359C14.9566 5.72337 14.2209 5.58606 13.4855 5.63429C12.7502 5.68251 12.0388 5.91472 11.4166 6.30958C10.7944 6.70445 10.2813 7.24931 9.92462 7.89414C9.56789 8.53897 9.3789 9.26309 9.375 10Z" fill="#191F2E"/>
</svg>
