<svg width="20" height="20" viewBox="0 0 20 20" fill="none" xmlns="http://www.w3.org/2000/svg">
<path d="M17.9602 5.64455C17.846 5.4452 17.6789 5.28134 17.4773 5.17111L10.6 1.40627C10.4162 1.30519 10.2098 1.2522 10 1.2522C9.79022 1.2522 9.58383 1.30519 9.4 1.40627L2.525 5.17033C2.32345 5.28056 2.15635 5.44442 2.04219 5.64377C1.93337 5.83244 1.87573 6.04628 1.875 6.26408V13.736C1.87551 13.9598 1.93609 14.1793 2.05043 14.3717C2.16477 14.5641 2.32866 14.7223 2.525 14.8297L9.4 18.593C9.58369 18.6945 9.79013 18.7477 10 18.7477C10.2099 18.7477 10.4163 18.6945 10.6 18.593L17.475 14.8297C17.6713 14.7223 17.8352 14.5641 17.9496 14.3717C18.0639 14.1793 18.1245 13.9598 18.125 13.736V6.26408C18.1248 6.04675 18.068 5.83322 17.9602 5.64455ZM9.375 17.1571L6.875 15.7883V11.875C6.87475 11.7631 6.84445 11.6533 6.78728 11.5571C6.73012 11.4609 6.64817 11.3819 6.55 11.3281L3.125 9.45315V6.95315L9.375 10.375V17.1571ZM10 9.28752L3.80156 5.89377L6.49531 4.41955L9.69844 6.17346C9.79042 6.22379 9.89359 6.25017 9.99844 6.25017C10.1033 6.25017 10.2065 6.22379 10.2984 6.17346L13.5016 4.41955L16.1953 5.89377L10 9.28752ZM16.875 9.45158L13.45 11.3266C13.3518 11.3803 13.2699 11.4594 13.2127 11.5556C13.1555 11.6518 13.1253 11.7616 13.125 11.8735V15.7867L10.625 17.1555V10.3703L16.875 6.94846V9.45158Z" fill="#191F2E"/>
</svg>
