<svg width="20" height="20" viewBox="0 0 20 20" fill="none" xmlns="http://www.w3.org/2000/svg">
<path d="M4.55782 7.94229L2.05782 5.44229C1.99971 5.38425 1.95361 5.31531 1.92215 5.23944C1.8907 5.16357 1.87451 5.08224 1.87451 5.0001C1.87451 4.91797 1.8907 4.83664 1.92215 4.76077C1.95361 4.68489 1.99971 4.61596 2.05782 4.55792L4.55782 2.05792C4.67509 1.94064 4.83415 1.87476 5 1.87476C5.16586 1.87476 5.32492 1.94064 5.44219 2.05792C5.55947 2.17519 5.62535 2.33425 5.62535 2.5001C5.62535 2.66596 5.55947 2.82502 5.44219 2.94229L3.3836 5.0001L5.44219 7.05792C5.55947 7.17519 5.62535 7.33425 5.62535 7.5001C5.62535 7.66596 5.55947 7.82502 5.44219 7.94229C5.32492 8.05957 5.16586 8.12545 5 8.12545C4.83415 8.12545 4.67509 8.05957 4.55782 7.94229ZM7.68282 7.94229C7.74086 8.0004 7.80979 8.0465 7.88567 8.07795C7.96154 8.10941 8.04287 8.1256 8.125 8.1256C8.20714 8.1256 8.28847 8.10941 8.36434 8.07795C8.44022 8.0465 8.50915 8.0004 8.56719 7.94229L11.0672 5.44229C11.1253 5.38425 11.1714 5.31531 11.2029 5.23944C11.2343 5.16357 11.2505 5.08224 11.2505 5.0001C11.2505 4.91797 11.2343 4.83664 11.2029 4.76077C11.1714 4.68489 11.1253 4.61596 11.0672 4.55792L8.56719 2.05792C8.44992 1.94064 8.29086 1.87476 8.125 1.87476C7.95915 1.87476 7.80009 1.94064 7.68282 2.05792C7.56554 2.17519 7.49966 2.33425 7.49966 2.5001C7.49966 2.66596 7.56554 2.82502 7.68282 2.94229L9.74141 5.0001L7.68282 7.05792C7.62471 7.11596 7.57861 7.18489 7.54715 7.26077C7.5157 7.33664 7.49951 7.41797 7.49951 7.5001C7.49951 7.58224 7.5157 7.66357 7.54715 7.73944C7.57861 7.81531 7.62471 7.88425 7.68282 7.94229ZM15.625 3.1251H13.75C13.5842 3.1251 13.4253 3.19095 13.3081 3.30816C13.1909 3.42537 13.125 3.58434 13.125 3.7501C13.125 3.91586 13.1909 4.07483 13.3081 4.19204C13.4253 4.30926 13.5842 4.3751 13.75 4.3751H15.625V15.6251H4.375V10.6251C4.375 10.4593 4.30916 10.3004 4.19194 10.1832C4.07473 10.066 3.91576 10.0001 3.75 10.0001C3.58424 10.0001 3.42527 10.066 3.30806 10.1832C3.19085 10.3004 3.125 10.4593 3.125 10.6251V15.6251C3.125 15.9566 3.2567 16.2746 3.49112 16.509C3.72554 16.7434 4.04348 16.8751 4.375 16.8751H15.625C15.9565 16.8751 16.2745 16.7434 16.5089 16.509C16.7433 16.2746 16.875 15.9566 16.875 15.6251V4.3751C16.875 4.04358 16.7433 3.72564 16.5089 3.49122C16.2745 3.2568 15.9565 3.1251 15.625 3.1251Z" fill="#191F2E"/>
</svg>
