<svg width="20" height="20" viewBox="0 0 20 20" fill="none" xmlns="http://www.w3.org/2000/svg">
<path d="M5.40006 7.35549L2.22662 10L5.40006 12.6446C5.46494 12.6965 5.5188 12.7608 5.55851 12.8339C5.59822 12.9069 5.62297 12.9871 5.63131 13.0697C5.63965 13.1524 5.63142 13.2359 5.60709 13.3154C5.58277 13.3949 5.54283 13.4687 5.48964 13.5325C5.43644 13.5964 5.37104 13.649 5.29727 13.6873C5.2235 13.7255 5.14283 13.7487 5.06 13.7554C4.97716 13.7621 4.89382 13.7523 4.81485 13.7264C4.73587 13.7005 4.66285 13.6591 4.60006 13.6047L0.850057 10.4797C0.779691 10.4211 0.72308 10.3476 0.684231 10.2647C0.645382 10.1817 0.625244 10.0912 0.625244 9.99963C0.625244 9.90802 0.645382 9.81754 0.684231 9.73458C0.72308 9.65161 0.779691 9.57821 0.850057 9.51955L4.60006 6.39455C4.72749 6.28847 4.89184 6.23734 5.05696 6.25244C5.22208 6.26753 5.37444 6.34759 5.48053 6.47502C5.58661 6.60245 5.63773 6.7668 5.62264 6.93192C5.60755 7.09704 5.52749 7.2494 5.40006 7.35549ZM19.1501 9.51955L15.4001 6.39455C15.337 6.34202 15.2641 6.30244 15.1857 6.27805C15.1073 6.25367 15.0249 6.24496 14.9432 6.25244C14.8614 6.25991 14.7819 6.28341 14.7092 6.3216C14.6366 6.35979 14.5721 6.41192 14.5196 6.47502C14.4135 6.60245 14.3624 6.7668 14.3775 6.93192C14.3926 7.09704 14.4726 7.2494 14.6001 7.35549L17.7735 10L14.6001 12.6446C14.5352 12.6965 14.4813 12.7608 14.4416 12.8339C14.4019 12.9069 14.3771 12.9871 14.3688 13.0697C14.3605 13.1524 14.3687 13.2359 14.393 13.3154C14.4173 13.3949 14.4573 13.4687 14.5105 13.5325C14.5637 13.5964 14.6291 13.649 14.7028 13.6873C14.7766 13.7255 14.8573 13.7487 14.9401 13.7554C15.023 13.7621 15.1063 13.7523 15.1853 13.7264C15.2642 13.7005 15.3373 13.6591 15.4001 13.6047L19.1501 10.4797C19.2204 10.4211 19.277 10.3476 19.3159 10.2647C19.3547 10.1817 19.3749 10.0912 19.3749 9.99963C19.3749 9.90802 19.3547 9.81754 19.3159 9.73458C19.277 9.65161 19.2204 9.57821 19.1501 9.51955ZM12.7133 2.53752C12.6362 2.50951 12.5543 2.49697 12.4723 2.50062C12.3903 2.50426 12.3098 2.52403 12.2354 2.55878C12.1611 2.59353 12.0943 2.64258 12.0389 2.70314C11.9835 2.76371 11.9406 2.83459 11.9126 2.91174L6.91256 16.6617C6.88443 16.7389 6.87179 16.8209 6.87538 16.903C6.87897 16.9851 6.89871 17.0657 6.93346 17.1401C6.96822 17.2146 7.01732 17.2814 7.07794 17.3369C7.13857 17.3923 7.20953 17.4353 7.28677 17.4633C7.35525 17.4876 7.42739 17.5001 7.50006 17.5C7.62841 17.5 7.75365 17.4605 7.85876 17.3868C7.96387 17.3132 8.04376 17.2089 8.08756 17.0883L13.0876 3.3383C13.1156 3.26115 13.1281 3.17924 13.1245 3.09724C13.1208 3.01524 13.1011 2.93477 13.0663 2.86041C13.0316 2.78605 12.9825 2.71926 12.9219 2.66386C12.8614 2.60846 12.7905 2.56553 12.7133 2.53752Z" fill="#191F2E"/>
</svg>
