<svg width="20" height="20" viewBox="0 0 20 20" fill="none" xmlns="http://www.w3.org/2000/svg">
<path d="M18.4211 6.95301L10.2961 2.57801C10.2051 2.52905 10.1033 2.50342 10 2.50342C9.89665 2.50342 9.79492 2.52905 9.70391 2.57801L1.57891 6.95301C1.48001 7.00621 1.39727 7.08507 1.33939 7.1813C1.28152 7.27753 1.25064 7.38758 1.25 7.49988V12.4999C1.24993 12.6128 1.28048 12.7237 1.3384 12.8207C1.39631 12.9177 1.47943 12.9971 1.57891 13.0507L9.70391 17.4257C9.79492 17.4746 9.89665 17.5003 10 17.5003C10.1033 17.5003 10.2051 17.4746 10.2961 17.4257L18.4211 13.0507C18.5206 12.9971 18.6037 12.9177 18.6616 12.8207C18.7195 12.7237 18.7501 12.6128 18.75 12.4999V7.49988C18.7494 7.38758 18.7185 7.27753 18.6606 7.1813C18.6027 7.08507 18.52 7.00621 18.4211 6.95301ZM17.5 11.4538L14.8008 9.99988L17.5 8.54597V11.4538ZM13.482 9.28973L10.625 7.75144V4.17097L16.807 7.49988L13.482 9.28973ZM10 11.1647L7.83594 9.99988L10 8.83504L12.1641 9.99988L10 11.1647ZM9.375 4.17097V7.75144L6.51797 9.28973L3.19297 7.49988L9.375 4.17097ZM2.5 8.54597L5.19922 9.99988L2.5 11.4538V8.54597ZM6.51797 10.71L9.375 12.2483V15.8288L3.19297 12.4999L6.51797 10.71ZM10.625 15.8288V12.2483L13.482 10.71L16.807 12.4999L10.625 15.8288Z" fill="#191F2E"/>
</svg>
