<svg width="20" height="20" viewBox="0 0 20 20" fill="none" xmlns="http://www.w3.org/2000/svg">
<path d="M4.02427 8.16325L1.52427 5.66325C1.43687 5.57615 1.36753 5.47266 1.32021 5.3587C1.27289 5.24475 1.24854 5.12257 1.24854 4.99918C1.24854 4.8758 1.27289 4.75362 1.32021 4.63967C1.36753 4.52571 1.43687 4.42222 1.52427 4.33512L4.02427 1.83512C4.11148 1.74792 4.21501 1.67874 4.32895 1.63155C4.44289 1.58435 4.56501 1.56006 4.68834 1.56006C4.81166 1.56006 4.93378 1.58435 5.04773 1.63155C5.16167 1.67874 5.26519 1.74792 5.3524 1.83512C5.43961 1.92233 5.50878 2.02586 5.55598 2.1398C5.60317 2.25374 5.62746 2.37586 5.62746 2.49918C5.62746 2.62251 5.60317 2.74463 5.55598 2.85857C5.50878 2.97251 5.43961 3.07604 5.3524 3.16325L3.51568 4.99997L5.35084 6.83669C5.52696 7.01281 5.6259 7.25168 5.6259 7.50075C5.6259 7.74982 5.52696 7.98869 5.35084 8.16481C5.17472 8.34093 4.93585 8.43987 4.68677 8.43987C4.4377 8.43987 4.19883 8.34093 4.02271 8.16481L4.02427 8.16325ZM7.77427 8.16325C7.86137 8.25065 7.96487 8.31999 8.07882 8.36731C8.19277 8.41463 8.31495 8.43899 8.43834 8.43899C8.56173 8.43899 8.6839 8.41463 8.79785 8.36731C8.91181 8.31999 9.0153 8.25065 9.1024 8.16325L11.6024 5.66325C11.6898 5.57615 11.7591 5.47266 11.8065 5.3587C11.8538 5.24475 11.8781 5.12257 11.8781 4.99918C11.8781 4.8758 11.8538 4.75362 11.8065 4.63967C11.7591 4.52571 11.6898 4.42222 11.6024 4.33512L9.1024 1.83512C8.92628 1.659 8.68741 1.56006 8.43834 1.56006C8.18927 1.56006 7.9504 1.659 7.77427 1.83512C7.59815 2.01124 7.49921 2.25011 7.49921 2.49918C7.49921 2.74826 7.59815 2.98713 7.77427 3.16325L9.60943 4.99997L7.77427 6.83669C7.68711 6.92375 7.61796 7.02715 7.57078 7.14096C7.5236 7.25477 7.49932 7.37676 7.49932 7.49997C7.49932 7.62317 7.5236 7.74516 7.57078 7.85897C7.61796 7.97278 7.68711 8.07618 7.77427 8.16325ZM15.6251 2.81247H14.0626C13.8139 2.81247 13.5755 2.91124 13.3996 3.08705C13.2238 3.26287 13.1251 3.50133 13.1251 3.74997C13.1251 3.99861 13.2238 4.23706 13.3996 4.41288C13.5755 4.58869 13.8139 4.68747 14.0626 4.68747H15.3126V15.3125H4.68756V10.9375C4.68756 10.6888 4.58878 10.4504 4.41297 10.2746C4.23715 10.0987 3.9987 9.99997 3.75006 9.99997C3.50142 9.99997 3.26296 10.0987 3.08714 10.2746C2.91133 10.4504 2.81256 10.6888 2.81256 10.9375V15.625C2.81256 16.0394 2.97718 16.4368 3.2702 16.7298C3.56323 17.0228 3.96065 17.1875 4.37506 17.1875H15.6251C16.0395 17.1875 16.4369 17.0228 16.7299 16.7298C17.0229 16.4368 17.1876 16.0394 17.1876 15.625V4.37497C17.1876 3.96057 17.0229 3.56314 16.7299 3.27011C16.4369 2.97709 16.0395 2.81247 15.6251 2.81247Z" fill="#191F2E"/>
</svg>
