<svg width="20" height="20" viewBox="0 0 20 20" fill="none" xmlns="http://www.w3.org/2000/svg">
<path d="M15.625 3.125H13.125C13.125 2.79348 12.9933 2.47554 12.7589 2.24112C12.5245 2.0067 12.2065 1.875 11.875 1.875H2.5C2.16848 1.875 1.85054 2.0067 1.61612 2.24112C1.3817 2.47554 1.25 2.79348 1.25 3.125V9.375C1.25 9.70652 1.3817 10.0245 1.61612 10.2589C1.85054 10.4933 2.16848 10.625 2.5 10.625H3.125V15.625C3.125 15.9565 3.2567 16.2745 3.49112 16.5089C3.72554 16.7433 4.04348 16.875 4.375 16.875H15.625C15.9565 16.875 16.2745 16.7433 16.5089 16.5089C16.7433 16.2745 16.875 15.9565 16.875 15.625V4.375C16.875 4.04348 16.7433 3.72554 16.5089 3.49112C16.2745 3.2567 15.9565 3.125 15.625 3.125ZM8.30781 4.81719C8.19054 4.69991 8.12465 4.54085 8.12465 4.375C8.12465 4.20915 8.19054 4.05009 8.30781 3.93281C8.42509 3.81554 8.58415 3.74965 8.75 3.74965C8.91585 3.74965 9.07491 3.81554 9.19219 3.93281L11.0672 5.80781C11.1253 5.86586 11.1714 5.93479 11.2029 6.01066C11.2343 6.08654 11.2505 6.16787 11.2505 6.25C11.2505 6.33213 11.2343 6.41346 11.2029 6.48934C11.1714 6.56521 11.1253 6.63414 11.0672 6.69219L9.19219 8.56719C9.07491 8.68446 8.91585 8.75035 8.75 8.75035C8.58415 8.75035 8.42509 8.68446 8.30781 8.56719C8.19054 8.44991 8.12465 8.29085 8.12465 8.125C8.12465 7.95915 8.19054 7.80009 8.30781 7.68281L9.74141 6.25L8.30781 4.81719ZM3.30781 6.69219C3.2497 6.63414 3.2036 6.56521 3.17215 6.48934C3.1407 6.41346 3.12451 6.33213 3.12451 6.25C3.12451 6.16787 3.1407 6.08654 3.17215 6.01066C3.2036 5.93479 3.2497 5.86586 3.30781 5.80781L5.18281 3.93281C5.30009 3.81554 5.45915 3.74965 5.625 3.74965C5.79085 3.74965 5.94991 3.81554 6.06719 3.93281C6.18446 4.05009 6.25035 4.20915 6.25035 4.375C6.25035 4.54085 6.18446 4.69991 6.06719 4.81719L4.63359 6.25L6.06719 7.68281C6.18446 7.80009 6.25035 7.95915 6.25035 8.125C6.25035 8.29085 6.18446 8.44991 6.06719 8.56719C5.94991 8.68446 5.79085 8.75035 5.625 8.75035C5.45915 8.75035 5.30009 8.68446 5.18281 8.56719L3.30781 6.69219ZM15.625 15.625H4.375V10.625H11.875C12.2065 10.625 12.5245 10.4933 12.7589 10.2589C12.9933 10.0245 13.125 9.70652 13.125 9.375V4.375H15.625V15.625Z" fill="#191F2E"/>
</svg>
