<svg width="20" height="20" viewBox="0 0 20 20" fill="none" xmlns="http://www.w3.org/2000/svg">
<path d="M5.59995 7.59527L2.71402 9.99996L5.59995 12.4046C5.69566 12.4831 5.7749 12.5797 5.83309 12.6889C5.89128 12.7981 5.92727 12.9178 5.93899 13.0409C5.95072 13.1641 5.93794 13.2884 5.90139 13.4066C5.86484 13.5249 5.80525 13.6347 5.72605 13.7298C5.64685 13.8249 5.54961 13.9033 5.43994 13.9606C5.33027 14.0179 5.21033 14.053 5.08706 14.0637C4.96378 14.0745 4.83959 14.0607 4.72166 14.0232C4.60374 13.9857 4.4944 13.9252 4.39995 13.8453L0.649953 10.7203C0.544337 10.6323 0.459361 10.5222 0.401045 10.3977C0.342729 10.2732 0.3125 10.1374 0.3125 9.99996C0.3125 9.8625 0.342729 9.72672 0.401045 9.60224C0.459361 9.47776 0.544337 9.36763 0.649953 9.27965L4.39995 6.15465C4.59126 5.99787 4.83677 5.92304 5.083 5.94647C5.32923 5.9699 5.55623 6.08969 5.71453 6.27973C5.87284 6.46978 5.94962 6.71469 5.92816 6.9611C5.9067 7.20751 5.78873 7.43545 5.59995 7.59527ZM19.35 9.27965L15.6 6.15465C15.5055 6.07469 15.3962 6.01422 15.2782 5.97673C15.1603 5.93924 15.0361 5.92546 14.9129 5.9362C14.7896 5.94693 14.6696 5.98197 14.56 6.03929C14.4503 6.0966 14.3531 6.17506 14.2739 6.27014C14.1947 6.36522 14.1351 6.47504 14.0985 6.59327C14.062 6.71149 14.0492 6.83578 14.0609 6.95897C14.0726 7.08216 14.1086 7.20181 14.1668 7.31102C14.225 7.42023 14.3042 7.51683 14.4 7.59527L17.2859 9.99996L14.4 12.4046C14.3042 12.4831 14.225 12.5797 14.1668 12.6889C14.1086 12.7981 14.0726 12.9178 14.0609 13.0409C14.0492 13.1641 14.062 13.2884 14.0985 13.4066C14.1351 13.5249 14.1947 13.6347 14.2739 13.7298C14.3531 13.8249 14.4503 13.9033 14.56 13.9606C14.6696 14.0179 14.7896 14.053 14.9129 14.0637C15.0361 14.0745 15.1603 14.0607 15.2782 14.0232C15.3962 13.9857 15.5055 13.9252 15.6 13.8453L19.35 10.7203C19.4556 10.6323 19.5405 10.5222 19.5989 10.3977C19.6572 10.2732 19.6874 10.1374 19.6874 9.99996C19.6874 9.8625 19.6572 9.72672 19.5989 9.60224C19.5405 9.47776 19.4556 9.36763 19.35 9.27965ZM12.8203 2.24371C12.7045 2.20162 12.5817 2.18275 12.4586 2.18816C12.3356 2.19358 12.2149 2.22318 12.1033 2.27527C11.9917 2.32736 11.8915 2.40092 11.8083 2.49175C11.7252 2.58258 11.6608 2.68891 11.6187 2.80465L6.6187 16.5546C6.53395 16.7883 6.54543 17.046 6.65061 17.2711C6.7558 17.4963 6.94608 17.6705 7.17964 17.7554C7.28218 17.7933 7.39064 17.8126 7.49995 17.8125C7.69244 17.8125 7.88026 17.7533 8.03792 17.6429C8.19559 17.5324 8.31544 17.3762 8.3812 17.1953L13.3812 3.44527C13.4233 3.32954 13.4422 3.20666 13.4367 3.08364C13.4313 2.96062 13.4017 2.83987 13.3496 2.72829C13.2976 2.61671 13.224 2.51648 13.1332 2.43334C13.0423 2.35019 12.936 2.28575 12.8203 2.24371Z" fill="#191F2E"/>
</svg>
