<svg width="20" height="20" viewBox="0 0 20 20" fill="none" xmlns="http://www.w3.org/2000/svg">
<path d="M17.625 4.89456L10.75 1.1305C10.5202 1.00405 10.2623 0.937744 10 0.937744C9.73775 0.937744 9.47975 1.00405 9.25 1.1305L2.375 4.89378C2.129 5.02838 1.92375 5.22671 1.78079 5.46795C1.63784 5.70919 1.56244 5.98446 1.5625 6.26488V13.7352C1.56244 14.0156 1.63784 14.2909 1.78079 14.5321C1.92375 14.7734 2.129 14.9717 2.375 15.1063L9.25 18.8696C9.47971 18.9962 9.73772 19.0625 10 19.0625C10.2623 19.0625 10.5203 18.9962 10.75 18.8696L17.625 15.1055C17.8709 14.971 18.0761 14.7728 18.219 14.5317C18.362 14.2906 18.4374 14.0155 18.4375 13.7352V6.26488C18.4374 5.98459 18.362 5.70949 18.219 5.46839C18.0761 5.2273 17.8709 5.0291 17.625 4.89456ZM12.8125 11.875V15.6032L10.9375 16.6297V10.5555L16.5625 7.47581V9.26644L13.3 11.0524C13.1524 11.1331 13.0293 11.2521 12.9435 11.3969C12.8577 11.5416 12.8125 11.7068 12.8125 11.875ZM6.7 11.0524L3.4375 9.26644V7.47581L9.0625 10.5555V16.6297L7.1875 15.6032V11.875C7.18754 11.7068 7.1423 11.5416 7.05652 11.3969C6.97075 11.2521 6.8476 11.1331 6.7 11.0524ZM6.49531 4.77581L9.55 6.44769C9.68786 6.52353 9.84265 6.5633 10 6.5633C10.1573 6.5633 10.3121 6.52353 10.45 6.44769L13.5047 4.77581L15.5469 5.89456L10 8.93128L4.45312 5.89456L6.49531 4.77581ZM10 2.85706L11.5523 3.70706L10 4.55706L8.44766 3.70706L10 2.85706ZM3.4375 11.4063L5.3125 12.4328V14.5789L3.4375 13.55V11.4063ZM14.6875 14.5789V12.4305L16.5625 11.4063V13.5524L14.6875 14.5789Z" fill="#191F2E"/>
</svg>
