<svg width="20" height="20" viewBox="0 0 20 20" fill="none" xmlns="http://www.w3.org/2000/svg">
<path d="M7.28977 5.46879L2.18743 10L7.28665 14.5313C7.34821 14.5858 7.39843 14.6518 7.43445 14.7257C7.47048 14.7996 7.49159 14.8799 7.4966 14.9619C7.50161 15.044 7.4904 15.1262 7.46363 15.2039C7.43685 15.2816 7.39503 15.3533 7.34056 15.4149C7.28608 15.4764 7.22001 15.5267 7.14612 15.5627C7.07223 15.5987 6.99197 15.6198 6.90992 15.6248C6.82787 15.6298 6.74564 15.6186 6.66792 15.5919C6.5902 15.5651 6.51852 15.5233 6.45696 15.4688L0.831963 10.4688C0.765458 10.4101 0.712196 10.338 0.675713 10.2572C0.63923 10.1764 0.620361 10.0887 0.620361 10C0.620361 9.91137 0.63923 9.82371 0.675713 9.74289C0.712196 9.66207 0.765458 9.58994 0.831963 9.53129L6.45696 4.53129C6.51852 4.47661 6.59024 4.43458 6.66804 4.40762C6.74584 4.38066 6.82819 4.36928 6.91038 4.37414C6.99257 4.379 7.07301 4.4 7.14708 4.43595C7.22116 4.47189 7.28744 4.52208 7.34212 4.58363C7.3968 4.64519 7.43882 4.71692 7.46579 4.79471C7.49275 4.87251 7.50413 4.95486 7.49927 5.03705C7.49441 5.11925 7.47341 5.19968 7.43746 5.27376C7.40152 5.34784 7.35133 5.41411 7.28977 5.46879ZM19.1648 9.53129L13.5398 4.53129C13.4155 4.42127 13.2525 4.36514 13.0868 4.37525C12.9211 4.38535 12.7662 4.46088 12.6562 4.5852C12.5462 4.70952 12.49 4.87245 12.5001 5.03816C12.5102 5.20386 12.5858 5.35877 12.7101 5.46879L17.8124 10L12.7132 14.5313C12.6517 14.5858 12.6014 14.6518 12.5654 14.7257C12.5294 14.7996 12.5083 14.8799 12.5033 14.9619C12.4983 15.044 12.5095 15.1262 12.5362 15.2039C12.563 15.2816 12.6048 15.3533 12.6593 15.4149C12.7138 15.4764 12.7799 15.5267 12.8537 15.5627C12.9276 15.5987 13.0079 15.6198 13.0899 15.6248C13.172 15.6298 13.2542 15.6186 13.3319 15.5919C13.4097 15.5651 13.4813 15.5233 13.5429 15.4688L19.1679 10.4688C19.2344 10.4101 19.2877 10.338 19.3242 10.2572C19.3606 10.1764 19.3795 10.0887 19.3795 10C19.3795 9.91137 19.3606 9.82371 19.3242 9.74289C19.2877 9.66207 19.2344 9.58994 19.1679 9.53129H19.1648Z" fill="#191F2E"/>
</svg>
