<svg width="20" height="20" viewBox="0 0 20 20" fill="none" xmlns="http://www.w3.org/2000/svg">
<path d="M16.875 3.125H3.125C2.79348 3.125 2.47554 3.2567 2.24112 3.49112C2.0067 3.72554 1.875 4.04348 1.875 4.375V15.625C1.875 15.9565 2.0067 16.2745 2.24112 16.5089C2.47554 16.7433 2.79348 16.875 3.125 16.875H16.875C17.2065 16.875 17.5245 16.7433 17.7589 16.5089C17.9933 16.2745 18.125 15.9565 18.125 15.625V4.375C18.125 4.04348 17.9933 3.72554 17.7589 3.49112C17.5245 3.2567 17.2065 3.125 16.875 3.125ZM7.94219 12.6828C8.00026 12.7409 8.04632 12.8098 8.07775 12.8857C8.10917 12.9616 8.12535 13.0429 8.12535 13.125C8.12535 13.2071 8.10917 13.2884 8.07775 13.3643C8.04632 13.4402 8.00026 13.5091 7.94219 13.5672C7.88412 13.6253 7.81518 13.6713 7.73931 13.7027C7.66344 13.7342 7.58212 13.7503 7.5 13.7503C7.41788 13.7503 7.33656 13.7342 7.26069 13.7027C7.18482 13.6713 7.11588 13.6253 7.05781 13.5672L3.93281 10.4422C3.8747 10.3841 3.8286 10.3152 3.79715 10.2393C3.7657 10.1635 3.74951 10.0821 3.74951 10C3.74951 9.91787 3.7657 9.83654 3.79715 9.76066C3.8286 9.68479 3.8747 9.61586 3.93281 9.55781L7.05781 6.43281C7.17509 6.31554 7.33415 6.24965 7.5 6.24965C7.66585 6.24965 7.82491 6.31554 7.94219 6.43281C8.05946 6.55009 8.12535 6.70915 8.12535 6.875C8.12535 7.04085 8.05946 7.19991 7.94219 7.31719L5.25859 10L7.94219 12.6828ZM16.0672 10.4422L12.9422 13.5672C12.8249 13.6845 12.6659 13.7503 12.5 13.7503C12.3341 13.7503 12.1751 13.6845 12.0578 13.5672C11.9405 13.4499 11.8747 13.2909 11.8747 13.125C11.8747 12.9591 11.9405 12.8001 12.0578 12.6828L14.7414 10L12.0578 7.31719C11.9405 7.19991 11.8747 7.04085 11.8747 6.875C11.8747 6.70915 11.9405 6.55009 12.0578 6.43281C12.1751 6.31554 12.3341 6.24965 12.5 6.24965C12.6659 6.24965 12.8249 6.31554 12.9422 6.43281L16.0672 9.55781C16.1253 9.61586 16.1714 9.68479 16.2029 9.76066C16.2343 9.83654 16.2505 9.91787 16.2505 10C16.2505 10.0821 16.2343 10.1635 16.2029 10.2393C16.1714 10.3152 16.1253 10.3841 16.0672 10.4422Z" fill="#191F2E"/>
</svg>
