<svg width="20" height="20" viewBox="0 0 20 20" fill="none" xmlns="http://www.w3.org/2000/svg">
<path d="M6.25 4.375V1.875C6.25 1.70924 6.31585 1.55027 6.43306 1.43306C6.55027 1.31585 6.70924 1.25 6.875 1.25C7.04076 1.25 7.19973 1.31585 7.31694 1.43306C7.43415 1.55027 7.5 1.70924 7.5 1.875V4.375C7.5 4.54076 7.43415 4.69973 7.31694 4.81694C7.19973 4.93415 7.04076 5 6.875 5C6.70924 5 6.55027 4.93415 6.43306 4.81694C6.31585 4.69973 6.25 4.54076 6.25 4.375ZM9.375 5C9.54076 5 9.69973 4.93415 9.81694 4.81694C9.93415 4.69973 10 4.54076 10 4.375V1.875C10 1.70924 9.93415 1.55027 9.81694 1.43306C9.69973 1.31585 9.54076 1.25 9.375 1.25C9.20924 1.25 9.05027 1.31585 8.93306 1.43306C8.81585 1.55027 8.75 1.70924 8.75 1.875V4.375C8.75 4.54076 8.81585 4.69973 8.93306 4.81694C9.05027 4.93415 9.20924 5 9.375 5ZM11.875 5C12.0408 5 12.1997 4.93415 12.3169 4.81694C12.4342 4.69973 12.5 4.54076 12.5 4.375V1.875C12.5 1.70924 12.4342 1.55027 12.3169 1.43306C12.1997 1.31585 12.0408 1.25 11.875 1.25C11.7092 1.25 11.5503 1.31585 11.4331 1.43306C11.3158 1.55027 11.25 1.70924 11.25 1.875V4.375C11.25 4.54076 11.3158 4.69973 11.4331 4.81694C11.5503 4.93415 11.7092 5 11.875 5ZM19.375 9.375V10C19.3748 10.795 19.0715 11.5599 18.5271 12.1392C17.9827 12.7185 17.2379 13.0685 16.4445 13.118C16.0182 14.3239 15.2924 15.4016 14.3352 16.25H16.25C16.4158 16.25 16.5747 16.3158 16.6919 16.4331C16.8092 16.5503 16.875 16.7092 16.875 16.875C16.875 17.0408 16.8092 17.1997 16.6919 17.3169C16.5747 17.4342 16.4158 17.5 16.25 17.5H2.5C2.33424 17.5 2.17527 17.4342 2.05806 17.3169C1.94085 17.1997 1.875 17.0408 1.875 16.875C1.875 16.7092 1.94085 16.5503 2.05806 16.4331C2.17527 16.3158 2.33424 16.25 2.5 16.25H4.41719C3.61977 15.5455 2.98086 14.6799 2.54264 13.7102C2.10442 12.7406 1.87687 11.6891 1.875 10.625V6.875C1.875 6.70924 1.94085 6.55027 2.05806 6.43306C2.17527 6.31585 2.33424 6.25 2.5 6.25H16.25C17.0788 6.25 17.8737 6.57924 18.4597 7.16529C19.0458 7.75134 19.375 8.5462 19.375 9.375ZM15.625 7.5H3.125V10.625C3.12741 11.7985 3.45904 12.9478 4.08219 13.9422C4.70533 14.9365 5.59499 15.7361 6.65 16.25H12.1C13.155 15.7361 14.0447 14.9365 14.6678 13.9422C15.291 12.9478 15.6226 11.7985 15.625 10.625V7.5ZM18.125 9.375C18.1249 8.98736 18.0046 8.60928 17.7808 8.29281C17.5569 7.97634 17.2405 7.73703 16.875 7.60781V10.625C16.8745 11.0175 16.8432 11.4093 16.7812 11.7969C17.169 11.6823 17.5094 11.4454 17.7516 11.1216C17.9937 10.7978 18.1247 10.4044 18.125 10V9.375Z" fill="#191F2E"/>
</svg>
