<svg width="20" height="20" viewBox="0 0 20 20" fill="none" xmlns="http://www.w3.org/2000/svg">
<path d="M16.357 4.70859C14.6937 3.87656 12.5 3.4375 10 3.4375C7.5 3.4375 5.30625 3.87656 3.64297 4.70859C1.92344 5.56797 0.9375 6.81328 0.9375 8.125V11.875C0.9375 13.1867 1.92344 14.432 3.64297 15.2914C5.30625 16.1234 7.50391 16.5625 10 16.5625C12.4961 16.5625 14.6937 16.1234 16.357 15.2914C18.0758 14.432 19.0625 13.1867 19.0625 11.875V8.125C19.0625 6.81328 18.0766 5.56797 16.357 4.70859ZM4.48203 6.38516C5.86562 5.69375 7.825 5.3125 10 5.3125C12.175 5.3125 14.1344 5.69375 15.518 6.38516C16.5477 6.9 17.1875 7.56719 17.1875 8.125C17.1875 8.68281 16.5477 9.35 15.518 9.86484C14.1344 10.5562 12.175 10.9375 10 10.9375C7.825 10.9375 5.86562 10.5562 4.48203 9.86484C3.45234 9.35 2.8125 8.68281 2.8125 8.125C2.8125 7.56719 3.45234 6.9 4.48203 6.38516ZM14.0625 14.1703C13.0426 14.4511 11.9943 14.6162 10.9375 14.6625V12.7875C11.9906 12.7445 13.037 12.6004 14.0625 12.357V14.1703ZM5.9375 12.3609C6.96296 12.6043 8.00944 12.7484 9.0625 12.7914V14.6664C8.00566 14.6202 6.95739 14.4551 5.9375 14.1742V12.3609ZM2.8125 11.875V11.0578C3.07853 11.2369 3.35594 11.3984 3.64297 11.5414C3.77891 11.6094 3.91953 11.6742 4.0625 11.7367V13.3828C3.28125 12.9094 2.8125 12.3523 2.8125 11.875ZM15.9375 13.3828V11.7367C16.0805 11.6742 16.2211 11.6094 16.357 11.5414C16.6441 11.3984 16.9215 11.2369 17.1875 11.0578V11.875C17.1875 12.3523 16.7188 12.9094 15.9375 13.3828Z" fill="#191F2E"/>
</svg>
