<svg width="20" height="20" viewBox="0 0 20 20" fill="none" xmlns="http://www.w3.org/2000/svg">
<path d="M16.2172 4.9875C14.5977 4.17813 12.4477 3.75 10 3.75C7.55234 3.75 5.40234 4.17813 3.78281 4.9875C2.16328 5.79688 1.25 6.93594 1.25 8.125V11.875C1.25 13.0641 2.17344 14.207 3.78281 15.0125C5.39219 15.818 7.55234 16.25 10 16.25C12.4477 16.25 14.5977 15.8219 16.2172 15.0125C17.8367 14.2031 18.75 13.0641 18.75 11.875V8.125C18.75 6.93594 17.8266 5.79297 16.2172 4.9875ZM9.375 12.4875V14.9875C7.89062 14.9391 6.64062 14.7203 5.625 14.4023V11.957C6.84932 12.2832 8.10826 12.4618 9.375 12.4891V12.4875ZM10.625 12.4875C11.8917 12.4603 13.1507 12.2817 14.375 11.9555V14.4016C13.3594 14.7195 12.1094 14.9383 10.625 14.9867V12.4875ZM2.5 11.875V10.432C2.89332 10.7585 3.32393 11.0373 3.78281 11.2625C3.97266 11.357 4.17344 11.4461 4.375 11.5305V13.9062C3.13828 13.2937 2.5 12.5227 2.5 11.875ZM15.625 13.9062V11.5305C15.8289 11.4461 16.0273 11.357 16.2172 11.2625C16.6761 11.0373 17.1067 10.7585 17.5 10.432V11.875C17.5 12.5227 16.8617 13.2937 15.625 13.9062Z" fill="#191F2E"/>
</svg>
