<svg width="20" height="20" viewBox="0 0 20 20" fill="none" xmlns="http://www.w3.org/2000/svg">
<path d="M15.5086 4.38203C14.5656 2.76562 13.275 1.875 11.875 1.875H8.125C6.725 1.875 5.43438 2.76562 4.49141 4.38203C3.61016 5.89219 3.125 7.89062 3.125 10C3.125 12.1094 3.61016 14.1078 4.49141 15.618C5.43438 17.2344 6.725 18.125 8.125 18.125H11.875C13.275 18.125 14.5656 17.2344 15.5086 15.618C16.3898 14.1078 16.875 12.1094 16.875 10C16.875 7.89062 16.3898 5.89219 15.5086 4.38203ZM15.6086 9.375H13.1086C13.0598 8.09247 12.8044 6.82621 12.3523 5.625H14.7422C15.2203 6.67031 15.5359 7.96875 15.6086 9.375ZM13.9992 4.375H11.7547C11.4936 3.92212 11.1789 3.50242 10.8172 3.125H11.875C12.6562 3.125 13.3906 3.59375 13.9992 4.375ZM4.375 10C4.375 6.27344 6.09375 3.125 8.125 3.125C10.1562 3.125 11.875 6.27344 11.875 10C11.875 13.7266 10.1562 16.875 8.125 16.875C6.09375 16.875 4.375 13.7266 4.375 10ZM11.875 16.875H10.8195C11.1812 16.4976 11.496 16.0779 11.757 15.625H14.0016C13.3906 16.4062 12.6562 16.875 11.875 16.875ZM14.7422 14.375H12.3531C12.8052 13.1738 13.0605 11.9075 13.1094 10.625H15.6094C15.5359 12.0312 15.2203 13.3297 14.7422 14.375Z" fill="#191F2E"/>
</svg>
