<svg width="20" height="20" viewBox="0 0 20 20" fill="none" xmlns="http://www.w3.org/2000/svg">
<path d="M7.8125 2.1875H5C4.5856 2.1875 4.18817 2.35212 3.89515 2.64515C3.60212 2.93817 3.4375 3.3356 3.4375 3.75V16.25C3.4375 16.6644 3.60212 17.0618 3.89515 17.3549C4.18817 17.6479 4.5856 17.8125 5 17.8125H7.8125C8.2269 17.8125 8.62433 17.6479 8.91735 17.3549C9.21038 17.0618 9.375 16.6644 9.375 16.25V3.75C9.375 3.3356 9.21038 2.93817 8.91735 2.64515C8.62433 2.35212 8.2269 2.1875 7.8125 2.1875ZM7.5 15.9375H5.3125V4.0625H7.5V15.9375ZM15 2.1875H12.1875C11.7731 2.1875 11.3757 2.35212 11.0826 2.64515C10.7896 2.93817 10.625 3.3356 10.625 3.75V16.25C10.625 16.6644 10.7896 17.0618 11.0826 17.3549C11.3757 17.6479 11.7731 17.8125 12.1875 17.8125H15C15.4144 17.8125 15.8118 17.6479 16.1049 17.3549C16.3979 17.0618 16.5625 16.6644 16.5625 16.25V3.75C16.5625 3.3356 16.3979 2.93817 16.1049 2.64515C15.8118 2.35212 15.4144 2.1875 15 2.1875ZM14.6875 15.9375H12.5V4.0625H14.6875V15.9375Z" fill="#191F2E"/>
</svg>
