<svg width="20" height="20" viewBox="0 0 20 20" fill="none" xmlns="http://www.w3.org/2000/svg">
<path d="M9.375 3.75V16.25C9.375 16.5815 9.2433 16.8995 9.00888 17.1339C8.77446 17.3683 8.45652 17.5 8.125 17.5H5C4.66848 17.5 4.35054 17.3683 4.11612 17.1339C3.8817 16.8995 3.75 16.5815 3.75 16.25V3.75C3.75 3.41848 3.8817 3.10054 4.11612 2.86612C4.35054 2.6317 4.66848 2.5 5 2.5H8.125C8.45652 2.5 8.77446 2.6317 9.00888 2.86612C9.2433 3.10054 9.375 3.41848 9.375 3.75ZM15 2.5H11.875C11.5435 2.5 11.2255 2.6317 10.9911 2.86612C10.7567 3.10054 10.625 3.41848 10.625 3.75V16.25C10.625 16.5815 10.7567 16.8995 10.9911 17.1339C11.2255 17.3683 11.5435 17.5 11.875 17.5H15C15.3315 17.5 15.6495 17.3683 15.8839 17.1339C16.1183 16.8995 16.25 16.5815 16.25 16.25V3.75C16.25 3.41848 16.1183 3.10054 15.8839 2.86612C15.6495 2.6317 15.3315 2.5 15 2.5Z" fill="#191F2E"/>
</svg>
