<svg width="20" height="20" viewBox="0 0 20 20" fill="none" xmlns="http://www.w3.org/2000/svg">
<path d="M7.8125 6.74844V7.8125H6.74844C6.4676 7.81614 6.19576 7.7135 5.98741 7.52515C5.77907 7.3368 5.64961 7.07666 5.625 6.79688C5.61333 6.64 5.63564 6.48244 5.6904 6.33497C5.74517 6.1875 5.8311 6.05358 5.94234 5.94234C6.05358 5.8311 6.1875 5.74517 6.33497 5.6904C6.48244 5.63564 6.64 5.61333 6.79688 5.625C7.07666 5.64961 7.3368 5.77907 7.52515 5.98741C7.7135 6.19576 7.81614 6.4676 7.8125 6.74844ZM5.625 13.2031C5.61333 13.36 5.63564 13.5176 5.6904 13.665C5.74517 13.8125 5.8311 13.9464 5.94234 14.0577C6.05358 14.1689 6.1875 14.2548 6.33497 14.3096C6.48244 14.3644 6.64 14.3867 6.79688 14.375C7.07611 14.3504 7.3358 14.2214 7.52408 14.0137C7.71235 13.8061 7.81535 13.535 7.8125 13.2547V12.1875H6.74844C6.4676 12.1839 6.19576 12.2865 5.98741 12.4749C5.77907 12.6632 5.64961 12.9233 5.625 13.2031ZM14.375 6.79688C14.3867 6.64 14.3644 6.48244 14.3096 6.33497C14.2548 6.1875 14.1689 6.05358 14.0577 5.94234C13.9464 5.8311 13.8125 5.74517 13.665 5.6904C13.5176 5.63564 13.36 5.61333 13.2031 5.625C12.9239 5.64957 12.6642 5.77859 12.4759 5.98627C12.2876 6.19395 12.1847 6.46501 12.1875 6.74531V7.8125H13.2516C13.5324 7.81614 13.8042 7.7135 14.0126 7.52515C14.2209 7.3368 14.3504 7.07666 14.375 6.79688ZM17.5 5V15C17.5 15.663 17.2366 16.2989 16.7678 16.7678C16.2989 17.2366 15.663 17.5 15 17.5H5C4.33696 17.5 3.70107 17.2366 3.23223 16.7678C2.76339 16.2989 2.5 15.663 2.5 15V5C2.5 4.33696 2.76339 3.70107 3.23223 3.23223C3.70107 2.76339 4.33696 2.5 5 2.5H15C15.663 2.5 16.2989 2.76339 16.7678 3.23223C17.2366 3.70107 17.5 4.33696 17.5 5ZM12.1875 10.9375V9.0625H13.2328C14.5133 9.0625 15.593 8.05625 15.6242 6.77734C15.6323 6.45974 15.5756 6.14381 15.4578 5.84876C15.34 5.55371 15.1634 5.2857 14.9388 5.06101C14.7142 4.83632 14.4462 4.65964 14.1512 4.54171C13.8562 4.42378 13.5403 4.36706 13.2227 4.375C11.9438 4.40703 10.9375 5.48672 10.9375 6.76719V7.8125H9.0625V6.76719C9.0625 5.48672 8.05625 4.40703 6.77734 4.375C6.45967 4.36695 6.14368 4.42359 5.84857 4.54147C5.55347 4.65935 5.28542 4.83601 5.06072 5.06072C4.83601 5.28542 4.65935 5.55347 4.54147 5.84857C4.42359 6.14368 4.36695 6.45967 4.375 6.77734C4.40703 8.05625 5.48672 9.0625 6.76719 9.0625H7.8125V10.9375H6.76719C5.48672 10.9375 4.40703 11.9438 4.375 13.2227C4.36695 13.5403 4.42359 13.8563 4.54147 14.1514C4.65935 14.4465 4.83601 14.7146 5.06072 14.9393C5.28542 15.164 5.55347 15.3406 5.84857 15.4585C6.14368 15.5764 6.45967 15.633 6.77734 15.625C8.05625 15.5938 9.0625 14.5141 9.0625 13.2336V12.1875H10.9375V13.2328C10.9375 14.5133 11.9438 15.593 13.2227 15.6242C13.5403 15.6323 13.8562 15.5756 14.1512 15.4578C14.4463 15.34 14.7143 15.1634 14.939 14.9388C15.1637 14.7142 15.3404 14.4462 15.4583 14.1512C15.5762 13.8562 15.6329 13.5403 15.625 13.2227C15.5938 11.9438 14.5141 10.9375 13.2336 10.9375H12.1875ZM9.0625 10.9375H10.9375V9.0625H9.0625V10.9375ZM12.1875 13.2812C12.1875 13.4976 12.2516 13.709 12.3718 13.8889C12.492 14.0688 12.6628 14.209 12.8627 14.2917C13.0625 14.3745 13.2825 14.3962 13.4946 14.354C13.7068 14.3118 13.9017 14.2076 14.0546 14.0546C14.2076 13.9017 14.3118 13.7068 14.354 13.4946C14.3962 13.2825 14.3745 13.0625 14.2917 12.8627C14.209 12.6628 14.0688 12.492 13.8889 12.3718C13.709 12.2516 13.4976 12.1875 13.2812 12.1875H12.1875V13.2812Z" fill="#191F2E"/>
</svg>
