<svg width="20" height="20" viewBox="0 0 20 20" fill="none" xmlns="http://www.w3.org/2000/svg">
<path d="M17.0843 9.80156C17.142 9.69178 17.1774 9.57164 17.1883 9.4481C17.1993 9.32456 17.1856 9.20007 17.1481 9.08186C17.1106 8.96364 17.05 8.85404 16.9698 8.7594C16.8897 8.66477 16.7915 8.58698 16.6811 8.53055C16.5706 8.47411 16.4501 8.44015 16.3264 8.43063C16.2028 8.42111 16.0785 8.43623 15.9607 8.47509C15.8429 8.51396 15.734 8.57581 15.6403 8.65706C15.5466 8.73832 15.47 8.83735 15.4148 8.94844C14.9202 9.9037 14.1727 10.7047 13.2539 11.2641L12.1992 8.88984C12.6793 8.48933 13.0411 7.96544 13.2456 7.37459C13.4502 6.78373 13.4897 6.14828 13.3599 5.53664C13.2301 4.92501 12.9359 4.36035 12.5091 3.90347C12.0822 3.44658 11.5389 3.11477 10.9375 2.94375V1.875C10.9375 1.62636 10.8387 1.3879 10.6629 1.21209C10.487 1.03627 10.2486 0.9375 9.99995 0.9375C9.75131 0.9375 9.51285 1.03627 9.33704 1.21209C9.16122 1.3879 9.06245 1.62636 9.06245 1.875V2.94375C8.46104 3.11477 7.91766 3.44658 7.49082 3.90347C7.06397 4.36035 6.76982 4.92501 6.64004 5.53664C6.51025 6.14828 6.54975 6.78373 6.75427 7.37459C6.95879 7.96544 7.3206 8.48933 7.80073 8.88984L4.14058 17.1187C4.09018 17.2316 4.06259 17.3533 4.05939 17.4769C4.0562 17.6004 4.07747 17.7234 4.12198 17.8387C4.16649 17.954 4.23336 18.0593 4.31874 18.1487C4.40412 18.2381 4.50633 18.3097 4.61948 18.3594C4.73936 18.412 4.86903 18.4386 4.99995 18.4375C5.18178 18.438 5.35984 18.3856 5.51242 18.2867C5.665 18.1878 5.78553 18.0467 5.85933 17.8805L7.70855 13.7195C8.45093 13.9477 9.22331 14.0633 9.99995 14.0625C10.7776 14.0617 11.5511 13.9481 12.296 13.725L14.1406 17.8805C14.2144 18.0467 14.3349 18.1878 14.4875 18.2867C14.6401 18.3856 14.8181 18.438 15 18.4375C15.1306 18.4385 15.26 18.4119 15.3796 18.3594C15.4929 18.3097 15.5951 18.2382 15.6806 18.1489C15.7661 18.0595 15.833 17.9542 15.8776 17.8389C15.9222 17.7236 15.9435 17.6006 15.9404 17.477C15.9373 17.3534 15.9097 17.2316 15.8593 17.1187L14.0226 12.9859C15.33 12.2433 16.3936 11.1371 17.0843 9.80156ZM9.99995 4.6875C10.309 4.6875 10.6111 4.77914 10.868 4.95083C11.125 5.12252 11.3253 5.36655 11.4435 5.65206C11.5618 5.93757 11.5927 6.25173 11.5324 6.55483C11.4721 6.85792 11.3233 7.13633 11.1048 7.35485C10.8863 7.57337 10.6079 7.72219 10.3048 7.78248C10.0017 7.84277 9.68752 7.81182 9.40201 7.69356C9.1165 7.5753 8.87247 7.37503 8.70078 7.11808C8.52909 6.86113 8.43745 6.55903 8.43745 6.25C8.43745 5.8356 8.60207 5.43817 8.8951 5.14515C9.18812 4.85212 9.58555 4.6875 9.99995 4.6875ZM9.99995 12.1875C9.48519 12.1882 8.97253 12.1217 8.47495 11.9898L9.51401 9.65234C9.83628 9.69922 10.1636 9.69922 10.4859 9.65234L11.5273 11.9961C11.0281 12.1233 10.5151 12.1876 9.99995 12.1875Z" fill="#191F2E"/>
</svg>
