<svg width="20" height="20" viewBox="0 0 20 20" fill="none" xmlns="http://www.w3.org/2000/svg">
<path d="M15 1.875H5C4.66848 1.875 4.35054 2.0067 4.11612 2.24112C3.8817 2.47554 3.75 2.79348 3.75 3.125V16.875C3.75 17.2065 3.8817 17.5245 4.11612 17.7589C4.35054 17.9933 4.66848 18.125 5 18.125H15C15.3315 18.125 15.6495 17.9933 15.8839 17.7589C16.1183 17.5245 16.25 17.2065 16.25 16.875V3.125C16.25 2.79348 16.1183 2.47554 15.8839 2.24112C15.6495 2.0067 15.3315 1.875 15 1.875ZM10 15C9.81458 15 9.63332 14.945 9.47915 14.842C9.32498 14.739 9.20482 14.5926 9.13386 14.4213C9.06291 14.25 9.04434 14.0615 9.08051 13.8796C9.11669 13.6977 9.20598 13.5307 9.33709 13.3996C9.4682 13.2685 9.63525 13.1792 9.8171 13.143C9.99896 13.1068 10.1875 13.1254 10.3588 13.1964C10.5301 13.2673 10.6765 13.3875 10.7795 13.5417C10.8825 13.6958 10.9375 13.8771 10.9375 14.0625C10.9375 14.3111 10.8387 14.5496 10.6629 14.7254C10.4871 14.9012 10.2486 15 10 15ZM12.5 8.75H7.5C7.33424 8.75 7.17527 8.68415 7.05806 8.56694C6.94085 8.44973 6.875 8.29076 6.875 8.125C6.875 7.95924 6.94085 7.80027 7.05806 7.68306C7.17527 7.56585 7.33424 7.5 7.5 7.5H12.5C12.6658 7.5 12.8247 7.56585 12.9419 7.68306C13.0592 7.80027 13.125 7.95924 13.125 8.125C13.125 8.29076 13.0592 8.44973 12.9419 8.56694C12.8247 8.68415 12.6658 8.75 12.5 8.75ZM12.5 6.25H7.5C7.33424 6.25 7.17527 6.18415 7.05806 6.06694C6.94085 5.94973 6.875 5.79076 6.875 5.625C6.875 5.45924 6.94085 5.30027 7.05806 5.18306C7.17527 5.06585 7.33424 5 7.5 5H12.5C12.6658 5 12.8247 5.06585 12.9419 5.18306C13.0592 5.30027 13.125 5.45924 13.125 5.625C13.125 5.79076 13.0592 5.94973 12.9419 6.06694C12.8247 6.18415 12.6658 6.25 12.5 6.25Z" fill="#191F2E"/>
</svg>
