<svg width="20" height="20" viewBox="0 0 20 20" fill="none" xmlns="http://www.w3.org/2000/svg">
<path d="M6.875 5.625C6.875 5.45924 6.94085 5.30027 7.05806 5.18306C7.17527 5.06585 7.33424 5 7.5 5H12.5C12.6658 5 12.8247 5.06585 12.9419 5.18306C13.0592 5.30027 13.125 5.45924 13.125 5.625C13.125 5.79076 13.0592 5.94973 12.9419 6.06694C12.8247 6.18415 12.6658 6.25 12.5 6.25H7.5C7.33424 6.25 7.17527 6.18415 7.05806 6.06694C6.94085 5.94973 6.875 5.79076 6.875 5.625ZM7.5 8.75H12.5C12.6658 8.75 12.8247 8.68415 12.9419 8.56694C13.0592 8.44973 13.125 8.29076 13.125 8.125C13.125 7.95924 13.0592 7.80027 12.9419 7.68306C12.8247 7.56585 12.6658 7.5 12.5 7.5H7.5C7.33424 7.5 7.17527 7.56585 7.05806 7.68306C6.94085 7.80027 6.875 7.95924 6.875 8.125C6.875 8.29076 6.94085 8.44973 7.05806 8.56694C7.17527 8.68415 7.33424 8.75 7.5 8.75ZM16.25 3.125V16.875C16.25 17.2065 16.1183 17.5245 15.8839 17.7589C15.6495 17.9933 15.3315 18.125 15 18.125H5C4.66848 18.125 4.35054 17.9933 4.11612 17.7589C3.8817 17.5245 3.75 17.2065 3.75 16.875V3.125C3.75 2.79348 3.8817 2.47554 4.11612 2.24112C4.35054 2.0067 4.66848 1.875 5 1.875H15C15.3315 1.875 15.6495 2.0067 15.8839 2.24112C16.1183 2.47554 16.25 2.79348 16.25 3.125ZM15 3.125H5V16.875H15V3.125ZM10 13.125C9.81458 13.125 9.63332 13.18 9.47915 13.283C9.32498 13.386 9.20482 13.5324 9.13386 13.7037C9.06291 13.875 9.04434 14.0635 9.08051 14.2454C9.11669 14.4273 9.20598 14.5943 9.33709 14.7254C9.4682 14.8565 9.63525 14.9458 9.8171 14.982C9.99896 15.0182 10.1875 14.9996 10.3588 14.9286C10.5301 14.8577 10.6765 14.7375 10.7795 14.5833C10.8825 14.4292 10.9375 14.2479 10.9375 14.0625C10.9375 13.8139 10.8387 13.5754 10.6629 13.3996C10.4871 13.2238 10.2486 13.125 10 13.125Z" fill="#191F2E"/>
</svg>
