<svg width="20" height="20" viewBox="0 0 20 20" fill="none" xmlns="http://www.w3.org/2000/svg">
<path d="M16.8062 9.65938C16.8465 9.58607 16.8716 9.50543 16.8801 9.42223C16.8887 9.33903 16.8804 9.25497 16.8558 9.17503C16.8313 9.09508 16.7909 9.02088 16.7372 8.95681C16.6834 8.89274 16.6173 8.84011 16.5429 8.80204C16.4684 8.76398 16.3871 8.74124 16.3037 8.73518C16.2202 8.72912 16.1365 8.73987 16.0573 8.76678C15.9781 8.79369 15.9051 8.83622 15.8427 8.89184C15.7802 8.94747 15.7296 9.01507 15.6937 9.09062C15.1159 10.2037 14.215 11.116 13.1093 11.7078L11.814 8.79219C12.3091 8.43869 12.6902 7.9484 12.9107 7.38143C13.1311 6.81447 13.1813 6.19549 13.055 5.60043C12.9288 5.00536 12.6316 4.46008 12.1999 4.03146C11.7683 3.60284 11.2209 3.30953 10.625 3.1875V1.875C10.625 1.70924 10.5591 1.55027 10.4419 1.43306C10.3247 1.31585 10.1657 1.25 9.99997 1.25C9.83421 1.25 9.67524 1.31585 9.55802 1.43306C9.44081 1.55027 9.37497 1.70924 9.37497 1.875V3.1875C8.77902 3.30953 8.23165 3.60284 7.79999 4.03146C7.36833 4.46008 7.07115 5.00536 6.9449 5.60043C6.81865 6.19549 6.86883 6.81447 7.08927 7.38143C7.30972 7.9484 7.69084 8.43869 8.1859 8.79219L4.42887 17.2461C4.39508 17.3212 4.37645 17.4022 4.37405 17.4844C4.37164 17.5667 4.38552 17.6487 4.41489 17.7256C4.44425 17.8025 4.48852 17.8729 4.54514 17.9326C4.60177 17.9924 4.66965 18.0403 4.74487 18.0738C4.82009 18.1072 4.90118 18.1255 4.98348 18.1275C5.06578 18.1295 5.14766 18.1152 5.22443 18.0855C5.3012 18.0558 5.37134 18.0112 5.43083 17.9543C5.49031 17.8974 5.53797 17.8293 5.57106 17.7539L7.53512 13.3352C8.32756 13.6111 9.16087 13.7513 9.99997 13.75C10.8395 13.749 11.6733 13.6116 12.4687 13.343L14.4289 17.7539C14.4967 17.9046 14.6215 18.0223 14.7759 18.0812C14.9302 18.1402 15.1017 18.1356 15.2527 18.0684C15.4037 18.0013 15.522 17.8771 15.5816 17.723C15.6413 17.5689 15.6375 17.3974 15.5711 17.2461L13.6179 12.8516C14.9837 12.1407 16.0971 11.026 16.8062 9.65938ZM9.99997 4.375C10.3708 4.375 10.7333 4.48497 11.0417 4.69099C11.35 4.89702 11.5903 5.18986 11.7322 5.53247C11.8742 5.87508 11.9113 6.25208 11.8389 6.61579C11.7666 6.97951 11.588 7.3136 11.3258 7.57583C11.0636 7.83805 10.7295 8.01663 10.3658 8.08897C10.002 8.16132 9.62505 8.12419 9.28244 7.98227C8.93982 7.84036 8.64699 7.60004 8.44096 7.29169C8.23493 6.98335 8.12497 6.62084 8.12497 6.25C8.12497 5.75272 8.32251 5.27581 8.67414 4.92417C9.02577 4.57254 9.50269 4.375 9.99997 4.375ZM9.99997 12.5C9.33641 12.5008 8.67702 12.3953 8.04684 12.1875L9.32965 9.30156C9.77222 9.39948 10.2308 9.39948 10.6734 9.30156L11.9609 12.1969C11.3266 12.3977 10.6653 12.4999 9.99997 12.5Z" fill="#191F2E"/>
</svg>
