<svg width="20" height="20" viewBox="0 0 20 20" fill="none" xmlns="http://www.w3.org/2000/svg">
<path d="M10 1.5625C8.33122 1.5625 6.69992 2.05735 5.31238 2.98448C3.92484 3.9116 2.84338 5.22936 2.20477 6.77111C1.56616 8.31286 1.39907 10.0094 1.72463 11.6461C2.05019 13.2828 2.85379 14.7862 4.03379 15.9662C5.2138 17.1462 6.71721 17.9498 8.35393 18.2754C9.99064 18.6009 11.6871 18.4338 13.2289 17.7952C14.7706 17.1566 16.0884 16.0752 17.0155 14.6876C17.9427 13.3001 18.4375 11.6688 18.4375 10C18.435 7.763 17.5453 5.61833 15.9635 4.03653C14.3817 2.45473 12.237 1.56498 10 1.5625ZM10 16.5625C8.70206 16.5625 7.43327 16.1776 6.35407 15.4565C5.27488 14.7354 4.43374 13.7105 3.93704 12.5114C3.44034 11.3122 3.31038 9.99272 3.5636 8.71972C3.81682 7.44672 4.44183 6.27739 5.35962 5.35961C6.2774 4.44183 7.44672 3.81681 8.71972 3.5636C9.99272 3.31038 11.3122 3.44034 12.5114 3.93704C13.7105 4.43374 14.7354 5.27487 15.4565 6.35407C16.1776 7.43327 16.5625 8.70206 16.5625 10C16.5606 11.7399 15.8686 13.408 14.6383 14.6383C13.408 15.8686 11.7399 16.5606 10 16.5625ZM12.7555 6.01562L8.38047 7.89062C8.15933 7.98545 7.98311 8.16167 7.88828 8.38281L6.01329 12.7578C5.9408 12.9299 5.92132 13.1196 5.95737 13.3028C5.99341 13.486 6.08332 13.6542 6.21558 13.786C6.34785 13.9178 6.51644 14.007 6.69975 14.0424C6.88307 14.0777 7.07277 14.0575 7.24453 13.9844L11.6195 12.1094C11.8407 12.0146 12.0169 11.8383 12.1117 11.6172L13.9867 7.24219C14.0592 7.07014 14.0787 6.88037 14.0426 6.69719C14.0066 6.51401 13.9167 6.34576 13.7844 6.214C13.6522 6.08224 13.4836 5.99297 13.3003 5.95763C13.1169 5.92229 12.9272 5.94248 12.7555 6.01562ZM10.5359 10.5383L8.66094 11.3422L9.46485 9.46719L11.3398 8.66328L10.5359 10.5383Z" fill="#191F2E"/>
</svg>
