<svg width="20" height="20" viewBox="0 0 20 20" fill="none" xmlns="http://www.w3.org/2000/svg">
<path d="M8.93127 3.89062C8.7476 3.70658 8.52047 3.57184 8.2709 3.49885C8.02134 3.42587 7.7574 3.417 7.5035 3.47308C7.2496 3.52916 7.01395 3.64836 6.81833 3.81966C6.62272 3.99097 6.47348 4.20884 6.3844 4.45312L2.28284 15.7352C2.19805 15.9684 2.17058 16.2187 2.20277 16.4648C2.23495 16.711 2.32583 16.9457 2.46775 17.1494C2.60966 17.353 2.79846 17.5196 3.01822 17.635C3.23799 17.7504 3.48227 17.8113 3.73049 17.8125C3.91281 17.8121 4.09367 17.7799 4.26487 17.7172L15.5469 13.6156C15.7914 13.5269 16.0096 13.3779 16.1812 13.1825C16.3529 12.987 16.4724 12.7514 16.5288 12.4975C16.5852 12.2435 16.5767 11.9795 16.5039 11.7297C16.4311 11.48 16.2965 11.2526 16.1125 11.0687L8.93127 3.89062ZM8.13987 14.3133L5.68674 11.8602L6.47971 9.67969L10.3203 13.5203L8.13987 14.3133ZM4.98205 13.8047L6.19534 15.0203L4.28518 15.7148L4.98205 13.8047ZM12.2656 12.8125L7.18752 7.73438L7.96877 5.57969L14.4196 12.0312L12.2656 12.8125ZM10 3.125V1.25C10 1.00136 10.0988 0.762903 10.2746 0.587087C10.4504 0.411272 10.6889 0.3125 10.9375 0.3125C11.1862 0.3125 11.4246 0.411272 11.6004 0.587087C11.7763 0.762903 11.875 1.00136 11.875 1.25V3.125C11.875 3.37364 11.7763 3.6121 11.6004 3.78791C11.4246 3.96373 11.1862 4.0625 10.9375 4.0625C10.6889 4.0625 10.4504 3.96373 10.2746 3.78791C10.0988 3.6121 10 3.37364 10 3.125ZM19.1 9.64922C19.2761 9.82534 19.3751 10.0642 19.3751 10.3133C19.3751 10.5624 19.2761 10.8012 19.1 10.9773C18.9239 11.1535 18.685 11.2524 18.436 11.2524C18.1869 11.2524 17.948 11.1535 17.7719 10.9773L16.5219 9.72734C16.3458 9.55122 16.2468 9.31235 16.2468 9.06328C16.2468 8.81421 16.3458 8.57534 16.5219 8.39922C16.698 8.2231 16.9369 8.12416 17.186 8.12416C17.435 8.12416 17.6739 8.2231 17.85 8.39922L19.1 9.64922ZM19.0461 6.51406L17.1711 7.13906C16.9352 7.21769 16.6777 7.1994 16.4553 7.08819C16.2329 6.97699 16.0638 6.78199 15.9852 6.54609C15.9065 6.3102 15.9248 6.05272 16.036 5.83032C16.1473 5.60791 16.3422 5.43879 16.5781 5.36016L18.4531 4.73516C18.689 4.65652 18.9465 4.67482 19.1689 4.78603C19.3913 4.89723 19.5605 5.09223 19.6391 5.32812C19.7177 5.56402 19.6994 5.8215 19.5882 6.0439C19.477 6.26631 19.282 6.43543 19.0461 6.51406ZM12.2344 5.15078C12.4867 3.70859 13.5461 2.8125 15 2.8125C15.5039 2.8125 15.6789 2.61797 15.7813 2.42812C15.8723 2.25314 15.9256 2.06096 15.9375 1.86406V1.875C15.9375 1.62636 16.0363 1.3879 16.2121 1.21209C16.3879 1.03627 16.6264 0.9375 16.875 0.9375C17.1237 0.9375 17.3621 1.03627 17.5379 1.21209C17.7138 1.3879 17.8125 1.62636 17.8125 1.875C17.8125 3.00547 17.0633 4.6875 15 4.6875C14.6141 4.6875 14.2024 4.78047 14.0813 5.47344C14.0434 5.69074 13.9301 5.88773 13.7614 6.02976C13.5926 6.1718 13.3792 6.24978 13.1586 6.25C13.1041 6.24991 13.0498 6.2452 12.9961 6.23594C12.7512 6.19304 12.5334 6.05462 12.3905 5.85111C12.2477 5.64761 12.1915 5.39569 12.2344 5.15078Z" fill="#191F2E"/>
</svg>
