<svg width="20" height="20" viewBox="0 0 20 20" fill="none" xmlns="http://www.w3.org/2000/svg">
<path d="M11.9203 5.18359C12.7135 6.66508 13.1286 8.31953 13.1286 10C13.1286 11.6805 12.7135 13.3349 11.9203 14.8164C11.8635 14.927 11.7852 15.0252 11.6901 15.1053C11.5949 15.1853 11.4848 15.2457 11.3661 15.2828C11.2474 15.3199 11.1226 15.333 10.9987 15.3213C10.8749 15.3097 10.7547 15.2736 10.645 15.215C10.5353 15.1564 10.4383 15.0767 10.3598 14.9803C10.2812 14.8839 10.2226 14.7728 10.1874 14.6536C10.1521 14.5343 10.141 14.4092 10.1546 14.2856C10.1681 14.162 10.2061 14.0424 10.2664 13.9336C10.914 12.7236 11.2529 11.3724 11.2529 10C11.2529 8.62759 10.914 7.27641 10.2664 6.06641C10.2038 5.95753 10.1637 5.8372 10.1485 5.71253C10.1333 5.58787 10.1433 5.46143 10.178 5.34071C10.2126 5.21999 10.2711 5.10745 10.35 5.00979C10.429 4.91212 10.5267 4.8313 10.6375 4.77215C10.7483 4.71299 10.8698 4.67669 10.9949 4.66541C11.12 4.65412 11.2461 4.66808 11.3656 4.70646C11.4852 4.74484 11.5959 4.80685 11.691 4.88881C11.7862 4.97077 11.8639 5.07102 11.9195 5.18359H11.9203ZM7.84063 6.04766C7.73166 6.1052 7.63511 6.18366 7.55649 6.27855C7.47787 6.37343 7.41873 6.48289 7.38244 6.60066C7.34616 6.71842 7.33346 6.84219 7.34505 6.96487C7.35664 7.08755 7.39231 7.20674 7.45 7.31563C7.89072 8.14175 8.12125 9.06367 8.12125 10C8.12125 10.9363 7.89072 11.8583 7.45 12.6844C7.38962 12.7932 7.35152 12.913 7.33791 13.0367C7.32431 13.1604 7.33547 13.2856 7.37076 13.405C7.40605 13.5243 7.46475 13.6355 7.54345 13.7319C7.62214 13.8283 7.71925 13.9081 7.8291 13.9666C7.93896 14.0252 8.05937 14.0612 8.18331 14.0727C8.30724 14.0842 8.43222 14.0709 8.55096 14.0335C8.6697 13.9962 8.77981 13.9356 8.87488 13.8553C8.96995 13.7749 9.04807 13.6765 9.10469 13.5656C9.68986 12.4682 9.99594 11.2437 9.99594 10C9.99594 8.75633 9.68986 7.53178 9.10469 6.43437C8.98781 6.21601 8.78926 6.05277 8.55242 5.98032C8.31557 5.90786 8.05968 5.93207 7.84063 6.04766ZM18.4375 10C18.4375 11.6688 17.9427 13.3001 17.0155 14.6876C16.0884 16.0752 14.7706 17.1566 13.2289 17.7952C11.6871 18.4338 9.99064 18.6009 8.35393 18.2754C6.71721 17.9498 5.2138 17.1462 4.03379 15.9662C2.85379 14.7862 2.05019 13.2828 1.72463 11.6461C1.39907 10.0094 1.56616 8.31286 2.20477 6.77111C2.84338 5.22936 3.92484 3.9116 5.31238 2.98448C6.69992 2.05735 8.33122 1.5625 10 1.5625C12.237 1.56498 14.3817 2.45473 15.9635 4.03653C17.5453 5.61833 18.435 7.763 18.4375 10ZM16.5625 10C16.5625 8.70206 16.1776 7.43327 15.4565 6.35407C14.7354 5.27487 13.7105 4.43374 12.5114 3.93704C11.3122 3.44034 9.99272 3.31038 8.71972 3.5636C7.44672 3.81681 6.2774 4.44183 5.35962 5.35961C4.44183 6.27739 3.81682 7.44672 3.5636 8.71972C3.31038 9.99272 3.44034 11.3122 3.93704 12.5114C4.43374 13.7105 5.27488 14.7354 6.35407 15.4565C7.43327 16.1776 8.70206 16.5625 10 16.5625C11.7399 16.5606 13.408 15.8686 14.6383 14.6383C15.8686 13.408 16.5606 11.7399 16.5625 10Z" fill="#191F2E"/>
</svg>
