<svg width="20" height="20" viewBox="0 0 20 20" fill="none" xmlns="http://www.w3.org/2000/svg">
<path d="M10 1.875C8.39303 1.875 6.82214 2.35152 5.48599 3.24431C4.14984 4.1371 3.10844 5.40605 2.49348 6.8907C1.87852 8.37535 1.71761 10.009 2.03112 11.5851C2.34462 13.1612 3.11846 14.6089 4.25476 15.7452C5.39106 16.8815 6.8388 17.6554 8.41489 17.9689C9.99099 18.2824 11.6247 18.1215 13.1093 17.5065C14.594 16.8916 15.8629 15.8502 16.7557 14.514C17.6485 13.1779 18.125 11.607 18.125 10C18.1227 7.84581 17.266 5.78051 15.7427 4.25727C14.2195 2.73403 12.1542 1.87727 10 1.875ZM10 16.875C8.64025 16.875 7.31104 16.4718 6.18045 15.7164C5.04987 14.9609 4.16868 13.8872 3.64833 12.6309C3.12798 11.3747 2.99183 9.99237 3.2571 8.65875C3.52237 7.32513 4.17715 6.10013 5.13864 5.13864C6.10013 4.17716 7.32513 3.52237 8.65875 3.2571C9.99237 2.99183 11.3747 3.12798 12.6309 3.64833C13.8872 4.16868 14.9609 5.04987 15.7164 6.18045C16.4718 7.31104 16.875 8.64025 16.875 10C16.8729 11.8227 16.1479 13.5702 14.8591 14.8591C13.5702 16.1479 11.8227 16.8729 10 16.875ZM7.58359 7.83281C7.9368 8.50059 8.12144 9.24457 8.12144 10C8.12144 10.7554 7.9368 11.4994 7.58359 12.1672C7.54624 12.2415 7.49443 12.3076 7.4312 12.3616C7.36797 12.4156 7.29459 12.4565 7.21537 12.4818C7.13615 12.5071 7.05267 12.5164 6.96983 12.509C6.88699 12.5016 6.80646 12.4778 6.73294 12.4389C6.65943 12.4 6.59441 12.3469 6.54171 12.2825C6.48901 12.2182 6.44967 12.144 6.42601 12.0642C6.40236 11.9845 6.39485 11.9009 6.40393 11.8182C6.41301 11.7355 6.4385 11.6555 6.47891 11.5828C6.74046 11.0962 6.87736 10.5524 6.87736 10C6.87736 9.44758 6.74046 8.90376 6.47891 8.41719C6.40546 8.27109 6.39219 8.10204 6.44195 7.94627C6.4917 7.79051 6.60052 7.66045 6.74506 7.58399C6.8896 7.50753 7.05834 7.49076 7.2151 7.53727C7.37187 7.58379 7.50415 7.68989 7.58359 7.83281ZM11.9586 5.33281C12.7273 6.76921 13.1295 8.37318 13.1295 10.0023C13.1295 11.6315 12.7273 13.2355 11.9586 14.6719C11.8754 14.8085 11.7429 14.908 11.5885 14.9499C11.4341 14.9919 11.2696 14.973 11.1287 14.8972C10.9878 14.8214 10.8813 14.6944 10.8312 14.5425C10.7811 14.3906 10.7912 14.2252 10.8594 14.0805C11.5316 12.8254 11.8833 11.4237 11.8833 10C11.8833 8.57626 11.5316 7.17458 10.8594 5.91953C10.7813 5.77325 10.7645 5.60193 10.8127 5.44325C10.8609 5.28458 10.9701 5.15155 11.1164 5.07344C11.2627 4.99532 11.434 4.97852 11.5927 5.02672C11.7514 5.07492 11.8844 5.18419 11.9625 5.33047L11.9586 5.33281ZM9.77109 6.58281C10.3322 7.635 10.6257 8.80912 10.6257 10.0016C10.6257 11.194 10.3322 12.3681 9.77109 13.4203C9.73335 13.4942 9.68127 13.5598 9.61789 13.6134C9.55451 13.667 9.4811 13.7074 9.40194 13.7322C9.32278 13.7571 9.23946 13.766 9.15684 13.7584C9.07421 13.7507 8.99394 13.7267 8.9207 13.6877C8.84746 13.6487 8.78273 13.5955 8.73026 13.5312C8.6778 13.4669 8.63867 13.3928 8.61514 13.3132C8.59162 13.2336 8.58417 13.1502 8.59324 13.0677C8.60231 12.9852 8.62771 12.9054 8.66797 12.8328C9.13276 11.9615 9.37589 10.9891 9.37589 10.0016C9.37589 9.01401 9.13276 8.04165 8.66797 7.17031C8.62771 7.09775 8.60231 7.0179 8.59324 6.93542C8.58417 6.85294 8.59162 6.76948 8.61514 6.68991C8.63867 6.61034 8.6778 6.53625 8.73026 6.47196C8.78273 6.40767 8.84746 6.35447 8.9207 6.31546C8.99394 6.27646 9.07421 6.25243 9.15684 6.24477C9.23946 6.23712 9.32278 6.24599 9.40194 6.27088C9.4811 6.29576 9.55451 6.33616 9.61789 6.38972C9.68127 6.44328 9.73335 6.50892 9.77109 6.58281Z" fill="#191F2E"/>
</svg>
