<svg width="20" height="20" viewBox="0 0 20 20" fill="none" xmlns="http://www.w3.org/2000/svg">
<path d="M10 1.875C8.39303 1.875 6.82214 2.35152 5.486 3.24431C4.14985 4.1371 3.10844 5.40605 2.49348 6.8907C1.87852 8.37535 1.71762 10.009 2.03112 11.5851C2.34463 13.1612 3.11846 14.6089 4.25476 15.7452C5.39106 16.8815 6.8388 17.6554 8.4149 17.9689C9.99099 18.2824 11.6247 18.1215 13.1093 17.5065C14.594 16.8916 15.8629 15.8502 16.7557 14.514C17.6485 13.1779 18.125 11.607 18.125 10C18.1227 7.84581 17.266 5.78051 15.7427 4.25727C14.2195 2.73403 12.1542 1.87727 10 1.875ZM7.5836 12.1672C7.54624 12.2415 7.49443 12.3076 7.4312 12.3616C7.36797 12.4156 7.2946 12.4565 7.21537 12.4818C7.13615 12.5071 7.05267 12.5164 6.96984 12.509C6.887 12.5016 6.80646 12.4778 6.73295 12.4389C6.65943 12.4 6.59442 12.3469 6.54171 12.2825C6.48901 12.2182 6.44968 12.144 6.42602 12.0642C6.40236 11.9845 6.39485 11.9009 6.40393 11.8182C6.41302 11.7355 6.43851 11.6555 6.47891 11.5828C6.74047 11.0962 6.87737 10.5524 6.87737 10C6.87737 9.44758 6.74047 8.90376 6.47891 8.41719C6.40546 8.27109 6.39219 8.10204 6.44195 7.94627C6.4917 7.79051 6.60052 7.66045 6.74506 7.58399C6.8896 7.50753 7.05835 7.49076 7.21511 7.53727C7.37187 7.58379 7.50416 7.68989 7.5836 7.83281C7.9368 8.50059 8.12144 9.24457 8.12144 10C8.12144 10.7554 7.9368 11.4994 7.5836 12.1672ZM9.7711 13.4172C9.73335 13.4911 9.68127 13.5567 9.61789 13.6103C9.55451 13.6638 9.4811 13.7042 9.40194 13.7291C9.32279 13.754 9.23946 13.7629 9.15684 13.7552C9.07422 13.7476 8.99395 13.7235 8.92071 13.6845C8.84747 13.6455 8.78273 13.5923 8.73027 13.528C8.67781 13.4638 8.63867 13.3897 8.61515 13.3101C8.59162 13.2305 8.58417 13.1471 8.59324 13.0646C8.60231 12.9821 8.62772 12.9022 8.66797 12.8297C9.1323 11.9582 9.37516 10.9859 9.37516 9.99844C9.37516 9.01098 9.1323 8.03867 8.66797 7.16719C8.62772 7.09463 8.60231 7.01478 8.59324 6.9323C8.58417 6.84982 8.59162 6.76636 8.61515 6.68679C8.63867 6.60721 8.67781 6.53312 8.73027 6.46883C8.78273 6.40454 8.84747 6.35134 8.92071 6.31234C8.99395 6.27333 9.07422 6.2493 9.15684 6.24165C9.23946 6.23399 9.32279 6.24287 9.40194 6.26775C9.4811 6.29264 9.55451 6.33304 9.61789 6.38659C9.68127 6.44015 9.73335 6.50579 9.7711 6.57969C10.3323 7.63214 10.6258 8.80657 10.6257 9.99932C10.6256 11.1921 10.3318 12.3664 9.77032 13.4187L9.7711 13.4172ZM11.9586 14.6672C11.8738 14.7994 11.7423 14.8949 11.5902 14.9345C11.4382 14.9742 11.2768 14.9551 11.1382 14.8811C10.9996 14.8072 10.8939 14.6837 10.8423 14.5353C10.7906 14.3869 10.7967 14.2245 10.8594 14.0805C11.5316 12.8254 11.8834 11.4237 11.8834 10C11.8834 8.57626 11.5316 7.17458 10.8594 5.91953C10.7813 5.77325 10.7645 5.60193 10.8127 5.44325C10.8609 5.28458 10.9701 5.15155 11.1164 5.07344C11.2627 4.99532 11.434 4.97852 11.5927 5.02672C11.7514 5.07492 11.8844 5.18419 11.9625 5.33047C12.7306 6.76719 13.1322 8.37132 13.1315 10.0005C13.1308 11.6297 12.7279 13.2335 11.9586 14.6695V14.6672Z" fill="#191F2E"/>
</svg>
