<svg width="20" height="20" viewBox="0 0 20 20" fill="none" xmlns="http://www.w3.org/2000/svg">
<path d="M16.2023 9.61407C16.1551 9.72828 16.075 9.82591 15.9722 9.8946C15.8694 9.9633 15.7486 9.99998 15.625 10H4.375C4.25132 10.0001 4.13039 9.9635 4.02752 9.89483C3.92464 9.82616 3.84446 9.72851 3.79711 9.61425C3.74977 9.49998 3.73739 9.37424 3.76155 9.25294C3.7857 9.13163 3.84531 9.02023 3.93282 8.93282L9.55782 3.30782C9.61586 3.24971 9.68479 3.20361 9.76067 3.17215C9.83654 3.1407 9.91787 3.12451 10 3.12451C10.0821 3.12451 10.1635 3.1407 10.2393 3.17215C10.3152 3.20361 10.3841 3.24971 10.4422 3.30782L16.0672 8.93282C16.1546 9.02027 16.2141 9.13168 16.2381 9.25294C16.2622 9.3742 16.2497 9.49988 16.2023 9.61407Z" fill="#191F2E"/>
</svg>
