<svg width="20" height="20" viewBox="0 0 20 20" fill="none" xmlns="http://www.w3.org/2000/svg">
<path d="M12.8508 12.7742C12.9816 12.9055 13.0705 13.0725 13.1064 13.2543C13.1424 13.436 13.1236 13.6244 13.0525 13.7955C12.9815 13.9666 12.8613 14.1128 12.7072 14.2157C12.5531 14.3186 12.372 14.3735 12.1867 14.3735C12.0014 14.3735 11.8203 14.3186 11.6662 14.2157C11.5121 14.1128 11.3919 13.9666 11.3209 13.7955C11.2498 13.6244 11.2311 13.436 11.267 13.2543C11.3029 13.0725 11.3919 12.9055 11.5227 12.7742C11.6098 12.6868 11.7132 12.6175 11.8272 12.5702C11.9412 12.5228 12.0633 12.4985 12.1867 12.4985C12.3101 12.4985 12.4323 12.5228 12.5462 12.5702C12.6602 12.6175 12.7637 12.6868 12.8508 12.7742ZM6.52266 12.1492C6.39187 12.2805 6.3029 12.4475 6.26699 12.6293C6.23108 12.811 6.24984 12.9994 6.32089 13.1705C6.39195 13.3416 6.51211 13.4878 6.66621 13.5907C6.82031 13.6936 7.00144 13.7485 7.18672 13.7485C7.372 13.7485 7.55313 13.6936 7.70723 13.5907C7.86133 13.4878 7.98149 13.3416 8.05254 13.1705C8.1236 12.9994 8.14235 12.811 8.10644 12.6293C8.07053 12.4475 7.98157 12.2805 7.85078 12.1492C7.76371 12.0621 7.66032 11.9929 7.54651 11.9457C7.4327 11.8985 7.3107 11.8743 7.1875 11.8743C7.0643 11.8743 6.9423 11.8985 6.82849 11.9457C6.71468 11.9929 6.61129 12.0621 6.52422 12.1492H6.52266ZM7.22578 9.10234C7.35657 8.9711 7.44553 8.80405 7.48144 8.62228C7.51735 8.44051 7.4986 8.25218 7.42754 8.08107C7.35649 7.90995 7.23633 7.76372 7.08223 7.66085C6.92813 7.55798 6.747 7.50308 6.56172 7.50308C6.37644 7.50308 6.19531 7.55798 6.04121 7.66085C5.88711 7.76372 5.76695 7.90995 5.69589 8.08107C5.62484 8.25218 5.60608 8.44051 5.64199 8.62228C5.6779 8.80405 5.76687 8.9711 5.89766 9.10234C5.98486 9.18964 6.08843 9.25887 6.20244 9.30605C6.31645 9.35323 6.43865 9.37745 6.56204 9.3773C6.68543 9.37716 6.80758 9.35266 6.92148 9.3052C7.03538 9.25775 7.13879 9.18828 7.22578 9.10078V9.10234ZM10.9758 9.02422C10.8445 8.89343 10.6775 8.80447 10.4957 8.76856C10.314 8.73265 10.1256 8.7514 9.9545 8.82246C9.78339 8.89351 9.63716 9.01367 9.53429 9.16777C9.43142 9.32187 9.37652 9.503 9.37652 9.68828C9.37652 9.87356 9.43142 10.0547 9.53429 10.2088C9.63716 10.3629 9.78339 10.4831 9.9545 10.5541C10.1256 10.6252 10.314 10.6439 10.4957 10.608C10.6775 10.5721 10.8445 10.4831 10.9758 10.3523C11.0632 10.2652 11.1325 10.1618 11.1798 10.0478C11.2272 9.93384 11.2515 9.81167 11.2515 9.68828C11.2515 9.56489 11.2272 9.44272 11.1798 9.32876C11.1325 9.21481 11.0632 9.11132 10.9758 9.02422ZM18.125 10C18.125 11.607 17.6485 13.1779 16.7557 14.514C15.8629 15.8502 14.594 16.8916 13.1093 17.5065C11.6247 18.1215 9.99099 18.2824 8.41489 17.9689C6.8388 17.6554 5.39106 16.8815 4.25476 15.7452C3.11846 14.6089 2.34462 13.1612 2.03112 11.5851C1.71761 10.009 1.87852 8.37535 2.49348 6.8907C3.10844 5.40605 4.14984 4.1371 5.48599 3.24431C6.82214 2.35152 8.39303 1.875 10 1.875C10.1658 1.875 10.3247 1.94085 10.4419 2.05806C10.5592 2.17527 10.625 2.33424 10.625 2.5C10.625 3.3288 10.9542 4.12366 11.5403 4.70971C12.1263 5.29576 12.9212 5.625 13.75 5.625C13.9158 5.625 14.0747 5.69085 14.1919 5.80806C14.3092 5.92527 14.375 6.08424 14.375 6.25C14.375 7.0788 14.7042 7.87366 15.2903 8.45971C15.8763 9.04576 16.6712 9.375 17.5 9.375C17.6658 9.375 17.8247 9.44085 17.9419 9.55806C18.0592 9.67527 18.125 9.83424 18.125 10ZM16.8508 10.5773C15.9147 10.4353 15.0498 9.99408 14.3853 9.3197C13.7207 8.64532 13.2923 7.77398 13.1641 6.83594C12.226 6.70767 11.3547 6.27925 10.6803 5.61473C10.0059 4.95021 9.56472 4.08527 9.42266 3.14922C8.11674 3.25929 6.86948 3.74033 5.82786 4.53566C4.78623 5.33099 3.99362 6.40747 3.54343 7.63827C3.09324 8.86907 3.00422 10.2029 3.28686 11.4826C3.56949 12.7623 4.21201 13.9346 5.13871 14.8613C6.06541 15.788 7.23768 16.4305 8.51739 16.7131C9.79709 16.9958 11.1309 16.9068 12.3617 16.4566C13.5925 16.0064 14.669 15.2138 15.4643 14.1721C16.2597 13.1305 16.7407 11.8833 16.8508 10.5773Z" fill="#191F2E"/>
</svg>
