<svg width="20" height="20" viewBox="0 0 20 20" fill="none" xmlns="http://www.w3.org/2000/svg">
<path d="M13.0711 12.5539C13.246 12.7287 13.3651 12.9514 13.4134 13.1939C13.4617 13.4364 13.437 13.6878 13.3424 13.9162C13.2478 14.1447 13.0876 14.34 12.8821 14.4774C12.6765 14.6147 12.4348 14.6881 12.1875 14.6881C11.9402 14.6881 11.6985 14.6147 11.493 14.4774C11.2874 14.34 11.1272 14.1447 11.0326 13.9162C10.938 13.6878 10.9133 13.4364 10.9616 13.1939C11.0099 12.9514 11.129 12.7287 11.3039 12.5539C11.5383 12.3197 11.8561 12.1881 12.1875 12.1881C12.5189 12.1881 12.8367 12.3197 13.0711 12.5539ZM6.30391 11.9289C6.12901 12.1037 6.00988 12.3264 5.96158 12.5689C5.91328 12.8114 5.93799 13.0628 6.03258 13.2912C6.12716 13.5197 6.28738 13.715 6.49296 13.8524C6.69853 13.9897 6.94024 14.0631 7.1875 14.0631C7.43477 14.0631 7.67647 13.9897 7.88205 13.8524C8.08763 13.715 8.24785 13.5197 8.34243 13.2912C8.43702 13.0628 8.46172 12.8114 8.41342 12.5689C8.36513 12.3264 8.24599 12.1037 8.0711 11.9289C7.8367 11.6947 7.51888 11.5631 7.1875 11.5631C6.85612 11.5631 6.53831 11.6947 6.30391 11.9289ZM7.4461 9.32109C7.62099 9.14631 7.74013 8.92358 7.78842 8.68109C7.83672 8.43859 7.81202 8.18721 7.71743 7.95876C7.62285 7.7303 7.46263 7.53503 7.25705 7.39764C7.05147 7.26025 6.80977 7.18692 6.5625 7.18692C6.31524 7.18692 6.07353 7.26025 5.86796 7.39764C5.66238 7.53503 5.50216 7.7303 5.40758 7.95876C5.31299 8.18721 5.28828 8.43859 5.33658 8.68109C5.38488 8.92358 5.50401 9.14631 5.67891 9.32109C5.91331 9.55534 6.23112 9.68692 6.5625 9.68692C6.89388 9.68692 7.2117 9.55534 7.4461 9.32109ZM11.1961 8.80391C11.0213 8.62901 10.7986 8.50988 10.5561 8.46158C10.3136 8.41328 10.0622 8.43799 9.83376 8.53257C9.6053 8.62716 9.41003 8.78737 9.27264 8.99295C9.13526 9.19853 9.06192 9.44024 9.06192 9.6875C9.06192 9.93476 9.13526 10.1765 9.27264 10.382C9.41003 10.5876 9.6053 10.7478 9.83376 10.8424C10.0622 10.937 10.3136 10.9617 10.5561 10.9134C10.7986 10.8651 11.0213 10.746 11.1961 10.5711C11.4303 10.3367 11.5619 10.0189 11.5619 9.6875C11.5619 9.35612 11.4303 9.0383 11.1961 8.80391ZM18.4375 10C18.4375 11.6688 17.9427 13.3001 17.0155 14.6876C16.0884 16.0752 14.7706 17.1566 13.2289 17.7952C11.6871 18.4338 9.99064 18.6009 8.35393 18.2754C6.71721 17.9498 5.2138 17.1462 4.03379 15.9662C2.85379 14.7862 2.05019 13.2828 1.72463 11.6461C1.39907 10.0094 1.56616 8.31286 2.20477 6.77111C2.84338 5.22936 3.92484 3.9116 5.31238 2.98448C6.69992 2.05735 8.33122 1.5625 10 1.5625C10.2486 1.5625 10.4871 1.66127 10.6629 1.83709C10.8387 2.0129 10.9375 2.25136 10.9375 2.5C10.9375 3.24592 11.2338 3.96129 11.7613 4.48874C12.2887 5.01618 13.0041 5.3125 13.75 5.3125C13.9986 5.3125 14.2371 5.41127 14.4129 5.58709C14.5887 5.7629 14.6875 6.00136 14.6875 6.25C14.6875 6.99592 14.9838 7.71129 15.5113 8.23874C16.0387 8.76618 16.7541 9.0625 17.5 9.0625C17.7486 9.0625 17.9871 9.16127 18.1629 9.33709C18.3387 9.5129 18.4375 9.75136 18.4375 10ZM16.5102 10.832C15.6079 10.6356 14.7835 10.1778 14.1398 9.51578C13.4961 8.85374 13.0616 8.01679 12.8906 7.10938C11.9832 6.93857 11.1461 6.50428 10.484 5.86072C9.82177 5.21717 9.3638 4.39284 9.16719 3.49063C7.9504 3.64663 6.80169 4.14057 5.85142 4.9164C4.90115 5.69224 4.18737 6.71889 3.79107 7.87988C3.39478 9.04086 3.33184 10.2897 3.60939 11.4846C3.88695 12.6796 4.49388 13.7728 5.36133 14.6402C6.22878 15.5077 7.322 16.1146 8.51695 16.3922C9.71189 16.6697 10.9607 16.6068 12.1217 16.2105C13.2827 15.8142 14.3093 15.1004 15.0852 14.1501C15.861 13.1999 16.3549 12.0512 16.5109 10.8344L16.5102 10.832Z" fill="#191F2E"/>
</svg>
