<svg width="20" height="20" viewBox="0 0 20 20" fill="none" xmlns="http://www.w3.org/2000/svg">
<path d="M5.9375 3.125V1.25C5.9375 1.00136 6.03628 0.762903 6.21209 0.587087C6.38791 0.411272 6.62636 0.3125 6.875 0.3125C7.12364 0.3125 7.3621 0.411272 7.53792 0.587087C7.71373 0.762903 7.8125 1.00136 7.8125 1.25V3.125C7.8125 3.37364 7.71373 3.6121 7.53792 3.78791C7.3621 3.96373 7.12364 4.0625 6.875 4.0625C6.62636 4.0625 6.38791 3.96373 6.21209 3.78791C6.03628 3.6121 5.9375 3.37364 5.9375 3.125ZM10 4.0625C10.2486 4.0625 10.4871 3.96373 10.6629 3.78791C10.8387 3.6121 10.9375 3.37364 10.9375 3.125V1.25C10.9375 1.00136 10.8387 0.762903 10.6629 0.587087C10.4871 0.411272 10.2486 0.3125 10 0.3125C9.75136 0.3125 9.51291 0.411272 9.33709 0.587087C9.16128 0.762903 9.0625 1.00136 9.0625 1.25V3.125C9.0625 3.37364 9.16128 3.6121 9.33709 3.78791C9.51291 3.96373 9.75136 4.0625 10 4.0625ZM13.125 4.0625C13.3736 4.0625 13.6121 3.96373 13.7879 3.78791C13.9637 3.6121 14.0625 3.37364 14.0625 3.125V1.25C14.0625 1.00136 13.9637 0.762903 13.7879 0.587087C13.6121 0.411272 13.3736 0.3125 13.125 0.3125C12.8764 0.3125 12.6379 0.411272 12.4621 0.587087C12.2863 0.762903 12.1875 1.00136 12.1875 1.25V3.125C12.1875 3.37364 12.2863 3.6121 12.4621 3.78791C12.6379 3.96373 12.8764 4.0625 13.125 4.0625ZM19.625 8.25L17.5 9.84375V14.375C17.5 15.1209 17.2037 15.8363 16.6762 16.3637C16.1488 16.8912 15.4334 17.1875 14.6875 17.1875H5.3125C4.56658 17.1875 3.85121 16.8912 3.32377 16.3637C2.79632 15.8363 2.5 15.1209 2.5 14.375V9.84375L0.375004 8.25C0.176091 8.10082 0.0445892 7.87872 0.00942618 7.63258C-0.0257369 7.38644 0.0383196 7.13641 0.187504 6.9375C0.336688 6.73859 0.55878 6.60709 0.804921 6.57192C1.05106 6.53676 1.30109 6.60082 1.5 6.75L2.5 7.5V6.875C2.5 6.4606 2.66462 6.06317 2.95765 5.77015C3.25068 5.47712 3.6481 5.3125 4.0625 5.3125H15.9375C16.3519 5.3125 16.7493 5.47712 17.0424 5.77015C17.3354 6.06317 17.5 6.4606 17.5 6.875V7.5L18.5 6.75C18.6989 6.60082 18.9489 6.53676 19.1951 6.57192C19.4412 6.60709 19.6633 6.73859 19.8125 6.9375C19.9617 7.13641 20.0257 7.38644 19.9906 7.63258C19.9554 7.87872 19.8239 8.10082 19.625 8.25ZM15.625 7.1875H4.375V14.375C4.375 14.6236 4.47378 14.8621 4.64959 15.0379C4.82541 15.2137 5.06386 15.3125 5.3125 15.3125H14.6875C14.9361 15.3125 15.1746 15.2137 15.3504 15.0379C15.5262 14.8621 15.625 14.6236 15.625 14.375V7.1875Z" fill="#191F2E"/>
</svg>
