<svg width="20" height="20" viewBox="0 0 20 20" fill="none" xmlns="http://www.w3.org/2000/svg">
<path d="M6.875 3.75V1.25C6.875 1.08424 6.94085 0.925268 7.05806 0.808058C7.17527 0.690848 7.33424 0.625 7.5 0.625C7.66576 0.625 7.82473 0.690848 7.94194 0.808058C8.05915 0.925268 8.125 1.08424 8.125 1.25V3.75C8.125 3.91576 8.05915 4.07473 7.94194 4.19194C7.82473 4.30915 7.66576 4.375 7.5 4.375C7.33424 4.375 7.17527 4.30915 7.05806 4.19194C6.94085 4.07473 6.875 3.91576 6.875 3.75ZM10 4.375C10.1658 4.375 10.3247 4.30915 10.4419 4.19194C10.5592 4.07473 10.625 3.91576 10.625 3.75V1.25C10.625 1.08424 10.5592 0.925268 10.4419 0.808058C10.3247 0.690848 10.1658 0.625 10 0.625C9.83424 0.625 9.67527 0.690848 9.55806 0.808058C9.44085 0.925268 9.375 1.08424 9.375 1.25V3.75C9.375 3.91576 9.44085 4.07473 9.55806 4.19194C9.67527 4.30915 9.83424 4.375 10 4.375ZM12.5 4.375C12.6658 4.375 12.8247 4.30915 12.9419 4.19194C13.0592 4.07473 13.125 3.91576 13.125 3.75V1.25C13.125 1.08424 13.0592 0.925268 12.9419 0.808058C12.8247 0.690848 12.6658 0.625 12.5 0.625C12.3342 0.625 12.1753 0.690848 12.0581 0.808058C11.9409 0.925268 11.875 1.08424 11.875 1.25V3.75C11.875 3.91576 11.9409 4.07473 12.0581 4.19194C12.1753 4.30915 12.3342 4.375 12.5 4.375ZM19.875 7.125C19.7755 6.99239 19.6275 6.90472 19.4634 6.88128C19.2993 6.85784 19.1326 6.90054 19 7L17.5 8.125V6.875C17.5 6.54348 17.3683 6.22554 17.1339 5.99112C16.8995 5.7567 16.5815 5.625 16.25 5.625H3.75C3.41848 5.625 3.10054 5.7567 2.86612 5.99112C2.6317 6.22554 2.5 6.54348 2.5 6.875V8.125L1 7C0.867394 6.90054 0.700709 6.85784 0.536614 6.88128C0.37252 6.90472 0.224459 6.99239 0.125003 7.125C0.0255464 7.25761 -0.0171579 7.42429 0.00628412 7.58839C0.0297262 7.75248 0.117394 7.90054 0.250003 8L2.5 9.6875V14.375C2.5 15.038 2.76339 15.6739 3.23224 16.1428C3.70108 16.6116 4.33696 16.875 5 16.875H15C15.663 16.875 16.2989 16.6116 16.7678 16.1428C17.2366 15.6739 17.5 15.038 17.5 14.375V9.6875L19.75 8C19.8157 7.95075 19.871 7.88906 19.9128 7.81843C19.9546 7.74781 19.9821 7.66964 19.9937 7.58839C20.0053 7.50714 20.0008 7.4244 19.9804 7.34489C19.9601 7.26538 19.9242 7.19066 19.875 7.125Z" fill="#191F2E"/>
</svg>
