<svg width="20" height="20" viewBox="0 0 20 20" fill="none" xmlns="http://www.w3.org/2000/svg">
<path d="M10 4.375C8.88748 4.375 7.79995 4.7049 6.87492 5.32298C5.94989 5.94107 5.22892 6.81957 4.80318 7.84741C4.37744 8.87524 4.26604 10.0062 4.48309 11.0974C4.70013 12.1885 5.23586 13.1908 6.02253 13.9775C6.8092 14.7641 7.81148 15.2999 8.90262 15.5169C9.99376 15.734 11.1248 15.6226 12.1526 15.1968C13.1804 14.7711 14.0589 14.0501 14.677 13.1251C15.2951 12.2001 15.625 11.1125 15.625 10C15.6233 8.50867 15.0302 7.07889 13.9757 6.02435C12.9211 4.96982 11.4913 4.37665 10 4.375ZM10 12.5C10.3885 12.5013 10.7718 12.4116 11.1193 12.2379C11.4668 12.0642 11.7687 11.8115 12.0008 11.5C12.0495 11.4329 12.1111 11.3762 12.182 11.3332C12.2529 11.2902 12.3316 11.2617 12.4136 11.2494C12.4956 11.2371 12.5792 11.2413 12.6596 11.2616C12.7399 11.2819 12.8155 11.318 12.8818 11.3678C12.948 11.4176 13.0038 11.4801 13.0456 11.5517C13.0875 11.6232 13.1148 11.7024 13.1258 11.7845C13.1368 11.8667 13.1313 11.9503 13.1097 12.0303C13.0882 12.1103 13.0508 12.1853 13 12.2508C12.5276 12.8801 11.8692 13.3449 11.118 13.5794C10.3668 13.8138 9.56084 13.8059 8.81433 13.5569C8.06783 13.3079 7.41858 12.8304 6.95851 12.192C6.49844 11.5535 6.25088 10.7865 6.25088 9.99961C6.25088 9.21268 6.49844 8.44568 6.95851 7.80724C7.41858 7.1688 8.06783 6.69128 8.81433 6.44228C9.56084 6.19328 10.3668 6.18544 11.118 6.41986C11.8692 6.65427 12.5276 7.11907 13 7.74844C13.0508 7.81392 13.0882 7.88887 13.1097 7.96892C13.1313 8.04896 13.1368 8.1325 13.1258 8.21468C13.1148 8.29685 13.0875 8.37601 13.0456 8.44755C13.0038 8.51909 12.948 8.58159 12.8818 8.63139C12.8155 8.68119 12.7399 8.71731 12.6596 8.73764C12.5792 8.75797 12.4956 8.7621 12.4136 8.7498C12.3316 8.7375 12.2529 8.70901 12.182 8.66599C12.1111 8.62297 12.0495 8.56628 12.0008 8.49922C11.745 8.15848 11.4064 7.88877 11.0171 7.71566C10.6279 7.54256 10.2008 7.47181 9.77647 7.51014C9.35215 7.54846 8.94467 7.69459 8.5927 7.93465C8.24073 8.17472 7.95595 8.50074 7.76539 8.88179C7.57483 9.26284 7.48481 9.68627 7.50388 10.1119C7.52294 10.5375 7.65046 10.9512 7.87433 11.3137C8.0982 11.6761 8.411 11.9754 8.78302 12.183C9.15505 12.3907 9.57396 12.4998 10 12.5ZM10 1.875C8.39303 1.875 6.82214 2.35152 5.486 3.24431C4.14985 4.1371 3.10844 5.40605 2.49348 6.8907C1.87852 8.37535 1.71762 10.009 2.03112 11.5851C2.34463 13.1612 3.11846 14.6089 4.25476 15.7452C5.39106 16.8815 6.8388 17.6554 8.4149 17.9689C9.99099 18.2824 11.6247 18.1215 13.1093 17.5065C14.594 16.8916 15.8629 15.8502 16.7557 14.514C17.6485 13.1779 18.125 11.607 18.125 10C18.1227 7.84581 17.266 5.78051 15.7427 4.25727C14.2195 2.73403 12.1542 1.87727 10 1.875ZM10 16.875C8.64026 16.875 7.31105 16.4718 6.18046 15.7164C5.04987 14.9609 4.16868 13.8872 3.64833 12.6309C3.12798 11.3747 2.99183 9.99237 3.2571 8.65875C3.52238 7.32513 4.17716 6.10013 5.13864 5.13864C6.10013 4.17716 7.32514 3.52237 8.65876 3.2571C9.99238 2.99183 11.3747 3.12798 12.631 3.64833C13.8872 4.16868 14.9609 5.04987 15.7164 6.18045C16.4718 7.31104 16.875 8.64025 16.875 10C16.8729 11.8227 16.1479 13.5702 14.8591 14.8591C13.5702 16.1479 11.8227 16.8729 10 16.875Z" fill="#191F2E"/>
</svg>
