<svg width="20" height="20" viewBox="0 0 20 20" fill="none" xmlns="http://www.w3.org/2000/svg">
<path d="M10 1.5625C8.33122 1.5625 6.69992 2.05735 5.31238 2.98448C3.92484 3.9116 2.84338 5.22936 2.20477 6.77111C1.56616 8.31286 1.39907 10.0094 1.72463 11.6461C2.05019 13.2828 2.85379 14.7862 4.03379 15.9662C5.2138 17.1462 6.71721 17.9498 8.35393 18.2754C9.99064 18.6009 11.6871 18.4338 13.2289 17.7952C14.7706 17.1566 16.0884 16.0752 17.0155 14.6876C17.9427 13.3001 18.4375 11.6688 18.4375 10C18.435 7.763 17.5453 5.61833 15.9635 4.03653C14.3817 2.45473 12.237 1.56498 10 1.5625ZM10 16.5625C8.70206 16.5625 7.43327 16.1776 6.35407 15.4565C5.27488 14.7354 4.43374 13.7105 3.93704 12.5114C3.44034 11.3122 3.31038 9.99272 3.5636 8.71972C3.81682 7.44672 4.44183 6.27739 5.35962 5.35961C6.2774 4.44183 7.44672 3.81681 8.71972 3.5636C9.99272 3.31038 11.3122 3.44034 12.5114 3.93704C13.7105 4.43374 14.7354 5.27487 15.4565 6.35407C16.1776 7.43327 16.5625 8.70206 16.5625 10C16.5606 11.7399 15.8686 13.408 14.6383 14.6383C13.408 15.8686 11.7399 16.5606 10 16.5625ZM14.0625 10C14.0624 10.8525 13.7942 11.6834 13.2958 12.375C12.7973 13.0666 12.0939 13.5839 11.2852 13.8536C10.4764 14.1233 9.60336 14.1317 8.78957 13.8777C7.97577 13.6237 7.26251 13.1201 6.75078 12.4383C6.67261 12.3402 6.61489 12.2275 6.58105 12.1068C6.5472 11.986 6.53793 11.8597 6.55376 11.7354C6.5696 11.611 6.61023 11.491 6.67324 11.3826C6.73626 11.2742 6.82038 11.1796 6.92063 11.1042C7.02088 11.0289 7.13522 10.9745 7.25689 10.9441C7.37855 10.9138 7.50506 10.9082 7.62894 10.9276C7.75282 10.947 7.87154 10.9911 7.97809 11.0572C8.08463 11.1233 8.17683 11.2101 8.24922 11.3125C8.52469 11.6798 8.90875 11.9511 9.34698 12.088C9.78522 12.2249 10.2554 12.2204 10.691 12.0752C11.1265 11.9301 11.5054 11.6515 11.7738 11.2791C12.0423 10.9066 12.1867 10.4591 12.1867 10C12.1867 9.54088 12.0423 9.0934 11.7738 8.72095C11.5054 8.34849 11.1265 8.06994 10.691 7.92476C10.2554 7.77957 9.78522 7.77511 9.34698 7.912C8.90875 8.0489 8.52469 8.32021 8.24922 8.6875C8.17683 8.78988 8.08463 8.8767 7.97809 8.94282C7.87154 9.00893 7.75282 9.05301 7.62894 9.07242C7.50506 9.09184 7.37855 9.08621 7.25689 9.05587C7.13522 9.02553 7.02088 8.97108 6.92063 8.89577C6.82038 8.82045 6.73626 8.72578 6.67324 8.61738C6.61023 8.50897 6.5696 8.38903 6.55376 8.26464C6.53793 8.14025 6.5472 8.01395 6.58105 7.89321C6.61489 7.77248 6.67261 7.65975 6.75078 7.56172C7.26251 6.87987 7.97577 6.37629 8.78957 6.12228C9.60336 5.86827 10.4764 5.87671 11.2852 6.1464C12.0939 6.41609 12.7973 6.93337 13.2958 7.62498C13.7942 8.31659 14.0624 9.14749 14.0625 10Z" fill="#191F2E"/>
</svg>
