<svg width="20" height="20" viewBox="0 0 20 20" fill="none" xmlns="http://www.w3.org/2000/svg">
<path d="M10 1.875C8.39303 1.875 6.82214 2.35152 5.486 3.24431C4.14985 4.1371 3.10844 5.40605 2.49348 6.8907C1.87852 8.37535 1.71762 10.009 2.03112 11.5851C2.34463 13.1612 3.11846 14.6089 4.25476 15.7452C5.39106 16.8815 6.8388 17.6554 8.4149 17.9689C9.99099 18.2824 11.6247 18.1215 13.1093 17.5065C14.594 16.8916 15.8629 15.8502 16.7557 14.514C17.6485 13.1779 18.125 11.607 18.125 10C18.1227 7.84581 17.266 5.78051 15.7427 4.25727C14.2195 2.73403 12.1542 1.87727 10 1.875ZM10 16.875C8.64026 16.875 7.31105 16.4718 6.18046 15.7164C5.04987 14.9609 4.16868 13.8872 3.64833 12.6309C3.12798 11.3747 2.99183 9.99237 3.2571 8.65875C3.52238 7.32513 4.17716 6.10013 5.13864 5.13864C6.10013 4.17716 7.32514 3.52237 8.65876 3.2571C9.99238 2.99183 11.3747 3.12798 12.631 3.64833C13.8872 4.16868 14.9609 5.04987 15.7164 6.18045C16.4718 7.31104 16.875 8.64025 16.875 10C16.8729 11.8227 16.1479 13.5702 14.8591 14.8591C13.5702 16.1479 11.8227 16.8729 10 16.875ZM13.75 10C13.7502 10.7871 13.5026 11.5543 13.0425 12.193C12.5824 12.8316 11.9329 13.3092 11.1862 13.5582C10.4395 13.8072 9.6334 13.8149 8.88206 13.5803C8.13073 13.3456 7.47228 12.8805 7 12.2508C6.90044 12.1182 6.85764 11.9514 6.88101 11.7873C6.90438 11.6231 6.992 11.4749 7.12461 11.3754C7.25722 11.2758 7.42395 11.233 7.58812 11.2564C7.75228 11.2798 7.90044 11.3674 8 11.5C8.31483 11.9198 8.75375 12.2298 9.25458 12.3863C9.75542 12.5427 10.2928 12.5376 10.7906 12.3717C11.2884 12.2058 11.7213 11.8874 12.0281 11.4618C12.3349 11.0361 12.5 10.5247 12.5 10C12.5 9.47529 12.3349 8.96389 12.0281 8.53822C11.7213 8.11256 11.2884 7.79422 10.7906 7.62829C10.2928 7.46237 9.75542 7.45727 9.25458 7.61372C8.75375 7.77017 8.31483 8.08024 8 8.5C7.90044 8.63261 7.75228 8.72023 7.58812 8.7436C7.42395 8.76697 7.25722 8.72417 7.12461 8.62461C6.992 8.52505 6.90438 8.37689 6.88101 8.21272C6.85764 8.04855 6.90044 7.88183 7 7.74922C7.47228 7.11952 8.13073 6.65439 8.88206 6.41973C9.6334 6.18508 10.4395 6.19279 11.1862 6.44178C11.9329 6.69077 12.5824 7.16841 13.0425 7.80703C13.5026 8.44565 13.7502 9.21287 13.75 10Z" fill="#191F2E"/>
</svg>
