<svg width="20" height="20" viewBox="0 0 20 20" fill="none" xmlns="http://www.w3.org/2000/svg">
<path d="M10 1.5625C8.33122 1.5625 6.69992 2.05735 5.31238 2.98448C3.92484 3.9116 2.84338 5.22936 2.20477 6.77111C1.56616 8.31286 1.39907 10.0094 1.72463 11.6461C2.05019 13.2828 2.85379 14.7862 4.03379 15.9662C5.2138 17.1462 6.71721 17.9498 8.35393 18.2754C9.99064 18.6009 11.6871 18.4338 13.2289 17.7952C14.7706 17.1566 16.0884 16.0752 17.0155 14.6876C17.9427 13.3001 18.4375 11.6688 18.4375 10C18.435 7.763 17.5453 5.61833 15.9635 4.03653C14.3817 2.45473 12.237 1.56498 10 1.5625ZM10 16.5625C8.70206 16.5625 7.43327 16.1776 6.35407 15.4565C5.27488 14.7354 4.43374 13.7105 3.93704 12.5114C3.44034 11.3122 3.31038 9.99272 3.5636 8.71972C3.81682 7.44672 4.44183 6.27739 5.35962 5.35961C6.2774 4.44183 7.44672 3.81681 8.71972 3.5636C9.99272 3.31038 11.3122 3.44034 12.5114 3.93704C13.7105 4.43374 14.7354 5.27487 15.4565 6.35407C16.1776 7.43327 16.5625 8.70206 16.5625 10C16.5606 11.7399 15.8686 13.408 14.6383 14.6383C13.408 15.8686 11.7399 16.5606 10 16.5625ZM13.2492 12.4383C12.7375 13.1201 12.0242 13.6237 11.2104 13.8776C10.3965 14.1316 9.52346 14.1231 8.71473 13.8534C7.90601 13.5837 7.20263 13.0663 6.70422 12.3747C6.2058 11.6831 5.9376 10.8521 5.9376 9.99961C5.9376 9.14709 6.2058 8.31617 6.70422 7.62452C7.20263 6.93287 7.90601 6.41555 8.71473 6.14582C9.52346 5.87608 10.3965 5.8676 11.2104 6.12157C12.0242 6.37555 12.7375 6.8791 13.2492 7.56094C13.3259 7.65911 13.3822 7.77157 13.4149 7.89176C13.4476 8.01194 13.456 8.13743 13.4397 8.26091C13.4233 8.38438 13.3825 8.50336 13.3197 8.6109C13.2568 8.71843 13.1732 8.81237 13.0736 8.88721C12.9741 8.96206 12.8606 9.01632 12.7399 9.04682C12.6191 9.07733 12.4935 9.08346 12.3703 9.06487C12.2472 9.04627 12.1289 9.00333 12.0226 8.93853C11.9162 8.87374 11.8238 8.7884 11.7508 8.6875C11.4753 8.32021 11.0913 8.0489 10.653 7.912C10.2148 7.77511 9.74459 7.77957 9.30904 7.92476C8.87348 8.06994 8.49464 8.34849 8.22619 8.72095C7.95774 9.0934 7.81328 9.54088 7.81328 10C7.81328 10.4591 7.95774 10.9066 8.22619 11.2791C8.49464 11.6515 8.87348 11.9301 9.30904 12.0752C9.74459 12.2204 10.2148 12.2249 10.653 12.088C11.0913 11.9511 11.4753 11.6798 11.7508 11.3125C11.8232 11.2101 11.9154 11.1233 12.0219 11.0572C12.1285 10.9911 12.2472 10.947 12.3711 10.9276C12.4949 10.9082 12.6215 10.9138 12.7431 10.9441C12.8648 10.9745 12.9791 11.0289 13.0794 11.1042C13.1796 11.1796 13.2637 11.2742 13.3268 11.3826C13.3898 11.491 13.4304 11.611 13.4462 11.7354C13.4621 11.8597 13.4528 11.986 13.419 12.1068C13.3851 12.2275 13.3274 12.3402 13.2492 12.4383Z" fill="#191F2E"/>
</svg>
