<svg width="20" height="20" viewBox="0 0 20 20" fill="none" xmlns="http://www.w3.org/2000/svg">
<path d="M10 4.375C8.88748 4.375 7.79995 4.7049 6.87492 5.32298C5.94989 5.94107 5.22892 6.81957 4.80318 7.84741C4.37744 8.87524 4.26604 10.0062 4.48309 11.0974C4.70013 12.1885 5.23586 13.1908 6.02253 13.9775C6.8092 14.7641 7.81148 15.2999 8.90262 15.5169C9.99376 15.734 11.1248 15.6226 12.1526 15.1968C13.1804 14.7711 14.0589 14.0501 14.677 13.1251C15.2951 12.2001 15.625 11.1125 15.625 10C15.6233 8.50867 15.0302 7.07889 13.9757 6.02435C12.9211 4.96982 11.4913 4.37665 10 4.375ZM10 13.75C9.41754 13.7522 8.84268 13.6177 8.32165 13.3573C7.80062 13.0969 7.34794 12.7179 7 12.2508C6.90044 12.1182 6.85764 11.9514 6.88101 11.7873C6.90438 11.6231 6.992 11.4749 7.12461 11.3754C7.25722 11.2758 7.42395 11.233 7.58812 11.2564C7.75228 11.2798 7.90044 11.3674 8 11.5C8.31483 11.9198 8.75375 12.2298 9.25458 12.3863C9.75542 12.5427 10.2928 12.5376 10.7906 12.3717C11.2884 12.2058 11.7213 11.8874 12.0281 11.4618C12.3349 11.0361 12.5 10.5247 12.5 10C12.5 9.47529 12.3349 8.96389 12.0281 8.53822C11.7213 8.11256 11.2884 7.79422 10.7906 7.62829C10.2928 7.46237 9.75542 7.45727 9.25458 7.61372C8.75375 7.77017 8.31483 8.08024 8 8.5C7.90044 8.63261 7.75228 8.72023 7.58812 8.7436C7.42395 8.76697 7.25722 8.72417 7.12461 8.62461C6.992 8.52505 6.90438 8.37689 6.88101 8.21272C6.85764 8.04855 6.90044 7.88183 7 7.74922C7.38362 7.238 7.89154 6.83332 8.47554 6.57359C9.05953 6.31386 9.70022 6.20771 10.3368 6.26521C10.9733 6.3227 11.5846 6.54195 12.1126 6.90212C12.6406 7.26229 13.0678 7.75144 13.3536 8.32312C13.6394 8.89481 13.7744 9.53006 13.7456 10.1686C13.7169 10.8071 13.5255 11.4276 13.1895 11.9713C12.8535 12.515 12.3841 12.9638 11.8259 13.2751C11.2677 13.5864 10.6391 13.7499 10 13.75ZM10 1.875C8.39303 1.875 6.82214 2.35152 5.486 3.24431C4.14985 4.1371 3.10844 5.40605 2.49348 6.8907C1.87852 8.37535 1.71762 10.009 2.03112 11.5851C2.34463 13.1612 3.11846 14.6089 4.25476 15.7452C5.39106 16.8815 6.8388 17.6554 8.4149 17.9689C9.99099 18.2824 11.6247 18.1215 13.1093 17.5065C14.594 16.8916 15.8629 15.8502 16.7557 14.514C17.6485 13.1779 18.125 11.607 18.125 10C18.125 7.84512 17.269 5.77849 15.7452 4.25476C14.2215 2.73102 12.1549 1.875 10 1.875ZM10 16.875C8.64026 16.875 7.31105 16.4718 6.18046 15.7164C5.04987 14.9609 4.16868 13.8872 3.64833 12.6309C3.12798 11.3747 2.99183 9.99237 3.2571 8.65875C3.52238 7.32513 4.17716 6.10013 5.13864 5.13864C6.10013 4.17716 7.32514 3.52237 8.65876 3.2571C9.99238 2.99183 11.3747 3.12798 12.631 3.64833C13.8872 4.16868 14.9609 5.04987 15.7164 6.18045C16.4718 7.31104 16.875 8.64025 16.875 10C16.8729 11.8227 16.1479 13.5702 14.8591 14.8591C13.5702 16.1479 11.8227 16.8729 10 16.875Z" fill="#191F2E"/>
</svg>
