<svg width="20" height="20" viewBox="0 0 20 20" fill="none" xmlns="http://www.w3.org/2000/svg">
<path d="M18.75 8.29453V5.625C18.75 5.29348 18.6183 4.97554 18.3839 4.74112C18.1495 4.5067 17.8315 4.375 17.5 4.375H2.5C2.16848 4.375 1.85054 4.5067 1.61612 4.74112C1.3817 4.97554 1.25 5.29348 1.25 5.625V8.29453C1.06028 8.40407 0.902676 8.56154 0.792983 8.75117C0.683291 8.9408 0.625362 9.15593 0.625 9.375V13.125C0.625 13.4565 0.756696 13.7745 0.991117 14.0089C1.22554 14.2433 1.54348 14.375 1.875 14.375H2.5V15.625C2.5 15.7908 2.56585 15.9497 2.68306 16.0669C2.80027 16.1842 2.95924 16.25 3.125 16.25C3.29076 16.25 3.44973 16.1842 3.56694 16.0669C3.68415 15.9497 3.75 15.7908 3.75 15.625V14.375H16.25V15.625C16.25 15.7908 16.3158 15.9497 16.4331 16.0669C16.5503 16.1842 16.7092 16.25 16.875 16.25C17.0408 16.25 17.1997 16.1842 17.3169 16.0669C17.4342 15.9497 17.5 15.7908 17.5 15.625V14.375H18.125C18.4565 14.375 18.7745 14.2433 19.0089 14.0089C19.2433 13.7745 19.375 13.4565 19.375 13.125V9.375C19.3746 9.15593 19.3167 8.9408 19.207 8.75117C19.0973 8.56154 18.9397 8.40407 18.75 8.29453ZM17.5 8.125H16.875C16.5435 8.125 16.2255 8.2567 15.9911 8.49112C15.7567 8.72554 15.625 9.04348 15.625 9.375V10.625H10.625V5.625H17.5V8.125ZM9.375 5.625V10.625H4.375V9.375C4.375 9.04348 4.2433 8.72554 4.00888 8.49112C3.77446 8.2567 3.45652 8.125 3.125 8.125H2.5V5.625H9.375ZM18.125 13.125H1.875V9.375H3.125V10.625C3.125 10.9565 3.2567 11.2745 3.49112 11.5089C3.72554 11.7433 4.04348 11.875 4.375 11.875H15.625C15.9565 11.875 16.2745 11.7433 16.5089 11.5089C16.7433 11.2745 16.875 10.9565 16.875 10.625V9.375H18.125V13.125Z" fill="#191F2E"/>
</svg>
