<svg width="20" height="20" viewBox="0 0 20 20" fill="none" xmlns="http://www.w3.org/2000/svg">
<path d="M11.875 7.5H8.125C7.95924 7.5 7.80027 7.56585 7.68306 7.68306C7.56585 7.80027 7.5 7.95924 7.5 8.125V11.875C7.5 12.0408 7.56585 12.1997 7.68306 12.3169C7.80027 12.4342 7.95924 12.5 8.125 12.5H11.875C12.0408 12.5 12.1997 12.4342 12.3169 12.3169C12.4342 12.1997 12.5 12.0408 12.5 11.875V8.125C12.5 7.95924 12.4342 7.80027 12.3169 7.68306C12.1997 7.56585 12.0408 7.5 11.875 7.5ZM11.25 11.25H8.75V8.75H11.25V11.25ZM18.125 11.25H16.875V8.75H18.125C18.2908 8.75 18.4497 8.68415 18.5669 8.56694C18.6842 8.44973 18.75 8.29076 18.75 8.125C18.75 7.95924 18.6842 7.80027 18.5669 7.68306C18.4497 7.56585 18.2908 7.5 18.125 7.5H16.875V4.375C16.875 4.04348 16.7433 3.72554 16.5089 3.49112C16.2745 3.2567 15.9565 3.125 15.625 3.125H12.5V1.875C12.5 1.70924 12.4342 1.55027 12.3169 1.43306C12.1997 1.31585 12.0408 1.25 11.875 1.25C11.7092 1.25 11.5503 1.31585 11.4331 1.43306C11.3158 1.55027 11.25 1.70924 11.25 1.875V3.125H8.75V1.875C8.75 1.70924 8.68415 1.55027 8.56694 1.43306C8.44973 1.31585 8.29076 1.25 8.125 1.25C7.95924 1.25 7.80027 1.31585 7.68306 1.43306C7.56585 1.55027 7.5 1.70924 7.5 1.875V3.125H4.375C4.04348 3.125 3.72554 3.2567 3.49112 3.49112C3.2567 3.72554 3.125 4.04348 3.125 4.375V7.5H1.875C1.70924 7.5 1.55027 7.56585 1.43306 7.68306C1.31585 7.80027 1.25 7.95924 1.25 8.125C1.25 8.29076 1.31585 8.44973 1.43306 8.56694C1.55027 8.68415 1.70924 8.75 1.875 8.75H3.125V11.25H1.875C1.70924 11.25 1.55027 11.3158 1.43306 11.4331C1.31585 11.5503 1.25 11.7092 1.25 11.875C1.25 12.0408 1.31585 12.1997 1.43306 12.3169C1.55027 12.4342 1.70924 12.5 1.875 12.5H3.125V15.625C3.125 15.9565 3.2567 16.2745 3.49112 16.5089C3.72554 16.7433 4.04348 16.875 4.375 16.875H7.5V18.125C7.5 18.2908 7.56585 18.4497 7.68306 18.5669C7.80027 18.6842 7.95924 18.75 8.125 18.75C8.29076 18.75 8.44973 18.6842 8.56694 18.5669C8.68415 18.4497 8.75 18.2908 8.75 18.125V16.875H11.25V18.125C11.25 18.2908 11.3158 18.4497 11.4331 18.5669C11.5503 18.6842 11.7092 18.75 11.875 18.75C12.0408 18.75 12.1997 18.6842 12.3169 18.5669C12.4342 18.4497 12.5 18.2908 12.5 18.125V16.875H15.625C15.9565 16.875 16.2745 16.7433 16.5089 16.5089C16.7433 16.2745 16.875 15.9565 16.875 15.625V12.5H18.125C18.2908 12.5 18.4497 12.4342 18.5669 12.3169C18.6842 12.1997 18.75 12.0408 18.75 11.875C18.75 11.7092 18.6842 11.5503 18.5669 11.4331C18.4497 11.3158 18.2908 11.25 18.125 11.25ZM15.625 15.625H4.375V4.375H15.625V11.8648C15.625 11.8648 15.625 11.8719 15.625 11.875C15.625 11.8781 15.625 11.882 15.625 11.8852V15.625Z" fill="#191F2E"/>
</svg>
