<svg width="20" height="20" viewBox="0 0 20 20" fill="none" xmlns="http://www.w3.org/2000/svg">
<path d="M13.75 10.625H15.5891C15.4456 11.8921 14.8765 13.0731 13.9748 13.9748C13.0731 14.8765 11.8921 15.4456 10.625 15.5891V13.75C10.625 13.5842 10.5592 13.4253 10.4419 13.3081C10.3247 13.1908 10.1658 13.125 10 13.125C9.83424 13.125 9.67527 13.1908 9.55806 13.3081C9.44085 13.4253 9.375 13.5842 9.375 13.75V15.5891C8.10789 15.4456 6.92693 14.8765 6.02522 13.9748C5.12351 13.0731 4.5544 11.8921 4.41094 10.625H6.25C6.41576 10.625 6.57474 10.5592 6.69195 10.4419C6.80916 10.3247 6.875 10.1658 6.875 10C6.875 9.83424 6.80916 9.67527 6.69195 9.55806C6.57474 9.44085 6.41576 9.375 6.25 9.375H4.41094C4.5544 8.10788 5.12351 6.92693 6.02522 6.02522C6.92693 5.12351 8.10789 4.5544 9.375 4.41094V6.25C9.375 6.41576 9.44085 6.57473 9.55806 6.69194C9.67527 6.80915 9.83424 6.875 10 6.875C10.1658 6.875 10.3247 6.80915 10.4419 6.69194C10.5592 6.57473 10.625 6.41576 10.625 6.25V4.41094C11.8921 4.5544 13.0731 5.12351 13.9748 6.02522C14.8765 6.92693 15.4456 8.10788 15.5891 9.375H13.75C13.5842 9.375 13.4253 9.44085 13.3081 9.55806C13.1909 9.67527 13.125 9.83424 13.125 10C13.125 10.1658 13.1909 10.3247 13.3081 10.4419C13.4253 10.5592 13.5842 10.625 13.75 10.625ZM18.125 10C18.125 11.607 17.6485 13.1779 16.7557 14.514C15.8629 15.8502 14.594 16.8916 13.1093 17.5065C11.6247 18.1215 9.99099 18.2824 8.4149 17.9689C6.8388 17.6554 5.39106 16.8815 4.25476 15.7452C3.11846 14.6089 2.34463 13.1612 2.03112 11.5851C1.71762 10.009 1.87852 8.37535 2.49348 6.8907C3.10844 5.40605 4.14985 4.1371 5.486 3.24431C6.82214 2.35152 8.39303 1.875 10 1.875C12.1542 1.87727 14.2195 2.73403 15.7427 4.25727C17.266 5.78051 18.1227 7.84581 18.125 10ZM16.875 10C16.875 8.64025 16.4718 7.31104 15.7164 6.18045C14.9609 5.04987 13.8872 4.16868 12.631 3.64833C11.3747 3.12798 9.99238 2.99183 8.65876 3.2571C7.32514 3.52237 6.10013 4.17716 5.13864 5.13864C4.17716 6.10013 3.52238 7.32513 3.2571 8.65875C2.99183 9.99237 3.12798 11.3747 3.64833 12.6309C4.16868 13.8872 5.04987 14.9609 6.18046 15.7164C7.31105 16.4718 8.64026 16.875 10 16.875C11.8227 16.8729 13.5702 16.1479 14.8591 14.8591C16.1479 13.5702 16.8729 11.8227 16.875 10Z" fill="#191F2E"/>
</svg>
