<svg width="20" height="20" viewBox="0 0 20 20" fill="none" xmlns="http://www.w3.org/2000/svg">
<path d="M10 1.875C8.39303 1.875 6.82214 2.35152 5.486 3.24431C4.14985 4.1371 3.10844 5.40605 2.49348 6.8907C1.87852 8.37535 1.71762 10.009 2.03112 11.5851C2.34463 13.1612 3.11846 14.6089 4.25476 15.7452C5.39106 16.8815 6.8388 17.6554 8.4149 17.9689C9.99099 18.2824 11.6247 18.1215 13.1093 17.5065C14.594 16.8916 15.8629 15.8502 16.7557 14.514C17.6485 13.1779 18.125 11.607 18.125 10C18.1227 7.84581 17.266 5.78051 15.7427 4.25727C14.2195 2.73403 12.1542 1.87727 10 1.875ZM10.625 16.8461V14.375C10.625 14.2092 10.5592 14.0503 10.4419 13.9331C10.3247 13.8158 10.1658 13.75 10 13.75C9.83424 13.75 9.67527 13.8158 9.55806 13.9331C9.44085 14.0503 9.375 14.2092 9.375 14.375V16.8461C7.77509 16.698 6.27736 15.995 5.1412 14.8588C4.00505 13.7226 3.30204 12.2249 3.15391 10.625H5.625C5.79076 10.625 5.94974 10.5592 6.06695 10.4419C6.18416 10.3247 6.25 10.1658 6.25 10C6.25 9.83424 6.18416 9.67527 6.06695 9.55806C5.94974 9.44085 5.79076 9.375 5.625 9.375H3.15391C3.30204 7.77508 4.00505 6.27735 5.1412 5.1412C6.27736 4.00505 7.77509 3.30203 9.375 3.15391V5.625C9.375 5.79076 9.44085 5.94973 9.55806 6.06694C9.67527 6.18415 9.83424 6.25 10 6.25C10.1658 6.25 10.3247 6.18415 10.4419 6.06694C10.5592 5.94973 10.625 5.79076 10.625 5.625V3.15391C12.2249 3.30203 13.7227 4.00505 14.8588 5.1412C15.995 6.27735 16.698 7.77508 16.8461 9.375H14.375C14.2092 9.375 14.0503 9.44085 13.9331 9.55806C13.8159 9.67527 13.75 9.83424 13.75 10C13.75 10.1658 13.8159 10.3247 13.9331 10.4419C14.0503 10.5592 14.2092 10.625 14.375 10.625H16.8461C16.698 12.2249 15.995 13.7226 14.8588 14.8588C13.7227 15.995 12.2249 16.698 10.625 16.8461Z" fill="#191F2E"/>
</svg>
