<svg width="20" height="20" viewBox="0 0 20 20" fill="none" xmlns="http://www.w3.org/2000/svg">
<path d="M16.875 7.1875V9.0625C16.875 9.39402 16.7433 9.71196 16.5089 9.94638C16.2745 10.1808 15.9565 10.3125 15.625 10.3125H12.1875V17.5C12.1875 17.8315 12.0558 18.1495 11.8214 18.3839C11.587 18.6183 11.269 18.75 10.9375 18.75H9.0625C8.73098 18.75 8.41304 18.6183 8.17862 18.3839C7.9442 18.1495 7.8125 17.8315 7.8125 17.5V10.3125H4.375C4.04348 10.3125 3.72554 10.1808 3.49112 9.94638C3.2567 9.71196 3.125 9.39402 3.125 9.0625V7.1875C3.125 6.85598 3.2567 6.53804 3.49112 6.30362C3.72554 6.0692 4.04348 5.9375 4.375 5.9375H7.8125V2.5C7.8125 2.16848 7.9442 1.85054 8.17862 1.61612C8.41304 1.3817 8.73098 1.25 9.0625 1.25H10.9375C11.269 1.25 11.587 1.3817 11.8214 1.61612C12.0558 1.85054 12.1875 2.16848 12.1875 2.5V5.9375H15.625C15.9565 5.9375 16.2745 6.0692 16.5089 6.30362C16.7433 6.53804 16.875 6.85598 16.875 7.1875Z" fill="#191F2E"/>
</svg>
