<svg width="20" height="20" viewBox="0 0 20 20" fill="none" xmlns="http://www.w3.org/2000/svg">
<path d="M10 1.5625C8.33122 1.5625 6.69992 2.05735 5.31238 2.98448C3.92484 3.9116 2.84338 5.22936 2.20477 6.77111C1.56616 8.31286 1.39907 10.0094 1.72463 11.6461C2.05019 13.2828 2.85379 14.7862 4.03379 15.9662C5.2138 17.1462 6.71721 17.9498 8.35393 18.2754C9.99064 18.6009 11.6871 18.4338 13.2289 17.7952C14.7706 17.1566 16.0884 16.0752 17.0155 14.6876C17.9427 13.3001 18.4375 11.6688 18.4375 10C18.435 7.763 17.5453 5.61833 15.9635 4.03653C14.3817 2.45473 12.237 1.56498 10 1.5625ZM10.9375 16.4945V14.375C10.9375 14.1264 10.8387 13.8879 10.6629 13.7121C10.4871 13.5363 10.2486 13.4375 10 13.4375C9.75136 13.4375 9.51291 13.5363 9.33709 13.7121C9.16128 13.8879 9.0625 14.1264 9.0625 14.375V16.4945C7.66145 16.2899 6.36386 15.6386 5.36266 14.6373C4.36145 13.6361 3.71011 12.3385 3.50547 10.9375H5.625C5.87364 10.9375 6.1121 10.8387 6.28792 10.6629C6.46373 10.4871 6.5625 10.2486 6.5625 10C6.5625 9.75136 6.46373 9.5129 6.28792 9.33709C6.1121 9.16127 5.87364 9.0625 5.625 9.0625H3.50547C3.71011 7.66145 4.36145 6.36386 5.36266 5.36265C6.36386 4.36145 7.66145 3.71011 9.0625 3.50547V5.625C9.0625 5.87364 9.16128 6.1121 9.33709 6.28791C9.51291 6.46373 9.75136 6.5625 10 6.5625C10.2486 6.5625 10.4871 6.46373 10.6629 6.28791C10.8387 6.1121 10.9375 5.87364 10.9375 5.625V3.50547C12.3386 3.71011 13.6361 4.36145 14.6374 5.36265C15.6386 6.36386 16.2899 7.66145 16.4945 9.0625H14.375C14.1264 9.0625 13.8879 9.16127 13.7121 9.33709C13.5363 9.5129 13.4375 9.75136 13.4375 10C13.4375 10.2486 13.5363 10.4871 13.7121 10.6629C13.8879 10.8387 14.1264 10.9375 14.375 10.9375H16.4945C16.2899 12.3385 15.6386 13.6361 14.6374 14.6373C13.6361 15.6386 12.3386 16.2899 10.9375 16.4945Z" fill="#191F2E"/>
</svg>
