<svg width="20" height="20" viewBox="0 0 20 20" fill="none" xmlns="http://www.w3.org/2000/svg">
<path d="M18.125 9.0625H17.7563C17.5437 7.32795 16.757 5.71436 15.5213 4.47868C14.2856 3.243 12.6721 2.45626 10.9375 2.24375V1.875C10.9375 1.62636 10.8387 1.3879 10.6629 1.21209C10.4871 1.03627 10.2486 0.9375 10 0.9375C9.75136 0.9375 9.5129 1.03627 9.33709 1.21209C9.16127 1.3879 9.0625 1.62636 9.0625 1.875V2.24375C7.32795 2.45626 5.71436 3.243 4.47868 4.47868C3.243 5.71436 2.45626 7.32795 2.24375 9.0625H1.875C1.62636 9.0625 1.3879 9.16127 1.21209 9.33709C1.03627 9.5129 0.9375 9.75136 0.9375 10C0.9375 10.2486 1.03627 10.4871 1.21209 10.6629C1.3879 10.8387 1.62636 10.9375 1.875 10.9375H2.24375C2.45626 12.6721 3.243 14.2856 4.47868 15.5213C5.71436 16.757 7.32795 17.5437 9.0625 17.7563V18.125C9.0625 18.3736 9.16127 18.6121 9.33709 18.7879C9.5129 18.9637 9.75136 19.0625 10 19.0625C10.2486 19.0625 10.4871 18.9637 10.6629 18.7879C10.8387 18.6121 10.9375 18.3736 10.9375 18.125V17.7563C12.6721 17.5437 14.2856 16.757 15.5213 15.5213C16.757 14.2856 17.5437 12.6721 17.7563 10.9375H18.125C18.3736 10.9375 18.6121 10.8387 18.7879 10.6629C18.9637 10.4871 19.0625 10.2486 19.0625 10C19.0625 9.75136 18.9637 9.5129 18.7879 9.33709C18.6121 9.16127 18.3736 9.0625 18.125 9.0625ZM10.9375 15.8594V15.625C10.9375 15.3764 10.8387 15.1379 10.6629 14.9621C10.4871 14.7863 10.2486 14.6875 10 14.6875C9.75136 14.6875 9.5129 14.7863 9.33709 14.9621C9.16127 15.1379 9.0625 15.3764 9.0625 15.625V15.8594C7.8292 15.6597 6.69006 15.0768 5.80663 14.1934C4.9232 13.3099 4.34031 12.1708 4.14062 10.9375H4.375C4.62364 10.9375 4.8621 10.8387 5.03791 10.6629C5.21373 10.4871 5.3125 10.2486 5.3125 10C5.3125 9.75136 5.21373 9.5129 5.03791 9.33709C4.8621 9.16127 4.62364 9.0625 4.375 9.0625H4.14062C4.34031 7.8292 4.9232 6.69006 5.80663 5.80663C6.69006 4.9232 7.8292 4.34031 9.0625 4.14062V4.375C9.0625 4.62364 9.16127 4.8621 9.33709 5.03791C9.5129 5.21373 9.75136 5.3125 10 5.3125C10.2486 5.3125 10.4871 5.21373 10.6629 5.03791C10.8387 4.8621 10.9375 4.62364 10.9375 4.375V4.14062C12.1708 4.34031 13.3099 4.9232 14.1934 5.80663C15.0768 6.69006 15.6597 7.8292 15.8594 9.0625H15.625C15.3764 9.0625 15.1379 9.16127 14.9621 9.33709C14.7863 9.5129 14.6875 9.75136 14.6875 10C14.6875 10.2486 14.7863 10.4871 14.9621 10.6629C15.1379 10.8387 15.3764 10.9375 15.625 10.9375H15.8594C15.6597 12.1708 15.0768 13.3099 14.1934 14.1934C13.3099 15.0768 12.1708 15.6597 10.9375 15.8594ZM10 6.5625C9.32013 6.5625 8.65552 6.76411 8.09023 7.14182C7.52493 7.51954 7.08434 8.0564 6.82416 8.68453C6.56399 9.31265 6.49591 10.0038 6.62855 10.6706C6.76119 11.3374 7.08858 11.9499 7.56932 12.4307C8.05006 12.9114 8.66257 13.2388 9.32938 13.3714C9.99619 13.5041 10.6874 13.436 11.3155 13.1758C11.9436 12.9157 12.4805 12.4751 12.8582 11.9098C13.2359 11.3445 13.4375 10.6799 13.4375 10C13.4365 9.08864 13.074 8.21489 12.4295 7.57046C11.7851 6.92603 10.9114 6.56353 10 6.5625ZM10 11.5625C9.69097 11.5625 9.38887 11.4709 9.13192 11.2992C8.87497 11.1275 8.6747 10.8835 8.55644 10.5979C8.43818 10.3124 8.40723 9.99827 8.46752 9.69517C8.52781 9.39208 8.67663 9.11367 8.89515 8.89515C9.11367 8.67663 9.39208 8.52781 9.69517 8.46752C9.99827 8.40723 10.3124 8.43818 10.5979 8.55644C10.8835 8.6747 11.1275 8.87497 11.2992 9.13192C11.4709 9.38887 11.5625 9.69097 11.5625 10C11.5625 10.4144 11.3979 10.8118 11.1049 11.1049C10.8118 11.3979 10.4144 11.5625 10 11.5625Z" fill="#191F2E"/>
</svg>
