<svg width="20" height="20" viewBox="0 0 20 20" fill="none" xmlns="http://www.w3.org/2000/svg">
<path d="M15.625 5.625H12.5V2.5C12.5 2.16848 12.3683 1.85054 12.1339 1.61612C11.8995 1.3817 11.5815 1.25 11.25 1.25H8.75C8.41848 1.25 8.10054 1.3817 7.86612 1.61612C7.6317 1.85054 7.5 2.16848 7.5 2.5V5.625H4.375C4.04348 5.625 3.72554 5.7567 3.49112 5.99112C3.2567 6.22554 3.125 6.54348 3.125 6.875V9.375C3.125 9.70652 3.2567 10.0245 3.49112 10.2589C3.72554 10.4933 4.04348 10.625 4.375 10.625H7.5V17.5C7.5 17.8315 7.6317 18.1495 7.86612 18.3839C8.10054 18.6183 8.41848 18.75 8.75 18.75H11.25C11.5815 18.75 11.8995 18.6183 12.1339 18.3839C12.3683 18.1495 12.5 17.8315 12.5 17.5V10.625H15.625C15.9565 10.625 16.2745 10.4933 16.5089 10.2589C16.7433 10.0245 16.875 9.70652 16.875 9.375V6.875C16.875 6.54348 16.7433 6.22554 16.5089 5.99112C16.2745 5.7567 15.9565 5.625 15.625 5.625ZM15.625 9.375H12.5C12.1685 9.375 11.8505 9.5067 11.6161 9.74112C11.3817 9.97554 11.25 10.2935 11.25 10.625V17.5H8.75V10.625C8.75 10.2935 8.6183 9.97554 8.38388 9.74112C8.14946 9.5067 7.83152 9.375 7.5 9.375H4.375V6.875H7.5C7.83152 6.875 8.14946 6.7433 8.38388 6.50888C8.6183 6.27446 8.75 5.95652 8.75 5.625V2.5H11.25V5.625C11.25 5.95652 11.3817 6.27446 11.6161 6.50888C11.8505 6.7433 12.1685 6.875 12.5 6.875H15.625V9.375Z" fill="#191F2E"/>
</svg>
