<svg width="20" height="20" viewBox="0 0 20 20" fill="none" xmlns="http://www.w3.org/2000/svg">
<path d="M19.3258 6.96486L16.4352 15.8188C16.4061 15.908 16.3573 15.9896 16.2924 16.0574C16.2275 16.1252 16.1482 16.1775 16.0603 16.2104C15.9724 16.2434 15.8782 16.2561 15.7847 16.2477C15.6913 16.2392 15.6009 16.2099 15.5203 16.1617C15.5023 16.1508 13.5047 15 9.99844 15C6.49218 15 4.49453 16.1508 4.475 16.1625C4.39445 16.2102 4.30423 16.2392 4.21099 16.2473C4.11774 16.2555 4.02386 16.2426 3.93627 16.2096C3.84868 16.1766 3.76962 16.1243 3.70493 16.0567C3.64024 15.989 3.59156 15.9077 3.5625 15.8188L0.673434 6.96251C0.615224 6.78523 0.610738 6.59469 0.660542 6.41486C0.710345 6.23503 0.812214 6.07394 0.953334 5.95186C1.09445 5.82978 1.26852 5.75215 1.45365 5.72875C1.63877 5.70535 1.82668 5.73721 1.99375 5.82032L5.91484 7.77345L9.18984 2.33126C9.27403 2.19167 9.39285 2.0762 9.5348 1.99605C9.67674 1.9159 9.83699 1.87378 10 1.87378C10.163 1.87378 10.3233 1.9159 10.4652 1.99605C10.6071 2.0762 10.726 2.19167 10.8102 2.33126L14.0852 7.77345L18.0078 5.82032C18.1751 5.73708 18.3632 5.70527 18.5486 5.7289C18.7339 5.75252 18.908 5.83053 19.0491 5.95308C19.1901 6.07562 19.2916 6.23721 19.3409 6.41742C19.3901 6.59764 19.3849 6.78841 19.3258 6.96564V6.96486Z" fill="#191F2E"/>
</svg>
