<svg width="20" height="20" viewBox="0 0 20 20" fill="none" xmlns="http://www.w3.org/2000/svg">
<path d="M19.05 5.95226C18.909 5.82933 18.7347 5.75107 18.5491 5.72742C18.3635 5.70377 18.1751 5.7358 18.0078 5.81945L14.0852 7.77257L10.8102 2.33273C10.726 2.19314 10.6071 2.07767 10.4652 1.99752C10.3233 1.91736 10.163 1.87524 10 1.87524C9.83699 1.87524 9.67674 1.91736 9.5348 1.99752C9.39285 2.07767 9.27403 2.19314 9.18984 2.33273L5.91484 7.77491L1.99375 5.82179C1.82683 5.73889 1.63914 5.70714 1.45424 5.73052C1.26934 5.7539 1.09546 5.83137 0.954429 5.95321C0.813396 6.07505 0.711491 6.23583 0.6615 6.41537C0.61151 6.59491 0.615662 6.78522 0.673434 6.96241L3.56406 15.8187C3.59312 15.9076 3.6418 15.9889 3.70649 16.0566C3.77119 16.1242 3.85025 16.1765 3.93784 16.2095C4.02542 16.2425 4.11931 16.2554 4.21255 16.2472C4.30579 16.2391 4.39602 16.2101 4.47656 16.1624C4.49609 16.1507 6.49375 14.9999 10 14.9999C13.5062 14.9999 15.5039 16.1507 15.5219 16.1616C15.6024 16.2098 15.6928 16.2392 15.7863 16.2476C15.8798 16.256 15.974 16.2433 16.0618 16.2103C16.1497 16.1774 16.2291 16.1251 16.294 16.0573C16.3589 15.9895 16.4076 15.9079 16.4367 15.8187L19.3273 6.96476C19.3868 6.78752 19.3921 6.5966 19.3427 6.4163C19.2934 6.236 19.1915 6.07447 19.05 5.95226ZM15.4687 14.7523C14.5312 14.3546 12.6625 13.7499 10 13.7499C7.3375 13.7499 5.46875 14.3546 4.53125 14.7523L2.08672 7.26554L5.60781 9.02101C5.82094 9.12611 6.0657 9.1476 6.29388 9.08122C6.52206 9.01485 6.71712 8.86544 6.84062 8.66241L10 3.41085L13.1594 8.66085C13.283 8.86354 13.4779 9.01271 13.7059 9.07905C13.9338 9.1454 14.1783 9.12414 14.3914 9.01945L17.9133 7.26554L15.4687 14.7523ZM13.7398 12.2523C13.7143 12.3968 13.6387 12.5278 13.5263 12.6223C13.4139 12.7167 13.2718 12.7685 13.125 12.7687C13.0883 12.7686 13.0518 12.7655 13.0156 12.7593C11.0193 12.4166 8.97915 12.4166 6.98281 12.7593C6.81954 12.7881 6.65151 12.7509 6.51569 12.6558C6.37987 12.5607 6.28739 12.4155 6.25859 12.2523C6.22979 12.089 6.26703 11.921 6.36212 11.7851C6.4572 11.6493 6.60235 11.5568 6.76562 11.528C8.90567 11.1603 11.0928 11.1603 13.2328 11.528C13.3958 11.5567 13.5407 11.6487 13.6359 11.784C13.7311 11.9193 13.7688 12.0869 13.7406 12.2499L13.7398 12.2523Z" fill="#191F2E"/>
</svg>
