<svg width="20" height="20" viewBox="0 0 20 20" fill="none" xmlns="http://www.w3.org/2000/svg">
<path d="M19.2547 5.71648C19.0676 5.55241 18.8357 5.44795 18.5887 5.41649C18.3418 5.38504 18.0911 5.42801 17.8688 5.53992L14.2047 7.36648L11.0797 2.17195C10.9678 1.98609 10.8097 1.83232 10.6208 1.72558C10.4319 1.61884 10.2186 1.56274 10.0016 1.56274C9.78463 1.56274 9.57134 1.61884 9.38244 1.72558C9.19354 1.83232 9.03544 1.98609 8.92348 2.17195L5.79848 7.36648L2.13364 5.5407C1.91153 5.42974 1.66155 5.387 1.41519 5.41787C1.16883 5.44873 0.937116 5.55181 0.749237 5.71412C0.561358 5.87644 0.425719 6.09073 0.359409 6.32999C0.293099 6.56926 0.299084 6.8228 0.376609 7.05867L3.26723 15.9141C3.31077 16.0475 3.3837 16.1695 3.48065 16.271C3.5776 16.3724 3.69609 16.4508 3.82738 16.5004C3.95867 16.5499 4.09942 16.5694 4.23923 16.5573C4.37905 16.5452 4.51437 16.5019 4.6352 16.4305C4.65395 16.4196 6.59302 15.3126 10 15.3126C13.4071 15.3126 15.3461 16.4212 15.361 16.4298C15.4818 16.5021 15.6174 16.5462 15.7576 16.5589C15.8979 16.5716 16.0392 16.5526 16.1711 16.5032C16.3029 16.4538 16.422 16.3753 16.5194 16.2736C16.6168 16.1719 16.69 16.0496 16.7336 15.9157L19.6243 7.06492C19.7041 6.82892 19.7115 6.57446 19.6457 6.3342C19.5798 6.09394 19.4437 5.87883 19.2547 5.71648ZM15.2758 14.3376C14.2329 13.9376 12.4375 13.4376 10 13.4376C7.56255 13.4376 5.76723 13.9391 4.72427 14.3391L2.61489 7.87742L5.4688 9.29695C5.75239 9.4371 6.07823 9.46583 6.38197 9.37745C6.68572 9.28908 6.94528 9.09003 7.10942 8.81961L10 4.0157L12.8907 8.82039C13.0549 9.09067 13.3146 9.28956 13.6183 9.37779C13.922 9.46601 14.2478 9.43717 14.5313 9.29695L17.3844 7.87508L15.2758 14.3376ZM13.7391 11.9157C13.705 12.137 13.5928 12.3387 13.4228 12.4844C13.2529 12.6301 13.0364 12.7102 12.8125 12.7102C12.7642 12.7101 12.7159 12.7064 12.668 12.6993C10.8983 12.4326 9.09865 12.4326 7.32895 12.6993C7.08321 12.7372 6.83248 12.676 6.6319 12.529C6.43132 12.3821 6.29734 12.1614 6.25942 11.9157C6.2215 11.67 6.28276 11.4192 6.42971 11.2186C6.57666 11.0181 6.79728 10.8841 7.04302 10.8462C9.00222 10.5503 10.9947 10.5503 12.954 10.8462C13.0758 10.8648 13.1927 10.9072 13.2981 10.971C13.4036 11.0348 13.4953 11.1188 13.5683 11.2182C13.6412 11.3175 13.6938 11.4302 13.7231 11.5499C13.7524 11.6696 13.7579 11.7939 13.7391 11.9157Z" fill="#191F2E"/>
</svg>
