<svg width="20" height="20" viewBox="0 0 20 20" fill="none" xmlns="http://www.w3.org/2000/svg">
<path d="M13.9523 7.04844L10 9.33047L6.04766 7.04844C6.00012 7.02102 5.96064 6.98157 5.93319 6.93404C5.90574 6.88652 5.89128 6.83261 5.89128 6.77773C5.89128 6.72286 5.90574 6.66894 5.93319 6.62142C5.96064 6.5739 6.00012 6.53445 6.04766 6.50703L9.5125 4.50625C9.66072 4.42068 9.82885 4.37562 10 4.37562C10.1711 4.37562 10.3393 4.42068 10.4875 4.50625L13.9523 6.50703C13.9999 6.53445 14.0394 6.5739 14.0668 6.62142C14.0943 6.66894 14.1087 6.72286 14.1087 6.77773C14.1087 6.83261 14.0943 6.88652 14.0668 6.93404C14.0394 6.98157 13.9999 7.02102 13.9523 7.04844ZM5 8.42812V12.2992C4.99961 12.4766 5.04572 12.6511 5.13372 12.8051C5.22172 12.9592 5.34854 13.0875 5.50156 13.1773L8.90625 15.1437C8.95373 15.1712 9.00759 15.1856 9.06242 15.1856C9.11725 15.1856 9.17111 15.1712 9.21861 15.1438C9.26611 15.1164 9.30556 15.077 9.33301 15.0296C9.36046 14.9821 9.37494 14.9283 9.375 14.8734V10.4133L5.46875 8.15781C5.42127 8.1304 5.36741 8.11596 5.31258 8.11595C5.25775 8.11593 5.20389 8.13034 5.15639 8.15773C5.10889 8.18512 5.06944 8.22453 5.04199 8.27199C5.01454 8.31945 5.00006 8.3733 5 8.42812ZM15 12.2992V8.42812C14.9999 8.3733 14.9855 8.31945 14.958 8.27199C14.9306 8.22453 14.8911 8.18512 14.8436 8.15773C14.7961 8.13034 14.7422 8.11593 14.6874 8.11595C14.6326 8.11596 14.5787 8.1304 14.5312 8.15781L10.625 10.4133V14.8734C10.6251 14.9283 10.6395 14.9821 10.667 15.0296C10.6944 15.077 10.7339 15.1164 10.7814 15.1438C10.8289 15.1712 10.8828 15.1856 10.9376 15.1856C10.9924 15.1856 11.0463 15.1712 11.0938 15.1437L14.4977 13.1773C14.6508 13.0876 14.7778 12.9594 14.8659 12.8053C14.9541 12.6512 15.0003 12.4767 15 12.2992ZM17.5 3.125H14.375C14.2092 3.125 14.0503 3.19085 13.9331 3.30806C13.8158 3.42527 13.75 3.58424 13.75 3.75C13.75 3.91576 13.8158 4.07473 13.9331 4.19194C14.0503 4.30915 14.2092 4.375 14.375 4.375H16.875V6.875C16.875 7.04076 16.9408 7.19973 17.0581 7.31694C17.1753 7.43415 17.3342 7.5 17.5 7.5C17.6658 7.5 17.8247 7.43415 17.9419 7.31694C18.0592 7.19973 18.125 7.04076 18.125 6.875V3.75C18.125 3.58424 18.0592 3.42527 17.9419 3.30806C17.8247 3.19085 17.6658 3.125 17.5 3.125ZM5.625 15.625H3.125V13.125C3.125 12.9592 3.05915 12.8003 2.94194 12.6831C2.82473 12.5658 2.66576 12.5 2.5 12.5C2.33424 12.5 2.17527 12.5658 2.05806 12.6831C1.94085 12.8003 1.875 12.9592 1.875 13.125V16.25C1.875 16.4158 1.94085 16.5747 2.05806 16.6919C2.17527 16.8092 2.33424 16.875 2.5 16.875H5.625C5.79076 16.875 5.94973 16.8092 6.06694 16.6919C6.18415 16.5747 6.25 16.4158 6.25 16.25C6.25 16.0842 6.18415 15.9253 6.06694 15.8081C5.94973 15.6908 5.79076 15.625 5.625 15.625ZM17.5 12.5C17.3342 12.5 17.1753 12.5658 17.0581 12.6831C16.9408 12.8003 16.875 12.9592 16.875 13.125V15.625H14.375C14.2092 15.625 14.0503 15.6908 13.9331 15.8081C13.8158 15.9253 13.75 16.0842 13.75 16.25C13.75 16.4158 13.8158 16.5747 13.9331 16.6919C14.0503 16.8092 14.2092 16.875 14.375 16.875H17.5C17.6658 16.875 17.8247 16.8092 17.9419 16.6919C18.0592 16.5747 18.125 16.4158 18.125 16.25V13.125C18.125 12.9592 18.0592 12.8003 17.9419 12.6831C17.8247 12.5658 17.6658 12.5 17.5 12.5ZM2.5 7.5C2.66576 7.5 2.82473 7.43415 2.94194 7.31694C3.05915 7.19973 3.125 7.04076 3.125 6.875V4.375H5.625C5.79076 4.375 5.94973 4.30915 6.06694 4.19194C6.18415 4.07473 6.25 3.91576 6.25 3.75C6.25 3.58424 6.18415 3.42527 6.06694 3.30806C5.94973 3.19085 5.79076 3.125 5.625 3.125H2.5C2.33424 3.125 2.17527 3.19085 2.05806 3.30806C1.94085 3.42527 1.875 3.58424 1.875 3.75V6.875C1.875 7.04076 1.94085 7.19973 2.05806 7.31694C2.17527 7.43415 2.33424 7.5 2.5 7.5Z" fill="#191F2E"/>
</svg>
