<svg width="20" height="20" viewBox="0 0 20 20" fill="none" xmlns="http://www.w3.org/2000/svg">
<path d="M15 12.2992V7.70078C15.0004 7.52335 14.9543 7.34892 14.8663 7.19485C14.7783 7.04079 14.6515 6.91246 14.4984 6.82266L10.4875 4.50625C10.3393 4.42068 10.1711 4.37562 10 4.37562C9.82885 4.37562 9.66072 4.42068 9.5125 4.50625L5.50234 6.82266C5.34918 6.91236 5.2222 7.04065 5.13406 7.19472C5.04592 7.34879 4.99969 7.52328 5 7.70078V12.2992C4.99961 12.4766 5.04572 12.6511 5.13372 12.8051C5.22172 12.9592 5.34854 13.0875 5.50156 13.1773L9.5125 15.4938C9.66074 15.5792 9.82887 15.6243 10 15.6243C10.1711 15.6243 10.3393 15.5792 10.4875 15.4938L14.4977 13.1773C14.6508 13.0876 14.7778 12.9594 14.8659 12.8053C14.9541 12.6512 15.0003 12.4767 15 12.2992ZM10 5.66797L13.1711 7.5L10 9.33047L6.82891 7.5L10 5.66797ZM6.25 8.60859L9.375 10.4133V13.9711L6.25 12.1664V8.60859ZM10.625 13.9711V10.4133L13.75 8.60859V12.1664L10.625 13.9711ZM18.125 3.75V6.875C18.125 7.04076 18.0592 7.19973 17.9419 7.31694C17.8247 7.43415 17.6658 7.5 17.5 7.5C17.3342 7.5 17.1753 7.43415 17.0581 7.31694C16.9408 7.19973 16.875 7.04076 16.875 6.875V4.375H14.375C14.2092 4.375 14.0503 4.30915 13.9331 4.19194C13.8158 4.07473 13.75 3.91576 13.75 3.75C13.75 3.58424 13.8158 3.42527 13.9331 3.30806C14.0503 3.19085 14.2092 3.125 14.375 3.125H17.5C17.6658 3.125 17.8247 3.19085 17.9419 3.30806C18.0592 3.42527 18.125 3.58424 18.125 3.75ZM6.25 16.25C6.25 16.4158 6.18415 16.5747 6.06694 16.6919C5.94973 16.8092 5.79076 16.875 5.625 16.875H2.5C2.33424 16.875 2.17527 16.8092 2.05806 16.6919C1.94085 16.5747 1.875 16.4158 1.875 16.25V13.125C1.875 12.9592 1.94085 12.8003 2.05806 12.6831C2.17527 12.5658 2.33424 12.5 2.5 12.5C2.66576 12.5 2.82473 12.5658 2.94194 12.6831C3.05915 12.8003 3.125 12.9592 3.125 13.125V15.625H5.625C5.79076 15.625 5.94973 15.6908 6.06694 15.8081C6.18415 15.9253 6.25 16.0842 6.25 16.25ZM18.125 13.125V16.25C18.125 16.4158 18.0592 16.5747 17.9419 16.6919C17.8247 16.8092 17.6658 16.875 17.5 16.875H14.375C14.2092 16.875 14.0503 16.8092 13.9331 16.6919C13.8158 16.5747 13.75 16.4158 13.75 16.25C13.75 16.0842 13.8158 15.9253 13.9331 15.8081C14.0503 15.6908 14.2092 15.625 14.375 15.625H16.875V13.125C16.875 12.9592 16.9408 12.8003 17.0581 12.6831C17.1753 12.5658 17.3342 12.5 17.5 12.5C17.6658 12.5 17.8247 12.5658 17.9419 12.6831C18.0592 12.8003 18.125 12.9592 18.125 13.125ZM1.875 6.875V3.75C1.875 3.58424 1.94085 3.42527 2.05806 3.30806C2.17527 3.19085 2.33424 3.125 2.5 3.125H5.625C5.79076 3.125 5.94973 3.19085 6.06694 3.30806C6.18415 3.42527 6.25 3.58424 6.25 3.75C6.25 3.91576 6.18415 4.07473 6.06694 4.19194C5.94973 4.30915 5.79076 4.375 5.625 4.375H3.125V6.875C3.125 7.04076 3.05915 7.19973 2.94194 7.31694C2.82473 7.43415 2.66576 7.5 2.5 7.5C2.33424 7.5 2.17527 7.43415 2.05806 7.31694C1.94085 7.19973 1.875 7.04076 1.875 6.875Z" fill="#191F2E"/>
</svg>
