<svg width="20" height="20" viewBox="0 0 20 20" fill="none" xmlns="http://www.w3.org/2000/svg">
<path d="M17.625 4.89378L10.75 1.1305C10.5202 1.00405 10.2623 0.937744 10 0.937744C9.73775 0.937744 9.47975 1.00405 9.25 1.1305L2.375 4.89378C2.129 5.02838 1.92375 5.22671 1.78079 5.46795C1.63784 5.70919 1.56244 5.98446 1.5625 6.26488V13.7352C1.56244 14.0156 1.63784 14.2909 1.78079 14.5321C1.92375 14.7734 2.129 14.9717 2.375 15.1063L9.25 18.8696C9.47971 18.9962 9.73772 19.0625 10 19.0625C10.2623 19.0625 10.5203 18.9962 10.75 18.8696L17.625 15.1063C17.871 14.9717 18.0762 14.7734 18.2192 14.5321C18.3622 14.2909 18.4376 14.0156 18.4375 13.7352V6.26488C18.4376 5.98446 18.3622 5.70919 18.2192 5.46795C18.0762 5.22671 17.871 5.02838 17.625 4.89378ZM10 2.85706L15.625 5.93753L10 9.01566L4.375 5.93753L10 2.85706ZM3.4375 7.56175L9.0625 10.6399V16.6297L3.4375 13.55V7.56175ZM10.9375 16.6297V10.6399L16.5625 7.56175V13.55L10.9375 16.6297Z" fill="#191F2E"/>
</svg>
