<svg width="20" height="20" viewBox="0 0 20 20" fill="none" xmlns="http://www.w3.org/2000/svg">
<path d="M8.12501 11.875V8.125H11.875V11.875H8.12501ZM2.50001 4.14063V11.5625C2.50001 11.6454 2.53293 11.7249 2.59154 11.7835C2.65015 11.8421 2.72963 11.875 2.81251 11.875H6.87501V7.75859L3.0336 3.91719C2.98976 3.87329 2.93384 3.84344 2.87297 3.83143C2.8121 3.81943 2.74903 3.82581 2.6918 3.84978C2.63457 3.87374 2.58577 3.9142 2.55161 3.96599C2.51746 4.01779 2.49949 4.07858 2.50001 4.14063ZM17.1875 8.125H13.125V12.2414L16.9664 16.0828C17.0103 16.1267 17.0662 16.1566 17.1271 16.1686C17.1879 16.1806 17.251 16.1742 17.3082 16.1502C17.3655 16.1263 17.4143 16.0858 17.4484 16.034C17.4826 15.9822 17.5005 15.9214 17.5 15.8594V8.4375C17.5 8.35462 17.4671 8.27513 17.4085 8.21653C17.3499 8.15792 17.2704 8.125 17.1875 8.125ZM11.875 2.8125C11.875 2.72962 11.8421 2.65013 11.7835 2.59153C11.7249 2.53292 11.6454 2.5 11.5625 2.5H4.14064C4.07879 2.49995 4.01833 2.51825 3.96689 2.55259C3.91546 2.58692 3.87536 2.63575 3.85169 2.69288C3.82802 2.75001 3.82183 2.81288 3.83391 2.87353C3.84599 2.93418 3.87579 2.98989 3.91954 3.03359L7.7586 6.875H11.875V2.8125ZM16.6008 6.34141L13.6586 3.39922C13.6149 3.35547 13.5592 3.32566 13.4985 3.31358C13.4379 3.30151 13.375 3.3077 13.3179 3.33137C13.2608 3.35504 13.2119 3.39513 13.1776 3.44657C13.1433 3.498 13.125 3.55847 13.125 3.62031V6.875H16.3797C16.4415 6.87505 16.502 6.85675 16.5534 6.82241C16.6049 6.78808 16.645 6.73925 16.6686 6.68212C16.6923 6.62499 16.6985 6.56212 16.6864 6.50147C16.6743 6.44082 16.6445 6.38511 16.6008 6.34141ZM12.2414 13.125H8.12501V17.1875C8.12501 17.2704 8.15793 17.3499 8.21654 17.4085C8.27514 17.4671 8.35463 17.5 8.43751 17.5H15.8594C15.9212 17.5 15.9817 17.4817 16.0331 17.4474C16.0846 17.4131 16.1247 17.3643 16.1483 17.3071C16.172 17.25 16.1782 17.1871 16.1661 17.1265C16.154 17.0658 16.1242 17.0101 16.0805 16.9664L12.2414 13.125ZM3.39923 13.6586L6.34142 16.6008C6.38512 16.6445 6.44083 16.6743 6.50148 16.6864C6.56213 16.6985 6.625 16.6923 6.68213 16.6686C6.73926 16.645 6.78809 16.6049 6.82242 16.5534C6.85676 16.502 6.87506 16.4415 6.87501 16.3797V13.125H3.62032C3.55848 13.125 3.49801 13.1433 3.44658 13.1776C3.39514 13.2119 3.35505 13.2607 3.33138 13.3179C3.30771 13.375 3.30152 13.4379 3.3136 13.4985C3.32567 13.5592 3.35548 13.6149 3.39923 13.6586Z" fill="#191F2E"/>
</svg>
