<svg width="20" height="20" viewBox="0 0 20 20" fill="none" xmlns="http://www.w3.org/2000/svg">
<path d="M17.5391 7.46328L12.5391 2.46328C12.452 2.37587 12.3485 2.30652 12.2345 2.25919C12.1206 2.21187 11.9984 2.18751 11.875 2.1875H3.125C2.87636 2.1875 2.6379 2.28627 2.46209 2.46209C2.28627 2.6379 2.1875 2.87636 2.1875 3.125V11.875C2.18721 12.1032 2.27059 12.3236 2.42188 12.4945C2.43359 12.5086 2.44609 12.5227 2.46094 12.5383L7.46094 17.5383C7.54816 17.6254 7.65171 17.6945 7.76566 17.7415C7.87961 17.7886 8.00172 17.8127 8.125 17.8125H16.875C17.1236 17.8125 17.3621 17.7137 17.5379 17.5379C17.7137 17.3621 17.8125 17.1236 17.8125 16.875V8.125C17.8125 7.87694 17.7142 7.63899 17.5391 7.46328ZM12.8125 5.39062L14.6094 7.1875H12.8125V5.39062ZM7.1875 14.6094L5.39063 12.8125H7.1875V14.6094ZM7.1875 10.9375H4.0625V5.39062L7.1875 8.51562V10.9375ZM5.39063 4.0625H10.9375V7.1875H8.51563L5.39063 4.0625ZM10.9375 9.0625V10.9375H9.0625V9.0625H10.9375ZM9.0625 15.9375V12.8125H11.4844L14.6094 15.9375H9.0625ZM15.9375 14.6094L12.8125 11.4844V9.0625H15.9375V14.6094Z" fill="#191F2E"/>
</svg>
