<svg width="20" height="20" viewBox="0 0 20 20" fill="none" xmlns="http://www.w3.org/2000/svg">
<path d="M10 1.875C8.39303 1.875 6.82214 2.35152 5.486 3.24431C4.14985 4.1371 3.10844 5.40605 2.49348 6.8907C1.87852 8.37535 1.71762 10.009 2.03112 11.5851C2.34463 13.1612 3.11846 14.6089 4.25476 15.7452C5.39106 16.8815 6.8388 17.6554 8.4149 17.9689C9.99099 18.2824 11.6247 18.1215 13.1093 17.5065C14.594 16.8916 15.8629 15.8502 16.7557 14.514C17.6485 13.1779 18.125 11.607 18.125 10C18.1227 7.84581 17.266 5.78051 15.7427 4.25727C14.2195 2.73403 12.1542 1.87727 10 1.875ZM11.5625 15H10.625V15.625C10.625 15.7908 10.5592 15.9497 10.4419 16.0669C10.3247 16.1842 10.1658 16.25 10 16.25C9.83424 16.25 9.67527 16.1842 9.55806 16.0669C9.44085 15.9497 9.375 15.7908 9.375 15.625V15H8.75C8.00408 15 7.28871 14.7037 6.76127 14.1762C6.23382 13.6488 5.9375 12.9334 5.9375 12.1875C5.9375 12.0217 6.00335 11.8628 6.12056 11.7456C6.23777 11.6283 6.39674 11.5625 6.5625 11.5625C6.72826 11.5625 6.88724 11.6283 7.00445 11.7456C7.12166 11.8628 7.1875 12.0217 7.1875 12.1875C7.1875 12.6019 7.35212 12.9993 7.64515 13.2924C7.93817 13.5854 8.3356 13.75 8.75 13.75H11.5625C11.9769 13.75 12.3743 13.5854 12.6674 13.2924C12.9604 12.9993 13.125 12.6019 13.125 12.1875C13.125 11.7731 12.9604 11.3757 12.6674 11.0826C12.3743 10.7896 11.9769 10.625 11.5625 10.625H9.0625C8.31658 10.625 7.60121 10.3287 7.07377 9.80124C6.54632 9.27379 6.25 8.55842 6.25 7.8125C6.25 7.06658 6.54632 6.35121 7.07377 5.82376C7.60121 5.29632 8.31658 5 9.0625 5H9.375V4.375C9.375 4.20924 9.44085 4.05027 9.55806 3.93306C9.67527 3.81585 9.83424 3.75 10 3.75C10.1658 3.75 10.3247 3.81585 10.4419 3.93306C10.5592 4.05027 10.625 4.20924 10.625 4.375V5H10.9375C11.6834 5 12.3988 5.29632 12.9262 5.82376C13.4537 6.35121 13.75 7.06658 13.75 7.8125C13.75 7.97826 13.6842 8.13723 13.5669 8.25444C13.4497 8.37165 13.2908 8.4375 13.125 8.4375C12.9592 8.4375 12.8003 8.37165 12.6831 8.25444C12.5659 8.13723 12.5 7.97826 12.5 7.8125C12.5 7.3981 12.3354 7.00067 12.0424 6.70765C11.7493 6.41462 11.3519 6.25 10.9375 6.25H9.0625C8.6481 6.25 8.25067 6.41462 7.95765 6.70765C7.66462 7.00067 7.5 7.3981 7.5 7.8125C7.5 8.2269 7.66462 8.62433 7.95765 8.91735C8.25067 9.21038 8.6481 9.375 9.0625 9.375H11.5625C12.3084 9.375 13.0238 9.67132 13.5512 10.1988C14.0787 10.7262 14.375 11.4416 14.375 12.1875C14.375 12.9334 14.0787 13.6488 13.5512 14.1762C13.0238 14.7037 12.3084 15 11.5625 15Z" fill="#191F2E"/>
</svg>
