<svg width="20" height="20" viewBox="0 0 20 20" fill="none" xmlns="http://www.w3.org/2000/svg">
<path d="M18.75 9.99998H17.0227L18.7039 5.85935C18.7384 5.78268 18.757 5.69984 18.7588 5.61579C18.7605 5.53173 18.7452 5.4482 18.7139 5.37018C18.6826 5.29216 18.6358 5.22127 18.5765 5.16173C18.5171 5.1022 18.4464 5.05525 18.3684 5.0237C18.2905 4.99216 18.207 4.97665 18.123 4.97812C18.0389 4.97959 17.956 4.99801 17.8792 5.03226C17.8025 5.06652 17.7334 5.11591 17.6761 5.17748C17.6189 5.23905 17.5747 5.31154 17.5461 5.3906L15.6711 9.99998H12.4516L10.5766 5.3906C10.5297 5.27549 10.4496 5.17696 10.3465 5.10759C10.2434 5.03822 10.1219 5.00117 9.99766 5.00117C9.87338 5.00117 9.75192 5.03822 9.6488 5.10759C9.54569 5.17696 9.46559 5.27549 9.41875 5.3906L7.54375 9.99998H4.32656L2.45156 5.3906C2.38526 5.24317 2.26441 5.12715 2.11439 5.06693C1.96437 5.0067 1.79685 5.00694 1.647 5.06761C1.49716 5.12828 1.37665 5.24464 1.31078 5.39228C1.24491 5.53991 1.23881 5.70732 1.29375 5.85935L2.975 9.99998H1.25C1.08424 9.99998 0.925268 10.0658 0.808058 10.183C0.690848 10.3002 0.625 10.4592 0.625 10.625C0.625 10.7907 0.690848 10.9497 0.808058 11.0669C0.925268 11.1841 1.08424 11.25 1.25 11.25H3.48516L5.36016 15.8594C5.407 15.9745 5.48709 16.073 5.59021 16.1424C5.69333 16.2117 5.81478 16.2488 5.93906 16.2488C6.06334 16.2488 6.1848 16.2117 6.28791 16.1424C6.39103 16.073 6.47113 15.9745 6.51797 15.8594L8.39297 11.25H11.6148L13.4898 15.8594C13.5367 15.9745 13.6168 16.073 13.7199 16.1424C13.823 16.2117 13.9445 16.2488 14.0688 16.2488C14.193 16.2488 14.3145 16.2117 14.4176 16.1424C14.5207 16.073 14.6008 15.9745 14.6477 15.8594L16.5227 11.25H18.75C18.9158 11.25 19.0747 11.1841 19.1919 11.0669C19.3092 10.9497 19.375 10.7907 19.375 10.625C19.375 10.4592 19.3092 10.3002 19.1919 10.183C19.0747 10.0658 18.9158 9.99998 18.75 9.99998ZM5.9375 13.9648L4.83437 11.25H7.04063L5.9375 13.9648ZM8.89687 9.99998L10 7.28592L11.1031 9.99998H8.89687ZM14.0625 13.9648L12.9594 11.25H15.1656L14.0625 13.9648Z" fill="#191F2E"/>
</svg>
