<svg width="20" height="20" viewBox="0 0 20 20" fill="none" xmlns="http://www.w3.org/2000/svg">
<path d="M4.375 5C4.375 4.83424 4.44085 4.67527 4.55806 4.55806C4.67527 4.44085 4.83424 4.375 5 4.375H15C15.1658 4.375 15.3247 4.44085 15.4419 4.55806C15.5592 4.67527 15.625 4.83424 15.625 5C15.625 5.16576 15.5592 5.32473 15.4419 5.44194C15.3247 5.55915 15.1658 5.625 15 5.625H5C4.83424 5.625 4.67527 5.55915 4.55806 5.44194C4.44085 5.32473 4.375 5.16576 4.375 5ZM16.875 13.125C16.7092 13.125 16.5503 13.1908 16.4331 13.3081C16.3158 13.4253 16.25 13.5842 16.25 13.75V15H13.75C13.4185 15 13.1005 14.8683 12.8661 14.6339C12.6317 14.3995 12.5 14.0815 12.5 13.75V10H16.25C16.4158 10 16.5747 9.93415 16.6919 9.81694C16.8092 9.69973 16.875 9.54076 16.875 9.375C16.875 9.20924 16.8092 9.05027 16.6919 8.93306C16.5747 8.81585 16.4158 8.75 16.25 8.75H3.75C3.58424 8.75 3.42527 8.81585 3.30806 8.93306C3.19085 9.05027 3.125 9.20924 3.125 9.375C3.125 9.54076 3.19085 9.69973 3.30806 9.81694C3.42527 9.93415 3.58424 10 3.75 10H7.5V10.625C7.49876 11.7849 7.03742 12.897 6.21722 13.7172C5.39702 14.5374 4.28494 14.9988 3.125 15C2.95924 15 2.80027 15.0658 2.68306 15.1831C2.56585 15.3003 2.5 15.4592 2.5 15.625C2.5 15.7908 2.56585 15.9497 2.68306 16.0669C2.80027 16.1842 2.95924 16.25 3.125 16.25C4.61633 16.2483 6.04611 15.6552 7.10065 14.6006C8.15518 13.5461 8.74835 12.1163 8.75 10.625V10H11.25V13.75C11.25 14.413 11.5134 15.0489 11.9822 15.5178C12.4511 15.9866 13.087 16.25 13.75 16.25H16.875C17.0408 16.25 17.1997 16.1842 17.3169 16.0669C17.4342 15.9497 17.5 15.7908 17.5 15.625V13.75C17.5 13.5842 17.4342 13.4253 17.3169 13.3081C17.1997 13.1908 17.0408 13.125 16.875 13.125Z" fill="#191F2E"/>
</svg>
