<svg width="20" height="20" viewBox="0 0 20 20" fill="none" xmlns="http://www.w3.org/2000/svg">
<path d="M13.8344 8.94219C14.2343 8.45534 14.5051 7.87558 14.6218 7.25645C14.7384 6.63732 14.6972 5.99876 14.502 5.39975C14.3067 4.80074 13.9637 4.26058 13.5046 3.82914C13.0454 3.39771 12.485 3.08891 11.875 2.93125V1.875C11.875 1.62636 11.7762 1.3879 11.6004 1.21209C11.4246 1.03627 11.1861 0.9375 10.9375 0.9375C10.6889 0.9375 10.4504 1.03627 10.2746 1.21209C10.0988 1.3879 10 1.62636 10 1.875V2.8125H8.75V1.875C8.75 1.62636 8.65123 1.3879 8.47541 1.21209C8.2996 1.03627 8.06114 0.9375 7.8125 0.9375C7.56386 0.9375 7.3254 1.03627 7.14959 1.21209C6.97377 1.3879 6.875 1.62636 6.875 1.875V2.8125H5C4.75136 2.8125 4.5129 2.91127 4.33709 3.08709C4.16127 3.2629 4.0625 3.50136 4.0625 3.75C4.0625 3.99864 4.16127 4.2371 4.33709 4.41291C4.5129 4.58873 4.75136 4.6875 5 4.6875H5.3125V14.6875H5C4.75136 14.6875 4.5129 14.7863 4.33709 14.9621C4.16127 15.1379 4.0625 15.3764 4.0625 15.625C4.0625 15.8736 4.16127 16.1121 4.33709 16.2879C4.5129 16.4637 4.75136 16.5625 5 16.5625H6.875V17.5C6.875 17.7486 6.97377 17.9871 7.14959 18.1629C7.3254 18.3387 7.56386 18.4375 7.8125 18.4375C8.06114 18.4375 8.2996 18.3387 8.47541 18.1629C8.65123 17.9871 8.75 17.7486 8.75 17.5V16.5625H10V17.5C10 17.7486 10.0988 17.9871 10.2746 18.1629C10.4504 18.3387 10.6889 18.4375 10.9375 18.4375C11.1861 18.4375 11.4246 18.3387 11.6004 18.1629C11.7762 17.9871 11.875 17.7486 11.875 17.5V16.5625C12.776 16.5621 13.6514 16.2622 14.3633 15.7099C15.0753 15.1576 15.5834 14.3843 15.8078 13.5117C16.0322 12.639 15.9601 11.7165 15.6028 10.8893C15.2456 10.0621 14.6235 9.37715 13.8344 8.94219ZM12.8125 6.5625C12.8125 7.05978 12.615 7.53669 12.2633 7.88833C11.9117 8.23996 11.4348 8.4375 10.9375 8.4375H7.1875V4.6875H10.9375C11.4348 4.6875 11.9117 4.88504 12.2633 5.23667C12.615 5.58831 12.8125 6.06522 12.8125 6.5625ZM11.875 14.6875H7.1875V10.3125H11.875C12.4552 10.3125 13.0116 10.543 13.4218 10.9532C13.832 11.3634 14.0625 11.9198 14.0625 12.5C14.0625 13.0802 13.832 13.6366 13.4218 14.0468C13.0116 14.457 12.4552 14.6875 11.875 14.6875Z" fill="#191F2E"/>
</svg>
