<svg width="20" height="20" viewBox="0 0 20 20" fill="none" xmlns="http://www.w3.org/2000/svg">
<path d="M10 1.875C8.39303 1.875 6.82214 2.35152 5.486 3.24431C4.14985 4.1371 3.10844 5.40605 2.49348 6.8907C1.87852 8.37535 1.71762 10.009 2.03112 11.5851C2.34463 13.1612 3.11846 14.6089 4.25476 15.7452C5.39106 16.8815 6.8388 17.6554 8.4149 17.9689C9.99099 18.2824 11.6247 18.1215 13.1093 17.5065C14.594 16.8916 15.8629 15.8502 16.7557 14.514C17.6485 13.1779 18.125 11.607 18.125 10C18.1227 7.84581 17.266 5.78051 15.7427 4.25727C14.2195 2.73403 12.1542 1.87727 10 1.875ZM6.25 5.625H13.75C13.9158 5.625 14.0747 5.69085 14.1919 5.80806C14.3092 5.92527 14.375 6.08424 14.375 6.25C14.375 6.41576 14.3092 6.57473 14.1919 6.69194C14.0747 6.80915 13.9158 6.875 13.75 6.875H6.25C6.08424 6.875 5.92527 6.80915 5.80806 6.69194C5.69085 6.57473 5.625 6.41576 5.625 6.25C5.625 6.08424 5.69085 5.92527 5.80806 5.80806C5.92527 5.69085 6.08424 5.625 6.25 5.625ZM15.625 13.75C15.625 13.9158 15.5592 14.0747 15.4419 14.1919C15.3247 14.3092 15.1658 14.375 15 14.375H13.125C12.462 14.375 11.8261 14.1116 11.3572 13.6428C10.8884 13.1739 10.625 12.538 10.625 11.875V10H9.33438C9.1938 11.0847 8.70307 12.0939 7.93672 12.8744C7.17037 13.6548 6.17027 14.1639 5.08828 14.3242C5.05881 14.3286 5.02903 14.3307 4.99922 14.3305C4.84117 14.3303 4.68905 14.2703 4.57349 14.1624C4.45793 14.0546 4.38752 13.907 4.37643 13.7493C4.36534 13.5917 4.41439 13.4357 4.51371 13.3127C4.61304 13.1898 4.75525 13.109 4.91172 13.0867C5.69618 12.9702 6.42385 12.6091 6.99112 12.0548C7.55839 11.5006 7.93632 10.7815 8.0711 10H5.625C5.45924 10 5.30027 9.93415 5.18306 9.81694C5.06585 9.69973 5 9.54076 5 9.375C5 9.20924 5.06585 9.05027 5.18306 8.93306C5.30027 8.81585 5.45924 8.75 5.625 8.75H14.375C14.5408 8.75 14.6997 8.81585 14.8169 8.93306C14.9342 9.05027 15 9.20924 15 9.375C15 9.54076 14.9342 9.69973 14.8169 9.81694C14.6997 9.93415 14.5408 10 14.375 10H11.875V11.875C11.875 12.2065 12.0067 12.5245 12.2411 12.7589C12.4755 12.9933 12.7935 13.125 13.125 13.125H14.375V12.5C14.375 12.3342 14.4409 12.1753 14.5581 12.0581C14.6753 11.9408 14.8342 11.875 15 11.875C15.1658 11.875 15.3247 11.9408 15.4419 12.0581C15.5592 12.1753 15.625 12.3342 15.625 12.5V13.75Z" fill="#191F2E"/>
</svg>
