<svg width="20" height="20" viewBox="0 0 20 20" fill="none" xmlns="http://www.w3.org/2000/svg">
<path d="M16.25 7.5C16.25 7.66576 16.1842 7.82473 16.0669 7.94194C15.9497 8.05915 15.7908 8.125 15.625 8.125H10.625V16.875C10.625 17.0408 10.5592 17.1997 10.4419 17.3169C10.3247 17.4342 10.1658 17.5 10 17.5C9.83424 17.5 9.67527 17.4342 9.55806 17.3169C9.44085 17.1997 9.375 17.0408 9.375 16.875V8.125H4.375C4.20924 8.125 4.05027 8.05915 3.93306 7.94194C3.81585 7.82473 3.75 7.66576 3.75 7.5C3.75 7.33424 3.81585 7.17527 3.93306 7.05806C4.05027 6.94085 4.20924 6.875 4.375 6.875H15.625C15.7908 6.875 15.9497 6.94085 16.0669 7.05806C16.1842 7.17527 16.25 7.33424 16.25 7.5ZM4.375 5H15.625C15.7908 5 15.9497 4.93415 16.0669 4.81694C16.1842 4.69973 16.25 4.54076 16.25 4.375C16.25 4.20924 16.1842 4.05027 16.0669 3.93306C15.9497 3.81585 15.7908 3.75 15.625 3.75H4.375C4.20924 3.75 4.05027 3.81585 3.93306 3.93306C3.81585 4.05027 3.75 4.20924 3.75 4.375C3.75 4.54076 3.81585 4.69973 3.93306 4.81694C4.05027 4.93415 4.20924 5 4.375 5Z" fill="#191F2E"/>
</svg>
