<svg width="20" height="20" viewBox="0 0 20 20" fill="none" xmlns="http://www.w3.org/2000/svg">
<path d="M10 1.875C8.39303 1.875 6.82214 2.35152 5.486 3.24431C4.14985 4.1371 3.10844 5.40605 2.49348 6.8907C1.87852 8.37535 1.71762 10.009 2.03112 11.5851C2.34463 13.1612 3.11846 14.6089 4.25476 15.7452C5.39106 16.8815 6.8388 17.6554 8.4149 17.9689C9.99099 18.2824 11.6247 18.1215 13.1093 17.5065C14.594 16.8916 15.8629 15.8502 16.7557 14.514C17.6485 13.1779 18.125 11.607 18.125 10C18.1227 7.84581 17.266 5.78051 15.7427 4.25727C14.2195 2.73403 12.1542 1.87727 10 1.875ZM12.2852 6.875H13.75C13.9158 6.875 14.0747 6.94085 14.1919 7.05806C14.3092 7.17527 14.375 7.33424 14.375 7.5C14.375 7.66576 14.3092 7.82473 14.1919 7.94194C14.0747 8.05915 13.9158 8.125 13.75 8.125H12.5C12.499 9.11924 12.1035 10.0725 11.4005 10.7755C10.6975 11.4785 9.74425 11.874 8.75 11.875H8.53828L12.2883 15.1562C12.4015 15.2683 12.4677 15.4194 12.4732 15.5786C12.4788 15.7379 12.4233 15.8932 12.3182 16.0129C12.213 16.1326 12.0662 16.2076 11.9076 16.2226C11.749 16.2377 11.5906 16.1916 11.4648 16.0938L6.46485 11.7188C6.36984 11.635 6.30253 11.5243 6.27185 11.4014C6.24116 11.2785 6.24855 11.1491 6.29303 11.0305C6.33751 10.9119 6.41698 10.8096 6.52091 10.7372C6.62484 10.6648 6.74833 10.6257 6.875 10.625H8.75C9.41304 10.625 10.0489 10.3616 10.5178 9.89277C10.9866 9.42393 11.25 8.78804 11.25 8.125H6.875C6.70924 8.125 6.55027 8.05915 6.43306 7.94194C6.31585 7.82473 6.25 7.66576 6.25 7.5C6.25 7.33424 6.31585 7.17527 6.43306 7.05806C6.55027 6.94085 6.70924 6.875 6.875 6.875H10.9133C10.694 6.49521 10.3787 6.17979 9.99899 5.96038C9.61929 5.74098 9.18854 5.62531 8.75 5.625H6.875C6.70924 5.625 6.55027 5.55915 6.43306 5.44194C6.31585 5.32473 6.25 5.16576 6.25 5C6.25 4.83424 6.31585 4.67527 6.43306 4.55806C6.55027 4.44085 6.70924 4.375 6.875 4.375H13.75C13.9158 4.375 14.0747 4.44085 14.1919 4.55806C14.3092 4.67527 14.375 4.83424 14.375 5C14.375 5.16576 14.3092 5.32473 14.1919 5.44194C14.0747 5.55915 13.9158 5.625 13.75 5.625H11.5422C11.8688 5.98938 12.1212 6.41398 12.2852 6.875Z" fill="#191F2E"/>
</svg>
