<svg width="20" height="20" viewBox="0 0 20 20" fill="none" xmlns="http://www.w3.org/2000/svg">
<path d="M15 16.25C15 16.4158 14.9342 16.5748 14.8169 16.692C14.6997 16.8092 14.5408 16.875 14.375 16.875H4.375C4.20924 16.875 4.05027 16.8092 3.93306 16.692C3.81585 16.5748 3.75 16.4158 3.75 16.25C3.75 16.0843 3.81585 15.9253 3.93306 15.8081C4.05027 15.6909 4.20924 15.625 4.375 15.625H4.6875C5.26766 15.625 5.82406 15.3946 6.2343 14.9843C6.64453 14.5741 6.875 14.0177 6.875 13.4375V10.625H4.375C4.20924 10.625 4.05027 10.5592 3.93306 10.442C3.81585 10.3248 3.75 10.1658 3.75 10C3.75 9.83427 3.81585 9.6753 3.93306 9.55809C4.05027 9.44088 4.20924 9.37503 4.375 9.37503H6.875V6.56253C6.87502 5.7922 7.09405 5.03775 7.50656 4.38718C7.91907 3.73661 8.50804 3.21673 9.20479 2.88817C9.90154 2.55961 10.6773 2.43593 11.4417 2.53154C12.2061 2.62714 12.9275 2.93811 13.5219 3.42815C13.5869 3.47979 13.6411 3.54389 13.6811 3.61669C13.7211 3.68949 13.7462 3.76954 13.7549 3.85216C13.7636 3.93477 13.7558 4.01829 13.7318 4.09784C13.7079 4.17739 13.6683 4.25137 13.6155 4.31545C13.5626 4.37953 13.4975 4.43243 13.424 4.47106C13.3504 4.50968 13.2699 4.53326 13.1871 4.54041C13.1044 4.54755 13.021 4.53813 12.9419 4.51268C12.8628 4.48724 12.7896 4.44629 12.7266 4.39222C12.3151 4.05297 11.8156 3.83771 11.2864 3.77156C10.7572 3.7054 10.2201 3.79107 9.73774 4.01857C9.25539 4.24607 8.84766 4.60603 8.56211 5.05645C8.27656 5.50688 8.12496 6.02921 8.125 6.56253V9.37503H10.625C10.7908 9.37503 10.9497 9.44088 11.0669 9.55809C11.1842 9.6753 11.25 9.83427 11.25 10C11.25 10.1658 11.1842 10.3248 11.0669 10.442C10.9497 10.5592 10.7908 10.625 10.625 10.625H8.125V13.4375C8.12571 14.2362 7.84714 15.0101 7.3375 15.625H14.375C14.5408 15.625 14.6997 15.6909 14.8169 15.8081C14.9342 15.9253 15 16.0843 15 16.25Z" fill="#191F2E"/>
</svg>
