<svg width="20" height="20" viewBox="0 0 20 20" fill="none" xmlns="http://www.w3.org/2000/svg">
<path d="M15.0734 14.8172C15.1562 14.909 15.22 15.0164 15.2611 15.1329C15.3022 15.2495 15.3199 15.3731 15.3131 15.4965C15.3062 15.62 15.2751 15.7409 15.2213 15.8522C15.1676 15.9636 15.0924 16.0632 15 16.1453C14.1351 16.9185 13.0807 17.4485 11.9443 17.6815C10.8078 17.9144 9.62993 17.842 8.5306 17.4715C7.43128 17.101 6.44981 16.4457 5.68619 15.5724C4.92257 14.6991 4.4041 13.6389 4.18359 12.5H3.125C2.87636 12.5 2.6379 12.4012 2.46209 12.2254C2.28627 12.0496 2.1875 11.8112 2.1875 11.5625C2.1875 11.3139 2.28627 11.0754 2.46209 10.8996C2.6379 10.7238 2.87636 10.625 3.125 10.625H4.0625V9.37502H3.125C2.87636 9.37502 2.6379 9.27625 2.46209 9.10043C2.28627 8.92462 2.1875 8.68616 2.1875 8.43752C2.1875 8.18888 2.28627 7.95042 2.46209 7.77461C2.6379 7.59879 2.87636 7.50002 3.125 7.50002H4.18359C4.40465 6.36141 4.92352 5.30174 5.68736 4.42891C6.45121 3.55608 7.43273 2.90129 8.53197 2.53123C9.63122 2.16116 10.8089 2.08904 11.9451 2.32221C13.0813 2.55538 14.1354 3.08551 15 3.85861C15.1853 4.02437 15.2972 4.25697 15.3111 4.50524C15.3249 4.7535 15.2396 4.9971 15.0738 5.18244C14.9081 5.36778 14.6755 5.47968 14.4272 5.49353C14.1789 5.50737 13.9353 5.42203 13.75 5.25627C13.1556 4.72475 12.4354 4.35365 11.6576 4.17806C10.8798 4.00248 10.07 4.02823 9.30492 4.25286C8.53982 4.47749 7.84468 4.89359 7.28523 5.46179C6.72578 6.03 6.32053 6.73152 6.10781 7.50002H10.625C10.8736 7.50002 11.1121 7.59879 11.2879 7.77461C11.4637 7.95042 11.5625 8.18888 11.5625 8.43752C11.5625 8.68616 11.4637 8.92462 11.2879 9.10043C11.1121 9.27625 10.8736 9.37502 10.625 9.37502H5.9375V10.625H9.375C9.62364 10.625 9.8621 10.7238 10.0379 10.8996C10.2137 11.0754 10.3125 11.3139 10.3125 11.5625C10.3125 11.8112 10.2137 12.0496 10.0379 12.2254C9.8621 12.4012 9.62364 12.5 9.375 12.5H6.10781C6.32053 13.2685 6.72578 13.97 7.28523 14.5382C7.84468 15.1064 8.53982 15.5225 9.30492 15.7472C10.07 15.9718 10.8798 15.9976 11.6576 15.822C12.4354 15.6464 13.1556 15.2753 13.75 14.7438C13.9353 14.5781 14.1788 14.4927 14.4269 14.5065C14.6751 14.5203 14.9076 14.632 15.0734 14.8172Z" fill="#191F2E"/>
</svg>
