<svg width="20" height="20" viewBox="0 0 20 20" fill="none" xmlns="http://www.w3.org/2000/svg">
<path d="M17.6125 9.42109L10.7375 0.671086C10.6498 0.559321 10.5378 0.468953 10.4101 0.406811C10.2823 0.344669 10.1421 0.312378 10 0.312378C9.85792 0.312378 9.71771 0.344669 9.58994 0.406811C9.46218 0.468953 9.35021 0.559321 9.2625 0.671086L2.3875 9.42109C2.25787 9.58621 2.18741 9.79006 2.18741 9.99999C2.18741 10.2099 2.25787 10.4138 2.3875 10.5789L2.43437 10.6383C2.44441 10.6539 2.45592 10.6686 2.46875 10.682L9.26562 19.3289C9.35334 19.4407 9.46531 19.531 9.59307 19.5932C9.72083 19.6553 9.86105 19.6876 10.0031 19.6876C10.1452 19.6876 10.2854 19.6553 10.4132 19.5932C10.5409 19.531 10.6529 19.4407 10.7406 19.3289L17.6156 10.5789C17.7448 10.4134 17.8147 10.2094 17.8142 9.99945C17.8136 9.78952 17.7426 9.58586 17.6125 9.42109ZM10.9375 3.96093L15.4 9.64062L10.9375 11.6719V3.96093ZM9.0625 11.6687L4.6 9.63749L9.0625 3.96093V11.6687ZM9.0625 13.7289V16.0391L6.23828 12.4453L9.0625 13.7289ZM10.9375 13.7289L13.7617 12.4453L10.9375 16.0391V13.7289Z" fill="#191F2E"/>
</svg>
