<svg width="20" height="20" viewBox="0 0 20 20" fill="none" xmlns="http://www.w3.org/2000/svg">
<path d="M16.5625 7.8125C16.5625 8.06114 16.4637 8.2996 16.2879 8.47541C16.1121 8.65123 15.8736 8.75 15.625 8.75H10.9375V16.5625C10.9375 16.8111 10.8387 17.0496 10.6629 17.2254C10.4871 17.4012 10.2486 17.5 10 17.5C9.75136 17.5 9.5129 17.4012 9.33709 17.2254C9.16127 17.0496 9.0625 16.8111 9.0625 16.5625V8.75H4.375C4.12636 8.75 3.8879 8.65123 3.71209 8.47541C3.53627 8.2996 3.4375 8.06114 3.4375 7.8125C3.4375 7.56386 3.53627 7.3254 3.71209 7.14959C3.8879 6.97377 4.12636 6.875 4.375 6.875H15.625C15.8736 6.875 16.1121 6.97377 16.2879 7.14959C16.4637 7.3254 16.5625 7.56386 16.5625 7.8125ZM4.375 5H15.625C15.8736 5 16.1121 4.90123 16.2879 4.72541C16.4637 4.5496 16.5625 4.31114 16.5625 4.0625C16.5625 3.81386 16.4637 3.5754 16.2879 3.39959C16.1121 3.22377 15.8736 3.125 15.625 3.125H4.375C4.12636 3.125 3.8879 3.22377 3.71209 3.39959C3.53627 3.5754 3.4375 3.81386 3.4375 4.0625C3.4375 4.31114 3.53627 4.5496 3.71209 4.72541C3.8879 4.90123 4.12636 5 4.375 5Z" fill="#191F2E"/>
</svg>
