<svg width="20" height="20" viewBox="0 0 20 20" fill="none" xmlns="http://www.w3.org/2000/svg">
<path d="M18.75 9.68755H17.4867L18.9937 5.97817C19.0796 5.74928 19.0726 5.49591 18.9743 5.27209C18.876 5.04826 18.6942 4.87167 18.4676 4.77997C18.241 4.68826 17.9875 4.6887 17.7613 4.78118C17.535 4.87367 17.3538 5.05088 17.2563 5.27505L15.4594 9.68989H12.6625L10.8656 5.27505C10.7955 5.10214 10.6753 4.95409 10.5206 4.84986C10.3658 4.74562 10.1835 4.68994 9.99687 4.68994C9.81028 4.68994 9.62793 4.74562 9.47317 4.84986C9.3184 4.95409 9.19826 5.10214 9.12812 5.27505L7.3375 9.68755H4.5375L2.74063 5.27271C2.64311 5.04854 2.4619 4.87132 2.23561 4.77884C2.00933 4.68636 1.75586 4.68592 1.52926 4.77762C1.30265 4.86932 1.12083 5.04591 1.02254 5.26974C0.92426 5.49357 0.917292 5.74694 1.00313 5.97583L2.51328 9.68755H1.25C1.00136 9.68755 0.762903 9.78632 0.587087 9.96214C0.411272 10.138 0.3125 10.3764 0.3125 10.6251C0.3125 10.8737 0.411272 11.1121 0.587087 11.288C0.762903 11.4638 1.00136 11.5626 1.25 11.5626H3.275L5.07187 15.9782C5.14201 16.1511 5.26215 16.2991 5.41692 16.4034C5.57168 16.5076 5.75403 16.5633 5.94063 16.5633C6.12722 16.5633 6.30957 16.5076 6.46433 16.4034C6.6191 16.2991 6.73924 16.1511 6.80938 15.9782L8.60625 11.5626H11.4062L13.2031 15.9782C13.2733 16.1511 13.3934 16.2991 13.5482 16.4034C13.7029 16.5076 13.8853 16.5633 14.0719 16.5633C14.2585 16.5633 14.4408 16.5076 14.5956 16.4034C14.7503 16.2991 14.8705 16.1511 14.9406 15.9782L16.7375 11.5626H18.75C18.9986 11.5626 19.2371 11.4638 19.4129 11.288C19.5887 11.1121 19.6875 10.8737 19.6875 10.6251C19.6875 10.3764 19.5887 10.138 19.4129 9.96214C19.2371 9.78632 18.9986 9.68755 18.75 9.68755ZM5.9375 13.1344L5.29922 11.5626H6.57578L5.9375 13.1344ZM9.36172 9.68755L10 8.11646L10.6383 9.68755H9.36172ZM14.0625 13.1344L13.4242 11.5626H14.7008L14.0625 13.1344Z" fill="#191F2E"/>
</svg>
