<svg width="20" height="20" viewBox="0 0 20 20" fill="none" xmlns="http://www.w3.org/2000/svg">
<path d="M17.3664 9.61405L10.4914 0.864051C10.4329 0.789637 10.3583 0.729476 10.2732 0.688107C10.1881 0.646739 10.0946 0.625244 10 0.625244C9.90535 0.625244 9.81194 0.646739 9.72682 0.688107C9.64169 0.729476 9.56707 0.789637 9.50859 0.864051L2.63359 9.61405C2.54717 9.72413 2.5002 9.86004 2.5002 9.99999C2.5002 10.1399 2.54717 10.2758 2.63359 10.3859L9.50859 19.1359C9.56707 19.2103 9.64169 19.2705 9.72682 19.3119C9.81194 19.3532 9.90535 19.3747 10 19.3747C10.0946 19.3747 10.1881 19.3532 10.2732 19.3119C10.3583 19.2705 10.4329 19.2103 10.4914 19.1359L17.3664 10.3859C17.4528 10.2758 17.4998 10.1399 17.4998 9.99999C17.4998 9.86004 17.4528 9.72413 17.3664 9.61405ZM10.625 12.1547V3.05702L15.8922 9.76014L10.625 12.1547ZM9.375 12.1547L4.10781 9.76014L9.375 3.05702V12.1547ZM9.375 13.5273V16.943L5.20078 11.6305L9.375 13.5273Z" fill="#191F2E"/>
</svg>
