<svg width="20" height="20" viewBox="0 0 20 20" fill="none" xmlns="http://www.w3.org/2000/svg">
<path d="M11.5625 11.875C12.8057 11.875 13.998 11.3811 14.8771 10.5021C15.7561 9.62299 16.25 8.4307 16.25 7.1875C16.25 5.9443 15.7561 4.75201 14.8771 3.87294C13.998 2.99386 12.8057 2.5 11.5625 2.5H6.875C6.70924 2.5 6.55027 2.56585 6.43306 2.68306C6.31585 2.80027 6.25 2.95924 6.25 3.125V10.625H4.375C4.20924 10.625 4.05027 10.6908 3.93306 10.8081C3.81585 10.9253 3.75 11.0842 3.75 11.25C3.75 11.4158 3.81585 11.5747 3.93306 11.6919C4.05027 11.8092 4.20924 11.875 4.375 11.875H6.25V13.125H4.375C4.20924 13.125 4.05027 13.1908 3.93306 13.3081C3.81585 13.4253 3.75 13.5842 3.75 13.75C3.75 13.9158 3.81585 14.0747 3.93306 14.1919C4.05027 14.3092 4.20924 14.375 4.375 14.375H6.25V16.875C6.25 17.0408 6.31585 17.1997 6.43306 17.3169C6.55027 17.4342 6.70924 17.5 6.875 17.5C7.04076 17.5 7.19973 17.4342 7.31694 17.3169C7.43415 17.1997 7.5 17.0408 7.5 16.875V14.375H11.25C11.4158 14.375 11.5747 14.3092 11.6919 14.1919C11.8092 14.0747 11.875 13.9158 11.875 13.75C11.875 13.5842 11.8092 13.4253 11.6919 13.3081C11.5747 13.1908 11.4158 13.125 11.25 13.125H7.5V11.875H11.5625ZM7.5 3.75H11.5625C12.4742 3.75 13.3485 4.11216 13.9932 4.75682C14.6378 5.40148 15 6.27582 15 7.1875C15 8.09918 14.6378 8.97352 13.9932 9.61818C13.3485 10.2628 12.4742 10.625 11.5625 10.625H7.5V3.75Z" fill="#191F2E"/>
</svg>
