<svg width="20" height="20" viewBox="0 0 20 20" fill="none" xmlns="http://www.w3.org/2000/svg">
<path d="M16.875 10.6251H15.625V9.37506H16.875C17.0408 9.37506 17.1997 9.30921 17.3169 9.192C17.4342 9.07479 17.5 8.91582 17.5 8.75006C17.5 8.5843 17.4342 8.42533 17.3169 8.30812C17.1997 8.19091 17.0408 8.12506 16.875 8.12506H15.625V3.59381C15.625 3.42805 15.5592 3.26908 15.4419 3.15186C15.3247 3.03465 15.1658 2.96881 15 2.96881C14.8342 2.96881 14.6753 3.03465 14.5581 3.15186C14.4408 3.26908 14.375 3.42805 14.375 3.59381V8.12506H9.32969L5.49297 3.20943C5.41293 3.10673 5.30282 3.0316 5.17801 2.99451C5.0532 2.95743 4.91992 2.96025 4.79679 3.00259C4.67366 3.04492 4.56683 3.12465 4.49121 3.23064C4.41559 3.33664 4.37496 3.4636 4.375 3.59381V8.12506H3.125C2.95924 8.12506 2.80027 8.19091 2.68306 8.30812C2.56585 8.42533 2.5 8.5843 2.5 8.75006C2.5 8.91582 2.56585 9.07479 2.68306 9.192C2.80027 9.30921 2.95924 9.37506 3.125 9.37506H4.375V10.6251H3.125C2.95924 10.6251 2.80027 10.6909 2.68306 10.8081C2.56585 10.9253 2.5 11.0843 2.5 11.2501C2.5 11.4158 2.56585 11.5748 2.68306 11.692C2.80027 11.8092 2.95924 11.8751 3.125 11.8751H4.375V16.4063C4.375 16.5721 4.44085 16.731 4.55806 16.8482C4.67527 16.9655 4.83424 17.0313 5 17.0313C5.16576 17.0313 5.32473 16.9655 5.44194 16.8482C5.55915 16.731 5.625 16.5721 5.625 16.4063V11.8751H10.6703L14.507 16.7907C14.5655 16.8656 14.6403 16.9263 14.7257 16.968C14.8111 17.0097 14.9049 17.0313 15 17.0313C15.0692 17.0315 15.1379 17.0198 15.2031 16.9969C15.3262 16.9546 15.433 16.875 15.5086 16.7691C15.5842 16.6633 15.6249 16.5364 15.625 16.4063V11.8751H16.875C17.0408 11.8751 17.1997 11.8092 17.3169 11.692C17.4342 11.5748 17.5 11.4158 17.5 11.2501C17.5 11.0843 17.4342 10.9253 17.3169 10.8081C17.1997 10.6909 17.0408 10.6251 16.875 10.6251ZM14.375 9.37506V10.6251H11.2805L10.3047 9.37506H14.375ZM5.625 5.41021L7.74375 8.12506H5.625V5.41021ZM5.625 10.6251V9.37506H8.71953L9.69531 10.6251H5.625ZM14.375 14.5899L12.2563 11.8751H14.375V14.5899Z" fill="#191F2E"/>
</svg>
