<svg width="20" height="20" viewBox="0 0 20 20" fill="none" xmlns="http://www.w3.org/2000/svg">
<path d="M4.0625 5C4.0625 4.75136 4.16127 4.5129 4.33709 4.33709C4.5129 4.16127 4.75136 4.0625 5 4.0625H15C15.2486 4.0625 15.4871 4.16127 15.6629 4.33709C15.8387 4.5129 15.9375 4.75136 15.9375 5C15.9375 5.24864 15.8387 5.4871 15.6629 5.66291C15.4871 5.83873 15.2486 5.9375 15 5.9375H5C4.75136 5.9375 4.5129 5.83873 4.33709 5.66291C4.16127 5.4871 4.0625 5.24864 4.0625 5ZM16.875 12.8125C16.6264 12.8125 16.3879 12.9113 16.2121 13.0871C16.0363 13.2629 15.9375 13.5014 15.9375 13.75V14.6875H13.75C13.5014 14.6875 13.2629 14.5887 13.0871 14.4129C12.9113 14.2371 12.8125 13.9986 12.8125 13.75V10.3125H16.25C16.4986 10.3125 16.7371 10.2137 16.9129 10.0379C17.0887 9.8621 17.1875 9.62364 17.1875 9.375C17.1875 9.12636 17.0887 8.8879 16.9129 8.71209C16.7371 8.53627 16.4986 8.4375 16.25 8.4375H3.75C3.50136 8.4375 3.2629 8.53627 3.08709 8.71209C2.91127 8.8879 2.8125 9.12636 2.8125 9.375C2.8125 9.62364 2.91127 9.8621 3.08709 10.0379C3.2629 10.2137 3.50136 10.3125 3.75 10.3125H7.1875V10.625C7.18626 11.7021 6.75785 12.7347 5.99625 13.4963C5.23465 14.2578 4.20206 14.6863 3.125 14.6875C2.87636 14.6875 2.6379 14.7863 2.46209 14.9621C2.28627 15.1379 2.1875 15.3764 2.1875 15.625C2.1875 15.8736 2.28627 16.1121 2.46209 16.2879C2.6379 16.4637 2.87636 16.5625 3.125 16.5625C4.69922 16.5608 6.20848 15.9348 7.32162 14.8216C8.43476 13.7085 9.06085 12.1992 9.0625 10.625V10.3125H10.9375V13.75C10.9375 14.4959 11.2338 15.2113 11.7613 15.7387C12.2887 16.2662 13.0041 16.5625 13.75 16.5625H16.875C17.1236 16.5625 17.3621 16.4637 17.5379 16.2879C17.7137 16.1121 17.8125 15.8736 17.8125 15.625V13.75C17.8125 13.5014 17.7137 13.2629 17.5379 13.0871C17.3621 12.9113 17.1236 12.8125 16.875 12.8125Z" fill="#191F2E"/>
</svg>
