<svg width="20" height="20" viewBox="0 0 20 20" fill="none" xmlns="http://www.w3.org/2000/svg">
<path d="M10 8.65469L10.5047 10H9.49532L10 8.65469ZM7.1875 12.5953L7.69219 11.25H6.68282L7.1875 12.5953ZM18.125 10C18.125 11.607 17.6485 13.1779 16.7557 14.514C15.8629 15.8502 14.594 16.8916 13.1093 17.5065C11.6247 18.1215 9.99099 18.2824 8.4149 17.9689C6.8388 17.6554 5.39106 16.8815 4.25476 15.7452C3.11846 14.6089 2.34463 13.1612 2.03112 11.5851C1.71762 10.009 1.87852 8.37535 2.49348 6.8907C3.10844 5.40605 4.14985 4.1371 5.486 3.24431C6.82214 2.35152 8.39303 1.875 10 1.875C12.1542 1.87727 14.2195 2.73403 15.7427 4.25727C17.266 5.78051 18.1227 7.84581 18.125 10ZM16.875 10.625C16.875 10.4592 16.8092 10.3003 16.6919 10.1831C16.5747 10.0658 16.4158 10 16.25 10H15.1203L16.2141 7.09453C16.2723 6.93913 16.2664 6.76697 16.1977 6.61591C16.129 6.46486 16.0031 6.34729 15.8477 6.28906C15.6923 6.23084 15.5201 6.23673 15.369 6.30545C15.218 6.37416 15.1004 6.50007 15.0422 6.65547L13.7922 10H11.8391L10.5891 6.65547C10.5447 6.53586 10.4647 6.4327 10.36 6.35985C10.2552 6.28701 10.1307 6.24796 10.0031 6.24796C9.87554 6.24796 9.75102 6.28701 9.64627 6.35985C9.54153 6.4327 9.46159 6.53586 9.41719 6.65547L8.16094 10H6.21407L4.96016 6.65547C4.90194 6.50007 4.78437 6.37416 4.63331 6.30545C4.48226 6.23673 4.31009 6.23084 4.15469 6.28906C3.99929 6.34729 3.87338 6.46486 3.80467 6.61591C3.73596 6.76697 3.73006 6.93913 3.78829 7.09453L4.88204 10H3.75C3.58424 10 3.42527 10.0658 3.30806 10.1831C3.19085 10.3003 3.125 10.4592 3.125 10.625C3.125 10.7908 3.19085 10.9497 3.30806 11.0669C3.42527 11.1842 3.58424 11.25 3.75 11.25H5.34844L6.60235 14.5945C6.64675 14.7141 6.72669 14.8173 6.83143 14.8901C6.93617 14.963 7.0607 15.002 7.18828 15.002C7.31587 15.002 7.4404 14.963 7.54514 14.8901C7.64988 14.8173 7.72983 14.7141 7.77422 14.5945L9.02657 11.25H10.9734L12.2234 14.5945C12.2678 14.7141 12.3478 14.8173 12.4525 14.8901C12.5573 14.963 12.6818 15.002 12.8094 15.002C12.937 15.002 13.0615 14.963 13.1662 14.8901C13.271 14.8173 13.3509 14.7141 13.3953 14.5945L14.6453 11.25H16.25C16.4158 11.25 16.5747 11.1842 16.6919 11.0669C16.8092 10.9497 16.875 10.7908 16.875 10.625ZM12.8125 12.5953L13.3172 11.25H12.3078L12.8125 12.5953Z" fill="#191F2E"/>
</svg>
