<svg width="20" height="20" viewBox="0 0 20 20" fill="none" xmlns="http://www.w3.org/2000/svg">
<path d="M13.75 8.4375C13.75 9.01766 13.5195 9.57406 13.1093 9.9843C12.6991 10.3945 12.1427 10.625 11.5625 10.625H8.75V6.25H11.5625C12.1427 6.25 12.6991 6.48047 13.1093 6.8907C13.5195 7.30094 13.75 7.85734 13.75 8.4375ZM18.125 10C18.125 11.607 17.6485 13.1779 16.7557 14.514C15.8629 15.8502 14.594 16.8916 13.1093 17.5065C11.6247 18.1215 9.99099 18.2824 8.4149 17.9689C6.8388 17.6554 5.39106 16.8815 4.25476 15.7452C3.11846 14.6089 2.34463 13.1612 2.03112 11.5851C1.71762 10.009 1.87852 8.37535 2.49348 6.8907C3.10844 5.40605 4.14985 4.1371 5.486 3.24431C6.82214 2.35152 8.39303 1.875 10 1.875C12.1542 1.87727 14.2195 2.73403 15.7427 4.25727C17.266 5.78051 18.1227 7.84581 18.125 10ZM15 8.4375C14.999 7.52614 14.6365 6.65239 13.992 6.00796C13.3476 5.36353 12.4739 5.00103 11.5625 5H8.125C7.95924 5 7.80027 5.06585 7.68306 5.18306C7.56585 5.30027 7.5 5.45924 7.5 5.625V10.625H6.25C6.08424 10.625 5.92527 10.6908 5.80806 10.8081C5.69085 10.9253 5.625 11.0842 5.625 11.25C5.625 11.4158 5.69085 11.5747 5.80806 11.6919C5.92527 11.8092 6.08424 11.875 6.25 11.875H7.5V13.125H6.25C6.08424 13.125 5.92527 13.1908 5.80806 13.3081C5.69085 13.4253 5.625 13.5842 5.625 13.75C5.625 13.9158 5.69085 14.0747 5.80806 14.1919C5.92527 14.3092 6.08424 14.375 6.25 14.375H7.5V15.625C7.5 15.7908 7.56585 15.9497 7.68306 16.0669C7.80027 16.1842 7.95924 16.25 8.125 16.25C8.29076 16.25 8.44974 16.1842 8.56695 16.0669C8.68416 15.9497 8.75 15.7908 8.75 15.625V14.375H11.875C12.0408 14.375 12.1997 14.3092 12.3169 14.1919C12.4342 14.0747 12.5 13.9158 12.5 13.75C12.5 13.5842 12.4342 13.4253 12.3169 13.3081C12.1997 13.1908 12.0408 13.125 11.875 13.125H8.75V11.875H11.5625C12.4739 11.874 13.3476 11.5115 13.992 10.867C14.6365 10.2226 14.999 9.34886 15 8.4375Z" fill="#191F2E"/>
</svg>
