<svg width="20" height="20" viewBox="0 0 20 20" fill="none" xmlns="http://www.w3.org/2000/svg">
<path d="M10 1.875C8.39303 1.875 6.82214 2.35152 5.486 3.24431C4.14985 4.1371 3.10844 5.40605 2.49348 6.8907C1.87852 8.37535 1.71762 10.009 2.03112 11.5851C2.34463 13.1612 3.11846 14.6089 4.25476 15.7452C5.39106 16.8815 6.8388 17.6554 8.4149 17.9689C9.99099 18.2824 11.6247 18.1215 13.1093 17.5065C14.594 16.8916 15.8629 15.8502 16.7557 14.514C17.6485 13.1779 18.125 11.607 18.125 10C18.1227 7.84581 17.266 5.78051 15.7427 4.25727C14.2195 2.73403 12.1542 1.87727 10 1.875ZM13.125 15H6.25C6.08424 15 5.92527 14.9342 5.80806 14.8169C5.69085 14.6997 5.625 14.5408 5.625 14.375C5.625 14.2092 5.69085 14.0503 5.80806 13.9331C5.92527 13.8158 6.08424 13.75 6.25 13.75H6.5625C6.9769 13.75 7.37433 13.5854 7.66736 13.2924C7.96038 12.9993 8.125 12.6019 8.125 12.1875V10.625H6.25C6.08424 10.625 5.92527 10.5592 5.80806 10.4419C5.69085 10.3247 5.625 10.1658 5.625 10C5.625 9.83424 5.69085 9.67527 5.80806 9.55806C5.92527 9.44085 6.08424 9.375 6.25 9.375H8.125V7.5C8.12502 6.95145 8.26942 6.41258 8.5437 5.93753C8.81799 5.46248 9.21248 5.068 9.68754 4.79373C10.1626 4.51946 10.7015 4.37508 11.25 4.37508C11.7986 4.37508 12.3374 4.51948 12.8125 4.79375C12.8858 4.83358 12.9505 4.88769 13.0026 4.9529C13.0547 5.01811 13.0932 5.09309 13.1158 5.17342C13.1385 5.25375 13.1448 5.3378 13.1344 5.42062C13.1241 5.50343 13.0972 5.58333 13.0555 5.65561C13.0137 5.72788 12.9579 5.79105 12.8914 5.84141C12.8248 5.89177 12.7488 5.92829 12.6679 5.94881C12.587 5.96933 12.5028 5.97344 12.4203 5.9609C12.3378 5.94836 12.2587 5.91941 12.1875 5.87578C11.9024 5.7112 11.5791 5.62456 11.2499 5.62458C10.9207 5.6246 10.5974 5.71127 10.3123 5.87589C10.0273 6.0405 9.79058 6.27726 9.62605 6.56235C9.46151 6.84745 9.37493 7.17083 9.375 7.5V9.375H11.25C11.4158 9.375 11.5747 9.44085 11.6919 9.55806C11.8092 9.67527 11.875 9.83424 11.875 10C11.875 10.1658 11.8092 10.3247 11.6919 10.4419C11.5747 10.5592 11.4158 10.625 11.25 10.625H9.375V12.1875C9.37569 12.744 9.2103 13.288 8.9 13.75H13.125C13.2908 13.75 13.4497 13.8158 13.5669 13.9331C13.6842 14.0503 13.75 14.2092 13.75 14.375C13.75 14.5408 13.6842 14.6997 13.5669 14.8169C13.4497 14.9342 13.2908 15 13.125 15Z" fill="#191F2E"/>
</svg>
