<svg width="20" height="20" viewBox="0 0 20 20" fill="none" xmlns="http://www.w3.org/2000/svg">
<path d="M10 1.875C8.39303 1.875 6.82214 2.35152 5.486 3.24431C4.14985 4.1371 3.10844 5.40605 2.49348 6.8907C1.87852 8.37535 1.71762 10.009 2.03112 11.5851C2.34463 13.1612 3.11846 14.6089 4.25476 15.7452C5.39106 16.8815 6.8388 17.6554 8.4149 17.9689C9.99099 18.2824 11.6247 18.1215 13.1093 17.5065C14.594 16.8916 15.8629 15.8502 16.7557 14.514C17.6485 13.1779 18.125 11.607 18.125 10C18.1227 7.84581 17.266 5.78051 15.7427 4.25727C14.2195 2.73403 12.1542 1.87727 10 1.875ZM10 8.125C10.1658 8.125 10.3247 8.19085 10.4419 8.30806C10.5592 8.42527 10.625 8.58424 10.625 8.75C10.625 8.91576 10.5592 9.07473 10.4419 9.19194C10.3247 9.30915 10.1658 9.375 10 9.375H6.875V10.625H9.375C9.54076 10.625 9.69974 10.6908 9.81695 10.8081C9.93416 10.9253 10 11.0842 10 11.25C10 11.4158 9.93416 11.5747 9.81695 11.6919C9.69974 11.8092 9.54076 11.875 9.375 11.875H7.02266C7.19984 12.433 7.51584 12.9369 7.94103 13.3394C8.36622 13.7419 8.88667 14.0298 9.45357 14.1762C10.0205 14.3225 10.6152 14.3224 11.1821 14.176C11.749 14.0296 12.2694 13.7416 12.6945 13.3391C12.7532 13.2786 12.8235 13.2306 12.9012 13.198C12.9789 13.1654 13.0624 13.1489 13.1467 13.1494C13.2309 13.1499 13.3142 13.1674 13.3915 13.2009C13.4688 13.2344 13.5386 13.2832 13.5965 13.3443C13.6545 13.4054 13.6995 13.4777 13.7289 13.5567C13.7582 13.6356 13.7713 13.7197 13.7673 13.8039C13.7633 13.8881 13.7424 13.9705 13.7057 14.0464C13.669 14.1223 13.6174 14.1899 13.5539 14.2453C12.9513 14.8162 12.2083 15.2175 11.4004 15.4084C10.5925 15.5993 9.74854 15.5731 8.95409 15.3324C8.15963 15.0916 7.44301 14.645 6.87698 14.0378C6.31095 13.4306 5.91567 12.6844 5.73125 11.875H5C4.83424 11.875 4.67527 11.8092 4.55806 11.6919C4.44085 11.5747 4.375 11.4158 4.375 11.25C4.375 11.0842 4.44085 10.9253 4.55806 10.8081C4.67527 10.6908 4.83424 10.625 5 10.625H5.625V9.375H5C4.83424 9.375 4.67527 9.30915 4.55806 9.19194C4.44085 9.07473 4.375 8.91576 4.375 8.75C4.375 8.58424 4.44085 8.42527 4.55806 8.30806C4.67527 8.19085 4.83424 8.125 5 8.125H5.7125C5.88245 7.3043 6.26858 6.54392 6.83095 5.9225C7.39333 5.30108 8.11152 4.8412 8.91123 4.59042C9.71094 4.33965 10.5631 4.3071 11.3796 4.49613C12.1962 4.68517 12.9473 5.08892 13.5555 5.66562C13.619 5.72102 13.6706 5.78868 13.7073 5.86453C13.7439 5.94039 13.7649 6.02288 13.7689 6.10704C13.7729 6.19121 13.7598 6.2753 13.7304 6.35429C13.7011 6.43327 13.6561 6.5055 13.5981 6.56664C13.5401 6.62778 13.4704 6.67656 13.3931 6.71006C13.3158 6.74356 13.2325 6.76108 13.1482 6.76157C13.064 6.76206 12.9805 6.74551 12.9028 6.71291C12.8251 6.68031 12.7548 6.63234 12.6961 6.57188C12.2653 6.16359 11.7367 5.87311 11.1611 5.72841C10.5855 5.58371 9.98235 5.58967 9.40972 5.74572C8.8371 5.90177 8.31431 6.20265 7.89171 6.61937C7.4691 7.03609 7.16093 7.55462 6.99688 8.125H10Z" fill="#191F2E"/>
</svg>
