<svg width="20" height="20" viewBox="0 0 20 20" fill="none" xmlns="http://www.w3.org/2000/svg">
<path d="M13.9953 1.88125C12.9125 1.27266 11.4938 0.9375 10 0.9375C8.50625 0.9375 7.0875 1.27266 6.00469 1.88125C4.75234 2.58594 4.0625 3.58281 4.0625 4.6875V15.3125C4.0625 16.4172 4.75234 17.4141 6.00469 18.1187C7.0875 18.7273 8.50625 19.0625 10 19.0625C11.4938 19.0625 12.9125 18.7273 13.9953 18.1187C15.2453 17.4156 15.9375 16.4172 15.9375 15.3125V4.6875C15.9375 3.58281 15.2477 2.58594 13.9953 1.88125ZM6.92422 3.51562C7.71875 3.06875 8.83984 2.8125 10 2.8125C11.1602 2.8125 12.2812 3.06875 13.0758 3.51562C13.7008 3.86875 14.0625 4.29688 14.0625 4.6875C14.0625 5.07812 13.7031 5.50625 13.0758 5.85938C12.2812 6.30625 11.1602 6.5625 10 6.5625C8.83984 6.5625 7.71875 6.30625 6.92422 5.85938C6.29687 5.50625 5.9375 5.07812 5.9375 4.6875C5.9375 4.29688 6.29687 3.86875 6.92422 3.51562ZM13.0758 16.4844C12.2812 16.9312 11.1602 17.1875 10 17.1875C8.83984 17.1875 7.71875 16.9312 6.92422 16.4844C6.29687 16.1313 5.9375 15.7031 5.9375 15.3125V7.45312L6.00469 7.49375C7.0875 8.10234 8.50625 8.4375 10 8.4375C11.4938 8.4375 12.9125 8.10234 13.9953 7.49375L14.0625 7.45312V15.3125C14.0625 15.7031 13.7031 16.1313 13.0758 16.4844Z" fill="#191F2E"/>
</svg>
