<svg width="20" height="20" viewBox="0 0 20 20" fill="none" xmlns="http://www.w3.org/2000/svg">
<path d="M9.375 5.9375V14.6875C9.375 14.7704 9.34208 14.8499 9.28347 14.9085C9.22487 14.9671 9.14538 15 9.0625 15H7.5V16.25H8.72891C8.89015 16.248 9.04618 16.3071 9.16572 16.4153C9.28525 16.5235 9.35945 16.6729 9.37344 16.8336C9.37911 16.9191 9.36715 17.0048 9.33829 17.0855C9.30944 17.1662 9.2643 17.2401 9.20569 17.3026C9.14708 17.365 9.07624 17.4148 8.99758 17.4488C8.91892 17.4828 8.83412 17.5002 8.74844 17.5H5.02109C4.85958 17.5024 4.70316 17.4435 4.58329 17.3352C4.46342 17.227 4.389 17.0773 4.375 16.9164C4.36932 16.8309 4.38129 16.7452 4.41014 16.6645C4.439 16.5838 4.48414 16.5099 4.54275 16.4474C4.60136 16.385 4.6722 16.3352 4.75086 16.3012C4.82952 16.2672 4.91432 16.2498 5 16.25H6.25V15H2.5C2.00272 15 1.52581 14.8025 1.17417 14.4508C0.822544 14.0992 0.625 13.6223 0.625 13.125V7.5C0.625 7.00272 0.822544 6.52581 1.17417 6.17417C1.52581 5.82254 2.00272 5.625 2.5 5.625H9.0625C9.14538 5.625 9.22487 5.65792 9.28347 5.71653C9.34208 5.77513 9.375 5.85462 9.375 5.9375ZM19.375 3.75V16.25C19.375 16.5815 19.2433 16.8995 19.0089 17.1339C18.7745 17.3683 18.4565 17.5 18.125 17.5H11.875C11.5435 17.5 11.2255 17.3683 10.9911 17.1339C10.7567 16.8995 10.625 16.5815 10.625 16.25V3.75C10.625 3.41848 10.7567 3.10054 10.9911 2.86612C11.2255 2.6317 11.5435 2.5 11.875 2.5H18.125C18.4565 2.5 18.7745 2.6317 19.0089 2.86612C19.2433 3.10054 19.375 3.41848 19.375 3.75ZM15.9297 14.1852C15.9553 13.991 15.9194 13.7937 15.8271 13.6209C15.7349 13.4481 15.5908 13.3086 15.4152 13.2219C15.2395 13.1352 15.0412 13.1057 14.8479 13.1376C14.6546 13.1694 14.4762 13.261 14.3376 13.3994C14.1991 13.5378 14.1074 13.7162 14.0753 13.9094C14.0433 14.1026 14.0726 14.301 14.1592 14.4767C14.2457 14.6524 14.385 14.7967 14.5577 14.8891C14.7304 14.9816 14.9277 15.0176 15.1219 14.9922C15.3266 14.9654 15.5168 14.8718 15.6628 14.7258C15.8089 14.5799 15.9027 14.3899 15.9297 14.1852ZM17.5 8.08359C17.486 7.92267 17.4116 7.77303 17.2917 7.66475C17.1718 7.55648 17.0154 7.49761 16.8539 7.5H13.1461C12.9849 7.49801 12.8288 7.55706 12.7093 7.66529C12.5897 7.77352 12.5155 7.92295 12.5016 8.08359C12.4959 8.16909 12.5078 8.25483 12.5367 8.33551C12.5656 8.41618 12.6107 8.49006 12.6693 8.55255C12.7279 8.61505 12.7988 8.66483 12.8774 8.69879C12.9561 8.73276 13.0409 8.75019 13.1266 8.75H16.8766C16.9621 8.74997 17.0467 8.73239 17.1252 8.69832C17.2037 8.66426 17.2743 8.61445 17.3328 8.55198C17.3912 8.48951 17.4362 8.4157 17.465 8.33514C17.4938 8.25457 17.5057 8.16895 17.5 8.08359ZM17.5 5.58359C17.486 5.42267 17.4116 5.27303 17.2917 5.16475C17.1718 5.05648 17.0154 4.99761 16.8539 5H13.1461C12.9846 4.99761 12.8282 5.05648 12.7083 5.16475C12.5884 5.27303 12.514 5.42267 12.5 5.58359C12.4943 5.66909 12.5063 5.75483 12.5351 5.83551C12.564 5.91618 12.6091 5.99006 12.6677 6.05255C12.7264 6.11505 12.7972 6.16483 12.8759 6.19879C12.9545 6.23276 13.0393 6.25019 13.125 6.25H16.875C16.9607 6.25019 17.0455 6.23276 17.1241 6.19879C17.2028 6.16483 17.2736 6.11505 17.3323 6.05255C17.3909 5.99006 17.436 5.91618 17.4649 5.83551C17.4937 5.75483 17.5057 5.66909 17.5 5.58359Z" fill="#191F2E"/>
</svg>
