<svg width="20" height="20" viewBox="0 0 20 20" fill="none" xmlns="http://www.w3.org/2000/svg">
<path d="M16.25 2.8125H3.75C3.16984 2.8125 2.61344 3.04297 2.2032 3.4532C1.79297 3.86344 1.5625 4.41984 1.5625 5V13.4375C1.5625 14.0177 1.79297 14.5741 2.2032 14.9843C2.61344 15.3945 3.16984 15.625 3.75 15.625H9.0625V16.5625H7.5C7.25136 16.5625 7.0129 16.6613 6.83709 16.8371C6.66127 17.0129 6.5625 17.2514 6.5625 17.5C6.5625 17.7486 6.66127 17.9871 6.83709 18.1629C7.0129 18.3387 7.25136 18.4375 7.5 18.4375H12.5C12.7486 18.4375 12.9871 18.3387 13.1629 18.1629C13.3387 17.9871 13.4375 17.7486 13.4375 17.5C13.4375 17.2514 13.3387 17.0129 13.1629 16.8371C12.9871 16.6613 12.7486 16.5625 12.5 16.5625H10.9375V15.625H16.25C16.5373 15.625 16.8217 15.5684 17.0871 15.4585C17.3525 15.3486 17.5937 15.1874 17.7968 14.9843C17.9999 14.7812 18.1611 14.54 18.271 14.2746C18.3809 14.0092 18.4375 13.7248 18.4375 13.4375V5C18.4375 4.71273 18.3809 4.42828 18.271 4.16288C18.1611 3.89748 17.9999 3.65633 17.7968 3.4532C17.5937 3.25008 17.3525 3.08895 17.0871 2.97901C16.8217 2.86908 16.5373 2.8125 16.25 2.8125ZM3.75 4.6875H16.25C16.3329 4.6875 16.4124 4.72042 16.471 4.77903C16.5296 4.83763 16.5625 4.91712 16.5625 5V10.625H3.4375V5C3.4375 4.91712 3.47042 4.83763 3.52903 4.77903C3.58763 4.72042 3.66712 4.6875 3.75 4.6875ZM16.25 13.75H3.75C3.66712 13.75 3.58763 13.7171 3.52903 13.6585C3.47042 13.5999 3.4375 13.5204 3.4375 13.4375V12.5H16.5625V13.4375C16.5625 13.5204 16.5296 13.5999 16.471 13.6585C16.4124 13.7171 16.3329 13.75 16.25 13.75Z" fill="#191F2E"/>
</svg>
