<svg width="20" height="20" viewBox="0 0 20 20" fill="none" xmlns="http://www.w3.org/2000/svg">
<path d="M2.1875 7.5V12.8125C2.1875 12.8954 2.22042 12.9749 2.27903 13.0335C2.33763 13.0921 2.41712 13.125 2.5 13.125H8.4375C8.68614 13.125 8.9246 13.2238 9.10041 13.3996C9.27623 13.5754 9.375 13.8139 9.375 14.0625C9.375 14.3111 9.27623 14.5496 9.10041 14.7254C8.9246 14.9012 8.68614 15 8.4375 15H7.8125V15.9375H8.4375C8.68614 15.9375 8.9246 16.0363 9.10041 16.2121C9.27623 16.3879 9.375 16.6264 9.375 16.875C9.375 17.1236 9.27623 17.3621 9.10041 17.5379C8.9246 17.7137 8.68614 17.8125 8.4375 17.8125H5.3125C5.06386 17.8125 4.8254 17.7137 4.64959 17.5379C4.47377 17.3621 4.375 17.1236 4.375 16.875C4.375 16.6264 4.47377 16.3879 4.64959 16.2121C4.8254 16.0363 5.06386 15.9375 5.3125 15.9375H5.9375V15H2.5C1.91984 15 1.36344 14.7695 0.953204 14.3593C0.542968 13.9491 0.3125 13.3927 0.3125 12.8125V7.5C0.3125 6.91984 0.542968 6.36344 0.953204 5.9532C1.36344 5.54297 1.91984 5.3125 2.5 5.3125H8.4375C8.68614 5.3125 8.9246 5.41127 9.10041 5.58709C9.27623 5.7629 9.375 6.00136 9.375 6.25C9.375 6.49864 9.27623 6.7371 9.10041 6.91291C8.9246 7.08873 8.68614 7.1875 8.4375 7.1875H2.5C2.41712 7.1875 2.33763 7.22042 2.27903 7.27903C2.22042 7.33763 2.1875 7.41712 2.1875 7.5ZM14.0625 6.875H15.9375C16.1861 6.875 16.4246 6.77623 16.6004 6.60041C16.7762 6.4246 16.875 6.18614 16.875 5.9375C16.875 5.68886 16.7762 5.4504 16.6004 5.27459C16.4246 5.09877 16.1861 5 15.9375 5H14.0625C13.8139 5 13.5754 5.09877 13.3996 5.27459C13.2238 5.4504 13.125 5.68886 13.125 5.9375C13.125 6.18614 13.2238 6.4246 13.3996 6.60041C13.5754 6.77623 13.8139 6.875 14.0625 6.875ZM14.0625 9.6875H15.9375C16.1861 9.6875 16.4246 9.58873 16.6004 9.41291C16.7762 9.2371 16.875 8.99864 16.875 8.75C16.875 8.50136 16.7762 8.2629 16.6004 8.08709C16.4246 7.91127 16.1861 7.8125 15.9375 7.8125H14.0625C13.8139 7.8125 13.5754 7.91127 13.3996 8.08709C13.2238 8.2629 13.125 8.50136 13.125 8.75C13.125 8.99864 13.2238 9.2371 13.3996 9.41291C13.5754 9.58873 13.8139 9.6875 14.0625 9.6875ZM19.6875 3.75V16.25C19.6875 16.6644 19.5229 17.0618 19.2299 17.3549C18.9368 17.6479 18.5394 17.8125 18.125 17.8125H11.875C11.4606 17.8125 11.0632 17.6479 10.7701 17.3549C10.4771 17.0618 10.3125 16.6644 10.3125 16.25V3.75C10.3125 3.3356 10.4771 2.93817 10.7701 2.64515C11.0632 2.35212 11.4606 2.1875 11.875 2.1875H18.125C18.5394 2.1875 18.9368 2.35212 19.2299 2.64515C19.5229 2.93817 19.6875 3.3356 19.6875 3.75ZM17.8125 4.0625H12.1875V15.9375H17.8125V4.0625ZM15 12.5C14.7528 12.5 14.5111 12.5733 14.3055 12.7107C14.1 12.848 13.9398 13.0432 13.8451 13.2716C13.7505 13.5001 13.7258 13.7514 13.774 13.9939C13.8222 14.2363 13.9413 14.4591 14.1161 14.6339C14.2909 14.8087 14.5137 14.9278 14.7561 14.976C14.9986 15.0242 15.2499 14.9995 15.4784 14.9049C15.7068 14.8102 15.902 14.65 16.0393 14.4445C16.1767 14.2389 16.25 13.9972 16.25 13.75C16.25 13.4185 16.1183 13.1005 15.8839 12.8661C15.6495 12.6317 15.3315 12.5 15 12.5Z" fill="#191F2E"/>
</svg>
