<svg width="20" height="20" viewBox="0 0 20 20" fill="none" xmlns="http://www.w3.org/2000/svg">
<path d="M19.375 8.75021H17.1938L13.4828 3.64006C13.3704 3.48566 13.224 3.35909 13.055 3.27006C12.886 3.18103 12.6989 3.13191 12.5079 3.12648C12.317 3.12105 12.1274 3.15945 11.9536 3.23873C11.7798 3.318 11.6265 3.43605 11.5055 3.58381L10.5016 4.74787L10.4859 4.76584C10.4278 4.83891 10.3539 4.89793 10.2697 4.93849C10.1856 4.97906 10.0934 5.00012 10 5.00012C9.9066 5.00012 9.8144 4.97906 9.73027 4.93849C9.64613 4.89793 9.57223 4.83891 9.51406 4.76584L9.49844 4.74787L8.49453 3.58381C8.37348 3.43605 8.22018 3.318 8.0464 3.23873C7.87262 3.15945 7.68298 3.12105 7.49205 3.12648C7.30112 3.13191 7.11397 3.18103 6.94498 3.27006C6.77598 3.35909 6.62964 3.48566 6.51719 3.64006L2.80625 8.75021H0.625C0.45924 8.75021 0.300269 8.81606 0.183058 8.93327C0.065848 9.05048 0 9.20945 0 9.37521C0 9.54097 0.065848 9.69994 0.183058 9.81715C0.300269 9.93436 0.45924 10.0002 0.625 10.0002H19.375C19.5408 10.0002 19.6997 9.93436 19.8169 9.81715C19.9342 9.69994 20 9.54097 20 9.37521C20 9.20945 19.9342 9.05048 19.8169 8.93327C19.6997 8.81606 19.5408 8.75021 19.375 8.75021ZM7.52656 4.37521L7.54141 4.39318L8.54531 5.55646C8.72113 5.77265 8.94292 5.94694 9.19455 6.06664C9.44619 6.18634 9.72134 6.24845 10 6.24845C10.2787 6.24845 10.5538 6.18634 10.8054 6.06664C11.0571 5.94694 11.2789 5.77265 11.4547 5.55646L12.4586 4.39318C12.4633 4.38693 12.4664 4.38146 12.4719 4.37521L15.6484 8.75021H4.35078L7.52656 4.37521ZM14.0625 11.2502C13.3708 11.2503 12.7034 11.5054 12.1878 11.9666C11.6723 12.4278 11.3448 13.0628 11.268 13.7502H8.73203C8.65499 13.0634 8.32778 12.429 7.81283 11.9681C7.29787 11.5072 6.63123 11.252 5.94013 11.2512C5.24902 11.2505 4.58182 11.5042 4.06587 11.964C3.54991 12.4238 3.22131 13.0575 3.14278 13.7441C3.06424 14.4308 3.24127 15.1223 3.64008 15.6867C4.03889 16.2511 4.63156 16.649 5.30499 16.8043C5.97843 16.9596 6.68547 16.8615 7.2912 16.5288C7.89693 16.196 8.35894 15.6519 8.58906 15.0002H11.4109C11.5828 15.4864 11.885 15.9159 12.2845 16.2419C12.684 16.5678 13.1655 16.7777 13.6762 16.8485C14.1869 16.9194 14.7073 16.8485 15.1805 16.6435C15.6536 16.4386 16.0613 16.1075 16.359 15.6865C16.6567 15.2655 16.8329 14.7707 16.8684 14.2563C16.9039 13.7419 16.7973 13.2277 16.5603 12.7697C16.3232 12.3118 15.9649 11.9279 15.5243 11.6599C15.0838 11.3919 14.5781 11.2502 14.0625 11.2502ZM5.9375 15.6252C5.62847 15.6252 5.32637 15.5336 5.06942 15.3619C4.81247 15.1902 4.6122 14.9462 4.49394 14.6607C4.37568 14.3751 4.34473 14.061 4.40502 13.7579C4.46531 13.4548 4.61413 13.1764 4.83265 12.9579C5.05117 12.7393 5.32958 12.5905 5.63267 12.5302C5.93577 12.4699 6.24993 12.5009 6.53544 12.6192C6.82095 12.7374 7.06498 12.9377 7.23667 13.1946C7.40836 13.4516 7.5 13.7537 7.5 14.0627C7.5 14.2679 7.45958 14.4711 7.38106 14.6607C7.30254 14.8502 7.18745 15.0225 7.04235 15.1676C6.89726 15.3127 6.72501 15.4278 6.53544 15.5063C6.34587 15.5848 6.14269 15.6252 5.9375 15.6252ZM14.0625 15.6252C13.7535 15.6252 13.4514 15.5336 13.1944 15.3619C12.9375 15.1902 12.7372 14.9462 12.6189 14.6607C12.5007 14.3751 12.4697 14.061 12.53 13.7579C12.5903 13.4548 12.7391 13.1764 12.9576 12.9579C13.1762 12.7393 13.4546 12.5905 13.7577 12.5302C14.0608 12.4699 14.3749 12.5009 14.6604 12.6192C14.946 12.7374 15.19 12.9377 15.3617 13.1946C15.5334 13.4516 15.625 13.7537 15.625 14.0627C15.625 14.4771 15.4604 14.8745 15.1674 15.1676C14.8743 15.4606 14.4769 15.6252 14.0625 15.6252Z" fill="#191F2E"/>
</svg>
