<svg width="20" height="20" viewBox="0 0 20 20" fill="none" xmlns="http://www.w3.org/2000/svg">
<path d="M19.0625 8.1251H17.1258L13.7359 3.45635C13.5956 3.26355 13.4129 3.10544 13.202 2.99413C12.9911 2.88281 12.7576 2.82126 12.5192 2.81417C12.2808 2.80708 12.044 2.85465 11.8268 2.95323C11.6097 3.05181 11.418 3.19879 11.2664 3.38291L10.2648 4.54385C10.257 4.55244 10.2492 4.56182 10.2422 4.57119C10.2129 4.60713 10.1759 4.6361 10.1341 4.65599C10.0922 4.67588 10.0464 4.6862 10 4.6862C9.95363 4.6862 9.90784 4.67588 9.86595 4.65599C9.82406 4.6361 9.78712 4.60713 9.75781 4.57119C9.75078 4.56182 9.74297 4.55244 9.73516 4.54385L8.73359 3.38291C8.58203 3.19879 8.39032 3.05181 8.17318 2.95323C7.95603 2.85465 7.7192 2.80708 7.48082 2.81417C7.24245 2.82126 7.00886 2.88281 6.79796 2.99413C6.58705 3.10544 6.40442 3.26355 6.26406 3.45635L2.87422 8.1251H0.9375C0.68886 8.1251 0.450403 8.22387 0.274587 8.39968C0.098772 8.5755 0 8.81396 0 9.0626C0 9.31124 0.098772 9.54969 0.274587 9.72551C0.450403 9.90132 0.68886 10.0001 0.9375 10.0001H19.0625C19.3111 10.0001 19.5496 9.90132 19.7254 9.72551C19.9012 9.54969 20 9.31124 20 9.0626C20 8.81396 19.9012 8.5755 19.7254 8.39968C19.5496 8.22387 19.3111 8.1251 19.0625 8.1251ZM7.54844 4.879L8.30547 5.75713C8.51062 6.00842 8.7691 6.21095 9.06218 6.35002C9.35525 6.4891 9.6756 6.56125 10 6.56125C10.3244 6.56125 10.6447 6.4891 10.9378 6.35002C11.2309 6.21095 11.4894 6.00842 11.6945 5.75713L12.4516 4.879L14.8086 8.1251H5.19141L7.54844 4.879ZM14.0625 10.9376C13.3424 10.9385 12.6446 11.1876 12.0867 11.643C11.5288 12.0984 11.145 12.7322 11 13.4376H9C8.85132 12.7064 8.44593 12.0526 7.85712 11.5943C7.26832 11.136 6.53497 10.9035 5.78967 10.9388C5.04436 10.9742 4.3363 11.275 3.7935 11.7869C3.2507 12.2989 2.909 12.9882 2.83016 13.7301C2.75133 14.4721 2.94057 15.2178 3.36368 15.8324C3.78678 16.4469 4.41582 16.8899 5.13706 17.081C5.8583 17.2722 6.62413 17.199 7.29609 16.8746C7.96805 16.5503 8.50178 15.9962 8.80078 15.3126H11.1992C11.4246 15.829 11.7854 16.2749 12.2434 16.603C12.7015 16.9311 13.2397 17.1293 13.8012 17.1766C14.3626 17.2239 14.9264 17.1184 15.4328 16.8715C15.9393 16.6246 16.3696 16.2453 16.6781 15.7739C16.9867 15.3024 17.162 14.7563 17.1856 14.1934C17.2092 13.6304 17.0801 13.0716 16.8121 12.576C16.544 12.0804 16.147 11.6665 15.663 11.3781C15.1789 11.0896 14.6259 10.9374 14.0625 10.9376ZM5.9375 15.3126C5.69027 15.3126 5.4486 15.2393 5.24304 15.1019C5.03748 14.9646 4.87726 14.7694 4.78265 14.541C4.68804 14.3125 4.66329 14.0612 4.71152 13.8187C4.75975 13.5763 4.8788 13.3535 5.05362 13.1787C5.22843 13.0039 5.45116 12.8848 5.69364 12.8366C5.93611 12.7884 6.18745 12.8131 6.41585 12.9077C6.64426 13.0024 6.83949 13.1626 6.97684 13.3681C7.11419 13.5737 7.1875 13.8154 7.1875 14.0626C7.1875 14.3941 7.0558 14.7121 6.82138 14.9465C6.58696 15.1809 6.26902 15.3126 5.9375 15.3126ZM14.0625 15.3126C13.8153 15.3126 13.5736 15.2393 13.368 15.1019C13.1625 14.9646 13.0023 14.7694 12.9076 14.541C12.813 14.3125 12.7883 14.0612 12.8365 13.8187C12.8847 13.5763 13.0038 13.3535 13.1786 13.1787C13.3534 13.0039 13.5762 12.8848 13.8186 12.8366C14.0611 12.7884 14.3124 12.8131 14.5409 12.9077C14.7693 13.0024 14.9645 13.1626 15.1018 13.3681C15.2392 13.5737 15.3125 13.8154 15.3125 14.0626C15.3125 14.3941 15.1808 14.7121 14.9464 14.9465C14.712 15.1809 14.394 15.3126 14.0625 15.3126Z" fill="#191F2E"/>
</svg>
