<svg width="20" height="20" viewBox="0 0 20 20" fill="none" xmlns="http://www.w3.org/2000/svg">
<path d="M15 1.875H5C4.50272 1.875 4.02581 2.07254 3.67417 2.42417C3.32254 2.77581 3.125 3.25272 3.125 3.75V16.25C3.125 16.7473 3.32254 17.2242 3.67417 17.5758C4.02581 17.9275 4.50272 18.125 5 18.125H15C15.4973 18.125 15.9742 17.9275 16.3258 17.5758C16.6775 17.2242 16.875 16.7473 16.875 16.25V3.75C16.875 3.25272 16.6775 2.77581 16.3258 2.42417C15.9742 2.07254 15.4973 1.875 15 1.875ZM10 6.25C9.81458 6.25 9.63332 6.19502 9.47915 6.092C9.32498 5.98899 9.20482 5.84257 9.13386 5.67127C9.06291 5.49996 9.04434 5.31146 9.08051 5.1296C9.11669 4.94775 9.20598 4.7807 9.33709 4.64959C9.4682 4.51848 9.63525 4.42919 9.8171 4.39301C9.99896 4.35684 10.1875 4.37541 10.3588 4.44636C10.5301 4.51732 10.6765 4.63748 10.7795 4.79165C10.8825 4.94582 10.9375 5.12708 10.9375 5.3125C10.9375 5.56114 10.8387 5.7996 10.6629 5.97541C10.4871 6.15123 10.2486 6.25 10 6.25Z" fill="#191F2E"/>
</svg>
