<svg width="20" height="20" viewBox="0 0 20 20" fill="none" xmlns="http://www.w3.org/2000/svg">
<path d="M15 1.875H5C4.50272 1.875 4.02581 2.07254 3.67417 2.42417C3.32254 2.77581 3.125 3.25272 3.125 3.75V16.25C3.125 16.7473 3.32254 17.2242 3.67417 17.5758C4.02581 17.9275 4.50272 18.125 5 18.125H15C15.4973 18.125 15.9742 17.9275 16.3258 17.5758C16.6775 17.2242 16.875 16.7473 16.875 16.25V3.75C16.875 3.25272 16.6775 2.77581 16.3258 2.42417C15.9742 2.07254 15.4973 1.875 15 1.875ZM15.625 16.25C15.625 16.4158 15.5592 16.5747 15.4419 16.6919C15.3247 16.8092 15.1658 16.875 15 16.875H5C4.83424 16.875 4.67527 16.8092 4.55806 16.6919C4.44085 16.5747 4.375 16.4158 4.375 16.25V3.75C4.375 3.58424 4.44085 3.42527 4.55806 3.30806C4.67527 3.19085 4.83424 3.125 5 3.125H15C15.1658 3.125 15.3247 3.19085 15.4419 3.30806C15.5592 3.42527 15.625 3.58424 15.625 3.75V16.25ZM13.125 5C13.125 5.16576 13.0592 5.32473 12.9419 5.44194C12.8247 5.55915 12.6658 5.625 12.5 5.625H7.5C7.33424 5.625 7.17527 5.55915 7.05806 5.44194C6.94085 5.32473 6.875 5.16576 6.875 5C6.875 4.83424 6.94085 4.67527 7.05806 4.55806C7.17527 4.44085 7.33424 4.375 7.5 4.375H12.5C12.6658 4.375 12.8247 4.44085 12.9419 4.55806C13.0592 4.67527 13.125 4.83424 13.125 5Z" fill="#191F2E"/>
</svg>
