<svg width="20" height="20" viewBox="0 0 20 20" fill="none" xmlns="http://www.w3.org/2000/svg">
<path d="M15 1.875H5C4.50272 1.875 4.02581 2.07254 3.67417 2.42417C3.32254 2.77581 3.125 3.25272 3.125 3.75V16.25C3.125 16.7473 3.32254 17.2242 3.67417 17.5758C4.02581 17.9275 4.50272 18.125 5 18.125H15C15.4973 18.125 15.9742 17.9275 16.3258 17.5758C16.6775 17.2242 16.875 16.7473 16.875 16.25V3.75C16.875 3.25272 16.6775 2.77581 16.3258 2.42417C15.9742 2.07254 15.4973 1.875 15 1.875ZM15.625 16.25C15.625 16.4158 15.5592 16.5747 15.4419 16.6919C15.3247 16.8092 15.1658 16.875 15 16.875H5C4.83424 16.875 4.67527 16.8092 4.55806 16.6919C4.44085 16.5747 4.375 16.4158 4.375 16.25V3.75C4.375 3.58424 4.44085 3.42527 4.55806 3.30806C4.67527 3.19085 4.83424 3.125 5 3.125H15C15.1658 3.125 15.3247 3.19085 15.4419 3.30806C15.5592 3.42527 15.625 3.58424 15.625 3.75V16.25ZM10.9375 5.3125C10.9375 5.49792 10.8825 5.67918 10.7795 5.83335C10.6765 5.98752 10.5301 6.10768 10.3588 6.17864C10.1875 6.24959 9.99896 6.26816 9.8171 6.23199C9.63525 6.19581 9.4682 6.10652 9.33709 5.97541C9.20598 5.8443 9.11669 5.67725 9.08051 5.4954C9.04434 5.31354 9.06291 5.12504 9.13386 4.95373C9.20482 4.78243 9.32498 4.63601 9.47915 4.533C9.63332 4.42998 9.81458 4.375 10 4.375C10.2486 4.375 10.4871 4.47377 10.6629 4.64959C10.8387 4.8254 10.9375 5.06386 10.9375 5.3125Z" fill="#191F2E"/>
</svg>
