<svg width="20" height="20" viewBox="0 0 20 20" fill="none" xmlns="http://www.w3.org/2000/svg">
<path d="M13.75 0.9375H6.25C5.66984 0.9375 5.11344 1.16797 4.7032 1.5782C4.29297 1.98844 4.0625 2.54484 4.0625 3.125V16.875C4.0625 17.4552 4.29297 18.0116 4.7032 18.4218C5.11344 18.832 5.66984 19.0625 6.25 19.0625H13.75C14.3302 19.0625 14.8866 18.832 15.2968 18.4218C15.707 18.0116 15.9375 17.4552 15.9375 16.875V3.125C15.9375 2.54484 15.707 1.98844 15.2968 1.5782C14.8866 1.16797 14.3302 0.9375 13.75 0.9375ZM5.9375 5.9375H14.0625V14.0625H5.9375V5.9375ZM6.25 2.8125H13.75C13.8329 2.8125 13.9124 2.84542 13.971 2.90403C14.0296 2.96263 14.0625 3.04212 14.0625 3.125V4.0625H5.9375V3.125C5.9375 3.04212 5.97042 2.96263 6.02903 2.90403C6.08763 2.84542 6.16712 2.8125 6.25 2.8125ZM13.75 17.1875H6.25C6.16712 17.1875 6.08763 17.1546 6.02903 17.096C5.97042 17.0374 5.9375 16.9579 5.9375 16.875V15.9375H14.0625V16.875C14.0625 16.9579 14.0296 17.0374 13.971 17.096C13.9124 17.1546 13.8329 17.1875 13.75 17.1875Z" fill="#191F2E"/>
</svg>
