<svg width="20" height="20" viewBox="0 0 20 20" fill="none" xmlns="http://www.w3.org/2000/svg">
<path d="M15 1.5625H5C4.41984 1.5625 3.86344 1.79297 3.4532 2.2032C3.04297 2.61344 2.8125 3.16984 2.8125 3.75V16.25C2.8125 16.5373 2.86908 16.8217 2.97901 17.0871C3.08895 17.3525 3.25008 17.5937 3.4532 17.7968C3.65633 17.9999 3.89748 18.1611 4.16288 18.271C4.42828 18.3809 4.71273 18.4375 5 18.4375H15C15.2873 18.4375 15.5717 18.3809 15.8371 18.271C16.1025 18.1611 16.3437 17.9999 16.5468 17.7968C16.7499 17.5937 16.9111 17.3525 17.021 17.0871C17.1309 16.8217 17.1875 16.5373 17.1875 16.25V3.75C17.1875 3.16984 16.957 2.61344 16.5468 2.2032C16.1366 1.79297 15.5802 1.5625 15 1.5625ZM15.3125 16.25C15.3125 16.3329 15.2796 16.4124 15.221 16.471C15.1624 16.5296 15.0829 16.5625 15 16.5625H5C4.91712 16.5625 4.83763 16.5296 4.77903 16.471C4.72042 16.4124 4.6875 16.3329 4.6875 16.25V3.75C4.6875 3.66712 4.72042 3.58763 4.77903 3.52903C4.83763 3.47042 4.91712 3.4375 5 3.4375H15C15.0829 3.4375 15.1624 3.47042 15.221 3.52903C15.2796 3.58763 15.3125 3.66712 15.3125 3.75V16.25ZM13.4375 5.625C13.4375 5.87364 13.3387 6.1121 13.1629 6.28791C12.9871 6.46373 12.7486 6.5625 12.5 6.5625H7.5C7.25136 6.5625 7.0129 6.46373 6.83709 6.28791C6.66127 6.1121 6.5625 5.87364 6.5625 5.625C6.5625 5.37636 6.66127 5.1379 6.83709 4.96209C7.0129 4.78627 7.25136 4.6875 7.5 4.6875H12.5C12.7486 4.6875 12.9871 4.78627 13.1629 4.96209C13.3387 5.1379 13.4375 5.37636 13.4375 5.625Z" fill="#191F2E"/>
</svg>
