<svg width="20" height="20" viewBox="0 0 20 20" fill="none" xmlns="http://www.w3.org/2000/svg">
<path d="M17.5 5.625H16.5625V5C16.5625 4.41984 16.332 3.86344 15.9218 3.4532C15.5116 3.04297 14.9552 2.8125 14.375 2.8125H3.125C2.54484 2.8125 1.98844 3.04297 1.5782 3.4532C1.16797 3.86344 0.9375 4.41984 0.9375 5V11.875C0.9375 12.4552 1.16797 13.0116 1.5782 13.4218C1.98844 13.832 2.54484 14.0625 3.125 14.0625H10.625V15C10.625 15.5802 10.8555 16.1366 11.2657 16.5468C11.6759 16.957 12.2323 17.1875 12.8125 17.1875H17.5C18.0802 17.1875 18.6366 16.957 19.0468 16.5468C19.457 16.1366 19.6875 15.5802 19.6875 15V7.8125C19.6875 7.23234 19.457 6.67594 19.0468 6.2657C18.6366 5.85547 18.0802 5.625 17.5 5.625ZM3.125 12.1875C3.04212 12.1875 2.96263 12.1546 2.90403 12.096C2.84542 12.0374 2.8125 11.9579 2.8125 11.875V5C2.8125 4.91712 2.84542 4.83763 2.90403 4.77903C2.96263 4.72042 3.04212 4.6875 3.125 4.6875H14.375C14.4579 4.6875 14.5374 4.72042 14.596 4.77903C14.6546 4.83763 14.6875 4.91712 14.6875 5V5.625H12.8125C12.2323 5.625 11.6759 5.85547 11.2657 6.2657C10.8555 6.67594 10.625 7.23234 10.625 7.8125V12.1875H3.125ZM17.8125 15C17.8125 15.0829 17.7796 15.1624 17.721 15.221C17.6624 15.2796 17.5829 15.3125 17.5 15.3125H12.8125C12.7296 15.3125 12.6501 15.2796 12.5915 15.221C12.5329 15.1624 12.5 15.0829 12.5 15V7.8125C12.5 7.72962 12.5329 7.65013 12.5915 7.59153C12.6501 7.53292 12.7296 7.5 12.8125 7.5H17.5C17.5829 7.5 17.6624 7.53292 17.721 7.59153C17.7796 7.65013 17.8125 7.72962 17.8125 7.8125V15ZM9.6875 16.25C9.6875 16.4986 9.58873 16.7371 9.41291 16.9129C9.2371 17.0887 8.99864 17.1875 8.75 17.1875H6.875C6.62636 17.1875 6.3879 17.0887 6.21209 16.9129C6.03627 16.7371 5.9375 16.4986 5.9375 16.25C5.9375 16.0014 6.03627 15.7629 6.21209 15.5871C6.3879 15.4113 6.62636 15.3125 6.875 15.3125H8.75C8.99864 15.3125 9.2371 15.4113 9.41291 15.5871C9.58873 15.7629 9.6875 16.0014 9.6875 16.25ZM16.5625 9.6875C16.5625 9.93614 16.4637 10.1746 16.2879 10.3504C16.1121 10.5262 15.8736 10.625 15.625 10.625H14.6875C14.4389 10.625 14.2004 10.5262 14.0246 10.3504C13.8488 10.1746 13.75 9.93614 13.75 9.6875C13.75 9.43886 13.8488 9.2004 14.0246 9.02459C14.2004 8.84877 14.4389 8.75 14.6875 8.75H15.625C15.8736 8.75 16.1121 8.84877 16.2879 9.02459C16.4637 9.2004 16.5625 9.43886 16.5625 9.6875Z" fill="#191F2E"/>
</svg>
