<svg width="20" height="20" viewBox="0 0 20 20" fill="none" xmlns="http://www.w3.org/2000/svg">
<path d="M6.78909 5.76709C6.66774 5.64579 6.57148 5.50177 6.50581 5.34326C6.44013 5.18475 6.40633 5.01485 6.40633 4.84327C6.40633 4.67169 6.44013 4.50179 6.50581 4.34328C6.57148 4.18476 6.66774 4.04074 6.78909 3.91944L9.07581 1.63194C9.32113 1.3872 9.65351 1.24976 10 1.24976C10.3466 1.24976 10.6789 1.3872 10.9242 1.63194L13.211 3.91944C13.3323 4.04074 13.4286 4.18476 13.4943 4.34328C13.5599 4.50179 13.5937 4.67169 13.5937 4.84327C13.5937 5.01485 13.5599 5.18475 13.4943 5.34326C13.4286 5.50177 13.3323 5.64579 13.211 5.76709L10.9242 8.05459C10.6789 8.29933 10.3466 8.43678 10 8.43678C9.65351 8.43678 9.32113 8.29933 9.07581 8.05459L6.78909 5.76709ZM18.368 9.07569L16.0805 6.78819C15.8353 6.5435 15.5031 6.40607 15.1567 6.40607C14.8103 6.40607 14.478 6.5435 14.2328 6.78819L11.9453 9.07569C11.7006 9.32101 11.5632 9.65338 11.5632 9.99991C11.5632 10.3464 11.7006 10.6788 11.9453 10.9241L14.2328 13.2116C14.478 13.4563 14.8103 13.5937 15.1567 13.5937C15.5031 13.5937 15.8353 13.4563 16.0805 13.2116L18.368 10.9241C18.6127 10.6788 18.7502 10.3464 18.7502 9.99991C18.7502 9.65338 18.6127 9.32101 18.368 9.07569ZM8.0555 9.07569L5.76722 6.78819C5.52203 6.5435 5.18978 6.40607 4.84339 6.40607C4.49699 6.40607 4.16475 6.5435 3.91956 6.78819L1.63206 9.07569C1.38732 9.32101 1.24988 9.65338 1.24988 9.99991C1.24988 10.3464 1.38732 10.6788 1.63206 10.9241L3.91956 13.2116C4.16475 13.4563 4.49699 13.5937 4.84339 13.5937C5.18978 13.5937 5.52203 13.4563 5.76722 13.2116L8.05472 10.9241C8.29946 10.6788 8.4369 10.3464 8.4369 9.99991C8.4369 9.65338 8.29946 9.32101 8.05472 9.07569H8.0555ZM10.925 11.9452C10.6797 11.7005 10.3473 11.563 10.0008 11.563C9.65429 11.563 9.32191 11.7005 9.07659 11.9452L6.78909 14.2327C6.66774 14.354 6.57148 14.498 6.50581 14.6566C6.44013 14.8151 6.40633 14.985 6.40633 15.1565C6.40633 15.3281 6.44013 15.498 6.50581 15.6565C6.57148 15.8151 6.66774 15.9591 6.78909 16.0804L9.07581 18.3679C9.32113 18.6126 9.65351 18.7501 10 18.7501C10.3466 18.7501 10.6789 18.6126 10.9242 18.3679L13.211 16.0804C13.3323 15.9591 13.4286 15.8151 13.4943 15.6565C13.5599 15.498 13.5937 15.3281 13.5937 15.1565C13.5937 14.985 13.5599 14.8151 13.4943 14.6566C13.4286 14.498 13.3323 14.354 13.211 14.2327L10.925 11.9452Z" fill="#191F2E"/>
</svg>
