<svg width="20" height="20" viewBox="0 0 20 20" fill="none" xmlns="http://www.w3.org/2000/svg">
<path d="M8.90622 7.98292C9.19727 8.27355 9.59178 8.43679 10.0031 8.43679C10.4144 8.43679 10.8089 8.27355 11.1 7.98292L13.2961 5.78135C13.5866 5.49043 13.7499 5.09606 13.7499 4.68487C13.7499 4.27368 13.5866 3.87931 13.2961 3.58839L11.0937 1.39073C10.8025 1.10048 10.408 0.9375 9.99684 0.9375C9.58565 0.9375 9.19123 1.10048 8.89997 1.39073L6.70387 3.59385C6.41329 3.88478 6.25007 4.27915 6.25007 4.69034C6.25007 5.10153 6.41329 5.4959 6.70387 5.78682L8.90622 7.98292ZM9.99997 2.9462L11.7406 4.6876L9.99997 6.42823L8.25934 4.6876L9.99997 2.9462ZM18.6086 8.90635L16.4062 6.70401C16.1151 6.41357 15.7206 6.25046 15.3093 6.25046C14.8981 6.25046 14.5036 6.41357 14.2125 6.70401L12.0164 8.90635C11.7257 9.19741 11.5625 9.59191 11.5625 10.0032C11.5625 10.4145 11.7257 10.809 12.0164 11.1001L14.2187 13.2962C14.51 13.5864 14.9044 13.7494 15.3156 13.7494C15.7268 13.7494 16.1212 13.5864 16.4125 13.2962L18.6086 11.0939C18.8992 10.8028 19.0624 10.4083 19.0624 9.99698C19.0624 9.58566 18.8992 9.19116 18.6086 8.9001V8.90635ZM15.3125 11.7407L13.5718 10.0001L15.3125 8.25948L17.0531 10.0001L15.3125 11.7407ZM8.43747 10.0001C8.43765 9.79687 8.39764 9.59561 8.31974 9.4079C8.24184 9.22019 8.12759 9.04974 7.98356 8.90635L5.78122 6.70401C5.49006 6.41357 5.0956 6.25046 4.68434 6.25046C4.27309 6.25046 3.87862 6.41357 3.58747 6.70401L1.39137 8.90635C1.10074 9.19741 0.9375 9.59191 0.9375 10.0032C0.9375 10.4145 1.10074 10.809 1.39137 11.1001L3.59372 13.2962C3.88498 13.5864 4.2794 13.7494 4.69059 13.7494C5.10178 13.7494 5.49621 13.5864 5.78747 13.2962L7.98356 11.0939C8.12759 10.9505 8.24184 10.78 8.31974 10.5923C8.39764 10.4046 8.43765 10.2033 8.43747 10.0001ZM4.68747 11.7407L2.94684 10.0001L4.68747 8.25948L6.42809 10.0001L4.68747 11.7407ZM11.0937 12.0165C10.8025 11.7263 10.408 11.5633 9.99684 11.5633C9.58565 11.5633 9.19123 11.7263 8.89997 12.0165L6.70387 14.2189C6.41329 14.5098 6.25007 14.9042 6.25007 15.3153C6.25007 15.7265 6.41329 16.1209 6.70387 16.4118L8.90622 18.6095C9.19748 18.8997 9.5919 19.0627 10.0031 19.0627C10.4143 19.0627 10.8087 18.8997 11.1 18.6095L13.2961 16.4064C13.5866 16.1154 13.7499 15.7211 13.7499 15.3099C13.7499 14.8987 13.5866 14.5043 13.2961 14.2134L11.0937 12.0165ZM9.99997 17.054L8.25934 15.3126L9.99997 13.572L11.7406 15.3126L9.99997 17.054Z" fill="#191F2E"/>
</svg>
