<svg width="20" height="20" viewBox="0 0 20 20" fill="none" xmlns="http://www.w3.org/2000/svg">
<path d="M18.3851 9.11867L10.8812 1.61398C10.647 1.38117 10.3302 1.25049 9.99999 1.25049C9.66976 1.25049 9.35294 1.38117 9.11874 1.61398L1.61874 9.11867C1.38593 9.35287 1.25525 9.66968 1.25525 9.99992C1.25525 10.3301 1.38593 10.647 1.61874 10.8812L9.12265 18.3859C9.35685 18.6187 9.67366 18.7493 10.0039 18.7493C10.3341 18.7493 10.6509 18.6187 10.8851 18.3859L18.3891 10.8812C18.6219 10.647 18.7525 10.3301 18.7525 9.99992C18.7525 9.66968 18.6219 9.35287 18.3891 9.11867H18.3851ZM9.99999 17.4999L2.49999 9.99992L9.99999 2.49992L17.5 9.99992L9.99999 17.4999Z" fill="#191F2E"/>
</svg>
