<svg width="20" height="20" viewBox="0 0 20 20" fill="none" xmlns="http://www.w3.org/2000/svg">
<path d="M18.6062 8.89767L11.1016 1.39298C10.8088 1.10173 10.4126 0.938232 9.9996 0.938232C9.58662 0.938232 9.19043 1.10173 8.89765 1.39298L1.39765 8.89767C1.10615 9.19049 0.942505 9.58684 0.942505 10C0.942505 10.4132 1.10615 10.8095 1.39765 11.1024L8.90155 18.607C9.19434 18.8983 9.59052 19.0618 10.0035 19.0618C10.4165 19.0618 10.8127 18.8983 11.1055 18.607L18.6055 11.1024C18.897 10.8095 19.0606 10.4132 19.0606 10C19.0606 9.58684 18.897 9.19049 18.6055 8.89767H18.6062ZM9.99999 17.057L2.94374 10L9.99999 2.94298L17.0562 10L9.99999 17.057Z" fill="#191F2E"/>
</svg>
