<svg width="20" height="20" viewBox="0 0 20 20" fill="none" xmlns="http://www.w3.org/2000/svg">
<path d="M18.75 9.99992C18.7505 10.1636 18.7184 10.3258 18.6558 10.4771C18.5932 10.6283 18.5012 10.7657 18.3851 10.8812L10.8812 18.3859C10.647 18.6187 10.3302 18.7493 9.99999 18.7493C9.66976 18.7493 9.35294 18.6187 9.11874 18.3859L1.61874 10.8812C1.38593 10.647 1.25525 10.3301 1.25525 9.99992C1.25525 9.66968 1.38593 9.35287 1.61874 9.11867L9.12265 1.61398C9.35685 1.38117 9.67366 1.25049 10.0039 1.25049C10.3341 1.25049 10.6509 1.38117 10.8851 1.61398L18.3891 9.11867C18.5044 9.23447 18.5957 9.37196 18.6576 9.52321C18.7196 9.67446 18.751 9.83647 18.75 9.99992Z" fill="#191F2E"/>
</svg>
