<svg width="20" height="20" viewBox="0 0 20 20" fill="none" xmlns="http://www.w3.org/2000/svg">
<path d="M9.07581 8.36709C9.32113 8.61183 9.65351 8.74928 10 8.74928C10.3466 8.74928 10.6789 8.61183 10.9242 8.36709L13.3672 5.92334C13.4886 5.80204 13.5848 5.65802 13.6505 5.49951C13.7162 5.341 13.75 5.1711 13.75 4.99952C13.75 4.82794 13.7162 4.65804 13.6505 4.49953C13.5848 4.34101 13.4886 4.19699 13.3672 4.07569L10.9242 1.63194C10.6789 1.3872 10.3466 1.24976 10 1.24976C9.65351 1.24976 9.32113 1.3872 9.07581 1.63194L6.63284 4.07569C6.51149 4.19699 6.41523 4.34101 6.34956 4.49953C6.28388 4.65804 6.25008 4.82794 6.25008 4.99952C6.25008 5.1711 6.28388 5.341 6.34956 5.49951C6.41523 5.65802 6.51149 5.80204 6.63284 5.92334L9.07581 8.36709ZM7.51331 4.95928L9.95706 2.51631C9.96745 2.50601 9.98149 2.50023 9.99612 2.50023C10.0108 2.50023 10.0248 2.50601 10.0352 2.51631L12.4789 4.95928C12.4887 4.96994 12.4941 4.98388 12.4941 4.99834C12.4941 5.01281 12.4887 5.02675 12.4789 5.03741L10.0399 7.4835C10.0294 7.49362 10.0154 7.49928 10.0008 7.49928C9.98624 7.49928 9.97223 7.49362 9.96175 7.4835L7.51644 5.03975C7.50598 5.02897 7.50014 5.01454 7.50014 4.99952C7.50014 4.9845 7.50598 4.97007 7.51644 4.95928H7.51331ZM18.3649 9.07569L15.9242 6.63194C15.6791 6.38725 15.3468 6.24982 15.0004 6.24982C14.654 6.24982 14.3218 6.38725 14.0766 6.63194L11.6328 9.07569C11.3881 9.32101 11.2507 9.65338 11.2507 9.99991C11.2507 10.3464 11.3881 10.6788 11.6328 10.9241L14.0766 13.3679C14.3218 13.6126 14.654 13.75 15.0004 13.75C15.3468 13.75 15.6791 13.6126 15.9242 13.3679L18.368 10.9241C18.6127 10.6788 18.7502 10.3464 18.7502 9.99991C18.7502 9.65338 18.6127 9.32101 18.368 9.07569H18.3649ZM17.4844 10.0398L15.0407 12.4835C15.03 12.4933 15.0161 12.4987 15.0016 12.4987C14.9871 12.4987 14.9732 12.4933 14.9625 12.4835L12.5188 10.0398C12.5087 10.0293 12.503 10.0153 12.503 10.0007C12.503 9.98612 12.5087 9.97211 12.5188 9.96163L14.9625 7.51788C14.9732 7.5081 14.9871 7.50268 15.0016 7.50268C15.0161 7.50268 15.03 7.5081 15.0407 7.51788L17.4844 9.96163C17.4945 9.97211 17.5002 9.98612 17.5002 10.0007C17.5002 10.0153 17.4945 10.0293 17.4844 10.0398ZM8.36722 9.07569L5.92347 6.63194C5.67828 6.38725 5.34603 6.24982 4.99964 6.24982C4.65324 6.24982 4.321 6.38725 4.07581 6.63194L1.63206 9.07569C1.38732 9.32101 1.24988 9.65338 1.24988 9.99991C1.24988 10.3464 1.38732 10.6788 1.63206 10.9241L4.07581 13.3679C4.321 13.6126 4.65324 13.75 4.99964 13.75C5.34603 13.75 5.67828 13.6126 5.92347 13.3679L8.36722 10.9241C8.61196 10.6788 8.7494 10.3464 8.7494 9.99991C8.7494 9.65338 8.61196 9.32101 8.36722 9.07569ZM7.48362 10.0398L5.03987 12.4835C5.02921 12.4933 5.01527 12.4987 5.00081 12.4987C4.98635 12.4987 4.97241 12.4933 4.96175 12.4835L2.51565 10.0398C2.50553 10.0293 2.49988 10.0153 2.49988 10.0007C2.49988 9.98612 2.50553 9.97211 2.51565 9.96163L4.9594 7.51631C4.97007 7.50654 4.984 7.50112 4.99847 7.50112C5.01293 7.50112 5.02687 7.50654 5.03753 7.51631L7.48128 9.96006C7.48668 9.96513 7.49103 9.97122 7.49407 9.97797C7.49711 9.98473 7.49879 9.99202 7.49901 9.99942C7.49922 10.0068 7.49798 10.0142 7.49534 10.0211C7.4927 10.028 7.48872 10.0344 7.48362 10.0398ZM10.9211 11.6327C10.6758 11.388 10.3434 11.2505 9.9969 11.2505C9.65038 11.2505 9.318 11.388 9.07269 11.6327L6.63284 14.0765C6.51149 14.1978 6.41523 14.3418 6.34956 14.5003C6.28388 14.6588 6.25008 14.8287 6.25008 15.0003C6.25008 15.1719 6.28388 15.3418 6.34956 15.5003C6.41523 15.6588 6.51149 15.8028 6.63284 15.9241L9.07581 18.3679C9.32113 18.6126 9.65351 18.7501 10 18.7501C10.3466 18.7501 10.6789 18.6126 10.9242 18.3679L13.3672 15.9241C13.4886 15.8028 13.5848 15.6588 13.6505 15.5003C13.7162 15.3418 13.75 15.1719 13.75 15.0003C13.75 14.8287 13.7162 14.6588 13.6505 14.5003C13.5848 14.3418 13.4886 14.1978 13.3672 14.0765L10.9211 11.6327ZM12.4836 15.0405L10.0399 17.4835C10.0295 17.4938 10.0154 17.4996 10.0008 17.4996C9.98618 17.4996 9.97214 17.4938 9.96175 17.4835L7.51644 15.0405C7.50666 15.0299 7.50124 15.0159 7.50124 15.0015C7.50124 14.987 7.50666 14.9731 7.51644 14.9624L9.96019 12.5187C9.97067 12.5085 9.98468 12.5029 9.99925 12.5029C10.0138 12.5029 10.0278 12.5085 10.0383 12.5187L12.4821 14.9624C12.492 14.9729 12.4978 14.9867 12.498 15.0012C12.4983 15.0156 12.4932 15.0297 12.4836 15.0405Z" fill="#191F2E"/>
</svg>
