<svg width="20" height="20" viewBox="0 0 20 20" fill="none" xmlns="http://www.w3.org/2000/svg">
<path d="M15 2.5H5C4.33696 2.5 3.70107 2.76339 3.23223 3.23223C2.76339 3.70107 2.5 4.33696 2.5 5V15C2.5 15.663 2.76339 16.2989 3.23223 16.7678C3.70107 17.2366 4.33696 17.5 5 17.5H15C15.663 17.5 16.2989 17.2366 16.7678 16.7678C17.2366 16.2989 17.5 15.663 17.5 15V5C17.5 4.33696 17.2366 3.70107 16.7678 3.23223C16.2989 2.76339 15.663 2.5 15 2.5ZM7.1875 13.75C7.00208 13.75 6.82082 13.695 6.66665 13.592C6.51248 13.489 6.39232 13.3426 6.32136 13.1713C6.25041 13 6.23184 12.8115 6.26801 12.6296C6.30419 12.4477 6.39348 12.2807 6.52459 12.1496C6.6557 12.0185 6.82275 11.9292 7.0046 11.893C7.18646 11.8568 7.37496 11.8754 7.54627 11.9464C7.71757 12.0173 7.86399 12.1375 7.967 12.2917C8.07002 12.4458 8.125 12.6271 8.125 12.8125C8.125 13.0611 8.02623 13.2996 7.85041 13.4754C7.6746 13.6512 7.43614 13.75 7.1875 13.75ZM7.1875 8.125C7.00208 8.125 6.82082 8.07002 6.66665 7.967C6.51248 7.86399 6.39232 7.71757 6.32136 7.54627C6.25041 7.37496 6.23184 7.18646 6.26801 7.0046C6.30419 6.82275 6.39348 6.6557 6.52459 6.52459C6.6557 6.39348 6.82275 6.30419 7.0046 6.26801C7.18646 6.23184 7.37496 6.25041 7.54627 6.32136C7.71757 6.39232 7.86399 6.51248 7.967 6.66665C8.07002 6.82082 8.125 7.00208 8.125 7.1875C8.125 7.43614 8.02623 7.6746 7.85041 7.85041C7.6746 8.02623 7.43614 8.125 7.1875 8.125ZM10 10.9375C9.81458 10.9375 9.63332 10.8825 9.47915 10.7795C9.32498 10.6765 9.20482 10.5301 9.13386 10.3588C9.06291 10.1875 9.04434 9.99896 9.08051 9.8171C9.11669 9.63525 9.20598 9.4682 9.33709 9.33709C9.4682 9.20598 9.63525 9.11669 9.8171 9.08051C9.99896 9.04434 10.1875 9.06291 10.3588 9.13386C10.5301 9.20482 10.6765 9.32498 10.7795 9.47915C10.8825 9.63332 10.9375 9.81458 10.9375 10C10.9375 10.2486 10.8387 10.4871 10.6629 10.6629C10.4871 10.8387 10.2486 10.9375 10 10.9375ZM12.8125 13.75C12.6271 13.75 12.4458 13.695 12.2917 13.592C12.1375 13.489 12.0173 13.3426 11.9464 13.1713C11.8754 13 11.8568 12.8115 11.893 12.6296C11.9292 12.4477 12.0185 12.2807 12.1496 12.1496C12.2807 12.0185 12.4477 11.9292 12.6296 11.893C12.8115 11.8568 13 11.8754 13.1713 11.9464C13.3426 12.0173 13.489 12.1375 13.592 12.2917C13.695 12.4458 13.75 12.6271 13.75 12.8125C13.75 13.0611 13.6512 13.2996 13.4754 13.4754C13.2996 13.6512 13.0611 13.75 12.8125 13.75ZM12.8125 8.125C12.6271 8.125 12.4458 8.07002 12.2917 7.967C12.1375 7.86399 12.0173 7.71757 11.9464 7.54627C11.8754 7.37496 11.8568 7.18646 11.893 7.0046C11.9292 6.82275 12.0185 6.6557 12.1496 6.52459C12.2807 6.39348 12.4477 6.30419 12.6296 6.26801C12.8115 6.23184 13 6.25041 13.1713 6.32136C13.3426 6.39232 13.489 6.51248 13.592 6.66665C13.695 6.82082 13.75 7.00208 13.75 7.1875C13.75 7.43614 13.6512 7.6746 13.4754 7.85041C13.2996 8.02623 13.0611 8.125 12.8125 8.125Z" fill="#191F2E"/>
</svg>
