<svg width="20" height="20" viewBox="0 0 20 20" fill="none" xmlns="http://www.w3.org/2000/svg">
<path d="M15 2.5H5C4.33696 2.5 3.70107 2.76339 3.23223 3.23223C2.76339 3.70107 2.5 4.33696 2.5 5V15C2.5 15.663 2.76339 16.2989 3.23223 16.7678C3.70107 17.2366 4.33696 17.5 5 17.5H15C15.663 17.5 16.2989 17.2366 16.7678 16.7678C17.2366 16.2989 17.5 15.663 17.5 15V5C17.5 4.33696 17.2366 3.70107 16.7678 3.23223C16.2989 2.76339 15.663 2.5 15 2.5ZM16.25 15C16.25 15.3315 16.1183 15.6495 15.8839 15.8839C15.6495 16.1183 15.3315 16.25 15 16.25H5C4.66848 16.25 4.35054 16.1183 4.11612 15.8839C3.8817 15.6495 3.75 15.3315 3.75 15V5C3.75 4.66848 3.8817 4.35054 4.11612 4.11612C4.35054 3.8817 4.66848 3.75 5 3.75H15C15.3315 3.75 15.6495 3.8817 15.8839 4.11612C16.1183 4.35054 16.25 4.66848 16.25 5V15ZM9.375 8.4375C9.375 8.62292 9.32002 8.80418 9.217 8.95835C9.11399 9.11252 8.96757 9.23268 8.79627 9.30364C8.62496 9.37459 8.43646 9.39316 8.2546 9.35699C8.07275 9.32081 7.9057 9.23152 7.77459 9.10041C7.64348 8.9693 7.55419 8.80225 7.51801 8.6204C7.48184 8.43854 7.50041 8.25004 7.57136 8.07873C7.64232 7.90743 7.76248 7.76101 7.91665 7.658C8.07082 7.55498 8.25208 7.5 8.4375 7.5C8.68614 7.5 8.9246 7.59877 9.10041 7.77459C9.27623 7.9504 9.375 8.18886 9.375 8.4375ZM12.5 11.5625C12.5 11.7479 12.445 11.9292 12.342 12.0833C12.239 12.2375 12.0926 12.3577 11.9213 12.4286C11.75 12.4996 11.5615 12.5182 11.3796 12.482C11.1977 12.4458 11.0307 12.3565 10.8996 12.2254C10.7685 12.0943 10.6792 11.9273 10.643 11.7454C10.6068 11.5635 10.6254 11.375 10.6964 11.2037C10.7673 11.0324 10.8875 10.886 11.0417 10.783C11.1958 10.68 11.3771 10.625 11.5625 10.625C11.8111 10.625 12.0496 10.7238 12.2254 10.8996C12.4012 11.0754 12.5 11.3139 12.5 11.5625Z" fill="#191F2E"/>
</svg>
