<svg width="20" height="20" viewBox="0 0 20 20" fill="none" xmlns="http://www.w3.org/2000/svg">
<path d="M15 2.5H5C4.33696 2.5 3.70107 2.76339 3.23223 3.23223C2.76339 3.70107 2.5 4.33696 2.5 5V15C2.5 15.663 2.76339 16.2989 3.23223 16.7678C3.70107 17.2366 4.33696 17.5 5 17.5H15C15.663 17.5 16.2989 17.2366 16.7678 16.7678C17.2366 16.2989 17.5 15.663 17.5 15V5C17.5 4.33696 17.2366 3.70107 16.7678 3.23223C16.2989 2.76339 15.663 2.5 15 2.5ZM8.4375 9.375C8.25208 9.375 8.07082 9.32002 7.91665 9.217C7.76248 9.11399 7.64232 8.96757 7.57136 8.79627C7.50041 8.62496 7.48184 8.43646 7.51801 8.2546C7.55419 8.07275 7.64348 7.9057 7.77459 7.77459C7.9057 7.64348 8.07275 7.55419 8.2546 7.51801C8.43646 7.48184 8.62496 7.50041 8.79627 7.57136C8.96757 7.64232 9.11399 7.76248 9.217 7.91665C9.32002 8.07082 9.375 8.25208 9.375 8.4375C9.375 8.68614 9.27623 8.9246 9.10041 9.10041C8.9246 9.27623 8.68614 9.375 8.4375 9.375ZM11.5625 12.5C11.3771 12.5 11.1958 12.445 11.0417 12.342C10.8875 12.239 10.7673 12.0926 10.6964 11.9213C10.6254 11.75 10.6068 11.5615 10.643 11.3796C10.6792 11.1977 10.7685 11.0307 10.8996 10.8996C11.0307 10.7685 11.1977 10.6792 11.3796 10.643C11.5615 10.6068 11.75 10.6254 11.9213 10.6964C12.0926 10.7673 12.239 10.8875 12.342 11.0417C12.445 11.1958 12.5 11.3771 12.5 11.5625C12.5 11.8111 12.4012 12.0496 12.2254 12.2254C12.0496 12.4012 11.8111 12.5 11.5625 12.5Z" fill="#191F2E"/>
</svg>
