<svg width="20" height="20" viewBox="0 0 20 20" fill="none" xmlns="http://www.w3.org/2000/svg">
<path d="M15 2.1875H5C4.25408 2.1875 3.53871 2.48382 3.01126 3.01126C2.48382 3.53871 2.1875 4.25408 2.1875 5V15C2.1875 15.7459 2.48382 16.4613 3.01126 16.9887C3.53871 17.5162 4.25408 17.8125 5 17.8125H15C15.7459 17.8125 16.4613 17.5162 16.9887 16.9887C17.5162 16.4613 17.8125 15.7459 17.8125 15V5C17.8125 4.25408 17.5162 3.53871 16.9887 3.01126C16.4613 2.48382 15.7459 2.1875 15 2.1875ZM15.9375 15C15.9375 15.2486 15.8387 15.4871 15.6629 15.6629C15.4871 15.8387 15.2486 15.9375 15 15.9375H5C4.75136 15.9375 4.5129 15.8387 4.33709 15.6629C4.16127 15.4871 4.0625 15.2486 4.0625 15V5C4.0625 4.75136 4.16127 4.5129 4.33709 4.33709C4.5129 4.16127 4.75136 4.0625 5 4.0625H15C15.2486 4.0625 15.4871 4.16127 15.6629 4.33709C15.8387 4.5129 15.9375 4.75136 15.9375 5V15ZM8.75 7.5C8.75 7.74723 8.67669 7.9889 8.53934 8.19446C8.40199 8.40002 8.20676 8.56024 7.97835 8.65485C7.74995 8.74946 7.49861 8.77421 7.25614 8.72598C7.01366 8.67775 6.79093 8.5587 6.61612 8.38388C6.4413 8.20907 6.32225 7.98634 6.27402 7.74386C6.22579 7.50139 6.25054 7.25005 6.34515 7.02165C6.43976 6.79324 6.59998 6.59801 6.80554 6.46066C7.0111 6.32331 7.25277 6.25 7.5 6.25C7.83152 6.25 8.14946 6.3817 8.38388 6.61612C8.6183 6.85054 8.75 7.16848 8.75 7.5ZM13.75 7.5C13.75 7.74723 13.6767 7.9889 13.5393 8.19446C13.402 8.40002 13.2068 8.56024 12.9784 8.65485C12.7499 8.74946 12.4986 8.77421 12.2561 8.72598C12.0137 8.67775 11.7909 8.5587 11.6161 8.38388C11.4413 8.20907 11.3222 7.98634 11.274 7.74386C11.2258 7.50139 11.2505 7.25005 11.3451 7.02165C11.4398 6.79324 11.6 6.59801 11.8055 6.46066C12.0111 6.32331 12.2528 6.25 12.5 6.25C12.8315 6.25 13.1495 6.3817 13.3839 6.61612C13.6183 6.85054 13.75 7.16848 13.75 7.5ZM8.75 12.5C8.75 12.7472 8.67669 12.9889 8.53934 13.1945C8.40199 13.4 8.20676 13.5602 7.97835 13.6549C7.74995 13.7495 7.49861 13.7742 7.25614 13.726C7.01366 13.6778 6.79093 13.5587 6.61612 13.3839C6.4413 13.2091 6.32225 12.9863 6.27402 12.7439C6.22579 12.5014 6.25054 12.2501 6.34515 12.0216C6.43976 11.7932 6.59998 11.598 6.80554 11.4607C7.0111 11.3233 7.25277 11.25 7.5 11.25C7.83152 11.25 8.14946 11.3817 8.38388 11.6161C8.6183 11.8505 8.75 12.1685 8.75 12.5ZM13.75 12.5C13.75 12.7472 13.6767 12.9889 13.5393 13.1945C13.402 13.4 13.2068 13.5602 12.9784 13.6549C12.7499 13.7495 12.4986 13.7742 12.2561 13.726C12.0137 13.6778 11.7909 13.5587 11.6161 13.3839C11.4413 13.2091 11.3222 12.9863 11.274 12.7439C11.2258 12.5014 11.2505 12.2501 11.3451 12.0216C11.4398 11.7932 11.6 11.598 11.8055 11.4607C12.0111 11.3233 12.2528 11.25 12.5 11.25C12.8315 11.25 13.1495 11.3817 13.3839 11.6161C13.6183 11.8505 13.75 12.1685 13.75 12.5Z" fill="#191F2E"/>
</svg>
