<svg width="20" height="20" viewBox="0 0 20 20" fill="none" xmlns="http://www.w3.org/2000/svg">
<path d="M15 2.1875H5C4.25408 2.1875 3.53871 2.48382 3.01126 3.01126C2.48382 3.53871 2.1875 4.25408 2.1875 5V15C2.1875 15.7459 2.48382 16.4613 3.01126 16.9887C3.53871 17.5162 4.25408 17.8125 5 17.8125H15C15.7459 17.8125 16.4613 17.5162 16.9887 16.9887C17.5162 16.4613 17.8125 15.7459 17.8125 15V5C17.8125 4.25408 17.5162 3.53871 16.9887 3.01126C16.4613 2.48382 15.7459 2.1875 15 2.1875ZM15.9375 15C15.9375 15.2486 15.8387 15.4871 15.6629 15.6629C15.4871 15.8387 15.2486 15.9375 15 15.9375H5C4.75136 15.9375 4.5129 15.8387 4.33709 15.6629C4.16127 15.4871 4.0625 15.2486 4.0625 15V5C4.0625 4.75136 4.16127 4.5129 4.33709 4.33709C4.5129 4.16127 4.75136 4.0625 5 4.0625H15C15.2486 4.0625 15.4871 4.16127 15.6629 4.33709C15.8387 4.5129 15.9375 4.75136 15.9375 5V15ZM11.25 10C11.25 10.2472 11.1767 10.4889 11.0393 10.6945C10.902 10.9 10.7068 11.0602 10.4784 11.1549C10.2499 11.2495 9.99861 11.2742 9.75614 11.226C9.51366 11.1778 9.29093 11.0587 9.11612 10.8839C8.9413 10.7091 8.82225 10.4863 8.77402 10.2439C8.72579 10.0014 8.75054 9.75005 8.84515 9.52165C8.93976 9.29324 9.09998 9.09801 9.30554 8.96066C9.5111 8.82331 9.75277 8.75 10 8.75C10.3315 8.75 10.6495 8.8817 10.8839 9.11612C11.1183 9.35054 11.25 9.66848 11.25 10Z" fill="#191F2E"/>
</svg>
