<svg width="20" height="20" viewBox="0 0 20 20" fill="none" xmlns="http://www.w3.org/2000/svg">
<path d="M15 2.5H5C4.33696 2.5 3.70107 2.76339 3.23223 3.23223C2.76339 3.70107 2.5 4.33696 2.5 5V15C2.5 15.663 2.76339 16.2989 3.23223 16.7678C3.70107 17.2366 4.33696 17.5 5 17.5H15C15.663 17.5 16.2989 17.2366 16.7678 16.7678C17.2366 16.2989 17.5 15.663 17.5 15V5C17.5 4.33696 17.2366 3.70107 16.7678 3.23223C16.2989 2.76339 15.663 2.5 15 2.5ZM16.25 15C16.25 15.3315 16.1183 15.6495 15.8839 15.8839C15.6495 16.1183 15.3315 16.25 15 16.25H5C4.66848 16.25 4.35054 16.1183 4.11612 15.8839C3.8817 15.6495 3.75 15.3315 3.75 15V5C3.75 4.66848 3.8817 4.35054 4.11612 4.11612C4.35054 3.8817 4.66848 3.75 5 3.75H15C15.3315 3.75 15.6495 3.8817 15.8839 4.11612C16.1183 4.35054 16.25 4.66848 16.25 5V15ZM8.125 6.5625C8.125 6.74792 8.07002 6.92918 7.967 7.08335C7.86399 7.23752 7.71757 7.35768 7.54627 7.42864C7.37496 7.49959 7.18646 7.51816 7.0046 7.48199C6.82275 7.44581 6.6557 7.35652 6.52459 7.22541C6.39348 7.0943 6.30419 6.92725 6.26801 6.7454C6.23184 6.56354 6.25041 6.37504 6.32136 6.20373C6.39232 6.03243 6.51248 5.88601 6.66665 5.783C6.82082 5.67998 7.00208 5.625 7.1875 5.625C7.43614 5.625 7.6746 5.72377 7.85041 5.89959C8.02623 6.0754 8.125 6.31386 8.125 6.5625ZM13.75 6.5625C13.75 6.74792 13.695 6.92918 13.592 7.08335C13.489 7.23752 13.3426 7.35768 13.1713 7.42864C13 7.49959 12.8115 7.51816 12.6296 7.48199C12.4477 7.44581 12.2807 7.35652 12.1496 7.22541C12.0185 7.0943 11.9292 6.92725 11.893 6.7454C11.8568 6.56354 11.8754 6.37504 11.9464 6.20373C12.0173 6.03243 12.1375 5.88601 12.2917 5.783C12.4458 5.67998 12.6271 5.625 12.8125 5.625C13.0611 5.625 13.2996 5.72377 13.4754 5.89959C13.6512 6.0754 13.75 6.31386 13.75 6.5625ZM8.125 10C8.125 10.1854 8.07002 10.3667 7.967 10.5208C7.86399 10.675 7.71757 10.7952 7.54627 10.8661C7.37496 10.9371 7.18646 10.9557 7.0046 10.9195C6.82275 10.8833 6.6557 10.794 6.52459 10.6629C6.39348 10.5318 6.30419 10.3648 6.26801 10.1829C6.23184 10.001 6.25041 9.81254 6.32136 9.64123C6.39232 9.46993 6.51248 9.32351 6.66665 9.2205C6.82082 9.11748 7.00208 9.0625 7.1875 9.0625C7.43614 9.0625 7.6746 9.16127 7.85041 9.33709C8.02623 9.5129 8.125 9.75136 8.125 10ZM13.75 10C13.75 10.1854 13.695 10.3667 13.592 10.5208C13.489 10.675 13.3426 10.7952 13.1713 10.8661C13 10.9371 12.8115 10.9557 12.6296 10.9195C12.4477 10.8833 12.2807 10.794 12.1496 10.6629C12.0185 10.5318 11.9292 10.3648 11.893 10.1829C11.8568 10.001 11.8754 9.81254 11.9464 9.64123C12.0173 9.46993 12.1375 9.32351 12.2917 9.2205C12.4458 9.11748 12.6271 9.0625 12.8125 9.0625C13.0611 9.0625 13.2996 9.16127 13.4754 9.33709C13.6512 9.5129 13.75 9.75136 13.75 10ZM8.125 13.4375C8.125 13.6229 8.07002 13.8042 7.967 13.9583C7.86399 14.1125 7.71757 14.2327 7.54627 14.3036C7.37496 14.3746 7.18646 14.3932 7.0046 14.357C6.82275 14.3208 6.6557 14.2315 6.52459 14.1004C6.39348 13.9693 6.30419 13.8023 6.26801 13.6204C6.23184 13.4385 6.25041 13.25 6.32136 13.0787C6.39232 12.9074 6.51248 12.761 6.66665 12.658C6.82082 12.555 7.00208 12.5 7.1875 12.5C7.43614 12.5 7.6746 12.5988 7.85041 12.7746C8.02623 12.9504 8.125 13.1889 8.125 13.4375ZM13.75 13.4375C13.75 13.6229 13.695 13.8042 13.592 13.9583C13.489 14.1125 13.3426 14.2327 13.1713 14.3036C13 14.3746 12.8115 14.3932 12.6296 14.357C12.4477 14.3208 12.2807 14.2315 12.1496 14.1004C12.0185 13.9693 11.9292 13.8023 11.893 13.6204C11.8568 13.4385 11.8754 13.25 11.9464 13.0787C12.0173 12.9074 12.1375 12.761 12.2917 12.658C12.4458 12.555 12.6271 12.5 12.8125 12.5C13.0611 12.5 13.2996 12.5988 13.4754 12.7746C13.6512 12.9504 13.75 13.1889 13.75 13.4375Z" fill="#191F2E"/>
</svg>
