<svg width="20" height="20" viewBox="0 0 20 20" fill="none" xmlns="http://www.w3.org/2000/svg">
<path d="M15 2.1875H5C4.25408 2.1875 3.53871 2.48382 3.01126 3.01126C2.48382 3.53871 2.1875 4.25408 2.1875 5V15C2.1875 15.7459 2.48382 16.4613 3.01126 16.9887C3.53871 17.5162 4.25408 17.8125 5 17.8125H15C15.7459 17.8125 16.4613 17.5162 16.9887 16.9887C17.5162 16.4613 17.8125 15.7459 17.8125 15V5C17.8125 4.25408 17.5162 3.53871 16.9887 3.01126C16.4613 2.48382 15.7459 2.1875 15 2.1875ZM15.9375 15C15.9375 15.2486 15.8387 15.4871 15.6629 15.6629C15.4871 15.8387 15.2486 15.9375 15 15.9375H5C4.75136 15.9375 4.5129 15.8387 4.33709 15.6629C4.16127 15.4871 4.0625 15.2486 4.0625 15V5C4.0625 4.75136 4.16127 4.5129 4.33709 4.33709C4.5129 4.16127 4.75136 4.0625 5 4.0625H15C15.2486 4.0625 15.4871 4.16127 15.6629 4.33709C15.8387 4.5129 15.9375 4.75136 15.9375 5V15ZM8.125 6.875C8.125 7.12223 8.05169 7.3639 7.91434 7.56946C7.77699 7.77502 7.58176 7.93524 7.35335 8.02985C7.12495 8.12446 6.87361 8.14921 6.63114 8.10098C6.38866 8.05275 6.16593 7.9337 5.99112 7.75888C5.8163 7.58407 5.69725 7.36134 5.64902 7.11886C5.60079 6.87639 5.62554 6.62505 5.72015 6.39665C5.81476 6.16824 5.97498 5.97301 6.18054 5.83566C6.3861 5.69831 6.62777 5.625 6.875 5.625C7.20652 5.625 7.52446 5.7567 7.75888 5.99112C7.9933 6.22554 8.125 6.54348 8.125 6.875ZM11.25 10C11.25 10.2472 11.1767 10.4889 11.0393 10.6945C10.902 10.9 10.7068 11.0602 10.4784 11.1549C10.2499 11.2495 9.99861 11.2742 9.75614 11.226C9.51366 11.1778 9.29093 11.0587 9.11612 10.8839C8.9413 10.7091 8.82225 10.4863 8.77402 10.2439C8.72579 10.0014 8.75054 9.75005 8.84515 9.52165C8.93976 9.29324 9.09998 9.09801 9.30554 8.96066C9.5111 8.82331 9.75277 8.75 10 8.75C10.3315 8.75 10.6495 8.8817 10.8839 9.11612C11.1183 9.35054 11.25 9.66848 11.25 10ZM14.375 13.125C14.375 13.3722 14.3017 13.6139 14.1643 13.8195C14.027 14.025 13.8318 14.1852 13.6034 14.2799C13.3749 14.3745 13.1236 14.3992 12.8811 14.351C12.6387 14.3028 12.4159 14.1837 12.2411 14.0089C12.0663 13.8341 11.9472 13.6113 11.899 13.3689C11.8508 13.1264 11.8755 12.8751 11.9701 12.6466C12.0648 12.4182 12.225 12.223 12.4305 12.0857C12.6361 11.9483 12.8778 11.875 13.125 11.875C13.4565 11.875 13.7745 12.0067 14.0089 12.2411C14.2433 12.4755 14.375 12.7935 14.375 13.125Z" fill="#191F2E"/>
</svg>
