<svg width="20" height="20" viewBox="0 0 20 20" fill="none" xmlns="http://www.w3.org/2000/svg">
<path d="M15 2.1875H5C4.25408 2.1875 3.53871 2.48382 3.01126 3.01126C2.48382 3.53871 2.1875 4.25408 2.1875 5V15C2.1875 15.7459 2.48382 16.4613 3.01126 16.9887C3.53871 17.5162 4.25408 17.8125 5 17.8125H15C15.7459 17.8125 16.4613 17.5162 16.9887 16.9887C17.5162 16.4613 17.8125 15.7459 17.8125 15V5C17.8125 4.25408 17.5162 3.53871 16.9887 3.01126C16.4613 2.48382 15.7459 2.1875 15 2.1875ZM15.9375 15C15.9375 15.2486 15.8387 15.4871 15.6629 15.6629C15.4871 15.8387 15.2486 15.9375 15 15.9375H5C4.75136 15.9375 4.5129 15.8387 4.33709 15.6629C4.16127 15.4871 4.0625 15.2486 4.0625 15V5C4.0625 4.75136 4.16127 4.5129 4.33709 4.33709C4.5129 4.16127 4.75136 4.0625 5 4.0625H15C15.2486 4.0625 15.4871 4.16127 15.6629 4.33709C15.8387 4.5129 15.9375 4.75136 15.9375 5V15ZM8.75 6.5625C8.75 6.80973 8.67669 7.0514 8.53934 7.25696C8.40199 7.46252 8.20676 7.62274 7.97835 7.71735C7.74995 7.81196 7.49861 7.83671 7.25614 7.78848C7.01366 7.74025 6.79093 7.6212 6.61612 7.44638C6.4413 7.27157 6.32225 7.04884 6.27402 6.80636C6.22579 6.56389 6.25054 6.31255 6.34515 6.08415C6.43976 5.85574 6.59998 5.66051 6.80554 5.52316C7.0111 5.38581 7.25277 5.3125 7.5 5.3125C7.83152 5.3125 8.14946 5.4442 8.38388 5.67862C8.6183 5.91304 8.75 6.23098 8.75 6.5625ZM13.75 6.5625C13.75 6.80973 13.6767 7.0514 13.5393 7.25696C13.402 7.46252 13.2068 7.62274 12.9784 7.71735C12.7499 7.81196 12.4986 7.83671 12.2561 7.78848C12.0137 7.74025 11.7909 7.6212 11.6161 7.44638C11.4413 7.27157 11.3222 7.04884 11.274 6.80636C11.2258 6.56389 11.2505 6.31255 11.3451 6.08415C11.4398 5.85574 11.6 5.66051 11.8055 5.52316C12.0111 5.38581 12.2528 5.3125 12.5 5.3125C12.8315 5.3125 13.1495 5.4442 13.3839 5.67862C13.6183 5.91304 13.75 6.23098 13.75 6.5625ZM8.75 10C8.75 10.2472 8.67669 10.4889 8.53934 10.6945C8.40199 10.9 8.20676 11.0602 7.97835 11.1549C7.74995 11.2495 7.49861 11.2742 7.25614 11.226C7.01366 11.1778 6.79093 11.0587 6.61612 10.8839C6.4413 10.7091 6.32225 10.4863 6.27402 10.2439C6.22579 10.0014 6.25054 9.75005 6.34515 9.52165C6.43976 9.29324 6.59998 9.09801 6.80554 8.96066C7.0111 8.82331 7.25277 8.75 7.5 8.75C7.83152 8.75 8.14946 8.8817 8.38388 9.11612C8.6183 9.35054 8.75 9.66848 8.75 10ZM13.75 10C13.75 10.2472 13.6767 10.4889 13.5393 10.6945C13.402 10.9 13.2068 11.0602 12.9784 11.1549C12.7499 11.2495 12.4986 11.2742 12.2561 11.226C12.0137 11.1778 11.7909 11.0587 11.6161 10.8839C11.4413 10.7091 11.3222 10.4863 11.274 10.2439C11.2258 10.0014 11.2505 9.75005 11.3451 9.52165C11.4398 9.29324 11.6 9.09801 11.8055 8.96066C12.0111 8.82331 12.2528 8.75 12.5 8.75C12.8315 8.75 13.1495 8.8817 13.3839 9.11612C13.6183 9.35054 13.75 9.66848 13.75 10ZM8.75 13.4375C8.75 13.6847 8.67669 13.9264 8.53934 14.132C8.40199 14.3375 8.20676 14.4977 7.97835 14.5924C7.74995 14.687 7.49861 14.7117 7.25614 14.6635C7.01366 14.6153 6.79093 14.4962 6.61612 14.3214C6.4413 14.1466 6.32225 13.9238 6.27402 13.6814C6.22579 13.4389 6.25054 13.1876 6.34515 12.9591C6.43976 12.7307 6.59998 12.5355 6.80554 12.3982C7.0111 12.2608 7.25277 12.1875 7.5 12.1875C7.83152 12.1875 8.14946 12.3192 8.38388 12.5536C8.6183 12.788 8.75 13.106 8.75 13.4375ZM13.75 13.4375C13.75 13.6847 13.6767 13.9264 13.5393 14.132C13.402 14.3375 13.2068 14.4977 12.9784 14.5924C12.7499 14.687 12.4986 14.7117 12.2561 14.6635C12.0137 14.6153 11.7909 14.4962 11.6161 14.3214C11.4413 14.1466 11.3222 13.9238 11.274 13.6814C11.2258 13.4389 11.2505 13.1876 11.3451 12.9591C11.4398 12.7307 11.6 12.5355 11.8055 12.3982C12.0111 12.2608 12.2528 12.1875 12.5 12.1875C12.8315 12.1875 13.1495 12.3192 13.3839 12.5536C13.6183 12.788 13.75 13.106 13.75 13.4375Z" fill="#191F2E"/>
</svg>
