<svg width="20" height="20" viewBox="0 0 20 20" fill="none" xmlns="http://www.w3.org/2000/svg">
<path d="M15 2.5H5C4.33696 2.5 3.70107 2.76339 3.23223 3.23223C2.76339 3.70107 2.5 4.33696 2.5 5V15C2.5 15.663 2.76339 16.2989 3.23223 16.7678C3.70107 17.2366 4.33696 17.5 5 17.5H15C15.663 17.5 16.2989 17.2366 16.7678 16.7678C17.2366 16.2989 17.5 15.663 17.5 15V5C17.5 4.33696 17.2366 3.70107 16.7678 3.23223C16.2989 2.76339 15.663 2.5 15 2.5ZM7.8125 13.125C7.62708 13.125 7.44582 13.07 7.29165 12.967C7.13748 12.864 7.01732 12.7176 6.94636 12.5463C6.87541 12.375 6.85684 12.1865 6.89301 12.0046C6.92919 11.8227 7.01848 11.6557 7.14959 11.5246C7.2807 11.3935 7.44775 11.3042 7.6296 11.268C7.81146 11.2318 7.99996 11.2504 8.17127 11.3214C8.34257 11.3923 8.48899 11.5125 8.592 11.6667C8.69502 11.8208 8.75 12.0021 8.75 12.1875C8.75 12.4361 8.65123 12.6746 8.47541 12.8504C8.2996 13.0262 8.06114 13.125 7.8125 13.125ZM7.8125 8.75C7.62708 8.75 7.44582 8.69502 7.29165 8.592C7.13748 8.48899 7.01732 8.34257 6.94636 8.17127C6.87541 7.99996 6.85684 7.81146 6.89301 7.6296C6.92919 7.44775 7.01848 7.2807 7.14959 7.14959C7.2807 7.01848 7.44775 6.92919 7.6296 6.89301C7.81146 6.85684 7.99996 6.87541 8.17127 6.94636C8.34257 7.01732 8.48899 7.13748 8.592 7.29165C8.69502 7.44582 8.75 7.62708 8.75 7.8125C8.75 8.06114 8.65123 8.2996 8.47541 8.47541C8.2996 8.65123 8.06114 8.75 7.8125 8.75ZM12.1875 13.125C12.0021 13.125 11.8208 13.07 11.6667 12.967C11.5125 12.864 11.3923 12.7176 11.3214 12.5463C11.2504 12.375 11.2318 12.1865 11.268 12.0046C11.3042 11.8227 11.3935 11.6557 11.5246 11.5246C11.6557 11.3935 11.8227 11.3042 12.0046 11.268C12.1865 11.2318 12.375 11.2504 12.5463 11.3214C12.7176 11.3923 12.864 11.5125 12.967 11.6667C13.07 11.8208 13.125 12.0021 13.125 12.1875C13.125 12.4361 13.0262 12.6746 12.8504 12.8504C12.6746 13.0262 12.4361 13.125 12.1875 13.125ZM12.1875 8.75C12.0021 8.75 11.8208 8.69502 11.6667 8.592C11.5125 8.48899 11.3923 8.34257 11.3214 8.17127C11.2504 7.99996 11.2318 7.81146 11.268 7.6296C11.3042 7.44775 11.3935 7.2807 11.5246 7.14959C11.6557 7.01848 11.8227 6.92919 12.0046 6.89301C12.1865 6.85684 12.375 6.87541 12.5463 6.94636C12.7176 7.01732 12.864 7.13748 12.967 7.29165C13.07 7.44582 13.125 7.62708 13.125 7.8125C13.125 8.06114 13.0262 8.2996 12.8504 8.47541C12.6746 8.65123 12.4361 8.75 12.1875 8.75Z" fill="#191F2E"/>
</svg>
