<svg width="20" height="20" viewBox="0 0 20 20" fill="none" xmlns="http://www.w3.org/2000/svg">
<path d="M10 1.875C8.39303 1.875 6.82214 2.35152 5.486 3.24431C4.14985 4.1371 3.10844 5.40605 2.49348 6.8907C1.87852 8.37535 1.71762 10.009 2.03112 11.5851C2.34463 13.1612 3.11846 14.6089 4.25476 15.7452C5.39106 16.8815 6.8388 17.6554 8.4149 17.9689C9.99099 18.2824 11.6247 18.1215 13.1093 17.5065C14.594 16.8916 15.8629 15.8502 16.7557 14.514C17.6485 13.1779 18.125 11.607 18.125 10C18.1227 7.84581 17.266 5.78051 15.7427 4.25727C14.2195 2.73403 12.1542 1.87727 10 1.875ZM13.0625 9.375C12.982 8.98452 12.8271 8.61318 12.6063 8.28125L15.2805 5.60625C16.1732 6.67513 16.7183 7.99107 16.843 9.37813L13.0625 9.375ZM11.875 10C11.875 10.3708 11.765 10.7334 11.559 11.0417C11.353 11.35 11.0601 11.5904 10.7175 11.7323C10.3749 11.8742 9.99792 11.9113 9.63421 11.839C9.27049 11.7666 8.9364 11.588 8.67418 11.3258C8.41195 11.0636 8.23338 10.7295 8.16103 10.3658C8.08868 10.0021 8.12581 9.62508 8.26773 9.28247C8.40964 8.93986 8.64997 8.64702 8.95831 8.44099C9.26665 8.23497 9.62916 8.125 10 8.125C10.4973 8.125 10.9742 8.32254 11.3258 8.67417C11.6775 9.02581 11.875 9.50272 11.875 10ZM10 16.875C8.89554 16.8758 7.80715 16.6104 6.82697 16.1014C5.84678 15.5924 5.00365 14.8548 4.36894 13.9509C3.73422 13.0471 3.32662 12.0036 3.18062 10.9088C3.03462 9.81404 3.15453 8.70021 3.53019 7.6616C3.90585 6.62299 4.52621 5.69017 5.33876 4.9421C6.1513 4.19404 7.13212 3.65274 8.19818 3.36404C9.26424 3.07533 10.3842 3.04772 11.4632 3.28353C12.5422 3.51934 13.5485 4.01164 14.3969 4.71875L11.7188 7.39375C11.16 7.02577 10.4979 6.84681 9.82992 6.88321C9.16189 6.9196 8.52317 7.16942 8.00772 7.59593C7.49227 8.02243 7.12731 8.60309 6.96651 9.2525C6.80572 9.90191 6.85758 10.5858 7.11447 11.2035C7.37136 11.8213 7.81972 12.3402 8.39359 12.6841C8.96746 13.028 9.63655 13.1787 10.3024 13.1139C10.9683 13.0491 11.5958 12.7724 12.0927 12.3244C12.5895 11.8763 12.9295 11.2807 13.0625 10.625H16.8461C16.6883 12.3323 15.899 13.9192 14.6328 15.0751C13.3666 16.2311 11.7145 16.8729 10 16.875Z" fill="#191F2E"/>
</svg>
