<svg width="20" height="20" viewBox="0 0 20 20" fill="none" xmlns="http://www.w3.org/2000/svg">
<path d="M19.3367 13.6242L17.0312 4.53122C16.9706 4.2945 16.8422 4.08061 16.6618 3.91576C16.4814 3.75091 16.2568 3.64225 16.0156 3.60309L13.1984 3.14059C12.8878 3.09064 12.5698 3.15799 12.3061 3.32953C12.0425 3.50107 11.852 3.76455 11.7719 4.06872L11.7554 4.13513C11.7448 4.17732 11.7431 4.22126 11.7505 4.26414C11.7578 4.30702 11.774 4.3479 11.7981 4.38416C11.8221 4.42041 11.8535 4.45125 11.8901 4.47469C11.9268 4.49813 11.9679 4.51366 12.0109 4.52028C12.6574 4.61516 13.2951 4.76199 13.9179 4.95934C14.0737 5.00633 14.2057 5.11077 14.2872 5.2515C14.3687 5.39223 14.3937 5.55871 14.357 5.71716C14.3359 5.79973 14.2982 5.87712 14.2461 5.94456C14.194 6.01201 14.1287 6.06809 14.0541 6.10936C13.9795 6.15063 13.8973 6.17621 13.8125 6.18454C13.7277 6.19287 13.6421 6.18376 13.5609 6.15778C11.2498 5.44902 8.7798 5.4463 6.46717 6.14997C6.31066 6.20259 6.1399 6.19291 5.99034 6.12293C5.84078 6.05296 5.72393 5.92806 5.66404 5.77419C5.63558 5.69523 5.62331 5.61135 5.62796 5.52755C5.63262 5.44374 5.65411 5.36174 5.69115 5.28642C5.72819 5.2111 5.78002 5.14402 5.84355 5.08916C5.90708 5.03431 5.981 4.99282 6.06092 4.96716C6.69154 4.76629 7.3374 4.61684 7.99217 4.52028C8.03517 4.51366 8.07631 4.49813 8.11296 4.47469C8.14961 4.45125 8.18097 4.42041 8.20501 4.38416C8.22906 4.3479 8.24527 4.30702 8.25261 4.26414C8.25995 4.22126 8.25826 4.17732 8.24763 4.13513L8.23123 4.06872C8.15103 3.76429 7.96032 3.50065 7.69629 3.3292C7.43225 3.15775 7.11383 3.09079 6.8031 3.14138L3.98435 3.60388C3.74324 3.64297 3.51875 3.75152 3.33837 3.91622C3.15798 4.08092 3.02953 4.29464 2.96873 4.53122L0.663259 13.6242C0.590972 13.91 0.622433 14.2122 0.752043 14.477C0.881654 14.7418 1.10101 14.952 1.37107 15.0703L6.60545 17.3914C6.76284 17.4613 6.93288 17.4984 7.10511 17.5002C7.27734 17.5021 7.44813 17.4687 7.60699 17.4021C7.76584 17.3355 7.9094 17.2371 8.02884 17.113C8.14828 16.9889 8.24108 16.8417 8.30154 16.6804L8.5742 15.9422C8.59044 15.8979 8.59648 15.8506 8.59186 15.8037C8.58724 15.7568 8.57208 15.7116 8.54751 15.6714C8.52294 15.6312 8.4896 15.5971 8.44998 15.5716C8.41036 15.5461 8.36549 15.5299 8.31873 15.5242C7.55977 15.4323 6.81099 15.2701 6.08201 15.0398C5.92694 14.9927 5.7955 14.8885 5.71417 14.7483C5.63284 14.6082 5.60767 14.4424 5.64373 14.2843C5.66463 14.2015 5.70227 14.1239 5.75434 14.0562C5.80641 13.9885 5.8718 13.9322 5.94647 13.8908C6.02114 13.8494 6.10351 13.8237 6.1885 13.8153C6.27349 13.8069 6.35929 13.8161 6.4406 13.8422C8.76035 14.5526 11.2396 14.5526 13.5594 13.8422C13.6406 13.8162 13.7262 13.8071 13.8111 13.8155C13.896 13.8239 13.9782 13.8495 14.0528 13.8909C14.1273 13.9322 14.1927 13.9884 14.2447 14.0559C14.2968 14.1235 14.3344 14.2009 14.3554 14.2836C14.3919 14.4417 14.3669 14.6078 14.2856 14.7482C14.2042 14.8886 14.0725 14.9928 13.9172 15.0398C13.1885 15.2702 12.4399 15.4324 11.6812 15.5242C11.6345 15.5299 11.5896 15.5461 11.55 15.5716C11.5104 15.5971 11.477 15.6312 11.4525 15.6714C11.4279 15.7116 11.4127 15.7568 11.4081 15.8037C11.4035 15.8506 11.4095 15.8979 11.4258 15.9422L11.6984 16.6804C11.759 16.8417 11.8518 16.9888 11.9713 17.1128C12.0907 17.2369 12.2343 17.3352 12.3931 17.4018C12.5519 17.4683 12.7227 17.5018 12.8949 17.5C13.0671 17.4982 13.2371 17.4612 13.3945 17.3914L18.6289 15.0703C18.8989 14.952 19.1183 14.7418 19.2479 14.477C19.3775 14.2122 19.409 13.91 19.3367 13.6242ZM7.18748 11.875C7.00206 11.875 6.8208 11.82 6.66663 11.717C6.51246 11.614 6.3923 11.4675 6.32134 11.2962C6.25038 11.1249 6.23182 10.9364 6.26799 10.7546C6.30417 10.5727 6.39345 10.4057 6.52457 10.2746C6.65568 10.1434 6.82272 10.0542 7.00458 10.018C7.18644 9.98181 7.37494 10.0004 7.54624 10.0713C7.71755 10.1423 7.86397 10.2625 7.96698 10.4166C8.06999 10.5708 8.12498 10.752 8.12498 10.9375C8.12498 11.1861 8.02621 11.4246 7.85039 11.6004C7.67458 11.7762 7.43612 11.875 7.18748 11.875ZM12.8125 11.875C12.6271 11.875 12.4458 11.82 12.2916 11.717C12.1375 11.614 12.0173 11.4675 11.9463 11.2962C11.8754 11.1249 11.8568 10.9364 11.893 10.7546C11.9292 10.5727 12.0185 10.4057 12.1496 10.2746C12.2807 10.1434 12.4477 10.0542 12.6296 10.018C12.8114 9.98181 12.9999 10.0004 13.1712 10.0713C13.3425 10.1423 13.489 10.2625 13.592 10.4166C13.695 10.5708 13.75 10.752 13.75 10.9375C13.75 11.1861 13.6512 11.4246 13.4754 11.6004C13.2996 11.7762 13.0611 11.875 12.8125 11.875Z" fill="#191F2E"/>
</svg>
