<svg width="20" height="20" viewBox="0 0 20 20" fill="none" xmlns="http://www.w3.org/2000/svg">
<path d="M10 1.5625C8.33122 1.5625 6.69992 2.05735 5.31238 2.98448C3.92484 3.9116 2.84338 5.22936 2.20477 6.77111C1.56616 8.31286 1.39907 10.0094 1.72463 11.6461C2.05019 13.2828 2.85379 14.7862 4.03379 15.9662C5.2138 17.1462 6.71721 17.9498 8.35393 18.2754C9.99064 18.6009 11.6871 18.4338 13.2289 17.7952C14.7706 17.1566 16.0884 16.0752 17.0155 14.6876C17.9427 13.3001 18.4375 11.6688 18.4375 10C18.435 7.763 17.5453 5.61833 15.9635 4.03653C14.3817 2.45473 12.237 1.56498 10 1.5625ZM13.3063 9.0625C13.2334 8.80564 13.1309 8.55814 13.0008 8.325L15.2539 6.07188C15.9121 6.94874 16.3387 7.97725 16.4945 9.0625H13.3063ZM11.5625 10C11.5625 10.309 11.4709 10.6111 11.2992 10.8681C11.1275 11.125 10.8835 11.3253 10.5979 11.4436C10.3124 11.5618 9.99827 11.5928 9.69518 11.5325C9.39208 11.4722 9.11367 11.3234 8.89515 11.1049C8.67663 10.8863 8.52782 10.6079 8.46753 10.3048C8.40724 10.0017 8.43818 9.68757 8.55644 9.40206C8.6747 9.11655 8.87497 8.87252 9.13193 8.70083C9.38888 8.52914 9.69097 8.4375 10 8.4375C10.4144 8.4375 10.8118 8.60212 11.1049 8.89515C11.3979 9.18817 11.5625 9.5856 11.5625 10ZM10 16.5625C8.96026 16.5632 7.93525 16.3168 7.00941 15.8436C6.08357 15.3704 5.2834 14.6841 4.67485 13.841C4.06629 12.998 3.66675 12.0224 3.50916 10.9947C3.35157 9.96694 3.44043 8.91647 3.76842 7.92982C4.09642 6.94317 4.65415 6.04857 5.39568 5.31974C6.1372 4.5909 7.0413 4.04869 8.03346 3.73778C9.02563 3.42686 10.0775 3.35615 11.1023 3.53145C12.1272 3.70676 13.0957 4.12308 13.9281 4.74609L11.6742 6.99922C11.0507 6.65121 10.3344 6.50599 9.62457 6.58374C8.91478 6.66148 8.24682 6.95832 7.71344 7.43304C7.18007 7.90776 6.80777 8.53679 6.64823 9.23278C6.4887 9.92876 6.54986 10.6571 6.82321 11.3168C7.09657 11.9764 7.56855 12.5346 8.17361 12.9137C8.77868 13.2928 9.48679 13.4741 10.1996 13.4324C10.9124 13.3907 11.5946 13.1281 12.1513 12.681C12.708 12.2339 13.1117 11.6245 13.3063 10.9375H16.4945C16.2673 12.4984 15.4861 13.9256 14.2938 14.9583C13.1014 15.991 11.5774 16.5604 10 16.5625Z" fill="#191F2E"/>
</svg>
