<svg width="20" height="20" viewBox="0 0 20 20" fill="none" xmlns="http://www.w3.org/2000/svg">
<path d="M14.711 3.3837C14.6948 3.36982 14.6778 3.35678 14.6603 3.34464C14.6423 3.33214 14.6235 3.32042 14.6048 3.30948C12.8655 2.05227 10.699 1.53536 8.57951 1.8719C6.46 2.20845 4.56016 3.37104 3.29589 5.10517C2.03162 6.8393 1.50591 9.0037 1.83384 11.1246C2.16177 13.2454 3.31663 15.15 5.04561 16.4213C6.77459 17.6926 8.93683 18.2271 11.059 17.9078C13.1812 17.5885 15.0904 16.4414 16.3687 14.7176C17.6471 12.9938 18.1903 10.8337 17.8797 8.71025C17.569 6.58679 16.4296 4.67292 14.711 3.3876V3.3837ZM10.0001 11.8751C9.62926 11.8751 9.26675 11.7651 8.95841 11.5591C8.65006 11.3531 8.40974 11.0602 8.26783 10.7176C8.12591 10.375 8.08878 9.99803 8.16113 9.63431C8.23347 9.2706 8.41205 8.9365 8.67427 8.67428C8.9365 8.41206 9.27059 8.23348 9.63431 8.16113C9.99802 8.08879 10.375 8.12592 10.7176 8.26783C11.0602 8.40975 11.3531 8.65007 11.5591 8.95841C11.7651 9.26675 11.8751 9.62927 11.8751 10.0001C11.8751 10.4974 11.6776 10.9743 11.3259 11.3259C10.9743 11.6776 10.4974 11.8751 10.0001 11.8751ZM16.8751 10.0001C16.8751 10.1931 16.8665 10.3845 16.8509 10.5735L13.1251 9.91573C13.1041 9.14527 12.7978 8.41005 12.2657 7.85245L14.436 4.75323C15.2003 5.3973 15.8146 6.20059 16.2359 7.10691C16.6572 8.01322 16.8753 9.00065 16.8751 10.0001Z" fill="#191F2E"/>
</svg>
