<svg width="20" height="20" viewBox="0 0 20 20" fill="none" xmlns="http://www.w3.org/2000/svg">
<path d="M8.43748 10.6249C8.43748 10.8721 8.36417 11.1138 8.22682 11.3194C8.08946 11.5249 7.89424 11.6851 7.66583 11.7798C7.43743 11.8744 7.18609 11.8991 6.94362 11.8509C6.70114 11.8027 6.47841 11.6836 6.3036 11.5088C6.12878 11.334 6.00973 11.1112 5.9615 10.8688C5.91327 10.6263 5.93802 10.375 6.03263 10.1465C6.12724 9.91814 6.28745 9.72292 6.49302 9.58557C6.69858 9.44821 6.94025 9.3749 7.18748 9.3749C7.519 9.3749 7.83694 9.5066 8.07136 9.74102C8.30578 9.97544 8.43748 10.2934 8.43748 10.6249ZM12.8125 9.3749C12.5653 9.3749 12.3236 9.44821 12.118 9.58557C11.9125 9.72292 11.7522 9.91814 11.6576 10.1465C11.563 10.375 11.5383 10.6263 11.5865 10.8688C11.6347 11.1112 11.7538 11.334 11.9286 11.5088C12.1034 11.6836 12.3261 11.8027 12.5686 11.8509C12.8111 11.8991 13.0624 11.8744 13.2908 11.7798C13.5192 11.6851 13.7145 11.5249 13.8518 11.3194C13.9892 11.1138 14.0625 10.8721 14.0625 10.6249C14.0625 10.2934 13.9308 9.97544 13.6964 9.74102C13.4619 9.5066 13.144 9.3749 12.8125 9.3749ZM18.7554 15.3562L13.5211 17.6772C13.3247 17.7646 13.1126 17.8108 12.8977 17.8131C12.6828 17.8153 12.4697 17.7735 12.2716 17.6903C12.0735 17.6071 11.8945 17.4842 11.7457 17.3292C11.5968 17.1742 11.4813 16.9903 11.4062 16.789L10.739 14.9819C10.4945 14.9929 10.2492 15.0007 10.0008 15.0007C9.75232 15.0007 9.50701 14.9929 9.26248 14.9819L8.59373 16.789C8.51828 16.9901 8.40252 17.1738 8.25356 17.3286C8.10461 17.4834 7.92559 17.6062 7.72749 17.6894C7.52939 17.7725 7.31639 17.8144 7.10154 17.8123C6.8867 17.8102 6.67455 17.7643 6.4781 17.6772L1.24373 15.3562C0.906355 15.2079 0.632492 14.9448 0.470846 14.6137C0.3092 14.2825 0.270247 13.9047 0.360917 13.5476L2.66795 4.45303C2.74324 4.15756 2.90333 3.89058 3.1285 3.68499C3.35366 3.4794 3.63406 3.34418 3.93514 3.296L6.75232 2.83271C7.14004 2.7707 7.53696 2.85502 7.86599 3.06927C8.19502 3.28352 8.43268 3.61243 8.53279 3.99209L8.87732 5.35225C9.24763 5.32646 9.62107 5.3124 9.99998 5.3124C10.3789 5.3124 10.7523 5.32646 11.1226 5.35225L11.4672 3.99209C11.5671 3.61233 11.8047 3.28332 12.1338 3.06904C12.4629 2.85476 12.8599 2.77052 13.2476 2.83271L16.0648 3.296C16.3659 3.34418 16.6463 3.4794 16.8715 3.68499C17.0966 3.89058 17.2567 4.15756 17.332 4.45303L19.639 13.5452C19.7303 13.9028 19.6915 14.2812 19.5297 14.6129C19.3678 14.9446 19.0935 15.208 18.7554 15.3562ZM17.7562 13.7499L15.5648 5.11396L13.2156 4.72803L12.9937 5.60068C13.2203 5.646 13.4453 5.69443 13.6664 5.75068C13.7876 5.77901 13.9019 5.83119 14.0027 5.90418C14.1035 5.97716 14.1888 6.06948 14.2536 6.17577C14.3183 6.28205 14.3613 6.40017 14.3799 6.52323C14.3985 6.64628 14.3925 6.77182 14.3621 6.89251C14.3317 7.0132 14.2776 7.12663 14.2029 7.22619C14.1282 7.32575 14.0344 7.40943 13.9271 7.47237C13.8197 7.53531 13.7009 7.57624 13.5775 7.59277C13.4541 7.6093 13.3287 7.6011 13.2086 7.56865C12.1588 7.31024 11.0811 7.18219 9.99998 7.1874C8.91885 7.18219 7.84119 7.31024 6.79139 7.56865C6.55197 7.62462 6.30015 7.58429 6.09018 7.45636C5.88021 7.32843 5.72891 7.12313 5.66887 6.8847C5.60882 6.64628 5.64485 6.3938 5.76918 6.18168C5.89352 5.96957 6.0962 5.81478 6.33357 5.75068C6.55467 5.69443 6.77967 5.646 7.00623 5.60068L6.78513 4.72803L4.43514 5.11396L2.24373 13.7499L6.94842 15.8358L7.33904 14.7757C6.99764 14.7163 6.6617 14.6468 6.33279 14.564C6.21337 14.5339 6.10104 14.4806 6.00221 14.4071C5.90339 14.3337 5.82 14.2415 5.75681 14.1358C5.6292 13.9223 5.59161 13.6669 5.65232 13.4257C5.71303 13.1845 5.86706 12.9773 6.08053 12.8497C6.294 12.7221 6.54942 12.6845 6.7906 12.7452C7.84073 13.0032 8.91865 13.1307 9.99998 13.1249C11.0811 13.1301 12.1588 13.0021 13.2086 12.7437C13.4498 12.6829 13.7052 12.7205 13.9186 12.8481C14.1321 12.9758 14.2861 13.1829 14.3469 13.4241C14.4076 13.6653 14.37 13.9207 14.2424 14.1342C14.1148 14.3477 13.9076 14.5017 13.6664 14.5624C13.3375 14.6452 13.0015 14.7147 12.6601 14.7741L13.0508 15.8343L17.7562 13.7499Z" fill="#191F2E"/>
</svg>
