<svg width="20" height="20" viewBox="0 0 20 20" fill="none" xmlns="http://www.w3.org/2000/svg">
<path d="M17.8125 10C17.8125 10.2486 17.7137 10.4871 17.5379 10.6629C17.3621 10.8387 17.1236 10.9375 16.875 10.9375H3.125C2.87636 10.9375 2.6379 10.8387 2.46209 10.6629C2.28627 10.4871 2.1875 10.2486 2.1875 10C2.1875 9.75136 2.28627 9.5129 2.46209 9.33709C2.6379 9.16127 2.87636 9.0625 3.125 9.0625H16.875C17.1236 9.0625 17.3621 9.16127 17.5379 9.33709C17.7137 9.5129 17.8125 9.75136 17.8125 10ZM10 6.5625C10.309 6.5625 10.6111 6.47086 10.8681 6.29917C11.125 6.12748 11.3253 5.88345 11.4436 5.59794C11.5618 5.31243 11.5928 4.99827 11.5325 4.69517C11.4722 4.39208 11.3234 4.11367 11.1049 3.89515C10.8863 3.67663 10.6079 3.52781 10.3048 3.46752C10.0017 3.40723 9.68757 3.43818 9.40206 3.55644C9.11655 3.6747 8.87252 3.87497 8.70083 4.13192C8.52914 4.38887 8.4375 4.69097 8.4375 5C8.4375 5.4144 8.60212 5.81183 8.89515 6.10486C9.18817 6.39788 9.5856 6.5625 10 6.5625ZM10 13.4375C9.69097 13.4375 9.38887 13.5291 9.13192 13.7008C8.87497 13.8725 8.6747 14.1165 8.55644 14.4021C8.43818 14.6876 8.40723 15.0017 8.46752 15.3048C8.52781 15.6079 8.67663 15.8863 8.89515 16.1049C9.11367 16.3234 9.39208 16.4722 9.69517 16.5325C9.99827 16.5928 10.3124 16.5618 10.5979 16.4436C10.8835 16.3253 11.1275 16.125 11.2992 15.8681C11.4709 15.6111 11.5625 15.309 11.5625 15C11.5625 14.5856 11.3979 14.1882 11.1049 13.8951C10.8118 13.6021 10.4144 13.4375 10 13.4375Z" fill="#191F2E"/>
</svg>
