<svg width="20" height="20" viewBox="0 0 20 20" fill="none" xmlns="http://www.w3.org/2000/svg">
<path d="M17.5 10C17.5 10.1658 17.4342 10.3247 17.3169 10.4419C17.1997 10.5592 17.0408 10.625 16.875 10.625H3.125C2.95924 10.625 2.80027 10.5592 2.68306 10.4419C2.56585 10.3247 2.5 10.1658 2.5 10C2.5 9.83424 2.56585 9.67527 2.68306 9.55806C2.80027 9.44085 2.95924 9.375 3.125 9.375H16.875C17.0408 9.375 17.1997 9.44085 17.3169 9.55806C17.4342 9.67527 17.5 9.83424 17.5 10ZM10 6.25C10.2472 6.25 10.4889 6.17669 10.6945 6.03934C10.9 5.90199 11.0602 5.70676 11.1549 5.47835C11.2495 5.24995 11.2742 4.99861 11.226 4.75614C11.1778 4.51366 11.0587 4.29093 10.8839 4.11612C10.7091 3.9413 10.4863 3.82225 10.2439 3.77402C10.0014 3.72579 9.75005 3.75054 9.52165 3.84515C9.29324 3.93976 9.09801 4.09998 8.96066 4.30554C8.82331 4.5111 8.75 4.75277 8.75 5C8.75 5.33152 8.8817 5.64946 9.11612 5.88388C9.35054 6.1183 9.66848 6.25 10 6.25ZM10 13.75C9.75277 13.75 9.5111 13.8233 9.30554 13.9607C9.09998 14.098 8.93976 14.2932 8.84515 14.5216C8.75054 14.7501 8.72579 15.0014 8.77402 15.2439C8.82225 15.4863 8.9413 15.7091 9.11612 15.8839C9.29093 16.0587 9.51366 16.1778 9.75614 16.226C9.99861 16.2742 10.2499 16.2495 10.4784 16.1549C10.7068 16.0602 10.902 15.9 11.0393 15.6945C11.1767 15.4889 11.25 15.2472 11.25 15C11.25 14.6685 11.1183 14.3505 10.8839 14.1161C10.6495 13.8817 10.3315 13.75 10 13.75Z" fill="#191F2E"/>
</svg>
