<svg width="20" height="20" viewBox="0 0 20 20" fill="none" xmlns="http://www.w3.org/2000/svg">
<path d="M8.43747 10.625C8.43747 10.8722 8.36416 11.1139 8.22681 11.3194C8.08946 11.525 7.89424 11.6852 7.66583 11.7798C7.43742 11.8744 7.18609 11.8992 6.94361 11.8509C6.70113 11.8027 6.47841 11.6837 6.30359 11.5088C6.12878 11.334 6.00972 11.1113 5.96149 10.8688C5.91326 10.6263 5.93801 10.375 6.03262 10.1466C6.12723 9.91819 6.28745 9.72297 6.49301 9.58562C6.69857 9.44827 6.94025 9.37496 7.18747 9.37496C7.51899 9.37496 7.83694 9.50665 8.07136 9.74107C8.30578 9.97549 8.43747 10.2934 8.43747 10.625ZM12.8125 9.37496C12.5652 9.37496 12.3236 9.44827 12.118 9.58562C11.9124 9.72297 11.7522 9.91819 11.6576 10.1466C11.563 10.375 11.5383 10.6263 11.5865 10.8688C11.6347 11.1113 11.7538 11.334 11.9286 11.5088C12.1034 11.6837 12.3261 11.8027 12.5686 11.8509C12.8111 11.8992 13.0624 11.8744 13.2908 11.7798C13.5192 11.6852 13.7145 11.525 13.8518 11.3194C13.9892 11.1139 14.0625 10.8722 14.0625 10.625C14.0625 10.2934 13.9308 9.97549 13.6964 9.74107C13.4619 9.50665 13.144 9.37496 12.8125 9.37496ZM18.1437 11.4203C17.9375 11.5146 17.7135 11.5639 17.4867 11.5648C17.3862 11.5645 17.286 11.5543 17.1875 11.5343V14.375C17.1864 15.2863 16.8239 16.1601 16.1795 16.8045C15.5351 17.4489 14.6613 17.8114 13.75 17.8125H6.24997C5.33861 17.8114 4.46487 17.4489 3.82044 16.8045C3.176 16.1601 2.81351 15.2863 2.81247 14.375V11.5335C2.71351 11.5539 2.61273 11.5641 2.51169 11.564C2.28545 11.5634 2.06197 11.5144 1.85622 11.4203C1.53511 11.2792 1.27178 11.0327 1.10983 10.7215C0.947874 10.4104 0.896991 10.0533 0.965599 9.70933L2.24841 2.83433C2.28792 2.62512 2.36976 2.42619 2.48893 2.24975C2.60809 2.07332 2.76205 1.92309 2.94137 1.80831C3.12068 1.69352 3.32156 1.61659 3.53168 1.58224C3.7418 1.54789 3.95672 1.55684 4.16326 1.60855L4.19997 1.61871L8.26247 2.81167H11.7422L15.8047 1.61871L15.8414 1.60855C16.0481 1.55686 16.2632 1.54799 16.4734 1.58249C16.6837 1.61698 16.8846 1.69412 17.064 1.80914C17.2433 1.92417 17.3973 2.07466 17.5163 2.25137C17.6353 2.42807 17.717 2.62725 17.7562 2.83667L19.039 9.71167C19.1067 10.0559 19.0549 10.4128 18.8921 10.7235C18.7293 11.0342 18.4652 11.28 18.1437 11.4203ZM13.4562 4.26167L16.9531 8.78277L15.9718 3.52261L13.4562 4.26167ZM3.04685 8.78277L6.54372 4.26167L4.0281 3.52261L3.04685 8.78277ZM15.3125 14.375V9.72496L11.4148 4.68746H8.58513L4.68747 9.72496V14.375C4.68747 14.7894 4.85209 15.1868 5.14512 15.4798C5.43815 15.7728 5.83557 15.9375 6.24997 15.9375H9.06247V15.3906L8.08747 14.4148C7.91135 14.2387 7.81241 13.9998 7.81241 13.7507C7.81241 13.5017 7.91135 13.2628 8.08747 13.0867C8.26359 12.9106 8.50246 12.8116 8.75154 12.8116C9.00061 12.8116 9.23948 12.9106 9.4156 13.0867L9.99997 13.6718L10.5867 13.0843C10.7628 12.9082 11.0017 12.8093 11.2508 12.8093C11.4998 12.8093 11.7387 12.9082 11.9148 13.0843C12.0909 13.2605 12.1899 13.4993 12.1899 13.7484C12.1899 13.9975 12.0909 14.2363 11.9148 14.4125L10.9375 15.3906V15.9375H13.75C14.1644 15.9375 14.5618 15.7728 14.8548 15.4798C15.1479 15.1868 15.3125 14.7894 15.3125 14.375Z" fill="#191F2E"/>
</svg>
