<svg width="20" height="20" viewBox="0 0 20 20" fill="none" xmlns="http://www.w3.org/2000/svg">
<path d="M18.7274 9.76554L17.4446 2.89054C17.4132 2.72296 17.3479 2.56356 17.2527 2.42215C17.1575 2.28074 17.0343 2.1603 16.8908 2.06824C16.7473 1.97619 16.5865 1.91446 16.4183 1.88686C16.25 1.85925 16.0779 1.86635 15.9125 1.90773L15.8883 1.91476L11.7852 3.12491H8.21486L4.11174 1.91866L4.08752 1.91163C3.92213 1.87026 3.75002 1.86316 3.58179 1.89076C3.41355 1.91837 3.25274 1.98009 3.10924 2.07215C2.96574 2.16421 2.84259 2.28464 2.74736 2.42605C2.65213 2.56747 2.58684 2.72686 2.55549 2.89444L1.27268 9.76554C1.21782 10.0407 1.25854 10.3264 1.3881 10.5753C1.51766 10.8242 1.7283 11.0214 1.98518 11.1343C2.14969 11.2097 2.32841 11.2492 2.5094 11.2499C2.72601 11.2498 2.93863 11.1915 3.12502 11.0812V14.3749C3.12502 15.2037 3.45426 15.9986 4.04031 16.5846C4.62636 17.1707 5.42122 17.4999 6.25002 17.4999H13.75C14.5788 17.4999 15.3737 17.1707 15.9597 16.5846C16.5458 15.9986 16.875 15.2037 16.875 14.3749V11.0819C17.0612 11.1921 17.2735 11.2504 17.4899 11.2507C17.671 11.2502 17.85 11.211 18.0149 11.1358C18.272 11.0229 18.4829 10.8254 18.6125 10.5762C18.7421 10.327 18.7826 10.041 18.7274 9.76554ZM2.50002 9.99991L3.78361 3.12491L7.07033 4.09132L2.50002 9.99991ZM13.75 16.2499H10.625V15.2585L11.6922 14.1921C11.8095 14.0748 11.8754 13.9158 11.8754 13.7499C11.8754 13.5841 11.8095 13.425 11.6922 13.3077C11.5749 13.1905 11.4159 13.1246 11.25 13.1246C11.0842 13.1246 10.9251 13.1905 10.8078 13.3077L10 14.1163L9.19221 13.3077C9.07493 13.1905 8.91587 13.1246 8.75002 13.1246C8.58417 13.1246 8.42511 13.1905 8.30783 13.3077C8.19056 13.425 8.12467 13.5841 8.12467 13.7499C8.12467 13.9158 8.19056 14.0748 8.30783 14.1921L9.37502 15.2585V16.2499H6.25002C5.75274 16.2499 5.27583 16.0524 4.9242 15.7007C4.57256 15.3491 4.37502 14.8722 4.37502 14.3749V9.61788L8.43127 4.37491H11.568L15.625 9.61788V14.3749C15.625 14.8722 15.4275 15.3491 15.0758 15.7007C14.7242 16.0524 14.2473 16.2499 13.75 16.2499ZM17.5 9.99991L12.9297 4.09132L16.2164 3.12491L17.5 9.99991ZM8.12502 10.9374C8.12502 11.1228 8.07004 11.3041 7.96702 11.4583C7.86401 11.6124 7.71759 11.7326 7.54629 11.8035C7.37498 11.8745 7.18648 11.8931 7.00462 11.8569C6.82277 11.8207 6.65572 11.7314 6.52461 11.6003C6.3935 11.4692 6.30421 11.3022 6.26803 11.1203C6.23186 10.9385 6.25043 10.75 6.32138 10.5786C6.39234 10.4073 6.5125 10.2609 6.66667 10.1579C6.82085 10.0549 7.0021 9.99991 7.18752 9.99991C7.43616 9.99991 7.67462 10.0987 7.85043 10.2745C8.02625 10.4503 8.12502 10.6888 8.12502 10.9374ZM13.75 10.9374C13.75 11.1228 13.695 11.3041 13.592 11.4583C13.489 11.6124 13.3426 11.7326 13.1713 11.8035C13 11.8745 12.8115 11.8931 12.6296 11.8569C12.4478 11.8207 12.2807 11.7314 12.1496 11.6003C12.0185 11.4692 11.9292 11.3022 11.893 11.1203C11.8569 10.9385 11.8754 10.75 11.9464 10.5786C12.0173 10.4073 12.1375 10.2609 12.2917 10.1579C12.4458 10.0549 12.6271 9.99991 12.8125 9.99991C13.0612 9.99991 13.2996 10.0987 13.4754 10.2745C13.6512 10.4503 13.75 10.6888 13.75 10.9374Z" fill="#191F2E"/>
</svg>
