<svg width="20" height="20" viewBox="0 0 20 20" fill="none" xmlns="http://www.w3.org/2000/svg">
<path d="M18.125 16.5625H16.5625V3.125C16.5625 2.7106 16.3979 2.31317 16.1049 2.02015C15.8118 1.72712 15.4144 1.5625 15 1.5625H5C4.5856 1.5625 4.18817 1.72712 3.89515 2.02015C3.60212 2.31317 3.4375 2.7106 3.4375 3.125V16.5625H1.875C1.62636 16.5625 1.3879 16.6613 1.21209 16.8371C1.03627 17.0129 0.9375 17.2514 0.9375 17.5C0.9375 17.7486 1.03627 17.9871 1.21209 18.1629C1.3879 18.3387 1.62636 18.4375 1.875 18.4375H18.125C18.3736 18.4375 18.6121 18.3387 18.7879 18.1629C18.9637 17.9871 19.0625 17.7486 19.0625 17.5C19.0625 17.2514 18.9637 17.0129 18.7879 16.8371C18.6121 16.6613 18.3736 16.5625 18.125 16.5625ZM5.3125 3.4375H14.6875V16.5625H5.3125V3.4375ZM13.4375 10.3125C13.4375 10.5597 13.3642 10.8014 13.2268 11.007C13.0895 11.2125 12.8943 11.3727 12.6659 11.4674C12.4374 11.562 12.1861 11.5867 11.9436 11.5385C11.7012 11.4903 11.4784 11.3712 11.3036 11.1964C11.1288 11.0216 11.0097 10.7988 10.9615 10.5564C10.9133 10.3139 10.938 10.0626 11.0326 9.83415C11.1273 9.60574 11.2875 9.41051 11.493 9.27316C11.6986 9.13581 11.9403 9.0625 12.1875 9.0625C12.519 9.0625 12.837 9.1942 13.0714 9.42862C13.3058 9.66304 13.4375 9.98098 13.4375 10.3125Z" fill="#191F2E"/>
</svg>
