<svg width="20" height="20" viewBox="0 0 20 20" fill="none" xmlns="http://www.w3.org/2000/svg">
<path d="M18.125 16.875H16.25V3.125C16.25 2.79348 16.1183 2.47554 15.8839 2.24112C15.6495 2.0067 15.3315 1.875 15 1.875H5C4.66848 1.875 4.35054 2.0067 4.11612 2.24112C3.8817 2.47554 3.75 2.79348 3.75 3.125V16.875H1.875C1.70924 16.875 1.55027 16.9408 1.43306 17.0581C1.31585 17.1753 1.25 17.3342 1.25 17.5C1.25 17.6658 1.31585 17.8247 1.43306 17.9419C1.55027 18.0592 1.70924 18.125 1.875 18.125H18.125C18.2908 18.125 18.4497 18.0592 18.5669 17.9419C18.6842 17.8247 18.75 17.6658 18.75 17.5C18.75 17.3342 18.6842 17.1753 18.5669 17.0581C18.4497 16.9408 18.2908 16.875 18.125 16.875ZM15 3.125V16.875H13.75V3.125H15ZM5 3.125H12.5V16.875H5V3.125ZM11.25 10.3125C11.25 10.4979 11.195 10.6792 11.092 10.8333C10.989 10.9875 10.8426 11.1077 10.6713 11.1786C10.5 11.2496 10.3115 11.2682 10.1296 11.232C9.94775 11.1958 9.7807 11.1065 9.64959 10.9754C9.51848 10.8443 9.42919 10.6773 9.39301 10.4954C9.35684 10.3135 9.37541 10.125 9.44636 9.95373C9.51732 9.78243 9.63748 9.63601 9.79165 9.533C9.94582 9.42998 10.1271 9.375 10.3125 9.375C10.5611 9.375 10.7996 9.47377 10.9754 9.64959C11.1512 9.8254 11.25 10.0639 11.25 10.3125Z" fill="#191F2E"/>
</svg>
