<svg width="20" height="20" viewBox="0 0 20 20" fill="none" xmlns="http://www.w3.org/2000/svg">
<path d="M18.125 16.5625H16.5625V3.125C16.5625 2.7106 16.3979 2.31317 16.1049 2.02015C15.8118 1.72712 15.4144 1.5625 15 1.5625H5C4.5856 1.5625 4.18817 1.72712 3.89515 2.02015C3.60212 2.31317 3.4375 2.7106 3.4375 3.125V16.5625H1.875C1.62636 16.5625 1.3879 16.6613 1.21209 16.8371C1.03627 17.0129 0.9375 17.2514 0.9375 17.5C0.9375 17.7486 1.03627 17.9871 1.21209 18.1629C1.3879 18.3387 1.62636 18.4375 1.875 18.4375H18.125C18.3736 18.4375 18.6121 18.3387 18.7879 18.1629C18.9637 17.9871 19.0625 17.7486 19.0625 17.5C19.0625 17.2514 18.9637 17.0129 18.7879 16.8371C18.6121 16.6613 18.3736 16.5625 18.125 16.5625ZM14.6875 16.5625H13.4375V3.4375H14.6875V16.5625ZM5.3125 3.4375H11.5625V16.5625H5.3125V3.4375ZM10.625 10.3125C10.625 10.4979 10.57 10.6792 10.467 10.8333C10.364 10.9875 10.2176 11.1077 10.0463 11.1786C9.87496 11.2496 9.68646 11.2682 9.5046 11.232C9.32275 11.1958 9.1557 11.1065 9.02459 10.9754C8.89348 10.8443 8.80419 10.6773 8.76801 10.4954C8.73184 10.3135 8.75041 10.125 8.82136 9.95373C8.89232 9.78243 9.01248 9.63601 9.16665 9.533C9.32082 9.42998 9.50208 9.375 9.6875 9.375C9.93614 9.375 10.1746 9.47377 10.3504 9.64959C10.5262 9.8254 10.625 10.0639 10.625 10.3125Z" fill="#191F2E"/>
</svg>
