<svg width="20" height="20" viewBox="0 0 20 20" fill="none" xmlns="http://www.w3.org/2000/svg">
<path d="M18.125 16.875H16.25V3.125C16.25 2.79348 16.1183 2.47554 15.8839 2.24112C15.6495 2.0067 15.3315 1.875 15 1.875H5C4.66848 1.875 4.35054 2.0067 4.11612 2.24112C3.8817 2.47554 3.75 2.79348 3.75 3.125V16.875H1.875C1.70924 16.875 1.55027 16.9408 1.43306 17.0581C1.31585 17.1753 1.25 17.3342 1.25 17.5C1.25 17.6658 1.31585 17.8247 1.43306 17.9419C1.55027 18.0592 1.70924 18.125 1.875 18.125H18.125C18.2908 18.125 18.4497 18.0592 18.5669 17.9419C18.6842 17.8247 18.75 17.6658 18.75 17.5C18.75 17.3342 18.6842 17.1753 18.5669 17.0581C18.4497 16.9408 18.2908 16.875 18.125 16.875ZM5 3.125H15V16.875H5V3.125ZM13.125 10.3125C13.125 10.4979 13.07 10.6792 12.967 10.8333C12.864 10.9875 12.7176 11.1077 12.5463 11.1786C12.375 11.2496 12.1865 11.2682 12.0046 11.232C11.8227 11.1958 11.6557 11.1065 11.5246 10.9754C11.3935 10.8443 11.3042 10.6773 11.268 10.4954C11.2318 10.3135 11.2504 10.125 11.3214 9.95373C11.3923 9.78243 11.5125 9.63601 11.6667 9.533C11.8208 9.42998 12.0021 9.375 12.1875 9.375C12.4361 9.375 12.6746 9.47377 12.8504 9.64959C13.0262 9.8254 13.125 10.0639 13.125 10.3125Z" fill="#191F2E"/>
</svg>
