<svg width="20" height="20" viewBox="0 0 20 20" fill="none" xmlns="http://www.w3.org/2000/svg">
<path d="M18.125 16.875H16.25V3.125C16.25 2.79348 16.1183 2.47554 15.8839 2.24112C15.6495 2.0067 15.3315 1.875 15 1.875H5C4.66848 1.875 4.35054 2.0067 4.11612 2.24112C3.8817 2.47554 3.75 2.79348 3.75 3.125V16.875H1.875C1.70924 16.875 1.55027 16.9408 1.43306 17.0581C1.31585 17.1753 1.25 17.3342 1.25 17.5C1.25 17.6658 1.31585 17.8247 1.43306 17.9419C1.55027 18.0592 1.70924 18.125 1.875 18.125H18.125C18.2908 18.125 18.4497 18.0592 18.5669 17.9419C18.6842 17.8247 18.75 17.6658 18.75 17.5C18.75 17.3342 18.6842 17.1753 18.5669 17.0581C18.4497 16.9408 18.2908 16.875 18.125 16.875ZM13.125 16.875H5V3.125H13.125V16.875ZM10 10.3125C10 10.1271 10.055 9.94582 10.158 9.79165C10.261 9.63748 10.4074 9.51732 10.5787 9.44636C10.75 9.37541 10.9385 9.35684 11.1204 9.39301C11.3023 9.42919 11.4693 9.51848 11.6004 9.64959C11.7315 9.7807 11.8208 9.94775 11.857 10.1296C11.8932 10.3115 11.8746 10.5 11.8036 10.6713C11.7327 10.8426 11.6125 10.989 11.4583 11.092C11.3042 11.195 11.1229 11.25 10.9375 11.25C10.6889 11.25 10.4504 11.1512 10.2746 10.9754C10.0988 10.7996 10 10.5611 10 10.3125Z" fill="#191F2E"/>
</svg>
