<svg width="20" height="20" viewBox="0 0 20 20" fill="none" xmlns="http://www.w3.org/2000/svg">
<path d="M12.1875 10C12.1875 10.4326 12.0592 10.8556 11.8188 11.2153C11.5785 11.575 11.2368 11.8554 10.8371 12.021C10.4374 12.1866 9.99757 12.2299 9.57324 12.1455C9.14891 12.0611 8.75913 11.8527 8.45321 11.5468C8.14728 11.2409 7.93894 10.8511 7.85453 10.4268C7.77013 10.0024 7.81345 9.56259 7.97901 9.16288C8.14458 8.76317 8.42496 8.42153 8.78469 8.18116C9.14442 7.94079 9.56735 7.8125 10 7.8125C10.5802 7.8125 11.1366 8.04297 11.5468 8.4532C11.957 8.86344 12.1875 9.41984 12.1875 10Z" fill="#191F2E"/>
</svg>
