<svg width="20" height="20" viewBox="0 0 20 20" fill="none" xmlns="http://www.w3.org/2000/svg">
<path d="M11.25 10C11.25 10.2472 11.1767 10.4889 11.0393 10.6945C10.902 10.9 10.7068 11.0602 10.4784 11.1548C10.2499 11.2495 9.99861 11.2742 9.75614 11.226C9.51366 11.1778 9.29093 11.0587 9.11612 10.8839C8.9413 10.7091 8.82225 10.4863 8.77402 10.2439C8.72579 10.0014 8.75054 9.75005 8.84515 9.52165C8.93976 9.29324 9.09998 9.09801 9.30554 8.96066C9.5111 8.82331 9.75277 8.75 10 8.75C10.3315 8.75 10.6495 8.8817 10.8839 9.11612C11.1183 9.35054 11.25 9.66848 11.25 10Z" fill="#191F2E"/>
</svg>
