<svg width="20" height="20" viewBox="0 0 20 20" fill="none" xmlns="http://www.w3.org/2000/svg">
<path d="M10 6.25C9.25832 6.25 8.5333 6.46993 7.91661 6.88199C7.29993 7.29404 6.81928 7.87971 6.53545 8.56494C6.25162 9.25016 6.17736 10.0042 6.32206 10.7316C6.46675 11.459 6.8239 12.1272 7.34835 12.6517C7.8728 13.1761 8.54098 13.5333 9.26841 13.6779C9.99584 13.8226 10.7498 13.7484 11.4351 13.4645C12.1203 13.1807 12.706 12.7001 13.118 12.0834C13.5301 11.4667 13.75 10.7417 13.75 10C13.75 9.00544 13.3549 8.05161 12.6517 7.34835C11.9484 6.64509 10.9946 6.25 10 6.25ZM10 10.9375C9.81458 10.9375 9.63333 10.8825 9.47915 10.7795C9.32498 10.6765 9.20482 10.5301 9.13386 10.3588C9.06291 10.1875 9.04434 9.99896 9.08052 9.8171C9.11669 9.63525 9.20598 9.4682 9.33709 9.33709C9.4682 9.20598 9.63525 9.11669 9.8171 9.08051C9.99896 9.04434 10.1875 9.06291 10.3588 9.13386C10.5301 9.20482 10.6765 9.32498 10.7795 9.47915C10.8825 9.63332 10.9375 9.81458 10.9375 10C10.9375 10.2486 10.8387 10.4871 10.6629 10.6629C10.4871 10.8387 10.2486 10.9375 10 10.9375Z" fill="#191F2E"/>
</svg>
