<svg width="20" height="20" viewBox="0 0 20 20" fill="none" xmlns="http://www.w3.org/2000/svg">
<path d="M15 1.25H5C4.66848 1.25 4.35054 1.3817 4.11612 1.61612C3.8817 1.85054 3.75 2.16848 3.75 2.5V17.5C3.75 17.8315 3.8817 18.1495 4.11612 18.3839C4.35054 18.6183 4.66848 18.75 5 18.75H15C15.3315 18.75 15.6495 18.6183 15.8839 18.3839C16.1183 18.1495 16.25 17.8315 16.25 17.5V2.5C16.25 2.16848 16.1183 1.85054 15.8839 1.61612C15.6495 1.3817 15.3315 1.25 15 1.25ZM7.8125 15.625C7.62708 15.625 7.44582 15.57 7.29165 15.467C7.13748 15.364 7.01732 15.2176 6.94636 15.0463C6.87541 14.875 6.85684 14.6865 6.89301 14.5046C6.92919 14.3227 7.01848 14.1557 7.14959 14.0246C7.2807 13.8935 7.44775 13.8042 7.6296 13.768C7.81146 13.7318 7.99996 13.7504 8.17127 13.8214C8.34257 13.8923 8.48899 14.0125 8.592 14.1667C8.69502 14.3208 8.75 14.5021 8.75 14.6875C8.75 14.9361 8.65123 15.1746 8.47541 15.3504C8.2996 15.5262 8.06114 15.625 7.8125 15.625ZM7.8125 10.9375C7.62708 10.9375 7.44582 10.8825 7.29165 10.7795C7.13748 10.6765 7.01732 10.5301 6.94636 10.3588C6.87541 10.1875 6.85684 9.99896 6.89301 9.8171C6.92919 9.63525 7.01848 9.4682 7.14959 9.33709C7.2807 9.20598 7.44775 9.11669 7.6296 9.08051C7.81146 9.04434 7.99996 9.06291 8.17127 9.13386C8.34257 9.20482 8.48899 9.32498 8.592 9.47915C8.69502 9.63332 8.75 9.81458 8.75 10C8.75 10.2486 8.65123 10.4871 8.47541 10.6629C8.2996 10.8387 8.06114 10.9375 7.8125 10.9375ZM7.8125 6.25C7.62708 6.25 7.44582 6.19502 7.29165 6.092C7.13748 5.98899 7.01732 5.84257 6.94636 5.67127C6.87541 5.49996 6.85684 5.31146 6.89301 5.1296C6.92919 4.94775 7.01848 4.7807 7.14959 4.64959C7.2807 4.51848 7.44775 4.42919 7.6296 4.39301C7.81146 4.35684 7.99996 4.37541 8.17127 4.44636C8.34257 4.51732 8.48899 4.63748 8.592 4.79165C8.69502 4.94582 8.75 5.12708 8.75 5.3125C8.75 5.56114 8.65123 5.7996 8.47541 5.97541C8.2996 6.15123 8.06114 6.25 7.8125 6.25ZM12.1875 15.625C12.0021 15.625 11.8208 15.57 11.6667 15.467C11.5125 15.364 11.3923 15.2176 11.3214 15.0463C11.2504 14.875 11.2318 14.6865 11.268 14.5046C11.3042 14.3227 11.3935 14.1557 11.5246 14.0246C11.6557 13.8935 11.8227 13.8042 12.0046 13.768C12.1865 13.7318 12.375 13.7504 12.5463 13.8214C12.7176 13.8923 12.864 14.0125 12.967 14.1667C13.07 14.3208 13.125 14.5021 13.125 14.6875C13.125 14.9361 13.0262 15.1746 12.8504 15.3504C12.6746 15.5262 12.4361 15.625 12.1875 15.625ZM12.1875 10.9375C12.0021 10.9375 11.8208 10.8825 11.6667 10.7795C11.5125 10.6765 11.3923 10.5301 11.3214 10.3588C11.2504 10.1875 11.2318 9.99896 11.268 9.8171C11.3042 9.63525 11.3935 9.4682 11.5246 9.33709C11.6557 9.20598 11.8227 9.11669 12.0046 9.08051C12.1865 9.04434 12.375 9.06291 12.5463 9.13386C12.7176 9.20482 12.864 9.32498 12.967 9.47915C13.07 9.63332 13.125 9.81458 13.125 10C13.125 10.2486 13.0262 10.4871 12.8504 10.6629C12.6746 10.8387 12.4361 10.9375 12.1875 10.9375ZM12.1875 6.25C12.0021 6.25 11.8208 6.19502 11.6667 6.092C11.5125 5.98899 11.3923 5.84257 11.3214 5.67127C11.2504 5.49996 11.2318 5.31146 11.268 5.1296C11.3042 4.94775 11.3935 4.7807 11.5246 4.64959C11.6557 4.51848 11.8227 4.42919 12.0046 4.39301C12.1865 4.35684 12.375 4.37541 12.5463 4.44636C12.7176 4.51732 12.864 4.63748 12.967 4.79165C13.07 4.94582 13.125 5.12708 13.125 5.3125C13.125 5.56114 13.0262 5.7996 12.8504 5.97541C12.6746 6.15123 12.4361 6.25 12.1875 6.25Z" fill="#191F2E"/>
</svg>
