<svg width="20" height="20" viewBox="0 0 20 20" fill="none" xmlns="http://www.w3.org/2000/svg">
<path d="M5.9375 7.1875C5.9375 7.43473 5.86419 7.6764 5.72684 7.88196C5.58949 8.08752 5.39426 8.24774 5.16585 8.34235C4.93745 8.43696 4.68611 8.46171 4.44364 8.41348C4.20116 8.36525 3.97843 8.2462 3.80362 8.07138C3.6288 7.89657 3.50975 7.67384 3.46152 7.43136C3.41329 7.18889 3.43804 6.93755 3.53265 6.70915C3.62726 6.48074 3.78748 6.28552 3.99304 6.14816C4.1986 6.01081 4.44027 5.9375 4.6875 5.9375C5.01902 5.9375 5.33696 6.0692 5.57138 6.30362C5.8058 6.53804 5.9375 6.85598 5.9375 7.1875ZM10 5.9375C9.75277 5.9375 9.5111 6.01081 9.30554 6.14816C9.09998 6.28552 8.93976 6.48074 8.84515 6.70915C8.75054 6.93755 8.72579 7.18889 8.77402 7.43136C8.82225 7.67384 8.9413 7.89657 9.11612 8.07138C9.29093 8.2462 9.51366 8.36525 9.75614 8.41348C9.99861 8.46171 10.2499 8.43696 10.4784 8.34235C10.7068 8.24774 10.902 8.08752 11.0393 7.88196C11.1767 7.6764 11.25 7.43473 11.25 7.1875C11.25 6.85598 11.1183 6.53804 10.8839 6.30362C10.6495 6.0692 10.3315 5.9375 10 5.9375ZM15.3125 8.4375C15.5597 8.4375 15.8014 8.36419 16.007 8.22684C16.2125 8.08949 16.3727 7.89426 16.4674 7.66585C16.562 7.43745 16.5867 7.18611 16.5385 6.94364C16.4903 6.70116 16.3712 6.47843 16.1964 6.30362C16.0216 6.1288 15.7988 6.00975 15.5564 5.96152C15.3139 5.91329 15.0626 5.93804 14.8341 6.03265C14.6057 6.12726 14.4105 6.28748 14.2732 6.49304C14.1358 6.6986 14.0625 6.94027 14.0625 7.1875C14.0625 7.51902 14.1942 7.83696 14.4286 8.07138C14.663 8.3058 14.981 8.4375 15.3125 8.4375ZM4.6875 11.5625C4.44027 11.5625 4.1986 11.6358 3.99304 11.7732C3.78748 11.9105 3.62726 12.1057 3.53265 12.3341C3.43804 12.5626 3.41329 12.8139 3.46152 13.0564C3.50975 13.2988 3.6288 13.5216 3.80362 13.6964C3.97843 13.8712 4.20116 13.9903 4.44364 14.0385C4.68611 14.0867 4.93745 14.062 5.16585 13.9673C5.39426 13.8727 5.58949 13.7125 5.72684 13.507C5.86419 13.3014 5.9375 13.0597 5.9375 12.8125C5.9375 12.481 5.8058 12.163 5.57138 11.9286C5.33696 11.6942 5.01902 11.5625 4.6875 11.5625ZM10 11.5625C9.75277 11.5625 9.5111 11.6358 9.30554 11.7732C9.09998 11.9105 8.93976 12.1057 8.84515 12.3341C8.75054 12.5626 8.72579 12.8139 8.77402 13.0564C8.82225 13.2988 8.9413 13.5216 9.11612 13.6964C9.29093 13.8712 9.51366 13.9903 9.75614 14.0385C9.99861 14.0867 10.2499 14.062 10.4784 13.9673C10.7068 13.8727 10.902 13.7125 11.0393 13.507C11.1767 13.3014 11.25 13.0597 11.25 12.8125C11.25 12.481 11.1183 12.163 10.8839 11.9286C10.6495 11.6942 10.3315 11.5625 10 11.5625ZM15.3125 11.5625C15.0653 11.5625 14.8236 11.6358 14.618 11.7732C14.4125 11.9105 14.2523 12.1057 14.1577 12.3341C14.063 12.5626 14.0383 12.8139 14.0865 13.0564C14.1348 13.2988 14.2538 13.5216 14.4286 13.6964C14.6034 13.8712 14.8262 13.9903 15.0686 14.0385C15.3111 14.0867 15.5624 14.062 15.7909 13.9673C16.0193 13.8727 16.2145 13.7125 16.3518 13.507C16.4892 13.3014 16.5625 13.0597 16.5625 12.8125C16.5625 12.481 16.4308 12.163 16.1964 11.9286C15.962 11.6942 15.644 11.5625 15.3125 11.5625Z" fill="#191F2E"/>
</svg>
