<svg width="20" height="20" viewBox="0 0 20 20" fill="none" xmlns="http://www.w3.org/2000/svg">
<path d="M17.5 3.75H2.5C2.16848 3.75 1.85054 3.8817 1.61612 4.11612C1.3817 4.35054 1.25 4.66848 1.25 5V15C1.25 15.3315 1.3817 15.6495 1.61612 15.8839C1.85054 16.1183 2.16848 16.25 2.5 16.25H17.5C17.8315 16.25 18.1495 16.1183 18.3839 15.8839C18.6183 15.6495 18.75 15.3315 18.75 15V5C18.75 4.66848 18.6183 4.35054 18.3839 4.11612C18.1495 3.8817 17.8315 3.75 17.5 3.75ZM5.3125 13.125C5.12708 13.125 4.94582 13.07 4.79165 12.967C4.63748 12.864 4.51732 12.7176 4.44636 12.5463C4.37541 12.375 4.35684 12.1865 4.39301 12.0046C4.42919 11.8227 4.51848 11.6557 4.64959 11.5246C4.7807 11.3935 4.94775 11.3042 5.1296 11.268C5.31146 11.2318 5.49996 11.2504 5.67127 11.3214C5.84257 11.3923 5.98899 11.5125 6.092 11.6667C6.19502 11.8208 6.25 12.0021 6.25 12.1875C6.25 12.4361 6.15123 12.6746 5.97541 12.8504C5.7996 13.0262 5.56114 13.125 5.3125 13.125ZM5.3125 8.75C5.12708 8.75 4.94582 8.69502 4.79165 8.592C4.63748 8.48899 4.51732 8.34257 4.44636 8.17127C4.37541 7.99996 4.35684 7.81146 4.39301 7.6296C4.42919 7.44775 4.51848 7.2807 4.64959 7.14959C4.7807 7.01848 4.94775 6.92919 5.1296 6.89301C5.31146 6.85684 5.49996 6.87541 5.67127 6.94636C5.84257 7.01732 5.98899 7.13748 6.092 7.29165C6.19502 7.44582 6.25 7.62708 6.25 7.8125C6.25 8.06114 6.15123 8.2996 5.97541 8.47541C5.7996 8.65123 5.56114 8.75 5.3125 8.75ZM10 13.125C9.81458 13.125 9.63332 13.07 9.47915 12.967C9.32498 12.864 9.20482 12.7176 9.13386 12.5463C9.06291 12.375 9.04434 12.1865 9.08051 12.0046C9.11669 11.8227 9.20598 11.6557 9.33709 11.5246C9.4682 11.3935 9.63525 11.3042 9.8171 11.268C9.99896 11.2318 10.1875 11.2504 10.3588 11.3214C10.5301 11.3923 10.6765 11.5125 10.7795 11.6667C10.8825 11.8208 10.9375 12.0021 10.9375 12.1875C10.9375 12.4361 10.8387 12.6746 10.6629 12.8504C10.4871 13.0262 10.2486 13.125 10 13.125ZM10 8.75C9.81458 8.75 9.63332 8.69502 9.47915 8.592C9.32498 8.48899 9.20482 8.34257 9.13386 8.17127C9.06291 7.99996 9.04434 7.81146 9.08051 7.6296C9.11669 7.44775 9.20598 7.2807 9.33709 7.14959C9.4682 7.01848 9.63525 6.92919 9.8171 6.89301C9.99896 6.85684 10.1875 6.87541 10.3588 6.94636C10.5301 7.01732 10.6765 7.13748 10.7795 7.29165C10.8825 7.44582 10.9375 7.62708 10.9375 7.8125C10.9375 8.06114 10.8387 8.2996 10.6629 8.47541C10.4871 8.65123 10.2486 8.75 10 8.75ZM14.6875 13.125C14.5021 13.125 14.3208 13.07 14.1667 12.967C14.0125 12.864 13.8923 12.7176 13.8214 12.5463C13.7504 12.375 13.7318 12.1865 13.768 12.0046C13.8042 11.8227 13.8935 11.6557 14.0246 11.5246C14.1557 11.3935 14.3227 11.3042 14.5046 11.268C14.6865 11.2318 14.875 11.2504 15.0463 11.3214C15.2176 11.3923 15.364 11.5125 15.467 11.6667C15.57 11.8208 15.625 12.0021 15.625 12.1875C15.625 12.4361 15.5262 12.6746 15.3504 12.8504C15.1746 13.0262 14.9361 13.125 14.6875 13.125ZM14.6875 8.75C14.5021 8.75 14.3208 8.69502 14.1667 8.592C14.0125 8.48899 13.8923 8.34257 13.8214 8.17127C13.7504 7.99996 13.7318 7.81146 13.768 7.6296C13.8042 7.44775 13.8935 7.2807 14.0246 7.14959C14.1557 7.01848 14.3227 6.92919 14.5046 6.89301C14.6865 6.85684 14.875 6.87541 15.0463 6.94636C15.2176 7.01732 15.364 7.13748 15.467 7.29165C15.57 7.44582 15.625 7.62708 15.625 7.8125C15.625 8.06114 15.5262 8.2996 15.3504 8.47541C15.1746 8.65123 14.9361 8.75 14.6875 8.75Z" fill="#191F2E"/>
</svg>
