<svg width="20" height="20" viewBox="0 0 20 20" fill="none" xmlns="http://www.w3.org/2000/svg">
<path d="M15 1.25H5C4.66848 1.25 4.35054 1.3817 4.11612 1.61612C3.8817 1.85054 3.75 2.16848 3.75 2.5V17.5C3.75 17.8315 3.8817 18.1495 4.11612 18.3839C4.35054 18.6183 4.66848 18.75 5 18.75H15C15.3315 18.75 15.6495 18.6183 15.8839 18.3839C16.1183 18.1495 16.25 17.8315 16.25 17.5V2.5C16.25 2.16848 16.1183 1.85054 15.8839 1.61612C15.6495 1.3817 15.3315 1.25 15 1.25ZM10 16.25C9.81458 16.25 9.63332 16.195 9.47915 16.092C9.32498 15.989 9.20482 15.8426 9.13386 15.6713C9.06291 15.5 9.04434 15.3115 9.08051 15.1296C9.11669 14.9477 9.20598 14.7807 9.33709 14.6496C9.4682 14.5185 9.63525 14.4292 9.8171 14.393C9.99896 14.3568 10.1875 14.3754 10.3588 14.4464C10.5301 14.5173 10.6765 14.6375 10.7795 14.7917C10.8825 14.9458 10.9375 15.1271 10.9375 15.3125C10.9375 15.5611 10.8387 15.7996 10.6629 15.9754C10.4871 16.1512 10.2486 16.25 10 16.25ZM10 10.9375C9.81458 10.9375 9.63332 10.8825 9.47915 10.7795C9.32498 10.6765 9.20482 10.5301 9.13386 10.3588C9.06291 10.1875 9.04434 9.99896 9.08051 9.8171C9.11669 9.63525 9.20598 9.4682 9.33709 9.33709C9.4682 9.20598 9.63525 9.11669 9.8171 9.08051C9.99896 9.04434 10.1875 9.06291 10.3588 9.13386C10.5301 9.20482 10.6765 9.32498 10.7795 9.47915C10.8825 9.63332 10.9375 9.81458 10.9375 10C10.9375 10.2486 10.8387 10.4871 10.6629 10.6629C10.4871 10.8387 10.2486 10.9375 10 10.9375ZM10 5.625C9.81458 5.625 9.63332 5.57002 9.47915 5.467C9.32498 5.36399 9.20482 5.21757 9.13386 5.04627C9.06291 4.87496 9.04434 4.68646 9.08051 4.5046C9.11669 4.32275 9.20598 4.1557 9.33709 4.02459C9.4682 3.89348 9.63525 3.80419 9.8171 3.76801C9.99896 3.73184 10.1875 3.75041 10.3588 3.82136C10.5301 3.89232 10.6765 4.01248 10.7795 4.16665C10.8825 4.32082 10.9375 4.50208 10.9375 4.6875C10.9375 4.93614 10.8387 5.1746 10.6629 5.35041C10.4871 5.52623 10.2486 5.625 10 5.625Z" fill="#191F2E"/>
</svg>
