<svg width="20" height="20" viewBox="0 0 20 20" fill="none" xmlns="http://www.w3.org/2000/svg">
<path d="M17.5 3.75H2.5C2.16848 3.75 1.85054 3.8817 1.61612 4.11612C1.3817 4.35054 1.25 4.66848 1.25 5V15C1.25 15.3315 1.3817 15.6495 1.61612 15.8839C1.85054 16.1183 2.16848 16.25 2.5 16.25H17.5C17.8315 16.25 18.1495 16.1183 18.3839 15.8839C18.6183 15.6495 18.75 15.3315 18.75 15V5C18.75 4.66848 18.6183 4.35054 18.3839 4.11612C18.1495 3.8817 17.8315 3.75 17.5 3.75ZM4.6875 10.9375C4.50208 10.9375 4.32082 10.8825 4.16665 10.7795C4.01248 10.6765 3.89232 10.5301 3.82136 10.3588C3.75041 10.1875 3.73184 9.99896 3.76801 9.8171C3.80419 9.63525 3.89348 9.4682 4.02459 9.33709C4.1557 9.20598 4.32275 9.11669 4.5046 9.08051C4.68646 9.04434 4.87496 9.06291 5.04627 9.13386C5.21757 9.20482 5.36399 9.32498 5.467 9.47915C5.57002 9.63332 5.625 9.81458 5.625 10C5.625 10.2486 5.52623 10.4871 5.35041 10.6629C5.1746 10.8387 4.93614 10.9375 4.6875 10.9375ZM10 10.9375C9.81458 10.9375 9.63332 10.8825 9.47915 10.7795C9.32498 10.6765 9.20482 10.5301 9.13386 10.3588C9.06291 10.1875 9.04434 9.99896 9.08051 9.8171C9.11669 9.63525 9.20598 9.4682 9.33709 9.33709C9.4682 9.20598 9.63525 9.11669 9.8171 9.08051C9.99896 9.04434 10.1875 9.06291 10.3588 9.13386C10.5301 9.20482 10.6765 9.32498 10.7795 9.47915C10.8825 9.63332 10.9375 9.81458 10.9375 10C10.9375 10.2486 10.8387 10.4871 10.6629 10.6629C10.4871 10.8387 10.2486 10.9375 10 10.9375ZM15.3125 10.9375C15.1271 10.9375 14.9458 10.8825 14.7917 10.7795C14.6375 10.6765 14.5173 10.5301 14.4464 10.3588C14.3754 10.1875 14.3568 9.99896 14.393 9.8171C14.4292 9.63525 14.5185 9.4682 14.6496 9.33709C14.7807 9.20598 14.9477 9.11669 15.1296 9.08051C15.3115 9.04434 15.5 9.06291 15.6713 9.13386C15.8426 9.20482 15.989 9.32498 16.092 9.47915C16.195 9.63332 16.25 9.81458 16.25 10C16.25 10.2486 16.1512 10.4871 15.9754 10.6629C15.7996 10.8387 15.5611 10.9375 15.3125 10.9375Z" fill="#191F2E"/>
</svg>
