<svg width="20" height="20" viewBox="0 0 20 20" fill="none" xmlns="http://www.w3.org/2000/svg">
<path d="M5.625 7.1875C5.625 7.37292 5.57002 7.55418 5.467 7.70835C5.36399 7.86252 5.21757 7.98268 5.04627 8.05364C4.87496 8.12459 4.68646 8.14316 4.5046 8.10699C4.32275 8.07081 4.1557 7.98152 4.02459 7.85041C3.89348 7.7193 3.80419 7.55225 3.76801 7.3704C3.73184 7.18854 3.75041 7.00004 3.82136 6.82873C3.89232 6.65743 4.01248 6.51101 4.16665 6.408C4.32082 6.30498 4.50208 6.25 4.6875 6.25C4.93614 6.25 5.1746 6.34877 5.35041 6.52459C5.52623 6.7004 5.625 6.93886 5.625 7.1875ZM10 6.25C9.81458 6.25 9.63332 6.30498 9.47915 6.408C9.32498 6.51101 9.20482 6.65743 9.13386 6.82873C9.06291 7.00004 9.04434 7.18854 9.08051 7.3704C9.11669 7.55225 9.20598 7.7193 9.33709 7.85041C9.4682 7.98152 9.63525 8.07081 9.8171 8.10699C9.99896 8.14316 10.1875 8.12459 10.3588 8.05364C10.5301 7.98268 10.6765 7.86252 10.7795 7.70835C10.8825 7.55418 10.9375 7.37292 10.9375 7.1875C10.9375 6.93886 10.8387 6.7004 10.6629 6.52459C10.4871 6.34877 10.2486 6.25 10 6.25ZM15.3125 8.125C15.4979 8.125 15.6792 8.07002 15.8333 7.967C15.9875 7.86399 16.1077 7.71757 16.1786 7.54627C16.2496 7.37496 16.2682 7.18646 16.232 7.0046C16.1958 6.82275 16.1065 6.6557 15.9754 6.52459C15.8443 6.39348 15.6773 6.30419 15.4954 6.26801C15.3135 6.23184 15.125 6.25041 14.9537 6.32136C14.7824 6.39232 14.636 6.51248 14.533 6.66665C14.43 6.82082 14.375 7.00208 14.375 7.1875C14.375 7.43614 14.4738 7.6746 14.6496 7.85041C14.8254 8.02623 15.0639 8.125 15.3125 8.125ZM4.6875 11.875C4.50208 11.875 4.32082 11.93 4.16665 12.033C4.01248 12.136 3.89232 12.2824 3.82136 12.4537C3.75041 12.625 3.73184 12.8135 3.76801 12.9954C3.80419 13.1773 3.89348 13.3443 4.02459 13.4754C4.1557 13.6065 4.32275 13.6958 4.5046 13.732C4.68646 13.7682 4.87496 13.7496 5.04627 13.6786C5.21757 13.6077 5.36399 13.4875 5.467 13.3333C5.57002 13.1792 5.625 12.9979 5.625 12.8125C5.625 12.5639 5.52623 12.3254 5.35041 12.1496C5.1746 11.9738 4.93614 11.875 4.6875 11.875ZM10 11.875C9.81458 11.875 9.63332 11.93 9.47915 12.033C9.32498 12.136 9.20482 12.2824 9.13386 12.4537C9.06291 12.625 9.04434 12.8135 9.08051 12.9954C9.11669 13.1773 9.20598 13.3443 9.33709 13.4754C9.4682 13.6065 9.63525 13.6958 9.8171 13.732C9.99896 13.7682 10.1875 13.7496 10.3588 13.6786C10.5301 13.6077 10.6765 13.4875 10.7795 13.3333C10.8825 13.1792 10.9375 12.9979 10.9375 12.8125C10.9375 12.5639 10.8387 12.3254 10.6629 12.1496C10.4871 11.9738 10.2486 11.875 10 11.875ZM15.3125 11.875C15.1271 11.875 14.9458 11.93 14.7917 12.033C14.6375 12.136 14.5173 12.2824 14.4464 12.4537C14.3754 12.625 14.3568 12.8135 14.393 12.9954C14.4292 13.1773 14.5185 13.3443 14.6496 13.4754C14.7807 13.6065 14.9477 13.6958 15.1296 13.732C15.3115 13.7682 15.5 13.7496 15.6713 13.6786C15.8426 13.6077 15.989 13.4875 16.092 13.3333C16.195 13.1792 16.25 12.9979 16.25 12.8125C16.25 12.5639 16.1512 12.3254 15.9754 12.1496C15.7996 11.9738 15.5611 11.875 15.3125 11.875Z" fill="#191F2E"/>
</svg>
