<svg width="20" height="20" viewBox="0 0 20 20" fill="none" xmlns="http://www.w3.org/2000/svg">
<path d="M10 7.5C9.50555 7.5 9.0222 7.64662 8.61108 7.92133C8.19995 8.19603 7.87952 8.58648 7.6903 9.04329C7.50108 9.50011 7.45157 10.0028 7.54804 10.4877C7.6445 10.9727 7.8826 11.4181 8.23223 11.7678C8.58187 12.1174 9.02732 12.3555 9.51228 12.452C9.99723 12.5484 10.4999 12.4989 10.9567 12.3097C11.4135 12.1205 11.804 11.8 12.0787 11.3889C12.3534 10.9778 12.5 10.4945 12.5 10C12.5 9.33696 12.2366 8.70108 11.7678 8.23223C11.2989 7.76339 10.663 7.5 10 7.5ZM10 11.25C9.75277 11.25 9.5111 11.1767 9.30554 11.0393C9.09998 10.902 8.93976 10.7068 8.84515 10.4784C8.75054 10.2499 8.72579 9.99861 8.77402 9.75614C8.82225 9.51366 8.9413 9.29093 9.11612 9.11612C9.29093 8.9413 9.51366 8.82225 9.75614 8.77402C9.99861 8.72579 10.2499 8.75054 10.4784 8.84515C10.7068 8.93976 10.902 9.09998 11.0393 9.30554C11.1767 9.5111 11.25 9.75277 11.25 10C11.25 10.3315 11.1183 10.6495 10.8839 10.8839C10.6495 11.1183 10.3315 11.25 10 11.25ZM10 6.25C10.4945 6.25 10.9778 6.10338 11.3889 5.82868C11.8 5.55397 12.1205 5.16352 12.3097 4.70671C12.4989 4.24989 12.5484 3.74723 12.452 3.26228C12.3555 2.77732 12.1174 2.33187 11.7678 1.98223C11.4181 1.6326 10.9727 1.3945 10.4877 1.29804C10.0028 1.20157 9.50011 1.25108 9.04329 1.4403C8.58648 1.62952 8.19603 1.94995 7.92133 2.36108C7.64662 2.7722 7.5 3.25555 7.5 3.75C7.5 4.41304 7.76339 5.04893 8.23223 5.51777C8.70108 5.98661 9.33696 6.25 10 6.25ZM10 2.5C10.2472 2.5 10.4889 2.57331 10.6945 2.71066C10.9 2.84802 11.0602 3.04324 11.1549 3.27165C11.2495 3.50005 11.2742 3.75139 11.226 3.99386C11.1778 4.23634 11.0587 4.45907 10.8839 4.63388C10.7091 4.8087 10.4863 4.92775 10.2439 4.97598C10.0014 5.02421 9.75005 4.99946 9.52165 4.90485C9.29324 4.81024 9.09802 4.65003 8.96066 4.44446C8.82331 4.2389 8.75 3.99723 8.75 3.75C8.75 3.41848 8.8817 3.10054 9.11612 2.86612C9.35054 2.6317 9.66848 2.5 10 2.5ZM10 13.75C9.50555 13.75 9.0222 13.8966 8.61108 14.1713C8.19995 14.446 7.87952 14.8365 7.6903 15.2933C7.50108 15.7501 7.45157 16.2528 7.54804 16.7377C7.6445 17.2227 7.8826 17.6681 8.23223 18.0178C8.58187 18.3674 9.02732 18.6055 9.51228 18.702C9.99723 18.7984 10.4999 18.7489 10.9567 18.5597C11.4135 18.3705 11.804 18.05 12.0787 17.6389C12.3534 17.2278 12.5 16.7445 12.5 16.25C12.5 15.587 12.2366 14.9511 11.7678 14.4822C11.2989 14.0134 10.663 13.75 10 13.75ZM10 17.5C9.75277 17.5 9.5111 17.4267 9.30554 17.2893C9.09998 17.152 8.93976 16.9568 8.84515 16.7284C8.75054 16.4999 8.72579 16.2486 8.77402 16.0061C8.82225 15.7637 8.9413 15.5409 9.11612 15.3661C9.29093 15.1913 9.51366 15.0723 9.75614 15.024C9.99861 14.9758 10.2499 15.0005 10.4784 15.0952C10.7068 15.1898 10.902 15.35 11.0393 15.5555C11.1767 15.7611 11.25 16.0028 11.25 16.25C11.25 16.5815 11.1183 16.8995 10.8839 17.1339C10.6495 17.3683 10.3315 17.5 10 17.5Z" fill="#191F2E"/>
</svg>
