<svg width="20" height="20" viewBox="0 0 20 20" fill="none" xmlns="http://www.w3.org/2000/svg">
<path d="M10 1.5625C8.33122 1.5625 6.69992 2.05735 5.31238 2.98448C3.92484 3.9116 2.84338 5.22936 2.20477 6.77111C1.56616 8.31286 1.39907 10.0094 1.72463 11.6461C2.05019 13.2828 2.85379 14.7862 4.03379 15.9662C5.2138 17.1462 6.71721 17.9498 8.35393 18.2754C9.99064 18.6009 11.6871 18.4338 13.2289 17.7952C14.7706 17.1566 16.0884 16.0752 17.0155 14.6876C17.9427 13.3001 18.4375 11.6688 18.4375 10C18.435 7.763 17.5453 5.61833 15.9635 4.03653C14.3817 2.45473 12.237 1.56498 10 1.5625ZM10 16.5625C8.70206 16.5625 7.43327 16.1776 6.35407 15.4565C5.27488 14.7354 4.43374 13.7105 3.93704 12.5114C3.44034 11.3122 3.31038 9.99272 3.5636 8.71972C3.81682 7.44672 4.44183 6.27739 5.35962 5.35961C6.2774 4.44183 7.44672 3.81681 8.71972 3.5636C9.99272 3.31038 11.3122 3.44034 12.5114 3.93704C13.7105 4.43374 14.7354 5.27487 15.4565 6.35407C16.1776 7.43327 16.5625 8.70206 16.5625 10C16.5606 11.7399 15.8686 13.408 14.6383 14.6383C13.408 15.8686 11.7399 16.5606 10 16.5625ZM11.25 7.5C11.25 7.74723 11.1767 7.9889 11.0393 8.19446C10.902 8.40002 10.7068 8.56024 10.4784 8.65485C10.25 8.74946 9.99862 8.77421 9.75614 8.72598C9.51366 8.67775 9.29094 8.5587 9.11612 8.38388C8.9413 8.20907 8.82225 7.98634 8.77402 7.74386C8.72579 7.50139 8.75054 7.25005 8.84515 7.02165C8.93976 6.79324 9.09998 6.59801 9.30554 6.46066C9.5111 6.32331 9.75278 6.25 10 6.25C10.3315 6.25 10.6495 6.3817 10.8839 6.61612C11.1183 6.85054 11.25 7.16848 11.25 7.5ZM11.25 12.5C11.25 12.7472 11.1767 12.9889 11.0393 13.1945C10.902 13.4 10.7068 13.5602 10.4784 13.6549C10.25 13.7495 9.99862 13.7742 9.75614 13.726C9.51366 13.6778 9.29094 13.5587 9.11612 13.3839C8.9413 13.2091 8.82225 12.9863 8.77402 12.7439C8.72579 12.5014 8.75054 12.2501 8.84515 12.0216C8.93976 11.7932 9.09998 11.598 9.30554 11.4607C9.5111 11.3233 9.75278 11.25 10 11.25C10.3315 11.25 10.6495 11.3817 10.8839 11.6161C11.1183 11.8505 11.25 12.1685 11.25 12.5Z" fill="#191F2E"/>
</svg>
