<svg width="20" height="20" viewBox="0 0 20 20" fill="none" xmlns="http://www.w3.org/2000/svg">
<path d="M10 7.5C9.50555 7.5 9.0222 7.64662 8.61108 7.92133C8.19995 8.19603 7.87952 8.58648 7.6903 9.04329C7.50108 9.50011 7.45157 10.0028 7.54804 10.4877C7.6445 10.9727 7.8826 11.4181 8.23223 11.7678C8.58187 12.1174 9.02732 12.3555 9.51228 12.452C9.99723 12.5484 10.4999 12.4989 10.9567 12.3097C11.4135 12.1205 11.804 11.8 12.0787 11.3889C12.3534 10.9778 12.5 10.4945 12.5 10C12.5 9.33696 12.2366 8.70108 11.7678 8.23223C11.2989 7.76339 10.663 7.5 10 7.5ZM10 10.625C9.87639 10.625 9.75555 10.5883 9.65277 10.5197C9.54999 10.451 9.46988 10.3534 9.42258 10.2392C9.37527 10.125 9.36289 9.99931 9.38701 9.87807C9.41113 9.75683 9.47065 9.64547 9.55806 9.55806C9.64547 9.47065 9.75683 9.41113 9.87807 9.38701C9.99931 9.3629 10.125 9.37527 10.2392 9.42258C10.3534 9.46988 10.451 9.54999 10.5197 9.65277C10.5883 9.75555 10.625 9.87639 10.625 10C10.625 10.1658 10.5592 10.3247 10.4419 10.4419C10.3247 10.5592 10.1658 10.625 10 10.625ZM10 6.25C10.4945 6.25 10.9778 6.10338 11.3889 5.82868C11.8 5.55397 12.1205 5.16352 12.3097 4.70671C12.4989 4.24989 12.5484 3.74723 12.452 3.26228C12.3555 2.77732 12.1174 2.33187 11.7678 1.98223C11.4181 1.6326 10.9727 1.3945 10.4877 1.29804C10.0028 1.20157 9.50011 1.25108 9.04329 1.4403C8.58648 1.62952 8.19603 1.94995 7.92133 2.36108C7.64662 2.7722 7.5 3.25555 7.5 3.75C7.5 4.41304 7.76339 5.04893 8.23223 5.51777C8.70108 5.98661 9.33696 6.25 10 6.25ZM10 3.125C10.1236 3.125 10.2445 3.16166 10.3472 3.23033C10.45 3.29901 10.5301 3.39662 10.5774 3.51082C10.6247 3.62503 10.6371 3.75069 10.613 3.87193C10.5889 3.99317 10.5294 4.10454 10.4419 4.19194C10.3545 4.27935 10.2432 4.33888 10.1219 4.36299C10.0007 4.38711 9.87503 4.37473 9.76082 4.32743C9.64662 4.28012 9.54901 4.20001 9.48033 4.09723C9.41166 3.99445 9.375 3.87361 9.375 3.75C9.375 3.58424 9.44085 3.42527 9.55806 3.30806C9.67527 3.19085 9.83424 3.125 10 3.125ZM10 13.75C9.50555 13.75 9.0222 13.8966 8.61108 14.1713C8.19995 14.446 7.87952 14.8365 7.6903 15.2933C7.50108 15.7501 7.45157 16.2528 7.54804 16.7377C7.6445 17.2227 7.8826 17.6681 8.23223 18.0178C8.58187 18.3674 9.02732 18.6055 9.51228 18.702C9.99723 18.7984 10.4999 18.7489 10.9567 18.5597C11.4135 18.3705 11.804 18.05 12.0787 17.6389C12.3534 17.2278 12.5 16.7445 12.5 16.25C12.5 15.587 12.2366 14.9511 11.7678 14.4822C11.2989 14.0134 10.663 13.75 10 13.75ZM10 16.875C9.87639 16.875 9.75555 16.8383 9.65277 16.7697C9.54999 16.701 9.46988 16.6034 9.42258 16.4892C9.37527 16.375 9.36289 16.2493 9.38701 16.1281C9.41113 16.0068 9.47065 15.8955 9.55806 15.8081C9.64547 15.7207 9.75683 15.6611 9.87807 15.637C9.99931 15.6129 10.125 15.6253 10.2392 15.6726C10.3534 15.7199 10.451 15.8 10.5197 15.9028C10.5883 16.0056 10.625 16.1264 10.625 16.25C10.625 16.4158 10.5592 16.5747 10.4419 16.6919C10.3247 16.8092 10.1658 16.875 10 16.875Z" fill="#191F2E"/>
</svg>
