<svg width="20" height="20" viewBox="0 0 20 20" fill="none" xmlns="http://www.w3.org/2000/svg">
<path d="M10 1.5625C8.33122 1.5625 6.69992 2.05735 5.31238 2.98448C3.92484 3.9116 2.84338 5.22936 2.20477 6.77111C1.56616 8.31286 1.39907 10.0094 1.72463 11.6461C2.05019 13.2828 2.85379 14.7862 4.03379 15.9662C5.2138 17.1462 6.71721 17.9498 8.35393 18.2754C9.99064 18.6009 11.6871 18.4338 13.2289 17.7952C14.7706 17.1566 16.0884 16.0752 17.0155 14.6876C17.9427 13.3001 18.4375 11.6688 18.4375 10C18.435 7.763 17.5453 5.61833 15.9635 4.03653C14.3817 2.45473 12.237 1.56498 10 1.5625ZM10 16.5625C8.70206 16.5625 7.43327 16.1776 6.35407 15.4565C5.27488 14.7354 4.43374 13.7105 3.93704 12.5114C3.44034 11.3122 3.31038 9.99272 3.5636 8.71972C3.81682 7.44672 4.44183 6.27739 5.35962 5.35961C6.2774 4.44183 7.44672 3.81681 8.71972 3.5636C9.99272 3.31038 11.3122 3.44034 12.5114 3.93704C13.7105 4.43374 14.7354 5.27487 15.4565 6.35407C16.1776 7.43327 16.5625 8.70206 16.5625 10C16.5606 11.7399 15.8686 13.408 14.6383 14.6383C13.408 15.8686 11.7399 16.5606 10 16.5625ZM8.75 10C8.75 10.2472 8.67669 10.4889 8.53934 10.6945C8.40199 10.9 8.20677 11.0602 7.97836 11.1549C7.74995 11.2495 7.49862 11.2742 7.25614 11.226C7.01366 11.1778 6.79094 11.0587 6.61612 10.8839C6.4413 10.7091 6.32225 10.4863 6.27402 10.2439C6.22579 10.0014 6.25055 9.75005 6.34515 9.52165C6.43976 9.29324 6.59998 9.09801 6.80554 8.96066C7.0111 8.82331 7.25278 8.75 7.5 8.75C7.83152 8.75 8.14947 8.8817 8.38389 9.11612C8.61831 9.35054 8.75 9.66848 8.75 10ZM13.75 10C13.75 10.2472 13.6767 10.4889 13.5393 10.6945C13.402 10.9 13.2068 11.0602 12.9784 11.1549C12.75 11.2495 12.4986 11.2742 12.2561 11.226C12.0137 11.1778 11.7909 11.0587 11.6161 10.8839C11.4413 10.7091 11.3223 10.4863 11.274 10.2439C11.2258 10.0014 11.2505 9.75005 11.3452 9.52165C11.4398 9.29324 11.6 9.09801 11.8055 8.96066C12.0111 8.82331 12.2528 8.75 12.5 8.75C12.8315 8.75 13.1495 8.8817 13.3839 9.11612C13.6183 9.35054 13.75 9.66848 13.75 10Z" fill="#191F2E"/>
</svg>
