<svg width="20" height="20" viewBox="0 0 20 20" fill="none" xmlns="http://www.w3.org/2000/svg">
<path d="M10 1.875C8.39303 1.875 6.82214 2.35152 5.486 3.24431C4.14985 4.1371 3.10844 5.40605 2.49348 6.8907C1.87852 8.37535 1.71762 10.009 2.03112 11.5851C2.34463 13.1612 3.11846 14.6089 4.25476 15.7452C5.39106 16.8815 6.8388 17.6554 8.4149 17.9689C9.99099 18.2824 11.6247 18.1215 13.1093 17.5065C14.594 16.8916 15.8629 15.8502 16.7557 14.514C17.6485 13.1779 18.125 11.607 18.125 10C18.1227 7.84581 17.266 5.78051 15.7427 4.25727C14.2195 2.73403 12.1542 1.87727 10 1.875ZM10 16.875C8.64026 16.875 7.31105 16.4718 6.18046 15.7164C5.04987 14.9609 4.16868 13.8872 3.64833 12.6309C3.12798 11.3747 2.99183 9.99237 3.2571 8.65875C3.52238 7.32513 4.17716 6.10013 5.13864 5.13864C6.10013 4.17716 7.32514 3.52237 8.65876 3.2571C9.99238 2.99183 11.3747 3.12798 12.631 3.64833C13.8872 4.16868 14.9609 5.04987 15.7164 6.18045C16.4718 7.31104 16.875 8.64025 16.875 10C16.8729 11.8227 16.1479 13.5702 14.8591 14.8591C13.5702 16.1479 11.8227 16.8729 10 16.875ZM10.9375 10C10.9375 10.1854 10.8825 10.3667 10.7795 10.5208C10.6765 10.675 10.5301 10.7952 10.3588 10.8661C10.1875 10.9371 9.99896 10.9557 9.81711 10.9195C9.63525 10.8833 9.4682 10.794 9.33709 10.6629C9.20598 10.5318 9.11669 10.3648 9.08052 10.1829C9.04434 10.001 9.06291 9.81254 9.13387 9.64123C9.20482 9.46993 9.32499 9.32351 9.47916 9.2205C9.63333 9.11748 9.81458 9.0625 10 9.0625C10.2486 9.0625 10.4871 9.16127 10.6629 9.33709C10.8387 9.5129 10.9375 9.75136 10.9375 10ZM10.9375 6.5625C10.9375 6.74792 10.8825 6.92918 10.7795 7.08335C10.6765 7.23752 10.5301 7.35768 10.3588 7.42864C10.1875 7.49959 9.99896 7.51816 9.81711 7.48199C9.63525 7.44581 9.4682 7.35652 9.33709 7.22541C9.20598 7.0943 9.11669 6.92725 9.08052 6.7454C9.04434 6.56354 9.06291 6.37504 9.13387 6.20373C9.20482 6.03243 9.32499 5.88601 9.47916 5.783C9.63333 5.67998 9.81458 5.625 10 5.625C10.2486 5.625 10.4871 5.72377 10.6629 5.89959C10.8387 6.0754 10.9375 6.31386 10.9375 6.5625ZM10.9375 13.4375C10.9375 13.6229 10.8825 13.8042 10.7795 13.9583C10.6765 14.1125 10.5301 14.2327 10.3588 14.3036C10.1875 14.3746 9.99896 14.3932 9.81711 14.357C9.63525 14.3208 9.4682 14.2315 9.33709 14.1004C9.20598 13.9693 9.11669 13.8023 9.08052 13.6204C9.04434 13.4385 9.06291 13.25 9.13387 13.0787C9.20482 12.9074 9.32499 12.761 9.47916 12.658C9.63333 12.555 9.81458 12.5 10 12.5C10.2486 12.5 10.4871 12.5988 10.6629 12.7746C10.8387 12.9504 10.9375 13.1889 10.9375 13.4375Z" fill="#191F2E"/>
</svg>
