<svg width="20" height="20" viewBox="0 0 20 20" fill="none" xmlns="http://www.w3.org/2000/svg">
<path d="M10 1.875C8.39303 1.875 6.82214 2.35152 5.486 3.24431C4.14985 4.1371 3.10844 5.40605 2.49348 6.8907C1.87852 8.37535 1.71762 10.009 2.03112 11.5851C2.34463 13.1612 3.11846 14.6089 4.25476 15.7452C5.39106 16.8815 6.8388 17.6554 8.4149 17.9689C9.99099 18.2824 11.6247 18.1215 13.1093 17.5065C14.594 16.8916 15.8629 15.8502 16.7557 14.514C17.6485 13.1779 18.125 11.607 18.125 10C18.1223 7.84594 17.2654 5.78088 15.7423 4.25773C14.2191 2.73457 12.1541 1.87769 10 1.875ZM6.5625 10.9375C6.37708 10.9375 6.19583 10.8825 6.04166 10.7795C5.88749 10.6765 5.76732 10.5301 5.69637 10.3588C5.62541 10.1875 5.60684 9.99896 5.64302 9.8171C5.67919 9.63525 5.76848 9.4682 5.89959 9.33709C6.0307 9.20598 6.19775 9.11669 6.37961 9.08051C6.56146 9.04434 6.74996 9.06291 6.92127 9.13386C7.09258 9.20482 7.23899 9.32498 7.34201 9.47915C7.44502 9.63332 7.5 9.81458 7.5 10C7.5 10.2486 7.40123 10.4871 7.22542 10.6629C7.0496 10.8387 6.81114 10.9375 6.5625 10.9375ZM10 10.9375C9.81458 10.9375 9.63333 10.8825 9.47916 10.7795C9.32499 10.6765 9.20482 10.5301 9.13387 10.3588C9.06291 10.1875 9.04434 9.99896 9.08052 9.8171C9.11669 9.63525 9.20598 9.4682 9.33709 9.33709C9.4682 9.20598 9.63525 9.11669 9.81711 9.08051C9.99896 9.04434 10.1875 9.06291 10.3588 9.13386C10.5301 9.20482 10.6765 9.32498 10.7795 9.47915C10.8825 9.63332 10.9375 9.81458 10.9375 10C10.9375 10.2486 10.8387 10.4871 10.6629 10.6629C10.4871 10.8387 10.2486 10.9375 10 10.9375ZM13.4375 10.9375C13.2521 10.9375 13.0708 10.8825 12.9167 10.7795C12.7625 10.6765 12.6423 10.5301 12.5714 10.3588C12.5004 10.1875 12.4818 9.99896 12.518 9.8171C12.5542 9.63525 12.6435 9.4682 12.7746 9.33709C12.9057 9.20598 13.0727 9.11669 13.2546 9.08051C13.4365 9.04434 13.625 9.06291 13.7963 9.13386C13.9676 9.20482 14.114 9.32498 14.217 9.47915C14.32 9.63332 14.375 9.81458 14.375 10C14.375 10.2486 14.2762 10.4871 14.1004 10.6629C13.9246 10.8387 13.6861 10.9375 13.4375 10.9375Z" fill="#191F2E"/>
</svg>
