<svg width="20" height="20" viewBox="0 0 20 20" fill="none" xmlns="http://www.w3.org/2000/svg">
<path d="M10 7.5C9.50555 7.5 9.0222 7.64662 8.61108 7.92133C8.19995 8.19603 7.87952 8.58648 7.6903 9.04329C7.50108 9.50011 7.45157 10.0028 7.54804 10.4877C7.6445 10.9727 7.8826 11.4181 8.23223 11.7678C8.58187 12.1174 9.02732 12.3555 9.51228 12.452C9.99723 12.5484 10.4999 12.4989 10.9567 12.3097C11.4135 12.1205 11.804 11.8 12.0787 11.3889C12.3534 10.9778 12.5 10.4945 12.5 10C12.5 9.33696 12.2366 8.70107 11.7678 8.23223C11.2989 7.76339 10.663 7.5 10 7.5ZM10 11.25C9.75277 11.25 9.5111 11.1767 9.30554 11.0393C9.09998 10.902 8.93976 10.7068 8.84515 10.4784C8.75054 10.2499 8.72579 9.99861 8.77402 9.75614C8.82225 9.51366 8.9413 9.29093 9.11612 9.11612C9.29093 8.9413 9.51366 8.82225 9.75614 8.77402C9.99861 8.72579 10.2499 8.75054 10.4784 8.84515C10.7068 8.93976 10.902 9.09998 11.0393 9.30554C11.1767 9.5111 11.25 9.75277 11.25 10C11.25 10.3315 11.1183 10.6495 10.8839 10.8839C10.6495 11.1183 10.3315 11.25 10 11.25ZM3.75 7.5C3.25555 7.5 2.7722 7.64662 2.36108 7.92133C1.94995 8.19603 1.62952 8.58648 1.4403 9.04329C1.25108 9.50011 1.20157 10.0028 1.29804 10.4877C1.3945 10.9727 1.6326 11.4181 1.98223 11.7678C2.33187 12.1174 2.77732 12.3555 3.26228 12.452C3.74723 12.5484 4.24989 12.4989 4.70671 12.3097C5.16352 12.1205 5.55397 11.8 5.82868 11.3889C6.10338 10.9778 6.25 10.4945 6.25 10C6.25 9.33696 5.98661 8.70107 5.51777 8.23223C5.04893 7.76339 4.41304 7.5 3.75 7.5ZM3.75 11.25C3.50277 11.25 3.2611 11.1767 3.05554 11.0393C2.84998 10.902 2.68976 10.7068 2.59515 10.4784C2.50054 10.2499 2.47579 9.99861 2.52402 9.75614C2.57225 9.51366 2.6913 9.29093 2.86612 9.11612C3.04093 8.9413 3.26366 8.82225 3.50614 8.77402C3.74861 8.72579 3.99995 8.75054 4.22836 8.84515C4.45676 8.93976 4.65199 9.09998 4.78934 9.30554C4.92669 9.5111 5 9.75277 5 10C5 10.3315 4.86831 10.6495 4.63388 10.8839C4.39946 11.1183 4.08152 11.25 3.75 11.25ZM16.25 7.5C15.7555 7.5 15.2722 7.64662 14.8611 7.92133C14.45 8.19603 14.1295 8.58648 13.9403 9.04329C13.7511 9.50011 13.7016 10.0028 13.798 10.4877C13.8945 10.9727 14.1326 11.4181 14.4822 11.7678C14.8319 12.1174 15.2773 12.3555 15.7623 12.452C16.2472 12.5484 16.7499 12.4989 17.2067 12.3097C17.6635 12.1205 18.054 11.8 18.3287 11.3889C18.6034 10.9778 18.75 10.4945 18.75 10C18.75 9.33696 18.4866 8.70107 18.0178 8.23223C17.5489 7.76339 16.913 7.5 16.25 7.5ZM16.25 11.25C16.0028 11.25 15.7611 11.1767 15.5555 11.0393C15.35 10.902 15.1898 10.7068 15.0952 10.4784C15.0005 10.2499 14.9758 9.99861 15.024 9.75614C15.0723 9.51366 15.1913 9.29093 15.3661 9.11612C15.5409 8.9413 15.7637 8.82225 16.0061 8.77402C16.2486 8.72579 16.4999 8.75054 16.7284 8.84515C16.9568 8.93976 17.152 9.09998 17.2893 9.30554C17.4267 9.5111 17.5 9.75277 17.5 10C17.5 10.3315 17.3683 10.6495 17.1339 10.8839C16.8995 11.1183 16.5815 11.25 16.25 11.25Z" fill="#191F2E"/>
</svg>
