<svg width="20" height="20" viewBox="0 0 20 20" fill="none" xmlns="http://www.w3.org/2000/svg">
<path d="M10 7.5C9.50555 7.5 9.0222 7.64662 8.61108 7.92133C8.19995 8.19603 7.87952 8.58648 7.6903 9.04329C7.50108 9.50011 7.45157 10.0028 7.54804 10.4877C7.6445 10.9727 7.8826 11.4181 8.23223 11.7678C8.58187 12.1174 9.02732 12.3555 9.51228 12.452C9.99723 12.5484 10.4999 12.4989 10.9567 12.3097C11.4135 12.1205 11.804 11.8 12.0787 11.3889C12.3534 10.9778 12.5 10.4945 12.5 10C12.5 9.33696 12.2366 8.70107 11.7678 8.23223C11.2989 7.76339 10.663 7.5 10 7.5ZM10 10.625C9.87639 10.625 9.75555 10.5883 9.65277 10.5197C9.54999 10.451 9.46988 10.3534 9.42258 10.2392C9.37527 10.125 9.3629 9.99931 9.38701 9.87807C9.41113 9.75683 9.47065 9.64547 9.55806 9.55806C9.64547 9.47065 9.75683 9.41112 9.87807 9.38701C9.99931 9.36289 10.125 9.37527 10.2392 9.42258C10.3534 9.46988 10.451 9.54999 10.5197 9.65277C10.5883 9.75555 10.625 9.87639 10.625 10C10.625 10.1658 10.5592 10.3247 10.4419 10.4419C10.3247 10.5592 10.1658 10.625 10 10.625ZM16.25 7.5C15.7555 7.5 15.2722 7.64662 14.8611 7.92133C14.45 8.19603 14.1295 8.58648 13.9403 9.04329C13.7511 9.50011 13.7016 10.0028 13.798 10.4877C13.8945 10.9727 14.1326 11.4181 14.4822 11.7678C14.8319 12.1174 15.2773 12.3555 15.7623 12.452C16.2472 12.5484 16.7499 12.4989 17.2067 12.3097C17.6635 12.1205 18.054 11.8 18.3287 11.3889C18.6034 10.9778 18.75 10.4945 18.75 10C18.75 9.33696 18.4866 8.70107 18.0178 8.23223C17.5489 7.76339 16.913 7.5 16.25 7.5ZM16.25 10.625C16.1264 10.625 16.0056 10.5883 15.9028 10.5197C15.8 10.451 15.7199 10.3534 15.6726 10.2392C15.6253 10.125 15.6129 9.99931 15.637 9.87807C15.6611 9.75683 15.7207 9.64547 15.8081 9.55806C15.8955 9.47065 16.0068 9.41112 16.1281 9.38701C16.2493 9.36289 16.375 9.37527 16.4892 9.42258C16.6034 9.46988 16.701 9.54999 16.7697 9.65277C16.8383 9.75555 16.875 9.87639 16.875 10C16.875 10.1658 16.8092 10.3247 16.6919 10.4419C16.5747 10.5592 16.4158 10.625 16.25 10.625ZM3.75 7.5C3.25555 7.5 2.7722 7.64662 2.36108 7.92133C1.94995 8.19603 1.62952 8.58648 1.4403 9.04329C1.25108 9.50011 1.20157 10.0028 1.29804 10.4877C1.3945 10.9727 1.6326 11.4181 1.98223 11.7678C2.33187 12.1174 2.77732 12.3555 3.26228 12.452C3.74723 12.5484 4.24989 12.4989 4.70671 12.3097C5.16352 12.1205 5.55397 11.8 5.82868 11.3889C6.10338 10.9778 6.25 10.4945 6.25 10C6.25 9.33696 5.98661 8.70107 5.51777 8.23223C5.04893 7.76339 4.41304 7.5 3.75 7.5ZM3.75 10.625C3.62639 10.625 3.50555 10.5883 3.40277 10.5197C3.29999 10.451 3.21988 10.3534 3.17258 10.2392C3.12527 10.125 3.11289 9.99931 3.13701 9.87807C3.16113 9.75683 3.22065 9.64547 3.30806 9.55806C3.39547 9.47065 3.50683 9.41112 3.62807 9.38701C3.74931 9.36289 3.87497 9.37527 3.98918 9.42258C4.10338 9.46988 4.20099 9.54999 4.26967 9.65277C4.33835 9.75555 4.375 9.87639 4.375 10C4.375 10.1658 4.30915 10.3247 4.19194 10.4419C4.07473 10.5592 3.91576 10.625 3.75 10.625Z" fill="#191F2E"/>
</svg>
