<svg width="20" height="20" viewBox="0 0 20 20" fill="none" xmlns="http://www.w3.org/2000/svg">
<path d="M11.25 10C11.25 10.2472 11.1767 10.4889 11.0393 10.6945C10.902 10.9 10.7068 11.0602 10.4784 11.1548C10.2499 11.2495 9.99861 11.2742 9.75614 11.226C9.51366 11.1778 9.29093 11.0587 9.11612 10.8839C8.9413 10.7091 8.82225 10.4863 8.77402 10.2439C8.72579 10.0014 8.75054 9.75005 8.84515 9.52165C8.93976 9.29324 9.09998 9.09801 9.30554 8.96066C9.5111 8.82331 9.75277 8.75 10 8.75C10.3315 8.75 10.6495 8.8817 10.8839 9.11612C11.1183 9.35054 11.25 9.66848 11.25 10ZM4.6875 8.75C4.44027 8.75 4.1986 8.82331 3.99304 8.96066C3.78748 9.09801 3.62726 9.29324 3.53265 9.52165C3.43804 9.75005 3.41329 10.0014 3.46152 10.2439C3.50975 10.4863 3.6288 10.7091 3.80362 10.8839C3.97843 11.0587 4.20116 11.1778 4.44364 11.226C4.68611 11.2742 4.93745 11.2495 5.16585 11.1548C5.39426 11.0602 5.58949 10.9 5.72684 10.6945C5.86419 10.4889 5.9375 10.2472 5.9375 10C5.9375 9.66848 5.8058 9.35054 5.57138 9.11612C5.33696 8.8817 5.01902 8.75 4.6875 8.75ZM15.3125 8.75C15.0653 8.75 14.8236 8.82331 14.618 8.96066C14.4125 9.09801 14.2523 9.29324 14.1577 9.52165C14.063 9.75005 14.0383 10.0014 14.0865 10.2439C14.1348 10.4863 14.2538 10.7091 14.4286 10.8839C14.6034 11.0587 14.8262 11.1778 15.0686 11.226C15.3111 11.2742 15.5624 11.2495 15.7909 11.1548C16.0193 11.0602 16.2145 10.9 16.3518 10.6945C16.4892 10.4889 16.5625 10.2472 16.5625 10C16.5625 9.66848 16.4308 9.35054 16.1964 9.11612C15.962 8.8817 15.644 8.75 15.3125 8.75Z" fill="#191F2E"/>
</svg>
