<svg width="20" height="20" viewBox="0 0 20 20" fill="none" xmlns="http://www.w3.org/2000/svg">
<path d="M18.125 10C18.125 8.39303 17.6485 6.82214 16.7557 5.486C15.8629 4.14985 14.594 3.10844 13.1093 2.49348C11.6247 1.87852 9.99099 1.71762 8.4149 2.03112C6.8388 2.34463 5.39106 3.11846 4.25476 4.25476C3.11846 5.39106 2.34463 6.8388 2.03112 8.4149C1.71762 9.99099 1.87852 11.6247 2.49348 13.1093C3.10844 14.594 4.14985 15.8629 5.486 16.7557C6.82214 17.6485 8.39303 18.125 10 18.125C12.1541 18.1223 14.2191 17.2654 15.7423 15.7423C17.2654 14.2191 18.1223 12.1541 18.125 10ZM9.0625 6.5625C9.0625 6.37708 9.11749 6.19583 9.2205 6.04166C9.32351 5.88749 9.46993 5.76732 9.64124 5.69637C9.81254 5.62541 10.001 5.60684 10.1829 5.64302C10.3648 5.67919 10.5318 5.76848 10.6629 5.89959C10.794 6.0307 10.8833 6.19775 10.9195 6.37961C10.9557 6.56146 10.9371 6.74996 10.8661 6.92127C10.7952 7.09258 10.675 7.23899 10.5209 7.34201C10.3667 7.44502 10.1854 7.5 10 7.5C9.75136 7.5 9.51291 7.40123 9.33709 7.22542C9.16128 7.0496 9.0625 6.81114 9.0625 6.5625ZM9.0625 10C9.0625 9.81458 9.11749 9.63333 9.2205 9.47916C9.32351 9.32499 9.46993 9.20482 9.64124 9.13387C9.81254 9.06291 10.001 9.04434 10.1829 9.08052C10.3648 9.11669 10.5318 9.20598 10.6629 9.33709C10.794 9.4682 10.8833 9.63525 10.9195 9.81711C10.9557 9.99896 10.9371 10.1875 10.8661 10.3588C10.7952 10.5301 10.675 10.6765 10.5209 10.7795C10.3667 10.8825 10.1854 10.9375 10 10.9375C9.75136 10.9375 9.51291 10.8387 9.33709 10.6629C9.16128 10.4871 9.0625 10.2486 9.0625 10ZM9.0625 13.4375C9.0625 13.2521 9.11749 13.0708 9.2205 12.9167C9.32351 12.7625 9.46993 12.6423 9.64124 12.5714C9.81254 12.5004 10.001 12.4818 10.1829 12.518C10.3648 12.5542 10.5318 12.6435 10.6629 12.7746C10.794 12.9057 10.8833 13.0727 10.9195 13.2546C10.9557 13.4365 10.9371 13.625 10.8661 13.7963C10.7952 13.9676 10.675 14.114 10.5209 14.217C10.3667 14.32 10.1854 14.375 10 14.375C9.75136 14.375 9.51291 14.2762 9.33709 14.1004C9.16128 13.9246 9.0625 13.6861 9.0625 13.4375Z" fill="#191F2E"/>
</svg>
