<svg width="20" height="20" viewBox="0 0 20 20" fill="none" xmlns="http://www.w3.org/2000/svg">
<path d="M6.43281 9.19219C6.34531 9.10478 6.2857 8.99337 6.26154 8.87207C6.23739 8.75076 6.24977 8.62502 6.29711 8.51076C6.34446 8.39649 6.42464 8.29884 6.52751 8.23018C6.63038 8.16151 6.75132 8.1249 6.875 8.125H9.375V3.125C9.375 2.95924 9.44085 2.80027 9.55806 2.68306C9.67527 2.56585 9.83424 2.5 10 2.5C10.1658 2.5 10.3247 2.56585 10.4419 2.68306C10.5592 2.80027 10.625 2.95924 10.625 3.125V8.125H13.125C13.2487 8.1249 13.3696 8.16151 13.4725 8.23018C13.5754 8.29884 13.6555 8.39649 13.7029 8.51076C13.7502 8.62502 13.7626 8.75076 13.7385 8.87207C13.7143 8.99337 13.6547 9.10478 13.5672 9.19219L10.4422 12.3172C10.3841 12.3753 10.3152 12.4214 10.2393 12.4529C10.1635 12.4843 10.0821 12.5005 10 12.5005C9.91787 12.5005 9.83654 12.4843 9.76066 12.4529C9.68479 12.4214 9.61586 12.3753 9.55781 12.3172L6.43281 9.19219ZM16.875 11.25C16.7092 11.25 16.5503 11.3158 16.4331 11.4331C16.3158 11.5503 16.25 11.7092 16.25 11.875V16.25H3.75V11.875C3.75 11.7092 3.68415 11.5503 3.56694 11.4331C3.44973 11.3158 3.29076 11.25 3.125 11.25C2.95924 11.25 2.80027 11.3158 2.68306 11.4331C2.56585 11.5503 2.5 11.7092 2.5 11.875V16.25C2.5 16.5815 2.6317 16.8995 2.86612 17.1339C3.10054 17.3683 3.41848 17.5 3.75 17.5H16.25C16.5815 17.5 16.8995 17.3683 17.1339 17.1339C17.3683 16.8995 17.5 16.5815 17.5 16.25V11.875C17.5 11.7092 17.4342 11.5503 17.3169 11.4331C17.1997 11.3158 17.0408 11.25 16.875 11.25Z" fill="#191F2E"/>
</svg>
