<svg width="20" height="20" viewBox="0 0 20 20" fill="none" xmlns="http://www.w3.org/2000/svg">
<path d="M5.17657 6.268C5.09039 6.12709 5.03443 5.96982 5.01224 5.80615C4.99005 5.64248 5.00211 5.47598 5.04766 5.31722C5.07864 5.18541 5.13146 5.05972 5.20391 4.94534L6.875 2.55472V0.62503C6.87482 0.539351 6.89225 0.454547 6.92621 0.375888C6.96018 0.297228 7.00996 0.226392 7.07245 0.16778C7.13495 0.109168 7.20883 0.064031 7.2895 0.0351735C7.37017 0.00631597 7.45592 -0.00564604 7.54141 3.04654e-05C7.7024 0.0138543 7.85216 0.088222 7.96046 0.20813C8.06877 0.328038 8.12757 0.484562 8.125 0.646124V2.53284L8.53516 3.04691C8.7137 3.27083 8.94135 3.45071 9.20049 3.57262C9.45964 3.69454 9.74335 3.75524 10.0297 3.75003C10.3125 3.74203 10.59 3.67188 10.8426 3.54456C11.0953 3.41723 11.3168 3.23586 11.4914 3.01331L11.875 2.53284V0.62503C11.8748 0.539351 11.8922 0.454547 11.9262 0.375888C11.9602 0.297228 12.01 0.226392 12.0725 0.16778C12.1349 0.109168 12.2088 0.064031 12.2895 0.0351735C12.3702 0.00631597 12.4559 -0.00564604 12.5414 3.04654e-05C12.7024 0.0138543 12.8522 0.088222 12.9605 0.20813C13.0688 0.328038 13.1276 0.484562 13.125 0.646124V2.55472L14.7984 4.94534C14.8709 5.05972 14.9237 5.18541 14.9547 5.31722C15.0002 5.47598 15.0123 5.64248 14.9901 5.80615C14.9679 5.96982 14.912 6.12709 14.8258 6.268C14.8226 6.27251 14.8198 6.2772 14.8172 6.28206L13.7344 7.9805C13.706 8.0251 13.6667 8.06176 13.6202 8.08703C13.5738 8.11231 13.5216 8.12539 13.4688 8.12503H6.53125C6.47876 8.12499 6.42713 8.11173 6.38111 8.08647C6.3351 8.06121 6.29619 8.02476 6.26797 7.9805L5.18516 6.28206C5.18258 6.2772 5.17971 6.27251 5.17657 6.268ZM16.7781 16.3899C16.7749 16.3807 16.771 16.3719 16.7664 16.3633L13.5695 9.55472C13.5443 9.50089 13.5042 9.45539 13.4539 9.42356C13.4037 9.39173 13.3454 9.37489 13.2859 9.37503H6.71407C6.6546 9.37489 6.59632 9.39173 6.54609 9.42356C6.49586 9.45539 6.45575 9.50089 6.43047 9.55472L3.2336 16.3633C3.22904 16.3719 3.22513 16.3807 3.22188 16.3899C3.15373 16.5542 3.121 16.7311 3.12585 16.9089C3.1307 17.0867 3.173 17.2615 3.25 17.4219C3.35264 17.6329 3.51258 17.8107 3.71153 17.935C3.91047 18.0594 4.1404 18.1252 4.375 18.125H15.625C15.8595 18.1251 16.0892 18.0592 16.288 17.9348C16.4868 17.8105 16.6466 17.6327 16.7492 17.4219C16.8263 17.2616 16.8688 17.0868 16.8738 16.909C16.8788 16.7311 16.8462 16.5543 16.7781 16.3899Z" fill="#191F2E"/>
</svg>
