<svg width="20" height="20" viewBox="0 0 20 20" fill="none" xmlns="http://www.w3.org/2000/svg">
<path d="M17.0609 16.2594C17.0562 16.25 17.0523 16.2398 17.0477 16.2305L13.568 8.81875L15.0781 6.45C15.0828 6.44297 15.0875 6.43594 15.0914 6.42891C15.2371 6.18607 15.3141 5.9082 15.3141 5.625C15.3141 5.3418 15.2371 5.06393 15.0914 4.82109C15.0805 4.80234 15.068 4.78359 15.0555 4.76562L13.4375 2.45625V0.9375C13.4375 0.68886 13.3387 0.450403 13.1629 0.274587C12.9871 0.098772 12.7486 0 12.5 0C12.2514 0 12.0129 0.098772 11.8371 0.274587C11.6613 0.450403 11.5625 0.68886 11.5625 0.9375V2.42188L11.2203 2.84922C11.0739 3.03227 10.8882 3.18005 10.677 3.2816C10.4658 3.38316 10.2344 3.43589 10 3.43589C9.76561 3.43589 9.53423 3.38316 9.32299 3.2816C9.11175 3.18005 8.92606 3.03227 8.77968 2.84922L8.4375 2.42188V0.9375C8.4375 0.68886 8.33872 0.450403 8.16291 0.274587C7.98709 0.098772 7.74864 0 7.5 0C7.25136 0 7.0129 0.098772 6.83708 0.274587C6.66127 0.450403 6.5625 0.68886 6.5625 0.9375V2.45625L4.94609 4.76562C4.93359 4.78359 4.92109 4.80234 4.91015 4.82109C4.76445 5.06393 4.68748 5.3418 4.68748 5.625C4.68748 5.9082 4.76445 6.18607 4.91015 6.42891C4.91015 6.43594 4.91875 6.44297 4.92343 6.45L6.43203 8.81875L2.95234 16.2305C2.94765 16.2398 2.94375 16.25 2.93906 16.2594C2.83718 16.497 2.79588 16.7562 2.81884 17.0138C2.84181 17.2713 2.92833 17.5191 3.07064 17.735C3.21296 17.9509 3.40662 18.1281 3.63427 18.2507C3.86192 18.3733 4.11643 18.4375 4.375 18.4375H15.625C15.8836 18.4376 16.1382 18.3735 16.366 18.2509C16.5937 18.1284 16.7875 17.9512 16.9299 17.7353C17.0723 17.5194 17.1589 17.2716 17.1819 17.014C17.2049 16.7564 17.1636 16.4971 17.0617 16.2594H17.0609ZM10 5.3125C10.4535 5.31342 10.9026 5.2241 11.3212 5.04974C11.7398 4.87537 12.1195 4.61945 12.4383 4.29688L13.3758 5.63281L11.9859 7.8125H8.01406L6.62656 5.63438L7.56406 4.29844C7.88264 4.62045 8.26205 4.87592 8.68023 5.05C9.09841 5.22409 9.54703 5.31332 10 5.3125ZM4.86796 16.5625L8.09531 9.6875H11.9047L15.132 16.5625H4.86796Z" fill="#191F2E"/>
</svg>
