<svg width="20" height="20" viewBox="0 0 20 20" fill="none" xmlns="http://www.w3.org/2000/svg">
<path d="M10 1.875C8.39303 1.875 6.82214 2.35152 5.486 3.24431C4.14985 4.1371 3.10844 5.40605 2.49348 6.8907C1.87852 8.37535 1.71762 10.009 2.03112 11.5851C2.34463 13.1612 3.11846 14.6089 4.25476 15.7452C5.39106 16.8815 6.8388 17.6554 8.4149 17.9689C9.99099 18.2824 11.6247 18.1215 13.1093 17.5065C14.594 16.8916 15.8629 15.8502 16.7557 14.514C17.6485 13.1779 18.125 11.607 18.125 10C18.1227 7.84581 17.266 5.78051 15.7427 4.25727C14.2195 2.73403 12.1542 1.87727 10 1.875ZM16.8477 9.38906C16.6487 9.37969 16.4495 9.375 16.25 9.375C15.0906 9.37533 13.9364 9.52874 12.8172 9.83125C12.5443 9.02154 12.1924 8.24069 11.7664 7.5C12.8773 6.83009 13.883 5.99948 14.7508 5.03516C15.9549 6.18396 16.7001 7.73141 16.8477 9.38906ZM13.7719 4.25469C12.9912 5.11249 12.0889 5.85108 11.0938 6.44687C10.2603 5.27376 9.2409 4.2446 8.07579 3.4C9.03159 3.12098 10.0366 3.0529 11.0213 3.20047C12.006 3.34804 12.9469 3.70774 13.7789 4.25469H13.7719ZM6.69141 3.975C7.96844 4.77922 9.08177 5.81779 9.97266 7.03594C8.41346 7.75457 6.71684 8.12615 5 8.125C4.47013 8.12473 3.94086 8.0895 3.41563 8.01953C3.93825 6.29571 5.11376 4.84433 6.69141 3.975ZM3.125 10C3.12497 9.74839 3.13879 9.49697 3.16641 9.24687C3.77389 9.33216 4.38657 9.37498 5 9.375C6.96058 9.37685 8.89662 8.93902 10.6656 8.09375C11.0554 8.76679 11.3775 9.47676 11.6273 10.2133C10.9634 10.4627 10.3209 10.7658 9.70625 11.1195C7.99146 12.1102 6.52114 13.4734 5.40391 15.1086C4.68646 14.465 4.1127 13.6774 3.72004 12.7972C3.32738 11.9169 3.12463 10.9638 3.125 10ZM6.40625 15.8594C7.4206 14.3591 8.76276 13.1091 10.3313 12.2039C10.8557 11.9013 11.4029 11.6401 11.968 11.4227C12.1614 12.2808 12.2591 13.1578 12.2594 14.0375C12.2598 14.8927 12.1684 15.7455 11.9867 16.5813C11.0583 16.8617 10.081 16.9424 9.11917 16.818C8.15733 16.6936 7.23274 16.3669 6.40625 15.8594ZM13.3641 15.9945C13.4605 15.348 13.5091 14.6951 13.5094 14.0414C13.5093 13.0296 13.3926 12.0211 13.1617 11.0359C14.1687 10.7642 15.207 10.626 16.25 10.625C16.4479 10.625 16.6461 10.6299 16.8445 10.6398C16.7399 11.747 16.3686 12.8123 15.7625 13.7447C15.1564 14.6771 14.3335 15.4488 13.3641 15.9937V15.9945Z" fill="#191F2E"/>
</svg>
