<svg width="20" height="20" viewBox="0 0 20 20" fill="none" xmlns="http://www.w3.org/2000/svg">
<path d="M7.28671 2.87967C7.2363 2.84849 7.1958 2.80362 7.16994 2.75029C7.14407 2.69697 7.1339 2.63738 7.14062 2.5785C7.14733 2.51961 7.17066 2.46385 7.20787 2.41771C7.24508 2.37158 7.29464 2.33698 7.35077 2.31795C8.49061 1.92521 9.70361 1.7912 10.9017 1.92566C12.0998 2.06012 13.2529 2.45966 14.2773 3.0953C14.3145 3.1187 14.3462 3.14966 14.3706 3.18617C14.395 3.22267 14.4114 3.2639 14.4187 3.30716C14.4261 3.35042 14.4243 3.39475 14.4134 3.43726C14.4025 3.47977 14.3827 3.51951 14.3555 3.55389C13.4509 4.70981 12.3416 5.68962 11.0828 6.44451C10.066 5.01659 8.77564 3.80487 7.28671 2.87967ZM9.96718 7.03123C8.82615 5.47428 7.32503 4.21683 5.59218 3.36639C5.54256 3.34229 5.48737 3.33197 5.4324 3.33651C5.37742 3.34104 5.32468 3.36027 5.27968 3.39217C3.87685 4.39561 2.82819 5.81789 2.28436 7.45467C2.2707 7.49652 2.26604 7.54079 2.27067 7.58457C2.27531 7.62835 2.28915 7.67066 2.31128 7.70872C2.3334 7.74678 2.36333 7.77973 2.39908 7.80543C2.43483 7.83112 2.47561 7.84896 2.51874 7.8578C3.33417 8.03357 4.16583 8.12312 4.99999 8.12498C6.71555 8.12591 8.41067 7.75266 9.96718 7.03123ZM18.0766 9.11639C17.8779 7.3043 17.0745 5.61198 15.7961 4.31248C15.7649 4.28082 15.7273 4.25616 15.6859 4.24017C15.6444 4.22417 15.6001 4.21719 15.5557 4.21971C15.5113 4.22222 15.468 4.23417 15.4286 4.25474C15.3893 4.27532 15.3547 4.30406 15.3273 4.33905C14.3386 5.59872 13.1291 6.66818 11.7578 7.4953C12.1862 8.23746 12.5408 9.01985 12.8164 9.83123C13.9357 9.5278 15.0903 9.37438 16.25 9.37498C16.746 9.375 17.2415 9.40291 17.7344 9.45858C17.7802 9.46315 17.8265 9.45753 17.87 9.4421C17.9134 9.42667 17.9529 9.40183 17.9856 9.36935C18.0183 9.33687 18.0434 9.29756 18.0591 9.25423C18.0749 9.2109 18.0808 9.16463 18.0766 9.11873V9.11639ZM13.1617 11.0305C13.3933 12.0155 13.5099 13.024 13.5094 14.0359C13.5089 15.0045 13.4012 15.97 13.1883 16.9148C13.1747 16.9727 13.1778 17.0333 13.1974 17.0894C13.217 17.1455 13.2522 17.1949 13.2989 17.2317C13.3456 17.2685 13.4018 17.2913 13.4609 17.2973C13.5201 17.3033 13.5797 17.2923 13.6328 17.2656C14.8177 16.6712 15.8396 15.7965 16.6098 14.7176C17.38 13.6386 17.8752 12.388 18.0523 11.0742C18.0577 11.0332 18.0549 10.9916 18.044 10.9517C18.0332 10.9119 18.0146 10.8745 17.9892 10.8419C17.9638 10.8093 17.9323 10.782 17.8963 10.7617C17.8603 10.7413 17.8207 10.7283 17.7797 10.7234C16.2347 10.5246 14.6658 10.6308 13.1617 11.0359V11.0305ZM11.6273 10.214C11.3754 9.47532 11.0512 8.76327 10.6594 8.08826C8.89344 8.93664 6.95913 9.37643 4.99999 9.37498C4.08421 9.37503 3.17092 9.27946 2.27499 9.08983C2.23176 9.08071 2.18709 9.08086 2.14393 9.09027C2.10076 9.09968 2.06008 9.11813 2.02457 9.14441C1.98906 9.17069 1.95953 9.20421 1.93792 9.24274C1.91631 9.28127 1.90312 9.32395 1.89921 9.36795C1.88306 9.57629 1.87473 9.78696 1.87421 9.99998C1.8738 11.1125 2.10249 12.2132 2.54604 13.2335C2.98959 14.2538 3.6385 15.1719 4.45233 15.9305C4.48666 15.9619 4.52759 15.9853 4.57212 15.9989C4.61665 16.0125 4.66366 16.016 4.70971 16.0091C4.75577 16.0022 4.7997 15.9852 4.8383 15.9591C4.87689 15.9331 4.90918 15.8987 4.9328 15.8586C6.45765 13.2712 8.81906 11.281 11.6273 10.2164V10.214ZM5.91327 16.6601C5.89273 16.696 5.87951 16.7356 5.87437 16.7766C5.86923 16.8176 5.87226 16.8592 5.88331 16.899C5.89435 16.9388 5.91318 16.976 5.93871 17.0085C5.96423 17.041 5.99595 17.0681 6.03202 17.0883C7.66587 18.0043 9.56629 18.327 11.4109 18.0015C11.4658 17.992 11.517 17.9676 11.5592 17.9312C11.6013 17.8947 11.6327 17.8475 11.65 17.7945C12.0529 16.5831 12.2587 15.3149 12.2594 14.0383C12.2595 13.1588 12.1615 12.282 11.9672 11.4242C9.40726 12.4216 7.26926 14.2707 5.91327 16.6601Z" fill="#191F2E"/>
</svg>
