<svg width="20" height="20" viewBox="0 0 20 20" fill="none" xmlns="http://www.w3.org/2000/svg">
<path d="M10 1.5625C8.33122 1.5625 6.69992 2.05735 5.31238 2.98448C3.92484 3.9116 2.84338 5.22936 2.20477 6.77111C1.56616 8.31286 1.39907 10.0094 1.72463 11.6461C2.05019 13.2828 2.85379 14.7862 4.03379 15.9662C5.2138 17.1462 6.71721 17.9498 8.35393 18.2754C9.99064 18.6009 11.6871 18.4338 13.2289 17.7952C14.7706 17.1566 16.0884 16.0752 17.0155 14.6876C17.9427 13.3001 18.4375 11.6688 18.4375 10C18.435 7.763 17.5453 5.61833 15.9635 4.03653C14.3817 2.45473 12.237 1.56498 10 1.5625ZM16.4945 9.0625C16.4164 9.0625 16.332 9.0625 16.2508 9.0625C15.1609 9.06313 14.0751 9.19587 13.0172 9.45781C12.7878 8.82131 12.5104 8.20314 12.1875 7.60859C13.1288 7.01073 13.9922 6.29824 14.7578 5.4875C15.6935 6.47017 16.3005 7.71953 16.4945 9.0625ZM13.2813 4.32031C12.6474 4.97068 11.9395 5.5444 11.1719 6.02969C10.4842 5.10563 9.68132 4.27313 8.78282 3.55234C10.3259 3.25854 11.9231 3.53121 13.2813 4.32031ZM6.68282 4.34141C7.75195 5.03813 8.69945 5.90566 9.4875 6.90938C8.06697 7.50701 6.54113 7.81409 5 7.8125C4.60938 7.8125 4.21875 7.79219 3.83282 7.75391C4.35942 6.32118 5.36629 5.11525 6.68203 4.34141H6.68282ZM3.4375 10C3.4375 9.86484 3.44297 9.73125 3.45078 9.59844C3.96509 9.65741 4.48233 9.68714 5 9.6875C6.90835 9.6891 8.7951 9.28373 10.5344 8.49844C10.8043 8.99224 11.0372 9.50536 11.2313 10.0336C10.6525 10.2658 10.0907 10.5384 9.55 10.8492C7.90114 11.8012 6.47201 13.0908 5.35625 14.6336C4.74749 14.0253 4.26467 13.303 3.93542 12.5079C3.60618 11.7128 3.43698 10.8606 3.4375 10ZM6.85703 15.7594C7.8203 14.4191 9.05756 13.299 10.4867 12.4734C10.8904 12.2416 11.3079 12.0344 11.7367 11.8531C11.8753 12.5741 11.9451 13.3065 11.9453 14.0406C11.9459 14.8103 11.87 15.5781 11.7188 16.3328C10.0852 16.7773 8.34307 16.5717 6.85782 15.7594H6.85703ZM13.7547 15.3773C13.7984 14.9336 13.8219 14.4867 13.8219 14.0383C13.8213 13.1052 13.7239 12.1747 13.5313 11.2617C14.4216 11.047 15.3341 10.9381 16.25 10.9375C16.3281 10.9375 16.4117 10.9375 16.493 10.9375C16.364 11.8253 16.0545 12.6773 15.5835 13.4409C15.1125 14.2045 14.4901 14.8635 13.7547 15.3773Z" fill="#191F2E"/>
</svg>
