<svg width="20" height="20" viewBox="0 0 20 20" fill="none" xmlns="http://www.w3.org/2000/svg">
<path d="M18.6586 11.4164L15.7094 9.37502L18.6586 7.33361C18.7833 7.24736 18.8853 7.13214 18.9557 6.99784C19.0261 6.86354 19.0629 6.71416 19.0629 6.56252C19.0629 6.41087 19.0261 6.26149 18.9557 6.12719C18.8853 5.99289 18.7833 5.87767 18.6586 5.79142L14.5961 2.97892C14.4393 2.8704 14.2532 2.81226 14.0625 2.81226C13.8718 2.81226 13.6857 2.8704 13.5289 2.97892L10 5.42267L6.4711 2.97892C6.31433 2.8704 6.12819 2.81226 5.93751 2.81226C5.74684 2.81226 5.56069 2.8704 5.40392 2.97892L1.34142 5.79142C1.21669 5.87767 1.11475 5.99289 1.04433 6.12719C0.973919 6.26149 0.937134 6.41087 0.937134 6.56252C0.937134 6.71416 0.973919 6.86354 1.04433 6.99784C1.11475 7.13214 1.21669 7.24736 1.34142 7.33361L4.29064 9.37502L1.34142 11.4164C1.21669 11.5027 1.11475 11.6179 1.04433 11.7522C0.973919 11.8865 0.937134 12.0359 0.937134 12.1875C0.937134 12.3392 0.973919 12.4885 1.04433 12.6228C1.11475 12.7571 1.21669 12.8724 1.34142 12.9586L5.40392 15.7711C5.56069 15.8796 5.74684 15.9378 5.93751 15.9378C6.12819 15.9378 6.31433 15.8796 6.4711 15.7711L10 13.3274L13.5289 15.7711C13.6857 15.8796 13.8718 15.9378 14.0625 15.9378C14.2532 15.9378 14.4393 15.8796 14.5961 15.7711L18.6586 12.9586C18.7833 12.8724 18.8853 12.7571 18.9557 12.6228C19.0261 12.4885 19.0629 12.3392 19.0629 12.1875C19.0629 12.0359 19.0261 11.8865 18.9557 11.7522C18.8853 11.6179 18.7833 11.5027 18.6586 11.4164ZM10 11.0477L7.58439 9.37502L10 7.70236L12.4156 9.37502L10 11.0477ZM14.0625 4.89064L16.4781 6.56252L14.0625 8.23439L11.6469 6.56252L14.0625 4.89064ZM5.93751 4.89064L8.35314 6.56252L5.93751 8.23439L3.52189 6.56252L5.93751 4.89064ZM5.93751 13.8594L3.52189 12.1875L5.93751 10.5156L8.35314 12.1875L5.93751 13.8594ZM14.0625 13.8594L11.6469 12.1875L14.0625 10.5156L16.4781 12.1875L14.0625 13.8594ZM12.0883 16.3664C12.2302 16.5705 12.2852 16.8226 12.2412 17.0673C12.1973 17.312 12.058 17.5291 11.8539 17.6711L10.5367 18.5836C10.38 18.6921 10.1938 18.7503 10.0031 18.7503C9.81246 18.7503 9.62632 18.6921 9.46954 18.5836L8.15235 17.6711C8.04754 17.6026 7.9575 17.5138 7.88755 17.41C7.81761 17.3062 7.76917 17.1893 7.74511 17.0665C7.72104 16.9436 7.72183 16.8172 7.74743 16.6946C7.77303 16.572 7.82291 16.4558 7.89415 16.3529C7.96539 16.2499 8.05652 16.1623 8.16219 16.0951C8.26785 16.0279 8.3859 15.9826 8.50937 15.9618C8.63283 15.941 8.75921 15.9451 8.88105 15.974C9.00289 16.0028 9.11772 16.0558 9.21876 16.1297L10 16.6719L10.7813 16.1297C10.8825 16.0592 10.9968 16.0094 11.1173 15.9831C11.2379 15.9569 11.3625 15.9547 11.4839 15.9767C11.6054 15.9986 11.7213 16.0444 11.825 16.1113C11.9287 16.1782 12.0182 16.2649 12.0883 16.3664Z" fill="#191F2E"/>
</svg>
