<svg width="20" height="20" viewBox="0 0 20 20" fill="none" xmlns="http://www.w3.org/2000/svg">
<path d="M18.4805 11.6734L15.1601 9.37499L18.4805 7.07656C18.5636 7.01906 18.6316 6.94224 18.6785 6.85271C18.7255 6.76317 18.75 6.66359 18.75 6.56249C18.75 6.4614 18.7255 6.36181 18.6785 6.27228C18.6316 6.18274 18.5636 6.10593 18.4805 6.04843L14.418 3.23593C14.3135 3.16369 14.1895 3.125 14.0625 3.125C13.9355 3.125 13.8115 3.16369 13.707 3.23593L9.99999 5.80234L6.29296 3.23593C6.18849 3.16369 6.0645 3.125 5.93749 3.125C5.81048 3.125 5.68649 3.16369 5.58202 3.23593L1.51952 6.04843C1.43637 6.10593 1.36841 6.18274 1.32147 6.27228C1.27452 6.36181 1.25 6.4614 1.25 6.56249C1.25 6.66359 1.27452 6.76317 1.32147 6.85271C1.36841 6.94224 1.43637 7.01906 1.51952 7.07656L4.84374 9.37499L1.52343 11.6734C1.44028 11.7309 1.37232 11.8077 1.32537 11.8973C1.27843 11.9868 1.25391 12.0864 1.25391 12.1875C1.25391 12.2886 1.27843 12.3882 1.32537 12.4777C1.37232 12.5672 1.44028 12.6441 1.52343 12.7016L5.58593 15.5141C5.69039 15.5863 5.81439 15.625 5.9414 15.625C6.06841 15.625 6.1924 15.5863 6.29687 15.5141L9.99999 12.9476L13.707 15.5141C13.8115 15.5863 13.9355 15.625 14.0625 15.625C14.1895 15.625 14.3135 15.5863 14.418 15.5141L18.4805 12.7016C18.5636 12.6441 18.6316 12.5672 18.6785 12.4777C18.7255 12.3882 18.75 12.2886 18.75 12.1875C18.75 12.0864 18.7255 11.9868 18.6785 11.8973C18.6316 11.8077 18.5636 11.7309 18.4805 11.6734ZM9.99999 11.4273L7.03515 9.37499L10.0039 7.32265L12.9687 9.37499L9.99999 11.4273ZM14.0625 4.51015L17.0312 6.56249L14.0625 8.61484L11.0976 6.56249L14.0625 4.51015ZM5.93749 4.51015L8.90624 6.56249L5.93749 8.61484L2.97265 6.56249L5.93749 4.51015ZM5.93749 14.2398L2.97265 12.1875L5.9414 10.1351L8.90624 12.1875L5.93749 14.2398ZM14.0625 14.2398L11.0976 12.1875L14.0625 10.1351L17.0312 12.1875L14.0625 14.2398ZM12.3805 16.1648C12.475 16.3009 12.5116 16.4689 12.4823 16.6319C12.453 16.795 12.3602 16.9397 12.2242 17.0344L10.3578 18.3266C10.2533 18.3988 10.1293 18.4375 10.0023 18.4375C9.87533 18.4375 9.75133 18.3988 9.64687 18.3266L7.77812 17.0312C7.64254 16.9367 7.54995 16.7922 7.52063 16.6295C7.4913 16.4668 7.52763 16.2992 7.62165 16.1632C7.71567 16.0272 7.85973 15.934 8.0223 15.904C8.18486 15.874 8.35269 15.9097 8.48905 16.0031L9.99999 17.0523L11.5109 16.0062C11.6473 15.912 11.8155 15.8757 11.9785 15.9055C12.1416 15.9352 12.2862 16.0285 12.3805 16.1648Z" fill="#191F2E"/>
</svg>
