<svg width="20" height="20" viewBox="0 0 20 20" fill="none" xmlns="http://www.w3.org/2000/svg">
<path d="M13.5938 3.73054C12.6287 2.61603 11.5426 1.61245 10.3555 0.73835C10.2504 0.664734 10.1252 0.625244 9.99687 0.625244C9.86857 0.625244 9.74337 0.664734 9.63828 0.73835C8.45332 1.61282 7.36931 2.61639 6.40625 3.73054C4.25859 6.19694 3.125 8.79694 3.125 11.2501C3.125 13.0734 3.84933 14.8221 5.13864 16.1114C6.42795 17.4007 8.17664 18.1251 10 18.1251C11.8234 18.1251 13.572 17.4007 14.8614 16.1114C16.1507 14.8221 16.875 13.0734 16.875 11.2501C16.875 8.79694 15.7414 6.19694 13.5938 3.73054ZM10 16.8751C8.50867 16.8734 7.07889 16.2803 6.02435 15.2257C4.96982 14.1712 4.37665 12.7414 4.375 11.2501C4.375 6.77898 8.70859 3.04694 10 2.03132C11.2914 3.04694 15.625 6.77741 15.625 11.2501C15.6233 12.7414 15.0302 14.1712 13.9756 15.2257C12.9211 16.2803 11.4913 16.8734 10 16.8751ZM14.3664 11.9798C14.2043 12.885 13.7688 13.7188 13.1185 14.3691C12.4681 15.0193 11.6342 15.4546 10.7289 15.6165C10.6945 15.622 10.6598 15.6249 10.625 15.6251C10.4682 15.625 10.3172 15.5661 10.2018 15.4599C10.0865 15.3537 10.0153 15.208 10.0023 15.0518C9.98933 14.8956 10.0355 14.7402 10.1318 14.6164C10.228 14.4926 10.3673 14.4096 10.5219 14.3837C11.8164 14.1657 12.9148 13.0673 13.1344 11.7704C13.1621 11.6069 13.2537 11.4611 13.3889 11.3652C13.5242 11.2692 13.692 11.2309 13.8555 11.2587C14.019 11.2864 14.1647 11.378 14.2607 11.5132C14.3566 11.6485 14.395 11.8163 14.3672 11.9798H14.3664Z" fill="#191F2E"/>
</svg>
