<svg width="20" height="20" viewBox="0 0 20 20" fill="none" xmlns="http://www.w3.org/2000/svg">
<path d="M14.6875 9.37511L9.99999 6.25011L14.3406 3.35949C14.4433 3.29096 14.564 3.25439 14.6875 3.25439C14.811 3.25439 14.9317 3.29096 15.0344 3.35949L18.5937 5.7298C18.6795 5.78685 18.7498 5.8642 18.7984 5.95498C18.847 6.04575 18.8725 6.14713 18.8725 6.25011C18.8725 6.35309 18.847 6.45447 18.7984 6.54525C18.7498 6.63602 18.6795 6.71337 18.5937 6.77043L14.6875 9.37511ZM5.65936 3.35949C5.55666 3.29096 5.43595 3.25439 5.31249 3.25439C5.18902 3.25439 5.06832 3.29096 4.96561 3.35949L1.40624 5.7298C1.32051 5.78685 1.2502 5.8642 1.20158 5.95498C1.15295 6.04575 1.1275 6.14713 1.1275 6.25011C1.1275 6.35309 1.15295 6.45447 1.20158 6.54525C1.2502 6.63602 1.32051 6.71337 1.40624 6.77043L5.31249 9.37511L9.99999 6.25011L5.65936 3.35949ZM18.5937 11.9798L14.6875 9.37511L9.99999 12.5001L14.3406 15.3907C14.4433 15.4593 14.564 15.4958 14.6875 15.4958C14.811 15.4958 14.9317 15.4593 15.0344 15.3907L18.5937 13.0204C18.6795 12.9634 18.7498 12.886 18.7984 12.7952C18.847 12.7045 18.8725 12.6031 18.8725 12.5001C18.8725 12.3971 18.847 12.2958 18.7984 12.205C18.7498 12.1142 18.6795 12.0369 18.5937 11.9798ZM1.40624 11.9798C1.32051 12.0369 1.2502 12.1142 1.20158 12.205C1.15295 12.2958 1.1275 12.3971 1.1275 12.5001C1.1275 12.6031 1.15295 12.7045 1.20158 12.7952C1.2502 12.886 1.32051 12.9634 1.40624 13.0204L4.96561 15.3907C5.06832 15.4593 5.18902 15.4958 5.31249 15.4958C5.43595 15.4958 5.55666 15.4593 5.65936 15.3907L9.99999 12.5001L5.31249 9.37511L1.40624 11.9798ZM13.1726 16.1165L10.175 14.1181C10.1236 14.0838 10.0633 14.0655 10.0015 14.0655C9.93982 14.0655 9.87947 14.0838 9.82811 14.1181L6.82889 16.1165C6.78619 16.1451 6.75119 16.1837 6.72698 16.229C6.70278 16.2743 6.69011 16.3249 6.69011 16.3763C6.69011 16.4277 6.70278 16.4782 6.72698 16.5235C6.75119 16.5689 6.78619 16.6075 6.82889 16.6361L9.65311 18.5157C9.75582 18.5843 9.87652 18.6208 9.99999 18.6208C10.1235 18.6208 10.2442 18.5843 10.3469 18.5157L13.1711 16.6329C13.2131 16.6043 13.2475 16.5657 13.2713 16.5207C13.2951 16.4757 13.3075 16.4256 13.3075 16.3747C13.3075 16.3238 13.2951 16.2737 13.2713 16.2287C13.2475 16.1837 13.2131 16.1452 13.1711 16.1165H13.1726Z" fill="#191F2E"/>
</svg>
