<svg width="20" height="20" viewBox="0 0 20 20" fill="none" xmlns="http://www.w3.org/2000/svg">
<path d="M10.5375 0.48213C10.3799 0.371878 10.1923 0.312744 10 0.312744C9.8077 0.312744 9.62005 0.371878 9.4625 0.48213C8.25448 1.37242 7.14924 2.39433 6.16719 3.529C3.97266 6.04932 2.8125 8.72119 2.8125 11.2501C2.8125 13.1563 3.56975 14.9845 4.91767 16.3324C6.26559 17.6803 8.09376 18.4376 10 18.4376C11.9062 18.4376 13.7344 17.6803 15.0823 16.3324C16.4302 14.9845 17.1875 13.1563 17.1875 11.2501C17.1875 5.20635 10.8094 0.671973 10.5375 0.48213ZM15.1625 12.5001H10.9375V11.2501H15.3125C15.3122 11.6712 15.2619 12.0909 15.1625 12.5001ZM10.9375 9.3751V8.1251H14.6094C14.7879 8.53026 14.9362 8.94807 15.0531 9.3751H10.9375ZM12.4453 4.78838C12.8486 5.25277 13.2238 5.74088 13.5687 6.2501H10.9375V3.23916C11.4691 3.72657 11.9725 4.24381 12.4453 4.78838ZM4.6875 11.2501C4.6875 8.64775 6.25 6.29932 7.55469 4.78838C8.02752 4.24381 8.53094 3.72657 9.0625 3.23916V16.4782C7.83654 16.2569 6.72713 15.6123 5.92764 14.6569C5.12814 13.7015 4.68926 12.4959 4.6875 11.2501ZM10.9375 16.4782V14.3751H14.2922C13.4867 15.4822 12.285 16.2357 10.9375 16.4782Z" fill="#191F2E"/>
</svg>
