<svg width="20" height="20" viewBox="0 0 20 20" fill="none" xmlns="http://www.w3.org/2000/svg">
<path d="M13.5938 3.73054C12.6287 2.61603 11.5426 1.61245 10.3555 0.73835C10.2504 0.664734 10.1252 0.625244 9.99687 0.625244C9.86857 0.625244 9.74337 0.664734 9.63828 0.73835C8.45332 1.61282 7.36931 2.61639 6.40625 3.73054C4.25859 6.19694 3.125 8.79694 3.125 11.2501C3.125 13.0734 3.84933 14.8221 5.13864 16.1114C6.42795 17.4007 8.17664 18.1251 10 18.1251C11.8234 18.1251 13.572 17.4007 14.8614 16.1114C16.1507 14.8221 16.875 13.0734 16.875 11.2501C16.875 8.79694 15.7414 6.19694 13.5938 3.73054ZM14.6742 14.3751H5.32578C5.0663 13.986 4.85634 13.5661 4.70078 13.1251H15.3023C15.1458 13.5662 14.9348 13.9862 14.6742 14.3751ZM15.625 11.2501C15.6249 11.4589 15.6129 11.6676 15.5891 11.8751H4.41094C4.38713 11.6676 4.37513 11.4589 4.375 11.2501C4.375 11.0417 4.38438 10.8334 4.40313 10.6251H15.5969C15.6156 10.8334 15.625 11.0417 15.625 11.2501ZM10 2.03132C11.1062 2.89851 14.4422 5.76101 15.3781 9.37507H4.62188C5.55781 5.76257 8.89375 2.90007 10 2.03132ZM6.46953 15.6251H13.5305C12.5315 16.4338 11.2852 16.875 10 16.875C8.71476 16.875 7.46847 16.4338 6.46953 15.6251Z" fill="#191F2E"/>
</svg>
