<svg width="20" height="20" viewBox="0 0 20 20" fill="none" xmlns="http://www.w3.org/2000/svg">
<path d="M13.5938 3.73054C12.6287 2.61603 11.5426 1.61245 10.3555 0.73835C10.2504 0.664734 10.1252 0.625244 9.99687 0.625244C9.86857 0.625244 9.74337 0.664734 9.63828 0.73835C8.45332 1.61282 7.36931 2.61639 6.40625 3.73054C4.25859 6.19694 3.125 8.79694 3.125 11.2501C3.125 13.0734 3.84933 14.8221 5.13864 16.1114C6.42795 17.4007 8.17664 18.1251 10 18.1251C11.8234 18.1251 13.572 17.4007 14.8614 16.1114C16.1507 14.8221 16.875 13.0734 16.875 11.2501C16.875 8.79694 15.7414 6.19694 13.5938 3.73054ZM4.375 11.2501C4.375 6.77898 8.70859 3.04694 10 2.03132V16.8751C8.50867 16.8734 7.07889 16.2803 6.02435 15.2257C4.96982 14.1712 4.37665 12.7414 4.375 11.2501Z" fill="#191F2E"/>
</svg>
