<svg width="20" height="20" viewBox="0 0 20 20" fill="none" xmlns="http://www.w3.org/2000/svg">
<path d="M10.5375 0.48213C10.3799 0.371878 10.1923 0.312744 10 0.312744C9.8077 0.312744 9.62005 0.371878 9.4625 0.48213C8.25448 1.37242 7.14924 2.39433 6.16719 3.529C3.97266 6.04932 2.8125 8.72119 2.8125 11.2501C2.8125 13.1563 3.56975 14.9845 4.91767 16.3324C6.26559 17.6803 8.09376 18.4376 10 18.4376C11.9062 18.4376 13.7344 17.6803 15.0823 16.3324C16.4302 14.9845 17.1875 13.1563 17.1875 11.2501C17.1875 5.20635 10.8094 0.671973 10.5375 0.48213ZM14.9695 13.1251H5.03047C4.87797 12.7225 4.77563 12.3027 4.72578 11.8751H15.2727C15.2233 12.3026 15.1215 12.7225 14.9695 13.1251ZM7.55469 4.78838C8.29958 3.93274 9.1178 3.1438 10 2.43057C10.8822 3.1438 11.7004 3.93274 12.4453 4.78838C13.5391 6.05322 14.8102 7.90479 15.1953 10.0001H4.80469C5.18984 7.90479 6.46016 6.05322 7.55469 4.78838ZM10 16.5626C9.30128 16.5631 8.60937 16.4252 7.96415 16.1571C7.31894 15.8889 6.73318 15.4957 6.24062 15.0001H13.7594C13.2668 15.4957 12.6811 15.8889 12.0358 16.1571C11.3906 16.4252 10.6987 16.5631 10 16.5626Z" fill="#191F2E"/>
</svg>
