<svg width="20" height="20" viewBox="0 0 20 20" fill="none" xmlns="http://www.w3.org/2000/svg">
<path d="M16.7125 16.4547C16.7688 16.5152 16.8126 16.5863 16.8413 16.6639C16.8699 16.7415 16.8829 16.824 16.8795 16.9066C16.876 16.9892 16.8562 17.0704 16.8212 17.1453C16.7861 17.2202 16.7366 17.2874 16.6754 17.343C16.6142 17.3987 16.5425 17.4416 16.4646 17.4693C16.3867 17.4971 16.304 17.5091 16.2214 17.5046C16.1389 17.5002 16.058 17.4794 15.9835 17.4434C15.909 17.4075 15.8424 17.3572 15.7875 17.2953L14.9844 16.4117C15.3137 16.1556 15.6227 15.8742 15.9086 15.5703L16.7125 16.4547ZM5.0156 3.58825L4.21248 2.70465C4.15759 2.64278 4.09097 2.59242 4.01648 2.55649C3.94199 2.52056 3.8611 2.49977 3.77851 2.49532C3.69593 2.49088 3.61328 2.50287 3.53536 2.53061C3.45744 2.55834 3.3858 2.60126 3.3246 2.65689C3.26339 2.71251 3.21383 2.77973 3.17879 2.85465C3.14376 2.92957 3.12394 3.0107 3.12048 3.09333C3.11703 3.17597 3.13001 3.25846 3.15868 3.33604C3.18735 3.41362 3.23112 3.48474 3.28748 3.54528L4.09139 4.42965C4.37722 4.12569 4.68622 3.84437 5.0156 3.58825ZM15.9086 15.5703L5.0156 3.58825C6.6304 2.33102 8.66036 1.72987 10.6994 1.90507C12.7384 2.08028 14.636 3.01892 16.0126 4.5332C17.3893 6.04748 18.1434 8.02572 18.1241 10.0721C18.1048 12.1186 17.3135 14.0822 15.9086 15.5703ZM12.4219 8.12497C12.3203 7.73147 12.1244 7.36865 11.8511 7.06793C11.5777 6.76722 11.2352 6.53768 10.8531 6.39919C10.7011 6.35592 10.5383 6.37187 10.3976 6.4438C10.2568 6.51574 10.1486 6.63833 10.0946 6.78689C10.0406 6.93544 10.0449 7.09893 10.1067 7.24443C10.1684 7.38994 10.283 7.50665 10.4273 7.57106C10.6174 7.6404 10.7877 7.75482 10.9238 7.9045C11.0599 8.05419 11.1576 8.23467 11.2086 8.43044C11.2432 8.56452 11.3214 8.68331 11.4308 8.76815C11.5403 8.85299 11.6748 8.89908 11.8133 8.89919C11.866 8.89931 11.9185 8.89248 11.9695 8.87887C12.129 8.8381 12.266 8.73606 12.3507 8.5949C12.4353 8.45375 12.4609 8.28488 12.4219 8.12497ZM15 8.74997C15.0002 7.94603 14.8066 7.15388 14.4356 6.44069C14.0645 5.7275 13.527 5.1143 12.8685 4.65308C12.21 4.19186 11.45 3.89622 10.653 3.79123C9.8559 3.68624 9.04528 3.77499 8.28982 4.04997C8.14454 4.11392 8.02903 4.23075 7.96674 4.37676C7.90446 4.52276 7.90006 4.687 7.95444 4.83613C8.00882 4.98526 8.11791 5.10811 8.25957 5.17974C8.40122 5.25138 8.56482 5.26643 8.71717 5.22184C9.28402 5.01548 9.89228 4.94892 10.4903 5.0278C11.0884 5.10668 11.6586 5.32868 12.1526 5.67496C12.6465 6.02124 13.0497 6.48157 13.3278 7.01689C13.6058 7.55221 13.7507 8.14672 13.75 8.74997C13.75 8.91573 13.8158 9.0747 13.933 9.19191C14.0502 9.30912 14.2092 9.37497 14.375 9.37497C14.5407 9.37497 14.6997 9.30912 14.8169 9.19191C14.9341 9.0747 15 8.91573 15 8.74997ZM11.5625 13.125C11.1481 13.125 10.7507 12.9603 10.4576 12.6673C10.1646 12.3743 9.99998 11.9769 9.99998 11.5625C9.999 11.3773 10.0253 11.1931 10.0781 11.0156L8.48045 9.25778C8.37692 9.33265 8.25273 9.37359 8.12498 9.37497C7.95922 9.37497 7.80025 9.30912 7.68304 9.19191C7.56583 9.0747 7.49998 8.91573 7.49998 8.74997C7.49999 8.57776 7.51779 8.40601 7.5531 8.23747L6.59295 7.18122C6.36572 7.67291 6.24866 8.20831 6.24998 8.74997C6.24998 9.67965 6.7742 10.3515 7.32967 11.0625C7.87654 11.7593 8.43748 12.4804 8.43748 13.4375C8.43737 13.7452 8.52814 14.0461 8.69841 14.3025C8.86868 14.5589 9.11086 14.7592 9.39457 14.8785C9.67828 14.9977 9.99088 15.0305 10.2932 14.9728C10.5955 14.915 10.874 14.7693 11.0937 14.5539C11.1515 14.4928 11.221 14.444 11.2981 14.4104C11.3751 14.3768 11.4582 14.3592 11.5423 14.3584C11.6263 14.3577 11.7097 14.3739 11.7873 14.4061C11.865 14.4384 11.9353 14.4859 11.9942 14.546C12.053 14.606 12.0991 14.6773 12.1298 14.7556C12.1604 14.8339 12.1749 14.9176 12.1725 15.0016C12.17 15.0856 12.1507 15.1683 12.1155 15.2447C12.0804 15.321 12.0302 15.3895 11.9679 15.4461C11.5724 15.8335 11.0712 16.0956 10.5273 16.1994C9.98344 16.3032 9.421 16.2442 8.91052 16.0297C8.40004 15.8152 7.96423 15.4548 7.65771 14.9937C7.3512 14.5325 7.18762 13.9912 7.18748 13.4375C7.18748 12.9109 6.79685 12.4109 6.34451 11.832C5.74529 11.0648 4.99998 10.1101 4.99998 8.74997C4.99897 7.85147 5.24199 6.96956 5.7031 6.1984L4.09139 4.42965C2.68643 5.91771 1.89515 7.88137 1.87585 9.92779C1.85655 11.9742 2.61066 13.9525 3.98731 15.4667C5.36396 16.981 7.26161 17.9197 9.3006 18.0949C11.3396 18.2701 13.3696 17.6689 14.9844 16.4117L11.9531 13.0757C11.8255 13.1087 11.6943 13.1252 11.5625 13.125Z" fill="#191F2E"/>
</svg>
