<svg width="20" height="20" viewBox="0 0 20 20" fill="none" xmlns="http://www.w3.org/2000/svg">
<path d="M16.7124 16.4548C16.7688 16.5153 16.8125 16.5864 16.8412 16.664C16.8699 16.7416 16.8829 16.8241 16.8794 16.9067C16.876 16.9893 16.8561 17.0705 16.8211 17.1454C16.7861 17.2203 16.7365 17.2875 16.6753 17.3432C16.6141 17.3988 16.5424 17.4417 16.4645 17.4694C16.3866 17.4972 16.304 17.5092 16.2214 17.5047C16.1388 17.5003 16.0579 17.4795 15.9834 17.4436C15.9089 17.4076 15.8423 17.3573 15.7874 17.2954L13.053 14.2915C12.7725 14.3781 12.4756 14.3976 12.1862 14.3485C11.8968 14.2994 11.623 14.183 11.3868 14.0087C11.1505 13.8345 10.9585 13.6071 10.8262 13.3451C10.6939 13.0831 10.6249 12.7936 10.6249 12.5001C10.6241 12.2368 10.6558 11.9743 10.7194 11.7188L7.49991 8.17664C7.49308 8.3424 7.42067 8.49865 7.29862 8.61103C7.17658 8.7234 7.01489 8.78269 6.84913 8.77586C6.68337 8.76902 6.52712 8.69661 6.41474 8.57457C6.30237 8.45252 6.24308 8.29083 6.24991 8.12507C6.24947 7.74185 6.30796 7.36083 6.42335 6.99539L5.03898 5.46882C4.6006 6.2854 4.37238 7.19827 4.37491 8.12507C4.37491 10.211 5.04132 10.8532 5.74757 11.5344C6.42257 12.1876 7.18741 12.9227 7.18741 14.6876C7.18741 15.4335 7.48373 16.1489 8.01118 16.6763C8.53862 17.2038 9.25399 17.5001 9.99991 17.5001C10.7999 17.5001 11.4413 17.1751 12.0179 16.4774C12.0695 16.4123 12.1336 16.3582 12.2064 16.3182C12.2792 16.2782 12.3593 16.2531 12.4419 16.2444C12.5245 16.2357 12.608 16.2435 12.6876 16.2675C12.7671 16.2914 12.8411 16.331 12.9052 16.3838C12.9693 16.4367 13.0222 16.5018 13.0608 16.5753C13.0994 16.6489 13.123 16.7294 13.1301 16.8122C13.1373 16.8949 13.1279 16.9783 13.1024 17.0574C13.077 17.1364 13.036 17.2097 12.9819 17.2727C12.1726 18.2532 11.1718 18.7501 9.99991 18.7501C8.92285 18.7488 7.89026 18.3204 7.12866 17.5588C6.36706 16.7972 5.93865 15.7646 5.93741 14.6876C5.93741 13.454 5.49366 13.0259 4.8796 12.4344C4.09835 11.6798 3.12491 10.7423 3.12491 8.12507C3.12172 6.8443 3.47939 5.58852 4.15694 4.50164L3.28741 3.54539C3.23106 3.48485 3.18728 3.41373 3.15861 3.33615C3.12995 3.25857 3.11697 3.17607 3.12042 3.09344C3.12387 3.0108 3.14369 2.92968 3.17873 2.85476C3.21376 2.77984 3.26332 2.71262 3.32453 2.65699C3.38574 2.60137 3.45738 2.55845 3.5353 2.53071C3.61321 2.50298 3.69586 2.49099 3.77845 2.49543C3.86104 2.49987 3.94192 2.52066 4.01641 2.5566C4.09091 2.59253 4.15753 2.64289 4.21241 2.70476L16.7124 16.4548ZM7.11632 3.2946C7.97016 2.78481 8.94389 2.51049 9.93829 2.49959C10.9327 2.4887 11.9122 2.74162 12.777 3.23258C13.6418 3.72355 14.361 4.43501 14.8613 5.29445C15.3616 6.1539 15.6251 7.13062 15.6249 8.12507C15.6249 8.29083 15.6908 8.44981 15.808 8.56702C15.9252 8.68423 16.0842 8.75007 16.2499 8.75007C16.4157 8.75007 16.5746 8.68423 16.6919 8.56702C16.8091 8.44981 16.8749 8.29083 16.8749 8.12507C16.8751 6.90949 16.553 5.71559 15.9414 4.66506C15.3298 3.61453 14.4506 2.74495 13.3934 2.14493C12.3363 1.54491 11.1389 1.23592 9.92339 1.24945C8.70788 1.26298 7.51769 1.59855 6.47413 2.22195C6.33189 2.30711 6.2293 2.44529 6.18894 2.60608C6.14857 2.76688 6.17374 2.93713 6.2589 3.07937C6.34406 3.22161 6.48223 3.3242 6.64303 3.36457C6.80383 3.40493 6.97408 3.37976 7.11632 3.2946ZM12.5249 9.93523C12.5979 9.9729 12.6775 9.99582 12.7593 10.0027C12.8411 10.0096 12.9235 10.0003 13.0017 9.97532C13.0799 9.95036 13.1524 9.91024 13.2151 9.85725C13.2778 9.80426 13.3295 9.73944 13.3671 9.66648C13.6192 9.19186 13.7507 8.6625 13.7499 8.12507C13.7501 7.52805 13.6077 6.93961 13.3347 6.4087C13.0616 5.87778 12.6657 5.41974 12.18 5.07266C11.6942 4.72558 11.1326 4.4995 10.5418 4.41323C9.95106 4.32695 9.34825 4.38298 8.78351 4.57664C8.62666 4.6304 8.49759 4.74428 8.4247 4.89321C8.35181 5.04214 8.34107 5.21393 8.39484 5.37078C8.4486 5.52763 8.56248 5.65669 8.71141 5.72958C8.86034 5.80247 9.03213 5.81322 9.18898 5.75945C9.56547 5.63034 9.96735 5.59299 10.3612 5.65051C10.755 5.70803 11.1294 5.85875 11.4533 6.09013C11.7771 6.32152 12.041 6.62688 12.2231 6.98082C12.4051 7.33477 12.5 7.72706 12.4999 8.12507C12.4998 8.46166 12.416 8.79294 12.2562 9.08914C12.2185 9.16208 12.1956 9.24173 12.1887 9.32353C12.1818 9.40534 12.1911 9.48769 12.2161 9.5659C12.241 9.64411 12.2812 9.71664 12.3341 9.77934C12.3871 9.84204 12.452 9.89368 12.5249 9.93132V9.93523Z" fill="#191F2E"/>
</svg>
