<svg width="20" height="20" viewBox="0 0 20 20" fill="none" xmlns="http://www.w3.org/2000/svg">
<path d="M16.9438 16.2444C17.0283 16.3352 17.094 16.4419 17.137 16.5583C17.18 16.6746 17.1994 16.7984 17.1943 16.9223C17.1891 17.0463 17.1594 17.168 17.1068 17.2804C17.0542 17.3927 16.9799 17.4936 16.8881 17.577C16.7963 17.6604 16.6888 17.7248 16.572 17.7664C16.4551 17.808 16.3311 17.826 16.2072 17.8194C16.0833 17.8127 15.962 17.7815 15.8503 17.7276C15.7385 17.6737 15.6386 17.5982 15.5563 17.5054L12.9508 14.6397C12.8026 14.671 12.6515 14.6869 12.5 14.6874C11.9199 14.6874 11.3635 14.4569 10.9532 14.0467C10.543 13.6365 10.3125 13.0801 10.3125 12.4999C10.3124 12.2686 10.3346 12.0378 10.3789 11.8108L7.5844 8.73661C7.45944 8.88124 7.29326 8.98421 7.10813 9.03173C6.923 9.07926 6.72776 9.06906 6.54859 9.00251C6.36942 8.93596 6.21487 8.81623 6.10565 8.65937C5.99644 8.50252 5.93778 8.31603 5.93753 8.12489C5.93716 7.77069 5.98313 7.41796 6.07425 7.07568L5.11878 6.02411C4.83308 6.68758 4.68631 7.40253 4.68753 8.12489C4.68753 10.078 5.27971 10.6483 5.96487 11.3093C6.65003 11.9702 7.50003 12.7897 7.50003 14.6874C7.50003 15.3504 7.76342 15.9863 8.23226 16.4552C8.7011 16.924 9.33699 17.1874 10 17.1874C10.7032 17.1874 11.2649 16.8983 11.7774 16.278C11.9375 16.0925 12.164 15.977 12.4082 15.9564C12.6525 15.9358 12.8951 16.0117 13.0841 16.1678C13.2731 16.3239 13.3934 16.5478 13.4193 16.7915C13.4452 17.0352 13.3746 17.2794 13.2227 17.4718C12.3508 18.5272 11.2664 19.0624 10 19.0624C8.84009 19.0612 7.72801 18.5998 6.90781 17.7796C6.0876 16.9594 5.62627 15.8473 5.62503 14.6874C5.62503 13.5866 5.26331 13.2374 4.66331 12.6561C3.83831 11.864 2.81253 10.8741 2.81253 8.12489C2.80979 6.8666 3.13997 5.62998 3.76956 4.54052L3.05628 3.75927C2.97323 3.66816 2.90893 3.56159 2.86707 3.44564C2.8252 3.32969 2.80659 3.20663 2.81228 3.08348C2.81798 2.96033 2.84787 2.83952 2.90026 2.72792C2.95265 2.61633 3.0265 2.51615 3.1176 2.4331C3.20871 2.35005 3.31528 2.28575 3.43123 2.24389C3.54718 2.20202 3.67025 2.18341 3.79339 2.1891C3.91654 2.1948 4.03736 2.22469 4.14895 2.27708C4.26054 2.32947 4.36073 2.40332 4.44378 2.49442L16.9438 16.2444ZM7.76096 3.30536C8.46204 2.97855 9.22652 2.81024 10 2.81239C11.4085 2.81384 12.759 3.37401 13.7549 4.36999C14.7509 5.36596 15.3111 6.71638 15.3125 8.12489C15.3125 8.37353 15.4113 8.61199 15.5871 8.78781C15.7629 8.96362 16.0014 9.06239 16.25 9.06239C16.4987 9.06239 16.7371 8.96362 16.9129 8.78781C17.0888 8.61199 17.1875 8.37353 17.1875 8.12489C17.1878 6.91691 16.8835 5.72835 16.3029 4.66904C15.7223 3.60973 14.8841 2.71383 13.8657 2.06413C12.8474 1.41443 11.6816 1.03188 10.4763 0.951835C9.27098 0.871787 8.06492 1.09682 6.96956 1.60614C6.75014 1.71471 6.58189 1.9048 6.50077 2.13578C6.41965 2.36676 6.43211 2.62031 6.53547 2.84223C6.63882 3.06415 6.82489 3.23684 7.05389 3.32338C7.2829 3.40992 7.53667 3.40346 7.76096 3.30536ZM12.8461 9.63349C12.9157 9.65023 12.987 9.65862 13.0586 9.65849C13.2703 9.65831 13.4757 9.58649 13.6414 9.4547C13.8071 9.32292 13.9233 9.13894 13.9711 8.93271C14.0325 8.66784 14.0632 8.39678 14.0625 8.12489C14.0613 7.04783 13.6329 6.01524 12.8713 5.25364C12.1097 4.49204 11.0771 4.06363 10 4.06239C9.86721 4.06239 9.73284 4.06864 9.60081 4.08192C9.35331 4.10606 9.12553 4.22753 8.96759 4.41961C8.80965 4.61169 8.73448 4.85864 8.75862 5.10614C8.78276 5.35364 8.90423 5.58142 9.09631 5.73936C9.28839 5.8973 9.53534 5.97247 9.78284 5.94833C9.85471 5.9413 9.92815 5.93739 10 5.93739C10.5802 5.93739 11.1366 6.16786 11.5468 6.5781C11.9571 6.98833 12.1875 7.54473 12.1875 8.12489C12.188 8.25317 12.1738 8.38107 12.1453 8.50614C12.0892 8.74825 12.1314 9.00276 12.2628 9.21372C12.3942 9.42467 12.604 9.57482 12.8461 9.63114V9.63349Z" fill="#191F2E"/>
</svg>
