<svg width="20" height="20" viewBox="0 0 20 20" fill="none" xmlns="http://www.w3.org/2000/svg">
<path d="M16.875 8.125C16.875 8.29076 16.8092 8.44973 16.6919 8.56694C16.5747 8.68415 16.4158 8.75 16.25 8.75C16.0842 8.75 15.9253 8.68415 15.8081 8.56694C15.6908 8.44973 15.625 8.29076 15.625 8.125C15.625 6.63316 15.0324 5.20242 13.9775 4.14752C12.9226 3.09263 11.4918 2.5 10 2.5C8.50816 2.5 7.07742 3.09263 6.02252 4.14752C4.96763 5.20242 4.375 6.63316 4.375 8.125C4.375 10.2109 5.04141 10.8531 5.74766 11.5344C6.42266 12.1875 7.1875 12.9227 7.1875 14.6875C7.1875 15.4334 7.48382 16.1488 8.01126 16.6762C8.53871 17.2037 9.25408 17.5 10 17.5C10.8 17.5 11.4414 17.175 12.018 16.4773C12.0696 16.4123 12.1337 16.3581 12.2065 16.3181C12.2793 16.2781 12.3594 16.253 12.442 16.2443C12.5246 16.2356 12.6081 16.2434 12.6877 16.2674C12.7672 16.2913 12.8412 16.3309 12.9053 16.3837C12.9693 16.4366 13.0222 16.5017 13.0609 16.5753C13.0995 16.6488 13.1231 16.7293 13.1302 16.8121C13.1374 16.8949 13.1279 16.9782 13.1025 17.0573C13.0771 17.1364 13.0361 17.2096 12.982 17.2727C12.1727 18.2531 11.1719 18.75 10 18.75C8.92294 18.7488 7.89035 18.3203 7.12875 17.5588C6.36715 16.7972 5.93874 15.7646 5.9375 14.6875C5.9375 13.4539 5.49375 13.0258 4.87969 12.4344C4.09844 11.6797 3.125 10.7422 3.125 8.125C3.125 6.30164 3.84933 4.55295 5.13864 3.26364C6.42795 1.97433 8.17664 1.25 10 1.25C11.8234 1.25 13.572 1.97433 14.8614 3.26364C16.1507 4.55295 16.875 6.30164 16.875 8.125ZM13.8961 12.5844C13.825 12.5432 13.7465 12.5164 13.6651 12.5055C13.5836 12.4947 13.5008 12.5 13.4214 12.5212C13.3421 12.5424 13.2676 12.579 13.2024 12.629C13.1372 12.679 13.0825 12.7414 13.0414 12.8125C12.9726 12.9317 12.8665 13.0249 12.7393 13.0776C12.6122 13.1303 12.4712 13.1396 12.3383 13.104C12.2053 13.0683 12.0878 12.9898 12.0041 12.8806C11.9203 12.7714 11.8749 12.6376 11.875 12.5C11.875 11.7711 12.2516 11.2688 12.6875 10.6875C13.1852 10.0234 13.75 9.27109 13.75 8.125C13.75 7.13044 13.3549 6.17661 12.6517 5.47335C11.9484 4.77009 10.9946 4.375 10 4.375C9.00544 4.375 8.05161 4.77009 7.34835 5.47335C6.64509 6.17661 6.25 7.13044 6.25 8.125C6.25 8.29076 6.31585 8.44973 6.43306 8.56694C6.55027 8.68415 6.70924 8.75 6.875 8.75C7.04076 8.75 7.19973 8.68415 7.31694 8.56694C7.43415 8.44973 7.5 8.29076 7.5 8.125C7.5 7.46196 7.76339 6.82607 8.23223 6.35723C8.70107 5.88839 9.33696 5.625 10 5.625C10.663 5.625 11.2989 5.88839 11.7678 6.35723C12.2366 6.82607 12.5 7.46196 12.5 8.125C12.5 8.85391 12.1234 9.35625 11.6875 9.9375C11.1898 10.6016 10.625 11.3539 10.625 12.5C10.6251 12.9126 10.7614 13.3137 11.0126 13.641C11.2639 13.9684 11.6161 14.2037 12.0147 14.3105C12.4132 14.4173 12.8359 14.3896 13.2172 14.2318C13.5984 14.074 13.917 13.7948 14.1234 13.4375C14.2062 13.2942 14.2288 13.1239 14.1862 12.9639C14.1436 12.804 14.0392 12.6675 13.8961 12.5844Z" fill="#191F2E"/>
</svg>
