<svg width="20" height="20" viewBox="0 0 20 20" fill="none" xmlns="http://www.w3.org/2000/svg">
<path d="M17.1875 8.125C17.1875 8.37364 17.0887 8.6121 16.9129 8.78791C16.7371 8.96373 16.4986 9.0625 16.25 9.0625C16.0014 9.0625 15.7629 8.96373 15.5871 8.78791C15.4113 8.6121 15.3125 8.37364 15.3125 8.125C15.3125 6.71604 14.7528 5.36478 13.7565 4.3685C12.7602 3.37221 11.409 2.8125 10 2.8125C8.59104 2.8125 7.23978 3.37221 6.2435 4.3685C5.24721 5.36478 4.6875 6.71604 4.6875 8.125C4.6875 10.0781 5.27969 10.6484 5.96484 11.3094C6.65 11.9703 7.5 12.7898 7.5 14.6875C7.5 15.3505 7.76339 15.9864 8.23223 16.4553C8.70107 16.9241 9.33696 17.1875 10 17.1875C10.7031 17.1875 11.2648 16.8984 11.7773 16.2781C11.9375 16.0926 12.164 15.9771 12.4082 15.9565C12.6525 15.9359 12.8951 16.0118 13.0841 16.1679C13.273 16.324 13.3934 16.5479 13.4193 16.7916C13.4452 17.0353 13.3746 17.2795 13.2227 17.4719C12.3508 18.5273 11.2664 19.0625 10 19.0625C8.84006 19.0613 7.72798 18.5999 6.90778 17.7797C6.08758 16.9595 5.62624 15.8474 5.625 14.6875C5.625 13.5867 5.26328 13.2375 4.66328 12.6562C3.83828 11.8641 2.8125 10.8742 2.8125 8.125C2.8125 6.21876 3.56975 4.39059 4.91767 3.04267C6.26559 1.69475 8.09376 0.9375 10 0.9375C11.9062 0.9375 13.7344 1.69475 15.0823 3.04267C16.4302 4.39059 17.1875 6.21876 17.1875 8.125ZM14.0523 12.3133C13.9458 12.2516 13.8281 12.2115 13.706 12.1953C13.5839 12.1791 13.4598 12.1871 13.3408 12.2189C13.2218 12.2507 13.1103 12.3056 13.0125 12.3805C12.9148 12.4554 12.8327 12.5489 12.7711 12.6555C12.7368 12.7153 12.6837 12.7621 12.62 12.7885C12.5564 12.815 12.4858 12.8197 12.4192 12.8019C12.3526 12.7841 12.2938 12.7447 12.2519 12.69C12.2099 12.6352 12.1873 12.5682 12.1875 12.4992C12.1875 11.9047 12.4727 11.4945 12.9375 10.8742C13.4375 10.207 14.0625 9.375 14.0625 8.125C14.0625 7.04756 13.6345 6.01425 12.8726 5.25238C12.1108 4.49051 11.0774 4.0625 10 4.0625C8.92256 4.0625 7.88925 4.49051 7.12738 5.25238C6.36551 6.01425 5.9375 7.04756 5.9375 8.125C5.9375 8.37364 6.03627 8.6121 6.21209 8.78791C6.3879 8.96373 6.62636 9.0625 6.875 9.0625C7.12364 9.0625 7.3621 8.96373 7.53791 8.78791C7.71373 8.6121 7.8125 8.37364 7.8125 8.125C7.8125 7.54484 8.04297 6.98844 8.4532 6.5782C8.86344 6.16797 9.41984 5.9375 10 5.9375C10.5802 5.9375 11.1366 6.16797 11.5468 6.5782C11.957 6.98844 12.1875 7.54484 12.1875 8.125C12.1875 8.71953 11.9023 9.12969 11.4375 9.75C10.9375 10.418 10.3125 11.25 10.3125 12.5C10.3125 12.9816 10.4713 13.4497 10.7645 13.8318C11.0576 14.2138 11.4687 14.4885 11.9338 14.6131C12.399 14.7378 12.8923 14.7054 13.3372 14.5211C13.7821 14.3368 14.1538 14.0108 14.3945 13.5938C14.5189 13.3786 14.5527 13.1228 14.4885 12.8827C14.4243 12.6426 14.2675 12.4378 14.0523 12.3133Z" fill="#191F2E"/>
</svg>
