<svg width="20" height="20" viewBox="0 0 20 20" fill="none" xmlns="http://www.w3.org/2000/svg">
<path d="M10 1.875C8.39303 1.875 6.82214 2.35152 5.486 3.24431C4.14985 4.1371 3.10844 5.40605 2.49348 6.8907C1.87852 8.37535 1.71762 10.009 2.03112 11.5851C2.34463 13.1612 3.11846 14.6089 4.25476 15.7452C5.39106 16.8815 6.8388 17.6554 8.4149 17.9689C9.99099 18.2824 11.6247 18.1215 13.1093 17.5065C14.594 16.8916 15.8629 15.8502 16.7557 14.514C17.6485 13.1779 18.125 11.607 18.125 10C18.1227 7.84581 17.266 5.78051 15.7427 4.25727C14.2195 2.73403 12.1542 1.87727 10 1.875ZM11.5625 11.875C11.5978 11.8749 11.6329 11.8691 11.6664 11.8578C11.8218 11.8058 11.9914 11.8169 12.1387 11.8888C12.286 11.9606 12.3992 12.0874 12.4539 12.2419C12.5086 12.3964 12.5004 12.5661 12.4312 12.7147C12.3619 12.8632 12.2371 12.9785 12.0836 13.0359C11.8479 13.1193 11.5956 13.1449 11.3479 13.1106C11.1003 13.0763 10.8645 12.983 10.6603 12.8386C10.4562 12.6943 10.2897 12.503 10.1748 12.281C10.0599 12.0589 9.99994 11.8125 10 11.5625C10 10.8711 10.3727 10.3727 10.7031 9.93203C10.9977 9.54141 11.25 9.19922 11.25 8.75C11.25 8.41848 11.1183 8.10054 10.8839 7.86612C10.6495 7.6317 10.3315 7.5 10 7.5C9.66848 7.5 9.35054 7.6317 9.11612 7.86612C8.8817 8.10054 8.75 8.41848 8.75 8.75C8.75 8.91576 8.68416 9.07473 8.56695 9.19194C8.44974 9.30915 8.29076 9.375 8.125 9.375C7.95924 9.375 7.80027 9.30915 7.68306 9.19194C7.56585 9.07473 7.5 8.91576 7.5 8.75C7.5 8.08696 7.7634 7.45107 8.23224 6.98223C8.70108 6.51339 9.33696 6.25 10 6.25C10.663 6.25 11.2989 6.51339 11.7678 6.98223C12.2366 7.45107 12.5 8.08696 12.5 8.75C12.5 9.61484 12.0578 10.2055 11.7031 10.6805C11.4219 11.0563 11.25 11.3 11.25 11.5625C11.25 11.6454 11.2829 11.7249 11.3415 11.7835C11.4001 11.8421 11.4796 11.875 11.5625 11.875ZM14.375 9.375C14.2092 9.375 14.0503 9.30915 13.9331 9.19194C13.8159 9.07473 13.75 8.91576 13.75 8.75C13.75 7.75544 13.3549 6.80161 12.6517 6.09835C11.9484 5.39509 10.9946 5 10 5C9.00544 5 8.05161 5.39509 7.34835 6.09835C6.64509 6.80161 6.25 7.75544 6.25 8.75C6.25 9.67969 6.77422 10.3516 7.32969 11.0625C7.87657 11.7594 8.4375 12.4805 8.4375 13.4375C8.43739 13.7452 8.52817 14.0462 8.69843 14.3025C8.8687 14.5589 9.11088 14.7593 9.39459 14.8785C9.6783 14.9977 9.99091 15.0306 10.2932 14.9728C10.5955 14.9151 10.874 14.7693 11.0938 14.5539C11.1515 14.4928 11.221 14.444 11.2981 14.4105C11.3752 14.3769 11.4582 14.3592 11.5423 14.3584C11.6264 14.3577 11.7097 14.3739 11.7874 14.4062C11.865 14.4384 11.9354 14.486 11.9942 14.546C12.053 14.6061 12.0991 14.6774 12.1298 14.7556C12.1604 14.8339 12.175 14.9176 12.1725 15.0016C12.1701 15.0857 12.1507 15.1683 12.1155 15.2447C12.0804 15.3211 12.0302 15.3896 11.968 15.4461C11.5724 15.8335 11.0712 16.0956 10.5274 16.1994C9.98346 16.3032 9.42103 16.2442 8.91054 16.0297C8.40006 15.8152 7.96425 15.4548 7.65773 14.9937C7.35122 14.5326 7.18764 13.9912 7.1875 13.4375C7.1875 12.9109 6.79688 12.4109 6.34453 11.832C5.74532 11.0648 5 10.1102 5 8.75C5 7.42392 5.52679 6.15215 6.46447 5.21447C7.40215 4.27678 8.67392 3.75 10 3.75C11.3261 3.75 12.5979 4.27678 13.5355 5.21447C14.4732 6.15215 15 7.42392 15 8.75C15 8.91576 14.9342 9.07473 14.8169 9.19194C14.6997 9.30915 14.5408 9.375 14.375 9.375Z" fill="#191F2E"/>
</svg>
