<svg width="20" height="20" viewBox="0 0 20 20" fill="none" xmlns="http://www.w3.org/2000/svg">
<path d="M16.875 11.875C16.8727 13.695 16.1498 15.44 14.8644 16.7283C13.5789 18.0167 11.8356 18.7436 10.0156 18.75C6.05781 18.7594 2.96796 15.3906 3.13125 11.4359C3.22578 9.15391 4.04609 6.70625 5.41484 4.65313C6.83593 2.52266 8.54921 1.25 10 1.25C11.0352 1.25 12.2055 1.9 13.3078 3.04688C13.3624 3.10377 13.3934 3.17918 13.3947 3.258C13.396 3.33681 13.3675 3.41321 13.3148 3.47187L9.53125 7.70859C9.45956 7.78872 9.40975 7.88598 9.38664 7.99098C9.36352 8.09598 9.36789 8.20517 9.39931 8.30799C9.43073 8.4108 9.48814 8.50378 9.56599 8.57793C9.64385 8.65207 9.73952 8.70488 9.84375 8.73125L11.7664 9.21172L11.2578 11.7523C11.2254 11.9149 11.2589 12.0837 11.3509 12.2215C11.4429 12.3594 11.5859 12.4551 11.7484 12.4875C11.7901 12.4961 11.8325 12.5003 11.875 12.5C12.0193 12.4997 12.159 12.4496 12.2705 12.358C12.382 12.2664 12.4584 12.1391 12.4867 11.9977L13.1117 8.87266C13.1432 8.71521 13.1129 8.55167 13.0271 8.41596C12.9413 8.28025 12.8065 8.18278 12.6508 8.14375L11.1539 7.76953L14.0359 4.54062C14.0675 4.50521 14.1068 4.47745 14.1507 4.45947C14.1946 4.44148 14.2421 4.43374 14.2894 4.43683C14.3368 4.43991 14.3828 4.45375 14.4241 4.47728C14.4653 4.50082 14.5006 4.53344 14.5273 4.57266C14.5461 4.59922 14.5641 4.62578 14.582 4.65078C16.0391 6.83906 16.875 9.47109 16.875 11.875Z" fill="#191F2E"/>
</svg>
