<svg width="20" height="20" viewBox="0 0 20 20" fill="none" xmlns="http://www.w3.org/2000/svg">
<path d="M14.8438 4.47969C13.3641 2.26562 11.5531 0.9375 10 0.9375C8.44688 0.9375 6.63594 2.26562 5.15625 4.47969C3.66719 6.71875 2.8125 9.41094 2.8125 11.875C2.8125 13.7812 3.56975 15.6094 4.91767 16.9573C6.26559 18.3052 8.09376 19.0625 10 19.0625C11.9062 19.0625 13.7344 18.3052 15.0823 16.9573C16.4302 15.6094 17.1875 13.7812 17.1875 11.875C17.1875 9.41094 16.3328 6.71875 14.8438 4.47969ZM10 17.1875C8.59148 17.1861 7.24107 16.6259 6.24509 15.6299C5.24912 14.6339 4.68895 13.2835 4.6875 11.875C4.6875 7.1 8.29609 2.8125 10 2.8125C10.593 2.8125 11.4164 3.33203 12.2375 4.20938L9.30078 7.5C9.19334 7.62019 9.11871 7.76605 9.0841 7.9235C9.04949 8.08095 9.05606 8.24466 9.10318 8.39883C9.1503 8.553 9.23638 8.69241 9.35311 8.8036C9.46983 8.9148 9.61326 8.99401 9.76953 9.03359L11.4023 9.44219L10.9523 11.6906C10.9282 11.8114 10.9281 11.9357 10.952 12.0565C10.976 12.1773 11.0234 12.2922 11.0918 12.3946C11.1601 12.4971 11.248 12.5851 11.3503 12.6535C11.4527 12.722 11.5675 12.7697 11.6883 12.7937C11.7497 12.8063 11.8123 12.8126 11.875 12.8125C12.0917 12.8124 12.3016 12.7372 12.4691 12.5997C12.6366 12.4623 12.7513 12.2711 12.7937 12.0586L13.4187 8.93359C13.4661 8.69726 13.4206 8.45177 13.2917 8.24809C13.1628 8.04442 12.9604 7.89822 12.7266 7.83984L11.7313 7.59063L13.4031 5.71563C14.4688 7.37031 15.3125 9.56563 15.3125 11.875C15.3111 13.2835 14.7509 14.6339 13.7549 15.6299C12.7589 16.6259 11.4085 17.1861 10 17.1875Z" fill="#191F2E"/>
</svg>
