<svg width="20" height="20" viewBox="0 0 20 20" fill="none" xmlns="http://www.w3.org/2000/svg">
<path d="M14.5828 4.65313C13.1617 2.52266 11.4484 1.25 10 1.25C8.55156 1.25 6.83828 2.52266 5.41719 4.65313C3.96094 6.83906 3.125 9.47109 3.125 11.875C3.125 13.6984 3.84933 15.447 5.13864 16.7364C6.42795 18.0257 8.17664 18.75 10 18.75C11.8234 18.75 13.572 18.0257 14.8614 16.7364C16.1507 15.447 16.875 13.6984 16.875 11.875C16.875 9.47109 16.0391 6.83906 14.5828 4.65313ZM10 17.5C8.50867 17.4983 7.07889 16.9052 6.02435 15.8506C4.96982 14.7961 4.37665 13.3663 4.375 11.875C4.375 9.71172 5.13438 7.33203 6.45781 5.34688C7.59297 3.64375 9.01641 2.5 10 2.5C10.9836 2.5 12.407 3.64375 13.5422 5.34688C14.8656 7.33203 15.625 9.71172 15.625 11.875C15.6233 13.3663 15.0302 14.7961 13.9756 15.8506C12.9211 16.9052 11.4913 17.4983 10 17.5Z" fill="#191F2E"/>
</svg>
