<svg width="20" height="20" viewBox="0 0 20 20" fill="none" xmlns="http://www.w3.org/2000/svg">
<path d="M14.8438 4.47969C13.3641 2.26562 11.5531 0.9375 10 0.9375C8.44688 0.9375 6.63594 2.26562 5.15625 4.47969C3.66719 6.71875 2.8125 9.41094 2.8125 11.875C2.8125 13.7812 3.56975 15.6094 4.91767 16.9573C6.26559 18.3052 8.09376 19.0625 10 19.0625C11.9062 19.0625 13.7344 18.3052 15.0823 16.9573C16.4302 15.6094 17.1875 13.7812 17.1875 11.875C17.1875 9.41094 16.3328 6.71875 14.8438 4.47969ZM10 17.1875C8.59148 17.1861 7.24107 16.6259 6.24509 15.6299C5.24912 14.6339 4.68895 13.2835 4.6875 11.875C4.6875 7.1 8.29609 2.8125 10 2.8125C11.7039 2.8125 15.3125 7.1 15.3125 11.875C15.3111 13.2835 14.7509 14.6339 13.7549 15.6299C12.7589 16.6259 11.4085 17.1861 10 17.1875Z" fill="#191F2E"/>
</svg>
