<svg width="20" height="20" viewBox="0 0 20 20" fill="none" xmlns="http://www.w3.org/2000/svg">
<path d="M16.25 12.5001H3.75C3.41848 12.5001 3.10054 12.6318 2.86612 12.8662C2.6317 13.1006 2.5 13.4186 2.5 13.7501V15.6251C2.5 15.9566 2.6317 16.2746 2.86612 16.509C3.10054 16.7434 3.41848 16.8751 3.75 16.8751H16.25C16.5815 16.8751 16.8995 16.7434 17.1339 16.509C17.3683 16.2746 17.5 15.9566 17.5 15.6251V13.7501C17.5 13.4186 17.3683 13.1006 17.1339 12.8662C16.8995 12.6318 16.5815 12.5001 16.25 12.5001ZM16.25 15.6251H3.75V13.7501H16.25V15.6251ZM3.76875 11.2501H16.2312C16.479 11.2513 16.7216 11.1797 16.929 11.0441C17.1364 10.9085 17.2994 10.715 17.3977 10.4876C17.4948 10.2658 17.5236 10.0202 17.4805 9.78192C17.4374 9.54369 17.3242 9.32372 17.1555 9.1501L11.3953 3.09463C11.2148 2.90663 10.9981 2.75704 10.7584 2.65486C10.5186 2.55267 10.2606 2.5 10 2.5C9.73936 2.5 9.48141 2.55267 9.24163 2.65486C9.00186 2.75704 8.78521 2.90663 8.60469 3.09463L2.84453 9.1501C2.6758 9.32372 2.56264 9.54369 2.51951 9.78192C2.47637 10.0202 2.50521 10.2658 2.60234 10.4876C2.70065 10.715 2.86361 10.9085 3.07099 11.0441C3.27836 11.1797 3.521 11.2513 3.76875 11.2501ZM9.51016 3.95635C9.57396 3.89111 9.65016 3.83927 9.73428 3.80387C9.8184 3.76848 9.90874 3.75025 10 3.75025C10.0913 3.75025 10.1816 3.76848 10.2657 3.80387C10.3498 3.83927 10.426 3.89111 10.4898 3.95635L16.2383 10.0001H3.76094L9.51016 3.95635Z" fill="#191F2E"/>
</svg>
