<svg width="20" height="20" viewBox="0 0 20 20" fill="none" xmlns="http://www.w3.org/2000/svg">
<path d="M16.25 12.5H3.75C3.3356 12.5 2.93817 12.6646 2.64515 12.9576C2.35212 13.2506 2.1875 13.6481 2.1875 14.0625V15.625C2.1875 16.0394 2.35212 16.4368 2.64515 16.7298C2.93817 17.0229 3.3356 17.1875 3.75 17.1875H16.25C16.6644 17.1875 17.0618 17.0229 17.3549 16.7298C17.6479 16.4368 17.8125 16.0394 17.8125 15.625V14.0625C17.8125 13.6481 17.6479 13.2506 17.3549 12.9576C17.0618 12.6646 16.6644 12.5 16.25 12.5ZM15.9375 15.3125H4.0625V14.375H15.9375V15.3125ZM3.77109 11.25H16.2289C16.5392 11.2497 16.8425 11.1582 17.1012 10.987C17.36 10.8158 17.5627 10.5724 17.6843 10.287C17.8059 10.0015 17.8409 9.68666 17.7851 9.38147C17.7293 9.07628 17.5851 8.79421 17.3703 8.57029L11.6078 2.56092C11.3999 2.34407 11.1503 2.17152 10.874 2.05364C10.5977 1.93577 10.3004 1.875 10 1.875C9.6996 1.875 9.4023 1.93577 9.12599 2.05364C8.84969 2.17152 8.60008 2.34407 8.39219 2.56092L2.62969 8.57029C2.41494 8.79421 2.27071 9.07628 2.21489 9.38147C2.15907 9.68666 2.19413 10.0015 2.31571 10.287C2.43729 10.5724 2.64004 10.8158 2.89878 10.987C3.15751 11.1582 3.46084 11.2497 3.77109 11.25ZM9.74609 3.85857C9.77885 3.82421 9.81825 3.79685 9.86189 3.77815C9.90554 3.75946 9.95252 3.74982 10 3.74982C10.0475 3.74982 10.0945 3.75946 10.1381 3.77815C10.1818 3.79685 10.2211 3.82421 10.2539 3.85857L15.5469 9.37498H4.45312L9.74609 3.85857Z" fill="#191F2E"/>
</svg>
