<svg width="20" height="20" viewBox="0 0 20 20" fill="none" xmlns="http://www.w3.org/2000/svg">
<path d="M18.4375 16.25C18.4375 16.4987 18.3387 16.7371 18.1629 16.913C17.9871 17.0888 17.7486 17.1875 17.5 17.1875H2.5C2.25136 17.1875 2.0129 17.0888 1.83709 16.913C1.66127 16.7371 1.5625 16.4987 1.5625 16.25C1.5625 16.0014 1.66127 15.763 1.83709 15.5871C2.0129 15.4113 2.25136 15.3125 2.5 15.3125H17.5C17.7486 15.3125 17.9871 15.4113 18.1629 15.5871C18.3387 15.763 18.4375 16.0014 18.4375 16.25ZM1.71875 12.5446C1.58984 12.2769 1.53989 11.9781 1.57476 11.6831C1.60963 11.3881 1.72787 11.1092 1.91563 10.879L8.29375 3.00239C8.49939 2.74793 8.75934 2.54268 9.05457 2.40168C9.3498 2.26068 9.67283 2.1875 10 2.1875C10.3272 2.1875 10.6502 2.26068 10.9454 2.40168C11.2407 2.54268 11.5006 2.74793 11.7062 3.00239L18.0852 10.879C18.2717 11.1092 18.3892 11.3876 18.4242 11.6818C18.4592 11.9761 18.4102 12.2742 18.2829 12.5418C18.1556 12.8094 17.9552 13.0355 17.7048 13.194C17.4544 13.3525 17.1643 13.437 16.868 13.4375H3.13203C2.83587 13.4388 2.54552 13.3554 2.29515 13.1972C2.04478 13.039 1.8448 12.8126 1.71875 12.5446ZM3.77344 11.5625H16.2266L10.25 4.18208C10.2199 4.14474 10.1818 4.11462 10.1386 4.09392C10.0953 4.07323 10.048 4.06248 10 4.06248C9.95204 4.06248 9.90469 4.07323 9.86143 4.09392C9.81817 4.11462 9.7801 4.14474 9.75 4.18208L3.77344 11.5625Z" fill="#191F2E"/>
</svg>
