<svg width="20" height="20" viewBox="0 0 20 20" fill="none" xmlns="http://www.w3.org/2000/svg">
<path d="M18.1249 16.2501C18.1249 16.4158 18.0591 16.5748 17.9419 16.692C17.8247 16.8092 17.6657 16.8751 17.4999 16.8751H2.49992C2.33416 16.8751 2.17519 16.8092 2.05798 16.692C1.94077 16.5748 1.87492 16.4158 1.87492 16.2501C1.87492 16.0843 1.94077 15.9253 2.05798 15.8081C2.17519 15.6909 2.33416 15.6251 2.49992 15.6251H17.4999C17.6657 15.6251 17.8247 15.6909 17.9419 15.8081C18.0591 15.9253 18.1249 16.0843 18.1249 16.2501ZM1.99914 12.4094C1.89562 12.1953 1.85533 11.9561 1.883 11.7199C1.91068 11.4837 2.00518 11.2602 2.15539 11.0758L8.53586 3.1985C8.71244 2.98035 8.93554 2.80442 9.18885 2.68357C9.44215 2.56272 9.71926 2.5 9.99992 2.5C10.2806 2.5 10.5577 2.56272 10.811 2.68357C11.0643 2.80442 11.2874 2.98035 11.464 3.1985L17.8429 11.0758C17.9922 11.2603 18.0863 11.4832 18.1143 11.7189C18.1423 11.9546 18.103 12.1934 18.0011 12.4077C17.8991 12.622 17.7386 12.803 17.5381 12.93C17.3376 13.0569 17.1052 13.1246 16.8679 13.1251H3.13195C2.89468 13.1256 2.66216 13.0586 2.46156 12.9319C2.26096 12.8051 2.10058 12.6239 1.99914 12.4094ZM3.12492 11.868C3.12492 11.868 3.12492 11.8751 3.13117 11.8766H16.8679C16.8679 11.8766 16.8741 11.8696 16.8741 11.8665L10.4921 3.98444C10.4328 3.91103 10.3578 3.85183 10.2726 3.81116C10.1875 3.77048 10.0943 3.74937 9.99992 3.74937C9.90555 3.74937 9.81237 3.77048 9.7272 3.81116C9.64204 3.85183 9.56705 3.91103 9.50774 3.98444L3.12492 11.8626C3.12469 11.8644 3.12469 11.8662 3.12492 11.868Z" fill="#191F2E"/>
</svg>
