<svg width="20" height="20" viewBox="0 0 20 20" fill="none" xmlns="http://www.w3.org/2000/svg">
<path d="M16.25 2.1875H3.75C3.3356 2.1875 2.93817 2.35212 2.64515 2.64515C2.35212 2.93817 2.1875 3.3356 2.1875 3.75V16.25C2.1875 16.6644 2.35212 17.0618 2.64515 17.3549C2.93817 17.6479 3.3356 17.8125 3.75 17.8125H16.25C16.6644 17.8125 17.0618 17.6479 17.3549 17.3549C17.6479 17.0618 17.8125 16.6644 17.8125 16.25V3.75C17.8125 3.3356 17.6479 2.93817 17.3549 2.64515C17.0618 2.35212 16.6644 2.1875 16.25 2.1875ZM13.125 10V15.9375H10.9375V10H13.125ZM9.0625 15.9375H6.875V10H9.0625V15.9375ZM15.9375 15.9375H15V9.0625C15 8.81386 14.9012 8.5754 14.7254 8.39959C14.5496 8.22377 14.3111 8.125 14.0625 8.125H5.9375C5.68886 8.125 5.4504 8.22377 5.27459 8.39959C5.09877 8.5754 5 8.81386 5 9.0625V15.9375H4.0625V4.0625H15.9375V15.9375ZM7.8125 5.9375C7.8125 5.68886 7.91127 5.4504 8.08709 5.27459C8.2629 5.09877 8.50136 5 8.75 5H11.25C11.4986 5 11.7371 5.09877 11.9129 5.27459C12.0887 5.4504 12.1875 5.68886 12.1875 5.9375C12.1875 6.18614 12.0887 6.4246 11.9129 6.60041C11.7371 6.77623 11.4986 6.875 11.25 6.875H8.75C8.50136 6.875 8.2629 6.77623 8.08709 6.60041C7.91127 6.4246 7.8125 6.18614 7.8125 5.9375Z" fill="#191F2E"/>
</svg>
