<svg width="20" height="20" viewBox="0 0 20 20" fill="none" xmlns="http://www.w3.org/2000/svg">
<path d="M16.25 2.5H3.75C3.41848 2.5 3.10054 2.6317 2.86612 2.86612C2.6317 3.10054 2.5 3.41848 2.5 3.75V16.25C2.5 16.5815 2.6317 16.8995 2.86612 17.1339C3.10054 17.3683 3.41848 17.5 3.75 17.5H16.25C16.5815 17.5 16.8995 17.3683 17.1339 17.1339C17.3683 16.8995 17.5 16.5815 17.5 16.25V3.75C17.5 3.41848 17.3683 3.10054 17.1339 2.86612C16.8995 2.6317 16.5815 2.5 16.25 2.5ZM8.75 4.375H11.25C11.4158 4.375 11.5747 4.44085 11.6919 4.55806C11.8092 4.67527 11.875 4.83424 11.875 5C11.875 5.16576 11.8092 5.32473 11.6919 5.44194C11.5747 5.55915 11.4158 5.625 11.25 5.625H8.75C8.58424 5.625 8.42527 5.55915 8.30806 5.44194C8.19085 5.32473 8.125 5.16576 8.125 5C8.125 4.83424 8.19085 4.67527 8.30806 4.55806C8.42527 4.44085 8.58424 4.375 8.75 4.375ZM9.375 16.25H5V7.5H9.375V16.25ZM15 16.25H10.625V7.5H15V16.25Z" fill="#191F2E"/>
</svg>
