<svg width="20" height="20" viewBox="0 0 20 20" fill="none" xmlns="http://www.w3.org/2000/svg">
<path d="M19.0625 8.75C18.8139 8.75 18.5754 8.84877 18.3996 9.02459C18.2238 9.2004 18.125 9.43886 18.125 9.6875V10.9375H16.875V10.3125C16.875 9.8981 16.7104 9.50067 16.4174 9.20765C16.1243 8.91462 15.7269 8.75 15.3125 8.75H14.4531L11.7836 6.08281C11.6389 5.93722 11.4668 5.82179 11.2771 5.74321C11.0875 5.66462 10.8842 5.62444 10.6789 5.625H9.6875V4.375H10.9375C11.1861 4.375 11.4246 4.27623 11.6004 4.10041C11.7762 3.9246 11.875 3.68614 11.875 3.4375C11.875 3.18886 11.7762 2.9504 11.6004 2.77459C11.4246 2.59877 11.1861 2.5 10.9375 2.5H6.5625C6.31386 2.5 6.0754 2.59877 5.89959 2.77459C5.72377 2.9504 5.625 3.18886 5.625 3.4375C5.625 3.68614 5.72377 3.9246 5.89959 4.10041C6.0754 4.27623 6.31386 4.375 6.5625 4.375H7.8125V5.625H4.6875C4.2731 5.625 3.87567 5.78962 3.58265 6.08265C3.28962 6.37567 3.125 6.7731 3.125 7.1875V10.9375H1.875V9.6875C1.875 9.43886 1.77623 9.2004 1.60041 9.02459C1.4246 8.84877 1.18614 8.75 0.9375 8.75C0.68886 8.75 0.450403 8.84877 0.274587 9.02459C0.098772 9.2004 0 9.43886 0 9.6875L0 14.0625C0 14.3111 0.098772 14.5496 0.274587 14.7254C0.450403 14.9012 0.68886 15 0.9375 15C1.18614 15 1.4246 14.9012 1.60041 14.7254C1.77623 14.5496 1.875 14.3111 1.875 14.0625V12.8125H3.125V13.8039C3.12444 14.0092 3.16462 14.2125 3.24321 14.4021C3.32179 14.5918 3.43722 14.7639 3.58281 14.9086L6.34141 17.6672C6.4861 17.8128 6.65825 17.9282 6.84787 18.0068C7.0375 18.0854 7.24083 18.1256 7.44609 18.125H10.6789C10.8842 18.1256 11.0875 18.0854 11.2771 18.0068C11.4668 17.9282 11.6389 17.8128 11.7836 17.6672L14.4531 15H15.3125C15.5177 15 15.7209 14.9596 15.9104 14.8811C16.1 14.8025 16.2723 14.6874 16.4174 14.5424C16.5624 14.3973 16.6775 14.225 16.7561 14.0354C16.8346 13.8459 16.875 13.6427 16.875 13.4375V12.8125H18.125V14.0625C18.125 14.3111 18.2238 14.5496 18.3996 14.7254C18.5754 14.9012 18.8139 15 19.0625 15C19.3111 15 19.5496 14.9012 19.7254 14.7254C19.9012 14.5496 20 14.3111 20 14.0625V9.6875C20 9.43886 19.9012 9.2004 19.7254 9.02459C19.5496 8.84877 19.3111 8.75 19.0625 8.75ZM15 13.125H14.3211C14.1158 13.1244 13.9125 13.1646 13.7229 13.2432C13.5332 13.3218 13.3611 13.4372 13.2164 13.5828L10.5469 16.25H7.57812L5 13.6719V7.5H10.5469L13.2141 10.1672C13.359 10.3131 13.5316 10.4286 13.7216 10.5072C13.9117 10.5858 14.1154 10.6259 14.3211 10.625H15V13.125Z" fill="#191F2E"/>
</svg>
