<svg width="20" height="20" viewBox="0 0 20 20" fill="none" xmlns="http://www.w3.org/2000/svg">
<path d="M19.375 8.125C19.2092 8.125 19.0503 8.19085 18.9331 8.30806C18.8158 8.42527 18.75 8.58424 18.75 8.75V10.625H17.5V9.375C17.5 9.04348 17.3683 8.72554 17.1339 8.49112C16.8995 8.2567 16.5815 8.125 16.25 8.125H15.2586L12.5 5.36641C12.3843 5.24983 12.2467 5.1574 12.095 5.0945C11.9433 5.0316 11.7806 4.99948 11.6164 5H10V3.75H11.875C12.0408 3.75 12.1997 3.68415 12.3169 3.56694C12.4342 3.44973 12.5 3.29076 12.5 3.125C12.5 2.95924 12.4342 2.80027 12.3169 2.68306C12.1997 2.56585 12.0408 2.5 11.875 2.5H6.875C6.70924 2.5 6.55027 2.56585 6.43306 2.68306C6.31585 2.80027 6.25 2.95924 6.25 3.125C6.25 3.29076 6.31585 3.44973 6.43306 3.56694C6.55027 3.68415 6.70924 3.75 6.875 3.75H8.75V5H3.75C3.41848 5 3.10054 5.1317 2.86612 5.36612C2.6317 5.60054 2.5 5.91848 2.5 6.25V10.625H1.25V8.75C1.25 8.58424 1.18415 8.42527 1.06694 8.30806C0.949732 8.19085 0.79076 8.125 0.625 8.125C0.45924 8.125 0.300269 8.19085 0.183058 8.30806C0.065848 8.42527 0 8.58424 0 8.75L0 13.75C0 13.9158 0.065848 14.0747 0.183058 14.1919C0.300269 14.3092 0.45924 14.375 0.625 14.375C0.79076 14.375 0.949732 14.3092 1.06694 14.1919C1.18415 14.0747 1.25 13.9158 1.25 13.75V11.875H2.5V13.4914C2.49948 13.6556 2.5316 13.8183 2.5945 13.97C2.6574 14.1217 2.74983 14.2593 2.86641 14.375L5.625 17.1336C5.74065 17.2502 5.87832 17.3426 6.03001 17.4055C6.1817 17.4684 6.34438 17.5005 6.50859 17.5H11.6164C11.7806 17.5005 11.9433 17.4684 12.095 17.4055C12.2467 17.3426 12.3843 17.2502 12.5 17.1336L15.2586 14.375H16.25C16.5815 14.375 16.8995 14.2433 17.1339 14.0089C17.3683 13.7745 17.5 13.4565 17.5 13.125V11.875H18.75V13.75C18.75 13.9158 18.8158 14.0747 18.9331 14.1919C19.0503 14.3092 19.2092 14.375 19.375 14.375C19.5408 14.375 19.6997 14.3092 19.8169 14.1919C19.9342 14.0747 20 13.9158 20 13.75V8.75C20 8.58424 19.9342 8.42527 19.8169 8.30806C19.6997 8.19085 19.5408 8.125 19.375 8.125ZM16.25 13.125H15.2586C15.0944 13.1245 14.9317 13.1566 14.78 13.2195C14.6283 13.2824 14.4907 13.3748 14.375 13.4914L11.6164 16.25H6.50859L3.75 13.4914V6.25H11.6164L14.375 9.00859C14.4907 9.12517 14.6283 9.2176 14.78 9.2805C14.9317 9.3434 15.0944 9.37552 15.2586 9.375H16.25V13.125Z" fill="#191F2E"/>
</svg>
