<svg width="20" height="20" viewBox="0 0 20 20" fill="none" xmlns="http://www.w3.org/2000/svg">
<path d="M20 8.75V13.75C20 13.9158 19.9342 14.0747 19.8169 14.1919C19.6997 14.3092 19.5408 14.375 19.375 14.375C19.2092 14.375 19.0503 14.3092 18.9331 14.1919C18.8158 14.0747 18.75 13.9158 18.75 13.75V11.875H17.5V13.125C17.5 13.4565 17.3683 13.7745 17.1339 14.0089C16.8995 14.2433 16.5815 14.375 16.25 14.375H15.2586L12.5 17.1336C12.3843 17.2502 12.2467 17.3426 12.095 17.4055C11.9433 17.4684 11.7806 17.5005 11.6164 17.5H6.50859C6.34438 17.5005 6.1817 17.4684 6.03001 17.4055C5.87832 17.3426 5.74065 17.2502 5.625 17.1336L2.86641 14.375C2.74983 14.2593 2.6574 14.1217 2.5945 13.97C2.5316 13.8183 2.49948 13.6556 2.5 13.4914V11.875H1.25V13.75C1.25 13.9158 1.18415 14.0747 1.06694 14.1919C0.949732 14.3092 0.79076 14.375 0.625 14.375C0.45924 14.375 0.300269 14.3092 0.183058 14.1919C0.065848 14.0747 0 13.9158 0 13.75V8.75C0 8.58424 0.065848 8.42527 0.183058 8.30806C0.300269 8.19085 0.45924 8.125 0.625 8.125C0.79076 8.125 0.949732 8.19085 1.06694 8.30806C1.18415 8.42527 1.25 8.58424 1.25 8.75V10.625H2.5V6.25C2.5 5.91848 2.6317 5.60054 2.86612 5.36612C3.10054 5.1317 3.41848 5 3.75 5H8.75V3.75H6.875C6.70924 3.75 6.55027 3.68415 6.43306 3.56694C6.31585 3.44973 6.25 3.29076 6.25 3.125C6.25 2.95924 6.31585 2.80027 6.43306 2.68306C6.55027 2.56585 6.70924 2.5 6.875 2.5H11.875C12.0408 2.5 12.1997 2.56585 12.3169 2.68306C12.4342 2.80027 12.5 2.95924 12.5 3.125C12.5 3.29076 12.4342 3.44973 12.3169 3.56694C12.1997 3.68415 12.0408 3.75 11.875 3.75H10V5H11.6164C11.7806 4.99948 11.9433 5.0316 12.095 5.0945C12.2467 5.1574 12.3843 5.24983 12.5 5.36641L15.2586 8.125H16.25C16.5815 8.125 16.8995 8.2567 17.1339 8.49112C17.3683 8.72554 17.5 9.04348 17.5 9.375V10.625H18.75V8.75C18.75 8.58424 18.8158 8.42527 18.9331 8.30806C19.0503 8.19085 19.2092 8.125 19.375 8.125C19.5408 8.125 19.6997 8.19085 19.8169 8.30806C19.9342 8.42527 20 8.58424 20 8.75Z" fill="#191F2E"/>
</svg>
