<svg width="20" height="20" viewBox="0 0 20 20" fill="none" xmlns="http://www.w3.org/2000/svg">
<path d="M17.8469 6.9796L10.3469 1.97961C10.2442 1.91108 10.1235 1.87451 10 1.87451C9.87653 1.87451 9.75583 1.91108 9.65312 1.97961L2.15313 6.9796C2.06751 7.03673 1.99732 7.11411 1.9488 7.20488C1.90029 7.29565 1.87493 7.39699 1.875 7.49992V15.6249C1.875 15.9564 2.0067 16.2744 2.24112 16.5088C2.47554 16.7432 2.79348 16.8749 3.125 16.8749H16.875C17.2065 16.8749 17.5245 16.7432 17.7589 16.5088C17.9933 16.2744 18.125 15.9564 18.125 15.6249V7.49992C18.1251 7.39699 18.0997 7.29565 18.0512 7.20488C18.0027 7.11411 17.9325 7.03673 17.8469 6.9796ZM10 3.2507L16.3992 7.51711L11.1648 11.2499H8.83672L3.60234 7.51711L10 3.2507ZM3.125 15.6249V8.7132L8.27344 12.3851C8.37944 12.4608 8.50645 12.5015 8.63672 12.5015H11.3633C11.4935 12.5015 11.6206 12.4608 11.7266 12.3851L16.875 8.7132V15.6249H3.125Z" fill="#191F2E"/>
</svg>
