<svg width="20" height="20" viewBox="0 0 20 20" fill="none" xmlns="http://www.w3.org/2000/svg">
<path d="M18.0203 6.71868L10.5203 1.71868C10.3663 1.61589 10.1852 1.56104 10 1.56104C9.8148 1.56104 9.63375 1.61589 9.47969 1.71868L1.97969 6.71868C1.85115 6.80443 1.74581 6.92063 1.67302 7.05693C1.60024 7.19323 1.56227 7.34541 1.5625 7.49993V15.6249C1.5625 16.0393 1.72712 16.4368 2.02015 16.7298C2.31317 17.0228 2.7106 17.1874 3.125 17.1874H16.875C17.2894 17.1874 17.6868 17.0228 17.9799 16.7298C18.2729 16.4368 18.4375 16.0393 18.4375 15.6249V7.49993C18.4377 7.34541 18.3998 7.19323 18.327 7.05693C18.2542 6.92063 18.1488 6.80443 18.0203 6.71868ZM7.01641 11.8749L3.4375 14.3991V9.32102L7.01641 11.8749ZM8.93438 12.8124H11.0656L14.6094 15.3124H5.39453L8.93438 12.8124ZM12.9836 11.8749L16.5625 9.31946V14.3976L12.9836 11.8749ZM10 3.62649L15.8484 7.52571L11.0633 10.9374H8.93672L4.15156 7.52571L10 3.62649Z" fill="#191F2E"/>
</svg>
