<svg width="20" height="20" viewBox="0 0 20 20" fill="none" xmlns="http://www.w3.org/2000/svg">
<path d="M6.25 8.4375C6.25 8.68614 6.15123 8.9246 5.97541 9.10041C5.7996 9.27623 5.56114 9.375 5.3125 9.375H1.875C1.62636 9.375 1.3879 9.27623 1.21209 9.10041C1.03627 8.9246 0.9375 8.68614 0.9375 8.4375C0.9375 8.18886 1.03627 7.9504 1.21209 7.77459C1.3879 7.59877 1.62636 7.5 1.875 7.5H5.3125C5.56114 7.5 5.7996 7.59877 5.97541 7.77459C6.15123 7.9504 6.25 8.18886 6.25 8.4375ZM5.3125 10.625H1.875C1.62636 10.625 1.3879 10.7238 1.21209 10.8996C1.03627 11.0754 0.9375 11.3139 0.9375 11.5625C0.9375 11.8111 1.03627 12.0496 1.21209 12.2254C1.3879 12.4012 1.62636 12.5 1.875 12.5H5.3125C5.56114 12.5 5.7996 12.4012 5.97541 12.2254C6.15123 12.0496 6.25 11.8111 6.25 11.5625C6.25 11.3139 6.15123 11.0754 5.97541 10.8996C5.7996 10.7238 5.56114 10.625 5.3125 10.625ZM5.3125 13.75H1.875C1.62636 13.75 1.3879 13.8488 1.21209 14.0246C1.03627 14.2004 0.9375 14.4389 0.9375 14.6875C0.9375 14.9361 1.03627 15.1746 1.21209 15.3504C1.3879 15.5262 1.62636 15.625 1.875 15.625H5.3125C5.56114 15.625 5.7996 15.5262 5.97541 15.3504C6.15123 15.1746 6.25 14.9361 6.25 14.6875C6.25 14.4389 6.15123 14.2004 5.97541 14.0246C5.7996 13.8488 5.56114 13.75 5.3125 13.75ZM11.7188 10.625H8.28125C8.03261 10.625 7.79415 10.7238 7.61834 10.8996C7.44252 11.0754 7.34375 11.3139 7.34375 11.5625C7.34375 11.8111 7.44252 12.0496 7.61834 12.2254C7.79415 12.4012 8.03261 12.5 8.28125 12.5H11.7188C11.9674 12.5 12.2058 12.4012 12.3817 12.2254C12.5575 12.0496 12.6562 11.8111 12.6562 11.5625C12.6562 11.3139 12.5575 11.0754 12.3817 10.8996C12.2058 10.7238 11.9674 10.625 11.7188 10.625ZM11.7188 13.75H8.28125C8.03261 13.75 7.79415 13.8488 7.61834 14.0246C7.44252 14.2004 7.34375 14.4389 7.34375 14.6875C7.34375 14.9361 7.44252 15.1746 7.61834 15.3504C7.79415 15.5262 8.03261 15.625 8.28125 15.625H11.7188C11.9674 15.625 12.2058 15.5262 12.3817 15.3504C12.5575 15.1746 12.6562 14.9361 12.6562 14.6875C12.6562 14.4389 12.5575 14.2004 12.3817 14.0246C12.2058 13.8488 11.9674 13.75 11.7188 13.75ZM14.6875 6.25H18.125C18.3736 6.25 18.6121 6.15123 18.7879 5.97541C18.9637 5.7996 19.0625 5.56114 19.0625 5.3125C19.0625 5.06386 18.9637 4.8254 18.7879 4.64959C18.6121 4.47377 18.3736 4.375 18.125 4.375H14.6875C14.4389 4.375 14.2004 4.47377 14.0246 4.64959C13.8488 4.8254 13.75 5.06386 13.75 5.3125C13.75 5.56114 13.8488 5.7996 14.0246 5.97541C14.2004 6.15123 14.4389 6.25 14.6875 6.25ZM18.125 7.5H14.6875C14.4389 7.5 14.2004 7.59877 14.0246 7.77459C13.8488 7.9504 13.75 8.18886 13.75 8.4375C13.75 8.68614 13.8488 8.9246 14.0246 9.10041C14.2004 9.27623 14.4389 9.375 14.6875 9.375H18.125C18.3736 9.375 18.6121 9.27623 18.7879 9.10041C18.9637 8.9246 19.0625 8.68614 19.0625 8.4375C19.0625 8.18886 18.9637 7.9504 18.7879 7.77459C18.6121 7.59877 18.3736 7.5 18.125 7.5ZM18.125 10.625H14.6875C14.4389 10.625 14.2004 10.7238 14.0246 10.8996C13.8488 11.0754 13.75 11.3139 13.75 11.5625C13.75 11.8111 13.8488 12.0496 14.0246 12.2254C14.2004 12.4012 14.4389 12.5 14.6875 12.5H18.125C18.3736 12.5 18.6121 12.4012 18.7879 12.2254C18.9637 12.0496 19.0625 11.8111 19.0625 11.5625C19.0625 11.3139 18.9637 11.0754 18.7879 10.8996C18.6121 10.7238 18.3736 10.625 18.125 10.625ZM18.125 13.75H14.6875C14.4389 13.75 14.2004 13.8488 14.0246 14.0246C13.8488 14.2004 13.75 14.4389 13.75 14.6875C13.75 14.9361 13.8488 15.1746 14.0246 15.3504C14.2004 15.5262 14.4389 15.625 14.6875 15.625H18.125C18.3736 15.625 18.6121 15.5262 18.7879 15.3504C18.9637 15.1746 19.0625 14.9361 19.0625 14.6875C19.0625 14.4389 18.9637 14.2004 18.7879 14.0246C18.6121 13.8488 18.3736 13.75 18.125 13.75Z" fill="#191F2E"/>
</svg>
