<svg width="20" height="20" viewBox="0 0 20 20" fill="none" xmlns="http://www.w3.org/2000/svg">
<path d="M17.5 12.5C17.5 12.6658 17.4342 12.8247 17.3169 12.9419C17.1997 13.0592 17.0408 13.125 16.875 13.125H3.125C2.95924 13.125 2.80027 13.0592 2.68306 12.9419C2.56585 12.8247 2.5 12.6658 2.5 12.5C2.5 12.3342 2.56585 12.1753 2.68306 12.0581C2.80027 11.9408 2.95924 11.875 3.125 11.875H16.875C17.0408 11.875 17.1997 11.9408 17.3169 12.0581C17.4342 12.1753 17.5 12.3342 17.5 12.5ZM3.125 8.125H16.875C17.0408 8.125 17.1997 8.05915 17.3169 7.94194C17.4342 7.82473 17.5 7.66576 17.5 7.5C17.5 7.33424 17.4342 7.17527 17.3169 7.05806C17.1997 6.94085 17.0408 6.875 16.875 6.875H3.125C2.95924 6.875 2.80027 6.94085 2.68306 7.05806C2.56585 7.17527 2.5 7.33424 2.5 7.5C2.5 7.66576 2.56585 7.82473 2.68306 7.94194C2.80027 8.05915 2.95924 8.125 3.125 8.125Z" fill="#191F2E"/>
</svg>
