<svg width="20" height="20" viewBox="0 0 20 20" fill="none" xmlns="http://www.w3.org/2000/svg">
<path d="M16.875 15.9375H11.0156L17.8 9.15309C18.0031 8.94996 18.1643 8.7088 18.2742 8.44338C18.3842 8.17797 18.4407 7.8935 18.4407 7.60621C18.4407 7.31893 18.3842 7.03446 18.2742 6.76904C18.1643 6.50363 18.0031 6.26247 17.8 6.05934L14.5648 2.82731C14.3617 2.62415 14.1205 2.463 13.8551 2.35306C13.5897 2.24311 13.3052 2.18652 13.0179 2.18652C12.7306 2.18652 12.4462 2.24311 12.1808 2.35306C11.9153 2.463 11.6742 2.62415 11.4711 2.82731L2.20231 12.0953C1.99915 12.2984 1.838 12.5396 1.72806 12.805C1.61811 13.0704 1.56152 13.3549 1.56152 13.6421C1.56152 13.9294 1.61811 14.2139 1.72806 14.4793C1.838 14.7447 1.99915 14.9859 2.20231 15.189L4.55074 17.5382C4.63787 17.6253 4.7413 17.6943 4.8551 17.7413C4.96891 17.7884 5.09087 17.8126 5.21402 17.8125H16.875C17.1236 17.8125 17.3621 17.7137 17.5379 17.5379C17.7137 17.3621 17.8125 17.1236 17.8125 16.875C17.8125 16.6263 17.7137 16.3879 17.5379 16.2121C17.3621 16.0362 17.1236 15.9375 16.875 15.9375ZM12.7968 4.15309C12.8259 4.12403 12.8603 4.10098 12.8983 4.08526C12.9362 4.06953 12.9769 4.06144 13.0179 4.06144C13.059 4.06144 13.0997 4.06953 13.1376 4.08526C13.1755 4.10098 13.21 4.12403 13.239 4.15309L16.4718 7.3859C16.5303 7.44448 16.5631 7.52385 16.5631 7.6066C16.5631 7.68935 16.5303 7.76872 16.4718 7.82731L12.5 11.7968L8.82809 8.12496L12.7968 4.15309ZM5.60231 15.9375L3.52809 13.8632C3.46965 13.8047 3.43683 13.7253 3.43683 13.6425C3.43683 13.5598 3.46965 13.4804 3.52809 13.4218L7.49996 9.45309L11.1718 13.125L8.35934 15.9375H5.60231Z" fill="#191F2E"/>
</svg>
