<svg width="20" height="20" viewBox="0 0 20 20" fill="none" xmlns="http://www.w3.org/2000/svg">
<path d="M18.75 4.375V7.5C18.75 7.83152 18.6183 8.14946 18.3839 8.38388C18.1495 8.6183 17.8315 8.75 17.5 8.75H14.6484L7.51953 16.4727C7.40256 16.5994 7.26062 16.7006 7.10264 16.7699C6.94466 16.8391 6.77405 16.8749 6.60156 16.875H2.5C2.16848 16.875 1.85054 16.7433 1.61612 16.5089C1.3817 16.2745 1.25 15.9565 1.25 15.625V12.5C1.25 12.1685 1.3817 11.8505 1.61612 11.6161C1.85054 11.3817 2.16848 11.25 2.5 11.25H5.35156L12.4805 3.52734C12.5974 3.40057 12.7394 3.29938 12.8974 3.23014C13.0553 3.1609 13.2259 3.1251 13.3984 3.125H17.5C17.8315 3.125 18.1495 3.2567 18.3839 3.49112C18.6183 3.72554 18.75 4.04348 18.75 4.375ZM16.0672 11.4328C16.0091 11.3747 15.9402 11.3286 15.8643 11.2971C15.7885 11.2657 15.7071 11.2495 15.625 11.2495C15.5429 11.2495 15.4615 11.2657 15.3857 11.2971C15.3098 11.3286 15.2409 11.3747 15.1828 11.4328L13.3078 13.3078C13.1905 13.4251 13.1247 13.5841 13.1247 13.75C13.1247 13.9159 13.1905 14.0749 13.3078 14.1922C13.4251 14.3095 13.5841 14.3753 13.75 14.3753C13.9159 14.3753 14.0749 14.3095 14.1922 14.1922L15 13.3836V16.25C15 16.4158 15.0658 16.5747 15.1831 16.6919C15.3003 16.8092 15.4592 16.875 15.625 16.875C15.7908 16.875 15.9497 16.8092 16.0669 16.6919C16.1842 16.5747 16.25 16.4158 16.25 16.25V13.3836L17.0578 14.1922C17.1159 14.2503 17.1848 14.2963 17.2607 14.3277C17.3366 14.3592 17.4179 14.3753 17.5 14.3753C17.5821 14.3753 17.6634 14.3592 17.7393 14.3277C17.8152 14.2963 17.8841 14.2503 17.9422 14.1922C18.0003 14.1341 18.0463 14.0652 18.0777 13.9893C18.1092 13.9134 18.1253 13.8321 18.1253 13.75C18.1253 13.6679 18.1092 13.5866 18.0777 13.5107C18.0463 13.4348 18.0003 13.3659 17.9422 13.3078L16.0672 11.4328Z" fill="#191F2E"/>
</svg>
