<svg width="20" height="20" viewBox="0 0 20 20" fill="none" xmlns="http://www.w3.org/2000/svg">
<path d="M13.3078 6.69219C13.1905 6.57491 13.1247 6.41585 13.1247 6.25C13.1247 6.08415 13.1905 5.92509 13.3078 5.80781C13.4251 5.69054 13.5841 5.62465 13.75 5.62465C13.9159 5.62465 14.0749 5.69054 14.1922 5.80781L15 6.61641V3.75C15 3.58424 15.0658 3.42527 15.1831 3.30806C15.3003 3.19085 15.4592 3.125 15.625 3.125C15.7908 3.125 15.9497 3.19085 16.0669 3.30806C16.1842 3.42527 16.25 3.58424 16.25 3.75V6.61641L17.0578 5.80781C17.1751 5.69054 17.3341 5.62465 17.5 5.62465C17.6659 5.62465 17.8249 5.69054 17.9422 5.80781C18.0595 5.92509 18.1253 6.08415 18.1253 6.25C18.1253 6.41585 18.0595 6.57491 17.9422 6.69219L16.0672 8.56719C16.0091 8.6253 15.9402 8.6714 15.8643 8.70285C15.7885 8.7343 15.7071 8.75049 15.625 8.75049C15.5429 8.75049 15.4615 8.7343 15.3857 8.70285C15.3098 8.6714 15.2409 8.6253 15.1828 8.56719L13.3078 6.69219ZM17.5 11.25H14.6484L7.52031 3.52734C7.40308 3.4007 7.26097 3.2996 7.10289 3.23037C6.94481 3.16115 6.77414 3.12527 6.60156 3.125H2.5C2.16848 3.125 1.85054 3.2567 1.61612 3.49112C1.3817 3.72554 1.25 4.04348 1.25 4.375V7.5C1.25 7.83152 1.3817 8.14946 1.61612 8.38388C1.85054 8.6183 2.16848 8.75 2.5 8.75H5.35156L12.4797 16.4727C12.5969 16.5993 12.739 16.7004 12.8971 16.7696C13.0552 16.8389 13.2259 16.8747 13.3984 16.875H17.5C17.8315 16.875 18.1495 16.7433 18.3839 16.5089C18.6183 16.2745 18.75 15.9565 18.75 15.625V12.5C18.75 12.1685 18.6183 11.8505 18.3839 11.6161C18.1495 11.3817 17.8315 11.25 17.5 11.25Z" fill="#191F2E"/>
</svg>
