<svg width="20" height="20" viewBox="0 0 20 20" fill="none" xmlns="http://www.w3.org/2000/svg">
<path d="M13.3078 6.69219C13.1905 6.57491 13.1247 6.41585 13.1247 6.25C13.1247 6.08415 13.1905 5.92509 13.3078 5.80781C13.4251 5.69054 13.5841 5.62465 13.75 5.62465C13.9159 5.62465 14.0749 5.69054 14.1922 5.80781L15 6.61641V3.75C15 3.58424 15.0658 3.42527 15.1831 3.30806C15.3003 3.19085 15.4592 3.125 15.625 3.125C15.7908 3.125 15.9497 3.19085 16.0669 3.30806C16.1842 3.42527 16.25 3.58424 16.25 3.75V6.61641L17.0578 5.80781C17.1751 5.69054 17.3341 5.62465 17.5 5.62465C17.6659 5.62465 17.8249 5.69054 17.9422 5.80781C18.0595 5.92509 18.1253 6.08415 18.1253 6.25C18.1253 6.41585 18.0595 6.57491 17.9422 6.69219L16.0672 8.56719C16.0091 8.6253 15.9402 8.6714 15.8643 8.70285C15.7885 8.7343 15.7071 8.75049 15.625 8.75049C15.5429 8.75049 15.4615 8.7343 15.3857 8.70285C15.3098 8.6714 15.2409 8.6253 15.1828 8.56719L13.3078 6.69219ZM18.75 12.5V15.625C18.75 15.9565 18.6183 16.2745 18.3839 16.5089C18.1495 16.7433 17.8315 16.875 17.5 16.875H13.3984C13.2259 16.8747 13.0552 16.8389 12.8971 16.7696C12.739 16.7004 12.5969 16.5993 12.4797 16.4727L5.35156 8.75H2.5C2.16848 8.75 1.85054 8.6183 1.61612 8.38388C1.3817 8.14946 1.25 7.83152 1.25 7.5V4.375C1.25 4.04348 1.3817 3.72554 1.61612 3.49112C1.85054 3.2567 2.16848 3.125 2.5 3.125H6.60156C6.77414 3.12527 6.94481 3.16115 7.10289 3.23037C7.26097 3.2996 7.40308 3.4007 7.52031 3.52734L14.6484 11.25H17.5C17.8315 11.25 18.1495 11.3817 18.3839 11.6161C18.6183 11.8505 18.75 12.1685 18.75 12.5ZM17.5 12.5H14.6484C14.4759 12.4997 14.3052 12.4639 14.1471 12.3946C13.989 12.3254 13.8469 12.2243 13.7297 12.0977L6.60156 4.375H2.5V7.5H5.35156C5.52414 7.50027 5.69481 7.53615 5.85289 7.60537C6.01097 7.6746 6.15308 7.7757 6.27031 7.90234L13.3984 15.625H17.5V12.5Z" fill="#191F2E"/>
</svg>
