<svg width="20" height="20" viewBox="0 0 20 20" fill="none" xmlns="http://www.w3.org/2000/svg">
<path d="M16.875 3.125H3.125C2.79348 3.125 2.47554 3.2567 2.24112 3.49112C2.0067 3.72554 1.875 4.04348 1.875 4.375V16.875C1.87492 16.9816 1.90211 17.0864 1.95397 17.1796C2.00584 17.2727 2.08065 17.351 2.17131 17.407C2.26197 17.4631 2.36546 17.495 2.47195 17.4998C2.57843 17.5046 2.68437 17.4821 2.77969 17.4344L5 16.3234L7.22031 17.4344C7.30714 17.4778 7.4029 17.5004 7.5 17.5004C7.5971 17.5004 7.69286 17.4778 7.77969 17.4344L10 16.3234L12.2203 17.4344C12.3071 17.4778 12.4029 17.5004 12.5 17.5004C12.5971 17.5004 12.6929 17.4778 12.7797 17.4344L15 16.3234L17.2203 17.4344C17.3156 17.4821 17.4216 17.5046 17.5281 17.4998C17.6345 17.495 17.738 17.4631 17.8287 17.407C17.9193 17.351 17.9942 17.2727 18.046 17.1796C18.0979 17.0864 18.1251 16.9816 18.125 16.875V4.375C18.125 4.04348 17.9933 3.72554 17.7589 3.49112C17.5245 3.2567 17.2065 3.125 16.875 3.125ZM16.875 15.8641L15.2797 15.0656C15.1929 15.0222 15.0971 14.9996 15 14.9996C14.9029 14.9996 14.8071 15.0222 14.7203 15.0656L12.5 16.1766L10.2797 15.0656C10.1929 15.0222 10.0971 14.9996 10 14.9996C9.9029 14.9996 9.80714 15.0222 9.72031 15.0656L7.5 16.1766L5.27969 15.0656C5.19286 15.0222 5.0971 14.9996 5 14.9996C4.9029 14.9996 4.80714 15.0222 4.72031 15.0656L3.125 15.8641V4.375H16.875V15.8641ZM4.72031 13.0594C4.79376 13.0962 4.87374 13.1181 4.95567 13.124C5.03761 13.1298 5.11989 13.1194 5.19782 13.0935C5.27575 13.0675 5.34779 13.0264 5.40983 12.9726C5.47187 12.9187 5.52269 12.8532 5.55938 12.7797L6.01094 11.875H8.98906L9.44062 12.7797C9.47735 12.8531 9.52819 12.9186 9.59024 12.9725C9.65228 13.0263 9.72432 13.0673 9.80223 13.0933C9.88015 13.1193 9.96241 13.1296 10.0443 13.1238C10.1263 13.118 10.2062 13.0961 10.2797 13.0594C10.3531 13.0226 10.4186 12.9718 10.4725 12.9098C10.5263 12.8477 10.5673 12.7757 10.5933 12.6978C10.6193 12.6199 10.6296 12.5376 10.6238 12.4557C10.618 12.3737 10.5961 12.2938 10.5594 12.2203L8.05938 7.22031C8.00754 7.11631 7.92773 7.02881 7.82892 6.96766C7.73011 6.9065 7.61621 6.8741 7.5 6.8741C7.38379 6.8741 7.26989 6.9065 7.17108 6.96766C7.07227 7.02881 6.99246 7.11631 6.94062 7.22031L4.44063 12.2203C4.40384 12.2938 4.3819 12.3737 4.37605 12.4557C4.3702 12.5376 4.38056 12.6199 4.40654 12.6978C4.43251 12.7758 4.4736 12.8478 4.52744 12.9098C4.58128 12.9719 4.64682 13.0227 4.72031 13.0594ZM7.5 8.89766L8.36406 10.625H6.63594L7.5 8.89766ZM10.625 10C10.625 9.83424 10.6908 9.67527 10.8081 9.55806C10.9253 9.44085 11.0842 9.375 11.25 9.375H12.5V8.125C12.5 7.95924 12.5658 7.80027 12.6831 7.68306C12.8003 7.56585 12.9592 7.5 13.125 7.5C13.2908 7.5 13.4497 7.56585 13.5669 7.68306C13.6842 7.80027 13.75 7.95924 13.75 8.125V9.375H15C15.1658 9.375 15.3247 9.44085 15.4419 9.55806C15.5592 9.67527 15.625 9.83424 15.625 10C15.625 10.1658 15.5592 10.3247 15.4419 10.4419C15.3247 10.5592 15.1658 10.625 15 10.625H13.75V11.875C13.75 12.0408 13.6842 12.1997 13.5669 12.3169C13.4497 12.4342 13.2908 12.5 13.125 12.5C12.9592 12.5 12.8003 12.4342 12.6831 12.3169C12.5658 12.1997 12.5 12.0408 12.5 11.875V10.625H11.25C11.0842 10.625 10.9253 10.5592 10.8081 10.4419C10.6908 10.3247 10.625 10.1658 10.625 10Z" fill="#191F2E"/>
</svg>
