<svg width="20" height="20" viewBox="0 0 20 20" fill="none" xmlns="http://www.w3.org/2000/svg">
<path d="M16.875 2.8125H3.125C2.7106 2.8125 2.31317 2.97712 2.02015 3.27015C1.72712 3.56317 1.5625 3.9606 1.5625 4.375V16.875C1.56252 17.0348 1.60339 17.192 1.68124 17.3316C1.75909 17.4711 1.87133 17.5885 2.0073 17.6725C2.14327 17.7565 2.29845 17.8043 2.45811 17.8115C2.61777 17.8186 2.77661 17.7848 2.91953 17.7133L5 16.6734L7.08047 17.7133C7.21072 17.7785 7.35436 17.8124 7.5 17.8124C7.64564 17.8124 7.78928 17.7785 7.91953 17.7133L10 16.6734L12.0805 17.7133C12.2107 17.7785 12.3544 17.8124 12.5 17.8124C12.6456 17.8124 12.7893 17.7785 12.9195 17.7133L15 16.6734L17.0805 17.7133C17.2234 17.7848 17.3822 17.8186 17.5419 17.8115C17.7015 17.8043 17.8567 17.7565 17.9927 17.6725C18.1287 17.5885 18.2409 17.4711 18.3188 17.3316C18.3966 17.192 18.4375 17.0348 18.4375 16.875V4.375C18.4375 3.9606 18.2729 3.56317 17.9799 3.27015C17.6868 2.97712 17.2894 2.8125 16.875 2.8125ZM16.5625 15.3578L15.4195 14.7867C15.2893 14.7215 15.1456 14.6876 15 14.6876C14.8544 14.6876 14.7107 14.7215 14.5805 14.7867L12.5 15.8266L10.4195 14.7867C10.2893 14.7215 10.1456 14.6876 10 14.6876C9.85436 14.6876 9.71072 14.7215 9.58047 14.7867L7.5 15.8266L5.41953 14.7867C5.28928 14.7215 5.14564 14.6876 5 14.6876C4.85436 14.6876 4.71072 14.7215 4.58047 14.7867L3.4375 15.3578V4.6875H16.5625V15.3578ZM4.93672 13.3594C5.04957 13.4088 5.17104 13.4355 5.29421 13.4379C5.41737 13.4403 5.53981 13.4185 5.65452 13.3736C5.76923 13.3286 5.87396 13.2616 5.96273 13.1762C6.05151 13.0907 6.12257 12.9887 6.17188 12.8758L6.33594 12.5H8.66406L8.82891 12.8758C8.92857 13.1037 9.11469 13.2827 9.34633 13.3734C9.57797 13.4641 9.83614 13.459 10.0641 13.3594C10.292 13.2597 10.471 13.0736 10.5617 12.842C10.6524 12.6103 10.6473 12.3521 10.5477 12.1242L8.36016 7.12422C8.28723 6.95695 8.16707 6.8146 8.01442 6.71462C7.86177 6.61465 7.68326 6.56139 7.50078 6.56139C7.31831 6.56139 7.13979 6.61465 6.98714 6.71462C6.83449 6.8146 6.71433 6.95695 6.64141 7.12422L4.45391 12.1242C4.40447 12.237 4.37775 12.3585 4.37526 12.4816C4.37278 12.6047 4.39457 12.7271 4.43941 12.8418C4.48425 12.9565 4.55124 13.0613 4.63657 13.1501C4.7219 13.2389 4.82389 13.31 4.93672 13.3594ZM7.84375 10.625H7.15625L7.5 9.83906L7.84375 10.625ZM10.625 10C10.625 9.75136 10.7238 9.5129 10.8996 9.33709C11.0754 9.16127 11.3139 9.0625 11.5625 9.0625H12.1875V8.4375C12.1875 8.18886 12.2863 7.9504 12.4621 7.77459C12.6379 7.59877 12.8764 7.5 13.125 7.5C13.3736 7.5 13.6121 7.59877 13.7879 7.77459C13.9637 7.9504 14.0625 8.18886 14.0625 8.4375V9.0625H14.6875C14.9361 9.0625 15.1746 9.16127 15.3504 9.33709C15.5262 9.5129 15.625 9.75136 15.625 10C15.625 10.2486 15.5262 10.4871 15.3504 10.6629C15.1746 10.8387 14.9361 10.9375 14.6875 10.9375H14.0625V11.5625C14.0625 11.8111 13.9637 12.0496 13.7879 12.2254C13.6121 12.4012 13.3736 12.5 13.125 12.5C12.8764 12.5 12.6379 12.4012 12.4621 12.2254C12.2863 12.0496 12.1875 11.8111 12.1875 11.5625V10.9375H11.5625C11.3139 10.9375 11.0754 10.8387 10.8996 10.6629C10.7238 10.4871 10.625 10.2486 10.625 10Z" fill="#191F2E"/>
</svg>
