<svg width="20" height="20" viewBox="0 0 20 20" fill="none" xmlns="http://www.w3.org/2000/svg">
<path d="M18.75 12.4999C18.7491 14.0574 18.1666 15.5585 17.1168 16.709C16.0669 17.8595 14.6253 18.5765 13.0744 18.7197C11.5234 18.8628 9.97493 18.4217 8.73224 17.4827C7.48956 16.5438 6.64223 15.1747 6.35626 13.6436C7.35381 13.8292 8.38152 13.7691 9.35063 13.4685C10.3197 13.1679 11.2011 12.6359 11.9186 11.9184C12.636 11.201 13.168 10.3196 13.4686 9.35051C13.7692 8.3814 13.8293 7.35368 13.6438 6.35614C15.0782 6.62315 16.374 7.3836 17.3066 8.5057C18.2392 9.6278 18.7498 11.0408 18.75 12.4999ZM12.5 6.24989C12.8837 6.25025 13.2666 6.28582 13.6438 6.35614C13.4356 5.23693 12.9257 4.19583 12.1691 3.34522C11.4125 2.49461 10.4379 1.8668 9.35063 1.52956C8.26332 1.19232 7.10455 1.15846 5.9994 1.43163C4.89425 1.7048 3.88471 2.27463 3.07973 3.07961C2.27475 3.88458 1.70492 4.89413 1.43175 5.99928C1.15858 7.10443 1.19244 8.2632 1.52968 9.35051C1.86692 10.4378 2.49473 11.4124 3.34534 12.169C4.19595 12.9256 5.23705 13.4355 6.35626 13.6436C6.18834 12.7415 6.22112 11.8135 6.45226 10.9255C6.6834 10.0375 7.10724 9.21129 7.69368 8.50554C8.28011 7.79979 9.01475 7.23182 9.84542 6.84198C10.6761 6.45214 11.5824 6.24999 12.5 6.24989Z" fill="#191F2E"/>
</svg>
