<svg width="20" height="20" viewBox="0 0 20 20" fill="none" xmlns="http://www.w3.org/2000/svg">
<path d="M13.9062 6.09375C13.6547 4.94302 13.0981 3.8812 12.2948 3.01971C11.4915 2.15822 10.4712 1.52881 9.34084 1.19752C8.21049 0.866235 7.01181 0.845286 5.87058 1.13687C4.72934 1.42846 3.68763 2.02183 2.85473 2.85473C2.02183 3.68763 1.42846 4.72934 1.13687 5.87058C0.845286 7.01181 0.866235 8.21049 1.19752 9.34084C1.52881 10.4712 2.15822 11.4915 3.01971 12.2948C3.8812 13.0981 4.94302 13.6547 6.09375 13.9062C6.34528 15.057 6.90189 16.1188 7.70517 16.9803C8.50846 17.8418 9.5288 18.4712 10.6592 18.8025C11.7895 19.1338 12.9882 19.1547 14.1294 18.8631C15.2706 18.5715 16.3124 17.9782 17.1453 17.1453C17.9782 16.3124 18.5715 15.2706 18.8631 14.1294C19.1547 12.9882 19.1338 11.7895 18.8025 10.6592C18.4712 9.5288 17.8418 8.50846 16.9803 7.70517C16.1188 6.90189 15.057 6.34528 13.9062 6.09375ZM17.1875 12.5C17.1871 12.6736 17.1772 12.847 17.1578 13.0195L13.7203 9.58203C13.884 9.09255 13.9889 8.58534 14.0328 8.07109C14.9532 8.39067 15.7514 8.98872 16.3167 9.7823C16.8819 10.5759 17.1863 11.5257 17.1875 12.5ZM7.825 12.175C7.90477 11.0477 8.38869 9.98697 9.18783 9.18783C9.98697 8.38869 11.0477 7.90477 12.175 7.825C12.0952 8.95233 11.6113 10.013 10.8122 10.8122C10.013 11.6113 8.95233 12.0952 7.825 12.175ZM11.9273 5.96406C11.4131 6.00795 10.9059 6.11285 10.4164 6.27656L6.9789 2.83906C7.15198 2.82066 7.32594 2.81179 7.5 2.8125C8.47367 2.81382 9.42284 3.11786 10.2161 3.68251C11.0093 4.24716 11.6073 5.04448 11.9273 5.96406ZM5.01484 3.52812L8.66562 7.1789C8.09526 7.59186 7.59421 8.09291 7.18124 8.66328L3.52812 5.01484C3.90568 4.41385 4.41385 3.90568 5.01484 3.52812ZM2.8125 7.5C2.81288 7.32641 2.82279 7.15297 2.84218 6.98046L6.27968 10.418C6.11598 10.9074 6.01107 11.4146 5.96718 11.9289C5.04677 11.6093 4.24859 11.0113 3.68333 10.2177C3.11806 9.42411 2.81372 8.47431 2.8125 7.5ZM8.07265 14.0359C8.58691 13.992 9.09412 13.8871 9.58359 13.7234L13.0211 17.1609C12.848 17.1793 12.674 17.1882 12.5 17.1875C11.5263 17.1862 10.5772 16.8821 9.78393 16.3175C8.9907 15.7528 8.39267 14.9555 8.07265 14.0359ZM14.9852 16.4719L11.3344 12.8211C11.9047 12.4081 12.4058 11.9071 12.8187 11.3367L16.4695 14.9875C16.0924 15.5874 15.585 16.0947 14.9852 16.4719Z" fill="#191F2E"/>
</svg>
