<svg width="20" height="20" viewBox="0 0 20 20" fill="none" xmlns="http://www.w3.org/2000/svg">
<path d="M13.643 6.35708C13.4352 5.23764 12.9255 4.19624 12.169 3.34533C11.4125 2.49442 10.4379 1.86633 9.35046 1.52887C8.26305 1.19141 7.10411 1.15741 5.99878 1.43054C4.89345 1.70366 3.88372 2.27354 3.07863 3.07863C2.27354 3.88372 1.70366 4.89345 1.43054 5.99878C1.15741 7.10411 1.19141 8.26305 1.52887 9.35046C1.86633 10.4379 2.49442 11.4125 3.34533 12.169C4.19624 12.9255 5.23764 13.4352 6.35708 13.643C6.56493 14.7625 7.07463 15.8039 7.83114 16.6548C8.58765 17.5057 9.56222 18.1338 10.6496 18.4712C11.7371 18.8087 12.896 18.8427 14.0013 18.5696C15.1067 18.2964 16.1164 17.7266 16.9215 16.9215C17.7266 16.1164 18.2964 15.1067 18.5696 14.0013C18.8427 12.896 18.8087 11.7371 18.4712 10.6496C18.1338 9.56222 17.5057 8.58765 16.6548 7.83114C15.8039 7.07463 14.7625 6.56493 13.643 6.35708ZM17.5 12.5001C17.5 12.6188 17.4946 12.7344 17.486 12.8524L13.5797 8.94615C13.6812 8.52329 13.7383 8.091 13.7501 7.6563C14.823 7.93486 15.7733 8.56151 16.4519 9.43806C17.1305 10.3146 17.4991 11.3915 17.5 12.5001ZM16.4477 15.5633L12.3368 11.4532C12.6405 11.082 12.9008 10.6773 13.1126 10.2469L17.1641 14.2969C16.9883 14.7517 16.747 15.1784 16.4477 15.5633ZM14.2969 17.1641L10.2454 13.1126C10.6757 12.9008 11.0804 12.6405 11.4516 12.3368L15.5618 16.4477C15.1773 16.7468 14.7512 16.9882 14.2969 17.1641ZM3.5524 4.43677L7.66333 8.54693C7.35959 8.91811 7.0993 9.32283 6.88755 9.75318L2.83599 5.70318C3.01176 5.24837 3.25312 4.82172 3.5524 4.43677ZM5.70318 2.83599L9.75474 6.88755C9.32439 7.0993 8.91967 7.35959 8.54849 7.66333L4.43677 3.5524C4.82172 3.25312 5.24837 3.01176 5.70318 2.83599ZM12.5001 7.50005C12.4986 8.82569 11.9714 10.0966 11.034 11.034C10.0966 11.9714 8.82569 12.4986 7.50005 12.5001C7.5015 11.1744 8.02875 9.90348 8.96612 8.96612C9.90348 8.02875 11.1744 7.5015 12.5001 7.50005ZM12.3438 6.25005C11.9098 6.26062 11.478 6.31639 11.0555 6.41646L7.14927 2.51021C7.26568 2.50552 7.3813 2.50005 7.50005 2.50005C8.60911 2.50119 9.68642 2.8704 10.563 3.54978C11.4396 4.22915 12.066 5.18027 12.3438 6.25396V6.25005ZM2.50005 7.50005C2.50005 7.3813 2.50552 7.26568 2.51411 7.14771L6.42036 11.054C6.32019 11.4769 6.26442 11.9092 6.25396 12.3438C5.18027 12.066 4.22915 11.4396 3.54978 10.563C2.8704 9.68642 2.50119 8.60911 2.50005 7.50005ZM7.6563 13.7501C8.09034 13.7395 8.5221 13.6837 8.94458 13.5836L12.8508 17.4899C12.7344 17.4985 12.6165 17.504 12.4985 17.504C11.3897 17.5025 10.3128 17.1331 9.43646 16.4538C8.56016 15.7744 7.93406 14.8235 7.6563 13.7501Z" fill="#191F2E"/>
</svg>
