<svg width="20" height="20" viewBox="0 0 20 20" fill="none" xmlns="http://www.w3.org/2000/svg">
<path d="M6.875 6.875V13.125H3.125C2.95924 13.125 2.80027 13.0592 2.68306 12.9419C2.56585 12.8247 2.5 12.6658 2.5 12.5V3.125C2.5 2.95924 2.56585 2.80027 2.68306 2.68306C2.80027 2.56585 2.95924 2.5 3.125 2.5H12.5C12.6658 2.5 12.8247 2.56585 12.9419 2.68306C13.0592 2.80027 13.125 2.95924 13.125 3.125V6.875H6.875ZM16.875 6.875H13.125V13.125H6.875V16.875C6.875 17.0408 6.94085 17.1997 7.05806 17.3169C7.17527 17.4342 7.33424 17.5 7.5 17.5H16.875C17.0408 17.5 17.1997 17.4342 17.3169 17.3169C17.4342 17.1997 17.5 17.0408 17.5 16.875V7.5C17.5 7.33424 17.4342 7.17527 17.3169 7.05806C17.1997 6.94085 17.0408 6.875 16.875 6.875Z" fill="#191F2E"/>
</svg>
