<svg width="20" height="20" viewBox="0 0 20 20" fill="none" xmlns="http://www.w3.org/2000/svg">
<path d="M10.625 7.5H9.375V3.3836L7.31719 5.44219C7.19991 5.55947 7.04085 5.62535 6.875 5.62535C6.70915 5.62535 6.55009 5.55947 6.43281 5.44219C6.31554 5.32492 6.24965 5.16586 6.24965 5C6.24965 4.83415 6.31554 4.67509 6.43281 4.55782L9.55781 1.43282C9.61586 1.37471 9.68479 1.32861 9.76066 1.29715C9.83654 1.2657 9.91787 1.24951 10 1.24951C10.0821 1.24951 10.1635 1.2657 10.2393 1.29715C10.3152 1.32861 10.3841 1.37471 10.4422 1.43282L13.5672 4.55782C13.6253 4.61589 13.6713 4.68482 13.7027 4.76069C13.7342 4.83656 13.7503 4.91788 13.7503 5C13.7503 5.08213 13.7342 5.16344 13.7027 5.23931C13.6713 5.31518 13.6253 5.38412 13.5672 5.44219C13.5091 5.50026 13.4402 5.54632 13.3643 5.57775C13.2884 5.60918 13.2071 5.62535 13.125 5.62535C13.0429 5.62535 12.9616 5.60918 12.8857 5.57775C12.8098 5.54632 12.7409 5.50026 12.6828 5.44219L10.625 3.3836V7.5ZM15.625 7.5H10.625V10.625C10.625 10.7908 10.5592 10.9497 10.4419 11.0669C10.3247 11.1842 10.1658 11.25 10 11.25C9.83424 11.25 9.67527 11.1842 9.55806 11.0669C9.44085 10.9497 9.375 10.7908 9.375 10.625V7.5H4.375C4.04348 7.5 3.72554 7.6317 3.49112 7.86612C3.2567 8.10054 3.125 8.41848 3.125 8.75V16.25C3.125 16.5815 3.2567 16.8995 3.49112 17.1339C3.72554 17.3683 4.04348 17.5 4.375 17.5H15.625C15.9565 17.5 16.2745 17.3683 16.5089 17.1339C16.7433 16.8995 16.875 16.5815 16.875 16.25V8.75C16.875 8.41848 16.7433 8.10054 16.5089 7.86612C16.2745 7.6317 15.9565 7.5 15.625 7.5Z" fill="#191F2E"/>
</svg>
