<svg width="20" height="20" viewBox="0 0 20 20" fill="none" xmlns="http://www.w3.org/2000/svg">
<path d="M4.21249 2.70462C4.15761 2.64275 4.09099 2.59239 4.01649 2.55645C3.942 2.52052 3.86111 2.49973 3.77853 2.49529C3.69594 2.49084 3.61329 2.50284 3.53537 2.53057C3.45746 2.5583 3.38582 2.60123 3.32461 2.65685C3.2634 2.71248 3.21384 2.7797 3.17881 2.85461C3.14377 2.92953 3.12395 3.01066 3.1205 3.09329C3.11704 3.17593 3.13003 3.25843 3.15869 3.33601C3.18736 3.41359 3.23114 3.48471 3.28749 3.54524L4.79062 5.19915C1.95312 6.94056 0.732805 9.62493 0.678899 9.74681C0.643362 9.82674 0.625 9.91324 0.625 10.0007C0.625 10.0882 0.643362 10.1747 0.678899 10.2546C0.706243 10.3163 1.36796 11.7835 2.83905 13.2546C4.79921 15.214 7.27499 16.2499 9.99999 16.2499C11.4005 16.2579 12.7868 15.9696 14.068 15.4038L15.7867 17.2952C15.8416 17.3571 15.9082 17.4075 15.9827 17.4434C16.0572 17.4793 16.1381 17.5001 16.2207 17.5046C16.3033 17.509 16.3859 17.497 16.4638 17.4693C16.5417 17.4416 16.6134 17.3986 16.6746 17.343C16.7358 17.2874 16.7854 17.2202 16.8204 17.1452C16.8554 17.0703 16.8753 16.9892 16.8787 16.9066C16.8822 16.8239 16.8692 16.7414 16.8405 16.6639C16.8118 16.5863 16.7681 16.5152 16.7117 16.4546L4.21249 2.70462ZM11.1656 12.2116C10.6754 12.4696 10.1134 12.5573 9.56783 12.4612C9.02229 12.3651 8.52413 12.0905 8.15157 11.6806C7.77901 11.2706 7.55314 10.7486 7.50945 10.1963C7.46575 9.64414 7.6067 9.09305 7.91015 8.62962L11.1656 12.2116ZM19.3211 10.2546C19.2883 10.3281 18.4969 12.0804 16.7148 13.6765C16.592 13.7867 16.4306 13.8439 16.2658 13.8355C16.101 13.8272 15.9462 13.754 15.8351 13.632L7.92187 4.92727C7.84617 4.8442 7.79426 4.74226 7.77163 4.63217C7.74899 4.52208 7.75646 4.40793 7.79325 4.30173C7.83004 4.19553 7.89478 4.10122 7.98066 4.02872C8.06654 3.95622 8.17038 3.90822 8.28124 3.88977C8.84934 3.79597 9.4242 3.7492 9.99999 3.74993C12.725 3.74993 15.2008 4.78587 17.1609 6.74602C18.632 8.21712 19.2937 9.68509 19.3211 9.74681C19.3566 9.82674 19.375 9.91324 19.375 10.0007C19.375 10.0882 19.3566 10.1747 19.3211 10.2546Z" fill="#191F2E"/>
</svg>
