<svg width="20" height="20" viewBox="0 0 20 20" fill="none" xmlns="http://www.w3.org/2000/svg">
<path d="M17.5 5.25784C17.4958 4.8817 17.4157 4.51029 17.2645 4.16583C17.1134 3.82137 16.8943 3.51095 16.6203 3.25316C15.5266 2.21566 13.7516 2.25472 12.6656 3.34144L10.8438 5.17191C10.4873 4.84702 10.0193 4.67199 9.53717 4.68319C9.05499 4.69439 8.59568 4.89097 8.25469 5.23206L7.86407 5.62269C7.74785 5.73878 7.65565 5.87664 7.59274 6.02839C7.52984 6.18014 7.49746 6.34279 7.49746 6.50706C7.49746 6.67133 7.52984 6.83399 7.59274 6.98574C7.65565 7.13749 7.74785 7.27535 7.86407 7.39144L8.02032 7.55238L4.03594 11.5368C3.65243 11.9173 3.37482 12.3913 3.23054 12.9119C3.08627 13.4326 3.08032 13.9819 3.21329 14.5055L2.58829 15.9438C2.50097 16.1413 2.47565 16.3606 2.51569 16.5728C2.55572 16.785 2.65922 16.98 2.8125 17.1321C2.98946 17.3107 3.21646 17.4315 3.46351 17.4783C3.71055 17.5252 3.96601 17.496 4.1961 17.3946L5.56563 16.7969C6.07976 16.9131 6.61494 16.8969 7.12114 16.7501C7.62735 16.6032 8.08804 16.3304 8.46016 15.9571L12.4445 11.9727L12.6055 12.1336C12.8399 12.3679 13.1577 12.4995 13.4891 12.4995C13.8204 12.4995 14.1383 12.3679 14.3727 12.1336L14.7633 11.743C15.105 11.4016 15.3017 10.9414 15.3125 10.4585C15.3232 9.97559 15.1472 9.50715 14.8211 9.15081L16.6766 7.28597C16.9433 7.02078 17.1538 6.70444 17.2952 6.35594C17.4367 6.00743 17.5064 5.63393 17.5 5.25784ZM10.7813 11.875H5.47422L8.91172 8.43753L11.5633 11.0938L10.7813 11.875Z" fill="#191F2E"/>
</svg>
