<svg width="20" height="20" viewBox="0 0 20 20" fill="none" xmlns="http://www.w3.org/2000/svg">
<path d="M17.8124 5.2531C17.8078 4.83506 17.7189 4.42225 17.5509 4.0394C17.383 3.65654 17.1395 3.31151 16.8351 3.02498C15.6179 1.87498 13.6492 1.91404 12.4445 3.11951L11.1312 4.4406C10.7101 4.15168 10.2011 4.01921 9.69257 4.06615C9.18403 4.1131 8.70793 4.3365 8.34682 4.69763L7.64369 5.40076C7.36136 5.68355 7.19811 6.06377 7.1875 6.46323C7.17689 6.86269 7.31974 7.25104 7.58666 7.54842L3.82025 11.3156C3.4118 11.7213 3.11243 12.2237 2.94991 12.776C2.78739 13.3283 2.76697 13.9127 2.89057 14.475L2.30463 15.8179C2.19212 16.0731 2.15959 16.3564 2.21133 16.6305C2.26307 16.9046 2.39666 17.1565 2.59447 17.3531C2.81598 17.5763 3.09994 17.727 3.40889 17.7854C3.71783 17.8439 4.03723 17.8073 4.32494 17.6804L5.59916 17.1234C6.15095 17.2307 6.72064 17.2006 7.25809 17.0359C7.79553 16.8712 8.28424 16.5769 8.68119 16.1789L12.4499 12.4086C12.7472 12.675 13.1352 12.8176 13.5343 12.807C13.9334 12.7964 14.3133 12.6334 14.596 12.3515L15.2992 11.6484C15.6604 11.2861 15.8835 10.8089 15.9299 10.2993C15.9762 9.78983 15.8429 9.28014 15.5531 8.85857L16.8999 7.50388C17.1957 7.20943 17.4289 6.8583 17.5857 6.47155C17.7425 6.0848 17.8196 5.67037 17.8124 5.2531ZM11.121 11.0859L10.6476 11.5625H6.22885L8.91166 8.8781L11.121 11.0859ZM7.35541 14.8523C7.15498 15.0532 6.90364 15.1956 6.62837 15.2645C6.35309 15.3333 6.06428 15.3258 5.79291 15.2429C5.57887 15.1767 5.34812 15.1897 5.14291 15.2797L4.45307 15.5765L4.74135 14.9219C4.83454 14.7083 4.84485 14.4676 4.77025 14.2469C4.68239 13.9862 4.66487 13.707 4.71947 13.4375H8.7726L7.35541 14.8523ZM15.5695 6.18045L13.5874 8.1742C13.5 8.26129 13.4307 8.36479 13.3834 8.47874C13.3361 8.5927 13.3117 8.71487 13.3117 8.83826C13.3117 8.96165 13.3361 9.08382 13.3834 9.19778C13.4307 9.31173 13.5 9.41522 13.5874 9.50232L13.9687 9.88357C13.9977 9.91259 14.0208 9.94706 14.0365 9.985C14.0522 10.0229 14.0603 10.0636 14.0603 10.1047C14.0603 10.1457 14.0522 10.1864 14.0365 10.2243C14.0208 10.2623 13.9977 10.2967 13.9687 10.3258L13.489 10.8062L13.1078 10.4242L9.57416 6.88592L9.19291 6.50388L9.6726 6.0242C9.70162 5.99514 9.73609 5.97209 9.77402 5.95637C9.81196 5.94064 9.85262 5.93254 9.89369 5.93254C9.93476 5.93254 9.97542 5.94064 10.0134 5.95637C10.0513 5.97209 10.0858 5.99514 10.1148 6.0242L10.496 6.40623C10.5832 6.49326 10.6866 6.56227 10.8004 6.60932C10.9142 6.65638 11.0362 6.68054 11.1593 6.68045C11.2826 6.68065 11.4047 6.65653 11.5187 6.60947C11.6326 6.56242 11.7362 6.49335 11.8234 6.40623L13.7718 4.44685C14.264 3.95467 15.0593 3.92888 15.546 4.38904C15.6681 4.50402 15.7657 4.64237 15.8332 4.79587C15.9006 4.94936 15.9365 5.11486 15.9387 5.28251C15.9409 5.45016 15.9093 5.61654 15.8459 5.77174C15.7825 5.92694 15.6885 6.06779 15.5695 6.18592V6.18045Z" fill="#191F2E"/>
</svg>
