<svg width="20" height="20" viewBox="0 0 20 20" fill="none" xmlns="http://www.w3.org/2000/svg">
<path d="M15.625 2.8125C15.3764 2.8125 15.1379 2.91127 14.9621 3.08709C14.7863 3.2629 14.6875 3.50136 14.6875 3.75C14.6875 3.99864 14.7863 4.2371 14.9621 4.41291C15.1379 4.58873 15.3764 4.6875 15.625 4.6875C15.8736 4.6875 16.1121 4.78627 16.2879 4.96209C16.4637 5.1379 16.5625 5.37636 16.5625 5.625V9.56719C16.0861 9.29111 15.5547 9.12347 15.0061 9.0762C14.4575 9.02894 13.9052 9.10322 13.3886 9.29375C12.872 9.48428 12.4038 9.78637 12.0173 10.1785C11.6307 10.5707 11.3354 11.0432 11.1523 11.5625H8.84766C8.66459 11.0432 8.36928 10.5707 7.98275 10.1785C7.59622 9.78637 7.12798 9.48428 6.61137 9.29375C6.09476 9.10322 5.5425 9.02894 4.99391 9.0762C4.44533 9.12347 3.91391 9.29111 3.4375 9.56719V5.625C3.4375 5.37636 3.53627 5.1379 3.71209 4.96209C3.8879 4.78627 4.12636 4.6875 4.375 4.6875C4.62364 4.6875 4.8621 4.58873 5.03791 4.41291C5.21373 4.2371 5.3125 3.99864 5.3125 3.75C5.3125 3.50136 5.21373 3.2629 5.03791 3.08709C4.8621 2.91127 4.62364 2.8125 4.375 2.8125C3.62908 2.8125 2.91371 3.10882 2.38626 3.63626C1.85882 4.16371 1.5625 4.87908 1.5625 5.625V12.8125C1.56349 13.7521 1.91717 14.6571 2.55353 15.3483C3.1899 16.0396 4.06258 16.4668 4.99887 16.5454C5.93516 16.624 6.86684 16.3482 7.60953 15.7727C8.35221 15.1971 8.85178 14.3638 9.00938 13.4375H10.9906C11.1482 14.3638 11.6478 15.1971 12.3905 15.7727C13.1332 16.3482 14.0648 16.624 15.0011 16.5454C15.9374 16.4668 16.8101 16.0396 17.4465 15.3483C18.0828 14.6571 18.4365 13.7521 18.4375 12.8125V5.625C18.4375 4.87908 18.1412 4.16371 17.6137 3.63626C17.0863 3.10882 16.3709 2.8125 15.625 2.8125ZM5.3125 14.6875C4.94166 14.6875 4.57915 14.5775 4.27081 14.3715C3.96246 14.1655 3.72214 13.8726 3.58023 13.53C3.43831 13.1874 3.40118 12.8104 3.47353 12.4467C3.54588 12.083 3.72445 11.7489 3.98667 11.4867C4.2489 11.2245 4.58299 11.0459 4.94671 10.9735C5.31042 10.9012 5.68742 10.9383 6.03003 11.0802C6.37264 11.2221 6.66548 11.4625 6.87151 11.7708C7.07753 12.0791 7.1875 12.4417 7.1875 12.8125C7.1875 13.3098 6.98996 13.7867 6.63833 14.1383C6.28669 14.49 5.80978 14.6875 5.3125 14.6875ZM14.6875 14.6875C14.3167 14.6875 13.9541 14.5775 13.6458 14.3715C13.3375 14.1655 13.0971 13.8726 12.9552 13.53C12.8133 13.1874 12.7762 12.8104 12.8485 12.4467C12.9209 12.083 13.0995 11.7489 13.3617 11.4867C13.6239 11.2245 13.958 11.0459 14.3217 10.9735C14.6854 10.9012 15.0624 10.9383 15.405 11.0802C15.7476 11.2221 16.0405 11.4625 16.2465 11.7708C16.4525 12.0791 16.5625 12.4417 16.5625 12.8125C16.5625 13.3098 16.365 13.7867 16.0133 14.1383C15.6617 14.49 15.1848 14.6875 14.6875 14.6875Z" fill="#191F2E"/>
</svg>
