<svg width="20" height="20" viewBox="0 0 20 20" fill="none" xmlns="http://www.w3.org/2000/svg">
<path d="M15.625 3.125C15.4592 3.125 15.3003 3.19085 15.1831 3.30806C15.0658 3.42527 15 3.58424 15 3.75C15 3.91576 15.0658 4.07473 15.1831 4.19194C15.3003 4.30915 15.4592 4.375 15.625 4.375C15.9565 4.375 16.2745 4.5067 16.5089 4.74112C16.7433 4.97554 16.875 5.29348 16.875 5.625V10.1625C16.4344 9.7991 15.9101 9.55123 15.3497 9.44127C14.7892 9.33131 14.2102 9.36274 13.6649 9.53271C13.1196 9.70268 12.6253 10.0058 12.2266 10.4148C11.8279 10.8237 11.5373 11.3256 11.3812 11.875H8.61875C8.46266 11.3256 8.17212 10.8237 7.77341 10.4148C7.3747 10.0058 6.88037 9.70268 6.3351 9.53271C5.78983 9.36274 5.2108 9.33131 4.65033 9.44127C4.08987 9.55123 3.56563 9.7991 3.125 10.1625V5.625C3.125 5.29348 3.2567 4.97554 3.49112 4.74112C3.72554 4.5067 4.04348 4.375 4.375 4.375C4.54076 4.375 4.69973 4.30915 4.81694 4.19194C4.93415 4.07473 5 3.91576 5 3.75C5 3.58424 4.93415 3.42527 4.81694 3.30806C4.69973 3.19085 4.54076 3.125 4.375 3.125C3.71196 3.125 3.07607 3.38839 2.60723 3.85723C2.13839 4.32607 1.875 4.96196 1.875 5.625V12.8125C1.87668 13.696 2.21845 14.5449 2.82939 15.1831C3.44032 15.8212 4.27351 16.1997 5.15607 16.2399C6.03862 16.2801 6.90277 15.979 7.5692 15.399C8.23563 14.819 8.65316 14.0047 8.73516 13.125H11.2648C11.3468 14.0047 11.7644 14.819 12.4308 15.399C13.0972 15.979 13.9614 16.2801 14.8439 16.2399C15.7265 16.1997 16.5597 15.8212 17.1706 15.1831C17.7815 14.5449 18.1233 13.696 18.125 12.8125V5.625C18.125 4.96196 17.8616 4.32607 17.3928 3.85723C16.9239 3.38839 16.288 3.125 15.625 3.125ZM5.3125 15C4.87985 15 4.45692 14.8717 4.09719 14.6313C3.73746 14.391 3.45708 14.0493 3.29151 13.6496C3.12595 13.2499 3.08263 12.8101 3.16703 12.3857C3.25144 11.9614 3.45978 11.5716 3.7657 11.2657C4.07163 10.9598 4.46141 10.7514 4.88574 10.667C5.31007 10.5826 5.74991 10.6259 6.14962 10.7915C6.54933 10.9571 6.89097 11.2375 7.13134 11.5972C7.37171 11.9569 7.5 12.3799 7.5 12.8125C7.5 13.3927 7.26953 13.9491 6.8593 14.3593C6.44906 14.7695 5.89266 15 5.3125 15ZM14.6875 15C14.2549 15 13.8319 14.8717 13.4722 14.6313C13.1125 14.391 12.8321 14.0493 12.6665 13.6496C12.5009 13.2499 12.4576 12.8101 12.542 12.3857C12.6264 11.9614 12.8348 11.5716 13.1407 11.2657C13.4466 10.9598 13.8364 10.7514 14.2607 10.667C14.6851 10.5826 15.1249 10.6259 15.5246 10.7915C15.9243 10.9571 16.266 11.2375 16.5063 11.5972C16.7467 11.9569 16.875 12.3799 16.875 12.8125C16.875 13.3927 16.6445 13.9491 16.2343 14.3593C15.8241 14.7695 15.2677 15 14.6875 15Z" fill="#191F2E"/>
</svg>
