<svg width="20" height="20" viewBox="0 0 20 20" fill="none" xmlns="http://www.w3.org/2000/svg">
<path d="M18.125 5.625V12.8125C18.1233 13.696 17.7815 14.5449 17.1706 15.1831C16.5597 15.8212 15.7265 16.1997 14.8439 16.2399C13.9614 16.2801 13.0972 15.979 12.4308 15.399C11.7644 14.819 11.3468 14.0047 11.2648 13.125H8.73516C8.65316 14.0047 8.23563 14.819 7.5692 15.399C6.90277 15.979 6.03862 16.2801 5.15607 16.2399C4.27351 16.1997 3.44032 15.8212 2.82939 15.1831C2.21845 14.5449 1.87668 13.696 1.875 12.8125V5.625C1.875 4.96196 2.13839 4.32607 2.60723 3.85723C3.07607 3.38839 3.71196 3.125 4.375 3.125C4.54076 3.125 4.69973 3.19085 4.81694 3.30806C4.93415 3.42527 5 3.58424 5 3.75C5 3.91576 4.93415 4.07473 4.81694 4.19194C4.69973 4.30915 4.54076 4.375 4.375 4.375C4.04348 4.375 3.72554 4.5067 3.49112 4.74112C3.2567 4.97554 3.125 5.29348 3.125 5.625V10.1625C3.56563 9.7991 4.08987 9.55123 4.65033 9.44127C5.2108 9.33131 5.78983 9.36274 6.3351 9.53271C6.88037 9.70268 7.3747 10.0058 7.77341 10.4148C8.17212 10.8237 8.46266 11.3256 8.61875 11.875H11.3812C11.5373 11.3256 11.8279 10.8237 12.2266 10.4148C12.6253 10.0058 13.1196 9.70268 13.6649 9.53271C14.2102 9.36274 14.7892 9.33131 15.3497 9.44127C15.9101 9.55123 16.4344 9.7991 16.875 10.1625V5.625C16.875 5.29348 16.7433 4.97554 16.5089 4.74112C16.2745 4.5067 15.9565 4.375 15.625 4.375C15.4592 4.375 15.3003 4.30915 15.1831 4.19194C15.0658 4.07473 15 3.91576 15 3.75C15 3.58424 15.0658 3.42527 15.1831 3.30806C15.3003 3.19085 15.4592 3.125 15.625 3.125C16.288 3.125 16.9239 3.38839 17.3928 3.85723C17.8616 4.32607 18.125 4.96196 18.125 5.625Z" fill="#191F2E"/>
</svg>
