<svg width="20" height="20" viewBox="0 0 20 20" fill="none" xmlns="http://www.w3.org/2000/svg">
<path d="M10 1.5625C8.33122 1.5625 6.69992 2.05735 5.31238 2.98448C3.92484 3.9116 2.84338 5.22936 2.20477 6.77111C1.56616 8.31286 1.39907 10.0094 1.72463 11.6461C2.05019 13.2828 2.85379 14.7862 4.03379 15.9662C5.2138 17.1462 6.71721 17.9498 8.35393 18.2754C9.99064 18.6009 11.6871 18.4338 13.2289 17.7952C14.7706 17.1566 16.0884 16.0752 17.0155 14.6876C17.9427 13.3001 18.4375 11.6688 18.4375 10C18.435 7.763 17.5453 5.61833 15.9635 4.03653C14.3817 2.45473 12.237 1.56498 10 1.5625ZM10.9375 16.4945V12.1875H12.5C12.7486 12.1875 12.9871 12.0887 13.1629 11.9129C13.3387 11.7371 13.4375 11.4986 13.4375 11.25C13.4375 11.0014 13.3387 10.7629 13.1629 10.5871C12.9871 10.4113 12.7486 10.3125 12.5 10.3125H10.9375V8.75C10.9375 8.50136 11.0363 8.2629 11.2121 8.08709C11.3879 7.91127 11.6264 7.8125 11.875 7.8125H13.125C13.3736 7.8125 13.6121 7.71373 13.7879 7.53791C13.9637 7.3621 14.0625 7.12364 14.0625 6.875C14.0625 6.62636 13.9637 6.3879 13.7879 6.21209C13.6121 6.03627 13.3736 5.9375 13.125 5.9375H11.875C11.1291 5.9375 10.4137 6.23382 9.88627 6.76126C9.35882 7.28871 9.0625 8.00408 9.0625 8.75V10.3125H7.5C7.25136 10.3125 7.01291 10.4113 6.83709 10.5871C6.66128 10.7629 6.5625 11.0014 6.5625 11.25C6.5625 11.4986 6.66128 11.7371 6.83709 11.9129C7.01291 12.0887 7.25136 12.1875 7.5 12.1875H9.0625V16.4945C7.42039 16.2575 5.929 15.4073 4.88848 14.115C3.84795 12.8227 3.33554 11.1843 3.45435 9.52938C3.57317 7.87451 4.31439 6.32607 5.52886 5.19567C6.74332 4.06528 8.34087 3.43684 10 3.43684C11.6591 3.43684 13.2567 4.06528 14.4712 5.19567C15.6856 6.32607 16.4268 7.87451 16.5457 9.52938C16.6645 11.1843 16.1521 12.8227 15.1115 14.115C14.071 15.4073 12.5796 16.2575 10.9375 16.4945Z" fill="#191F2E"/>
</svg>
