<svg width="20" height="20" viewBox="0 0 20 20" fill="none" xmlns="http://www.w3.org/2000/svg">
<path d="M6.875 6.87489H13.125C13.3736 6.87489 13.6121 6.97366 13.7879 7.14948C13.9637 7.32529 14.0625 7.56375 14.0625 7.81239C14.0625 8.06103 13.9637 8.29949 13.7879 8.47531C13.6121 8.65112 13.3736 8.74989 13.125 8.74989H6.875C6.62636 8.74989 6.3879 8.65112 6.21209 8.47531C6.03627 8.29949 5.9375 8.06103 5.9375 7.81239C5.9375 7.56375 6.03627 7.32529 6.21209 7.14948C6.3879 6.97366 6.62636 6.87489 6.875 6.87489ZM13.125 9.99989H6.875C6.62636 9.99989 6.3879 10.0987 6.21209 10.2745C6.03627 10.4503 5.9375 10.6888 5.9375 10.9374C5.9375 11.186 6.03627 11.4245 6.21209 11.6003C6.3879 11.7761 6.62636 11.8749 6.875 11.8749H13.125C13.3736 11.8749 13.6121 11.7761 13.7879 11.6003C13.9637 11.4245 14.0625 11.186 14.0625 10.9374C14.0625 10.6888 13.9637 10.4503 13.7879 10.2745C13.6121 10.0987 13.3736 9.99989 13.125 9.99989ZM20 8.12489V9.99989C19.999 10.7455 19.7023 11.4603 19.1751 11.9875C18.6479 12.5147 17.9331 12.8114 17.1875 12.8124H16.7109C16.2062 13.8999 15.3047 14.8577 14.0398 15.6436C12.5445 16.5702 10.9664 17.003 10.3578 17.146C10.1225 17.2012 9.87753 17.2012 9.64219 17.146C8.70469 16.9249 4.66563 15.8179 3.28125 12.8124H2.8125C2.0669 12.8114 1.35213 12.5147 0.824904 11.9875C0.297681 11.4603 0.00103341 10.7455 0 9.99989L0 8.12489C0.00103341 7.37929 0.297681 6.66452 0.824904 6.1373C1.35213 5.61007 2.0669 5.31343 2.8125 5.31239H2.975C3.14553 4.96802 3.43745 4.69893 3.79453 4.55692L9.41953 2.30536C9.79198 2.15537 10.208 2.15537 10.5805 2.30536L16.2055 4.55692C16.5625 4.69893 16.8545 4.96802 17.025 5.31239H17.1875C17.9331 5.31343 18.6479 5.61007 19.1751 6.1373C19.7023 6.66452 19.999 7.37929 20 8.12489ZM2.82109 10.9374C2.81641 10.8382 2.8125 10.7382 2.8125 10.6366V7.18739C2.56386 7.18739 2.3254 7.28616 2.14959 7.46198C1.97377 7.63779 1.875 7.87625 1.875 8.12489V9.99989C1.875 10.2485 1.97377 10.487 2.14959 10.6628C2.3254 10.8386 2.56386 10.9374 2.8125 10.9374H2.82109ZM15.3125 6.21474L10 4.08817L4.6875 6.21474V10.6358C4.6875 11.971 5.44766 13.1186 6.94687 14.0483C8.17578 14.81 9.51875 15.1843 10 15.3022C10.4812 15.1843 11.8242 14.81 13.0531 14.0483C14.5523 13.1186 15.3125 11.971 15.3125 10.6358V6.21474ZM18.125 8.12489C18.125 7.87625 18.0262 7.63779 17.8504 7.46198C17.6746 7.28616 17.4361 7.18739 17.1875 7.18739V10.6397C17.1875 10.7405 17.1875 10.8405 17.1781 10.9405H17.1875C17.4361 10.9405 17.6746 10.8417 17.8504 10.6659C18.0262 10.4901 18.125 10.2517 18.125 10.003V8.12489Z" fill="#191F2E"/>
</svg>
