<svg width="20" height="20" viewBox="0 0 20 20" fill="none" xmlns="http://www.w3.org/2000/svg">
<path d="M13.75 8.12502C13.75 8.29078 13.6842 8.44975 13.5669 8.56696C13.4497 8.68417 13.2908 8.75002 13.125 8.75002H6.875C6.70924 8.75002 6.55027 8.68417 6.43306 8.56696C6.31585 8.44975 6.25 8.29078 6.25 8.12502C6.25 7.95926 6.31585 7.80029 6.43306 7.68308C6.55027 7.56587 6.70924 7.50002 6.875 7.50002H13.125C13.2908 7.50002 13.4497 7.56587 13.5669 7.68308C13.6842 7.80029 13.75 7.95926 13.75 8.12502ZM13.125 10H6.875C6.70924 10 6.55027 10.0659 6.43306 10.1831C6.31585 10.3003 6.25 10.4593 6.25 10.625C6.25 10.7908 6.31585 10.9498 6.43306 11.067C6.55027 11.1842 6.70924 11.25 6.875 11.25H13.125C13.2908 11.25 13.4497 11.1842 13.5669 11.067C13.6842 10.9498 13.75 10.7908 13.75 10.625C13.75 10.4593 13.6842 10.3003 13.5669 10.1831C13.4497 10.0659 13.2908 10 13.125 10ZM20 8.12502V10C20 10.6631 19.7366 11.2989 19.2678 11.7678C18.7989 12.2366 18.163 12.5 17.5 12.5H17.0992C16.5883 13.6281 15.5945 14.6188 14.1539 15.4188C12.5133 16.3313 10.7539 16.7469 10.2539 16.8485C10.0865 16.8839 9.91351 16.8839 9.74609 16.8485C9.24609 16.7438 7.48828 16.3313 5.84609 15.4188C4.40547 14.6188 3.41172 13.6281 2.90078 12.5H2.5C1.83696 12.5 1.20107 12.2366 0.732233 11.7678C0.263392 11.2989 0 10.6631 0 10V8.12502C0 7.46198 0.263392 6.82609 0.732233 6.35725C1.20107 5.88841 1.83696 5.62502 2.5 5.62502H2.56641C2.62549 5.44625 2.72418 5.28314 2.85514 5.14786C2.98609 5.01258 3.1459 4.90863 3.32266 4.84377L9.57266 2.57111C9.84877 2.47109 10.1512 2.47109 10.4273 2.57111L16.6773 4.84377C16.8541 4.90863 17.0139 5.01258 17.1449 5.14786C17.2758 5.28314 17.3745 5.44625 17.4336 5.62502H17.5C18.163 5.62502 18.7989 5.88841 19.2678 6.35725C19.7366 6.82609 20 7.46198 20 8.12502ZM2.54141 11.25C2.51419 11.0467 2.50036 10.8419 2.5 10.6367V6.87502C2.16848 6.87502 1.85054 7.00672 1.61612 7.24114C1.3817 7.47556 1.25 7.7935 1.25 8.12502V10C1.25 10.3315 1.3817 10.6495 1.61612 10.8839C1.85054 11.1183 2.16848 11.25 2.5 11.25H2.54141ZM16.25 10.6367V6.02268L10 3.75002L3.75 6.02268V10.6367C3.75 14.2117 9.3625 15.4906 10 15.625C10.6375 15.4906 16.25 14.2117 16.25 10.6367ZM18.75 8.12502C18.75 7.7935 18.6183 7.47556 18.3839 7.24114C18.1495 7.00672 17.8315 6.87502 17.5 6.87502V10.6367C17.4996 10.8419 17.4858 11.0467 17.4586 11.25H17.5C17.8315 11.25 18.1495 11.1183 18.3839 10.8839C18.6183 10.6495 18.75 10.3315 18.75 10V8.12502Z" fill="#191F2E"/>
</svg>
