<svg width="20" height="20" viewBox="0 0 20 20" fill="none" xmlns="http://www.w3.org/2000/svg">
<path d="M17.5 5.62482H17.4336C17.3745 5.44606 17.2758 5.28294 17.1449 5.14766C17.0139 5.01238 16.8541 4.90843 16.6773 4.84357L10.4273 2.57795C10.1512 2.47792 9.84877 2.47792 9.57266 2.57795L3.32266 4.8506C3.1459 4.91547 2.98609 5.01942 2.85514 5.15469C2.72418 5.28997 2.62549 5.45309 2.56641 5.63185H2.5C1.83818 5.63185 1.20335 5.89428 0.734714 6.3616C0.266075 6.82892 0.00186138 7.463 0 8.12482L0 9.99982C0 10.6629 0.263392 11.2987 0.732233 11.7676C1.20107 12.2364 1.83696 12.4998 2.5 12.4998H2.90078C3.41172 13.6279 4.40547 14.6186 5.84609 15.4186C7.48672 16.3311 9.24609 16.7467 9.74609 16.8483C9.91351 16.8837 10.0865 16.8837 10.2539 16.8483C10.7539 16.7436 12.5117 16.3311 14.1539 15.4186C15.5945 14.6186 16.5883 13.6279 17.0992 12.4998H17.5C18.163 12.4998 18.7989 12.2364 19.2678 11.7676C19.7366 11.2987 20 10.6629 20 9.99982V8.12482C20 7.46178 19.7366 6.8259 19.2678 6.35706C18.7989 5.88822 18.163 5.62482 17.5 5.62482ZM2.5 11.2498C2.16848 11.2498 1.85054 11.1181 1.61612 10.8837C1.3817 10.6493 1.25 10.3313 1.25 9.99982V8.12482C1.25 7.7933 1.3817 7.47536 1.61612 7.24094C1.85054 7.00652 2.16848 6.87482 2.5 6.87482V10.6365C2.50036 10.8417 2.51419 11.0465 2.54141 11.2498H2.5ZM13.125 11.2498H6.875C6.70924 11.2498 6.55027 11.184 6.43306 11.0668C6.31585 10.9496 6.25 10.7906 6.25 10.6248C6.25 10.4591 6.31585 10.3001 6.43306 10.1829C6.55027 10.0657 6.70924 9.99982 6.875 9.99982H13.125C13.2908 9.99982 13.4497 10.0657 13.5669 10.1829C13.6842 10.3001 13.75 10.4591 13.75 10.6248C13.75 10.7906 13.6842 10.9496 13.5669 11.0668C13.4497 11.184 13.2908 11.2498 13.125 11.2498ZM13.125 8.74982H6.875C6.70924 8.74982 6.55027 8.68398 6.43306 8.56677C6.31585 8.44955 6.25 8.29058 6.25 8.12482C6.25 7.95906 6.31585 7.80009 6.43306 7.68288C6.55027 7.56567 6.70924 7.49982 6.875 7.49982H13.125C13.2908 7.49982 13.4497 7.56567 13.5669 7.68288C13.6842 7.80009 13.75 7.95906 13.75 8.12482C13.75 8.29058 13.6842 8.44955 13.5669 8.56677C13.4497 8.68398 13.2908 8.74982 13.125 8.74982ZM18.75 9.99982C18.75 10.3313 18.6183 10.6493 18.3839 10.8837C18.1495 11.1181 17.8315 11.2498 17.5 11.2498H17.4586C17.4858 11.0465 17.4996 10.8417 17.5 10.6365V6.87482C17.8315 6.87482 18.1495 7.00652 18.3839 7.24094C18.6183 7.47536 18.75 7.7933 18.75 8.12482V9.99982Z" fill="#191F2E"/>
</svg>
