<svg width="20" height="20" viewBox="0 0 20 20" fill="none" xmlns="http://www.w3.org/2000/svg">
<path d="M18.75 16.25H17.5V10.625C17.5 10.6211 17.5 10.618 17.5 10.6141C17.5 10.6102 17.5 10.5914 17.5 10.5805C17.5 10.5695 17.5 10.5586 17.5 10.5484C17.5004 10.5445 17.5004 10.5406 17.5 10.5367L16.3281 2.32344C16.2842 2.02473 16.1341 1.75184 15.9055 1.55471C15.6768 1.35759 15.3847 1.24942 15.0828 1.25H13.6672C13.3666 1.25129 13.0765 1.36031 12.8494 1.55726C12.6223 1.75422 12.4734 2.02606 12.4297 2.32344L11.5266 8.64453L8.5 6.375C8.40714 6.30536 8.29673 6.26295 8.18113 6.25253C8.06553 6.2421 7.94931 6.26408 7.84549 6.31599C7.74168 6.36789 7.65437 6.44769 7.59334 6.54642C7.53232 6.64516 7.5 6.75893 7.5 6.875V9.375L3.5 6.375C3.40714 6.30536 3.29673 6.26295 3.18113 6.25253C3.06553 6.2421 2.94931 6.26408 2.84549 6.31599C2.74168 6.36789 2.65436 6.44769 2.59334 6.54642C2.53232 6.64516 2.5 6.75893 2.5 6.875V16.25H1.25C1.08424 16.25 0.925268 16.3159 0.808058 16.4331C0.690848 16.5503 0.625 16.7092 0.625 16.875C0.625 17.0408 0.690848 17.1997 0.808058 17.3169C0.925268 17.4342 1.08424 17.5 1.25 17.5H18.75C18.9158 17.5 19.0747 17.4342 19.1919 17.3169C19.3092 17.1997 19.375 17.0408 19.375 16.875C19.375 16.7092 19.3092 16.5503 19.1919 16.4331C19.0747 16.3159 18.9158 16.25 18.75 16.25ZM8.4375 14.375H6.25C6.08424 14.375 5.92527 14.3092 5.80806 14.1919C5.69085 14.0747 5.625 13.9158 5.625 13.75C5.625 13.5842 5.69085 13.4253 5.80806 13.3081C5.92527 13.1909 6.08424 13.125 6.25 13.125H8.4375C8.60326 13.125 8.76223 13.1909 8.87944 13.3081C8.99665 13.4253 9.0625 13.5842 9.0625 13.75C9.0625 13.9158 8.99665 14.0747 8.87944 14.1919C8.76223 14.3092 8.60326 14.375 8.4375 14.375ZM13.75 14.375H11.5625C11.3967 14.375 11.2378 14.3092 11.1206 14.1919C11.0033 14.0747 10.9375 13.9158 10.9375 13.75C10.9375 13.5842 11.0033 13.4253 11.1206 13.3081C11.2378 13.1909 11.3967 13.125 11.5625 13.125H13.75C13.9158 13.125 14.0747 13.1909 14.1919 13.3081C14.3092 13.4253 14.375 13.5842 14.375 13.75C14.375 13.9158 14.3092 14.0747 14.1919 14.1919C14.0747 14.3092 13.9158 14.375 13.75 14.375ZM13.3336 10L12.6672 9.5L13.6672 2.5H15.0828L16.1547 10H13.3336Z" fill="#191F2E"/>
</svg>
