<svg width="20" height="20" viewBox="0 0 20 20" fill="none" xmlns="http://www.w3.org/2000/svg">
<path d="M2.1875 6.25C2.1875 6.00136 2.28627 5.7629 2.46209 5.58709C2.6379 5.41127 2.87636 5.3125 3.125 5.3125H5.3125C5.56114 5.3125 5.7996 5.41127 5.97541 5.58709C6.15123 5.7629 6.25 6.00136 6.25 6.25C6.25 6.49864 6.15123 6.7371 5.97541 6.91291C5.7996 7.08873 5.56114 7.1875 5.3125 7.1875H3.125C2.87636 7.1875 2.6379 7.08873 2.46209 6.91291C2.28627 6.7371 2.1875 6.49864 2.1875 6.25ZM16.875 12.8125H14.375V11.875C14.375 11.6264 14.2762 11.3879 14.1004 11.2121C13.9246 11.0363 13.6861 10.9375 13.4375 10.9375C13.1889 10.9375 12.9504 11.0363 12.7746 11.2121C12.5988 11.3879 12.5 11.6264 12.5 11.875V15.625C12.5 15.8736 12.5988 16.1121 12.7746 16.2879C12.9504 16.4637 13.1889 16.5625 13.4375 16.5625C13.6861 16.5625 13.9246 16.4637 14.1004 16.2879C14.2762 16.1121 14.375 15.8736 14.375 15.625V14.6875H16.875C17.1236 14.6875 17.3621 14.5887 17.5379 14.4129C17.7137 14.2371 17.8125 13.9986 17.8125 13.75C17.8125 13.5014 17.7137 13.2629 17.5379 13.0871C17.3621 12.9113 17.1236 12.8125 16.875 12.8125ZM10.3125 12.8125H3.125C2.87636 12.8125 2.6379 12.9113 2.46209 13.0871C2.28627 13.2629 2.1875 13.5014 2.1875 13.75C2.1875 13.9986 2.28627 14.2371 2.46209 14.4129C2.6379 14.5887 2.87636 14.6875 3.125 14.6875H10.3125C10.5611 14.6875 10.7996 14.5887 10.9754 14.4129C11.1512 14.2371 11.25 13.9986 11.25 13.75C11.25 13.5014 11.1512 13.2629 10.9754 13.0871C10.7996 12.9113 10.5611 12.8125 10.3125 12.8125ZM8.4375 9.0625C8.68614 9.0625 8.9246 8.96373 9.10041 8.78791C9.27623 8.6121 9.375 8.37364 9.375 8.125V7.1875H16.875C17.1236 7.1875 17.3621 7.08873 17.5379 6.91291C17.7137 6.7371 17.8125 6.49864 17.8125 6.25C17.8125 6.00136 17.7137 5.7629 17.5379 5.58709C17.3621 5.41127 17.1236 5.3125 16.875 5.3125H9.375V4.375C9.375 4.12636 9.27623 3.8879 9.10041 3.71209C8.9246 3.53627 8.68614 3.4375 8.4375 3.4375C8.18886 3.4375 7.9504 3.53627 7.77459 3.71209C7.59877 3.8879 7.5 4.12636 7.5 4.375V8.125C7.5 8.37364 7.59877 8.6121 7.77459 8.78791C7.9504 8.96373 8.18886 9.0625 8.4375 9.0625Z" fill="#191F2E"/>
</svg>
