<svg width="20" height="20" viewBox="0 0 20 20" fill="none" xmlns="http://www.w3.org/2000/svg">
<path d="M18.5039 10.4688C18.3178 9.77339 17.9838 9.1264 17.5246 8.57202C17.0655 8.01764 16.4921 7.56893 15.8435 7.25657C15.195 6.94421 14.4867 6.77557 13.767 6.76216C13.0473 6.74876 12.3332 6.89091 11.6734 7.17891L12.7844 2.74375C12.8317 2.55349 12.8182 2.35317 12.7457 2.17099C12.6733 1.9888 12.5455 1.83392 12.3805 1.72812C11.2878 1.03556 9.96917 0.793482 8.70173 1.05275C7.43429 1.31202 6.31667 2.05245 5.58371 3.11847C4.85074 4.18449 4.55949 5.49311 4.77115 6.76936C4.98281 8.04562 5.68091 9.19016 6.71875 9.9625L2.32188 11.218C2.13292 11.272 1.96572 11.384 1.84389 11.5382C1.72207 11.6924 1.65178 11.881 1.64297 12.0773C1.57702 13.3779 2.02106 14.6529 2.88065 15.6311C3.74024 16.6093 4.94755 17.2135 6.24578 17.3153C7.54402 17.4171 8.83074 17.0083 9.83226 16.176C10.8338 15.3437 11.4711 14.1535 11.6086 12.8586L14.8898 16.0383C15.0313 16.1744 15.2118 16.2627 15.4061 16.2907C15.6004 16.3188 15.7985 16.2851 15.9727 16.1945C16.9833 15.6708 17.785 14.8179 18.2453 13.7768C18.7055 12.7357 18.7968 11.5687 18.5039 10.4688ZM9.0625 10C9.0625 9.81458 9.11749 9.63332 9.2205 9.47915C9.32352 9.32498 9.46993 9.20482 9.64124 9.13386C9.81254 9.06291 10.001 9.04434 10.1829 9.08051C10.3648 9.11669 10.5318 9.20598 10.6629 9.33709C10.794 9.4682 10.8833 9.63525 10.9195 9.8171C10.9557 9.99896 10.9371 10.1875 10.8661 10.3588C10.7952 10.5301 10.675 10.6765 10.5209 10.7795C10.3667 10.8825 10.1854 10.9375 10 10.9375C9.75136 10.9375 9.51291 10.8387 9.33709 10.6629C9.16128 10.4871 9.0625 10.2486 9.0625 10ZM9.6875 2.8125C10.061 2.8125 10.4314 2.87944 10.7813 3.01016L9.73438 7.20078C9.33423 7.23898 8.94693 7.36251 8.59856 7.56304C8.25019 7.76357 7.94885 8.03645 7.71485 8.36328C7.21354 7.95615 6.85068 7.4037 6.67618 6.78192C6.50167 6.16014 6.52409 5.49956 6.74035 4.89104C6.9566 4.28252 7.35608 3.75595 7.88383 3.38374C8.41159 3.01153 9.0417 2.81197 9.6875 2.8125ZM8.20313 15.0078C7.76561 15.261 7.27321 15.4043 6.76815 15.4254C6.2631 15.4464 5.76047 15.3447 5.30339 15.1288C4.8463 14.9129 4.44841 14.5894 4.14383 14.186C3.83926 13.7825 3.6371 13.3112 3.55469 12.8125L7.70938 11.6258C7.94202 11.9539 8.24233 12.2283 8.59004 12.4304C8.93775 12.6326 9.32478 12.7578 9.72501 12.7977C9.65225 13.2562 9.47782 13.6927 9.21448 14.0752C8.95115 14.4576 8.60559 14.7763 8.20313 15.0078ZM16.3828 13.3234C16.196 13.6479 15.9523 13.9361 15.6633 14.1742L12.557 11.1719C12.7247 10.8064 12.8118 10.4092 12.8125 10.0071C12.8132 9.60497 12.7274 9.20743 12.5609 8.84141C13.1642 8.6111 13.824 8.57332 14.4496 8.73325C15.0752 8.89319 15.6359 9.243 16.0545 9.73457C16.4732 10.2261 16.7294 10.8353 16.7877 11.4784C16.8461 12.1215 16.7038 12.7669 16.3805 13.3258L16.3828 13.3234Z" fill="#191F2E"/>
</svg>
