<svg width="20" height="20" viewBox="0 0 20 20" fill="none" xmlns="http://www.w3.org/2000/svg">
<path d="M18.2031 10.5469C18.0139 9.83992 17.6617 9.18708 17.1748 8.64067C16.6879 8.09425 16.0798 7.66943 15.3993 7.40023C14.7187 7.13103 13.9846 7.02493 13.2556 7.09041C12.5267 7.1559 11.8232 7.39116 11.2016 7.77736L12.482 2.66486C12.5138 2.53784 12.5049 2.40405 12.4565 2.28237C12.4082 2.1607 12.3228 2.05729 12.2125 1.98673C11.6809 1.65107 11.0873 1.42577 10.4668 1.32423C9.84642 1.2227 9.21191 1.247 8.60107 1.3957C7.99023 1.5444 7.41554 1.81446 6.9112 2.1898C6.40686 2.56514 5.98318 3.0381 5.66537 3.58053C5.34755 4.12296 5.14209 4.72378 5.06123 5.34723C4.98036 5.97069 5.02573 6.60404 5.19464 7.20961C5.36355 7.81517 5.65255 8.38057 6.04444 8.87216C6.43633 9.36375 6.9231 9.77149 7.47579 10.0711L2.40782 11.5188C2.28191 11.5546 2.17044 11.6291 2.08914 11.7317C2.00784 11.8343 1.96081 11.9599 1.95469 12.0906C1.90659 13.1578 2.22441 14.2093 2.85551 15.0711C3.48662 15.933 4.39315 16.5534 5.42501 16.8297C5.82299 16.9366 6.23324 16.9909 6.64532 16.9914C7.27325 16.9898 7.89447 16.8621 8.47217 16.616C9.04987 16.3699 9.57231 16.0104 10.0085 15.5587C10.4448 15.107 10.7859 14.5724 11.0118 13.9865C11.2376 13.4006 11.3436 12.7753 11.3234 12.1477L15.1109 15.8133C15.2051 15.9044 15.3256 15.9636 15.4553 15.9826C15.5849 16.0015 15.7173 15.9792 15.8336 15.9188C16.7813 15.4271 17.5327 14.6266 17.9636 13.6498C18.3945 12.6729 18.479 11.5783 18.2031 10.5469ZM10.1906 11.5508C9.8839 11.5885 9.57288 11.5344 9.2969 11.3954C9.02091 11.2563 8.79236 11.0385 8.64014 10.7696C8.48792 10.5006 8.41888 10.1926 8.44173 9.8844C8.46459 9.57621 8.57833 9.28172 8.76856 9.03817C8.95879 8.79462 9.21697 8.61295 9.51045 8.51613C9.80393 8.41931 10.1195 8.4117 10.4173 8.49425C10.7151 8.5768 10.9818 8.74581 11.1835 8.9799C11.3853 9.21399 11.5131 9.50266 11.5508 9.80939C11.6013 10.2207 11.4864 10.6352 11.2314 10.9618C10.9763 11.2884 10.6019 11.5002 10.1906 11.5508Z" fill="#191F2E"/>
</svg>
