<svg width="20" height="20" viewBox="0 0 20 20" fill="none" xmlns="http://www.w3.org/2000/svg">
<path d="M18.2031 10.5469C18.0139 9.83992 17.6617 9.18708 17.1748 8.64067C16.6879 8.09425 16.0798 7.66943 15.3993 7.40023C14.7187 7.13103 13.9846 7.02493 13.2556 7.09041C12.5267 7.1559 11.8232 7.39116 11.2016 7.77736L12.482 2.66486C12.5138 2.53784 12.5049 2.40405 12.4565 2.28237C12.4081 2.1607 12.3228 2.05729 12.2125 1.98673C11.6809 1.65107 11.0873 1.42577 10.4668 1.32423C9.84642 1.2227 9.2119 1.247 8.60106 1.3957C7.99022 1.5444 7.41554 1.81446 6.9112 2.1898C6.40686 2.56514 5.98318 3.0381 5.66536 3.58053C5.34755 4.12296 5.14209 4.72378 5.06122 5.34723C4.98036 5.97069 5.02573 6.60404 5.19464 7.20961C5.36355 7.81517 5.65254 8.38057 6.04443 8.87216C6.43632 9.36375 6.92309 9.77149 7.47578 10.0711L2.40781 11.5188C2.28191 11.5546 2.17044 11.6291 2.08914 11.7317C2.00784 11.8343 1.96081 11.9599 1.95469 12.0906C1.90659 13.1578 2.2244 14.2093 2.85551 15.0711C3.48661 15.933 4.39315 16.5534 5.425 16.8297C5.82299 16.9366 6.23323 16.9909 6.64531 16.9914C7.27325 16.9898 7.89447 16.8621 8.47217 16.616C9.04987 16.3699 9.57231 16.0104 10.0085 15.5587C10.4448 15.107 10.7859 14.5724 11.0118 13.9865C11.2376 13.4006 11.3436 12.7753 11.3234 12.1477L15.1109 15.8133C15.2051 15.9044 15.3256 15.9636 15.4553 15.9826C15.5849 16.0015 15.7173 15.9792 15.8336 15.9188C16.7813 15.4271 17.5327 14.6266 17.9636 13.6498C18.3945 12.6729 18.479 11.5783 18.2031 10.5469ZM8.75 10C8.75 9.75279 8.82331 9.51111 8.96066 9.30555C9.09802 9.09999 9.29324 8.93977 9.52165 8.84516C9.75006 8.75055 10.0014 8.7258 10.2439 8.77403C10.4863 8.82226 10.7091 8.94131 10.8839 9.11613C11.0587 9.29095 11.1778 9.51367 11.226 9.75615C11.2742 9.99863 11.2495 10.25 11.1549 10.4784C11.0602 10.7068 10.9 10.902 10.6945 11.0393C10.4889 11.1767 10.2472 11.25 10 11.25C9.66848 11.25 9.35054 11.1183 9.11612 10.8839C8.8817 10.6495 8.75 10.3315 8.75 10ZM6.25 5.93751C6.2498 5.35829 6.39597 4.78841 6.67494 4.28079C6.9539 3.77316 7.35661 3.34426 7.84567 3.03391C8.33474 2.72356 8.89429 2.54183 9.47238 2.50558C10.0505 2.46933 10.6283 2.57975 11.1523 2.82658L9.98203 7.50001C9.53423 7.50337 9.09555 7.62695 8.71184 7.85784C8.32813 8.08872 8.01348 8.41843 7.80078 8.81251C7.32337 8.5003 6.93147 8.07381 6.66066 7.57175C6.38985 7.06969 6.24869 6.50795 6.25 5.93751ZM8.35938 15.2789C7.85787 15.5687 7.29127 15.727 6.7122 15.7393C6.13312 15.7515 5.56035 15.6172 5.04705 15.3489C4.53375 15.0805 4.09658 14.6869 3.77613 14.2044C3.45568 13.7219 3.26234 13.1663 3.21406 12.5891L7.84766 11.2656C8.06796 11.6409 8.3824 11.9522 8.75989 12.1687C9.13738 12.3852 9.56484 12.4994 10 12.5H10.0711C10.0396 13.0691 9.86662 13.6213 9.56771 14.1066C9.2688 14.5919 8.85346 14.9948 8.35938 15.2789ZM16.6539 13.482C16.401 13.9207 16.0542 14.2979 15.6383 14.5867L12.1758 11.236C12.3974 10.8468 12.51 10.4051 12.5019 9.95736C12.4938 9.50961 12.3652 9.07231 12.1297 8.69142C12.7908 8.3577 13.5419 8.24638 14.2714 8.37403C15.0008 8.50169 15.6695 8.86149 16.178 9.39988C16.6864 9.93827 17.0074 10.6265 17.0932 11.362C17.1789 12.0976 17.0249 12.8411 16.6539 13.482Z" fill="#191F2E"/>
</svg>
