<svg width="20" height="20" viewBox="0 0 20 20" fill="none" xmlns="http://www.w3.org/2000/svg">
<path d="M18.8023 8.95775L11.9125 4.57025C11.725 4.45038 11.5088 4.38305 11.2864 4.37527C11.064 4.36749 10.8436 4.41957 10.6482 4.52605C10.4528 4.63253 10.2896 4.78951 10.1755 4.98061C10.0615 5.17171 10.0009 5.38991 10 5.61244V8.5265L3.7875 4.57025C3.60001 4.45038 3.38379 4.38305 3.16139 4.37527C2.939 4.36749 2.7186 4.41957 2.5232 4.52605C2.3278 4.63253 2.16457 4.78951 2.05055 4.98061C1.93653 5.17171 1.8759 5.38991 1.875 5.61244V14.3874C1.87616 14.6099 1.93694 14.8279 2.05101 15.0189C2.16509 15.2098 2.32829 15.3667 2.5236 15.4731C2.71891 15.5795 2.93919 15.6316 3.16149 15.624C3.38378 15.6163 3.59996 15.5492 3.7875 15.4296L10 11.4734V14.3874C10.0012 14.6099 10.0619 14.8279 10.176 15.0189C10.2901 15.2098 10.4533 15.3667 10.6486 15.4731C10.8439 15.5795 11.0642 15.6316 11.2865 15.624C11.5088 15.6163 11.725 15.5492 11.9125 15.4296L18.8023 11.0421C18.9779 10.9307 19.1224 10.7768 19.2226 10.5946C19.3227 10.4124 19.3753 10.2078 19.3753 9.99994C19.3753 9.79203 19.3227 9.58749 19.2226 9.4053C19.1224 9.22311 18.9779 9.06916 18.8023 8.95775ZM3.125 14.3703V5.63041L9.98594 9.99994L3.125 14.3703ZM11.25 14.3703V5.63041L18.1109 9.99994L11.25 14.3703Z" fill="#191F2E"/>
</svg>
