<svg width="20" height="20" viewBox="0 0 20 20" fill="none" xmlns="http://www.w3.org/2000/svg">
<path d="M10 1.875C8.39303 1.875 6.82214 2.35152 5.486 3.24431C4.14985 4.1371 3.10844 5.40605 2.49348 6.8907C1.87852 8.37535 1.71762 10.009 2.03112 11.5851C2.34463 13.1612 3.11846 14.6089 4.25476 15.7452C5.39106 16.8815 6.8388 17.6554 8.4149 17.9689C9.99099 18.2824 11.6247 18.1215 13.1093 17.5065C14.594 16.8916 15.8629 15.8502 16.7557 14.514C17.6485 13.1779 18.125 11.607 18.125 10C18.1227 7.84581 17.266 5.78051 15.7427 4.25727C14.2195 2.73403 12.1542 1.87727 10 1.875ZM14.7336 10.5117L11.6086 12.6992C11.515 12.7648 11.4051 12.8035 11.291 12.811C11.1769 12.8185 11.063 12.7945 10.9615 12.7418C10.8601 12.689 10.7751 12.6094 10.7158 12.5117C10.6564 12.414 10.625 12.3018 10.625 12.1875V10C10.625 10.1004 10.6007 10.1994 10.5544 10.2884C10.508 10.3775 10.4408 10.4541 10.3586 10.5117L7.2336 12.6992C7.13995 12.7648 7.03011 12.8035 6.91602 12.811C6.80194 12.8185 6.68798 12.7945 6.58655 12.7418C6.48512 12.689 6.40011 12.6094 6.34077 12.5117C6.28143 12.414 6.25004 12.3018 6.25 12.1875V7.8125C6.25004 7.69817 6.28143 7.58603 6.34077 7.4883C6.40011 7.39057 6.48512 7.31099 6.58655 7.25822C6.68798 7.20545 6.80194 7.18152 6.91602 7.18902C7.03011 7.19653 7.13995 7.23518 7.2336 7.30078L10.3586 9.48828C10.4408 9.5459 10.508 9.62249 10.5544 9.71156C10.6007 9.80064 10.625 9.89958 10.625 10V7.8125C10.625 7.69817 10.6564 7.58603 10.7158 7.4883C10.7751 7.39057 10.8601 7.31099 10.9615 7.25822C11.063 7.20545 11.1769 7.18152 11.291 7.18902C11.4051 7.19653 11.515 7.23518 11.6086 7.30078L14.7336 9.48828C14.8158 9.54593 14.8829 9.62253 14.9292 9.7116C14.9756 9.80067 14.9998 9.8996 14.9998 10C14.9998 10.1004 14.9756 10.1993 14.9292 10.2884C14.8829 10.3775 14.8158 10.4541 14.7336 10.5117Z" fill="#191F2E"/>
</svg>
