<svg width="20" height="20" viewBox="0 0 20 20" fill="none" xmlns="http://www.w3.org/2000/svg">
<path d="M19.375 9.99994C19.3753 10.2079 19.323 10.4125 19.2228 10.5948C19.1227 10.777 18.978 10.9309 18.8023 11.0421L11.9125 15.4296C11.725 15.5495 11.5088 15.6168 11.2864 15.6246C11.064 15.6324 10.8436 15.5803 10.6482 15.4738C10.4528 15.3674 10.2896 15.2104 10.1755 15.0193C10.0615 14.8282 10.0009 14.61 10 14.3874V11.4734L3.7875 15.4296C3.60001 15.5495 3.38379 15.6168 3.16139 15.6246C2.939 15.6324 2.7186 15.5803 2.5232 15.4738C2.3278 15.3674 2.16457 15.2104 2.05055 15.0193C1.93653 14.8282 1.8759 14.61 1.875 14.3874V5.61244C1.8759 5.38991 1.93653 5.17171 2.05055 4.98061C2.16457 4.78951 2.3278 4.63253 2.5232 4.52605C2.7186 4.41957 2.939 4.36749 3.16139 4.37527C3.38379 4.38305 3.60001 4.45038 3.7875 4.57025L10 8.5265V5.61244C10.0009 5.38991 10.0615 5.17171 10.1755 4.98061C10.2896 4.78951 10.4528 4.63253 10.6482 4.52605C10.8436 4.41957 11.064 4.36749 11.2864 4.37527C11.5088 4.38305 11.725 4.45038 11.9125 4.57025L18.8023 8.95775C18.978 9.06898 19.1227 9.22289 19.2228 9.40513C19.323 9.58737 19.3753 9.792 19.375 9.99994Z" fill="#191F2E"/>
</svg>
