<svg width="20" height="20" viewBox="0 0 20 20" fill="none" xmlns="http://www.w3.org/2000/svg">
<path d="M10 1.5625C8.33122 1.5625 6.69992 2.05735 5.31238 2.98448C3.92484 3.9116 2.84338 5.22936 2.20477 6.77111C1.56616 8.31286 1.39907 10.0094 1.72463 11.6461C2.05019 13.2828 2.85379 14.7862 4.03379 15.9662C5.2138 17.1462 6.71721 17.9498 8.35393 18.2754C9.99064 18.6009 11.6871 18.4338 13.2289 17.7952C14.7706 17.1566 16.0884 16.0752 17.0155 14.6876C17.9427 13.3001 18.4375 11.6688 18.4375 10C18.435 7.763 17.5453 5.61833 15.9635 4.03653C14.3817 2.45473 12.237 1.56498 10 1.5625ZM10 16.5625C8.70206 16.5625 7.43327 16.1776 6.35407 15.4565C5.27488 14.7354 4.43374 13.7105 3.93704 12.5114C3.44034 11.3122 3.31038 9.99272 3.5636 8.71972C3.81682 7.44672 4.44183 6.27739 5.35962 5.35961C6.2774 4.44183 7.44672 3.81681 8.71972 3.5636C9.99272 3.31038 11.3122 3.44034 12.5114 3.93704C13.7105 4.43374 14.7354 5.27487 15.4565 6.35407C16.1776 7.43327 16.5625 8.70206 16.5625 10C16.5606 11.7399 15.8686 13.408 14.6383 14.6383C13.408 15.8686 11.7399 16.5606 10 16.5625ZM15 10C15 10.1427 14.9674 10.2836 14.9047 10.4118C14.842 10.54 14.7509 10.6522 14.6383 10.7398L11.8258 12.9273C11.6873 13.0351 11.5213 13.1019 11.3467 13.12C11.1721 13.1381 10.9959 13.1068 10.8382 13.0297C10.6805 12.9526 10.5477 12.8328 10.4547 12.6839C10.3618 12.535 10.3125 12.363 10.3125 12.1875V10.6969C10.2961 10.7117 10.2805 10.7266 10.2633 10.7398L7.45079 12.9273C7.31227 13.0351 7.14626 13.1019 6.97168 13.12C6.79709 13.1381 6.62092 13.1068 6.46324 13.0297C6.30555 12.9526 6.17267 12.8328 6.07973 12.6839C5.98678 12.535 5.93751 12.363 5.9375 12.1875V7.8125C5.93751 7.63698 5.98678 7.46498 6.07973 7.31608C6.17267 7.16718 6.30555 7.04737 6.46324 6.97028C6.62092 6.89318 6.79709 6.86191 6.97168 6.88001C7.14626 6.89811 7.31227 6.96486 7.45079 7.07266L10.2633 9.26016C10.2805 9.27344 10.2961 9.28828 10.3125 9.30313V7.8125C10.3125 7.63698 10.3618 7.46498 10.4547 7.31608C10.5477 7.16718 10.6805 7.04737 10.8382 6.97028C10.9959 6.89318 11.1721 6.86191 11.3467 6.88001C11.5213 6.89811 11.6873 6.96486 11.8258 7.07266L14.6383 9.26016C14.7509 9.34781 14.842 9.46002 14.9047 9.58823C14.9674 9.71645 15 9.85728 15 10Z" fill="#191F2E"/>
</svg>
