<svg width="20" height="20" viewBox="0 0 20 20" fill="none" xmlns="http://www.w3.org/2000/svg">
<path d="M18.9695 8.69452L12.0805 4.30624C11.8457 4.15624 11.575 4.07204 11.2965 4.06245C11.0181 4.05285 10.7422 4.11821 10.4977 4.25169C10.2532 4.38517 10.049 4.58188 9.90644 4.82126C9.76392 5.06064 9.68831 5.3339 9.6875 5.61249V7.95624L3.95547 4.30624C3.72071 4.15624 3.44997 4.07204 3.17154 4.06245C2.89311 4.05285 2.61722 4.11821 2.37269 4.25169C2.12815 4.38517 1.92396 4.58188 1.78144 4.82126C1.63892 5.06064 1.56331 5.3339 1.5625 5.61249V14.3875C1.56381 14.6659 1.63974 14.9388 1.78237 15.1779C1.92501 15.417 2.12913 15.6134 2.37349 15.7468C2.61784 15.8802 2.89349 15.9456 3.17173 15.9363C3.44996 15.927 3.7206 15.8432 3.95547 15.6937L9.6875 12.043V14.3867C9.68881 14.6651 9.76474 14.938 9.90737 15.1771C10.05 15.4162 10.2541 15.6127 10.4985 15.746C10.7428 15.8794 11.0185 15.9449 11.2967 15.9355C11.575 15.9262 11.8456 15.8424 12.0805 15.693L18.9695 11.3047C19.1894 11.1651 19.3705 10.9723 19.496 10.7441C19.6215 10.5159 19.6873 10.2597 19.6873 9.99921C19.6873 9.73877 19.6215 9.48255 19.496 9.25433C19.3705 9.0261 19.1894 8.83328 18.9695 8.69374V8.69452ZM3.4375 13.8V6.19999L9.40469 9.99999L3.4375 13.8ZM11.5625 13.8V6.19999L17.5297 9.99999L11.5625 13.8Z" fill="#191F2E"/>
</svg>
