<svg width="20" height="20" viewBox="0 0 20 20" fill="none" xmlns="http://www.w3.org/2000/svg">
<path d="M17.2875 2.71492C16.3499 1.77771 15.0784 1.25122 13.7527 1.25122C12.427 1.25122 11.1556 1.77771 10.2179 2.71492L4.74139 8.12508C4.62495 8.24083 4.53261 8.37852 4.46972 8.53019C4.40683 8.68185 4.37463 8.84448 4.37498 9.00867V14.7415L2.05779 17.0579C1.99972 17.116 1.95366 17.1849 1.92224 17.2608C1.89081 17.3366 1.87463 17.418 1.87463 17.5001C1.87463 17.5822 1.89081 17.6635 1.92224 17.7394C1.95366 17.8153 1.99972 17.8842 2.05779 17.9423C2.17507 18.0595 2.33413 18.1254 2.49998 18.1254C2.5821 18.1254 2.66342 18.1092 2.73929 18.0778C2.81516 18.0464 2.8841 18.0003 2.94217 17.9423L5.25936 15.6251H10.9922C11.1562 15.6253 11.3186 15.5932 11.4701 15.5304C11.6216 15.4677 11.7592 15.3756 11.875 15.2595L17.2836 9.7907C17.7488 9.32658 18.118 8.77529 18.3701 8.16837C18.6221 7.56144 18.752 6.91079 18.7524 6.25362C18.7527 5.59645 18.6235 4.94565 18.3722 4.33845C18.1208 3.73125 17.7522 3.17956 17.2875 2.71492ZM11.0992 3.59851C11.7896 2.90779 12.7223 2.51366 13.6988 2.49995C14.6753 2.48624 15.6187 2.85404 16.3282 3.52511C17.0377 4.19618 17.4575 5.11758 17.4982 6.09335C17.5389 7.06911 17.1973 8.02226 16.5461 8.75008H12.1351L14.8187 6.06726C14.936 5.94999 15.0019 5.79093 15.0019 5.62508C15.0019 5.45922 14.936 5.30016 14.8187 5.18289C14.7015 5.06561 14.5424 4.99973 14.3765 4.99973C14.2107 4.99973 14.0516 5.06561 13.9344 5.18289L9.37498 9.74148V5.30242L11.0992 3.59851ZM5.62498 9.01179L8.12498 6.53758V10.9907L5.62498 13.4907V9.01179ZM10.9922 14.3751H6.50936L10.8844 10.0001H15.3172L10.9922 14.3751Z" fill="#191F2E"/>
</svg>
