<svg width="20" height="20" viewBox="0 0 20 20" fill="none" xmlns="http://www.w3.org/2000/svg">
<path d="M16.55 10.532L11.8789 15.2562C11.7645 15.372 11.6282 15.464 11.478 15.5267C11.3278 15.5895 11.1667 15.6218 11.0039 15.6219H5.88436L3.56717 17.9422C3.5091 18.0002 3.44016 18.0463 3.36429 18.0777C3.28842 18.1092 3.2071 18.1253 3.12498 18.1253C3.04286 18.1253 2.96154 18.1092 2.88567 18.0777C2.8098 18.0463 2.74086 18.0002 2.68279 17.9422C2.62472 17.8841 2.57866 17.8152 2.54724 17.7393C2.51581 17.6634 2.49963 17.5821 2.49963 17.5C2.49963 17.4179 2.51581 17.3365 2.54724 17.2607C2.57866 17.1848 2.62472 17.1159 2.68279 17.0578L4.44764 15.2937L9.74217 9.99999H16.3281C16.3897 10.0001 16.4499 10.0184 16.5011 10.0526C16.5523 10.0868 16.5923 10.1354 16.616 10.1922C16.6397 10.249 16.6461 10.3116 16.6343 10.3721C16.6226 10.4325 16.5932 10.4882 16.55 10.532ZM16.9297 2.38827C15.9707 1.59908 14.7523 1.19504 13.5118 1.25482C12.2713 1.31461 11.0974 1.83395 10.2187 2.71171L9.46873 3.45233C9.40966 3.51022 9.37595 3.58916 9.37498 3.67186V8.59374L13.6719 4.29686C13.79 4.1846 13.9474 4.12294 14.1103 4.12503C14.2733 4.12711 14.429 4.19278 14.5443 4.30803C14.6595 4.42328 14.7252 4.579 14.7273 4.74197C14.7294 4.90495 14.6677 5.06229 14.5555 5.18046L10.993 8.74999H17.8976C17.955 8.75011 18.0113 8.73442 18.0604 8.70466C18.1094 8.67489 18.1494 8.63219 18.1758 8.58124C18.7113 7.56297 18.8798 6.39131 18.6528 5.2634C18.4259 4.13549 17.8174 3.12017 16.9297 2.38827ZM4.90858 13.0648L8.12498 9.84843V5.52811C8.12488 5.46652 8.10658 5.40634 8.07238 5.35512C8.03818 5.30389 7.98961 5.26392 7.93276 5.24022C7.87592 5.21651 7.81334 5.21013 7.75288 5.22188C7.69242 5.23362 7.63678 5.26297 7.59295 5.30624L4.74139 8.12499C4.62495 8.24075 4.53261 8.37844 4.46972 8.5301C4.40683 8.68177 4.37463 8.84439 4.37498 9.00858V12.8437C4.37493 12.9056 4.39323 12.966 4.42757 13.0175C4.4619 13.0689 4.51073 13.109 4.56786 13.1327C4.62499 13.1564 4.68786 13.1625 4.74851 13.1505C4.80917 13.1384 4.86487 13.1086 4.90858 13.0648Z" fill="#191F2E"/>
</svg>
