<svg width="20" height="20" viewBox="0 0 20 20" fill="none" xmlns="http://www.w3.org/2000/svg">
<path d="M17.5086 2.49373C16.513 1.49828 15.163 0.938721 13.7551 0.937989C12.3472 0.937257 10.9966 1.49541 10 2.48982L4.52188 7.90389C4.37618 8.04858 4.26058 8.2207 4.18173 8.4103C4.10289 8.5999 4.06237 8.80323 4.0625 9.00857V14.6094L1.8375 16.8367C1.66138 17.0128 1.56244 17.2517 1.56244 17.5008C1.56244 17.7498 1.66138 17.9887 1.8375 18.1648C2.01362 18.3409 2.25249 18.4399 2.50157 18.4399C2.75064 18.4399 2.98951 18.3409 3.16563 18.1648L5.39063 15.9375H10.9922C11.1976 15.9381 11.401 15.8979 11.5908 15.8194C11.7806 15.7408 11.9528 15.6253 12.0977 15.4797H12.1016L17.5086 10.0109C18.505 9.01385 19.0647 7.66193 19.0647 6.25232C19.0647 4.84272 18.505 3.4908 17.5086 2.49373ZM11.3203 3.82186C11.9438 3.19379 12.7856 2.83041 13.6703 2.80738C14.555 2.78434 15.4145 3.10342 16.0699 3.69819C16.7253 4.29295 17.126 5.11758 17.1887 6.00037C17.2513 6.88317 16.9711 7.75612 16.4063 8.43748H12.8906L15.0406 6.28826C15.2167 6.11214 15.3157 5.87327 15.3157 5.6242C15.3157 5.37513 15.2167 5.13626 15.0406 4.96014C14.8645 4.78402 14.6256 4.68507 14.3766 4.68507C14.1275 4.68507 13.8886 4.78402 13.7125 4.96014L9.6875 8.98436V5.43279L11.3203 3.82186ZM5.9375 9.14061L7.8125 7.28748V10.8594L5.9375 12.7344V9.14061ZM10.8594 14.0625H7.26563L11.0156 10.3125H14.5703L10.8594 14.0625Z" fill="#191F2E"/>
</svg>
