<svg width="20" height="20" viewBox="0 0 20 20" fill="none" xmlns="http://www.w3.org/2000/svg">
<path d="M14.8555 7.5C15.3559 7.02778 15.703 6.41627 15.852 5.74458C16.0011 5.07289 15.9451 4.37194 15.6914 3.73241C15.4377 3.09287 14.9979 2.54419 14.4289 2.15734C13.86 1.77049 13.188 1.56327 12.5 1.5625H6.87501C6.18699 1.56327 5.51503 1.77049 4.94606 2.15734C4.3771 2.54419 3.93732 3.09287 3.68361 3.73241C3.4299 4.37194 3.37394 5.07289 3.52297 5.74458C3.672 6.41627 4.01916 7.02778 4.51954 7.5C4.16998 7.82821 3.89313 8.22606 3.70684 8.66788C3.52056 9.10971 3.429 9.58568 3.43805 10.0651C3.44711 10.5445 3.55658 11.0167 3.75942 11.4511C3.96225 11.8856 4.25393 12.2727 4.61563 12.5875C4.16328 13.0138 3.82399 13.5458 3.62827 14.1358C3.43255 14.7257 3.38654 15.3551 3.49438 15.9672C3.60223 16.5794 3.86054 17.1551 4.24609 17.6426C4.63163 18.1302 5.13232 18.5143 5.70312 18.7603C6.27392 19.0063 6.89693 19.1066 7.5161 19.0522C8.13528 18.9977 8.73121 18.7902 9.25029 18.4483C9.76937 18.1064 10.1953 17.6408 10.4898 17.0934C10.7843 16.5461 10.9382 15.9341 10.9375 15.3125V13.0602C11.6739 13.4323 12.5195 13.5271 13.3201 13.3273C14.1206 13.1276 14.8225 12.6466 15.2978 11.9721C15.773 11.2977 15.9898 10.4748 15.9086 9.65379C15.8274 8.83274 15.4536 8.06828 14.8555 7.5ZM14.0625 5C14.0625 5.4144 13.8979 5.81183 13.6049 6.10485C13.3118 6.39788 12.9144 6.5625 12.5 6.5625H10.9375V3.4375H12.5C12.9144 3.4375 13.3118 3.60212 13.6049 3.89515C13.8979 4.18817 14.0625 4.5856 14.0625 5ZM5.31251 5C5.31251 4.5856 5.47713 4.18817 5.77015 3.89515C6.06318 3.60212 6.4606 3.4375 6.87501 3.4375H9.06251V6.5625H6.87501C6.4606 6.5625 6.06318 6.39788 5.77015 6.10485C5.47713 5.81183 5.31251 5.4144 5.31251 5ZM6.87501 11.5625C6.4606 11.5625 6.06318 11.3979 5.77015 11.1049C5.47713 10.8118 5.31251 10.4144 5.31251 10C5.31251 9.5856 5.47713 9.18817 5.77015 8.89515C6.06318 8.60212 6.4606 8.4375 6.87501 8.4375H9.06251V11.5625H6.87501ZM9.06251 15.3125C9.06251 15.6833 8.95254 16.0459 8.74651 16.3542C8.54048 16.6625 8.24765 16.9029 7.90504 17.0448C7.56243 17.1867 7.18543 17.2238 6.82171 17.1515C6.458 17.0791 6.1239 16.9005 5.86168 16.6383C5.59946 16.3761 5.42088 16.042 5.34853 15.6783C5.27619 15.3146 5.31332 14.9376 5.45523 14.595C5.59715 14.2524 5.83747 13.9595 6.14581 13.7535C6.45415 13.5475 6.81667 13.4375 7.18751 13.4375H9.06251V15.3125ZM12.5 11.5625C12.191 11.5625 11.8889 11.4709 11.6319 11.2992C11.375 11.1275 11.1747 10.8835 11.0564 10.5979C10.9382 10.3124 10.9072 9.99827 10.9675 9.69517C11.0278 9.39208 11.1766 9.11367 11.3952 8.89515C11.6137 8.67663 11.8921 8.52781 12.1952 8.46752C12.4983 8.40723 12.8124 8.43818 13.0979 8.55644C13.3835 8.6747 13.6275 8.87497 13.7992 9.13192C13.9709 9.38887 14.0625 9.69097 14.0625 10C14.0625 10.4144 13.8979 10.8118 13.6049 11.1049C13.3118 11.3979 12.9144 11.5625 12.5 11.5625Z" fill="#191F2E"/>
</svg>
