<svg width="20" height="20" viewBox="0 0 20 20" fill="none" xmlns="http://www.w3.org/2000/svg">
<path d="M16.7586 12.2383L15.4555 14.0625L16.7586 15.8867C16.8463 16.0217 16.8786 16.1852 16.8487 16.3434C16.8188 16.5015 16.7291 16.642 16.5982 16.7356C16.4673 16.8293 16.3053 16.8688 16.146 16.846C15.9867 16.8232 15.8424 16.7399 15.743 16.6133L14.6875 15.1375L13.6336 16.6133C13.5876 16.6841 13.5277 16.7448 13.4576 16.7918C13.3875 16.8388 13.3085 16.8711 13.2256 16.8868C13.1426 16.9025 13.0574 16.9012 12.9749 16.883C12.8925 16.8648 12.8146 16.8301 12.7459 16.781C12.6772 16.7319 12.6192 16.6694 12.5754 16.5972C12.5316 16.5251 12.5028 16.4448 12.4908 16.3612C12.4789 16.2776 12.484 16.1925 12.5058 16.1109C12.5277 16.0294 12.5658 15.9531 12.618 15.8867L13.9195 14.0625L12.6164 12.2383C12.5287 12.1033 12.4964 11.9398 12.5263 11.7816C12.5562 11.6235 12.6459 11.483 12.7768 11.3894C12.9077 11.2957 13.0697 11.2562 13.229 11.279C13.3883 11.3018 13.5326 11.3851 13.632 11.5117L14.6875 12.9875L15.7414 11.5117C15.8408 11.3851 15.9852 11.3018 16.1445 11.279C16.3038 11.2562 16.4657 11.2957 16.5966 11.3894C16.7275 11.483 16.8172 11.6235 16.8471 11.7816C16.877 11.9398 16.8447 12.1033 16.757 12.2383H16.7586ZM9.65625 13.3836C9.34375 13.293 9.02031 13.2 8.83984 13.0836C8.74219 13.0195 8.74375 13.0055 8.75313 12.9352C8.7543 12.8783 8.7691 12.8226 8.79629 12.7727C8.82349 12.7229 8.86227 12.6802 8.90938 12.6484C9.26875 12.4047 10.1078 12.5133 10.4586 12.6047C10.619 12.6475 10.7898 12.6248 10.9334 12.5417C11.0771 12.4585 11.1818 12.3217 11.2246 12.1613C11.2674 12.001 11.2447 11.8302 11.1616 11.6865C11.0784 11.5428 10.9416 11.4381 10.7812 11.3953C10.6156 11.3523 9.14063 10.9875 8.21563 11.6109C8.02002 11.7422 7.85565 11.9149 7.73414 12.1167C7.61264 12.3185 7.53698 12.5446 7.5125 12.7789C7.35625 14.0195 8.57891 14.3734 9.30938 14.5844C10.2516 14.857 10.3344 14.9688 10.3078 15.1773C10.2836 15.3656 10.2094 15.4375 10.1406 15.4844C9.78125 15.7234 8.95547 15.6062 8.61328 15.5117C8.45322 15.4671 8.28197 15.4878 8.13722 15.5694C7.99247 15.651 7.88606 15.7868 7.84141 15.9469C7.79675 16.1069 7.81752 16.2782 7.89912 16.4229C7.98073 16.5677 8.1165 16.6741 8.27656 16.7188C8.66394 16.8208 9.06269 16.8733 9.46328 16.875C9.91797 16.875 10.4242 16.7969 10.8297 16.5266C11.0298 16.3936 11.198 16.2179 11.3221 16.0122C11.4463 15.8064 11.5233 15.5758 11.5477 15.3367C11.7188 13.9844 10.4289 13.607 9.65625 13.3836ZM6.25 11.25H3.125C2.95924 11.25 2.80027 11.3158 2.68306 11.4331C2.56585 11.5503 2.5 11.7092 2.5 11.875C2.5 12.0408 2.56585 12.1997 2.68306 12.3169C2.80027 12.4342 2.95924 12.5 3.125 12.5H4.0625V16.25C4.0625 16.4158 4.12835 16.5747 4.24556 16.6919C4.36277 16.8092 4.52174 16.875 4.6875 16.875C4.85326 16.875 5.01223 16.8092 5.12944 16.6919C5.24665 16.5747 5.3125 16.4158 5.3125 16.25V12.5H6.25C6.41576 12.5 6.57473 12.4342 6.69194 12.3169C6.80915 12.1997 6.875 12.0408 6.875 11.875C6.875 11.7092 6.80915 11.5503 6.69194 11.4331C6.57473 11.3158 6.41576 11.25 6.25 11.25ZM16.875 6.875V8.75C16.875 8.91576 16.8092 9.07473 16.6919 9.19194C16.5747 9.30915 16.4158 9.375 16.25 9.375C16.0842 9.375 15.9253 9.30915 15.8081 9.19194C15.6908 9.07473 15.625 8.91576 15.625 8.75V7.5H11.875C11.7092 7.5 11.5503 7.43415 11.4331 7.31694C11.3158 7.19973 11.25 7.04076 11.25 6.875V3.125H4.375V8.75C4.375 8.91576 4.30915 9.07473 4.19194 9.19194C4.07473 9.30915 3.91576 9.375 3.75 9.375C3.58424 9.375 3.42527 9.30915 3.30806 9.19194C3.19085 9.07473 3.125 8.91576 3.125 8.75V3.125C3.125 2.79348 3.2567 2.47554 3.49112 2.24112C3.72554 2.0067 4.04348 1.875 4.375 1.875H11.875C11.9571 1.87494 12.0384 1.89105 12.1143 1.92241C12.1902 1.95378 12.2591 1.99979 12.3172 2.05781L16.6922 6.43281C16.7502 6.4909 16.7962 6.55985 16.8276 6.63572C16.859 6.71159 16.8751 6.7929 16.875 6.875ZM14.7414 6.25L12.5 4.00859V6.25H14.7414Z" fill="#191F2E"/>
</svg>
