<svg width="20" height="20" viewBox="0 0 20 20" fill="none" xmlns="http://www.w3.org/2000/svg">
<path d="M3.75 14.0625C3.75 14.7398 4.17891 15.3125 4.6875 15.3125C4.79613 15.3089 4.9029 15.2834 5.00134 15.2373C5.09977 15.1912 5.18783 15.1257 5.26016 15.0445C5.43213 14.8649 5.66843 14.7609 5.91706 14.7555C6.16569 14.7501 6.40629 14.8436 6.58594 15.0156C6.76558 15.1876 6.86955 15.4239 6.87497 15.6725C6.88039 15.9212 6.78682 16.1618 6.61484 16.3414C6.36819 16.6063 6.06999 16.818 5.73856 16.9635C5.40712 17.109 5.04945 17.1852 4.6875 17.1875C3.13672 17.1875 1.875 15.7812 1.875 14.0625C1.875 12.3438 3.13672 10.9375 4.6875 10.9375C5.04945 10.9398 5.40712 11.016 5.73856 11.1615C6.06999 11.307 6.36819 11.5187 6.61484 11.7836C6.78682 11.9632 6.88039 12.2038 6.87497 12.4525C6.86955 12.7011 6.76558 12.9374 6.58594 13.1094C6.40629 13.2814 6.16569 13.3749 5.91706 13.3695C5.66843 13.3641 5.43213 13.2601 5.26016 13.0805C5.18783 12.9993 5.09977 12.9338 5.00134 12.8877C4.9029 12.8416 4.79613 12.8161 4.6875 12.8125C4.17891 12.8125 3.75 13.3836 3.75 14.0625ZM11.368 13.6164C10.9672 13.3469 10.4828 13.207 10.0555 13.0836C9.84609 13.027 9.63982 12.9594 9.4375 12.8813C9.62891 12.7891 10.1961 12.7797 10.693 12.907C10.9334 12.9705 11.1893 12.9359 11.4042 12.8108C11.6191 12.6857 11.7756 12.4803 11.8391 12.2398C11.9026 11.9994 11.868 11.7436 11.7428 11.5286C11.6177 11.3137 11.4123 11.1573 11.1719 11.0938C10.8642 11.018 10.5505 10.9693 10.2344 10.9484C9.45859 10.8969 8.82812 11.0328 8.35156 11.3523C8.11922 11.5083 7.92398 11.7134 7.77967 11.9532C7.63535 12.193 7.54548 12.4615 7.51641 12.7398C7.43047 13.4227 7.71016 14.0109 8.30625 14.3953C8.67969 14.6367 9.11562 14.7625 9.53672 14.8844C9.77109 14.9539 10.157 15.0641 10.3086 15.1602C10.3064 15.1796 10.3006 15.1984 10.2914 15.2156C10.1852 15.3367 9.54375 15.3555 9.01094 15.2109C8.77367 15.1508 8.52227 15.1858 8.31047 15.3085C8.09867 15.4312 7.94326 15.6319 7.87746 15.8676C7.81165 16.1034 7.84067 16.3556 7.95832 16.5702C8.07596 16.7849 8.27289 16.945 8.50703 17.0164C8.91981 17.1275 9.34519 17.185 9.77266 17.1875C10.2781 17.1875 10.8461 17.0961 11.3148 16.7852C11.5522 16.6282 11.7519 16.4208 11.8998 16.1777C12.0477 15.9346 12.1401 15.6618 12.1703 15.3789C12.2656 14.6508 11.9781 14.0258 11.368 13.6148V13.6164ZM16.875 10.9906C16.6406 10.9081 16.3831 10.922 16.159 11.0292C15.9349 11.1364 15.7625 11.3282 15.6797 11.5625L15 13.4609L14.3203 11.5625C14.2836 11.4412 14.2227 11.3285 14.1412 11.2314C14.0597 11.1343 13.9593 11.0547 13.8462 10.9975C13.7331 10.9402 13.6095 10.9065 13.483 10.8984C13.3565 10.8903 13.2297 10.9079 13.1101 10.9502C12.9906 10.9925 12.8809 11.0586 12.7877 11.1445C12.6945 11.2305 12.6196 11.3344 12.5677 11.45C12.5158 11.5657 12.4879 11.6907 12.4856 11.8174C12.4834 11.9442 12.5069 12.0701 12.5547 12.1875L14.1172 16.5625C14.1823 16.7445 14.302 16.902 14.46 17.0134C14.6181 17.1247 14.8067 17.1845 15 17.1845C15.1933 17.1845 15.3819 17.1247 15.54 17.0134C15.698 16.902 15.8177 16.7445 15.8828 16.5625L17.4453 12.1875C17.5284 11.9532 17.515 11.6954 17.408 11.4709C17.3011 11.2465 17.1093 11.0737 16.875 10.9906ZM2.8125 8.4375V3.125C2.8125 2.7106 2.97712 2.31317 3.27015 2.02015C3.56317 1.72712 3.9606 1.5625 4.375 1.5625H11.875C11.9982 1.5624 12.1201 1.58657 12.2339 1.63362C12.3477 1.68067 12.4512 1.74969 12.5383 1.83672L16.9133 6.21172C17.0003 6.29885 17.0693 6.40227 17.1164 6.51608C17.1634 6.62989 17.1876 6.75185 17.1875 6.875V8.4375C17.1875 8.68614 17.0887 8.9246 16.9129 9.10041C16.7371 9.27623 16.4986 9.375 16.25 9.375C16.0014 9.375 15.7629 9.27623 15.5871 9.10041C15.4113 8.9246 15.3125 8.68614 15.3125 8.4375V8.125H11.5625C11.3139 8.125 11.0754 8.02623 10.8996 7.85041C10.7238 7.6746 10.625 7.43614 10.625 7.1875V3.4375H4.6875V8.4375C4.6875 8.68614 4.58873 8.9246 4.41291 9.10041C4.2371 9.27623 3.99864 9.375 3.75 9.375C3.50136 9.375 3.2629 9.27623 3.08709 9.10041C2.91127 8.9246 2.8125 8.68614 2.8125 8.4375ZM12.5 6.25H14.2969L12.5 4.45313V6.25Z" fill="#191F2E"/>
</svg>
