<svg width="20" height="20" viewBox="0 0 20 20" fill="none" xmlns="http://www.w3.org/2000/svg">
<path d="M16.6922 6.43281L12.3172 2.05781C12.2591 1.99979 12.1902 1.95378 12.1143 1.92241C12.0384 1.89105 11.9571 1.87494 11.875 1.875H4.375C4.04348 1.875 3.72554 2.0067 3.49112 2.24112C3.2567 2.47554 3.125 2.79348 3.125 3.125V8.75C3.125 8.91576 3.19085 9.07473 3.30806 9.19194C3.42527 9.30915 3.58424 9.375 3.75 9.375H16.25C16.4158 9.375 16.5747 9.30915 16.6919 9.19194C16.8092 9.07473 16.875 8.91576 16.875 8.75V6.875C16.8751 6.7929 16.859 6.71159 16.8276 6.63572C16.7962 6.55985 16.7502 6.4909 16.6922 6.43281ZM11.875 6.875V3.4375L15.3125 6.875H11.875ZM11.5477 15.3367C11.5233 15.5758 11.4463 15.8064 11.3221 16.0122C11.198 16.2179 11.0298 16.3936 10.8297 16.5266C10.4242 16.7969 9.92188 16.875 9.46328 16.875C9.06425 16.8731 8.66707 16.8206 8.28125 16.7188C8.20127 16.6975 8.1263 16.6606 8.06068 16.6102C7.99507 16.5598 7.94012 16.4968 7.89903 16.425C7.85794 16.3532 7.83152 16.2739 7.8213 16.1918C7.81108 16.1097 7.81727 16.0264 7.83951 15.9467C7.86176 15.867 7.8996 15.7925 7.95086 15.7275C8.00212 15.6625 8.06576 15.6084 8.13811 15.5682C8.21045 15.5281 8.29005 15.5027 8.37229 15.4935C8.45453 15.4843 8.53777 15.4916 8.61719 15.5148C8.95938 15.6094 9.78906 15.7266 10.1445 15.4875C10.2133 15.4406 10.2875 15.3687 10.3117 15.1805C10.3383 14.9719 10.2555 14.8602 9.31328 14.5875C8.58281 14.3766 7.36016 14.0227 7.51641 12.7812C7.54099 12.5471 7.61671 12.3212 7.73821 12.1195C7.8597 11.9178 8.02402 11.7453 8.21953 11.6141C9.14531 10.9891 10.6195 11.3555 10.7852 11.3984C10.9455 11.4406 11.0826 11.5447 11.1662 11.688C11.2498 11.8312 11.273 12.0017 11.2309 12.1621C11.1887 12.3225 11.0845 12.4595 10.9413 12.5431C10.7981 12.6267 10.6276 12.65 10.4672 12.6078C10.1164 12.5164 9.27734 12.4078 8.91797 12.6516C8.87086 12.6833 8.83208 12.726 8.80489 12.7759C8.7777 12.8258 8.76289 12.8815 8.76172 12.9383C8.75234 13.0086 8.75078 13.0227 8.84844 13.0867C9.02891 13.2031 9.35234 13.2961 9.66484 13.3867C10.4289 13.607 11.7188 13.9844 11.5477 15.3367ZM6.25 11.875V14.8438C6.25 15.3825 6.03599 15.8991 5.65506 16.2801C5.27413 16.661 4.75747 16.875 4.21875 16.875C3.68003 16.875 3.16337 16.661 2.78244 16.2801C2.40151 15.8991 2.1875 15.3825 2.1875 14.8438C2.1875 14.678 2.25335 14.519 2.37056 14.4018C2.48777 14.2846 2.64674 14.2188 2.8125 14.2188C2.97826 14.2188 3.13723 14.2846 3.25444 14.4018C3.37165 14.519 3.4375 14.678 3.4375 14.8438C3.4375 15.051 3.51981 15.2497 3.66632 15.3962C3.81284 15.5427 4.01155 15.625 4.21875 15.625C4.42595 15.625 4.62466 15.5427 4.77118 15.3962C4.91769 15.2497 5 15.051 5 14.8438V11.875C5 11.7092 5.06585 11.5503 5.18306 11.4331C5.30027 11.3158 5.45924 11.25 5.625 11.25C5.79076 11.25 5.94973 11.3158 6.06694 11.4331C6.18415 11.5503 6.25 11.7092 6.25 11.875ZM16.7586 12.2383L15.4555 14.0625L16.7586 15.8867C16.8463 16.0217 16.8786 16.1852 16.8487 16.3434C16.8188 16.5015 16.7291 16.642 16.5982 16.7356C16.4673 16.8293 16.3053 16.8688 16.146 16.846C15.9867 16.8232 15.8424 16.7399 15.743 16.6133L14.6875 15.1375L13.6336 16.6133C13.5876 16.6841 13.5277 16.7448 13.4576 16.7918C13.3875 16.8388 13.3085 16.8711 13.2256 16.8868C13.1426 16.9025 13.0574 16.9012 12.9749 16.883C12.8925 16.8648 12.8146 16.8301 12.7459 16.781C12.6772 16.7319 12.6192 16.6694 12.5754 16.5972C12.5316 16.5251 12.5028 16.4448 12.4908 16.3612C12.4789 16.2776 12.484 16.1925 12.5058 16.1109C12.5277 16.0294 12.5658 15.9531 12.618 15.8867L13.9195 14.0625L12.6164 12.2383C12.5287 12.1033 12.4964 11.9398 12.5263 11.7816C12.5562 11.6235 12.6459 11.483 12.7768 11.3894C12.9077 11.2957 13.0697 11.2562 13.229 11.279C13.3883 11.3018 13.5326 11.3851 13.632 11.5117L14.6875 12.9875L15.7414 11.5117C15.8408 11.3851 15.9852 11.3018 16.1445 11.279C16.3038 11.2562 16.4657 11.2957 16.5966 11.3894C16.7275 11.483 16.8172 11.6235 16.8471 11.7816C16.877 11.9398 16.8447 12.1033 16.757 12.2383H16.7586Z" fill="#191F2E"/>
</svg>
