<svg width="20" height="20" viewBox="0 0 20 20" fill="none" xmlns="http://www.w3.org/2000/svg">
<path d="M14.1008 11.2117C14.1882 11.2988 14.2575 11.4023 14.3048 11.5163C14.3522 11.6302 14.3765 11.7524 14.3765 11.8758C14.3765 11.9992 14.3522 12.1213 14.3048 12.2353C14.2575 12.3493 14.1882 12.4527 14.1008 12.5398L12.2258 14.4148C12.0497 14.591 11.8108 14.6899 11.5617 14.6899C11.3126 14.6899 11.0738 14.591 10.8977 14.4148C10.7215 14.2387 10.6226 13.9999 10.6226 13.7508C10.6226 13.5017 10.7215 13.2628 10.8977 13.0867L12.1094 11.875L10.8969 10.6633C10.8097 10.5761 10.7405 10.4725 10.6933 10.3586C10.6461 10.2447 10.6218 10.1225 10.6218 9.99922C10.6218 9.87589 10.6461 9.75377 10.6933 9.63983C10.7405 9.52589 10.8097 9.42236 10.8969 9.33516C10.9841 9.24795 11.0876 9.17877 11.2015 9.13158C11.3155 9.08438 11.4376 9.06009 11.5609 9.06009C11.6843 9.06009 11.8064 9.08438 11.9203 9.13158C12.0343 9.17877 12.1378 9.24795 12.225 9.33516L14.1008 11.2117ZM9.10078 9.33672C9.01368 9.24932 8.91019 9.17997 8.79624 9.13265C8.68228 9.08534 8.56011 9.06098 8.43672 9.06098C8.31333 9.06098 8.19116 9.08534 8.0772 9.13265C7.96325 9.17997 7.85975 9.24932 7.77266 9.33672L5.89766 11.2117C5.81026 11.2988 5.74091 11.4023 5.69359 11.5163C5.64627 11.6302 5.62192 11.7524 5.62192 11.8758C5.62192 11.9992 5.64627 12.1213 5.69359 12.2353C5.74091 12.3493 5.81026 12.4527 5.89766 12.5398L7.77266 14.4148C7.94878 14.591 8.18765 14.6899 8.43672 14.6899C8.68579 14.6899 8.92466 14.591 9.10078 14.4148C9.2769 14.2387 9.37584 13.9999 9.37584 13.7508C9.37585 13.5017 9.2769 13.2628 9.10078 13.0867L7.89062 11.875L9.10312 10.6633C9.19014 10.5761 9.2591 10.4725 9.30608 10.3586C9.35306 10.2448 9.37713 10.1227 9.37691 9.99951C9.37669 9.87631 9.35219 9.75436 9.30481 9.64063C9.25743 9.52691 9.1881 9.42363 9.10078 9.33672ZM17.1875 6.875V16.875C17.1875 17.2894 17.0229 17.6868 16.7299 17.9799C16.4368 18.2729 16.0394 18.4375 15.625 18.4375H4.375C3.9606 18.4375 3.56317 18.2729 3.27015 17.9799C2.97712 17.6868 2.8125 17.2894 2.8125 16.875V3.125C2.8125 2.7106 2.97712 2.31317 3.27015 2.02015C3.56317 1.72712 3.9606 1.5625 4.375 1.5625H11.875C11.9982 1.56251 12.1202 1.5868 12.234 1.63398C12.3478 1.68117 12.4512 1.75033 12.5383 1.8375L16.9133 6.2125C17.0889 6.38827 17.1875 6.62656 17.1875 6.875ZM12.5 4.45312V6.25H14.2969L12.5 4.45312ZM15.3125 16.5625V8.125H11.5625C11.3139 8.125 11.0754 8.02623 10.8996 7.85041C10.7238 7.6746 10.625 7.43614 10.625 7.1875V3.4375H4.6875V16.5625H15.3125Z" fill="#191F2E"/>
</svg>
