<svg width="20" height="20" viewBox="0 0 20 20" fill="none" xmlns="http://www.w3.org/2000/svg">
<path d="M16.9133 6.2125L12.5383 1.8375C12.4512 1.75033 12.3478 1.68117 12.234 1.63398C12.1202 1.5868 11.9982 1.56251 11.875 1.5625H4.375C3.9606 1.5625 3.56317 1.72712 3.27015 2.02015C2.97712 2.31317 2.8125 2.7106 2.8125 3.125V16.875C2.8125 17.2894 2.97712 17.6868 3.27015 17.9799C3.56317 18.2729 3.9606 18.4375 4.375 18.4375H15.625C16.0394 18.4375 16.4368 18.2729 16.7299 17.9799C17.0229 17.6868 17.1875 17.2894 17.1875 16.875V6.875C17.1875 6.62656 17.0889 6.38827 16.9133 6.2125ZM14.2969 6.25H12.5V4.45312L14.2969 6.25ZM4.6875 16.5625V3.4375H10.625V7.1875C10.625 7.43614 10.7238 7.6746 10.8996 7.85041C11.0754 8.02623 11.3139 8.125 11.5625 8.125H15.3125V16.5625H4.6875ZM12.225 12.7742C12.5105 12.1755 12.5752 11.4951 12.4077 10.8533C12.2401 10.2115 11.8511 9.64959 11.3094 9.26679C10.7677 8.884 10.1082 8.70498 9.44725 8.76137C8.78635 8.81776 8.16664 9.10592 7.69761 9.57495C7.22858 10.044 6.94041 10.6637 6.88403 11.3246C6.82764 11.9855 7.00665 12.6451 7.38945 13.1868C7.77225 13.7285 8.33418 14.1175 8.97599 14.285C9.61779 14.4525 10.2982 14.3878 10.8969 14.1023L11.8344 15.0398C12.0105 15.216 12.2494 15.3149 12.4984 15.3149C12.7475 15.3149 12.9864 15.216 13.1625 15.0398C13.3386 14.8637 13.4376 14.6249 13.4376 14.3758C13.4376 14.1267 13.3386 13.8878 13.1625 13.7117L12.225 12.7742ZM8.75 11.5625C8.75 11.3771 8.80498 11.1958 8.908 11.0417C9.01101 10.8875 9.15743 10.7673 9.32873 10.6964C9.50004 10.6254 9.68854 10.6068 9.8704 10.643C10.0523 10.6792 10.2193 10.7685 10.3504 10.8996C10.4815 11.0307 10.5708 11.1977 10.607 11.3796C10.6432 11.5615 10.6246 11.75 10.5536 11.9213C10.4827 12.0926 10.3625 12.239 10.2083 12.342C10.0542 12.445 9.87292 12.5 9.6875 12.5C9.43886 12.5 9.2004 12.4012 9.02459 12.2254C8.84877 12.0496 8.75 11.8111 8.75 11.5625Z" fill="#191F2E"/>
</svg>
