<svg width="20" height="20" viewBox="0 0 20 20" fill="none" xmlns="http://www.w3.org/2000/svg">
<path d="M16.9133 6.2125L12.5383 1.8375C12.4512 1.75033 12.3478 1.68117 12.234 1.63398C12.1202 1.5868 11.9982 1.56251 11.875 1.5625H4.375C3.9606 1.5625 3.56317 1.72712 3.27015 2.02015C2.97712 2.31317 2.8125 2.7106 2.8125 3.125V16.875C2.8125 17.2894 2.97712 17.6868 3.27015 17.9799C3.56317 18.2729 3.9606 18.4375 4.375 18.4375H15.625C16.0394 18.4375 16.4368 18.2729 16.7299 17.9799C17.0229 17.6868 17.1875 17.2894 17.1875 16.875V6.875C17.1875 6.62656 17.0889 6.38827 16.9133 6.2125ZM12.5 4.45312L14.2969 6.25H12.5V4.45312ZM4.6875 16.5625V3.4375H10.625V7.1875C10.625 7.43614 10.7238 7.6746 10.8996 7.85041C11.0754 8.02623 11.3139 8.125 11.5625 8.125H15.3125V16.5625H4.6875ZM12.5383 11.8367C12.6257 11.9238 12.695 12.0273 12.7423 12.1413C12.7897 12.2552 12.814 12.3774 12.814 12.5008C12.814 12.6242 12.7897 12.7463 12.7423 12.8603C12.695 12.9743 12.6257 13.0777 12.5383 13.1648L10.6633 15.0398C10.5762 15.1272 10.4727 15.1966 10.3587 15.2439C10.2448 15.2912 10.1226 15.3156 9.99922 15.3156C9.87583 15.3156 9.75366 15.2912 9.6397 15.2439C9.52575 15.1966 9.42225 15.1272 9.33516 15.0398L7.46016 13.1648C7.28404 12.9887 7.18509 12.7499 7.18509 12.5008C7.18509 12.2517 7.28404 12.0128 7.46016 11.8367C7.63628 11.6606 7.87515 11.5617 8.12422 11.5617C8.37329 11.5617 8.61216 11.6606 8.78828 11.8367L9.0625 12.1094V9.6875C9.0625 9.43886 9.16127 9.2004 9.33709 9.02459C9.5129 8.84877 9.75136 8.75 10 8.75C10.2486 8.75 10.4871 8.84877 10.6629 9.02459C10.8387 9.2004 10.9375 9.43886 10.9375 9.6875V12.1094L11.2117 11.8344C11.2989 11.7474 11.4025 11.6784 11.5164 11.6314C11.6302 11.5844 11.7523 11.5604 11.8755 11.5606C11.9987 11.5608 12.1206 11.5853 12.2344 11.6327C12.3481 11.6801 12.4514 11.7494 12.5383 11.8367Z" fill="#191F2E"/>
</svg>
