<svg width="20" height="20" viewBox="0 0 20 20" fill="none" xmlns="http://www.w3.org/2000/svg">
<path d="M16.6922 6.43281L12.3172 2.05781C12.2591 1.99979 12.1902 1.95378 12.1143 1.92241C12.0384 1.89105 11.9571 1.87494 11.875 1.875H4.375C4.04348 1.875 3.72554 2.0067 3.49112 2.24112C3.2567 2.47554 3.125 2.79348 3.125 3.125V8.75C3.125 8.91576 3.19085 9.07473 3.30806 9.19194C3.42527 9.30915 3.58424 9.375 3.75 9.375H13.125C13.2908 9.375 13.4497 9.44085 13.5669 9.55806C13.6842 9.67527 13.75 9.83424 13.75 10V17.5C13.75 17.6658 13.8158 17.8247 13.9331 17.9419C14.0503 18.0592 14.2092 18.125 14.375 18.125H15.625C15.9565 18.125 16.2745 17.9933 16.5089 17.7589C16.7433 17.5245 16.875 17.2065 16.875 16.875V6.875C16.8751 6.7929 16.859 6.71159 16.8276 6.63572C16.7962 6.55985 16.7502 6.4909 16.6922 6.43281ZM11.875 6.875V3.4375L15.3125 6.875H11.875ZM5 11.25H3.75C3.58424 11.25 3.42527 11.3158 3.30806 11.4331C3.19085 11.5503 3.125 11.7092 3.125 11.875V16.25C3.125 16.4158 3.19085 16.5747 3.30806 16.6919C3.42527 16.8092 3.58424 16.875 3.75 16.875C3.91576 16.875 4.07473 16.8092 4.19194 16.6919C4.30915 16.5747 4.375 16.4158 4.375 16.25V15.625H5C5.15039 15.6248 5.30038 15.6094 5.44766 15.5789L6.02266 16.5625C6.11077 16.6948 6.246 16.7886 6.40081 16.8247C6.55563 16.8608 6.71839 16.8366 6.85597 16.757C6.99356 16.6773 7.09562 16.5483 7.14139 16.396C7.18716 16.2438 7.1732 16.0798 7.10234 15.9375L6.54688 14.9828C6.8523 14.6768 7.06019 14.2871 7.1443 13.8631C7.22841 13.439 7.18497 12.9995 7.01945 12.6001C6.85393 12.2006 6.57377 11.8592 6.21435 11.619C5.85492 11.3787 5.43235 11.2503 5 11.25ZM5 14.375H4.375V12.5H5C5.24864 12.5 5.4871 12.5988 5.66291 12.7746C5.83873 12.9504 5.9375 13.1889 5.9375 13.4375C5.9375 13.6861 5.83873 13.9246 5.66291 14.1004C5.4871 14.2762 5.24864 14.375 5 14.375ZM12.1727 15.3367C12.1483 15.5758 12.0713 15.8064 11.9471 16.0122C11.823 16.2179 11.6548 16.3936 11.4547 16.5266C11.0492 16.7969 10.5469 16.875 10.0883 16.875C9.68929 16.8725 9.29219 16.82 8.90625 16.7188C8.82627 16.6975 8.7513 16.6606 8.68568 16.6102C8.62007 16.5598 8.56512 16.4968 8.52403 16.425C8.48294 16.3532 8.45652 16.2739 8.4463 16.1918C8.43608 16.1097 8.44227 16.0264 8.46451 15.9467C8.48676 15.867 8.5246 15.7925 8.57586 15.7275C8.62712 15.6625 8.69076 15.6084 8.76311 15.5682C8.83545 15.5281 8.91505 15.5027 8.99729 15.4935C9.07953 15.4843 9.16277 15.4916 9.24219 15.5148C9.58438 15.6086 10.4102 15.7258 10.7695 15.4867C10.8383 15.4406 10.9125 15.368 10.9367 15.1797C10.9641 14.9711 10.8812 14.8594 9.93828 14.5867C9.20781 14.3758 7.98516 14.0219 8.14141 12.7812C8.16578 12.5469 8.2414 12.3208 8.36291 12.119C8.48442 11.9171 8.64885 11.7445 8.84453 11.6133C9.76953 10.9883 11.2437 11.3547 11.4094 11.3977C11.5697 11.4398 11.7068 11.544 11.7904 11.6872C11.874 11.8304 11.8972 12.001 11.8551 12.1613C11.8129 12.3217 11.7088 12.4588 11.5656 12.5423C11.4223 12.6259 11.2518 12.6492 11.0914 12.607C10.7406 12.5156 9.90156 12.407 9.54219 12.6508C9.49508 12.6826 9.4563 12.7252 9.42911 12.7751C9.40191 12.825 9.38711 12.8807 9.38594 12.9375C9.37656 13.0078 9.375 13.0227 9.47266 13.0859C9.65312 13.2023 9.97656 13.2953 10.2891 13.3859C11.0539 13.607 12.3477 13.9844 12.1727 15.3367Z" fill="#191F2E"/>
</svg>
