<svg width="20" height="20" viewBox="0 0 20 20" fill="none" xmlns="http://www.w3.org/2000/svg">
<path d="M9.375 13.125H9.0625V12.8125C9.0625 12.1495 8.79911 11.5136 8.33027 11.0447C7.86143 10.5759 7.22554 10.3125 6.5625 10.3125C5.89946 10.3125 5.26357 10.5759 4.79473 11.0447C4.32589 11.5136 4.0625 12.1495 4.0625 12.8125V13.125H3.75C3.50136 13.125 3.2629 13.2238 3.08709 13.3996C2.91127 13.5754 2.8125 13.8139 2.8125 14.0625V17.5C2.8125 17.7486 2.91127 17.9871 3.08709 18.1629C3.2629 18.3387 3.50136 18.4375 3.75 18.4375H9.375C9.62364 18.4375 9.8621 18.3387 10.0379 18.1629C10.2137 17.9871 10.3125 17.7486 10.3125 17.5V14.0625C10.3125 13.8139 10.2137 13.5754 10.0379 13.3996C9.8621 13.2238 9.62364 13.125 9.375 13.125ZM5.9375 12.8125C5.9375 12.6467 6.00335 12.4878 6.12056 12.3706C6.23777 12.2533 6.39674 12.1875 6.5625 12.1875C6.72826 12.1875 6.88723 12.2533 7.00444 12.3706C7.12165 12.4878 7.1875 12.6467 7.1875 12.8125V13.125H5.9375V12.8125ZM8.4375 16.5625H4.6875V15H8.4375V16.5625ZM16.9133 6.2125L12.5383 1.8375C12.4512 1.75033 12.3478 1.68117 12.234 1.63398C12.1202 1.5868 11.9982 1.56251 11.875 1.5625H4.375C3.9606 1.5625 3.56317 1.72712 3.27015 2.02015C2.97712 2.31317 2.8125 2.7106 2.8125 3.125V9.0625C2.8125 9.31114 2.91127 9.5496 3.08709 9.72541C3.2629 9.90123 3.50136 10 3.75 10C3.99864 10 4.2371 9.90123 4.41291 9.72541C4.58873 9.5496 4.6875 9.31114 4.6875 9.0625V3.4375H10.625V7.1875C10.625 7.43614 10.7238 7.6746 10.8996 7.85041C11.0754 8.02623 11.3139 8.125 11.5625 8.125H15.3125V16.5625H12.8125C12.5639 16.5625 12.3254 16.6613 12.1496 16.8371C11.9738 17.0129 11.875 17.2514 11.875 17.5C11.875 17.7486 11.9738 17.9871 12.1496 18.1629C12.3254 18.3387 12.5639 18.4375 12.8125 18.4375H15.625C16.0394 18.4375 16.4368 18.2729 16.7299 17.9799C17.0229 17.6868 17.1875 17.2894 17.1875 16.875V6.875C17.1875 6.62656 17.0889 6.38827 16.9133 6.2125ZM12.5 4.45312L14.2969 6.25H12.5V4.45312Z" fill="#191F2E"/>
</svg>
