<svg width="20" height="20" viewBox="0 0 20 20" fill="none" xmlns="http://www.w3.org/2000/svg">
<path d="M8.90625 11.3547C8.82073 11.2258 8.70464 11.12 8.56832 11.0469C8.432 10.9737 8.2797 10.9354 8.125 10.9354C7.97029 10.9354 7.81799 10.9737 7.68167 11.0469C7.54536 11.12 7.42926 11.2258 7.34375 11.3547L6.17187 13.1109L5.64843 12.3227C5.56204 12.1933 5.44482 12.0875 5.30733 12.0147C5.16985 11.9419 5.01641 11.9045 4.86086 11.9058C4.70531 11.9072 4.55254 11.9472 4.4163 12.0222C4.28006 12.0973 4.16465 12.2051 4.08047 12.3359L1.08672 16.993C0.995669 17.1346 0.94443 17.2981 0.93838 17.4663C0.93233 17.6345 0.971692 17.8013 1.05233 17.9491C1.13297 18.0969 1.25192 18.2202 1.39667 18.3061C1.54143 18.3921 1.70665 18.4375 1.875 18.4375H11.875C12.0448 18.4378 12.2115 18.3919 12.3573 18.3047C12.5031 18.2176 12.6225 18.0925 12.7027 17.9428C12.7829 17.7931 12.821 17.6245 12.8128 17.4548C12.8046 17.2852 12.7505 17.121 12.6562 16.9797L8.90625 11.3547ZM3.59375 16.5625L4.88281 14.5547L5.39453 15.3211C5.48005 15.45 5.59614 15.5558 5.73245 15.6289C5.86877 15.7021 6.02107 15.7404 6.17578 15.7404C6.33048 15.7404 6.48279 15.7021 6.6191 15.6289C6.75542 15.5558 6.87151 15.45 6.95703 15.3211L8.1289 13.5648L10.1234 16.5625H3.59375ZM16.9133 6.21172L12.5383 1.83672C12.4511 1.74969 12.3477 1.68067 12.2339 1.63362C12.1201 1.58657 11.9981 1.5624 11.875 1.5625H4.375C3.9606 1.5625 3.56317 1.72712 3.27014 2.02015C2.97712 2.31317 2.8125 2.7106 2.8125 3.125V9.6875C2.8125 9.93614 2.91127 10.1746 3.08708 10.3504C3.2629 10.5262 3.50136 10.625 3.75 10.625C3.99864 10.625 4.23709 10.5262 4.41291 10.3504C4.58873 10.1746 4.6875 9.93614 4.6875 9.6875V3.4375H10.625V7.1875C10.625 7.43614 10.7238 7.6746 10.8996 7.85041C11.0754 8.02623 11.3139 8.125 11.5625 8.125H15.3125V16.5625C15.0639 16.5625 14.8254 16.6613 14.6496 16.8371C14.4738 17.0129 14.375 17.2514 14.375 17.5C14.375 17.7486 14.4738 17.9871 14.6496 18.1629C14.8254 18.3387 15.0639 18.4375 15.3125 18.4375H15.625C16.0394 18.4375 16.4368 18.2729 16.7299 17.9799C17.0229 17.6868 17.1875 17.2894 17.1875 16.875V6.875C17.1876 6.75185 17.1634 6.62989 17.1164 6.51608C17.0693 6.40227 17.0003 6.29885 16.9133 6.21172ZM12.5 4.45313L14.2969 6.25H12.5V4.45313Z" fill="#191F2E"/>
</svg>
