<svg width="20" height="20" viewBox="0 0 20 20" fill="none" xmlns="http://www.w3.org/2000/svg">
<path d="M3.75 9.375H16.25C16.4158 9.375 16.5747 9.30915 16.6919 9.19194C16.8092 9.07473 16.875 8.91576 16.875 8.75V6.875C16.8751 6.7929 16.859 6.71159 16.8276 6.63572C16.7962 6.55985 16.7502 6.4909 16.6922 6.43281L12.3172 2.05781C12.2591 1.99979 12.1902 1.95378 12.1143 1.92241C12.0384 1.89105 11.9571 1.87494 11.875 1.875H4.375C4.04348 1.875 3.72554 2.0067 3.49112 2.24112C3.2567 2.47554 3.125 2.79348 3.125 3.125V8.75C3.125 8.91576 3.19085 9.07473 3.30806 9.19194C3.42527 9.30915 3.58424 9.375 3.75 9.375ZM11.875 3.4375L15.3125 6.875H11.875V3.4375ZM9.375 11.25H8.125C7.95924 11.25 7.80027 11.3158 7.68306 11.4331C7.56585 11.5503 7.5 11.7092 7.5 11.875V16.25C7.5 16.4158 7.56585 16.5747 7.68306 16.6919C7.80027 16.8092 7.95924 16.875 8.125 16.875C8.29076 16.875 8.44973 16.8092 8.56694 16.6919C8.68415 16.5747 8.75 16.4158 8.75 16.25V15.625H9.375C9.95516 15.625 10.5116 15.3945 10.9218 14.9843C11.332 14.5741 11.5625 14.0177 11.5625 13.4375C11.5625 12.8573 11.332 12.3009 10.9218 11.8907C10.5116 11.4805 9.95516 11.25 9.375 11.25ZM9.375 14.375H8.75V12.5H9.375C9.62364 12.5 9.8621 12.5988 10.0379 12.7746C10.2137 12.9504 10.3125 13.1889 10.3125 13.4375C10.3125 13.6861 10.2137 13.9246 10.0379 14.1004C9.8621 14.2762 9.62364 14.375 9.375 14.375ZM16.875 15.693C16.875 15.8539 16.8129 16.0087 16.7016 16.125C16.4839 16.3593 16.2208 16.5466 15.9282 16.6756C15.6356 16.8046 15.3197 16.8724 15 16.875C13.6219 16.875 12.5 15.6133 12.5 14.0625C12.5 12.5117 13.6219 11.25 15 11.25C15.4595 11.2514 15.9081 11.3908 16.2875 11.65C16.4249 11.7432 16.5196 11.8872 16.5508 12.0503C16.582 12.2134 16.5471 12.3822 16.4539 12.5195C16.3607 12.6569 16.2167 12.7516 16.0536 12.7828C15.8905 12.814 15.7217 12.7792 15.5844 12.6859C15.4129 12.5662 15.2091 12.5013 15 12.5C14.3109 12.5 13.75 13.2031 13.75 14.0625C13.75 14.9219 14.3109 15.625 15 15.625C15.2255 15.6224 15.4443 15.5483 15.625 15.4133V15C15.4592 15 15.3003 14.9342 15.1831 14.8169C15.0658 14.6997 15 14.5408 15 14.375C15 14.2092 15.0658 14.0503 15.1831 13.9331C15.3003 13.8158 15.4592 13.75 15.625 13.75H16.25C16.4158 13.75 16.5747 13.8158 16.6919 13.9331C16.8092 14.0503 16.875 14.2092 16.875 14.375V15.693ZM6.25 11.875V14.8438C6.25 15.3825 6.03599 15.8991 5.65506 16.2801C5.27413 16.661 4.75747 16.875 4.21875 16.875C3.68003 16.875 3.16337 16.661 2.78244 16.2801C2.40151 15.8991 2.1875 15.3825 2.1875 14.8438C2.1875 14.678 2.25335 14.519 2.37056 14.4018C2.48777 14.2846 2.64674 14.2188 2.8125 14.2188C2.97826 14.2188 3.13723 14.2846 3.25444 14.4018C3.37165 14.519 3.4375 14.678 3.4375 14.8438C3.4375 15.051 3.51981 15.2497 3.66632 15.3962C3.81284 15.5427 4.01155 15.625 4.21875 15.625C4.42595 15.625 4.62466 15.5427 4.77118 15.3962C4.91769 15.2497 5 15.051 5 14.8438V11.875C5 11.7092 5.06585 11.5503 5.18306 11.4331C5.30027 11.3158 5.45924 11.25 5.625 11.25C5.79076 11.25 5.94973 11.3158 6.06694 11.4331C6.18415 11.5503 6.25 11.7092 6.25 11.875Z" fill="#191F2E"/>
</svg>
