<svg width="20" height="20" viewBox="0 0 20 20" fill="none" xmlns="http://www.w3.org/2000/svg">
<path d="M7.73906 10.0477C7.62487 10.0003 7.4992 9.98784 7.37794 10.0119C7.25667 10.036 7.14527 10.0954 7.05781 10.1828L5.36641 11.875H3.75C3.58424 11.875 3.42527 11.9408 3.30806 12.0581C3.19085 12.1753 3.125 12.3342 3.125 12.5V15.625C3.125 15.7908 3.19085 15.9497 3.30806 16.0669C3.42527 16.1842 3.58424 16.25 3.75 16.25H5.36641L7.05781 17.9422C7.14522 18.0297 7.25663 18.0893 7.37793 18.1135C7.49924 18.1376 7.62498 18.1252 7.73924 18.0779C7.85351 18.0305 7.95116 17.9504 8.01982 17.8475C8.08849 17.7446 8.1251 17.6237 8.125 17.5V10.625C8.12497 10.5014 8.08829 10.3806 8.0196 10.2778C7.9509 10.175 7.85327 10.0949 7.73906 10.0477ZM6.875 15.9914L6.06719 15.1828C6.0091 15.1248 5.94015 15.0788 5.86428 15.0474C5.78841 15.016 5.7071 14.9999 5.625 15H4.375V13.125H5.625C5.7071 13.1251 5.78841 13.109 5.86428 13.0776C5.94015 13.0462 6.0091 13.0002 6.06719 12.9422L6.875 12.1336V15.9914ZM11.875 14.0625C11.8744 14.6138 11.7299 15.1553 11.4559 15.6336C11.1818 16.1119 10.7877 16.5105 10.3125 16.7898C10.1702 16.8607 10.0062 16.8747 9.85399 16.8289C9.70175 16.7831 9.57267 16.6811 9.49303 16.5435C9.41338 16.4059 9.38916 16.2431 9.42529 16.0883C9.46142 15.9335 9.55518 15.7983 9.6875 15.7102C9.97403 15.541 10.2115 15.3001 10.3765 15.0111C10.5415 14.7222 10.6282 14.3952 10.6282 14.0625C10.6282 13.7298 10.5415 13.4028 10.3765 13.1139C10.2115 12.8249 9.97403 12.584 9.6875 12.4148C9.55518 12.3267 9.46142 12.1915 9.42529 12.0367C9.38916 11.8819 9.41338 11.7191 9.49303 11.5815C9.57267 11.4439 9.70175 11.3419 9.85399 11.2961C10.0062 11.2503 10.1702 11.2643 10.3125 11.3352C10.7877 11.6145 11.1818 12.0131 11.4559 12.4914C11.7299 12.9697 11.8744 13.5112 11.875 14.0625ZM16.6922 6.43281L12.3172 2.05781C12.2591 1.99979 12.1902 1.95378 12.1143 1.92241C12.0384 1.89105 11.9571 1.87494 11.875 1.875H4.375C4.04348 1.875 3.72554 2.0067 3.49112 2.24112C3.2567 2.47554 3.125 2.79348 3.125 3.125V9.375C3.125 9.54076 3.19085 9.69973 3.30806 9.81694C3.42527 9.93415 3.58424 10 3.75 10C3.91576 10 4.07473 9.93415 4.19194 9.81694C4.30915 9.69973 4.375 9.54076 4.375 9.375V3.125H11.25V6.875C11.25 7.04076 11.3158 7.19973 11.4331 7.31694C11.5503 7.43415 11.7092 7.5 11.875 7.5H15.625V16.875H13.125C12.9592 16.875 12.8003 16.9408 12.6831 17.0581C12.5658 17.1753 12.5 17.3342 12.5 17.5C12.5 17.6658 12.5658 17.8247 12.6831 17.9419C12.8003 18.0592 12.9592 18.125 13.125 18.125H15.625C15.9565 18.125 16.2745 17.9933 16.5089 17.7589C16.7433 17.5245 16.875 17.2065 16.875 16.875V6.875C16.8751 6.7929 16.859 6.71159 16.8276 6.63572C16.7962 6.55985 16.7502 6.4909 16.6922 6.43281ZM12.5 4.00859L14.7414 6.25H12.5V4.00859Z" fill="#191F2E"/>
</svg>
