<svg width="20" height="20" viewBox="0 0 20 20" fill="none" xmlns="http://www.w3.org/2000/svg">
<path d="M16.9133 6.21172L12.5383 1.83672C12.4512 1.74969 12.3477 1.68067 12.2339 1.63362C12.1201 1.58657 11.9982 1.5624 11.875 1.5625H4.375C3.9606 1.5625 3.56317 1.72712 3.27015 2.02015C2.97712 2.31317 2.8125 2.7106 2.8125 3.125V8.4375C2.8125 8.68614 2.91127 8.9246 3.08709 9.10041C3.2629 9.27623 3.50136 9.375 3.75 9.375C3.99864 9.375 4.2371 9.27623 4.41291 9.10041C4.58873 8.9246 4.6875 8.68614 4.6875 8.4375V3.4375H10.625V7.1875C10.625 7.43614 10.7238 7.6746 10.8996 7.85041C11.0754 8.02623 11.3139 8.125 11.5625 8.125H15.3125V16.5625H14.0625C13.8139 16.5625 13.5754 16.6613 13.3996 16.8371C13.2238 17.0129 13.125 17.2514 13.125 17.5C13.125 17.7486 13.2238 17.9871 13.3996 18.1629C13.5754 18.3387 13.8139 18.4375 14.0625 18.4375H15.625C16.0394 18.4375 16.4368 18.2729 16.7299 17.9799C17.0229 17.6868 17.1875 17.2894 17.1875 16.875V6.875C17.1876 6.75185 17.1634 6.62989 17.1164 6.51608C17.0693 6.40227 17.0003 6.29885 16.9133 6.21172ZM12.5 4.45313L14.2969 6.25H12.5V4.45313ZM12.1703 15.3789C12.1406 15.6626 12.0485 15.9363 11.9006 16.1802C11.7527 16.4241 11.5527 16.6323 11.3148 16.7898C10.8461 17.1023 10.2781 17.1922 9.77344 17.1922C9.34512 17.1894 8.91894 17.1314 8.50547 17.0195C8.26595 16.9526 8.06282 16.7933 7.94077 16.5766C7.81873 16.3599 7.78776 16.1036 7.85469 15.8641C7.92161 15.6245 8.08095 15.4214 8.29764 15.2994C8.51433 15.1773 8.77063 15.1464 9.01016 15.2133C9.54219 15.3586 10.182 15.3391 10.2906 15.218C10.2988 15.2004 10.3044 15.1817 10.307 15.1625C10.1555 15.0664 9.77344 14.9563 9.53516 14.8875C9.11406 14.7656 8.67578 14.6391 8.30469 14.3977C7.70938 14.0133 7.42891 13.425 7.51484 12.7414C7.54403 12.4632 7.63395 12.1948 7.77826 11.9552C7.92257 11.7156 8.11775 11.5106 8.35 11.3547C8.82344 11.0352 9.45703 10.8984 10.2328 10.95C10.5495 10.97 10.8637 11.0181 11.1719 11.0938C11.4096 11.1594 11.612 11.316 11.735 11.5298C11.8581 11.7436 11.8919 11.9972 11.8292 12.2358C11.7665 12.4743 11.6123 12.6786 11.4001 12.8042C11.1878 12.9299 10.9346 12.9668 10.6953 12.907C10.1984 12.7797 9.63125 12.7891 9.43984 12.8813C9.64216 12.9594 9.84843 13.027 10.0578 13.0836C10.4859 13.207 10.9703 13.3469 11.3703 13.6164C11.9789 14.0273 12.2656 14.6523 12.1703 15.3766V15.3789ZM6.5625 11.875V14.8438C6.5625 15.4654 6.31557 16.0615 5.87603 16.501C5.43649 16.9406 4.84035 17.1875 4.21875 17.1875C3.59715 17.1875 3.00101 16.9406 2.56147 16.501C2.12193 16.0615 1.875 15.4654 1.875 14.8438C1.875 14.5951 1.97377 14.3567 2.14959 14.1808C2.3254 14.005 2.56386 13.9062 2.8125 13.9062C3.06114 13.9062 3.2996 14.005 3.47541 14.1808C3.65123 14.3567 3.75 14.5951 3.75 14.8438C3.75 14.9681 3.79939 15.0873 3.88729 15.1752C3.9752 15.2631 4.09443 15.3125 4.21875 15.3125C4.34307 15.3125 4.4623 15.2631 4.55021 15.1752C4.63811 15.0873 4.6875 14.9681 4.6875 14.8438V11.875C4.6875 11.6264 4.78627 11.3879 4.96209 11.2121C5.1379 11.0363 5.37636 10.9375 5.625 10.9375C5.87364 10.9375 6.1121 11.0363 6.28791 11.2121C6.46373 11.3879 6.5625 11.6264 6.5625 11.875Z" fill="#191F2E"/>
</svg>
