<svg width="20" height="20" viewBox="0 0 20 20" fill="none" xmlns="http://www.w3.org/2000/svg">
<path d="M16.6922 6.43281L12.3172 2.05781C12.2591 1.99979 12.1902 1.95378 12.1143 1.92241C12.0384 1.89105 11.9571 1.87494 11.875 1.875H4.375C4.04348 1.875 3.72553 2.0067 3.49111 2.24112C3.25669 2.47554 3.125 2.79348 3.125 3.125V8.75C3.125 8.91576 3.19084 9.07473 3.30805 9.19194C3.42526 9.30915 3.58424 9.375 3.75 9.375H16.25C16.4158 9.375 16.5747 9.30915 16.6919 9.19194C16.8091 9.07473 16.875 8.91576 16.875 8.75V6.875C16.8751 6.7929 16.8589 6.71159 16.8276 6.63572C16.7962 6.55985 16.7502 6.4909 16.6922 6.43281ZM11.875 6.875V3.4375L15.3125 6.875H11.875ZM6.86093 15.3367C6.83657 15.5758 6.75956 15.8064 6.63541 16.0122C6.51127 16.2179 6.34309 16.3936 6.14296 16.5266C5.7375 16.7969 5.23437 16.875 4.77656 16.875C4.37731 16.8725 3.97995 16.82 3.59375 16.7188C3.436 16.6725 3.3028 16.5661 3.223 16.4224C3.14321 16.2786 3.12323 16.1093 3.16741 15.951C3.21159 15.7926 3.31637 15.6581 3.45904 15.5765C3.60172 15.4948 3.7708 15.4727 3.92968 15.5148C4.27187 15.6086 5.09765 15.7258 5.45703 15.4867C5.52578 15.4406 5.6 15.368 5.62421 15.1797C5.65156 14.9711 5.56875 14.8594 4.62578 14.5867C3.89531 14.3758 2.67265 14.0219 2.8289 12.7812C2.85322 12.5469 2.92882 12.3208 3.05034 12.1189C3.17185 11.9171 3.33631 11.7444 3.53203 11.6133C4.45703 10.9883 5.93203 11.3547 6.09687 11.3977C6.25724 11.4398 6.3943 11.544 6.47788 11.6872C6.56147 11.8304 6.58474 12.001 6.54257 12.1613C6.50041 12.3217 6.39626 12.4588 6.25305 12.5423C6.10983 12.6259 5.93928 12.6492 5.7789 12.607C5.4289 12.5156 4.58906 12.407 4.22968 12.6508C4.18258 12.6826 4.14379 12.7252 4.1166 12.7751C4.08941 12.825 4.07461 12.8807 4.07343 12.9375C4.06484 13.0078 4.0625 13.0227 4.16093 13.0859C4.3414 13.2023 4.66406 13.2953 4.97734 13.3859C5.74218 13.607 7.03593 13.9844 6.86093 15.3367ZM11.8391 12.0852L10.2766 16.4602C10.2332 16.5816 10.1534 16.6867 10.048 16.761C9.94263 16.8353 9.81684 16.8752 9.68789 16.8752C9.55894 16.8752 9.43315 16.8353 9.32776 16.761C9.22237 16.6867 9.14254 16.5816 9.09922 16.4602L7.53672 12.0852C7.50609 12.0072 7.49143 11.9239 7.49361 11.8403C7.49579 11.7566 7.51477 11.6741 7.54941 11.5979C7.58406 11.5217 7.63366 11.4532 7.69529 11.3965C7.75691 11.3399 7.82929 11.2961 7.90814 11.268C7.98699 11.2398 8.07069 11.2278 8.15428 11.2326C8.23787 11.2374 8.31964 11.2589 8.39474 11.2959C8.46983 11.333 8.53673 11.3847 8.59145 11.4481C8.64617 11.5114 8.6876 11.5852 8.71328 11.6648L9.6875 14.3914L10.6609 11.6648C10.7167 11.5087 10.8321 11.3811 10.982 11.3101C11.1318 11.2392 11.3036 11.2306 11.4598 11.2863C11.6159 11.3421 11.7435 11.4575 11.8145 11.6073C11.8854 11.7572 11.894 11.929 11.8383 12.0852H11.8391ZM16.875 14.375V15.693C16.875 15.8539 16.8128 16.0087 16.7016 16.125C16.4839 16.3593 16.2208 16.5466 15.9282 16.6756C15.6356 16.8046 15.3197 16.8724 15 16.875C13.6219 16.875 12.5 15.6133 12.5 14.0625C12.5 12.5117 13.6219 11.25 15 11.25C15.4595 11.2514 15.908 11.3908 16.2875 11.65C16.4219 11.744 16.5139 11.887 16.5438 12.0482C16.5737 12.2094 16.5391 12.3759 16.4474 12.5118C16.3556 12.6478 16.2142 12.7422 16.0535 12.7747C15.8928 12.8073 15.7257 12.7754 15.5883 12.6859C15.4156 12.5657 15.2104 12.5008 15 12.5C14.3109 12.5 13.75 13.2031 13.75 14.0625C13.75 14.9219 14.3109 15.625 15 15.625C15.2257 15.6238 15.445 15.5495 15.625 15.4133V15C15.4592 15 15.3003 14.9342 15.1831 14.8169C15.0658 14.6997 15 14.5408 15 14.375C15 14.2092 15.0658 14.0503 15.1831 13.9331C15.3003 13.8158 15.4592 13.75 15.625 13.75H16.25C16.4158 13.75 16.5747 13.8158 16.6919 13.9331C16.8091 14.0503 16.875 14.2092 16.875 14.375Z" fill="#191F2E"/>
</svg>
