<svg width="20" height="20" viewBox="0 0 20 20" fill="none" xmlns="http://www.w3.org/2000/svg">
<path d="M16.6922 6.43281L12.3172 2.05781C12.2591 1.99979 12.1902 1.95378 12.1143 1.92241C12.0384 1.89105 11.9571 1.87494 11.875 1.875H4.375C4.04348 1.875 3.72554 2.0067 3.49112 2.24112C3.2567 2.47554 3.125 2.79348 3.125 3.125V16.875C3.125 17.2065 3.2567 17.5245 3.49112 17.7589C3.72554 17.9933 4.04348 18.125 4.375 18.125H15.625C15.9565 18.125 16.2745 17.9933 16.5089 17.7589C16.7433 17.5245 16.875 17.2065 16.875 16.875V6.875C16.8751 6.7929 16.859 6.71159 16.8276 6.63572C16.7962 6.55985 16.7502 6.4909 16.6922 6.43281ZM12.5 4.00859L14.7414 6.25H12.5V4.00859ZM15.625 16.875H4.375V3.125H11.25V6.875C11.25 7.04076 11.3158 7.19973 11.4331 7.31694C11.5503 7.43415 11.7092 7.5 11.875 7.5H15.625V16.875ZM12.5 11.875C12.5 12.0408 12.4342 12.1997 12.3169 12.3169C12.1997 12.4342 12.0408 12.5 11.875 12.5H10.625V13.75C10.625 13.9158 10.5592 14.0747 10.4419 14.1919C10.3247 14.3092 10.1658 14.375 10 14.375C9.83424 14.375 9.67527 14.3092 9.55806 14.1919C9.44085 14.0747 9.375 13.9158 9.375 13.75V12.5H8.125C7.95924 12.5 7.80027 12.4342 7.68306 12.3169C7.56585 12.1997 7.5 12.0408 7.5 11.875C7.5 11.7092 7.56585 11.5503 7.68306 11.4331C7.80027 11.3158 7.95924 11.25 8.125 11.25H9.375V10C9.375 9.83424 9.44085 9.67527 9.55806 9.55806C9.67527 9.44085 9.83424 9.375 10 9.375C10.1658 9.375 10.3247 9.44085 10.4419 9.55806C10.5592 9.67527 10.625 9.83424 10.625 10V11.25H11.875C12.0408 11.25 12.1997 11.3158 12.3169 11.4331C12.4342 11.5503 12.5 11.7092 12.5 11.875Z" fill="#191F2E"/>
</svg>
