<svg width="20" height="20" viewBox="0 0 20 20" fill="none" xmlns="http://www.w3.org/2000/svg">
<path d="M9.375 13.75H8.75V13.4375C8.75 12.8573 8.51953 12.3009 8.1093 11.8907C7.69906 11.4805 7.14266 11.25 6.5625 11.25C5.98234 11.25 5.42594 11.4805 5.0157 11.8907C4.60547 12.3009 4.375 12.8573 4.375 13.4375V13.75H3.75C3.58424 13.75 3.42527 13.8158 3.30806 13.9331C3.19085 14.0503 3.125 14.2092 3.125 14.375V17.5C3.125 17.6658 3.19085 17.8247 3.30806 17.9419C3.42527 18.0592 3.58424 18.125 3.75 18.125H9.375C9.54076 18.125 9.69973 18.0592 9.81694 17.9419C9.93415 17.8247 10 17.6658 10 17.5V14.375C10 14.2092 9.93415 14.0503 9.81694 13.9331C9.69973 13.8158 9.54076 13.75 9.375 13.75ZM5.625 13.4375C5.625 13.1889 5.72377 12.9504 5.89959 12.7746C6.0754 12.5988 6.31386 12.5 6.5625 12.5C6.81114 12.5 7.0496 12.5988 7.22541 12.7746C7.40123 12.9504 7.5 13.1889 7.5 13.4375V13.75H5.625V13.4375ZM8.75 16.875H4.375V15H8.75V16.875ZM16.6922 6.43281L12.3172 2.05781C12.2591 1.99979 12.1902 1.95378 12.1143 1.92241C12.0384 1.89105 11.9571 1.87494 11.875 1.875H4.375C4.04348 1.875 3.72554 2.0067 3.49112 2.24112C3.2567 2.47554 3.125 2.79348 3.125 3.125V10C3.125 10.1658 3.19085 10.3247 3.30806 10.4419C3.42527 10.5592 3.58424 10.625 3.75 10.625C3.91576 10.625 4.07473 10.5592 4.19194 10.4419C4.30915 10.3247 4.375 10.1658 4.375 10V3.125H11.25V6.875C11.25 7.04076 11.3158 7.19973 11.4331 7.31694C11.5503 7.43415 11.7092 7.5 11.875 7.5H15.625V16.875H12.5C12.3342 16.875 12.1753 16.9408 12.0581 17.0581C11.9408 17.1753 11.875 17.3342 11.875 17.5C11.875 17.6658 11.9408 17.8247 12.0581 17.9419C12.1753 18.0592 12.3342 18.125 12.5 18.125H15.625C15.9565 18.125 16.2745 17.9933 16.5089 17.7589C16.7433 17.5245 16.875 17.2065 16.875 16.875V6.875C16.8751 6.7929 16.859 6.71159 16.8276 6.63572C16.7962 6.55985 16.7502 6.4909 16.6922 6.43281ZM12.5 4.00859L14.7414 6.25H12.5V4.00859Z" fill="#191F2E"/>
</svg>
