<svg width="20" height="20" viewBox="0 0 20 20" fill="none" xmlns="http://www.w3.org/2000/svg">
<path d="M11.5805 11.9695C11.4904 11.9135 11.3876 11.8813 11.2817 11.876C11.1758 11.8706 11.0702 11.8924 10.975 11.9391L9.31719 12.7508C9.23754 12.4969 9.07897 12.2751 8.86455 12.1176C8.65014 11.9601 8.39105 11.8751 8.125 11.875H3.75C3.41848 11.875 3.10054 12.0067 2.86612 12.2411C2.6317 12.4755 2.5 12.7935 2.5 13.125V16.25C2.5 16.5815 2.6317 16.8995 2.86612 17.1339C3.10054 17.3683 3.41848 17.5 3.75 17.5H8.125C8.40008 17.4997 8.66738 17.4087 8.88547 17.241C9.10355 17.0733 9.26024 16.8384 9.33125 16.5727L10.9594 17.432C11.0549 17.4822 11.1618 17.5068 11.2697 17.5034C11.3775 17.5 11.4827 17.4688 11.5748 17.4127C11.667 17.3566 11.7431 17.2776 11.7957 17.1834C11.8483 17.0891 11.8756 16.9829 11.875 16.875V12.5C11.875 12.3938 11.848 12.2894 11.7964 12.1966C11.7449 12.1038 11.6706 12.0257 11.5805 11.9695ZM8.125 16.25H3.75V13.125H8.125V15.5469C8.125 15.557 8.125 15.5664 8.125 15.5766V16.25ZM10.625 15.8406L9.375 15.1828V14.1141L10.625 13.5023V15.8406ZM16.6922 6.43281L12.3172 2.05781C12.2591 1.99979 12.1902 1.95378 12.1143 1.92241C12.0384 1.89105 11.9571 1.87494 11.875 1.875H4.375C4.04348 1.875 3.72554 2.0067 3.49112 2.24112C3.2567 2.47554 3.125 2.79348 3.125 3.125V10C3.125 10.1658 3.19085 10.3247 3.30806 10.4419C3.42527 10.5592 3.58424 10.625 3.75 10.625C3.91576 10.625 4.07473 10.5592 4.19194 10.4419C4.30915 10.3247 4.375 10.1658 4.375 10V3.125H11.25V6.875C11.25 7.04076 11.3158 7.19973 11.4331 7.31694C11.5503 7.43415 11.7092 7.5 11.875 7.5H15.625V16.875H13.75C13.5842 16.875 13.4253 16.9408 13.3081 17.0581C13.1908 17.1753 13.125 17.3342 13.125 17.5C13.125 17.6658 13.1908 17.8247 13.3081 17.9419C13.4253 18.0592 13.5842 18.125 13.75 18.125H15.625C15.9565 18.125 16.2745 17.9933 16.5089 17.7589C16.7433 17.5245 16.875 17.2065 16.875 16.875V6.875C16.8751 6.7929 16.859 6.71159 16.8276 6.63572C16.7962 6.55985 16.7502 6.4909 16.6922 6.43281ZM12.5 4.00859L14.7414 6.25H12.5V4.00859Z" fill="#191F2E"/>
</svg>
