<svg width="20" height="20" viewBox="0 0 20 20" fill="none" xmlns="http://www.w3.org/2000/svg">
<path d="M16.9133 6.21172L12.5383 1.83672C12.4512 1.74969 12.3477 1.68067 12.2339 1.63362C12.1201 1.58657 11.9982 1.5624 11.875 1.5625H4.375C3.9606 1.5625 3.56317 1.72712 3.27015 2.02015C2.97712 2.31317 2.8125 2.7106 2.8125 3.125V16.875C2.8125 17.2894 2.97712 17.6868 3.27015 17.9799C3.56317 18.2729 3.9606 18.4375 4.375 18.4375H15.625C16.0394 18.4375 16.4368 18.2729 16.7299 17.9799C17.0229 17.6868 17.1875 17.2894 17.1875 16.875V6.875C17.1876 6.75185 17.1634 6.62989 17.1164 6.51608C17.0693 6.40227 17.0003 6.29885 16.9133 6.21172ZM12.5 4.45313L14.2969 6.25H12.5V4.45313ZM4.6875 16.5625V3.4375H10.625V7.1875C10.625 7.43614 10.7238 7.6746 10.8996 7.85041C11.0754 8.02623 11.3139 8.125 11.5625 8.125H15.3125V16.5625H4.6875ZM12.8125 11.875C12.8125 12.1236 12.7137 12.3621 12.5379 12.5379C12.3621 12.7137 12.1236 12.8125 11.875 12.8125H8.125C7.87636 12.8125 7.6379 12.7137 7.46209 12.5379C7.28627 12.3621 7.1875 12.1236 7.1875 11.875C7.1875 11.6264 7.28627 11.3879 7.46209 11.2121C7.6379 11.0363 7.87636 10.9375 8.125 10.9375H11.875C12.1236 10.9375 12.3621 11.0363 12.5379 11.2121C12.7137 11.3879 12.8125 11.6264 12.8125 11.875Z" fill="#191F2E"/>
</svg>
