<svg width="20" height="20" viewBox="0 0 20 20" fill="none" xmlns="http://www.w3.org/2000/svg">
<path d="M16.9133 6.2125L12.5383 1.8375C12.4512 1.75033 12.3478 1.68117 12.234 1.63398C12.1202 1.5868 11.9982 1.56251 11.875 1.5625H4.375C3.9606 1.5625 3.56317 1.72712 3.27015 2.02015C2.97712 2.31317 2.8125 2.7106 2.8125 3.125V16.875C2.8125 17.2894 2.97712 17.6868 3.27015 17.9799C3.56317 18.2729 3.9606 18.4375 4.375 18.4375H15.625C16.0394 18.4375 16.4368 18.2729 16.7299 17.9799C17.0229 17.6868 17.1875 17.2894 17.1875 16.875V6.875C17.1875 6.62656 17.0889 6.38827 16.9133 6.2125ZM14.2969 6.25H12.5V4.45312L14.2969 6.25ZM4.6875 16.5625V3.4375H10.625V7.1875C10.625 7.43614 10.7238 7.6746 10.8996 7.85041C11.0754 8.02623 11.3139 8.125 11.5625 8.125H15.3125V16.5625H4.6875ZM12.5383 10.6633L11.3281 11.875L12.5406 13.0867C12.7167 13.2628 12.8157 13.5017 12.8157 13.7508C12.8157 13.9999 12.7167 14.2387 12.5406 14.4148C12.3645 14.591 12.1256 14.6899 11.8766 14.6899C11.6275 14.6899 11.3886 14.591 11.2125 14.4148L10 13.2031L8.78828 14.4156C8.61216 14.5917 8.37329 14.6907 8.12422 14.6907C7.87515 14.6907 7.63628 14.5917 7.46016 14.4156C7.28404 14.2395 7.18509 14.0006 7.18509 13.7516C7.18509 13.5025 7.28404 13.2636 7.46016 13.0875L8.67188 11.875L7.46172 10.6633C7.37451 10.5761 7.30534 10.4725 7.25814 10.3586C7.21095 10.2447 7.18666 10.1225 7.18666 9.99922C7.18665 9.87589 7.21095 9.75377 7.25814 9.63983C7.30534 9.52589 7.37451 9.42236 7.46172 9.33516C7.54892 9.24795 7.65245 9.17877 7.76639 9.13158C7.88033 9.08438 8.00245 9.06009 8.12578 9.06009C8.24911 9.06009 8.37123 9.08438 8.48517 9.13158C8.59911 9.17877 8.70264 9.24795 8.78984 9.33516L10 10.5469L11.2117 9.33438C11.2989 9.24717 11.4025 9.17799 11.5164 9.1308C11.6303 9.0836 11.7525 9.05931 11.8758 9.05931C11.9991 9.05931 12.1212 9.0836 12.2352 9.1308C12.3491 9.17799 12.4526 9.24717 12.5398 9.33438C12.627 9.42158 12.6962 9.52511 12.7434 9.63905C12.7906 9.75299 12.8149 9.87511 12.8149 9.99844C12.8149 10.1218 12.7906 10.2439 12.7434 10.3578C12.6962 10.4718 12.627 10.5753 12.5398 10.6625L12.5383 10.6633Z" fill="#191F2E"/>
</svg>
