<svg width="20" height="20" viewBox="0 0 20 20" fill="none" xmlns="http://www.w3.org/2000/svg">
<path d="M17.325 15.7031C17.3968 15.8033 17.4482 15.9167 17.4762 16.0367C17.5042 16.1567 17.5083 16.2811 17.4883 16.4027C17.4682 16.5244 17.4244 16.6409 17.3593 16.7455C17.2942 16.8502 17.2092 16.9411 17.109 17.0129C17.0088 17.0847 16.8955 17.1361 16.7754 17.1641C16.6554 17.1921 16.531 17.1962 16.4094 17.1761C16.2877 17.1561 16.1713 17.1123 16.0666 17.0472C15.9619 16.9821 15.871 16.8971 15.7992 16.7969L15 15.6734L14.2 16.7969C14.1282 16.8971 14.0373 16.9821 13.9326 17.0472C13.828 17.1123 13.7115 17.1561 13.5899 17.1761C13.4682 17.1962 13.3438 17.1921 13.2238 17.1641C13.1038 17.1361 12.9904 17.0847 12.8902 17.0129C12.79 16.9411 12.705 16.8502 12.6399 16.7455C12.5748 16.6409 12.531 16.5244 12.511 16.4027C12.4909 16.2811 12.495 16.1567 12.523 16.0367C12.551 15.9167 12.6024 15.8033 12.6742 15.7031L13.8461 14.0625L12.6742 12.4219C12.5292 12.2195 12.4705 11.9679 12.511 11.7223C12.5515 11.4766 12.6879 11.2571 12.8902 11.1121C13.0926 10.9671 13.3442 10.9083 13.5899 10.9489C13.8355 10.9894 14.055 11.1258 14.2 11.3281L15 12.4484L15.7992 11.3281C15.9443 11.1258 16.1637 10.9894 16.4094 10.9489C16.655 10.9083 16.9067 10.9671 17.109 11.1121C17.3113 11.2571 17.4477 11.4766 17.4883 11.7223C17.5288 11.9679 17.47 12.2195 17.325 12.4219L16.1531 14.0625L17.325 15.7031ZM11.0555 13.6148C10.6555 13.3453 10.1703 13.2055 9.74297 13.082C9.53359 13.0254 9.32732 12.9579 9.125 12.8797C9.31641 12.7875 9.88359 12.7781 10.3805 12.9055C10.6175 12.9597 10.8664 12.9197 11.0745 12.7939C11.2827 12.6681 11.4338 12.4663 11.4959 12.2312C11.5581 11.996 11.5264 11.746 11.4076 11.5337C11.2889 11.3215 11.0923 11.1637 10.8594 11.0938C10.5518 11.0179 10.238 10.9692 9.92188 10.9484C9.14609 10.8969 8.51562 11.0328 8.03906 11.3523C7.80672 11.5083 7.61148 11.7134 7.46717 11.9532C7.32285 12.193 7.23298 12.4615 7.20391 12.7398C7.11797 13.4227 7.39766 14.0109 7.99375 14.3953C8.36719 14.6367 8.80312 14.7625 9.22422 14.8844C9.45859 14.9539 9.84453 15.0641 9.99609 15.1602C9.99343 15.1794 9.9879 15.1981 9.97969 15.2156C9.87266 15.3367 9.23125 15.3555 8.69922 15.2109C8.57989 15.1752 8.45463 15.1636 8.33076 15.1768C8.20689 15.19 8.0869 15.2278 7.97779 15.2879C7.86869 15.348 7.77266 15.4293 7.69531 15.5269C7.61796 15.6246 7.56085 15.7367 7.52732 15.8566C7.49378 15.9766 7.48449 16.102 7.49999 16.2257C7.51549 16.3493 7.55547 16.4685 7.61759 16.5765C7.6797 16.6845 7.76272 16.779 7.86178 16.8545C7.96084 16.9301 8.07396 16.9851 8.19453 17.0164C8.60757 17.1276 9.03321 17.1851 9.46094 17.1875C9.96562 17.1875 10.5336 17.0961 11.0023 16.7852C11.2397 16.6282 11.4394 16.4208 11.5873 16.1777C11.7352 15.9346 11.8276 15.6618 11.8578 15.3789C11.9531 14.6508 11.6664 14.0258 11.0555 13.6148ZM5.9375 10.9375H2.8125C2.56386 10.9375 2.3254 11.0363 2.14959 11.2121C1.97377 11.3879 1.875 11.6264 1.875 11.875C1.875 12.1236 1.97377 12.3621 2.14959 12.5379C2.3254 12.7137 2.56386 12.8125 2.8125 12.8125H3.4375V16.25C3.4375 16.4986 3.53627 16.7371 3.71209 16.9129C3.8879 17.0887 4.12636 17.1875 4.375 17.1875C4.62364 17.1875 4.8621 17.0887 5.03791 16.9129C5.21373 16.7371 5.3125 16.4986 5.3125 16.25V12.8125H5.9375C6.18614 12.8125 6.4246 12.7137 6.60041 12.5379C6.77623 12.3621 6.875 12.1236 6.875 11.875C6.875 11.6264 6.77623 11.3879 6.60041 11.2121C6.4246 11.0363 6.18614 10.9375 5.9375 10.9375ZM2.8125 8.4375V3.125C2.8125 2.7106 2.97712 2.31317 3.27015 2.02015C3.56317 1.72712 3.9606 1.5625 4.375 1.5625H11.875C11.9982 1.5624 12.1201 1.58657 12.2339 1.63362C12.3477 1.68067 12.4512 1.74969 12.5383 1.83672L16.9133 6.21172C17.0003 6.29885 17.0693 6.40227 17.1164 6.51608C17.1634 6.62989 17.1876 6.75185 17.1875 6.875V8.4375C17.1875 8.68614 17.0887 8.9246 16.9129 9.10041C16.7371 9.27623 16.4986 9.375 16.25 9.375C16.0014 9.375 15.7629 9.27623 15.5871 9.10041C15.4113 8.9246 15.3125 8.68614 15.3125 8.4375V8.125H11.5625C11.3139 8.125 11.0754 8.02623 10.8996 7.85041C10.7238 7.6746 10.625 7.43614 10.625 7.1875V3.4375H4.6875V8.4375C4.6875 8.68614 4.58873 8.9246 4.41291 9.10041C4.2371 9.27623 3.99864 9.375 3.75 9.375C3.50136 9.375 3.2629 9.27623 3.08709 9.10041C2.91127 8.9246 2.8125 8.68614 2.8125 8.4375ZM12.5 6.25H14.2969L12.5 4.45313V6.25Z" fill="#191F2E"/>
</svg>
