<svg width="20" height="20" viewBox="0 0 20 20" fill="none" xmlns="http://www.w3.org/2000/svg">
<path d="M16.6922 6.43281L12.3172 2.05781C12.2591 1.99979 12.1902 1.95378 12.1143 1.92241C12.0384 1.89105 11.9571 1.87494 11.875 1.875H4.375C4.04348 1.875 3.72554 2.0067 3.49112 2.24112C3.2567 2.47554 3.125 2.79348 3.125 3.125V8.75C3.125 8.91576 3.19085 9.07473 3.30806 9.19194C3.42527 9.30915 3.58424 9.375 3.75 9.375H12.5C12.6658 9.375 12.8247 9.44085 12.9419 9.55806C13.0592 9.67527 13.125 9.83424 13.125 10V17.5C13.125 17.6658 13.1908 17.8247 13.3081 17.9419C13.4253 18.0592 13.5842 18.125 13.75 18.125H15.625C15.9565 18.125 16.2745 17.9933 16.5089 17.7589C16.7433 17.5245 16.875 17.2065 16.875 16.875V6.875C16.8751 6.7929 16.859 6.71159 16.8276 6.63572C16.7962 6.55985 16.7502 6.4909 16.6922 6.43281ZM11.875 6.875V3.4375L15.3125 6.875H11.875ZM11.5477 15.3367C11.5233 15.5758 11.4463 15.8064 11.3221 16.0122C11.198 16.2179 11.0298 16.3936 10.8297 16.5266C10.4242 16.7969 9.92188 16.875 9.46328 16.875C9.06429 16.8725 8.66719 16.82 8.28125 16.7188C8.20127 16.6975 8.1263 16.6606 8.06068 16.6102C7.99507 16.5598 7.94012 16.4968 7.89903 16.425C7.85794 16.3532 7.83152 16.2739 7.8213 16.1918C7.81108 16.1097 7.81727 16.0264 7.83951 15.9467C7.86176 15.867 7.8996 15.7925 7.95086 15.7275C8.00212 15.6625 8.06576 15.6084 8.13811 15.5682C8.21045 15.5281 8.29005 15.5027 8.37229 15.4935C8.45453 15.4843 8.53777 15.4916 8.61719 15.5148C8.95938 15.6086 9.78906 15.7258 10.1445 15.4867C10.2133 15.4406 10.2875 15.368 10.3117 15.1797C10.3391 14.9711 10.2562 14.8594 9.31328 14.5867C8.58281 14.3758 7.36016 14.0219 7.51641 12.7812C7.54078 12.5469 7.6164 12.3208 7.73791 12.119C7.85942 11.9171 8.02385 11.7445 8.21953 11.6133C9.14453 10.9883 10.6187 11.3547 10.7844 11.3977C10.9447 11.4398 11.0818 11.544 11.1654 11.6872C11.249 11.8304 11.2722 12.001 11.2301 12.1613C11.1879 12.3217 11.0838 12.4588 10.9406 12.5423C10.7973 12.6259 10.6268 12.6492 10.4664 12.607C10.1156 12.5156 9.27656 12.407 8.91719 12.6508C8.87008 12.6826 8.8313 12.7252 8.80411 12.7751C8.77691 12.825 8.76211 12.8807 8.76094 12.9375C8.75156 13.0078 8.75 13.0227 8.84766 13.0859C9.02812 13.2023 9.35156 13.2953 9.66406 13.3859C10.4289 13.607 11.7227 13.9844 11.5477 15.3367ZM6.875 11.875C6.875 12.0408 6.80915 12.1997 6.69194 12.3169C6.57473 12.4342 6.41576 12.5 6.25 12.5H5.3125V16.25C5.3125 16.4158 5.24665 16.5747 5.12944 16.6919C5.01223 16.8092 4.85326 16.875 4.6875 16.875C4.52174 16.875 4.36277 16.8092 4.24556 16.6919C4.12835 16.5747 4.0625 16.4158 4.0625 16.25V12.5H3.125C2.95924 12.5 2.80027 12.4342 2.68306 12.3169C2.56585 12.1997 2.5 12.0408 2.5 11.875C2.5 11.7092 2.56585 11.5503 2.68306 11.4331C2.80027 11.3158 2.95924 11.25 3.125 11.25H6.25C6.41576 11.25 6.57473 11.3158 6.69194 11.4331C6.80915 11.5503 6.875 11.7092 6.875 11.875Z" fill="#191F2E"/>
</svg>
