<svg width="20" height="20" viewBox="0 0 20 20" fill="none" xmlns="http://www.w3.org/2000/svg">
<path d="M11.25 11.5625C11.25 11.8715 11.1584 12.1736 10.9867 12.4306C10.815 12.6875 10.571 12.8878 10.2854 13.0061C9.99993 13.1243 9.68577 13.1553 9.38267 13.095C9.07958 13.0347 8.80117 12.8859 8.58265 12.6674C8.36413 12.4488 8.21531 12.1704 8.15502 11.8673C8.09473 11.5642 8.12568 11.2501 8.24394 10.9646C8.3622 10.679 8.56247 10.435 8.81942 10.2633C9.07637 10.0916 9.37847 10 9.6875 10C10.1019 10 10.4993 10.1646 10.7924 10.4576C11.0854 10.7507 11.25 11.1481 11.25 11.5625ZM16.875 6.875V16.875C16.875 17.2065 16.7433 17.5245 16.5089 17.7589C16.2745 17.9933 15.9565 18.125 15.625 18.125H4.375C4.04348 18.125 3.72554 17.9933 3.49112 17.7589C3.2567 17.5245 3.125 17.2065 3.125 16.875V3.125C3.125 2.79348 3.2567 2.47554 3.49112 2.24112C3.72554 2.0067 4.04348 1.875 4.375 1.875H11.875C11.9571 1.87494 12.0384 1.89105 12.1143 1.92241C12.1902 1.95378 12.2591 1.99979 12.3172 2.05781L16.6922 6.43281C16.7502 6.4909 16.7962 6.55985 16.8276 6.63572C16.859 6.71159 16.8751 6.7929 16.875 6.875ZM12.9422 13.9328L12.0672 13.0586C12.436 12.4725 12.576 11.771 12.4604 11.0882C12.3447 10.4054 11.9816 9.78914 11.4403 9.35717C10.899 8.9252 10.2175 8.7078 9.52609 8.74651C8.83464 8.78522 8.1817 9.07732 7.69201 9.56701C7.20232 10.0567 6.91022 10.7096 6.87151 11.4011C6.8328 12.0925 7.0502 12.774 7.48217 13.3153C7.91414 13.8566 8.5304 14.2197 9.2132 14.3354C9.896 14.451 10.5975 14.311 11.1836 13.9422L12.0578 14.8172C12.1159 14.8753 12.1848 14.9213 12.2607 14.9527C12.3366 14.9842 12.4179 15.0003 12.5 15.0003C12.5821 15.0003 12.6634 14.9842 12.7393 14.9527C12.8152 14.9213 12.8841 14.8753 12.9422 14.8172C13.0003 14.7591 13.0463 14.6902 13.0777 14.6143C13.1092 14.5384 13.1253 14.4571 13.1253 14.375C13.1253 14.2929 13.1092 14.2116 13.0777 14.1357C13.0463 14.0598 13.0003 13.9909 12.9422 13.9328ZM15.3125 6.875L11.875 3.4375V6.875H15.3125Z" fill="#191F2E"/>
</svg>
