<svg width="20" height="20" viewBox="0 0 20 20" fill="none" xmlns="http://www.w3.org/2000/svg">
<path d="M3.75 14.0625C3.75 14.9219 4.31094 15.625 5 15.625C5.15082 15.6216 5.29937 15.5876 5.43663 15.525C5.57389 15.4624 5.69699 15.3726 5.79844 15.2609C5.85438 15.1986 5.9223 15.1481 5.99816 15.1124C6.07401 15.0768 6.15625 15.0568 6.23999 15.0537C6.32372 15.0505 6.40725 15.0642 6.48559 15.0939C6.56393 15.1236 6.63549 15.1688 6.69601 15.2268C6.75653 15.2847 6.80479 15.3543 6.83789 15.4313C6.871 15.5082 6.88829 15.5911 6.88874 15.6749C6.88918 15.7587 6.87277 15.8417 6.84048 15.919C6.8082 15.9964 6.76069 16.0664 6.70078 16.125C6.48342 16.3594 6.22041 16.5468 5.92792 16.6758C5.63543 16.8048 5.31965 16.8726 5 16.875C3.62109 16.875 2.5 15.6133 2.5 14.0625C2.5 12.5117 3.62109 11.25 5 11.25C5.31965 11.2524 5.63543 11.3202 5.92792 11.4492C6.22041 11.5782 6.48342 11.7656 6.70078 12C6.76069 12.0586 6.8082 12.1286 6.84048 12.206C6.87277 12.2833 6.88918 12.3663 6.88874 12.4501C6.88829 12.5339 6.871 12.6168 6.83789 12.6937C6.80479 12.7707 6.75653 12.8403 6.69601 12.8982C6.63549 12.9562 6.56393 13.0014 6.48559 13.0311C6.40725 13.0608 6.32372 13.0745 6.23999 13.0713C6.15625 13.0682 6.07401 13.0482 5.99816 13.0126C5.9223 12.9769 5.85438 12.9264 5.79844 12.8641C5.6971 12.7523 5.57403 12.6623 5.43675 12.5997C5.29946 12.5371 5.15085 12.5032 5 12.5C4.31094 12.5 3.75 13.2031 3.75 14.0625ZM9.96875 13.3836C9.65625 13.293 9.33281 13.2 9.15234 13.0836C9.05391 13.0203 9.05625 13.0055 9.06484 12.9352C9.06602 12.8783 9.08082 12.8226 9.10801 12.7727C9.1352 12.7229 9.17399 12.6802 9.22109 12.6484C9.58047 12.4047 10.4203 12.5133 10.7703 12.6047C10.9307 12.6469 11.1012 12.6236 11.2445 12.54C11.3877 12.4564 11.4918 12.3194 11.534 12.159C11.5761 11.9986 11.5529 11.8281 11.4693 11.6848C11.3857 11.5416 11.2487 11.4375 11.0883 11.3953C10.9227 11.3523 9.44766 10.9875 8.52344 11.6109C8.32772 11.7421 8.16326 11.9147 8.04175 12.1166C7.92023 12.3184 7.84463 12.5446 7.82031 12.7789C7.66406 14.0195 8.88594 14.3734 9.61719 14.5844C10.5602 14.857 10.643 14.9688 10.6156 15.1773C10.5914 15.3656 10.5172 15.4383 10.4484 15.4844C10.0891 15.7234 9.26328 15.6062 8.92109 15.5125C8.76221 15.4703 8.59313 15.4925 8.45045 15.5741C8.30778 15.6557 8.203 15.7903 8.15882 15.9486C8.11465 16.1069 8.13462 16.2763 8.21441 16.42C8.29421 16.5637 8.42741 16.6702 8.58516 16.7164C8.97237 16.8179 9.3708 16.8704 9.77109 16.8727C10.2266 16.8727 10.732 16.7945 11.1375 16.5242C11.3376 16.3912 11.5058 16.2156 11.6299 16.0098C11.7541 15.8041 11.8311 15.5734 11.8555 15.3344C12.0312 13.9844 10.7406 13.607 9.96875 13.3836ZM14.9688 13.3836C14.6562 13.293 14.3328 13.2 14.1523 13.0836C14.0547 13.0203 14.0562 13.0055 14.0648 12.9352C14.066 12.8783 14.0808 12.8226 14.108 12.7727C14.1352 12.7229 14.174 12.6802 14.2211 12.6484C14.5805 12.4047 15.4195 12.5133 15.7695 12.6047C15.9299 12.6469 16.1005 12.6236 16.2437 12.54C16.3869 12.4564 16.491 12.3194 16.5332 12.159C16.5754 11.9986 16.5521 11.8281 16.4685 11.6848C16.3849 11.5416 16.2479 11.4375 16.0875 11.3953C15.9227 11.3523 14.4469 10.9875 13.5227 11.6109C13.3278 11.7426 13.1642 11.9155 13.0433 12.1173C12.9225 12.3191 12.8475 12.5449 12.8234 12.7789C12.6672 14.0195 13.8898 14.3734 14.6203 14.5844C15.5625 14.857 15.6453 14.9688 15.6187 15.1773C15.5945 15.3656 15.5203 15.4383 15.4508 15.4844C15.0914 15.7234 14.2664 15.6062 13.9242 15.5125C13.7643 15.468 13.5932 15.4888 13.4485 15.5704C13.3039 15.652 13.1977 15.7877 13.1531 15.9477C13.1086 16.1076 13.1294 16.2787 13.211 16.4233C13.2926 16.5679 13.4283 16.6742 13.5883 16.7188C13.9758 16.8202 14.3745 16.8727 14.775 16.875C15.2297 16.875 15.7359 16.7969 16.1414 16.5266C16.3414 16.3935 16.5095 16.2178 16.6335 16.0121C16.7575 15.8064 16.8344 15.5757 16.8586 15.3367C17.0312 13.9844 15.7406 13.607 14.968 13.3836H14.9688ZM3.125 8.75V3.125C3.125 2.79348 3.2567 2.47554 3.49112 2.24112C3.72554 2.0067 4.04348 1.875 4.375 1.875H11.875C11.9571 1.87494 12.0384 1.89105 12.1143 1.92241C12.1902 1.95378 12.2591 1.99979 12.3172 2.05781L16.6922 6.43281C16.7502 6.4909 16.7962 6.55985 16.8276 6.63572C16.859 6.71159 16.8751 6.7929 16.875 6.875V8.75C16.875 8.91576 16.8092 9.07473 16.6919 9.19194C16.5747 9.30915 16.4158 9.375 16.25 9.375H3.75C3.58424 9.375 3.42527 9.30915 3.30806 9.19194C3.19085 9.07473 3.125 8.91576 3.125 8.75ZM11.875 6.875H15.3125L11.875 3.4375V6.875Z" fill="#191F2E"/>
</svg>
