<svg width="20" height="20" viewBox="0 0 20 20" fill="none" xmlns="http://www.w3.org/2000/svg">
<path d="M14.375 11.25H13.125C12.9592 11.25 12.8003 11.3158 12.6831 11.4331C12.5658 11.5503 12.5 11.7092 12.5 11.875V16.25C12.5 16.4158 12.5658 16.5747 12.6831 16.6919C12.8003 16.8092 12.9592 16.875 13.125 16.875C13.2908 16.875 13.4497 16.8092 13.5669 16.6919C13.6842 16.5747 13.75 16.4158 13.75 16.25V15.625H14.375C14.9552 15.625 15.5116 15.3945 15.9218 14.9843C16.332 14.5741 16.5625 14.0177 16.5625 13.4375C16.5625 12.8573 16.332 12.3009 15.9218 11.8907C15.5116 11.4805 14.9552 11.25 14.375 11.25ZM14.375 14.375H13.75V12.5H14.375C14.6236 12.5 14.8621 12.5988 15.0379 12.7746C15.2137 12.9504 15.3125 13.1889 15.3125 13.4375C15.3125 13.6861 15.2137 13.9246 15.0379 14.1004C14.8621 14.2762 14.6236 14.375 14.375 14.375ZM10.625 11.875V16.25C10.625 16.4158 10.5592 16.5747 10.4419 16.6919C10.3247 16.8092 10.1658 16.875 10 16.875C9.83424 16.875 9.67527 16.8092 9.55806 16.6919C9.44085 16.5747 9.375 16.4158 9.375 16.25V11.875C9.375 11.7092 9.44085 11.5503 9.55806 11.4331C9.67527 11.3158 9.83424 11.25 10 11.25C10.1658 11.25 10.3247 11.3158 10.4419 11.4331C10.5592 11.5503 10.625 11.7092 10.625 11.875ZM7.5 16.25C7.5 16.4158 7.43415 16.5747 7.31694 16.6919C7.19973 16.8092 7.04076 16.875 6.875 16.875H4.375C4.26481 16.876 4.15633 16.8478 4.06053 16.7934C3.96473 16.7389 3.88504 16.6601 3.82951 16.5649C3.77399 16.4698 3.74462 16.3616 3.74438 16.2514C3.74413 16.1412 3.77303 16.0329 3.82812 15.9375L5.79375 12.5H4.375C4.20924 12.5 4.05027 12.4342 3.93306 12.3169C3.81585 12.1997 3.75 12.0408 3.75 11.875C3.75 11.7092 3.81585 11.5503 3.93306 11.4331C4.05027 11.3158 4.20924 11.25 4.375 11.25H6.875C6.98519 11.249 7.09367 11.2772 7.18947 11.3316C7.28527 11.3861 7.36496 11.4649 7.42049 11.5601C7.47601 11.6552 7.50538 11.7634 7.50562 11.8736C7.50587 11.9838 7.47697 12.0921 7.42188 12.1875L5.45234 15.625H6.875C7.04076 15.625 7.19973 15.6908 7.31694 15.8081C7.43415 15.9253 7.5 16.0842 7.5 16.25ZM16.6922 6.43281L12.3172 2.05781C12.2591 1.99979 12.1902 1.95378 12.1143 1.92241C12.0384 1.89105 11.9571 1.87494 11.875 1.875H4.375C4.04348 1.875 3.72554 2.0067 3.49112 2.24112C3.2567 2.47554 3.125 2.79348 3.125 3.125V8.75C3.125 8.91576 3.19085 9.07473 3.30806 9.19194C3.42527 9.30915 3.58424 9.375 3.75 9.375H16.25C16.4158 9.375 16.5747 9.30915 16.6919 9.19194C16.8092 9.07473 16.875 8.91576 16.875 8.75V6.875C16.8751 6.7929 16.859 6.71159 16.8276 6.63572C16.7962 6.55985 16.7502 6.4909 16.6922 6.43281ZM11.875 6.875V3.4375L15.3125 6.875H11.875Z" fill="#191F2E"/>
</svg>
