<svg width="20" height="20" viewBox="0 0 20 20" fill="none" xmlns="http://www.w3.org/2000/svg">
<path d="M16.6922 6.43281L12.3172 2.05781C12.2591 1.99979 12.1902 1.95378 12.1143 1.92241C12.0384 1.89105 11.9571 1.87494 11.875 1.875H4.375C4.04348 1.875 3.72554 2.0067 3.49112 2.24112C3.2567 2.47554 3.125 2.79348 3.125 3.125V16.875C3.125 17.2065 3.2567 17.5245 3.49112 17.7589C3.72554 17.9933 4.04348 18.125 4.375 18.125H15.625C15.9565 18.125 16.2745 17.9933 16.5089 17.7589C16.7433 17.5245 16.875 17.2065 16.875 16.875V6.875C16.8751 6.7929 16.859 6.71159 16.8276 6.63572C16.7962 6.55985 16.7502 6.4909 16.6922 6.43281ZM12.5 4.00859L14.7414 6.25H12.5V4.00859ZM15.625 16.875H8.75V15.625H9.375C9.54076 15.625 9.69973 15.5592 9.81694 15.4419C9.93415 15.3247 10 15.1658 10 15C10 14.8342 9.93415 14.6753 9.81694 14.5581C9.69973 14.4408 9.54076 14.375 9.375 14.375H8.75V13.125H9.375C9.54076 13.125 9.69973 13.0592 9.81694 12.9419C9.93415 12.8247 10 12.6658 10 12.5C10 12.3342 9.93415 12.1753 9.81694 12.0581C9.69973 11.9408 9.54076 11.875 9.375 11.875H8.75V10.625H9.375C9.54076 10.625 9.69973 10.5592 9.81694 10.4419C9.93415 10.3247 10 10.1658 10 10C10 9.83424 9.93415 9.67527 9.81694 9.55806C9.69973 9.44085 9.54076 9.375 9.375 9.375H8.75V8.75C8.75 8.58424 8.68415 8.42527 8.56694 8.30806C8.44973 8.19085 8.29076 8.125 8.125 8.125C7.95924 8.125 7.80027 8.19085 7.68306 8.30806C7.56585 8.42527 7.5 8.58424 7.5 8.75V9.375H6.875C6.70924 9.375 6.55027 9.44085 6.43306 9.55806C6.31585 9.67527 6.25 9.83424 6.25 10C6.25 10.1658 6.31585 10.3247 6.43306 10.4419C6.55027 10.5592 6.70924 10.625 6.875 10.625H7.5V11.875H6.875C6.70924 11.875 6.55027 11.9408 6.43306 12.0581C6.31585 12.1753 6.25 12.3342 6.25 12.5C6.25 12.6658 6.31585 12.8247 6.43306 12.9419C6.55027 13.0592 6.70924 13.125 6.875 13.125H7.5V14.375H6.875C6.70924 14.375 6.55027 14.4408 6.43306 14.5581C6.31585 14.6753 6.25 14.8342 6.25 15C6.25 15.1658 6.31585 15.3247 6.43306 15.4419C6.55027 15.5592 6.70924 15.625 6.875 15.625H7.5V16.875H4.375V3.125H11.25V6.875C11.25 7.04076 11.3158 7.19973 11.4331 7.31694C11.5503 7.43415 11.7092 7.5 11.875 7.5H15.625V16.875Z" fill="#191F2E"/>
</svg>
