<svg width="20" height="20" viewBox="0 0 20 20" fill="none" xmlns="http://www.w3.org/2000/svg">
<path d="M16.9133 6.2125L12.5383 1.8375C12.4512 1.75033 12.3478 1.68117 12.234 1.63398C12.1202 1.5868 11.9982 1.56251 11.875 1.5625H4.375C3.9606 1.5625 3.56317 1.72712 3.27015 2.02015C2.97712 2.31317 2.8125 2.7106 2.8125 3.125V16.875C2.8125 17.2894 2.97712 17.6868 3.27015 17.9799C3.56317 18.2729 3.9606 18.4375 4.375 18.4375H15.625C16.0394 18.4375 16.4368 18.2729 16.7299 17.9799C17.0229 17.6868 17.1875 17.2894 17.1875 16.875V6.875C17.1875 6.62656 17.0889 6.38827 16.9133 6.2125ZM12.5 4.45312L14.2969 6.25H12.5V4.45312ZM4.6875 16.5625V3.4375H10.625V7.1875C10.625 7.43614 10.7238 7.6746 10.8996 7.85041C11.0754 8.02623 11.3139 8.125 11.5625 8.125H15.3125V16.5625H4.6875ZM13.4375 10.3125C13.4375 10.5611 13.3387 10.7996 13.1629 10.9754C12.9871 11.1512 12.7486 11.25 12.5 11.25H7.5C7.25136 11.25 7.0129 11.1512 6.83709 10.9754C6.66127 10.7996 6.5625 10.5611 6.5625 10.3125C6.5625 10.0639 6.66127 9.8254 6.83709 9.64959C7.0129 9.47377 7.25136 9.375 7.5 9.375H12.5C12.7486 9.375 12.9871 9.47377 13.1629 9.64959C13.3387 9.8254 13.4375 10.0639 13.4375 10.3125ZM13.4375 13.4375C13.4375 13.6861 13.3387 13.9246 13.1629 14.1004C12.9871 14.2762 12.7486 14.375 12.5 14.375H7.5C7.25136 14.375 7.0129 14.2762 6.83709 14.1004C6.66127 13.9246 6.5625 13.6861 6.5625 13.4375C6.5625 13.1889 6.66127 12.9504 6.83709 12.7746C7.0129 12.5988 7.25136 12.5 7.5 12.5H12.5C12.7486 12.5 12.9871 12.5988 13.1629 12.7746C13.3387 12.9504 13.4375 13.1889 13.4375 13.4375Z" fill="#191F2E"/>
</svg>
