<svg width="20" height="20" viewBox="0 0 20 20" fill="none" xmlns="http://www.w3.org/2000/svg">
<path d="M7.54609 9.75859C7.37477 9.68758 7.18624 9.66898 7.00434 9.70513C6.82244 9.74129 6.65536 9.83058 6.52422 9.96172L4.92188 11.5625H3.4375C3.18886 11.5625 2.9504 11.6613 2.77459 11.8371C2.59877 12.0129 2.5 12.2514 2.5 12.5V15.625C2.5 15.8736 2.59877 16.1121 2.77459 16.2879C2.9504 16.4637 3.18886 16.5625 3.4375 16.5625H4.92188L6.52188 18.1625C6.65282 18.2945 6.82006 18.3846 7.00234 18.4213C7.18463 18.4581 7.37371 18.4398 7.54556 18.3687C7.71741 18.2977 7.86426 18.1772 7.96743 18.0225C8.07061 17.8678 8.12546 17.6859 8.125 17.5V10.625C8.12504 10.4395 8.07006 10.2582 7.96701 10.104C7.86396 9.94973 7.71747 9.82954 7.54609 9.75859ZM6.25 15.2344L5.97578 14.9594C5.79943 14.7845 5.56088 14.6867 5.3125 14.6875H4.375V13.4375H5.3125C5.43565 13.4376 5.55761 13.4134 5.67142 13.3664C5.78523 13.3193 5.88865 13.2503 5.97578 13.1633L6.25 12.8906V15.2344ZM12.5 14.0625C12.4996 14.668 12.3412 15.263 12.0404 15.7886C11.7397 16.3142 11.307 16.7522 10.7852 17.0594C10.6787 17.1288 10.5591 17.1758 10.4339 17.1975C10.3087 17.2193 10.1803 17.2154 10.0566 17.186C9.93298 17.1566 9.81657 17.1024 9.71452 17.0266C9.61246 16.9508 9.52687 16.8551 9.46297 16.7452C9.39907 16.6353 9.35817 16.5136 9.34278 16.3874C9.32739 16.2612 9.33782 16.1332 9.37344 16.0112C9.40905 15.8892 9.46911 15.7757 9.54996 15.6776C9.63082 15.5795 9.73077 15.4989 9.84375 15.4406C10.0829 15.2988 10.281 15.0971 10.4186 14.8555C10.5562 14.6138 10.6286 14.3406 10.6286 14.0625C10.6286 13.7844 10.5562 13.5112 10.4186 13.2695C10.281 13.0279 10.0829 12.8262 9.84375 12.6844C9.73462 12.6238 9.63868 12.542 9.56157 12.4438C9.48447 12.3457 9.42774 12.2331 9.39472 12.1127C9.3617 11.9923 9.35305 11.8666 9.36929 11.7428C9.38552 11.619 9.42631 11.4998 9.48926 11.392C9.55221 11.2842 9.63605 11.19 9.73587 11.1151C9.83568 11.0401 9.94946 10.9859 10.0705 10.9555C10.1916 10.9251 10.3175 10.9191 10.4409 10.9381C10.5643 10.957 10.6827 11.0003 10.7891 11.0656C11.3102 11.3733 11.7421 11.8115 12.0421 12.3371C12.3421 12.8626 12.5 13.4573 12.5 14.0625ZM16.9133 6.21172L12.5383 1.83672C12.4512 1.74969 12.3477 1.68067 12.2339 1.63362C12.1201 1.58657 11.9982 1.5624 11.875 1.5625H4.375C3.9606 1.5625 3.56317 1.72712 3.27015 2.02015C2.97712 2.31317 2.8125 2.7106 2.8125 3.125V9.0625C2.8125 9.31114 2.91127 9.5496 3.08709 9.72541C3.2629 9.90123 3.50136 10 3.75 10C3.99864 10 4.2371 9.90123 4.41291 9.72541C4.58873 9.5496 4.6875 9.31114 4.6875 9.0625V3.4375H10.625V7.1875C10.625 7.43614 10.7238 7.6746 10.8996 7.85041C11.0754 8.02623 11.3139 8.125 11.5625 8.125H15.3125V16.5625H13.4375C13.1889 16.5625 12.9504 16.6613 12.7746 16.8371C12.5988 17.0129 12.5 17.2514 12.5 17.5C12.5 17.7486 12.5988 17.9871 12.7746 18.1629C12.9504 18.3387 13.1889 18.4375 13.4375 18.4375H15.625C16.0394 18.4375 16.4368 18.2729 16.7299 17.9799C17.0229 17.6868 17.1875 17.2894 17.1875 16.875V6.875C17.1876 6.75185 17.1634 6.62989 17.1164 6.51608C17.0693 6.40227 17.0003 6.29885 16.9133 6.21172ZM12.5 4.45313L14.2969 6.25H12.5V4.45313Z" fill="#191F2E"/>
</svg>
