<svg width="20" height="20" viewBox="0 0 20 20" fill="none" xmlns="http://www.w3.org/2000/svg">
<path d="M16.9133 6.21172L12.5383 1.83672C12.4512 1.74969 12.3477 1.68067 12.2339 1.63362C12.1201 1.58657 11.9982 1.5624 11.875 1.5625H4.375C3.9606 1.5625 3.56317 1.72712 3.27015 2.02015C2.97712 2.31317 2.8125 2.7106 2.8125 3.125V16.875C2.8125 17.2894 2.97712 17.6868 3.27015 17.9799C3.56317 18.2729 3.9606 18.4375 4.375 18.4375H15.625C16.0394 18.4375 16.4368 18.2729 16.7299 17.9799C17.0229 17.6868 17.1875 17.2894 17.1875 16.875V6.875C17.1876 6.75185 17.1634 6.62989 17.1164 6.51608C17.0693 6.40227 17.0003 6.29885 16.9133 6.21172ZM14.2969 6.25H12.5V4.45313L14.2969 6.25ZM9.0625 16.5625V15H9.375C9.62364 15 9.8621 14.9012 10.0379 14.7254C10.2137 14.5496 10.3125 14.3111 10.3125 14.0625C10.3125 13.8139 10.2137 13.5754 10.0379 13.3996C9.8621 13.2238 9.62364 13.125 9.375 13.125H9.0625V11.875H9.375C9.62364 11.875 9.8621 11.7762 10.0379 11.6004C10.2137 11.4246 10.3125 11.1861 10.3125 10.9375C10.3125 10.6889 10.2137 10.4504 10.0379 10.2746C9.8621 10.0988 9.62364 10 9.375 10H9.0625V9.0625C9.0625 8.81386 8.96373 8.5754 8.78791 8.39959C8.6121 8.22377 8.37364 8.125 8.125 8.125C7.87636 8.125 7.6379 8.22377 7.46209 8.39959C7.28627 8.5754 7.1875 8.81386 7.1875 9.0625V10H6.875C6.62636 10 6.3879 10.0988 6.21209 10.2746C6.03627 10.4504 5.9375 10.6889 5.9375 10.9375C5.9375 11.1861 6.03627 11.4246 6.21209 11.6004C6.3879 11.7762 6.62636 11.875 6.875 11.875H7.1875V13.125H6.875C6.62636 13.125 6.3879 13.2238 6.21209 13.3996C6.03627 13.5754 5.9375 13.8139 5.9375 14.0625C5.9375 14.3111 6.03627 14.5496 6.21209 14.7254C6.3879 14.9012 6.62636 15 6.875 15H7.1875V16.5625H4.6875V3.4375H10.625V7.1875C10.625 7.43614 10.7238 7.6746 10.8996 7.85041C11.0754 8.02623 11.3139 8.125 11.5625 8.125H15.3125V16.5625H9.0625Z" fill="#191F2E"/>
</svg>
