<svg width="20" height="20" viewBox="0 0 20 20" fill="none" xmlns="http://www.w3.org/2000/svg">
<path d="M18.125 11.875C18.125 12.1236 18.0262 12.3621 17.8504 12.5379C17.6746 12.7137 17.4361 12.8125 17.1875 12.8125H16.5625V16.25C16.5625 16.4986 16.4637 16.7371 16.2879 16.9129C16.1121 17.0887 15.8736 17.1875 15.625 17.1875C15.3764 17.1875 15.1379 17.0887 14.9621 16.9129C14.7863 16.7371 14.6875 16.4986 14.6875 16.25V12.8125H14.0625C13.8139 12.8125 13.5754 12.7137 13.3996 12.5379C13.2238 12.3621 13.125 12.1236 13.125 11.875C13.125 11.6264 13.2238 11.3879 13.3996 11.2121C13.5754 11.0363 13.8139 10.9375 14.0625 10.9375H17.1875C17.4361 10.9375 17.6746 11.0363 17.8504 11.2121C18.0262 11.3879 18.125 11.6264 18.125 11.875ZM7.1875 13.4375C7.1875 14.1005 6.92411 14.7364 6.45527 15.2053C5.98643 15.6741 5.35054 15.9375 4.6875 15.9375H4.375V16.25C4.375 16.4986 4.27623 16.7371 4.10041 16.9129C3.9246 17.0887 3.68614 17.1875 3.4375 17.1875C3.18886 17.1875 2.9504 17.0887 2.77459 16.9129C2.59877 16.7371 2.5 16.4986 2.5 16.25V11.875C2.5 11.6264 2.59877 11.3879 2.77459 11.2121C2.9504 11.0363 3.18886 10.9375 3.4375 10.9375H4.6875C5.35054 10.9375 5.98643 11.2009 6.45527 11.6697C6.92411 12.1386 7.1875 12.7745 7.1875 13.4375ZM5.3125 13.4375C5.3125 13.2717 5.24665 13.1128 5.12944 12.9956C5.01223 12.8783 4.85326 12.8125 4.6875 12.8125H4.375V14.0625H4.6875C4.85326 14.0625 5.01223 13.9967 5.12944 13.8794C5.24665 13.7622 5.3125 13.6033 5.3125 13.4375ZM12.8125 13.4375C12.8125 14.1005 12.5491 14.7364 12.0803 15.2053C11.6114 15.6741 10.9755 15.9375 10.3125 15.9375H10V16.25C10 16.4986 9.90123 16.7371 9.72541 16.9129C9.5496 17.0887 9.31114 17.1875 9.0625 17.1875C8.81386 17.1875 8.5754 17.0887 8.39959 16.9129C8.22377 16.7371 8.125 16.4986 8.125 16.25V11.875C8.125 11.6264 8.22377 11.3879 8.39959 11.2121C8.5754 11.0363 8.81386 10.9375 9.0625 10.9375H10.3125C10.9755 10.9375 11.6114 11.2009 12.0803 11.6697C12.5491 12.1386 12.8125 12.7745 12.8125 13.4375ZM10.9375 13.4375C10.9375 13.2717 10.8717 13.1128 10.7544 12.9956C10.6372 12.8783 10.4783 12.8125 10.3125 12.8125H10V14.0625H10.3125C10.4783 14.0625 10.6372 13.9967 10.7544 13.8794C10.8717 13.7622 10.9375 13.6033 10.9375 13.4375ZM2.8125 8.4375V3.125C2.8125 2.7106 2.97712 2.31317 3.27015 2.02015C3.56317 1.72712 3.9606 1.5625 4.375 1.5625H11.875C11.9982 1.56251 12.1202 1.5868 12.234 1.63398C12.3478 1.68117 12.4512 1.75033 12.5383 1.8375L16.9133 6.2125C17.0889 6.38827 17.1875 6.62656 17.1875 6.875V8.4375C17.1875 8.68614 17.0887 8.9246 16.9129 9.10041C16.7371 9.27623 16.4986 9.375 16.25 9.375C16.0014 9.375 15.7629 9.27623 15.5871 9.10041C15.4113 8.9246 15.3125 8.68614 15.3125 8.4375V8.125H11.5625C11.3139 8.125 11.0754 8.02623 10.8996 7.85041C10.7238 7.6746 10.625 7.43614 10.625 7.1875V3.4375H4.6875V8.4375C4.6875 8.68614 4.58873 8.9246 4.41291 9.10041C4.2371 9.27623 3.99864 9.375 3.75 9.375C3.50136 9.375 3.2629 9.27623 3.08709 9.10041C2.91127 8.9246 2.8125 8.68614 2.8125 8.4375ZM12.5 6.25H14.2969L12.5 4.45312V6.25Z" fill="#191F2E"/>
</svg>
