<svg width="20" height="20" viewBox="0 0 20 20" fill="none" xmlns="http://www.w3.org/2000/svg">
<path d="M16.875 8.75V6.875C16.8751 6.7929 16.859 6.71159 16.8276 6.63572C16.7962 6.55985 16.7502 6.4909 16.6922 6.43281L12.3172 2.05781C12.2591 1.99979 12.1902 1.95378 12.1143 1.92241C12.0384 1.89105 11.9571 1.87494 11.875 1.875H4.375C4.04348 1.875 3.72554 2.0067 3.49112 2.24112C3.2567 2.47554 3.125 2.79348 3.125 3.125V8.75C3.125 8.91576 3.19085 9.07473 3.30806 9.19194C3.42527 9.30915 3.58424 9.375 3.75 9.375H16.25C16.4158 9.375 16.5747 9.30915 16.6919 9.19194C16.8092 9.07473 16.875 8.91576 16.875 8.75ZM11.875 6.875V3.4375L15.3125 6.875H11.875ZM10 11.875C10 12.0408 9.93415 12.1997 9.81694 12.3169C9.69973 12.4342 9.54076 12.5 9.375 12.5H8.75V16.25C8.75 16.4158 8.68415 16.5747 8.56694 16.6919C8.44973 16.8092 8.29076 16.875 8.125 16.875C7.95924 16.875 7.80027 16.8092 7.68306 16.6919C7.56585 16.5747 7.5 16.4158 7.5 16.25V12.5H6.875C6.70924 12.5 6.55027 12.4342 6.43306 12.3169C6.31585 12.1997 6.25 12.0408 6.25 11.875C6.25 11.7092 6.31585 11.5503 6.43306 11.4331C6.55027 11.3158 6.70924 11.25 6.875 11.25H9.375C9.54076 11.25 9.69973 11.3158 9.81694 11.4331C9.93415 11.5503 10 11.7092 10 11.875ZM5.625 11.875V16.25C5.625 16.4158 5.55915 16.5747 5.44194 16.6919C5.32473 16.8092 5.16576 16.875 5 16.875C4.83424 16.875 4.67527 16.8092 4.55806 16.6919C4.44085 16.5747 4.375 16.4158 4.375 16.25V14.6875H3.125V16.25C3.125 16.4158 3.05915 16.5747 2.94194 16.6919C2.82473 16.8092 2.66576 16.875 2.5 16.875C2.33424 16.875 2.17527 16.8092 2.05806 16.6919C1.94085 16.5747 1.875 16.4158 1.875 16.25V11.875C1.875 11.7092 1.94085 11.5503 2.05806 11.4331C2.17527 11.3158 2.33424 11.25 2.5 11.25C2.66576 11.25 2.82473 11.3158 2.94194 11.4331C3.05915 11.5503 3.125 11.7092 3.125 11.875V13.4375H4.375V11.875C4.375 11.7092 4.44085 11.5503 4.55806 11.4331C4.67527 11.3158 4.83424 11.25 5 11.25C5.16576 11.25 5.32473 11.3158 5.44194 11.4331C5.55915 11.5503 5.625 11.7092 5.625 11.875ZM19.375 16.25C19.375 16.4158 19.3092 16.5747 19.1919 16.6919C19.0747 16.8092 18.9158 16.875 18.75 16.875H17.1875C17.0217 16.875 16.8628 16.8092 16.7456 16.6919C16.6283 16.5747 16.5625 16.4158 16.5625 16.25V11.875C16.5625 11.7092 16.6283 11.5503 16.7456 11.4331C16.8628 11.3158 17.0217 11.25 17.1875 11.25C17.3533 11.25 17.5122 11.3158 17.6294 11.4331C17.7467 11.5503 17.8125 11.7092 17.8125 11.875V15.625H18.75C18.9158 15.625 19.0747 15.6908 19.1919 15.8081C19.3092 15.9253 19.375 16.0842 19.375 16.25ZM15.625 11.875V16.25C15.625 16.4158 15.5592 16.5747 15.4419 16.6919C15.3247 16.8092 15.1658 16.875 15 16.875C14.8342 16.875 14.6753 16.8092 14.5581 16.6919C14.4408 16.5747 14.375 16.4158 14.375 16.25V14.1313L13.6609 15.3219C13.6054 15.4144 13.5269 15.491 13.4329 15.5442C13.339 15.5974 13.2329 15.6253 13.125 15.6253C13.0171 15.6253 12.911 15.5974 12.8171 15.5442C12.7231 15.491 12.6446 15.4144 12.5891 15.3219L11.875 14.1313V16.25C11.875 16.4158 11.8092 16.5747 11.6919 16.6919C11.5747 16.8092 11.4158 16.875 11.25 16.875C11.0842 16.875 10.9253 16.8092 10.8081 16.6919C10.6908 16.5747 10.625 16.4158 10.625 16.25V11.875C10.6249 11.7383 10.6697 11.6053 10.7524 11.4965C10.8351 11.3876 10.9513 11.3089 11.083 11.2724C11.2148 11.2359 11.3548 11.2435 11.4818 11.2943C11.6088 11.345 11.7156 11.4359 11.7859 11.5531L13.125 13.7852L14.4641 11.5531C14.5344 11.4359 14.6412 11.345 14.7682 11.2943C14.8952 11.2435 15.0352 11.2359 15.167 11.2724C15.2987 11.3089 15.4149 11.3876 15.4976 11.4965C15.5803 11.6053 15.6251 11.7383 15.625 11.875Z" fill="#191F2E"/>
</svg>
