<svg width="20" height="20" viewBox="0 0 20 20" fill="none" xmlns="http://www.w3.org/2000/svg">
<path d="M14.6875 10.9375H13.4375C13.1889 10.9375 12.9504 11.0363 12.7746 11.2121C12.5988 11.3879 12.5 11.6264 12.5 11.875V16.25C12.5 16.4986 12.5988 16.7371 12.7746 16.9129C12.9504 17.0887 13.1889 17.1875 13.4375 17.1875C13.6861 17.1875 13.9246 17.0887 14.1004 16.9129C14.2762 16.7371 14.375 16.4986 14.375 16.25V15.9375H14.6875C15.3505 15.9375 15.9864 15.6741 16.4553 15.2053C16.9241 14.7364 17.1875 14.1005 17.1875 13.4375C17.1875 12.7745 16.9241 12.1386 16.4553 11.6697C15.9864 11.2009 15.3505 10.9375 14.6875 10.9375ZM14.6875 14.0625H14.375V12.8125H14.6875C14.8533 12.8125 15.0122 12.8783 15.1294 12.9956C15.2467 13.1128 15.3125 13.2717 15.3125 13.4375C15.3125 13.6033 15.2467 13.7622 15.1294 13.8794C15.0122 13.9967 14.8533 14.0625 14.6875 14.0625ZM10.9375 11.875V16.25C10.9375 16.4986 10.8387 16.7371 10.6629 16.9129C10.4871 17.0887 10.2486 17.1875 10 17.1875C9.75136 17.1875 9.5129 17.0887 9.33709 16.9129C9.16127 16.7371 9.0625 16.4986 9.0625 16.25V11.875C9.0625 11.6264 9.16127 11.3879 9.33709 11.2121C9.5129 11.0363 9.75136 10.9375 10 10.9375C10.2486 10.9375 10.4871 11.0363 10.6629 11.2121C10.8387 11.3879 10.9375 11.6264 10.9375 11.875ZM7.5 16.25C7.5 16.4986 7.40123 16.7371 7.22541 16.9129C7.0496 17.0887 6.81114 17.1875 6.5625 17.1875H4.0625C3.89832 17.1875 3.73703 17.1444 3.59475 17.0624C3.45248 16.9805 3.33421 16.8627 3.25179 16.7207C3.16937 16.5787 3.12567 16.4175 3.12509 16.2534C3.1245 16.0892 3.16703 15.9277 3.24844 15.7852L4.94688 12.8125H4.0625C3.81386 12.8125 3.5754 12.7137 3.39959 12.5379C3.22377 12.3621 3.125 12.1236 3.125 11.875C3.125 11.6264 3.22377 11.3879 3.39959 11.2121C3.5754 11.0363 3.81386 10.9375 4.0625 10.9375H6.5625C6.72725 10.9371 6.88919 10.9802 7.03201 11.0623C7.17483 11.1444 7.29348 11.2627 7.37602 11.4053C7.45856 11.5479 7.50207 11.7097 7.50216 11.8745C7.50226 12.0392 7.45894 12.2011 7.37656 12.3438L5.67812 15.3125H6.5625C6.81114 15.3125 7.0496 15.4113 7.22541 15.5871C7.40123 15.7629 7.5 16.0014 7.5 16.25ZM16.9133 6.2125L12.5383 1.8375C12.4512 1.75033 12.3478 1.68117 12.234 1.63398C12.1202 1.5868 11.9982 1.56251 11.875 1.5625H4.375C3.9606 1.5625 3.56317 1.72712 3.27015 2.02015C2.97712 2.31317 2.8125 2.7106 2.8125 3.125V8.4375C2.8125 8.68614 2.91127 8.9246 3.08709 9.10041C3.2629 9.27623 3.50136 9.375 3.75 9.375C3.99864 9.375 4.2371 9.27623 4.41291 9.10041C4.58873 8.9246 4.6875 8.68614 4.6875 8.4375V3.4375H10.625V7.1875C10.625 7.43614 10.7238 7.6746 10.8996 7.85041C11.0754 8.02623 11.3139 8.125 11.5625 8.125H15.3125V8.4375C15.3125 8.68614 15.4113 8.9246 15.5871 9.10041C15.7629 9.27623 16.0014 9.375 16.25 9.375C16.4986 9.375 16.7371 9.27623 16.9129 9.10041C17.0887 8.9246 17.1875 8.68614 17.1875 8.4375V6.875C17.1875 6.62656 17.0889 6.38827 16.9133 6.2125ZM12.5 6.25V4.45312L14.2969 6.25H12.5Z" fill="#191F2E"/>
</svg>
