<svg width="20" height="20" viewBox="0 0 20 20" fill="none" xmlns="http://www.w3.org/2000/svg">
<path d="M10 11.875C10 12.1236 9.90123 12.3621 9.72541 12.5379C9.5496 12.7137 9.31114 12.8125 9.0625 12.8125H8.90625V16.25C8.90625 16.4986 8.80748 16.7371 8.63166 16.9129C8.45585 17.0887 8.21739 17.1875 7.96875 17.1875C7.72011 17.1875 7.48165 17.0887 7.30584 16.9129C7.13002 16.7371 7.03125 16.4986 7.03125 16.25V12.8125H6.875C6.62636 12.8125 6.3879 12.7137 6.21209 12.5379C6.03627 12.3621 5.9375 12.1236 5.9375 11.875C5.9375 11.6264 6.03627 11.3879 6.21209 11.2121C6.3879 11.0363 6.62636 10.9375 6.875 10.9375H9.0625C9.31114 10.9375 9.5496 11.0363 9.72541 11.2121C9.90123 11.3879 10 11.6264 10 11.875ZM4.375 10.9375C4.12636 10.9375 3.8879 11.0363 3.71209 11.2121C3.53627 11.3879 3.4375 11.6264 3.4375 11.875V13.125H2.8125V11.875C2.8125 11.6264 2.71373 11.3879 2.53791 11.2121C2.3621 11.0363 2.12364 10.9375 1.875 10.9375C1.62636 10.9375 1.3879 11.0363 1.21209 11.2121C1.03627 11.3879 0.9375 11.6264 0.9375 11.875V16.25C0.9375 16.4986 1.03627 16.7371 1.21209 16.9129C1.3879 17.0887 1.62636 17.1875 1.875 17.1875C2.12364 17.1875 2.3621 17.0887 2.53791 16.9129C2.71373 16.7371 2.8125 16.4986 2.8125 16.25V15H3.4375V16.25C3.4375 16.4986 3.53627 16.7371 3.71209 16.9129C3.8879 17.0887 4.12636 17.1875 4.375 17.1875C4.62364 17.1875 4.8621 17.0887 5.03791 16.9129C5.21373 16.7371 5.3125 16.4986 5.3125 16.25V11.875C5.3125 11.6264 5.21373 11.3879 5.03791 11.2121C4.8621 11.0363 4.62364 10.9375 4.375 10.9375ZM19.0625 15.3125H18.75V11.875C18.75 11.6264 18.6512 11.3879 18.4754 11.2121C18.2996 11.0363 18.0611 10.9375 17.8125 10.9375C17.5639 10.9375 17.3254 11.0363 17.1496 11.2121C16.9738 11.3879 16.875 11.6264 16.875 11.875V16.25C16.875 16.4986 16.9738 16.7371 17.1496 16.9129C17.3254 17.0887 17.5639 17.1875 17.8125 17.1875H19.0625C19.3111 17.1875 19.5496 17.0887 19.7254 16.9129C19.9012 16.7371 20 16.4986 20 16.25C20 16.0014 19.9012 15.7629 19.7254 15.5871C19.5496 15.4113 19.3111 15.3125 19.0625 15.3125ZM15.5625 10.9719C15.365 10.9172 15.1549 10.9288 14.9646 11.0048C14.7742 11.0809 14.6141 11.2172 14.5086 11.393L13.4375 13.1781L12.3664 11.393C12.2609 11.2172 12.1008 11.0808 11.9104 11.0047C11.72 10.9287 11.51 10.9171 11.3124 10.9718C11.1148 11.0265 10.9406 11.1444 10.8165 11.3075C10.6923 11.4707 10.6251 11.67 10.625 11.875V16.25C10.625 16.4986 10.7238 16.7371 10.8996 16.9129C11.0754 17.0887 11.3139 17.1875 11.5625 17.1875C11.8111 17.1875 12.0496 17.0887 12.2254 16.9129C12.4012 16.7371 12.5 16.4986 12.5 16.25V15.2594L12.6336 15.482C12.7169 15.6209 12.8347 15.7357 12.9756 15.8155C13.1165 15.8953 13.2756 15.9372 13.4375 15.9372C13.5994 15.9372 13.7585 15.8953 13.8994 15.8155C14.0403 15.7357 14.1581 15.6209 14.2414 15.482L14.375 15.2594V16.25C14.375 16.4986 14.4738 16.7371 14.6496 16.9129C14.8254 17.0887 15.0639 17.1875 15.3125 17.1875C15.5611 17.1875 15.7996 17.0887 15.9754 16.9129C16.1512 16.7371 16.25 16.4986 16.25 16.25V11.875C16.2499 11.67 16.1826 11.4707 16.0585 11.3076C15.9343 11.1445 15.7601 11.0265 15.5625 10.9719ZM16.25 9.375C16.0014 9.375 15.7629 9.27623 15.5871 9.10041C15.4113 8.9246 15.3125 8.68614 15.3125 8.4375V8.125H11.5625C11.3139 8.125 11.0754 8.02623 10.8996 7.85041C10.7238 7.6746 10.625 7.43614 10.625 7.1875V3.4375H4.6875V8.4375C4.6875 8.68614 4.58873 8.9246 4.41291 9.10041C4.2371 9.27623 3.99864 9.375 3.75 9.375C3.50136 9.375 3.2629 9.27623 3.08709 9.10041C2.91127 8.9246 2.8125 8.68614 2.8125 8.4375V3.125C2.8125 2.7106 2.97712 2.31317 3.27015 2.02015C3.56317 1.72712 3.9606 1.5625 4.375 1.5625H11.875C11.9982 1.56251 12.1202 1.5868 12.234 1.63398C12.3478 1.68117 12.4512 1.75033 12.5383 1.8375L16.9133 6.2125C17.0889 6.38827 17.1875 6.62656 17.1875 6.875V8.4375C17.1875 8.68614 17.0887 8.9246 16.9129 9.10041C16.7371 9.27623 16.4986 9.375 16.25 9.375ZM14.2969 6.25L12.5 4.45312V6.25H14.2969Z" fill="#191F2E"/>
</svg>
