<svg width="20" height="20" viewBox="0 0 20 20" fill="none" xmlns="http://www.w3.org/2000/svg">
<path d="M4.6875 11.25H3.4375C3.27174 11.25 3.11277 11.3158 2.99556 11.4331C2.87835 11.5503 2.8125 11.7092 2.8125 11.875V16.25C2.8125 16.4158 2.87835 16.5747 2.99556 16.6919C3.11277 16.8092 3.27174 16.875 3.4375 16.875C3.60326 16.875 3.76223 16.8092 3.87944 16.6919C3.99665 16.5747 4.0625 16.4158 4.0625 16.25V15.625H4.6875C5.26766 15.625 5.82406 15.3945 6.2343 14.9843C6.64453 14.5741 6.875 14.0177 6.875 13.4375C6.875 12.8573 6.64453 12.3009 6.2343 11.8907C5.82406 11.4805 5.26766 11.25 4.6875 11.25ZM4.6875 14.375H4.0625V12.5H4.6875C4.93614 12.5 5.1746 12.5988 5.35041 12.7746C5.52623 12.9504 5.625 13.1889 5.625 13.4375C5.625 13.6861 5.52623 13.9246 5.35041 14.1004C5.1746 14.2762 4.93614 14.375 4.6875 14.375ZM17.5 15.693C17.5 15.8539 17.4379 16.0087 17.3266 16.125C17.1089 16.3593 16.8458 16.5466 16.5532 16.6756C16.2606 16.8046 15.9447 16.8724 15.625 16.875C14.2461 16.875 13.125 15.6133 13.125 14.0625C13.125 12.5117 14.2461 11.25 15.625 11.25C16.0844 11.2515 16.5328 11.3906 16.9125 11.6492C17.05 11.7425 17.1448 11.8865 17.1761 12.0496C17.2073 12.2128 17.1725 12.3817 17.0793 12.5191C16.9861 12.6566 16.842 12.7514 16.6789 12.7827C16.5157 12.814 16.3469 12.7792 16.2094 12.6859C16.0379 12.5662 15.8341 12.5013 15.625 12.5C14.9359 12.5 14.375 13.2031 14.375 14.0625C14.375 14.9219 14.9359 15.625 15.625 15.625C15.8506 15.6225 16.0696 15.548 16.25 15.4125V15C16.0842 15 15.9253 14.9342 15.8081 14.8169C15.6908 14.6997 15.625 14.5408 15.625 14.375C15.625 14.2092 15.6908 14.0503 15.8081 13.9331C15.9253 13.8158 16.0842 13.75 16.25 13.75H16.875C17.0408 13.75 17.1997 13.8158 17.3169 13.9331C17.4342 14.0503 17.5 14.2092 17.5 14.375V15.693ZM12.1875 11.875V16.25C12.1875 16.3825 12.1455 16.5115 12.0674 16.6185C11.9893 16.7255 11.8793 16.8049 11.7531 16.8453C11.6915 16.8651 11.6272 16.8751 11.5625 16.875C11.463 16.875 11.365 16.8513 11.2765 16.8057C11.188 16.7602 11.1117 16.6942 11.0539 16.6133L9.0625 13.8281V16.25C9.0625 16.4158 8.99665 16.5747 8.87944 16.6919C8.76223 16.8092 8.60326 16.875 8.4375 16.875C8.27174 16.875 8.11277 16.8092 7.99556 16.6919C7.87835 16.5747 7.8125 16.4158 7.8125 16.25V11.875C7.8125 11.7426 7.85455 11.6136 7.9326 11.5066C8.01065 11.3996 8.12066 11.3202 8.24676 11.2798C8.37287 11.2394 8.50855 11.2401 8.63424 11.2817C8.75993 11.3234 8.86913 11.404 8.94609 11.5117L10.9375 14.2969V11.875C10.9375 11.7092 11.0033 11.5503 11.1206 11.4331C11.2378 11.3158 11.3967 11.25 11.5625 11.25C11.7283 11.25 11.8872 11.3158 12.0044 11.4331C12.1217 11.5503 12.1875 11.7092 12.1875 11.875ZM3.75 9.375C3.91576 9.375 4.07473 9.30915 4.19194 9.19194C4.30915 9.07473 4.375 8.91576 4.375 8.75V3.125H11.25V6.875C11.25 7.04076 11.3158 7.19973 11.4331 7.31694C11.5503 7.43415 11.7092 7.5 11.875 7.5H15.625V8.75C15.625 8.91576 15.6908 9.07473 15.8081 9.19194C15.9253 9.30915 16.0842 9.375 16.25 9.375C16.4158 9.375 16.5747 9.30915 16.6919 9.19194C16.8092 9.07473 16.875 8.91576 16.875 8.75V6.875C16.8751 6.7929 16.859 6.71159 16.8276 6.63572C16.7962 6.55985 16.7502 6.4909 16.6922 6.43281L12.3172 2.05781C12.2591 1.99979 12.1902 1.95378 12.1143 1.92241C12.0384 1.89105 11.9571 1.87494 11.875 1.875H4.375C4.04348 1.875 3.72554 2.0067 3.49112 2.24112C3.2567 2.47554 3.125 2.79348 3.125 3.125V8.75C3.125 8.91576 3.19085 9.07473 3.30806 9.19194C3.42527 9.30915 3.58424 9.375 3.75 9.375ZM12.5 4.00859L14.7414 6.25H12.5V4.00859Z" fill="#191F2E"/>
</svg>
