<svg width="20" height="20" viewBox="0 0 20 20" fill="none" xmlns="http://www.w3.org/2000/svg">
<path d="M12.5 16.25C12.5 16.4986 12.4012 16.7371 12.2254 16.9129C12.0496 17.0887 11.8111 17.1875 11.5625 17.1875H9.37501C9.12637 17.1875 8.88791 17.0887 8.71209 16.9129C8.53628 16.7371 8.43751 16.4986 8.43751 16.25V11.875C8.43751 11.6264 8.53628 11.3879 8.71209 11.2121C8.88791 11.0363 9.12637 10.9375 9.37501 10.9375C9.62365 10.9375 9.8621 11.0363 10.0379 11.2121C10.2137 11.3879 10.3125 11.6264 10.3125 11.875V15.3125H11.5625C11.8111 15.3125 12.0496 15.4113 12.2254 15.5871C12.4012 15.7629 12.5 16.0014 12.5 16.25ZM7.10938 11.1109C7.00919 11.0391 6.89582 10.9877 6.77575 10.9597C6.65568 10.9318 6.53127 10.9278 6.40964 10.9479C6.28802 10.9681 6.17157 11.0121 6.06696 11.0773C5.96235 11.1425 5.87163 11.2278 5.80001 11.3281L5.00001 12.4484L4.20079 11.3281C4.05575 11.1258 3.83627 10.9894 3.59064 10.9489C3.34501 10.9083 3.09335 10.9671 2.89102 11.1121C2.68869 11.2571 2.55226 11.4766 2.51175 11.7223C2.47124 11.9679 2.52997 12.2195 2.67501 12.4219L3.84688 14.0625L2.67501 15.7031C2.60319 15.8033 2.55181 15.9167 2.5238 16.0367C2.49579 16.1567 2.49169 16.2811 2.51175 16.4027C2.53181 16.5244 2.57563 16.6409 2.6407 16.7455C2.70578 16.8502 2.79084 16.9411 2.89102 17.0129C2.99121 17.0847 3.10455 17.1361 3.2246 17.1641C3.34464 17.1921 3.46902 17.1962 3.59064 17.1761C3.71227 17.1561 3.82875 17.1123 3.93344 17.0472C4.03812 16.9821 4.12897 16.8971 4.20079 16.7969L5.00001 15.6734L5.80001 16.7969C5.94505 16.9992 6.16452 17.1356 6.41015 17.1761C6.65578 17.2167 6.90744 17.1579 7.10977 17.0129C7.3121 16.8679 7.44853 16.6484 7.48904 16.4027C7.52955 16.1571 7.47083 15.9055 7.32579 15.7031L6.15391 14.0625L7.32579 12.4219C7.39791 12.3217 7.44954 12.2082 7.47771 12.088C7.50587 11.9678 7.51002 11.8433 7.48992 11.7214C7.46981 11.5996 7.42584 11.483 7.36054 11.3782C7.29524 11.2735 7.20988 11.1826 7.10938 11.1109ZM16.682 13.6148C16.282 13.3453 15.7977 13.2055 15.3703 13.082C15.1607 13.0254 14.9541 12.9579 14.7516 12.8797C14.943 12.7875 15.5102 12.7781 16.007 12.9055C16.2435 12.9579 16.4912 12.9168 16.698 12.7907C16.9049 12.6646 17.0549 12.4633 17.1166 12.2291C17.1783 11.9948 17.147 11.7458 17.0291 11.5341C16.9112 11.3225 16.716 11.1646 16.4844 11.0938C16.1768 11.0179 15.863 10.9692 15.5469 10.9484C14.7711 10.8969 14.1406 11.0328 13.6641 11.3523C13.4317 11.5083 13.2365 11.7134 13.0922 11.9532C12.9479 12.193 12.858 12.4615 12.8289 12.7398C12.743 13.4227 13.0234 14.0109 13.6188 14.3953C13.9922 14.6367 14.4281 14.7625 14.8492 14.8844C15.0836 14.9539 15.4695 15.0641 15.6211 15.1602C15.6184 15.1794 15.6129 15.1981 15.6047 15.2156C15.4977 15.3367 14.8563 15.3555 14.3242 15.2109C14.2049 15.1752 14.0796 15.1636 13.9558 15.1768C13.8319 15.19 13.7119 15.2278 13.6028 15.2879C13.4937 15.348 13.3977 15.4293 13.3203 15.5269C13.243 15.6246 13.1859 15.7367 13.1523 15.8566C13.1188 15.9766 13.1095 16.102 13.125 16.2257C13.1405 16.3493 13.1805 16.4685 13.2426 16.5765C13.3047 16.6845 13.3877 16.779 13.4868 16.8545C13.5858 16.9301 13.699 16.9851 13.8195 17.0164C14.2326 17.1276 14.6582 17.1851 15.0859 17.1875C15.5906 17.1875 16.1586 17.0961 16.6273 16.7852C16.8647 16.6282 17.0645 16.4208 17.2123 16.1777C17.3602 15.9346 17.4526 15.6618 17.4828 15.3789C17.5781 14.6508 17.2914 14.0258 16.6805 13.6148H16.682ZM2.81251 8.4375V3.125C2.81251 2.7106 2.97713 2.31317 3.27015 2.02015C3.56318 1.72712 3.96061 1.5625 4.37501 1.5625H11.875C11.9982 1.5624 12.1201 1.58657 12.2339 1.63362C12.3477 1.68067 12.4512 1.74969 12.5383 1.83672L16.9133 6.21172C17.0003 6.29885 17.0693 6.40227 17.1164 6.51608C17.1634 6.62989 17.1876 6.75185 17.1875 6.875V8.4375C17.1875 8.68614 17.0887 8.9246 16.9129 9.10041C16.7371 9.27623 16.4986 9.375 16.25 9.375C16.0014 9.375 15.7629 9.27623 15.5871 9.10041C15.4113 8.9246 15.3125 8.68614 15.3125 8.4375V8.125H11.5625C11.3139 8.125 11.0754 8.02623 10.8996 7.85041C10.7238 7.6746 10.625 7.43614 10.625 7.1875V3.4375H4.68751V8.4375C4.68751 8.68614 4.58873 8.9246 4.41292 9.10041C4.2371 9.27623 3.99865 9.375 3.75001 9.375C3.50137 9.375 3.26291 9.27623 3.08709 9.10041C2.91128 8.9246 2.81251 8.68614 2.81251 8.4375ZM12.5 6.25H14.2969L12.5 4.45313V6.25Z" fill="#191F2E"/>
</svg>
