<svg width="20" height="20" viewBox="0 0 20 20" fill="none" xmlns="http://www.w3.org/2000/svg">
<path d="M6.86095 15.3367C6.83659 15.5758 6.75957 15.8064 6.63543 16.0122C6.51129 16.2179 6.34311 16.3936 6.14298 16.5266C5.73751 16.7969 5.23439 16.875 4.77657 16.875C4.37733 16.8725 3.97997 16.82 3.59376 16.7188C3.43601 16.6725 3.30282 16.5661 3.22302 16.4224C3.14322 16.2786 3.12325 16.1093 3.16743 15.951C3.21161 15.7926 3.31638 15.6581 3.45906 15.5765C3.60173 15.4948 3.77082 15.4727 3.9297 15.5148C4.27189 15.6086 5.09767 15.7258 5.45704 15.4867C5.52579 15.4406 5.60001 15.368 5.62423 15.1797C5.65157 14.9711 5.56876 14.8594 4.62579 14.5867C3.89532 14.3758 2.67267 14.0219 2.82892 12.7812C2.85324 12.5469 2.92884 12.3208 3.05035 12.1189C3.17187 11.9171 3.33632 11.7444 3.53204 11.6133C4.45704 10.9883 5.93204 11.3547 6.09689 11.3977C6.25726 11.4398 6.39431 11.544 6.4779 11.6872C6.56149 11.8304 6.58475 12.001 6.54259 12.1613C6.50042 12.3217 6.39628 12.4588 6.25306 12.5423C6.10985 12.6259 5.93929 12.6492 5.77892 12.607C5.42892 12.5156 4.58907 12.407 4.2297 12.6508C4.18259 12.6826 4.14381 12.7252 4.11662 12.7751C4.08943 12.825 4.07462 12.8807 4.07345 12.9375C4.06486 13.0078 4.06251 13.0227 4.16095 13.0859C4.34142 13.2023 4.66407 13.2953 4.97736 13.3859C5.7422 13.607 7.03595 13.9844 6.86095 15.3367ZM16.875 6.875V8.75C16.875 8.91576 16.8092 9.07473 16.692 9.19194C16.5747 9.30915 16.4158 9.375 16.25 9.375C16.0843 9.375 15.9253 9.30915 15.8081 9.19194C15.6909 9.07473 15.625 8.91576 15.625 8.75V7.5H11.875C11.7093 7.5 11.5503 7.43415 11.4331 7.31694C11.3159 7.19973 11.25 7.04076 11.25 6.875V3.125H4.37501V8.75C4.37501 8.91576 4.30916 9.07473 4.19195 9.19194C4.07474 9.30915 3.91577 9.375 3.75001 9.375C3.58425 9.375 3.42528 9.30915 3.30807 9.19194C3.19086 9.07473 3.12501 8.91576 3.12501 8.75V3.125C3.12501 2.79348 3.25671 2.47554 3.49113 2.24112C3.72555 2.0067 4.04349 1.875 4.37501 1.875H11.875C12.0406 1.87508 12.1993 1.94082 12.3164 2.05781L16.6914 6.43281C16.7496 6.49083 16.7957 6.55975 16.8272 6.63563C16.8587 6.7115 16.875 6.79285 16.875 6.875ZM12.5 6.25H14.7414L12.5 4.00859V6.25ZM11.4609 11.2867C11.3836 11.259 11.3016 11.2469 11.2196 11.2509C11.1376 11.2549 11.0572 11.2751 10.983 11.3102C10.9088 11.3453 10.8422 11.3947 10.7871 11.4556C10.732 11.5164 10.6894 11.5875 10.6617 11.6648L9.68751 14.3914L8.71329 11.6648C8.68761 11.5852 8.64618 11.5114 8.59146 11.4481C8.53674 11.3847 8.46985 11.333 8.39475 11.2959C8.31965 11.2589 8.23788 11.2374 8.15429 11.2326C8.0707 11.2278 7.987 11.2398 7.90815 11.268C7.82931 11.2961 7.75692 11.3399 7.6953 11.3965C7.63368 11.4532 7.58407 11.5217 7.54943 11.5979C7.51478 11.6741 7.49581 11.7566 7.49363 11.8403C7.49145 11.9239 7.5061 12.0072 7.53673 12.0852L9.09923 16.4602C9.14255 16.5816 9.22238 16.6867 9.32777 16.761C9.43316 16.8353 9.55895 16.8752 9.6879 16.8752C9.81685 16.8752 9.94264 16.8353 10.048 16.761C10.1534 16.6867 10.2333 16.5816 10.2766 16.4602L11.8391 12.0852C11.8947 11.9291 11.8862 11.7574 11.8153 11.6077C11.7444 11.458 11.6169 11.3425 11.4609 11.2867ZM16.25 13.75H15.625C15.4593 13.75 15.3003 13.8158 15.1831 13.9331C15.0659 14.0503 15 14.2092 15 14.375C15 14.5408 15.0659 14.6997 15.1831 14.8169C15.3003 14.9342 15.4593 15 15.625 15V15.4133C15.445 15.5495 15.2257 15.6238 15 15.625C14.3109 15.625 13.75 14.9219 13.75 14.0625C13.75 13.2031 14.3109 12.5 15 12.5C15.2104 12.5008 15.4156 12.5657 15.5883 12.6859C15.7257 12.7754 15.8928 12.8073 16.0535 12.7747C16.2142 12.7422 16.3556 12.6478 16.4474 12.5118C16.5391 12.3759 16.5738 12.2094 16.5439 12.0482C16.514 11.887 16.4219 11.744 16.2875 11.65C15.9081 11.3908 15.4595 11.2514 15 11.25C13.6219 11.25 12.5 12.5117 12.5 14.0625C12.5 15.6133 13.6219 16.875 15 16.875C15.3198 16.8724 15.6356 16.8046 15.9282 16.6756C16.2208 16.5466 16.4839 16.3593 16.7016 16.125C16.8129 16.0087 16.875 15.8539 16.875 15.693V14.375C16.875 14.2092 16.8092 14.0503 16.692 13.9331C16.5747 13.8158 16.4158 13.75 16.25 13.75Z" fill="#191F2E"/>
</svg>
