<svg width="20" height="20" viewBox="0 0 20 20" fill="none" xmlns="http://www.w3.org/2000/svg">
<path d="M3.75 14.0625C3.75 14.7398 4.17969 15.3125 4.6875 15.3125C4.79613 15.3089 4.9029 15.2834 5.00134 15.2373C5.09977 15.1912 5.18783 15.1257 5.26016 15.0445C5.43213 14.8649 5.66843 14.7609 5.91706 14.7555C6.16569 14.7501 6.40629 14.8436 6.58594 15.0156C6.76558 15.1876 6.86955 15.4239 6.87497 15.6725C6.88039 15.9212 6.78682 16.1618 6.61484 16.3414C6.36819 16.6063 6.06999 16.818 5.73856 16.9635C5.40712 17.109 5.04945 17.1852 4.6875 17.1875C3.13672 17.1875 1.875 15.7812 1.875 14.0625C1.875 12.3438 3.13672 10.9375 4.6875 10.9375C5.04945 10.9398 5.40712 11.016 5.73856 11.1615C6.06999 11.307 6.36819 11.5187 6.61484 11.7836C6.78682 11.9632 6.88039 12.2038 6.87497 12.4525C6.86955 12.7011 6.76558 12.9374 6.58594 13.1094C6.40629 13.2814 6.16569 13.3749 5.91706 13.3695C5.66843 13.3641 5.43213 13.2601 5.26016 13.0805C5.18783 12.9993 5.09977 12.9338 5.00134 12.8877C4.9029 12.8416 4.79613 12.8161 4.6875 12.8125C4.17969 12.8125 3.75 13.3836 3.75 14.0625ZM11.368 13.6164C10.968 13.3469 10.4836 13.207 10.0555 13.0836C9.84609 13.027 9.63982 12.9594 9.4375 12.8813C9.62891 12.7891 10.1961 12.7797 10.693 12.907C10.9334 12.9705 11.1893 12.9359 11.4042 12.8108C11.6191 12.6857 11.7756 12.4803 11.8391 12.2398C11.9026 11.9994 11.868 11.7436 11.7428 11.5286C11.6177 11.3137 11.4123 11.1573 11.1719 11.0938C10.8643 11.0179 10.5505 10.9692 10.2344 10.9484C9.45859 10.8969 8.82812 11.0328 8.35156 11.3523C8.11922 11.5083 7.92398 11.7134 7.77967 11.9532C7.63535 12.193 7.54548 12.4615 7.51641 12.7398C7.43047 13.4227 7.71094 14.0109 8.30625 14.3953C8.67969 14.6367 9.11562 14.7625 9.53672 14.8844C9.77109 14.9539 10.157 15.0641 10.3086 15.1602C10.3059 15.1794 10.3004 15.1981 10.2922 15.2156C10.1852 15.3367 9.54375 15.3555 9.01172 15.2109C8.89239 15.1752 8.76713 15.1636 8.64326 15.1768C8.51939 15.19 8.3994 15.2278 8.29029 15.2879C8.18119 15.348 8.08516 15.4293 8.00781 15.5269C7.93046 15.6246 7.87335 15.7367 7.83982 15.8566C7.80628 15.9766 7.79699 16.102 7.81249 16.2257C7.82799 16.3493 7.86797 16.4685 7.93009 16.5765C7.9922 16.6845 8.07522 16.779 8.17428 16.8545C8.27334 16.9301 8.38646 16.9851 8.50703 17.0164C8.92007 17.1276 9.34571 17.1851 9.77344 17.1875C10.2781 17.1875 10.8461 17.0961 11.3148 16.7852C11.5522 16.6282 11.7519 16.4208 11.8998 16.1777C12.0477 15.9346 12.1401 15.6618 12.1703 15.3789C12.2656 14.6508 11.9789 14.0258 11.368 13.6148V13.6164ZM16.6805 13.6164C16.2805 13.3469 15.7961 13.207 15.368 13.0836C15.1586 13.027 14.9523 12.9594 14.75 12.8813C14.9414 12.7891 15.5086 12.7797 16.0055 12.907C16.2459 12.9705 16.5018 12.9359 16.7167 12.8108C16.9316 12.6857 17.0881 12.4803 17.1516 12.2398C17.2151 11.9994 17.1805 11.7436 17.0553 11.5286C16.9302 11.3137 16.7248 11.1573 16.4844 11.0938C16.1768 11.0179 15.863 10.9692 15.5469 10.9484C14.7711 10.8969 14.1406 11.0328 13.6641 11.3523C13.4317 11.5083 13.2365 11.7134 13.0922 11.9532C12.9479 12.193 12.858 12.4615 12.8289 12.7398C12.743 13.4227 13.0234 14.0109 13.6188 14.3953C13.9922 14.6367 14.4281 14.7625 14.8492 14.8844C15.0836 14.9539 15.4695 15.0641 15.6211 15.1602C15.6184 15.1794 15.6129 15.1981 15.6047 15.2156C15.4977 15.3367 14.8563 15.3555 14.3242 15.2109C14.2049 15.1752 14.0796 15.1636 13.9558 15.1768C13.8319 15.19 13.7119 15.2278 13.6028 15.2879C13.4937 15.348 13.3977 15.4293 13.3203 15.5269C13.243 15.6246 13.1859 15.7367 13.1523 15.8566C13.1188 15.9766 13.1095 16.102 13.125 16.2257C13.1405 16.3493 13.1805 16.4685 13.2426 16.5765C13.3047 16.6845 13.3877 16.779 13.4868 16.8545C13.5858 16.9301 13.699 16.9851 13.8195 17.0164C14.2326 17.1276 14.6582 17.1851 15.0859 17.1875C15.5906 17.1875 16.1586 17.0961 16.6273 16.7852C16.8647 16.6282 17.0644 16.4208 17.2123 16.1777C17.3602 15.9346 17.4526 15.6618 17.4828 15.3789C17.5781 14.6508 17.2914 14.0258 16.6805 13.6148V13.6164ZM2.8125 8.4375V3.125C2.8125 2.7106 2.97712 2.31317 3.27015 2.02015C3.56317 1.72712 3.9606 1.5625 4.375 1.5625H11.875C11.9982 1.5624 12.1201 1.58657 12.2339 1.63362C12.3477 1.68067 12.4512 1.74969 12.5383 1.83672L16.9133 6.21172C17.0003 6.29885 17.0693 6.40227 17.1164 6.51608C17.1634 6.62989 17.1876 6.75185 17.1875 6.875V8.4375C17.1875 8.68614 17.0887 8.9246 16.9129 9.10041C16.7371 9.27623 16.4986 9.375 16.25 9.375C16.0014 9.375 15.7629 9.27623 15.5871 9.10041C15.4113 8.9246 15.3125 8.68614 15.3125 8.4375V8.125H11.5625C11.3139 8.125 11.0754 8.02623 10.8996 7.85041C10.7238 7.6746 10.625 7.43614 10.625 7.1875V3.4375H4.6875V8.4375C4.6875 8.68614 4.58873 8.9246 4.41291 9.10041C4.2371 9.27623 3.99864 9.375 3.75 9.375C3.50136 9.375 3.2629 9.27623 3.08709 9.10041C2.91127 8.9246 2.8125 8.68614 2.8125 8.4375ZM12.5 6.25H14.2969L12.5 4.45313V6.25Z" fill="#191F2E"/>
</svg>
