<svg width="20" height="20" viewBox="0 0 20 20" fill="none" xmlns="http://www.w3.org/2000/svg">
<path d="M16.6922 6.43281L12.3172 2.05781C12.2591 1.99979 12.1902 1.95378 12.1143 1.92241C12.0384 1.89105 11.9571 1.87494 11.875 1.875H4.375C4.04348 1.875 3.72554 2.0067 3.49112 2.24112C3.2567 2.47554 3.125 2.79348 3.125 3.125V10C3.125 10.1658 3.19085 10.3247 3.30806 10.4419C3.42527 10.5592 3.58424 10.625 3.75 10.625C3.91576 10.625 4.07473 10.5592 4.19194 10.4419C4.30915 10.3247 4.375 10.1658 4.375 10V3.125H11.25V6.875C11.25 7.04076 11.3158 7.19973 11.4331 7.31694C11.5503 7.43415 11.7092 7.5 11.875 7.5H15.625V16.875H13.75C13.5842 16.875 13.4253 16.9408 13.3081 17.0581C13.1908 17.1753 13.125 17.3342 13.125 17.5C13.125 17.6658 13.1908 17.8247 13.3081 17.9419C13.4253 18.0592 13.5842 18.125 13.75 18.125H15.625C15.9565 18.125 16.2745 17.9933 16.5089 17.7589C16.7433 17.5245 16.875 17.2065 16.875 16.875V6.875C16.8751 6.7929 16.859 6.71159 16.8276 6.63572C16.7962 6.55985 16.7502 6.4909 16.6922 6.43281ZM12.5 4.00859L14.7414 6.25H12.5V4.00859ZM8.4375 10C7.63546 10 6.85137 10.2374 6.18403 10.6823C5.51669 11.1272 4.99598 11.7597 4.6875 12.5C3.94158 12.5 3.22621 12.7963 2.69876 13.3238C2.17132 13.8512 1.875 14.5666 1.875 15.3125C1.875 16.0584 2.17132 16.7738 2.69876 17.3012C3.22621 17.8287 3.94158 18.125 4.6875 18.125H8.4375C9.51494 18.125 10.5483 17.697 11.3101 16.9351C12.072 16.1733 12.5 15.1399 12.5 14.0625C12.5 12.9851 12.072 11.9517 11.3101 11.1899C10.5483 10.428 9.51494 10 8.4375 10ZM8.4375 16.875H4.6875C4.29854 16.8756 3.92333 16.7312 3.63523 16.4699C3.34712 16.2085 3.16684 15.8492 3.12963 15.462C3.09241 15.0748 3.20095 14.6877 3.434 14.3763C3.66706 14.0649 4.00789 13.8516 4.38984 13.7781C4.38611 13.9439 4.44838 14.1043 4.56296 14.2242C4.67753 14.344 4.83502 14.4135 5.00078 14.4172C5.16654 14.4209 5.32699 14.3586 5.44684 14.2441C5.56669 14.1295 5.63611 13.972 5.63984 13.8062C5.65448 13.6457 5.68218 13.4866 5.72266 13.3305C5.73147 13.3049 5.73851 13.2788 5.74375 13.2523C5.89391 12.7531 6.17985 12.3055 6.56966 11.9594C6.95947 11.6133 7.4378 11.3823 7.95126 11.2923C8.46471 11.2022 8.99309 11.2567 9.47741 11.4495C9.96172 11.6423 10.3829 11.966 10.694 12.3843C11.005 12.8026 11.1937 13.2991 11.2389 13.8185C11.2842 14.3378 11.1842 14.8595 10.9501 15.3253C10.7161 15.7911 10.3572 16.1826 9.91349 16.4563C9.4698 16.73 8.95879 16.8749 8.4375 16.875Z" fill="#191F2E"/>
</svg>
