<svg width="20" height="20" viewBox="0 0 20 20" fill="none" xmlns="http://www.w3.org/2000/svg">
<path d="M16.6922 6.43281L12.3172 2.05781C12.2591 1.99979 12.1902 1.95378 12.1143 1.92241C12.0384 1.89105 11.9571 1.87494 11.875 1.875H4.375C4.04348 1.875 3.72554 2.0067 3.49112 2.24112C3.2567 2.47554 3.125 2.79348 3.125 3.125V8.75C3.125 8.91576 3.19085 9.07473 3.30806 9.19194C3.42527 9.30915 3.58424 9.375 3.75 9.375C3.91576 9.375 4.07473 9.30915 4.19194 9.19194C4.30915 9.07473 4.375 8.91576 4.375 8.75V3.125H11.25V6.875C11.25 7.04076 11.3158 7.19973 11.4331 7.31694C11.5503 7.43415 11.7092 7.5 11.875 7.5H15.625V16.875H13.75C13.5842 16.875 13.4253 16.9408 13.3081 17.0581C13.1908 17.1753 13.125 17.3342 13.125 17.5C13.125 17.6658 13.1908 17.8247 13.3081 17.9419C13.4253 18.0592 13.5842 18.125 13.75 18.125H15.625C15.9565 18.125 16.2745 17.9933 16.5089 17.7589C16.7433 17.5245 16.875 17.2065 16.875 16.875V6.875C16.8751 6.7929 16.859 6.71159 16.8276 6.63572C16.7962 6.55985 16.7502 6.4909 16.6922 6.43281ZM12.5 4.00859L14.7414 6.25H12.5V4.00859ZM11.5477 15.3367C11.5233 15.5758 11.4463 15.8064 11.3221 16.0122C11.198 16.2179 11.0298 16.3936 10.8297 16.5266C10.4242 16.7969 9.92188 16.875 9.46328 16.875C9.06273 16.8727 8.66405 16.8202 8.27656 16.7188C8.11691 16.6741 7.98154 16.5679 7.90023 16.4234C7.81891 16.2789 7.79832 16.1081 7.84297 15.9484C7.88762 15.7888 7.99386 15.6534 8.13832 15.5721C8.28279 15.4908 8.45363 15.4702 8.61328 15.5148C8.95547 15.6086 9.78516 15.7258 10.1406 15.4867C10.2094 15.4406 10.2836 15.368 10.3078 15.1797C10.3344 14.9711 10.2523 14.8594 9.30938 14.5867C8.57891 14.3758 7.35625 14.0219 7.5125 12.7812C7.53687 12.5469 7.61249 12.3208 7.734 12.119C7.85552 11.9171 8.01994 11.7445 8.21563 11.6133C9.14063 10.9883 10.6148 11.3547 10.7805 11.3977C10.9408 11.4398 11.0779 11.544 11.1615 11.6872C11.2451 11.8304 11.2683 12.001 11.2262 12.1613C11.184 12.3217 11.0799 12.4588 10.9366 12.5423C10.7934 12.6259 10.6229 12.6492 10.4625 12.607C10.1117 12.5156 9.27266 12.407 8.91328 12.6508C8.86617 12.6826 8.82739 12.7252 8.8002 12.7751C8.77301 12.825 8.7582 12.8807 8.75703 12.9375C8.74766 13.0078 8.74609 13.0227 8.84375 13.0859C9.02422 13.2023 9.34766 13.2953 9.66016 13.3859C10.4289 13.607 11.7227 13.9844 11.5477 15.3367ZM6.25 11.875V14.8438C6.25 15.3825 6.03599 15.8991 5.65506 16.2801C5.27413 16.661 4.75747 16.875 4.21875 16.875C3.68003 16.875 3.16337 16.661 2.78244 16.2801C2.40151 15.8991 2.1875 15.3825 2.1875 14.8438C2.1875 14.678 2.25335 14.519 2.37056 14.4018C2.48777 14.2846 2.64674 14.2188 2.8125 14.2188C2.97826 14.2188 3.13723 14.2846 3.25444 14.4018C3.37165 14.519 3.4375 14.678 3.4375 14.8438C3.4375 15.051 3.51981 15.2497 3.66632 15.3962C3.81284 15.5427 4.01155 15.625 4.21875 15.625C4.42595 15.625 4.62466 15.5427 4.77118 15.3962C4.91769 15.2497 5 15.051 5 14.8438V11.875C5 11.7092 5.06585 11.5503 5.18306 11.4331C5.30027 11.3158 5.45924 11.25 5.625 11.25C5.79076 11.25 5.94973 11.3158 6.06694 11.4331C6.18415 11.5503 6.25 11.7092 6.25 11.875Z" fill="#191F2E"/>
</svg>
