<svg width="20" height="20" viewBox="0 0 20 20" fill="none" xmlns="http://www.w3.org/2000/svg">
<path d="M6.82031 12.1875L5.25781 16.5625C5.19275 16.7445 5.073 16.902 4.91496 17.0134C4.75692 17.1247 4.56832 17.1845 4.375 17.1845C4.18167 17.1845 3.99308 17.1247 3.83504 17.0134C3.677 16.902 3.55725 16.7445 3.49218 16.5625L1.92968 12.1875C1.85986 11.9567 1.88163 11.7079 1.99048 11.4928C2.09933 11.2776 2.28689 11.1127 2.51418 11.0322C2.74147 10.9518 2.99102 10.962 3.21098 11.0607C3.43094 11.1595 3.60439 11.3392 3.69531 11.5625L4.375 13.4625L5.05468 11.5625C5.1456 11.3392 5.31906 11.1595 5.53902 11.0607C5.75898 10.962 6.00853 10.9518 6.23582 11.0322C6.46311 11.1127 6.65066 11.2776 6.75951 11.4928C6.86836 11.7079 6.89013 11.9567 6.82031 12.1875ZM16.5625 15.3125H15V15H15.9375C16.1861 15 16.4246 14.9012 16.6004 14.7254C16.7762 14.5496 16.875 14.3111 16.875 14.0625C16.875 13.8139 16.7762 13.5754 16.6004 13.3996C16.4246 13.2238 16.1861 13.125 15.9375 13.125H15V12.8125H16.5625C16.8111 12.8125 17.0496 12.7137 17.2254 12.5379C17.4012 12.3621 17.5 12.1236 17.5 11.875C17.5 11.6264 17.4012 11.3879 17.2254 11.2121C17.0496 11.0363 16.8111 10.9375 16.5625 10.9375H14.0625C13.8139 10.9375 13.5754 11.0363 13.3996 11.2121C13.2238 11.3879 13.125 11.6264 13.125 11.875V16.25C13.125 16.4986 13.2238 16.7371 13.3996 16.9129C13.5754 17.0887 13.8139 17.1875 14.0625 17.1875H16.5625C16.8111 17.1875 17.0496 17.0887 17.2254 16.9129C17.4012 16.7371 17.5 16.4986 17.5 16.25C17.5 16.0014 17.4012 15.7629 17.2254 15.5871C17.0496 15.4113 16.8111 15.3125 16.5625 15.3125ZM11.25 10.9375C11.0014 10.9375 10.7629 11.0363 10.5871 11.2121C10.4113 11.3879 10.3125 11.6264 10.3125 11.875V14.8438C10.3125 14.9681 10.2631 15.0873 10.1752 15.1752C10.0873 15.2631 9.96807 15.3125 9.84375 15.3125C9.71943 15.3125 9.6002 15.2631 9.51229 15.1752C9.42438 15.0873 9.375 14.9681 9.375 14.8438V11.875C9.375 11.6264 9.27623 11.3879 9.10041 11.2121C8.92459 11.0363 8.68614 10.9375 8.4375 10.9375C8.18886 10.9375 7.9504 11.0363 7.77458 11.2121C7.59877 11.3879 7.5 11.6264 7.5 11.875V14.8438C7.5 15.4654 7.74693 16.0615 8.18647 16.501C8.626 16.9406 9.22215 17.1875 9.84375 17.1875C10.4653 17.1875 11.0615 16.9406 11.501 16.501C11.9406 16.0615 12.1875 15.4654 12.1875 14.8438V11.875C12.1875 11.6264 12.0887 11.3879 11.9129 11.2121C11.7371 11.0363 11.4986 10.9375 11.25 10.9375ZM2.8125 8.4375V3.125C2.8125 2.7106 2.97712 2.31317 3.27014 2.02015C3.56317 1.72712 3.9606 1.5625 4.375 1.5625H11.875C11.9982 1.56251 12.1202 1.5868 12.234 1.63398C12.3478 1.68117 12.4512 1.75033 12.5383 1.8375L16.9133 6.2125C17.0889 6.38827 17.1875 6.62656 17.1875 6.875V8.4375C17.1875 8.68614 17.0887 8.9246 16.9129 9.10041C16.7371 9.27623 16.4986 9.375 16.25 9.375C16.0014 9.375 15.7629 9.27623 15.5871 9.10041C15.4113 8.9246 15.3125 8.68614 15.3125 8.4375V8.125H11.5625C11.3139 8.125 11.0754 8.02623 10.8996 7.85041C10.7238 7.6746 10.625 7.43614 10.625 7.1875V3.4375H4.6875V8.4375C4.6875 8.68614 4.58873 8.9246 4.41291 9.10041C4.23709 9.27623 3.99864 9.375 3.75 9.375C3.50136 9.375 3.2629 9.27623 3.08708 9.10041C2.91127 8.9246 2.8125 8.68614 2.8125 8.4375ZM12.5 6.25H14.2969L12.5 4.45312V6.25Z" fill="#191F2E"/>
</svg>
