<svg width="20" height="20" viewBox="0 0 20 20" fill="none" xmlns="http://www.w3.org/2000/svg">
<path d="M12.1875 16.25C12.1875 16.4158 12.1217 16.5747 12.0044 16.6919C11.8872 16.8092 11.7283 16.875 11.5625 16.875H9.37501C9.20925 16.875 9.05028 16.8092 8.93307 16.6919C8.81586 16.5747 8.75001 16.4158 8.75001 16.25V11.875C8.75001 11.7092 8.81586 11.5503 8.93307 11.4331C9.05028 11.3158 9.20925 11.25 9.37501 11.25C9.54077 11.25 9.69974 11.3158 9.81695 11.4331C9.93416 11.5503 10 11.7092 10 11.875V15.625H11.5625C11.7283 15.625 11.8872 15.6908 12.0044 15.8081C12.1217 15.9253 12.1875 16.0842 12.1875 16.25ZM7.23829 11.3664C7.1715 11.3187 7.09597 11.2846 7.01601 11.2661C6.93604 11.2476 6.85322 11.245 6.77226 11.2585C6.69129 11.272 6.61378 11.3013 6.54415 11.3447C6.47451 11.3882 6.41412 11.4449 6.36641 11.5117L5.31251 12.9875L4.2586 11.5117C4.21259 11.4409 4.15272 11.3802 4.0826 11.3332C4.01248 11.2862 3.93355 11.2539 3.8506 11.2382C3.76764 11.2225 3.68237 11.2238 3.59992 11.242C3.51748 11.2602 3.43958 11.2949 3.37091 11.344C3.30225 11.3931 3.24425 11.4556 3.20041 11.5278C3.15658 11.5999 3.12781 11.6802 3.11586 11.7638C3.1039 11.8474 3.109 11.9325 3.13085 12.0141C3.1527 12.0956 3.19084 12.1719 3.24298 12.2383L4.54454 14.0625L3.24141 15.8867C3.15372 16.0217 3.12144 16.1852 3.15132 16.3434C3.1812 16.5015 3.27093 16.642 3.40181 16.7356C3.5327 16.8293 3.69466 16.8688 3.85397 16.846C4.01328 16.8232 4.15766 16.7399 4.25704 16.6133L5.31251 15.1375L6.36641 16.6133C6.4658 16.7399 6.61017 16.8232 6.76948 16.846C6.92879 16.8688 7.09075 16.8293 7.22164 16.7356C7.35253 16.642 7.44225 16.5015 7.47213 16.3434C7.50201 16.1852 7.46974 16.0217 7.38204 15.8867L6.08048 14.0625L7.3836 12.2383C7.43131 12.1715 7.4654 12.096 7.48391 12.016C7.50243 11.936 7.50502 11.8532 7.49152 11.7722C7.47803 11.6913 7.44872 11.6138 7.40527 11.5441C7.36182 11.4745 7.30508 11.4141 7.23829 11.3664ZM14.968 13.3836C14.6555 13.293 14.332 13.2 14.1516 13.0836C14.0539 13.0195 14.0555 13.0055 14.0641 12.9352C14.0652 12.8783 14.08 12.8226 14.1072 12.7727C14.1344 12.7229 14.1732 12.6802 14.2203 12.6484C14.5797 12.4047 15.4188 12.5141 15.7688 12.6047C15.9291 12.6469 16.0997 12.6236 16.2429 12.54C16.3861 12.4564 16.4903 12.3194 16.5324 12.159C16.5746 11.9986 16.5513 11.8281 16.4677 11.6848C16.3842 11.5416 16.2471 11.4375 16.0867 11.3953C15.9219 11.3523 14.4461 10.9875 13.5219 11.6109C13.327 11.7426 13.1634 11.9155 13.0426 12.1173C12.9218 12.3191 12.8467 12.5449 12.8227 12.7789C12.6664 14.0195 13.8891 14.3734 14.6195 14.5844C15.5617 14.857 15.6445 14.9688 15.618 15.1773C15.5938 15.3656 15.5195 15.4375 15.45 15.4844C15.0906 15.7234 14.2656 15.6055 13.9234 15.5117C13.7634 15.4673 13.5922 15.4882 13.4476 15.57C13.376 15.6105 13.3131 15.6647 13.2624 15.7295C13.2118 15.7943 13.1744 15.8684 13.1524 15.9477C13.1303 16.0269 13.1242 16.1097 13.1342 16.1914C13.1442 16.273 13.1701 16.3519 13.2106 16.4235C13.2924 16.5681 13.4282 16.6743 13.5883 16.7188C13.9757 16.8208 14.3744 16.8733 14.775 16.875C15.2297 16.875 15.7359 16.7969 16.1414 16.5266C16.3414 16.3935 16.5095 16.2178 16.6335 16.0121C16.7575 15.8064 16.8344 15.5757 16.8586 15.3367C17.0313 13.9844 15.7406 13.607 14.968 13.3836ZM3.12501 8.75V3.125C3.12501 2.79348 3.2567 2.47554 3.49112 2.24112C3.72554 2.0067 4.04349 1.875 4.37501 1.875H11.875C11.9571 1.87494 12.0384 1.89105 12.1143 1.92241C12.1902 1.95378 12.2591 1.99979 12.3172 2.05781L16.6922 6.43281C16.7502 6.4909 16.7962 6.55985 16.8276 6.63572C16.859 6.71159 16.8751 6.7929 16.875 6.875V8.75C16.875 8.91576 16.8092 9.07473 16.6919 9.19194C16.5747 9.30915 16.4158 9.375 16.25 9.375C16.0842 9.375 15.9253 9.30915 15.8081 9.19194C15.6909 9.07473 15.625 8.91576 15.625 8.75V7.5H11.875C11.7092 7.5 11.5503 7.43415 11.4331 7.31694C11.3159 7.19973 11.25 7.04076 11.25 6.875V3.125H4.37501V8.75C4.37501 8.91576 4.30916 9.07473 4.19195 9.19194C4.07474 9.30915 3.91577 9.375 3.75001 9.375C3.58425 9.375 3.42528 9.30915 3.30807 9.19194C3.19086 9.07473 3.12501 8.91576 3.12501 8.75ZM12.5 6.25H14.7406L12.5 4.00859V6.25Z" fill="#191F2E"/>
</svg>
