<svg width="20" height="20" viewBox="0 0 20 20" fill="none" xmlns="http://www.w3.org/2000/svg">
<path d="M16.6922 6.43281L12.3172 2.05781C12.2591 1.99979 12.1902 1.95378 12.1143 1.92241C12.0384 1.89105 11.9571 1.87494 11.875 1.875H4.375C4.04348 1.875 3.72554 2.0067 3.49112 2.24112C3.2567 2.47554 3.125 2.79348 3.125 3.125V16.875C3.125 17.2065 3.2567 17.5245 3.49112 17.7589C3.72554 17.9933 4.04348 18.125 4.375 18.125H15.625C15.9565 18.125 16.2745 17.9933 16.5089 17.7589C16.7433 17.5245 16.875 17.2065 16.875 16.875V6.875C16.8751 6.7929 16.859 6.71159 16.8276 6.63572C16.7962 6.55985 16.7502 6.4909 16.6922 6.43281ZM8.56719 13.3078C8.62526 13.3659 8.67132 13.4348 8.70275 13.5107C8.73417 13.5866 8.75035 13.6679 8.75035 13.75C8.75035 13.8321 8.73417 13.9134 8.70275 13.9893C8.67132 14.0652 8.62526 14.1341 8.56719 14.1922C8.50912 14.2503 8.44018 14.2963 8.36431 14.3277C8.28844 14.3592 8.20712 14.3753 8.125 14.3753C8.04288 14.3753 7.96156 14.3592 7.88569 14.3277C7.80982 14.2963 7.74088 14.2503 7.68281 14.1922L5.80781 12.3172C5.7497 12.2591 5.7036 12.1902 5.67215 12.1143C5.6407 12.0385 5.62451 11.9571 5.62451 11.875C5.62451 11.7929 5.6407 11.7115 5.67215 11.6357C5.7036 11.5598 5.7497 11.4909 5.80781 11.4328L7.68281 9.55781C7.80009 9.44054 7.95915 9.37465 8.125 9.37465C8.29085 9.37465 8.44991 9.44054 8.56719 9.55781C8.68446 9.67509 8.75035 9.83415 8.75035 10C8.75035 10.1659 8.68446 10.3249 8.56719 10.4422L7.13359 11.875L8.56719 13.3078ZM14.1922 12.3172L12.3172 14.1922C12.1999 14.3095 12.0409 14.3753 11.875 14.3753C11.7091 14.3753 11.5501 14.3095 11.4328 14.1922C11.3155 14.0749 11.2497 13.9159 11.2497 13.75C11.2497 13.5841 11.3155 13.4251 11.4328 13.3078L12.8664 11.875L11.4328 10.4422C11.3155 10.3249 11.2497 10.1659 11.2497 10C11.2497 9.83415 11.3155 9.67509 11.4328 9.55781C11.5501 9.44054 11.7091 9.37465 11.875 9.37465C12.0409 9.37465 12.1999 9.44054 12.3172 9.55781L14.1922 11.4328C14.2503 11.4909 14.2964 11.5598 14.3279 11.6357C14.3593 11.7115 14.3755 11.7929 14.3755 11.875C14.3755 11.9571 14.3593 12.0385 14.3279 12.1143C14.2964 12.1902 14.2503 12.2591 14.1922 12.3172ZM11.875 6.875V3.4375L15.3125 6.875H11.875Z" fill="#191F2E"/>
</svg>
