<svg width="20" height="20" viewBox="0 0 20 20" fill="none" xmlns="http://www.w3.org/2000/svg">
<path d="M12.3953 17.1531C12.4581 17.2473 12.4942 17.3567 12.4997 17.4698C12.5051 17.5828 12.4798 17.6952 12.4264 17.795C12.373 17.8948 12.2935 17.9782 12.1964 18.0363C12.0993 18.0944 11.9882 18.1251 11.875 18.125H1.875C1.76271 18.125 1.65248 18.0948 1.5559 18.0375C1.45932 17.9803 1.37996 17.898 1.32616 17.7994C1.27236 17.7009 1.24611 17.5896 1.25016 17.4774C1.25422 17.3652 1.28844 17.2561 1.34922 17.1617L4.16172 12.7867C4.21831 12.6987 4.2961 12.6262 4.38797 12.5761C4.47984 12.5259 4.58283 12.4996 4.6875 12.4996C4.79217 12.4996 4.89516 12.5259 4.98703 12.5761C5.07889 12.6262 5.15669 12.6987 5.21328 12.7867L5.97578 13.9727L7.60469 11.5281C7.66174 11.4424 7.73909 11.3721 7.82986 11.3235C7.92064 11.2748 8.02202 11.2494 8.125 11.2494C8.22798 11.2494 8.32936 11.2748 8.42013 11.3235C8.51091 11.3721 8.58826 11.4424 8.64531 11.5281L12.3953 17.1531ZM16.875 6.875V16.875C16.875 17.2065 16.7433 17.5245 16.5089 17.7589C16.2745 17.9933 15.9565 18.125 15.625 18.125H15C14.8342 18.125 14.6753 18.0592 14.5581 17.9419C14.4408 17.8247 14.375 17.6658 14.375 17.5C14.375 17.3342 14.4408 17.1753 14.5581 17.0581C14.6753 16.9408 14.8342 16.875 15 16.875H15.625V7.5H11.875C11.7092 7.5 11.5503 7.43415 11.4331 7.31694C11.3158 7.19973 11.25 7.04076 11.25 6.875V3.125H4.375V10.625C4.375 10.7908 4.30915 10.9497 4.19194 11.0669C4.07473 11.1842 3.91576 11.25 3.75 11.25C3.58424 11.25 3.42527 11.1842 3.30806 11.0669C3.19085 10.9497 3.125 10.7908 3.125 10.625V3.125C3.125 2.79348 3.25669 2.47554 3.49112 2.24112C3.72554 2.0067 4.04348 1.875 4.375 1.875H11.875C11.9571 1.87494 12.0384 1.89105 12.1143 1.92241C12.1902 1.95378 12.2591 1.99979 12.3172 2.05781L16.6922 6.43281C16.7502 6.4909 16.7962 6.55985 16.8276 6.63572C16.859 6.71159 16.8751 6.7929 16.875 6.875ZM12.5 6.25H14.7414L12.5 4.00859V6.25Z" fill="#191F2E"/>
</svg>
