<svg width="20" height="20" viewBox="0 0 20 20" fill="none" xmlns="http://www.w3.org/2000/svg">
<path d="M3.75 9.375H16.25C16.4158 9.375 16.5747 9.30915 16.6919 9.19194C16.8092 9.07473 16.875 8.91576 16.875 8.75V6.875C16.8751 6.7929 16.859 6.71159 16.8276 6.63572C16.7962 6.55985 16.7502 6.4909 16.6922 6.43281L12.3172 2.05781C12.2591 1.99979 12.1902 1.95378 12.1143 1.92241C12.0384 1.89105 11.9571 1.87494 11.875 1.875H4.375C4.04348 1.875 3.72554 2.0067 3.49112 2.24112C3.2567 2.47554 3.125 2.79348 3.125 3.125V8.75C3.125 8.91576 3.19085 9.07473 3.30806 9.19194C3.42527 9.30915 3.58424 9.375 3.75 9.375ZM11.875 3.4375L15.3125 6.875H11.875V3.4375ZM17.8125 16.25C17.8125 16.4158 17.7467 16.5747 17.6294 16.6919C17.5122 16.8092 17.3533 16.875 17.1875 16.875H15C14.8342 16.875 14.6753 16.8092 14.5581 16.6919C14.4408 16.5747 14.375 16.4158 14.375 16.25V11.875C14.375 11.7092 14.4408 11.5503 14.5581 11.4331C14.6753 11.3158 14.8342 11.25 15 11.25C15.1658 11.25 15.3247 11.3158 15.4419 11.4331C15.5592 11.5503 15.625 11.7092 15.625 11.875V15.625H17.1875C17.3533 15.625 17.5122 15.6908 17.6294 15.8081C17.7467 15.9253 17.8125 16.0842 17.8125 16.25ZM7.17344 15.3367C7.14908 15.5758 7.07206 15.8064 6.94792 16.0122C6.82378 16.2179 6.6556 16.3936 6.45547 16.5266C6.05 16.7969 5.54688 16.875 5.08906 16.875C4.68979 16.8729 4.29237 16.8204 3.90625 16.7188C3.7485 16.6725 3.6153 16.5661 3.53551 16.4224C3.45571 16.2786 3.43574 16.1093 3.47992 15.951C3.5241 15.7926 3.62887 15.6581 3.77155 15.5765C3.91422 15.4948 4.08331 15.4727 4.24219 15.5148C4.58437 15.6086 5.41016 15.7258 5.76953 15.4867C5.83906 15.4406 5.9125 15.368 5.93672 15.1797C5.96406 14.9711 5.88125 14.8594 4.93828 14.5867C4.20781 14.3758 2.98516 14.0219 3.14141 12.7812C3.16572 12.5469 3.24133 12.3208 3.36284 12.1189C3.48436 11.9171 3.64881 11.7444 3.84453 11.6133C4.76953 10.9883 6.24453 11.3547 6.40938 11.3977C6.48878 11.4186 6.56329 11.455 6.62865 11.5047C6.694 11.5544 6.74892 11.6165 6.79027 11.6875C6.83162 11.7584 6.8586 11.8368 6.86965 11.9182C6.8807 11.9996 6.87562 12.0823 6.85469 12.1617C6.83376 12.2411 6.79739 12.3156 6.74767 12.381C6.69794 12.4463 6.63583 12.5013 6.56488 12.5426C6.49393 12.584 6.41553 12.6109 6.33416 12.622C6.25279 12.633 6.17003 12.628 6.09062 12.607C5.73984 12.5156 4.90156 12.407 4.54219 12.6508C4.49508 12.6826 4.4563 12.7252 4.42911 12.7751C4.40191 12.825 4.38711 12.8807 4.38594 12.9375C4.37656 13.0078 4.375 13.0219 4.47344 13.0859C4.65391 13.2023 4.97656 13.2953 5.28984 13.3859C6.05469 13.607 7.34844 13.9844 7.17344 15.3367ZM12.7203 15.5891C12.9869 15.1245 13.1264 14.5981 13.125 14.0625C13.125 12.5117 12.0039 11.25 10.625 11.25C9.24609 11.25 8.125 12.5117 8.125 14.0625C8.125 15.6133 9.24609 16.875 10.625 16.875C11.0665 16.8734 11.498 16.7437 11.8672 16.5016L12.0578 16.6922C12.1751 16.8094 12.3341 16.8751 12.4999 16.8751C12.6657 16.875 12.8246 16.8091 12.9418 16.6918C13.059 16.5745 13.1248 16.4155 13.1247 16.2497C13.1246 16.0839 13.0587 15.925 12.9414 15.8078L12.7203 15.5891ZM10.625 15.625C9.93594 15.625 9.375 14.9219 9.375 14.0625C9.375 13.2031 9.93594 12.5 10.625 12.5C11.3141 12.5 11.875 13.2031 11.875 14.0625C11.8751 14.2617 11.844 14.4597 11.7828 14.6492L11.6914 14.5578C11.6333 14.4998 11.5644 14.4538 11.4886 14.4224C11.4127 14.391 11.3314 14.3749 11.2493 14.3749C11.0836 14.375 10.9246 14.4409 10.8074 14.5582C10.6903 14.6755 10.6245 14.8345 10.6245 15.0003C10.6246 15.1661 10.6905 15.325 10.8078 15.4422L10.9391 15.5727C10.8378 15.6066 10.7318 15.6243 10.625 15.625Z" fill="#191F2E"/>
</svg>
