<svg width="20" height="20" viewBox="0 0 20 20" fill="none" xmlns="http://www.w3.org/2000/svg">
<path d="M10 11.875C10 12.0408 9.93415 12.1997 9.81694 12.3169C9.69973 12.4342 9.54076 12.5 9.375 12.5H8.75V16.25C8.75 16.4158 8.68415 16.5747 8.56694 16.6919C8.44973 16.8092 8.29076 16.875 8.125 16.875C7.95924 16.875 7.80027 16.8092 7.68306 16.6919C7.56585 16.5747 7.5 16.4158 7.5 16.25V12.5H6.875C6.70924 12.5 6.55027 12.4342 6.43306 12.3169C6.31585 12.1997 6.25 12.0408 6.25 11.875C6.25 11.7092 6.31585 11.5503 6.43306 11.4331C6.55027 11.3158 6.70924 11.25 6.875 11.25H9.375C9.54076 11.25 9.69973 11.3158 9.81694 11.4331C9.93415 11.5503 10 11.7092 10 11.875ZM5 11.25C4.83424 11.25 4.67527 11.3158 4.55806 11.4331C4.44085 11.5503 4.375 11.7092 4.375 11.875V13.4375H3.125V11.875C3.125 11.7092 3.05915 11.5503 2.94194 11.4331C2.82473 11.3158 2.66576 11.25 2.5 11.25C2.33424 11.25 2.17527 11.3158 2.05806 11.4331C1.94085 11.5503 1.875 11.7092 1.875 11.875V16.25C1.875 16.4158 1.94085 16.5747 2.05806 16.6919C2.17527 16.8092 2.33424 16.875 2.5 16.875C2.66576 16.875 2.82473 16.8092 2.94194 16.6919C3.05915 16.5747 3.125 16.4158 3.125 16.25V14.6875H4.375V16.25C4.375 16.4158 4.44085 16.5747 4.55806 16.6919C4.67527 16.8092 4.83424 16.875 5 16.875C5.16576 16.875 5.32473 16.8092 5.44194 16.6919C5.55915 16.5747 5.625 16.4158 5.625 16.25V11.875C5.625 11.7092 5.55915 11.5503 5.44194 11.4331C5.32473 11.3158 5.16576 11.25 5 11.25ZM18.75 15.625H17.8125V11.875C17.8125 11.7092 17.7467 11.5503 17.6294 11.4331C17.5122 11.3158 17.3533 11.25 17.1875 11.25C17.0217 11.25 16.8628 11.3158 16.7456 11.4331C16.6283 11.5503 16.5625 11.7092 16.5625 11.875V16.25C16.5625 16.4158 16.6283 16.5747 16.7456 16.6919C16.8628 16.8092 17.0217 16.875 17.1875 16.875H18.75C18.9158 16.875 19.0747 16.8092 19.1919 16.6919C19.3092 16.5747 19.375 16.4158 19.375 16.25C19.375 16.0842 19.3092 15.9253 19.1919 15.8081C19.0747 15.6908 18.9158 15.625 18.75 15.625ZM15.1672 11.2727C15.0354 11.2361 14.8953 11.2437 14.7683 11.2943C14.6413 11.345 14.5344 11.4359 14.4641 11.5531L13.125 13.7852L11.7859 11.5531C11.7156 11.4359 11.6088 11.345 11.4818 11.2943C11.3548 11.2435 11.2148 11.2359 11.083 11.2724C10.9513 11.3089 10.8351 11.3876 10.7524 11.4965C10.6697 11.6053 10.6249 11.7383 10.625 11.875V16.25C10.625 16.4158 10.6908 16.5747 10.8081 16.6919C10.9253 16.8092 11.0842 16.875 11.25 16.875C11.4158 16.875 11.5747 16.8092 11.6919 16.6919C11.8092 16.5747 11.875 16.4158 11.875 16.25V14.1313L12.5891 15.3219C12.6446 15.4144 12.7231 15.491 12.8171 15.5442C12.911 15.5974 13.0171 15.6253 13.125 15.6253C13.2329 15.6253 13.339 15.5974 13.4329 15.5442C13.5269 15.491 13.6054 15.4144 13.6609 15.3219L14.375 14.1313V16.25C14.375 16.4158 14.4408 16.5747 14.5581 16.6919C14.6753 16.8092 14.8342 16.875 15 16.875C15.1658 16.875 15.3247 16.8092 15.4419 16.6919C15.5592 16.5747 15.625 16.4158 15.625 16.25V11.875C15.625 11.7384 15.5803 11.6055 15.4976 11.4967C15.4149 11.3879 15.2989 11.3092 15.1672 11.2727ZM16.25 9.375C16.0842 9.375 15.9253 9.30915 15.8081 9.19194C15.6908 9.07473 15.625 8.91576 15.625 8.75V7.5H11.875C11.7092 7.5 11.5503 7.43415 11.4331 7.31694C11.3158 7.19973 11.25 7.04076 11.25 6.875V3.125H4.375V8.75C4.375 8.91576 4.30915 9.07473 4.19194 9.19194C4.07473 9.30915 3.91576 9.375 3.75 9.375C3.58424 9.375 3.42527 9.30915 3.30806 9.19194C3.19085 9.07473 3.125 8.91576 3.125 8.75V3.125C3.125 2.79348 3.2567 2.47554 3.49112 2.24112C3.72554 2.0067 4.04348 1.875 4.375 1.875H11.875C11.9571 1.87494 12.0384 1.89105 12.1143 1.92241C12.1902 1.95378 12.2591 1.99979 12.3172 2.05781L16.6922 6.43281C16.7502 6.4909 16.7962 6.55985 16.8276 6.63572C16.859 6.71159 16.8751 6.7929 16.875 6.875V8.75C16.875 8.91576 16.8092 9.07473 16.6919 9.19194C16.5747 9.30915 16.4158 9.375 16.25 9.375ZM14.7414 6.25L12.5 4.00859V6.25H14.7414Z" fill="#191F2E"/>
</svg>
