<svg width="20" height="20" viewBox="0 0 20 20" fill="none" xmlns="http://www.w3.org/2000/svg">
<path d="M11.8578 15.375C11.8276 15.6579 11.7352 15.9307 11.5873 16.1738C11.4394 16.4169 11.2397 16.6243 11.0023 16.7812C10.5336 17.0938 9.96562 17.1836 9.46094 17.1836C9.03262 17.1808 8.60644 17.1228 8.19297 17.0109C8.0724 16.9796 7.95928 16.9246 7.86022 16.8491C7.76116 16.7735 7.67814 16.679 7.61602 16.571C7.5539 16.4631 7.51393 16.3438 7.49843 16.2202C7.48293 16.0966 7.49222 15.9711 7.52576 15.8512C7.55929 15.7312 7.6164 15.6191 7.69375 15.5215C7.77109 15.4238 7.86713 15.3425 7.97623 15.2824C8.08534 15.2223 8.20533 15.1845 8.3292 15.1713C8.45306 15.1581 8.57832 15.1697 8.69766 15.2055C9.22969 15.35 9.86953 15.3313 9.97812 15.2102C9.98634 15.1926 9.99187 15.1739 9.99453 15.1547C9.84297 15.0586 9.46094 14.9484 9.22266 14.8789C8.80156 14.757 8.36328 14.6313 7.99219 14.3898C7.39609 14.0055 7.11641 13.4172 7.20234 12.7344C7.23142 12.456 7.32129 12.1875 7.4656 11.9477C7.60992 11.708 7.80515 11.5029 8.0375 11.3469C8.51094 11.0273 9.14453 10.8914 9.92031 10.943C10.2372 10.9655 10.5514 11.0159 10.8594 11.0938C11.0971 11.1594 11.2995 11.316 11.4225 11.5298C11.5456 11.7436 11.5794 11.9972 11.5167 12.2358C11.454 12.4743 11.2998 12.6786 11.0876 12.8042C10.8753 12.9299 10.6221 12.9668 10.3828 12.907C9.88594 12.7797 9.31875 12.7891 9.12734 12.8813C9.32966 12.9594 9.53593 13.027 9.74531 13.0836C10.1727 13.207 10.6578 13.3469 11.0578 13.6164C11.6664 14.0258 11.9531 14.6508 11.8578 15.375ZM5.3125 10.9375C5.06386 10.9375 4.8254 11.0363 4.64959 11.2121C4.47377 11.3879 4.375 11.6264 4.375 11.875V14.8438C4.375 14.9681 4.32561 15.0873 4.23771 15.1752C4.1498 15.2631 4.03057 15.3125 3.90625 15.3125C3.78193 15.3125 3.6627 15.2631 3.57479 15.1752C3.48689 15.0873 3.4375 14.9681 3.4375 14.8438C3.4375 14.5951 3.33873 14.3567 3.16291 14.1808C2.9871 14.005 2.74864 13.9062 2.5 13.9062C2.25136 13.9062 2.0129 14.005 1.83709 14.1808C1.66127 14.3567 1.5625 14.5951 1.5625 14.8438C1.5625 15.4654 1.80943 16.0615 2.24897 16.501C2.68851 16.9406 3.28465 17.1875 3.90625 17.1875C4.52785 17.1875 5.12399 16.9406 5.56353 16.501C6.00307 16.0615 6.25 15.4654 6.25 14.8438V11.875C6.25 11.6264 6.15123 11.3879 5.97541 11.2121C5.7996 11.0363 5.56114 10.9375 5.3125 10.9375ZM16.1523 14.0625L17.3242 12.4219C17.4693 12.2195 17.528 11.9679 17.4875 11.7223C17.447 11.4766 17.3105 11.2571 17.1082 11.1121C16.9059 10.9671 16.6542 10.9083 16.4086 10.9489C16.163 10.9894 15.9435 11.1258 15.7984 11.3281L15 12.4484L14.2 11.3281C14.055 11.1258 13.8355 10.9894 13.5899 10.9489C13.3442 10.9083 13.0926 10.9671 12.8902 11.1121C12.6879 11.2571 12.5515 11.4766 12.511 11.7223C12.4705 11.9679 12.5292 12.2195 12.6742 12.4219L13.8461 14.0625L12.6742 15.7031C12.6024 15.8033 12.551 15.9167 12.523 16.0367C12.495 16.1567 12.4909 16.2811 12.511 16.4027C12.531 16.5244 12.5748 16.6409 12.6399 16.7455C12.705 16.8502 12.79 16.9411 12.8902 17.0129C12.9904 17.0847 13.1038 17.1361 13.2238 17.1641C13.3438 17.1921 13.4682 17.1962 13.5899 17.1761C13.7115 17.1561 13.828 17.1123 13.9326 17.0472C14.0373 16.9821 14.1282 16.8971 14.2 16.7969L15 15.6734L15.7992 16.7969C15.9443 16.9992 16.1637 17.1356 16.4094 17.1761C16.655 17.2167 16.9067 17.1579 17.109 17.0129C17.3113 16.8679 17.4477 16.6484 17.4883 16.4027C17.5288 16.1571 17.47 15.9055 17.325 15.7031L16.1523 14.0625ZM2.8125 8.4375V3.125C2.8125 2.7106 2.97712 2.31317 3.27015 2.02015C3.56317 1.72712 3.9606 1.5625 4.375 1.5625H11.875C11.9982 1.5624 12.1201 1.58657 12.2339 1.63362C12.3477 1.68067 12.4512 1.74969 12.5383 1.83672L16.9133 6.21172C17.0003 6.29885 17.0693 6.40227 17.1164 6.51608C17.1634 6.62989 17.1876 6.75185 17.1875 6.875V8.4375C17.1875 8.68614 17.0887 8.9246 16.9129 9.10041C16.7371 9.27623 16.4986 9.375 16.25 9.375C16.0014 9.375 15.7629 9.27623 15.5871 9.10041C15.4113 8.9246 15.3125 8.68614 15.3125 8.4375V8.125H11.5625C11.3139 8.125 11.0754 8.02623 10.8996 7.85041C10.7238 7.6746 10.625 7.43614 10.625 7.1875V3.4375H4.6875V8.4375C4.6875 8.68614 4.58873 8.9246 4.41291 9.10041C4.2371 9.27623 3.99864 9.375 3.75 9.375C3.50136 9.375 3.2629 9.27623 3.08709 9.10041C2.91127 8.9246 2.8125 8.68614 2.8125 8.4375ZM12.5 6.25H14.2969L12.5 4.45313V6.25Z" fill="#191F2E"/>
</svg>
