<svg width="20" height="20" viewBox="0 0 20 20" fill="none" xmlns="http://www.w3.org/2000/svg">
<path d="M15.625 1.875H4.375C4.04348 1.875 3.72554 2.0067 3.49112 2.24112C3.2567 2.47554 3.125 2.79348 3.125 3.125V16.875C3.125 17.2065 3.2567 17.5245 3.49112 17.7589C3.72554 17.9933 4.04348 18.125 4.375 18.125H15.625C15.9565 18.125 16.2745 17.9933 16.5089 17.7589C16.7433 17.5245 16.875 17.2065 16.875 16.875V3.125C16.875 2.79348 16.7433 2.47554 16.5089 2.24112C16.2745 2.0067 15.9565 1.875 15.625 1.875ZM5.9375 14.6875C5.75208 14.6875 5.57082 14.6325 5.41665 14.5295C5.26248 14.4265 5.14232 14.2801 5.07136 14.1088C5.00041 13.9375 4.98184 13.749 5.01801 13.5671C5.05419 13.3852 5.14348 13.2182 5.27459 13.0871C5.4057 12.956 5.57275 12.8667 5.7546 12.8305C5.93646 12.7943 6.12496 12.8129 6.29627 12.8839C6.46757 12.9548 6.61399 13.075 6.717 13.2292C6.82002 13.3833 6.875 13.5646 6.875 13.75C6.875 13.9986 6.77623 14.2371 6.60041 14.4129C6.4246 14.5887 6.18614 14.6875 5.9375 14.6875ZM5.9375 10.9375C5.75208 10.9375 5.57082 10.8825 5.41665 10.7795C5.26248 10.6765 5.14232 10.5301 5.07136 10.3588C5.00041 10.1875 4.98184 9.99896 5.01801 9.8171C5.05419 9.63525 5.14348 9.4682 5.27459 9.33709C5.4057 9.20598 5.57275 9.11669 5.7546 9.08051C5.93646 9.04434 6.12496 9.06291 6.29627 9.13386C6.46757 9.20482 6.61399 9.32498 6.717 9.47915C6.82002 9.63332 6.875 9.81458 6.875 10C6.875 10.2486 6.77623 10.4871 6.60041 10.6629C6.4246 10.8387 6.18614 10.9375 5.9375 10.9375ZM5.9375 7.1875C5.75208 7.1875 5.57082 7.13252 5.41665 7.0295C5.26248 6.92649 5.14232 6.78007 5.07136 6.60877C5.00041 6.43746 4.98184 6.24896 5.01801 6.0671C5.05419 5.88525 5.14348 5.7182 5.27459 5.58709C5.4057 5.45598 5.57275 5.36669 5.7546 5.33051C5.93646 5.29434 6.12496 5.31291 6.29627 5.38386C6.46757 5.45482 6.61399 5.57498 6.717 5.72915C6.82002 5.88332 6.875 6.06458 6.875 6.25C6.875 6.49864 6.77623 6.7371 6.60041 6.91291C6.4246 7.08873 6.18614 7.1875 5.9375 7.1875Z" fill="#191F2E"/>
</svg>
