<svg width="20" height="20" viewBox="0 0 20 20" fill="none" xmlns="http://www.w3.org/2000/svg">
<path d="M16.875 7.81241H10.3844L16.489 6.20069C16.6087 6.16915 16.7208 6.11424 16.8191 6.03914C16.9174 5.96404 16.9999 5.87022 17.0618 5.76311C17.1237 5.65599 17.1637 5.53768 17.1797 5.41501C17.1956 5.29234 17.1871 5.16773 17.1547 5.04835L16.5172 2.7046C16.4076 2.30979 16.147 1.97402 15.7916 1.77003C15.4363 1.56604 15.0149 1.51026 14.6187 1.61476L2.71795 4.75538C2.51968 4.80704 2.33369 4.89769 2.17085 5.02204C2.008 5.14638 1.87157 5.30193 1.76952 5.4796C1.66727 5.65491 1.60112 5.84889 1.57496 6.05015C1.54879 6.2514 1.56315 6.45585 1.61717 6.65148L2.18748 8.74991V15.6249C2.18748 16.0393 2.3521 16.4367 2.64513 16.7298C2.93816 17.0228 3.33558 17.1874 3.74998 17.1874H16.25C16.6644 17.1874 17.0618 17.0228 17.3548 16.7298C17.6479 16.4367 17.8125 16.0393 17.8125 15.6249V8.74991C17.8125 8.50127 17.7137 8.26282 17.5379 8.087C17.3621 7.91118 17.1236 7.81241 16.875 7.81241ZM9.75702 4.83663L11.1859 5.66163L9.15858 6.19679L7.72967 5.37179L9.75702 4.83663ZM14.7922 3.50851L15.0976 4.6296L13.7594 4.98273L12.3305 4.15694L14.7922 3.50851ZM5.15623 6.05148L6.58514 6.87491L3.81952 7.60538L3.51561 6.48429L5.15623 6.05148ZM15.9375 15.3124H4.06248V9.68741H15.9375V15.3124Z" fill="#191F2E"/>
</svg>
