<svg width="20" height="20" viewBox="0 0 20 20" fill="none" xmlns="http://www.w3.org/2000/svg">
<path d="M15.625 1.5625H4.375C3.9606 1.5625 3.56317 1.72712 3.27015 2.02015C2.97712 2.31317 2.8125 2.7106 2.8125 3.125V16.875C2.8125 17.2894 2.97712 17.6868 3.27015 17.9799C3.56317 18.2729 3.9606 18.4375 4.375 18.4375H15.625C16.0394 18.4375 16.4368 18.2729 16.7299 17.9799C17.0229 17.6868 17.1875 17.2894 17.1875 16.875V3.125C17.1875 2.7106 17.0229 2.31317 16.7299 2.02015C16.4368 1.72712 16.0394 1.5625 15.625 1.5625ZM15.3125 16.5625H4.6875V3.4375H15.3125V16.5625ZM5.9375 6.25C5.9375 6.00277 6.01081 5.7611 6.14816 5.55554C6.28551 5.34998 6.48074 5.18976 6.70915 5.09515C6.93755 5.00054 7.18889 4.97579 7.43136 5.02402C7.67384 5.07225 7.89657 5.1913 8.07138 5.36612C8.2462 5.54093 8.36525 5.76366 8.41348 6.00614C8.46171 6.24861 8.43696 6.49995 8.34235 6.72835C8.24774 6.95676 8.08752 7.15199 7.88196 7.28934C7.6764 7.42669 7.43473 7.5 7.1875 7.5C6.85598 7.5 6.53804 7.3683 6.30362 7.13388C6.0692 6.89946 5.9375 6.58152 5.9375 6.25ZM5.9375 13.75C5.9375 13.5028 6.01081 13.2611 6.14816 13.0555C6.28551 12.85 6.48074 12.6898 6.70915 12.5951C6.93755 12.5005 7.18889 12.4758 7.43136 12.524C7.67384 12.5722 7.89657 12.6913 8.07138 12.8661C8.2462 13.0409 8.36525 13.2637 8.41348 13.5061C8.46171 13.7486 8.43696 13.9999 8.34235 14.2284C8.24774 14.4568 8.08752 14.652 7.88196 14.7893C7.6764 14.9267 7.43473 15 7.1875 15C6.85598 15 6.53804 14.8683 6.30362 14.6339C6.0692 14.3995 5.9375 14.0815 5.9375 13.75ZM5.9375 10C5.9375 9.75277 6.01081 9.5111 6.14816 9.30554C6.28551 9.09998 6.48074 8.93976 6.70915 8.84515C6.93755 8.75054 7.18889 8.72579 7.43136 8.77402C7.67384 8.82225 7.89657 8.9413 8.07138 9.11612C8.2462 9.29093 8.36525 9.51366 8.41348 9.75614C8.46171 9.99861 8.43696 10.2499 8.34235 10.4784C8.24774 10.7068 8.08752 10.902 7.88196 11.0393C7.6764 11.1767 7.43473 11.25 7.1875 11.25C6.85598 11.25 6.53804 11.1183 6.30362 10.8839C6.0692 10.6495 5.9375 10.3315 5.9375 10Z" fill="#191F2E"/>
</svg>
