<svg width="20" height="20" viewBox="0 0 20 20" fill="none" xmlns="http://www.w3.org/2000/svg">
<path d="M17.5001 16.875H14.3251C15.9808 15.8319 17.2042 14.2259 17.7702 12.3526C18.3361 10.4793 18.2066 8.46468 17.4055 6.67926C16.6044 4.89384 15.1855 3.45774 13.4098 2.63515C11.6342 1.81255 9.62124 1.65878 7.74126 2.20213C5.86128 2.74548 4.24073 3.94939 3.1777 5.59241C2.11467 7.23543 1.68066 9.20704 1.95552 11.1446C2.23039 13.0821 3.19562 14.8552 4.67368 16.1377C6.15173 17.4203 8.04319 18.126 10.0001 18.125H17.5001C17.6659 18.125 17.8248 18.0592 17.9421 17.9419C18.0593 17.8247 18.1251 17.6658 18.1251 17.5C18.1251 17.3342 18.0593 17.1753 17.9421 17.0581C17.8248 16.9409 17.6659 16.875 17.5001 16.875ZM3.12511 10C3.12511 8.64026 3.52833 7.31105 4.28376 6.18046C5.0392 5.04987 6.11292 4.16869 7.36917 3.64833C8.62541 3.12798 10.0077 2.99183 11.3414 3.25711C12.675 3.52238 13.9 4.17716 14.8615 5.13865C15.823 6.10013 16.4777 7.32514 16.743 8.65876C17.0083 9.99238 16.8721 11.3747 16.3518 12.631C15.8314 13.8872 14.9502 14.9609 13.8197 15.7164C12.6891 16.4718 11.3599 16.875 10.0001 16.875C8.17739 16.8729 6.4299 16.1479 5.14104 14.8591C3.85217 13.5702 3.12718 11.8227 3.12511 10ZM10.0001 8.125C10.371 8.125 10.7335 8.01504 11.0418 7.80901C11.3502 7.60298 11.5905 7.31015 11.7324 6.96754C11.8743 6.62492 11.9114 6.24792 11.8391 5.88421C11.7667 5.5205 11.5882 5.1864 11.3259 4.92418C11.0637 4.66196 10.7296 4.48338 10.3659 4.41103C10.0022 4.33869 9.62519 4.37582 9.28258 4.51773C8.93997 4.65964 8.64714 4.89997 8.44111 5.20831C8.23508 5.51665 8.12511 5.87916 8.12511 6.25C8.12511 6.74729 8.32266 7.2242 8.67429 7.57583C9.02592 7.92746 9.50283 8.125 10.0001 8.125ZM10.0001 5.625C10.1237 5.625 10.2446 5.66166 10.3473 5.73034C10.4501 5.79901 10.5302 5.89662 10.5775 6.01083C10.6248 6.12503 10.6372 6.2507 10.6131 6.37194C10.589 6.49317 10.5295 6.60454 10.4421 6.69195C10.3546 6.77935 10.2433 6.83888 10.122 6.863C10.0008 6.88711 9.87514 6.87473 9.76094 6.82743C9.64673 6.78012 9.54912 6.70002 9.48045 6.59724C9.41177 6.49446 9.37511 6.37362 9.37511 6.25C9.37511 6.08424 9.44096 5.92527 9.55817 5.80806C9.67538 5.69085 9.83435 5.625 10.0001 5.625ZM11.8751 13.75C11.8751 13.3792 11.7651 13.0167 11.5591 12.7083C11.3531 12.4 11.0603 12.1596 10.7176 12.0177C10.375 11.8758 9.99803 11.8387 9.63432 11.911C9.27061 11.9834 8.93651 12.162 8.67429 12.4242C8.41207 12.6864 8.23349 13.0205 8.16114 13.3842C8.08879 13.7479 8.12593 14.1249 8.26784 14.4675C8.40975 14.8101 8.65008 15.103 8.95842 15.309C9.26676 15.515 9.62927 15.625 10.0001 15.625C10.4974 15.625 10.9743 15.4275 11.3259 15.0758C11.6776 14.7242 11.8751 14.2473 11.8751 13.75ZM9.37511 13.75C9.37511 13.6264 9.41177 13.5056 9.48045 13.4028C9.54912 13.3 9.64673 13.2199 9.76094 13.1726C9.87514 13.1253 10.0008 13.1129 10.122 13.137C10.2433 13.1611 10.3546 13.2207 10.4421 13.3081C10.5295 13.3955 10.589 13.5068 10.6131 13.6281C10.6372 13.7493 10.6248 13.875 10.5775 13.9892C10.5302 14.1034 10.4501 14.201 10.3473 14.2697C10.2446 14.3383 10.1237 14.375 10.0001 14.375C9.83435 14.375 9.67538 14.3092 9.55817 14.1919C9.44096 14.0747 9.37511 13.9158 9.37511 13.75ZM13.7501 11.875C14.121 11.875 14.4835 11.765 14.7918 11.559C15.1002 11.353 15.3405 11.0601 15.4824 10.7175C15.6243 10.3749 15.6614 9.99792 15.5891 9.63421C15.5167 9.2705 15.3382 8.9364 15.0759 8.67418C14.8137 8.41196 14.4796 8.23338 14.1159 8.16103C13.7522 8.08868 13.3752 8.12582 13.0326 8.26773C12.69 8.40964 12.3971 8.64997 12.1911 8.95831C11.9851 9.26665 11.8751 9.62916 11.8751 10C11.8751 10.4973 12.0727 10.9742 12.4243 11.3258C12.7759 11.6775 13.2528 11.875 13.7501 11.875ZM13.7501 9.375C13.8737 9.375 13.9946 9.41166 14.0973 9.48034C14.2001 9.54901 14.2802 9.64662 14.3275 9.76083C14.3748 9.87503 14.3872 10.0007 14.3631 10.1219C14.339 10.2432 14.2795 10.3545 14.1921 10.4419C14.1046 10.5294 13.9933 10.5889 13.872 10.613C13.7508 10.6371 13.6251 10.6247 13.5109 10.5774C13.3967 10.5301 13.2991 10.45 13.2304 10.3472C13.1618 10.2445 13.1251 10.1236 13.1251 10C13.1251 9.83424 13.191 9.67527 13.3082 9.55806C13.4254 9.44085 13.5844 9.375 13.7501 9.375ZM6.25011 8.125C5.87927 8.125 5.51676 8.23497 5.20842 8.441C4.90008 8.64703 4.65975 8.93986 4.51784 9.28247C4.37593 9.62508 4.33879 10.0021 4.41114 10.3658C4.48349 10.7295 4.66207 11.0636 4.92429 11.3258C5.18651 11.5881 5.52061 11.7666 5.88432 11.839C6.24803 11.9113 6.62503 11.8742 6.96765 11.7323C7.31026 11.5904 7.60309 11.35 7.80912 11.0417C8.01515 10.7334 8.12511 10.3708 8.12511 10C8.12511 9.50272 7.92757 9.02581 7.57594 8.67418C7.22431 8.32255 6.74739 8.125 6.25011 8.125ZM6.25011 10.625C6.1265 10.625 6.00566 10.5883 5.90288 10.5197C5.8001 10.451 5.71999 10.3534 5.67269 10.2392C5.62538 10.125 5.61301 9.99931 5.63712 9.87807C5.66124 9.75683 5.72076 9.64547 5.80817 9.55806C5.89558 9.47065 6.00694 9.41113 6.12818 9.38701C6.24942 9.3629 6.37509 9.37527 6.48929 9.42258C6.6035 9.46988 6.70111 9.54999 6.76978 9.65277C6.83846 9.75555 6.87511 9.87639 6.87511 10C6.87511 10.1658 6.80927 10.3247 6.69206 10.4419C6.57485 10.5592 6.41587 10.625 6.25011 10.625Z" fill="#191F2E"/>
</svg>
