<svg width="20" height="20" viewBox="0 0 20 20" fill="none" xmlns="http://www.w3.org/2000/svg">
<path d="M16.8749 8.12492H7.97568L16.4062 5.89914C16.486 5.87811 16.5608 5.84149 16.6264 5.79138C16.6919 5.74128 16.7469 5.67869 16.7882 5.60722C16.8295 5.53575 16.8561 5.45681 16.8667 5.37497C16.8773 5.29313 16.8716 5.21 16.8499 5.13038L16.2124 2.78663C16.1247 2.47131 15.9162 2.20325 15.6323 2.0405C15.3483 1.87775 15.0116 1.83342 14.6952 1.9171L2.79756 5.05773C2.63914 5.09885 2.49052 5.17116 2.3604 5.27043C2.23027 5.3697 2.12126 5.49393 2.03974 5.63585C1.95777 5.77603 1.90481 5.93126 1.88401 6.09231C1.8632 6.25336 1.87499 6.41695 1.91865 6.57335L2.4999 8.71554C2.4999 8.72648 2.4999 8.7382 2.4999 8.74992V15.6249C2.4999 15.9564 2.6316 16.2744 2.86602 16.5088C3.10044 16.7432 3.41838 16.8749 3.7499 16.8749H16.2499C16.5814 16.8749 16.8994 16.7432 17.1338 16.5088C17.3682 16.2744 17.4999 15.9564 17.4999 15.6249V8.74992C17.4999 8.58416 17.4341 8.42519 17.3168 8.30797C17.1996 8.19076 17.0407 8.12492 16.8749 8.12492ZM10.6593 4.27492L12.8569 5.54679L8.25537 6.76164L6.05849 5.48976L10.6593 4.27492ZM16.2499 15.6249H3.7499V9.37492H16.2499V15.6249Z" fill="#191F2E"/>
</svg>
