<svg width="20" height="20" viewBox="0 0 20 20" fill="none" xmlns="http://www.w3.org/2000/svg">
<path d="M15.625 1.875H4.375C4.04348 1.875 3.72554 2.0067 3.49112 2.24112C3.2567 2.47554 3.125 2.79348 3.125 3.125V16.875C3.125 17.2065 3.2567 17.5245 3.49112 17.7589C3.72554 17.9933 4.04348 18.125 4.375 18.125H15.625C15.9565 18.125 16.2745 17.9933 16.5089 17.7589C16.7433 17.5245 16.875 17.2065 16.875 16.875V3.125C16.875 2.79348 16.7433 2.47554 16.5089 2.24112C16.2745 2.0067 15.9565 1.875 15.625 1.875ZM15.625 16.875H4.375V3.125H15.625V16.875ZM7.5 5.9375C7.5 6.12292 7.44502 6.30418 7.342 6.45835C7.23899 6.61252 7.09257 6.73268 6.92127 6.80364C6.74996 6.87459 6.56146 6.89316 6.3796 6.85699C6.19775 6.82081 6.0307 6.73152 5.89959 6.60041C5.76848 6.4693 5.67919 6.30225 5.64301 6.1204C5.60684 5.93854 5.62541 5.75004 5.69636 5.57873C5.76732 5.40743 5.88748 5.26101 6.04165 5.158C6.19582 5.05498 6.37708 5 6.5625 5C6.81114 5 7.0496 5.09877 7.22541 5.27459C7.40123 5.4504 7.5 5.68886 7.5 5.9375ZM7.5 14.0625C7.5 14.2479 7.44502 14.4292 7.342 14.5833C7.23899 14.7375 7.09257 14.8577 6.92127 14.9286C6.74996 14.9996 6.56146 15.0182 6.3796 14.982C6.19775 14.9458 6.0307 14.8565 5.89959 14.7254C5.76848 14.5943 5.67919 14.4273 5.64301 14.2454C5.60684 14.0635 5.62541 13.875 5.69636 13.7037C5.76732 13.5324 5.88748 13.386 6.04165 13.283C6.19582 13.18 6.37708 13.125 6.5625 13.125C6.81114 13.125 7.0496 13.2238 7.22541 13.3996C7.40123 13.5754 7.5 13.8139 7.5 14.0625ZM7.5 10C7.5 10.1854 7.44502 10.3667 7.342 10.5208C7.23899 10.675 7.09257 10.7952 6.92127 10.8661C6.74996 10.9371 6.56146 10.9557 6.3796 10.9195C6.19775 10.8833 6.0307 10.794 5.89959 10.6629C5.76848 10.5318 5.67919 10.3648 5.64301 10.1829C5.60684 10.001 5.62541 9.81254 5.69636 9.64123C5.76732 9.46993 5.88748 9.32351 6.04165 9.2205C6.19582 9.11748 6.37708 9.0625 6.5625 9.0625C6.81114 9.0625 7.0496 9.16127 7.22541 9.33709C7.40123 9.5129 7.5 9.75136 7.5 10Z" fill="#191F2E"/>
</svg>
