<svg width="20" height="20" viewBox="0 0 20 20" fill="none" xmlns="http://www.w3.org/2000/svg">
<path d="M17.5001 16.5624H15.297C16.844 15.3117 17.8991 13.5543 18.2757 11.6009C18.6523 9.64742 18.3261 7.62375 17.3548 5.88756C16.3836 4.15136 14.8298 2.81445 12.9681 2.11314C11.1064 1.41183 9.05673 1.39128 7.18136 2.05513C5.30599 2.71898 3.7257 4.02447 2.71984 5.74084C1.71397 7.45722 1.3473 9.47394 1.68464 11.4345C2.02198 13.3951 3.0416 15.1733 4.56328 16.4548C6.08496 17.7363 8.0107 18.4385 10.0001 18.4374H17.5001C17.7487 18.4374 17.9872 18.3386 18.163 18.1628C18.3388 17.987 18.4376 17.7485 18.4376 17.4999C18.4376 17.2513 18.3388 17.0128 18.163 16.837C17.9872 16.6612 17.7487 16.5624 17.5001 16.5624ZM3.4376 9.9999C3.4376 8.70196 3.82248 7.43317 4.54358 6.35397C5.26468 5.27477 6.2896 4.43364 7.48874 3.93694C8.68788 3.44024 10.0074 3.31028 11.2804 3.5635C12.5534 3.81671 13.7227 4.44173 14.6405 5.35951C15.5583 6.27729 16.1833 7.44662 16.4365 8.71962C16.6897 9.99262 16.5598 11.3121 16.0631 12.5113C15.5664 13.7104 14.7252 14.7353 13.646 15.4564C12.5668 16.1775 11.298 16.5624 10.0001 16.5624C8.26019 16.5605 6.59207 15.8685 5.36177 14.6382C4.13146 13.4079 3.43946 11.7398 3.4376 9.9999ZM8.4376 6.5624C8.4376 6.25337 8.52924 5.95127 8.70093 5.69432C8.87262 5.43737 9.11665 5.2371 9.40216 5.11884C9.68767 5.00058 10.0018 4.96963 10.3049 5.02992C10.608 5.09021 10.8864 5.23903 11.105 5.45755C11.3235 5.67607 11.4723 5.95448 11.5326 6.25757C11.5929 6.56067 11.5619 6.87483 11.4437 7.16034C11.3254 7.44585 11.1251 7.68988 10.8682 7.86157C10.6112 8.03326 10.3091 8.1249 10.0001 8.1249C9.5857 8.1249 9.18827 7.96028 8.89525 7.66726C8.60222 7.37423 8.4376 6.9768 8.4376 6.5624ZM10.0001 14.9999C9.69107 14.9999 9.38897 14.9083 9.13202 14.7366C8.87507 14.5649 8.6748 14.3209 8.55654 14.0353C8.43828 13.7498 8.40733 13.4357 8.46762 13.1326C8.52791 12.8295 8.67673 12.5511 8.89525 12.3325C9.11376 12.114 9.39218 11.9652 9.69527 11.9049C9.99837 11.8446 10.3125 11.8756 10.598 11.9938C10.8836 12.1121 11.1276 12.3124 11.2993 12.5693C11.471 12.8263 11.5626 13.1284 11.5626 13.4374C11.5626 13.6426 11.5222 13.8458 11.4437 14.0353C11.3651 14.2249 11.25 14.3972 11.105 14.5423C10.9599 14.6873 10.7876 14.8024 10.598 14.881C10.4085 14.9595 10.2053 14.9999 10.0001 14.9999ZM11.8751 9.9999C11.8751 9.69087 11.9667 9.38877 12.1384 9.13182C12.3101 8.87487 12.5541 8.6746 12.8397 8.55634C13.1252 8.43808 13.4393 8.40713 13.7424 8.46742C14.0455 8.52771 14.3239 8.67653 14.5425 8.89505C14.761 9.11357 14.9098 9.39198 14.9701 9.69507C15.0304 9.99817 14.9994 10.3123 14.8812 10.5978C14.7629 10.8834 14.5626 11.1274 14.3057 11.2991C14.0487 11.4708 13.7466 11.5624 13.4376 11.5624C13.0232 11.5624 12.6258 11.3978 12.3327 11.1048C12.0397 10.8117 11.8751 10.4143 11.8751 9.9999ZM8.1251 9.9999C8.1251 10.3089 8.03346 10.611 7.86177 10.868C7.69008 11.1249 7.44605 11.3252 7.16054 11.4435C6.87503 11.5617 6.56087 11.5927 6.25777 11.5324C5.95468 11.4721 5.67626 11.3233 5.45775 11.1048C5.23923 10.8862 5.09041 10.6078 5.03012 10.3047C4.96983 10.0016 5.00078 9.68747 5.11904 9.40196C5.2373 9.11645 5.43757 8.87242 5.69452 8.70073C5.95147 8.52904 6.25357 8.4374 6.5626 8.4374C6.977 8.4374 7.37443 8.60202 7.66745 8.89505C7.96048 9.18807 8.1251 9.5855 8.1251 9.9999Z" fill="#191F2E"/>
</svg>
