<svg width="20" height="20" viewBox="0 0 20 20" fill="none" xmlns="http://www.w3.org/2000/svg">
<path d="M16.875 3.125H3.125C2.79348 3.125 2.47554 3.2567 2.24112 3.49112C2.0067 3.72554 1.875 4.04348 1.875 4.375V15.625C1.875 15.9565 2.0067 16.2745 2.24112 16.5089C2.47554 16.7433 2.79348 16.875 3.125 16.875H16.875C17.2065 16.875 17.5245 16.7433 17.7589 16.5089C17.9933 16.2745 18.125 15.9565 18.125 15.625V4.375C18.125 4.04348 17.9933 3.72554 17.7589 3.49112C17.5245 3.2567 17.2065 3.125 16.875 3.125ZM3.125 6.875H9.375V13.125H3.125V6.875ZM10.625 5.625V4.375H13.125V5.625H10.625ZM9.375 5.625H6.875V4.375H9.375V5.625ZM9.375 14.375V15.625H6.875V14.375H9.375ZM10.625 14.375H13.125V15.625H10.625V14.375ZM10.625 13.125V6.875H16.875V13.125H10.625ZM16.875 5.625H14.375V4.375H16.875V5.625ZM5.625 4.375V5.625H3.125V4.375H5.625ZM3.125 14.375H5.625V15.625H3.125V14.375ZM16.875 15.625H14.375V14.375H16.875V15.625Z" fill="#191F2E"/>
</svg>
