<svg width="20" height="20" viewBox="0 0 20 20" fill="none" xmlns="http://www.w3.org/2000/svg">
<path d="M17.5001 16.875H14.3251C15.9808 15.8319 17.2042 14.2259 17.7702 12.3526C18.3361 10.4793 18.2066 8.46468 17.4055 6.67926C16.6044 4.89384 15.1855 3.45774 13.4098 2.63515C11.6342 1.81255 9.62124 1.65878 7.74126 2.20213C5.86128 2.74548 4.24073 3.94939 3.1777 5.59241C2.11467 7.23543 1.68066 9.20704 1.95552 11.1446C2.23039 13.0821 3.19562 14.8552 4.67368 16.1377C6.15173 17.4203 8.04319 18.126 10.0001 18.125H17.5001C17.6659 18.125 17.8248 18.0592 17.9421 17.9419C18.0593 17.8247 18.1251 17.6658 18.1251 17.5C18.1251 17.3342 18.0593 17.1753 17.9421 17.0581C17.8248 16.9409 17.6659 16.875 17.5001 16.875ZM6.25011 11.5625C5.94108 11.5625 5.63899 11.4709 5.38204 11.2992C5.12508 11.1275 4.92481 10.8835 4.80655 10.5979C4.68829 10.3124 4.65735 9.99827 4.71764 9.69518C4.77793 9.39208 4.92674 9.11367 5.14526 8.89515C5.36378 8.67663 5.64219 8.52782 5.94528 8.46753C6.24838 8.40724 6.56255 8.43818 6.84806 8.55644C7.13357 8.6747 7.3776 8.87497 7.54929 9.13193C7.72097 9.38888 7.81261 9.69097 7.81261 10C7.81261 10.4144 7.64799 10.8118 7.35497 11.1049C7.06194 11.3979 6.66451 11.5625 6.25011 11.5625ZM10.0001 15.3125C9.69108 15.3125 9.38899 15.2209 9.13204 15.0492C8.87508 14.8775 8.67481 14.6335 8.55655 14.3479C8.43829 14.0624 8.40735 13.7483 8.46764 13.4452C8.52793 13.1421 8.67674 12.8637 8.89526 12.6452C9.11378 12.4266 9.39219 12.2778 9.69528 12.2175C9.99838 12.1572 10.3125 12.1882 10.5981 12.3064C10.8836 12.4247 11.1276 12.625 11.2993 12.8819C11.471 13.1389 11.5626 13.441 11.5626 13.75C11.5626 14.1644 11.398 14.5618 11.105 14.8549C10.8119 15.1479 10.4145 15.3125 10.0001 15.3125ZM10.0001 7.8125C9.69108 7.8125 9.38899 7.72087 9.13204 7.54918C8.87508 7.37749 8.67481 7.13346 8.55655 6.84795C8.43829 6.56244 8.40735 6.24827 8.46764 5.94518C8.52793 5.64208 8.67674 5.36367 8.89526 5.14515C9.11378 4.92663 9.39219 4.77782 9.69528 4.71753C9.99838 4.65724 10.3125 4.68818 10.5981 4.80644C10.8836 4.9247 11.1276 5.12497 11.2993 5.38193C11.471 5.63888 11.5626 5.94097 11.5626 6.25C11.5626 6.66441 11.398 7.06183 11.105 7.35486C10.8119 7.64788 10.4145 7.8125 10.0001 7.8125ZM12.1876 10C12.1876 9.69097 12.2793 9.38888 12.4509 9.13193C12.6226 8.87497 12.8667 8.6747 13.1522 8.55644C13.4377 8.43818 13.7518 8.40724 14.0549 8.46753C14.358 8.52782 14.6364 8.67663 14.855 8.89515C15.0735 9.11367 15.2223 9.39208 15.2826 9.69518C15.3429 9.99827 15.3119 10.3124 15.1937 10.5979C15.0754 10.8835 14.8751 11.1275 14.6182 11.2992C14.3612 11.4709 14.0591 11.5625 13.7501 11.5625C13.3357 11.5625 12.9383 11.3979 12.6453 11.1049C12.3522 10.8118 12.1876 10.4144 12.1876 10Z" fill="#191F2E"/>
</svg>
