<svg width="20" height="20" viewBox="0 0 20 20" fill="none" xmlns="http://www.w3.org/2000/svg">
<path d="M16.875 2.8125H3.125C2.7106 2.8125 2.31317 2.97712 2.02015 3.27015C1.72712 3.56317 1.5625 3.9606 1.5625 4.375V15.625C1.5625 16.0394 1.72712 16.4368 2.02015 16.7299C2.31317 17.0229 2.7106 17.1875 3.125 17.1875H16.875C17.2894 17.1875 17.6868 17.0229 17.9799 16.7299C18.2729 16.4368 18.4375 16.0394 18.4375 15.625V4.375C18.4375 3.9606 18.2729 3.56317 17.9799 3.27015C17.6868 2.97712 17.2894 2.8125 16.875 2.8125ZM3.4375 7.8125H9.0625V12.1875H3.4375V7.8125ZM10.9375 5.9375V4.6875H12.8125V5.9375H10.9375ZM9.0625 5.9375H7.1875V4.6875H9.0625V5.9375ZM9.0625 14.0625V15.3125H7.1875V14.0625H9.0625ZM10.9375 14.0625H12.8125V15.3125H10.9375V14.0625ZM10.9375 12.1875V7.8125H16.5625V12.1875H10.9375ZM16.5625 5.9375H14.6875V4.6875H16.5625V5.9375ZM5.3125 4.6875V5.9375H3.4375V4.6875H5.3125ZM3.4375 14.0625H5.3125V15.3125H3.4375V14.0625ZM14.6875 15.3125V14.0625H16.5625V15.3125H14.6875Z" fill="#191F2E"/>
</svg>
