<svg width="20" height="20" viewBox="0 0 20 20" fill="none" xmlns="http://www.w3.org/2000/svg">
<path d="M9.87588 1.87489C5.5251 1.9413 1.96963 5.47411 1.8751 9.82411C1.84213 11.2872 2.20692 12.7318 2.93057 14.0038C2.95895 14.0536 3.00048 14.0946 3.05061 14.1224C3.10074 14.1502 3.15754 14.1636 3.21481 14.1613C3.27207 14.1589 3.32759 14.1409 3.37529 14.1091C3.42298 14.0774 3.46103 14.0331 3.48526 13.9811C4.07225 12.7361 4.37614 11.3764 4.3751 9.99989C4.37455 8.64026 4.86695 7.32654 5.76104 6.30223C5.86211 6.18186 6.00381 6.10273 6.15931 6.07984C6.31482 6.05695 6.47331 6.09188 6.60479 6.17801C6.67805 6.22813 6.73979 6.29328 6.78591 6.36912C6.83202 6.44497 6.86146 6.52976 6.87225 6.61787C6.88304 6.70597 6.87494 6.79536 6.84849 6.88009C6.82204 6.96482 6.77785 7.04295 6.71885 7.10926C6.01424 7.90735 5.62529 8.93527 5.6251 9.99989C5.62744 11.8752 5.13019 13.7172 4.18447 15.3366C4.14941 15.3961 4.13507 15.4656 4.14369 15.5342C4.15231 15.6027 4.18341 15.6665 4.23213 15.7155C4.5423 16.03 4.87752 16.3187 5.23447 16.5788C5.26979 16.6047 5.31015 16.6229 5.35294 16.6322C5.39572 16.6414 5.43999 16.6416 5.48286 16.6327C5.52573 16.6238 5.56625 16.606 5.60179 16.5804C5.63733 16.5548 5.66709 16.5221 5.68916 16.4843C6.02424 15.9348 6.31626 15.3601 6.5626 14.7655C6.59389 14.6896 6.63983 14.6206 6.69779 14.5624C6.75576 14.5042 6.82461 14.4581 6.90042 14.4265C6.97623 14.395 7.05751 14.3786 7.13963 14.3785C7.22174 14.3783 7.30308 14.3944 7.379 14.4257C7.45493 14.457 7.52394 14.5029 7.58211 14.5609C7.64027 14.6188 7.68645 14.6877 7.71801 14.7635C7.74957 14.8393 7.76588 14.9206 7.76603 15.0027C7.76617 15.0848 7.75014 15.1662 7.71885 15.2421C7.45641 15.8773 7.14696 16.492 6.79307 17.0811C6.77012 17.1196 6.7557 17.1625 6.75079 17.207C6.74587 17.2515 6.75057 17.2965 6.76457 17.339C6.77857 17.3816 6.80155 17.4206 6.83194 17.4535C6.86233 17.4863 6.89943 17.5123 6.94072 17.5296C7.56729 17.7851 8.22346 17.961 8.89385 18.053C8.95644 18.0622 9.02034 18.0522 9.07712 18.0243C9.13389 17.9964 9.18086 17.9519 9.21182 17.8968C10.357 15.8395 11.0388 13.5568 11.2095 11.2085C11.2129 11.1248 11.2331 11.0427 11.2689 10.967C11.3047 10.8913 11.3554 10.8236 11.4179 10.7679C11.4803 10.7121 11.5534 10.6695 11.6326 10.6426C11.7119 10.6156 11.7958 10.6048 11.8793 10.6109C11.9628 10.617 12.0442 10.6398 12.1187 10.6779C12.1933 10.7161 12.2594 10.7688 12.3131 10.833C12.3669 10.8972 12.4072 10.9715 12.4317 11.0516C12.4561 11.1317 12.4643 11.2158 12.4556 11.2991C12.2965 13.4895 11.7245 15.63 10.7696 17.6077C10.7447 17.6583 10.7339 17.7147 10.7383 17.7709C10.7428 17.8271 10.7625 17.8811 10.7951 17.9271C10.8278 17.973 10.8723 18.0093 10.924 18.032C10.9756 18.0548 11.0324 18.0631 11.0884 18.0561C11.6366 17.9825 12.1759 17.8529 12.6978 17.6694C12.7388 17.6548 12.7764 17.6317 12.808 17.6017C12.8396 17.5717 12.8646 17.5354 12.8813 17.4952C13.8556 15.1639 14.3631 12.6641 14.3751 10.1374C14.3923 7.74364 12.547 5.71005 10.1563 5.62723C9.73538 5.61265 9.31447 5.65816 8.90635 5.76239C8.82391 5.78356 8.73801 5.78766 8.65393 5.77445C8.56984 5.76124 8.48935 5.73099 8.41737 5.68557C8.34539 5.64014 8.28344 5.58049 8.23534 5.51028C8.18723 5.44006 8.15397 5.36076 8.1376 5.27723C8.11037 5.11533 8.1461 4.94915 8.23747 4.81275C8.32884 4.67635 8.46892 4.58007 8.629 4.54364C9.45863 4.33591 10.3247 4.31996 11.1614 4.497C11.9981 4.67404 12.7835 5.03941 13.4579 5.56536C14.1323 6.09132 14.6779 6.76403 15.0535 7.53242C15.429 8.3008 15.6245 9.14465 15.6251 9.99989C15.627 11.9732 15.3465 13.9365 14.7923 15.8304C14.7729 15.8953 14.7752 15.9648 14.7988 16.0283C14.8224 16.0919 14.866 16.146 14.9231 16.1826C14.9801 16.2192 15.0475 16.2362 15.1151 16.2312C15.1827 16.2261 15.2468 16.1992 15.2978 16.1546C16.5618 15.0655 17.46 13.6137 17.8701 11.9964C18.2803 10.3791 18.1826 8.67477 17.5904 7.11493C16.9981 5.55508 15.94 4.21539 14.5598 3.27789C13.1796 2.34039 11.5442 1.85054 9.87588 1.87489ZM10.0001 7.49989C10.3518 7.50018 10.6995 7.57457 11.0205 7.71819C11.3416 7.86182 11.6288 8.07147 11.8634 8.33348C11.9215 8.39851 11.9654 8.47499 11.9923 8.55801C12.0191 8.64103 12.0282 8.72874 12.0191 8.8155C12.01 8.90226 11.9828 8.98615 11.9393 9.06177C11.8958 9.13739 11.8369 9.20307 11.7665 9.25458C11.6365 9.34408 11.4783 9.38285 11.3216 9.36356C11.165 9.34427 11.0209 9.26825 10.9165 9.14989C10.7533 8.97397 10.5429 8.84874 10.3104 8.78917C10.078 8.7296 9.83327 8.7382 9.60557 8.81395C9.35209 8.9022 9.13276 9.06786 8.97855 9.28754C8.82434 9.50721 8.74306 9.76979 8.74619 10.0382C8.74402 10.9035 8.66058 11.7666 8.49697 12.6163C8.47012 12.758 8.39509 12.8861 8.28459 12.9788C8.1741 13.0715 8.03494 13.1231 7.89072 13.1249C7.8514 13.1251 7.81215 13.1214 7.77354 13.114C7.60954 13.0767 7.46645 12.9771 7.37447 12.8363C7.28249 12.6955 7.24882 12.5244 7.28057 12.3593C7.42777 11.5815 7.50127 10.7915 7.5001 9.99989C7.5001 9.33685 7.76349 8.70096 8.23233 8.23212C8.70117 7.76328 9.33706 7.49989 10.0001 7.49989Z" fill="#191F2E"/>
</svg>
