<svg width="20" height="20" viewBox="0 0 20 20" fill="none" xmlns="http://www.w3.org/2000/svg">
<path d="M12.5001 10C12.4998 12.8758 11.7923 15.7074 10.4399 18.2453C10.3828 18.3556 10.3044 18.4535 10.2092 18.5333C10.114 18.6131 10.0039 18.6731 9.88524 18.71C9.76662 18.7468 9.64185 18.7597 9.5182 18.7479C9.39454 18.7361 9.27447 18.6999 9.16494 18.6413C9.05541 18.5827 8.95862 18.5029 8.88019 18.4066C8.80176 18.3103 8.74325 18.1993 8.70807 18.0802C8.67288 17.9611 8.66172 17.8362 8.67523 17.7127C8.68875 17.5892 8.72666 17.4696 8.78678 17.3609C9.99399 15.0952 10.6253 12.5673 10.6251 10C10.6251 9.83424 10.5592 9.67527 10.442 9.55806C10.3248 9.44085 10.1658 9.375 10.0001 9.375C9.8343 9.375 9.67533 9.44085 9.55812 9.55806C9.4409 9.67527 9.37506 9.83424 9.37506 10C9.37506 10.2486 9.27628 10.4871 9.10047 10.6629C8.92465 10.8387 8.6862 10.9375 8.43756 10.9375C8.18892 10.9375 7.95046 10.8387 7.77464 10.6629C7.59883 10.4871 7.50006 10.2486 7.50006 10C7.50006 9.33696 7.76345 8.70107 8.23229 8.23223C8.70113 7.76339 9.33702 7.5 10.0001 7.5C10.6631 7.5 11.299 7.76339 11.7678 8.23223C12.2367 8.70107 12.5001 9.33696 12.5001 10ZM10.0001 4.375C9.75142 4.375 9.51296 4.47377 9.33714 4.64959C9.16133 4.8254 9.06256 5.06386 9.06256 5.3125C9.06256 5.56114 9.16133 5.7996 9.33714 5.97541C9.51296 6.15123 9.75142 6.25 10.0001 6.25C10.9943 6.25103 11.9475 6.64645 12.6506 7.34949C13.3536 8.05253 13.749 9.00576 13.7501 10C13.7501 10.5953 13.7219 11.1969 13.6665 11.7867C13.6543 11.9096 13.6665 12.0336 13.7024 12.1517C13.7383 12.2699 13.7972 12.3797 13.8756 12.4751C13.9541 12.5704 14.0506 12.6492 14.1597 12.7071C14.2687 12.7651 14.3881 12.8009 14.511 12.8125C14.5407 12.8125 14.5704 12.8125 14.6001 12.8125C14.8332 12.8122 15.0578 12.725 15.2302 12.568C15.4025 12.411 15.5101 12.1954 15.5321 11.9633C15.5938 11.3148 15.6243 10.6539 15.6243 10C15.6226 8.5088 15.0296 7.07914 13.9752 6.02463C12.9208 4.97012 11.4913 4.37686 10.0001 4.375ZM7.50006 7.20547C7.67875 7.038 7.78481 6.80725 7.79556 6.56259C7.80631 6.31792 7.7209 6.07876 7.55759 5.89627C7.39428 5.71377 7.16604 5.60242 6.92168 5.58603C6.67733 5.56965 6.43627 5.64953 6.25006 5.80859C5.66071 6.33638 5.18914 6.9824 4.86609 7.70457C4.54303 8.42674 4.37572 9.20886 4.37506 10C4.37546 11.5958 3.9689 13.1653 3.19381 14.5602C3.0727 14.7777 3.04297 15.0345 3.11118 15.274C3.17938 15.5134 3.33992 15.716 3.55748 15.8371C3.77504 15.9582 4.0318 15.9879 4.27127 15.9197C4.51075 15.8515 4.71332 15.691 4.83443 15.4734C5.76407 13.799 6.2513 11.9152 6.25006 10C6.25053 9.47254 6.36208 8.9511 6.57745 8.46961C6.79282 7.98813 7.10717 7.5574 7.50006 7.20547ZM8.28912 12.2133C8.16928 12.1847 8.04499 12.18 7.92334 12.1995C7.8017 12.219 7.68508 12.2622 7.58016 12.3268C7.47525 12.3914 7.38409 12.476 7.3119 12.5758C7.2397 12.6757 7.18789 12.7887 7.15943 12.9086C6.85867 14.1728 6.36092 15.3819 5.68443 16.4914C5.55514 16.7038 5.51551 16.9588 5.57426 17.2004C5.63301 17.442 5.78533 17.6504 5.99771 17.7797C6.21009 17.909 6.46514 17.9486 6.70674 17.8899C6.94834 17.8311 7.1567 17.6788 7.28599 17.4664C8.0645 16.1893 8.63763 14.7979 8.98443 13.343C9.01302 13.2231 9.01771 13.0988 8.99823 12.9772C8.97875 12.8555 8.93549 12.7389 8.87091 12.634C8.80634 12.5291 8.72172 12.4379 8.62189 12.3657C8.52206 12.2936 8.40898 12.2417 8.28912 12.2133ZM14.2837 14.0938C14.1644 14.0627 14.0403 14.0555 13.9182 14.0724C13.7962 14.0894 13.6787 14.1302 13.5725 14.1926C13.4663 14.255 13.3734 14.3378 13.2992 14.4361C13.225 14.5344 13.1708 14.6464 13.1399 14.7656C12.9668 15.4241 12.7581 16.0727 12.5149 16.7086C12.4262 16.9407 12.4332 17.1985 12.5344 17.4254C12.6356 17.6523 12.8228 17.8298 13.0547 17.9188C13.1616 17.9603 13.2753 17.9815 13.3899 17.9813C13.5797 17.9813 13.765 17.9237 13.9214 17.8162C14.0778 17.7086 14.1978 17.5562 14.2657 17.3789C14.5338 16.6793 14.7631 15.9655 14.9524 15.2406C14.984 15.1214 14.9917 14.9971 14.9752 14.8749C14.9586 14.7527 14.9181 14.635 14.856 14.5284C14.7939 14.4219 14.7113 14.3286 14.6131 14.2541C14.5149 14.1795 14.403 14.125 14.2837 14.0938ZM10.0001 1.25C7.68773 1.25243 5.47016 2.16909 3.831 3.80005C2.19184 5.43102 1.26408 7.64396 1.25006 9.95625C1.25006 9.97109 1.25006 9.98594 1.25006 10.0008C1.2502 10.7427 1.11792 11.4788 0.859432 12.1742C0.815607 12.2899 0.795093 12.413 0.799069 12.5366C0.803045 12.6602 0.831434 12.7818 0.882599 12.8944C0.933765 13.0069 1.0067 13.1083 1.0972 13.1926C1.18769 13.2768 1.29397 13.3424 1.4099 13.3854C1.52584 13.4284 1.64914 13.4481 1.7727 13.4432C1.89627 13.4384 2.01766 13.4092 2.12988 13.3572C2.2421 13.3053 2.34293 13.2317 2.42658 13.1406C2.51022 13.0495 2.57502 12.9428 2.61724 12.8266C2.94839 11.9365 3.12029 10.995 3.12506 10.0453C3.12506 10.0305 3.12506 10.0156 3.12506 10.0008C3.11988 8.17742 3.83924 6.42668 5.12489 5.1337C6.41054 3.84073 8.15716 3.11143 9.98053 3.10625C11.8039 3.10107 13.5546 3.82043 14.8476 5.10608C16.1406 6.39173 16.8699 8.13836 16.8751 9.96172C16.8751 9.97422 16.8751 9.9875 16.8751 10.0008C16.8755 11.6137 16.6989 13.2217 16.3485 14.7961C16.2942 15.0387 16.3385 15.293 16.4717 15.5029C16.6049 15.7129 16.816 15.8613 17.0587 15.9156C17.1266 15.9307 17.1961 15.938 17.2657 15.9375C17.4786 15.9373 17.6851 15.8646 17.8513 15.7315C18.0174 15.5983 18.1333 15.4125 18.1797 15.2047C18.5568 13.5099 18.748 11.7792 18.7501 10.043C18.7501 10.0289 18.7501 10.0148 18.7501 10.0008C18.7476 7.68083 17.8249 5.45659 16.1845 3.81606C14.5442 2.17553 12.32 1.25269 10.0001 1.25Z" fill="#191F2E"/>
</svg>
