<svg width="20" height="20" viewBox="0 0 20 20" fill="none" xmlns="http://www.w3.org/2000/svg">
<path d="M9.87668 1.87495C5.5259 1.94135 1.96965 5.47573 1.87511 9.82885C1.84201 11.293 2.20708 12.7387 2.93136 14.0117C2.95981 14.0614 3.0014 14.1024 3.05157 14.1301C3.10175 14.1578 3.15858 14.1712 3.21584 14.1688C3.27311 14.1664 3.3286 14.1482 3.37626 14.1164C3.42392 14.0845 3.4619 14.0402 3.48605 13.9882C4.07281 12.742 4.37617 11.3813 4.37433 10.0039C4.37295 9.16016 4.56198 8.32703 4.92734 7.56655C5.29271 6.80607 5.82497 6.13784 6.48449 5.61166C6.54918 5.56109 6.62319 5.52374 6.70231 5.50177C6.78143 5.47979 6.8641 5.47362 6.9456 5.48359C7.02711 5.49357 7.10585 5.5195 7.17734 5.5599C7.24882 5.60031 7.31164 5.6544 7.36222 5.71909C7.4128 5.78377 7.45015 5.85779 7.47212 5.93691C7.4941 6.01602 7.50027 6.0987 7.4903 6.1802C7.48032 6.26171 7.45439 6.34045 7.41398 6.41193C7.37358 6.48342 7.31949 6.54624 7.2548 6.59682C6.74496 7.00642 6.33376 7.52544 6.05166 8.11547C5.76956 8.7055 5.62378 9.35142 5.62511 10.0054C5.62717 11.8818 5.12967 13.7248 4.18371 15.3453C4.14864 15.4048 4.1343 15.4743 4.14292 15.5428C4.15155 15.6114 4.18265 15.6752 4.23136 15.7242C4.38761 15.8804 4.5509 16.0367 4.71965 16.1789C4.75423 16.2079 4.7947 16.2291 4.83827 16.241C4.88184 16.2529 4.92747 16.2553 4.97203 16.2478C5.01658 16.2404 5.05899 16.2234 5.09635 16.198C5.1337 16.1726 5.1651 16.1394 5.1884 16.1007C5.88002 14.9525 6.37115 13.695 6.64074 12.382C6.67379 12.2195 6.77001 12.0769 6.90825 11.9854C7.04648 11.8939 7.2154 11.861 7.37785 11.8941C7.54029 11.9271 7.68296 12.0234 7.77445 12.1616C7.86595 12.2998 7.89879 12.4688 7.86574 12.6312C7.56353 14.1128 7.00657 15.5307 6.21965 16.8218C6.19745 16.8585 6.18305 16.8994 6.17735 16.9419C6.17164 16.9844 6.17474 17.0277 6.18647 17.0689C6.1982 17.1102 6.21829 17.1486 6.2455 17.1818C6.27272 17.2149 6.30646 17.2421 6.34465 17.2617C6.53761 17.3593 6.73527 17.4499 6.93605 17.5328C7.00538 17.5625 7.08311 17.5661 7.1549 17.543C7.2267 17.5199 7.28771 17.4716 7.32668 17.407C8.66887 15.1776 9.37714 12.6241 9.37511 10.0218C9.37351 9.86138 9.43245 9.70624 9.54019 9.58735C9.64793 9.46846 9.79654 9.39456 9.95636 9.38041C10.042 9.3744 10.128 9.38611 10.209 9.41482C10.2899 9.44353 10.3641 9.48861 10.4269 9.54726C10.4896 9.6059 10.5396 9.67685 10.5737 9.75568C10.6078 9.83451 10.6253 9.91952 10.6251 10.0054C10.6282 12.6624 9.95012 15.2758 8.65558 17.596C8.63066 17.6405 8.61699 17.6903 8.61574 17.7413C8.6145 17.7922 8.62573 17.8427 8.64845 17.8883C8.67118 17.9339 8.7047 17.9732 8.74612 18.0029C8.78753 18.0326 8.83557 18.0517 8.88605 18.0585C9.12303 18.0914 9.36287 18.1137 9.60558 18.1257C9.66393 18.1279 9.72172 18.1137 9.77239 18.0847C9.82307 18.0557 9.86461 18.0131 9.8923 17.9617C11.1916 15.5313 11.8726 12.8184 11.8751 10.0624C11.879 9.02729 11.0704 8.14916 10.0361 8.12963C9.78721 8.12486 9.53991 8.16968 9.30857 8.26148C9.07723 8.35327 8.86647 8.49021 8.6886 8.6643C8.51073 8.83839 8.3693 9.04615 8.27256 9.27546C8.17581 9.50478 8.12569 9.75106 8.12511 9.99995C8.12397 10.156 8.06519 10.3062 7.96006 10.4215C7.85493 10.5369 7.71088 10.6093 7.55558 10.6249C7.46897 10.6327 7.38169 10.6222 7.29934 10.5943C7.21699 10.5664 7.14137 10.5215 7.07733 10.4627C7.01328 10.4039 6.96222 10.3323 6.9274 10.2527C6.89258 10.173 6.87477 10.0869 6.87511 9.99995C6.87509 9.58679 6.957 9.17773 7.11609 8.79643C7.27518 8.41514 7.50831 8.06917 7.80198 7.77855C8.09564 7.48794 8.44402 7.25844 8.82696 7.10334C9.2099 6.94824 9.61979 6.87061 10.0329 6.87495C11.7517 6.89291 13.1329 8.3726 13.1243 10.0906C13.1167 12.6388 12.5704 15.1566 11.5212 17.4789C11.4974 17.5323 11.489 17.5915 11.4972 17.6494C11.5053 17.7074 11.5295 17.762 11.5672 17.8069C11.6048 17.8517 11.6543 17.8851 11.71 17.9033C11.7657 17.9214 11.8253 17.9235 11.8821 17.9093C12.1532 17.8451 12.4207 17.7668 12.6837 17.6749C12.7247 17.6604 12.7622 17.6375 12.7938 17.6076C12.8254 17.5777 12.8505 17.5416 12.8673 17.5015C13.2311 16.6393 13.5309 15.7515 13.7642 14.8453C13.7847 14.7657 13.8207 14.6911 13.8701 14.6255C13.9194 14.5598 13.9813 14.5046 14.052 14.4629C14.1227 14.4212 14.201 14.3938 14.2823 14.3823C14.3636 14.3709 14.4464 14.3755 14.5259 14.396C14.6054 14.4166 14.6801 14.4525 14.7457 14.5019C14.8113 14.5513 14.8665 14.6131 14.9083 14.6839C14.95 14.7546 14.9773 14.8329 14.9888 14.9142C15.0003 14.9955 14.9956 15.0782 14.9751 15.1578C14.9168 15.3854 14.8543 15.6119 14.7876 15.8374C14.768 15.9024 14.77 15.9719 14.7934 16.0356C14.8168 16.0993 14.8603 16.1536 14.9173 16.1904C14.9743 16.2272 15.0417 16.2444 15.1093 16.2395C15.177 16.2346 15.2412 16.2078 15.2923 16.1632C16.5592 15.0753 17.4602 13.6234 17.8725 12.0051C18.2848 10.3869 18.1885 8.6809 17.5966 7.11935C17.0048 5.5578 15.9461 4.21655 14.5648 3.27815C13.1834 2.33975 11.5464 1.84979 9.87668 1.87495ZM15.4689 12.5843C15.4499 12.7351 15.3766 12.8738 15.2627 12.9745C15.1488 13.0752 15.0021 13.1309 14.8501 13.1312C14.824 13.1312 14.7979 13.1296 14.772 13.1265C14.6905 13.1164 14.6119 13.0903 14.5405 13.0497C14.4691 13.0092 14.4064 12.9549 14.356 12.8902C14.3056 12.8254 14.2684 12.7513 14.2466 12.6721C14.2248 12.593 14.2188 12.5103 14.229 12.4289C14.3287 11.6254 14.3788 10.8166 14.379 10.007C14.3774 8.84716 13.9159 7.73532 13.0958 6.91521C12.2757 6.0951 11.1638 5.63363 10.004 5.63198C9.82121 5.6319 9.63857 5.64311 9.45715 5.66557C9.29252 5.68629 9.12642 5.64077 8.99536 5.53901C8.8643 5.43726 8.77904 5.28761 8.75832 5.12299C8.7376 4.95837 8.78312 4.79226 8.88487 4.66121C8.98663 4.53015 9.13627 4.44488 9.3009 4.42416C10.0928 4.32566 10.8966 4.39654 11.6591 4.63213C12.4216 4.86772 13.1253 5.26263 13.7236 5.7907C14.3219 6.31878 14.8012 6.96796 15.1297 7.69524C15.4582 8.42252 15.6284 9.21129 15.629 10.0093C15.6288 10.8701 15.5753 11.7301 15.4689 12.5843Z" fill="#191F2E"/>
</svg>
