<svg width="20" height="20" viewBox="0 0 20 20" fill="none" xmlns="http://www.w3.org/2000/svg">
<path d="M14.3749 10C14.3793 12.5254 13.8871 15.027 12.9265 17.3625C12.8799 17.4777 12.8 17.5764 12.697 17.646C12.594 17.7156 12.4727 17.7529 12.3484 17.7531C12.268 17.7524 12.1885 17.7365 12.114 17.7063C12.038 17.6751 11.9689 17.6292 11.9106 17.5713C11.8523 17.5134 11.806 17.4445 11.7744 17.3687C11.7428 17.2929 11.7264 17.2115 11.7262 17.1294C11.726 17.0472 11.7421 16.9658 11.7734 16.8898C12.6713 14.7041 13.1305 12.363 13.1249 10C13.1249 9.83425 13.1908 9.67527 13.308 9.55806C13.4252 9.44085 13.5842 9.37501 13.7499 9.37501C13.9157 9.37501 14.0747 9.44085 14.1919 9.55806C14.3091 9.67527 14.3749 9.83425 14.3749 10ZM9.99994 6.87501C10.4395 6.87531 10.8741 6.96821 11.2753 7.14764C11.6766 7.32707 12.0356 7.58902 12.3288 7.91641C12.3832 7.97906 12.4494 8.03028 12.5237 8.06708C12.598 8.10388 12.6789 8.12553 12.7616 8.13077C12.8444 8.13601 12.9273 8.12473 13.0057 8.09759C13.084 8.07046 13.1562 8.028 13.218 7.9727C13.2797 7.9174 13.3299 7.85037 13.3655 7.77549C13.4011 7.70062 13.4215 7.61941 13.4254 7.53659C13.4293 7.45377 13.4167 7.371 13.3883 7.29309C13.36 7.21519 13.3164 7.14371 13.2601 7.08282C12.6693 6.42265 11.892 5.9574 11.0311 5.7486C10.1701 5.5398 9.26604 5.5973 8.43846 5.91349C7.61089 6.22969 6.89881 6.78967 6.39643 7.51937C5.89404 8.24906 5.62501 9.11409 5.62494 10C5.62486 11.7996 5.16788 13.5698 4.29682 15.1445C4.25701 15.2164 4.23174 15.2953 4.22245 15.3769C4.21315 15.4585 4.22002 15.5411 4.24265 15.62C4.26529 15.6989 4.30325 15.7726 4.35436 15.8369C4.40548 15.9012 4.46875 15.9547 4.54057 15.9945C4.61239 16.0343 4.69134 16.0596 4.77292 16.0689C4.85451 16.0782 4.93712 16.0713 5.01605 16.0487C5.09498 16.0261 5.16868 15.9881 5.23294 15.937C5.2972 15.8859 5.35076 15.8226 5.39057 15.7508C6.36404 13.9904 6.87477 12.0117 6.87494 10C6.87494 9.1712 7.20418 8.37635 7.79023 7.7903C8.37629 7.20425 9.17114 6.87501 9.99994 6.87501ZM9.99994 1.87501C9.07734 1.8739 8.16131 2.03031 7.29135 2.33751C7.13786 2.39489 7.01304 2.51027 6.94379 2.65879C6.87453 2.8073 6.86637 2.97708 6.92107 3.13155C6.97578 3.28602 7.08896 3.41283 7.23624 3.48467C7.38353 3.55651 7.55313 3.56763 7.70854 3.51563C8.74569 3.14992 9.85542 3.03822 10.9447 3.18987C12.0339 3.34153 13.0709 3.75213 13.9687 4.38725C14.8665 5.02236 15.599 5.86348 16.1046 6.84007C16.6103 7.81667 16.8745 8.90026 16.8749 10C16.8757 11.6357 16.6938 13.2664 16.3328 14.8617C16.296 15.023 16.3248 15.1923 16.4126 15.3324C16.5005 15.4726 16.6403 15.5722 16.8015 15.6094C16.8471 15.6199 16.8938 15.6252 16.9406 15.625C17.0823 15.625 17.2198 15.5768 17.3305 15.4884C17.4412 15.3999 17.5186 15.2765 17.5499 15.1383C17.9317 13.4522 18.1246 11.7288 18.1249 10C18.1227 7.84582 17.2659 5.78052 15.7427 4.25728C14.2194 2.73404 12.1541 1.87728 9.99994 1.87501ZM5.41713 4.87657C5.47833 4.82183 5.52815 4.75558 5.56374 4.68159C5.59933 4.60761 5.62001 4.52733 5.62458 4.44536C5.62915 4.36338 5.61753 4.2813 5.59038 4.20382C5.56323 4.12633 5.52108 4.05495 5.46635 3.99376C5.41161 3.93256 5.34536 3.88274 5.27138 3.84715C5.19739 3.81155 5.11711 3.79088 5.03514 3.78631C4.95316 3.78174 4.87109 3.79336 4.7936 3.82051C4.71611 3.84766 4.64474 3.8898 4.58354 3.94454C3.73211 4.70706 3.05087 5.64039 2.58419 6.68374C2.1175 7.72709 1.87584 8.85704 1.87494 10C1.87669 10.9887 1.66343 11.966 1.24994 12.8641C1.21568 12.9387 1.19644 13.0193 1.19332 13.1013C1.19021 13.1833 1.20328 13.2651 1.23179 13.3421C1.28937 13.4976 1.40634 13.6238 1.55698 13.693C1.70761 13.7622 1.87957 13.7687 2.03502 13.7111C2.19047 13.6536 2.31668 13.5366 2.38588 13.3859C2.87484 12.3242 3.12702 11.1689 3.12494 10C3.12577 9.03293 3.33032 8.07687 3.72526 7.19411C4.1202 6.31135 4.69667 5.52169 5.41713 4.87657ZM8.89994 15.6828C8.82536 15.6485 8.74475 15.6293 8.66273 15.6262C8.5807 15.6231 8.49887 15.6361 8.4219 15.6646C8.34492 15.6932 8.27432 15.7366 8.21412 15.7923C8.15392 15.8481 8.1053 15.9153 8.07104 15.9898C7.92104 16.318 7.75854 16.6453 7.57963 16.9617C7.53967 17.0336 7.51427 17.1126 7.50489 17.1943C7.49551 17.2759 7.50234 17.3587 7.52499 17.4377C7.54763 17.5167 7.58564 17.5905 7.63684 17.6548C7.68805 17.7191 7.75144 17.7727 7.82338 17.8125C7.91577 17.8641 8.0199 17.891 8.12572 17.8906C8.23731 17.8907 8.34688 17.8609 8.44305 17.8043C8.53922 17.7477 8.61848 17.6663 8.6726 17.5688C8.86322 17.2242 9.04291 16.8656 9.20697 16.5125C9.24137 16.4379 9.26071 16.3572 9.26389 16.2751C9.26707 16.193 9.25403 16.1111 9.22551 16.034C9.19699 15.9569 9.15356 15.8862 9.09769 15.826C9.04183 15.7657 8.97463 15.7171 8.89994 15.6828ZM9.99994 9.37501C9.83418 9.37501 9.67521 9.44085 9.558 9.55806C9.44079 9.67527 9.37494 9.83425 9.37494 10C9.3754 11.2121 9.22343 12.4195 8.9226 13.5938C8.88131 13.7542 8.90544 13.9245 8.98967 14.0672C9.07391 14.2099 9.21137 14.3133 9.37182 14.3547C9.42289 14.3677 9.47538 14.3742 9.52807 14.3742C9.66655 14.3741 9.80107 14.328 9.91052 14.2432C10.02 14.1583 10.0981 14.0396 10.1328 13.9055C10.4603 12.6292 10.6257 11.3168 10.6249 9.99922C10.6247 9.8336 10.5588 9.67483 10.4416 9.55779C10.3244 9.44075 10.1656 9.37501 9.99994 9.37501Z" fill="#191F2E"/>
</svg>
