<svg width="20" height="20" viewBox="0 0 20 20" fill="none" xmlns="http://www.w3.org/2000/svg">
<path d="M12.5 6.875H7.5C6.42256 6.875 5.38925 7.30301 4.62738 8.06488C3.86551 8.82675 3.4375 9.86006 3.4375 10.9375C3.4375 12.0149 3.86551 13.0483 4.62738 13.8101C5.38925 14.572 6.42256 15 7.5 15H12.5C13.5774 15 14.6108 14.572 15.3726 13.8101C16.1345 13.0483 16.5625 12.0149 16.5625 10.9375C16.5625 9.86006 16.1345 8.82675 15.3726 8.06488C14.6108 7.30301 13.5774 6.875 12.5 6.875ZM12.5 13.125H7.5C6.91984 13.125 6.36344 12.8945 5.9532 12.4843C5.54297 12.0741 5.3125 11.5177 5.3125 10.9375C5.3125 10.3573 5.54297 9.80094 5.9532 9.3907C6.36344 8.98047 6.91984 8.75 7.5 8.75H12.5C13.0802 8.75 13.6366 8.98047 14.0468 9.3907C14.457 9.80094 14.6875 10.3573 14.6875 10.9375C14.6875 11.5177 14.457 12.0741 14.0468 12.4843C13.6366 12.8945 13.0802 13.125 12.5 13.125ZM8.75 10.9375C8.75 11.1847 8.67669 11.4264 8.53934 11.632C8.40199 11.8375 8.20676 11.9977 7.97835 12.0924C7.74995 12.187 7.49861 12.2117 7.25614 12.1635C7.01366 12.1153 6.79093 11.9962 6.61612 11.8214C6.4413 11.6466 6.32225 11.4238 6.27402 11.1814C6.22579 10.9389 6.25054 10.6876 6.34515 10.4591C6.43976 10.2307 6.59998 10.0355 6.80554 9.89816C7.0111 9.76081 7.25277 9.6875 7.5 9.6875C7.83152 9.6875 8.14946 9.8192 8.38388 10.0536C8.6183 10.288 8.75 10.606 8.75 10.9375ZM13.75 10.9375C13.75 11.1847 13.6767 11.4264 13.5393 11.632C13.402 11.8375 13.2068 11.9977 12.9784 12.0924C12.7499 12.187 12.4986 12.2117 12.2561 12.1635C12.0137 12.1153 11.7909 11.9962 11.6161 11.8214C11.4413 11.6466 11.3222 11.4238 11.274 11.1814C11.2258 10.9389 11.2505 10.6876 11.3451 10.4591C11.4398 10.2307 11.6 10.0355 11.8055 9.89816C12.0111 9.76081 12.2528 9.6875 12.5 9.6875C12.8315 9.6875 13.1495 9.8192 13.3839 10.0536C13.6183 10.288 13.75 10.606 13.75 10.9375ZM16.5625 2.1875C15.9809 2.18752 15.4136 2.36784 14.9388 2.70363C14.4639 3.03942 14.1048 3.51417 13.9109 4.0625H6.08906C5.86787 3.43705 5.4327 2.90992 4.86046 2.57428C4.28822 2.23863 3.61575 2.11607 2.96189 2.22825C2.30804 2.34044 1.71488 2.68015 1.28725 3.18735C0.859628 3.69455 0.625059 4.33659 0.625 5V10.9375C0.627068 12.7602 1.35206 14.5077 2.64092 15.7966C3.92979 17.0854 5.67727 17.8104 7.5 17.8125H12.5C14.3227 17.8104 16.0702 17.0854 17.3591 15.7966C18.6479 14.5077 19.3729 12.7602 19.375 10.9375V5C19.375 4.25408 19.0787 3.53871 18.5512 3.01126C18.0238 2.48382 17.3084 2.1875 16.5625 2.1875ZM17.5 10.9375C17.4986 12.2631 16.9713 13.5341 16.0339 14.4714C15.0966 15.4088 13.8256 15.9361 12.5 15.9375H7.5C6.17436 15.9361 4.90343 15.4088 3.96606 14.4714C3.0287 13.5341 2.50145 12.2631 2.5 10.9375V5C2.5 4.75136 2.59877 4.5129 2.77459 4.33709C2.9504 4.16127 3.18886 4.0625 3.4375 4.0625C3.68614 4.0625 3.9246 4.16127 4.10041 4.33709C4.27623 4.5129 4.375 4.75136 4.375 5C4.375 5.24864 4.47377 5.4871 4.64959 5.66291C4.8254 5.83873 5.06386 5.9375 5.3125 5.9375H14.6875C14.9361 5.9375 15.1746 5.83873 15.3504 5.66291C15.5262 5.4871 15.625 5.24864 15.625 5C15.625 4.75136 15.7238 4.5129 15.8996 4.33709C16.0754 4.16127 16.3139 4.0625 16.5625 4.0625C16.8111 4.0625 17.0496 4.16127 17.2254 4.33709C17.4012 4.5129 17.5 4.75136 17.5 5V10.9375Z" fill="#191F2E"/>
</svg>
