<svg width="20" height="20" viewBox="0 0 20 20" fill="none" xmlns="http://www.w3.org/2000/svg">
<path d="M13.75 10.9375C13.75 11.123 13.695 11.3042 13.592 11.4584C13.489 11.6126 13.3426 11.7327 13.1713 11.8037C13 11.8746 12.8115 11.8932 12.6296 11.857C12.4478 11.8209 12.2807 11.7316 12.1496 11.6005C12.0185 11.4693 11.9292 11.3023 11.893 11.1204C11.8568 10.9386 11.8754 10.7501 11.9464 10.5788C12.0173 10.4075 12.1375 10.2611 12.2917 10.158C12.4458 10.055 12.6271 10 12.8125 10C13.0611 10 13.2996 10.0988 13.4754 10.2746C13.6512 10.4504 13.75 10.6889 13.75 10.9375ZM7.1875 10C7.00208 10 6.82083 10.055 6.66666 10.158C6.51249 10.2611 6.39232 10.4075 6.32137 10.5788C6.25041 10.7501 6.23184 10.9386 6.26802 11.1204C6.30419 11.3023 6.39348 11.4693 6.52459 11.6005C6.6557 11.7316 6.82275 11.8209 7.00461 11.857C7.18646 11.8932 7.37496 11.8746 7.54627 11.8037C7.71758 11.7327 7.86399 11.6126 7.96701 11.4584C8.07002 11.3042 8.125 11.123 8.125 10.9375C8.125 10.6889 8.02623 10.4504 7.85042 10.2746C7.6746 10.0988 7.43615 10 7.1875 10ZM18.75 5.00004V11.25C18.7484 12.7414 18.1552 14.1712 17.1007 15.2257C16.0461 16.2802 14.6163 16.8734 13.125 16.875H6.875C5.38367 16.8734 3.95389 16.2802 2.89936 15.2257C1.84482 14.1712 1.25166 12.7414 1.25 11.25V5.00004C1.24881 4.3907 1.47019 3.8019 1.87256 3.34429C2.27493 2.88669 2.83058 2.5918 3.43507 2.51504C4.03956 2.43828 4.65127 2.58494 5.15524 2.92745C5.65922 3.26996 6.02074 3.78474 6.17188 4.37504H13.8281C13.9793 3.78474 14.3408 3.26996 14.8448 2.92745C15.3487 2.58494 15.9605 2.43828 16.5649 2.51504C17.1694 2.5918 17.7251 2.88669 18.1274 3.34429C18.5298 3.8019 18.7512 4.3907 18.75 5.00004ZM15.625 10.625C15.625 9.962 15.3616 9.32612 14.8928 8.85728C14.4239 8.38844 13.788 8.12504 13.125 8.12504H6.875C6.21196 8.12504 5.57608 8.38844 5.10724 8.85728C4.6384 9.32612 4.375 9.962 4.375 10.625V11.25C4.375 11.9131 4.6384 12.549 5.10724 13.0178C5.57608 13.4867 6.21196 13.75 6.875 13.75H13.125C13.788 13.75 14.4239 13.4867 14.8928 13.0178C15.3616 12.549 15.625 11.9131 15.625 11.25V10.625Z" fill="#191F2E"/>
</svg>
