<svg width="20" height="20" viewBox="0 0 20 20" fill="none" xmlns="http://www.w3.org/2000/svg">
<path d="M13.125 7.50004H6.875C6.0462 7.50004 5.25135 7.82928 4.6653 8.41534C4.07924 9.00139 3.75 9.79624 3.75 10.625V11.25C3.75 11.6604 3.83084 12.0668 3.98788 12.4459C4.14493 12.8251 4.37511 13.1696 4.6653 13.4598C5.25135 14.0458 6.0462 14.375 6.875 14.375H13.125C13.5354 14.375 13.9417 14.2942 14.3209 14.1372C14.7 13.9801 15.0445 13.7499 15.3347 13.4598C15.6249 13.1696 15.8551 12.8251 16.0121 12.4459C16.1692 12.0668 16.25 11.6604 16.25 11.25V10.625C16.25 9.79624 15.9208 9.00139 15.3347 8.41534C14.7487 7.82928 13.9538 7.50004 13.125 7.50004ZM15 11.25C15 11.7473 14.8025 12.2242 14.4508 12.5759C14.0992 12.9275 13.6223 13.125 13.125 13.125H6.875C6.37772 13.125 5.90081 12.9275 5.54918 12.5759C5.19755 12.2242 5 11.7473 5 11.25V10.625C5 10.1278 5.19755 9.65085 5.54918 9.29922C5.90081 8.94759 6.37772 8.75004 6.875 8.75004H13.125C13.6223 8.75004 14.0992 8.94759 14.4508 9.29922C14.8025 9.65085 15 10.1278 15 10.625V11.25ZM16.25 2.50004C15.6958 2.50057 15.1573 2.68492 14.7191 3.02421C14.2808 3.36351 13.9675 3.83859 13.8281 4.37504H6.17188C6.02074 3.78474 5.65922 3.26996 5.15524 2.92745C4.65127 2.58494 4.03956 2.43828 3.43507 2.51504C2.83058 2.5918 2.27493 2.88669 1.87256 3.34429C1.47019 3.8019 1.24881 4.3907 1.25 5.00004V11.25C1.25166 12.7414 1.84482 14.1712 2.89936 15.2257C3.95389 16.2802 5.38367 16.8734 6.875 16.875H13.125C14.6163 16.8734 16.0461 16.2802 17.1007 15.2257C18.1552 14.1712 18.7483 12.7414 18.75 11.25V5.00004C18.75 4.337 18.4866 3.70112 18.0178 3.23228C17.5489 2.76344 16.913 2.50004 16.25 2.50004ZM17.5 11.25C17.4988 12.41 17.0374 13.5221 16.2172 14.3423C15.397 15.1625 14.2849 15.6238 13.125 15.625H6.875C5.71506 15.6238 4.60299 15.1625 3.78278 14.3423C2.96258 13.5221 2.50125 12.41 2.5 11.25V5.00004C2.5 4.66852 2.6317 4.35058 2.86612 4.11616C3.10054 3.88174 3.41848 3.75004 3.75 3.75004C4.08153 3.75004 4.39947 3.88174 4.63389 4.11616C4.86831 4.35058 5 4.66852 5 5.00004C5 5.1658 5.06585 5.32478 5.18306 5.44199C5.30027 5.5592 5.45924 5.62504 5.625 5.62504H14.375C14.5408 5.62504 14.6997 5.5592 14.8169 5.44199C14.9342 5.32478 15 5.1658 15 5.00004C15 4.66852 15.1317 4.35058 15.3661 4.11616C15.6005 3.88174 15.9185 3.75004 16.25 3.75004C16.5815 3.75004 16.8995 3.88174 17.1339 4.11616C17.3683 4.35058 17.5 4.66852 17.5 5.00004V11.25ZM8.125 10.9375C8.125 11.123 8.07002 11.3042 7.96701 11.4584C7.86399 11.6126 7.71758 11.7327 7.54627 11.8037C7.37496 11.8746 7.18646 11.8932 7.00461 11.857C6.82275 11.8209 6.6557 11.7316 6.52459 11.6005C6.39348 11.4693 6.30419 11.3023 6.26802 11.1204C6.23184 10.9386 6.25041 10.7501 6.32137 10.5788C6.39232 10.4075 6.51249 10.2611 6.66666 10.158C6.82083 10.055 7.00208 10 7.1875 10C7.43614 10 7.6746 10.0988 7.85042 10.2746C8.02623 10.4504 8.125 10.6889 8.125 10.9375ZM13.75 10.9375C13.75 11.123 13.695 11.3042 13.592 11.4584C13.489 11.6126 13.3426 11.7327 13.1713 11.8037C13 11.8746 12.8115 11.8932 12.6296 11.857C12.4478 11.8209 12.2807 11.7316 12.1496 11.6005C12.0185 11.4693 11.9292 11.3023 11.893 11.1204C11.8568 10.9386 11.8754 10.7501 11.9464 10.5788C12.0173 10.4075 12.1375 10.2611 12.2917 10.158C12.4458 10.055 12.6271 10 12.8125 10C13.0611 10 13.2996 10.0988 13.4754 10.2746C13.6512 10.4504 13.75 10.6889 13.75 10.9375Z" fill="#191F2E"/>
</svg>
