<svg width="20" height="20" viewBox="0 0 20 20" fill="none" xmlns="http://www.w3.org/2000/svg">
<path d="M14.3664 11.9798C14.2043 12.885 13.7688 13.7189 13.1185 14.3691C12.4681 15.0193 11.6342 15.4547 10.7289 15.6165C10.6945 15.622 10.6598 15.6249 10.625 15.6251C10.4682 15.6251 10.3172 15.5661 10.2018 15.4599C10.0865 15.3538 10.0153 15.2081 10.0023 15.0519C9.98933 14.8956 10.0355 14.7402 10.1318 14.6165C10.228 14.4927 10.3673 14.4096 10.5219 14.3837C11.8164 14.1657 12.9148 13.0673 13.1344 11.7704C13.1621 11.6069 13.2537 11.4612 13.3889 11.3652C13.5242 11.2693 13.692 11.2309 13.8555 11.2587C14.019 11.2865 14.1647 11.378 14.2607 11.5133C14.3566 11.6485 14.395 11.8163 14.3672 11.9798H14.3664ZM16.875 11.2501C16.875 13.0735 16.1507 14.8222 14.8614 16.1115C13.572 17.4008 11.8234 18.1251 10 18.1251C8.17664 18.1251 6.42795 17.4008 5.13864 16.1115C3.84933 14.8222 3.125 13.0735 3.125 11.2501C3.125 9.06887 3.98438 6.8384 5.67656 4.62121C5.73013 4.55101 5.79796 4.49295 5.87559 4.45086C5.95323 4.40878 6.0389 4.38362 6.12696 4.37705C6.21502 4.37048 6.30347 4.38265 6.38649 4.41275C6.46951 4.44285 6.54521 4.4902 6.60859 4.55168L8.49297 6.38059L10.2117 1.66106C10.2461 1.56693 10.3025 1.48243 10.3764 1.41469C10.4502 1.34696 10.5392 1.29797 10.636 1.27185C10.7327 1.24573 10.8343 1.24326 10.9322 1.26463C11.0301 1.286 11.1214 1.33059 11.1984 1.39465C12.907 2.81262 16.875 6.60559 16.875 11.2501ZM15.625 11.2501C15.625 7.64934 12.8289 4.53762 11.0773 2.94309L9.3375 7.71418C9.30179 7.81217 9.24213 7.89967 9.16395 7.9687C9.08577 8.03773 8.99155 8.0861 8.88989 8.1094C8.78823 8.1327 8.68236 8.13019 8.58192 8.10209C8.48148 8.074 8.38966 8.02122 8.31484 7.94855L6.25469 5.95012C5.00703 7.7509 4.375 9.53137 4.375 11.2501C4.375 12.742 4.96763 14.1727 6.02252 15.2276C7.07742 16.2825 8.50816 16.8751 10 16.8751C11.4918 16.8751 12.9226 16.2825 13.9775 15.2276C15.0324 14.1727 15.625 12.742 15.625 11.2501Z" fill="#191F2E"/>
</svg>
