<svg width="20" height="20" viewBox="0 0 20 20" fill="none" xmlns="http://www.w3.org/2000/svg">
<path d="M17.1445 3.47713L13.2867 2.3201L14.4531 1.7912C14.6795 1.6876 14.8554 1.49832 14.9422 1.26499C15.029 1.03167 15.0196 0.773422 14.916 0.547056C14.8647 0.43497 14.7918 0.334086 14.7016 0.250164C14.6113 0.166241 14.5053 0.100924 14.3898 0.0579403C14.1565 -0.0288685 13.8982 -0.0194352 13.6719 0.084165L10.4078 1.56854C8.70691 1.62662 7.09493 2.34251 5.91134 3.56544C4.72776 4.78838 4.06495 6.4229 4.0625 8.12479V16.2498C4.0625 16.4984 4.16127 16.7369 4.33709 16.9127C4.5129 17.0885 4.75136 17.1873 5 17.1873C5.24864 17.1873 5.4871 17.0885 5.66291 16.9127C5.83873 16.7369 5.9375 16.4984 5.9375 16.2498V14.0623H7.1875V18.1248C7.1875 18.5392 7.35212 18.9366 7.64515 19.2296C7.93817 19.5227 8.3356 19.6873 8.75 19.6873H12.5C12.9144 19.6873 13.3118 19.5227 13.6049 19.2296C13.8979 18.9366 14.0625 18.5392 14.0625 18.1248V8.12479C14.0613 7.37698 13.8167 6.6499 13.3656 6.05342C12.9146 5.45693 12.2817 5.02347 11.5625 4.81854V3.75995L16.6055 5.27323C16.6929 5.29951 16.7837 5.31267 16.875 5.31229C17.0999 5.31208 17.3172 5.23104 17.4873 5.08395C17.6574 4.93686 17.769 4.73352 17.8017 4.51102C17.8344 4.28852 17.786 4.06169 17.6653 3.8719C17.5447 3.6821 17.3599 3.542 17.1445 3.47713ZM5.9375 12.1873V8.12479C5.93893 7.0447 6.31269 5.99813 6.99578 5.16148C7.67887 4.32483 8.62953 3.74928 9.6875 3.53182V4.81854C8.96819 5.02324 8.33512 5.45665 7.88405 6.05318C7.43299 6.64971 7.18847 7.37692 7.1875 8.12479V12.1873H5.9375ZM9.0625 17.8123V14.0623H12.1875V17.8123H9.0625ZM12.1875 8.12479V12.1873H9.0625V8.12479C9.0625 7.71039 9.22712 7.31296 9.52015 7.01994C9.81317 6.72691 10.2106 6.56229 10.625 6.56229C11.0394 6.56229 11.4368 6.72691 11.7299 7.01994C12.0229 7.31296 12.1875 7.71039 12.1875 8.12479Z" fill="#191F2E"/>
</svg>
