<svg width="20" height="20" viewBox="0 0 20 20" fill="none" xmlns="http://www.w3.org/2000/svg">
<path d="M17.0547 3.77652L12.3141 2.35464L14.6578 1.18277C14.8059 1.10818 14.9182 0.97783 14.9701 0.820402C15.0221 0.662974 15.0094 0.491361 14.9348 0.343316C14.8602 0.195271 14.7298 0.0829219 14.5724 0.0309832C14.415 -0.0209556 14.2434 -0.00822911 14.0953 0.066363L10.4688 1.87886C8.8389 1.92121 7.28996 2.59814 6.15177 3.76551C5.01359 4.93288 4.37608 6.49846 4.375 8.12886V16.25C4.375 16.4157 4.44085 16.5747 4.55806 16.6919C4.67527 16.8091 4.83424 16.875 5 16.875C5.16576 16.875 5.32473 16.8091 5.44194 16.6919C5.55915 16.5747 5.625 16.4157 5.625 16.25V13.75H6.875V18.125C6.875 18.4565 7.0067 18.7744 7.24112 19.0088C7.47554 19.2433 7.79348 19.375 8.125 19.375H13.125C13.4565 19.375 13.7745 19.2433 14.0089 19.0088C14.2433 18.7744 14.375 18.4565 14.375 18.125V8.12496C14.3738 7.23917 14.0594 6.38233 13.4876 5.70585C12.9158 5.02937 12.1232 4.57679 11.25 4.42808V3.3398L16.6953 4.97339C16.7745 4.99919 16.8581 5.0089 16.9411 5.00194C17.0241 4.99498 17.1049 4.97151 17.1787 4.93289C17.2525 4.89427 17.3178 4.84128 17.3708 4.77705C17.4239 4.71282 17.4635 4.63864 17.4875 4.55886C17.5114 4.47908 17.5192 4.39532 17.5103 4.3125C17.5014 4.22968 17.4761 4.14947 17.4358 4.07658C17.3955 4.0037 17.341 3.9396 17.2755 3.88808C17.2101 3.83655 17.135 3.79862 17.0547 3.77652ZM5.625 12.5V8.12496C5.62652 6.90769 6.07155 5.73269 6.87683 4.81985C7.68211 3.90701 8.79243 3.3189 10 3.16558V4.42808C9.12678 4.57679 8.33423 5.02937 7.7624 5.70585C7.19056 6.38233 6.87625 7.23917 6.875 8.12496V12.5H5.625ZM13.125 8.12496V12.5H8.125V8.12496C8.125 7.46192 8.38839 6.82603 8.85723 6.35719C9.32607 5.88835 9.96196 5.62496 10.625 5.62496C11.288 5.62496 11.9239 5.88835 12.3928 6.35719C12.8616 6.82603 13.125 7.46192 13.125 8.12496Z" fill="#191F2E"/>
</svg>
