<svg width="20" height="20" viewBox="0 0 20 20" fill="none" xmlns="http://www.w3.org/2000/svg">
<path d="M11.2016 1.39465C11.1245 1.33059 11.0332 1.286 10.9353 1.26463C10.8374 1.24326 10.7358 1.24573 10.6391 1.27185C10.5424 1.29797 10.4533 1.34696 10.3795 1.41469C10.3056 1.48243 10.2492 1.56693 10.2148 1.66106L8.49609 6.38059L6.60859 4.55168C6.54521 4.4902 6.46951 4.44285 6.38649 4.41275C6.30347 4.38265 6.21502 4.37048 6.12696 4.37705C6.0389 4.38362 5.95323 4.40878 5.87559 4.45086C5.79796 4.49295 5.73013 4.55101 5.67656 4.62121C3.98438 6.8384 3.125 9.06887 3.125 11.2501C3.125 13.0735 3.84933 14.8222 5.13864 16.1115C6.42795 17.4008 8.17664 18.1251 10 18.1251C11.8234 18.1251 13.572 17.4008 14.8614 16.1115C16.1507 14.8222 16.875 13.0735 16.875 11.2501C16.875 6.60559 12.907 2.81262 11.2016 1.39465Z" fill="#191F2E"/>
</svg>
