<svg width="20" height="20" viewBox="0 0 20 20" fill="none" xmlns="http://www.w3.org/2000/svg">
<path d="M16.875 6.875H13.125V3.125C13.125 2.79348 12.9933 2.47554 12.7589 2.24112C12.5245 2.0067 12.2065 1.875 11.875 1.875H8.125C7.79348 1.875 7.47554 2.0067 7.24112 2.24112C7.0067 2.47554 6.875 2.79348 6.875 3.125V6.875H3.125C2.79348 6.875 2.47554 7.0067 2.24112 7.24112C2.0067 7.47554 1.875 7.79348 1.875 8.125V11.875C1.875 12.2065 2.0067 12.5245 2.24112 12.7589C2.47554 12.9933 2.79348 13.125 3.125 13.125H6.875V16.875C6.875 17.2065 7.0067 17.5245 7.24112 17.7589C7.47554 17.9933 7.79348 18.125 8.125 18.125H11.875C12.2065 18.125 12.5245 17.9933 12.7589 17.7589C12.9933 17.5245 13.125 17.2065 13.125 16.875V13.125H16.875C17.2065 13.125 17.5245 12.9933 17.7589 12.7589C17.9933 12.5245 18.125 12.2065 18.125 11.875V8.125C18.125 7.79348 17.9933 7.47554 17.7589 7.24112C17.5245 7.0067 17.2065 6.875 16.875 6.875ZM16.875 11.875H12.5C12.3342 11.875 12.1753 11.9408 12.0581 12.0581C11.9408 12.1753 11.875 12.3342 11.875 12.5V16.875H8.125V12.5C8.125 12.3342 8.05915 12.1753 7.94194 12.0581C7.82473 11.9408 7.66576 11.875 7.5 11.875H3.125V8.125H7.5C7.66576 8.125 7.82473 8.05915 7.94194 7.94194C8.05915 7.82473 8.125 7.66576 8.125 7.5V3.125H11.875V7.5C11.875 7.66576 11.9408 7.82473 12.0581 7.94194C12.1753 8.05915 12.3342 8.125 12.5 8.125H16.875V11.875Z" fill="#191F2E"/>
</svg>
