<svg width="20" height="20" viewBox="0 0 20 20" fill="none" xmlns="http://www.w3.org/2000/svg">
<path d="M16.875 6.5625H13.4375V3.125C13.4375 2.7106 13.2729 2.31317 12.9799 2.02015C12.6868 1.72712 12.2894 1.5625 11.875 1.5625H8.125C7.7106 1.5625 7.31317 1.72712 7.02015 2.02015C6.72712 2.31317 6.5625 2.7106 6.5625 3.125V6.5625H3.125C2.7106 6.5625 2.31317 6.72712 2.02015 7.02015C1.72712 7.31317 1.5625 7.7106 1.5625 8.125V11.875C1.5625 12.2894 1.72712 12.6868 2.02015 12.9799C2.31317 13.2729 2.7106 13.4375 3.125 13.4375H6.5625V16.875C6.5625 17.2894 6.72712 17.6868 7.02015 17.9799C7.31317 18.2729 7.7106 18.4375 8.125 18.4375H11.875C12.2894 18.4375 12.6868 18.2729 12.9799 17.9799C13.2729 17.6868 13.4375 17.2894 13.4375 16.875V13.4375H16.875C17.2894 13.4375 17.6868 13.2729 17.9799 12.9799C18.2729 12.6868 18.4375 12.2894 18.4375 11.875V8.125C18.4375 7.7106 18.2729 7.31317 17.9799 7.02015C17.6868 6.72712 17.2894 6.5625 16.875 6.5625ZM16.5625 11.5625H12.5C12.2514 11.5625 12.0129 11.6613 11.8371 11.8371C11.6613 12.0129 11.5625 12.2514 11.5625 12.5V16.5625H8.4375V12.5C8.4375 12.2514 8.33873 12.0129 8.16291 11.8371C7.9871 11.6613 7.74864 11.5625 7.5 11.5625H3.4375V8.4375H7.5C7.74864 8.4375 7.9871 8.33873 8.16291 8.16291C8.33873 7.9871 8.4375 7.74864 8.4375 7.5V3.4375H11.5625V7.5C11.5625 7.74864 11.6613 7.9871 11.8371 8.16291C12.0129 8.33873 12.2514 8.4375 12.5 8.4375H16.5625V11.5625Z" fill="#191F2E"/>
</svg>
