<svg width="20" height="20" viewBox="0 0 20 20" fill="none" xmlns="http://www.w3.org/2000/svg">
<path d="M18.125 8.125V11.875C18.125 12.2065 17.9933 12.5245 17.7589 12.7589C17.5245 12.9933 17.2065 13.125 16.875 13.125H13.125V16.875C13.125 17.2065 12.9933 17.5245 12.7589 17.7589C12.5245 17.9933 12.2065 18.125 11.875 18.125H8.125C7.79348 18.125 7.47554 17.9933 7.24112 17.7589C7.0067 17.5245 6.875 17.2065 6.875 16.875V13.125H3.125C2.79348 13.125 2.47554 12.9933 2.24112 12.7589C2.0067 12.5245 1.875 12.2065 1.875 11.875V8.125C1.875 7.79348 2.0067 7.47554 2.24112 7.24112C2.47554 7.0067 2.79348 6.875 3.125 6.875H6.875V3.125C6.875 2.79348 7.0067 2.47554 7.24112 2.24112C7.47554 2.0067 7.79348 1.875 8.125 1.875H11.875C12.2065 1.875 12.5245 2.0067 12.7589 2.24112C12.9933 2.47554 13.125 2.79348 13.125 3.125V6.875H16.875C17.2065 6.875 17.5245 7.0067 17.7589 7.24112C17.9933 7.47554 18.125 7.79348 18.125 8.125Z" fill="#191F2E"/>
</svg>
