<svg width="20" height="20" viewBox="0 0 20 20" fill="none" xmlns="http://www.w3.org/2000/svg">
<path d="M13.4375 5.93739C13.4375 6.18462 13.3642 6.42629 13.2268 6.63185C13.0895 6.83742 12.8943 6.99763 12.6658 7.09224C12.4374 7.18685 12.1861 7.21161 11.9436 7.16337C11.7012 7.11514 11.4784 6.99609 11.3036 6.82127C11.1288 6.64646 11.0097 6.42373 10.9615 6.18125C10.9133 5.93878 10.938 5.68745 11.0326 5.45904C11.1273 5.23063 11.2875 5.03541 11.493 4.89806C11.6986 4.7607 11.9403 4.68739 12.1875 4.68739C12.519 4.68739 12.837 4.81909 13.0714 5.05351C13.3058 5.28793 13.4375 5.60587 13.4375 5.93739ZM18.4094 6.98817C18.2695 9.17567 17.6219 11.014 16.4844 12.4569C14.8328 14.5554 12.2312 15.714 8.74531 15.9069L7.10937 19.453C7.03468 19.616 6.91484 19.7541 6.76405 19.851C6.61326 19.9479 6.43784 19.9996 6.25859 19.9999C6.23723 19.9999 6.21614 19.9999 6.19531 19.9999C6.00609 19.9871 5.82519 19.9173 5.6765 19.7995C5.52782 19.6818 5.41833 19.5218 5.36249 19.3405L4.25625 15.7468L0.662495 14.6382C0.481071 14.5823 0.320896 14.4726 0.20316 14.3237C0.0854246 14.1747 0.0156769 13.9936 0.00314422 13.8041C-0.00938849 13.6147 0.0358844 13.4259 0.132974 13.2628C0.230063 13.0997 0.374393 12.9698 0.54687 12.8905L4.09375 11.2561C4.28515 7.76864 5.44531 5.16708 7.54374 3.51552C8.98828 2.37802 10.825 1.73114 13.0125 1.59052C14.3248 1.51112 15.6418 1.60675 16.9289 1.87489C17.222 1.93842 17.4907 2.08499 17.7028 2.29709C17.9149 2.50918 18.0615 2.77784 18.125 3.07099C18.3932 4.3583 18.4889 5.67561 18.4094 6.98817ZM11.8383 13.4569C11.5216 13.2684 11.2296 13.0414 10.9687 12.7811C10.2904 12.1044 9.85381 11.2231 9.72656 10.2733C8.77683 10.1461 7.89548 9.70952 7.21874 9.03114C6.95888 8.77032 6.73241 8.47824 6.54453 8.16161C6.17994 9.22828 5.97942 10.4702 5.94296 11.8874C5.93857 12.0629 5.88498 12.2337 5.78829 12.3802C5.69161 12.5267 5.55571 12.6432 5.39609 12.7163L3.55546 13.5655L5.28203 14.0983C5.42802 14.1434 5.56079 14.2235 5.66877 14.3316C5.77675 14.4397 5.85666 14.5726 5.90156 14.7186L6.43281 16.4444L7.28359 14.6015C7.35669 14.4418 7.47314 14.3059 7.61969 14.2093C7.76623 14.1126 7.93698 14.059 8.11249 14.0546C9.52708 14.0228 10.769 13.8236 11.8383 13.4569ZM16.3336 3.6663C15.1844 3.44442 11.3453 2.91005 8.70312 4.98895C8.37733 5.24501 8.07887 5.53405 7.81249 5.85145C7.80036 6.20663 7.86409 6.56031 7.99943 6.88892C8.13478 7.21752 8.33862 7.51349 8.59738 7.75709C8.85614 8.00069 9.16386 8.18633 9.50003 8.30162C9.83619 8.41691 10.1931 8.4592 10.5469 8.42567C10.6844 8.41249 10.8232 8.42989 10.9533 8.47662C11.0834 8.52335 11.2015 8.59826 11.2992 8.69599C11.3969 8.79371 11.4719 8.91184 11.5186 9.0419C11.5653 9.17197 11.5827 9.31075 11.5695 9.44833C11.5359 9.80247 11.5783 10.1597 11.6939 10.4961C11.8094 10.8326 11.9954 11.1405 12.2394 11.3993C12.4834 11.6582 12.7799 11.8619 13.109 11.997C13.438 12.1321 13.7922 12.1954 14.1477 12.1827C14.4639 11.9175 14.7519 11.6204 15.007 11.296C17.0906 8.65692 16.5555 4.8163 16.3336 3.6663Z" fill="#191F2E"/>
</svg>
