<svg width="20" height="20" viewBox="0 0 20 20" fill="none" xmlns="http://www.w3.org/2000/svg">
<path d="M13.4375 5.93738C13.4375 6.18461 13.3642 6.42628 13.2268 6.63184C13.0895 6.8374 12.8943 6.99762 12.6659 7.09223C12.4375 7.18684 12.1861 7.21159 11.9436 7.16336C11.7012 7.11513 11.4784 6.99608 11.3036 6.82126C11.1288 6.64645 11.0098 6.42372 10.9615 6.18124C10.9133 5.93877 10.9381 5.68743 11.0327 5.45903C11.1273 5.23062 11.2875 5.03539 11.493 4.89804C11.6986 4.76069 11.9403 4.68738 12.1875 4.68738C12.519 4.68738 12.837 4.81908 13.0714 5.0535C13.3058 5.28792 13.4375 5.60586 13.4375 5.93738ZM15.8102 13.2507C13.693 15.3632 10.4313 16.2889 6.08282 16.0155C6.20105 16.8218 6.3573 17.6652 6.55157 18.546C6.57789 18.6663 6.58025 18.7906 6.55853 18.9118C6.53681 19.033 6.49143 19.1487 6.42498 19.2524C6.35852 19.3561 6.2723 19.4456 6.17124 19.516C6.07017 19.5863 5.95624 19.6361 5.83595 19.6624C5.71566 19.6887 5.59136 19.6911 5.47015 19.6693C5.34894 19.6476 5.2332 19.6022 5.12954 19.5358C5.02587 19.4693 4.9363 19.3831 4.86596 19.282C4.79561 19.181 4.74586 19.067 4.71954 18.9468C4.48204 17.8582 4.29845 16.8186 4.16876 15.828C3.17918 15.6983 2.14038 15.5145 1.05235 15.2764C0.809412 15.2233 0.597533 15.0758 0.463327 14.8665C0.329121 14.6571 0.283583 14.403 0.33673 14.16C0.389877 13.9171 0.537355 13.7052 0.746722 13.571C0.956089 13.4368 1.21019 13.3913 1.45314 13.4444C2.33282 13.6371 3.17553 13.7934 3.98126 13.9132C3.71251 9.56629 4.63829 6.30613 6.75157 4.18816C10.2852 0.645193 15.8539 1.63269 16.9344 1.86629C17.2281 1.93041 17.4972 2.0775 17.7098 2.29008C17.9224 2.50266 18.0695 2.77179 18.1336 3.06551C18.3672 4.14597 19.3547 9.71472 15.8109 13.2499L15.8102 13.2507ZM13.6938 12.5921C12.1641 12.2355 10.7657 11.4554 9.6586 10.3413C8.54479 9.2336 7.76486 7.83508 7.40782 6.30535C6.11954 8.10222 5.6047 10.7202 5.86876 14.1288C9.27736 14.3936 11.8961 13.8796 13.6945 12.5913L13.6938 12.5921ZM16.3406 3.65925C15.1699 3.4398 13.9745 3.38301 12.7883 3.4905C11.3297 3.63191 10.0867 4.03738 9.07345 4.70457C9.15436 6.32855 9.83585 7.86453 10.9856 9.01428C12.1354 10.164 13.6713 10.8455 15.2953 10.9264C15.9602 9.91082 16.368 8.67019 16.5094 7.2116C16.6169 6.02536 16.5601 4.82996 16.3406 3.65925Z" fill="#191F2E"/>
</svg>
