<svg width="20" height="20" viewBox="0 0 20 20" fill="none" xmlns="http://www.w3.org/2000/svg">
<path d="M19.375 8.12512C19.3751 8.25495 19.3347 8.38158 19.2595 8.48742C19.1844 8.59326 19.0781 8.67306 18.9555 8.71574L5 13.5697V16.8751C5 17.0409 4.93415 17.1999 4.81694 17.3171C4.69973 17.4343 4.54076 17.5001 4.375 17.5001C4.20924 17.5001 4.05027 17.4343 3.93306 17.3171C3.81585 17.1999 3.75 17.0409 3.75 16.8751V3.12512C3.74994 3.02536 3.77377 2.92703 3.81948 2.83836C3.86519 2.74969 3.93147 2.67325 4.01277 2.61543C4.09407 2.55761 4.18803 2.52009 4.28679 2.50601C4.38555 2.49193 4.48625 2.5017 4.58047 2.5345L18.9555 7.5345C19.0781 7.57718 19.1844 7.65698 19.2595 7.76282C19.3347 7.86866 19.3751 7.99529 19.375 8.12512Z" fill="#191F2E"/>
</svg>
