<svg width="20" height="20" viewBox="0 0 20 20" fill="none" xmlns="http://www.w3.org/2000/svg">
<path d="M17.2656 2.89052C17.1021 2.81568 16.9206 2.78944 16.7426 2.81493C16.5646 2.84042 16.3977 2.91655 16.2617 3.03427C14.3313 4.70692 12.7828 4.07411 10.4164 2.90302C8.21798 1.81786 5.48204 0.463954 2.51095 3.03739C2.4089 3.12585 2.32716 3.23531 2.27134 3.35828C2.21552 3.48126 2.18692 3.61484 2.18751 3.74989V16.8749C2.18751 17.1235 2.28628 17.362 2.4621 17.5378C2.63791 17.7136 2.87637 17.8124 3.12501 17.8124C3.37365 17.8124 3.61211 17.7136 3.78792 17.5378C3.96374 17.362 4.06251 17.1235 4.06251 16.8749V13.571C5.84688 12.2327 7.35157 12.8593 9.58438 13.9616C10.8524 14.5866 12.2984 15.3054 13.8656 15.3054C15.0156 15.3054 16.2313 14.9194 17.4891 13.8304C17.5902 13.7427 17.6714 13.6344 17.7272 13.5127C17.783 13.391 17.8121 13.2588 17.8125 13.1249V3.74989C17.8139 3.56918 17.763 3.39192 17.666 3.23945C17.5689 3.08699 17.4299 2.96581 17.2656 2.89052ZM13.8656 5.93036C14.5812 5.93094 15.2882 5.77551 15.9375 5.47489V8.29989C15.0781 8.94442 14.2813 9.1327 13.4375 9.03114V5.91083C13.5789 5.92255 13.7219 5.93036 13.8656 5.93036ZM11.5625 5.47489V8.45067C11.2 8.29442 10.8203 8.10692 10.4156 7.9038C9.77281 7.57284 9.11246 7.27709 8.43751 7.01786V4.04286C8.80001 4.19911 9.1797 4.38661 9.58438 4.58974C10.2271 4.92075 10.8874 5.21625 11.5625 5.47489ZM6.56251 3.46239V6.58114C5.70524 6.50737 4.84356 6.65843 4.06251 7.01942V4.19364C4.92188 3.54833 5.71876 3.35927 6.56251 3.46239ZM6.13438 10.9374C5.41869 10.9375 4.71163 11.0938 4.06251 11.3952V9.19599C4.92188 8.55067 5.71876 8.36239 6.56251 8.46395V10.9593C6.4211 10.9475 6.27813 10.9374 6.13438 10.9374ZM8.43751 11.3952V9.04442C8.80001 9.20067 9.1797 9.38817 9.58438 9.5913C10.2271 9.92232 10.8874 10.2178 11.5625 10.4765V12.8272C11.2 12.6671 10.8203 12.4835 10.4156 12.2804C9.7731 11.949 9.11272 11.6535 8.43751 11.3952ZM13.4375 13.4077V10.9124C13.5789 10.9233 13.7219 10.9311 13.8656 10.9311C14.5813 10.9316 15.2884 10.7756 15.9375 10.4741V12.6765C15.0781 13.3218 14.2813 13.5093 13.4375 13.4077Z" fill="#191F2E"/>
</svg>
