<svg width="20" height="20" viewBox="0 0 20 20" fill="none" xmlns="http://www.w3.org/2000/svg">
<path d="M19.0578 7.23996L4.68281 2.23996C4.54157 2.19087 4.39064 2.17627 4.2426 2.19738C4.09457 2.2185 3.95374 2.27472 3.83186 2.36135C3.70998 2.44798 3.61059 2.56251 3.54199 2.69538C3.47339 2.82824 3.43756 2.97559 3.4375 3.12512V16.8751C3.4375 17.1238 3.53627 17.3622 3.71209 17.538C3.8879 17.7138 4.12636 17.8126 4.375 17.8126C4.62364 17.8126 4.8621 17.7138 5.03791 17.538C5.21373 17.3622 5.3125 17.1238 5.3125 16.8751V13.7915L19.0578 9.01027C19.2415 8.94618 19.4007 8.82655 19.5133 8.66795C19.6259 8.50935 19.6864 8.31964 19.6864 8.12512C19.6864 7.93059 19.6259 7.74088 19.5133 7.58229C19.4007 7.42369 19.2415 7.30405 19.0578 7.23996ZM5.3125 11.8064V4.44387L15.8961 8.12512L5.3125 11.8064Z" fill="#191F2E"/>
</svg>
