<svg width="20" height="20" viewBox="0 0 20 20" fill="none" xmlns="http://www.w3.org/2000/svg">
<path d="M18.2929 3.87422C18.2084 3.7404 18.0913 3.63017 17.9527 3.5538C17.814 3.47744 17.6583 3.43743 17.5 3.4375H2.49997C2.311 3.43741 2.12641 3.49443 1.97041 3.60108C1.81441 3.70773 1.69429 3.85903 1.62578 4.03515C1.55728 4.21126 1.5436 4.40397 1.58653 4.588C1.62946 4.77203 1.72701 4.93879 1.86637 5.06641L4.92184 7.86797L1.81091 11.2391C1.68728 11.373 1.60536 11.54 1.57518 11.7198C1.545 11.8995 1.56787 12.0841 1.64098 12.2511C1.71409 12.418 1.83428 12.56 1.98684 12.6598C2.1394 12.7595 2.31771 12.8125 2.49997 12.8125H12.4437L10.4039 17.0969C10.3474 17.2084 10.3137 17.3301 10.305 17.4549C10.2962 17.5796 10.3124 17.7048 10.3528 17.8232C10.3931 17.9415 10.4568 18.0506 10.5399 18.144C10.623 18.2374 10.724 18.3132 10.8369 18.367C10.9498 18.4207 11.0723 18.4514 11.1972 18.4571C11.3221 18.4629 11.4469 18.4436 11.5642 18.4003C11.6815 18.3571 11.789 18.2909 11.8804 18.2055C11.9717 18.1201 12.045 18.0173 12.0961 17.9031L18.3461 4.77813C18.4143 4.63523 18.4452 4.47739 18.4359 4.31933C18.4266 4.16127 18.3774 4.00814 18.2929 3.87422ZM13.3367 10.9375H4.64137L6.93903 8.44844C7.02289 8.35774 7.088 8.25137 7.13062 8.13542C7.17324 8.01948 7.19253 7.89626 7.18738 7.77284C7.18222 7.64943 7.15273 7.52824 7.10059 7.41626C7.04845 7.30428 6.97469 7.2037 6.88356 7.12031L4.91012 5.3125H16.0156L13.3367 10.9375Z" fill="#191F2E"/>
</svg>
