<svg width="20" height="20" viewBox="0 0 20 20" fill="none" xmlns="http://www.w3.org/2000/svg">
<path d="M2.51095 3.03759C2.4089 3.12605 2.32716 3.23551 2.27134 3.35848C2.21552 3.48146 2.18692 3.61504 2.18751 3.75009V16.8751C2.18751 17.1237 2.28628 17.3622 2.4621 17.538C2.63791 17.7138 2.87637 17.8126 3.12501 17.8126C3.37365 17.8126 3.61211 17.7138 3.78792 17.538C3.96374 17.3622 4.06251 17.1237 4.06251 16.8751V13.572C5.84688 12.2345 7.35157 12.8595 9.58438 13.9626C10.8524 14.5876 12.2984 15.3063 13.8656 15.3063C15.0156 15.3063 16.2313 14.9204 17.4891 13.8313C17.5903 13.7436 17.6716 13.6351 17.7274 13.5133C17.7832 13.3915 17.8122 13.2591 17.8125 13.1251V3.75009C17.8125 3.57034 17.7609 3.39436 17.6637 3.24313C17.5666 3.0919 17.428 2.9718 17.2645 2.89712C17.101 2.82245 16.9194 2.79636 16.7415 2.82195C16.5636 2.84755 16.3968 2.92376 16.2609 3.0415C14.3305 4.71415 12.782 4.08134 10.4156 2.91025C8.21798 1.81806 5.48204 0.464154 2.51095 3.03759ZM15.9375 12.6767C14.1531 14.0149 12.6484 13.3884 10.4156 12.286C8.60626 11.3876 6.43204 10.3126 4.06251 11.3962V4.19462C5.84688 2.85712 7.35157 3.48212 9.58438 4.58525C10.8524 5.21025 12.2984 5.929 13.8656 5.929C14.581 5.93007 15.2881 5.77517 15.9375 5.47509V12.6767Z" fill="#191F2E"/>
</svg>
