<svg width="20" height="20" viewBox="0 0 20 20" fill="none" xmlns="http://www.w3.org/2000/svg">
<path d="M17.1344 3.18368C17.0253 3.13414 16.9042 3.117 16.7857 3.13432C16.6671 3.15163 16.556 3.20266 16.4656 3.28133C14.2781 5.17352 12.425 4.25633 10.2773 3.19305C8.05234 2.09071 5.52969 0.843053 2.71562 3.28133C2.64839 3.33962 2.59437 3.41158 2.55718 3.49242C2.52 3.57326 2.5005 3.66111 2.5 3.75008V16.8751C2.5 17.0408 2.56585 17.1998 2.68306 17.317C2.80027 17.4342 2.95924 17.5001 3.125 17.5001C3.29076 17.5001 3.44973 17.4342 3.56694 17.317C3.68415 17.1998 3.75 17.0408 3.75 16.8751V13.4196C5.84297 11.7665 7.64609 12.6579 9.72266 13.686C11.9484 14.7868 14.4703 16.0345 17.2844 13.5977C17.3516 13.5395 17.4056 13.4675 17.4428 13.3867C17.48 13.3058 17.4995 13.218 17.5 13.129V3.75008C17.4996 3.6306 17.4649 3.51374 17.4001 3.41336C17.3353 3.31297 17.2431 3.23326 17.1344 3.18368ZM16.25 4.96883V8.45712C15.1562 9.32118 14.1406 9.48993 13.125 9.30712V5.57352C14.2053 5.74228 15.3106 5.5284 16.25 4.96883ZM11.875 5.26258V8.93446C11.3547 8.72587 10.8258 8.46571 10.2773 8.19305C9.58828 7.85243 8.87109 7.49774 8.125 7.24227V3.5704C8.64531 3.77821 9.17422 4.03915 9.72266 4.31102C10.4117 4.65243 11.1297 5.00712 11.875 5.26258ZM6.875 3.19618V6.92899C5.79461 6.76053 4.6893 6.97468 3.75 7.53446V4.0454C4.84375 3.18133 5.85938 3.01337 6.875 3.19618ZM6.13906 11.2501C5.29808 11.2516 4.47294 11.479 3.75 11.9087V9.0454C4.84375 8.18133 5.85938 8.01258 6.875 8.1954V11.3048C6.63132 11.2689 6.38537 11.2506 6.13906 11.2501ZM8.125 11.6149V8.56805C8.64531 8.77587 9.17422 9.0368 9.72266 9.30868C10.4117 9.65008 11.1289 10.004 11.875 10.2595V13.3063C11.3547 13.0977 10.8258 12.8376 10.2773 12.5657C9.58828 12.2243 8.87031 11.8704 8.125 11.6149ZM13.125 13.6813V10.572C13.3686 10.6084 13.6146 10.6272 13.8609 10.6282C14.7022 10.6256 15.5273 10.3971 16.25 9.96649V12.8321C15.1562 13.6962 14.1406 13.8641 13.125 13.6813Z" fill="#191F2E"/>
</svg>
