<svg width="20" height="20" viewBox="0 0 20 20" fill="none" xmlns="http://www.w3.org/2000/svg">
<path d="M17.1344 3.18368C17.0253 3.13414 16.9042 3.117 16.7857 3.13432C16.6671 3.15163 16.556 3.20266 16.4656 3.28133C14.2781 5.17352 12.425 4.25633 10.2773 3.19305C8.05234 2.09071 5.52969 0.843053 2.71562 3.28133C2.64839 3.33962 2.59437 3.41158 2.55718 3.49242C2.52 3.57326 2.5005 3.66111 2.5 3.75008V16.8751C2.5 17.0408 2.56585 17.1998 2.68306 17.317C2.80027 17.4342 2.95924 17.5001 3.125 17.5001C3.29076 17.5001 3.44973 17.4342 3.56694 17.317C3.68415 17.1998 3.75 17.0408 3.75 16.8751V13.4196C5.84297 11.7665 7.64609 12.6579 9.72266 13.686C11.0039 14.3196 12.3836 15.0024 13.8633 15.0024C14.9516 15.0024 16.093 14.6313 17.2867 13.5962C17.354 13.5379 17.408 13.4659 17.4452 13.3851C17.4823 13.3043 17.5018 13.2164 17.5023 13.1274V3.75008C17.5017 3.63034 17.4667 3.51331 17.4015 3.41289C17.3362 3.31248 17.2435 3.23292 17.1344 3.18368ZM3.75 11.9095V8.27196C5.06641 7.39071 6.3 7.36649 7.5 7.69852V11.4282C6.31797 11.1306 5.06797 11.1493 3.75 11.9095ZM16.25 12.8321C14.932 13.8727 13.7289 13.904 12.5 13.5282V9.80399C10.8109 9.33524 9.18906 8.16337 7.5 7.69852V3.3493C8.22266 3.5704 8.95391 3.93133 9.72266 4.3118C10.6023 4.74696 11.5281 5.20477 12.5 5.4493V9.80399C13.6992 10.136 14.9328 10.1118 16.25 9.22977V12.8321Z" fill="#191F2E"/>
</svg>
