<svg width="20" height="20" viewBox="0 0 20 20" fill="none" xmlns="http://www.w3.org/2000/svg">
<path d="M2.71562 3.28127C2.64839 3.33956 2.59437 3.41152 2.55718 3.49236C2.52 3.5732 2.5005 3.66105 2.5 3.75002V16.875C2.5 17.0408 2.56585 17.1998 2.68306 17.317C2.80027 17.4342 2.95924 17.5 3.125 17.5C3.29076 17.5 3.44973 17.4342 3.56694 17.317C3.68415 17.1998 3.75 17.0408 3.75 16.875V13.4196C5.84297 11.7664 7.64609 12.6578 9.72266 13.686C11.0039 14.3196 12.3836 15.0024 13.8633 15.0024C14.9516 15.0024 16.093 14.6313 17.2867 13.5961C17.354 13.5378 17.408 13.4659 17.4452 13.385C17.4823 13.3042 17.5018 13.2163 17.5023 13.1274V3.75002C17.5021 3.63006 17.4673 3.51271 17.4021 3.41199C17.3369 3.31127 17.2442 3.23143 17.1348 3.18201C17.0255 3.13258 16.9043 3.11566 16.7856 3.13326C16.667 3.15087 16.5559 3.20225 16.4656 3.28127C14.2781 5.17424 12.425 4.25706 10.2773 3.19377C8.05234 2.09065 5.52969 0.842994 2.71562 3.28127ZM16.25 12.8321C14.157 14.4852 12.3539 13.593 10.2773 12.5656C8.32422 11.6008 6.15156 10.5242 3.75 11.9094V4.04612C5.84297 2.39299 7.64609 3.2844 9.72266 4.31174C11.6758 5.27659 13.8492 6.35315 16.25 4.96799V12.8321Z" fill="#191F2E"/>
</svg>
