<svg width="20" height="20" viewBox="0 0 20 20" fill="none" xmlns="http://www.w3.org/2000/svg">
<path d="M18.0282 4.04141C17.9719 3.95222 17.894 3.87873 17.8016 3.82778C17.7093 3.77682 17.6055 3.75007 17.5001 3.75H2.50008C2.37407 3.74989 2.25098 3.78786 2.14694 3.85894C2.0429 3.93002 1.96277 4.03089 1.91707 4.14831C1.87137 4.26573 1.86223 4.39423 1.89084 4.51694C1.91946 4.63965 1.98449 4.75084 2.07742 4.83594L5.3657 7.84922L2.0407 11.4508C1.9582 11.54 1.90351 11.6514 1.88334 11.7713C1.86318 11.8912 1.8784 12.0143 1.92715 12.1257C1.9759 12.237 2.05607 12.3317 2.15783 12.3982C2.25958 12.4647 2.37852 12.5001 2.50008 12.5H12.9391L10.686 17.2312C10.6483 17.3056 10.6259 17.3867 10.6201 17.4699C10.6142 17.5531 10.6251 17.6365 10.652 17.7154C10.6789 17.7943 10.7213 17.8671 10.7767 17.9293C10.8321 17.9916 10.8994 18.0421 10.9747 18.078C11.0499 18.1138 11.1316 18.1343 11.2149 18.1381C11.2982 18.1419 11.3813 18.129 11.4596 18.1002C11.5378 18.0714 11.6095 18.0272 11.6703 17.9703C11.7312 17.9134 11.7801 17.8449 11.8141 17.7688L18.0641 4.64375C18.1095 4.54848 18.13 4.44328 18.1237 4.33795C18.1174 4.23263 18.0845 4.13061 18.0282 4.04141ZM13.5337 11.25H3.9243L6.70633 8.23672C6.76221 8.17628 6.80561 8.10539 6.83402 8.02813C6.86243 7.95087 6.8753 7.86876 6.87189 7.78651C6.86847 7.70426 6.84885 7.6235 6.81414 7.54886C6.77942 7.47422 6.73031 7.40717 6.66961 7.35156L4.10711 5H16.5102L13.5337 11.25Z" fill="#191F2E"/>
</svg>
