<svg width="20" height="20" viewBox="0 0 20 20" fill="none" xmlns="http://www.w3.org/2000/svg">
<path d="M18.9555 7.5345L4.58047 2.5345C4.48625 2.5017 4.38555 2.49193 4.28679 2.50601C4.18803 2.52009 4.09407 2.55761 4.01277 2.61543C3.93147 2.67325 3.86519 2.74969 3.81948 2.83836C3.77377 2.92703 3.74994 3.02536 3.75 3.12512V16.8751C3.75 17.0409 3.81585 17.1999 3.93306 17.3171C4.05027 17.4343 4.20924 17.5001 4.375 17.5001C4.54076 17.5001 4.69973 17.4343 4.81694 17.3171C4.93415 17.1999 5 17.0409 5 16.8751V13.5697L18.9555 8.71574C19.0783 8.67324 19.1848 8.59351 19.2602 8.48766C19.3355 8.3818 19.376 8.25507 19.376 8.12512C19.376 7.99517 19.3355 7.86844 19.2602 7.76258C19.1848 7.65673 19.0783 7.577 18.9555 7.5345ZM5 12.2462V4.00403L16.8477 8.12512L5 12.2462Z" fill="#191F2E"/>
</svg>
