<svg width="20" height="20" viewBox="0 0 20 20" fill="none" xmlns="http://www.w3.org/2000/svg">
<path d="M13.5773 4.02182C12.6058 2.99799 11.5125 2.09701 10.3219 1.33901C10.2247 1.28061 10.1134 1.24976 10 1.24976C9.8866 1.24976 9.77533 1.28061 9.67812 1.33901C8.4875 2.09701 7.39421 2.99799 6.42266 4.02182C4.26484 6.28745 3.125 8.78667 3.125 11.2499C3.125 13.0733 3.84933 14.822 5.13864 16.1113C6.42795 17.4006 8.17664 18.1249 10 18.1249C11.8234 18.1249 13.572 17.4006 14.8614 16.1113C16.1507 14.822 16.875 13.0733 16.875 11.2499C16.875 8.78667 15.7352 6.28745 13.5773 4.02182ZM7.5 14.3749C7.5 12.2132 9.26016 10.6812 10 10.1328C10.7406 10.6796 12.5 12.2132 12.5 14.3749C12.5 15.038 12.2366 15.6739 11.7678 16.1427C11.2989 16.6116 10.663 16.8749 10 16.8749C9.33696 16.8749 8.70107 16.6116 8.23223 16.1427C7.76339 15.6739 7.5 15.038 7.5 14.3749ZM13.5367 15.6195C13.6779 15.2197 13.7501 14.7989 13.75 14.3749C13.75 10.9374 10.4617 8.92261 10.3219 8.83901C10.2247 8.78061 10.1134 8.74976 10 8.74976C9.8866 8.74976 9.77533 8.78061 9.67812 8.83901C9.53828 8.92261 6.25 10.9374 6.25 14.3749C6.24994 14.7989 6.32206 15.2197 6.46328 15.6195C5.81123 15.0931 5.28525 14.4275 4.9239 13.6714C4.56256 12.9153 4.375 12.0879 4.375 11.2499C4.375 8.56167 5.96875 6.31636 7.30625 4.90698C8.12175 4.05266 9.02461 3.28623 10 2.62026C10.9755 3.28603 11.8784 4.05248 12.6937 4.90698C15.1164 7.46089 15.625 9.76557 15.625 11.2499C15.625 12.0879 15.4374 12.9153 15.0761 13.6714C14.7148 14.4275 14.1888 15.0931 13.5367 15.6195Z" fill="#191F2E"/>
</svg>
