<svg width="20" height="20" viewBox="0 0 20 20" fill="none" xmlns="http://www.w3.org/2000/svg">
<path d="M17.3195 15.607L12.5 7.57187V3.125H13.125C13.2908 3.125 13.4497 3.05915 13.567 2.94194C13.6842 2.82473 13.75 2.66576 13.75 2.5C13.75 2.33424 13.6842 2.17527 13.567 2.05806C13.4497 1.94085 13.2908 1.875 13.125 1.875H6.87502C6.70926 1.875 6.55029 1.94085 6.43308 2.05806C6.31587 2.17527 6.25002 2.33424 6.25002 2.5C6.25002 2.66576 6.31587 2.82473 6.43308 2.94194C6.55029 3.05915 6.70926 3.125 6.87502 3.125H7.50002V7.57187L2.68049 15.607C2.56682 15.7965 2.50542 16.0128 2.50255 16.2338C2.49968 16.4547 2.55543 16.6725 2.66414 16.8649C2.77284 17.0573 2.93061 17.2174 3.12136 17.329C3.31211 17.4406 3.52903 17.4996 3.75002 17.5H16.25C16.4712 17.5 16.6884 17.4413 16.8795 17.3299C17.0706 17.2185 17.2287 17.0584 17.3377 16.8659C17.4466 16.6734 17.5026 16.4555 17.4998 16.2343C17.4971 16.0132 17.4357 15.7967 17.3219 15.607H17.3195ZM8.66095 8.06641C8.71941 7.96952 8.75021 7.85847 8.75002 7.74531V3.125H11.25V7.74531C11.2498 7.85847 11.2806 7.96952 11.3391 8.06641L14.325 13.0469C13.3875 13.232 12.0539 13.1539 10.282 12.257C9.03908 11.6281 7.85627 11.2945 6.74924 11.2563L8.66095 8.06641ZM3.75002 16.25L5.9797 12.5328C7.09299 12.3969 8.34767 12.6773 9.71564 13.3703C11.2 14.1211 12.45 14.3766 13.4656 14.3766C13.9822 14.3788 14.4964 14.3078 14.993 14.1656L16.25 16.25H3.75002Z" fill="#191F2E"/>
</svg>
