<svg width="20" height="20" viewBox="0 0 20 20" fill="none" xmlns="http://www.w3.org/2000/svg">
<path d="M17.5899 15.4461L12.8125 7.48516V3.4375H13.125C13.3737 3.4375 13.6121 3.33873 13.7879 3.16291C13.9637 2.9871 14.0625 2.74864 14.0625 2.5C14.0625 2.25136 13.9637 2.0129 13.7879 1.83709C13.6121 1.66127 13.3737 1.5625 13.125 1.5625H6.87501C6.62637 1.5625 6.38792 1.66127 6.2121 1.83709C6.03629 2.0129 5.93752 2.25136 5.93751 2.5C5.93752 2.74864 6.03629 2.9871 6.2121 3.16291C6.38792 3.33873 6.62637 3.4375 6.87501 3.4375H7.18751V7.48516L2.41017 15.4461C2.26791 15.6832 2.19111 15.9538 2.18762 16.2303C2.18414 16.5068 2.25408 16.7792 2.39031 17.0198C2.52655 17.2605 2.7242 17.4606 2.96307 17.5999C3.20195 17.7391 3.47351 17.8125 3.75002 17.8125H16.25C16.5265 17.8125 16.7981 17.7391 17.037 17.5999C17.2758 17.4606 17.4735 17.2605 17.6097 17.0198C17.746 16.7792 17.8159 16.5068 17.8124 16.2303C17.8089 15.9538 17.7321 15.6832 17.5899 15.4461ZM10.9375 3.4375V7.74531C10.9376 7.91512 10.9837 8.08173 11.0711 8.22734L13.8156 12.8008C12.9727 12.868 11.8508 12.6984 10.4235 11.9758C9.3297 11.4227 8.27814 11.0906 7.27736 10.9789L8.92892 8.22734C9.01629 8.08173 9.06246 7.91512 9.06251 7.74531V3.4375H10.9375ZM4.30158 15.9375L6.17189 12.8273C7.18751 12.7406 8.3297 13.0164 9.5797 13.6492C11.1117 14.4242 12.4117 14.6891 13.4742 14.6891C13.9382 14.6909 14.4008 14.6379 14.8524 14.5312L15.6985 15.9375H4.30158Z" fill="#191F2E"/>
</svg>
