<svg width="20" height="20" viewBox="0 0 20 20" fill="none" xmlns="http://www.w3.org/2000/svg">
<path d="M16.25 2.50001H14.6875C14.6046 2.50001 14.5251 2.53293 14.4665 2.59154C14.4079 2.65014 14.375 2.72963 14.375 2.81251V6.25001C14.375 6.58153 14.2433 6.89947 14.0089 7.13389C13.7745 7.36831 13.4565 7.50001 13.125 7.50001H6.8961C6.73454 7.50258 6.57801 7.44378 6.45811 7.33547C6.3382 7.22716 6.26383 7.0774 6.25001 6.91641C6.24433 6.83092 6.25629 6.74518 6.28515 6.6645C6.31401 6.58383 6.35914 6.50995 6.41776 6.44745C6.47637 6.38496 6.5472 6.33518 6.62586 6.30121C6.70452 6.26725 6.78933 6.24982 6.87501 6.25001H12.8125C12.8954 6.25001 12.9749 6.21708 13.0335 6.15848C13.0921 6.09987 13.125 6.02039 13.125 5.93751V2.81251C13.125 2.72963 13.0921 2.65014 13.0335 2.59154C12.9749 2.53293 12.8954 2.50001 12.8125 2.50001H7.1336C6.96939 2.49948 6.80671 2.5316 6.65502 2.59451C6.50333 2.65741 6.36566 2.74983 6.25001 2.86641L2.86641 6.25001C2.74983 6.36566 2.65741 6.50333 2.59451 6.65502C2.5316 6.80671 2.49948 6.96939 2.50001 7.1336V16.25C2.50001 16.5815 2.6317 16.8995 2.86612 17.1339C3.10054 17.3683 3.41849 17.5 3.75001 17.5H16.25C16.5815 17.5 16.8995 17.3683 17.1339 17.1339C17.3683 16.8995 17.5 16.5815 17.5 16.25V3.75001C17.5 3.41849 17.3683 3.10054 17.1339 2.86612C16.8995 2.6317 16.5815 2.50001 16.25 2.50001ZM10 14.375C9.50555 14.375 9.0222 14.2284 8.61108 13.9537C8.19996 13.679 7.87953 13.2885 7.69031 12.8317C7.50109 12.3749 7.45158 11.8722 7.54804 11.3873C7.64451 10.9023 7.88261 10.4569 8.23224 10.1072C8.58187 9.75761 9.02733 9.51951 9.51228 9.42304C9.99723 9.32658 10.4999 9.37609 10.9567 9.56531C11.4135 9.75453 11.804 10.075 12.0787 10.4861C12.3534 10.8972 12.5 11.3806 12.5 11.875C12.5 12.538 12.2366 13.1739 11.7678 13.6428C11.2989 14.1116 10.663 14.375 10 14.375Z" fill="#191F2E"/>
</svg>
