<svg width="20" height="20" viewBox="0 0 20 20" fill="none" xmlns="http://www.w3.org/2000/svg">
<path d="M17.3547 6.02891L13.9711 2.64532C13.8264 2.49973 13.6543 2.3843 13.4646 2.30571C13.275 2.22713 13.0717 2.18695 12.8664 2.18751H3.75C3.3356 2.18751 2.93817 2.35213 2.64515 2.64515C2.35212 2.93818 2.1875 3.3356 2.1875 3.75001V16.25C2.1875 16.6644 2.35212 17.0618 2.64515 17.3549C2.93817 17.6479 3.3356 17.8125 3.75 17.8125H16.25C16.6644 17.8125 17.0618 17.6479 17.3549 17.3549C17.6479 17.0618 17.8125 16.6644 17.8125 16.25V7.1336C17.8131 6.92834 17.7729 6.725 17.6943 6.53538C17.6157 6.34576 17.5003 6.17361 17.3547 6.02891ZM12.8125 15.9375H7.1875V12.1875H12.8125V15.9375ZM15.9375 15.9375H14.6875V11.875C14.6875 11.4606 14.5229 11.0632 14.2299 10.7702C13.9368 10.4771 13.5394 10.3125 13.125 10.3125H6.875C6.4606 10.3125 6.06317 10.4771 5.77015 10.7702C5.47712 11.0632 5.3125 11.4606 5.3125 11.875V15.9375H4.0625V4.06251H12.7344L15.9375 7.26563V15.9375ZM12.8125 6.25001C12.8125 6.49865 12.7137 6.7371 12.5379 6.91292C12.3621 7.08873 12.1236 7.18751 11.875 7.18751H7.5C7.25136 7.18751 7.0129 7.08873 6.83709 6.91292C6.66127 6.7371 6.5625 6.49865 6.5625 6.25001C6.5625 6.00137 6.66127 5.76291 6.83709 5.58709C7.0129 5.41128 7.25136 5.31251 7.5 5.31251H11.875C12.1236 5.31251 12.3621 5.41128 12.5379 5.58709C12.7137 5.76291 12.8125 6.00137 12.8125 6.25001Z" fill="#191F2E"/>
</svg>
