<svg width="20" height="20" viewBox="0 0 20 20" fill="none" xmlns="http://www.w3.org/2000/svg">
<path d="M19.1922 5.80779L16.6922 3.30779C16.5749 3.19052 16.4159 3.12463 16.25 3.12463C16.0842 3.12463 15.9251 3.19052 15.8078 3.30779C15.6906 3.42507 15.6247 3.58413 15.6247 3.74998C15.6247 3.91583 15.6906 4.07489 15.8078 4.19217L17.2414 5.62498H15C14.2343 5.65273 13.4817 5.83141 12.7852 6.15076C11.7211 6.64217 10.3766 7.69061 10.0086 9.90076C9.59299 12.3961 7.73518 12.9648 6.80549 13.0929C6.64157 12.3363 6.2026 11.6674 5.57366 11.2159C4.94471 10.7645 4.17056 10.5625 3.40122 10.6493C2.63188 10.736 1.92213 11.1053 1.4095 11.6854C0.896871 12.2656 0.617862 13.0155 0.626539 13.7896C0.635216 14.5638 0.930961 15.3072 1.45646 15.8757C1.98197 16.4443 2.69982 16.7975 3.47091 16.867C4.242 16.9365 5.01142 16.7172 5.6301 16.2518C6.24877 15.7863 6.67263 15.1078 6.81956 14.3476C7.38145 14.2836 7.93039 14.1348 8.44768 13.9062C9.51174 13.4375 10.8594 12.3906 11.2414 10.1023C11.7696 6.93514 14.8703 6.87498 15 6.87498H17.2414L15.8078 8.30779C15.6906 8.42507 15.6247 8.58413 15.6247 8.74998C15.6247 8.91583 15.6906 9.07489 15.8078 9.19217C15.9251 9.30944 16.0842 9.37533 16.25 9.37533C16.4159 9.37533 16.5749 9.30944 16.6922 9.19217L19.1922 6.69217C19.2503 6.63412 19.2964 6.56519 19.3279 6.48932C19.3593 6.41345 19.3755 6.33212 19.3755 6.24998C19.3755 6.16785 19.3593 6.08652 19.3279 6.01064C19.2964 5.93477 19.2503 5.86584 19.1922 5.80779ZM3.75003 15.625C3.37919 15.625 3.01667 15.515 2.70833 15.309C2.39999 15.103 2.15967 14.8101 2.01775 14.4675C1.87584 14.1249 1.83871 13.7479 1.91105 13.3842C1.9834 13.0205 2.16198 12.6864 2.4242 12.4242C2.68642 12.1619 3.02052 11.9834 3.38423 11.911C3.74795 11.8387 4.12495 11.8758 4.46756 12.0177C4.81017 12.1596 5.103 12.3999 5.30903 12.7083C5.51506 13.0166 5.62503 13.3791 5.62503 13.75C5.62503 14.2473 5.42748 14.7242 5.07585 15.0758C4.72422 15.4274 4.24731 15.625 3.75003 15.625Z" fill="#191F2E"/>
</svg>
