<svg width="20" height="20" viewBox="0 0 20 20" fill="none" xmlns="http://www.w3.org/2000/svg">
<path d="M19.1921 6.69217L16.6921 9.19217C16.5749 9.30944 16.4158 9.37533 16.25 9.37533C16.0841 9.37533 15.925 9.30944 15.8078 9.19217C15.6905 9.07489 15.6246 8.91583 15.6246 8.74998C15.6246 8.58413 15.6905 8.42507 15.8078 8.30779L17.2414 6.87498H15C14.8703 6.87498 11.7695 6.93514 11.2414 10.1023C10.8593 12.3906 9.51168 13.4375 8.44762 13.9062C7.77009 14.2039 7.03992 14.3633 6.29996 14.375H6.17184C6.01971 14.9641 5.65794 15.4776 5.15433 15.8191C4.65072 16.1606 4.03984 16.3067 3.43621 16.2301C2.83258 16.1534 2.27763 15.8592 1.87538 15.4026C1.47314 14.9461 1.25122 14.3585 1.25122 13.75C1.25122 13.1415 1.47314 12.5539 1.87538 12.0973C2.27763 11.6408 2.83258 11.3466 3.43621 11.2699C4.03984 11.1932 4.65072 11.3393 5.15433 11.6809C5.65794 12.0224 6.01971 12.5358 6.17184 13.125H6.27574C6.4023 13.125 9.4609 13.1883 10.0093 9.89686C10.3765 7.69061 11.7187 6.64061 12.7851 6.15076C13.4816 5.83141 14.2343 5.65273 15 5.62498H17.2414L15.8078 4.19217C15.6905 4.07489 15.6246 3.91583 15.6246 3.74998C15.6246 3.58413 15.6905 3.42507 15.8078 3.30779C15.925 3.19052 16.0841 3.12463 16.25 3.12463C16.4158 3.12463 16.5749 3.19052 16.6921 3.30779L19.1921 5.80779C19.2503 5.86584 19.2964 5.93477 19.3278 6.01064C19.3593 6.08652 19.3755 6.16785 19.3755 6.24998C19.3755 6.33212 19.3593 6.41345 19.3278 6.48932C19.2964 6.56519 19.2503 6.63412 19.1921 6.69217Z" fill="#191F2E"/>
</svg>
