<svg width="20" height="20" viewBox="0 0 20 20" fill="none" xmlns="http://www.w3.org/2000/svg">
<path d="M16.4336 10.1063C16.3703 10.0695 16.3008 10.0344 16.2289 10C16.3008 9.96562 16.3703 9.93047 16.4336 9.89375C16.7919 9.69005 17.1063 9.41751 17.3588 9.09179C17.6113 8.76608 17.7969 8.39364 17.9049 7.99591C18.0129 7.59819 18.0411 7.18303 17.988 6.77434C17.9349 6.36565 17.8014 5.97151 17.5954 5.6146C17.3893 5.25769 17.1147 4.94507 16.7873 4.69473C16.4599 4.44439 16.0862 4.26128 15.6878 4.15594C15.2894 4.0506 14.874 4.02511 14.4657 4.08094C14.0574 4.13677 13.6641 4.27282 13.3086 4.48125C13.2453 4.51797 13.1797 4.55938 13.1149 4.60547C13.1211 4.52734 13.125 4.44922 13.125 4.37109C13.125 3.54229 12.7958 2.74744 12.2097 2.16139C11.6237 1.57533 10.8288 1.24609 10 1.24609C9.17121 1.24609 8.37635 1.57533 7.7903 2.16139C7.20425 2.74744 6.87501 3.54229 6.87501 4.37109C6.87501 4.44453 6.87501 4.52266 6.88516 4.60547C6.82032 4.56094 6.75469 4.51797 6.69141 4.48125C6.33588 4.27282 5.94263 4.13677 5.5343 4.08094C5.12598 4.02511 4.71064 4.0506 4.31221 4.15594C3.91377 4.26128 3.54011 4.44439 3.21273 4.69473C2.88535 4.94507 2.61072 5.25769 2.40465 5.6146C2.19859 5.97151 2.06515 6.36565 2.01203 6.77434C1.95891 7.18303 1.98715 7.59819 2.09513 7.99591C2.20311 8.39364 2.3887 8.76608 2.6412 9.09179C2.89371 9.41751 3.20815 9.69005 3.56641 9.89375C3.6297 9.93047 3.69923 9.96562 3.7711 10C3.69923 10.0344 3.6297 10.0695 3.56641 10.1063C3.20815 10.3099 2.89371 10.5825 2.6412 10.9082C2.3887 11.2339 2.20311 11.6064 2.09513 12.0041C1.98715 12.4018 1.95891 12.817 2.01203 13.2257C2.06515 13.6343 2.19859 14.0285 2.40465 14.3854C2.61072 14.7423 2.88535 15.0549 3.21273 15.3053C3.54011 15.5556 3.91377 15.7387 4.31221 15.8441C4.71064 15.9494 5.12598 15.9749 5.5343 15.9191C5.94263 15.8632 6.33588 15.7272 6.69141 15.5188C6.75469 15.482 6.82032 15.4406 6.88516 15.3945C6.87891 15.4727 6.87501 15.5508 6.87501 15.625C6.87501 16.4538 7.20425 17.2487 7.7903 17.8347C8.37635 18.4208 9.17121 18.75 10 18.75C10.8288 18.75 11.6237 18.4208 12.2097 17.8347C12.7958 17.2487 13.125 16.4538 13.125 15.625C13.125 15.5516 13.1211 15.4734 13.1149 15.3945C13.1797 15.4391 13.2453 15.482 13.3086 15.5188C13.782 15.793 14.3193 15.9374 14.8664 15.9375C15.1413 15.9371 15.415 15.9009 15.6805 15.8297C16.2775 15.6697 16.8136 15.3362 17.2211 14.8715C17.6286 14.4067 17.8892 13.8316 17.9698 13.2188C18.0504 12.606 17.9475 11.9831 17.674 11.4287C17.4006 10.8744 16.9689 10.4137 16.4336 10.1047V10.1063ZM10 12.1875C9.56736 12.1875 9.14443 12.0592 8.7847 11.8188C8.42496 11.5785 8.14459 11.2368 7.97902 10.8371C7.81345 10.4374 7.77013 9.99757 7.85454 9.57324C7.93894 9.14891 8.14728 8.75913 8.45321 8.4532C8.75914 8.14728 9.14891 7.93894 9.57325 7.85453C9.99758 7.77013 10.4374 7.81345 10.8371 7.97901C11.2368 8.14458 11.5785 8.42496 11.8188 8.78469C12.0592 9.14442 12.1875 9.56735 12.1875 10C12.1875 10.5802 11.957 11.1366 11.5468 11.5468C11.1366 11.957 10.5802 12.1875 10 12.1875Z" fill="#191F2E"/>
</svg>
