<svg width="20" height="20" viewBox="0 0 20 20" fill="none" xmlns="http://www.w3.org/2000/svg">
<path d="M19.4766 9.3462C19.376 9.17004 19.2413 9.01573 19.0803 8.89231C18.9193 8.76889 18.7353 8.67884 18.5391 8.62745C18.07 8.5058 17.5877 8.44205 17.1031 8.4376C17.2792 7.34042 17.199 6.21738 16.8688 5.15635C16.7498 4.78371 16.4963 4.4687 16.1578 4.27271C15.8193 4.07673 15.4199 4.0138 15.0375 4.0962C14.3168 4.25522 13.6263 4.52874 12.9922 4.90635C12.4823 3.96995 11.7825 3.15037 10.9375 2.5001C10.6667 2.2981 10.3379 2.18896 10 2.18896C9.66214 2.18896 9.33332 2.2981 9.0625 2.5001C8.21753 3.15037 7.51769 3.96995 7.00781 4.90635C6.37449 4.5287 5.68476 4.25492 4.96484 4.09542C4.58235 4.01306 4.18288 4.07609 3.84433 4.27223C3.50578 4.46838 3.2524 4.78356 3.13359 5.15635C2.80339 6.21738 2.72317 7.34042 2.89922 8.4376C2.41384 8.44186 1.9308 8.50561 1.46094 8.62745C1.26471 8.67884 1.08071 8.76889 0.919726 8.89231C0.758743 9.01573 0.624015 9.17004 0.523438 9.3462C0.419433 9.52527 0.352061 9.72322 0.325237 9.92856C0.298413 10.1339 0.312673 10.3425 0.367188 10.5423C0.644532 11.5704 1.49219 13.5235 4.05 15.0517C6.575 16.5626 8.80938 16.5626 10.0063 16.5626C11.2031 16.5626 13.425 16.5626 15.9492 15.0517C18.507 13.5235 19.3547 11.5704 19.632 10.5423C19.6867 10.3426 19.7011 10.134 19.6744 9.92864C19.6477 9.7233 19.5804 9.52532 19.4766 9.3462ZM5.0125 13.4415C3.2711 12.4009 2.56328 11.1657 2.27813 10.3673C2.65373 10.3073 3.03542 10.2952 3.41406 10.3314C3.6026 10.8078 3.82586 11.2697 4.08203 11.7134C4.51134 12.4554 5.0249 13.1454 5.6125 13.7696C5.41406 13.672 5.21406 13.5626 5.0125 13.4415ZM6.17188 11.5056C6.00781 11.2712 5.85 11.0368 5.70313 10.7798C4.48203 8.64854 4.59688 6.94854 4.84375 5.99698C5.35602 6.14735 5.84311 6.37299 6.28906 6.66651C6.05073 7.52737 5.93242 8.41703 5.9375 9.31026C5.9341 10.0485 6.0127 10.7847 6.17188 11.5056ZM10 14.4743C9.24063 13.8439 7.8125 12.2649 7.8125 9.30792C7.8125 6.38448 9.21875 4.8001 10 4.14542C10.7813 4.8001 12.1875 6.38448 12.1875 9.30792C12.1875 12.2657 10.7594 13.8462 10 14.4767V14.4743ZM13.8281 11.5056C13.9873 10.7847 14.0659 10.0485 14.0625 9.31026C14.0676 8.41703 13.9493 7.52737 13.7109 6.66651C14.1569 6.3728 14.644 6.1469 15.1563 5.9962C15.4008 6.94854 15.5156 8.65245 14.2922 10.7798C14.1484 11.0337 13.9906 11.2751 13.8281 11.5056ZM14.9891 13.4415C14.7891 13.561 14.5914 13.6689 14.3969 13.7665C14.9821 13.1429 15.4935 12.454 15.9211 11.7134C16.1773 11.2697 16.4005 10.8078 16.5891 10.3314C16.9677 10.2952 17.3494 10.3073 17.725 10.3673C17.4367 11.1657 16.7289 12.4009 14.9875 13.4415H14.9891Z" fill="#191F2E"/>
</svg>
