<svg width="20" height="20" viewBox="0 0 20 20" fill="none" xmlns="http://www.w3.org/2000/svg">
<path d="M16.8469 9.99993C17.5482 9.50566 18.0394 8.76698 18.2238 7.92903C18.4082 7.09108 18.2726 6.21444 17.8436 5.47138C17.4146 4.72832 16.7233 4.17256 15.9054 3.91329C15.0875 3.65403 14.2022 3.71001 13.4235 4.07024C13.3459 3.21584 12.9517 2.42131 12.3183 1.84274C11.6848 1.26416 10.8579 0.943359 10 0.943359C9.14211 0.943359 8.31521 1.26416 7.68176 1.84274C7.04831 2.42131 6.6541 3.21584 6.57658 4.07024C5.79786 3.71001 4.91257 3.65403 4.09467 3.91329C3.27677 4.17256 2.58539 4.72832 2.15639 5.47138C1.72739 6.21444 1.59179 7.09108 1.77623 7.92903C1.96066 8.76698 2.45181 9.50566 3.15314 9.99993C2.4529 10.4946 1.96279 11.2332 1.77899 12.0706C1.5952 12.908 1.73098 13.7839 2.1597 14.5264C2.58842 15.2689 3.27912 15.8243 4.09628 16.0838C4.91344 16.3433 5.79807 16.288 6.57658 15.9288C6.6541 16.7832 7.04831 17.5778 7.68176 18.1563C8.31521 18.7349 9.14211 19.0557 10 19.0557C10.8579 19.0557 11.6848 18.7349 12.3183 18.1563C12.9517 17.5778 13.3459 16.7832 13.4235 15.9288C14.202 16.288 15.0866 16.3433 15.9038 16.0838C16.7209 15.8243 17.4116 15.2689 17.8403 14.5264C18.2691 13.7839 18.4048 12.908 18.221 12.0706C18.0373 11.2332 17.5471 10.4946 16.8469 9.99993ZM8.43752 9.99993C8.43752 9.6909 8.52916 9.38881 8.70085 9.13185C8.87254 8.8749 9.11657 8.67463 9.40208 8.55637C9.68759 8.43811 10.0018 8.40717 10.3048 8.46745C10.6079 8.52774 10.8864 8.67656 11.1049 8.89508C11.3234 9.1136 11.4722 9.39201 11.5325 9.6951C11.5928 9.9982 11.5618 10.3124 11.4436 10.5979C11.3253 10.8834 11.125 11.1274 10.8681 11.2991C10.6111 11.4708 10.3091 11.5624 10 11.5624C9.58562 11.5624 9.18819 11.3978 8.89517 11.1048C8.60214 10.8118 8.43752 10.4143 8.43752 9.99993ZM14.0899 5.83431C14.2676 5.73009 14.4643 5.66207 14.6684 5.63415C14.8726 5.60624 15.0802 5.61898 15.2795 5.67165C15.4787 5.72432 15.6655 5.81588 15.8292 5.94105C15.9929 6.06622 16.1302 6.22253 16.2332 6.40098C16.3363 6.57944 16.403 6.77651 16.4296 6.98085C16.4561 7.18519 16.442 7.39277 16.388 7.59164C16.334 7.7905 16.2412 7.97672 16.115 8.13958C15.9887 8.30243 15.8315 8.43871 15.6524 8.54056C15.4453 8.66009 14.8305 8.92181 13.3008 9.04212C13.1453 8.50937 12.8633 8.0221 12.4789 7.62181C13.3485 6.35618 13.8828 5.95384 14.0899 5.83431ZM10 2.81243C10.4144 2.81243 10.8118 2.97705 11.1049 3.27008C11.3979 3.5631 11.5625 3.96053 11.5625 4.37493C11.5625 4.61399 11.4844 5.27728 10.8211 6.66243C10.2823 6.52936 9.71927 6.52936 9.18049 6.66243C8.51565 5.27728 8.43752 4.61399 8.43752 4.37493C8.43752 3.96053 8.60214 3.5631 8.89517 3.27008C9.18819 2.97705 9.58562 2.81243 10 2.81243ZM3.7758 6.40618C3.98301 6.04732 4.32428 5.78546 4.72455 5.67821C5.12482 5.57097 5.5513 5.62712 5.91018 5.83431C6.11721 5.95384 6.65158 6.35618 7.52111 7.62181C7.13671 8.0221 6.85475 8.50937 6.69924 9.04212C5.16955 8.92181 4.55471 8.66009 4.34768 8.54056C3.98881 8.33335 3.72696 7.99207 3.61971 7.5918C3.51246 7.19153 3.56861 6.76505 3.7758 6.40618ZM5.91018 14.1656C5.73241 14.2698 5.53578 14.3378 5.33162 14.3657C5.12746 14.3936 4.91979 14.3809 4.72057 14.3282C4.52135 14.2755 4.33452 14.184 4.17083 14.0588C4.00714 13.9336 3.86983 13.7773 3.7668 13.5989C3.66376 13.4204 3.59704 13.2234 3.57048 13.019C3.54392 12.8147 3.55805 12.6071 3.61204 12.4082C3.66603 12.2094 3.75882 12.0231 3.88507 11.8603C4.01132 11.6974 4.16854 11.5612 4.34768 11.4593C4.55471 11.3398 5.16955 11.0781 6.69924 10.9577C6.85475 11.4905 7.13671 11.9778 7.52111 12.3781C6.65158 13.6437 6.11721 14.046 5.91018 14.1656ZM10 17.1874C9.58562 17.1874 9.18819 17.0228 8.89517 16.7298C8.60214 16.4368 8.43752 16.0393 8.43752 15.6249C8.43752 15.3859 8.51564 14.7226 9.17893 13.3374C9.71771 13.4705 10.2808 13.4705 10.8196 13.3374C11.4844 14.7226 11.5625 15.3859 11.5625 15.6249C11.5625 16.0393 11.3979 16.4368 11.1049 16.7298C10.8118 17.0228 10.4144 17.1874 10 17.1874ZM16.2242 13.5937C16.017 13.9525 15.6758 14.2144 15.2755 14.3216C14.8752 14.4289 14.4487 14.3727 14.0899 14.1656C13.8828 14.046 13.3485 13.6437 12.4789 12.3781C12.8633 11.9778 13.1453 11.4905 13.3008 10.9577C14.8305 11.0781 15.4453 11.3398 15.6524 11.4593C16.0112 11.6665 16.2731 12.0078 16.3803 12.4081C16.4876 12.8083 16.4314 13.2348 16.2242 13.5937Z" fill="#191F2E"/>
</svg>
