<svg width="20" height="20" viewBox="0 0 20 20" fill="none" xmlns="http://www.w3.org/2000/svg">
<path d="M14.6391 16.5789C14.6823 16.6967 14.7014 16.822 14.6953 16.9473C14.6893 17.0727 14.6581 17.1955 14.6036 17.3086C14.5492 17.4217 14.4726 17.5226 14.3784 17.6056C14.2841 17.6885 14.1742 17.7516 14.0552 17.7913C13.9361 17.8309 13.8103 17.8463 13.6852 17.8364C13.5601 17.8265 13.4382 17.7916 13.3268 17.7338C13.2155 17.676 13.1168 17.5963 13.0368 17.4997C12.9568 17.403 12.897 17.2913 12.8609 17.171L12.2359 15.296C12.1927 15.1782 12.1736 15.0529 12.1797 14.9276C12.1857 14.8022 12.2169 14.6794 12.2714 14.5663C12.3258 14.4532 12.4024 14.3522 12.4966 14.2693C12.5909 14.1864 12.7008 14.1233 12.8198 14.0836C12.9389 14.0439 13.0647 14.0286 13.1898 14.0385C13.3149 14.0483 13.4368 14.0832 13.5482 14.1411C13.6595 14.1989 13.7582 14.2785 13.8382 14.3752C13.9182 14.4719 13.978 14.5836 14.0141 14.7039L14.6391 16.5789ZM10 14.3749C9.75136 14.3749 9.5129 14.4737 9.33709 14.6495C9.16127 14.8253 9.0625 15.0638 9.0625 15.3124V17.4999C9.0625 17.7486 9.16127 17.987 9.33709 18.1629C9.5129 18.3387 9.75136 18.4374 10 18.4374C10.2486 18.4374 10.4871 18.3387 10.6629 18.1629C10.8387 17.987 10.9375 17.7486 10.9375 17.4999V15.3124C10.9375 15.0638 10.8387 14.8253 10.6629 14.6495C10.4871 14.4737 10.2486 14.3749 10 14.3749ZM7.17109 14.1109C6.9353 14.0325 6.67802 14.0509 6.45579 14.1621C6.23356 14.2733 6.06456 14.4681 5.98594 14.7039L5.36094 16.5789C5.3177 16.6967 5.29856 16.822 5.30465 16.9473C5.31074 17.0727 5.34194 17.1955 5.39639 17.3086C5.45084 17.4217 5.52744 17.5226 5.62165 17.6056C5.71586 17.6885 5.82575 17.7516 5.94482 17.7913C6.06389 17.8309 6.18971 17.8463 6.31482 17.8364C6.43993 17.8265 6.56178 17.7916 6.67315 17.7338C6.78453 17.676 6.88315 17.5963 6.96318 17.4997C7.04322 17.403 7.10302 17.2913 7.13906 17.171L7.76406 15.296C7.84247 15.0602 7.82406 14.803 7.71287 14.5807C7.60169 14.3585 7.40682 14.1895 7.17109 14.1109ZM19.6875 8.74994C19.6875 10.1499 18.5758 11.3976 16.5562 12.2656C14.7898 13.0226 12.4609 13.4374 10 13.4374C7.53906 13.4374 5.21016 13.0203 3.44375 12.2656C1.42422 11.3976 0.3125 10.1499 0.3125 8.74994C0.3125 6.87026 2.2875 5.31244 5.61797 4.53979C6.05039 3.89109 6.62104 3.34616 7.28898 2.94411C7.95692 2.54205 8.70558 2.29283 9.48122 2.21434C10.2569 2.13585 11.0403 2.23003 11.7752 2.49013C12.5102 2.75022 13.1784 3.16978 13.732 3.71869C13.988 3.97166 14.2181 4.2496 14.4187 4.54838C17.7266 5.32338 19.6875 6.87885 19.6875 8.74994ZM6.5625 7.56479V7.79916C6.56255 7.8684 6.5856 7.93566 6.62802 7.99039C6.67044 8.04511 6.72983 8.0842 6.79688 8.10151C7.84866 8.33291 8.92309 8.44559 10 8.43744C11.0768 8.44636 12.1512 8.33447 13.2031 8.10385C13.2702 8.08654 13.3296 8.04745 13.372 7.99273C13.4144 7.93801 13.4374 7.87075 13.4375 7.80151V7.49994C13.4375 6.58826 13.0753 5.71392 12.4307 5.06926C11.786 4.42461 10.9117 4.06244 10 4.06244H9.95391C8.08359 4.08666 6.5625 5.65854 6.5625 7.56479ZM17.8125 8.74994C17.8125 8.23119 17.2148 7.75307 16.8586 7.51322C16.3593 7.19057 15.8219 6.93129 15.2586 6.74135C15.2943 6.99264 15.3123 7.24613 15.3125 7.49994V7.80697C15.3133 8.30051 15.1462 8.77964 14.8387 9.16566C14.5312 9.55168 14.1015 9.82164 13.6203 9.93119C12.4316 10.1935 11.2172 10.3214 10 10.3124C8.78302 10.3214 7.56889 10.1935 6.38047 9.93119C5.89923 9.82182 5.4695 9.55204 5.16185 9.16617C4.8542 8.78029 4.68693 8.30126 4.6875 7.80776V7.56791C4.68782 7.28987 4.70924 7.01225 4.75156 6.73744C4.18713 6.92758 3.6484 7.18684 3.14766 7.50932C2.78906 7.74916 2.1875 8.22963 2.1875 8.74994C2.1875 9.89682 5.23438 11.5624 10 11.5624C14.7656 11.5624 17.8125 9.89682 17.8125 8.74994Z" fill="#191F2E"/>
</svg>
