<svg width="20" height="20" viewBox="0 0 20 20" fill="none" xmlns="http://www.w3.org/2000/svg">
<path d="M14.343 16.6774C14.3954 16.8347 14.3832 17.0063 14.3091 17.1546C14.2349 17.3029 14.1049 17.4156 13.9477 17.4681C13.7904 17.5205 13.6187 17.5083 13.4705 17.4341C13.3222 17.36 13.2095 17.23 13.157 17.0727L12.532 15.1977C12.5061 15.1199 12.4957 15.0376 12.5015 14.9558C12.5073 14.8739 12.5292 14.794 12.5659 14.7206C12.6027 14.6471 12.6535 14.5817 12.7155 14.5279C12.7775 14.4741 12.8495 14.4331 12.9273 14.4071C13.0052 14.3812 13.0874 14.3708 13.1693 14.3766C13.2512 14.3824 13.3311 14.4043 13.4045 14.441C13.4779 14.4777 13.5434 14.5285 13.5972 14.5906C13.651 14.6526 13.692 14.7246 13.718 14.8024L14.343 16.6774ZM10 14.3751C9.83424 14.3751 9.67527 14.4409 9.55806 14.5581C9.44085 14.6753 9.375 14.8343 9.375 15.0001V17.5001C9.375 17.6658 9.44085 17.8248 9.55806 17.942C9.67527 18.0592 9.83424 18.1251 10 18.1251C10.1658 18.1251 10.3247 18.0592 10.4419 17.942C10.5592 17.8248 10.625 17.6658 10.625 17.5001V15.0001C10.625 14.8343 10.5592 14.6753 10.4419 14.5581C10.3247 14.4409 10.1658 14.3751 10 14.3751ZM7.07266 14.4071C6.99479 14.3812 6.91257 14.3708 6.83069 14.3766C6.74881 14.3824 6.66888 14.4043 6.59546 14.441C6.52205 14.4777 6.45658 14.5285 6.4028 14.5905C6.34902 14.6526 6.30798 14.7246 6.28203 14.8024L5.65703 16.6774C5.60461 16.8347 5.61681 17.0063 5.69094 17.1546C5.76508 17.3029 5.89508 17.4156 6.05234 17.4681C6.20961 17.5205 6.38126 17.5083 6.52953 17.4341C6.6778 17.36 6.79055 17.23 6.84297 17.0727L7.46797 15.1977C7.49393 15.1199 7.5043 15.0376 7.49848 14.9558C7.49267 14.8739 7.47078 14.794 7.43407 14.7205C7.39736 14.6471 7.34655 14.5817 7.28454 14.5279C7.22253 14.4741 7.15053 14.4331 7.07266 14.4071ZM19.375 8.75008C19.375 10.0173 18.3305 11.1634 16.4336 11.9759C14.7047 12.7173 12.4219 13.1251 10 13.1251C7.57812 13.1251 5.29531 12.7173 3.56641 11.9759C1.66953 11.1634 0.625 10.0173 0.625 8.75008C0.625 8.09618 0.911719 7.12586 2.27891 6.21102C3.16719 5.61649 4.38359 5.13602 5.80859 4.81649C6.20597 4.18688 6.73968 3.65456 7.37032 3.25882C8.00096 2.86307 8.71242 2.61402 9.45219 2.53003C10.192 2.44604 10.9412 2.52927 11.6445 2.77356C12.3478 3.01786 12.9872 3.41699 13.5156 3.94149C13.7852 4.20819 14.0239 4.50432 14.2273 4.8243C17.4555 5.55399 19.375 7.01102 19.375 8.75008ZM13.75 7.50008C13.7512 6.86147 13.5882 6.23327 13.2766 5.67586L13.2719 5.66883C12.9418 5.07996 12.459 4.59096 11.8744 4.2533C11.2898 3.91564 10.625 3.7418 9.95 3.75008C7.91016 3.77664 6.25 5.48836 6.25 7.56493V7.7993C6.2492 7.93969 6.29618 8.07619 6.38321 8.18636C6.47023 8.29652 6.59214 8.37382 6.72891 8.40555C7.80296 8.64235 8.90018 8.75792 10 8.75008C11.0992 8.75893 12.1959 8.64441 13.2695 8.40868C13.4065 8.37712 13.5287 8.29992 13.616 8.18975C13.7033 8.07958 13.7506 7.943 13.75 7.80243V7.50008Z" fill="#191F2E"/>
</svg>
