<svg width="20" height="20" viewBox="0 0 20 20" fill="none" xmlns="http://www.w3.org/2000/svg">
<path d="M16.875 5.3125H10.3125L8.22891 3.75C7.95813 3.54776 7.62938 3.43817 7.29141 3.4375H3.125C2.7106 3.4375 2.31317 3.60212 2.02015 3.89515C1.72712 4.18817 1.5625 4.5856 1.5625 5V15.625C1.5625 16.0394 1.72712 16.4368 2.02015 16.7299C2.31317 17.0229 2.7106 17.1875 3.125 17.1875H16.9445C17.3404 17.1871 17.7199 17.0297 17.9998 16.7498C18.2797 16.4699 18.4371 16.0904 18.4375 15.6945V6.875C18.4375 6.4606 18.2729 6.06317 17.9799 5.77015C17.6868 5.47712 17.2894 5.3125 16.875 5.3125ZM16.5625 15.3125H3.4375V5.3125H7.1875L9.27109 6.875C9.54187 7.07724 9.87062 7.18683 10.2086 7.1875H16.5625V15.3125Z" fill="#191F2E"/>
</svg>
