<svg width="20" height="20" viewBox="0 0 20 20" fill="none" xmlns="http://www.w3.org/2000/svg">
<path d="M18.1039 17.3391C18.1286 17.4316 18.1316 17.5286 18.1128 17.6226C18.0941 17.7165 18.0539 17.8049 17.9956 17.8808C17.9372 17.9568 17.8622 18.0183 17.7762 18.0606C17.6903 18.103 17.5958 18.125 17.5 18.125H12.5C12.4047 18.1248 12.3107 18.1028 12.2253 18.0608C12.1398 18.0187 12.065 17.9576 12.0068 17.8822C11.9485 17.8069 11.9082 17.7192 11.889 17.6258C11.8699 17.5325 11.8723 17.436 11.8961 17.3438C12.0986 16.5907 12.5754 15.9406 13.2328 15.5211C12.883 15.1715 12.6448 14.7261 12.5482 14.2411C12.4516 13.7561 12.501 13.2533 12.6901 12.7964C12.8793 12.3395 13.1997 11.949 13.6109 11.6742C14.0221 11.3994 14.5055 11.2528 15 11.2528C15.4945 11.2528 15.9779 11.3994 16.3891 11.6742C16.8003 11.949 17.1207 12.3395 17.3099 12.7964C17.499 13.2533 17.5484 13.7561 17.4518 14.2411C17.3552 14.7261 17.117 15.1715 16.7672 15.5211C17.4236 15.9395 17.9003 16.5877 18.1039 17.3391ZM18.125 6.87501V9.37501C18.125 9.54077 18.0592 9.69974 17.9419 9.81695C17.8247 9.93416 17.6658 10 17.5 10C17.3342 10 17.1753 9.93416 17.0581 9.81695C16.9408 9.69974 16.875 9.54077 16.875 9.37501V6.87501H3.125V15.625H9.41875C9.58451 15.625 9.74348 15.6909 9.86069 15.8081C9.9779 15.9253 10.0437 16.0842 10.0437 16.25C10.0437 16.4158 9.9779 16.5747 9.86069 16.6919C9.74348 16.8092 9.58451 16.875 9.41875 16.875H3.07656C2.75802 16.8746 2.45263 16.7479 2.22739 16.5226C2.00214 16.2974 1.87541 15.992 1.875 15.6734V4.37501C1.875 4.04349 2.0067 3.72554 2.24112 3.49112C2.47554 3.2567 2.79348 3.12501 3.125 3.12501H7.24141C7.40562 3.12448 7.5683 3.1566 7.71999 3.21951C7.87168 3.28241 8.00935 3.37483 8.125 3.49141L10.2586 5.62501H16.875C17.2065 5.62501 17.5245 5.7567 17.7589 5.99112C17.9933 6.22554 18.125 6.54349 18.125 6.87501ZM8.49141 5.62501L7.24141 4.37501H3.125V5.62501H8.49141Z" fill="#191F2E"/>
</svg>
