<svg width="20" height="20" viewBox="0 0 20 20" fill="none" xmlns="http://www.w3.org/2000/svg">
<path d="M8.79375 15.3125H3.4375V7.1875H16.5625V8.75C16.5625 8.99864 16.6613 9.2371 16.8371 9.41292C17.0129 9.58873 17.2514 9.6875 17.5 9.6875C17.7486 9.6875 17.9871 9.58873 18.1629 9.41292C18.3387 9.2371 18.4375 8.99864 18.4375 8.75V6.875C18.4375 6.4606 18.2729 6.06317 17.9799 5.77015C17.6868 5.47712 17.2894 5.3125 16.875 5.3125H10.4211L8.38984 3.02422C8.24295 2.85903 8.06268 2.72689 7.86094 2.63652C7.6592 2.54615 7.44059 2.49962 7.21953 2.5H3.125C2.7106 2.5 2.31317 2.66462 2.02015 2.95765C1.72712 3.25067 1.5625 3.6481 1.5625 4.0625V15.6734C1.56312 16.0748 1.72284 16.4596 2.00664 16.7434C2.29045 17.0272 2.6752 17.1869 3.07656 17.1875H8.79375C9.04239 17.1875 9.28085 17.0887 9.45666 16.9129C9.63248 16.7371 9.73125 16.4986 9.73125 16.25C9.73125 16.0014 9.63248 15.7629 9.45666 15.5871C9.28085 15.4113 9.04239 15.3125 8.79375 15.3125ZM3.4375 4.375H7.07891L7.9125 5.3125H3.4375V4.375ZM19.0187 12.3438C18.9623 12.1656 18.8539 12.0084 18.7075 11.8923C18.561 11.7762 18.3832 11.7065 18.1969 11.6922L16.0547 11.5266L15.2344 9.62891C15.1614 9.46164 15.0413 9.31929 14.8886 9.21931C14.736 9.11934 14.5575 9.06608 14.375 9.06608C14.1925 9.06608 14.014 9.11934 13.8614 9.21931C13.7087 9.31929 13.5886 9.46164 13.5156 9.62891L12.6953 11.5258L10.5531 11.6914C10.3667 11.7057 10.1889 11.7754 10.0424 11.8915C9.89595 12.0077 9.78754 12.1649 9.7311 12.3431C9.67467 12.5213 9.6728 12.7123 9.72572 12.8916C9.77865 13.0709 9.88396 13.2302 10.0281 13.3492L11.6359 14.6773L11.1477 16.6508C11.1035 16.8299 11.1131 17.018 11.1753 17.1916C11.2376 17.3652 11.3496 17.5166 11.4975 17.6269C11.6453 17.7371 11.8224 17.8013 12.0066 17.8114C12.1908 17.8215 12.3738 17.777 12.5328 17.6836L14.375 16.5984L16.2172 17.6828C16.3762 17.7762 16.5592 17.8207 16.7434 17.8106C16.9276 17.8005 17.1047 17.7363 17.2525 17.6261C17.4004 17.5158 17.5124 17.3644 17.5747 17.1908C17.6369 17.0172 17.6465 16.8291 17.6023 16.65L17.1141 14.6766L18.7219 13.3484C18.8657 13.2295 18.9709 13.0704 19.0237 12.8914C19.0766 12.7124 19.0749 12.5217 19.0187 12.3438ZM15.4688 13.6063C15.3327 13.7188 15.2312 13.8674 15.1759 14.035C15.1207 14.2027 15.1138 14.3826 15.1562 14.5539L15.2508 14.9359L14.8547 14.7016C14.7103 14.6171 14.5461 14.5726 14.3789 14.5726C14.2117 14.5726 14.0475 14.6171 13.9031 14.7016L13.507 14.9359L13.6016 14.5539C13.644 14.3826 13.6372 14.2027 13.5819 14.035C13.5266 13.8674 13.4251 13.7188 13.2891 13.6063L13.0172 13.382L13.4078 13.3516C13.5782 13.3385 13.7417 13.2791 13.8808 13.1798C14.0199 13.0806 14.1292 12.9452 14.1969 12.7883L14.3789 12.3664L14.5609 12.7883C14.6286 12.9451 14.7378 13.0804 14.8767 13.1796C15.0156 13.2789 15.179 13.3384 15.3492 13.3516L15.7398 13.382L15.4688 13.6063Z" fill="#191F2E"/>
</svg>
