<svg width="20" height="20" viewBox="0 0 20 20" fill="none" xmlns="http://www.w3.org/2000/svg">
<path d="M16.875 5.31251H10.4211L8.38984 3.02422C8.24278 2.85884 8.06226 2.72658 7.86023 2.6362C7.65821 2.54583 7.43929 2.49941 7.21797 2.50001H3.125C2.7106 2.50001 2.31317 2.66463 2.02015 2.95765C1.72712 3.25068 1.5625 3.6481 1.5625 4.06251V15.6734C1.56312 16.0748 1.72284 16.4596 2.00664 16.7434C2.29045 17.0272 2.6752 17.1869 3.07656 17.1875H16.9445C17.3404 17.1871 17.7199 17.0297 17.9998 16.7498C18.2797 16.4699 18.4371 16.0904 18.4375 15.6945V6.87501C18.4375 6.4606 18.2729 6.06318 17.9799 5.77015C17.6868 5.47713 17.2894 5.31251 16.875 5.31251ZM7.07891 4.37501L7.9125 5.31251H3.4375V4.37501H7.07891ZM16.5625 15.3125H3.4375V7.18751H16.5625V15.3125ZM10.9375 9.37501V10.3125H11.875C12.1236 10.3125 12.3621 10.4113 12.5379 10.5871C12.7137 10.7629 12.8125 11.0014 12.8125 11.25C12.8125 11.4986 12.7137 11.7371 12.5379 11.9129C12.3621 12.0887 12.1236 12.1875 11.875 12.1875H10.9375V13.125C10.9375 13.3736 10.8387 13.6121 10.6629 13.7879C10.4871 13.9637 10.2486 14.0625 10 14.0625C9.75136 14.0625 9.5129 13.9637 9.33709 13.7879C9.16127 13.6121 9.0625 13.3736 9.0625 13.125V12.1875H8.125C7.87636 12.1875 7.6379 12.0887 7.46209 11.9129C7.28627 11.7371 7.1875 11.4986 7.1875 11.25C7.1875 11.0014 7.28627 10.7629 7.46209 10.5871C7.6379 10.4113 7.87636 10.3125 8.125 10.3125H9.0625V9.37501C9.0625 9.12637 9.16127 8.88791 9.33709 8.71209C9.5129 8.53628 9.75136 8.43751 10 8.43751C10.2486 8.43751 10.4871 8.53628 10.6629 8.71209C10.8387 8.88791 10.9375 9.12637 10.9375 9.37501Z" fill="#191F2E"/>
</svg>
