<svg width="20" height="20" viewBox="0 0 20 20" fill="none" xmlns="http://www.w3.org/2000/svg">
<path d="M16.875 5.31251H10.4211L8.38984 3.02422C8.24278 2.85884 8.06226 2.72658 7.86023 2.6362C7.65821 2.54583 7.43929 2.49941 7.21797 2.50001H3.125C2.7106 2.50001 2.31317 2.66463 2.02015 2.95765C1.72712 3.25068 1.5625 3.6481 1.5625 4.06251V15.6734C1.56312 16.0748 1.72284 16.4596 2.00664 16.7434C2.29045 17.0272 2.6752 17.1869 3.07656 17.1875H16.9445C17.3404 17.1871 17.7199 17.0297 17.9998 16.7498C18.2797 16.4699 18.4371 16.0904 18.4375 15.6945V6.87501C18.4375 6.4606 18.2729 6.06318 17.9799 5.77015C17.6868 5.47713 17.2894 5.31251 16.875 5.31251ZM3.4375 4.37501H7.07891L7.9125 5.31251H3.4375V4.37501ZM16.5625 15.3125H3.4375V7.18751H16.5625V15.3125Z" fill="#191F2E"/>
</svg>
