<svg width="20" height="20" viewBox="0 0 20 20" fill="none" xmlns="http://www.w3.org/2000/svg">
<path d="M10 16.25C10 16.4158 9.93415 16.5747 9.81694 16.6919C9.69973 16.8092 9.54076 16.875 9.375 16.875H3.125C2.79348 16.875 2.47554 16.7433 2.24112 16.5089C2.0067 16.2745 1.875 15.9565 1.875 15.625V5C1.875 4.66848 2.0067 4.35054 2.24112 4.11612C2.47554 3.8817 2.79348 3.75 3.125 3.75H7.29141C7.56176 3.75067 7.82472 3.83832 8.04141 4L10.2086 5.625H16.875C17.2065 5.625 17.5245 5.7567 17.7589 5.99112C17.9933 6.22554 18.125 6.54348 18.125 6.875V9.375C18.125 9.54076 18.0592 9.69973 17.9419 9.81694C17.8247 9.93415 17.6658 10 17.5 10C17.3342 10 17.1753 9.93415 17.0581 9.81694C16.9408 9.69973 16.875 9.54076 16.875 9.375V6.875H10.2086C9.93824 6.87433 9.67528 6.78668 9.45859 6.625L7.29141 5H3.125V15.625H9.375C9.54076 15.625 9.69973 15.6908 9.81694 15.8081C9.93415 15.9253 10 16.0842 10 16.25ZM18.7211 12.4375C18.6835 12.3189 18.6114 12.2142 18.514 12.1368C18.4166 12.0594 18.2983 12.0129 18.1742 12.0031L15.843 11.8227L14.95 9.75234C14.9017 9.64006 14.8216 9.54439 14.7196 9.47717C14.6175 9.40995 14.498 9.37412 14.3758 9.37412C14.2536 9.37412 14.134 9.40995 14.032 9.47717C13.9299 9.54439 13.8498 9.64006 13.8016 9.75234L12.9086 11.8227L10.5773 12.0031C10.4533 12.0129 10.335 12.0595 10.2375 12.1369C10.1401 12.2144 10.068 12.3191 10.0305 12.4378C9.99301 12.5565 9.99178 12.6836 10.027 12.803C10.0622 12.9224 10.1322 13.0285 10.2281 13.1078L11.9867 14.5602L11.4516 16.725C11.4222 16.8444 11.4287 16.9697 11.4702 17.0854C11.5117 17.2011 11.5864 17.302 11.6849 17.3755C11.7835 17.449 11.9015 17.4917 12.0243 17.4984C12.147 17.5052 12.269 17.4755 12.375 17.4133L14.375 16.2359L16.3758 17.4133C16.4818 17.4755 16.6038 17.5052 16.7265 17.4984C16.8492 17.4917 16.9673 17.449 17.0658 17.3755C17.1644 17.302 17.2391 17.2011 17.2806 17.0854C17.3221 16.9697 17.3286 16.8444 17.2992 16.725L16.7641 14.5602L18.5227 13.1078C18.6188 13.0286 18.689 12.9224 18.7244 12.803C18.7597 12.6836 18.7586 12.5563 18.7211 12.4375Z" fill="#191F2E"/>
</svg>
