<svg width="20" height="20" viewBox="0 0 20 20" fill="none" xmlns="http://www.w3.org/2000/svg">
<path d="M7.5 16.25C7.5 16.4158 7.43415 16.5747 7.31694 16.6919C7.19973 16.8092 7.04076 16.875 6.875 16.875H3.07656C2.75802 16.8746 2.45263 16.7479 2.22739 16.5226C2.00214 16.2974 1.87541 15.992 1.875 15.6734V15C1.875 14.8342 1.94085 14.6753 2.05806 14.5581C2.17527 14.4409 2.33424 14.375 2.5 14.375C2.66576 14.375 2.82473 14.4409 2.94194 14.5581C3.05915 14.6753 3.125 14.8342 3.125 15V15.625H6.875C7.04076 15.625 7.19973 15.6909 7.31694 15.8081C7.43415 15.9253 7.5 16.0842 7.5 16.25ZM12.5 15.625H10C9.83424 15.625 9.67527 15.6909 9.55806 15.8081C9.44085 15.9253 9.375 16.0842 9.375 16.25C9.375 16.4158 9.44085 16.5747 9.55806 16.6919C9.67527 16.8092 9.83424 16.875 10 16.875H12.5C12.6658 16.875 12.8247 16.8092 12.9419 16.6919C13.0592 16.5747 13.125 16.4158 13.125 16.25C13.125 16.0842 13.0592 15.9253 12.9419 15.8081C12.8247 15.6909 12.6658 15.625 12.5 15.625ZM17.5 11.25C17.3342 11.25 17.1753 11.3159 17.0581 11.4331C16.9408 11.5503 16.875 11.7092 16.875 11.875V15.625H15.625C15.4592 15.625 15.3003 15.6909 15.1831 15.8081C15.0658 15.9253 15 16.0842 15 16.25C15 16.4158 15.0658 16.5747 15.1831 16.6919C15.3003 16.8092 15.4592 16.875 15.625 16.875H16.9445C17.2575 16.8746 17.5575 16.7501 17.7788 16.5288C18.0001 16.3075 18.1246 16.0075 18.125 15.6945V11.875C18.125 11.7092 18.0592 11.5503 17.9419 11.4331C17.8247 11.3159 17.6658 11.25 17.5 11.25ZM16.875 5.62501H13.125C12.9592 5.62501 12.8003 5.69085 12.6831 5.80806C12.5658 5.92527 12.5 6.08425 12.5 6.25001C12.5 6.41577 12.5658 6.57474 12.6831 6.69195C12.8003 6.80916 12.9592 6.87501 13.125 6.87501H16.875V8.75001C16.875 8.91577 16.9408 9.07474 17.0581 9.19195C17.1753 9.30916 17.3342 9.37501 17.5 9.37501C17.6658 9.37501 17.8247 9.30916 17.9419 9.19195C18.0592 9.07474 18.125 8.91577 18.125 8.75001V6.87501C18.125 6.54349 17.9933 6.22554 17.7589 5.99112C17.5245 5.7567 17.2065 5.62501 16.875 5.62501ZM2.5 6.87501H10C10.1237 6.8751 10.2446 6.8385 10.3475 6.76983C10.4504 6.70116 10.5305 6.60351 10.5779 6.48925C10.6252 6.37499 10.6376 6.24924 10.6135 6.12794C10.5893 6.00664 10.5297 5.89523 10.4422 5.80782L8.125 3.49141C8.00935 3.37483 7.87168 3.28241 7.71999 3.21951C7.5683 3.1566 7.40562 3.12448 7.24141 3.12501H3.125C2.79348 3.12501 2.47554 3.2567 2.24112 3.49112C2.0067 3.72554 1.875 4.04349 1.875 4.37501V6.25001C1.875 6.41577 1.94085 6.57474 2.05806 6.69195C2.17527 6.80916 2.33424 6.87501 2.5 6.87501ZM2.5 12.5C2.66576 12.5 2.82473 12.4342 2.94194 12.3169C3.05915 12.1997 3.125 12.0408 3.125 11.875V9.37501C3.125 9.20925 3.05915 9.05028 2.94194 8.93306C2.82473 8.81585 2.66576 8.75001 2.5 8.75001C2.33424 8.75001 2.17527 8.81585 2.05806 8.93306C1.94085 9.05028 1.875 9.20925 1.875 9.37501V11.875C1.875 12.0408 1.94085 12.1997 2.05806 12.3169C2.17527 12.4342 2.33424 12.5 2.5 12.5Z" fill="#191F2E"/>
</svg>
