<svg width="20" height="20" viewBox="0 0 20 20" fill="none" xmlns="http://www.w3.org/2000/svg">
<path d="M16.875 5.62501H10.2586L8.125 3.49141C8.00935 3.37483 7.87168 3.28241 7.71999 3.21951C7.5683 3.1566 7.40562 3.12448 7.24141 3.12501H3.125C2.79348 3.12501 2.47554 3.2567 2.24112 3.49112C2.0067 3.72554 1.875 4.04349 1.875 4.37501V15.6734C1.87541 15.992 2.00214 16.2974 2.22739 16.5226C2.45263 16.7479 2.75802 16.8746 3.07656 16.875H16.9445C17.2575 16.8746 17.5575 16.7501 17.7788 16.5288C18.0001 16.3075 18.1246 16.0075 18.125 15.6945V6.87501C18.125 6.54349 17.9933 6.22554 17.7589 5.99112C17.5245 5.7567 17.2065 5.62501 16.875 5.62501ZM7.24141 4.37501L8.49141 5.62501H3.125V4.37501H7.24141ZM16.875 15.625H3.125V6.87501H16.875V15.625ZM10 8.75001C10.1658 8.75001 10.3247 8.81585 10.4419 8.93306C10.5592 9.05028 10.625 9.20925 10.625 9.37501V10.625H11.875C12.0408 10.625 12.1997 10.6909 12.3169 10.8081C12.4342 10.9253 12.5 11.0842 12.5 11.25C12.5 11.4158 12.4342 11.5747 12.3169 11.6919C12.1997 11.8092 12.0408 11.875 11.875 11.875H10.625V13.125C10.625 13.2908 10.5592 13.4497 10.4419 13.5669C10.3247 13.6842 10.1658 13.75 10 13.75C9.83424 13.75 9.67527 13.6842 9.55806 13.5669C9.44085 13.4497 9.375 13.2908 9.375 13.125V11.875H8.125C7.95924 11.875 7.80027 11.8092 7.68306 11.6919C7.56585 11.5747 7.5 11.4158 7.5 11.25C7.5 11.0842 7.56585 10.9253 7.68306 10.8081C7.80027 10.6909 7.95924 10.625 8.125 10.625H9.375V9.37501C9.375 9.20925 9.44085 9.05028 9.55806 8.93306C9.67527 8.81585 9.83424 8.75001 10 8.75001Z" fill="#191F2E"/>
</svg>
