<svg width="20" height="20" viewBox="0 0 20 20" fill="none" xmlns="http://www.w3.org/2000/svg">
<path d="M18.5227 13.1078L16.7641 14.5602L17.2992 16.725C17.3286 16.8444 17.3221 16.9697 17.2806 17.0854C17.2391 17.2011 17.1644 17.302 17.0658 17.3755C16.9673 17.449 16.8492 17.4917 16.7265 17.4984C16.6038 17.5052 16.4818 17.4755 16.3758 17.4133L14.375 16.2359L12.3742 17.4133C12.2682 17.4755 12.1462 17.5052 12.0235 17.4984C11.9008 17.4917 11.7827 17.449 11.6842 17.3755C11.5856 17.302 11.5109 17.2011 11.4694 17.0854C11.4279 16.9697 11.4214 16.8444 11.4508 16.725L11.9859 14.5602L10.2273 13.1078C10.1314 13.0285 10.0614 12.9224 10.0262 12.803C9.991 12.6836 9.99223 12.5565 10.0297 12.4378C10.0673 12.3191 10.1393 12.2144 10.2368 12.1369C10.3342 12.0595 10.4525 12.0129 10.5766 12.0031L12.9078 11.8227L13.8008 9.75235C13.849 9.64007 13.9291 9.5444 14.0312 9.47718C14.1333 9.40995 14.2528 9.37413 14.375 9.37413C14.4972 9.37413 14.6167 9.40995 14.7188 9.47718C14.8209 9.5444 14.901 9.64007 14.9492 9.75235L15.8422 11.8227L18.1734 12.0031C18.2975 12.0129 18.4158 12.0595 18.5132 12.1369C18.6107 12.2144 18.6827 12.3191 18.7203 12.4378C18.7578 12.5565 18.759 12.6836 18.7238 12.803C18.6886 12.9224 18.6186 13.0285 18.5227 13.1078ZM10.0437 16.25C10.0437 16.4158 9.9779 16.5747 9.86069 16.6919C9.74348 16.8092 9.58451 16.875 9.41875 16.875H3.07656C2.75802 16.8746 2.45263 16.7479 2.22739 16.5226C2.00214 16.2974 1.87541 15.992 1.875 15.6734V4.37501C1.875 4.04349 2.0067 3.72554 2.24112 3.49112C2.47554 3.2567 2.79348 3.12501 3.125 3.12501H7.24141C7.40562 3.12448 7.5683 3.1566 7.71999 3.21951C7.87168 3.28241 8.00935 3.37483 8.125 3.49141L10.2586 5.62501H16.875C17.2065 5.62501 17.5245 5.7567 17.7589 5.99112C17.9933 6.22554 18.125 6.54349 18.125 6.87501V9.37501C18.125 9.54077 18.0592 9.69974 17.9419 9.81695C17.8247 9.93416 17.6658 10 17.5 10C17.3342 10 17.1753 9.93416 17.0581 9.81695C16.9408 9.69974 16.875 9.54077 16.875 9.37501V6.87501H3.125V15.625H9.41875C9.58451 15.625 9.74348 15.6909 9.86069 15.8081C9.9779 15.9253 10.0437 16.0842 10.0437 16.25ZM3.125 5.62501H8.49141L7.24141 4.37501H3.125V5.62501Z" fill="#191F2E"/>
</svg>
