<svg width="20" height="20" viewBox="0 0 20 20" fill="none" xmlns="http://www.w3.org/2000/svg">
<path d="M17.2273 15.4641C17.5485 15.048 17.7466 14.5502 17.7992 14.0272C17.8518 13.5043 17.7568 12.977 17.525 12.5053C17.2931 12.0336 16.9338 11.6363 16.4876 11.3584C16.0415 11.0805 15.5264 10.9333 15.0008 10.9333C14.4752 10.9333 13.9601 11.0805 13.5139 11.3584C13.0678 11.6363 12.7084 12.0336 12.4766 12.5053C12.2448 12.977 12.1498 13.5043 12.2024 14.0272C12.255 14.5502 12.4531 15.048 12.7742 15.4641C12.1986 15.9208 11.7854 16.5509 11.5961 17.2609C11.5325 17.5012 11.5668 17.7569 11.6917 17.9718C11.8165 18.1867 12.0215 18.3432 12.2617 18.407C12.3395 18.4276 12.4196 18.4378 12.5 18.4375C12.7066 18.4374 12.9074 18.369 13.0712 18.2429C13.2349 18.1169 13.3524 17.9403 13.4055 17.7406C13.5938 17.0469 14.2461 16.5625 15 16.5625C15.7539 16.5625 16.4062 17.0469 16.5938 17.7406C16.6609 17.9773 16.8183 18.178 17.0321 18.2996C17.246 18.4213 17.499 18.454 17.7367 18.3907C17.9744 18.3275 18.1777 18.1733 18.3028 17.9616C18.4279 17.7498 18.4648 17.4973 18.4055 17.2586C18.2159 16.5493 17.8028 15.92 17.2273 15.4641ZM15 12.8125C15.1854 12.8125 15.3667 12.8675 15.5208 12.9705C15.675 13.0735 15.7952 13.2199 15.8661 13.3912C15.9371 13.5625 15.9557 13.751 15.9195 13.9329C15.8833 14.1148 15.794 14.2818 15.6629 14.4129C15.5318 14.544 15.3648 14.6333 15.1829 14.6695C15.001 14.7057 14.8125 14.6871 14.6412 14.6161C14.4699 14.5452 14.3235 14.425 14.2205 14.2708C14.1175 14.1167 14.0625 13.9354 14.0625 13.75C14.0625 13.5014 14.1613 13.2629 14.3371 13.0871C14.5129 12.9113 14.7514 12.8125 15 12.8125ZM18.4375 6.875V8.4375C18.4375 8.68614 18.3387 8.9246 18.1629 9.10041C17.9871 9.27623 17.7486 9.375 17.5 9.375C17.2514 9.375 17.0129 9.27623 16.8371 9.10041C16.6613 8.9246 16.5625 8.68614 16.5625 8.4375V7.1875H10.2086C9.87061 7.18694 9.54182 7.07734 9.27109 6.875L7.1875 5.3125H3.4375V15.3125H8.75C8.99864 15.3125 9.2371 15.4113 9.41291 15.5871C9.58873 15.7629 9.6875 16.0014 9.6875 16.25C9.6875 16.4986 9.58873 16.7371 9.41291 16.9129C9.2371 17.0887 8.99864 17.1875 8.75 17.1875H3.125C2.7106 17.1875 2.31317 17.0229 2.02015 16.7299C1.72712 16.4368 1.5625 16.0394 1.5625 15.625V5C1.5625 4.5856 1.72712 4.18817 2.02015 3.89515C2.31317 3.60212 2.7106 3.4375 3.125 3.4375H7.29141C7.62938 3.43817 7.95813 3.54776 8.22891 3.75L10.3125 5.3125H16.875C17.2894 5.3125 17.6868 5.47712 17.9799 5.77015C18.2729 6.06317 18.4375 6.4606 18.4375 6.875Z" fill="#191F2E"/>
</svg>
