<svg width="20" height="20" viewBox="0 0 20 20" fill="none" xmlns="http://www.w3.org/2000/svg">
<path d="M10 16.25C10 16.4158 9.93415 16.5747 9.81694 16.6919C9.69973 16.8092 9.54076 16.875 9.375 16.875H3.125C2.79348 16.875 2.47554 16.7433 2.24112 16.5089C2.0067 16.2745 1.875 15.9565 1.875 15.625V5C1.875 4.66848 2.0067 4.35054 2.24112 4.11612C2.47554 3.8817 2.79348 3.75 3.125 3.75H7.29141C7.56176 3.75067 7.82472 3.83832 8.04141 4L10.2086 5.625H16.875C17.2065 5.625 17.5245 5.7567 17.7589 5.99112C17.9933 6.22554 18.125 6.54348 18.125 6.875V9.375C18.125 9.54076 18.0592 9.69973 17.9419 9.81694C17.8247 9.93415 17.6658 10 17.5 10C17.3342 10 17.1753 9.93415 17.0581 9.81694C16.9408 9.69973 16.875 9.54076 16.875 9.375V6.875H10.2086C9.93824 6.87433 9.67528 6.78668 9.45859 6.625L7.29141 5H3.125V15.625H9.375C9.54076 15.625 9.69973 15.6908 9.81694 15.8081C9.93415 15.9253 10 16.0842 10 16.25ZM18.5227 13.1078L16.7641 14.5602L17.2992 16.725C17.3286 16.8444 17.3221 16.9697 17.2806 17.0854C17.2391 17.2011 17.1644 17.302 17.0658 17.3755C16.9673 17.449 16.8492 17.4917 16.7265 17.4984C16.6038 17.5052 16.4818 17.4755 16.3758 17.4133L14.375 16.2359L12.3742 17.4133C12.2682 17.4755 12.1462 17.5052 12.0235 17.4984C11.9008 17.4917 11.7827 17.449 11.6842 17.3755C11.5856 17.302 11.5109 17.2011 11.4694 17.0854C11.4279 16.9697 11.4214 16.8444 11.4508 16.725L11.9859 14.5602L10.2273 13.1078C10.1314 13.0285 10.0614 12.9224 10.0262 12.803C9.991 12.6836 9.99223 12.5565 10.0297 12.4378C10.0673 12.3191 10.1393 12.2144 10.2368 12.1369C10.3342 12.0595 10.4525 12.0129 10.5766 12.0031L12.9078 11.8227L13.8008 9.75234C13.849 9.64006 13.9291 9.54439 14.0312 9.47717C14.1333 9.40995 14.2528 9.37412 14.375 9.37412C14.4972 9.37412 14.6167 9.40995 14.7188 9.47717C14.8209 9.54439 14.901 9.64006 14.9492 9.75234L15.8422 11.8227L18.1734 12.0031C18.2975 12.0129 18.4158 12.0595 18.5132 12.1369C18.6107 12.2144 18.6827 12.3191 18.7203 12.4378C18.7578 12.5565 18.759 12.6836 18.7238 12.803C18.6886 12.9224 18.6186 13.0285 18.5227 13.1078ZM16.5328 13.1297L15.3695 13.0398C15.2561 13.0311 15.1471 12.9916 15.0545 12.9255C14.9618 12.8594 14.8889 12.7693 14.8438 12.6648L14.375 11.5773L13.9062 12.6648C13.8611 12.7693 13.7882 12.8594 13.6955 12.9255C13.6029 12.9916 13.4939 13.0311 13.3805 13.0398L12.2172 13.1297L13.0852 13.8469C13.1761 13.9218 13.244 14.0209 13.281 14.1327C13.3181 14.2445 13.3227 14.3645 13.2945 14.4789L13.0211 15.582L14.0578 14.9719C14.1539 14.9153 14.2634 14.8854 14.375 14.8854C14.4866 14.8854 14.5961 14.9153 14.6922 14.9719L15.7289 15.582L15.4555 14.4789C15.4273 14.3645 15.4319 14.2445 15.469 14.1327C15.506 14.0209 15.5739 13.9218 15.6648 13.8469L16.5328 13.1297Z" fill="#191F2E"/>
</svg>
