<svg width="20" height="20" viewBox="0 0 20 20" fill="none" xmlns="http://www.w3.org/2000/svg">
<path d="M8.125 10.3125H11.875C12.1236 10.3125 12.3621 10.4113 12.5379 10.5871C12.7137 10.7629 12.8125 11.0014 12.8125 11.25C12.8125 11.4986 12.7137 11.7371 12.5379 11.9129C12.3621 12.0887 12.1236 12.1875 11.875 12.1875H8.125C7.87636 12.1875 7.6379 12.0887 7.46209 11.9129C7.28627 11.7371 7.1875 11.4986 7.1875 11.25C7.1875 11.0014 7.28627 10.7629 7.46209 10.5871C7.6379 10.4113 7.87636 10.3125 8.125 10.3125ZM18.4375 6.875V15.6945C18.4371 16.0904 18.2797 16.4699 17.9998 16.7498C17.7199 17.0297 17.3404 17.1871 16.9445 17.1875H3.125C2.7106 17.1875 2.31317 17.0229 2.02015 16.7299C1.72712 16.4368 1.5625 16.0394 1.5625 15.625V5C1.5625 4.5856 1.72712 4.18817 2.02015 3.89515C2.31317 3.60212 2.7106 3.4375 3.125 3.4375H7.29141C7.62938 3.43817 7.95813 3.54776 8.22891 3.75L10.3125 5.3125H16.875C17.2894 5.3125 17.6868 5.47712 17.9799 5.77015C18.2729 6.06317 18.4375 6.4606 18.4375 6.875ZM16.5625 7.1875H10.2086C9.87062 7.18683 9.54187 7.07724 9.27109 6.875L7.1875 5.3125H3.4375V15.3125H16.5625V7.1875Z" fill="#191F2E"/>
</svg>
