<svg width="20" height="20" viewBox="0 0 20 20" fill="none" xmlns="http://www.w3.org/2000/svg">
<path d="M16.875 5.625H10.2078L8.04062 4C7.82468 3.83804 7.56212 3.75034 7.29219 3.75H3.125C2.79348 3.75 2.47554 3.8817 2.24112 4.11612C2.0067 4.35054 1.875 4.66848 1.875 5V15.625C1.875 15.9565 2.0067 16.2745 2.24112 16.5089C2.47554 16.7433 2.79348 16.875 3.125 16.875H16.875C17.2065 16.875 17.5245 16.7433 17.7589 16.5089C17.9933 16.2745 18.125 15.9565 18.125 15.625V6.875C18.125 6.54348 17.9933 6.22554 17.7589 5.99112C17.5245 5.7567 17.2065 5.625 16.875 5.625ZM3.125 7.5V5H7.29219L8.95859 6.25L7.29141 7.5H3.125ZM11.875 12.5H10.625V13.75C10.625 13.9158 10.5592 14.0747 10.4419 14.1919C10.3247 14.3092 10.1658 14.375 10 14.375C9.83424 14.375 9.67527 14.3092 9.55806 14.1919C9.44085 14.0747 9.375 13.9158 9.375 13.75V12.5H8.125C7.95924 12.5 7.80027 12.4342 7.68306 12.3169C7.56585 12.1997 7.5 12.0408 7.5 11.875C7.5 11.7092 7.56585 11.5503 7.68306 11.4331C7.80027 11.3158 7.95924 11.25 8.125 11.25H9.375V10C9.375 9.83424 9.44085 9.67527 9.55806 9.55806C9.67527 9.44085 9.83424 9.375 10 9.375C10.1658 9.375 10.3247 9.44085 10.4419 9.55806C10.5592 9.67527 10.625 9.83424 10.625 10V11.25H11.875C12.0408 11.25 12.1997 11.3158 12.3169 11.4331C12.4342 11.5503 12.5 11.7092 12.5 11.875C12.5 12.0408 12.4342 12.1997 12.3169 12.3169C12.1997 12.4342 12.0408 12.5 11.875 12.5Z" fill="#191F2E"/>
</svg>
