<svg width="20" height="20" viewBox="0 0 20 20" fill="none" xmlns="http://www.w3.org/2000/svg">
<path d="M9.375 16.25C9.375 16.4986 9.27623 16.7371 9.10041 16.9129C8.9246 17.0887 8.68614 17.1875 8.4375 17.1875H3.125C2.7106 17.1875 2.31317 17.0229 2.02015 16.7299C1.72712 16.4368 1.5625 16.0394 1.5625 15.625V5C1.5625 4.5856 1.72712 4.18817 2.02015 3.89515C2.31317 3.60212 2.7106 3.4375 3.125 3.4375H7.29141C7.62938 3.43817 7.95813 3.54776 8.22891 3.75L10.3125 5.3125H16.875C17.2894 5.3125 17.6868 5.47712 17.9799 5.77015C18.2729 6.06317 18.4375 6.4606 18.4375 6.875V8.4375C18.4375 8.68614 18.3387 8.9246 18.1629 9.10041C17.9871 9.27623 17.7486 9.375 17.5 9.375C17.2514 9.375 17.0129 9.27623 16.8371 9.10041C16.6613 8.9246 16.5625 8.68614 16.5625 8.4375V7.1875H10.2086C9.87062 7.18683 9.54187 7.07724 9.27109 6.875L7.1875 5.3125H3.4375V15.3125H8.4375C8.68614 15.3125 8.9246 15.4113 9.10041 15.5871C9.27623 15.7629 9.375 16.0014 9.375 16.25ZM18.7219 13.3492L17.1141 14.6773L17.6023 16.6508C17.6465 16.8299 17.6369 17.018 17.5747 17.1916C17.5124 17.3652 17.4004 17.5166 17.2525 17.6269C17.1047 17.7371 16.9276 17.8013 16.7434 17.8114C16.5592 17.8215 16.3762 17.777 16.2172 17.6836L14.375 16.5984L12.5328 17.6828C12.3738 17.7762 12.1908 17.8207 12.0066 17.8106C11.8224 17.8005 11.6453 17.7363 11.4975 17.6261C11.3496 17.5158 11.2376 17.3644 11.1753 17.1908C11.1131 17.0172 11.1035 16.8291 11.1477 16.65L11.6359 14.6766L10.0281 13.3484C9.88396 13.2295 9.77865 13.0701 9.72572 12.8908C9.6728 12.7115 9.67467 12.5205 9.7311 12.3423C9.78754 12.1641 9.89595 12.0069 10.0424 11.8907C10.1889 11.7746 10.3667 11.7049 10.5531 11.6906L12.6953 11.525L13.5156 9.62812C13.5886 9.46085 13.7087 9.3185 13.8614 9.21853C14.014 9.11855 14.1925 9.0653 14.375 9.0653C14.5575 9.0653 14.736 9.11855 14.8886 9.21853C15.0413 9.3185 15.1614 9.46085 15.2344 9.62812L16.0531 11.5258L18.1953 11.6914C18.3817 11.7057 18.5595 11.7754 18.706 11.8915C18.8525 12.0077 18.9609 12.1649 19.0173 12.3431C19.0738 12.5213 19.0756 12.7123 19.0227 12.8916C18.9698 13.0709 18.8645 13.2302 18.7203 13.3492H18.7219ZM15.7375 13.382L15.3469 13.3516C15.1766 13.3384 15.0133 13.2789 14.8743 13.1796C14.7354 13.0804 14.6262 12.9451 14.5586 12.7883L14.3766 12.3664L14.1945 12.7883C14.1268 12.9452 14.0175 13.0806 13.8785 13.1798C13.7394 13.2791 13.5758 13.3385 13.4055 13.3516L13.0148 13.382L13.2867 13.6063C13.4227 13.7188 13.5242 13.8674 13.5795 14.035C13.6348 14.2027 13.6416 14.3825 13.5992 14.5539L13.5047 14.9359L13.9008 14.7016C14.045 14.6166 14.2092 14.5719 14.3766 14.5719C14.5439 14.5719 14.7082 14.6166 14.8523 14.7016L15.2484 14.9359L15.1562 14.5539C15.1138 14.3825 15.1207 14.2027 15.1759 14.035C15.2312 13.8674 15.3327 13.7188 15.4688 13.6063L15.7375 13.382Z" fill="#191F2E"/>
</svg>
