<svg width="20" height="20" viewBox="0 0 20 20" fill="none" xmlns="http://www.w3.org/2000/svg">
<path d="M17.8125 4.375H12.5L10.4164 2.8125C10.1456 2.61026 9.81688 2.50067 9.47891 2.5H5.9375C5.5231 2.5 5.12567 2.66462 4.83265 2.95765C4.53962 3.25067 4.375 3.6481 4.375 4.0625V5.625H2.8125C2.3981 5.625 2.00067 5.78962 1.70765 6.08265C1.41462 6.37567 1.25 6.7731 1.25 7.1875V15.9375C1.25 16.3519 1.41462 16.7493 1.70765 17.0424C2.00067 17.3354 2.3981 17.5 2.8125 17.5H14.757C15.1529 17.4996 15.5324 17.3422 15.8123 17.0623C16.0922 16.7824 16.2496 16.4029 16.25 16.007V14.375H17.882C18.2779 14.3746 18.6574 14.2172 18.9373 13.9373C19.2172 13.6574 19.3746 13.2779 19.375 12.882V5.9375C19.375 5.5231 19.2104 5.12567 18.9174 4.83265C18.6243 4.53962 18.2269 4.375 17.8125 4.375ZM14.375 15.625H3.125V7.5H6.25L8.33359 9.0625C8.60437 9.26474 8.93312 9.37433 9.27109 9.375H14.375V15.625ZM17.5 12.5H16.25V9.0625C16.25 8.6481 16.0854 8.25067 15.7924 7.95765C15.4993 7.66462 15.1019 7.5 14.6875 7.5H9.375L7.29141 5.9375C7.02063 5.73526 6.69188 5.62567 6.35391 5.625H6.25V4.375H9.375L11.4586 5.9375C11.7294 6.13974 12.0581 6.24933 12.3961 6.25H17.5V12.5Z" fill="#191F2E"/>
</svg>
