<svg width="20" height="20" viewBox="0 0 20 20" fill="none" xmlns="http://www.w3.org/2000/svg">
<path d="M17.5 11.875H17.1875V11.5625C17.1875 10.8995 16.9241 10.2636 16.4553 9.79474C15.9864 9.3259 15.3505 9.06251 14.6875 9.06251C14.0245 9.06251 13.3886 9.3259 12.9197 9.79474C12.4509 10.2636 12.1875 10.8995 12.1875 11.5625V11.875H11.875C11.6264 11.875 11.3879 11.9738 11.2121 12.1496C11.0363 12.3254 10.9375 12.5639 10.9375 12.8125V16.25C10.9375 16.4986 11.0363 16.7371 11.2121 16.9129C11.3879 17.0887 11.6264 17.1875 11.875 17.1875H17.5C17.7486 17.1875 17.9871 17.0887 18.1629 16.9129C18.3387 16.7371 18.4375 16.4986 18.4375 16.25V12.8125C18.4375 12.5639 18.3387 12.3254 18.1629 12.1496C17.9871 11.9738 17.7486 11.875 17.5 11.875ZM14.0625 11.5625C14.0625 11.3967 14.1283 11.2378 14.2456 11.1206C14.3628 11.0034 14.5217 10.9375 14.6875 10.9375C14.8533 10.9375 15.0122 11.0034 15.1294 11.1206C15.2467 11.2378 15.3125 11.3967 15.3125 11.5625V11.875H14.0625V11.5625ZM16.5625 15.3125H12.8125V13.75H16.5625V15.3125ZM16.875 5.31251H10.4211L8.38984 3.02422C8.24278 2.85884 8.06226 2.72658 7.86023 2.6362C7.65821 2.54583 7.43929 2.49941 7.21797 2.50001H3.125C2.7106 2.50001 2.31317 2.66463 2.02015 2.95765C1.72712 3.25068 1.5625 3.6481 1.5625 4.06251V15.6734C1.56312 16.0748 1.72284 16.4596 2.00664 16.7434C2.29045 17.0272 2.6752 17.1869 3.07656 17.1875H8.16875C8.41739 17.1875 8.65585 17.0887 8.83166 16.9129C9.00748 16.7371 9.10625 16.4986 9.10625 16.25C9.10625 16.0014 9.00748 15.7629 8.83166 15.5871C8.65585 15.4113 8.41739 15.3125 8.16875 15.3125H3.4375V7.18751H16.5625C16.5625 7.43615 16.6613 7.6746 16.8371 7.85042C17.0129 8.02623 17.2514 8.12501 17.5 8.12501C17.7486 8.12501 17.9871 8.02623 18.1629 7.85042C18.3387 7.6746 18.4375 7.43615 18.4375 7.18751V6.87501C18.4375 6.4606 18.2729 6.06318 17.9799 5.77015C17.6868 5.47713 17.2894 5.31251 16.875 5.31251ZM3.4375 5.31251V4.37501H7.07891L7.9125 5.31251H3.4375Z" fill="#191F2E"/>
</svg>
