<svg width="20" height="20" viewBox="0 0 20 20" fill="none" xmlns="http://www.w3.org/2000/svg">
<path d="M16.875 5.3125H10.3125L8.22891 3.75C7.95813 3.54776 7.62938 3.43817 7.29141 3.4375H3.125C2.7106 3.4375 2.31317 3.60212 2.02015 3.89515C1.72712 4.18817 1.5625 4.5856 1.5625 5V15.625C1.5625 16.0394 1.72712 16.4368 2.02015 16.7299C2.31317 17.0229 2.7106 17.1875 3.125 17.1875H16.875C17.2894 17.1875 17.6868 17.0229 17.9799 16.7299C18.2729 16.4368 18.4375 16.0394 18.4375 15.625V6.875C18.4375 6.4606 18.2729 6.06317 17.9799 5.77015C17.6868 5.47712 17.2894 5.3125 16.875 5.3125ZM3.4375 5.3125H7.1875L8.4375 6.25L7.1875 7.1875H3.4375V5.3125ZM16.5625 15.3125H3.4375V9.0625H7.29141C7.62938 9.06183 7.95813 8.95224 8.22891 8.75L10.3125 7.1875H16.5625V15.3125ZM10.9375 9.6875V10.625H11.875C12.1236 10.625 12.3621 10.7238 12.5379 10.8996C12.7137 11.0754 12.8125 11.3139 12.8125 11.5625C12.8125 11.8111 12.7137 12.0496 12.5379 12.2254C12.3621 12.4012 12.1236 12.5 11.875 12.5H10.9375V13.4375C10.9375 13.6861 10.8387 13.9246 10.6629 14.1004C10.4871 14.2762 10.2486 14.375 10 14.375C9.75136 14.375 9.5129 14.2762 9.33709 14.1004C9.16127 13.9246 9.0625 13.6861 9.0625 13.4375V12.5H8.125C7.87636 12.5 7.6379 12.4012 7.46209 12.2254C7.28627 12.0496 7.1875 11.8111 7.1875 11.5625C7.1875 11.3139 7.28627 11.0754 7.46209 10.8996C7.6379 10.7238 7.87636 10.625 8.125 10.625H9.0625V9.6875C9.0625 9.43886 9.16127 9.2004 9.33709 9.02459C9.5129 8.84877 9.75136 8.75 10 8.75C10.2486 8.75 10.4871 8.84877 10.6629 9.02459C10.8387 9.2004 10.9375 9.43886 10.9375 9.6875Z" fill="#191F2E"/>
</svg>
