<svg width="20" height="20" viewBox="0 0 20 20" fill="none" xmlns="http://www.w3.org/2000/svg">
<path d="M1.875 6.25V5C1.875 4.66848 2.0067 4.35054 2.24112 4.11612C2.47554 3.8817 2.79348 3.75 3.125 3.75H7.29141C7.56176 3.75067 7.82472 3.83832 8.04141 4L10.375 5.75C10.4799 5.82871 10.5575 5.93844 10.5966 6.06365C10.6357 6.18886 10.6344 6.3232 10.5929 6.44764C10.5514 6.57209 10.4719 6.68033 10.3654 6.75703C10.259 6.83373 10.1312 6.875 10 6.875H2.5C2.33424 6.875 2.17527 6.80915 2.05806 6.69194C1.94085 6.57473 1.875 6.41576 1.875 6.25ZM6.875 15.625H3.125V15C3.125 14.8342 3.05915 14.6753 2.94194 14.5581C2.82473 14.4408 2.66576 14.375 2.5 14.375C2.33424 14.375 2.17527 14.4408 2.05806 14.5581C1.94085 14.6753 1.875 14.8342 1.875 15V15.6734C1.87541 15.992 2.00214 16.2974 2.22739 16.5226C2.45263 16.7479 2.75802 16.8746 3.07656 16.875H6.875C7.04076 16.875 7.19973 16.8092 7.31694 16.6919C7.43415 16.5747 7.5 16.4158 7.5 16.25C7.5 16.0842 7.43415 15.9253 7.31694 15.8081C7.19973 15.6908 7.04076 15.625 6.875 15.625ZM12.5 15.625H10C9.83424 15.625 9.67527 15.6908 9.55806 15.8081C9.44085 15.9253 9.375 16.0842 9.375 16.25C9.375 16.4158 9.44085 16.5747 9.55806 16.6919C9.67527 16.8092 9.83424 16.875 10 16.875H12.5C12.6658 16.875 12.8247 16.8092 12.9419 16.6919C13.0592 16.5747 13.125 16.4158 13.125 16.25C13.125 16.0842 13.0592 15.9253 12.9419 15.8081C12.8247 15.6908 12.6658 15.625 12.5 15.625ZM17.5 11.25C17.3342 11.25 17.1753 11.3158 17.0581 11.4331C16.9408 11.5503 16.875 11.7092 16.875 11.875V15.625H15.625C15.4592 15.625 15.3003 15.6908 15.1831 15.8081C15.0658 15.9253 15 16.0842 15 16.25C15 16.4158 15.0658 16.5747 15.1831 16.6919C15.3003 16.8092 15.4592 16.875 15.625 16.875H16.9445C17.2575 16.8746 17.5575 16.7501 17.7788 16.5288C18.0001 16.3075 18.1246 16.0075 18.125 15.6945V11.875C18.125 11.7092 18.0592 11.5503 17.9419 11.4331C17.8247 11.3158 17.6658 11.25 17.5 11.25ZM16.875 5.625H13.125C12.9592 5.625 12.8003 5.69085 12.6831 5.80806C12.5658 5.92527 12.5 6.08424 12.5 6.25C12.5 6.41576 12.5658 6.57473 12.6831 6.69194C12.8003 6.80915 12.9592 6.875 13.125 6.875H16.875V8.75C16.875 8.91576 16.9408 9.07473 17.0581 9.19194C17.1753 9.30915 17.3342 9.375 17.5 9.375C17.6658 9.375 17.8247 9.30915 17.9419 9.19194C18.0592 9.07473 18.125 8.91576 18.125 8.75V6.875C18.125 6.54348 17.9933 6.22554 17.7589 5.99112C17.5245 5.7567 17.2065 5.625 16.875 5.625ZM2.5 12.5C2.66576 12.5 2.82473 12.4342 2.94194 12.3169C3.05915 12.1997 3.125 12.0408 3.125 11.875V9.375C3.125 9.20924 3.05915 9.05027 2.94194 8.93306C2.82473 8.81585 2.66576 8.75 2.5 8.75C2.33424 8.75 2.17527 8.81585 2.05806 8.93306C1.94085 9.05027 1.875 9.20924 1.875 9.375V11.875C1.875 12.0408 1.94085 12.1997 2.05806 12.3169C2.17527 12.4342 2.33424 12.5 2.5 12.5Z" fill="#191F2E"/>
</svg>
