<svg width="20" height="20" viewBox="0 0 20 20" fill="none" xmlns="http://www.w3.org/2000/svg">
<path d="M12.5 11.25C12.5 11.4158 12.4342 11.5747 12.3169 11.6919C12.1997 11.8092 12.0408 11.875 11.875 11.875H8.125C7.95924 11.875 7.80027 11.8092 7.68306 11.6919C7.56585 11.5747 7.5 11.4158 7.5 11.25C7.5 11.0842 7.56585 10.9253 7.68306 10.8081C7.80027 10.6908 7.95924 10.625 8.125 10.625H11.875C12.0408 10.625 12.1997 10.6908 12.3169 10.8081C12.4342 10.9253 12.5 11.0842 12.5 11.25ZM18.125 6.875V15.6945C18.1246 16.0075 18.0001 16.3075 17.7788 16.5288C17.5575 16.7501 17.2575 16.8746 16.9445 16.875H3.125C2.79348 16.875 2.47554 16.7433 2.24112 16.5089C2.0067 16.2745 1.875 15.9565 1.875 15.625V5C1.875 4.66848 2.0067 4.35054 2.24112 4.11612C2.47554 3.8817 2.79348 3.75 3.125 3.75H7.29141C7.56176 3.75067 7.82472 3.83832 8.04141 4L10.2086 5.625H16.875C17.2065 5.625 17.5245 5.7567 17.7589 5.99112C17.9933 6.22554 18.125 6.54348 18.125 6.875ZM16.875 6.875H10.2086C9.93824 6.87433 9.67528 6.78668 9.45859 6.625L7.29141 5H3.125V15.625H16.875V6.875Z" fill="#191F2E"/>
</svg>
