<svg width="20" height="20" viewBox="0 0 20 20" fill="none" xmlns="http://www.w3.org/2000/svg">
<path d="M16.7664 15.5172C17.1163 15.1677 17.3547 14.7222 17.4514 14.2372C17.5481 13.7522 17.4987 13.2494 17.3096 12.7924C17.1204 12.3354 16.8 11.9448 16.3888 11.67C15.9776 11.3951 15.4942 11.2485 14.9996 11.2485C14.505 11.2485 14.0216 11.3951 13.6104 11.67C13.1992 11.9448 12.8788 12.3354 12.6896 12.7924C12.5005 13.2494 12.4512 13.7522 12.5478 14.2372C12.6445 14.7222 12.8829 15.1677 13.2328 15.5172C12.5756 15.9365 12.0988 16.5863 11.8961 17.3391C11.8534 17.4992 11.8761 17.6698 11.9592 17.8132C12.0423 17.9567 12.1789 18.0612 12.3391 18.1039C12.3916 18.1178 12.4457 18.1249 12.5 18.125C12.6378 18.125 12.7718 18.0793 12.881 17.9953C12.9902 17.9112 13.0686 17.7934 13.1039 17.6602C13.325 16.8297 14.1047 16.25 15 16.25C15.8953 16.25 16.675 16.8297 16.8961 17.6602C16.9159 17.7409 16.9516 17.8168 17.0011 17.8836C17.0505 17.9503 17.1128 18.0065 17.1843 18.0489C17.2558 18.0913 17.335 18.119 17.4173 18.1304C17.4996 18.1418 17.5834 18.1367 17.6637 18.1153C17.744 18.094 17.8192 18.0569 17.885 18.0061C17.9508 17.9553 18.0058 17.8919 18.0468 17.8196C18.0878 17.7474 18.1139 17.6676 18.1237 17.5851C18.1336 17.5026 18.1268 17.4189 18.1039 17.3391C17.901 16.5862 17.4239 15.9363 16.7664 15.5172ZM15 12.5C15.2472 12.5 15.4889 12.5733 15.6945 12.7107C15.9 12.848 16.0602 13.0432 16.1548 13.2717C16.2495 13.5001 16.2742 13.7514 16.226 13.9939C16.1777 14.2363 16.0587 14.4591 15.8839 14.6339C15.7091 14.8087 15.4863 14.9278 15.2439 14.976C15.0014 15.0242 14.7501 14.9995 14.5216 14.9049C14.2932 14.8102 14.098 14.65 13.9607 14.4445C13.8233 14.2389 13.75 13.9972 13.75 13.75C13.75 13.4185 13.8817 13.1005 14.1161 12.8661C14.3505 12.6317 14.6685 12.5 15 12.5ZM16.875 5.62501H10.2586L8.125 3.49141C8.00935 3.37483 7.87167 3.28241 7.71999 3.21951C7.5683 3.1566 7.40562 3.12448 7.24141 3.12501H3.125C2.79348 3.12501 2.47554 3.2567 2.24112 3.49112C2.0067 3.72554 1.875 4.04349 1.875 4.37501V15.6727C1.87521 15.9913 2.00184 16.2969 2.22711 16.5223C2.45238 16.7478 2.75788 16.8746 3.07656 16.875H9.41875C9.58451 16.875 9.74348 16.8092 9.86069 16.6919C9.9779 16.5747 10.0437 16.4158 10.0437 16.25C10.0437 16.0842 9.9779 15.9253 9.86069 15.8081C9.74348 15.6909 9.58451 15.625 9.41875 15.625H3.125V6.87501H16.875V9.37501C16.875 9.54077 16.9408 9.69974 17.0581 9.81695C17.1753 9.93416 17.3342 10 17.5 10C17.6658 10 17.8247 9.93416 17.9419 9.81695C18.0592 9.69974 18.125 9.54077 18.125 9.37501V6.87501C18.125 6.54349 17.9933 6.22554 17.7589 5.99112C17.5245 5.7567 17.2065 5.62501 16.875 5.62501ZM7.24141 4.37501L8.49141 5.62501H3.125V4.37501H7.24141Z" fill="#191F2E"/>
</svg>
