<svg width="20" height="20" viewBox="0 0 20 20" fill="none" xmlns="http://www.w3.org/2000/svg">
<path d="M16.875 5.3125H10.3125L8.22891 3.75C7.95813 3.54776 7.62938 3.43817 7.29141 3.4375H3.125C2.7106 3.4375 2.31317 3.60212 2.02015 3.89515C1.72712 4.18817 1.5625 4.5856 1.5625 5V15.625C1.5625 16.0394 1.72712 16.4368 2.02015 16.7299C2.31317 17.0229 2.7106 17.1875 3.125 17.1875H16.9445C17.3404 17.1871 17.7199 17.0297 17.9998 16.7498C18.2797 16.4699 18.4371 16.0904 18.4375 15.6945V6.875C18.4375 6.4606 18.2729 6.06317 17.9799 5.77015C17.6868 5.47712 17.2894 5.3125 16.875 5.3125ZM16.5625 15.3125H3.4375V5.3125H7.1875L9.27109 6.875C9.54187 7.07724 9.87062 7.18683 10.2086 7.1875H16.5625V15.3125ZM10 8.4375C10.2486 8.4375 10.4871 8.53627 10.6629 8.71209C10.8387 8.8879 10.9375 9.12636 10.9375 9.375V10.3125H11.875C12.1236 10.3125 12.3621 10.4113 12.5379 10.5871C12.7137 10.7629 12.8125 11.0014 12.8125 11.25C12.8125 11.4986 12.7137 11.7371 12.5379 11.9129C12.3621 12.0887 12.1236 12.1875 11.875 12.1875H10.9375V13.125C10.9375 13.3736 10.8387 13.6121 10.6629 13.7879C10.4871 13.9637 10.2486 14.0625 10 14.0625C9.75136 14.0625 9.5129 13.9637 9.33709 13.7879C9.16127 13.6121 9.0625 13.3736 9.0625 13.125V12.1875H8.125C7.87636 12.1875 7.6379 12.0887 7.46209 11.9129C7.28627 11.7371 7.1875 11.4986 7.1875 11.25C7.1875 11.0014 7.28627 10.7629 7.46209 10.5871C7.6379 10.4113 7.87636 10.3125 8.125 10.3125H9.0625V9.375C9.0625 9.12636 9.16127 8.8879 9.33709 8.71209C9.5129 8.53627 9.75136 8.4375 10 8.4375Z" fill="#191F2E"/>
</svg>
