<svg width="20" height="20" viewBox="0 0 20 20" fill="none" xmlns="http://www.w3.org/2000/svg">
<path d="M18.4375 6.875V7.1875C18.4375 7.43614 18.3387 7.6746 18.1629 7.85041C17.9871 8.02623 17.7486 8.125 17.5 8.125C17.2514 8.125 17.0129 8.02623 16.8371 7.85041C16.6613 7.6746 16.5625 7.43614 16.5625 7.1875H10.2086C9.87062 7.18683 9.54187 7.07724 9.27109 6.875L7.1875 5.3125H3.4375V15.3125H8.125C8.37364 15.3125 8.6121 15.4113 8.78791 15.5871C8.96373 15.7629 9.0625 16.0014 9.0625 16.25C9.0625 16.4986 8.96373 16.7371 8.78791 16.9129C8.6121 17.0887 8.37364 17.1875 8.125 17.1875H3.125C2.7106 17.1875 2.31317 17.0229 2.02015 16.7299C1.72712 16.4368 1.5625 16.0394 1.5625 15.625V5C1.5625 4.5856 1.72712 4.18817 2.02015 3.89515C2.31317 3.60212 2.7106 3.4375 3.125 3.4375H7.29141C7.62938 3.43817 7.95813 3.54776 8.22891 3.75L10.3125 5.3125H16.875C17.2894 5.3125 17.6868 5.47712 17.9799 5.77015C18.2729 6.06317 18.4375 6.4606 18.4375 6.875ZM18.4375 12.8125V16.25C18.4375 16.4986 18.3387 16.7371 18.1629 16.9129C17.9871 17.0887 17.7486 17.1875 17.5 17.1875H11.875C11.6264 17.1875 11.3879 17.0887 11.2121 16.9129C11.0363 16.7371 10.9375 16.4986 10.9375 16.25V12.8125C10.9375 12.5639 11.0363 12.3254 11.2121 12.1496C11.3879 11.9738 11.6264 11.875 11.875 11.875H12.1875V11.5625C12.1875 10.8995 12.4509 10.2636 12.9197 9.79473C13.3886 9.32589 14.0245 9.0625 14.6875 9.0625C15.3505 9.0625 15.9864 9.32589 16.4553 9.79473C16.9241 10.2636 17.1875 10.8995 17.1875 11.5625V11.875H17.5C17.7486 11.875 17.9871 11.9738 18.1629 12.1496C18.3387 12.3254 18.4375 12.5639 18.4375 12.8125ZM14.0625 11.875H15.3125V11.5625C15.3125 11.3967 15.2467 11.2378 15.1294 11.1206C15.0122 11.0033 14.8533 10.9375 14.6875 10.9375C14.5217 10.9375 14.3628 11.0033 14.2456 11.1206C14.1283 11.2378 14.0625 11.3967 14.0625 11.5625V11.875ZM16.5625 13.75H12.8125V15.3125H16.5625V13.75Z" fill="#191F2E"/>
</svg>
