<svg width="20" height="20" viewBox="0 0 20 20" fill="none" xmlns="http://www.w3.org/2000/svg">
<path d="M16.8796 15V15.9375C16.8796 16.684 16.5831 17.4 16.0552 17.9279C15.5273 18.4558 14.8113 18.7523 14.0648 18.7523C13.3182 18.7523 12.6023 18.4558 12.0744 17.9279C11.5465 17.4 11.2499 16.684 11.2499 15.9375V15C11.2499 14.8342 11.3158 14.6753 11.433 14.5581C11.5502 14.4408 11.7092 14.375 11.8749 14.375H16.2499C16.3324 14.3744 16.4142 14.3901 16.4906 14.4212C16.5669 14.4524 16.6364 14.4983 16.6949 14.5564C16.7535 14.6145 16.7999 14.6836 16.8316 14.7597C16.8633 14.8359 16.8796 14.9175 16.8796 15ZM8.12495 12.5H3.74995C3.58419 12.5 3.42521 12.5658 3.308 12.6831C3.19079 12.8003 3.12495 12.9592 3.12495 13.125V14.0625C3.12495 14.8084 3.42126 15.5238 3.94871 16.0512C4.47615 16.5787 5.19152 16.875 5.93745 16.875C6.68337 16.875 7.39874 16.5787 7.92618 16.0512C8.45363 15.5238 8.74995 14.8084 8.74995 14.0625V13.125C8.74995 12.9592 8.6841 12.8003 8.56689 12.6831C8.44968 12.5658 8.29071 12.5 8.12495 12.5ZM5.93745 1.25C5.02807 1.25 4.14604 2.05547 3.45307 3.51562C2.36479 5.81094 2.00307 9.21875 3.47573 11.0156C3.53445 11.0873 3.60837 11.145 3.69214 11.1846C3.77592 11.2242 3.86744 11.2447 3.9601 11.2445H7.90932C8.00198 11.2447 8.0935 11.2242 8.17728 11.1846C8.26105 11.145 8.33497 11.0873 8.3937 11.0156C9.86635 9.21875 9.50463 5.80859 8.41635 3.51562C7.7226 2.05547 6.84135 1.25 5.93745 1.25ZM12.0937 13.125H16.0429C16.1356 13.1251 16.2271 13.1047 16.3109 13.0651C16.3946 13.0255 16.4686 12.9678 16.5273 12.8961C17.9999 11.0992 17.6382 7.68906 16.5499 5.39609C15.8539 3.93047 14.9718 3.125 14.0624 3.125C13.1531 3.125 12.2742 3.93047 11.5804 5.39062C10.4921 7.68594 10.1304 11.0938 11.6031 12.8906C11.6616 12.9637 11.7358 13.0227 11.8202 13.0633C11.9045 13.1038 11.9969 13.1249 12.0906 13.125H12.0937Z" fill="#191F2E"/>
</svg>
