<svg width="20" height="20" viewBox="0 0 20 20" fill="none" xmlns="http://www.w3.org/2000/svg">
<path d="M17.8953 4.21022C17.8061 3.68425 17.5555 3.19904 17.1783 2.82181C16.8011 2.44458 16.3158 2.19399 15.7899 2.10476C13.2602 1.67585 8.49378 1.47976 4.98753 4.98757C1.48128 8.49538 1.67581 13.261 2.10472 15.7899C2.19419 16.3164 2.44535 16.802 2.82334 17.1793C3.20134 17.5566 3.68741 17.8069 4.21409 17.8954C5.10015 18.0465 5.99728 18.1233 6.89612 18.1251C9.40316 18.1251 12.525 17.5001 15.0125 15.0126C18.5196 11.5063 18.3242 6.73913 17.8953 4.21022ZM4.41878 16.6641C4.14833 16.6181 3.89885 16.4892 3.70486 16.2952C3.51087 16.1013 3.38197 15.8518 3.33597 15.5813C3.12154 14.3724 3.06612 13.1406 3.17113 11.9173L8.08284 16.829C6.85953 16.934 5.62773 16.8786 4.41878 16.6641ZM12.9407 7.94304L11.8203 9.06257L12.3157 9.55788C12.3774 9.61502 12.427 9.68405 12.4614 9.76082C12.4959 9.83759 12.5145 9.92052 12.5161 10.0046C12.5177 10.0888 12.5023 10.1724 12.4708 10.2504C12.4394 10.3284 12.3925 10.3993 12.3329 10.4588C12.2734 10.5182 12.2025 10.5651 12.1244 10.5965C12.0464 10.6279 11.9628 10.6432 11.8786 10.6415C11.7945 10.6398 11.7116 10.6212 11.6349 10.5867C11.5581 10.5521 11.4892 10.5025 11.4321 10.4407L10.9375 9.94616L9.94613 10.9376L10.4414 11.4329C10.5032 11.49 10.5529 11.559 10.5874 11.6357C10.6219 11.7124 10.6406 11.7953 10.6422 11.8795C10.6439 11.9636 10.6286 12.0472 10.5972 12.1252C10.5658 12.2033 10.519 12.2742 10.4595 12.3338C10.4 12.3933 10.3292 12.4402 10.2511 12.4716C10.1731 12.5031 10.0895 12.5185 10.0054 12.5169C9.92127 12.5153 9.83833 12.4967 9.76156 12.4623C9.68479 12.4278 9.61577 12.3782 9.55863 12.3165L9.06253 11.8204L7.94222 12.9407C7.88476 13.0012 7.81577 13.0495 7.73933 13.0829C7.66288 13.1163 7.58052 13.1341 7.49711 13.1352C7.41369 13.1362 7.33091 13.1206 7.25363 13.0892C7.17636 13.0577 7.10615 13.0111 7.04717 12.9522C6.98818 12.8932 6.94159 12.823 6.91016 12.7457C6.87873 12.6684 6.86309 12.5856 6.86416 12.5022C6.86523 12.4188 6.88298 12.3364 6.91638 12.26C6.94978 12.1835 6.99815 12.1146 7.05863 12.0571L8.17972 10.9376L7.68441 10.4423C7.57482 10.3236 7.51542 10.1671 7.51866 10.0057C7.5219 9.84417 7.58753 9.69021 7.70178 9.57606C7.81604 9.4619 7.97006 9.3964 8.13155 9.39331C8.29303 9.39021 8.44945 9.44975 8.568 9.55944L9.06331 10.0548L10.0539 9.06257L9.55863 8.56726C9.44893 8.4487 9.38939 8.29229 9.39249 8.1308C9.39559 7.96932 9.46108 7.8153 9.57524 7.70104C9.6894 7.58678 9.84335 7.52115 10.0048 7.51791C10.1663 7.51467 10.3228 7.57407 10.4414 7.68366L10.9375 8.17976L12.0578 7.05944C12.1153 6.99896 12.1843 6.9506 12.2607 6.9172C12.3372 6.8838 12.4195 6.86604 12.503 6.86498C12.5864 6.86391 12.6692 6.87955 12.7464 6.91098C12.8237 6.94241 12.8939 6.98899 12.9529 7.04798C13.0119 7.10697 13.0585 7.17717 13.0899 7.25445C13.1213 7.33172 13.137 7.41451 13.1359 7.49793C13.1348 7.58134 13.1171 7.6637 13.0837 7.74015C13.0503 7.81659 13.0019 7.88558 12.9414 7.94304H12.9407ZM16.8289 8.08288L11.9172 3.17116C12.2891 3.13679 12.6766 3.11726 13.0821 3.11726C13.92 3.12021 14.7563 3.19338 15.5821 3.33601C15.8524 3.38215 16.1017 3.51112 16.2955 3.7051C16.4894 3.89907 16.6181 4.14847 16.6641 4.41882C16.8785 5.62777 16.9339 6.85956 16.8289 8.08288Z" fill="#191F2E"/>
</svg>
