<svg width="20" height="20" viewBox="0 0 20 20" fill="none" xmlns="http://www.w3.org/2000/svg">
<path d="M5.625 6.87501V3.12501C5.625 2.95925 5.69085 2.80028 5.80806 2.68307C5.92527 2.56586 6.08424 2.50001 6.25 2.50001C6.41576 2.50001 6.57473 2.56586 6.69194 2.68307C6.80915 2.80028 6.875 2.95925 6.875 3.12501V6.87501C6.875 7.04077 6.80915 7.19974 6.69194 7.31695C6.57473 7.43416 6.41576 7.50001 6.25 7.50001C6.08424 7.50001 5.92527 7.43416 5.80806 7.31695C5.69085 7.19974 5.625 7.04077 5.625 6.87501ZM16.875 3.12501V17.5C16.875 17.6658 16.8092 17.8247 16.6919 17.9419C16.5747 18.0592 16.4158 18.125 16.25 18.125C16.0842 18.125 15.9253 18.0592 15.8081 17.9419C15.6908 17.8247 15.625 17.6658 15.625 17.5V13.75H11.875C11.7092 13.75 11.5503 13.6842 11.4331 13.5669C11.3158 13.4497 11.25 13.2908 11.25 13.125C11.279 11.6279 11.4681 10.1382 11.8141 8.68126C12.5781 5.51798 14.0266 3.39766 16.0039 2.55079C16.0989 2.51008 16.2026 2.49358 16.3056 2.50278C16.4086 2.51197 16.5077 2.54657 16.594 2.60348C16.6803 2.66038 16.7512 2.73781 16.8002 2.82883C16.8493 2.91985 16.875 3.02162 16.875 3.12501ZM15.625 4.21095C13.1117 6.13048 12.6195 10.8063 12.5234 12.5H15.625V4.21095ZM9.3664 3.02266C9.35416 2.9406 9.3257 2.86179 9.28269 2.79084C9.23967 2.71989 9.18295 2.65821 9.11585 2.60941C9.04874 2.5606 8.97259 2.52565 8.89184 2.50659C8.81108 2.48752 8.72734 2.48473 8.64549 2.49837C8.56365 2.51201 8.48534 2.54181 8.41513 2.58604C8.34492 2.63026 8.28422 2.68802 8.23658 2.75595C8.18893 2.82388 8.15528 2.90062 8.1376 2.98169C8.11992 3.06275 8.11856 3.14653 8.13359 3.22813L8.75 6.92423C8.75 7.58727 8.48661 8.22315 8.01777 8.69199C7.54892 9.16084 6.91304 9.42423 6.25 9.42423C5.58696 9.42423 4.95107 9.16084 4.48223 8.69199C4.01339 8.22315 3.75 7.58727 3.75 6.92423L4.36562 3.22813C4.38066 3.14653 4.3793 3.06275 4.36162 2.98169C4.34394 2.90062 4.31029 2.82388 4.26264 2.75595C4.21499 2.68802 4.15429 2.63026 4.08408 2.58604C4.01388 2.54181 3.93557 2.51201 3.85372 2.49837C3.77188 2.48473 3.68813 2.48752 3.60738 2.50659C3.52662 2.52565 3.45047 2.5606 3.38337 2.60941C3.31626 2.65821 3.25955 2.71989 3.21653 2.79084C3.17351 2.86179 3.14505 2.9406 3.13281 3.02266L2.50781 6.77267C2.50246 6.80651 2.49985 6.84074 2.5 6.87501C2.50125 7.7608 2.81556 8.61764 3.38739 9.29412C3.95923 9.9706 4.75178 10.4232 5.625 10.5719V17.5C5.625 17.6658 5.69085 17.8247 5.80806 17.9419C5.92527 18.0592 6.08424 18.125 6.25 18.125C6.41576 18.125 6.57473 18.0592 6.69194 17.9419C6.80915 17.8247 6.875 17.6658 6.875 17.5V10.5719C7.74822 10.4232 8.54077 9.9706 9.1126 9.29412C9.68444 8.61764 9.99875 7.7608 10 6.87501C9.99989 6.84072 9.99701 6.80649 9.9914 6.77267L9.3664 3.02266Z" fill="#191F2E"/>
</svg>
