<svg width="20" height="20" viewBox="0 0 20 20" fill="none" xmlns="http://www.w3.org/2000/svg">
<path d="M5.3125 6.87502V3.12502C5.3125 2.87638 5.41127 2.63792 5.58709 2.4621C5.7629 2.28629 6.00136 2.18752 6.25 2.18752C6.49864 2.18752 6.7371 2.28629 6.91291 2.4621C7.08873 2.63792 7.1875 2.87638 7.1875 3.12502V6.87502C7.1875 7.12366 7.08873 7.36211 6.91291 7.53793C6.7371 7.71375 6.49864 7.81252 6.25 7.81252C6.00136 7.81252 5.7629 7.71375 5.58709 7.53793C5.41127 7.36211 5.3125 7.12366 5.3125 6.87502ZM17.1875 3.12502V17.5C17.1875 17.7487 17.0887 17.9871 16.9129 18.1629C16.7371 18.3387 16.4986 18.4375 16.25 18.4375C16.0014 18.4375 15.7629 18.3387 15.5871 18.1629C15.4113 17.9871 15.3125 17.7487 15.3125 17.5V14.0625H11.875C11.6264 14.0625 11.3879 13.9637 11.2121 13.7879C11.0363 13.6121 10.9375 13.3737 10.9375 13.125C10.9668 11.6032 11.1588 10.0888 11.5102 8.60783C12.2984 5.34533 13.8094 3.1508 15.8805 2.26564C16.0229 2.20456 16.1782 2.17973 16.3326 2.19339C16.487 2.20704 16.6356 2.25875 16.7651 2.3439C16.8945 2.42904 17.0009 2.54495 17.0746 2.68126C17.1484 2.81758 17.1871 2.97004 17.1875 3.12502ZM15.3125 4.91564C14.2656 6.01564 13.6719 7.65627 13.3414 9.01408C13.0941 10.0571 12.9316 11.1183 12.8555 12.1875H15.3125V4.91564ZM10 3.04689C9.97928 2.79825 9.86064 2.56803 9.67017 2.40686C9.4797 2.2457 9.23302 2.1668 8.98438 2.18752C8.73573 2.20824 8.50551 2.32688 8.34434 2.51735C8.18318 2.70781 8.10428 2.9545 8.125 3.20314L8.4375 6.91095C8.4375 7.49112 8.20703 8.04751 7.7968 8.45775C7.38656 8.86799 6.83016 9.09845 6.25 9.09845C5.66984 9.09845 5.11344 8.86799 4.7032 8.45775C4.29297 8.04751 4.0625 7.49112 4.0625 6.91095L4.375 3.20314C4.38526 3.08003 4.37117 2.9561 4.33353 2.83843C4.2959 2.72076 4.23546 2.61166 4.15566 2.51735C4.07585 2.42304 3.97826 2.34537 3.86844 2.28878C3.75863 2.23218 3.63874 2.19778 3.51562 2.18752C3.39251 2.17726 3.26858 2.19135 3.15091 2.22898C3.03324 2.26662 2.92414 2.32706 2.82983 2.40686C2.73552 2.48666 2.65785 2.58426 2.60126 2.69407C2.54467 2.80389 2.51026 2.92378 2.5 3.04689L2.1875 6.79689C2.1875 6.82345 2.1875 6.84924 2.1875 6.87502C2.189 7.789 2.49807 8.67588 3.06495 9.39284C3.63182 10.1098 4.4235 10.6151 5.3125 10.8274V17.5C5.3125 17.7487 5.41127 17.9871 5.58709 18.1629C5.7629 18.3387 6.00136 18.4375 6.25 18.4375C6.49864 18.4375 6.7371 18.3387 6.91291 18.1629C7.08873 17.9871 7.1875 17.7487 7.1875 17.5V10.8274C8.0765 10.6151 8.86818 10.1098 9.43505 9.39284C10.0019 8.67588 10.311 7.789 10.3125 6.87502C10.3125 6.84924 10.3125 6.82345 10.3125 6.79689L10 3.04689Z" fill="#191F2E"/>
</svg>
