<svg width="20" height="20" viewBox="0 0 20 20" fill="none" xmlns="http://www.w3.org/2000/svg">
<path d="M15.625 6.25V8.75C15.625 8.91576 15.5592 9.07473 15.4419 9.19194C15.3247 9.30915 15.1658 9.375 15 9.375C14.8342 9.375 14.6753 9.30915 14.5581 9.19194C14.4408 9.07473 14.375 8.91576 14.375 8.75V6.875H12.5C12.3342 6.875 12.1753 6.80915 12.0581 6.69194C11.9408 6.57473 11.875 6.41576 11.875 6.25C11.875 6.08424 11.9408 5.92527 12.0581 5.80806C12.1753 5.69085 12.3342 5.625 12.5 5.625H15C15.1658 5.625 15.3247 5.69085 15.4419 5.80806C15.5592 5.92527 15.625 6.08424 15.625 6.25ZM7.5 13.125H5.625V11.25C5.625 11.0842 5.55915 10.9253 5.44194 10.8081C5.32473 10.6908 5.16576 10.625 5 10.625C4.83424 10.625 4.67527 10.6908 4.55806 10.8081C4.44085 10.9253 4.375 11.0842 4.375 11.25V13.75C4.375 13.9158 4.44085 14.0747 4.55806 14.1919C4.67527 14.3092 4.83424 14.375 5 14.375H7.5C7.66576 14.375 7.82473 14.3092 7.94194 14.1919C8.05915 14.0747 8.125 13.9158 8.125 13.75C8.125 13.5842 8.05915 13.4253 7.94194 13.3081C7.82473 13.1908 7.66576 13.125 7.5 13.125ZM18.125 4.375V15.625C18.125 15.9565 17.9933 16.2745 17.7589 16.5089C17.5245 16.7433 17.2065 16.875 16.875 16.875H3.125C2.79348 16.875 2.47554 16.7433 2.24112 16.5089C2.0067 16.2745 1.875 15.9565 1.875 15.625V4.375C1.875 4.04348 2.0067 3.72554 2.24112 3.49112C2.47554 3.2567 2.79348 3.125 3.125 3.125H16.875C17.2065 3.125 17.5245 3.2567 17.7589 3.49112C17.9933 3.72554 18.125 4.04348 18.125 4.375ZM16.875 15.625V4.375H3.125V15.625H16.875Z" fill="#191F2E"/>
</svg>
