<svg width="20" height="20" viewBox="0 0 20 20" fill="none" xmlns="http://www.w3.org/2000/svg">
<path d="M15.625 8.125H11.6406L16.0367 12.0313C16.1318 12.1151 16.1992 12.2259 16.2298 12.349C16.2604 12.472 16.2529 12.6015 16.2082 12.7202C16.1636 12.8389 16.0838 12.9411 15.9797 13.0135C15.8755 13.0858 15.7518 13.1247 15.625 13.125H10.625V18.125C10.6251 18.2487 10.5885 18.3696 10.5198 18.4725C10.4511 18.5754 10.3535 18.6555 10.2392 18.7029C10.125 18.7502 9.99922 18.7626 9.87792 18.7385C9.75661 18.7143 9.6452 18.6547 9.55779 18.5672L3.93279 12.9422C3.87477 12.8841 3.82876 12.8152 3.7974 12.7393C3.76603 12.6634 3.74992 12.5821 3.74998 12.5V7.5C3.74998 7.33424 3.81583 7.17527 3.93304 7.05806C4.05025 6.94085 4.20922 6.875 4.37498 6.875H8.35936L3.96014 2.96875C3.86483 2.8847 3.79741 2.77359 3.76686 2.65025C3.73632 2.5269 3.74409 2.39717 3.78916 2.27835C3.83422 2.15954 3.91443 2.05728 4.0191 1.98522C4.12376 1.91316 4.24791 1.87471 4.37498 1.875H15.625C15.7907 1.875 15.9497 1.94085 16.0669 2.05806C16.1841 2.17527 16.25 2.33424 16.25 2.5V7.5C16.25 7.66576 16.1841 7.82473 16.0669 7.94194C15.9497 8.05915 15.7907 8.125 15.625 8.125Z" fill="#191F2E"/>
</svg>
