<svg width="20" height="20" viewBox="0 0 20 20" fill="none" xmlns="http://www.w3.org/2000/svg">
<path d="M16.5625 7.50001V2.50001C16.5625 2.25137 16.4637 2.01292 16.2879 1.8371C16.1121 1.66128 15.8736 1.56251 15.625 1.56251H4.37497C4.18413 1.56151 3.99752 1.61878 3.8401 1.72666C3.68267 1.83455 3.56191 1.98791 3.49397 2.16625C3.42603 2.3446 3.41414 2.53943 3.45989 2.72471C3.50563 2.91 3.60684 3.07691 3.74997 3.20314L7.53435 6.56251H4.37497C4.12633 6.56251 3.88788 6.66128 3.71206 6.8371C3.53624 7.01292 3.43747 7.25137 3.43747 7.50001V12.5C3.43748 12.6232 3.46177 12.7452 3.50896 12.859C3.55614 12.9728 3.6253 13.0762 3.71247 13.1633L9.33747 18.7883C9.46863 18.9193 9.63567 19.0085 9.81749 19.0445C9.99932 19.0806 10.1878 19.062 10.359 18.991C10.5302 18.92 10.6766 18.7999 10.7795 18.6457C10.8825 18.4916 10.9375 18.3104 10.9375 18.125V13.4375H15.625C15.8158 13.4385 16.0024 13.3812 16.1599 13.2734C16.3173 13.1655 16.438 13.0121 16.506 12.8338C16.5739 12.6554 16.5858 12.4606 16.5401 12.2753C16.4943 12.09 16.3931 11.9231 16.25 11.7969L12.4679 8.43751H15.625C15.8736 8.43751 16.1121 8.33874 16.2879 8.16293C16.4637 7.98711 16.5625 7.74865 16.5625 7.50001ZM13.1593 11.5625H9.99997C9.75133 11.5625 9.51288 11.6613 9.33706 11.8371C9.16124 12.0129 9.06247 12.2514 9.06247 12.5V15.8594L5.31247 12.1094V8.43751H9.64372L13.1593 11.5625ZM14.6875 6.56251H10.3562L6.8406 3.43751H14.6875V6.56251Z" fill="#191F2E"/>
</svg>
