<svg width="20" height="20" viewBox="0 0 20 20" fill="none" xmlns="http://www.w3.org/2000/svg">
<path d="M16.25 7.5V2.5C16.25 2.33424 16.1841 2.17527 16.0669 2.05806C15.9497 1.94085 15.7907 1.875 15.625 1.875H4.37498C4.24791 1.87471 4.12376 1.91316 4.0191 1.98522C3.91443 2.05728 3.83422 2.15954 3.78916 2.27835C3.74409 2.39717 3.73632 2.5269 3.76686 2.65025C3.79741 2.77359 3.86483 2.8847 3.96014 2.96875L8.35936 6.875H4.37498C4.20922 6.875 4.05025 6.94085 3.93304 7.05806C3.81583 7.17527 3.74998 7.33424 3.74998 7.5V12.5C3.74992 12.5821 3.76603 12.6634 3.7974 12.7393C3.82876 12.8152 3.87477 12.8841 3.93279 12.9422L9.55779 18.5672C9.6452 18.6547 9.75661 18.7143 9.87792 18.7385C9.99922 18.7626 10.125 18.7502 10.2392 18.7029C10.3535 18.6555 10.4511 18.5754 10.5198 18.4725C10.5885 18.3696 10.6251 18.2487 10.625 18.125V13.125H15.625C15.7521 13.1253 15.8762 13.0868 15.9809 13.0148C16.0855 12.9427 16.1657 12.8405 16.2108 12.7216C16.2559 12.6028 16.2636 12.4731 16.2331 12.3498C16.2026 12.2264 16.1351 12.1153 16.0398 12.0313L11.6406 8.125H15.625C15.7907 8.125 15.9497 8.05915 16.0669 7.94194C16.1841 7.82473 16.25 7.66576 16.25 7.5ZM13.9844 11.875H9.99998C9.83422 11.875 9.67525 11.9408 9.55804 12.0581C9.44083 12.1753 9.37498 12.3342 9.37498 12.5V16.6164L4.99998 12.2414V8.125H9.76561L13.9844 11.875ZM15 6.875H10.2344L6.01561 3.125H15V6.875Z" fill="#191F2E"/>
</svg>
