<svg width="20" height="20" viewBox="0 0 20 20" fill="none" xmlns="http://www.w3.org/2000/svg">
<path d="M16.5625 3.125C16.5625 3.37364 16.4637 3.6121 16.2879 3.78791C16.1121 3.96373 15.8736 4.0625 15.625 4.0625H13.3367C12.9704 4.0619 12.6155 4.19002 12.334 4.4245C12.0526 4.65898 11.8624 4.9849 11.7969 5.34531L11.1234 9.0625H14.375C14.6236 9.0625 14.8621 9.16127 15.0379 9.33709C15.2137 9.5129 15.3125 9.75136 15.3125 10C15.3125 10.2486 15.2137 10.4871 15.0379 10.6629C14.8621 10.8387 14.6236 10.9375 14.375 10.9375H10.7812L10.0437 14.9898C9.89981 15.7816 9.48263 16.4978 8.8649 17.0136C8.24716 17.5294 7.46804 17.8121 6.66328 17.8125H4.375C4.12636 17.8125 3.8879 17.7137 3.71209 17.5379C3.53627 17.3621 3.4375 17.1236 3.4375 16.875C3.4375 16.6264 3.53627 16.3879 3.71209 16.2121C3.8879 16.0363 4.12636 15.9375 4.375 15.9375H6.66328C7.02961 15.9381 7.38451 15.81 7.66597 15.5755C7.94743 15.341 8.13755 15.0151 8.20312 14.6547L8.87656 10.9375H5.625C5.37636 10.9375 5.1379 10.8387 4.96209 10.6629C4.78627 10.4871 4.6875 10.2486 4.6875 10C4.6875 9.75136 4.78627 9.5129 4.96209 9.33709C5.1379 9.16127 5.37636 9.0625 5.625 9.0625H9.21875L9.95625 5.01016C10.1002 4.21837 10.5174 3.50219 11.1351 2.98639C11.7528 2.47059 12.532 2.18787 13.3367 2.1875H15.625C15.8736 2.1875 16.1121 2.28627 16.2879 2.46209C16.4637 2.6379 16.5625 2.87636 16.5625 3.125Z" fill="#191F2E"/>
</svg>
