<svg width="20" height="20" viewBox="0 0 20 20" fill="none" xmlns="http://www.w3.org/2000/svg">
<path d="M16.25 2.5H3.75C3.41848 2.5 3.10054 2.6317 2.86612 2.86612C2.6317 3.10054 2.5 3.41848 2.5 3.75V16.25C2.5 16.5815 2.6317 16.8995 2.86612 17.1339C3.10054 17.3683 3.41848 17.5 3.75 17.5H16.25C16.5815 17.5 16.8995 17.3683 17.1339 17.1339C17.3683 16.8995 17.5 16.5815 17.5 16.25V3.75C17.5 3.41848 17.3683 3.10054 17.1339 2.86612C16.8995 2.6317 16.5815 2.5 16.25 2.5ZM13.75 5.625H12.4937C12.2027 5.62475 11.9207 5.72606 11.6964 5.91147C11.472 6.09687 11.3194 6.35475 11.2648 6.64062L10.7531 9.375H13.125C13.2908 9.375 13.4497 9.44085 13.5669 9.55806C13.6842 9.67527 13.75 9.83424 13.75 10C13.75 10.1658 13.6842 10.3247 13.5669 10.4419C13.4497 10.5592 13.2908 10.625 13.125 10.625H10.5188L9.96328 13.5859C9.85578 14.159 9.55136 14.6765 9.10269 15.0488C8.65401 15.4212 8.0893 15.625 7.50625 15.625H6.25C6.08424 15.625 5.92527 15.5592 5.80806 15.4419C5.69085 15.3247 5.625 15.1658 5.625 15C5.625 14.8342 5.69085 14.6753 5.80806 14.5581C5.92527 14.4408 6.08424 14.375 6.25 14.375H7.50625C7.79729 14.3753 8.07929 14.2739 8.30363 14.0885C8.52797 13.9031 8.68059 13.6453 8.73516 13.3594L9.24687 10.625H6.875C6.70924 10.625 6.55027 10.5592 6.43306 10.4419C6.31585 10.3247 6.25 10.1658 6.25 10C6.25 9.83424 6.31585 9.67527 6.43306 9.55806C6.55027 9.44085 6.70924 9.375 6.875 9.375H9.48125L10.0367 6.41406C10.1442 5.841 10.4486 5.32354 10.8973 4.95119C11.346 4.57884 11.9107 4.37503 12.4937 4.375H13.75C13.9158 4.375 14.0747 4.44085 14.1919 4.55806C14.3092 4.67527 14.375 4.83424 14.375 5C14.375 5.16576 14.3092 5.32473 14.1919 5.44194C14.0747 5.55915 13.9158 5.625 13.75 5.625Z" fill="#191F2E"/>
</svg>
