<svg width="20" height="20" viewBox="0 0 20 20" fill="none" xmlns="http://www.w3.org/2000/svg">
<path d="M18.0156 3.86953C17.9194 3.64727 17.76 3.4582 17.5572 3.32582C17.3544 3.19345 17.1172 3.12361 16.875 3.125H3.12501C2.88308 3.12547 2.64649 3.19615 2.44394 3.32844C2.24138 3.46073 2.08157 3.64896 1.98389 3.8703C1.88621 4.09163 1.85486 4.33655 1.89363 4.57535C1.93241 4.81415 2.03966 5.03657 2.20235 5.21562L2.2086 5.22265L7.50001 10.8727V16.875C7.49996 17.1012 7.5613 17.3232 7.67751 17.5173C7.79371 17.7115 7.96041 17.8704 8.15984 17.9772C8.35927 18.084 8.58395 18.1347 8.80993 18.1239C9.0359 18.113 9.25469 18.041 9.44298 17.9156L11.943 16.2484C12.1144 16.1343 12.2549 15.9796 12.3521 15.798C12.4492 15.6165 12.5001 15.4137 12.5 15.2078V10.8727L17.7922 5.22265L17.7984 5.21562C17.9629 5.03739 18.0711 4.81468 18.1098 4.57528C18.1484 4.33589 18.1157 4.09043 18.0156 3.86953ZM11.5891 10.0219C11.372 10.252 11.2507 10.5563 11.25 10.8727V15.2078L8.75001 16.875V10.8727C8.75074 10.5551 8.62999 10.2493 8.41251 10.018L3.12501 4.375H16.875L11.5891 10.0219Z" fill="#191F2E"/>
</svg>
