<svg width="20" height="20" viewBox="0 0 20 20" fill="none" xmlns="http://www.w3.org/2000/svg">
<path d="M13.7501 8.75H11.8751C11.7093 8.75 11.5503 8.68415 11.4331 8.56694C11.3159 8.44973 11.2501 8.29076 11.2501 8.125C11.2501 7.95924 11.3159 7.80027 11.4331 7.68306C11.5503 7.56585 11.7093 7.5 11.8751 7.5H13.7501C13.9158 7.5 14.0748 7.56585 14.192 7.68306C14.3092 7.80027 14.3751 7.95924 14.3751 8.125C14.3751 8.29076 14.3092 8.44973 14.192 8.56694C14.0748 8.68415 13.9158 8.75 13.7501 8.75ZM8.12506 7.5H7.50006V6.875C7.50006 6.70924 7.43421 6.55027 7.317 6.43306C7.19979 6.31585 7.04082 6.25 6.87506 6.25C6.7093 6.25 6.55033 6.31585 6.43312 6.43306C6.31591 6.55027 6.25006 6.70924 6.25006 6.875V7.5H5.62506C5.4593 7.5 5.30033 7.56585 5.18312 7.68306C5.06591 7.80027 5.00006 7.95924 5.00006 8.125C5.00006 8.29076 5.06591 8.44973 5.18312 8.56694C5.30033 8.68415 5.4593 8.75 5.62506 8.75H6.25006V9.375C6.25006 9.54076 6.31591 9.69973 6.43312 9.81694C6.55033 9.93415 6.7093 10 6.87506 10C7.04082 10 7.19979 9.93415 7.317 9.81694C7.43421 9.69973 7.50006 9.54076 7.50006 9.375V8.75H8.12506C8.29082 8.75 8.44979 8.68415 8.567 8.56694C8.68421 8.44973 8.75006 8.29076 8.75006 8.125C8.75006 7.95924 8.68421 7.80027 8.567 7.68306C8.44979 7.56585 8.29082 7.5 8.12506 7.5ZM18.8657 15.6758C18.6301 16.0121 18.3238 16.2929 17.9682 16.4982C17.6125 16.7035 17.2163 16.8285 16.8072 16.8643C16.3981 16.9001 15.9862 16.8459 15.6003 16.7055C15.2144 16.5651 14.8639 16.3419 14.5735 16.0516C14.5641 16.0422 14.5547 16.0328 14.5462 16.0227L11.4438 12.5H8.55318L5.45396 16.0227L5.42662 16.0516C4.89865 16.5784 4.18341 16.8745 3.43756 16.875C3.02696 16.8748 2.62138 16.7848 2.2493 16.6112C1.87722 16.4375 1.54767 16.1846 1.2838 15.87C1.01993 15.5554 0.82813 15.1869 0.721886 14.7903C0.615641 14.3936 0.597525 13.9786 0.668809 13.5742C0.668432 13.5706 0.668432 13.5669 0.668809 13.5633L1.94771 6.99375C2.13805 5.91021 2.70417 4.92841 3.54659 4.22087C4.38901 3.51333 5.45383 3.12531 6.55396 3.125H13.4376C14.5344 3.12675 15.5959 3.51255 16.4379 4.21541C17.2799 4.91827 17.8492 5.89381 18.0469 6.97266C18.0469 6.97734 18.0469 6.98203 18.0469 6.98672L19.3258 13.5625C19.3262 13.5661 19.3262 13.5698 19.3258 13.5734C19.392 13.9369 19.3854 14.3098 19.3064 14.6707C19.2275 15.0316 19.0776 15.3732 18.8657 15.6758ZM13.4376 11.25C14.3492 11.25 15.2236 10.8878 15.8682 10.2432C16.5129 9.59852 16.8751 8.72418 16.8751 7.8125C16.8751 6.90082 16.5129 6.02648 15.8682 5.38182C15.2236 4.73716 14.3492 4.375 13.4376 4.375H6.55396C5.7469 4.37572 4.96593 4.66104 4.34847 5.18076C3.73102 5.70048 3.31662 6.4213 3.17818 7.21641V7.22656L1.8985 13.7961C1.84193 14.1218 1.89012 14.457 2.03614 14.7536C2.18215 15.0502 2.41846 15.2928 2.71109 15.4466C3.00371 15.6004 3.33757 15.6574 3.66464 15.6094C3.99172 15.5615 4.29515 15.411 4.53131 15.1797L7.80631 11.4617C7.86495 11.3952 7.93708 11.3419 8.01789 11.3054C8.09871 11.2689 8.18638 11.25 8.27506 11.25H13.4376ZM18.1016 13.7961L17.4188 10.2805C16.9989 10.9586 16.4128 11.5183 15.7161 11.9067C15.0195 12.2951 14.2352 12.4993 13.4376 12.5H13.1094L15.4688 15.1805C15.6467 15.3535 15.8631 15.4819 16.1002 15.5551C16.3373 15.6283 16.5884 15.6442 16.8329 15.6016C17.2401 15.5297 17.6023 15.2993 17.84 14.9608C18.0776 14.6224 18.1714 14.2036 18.1008 13.7961H18.1016Z" fill="#191F2E"/>
</svg>
