<svg width="20" height="20" viewBox="0 0 20 20" fill="none" xmlns="http://www.w3.org/2000/svg">
<path d="M19.3313 13.5742C19.3316 13.5706 19.3316 13.5669 19.3313 13.5633L18.0508 6.9875C18.0508 6.98281 18.0508 6.97813 18.0508 6.97344C17.8531 5.89379 17.2833 4.91756 16.4405 4.21446C15.5977 3.51137 14.5351 3.12587 13.4375 3.125H6.55391C5.45324 3.12458 4.38767 3.51226 3.5446 4.21987C2.70153 4.92747 2.13496 5.90968 1.94453 6.99375L0.670315 13.5633C0.669938 13.5669 0.669938 13.5706 0.670315 13.5742C0.566598 14.1631 0.65329 14.7698 0.917804 15.3061C1.18232 15.8424 1.61088 16.2804 2.14128 16.5566C2.67168 16.8328 3.27629 16.9327 3.86734 16.8419C4.4584 16.7511 5.00512 16.4742 5.42813 16.0516L5.45547 16.0227L8.55625 12.5H11.4469L14.5492 16.0227C14.5578 16.0328 14.5672 16.0422 14.5766 16.0516C15.1038 16.5776 15.8177 16.8737 16.5625 16.875C16.973 16.8747 17.3785 16.7846 17.7505 16.6109C18.1225 16.4373 18.4519 16.1842 18.7157 15.8697C18.9795 15.5551 19.1712 15.1866 19.2774 14.7901C19.3836 14.3935 19.4017 13.9785 19.3305 13.5742H19.3313ZM8.125 8.75H7.5V9.375C7.5 9.54076 7.43415 9.69973 7.31694 9.81694C7.19973 9.93415 7.04076 10 6.875 10C6.70924 10 6.55027 9.93415 6.43306 9.81694C6.31585 9.69973 6.25 9.54076 6.25 9.375V8.75H5.625C5.45924 8.75 5.30027 8.68415 5.18306 8.56694C5.06585 8.44973 5 8.29076 5 8.125C5 7.95924 5.06585 7.80027 5.18306 7.68306C5.30027 7.56585 5.45924 7.5 5.625 7.5H6.25V6.875C6.25 6.70924 6.31585 6.55027 6.43306 6.43306C6.55027 6.31585 6.70924 6.25 6.875 6.25C7.04076 6.25 7.19973 6.31585 7.31694 6.43306C7.43415 6.55027 7.5 6.70924 7.5 6.875V7.5H8.125C8.29076 7.5 8.44973 7.56585 8.56694 7.68306C8.68415 7.80027 8.75 7.95924 8.75 8.125C8.75 8.29076 8.68415 8.44973 8.56694 8.56694C8.44973 8.68415 8.29076 8.75 8.125 8.75ZM11.25 8.125C11.25 7.95924 11.3158 7.80027 11.4331 7.68306C11.5503 7.56585 11.7092 7.5 11.875 7.5H13.75C13.9158 7.5 14.0747 7.56585 14.1919 7.68306C14.3092 7.80027 14.375 7.95924 14.375 8.125C14.375 8.29076 14.3092 8.44973 14.1919 8.56694C14.0747 8.68415 13.9158 8.75 13.75 8.75H11.875C11.7092 8.75 11.5503 8.68415 11.4331 8.56694C11.3158 8.44973 11.25 8.29076 11.25 8.125ZM17.8414 14.9586C17.7243 15.1271 17.575 15.2708 17.402 15.3811C17.229 15.4915 17.0358 15.5664 16.8336 15.6016C16.589 15.6443 16.3378 15.6285 16.1005 15.5553C15.8632 15.4821 15.6467 15.3536 15.4688 15.1805L13.1094 12.5H13.4375C14.2354 12.5001 15.0202 12.2965 15.7174 11.9085C16.4147 11.5205 17.0014 10.961 17.4219 10.2828L18.1047 13.7984C18.1395 13.9996 18.1341 14.2057 18.0889 14.4048C18.0437 14.6039 17.9596 14.7921 17.8414 14.9586Z" fill="#191F2E"/>
</svg>
