<svg width="20" height="20" viewBox="0 0 20 20" fill="none" xmlns="http://www.w3.org/2000/svg">
<path d="M13.75 9.0625H11.875C11.6264 9.0625 11.3879 8.96373 11.2121 8.78791C11.0363 8.6121 10.9375 8.37364 10.9375 8.125C10.9375 7.87636 11.0363 7.6379 11.2121 7.46209C11.3879 7.28627 11.6264 7.1875 11.875 7.1875H13.75C13.9987 7.1875 14.2371 7.28627 14.4129 7.46209C14.5888 7.6379 14.6875 7.87636 14.6875 8.125C14.6875 8.37364 14.5888 8.6121 14.4129 8.78791C14.2371 8.96373 13.9987 9.0625 13.75 9.0625ZM8.12503 7.1875H7.81253V6.875C7.81253 6.62636 7.71376 6.3879 7.53794 6.21209C7.36212 6.03627 7.12367 5.9375 6.87503 5.9375C6.62639 5.9375 6.38793 6.03627 6.21211 6.21209C6.0363 6.3879 5.93753 6.62636 5.93753 6.875V7.1875H5.62503C5.37639 7.1875 5.13793 7.28627 4.96211 7.46209C4.7863 7.6379 4.68753 7.87636 4.68753 8.125C4.68753 8.37364 4.7863 8.6121 4.96211 8.78791C5.13793 8.96373 5.37639 9.0625 5.62503 9.0625H5.93753V9.375C5.93753 9.62364 6.0363 9.8621 6.21211 10.0379C6.38793 10.2137 6.62639 10.3125 6.87503 10.3125C7.12367 10.3125 7.36212 10.2137 7.53794 10.0379C7.71376 9.8621 7.81253 9.62364 7.81253 9.375V9.0625H8.12503C8.37367 9.0625 8.61212 8.96373 8.78794 8.78791C8.96375 8.6121 9.06253 8.37364 9.06253 8.125C9.06253 7.87636 8.96375 7.6379 8.78794 7.46209C8.61212 7.28627 8.37367 7.1875 8.12503 7.1875ZM19.1219 15.8547C18.8602 16.2279 18.52 16.5393 18.1252 16.7671C17.7304 16.9949 17.2905 17.1336 16.8364 17.1734C16.3823 17.2132 15.9251 17.1532 15.4966 16.9976C15.0682 16.842 14.679 16.5946 14.3563 16.2727C14.3417 16.2588 14.3279 16.2442 14.3149 16.2289L11.3024 12.8125H8.69768L5.68831 16.2289C5.67503 16.2437 5.66096 16.2586 5.6469 16.2727C5.17682 16.7421 4.56935 17.0496 3.91267 17.1504C3.25599 17.2512 2.58428 17.14 1.99504 16.8331C1.40581 16.5262 0.929712 16.0395 0.635871 15.4437C0.342029 14.8478 0.245734 14.1738 0.360964 13.5195C0.360522 13.5143 0.360522 13.5091 0.360964 13.5039L1.64065 6.93672C1.84428 5.78159 2.44827 4.73509 3.3466 3.9809C4.24494 3.22672 5.38021 2.81305 6.55315 2.8125H13.4375C14.6068 2.81417 15.7387 3.22509 16.6367 3.97399C17.5347 4.72289 18.1423 5.76251 18.3539 6.9125C18.3542 6.91744 18.3542 6.9224 18.3539 6.92734L19.6321 13.5031C19.6324 13.5083 19.6324 13.5135 19.6321 13.5187C19.7056 13.9225 19.6984 14.3368 19.6109 14.7378C19.5233 15.1388 19.3571 15.5184 19.1219 15.8547ZM13.4375 10.9375C14.2663 10.9375 15.0612 10.6083 15.6472 10.0222C16.2333 9.43616 16.5625 8.6413 16.5625 7.8125C16.5625 6.9837 16.2333 6.18884 15.6472 5.60279C15.0612 5.01674 14.2663 4.6875 13.4375 4.6875H6.55393C5.8204 4.68822 5.11061 4.94761 4.54945 5.42003C3.98829 5.89245 3.61171 6.54763 3.48596 7.27031C3.48559 7.27577 3.48559 7.28126 3.48596 7.28672L2.2094 13.8492C2.15404 14.1748 2.22977 14.5091 2.42007 14.779C2.61037 15.0489 2.89976 15.2326 3.22503 15.2898C3.41866 15.3236 3.61752 15.3114 3.80559 15.2543C3.99367 15.1972 4.1657 15.0967 4.30784 14.9609L7.57034 11.2555C7.65826 11.1556 7.76644 11.0756 7.88767 11.0208C8.0089 10.966 8.14041 10.9376 8.27346 10.9375H13.4375ZM17.7938 13.8523L17.2469 11.0437C16.8168 11.5524 16.2892 11.9697 15.6951 12.271C15.1011 12.5724 14.4528 12.7517 13.7883 12.7984L15.6953 14.9641C15.8851 15.1461 16.1275 15.2637 16.3879 15.3C16.6484 15.3364 16.9137 15.2897 17.1461 15.1665C17.3784 15.0434 17.566 14.8501 17.6822 14.6141C17.7983 14.3782 17.8371 14.1116 17.793 13.8523H17.7938Z" fill="#191F2E"/>
</svg>
