<svg width="20" height="20" viewBox="0 0 20 20" fill="none" xmlns="http://www.w3.org/2000/svg">
<path d="M18.75 15H18.125V7.70861C18.125 7.50289 18.0742 7.30036 17.9772 7.11897C17.8802 6.93758 17.7399 6.78294 17.5688 6.66876L10.6938 2.08517C10.4884 1.94829 10.2472 1.87524 10.0004 1.87524C9.75362 1.87524 9.51236 1.94829 9.30703 2.08517L2.43203 6.66876C2.26076 6.78285 2.12031 6.93745 2.02314 7.11884C1.92597 7.30024 1.87508 7.50282 1.875 7.70861V15H1.25C1.08424 15 0.925268 15.0659 0.808058 15.1831C0.690848 15.3003 0.625 15.4593 0.625 15.625C0.625 15.7908 0.690848 15.9497 0.808058 16.067C0.925268 16.1842 1.08424 16.25 1.25 16.25H18.75C18.9158 16.25 19.0747 16.1842 19.1919 16.067C19.3092 15.9497 19.375 15.7908 19.375 15.625C19.375 15.4593 19.3092 15.3003 19.1919 15.1831C19.0747 15.0659 18.9158 15 18.75 15ZM10.625 10H15V11.875H10.625V10ZM9.375 11.875H5V10H9.375V11.875ZM5 13.125H9.375V15H5V13.125ZM10.625 13.125H15V15H10.625V13.125Z" fill="#191F2E"/>
</svg>
