<svg width="20" height="20" viewBox="0 0 20 20" fill="none" xmlns="http://www.w3.org/2000/svg">
<path d="M18.75 15H18.125V7.70861C18.125 7.50289 18.0742 7.30036 17.9772 7.11897C17.8802 6.93758 17.7399 6.78294 17.5688 6.66876L10.6938 2.08517C10.4884 1.94829 10.2472 1.87524 10.0004 1.87524C9.75362 1.87524 9.51236 1.94829 9.30703 2.08517L2.43203 6.66876C2.26076 6.78285 2.12031 6.93745 2.02314 7.11884C1.92597 7.30024 1.87508 7.50282 1.875 7.70861V15H1.25C1.08424 15 0.925268 15.0659 0.808058 15.1831C0.690848 15.3003 0.625 15.4593 0.625 15.625C0.625 15.7908 0.690848 15.9497 0.808058 16.067C0.925268 16.1842 1.08424 16.25 1.25 16.25H18.75C18.9158 16.25 19.0747 16.1842 19.1919 16.067C19.3092 15.9497 19.375 15.7908 19.375 15.625C19.375 15.4593 19.3092 15.3003 19.1919 15.1831C19.0747 15.0659 18.9158 15 18.75 15ZM3.125 7.70861L10 3.12501L16.875 7.70783V15H15V10.625C15 10.4593 14.9342 10.3003 14.8169 10.1831C14.6997 10.0659 14.5408 10 14.375 10H5.625C5.45924 10 5.30027 10.0659 5.18306 10.1831C5.06585 10.3003 5 10.4593 5 10.625V15H3.125V7.70861ZM13.75 11.25V12.5H10.625V11.25H13.75ZM9.375 12.5H6.25V11.25H9.375V12.5ZM6.25 13.75H9.375V15H6.25V13.75ZM10.625 13.75H13.75V15H10.625V13.75Z" fill="#191F2E"/>
</svg>
