<svg width="20" height="20" viewBox="0 0 20 20" fill="none" xmlns="http://www.w3.org/2000/svg">
<path d="M15.625 1.87501H9.6336C9.46939 1.87448 9.30671 1.9066 9.15502 1.96951C9.00333 2.03241 8.86566 2.12483 8.75001 2.24141L7.94219 3.04688L7.1336 2.24141C6.8992 2.00717 6.58138 1.87559 6.25001 1.87559C5.91863 1.87559 5.60081 2.00717 5.36641 2.24141L3.49141 4.11641C3.25717 4.35081 3.12559 4.66863 3.12559 5.00001C3.12559 5.33138 3.25717 5.6492 3.49141 5.8836L4.29688 6.69219L3.49141 7.50001C3.37483 7.61566 3.28241 7.75333 3.21951 7.90502C3.1566 8.05671 3.12448 8.21939 3.12501 8.3836V16.875C3.12501 17.2065 3.2567 17.5245 3.49112 17.7589C3.72554 17.9933 4.04349 18.125 4.37501 18.125H15.625C15.9565 18.125 16.2745 17.9933 16.5089 17.7589C16.7433 17.5245 16.875 17.2065 16.875 16.875V3.12501C16.875 2.79349 16.7433 2.47554 16.5089 2.24112C16.2745 2.0067 15.9565 1.87501 15.625 1.87501ZM4.37501 5.00001L6.25001 3.12501L7.05782 3.93282L5.18282 5.80782L4.37501 5.00001ZM15.625 16.875H4.37501V8.3836L5.62501 7.1336L9.6336 3.12501H15.625V16.875ZM10 5.00001C10 4.83425 10.0659 4.67527 10.1831 4.55806C10.3003 4.44085 10.4592 4.37501 10.625 4.37501H13.75C13.9158 4.37501 14.0747 4.44085 14.1919 4.55806C14.3092 4.67527 14.375 4.83425 14.375 5.00001C14.375 5.16577 14.3092 5.32474 14.1919 5.44195C14.0747 5.55916 13.9158 5.62501 13.75 5.62501H10.625C10.4592 5.62501 10.3003 5.55916 10.1831 5.44195C10.0659 5.32474 10 5.16577 10 5.00001ZM14.125 9.87501L11.0414 12.1875L14.125 14.5C14.1907 14.5493 14.246 14.6109 14.2878 14.6816C14.3296 14.7522 14.3571 14.8304 14.3687 14.9116C14.3803 14.9929 14.3758 15.0756 14.3555 15.1551C14.3351 15.2346 14.2993 15.3093 14.25 15.375C14.2008 15.4407 14.1391 15.496 14.0684 15.5378C13.9978 15.5796 13.9196 15.6071 13.8384 15.6187C13.7571 15.6303 13.6744 15.6258 13.5949 15.6055C13.5154 15.5851 13.4407 15.5493 13.375 15.5L10 12.9688L6.62501 15.5C6.4924 15.5995 6.32571 15.6422 6.16162 15.6187C5.99752 15.5953 5.84946 15.5076 5.75001 15.375C5.65055 15.2424 5.60785 15.0757 5.63129 14.9116C5.65473 14.7475 5.7424 14.5995 5.87501 14.5L8.9586 12.1875L5.87501 9.87501C5.7424 9.77555 5.65473 9.62749 5.63129 9.4634C5.60785 9.2993 5.65055 9.13261 5.75001 9.00001C5.84946 8.8674 5.99752 8.77973 6.16162 8.75629C6.32571 8.73285 6.4924 8.77555 6.62501 8.87501L10 11.4063L13.375 8.87501C13.5076 8.77555 13.6743 8.73285 13.8384 8.75629C14.0025 8.77973 14.1505 8.8674 14.25 9.00001C14.3495 9.13261 14.3922 9.2993 14.3687 9.4634C14.3453 9.62749 14.2576 9.77555 14.125 9.87501Z" fill="#191F2E"/>
</svg>
