<svg width="20" height="20" viewBox="0 0 20 20" fill="none" xmlns="http://www.w3.org/2000/svg">
<path d="M15.6249 1.56241H10.2585C10.0532 1.56185 9.84991 1.60203 9.66028 1.68062C9.47066 1.7592 9.29851 1.87463 9.15382 2.02022L8.2546 2.91944L7.0421 1.70772C6.74909 1.4148 6.35173 1.25024 5.93741 1.25024C5.52309 1.25024 5.12573 1.4148 4.83272 1.70772L2.95772 3.58272C2.6648 3.87574 2.50024 4.27309 2.50024 4.68741C2.50024 5.10173 2.6648 5.49909 2.95772 5.7921L4.16944 7.0046L3.27022 7.90382C3.12463 8.04851 3.0092 8.22066 2.93062 8.41028C2.85203 8.59991 2.81185 8.80324 2.81241 9.0085V16.8749C2.81241 17.2893 2.97703 17.6867 3.27006 17.9798C3.56308 18.2728 3.96051 18.4374 4.37491 18.4374H15.6249C16.0393 18.4374 16.4367 18.2728 16.7298 17.9798C17.0228 17.6867 17.1874 17.2893 17.1874 16.8749V3.12491C17.1874 2.71051 17.0228 2.31308 16.7298 2.02006C16.4367 1.72703 16.0393 1.56241 15.6249 1.56241ZM4.5046 4.68741L5.93741 3.2546L6.92882 4.24522L5.49522 5.67882L4.5046 4.68741ZM15.3124 16.5624H4.68741V9.14054L6.1585 7.6671L10.3905 3.43741H15.3124V16.5624ZM10.6249 5.31241C10.6249 5.06377 10.7237 4.82531 10.8995 4.6495C11.0753 4.47368 11.3138 4.37491 11.5624 4.37491H13.1249C13.3736 4.37491 13.612 4.47368 13.7878 4.6495C13.9636 4.82531 14.0624 5.06377 14.0624 5.31241C14.0624 5.56105 13.9636 5.79951 13.7878 5.97532C13.612 6.15114 13.3736 6.24991 13.1249 6.24991H11.5624C11.3138 6.24991 11.0753 6.15114 10.8995 5.97532C10.7237 5.79951 10.6249 5.56105 10.6249 5.31241ZM13.7108 10.4194L11.5007 12.1874L13.7108 13.9554C13.807 14.0323 13.887 14.1275 13.9464 14.2353C14.0058 14.3432 14.0433 14.4617 14.0569 14.5841C14.0704 14.7065 14.0597 14.8303 14.0254 14.9486C13.9911 15.0669 13.9339 15.1772 13.8569 15.2733C13.78 15.3695 13.6849 15.4495 13.577 15.5089C13.4691 15.5683 13.3506 15.6058 13.2282 15.6194C13.1058 15.6329 12.982 15.6222 12.8637 15.5879C12.7455 15.5536 12.6351 15.4964 12.539 15.4194L9.99991 13.3882L7.46085 15.4194C7.2667 15.5748 7.01877 15.6468 6.77161 15.6194C6.52444 15.592 6.29828 15.4675 6.14288 15.2733C5.98748 15.0792 5.91557 14.8313 5.94297 14.5841C5.97036 14.3369 6.09483 14.1108 6.28897 13.9554L8.49913 12.1874L6.28897 10.4194C6.19284 10.3425 6.11281 10.2474 6.05344 10.1395C5.99407 10.0316 5.95653 9.9131 5.94297 9.79071C5.91557 9.54355 5.98748 9.29562 6.14288 9.10147C6.29828 8.90733 6.52444 8.78286 6.77161 8.75547C6.89399 8.7419 7.01785 8.75257 7.13611 8.78687C7.25437 8.82117 7.36472 8.87843 7.46085 8.95538L9.99991 10.9866L12.539 8.95538C12.6351 8.87843 12.7455 8.82117 12.8637 8.78687C12.982 8.75257 13.1058 8.7419 13.2282 8.75547C13.3506 8.76903 13.4691 8.80657 13.577 8.86594C13.6849 8.92531 13.78 9.00534 13.8569 9.10147C13.9339 9.1976 13.9911 9.30795 14.0254 9.42621C14.0597 9.54447 14.0704 9.66833 14.0569 9.79071C14.0433 9.9131 14.0058 10.0316 13.9464 10.1395C13.887 10.2474 13.807 10.3425 13.7108 10.4194Z" fill="#191F2E"/>
</svg>
