<svg width="20" height="20" viewBox="0 0 20 20" fill="none" xmlns="http://www.w3.org/2000/svg">
<path d="M18.75 12.5V14.375C18.75 14.7065 18.6183 15.0245 18.3839 15.2589C18.1495 15.4933 17.8315 15.625 17.5 15.625H9.05703C8.99939 15.6251 8.94286 15.6091 8.89369 15.5791C8.84452 15.549 8.80463 15.5059 8.77843 15.4545C8.75223 15.4032 8.74074 15.3456 8.74524 15.2881C8.74974 15.2307 8.77004 15.1756 8.80391 15.1289L13.6148 8.51563C13.7146 8.38317 13.7591 8.21725 13.7392 8.05266C13.7192 7.88808 13.6363 7.73761 13.5078 7.63282C13.4417 7.58153 13.366 7.54404 13.2851 7.52256C13.2043 7.50109 13.1199 7.49606 13.0371 7.50779C12.9542 7.51952 12.8746 7.54777 12.8029 7.59085C12.7311 7.63393 12.6688 7.69097 12.6195 7.7586L6.99453 15.4977C6.96505 15.5378 6.92641 15.5702 6.88184 15.5924C6.83727 15.6145 6.78805 15.6257 6.73828 15.625H2.5C2.16848 15.625 1.85054 15.4933 1.61612 15.2589C1.3817 15.0245 1.25 14.7065 1.25 14.375V12.5883C1.25 12.4484 1.25 12.3094 1.26016 12.1719C1.26417 12.0917 1.29886 12.0162 1.35703 11.9609C1.41521 11.9057 1.49241 11.8749 1.57266 11.875H3.75C3.83568 11.8752 3.92048 11.8578 3.99914 11.8238C4.0778 11.7898 4.14864 11.7401 4.20725 11.6776C4.26586 11.6151 4.311 11.5412 4.33986 11.4605C4.36871 11.3798 4.38068 11.2941 4.375 11.2086C4.36118 11.0476 4.28681 10.8979 4.1669 10.7895C4.04699 10.6812 3.89047 10.6224 3.72891 10.625H1.86875C1.82108 10.625 1.77404 10.614 1.73125 10.593C1.68846 10.572 1.65104 10.5415 1.62186 10.5038C1.59268 10.4661 1.57251 10.4222 1.5629 10.3755C1.55329 10.3288 1.55449 10.2805 1.56641 10.2344C2.50391 6.80938 5.44609 4.2086 9.02891 3.80626C9.07268 3.80152 9.11695 3.80609 9.15883 3.81966C9.20072 3.83323 9.23926 3.8555 9.27193 3.885C9.30461 3.91451 9.33068 3.95058 9.34844 3.99087C9.36621 4.03115 9.37526 4.07473 9.375 4.11876V6.25001C9.37481 6.33568 9.39224 6.42049 9.42621 6.49915C9.46017 6.57781 9.50995 6.64864 9.57245 6.70726C9.63494 6.76587 9.70882 6.811 9.78949 6.83986C9.87017 6.86872 9.95591 6.88068 10.0414 6.875C10.2024 6.86118 10.3522 6.78681 10.4605 6.66691C10.5688 6.547 10.6276 6.39047 10.625 6.22891V4.11485C10.6247 4.07082 10.6338 4.02724 10.6516 3.98696C10.6693 3.94668 10.6954 3.9106 10.7281 3.8811C10.7607 3.85159 10.7993 3.82933 10.8412 3.81575C10.883 3.80218 10.9273 3.79762 10.9711 3.80235C12.7203 3.9989 14.3697 4.71759 15.7046 5.86483C17.0396 7.01206 17.9981 8.53467 18.4555 10.2344C18.4674 10.2806 18.4686 10.3289 18.4589 10.3757C18.4493 10.4225 18.429 10.4664 18.3998 10.5041C18.3705 10.5418 18.333 10.5723 18.2901 10.5933C18.2472 10.6142 18.2001 10.6251 18.1523 10.625H16.2711C16.1098 10.6228 15.9537 10.6818 15.8341 10.7901C15.7145 10.8984 15.6404 11.0479 15.6266 11.2086C15.6209 11.2941 15.6328 11.3798 15.6617 11.4605C15.6906 11.5412 15.7357 11.6151 15.7943 11.6776C15.8529 11.7401 15.9238 11.7898 16.0024 11.8238C16.0811 11.8578 16.1659 11.8752 16.2516 11.875H18.4328C18.5138 11.875 18.5917 11.9064 18.65 11.9626C18.7083 12.0189 18.7425 12.0956 18.7453 12.1766C18.75 12.2836 18.75 12.3914 18.75 12.5Z" fill="#191F2E"/>
</svg>
