<svg width="20" height="20" viewBox="0 0 20 20" fill="none" xmlns="http://www.w3.org/2000/svg">
<path d="M16.1766 6.30232C15.3664 5.49033 14.4035 4.84675 13.3434 4.40868C12.2833 3.97062 11.147 3.74675 10 3.74997H9.96875C5.16172 3.76638 1.25 7.73435 1.25 12.5883V14.375C1.25 14.7065 1.3817 15.0244 1.61612 15.2589C1.85054 15.4933 2.16848 15.625 2.5 15.625H17.5C17.8315 15.625 18.1495 15.4933 18.3839 15.2589C18.6183 15.0244 18.75 14.7065 18.75 14.375V12.5C18.7532 11.3479 18.5274 10.2067 18.0856 9.14276C17.6438 8.07878 16.9949 7.11325 16.1766 6.30232ZM17.5 14.375H9.35234L13.6305 8.49216C13.7281 8.3581 13.7684 8.19077 13.7426 8.02696C13.7168 7.86316 13.627 7.71631 13.493 7.61872C13.3589 7.52113 13.1916 7.48079 13.0278 7.50658C12.864 7.53236 12.7171 7.62216 12.6195 7.75622L7.80625 14.375H2.5V12.5883C2.5 12.3476 2.51172 12.1101 2.53359 11.875H4.375C4.54076 11.875 4.69973 11.8091 4.81694 11.6919C4.93415 11.5747 5 11.4157 5 11.25C5 11.0842 4.93415 10.9252 4.81694 10.808C4.69973 10.6908 4.54076 10.625 4.375 10.625H2.75547C3.56172 7.58904 6.19297 5.29372 9.375 5.02654V6.87497C9.375 7.04073 9.44085 7.1997 9.55806 7.31691C9.67527 7.43413 9.83424 7.49997 10 7.49997C10.1658 7.49997 10.3247 7.43413 10.4419 7.31691C10.5592 7.1997 10.625 7.04073 10.625 6.87497V5.02575C12.1755 5.15624 13.6472 5.76505 14.8368 6.76807C16.0264 7.77108 16.8751 9.11879 17.2656 10.625H15.625C15.4592 10.625 15.3003 10.6908 15.1831 10.808C15.0658 10.9252 15 11.0842 15 11.25C15 11.4157 15.0658 11.5747 15.1831 11.6919C15.3003 11.8091 15.4592 11.875 15.625 11.875H17.4742C17.4906 12.082 17.5 12.2898 17.5 12.5V14.375Z" fill="#191F2E"/>
</svg>
