<svg width="20" height="20" viewBox="0 0 20 20" fill="none" xmlns="http://www.w3.org/2000/svg">
<path d="M19.2297 8.89533L17.9797 7.64533C17.748 7.41384 17.4494 7.26102 17.1261 7.20845C16.8029 7.15588 16.4712 7.20622 16.1781 7.35236L12.6469 3.82111C12.7931 3.52808 12.8436 3.19651 12.7912 2.87324C12.7387 2.54997 12.586 2.25134 12.3547 2.01955L11.1047 0.769552C10.8117 0.476628 10.4143 0.312073 10 0.312073C9.58568 0.312073 9.18832 0.476628 8.89531 0.769552L3.89531 5.76955C3.60239 6.06256 3.43783 6.45992 3.43783 6.87424C3.43783 7.28856 3.60239 7.68591 3.89531 7.97893L5.14531 9.22893C5.37628 9.45991 5.67384 9.6127 5.99615 9.66582C6.31846 9.71893 6.64931 9.66969 6.94219 9.52502L2.29375 14.1703C1.82485 14.6392 1.56143 15.2752 1.56143 15.9383C1.56143 16.6014 1.82485 17.2374 2.29375 17.7063C2.76264 18.1752 3.3986 18.4386 4.06172 18.4386C4.72483 18.4386 5.36079 18.1752 5.82969 17.7063L10.4687 13.0633C10.3254 13.3558 10.277 13.6858 10.3303 14.0071C10.3837 14.3284 10.5362 14.6251 10.7664 14.8555L12.0164 16.1055C12.1615 16.2506 12.3338 16.3658 12.5234 16.4444C12.713 16.5229 12.9162 16.5634 13.1215 16.5634C13.3267 16.5634 13.53 16.5229 13.7196 16.4444C13.9092 16.3658 14.0815 16.2506 14.2266 16.1055L19.2266 11.1055C19.3717 10.9604 19.4869 10.7881 19.5654 10.5985C19.644 10.4089 19.6844 10.2057 19.6844 10.0004C19.6844 9.79517 19.644 9.59193 19.5654 9.40232C19.4869 9.21271 19.3717 9.04043 19.2266 8.89533H19.2297ZM6.25 7.68283L5.44062 6.87502L10 2.31643L10.8078 3.12502L6.25 7.68283ZM4.50312 16.3805C4.38585 16.4977 4.22683 16.5634 4.06105 16.5634C3.89527 16.5633 3.73631 16.4974 3.61914 16.3801C3.50197 16.2628 3.43618 16.1038 3.43626 15.938C3.43633 15.7722 3.50225 15.6133 3.61953 15.4961L8.26953 10.8461L9.15312 11.7305L4.50312 16.3805ZM11.7453 11.6703L8.32969 8.25471L11.3766 5.20783L14.7922 8.62346L11.7453 11.6703ZM13.1242 14.561L12.3164 13.75L16.875 9.19221L17.6828 10L13.1242 14.561Z" fill="#191F2E"/>
</svg>
