<svg width="20" height="20" viewBox="0 0 20 20" fill="none" xmlns="http://www.w3.org/2000/svg">
<path d="M18.125 9.375H17.4734C17.4004 8.48373 17.1669 7.61299 16.7844 6.80469L17.3492 6.47891C17.4928 6.39603 17.5976 6.2595 17.6405 6.09936C17.6835 5.93922 17.661 5.76859 17.5781 5.625C17.4952 5.48141 17.3587 5.37663 17.1986 5.3337C17.0384 5.29077 16.8678 5.31321 16.7242 5.39609L16.1578 5.72344C15.6466 4.99032 15.0097 4.35343 14.2766 3.84219L14.6039 3.27578C14.6868 3.13219 14.7092 2.96156 14.6663 2.80142C14.6234 2.64128 14.5186 2.50476 14.375 2.42188C14.2314 2.33899 14.0608 2.31655 13.9006 2.35948C13.7405 2.40241 13.604 2.50719 13.5211 2.65078L13.1953 3.21563C12.387 2.83308 11.5163 2.59964 10.625 2.52656V1.875C10.625 1.70924 10.5592 1.55027 10.4419 1.43306C10.3247 1.31585 10.1658 1.25 10 1.25C9.83424 1.25 9.67527 1.31585 9.55806 1.43306C9.44085 1.55027 9.375 1.70924 9.375 1.875V2.52656C8.48373 2.59964 7.61299 2.83308 6.80469 3.21563L6.47891 2.65078C6.39603 2.50719 6.2595 2.40241 6.09936 2.35948C5.93922 2.31655 5.76859 2.33899 5.625 2.42188C5.48141 2.50476 5.37663 2.64128 5.3337 2.80142C5.29077 2.96156 5.31321 3.13219 5.39609 3.27578L5.72344 3.84219C4.99032 4.35343 4.35343 4.99032 3.84219 5.72344L3.27578 5.39609C3.20468 5.35506 3.1262 5.32842 3.04481 5.31772C2.96342 5.30701 2.88071 5.31244 2.80142 5.3337C2.64128 5.37663 2.50476 5.48141 2.42188 5.625C2.33899 5.76859 2.31655 5.93922 2.35948 6.09936C2.40241 6.2595 2.50719 6.39603 2.65078 6.47891L3.21563 6.80469C2.83308 7.61299 2.59964 8.48373 2.52656 9.375H1.875C1.70924 9.375 1.55027 9.44085 1.43306 9.55806C1.31585 9.67527 1.25 9.83424 1.25 10C1.25 10.1658 1.31585 10.3247 1.43306 10.4419C1.55027 10.5592 1.70924 10.625 1.875 10.625H2.52656C2.59964 11.5163 2.83308 12.387 3.21563 13.1953L2.65078 13.5211C2.53156 13.5899 2.43837 13.696 2.38567 13.8232C2.33297 13.9503 2.32371 14.0913 2.35933 14.2242C2.39495 14.3572 2.47345 14.4747 2.58265 14.5584C2.69185 14.6422 2.82565 14.6876 2.96328 14.6875C3.07302 14.6878 3.18087 14.659 3.27578 14.6039L3.84219 14.2766C4.35343 15.0097 4.99032 15.6466 5.72344 16.1578L5.39609 16.7242C5.31321 16.8678 5.29077 17.0384 5.3337 17.1986C5.37663 17.3587 5.48141 17.4952 5.625 17.5781C5.76859 17.661 5.93922 17.6835 6.09936 17.6405C6.2595 17.5976 6.39603 17.4928 6.47891 17.3492L6.80469 16.7844C7.61299 17.1669 8.48373 17.4004 9.375 17.4734V18.125C9.375 18.2908 9.44085 18.4497 9.55806 18.5669C9.67527 18.6842 9.83424 18.75 10 18.75C10.1658 18.75 10.3247 18.6842 10.4419 18.5669C10.5592 18.4497 10.625 18.2908 10.625 18.125V17.4734C11.5163 17.4004 12.387 17.1669 13.1953 16.7844L13.5211 17.3492C13.604 17.4928 13.7405 17.5976 13.9006 17.6405C14.0608 17.6835 14.2314 17.661 14.375 17.5781C14.5186 17.4952 14.6234 17.3587 14.6663 17.1986C14.7092 17.0384 14.6868 16.8678 14.6039 16.7242L14.2766 16.1578C15.0097 15.6466 15.6466 15.0097 16.1578 14.2766L16.7242 14.6039C16.7953 14.645 16.8738 14.6716 16.9552 14.6823C17.0366 14.693 17.1193 14.6876 17.1986 14.6664C17.2779 14.6451 17.3522 14.6084 17.4173 14.5584C17.4825 14.5084 17.5371 14.4461 17.5781 14.375C17.6611 14.2315 17.6837 14.0609 17.6409 13.9008C17.5981 13.7407 17.4935 13.6041 17.35 13.5211L16.7852 13.1953C17.1677 12.387 17.4011 11.5163 17.4742 10.625H18.125C18.2908 10.625 18.4497 10.5592 18.5669 10.4419C18.6842 10.3247 18.75 10.1658 18.75 10C18.75 9.83424 18.6842 9.67527 18.5669 9.55806C18.4497 9.44085 18.2908 9.375 18.125 9.375ZM5.625 10C5.62468 9.3379 5.77488 8.68439 6.06425 8.08887C6.35361 7.49336 6.77458 6.97141 7.29531 6.5625L9.27812 10L7.29531 13.4375C6.77458 13.0286 6.35361 12.5066 6.06425 11.9111C5.77488 11.3156 5.62468 10.6621 5.625 10ZM10 14.375C9.44385 14.3756 8.89275 14.2695 8.37656 14.0625L10.3609 10.625H14.3297C14.178 11.6656 13.6572 12.6169 12.8624 13.3053C12.0675 13.9938 11.0516 14.3734 10 14.375ZM10.3609 9.375L8.37656 5.9375C8.99112 5.69199 9.65337 5.5891 10.3134 5.63657C10.9735 5.68405 11.6142 5.88064 12.1873 6.21157C12.7604 6.54249 13.251 6.99912 13.6221 7.54707C13.9932 8.09502 14.2351 8.72001 14.3297 9.375H10.3609Z" fill="#191F2E"/>
</svg>
