<svg width="20" height="20" viewBox="0 0 20 20" fill="none" xmlns="http://www.w3.org/2000/svg">
<path d="M9.99998 6.24997C9.25829 6.24997 8.53327 6.46991 7.91659 6.88196C7.2999 7.29402 6.81926 7.87969 6.53543 8.56491C6.2516 9.25013 6.17734 10.0041 6.32203 10.7316C6.46672 11.459 6.82388 12.1272 7.34832 12.6516C7.87277 13.1761 8.54096 13.5332 9.26839 13.6779C9.99582 13.8226 10.7498 13.7484 11.435 13.4645C12.1203 13.1807 12.7059 12.7 13.118 12.0834C13.53 11.4667 13.75 10.7417 13.75 9.99998C13.7489 9.00573 13.3535 8.0525 12.6505 7.34947C11.9474 6.64643 10.9942 6.25101 9.99998 6.24997ZM9.99998 12.5C9.50552 12.5 9.02217 12.3534 8.61105 12.0786C8.19993 11.8039 7.87949 11.4135 7.69028 10.9567C7.50106 10.4999 7.45155 9.9972 7.54801 9.51225C7.64447 9.0273 7.88258 8.58184 8.23221 8.23221C8.58184 7.88258 9.0273 7.64447 9.51225 7.54801C9.9972 7.45155 10.4999 7.50106 10.9567 7.69028C11.4135 7.87949 11.8039 8.19993 12.0786 8.61105C12.3534 9.02217 12.5 9.50552 12.5 9.99998C12.5 10.663 12.2366 11.2989 11.7677 11.7677C11.2989 12.2366 10.663 12.5 9.99998 12.5ZM16.875 10.1687C16.8781 10.0562 16.8781 9.94372 16.875 9.83122L18.0406 8.37497C18.1017 8.29851 18.144 8.20877 18.1641 8.11297C18.1842 8.01716 18.1815 7.91798 18.1562 7.82341C17.9651 7.10513 17.6793 6.41548 17.3062 5.77263C17.2574 5.6885 17.1896 5.61694 17.1082 5.56364C17.0268 5.51034 16.9341 5.47677 16.8375 5.4656L14.9844 5.25935C14.9073 5.1781 14.8291 5.09997 14.75 5.02497L14.5312 3.16716C14.52 3.07045 14.4863 2.97771 14.4328 2.89633C14.3794 2.81494 14.3077 2.74717 14.2234 2.69841C13.5803 2.32603 12.8907 2.04047 12.1726 1.84919C12.078 1.82403 11.9788 1.82146 11.883 1.84168C11.7872 1.8619 11.6975 1.90435 11.6211 1.9656L10.1687 3.12497C10.0562 3.12497 9.94372 3.12497 9.83122 3.12497L8.37497 1.96169C8.29851 1.90057 8.20877 1.85827 8.11297 1.83819C8.01716 1.8181 7.91798 1.8208 7.82341 1.84607C7.10525 2.0375 6.41564 2.32332 5.77263 2.69607C5.6885 2.74492 5.61694 2.81273 5.56364 2.89411C5.51034 2.97548 5.47677 3.06818 5.4656 3.16482L5.25935 5.02107C5.1781 5.09867 5.09997 5.1768 5.02497 5.25544L3.16716 5.46872C3.07045 5.47998 2.97771 5.51367 2.89633 5.56711C2.81494 5.62055 2.74717 5.69227 2.69841 5.77654C2.32603 6.41963 2.04047 7.10923 1.84919 7.82732C1.82403 7.92195 1.82146 8.02116 1.84168 8.11697C1.8619 8.21277 1.90435 8.30249 1.9656 8.37888L3.12497 9.83122C3.12497 9.94372 3.12497 10.0562 3.12497 10.1687L1.96169 11.625C1.90057 11.7014 1.85827 11.7912 1.83819 11.887C1.8181 11.9828 1.8208 12.082 1.84607 12.1765C2.03715 12.8948 2.323 13.5845 2.69607 14.2273C2.74492 14.3114 2.81273 14.383 2.89411 14.4363C2.97548 14.4896 3.06818 14.5232 3.16482 14.5343L5.01794 14.7406C5.09555 14.8218 5.17367 14.9 5.25232 14.975L5.46872 16.8328C5.47998 16.9295 5.51367 17.0222 5.56711 17.1036C5.62055 17.185 5.69227 17.2528 5.77654 17.3015C6.41963 17.6739 7.10923 17.9595 7.82732 18.1508C7.92195 18.1759 8.02116 18.1785 8.11697 18.1583C8.21277 18.138 8.30249 18.0956 8.37888 18.0343L9.83122 16.875C9.94372 16.8781 10.0562 16.8781 10.1687 16.875L11.625 18.0406C11.7014 18.1017 11.7912 18.144 11.887 18.1641C11.9828 18.1842 12.082 18.1815 12.1765 18.1562C12.8948 17.9651 13.5845 17.6793 14.2273 17.3062C14.3114 17.2574 14.383 17.1896 14.4363 17.1082C14.4896 17.0268 14.5232 16.9341 14.5343 16.8375L14.7406 14.9844C14.8218 14.9073 14.9 14.8291 14.975 14.75L16.8328 14.5312C16.9295 14.52 17.0222 14.4863 17.1036 14.4328C17.185 14.3794 17.2528 14.3077 17.3015 14.2234C17.6739 13.5803 17.9595 12.8907 18.1508 12.1726C18.1759 12.078 18.1785 11.9788 18.1583 11.883C18.138 11.7872 18.0956 11.6975 18.0343 11.6211L16.875 10.1687ZM15.6172 9.66091C15.6304 9.88676 15.6304 10.1132 15.6172 10.339C15.6079 10.4937 15.6563 10.6462 15.7531 10.7672L16.8617 12.1523C16.7345 12.5566 16.5716 12.9488 16.375 13.3242L14.6094 13.5242C14.4556 13.5413 14.3136 13.6148 14.2109 13.7304C14.0605 13.8996 13.9004 14.0597 13.7312 14.2101C13.6155 14.3128 13.542 14.4548 13.525 14.6086L13.3289 16.3726C12.9535 16.5694 12.5613 16.7322 12.157 16.8594L10.7711 15.7508C10.6602 15.6621 10.5224 15.6139 10.3804 15.614H10.3429C10.1171 15.6273 9.89067 15.6273 9.66482 15.614C9.5102 15.6047 9.35763 15.6532 9.23669 15.75L7.84763 16.8594C7.44336 16.7321 7.05119 16.5693 6.67576 16.3726L6.47576 14.6094C6.45869 14.4556 6.3852 14.3136 6.26951 14.2109C6.10037 14.0605 5.9402 13.9004 5.78982 13.7312C5.68711 13.6155 5.54514 13.542 5.39138 13.525L3.62732 13.3281C3.43059 12.9527 3.26771 12.5605 3.1406 12.1562L4.24919 10.7703C4.34599 10.6494 4.39444 10.4968 4.38513 10.3422C4.37185 10.1163 4.37185 9.88988 4.38513 9.66404C4.39444 9.50941 4.34599 9.35684 4.24919 9.23591L3.1406 7.84763C3.26781 7.44336 3.43069 7.05119 3.62732 6.67576L5.3906 6.47576C5.54436 6.45869 5.68633 6.3852 5.78904 6.26951C5.93942 6.10037 6.09959 5.9402 6.26872 5.78982C6.38488 5.68704 6.45867 5.54475 6.47576 5.3906L6.67185 3.62732C7.04724 3.43059 7.43942 3.26771 7.84372 3.1406L9.22966 4.24919C9.35059 4.34599 9.50316 4.39444 9.65779 4.38513C9.88363 4.37185 10.1101 4.37185 10.3359 4.38513C10.4905 4.39444 10.6431 4.34599 10.764 4.24919L12.1523 3.1406C12.5566 3.26781 12.9488 3.43069 13.3242 3.62732L13.5242 5.3906C13.5413 5.54436 13.6148 5.68633 13.7304 5.78904C13.8996 5.93942 14.0597 6.09959 14.2101 6.26872C14.3128 6.38442 14.4548 6.45791 14.6086 6.47497L16.3726 6.67107C16.5694 7.04646 16.7322 7.43864 16.8594 7.84294L15.7508 9.22888C15.653 9.35083 15.6045 9.50497 15.6148 9.66091H15.6172Z" fill="#191F2E"/>
</svg>
