<svg width="20" height="20" viewBox="0 0 20 20" fill="none" xmlns="http://www.w3.org/2000/svg">
<path d="M18.5891 8.37581C18.5717 8.2878 18.5355 8.20456 18.4831 8.13177C18.4306 8.05897 18.3632 7.99832 18.2852 7.95393L15.9547 6.62581L15.9453 3.99924C15.9451 3.90879 15.9251 3.81947 15.887 3.73746C15.8488 3.65545 15.7933 3.5827 15.7242 3.52424C14.8789 2.80916 13.9054 2.26117 12.8555 1.9094C12.7728 1.88142 12.6852 1.87106 12.5983 1.879C12.5113 1.88694 12.427 1.913 12.3508 1.95549L10 3.26956L7.6469 1.95315C7.57061 1.91041 7.48621 1.88416 7.39914 1.87608C7.31207 1.86801 7.22428 1.87829 7.14143 1.90628C6.09219 2.26031 5.11975 2.81042 4.27581 3.52737C4.20688 3.58574 4.15142 3.65836 4.11325 3.74023C4.07508 3.8221 4.05511 3.91126 4.05471 4.00159L4.043 6.63049L1.71253 7.95862C1.63456 8.00301 1.56706 8.06366 1.51462 8.13646C1.46218 8.20925 1.42603 8.29248 1.40862 8.38049C1.19534 9.45228 1.19534 10.5556 1.40862 11.6274C1.42603 11.7154 1.46218 11.7986 1.51462 11.8714C1.56706 11.9442 1.63456 12.0049 1.71253 12.0492L4.043 13.3774L4.05237 16.0047C4.05265 16.0952 4.07257 16.1845 4.11074 16.2665C4.14891 16.3485 4.20443 16.4213 4.27346 16.4797C5.11883 17.1948 6.09234 17.7428 7.14221 18.0946C7.22489 18.1225 7.31252 18.1329 7.39944 18.125C7.48636 18.117 7.57066 18.091 7.6469 18.0485L10 16.7305L12.3532 18.0469C12.4463 18.0988 12.5512 18.1257 12.6578 18.125C12.7261 18.125 12.7939 18.1139 12.8586 18.0922C13.9076 17.7383 14.88 17.1888 15.7242 16.4727C15.7932 16.4143 15.8486 16.3417 15.8868 16.2598C15.925 16.178 15.9449 16.0888 15.9453 15.9985L15.9571 13.3696L18.2875 12.0414C18.3655 11.997 18.433 11.9364 18.4854 11.8636C18.5379 11.7908 18.574 11.7076 18.5914 11.6196C18.8035 10.5486 18.8027 9.44643 18.5891 8.37581ZM10 13.125C9.38196 13.125 8.77777 12.9417 8.26387 12.5984C7.74997 12.255 7.34943 11.7669 7.1129 11.1959C6.87638 10.6249 6.81449 9.99656 6.93507 9.39037C7.05565 8.78418 7.35328 8.22736 7.79032 7.79032C8.22736 7.35328 8.78418 7.05565 9.39037 6.93507C9.99656 6.81449 10.6249 6.87638 11.1959 7.1129C11.7669 7.34943 12.255 7.74997 12.5984 8.26387C12.9417 8.77777 13.125 9.38196 13.125 10C13.125 10.8288 12.7958 11.6237 12.2097 12.2097C11.6237 12.7958 10.8288 13.125 10 13.125Z" fill="#191F2E"/>
</svg>
