<svg width="20" height="20" viewBox="0 0 20 20" fill="none" xmlns="http://www.w3.org/2000/svg">
<path d="M16.25 8.12492C16.25 6.91544 15.899 5.73195 15.2397 4.71797C14.5804 3.70399 13.641 2.9031 12.5356 2.41243C11.4301 1.92176 10.206 1.76238 9.0117 1.95364C7.81743 2.14489 6.70432 2.67855 5.80734 3.48991C4.91037 4.30126 4.26808 5.35544 3.95838 6.5246C3.64867 7.69375 3.68485 8.92766 4.06253 10.0767C4.44021 11.2257 5.14316 12.2404 6.08613 12.9978C7.0291 13.7552 8.17158 14.2227 9.375 14.3437V18.1249C9.375 18.2907 9.44085 18.4497 9.55806 18.5669C9.67527 18.6841 9.83424 18.7499 10 18.7499C10.1658 18.7499 10.3247 18.6841 10.4419 18.5669C10.5592 18.4497 10.625 18.2907 10.625 18.1249V14.3437C12.1659 14.1869 13.5939 13.4643 14.6329 12.3156C15.6719 11.1669 16.2481 9.67379 16.25 8.12492ZM10 13.1249C9.01109 13.1249 8.04439 12.8317 7.22215 12.2823C6.3999 11.7329 5.75904 10.952 5.3806 10.0383C5.00216 9.12471 4.90315 8.11938 5.09607 7.14947C5.289 6.17957 5.7652 5.28865 6.46447 4.58939C7.16373 3.89013 8.05464 3.41392 9.02455 3.221C9.99445 3.02807 10.9998 3.12709 11.9134 3.50553C12.827 3.88397 13.6079 4.52483 14.1573 5.34707C14.7068 6.16932 15 7.13602 15 8.12492C14.9986 9.45056 14.4713 10.7215 13.5339 11.6589C12.5966 12.5962 11.3256 13.1235 10 13.1249Z" fill="#191F2E"/>
</svg>
