<svg width="20" height="20" viewBox="0 0 20 20" fill="none" xmlns="http://www.w3.org/2000/svg">
<path d="M16.8749 2.5H13.1249C12.9592 2.5 12.8002 2.56585 12.683 2.68306C12.5658 2.80027 12.4999 2.95924 12.4999 3.125C12.4999 3.29076 12.5658 3.44973 12.683 3.56694C12.8002 3.68415 12.9592 3.75 13.1249 3.75H15.3663L12.0796 7.03672C10.8382 6.02193 9.25414 5.5231 7.65521 5.64341C6.05628 5.76372 4.56474 6.49396 3.48909 7.68309C2.41344 8.87223 1.83597 10.4293 1.87611 12.0322C1.91624 13.6352 2.57092 15.1614 3.70473 16.2952C4.83854 17.429 6.36475 18.0837 7.9677 18.1238C9.57065 18.164 11.1277 17.5865 12.3169 16.5108C13.506 15.4352 14.2362 13.9437 14.3565 12.3447C14.4768 10.7458 13.978 9.16179 12.9632 7.92031L16.2499 4.63438V6.875C16.2499 7.04076 16.3158 7.19973 16.433 7.31694C16.5502 7.43415 16.7092 7.5 16.8749 7.5C17.0407 7.5 17.1997 7.43415 17.3169 7.31694C17.4341 7.19973 17.4999 7.04076 17.4999 6.875V3.125C17.4999 2.95924 17.4341 2.80027 17.3169 2.68306C17.1997 2.56585 17.0407 2.5 16.8749 2.5ZM11.6593 15.4133C10.96 16.1123 10.069 16.5883 9.0992 16.781C8.12936 16.9738 7.12414 16.8746 6.21064 16.4961C5.29714 16.1176 4.51638 15.4768 3.96707 14.6546C3.41777 13.8324 3.12458 12.8658 3.12458 11.877C3.12458 10.8881 3.41777 9.92153 3.96707 9.09934C4.51638 8.27714 5.29714 7.63627 6.21064 7.25777C7.12414 6.87927 8.12936 6.78012 9.0992 6.97286C10.069 7.16561 10.96 7.64159 11.6593 8.34063C12.5956 9.27939 13.1213 10.5511 13.1213 11.877C13.1213 13.2028 12.5956 14.4745 11.6593 15.4133Z" fill="#191F2E"/>
</svg>
