<svg width="20" height="20" viewBox="0 0 20 20" fill="none" xmlns="http://www.w3.org/2000/svg">
<path d="M16.5625 7.50018C16.5626 6.24224 16.2012 5.01077 15.5213 3.95242C14.8414 2.89407 13.8716 2.05344 12.7274 1.53063C11.5833 1.00783 10.313 0.824873 9.0678 1.00356C7.82262 1.18225 6.65504 1.71505 5.70408 2.53852C4.75313 3.36198 4.05889 4.44141 3.70403 5.64825C3.34917 6.8551 3.34865 8.13851 3.70252 9.34564C4.0564 10.5528 4.74976 11.6328 5.70004 12.457C6.65032 13.2812 7.81747 13.815 9.0625 13.9947V15.3127H6.875C6.62636 15.3127 6.3879 15.4114 6.21209 15.5873C6.03627 15.7631 5.9375 16.0015 5.9375 16.2502C5.9375 16.4988 6.03627 16.7373 6.21209 16.9131C6.3879 17.0889 6.62636 17.1877 6.875 17.1877H9.0625V18.7502C9.0625 18.9988 9.16127 19.2373 9.33709 19.4131C9.5129 19.5889 9.75136 19.6877 10 19.6877C10.2486 19.6877 10.4871 19.5889 10.6629 19.4131C10.8387 19.2373 10.9375 18.9988 10.9375 18.7502V17.1877H13.125C13.3736 17.1877 13.6121 17.0889 13.7879 16.9131C13.9637 16.7373 14.0625 16.4988 14.0625 16.2502C14.0625 16.0015 13.9637 15.7631 13.7879 15.5873C13.6121 15.4114 13.3736 15.3127 13.125 15.3127H10.9375V13.9947C12.4984 13.7674 13.9256 12.9863 14.9583 11.794C15.991 10.6016 16.5604 9.07758 16.5625 7.50018ZM5.3125 7.50018C5.3125 6.57308 5.58742 5.6668 6.10249 4.89594C6.61756 4.12508 7.34964 3.52428 8.20617 3.16949C9.0627 2.8147 10.0052 2.72188 10.9145 2.90274C11.8238 3.08361 12.659 3.53005 13.3146 4.18561C13.9701 4.84117 14.4166 5.6764 14.5974 6.58569C14.7783 7.49498 14.6855 8.43748 14.3307 9.294C13.9759 10.1505 13.3751 10.8826 12.6042 11.3977C11.8334 11.9128 10.9271 12.1877 10 12.1877C8.75724 12.1862 7.5658 11.6919 6.68704 10.8131C5.80827 9.93438 5.31395 8.74293 5.3125 7.50018Z" fill="#191F2E"/>
</svg>
