<svg width="20" height="20" viewBox="0 0 20 20" fill="none" xmlns="http://www.w3.org/2000/svg">
<path d="M11.875 10.9375C11.875 11.4938 11.71 12.0375 11.401 12.5C11.092 12.9626 10.6527 13.323 10.1388 13.5359C9.62488 13.7488 9.05938 13.8045 8.51381 13.696C7.96824 13.5874 7.4671 13.3196 7.07376 12.9262C6.68043 12.5329 6.41256 12.0318 6.30404 11.4862C6.19552 10.9406 6.25122 10.3751 6.46409 9.8612C6.67696 9.34729 7.03745 8.90803 7.49996 8.59899C7.96247 8.28995 8.50624 8.125 9.0625 8.125C9.43184 8.125 9.79757 8.19775 10.1388 8.33909C10.48 8.48043 10.7901 8.6876 11.0512 8.94876C11.3124 9.20993 11.5196 9.51997 11.6609 9.8612C11.8023 10.2024 11.875 10.5682 11.875 10.9375ZM16.875 3.125V16.875C16.875 17.2065 16.7433 17.5245 16.5089 17.7589C16.2745 17.9933 15.9565 18.125 15.625 18.125H4.375C4.04348 18.125 3.72554 17.9933 3.49112 17.7589C3.2567 17.5245 3.125 17.2065 3.125 16.875V3.125C3.125 2.79348 3.2567 2.47554 3.49112 2.24112C3.72554 2.0067 4.04348 1.875 4.375 1.875H15.625C15.9565 1.875 16.2745 2.0067 16.5089 2.24112C16.7433 2.47554 16.875 2.79348 16.875 3.125ZM15 5.625C15 5.45924 14.9342 5.30027 14.8169 5.18306C14.6997 5.06585 14.5408 5 14.375 5H11.875C11.7092 5 11.5503 5.06585 11.4331 5.18306C11.3158 5.30027 11.25 5.45924 11.25 5.625C11.25 5.79076 11.3158 5.94973 11.4331 6.06694C11.5503 6.18415 11.7092 6.25 11.875 6.25H12.8664L11.4602 7.65625C10.6338 7.05027 9.60914 6.77843 8.59103 6.89507C7.57293 7.01171 6.63633 7.50823 5.9684 8.28542C5.30047 9.0626 4.95041 10.0632 4.98816 11.0873C5.02591 12.1113 5.44869 13.0834 6.17203 13.8093C6.89537 14.5352 7.86598 14.9615 8.88991 15.0028C9.91384 15.0442 10.9157 14.6976 11.6952 14.0325C12.4747 13.3673 12.9746 12.4324 13.0948 11.4148C13.215 10.3971 12.9468 9.3715 12.3438 8.54297L13.75 7.13672V8.125C13.75 8.29076 13.8158 8.44973 13.9331 8.56694C14.0503 8.68415 14.2092 8.75 14.375 8.75C14.5408 8.75 14.6997 8.68415 14.8169 8.56694C14.9342 8.44973 15 8.29076 15 8.125V5.625Z" fill="#191F2E"/>
</svg>
