<svg width="20" height="20" viewBox="0 0 20 20" fill="none" xmlns="http://www.w3.org/2000/svg">
<path d="M10.9375 7.26571V5.40633L12.643 6.42899C12.7486 6.49495 12.8663 6.53921 12.9893 6.55917C13.1122 6.57913 13.2379 6.5744 13.3589 6.54525C13.48 6.51611 13.5941 6.46313 13.6945 6.38941C13.7948 6.31569 13.8795 6.22271 13.9436 6.1159C14.0076 6.00909 14.0497 5.89059 14.0675 5.76732C14.0852 5.64405 14.0782 5.51848 14.0469 5.39795C14.0156 5.27741 13.9605 5.16433 13.885 5.0653C13.8095 4.96627 13.715 4.88328 13.607 4.82118L11.8219 3.75008L13.607 2.67899C13.8155 2.54885 13.9644 2.34209 14.0219 2.1032C14.0795 1.86432 14.0409 1.61241 13.9145 1.40168C13.7882 1.19095 13.5841 1.03825 13.3463 0.976441C13.1085 0.91463 12.856 0.948648 12.643 1.07118L10 2.65633L7.35704 1.07118C7.14407 0.948648 6.8915 0.91463 6.65369 0.976441C6.41589 1.03825 6.21185 1.19095 6.0855 1.40168C5.95914 1.61241 5.92057 1.86432 5.97807 2.1032C6.03558 2.34209 6.18457 2.54885 6.39298 2.67899L8.17814 3.75008L6.39298 4.82118C6.28503 4.88328 6.19054 4.96627 6.11502 5.0653C6.0395 5.16433 5.98447 5.27741 5.95314 5.39795C5.92181 5.51848 5.9148 5.64405 5.93254 5.76732C5.95028 5.89059 5.9924 6.00909 6.05645 6.1159C6.12049 6.22271 6.20518 6.31569 6.30555 6.38941C6.40593 6.46313 6.51999 6.51611 6.64107 6.54525C6.76215 6.5744 6.88783 6.57913 7.01076 6.55917C7.13369 6.53921 7.25141 6.49495 7.35704 6.42899L9.06251 5.40633V7.26571C7.58792 7.50149 6.25632 8.28427 5.33312 9.45803C4.40991 10.6318 3.9629 12.1103 4.08116 13.599C4.19943 15.0876 4.87429 16.477 5.97124 17.4903C7.0682 18.5035 8.50669 19.0662 10 19.0662C11.4933 19.0662 12.9318 18.5035 14.0288 17.4903C15.1257 16.477 15.8006 15.0876 15.9189 13.599C16.0371 12.1103 15.5901 10.6318 14.6669 9.45803C13.7437 8.28427 12.4121 7.50149 10.9375 7.26571ZM10 17.1876C9.19652 17.1876 8.41108 16.9493 7.74301 16.5029C7.07493 16.0565 6.55423 15.4221 6.24675 14.6797C5.93927 13.9374 5.85882 13.1206 6.01557 12.3325C6.17232 11.5445 6.55924 10.8206 7.12739 10.2525C7.69554 9.68431 8.41941 9.29739 9.20746 9.14064C9.9955 8.98389 10.8123 9.06434 11.5547 9.37182C12.297 9.6793 12.9315 10.2 13.3779 10.8681C13.8242 11.5362 14.0625 12.3216 14.0625 13.1251C14.0613 14.2021 13.6329 15.2347 12.8713 15.9963C12.1097 16.7579 11.0771 17.1863 10 17.1876Z" fill="#191F2E"/>
</svg>
