<svg width="20" height="20" viewBox="0 0 20 20" fill="none" xmlns="http://www.w3.org/2000/svg">
<path d="M16.875 2.1875H13.125C12.8763 2.1875 12.6379 2.28627 12.462 2.46209C12.2862 2.6379 12.1875 2.87636 12.1875 3.125C12.1875 3.37364 12.2862 3.6121 12.462 3.78791C12.6379 3.96373 12.8763 4.0625 13.125 4.0625H14.6093L12.0531 6.62031C10.7242 5.62718 9.06849 5.1742 7.41911 5.35252C5.76973 5.53085 4.2491 6.32724 3.16319 7.58146C2.07729 8.83567 1.5067 10.4546 1.56624 12.1125C1.62579 13.7705 2.31104 15.3443 3.48413 16.5174C4.65721 17.6905 6.23105 18.3757 7.88898 18.4353C9.5469 18.4948 11.1658 17.9242 12.4201 16.8383C13.6743 15.7524 14.4707 14.2318 14.649 12.5824C14.8273 10.933 14.3743 9.27732 13.3812 7.94844L15.9375 5.39062V6.875C15.9375 7.12364 16.0362 7.3621 16.212 7.53791C16.3879 7.71373 16.6263 7.8125 16.875 7.8125C17.1236 7.8125 17.3621 7.71373 17.5379 7.53791C17.7137 7.3621 17.8125 7.12364 17.8125 6.875V3.125C17.8125 2.87636 17.7137 2.6379 17.5379 2.46209C17.3621 2.28627 17.1236 2.1875 16.875 2.1875ZM11.4382 15.1922C10.7826 15.8476 9.94737 16.2938 9.03813 16.4745C8.1289 16.6552 7.18649 16.5623 6.33008 16.2075C5.47366 15.8526 4.74168 15.2518 4.2267 14.481C3.71171 13.7102 3.43684 12.804 3.43684 11.877C3.43684 10.9499 3.71171 10.0437 4.2267 9.27291C4.74168 8.5021 5.47366 7.90129 6.33008 7.54645C7.18649 7.19161 8.1289 7.09867 9.03813 7.27938C9.94737 7.4601 10.7826 7.90635 11.4382 8.56172C12.3158 9.44186 12.8086 10.6341 12.8086 11.877C12.8086 13.1199 12.3158 14.312 11.4382 15.1922Z" fill="#191F2E"/>
</svg>
