<svg width="20" height="20" viewBox="0 0 20 20" fill="none" xmlns="http://www.w3.org/2000/svg">
<path d="M13.1125 8.46484C13.171 9.10454 13.031 9.74673 12.7114 10.304C12.3919 10.8612 11.9084 11.3065 11.3268 11.5791C10.7451 11.8517 10.0936 11.9385 9.46088 11.8276C8.82817 11.7166 8.245 11.4134 7.79078 10.9592C7.33656 10.505 7.03335 9.92183 6.92243 9.28912C6.81151 8.6564 6.89827 8.00487 7.1709 7.42323C7.44352 6.84159 7.88877 6.35809 8.44602 6.03856C9.00328 5.71903 9.64546 5.57899 10.2852 5.6375C11.0126 5.70404 11.6937 6.02329 12.2102 6.5398C12.7267 7.05631 13.046 7.73743 13.1125 8.46484ZM16.875 3.125V16.875C16.875 17.2065 16.7433 17.5245 16.5089 17.7589C16.2745 17.9933 15.9565 18.125 15.625 18.125H4.375C4.04348 18.125 3.72554 17.9933 3.49112 17.7589C3.2567 17.5245 3.125 17.2065 3.125 16.875V3.125C3.125 2.79348 3.2567 2.47554 3.49112 2.24112C3.72554 2.0067 4.04348 1.875 4.375 1.875H15.625C15.9565 1.875 16.2745 2.0067 16.5089 2.24112C16.7433 2.47554 16.875 2.79348 16.875 3.125ZM14.375 8.75C14.3751 7.91138 14.1341 7.0904 13.6809 6.38483C13.2276 5.67927 12.5811 5.11884 11.8183 4.77031C11.0555 4.42177 10.2087 4.2998 9.37853 4.41892C8.54842 4.53805 7.77002 4.89325 7.13606 5.44223C6.50209 5.9912 6.03926 6.71082 5.80269 7.51539C5.56611 8.31995 5.56576 9.17555 5.80168 9.98031C6.0376 10.7851 6.49984 11.5051 7.13336 12.0546C7.76688 12.604 8.54498 12.9599 9.375 13.0797V15.6039C9.37301 15.7651 9.43206 15.9212 9.54029 16.0407C9.64852 16.1603 9.79795 16.2345 9.95859 16.2484C10.0441 16.2541 10.1298 16.2422 10.2105 16.2133C10.2912 16.1844 10.3651 16.1393 10.4276 16.0807C10.49 16.0221 10.5398 15.9512 10.5738 15.8726C10.6078 15.7939 10.6252 15.7091 10.625 15.6234V13.0797C11.6656 12.928 12.6169 12.4072 13.3053 11.6124C13.9938 10.8175 14.3734 9.80156 14.375 8.75Z" fill="#191F2E"/>
</svg>
