<svg width="20" height="20" viewBox="0 0 20 20" fill="none" xmlns="http://www.w3.org/2000/svg">
<path d="M11.5555 8.88438C11.5919 9.33072 11.4904 9.77749 11.2648 10.1643C11.0392 10.5512 10.7003 10.8595 10.2939 11.0475C9.88747 11.2356 9.43312 11.2944 8.99221 11.216C8.5513 11.1376 8.14508 10.9257 7.82842 10.6091C7.51176 10.2924 7.29992 9.8862 7.22151 9.44529C7.1431 9.00438 7.2019 8.55003 7.38997 8.14361C7.57805 7.73719 7.88633 7.39828 8.27317 7.17267C8.66001 6.94706 9.10678 6.84561 9.55312 6.88203C10.0701 6.92422 10.5552 7.14872 10.922 7.51549C11.2888 7.88225 11.5133 8.36741 11.5555 8.88438ZM16.875 3.125V16.875C16.875 17.2065 16.7433 17.5245 16.5089 17.7589C16.2745 17.9933 15.9565 18.125 15.625 18.125H4.375C4.04348 18.125 3.72554 17.9933 3.49112 17.7589C3.2567 17.5245 3.125 17.2065 3.125 16.875V3.125C3.125 2.79348 3.2567 2.47554 3.49112 2.24112C3.72554 2.0067 4.04348 1.875 4.375 1.875H15.625C15.9565 1.875 16.2745 2.0067 16.5089 2.24112C16.7433 2.47554 16.875 2.79348 16.875 3.125ZM14.6875 4.375C14.6875 4.20924 14.6217 4.05027 14.5044 3.93306C14.3872 3.81585 14.2283 3.75 14.0625 3.75H11.8961C11.7345 3.74743 11.578 3.80623 11.4581 3.91454C11.3382 4.02285 11.2638 4.1726 11.25 4.33359C11.2443 4.41909 11.2563 4.50483 11.2851 4.58551C11.314 4.66618 11.3591 4.74006 11.4177 4.80255C11.4764 4.86505 11.5472 4.91483 11.6259 4.94879C11.7045 4.98276 11.7893 5.00019 11.875 5H12.5539L11.3219 6.23203C10.9 5.94074 10.4182 5.74752 9.91194 5.66653C9.40568 5.58553 8.8877 5.61881 8.39596 5.76392C7.90422 5.90904 7.45116 6.16231 7.06998 6.5052C6.6888 6.84808 6.38915 7.27189 6.19298 7.74558C5.9968 8.21928 5.90907 8.73085 5.93621 9.24284C5.96336 9.75483 6.10468 10.2543 6.34984 10.7046C6.595 11.1549 6.93778 11.5446 7.35308 11.8453C7.76838 12.1459 8.24567 12.3499 8.75 12.4422V13.75H7.20859C7.04703 13.7474 6.89051 13.8062 6.7706 13.9145C6.65069 14.0228 6.57632 14.1726 6.5625 14.3336C6.55682 14.4191 6.56879 14.5048 6.59764 14.5855C6.6265 14.6662 6.67164 14.7401 6.73025 14.8026C6.78886 14.865 6.8597 14.9148 6.93836 14.9488C7.01702 14.9828 7.10182 15.0002 7.1875 15H8.75V16.2289C8.74801 16.3901 8.80706 16.5462 8.91529 16.6657C9.02352 16.7853 9.17295 16.8595 9.33359 16.8734C9.41909 16.8791 9.50483 16.8672 9.58551 16.8383C9.66618 16.8094 9.74006 16.7643 9.80255 16.7057C9.86505 16.6471 9.91483 16.5762 9.94879 16.4976C9.98276 16.4189 10.0002 16.3341 10 16.2484V15H11.5414C11.7027 15.0022 11.8588 14.9432 11.9784 14.8349C12.098 14.7267 12.1721 14.5771 12.1859 14.4164C12.1916 14.3309 12.1797 14.2452 12.1508 14.1645C12.1219 14.0838 12.0768 14.0099 12.0182 13.9474C11.9596 13.885 11.8887 13.8352 11.8101 13.8012C11.7314 13.7672 11.6466 13.7498 11.5609 13.75H10V12.4422C10.5632 12.3377 11.0914 12.0941 11.5366 11.7336C11.9817 11.3731 12.3297 10.907 12.549 10.3778C12.7682 9.84852 12.8516 9.27289 12.7918 8.70318C12.7319 8.13347 12.5307 7.58776 12.2063 7.11563L13.4375 5.88359V6.54141C13.4351 6.70292 13.494 6.85934 13.6023 6.97921C13.7105 7.09908 13.8602 7.1735 14.0211 7.1875C14.1066 7.19318 14.1923 7.18121 14.273 7.15236C14.3537 7.1235 14.4276 7.07836 14.4901 7.01975C14.5525 6.96114 14.6023 6.8903 14.6363 6.81164C14.6703 6.73298 14.6877 6.64818 14.6875 6.5625V4.375Z" fill="#191F2E"/>
</svg>
