<svg width="20" height="20" viewBox="0 0 20 20" fill="none" xmlns="http://www.w3.org/2000/svg">
<path d="M16.8749 2.1875H13.4374C13.1888 2.1875 12.9503 2.28627 12.7745 2.46209C12.5987 2.6379 12.4999 2.87636 12.4999 3.125C12.4999 3.37364 12.5987 3.6121 12.7745 3.78791C12.9503 3.96373 13.1888 4.0625 13.4374 4.0625H14.6093L13.1249 5.54688L11.9132 4.3375C11.7371 4.16138 11.4982 4.06244 11.2492 4.06244C11.0001 4.06244 10.7612 4.16138 10.5851 4.3375C10.409 4.51362 10.31 4.75249 10.31 5.00156C10.31 5.25063 10.409 5.4895 10.5851 5.66562L11.7968 6.875L10.9828 7.69219C9.77321 6.81664 8.27818 6.42897 6.79558 6.60643C5.31298 6.78389 3.95168 7.51344 2.98293 8.64971C2.01418 9.78599 1.50913 11.2456 1.56841 12.7376C1.62768 14.2296 2.24694 15.6445 3.30278 16.7003C4.35862 17.7561 5.77351 18.3754 7.26552 18.4347C8.75752 18.4939 10.2171 17.9889 11.3534 17.0201C12.4896 16.0514 13.2192 14.6901 13.3966 13.2075C13.5741 11.7249 13.1864 10.2299 12.3109 9.02031L13.1249 8.20312L14.3367 9.41562C14.5128 9.59174 14.7517 9.69069 15.0007 9.69069C15.2498 9.69069 15.4887 9.59174 15.6648 9.41562C15.8409 9.2395 15.9399 9.00063 15.9399 8.75156C15.9399 8.50249 15.8409 8.26362 15.6648 8.0875L14.4531 6.875L15.9374 5.39062V6.5625C15.9374 6.81114 16.0362 7.0496 16.212 7.22541C16.3878 7.40123 16.6263 7.5 16.8749 7.5C17.1236 7.5 17.362 7.40123 17.5379 7.22541C17.7137 7.0496 17.8124 6.81114 17.8124 6.5625V3.125C17.8124 2.87636 17.7137 2.6379 17.5379 2.46209C17.362 2.28627 17.1236 2.1875 16.8749 2.1875ZM10.3726 15.375C9.70809 16.0395 8.83373 16.4531 7.89848 16.5453C6.96324 16.6375 6.02496 16.4026 5.24348 15.8806C4.46199 15.3586 3.88566 14.5818 3.61265 13.6826C3.33964 12.7833 3.38684 11.8173 3.74622 10.9489C4.10559 10.0805 4.75491 9.36365 5.58355 8.92033C6.4122 8.47701 7.36891 8.33469 8.29072 8.51762C9.21252 8.70055 10.0424 9.19741 10.639 9.92355C11.2355 10.6497 11.5619 11.5602 11.5624 12.5C11.5627 13.5782 11.1347 14.6123 10.3726 15.375Z" fill="#191F2E"/>
</svg>
