<svg width="20" height="20" viewBox="0 0 20 20" fill="none" xmlns="http://www.w3.org/2000/svg">
<path d="M9.0625 9.0625C9.0625 9.30973 8.98919 9.5514 8.85184 9.75696C8.71449 9.96252 8.51926 10.1227 8.29085 10.2174C8.06245 10.312 7.81111 10.3367 7.56864 10.2885C7.32616 10.2403 7.10343 10.1212 6.92862 9.94638C6.7538 9.77157 6.63475 9.54884 6.58652 9.30636C6.53829 9.06389 6.56304 8.81255 6.65765 8.58415C6.75226 8.35574 6.91248 8.16051 7.11804 8.02316C7.3236 7.88581 7.56527 7.8125 7.8125 7.8125C8.14402 7.8125 8.46196 7.9442 8.69638 8.17862C8.9308 8.41304 9.0625 8.73098 9.0625 9.0625ZM12.1875 7.8125C11.9403 7.8125 11.6986 7.88581 11.493 8.02316C11.2875 8.16051 11.1273 8.35574 11.0326 8.58415C10.938 8.81255 10.9133 9.06389 10.9615 9.30636C11.0097 9.54884 11.1288 9.77157 11.3036 9.94638C11.4784 10.1212 11.7012 10.2403 11.9436 10.2885C12.1861 10.3367 12.4374 10.312 12.6659 10.2174C12.8943 10.1227 13.0895 9.96252 13.2268 9.75696C13.3642 9.5514 13.4375 9.30973 13.4375 9.0625C13.4375 8.73098 13.3058 8.41304 13.0714 8.17862C12.837 7.9442 12.519 7.8125 12.1875 7.8125ZM17.8125 9.375V16.875C17.8126 17.0525 17.7622 17.2264 17.6673 17.3764C17.5725 17.5264 17.4369 17.6464 17.2765 17.7224C17.1161 17.7985 16.9375 17.8274 16.7613 17.8058C16.5851 17.7843 16.4186 17.7132 16.2812 17.6008L14.5836 16.2109L12.8852 17.6008C12.7176 17.7379 12.5079 17.8128 12.2914 17.8128C12.075 17.8128 11.8652 17.7379 11.6977 17.6008L10 16.2109L8.30234 17.6008C8.13483 17.7379 7.92505 17.8128 7.70859 17.8128C7.49214 17.8128 7.28235 17.7379 7.11484 17.6008L5.41641 16.2109L3.71875 17.6008C3.58138 17.7132 3.41493 17.7843 3.23874 17.8058C3.06255 17.8274 2.88386 17.7985 2.72346 17.7224C2.56307 17.6464 2.42755 17.5264 2.33267 17.3764C2.23779 17.2264 2.18745 17.0525 2.1875 16.875V9.375C2.1875 7.303 3.0106 5.31586 4.47573 3.85073C5.94086 2.3856 7.928 1.5625 10 1.5625C12.072 1.5625 14.0591 2.3856 15.5243 3.85073C16.9894 5.31586 17.8125 7.303 17.8125 9.375ZM15.9375 9.375C15.9375 7.80028 15.3119 6.29005 14.1984 5.17655C13.0849 4.06306 11.5747 3.4375 10 3.4375C8.42528 3.4375 6.91505 4.06306 5.80155 5.17655C4.68806 6.29005 4.0625 7.80028 4.0625 9.375V14.8969L4.82266 14.2719C4.99017 14.1348 5.19995 14.0599 5.41641 14.0599C5.63286 14.0599 5.84265 14.1348 6.01016 14.2719L7.70859 15.6641L9.40625 14.2742C9.57376 14.1371 9.78355 14.0622 10 14.0622C10.2165 14.0622 10.4262 14.1371 10.5938 14.2742L12.2914 15.6641L13.9898 14.2742C14.1574 14.1371 14.3671 14.0622 14.5836 14.0622C14.8 14.0622 15.0098 14.1371 15.1773 14.2742L15.9375 14.8992V9.375Z" fill="#191F2E"/>
</svg>
