<svg width="20" height="20" viewBox="0 0 20 20" fill="none" xmlns="http://www.w3.org/2000/svg">
<path d="M8.75 9.0625C8.75 9.24792 8.69502 9.42918 8.592 9.58335C8.48899 9.73752 8.34257 9.85768 8.17127 9.92864C7.99996 9.99959 7.81146 10.0182 7.6296 9.98199C7.44775 9.94581 7.2807 9.85652 7.14959 9.72541C7.01848 9.5943 6.92919 9.42725 6.89301 9.2454C6.85684 9.06354 6.87541 8.87504 6.94636 8.70373C7.01732 8.53243 7.13748 8.38601 7.29165 8.283C7.44582 8.17998 7.62708 8.125 7.8125 8.125C8.06114 8.125 8.2996 8.22377 8.47541 8.39959C8.65123 8.5754 8.75 8.81386 8.75 9.0625ZM12.1875 8.125C12.0021 8.125 11.8208 8.17998 11.6667 8.283C11.5125 8.38601 11.3923 8.53243 11.3214 8.70373C11.2504 8.87504 11.2318 9.06354 11.268 9.2454C11.3042 9.42725 11.3935 9.5943 11.5246 9.72541C11.6557 9.85652 11.8227 9.94581 12.0046 9.98199C12.1865 10.0182 12.375 9.99959 12.5463 9.92864C12.7176 9.85768 12.864 9.73752 12.967 9.58335C13.07 9.42918 13.125 9.24792 13.125 9.0625C13.125 8.81386 13.0262 8.5754 12.8504 8.39959C12.6746 8.22377 12.4361 8.125 12.1875 8.125ZM17.5 9.375V16.875C17.5 16.9934 17.4664 17.1093 17.4032 17.2093C17.3399 17.3093 17.2495 17.3893 17.1425 17.44C17.0355 17.4906 16.9164 17.5099 16.7989 17.4955C16.6814 17.4811 16.5705 17.4336 16.4789 17.3586L14.5836 15.8078L12.6875 17.3586C12.5758 17.4499 12.436 17.4998 12.2918 17.4998C12.1476 17.4998 12.0077 17.4499 11.8961 17.3586L10 15.8078L8.10391 17.3586C7.99225 17.4499 7.85245 17.4998 7.7082 17.4998C7.56396 17.4998 7.42415 17.4499 7.3125 17.3586L5.41641 15.8078L3.52109 17.3586C3.42954 17.4336 3.31857 17.4811 3.20109 17.4955C3.08361 17.5099 2.96445 17.4906 2.85748 17.44C2.75051 17.3893 2.66013 17.3093 2.59684 17.2093C2.53356 17.1093 2.49997 16.9934 2.5 16.875V9.375C2.5 7.38588 3.29018 5.47822 4.6967 4.0717C6.10322 2.66518 8.01088 1.875 10 1.875C11.9891 1.875 13.8968 2.66518 15.3033 4.0717C16.7098 5.47822 17.5 7.38588 17.5 9.375ZM16.25 9.375C16.25 7.7174 15.5915 6.12769 14.4194 4.95558C13.2473 3.78348 11.6576 3.125 10 3.125C8.3424 3.125 6.75269 3.78348 5.58058 4.95558C4.40848 6.12769 3.75 7.7174 3.75 9.375V15.5562L5.02109 14.5164C5.13275 14.4251 5.27255 14.3752 5.4168 14.3752C5.56104 14.3752 5.70085 14.4251 5.8125 14.5164L7.70859 16.0672L9.60391 14.5164C9.71562 14.4249 9.85558 14.3749 10 14.3749C10.1444 14.3749 10.2844 14.4249 10.3961 14.5164L12.2914 16.0672L14.1875 14.5164C14.2992 14.4251 14.439 14.3752 14.5832 14.3752C14.7274 14.3752 14.8673 14.4251 14.9789 14.5164L16.25 15.5562V9.375Z" fill="#191F2E"/>
</svg>
