<svg width="20" height="20" viewBox="0 0 20 20" fill="none" xmlns="http://www.w3.org/2000/svg">
<path d="M10 1.875C8.01157 1.87727 6.10524 2.66818 4.69921 4.07421C3.29318 5.48024 2.50227 7.38657 2.5 9.375V16.875C2.49997 16.9934 2.53356 17.1093 2.59684 17.2093C2.66013 17.3093 2.75051 17.3893 2.85748 17.44C2.96445 17.4906 3.08361 17.5099 3.20109 17.4955C3.31857 17.4811 3.42954 17.4336 3.52109 17.3586L5.41641 15.8078L7.3125 17.3586C7.42415 17.4499 7.56396 17.4998 7.7082 17.4998C7.85245 17.4998 7.99225 17.4499 8.10391 17.3586L10 15.8078L11.8961 17.3586C12.0077 17.4499 12.1476 17.4998 12.2918 17.4998C12.436 17.4998 12.5758 17.4499 12.6875 17.3586L14.5836 15.8078L16.4789 17.3586C16.5705 17.4336 16.6814 17.4811 16.7989 17.4955C16.9164 17.5099 17.0355 17.4906 17.1425 17.44C17.2495 17.3893 17.3399 17.3093 17.4032 17.2093C17.4664 17.1093 17.5 16.9934 17.5 16.875V9.375C17.4977 7.38657 16.7068 5.48024 15.3008 4.07421C13.8948 2.66818 11.9884 1.87727 10 1.875ZM7.8125 10C7.62708 10 7.44582 9.94502 7.29165 9.842C7.13748 9.73899 7.01732 9.59257 6.94636 9.42127C6.87541 9.24996 6.85684 9.06146 6.89301 8.8796C6.92919 8.69775 7.01848 8.5307 7.14959 8.39959C7.2807 8.26848 7.44775 8.17919 7.6296 8.14301C7.81146 8.10684 7.99996 8.12541 8.17127 8.19636C8.34257 8.26732 8.48899 8.38748 8.592 8.54165C8.69502 8.69582 8.75 8.87708 8.75 9.0625C8.75 9.31114 8.65123 9.5496 8.47541 9.72541C8.2996 9.90123 8.06114 10 7.8125 10ZM12.1875 10C12.0021 10 11.8208 9.94502 11.6667 9.842C11.5125 9.73899 11.3923 9.59257 11.3214 9.42127C11.2504 9.24996 11.2318 9.06146 11.268 8.8796C11.3042 8.69775 11.3935 8.5307 11.5246 8.39959C11.6557 8.26848 11.8227 8.17919 12.0046 8.14301C12.1865 8.10684 12.375 8.12541 12.5463 8.19636C12.7176 8.26732 12.864 8.38748 12.967 8.54165C13.07 8.69582 13.125 8.87708 13.125 9.0625C13.125 9.31114 13.0262 9.5496 12.8504 9.72541C12.6746 9.90123 12.4361 10 12.1875 10Z" fill="#191F2E"/>
</svg>
