<svg width="20" height="20" viewBox="0 0 20 20" fill="none" xmlns="http://www.w3.org/2000/svg">
<path d="M16.875 3.125H3.125C2.79348 3.125 2.47554 3.2567 2.24112 3.49112C2.0067 3.72554 1.875 4.04348 1.875 4.375V15.625C1.875 15.9565 2.0067 16.2745 2.24112 16.5089C2.47554 16.7433 2.79348 16.875 3.125 16.875H16.875C17.2065 16.875 17.5245 16.7433 17.7589 16.5089C17.9933 16.2745 18.125 15.9565 18.125 15.625V4.375C18.125 4.04348 17.9933 3.72554 17.7589 3.49112C17.5245 3.2567 17.2065 3.125 16.875 3.125ZM8.75 11.25C8.75 11.913 8.48661 12.5489 8.01777 13.0178C7.54893 13.4866 6.91304 13.75 6.25 13.75C5.58696 13.75 4.95107 13.4866 4.48223 13.0178C4.01339 12.5489 3.75 11.913 3.75 11.25V8.75C3.75008 8.24373 3.90386 7.74942 4.191 7.33246C4.47814 6.9155 4.8851 6.59554 5.35805 6.41491C5.83099 6.23429 6.34764 6.20151 6.83962 6.32091C7.33161 6.44031 7.77575 6.70627 8.11328 7.08359C8.17118 7.14419 8.2163 7.21581 8.24595 7.2942C8.27561 7.37259 8.28919 7.45614 8.2859 7.53989C8.28261 7.62363 8.26252 7.70586 8.2268 7.78168C8.19109 7.8575 8.14049 7.92536 8.07802 7.98123C8.01555 8.0371 7.94248 8.07983 7.86315 8.10689C7.78383 8.13394 7.69988 8.14477 7.61629 8.13872C7.53269 8.13268 7.45117 8.10988 7.37657 8.07168C7.30197 8.03349 7.23581 7.98069 7.18203 7.91641C7.01327 7.72757 6.79114 7.59446 6.54504 7.53468C6.29894 7.47491 6.04049 7.49129 5.80391 7.58167C5.56733 7.67205 5.36379 7.83216 5.22023 8.04079C5.07667 8.24943 4.99987 8.49675 5 8.75V11.25C5 11.5815 5.1317 11.8995 5.36612 12.1339C5.60054 12.3683 5.91848 12.5 6.25 12.5C6.58152 12.5 6.89946 12.3683 7.13388 12.1339C7.3683 11.8995 7.5 11.5815 7.5 11.25V10.625H6.875C6.70924 10.625 6.55027 10.5592 6.43306 10.4419C6.31585 10.3247 6.25 10.1658 6.25 10C6.25 9.83424 6.31585 9.67527 6.43306 9.55806C6.55027 9.44085 6.70924 9.375 6.875 9.375H8.125C8.29076 9.375 8.44973 9.44085 8.56694 9.55806C8.68415 9.67527 8.75 9.83424 8.75 10V11.25ZM11.25 13.125C11.25 13.2908 11.1842 13.4497 11.0669 13.5669C10.9497 13.6842 10.7908 13.75 10.625 13.75C10.4592 13.75 10.3003 13.6842 10.1831 13.5669C10.0658 13.4497 10 13.2908 10 13.125V6.875C10 6.70924 10.0658 6.55027 10.1831 6.43306C10.3003 6.31585 10.4592 6.25 10.625 6.25C10.7908 6.25 10.9497 6.31585 11.0669 6.43306C11.1842 6.55027 11.25 6.70924 11.25 6.875V13.125ZM15.625 7.5H13.75V9.375H15C15.1658 9.375 15.3247 9.44085 15.4419 9.55806C15.5592 9.67527 15.625 9.83424 15.625 10C15.625 10.1658 15.5592 10.3247 15.4419 10.4419C15.3247 10.5592 15.1658 10.625 15 10.625H13.75V13.125C13.75 13.2908 13.6842 13.4497 13.5669 13.5669C13.4497 13.6842 13.2908 13.75 13.125 13.75C12.9592 13.75 12.8003 13.6842 12.6831 13.5669C12.5658 13.4497 12.5 13.2908 12.5 13.125V6.875C12.5 6.70924 12.5658 6.55027 12.6831 6.43306C12.8003 6.31585 12.9592 6.25 13.125 6.25H15.625C15.7908 6.25 15.9497 6.31585 16.0669 6.43306C16.1842 6.55027 16.25 6.70924 16.25 6.875C16.25 7.04076 16.1842 7.19973 16.0669 7.31694C15.9497 7.43415 15.7908 7.5 15.625 7.5Z" fill="#191F2E"/>
</svg>
