<svg width="20" height="20" viewBox="0 0 20 20" fill="none" xmlns="http://www.w3.org/2000/svg">
<path d="M16.875 5.62499H14.1344C14.1648 5.59921 14.1961 5.57421 14.2258 5.54687C14.4631 5.33607 14.6543 5.07858 14.7875 4.7905C14.9207 4.50243 14.9931 4.18996 15 3.87265C15.0103 3.52552 14.9495 3.17995 14.8213 2.85717C14.6932 2.53438 14.5005 2.24119 14.255 1.99559C14.0094 1.74999 13.7163 1.55716 13.3936 1.42895C13.0708 1.30073 12.7253 1.23983 12.3781 1.24999C12.0607 1.25683 11.7481 1.32912 11.4598 1.46234C11.1716 1.59556 10.914 1.78684 10.7031 2.02421C10.4113 2.36241 10.1741 2.74409 10 3.15546C9.82592 2.74409 9.58869 2.36241 9.29688 2.02421C9.08599 1.78684 8.82837 1.59556 8.54015 1.46234C8.25193 1.32912 7.93932 1.25683 7.62187 1.24999C7.27474 1.23983 6.9292 1.30073 6.60645 1.42895C6.2837 1.55716 5.99057 1.74999 5.74504 1.99559C5.49951 2.24119 5.30677 2.53438 5.17865 2.85717C5.05053 3.17995 4.98974 3.52552 5 3.87265C5.00694 4.18996 5.07929 4.50243 5.2125 4.7905C5.34572 5.07858 5.53695 5.33607 5.77422 5.54687C5.80391 5.57265 5.83516 5.59765 5.86563 5.62499H3.125C2.79348 5.62499 2.47554 5.75669 2.24112 5.99111C2.0067 6.22553 1.875 6.54347 1.875 6.87499V9.37499C1.875 9.70651 2.0067 10.0245 2.24112 10.2589C2.47554 10.4933 2.79348 10.625 3.125 10.625V15.625C3.125 15.9565 3.2567 16.2745 3.49112 16.5089C3.72554 16.7433 4.04348 16.875 4.375 16.875H9.0625C9.14538 16.875 9.22487 16.8421 9.28347 16.7835C9.34208 16.7249 9.375 16.6454 9.375 16.5625V9.37499H3.125V6.87499H9.375V9.37499H10.625V6.87499H16.875V9.37499H10.625V16.5625C10.625 16.6454 10.6579 16.7249 10.7165 16.7835C10.7751 16.8421 10.8546 16.875 10.9375 16.875H15.625C15.9565 16.875 16.2745 16.7433 16.5089 16.5089C16.7433 16.2745 16.875 15.9565 16.875 15.625V10.625C17.2065 10.625 17.5245 10.4933 17.7589 10.2589C17.9933 10.0245 18.125 9.70651 18.125 9.37499V6.87499C18.125 6.54347 17.9933 6.22553 17.7589 5.99111C17.5245 5.75669 17.2065 5.62499 16.875 5.62499ZM6.60234 4.60937C6.49306 4.51041 6.40542 4.38992 6.34492 4.25548C6.28442 4.12104 6.25237 3.97554 6.25078 3.82812C6.24683 3.65538 6.27739 3.4836 6.34068 3.32283C6.40396 3.16206 6.4987 3.01554 6.61933 2.89185C6.73997 2.76816 6.88408 2.66979 7.04321 2.6025C7.20235 2.53521 7.37332 2.50036 7.54609 2.49999H7.58438C7.7318 2.50158 7.87729 2.53363 8.01174 2.59413C8.14618 2.65463 8.26667 2.74227 8.36563 2.85155C9.02109 3.59218 9.25234 4.8203 9.33359 5.57968C8.57109 5.49921 7.34375 5.26796 6.60234 4.60937ZM13.3992 4.60937C12.6578 5.26562 11.4273 5.49687 10.6648 5.57812C10.7578 4.75702 11.0156 3.55468 11.6406 2.85234C11.7396 2.74305 11.8601 2.65541 11.9945 2.59491C12.129 2.53441 12.2745 2.50236 12.4219 2.50077H12.4602C12.6329 2.50185 12.8038 2.53741 12.9626 2.60536C13.1215 2.67331 13.2652 2.77229 13.3854 2.89649C13.5055 3.02069 13.5996 3.16762 13.6622 3.32867C13.7248 3.48971 13.7547 3.66164 13.75 3.83437C13.7475 3.98079 13.7149 4.12512 13.6543 4.25844C13.5937 4.39175 13.5063 4.51119 13.3977 4.60937H13.3992Z" fill="#191F2E"/>
</svg>
