<svg width="20" height="20" viewBox="0 0 20 20" fill="none" xmlns="http://www.w3.org/2000/svg">
<path d="M16.875 5.31248H14.8484C15.1384 4.89067 15.2996 4.39372 15.3125 3.88201C15.3241 3.49219 15.2558 3.10412 15.1119 2.74164C14.968 2.37917 14.7516 2.04993 14.4758 1.77417C14.2 1.4984 13.8708 1.28193 13.5083 1.13805C13.1459 0.994165 12.7578 0.92591 12.368 0.937477C12.0079 0.945161 11.6533 1.0272 11.3265 1.17845C10.9997 1.3297 10.7076 1.54689 10.4688 1.81638C10.2925 2.01738 10.1356 2.23448 10 2.46482C9.86439 2.23448 9.70745 2.01738 9.53125 1.81638C9.29236 1.54689 9.00032 1.3297 8.67349 1.17845C8.34666 1.0272 7.99208 0.945161 7.63203 0.937477C7.24221 0.92591 6.85415 0.994165 6.49167 1.13805C6.12919 1.28193 5.79996 1.4984 5.52419 1.77417C5.24843 2.04993 5.03195 2.37917 4.88807 2.74164C4.74419 3.10412 4.67593 3.49219 4.6875 3.88201C4.70036 4.39372 4.86158 4.89067 5.15156 5.31248H3.125C2.7106 5.31248 2.31317 5.4771 2.02015 5.77012C1.72712 6.06315 1.5625 6.46058 1.5625 6.87498V9.37498C1.56243 9.73518 1.68681 10.0843 1.91459 10.3634C2.14238 10.6424 2.45957 10.8342 2.8125 10.9062V15.625C2.8125 16.0394 2.97712 16.4368 3.27015 16.7298C3.56317 17.0229 3.9606 17.1875 4.375 17.1875H15.625C16.0394 17.1875 16.4368 17.0229 16.7299 16.7298C17.0229 16.4368 17.1875 16.0394 17.1875 15.625V10.9062C17.5404 10.8342 17.8576 10.6424 18.0854 10.3634C18.3132 10.0843 18.4376 9.73518 18.4375 9.37498V6.87498C18.4375 6.46058 18.2729 6.06315 17.9799 5.77012C17.6868 5.4771 17.2894 5.31248 16.875 5.31248ZM16.5625 9.06248H10.9375V7.18748H16.5625V9.06248ZM11.875 3.06013C11.9442 2.98338 12.0284 2.92175 12.1225 2.87914C12.2167 2.83652 12.3186 2.81382 12.4219 2.81248H12.4492C12.5814 2.8121 12.7124 2.83832 12.8342 2.88958C12.9561 2.94083 13.0664 3.01607 13.1586 3.11082C13.2508 3.20558 13.323 3.31791 13.3709 3.44113C13.4188 3.56435 13.4415 3.69595 13.4375 3.8281C13.4362 3.93141 13.4135 4.03332 13.3708 4.12743C13.3282 4.22154 13.2666 4.30582 13.1898 4.37498C12.6508 4.8531 11.7641 5.09841 11.0312 5.2156C11.1484 4.48591 11.3938 3.5992 11.875 3.06013ZM6.85156 3.10154C7.03701 2.91808 7.2868 2.81435 7.54766 2.81248H7.57812C7.68143 2.81382 7.78334 2.83652 7.87745 2.87914C7.97157 2.92175 8.05585 2.98338 8.125 3.06013C8.60313 3.5992 8.84844 4.48513 8.96484 5.21716C8.23828 5.0992 7.34375 4.85388 6.81016 4.37498C6.7334 4.30582 6.67178 4.22154 6.62916 4.12743C6.58654 4.03332 6.56384 3.93141 6.5625 3.8281C6.55904 3.69374 6.58288 3.56008 6.63256 3.43519C6.68225 3.31031 6.75675 3.1968 6.85156 3.10154ZM3.4375 7.18748H9.0625V9.06248H3.4375V7.18748ZM4.6875 10.9375H9.0625V15.3125H4.6875V10.9375ZM10.9375 15.3125V10.9375H15.3125V15.3125H10.9375Z" fill="#191F2E"/>
</svg>
