<svg width="20" height="20" viewBox="0 0 20 20" fill="none" xmlns="http://www.w3.org/2000/svg">
<path d="M17.5 4.99996C17.4998 4.53243 17.3684 4.07433 17.1209 3.6777C16.8734 3.28106 16.5196 2.96178 16.0998 2.75611C15.6799 2.55044 15.2108 2.46663 14.7457 2.51419C14.2806 2.56176 13.8381 2.73879 13.4686 3.02518C13.099 3.31158 12.8172 3.69586 12.6551 4.13439C12.493 4.57292 12.4571 5.04811 12.5515 5.50601C12.6459 5.96392 12.8668 6.38617 13.1891 6.72482C13.5115 7.06347 13.9223 7.30495 14.375 7.42184V8.12496C14.375 8.45648 14.2433 8.77442 14.0089 9.00884C13.7745 9.24327 13.4565 9.37496 13.125 9.37496H7.50001C7.06086 9.37443 6.62946 9.49063 6.25001 9.71168V7.42184C6.83917 7.26972 7.35262 6.90794 7.69413 6.40433C8.03564 5.90072 8.18175 5.28984 8.10508 4.68621C8.02841 4.08258 7.73422 3.52763 7.27765 3.12539C6.82109 2.72314 6.23349 2.50122 5.62501 2.50122C5.01652 2.50122 4.42893 2.72314 3.97236 3.12539C3.51579 3.52763 3.2216 4.08258 3.14493 4.68621C3.06826 5.28984 3.21437 5.90072 3.55588 6.40433C3.89739 6.90794 4.41084 7.26972 5.00001 7.42184V12.5781C4.41084 12.7302 3.89739 13.092 3.55588 13.5956C3.21437 14.0992 3.06826 14.7101 3.14493 15.3137C3.2216 15.9173 3.51579 16.4723 3.97236 16.8745C4.42893 17.2768 5.01652 17.4987 5.62501 17.4987C6.23349 17.4987 6.82109 17.2768 7.27765 16.8745C7.73422 16.4723 8.02841 15.9173 8.10508 15.3137C8.18175 14.7101 8.03564 14.0992 7.69413 13.5956C7.35262 13.092 6.83917 12.7302 6.25001 12.5781V11.875C6.25001 11.5434 6.3817 11.2255 6.61612 10.9911C6.85054 10.7567 7.16849 10.625 7.50001 10.625H13.125C13.788 10.625 14.4239 10.3616 14.8928 9.89273C15.3616 9.42389 15.625 8.788 15.625 8.12496V7.42184C16.1615 7.2825 16.6365 6.96916 16.9758 6.5309C17.3151 6.09264 17.4995 5.55421 17.5 4.99996ZM4.37501 4.99996C4.37501 4.75273 4.44832 4.51106 4.58567 4.3055C4.72302 4.09994 4.91824 3.93972 5.14665 3.84511C5.37506 3.7505 5.62639 3.72575 5.86887 3.77398C6.11135 3.82221 6.33407 3.94126 6.50889 4.11608C6.6837 4.29089 6.80276 4.51362 6.85099 4.7561C6.89922 4.99857 6.87446 5.24991 6.77986 5.47832C6.68525 5.70672 6.52503 5.90195 6.31947 6.0393C6.11391 6.17665 5.87223 6.24996 5.62501 6.24996C5.29349 6.24996 4.97554 6.11827 4.74112 5.88384C4.5067 5.64942 4.37501 5.33148 4.37501 4.99996ZM6.87501 15C6.87501 15.2472 6.80169 15.4889 6.66434 15.6944C6.52699 15.9 6.33177 16.0602 6.10336 16.1548C5.87495 16.2494 5.62362 16.2742 5.38114 16.2259C5.13867 16.1777 4.91594 16.0587 4.74112 15.8838C4.56631 15.709 4.44726 15.4863 4.39902 15.2438C4.35079 15.0013 4.37555 14.75 4.47016 14.5216C4.56477 14.2932 4.72498 14.098 4.93054 13.9606C5.1361 13.8233 5.37778 13.75 5.62501 13.75C5.95653 13.75 6.27447 13.8817 6.50889 14.1161C6.74331 14.3505 6.87501 14.6684 6.87501 15Z" fill="#191F2E"/>
</svg>
