<svg width="20" height="20" viewBox="0 0 20 20" fill="none" xmlns="http://www.w3.org/2000/svg">
<path d="M17.8125 5.00009C17.8125 4.48446 17.6708 3.97876 17.4028 3.53824C17.1348 3.09773 16.7509 2.73937 16.293 2.50232C15.8351 2.26528 15.3208 2.15868 14.8064 2.19417C14.292 2.22967 13.7973 2.40589 13.3762 2.70358C12.9552 3.00127 12.6242 3.40897 12.4192 3.88211C12.2143 4.35526 12.1433 4.87564 12.2142 5.38638C12.285 5.89711 12.4949 6.37855 12.8209 6.77806C13.1468 7.17757 13.5764 7.47978 14.0625 7.65165V8.12509C14.0625 8.37373 13.9637 8.61219 13.7879 8.788C13.6121 8.96382 13.3736 9.06259 13.125 9.06259H6.87501C6.62637 9.06259 6.38791 8.96382 6.21209 8.788C6.03628 8.61219 5.93751 8.37373 5.93751 8.12509V7.65165C6.56302 7.4305 7.09021 6.99534 7.42591 6.42308C7.76161 5.85082 7.88419 5.1783 7.772 4.5244C7.65981 3.8705 7.32006 3.27731 6.81281 2.84968C6.30556 2.42204 5.66346 2.1875 5.00001 2.1875C4.33655 2.1875 3.69445 2.42204 3.1872 2.84968C2.67995 3.27731 2.3402 3.8705 2.22801 4.5244C2.11582 5.1783 2.2384 5.85082 2.5741 6.42308C2.9098 6.99534 3.43699 7.4305 4.06251 7.65165V8.12509C4.06251 8.87101 4.35882 9.58638 4.88627 10.1138C5.41371 10.6413 6.12908 10.9376 6.87501 10.9376H9.06251V12.3485C8.43699 12.5697 7.9098 13.0048 7.5741 13.5771C7.2384 14.1494 7.11582 14.8219 7.22801 15.4758C7.3402 16.1297 7.67995 16.7229 8.1872 17.1505C8.69445 17.5781 9.33655 17.8127 10 17.8127C10.6635 17.8127 11.3056 17.5781 11.8128 17.1505C12.3201 16.7229 12.6598 16.1297 12.772 15.4758C12.8842 14.8219 12.7616 14.1494 12.4259 13.5771C12.0902 13.0048 11.563 12.5697 10.9375 12.3485V10.9376H13.125C13.8709 10.9376 14.5863 10.6413 15.1137 10.1138C15.6412 9.58638 15.9375 8.87101 15.9375 8.12509V7.65165C16.4854 7.4571 16.9597 7.09784 17.2954 6.62313C17.6311 6.14842 17.8117 5.58149 17.8125 5.00009ZM5.00001 4.06259C5.18543 4.06259 5.36668 4.11757 5.52085 4.22059C5.67502 4.3236 5.79519 4.47002 5.86614 4.64132C5.9371 4.81263 5.95567 5.00113 5.91949 5.18299C5.88332 5.36484 5.79403 5.53189 5.66292 5.663C5.53181 5.79411 5.36476 5.8834 5.1829 5.91958C5.00105 5.95575 4.81255 5.93718 4.64124 5.86623C4.46993 5.79527 4.32352 5.67511 4.2205 5.52094C4.11749 5.36676 4.06251 5.18551 4.06251 5.00009C4.06251 4.75145 4.16128 4.51299 4.33709 4.33718C4.51291 4.16136 4.75137 4.06259 5.00001 4.06259ZM10 15.9376C9.81459 15.9376 9.63333 15.8826 9.47916 15.7796C9.32499 15.6766 9.20483 15.5302 9.13387 15.3589C9.06291 15.1875 9.04435 14.9991 9.08052 14.8172C9.11669 14.6353 9.20598 14.4683 9.33709 14.3372C9.4682 14.2061 9.63525 14.1168 9.81711 14.0806C9.99897 14.0444 10.1875 14.063 10.3588 14.134C10.5301 14.2049 10.6765 14.3251 10.7795 14.4792C10.8825 14.6334 10.9375 14.8147 10.9375 15.0001C10.9375 15.2487 10.8387 15.4872 10.6629 15.663C10.4871 15.8388 10.2486 15.9376 10 15.9376ZM15 5.93759C14.8146 5.93759 14.6333 5.88261 14.4792 5.77959C14.325 5.67658 14.2048 5.53016 14.1339 5.35885C14.0629 5.18755 14.0443 4.99905 14.0805 4.81719C14.1167 4.63533 14.206 4.46829 14.3371 4.33718C14.4682 4.20606 14.6353 4.11678 14.8171 4.0806C14.999 4.04443 15.1875 4.06299 15.3588 4.13395C15.5301 4.20491 15.6765 4.32507 15.7795 4.47924C15.8825 4.63341 15.9375 4.81467 15.9375 5.00009C15.9375 5.24873 15.8387 5.48719 15.6629 5.663C15.4871 5.83882 15.2486 5.93759 15 5.93759Z" fill="#191F2E"/>
</svg>
