<svg width="20" height="20" viewBox="0 0 20 20" fill="none" xmlns="http://www.w3.org/2000/svg">
<path d="M16.5625 12.3485V9.67821C16.5641 9.0625 16.4437 8.45257 16.2081 7.88372C15.9724 7.31487 15.6264 6.79838 15.1898 6.36415L13.5156 4.68759H15C15.2486 4.68759 15.4871 4.58882 15.6629 4.413C15.8387 4.23719 15.9375 3.99873 15.9375 3.75009C15.9375 3.50145 15.8387 3.26299 15.6629 3.08718C15.4871 2.91136 15.2486 2.81259 15 2.81259H11.25C11.0014 2.81259 10.7629 2.91136 10.5871 3.08718C10.4113 3.26299 10.3125 3.50145 10.3125 3.75009V7.50009C10.3125 7.74873 10.4113 7.98719 10.5871 8.163C10.7629 8.33882 11.0014 8.43759 11.25 8.43759C11.4986 8.43759 11.7371 8.33882 11.9129 8.163C12.0887 7.98719 12.1875 7.74873 12.1875 7.50009V6.01571L13.8641 7.69228C14.1257 7.95252 14.3331 8.262 14.4745 8.60287C14.6158 8.94373 14.6882 9.30921 14.6875 9.67821V12.3485C14.062 12.5697 13.5348 13.0048 13.1991 13.5771C12.8634 14.1494 12.7408 14.8219 12.853 15.4758C12.9652 16.1297 13.3049 16.7229 13.8122 17.1505C14.3195 17.5781 14.9615 17.8127 15.625 17.8127C16.2885 17.8127 16.9306 17.5781 17.4378 17.1505C17.9451 16.7229 18.2848 16.1297 18.397 15.4758C18.5092 14.8219 18.3866 14.1494 18.0509 13.5771C17.7152 13.0048 17.188 12.5697 16.5625 12.3485ZM15.625 15.9376C15.4396 15.9376 15.2583 15.8826 15.1042 15.7796C14.95 15.6766 14.8298 15.5302 14.7589 15.3589C14.6879 15.1875 14.6693 14.9991 14.7055 14.8172C14.7417 14.6353 14.831 14.4683 14.9621 14.3372C15.0932 14.2061 15.2603 14.1168 15.4421 14.0806C15.624 14.0444 15.8125 14.063 15.9838 14.134C16.1551 14.2049 16.3015 14.3251 16.4045 14.4792C16.5075 14.6334 16.5625 14.8147 16.5625 15.0001C16.5625 15.2487 16.4637 15.4872 16.2879 15.663C16.1121 15.8388 15.8736 15.9376 15.625 15.9376ZM8.43751 5.00009C8.43752 4.48446 8.29579 3.97876 8.0278 3.53824C7.75981 3.09773 7.37588 2.73937 6.91797 2.50232C6.46007 2.26528 5.94581 2.15868 5.4314 2.19417C4.917 2.22967 4.42226 2.40589 4.00124 2.70358C3.58023 3.00127 3.24916 3.40897 3.04421 3.88211C2.83927 4.35526 2.76834 4.87564 2.83917 5.38638C2.91001 5.89711 3.11988 6.37855 3.44586 6.77806C3.77184 7.17757 4.20137 7.47978 4.68751 7.65165V12.3485C4.06199 12.5697 3.5348 13.0048 3.1991 13.5771C2.8634 14.1494 2.74082 14.8219 2.85301 15.4758C2.9652 16.1297 3.30495 16.7229 3.8122 17.1505C4.31945 17.5781 4.96155 17.8127 5.62501 17.8127C6.28846 17.8127 6.93056 17.5781 7.43781 17.1505C7.94506 16.7229 8.28481 16.1297 8.397 15.4758C8.50919 14.8219 8.38661 14.1494 8.05091 13.5771C7.71521 13.0048 7.18802 12.5697 6.56251 12.3485V7.65165C7.11039 7.4571 7.58469 7.09784 7.92038 6.62313C8.25606 6.14842 8.43669 5.58149 8.43751 5.00009ZM5.62501 15.9376C5.43959 15.9376 5.25833 15.8826 5.10416 15.7796C4.94999 15.6766 4.82983 15.5302 4.75887 15.3589C4.68791 15.1875 4.66935 14.9991 4.70552 14.8172C4.74169 14.6353 4.83098 14.4683 4.96209 14.3372C5.0932 14.2061 5.26025 14.1168 5.44211 14.0806C5.62397 14.0444 5.81247 14.063 5.98377 14.134C6.15508 14.2049 6.3015 14.3251 6.40451 14.4792C6.50752 14.6334 6.56251 14.8147 6.56251 15.0001C6.56251 15.2487 6.46373 15.4872 6.28792 15.663C6.1121 15.8388 5.87365 15.9376 5.62501 15.9376ZM5.62501 5.93759C5.43959 5.93759 5.25833 5.88261 5.10416 5.77959C4.94999 5.67658 4.82983 5.53016 4.75887 5.35885C4.68791 5.18755 4.66935 4.99905 4.70552 4.81719C4.74169 4.63533 4.83098 4.46829 4.96209 4.33718C5.0932 4.20606 5.26025 4.11678 5.44211 4.0806C5.62397 4.04443 5.81247 4.06299 5.98377 4.13395C6.15508 4.20491 6.3015 4.32507 6.40451 4.47924C6.50752 4.63341 6.56251 4.81467 6.56251 5.00009C6.56251 5.24873 6.46373 5.48719 6.28792 5.663C6.1121 5.83882 5.87365 5.93759 5.62501 5.93759Z" fill="#191F2E"/>
</svg>
