<svg width="20" height="20" viewBox="0 0 20 20" fill="none" xmlns="http://www.w3.org/2000/svg">
<path d="M19.375 9.37489H14.3297C14.1787 8.33427 13.6581 7.38283 12.8629 6.69474C12.0678 6.00664 11.0515 5.62793 10 5.62793C8.94849 5.62793 7.93216 6.00664 7.13705 6.69474C6.34194 7.38283 5.82126 8.33427 5.67031 9.37489H0.625C0.45924 9.37489 0.300269 9.44074 0.183058 9.55795C0.065848 9.67516 0 9.83413 0 9.99989C0 10.1657 0.065848 10.3246 0.183058 10.4418C0.300269 10.559 0.45924 10.6249 0.625 10.6249H5.67031C5.82126 11.6655 6.34194 12.617 7.13705 13.305C7.93216 13.9931 8.94849 14.3719 10 14.3719C11.0515 14.3719 12.0678 13.9931 12.8629 13.305C13.6581 12.617 14.1787 11.6655 14.3297 10.6249H19.375C19.5408 10.6249 19.6997 10.559 19.8169 10.4418C19.9342 10.3246 20 10.1657 20 9.99989C20 9.83413 19.9342 9.67516 19.8169 9.55795C19.6997 9.44074 19.5408 9.37489 19.375 9.37489ZM10 13.1249C9.38193 13.1249 8.77775 12.9416 8.26384 12.5982C7.74994 12.2549 7.3494 11.7668 7.11288 11.1958C6.87635 10.6248 6.81447 9.99643 6.93505 9.39023C7.05562 8.78404 7.35325 8.22722 7.79029 7.79018C8.22733 7.35314 8.78415 7.05552 9.39034 6.93494C9.99653 6.81436 10.6249 6.87624 11.1959 7.11277C11.7669 7.34929 12.255 7.74983 12.5983 8.26374C12.9417 8.77764 13.125 9.38183 13.125 9.99989C13.125 10.8287 12.7958 11.6235 12.2097 12.2096C11.6237 12.7957 10.8288 13.1249 10 13.1249Z" fill="#191F2E"/>
</svg>
