<svg width="20" height="20" viewBox="0 0 20 20" fill="none" xmlns="http://www.w3.org/2000/svg">
<path d="M16.2499 8.75002C15.6957 8.75055 15.1573 8.9349 14.719 9.27419C14.2807 9.61349 13.9674 10.0886 13.8281 10.625H11.8749C11.39 10.6239 10.9119 10.5104 10.4782 10.2936C10.0444 10.0767 9.66681 9.76229 9.37493 9.37502L7.31946 6.6344C7.8508 6.3823 8.27625 5.95094 8.52101 5.41618C8.76577 4.88142 8.81417 4.27749 8.65769 3.71058C8.50122 3.14366 8.14989 2.65006 7.66548 2.31656C7.18106 1.98306 6.59459 1.83101 6.00916 1.88715C5.42373 1.94329 4.87684 2.20403 4.46463 2.62351C4.05243 3.04299 3.80131 3.59437 3.75543 4.18069C3.70954 4.76701 3.87183 5.35073 4.21376 5.82923C4.55569 6.30773 5.05536 6.65037 5.62493 6.7969V13.2031C5.03577 13.3553 4.52231 13.717 4.1808 14.2207C3.8393 14.7243 3.69318 15.3351 3.76986 15.9388C3.84653 16.5424 4.14072 17.0974 4.59728 17.4996C5.05385 17.9018 5.64145 18.1238 6.24993 18.1238C6.85841 18.1238 7.44601 17.9018 7.90258 17.4996C8.35914 17.0974 8.65333 16.5424 8.73 15.9388C8.80668 15.3351 8.66056 14.7243 8.31906 14.2207C7.97755 13.717 7.46409 13.3553 6.87493 13.2031V8.12502L8.37493 10.125C8.78354 10.6672 9.31219 11.1074 9.91944 11.411C10.5267 11.7146 11.196 11.8735 11.8749 11.875H13.8281C13.9449 12.3277 14.1864 12.7385 14.5251 13.0609C14.8637 13.3832 15.286 13.6041 15.7439 13.6985C16.2018 13.7929 16.677 13.757 17.1155 13.5949C17.554 13.4328 17.9383 13.151 18.2247 12.7815C18.5111 12.4119 18.6881 11.9695 18.7357 11.5044C18.7833 11.0393 18.6995 10.5701 18.4938 10.1503C18.2881 9.7304 17.9688 9.37662 17.5722 9.12911C17.1756 8.88159 16.7175 8.75026 16.2499 8.75002ZM7.49993 15.625C7.49993 15.8723 7.42662 16.1139 7.28927 16.3195C7.15192 16.525 6.95669 16.6853 6.72828 16.7799C6.49988 16.8745 6.24854 16.8992 6.00607 16.851C5.76359 16.8028 5.54086 16.6837 5.36605 16.5089C5.19123 16.3341 5.07218 16.1114 5.02395 15.8689C4.97572 15.6264 5.00047 15.3751 5.09508 15.1467C5.18969 14.9183 5.34991 14.723 5.55547 14.5857C5.76103 14.4483 6.0027 14.375 6.24993 14.375C6.58145 14.375 6.89939 14.5067 7.13381 14.7411C7.36823 14.9756 7.49993 15.2935 7.49993 15.625ZM16.2499 12.5C15.9184 12.5 15.6005 12.3683 15.366 12.1339C15.1316 11.8995 14.9999 11.5815 14.9999 11.25C14.9999 11.0028 15.0732 10.7611 15.2106 10.5556C15.3479 10.35 15.5432 10.1898 15.7716 10.0952C16 10.0006 16.2513 9.97581 16.4938 10.024C16.7363 10.0723 16.959 10.1913 17.1338 10.3661C17.3086 10.541 17.4277 10.7637 17.4759 11.0062C17.5241 11.2486 17.4994 11.5 17.4048 11.7284C17.3102 11.9568 17.15 12.152 16.9444 12.2894C16.7388 12.4267 16.4972 12.5 16.2499 12.5Z" fill="#191F2E"/>
</svg>
