<svg width="20" height="20" viewBox="0 0 20 20" fill="none" xmlns="http://www.w3.org/2000/svg">
<path d="M8.12501 4.99996C8.12477 4.53243 7.99344 4.07433 7.74592 3.6777C7.49841 3.28106 7.14463 2.96178 6.72476 2.75611C6.3049 2.55044 5.83578 2.46663 5.37067 2.51419C4.90557 2.56176 4.46312 2.73879 4.09358 3.02518C3.72403 3.31158 3.4422 3.69586 3.2801 4.13439C3.11799 4.57292 3.0821 5.04811 3.1765 5.50601C3.2709 5.96392 3.49181 6.38617 3.81415 6.72482C4.13648 7.06347 4.54732 7.30495 5.00001 7.42184V12.5781C4.41084 12.7302 3.89739 13.092 3.55588 13.5956C3.21437 14.0992 3.06826 14.7101 3.14493 15.3137C3.2216 15.9173 3.51579 16.4723 3.97236 16.8745C4.42893 17.2768 5.01652 17.4987 5.62501 17.4987C6.23349 17.4987 6.82109 17.2768 7.27765 16.8745C7.73422 16.4723 8.02841 15.9173 8.10508 15.3137C8.18175 14.7101 8.03564 14.0992 7.69413 13.5956C7.35262 13.092 6.83917 12.7302 6.25001 12.5781V7.42184C6.78646 7.2825 7.26154 6.96916 7.60084 6.5309C7.94013 6.09264 8.12448 5.55421 8.12501 4.99996ZM6.87501 15C6.87501 15.2472 6.80169 15.4889 6.66434 15.6944C6.52699 15.9 6.33177 16.0602 6.10336 16.1548C5.87495 16.2494 5.62362 16.2742 5.38114 16.2259C5.13867 16.1777 4.91594 16.0587 4.74112 15.8838C4.56631 15.709 4.44726 15.4863 4.39902 15.2438C4.35079 15.0013 4.37555 14.75 4.47016 14.5216C4.56477 14.2932 4.72498 14.098 4.93054 13.9606C5.1361 13.8233 5.37778 13.75 5.62501 13.75C5.95653 13.75 6.27447 13.8817 6.50889 14.1161C6.74331 14.3505 6.87501 14.6684 6.87501 15ZM5.62501 6.24996C5.37778 6.24996 5.1361 6.17665 4.93054 6.0393C4.72498 5.90195 4.56477 5.70672 4.47016 5.47832C4.37555 5.24991 4.35079 4.99857 4.39902 4.7561C4.44726 4.51362 4.56631 4.29089 4.74112 4.11608C4.91594 3.94126 5.13867 3.82221 5.38114 3.77398C5.62362 3.72575 5.87495 3.7505 6.10336 3.84511C6.33177 3.93972 6.52699 4.09994 6.66434 4.3055C6.80169 4.51106 6.87501 4.75273 6.87501 4.99996C6.87501 5.33148 6.74331 5.64942 6.50889 5.88384C6.27447 6.11827 5.95653 6.24996 5.62501 6.24996ZM16.25 12.5781V9.67809C16.2515 9.10333 16.139 8.53398 15.9191 8.00296C15.6991 7.47194 15.3761 6.98977 14.9688 6.58434L12.7586 4.37496H15C15.1658 4.37496 15.3247 4.30911 15.4419 4.1919C15.5592 4.07469 15.625 3.91572 15.625 3.74996C15.625 3.5842 15.5592 3.42523 15.4419 3.30802C15.3247 3.19081 15.1658 3.12496 15 3.12496H11.25C11.0842 3.12496 10.9253 3.19081 10.8081 3.30802C10.6909 3.42523 10.625 3.5842 10.625 3.74996V7.49996C10.625 7.66572 10.6909 7.82469 10.8081 7.9419C10.9253 8.05911 11.0842 8.12496 11.25 8.12496C11.4158 8.12496 11.5747 8.05911 11.6919 7.9419C11.8092 7.82469 11.875 7.66572 11.875 7.49996V5.25856L14.0844 7.46871C14.3756 7.75808 14.6065 8.10237 14.7636 8.48162C14.9208 8.86088 15.0012 9.26755 15 9.67809V12.5781C14.4108 12.7302 13.8974 13.092 13.5559 13.5956C13.2144 14.0992 13.0683 14.7101 13.1449 15.3137C13.2216 15.9173 13.5158 16.4723 13.9724 16.8745C14.4289 17.2768 15.0165 17.4987 15.625 17.4987C16.2335 17.4987 16.8211 17.2768 17.2777 16.8745C17.7342 16.4723 18.0284 15.9173 18.1051 15.3137C18.1818 14.7101 18.0356 14.0992 17.6941 13.5956C17.3526 13.092 16.8392 12.7302 16.25 12.5781ZM15.625 16.25C15.3778 16.25 15.1361 16.1767 14.9305 16.0393C14.725 15.9019 14.5648 15.7067 14.4702 15.4783C14.3755 15.2499 14.3508 14.9986 14.399 14.7561C14.4473 14.5136 14.5663 14.2909 14.7411 14.1161C14.9159 13.9413 15.1387 13.8222 15.3811 13.774C15.6236 13.7257 15.875 13.7505 16.1034 13.8451C16.3318 13.9397 16.527 14.0999 16.6643 14.3055C16.8017 14.5111 16.875 14.7527 16.875 15C16.875 15.3315 16.7433 15.6494 16.5089 15.8838C16.2745 16.1183 15.9565 16.25 15.625 16.25Z" fill="#191F2E"/>
</svg>
