<svg width="20" height="20" viewBox="0 0 20 20" fill="none" xmlns="http://www.w3.org/2000/svg">
<path d="M16.2501 8.43748C15.6686 8.4383 15.1017 8.61893 14.627 8.95461C14.1523 9.29029 13.793 9.76459 13.5985 10.3125H11.8751C11.4386 10.3115 11.0083 10.2094 10.6179 10.0142C10.2275 9.81905 9.8877 9.53607 9.62505 9.18748L7.78286 6.73123C8.31493 6.38482 8.71413 5.86857 8.91553 5.26647C9.11694 4.66437 9.10869 4.01183 8.89215 3.41501C8.6756 2.81818 8.2635 2.31218 7.72286 1.97931C7.18222 1.64645 6.54486 1.50629 5.91445 1.58166C5.28405 1.65702 4.69768 1.94346 4.25074 2.39439C3.8038 2.84531 3.52258 3.4342 3.45282 4.06525C3.38306 4.6963 3.52887 5.33239 3.86653 5.87005C4.20419 6.40771 4.71383 6.81531 5.31255 7.02654V12.9734C4.68704 13.1946 4.15984 13.6297 3.82415 14.202C3.48845 14.7743 3.36586 15.4468 3.47806 16.1007C3.59025 16.7546 3.92999 17.3478 4.43725 17.7754C4.9445 18.203 5.5866 18.4376 6.25005 18.4376C6.91351 18.4376 7.55561 18.203 8.06286 17.7754C8.57011 17.3478 8.90986 16.7546 9.02205 16.1007C9.13424 15.4468 9.01165 14.7743 8.67596 14.202C8.34026 13.6297 7.81307 13.1946 7.18755 12.9734V9.06248L8.12505 10.3125C8.56281 10.8934 9.12922 11.3651 9.77985 11.6904C10.4305 12.0157 11.1476 12.1859 11.8751 12.1875H13.5985C13.7704 12.6736 14.0726 13.1031 14.4721 13.4291C14.8716 13.7551 15.353 13.965 15.8638 14.0358C16.3745 14.1067 16.8949 14.0357 17.368 13.8308C17.8412 13.6258 18.2489 13.2948 18.5466 12.8737C18.8443 12.4527 19.0205 11.958 19.056 11.4436C19.0915 10.9292 18.9849 10.4149 18.7478 9.95701C18.5108 9.49911 18.1524 9.11517 17.7119 8.84719C17.2714 8.5792 16.7657 8.43746 16.2501 8.43748ZM6.25005 3.43748C6.43547 3.43748 6.61673 3.49246 6.7709 3.59548C6.92507 3.69849 7.04523 3.84491 7.11619 4.01621C7.18715 4.18752 7.20571 4.37602 7.16954 4.55788C7.13336 4.73973 7.04408 4.90678 6.91296 5.03789C6.78185 5.169 6.61481 5.25829 6.43295 5.29447C6.25109 5.33064 6.06259 5.31207 5.89129 5.24112C5.71998 5.17016 5.57356 5.05 5.47055 4.89583C5.36754 4.74166 5.31255 4.5604 5.31255 4.37498C5.31255 4.12634 5.41132 3.88788 5.58714 3.71207C5.76295 3.53625 6.00141 3.43748 6.25005 3.43748ZM6.25005 16.5625C6.06463 16.5625 5.88338 16.5075 5.72921 16.4045C5.57503 16.3015 5.45487 16.1551 5.38392 15.9837C5.31296 15.8124 5.29439 15.6239 5.33057 15.4421C5.36674 15.2602 5.45603 15.0932 5.58714 14.9621C5.71825 14.831 5.8853 14.7417 6.06715 14.7055C6.24901 14.6693 6.43751 14.6879 6.60882 14.7588C6.78012 14.8298 6.92654 14.95 7.02956 15.1041C7.13257 15.2583 7.18755 15.4396 7.18755 15.625C7.18755 15.8736 7.08878 16.1121 6.91296 16.2879C6.73715 16.4637 6.49869 16.5625 6.25005 16.5625ZM16.2501 12.1875C16.0646 12.1875 15.8834 12.1325 15.7292 12.0295C15.575 11.9265 15.4549 11.7801 15.3839 11.6087C15.313 11.4374 15.2944 11.2489 15.3306 11.0671C15.3667 10.8852 15.456 10.7182 15.5871 10.5871C15.7183 10.456 15.8853 10.3667 16.0672 10.3305C16.249 10.2943 16.4375 10.3129 16.6088 10.3838C16.7801 10.4548 16.9265 10.575 17.0296 10.7291C17.1326 10.8833 17.1876 11.0646 17.1876 11.25C17.1876 11.4986 17.0888 11.7371 16.913 11.9129C16.7371 12.0887 16.4987 12.1875 16.2501 12.1875Z" fill="#191F2E"/>
</svg>
