<svg width="20" height="20" viewBox="0 0 20 20" fill="none" xmlns="http://www.w3.org/2000/svg">
<path d="M8.12501 4.99996C8.12477 4.53243 7.99344 4.07433 7.74592 3.6777C7.49841 3.28106 7.14463 2.96178 6.72476 2.75611C6.3049 2.55044 5.83578 2.46663 5.37067 2.51419C4.90557 2.56176 4.46312 2.73879 4.09358 3.02518C3.72403 3.31158 3.4422 3.69586 3.2801 4.13439C3.11799 4.57292 3.0821 5.04811 3.1765 5.50601C3.2709 5.96392 3.49181 6.38617 3.81415 6.72482C4.13648 7.06347 4.54732 7.30495 5.00001 7.42184V12.5781C4.41084 12.7302 3.89739 13.092 3.55588 13.5956C3.21437 14.0992 3.06826 14.7101 3.14493 15.3137C3.2216 15.9173 3.51579 16.4723 3.97236 16.8745C4.42893 17.2768 5.01652 17.4987 5.62501 17.4987C6.23349 17.4987 6.82109 17.2768 7.27765 16.8745C7.73422 16.4723 8.02841 15.9173 8.10508 15.3137C8.18175 14.7101 8.03564 14.0992 7.69413 13.5956C7.35262 13.092 6.83917 12.7302 6.25001 12.5781V7.42184C6.78646 7.2825 7.26154 6.96916 7.60084 6.5309C7.94013 6.09264 8.12448 5.55421 8.12501 4.99996ZM6.87501 15C6.87501 15.2472 6.80169 15.4889 6.66434 15.6944C6.52699 15.9 6.33177 16.0602 6.10336 16.1548C5.87495 16.2494 5.62362 16.2742 5.38114 16.2259C5.13867 16.1777 4.91594 16.0587 4.74112 15.8838C4.56631 15.709 4.44726 15.4863 4.39902 15.2438C4.35079 15.0013 4.37555 14.75 4.47016 14.5216C4.56477 14.2932 4.72498 14.098 4.93054 13.9606C5.1361 13.8233 5.37778 13.75 5.62501 13.75C5.95653 13.75 6.27447 13.8817 6.50889 14.1161C6.74331 14.3505 6.87501 14.6684 6.87501 15ZM18.125 15C18.1248 15.4675 17.9934 15.9256 17.7459 16.3222C17.4984 16.7189 17.1446 17.0381 16.7248 17.2438C16.3049 17.4495 15.8358 17.5333 15.3707 17.4857C14.9056 17.4382 14.4631 17.2611 14.0936 16.9747C13.724 16.6883 13.4422 16.3041 13.2801 15.8655C13.118 15.427 13.0821 14.9518 13.1765 14.4939C13.2709 14.036 13.4918 13.6138 13.8141 13.2751C14.1365 12.9365 14.5473 12.695 15 12.5781V9.67809C15.0012 9.26755 14.9208 8.86088 14.7636 8.48162C14.6065 8.10237 14.3756 7.75808 14.0844 7.46871L11.875 5.25856V7.49996C11.875 7.66572 11.8092 7.82469 11.6919 7.9419C11.5747 8.05911 11.4158 8.12496 11.25 8.12496C11.0842 8.12496 10.9253 8.05911 10.8081 7.9419C10.6909 7.82469 10.625 7.66572 10.625 7.49996V3.74996C10.625 3.5842 10.6909 3.42523 10.8081 3.30802C10.9253 3.19081 11.0842 3.12496 11.25 3.12496H15C15.1658 3.12496 15.3247 3.19081 15.4419 3.30802C15.5592 3.42523 15.625 3.5842 15.625 3.74996C15.625 3.91572 15.5592 4.07469 15.4419 4.1919C15.3247 4.30911 15.1658 4.37496 15 4.37496H12.7586L14.9688 6.58434C15.3761 6.98977 15.6991 7.47194 15.9191 8.00296C16.139 8.53398 16.2515 9.10333 16.25 9.67809V12.5781C16.7865 12.7174 17.2615 13.0308 17.6008 13.469C17.9401 13.9073 18.1245 14.4457 18.125 15Z" fill="#191F2E"/>
</svg>
