<svg width="20" height="20" viewBox="0 0 20 20" fill="none" xmlns="http://www.w3.org/2000/svg">
<path d="M16.2742 5.91251C16.4653 5.29626 16.5265 4.64711 16.4542 4.00599C16.3819 3.36487 16.1775 2.7457 15.8539 2.18751C15.799 2.09248 15.7201 2.01357 15.6251 1.95871C15.53 1.90385 15.4222 1.87499 15.3125 1.87501C14.5845 1.87349 13.8663 2.04225 13.2151 2.36781C12.564 2.69337 11.9981 3.16671 11.5625 3.75001H9.6875C9.25193 3.16671 8.68598 2.69337 8.03485 2.36781C7.38372 2.04225 6.66548 1.87349 5.9375 1.87501C5.82777 1.87499 5.71996 1.90385 5.62492 1.95871C5.52988 2.01357 5.45096 2.09248 5.39609 2.18751C5.07254 2.7457 4.86814 3.36487 4.7958 4.00599C4.72346 4.64711 4.78474 5.29626 4.97578 5.91251C4.58963 6.58651 4.38278 7.34827 4.375 8.12501V8.75001C4.37632 9.80751 4.76021 10.8288 5.4558 11.6254C6.15139 12.4219 7.11169 12.9399 8.15938 13.0836C7.73173 13.6308 7.4996 14.3055 7.5 15V15.625H5.625C5.12772 15.625 4.65081 15.4275 4.29917 15.0758C3.94754 14.7242 3.75 14.2473 3.75 13.75C3.75 13.3396 3.66917 12.9333 3.51212 12.5541C3.35508 12.175 3.12489 11.8305 2.83471 11.5403C2.54453 11.2501 2.20003 11.0199 1.82089 10.8629C1.44174 10.7058 1.03538 10.625 0.625 10.625C0.45924 10.625 0.300269 10.6909 0.183058 10.8081C0.065848 10.9253 0 11.0842 0 11.25C0 11.4158 0.065848 11.5747 0.183058 11.692C0.300269 11.8092 0.45924 11.875 0.625 11.875C1.12228 11.875 1.59919 12.0726 1.95083 12.4242C2.30246 12.7758 2.5 13.2527 2.5 13.75C2.5 14.5788 2.82924 15.3737 3.41529 15.9597C4.00134 16.5458 4.7962 16.875 5.625 16.875H7.5V18.125C7.5 18.2908 7.56585 18.4497 7.68306 18.567C7.80027 18.6842 7.95924 18.75 8.125 18.75C8.29076 18.75 8.44973 18.6842 8.56694 18.567C8.68415 18.4497 8.75 18.2908 8.75 18.125V15C8.75 14.5027 8.94754 14.0258 9.29917 13.6742C9.65081 13.3226 10.1277 13.125 10.625 13.125C11.1223 13.125 11.5992 13.3226 11.9508 13.6742C12.3025 14.0258 12.5 14.5027 12.5 15V18.125C12.5 18.2908 12.5658 18.4497 12.6831 18.567C12.8003 18.6842 12.9592 18.75 13.125 18.75C13.2908 18.75 13.4497 18.6842 13.5669 18.567C13.6842 18.4497 13.75 18.2908 13.75 18.125V15C13.7504 14.3055 13.5183 13.6308 13.0906 13.0836C14.1383 12.9399 15.0986 12.4219 15.7942 11.6254C16.4898 10.8288 16.8737 9.80751 16.875 8.75001V8.12501C16.8672 7.34827 16.6604 6.58651 16.2742 5.91251ZM15.625 8.75001C15.625 9.57881 15.2958 10.3737 14.7097 10.9597C14.1237 11.5458 13.3288 11.875 12.5 11.875H8.75C7.9212 11.875 7.12634 11.5458 6.54029 10.9597C5.95424 10.3737 5.625 9.57881 5.625 8.75001V8.12501C5.63266 7.50003 5.81978 6.89042 6.16406 6.36876C6.22824 6.28417 6.26981 6.18462 6.28485 6.0795C6.29988 5.97439 6.28789 5.86717 6.25 5.76798C6.0872 5.34813 6.00886 4.90029 6.01945 4.45011C6.03004 3.99993 6.12936 3.55627 6.31172 3.14454C6.82322 3.19957 7.31577 3.36901 7.75287 3.6403C8.18997 3.91159 8.5604 4.27779 8.83672 4.71173C8.89303 4.79978 8.97051 4.8723 9.06209 4.92267C9.15368 4.97303 9.25642 4.99962 9.36094 5.00001H11.8883C11.9932 5.00001 12.0964 4.97361 12.1884 4.92323C12.2805 4.87285 12.3583 4.80011 12.4148 4.71173C12.6911 4.27775 13.0615 3.91153 13.4986 3.64023C13.9358 3.36893 14.4283 3.19951 14.9398 3.14454C15.122 3.55637 15.221 4.00009 15.2313 4.45027C15.2417 4.90044 15.163 5.34824 15 5.76798C14.9622 5.86623 14.9496 5.97235 14.9632 6.07672C14.9769 6.18109 15.0164 6.2804 15.0781 6.36564C15.4258 6.8873 15.6157 7.49816 15.625 8.12501V8.75001Z" fill="#191F2E"/>
</svg>
