<svg width="20" height="20" viewBox="0 0 20 20" fill="none" xmlns="http://www.w3.org/2000/svg">
<path d="M18.2812 9.06942L16.7289 3.12489C16.6627 2.86726 16.5158 2.63758 16.3096 2.4695C16.1035 2.30142 15.8489 2.20376 15.5832 2.19084C15.3176 2.17791 15.0547 2.25039 14.8332 2.39767C14.6117 2.54494 14.4432 2.75927 14.3523 3.00927L13.0469 6.56239H6.95311L5.64764 3.00692C5.55655 2.75697 5.38782 2.54276 5.16616 2.39567C4.94449 2.24858 4.68155 2.17633 4.41585 2.18952C4.15015 2.20271 3.89566 2.30064 3.68965 2.46896C3.48365 2.63728 3.33696 2.86715 3.27107 3.12489L1.71873 9.06942C1.47393 10.0054 1.5189 10.9937 1.84768 11.9036C2.17646 12.8135 2.77358 13.6022 3.56014 14.1655L9.28436 18.21C9.49423 18.358 9.74474 18.4375 10.0015 18.4375C10.2583 18.4375 10.5089 18.358 10.7187 18.21L16.4429 14.1655C17.2289 13.6018 17.8254 12.8129 18.1537 11.903C18.4819 10.9931 18.5264 10.0051 18.2812 9.06942ZM4.57889 5.53583L5.41951 7.82333C5.48574 8.00352 5.6057 8.15903 5.76316 8.26885C5.92062 8.37867 6.108 8.4375 6.29998 8.43739H13.7C13.892 8.4375 14.0793 8.37867 14.2368 8.26885C14.3943 8.15903 14.5142 8.00352 14.5804 7.82333L15.4211 5.53583L16.1351 8.2702L9.99998 12.6022L3.86482 8.26786L4.57889 5.53583ZM3.43748 10.2632L8.37498 13.7499L7.29764 14.5108L4.64139 12.6358C4.2647 12.3663 3.95857 12.0099 3.74899 11.5969C3.53941 11.1838 3.43255 10.7263 3.43748 10.2632ZM9.99998 16.421L8.92264 15.6593L9.99998 14.8983L11.0773 15.6593L9.99998 16.421ZM15.3594 12.6343L12.7031 14.5093L11.625 13.7499L16.5625 10.2632C16.5672 10.726 16.4604 11.1831 16.251 11.5959C16.0415 12.0086 15.7357 12.3648 15.3594 12.6343Z" fill="#191F2E"/>
</svg>
