<svg width="20" height="20" viewBox="0 0 20 20" fill="none" xmlns="http://www.w3.org/2000/svg">
<path d="M17.9804 9.14849L16.4258 3.20318C16.3763 3.01009 16.2663 2.83792 16.1118 2.71192C15.9574 2.58591 15.7666 2.5127 15.5675 2.503C15.3684 2.4933 15.1715 2.54763 15.0055 2.65803C14.8395 2.76843 14.7133 2.92909 14.6453 3.11646L13.264 6.87505H6.73591L5.35466 3.1149C5.28651 2.92756 5.16014 2.76698 4.99407 2.6567C4.828 2.54642 4.63096 2.49225 4.43186 2.50212C4.23275 2.51199 4.04204 2.58539 3.8877 2.71156C3.73335 2.83772 3.62348 3.01002 3.57419 3.20318L2.01951 9.14849C1.78989 10.0235 1.83127 10.9475 2.13816 11.7984C2.44506 12.6494 3.00302 13.3871 3.73826 13.9141L9.46248 17.9579C9.61949 18.0687 9.80698 18.1283 9.9992 18.1283C10.1914 18.1283 10.3789 18.0687 10.5359 17.9579L16.2601 13.9141C16.9957 13.3873 17.5539 12.6497 17.8611 11.7987C18.1683 10.9478 18.2099 10.0236 17.9804 9.14849ZM4.53123 4.49224L5.71326 7.71568C5.7574 7.83576 5.83733 7.93941 5.94225 8.01262C6.04717 8.08583 6.17204 8.12507 6.29998 8.12505H13.7C13.8279 8.12507 13.9528 8.08583 14.0577 8.01262C14.1626 7.93941 14.2426 7.83576 14.2867 7.71568L15.4687 4.49224L16.4898 8.39849L9.99998 12.9852L3.50779 8.39849L4.53123 4.49224ZM3.1781 9.69615L8.91638 13.7501L7.29763 14.8946L4.46013 12.8907C3.96497 12.5351 3.5814 12.0457 3.35435 11.4799C3.12729 10.9142 3.06616 10.2954 3.1781 9.69615ZM9.99998 16.8055L8.38044 15.661L9.99998 14.5157L11.6195 15.6594L9.99998 16.8055ZM15.5398 12.8907L12.7023 14.8954L11.0836 13.7501L16.8219 9.69537C16.934 10.2947 16.8729 10.9137 16.6458 11.4796C16.4188 12.0455 16.0351 12.535 15.5398 12.8907Z" fill="#191F2E"/>
</svg>
