<svg width="20" height="20" viewBox="0 0 20 20" fill="none" xmlns="http://www.w3.org/2000/svg">
<path d="M10 1.5625C8.33122 1.5625 6.69992 2.05735 5.31238 2.98448C3.92484 3.9116 2.84338 5.22936 2.20477 6.77111C1.56616 8.31286 1.39907 10.0094 1.72463 11.6461C2.05019 13.2828 2.85379 14.7862 4.03379 15.9662C5.2138 17.1462 6.71721 17.9498 8.35393 18.2754C9.99064 18.6009 11.6871 18.4338 13.2289 17.7952C14.7706 17.1566 16.0884 16.0752 17.0155 14.6876C17.9427 13.3001 18.4375 11.6688 18.4375 10C18.435 7.763 17.5453 5.61833 15.9635 4.03653C14.3817 2.45473 12.237 1.56498 10 1.5625ZM8.36485 13.4375H11.6352C11.2807 14.5172 10.726 15.5203 10 16.3945C9.274 15.5203 8.71927 14.5172 8.36485 13.4375ZM7.92266 11.5625C7.77579 10.526 7.77579 9.47399 7.92266 8.4375H12.0773C12.2242 9.47399 12.2242 10.526 12.0773 11.5625H7.92266ZM3.4375 10C3.43748 9.47341 3.50123 8.94876 3.62735 8.4375H6.03282C5.90573 9.47529 5.90573 10.5247 6.03282 11.5625H3.62735C3.50123 11.0512 3.43748 10.5266 3.4375 10ZM11.6352 6.5625H8.36485C8.71927 5.48284 9.274 4.47965 10 3.60547C10.726 4.47965 11.2807 5.48284 11.6352 6.5625ZM13.9672 8.4375H16.3727C16.6258 9.46379 16.6258 10.5362 16.3727 11.5625H13.9672C14.0943 10.5247 14.0943 9.47529 13.9672 8.4375ZM15.5875 6.5625H13.5938C13.3395 5.64535 12.9735 4.76295 12.5039 3.93516C13.7817 4.46612 14.8604 5.38519 15.5875 6.5625ZM7.5 3.93516C7.02904 4.76276 6.6617 5.64517 6.40625 6.5625H4.4125C5.14063 5.38456 6.22074 4.46543 7.5 3.93516ZM4.4125 13.4375H6.40625C6.6617 14.3548 7.02904 15.2372 7.5 16.0648C6.22074 15.5346 5.14063 14.6154 4.4125 13.4375ZM12.5039 16.0648C12.9735 15.237 13.3395 14.3546 13.5938 13.4375H15.5875C14.8604 14.6148 13.7817 15.5339 12.5039 16.0648Z" fill="#191F2E"/>
</svg>
