<svg width="20" height="20" viewBox="0 0 20 20" fill="none" xmlns="http://www.w3.org/2000/svg">
<path d="M10 1.875C8.39303 1.875 6.82214 2.35152 5.486 3.24431C4.14985 4.1371 3.10844 5.40605 2.49348 6.8907C1.87852 8.37535 1.71762 10.009 2.03112 11.5851C2.34463 13.1612 3.11846 14.6089 4.25476 15.7452C5.39106 16.8815 6.8388 17.6554 8.4149 17.9689C9.99099 18.2824 11.6247 18.1215 13.1093 17.5065C14.594 16.8916 15.8629 15.8502 16.7557 14.514C17.6485 13.1779 18.125 11.607 18.125 10C18.1227 7.84581 17.266 5.78051 15.7427 4.25727C14.2195 2.73403 12.1542 1.87727 10 1.875ZM10 3.125C11.332 3.12359 12.6354 3.51134 13.75 4.24062V5.78125L12.018 7.79219L9.55938 8.125L9.53516 8.10781L7.99844 7.10312C7.8622 7.00715 7.70814 6.93939 7.54532 6.90383C7.38251 6.86827 7.21422 6.86562 7.05037 6.89605C6.88652 6.92648 6.7304 6.98936 6.59121 7.08101C6.45202 7.17265 6.33255 7.2912 6.23985 7.42969L4.60391 9.875C4.46763 10.0788 4.39427 10.3181 4.39297 10.5633L4.375 13.3938L4.11953 13.5617C3.48798 12.519 3.14504 11.3271 3.12584 10.1082C3.10665 8.88933 3.41191 7.68725 4.01032 6.62518C4.60873 5.56311 5.47878 4.67925 6.5313 4.06419C7.58382 3.44914 8.78095 3.125 10 3.125ZM4.86641 14.568L5.06328 14.4391C5.2352 14.3257 5.37644 14.1715 5.47443 13.9904C5.57243 13.8093 5.62415 13.6067 5.625 13.4008L5.64141 10.5703L7.27891 8.125C7.28693 8.13117 7.29527 8.13691 7.30391 8.14219L8.84063 9.14766C9.09816 9.32941 9.41504 9.40675 9.72735 9.36406L12.1875 9.03047C12.4909 8.98998 12.7689 8.83959 12.9688 8.60781L14.7008 6.59531C14.8945 6.36837 15.0006 6.07962 15 5.78125V5.28672C15.8454 6.18109 16.4348 7.28627 16.7065 8.48656C16.9782 9.68685 16.9223 10.9381 16.5445 12.1094L15.2836 10.9563C15.1083 10.7953 14.8907 10.6878 14.6564 10.6463C14.4221 10.6048 14.1809 10.631 13.9609 10.7219L11.5813 11.7102C11.3823 11.7937 11.2082 11.927 11.0757 12.0974C10.9432 12.2678 10.8569 12.4694 10.825 12.6828L10.6383 13.9477C10.5934 14.2521 10.6624 14.5624 10.8321 14.8191C11.0017 15.0759 11.2601 15.261 11.5578 15.3391L13.2344 15.7812L13.4188 15.9664C12.0497 16.7519 10.4518 17.0417 8.89407 16.787C7.33635 16.5323 5.91397 15.7486 4.86641 14.568ZM14.4531 15.2344L14.1172 14.8977C13.9605 14.7404 13.7647 14.6276 13.55 14.5711L11.875 14.1289L12.0617 12.8641L14.4406 11.875L16.0156 13.3187C15.6142 14.046 15.0849 14.695 14.4531 15.2344Z" fill="#191F2E"/>
</svg>
