<svg width="20" height="20" viewBox="0 0 20 20" fill="none" xmlns="http://www.w3.org/2000/svg">
<path d="M3.75012 7.49994C3.75012 6.2638 4.11667 5.05543 4.80343 4.02762C5.49019 2.99981 6.46631 2.19874 7.60835 1.72569C8.75038 1.25264 10.0071 1.12887 11.2194 1.37003C12.4318 1.61119 13.5455 2.20644 14.4195 3.08052C15.2936 3.9546 15.8889 5.06824 16.13 6.28062C16.3712 7.493 16.2474 8.74967 15.7744 9.89171C15.3013 11.0337 14.5002 12.0099 13.4724 12.6966C12.4446 13.3834 11.2363 13.7499 10.0001 13.7499C8.34309 13.7481 6.75446 13.089 5.58276 11.9173C4.41106 10.7456 3.75198 9.15697 3.75012 7.49994ZM15.1923 12.9124C13.7771 14.2749 11.8838 15.0277 9.91947 15.009C7.95511 14.9903 6.07649 14.2017 4.68741 12.8126C3.29834 11.4236 2.50971 9.54494 2.49105 7.58059C2.47239 5.61623 3.22518 3.72296 4.58762 2.30775C4.64595 2.24885 4.69199 2.17894 4.72305 2.10209C4.75411 2.02523 4.76956 1.94296 4.76852 1.86008C4.76748 1.77719 4.74996 1.69533 4.71699 1.61928C4.68401 1.54323 4.63623 1.4745 4.57644 1.41708C4.51664 1.35967 4.44603 1.31473 4.36869 1.28487C4.29136 1.25501 4.20887 1.24084 4.126 1.24317C4.04314 1.2455 3.96157 1.26429 3.88604 1.29844C3.81051 1.3326 3.74253 1.38144 3.68606 1.44212C2.53554 2.64139 1.75035 4.1435 1.42236 5.77271C1.09436 7.40192 1.23712 9.09085 1.83393 10.6419C2.43074 12.1929 3.45692 13.5419 4.79241 14.5311C6.1279 15.5202 7.71746 16.1085 9.37512 16.2273V17.4999H7.50012C7.33436 17.4999 7.17539 17.5658 7.05818 17.683C6.94097 17.8002 6.87512 17.9592 6.87512 18.1249C6.87512 18.2907 6.94097 18.4497 7.05818 18.5669C7.17539 18.6841 7.33436 18.7499 7.50012 18.7499H12.5001C12.6659 18.7499 12.8249 18.6841 12.9421 18.5669C13.0593 18.4497 13.1251 18.2907 13.1251 18.1249C13.1251 17.9592 13.0593 17.8002 12.9421 17.683C12.8249 17.5658 12.6659 17.4999 12.5001 17.4999H10.6251V16.2281C12.6636 16.0873 14.5872 15.2325 16.0579 13.814C16.1186 13.7575 16.1675 13.6895 16.2016 13.614C16.2358 13.5385 16.2546 13.4569 16.2569 13.3741C16.2592 13.2912 16.245 13.2087 16.2152 13.1314C16.1853 13.054 16.1404 12.9834 16.083 12.9236C16.0256 12.8638 15.9568 12.816 15.8808 12.7831C15.8047 12.7501 15.7229 12.7326 15.64 12.7315C15.5571 12.7305 15.4748 12.7459 15.398 12.777C15.3211 12.8081 15.2512 12.8541 15.1923 12.9124Z" fill="#191F2E"/>
</svg>
