<svg width="20" height="20" viewBox="0 0 20 20" fill="none" xmlns="http://www.w3.org/2000/svg">
<path d="M9.99993 13.4375C11.1743 13.4375 12.3222 13.0893 13.2986 12.4369C14.275 11.7845 15.0361 10.8571 15.4855 9.77221C15.9349 8.68727 16.0524 7.49344 15.8233 6.34168C15.5942 5.18992 15.0288 4.13195 14.1984 3.30158C13.368 2.47121 12.31 1.90571 11.1583 1.67661C10.0065 1.44751 8.81269 1.5651 7.72775 2.01449C6.64281 2.46389 5.7155 3.22491 5.06308 4.20133C4.41066 5.17774 4.06243 6.3257 4.06243 7.50003C4.06409 9.07424 4.69017 10.5835 5.80331 11.6966C6.91645 12.8098 8.42572 13.4359 9.99993 13.4375ZM9.99993 3.43753C10.8034 3.43753 11.5889 3.67579 12.2569 4.12218C12.925 4.56857 13.4457 5.20305 13.7532 5.94538C14.0607 6.6877 14.1411 7.50453 13.9844 8.29258C13.8276 9.08063 13.4407 9.8045 12.8726 10.3726C12.3044 10.9408 11.5805 11.3277 10.7925 11.4845C10.0044 11.6412 9.18761 11.5608 8.44528 11.2533C7.70296 10.9458 7.06848 10.4251 6.62209 9.75703C6.17569 9.08896 5.93743 8.30351 5.93743 7.50003C5.93867 6.42297 6.36708 5.39037 7.12868 4.62878C7.89028 3.86718 8.92287 3.43877 9.99993 3.43753ZM10.9374 16.5141V17.1875H12.4999C12.7486 17.1875 12.987 17.2863 13.1628 17.4621C13.3387 17.6379 13.4374 17.8764 13.4374 18.125C13.4374 18.3737 13.3387 18.6121 13.1628 18.7879C12.987 18.9638 12.7486 19.0625 12.4999 19.0625H7.49993C7.25129 19.0625 7.01284 18.9638 6.83702 18.7879C6.6612 18.6121 6.56243 18.3737 6.56243 18.125C6.56243 17.8764 6.6612 17.6379 6.83702 17.4621C7.01284 17.2863 7.25129 17.1875 7.49993 17.1875H9.06243V16.5141C6.84814 16.2839 4.79605 15.2467 3.29752 13.6004C1.799 11.954 0.958892 9.81365 0.937432 7.58753C0.90866 5.21766 1.81503 2.93194 3.46009 1.22581C3.5448 1.13479 3.64677 1.06152 3.76007 1.01029C3.87336 0.959054 3.99572 0.930868 4.12001 0.927372C4.2443 0.923877 4.36805 0.945142 4.48405 0.989929C4.60004 1.03472 4.70597 1.10213 4.79566 1.18825C4.88535 1.27437 4.95702 1.37746 5.00649 1.49154C5.05595 1.60562 5.08223 1.7284 5.08379 1.85274C5.08535 1.97707 5.06216 2.10047 5.01558 2.21575C4.96899 2.33104 4.89993 2.4359 4.81243 2.52425C3.50606 3.8804 2.78407 5.69506 2.80171 7.578C2.81935 9.46093 3.57521 11.2618 4.90676 12.5932C6.23831 13.9246 8.03918 14.6804 9.92212 14.6979C11.8051 14.7154 13.6197 13.9932 14.9757 12.6867C15.0641 12.5992 15.1689 12.5302 15.2842 12.4836C15.3995 12.437 15.5229 12.4138 15.6472 12.4154C15.7716 12.4169 15.8943 12.4432 16.0084 12.4927C16.1225 12.5422 16.2256 12.6138 16.3117 12.7035C16.3978 12.7932 16.4652 12.8991 16.51 13.0151C16.5548 13.1311 16.5761 13.2549 16.5726 13.3792C16.5691 13.5035 16.5409 13.6258 16.4897 13.7391C16.4384 13.8524 16.3652 13.9544 16.2742 14.0391C14.823 15.439 12.9435 16.3106 10.9374 16.5141Z" fill="#191F2E"/>
</svg>
