<svg width="20" height="20" viewBox="0 0 20 20" fill="none" xmlns="http://www.w3.org/2000/svg">
<path d="M10 1.5625C8.33122 1.5625 6.69992 2.05735 5.31238 2.98448C3.92484 3.9116 2.84338 5.22936 2.20477 6.77111C1.56616 8.31286 1.39907 10.0094 1.72463 11.6461C2.05019 13.2828 2.85379 14.7862 4.03379 15.9662C5.2138 17.1462 6.71721 17.9498 8.35393 18.2754C9.99064 18.6009 11.6871 18.4338 13.2289 17.7952C14.7706 17.1566 16.0884 16.0752 17.0155 14.6876C17.9427 13.3001 18.4375 11.6688 18.4375 10C18.435 7.763 17.5453 5.61833 15.9635 4.03653C14.3817 2.45473 12.237 1.56498 10 1.5625ZM16.5625 10C16.5627 10.7175 16.4447 11.4302 16.2133 12.1094L13.0469 10.1562C12.8615 10.0414 12.6537 9.96735 12.4375 9.93906L10.6547 9.69844C10.3791 9.66296 10.0991 9.70109 9.84301 9.80895C9.58695 9.91681 9.36402 10.0905 9.19688 10.3125H8.87891L8.66719 9.875C8.56427 9.66075 8.41354 9.47299 8.22663 9.32617C8.03971 9.17934 7.82159 9.07738 7.58907 9.02812L7.37969 8.98438L7.69219 8.4375H8.81641C9.08037 8.43744 9.34 8.37052 9.5711 8.24297L10.5281 7.71484C10.633 7.6562 10.7311 7.58597 10.8203 7.50547L12.9234 5.60469C13.0895 5.45452 13.2213 5.27042 13.31 5.06487C13.3987 4.85932 13.4422 4.6371 13.4375 4.41328C14.392 5.00023 15.1804 5.82182 15.7274 6.79977C16.2744 7.77772 16.5619 8.87945 16.5625 10ZM10.9969 3.51562L11.4813 4.38281L9.58985 6.09375L8.73594 6.5625H7.51094C7.23576 6.56283 6.96553 6.63564 6.72743 6.77362C6.48934 6.91159 6.2918 7.10985 6.15469 7.34844L5.80391 7.96172L5.2875 6.58437L6.06172 4.75469C6.76023 4.22966 7.55666 3.84958 8.40418 3.63679C9.2517 3.42401 10.1332 3.38281 10.9969 3.51562ZM3.4375 10C3.43734 9.28879 3.55346 8.58234 3.78125 7.90859L4.38594 9.52187C4.47718 9.76743 4.62902 9.98594 4.82735 10.1571C5.02567 10.3282 5.26405 10.4465 5.52032 10.5008L7.0461 10.8289L7.28047 11.3055C7.38314 11.5157 7.53147 11.7003 7.71461 11.8459C7.89776 11.9915 8.1111 12.0943 8.33907 12.1469L7.94844 13.0156C7.82413 13.2947 7.78437 13.6041 7.83408 13.9056C7.88379 14.207 8.02079 14.4873 8.22813 14.7117L8.24453 14.7289L9.66329 16.1898L9.59375 16.5484C7.92765 16.4434 6.36402 15.708 5.22055 14.4917C4.07708 13.2754 3.43956 11.6694 3.4375 10ZM11.5352 16.3797C11.5796 16.1395 11.5674 15.8924 11.4996 15.6577C11.4318 15.4231 11.3102 15.2075 11.1445 15.0281L11.1281 15.0109L9.74375 13.5852L10.632 11.5914L12.1164 11.7914L15.3531 13.782C14.4362 15.0808 13.0799 16.0036 11.5352 16.3797Z" fill="#191F2E"/>
</svg>
