<svg width="20" height="20" viewBox="0 0 20 20" fill="none" xmlns="http://www.w3.org/2000/svg">
<path d="M14.0625 4.6875H5.9375C4.36329 4.68915 2.85402 5.31524 1.74088 6.42838C0.627742 7.54152 0.00165446 9.05079 0 10.625L0 10.9375C9.42342e-05 11.2926 0.10103 11.6404 0.291063 11.9404C0.481096 12.2404 0.752411 12.4802 1.07344 12.632C1.31953 13.3125 1.89453 13.9406 2.75469 14.45C3.65469 14.982 4.75469 15.3094 5.625 15.3094C6.37287 15.3084 7.10008 15.0639 7.69661 14.6128C8.29314 14.1618 8.72655 13.5287 8.93125 12.8094H11.0687C11.2729 13.5293 11.706 14.163 12.3026 14.6147C12.8992 15.0664 13.6267 15.3113 14.375 15.3125C15.8227 15.3125 18.3297 14.3117 18.9305 12.6305C19.2505 12.4782 19.5209 12.2384 19.7102 11.9387C19.8995 11.6391 20 11.2919 20 10.9375V10.625C19.9983 9.05079 19.3723 7.54152 18.2591 6.42838C17.146 5.31524 15.6367 4.68915 14.0625 4.6875ZM5.9375 6.5625H14.0625C15.0121 6.56381 15.9313 6.89727 16.6609 7.50511C17.3904 8.11296 17.8843 8.95687 18.057 9.89062C17.8068 9.66634 17.5349 9.46745 17.2453 9.29688C16.3453 8.76484 15.2453 8.4375 14.375 8.4375C13.6271 8.43847 12.8999 8.68299 12.3034 9.13405C11.7069 9.58512 11.2735 10.2182 11.0687 10.9375H8.93125C8.72655 10.2182 8.29314 9.58512 7.69661 9.13405C7.10008 8.68299 6.37287 8.43847 5.625 8.4375C4.57812 8.4375 2.97656 8.96172 1.94297 9.8875C2.11646 8.95439 2.6107 8.11129 3.34016 7.50409C4.06962 6.8969 4.9884 6.56382 5.9375 6.5625ZM5.625 13.4375C4.52109 13.4375 2.8125 12.4883 2.8125 11.875C2.8125 11.6609 3.08984 11.2805 3.70937 10.9141C4.4125 10.4984 5.17812 10.3125 5.625 10.3125C6.0394 10.3125 6.43683 10.4771 6.72985 10.7701C7.02288 11.0632 7.1875 11.4606 7.1875 11.875C7.1875 12.2894 7.02288 12.6868 6.72985 12.9799C6.43683 13.2729 6.0394 13.4375 5.625 13.4375ZM16.2906 12.8359C15.5875 13.2516 14.8219 13.4375 14.375 13.4375C13.9606 13.4375 13.5632 13.2729 13.2701 12.9799C12.9771 12.6868 12.8125 12.2894 12.8125 11.875C12.8125 11.4606 12.9771 11.0632 13.2701 10.7701C13.5632 10.4771 13.9606 10.3125 14.375 10.3125C15.4789 10.3125 17.1875 11.2617 17.1875 11.875C17.1875 12.0891 16.9102 12.4695 16.2906 12.8359Z" fill="#191F2E"/>
</svg>
