<svg width="20" height="20" viewBox="0 0 20 20" fill="none" xmlns="http://www.w3.org/2000/svg">
<path d="M14.375 5H5.625C4.13367 5.00165 2.70389 5.59482 1.64935 6.64935C0.594818 7.70389 0.00165428 9.13367 0 10.625C1.45356e-05 11.0272 0.12903 11.4188 0.368088 11.7422C0.607146 12.0656 0.94364 12.3039 1.32812 12.4219C1.80156 14.0133 4.26797 15 5.625 15C6.34514 14.9991 7.04295 14.75 7.60081 14.2946C8.15867 13.8392 8.54247 13.2054 8.6875 12.5H11.3125C11.4575 13.2054 11.8413 13.8392 12.3992 14.2946C12.9571 14.75 13.6549 14.9991 14.375 15C15.7289 15 18.1953 14.0109 18.6719 12.4219C19.0564 12.3039 19.3929 12.0656 19.6319 11.7422C19.871 11.4188 20 11.0272 20 10.625C19.9983 9.13367 19.4052 7.70389 18.3506 6.64935C17.2961 5.59482 15.8663 5.00165 14.375 5ZM6.95312 13.2031C6.83593 13.3202 6.67702 13.386 6.51133 13.386C6.34564 13.386 6.18673 13.3202 6.06953 13.2031L4.15156 11.2852C4.0393 11.167 3.97764 11.0096 3.97973 10.8467C3.98181 10.6837 4.04748 10.528 4.16273 10.4127C4.27798 10.2975 4.4337 10.2318 4.59667 10.2297C4.75965 10.2276 4.91699 10.2893 5.03516 10.4016L6.95312 12.3164C7.01159 12.3745 7.05798 12.4436 7.08965 12.5197C7.12131 12.5958 7.13761 12.6774 7.13761 12.7598C7.13761 12.8422 7.12131 12.9238 7.08965 12.9999C7.05798 13.076 7.01159 13.145 6.95312 13.2031ZM16.2906 13.1648C16.1734 13.282 16.0145 13.3478 15.8488 13.3478C15.6831 13.3478 15.5242 13.282 15.407 13.1648L13.4219 11.1805C13.3046 11.0632 13.2387 10.9041 13.2387 10.7383C13.2387 10.5724 13.3046 10.4134 13.4219 10.2961C13.5392 10.1788 13.6982 10.1129 13.8641 10.1129C14.0299 10.1129 14.189 10.1788 14.3062 10.2961L16.2906 12.2812C16.4066 12.3988 16.4714 12.5574 16.4708 12.7225C16.4702 12.8876 16.4043 13.0458 16.2875 13.1625L16.2906 13.1648ZM18.5719 11.0664C17.9172 9.62891 15.6516 8.75 14.375 8.75C13.6549 8.75088 12.9571 9.00002 12.3992 9.45541C11.8413 9.91081 11.4575 10.5446 11.3125 11.25H8.6875C8.54247 10.5446 8.15867 9.91081 7.60081 9.45541C7.04295 9.00002 6.34514 8.75088 5.625 8.75C4.34844 8.75 2.08281 9.62891 1.43125 11.0641C1.31541 10.9473 1.25028 10.7895 1.25 10.625C1.25124 9.46506 1.71258 8.35298 2.53278 7.53278C3.35298 6.71258 4.46506 6.25124 5.625 6.25H14.375C15.5349 6.25124 16.647 6.71258 17.4672 7.53278C18.2874 8.35298 18.7488 9.46506 18.75 10.625C18.7497 10.7895 18.6846 10.9473 18.5687 11.0641L18.5719 11.0664Z" fill="#191F2E"/>
</svg>
