<svg width="20" height="20" viewBox="0 0 20 20" fill="none" xmlns="http://www.w3.org/2000/svg">
<path d="M20 10.625C19.9983 9.13367 19.4052 7.70389 18.3506 6.64935C17.2961 5.59482 15.8663 5.00165 14.375 5H5.625C4.13367 5.00165 2.70389 5.59482 1.64935 6.64935C0.594818 7.70389 0.00165428 9.13367 0 10.625C1.45356e-05 11.0272 0.12903 11.4188 0.368088 11.7422C0.607146 12.0656 0.94364 12.3039 1.32812 12.4219C1.80156 14.0133 4.26797 15 5.625 15C6.34514 14.9991 7.04295 14.75 7.60081 14.2946C8.15867 13.8392 8.54247 13.2054 8.6875 12.5H11.3125C11.4575 13.2054 11.8413 13.8392 12.3992 14.2946C12.9571 14.75 13.6549 14.9991 14.375 15C15.7289 15 18.1953 14.0109 18.6719 12.4219C19.0564 12.3039 19.3929 12.0656 19.6319 11.7422C19.871 11.4188 20 11.0272 20 10.625ZM3.55078 13.1047C2.89062 12.7156 2.5 12.2562 2.5 11.875C2.5 11.4938 2.88359 11.0461 3.52578 10.6602L6.43281 13.5664C6.18083 13.6877 5.90467 13.7505 5.625 13.75C5.03672 13.75 4.20312 13.4906 3.55078 13.1047ZM7.31641 12.6828L4.76562 10.1328C5.04505 10.0512 5.33397 10.0065 5.625 10C6.12228 10 6.59919 10.1975 6.95083 10.5492C7.30246 10.9008 7.5 11.3777 7.5 11.875C7.50049 12.1547 7.43773 12.4308 7.31641 12.6828ZM12.5 11.875C12.4996 11.4411 12.6504 11.0206 12.9266 10.6859L15.7031 13.4625C15.2344 13.6422 14.7539 13.75 14.375 13.75C13.8777 13.75 13.4008 13.5525 13.0492 13.2008C12.6975 12.8492 12.5 12.3723 12.5 11.875ZM16.8461 12.8367L14.0398 10.0305C14.1504 10.0104 14.2626 10.0002 14.375 10C14.9633 10 15.7969 10.2594 16.4492 10.6453C17.1016 11.0312 17.5 11.4938 17.5 11.875C17.5 12.1711 17.2656 12.5156 16.8461 12.8367ZM18.5687 11.0641C17.9172 9.62891 15.6516 8.75 14.375 8.75C13.6549 8.75088 12.9571 9.00002 12.3992 9.45541C11.8413 9.91081 11.4575 10.5446 11.3125 11.25H8.6875C8.54247 10.5446 8.15867 9.91081 7.60081 9.45541C7.04295 9.00002 6.34514 8.75088 5.625 8.75C4.34844 8.75 2.08281 9.62891 1.43125 11.0641C1.31541 10.9473 1.25028 10.7895 1.25 10.625C1.25124 9.46506 1.71258 8.35298 2.53278 7.53278C3.35298 6.71258 4.46506 6.25124 5.625 6.25H14.375C15.5349 6.25124 16.647 6.71258 17.4672 7.53278C18.2874 8.35298 18.7488 9.46506 18.75 10.625C18.7497 10.7895 18.6846 10.9473 18.5687 11.0641Z" fill="#191F2E"/>
</svg>
