<svg width="20" height="20" viewBox="0 0 20 20" fill="none" xmlns="http://www.w3.org/2000/svg">
<path d="M14.375 1.56256C14.1264 1.56256 13.8879 1.66133 13.7121 1.83715C13.5363 2.01296 13.4375 2.25142 13.4375 2.50006V2.82975C12.6655 2.17204 11.7212 1.74927 10.7165 1.61148C9.7117 1.47368 8.68848 1.62664 7.76792 2.05223C6.84736 2.47782 6.068 3.15824 5.52209 4.01295C4.97617 4.86766 4.68655 5.86088 4.6875 6.87506V8.75006C4.68655 9.76424 4.97617 10.7575 5.52209 11.6122C6.068 12.4669 6.84736 13.1473 7.76792 13.5729C8.68848 13.9985 9.7117 14.1514 10.7165 14.0136C11.7212 13.8759 12.6655 13.4531 13.4375 12.7954V13.1251C13.4365 14.0364 13.074 14.9102 12.4295 15.5546C11.7851 16.199 10.9114 16.5615 10 16.5626C8.82813 16.5626 7.6336 15.9704 7.01875 15.0883C6.87641 14.8845 6.6589 14.7455 6.41407 14.702C6.16925 14.6584 5.91717 14.714 5.71328 14.8563C5.5094 14.9987 5.37041 15.2162 5.3269 15.461C5.28338 15.7058 5.33891 15.9579 5.48125 16.1618C6.44532 17.5438 8.21953 18.4376 10 18.4376C11.4085 18.4361 12.7589 17.8759 13.7549 16.88C14.7509 15.884 15.3111 14.5336 15.3125 13.1251V2.50006C15.3125 2.25142 15.2137 2.01296 15.0379 1.83715C14.8621 1.66133 14.6236 1.56256 14.375 1.56256ZM10 12.1876C9.08864 12.1865 8.2149 11.824 7.57046 11.1796C6.92603 10.5352 6.56354 9.66143 6.5625 8.75006V6.87506C6.5625 5.96338 6.92467 5.08904 7.56932 4.44438C8.21398 3.79973 9.08832 3.43756 10 3.43756C10.9117 3.43756 11.786 3.79973 12.4307 4.44438C13.0753 5.08904 13.4375 5.96338 13.4375 6.87506V8.75006C13.4365 9.66143 13.074 10.5352 12.4295 11.1796C11.7851 11.824 10.9114 12.1865 10 12.1876Z" fill="#191F2E"/>
</svg>
