<svg width="20" height="20" viewBox="0 0 20 20" fill="none" xmlns="http://www.w3.org/2000/svg">
<path d="M17.5 3.75H2.5C2.16848 3.75 1.85054 3.8817 1.61612 4.11612C1.3817 4.35054 1.25 4.66848 1.25 5V15C1.25 15.3315 1.3817 15.6495 1.61612 15.8839C1.85054 16.1183 2.16848 16.25 2.5 16.25H7.24141C7.40562 16.2505 7.5683 16.2184 7.71999 16.1555C7.87168 16.0926 8.00935 16.0002 8.125 15.8836L10 14.0086L11.875 15.8836C11.9907 16.0002 12.1283 16.0926 12.28 16.1555C12.4317 16.2184 12.5944 16.2505 12.7586 16.25H17.5C17.8315 16.25 18.1495 16.1183 18.3839 15.8839C18.6183 15.6495 18.75 15.3315 18.75 15V5C18.75 4.66848 18.6183 4.35054 18.3839 4.11612C18.1495 3.8817 17.8315 3.75 17.5 3.75ZM17.5 15H12.7586L10.8836 13.125C10.6492 12.8908 10.3314 12.7592 10 12.7592C9.66862 12.7592 9.3508 12.8908 9.11641 13.125L7.24141 15H2.5V5H17.5V15ZM6.25 12.5C6.74445 12.5 7.2278 12.3534 7.63893 12.0787C8.05005 11.804 8.37048 11.4135 8.5597 10.9567C8.74892 10.4999 8.79843 9.99723 8.70196 9.51227C8.6055 9.02732 8.3674 8.58186 8.01777 8.23223C7.66814 7.8826 7.22268 7.6445 6.73773 7.54804C6.25277 7.45157 5.75011 7.50108 5.29329 7.6903C4.83648 7.87952 4.44603 8.19995 4.17133 8.61107C3.89662 9.0222 3.75 9.50555 3.75 10C3.75 10.663 4.01339 11.2989 4.48223 11.7678C4.95107 12.2366 5.58696 12.5 6.25 12.5ZM6.25 8.75C6.49723 8.75 6.7389 8.82331 6.94446 8.96066C7.15002 9.09801 7.31024 9.29324 7.40485 9.52165C7.49946 9.75005 7.52421 10.0014 7.47598 10.2439C7.42775 10.4863 7.3087 10.7091 7.13388 10.8839C6.95907 11.0587 6.73634 11.1778 6.49386 11.226C6.25139 11.2742 6.00005 11.2495 5.77165 11.1548C5.54324 11.0602 5.34801 10.9 5.21066 10.6945C5.07331 10.4889 5 10.2472 5 10C5 9.66848 5.1317 9.35054 5.36612 9.11612C5.60054 8.8817 5.91848 8.75 6.25 8.75ZM13.75 12.5C14.2445 12.5 14.7278 12.3534 15.1389 12.0787C15.55 11.804 15.8705 11.4135 16.0597 10.9567C16.2489 10.4999 16.2984 9.99723 16.202 9.51227C16.1055 9.02732 15.8674 8.58186 15.5178 8.23223C15.1681 7.8826 14.7227 7.6445 14.2377 7.54804C13.7528 7.45157 13.2501 7.50108 12.7933 7.6903C12.3365 7.87952 11.946 8.19995 11.6713 8.61107C11.3966 9.0222 11.25 9.50555 11.25 10C11.25 10.663 11.5134 11.2989 11.9822 11.7678C12.4511 12.2366 13.087 12.5 13.75 12.5ZM13.75 8.75C13.9972 8.75 14.2389 8.82331 14.4445 8.96066C14.65 9.09801 14.8102 9.29324 14.9049 9.52165C14.9995 9.75005 15.0242 10.0014 14.976 10.2439C14.9278 10.4863 14.8087 10.7091 14.6339 10.8839C14.4591 11.0587 14.2363 11.1778 13.9939 11.226C13.7514 11.2742 13.5001 11.2495 13.2716 11.1548C13.0432 11.0602 12.848 10.9 12.7107 10.6945C12.5733 10.4889 12.5 10.2472 12.5 10C12.5 9.66848 12.6317 9.35054 12.8661 9.11612C13.1005 8.8817 13.4185 8.75 13.75 8.75Z" fill="#191F2E"/>
</svg>
