<svg width="20" height="20" viewBox="0 0 20 20" fill="none" xmlns="http://www.w3.org/2000/svg">
<path d="M17.486 8.92029L4.37503 1.41872C4.18389 1.30726 3.9666 1.24854 3.74534 1.24854C3.52408 1.24854 3.30679 1.30726 3.11565 1.41872C2.92734 1.5267 2.7711 1.68278 2.66293 1.87098C2.55476 2.05918 2.49854 2.27275 2.50003 2.48982V17.5101C2.49941 17.727 2.55636 17.9401 2.66507 18.1277C2.77378 18.3154 2.93035 18.4708 3.11878 18.5781C3.30991 18.6896 3.52721 18.7483 3.74847 18.7483C3.96973 18.7483 4.18702 18.6896 4.37815 18.5781L17.486 11.0781C17.6796 10.972 17.8411 10.8158 17.9535 10.6258C18.066 10.4359 18.1254 10.2192 18.1254 9.99841C18.1254 9.77765 18.066 9.56095 17.9535 9.371C17.8411 9.18105 17.6796 9.02484 17.486 8.91872V8.92029ZM11.25 10.8836L12.7282 12.3617L5.81409 16.3195L11.25 10.8836ZM5.81253 3.67966L12.7289 7.63825L11.25 9.11638L5.81253 3.67966ZM13.8524 11.7187L12.1336 9.99997L13.8524 8.28122L16.8547 9.99997L13.8524 11.7187Z" fill="#191F2E"/>
</svg>
