<svg width="20" height="20" viewBox="0 0 20 20" fill="none" xmlns="http://www.w3.org/2000/svg">
<path d="M18.8281 11.6914L13.4836 2.9305L13.4781 2.9219C13.3382 2.69595 13.1426 2.50975 12.9101 2.38115C12.6775 2.25255 12.4158 2.18588 12.15 2.18753H7.8469C7.58115 2.18588 7.31943 2.25255 7.08686 2.38115C6.85429 2.50975 6.65867 2.69595 6.51877 2.9219L6.5133 2.9305L1.1719 11.6914C1.02371 11.9306 0.942875 12.2054 0.937925 12.4868C0.932975 12.7681 1.00409 13.0456 1.14377 13.2899L3.28127 17.025C3.41768 17.2638 3.6147 17.4624 3.85243 17.6007C4.09015 17.7389 4.36016 17.812 4.63518 17.8125H15.3649C15.6399 17.812 15.9099 17.7389 16.1476 17.6007C16.3853 17.4624 16.5824 17.2638 16.7188 17.025L18.8531 13.2899C18.9933 13.0459 19.0649 12.7686 19.0605 12.4872C19.0561 12.2059 18.9759 11.9309 18.8281 11.6914ZM16.5531 11.5625H13.6555L11.0938 7.29144L12.5094 4.93284L16.5531 11.5625ZM4.28127 15L3.38752 13.4375H5.21955L4.28127 15ZM7.40627 13.4375H12.5938L14.0938 15.9375H5.90627L7.40627 13.4375ZM8.53127 11.5625L10 9.11409L11.4688 11.5625H8.53127ZM14.7813 13.4375H16.6133L15.7188 15L14.7813 13.4375ZM10 5.46878L9.15549 4.06253H10.8446L10 5.46878ZM7.49143 4.93284L8.90627 7.29144L6.34455 11.5625H3.4469L7.49143 4.93284Z" fill="#191F2E"/>
</svg>
