<svg width="20" height="20" viewBox="0 0 20 20" fill="none" xmlns="http://www.w3.org/2000/svg">
<path d="M18.125 9.375H15.0383C15.4637 8.51745 15.6633 7.56551 15.6181 6.60929C15.5729 5.65306 15.2844 4.7242 14.7799 3.91063C14.2754 3.09706 13.5716 2.42571 12.7352 1.96012C11.8987 1.49452 10.9573 1.25011 10 1.25C9.83424 1.25 9.67527 1.31585 9.55806 1.43306C9.44085 1.55027 9.375 1.70924 9.375 1.875V4.96172C8.51745 4.53626 7.56551 4.33669 6.60929 4.38191C5.65306 4.42713 4.7242 4.71564 3.91063 5.22013C3.09706 5.72462 2.42571 6.4284 1.96012 7.26484C1.49452 8.10128 1.25011 9.04271 1.25 10C1.25 10.1658 1.31585 10.3247 1.43306 10.4419C1.55027 10.5592 1.70924 10.625 1.875 10.625H4.96172C4.53626 11.4825 4.33669 12.4345 4.38191 13.3907C4.42713 14.3469 4.71564 15.2758 5.22013 16.0894C5.72462 16.9029 6.4284 17.5743 7.26484 18.0399C8.10128 18.5055 9.04271 18.7499 10 18.75C10.1658 18.75 10.3247 18.6842 10.4419 18.5669C10.5592 18.4497 10.625 18.2908 10.625 18.125V15.0383C11.4825 15.4637 12.4345 15.6633 13.3907 15.6181C14.3469 15.5729 15.2758 15.2844 16.0894 14.7799C16.9029 14.2754 17.5743 13.5716 18.0399 12.7352C18.5055 11.8987 18.7499 10.9573 18.75 10C18.75 9.83424 18.6842 9.67527 18.5669 9.55806C18.4497 9.44085 18.2908 9.375 18.125 9.375ZM6.875 5.625C7.76909 5.6205 8.64256 5.89346 9.375 6.40625V9.375H2.54453C2.69622 8.3343 3.21713 7.38287 4.01216 6.69441C4.80719 6.00595 5.82331 5.62638 6.875 5.625ZM13.125 14.375C12.2309 14.3795 11.3574 14.1065 10.625 13.5938V10.625H17.4555C17.3038 11.6657 16.7829 12.6171 15.9878 13.3056C15.1928 13.9941 14.1767 14.3736 13.125 14.375Z" fill="#191F2E"/>
</svg>
