<svg width="20" height="20" viewBox="0 0 20 20" fill="none" xmlns="http://www.w3.org/2000/svg">
<path d="M10.9375 1.25V3.75C10.9375 3.99864 10.8387 4.2371 10.6629 4.41291C10.4871 4.58873 10.2486 4.6875 10 4.6875C9.75136 4.6875 9.5129 4.58873 9.33709 4.41291C9.16127 4.2371 9.0625 3.99864 9.0625 3.75V1.25C9.0625 1.00136 9.16127 0.762903 9.33709 0.587087C9.5129 0.411272 9.75136 0.3125 10 0.3125C10.2486 0.3125 10.4871 0.411272 10.6629 0.587087C10.8387 0.762903 10.9375 1.00136 10.9375 1.25ZM13.75 4.0625C13.5014 4.0625 13.2629 4.16127 13.0871 4.33709C12.9113 4.5129 12.8125 4.75136 12.8125 5V7.5C12.8125 7.74864 12.9113 7.9871 13.0871 8.16291C13.2629 8.33873 13.5014 8.4375 13.75 8.4375C13.9986 8.4375 14.2371 8.33873 14.4129 8.16291C14.5887 7.9871 14.6875 7.74864 14.6875 7.5V5C14.6875 4.75136 14.5887 4.5129 14.4129 4.33709C14.2371 4.16127 13.9986 4.0625 13.75 4.0625ZM10 15.3125C9.75136 15.3125 9.5129 15.4113 9.33709 15.5871C9.16127 15.7629 9.0625 16.0014 9.0625 16.25V18.75C9.0625 18.9986 9.16127 19.2371 9.33709 19.4129C9.5129 19.5887 9.75136 19.6875 10 19.6875C10.2486 19.6875 10.4871 19.5887 10.6629 19.4129C10.8387 19.2371 10.9375 18.9986 10.9375 18.75V16.25C10.9375 16.0014 10.8387 15.7629 10.6629 15.5871C10.4871 15.4113 10.2486 15.3125 10 15.3125ZM10 5.9375C9.75136 5.9375 9.5129 6.03627 9.33709 6.21209C9.16127 6.3879 9.0625 6.62636 9.0625 6.875V13.125C9.0625 13.3736 9.16127 13.6121 9.33709 13.7879C9.5129 13.9637 9.75136 14.0625 10 14.0625C10.2486 14.0625 10.4871 13.9637 10.6629 13.7879C10.8387 13.6121 10.9375 13.3736 10.9375 13.125V6.875C10.9375 6.62636 10.8387 6.3879 10.6629 6.21209C10.4871 6.03627 10.2486 5.9375 10 5.9375ZM6.25 4.0625C6.00136 4.0625 5.7629 4.16127 5.58709 4.33709C5.41127 4.5129 5.3125 4.75136 5.3125 5V9.375C5.3125 9.62364 5.41127 9.8621 5.58709 10.0379C5.7629 10.2137 6.00136 10.3125 6.25 10.3125C6.49864 10.3125 6.7371 10.2137 6.91291 10.0379C7.08873 9.8621 7.1875 9.62364 7.1875 9.375V5C7.1875 4.75136 7.08873 4.5129 6.91291 4.33709C6.7371 4.16127 6.49864 4.0625 6.25 4.0625ZM13.75 9.6875C13.5014 9.6875 13.2629 9.78627 13.0871 9.96209C12.9113 10.1379 12.8125 10.3764 12.8125 10.625V15C12.8125 15.2486 12.9113 15.4871 13.0871 15.6629C13.2629 15.8387 13.5014 15.9375 13.75 15.9375C13.9986 15.9375 14.2371 15.8387 14.4129 15.6629C14.5887 15.4871 14.6875 15.2486 14.6875 15V10.625C14.6875 10.3764 14.5887 10.1379 14.4129 9.96209C14.2371 9.78627 13.9986 9.6875 13.75 9.6875ZM2.5 7.8125C2.25136 7.8125 2.0129 7.91127 1.83709 8.08709C1.66127 8.2629 1.5625 8.50136 1.5625 8.75V11.25C1.5625 11.4986 1.66127 11.7371 1.83709 11.9129C2.0129 12.0887 2.25136 12.1875 2.5 12.1875C2.74864 12.1875 2.9871 12.0887 3.16291 11.9129C3.33873 11.7371 3.4375 11.4986 3.4375 11.25V8.75C3.4375 8.50136 3.33873 8.2629 3.16291 8.08709C2.9871 7.91127 2.74864 7.8125 2.5 7.8125ZM6.25 11.5625C6.00136 11.5625 5.7629 11.6613 5.58709 11.8371C5.41127 12.0129 5.3125 12.2514 5.3125 12.5V15C5.3125 15.2486 5.41127 15.4871 5.58709 15.6629C5.7629 15.8387 6.00136 15.9375 6.25 15.9375C6.49864 15.9375 6.7371 15.8387 6.91291 15.6629C7.08873 15.4871 7.1875 15.2486 7.1875 15V12.5C7.1875 12.2514 7.08873 12.0129 6.91291 11.8371C6.7371 11.6613 6.49864 11.5625 6.25 11.5625ZM17.5 7.8125C17.2514 7.8125 17.0129 7.91127 16.8371 8.08709C16.6613 8.2629 16.5625 8.50136 16.5625 8.75V11.25C16.5625 11.4986 16.6613 11.7371 16.8371 11.9129C17.0129 12.0887 17.2514 12.1875 17.5 12.1875C17.7486 12.1875 17.9871 12.0887 18.1629 11.9129C18.3387 11.7371 18.4375 11.4986 18.4375 11.25V8.75C18.4375 8.50136 18.3387 8.2629 18.1629 8.08709C17.9871 7.91127 17.7486 7.8125 17.5 7.8125Z" fill="#191F2E"/>
</svg>
