<svg width="20" height="20" viewBox="0 0 20 20" fill="none" xmlns="http://www.w3.org/2000/svg">
<path d="M17.6399 8.64847L4.53127 1.14456C4.2916 1.00822 4.02044 0.936929 3.74471 0.937751C3.46897 0.938573 3.19825 1.01148 2.95939 1.14925C2.72376 1.284 2.52814 1.4789 2.39252 1.71403C2.25691 1.94916 2.18616 2.21609 2.18752 2.48753V17.5125C2.1864 17.7842 2.25749 18.0513 2.39353 18.2864C2.52958 18.5216 2.72567 18.7164 2.96174 18.8508C3.20054 18.9887 3.47129 19.0617 3.74705 19.0625C4.02282 19.0634 4.29399 18.992 4.53361 18.8555L17.6399 11.3555C17.8815 11.2221 18.083 11.0264 18.2233 10.7887C18.3636 10.551 18.4377 10.28 18.4377 10.0039C18.4377 9.7279 18.3636 9.45692 18.2233 9.2192C18.083 8.98149 17.8815 8.78575 17.6399 8.65237V8.64847ZM4.06252 15.8594V4.14065L9.92189 10L4.06252 15.8594ZM11.25 11.3282L12.2188 12.2969L7.68752 14.8907L11.25 11.3282ZM7.6883 5.11175L12.2196 7.7055L11.25 8.6719L7.6883 5.11175ZM13.9063 11.3282L12.5781 10L13.9063 8.6719L16.2281 10L13.9063 11.3282Z" fill="#191F2E"/>
</svg>
