<svg width="20" height="20" viewBox="0 0 20 20" fill="none" xmlns="http://www.w3.org/2000/svg">
<path d="M17.486 8.92107L4.37503 1.41872C4.18389 1.30726 3.9666 1.24854 3.74534 1.24854C3.52408 1.24854 3.30679 1.30726 3.11565 1.41872C2.92734 1.5267 2.7711 1.68278 2.66293 1.87098C2.55476 2.05918 2.49854 2.27275 2.50003 2.48982V17.5101C2.49941 17.727 2.55636 17.9401 2.66507 18.1277C2.77378 18.3154 2.93035 18.4708 3.11878 18.5781C3.30991 18.6896 3.52721 18.7483 3.74847 18.7483C3.96973 18.7483 4.18702 18.6896 4.37815 18.5781L17.486 11.0781C17.6794 10.972 17.8407 10.8159 17.9531 10.6261C18.0655 10.4363 18.1248 10.2198 18.1248 9.99919C18.1248 9.7786 18.0655 9.56207 17.9531 9.37226C17.8407 9.18245 17.6794 9.02635 17.486 8.92029V8.92107ZM3.75003 16.6148V3.38513L10.3664 9.99997L3.75003 16.6148ZM11.25 10.8836L12.7282 12.3617L5.81409 16.3195L11.25 10.8836ZM5.81253 3.67966L12.7289 7.63825L11.25 9.11638L5.81253 3.67966ZM13.8524 11.7187L12.1336 9.99997L13.8524 8.28122L16.8547 9.99997L13.8524 11.7187Z" fill="#191F2E"/>
</svg>
