<svg width="20" height="20" viewBox="0 0 20 20" fill="none" xmlns="http://www.w3.org/2000/svg">
<path d="M18.5625 11.8578L13.2133 3.08751C13.1014 2.90724 12.9452 2.75861 12.7596 2.65578C12.5741 2.55294 12.3653 2.49931 12.1531 2.50001H7.84607C7.63401 2.4993 7.4253 2.55292 7.23985 2.65577C7.0544 2.75861 6.89839 2.90725 6.78669 3.08751L6.78278 3.09298L1.4406 11.8516C1.32077 12.0431 1.2551 12.2635 1.25056 12.4894C1.24602 12.7153 1.30278 12.9382 1.41482 13.1344L3.54919 16.8703C3.65853 17.0616 3.81648 17.2206 4.00705 17.3312C4.19761 17.4417 4.41402 17.5 4.63435 17.5H15.3648C15.5851 17.5 15.8016 17.4417 15.9921 17.3312C16.1827 17.2206 16.3406 17.0616 16.45 16.8703L18.5843 13.1344C18.6965 12.9395 18.7537 12.7179 18.7498 12.4931C18.746 12.2683 18.6812 12.0487 18.5625 11.8578ZM17.1093 11.875H13.4781L10.7289 7.29141L12.5062 4.32891L17.1093 11.875ZM7.22888 13.125H12.7711L14.6461 16.25H5.35388L7.22888 13.125ZM7.97888 11.875L9.99997 8.50626L12.0211 11.875H7.97888ZM7.49294 4.32891L9.27107 7.29141L6.52107 11.875H2.8906L7.49294 4.32891Z" fill="#191F2E"/>
</svg>
