<svg width="20" height="20" viewBox="0 0 20 20" fill="none" xmlns="http://www.w3.org/2000/svg">
<path d="M18.5625 11.8578L13.2133 3.08751C13.1014 2.90724 12.9453 2.75861 12.7597 2.65578C12.5741 2.55294 12.3653 2.49931 12.1532 2.50001H7.84613C7.63407 2.4993 7.42537 2.55292 7.23992 2.65577C7.05447 2.75861 6.89845 2.90725 6.78675 3.08751L6.78285 3.09298L1.44066 11.8516C1.32083 12.0431 1.25516 12.2635 1.25062 12.4894C1.24608 12.7153 1.30284 12.9382 1.41488 13.1344L3.54925 16.8703C3.65859 17.0616 3.81654 17.2206 4.00711 17.3312C4.19767 17.4417 4.41408 17.5 4.63441 17.5H15.3649C15.5852 17.5 15.8016 17.4417 15.9922 17.3312C16.1827 17.2206 16.3407 17.0616 16.45 16.8703L18.5844 13.1344C18.6966 12.9395 18.7538 12.7179 18.7499 12.4931C18.746 12.2683 18.6813 12.0487 18.5625 11.8578ZM17.1094 11.875H13.4782L10.7289 7.29141L12.5063 4.32891L17.1094 11.875ZM7.97894 11.875L10 8.50626L12.0211 11.875H7.97894ZM12.7711 13.125L14.6461 16.25H5.35394L7.22894 13.125H12.7711ZM10 6.07657L8.60316 3.75001L11.3985 3.7461L10 6.07657ZM7.493 4.32891L9.27113 7.29141L6.52113 11.875H2.89066L7.493 4.32891ZM2.85472 13.125H5.77113L4.27503 15.6188L2.85472 13.125ZM15.725 15.6195L14.2282 13.125H17.1508L15.725 15.6195Z" fill="#191F2E"/>
</svg>
