<svg width="20" height="20" viewBox="0 0 20 20" fill="none" xmlns="http://www.w3.org/2000/svg">
<path d="M10 1.875C8.39303 1.875 6.82214 2.35152 5.486 3.24431C4.14985 4.1371 3.10844 5.40605 2.49348 6.8907C1.87852 8.37535 1.71762 10.009 2.03112 11.5851C2.34463 13.1612 3.11846 14.6089 4.25476 15.7452C5.39106 16.8815 6.8388 17.6554 8.4149 17.9689C9.99099 18.2824 11.6247 18.1215 13.1093 17.5065C14.594 16.8916 15.8629 15.8502 16.7557 14.514C17.6485 13.1779 18.125 11.607 18.125 10C18.1227 7.84581 17.266 5.78051 15.7427 4.25727C14.2195 2.73403 12.1542 1.87727 10 1.875ZM10 3.125C11.1442 3.12547 12.2702 3.41152 13.2759 3.95721C14.2817 4.50291 15.1353 5.29098 15.7594 6.25H10C9.21061 6.25089 8.44155 6.50045 7.80204 6.96325C7.16254 7.42605 6.68509 8.07856 6.4375 8.82812L4.63438 5.70312C5.27796 4.8983 6.09443 4.24866 7.02328 3.80236C7.95212 3.35607 8.9695 3.12456 10 3.125ZM3.125 10C3.12371 8.91746 3.3797 7.85012 3.87188 6.88594L6.75235 11.875C6.75703 11.8828 6.7625 11.8898 6.76719 11.8969C7.16419 12.5742 7.76378 13.1099 8.48143 13.4284C9.19907 13.7468 9.99856 13.832 10.7672 13.6719L8.9625 16.7969C7.3386 16.5467 5.85767 15.7241 4.78715 14.4777C3.71664 13.2312 3.1271 11.6431 3.125 10ZM10.3664 16.8648L13.2477 11.875C13.2539 11.8641 13.2586 11.8531 13.2648 11.8422C13.6514 11.1605 13.8141 10.3747 13.73 9.59558C13.6459 8.81648 13.3192 8.08346 12.7961 7.5H16.4063C16.8017 8.51322 16.9511 9.6058 16.8422 10.688C16.7333 11.7702 16.3692 12.8111 15.7798 13.7252C15.1904 14.6393 14.3925 15.4005 13.4517 15.9463C12.5109 16.4921 11.4541 16.8069 10.368 16.8648H10.3664Z" fill="#191F2E"/>
</svg>
