<svg width="20" height="20" viewBox="0 0 20 20" fill="none" xmlns="http://www.w3.org/2000/svg">
<path d="M18.125 9.0625H15.5188C15.8756 8.16203 16.0067 7.18792 15.9007 6.22514C15.7947 5.26235 15.4548 4.34012 14.9105 3.53887C14.3663 2.73762 13.6343 2.08168 12.7784 1.62825C11.9225 1.17482 10.9686 0.93768 10 0.9375C9.75136 0.9375 9.5129 1.03627 9.33709 1.21209C9.16127 1.3879 9.0625 1.62636 9.0625 1.875V4.48125C8.16203 4.1244 7.18792 3.99326 6.22514 4.09927C5.26235 4.20529 4.34012 4.54523 3.53887 5.08947C2.73762 5.6337 2.08168 6.3657 1.62825 7.22162C1.17482 8.07754 0.93768 9.03139 0.9375 10C0.9375 10.2486 1.03627 10.4871 1.21209 10.6629C1.3879 10.8387 1.62636 10.9375 1.875 10.9375H4.48125C4.1244 11.838 3.99326 12.8121 4.09927 13.7749C4.20529 14.7376 4.54523 15.6599 5.08947 16.4611C5.6337 17.2624 6.3657 17.9183 7.22162 18.3717C8.07754 18.8252 9.03139 19.0623 10 19.0625C10.2486 19.0625 10.4871 18.9637 10.6629 18.7879C10.8387 18.6121 10.9375 18.3736 10.9375 18.125V15.5188C11.838 15.8756 12.8121 16.0067 13.7749 15.9007C14.7376 15.7947 15.6599 15.4548 16.4611 14.9105C17.2624 14.3663 17.9183 13.6343 18.3717 12.7784C18.8252 11.9225 19.0623 10.9686 19.0625 10C19.0625 9.75136 18.9637 9.5129 18.7879 9.33709C18.6121 9.16127 18.3736 9.0625 18.125 9.0625ZM14.0625 6.875C14.0653 7.65059 13.8433 8.41039 13.4234 9.0625H10.9375V2.92188C11.8267 3.13405 12.6186 3.63943 13.1855 4.35657C13.7524 5.07371 14.0613 5.96084 14.0625 6.875ZM6.875 5.9375C7.65059 5.93471 8.41039 6.15668 9.0625 6.57656V9.0625H2.92188C3.13405 8.17331 3.63943 7.38145 4.35657 6.81454C5.07371 6.24763 5.96084 5.93869 6.875 5.9375ZM5.9375 13.125C5.93471 12.3494 6.15668 11.5896 6.57656 10.9375H9.0625V17.0781C8.17331 16.866 7.38145 16.3606 6.81454 15.6434C6.24763 14.9263 5.93869 14.0392 5.9375 13.125ZM13.125 14.0625C12.3494 14.0653 11.5896 13.8433 10.9375 13.4234V10.9375H17.0781C16.866 11.8267 16.3606 12.6186 15.6434 13.1855C14.9263 13.7524 14.0392 14.0613 13.125 14.0625Z" fill="#191F2E"/>
</svg>
