<svg width="20" height="20" viewBox="0 0 20 20" fill="none" xmlns="http://www.w3.org/2000/svg">
<path d="M17.5 3.4375H2.5C2.0856 3.4375 1.68817 3.60212 1.39515 3.89515C1.10212 4.18817 0.9375 4.5856 0.9375 5V15C0.9375 15.4144 1.10212 15.8118 1.39515 16.1049C1.68817 16.3979 2.0856 16.5625 2.5 16.5625H7.24141C7.44667 16.5631 7.65 16.5229 7.83963 16.4443C8.02925 16.3657 8.2014 16.2503 8.34609 16.1047L10 14.4531L11.6539 16.107C11.7988 16.2522 11.971 16.3672 12.1606 16.4454C12.3503 16.5236 12.5535 16.5634 12.7586 16.5625H17.5C17.9144 16.5625 18.3118 16.3979 18.6049 16.1049C18.8979 15.8118 19.0625 15.4144 19.0625 15V5C19.0625 4.5856 18.8979 4.18817 18.6049 3.89515C18.3118 3.60212 17.9144 3.4375 17.5 3.4375ZM17.1875 14.6875H12.8906L11.107 12.9039C10.814 12.611 10.4167 12.4464 10.0023 12.4464C9.58803 12.4464 9.19067 12.611 8.89766 12.9039L7.10938 14.6875H2.8125V5.3125H17.1875V14.6875ZM6.40625 12.5C6.93161 12.5 7.44517 12.3442 7.88198 12.0523C8.3188 11.7605 8.65926 11.3456 8.8603 10.8603C9.06135 10.3749 9.11395 9.8408 9.01146 9.32554C8.90897 8.81028 8.65599 8.33698 8.2845 7.9655C7.91302 7.59401 7.43972 7.34103 6.92446 7.23854C6.4092 7.13605 5.87511 7.18865 5.38975 7.3897C4.90438 7.59074 4.48953 7.9312 4.19766 8.36802C3.90579 8.80483 3.75 9.31839 3.75 9.84375C3.75 10.5482 4.02985 11.2239 4.528 11.722C5.02614 12.2201 5.70177 12.5 6.40625 12.5ZM6.40625 9.0625C6.56077 9.0625 6.71181 9.10832 6.84029 9.19416C6.96877 9.28001 7.0689 9.40202 7.12803 9.54478C7.18716 9.68753 7.20263 9.84462 7.17249 9.99616C7.14234 10.1477 7.06794 10.2869 6.95868 10.3962C6.84942 10.5054 6.71021 10.5798 6.55866 10.61C6.40712 10.6401 6.25003 10.6247 6.10728 10.5655C5.96452 10.5064 5.84251 10.4063 5.75666 10.2778C5.67082 10.1493 5.625 9.99827 5.625 9.84375C5.625 9.63655 5.70731 9.43784 5.85382 9.29132C6.00034 9.14481 6.19905 9.0625 6.40625 9.0625ZM13.5938 12.5C14.1191 12.5 14.6327 12.3442 15.0695 12.0523C15.5063 11.7605 15.8468 11.3456 16.0478 10.8603C16.2489 10.3749 16.3015 9.8408 16.199 9.32554C16.0965 8.81028 15.8435 8.33698 15.472 7.9655C15.1005 7.59401 14.6272 7.34103 14.112 7.23854C13.5967 7.13605 13.0626 7.18865 12.5772 7.3897C12.0919 7.59074 11.677 7.9312 11.3852 8.36802C11.0933 8.80483 10.9375 9.31839 10.9375 9.84375C10.9375 10.5482 11.2174 11.2239 11.7155 11.722C12.2136 12.2201 12.8893 12.5 13.5938 12.5ZM13.5938 9.0625C13.7483 9.0625 13.8993 9.10832 14.0278 9.19416C14.1563 9.28001 14.2564 9.40202 14.3155 9.54478C14.3747 9.68753 14.3901 9.84462 14.36 9.99616C14.3298 10.1477 14.2554 10.2869 14.1462 10.3962C14.0369 10.5054 13.8977 10.5798 13.7462 10.61C13.5946 10.6401 13.4375 10.6247 13.2948 10.5655C13.152 10.5064 13.03 10.4063 12.9442 10.2778C12.8583 10.1493 12.8125 9.99827 12.8125 9.84375C12.8125 9.63655 12.8948 9.43784 13.0413 9.29132C13.1878 9.14481 13.3865 9.0625 13.5938 9.0625Z" fill="#191F2E"/>
</svg>
