<svg width="20" height="20" viewBox="0 0 20 20" fill="none" xmlns="http://www.w3.org/2000/svg">
<path d="M19.6688 6.94833L10.2938 1.94833C10.2034 1.90018 10.1025 1.875 10 1.875C9.8976 1.875 9.79673 1.90018 9.7063 1.94833L0.331299 6.94833C0.231302 7.00163 0.147674 7.0811 0.0893613 7.17825C0.0310483 7.27541 0.000244141 7.38659 0.000244141 7.4999C0.000244141 7.61321 0.0310483 7.72439 0.0893613 7.82154C0.147674 7.91869 0.231302 7.99817 0.331299 8.05146L2.50005 9.20849V12.9913C2.4994 13.2983 2.61238 13.5947 2.81724 13.8233C3.84067 14.9632 6.13364 16.8749 10 16.8749C11.282 16.8855 12.5544 16.6533 13.75 16.1905V18.7499C13.75 18.9157 13.8159 19.0746 13.9331 19.1918C14.0503 19.309 14.2093 19.3749 14.375 19.3749C14.5408 19.3749 14.6998 19.309 14.817 19.1918C14.9342 19.0746 15 18.9157 15 18.7499V15.5866C15.8151 15.1161 16.5515 14.5212 17.1829 13.8233C17.3877 13.5947 17.5007 13.2983 17.5 12.9913V9.20849L19.6688 8.05146C19.7688 7.99817 19.8524 7.91869 19.9107 7.82154C19.969 7.72439 19.9999 7.61321 19.9999 7.4999C19.9999 7.38659 19.969 7.27541 19.9107 7.17825C19.8524 7.0811 19.7688 7.00163 19.6688 6.94833ZM10 15.6249C6.61958 15.6249 4.6313 13.9733 3.75005 12.9913V9.8749L9.7063 13.0515C9.79673 13.0996 9.8976 13.1248 10 13.1248C10.1025 13.1248 10.2034 13.0996 10.2938 13.0515L13.75 11.2085V14.8288C12.7657 15.2882 11.525 15.6249 10 15.6249ZM16.25 12.9882C15.8754 13.4039 15.4562 13.7772 15 14.1015V10.5413L16.25 9.8749V12.9882ZM14.6875 9.29208L14.6704 9.28193L10.2954 6.94833C10.1494 6.87378 9.97998 6.85954 9.82362 6.9087C9.66726 6.95786 9.53647 7.06647 9.45942 7.21114C9.38238 7.35581 9.36524 7.52495 9.41171 7.68213C9.45818 7.83931 9.56454 7.97194 9.70786 8.05146L13.3594 9.9999L10 11.7913L1.95317 7.4999L10 3.20849L18.0469 7.4999L14.6875 9.29208Z" fill="#191F2E"/>
</svg>
