<svg width="20" height="20" viewBox="0 0 20 20" fill="none" xmlns="http://www.w3.org/2000/svg">
<path d="M1.875 8.125C1.875 7.95924 1.94085 7.80027 2.05806 7.68306C2.17527 7.56585 2.33424 7.5 2.5 7.5H8.75C8.91576 7.5 9.07473 7.56585 9.19194 7.68306C9.30915 7.80027 9.375 7.95924 9.375 8.125C9.375 8.29076 9.30915 8.44973 9.19194 8.56694C9.07473 8.68415 8.91576 8.75 8.75 8.75H2.5C2.33424 8.75 2.17527 8.68415 2.05806 8.56694C1.94085 8.44973 1.875 8.29076 1.875 8.125ZM17.5 7.5H11.25C11.0842 7.5 10.9253 7.56585 10.8081 7.68306C10.6908 7.80027 10.625 7.95924 10.625 8.125C10.625 8.29076 10.6908 8.44973 10.8081 8.56694C10.9253 8.68415 11.0842 8.75 11.25 8.75H17.5C17.6658 8.75 17.8247 8.68415 17.9419 8.56694C18.0592 8.44973 18.125 8.29076 18.125 8.125C18.125 7.95924 18.0592 7.80027 17.9419 7.68306C17.8247 7.56585 17.6658 7.5 17.5 7.5ZM5.625 10.625H2.5C2.33424 10.625 2.17527 10.6908 2.05806 10.8081C1.94085 10.9253 1.875 11.0842 1.875 11.25C1.875 11.4158 1.94085 11.5747 2.05806 11.6919C2.17527 11.8092 2.33424 11.875 2.5 11.875H5.625C5.79076 11.875 5.94973 11.8092 6.06694 11.6919C6.18415 11.5747 6.25 11.4158 6.25 11.25C6.25 11.0842 6.18415 10.9253 6.06694 10.8081C5.94973 10.6908 5.79076 10.625 5.625 10.625ZM17.5 10.625H14.375C14.2092 10.625 14.0503 10.6908 13.9331 10.8081C13.8158 10.9253 13.75 11.0842 13.75 11.25C13.75 11.4158 13.8158 11.5747 13.9331 11.6919C14.0503 11.8092 14.2092 11.875 14.375 11.875H17.5C17.6658 11.875 17.8247 11.8092 17.9419 11.6919C18.0592 11.5747 18.125 11.4158 18.125 11.25C18.125 11.0842 18.0592 10.9253 17.9419 10.8081C17.8247 10.6908 17.6658 10.625 17.5 10.625ZM7.5 11.25C7.5 11.4158 7.56585 11.5747 7.68306 11.6919C7.80027 11.8092 7.95924 11.875 8.125 11.875H11.875C12.0408 11.875 12.1997 11.8092 12.3169 11.6919C12.4342 11.5747 12.5 11.4158 12.5 11.25C12.5 11.0842 12.4342 10.9253 12.3169 10.8081C12.1997 10.6908 12.0408 10.625 11.875 10.625H8.125C7.95924 10.625 7.80027 10.6908 7.68306 10.8081C7.56585 10.9253 7.5 11.0842 7.5 11.25ZM4.375 13.75H2.5C2.33424 13.75 2.17527 13.8158 2.05806 13.9331C1.94085 14.0503 1.875 14.2092 1.875 14.375C1.875 14.5408 1.94085 14.6997 2.05806 14.8169C2.17527 14.9342 2.33424 15 2.5 15H4.375C4.54076 15 4.69973 14.9342 4.81694 14.8169C4.93415 14.6997 5 14.5408 5 14.375C5 14.2092 4.93415 14.0503 4.81694 13.9331C4.69973 13.8158 4.54076 13.75 4.375 13.75ZM8.75 13.75H6.875C6.70924 13.75 6.55027 13.8158 6.43306 13.9331C6.31585 14.0503 6.25 14.2092 6.25 14.375C6.25 14.5408 6.31585 14.6997 6.43306 14.8169C6.55027 14.9342 6.70924 15 6.875 15H8.75C8.91576 15 9.07473 14.9342 9.19194 14.8169C9.30915 14.6997 9.375 14.5408 9.375 14.375C9.375 14.2092 9.30915 14.0503 9.19194 13.9331C9.07473 13.8158 8.91576 13.75 8.75 13.75ZM13.125 13.75H11.25C11.0842 13.75 10.9253 13.8158 10.8081 13.9331C10.6908 14.0503 10.625 14.2092 10.625 14.375C10.625 14.5408 10.6908 14.6997 10.8081 14.8169C10.9253 14.9342 11.0842 15 11.25 15H13.125C13.2908 15 13.4497 14.9342 13.5669 14.8169C13.6842 14.6997 13.75 14.5408 13.75 14.375C13.75 14.2092 13.6842 14.0503 13.5669 13.9331C13.4497 13.8158 13.2908 13.75 13.125 13.75ZM17.5 13.75H15.625C15.4592 13.75 15.3003 13.8158 15.1831 13.9331C15.0658 14.0503 15 14.2092 15 14.375C15 14.5408 15.0658 14.6997 15.1831 14.8169C15.3003 14.9342 15.4592 15 15.625 15H17.5C17.6658 15 17.8247 14.9342 17.9419 14.8169C18.0592 14.6997 18.125 14.5408 18.125 14.375C18.125 14.2092 18.0592 14.0503 17.9419 13.9331C17.8247 13.8158 17.6658 13.75 17.5 13.75ZM2.5 5.625H17.5C17.6658 5.625 17.8247 5.55915 17.9419 5.44194C18.0592 5.32473 18.125 5.16576 18.125 5C18.125 4.83424 18.0592 4.67527 17.9419 4.55806C17.8247 4.44085 17.6658 4.375 17.5 4.375H2.5C2.33424 4.375 2.17527 4.44085 2.05806 4.55806C1.94085 4.67527 1.875 4.83424 1.875 5C1.875 5.16576 1.94085 5.32473 2.05806 5.44194C2.17527 5.55915 2.33424 5.625 2.5 5.625Z" fill="#191F2E"/>
</svg>
