<svg width="20" height="20" viewBox="0 0 20 20" fill="none" xmlns="http://www.w3.org/2000/svg">
<path d="M6.25 15C6.25 15.1658 6.18415 15.3247 6.06694 15.4419C5.94973 15.5592 5.79076 15.625 5.625 15.625H2.5C2.33424 15.625 2.17527 15.5592 2.05806 15.4419C1.94085 15.3247 1.875 15.1658 1.875 15C1.875 14.8342 1.94085 14.6753 2.05806 14.5581C2.17527 14.4408 2.33424 14.375 2.5 14.375H5.625C5.79076 14.375 5.94973 14.4408 6.06694 14.5581C6.18415 14.6753 6.25 14.8342 6.25 15ZM17.5 14.375H14.375C14.2092 14.375 14.0503 14.4408 13.9331 14.5581C13.8158 14.6753 13.75 14.8342 13.75 15C13.75 15.1658 13.8158 15.3247 13.9331 15.4419C14.0503 15.5592 14.2092 15.625 14.375 15.625H17.5C17.6658 15.625 17.8247 15.5592 17.9419 15.4419C18.0592 15.3247 18.125 15.1658 18.125 15C18.125 14.8342 18.0592 14.6753 17.9419 14.5581C17.8247 14.4408 17.6658 14.375 17.5 14.375ZM11.875 14.375H8.125C7.95924 14.375 7.80027 14.4408 7.68306 14.5581C7.56585 14.6753 7.5 14.8342 7.5 15C7.5 15.1658 7.56585 15.3247 7.68306 15.4419C7.80027 15.5592 7.95924 15.625 8.125 15.625H11.875C12.0408 15.625 12.1997 15.5592 12.3169 15.4419C12.4342 15.3247 12.5 15.1658 12.5 15C12.5 14.8342 12.4342 14.6753 12.3169 14.5581C12.1997 14.4408 12.0408 14.375 11.875 14.375ZM2.5 13.125H8.75C8.91576 13.125 9.07473 13.0592 9.19194 12.9419C9.30915 12.8247 9.375 12.6658 9.375 12.5C9.375 12.3342 9.30915 12.1753 9.19194 12.0581C9.07473 11.9408 8.91576 11.875 8.75 11.875H2.5C2.33424 11.875 2.17527 11.9408 2.05806 12.0581C1.94085 12.1753 1.875 12.3342 1.875 12.5C1.875 12.6658 1.94085 12.8247 2.05806 12.9419C2.17527 13.0592 2.33424 13.125 2.5 13.125ZM17.5 11.875H11.25C11.0842 11.875 10.9253 11.9408 10.8081 12.0581C10.6908 12.1753 10.625 12.3342 10.625 12.5C10.625 12.6658 10.6908 12.8247 10.8081 12.9419C10.9253 13.0592 11.0842 13.125 11.25 13.125H17.5C17.6658 13.125 17.8247 13.0592 17.9419 12.9419C18.0592 12.8247 18.125 12.6658 18.125 12.5C18.125 12.3342 18.0592 12.1753 17.9419 12.0581C17.8247 11.9408 17.6658 11.875 17.5 11.875ZM17.5 4.375H2.5C2.33424 4.375 2.17527 4.44085 2.05806 4.55806C1.94085 4.67527 1.875 4.83424 1.875 5V6.875C1.875 7.04076 1.94085 7.19973 2.05806 7.31694C2.17527 7.43415 2.33424 7.5 2.5 7.5H17.5C17.6658 7.5 17.8247 7.43415 17.9419 7.31694C18.0592 7.19973 18.125 7.04076 18.125 6.875V5C18.125 4.83424 18.0592 4.67527 17.9419 4.55806C17.8247 4.44085 17.6658 4.375 17.5 4.375ZM17.5 8.75H2.5C2.33424 8.75 2.17527 8.81585 2.05806 8.93306C1.94085 9.05027 1.875 9.20924 1.875 9.375V10C1.875 10.1658 1.94085 10.3247 2.05806 10.4419C2.17527 10.5592 2.33424 10.625 2.5 10.625H17.5C17.6658 10.625 17.8247 10.5592 17.9419 10.4419C18.0592 10.3247 18.125 10.1658 18.125 10V9.375C18.125 9.20924 18.0592 9.05027 17.9419 8.93306C17.8247 8.81585 17.6658 8.75 17.5 8.75Z" fill="#191F2E"/>
</svg>
