<svg width="20" height="20" viewBox="0 0 20 20" fill="none" xmlns="http://www.w3.org/2000/svg">
<path d="M1.5625 8.4375C1.5625 8.18886 1.66127 7.9504 1.83709 7.77459C2.0129 7.59877 2.25136 7.5 2.5 7.5H8.4375C8.68614 7.5 8.9246 7.59877 9.10041 7.77459C9.27623 7.9504 9.375 8.18886 9.375 8.4375C9.375 8.68614 9.27623 8.9246 9.10041 9.10041C8.9246 9.27623 8.68614 9.375 8.4375 9.375H2.5C2.25136 9.375 2.0129 9.27623 1.83709 9.10041C1.66127 8.9246 1.5625 8.68614 1.5625 8.4375ZM17.5 7.5H11.5625C11.3139 7.5 11.0754 7.59877 10.8996 7.77459C10.7238 7.9504 10.625 8.18886 10.625 8.4375C10.625 8.68614 10.7238 8.9246 10.8996 9.10041C11.0754 9.27623 11.3139 9.375 11.5625 9.375H17.5C17.7486 9.375 17.9871 9.27623 18.1629 9.10041C18.3387 8.9246 18.4375 8.68614 18.4375 8.4375C18.4375 8.18886 18.3387 7.9504 18.1629 7.77459C17.9871 7.59877 17.7486 7.5 17.5 7.5ZM5.3125 10.625H2.5C2.25136 10.625 2.0129 10.7238 1.83709 10.8996C1.66127 11.0754 1.5625 11.3139 1.5625 11.5625C1.5625 11.8111 1.66127 12.0496 1.83709 12.2254C2.0129 12.4012 2.25136 12.5 2.5 12.5H5.3125C5.56114 12.5 5.7996 12.4012 5.97541 12.2254C6.15123 12.0496 6.25 11.8111 6.25 11.5625C6.25 11.3139 6.15123 11.0754 5.97541 10.8996C5.7996 10.7238 5.56114 10.625 5.3125 10.625ZM17.5 10.625H14.6875C14.4389 10.625 14.2004 10.7238 14.0246 10.8996C13.8488 11.0754 13.75 11.3139 13.75 11.5625C13.75 11.8111 13.8488 12.0496 14.0246 12.2254C14.2004 12.4012 14.4389 12.5 14.6875 12.5H17.5C17.7486 12.5 17.9871 12.4012 18.1629 12.2254C18.3387 12.0496 18.4375 11.8111 18.4375 11.5625C18.4375 11.3139 18.3387 11.0754 18.1629 10.8996C17.9871 10.7238 17.7486 10.625 17.5 10.625ZM7.5 11.5625C7.5 11.8111 7.59877 12.0496 7.77459 12.2254C7.9504 12.4012 8.18886 12.5 8.4375 12.5H11.5625C11.8111 12.5 12.0496 12.4012 12.2254 12.2254C12.4012 12.0496 12.5 11.8111 12.5 11.5625C12.5 11.3139 12.4012 11.0754 12.2254 10.8996C12.0496 10.7238 11.8111 10.625 11.5625 10.625H8.4375C8.18886 10.625 7.9504 10.7238 7.77459 10.8996C7.59877 11.0754 7.5 11.3139 7.5 11.5625ZM4.0625 13.75H2.5C2.25136 13.75 2.0129 13.8488 1.83709 14.0246C1.66127 14.2004 1.5625 14.4389 1.5625 14.6875C1.5625 14.9361 1.66127 15.1746 1.83709 15.3504C2.0129 15.5262 2.25136 15.625 2.5 15.625H4.0625C4.31114 15.625 4.5496 15.5262 4.72541 15.3504C4.90123 15.1746 5 14.9361 5 14.6875C5 14.4389 4.90123 14.2004 4.72541 14.0246C4.5496 13.8488 4.31114 13.75 4.0625 13.75ZM8.4375 13.75H7.1875C6.93886 13.75 6.7004 13.8488 6.52459 14.0246C6.34877 14.2004 6.25 14.4389 6.25 14.6875C6.25 14.9361 6.34877 15.1746 6.52459 15.3504C6.7004 15.5262 6.93886 15.625 7.1875 15.625H8.4375C8.68614 15.625 8.9246 15.5262 9.10041 15.3504C9.27623 15.1746 9.375 14.9361 9.375 14.6875C9.375 14.4389 9.27623 14.2004 9.10041 14.0246C8.9246 13.8488 8.68614 13.75 8.4375 13.75ZM12.8125 13.75H11.5625C11.3139 13.75 11.0754 13.8488 10.8996 14.0246C10.7238 14.2004 10.625 14.4389 10.625 14.6875C10.625 14.9361 10.7238 15.1746 10.8996 15.3504C11.0754 15.5262 11.3139 15.625 11.5625 15.625H12.8125C13.0611 15.625 13.2996 15.5262 13.4754 15.3504C13.6512 15.1746 13.75 14.9361 13.75 14.6875C13.75 14.4389 13.6512 14.2004 13.4754 14.0246C13.2996 13.8488 13.0611 13.75 12.8125 13.75ZM17.5 13.75H15.9375C15.6889 13.75 15.4504 13.8488 15.2746 14.0246C15.0988 14.2004 15 14.4389 15 14.6875C15 14.9361 15.0988 15.1746 15.2746 15.3504C15.4504 15.5262 15.6889 15.625 15.9375 15.625H17.5C17.7486 15.625 17.9871 15.5262 18.1629 15.3504C18.3387 15.1746 18.4375 14.9361 18.4375 14.6875C18.4375 14.4389 18.3387 14.2004 18.1629 14.0246C17.9871 13.8488 17.7486 13.75 17.5 13.75ZM2.5 6.25H17.5C17.7486 6.25 17.9871 6.15123 18.1629 5.97541C18.3387 5.7996 18.4375 5.56114 18.4375 5.3125C18.4375 5.06386 18.3387 4.8254 18.1629 4.64959C17.9871 4.47377 17.7486 4.375 17.5 4.375H2.5C2.25136 4.375 2.0129 4.47377 1.83709 4.64959C1.66127 4.8254 1.5625 5.06386 1.5625 5.3125C1.5625 5.56114 1.66127 5.7996 1.83709 5.97541C2.0129 6.15123 2.25136 6.25 2.5 6.25Z" fill="#191F2E"/>
</svg>
