<svg width="20" height="20" viewBox="0 0 20 20" fill="none" xmlns="http://www.w3.org/2000/svg">
<path d="M13.75 16.1905C14.1812 16.0207 14.599 15.8188 15 15.5866V18.7499C15 18.9157 14.9342 19.0746 14.817 19.1918C14.6998 19.309 14.5408 19.3749 14.375 19.3749C14.2093 19.3749 14.0503 19.309 13.9331 19.1918C13.8159 19.0746 13.75 18.9157 13.75 18.7499V16.1905ZM14.6688 9.28193L10.2938 6.94833C10.1478 6.87378 9.97842 6.85954 9.82206 6.9087C9.6657 6.95786 9.53491 7.06647 9.45786 7.21114C9.38081 7.35581 9.36368 7.52495 9.41015 7.68213C9.45662 7.83931 9.56297 7.97194 9.7063 8.05146L13.3594 9.9999L14.6875 9.29208L14.6688 9.28193ZM19.6688 6.94833L10.2938 1.94833C10.2034 1.90018 10.1025 1.875 10 1.875C9.8976 1.875 9.79673 1.90018 9.7063 1.94833L0.331299 6.94833C0.231302 7.00163 0.147674 7.0811 0.0893613 7.17825C0.0310483 7.27541 0.000244141 7.38659 0.000244141 7.4999C0.000244141 7.61321 0.0310483 7.72439 0.0893613 7.82154C0.147674 7.91869 0.231302 7.99817 0.331299 8.05146L2.50005 9.20849V12.9913C2.4994 13.2983 2.61238 13.5947 2.81724 13.8233C3.84067 14.9632 6.13364 16.8749 10 16.8749C11.282 16.8855 12.5544 16.6533 13.75 16.1905V10.2085L13.3594 9.9999L10 11.7913L3.42427 8.28115L1.95317 7.4999L10 3.20849L18.0469 7.4999L16.5797 8.28115H16.575L14.6875 9.29208C14.7826 9.34695 14.8615 9.42587 14.9163 9.52091C14.9712 9.61595 15.0001 9.72376 15 9.83349V15.5866C15.8151 15.1161 16.5515 14.5212 17.1829 13.8233C17.3877 13.5947 17.5007 13.2983 17.5 12.9913V9.20849L19.6688 8.05146C19.7688 7.99817 19.8524 7.91869 19.9107 7.82154C19.969 7.72439 19.9999 7.61321 19.9999 7.4999C19.9999 7.38659 19.969 7.27541 19.9107 7.17825C19.8524 7.0811 19.7688 7.00163 19.6688 6.94833Z" fill="#191F2E"/>
</svg>
