<svg width="20" height="20" viewBox="0 0 20 20" fill="none" xmlns="http://www.w3.org/2000/svg">
<path d="M4.2125 2.70467C4.15761 2.6428 4.09099 2.59244 4.0165 2.55651C3.94201 2.52057 3.86112 2.49978 3.77854 2.49534C3.69595 2.4909 3.6133 2.50289 3.53538 2.53062C3.45746 2.55836 3.38583 2.60128 3.32462 2.6569C3.26341 2.71253 3.21385 2.77975 3.17882 2.85467C3.14378 2.92959 3.12396 3.01071 3.12051 3.09335C3.11705 3.17598 3.13004 3.25848 3.1587 3.33606C3.18737 3.41364 3.23115 3.48476 3.2875 3.5453L4.04766 4.38201C3.9487 4.37733 3.84948 4.37498 3.75 4.37498C3.58424 4.37498 3.42527 4.44083 3.30806 4.55804C3.19085 4.67525 3.125 4.83422 3.125 4.99998V11.25C3.12707 13.0727 3.85206 14.8202 5.14093 16.1091C6.42979 17.3979 8.17727 18.1229 10 18.125C11.7852 18.1264 13.5006 17.4319 14.782 16.189L15.7875 17.2953C15.8424 17.3572 15.909 17.4075 15.9835 17.4435C16.058 17.4794 16.1389 17.5002 16.2215 17.5046C16.3041 17.5091 16.3867 17.4971 16.4646 17.4693C16.5425 17.4416 16.6142 17.3987 16.6754 17.3431C16.7366 17.2874 16.7861 17.2202 16.8212 17.1453C16.8562 17.0704 16.876 16.9893 16.8795 16.9066C16.8829 16.824 16.87 16.7415 16.8413 16.6639C16.8126 16.5863 16.7689 16.5152 16.7125 16.4547L4.2125 2.70467ZM10.6477 11.6406C10.397 11.9936 10.1801 12.3695 10 12.7633C9.49507 11.6635 8.7093 10.7162 7.72181 10.0168C6.73433 9.31728 5.57998 8.89033 4.375 8.77889V5.65936C4.72424 5.69834 5.069 5.77027 5.40469 5.8742L10.6477 11.6406ZM9.375 16.8406C8.00054 16.6852 6.73131 16.0295 5.80921 14.9985C4.8871 13.9675 4.3766 12.6332 4.375 11.25V10.0344C5.74946 10.1898 7.01869 10.8454 7.94079 11.8765C8.8629 12.9075 9.3734 14.2418 9.375 15.625V16.8406ZM10.625 16.8406V15.625C10.6255 14.5503 10.9335 13.4983 11.5125 12.593L13.9406 15.264C13.0434 16.1464 11.8757 16.7016 10.625 16.8406ZM16.875 11.25C16.8753 11.8676 16.7926 12.4825 16.6289 13.0781C16.5926 13.2101 16.5141 13.3265 16.4053 13.4095C16.2964 13.4924 16.1634 13.5374 16.0266 13.5375C15.9701 13.538 15.9138 13.5306 15.8594 13.5156C15.6997 13.4716 15.564 13.366 15.4821 13.222C15.4002 13.078 15.3788 12.9074 15.4227 12.7476C15.5567 12.2597 15.6247 11.756 15.625 11.25V10.0336C14.956 10.1066 14.3058 10.3006 13.7063 10.6062C13.6328 10.6464 13.5521 10.6713 13.4688 10.6797C13.3856 10.688 13.3015 10.6795 13.2216 10.6548C13.1417 10.63 13.0675 10.5895 13.0036 10.5355C12.9396 10.4816 12.8872 10.4153 12.8493 10.3407C12.8114 10.2661 12.7889 10.1847 12.7831 10.1012C12.7773 10.0177 12.7883 9.93394 12.8154 9.8548C12.8426 9.77567 12.8854 9.7028 12.9413 9.64051C12.9971 9.57821 13.0649 9.52777 13.1406 9.49217C13.9152 9.09676 14.7587 8.85432 15.625 8.77811V5.66014C14.8461 5.74871 14.0941 5.99837 13.4169 6.39326C12.7397 6.78815 12.1521 7.31962 11.6914 7.95389C11.6432 8.02058 11.5824 8.07712 11.5124 8.1203C11.4424 8.16348 11.3645 8.19244 11.2833 8.20553C11.2021 8.21863 11.1191 8.2156 11.0391 8.19662C10.959 8.17764 10.8835 8.14307 10.8168 8.09491C10.7501 8.04674 10.6936 7.98591 10.6504 7.91588C10.6072 7.84586 10.5782 7.76802 10.5652 7.68681C10.5521 7.60559 10.5551 7.52259 10.5741 7.44255C10.5931 7.3625 10.6276 7.28698 10.6758 7.2203C11.2055 6.4907 11.8734 5.87223 12.6414 5.39998C11.9234 3.89061 10.582 2.94842 10 2.59373C9.31412 3.01587 8.69749 3.54133 8.17188 4.15155C8.11973 4.21686 8.05502 4.27105 7.98157 4.31091C7.90812 4.35078 7.82742 4.3755 7.74424 4.38363C7.66107 4.39176 7.57711 4.38313 7.49733 4.35824C7.41755 4.33336 7.34357 4.29272 7.27976 4.23874C7.21596 4.18477 7.16363 4.11854 7.12588 4.04399C7.08812 3.96943 7.06569 3.88806 7.05993 3.80469C7.05417 3.72131 7.06519 3.63763 7.09233 3.55859C7.11948 3.47955 7.1622 3.40676 7.21797 3.34452C7.91883 2.51897 8.76644 1.83029 9.71797 1.31326C9.8048 1.26981 9.90056 1.24719 9.99766 1.24719C10.0948 1.24719 10.1905 1.26981 10.2773 1.31326C10.3805 1.36483 12.6422 2.51873 13.7609 4.84061C14.5546 4.53247 15.3986 4.37457 16.25 4.37498C16.4158 4.37498 16.5747 4.44083 16.6919 4.55804C16.8092 4.67525 16.875 4.83422 16.875 4.99998V11.25Z" fill="#191F2E"/>
</svg>
