<svg width="20" height="20" viewBox="0 0 20 20" fill="none" xmlns="http://www.w3.org/2000/svg">
<path d="M16.25 4.06252C15.4551 4.0622 14.6656 4.19422 13.9141 4.45315C12.7117 2.20627 10.5234 1.08909 10.4195 1.03752C10.2893 0.972349 10.1456 0.938416 10 0.938416C9.85436 0.938416 9.71072 0.972349 9.58047 1.03752C9.47656 1.08909 7.28828 2.2094 6.08516 4.45315C5.33387 4.19415 4.54468 4.06213 3.75 4.06252C3.50136 4.06252 3.2629 4.1613 3.08709 4.33711C2.91127 4.51293 2.8125 4.75138 2.8125 5.00002V11.25C2.8125 13.1563 3.56975 14.9844 4.91767 16.3324C6.26559 17.6803 8.09376 18.4375 10 18.4375C11.9062 18.4375 13.7344 17.6803 15.0823 16.3324C16.4302 14.9844 17.1875 13.1563 17.1875 11.25V5.00002C17.1875 4.75138 17.0887 4.51293 16.9129 4.33711C16.7371 4.1613 16.4986 4.06252 16.25 4.06252ZM4.6875 6.02034C5.83162 6.22738 6.87651 6.80324 7.66256 7.65998C8.44862 8.51671 8.93262 9.6072 9.04063 10.7649C7.90077 9.52175 6.35963 8.71965 4.6875 8.49924V6.02034ZM9.0625 16.4797C7.83641 16.258 6.72697 15.6132 5.9275 14.6575C5.12802 13.7019 4.6892 12.496 4.6875 11.25V10.3953C5.91359 10.617 7.02303 11.2619 7.8225 12.2175C8.62198 13.1732 9.0608 14.3791 9.0625 15.625V16.4797ZM7.76328 5.28987C8.40391 4.12268 9.42891 3.33674 10 2.96409C10.5719 3.33831 11.5961 4.12268 12.2367 5.28987C11.3158 5.91223 10.5504 6.73824 10 7.70393C9.44933 6.73843 8.68405 5.91246 7.76328 5.28987ZM15.3125 11.25C15.3108 12.496 14.872 13.7019 14.0725 14.6575C13.273 15.6132 12.1636 16.258 10.9375 16.4797V15.625C10.9392 14.3791 11.378 13.1732 12.1775 12.2175C12.977 11.2619 14.0864 10.617 15.3125 10.3953V11.25ZM15.3125 8.49846C13.6404 8.71887 12.0992 9.52097 10.9594 10.7641C11.0675 9.60655 11.5516 8.51624 12.3377 7.65967C13.1237 6.80309 14.1685 6.22734 15.3125 6.02034V8.49846Z" fill="#191F2E"/>
</svg>
