<svg width="20" height="20" viewBox="0 0 20 20" fill="none" xmlns="http://www.w3.org/2000/svg">
<path d="M4.44376 2.49454C4.36143 2.40174 4.2615 2.3262 4.14976 2.2723C4.03802 2.2184 3.91669 2.18721 3.79281 2.18055C3.66893 2.17388 3.54496 2.19187 3.42808 2.23347C3.3112 2.27507 3.20374 2.33946 3.11193 2.42289C3.02012 2.50633 2.94578 2.60716 2.89323 2.71954C2.84067 2.83192 2.81094 2.95361 2.80576 3.07756C2.80059 3.20151 2.82006 3.32526 2.86306 3.44163C2.90606 3.558 2.97173 3.66468 3.05626 3.75548L3.39766 4.13126C3.22474 4.20139 3.07669 4.32153 2.97244 4.47629C2.8682 4.63106 2.81251 4.81341 2.81251 5.00001V11.25C2.81205 12.6347 3.2116 13.9901 3.96312 15.1532C4.71463 16.3162 5.78612 17.2374 7.04873 17.806C8.31134 18.3746 9.71132 18.5664 11.0803 18.3582C12.4493 18.1501 13.729 17.551 14.7656 16.6328L15.5594 17.5055C15.7275 17.686 15.96 17.7931 16.2064 17.8034C16.4529 17.8137 16.6935 17.7264 16.8761 17.5605C17.0587 17.3946 17.1685 17.1634 17.1817 16.9171C17.195 16.6707 17.1106 16.4291 16.9469 16.2445L4.44376 2.49454ZM4.70235 11.6477C5.85805 11.8604 6.91091 12.4495 7.69688 13.3231C8.48285 14.1967 8.95778 15.3057 9.04766 16.4774C7.89197 16.2646 6.83911 15.6755 6.05314 14.802C5.26717 13.9284 4.79224 12.8193 4.70235 11.6477ZM10 13.3289C9.45065 12.3628 8.68523 11.5369 7.76362 10.9157C6.842 10.2946 5.78918 9.89507 4.68751 9.74845V6.01954C4.87032 6.05256 5.0513 6.09506 5.22969 6.14689L10.7633 12.2328C10.4756 12.5738 10.22 12.9408 10 13.3289ZM10.9524 16.4766C11.0317 15.4447 11.4096 14.4583 12.0399 13.6375L13.5008 15.2445C12.7789 15.879 11.8979 16.3049 10.9524 16.4766ZM17.1875 5.00001V11.25C17.1866 11.5988 17.1605 11.9471 17.1094 12.2922C17.0771 12.515 16.9657 12.7188 16.7956 12.8662C16.6255 13.0137 16.408 13.095 16.1828 13.0953C16.1373 13.095 16.0919 13.0917 16.0469 13.0852C15.8008 13.0494 15.5791 12.9174 15.4304 12.7181C15.2816 12.5189 15.2182 12.2687 15.2539 12.0227C15.2719 11.8984 15.2852 11.7734 15.2945 11.6477C15.2352 11.6586 15.175 11.6703 15.1156 11.6828C14.9942 11.712 14.8682 11.7166 14.7449 11.6964C14.6217 11.6762 14.5037 11.6316 14.398 11.5652C14.2922 11.4987 14.2008 11.4119 14.1291 11.3096C14.0574 11.2074 14.0068 11.0918 13.9803 10.9698C13.9539 10.8477 13.9521 10.7216 13.9751 10.5988C13.9981 10.4761 14.0453 10.3591 14.1141 10.2549C14.1829 10.1507 14.2718 10.0612 14.3757 9.99183C14.4795 9.92244 14.5961 9.87448 14.7188 9.85079C14.9133 9.80861 15.1094 9.77267 15.3094 9.74845V6.02111C14.1376 6.23122 13.0704 6.8288 12.2789 7.71798C12.1968 7.80991 12.0975 7.88477 11.9865 7.93828C11.8754 7.9918 11.755 8.02293 11.6319 8.0299C11.3835 8.04396 11.1396 7.95874 10.9539 7.79298C10.7683 7.62722 10.6561 7.3945 10.642 7.14601C10.6279 6.89753 10.7132 6.65363 10.8789 6.46798C11.28 6.01961 11.7359 5.62353 12.2359 5.28907C11.5953 4.12267 10.5711 3.33595 9.99923 2.96407C9.56142 3.24977 9.15408 3.57962 8.7836 3.94845C8.608 4.12457 8.36962 4.22372 8.12092 4.22409C7.87221 4.22445 7.63355 4.126 7.45743 3.9504C7.28131 3.7748 7.18216 3.53643 7.18179 3.28772C7.18143 3.03902 7.27987 2.80035 7.45548 2.62423C8.08188 1.99377 8.79761 1.45888 9.57969 1.03673C9.70994 0.971555 9.85358 0.937622 9.99923 0.937622C10.1449 0.937622 10.2885 0.971555 10.4188 1.03673C10.5227 1.08829 12.7125 2.20861 13.9141 4.45392C14.6657 4.19493 15.4551 4.06266 16.25 4.06251C16.4986 4.06251 16.7371 4.16128 16.9129 4.3371C17.0887 4.51291 17.1875 4.75137 17.1875 5.00001Z" fill="#191F2E"/>
</svg>
