<svg width="20" height="20" viewBox="0 0 20 20" fill="none" xmlns="http://www.w3.org/2000/svg">
<path d="M15.6251 11.875C15.1776 11.8747 14.7366 11.9819 14.3392 12.1875L12.6681 10.8875C12.7589 10.6177 12.8077 10.3355 12.8126 10.0508L13.6212 9.78203C14.0785 10.2464 14.683 10.5376 15.3312 10.6057C15.9794 10.6738 16.6311 10.5147 17.175 10.1555C17.7189 9.79629 18.1211 9.25936 18.313 8.63646C18.5048 8.01356 18.4744 7.34336 18.2269 6.74042C17.9793 6.13747 17.5301 5.63922 16.9559 5.33083C16.3817 5.02243 15.7182 4.92304 15.0788 5.04964C14.4394 5.17624 13.8639 5.52098 13.4505 6.02492C13.0372 6.52886 12.8117 7.16072 12.8126 7.8125C12.8126 7.89922 12.8173 7.98516 12.8251 8.07031L12.2173 8.27266C11.9546 7.93508 11.6183 7.66187 11.2341 7.47383C10.8499 7.28579 10.4279 7.18786 10.0001 7.1875C9.92198 7.1875 9.85323 7.1875 9.78057 7.19687L9.43291 6.41562C9.90742 5.96557 10.2103 5.36422 10.2893 4.71503C10.3684 4.06583 10.2187 3.40937 9.86613 2.85858C9.51352 2.30779 8.97998 1.8971 8.3573 1.69716C7.73462 1.49722 7.06173 1.52053 6.45437 1.76308C5.84702 2.00563 5.34318 2.45225 5.02952 3.02612C4.71587 3.59999 4.612 4.26523 4.7358 4.9074C4.8596 5.54956 5.20332 6.12852 5.70783 6.54466C6.21235 6.9608 6.84611 7.18812 7.5001 7.1875C7.57823 7.1875 7.64698 7.1875 7.71963 7.17812L8.06729 7.95937C7.65541 8.34818 7.37086 8.85256 7.25108 9.40615C7.1313 9.95975 7.18189 10.5366 7.3962 11.0609L5.7337 12.5383C5.15283 12.2176 4.47731 12.1127 3.82653 12.242C3.17576 12.3712 2.59164 12.7264 2.17743 13.2447C1.76321 13.763 1.54557 14.4111 1.56298 15.0743C1.58039 15.7376 1.83172 16.3734 2.27255 16.8692C2.71339 17.3651 3.31533 17.6891 3.97199 17.7841C4.62865 17.8791 5.29773 17.7388 5.86098 17.3881C6.42423 17.0375 6.84537 16.499 7.04996 15.8678C7.25455 15.2366 7.22942 14.5535 6.97901 13.9391L8.64151 12.4617C9.08463 12.7069 9.58587 12.8276 10.092 12.811C10.5982 12.7943 11.0904 12.641 11.5165 12.3672L13.047 13.5594C12.804 14.1142 12.7467 14.7327 12.8835 15.3227C13.0203 15.9128 13.3439 16.4429 13.8063 16.8343C14.2686 17.2256 14.8449 17.4572 15.4495 17.4946C16.054 17.5321 16.6545 17.3733 17.1616 17.042C17.6687 16.7107 18.0553 16.2246 18.2638 15.6559C18.4724 15.0872 18.4918 14.4664 18.3191 13.8858C18.1465 13.3053 17.791 12.7959 17.3056 12.4336C16.8202 12.0713 16.2308 11.8754 15.6251 11.875ZM15.6251 6.875C15.8105 6.875 15.9918 6.92998 16.1459 7.033C16.3001 7.13601 16.4203 7.28243 16.4912 7.45373C16.5622 7.62504 16.5808 7.81354 16.5446 7.9954C16.5084 8.17725 16.4191 8.3443 16.288 8.47541C16.1569 8.60652 15.9899 8.69581 15.808 8.73199C15.6261 8.76816 15.4376 8.74959 15.2663 8.67864C15.095 8.60768 14.9486 8.48752 14.8456 8.33335C14.7426 8.17918 14.6876 7.99792 14.6876 7.8125C14.6876 7.56386 14.7864 7.3254 14.9622 7.14959C15.138 6.97377 15.3765 6.875 15.6251 6.875ZM6.5626 4.375C6.5626 4.18958 6.61759 4.00832 6.7206 3.85415C6.82361 3.69998 6.97003 3.57982 7.14134 3.50886C7.31264 3.4379 7.50114 3.41934 7.683 3.45551C7.86486 3.49169 8.0319 3.58097 8.16301 3.71209C8.29413 3.8432 8.38341 4.01024 8.41959 4.1921C8.45576 4.37396 8.4372 4.56246 8.36624 4.73376C8.29528 4.90507 8.17512 5.05149 8.02095 5.1545C7.86678 5.25752 7.68552 5.3125 7.5001 5.3125C7.25146 5.3125 7.013 5.21373 6.83719 5.03791C6.66137 4.8621 6.5626 4.62364 6.5626 4.375ZM4.3751 15.9375C4.18968 15.9375 4.00843 15.8825 3.85425 15.7795C3.70008 15.6765 3.57992 15.5301 3.50896 15.3588C3.43801 15.1875 3.41944 14.999 3.45562 14.8171C3.49179 14.6352 3.58108 14.4682 3.71219 14.3371C3.8433 14.206 4.01035 14.1167 4.1922 14.0805C4.37406 14.0443 4.56256 14.0629 4.73387 14.1339C4.90517 14.2048 5.05159 14.325 5.1546 14.4792C5.25762 14.6333 5.3126 14.8146 5.3126 15C5.3126 15.2486 5.21383 15.4871 5.03801 15.6629C4.8622 15.8387 4.62374 15.9375 4.3751 15.9375ZM9.0626 10C9.0626 9.81458 9.11759 9.63332 9.2206 9.47915C9.32361 9.32498 9.47003 9.20482 9.64134 9.13386C9.81264 9.06291 10.0011 9.04434 10.183 9.08051C10.3649 9.11669 10.5319 9.20598 10.663 9.33709C10.7941 9.4682 10.8834 9.63524 10.9196 9.8171C10.9558 9.99896 10.9372 10.1875 10.8662 10.3588C10.7953 10.5301 10.6751 10.6765 10.5209 10.7795C10.3668 10.8825 10.1855 10.9375 10.0001 10.9375C9.75146 10.9375 9.513 10.8387 9.33719 10.6629C9.16137 10.4871 9.0626 10.2486 9.0626 10ZM15.6251 15.625C15.4397 15.625 15.2584 15.57 15.1043 15.467C14.9501 15.364 14.8299 15.2176 14.759 15.0463C14.688 14.875 14.6694 14.6865 14.7056 14.5046C14.7418 14.3227 14.8311 14.1557 14.9622 14.0246C15.0933 13.8935 15.2603 13.8042 15.4422 13.768C15.6241 13.7318 15.8126 13.7504 15.9839 13.8214C16.1552 13.8923 16.3016 14.0125 16.4046 14.1667C16.5076 14.3208 16.5626 14.5021 16.5626 14.6875C16.5626 14.9361 16.4638 15.1746 16.288 15.3504C16.1122 15.5262 15.8737 15.625 15.6251 15.625Z" fill="#191F2E"/>
</svg>
