<svg width="20" height="20" viewBox="0 0 20 20" fill="none" xmlns="http://www.w3.org/2000/svg">
<path d="M15.625 11.875C15.0725 11.8747 14.5357 12.0583 14.0992 12.3969L12.2937 10.9906C12.43 10.6782 12.5002 10.3409 12.5 9.99999C12.5 9.94218 12.5 9.88437 12.4937 9.82733L13.5273 9.4828C13.8543 9.98713 14.3521 10.3568 14.9294 10.524C15.5067 10.6912 16.125 10.6449 16.6709 10.3934C17.2168 10.1419 17.6539 9.70219 17.902 9.15473C18.1501 8.60727 18.1927 7.98874 18.0219 7.41245C17.8512 6.83615 17.4785 6.34067 16.9722 6.01677C16.4659 5.69286 15.8598 5.56222 15.265 5.64877C14.6702 5.73531 14.1265 6.03326 13.7335 6.48802C13.3404 6.94279 13.1244 7.52393 13.125 8.12499C13.125 8.1828 13.125 8.24062 13.1312 8.29765L12.0976 8.64218C11.871 8.29189 11.5604 8.00388 11.194 7.80438C10.8276 7.60488 10.4171 7.50024 9.99997 7.49999C9.86202 7.50028 9.72433 7.51177 9.58825 7.53437L9.05387 6.32812C9.51529 5.95944 9.83129 5.4393 9.94584 4.8599C10.0604 4.28049 9.96612 3.67924 9.67972 3.16271C9.39332 2.64618 8.93329 2.24772 8.38117 2.03797C7.82905 1.82821 7.2205 1.82071 6.66338 2.01678C6.10625 2.21285 5.63654 2.59984 5.33748 3.10915C5.03843 3.61846 4.92935 4.21721 5.02958 4.79926C5.12981 5.38131 5.43288 5.90908 5.88506 6.28903C6.33725 6.66898 6.90935 6.87656 7.49997 6.87499C7.63791 6.87471 7.7756 6.86321 7.91169 6.84062L8.44606 8.04374C7.9929 8.4024 7.67838 8.90732 7.55626 9.47218C7.43414 10.037 7.512 10.6268 7.77653 11.1406L5.76794 12.925C5.26245 12.5842 4.65004 12.4395 4.04549 12.518C3.44094 12.5964 2.88576 12.8927 2.48401 13.3512C2.08225 13.8097 1.86152 14.399 1.86317 15.0086C1.86482 15.6182 2.08875 16.2063 2.49298 16.6626C2.89721 17.119 3.45399 17.4122 4.05896 17.4874C4.66392 17.5626 5.27554 17.4145 5.77917 17.071C6.2828 16.7275 6.64386 16.2121 6.79468 15.6215C6.94549 15.0308 6.87571 14.4054 6.59841 13.8625L8.607 12.0781C9.0419 12.3709 9.55804 12.5192 10.082 12.5018C10.606 12.4844 11.1112 12.3023 11.5257 11.9812L13.3312 13.3875C13.1953 13.699 13.1251 14.0351 13.125 14.375C13.125 14.8694 13.2716 15.3528 13.5463 15.7639C13.821 16.175 14.2114 16.4955 14.6683 16.6847C15.1251 16.8739 15.6277 16.9234 16.1127 16.827C16.5976 16.7305 17.0431 16.4924 17.3927 16.1428C17.7424 15.7931 17.9805 15.3477 18.0769 14.8627C18.1734 14.3778 18.1239 13.8751 17.9347 13.4183C17.7454 12.9615 17.425 12.571 17.0139 12.2963C16.6028 12.0216 16.1194 11.875 15.625 11.875ZM15.625 6.87499C15.8722 6.87499 16.1139 6.9483 16.3194 7.08565C16.525 7.22301 16.6852 7.41823 16.7798 7.64664C16.8744 7.87504 16.8992 8.12638 16.8509 8.36885C16.8027 8.61133 16.6837 8.83406 16.5089 9.00887C16.334 9.18369 16.1113 9.30274 15.8688 9.35097C15.6264 9.3992 15.375 9.37445 15.1466 9.27984C14.9182 9.18523 14.723 9.02502 14.5856 8.81945C14.4483 8.61389 14.375 8.37222 14.375 8.12499C14.375 7.79347 14.5067 7.47553 14.7411 7.24111C14.9755 7.00669 15.2934 6.87499 15.625 6.87499ZM6.24997 4.37499C6.24997 4.12776 6.32328 3.88609 6.46063 3.68053C6.59798 3.47497 6.79321 3.31475 7.02161 3.22014C7.25002 3.12553 7.50135 3.10078 7.74383 3.14901C7.98631 3.19724 8.20904 3.31629 8.38385 3.49111C8.55867 3.66592 8.67772 3.88865 8.72595 4.13113C8.77418 4.3736 8.74943 4.62494 8.65482 4.85335C8.56021 5.08175 8.39999 5.27698 8.19443 5.41433C7.98887 5.55168 7.74719 5.62499 7.49997 5.62499C7.16845 5.62499 6.85051 5.49329 6.61609 5.25887C6.38166 5.02445 6.24997 4.70651 6.24997 4.37499ZM4.37497 16.25C4.12774 16.25 3.88607 16.1767 3.68051 16.0393C3.47494 15.902 3.31473 15.7068 3.22012 15.4783C3.12551 15.2499 3.10076 14.9986 3.14899 14.7561C3.19722 14.5137 3.31627 14.2909 3.49109 14.1161C3.6659 13.9413 3.88863 13.8222 4.13111 13.774C4.37358 13.7258 4.62492 13.7505 4.85332 13.8451C5.08173 13.9398 5.27695 14.1 5.41431 14.3055C5.55166 14.5111 5.62497 14.7528 5.62497 15C5.62497 15.3315 5.49327 15.6495 5.25885 15.8839C5.02443 16.1183 4.70649 16.25 4.37497 16.25ZM8.74997 9.99999C8.74997 9.75276 8.82328 9.51109 8.96063 9.30553C9.09798 9.09997 9.29321 8.93975 9.52161 8.84514C9.75002 8.75053 10.0014 8.72578 10.2438 8.77401C10.4863 8.82224 10.709 8.94129 10.8839 9.11611C11.0587 9.29092 11.1777 9.51365 11.2259 9.75613C11.2742 9.9986 11.2494 10.2499 11.1548 10.4783C11.0602 10.7068 10.9 10.902 10.6944 11.0393C10.4889 11.1767 10.2472 11.25 9.99997 11.25C9.66845 11.25 9.35051 11.1183 9.11608 10.8839C8.88166 10.6495 8.74997 10.3315 8.74997 9.99999ZM15.625 15.625C15.3777 15.625 15.1361 15.5517 14.9305 15.4143C14.7249 15.277 14.5647 15.0818 14.4701 14.8533C14.3755 14.6249 14.3508 14.3736 14.399 14.1311C14.4472 13.8887 14.5663 13.6659 14.7411 13.4911C14.9159 13.3163 15.1386 13.1972 15.3811 13.149C15.6236 13.1008 15.8749 13.1255 16.1033 13.2201C16.3317 13.3148 16.527 13.475 16.6643 13.6805C16.8017 13.8861 16.875 14.1278 16.875 14.375C16.875 14.7065 16.7433 15.0245 16.5089 15.2589C16.2744 15.4933 15.9565 15.625 15.625 15.625Z" fill="#191F2E"/>
</svg>
