<svg width="20" height="20" viewBox="0 0 20 20" fill="none" xmlns="http://www.w3.org/2000/svg">
<path d="M15.6251 11.875C15.0727 11.8747 14.5358 12.0583 14.0993 12.3969L12.2938 10.9906C12.4301 10.6782 12.5004 10.3409 12.5001 9.99999C12.5001 9.94218 12.5001 9.88437 12.4938 9.82733L13.5274 9.4828C13.8544 9.98713 14.3522 10.3568 14.9295 10.524C15.5068 10.6912 16.1251 10.6449 16.671 10.3934C17.217 10.1419 17.654 9.70219 17.9021 9.15473C18.1503 8.60727 18.1928 7.98874 18.0221 7.41245C17.8513 6.83615 17.4786 6.34067 16.9723 6.01677C16.466 5.69286 15.8599 5.56222 15.2651 5.64877C14.6703 5.73531 14.1266 6.03326 13.7336 6.48802C13.3406 6.94279 13.1245 7.52393 13.1251 8.12499C13.1251 8.1828 13.1251 8.24062 13.1313 8.29765L12.0977 8.64218C11.8712 8.29189 11.5605 8.00388 11.1941 7.80438C10.8278 7.60488 10.4173 7.50024 10.0001 7.49999C9.86215 7.50028 9.72445 7.51177 9.58837 7.53437L9.054 6.32812C9.51542 5.95944 9.83141 5.4393 9.94596 4.8599C10.0605 4.28049 9.96624 3.67924 9.67984 3.16271C9.39344 2.64618 8.93341 2.24772 8.38129 2.03797C7.82917 1.82821 7.22062 1.82071 6.6635 2.01678C6.10637 2.21285 5.63666 2.59984 5.3376 3.10915C5.03855 3.61846 4.92947 4.21721 5.0297 4.79926C5.12993 5.38131 5.433 5.90908 5.88519 6.28903C6.33737 6.66898 6.90947 6.87656 7.50009 6.87499C7.63803 6.87471 7.77573 6.86321 7.91181 6.84062L8.44618 8.04374C7.99303 8.4024 7.67851 8.90732 7.55638 9.47218C7.43426 10.037 7.51212 10.6268 7.77665 11.1406L5.76806 12.925C5.26258 12.5842 4.65016 12.4395 4.04561 12.518C3.44106 12.5964 2.88588 12.8927 2.48413 13.3512C2.08238 13.8097 1.86164 14.399 1.86329 15.0086C1.86494 15.6182 2.08887 16.2063 2.4931 16.6626C2.89733 17.119 3.45411 17.4122 4.05908 17.4874C4.66404 17.5626 5.27566 17.4145 5.77929 17.071C6.28292 16.7275 6.64398 16.2121 6.7948 15.6215C6.94561 15.0308 6.87583 14.4054 6.59853 13.8625L8.60712 12.0781C9.04202 12.3709 9.55817 12.5192 10.0822 12.5018C10.6062 12.4844 11.1113 12.3023 11.5259 11.9812L13.3313 13.3875C13.1955 13.699 13.1252 14.0351 13.1251 14.375C13.1251 14.8694 13.2717 15.3528 13.5464 15.7639C13.8211 16.175 14.2116 16.4955 14.6684 16.6847C15.1252 16.8739 15.6279 16.9234 16.1128 16.827C16.5978 16.7305 17.0432 16.4924 17.3929 16.1428C17.7425 15.7931 17.9806 15.3477 18.0771 14.8627C18.1735 14.3778 18.124 13.8751 17.9348 13.4183C17.7456 12.9615 17.4251 12.571 17.014 12.2963C16.6029 12.0216 16.1195 11.875 15.6251 11.875ZM15.6251 6.87499C15.8723 6.87499 16.114 6.9483 16.3196 7.08565C16.5251 7.22301 16.6853 7.41823 16.7799 7.64664C16.8745 7.87504 16.8993 8.12638 16.8511 8.36885C16.8028 8.61133 16.6838 8.83406 16.509 9.00887C16.3342 9.18369 16.1114 9.30274 15.869 9.35097C15.6265 9.3992 15.3751 9.37445 15.1467 9.27984C14.9183 9.18523 14.7231 9.02502 14.5858 8.81945C14.4484 8.61389 14.3751 8.37222 14.3751 8.12499C14.3751 7.79347 14.5068 7.47553 14.7412 7.24111C14.9756 7.00669 15.2936 6.87499 15.6251 6.87499ZM6.25009 4.37499C6.25009 4.12776 6.3234 3.88609 6.46075 3.68053C6.59811 3.47497 6.79333 3.31475 7.02174 3.22014C7.25014 3.12553 7.50148 3.10078 7.74395 3.14901C7.98643 3.19724 8.20916 3.31629 8.38397 3.49111C8.55879 3.66592 8.67784 3.88865 8.72607 4.13113C8.7743 4.3736 8.74955 4.62494 8.65494 4.85335C8.56033 5.08175 8.40011 5.27698 8.19455 5.41433C7.98899 5.55168 7.74732 5.62499 7.50009 5.62499C7.16857 5.62499 6.85063 5.49329 6.61621 5.25887C6.38179 5.02445 6.25009 4.70651 6.25009 4.37499ZM4.37509 16.25C4.12786 16.25 3.88619 16.1767 3.68063 16.0393C3.47507 15.902 3.31485 15.7068 3.22024 15.4783C3.12563 15.2499 3.10088 14.9986 3.14911 14.7561C3.19734 14.5137 3.31639 14.2909 3.49121 14.1161C3.66602 13.9413 3.88875 13.8222 4.13123 13.774C4.3737 13.7258 4.62504 13.7505 4.85345 13.8451C5.08185 13.9398 5.27708 14.1 5.41443 14.3055C5.55178 14.5111 5.62509 14.7528 5.62509 15C5.62509 15.3315 5.49339 15.6495 5.25897 15.8839C5.02455 16.1183 4.70661 16.25 4.37509 16.25ZM15.6251 15.625C15.3779 15.625 15.1362 15.5517 14.9306 15.4143C14.7251 15.277 14.5648 15.0818 14.4702 14.8533C14.3756 14.6249 14.3509 14.3736 14.3991 14.1311C14.4473 13.8887 14.5664 13.6659 14.7412 13.4911C14.916 13.3163 15.1388 13.1972 15.3812 13.149C15.6237 13.1008 15.875 13.1255 16.1034 13.2201C16.3319 13.3148 16.5271 13.475 16.6644 13.6805C16.8018 13.8861 16.8751 14.1278 16.8751 14.375C16.8751 14.7065 16.7434 15.0245 16.509 15.2589C16.2746 15.4933 15.9566 15.625 15.6251 15.625Z" fill="#191F2E"/>
</svg>
