<svg width="20" height="20" viewBox="0 0 20 20" fill="none" xmlns="http://www.w3.org/2000/svg">
<path d="M16.875 3.4375H3.125C2.7106 3.4375 2.31317 3.60212 2.02015 3.89515C1.72712 4.18817 1.5625 4.5856 1.5625 5V15C1.5625 15.4144 1.72712 15.8118 2.02015 16.1049C2.31317 16.3979 2.7106 16.5625 3.125 16.5625H16.875C17.2894 16.5625 17.6868 16.3979 17.9799 16.1049C18.2729 15.8118 18.4375 15.4144 18.4375 15V5C18.4375 4.5856 18.2729 4.18817 17.9799 3.89515C17.6868 3.60212 17.2894 3.4375 16.875 3.4375ZM8.4375 10.9375V9.0625H11.5625V10.9375H8.4375ZM11.5625 12.8125V14.6875H8.4375V12.8125H11.5625ZM3.4375 9.0625H6.5625V10.9375H3.4375V9.0625ZM8.4375 7.1875V5.3125H11.5625V7.1875H8.4375ZM13.4375 9.0625H16.5625V10.9375H13.4375V9.0625ZM16.5625 7.1875H13.4375V5.3125H16.5625V7.1875ZM6.5625 5.3125V7.1875H3.4375V5.3125H6.5625ZM3.4375 12.8125H6.5625V14.6875H3.4375V12.8125ZM13.4375 14.6875V12.8125H16.5625V14.6875H13.4375Z" fill="#191F2E"/>
</svg>
