<svg width="20" height="20" viewBox="0 0 20 20" fill="none" xmlns="http://www.w3.org/2000/svg">
<path d="M19.1922 3.30775L16.6922 0.807755C16.5863 0.701998 16.446 0.637755 16.2967 0.626706C16.1474 0.615657 15.9992 0.658536 15.8789 0.747547C15.7585 0.836557 15.6742 0.96579 15.641 1.11175C15.6079 1.25771 15.6283 1.4107 15.6984 1.54291L10.9781 6.26244C9.19767 5.33588 7.20392 5.41322 5.9961 6.62025C5.67736 6.94036 5.42768 7.32246 5.26251 7.74291C5.21179 7.8569 5.12903 7.95369 5.02432 8.02151C4.9196 8.08934 4.79743 8.12527 4.67267 8.12494C3.53282 8.16322 2.54298 8.57182 1.80939 9.30541C0.865635 10.2515 0.468761 11.6093 0.682823 13.1304C0.890636 14.5859 1.6461 16.0273 2.81251 17.1874C3.97892 18.3476 5.4172 19.1062 6.87501 19.314C7.13625 19.353 7.39994 19.3734 7.66407 19.3749C8.86095 19.3749 9.91642 18.9663 10.6922 18.1906C11.4258 17.457 11.8344 16.4671 11.8727 15.3273C11.8725 15.2023 11.9088 15.0799 11.9771 14.9752C12.0453 14.8704 12.1426 14.7878 12.257 14.7374C12.6775 14.5724 13.0597 14.3227 13.3797 14.0038C14.5867 12.796 14.6641 10.8007 13.7375 9.02182L18.457 4.3015C18.5893 4.37165 18.7422 4.39202 18.8882 4.35891C19.0342 4.3258 19.1634 4.24142 19.2524 4.1211C19.3414 4.00078 19.3843 3.85251 19.3732 3.70325C19.3622 3.55399 19.298 3.41366 19.1922 3.30775ZM7.3172 16.0663C7.2 16.1835 7.04109 16.2493 6.8754 16.2493C6.70971 16.2493 6.5508 16.1835 6.4336 16.0663L3.9336 13.5663C3.81643 13.4491 3.75065 13.2901 3.75072 13.1243C3.75079 12.9585 3.81672 12.7995 3.93399 12.6824C4.05127 12.5652 4.21029 12.4994 4.37607 12.4995C4.54185 12.4996 4.70081 12.5655 4.81798 12.6828L7.31798 15.1828C7.435 15.3001 7.50065 15.459 7.5005 15.6247C7.50036 15.7904 7.43442 15.9493 7.3172 16.0663ZM10.6094 12.4835C10.3035 12.7896 9.91372 12.998 9.48936 13.0825C9.065 13.1669 8.62513 13.1237 8.22536 12.9581C7.8256 12.7926 7.4839 12.5122 7.2435 12.1525C7.00309 11.7927 6.87478 11.3697 6.87478 10.9371C6.87478 10.5044 7.00309 10.0814 7.2435 9.72165C7.4839 9.3619 7.8256 9.08152 8.22536 8.91598C8.62513 8.75044 9.065 8.70717 9.48936 8.79165C9.91372 8.87612 10.3035 9.08455 10.6094 9.39057C11.0194 9.80078 11.2498 10.357 11.2498 10.9371C11.2498 11.5171 11.0194 12.0733 10.6094 12.4835ZM13.0359 7.95229C12.8888 7.77037 12.7323 7.59618 12.5672 7.43041C12.4013 7.26508 12.2269 7.10861 12.0445 6.96166L13.75 5.25854L14.7414 6.24994L13.0359 7.95229ZM15.625 5.36557L14.6344 4.37494L16.5625 2.44604L17.5539 3.43744L15.625 5.36557Z" fill="#191F2E"/>
</svg>
