<svg width="20" height="20" viewBox="0 0 20 20" fill="none" xmlns="http://www.w3.org/2000/svg">
<path d="M7.22571 14.6485C7.31292 14.7357 7.38209 14.8393 7.42929 14.9532C7.47648 15.0671 7.50078 15.1893 7.50078 15.3126C7.50078 15.4359 7.47648 15.558 7.42929 15.672C7.38209 15.7859 7.31292 15.8894 7.22571 15.9766C7.13851 16.0639 7.03498 16.133 6.92104 16.1802C6.8071 16.2274 6.68498 16.2517 6.56165 16.2517C6.43832 16.2517 6.3162 16.2274 6.20226 16.1802C6.08832 16.133 5.98479 16.0639 5.89759 15.9766L4.02259 14.1016C3.84647 13.9255 3.74752 13.6867 3.74752 13.4376C3.74752 13.1885 3.84647 12.9496 4.02259 12.7735C4.19871 12.5974 4.43758 12.4985 4.68665 12.4985C4.93572 12.4985 5.17459 12.5974 5.35071 12.7735L7.22571 14.6485ZM8.74993 9.37508C8.37909 9.37508 8.01658 9.48505 7.70824 9.69108C7.39989 9.89711 7.15957 10.1899 7.01766 10.5326C6.87574 10.8752 6.83861 11.2522 6.91096 11.6159C6.98331 11.9796 7.16188 12.3137 7.42411 12.5759C7.68633 12.8381 8.02042 13.0167 8.38414 13.0891C8.74785 13.1614 9.12485 13.1243 9.46746 12.9824C9.81007 12.8404 10.1029 12.6001 10.3089 12.2918C10.515 11.9834 10.6249 11.6209 10.6249 11.2501C10.6249 10.7528 10.4274 10.2759 10.0758 9.92426C9.72413 9.57263 9.24721 9.37508 8.74993 9.37508ZM19.7257 4.72508C19.5838 4.8672 19.4001 4.96 19.2015 4.98981C19.0029 5.01963 18.7999 4.98489 18.6226 4.89071L14.2187 9.29696C14.4226 9.76262 14.5634 10.2534 14.6374 10.7563C14.8335 12.1298 14.4656 13.3618 13.6007 14.2266C13.2506 14.5762 12.8323 14.8498 12.3718 15.0306C12.3141 15.0593 12.2658 15.1041 12.2327 15.1595C12.1996 15.2149 12.1831 15.2786 12.1851 15.3431C12.1437 16.5626 11.7038 17.6259 10.9132 18.4165C10.0781 19.2477 8.94524 19.6876 7.66634 19.6876C7.38479 19.6871 7.10362 19.6667 6.82493 19.6266C5.30384 19.4095 3.79915 18.6227 2.58821 17.4118C1.37727 16.2009 0.590556 14.6962 0.373368 13.1751C0.138993 11.554 0.573368 10.1016 1.58821 9.0868C2.37884 8.29618 3.44212 7.85633 4.66165 7.81258C4.72614 7.81459 4.78985 7.79806 4.84523 7.76497C4.90062 7.73188 4.94536 7.6836 4.97415 7.62587C5.15449 7.16642 5.42732 6.74893 5.77571 6.3993C6.64056 5.53446 7.87259 5.16649 9.24602 5.36258C9.74815 5.43682 10.2381 5.57765 10.7031 5.78133L15.1093 1.37743C15.0033 1.17899 14.9721 0.949023 15.0216 0.729521C15.071 0.510019 15.1977 0.315622 15.3786 0.181822C15.5595 0.0480213 15.7825 -0.0162575 16.0069 0.000721167C16.2312 0.0176998 16.442 0.114803 16.6007 0.274303L19.7257 3.3993C19.9015 3.57512 20.0003 3.81356 20.0003 4.06219C20.0003 4.31082 19.9015 4.54927 19.7257 4.72508ZM17.2656 3.59383L16.4062 2.73446L14.9218 4.21883L15.7812 5.07821L17.2656 3.59383ZM11.4601 8.53758C10.5882 7.66337 9.48352 7.18758 8.54212 7.18758C7.97259 7.18758 7.46321 7.36024 7.10149 7.72274C6.93426 7.8927 6.80393 8.09537 6.71868 8.31805C6.55591 8.71574 6.2805 9.05722 5.9263 9.30052C5.5721 9.54383 5.15454 9.67836 4.72493 9.68758C4.21165 9.70477 3.4804 9.84383 2.91399 10.411C2.32649 10.9985 2.08352 11.8852 2.22962 12.911C2.38977 14.0337 2.98821 15.1618 3.91399 16.0876C4.83977 17.0134 5.9679 17.6118 7.09056 17.772C8.11321 17.9181 8.99993 17.6751 9.59056 17.0876C10.157 16.5212 10.2937 15.7899 10.314 15.2766C10.3228 14.8469 10.457 14.4292 10.7 14.0747C10.943 13.7202 11.2843 13.4445 11.682 13.2813C11.9041 13.1949 12.1059 13.0635 12.2749 12.8954C13.2366 11.9368 12.8648 9.93993 11.4624 8.53758H11.4601ZM13.2031 7.6618L14.4531 6.40633L13.5937 5.54696L12.3382 6.79696C12.4945 6.92743 12.6429 7.06415 12.7882 7.20868C12.9335 7.35321 13.0695 7.50712 13.2031 7.6618Z" fill="#191F2E"/>
</svg>
