<svg width="20" height="20" viewBox="0 0 20 20" fill="none" xmlns="http://www.w3.org/2000/svg">
<path d="M19.1922 3.30775L16.6922 0.807755C16.5863 0.701998 16.446 0.637755 16.2967 0.626706C16.1474 0.615657 15.9992 0.658536 15.8789 0.747547C15.7585 0.836557 15.6742 0.96579 15.641 1.11175C15.6079 1.25771 15.6283 1.4107 15.6984 1.54291L10.9781 6.26244C9.19767 5.33588 7.20392 5.41322 5.9961 6.62025C5.67736 6.94036 5.42768 7.32246 5.26251 7.74291C5.21179 7.8569 5.12903 7.95369 5.02432 8.02151C4.9196 8.08934 4.79743 8.12527 4.67267 8.12494C3.53282 8.16322 2.54298 8.57182 1.80939 9.30541C0.865635 10.2515 0.468761 11.6093 0.682823 13.1304C0.890636 14.5859 1.6461 16.0273 2.81251 17.1874C3.97892 18.3476 5.4172 19.1062 6.87501 19.314C7.13625 19.353 7.39994 19.3734 7.66407 19.3749C8.86095 19.3749 9.91642 18.9663 10.6922 18.1906C11.4258 17.457 11.8344 16.4671 11.8727 15.3273C11.8725 15.2023 11.9088 15.0799 11.9771 14.9752C12.0453 14.8704 12.1426 14.7878 12.257 14.7374C12.6775 14.5724 13.0597 14.3227 13.3797 14.0038C14.5867 12.796 14.6641 10.8007 13.7375 9.02182L18.457 4.3015C18.5893 4.37165 18.7422 4.39202 18.8882 4.35891C19.0342 4.3258 19.1634 4.24142 19.2524 4.1211C19.3414 4.00078 19.3843 3.85251 19.3732 3.70325C19.3622 3.55399 19.298 3.41366 19.1922 3.30775ZM15.625 5.36557L14.6344 4.37494L16.5625 2.44604L17.5539 3.43744L15.625 5.36557ZM12.5 13.1195C12.3008 13.3178 12.0628 13.4729 11.8008 13.5749C11.4604 13.7152 11.1682 13.9517 10.9601 14.2554C10.7519 14.5592 10.6368 14.917 10.6289 15.2851C10.6008 16.1023 10.3164 16.8015 9.81407 17.307C9.1547 17.9656 8.17345 18.2406 7.05157 18.0796C5.85939 17.9101 4.66642 17.2804 3.69298 16.307C2.71954 15.3335 2.08985 14.1406 1.92032 12.9538C1.76407 11.8312 2.03439 10.8507 2.69298 10.1913C3.19845 9.68744 3.89767 9.40463 4.71485 9.37494C5.08302 9.36721 5.44093 9.25221 5.7447 9.04405C6.04848 8.8359 6.28491 8.54362 6.42501 8.20307C6.52657 7.93971 6.68166 7.70029 6.88048 7.49994C7.30939 7.07104 7.8961 6.86479 8.55079 6.86479C9.06583 6.87303 9.574 6.98433 10.0453 7.19213L8.47657 8.76479C8.00828 8.81635 7.56408 8.99919 7.19518 9.29223C6.82628 9.58527 6.54769 9.97659 6.39153 10.4211C6.23536 10.8656 6.20797 11.3451 6.31251 11.8045C6.41706 12.2639 6.64928 12.6844 6.98242 13.0175C7.31556 13.3507 7.73605 13.5829 8.19543 13.6874C8.65481 13.792 9.13438 13.7646 9.57887 13.6084C10.0234 13.4523 10.4147 13.1737 10.7077 12.8048C11.0008 12.4359 11.1836 11.9917 11.2352 11.5234L12.8039 9.95463C13.3133 11.1492 13.2399 12.3757 12.5 13.1195ZM11.6875 8.31635C11.8526 8.48244 12.0074 8.65855 12.1508 8.84369L10.9461 10.0484C10.7163 9.63108 10.3728 9.28757 9.95548 9.05775L11.1602 7.85229C11.344 7.99612 11.5188 8.1511 11.6836 8.31635H11.6875ZM8.75001 9.99994C9.08153 9.99994 9.39947 10.1316 9.63389 10.3661C9.86831 10.6005 10 10.9184 10 11.2499C10 11.4972 9.9267 11.7388 9.78935 11.9444C9.652 12.15 9.45677 12.3102 9.22836 12.4048C8.99996 12.4994 8.74862 12.5242 8.50615 12.4759C8.26367 12.4277 8.04094 12.3086 7.86613 12.1338C7.69131 11.959 7.57226 11.7363 7.52403 11.4938C7.4758 11.2513 7.50055 11 7.59516 10.7716C7.68977 10.5432 7.84999 10.348 8.05555 10.2106C8.26111 10.0733 8.50278 9.99994 8.75001 9.99994ZM12.5664 7.43354C12.4006 7.2682 12.2261 7.11174 12.0438 6.96479L13.75 5.25854L14.7414 6.24994L13.0359 7.95463C12.8888 7.77271 12.7323 7.59852 12.5672 7.43275L12.5664 7.43354ZM7.31642 15.1828C7.43369 15.2999 7.49962 15.4589 7.49969 15.6247C7.49976 15.7904 7.43398 15.9495 7.31681 16.0667C7.19964 16.184 7.04068 16.2499 6.8749 16.25C6.70912 16.2501 6.5501 16.1843 6.43282 16.0671L3.93282 13.5671C3.81565 13.4499 3.74987 13.2908 3.74994 13.1251C3.75001 12.9593 3.81594 12.8003 3.93321 12.6831C4.05049 12.566 4.20951 12.5002 4.37529 12.5003C4.54107 12.5003 4.70003 12.5663 4.8172 12.6835L7.31642 15.1828Z" fill="#191F2E"/>
</svg>
