<svg width="20" height="20" viewBox="0 0 20 20" fill="none" xmlns="http://www.w3.org/2000/svg">
<path d="M17.8047 11.9312L14.7031 13.0594L11.9109 11.9422C11.6873 11.8526 11.4377 11.8526 11.2141 11.9422L8.43751 13.0531L5.66094 11.9422C5.44695 11.8564 5.20887 11.8525 4.99219 11.9312L1.55469 13.1812C1.43897 13.2233 1.33266 13.2878 1.24184 13.3709C1.15101 13.4541 1.07746 13.5543 1.02537 13.6659C0.920176 13.8912 0.908803 14.1491 0.993755 14.3828C1.07871 14.6165 1.25303 14.8069 1.47836 14.9121C1.7037 15.0173 1.9616 15.0287 2.19532 14.9438L2.82969 14.7133C2.91466 15.5618 3.31153 16.3485 3.94344 16.9211C4.57534 17.4937 5.39728 17.8113 6.25001 17.8125H13.75C14.6614 17.8115 15.5351 17.449 16.1795 16.8045C16.824 16.1601 17.1865 15.2864 17.1875 14.375V14.1508L18.4453 13.6938C18.561 13.6517 18.6674 13.5872 18.7582 13.5041C18.849 13.4209 18.9226 13.3207 18.9746 13.2091C19.0267 13.0976 19.0563 12.9768 19.0618 12.8538C19.0672 12.7308 19.0483 12.6079 19.0063 12.4922C18.9642 12.3765 18.8997 12.2702 18.8166 12.1793C18.7334 12.0885 18.6332 12.015 18.5216 11.9629C18.4101 11.9108 18.2893 11.8812 18.1663 11.8758C18.0433 11.8703 17.9204 11.8892 17.8047 11.9312ZM13.75 15.9375H6.25001C5.8356 15.9375 5.43818 15.7729 5.14515 15.4799C4.85213 15.1868 4.68751 14.7894 4.68751 14.375V14.0375L5.29688 13.8156L8.08907 14.9328C8.31273 15.0224 8.56228 15.0224 8.78594 14.9328L11.5625 13.8219L14.3391 14.9328C14.5531 15.0186 14.7911 15.0225 15.0078 14.9438L15.2336 14.8609C15.1312 15.1738 14.9327 15.4463 14.6663 15.6396C14.3998 15.833 14.0792 15.9372 13.75 15.9375ZM0.937505 10C0.937505 9.75136 1.03628 9.5129 1.21209 9.33709C1.38791 9.16127 1.62636 9.0625 1.87501 9.0625H18.125C18.3736 9.0625 18.6121 9.16127 18.7879 9.33709C18.9637 9.5129 19.0625 9.75136 19.0625 10C19.0625 10.2486 18.9637 10.4871 18.7879 10.6629C18.6121 10.8387 18.3736 10.9375 18.125 10.9375H1.87501C1.62636 10.9375 1.38791 10.8387 1.21209 10.6629C1.03628 10.4871 0.937505 10.2486 0.937505 10ZM3.76563 8.125H16.2344C16.4835 8.1248 16.7291 8.06609 16.9514 7.95359C17.1736 7.8411 17.3664 7.67797 17.5141 7.47734C17.6583 7.28186 17.754 7.05484 17.7931 6.81506C17.8322 6.57529 17.8137 6.32964 17.7391 6.09844C16.8844 3.42812 13.7023 1.5625 10 1.5625C6.29766 1.5625 3.11641 3.42734 2.26094 6.09766C2.18612 6.32883 2.1675 6.57452 2.20663 6.81433C2.24576 7.05414 2.34151 7.28116 2.48594 7.47656C2.63337 7.67751 2.82604 7.84093 3.04836 7.95358C3.27068 8.06623 3.5164 8.12496 3.76563 8.125ZM10 3.4375C12.6328 3.4375 14.9695 4.59766 15.7813 6.25H4.21876C5.03126 4.59766 7.36797 3.4375 10 3.4375Z" fill="#191F2E"/>
</svg>
