<svg width="20" height="20" viewBox="0 0 20 20" fill="none" xmlns="http://www.w3.org/2000/svg">
<path d="M3.75547 8.125H16.2445C16.4316 8.12595 16.6166 8.08488 16.7857 8.00483C16.9548 7.92477 17.1038 7.80778 17.2217 7.66246C17.3395 7.51715 17.4233 7.34723 17.4667 7.16524C17.5102 6.98325 17.5122 6.79382 17.4727 6.61094C16.8922 3.86719 13.75 1.875 10 1.875C6.25 1.875 3.10781 3.86719 2.52734 6.61094C2.48781 6.79382 2.48985 6.98325 2.53329 7.16524C2.57673 7.34723 2.66048 7.51715 2.77834 7.66246C2.89621 7.80778 3.0452 7.92477 3.21432 8.00483C3.38343 8.08488 3.56836 8.12595 3.75547 8.125ZM10 3.125C13.1109 3.125 15.7977 4.73516 16.2445 6.875H3.75547L3.75 6.86953C4.20234 4.73516 6.88906 3.125 10 3.125ZM17.9109 11.9125L14.6977 13.0844L11.7969 11.9195C11.6479 11.86 11.4818 11.86 11.3328 11.9195L8.44219 13.0766L5.54688 11.9195C5.40434 11.8626 5.24583 11.8601 5.10156 11.9125L1.66406 13.1625C1.51878 13.2264 1.40327 13.3433 1.34098 13.4893C1.2787 13.6353 1.2743 13.7995 1.32868 13.9487C1.38306 14.0978 1.49215 14.2206 1.6338 14.2923C1.77546 14.3639 1.93906 14.379 2.09141 14.3344L3.125 13.9602V14.375C3.125 15.2038 3.45424 15.9987 4.04029 16.5847C4.62634 17.1708 5.4212 17.5 6.25 17.5H13.75C14.5788 17.5 15.3737 17.1708 15.9597 16.5847C16.5458 15.9987 16.875 15.2038 16.875 14.375V13.6195L18.3383 13.0875C18.4203 13.0635 18.4966 13.0229 18.5623 12.9682C18.6281 12.9136 18.6819 12.846 18.7205 12.7697C18.7591 12.6934 18.7816 12.61 18.7866 12.5247C18.7917 12.4393 18.7792 12.3539 18.7499 12.2735C18.7206 12.1932 18.6752 12.1198 18.6163 12.0577C18.5575 11.9957 18.4866 11.9463 18.408 11.9128C18.3293 11.8792 18.2447 11.8622 18.1592 11.8627C18.0737 11.8632 17.9892 11.8812 17.9109 11.9156V11.9125ZM15.625 14.375C15.625 14.8723 15.4275 15.3492 15.0758 15.7008C14.7242 16.0525 14.2473 16.25 13.75 16.25H6.25C5.75272 16.25 5.27581 16.0525 4.92417 15.7008C4.57254 15.3492 4.375 14.8723 4.375 14.375V13.5063L5.30234 13.1687L8.20312 14.3305C8.35208 14.39 8.51823 14.39 8.66719 14.3305L11.5578 13.1734L14.4484 14.3305C14.591 14.3874 14.7495 14.3899 14.8938 14.3375L15.618 14.0742L15.625 14.375ZM1.25 10C1.25 9.83424 1.31585 9.67527 1.43306 9.55806C1.55027 9.44085 1.70924 9.375 1.875 9.375H18.125C18.2908 9.375 18.4497 9.44085 18.5669 9.55806C18.6842 9.67527 18.75 9.83424 18.75 10C18.75 10.1658 18.6842 10.3247 18.5669 10.4419C18.4497 10.5592 18.2908 10.625 18.125 10.625H1.875C1.70924 10.625 1.55027 10.5592 1.43306 10.4419C1.31585 10.3247 1.25 10.1658 1.25 10Z" fill="#191F2E"/>
</svg>
