<svg width="20" height="20" viewBox="0 0 20 20" fill="none" xmlns="http://www.w3.org/2000/svg">
<path d="M19.5453 8.21641L14.5867 3.22266C13.1204 1.75943 11.1336 0.937653 9.06211 0.937653C6.99064 0.937653 5.00377 1.75943 3.5375 3.22266L3.52734 3.2336L2.45078 4.34454C2.27777 4.52315 2.18279 4.76317 2.18675 5.0118C2.1907 5.26043 2.29327 5.49731 2.47187 5.67032C2.65048 5.84333 2.8905 5.93831 3.13913 5.93435C3.38777 5.9304 3.62464 5.82783 3.79766 5.64923L4.86875 4.54376C5.22335 4.18927 5.62159 3.88133 6.05391 3.62735L9.29687 6.87501L2.01953 14.1531C1.87437 14.2982 1.75922 14.4705 1.68066 14.6601C1.6021 14.8497 1.56166 15.053 1.56166 15.2582C1.56166 15.4635 1.6021 15.6667 1.68066 15.8563C1.75922 16.0459 1.87437 16.2182 2.01953 16.3633L3.63594 17.9797C3.92895 18.2726 4.3263 18.4372 4.74062 18.4372C5.15494 18.4372 5.5523 18.2726 5.84531 17.9797L13.125 10.7031L13.243 10.8211L15.0906 12.6695C15.2357 12.8147 15.408 12.9298 15.5976 13.0084C15.7872 13.087 15.9905 13.1274 16.1957 13.1274C16.4009 13.1274 16.6042 13.087 16.7938 13.0084C16.9834 12.9298 17.1557 12.8147 17.3008 12.6695L19.5422 10.4274C19.6877 10.2824 19.8032 10.1103 19.8821 9.92071C19.961 9.73113 20.0017 9.52787 20.002 9.32253C20.0023 9.11719 19.9621 8.91381 19.8838 8.72402C19.8054 8.53422 19.6904 8.36173 19.5453 8.21641ZM4.74062 16.4328L3.56875 15.2609L8.4375 10.3906L9.60937 11.5625L4.74062 16.4328ZM10.9375 10.2344L9.76562 9.06251L11.2898 7.53829C11.3772 7.45119 11.4466 7.3477 11.4939 7.23374C11.5412 7.11979 11.5656 6.99761 11.5656 6.87423C11.5656 6.75084 11.5412 6.62866 11.4939 6.51471C11.4466 6.40075 11.3772 6.29726 11.2898 6.21016L7.9875 2.90938C8.93297 2.73466 9.90674 2.79234 10.825 3.07746C11.7432 3.36258 12.5784 3.86659 13.2586 4.5461L15.7148 7.02032L13.9062 8.82813L13.7883 8.71016C13.7012 8.62276 13.5977 8.55342 13.4837 8.5061C13.3698 8.45878 13.2476 8.43443 13.1242 8.43443C13.0008 8.43443 12.8787 8.45878 12.7647 8.5061C12.6507 8.55342 12.5473 8.62276 12.4602 8.71016L10.9375 10.2344ZM16.1969 11.118L15.2344 10.1563L17.0383 8.35235L17.9992 9.32032L16.1969 11.118Z" fill="#191F2E"/>
</svg>
