<svg width="20" height="20" viewBox="0 0 20 20" fill="none" xmlns="http://www.w3.org/2000/svg">
<path d="M14.6875 6.87488C14.3631 6.87442 14.0427 6.94677 13.75 7.0866V4.68738C13.7499 4.3083 13.6513 3.93575 13.4638 3.60626C13.2764 3.27676 13.0065 3.00164 12.6807 2.80785C12.3549 2.61407 11.9843 2.50828 11.6053 2.50086C11.2263 2.49343 10.8519 2.58463 10.5188 2.76551C10.3584 2.26987 10.0264 1.84774 9.58249 1.57506C9.13861 1.30239 8.61199 1.19708 8.09739 1.27807C7.58278 1.35907 7.11397 1.62105 6.77531 2.0169C6.43666 2.41274 6.25038 2.91644 6.25 3.43738V3.9616C5.95728 3.82178 5.6369 3.74942 5.3125 3.74988C4.73234 3.74988 4.17594 3.98035 3.7657 4.39059C3.35547 4.80082 3.125 5.35722 3.125 5.93738V11.8749C3.125 13.6982 3.84933 15.4469 5.13864 16.7362C6.42795 18.0256 8.17664 18.7499 10 18.7499C11.8234 18.7499 13.572 18.0256 14.8614 16.7362C16.1507 15.4469 16.875 13.6982 16.875 11.8749V9.06238C16.875 8.48222 16.6445 7.92582 16.2343 7.51559C15.8241 7.10535 15.2677 6.87488 14.6875 6.87488ZM15.625 11.8749C15.625 13.3667 15.0324 14.7975 13.9775 15.8524C12.9226 16.9072 11.4918 17.4999 10 17.4999C8.50816 17.4999 7.07742 16.9072 6.02252 15.8524C4.96763 14.7975 4.375 13.3667 4.375 11.8749V5.93738C4.375 5.68874 4.47377 5.45028 4.64959 5.27447C4.8254 5.09865 5.06386 4.99988 5.3125 4.99988C5.56114 4.99988 5.7996 5.09865 5.97541 5.27447C6.15123 5.45028 6.25 5.68874 6.25 5.93738V9.37488C6.25 9.54064 6.31585 9.69961 6.43306 9.81682C6.55027 9.93403 6.70924 9.99988 6.875 9.99988C7.04076 9.99988 7.19973 9.93403 7.31694 9.81682C7.43415 9.69961 7.5 9.54064 7.5 9.37488V3.43738C7.5 3.18874 7.59877 2.95028 7.77459 2.77447C7.9504 2.59865 8.18886 2.49988 8.4375 2.49988C8.68614 2.49988 8.9246 2.59865 9.10041 2.77447C9.27623 2.95028 9.375 3.18874 9.375 3.43738V8.74988C9.375 8.91564 9.44085 9.07461 9.55806 9.19182C9.67527 9.30903 9.83424 9.37488 10 9.37488C10.1658 9.37488 10.3247 9.30903 10.4419 9.19182C10.5592 9.07461 10.625 8.91564 10.625 8.74988V4.68738C10.625 4.43874 10.7238 4.20028 10.8996 4.02447C11.0754 3.84865 11.3139 3.74988 11.5625 3.74988C11.8111 3.74988 12.0496 3.84865 12.2254 4.02447C12.4012 4.20028 12.5 4.43874 12.5 4.68738V10.0522C11.6267 10.2011 10.8342 10.6538 10.2623 11.3304C9.6905 12.0071 9.37622 12.864 9.375 13.7499C9.375 13.9156 9.44085 14.0746 9.55806 14.1918C9.67527 14.309 9.83424 14.3749 10 14.3749C10.1658 14.3749 10.3247 14.309 10.4419 14.1918C10.5592 14.0746 10.625 13.9156 10.625 13.7499C10.625 13.0868 10.8884 12.451 11.3572 11.9821C11.8261 11.5133 12.462 11.2499 13.125 11.2499C13.2908 11.2499 13.4497 11.184 13.5669 11.0668C13.6842 10.9496 13.75 10.7906 13.75 10.6249V9.06238C13.75 8.81374 13.8488 8.57528 14.0246 8.39947C14.2004 8.22365 14.4389 8.12488 14.6875 8.12488C14.9361 8.12488 15.1746 8.22365 15.3504 8.39947C15.5262 8.57528 15.625 8.81374 15.625 9.06238V11.8749Z" fill="#191F2E"/>
</svg>
