<svg width="20" height="20" viewBox="0 0 20 20" fill="none" xmlns="http://www.w3.org/2000/svg">
<path d="M17.1875 12.1875V15C17.1875 16.082 17.0601 17.0719 16.8297 17.7875C16.7503 18.0202 16.5827 18.2125 16.3629 18.3228C16.1432 18.4331 15.8889 18.4526 15.6548 18.3772C15.4208 18.3018 15.2257 18.1375 15.1117 17.9196C14.9977 17.7017 14.9739 17.4478 15.0453 17.2125C15.2125 16.693 15.3125 15.8656 15.3125 15V12.1875C15.3125 12.0217 15.2466 11.8628 15.1294 11.7456C15.0122 11.6283 14.8533 11.5625 14.6875 11.5625C14.5217 11.5625 14.3628 11.6283 14.2456 11.7456C14.1283 11.8628 14.0625 12.0217 14.0625 12.1875V12.5C14.0625 12.7486 13.9637 12.9871 13.7879 13.1629C13.6121 13.3387 13.3736 13.4375 13.125 13.4375C12.8764 13.4375 12.6379 13.3387 12.4621 13.1629C12.2863 12.9871 12.1875 12.7486 12.1875 12.5V10.9375C12.1875 10.7717 12.1216 10.6128 12.0044 10.4956C11.8872 10.3783 11.7283 10.3125 11.5625 10.3125C11.3967 10.3125 11.2378 10.3783 11.1206 10.4956C11.0033 10.6128 10.9375 10.7717 10.9375 10.9375V11.875C10.9375 12.1236 10.8387 12.3621 10.6629 12.5379C10.4871 12.7137 10.2486 12.8125 9.99999 12.8125C9.75135 12.8125 9.5129 12.7137 9.33708 12.5379C9.16126 12.3621 9.06249 12.1236 9.06249 11.875V6.5625C9.06249 6.39674 8.99664 6.23777 8.87943 6.12056C8.76222 6.00335 8.60325 5.9375 8.43749 5.9375C8.27173 5.9375 8.11276 6.00335 7.99555 6.12056C7.87834 6.23777 7.81249 6.39674 7.81249 6.5625V15C7.81226 15.2035 7.74581 15.4015 7.62316 15.5639C7.50051 15.7263 7.32834 15.8444 7.13265 15.9003C6.93696 15.9563 6.72838 15.947 6.53842 15.8739C6.34846 15.8009 6.18744 15.668 6.07968 15.4953L4.62031 13.1516L4.6039 13.125C4.52185 12.9807 4.38583 12.8749 4.22576 12.8308C4.0657 12.7868 3.8947 12.8082 3.75038 12.8902C3.60607 12.9723 3.50026 13.1083 3.45623 13.2684C3.4122 13.4284 3.43357 13.5994 3.51562 13.7437L5.48984 17.0156C5.6182 17.2286 5.65669 17.4839 5.59684 17.7253C5.53699 17.9667 5.3837 18.1744 5.1707 18.3027C4.95769 18.4311 4.70243 18.4696 4.46105 18.4097C4.21967 18.3499 4.01195 18.1966 3.88359 17.9836L1.90624 14.7023L1.89687 14.6867C1.58666 14.1497 1.48713 13.5166 1.61761 12.9103C1.74809 12.304 2.09926 11.7678 2.60292 11.4059C3.10657 11.0441 3.72675 10.8823 4.34299 10.9521C4.95922 11.0219 5.52752 11.3183 5.93749 11.7836V6.5625C5.93749 5.89946 6.20089 5.26357 6.66973 4.79473C7.13857 4.32589 7.77445 4.0625 8.43749 4.0625C9.10053 4.0625 9.73642 4.32589 10.2053 4.79473C10.6741 5.26357 10.9375 5.89946 10.9375 6.5625V8.51562C11.4961 8.37143 12.0875 8.4249 12.6112 8.66697C13.1349 8.90904 13.5588 9.3248 13.8109 9.84375C14.1893 9.70208 14.5964 9.65424 14.9974 9.70432C15.3983 9.7544 15.7811 9.90091 16.113 10.1313C16.445 10.3617 16.7161 10.6691 16.9032 11.0272C17.0903 11.3853 17.1879 11.7835 17.1875 12.1875ZM3.74999 7.5C3.99863 7.5 4.23709 7.40123 4.41291 7.22541C4.58872 7.0496 4.68749 6.81114 4.68749 6.5625C4.68749 5.56794 5.08258 4.61411 5.78584 3.91085C6.4891 3.20759 7.44293 2.8125 8.43749 2.8125C9.43205 2.8125 10.3859 3.20759 11.0891 3.91085C11.7924 4.61411 12.1875 5.56794 12.1875 6.5625C12.1875 6.81114 12.2863 7.0496 12.4621 7.22541C12.6379 7.40123 12.8764 7.5 13.125 7.5C13.3736 7.5 13.6121 7.40123 13.7879 7.22541C13.9637 7.0496 14.0625 6.81114 14.0625 6.5625C14.0625 5.07066 13.4699 3.63992 12.415 2.58502C11.3601 1.53013 9.92934 0.9375 8.43749 0.9375C6.94565 0.9375 5.51491 1.53013 4.46002 2.58502C3.40513 3.63992 2.81249 5.07066 2.81249 6.5625C2.81249 6.81114 2.91127 7.0496 3.08708 7.22541C3.2629 7.40123 3.50135 7.5 3.74999 7.5Z" fill="#191F2E"/>
</svg>
