<svg width="20" height="20" viewBox="0 0 20 20" fill="none" xmlns="http://www.w3.org/2000/svg">
<path d="M16.875 8.125V11.875C16.875 13.6984 16.1507 15.447 14.8614 16.7364C13.572 18.0257 11.8234 18.75 10 18.75C8.17664 18.75 6.42795 18.0257 5.13864 16.7364C3.84933 15.447 3.125 13.6984 3.125 11.875V10.625C3.125 10.2935 3.2567 9.97554 3.49112 9.74112C3.72554 9.5067 4.04348 9.375 4.375 9.375C4.70652 9.375 5.02446 9.5067 5.25888 9.74112C5.4933 9.97554 5.625 10.2935 5.625 10.625V11.25C5.625 11.4158 5.69085 11.5747 5.80806 11.6919C5.92527 11.8092 6.08424 11.875 6.25 11.875C6.41576 11.875 6.57473 11.8092 6.69194 11.6919C6.80915 11.5747 6.875 11.4158 6.875 11.25V6.875C6.875 6.54348 7.0067 6.22554 7.24112 5.99112C7.47554 5.7567 7.79348 5.625 8.125 5.625C8.45652 5.625 8.77446 5.7567 9.00888 5.99112C9.2433 6.22554 9.375 6.54348 9.375 6.875V8.125C9.375 8.29076 9.44085 8.44973 9.55806 8.56694C9.67527 8.68415 9.83424 8.75 10 8.75C10.1658 8.75 10.3247 8.68415 10.4419 8.56694C10.5592 8.44973 10.625 8.29076 10.625 8.125V6.875C10.625 6.54348 10.7567 6.22554 10.9911 5.99112C11.2255 5.7567 11.5435 5.625 11.875 5.625C12.2065 5.625 12.5245 5.7567 12.7589 5.99112C12.9933 6.22554 13.125 6.54348 13.125 6.875V8.125C13.125 8.29076 13.1908 8.44973 13.3081 8.56694C13.4253 8.68415 13.5842 8.75 13.75 8.75C13.9158 8.75 14.0747 8.68415 14.1919 8.56694C14.3092 8.44973 14.375 8.29076 14.375 8.125C14.375 7.79348 14.5067 7.47554 14.7411 7.24112C14.9755 7.0067 15.2935 6.875 15.625 6.875C15.9565 6.875 16.2745 7.0067 16.5089 7.24112C16.7433 7.47554 16.875 7.79348 16.875 8.125Z" fill="#191F2E"/>
</svg>
