<svg width="20" height="20" viewBox="0 0 20 20" fill="none" xmlns="http://www.w3.org/2000/svg">
<path d="M16.25 9.99998V13.9789C16.25 15.9781 15.5875 17.0984 15.5594 17.1547C15.5074 17.2585 15.4276 17.3458 15.3288 17.4068C15.23 17.4678 15.1161 17.5001 15 17.5H4.37501C4.26606 17.5 4.15899 17.4715 4.06443 17.4174C3.96987 17.3633 3.89111 17.2853 3.83595 17.1914L1.41798 12.5C1.33331 12.3534 1.27927 12.1912 1.25916 12.0232C1.23905 11.8551 1.25328 11.6847 1.30098 11.5223C1.34868 11.3599 1.42886 11.2089 1.53667 11.0784C1.64448 10.948 1.77766 10.8407 1.92814 10.7633C2.52657 10.4508 3.26407 10.6976 3.60001 11.2804L5.24064 14.1273C5.28627 14.2093 5.35511 14.2759 5.43851 14.3189C5.52192 14.3619 5.61616 14.3792 5.70939 14.3687H5.71876C5.86889 14.3429 6.00488 14.2643 6.10226 14.1472C6.19964 14.03 6.25203 13.882 6.25001 13.7297V4.37498C6.24982 4.20564 6.28403 4.03803 6.35057 3.88231C6.41712 3.7266 6.51461 3.58603 6.63713 3.46913C6.75965 3.35224 6.90465 3.26145 7.06332 3.20229C7.22199 3.14313 7.39102 3.11683 7.56017 3.12498C8.23282 3.15623 8.75001 3.73592 8.75001 4.40857V9.99998C8.74982 10.0857 8.76725 10.1705 8.80122 10.2491C8.83519 10.3278 8.88496 10.3986 8.94746 10.4572C9.00995 10.5158 9.08383 10.561 9.16451 10.5898C9.24518 10.6187 9.33093 10.6307 9.41642 10.625C9.57713 10.6112 9.72666 10.537 9.83493 10.4175C9.9432 10.2979 10.0022 10.1417 10 9.98045V8.74998C9.99981 8.58064 10.034 8.41303 10.1006 8.25731C10.1671 8.1016 10.2646 7.96102 10.3871 7.84413C10.5097 7.72723 10.6546 7.63645 10.8133 7.57729C10.972 7.51813 11.141 7.49183 11.3102 7.49998C11.9828 7.53123 12.5 8.11092 12.5 8.78357V10.625C12.4998 10.7107 12.5173 10.7955 12.5512 10.8741C12.5852 10.9528 12.635 11.0236 12.6975 11.0822C12.76 11.1408 12.8338 11.186 12.9145 11.2148C12.9952 11.2437 13.0809 11.2557 13.1664 11.25C13.3271 11.236 13.4765 11.1618 13.5847 11.0423C13.693 10.9227 13.752 10.7667 13.75 10.6054V10.0367C13.75 9.36404 14.2672 8.7867 14.9399 8.75311C15.1087 8.74497 15.2775 8.77118 15.436 8.83015C15.5944 8.88911 15.7393 8.97962 15.8618 9.09618C15.9842 9.21274 16.0818 9.35293 16.1485 9.50828C16.2153 9.66363 16.2498 9.8309 16.25 9.99998ZM19.1922 3.93279L16.6922 1.43279C16.5749 1.31552 16.4159 1.24963 16.25 1.24963C16.0842 1.24963 15.9251 1.31552 15.8078 1.43279C15.6905 1.55007 15.6247 1.70913 15.6247 1.87498C15.6247 2.04083 15.6905 2.19989 15.8078 2.31717L17.2414 3.74998H13.125C12.9593 3.74998 12.8003 3.81583 12.6831 3.93304C12.5659 4.05025 12.5 4.20922 12.5 4.37498C12.5 4.54074 12.5659 4.69971 12.6831 4.81692C12.8003 4.93413 12.9593 4.99998 13.125 4.99998H17.2414L15.8078 6.43279C15.6905 6.55007 15.6247 6.70913 15.6247 6.87498C15.6247 7.04083 15.6905 7.19989 15.8078 7.31717C15.9251 7.43444 16.0842 7.50033 16.25 7.50033C16.4159 7.50033 16.5749 7.43444 16.6922 7.31717L19.1922 4.81717C19.2503 4.75912 19.2964 4.69019 19.3279 4.61432C19.3593 4.53844 19.3755 4.45712 19.3755 4.37498C19.3755 4.29285 19.3593 4.21152 19.3279 4.13564C19.2964 4.05977 19.2503 3.99084 19.1922 3.93279Z" fill="#191F2E"/>
</svg>
