<svg width="20" height="20" viewBox="0 0 20 20" fill="none" xmlns="http://www.w3.org/2000/svg">
<path d="M13.125 1.875V0.625C13.125 0.45924 13.1908 0.300269 13.308 0.183058C13.4252 0.065848 13.5842 0 13.75 0C13.9157 0 14.0747 0.065848 14.1919 0.183058C14.3091 0.300269 14.375 0.45924 14.375 0.625V1.875C14.375 2.04076 14.3091 2.19973 14.1919 2.31694C14.0747 2.43415 13.9157 2.5 13.75 2.5C13.5842 2.5 13.4252 2.43415 13.308 2.31694C13.1908 2.19973 13.125 2.04076 13.125 1.875ZM15.9242 3.20312C16.0225 3.26225 16.1353 3.29282 16.25 3.29141C16.3572 3.29158 16.4627 3.26414 16.5563 3.21174C16.6499 3.15933 16.7284 3.08372 16.7843 2.99219L17.4093 1.96797C17.4528 1.89788 17.482 1.81988 17.4952 1.73846C17.5084 1.65703 17.5054 1.5738 17.4862 1.49356C17.4671 1.41332 17.4323 1.33766 17.3838 1.27094C17.3353 1.20422 17.2741 1.14776 17.2037 1.10482C17.1332 1.06187 17.055 1.03329 16.9735 1.02072C16.892 1.00816 16.8088 1.01185 16.7287 1.03159C16.6486 1.05133 16.5732 1.08673 16.5069 1.13575C16.4405 1.18477 16.3845 1.24643 16.3421 1.31719L15.7171 2.34062C15.6738 2.41077 15.6448 2.48879 15.6317 2.5702C15.6187 2.65161 15.6219 2.7348 15.6411 2.81497C15.6604 2.89514 15.6953 2.97071 15.7439 3.03733C15.7924 3.10394 15.8537 3.16029 15.9242 3.20312ZM19.6304 4.18672C19.6052 4.10859 19.5649 4.03618 19.5118 3.97363C19.4586 3.91109 19.3936 3.85963 19.3206 3.82219C19.2475 3.78476 19.1678 3.76208 19.086 3.75546C19.0042 3.74884 18.9218 3.7584 18.8437 3.78359L17.6718 4.1625C17.5298 4.20792 17.4086 4.30266 17.3303 4.4296C17.2519 4.55654 17.2216 4.7073 17.2447 4.85466C17.2678 5.00202 17.3429 5.13625 17.4563 5.23311C17.5697 5.32997 17.7141 5.38307 17.8632 5.38281C17.9285 5.38256 17.9933 5.37229 18.0554 5.35234L19.2273 4.97344C19.3058 4.94828 19.3785 4.90784 19.4413 4.85446C19.5041 4.80108 19.5557 4.7358 19.5932 4.66239C19.6307 4.58898 19.6532 4.50888 19.6596 4.42671C19.666 4.34454 19.6561 4.26191 19.6304 4.18359V4.18672ZM17.2867 7.30703C17.9777 8.49564 18.256 9.87952 18.078 11.2429C17.9001 12.6062 17.276 13.8723 16.3031 14.8438C15.9655 16.0235 15.2881 17.0777 14.3554 17.8751C13.4227 18.6724 12.2759 19.1775 11.058 19.3275C9.84015 19.4774 8.60508 19.2656 7.50681 18.7183C6.40853 18.171 5.49565 17.3126 4.88198 16.25L2.14761 11.5133C1.98065 11.2237 1.88775 10.8974 1.87712 10.5633C1.8665 10.2292 1.93849 9.89766 2.08671 9.59805C2.23493 9.29845 2.45479 9.04006 2.7268 8.84579C2.99881 8.65152 3.31456 8.52738 3.64604 8.48438L3.33354 7.94219C3.16918 7.65749 3.07638 7.33715 3.06309 7.00868C3.04981 6.68021 3.11645 6.35343 3.25729 6.05639C3.39812 5.75935 3.60895 5.50093 3.87166 5.30332C4.13438 5.10571 4.44113 4.97481 4.76557 4.92188C4.60284 4.47379 4.60289 3.98275 4.76571 3.53471C4.92853 3.08666 5.24376 2.71015 5.6562 2.47109C6.03439 2.25354 6.47249 2.16329 6.90588 2.21365C7.33927 2.264 7.745 2.45231 8.06323 2.75078C8.25815 2.46942 8.521 2.24187 8.82739 2.08927C9.13377 1.93668 9.47375 1.86398 9.81575 1.87793C10.1578 1.89188 10.4907 1.99203 10.7836 2.16908C11.0766 2.34612 11.32 2.59432 11.4914 2.89062L12.4289 4.51484C12.6318 4.24905 12.8973 4.03749 13.2017 3.89894C13.5061 3.76039 13.84 3.69914 14.1737 3.72063C14.5074 3.74212 14.8307 3.84567 15.1148 4.02211C15.3989 4.19855 15.6351 4.44241 15.8023 4.73203L17.2867 7.30703ZM9.0562 4.29688L9.51948 5.09922C9.67417 5.24049 9.80595 5.40496 9.91011 5.58672L10.8476 7.20781C11.1557 6.80763 11.6009 6.5355 12.0976 6.44375L10.4093 3.51562C10.3057 3.33619 10.1351 3.20526 9.93495 3.15164C9.73481 3.09802 9.52157 3.12609 9.34214 3.22969C9.1627 3.33329 9.03178 3.50393 8.97815 3.70406C8.92453 3.9042 8.9526 4.11744 9.0562 4.29688ZM5.99526 4.62109L6.45854 5.42422L6.48354 5.44688C6.63511 5.22742 6.82853 5.04005 7.05269 4.89553C7.27685 4.751 7.52734 4.65217 7.78979 4.60469L7.34839 3.83984C7.27114 3.70601 7.15595 3.5981 7.01737 3.52974C6.87879 3.46138 6.72306 3.43565 6.56986 3.4558C6.41666 3.47596 6.27287 3.54109 6.15669 3.64296C6.0405 3.74483 5.95714 3.87887 5.91714 4.02813C5.89023 4.12721 5.88328 4.23066 5.89669 4.33245C5.91011 4.43424 5.94361 4.53236 5.99526 4.62109ZM15.1242 14.4195C15.2958 13.7854 15.3399 13.1235 15.2541 12.4722C15.1683 11.8209 14.9542 11.193 14.6242 10.625L13.1398 8.05391C13.0388 7.88083 12.8752 7.75316 12.6828 7.69728C12.4904 7.6414 12.2839 7.6616 12.1059 7.75368C11.9279 7.84577 11.7922 8.00271 11.7267 8.19207C11.6611 8.38142 11.6709 8.58871 11.7539 8.77109L12.646 10.3125C12.7289 10.4562 12.7513 10.6269 12.7083 10.7871C12.6653 10.9473 12.5604 11.0839 12.4167 11.1668C12.2731 11.2497 12.1023 11.2721 11.9421 11.2291C11.7819 11.1861 11.6453 11.0812 11.5624 10.9375L8.82807 6.21328C8.7208 6.04341 8.55221 5.9214 8.35732 5.87259C8.16243 5.82378 7.95623 5.85193 7.78155 5.95119C7.60688 6.05044 7.47715 6.21317 7.41933 6.40558C7.3615 6.59798 7.38002 6.80527 7.47104 6.98438L9.39526 10.3125C9.4389 10.3836 9.46784 10.4628 9.48038 10.5453C9.49292 10.6278 9.48881 10.712 9.46829 10.7929C9.44777 10.8738 9.41125 10.9498 9.36089 11.0164C9.31054 11.0829 9.24736 11.1387 9.17509 11.1805C9.10282 11.2222 9.02291 11.249 8.9401 11.2594C8.85728 11.2698 8.77323 11.2635 8.6929 11.2408C8.61257 11.2182 8.53759 11.1797 8.47238 11.1276C8.40717 11.0755 8.35306 11.0108 8.31323 10.9375L5.7687 6.53594C5.71778 6.44637 5.64964 6.36776 5.56821 6.30464C5.48678 6.24151 5.39367 6.19511 5.29424 6.16812C5.19481 6.14112 5.09102 6.13406 4.98885 6.14734C4.88667 6.16062 4.78814 6.19398 4.69891 6.2455C4.60968 6.29701 4.53153 6.36567 4.46894 6.44752C4.40636 6.52936 4.36058 6.62278 4.33425 6.72239C4.30791 6.82199 4.30154 6.92583 4.3155 7.02791C4.32945 7.12999 4.36347 7.2283 4.41557 7.31719L7.22807 12.1891C7.26911 12.2602 7.29574 12.3386 7.30645 12.42C7.31716 12.5014 7.31173 12.5841 7.29047 12.6634C7.26922 12.7427 7.23255 12.817 7.18257 12.8822C7.13259 12.9473 7.07027 13.0019 6.99917 13.043C6.92807 13.084 6.84958 13.1106 6.76819 13.1213C6.6868 13.1321 6.6041 13.1266 6.52481 13.1054C6.44551 13.0841 6.37118 13.0474 6.30606 12.9975C6.24094 12.9475 6.1863 12.8852 6.14526 12.8141L4.58276 10.1078C4.47843 9.92984 4.30793 9.80036 4.10848 9.74763C3.90903 9.6949 3.69682 9.72319 3.51816 9.82635C3.33949 9.9295 3.20889 10.0991 3.15483 10.2982C3.10078 10.4973 3.12767 10.7097 3.22964 10.8891L5.96401 15.6258C6.45844 16.4823 7.19579 17.173 8.08279 17.6105C8.96979 18.0479 9.9666 18.2125 10.9471 18.0833C11.9277 17.9542 12.8479 17.5372 13.5914 16.885C14.3349 16.2329 14.8683 15.3749 15.1242 14.4195ZM16.2039 7.92891L14.7195 5.35781C14.6151 5.17984 14.4446 5.05036 14.2452 4.99763C14.0457 4.9449 13.8335 4.97319 13.6549 5.07635C13.4762 5.1795 13.3456 5.34914 13.2916 5.54823C13.2375 5.74733 13.2644 5.95972 13.3664 6.13906L13.8281 6.93984C13.9827 7.08176 14.1145 7.24672 14.2187 7.42891L15.7031 10C16.1201 10.7208 16.3892 11.5176 16.4945 12.3438C16.7891 11.6351 16.9161 10.8681 16.8657 10.1023C16.8153 9.33657 16.5888 8.59279 16.2039 7.92891Z" fill="#191F2E"/>
</svg>
