<svg width="20" height="20" viewBox="0 0 20 20" fill="none" xmlns="http://www.w3.org/2000/svg">
<path d="M16.875 4.99998V12.1039C16.875 15.7133 13.996 18.7094 10.3906 18.7492C9.51551 18.761 8.64698 18.5971 7.83643 18.2671C7.02589 17.9371 6.28981 17.4478 5.67183 16.8281C3.96792 15.0258 2.04292 10.625 2.04292 10.625C1.95824 10.4784 1.90421 10.3162 1.8841 10.1482C1.86399 9.98011 1.87821 9.80972 1.92592 9.64733C1.97362 9.48493 2.0538 9.33392 2.16161 9.20344C2.26941 9.07296 2.40259 8.96574 2.55308 8.88826C3.15151 8.57576 3.88901 8.82264 4.22495 9.40545L5.86558 12.2523C5.9112 12.3343 5.98005 12.4009 6.06345 12.4439C6.14686 12.4869 6.2411 12.5042 6.33433 12.4937H6.3437C6.49383 12.4679 6.62981 12.3893 6.7272 12.2722C6.82458 12.155 6.87697 12.007 6.87495 11.8547V3.74998C6.87475 3.58064 6.90897 3.41303 6.97551 3.25731C7.04206 3.1016 7.13955 2.96103 7.26207 2.84413C7.38459 2.72724 7.52959 2.63646 7.68826 2.5773C7.84693 2.51814 8.01596 2.49183 8.18511 2.49998C8.85776 2.53123 9.37495 3.11092 9.37495 3.78358V8.74998C9.37476 8.83566 9.39219 8.92047 9.42616 8.99913C9.46012 9.07779 9.5099 9.14862 9.5724 9.20723C9.63489 9.26585 9.70877 9.31098 9.78944 9.33984C9.87012 9.3687 9.95586 9.38066 10.0414 9.37498C10.2021 9.36118 10.3516 9.28703 10.4599 9.16746C10.5681 9.04788 10.6271 8.89175 10.625 8.73045V2.49998C10.6248 2.33064 10.659 2.16303 10.7255 2.00731C10.7921 1.8516 10.8896 1.71103 11.0121 1.59413C11.1346 1.47724 11.2796 1.38646 11.4383 1.3273C11.5969 1.26814 11.766 1.24183 11.9351 1.24998C12.6078 1.28123 13.125 1.86092 13.125 2.53358V9.37498C13.1248 9.46066 13.1422 9.54547 13.1762 9.62413C13.2101 9.70279 13.2599 9.77362 13.3224 9.83223C13.3849 9.89085 13.4588 9.93598 13.5394 9.96484C13.6201 9.9937 13.7059 10.0057 13.7914 9.99998C13.9521 9.98618 14.1016 9.91203 14.2099 9.79246C14.3181 9.67288 14.3771 9.51675 14.375 9.35545V5.03514C14.375 4.36248 14.8921 3.78514 15.5648 3.75155C15.7338 3.7434 15.9027 3.76966 16.0613 3.82872C16.2198 3.88779 16.3648 3.97843 16.4873 4.09516C16.6098 4.21188 16.7073 4.35227 16.7739 4.5078C16.8406 4.66333 16.8749 4.83078 16.875 4.99998Z" fill="#191F2E"/>
</svg>
