<svg width="20" height="20" viewBox="0 0 20 20" fill="none" xmlns="http://www.w3.org/2000/svg">
<path d="M15.625 6.25012H14.375V5.00012C14.3744 4.49256 14.2194 3.99719 13.9305 3.57988C13.6415 3.16257 13.2325 2.84308 12.7576 2.6639C12.2827 2.48471 11.7645 2.45432 11.2719 2.57676C10.7794 2.6992 10.3357 2.96866 10 3.34934C9.68005 2.9867 9.26178 2.72464 8.79589 2.59493C8.33 2.46522 7.83648 2.47342 7.37516 2.61854C6.91384 2.76366 6.50451 3.03947 6.19678 3.41254C5.88905 3.78561 5.69613 4.23993 5.64141 4.72043C5.26171 4.49735 4.82982 4.37853 4.38944 4.37598C3.94907 4.37344 3.51584 4.48726 3.13359 4.70594C2.75134 4.92462 2.43363 5.24039 2.21262 5.6213C1.99161 6.00221 1.87514 6.43474 1.875 6.87512V10.0001C1.875 12.155 2.73102 14.2216 4.25476 15.7454C5.77849 17.2691 7.84512 18.1251 10 18.1251C12.1549 18.1251 14.2215 17.2691 15.7452 15.7454C17.269 14.2216 18.125 12.155 18.125 10.0001V8.75012C18.125 8.08708 17.8616 7.45119 17.3928 6.98235C16.9239 6.51351 16.288 6.25012 15.625 6.25012ZM11.875 3.75012C12.2065 3.75012 12.5245 3.88181 12.7589 4.11624C12.9933 4.35066 13.125 4.6686 13.125 5.00012V6.25012H10.625V5.00012C10.625 4.6686 10.7567 4.35066 10.9911 4.11624C11.2255 3.88181 11.5435 3.75012 11.875 3.75012ZM6.875 5.00012C6.875 4.6686 7.0067 4.35066 7.24112 4.11624C7.47554 3.88181 7.79348 3.75012 8.125 3.75012C8.45652 3.75012 8.77446 3.88181 9.00888 4.11624C9.2433 4.35066 9.375 4.6686 9.375 5.00012V8.12512C9.375 8.45664 9.2433 8.77458 9.00888 9.009C8.77446 9.24342 8.45652 9.37512 8.125 9.37512C7.79348 9.37512 7.47554 9.24342 7.24112 9.009C7.0067 8.77458 6.875 8.45664 6.875 8.12512V5.00012ZM3.125 6.87512C3.125 6.5436 3.2567 6.22566 3.49112 5.99124C3.72554 5.75681 4.04348 5.62512 4.375 5.62512C4.70652 5.62512 5.02446 5.75681 5.25888 5.99124C5.4933 6.22566 5.625 6.5436 5.625 6.87512V8.12512C5.625 8.45664 5.4933 8.77458 5.25888 9.009C5.02446 9.24342 4.70652 9.37512 4.375 9.37512C4.04348 9.37512 3.72554 9.24342 3.49112 9.009C3.2567 8.77458 3.125 8.45664 3.125 8.12512V6.87512ZM16.875 10.0001C16.875 11.7981 16.1706 13.5245 14.9128 14.8093C13.6551 16.0941 11.9441 16.8351 10.1465 16.8734C8.34896 16.9118 6.60791 16.2444 5.29656 15.0143C3.9852 13.7843 3.2079 12.0894 3.13125 10.2931C3.63082 10.5804 4.21447 10.6859 4.78301 10.5916C5.35155 10.4973 5.86991 10.2091 6.25 9.7759C6.68075 10.2667 7.28678 10.569 7.93796 10.618C8.58915 10.6669 9.23355 10.4585 9.73281 10.0376C9.95765 10.4102 10.2753 10.7182 10.6547 10.9314C10.2526 11.2827 9.9303 11.716 9.70957 12.2022C9.48885 12.6883 9.37476 13.2162 9.375 13.7501C9.375 13.9159 9.44085 14.0749 9.55806 14.1921C9.67527 14.3093 9.83424 14.3751 10 14.3751C10.1658 14.3751 10.3247 14.3093 10.4419 14.1921C10.5592 14.0749 10.625 13.9159 10.625 13.7501C10.625 13.0871 10.8884 12.4512 11.3572 11.9824C11.8261 11.5135 12.462 11.2501 13.125 11.2501C13.2908 11.2501 13.4497 11.1843 13.5669 11.0671C13.6842 10.9499 13.75 10.7909 13.75 10.6251C13.75 10.4594 13.6842 10.3004 13.5669 10.1832C13.4497 10.066 13.2908 10.0001 13.125 10.0001H11.875C11.5435 10.0001 11.2255 9.86842 10.9911 9.634C10.7567 9.39958 10.625 9.08164 10.625 8.75012V7.50012H15.625C15.9565 7.50012 16.2745 7.63181 16.5089 7.86624C16.7433 8.10066 16.875 8.4186 16.875 8.75012V10.0001Z" fill="#191F2E"/>
</svg>
