<svg width="20" height="20" viewBox="0 0 20 20" fill="none" xmlns="http://www.w3.org/2000/svg">
<path d="M9.65939 17.1023C9.60869 17.3052 9.49166 17.4852 9.32689 17.6139C9.16212 17.7426 8.95907 17.8125 8.75001 17.8125C8.67312 17.8123 8.59653 17.8029 8.52189 17.7844L6.02189 17.1594C5.91778 17.134 5.8189 17.0906 5.7297 17.0312L3.8547 15.7812C3.6475 15.6433 3.5036 15.4286 3.45467 15.1845C3.40573 14.9404 3.45577 14.6869 3.59376 14.4797C3.73176 14.2725 3.94641 14.1286 4.1905 14.0797C4.43459 14.0307 4.68813 14.0808 4.89533 14.2188L6.63517 15.3789L8.97892 15.9648C9.21996 16.0255 9.42705 16.1794 9.55466 16.3927C9.68226 16.606 9.71993 16.8613 9.65939 17.1023ZM19.9219 9.58984C19.8577 9.78448 19.7556 9.96449 19.6215 10.1195C19.4874 10.2745 19.324 10.4014 19.1406 10.493L17.3539 11.3867L13.168 15.6625C13.0535 15.7771 12.9113 15.86 12.7552 15.9033C12.5991 15.9466 12.4345 15.9487 12.2774 15.9094L7.27736 14.6594C7.16005 14.6298 7.04948 14.5781 6.95158 14.507L2.73439 11.4281L0.864075 10.4906C0.6802 10.3992 0.516139 10.2725 0.381271 10.1177C0.246403 9.96287 0.143373 9.78298 0.078072 9.58831C0.012771 9.39364 -0.0135206 9.18801 0.000700317 8.98317C0.0149212 8.77834 0.0693757 8.57831 0.16095 8.39453L2.10939 4.51484C2.29477 4.14431 2.61974 3.86257 3.01281 3.7316C3.40589 3.60062 3.83489 3.63113 4.20548 3.81641L5.81408 4.62188L9.73673 3.475C9.90869 3.425 10.0913 3.425 10.2633 3.475L14.186 4.62188L15.7977 3.81563C16.168 3.63139 16.5963 3.60153 16.9887 3.73261C17.381 3.86368 17.7054 4.14499 17.8906 4.51484L19.832 8.39688C19.9252 8.57988 19.9811 8.77957 19.9966 8.98435C20.012 9.18914 19.9866 9.39495 19.9219 9.58984ZM15.6485 10.4688L13.6953 6.5625H11.6297L8.64533 9.45703C9.87658 10.0242 11.0797 9.47188 11.8344 8.71094C11.9974 8.54712 12.2151 8.44927 12.4458 8.43614C12.6765 8.42302 12.9039 8.49556 13.0844 8.63984L15.5266 10.593L15.6485 10.4688ZM1.98204 8.95547L2.8047 9.36719L4.46642 6.04453L3.64298 5.63281L1.98204 8.95547ZM14.2188 11.9531L12.5235 10.5914C10.9227 11.7859 8.94142 11.9031 7.28908 10.8453C7.09191 10.7196 6.92546 10.5513 6.80199 10.3528C6.67853 10.1542 6.6012 9.93047 6.57571 9.69805C6.55022 9.46563 6.57722 9.23045 6.65471 9.00985C6.7322 8.78925 6.85821 8.58886 7.02345 8.42344L7.03283 8.41406L10.1422 5.39063L10 5.35156L6.3797 6.41016L4.4172 10.3352L7.90548 12.8852L12.2125 13.9617L14.2188 11.9531ZM18.0149 8.95625L16.357 5.63281L15.5336 6.04453L17.1953 9.36719L18.0149 8.95625Z" fill="#191F2E"/>
</svg>
