<svg width="20" height="20" viewBox="0 0 20 20" fill="none" xmlns="http://www.w3.org/2000/svg">
<path d="M16.25 9.99998V13.9789C16.25 15.9781 15.5875 17.0984 15.5594 17.1547C15.5074 17.2585 15.4276 17.3458 15.3288 17.4068C15.23 17.4678 15.1161 17.5001 15 17.5H4.37501C4.26606 17.5 4.15899 17.4715 4.06443 17.4174C3.96987 17.3633 3.89111 17.2853 3.83595 17.1914L1.41798 12.5C1.33331 12.3534 1.27927 12.1912 1.25916 12.0232C1.23905 11.8551 1.25328 11.6847 1.30098 11.5223C1.34868 11.3599 1.42886 11.2089 1.53667 11.0784C1.64448 10.948 1.77766 10.8407 1.92814 10.7633C2.52657 10.4508 3.26407 10.6976 3.60001 11.2804L5.24064 14.1273C5.28627 14.2093 5.35511 14.2759 5.43851 14.3189C5.52192 14.3619 5.61616 14.3792 5.70939 14.3687H5.71876C5.86889 14.3429 6.00488 14.2643 6.10226 14.1472C6.19964 14.03 6.25203 13.882 6.25001 13.7297V4.37498C6.24982 4.20564 6.28403 4.03803 6.35057 3.88231C6.41712 3.7266 6.51461 3.58603 6.63713 3.46913C6.75965 3.35224 6.90465 3.26145 7.06332 3.20229C7.22199 3.14313 7.39102 3.11683 7.56017 3.12498C8.23282 3.15623 8.75001 3.73592 8.75001 4.40857V9.99998C8.74982 10.0857 8.76725 10.1705 8.80122 10.2491C8.83519 10.3278 8.88496 10.3986 8.94746 10.4572C9.00995 10.5158 9.08383 10.561 9.16451 10.5898C9.24518 10.6187 9.33093 10.6307 9.41642 10.625C9.57713 10.6112 9.72666 10.537 9.83493 10.4175C9.9432 10.2979 10.0022 10.1417 10 9.98045V8.74998C9.99981 8.58064 10.034 8.41303 10.1006 8.25731C10.1671 8.1016 10.2646 7.96102 10.3871 7.84413C10.5097 7.72723 10.6546 7.63645 10.8133 7.57729C10.972 7.51813 11.141 7.49183 11.3102 7.49998C11.9828 7.53123 12.5 8.11092 12.5 8.78357V10.625C12.4998 10.7107 12.5173 10.7955 12.5512 10.8741C12.5852 10.9528 12.635 11.0236 12.6975 11.0822C12.76 11.1408 12.8338 11.186 12.9145 11.2148C12.9952 11.2437 13.0809 11.2557 13.1664 11.25C13.3271 11.236 13.4765 11.1618 13.5847 11.0423C13.693 10.9227 13.752 10.7667 13.75 10.6054V10.0367C13.75 9.36404 14.2672 8.7867 14.9399 8.75311C15.1087 8.74497 15.2775 8.77118 15.436 8.83015C15.5944 8.88911 15.7393 8.97962 15.8618 9.09618C15.9842 9.21274 16.0818 9.35293 16.1485 9.50828C16.2153 9.66363 16.2498 9.8309 16.25 9.99998ZM18.75 3.74998H14.6336L16.0672 2.31717C16.1253 2.2591 16.1713 2.19016 16.2028 2.11429C16.2342 2.03842 16.2504 1.9571 16.2504 1.87498C16.2504 1.79286 16.2342 1.71154 16.2028 1.63567C16.1713 1.5598 16.1253 1.49086 16.0672 1.43279C16.0091 1.37472 15.9402 1.32866 15.8643 1.29724C15.7885 1.26581 15.7071 1.24963 15.625 1.24963C15.5429 1.24963 15.4616 1.26581 15.3857 1.29724C15.3098 1.32866 15.2409 1.37472 15.1828 1.43279L12.6828 3.93279C12.6247 3.99084 12.5786 4.05977 12.5472 4.13564C12.5157 4.21152 12.4995 4.29285 12.4995 4.37498C12.4995 4.45712 12.5157 4.53844 12.5472 4.61432C12.5786 4.69019 12.6247 4.75912 12.6828 4.81717L15.1828 7.31717C15.2409 7.37524 15.3098 7.4213 15.3857 7.45273C15.4616 7.48415 15.5429 7.50033 15.625 7.50033C15.7071 7.50033 15.7885 7.48415 15.8643 7.45273C15.9402 7.4213 16.0091 7.37524 16.0672 7.31717C16.1253 7.2591 16.1713 7.19016 16.2028 7.11429C16.2342 7.03842 16.2504 6.9571 16.2504 6.87498C16.2504 6.79286 16.2342 6.71154 16.2028 6.63567C16.1713 6.5598 16.1253 6.49086 16.0672 6.43279L14.6336 4.99998H18.75C18.9158 4.99998 19.0747 4.93413 19.192 4.81692C19.3092 4.69971 19.375 4.54074 19.375 4.37498C19.375 4.20922 19.3092 4.05025 19.192 3.93304C19.0747 3.81583 18.9158 3.74998 18.75 3.74998Z" fill="#191F2E"/>
</svg>
