<svg width="20" height="20" viewBox="0 0 20 20" fill="none" xmlns="http://www.w3.org/2000/svg">
<path d="M12.8124 1.5625V0.9375C12.8124 0.68886 12.9112 0.450403 13.087 0.274587C13.2628 0.098772 13.5013 0 13.7499 0C13.9986 0 14.237 0.098772 14.4129 0.274587C14.5887 0.450403 14.6874 0.68886 14.6874 0.9375V1.5625C14.6874 1.81114 14.5887 2.0496 14.4129 2.22541C14.237 2.40123 13.9986 2.5 13.7499 2.5C13.5013 2.5 13.2628 2.40123 13.087 2.22541C12.9112 2.0496 12.8124 1.81114 12.8124 1.5625ZM16.0804 3.23516C16.2841 3.37768 16.5361 3.43346 16.7809 3.39024C17.0257 3.34702 17.2433 3.20834 17.3859 3.00469L17.7445 2.49297C17.8871 2.28929 17.943 2.03728 17.8999 1.79239C17.8567 1.54749 17.7181 1.32977 17.5144 1.18711C17.3107 1.04445 17.0587 0.988548 16.8138 1.0317C16.5689 1.07484 16.3512 1.21351 16.2085 1.41719L15.8499 1.92891C15.7793 2.02979 15.7291 2.14362 15.7025 2.26388C15.6758 2.38414 15.6731 2.50848 15.6945 2.62979C15.7159 2.75111 15.761 2.86701 15.8272 2.97088C15.8934 3.07475 15.9795 3.16456 16.0804 3.23516ZM19.9437 4.31875C19.9016 4.20301 19.8372 4.09669 19.7541 4.00586C19.6709 3.91502 19.5707 3.84146 19.4591 3.78937C19.3475 3.73728 19.2268 3.70768 19.1038 3.70227C18.9807 3.69685 18.8579 3.71573 18.7421 3.75781L18.1546 3.97187C18.0389 4.01399 17.9326 4.07849 17.8418 4.16168C17.751 4.24488 17.6775 4.34515 17.6254 4.45676C17.5734 4.56837 17.5438 4.68914 17.5384 4.81218C17.5331 4.93521 17.552 5.0581 17.5941 5.17383C17.6362 5.28956 17.7007 5.39585 17.7839 5.48666C17.8671 5.57746 17.9674 5.65098 18.079 5.70303C18.1906 5.75509 18.3113 5.78464 18.4344 5.79002C18.5574 5.7954 18.6803 5.77649 18.796 5.73438L19.3828 5.52031C19.4985 5.47827 19.6048 5.41383 19.6957 5.33068C19.7865 5.24754 19.86 5.14731 19.9121 5.03573C19.9642 4.92415 19.9938 4.8034 19.9992 4.68038C20.0047 4.55736 19.9858 4.43448 19.9437 4.31875ZM17.557 7.14766C18.2759 8.38404 18.5696 9.82206 18.3931 11.2413C18.2166 12.6606 17.5795 13.9829 16.5796 15.0055C16.2123 16.2335 15.4933 17.327 14.5116 18.1511C13.5298 18.9752 12.3283 19.4937 11.0552 19.6427C9.78208 19.7917 8.49324 19.5646 7.34774 18.9894C6.20225 18.4143 5.25027 17.5163 4.60932 16.4062L1.87494 11.6703C1.70114 11.3692 1.59649 11.0332 1.56859 10.6867C1.5407 10.3401 1.59024 9.99174 1.71364 9.66671C1.83704 9.34169 2.0312 9.04819 2.28205 8.80748C2.53291 8.56677 2.83417 8.38488 3.16401 8.275L3.06244 8.09922C2.88757 7.79631 2.78271 7.45811 2.75555 7.10941C2.72838 6.76071 2.77961 6.41035 2.90547 6.08401C3.03132 5.75768 3.22862 5.46366 3.48289 5.2235C3.73717 4.98334 4.04197 4.80313 4.37494 4.69609C4.28136 4.23658 4.32778 3.75956 4.50819 3.3267C4.6886 2.89385 4.99471 2.52507 5.38694 2.26804C5.77917 2.01101 6.23949 1.87755 6.70838 1.88492C7.17727 1.89229 7.63317 2.04015 8.01713 2.30938C8.26692 2.04013 8.57649 1.83337 8.92087 1.70574C9.26525 1.57812 9.6348 1.53321 9.99973 1.57465C10.3646 1.61608 10.7147 1.74269 11.0217 1.94428C11.3287 2.14586 11.5841 2.41677 11.7671 2.73516L12.4937 3.99375C12.6113 3.8893 12.7393 3.79716 12.8757 3.71875C13.1424 3.56468 13.4369 3.4647 13.7423 3.42451C14.0476 3.38432 14.3579 3.40471 14.6554 3.48453C14.9529 3.56434 15.2317 3.70201 15.476 3.88965C15.7202 4.0773 15.9251 4.31125 16.0788 4.57812L17.557 7.14766ZM13.6374 5.98281L14.0757 6.74219C14.2396 6.89805 14.3801 7.07671 14.4929 7.27266L15.9773 9.84375C16.2 10.229 16.3832 10.6358 16.5242 11.0578C16.661 10.0301 16.4533 8.9861 15.9335 8.08906L14.4531 5.51406C14.4229 5.45957 14.3822 5.41164 14.3333 5.37306C14.2844 5.33448 14.2283 5.30603 14.1683 5.28937C14.1083 5.27271 14.0456 5.26817 13.9838 5.27603C13.922 5.28388 13.8624 5.30396 13.8085 5.33511C13.7546 5.36625 13.7074 5.40783 13.6697 5.45741C13.632 5.50699 13.6046 5.56359 13.5891 5.62389C13.5735 5.68419 13.5701 5.74699 13.5791 5.80861C13.5881 5.87024 13.6092 5.92946 13.6413 5.98281H13.6374ZM9.32651 4.14062L9.76557 4.90391C9.92914 5.05863 10.0694 5.23626 10.182 5.43125L10.9093 6.68906C11.0268 6.58505 11.1546 6.49318 11.2906 6.41484C11.3987 6.35243 11.5115 6.29862 11.6281 6.25391L10.1382 3.67188C10.1081 3.61739 10.0674 3.56945 10.0185 3.53087C9.96958 3.49229 9.9135 3.46384 9.85349 3.44718C9.79348 3.43052 9.73076 3.42599 9.66898 3.43384C9.6072 3.44169 9.54761 3.46178 9.49368 3.49292C9.43975 3.52406 9.39256 3.56564 9.35488 3.61522C9.3172 3.66481 9.28978 3.7214 9.27421 3.7817C9.25865 3.842 9.25526 3.9048 9.26424 3.96643C9.27322 4.02805 9.29438 4.08727 9.32651 4.14062ZM6.26557 4.46484L6.52572 4.91562C6.66289 4.78326 6.81587 4.66832 6.98119 4.57344C7.08911 4.51118 7.20168 4.45737 7.31791 4.4125L7.07807 3.99609C7.01661 3.8893 6.91557 3.81099 6.79682 3.77813C6.70732 3.75419 6.61274 3.75731 6.52501 3.78709C6.43729 3.81688 6.36035 3.87199 6.30393 3.94546C6.2475 4.01894 6.21412 4.10749 6.20798 4.19993C6.20185 4.29237 6.22325 4.38456 6.26947 4.46484H6.26557ZM14.8218 14.3391C14.9827 13.7445 15.0242 13.1239 14.9437 12.5132C14.8632 11.9025 14.6625 11.3139 14.3531 10.7812L12.8687 8.21016C12.8224 8.12966 12.7532 8.06472 12.67 8.02359C12.5867 7.98245 12.4931 7.96697 12.4011 7.9791C12.309 7.99124 12.2226 8.03045 12.1529 8.09175C12.0831 8.15305 12.0332 8.23369 12.0093 8.32344C11.9824 8.42512 11.9901 8.53287 12.0312 8.62969L12.9163 10.1562C12.9827 10.263 13.027 10.3819 13.0464 10.5061C13.0659 10.6303 13.0602 10.7571 13.0297 10.879C12.9992 11.0009 12.9445 11.1154 12.8688 11.2158C12.7931 11.3161 12.6981 11.4002 12.5892 11.4631C12.4804 11.526 12.3601 11.5663 12.2353 11.5818C12.1106 11.5972 11.9841 11.5874 11.8632 11.5529C11.7423 11.5185 11.6297 11.4601 11.5318 11.3812C11.434 11.3023 11.353 11.2046 11.2937 11.0938L8.55932 6.36719C8.49819 6.25882 8.39652 6.17918 8.27668 6.14577C8.15683 6.11237 8.02862 6.12794 7.92026 6.18906C7.81189 6.25019 7.73224 6.35186 7.69884 6.4717C7.66543 6.59155 7.68101 6.71976 7.74213 6.82812L9.66557 10.1562C9.72981 10.263 9.77215 10.3814 9.79011 10.5046C9.80806 10.6279 9.80128 10.7535 9.77015 10.8741C9.73903 10.9947 9.68418 11.1079 9.60882 11.2071C9.53346 11.3062 9.43909 11.3894 9.33123 11.4517C9.22337 11.5139 9.10418 11.5541 8.98062 11.5698C8.85706 11.5855 8.73161 11.5765 8.6116 11.5431C8.49158 11.5098 8.37941 11.4529 8.28164 11.3758C8.18386 11.2986 8.10244 11.2027 8.04213 11.0938L5.49838 6.69219C5.4676 6.63884 5.42662 6.59207 5.37776 6.55456C5.32891 6.51705 5.27315 6.48953 5.21366 6.47357C5.15418 6.45761 5.09213 6.45353 5.03106 6.46154C4.96999 6.46956 4.91111 6.48953 4.85776 6.52031C4.80441 6.55109 4.75764 6.59208 4.72013 6.64093C4.68262 6.68978 4.6551 6.74554 4.63914 6.80503C4.62318 6.86452 4.61909 6.92657 4.62711 6.98763C4.63513 7.0487 4.6551 7.10759 4.68588 7.16094L7.49994 12.0312C7.5615 12.1379 7.60145 12.2556 7.61751 12.3777C7.63357 12.4998 7.62542 12.6239 7.59354 12.7428C7.56165 12.8617 7.50666 12.9732 7.43168 13.0709C7.35671 13.1686 7.26323 13.2506 7.15658 13.3121C7.04994 13.3737 6.93221 13.4136 6.81012 13.4297C6.68803 13.4457 6.56398 13.4376 6.44504 13.4057C6.3261 13.3738 6.21461 13.3188 6.11693 13.2438C6.01924 13.1689 5.93728 13.0754 5.87572 12.9688L4.31322 10.2625C4.28307 10.208 4.24236 10.1601 4.19347 10.1215C4.14458 10.0829 4.0885 10.0545 4.02849 10.0378C3.96849 10.0211 3.90576 10.0166 3.84398 10.0245C3.7822 10.0323 3.72261 10.0524 3.66868 10.0835C3.61475 10.1147 3.56756 10.1563 3.52988 10.2058C3.4922 10.2554 3.46478 10.312 3.44921 10.3723C3.43365 10.4326 3.43026 10.4954 3.43924 10.5571C3.44822 10.6187 3.46938 10.6779 3.50151 10.7312L6.23588 15.468C6.69949 16.2707 7.3907 16.9179 8.22211 17.3278C9.05352 17.7378 9.98781 17.892 10.9069 17.771C11.8259 17.65 12.6884 17.2592 13.3854 16.6481C14.0824 16.0369 14.5825 15.2329 14.8226 14.3375L14.8218 14.3391Z" fill="#191F2E"/>
</svg>
