<svg width="20" height="20" viewBox="0 0 20 20" fill="none" xmlns="http://www.w3.org/2000/svg">
<path d="M18.1844 10.7719C17.9088 10.5608 17.5878 10.4166 17.2469 10.3508C18.4523 8.97973 19.0625 7.60708 19.0625 6.25005C19.0625 4.0102 17.2586 2.18755 15.0422 2.18755C13.9748 2.18243 12.9487 2.59945 12.1875 3.3477C11.4263 2.59945 10.4002 2.18243 9.33281 2.18755C7.11641 2.18755 5.3125 4.0102 5.3125 6.25005C5.3125 7.04302 5.525 7.83598 5.95469 8.64848C5.61171 8.79002 5.30023 8.99821 5.03828 9.26098L3.35938 10.9375H1.5625C1.1481 10.9375 0.750671 11.1022 0.457646 11.3952C0.16462 11.6882 0 12.0856 0 12.5L0 15.625C0 16.0394 0.16462 16.4369 0.457646 16.7299C0.750671 17.0229 1.1481 17.1875 1.5625 17.1875H9.375C9.45165 17.1876 9.52801 17.1781 9.60234 17.1594L14.6023 15.9094C14.6502 15.8977 14.6969 15.882 14.7422 15.8625L17.775 14.5704C17.793 14.5633 17.8102 14.5555 17.8273 14.5469C18.1665 14.3772 18.457 14.124 18.6713 13.8112C18.8856 13.4983 19.0168 13.136 19.0525 12.7584C19.0882 12.3808 19.0273 12.0004 18.8754 11.6529C18.7235 11.3053 18.4857 11.0022 18.1844 10.7719ZM9.33281 4.06255C9.75521 4.05603 10.17 4.17565 10.524 4.40612C10.878 4.63658 11.1553 4.96741 11.3203 5.3563C11.3909 5.52824 11.5111 5.67531 11.6655 5.77881C11.8199 5.88232 12.0016 5.93758 12.1875 5.93758C12.3734 5.93758 12.5551 5.88232 12.7095 5.77881C12.8639 5.67531 12.9841 5.52824 13.0547 5.3563C13.2197 4.96741 13.497 4.63658 13.851 4.40612C14.205 4.17565 14.6198 4.05603 15.0422 4.06255C16.2047 4.06255 17.1875 5.06411 17.1875 6.25005C17.1875 7.66098 16.0156 9.28442 13.7984 10.9524L13.4375 11.036C13.4375 11.0032 13.4375 10.9704 13.4375 10.9375C13.4375 10.2745 13.1741 9.63862 12.7053 9.16978C12.2364 8.70094 11.6005 8.43755 10.9375 8.43755H8.02422C7.45469 7.63755 7.1875 6.9352 7.1875 6.25005C7.1875 5.06411 8.17031 4.06255 9.33281 4.06255ZM1.875 12.8125H2.8125V15.3125H1.875V12.8125ZM17.0062 12.8602L14.0758 14.1102L9.25937 15.3125H4.6875V12.2657L6.36406 10.5891C6.45072 10.5015 6.5539 10.432 6.66762 10.3845C6.78133 10.337 6.90334 10.3126 7.02656 10.3125H10.9375C11.1033 10.3125 11.2622 10.3784 11.3794 10.4956C11.4967 10.6128 11.5625 10.7718 11.5625 10.9375C11.5625 11.1033 11.4967 11.2623 11.3794 11.3795C11.2622 11.4967 11.1033 11.5625 10.9375 11.5625H8.75C8.50136 11.5625 8.2629 11.6613 8.08709 11.8371C7.91127 12.0129 7.8125 12.2514 7.8125 12.5C7.8125 12.7487 7.91127 12.9871 8.08709 13.163C8.2629 13.3388 8.50136 13.4375 8.75 13.4375H11.25C11.3207 13.4376 11.3912 13.4297 11.4602 13.4141L16.6945 12.2102L16.7313 12.2008C16.7846 12.1863 16.8406 12.1843 16.8949 12.1949C16.9492 12.2055 17.0003 12.2285 17.0442 12.262C17.0882 12.2956 17.1239 12.3388 17.1484 12.3883C17.173 12.4379 17.1858 12.4924 17.1859 12.5477C17.1863 12.611 17.1699 12.6733 17.1383 12.7282C17.1068 12.7831 17.0612 12.8287 17.0062 12.8602Z" fill="#191F2E"/>
</svg>
