<svg width="20" height="20" viewBox="0 0 20 20" fill="none" xmlns="http://www.w3.org/2000/svg">
<path d="M19.0516 15.4414L17.9383 6.06639C17.8922 5.68579 17.7082 5.33528 17.4212 5.08117C17.1341 4.82707 16.7638 4.68701 16.3805 4.68749H14.0492C13.9668 3.6702 13.5044 2.72122 12.7541 2.0293C12.0038 1.33738 11.0206 0.953217 9.99999 0.953217C8.97937 0.953217 7.99614 1.33738 7.24586 2.0293C6.49558 2.72122 6.03324 3.6702 5.95078 4.68749H3.61953C3.23615 4.68701 2.86589 4.82707 2.57882 5.08117C2.29174 5.33528 2.10777 5.68579 2.06171 6.06639L0.948432 15.4414C0.922439 15.6611 0.943385 15.8838 1.00988 16.0947C1.07638 16.3057 1.18692 16.5001 1.33418 16.6652C1.48144 16.8303 1.66207 16.9622 1.86413 17.0522C2.06618 17.1422 2.28504 17.1884 2.50624 17.1875H17.4937C17.7149 17.1884 17.9338 17.1422 18.1359 17.0522C18.3379 16.9622 18.5185 16.8303 18.6658 16.6652C18.8131 16.5001 18.9236 16.3057 18.9901 16.0947C19.0566 15.8838 19.0775 15.6611 19.0516 15.4414ZM9.99999 2.81249C10.526 2.81254 11.0343 3.00211 11.4319 3.34647C11.8295 3.69082 12.0897 4.1669 12.1648 4.68749H7.83515C7.91029 4.1669 8.17049 3.69082 8.56808 3.34647C8.96566 3.00211 9.47401 2.81254 9.99999 2.81249ZM2.85156 15.3125L3.8914 6.56249H5.93749V8.12499C5.93749 8.37363 6.03627 8.61209 6.21208 8.7879C6.3879 8.96372 6.62635 9.06249 6.87499 9.06249C7.12363 9.06249 7.36209 8.96372 7.53791 8.7879C7.71372 8.61209 7.81249 8.37363 7.81249 8.12499V6.56249H12.1875V8.12499C12.1875 8.37363 12.2863 8.61209 12.4621 8.7879C12.6379 8.96372 12.8764 9.06249 13.125 9.06249C13.3736 9.06249 13.6121 8.96372 13.7879 8.7879C13.9637 8.61209 14.0625 8.37363 14.0625 8.12499V6.56249H16.1086L17.1484 15.3125H2.85156Z" fill="#191F2E"/>
</svg>
