<svg width="20" height="20" viewBox="0 0 20 20" fill="none" xmlns="http://www.w3.org/2000/svg">
<path d="M14.3961 2.33826C14.4173 2.25894 14.4539 2.18458 14.5039 2.11943C14.5539 2.05427 14.6162 1.9996 14.6873 1.95854C14.7584 1.91747 14.8369 1.89082 14.9183 1.8801C14.9997 1.86939 15.0824 1.87481 15.1617 1.89608C16.4039 2.22967 17.4273 2.99842 18.0414 4.06248C18.1243 4.20607 18.1467 4.3767 18.1038 4.53684C18.0609 4.69698 17.9561 4.83351 17.8125 4.91639C17.6689 4.99927 17.4983 5.02171 17.3381 4.97878C17.178 4.93586 17.0415 4.83107 16.9586 4.68748C16.5117 3.91248 15.7586 3.34998 14.8383 3.10389C14.7589 3.08267 14.6846 3.04604 14.6194 2.99607C14.5543 2.94611 14.4996 2.88379 14.4585 2.81269C14.4175 2.74159 14.3908 2.6631 14.3801 2.58169C14.3694 2.50029 14.3748 2.41757 14.3961 2.33826ZM6.21716 17.6344C5.48435 17.0562 4.87185 16.3187 4.29138 15.3125C4.25034 15.2414 4.1957 15.1791 4.13058 15.1291C4.06546 15.0791 3.99113 15.0424 3.91184 15.0212C3.83254 14.9999 3.74984 14.9945 3.66845 15.0052C3.58706 15.0159 3.50857 15.0425 3.43747 15.0836C3.36638 15.1246 3.30406 15.1793 3.25408 15.2444C3.20409 15.3095 3.16743 15.3838 3.14617 15.4631C3.12492 15.5424 3.11949 15.6251 3.13019 15.7065C3.1409 15.7879 3.16753 15.8664 3.20857 15.9375C3.87185 17.0859 4.58122 17.9367 5.44294 18.6156C5.57327 18.7159 5.73786 18.7607 5.90105 18.7405C6.06423 18.7202 6.21286 18.6365 6.31471 18.5074C6.41657 18.3783 6.46345 18.2143 6.44519 18.0508C6.42693 17.8874 6.345 17.7378 6.21716 17.6344ZM15.3273 4.56404C15.2464 4.41975 15.1376 4.29297 15.0072 4.19105C14.8769 4.08912 14.7276 4.01408 14.5681 3.97028C14.4086 3.92649 14.2419 3.91479 14.0778 3.93589C13.9137 3.95699 13.7554 4.01045 13.6121 4.09318C13.4689 4.17591 13.3434 4.28627 13.2431 4.41784C13.1428 4.54942 13.0696 4.6996 13.0278 4.85967C12.986 5.01975 12.9763 5.18653 12.9994 5.35036C13.0226 5.51419 13.078 5.6718 13.1625 5.81404L14.4125 7.97889C14.4535 8.04998 14.4802 8.12847 14.4909 8.20986C14.5016 8.29126 14.4962 8.37397 14.4749 8.45326C14.4537 8.53256 14.417 8.60689 14.367 8.67201C14.317 8.73713 14.2547 8.79177 14.1836 8.83279C13.6095 9.16435 13.1905 9.71037 13.019 10.3508C12.8474 10.9912 12.9373 11.6735 13.2687 12.2476C13.3516 12.3912 13.3741 12.5619 13.3311 12.722C13.2882 12.8821 13.1834 13.0187 13.0398 13.1015C12.8962 13.1844 12.7256 13.2069 12.5655 13.1639C12.4053 13.121 12.2688 13.0162 12.1859 12.8726C11.7439 12.1046 11.5876 11.2049 11.7449 10.3328C11.9022 9.46069 12.3628 8.67228 13.0453 8.10701L9.89294 2.64998C9.72718 2.3628 9.45413 2.15323 9.13385 2.06738C8.81358 1.98152 8.47231 2.02641 8.18513 2.19217C7.89795 2.35793 7.68838 2.63098 7.60253 2.95126C7.51667 3.27154 7.56156 3.6128 7.72732 3.89998L10.2273 8.23045C10.3051 8.37362 10.3238 8.54148 10.2796 8.69828C10.2354 8.85508 10.1317 8.98842 9.99068 9.0699C9.84961 9.15139 9.6823 9.17457 9.52439 9.13451C9.36649 9.09445 9.23046 8.99432 9.14529 8.85545L6.02029 3.44217C5.85453 3.15499 5.58147 2.94542 5.2612 2.85956C4.94092 2.77371 4.59965 2.8186 4.31247 2.98436C4.0253 3.15012 3.81573 3.42317 3.72987 3.74345C3.64401 4.06372 3.6889 4.40499 3.85466 4.69217L7.29216 10.6461C7.3358 10.7172 7.36474 10.7964 7.37728 10.8789C7.38982 10.9614 7.38571 11.0456 7.36519 11.1265C7.34467 11.2074 7.30815 11.2834 7.25779 11.3499C7.20744 11.4165 7.14426 11.4723 7.07199 11.514C6.99972 11.5558 6.91982 11.5826 6.837 11.593C6.75419 11.6034 6.67013 11.597 6.5898 11.5744C6.50947 11.5517 6.43449 11.5132 6.36928 11.4611C6.30407 11.409 6.24996 11.3444 6.21013 11.2711L4.02263 7.48279C3.94056 7.3406 3.83127 7.21596 3.70103 7.11599C3.57079 7.01603 3.42213 6.9427 3.26354 6.90019C3.10496 6.85768 2.93955 6.84682 2.77677 6.86823C2.61399 6.88964 2.45702 6.94291 2.31482 7.02498C2.17262 7.10706 2.04798 7.21634 1.94802 7.34658C1.84806 7.47683 1.77472 7.62549 1.73221 7.78407C1.6897 7.94266 1.67884 8.10806 1.70025 8.27084C1.72166 8.43363 1.77493 8.5906 1.85701 8.73279L5.29451 14.6867C6.2083 16.2616 7.70953 17.4097 9.46879 17.879C11.2281 18.3484 13.1017 18.1007 14.6785 17.1903C16.2554 16.2799 17.4067 14.7812 17.8798 13.0229C18.353 11.2647 18.1093 9.39051 17.2023 7.8117L15.3273 4.56404Z" fill="#191F2E"/>
</svg>
