<svg width="20" height="20" viewBox="0 0 20 20" fill="none" xmlns="http://www.w3.org/2000/svg">
<path d="M16.875 8.12498V12.1039C16.875 15.7133 13.996 18.7094 10.3906 18.7492C9.51551 18.761 8.64698 18.5971 7.83643 18.2671C7.02589 17.9371 6.28981 17.4478 5.67183 16.8281C3.96792 15.0258 2.04292 10.625 2.04292 10.625C1.95824 10.4784 1.90421 10.3162 1.8841 10.1482C1.86399 9.98011 1.87821 9.80972 1.92592 9.64733C1.97362 9.48493 2.0538 9.33392 2.16161 9.20344C2.26941 9.07296 2.40259 8.96574 2.55308 8.88826C3.15151 8.57576 3.88901 8.82264 4.22495 9.40545L5.86558 12.2523C5.9112 12.3343 5.98005 12.4009 6.06345 12.4439C6.14686 12.4869 6.2411 12.5042 6.33433 12.4937H6.3437C6.49383 12.4679 6.62981 12.3893 6.7272 12.2722C6.82458 12.155 6.87697 12.007 6.87495 11.8547V2.49998C6.87475 2.33064 6.90897 2.16303 6.97551 2.00731C7.04206 1.8516 7.13955 1.71103 7.26207 1.59413C7.38459 1.47724 7.52959 1.38646 7.68826 1.3273C7.84693 1.26814 8.01596 1.24183 8.18511 1.24998C8.85776 1.28123 9.37495 1.86092 9.37495 2.53358V8.12498C9.37476 8.21066 9.39219 8.29547 9.42616 8.37413C9.46012 8.45279 9.5099 8.52362 9.5724 8.58223C9.63489 8.64085 9.70877 8.68598 9.78944 8.71484C9.87012 8.7437 9.95586 8.75566 10.0414 8.74998C10.2021 8.73618 10.3516 8.66203 10.4599 8.54246C10.5681 8.42288 10.6271 8.26675 10.625 8.10545V6.87498C10.6248 6.70564 10.659 6.53803 10.7255 6.38231C10.7921 6.2266 10.8896 6.08603 11.0121 5.96913C11.1346 5.85224 11.2796 5.76146 11.4383 5.7023C11.5969 5.64314 11.766 5.61683 11.9351 5.62498C12.6078 5.65623 13.125 6.23592 13.125 6.90858V8.74998C13.1248 8.83566 13.1422 8.92047 13.1762 8.99913C13.2101 9.07779 13.2599 9.14862 13.3224 9.20723C13.3849 9.26585 13.4588 9.31098 13.5394 9.33984C13.6201 9.3687 13.7059 9.38066 13.7914 9.37498C13.9521 9.36118 14.1016 9.28703 14.2099 9.16746C14.3181 9.04788 14.3771 8.89175 14.375 8.73045V8.1617C14.375 7.48905 14.8921 6.9117 15.5648 6.87811C15.7337 6.86997 15.9025 6.89618 16.0609 6.95515C16.2194 7.01412 16.3642 7.10462 16.4867 7.22118C16.6092 7.33774 16.7067 7.47794 16.7735 7.63329C16.8402 7.78863 16.8747 7.95591 16.875 8.12498Z" fill="#191F2E"/>
</svg>
