<svg width="20" height="20" viewBox="0 0 20 20" fill="none" xmlns="http://www.w3.org/2000/svg">
<path d="M14.6875 3.43748C14.4767 3.43707 14.2667 3.46332 14.0625 3.5156V3.43748C14.063 2.87154 13.8715 2.32217 13.5193 1.87919C13.1671 1.43621 12.675 1.12584 12.1235 0.998833C11.572 0.871823 10.9938 0.93569 10.4833 1.17999C9.97279 1.42429 9.5603 1.83456 9.31325 2.34373C8.93489 2.20222 8.52788 2.1545 8.12705 2.20466C7.72623 2.25481 7.34352 2.40135 7.0117 2.63173C6.67988 2.86211 6.40883 3.16946 6.22174 3.52748C6.03466 3.8855 5.93712 4.28352 5.93747 4.68748V8.65857C5.53035 8.19413 4.96572 7.89683 4.35242 7.82397C3.73911 7.75111 3.12055 7.90786 2.61595 8.26399C2.11135 8.62012 1.75643 9.15043 1.61961 9.7527C1.4828 10.355 1.57376 10.9866 1.87497 11.5258C4.36091 16.7656 5.88669 19.0625 9.99997 19.0625C11.9056 19.0604 13.7325 18.3025 15.08 16.955C16.4275 15.6076 17.1854 13.7806 17.1875 11.875V5.93748C17.1875 5.27444 16.9241 4.63855 16.4552 4.16971C15.9864 3.70087 15.3505 3.43748 14.6875 3.43748ZM15.3125 11.875C15.3108 13.2834 14.7506 14.6337 13.7546 15.6297C12.7587 16.6256 11.4084 17.1858 9.99997 17.1875C7.20075 17.1875 6.11637 16.0937 3.55622 10.6922C3.54528 10.6695 3.53356 10.6469 3.52106 10.625C3.44332 10.4818 3.42455 10.314 3.46875 10.1572C3.51296 10.0004 3.61663 9.86701 3.7577 9.78552C3.89877 9.70404 4.06608 9.68086 4.22399 9.72092C4.3819 9.76097 4.51792 9.8611 4.60309 9.99998L4.6195 10.0273L6.07887 12.3711C6.18652 12.5442 6.34764 12.6774 6.53784 12.7507C6.72803 12.824 6.93693 12.8334 7.1329 12.7773C7.32886 12.7212 7.50121 12.6028 7.62383 12.44C7.74646 12.2772 7.81268 12.0788 7.81247 11.875V4.68748C7.81247 4.52172 7.87832 4.36275 7.99553 4.24554C8.11274 4.12833 8.27171 4.06248 8.43747 4.06248C8.60323 4.06248 8.7622 4.12833 8.87941 4.24554C8.99662 4.36275 9.06247 4.52172 9.06247 4.68748V9.37498C9.06247 9.62362 9.16124 9.86207 9.33706 10.0379C9.51287 10.2137 9.75133 10.3125 9.99997 10.3125C10.2486 10.3125 10.4871 10.2137 10.6629 10.0379C10.8387 9.86207 10.9375 9.62362 10.9375 9.37498V3.43748C10.9375 3.27172 11.0033 3.11275 11.1205 2.99554C11.2377 2.87833 11.3967 2.81248 11.5625 2.81248C11.7282 2.81248 11.8872 2.87833 12.0044 2.99554C12.1216 3.11275 12.1875 3.27172 12.1875 3.43748V9.37498C12.1875 9.62362 12.2862 9.86207 12.4621 10.0379C12.6379 10.2137 12.8763 10.3125 13.125 10.3125C13.3736 10.3125 13.6121 10.2137 13.7879 10.0379C13.9637 9.86207 14.0625 9.62362 14.0625 9.37498V5.93748C14.0625 5.77172 14.1283 5.61275 14.2455 5.49554C14.3627 5.37832 14.5217 5.31248 14.6875 5.31248C14.8532 5.31248 15.0122 5.37832 15.1294 5.49554C15.2466 5.61275 15.3125 5.77172 15.3125 5.93748V11.875Z" fill="#191F2E"/>
</svg>
