<svg width="20" height="20" viewBox="0 0 20 20" fill="none" xmlns="http://www.w3.org/2000/svg">
<path d="M18.7414 15.4781L17.6273 6.10313C17.5912 5.79767 17.4437 5.51626 17.2131 5.31274C16.9825 5.10922 16.6849 4.99787 16.3773 5H13.75C13.75 4.00544 13.3549 3.05161 12.6516 2.34835C11.9484 1.64509 10.9946 1.25 9.99999 1.25C9.00543 1.25 8.0516 1.64509 7.34834 2.34835C6.64508 3.05161 6.24999 4.00544 6.24999 5H3.61953C3.31195 4.99787 3.01439 5.10922 2.78377 5.31274C2.55314 5.51626 2.40566 5.79767 2.36953 6.10313L1.25546 15.4781C1.23505 15.6531 1.25185 15.8304 1.30476 15.9984C1.35767 16.1665 1.4455 16.3214 1.56249 16.4531C1.68033 16.5854 1.82473 16.6913 1.98627 16.764C2.1478 16.8367 2.32285 16.8745 2.49999 16.875H17.4937C17.6719 16.8754 17.8482 16.838 18.0109 16.7653C18.1735 16.6926 18.319 16.5862 18.4375 16.4531C18.5539 16.3212 18.6412 16.1661 18.6936 15.9981C18.7459 15.8301 18.7622 15.6529 18.7414 15.4781ZM9.99999 2.5C10.663 2.5 11.2989 2.76339 11.7678 3.23223C12.2366 3.70107 12.5 4.33696 12.5 5H7.49999C7.49999 4.33696 7.76339 3.70107 8.23223 3.23223C8.70107 2.76339 9.33695 2.5 9.99999 2.5Z" fill="#191F2E"/>
</svg>
