<svg width="20" height="20" viewBox="0 0 20 20" fill="none" xmlns="http://www.w3.org/2000/svg">
<path d="M14.6875 3.7501C14.3631 3.74965 14.0427 3.822 13.75 3.96182V3.4376C13.7502 2.91624 13.5641 2.41194 13.2254 2.01559C12.8867 1.61925 12.4176 1.35691 11.9025 1.27587C11.3875 1.19482 10.8605 1.30039 10.4164 1.57355C9.97229 1.84671 9.64038 2.2695 9.48044 2.76573C9.14732 2.58504 8.77297 2.49399 8.39407 2.50151C8.01518 2.50903 7.64473 2.61486 7.31904 2.80862C6.99335 3.00238 6.72358 3.27743 6.53617 3.60682C6.34876 3.93621 6.25014 4.30863 6.24997 4.6876V9.6876L5.95154 9.2087C5.66166 8.70846 5.18554 8.34332 4.62724 8.19309C4.06894 8.04286 3.47387 8.11976 2.97211 8.40699C2.47034 8.69421 2.10269 9.1684 1.94951 9.72589C1.79634 10.2834 1.87009 10.8789 2.15466 11.3821C3.40466 14.0204 4.41482 15.8915 5.57029 17.061C6.73747 18.2454 8.06247 18.7501 9.99997 18.7501C11.8227 18.748 13.5702 18.023 14.859 16.7342C16.1479 15.4453 16.8729 13.6978 16.875 11.8751V5.9376C16.875 5.35744 16.6445 4.80104 16.2343 4.39081C15.824 3.98057 15.2676 3.7501 14.6875 3.7501ZM15.625 11.8751C15.6233 13.3664 15.0302 14.7962 13.9756 15.8508C12.9211 16.9053 11.4913 17.4984 9.99997 17.5001C8.40779 17.5001 7.38201 17.1189 6.45857 16.1837C5.42497 15.136 4.47341 13.3595 3.27341 10.8267C3.26638 10.8112 3.25856 10.796 3.24997 10.7814C3.12565 10.566 3.09199 10.31 3.15638 10.0698C3.22077 9.8296 3.37795 9.62481 3.59333 9.50049C3.80872 9.37617 4.06467 9.34251 4.30488 9.4069C4.54508 9.47129 4.74987 9.62847 4.87419 9.84385C4.87737 9.85011 4.88103 9.85612 4.88513 9.86182L6.34372 12.2056C6.41538 12.3212 6.52279 12.4103 6.64966 12.4593C6.77654 12.5083 6.91595 12.5147 7.04673 12.4773C7.17751 12.4399 7.29253 12.3609 7.37433 12.2522C7.45613 12.1435 7.50024 12.0111 7.49997 11.8751V4.6876C7.49997 4.43896 7.59875 4.20051 7.77456 4.02469C7.95038 3.84887 8.18883 3.7501 8.43747 3.7501C8.68611 3.7501 8.92457 3.84887 9.10039 4.02469C9.2762 4.20051 9.37497 4.43896 9.37497 4.6876V9.3751C9.37497 9.54086 9.44082 9.69983 9.55803 9.81705C9.67524 9.93426 9.83421 10.0001 9.99997 10.0001C10.1657 10.0001 10.3247 9.93426 10.4419 9.81705C10.5591 9.69983 10.625 9.54086 10.625 9.3751V3.4376C10.625 3.18896 10.7237 2.95051 10.8996 2.77469C11.0754 2.59887 11.3138 2.5001 11.5625 2.5001C11.8111 2.5001 12.0496 2.59887 12.2254 2.77469C12.4012 2.95051 12.5 3.18896 12.5 3.4376V9.3751C12.5 9.54086 12.5658 9.69983 12.683 9.81705C12.8002 9.93426 12.9592 10.0001 13.125 10.0001C13.2907 10.0001 13.4497 9.93426 13.5669 9.81705C13.6841 9.69983 13.75 9.54086 13.75 9.3751V5.9376C13.75 5.68896 13.8487 5.45051 14.0246 5.27469C14.2004 5.09887 14.4388 5.0001 14.6875 5.0001C14.9361 5.0001 15.1746 5.09887 15.3504 5.27469C15.5262 5.45051 15.625 5.68896 15.625 5.9376V11.8751Z" fill="#191F2E"/>
</svg>
