<svg width="20" height="20" viewBox="0 0 20 20" fill="none" xmlns="http://www.w3.org/2000/svg">
<path d="M11.25 14.375C11.25 14.6222 11.1767 14.8639 11.0393 15.0694C10.902 15.275 10.7068 15.4352 10.4784 15.5298C10.2499 15.6244 9.99861 15.6492 9.75614 15.601C9.51366 15.5527 9.29093 15.4337 9.11612 15.2589C8.9413 15.084 8.82225 14.8613 8.77402 14.6188C8.72579 14.3764 8.75054 14.125 8.84515 13.8966C8.93976 13.6682 9.09998 13.473 9.30554 13.3356C9.5111 13.1983 9.75277 13.125 10 13.125C10.3315 13.125 10.6495 13.2567 10.8839 13.4911C11.1183 13.7255 11.25 14.0435 11.25 14.375ZM17.1875 9.06248V11.875C17.1875 13.7812 16.4302 15.6094 15.0823 16.9573C13.7344 18.3052 11.9062 19.0625 10 19.0625C8.09376 19.0625 6.26559 18.3052 4.91767 16.9573C3.56975 15.6094 2.8125 13.7812 2.8125 11.875V5.93748C2.81231 5.55583 2.8995 5.1792 3.06739 4.83646C3.23528 4.49372 3.47941 4.19397 3.78107 3.96018C4.08273 3.72639 4.43392 3.56477 4.80771 3.48771C5.1815 3.41065 5.56797 3.42019 5.9375 3.5156V3.43748C5.93695 2.87154 6.12844 2.32217 6.48065 1.87919C6.83285 1.43621 7.32494 1.12584 7.87643 0.998833C8.42793 0.871823 9.0062 0.93569 9.51669 1.17999C10.0272 1.42429 10.4397 1.83456 10.6867 2.34373C11.0651 2.20222 11.4721 2.1545 11.8729 2.20466C12.2737 2.25481 12.6564 2.40135 12.9883 2.63173C13.3201 2.86211 13.5911 3.16946 13.7782 3.52748C13.9653 3.8855 14.0628 4.28352 14.0625 4.68748V6.6406C14.432 6.54519 14.8185 6.53565 15.1923 6.61271C15.5661 6.68977 15.9173 6.85139 16.2189 7.08518C16.5206 7.31897 16.7647 7.61872 16.9326 7.96146C17.1005 8.3042 17.1877 8.68083 17.1875 9.06248ZM15.3125 9.06248C15.3125 8.89672 15.2467 8.73775 15.1294 8.62054C15.0122 8.50333 14.8533 8.43748 14.6875 8.43748C14.5217 8.43748 14.3628 8.50333 14.2456 8.62054C14.1283 8.73775 14.0625 8.89672 14.0625 9.06248C14.0625 9.31112 13.9637 9.54957 13.7879 9.72539C13.6121 9.90121 13.3736 9.99998 13.125 9.99998C12.8764 9.99998 12.6379 9.90121 12.4621 9.72539C12.2863 9.54957 12.1875 9.31112 12.1875 9.06248V4.68748C12.1875 4.52172 12.1217 4.36275 12.0044 4.24554C11.8872 4.12833 11.7283 4.06248 11.5625 4.06248C11.3967 4.06248 11.2378 4.12833 11.1206 4.24554C11.0033 4.36275 10.9375 4.52172 10.9375 4.68748V8.12498C10.9375 8.37362 10.8387 8.61207 10.6629 8.78789C10.4871 8.96371 10.2486 9.06248 10 9.06248C9.75136 9.06248 9.5129 8.96371 9.33709 8.78789C9.16127 8.61207 9.0625 8.37362 9.0625 8.12498V3.43748C9.0625 3.27172 8.99665 3.11275 8.87944 2.99554C8.76223 2.87833 8.60326 2.81248 8.4375 2.81248C8.27174 2.81248 8.11277 2.87833 7.99556 2.99554C7.87835 3.11275 7.8125 3.27172 7.8125 3.43748V8.74998C7.8125 8.99862 7.71373 9.23707 7.53791 9.41289C7.3621 9.58871 7.12364 9.68748 6.875 9.68748C6.62636 9.68748 6.3879 9.58871 6.21209 9.41289C6.03627 9.23707 5.9375 8.99862 5.9375 8.74998V5.93748C5.9375 5.77172 5.87165 5.61275 5.75444 5.49554C5.63723 5.37832 5.47826 5.31248 5.3125 5.31248C5.14674 5.31248 4.98777 5.37832 4.87056 5.49554C4.75335 5.61275 4.6875 5.77172 4.6875 5.93748V11.875C4.6875 13.2839 5.24721 14.6352 6.2435 15.6315C7.23978 16.6278 8.59104 17.1875 10 17.1875C11.409 17.1875 12.7602 16.6278 13.7565 15.6315C14.7528 14.6352 15.3125 13.2839 15.3125 11.875V9.06248ZM10 9.99998C9.19316 9.99803 8.40161 10.22 7.71347 10.6413C7.02533 11.0625 6.46759 11.6665 6.10234 12.3859C5.9926 12.6069 5.97443 12.8623 6.05176 13.0966C6.12909 13.331 6.2957 13.5254 6.51544 13.6377C6.73518 13.75 6.99033 13.7711 7.22554 13.6964C7.46076 13.6218 7.65706 13.4575 7.77188 13.239C7.98137 12.8287 8.30017 12.4843 8.69309 12.2437C9.086 12.0032 9.53774 11.8759 9.99844 11.8759C10.4591 11.8759 10.9109 12.0032 11.3038 12.2437C11.6967 12.4843 12.0155 12.8287 12.225 13.239C12.3039 13.3934 12.4239 13.5228 12.5719 13.613C12.7199 13.7032 12.89 13.7506 13.0633 13.75C13.2114 13.7502 13.3575 13.7149 13.4891 13.6469C13.7104 13.5338 13.8778 13.3374 13.9544 13.101C14.031 12.8645 14.0106 12.6073 13.8977 12.3859C13.5324 11.6665 12.9747 11.0625 12.2865 10.6413C11.5984 10.22 10.8068 9.99803 10 9.99998Z" fill="#191F2E"/>
</svg>
