<svg width="20" height="20" viewBox="0 0 20 20" fill="none" xmlns="http://www.w3.org/2000/svg">
<path d="M14.375 7.5625V6.875C14.375 6.21196 14.1116 5.57607 13.6428 5.10723C13.1739 4.63839 12.538 4.375 11.875 4.375H10.625V2.5H13.125C13.2908 2.5 13.4497 2.56585 13.5669 2.68306C13.6842 2.80027 13.75 2.95924 13.75 3.125C13.75 3.29076 13.8158 3.44973 13.9331 3.56694C14.0503 3.68415 14.2092 3.75 14.375 3.75C14.5408 3.75 14.6997 3.68415 14.8169 3.56694C14.9342 3.44973 15 3.29076 15 3.125C15 2.62772 14.8025 2.15081 14.4508 1.79917C14.0992 1.44754 13.6223 1.25 13.125 1.25H8.125C7.95924 1.25 7.80027 1.31585 7.68306 1.43306C7.56585 1.55027 7.5 1.70924 7.5 1.875C7.5 2.04076 7.56585 2.19973 7.68306 2.31694C7.80027 2.43415 7.95924 2.5 8.125 2.5H9.375V4.375H8.125C7.46196 4.375 6.82607 4.63839 6.35723 5.10723C5.88839 5.57607 5.625 6.21196 5.625 6.875V7.5625C4.91962 7.70753 4.28581 8.09133 3.83041 8.64919C3.37502 9.20705 3.12588 9.90486 3.125 10.625V16.875C3.125 17.2065 3.2567 17.5245 3.49112 17.7589C3.72554 17.9933 4.04348 18.125 4.375 18.125H15.625C15.9565 18.125 16.2745 17.9933 16.5089 17.7589C16.7433 17.5245 16.875 17.2065 16.875 16.875V10.625C16.8741 9.90486 16.625 9.20705 16.1696 8.64919C15.7142 8.09133 15.0804 7.70753 14.375 7.5625ZM8.125 5.625H11.875C12.2065 5.625 12.5245 5.7567 12.7589 5.99112C12.9933 6.22554 13.125 6.54348 13.125 6.875V7.5H6.875V6.875C6.875 6.54348 7.0067 6.22554 7.24112 5.99112C7.47554 5.7567 7.79348 5.625 8.125 5.625ZM15.625 16.875H4.375V10.625C4.375 10.1277 4.57254 9.65081 4.92417 9.29917C5.27581 8.94754 5.75272 8.75 6.25 8.75H13.75C14.2473 8.75 14.7242 8.94754 15.0758 9.29917C15.4275 9.65081 15.625 10.1277 15.625 10.625V16.875Z" fill="#191F2E"/>
</svg>
