<svg width="20" height="20" viewBox="0 0 20 20" fill="none" xmlns="http://www.w3.org/2000/svg">
<path d="M18.3843 14.0624L15.5531 11.2304L12.7046 1.83276C12.6237 1.56516 12.478 1.32166 12.2805 1.12382C12.0829 0.925988 11.8396 0.779924 11.5722 0.698569C11.3047 0.617215 11.0213 0.603082 10.747 0.657422C10.4728 0.711762 10.2162 0.832898 9.99996 1.0101C9.78372 0.832898 9.52711 0.711762 9.25287 0.657422C8.97863 0.603082 8.69522 0.617215 8.42775 0.698569C8.16028 0.779924 7.917 0.925988 7.71946 1.12382C7.52192 1.32166 7.37622 1.56516 7.29527 1.83276L4.44683 11.2312L1.61558 14.0624C1.38134 14.2968 1.24976 14.6147 1.24976 14.946C1.24976 15.2774 1.38134 15.5952 1.61558 15.8296L4.16949 18.3835C4.28557 18.4996 4.42338 18.5917 4.57505 18.6546C4.72673 18.7174 4.8893 18.7498 5.05347 18.7498C5.21765 18.7498 5.38022 18.7174 5.53189 18.6546C5.68357 18.5917 5.82138 18.4996 5.93746 18.3835L9.70933 14.6093C9.8139 14.5045 9.91101 14.3925 9.99996 14.2742C10.0889 14.3925 10.186 14.5045 10.2906 14.6093L14.0625 18.3843C14.1785 18.5004 14.3163 18.5925 14.468 18.6554C14.6197 18.7182 14.7823 18.7505 14.9464 18.7505C15.1106 18.7505 15.2732 18.7182 15.4249 18.6554C15.5765 18.5925 15.7143 18.5004 15.8304 18.3843L18.3843 15.8304C18.5004 15.7143 18.5925 15.5765 18.6554 15.4248C18.7182 15.2732 18.7505 15.1106 18.7505 14.9464C18.7505 14.7823 18.7182 14.6197 18.6554 14.468C18.5925 14.3163 18.5004 14.1785 18.3843 14.0624ZM9.37496 12.4023C9.37621 12.6488 9.32851 12.8932 9.23464 13.1212C9.14076 13.3491 9.00257 13.5562 8.82808 13.7304L6.92808 15.6249L4.37496 13.0718L5.44136 12.0046C5.51414 11.9318 5.56781 11.8422 5.59761 11.7437L8.48824 2.19526C8.51756 2.089 8.58473 1.99715 8.67709 1.93699C8.76945 1.87684 8.88062 1.85254 8.98965 1.86868C9.09869 1.88482 9.19805 1.94028 9.26902 2.02461C9.34 2.10894 9.37768 2.21632 9.37496 2.32651V12.4023ZM13.0812 15.6351L11.1718 13.7281C10.9973 13.5539 10.8592 13.3468 10.7653 13.1188C10.6714 12.8908 10.6237 12.6465 10.625 12.3999V2.32182C10.625 2.21357 10.6639 2.10894 10.7346 2.02698C10.8053 1.94502 10.9031 1.89118 11.0102 1.87527C11.1172 1.85937 11.2265 1.88246 11.3179 1.94033C11.4094 1.9982 11.4771 2.087 11.5086 2.19057L14.3992 11.739C14.429 11.8375 14.4827 11.9272 14.5554 11.9999L15.6875 13.132L13.0812 15.6351Z" fill="#191F2E"/>
</svg>
