<svg width="20" height="20" viewBox="0 0 20 20" fill="none" xmlns="http://www.w3.org/2000/svg">
<path d="M14.6875 6.56248C14.4767 6.56207 14.2667 6.58832 14.0625 6.6406V4.68748C14.0628 4.28352 13.9653 3.8855 13.7782 3.52748C13.5911 3.16946 13.3201 2.86211 12.9883 2.63173C12.6564 2.40135 12.2737 2.25481 11.8729 2.20466C11.4721 2.1545 11.0651 2.20222 10.6867 2.34373C10.4397 1.83456 10.0272 1.42429 9.51669 1.17999C9.0062 0.93569 8.42793 0.871823 7.87643 0.998833C7.32494 1.12584 6.83285 1.43621 6.48065 1.87919C6.12844 2.32217 5.93695 2.87154 5.9375 3.43748V3.5156C5.56797 3.42019 5.1815 3.41065 4.80771 3.48771C4.43392 3.56477 4.08273 3.72639 3.78107 3.96018C3.47941 4.19397 3.23528 4.49372 3.06739 4.83646C2.8995 5.1792 2.81231 5.55583 2.8125 5.93748V11.875C2.8125 13.7812 3.56975 15.6094 4.91767 16.9573C6.26559 18.3052 8.09376 19.0625 10 19.0625C11.9062 19.0625 13.7344 18.3052 15.0823 16.9573C16.4302 15.6094 17.1875 13.7812 17.1875 11.875V9.06248C17.1875 8.39944 16.9241 7.76355 16.4553 7.29471C15.9864 6.82587 15.3505 6.56248 14.6875 6.56248ZM15.3125 11.875C15.3125 13.2839 14.7528 14.6352 13.7565 15.6315C12.7602 16.6278 11.409 17.1875 10 17.1875C8.59104 17.1875 7.23978 16.6278 6.2435 15.6315C5.24721 14.6352 4.6875 13.2839 4.6875 11.875V5.93748C4.6875 5.77172 4.75335 5.61275 4.87056 5.49554C4.98777 5.37832 5.14674 5.31248 5.3125 5.31248C5.47826 5.31248 5.63723 5.37832 5.75444 5.49554C5.87165 5.61275 5.9375 5.77172 5.9375 5.93748V9.37498C5.9375 9.62362 6.03627 9.86207 6.21209 10.0379C6.3879 10.2137 6.62636 10.3125 6.875 10.3125C7.12364 10.3125 7.3621 10.2137 7.53791 10.0379C7.71373 9.86207 7.8125 9.62362 7.8125 9.37498V3.43748C7.8125 3.27172 7.87835 3.11275 7.99556 2.99554C8.11277 2.87833 8.27174 2.81248 8.4375 2.81248C8.60326 2.81248 8.76223 2.87833 8.87944 2.99554C8.99665 3.11275 9.0625 3.27172 9.0625 3.43748V8.74998C9.0625 8.99862 9.16127 9.23707 9.33709 9.41289C9.5129 9.58871 9.75136 9.68748 10 9.68748C10.2486 9.68748 10.4871 9.58871 10.6629 9.41289C10.8387 9.23707 10.9375 8.99862 10.9375 8.74998V4.68748C10.9375 4.52172 11.0033 4.36275 11.1206 4.24554C11.2378 4.12833 11.3967 4.06248 11.5625 4.06248C11.7283 4.06248 11.8872 4.12833 12.0044 4.24554C12.1217 4.36275 12.1875 4.52172 12.1875 4.68748V9.79685C11.2983 10.009 10.5065 10.5144 9.93954 11.2315C9.37263 11.9487 9.06369 12.8358 9.0625 13.75C9.0625 13.9986 9.16127 14.2371 9.33709 14.4129C9.5129 14.5887 9.75136 14.6875 10 14.6875C10.2486 14.6875 10.4871 14.5887 10.6629 14.4129C10.8387 14.2371 10.9375 13.9986 10.9375 13.75C10.9375 13.1698 11.168 12.6134 11.5782 12.2032C11.9884 11.7929 12.5448 11.5625 13.125 11.5625C13.3736 11.5625 13.6121 11.4637 13.7879 11.2879C13.9637 11.1121 14.0625 10.8736 14.0625 10.625V9.06248C14.0625 8.89672 14.1283 8.73775 14.2456 8.62054C14.3628 8.50333 14.5217 8.43748 14.6875 8.43748C14.8533 8.43748 15.0122 8.50333 15.1294 8.62054C15.2467 8.73775 15.3125 8.89672 15.3125 9.06248V11.875Z" fill="#191F2E"/>
</svg>
