<svg width="20" height="20" viewBox="0 0 20 20" fill="none" xmlns="http://www.w3.org/2000/svg">
<path d="M16.25 10.9375V13.75C16.25 15.7492 15.5867 17.0977 15.5586 17.1547C15.5067 17.2584 15.427 17.3456 15.3283 17.4066C15.2297 17.4676 15.116 17.5 15 17.5C14.9031 17.5001 14.8076 17.4773 14.7211 17.4336C14.5729 17.3595 14.4601 17.2296 14.4077 17.0724C14.3552 16.9152 14.3674 16.7436 14.4414 16.5953C14.4461 16.5859 15.0008 15.4383 15.0008 13.75V10.9375C15.0008 10.6889 14.902 10.4504 14.7262 10.2746C14.5504 10.0988 14.3119 10 14.0633 10C13.8146 10 13.5762 10.0988 13.4004 10.2746C13.2246 10.4504 13.1258 10.6889 13.1258 10.9375V11.25C13.1258 11.4158 13.0599 11.5747 12.9427 11.692C12.8255 11.8092 12.6665 11.875 12.5008 11.875C12.335 11.875 12.1761 11.8092 12.0588 11.692C11.9416 11.5747 11.8758 11.4158 11.8758 11.25V9.68751C11.8758 9.43887 11.777 9.20041 11.6012 9.0246C11.4254 8.84878 11.1869 8.75001 10.9383 8.75001C10.6896 8.75001 10.4512 8.84878 10.2754 9.0246C10.0996 9.20041 10.0008 9.43887 10.0008 9.68751V10.625C10.0008 10.7908 9.93494 10.9497 9.81773 11.067C9.70052 11.1842 9.54154 11.25 9.37578 11.25C9.21002 11.25 9.05105 11.1842 8.93384 11.067C8.81663 10.9497 8.75078 10.7908 8.75078 10.625V5.31251C8.75078 5.06387 8.65201 4.82541 8.4762 4.6496C8.30038 4.47378 8.06192 4.37501 7.81328 4.37501C7.56464 4.37501 7.32619 4.47378 7.15037 4.6496C6.97456 4.82541 6.87578 5.06387 6.87578 5.31251V13.75C6.87578 13.8858 6.83155 14.0179 6.74979 14.1263C6.66804 14.2347 6.5532 14.3136 6.42265 14.3509C6.29209 14.3882 6.15294 14.382 6.02622 14.3332C5.8995 14.2845 5.79212 14.1957 5.72032 14.0805L4.26094 11.7367L4.25 11.7188C4.18845 11.6121 4.10648 11.5185 4.00877 11.4435C3.91107 11.3685 3.79955 11.3135 3.68057 11.2815C3.5616 11.2496 3.4375 11.2414 3.31536 11.2575C3.19323 11.2735 3.07545 11.3135 2.96875 11.375C2.86205 11.4366 2.76852 11.5185 2.6935 11.6162C2.61848 11.7139 2.56344 11.8255 2.53152 11.9444C2.4996 12.0634 2.49143 12.1875 2.50747 12.3096C2.52351 12.4318 2.56345 12.5496 2.625 12.6563L4.91328 16.5625C4.96144 16.6335 4.99447 16.7137 5.01029 16.798C5.02612 16.8824 5.02441 16.9691 5.00528 17.0527C4.98614 17.1363 4.94999 17.2151 4.89907 17.2842C4.84815 17.3533 4.78355 17.4111 4.7093 17.4541C4.63506 17.4971 4.55275 17.5244 4.46751 17.5342C4.38227 17.544 4.29592 17.5362 4.21384 17.5112C4.13176 17.4862 4.05571 17.4445 3.99042 17.3888C3.92514 17.3331 3.87202 17.2646 3.83438 17.1875L1.54375 13.2813C1.25191 12.7797 1.17125 12.1828 1.31952 11.6218C1.4678 11.0608 1.83285 10.5817 2.33438 10.2899C2.83591 9.99801 3.43283 9.91736 3.99382 10.0656C4.55482 10.2139 5.03394 10.579 5.32578 11.0805L5.625 11.5625V5.31251C5.625 4.73235 5.85547 4.17595 6.26571 3.76571C6.67594 3.35548 7.23234 3.12501 7.8125 3.12501C8.39266 3.12501 8.94906 3.35548 9.3593 3.76571C9.76953 4.17595 10 4.73235 10 5.31251V7.71095C10.2813 7.57746 10.5878 7.50554 10.8991 7.50002C11.2104 7.4945 11.5193 7.55549 11.8051 7.67892C12.091 7.80235 12.3472 7.98537 12.5566 8.21576C12.766 8.44614 12.9238 8.71858 13.0195 9.01485C13.3527 8.83414 13.7271 8.74309 14.1061 8.75064C14.4851 8.7582 14.8556 8.86409 15.1813 9.05795C15.507 9.2518 15.7767 9.52696 15.9641 9.85645C16.1514 10.186 16.25 10.5585 16.25 10.9375ZM18.75 3.75001H14.6336L16.0664 2.3172C16.1837 2.20003 16.2496 2.04107 16.2497 1.87529C16.2498 1.70951 16.184 1.55049 16.0668 1.43321C15.9496 1.31594 15.7907 1.25001 15.6249 1.24994C15.4591 1.24987 15.3001 1.31565 15.1828 1.43282L12.6828 3.93282C12.6247 3.99087 12.5786 4.0598 12.5472 4.13567C12.5157 4.21155 12.4995 4.29288 12.4995 4.37501C12.4995 4.45715 12.5157 4.53847 12.5472 4.61435C12.5786 4.69022 12.6247 4.75915 12.6828 4.8172L15.1828 7.3172C15.3001 7.43437 15.4591 7.50016 15.6249 7.50008C15.7907 7.50001 15.9496 7.43408 16.0668 7.31681C16.184 7.19953 16.2498 7.04051 16.2497 6.87473C16.2496 6.70896 16.1837 6.54999 16.0664 6.43282L14.6336 5.00001H18.75C18.9158 5.00001 19.0747 4.93416 19.1919 4.81695C19.3092 4.69974 19.375 4.54077 19.375 4.37501C19.375 4.20925 19.3092 4.05028 19.1919 3.93307C19.0747 3.81586 18.9158 3.75001 18.75 3.75001Z" fill="#191F2E"/>
</svg>
