<svg width="20" height="20" viewBox="0 0 20 20" fill="none" xmlns="http://www.w3.org/2000/svg">
<path d="M14.6875 6.87488C14.3631 6.87442 14.0427 6.94677 13.75 7.0866V4.68738C13.7499 4.3083 13.6513 3.93575 13.4638 3.60626C13.2764 3.27676 13.0065 3.00164 12.6807 2.80785C12.3549 2.61407 11.9843 2.50828 11.6053 2.50086C11.2263 2.49343 10.8519 2.58463 10.5188 2.76551C10.3584 2.26987 10.0264 1.84774 9.58249 1.57506C9.13861 1.30239 8.61199 1.19708 8.09739 1.27807C7.58278 1.35907 7.11397 1.62105 6.77531 2.0169C6.43666 2.41274 6.25038 2.91644 6.25 3.43738V3.9616C5.95728 3.82178 5.6369 3.74942 5.3125 3.74988C4.73234 3.74988 4.17594 3.98035 3.7657 4.39059C3.35547 4.80082 3.125 5.35722 3.125 5.93738V11.8749C3.125 13.6982 3.84933 15.4469 5.13864 16.7362C6.42795 18.0256 8.17664 18.7499 10 18.7499C11.8234 18.7499 13.572 18.0256 14.8614 16.7362C16.1507 15.4469 16.875 13.6982 16.875 11.8749V9.06238C16.875 8.48222 16.6445 7.92582 16.2343 7.51559C15.8241 7.10535 15.2677 6.87488 14.6875 6.87488ZM15.625 11.8749C15.625 13.3667 15.0324 14.7975 13.9775 15.8524C12.9226 16.9072 11.4918 17.4999 10 17.4999C8.50816 17.4999 7.07742 16.9072 6.02252 15.8524C4.96763 14.7975 4.375 13.3667 4.375 11.8749V5.93738C4.375 5.68874 4.47377 5.45028 4.64959 5.27447C4.8254 5.09865 5.06386 4.99988 5.3125 4.99988C5.56114 4.99988 5.7996 5.09865 5.97541 5.27447C6.15123 5.45028 6.25 5.68874 6.25 5.93738V8.74988C6.25 8.91564 6.31585 9.07461 6.43306 9.19182C6.55027 9.30903 6.70924 9.37488 6.875 9.37488C7.04076 9.37488 7.19973 9.30903 7.31694 9.19182C7.43415 9.07461 7.5 8.91564 7.5 8.74988V3.43738C7.5 3.18874 7.59877 2.95028 7.77459 2.77447C7.9504 2.59865 8.18886 2.49988 8.4375 2.49988C8.68614 2.49988 8.9246 2.59865 9.10041 2.77447C9.27623 2.95028 9.375 3.18874 9.375 3.43738V8.12488C9.375 8.29064 9.44085 8.44961 9.55806 8.56682C9.67527 8.68403 9.83424 8.74988 10 8.74988C10.1658 8.74988 10.3247 8.68403 10.4419 8.56682C10.5592 8.44961 10.625 8.29064 10.625 8.12488V4.68738C10.625 4.43874 10.7238 4.20028 10.8996 4.02447C11.0754 3.84865 11.3139 3.74988 11.5625 3.74988C11.8111 3.74988 12.0496 3.84865 12.2254 4.02447C12.4012 4.20028 12.5 4.43874 12.5 4.68738V9.37488C12.5 9.54064 12.5658 9.69961 12.6831 9.81682C12.8003 9.93403 12.9592 9.99988 13.125 9.99988C13.2908 9.99988 13.4497 9.93403 13.5669 9.81682C13.6842 9.69961 13.75 9.54064 13.75 9.37488V9.06238C13.75 8.81374 13.8488 8.57528 14.0246 8.39947C14.2004 8.22365 14.4389 8.12488 14.6875 8.12488C14.9361 8.12488 15.1746 8.22365 15.3504 8.39947C15.5262 8.57528 15.625 8.81374 15.625 9.06238V11.8749ZM10 9.99988C7.14687 9.99988 5.74922 12.7296 5.69062 12.8452C5.64717 12.932 5.62455 13.0278 5.62455 13.1249C5.62455 13.222 5.64717 13.3177 5.69062 13.4046C5.74922 13.5202 7.14687 16.2499 10 16.2499C12.8531 16.2499 14.2508 13.5202 14.3094 13.4046C14.3528 13.3177 14.3754 13.222 14.3754 13.1249C14.3754 13.0278 14.3528 12.932 14.3094 12.8452C14.2508 12.7296 12.8531 9.99988 10 9.99988ZM10 14.3749C9.75277 14.3749 9.5111 14.3016 9.30554 14.1642C9.09998 14.0269 8.93976 13.8316 8.84515 13.6032C8.75054 13.3748 8.72579 13.1235 8.77402 12.881C8.82225 12.6385 8.9413 12.4158 9.11612 12.241C9.29093 12.0662 9.51366 11.9471 9.75614 11.8989C9.99861 11.8507 10.2499 11.8754 10.4784 11.97C10.7068 12.0646 10.902 12.2249 11.0393 12.4304C11.1767 12.636 11.25 12.8777 11.25 13.1249C11.25 13.4564 11.1183 13.7743 10.8839 14.0088C10.6495 14.2432 10.3315 14.3749 10 14.3749Z" fill="#191F2E"/>
</svg>
