<svg width="20" height="20" viewBox="0 0 20 20" fill="none" xmlns="http://www.w3.org/2000/svg">
<path d="M16.875 8.125V11.875C16.875 13.6984 16.1507 15.447 14.8614 16.7364C13.572 18.0257 11.8234 18.75 10 18.75C8.17664 18.75 6.42795 18.0257 5.13864 16.7364C3.84933 15.447 3.125 13.6984 3.125 11.875V5C3.125 4.66848 3.2567 4.35054 3.49112 4.11612C3.72554 3.8817 4.04348 3.75 4.375 3.75C4.70652 3.75 5.02446 3.8817 5.25888 4.11612C5.4933 4.35054 5.625 4.66848 5.625 5V9.375C5.625 9.54076 5.69085 9.69973 5.80806 9.81694C5.92527 9.93415 6.08424 10 6.25 10C6.41576 10 6.57473 9.93415 6.69194 9.81694C6.80915 9.69973 6.875 9.54076 6.875 9.375V2.5C6.875 2.16848 7.0067 1.85054 7.24112 1.61612C7.47554 1.3817 7.79348 1.25 8.125 1.25C8.45652 1.25 8.77446 1.3817 9.00888 1.61612C9.2433 1.85054 9.375 2.16848 9.375 2.5V8.75C9.375 8.91576 9.44085 9.07473 9.55806 9.19194C9.67527 9.30915 9.83424 9.375 10 9.375C10.1658 9.375 10.3247 9.30915 10.4419 9.19194C10.5592 9.07473 10.625 8.91576 10.625 8.75V3.75C10.625 3.41848 10.7567 3.10054 10.9911 2.86612C11.2255 2.6317 11.5435 2.5 11.875 2.5C12.2065 2.5 12.5245 2.6317 12.7589 2.86612C12.9933 3.10054 13.125 3.41848 13.125 3.75V10.0523C12.2517 10.2012 11.4592 10.654 10.8873 11.3306C10.3155 12.0072 10.0012 12.8641 10 13.75C10 13.9158 10.0658 14.0747 10.1831 14.1919C10.3003 14.3092 10.4592 14.375 10.625 14.375C10.7908 14.375 10.9497 14.3092 11.0669 14.1919C11.1842 14.0747 11.25 13.9158 11.25 13.75C11.25 13.087 11.5134 12.4511 11.9822 11.9822C12.4511 11.5134 13.087 11.25 13.75 11.25C13.9158 11.25 14.0747 11.1842 14.1919 11.0669C14.3092 10.9497 14.375 10.7908 14.375 10.625V8.125C14.375 7.79348 14.5067 7.47554 14.7411 7.24112C14.9755 7.0067 15.2935 6.875 15.625 6.875C15.9565 6.875 16.2745 7.0067 16.5089 7.24112C16.7433 7.47554 16.875 7.79348 16.875 8.125Z" fill="#191F2E"/>
</svg>
