<svg width="20" height="20" viewBox="0 0 20 20" fill="none" xmlns="http://www.w3.org/2000/svg">
<path d="M19.6875 4.37499C19.6875 4.62363 19.5888 4.86209 19.4129 5.0379C19.2371 5.21372 18.9987 5.31249 18.75 5.31249H15.3907L16.2899 6.21171C16.466 6.38783 16.5649 6.6267 16.5649 6.87577C16.5649 7.12484 16.466 7.36371 16.2899 7.53983C16.1138 7.71595 15.8749 7.8149 15.6258 7.8149C15.3767 7.8149 15.1379 7.71595 14.9617 7.53983L12.4617 5.03983C12.3743 4.95274 12.305 4.84924 12.2577 4.73529C12.2104 4.62133 12.186 4.49916 12.186 4.37577C12.186 4.25238 12.2104 4.13021 12.2577 4.01625C12.305 3.9023 12.3743 3.79881 12.4617 3.71171L14.9617 1.21171C15.1379 1.03559 15.3767 0.936646 15.6258 0.936646C15.8749 0.936646 16.1138 1.03559 16.2899 1.21171C16.466 1.38783 16.5649 1.6267 16.5649 1.87577C16.5649 2.12484 16.466 2.36371 16.2899 2.53983L15.3907 3.43749H18.75C18.9987 3.43749 19.2371 3.53626 19.4129 3.71208C19.5888 3.88789 19.6875 4.12635 19.6875 4.37499ZM14.0625 9.06249C13.7633 9.06147 13.4664 9.1144 13.186 9.21874C12.9338 8.69979 12.51 8.28403 11.9862 8.04196C11.4625 7.79989 10.8712 7.74642 10.3125 7.89062V5.93749C10.3125 5.27445 10.0491 4.63856 9.5803 4.16972C9.11145 3.70088 8.47557 3.43749 7.81253 3.43749C7.14949 3.43749 6.5136 3.70088 6.04476 4.16972C5.57592 4.63856 5.31253 5.27445 5.31253 5.93749V11.1586C4.90267 10.6926 4.33415 10.3957 3.71754 10.3257C3.10093 10.2557 2.48031 10.4175 1.97638 10.7796C1.47244 11.1418 1.12122 11.6784 0.991016 12.2852C0.860811 12.892 0.960931 13.5255 1.2719 14.0625L1.28128 14.0781L3.25862 17.3594C3.32223 17.4648 3.40599 17.5567 3.50512 17.6298C3.60425 17.7029 3.7168 17.7558 3.83636 17.7854C3.95591 17.815 4.08013 17.8207 4.20191 17.8023C4.32369 17.7839 4.44065 17.7417 4.54612 17.6781C4.65159 17.6145 4.7435 17.5307 4.81659 17.4316C4.88969 17.3325 4.94255 17.2199 4.97215 17.1004C5.00175 16.9808 5.00751 16.8566 4.9891 16.7348C4.97069 16.613 4.92848 16.4961 4.86487 16.3906L2.89065 13.1187C2.8086 12.9745 2.7872 12.8036 2.83115 12.6436C2.87511 12.4836 2.98082 12.3477 3.12503 12.2656C3.26924 12.1836 3.44014 12.1622 3.60013 12.2061C3.76012 12.2501 3.8961 12.3558 3.97815 12.5L3.99456 12.5266L5.45394 14.8703C5.56155 15.0433 5.7226 15.1766 5.91272 15.2499C6.10283 15.3232 6.31166 15.3326 6.50758 15.2766C6.7035 15.2206 6.87585 15.1024 6.99854 14.9397C7.12123 14.777 7.18757 14.5788 7.18753 14.375V5.93749C7.18753 5.77173 7.25338 5.61276 7.37059 5.49555C7.4878 5.37834 7.64677 5.31249 7.81253 5.31249C7.97829 5.31249 8.13726 5.37834 8.25447 5.49555C8.37168 5.61276 8.43753 5.77173 8.43753 5.93749V11.25C8.43753 11.4986 8.5363 11.7371 8.71212 11.9129C8.88793 12.0887 9.12639 12.1875 9.37503 12.1875C9.62367 12.1875 9.86213 12.0887 10.0379 11.9129C10.2138 11.7371 10.3125 11.4986 10.3125 11.25V10.3125C10.3125 10.1467 10.3784 9.98776 10.4956 9.87055C10.6128 9.75334 10.7718 9.68749 10.9375 9.68749C11.1033 9.68749 11.2623 9.75334 11.3795 9.87055C11.4967 9.98776 11.5625 10.1467 11.5625 10.3125V11.875C11.5625 12.1236 11.6613 12.3621 11.8371 12.5379C12.0129 12.7137 12.2514 12.8125 12.5 12.8125C12.7487 12.8125 12.9871 12.7137 13.1629 12.5379C13.3388 12.3621 13.4375 12.1236 13.4375 11.875V11.5625C13.4375 11.3967 13.5034 11.2378 13.6206 11.1205C13.7378 11.0033 13.8968 10.9375 14.0625 10.9375C14.2283 10.9375 14.3873 11.0033 14.5045 11.1205C14.6217 11.2378 14.6875 11.3967 14.6875 11.5625V14.375C14.6875 15.2406 14.5875 16.068 14.4203 16.5875C14.3802 16.7053 14.3639 16.8299 14.3723 16.954C14.3808 17.0782 14.414 17.1994 14.4698 17.3107C14.5256 17.4219 14.603 17.5209 14.6975 17.6019C14.792 17.6829 14.9017 17.7442 15.0201 17.7824C15.1386 17.8206 15.2634 17.8348 15.3874 17.8242C15.5114 17.8136 15.6321 17.7784 15.7423 17.7207C15.8526 17.663 15.9503 17.5839 16.0297 17.4881C16.109 17.3923 16.1686 17.2816 16.2047 17.1625C16.4391 16.4469 16.5625 15.457 16.5625 14.375V11.5625C16.5625 10.8994 16.2991 10.2636 15.8303 9.79472C15.3615 9.32588 14.7256 9.06249 14.0625 9.06249Z" fill="#191F2E"/>
</svg>
