<svg width="20" height="20" viewBox="0 0 20 20" fill="none" xmlns="http://www.w3.org/2000/svg">
<path d="M14.6874 6.875C14.3231 6.8746 13.9645 6.96566 13.6445 7.13984C13.5488 6.84357 13.391 6.57113 13.1815 6.34075C12.9721 6.11036 12.7159 5.92734 12.4301 5.80391C12.1442 5.68048 11.8353 5.61949 11.524 5.62501C11.2128 5.63053 10.9062 5.70244 10.6249 5.83594V3.4375C10.6249 2.85734 10.3945 2.30094 9.98424 1.8907C9.57401 1.48047 9.01761 1.25 8.43745 1.25C7.85729 1.25 7.30089 1.48047 6.89065 1.8907C6.48041 2.30094 6.24995 2.85734 6.24995 3.4375V9.6875L5.95151 9.20859C5.80721 8.96006 5.61537 8.74238 5.38694 8.56798C5.15851 8.39358 4.89797 8.26588 4.6202 8.19218C4.0592 8.04332 3.46205 8.12342 2.9601 8.41484C2.45816 8.70627 2.09254 9.18516 1.94369 9.74616C1.79483 10.3072 1.87492 10.9043 2.16635 11.4062L2.5312 12.0492C5.21948 16.7883 6.33198 18.75 9.99995 18.75C11.8227 18.7479 13.5702 18.0229 14.859 16.7341C16.1479 15.4452 16.8729 13.6977 16.8749 11.875V9.0625C16.8749 8.48234 16.6445 7.92594 16.2342 7.5157C15.824 7.10547 15.2676 6.875 14.6874 6.875ZM15.6249 11.875C15.6233 13.3663 15.0301 14.7961 13.9756 15.8506C12.9211 16.9052 11.4913 17.4983 9.99995 17.5C7.0601 17.5 6.26245 16.0938 3.6187 11.4313L3.25229 10.7852V10.7812C3.12788 10.5661 3.09396 10.3105 3.15798 10.0704C3.22199 9.83026 3.37871 9.62539 3.5937 9.50078C3.7361 9.41829 3.89788 9.37515 4.06245 9.37578C4.22725 9.37554 4.3892 9.41874 4.53198 9.50104C4.67476 9.58333 4.79333 9.70181 4.87573 9.84453C4.87891 9.85079 4.88257 9.8568 4.88666 9.8625L6.34526 12.2063C6.41724 12.3212 6.52466 12.4096 6.6513 12.4581C6.77794 12.5066 6.91693 12.5127 7.04729 12.4753C7.17765 12.4379 7.29231 12.3591 7.37397 12.2508C7.45562 12.1425 7.49984 12.0106 7.49995 11.875V3.4375C7.49995 3.18886 7.59872 2.9504 7.77453 2.77459C7.95035 2.59877 8.18881 2.5 8.43745 2.5C8.68609 2.5 8.92454 2.59877 9.10036 2.77459C9.27617 2.9504 9.37495 3.18886 9.37495 3.4375V8.75C9.37495 8.91576 9.44079 9.07473 9.558 9.19194C9.67521 9.30915 9.83419 9.375 9.99995 9.375C10.1657 9.375 10.3247 9.30915 10.4419 9.19194C10.5591 9.07473 10.6249 8.91576 10.6249 8.75V7.8125C10.6249 7.56386 10.7237 7.3254 10.8995 7.14959C11.0753 6.97377 11.3138 6.875 11.5624 6.875C11.8111 6.875 12.0495 6.97377 12.2254 7.14959C12.4012 7.3254 12.4999 7.56386 12.4999 7.8125V9.375C12.4999 9.54076 12.5658 9.69973 12.683 9.81694C12.8002 9.93415 12.9592 10 13.1249 10C13.2907 10 13.4497 9.93415 13.5669 9.81694C13.6841 9.69973 13.7499 9.54076 13.7499 9.375V9.0625C13.7499 8.81386 13.8487 8.5754 14.0245 8.39959C14.2003 8.22377 14.4388 8.125 14.6874 8.125C14.9361 8.125 15.1745 8.22377 15.3504 8.39959C15.5262 8.5754 15.6249 8.81386 15.6249 9.0625V11.875Z" fill="#191F2E"/>
</svg>
