<svg width="20" height="20" viewBox="0 0 20 20" fill="none" xmlns="http://www.w3.org/2000/svg">
<path d="M19.0516 15.4414L17.9383 6.06641C17.8922 5.68581 17.7082 5.33529 17.4212 5.08119C17.1341 4.82708 16.7638 4.68702 16.3805 4.6875H14.0492C13.9668 3.67022 13.5044 2.72124 12.7541 2.02932C12.0038 1.3374 11.0206 0.953232 9.99999 0.953232C8.97937 0.953232 7.99614 1.3374 7.24586 2.02932C6.49558 2.72124 6.03324 3.67022 5.95078 4.6875H3.61953C3.23615 4.68702 2.86589 4.82708 2.57882 5.08119C2.29174 5.33529 2.10777 5.68581 2.06171 6.06641L0.948432 15.4414C0.922439 15.6611 0.943385 15.8838 1.00988 16.0947C1.07638 16.3057 1.18692 16.5002 1.33418 16.6652C1.48144 16.8303 1.66207 16.9622 1.86413 17.0522C2.06618 17.1423 2.28504 17.1884 2.50624 17.1875H17.4937C17.7149 17.1884 17.9338 17.1423 18.1359 17.0522C18.3379 16.9622 18.5185 16.8303 18.6658 16.6652C18.8131 16.5002 18.9236 16.3057 18.9901 16.0947C19.0566 15.8838 19.0775 15.6611 19.0516 15.4414ZM9.99999 2.8125C10.526 2.81256 11.0343 3.00213 11.4319 3.34648C11.8295 3.69084 12.0897 4.16692 12.1648 4.6875H7.83515C7.91029 4.16692 8.17049 3.69084 8.56808 3.34648C8.96566 3.00213 9.47401 2.81256 9.99999 2.8125ZM2.85156 15.3125L3.8914 6.5625H16.1086L17.1484 15.3125H2.85156Z" fill="#191F2E"/>
</svg>
