<svg width="20" height="20" viewBox="0 0 20 20" fill="none" xmlns="http://www.w3.org/2000/svg">
<path d="M16.5625 11.5625V14.375C16.5625 15.457 16.4352 16.4469 16.2047 17.1625C16.1685 17.2816 16.109 17.3923 16.0296 17.4881C15.9502 17.5839 15.8526 17.663 15.7423 17.7207C15.632 17.7784 15.5114 17.8136 15.3874 17.8242C15.2634 17.8348 15.1385 17.8206 15.0201 17.7824C14.9016 17.7442 14.792 17.6829 14.6975 17.6019C14.603 17.5209 14.5256 17.4219 14.4698 17.3107C14.4139 17.1994 14.3808 17.0782 14.3723 16.954C14.3638 16.8299 14.3801 16.7053 14.4203 16.5875C14.5875 16.068 14.6875 15.2406 14.6875 14.375V11.5625C14.6875 11.3967 14.6216 11.2378 14.5044 11.1205C14.3872 11.0033 14.2283 10.9375 14.0625 10.9375C13.8967 10.9375 13.7378 11.0033 13.6206 11.1205C13.5033 11.2378 13.4375 11.3967 13.4375 11.5625V11.875C13.4375 12.1236 13.3387 12.3621 13.1629 12.5379C12.9871 12.7137 12.7486 12.8125 12.5 12.8125C12.2514 12.8125 12.0129 12.7137 11.8371 12.5379C11.6613 12.3621 11.5625 12.1236 11.5625 11.875V10.3125C11.5625 10.1467 11.4966 9.98776 11.3794 9.87055C11.2622 9.75334 11.1033 9.68749 10.9375 9.68749C10.7717 9.68749 10.6128 9.75334 10.4956 9.87055C10.3783 9.98776 10.3125 10.1467 10.3125 10.3125V11.25C10.3125 11.4986 10.2137 11.7371 10.0379 11.9129C9.86209 12.0887 9.62363 12.1875 9.37499 12.1875C9.12635 12.1875 8.8879 12.0887 8.71208 11.9129C8.53627 11.7371 8.43749 11.4986 8.43749 11.25V5.93749C8.43749 5.77173 8.37165 5.61276 8.25444 5.49555C8.13723 5.37834 7.97825 5.31249 7.81249 5.31249C7.64673 5.31249 7.48776 5.37834 7.37055 5.49555C7.25334 5.61276 7.18749 5.77173 7.18749 5.93749V14.375C7.18726 14.5785 7.12081 14.7764 6.99816 14.9389C6.87552 15.1013 6.70334 15.2194 6.50765 15.2753C6.31196 15.3313 6.10338 15.322 5.91342 15.2489C5.72346 15.1759 5.56244 15.043 5.45468 14.8703L3.99531 12.5266L3.9789 12.5C3.93827 12.4285 3.88397 12.3658 3.81909 12.3153C3.75421 12.2648 3.68002 12.2276 3.60076 12.2058C3.52151 12.184 3.43873 12.1781 3.35717 12.1883C3.2756 12.1984 3.19684 12.2246 3.12538 12.2652C3.05393 12.3059 2.99117 12.3602 2.9407 12.425C2.89023 12.4899 2.85303 12.5641 2.83123 12.6434C2.80943 12.7226 2.80346 12.8054 2.81365 12.887C2.82384 12.9685 2.84999 13.0473 2.89062 13.1187L4.86484 16.3906C4.9932 16.6036 5.03169 16.8589 4.97184 17.1003C4.91199 17.3416 4.7587 17.5494 4.5457 17.6777C4.3327 17.8061 4.07743 17.8446 3.83605 17.7847C3.59467 17.7249 3.38695 17.5716 3.25859 17.3586L1.28124 14.0773L1.27187 14.0617C0.96166 13.5247 0.862129 12.8915 0.992608 12.2852C1.12309 11.679 1.47426 11.1428 1.97792 10.7809C2.48157 10.4191 3.10175 10.2573 3.71799 10.3271C4.33422 10.3969 4.90252 10.6932 5.31249 11.1586V5.93749C5.31249 5.27445 5.57589 4.63856 6.04473 4.16972C6.51357 3.70088 7.14945 3.43749 7.81249 3.43749C8.47553 3.43749 9.11142 3.70088 9.58026 4.16972C10.0491 4.63856 10.3125 5.27445 10.3125 5.93749V7.89062C10.8711 7.74642 11.4625 7.79989 11.9862 8.04196C12.5099 8.28403 12.9338 8.69979 13.1859 9.21874C13.5643 9.07707 13.9714 9.02923 14.3724 9.07931C14.7733 9.12939 15.1561 9.2759 15.488 9.5063C15.82 9.73669 16.0911 10.0441 16.2782 10.4022C16.4654 10.7603 16.5629 11.1584 16.5625 11.5625ZM19.4125 3.71171L16.9125 1.21171C16.7364 1.03559 16.4975 0.936646 16.2484 0.936646C15.9994 0.936646 15.7605 1.03559 15.5844 1.21171C15.4082 1.38783 15.3093 1.6267 15.3093 1.87577C15.3093 2.12484 15.4082 2.36371 15.5844 2.53983L16.4844 3.43749H13.125C12.8764 3.43749 12.6379 3.53626 12.4621 3.71208C12.2863 3.88789 12.1875 4.12635 12.1875 4.37499C12.1875 4.62363 12.2863 4.86209 12.4621 5.0379C12.6379 5.21372 12.8764 5.31249 13.125 5.31249H16.4844L15.5867 6.21171C15.4995 6.29891 15.4303 6.40244 15.3831 6.51638C15.3359 6.63032 15.3116 6.75244 15.3116 6.87577C15.3116 7.12484 15.4106 7.36371 15.5867 7.53983C15.7628 7.71595 16.0017 7.8149 16.2508 7.8149C16.3741 7.8149 16.4962 7.79061 16.6102 7.74341C16.7241 7.69622 16.8276 7.62704 16.9148 7.53983L19.4148 5.03983C19.5021 4.95258 19.5713 4.84897 19.6184 4.73493C19.6655 4.62089 19.6896 4.49867 19.6894 4.37529C19.6892 4.2519 19.6646 4.12977 19.6171 4.01589C19.5696 3.90202 19.5 3.79865 19.4125 3.71171Z" fill="#191F2E"/>
</svg>
