<svg width="20" height="20" viewBox="0 0 20 20" fill="none" xmlns="http://www.w3.org/2000/svg">
<path d="M14.6875 5.93759C14.3886 5.93664 14.0919 5.98957 13.8117 6.09384C13.6478 5.7562 13.4099 5.45981 13.1158 5.22665C12.8216 4.99349 12.4788 4.82956 12.1126 4.747C11.7465 4.66445 11.3665 4.66541 11.0007 4.7498C10.635 4.83418 10.293 4.99984 10 5.23447C9.63222 4.94001 9.18873 4.75547 8.72062 4.70211C8.25252 4.64876 7.77887 4.72876 7.35426 4.9329C6.92965 5.13704 6.57137 5.457 6.32071 5.85592C6.07004 6.25483 5.93721 6.71646 5.9375 7.18759V8.43759H5.3125C4.64946 8.43759 4.01357 8.70098 3.54473 9.16983C3.07589 9.63867 2.8125 10.2746 2.8125 10.9376V11.8751C2.8125 13.7813 3.56975 15.6095 4.91767 16.9574C6.26559 18.3053 8.09376 19.0626 10 19.0626C11.9062 19.0626 13.7344 18.3053 15.0823 16.9574C16.4302 15.6095 17.1875 13.7813 17.1875 11.8751V8.43759C17.1875 7.77455 16.9241 7.13867 16.4553 6.66983C15.9864 6.20098 15.3505 5.93759 14.6875 5.93759ZM15.3125 11.8751C15.3125 13.2841 14.7528 14.6353 13.7565 15.6316C12.7602 16.6279 11.409 17.1876 10 17.1876C8.59104 17.1876 7.23978 16.6279 6.2435 15.6316C5.24721 14.6353 4.6875 13.2841 4.6875 11.8751V10.9376C4.6875 10.7718 4.75335 10.6129 4.87056 10.4957C4.98777 10.3784 5.14674 10.3126 5.3125 10.3126H5.9375V11.8751C5.9375 12.1237 6.03627 12.3622 6.21209 12.538C6.3879 12.7138 6.62636 12.8126 6.875 12.8126C7.12364 12.8126 7.3621 12.7138 7.53791 12.538C7.71373 12.3622 7.8125 12.1237 7.8125 11.8751V7.18759C7.8125 7.02183 7.87835 6.86286 7.99556 6.74565C8.11277 6.62844 8.27174 6.56259 8.4375 6.56259C8.60326 6.56259 8.76223 6.62844 8.87944 6.74565C8.99665 6.86286 9.0625 7.02183 9.0625 7.18759V9.37509C9.0625 9.62373 9.16127 9.86219 9.33709 10.038C9.5129 10.2138 9.75136 10.3126 10 10.3126C10.2486 10.3126 10.4871 10.2138 10.6629 10.038C10.8387 9.86219 10.9375 9.62373 10.9375 9.37509V7.18759C10.9375 7.02183 11.0033 6.86286 11.1206 6.74565C11.2378 6.62844 11.3967 6.56259 11.5625 6.56259C11.7283 6.56259 11.8872 6.62844 12.0044 6.74565C12.1217 6.86286 12.1875 7.02183 12.1875 7.18759V9.37509C12.1875 9.62373 12.2863 9.86219 12.4621 10.038C12.6379 10.2138 12.8764 10.3126 13.125 10.3126C13.3736 10.3126 13.6121 10.2138 13.7879 10.038C13.9637 9.86219 14.0625 9.62373 14.0625 9.37509V8.43759C14.0625 8.27183 14.1283 8.11286 14.2456 7.99565C14.3628 7.87844 14.5217 7.81259 14.6875 7.81259C14.8533 7.81259 15.0122 7.87844 15.1294 7.99565C15.2467 8.11286 15.3125 8.27183 15.3125 8.43759V11.8751Z" fill="#191F2E"/>
</svg>
