<svg width="20" height="20" viewBox="0 0 20 20" fill="none" xmlns="http://www.w3.org/2000/svg">
<path d="M10.007 4.48283C10.0421 3.9978 10.2022 3.53013 10.4719 3.12548C10.7417 2.72084 11.1117 2.39304 11.5459 2.17408C11.9801 1.95513 12.4637 1.8525 12.9494 1.87621C13.4351 1.89993 13.9064 2.04917 14.3172 2.30939C14.3642 2.34012 14.402 2.38294 14.4267 2.43334C14.4514 2.48374 14.4621 2.53986 14.4576 2.59581C14.4531 2.65176 14.4337 2.70547 14.4013 2.7513C14.3688 2.79713 14.3247 2.83339 14.2734 2.85626C13.5593 3.17757 12.9531 3.69821 12.5276 4.35566C12.1022 5.01311 11.8755 5.77941 11.875 6.56251C11.875 6.65392 11.875 6.74533 11.8844 6.83517C11.8887 6.89196 11.8774 6.94884 11.8517 6.99968C11.826 7.05051 11.787 7.09337 11.7387 7.12361C11.6905 7.15385 11.6349 7.17033 11.5779 7.17126C11.521 7.1722 11.4649 7.15756 11.4156 7.12892C10.9552 6.86556 10.5787 6.47738 10.3294 6.00918C10.0802 5.54097 9.96842 5.01183 10.007 4.48283ZM18.75 12.5477C18.7511 12.9048 18.6522 13.2551 18.4644 13.5589C18.2766 13.8627 18.0075 14.1078 17.6875 14.2664L17.6531 14.282L14.6195 15.5742C14.5896 15.5874 14.5584 15.5979 14.5266 15.6055L9.52656 16.8555C9.47704 16.8682 9.42613 16.8748 9.375 16.875H1.25C0.918479 16.875 0.600537 16.7433 0.366117 16.5089C0.131696 16.2745 0 15.9565 0 15.625V12.5C0 12.1685 0.131696 11.8506 0.366117 11.6161C0.600537 11.3817 0.918479 11.25 1.25 11.25H3.49141L5.25859 9.48205C5.49032 9.24929 5.76587 9.06475 6.06932 8.93911C6.37278 8.81346 6.69812 8.74919 7.02656 8.75001H10.9375C11.2676 8.74998 11.5935 8.82467 11.8907 8.96848C12.1878 9.11229 12.4486 9.3215 12.6534 9.58043C12.8582 9.83935 13.0017 10.1413 13.0733 10.4636C13.1448 10.7859 13.1425 11.1202 13.0664 11.4414L16.3352 10.6899C16.6197 10.6145 16.9178 10.6055 17.2064 10.6635C17.495 10.7216 17.7664 10.8451 17.9997 11.0246C18.233 11.2041 18.422 11.4347 18.5521 11.6988C18.6822 11.9629 18.7499 12.2533 18.75 12.5477ZM17.5 12.5477C17.4999 12.4443 17.476 12.3424 17.4301 12.2498C17.3843 12.1572 17.3177 12.0764 17.2356 12.0137C17.1534 11.951 17.058 11.908 16.9565 11.8882C16.8551 11.8683 16.7505 11.8721 16.6508 11.8992L16.6266 11.9055L11.3922 13.1094C11.3463 13.1196 11.2994 13.1249 11.2523 13.125H8.75C8.58424 13.125 8.42527 13.0592 8.30806 12.942C8.19085 12.8247 8.125 12.6658 8.125 12.5C8.125 12.3343 8.19085 12.1753 8.30806 12.0581C8.42527 11.9409 8.58424 11.875 8.75 11.875H10.9375C11.1861 11.875 11.4246 11.7762 11.6004 11.6004C11.7762 11.4246 11.875 11.1862 11.875 10.9375C11.875 10.6889 11.7762 10.4504 11.6004 10.2746C11.4246 10.0988 11.1861 10 10.9375 10H7.02656C6.86235 9.99949 6.69967 10.0316 6.54798 10.0945C6.39629 10.1574 6.25862 10.2498 6.14297 10.3664L4.375 12.1336V15.625H9.29688L14.1742 14.4055L17.143 13.1414C17.251 13.0845 17.3414 12.9991 17.4044 12.8944C17.4673 12.7897 17.5004 12.6698 17.5 12.5477ZM13.125 6.56251C13.125 7.11877 13.29 7.66254 13.599 8.12506C13.908 8.58757 14.3473 8.94805 14.8612 9.16093C15.3751 9.3738 15.9406 9.42949 16.4862 9.32097C17.0318 9.21245 17.5329 8.94459 17.9262 8.55125C18.3196 8.15792 18.5874 7.65678 18.696 7.11121C18.8045 6.56563 18.7488 6.00013 18.5359 5.48622C18.323 4.9723 17.9626 4.53305 17.5 4.22401C17.0375 3.91496 16.4938 3.75001 15.9375 3.75001C15.1916 3.75001 14.4762 4.04633 13.9488 4.57378C13.4213 5.10122 13.125 5.81659 13.125 6.56251Z" fill="#191F2E"/>
</svg>
