<svg width="20" height="20" viewBox="0 0 20 20" fill="none" xmlns="http://www.w3.org/2000/svg">
<path d="M17.5 5H2.5C2.16848 5 1.85054 5.1317 1.61612 5.36612C1.3817 5.60054 1.25 5.91848 1.25 6.25V13.75C1.25 14.0815 1.3817 14.3995 1.61612 14.6339C1.85054 14.8683 2.16848 15 2.5 15H17.5C17.8315 15 18.1495 14.8683 18.3839 14.6339C18.6183 14.3995 18.75 14.0815 18.75 13.75V6.25C18.75 5.91848 18.6183 5.60054 18.3839 5.36612C18.1495 5.1317 17.8315 5 17.5 5ZM17.5 13.75H2.5V6.25H17.5V13.75ZM15.625 10C15.625 10.1854 15.57 10.3667 15.467 10.5208C15.364 10.675 15.2176 10.7952 15.0463 10.8661C14.875 10.9371 14.6865 10.9557 14.5046 10.9195C14.3227 10.8833 14.1557 10.794 14.0246 10.6629C13.8935 10.5318 13.8042 10.3648 13.768 10.1829C13.7318 10.001 13.7504 9.81254 13.8214 9.64123C13.8923 9.46993 14.0125 9.32351 14.1667 9.2205C14.3208 9.11748 14.5021 9.0625 14.6875 9.0625C14.9361 9.0625 15.1746 9.16127 15.3504 9.33709C15.5262 9.5129 15.625 9.75136 15.625 10Z" fill="#191F2E"/>
</svg>
