<svg width="20" height="20" viewBox="0 0 20 20" fill="none" xmlns="http://www.w3.org/2000/svg">
<path d="M16.25 10.625H3.75C3.41848 10.625 3.10054 10.7567 2.86612 10.9911C2.6317 11.2255 2.5 11.5435 2.5 11.875V15.625C2.5 15.9565 2.6317 16.2745 2.86612 16.5089C3.10054 16.7433 3.41848 16.875 3.75 16.875H16.25C16.5815 16.875 16.8995 16.7433 17.1339 16.5089C17.3683 16.2745 17.5 15.9565 17.5 15.625V11.875C17.5 11.5435 17.3683 11.2255 17.1339 10.9911C16.8995 10.7567 16.5815 10.625 16.25 10.625ZM16.25 15.625H3.75V11.875H16.25V15.625ZM16.25 3.125H3.75C3.41848 3.125 3.10054 3.2567 2.86612 3.49112C2.6317 3.72554 2.5 4.04348 2.5 4.375V8.125C2.5 8.45652 2.6317 8.77446 2.86612 9.00888C3.10054 9.2433 3.41848 9.375 3.75 9.375H16.25C16.5815 9.375 16.8995 9.2433 17.1339 9.00888C17.3683 8.77446 17.5 8.45652 17.5 8.125V4.375C17.5 4.04348 17.3683 3.72554 17.1339 3.49112C16.8995 3.2567 16.5815 3.125 16.25 3.125ZM16.25 8.125H3.75V4.375H16.25V8.125ZM15 6.25C15 6.43542 14.945 6.61668 14.842 6.77085C14.739 6.92502 14.5926 7.04518 14.4213 7.11614C14.25 7.18709 14.0615 7.20566 13.8796 7.16949C13.6977 7.13331 13.5307 7.04402 13.3996 6.91291C13.2685 6.7818 13.1792 6.61475 13.143 6.4329C13.1068 6.25104 13.1254 6.06254 13.1964 5.89123C13.2673 5.71993 13.3875 5.57351 13.5417 5.4705C13.6958 5.36748 13.8771 5.3125 14.0625 5.3125C14.3111 5.3125 14.5496 5.41127 14.7254 5.58709C14.9012 5.7629 15 6.00136 15 6.25ZM15 13.75C15 13.9354 14.945 14.1167 14.842 14.2708C14.739 14.425 14.5926 14.5452 14.4213 14.6161C14.25 14.6871 14.0615 14.7057 13.8796 14.6695C13.6977 14.6333 13.5307 14.544 13.3996 14.4129C13.2685 14.2818 13.1792 14.1148 13.143 13.9329C13.1068 13.751 13.1254 13.5625 13.1964 13.3912C13.2673 13.2199 13.3875 13.0735 13.5417 12.9705C13.6958 12.8675 13.8771 12.8125 14.0625 12.8125C14.3111 12.8125 14.5496 12.9113 14.7254 13.0871C14.9012 13.2629 15 13.5014 15 13.75Z" fill="#191F2E"/>
</svg>
