<svg width="20" height="20" viewBox="0 0 20 20" fill="none" xmlns="http://www.w3.org/2000/svg">
<path d="M16.25 2.8125H3.75C3.3356 2.8125 2.93817 2.97712 2.64515 3.27015C2.35212 3.56317 2.1875 3.9606 2.1875 4.375V15.625C2.1875 16.0394 2.35212 16.4368 2.64515 16.7299C2.93817 17.0229 3.3356 17.1875 3.75 17.1875H16.25C16.6644 17.1875 17.0618 17.0229 17.3549 16.7299C17.6479 16.4368 17.8125 16.0394 17.8125 15.625V4.375C17.8125 3.9606 17.6479 3.56317 17.3549 3.27015C17.0618 2.97712 16.6644 2.8125 16.25 2.8125ZM15.9375 4.6875V9.0625H4.0625V4.6875H15.9375ZM4.0625 15.3125V10.9375H15.9375V15.3125H4.0625ZM12.5 6.875C12.5 6.62777 12.5733 6.3861 12.7107 6.18054C12.848 5.97498 13.0432 5.81476 13.2716 5.72015C13.5001 5.62554 13.7514 5.60079 13.9939 5.64902C14.2363 5.69725 14.4591 5.8163 14.6339 5.99112C14.8087 6.16593 14.9278 6.38866 14.976 6.63114C15.0242 6.87361 14.9995 7.12495 14.9049 7.35335C14.8102 7.58176 14.65 7.77699 14.4445 7.91434C14.2389 8.05169 13.9972 8.125 13.75 8.125C13.4185 8.125 13.1005 7.9933 12.8661 7.75888C12.6317 7.52446 12.5 7.20652 12.5 6.875ZM15 13.125C15 13.3722 14.9267 13.6139 14.7893 13.8195C14.652 14.025 14.4568 14.1852 14.2284 14.2799C13.9999 14.3745 13.7486 14.3992 13.5061 14.351C13.2637 14.3028 13.0409 14.1837 12.8661 14.0089C12.6913 13.8341 12.5722 13.6113 12.524 13.3689C12.4758 13.1264 12.5005 12.8751 12.5951 12.6466C12.6898 12.4182 12.85 12.223 13.0555 12.0857C13.2611 11.9483 13.5028 11.875 13.75 11.875C14.0815 11.875 14.3995 12.0067 14.6339 12.2411C14.8683 12.4755 15 12.7935 15 13.125Z" fill="#191F2E"/>
</svg>
