<svg width="20" height="20" viewBox="0 0 20 20" fill="none" xmlns="http://www.w3.org/2000/svg">
<path d="M16.25 3.125H3.75C3.41848 3.125 3.10054 3.2567 2.86612 3.49112C2.6317 3.72554 2.5 4.04348 2.5 4.375V8.125C2.5 8.45652 2.6317 8.77446 2.86612 9.00888C3.10054 9.2433 3.41848 9.375 3.75 9.375H16.25C16.5815 9.375 16.8995 9.2433 17.1339 9.00888C17.3683 8.77446 17.5 8.45652 17.5 8.125V4.375C17.5 4.04348 17.3683 3.72554 17.1339 3.49112C16.8995 3.2567 16.5815 3.125 16.25 3.125ZM14.0625 7.1875C13.8771 7.1875 13.6958 7.13252 13.5417 7.0295C13.3875 6.92649 13.2673 6.78007 13.1964 6.60877C13.1254 6.43746 13.1068 6.24896 13.143 6.0671C13.1792 5.88525 13.2685 5.7182 13.3996 5.58709C13.5307 5.45598 13.6977 5.36669 13.8796 5.33051C14.0615 5.29434 14.25 5.31291 14.4213 5.38386C14.5926 5.45482 14.739 5.57498 14.842 5.72915C14.945 5.88332 15 6.06458 15 6.25C15 6.49864 14.9012 6.7371 14.7254 6.91291C14.5496 7.08873 14.3111 7.1875 14.0625 7.1875Z" fill="#191F2E"/>
<path d="M16.25 10.625H3.75C3.41848 10.625 3.10054 10.7567 2.86612 10.9911C2.6317 11.2255 2.5 11.5435 2.5 11.875V15.625C2.5 15.9565 2.6317 16.2745 2.86612 16.5089C3.10054 16.7433 3.41848 16.875 3.75 16.875H16.25C16.5815 16.875 16.8995 16.7433 17.1339 16.5089C17.3683 16.2745 17.5 15.9565 17.5 15.625V11.875C17.5 11.5435 17.3683 11.2255 17.1339 10.9911C16.8995 10.7567 16.5815 10.625 16.25 10.625ZM14.0625 14.6875C13.8771 14.6875 13.6958 14.6325 13.5417 14.5295C13.3875 14.4265 13.2673 14.2801 13.1964 14.1088C13.1254 13.9375 13.1068 13.749 13.143 13.5671C13.1792 13.3852 13.2685 13.2182 13.3996 13.0871C13.5307 12.956 13.6977 12.8667 13.8796 12.8305C14.0615 12.7943 14.25 12.8129 14.4213 12.8839C14.5926 12.9548 14.739 13.075 14.842 13.2292C14.945 13.3833 15 13.5646 15 13.75C15 13.9986 14.9012 14.2371 14.7254 14.4129C14.5496 14.5887 14.3111 14.6875 14.0625 14.6875Z" fill="#191F2E"/>
</svg>
