<svg width="20" height="20" viewBox="0 0 20 20" fill="none" xmlns="http://www.w3.org/2000/svg">
<path d="M17.5 4.6875H2.5C2.0856 4.6875 1.68817 4.85212 1.39515 5.14515C1.10212 5.43817 0.9375 5.8356 0.9375 6.25V13.75C0.9375 14.1644 1.10212 14.5618 1.39515 14.8549C1.68817 15.1479 2.0856 15.3125 2.5 15.3125H17.5C17.9144 15.3125 18.3118 15.1479 18.6049 14.8549C18.8979 14.5618 19.0625 14.1644 19.0625 13.75V6.25C19.0625 5.8356 18.8979 5.43817 18.6049 5.14515C18.3118 4.85212 17.9144 4.6875 17.5 4.6875ZM17.1875 13.4375H2.8125V6.5625H17.1875V13.4375ZM12.8125 10C12.8125 9.75277 12.8858 9.5111 13.0232 9.30554C13.1605 9.09998 13.3557 8.93976 13.5841 8.84515C13.8126 8.75054 14.0639 8.72579 14.3064 8.77402C14.5488 8.82225 14.7716 8.9413 14.9464 9.11612C15.1212 9.29093 15.2403 9.51366 15.2885 9.75614C15.3367 9.99861 15.312 10.2499 15.2174 10.4784C15.1227 10.7068 14.9625 10.902 14.757 11.0393C14.5514 11.1767 14.3097 11.25 14.0625 11.25C13.731 11.25 13.413 11.1183 13.1786 10.8839C12.9442 10.6495 12.8125 10.3315 12.8125 10Z" fill="#191F2E"/>
</svg>
