<svg width="20" height="20" viewBox="0 0 20 20" fill="none" xmlns="http://www.w3.org/2000/svg">
<path d="M17.5 5H2.5C2.16848 5 1.85054 5.1317 1.61612 5.36612C1.3817 5.60054 1.25 5.91848 1.25 6.25V13.75C1.25 14.0815 1.3817 14.3995 1.61612 14.6339C1.85054 14.8683 2.16848 15 2.5 15H17.5C17.8315 15 18.1495 14.8683 18.3839 14.6339C18.6183 14.3995 18.75 14.0815 18.75 13.75V6.25C18.75 5.91848 18.6183 5.60054 18.3839 5.36612C18.1495 5.1317 17.8315 5 17.5 5ZM14.6875 10.9375C14.5021 10.9375 14.3208 10.8825 14.1667 10.7795C14.0125 10.6765 13.8923 10.5301 13.8214 10.3588C13.7504 10.1875 13.7318 9.99896 13.768 9.8171C13.8042 9.63525 13.8935 9.4682 14.0246 9.33709C14.1557 9.20598 14.3227 9.11669 14.5046 9.08051C14.6865 9.04434 14.875 9.06291 15.0463 9.13386C15.2176 9.20482 15.364 9.32498 15.467 9.47915C15.57 9.63332 15.625 9.81458 15.625 10C15.625 10.2486 15.5262 10.4871 15.3504 10.6629C15.1746 10.8387 14.9361 10.9375 14.6875 10.9375Z" fill="#191F2E"/>
</svg>
