<svg width="20" height="20" viewBox="0 0 20 20" fill="none" xmlns="http://www.w3.org/2000/svg">
<path d="M9.08203 8.75H11.543L10.918 11.25H8.45703L9.08203 8.75ZM17.5 3.75V16.25C17.5 16.5815 17.3683 16.8995 17.1339 17.1339C16.8995 17.3683 16.5815 17.5 16.25 17.5H3.75C3.41848 17.5 3.10054 17.3683 2.86612 17.1339C2.6317 16.8995 2.5 16.5815 2.5 16.25V3.75C2.5 3.41848 2.6317 3.10054 2.86612 2.86612C3.10054 2.6317 3.41848 2.5 3.75 2.5H16.25C16.5815 2.5 16.8995 2.6317 17.1339 2.86612C17.3683 3.10054 17.5 3.41848 17.5 3.75ZM16.25 8.125C16.25 7.95924 16.1842 7.80027 16.0669 7.68306C15.9497 7.56585 15.7908 7.5 15.625 7.5H13.1445L13.7312 5.15156C13.7683 4.99189 13.7411 4.82407 13.6556 4.68425C13.57 4.54443 13.433 4.44381 13.274 4.40405C13.115 4.3643 12.9467 4.3886 12.8054 4.47172C12.6642 4.55484 12.5612 4.69013 12.5188 4.84844L11.8555 7.5H9.39453L9.98125 5.15156C10.0183 4.99189 9.99109 4.82407 9.90556 4.68425C9.82003 4.54443 9.683 4.44381 9.52399 4.40405C9.36498 4.3643 9.19671 4.3886 9.05545 4.47172C8.91418 4.55484 8.81122 4.69013 8.76875 4.84844L8.10547 7.5H5C4.83424 7.5 4.67527 7.56585 4.55806 7.68306C4.44085 7.80027 4.375 7.95924 4.375 8.125C4.375 8.29076 4.44085 8.44973 4.55806 8.56694C4.67527 8.68415 4.83424 8.75 5 8.75H7.79297L7.16797 11.25H4.375C4.20924 11.25 4.05027 11.3158 3.93306 11.4331C3.81585 11.5503 3.75 11.7092 3.75 11.875C3.75 12.0408 3.81585 12.1997 3.93306 12.3169C4.05027 12.4342 4.20924 12.5 4.375 12.5H6.85547L6.26875 14.8484C6.22858 15.0092 6.25391 15.1794 6.33918 15.3215C6.42444 15.4636 6.56266 15.566 6.72344 15.6062C6.77454 15.619 6.82703 15.6253 6.87969 15.625C7.01893 15.6248 7.15411 15.5781 7.2638 15.4924C7.37349 15.4066 7.45139 15.2866 7.48516 15.1516L8.14453 12.5H10.6055L10.0188 14.8484C9.97858 15.0092 10.0039 15.1794 10.0892 15.3215C10.1744 15.4636 10.3127 15.566 10.4734 15.6062C10.523 15.6186 10.5739 15.6249 10.625 15.625C10.7642 15.6248 10.8994 15.5781 11.0091 15.4924C11.1188 15.4066 11.1967 15.2866 11.2305 15.1516L11.8945 12.5H15C15.1658 12.5 15.3247 12.4342 15.4419 12.3169C15.5592 12.1997 15.625 12.0408 15.625 11.875C15.625 11.7092 15.5592 11.5503 15.4419 11.4331C15.3247 11.3158 15.1658 11.25 15 11.25H12.207L12.832 8.75H15.625C15.7908 8.75 15.9497 8.68415 16.0669 8.56694C16.1842 8.44973 16.25 8.29076 16.25 8.125Z" fill="#191F2E"/>
</svg>
