<svg width="20" height="20" viewBox="0 0 20 20" fill="none" xmlns="http://www.w3.org/2000/svg">
<path d="M8.75 8.75H11.25V11.25H8.75V8.75ZM17.5 3.75V16.25C17.5 16.5815 17.3683 16.8995 17.1339 17.1339C16.8995 17.3683 16.5815 17.5 16.25 17.5H3.75C3.41848 17.5 3.10054 17.3683 2.86612 17.1339C2.6317 16.8995 2.5 16.5815 2.5 16.25V3.75C2.5 3.41848 2.6317 3.10054 2.86612 2.86612C3.10054 2.6317 3.41848 2.5 3.75 2.5H16.25C16.5815 2.5 16.8995 2.6317 17.1339 2.86612C17.3683 3.10054 17.5 3.41848 17.5 3.75ZM12.5 11.25V8.75H15C15.1658 8.75 15.3247 8.68415 15.4419 8.56694C15.5592 8.44973 15.625 8.29076 15.625 8.125C15.625 7.95924 15.5592 7.80027 15.4419 7.68306C15.3247 7.56585 15.1658 7.5 15 7.5H12.5V5C12.5 4.83424 12.4342 4.67527 12.3169 4.55806C12.1997 4.44085 12.0408 4.375 11.875 4.375C11.7092 4.375 11.5503 4.44085 11.4331 4.55806C11.3158 4.67527 11.25 4.83424 11.25 5V7.5H8.75V5C8.75 4.83424 8.68415 4.67527 8.56694 4.55806C8.44973 4.44085 8.29076 4.375 8.125 4.375C7.95924 4.375 7.80027 4.44085 7.68306 4.55806C7.56585 4.67527 7.5 4.83424 7.5 5V7.5H5C4.83424 7.5 4.67527 7.56585 4.55806 7.68306C4.44085 7.80027 4.375 7.95924 4.375 8.125C4.375 8.29076 4.44085 8.44973 4.55806 8.56694C4.67527 8.68415 4.83424 8.75 5 8.75H7.5V11.25H5C4.83424 11.25 4.67527 11.3158 4.55806 11.4331C4.44085 11.5503 4.375 11.7092 4.375 11.875C4.375 12.0408 4.44085 12.1997 4.55806 12.3169C4.67527 12.4342 4.83424 12.5 5 12.5H7.5V15C7.5 15.1658 7.56585 15.3247 7.68306 15.4419C7.80027 15.5592 7.95924 15.625 8.125 15.625C8.29076 15.625 8.44973 15.5592 8.56694 15.4419C8.68415 15.3247 8.75 15.1658 8.75 15V12.5H11.25V15C11.25 15.1658 11.3158 15.3247 11.4331 15.4419C11.5503 15.5592 11.7092 15.625 11.875 15.625C12.0408 15.625 12.1997 15.5592 12.3169 15.4419C12.4342 15.3247 12.5 15.1658 12.5 15V12.5H15C15.1658 12.5 15.3247 12.4342 15.4419 12.3169C15.5592 12.1997 15.625 12.0408 15.625 11.875C15.625 11.7092 15.5592 11.5503 15.4419 11.4331C15.3247 11.3158 15.1658 11.25 15 11.25H12.5Z" fill="#191F2E"/>
</svg>
