<svg width="20" height="20" viewBox="0 0 20 20" fill="none" xmlns="http://www.w3.org/2000/svg">
<path d="M17.5 6.56258H14.0781L14.6727 3.29305C14.7172 3.04835 14.6627 2.79597 14.5212 2.59144C14.3797 2.3869 14.1627 2.24697 13.918 2.20242C13.6733 2.15788 13.4209 2.21236 13.2164 2.35389C13.0118 2.49542 12.8719 2.71241 12.8273 2.95711L12.1719 6.56258H9.07812L9.67266 3.29305C9.69471 3.17188 9.69269 3.04756 9.6667 2.92718C9.64071 2.8068 9.59127 2.69271 9.52119 2.59144C9.45111 2.49016 9.36177 2.40368 9.25827 2.33694C9.15477 2.27019 9.03913 2.22448 8.91797 2.20242C8.7968 2.18037 8.67248 2.18239 8.5521 2.20838C8.43171 2.23437 8.31763 2.28381 8.21636 2.35389C8.01182 2.49542 7.87189 2.71241 7.82734 2.95711L7.17188 6.56258H3.75C3.50136 6.56258 3.2629 6.66135 3.08709 6.83717C2.91127 7.01298 2.8125 7.25144 2.8125 7.50008C2.8125 7.74872 2.91127 7.98718 3.08709 8.16299C3.2629 8.33881 3.50136 8.43758 3.75 8.43758H6.83125L6.26328 11.5626H2.5C2.25136 11.5626 2.0129 11.6614 1.83709 11.8372C1.66127 12.013 1.5625 12.2514 1.5625 12.5001C1.5625 12.7487 1.66127 12.9872 1.83709 13.163C2.0129 13.3388 2.25136 13.4376 2.5 13.4376H5.92188L5.32734 16.7071C5.30479 16.8285 5.30644 16.9532 5.33219 17.0739C5.35795 17.1947 5.40731 17.3092 5.47743 17.4108C5.54756 17.5124 5.63707 17.5992 5.74082 17.6661C5.84458 17.7331 5.96053 17.7789 6.08203 17.8009C6.13753 17.8101 6.19377 17.814 6.25 17.8126C6.46954 17.8124 6.68207 17.7353 6.85053 17.5945C7.019 17.4537 7.13272 17.2583 7.17188 17.0423L7.82812 13.4376H10.9219L10.3273 16.7071C10.3048 16.8285 10.3064 16.9532 10.3322 17.0739C10.358 17.1947 10.4073 17.3092 10.4774 17.4108C10.5476 17.5124 10.6371 17.5992 10.7408 17.6661C10.8446 17.7331 10.9605 17.7789 11.082 17.8009C11.1377 17.8114 11.1942 17.8166 11.2508 17.8165C11.4703 17.8163 11.6828 17.7392 11.8513 17.5984C12.0198 17.4576 12.1335 17.2622 12.1727 17.0462L12.8281 13.4376H16.25C16.4986 13.4376 16.7371 13.3388 16.9129 13.163C17.0887 12.9872 17.1875 12.7487 17.1875 12.5001C17.1875 12.2514 17.0887 12.013 16.9129 11.8372C16.7371 11.6614 16.4986 11.5626 16.25 11.5626H13.1687L13.7367 8.43758H17.5C17.7486 8.43758 17.9871 8.33881 18.1629 8.16299C18.3387 7.98718 18.4375 7.74872 18.4375 7.50008C18.4375 7.25144 18.3387 7.01298 18.1629 6.83717C17.9871 6.66135 17.7486 6.56258 17.5 6.56258ZM11.2633 11.5626H8.16875L8.73672 8.43758H11.8313L11.2633 11.5626Z" fill="#191F2E"/>
</svg>
