<svg width="20" height="20" viewBox="0 0 20 20" fill="none" xmlns="http://www.w3.org/2000/svg">
<path d="M16.875 11.5625H13.4375V8.4375H16.875C17.1236 8.4375 17.3621 8.33873 17.5379 8.16291C17.7137 7.9871 17.8125 7.74864 17.8125 7.5C17.8125 7.25136 17.7137 7.0129 17.5379 6.83709C17.3621 6.66127 17.1236 6.5625 16.875 6.5625H13.4375V3.125C13.4375 2.87636 13.3387 2.6379 13.1629 2.46209C12.9871 2.28627 12.7486 2.1875 12.5 2.1875C12.2514 2.1875 12.0129 2.28627 11.8371 2.46209C11.6613 2.6379 11.5625 2.87636 11.5625 3.125V6.5625H8.4375V3.125C8.4375 2.87636 8.33873 2.6379 8.16291 2.46209C7.9871 2.28627 7.74864 2.1875 7.5 2.1875C7.25136 2.1875 7.0129 2.28627 6.83709 2.46209C6.66127 2.6379 6.5625 2.87636 6.5625 3.125V6.5625H3.125C2.87636 6.5625 2.6379 6.66127 2.46209 6.83709C2.28627 7.0129 2.1875 7.25136 2.1875 7.5C2.1875 7.74864 2.28627 7.9871 2.46209 8.16291C2.6379 8.33873 2.87636 8.4375 3.125 8.4375H6.5625V11.5625H3.125C2.87636 11.5625 2.6379 11.6613 2.46209 11.8371C2.28627 12.0129 2.1875 12.2514 2.1875 12.5C2.1875 12.7486 2.28627 12.9871 2.46209 13.1629C2.6379 13.3387 2.87636 13.4375 3.125 13.4375H6.5625V16.875C6.5625 17.1236 6.66127 17.3621 6.83709 17.5379C7.0129 17.7137 7.25136 17.8125 7.5 17.8125C7.74864 17.8125 7.9871 17.7137 8.16291 17.5379C8.33873 17.3621 8.4375 17.1236 8.4375 16.875V13.4375H11.5625V16.875C11.5625 17.1236 11.6613 17.3621 11.8371 17.5379C12.0129 17.7137 12.2514 17.8125 12.5 17.8125C12.7486 17.8125 12.9871 17.7137 13.1629 17.5379C13.3387 17.3621 13.4375 17.1236 13.4375 16.875V13.4375H16.875C17.1236 13.4375 17.3621 13.3387 17.5379 13.1629C17.7137 12.9871 17.8125 12.7486 17.8125 12.5C17.8125 12.2514 17.7137 12.0129 17.5379 11.8371C17.3621 11.6613 17.1236 11.5625 16.875 11.5625ZM8.4375 11.5625V8.4375H11.5625V11.5625H8.4375Z" fill="#191F2E"/>
</svg>
