<svg width="20" height="20" viewBox="0 0 20 20" fill="none" xmlns="http://www.w3.org/2000/svg">
<path d="M17.5 6.87489H13.7031L14.3648 3.23661C14.3914 3.07484 14.3534 2.90911 14.2589 2.77512C14.1645 2.64114 14.0211 2.54963 13.8598 2.52033C13.6986 2.49102 13.5322 2.52626 13.3966 2.61844C13.2611 2.71063 13.1672 2.85239 13.1352 3.01317L12.432 6.87489H8.70312L9.36484 3.23661C9.39143 3.07484 9.35339 2.90911 9.25893 2.77512C9.16447 2.64114 9.02114 2.54963 8.85985 2.52033C8.69856 2.49102 8.53221 2.52626 8.39665 2.61844C8.26109 2.71063 8.16718 2.85239 8.13516 3.01317L7.43281 6.87489H3.75C3.58424 6.87489 3.42527 6.94073 3.30806 7.05794C3.19085 7.17516 3.125 7.33413 3.125 7.49989C3.125 7.66565 3.19085 7.82462 3.30806 7.94183C3.42527 8.05904 3.58424 8.12489 3.75 8.12489H7.20547L6.52344 11.8749H2.5C2.33424 11.8749 2.17527 11.9407 2.05806 12.0579C1.94085 12.1752 1.875 12.3341 1.875 12.4999C1.875 12.6656 1.94085 12.8246 2.05806 12.9418C2.17527 13.059 2.33424 13.1249 2.5 13.1249H6.29688L5.63516 16.7632C5.60555 16.9262 5.64192 17.0944 5.73627 17.2306C5.83062 17.3669 5.97523 17.4601 6.13828 17.4897C6.17513 17.4965 6.21253 17.4999 6.25 17.4999C6.39623 17.4997 6.53776 17.4482 6.64996 17.3544C6.76216 17.2606 6.83792 17.1305 6.86406 16.9866L7.56719 13.1249H11.2969L10.6352 16.7632C10.6056 16.9262 10.6419 17.0944 10.7363 17.2306C10.8306 17.3669 10.9752 17.4601 11.1383 17.4897C11.1751 17.4965 11.2125 17.4999 11.25 17.4999C11.3962 17.4997 11.5378 17.4482 11.65 17.3544C11.7622 17.2606 11.8379 17.1305 11.8641 16.9866L12.5672 13.1249H16.25C16.4158 13.1249 16.5747 13.059 16.6919 12.9418C16.8092 12.8246 16.875 12.6656 16.875 12.4999C16.875 12.3341 16.8092 12.1752 16.6919 12.0579C16.5747 11.9407 16.4158 11.8749 16.25 11.8749H12.7945L13.4766 8.12489H17.5C17.6658 8.12489 17.8247 8.05904 17.9419 7.94183C18.0592 7.82462 18.125 7.66565 18.125 7.49989C18.125 7.33413 18.0592 7.17516 17.9419 7.05794C17.8247 6.94073 17.6658 6.87489 17.5 6.87489ZM11.5234 11.8749H7.79453L8.47656 8.12489H12.2055L11.5234 11.8749Z" fill="#191F2E"/>
</svg>
