<svg width="20" height="20" viewBox="0 0 20 20" fill="none" xmlns="http://www.w3.org/2000/svg">
<path d="M15.9945 4.67577C14.816 3.48973 13.3119 2.68031 11.6728 2.35012C10.0338 2.01992 8.33356 2.18382 6.78775 2.82104C5.24194 3.45826 3.92014 4.5401 2.98989 5.92943C2.05965 7.31875 1.56286 8.953 1.5625 10.625V15C1.5625 15.5802 1.79297 16.1366 2.2032 16.5468C2.61344 16.957 3.16984 17.1875 3.75 17.1875H5C5.58016 17.1875 6.13656 16.957 6.5468 16.5468C6.95703 16.1366 7.1875 15.5802 7.1875 15V11.875C7.1875 11.2948 6.95703 10.7384 6.5468 10.3282C6.13656 9.91796 5.58016 9.68749 5 9.68749H3.50312C3.72938 8.12567 4.51053 6.69758 5.70361 5.66461C6.89669 4.63164 8.42188 4.0629 10 4.06249H10.05C11.6211 4.06922 13.1372 4.64137 14.3211 5.67429C15.5049 6.7072 16.2773 8.13181 16.4969 9.68749H15C14.4198 9.68749 13.8634 9.91796 13.4532 10.3282C13.043 10.7384 12.8125 11.2948 12.8125 11.875V15C12.8125 15.5802 13.043 16.1366 13.4532 16.5468C13.8634 16.957 14.4198 17.1875 15 17.1875H16.25C16.5373 17.1875 16.8217 17.1309 17.0871 17.021C17.3525 16.911 17.5937 16.7499 17.7968 16.5468C17.9999 16.3437 18.1611 16.1025 18.271 15.8371C18.3809 15.5717 18.4375 15.2873 18.4375 15V10.625C18.4418 9.52138 18.2282 8.42778 17.809 7.40688C17.3898 6.38599 16.7732 5.45788 15.9945 4.67577ZM5 11.5625C5.08288 11.5625 5.16237 11.5954 5.22097 11.654C5.27958 11.7126 5.3125 11.7921 5.3125 11.875V15C5.3125 15.0829 5.27958 15.1624 5.22097 15.221C5.16237 15.2796 5.08288 15.3125 5 15.3125H3.75C3.66712 15.3125 3.58763 15.2796 3.52903 15.221C3.47042 15.1624 3.4375 15.0829 3.4375 15V11.5625H5ZM16.5625 15C16.5625 15.0829 16.5296 15.1624 16.471 15.221C16.4124 15.2796 16.3329 15.3125 16.25 15.3125H15C14.9171 15.3125 14.8376 15.2796 14.779 15.221C14.7204 15.1624 14.6875 15.0829 14.6875 15V11.875C14.6875 11.7921 14.7204 11.7126 14.779 11.654C14.8376 11.5954 14.9171 11.5625 15 11.5625H16.5625V15Z" fill="#191F2E"/>
</svg>
