<svg width="20" height="20" viewBox="0 0 20 20" fill="none" xmlns="http://www.w3.org/2000/svg">
<path d="M18.125 9.99999V16.25C18.125 17.0788 17.7958 17.8736 17.2097 18.4597C16.6237 19.0457 15.8288 19.375 15 19.375H10.625C10.4592 19.375 10.3003 19.3091 10.1831 19.1919C10.0658 19.0747 10 18.9157 10 18.75C10 18.5842 10.0658 18.4253 10.1831 18.308C10.3003 18.1908 10.4592 18.125 10.625 18.125H15C15.4973 18.125 15.9742 17.9274 16.3258 17.5758C16.6775 17.2242 16.875 16.7473 16.875 16.25H15C14.5027 16.25 14.0258 16.0524 13.6742 15.7008C13.3225 15.3492 13.125 14.8723 13.125 14.375V11.25C13.125 10.7527 13.3225 10.2758 13.6742 9.92416C14.0258 9.57253 14.5027 9.37499 15 9.37499H16.8477C16.7294 8.07572 16.2439 6.83693 15.4478 5.8033C14.6518 4.76968 13.578 3.9839 12.352 3.53774C11.1261 3.09159 9.79844 3.00348 8.52425 3.28371C7.25007 3.56394 6.08192 4.20094 5.15625 5.1203C4.0052 6.25617 3.29525 7.76411 3.15313 9.37499H5C5.49728 9.37499 5.97419 9.57253 6.32583 9.92416C6.67746 10.2758 6.875 10.7527 6.875 11.25V14.375C6.875 14.8723 6.67746 15.3492 6.32583 15.7008C5.97419 16.0524 5.49728 16.25 5 16.25H3.75C3.25272 16.25 2.77581 16.0524 2.42417 15.7008C2.07254 15.3492 1.875 14.8723 1.875 14.375V9.99999C1.87675 8.39053 2.35596 6.81778 3.25196 5.48079C4.14796 4.1438 5.42047 3.1027 6.90843 2.48924C8.39639 1.87579 10.0329 1.71757 11.6108 2.03462C13.1887 2.35167 14.6371 3.12972 15.7727 4.2703C16.5224 5.02366 17.1161 5.91756 17.5197 6.90076C17.9234 7.88396 18.1291 8.93715 18.125 9.99999Z" fill="#191F2E"/>
</svg>
