<svg width="20" height="20" viewBox="0 0 20 20" fill="none" xmlns="http://www.w3.org/2000/svg">
<path d="M15.9945 4.05077C14.816 2.86473 13.3119 2.05531 11.6728 1.72512C10.0338 1.39492 8.33356 1.55882 6.78775 2.19604C5.24194 2.83326 3.92014 3.9151 2.98989 5.30443C2.05965 6.69375 1.56286 8.328 1.5625 9.99999V14.375C1.5625 14.9552 1.79297 15.5116 2.2032 15.9218C2.61344 16.332 3.16984 16.5625 3.75 16.5625H5C5.58016 16.5625 6.13656 16.332 6.5468 15.9218C6.95703 15.5116 7.1875 14.9552 7.1875 14.375V11.25C7.1875 10.6698 6.95703 10.1134 6.5468 9.7032C6.13656 9.29296 5.58016 9.06249 5 9.06249H3.50312C3.72938 7.50067 4.51053 6.07258 5.70361 5.03961C6.89669 4.00664 8.42188 3.4379 10 3.43749H10.05C11.6211 3.44422 13.1372 4.01637 14.3211 5.04929C15.5049 6.0822 16.2773 7.50681 16.4969 9.06249H15C14.4198 9.06249 13.8634 9.29296 13.4532 9.7032C13.043 10.1134 12.8125 10.6698 12.8125 11.25V14.375C12.8125 14.9552 13.043 15.5116 13.4532 15.9218C13.8634 16.332 14.4198 16.5625 15 16.5625H16.5312C16.4592 16.9154 16.2674 17.2326 15.9884 17.4604C15.7094 17.6882 15.3602 17.8126 15 17.8125H10.625C10.3764 17.8125 10.1379 17.9113 9.96209 18.0871C9.78627 18.2629 9.6875 18.5014 9.6875 18.75C9.6875 18.9986 9.78627 19.2371 9.96209 19.4129C10.1379 19.5887 10.3764 19.6875 10.625 19.6875H15C15.9114 19.6865 16.7851 19.324 17.4295 18.6795C18.074 18.0351 18.4365 17.1614 18.4375 16.25V9.99999C18.4418 8.89638 18.2282 7.80278 17.809 6.78188C17.3898 5.76099 16.7732 4.83288 15.9945 4.05077ZM5 10.9375C5.08288 10.9375 5.16237 10.9704 5.22097 11.029C5.27958 11.0876 5.3125 11.1671 5.3125 11.25V14.375C5.3125 14.4579 5.27958 14.5374 5.22097 14.596C5.16237 14.6546 5.08288 14.6875 5 14.6875H3.75C3.66712 14.6875 3.58763 14.6546 3.52903 14.596C3.47042 14.5374 3.4375 14.4579 3.4375 14.375V10.9375H5ZM14.6875 14.375V11.25C14.6875 11.1671 14.7204 11.0876 14.779 11.029C14.8376 10.9704 14.9171 10.9375 15 10.9375H16.5625V14.6875H15C14.9171 14.6875 14.8376 14.6546 14.779 14.596C14.7204 14.5374 14.6875 14.4579 14.6875 14.375Z" fill="#191F2E"/>
</svg>
