<svg width="20" height="20" viewBox="0 0 20 20" fill="none" xmlns="http://www.w3.org/2000/svg">
<path d="M18.125 10.625V15C18.125 15.4973 17.9275 15.9742 17.5758 16.3258C17.2242 16.6774 16.7473 16.875 16.25 16.875H15C14.5027 16.875 14.0258 16.6774 13.6742 16.3258C13.3225 15.9742 13.125 15.4973 13.125 15V11.875C13.125 11.3777 13.3225 10.9008 13.6742 10.5492C14.0258 10.1975 14.5027 9.99999 15 9.99999H16.8477C16.6975 8.2985 15.9173 6.71443 14.66 5.55826C13.4027 4.4021 11.7589 3.7572 10.0508 3.74999H10C8.28477 3.7499 6.63147 4.39097 5.36466 5.54735C4.09785 6.70372 3.30905 8.29186 3.15313 9.99999H5C5.49728 9.99999 5.97419 10.1975 6.32583 10.5492C6.67746 10.9008 6.875 11.3777 6.875 11.875V15C6.875 15.4973 6.67746 15.9742 6.32583 16.3258C5.97419 16.6774 5.49728 16.875 5 16.875H3.75C3.25272 16.875 2.77581 16.6774 2.42417 16.3258C2.07254 15.9742 1.875 15.4973 1.875 15V10.625C1.87675 9.01553 2.35596 7.44278 3.25196 6.10579C4.14796 4.7688 5.42047 3.7277 6.90843 3.11424C8.39639 2.50079 10.0329 2.34257 11.6108 2.65962C13.1887 2.97667 14.6371 3.75472 15.7727 4.8953C16.5224 5.64866 17.1161 6.54256 17.5197 7.52576C17.9234 8.50896 18.1291 9.56215 18.125 10.625Z" fill="#191F2E"/>
</svg>
