<svg width="20" height="20" viewBox="0 0 20 20" fill="none" xmlns="http://www.w3.org/2000/svg">
<path d="M13.2977 4.11875C13.542 4.07296 13.7582 3.93196 13.8987 3.72677C14.0391 3.52158 14.0923 3.269 14.0465 3.02461C14.0007 2.78022 13.8597 2.56402 13.6545 2.42359C13.4493 2.28316 13.1967 2.22999 12.9523 2.27578C11.7578 2.5 10.7414 3.0625 10.0063 3.87969C9.0625 2.8125 7.66719 2.1875 6.09375 2.1875C4.72674 2.18915 3.41618 2.73293 2.44956 3.69956C1.48293 4.66618 0.939154 5.97674 0.9375 7.34375C0.9375 9.76562 2.41484 12.2656 5.32812 14.7555C6.63928 15.8709 8.05494 16.8572 9.55547 17.7008C9.69224 17.7739 9.8449 17.8123 10 17.8125C10.1551 17.812 10.3076 17.7728 10.4437 17.6984C11.5794 17.062 12.6667 16.3429 13.6969 15.5469C13.8843 15.392 14.0042 15.1704 14.0313 14.9288C14.0584 14.6872 13.9907 14.4446 13.8423 14.252C13.6939 14.0594 13.4765 13.932 13.236 13.8967C12.9955 13.8613 12.7506 13.9208 12.5531 14.0625C11.9687 14.5125 11.4102 14.9 10.9375 15.2094V5.82422C11.3617 4.93984 12.2117 4.32188 13.2977 4.11875ZM9.0625 15.2078C8.17643 14.6296 7.3281 13.9955 6.52266 13.3094C4.82969 11.857 2.8125 9.64219 2.8125 7.34375C2.8125 6.47351 3.1582 5.63891 3.77356 5.02356C4.38891 4.4082 5.22351 4.0625 6.09375 4.0625C7.42188 4.0625 8.54297 4.73203 9.0625 5.82187V15.2078ZM18.2031 7.80703C18.0807 7.8206 17.9568 7.80993 17.8386 7.77561C17.7203 7.74129 17.6099 7.68401 17.5138 7.60704C17.4177 7.53006 17.3377 7.4349 17.2783 7.32699C17.219 7.21908 17.1815 7.10053 17.168 6.97813C17.1153 6.50308 16.9593 6.04532 16.7108 5.63703C16.4623 5.22874 16.1275 4.87984 15.7297 4.61484C15.5225 4.47664 15.3787 4.26179 15.3299 4.01755C15.2811 3.77332 15.3313 3.5197 15.4695 3.3125C15.6077 3.1053 15.8226 2.96149 16.0668 2.9127C16.3111 2.86391 16.5647 2.91414 16.7719 3.05234C17.3974 3.46951 17.924 4.01875 18.3143 4.66139C18.7047 5.30403 18.9494 6.02444 19.0312 6.77187C19.0587 7.01895 18.9868 7.26681 18.8315 7.46093C18.6762 7.65505 18.4502 7.77955 18.2031 7.80703ZM18.2812 10.418C17.825 11.3336 17.1617 12.2641 16.3102 13.1859C16.1402 13.3635 15.9072 13.4673 15.6615 13.4748C15.4158 13.4823 15.1769 13.393 14.9964 13.2261C14.8159 13.0592 14.7082 12.8281 14.6964 12.5826C14.6847 12.337 14.7698 12.0966 14.9336 11.9133C15.6648 11.1219 16.2266 10.3375 16.6039 9.58203C16.6564 9.46799 16.7313 9.36565 16.8241 9.28109C16.9169 9.19654 17.0257 9.13148 17.1442 9.08979C17.2626 9.0481 17.3882 9.03062 17.5135 9.03839C17.6388 9.04616 17.7613 9.07902 17.8737 9.13502C17.986 9.19102 18.086 9.26902 18.1677 9.3644C18.2493 9.45977 18.311 9.57057 18.349 9.69023C18.387 9.80989 18.4006 9.93596 18.389 10.061C18.3773 10.186 18.3407 10.3074 18.2812 10.418Z" fill="#191F2E"/>
</svg>
