<svg width="20" height="20" viewBox="0 0 20 20" fill="none" xmlns="http://www.w3.org/2000/svg">
<path d="M17.4219 4.45311C16.5718 3.6052 15.4204 3.12865 14.2198 3.12777C13.0191 3.12689 11.867 3.60176 11.0157 4.44842L10 5.42733L8.98441 4.44608C8.13437 3.59656 6.98167 3.11951 5.7799 3.11987C4.57813 3.12024 3.42573 3.59799 2.57621 4.44803C1.72668 5.29807 1.24963 6.45077 1.25 7.65254C1.25037 8.85431 1.72812 10.0067 2.57816 10.8562L9.56019 17.939C9.61835 17.9981 9.68767 18.045 9.76412 18.077C9.84057 18.109 9.92262 18.1255 10.0055 18.1255C10.0884 18.1255 10.1704 18.109 10.2469 18.077C10.3233 18.045 10.3927 17.9981 10.4508 17.939L17.4219 10.8594C18.2694 10.0088 18.7452 8.85696 18.7452 7.65624C18.7452 6.45551 18.2694 5.30372 17.4219 4.45311ZM16.5344 9.98124L10 16.6094L3.46019 9.97499C2.84481 9.3595 2.49913 8.52476 2.4992 7.6544C2.49927 6.78404 2.84509 5.94935 3.46058 5.33397C4.07607 4.71858 4.91081 4.37291 5.78117 4.37298C6.65153 4.37305 7.48621 4.71887 8.1016 5.33436L8.10941 5.34217L9.09925 6.29452L8.318 7.04842C8.25815 7.10603 8.21038 7.17499 8.17749 7.25128C8.1446 7.32757 8.12724 7.40964 8.12644 7.49271C8.12564 7.57578 8.14141 7.65818 8.17283 7.73508C8.20424 7.81199 8.25068 7.88186 8.30941 7.94061L10.3664 9.99999L9.55785 10.8086C9.44057 10.9259 9.37469 11.0849 9.37469 11.2508C9.37469 11.4166 9.44057 11.5757 9.55785 11.693C9.67512 11.8102 9.83418 11.8761 10 11.8761C10.1659 11.8761 10.3249 11.8102 10.4422 11.693L11.6922 10.443C11.8093 10.3258 11.8751 10.1668 11.8751 10.0012C11.8751 9.83547 11.8093 9.67656 11.6922 9.55936L9.64222 7.50702L11.8907 5.34217L11.8993 5.33436C12.2042 5.02981 12.5661 4.78829 12.9643 4.62361C13.3626 4.45892 13.7894 4.37429 14.2203 4.37454C14.6513 4.3748 15.078 4.45993 15.476 4.62509C15.8741 4.79024 16.2357 5.03218 16.5403 5.33709C16.8448 5.64201 17.0863 6.00392 17.251 6.40217C17.4157 6.80042 17.5003 7.22721 17.5001 7.65817C17.4998 8.08913 17.4147 8.51582 17.2495 8.91387C17.0844 9.31193 16.8424 9.67356 16.5375 9.97811L16.5344 9.98124Z" fill="#191F2E"/>
</svg>
