<svg width="20" height="20" viewBox="0 0 20 20" fill="none" xmlns="http://www.w3.org/2000/svg">
<path d="M18.75 7.34375C18.75 12.8125 10.6414 17.2391 10.2961 17.4219C10.2051 17.4708 10.1033 17.4965 10 17.4965C9.89665 17.4965 9.79492 17.4708 9.70391 17.4219C9.44219 17.2812 4.73906 14.7117 2.46328 11.1023C2.43393 11.0551 2.41773 11.0008 2.41636 10.9452C2.41499 10.8895 2.42851 10.8346 2.45551 10.7859C2.48251 10.7372 2.52201 10.6967 2.56994 10.6684C2.61786 10.6401 2.67247 10.6251 2.72812 10.625H5.625C5.72792 10.6251 5.82927 10.5997 5.92004 10.5512C6.01081 10.5027 6.08819 10.4325 6.14531 10.3469L6.875 9.25313L8.85469 12.2219C8.93054 12.3356 9.04161 12.4214 9.17087 12.466C9.30013 12.5106 9.44045 12.5115 9.57031 12.4688C9.70808 12.4221 9.82595 12.3301 9.90469 12.2078L10.9594 10.625H12.5C12.5857 10.6252 12.6705 10.6078 12.7491 10.5738C12.8278 10.5398 12.8986 10.49 12.9573 10.4276C13.0159 10.3651 13.061 10.2912 13.0899 10.2105C13.1187 10.1298 13.1307 10.0441 13.125 9.95859C13.111 9.79795 13.0368 9.64852 12.9173 9.54029C12.7977 9.43206 12.6417 9.37301 12.4805 9.375H10.625C10.5221 9.37493 10.4207 9.40028 10.33 9.4488C10.2392 9.49732 10.1618 9.56751 10.1047 9.65312L9.375 10.7469L7.39531 7.77812C7.31942 7.6642 7.20821 7.57834 7.07879 7.53374C6.94936 7.48914 6.80888 7.48826 6.67891 7.53125C6.54149 7.57817 6.42394 7.67011 6.34531 7.79219L5.29063 9.375H1.83828C1.77149 9.37519 1.7064 9.35397 1.65256 9.31446C1.59871 9.27495 1.55893 9.21923 1.53906 9.15547C1.35056 8.56991 1.25307 7.95889 1.25 7.34375C1.25145 6.05955 1.76223 4.82837 2.6703 3.9203C3.57837 3.01223 4.80955 2.50145 6.09375 2.5C7.70703 2.5 9.11953 3.19375 10 4.36641C10.8805 3.19375 12.293 2.5 13.9062 2.5C15.1904 2.50145 16.4216 3.01223 17.3297 3.9203C18.2378 4.82837 18.7486 6.05955 18.75 7.34375Z" fill="#191F2E"/>
</svg>
