<svg width="20" height="20" viewBox="0 0 20 20" fill="none" xmlns="http://www.w3.org/2000/svg">
<path d="M18.7352 7.77342C18.3297 13.0406 10.6336 17.2445 10.2977 17.425C10.2066 17.4739 10.1049 17.4996 10.0016 17.4996C9.89822 17.4996 9.79648 17.4739 9.70547 17.425C9.35938 17.2398 1.25 12.8125 1.25 7.34373C1.24978 6.46629 1.48791 5.60526 1.93896 4.85262C2.39001 4.09998 3.03703 3.484 3.81091 3.07046C4.5848 2.65693 5.45648 2.46137 6.33286 2.50469C7.20923 2.548 8.05738 2.82856 8.78672 3.31639C8.82537 3.34201 8.85783 3.37592 8.88175 3.41565C8.90567 3.45538 8.92044 3.49994 8.925 3.54609C8.92957 3.59224 8.9238 3.63882 8.90813 3.68247C8.89245 3.72611 8.86726 3.76572 8.83438 3.79842L7.79063 4.84373C7.6735 4.96093 7.60771 5.11984 7.60771 5.28553C7.60771 5.45122 7.6735 5.61013 7.79063 5.72732L10.332 8.26873L8.67188 9.92186C8.6114 9.97931 8.56303 10.0483 8.52963 10.1247C8.49623 10.2012 8.47848 10.2836 8.47741 10.367C8.47634 10.4504 8.49198 10.5332 8.52341 10.6104C8.55484 10.6877 8.60143 10.7579 8.66042 10.8169C8.7194 10.8759 8.78961 10.9225 8.86688 10.9539C8.94416 10.9853 9.02694 11.001 9.11036 10.9999C9.19377 10.9988 9.27613 10.9811 9.35258 10.9477C9.42902 10.9143 9.49801 10.8659 9.55547 10.8054L11.6555 8.70623C11.7726 8.58903 11.8384 8.43012 11.8384 8.26443C11.8384 8.09874 11.7726 7.93983 11.6555 7.82264L9.11719 5.28357L10.482 3.91873C10.9345 3.4639 11.4734 3.10409 12.0669 2.86045C12.6605 2.61681 13.2967 2.49426 13.9383 2.49998C16.7758 2.51795 18.9523 4.94451 18.7352 7.77342Z" fill="#191F2E"/>
</svg>
