<svg width="20" height="20" viewBox="0 0 20 20" fill="none" xmlns="http://www.w3.org/2000/svg">
<path d="M17.6438 4.22891C16.7366 3.32435 15.5083 2.81556 14.2271 2.81366C12.946 2.81175 11.7162 3.3169 10.8063 4.21875L10 4.96719L9.1938 4.21875C8.28419 3.31142 7.0514 2.80259 5.76663 2.8042C4.48186 2.80581 3.25035 3.31773 2.34302 4.22734C1.43569 5.13695 0.926859 6.36974 0.928471 7.65451C0.930082 8.93928 1.442 10.1708 2.35161 11.0781L9.33208 18.1602C9.41931 18.2487 9.52329 18.3191 9.63797 18.3671C9.75264 18.4151 9.87573 18.4398 10 18.4398C10.1244 18.4398 10.2475 18.4151 10.3621 18.3671C10.4768 18.3191 10.5808 18.2487 10.668 18.1602L17.6438 11.0828C18.0938 10.633 18.4508 10.0989 18.6943 9.51113C18.9379 8.92333 19.0632 8.2933 19.0632 7.65703C19.0632 7.02077 18.9379 6.39073 18.6943 5.80293C18.4508 5.21512 18.0938 4.68106 17.6438 4.23125V4.22891ZM16.3157 9.75937L10 16.1641L3.68208 9.75391C3.12724 9.19676 2.81609 8.44226 2.8169 7.65596C2.81771 6.86967 3.13043 6.11581 3.68642 5.55981C4.24242 5.00382 4.99628 4.6911 5.78257 4.69029C6.56887 4.68947 7.32337 5.00063 7.88052 5.55547C7.88833 5.56328 7.89614 5.57109 7.90474 5.57812L9.36099 6.93437C9.53452 7.09605 9.76287 7.18594 10 7.18594C10.2372 7.18594 10.4656 7.09605 10.6391 6.93437L12.0954 5.57812C12.104 5.57109 12.1118 5.56328 12.1196 5.55547C12.3956 5.2801 12.7232 5.0618 13.0836 4.91303C13.444 4.76426 13.8301 4.68793 14.22 4.6884C14.6099 4.68887 14.9959 4.76614 15.356 4.91578C15.716 5.06542 16.043 5.28451 16.3184 5.56055C16.5938 5.83658 16.8121 6.16415 16.9608 6.52454C17.1096 6.88494 17.1859 7.27111 17.1855 7.66101C17.185 8.05091 17.1077 8.4369 16.9581 8.79693C16.8085 9.15697 16.5894 9.48401 16.3133 9.75937H16.3157Z" fill="#191F2E"/>
</svg>
