<svg width="20" height="20" viewBox="0 0 20 20" fill="none" xmlns="http://www.w3.org/2000/svg">
<path d="M17.6437 4.23116C16.7364 3.32389 15.5062 2.81367 14.2231 2.8125C12.94 2.81133 11.7089 3.3193 10.8 4.22491L9.99996 4.99522L9.19995 4.22491C8.28973 3.32472 7.06014 2.82147 5.77997 2.82516C4.49979 2.82886 3.27313 3.33919 2.36812 4.24462C1.4631 5.15006 0.95332 6.37694 0.95021 7.65712C0.947099 8.9373 1.45091 10.1667 2.35152 11.0765L9.33199 18.1577C9.41922 18.2463 9.5232 18.3166 9.63788 18.3647C9.75255 18.4127 9.87563 18.4374 9.99996 18.4374C10.1243 18.4374 10.2474 18.4127 10.362 18.3647C10.4767 18.3166 10.5807 18.2463 10.6679 18.1577L17.6437 11.0812C18.5521 10.1728 19.0624 8.94078 19.0624 7.65616C19.0624 6.37154 18.5521 5.13953 17.6437 4.23116ZM16.3156 9.76007L10.0023 16.1663L3.68433 9.76007C3.40772 9.4846 3.18815 9.15728 3.0382 8.79685C2.88825 8.43642 2.81085 8.04995 2.81045 7.65957C2.81005 7.26919 2.88664 6.88257 3.03584 6.52183C3.18505 6.16108 3.40394 5.83331 3.67998 5.55727C3.95602 5.28123 4.28379 5.06235 4.64453 4.91314C5.00527 4.76394 5.3919 4.68734 5.78228 4.68775C6.17265 4.68815 6.55912 4.76555 6.91955 4.9155C7.27998 5.06545 7.6073 5.28502 7.88277 5.56163L7.89527 5.57413L8.65074 6.30147L8.10386 6.8296C8.01405 6.91598 7.94237 7.01941 7.893 7.13382C7.84363 7.24823 7.81756 7.37134 7.81633 7.49595C7.81509 7.62055 7.83871 7.74416 7.8858 7.85953C7.93289 7.9749 8.0025 8.07973 8.09058 8.16788L9.92183 9.99991L9.33433 10.5866C9.15821 10.7627 9.05927 11.0016 9.05927 11.2507C9.05927 11.4998 9.15821 11.7386 9.33433 11.9148C9.51045 12.0909 9.74932 12.1898 9.99839 12.1898C10.2475 12.1898 10.4863 12.0909 10.6625 11.9148L11.9125 10.6648C11.9999 10.5777 12.0692 10.4742 12.1165 10.3602C12.1638 10.2463 12.1882 10.1241 12.1882 10.0007C12.1882 9.8773 12.1638 9.75513 12.1165 9.64117C12.0692 9.52722 11.9999 9.42372 11.9125 9.33663L10.0882 7.51241L12.1093 5.56944L12.1218 5.55694C12.3976 5.28078 12.7252 5.06172 13.0858 4.91229C13.4463 4.76286 13.8328 4.686 14.2231 4.68609C14.6134 4.68619 14.9998 4.76324 15.3603 4.91285C15.7208 5.06245 16.0483 5.28167 16.3239 5.55796C16.5996 5.83425 16.8181 6.16219 16.9669 6.52301C17.1157 6.88383 17.1919 7.27045 17.1911 7.66075C17.1903 8.05104 17.1126 8.43736 16.9624 8.79758C16.8121 9.15781 16.5924 9.48487 16.3156 9.76007Z" fill="#191F2E"/>
</svg>
