<svg width="20" height="20" viewBox="0 0 20 20" fill="none" xmlns="http://www.w3.org/2000/svg">
<path d="M5.60621 10.9375H2.47652C2.22788 10.9375 1.98942 10.8387 1.81361 10.6629C1.63779 10.4871 1.53902 10.2486 1.53902 10C1.53902 9.75136 1.63779 9.51291 1.81361 9.33709C1.98942 9.16128 2.22788 9.06251 2.47652 9.06251H5.10386L6.07652 7.60469C6.16204 7.47577 6.27813 7.37002 6.41445 7.29686C6.55076 7.2237 6.70306 7.18542 6.85777 7.18542C7.01248 7.18542 7.16478 7.2237 7.3011 7.29686C7.43741 7.37002 7.5535 7.47577 7.63902 7.60469L9.35777 10.1828L9.82652 9.47969C9.91228 9.35116 10.0285 9.24581 10.1648 9.17303C10.3011 9.10024 10.4533 9.06228 10.6078 9.06251H12.4828C12.7314 9.06251 12.9699 9.16128 13.1457 9.33709C13.3215 9.51291 13.4203 9.75136 13.4203 10C13.4203 10.2486 13.3215 10.4871 13.1457 10.6629C12.9699 10.8387 12.7314 10.9375 12.4828 10.9375H11.1078L10.1343 12.3953C10.0488 12.5242 9.93272 12.63 9.79641 12.7032C9.66009 12.7763 9.50779 12.8146 9.35308 12.8146C9.19838 12.8146 9.04607 12.7763 8.90976 12.7032C8.77344 12.63 8.65735 12.5242 8.57183 12.3953L6.85308 9.81719L6.38433 10.5203C6.29887 10.6484 6.18317 10.7535 6.04746 10.8262C5.91174 10.899 5.7602 10.9372 5.60621 10.9375ZM13.8992 2.18751C12.3273 2.18751 10.9304 2.80704 9.98746 3.87188C9.04215 2.80704 7.64761 2.18751 6.07496 2.18751C4.80515 2.18564 3.5793 2.65239 2.6323 3.49833C1.68531 4.34427 1.08376 5.5099 0.942927 6.77188C0.929385 6.89464 0.940153 7.01886 0.974618 7.13745C1.00908 7.25604 1.06657 7.36669 1.14379 7.46306C1.29976 7.65771 1.52665 7.78242 1.77457 7.80977C2.02248 7.83712 2.27111 7.76487 2.46575 7.6089C2.56213 7.53168 2.64235 7.43623 2.70184 7.328C2.76133 7.21977 2.79892 7.10089 2.81246 6.97813C2.90241 6.17593 3.2849 5.43504 3.88679 4.89715C4.48869 4.35925 5.26774 4.06209 6.07496 4.06251C7.46793 4.06251 8.63355 4.79688 9.11793 5.97969C9.18794 6.15285 9.30807 6.30114 9.46293 6.40556C9.61778 6.50998 9.8003 6.56577 9.98707 6.56577C10.1738 6.56577 10.3564 6.50998 10.5112 6.40556C10.6661 6.30114 10.7862 6.15285 10.8562 5.97969C11.3406 4.79688 12.5062 4.06251 13.8992 4.06251C14.7701 4.0623 15.6056 4.40771 16.2221 5.02291C16.8386 5.6381 17.1858 6.4728 17.1875 7.34376C17.1875 9.64219 15.1671 11.857 13.4718 13.3094C12.382 14.2331 11.217 15.0644 9.98902 15.7945C9.1398 15.2906 7.22574 14.0758 5.57418 12.4563C5.48636 12.3699 5.38238 12.3016 5.26818 12.2554C5.15399 12.2092 5.03181 12.186 4.90863 12.187C4.78545 12.188 4.66367 12.2133 4.55025 12.2613C4.43684 12.3094 4.334 12.3794 4.24761 12.4672C4.16123 12.555 4.09299 12.659 4.04679 12.7732C4.00058 12.8874 3.97733 13.0096 3.97834 13.1327C3.98039 13.3815 4.08119 13.6193 4.25855 13.7938C6.63277 16.1227 9.42652 17.6375 9.54449 17.7C9.68133 17.7733 9.83417 17.8117 9.98941 17.8117C10.1447 17.8117 10.2975 17.7733 10.4343 17.7C10.7812 17.5109 19.0625 12.9953 19.0625 7.34376C19.06 5.97578 18.515 4.66464 17.547 3.69799C16.579 2.73134 15.2672 2.18812 13.8992 2.18751Z" fill="#191F2E"/>
</svg>
