<svg width="20" height="20" viewBox="0 0 20 20" fill="none" xmlns="http://www.w3.org/2000/svg">
<path d="M5.625 10.625H2.5C2.33424 10.625 2.17527 10.5592 2.05806 10.4419C1.94085 10.3247 1.875 10.1658 1.875 10C1.875 9.83424 1.94085 9.67527 2.05806 9.55806C2.17527 9.44085 2.33424 9.375 2.5 9.375H5.29063L6.35469 7.77812C6.41174 7.6924 6.48909 7.62209 6.57987 7.57346C6.67064 7.52484 6.77202 7.49939 6.875 7.49939C6.97798 7.49939 7.07936 7.52484 7.17013 7.57346C7.26091 7.62209 7.33826 7.6924 7.39531 7.77812L9.375 10.7469L10.1047 9.65312C10.1618 9.56751 10.2392 9.49732 10.33 9.4488C10.4207 9.40028 10.5221 9.37493 10.625 9.375H12.5C12.6658 9.375 12.8247 9.44085 12.9419 9.55806C13.0592 9.67527 13.125 9.83424 13.125 10C13.125 10.1658 13.0592 10.3247 12.9419 10.4419C12.8247 10.5592 12.6658 10.625 12.5 10.625H10.9594L9.89531 12.2219C9.83826 12.3076 9.76091 12.3779 9.67013 12.4265C9.57936 12.4752 9.47798 12.5006 9.375 12.5006C9.27202 12.5006 9.17064 12.4752 9.07987 12.4265C8.98909 12.3779 8.91174 12.3076 8.85469 12.2219L6.875 9.25156L6.14531 10.3453C6.08837 10.4312 6.01107 10.5017 5.92029 10.5505C5.8295 10.5993 5.72806 10.6249 5.625 10.625ZM13.9062 2.5C12.293 2.5 10.8805 3.19375 10 4.36641C9.11953 3.19375 7.70703 2.5 6.09375 2.5C4.80955 2.50145 3.57837 3.01223 2.6703 3.9203C1.76223 4.82837 1.25145 6.05955 1.25 7.34375C1.25 7.40234 1.25 7.46094 1.25 7.51953C1.25518 7.68529 1.326 7.84221 1.44687 7.95575C1.56774 8.0693 1.72877 8.13018 1.89453 8.125C2.06029 8.11982 2.21721 8.049 2.33075 7.92813C2.4443 7.80726 2.50518 7.64623 2.5 7.48047C2.5 7.43516 2.5 7.38906 2.5 7.34375C2.50124 6.39101 2.88026 5.47765 3.55396 4.80396C4.22765 4.13026 5.14101 3.75124 6.09375 3.75C7.61328 3.75 8.88906 4.55938 9.42188 5.85938C9.46896 5.97401 9.54907 6.07205 9.65201 6.14105C9.75494 6.21005 9.87607 6.2469 10 6.2469C10.1239 6.2469 10.2451 6.21005 10.348 6.14105C10.4509 6.07205 10.531 5.97401 10.5781 5.85938C11.1109 4.55703 12.3867 3.75 13.9062 3.75C14.859 3.75124 15.7724 4.13026 16.446 4.80396C17.1197 5.47765 17.4988 6.39101 17.5 7.34375C17.5 11.532 11.425 15.3242 10 16.1562C9.15391 15.6633 6.66953 14.125 4.79063 12.0773C4.67853 11.9551 4.52246 11.8824 4.35676 11.8752C4.19105 11.868 4.02928 11.927 3.90703 12.0391C3.78478 12.1512 3.71207 12.3072 3.70489 12.4729C3.69771 12.6386 3.75665 12.8004 3.86875 12.9227C6.30391 15.5789 9.56641 17.3508 9.70391 17.425C9.79492 17.474 9.89665 17.4996 10 17.4996C10.1033 17.4996 10.2051 17.474 10.2961 17.425C10.6414 17.2391 18.75 12.8125 18.75 7.34375C18.7486 6.05955 18.2378 4.82837 17.3297 3.9203C16.4216 3.01223 15.1904 2.50145 13.9062 2.5Z" fill="#191F2E"/>
</svg>
