<svg width="20" height="20" viewBox="0 0 20 20" fill="none" xmlns="http://www.w3.org/2000/svg">
<path d="M13.9062 2.18741C13.2289 2.18568 12.5578 2.31825 11.932 2.57746C11.3062 2.83667 10.7379 3.21738 10.2602 3.69756L10 3.95772L9.73984 3.69756C9.01873 2.97642 8.09996 2.48531 7.09973 2.28634C6.09949 2.08737 5.06272 2.18949 4.12052 2.57976C3.17832 2.97004 2.37301 3.63095 1.80644 4.47892C1.23986 5.32689 0.937471 6.32383 0.9375 7.34366C0.9375 12.9952 9.20391 17.5108 9.55547 17.7007C9.69209 17.7743 9.84483 17.8128 10 17.8128C10.1552 17.8128 10.3079 17.7743 10.4445 17.7007C10.7961 17.5108 19.0625 12.9952 19.0625 7.34366C19.0608 5.97664 18.5171 4.66609 17.5504 3.69946C16.5838 2.73284 15.2733 2.18906 13.9062 2.18741ZM13.4773 13.3093C12.3893 14.2326 11.2261 15.0636 10 15.7937C8.77387 15.0636 7.61073 14.2326 6.52266 13.3093C4.82969 11.8569 2.8125 9.64209 2.8125 7.34366C2.81245 6.69465 3.00487 6.06021 3.36542 5.52057C3.72596 4.98093 4.23844 4.56032 4.83804 4.31195C5.43764 4.06358 6.09742 3.9986 6.73396 4.12523C7.37049 4.25186 7.95517 4.56441 8.41406 5.02334L8.67188 5.2835L8.08438 5.871C7.99698 5.9581 7.92763 6.06159 7.88031 6.17555C7.83299 6.2895 7.80864 6.41167 7.80864 6.53506C7.80864 6.65845 7.83299 6.78063 7.88031 6.89458C7.92763 7.00854 7.99698 7.11203 8.08438 7.19913L9.77969 8.89444L8.70938 9.96397C8.53326 10.1401 8.43431 10.379 8.43431 10.628C8.43431 10.8771 8.53326 11.116 8.70938 11.2921C8.8855 11.4682 9.12437 11.5672 9.37344 11.5672C9.62251 11.5672 9.86138 11.4682 10.0375 11.2921L11.7703 9.5585C11.8577 9.4714 11.9271 9.36791 11.9744 9.25396C12.0217 9.14 12.0461 9.01783 12.0461 8.89444C12.0461 8.77105 12.0217 8.64888 11.9744 8.53492C11.9271 8.42097 11.8577 8.31747 11.7703 8.23038L10.0781 6.5335L11.5859 5.02334C12.0448 4.56441 12.6295 4.25186 13.266 4.12523C13.9026 3.9986 14.5624 4.06358 15.162 4.31195C15.7616 4.56032 16.274 4.98093 16.6346 5.52057C16.9951 6.06021 17.1875 6.69465 17.1875 7.34366C17.1875 9.64209 15.1703 11.8569 13.4773 13.3093Z" fill="#191F2E"/>
</svg>
