<svg width="20" height="20" viewBox="0 0 20 20" fill="none" xmlns="http://www.w3.org/2000/svg">
<path d="M13.2398 3.81172C13.3205 3.79664 13.3975 3.76581 13.4662 3.721C13.535 3.67618 13.5943 3.61826 13.6407 3.55054C13.6871 3.48282 13.7197 3.40663 13.7366 3.3263C13.7536 3.24598 13.7545 3.16311 13.7395 3.08242C13.7244 3.00173 13.6935 2.9248 13.6487 2.85602C13.6039 2.78725 13.546 2.72797 13.4783 2.68157C13.4106 2.63518 13.3344 2.60258 13.254 2.58564C13.1737 2.56869 13.0908 2.56773 13.0102 2.58281C11.7516 2.81875 10.7031 3.45156 10 4.375C9.12031 3.20312 7.70625 2.5 6.09375 2.5C4.80955 2.50145 3.57837 3.01223 2.6703 3.9203C1.76223 4.82837 1.25145 6.05955 1.25 7.34375C1.25 12.8125 9.35859 17.2398 9.70391 17.4219C9.79477 17.4713 9.89656 17.4972 10 17.4972C10.1034 17.4972 10.2052 17.4713 10.2961 17.4219C11.4173 16.7934 12.4903 16.0826 13.5063 15.2953C13.5739 15.2462 13.6311 15.1841 13.6743 15.1125C13.7175 15.041 13.7459 14.9615 13.7579 14.8787C13.7698 14.796 13.7651 14.7117 13.7439 14.6308C13.7227 14.55 13.6854 14.4742 13.6344 14.408C13.5834 14.3417 13.5196 14.2864 13.4469 14.2453C13.3741 14.2042 13.2938 14.178 13.2108 14.1685C13.1277 14.1589 13.0436 14.1661 12.9634 14.1896C12.8832 14.2132 12.8085 14.2526 12.7438 14.3055C11.9383 14.9258 11.1813 15.4281 10.625 15.7758V5.75781C11.0813 4.74609 12.0266 4.03906 13.2398 3.81172ZM9.375 15.7812C7.31094 14.4852 2.5 11.0711 2.5 7.34375C2.50124 6.39101 2.88026 5.47765 3.55396 4.80396C4.22765 4.13026 5.14101 3.75124 6.09375 3.75C7.57109 3.75 8.81719 4.51406 9.375 5.75312V15.7812ZM18.168 7.5C18.1448 7.50117 18.1216 7.50117 18.0984 7.5C17.9447 7.49978 17.7965 7.44293 17.6821 7.34032C17.5676 7.2377 17.495 7.09652 17.4781 6.94375C17.4205 6.42329 17.2496 5.92177 16.9774 5.47447C16.7051 5.02717 16.3382 4.64494 15.9023 4.35469C15.8319 4.31005 15.7711 4.25176 15.7235 4.18325C15.6759 4.11474 15.6425 4.0374 15.6253 3.95579C15.608 3.87417 15.6073 3.78993 15.6231 3.70803C15.639 3.62613 15.6711 3.54823 15.7175 3.47892C15.7639 3.40962 15.8237 3.3503 15.8934 3.30447C15.9631 3.25864 16.0413 3.22723 16.1233 3.21208C16.2053 3.19694 16.2896 3.19836 16.371 3.21628C16.4525 3.2342 16.5296 3.26824 16.5977 3.31641C17.1849 3.70774 17.6793 4.22299 18.046 4.82592C18.4127 5.42885 18.6429 6.10481 18.7203 6.80625C18.7299 6.88811 18.7232 6.97106 18.7005 7.05032C18.6779 7.12957 18.6398 7.20357 18.5885 7.26805C18.5372 7.33253 18.4736 7.38622 18.4014 7.42603C18.3292 7.46583 18.2499 7.49097 18.168 7.5ZM18.0047 10.2828C17.5617 11.1711 16.9156 12.0797 16.0836 12.9773C16.0287 13.0404 15.9616 13.0919 15.8864 13.1286C15.8113 13.1653 15.7295 13.1865 15.6459 13.191C15.5624 13.1956 15.4788 13.1833 15.4001 13.1549C15.3214 13.1265 15.2492 13.0826 15.1878 13.0258C15.1264 12.969 15.077 12.9004 15.0426 12.8241C15.0081 12.7479 14.9894 12.6655 14.9874 12.5819C14.9854 12.4982 15.0002 12.415 15.031 12.3372C15.0617 12.2594 15.1078 12.1886 15.1664 12.1289C15.9172 11.3164 16.4945 10.5078 16.8852 9.725C16.9202 9.64899 16.9701 9.58078 17.032 9.52444C17.0939 9.4681 17.1665 9.42476 17.2455 9.397C17.3245 9.36924 17.4082 9.35763 17.4917 9.36285C17.5753 9.36806 17.6569 9.39001 17.7318 9.42738C17.8067 9.46475 17.8733 9.51678 17.9277 9.58039C17.9821 9.644 18.0232 9.71789 18.0485 9.79767C18.0738 9.87746 18.0828 9.96151 18.075 10.0448C18.0672 10.1282 18.0428 10.2091 18.0031 10.2828H18.0047Z" fill="#191F2E"/>
</svg>
