<svg width="20" height="20" viewBox="0 0 20 20" fill="none" xmlns="http://www.w3.org/2000/svg">
<path d="M18.0469 12.8273L14.0625 11.9297L5.44219 3.30781C5.38248 3.24813 5.3113 3.20116 5.23295 3.16975C5.15459 3.13833 5.07068 3.12311 4.98628 3.12501C4.90189 3.1269 4.81875 3.14588 4.74188 3.18079C4.66502 3.2157 4.59603 3.26582 4.53906 3.32813C2.82109 5.20625 1.875 7.57813 1.875 10V15.625C1.875 15.9565 2.0067 16.2745 2.24112 16.5089C2.47554 16.7433 2.79348 16.875 3.125 16.875H5.625C5.95652 16.875 6.27446 16.7433 6.50888 16.5089C6.7433 16.2745 6.875 15.9565 6.875 15.625V11.8016C7.06953 11.9148 7.26094 12.0359 7.44844 12.1641C8.86717 13.1377 9.96874 14.5066 10.6164 16.1008C10.71 16.3309 10.8704 16.5276 11.0769 16.6656C11.2834 16.8037 11.5266 16.8766 11.775 16.875H18.75C19.0815 16.875 19.3995 16.7433 19.6339 16.5089C19.8683 16.2745 20 15.9565 20 15.625V15.2555C20.0014 14.6884 19.8083 14.1379 19.4528 13.696C19.0974 13.2541 18.6011 12.9475 18.0469 12.8273ZM5.625 15.625H3.125V10.6477C3.98129 10.7082 4.82383 10.8956 5.625 11.2039V15.625ZM18.75 15.625H11.7719C11.0322 13.8072 9.77529 12.2463 8.15703 11.1359C6.67612 10.1122 4.94438 9.51097 3.14766 9.39688C3.28858 7.66758 3.94652 6.02068 5.03594 4.67031L13.3078 12.9422C13.3915 13.0256 13.4972 13.0836 13.6125 13.1094L17.7719 14.0469C18.0492 14.1059 18.2978 14.2585 18.476 14.4792C18.6541 14.6998 18.7508 14.975 18.75 15.2586V15.625Z" fill="#191F2E"/>
</svg>
