<svg width="20" height="20" viewBox="0 0 20 20" fill="none" xmlns="http://www.w3.org/2000/svg">
<path d="M6.875 13.4516V15.625C6.875 15.9565 6.7433 16.2745 6.50888 16.5089C6.27446 16.7433 5.95652 16.875 5.625 16.875H3.125C2.79348 16.875 2.47554 16.7433 2.24112 16.5089C2.0067 16.2745 1.875 15.9565 1.875 15.625V12.1875C1.875 12.1046 1.90792 12.0251 1.96653 11.9665C2.02513 11.9079 2.10462 11.875 2.1875 11.875H2.5C4.01427 11.8731 5.49309 12.3332 6.73906 13.1937C6.78131 13.2221 6.81584 13.2605 6.83957 13.3055C6.8633 13.3505 6.87547 13.4007 6.875 13.4516ZM18.0469 12.8266L14.0625 11.9297L5.44219 3.30781C5.35758 3.22297 5.25037 3.16425 5.13333 3.13862C5.01629 3.113 4.89435 3.12155 4.78203 3.16327C4.68578 3.20097 4.59984 3.26094 4.53125 3.33827C2.81719 5.21484 1.875 7.57812 1.875 9.99999V10.3125C1.875 10.3954 1.90792 10.4749 1.96653 10.5335C2.02513 10.5921 2.10462 10.625 2.1875 10.625H2.5C4.0368 10.6228 5.5466 11.0288 6.875 11.8016C7.06875 11.9148 7.25859 12.0359 7.44531 12.1625C8.86405 13.1362 9.96561 14.505 10.6133 16.0992C10.7068 16.3301 10.8676 16.5275 11.0748 16.6659C11.2819 16.8042 11.5259 16.8771 11.775 16.875H18.75C19.0815 16.875 19.3995 16.7433 19.6339 16.5089C19.8683 16.2745 20 15.9565 20 15.625V15.2555C20.0014 14.6883 19.8083 14.1379 19.4528 13.696C19.0974 13.2541 18.6011 12.9475 18.0469 12.8273V12.8266Z" fill="#191F2E"/>
</svg>
