<svg width="20" height="20" viewBox="0 0 20 20" fill="none" xmlns="http://www.w3.org/2000/svg">
<path d="M19.2187 9.47969L14.8195 2.88359C14.6769 2.66952 14.4836 2.49397 14.2568 2.37254C14.03 2.25111 13.7768 2.18755 13.5195 2.1875H6.48437C6.22712 2.18755 5.97387 2.25111 5.74709 2.37254C5.52031 2.49397 5.32701 2.66952 5.18437 2.88359L0.781245 9.47969C0.710873 9.58512 0.662613 9.70373 0.639383 9.82834C0.616152 9.95295 0.618433 10.081 0.646089 10.2047L2.08281 16.6195C2.08281 16.6336 2.08984 16.6477 2.09375 16.6609C2.18395 16.9919 2.38054 17.2839 2.65317 17.492C2.92581 17.7001 3.25935 17.8127 3.60234 17.8125H5.9375C6.14269 17.8125 6.34587 17.7721 6.53544 17.6936C6.72501 17.615 6.89726 17.4999 7.04235 17.3549C7.18744 17.2098 7.30253 17.0375 7.38106 16.8479C7.45958 16.6584 7.5 16.4552 7.5 16.25V15.625H12.5V16.25C12.5 16.6644 12.6646 17.0618 12.9576 17.3549C13.2507 17.6479 13.6481 17.8125 14.0625 17.8125H16.3977C16.7404 17.8124 17.0736 17.6996 17.3459 17.4915C17.6182 17.2834 17.8145 16.9916 17.9047 16.6609C17.9047 16.6477 17.9125 16.6336 17.9156 16.6195L19.3523 10.2047C19.3802 10.0811 19.3828 9.95311 19.3598 9.82851C19.3368 9.7039 19.2889 9.58523 19.2187 9.47969ZM10 5.8125L6.71875 4.0625H13.2812L10 5.8125ZM6.25 13.75V5.9375L7.5 6.60391V10.625C7.5 10.8736 7.59877 11.1121 7.77458 11.2879C7.9504 11.4637 8.18885 11.5625 8.4375 11.5625C8.68614 11.5625 8.92459 11.4637 9.10041 11.2879C9.27622 11.1121 9.375 10.8736 9.375 10.625V7.60391L9.55859 7.70234C9.69442 7.77484 9.84603 7.81276 10 7.81276C10.154 7.81276 10.3056 7.77484 10.4414 7.70234L10.625 7.60391V10C10.625 10.2486 10.7238 10.4871 10.8996 10.6629C11.0754 10.8387 11.3139 10.9375 11.5625 10.9375C11.8111 10.9375 12.0496 10.8387 12.2254 10.6629C12.4012 10.4871 12.5 10.2486 12.5 10V6.60391L13.75 5.9375V13.75H6.25ZM3.85312 15.9375L2.56484 10.1867L4.37499 7.47109V14.0625C4.37492 14.4227 4.4993 14.7719 4.72709 15.0509C4.95487 15.3299 5.27207 15.5217 5.625 15.5938V15.9375H3.85312ZM16.1469 15.9375H14.375V15.5938C14.7279 15.5217 15.0451 15.3299 15.2729 15.0509C15.5007 14.7719 15.6251 14.4227 15.625 14.0625V7.47109L17.4352 10.1867L16.1469 15.9375Z" fill="#191F2E"/>
</svg>
