<svg width="20" height="20" viewBox="0 0 20 20" fill="none" xmlns="http://www.w3.org/2000/svg">
<path d="M11.2501 8.125C11.2501 8.37223 11.1767 8.6139 11.0394 8.81946C10.902 9.02502 10.7068 9.18524 10.4784 9.27985C10.25 9.37446 9.99866 9.39921 9.75619 9.35098C9.51371 9.30275 9.29098 9.1837 9.11617 9.00888C8.94135 8.83407 8.8223 8.61134 8.77407 8.36886C8.72584 8.12639 8.75059 7.87505 8.8452 7.64665C8.93981 7.41824 9.10003 7.22301 9.30559 7.08566C9.51115 6.94831 9.75282 6.875 10.0001 6.875C10.3316 6.875 10.6495 7.0067 10.8839 7.24112C11.1184 7.47554 11.2501 7.79348 11.2501 8.125ZM18.4376 10.1195C18.4012 12.3055 17.5201 14.3925 15.9789 15.9432C14.4377 17.4939 12.3561 18.3877 10.1704 18.4375H9.99458C7.92465 18.4507 5.923 17.6977 4.37505 16.3234C4.28006 16.2423 4.20224 16.143 4.14617 16.0313C4.09011 15.9197 4.05692 15.798 4.04856 15.6733C4.0402 15.5487 4.05684 15.4236 4.0975 15.3055C4.13816 15.1873 4.20203 15.0785 4.28534 14.9854C4.36865 14.8923 4.46972 14.8168 4.58263 14.7633C4.69553 14.7099 4.81799 14.6795 4.9428 14.674C5.06761 14.6685 5.19226 14.688 5.30942 14.7314C5.42658 14.7748 5.5339 14.8411 5.62505 14.9266C6.00957 15.2702 6.43459 15.5656 6.89068 15.8063L8.57349 13.4922C6.97974 12.9453 5.29927 13.232 4.32036 13.3977C3.80176 13.4879 3.26821 13.4301 2.78104 13.2306C2.29388 13.0312 1.87288 12.6983 1.56646 12.2703C1.55474 12.2539 1.54302 12.2367 1.53208 12.2195L0.45552 10.5008C0.389954 10.3959 0.345774 10.2792 0.325524 10.1572C0.305274 10.0352 0.309354 9.91044 0.337528 9.79004C0.365703 9.66965 0.417416 9.55602 0.489689 9.45569C0.561963 9.35536 0.653369 9.27032 0.758645 9.20547L8.43755 4.47578V2.5C8.43755 2.25136 8.53632 2.0129 8.71214 1.83709C8.88795 1.66127 9.12641 1.5625 9.37505 1.5625H10.0001C11.1182 1.56239 12.2252 1.78453 13.2568 2.21601C14.2883 2.64749 15.2239 3.2797 16.0089 4.0759C16.794 4.8721 17.413 5.8164 17.8299 6.85392C18.2468 7.89144 18.4534 9.00148 18.4376 10.1195ZM16.5626 10.0938C16.587 8.39115 15.9487 6.74571 14.7824 5.505C13.6162 4.26428 12.0134 3.52544 10.3126 3.44453V5C10.3126 5.1601 10.2716 5.31754 10.1935 5.45731C10.1154 5.59708 10.0028 5.71452 9.86646 5.79844L2.54536 10.3031L3.10318 11.1945C3.20717 11.3307 3.34648 11.4357 3.50598 11.4982C3.66547 11.5608 3.83905 11.5784 4.00786 11.5492C5.27583 11.3344 7.86724 10.8961 10.2297 12.1742C10.9329 12.1166 11.5887 11.7968 12.0671 11.2783C12.5455 10.7598 12.8116 10.0805 12.8126 9.375C12.8126 9.12636 12.9113 8.8879 13.0871 8.71209C13.263 8.53627 13.5014 8.4375 13.7501 8.4375C13.9987 8.4375 14.2371 8.53627 14.413 8.71209C14.5888 8.8879 14.6876 9.12636 14.6876 9.375C14.686 10.5317 14.2574 11.6471 13.484 12.5073C12.7106 13.3674 11.6469 13.9118 10.4969 14.0359L8.74302 16.4477C9.20149 16.5327 9.66745 16.5707 10.1336 16.5609C11.8327 16.5209 13.4505 15.8255 14.6486 14.6202C15.8468 13.4149 16.5326 11.793 16.5626 10.0938Z" fill="#191F2E"/>
</svg>
