<svg width="20" height="20" viewBox="0 0 20 20" fill="none" xmlns="http://www.w3.org/2000/svg">
<path d="M15.7851 4.29691C15.0314 3.52737 14.1312 2.9166 13.1376 2.50065C12.144 2.08469 11.0771 1.87196 9.99997 1.87503H9.37497C9.20921 1.87503 9.05023 1.94088 8.93302 2.05809C8.81581 2.1753 8.74997 2.33427 8.74997 2.50003V4.65081L0.922622 9.468C0.852453 9.51122 0.791522 9.56788 0.743337 9.63474C0.695152 9.70159 0.660664 9.77731 0.641858 9.85755C0.623052 9.93778 0.620299 10.0209 0.633757 10.1022C0.647216 10.1835 0.676621 10.2614 0.720279 10.3313L1.79684 12.05L1.82028 12.0836C2.09278 12.4641 2.46708 12.76 2.90019 12.9373C3.3333 13.1146 3.80764 13.1661 4.26872 13.086C5.357 12.9016 7.2859 12.575 9.06559 13.343L6.98747 16.2C6.41689 15.9288 5.88809 15.5774 5.41715 15.1563C5.29283 15.0457 5.12969 14.9891 4.96362 14.9989C4.79755 15.0086 4.64215 15.0839 4.53161 15.2082C4.42107 15.3326 4.36444 15.4957 4.37418 15.6618C4.38392 15.8278 4.45924 15.9832 4.58356 16.0938C6.07467 17.4155 8.00196 18.139 9.9945 18.125H10.164C11.7522 18.0937 13.2963 17.5975 14.6054 16.6978C15.9145 15.7981 16.9312 14.5345 17.5297 13.0631C18.1282 11.5917 18.2823 9.9772 17.9729 8.41917C17.6636 6.86115 16.9043 5.42798 15.789 4.29691H15.7851ZM9.68747 8.75003C9.50205 8.75003 9.32079 8.69505 9.16662 8.59204C9.01245 8.48902 8.89229 8.3426 8.82133 8.1713C8.75037 7.99999 8.73181 7.81149 8.76798 7.62964C8.80415 7.44778 8.89344 7.28073 9.02455 7.14962C9.15567 7.01851 9.32271 6.92922 9.50457 6.89305C9.68643 6.85687 9.87493 6.87544 10.0462 6.9464C10.2175 7.01735 10.364 7.13752 10.467 7.29169C10.57 7.44586 10.625 7.62711 10.625 7.81253C10.625 8.06117 10.5262 8.29963 10.3504 8.47545C10.1746 8.65126 9.93611 8.75003 9.68747 8.75003Z" fill="#191F2E"/>
</svg>
