<svg width="20" height="20" viewBox="0 0 20 20" fill="none" xmlns="http://www.w3.org/2000/svg">
<path d="M16.5086 15.3664C16.6833 15.5412 16.8022 15.7639 16.8504 16.0063C16.8986 16.2487 16.8738 16.4999 16.7793 16.7283C16.6847 16.9566 16.5246 17.1518 16.3191 17.2892C16.1137 17.4265 15.8721 17.4999 15.625 17.5H4.37496C4.12775 17.5 3.88608 17.4268 3.6805 17.2895C3.47493 17.1522 3.31468 16.957 3.22002 16.7286C3.12537 16.5003 3.10055 16.249 3.14871 16.0065C3.19686 15.764 3.31584 15.5413 3.49058 15.3664C3.49416 15.3632 3.49755 15.3598 3.50074 15.3562L9.09605 10L3.50152 4.64375C3.49833 4.64017 3.49494 4.63678 3.49136 4.63359C3.31667 4.45878 3.19771 4.2361 3.14952 3.9937C3.10134 3.7513 3.12609 3.50006 3.22066 3.27172C3.31522 3.04339 3.47534 2.84821 3.6808 2.71085C3.88625 2.57349 4.12782 2.50011 4.37496 2.5H15.625C15.8722 2.49996 16.1138 2.57322 16.3194 2.71052C16.525 2.84782 16.6852 3.04299 16.7799 3.27136C16.8746 3.49973 16.8994 3.75104 16.8512 3.99351C16.8031 4.23598 16.6841 4.45873 16.5093 4.63359C16.5058 4.63678 16.5024 4.64017 16.4992 4.64375L10.9039 10L16.4984 15.3562C16.5016 15.3598 16.505 15.3632 16.5086 15.3664Z" fill="#191F2E"/>
</svg>
