<svg width="20" height="20" viewBox="0 0 20 20" fill="none" xmlns="http://www.w3.org/2000/svg">
<path d="M16.7189 15.1313L11.3556 10L16.7189 4.86875L16.7329 4.85469C16.9516 4.63598 17.1004 4.35732 17.1605 4.05397C17.2207 3.75063 17.1895 3.43626 17.0709 3.15066C16.9523 2.86506 16.7516 2.62109 16.4942 2.44963C16.2368 2.27818 15.9344 2.18695 15.6251 2.1875H4.37511C4.06619 2.18772 3.76427 2.27951 3.5075 2.45126C3.25073 2.62302 3.05063 2.86703 2.93249 3.15247C2.81435 3.4379 2.78348 3.75195 2.84376 4.05493C2.90405 4.35791 3.0528 4.63622 3.2712 4.85469L3.28526 4.86875L8.64464 10L3.28526 15.1313L3.2712 15.1453C3.0528 15.3638 2.90405 15.6421 2.84376 15.9451C2.78348 16.2481 2.81435 16.5621 2.93249 16.8475C3.05063 17.133 3.25073 17.377 3.5075 17.5487C3.76427 17.7205 4.06619 17.8123 4.37511 17.8125H15.6251C15.9341 17.8124 16.2361 17.7208 16.493 17.5491C16.7499 17.3774 16.9501 17.1334 17.0684 16.8479C17.1866 16.5624 17.2175 16.2483 17.1573 15.9453C17.097 15.6422 16.9482 15.3638 16.7298 15.1453L16.7189 15.1313ZM14.8439 4.0625L10.0001 8.70235L5.15636 4.0625H14.8439ZM5.15636 15.9375L10.0001 11.2977L14.8439 15.9375H5.15636Z" fill="#191F2E"/>
</svg>
