<svg width="20" height="20" viewBox="0 0 20 20" fill="none" xmlns="http://www.w3.org/2000/svg">
<path d="M15.625 5.90938V3.125C15.625 2.79348 15.4933 2.47554 15.2589 2.24112C15.0245 2.0067 14.7065 1.875 14.375 1.875H5.625C5.29348 1.875 4.97554 2.0067 4.74112 2.24112C4.5067 2.47554 4.375 2.79348 4.375 3.125V5.9375C4.37542 6.13148 4.42079 6.32273 4.50754 6.49623C4.59429 6.66973 4.72007 6.82077 4.875 6.9375L8.95859 10L4.875 13.0625C4.72007 13.1792 4.59429 13.3303 4.50754 13.5038C4.42079 13.6773 4.37542 13.8685 4.375 14.0625V16.875C4.375 17.2065 4.5067 17.5245 4.74112 17.7589C4.97554 17.9933 5.29348 18.125 5.625 18.125H14.375C14.7065 18.125 15.0245 17.9933 15.2589 17.7589C15.4933 17.5245 15.625 17.2065 15.625 16.875V14.0906C15.6246 13.8974 15.5796 13.7069 15.4935 13.5338C15.4075 13.3608 15.2827 13.2099 15.1289 13.093L11.0367 10L15.1289 6.90703C15.2827 6.79006 15.4075 6.6392 15.4935 6.46617C15.5796 6.29314 15.6246 6.10261 15.625 5.90938ZM14.375 14.0906V16.875H5.625V14.0625L9.375 11.25V13.125C9.375 13.2908 9.44085 13.4497 9.55806 13.5669C9.67527 13.6842 9.83424 13.75 10 13.75C10.1658 13.75 10.3247 13.6842 10.4419 13.5669C10.5592 13.4497 10.625 13.2908 10.625 13.125V11.2563L14.375 14.0906ZM14.375 5.90938L13.9242 6.25H6.04141L5.625 5.9375V3.125H14.375V5.90938Z" fill="#191F2E"/>
</svg>
