<svg width="20" height="20" viewBox="0 0 20 20" fill="none" xmlns="http://www.w3.org/2000/svg">
<path d="M15.625 5.90938V3.125C15.625 2.79348 15.4933 2.47554 15.2589 2.24112C15.0245 2.0067 14.7065 1.875 14.375 1.875H5.625C5.29348 1.875 4.97554 2.0067 4.74112 2.24112C4.5067 2.47554 4.375 2.79348 4.375 3.125V5.9375C4.37557 6.13154 4.42109 6.3228 4.50797 6.4963C4.59486 6.6698 4.72075 6.82081 4.87578 6.9375L8.95859 10L4.875 13.0625C4.72007 13.1792 4.59429 13.3303 4.50754 13.5038C4.42079 13.6773 4.37542 13.8685 4.375 14.0625V16.875C4.375 17.2065 4.5067 17.5245 4.74112 17.7589C4.97554 17.9933 5.29348 18.125 5.625 18.125H14.375C14.7065 18.125 15.0245 17.9933 15.2589 17.7589C15.4933 17.5245 15.625 17.2065 15.625 16.875V14.0906C15.625 13.8972 15.5801 13.7065 15.4939 13.5334C15.4077 13.3602 15.2825 13.2095 15.1281 13.093L11.0359 10L15.1281 6.90703C15.2823 6.7903 15.4073 6.63951 15.4935 6.46644C15.5797 6.29338 15.6247 6.10272 15.625 5.90938Z" fill="#191F2E"/>
</svg>
