<svg width="20" height="20" viewBox="0 0 20 20" fill="none" xmlns="http://www.w3.org/2000/svg">
<path d="M16.4985 15.3562L10.904 10L16.4985 4.64375C16.5017 4.64017 16.5051 4.63678 16.5087 4.63359C16.6834 4.45878 16.8024 4.2361 16.8505 3.9937C16.8987 3.7513 16.874 3.50006 16.7794 3.27172C16.6848 3.04339 16.5247 2.84821 16.3193 2.71085C16.1138 2.57349 15.8722 2.50011 15.6251 2.5H4.37511C4.12803 2.50027 3.88658 2.57375 3.68124 2.71117C3.4759 2.84859 3.3159 3.04378 3.22143 3.27208C3.12697 3.50039 3.10228 3.75157 3.15049 3.9939C3.1987 4.23622 3.31764 4.45883 3.49229 4.63359L3.50167 4.64375L9.0962 10L3.50167 15.3562L3.49229 15.3664C3.31764 15.5412 3.1987 15.7638 3.15049 16.0061C3.10228 16.2484 3.12697 16.4996 3.22143 16.7279C3.3159 16.9562 3.4759 17.1514 3.68124 17.2888C3.88658 17.4262 4.12803 17.4997 4.37511 17.5H15.6251C15.8723 17.5 16.114 17.4268 16.3196 17.2895C16.5251 17.1522 16.6854 16.957 16.78 16.7286C16.8747 16.5003 16.8995 16.249 16.8514 16.0065C16.8032 15.764 16.6842 15.5413 16.5095 15.3664C16.5056 15.3632 16.502 15.3599 16.4985 15.3562ZM6.98682 6.25H13.0134L10.0001 9.13437L6.98682 6.25ZM15.6251 3.75L14.3204 5H5.68136L4.37511 3.75H15.6251ZM4.37511 16.25L10.0001 10.8656L15.6251 16.25H4.37511Z" fill="#191F2E"/>
</svg>
