<svg width="20" height="20" viewBox="0 0 20 20" fill="none" xmlns="http://www.w3.org/2000/svg">
<path d="M17.0961 8.10705L10.8461 2.21017C10.843 2.2075 10.8402 2.20463 10.8375 2.20158C10.6074 1.99231 10.3075 1.87634 9.99648 1.87634C9.68545 1.87634 9.38558 1.99231 9.15547 2.20158L9.14688 2.21017L2.90391 8.10705C2.77656 8.22414 2.67491 8.3664 2.60538 8.52482C2.53586 8.68323 2.49997 8.85436 2.5 9.02736V16.25C2.5 16.5815 2.6317 16.8995 2.86612 17.1339C3.10054 17.3683 3.41848 17.5 3.75 17.5H16.25C16.5815 17.5 16.8995 17.3683 17.1339 17.1339C17.3683 16.8995 17.5 16.5815 17.5 16.25V9.02736C17.5 8.85436 17.4641 8.68323 17.3946 8.52482C17.3251 8.3664 17.2234 8.22414 17.0961 8.10705ZM16.25 16.25H3.75V9.02736L3.75859 9.01955L10 3.12501L16.2422 9.01798L16.2508 9.0258L16.25 16.25Z" fill="#191F2E"/>
</svg>
