<svg width="20" height="20" viewBox="0 0 20 20" fill="none" xmlns="http://www.w3.org/2000/svg">
<path d="M17.0961 8.10692L10.8461 2.21005C10.843 2.20738 10.8402 2.20451 10.8375 2.20145C10.6074 1.99218 10.3075 1.87622 9.99648 1.87622C9.68545 1.87622 9.38558 1.99218 9.15547 2.20145L9.14688 2.21005L2.90391 8.10692C2.77656 8.22402 2.67491 8.36628 2.60538 8.5247C2.53586 8.68311 2.49997 8.85424 2.5 9.02724V16.2499C2.5 16.5814 2.6317 16.8994 2.86612 17.1338C3.10054 17.3682 3.41848 17.4999 3.75 17.4999H7.5C7.83152 17.4999 8.14946 17.3682 8.38388 17.1338C8.6183 16.8994 8.75 16.5814 8.75 16.2499V12.4999H11.25V16.2499C11.25 16.5814 11.3817 16.8994 11.6161 17.1338C11.8505 17.3682 12.1685 17.4999 12.5 17.4999H16.25C16.5815 17.4999 16.8995 17.3682 17.1339 17.1338C17.3683 16.8994 17.5 16.5814 17.5 16.2499V9.02724C17.5 8.85424 17.4641 8.68311 17.3946 8.5247C17.3251 8.36628 17.2234 8.22402 17.0961 8.10692ZM16.25 16.2499H12.5V12.4999C12.5 12.1684 12.3683 11.8504 12.1339 11.616C11.8995 11.3816 11.5815 11.2499 11.25 11.2499H8.75C8.41848 11.2499 8.10054 11.3816 7.86612 11.616C7.6317 11.8504 7.5 12.1684 7.5 12.4999V16.2499H3.75V9.02724L3.75859 9.01942L10 3.12489L16.2422 9.01786L16.2508 9.02567L16.25 16.2499Z" fill="#191F2E"/>
</svg>
