<svg width="20" height="20" viewBox="0 0 20 20" fill="none" xmlns="http://www.w3.org/2000/svg">
<path d="M17.3094 7.87894L11.0633 1.98285L11.0508 1.97113C10.7637 1.70844 10.3887 1.56274 9.99961 1.56274C9.6105 1.56274 9.23549 1.70844 8.94844 1.97113L8.93516 1.98285L2.69062 7.87894C2.53227 8.02546 2.40585 8.20307 2.31927 8.40068C2.2327 8.59829 2.18784 8.81164 2.1875 9.02738V16.25C2.1875 16.6644 2.35212 17.0619 2.64515 17.3549C2.93817 17.6479 3.3356 17.8125 3.75 17.8125H7.5C7.9144 17.8125 8.31183 17.6479 8.60485 17.3549C8.89788 17.0619 9.0625 16.6644 9.0625 16.25V12.8125H10.9375V16.25C10.9375 16.6644 11.1021 17.0619 11.3951 17.3549C11.6882 17.6479 12.0856 17.8125 12.5 17.8125H16.25C16.6644 17.8125 17.0618 17.6479 17.3549 17.3549C17.6479 17.0619 17.8125 16.6644 17.8125 16.25V9.02738C17.8122 8.81164 17.7673 8.59829 17.6807 8.40068C17.5942 8.20307 17.4677 8.02546 17.3094 7.87894ZM15.9375 15.9375H12.8125V12.5C12.8125 12.2948 12.7721 12.0917 12.6936 11.9021C12.615 11.7125 12.4999 11.5403 12.3549 11.3952C12.2098 11.2501 12.0375 11.135 11.8479 11.0565C11.6584 10.978 11.4552 10.9375 11.25 10.9375H8.75C8.3356 10.9375 7.93817 11.1022 7.64515 11.3952C7.35212 11.6882 7.1875 12.0856 7.1875 12.5V15.9375H4.0625V9.16254L10 3.55707L15.9375 9.16254V15.9375Z" fill="#191F2E"/>
</svg>
