<svg width="20" height="20" viewBox="0 0 20 20" fill="none" xmlns="http://www.w3.org/2000/svg">
<path d="M16.25 6.98203V6.875C16.25 5.2174 15.5915 3.62769 14.4194 2.45558C13.2473 1.28348 11.6576 0.625 10 0.625C8.3424 0.625 6.75268 1.28348 5.58058 2.45558C4.40848 3.62769 3.75 5.2174 3.75 6.875V6.98203C3.33285 7.12936 2.98123 7.41946 2.75732 7.80101C2.5334 8.18257 2.45162 8.63101 2.52643 9.06705C2.60124 9.50308 2.82781 9.89862 3.1661 10.1837C3.50439 10.4688 3.93259 10.6251 4.375 10.625H4.6375L9.45703 19.0625C9.51165 19.1583 9.59066 19.238 9.68602 19.2934C9.78138 19.3488 9.88971 19.378 10 19.378C10.1103 19.378 10.2186 19.3488 10.314 19.2934C10.4093 19.238 10.4883 19.1583 10.543 19.0625L15.3625 10.625H15.625C16.0674 10.6251 16.4956 10.4688 16.8339 10.1837C17.1722 9.89862 17.3988 9.50308 17.4736 9.06705C17.5484 8.63101 17.4666 8.18257 17.2427 7.80101C17.0188 7.41946 16.6672 7.12936 16.25 6.98203ZM10 17.4906L6.07734 10.625H7.58359L10.7531 16.1719L10 17.4906ZM10.5305 10.625L12.2266 13.5938L11.4734 14.9125L9.02344 10.625H10.5305ZM12.9461 12.3344L11.9695 10.625H13.9227L12.9461 12.3344ZM15.625 9.375H4.375C4.20924 9.375 4.05027 9.30915 3.93306 9.19194C3.81585 9.07473 3.75 8.91576 3.75 8.75C3.75 8.58424 3.81585 8.42527 3.93306 8.30806C4.05027 8.19085 4.20924 8.125 4.375 8.125C4.54076 8.125 4.69973 8.05915 4.81694 7.94194C4.93415 7.82473 5 7.66576 5 7.5V6.875C5 5.54892 5.52678 4.27715 6.46447 3.33947C7.40215 2.40178 8.67392 1.875 10 1.875C11.3261 1.875 12.5979 2.40178 13.5355 3.33947C14.4732 4.27715 15 5.54892 15 6.875V7.5C15 7.66576 15.0658 7.82473 15.1831 7.94194C15.3003 8.05915 15.4592 8.125 15.625 8.125C15.7908 8.125 15.9497 8.19085 16.0669 8.30806C16.1842 8.42527 16.25 8.58424 16.25 8.75C16.25 8.91576 16.1842 9.07473 16.0669 9.19194C15.9497 9.30915 15.7908 9.375 15.625 9.375Z" fill="#191F2E"/>
</svg>
