<svg width="20" height="20" viewBox="0 0 20 20" fill="none" xmlns="http://www.w3.org/2000/svg">
<path d="M11.25 8.4375C11.25 8.18886 11.3488 7.9504 11.5246 7.77459C11.7004 7.59877 11.9389 7.5 12.1875 7.5H14.6875C14.9361 7.5 15.1746 7.59877 15.3504 7.77459C15.5262 7.9504 15.625 8.18886 15.625 8.4375C15.625 8.68614 15.5262 8.9246 15.3504 9.10041C15.1746 9.27623 14.9361 9.375 14.6875 9.375H12.1875C11.9389 9.375 11.7004 9.27623 11.5246 9.10041C11.3488 8.9246 11.25 8.68614 11.25 8.4375ZM12.1875 12.5H14.6875C14.9361 12.5 15.1746 12.4012 15.3504 12.2254C15.5262 12.0496 15.625 11.8111 15.625 11.5625C15.625 11.3139 15.5262 11.0754 15.3504 10.8996C15.1746 10.7238 14.9361 10.625 14.6875 10.625H12.1875C11.9389 10.625 11.7004 10.7238 11.5246 10.8996C11.3488 11.0754 11.25 11.3139 11.25 11.5625C11.25 11.8111 11.3488 12.0496 11.5246 12.2254C11.7004 12.4012 11.9389 12.5 12.1875 12.5ZM18.4375 4.375V15.625C18.4375 16.0394 18.2729 16.4368 17.9799 16.7299C17.6868 17.0229 17.2894 17.1875 16.875 17.1875H3.125C2.7106 17.1875 2.31317 17.0229 2.02015 16.7299C1.72712 16.4368 1.5625 16.0394 1.5625 15.625V4.375C1.5625 3.9606 1.72712 3.56317 2.02015 3.27015C2.31317 2.97712 2.7106 2.8125 3.125 2.8125H16.875C17.2894 2.8125 17.6868 2.97712 17.9799 3.27015C18.2729 3.56317 18.4375 3.9606 18.4375 4.375ZM16.5625 4.6875H3.4375V15.3125H16.5625V4.6875ZM4.24062 12.4508C4.46558 11.9183 4.8217 11.4514 5.27578 11.0938C4.9539 10.6778 4.75508 10.18 4.70191 9.65675C4.64874 9.13351 4.74334 8.60585 4.97498 8.13368C5.20662 7.66151 5.56601 7.26375 6.01234 6.98556C6.45868 6.70738 6.97407 6.55991 7.5 6.55991C8.02593 6.55991 8.54132 6.70738 8.98766 6.98556C9.43399 7.26375 9.79338 7.66151 10.025 8.13368C10.2567 8.60585 10.3513 9.13351 10.2981 9.65675C10.2449 10.18 10.0461 10.6778 9.72422 11.0938C10.1785 11.4514 10.5349 11.9182 10.7602 12.4508C10.8561 12.6803 10.8569 12.9384 10.7625 13.1685C10.6681 13.3986 10.4861 13.5818 10.2566 13.6777C10.0272 13.7737 9.76898 13.7745 9.53888 13.6801C9.30878 13.5857 9.12562 13.4037 9.02969 13.1742C8.7875 12.593 8.15781 12.1875 7.5 12.1875C6.84219 12.1875 6.21328 12.5938 5.96953 13.1742C5.92458 13.2914 5.85657 13.3983 5.76954 13.4887C5.6825 13.5791 5.57821 13.651 5.46283 13.7004C5.34746 13.7497 5.22336 13.7754 5.09789 13.7759C4.97242 13.7764 4.84812 13.7516 4.73237 13.7032C4.61662 13.6548 4.51177 13.5836 4.42404 13.4939C4.3363 13.4042 4.26746 13.2978 4.22161 13.181C4.17575 13.0642 4.1538 12.9394 4.15707 12.814C4.16034 12.6885 4.18875 12.565 4.24062 12.4508ZM6.5625 9.375C6.5625 9.56042 6.61748 9.74168 6.7205 9.89585C6.82351 10.05 6.96993 10.1702 7.14123 10.2411C7.31254 10.3121 7.50104 10.3307 7.6829 10.2945C7.86475 10.2583 8.0318 10.169 8.16291 10.0379C8.29402 9.9068 8.38331 9.73975 8.41949 9.5579C8.45566 9.37604 8.43709 9.18754 8.36614 9.01623C8.29518 8.84493 8.17502 8.69851 8.02085 8.5955C7.86668 8.49248 7.68542 8.4375 7.5 8.4375C7.25136 8.4375 7.0129 8.53627 6.83709 8.71209C6.66127 8.8879 6.5625 9.12636 6.5625 9.375Z" fill="#191F2E"/>
</svg>
