<svg width="20" height="20" viewBox="0 0 20 20" fill="none" xmlns="http://www.w3.org/2000/svg">
<path d="M8.75 9.375C8.75 9.62223 8.67669 9.8639 8.53934 10.0695C8.40199 10.275 8.20676 10.4352 7.97835 10.5298C7.74995 10.6245 7.49861 10.6492 7.25614 10.601C7.01366 10.5528 6.79093 10.4337 6.61612 10.2589C6.4413 10.0841 6.32225 9.86134 6.27402 9.61886C6.22579 9.37639 6.25054 9.12505 6.34515 8.89665C6.43976 8.66824 6.59998 8.47301 6.80554 8.33566C7.0111 8.19831 7.25277 8.125 7.5 8.125C7.83152 8.125 8.14946 8.2567 8.38388 8.49112C8.6183 8.72554 8.75 9.04348 8.75 9.375ZM18.125 4.375V15.625C18.125 15.9565 17.9933 16.2745 17.7589 16.5089C17.5245 16.7433 17.2065 16.875 16.875 16.875H3.125C2.79348 16.875 2.47554 16.7433 2.24112 16.5089C2.0067 16.2745 1.875 15.9565 1.875 15.625V4.375C1.875 4.04348 2.0067 3.72554 2.24112 3.49112C2.47554 3.2567 2.79348 3.125 3.125 3.125H16.875C17.2065 3.125 17.5245 3.2567 17.7589 3.49112C17.9933 3.72554 18.125 4.04348 18.125 4.375ZM10.6055 12.9688C10.4032 12.2136 9.92366 11.5625 9.2625 11.1453C9.61362 10.7963 9.8532 10.3508 9.95087 9.86549C10.0485 9.38013 9.9999 8.8767 9.81112 8.41902C9.62234 7.96134 9.30192 7.57001 8.89047 7.29465C8.47903 7.01929 7.99509 6.87229 7.5 6.87229C7.00491 6.87229 6.52097 7.01929 6.10953 7.29465C5.69808 7.57001 5.37766 7.96134 5.18888 8.41902C5.0001 8.8767 4.95146 9.38013 5.04913 9.86549C5.1468 10.3508 5.38638 10.7963 5.7375 11.1453C5.07676 11.5629 4.59734 12.2139 4.39453 12.9688C4.35309 13.1293 4.37714 13.2998 4.46138 13.4426C4.54563 13.5855 4.68317 13.689 4.84375 13.7305C5.00433 13.7719 5.1748 13.7479 5.31765 13.6636C5.4605 13.5794 5.56403 13.4418 5.60547 13.2812C5.81172 12.4805 6.62578 11.875 7.5 11.875C8.37422 11.875 9.18906 12.4789 9.39453 13.2812C9.43597 13.4418 9.5395 13.5794 9.68235 13.6636C9.8252 13.7479 9.99567 13.7719 10.1562 13.7305C10.3168 13.689 10.4544 13.5855 10.5386 13.4426C10.6229 13.2998 10.6469 13.1293 10.6055 12.9688ZM15.625 11.25C15.625 11.0842 15.5592 10.9253 15.4419 10.8081C15.3247 10.6908 15.1658 10.625 15 10.625H11.875C11.7092 10.625 11.5503 10.6908 11.4331 10.8081C11.3158 10.9253 11.25 11.0842 11.25 11.25C11.25 11.4158 11.3158 11.5747 11.4331 11.6919C11.5503 11.8092 11.7092 11.875 11.875 11.875H15C15.1658 11.875 15.3247 11.8092 15.4419 11.6919C15.5592 11.5747 15.625 11.4158 15.625 11.25ZM15.625 8.75C15.625 8.58424 15.5592 8.42527 15.4419 8.30806C15.3247 8.19085 15.1658 8.125 15 8.125H11.875C11.7092 8.125 11.5503 8.19085 11.4331 8.30806C11.3158 8.42527 11.25 8.58424 11.25 8.75C11.25 8.91576 11.3158 9.07473 11.4331 9.19194C11.5503 9.30915 11.7092 9.375 11.875 9.375H15C15.1658 9.375 15.3247 9.30915 15.4419 9.19194C15.5592 9.07473 15.625 8.91576 15.625 8.75Z" fill="#191F2E"/>
</svg>
