<svg width="20" height="20" viewBox="0 0 20 20" fill="none" xmlns="http://www.w3.org/2000/svg">
<path d="M16.875 3.125H5.625C5.29348 3.125 4.97554 3.2567 4.74112 3.49112C4.5067 3.72554 4.375 4.04348 4.375 4.375V5.625H3.125C2.79348 5.625 2.47554 5.7567 2.24112 5.99112C2.0067 6.22554 1.875 6.54348 1.875 6.875V15.625C1.875 15.9565 2.0067 16.2745 2.24112 16.5089C2.47554 16.7433 2.79348 16.875 3.125 16.875H14.375C14.7065 16.875 15.0245 16.7433 15.2589 16.5089C15.4933 16.2745 15.625 15.9565 15.625 15.625V14.375H16.875C17.2065 14.375 17.5245 14.2433 17.7589 14.0089C17.9933 13.7745 18.125 13.4565 18.125 13.125V4.375C18.125 4.04348 17.9933 3.72554 17.7589 3.49112C17.5245 3.2567 17.2065 3.125 16.875 3.125ZM13.4375 5.625C13.6229 5.625 13.8042 5.67998 13.9583 5.783C14.1125 5.88601 14.2327 6.03243 14.3036 6.20373C14.3746 6.37504 14.3932 6.56354 14.357 6.7454C14.3208 6.92725 14.2315 7.0943 14.1004 7.22541C13.9693 7.35652 13.8023 7.44581 13.6204 7.48199C13.4385 7.51816 13.25 7.49959 13.0787 7.42864C12.9074 7.35768 12.761 7.23752 12.658 7.08335C12.555 6.92918 12.5 6.74792 12.5 6.5625C12.5 6.31386 12.5988 6.0754 12.7746 5.89959C12.9504 5.72377 13.1889 5.625 13.4375 5.625ZM14.375 15.625H3.125V6.875H4.375V13.125C4.375 13.4565 4.5067 13.7745 4.74112 14.0089C4.97554 14.2433 5.29348 14.375 5.625 14.375H14.375V15.625ZM16.875 13.125H5.625V10.3125L8.4375 7.5L12.3172 11.3797C12.4344 11.4968 12.5933 11.5626 12.759 11.5626C12.9247 11.5626 13.0836 11.4968 13.2008 11.3797L15.2055 9.375L16.875 11.0453V13.125Z" fill="#191F2E"/>
</svg>
