<svg width="20" height="20" viewBox="0 0 20 20" fill="none" xmlns="http://www.w3.org/2000/svg">
<path d="M16.25 2.1875H6.875C6.4606 2.1875 6.06317 2.35212 5.77015 2.64515C5.47712 2.93817 5.3125 3.3356 5.3125 3.75V4.6875H3.75C3.3356 4.6875 2.93817 4.85212 2.64515 5.14515C2.35212 5.43817 2.1875 5.8356 2.1875 6.25V16.25C2.1875 16.6644 2.35212 17.0618 2.64515 17.3549C2.93817 17.6479 3.3356 17.8125 3.75 17.8125H13.75C14.1644 17.8125 14.5618 17.6479 14.8549 17.3549C15.1479 17.0618 15.3125 16.6644 15.3125 16.25V14.6875H16.25C16.6644 14.6875 17.0618 14.5229 17.3549 14.2299C17.6479 13.9368 17.8125 13.5394 17.8125 13.125V3.75C17.8125 3.3356 17.6479 2.93817 17.3549 2.64515C17.0618 2.35212 16.6644 2.1875 16.25 2.1875ZM7.1875 4.0625H15.9375V8.72813L15.1672 7.95781C14.8742 7.66489 14.4768 7.50033 14.0625 7.50033C13.6482 7.50033 13.2508 7.66489 12.9578 7.95781L8.10313 12.8125H7.1875V4.0625ZM13.4375 15.9375H4.0625V6.5625H5.3125V13.125C5.3125 13.5394 5.47712 13.9368 5.77015 14.2299C6.06317 14.5229 6.4606 14.6875 6.875 14.6875H13.4375V15.9375ZM10.7547 12.8125L14.0625 9.50469L15.9375 11.3797V12.8125H10.7547ZM8.4375 6.875C8.4375 6.56597 8.52914 6.26387 8.70083 6.00692C8.87252 5.74997 9.11655 5.5497 9.40206 5.43144C9.68757 5.31318 10.0017 5.28223 10.3048 5.34252C10.6079 5.40281 10.8863 5.55163 11.1049 5.77015C11.3234 5.98867 11.4722 6.26708 11.5325 6.57017C11.5928 6.87327 11.5618 7.18743 11.4436 7.47294C11.3253 7.75845 11.125 8.00248 10.8681 8.17417C10.6111 8.34586 10.309 8.4375 10 8.4375C9.5856 8.4375 9.18817 8.27288 8.89515 7.97985C8.60212 7.68683 8.4375 7.2894 8.4375 6.875Z" fill="#191F2E"/>
</svg>
