<svg width="20" height="20" viewBox="0 0 20 20" fill="none" xmlns="http://www.w3.org/2000/svg">
<path d="M16.875 2.8125H6.25C5.8356 2.8125 5.43817 2.97712 5.14515 3.27015C4.85212 3.56317 4.6875 3.9606 4.6875 4.375V5.3125H3.125C2.7106 5.3125 2.31317 5.47712 2.02015 5.77015C1.72712 6.06317 1.5625 6.4606 1.5625 6.875V15.625C1.5625 16.0394 1.72712 16.4368 2.02015 16.7299C2.31317 17.0229 2.7106 17.1875 3.125 17.1875H14.375C14.7894 17.1875 15.1868 17.0229 15.4799 16.7299C15.7729 16.4368 15.9375 16.0394 15.9375 15.625V14.0625H16.875C17.2894 14.0625 17.6868 13.8979 17.9799 13.6049C18.2729 13.3118 18.4375 12.9144 18.4375 12.5V4.375C18.4375 3.9606 18.2729 3.56317 17.9799 3.27015C17.6868 2.97712 17.2894 2.8125 16.875 2.8125ZM6.5625 4.6875H16.5625V8.21016L16.3102 7.95781C16.0171 7.66489 15.6198 7.50033 15.2055 7.50033C14.7912 7.50033 14.3938 7.66489 14.1008 7.95781L12.9148 9.14062L10.1672 6.39531C9.87418 6.10239 9.47682 5.93783 9.0625 5.93783C8.64818 5.93783 8.25082 6.10239 7.95781 6.39531L6.5625 7.79063V4.6875ZM14.0625 15.3125H3.4375V7.1875H4.6875V12.5C4.6875 12.9144 4.85212 13.3118 5.14515 13.6049C5.43817 13.8979 5.8356 14.0625 6.25 14.0625H14.0625V15.3125ZM6.5625 12.1875V10.4422L9.0625 7.94219L12.2523 11.132C12.3394 11.2194 12.4429 11.2888 12.5569 11.3361C12.6708 11.3834 12.793 11.4078 12.9164 11.4078C13.0398 11.4078 13.162 11.3834 13.2759 11.3361C13.3899 11.2888 13.4934 11.2194 13.5805 11.132L15.2078 9.50469L16.5625 10.8594V12.1875H6.5625Z" fill="#191F2E"/>
</svg>
