<svg width="20" height="20" viewBox="0 0 20 20" fill="none" xmlns="http://www.w3.org/2000/svg">
<path d="M16.875 3.125H3.125C2.79348 3.125 2.47554 3.2567 2.24112 3.49112C2.0067 3.72554 1.875 4.04348 1.875 4.375V15.625C1.875 15.9565 2.0067 16.2745 2.24112 16.5089C2.47554 16.7433 2.79348 16.875 3.125 16.875H16.875C17.2065 16.875 17.5245 16.7433 17.7589 16.5089C17.9933 16.2745 18.125 15.9565 18.125 15.625V4.375C18.125 4.04348 17.9933 3.72554 17.7589 3.49112C17.5245 3.2567 17.2065 3.125 16.875 3.125ZM12.1875 6.875C12.3729 6.875 12.5542 6.92998 12.7083 7.033C12.8625 7.13601 12.9827 7.28243 13.0536 7.45373C13.1246 7.62504 13.1432 7.81354 13.107 7.9954C13.0708 8.17725 12.9815 8.3443 12.8504 8.47541C12.7193 8.60652 12.5523 8.69581 12.3704 8.73199C12.1885 8.76816 12 8.74959 11.8287 8.67864C11.6574 8.60768 11.511 8.48752 11.408 8.33335C11.305 8.17918 11.25 7.99792 11.25 7.8125C11.25 7.56386 11.3488 7.3254 11.5246 7.14959C11.7004 6.97377 11.9389 6.875 12.1875 6.875ZM3.125 15.625V13.4375L7.1875 9.375L13.4375 15.625H3.125ZM16.875 15.625H15.2055L12.393 12.8125L13.9555 11.25L16.875 14.1703V15.625Z" fill="#191F2E"/>
</svg>
