<svg width="20" height="20" viewBox="0 0 20 20" fill="none" xmlns="http://www.w3.org/2000/svg">
<path d="M19.6875 10.0001C19.6876 10.9273 19.4128 11.8336 18.8977 12.6046C18.3827 13.3756 17.6505 13.9765 16.7939 14.3313C15.9373 14.6861 14.9947 14.779 14.0854 14.598C13.176 14.4171 12.3407 13.9706 11.6852 13.3149L11.6469 13.2735L6.97034 7.99304C6.57496 7.60491 6.07376 7.3422 5.52962 7.23788C4.98549 7.13356 4.42266 7.19228 3.91177 7.40667C3.40088 7.62105 2.9647 7.98156 2.65795 8.44294C2.3512 8.90432 2.18756 9.44603 2.18756 10.0001C2.18756 10.5541 2.3512 11.0958 2.65795 11.5572C2.9647 12.0186 3.40088 12.3791 3.91177 12.5935C4.42266 12.8079 4.98549 12.8666 5.52962 12.7623C6.07376 12.6579 6.57496 12.3952 6.97034 12.0071L7.21096 11.7352C7.37579 11.5488 7.60795 11.4354 7.85636 11.4201C8.10477 11.4048 8.34909 11.4888 8.53557 11.6536C8.72205 11.8184 8.83542 12.0506 8.85073 12.299C8.86604 12.5474 8.78204 12.7917 8.61721 12.9782L8.35549 13.2735L8.31721 13.3149C7.66162 13.9704 6.82639 14.4168 5.91712 14.5976C5.00786 14.7784 4.0654 14.6855 3.20892 14.3307C2.35244 13.9759 1.62039 13.3751 1.10536 12.6042C0.590327 11.8334 0.31543 10.9271 0.31543 10.0001C0.31543 9.07301 0.590327 8.16676 1.10536 7.39592C1.62039 6.62508 2.35244 6.02428 3.20892 5.66947C4.0654 5.31466 5.00786 5.22178 5.91712 5.40259C6.82639 5.58339 7.66162 6.02975 8.31721 6.68523L8.35549 6.72664L13.0321 12.0071C13.4274 12.3952 13.9286 12.6579 14.4728 12.7623C15.0169 12.8666 15.5797 12.8079 16.0906 12.5935C16.6015 12.3791 17.0377 12.0186 17.3444 11.5572C17.6512 11.0958 17.8148 10.5541 17.8148 10.0001C17.8148 9.44603 17.6512 8.90432 17.3444 8.44294C17.0377 7.98156 16.6015 7.62105 16.0906 7.40667C15.5797 7.19228 15.0169 7.13356 14.4728 7.23788C13.9286 7.3422 13.4274 7.60491 13.0321 7.99304L12.7914 8.26492C12.7098 8.35725 12.6108 8.43261 12.5001 8.48669C12.3893 8.54076 12.269 8.57249 12.146 8.58008C12.023 8.58766 11.8997 8.57094 11.7832 8.53087C11.6667 8.4908 11.5592 8.42817 11.4668 8.34656C11.3745 8.26495 11.2991 8.16594 11.2451 8.05521C11.191 7.94447 11.1592 7.82416 11.1517 7.70116C11.1441 7.57816 11.1608 7.45487 11.2009 7.33833C11.2409 7.22179 11.3036 7.11429 11.3852 7.02195L11.6469 6.72664L11.6852 6.68523C12.3407 6.02956 13.176 5.58303 14.0854 5.40211C14.9947 5.2212 15.9373 5.31403 16.7939 5.66886C17.6505 6.02369 18.3827 6.62459 18.8977 7.39555C19.4128 8.1665 19.6876 9.07289 19.6875 10.0001Z" fill="#191F2E"/>
</svg>
