<svg width="20" height="20" viewBox="0 0 20 20" fill="none" xmlns="http://www.w3.org/2000/svg">
<path d="M16.875 3.125H3.125C2.79348 3.125 2.47554 3.2567 2.24112 3.49112C2.0067 3.72554 1.875 4.04348 1.875 4.375V15.625C1.875 15.9565 2.0067 16.2745 2.24112 16.5089C2.47554 16.7433 2.79348 16.875 3.125 16.875H16.875C17.2065 16.875 17.5245 16.7433 17.7589 16.5089C17.9933 16.2745 18.125 15.9565 18.125 15.625V4.375C18.125 4.04348 17.9933 3.72554 17.7589 3.49112C17.5245 3.2567 17.2065 3.125 16.875 3.125ZM15.9594 12.2094C15.3756 12.7932 14.5846 13.1223 13.759 13.1247C12.9334 13.1272 12.1404 12.8029 11.5531 12.2227L7.60078 8.69844L7.57812 8.67188C7.31564 8.4103 6.98154 8.23237 6.618 8.16055C6.25447 8.08873 5.8778 8.12624 5.53557 8.26835C5.19334 8.41045 4.90089 8.65078 4.69515 8.95898C4.48941 9.26718 4.3796 9.62944 4.3796 10C4.3796 10.3706 4.48941 10.7328 4.69515 11.041C4.90089 11.3492 5.19334 11.5895 5.53557 11.7317C5.8778 11.8738 6.25447 11.9113 6.618 11.8394C6.98154 11.7676 7.31564 11.5897 7.57812 11.3281C7.60625 11.3 7.63359 11.2711 7.65625 11.2422C7.71063 11.1806 7.77659 11.1304 7.85039 11.0943C7.92418 11.0583 8.00435 11.0371 8.08633 11.032C8.16831 11.0269 8.25048 11.038 8.32816 11.0647C8.40584 11.0914 8.47751 11.1331 8.53906 11.1875C8.60062 11.2419 8.65086 11.3078 8.68693 11.3816C8.72299 11.4554 8.74416 11.5356 8.74924 11.6176C8.75432 11.6996 8.7432 11.7817 8.71652 11.8594C8.68984 11.9371 8.64813 12.0088 8.59375 12.0703C8.55078 12.1187 8.50547 12.1664 8.46016 12.2117C8.02371 12.6483 7.46775 12.9458 6.86241 13.0667C6.25707 13.1877 5.62947 13.1266 5.05879 12.8913C4.4881 12.656 3.9999 12.2569 3.65578 11.7444C3.31165 11.2319 3.12702 10.629 3.12517 10.0117C3.12332 9.39437 3.30433 8.79035 3.64538 8.27581C3.98643 7.76127 4.47223 7.35926 5.04149 7.12051C5.61076 6.88175 6.23798 6.81694 6.84404 6.93426C7.45009 7.05157 8.00782 7.34575 8.44688 7.77969L12.3984 11.3039L12.4242 11.3281C12.6869 11.5895 13.0212 11.7671 13.3848 11.8386C13.7484 11.9101 14.125 11.8723 14.4671 11.7298C14.8092 11.5874 15.1015 11.3469 15.3069 11.0385C15.5124 10.7301 15.6219 10.3677 15.6216 9.99718C15.6212 9.62662 15.5111 9.26446 15.3051 8.95644C15.0991 8.64842 14.8064 8.40835 14.4641 8.26655C14.1217 8.12474 13.745 8.08757 13.3815 8.15971C13.0181 8.23185 12.6841 8.41007 12.4219 8.67188C12.3938 8.7 12.3672 8.72813 12.3438 8.75781C12.234 8.88213 12.0794 8.95778 11.9139 8.96811C11.7485 8.97844 11.5856 8.9226 11.4613 8.81289C11.337 8.70318 11.2614 8.54857 11.251 8.38309C11.2407 8.2176 11.2965 8.05479 11.4062 7.93047C11.4484 7.88203 11.4938 7.83359 11.5398 7.78828C12.128 7.21301 12.9194 6.8929 13.7421 6.89743C14.5648 6.90196 15.3526 7.23077 15.9344 7.81248C16.5162 8.3942 16.8452 9.18189 16.8498 10.0046C16.8545 10.8274 16.5345 11.6187 15.9594 12.207V12.2094Z" fill="#191F2E"/>
</svg>
