<svg width="20" height="20" viewBox="0 0 20 20" fill="none" xmlns="http://www.w3.org/2000/svg">
<path d="M10 6.25C9.25832 6.25 8.5333 6.46993 7.91661 6.88199C7.29993 7.29404 6.81928 7.87971 6.53545 8.56494C6.25162 9.25016 6.17736 10.0042 6.32206 10.7316C6.46675 11.459 6.8239 12.1272 7.34835 12.6517C7.8728 13.1761 8.54098 13.5333 9.26841 13.6779C9.99584 13.8226 10.7498 13.7484 11.4351 13.4645C12.1203 13.1807 12.706 12.7001 13.118 12.0834C13.5301 11.4667 13.75 10.7417 13.75 10C13.749 9.00576 13.3535 8.05253 12.6505 7.34949C11.9475 6.64645 10.9942 6.25103 10 6.25ZM10 11.875C9.62916 11.875 9.26665 11.765 8.95831 11.559C8.64996 11.353 8.40964 11.0601 8.26773 10.7175C8.12581 10.3749 8.08868 9.99792 8.16103 9.63421C8.23337 9.27049 8.41195 8.9364 8.67417 8.67417C8.9364 8.41195 9.27049 8.23337 9.63421 8.16103C9.99792 8.08868 10.3749 8.12581 10.7175 8.26773C11.0601 8.40964 11.353 8.64996 11.559 8.95831C11.765 9.26665 11.875 9.62916 11.875 10C11.875 10.4973 11.6775 10.9742 11.3258 11.3258C10.9742 11.6775 10.4973 11.875 10 11.875ZM13.75 1.5625H6.25C5.00724 1.56395 3.8158 2.05827 2.93704 2.93704C2.05827 3.8158 1.56395 5.00724 1.5625 6.25V13.75C1.56395 14.9928 2.05827 16.1842 2.93704 17.063C3.8158 17.9417 5.00724 18.4361 6.25 18.4375H13.75C14.9928 18.4361 16.1842 17.9417 17.063 17.063C17.9417 16.1842 18.4361 14.9928 18.4375 13.75V6.25C18.4361 5.00724 17.9417 3.8158 17.063 2.93704C16.1842 2.05827 14.9928 1.56395 13.75 1.5625ZM16.5625 13.75C16.5625 14.4959 16.2662 15.2113 15.7387 15.7387C15.2113 16.2662 14.4959 16.5625 13.75 16.5625H6.25C5.50408 16.5625 4.78871 16.2662 4.26126 15.7387C3.73382 15.2113 3.4375 14.4959 3.4375 13.75V6.25C3.4375 5.50408 3.73382 4.78871 4.26126 4.26126C4.78871 3.73382 5.50408 3.4375 6.25 3.4375H13.75C14.4959 3.4375 15.2113 3.73382 15.7387 4.26126C16.2662 4.78871 16.5625 5.50408 16.5625 6.25V13.75ZM15.3125 5.9375C15.3125 6.18473 15.2392 6.4264 15.1018 6.63196C14.9645 6.83752 14.7693 6.99774 14.5409 7.09235C14.3124 7.18696 14.0611 7.21171 13.8186 7.16348C13.5762 7.11525 13.3534 6.9962 13.1786 6.82138C13.0038 6.64657 12.8847 6.42384 12.8365 6.18136C12.7883 5.93889 12.813 5.68755 12.9076 5.45915C13.0023 5.23074 13.1625 5.03551 13.368 4.89816C13.5736 4.76081 13.8153 4.6875 14.0625 4.6875C14.394 4.6875 14.712 4.8192 14.9464 5.05362C15.1808 5.28804 15.3125 5.60598 15.3125 5.9375Z" fill="#191F2E"/>
</svg>
