<svg width="20" height="20" viewBox="0 0 20 20" fill="none" xmlns="http://www.w3.org/2000/svg">
<path d="M13.643 6.35708C13.4352 5.23764 12.9255 4.19624 12.169 3.34533C11.4125 2.49442 10.4379 1.86633 9.35046 1.52887C8.26305 1.19141 7.10411 1.15741 5.99878 1.43054C4.89345 1.70366 3.88372 2.27354 3.07863 3.07863C2.27354 3.88372 1.70366 4.89345 1.43054 5.99878C1.15741 7.10411 1.19141 8.26305 1.52887 9.35046C1.86633 10.4379 2.49442 11.4125 3.34533 12.169C4.19624 12.9255 5.23764 13.4352 6.35708 13.643C6.56493 14.7625 7.07463 15.8039 7.83114 16.6548C8.58765 17.5057 9.56222 18.1338 10.6496 18.4712C11.7371 18.8087 12.896 18.8427 14.0013 18.5696C15.1067 18.2964 16.1164 17.7266 16.9215 16.9215C17.7266 16.1164 18.2964 15.1067 18.5696 14.0013C18.8427 12.896 18.8087 11.7371 18.4712 10.6496C18.1338 9.56222 17.5057 8.58765 16.6548 7.83114C15.8039 7.07463 14.7625 6.56493 13.643 6.35708ZM2.50005 7.50005C2.49765 6.28136 2.94043 5.10376 3.74517 4.18855C4.54991 3.27335 5.6612 2.68356 6.87018 2.53004C8.07916 2.37652 9.30259 2.66983 10.3105 3.35486C11.3185 4.03988 12.0415 5.06944 12.3438 6.25005C10.7413 6.29216 9.21608 6.94782 8.0829 8.08172C6.94972 9.21563 6.29504 10.7413 6.25396 12.3438C5.18027 12.066 4.22915 11.4396 3.54978 10.563C2.8704 9.68642 2.50119 8.60911 2.50005 7.50005ZM12.5001 17.5C11.3915 17.4991 10.3146 17.1305 9.43806 16.4519C8.56151 15.7733 7.93486 14.823 7.6563 13.7501C9.2595 13.7089 10.7857 13.0537 11.9197 11.9197C13.0537 10.7857 13.7089 9.2595 13.7501 7.6563C14.9307 7.95857 15.9602 8.68163 16.6452 9.68957C17.3303 10.6975 17.6236 11.9209 17.4701 13.1299C17.3165 14.3389 16.7268 15.4502 15.8115 16.2549C14.8963 17.0597 13.7187 17.5024 12.5001 17.5Z" fill="#191F2E"/>
</svg>
