<svg width="20" height="20" viewBox="0 0 20 20" fill="none" xmlns="http://www.w3.org/2000/svg">
<path d="M16.875 6.5625H13.4375V3.125C13.4375 2.87636 13.3387 2.6379 13.1629 2.46209C12.9871 2.28627 12.7486 2.1875 12.5 2.1875H3.125C2.87636 2.1875 2.6379 2.28627 2.46209 2.46209C2.28627 2.6379 2.1875 2.87636 2.1875 3.125V12.5C2.1875 12.7486 2.28627 12.9871 2.46209 13.1629C2.6379 13.3387 2.87636 13.4375 3.125 13.4375H6.5625V16.875C6.5625 17.1236 6.66127 17.3621 6.83709 17.5379C7.0129 17.7137 7.25136 17.8125 7.5 17.8125H16.875C17.1236 17.8125 17.3621 17.7137 17.5379 17.5379C17.7137 17.3621 17.8125 17.1236 17.8125 16.875V7.5C17.8125 7.25136 17.7137 7.0129 17.5379 6.83709C17.3621 6.66127 17.1236 6.5625 16.875 6.5625ZM4.0625 11.5625V4.0625H11.5625V6.5625H7.5C7.25136 6.5625 7.0129 6.66127 6.83709 6.83709C6.66127 7.0129 6.5625 7.25136 6.5625 7.5V11.5625H4.0625ZM8.4375 9.76562L10.2344 11.5625H8.4375V9.76562ZM11.5625 10.2344L9.76562 8.4375H11.5625V10.2344ZM15.9375 15.9375H8.4375V13.4375H12.5C12.7486 13.4375 12.9871 13.3387 13.1629 13.1629C13.3387 12.9871 13.4375 12.7486 13.4375 12.5V8.4375H15.9375V15.9375Z" fill="#191F2E"/>
</svg>
