<svg width="20" height="20" viewBox="0 0 20 20" fill="none" xmlns="http://www.w3.org/2000/svg">
<path d="M13.9062 6.09375C13.6547 4.94302 13.0981 3.8812 12.2948 3.01971C11.4915 2.15822 10.4712 1.52881 9.34084 1.19752C8.21049 0.866235 7.01181 0.845286 5.87058 1.13687C4.72934 1.42846 3.68763 2.02183 2.85473 2.85473C2.02183 3.68763 1.42846 4.72934 1.13687 5.87058C0.845286 7.01181 0.866235 8.21049 1.19752 9.34084C1.52881 10.4712 2.15822 11.4915 3.01971 12.2948C3.8812 13.0981 4.94302 13.6547 6.09375 13.9062C6.34528 15.057 6.90189 16.1188 7.70517 16.9803C8.50846 17.8418 9.5288 18.4712 10.6592 18.8025C11.7895 19.1338 12.9882 19.1547 14.1294 18.8631C15.2706 18.5715 16.3124 17.9782 17.1453 17.1453C17.9782 16.3124 18.5715 15.2706 18.8631 14.1294C19.1547 12.9882 19.1338 11.7895 18.8025 10.6592C18.4712 9.5288 17.8418 8.50846 16.9803 7.70517C16.1188 6.90189 15.057 6.34528 13.9062 6.09375ZM12.1727 7.82734C12.1176 8.63373 11.8534 9.41187 11.4062 10.0852L9.91718 8.59375C10.5902 8.14572 11.3684 7.88077 12.175 7.825L12.1727 7.82734ZM5.96171 11.9297C5.21104 11.6697 4.53874 11.2233 4.00795 10.6322C3.47716 10.0412 3.1053 9.32491 2.92727 8.55071C2.74924 7.7765 2.7709 6.96976 2.9902 6.20622C3.2095 5.44268 3.61925 4.7474 4.18098 4.18567C4.74271 3.62394 5.43799 3.21419 6.20153 2.99488C6.96507 2.77558 7.77182 2.75393 8.54602 2.93196C9.32022 3.10998 10.0365 3.48185 10.6275 4.01264C11.2186 4.54343 11.6651 5.21573 11.925 5.9664C10.3902 6.10338 8.95228 6.77541 7.86267 7.86502C6.77306 8.95462 6.10104 10.3925 5.96406 11.9273L5.96171 11.9297ZM7.82265 12.1773C7.87772 11.371 8.14186 10.5928 8.58906 9.91953L10.0828 11.4062C9.40976 11.8543 8.6316 12.1192 7.825 12.175L7.82265 12.1773ZM12.5 17.1875C11.5263 17.1862 10.5772 16.8821 9.78393 16.3175C8.9907 15.7528 8.39267 14.9555 8.07265 14.0359C9.60827 13.8994 11.047 13.2273 12.1371 12.1371C13.2273 11.047 13.8994 9.60827 14.0359 8.07265C15.0819 8.43647 15.9654 9.1589 16.5296 10.1119C17.0938 11.0648 17.3024 12.1868 17.1184 13.2789C16.9343 14.371 16.3696 15.3626 15.5242 16.0781C14.6789 16.7935 13.6075 17.1866 12.5 17.1875Z" fill="#191F2E"/>
</svg>
