<svg width="20" height="20" viewBox="0 0 20 20" fill="none" xmlns="http://www.w3.org/2000/svg">
<path d="M19.3749 8.08359C19.3611 7.9226 19.2867 7.77285 19.1668 7.66454C19.0469 7.55623 18.8904 7.49743 18.7288 7.5H18.0054L17.2796 4.11328C17.2186 3.83403 17.0643 3.58392 16.842 3.40425C16.6197 3.22457 16.3428 3.12607 16.0569 3.125H3.94288C3.65705 3.12607 3.38014 3.22457 3.15785 3.40425C2.93556 3.58392 2.78119 3.83403 2.72022 4.11328L1.99444 7.5H1.271C1.10944 7.49743 0.952916 7.55623 0.833008 7.66454C0.7131 7.77285 0.638732 7.9226 0.624908 8.08359C0.619232 8.16909 0.631194 8.25483 0.660051 8.33551C0.688909 8.41618 0.734046 8.49006 0.792658 8.55255C0.85127 8.61505 0.922106 8.66483 1.00077 8.69879C1.07943 8.73276 1.16423 8.75019 1.24991 8.75H1.87491V16.25C1.87491 16.5815 2.0066 16.8995 2.24102 17.1339C2.47545 17.3683 2.79339 17.5 3.12491 17.5H4.99991C5.33143 17.5 5.64937 17.3683 5.88379 17.1339C6.11821 16.8995 6.24991 16.5815 6.24991 16.25V14.375H7.81241C7.89529 14.375 7.97477 14.3421 8.03338 14.2835C8.09198 14.2249 8.12491 14.1454 8.12491 14.0625V10.6461C8.12274 10.4848 8.18172 10.3287 8.28999 10.2091C8.39826 10.0895 8.54779 10.0154 8.7085 10.0016C8.79399 9.99589 8.87974 10.0078 8.96041 10.0367C9.04109 10.0656 9.11497 10.1107 9.17746 10.1693C9.23996 10.2279 9.28973 10.2988 9.3237 10.3774C9.35767 10.4561 9.3751 10.5409 9.37491 10.6266V14.0641C9.37491 14.1469 9.40783 14.2264 9.46644 14.285C9.52504 14.3436 9.60453 14.3766 9.68741 14.3766H10.3124C10.3953 14.3766 10.4748 14.3436 10.5334 14.285C10.592 14.2264 10.6249 14.1469 10.6249 14.0641V10.6461C10.6227 10.4848 10.6817 10.3287 10.79 10.2091C10.8983 10.0895 11.0478 10.0154 11.2085 10.0016C11.294 9.99589 11.3797 10.0078 11.4604 10.0367C11.5411 10.0656 11.615 10.1107 11.6775 10.1693C11.74 10.2279 11.7897 10.2988 11.8237 10.3774C11.8577 10.4561 11.8751 10.5409 11.8749 10.6266V14.0641C11.8749 14.1469 11.9078 14.2264 11.9664 14.285C12.025 14.3436 12.1045 14.3766 12.1874 14.3766H13.7499V16.2516C13.7499 16.5831 13.8816 16.901 14.116 17.1354C14.3504 17.3699 14.6684 17.5016 14.9999 17.5016H16.8749C17.2064 17.5016 17.5244 17.3699 17.7588 17.1354C17.9932 16.901 18.1249 16.5831 18.1249 16.2516V8.75H18.7499C18.8356 8.75019 18.9204 8.73276 18.9991 8.69879C19.0777 8.66483 19.1485 8.61505 19.2072 8.55255C19.2658 8.49006 19.3109 8.41618 19.3398 8.33551C19.3686 8.25483 19.3806 8.16909 19.3749 8.08359ZM5.31241 11.875C5.12699 11.875 4.94573 11.82 4.79156 11.717C4.63739 11.614 4.51723 11.4676 4.44627 11.2963C4.37531 11.125 4.35675 10.9365 4.39292 10.7546C4.4291 10.5727 4.51838 10.4057 4.6495 10.2746C4.78061 10.1435 4.94765 10.0542 5.12951 10.018C5.31137 9.98184 5.49987 10.0004 5.67117 10.0714C5.84248 10.1423 5.9889 10.2625 6.09191 10.4167C6.19493 10.5708 6.24991 10.7521 6.24991 10.9375C6.24991 11.1861 6.15114 11.4246 5.97532 11.6004C5.79951 11.7762 5.56105 11.875 5.31241 11.875ZM14.6874 11.875C14.502 11.875 14.3207 11.82 14.1666 11.717C14.0124 11.614 13.8922 11.4676 13.8213 11.2963C13.7503 11.125 13.7317 10.9365 13.7679 10.7546C13.8041 10.5727 13.8934 10.4057 14.0245 10.2746C14.1556 10.1435 14.3227 10.0542 14.5045 10.018C14.6864 9.98184 14.8749 10.0004 15.0462 10.0714C15.2175 10.1423 15.3639 10.2625 15.4669 10.4167C15.5699 10.5708 15.6249 10.7521 15.6249 10.9375C15.6249 11.1861 15.5261 11.4246 15.3503 11.6004C15.1745 11.7762 14.936 11.875 14.6874 11.875Z" fill="#191F2E"/>
</svg>
