<svg width="20" height="20" viewBox="0 0 20 20" fill="none" xmlns="http://www.w3.org/2000/svg">
<path d="M18.75 7.1875H18.2578L17.5852 4.04766C17.5088 3.69873 17.3158 3.38625 17.038 3.16171C16.7602 2.93718 16.4142 2.81401 16.057 2.8125H3.94297C3.58579 2.81401 3.23978 2.93718 2.96199 3.16171C2.6842 3.38625 2.49122 3.69873 2.41484 4.04766L1.74219 7.1875H1.25C1.00136 7.1875 0.762903 7.28627 0.587087 7.46209C0.411272 7.6379 0.3125 7.87636 0.3125 8.125C0.3125 8.37364 0.411272 8.6121 0.587087 8.78791C0.762903 8.96373 1.00136 9.0625 1.25 9.0625H1.5625V16.25C1.5625 16.6644 1.72712 17.0618 2.02015 17.3549C2.31317 17.6479 2.7106 17.8125 3.125 17.8125H5C5.4144 17.8125 5.81183 17.6479 6.10485 17.3549C6.39788 17.0618 6.5625 16.6644 6.5625 16.25V14.6875H13.4375V16.25C13.4375 16.6644 13.6021 17.0618 13.8951 17.3549C14.1882 17.6479 14.5856 17.8125 15 17.8125H16.875C17.2894 17.8125 17.6868 17.6479 17.9799 17.3549C18.2729 17.0618 18.4375 16.6644 18.4375 16.25V9.0625H18.75C18.9986 9.0625 19.2371 8.96373 19.4129 8.78791C19.5887 8.6121 19.6875 8.37364 19.6875 8.125C19.6875 7.87636 19.5887 7.6379 19.4129 7.46209C19.2371 7.28627 18.9986 7.1875 18.75 7.1875ZM4.19531 4.6875H15.8047L16.3406 7.1875H3.65937L4.19531 4.6875ZM4.6875 15.9375H3.4375V14.6875H4.6875V15.9375ZM15.3125 15.9375V14.6875H16.5625V15.9375H15.3125ZM16.5625 12.8125H14.0625V10.9375C14.0625 10.6889 13.9637 10.4504 13.7879 10.2746C13.6121 10.0988 13.3736 10 13.125 10C12.8764 10 12.6379 10.0988 12.4621 10.2746C12.2863 10.4504 12.1875 10.6889 12.1875 10.9375V12.8125H10.9375V10.9375C10.9375 10.6889 10.8387 10.4504 10.6629 10.2746C10.4871 10.0988 10.2486 10 10 10C9.75136 10 9.5129 10.0988 9.33709 10.2746C9.16127 10.4504 9.0625 10.6889 9.0625 10.9375V12.8125H7.8125V10.9375C7.8125 10.6889 7.71373 10.4504 7.53791 10.2746C7.3621 10.0988 7.12364 10 6.875 10C6.62636 10 6.3879 10.0988 6.21209 10.2746C6.03627 10.4504 5.9375 10.6889 5.9375 10.9375V12.8125H3.4375V9.0625H16.5625V12.8125Z" fill="#191F2E"/>
</svg>
