<svg width="20" height="20" viewBox="0 0 20 20" fill="none" xmlns="http://www.w3.org/2000/svg">
<path d="M18.75 7.5H18.0055L17.2797 4.11328C17.2187 3.83403 17.0643 3.58392 16.8421 3.40425C16.6198 3.22457 16.3429 3.12607 16.057 3.125H3.94297C3.65714 3.12607 3.38023 3.22457 3.15794 3.40425C2.93565 3.58392 2.78128 3.83403 2.72031 4.11328L1.99453 7.5H1.25C1.08424 7.5 0.925268 7.56585 0.808058 7.68306C0.690848 7.80027 0.625 7.95924 0.625 8.125C0.625 8.29076 0.690848 8.44973 0.808058 8.56694C0.925268 8.68415 1.08424 8.75 1.25 8.75H1.875V16.25C1.875 16.5815 2.0067 16.8995 2.24112 17.1339C2.47554 17.3683 2.79348 17.5 3.125 17.5H5C5.33152 17.5 5.64946 17.3683 5.88388 17.1339C6.1183 16.8995 6.25 16.5815 6.25 16.25V14.375H13.75V16.25C13.75 16.5815 13.8817 16.8995 14.1161 17.1339C14.3505 17.3683 14.6685 17.5 15 17.5H16.875C17.2065 17.5 17.5245 17.3683 17.7589 17.1339C17.9933 16.8995 18.125 16.5815 18.125 16.25V8.75H18.75C18.9158 8.75 19.0747 8.68415 19.1919 8.56694C19.3092 8.44973 19.375 8.29076 19.375 8.125C19.375 7.95924 19.3092 7.80027 19.1919 7.68306C19.0747 7.56585 18.9158 7.5 18.75 7.5ZM3.94297 4.375H16.057L16.7266 7.5H3.27344L3.94297 4.375ZM5 16.25H3.125V14.375H5V16.25ZM15 16.25V14.375H16.875V16.25H15ZM16.875 13.125H11.875V10.625C11.875 10.4592 11.8092 10.3003 11.6919 10.1831C11.5747 10.0658 11.4158 10 11.25 10C11.0842 10 10.9253 10.0658 10.8081 10.1831C10.6908 10.3003 10.625 10.4592 10.625 10.625V13.125H9.375V10.625C9.375 10.4592 9.30915 10.3003 9.19194 10.1831C9.07473 10.0658 8.91576 10 8.75 10C8.58424 10 8.42527 10.0658 8.30806 10.1831C8.19085 10.3003 8.125 10.4592 8.125 10.625V13.125H3.125V8.75H16.875V13.125ZM4.375 10.9375C4.375 10.7521 4.42998 10.5708 4.533 10.4167C4.63601 10.2625 4.78243 10.1423 4.95373 10.0714C5.12504 10.0004 5.31354 9.98184 5.4954 10.018C5.67725 10.0542 5.8443 10.1435 5.97541 10.2746C6.10652 10.4057 6.19581 10.5727 6.23199 10.7546C6.26816 10.9365 6.24959 11.125 6.17864 11.2963C6.10768 11.4676 5.98752 11.614 5.83335 11.717C5.67918 11.82 5.49792 11.875 5.3125 11.875C5.06386 11.875 4.8254 11.7762 4.64959 11.6004C4.47377 11.4246 4.375 11.1861 4.375 10.9375ZM13.75 10.9375C13.75 10.7521 13.805 10.5708 13.908 10.4167C14.011 10.2625 14.1574 10.1423 14.3287 10.0714C14.5 10.0004 14.6885 9.98184 14.8704 10.018C15.0523 10.0542 15.2193 10.1435 15.3504 10.2746C15.4815 10.4057 15.5708 10.5727 15.607 10.7546C15.6432 10.9365 15.6246 11.125 15.5536 11.2963C15.4827 11.4676 15.3625 11.614 15.2083 11.717C15.0542 11.82 14.8729 11.875 14.6875 11.875C14.4389 11.875 14.2004 11.7762 14.0246 11.6004C13.8488 11.4246 13.75 11.1861 13.75 10.9375Z" fill="#191F2E"/>
</svg>
