<svg width="20" height="20" viewBox="0 0 20 20" fill="none" xmlns="http://www.w3.org/2000/svg">
<path d="M16.875 3.4375H3.125C2.87636 3.4375 2.6379 3.53627 2.46209 3.71209C2.28627 3.8879 2.1875 4.12636 2.1875 4.375V16.25C2.1875 16.6644 2.35212 17.0618 2.64515 17.3549C2.93817 17.6479 3.3356 17.8125 3.75 17.8125H6.875C7.2894 17.8125 7.68683 17.6479 7.97985 17.3549C8.27288 17.0618 8.4375 16.6644 8.4375 16.25V12.8125H11.5625V13.75C11.5625 14.1644 11.7271 14.5618 12.0201 14.8549C12.3132 15.1479 12.7106 15.3125 13.125 15.3125H16.25C16.6644 15.3125 17.0618 15.1479 17.3549 14.8549C17.6479 14.5618 17.8125 14.1644 17.8125 13.75V4.375C17.8125 4.12636 17.7137 3.8879 17.5379 3.71209C17.3621 3.53627 17.1236 3.4375 16.875 3.4375ZM15.9375 8.4375H13.4375V5.3125H15.9375V8.4375ZM6.5625 5.3125V8.4375H4.0625V5.3125H6.5625ZM6.5625 15.9375H4.0625V10.3125H6.5625V15.9375ZM8.4375 10.9375V5.3125H11.5625V10.9375H8.4375ZM13.4375 13.4375V10.3125H15.9375V13.4375H13.4375Z" fill="#191F2E"/>
</svg>
