<svg width="20" height="20" viewBox="0 0 20 20" fill="none" xmlns="http://www.w3.org/2000/svg">
<path d="M12.5 1.25C11.5135 1.25088 10.5412 1.48506 9.66254 1.93341C8.78384 2.38175 8.02363 3.03156 7.44398 3.82977C6.86433 4.62798 6.48167 5.55196 6.32725 6.52627C6.17284 7.50059 6.25104 8.49761 6.55547 9.43594L2.05781 13.9328C1.99979 13.9909 1.95378 14.0598 1.92241 14.1357C1.89105 14.2116 1.87494 14.2929 1.875 14.375V17.5C1.875 17.6658 1.94085 17.8247 2.05806 17.9419C2.17527 18.0592 2.33424 18.125 2.5 18.125H5.625C5.79076 18.125 5.94973 18.0592 6.06694 17.9419C6.18415 17.8247 6.25 17.6658 6.25 17.5V16.25H7.5C7.66576 16.25 7.82473 16.1842 7.94194 16.0669C8.05915 15.9497 8.125 15.7908 8.125 15.625V14.375H9.375C9.4571 14.3751 9.53841 14.359 9.61428 14.3276C9.69015 14.2962 9.7591 14.2502 9.81719 14.1922L10.5641 13.4445C11.4231 13.7234 12.3323 13.8128 13.2292 13.7066C14.1261 13.6004 14.9893 13.3011 15.7593 12.8292C16.5294 12.3574 17.1881 11.7243 17.69 10.9734C18.192 10.2226 18.5252 9.37191 18.6668 8.47994C18.8084 7.58797 18.755 6.6759 18.5103 5.80655C18.2656 4.93719 17.8354 4.13119 17.2493 3.44405C16.6632 2.75691 15.9351 2.20496 15.1153 1.8262C14.2954 1.44743 13.4031 1.25085 12.5 1.25ZM14.0625 7.1875C13.8153 7.1875 13.5736 7.11419 13.368 6.97684C13.1625 6.83949 13.0023 6.64426 12.9076 6.41585C12.813 6.18745 12.7883 5.93611 12.8365 5.69364C12.8847 5.45116 13.0038 5.22843 13.1786 5.05362C13.3534 4.8788 13.5762 4.75975 13.8186 4.71152C14.0611 4.66329 14.3124 4.68804 14.5409 4.78265C14.7693 4.87726 14.9645 5.03748 15.1018 5.24304C15.2392 5.4486 15.3125 5.69027 15.3125 5.9375C15.3125 6.26902 15.1808 6.58696 14.9464 6.82138C14.712 7.0558 14.394 7.1875 14.0625 7.1875Z" fill="#191F2E"/>
</svg>
