<svg width="20" height="20" viewBox="0 0 20 20" fill="none" xmlns="http://www.w3.org/2000/svg">
<path d="M12.5 0.9375C11.4805 0.938091 10.4751 1.17608 9.56347 1.63261C8.65186 2.08914 7.85908 2.75168 7.24793 3.56773C6.63678 4.38379 6.22405 5.33094 6.04243 6.33417C5.86081 7.3374 5.91529 8.36914 6.20156 9.34766L1.83672 13.7117C1.74969 13.7988 1.68067 13.9023 1.63362 14.0161C1.58657 14.1299 1.5624 14.2518 1.5625 14.375V17.5C1.5625 17.7486 1.66127 17.9871 1.83709 18.1629C2.0129 18.3387 2.25136 18.4375 2.5 18.4375H5.625C5.87364 18.4375 6.1121 18.3387 6.28791 18.1629C6.46373 17.9871 6.5625 17.7486 6.5625 17.5V16.5625H7.5C7.74864 16.5625 7.9871 16.4637 8.16291 16.2879C8.33873 16.1121 8.4375 15.8736 8.4375 15.625V14.6875H9.375C9.49815 14.6876 9.62011 14.6634 9.73392 14.6164C9.84773 14.5693 9.95115 14.5003 10.0383 14.4133L10.6523 13.7984C11.5548 14.0625 12.5034 14.1295 13.434 13.995C14.3646 13.8605 15.2554 13.5276 16.0461 13.0188C16.8368 12.5101 17.509 11.8373 18.0171 11.0462C18.5251 10.255 18.8573 9.36391 18.991 8.43321C19.1247 7.50251 19.0569 6.55395 18.792 5.65176C18.5272 4.74956 18.0716 3.91481 17.4561 3.20402C16.8406 2.49323 16.0795 1.92301 15.2245 1.53196C14.3694 1.14092 13.4403 0.93819 12.5 0.9375ZM12.5 12.1875C11.9089 12.1888 11.3229 12.0774 10.7734 11.8594C10.6011 11.7855 10.4106 11.765 10.2265 11.8005C10.0423 11.836 9.87311 11.9259 9.74063 12.0586L8.98438 12.8125H7.5C7.25136 12.8125 7.0129 12.9113 6.83709 13.0871C6.66127 13.2629 6.5625 13.5014 6.5625 13.75V14.6875H5.625C5.37636 14.6875 5.1379 14.7863 4.96209 14.9621C4.78627 15.1379 4.6875 15.3764 4.6875 15.625V16.5625H3.4375V14.7656L7.94141 10.2617C8.07393 10.1293 8.16374 9.9602 8.19925 9.77625C8.23476 9.5923 8.21434 9.40192 8.14062 9.22969C7.77068 8.29788 7.70924 7.27201 7.96531 6.3027C8.22139 5.3334 8.7815 4.47173 9.5634 3.84422C10.3453 3.21671 11.3078 2.85643 12.3095 2.81626C13.3113 2.7761 14.2995 3.05817 15.1292 3.62107C15.9588 4.18397 16.5861 4.99802 16.9189 5.94372C17.2518 6.88941 17.2727 7.91691 16.9785 8.87534C16.6844 9.83378 16.0907 10.6727 15.2846 11.2688C14.4785 11.8649 13.5026 12.1869 12.5 12.1875ZM15.3125 5.9375C15.3125 6.18473 15.2392 6.4264 15.1018 6.63196C14.9645 6.83752 14.7693 6.99774 14.5409 7.09235C14.3124 7.18696 14.0611 7.21171 13.8186 7.16348C13.5762 7.11525 13.3534 6.9962 13.1786 6.82138C13.0038 6.64657 12.8847 6.42384 12.8365 6.18136C12.7883 5.93889 12.813 5.68755 12.9076 5.45915C13.0023 5.23074 13.1625 5.03551 13.368 4.89816C13.5736 4.76081 13.8153 4.6875 14.0625 4.6875C14.394 4.6875 14.712 4.8192 14.9464 5.05362C15.1808 5.28804 15.3125 5.60598 15.3125 5.9375Z" fill="#191F2E"/>
</svg>
