<svg width="20" height="20" viewBox="0 0 20 20" fill="none" xmlns="http://www.w3.org/2000/svg">
<path d="M17.4617 3.4375H2.53984C2.11515 3.4375 1.70782 3.6061 1.40737 3.90626C1.10691 4.20642 0.937914 4.61358 0.9375 5.03828V14.9602C0.9375 15.3849 1.1061 15.7922 1.40626 16.0926C1.70642 16.3931 2.11358 16.5621 2.53828 16.5625H17.4602C17.8849 16.5625 18.2922 16.3939 18.5926 16.0937C18.8931 15.7936 19.0621 15.3864 19.0625 14.9617V5.03984C19.0625 4.61515 18.8939 4.20782 18.5937 3.90737C18.2936 3.60691 17.8864 3.43791 17.4617 3.4375ZM17.1875 14.6875H2.8125V5.3125H17.1875V14.6875ZM4.0625 10C4.0625 9.75136 4.16127 9.5129 4.33709 9.33709C4.5129 9.16127 4.75136 9.0625 5 9.0625H15C15.2486 9.0625 15.4871 9.16127 15.6629 9.33709C15.8387 9.5129 15.9375 9.75136 15.9375 10C15.9375 10.2486 15.8387 10.4871 15.6629 10.6629C15.4871 10.8387 15.2486 10.9375 15 10.9375H5C4.75136 10.9375 4.5129 10.8387 4.33709 10.6629C4.16127 10.4871 4.0625 10.2486 4.0625 10ZM4.0625 7.1875C4.0625 6.93886 4.16127 6.7004 4.33709 6.52459C4.5129 6.34877 4.75136 6.25 5 6.25H15C15.2486 6.25 15.4871 6.34877 15.6629 6.52459C15.8387 6.7004 15.9375 6.93886 15.9375 7.1875C15.9375 7.43614 15.8387 7.6746 15.6629 7.85041C15.4871 8.02623 15.2486 8.125 15 8.125H5C4.75136 8.125 4.5129 8.02623 4.33709 7.85041C4.16127 7.6746 4.0625 7.43614 4.0625 7.1875ZM4.0625 12.8125C4.0625 12.5639 4.16127 12.3254 4.33709 12.1496C4.5129 11.9738 4.75136 11.875 5 11.875H5.625C5.87364 11.875 6.1121 11.9738 6.28791 12.1496C6.46373 12.3254 6.5625 12.5639 6.5625 12.8125C6.5625 13.0611 6.46373 13.2996 6.28791 13.4754C6.1121 13.6512 5.87364 13.75 5.625 13.75H5C4.75136 13.75 4.5129 13.6512 4.33709 13.4754C4.16127 13.2996 4.0625 13.0611 4.0625 12.8125ZM12.5 12.8125C12.5 13.0611 12.4012 13.2996 12.2254 13.4754C12.0496 13.6512 11.8111 13.75 11.5625 13.75H8.4375C8.18886 13.75 7.9504 13.6512 7.77459 13.4754C7.59877 13.2996 7.5 13.0611 7.5 12.8125C7.5 12.5639 7.59877 12.3254 7.77459 12.1496C7.9504 11.9738 8.18886 11.875 8.4375 11.875H11.5625C11.8111 11.875 12.0496 11.9738 12.2254 12.1496C12.4012 12.3254 12.5 12.5639 12.5 12.8125ZM15.9375 12.8125C15.9375 13.0611 15.8387 13.2996 15.6629 13.4754C15.4871 13.6512 15.2486 13.75 15 13.75H14.375C14.1264 13.75 13.8879 13.6512 13.7121 13.4754C13.5363 13.2996 13.4375 13.0611 13.4375 12.8125C13.4375 12.5639 13.5363 12.3254 13.7121 12.1496C13.8879 11.9738 14.1264 11.875 14.375 11.875H15C15.2486 11.875 15.4871 11.9738 15.6629 12.1496C15.8387 12.3254 15.9375 12.5639 15.9375 12.8125Z" fill="#191F2E"/>
</svg>
