<svg width="20" height="20" viewBox="0 0 20 20" fill="none" xmlns="http://www.w3.org/2000/svg">
<path d="M10 1.875C8.39303 1.875 6.82214 2.35152 5.486 3.24431C4.14985 4.1371 3.10844 5.40605 2.49348 6.8907C1.87852 8.37535 1.71762 10.009 2.03112 11.5851C2.34463 13.1612 3.11846 14.6089 4.25476 15.7452C5.39106 16.8815 6.8388 17.6554 8.4149 17.9689C9.99099 18.2824 11.6247 18.1215 13.1093 17.5065C14.594 16.8916 15.8629 15.8502 16.7557 14.514C17.6485 13.1779 18.125 11.607 18.125 10C18.1227 7.84581 17.266 5.78051 15.7427 4.25727C14.2195 2.73403 12.1542 1.87727 10 1.875ZM10 16.875C8.64026 16.875 7.31105 16.4718 6.18046 15.7164C5.04987 14.9609 4.16868 13.8872 3.64833 12.6309C3.12798 11.3747 2.99183 9.99237 3.2571 8.65875C3.52238 7.32513 4.17716 6.10013 5.13864 5.13864C6.10013 4.17716 7.32514 3.52237 8.65876 3.2571C9.99238 2.99183 11.3747 3.12798 12.631 3.64833C13.8872 4.16868 14.9609 5.04987 15.7164 6.18045C16.4718 7.31104 16.875 8.64025 16.875 10C16.8729 11.8227 16.1479 13.5702 14.8591 14.8591C13.5702 16.1479 11.8227 16.8729 10 16.875ZM11.7641 10.625L12.7453 13.0898C12.8021 13.2321 12.8232 13.386 12.8067 13.5383C12.7903 13.6905 12.7368 13.8364 12.6509 13.9632C12.565 14.09 12.4494 14.1938 12.3142 14.2656C12.1789 14.3374 12.0281 14.3749 11.875 14.375H8.125C7.97197 14.3749 7.82129 14.3373 7.68612 14.2656C7.55095 14.1938 7.4354 14.0901 7.34956 13.9634C7.26371 13.8367 7.21018 13.6909 7.19365 13.5388C7.17711 13.3867 7.19807 13.2328 7.25469 13.0906L8.23594 10.625C7.78264 10.2599 7.45376 9.76325 7.29465 9.20341C7.13553 8.64357 7.15402 8.04815 7.34756 7.49926C7.5411 6.95036 7.90016 6.47503 8.37523 6.1388C8.85031 5.80257 9.41799 5.62201 10 5.62201C10.582 5.62201 11.1497 5.80257 11.6248 6.1388C12.0998 6.47503 12.4589 6.95036 12.6524 7.49926C12.846 8.04815 12.8645 8.64357 12.7054 9.20341C12.5462 9.76325 12.2174 10.2599 11.7641 10.625Z" fill="#191F2E"/>
</svg>
