<svg width="20" height="20" viewBox="0 0 20 20" fill="none" xmlns="http://www.w3.org/2000/svg">
<path d="M10 1.5625C8.33122 1.5625 6.69992 2.05735 5.31238 2.98448C3.92484 3.9116 2.84338 5.22936 2.20477 6.77111C1.56616 8.31286 1.39907 10.0094 1.72463 11.6461C2.05019 13.2828 2.85379 14.7862 4.03379 15.9662C5.2138 17.1462 6.71721 17.9498 8.35393 18.2754C9.99064 18.6009 11.6871 18.4338 13.2289 17.7952C14.7706 17.1566 16.0884 16.0752 17.0155 14.6876C17.9427 13.3001 18.4375 11.6688 18.4375 10C18.435 7.763 17.5453 5.61833 15.9635 4.03653C14.3817 2.45473 12.237 1.56498 10 1.5625ZM10 16.5625C8.70206 16.5625 7.43327 16.1776 6.35407 15.4565C5.27488 14.7354 4.43374 13.7105 3.93704 12.5114C3.44034 11.3122 3.31038 9.99272 3.5636 8.71972C3.81682 7.44672 4.44183 6.27739 5.35962 5.35961C6.2774 4.44183 7.44672 3.81681 8.71972 3.5636C9.99272 3.31038 11.3122 3.44034 12.5114 3.93704C13.7105 4.43374 14.7354 5.27487 15.4565 6.35407C16.1776 7.43327 16.5625 8.70206 16.5625 10C16.5606 11.7399 15.8686 13.408 14.6383 14.6383C13.408 15.8686 11.7399 16.5606 10 16.5625ZM10 5.3125C9.33803 5.31265 8.69018 5.50393 8.13428 5.86337C7.57839 6.22281 7.13811 6.73512 6.86633 7.33873C6.59456 7.94234 6.50285 8.61159 6.60223 9.26607C6.70162 9.92054 6.98786 10.5324 7.42657 11.0281L6.65157 12.975C6.57605 13.1646 6.54812 13.3698 6.57019 13.5727C6.59226 13.7756 6.66368 13.97 6.7782 14.1389C6.89272 14.3078 7.04686 14.4462 7.22715 14.5418C7.40745 14.6374 7.60842 14.6874 7.8125 14.6875H12.1875C12.3916 14.6874 12.5926 14.6374 12.7729 14.5418C12.9532 14.4462 13.1073 14.3078 13.2218 14.1389C13.3363 13.97 13.4077 13.7756 13.4298 13.5727C13.4519 13.3698 13.424 13.1646 13.3484 12.975L12.5734 11.0281C13.0122 10.5324 13.2984 9.92054 13.3978 9.26607C13.4972 8.61159 13.4054 7.94234 13.1337 7.33873C12.8619 6.73512 12.4216 6.22281 11.8657 5.86337C11.3098 5.50393 10.662 5.31265 10 5.3125ZM10.593 11.1234L11.2656 12.8125H8.73438L9.40703 11.1234C9.48425 10.9296 9.49459 10.7156 9.43643 10.5152C9.37827 10.3148 9.25493 10.1396 9.08594 10.0172C8.81795 9.82389 8.61815 9.55061 8.51523 9.23662C8.41231 8.92263 8.41158 8.58409 8.51315 8.26966C8.61472 7.95524 8.81335 7.6811 9.0805 7.48665C9.34766 7.2922 9.66958 7.18745 10 7.18745C10.3304 7.18745 10.6524 7.2922 10.9195 7.48665C11.1867 7.6811 11.3853 7.95524 11.4869 8.26966C11.5884 8.58409 11.5877 8.92263 11.4848 9.23662C11.3819 9.55061 11.1821 9.82389 10.9141 10.0172C10.7451 10.1396 10.6217 10.3148 10.5636 10.5152C10.5054 10.7156 10.5158 10.9296 10.593 11.1234Z" fill="#191F2E"/>
</svg>
