<svg width="20" height="20" viewBox="0 0 20 20" fill="none" xmlns="http://www.w3.org/2000/svg">
<path d="M18.3313 2.29453C18.0991 2.06232 17.8235 1.87812 17.5201 1.75245C17.2168 1.62678 16.8916 1.5621 16.5633 1.5621C16.2349 1.5621 15.9098 1.62678 15.6064 1.75245C15.3031 1.87812 15.0275 2.06232 14.7953 2.29453L14.7875 2.30234L1.20391 16.2336C1.08717 16.3526 1.00429 16.5006 0.963798 16.6624C0.923308 16.8241 0.926679 16.9937 0.973562 17.1537C1.02044 17.3137 1.10914 17.4583 1.23052 17.5726C1.35189 17.6868 1.50155 17.7667 1.66407 17.8039C2.58348 18.017 3.52418 18.1247 4.46797 18.125C7.14063 18.125 9.81329 17.257 12.3234 15.5547C14.8461 13.8438 16.3148 11.9031 16.3758 11.8219C16.5115 11.6413 16.5775 11.4178 16.5616 11.1924C16.5457 10.967 16.4489 10.755 16.2891 10.5953L15.0391 9.34531L18.343 5.82344C18.8065 5.35242 19.0654 4.71743 19.0632 4.05657C19.061 3.39572 18.7979 2.76245 18.3313 2.29453ZM11.2219 14.0328C8.80782 15.6586 6.32813 16.3945 3.82813 16.232L11.4531 8.40937L14.3539 11.3125C13.423 12.341 12.3723 13.2542 11.2242 14.0328H11.2219ZM17.0031 4.50625L16.9828 4.52734L13.7102 8.01641L12.7633 7.06562L16.1227 3.61875C16.2403 3.50189 16.3996 3.43657 16.5655 3.43715C16.7313 3.43774 16.8902 3.50418 17.007 3.62187C17.1239 3.73956 17.1892 3.89886 17.1886 4.06471C17.188 4.23056 17.1216 4.38939 17.0039 4.50625H17.0031Z" fill="#191F2E"/>
</svg>
