<svg width="20" height="20" viewBox="0 0 20 20" fill="none" xmlns="http://www.w3.org/2000/svg">
<path d="M18.1102 2.51484C17.9066 2.31123 17.6648 2.14981 17.3987 2.03985C17.1326 1.92989 16.8474 1.87355 16.5594 1.87405C16.2715 1.87456 15.9865 1.93191 15.7208 2.04281C15.455 2.15371 15.2138 2.31598 15.0109 2.52031L1.42735 16.4531C1.34953 16.5325 1.29428 16.6312 1.2673 16.739C1.24032 16.8469 1.24259 16.9599 1.27387 17.0666C1.30516 17.1733 1.36432 17.2697 1.44527 17.3458C1.52622 17.422 1.62602 17.4752 1.73438 17.5C2.63099 17.7078 3.54838 17.8126 4.46876 17.8125C7.07969 17.8125 9.69376 16.9625 12.1508 15.2961C14.6313 13.6141 16.0688 11.7141 16.1289 11.6336C16.2193 11.5132 16.2632 11.3643 16.2526 11.2142C16.2419 11.0641 16.1775 10.9228 16.0711 10.8164L14.607 9.35078L18.1227 5.60078C18.5274 5.18842 18.7531 4.63303 18.7508 4.05524C18.7484 3.47745 18.5182 2.92391 18.1102 2.51484ZM14.7828 11.2992C13.7922 12.4333 12.6604 13.4358 11.4149 14.282C8.72188 16.0984 5.9461 16.8367 3.1461 16.482L11.4508 7.96641L14.7828 11.2992Z" fill="#191F2E"/>
</svg>
