<svg width="20" height="20" viewBox="0 0 20 20" fill="none" xmlns="http://www.w3.org/2000/svg">
<path d="M17.1305 16.5547L13.1852 5.70312L13.7812 4.0625H14.375C14.6236 4.0625 14.8621 3.96373 15.0379 3.78791C15.2137 3.6121 15.3125 3.37364 15.3125 3.125C15.3125 2.87636 15.2137 2.6379 15.0379 2.46209C14.8621 2.28627 14.6236 2.1875 14.375 2.1875H6.87499C6.63503 2.18921 6.40486 2.28287 6.23188 2.4492C6.0589 2.61552 5.95629 2.84184 5.94518 3.08155C5.93406 3.32127 6.01529 3.55611 6.17214 3.73773C6.32898 3.91935 6.5495 4.03391 6.78828 4.05781L2.24453 16.5578C2.15973 16.7913 2.1711 17.049 2.27613 17.2741C2.38116 17.4993 2.57126 17.6735 2.80468 17.7586C2.90743 17.7953 3.01588 17.8136 3.12499 17.8125C3.31748 17.8125 3.5053 17.7533 3.66297 17.6429C3.82063 17.5325 3.94048 17.3762 4.00624 17.1953L4.68749 15.3125H7.69531L7.24374 16.5547C7.15899 16.7883 7.17047 17.046 7.27565 17.2712C7.38084 17.4964 7.57112 17.6705 7.80468 17.7555C7.90722 17.7933 8.01569 17.8126 8.12499 17.8125C8.31748 17.8125 8.5053 17.7533 8.66297 17.6429C8.82063 17.5325 8.94048 17.3762 9.00624 17.1953L10.3727 13.4375H14.0023L15.3687 17.1953C15.4345 17.3762 15.5544 17.5325 15.712 17.6429C15.8697 17.7533 16.0575 17.8125 16.25 17.8125C16.3593 17.8126 16.4677 17.7933 16.5703 17.7555C16.8037 17.6704 16.9938 17.4961 17.0989 17.271C17.2039 17.0458 17.2153 16.7882 17.1305 16.5547ZM9.7414 9.6875H6.73593L7.42187 7.8125H10.4266L9.7414 9.6875ZM11.1047 5.9375H8.09999L8.78203 4.0625H11.7867L11.1047 5.9375ZM5.37265 13.4375L6.05468 11.5625H9.06249L8.38046 13.4375H5.37265ZM11.0547 11.5625L12.1875 8.44609L13.3203 11.5625H11.0547Z" fill="#191F2E"/>
</svg>
