<svg width="20" height="20" viewBox="0 0 20 20" fill="none" xmlns="http://www.w3.org/2000/svg">
<path d="M15 1.875C14.8342 1.875 14.6753 1.94085 14.5581 2.05806C14.4408 2.17527 14.375 2.33424 14.375 2.5V3.125H5.625V2.5C5.625 2.33424 5.55915 2.17527 5.44194 2.05806C5.32473 1.94085 5.16576 1.875 5 1.875C4.83424 1.875 4.67527 1.94085 4.55806 2.05806C4.44085 2.17527 4.375 2.33424 4.375 2.5V17.5C4.375 17.6658 4.44085 17.8247 4.55806 17.9419C4.67527 18.0592 4.83424 18.125 5 18.125C5.16576 18.125 5.32473 18.0592 5.44194 17.9419C5.55915 17.8247 5.625 17.6658 5.625 17.5V16.875H14.375V17.5C14.375 17.6658 14.4408 17.8247 14.5581 17.9419C14.6753 18.0592 14.8342 18.125 15 18.125C15.1658 18.125 15.3247 18.0592 15.4419 17.9419C15.5592 17.8247 15.625 17.6658 15.625 17.5V2.5C15.625 2.33424 15.5592 2.17527 15.4419 2.05806C15.3247 1.94085 15.1658 1.875 15 1.875ZM13.75 14.375H6.25C6.08424 14.375 5.92527 14.3092 5.80806 14.1919C5.69085 14.0747 5.625 13.9158 5.625 13.75C5.625 13.5842 5.69085 13.4253 5.80806 13.3081C5.92527 13.1908 6.08424 13.125 6.25 13.125H13.75C13.9158 13.125 14.0747 13.1908 14.1919 13.3081C14.3092 13.4253 14.375 13.5842 14.375 13.75C14.375 13.9158 14.3092 14.0747 14.1919 14.1919C14.0747 14.3092 13.9158 14.375 13.75 14.375ZM13.75 10.625H6.25C6.08424 10.625 5.92527 10.5592 5.80806 10.4419C5.69085 10.3247 5.625 10.1658 5.625 10C5.625 9.83424 5.69085 9.67527 5.80806 9.55806C5.92527 9.44085 6.08424 9.375 6.25 9.375H13.75C13.9158 9.375 14.0747 9.44085 14.1919 9.55806C14.3092 9.67527 14.375 9.83424 14.375 10C14.375 10.1658 14.3092 10.3247 14.1919 10.4419C14.0747 10.5592 13.9158 10.625 13.75 10.625ZM13.75 6.875H6.25C6.08424 6.875 5.92527 6.80915 5.80806 6.69194C5.69085 6.57473 5.625 6.41576 5.625 6.25C5.625 6.08424 5.69085 5.92527 5.80806 5.80806C5.92527 5.69085 6.08424 5.625 6.25 5.625H13.75C13.9158 5.625 14.0747 5.69085 14.1919 5.80806C14.3092 5.92527 14.375 6.08424 14.375 6.25C14.375 6.41576 14.3092 6.57473 14.1919 6.69194C14.0747 6.80915 13.9158 6.875 13.75 6.875Z" fill="#191F2E"/>
</svg>
