<svg width="20" height="20" viewBox="0 0 20 20" fill="none" xmlns="http://www.w3.org/2000/svg">
<path d="M15 1.5625C14.7514 1.5625 14.5129 1.66127 14.3371 1.83709C14.1613 2.0129 14.0625 2.25136 14.0625 2.5V4.6875H5.9375V2.5C5.9375 2.25136 5.83873 2.0129 5.66291 1.83709C5.4871 1.66127 5.24864 1.5625 5 1.5625C4.75136 1.5625 4.5129 1.66127 4.33709 1.83709C4.16127 2.0129 4.0625 2.25136 4.0625 2.5V17.5C4.0625 17.7486 4.16127 17.9871 4.33709 18.1629C4.5129 18.3387 4.75136 18.4375 5 18.4375C5.24864 18.4375 5.4871 18.3387 5.66291 18.1629C5.83873 17.9871 5.9375 17.7486 5.9375 17.5V15.3125H14.0625V17.5C14.0625 17.7486 14.1613 17.9871 14.3371 18.1629C14.5129 18.3387 14.7514 18.4375 15 18.4375C15.2486 18.4375 15.4871 18.3387 15.6629 18.1629C15.8387 17.9871 15.9375 17.7486 15.9375 17.5V2.5C15.9375 2.25136 15.8387 2.0129 15.6629 1.83709C15.4871 1.66127 15.2486 1.5625 15 1.5625ZM14.0625 6.5625V9.0625H5.9375V6.5625H14.0625ZM5.9375 13.4375V10.9375H14.0625V13.4375H5.9375Z" fill="#191F2E"/>
</svg>
