<svg width="20" height="20" viewBox="0 0 20 20" fill="none" xmlns="http://www.w3.org/2000/svg">
<path d="M16.8375 16.6609L12.8523 5.70312L13.5625 3.75H14.375C14.5408 3.75 14.6997 3.68415 14.8169 3.56694C14.9341 3.44973 15 3.29076 15 3.125C15 2.95924 14.9341 2.80027 14.8169 2.68306C14.6997 2.56585 14.5408 2.5 14.375 2.5H6.875C6.70924 2.5 6.55027 2.56585 6.43306 2.68306C6.31585 2.80027 6.25 2.95924 6.25 3.125C6.25 3.29076 6.31585 3.44973 6.43306 3.56694C6.55027 3.68415 6.70924 3.75 6.875 3.75H7.23281L2.5375 16.6609C2.50937 16.7381 2.49673 16.8201 2.50032 16.9022C2.50391 16.9843 2.52365 17.0649 2.5584 17.1393C2.59316 17.2138 2.64226 17.2806 2.70288 17.3361C2.76351 17.3915 2.83447 17.4345 2.91172 17.4625C2.98014 17.4871 3.05228 17.4998 3.125 17.5C3.25335 17.5 3.37859 17.4605 3.4837 17.3868C3.58881 17.3132 3.6687 17.2089 3.7125 17.0883L4.47187 15H8.14375L7.53906 16.6609C7.51093 16.7381 7.4983 16.8201 7.50188 16.9022C7.50547 16.9843 7.52521 17.0649 7.55997 17.1393C7.59472 17.2138 7.64382 17.2806 7.70444 17.3361C7.76507 17.3915 7.83603 17.4345 7.91328 17.4625C7.98121 17.4869 8.05281 17.4996 8.125 17.5C8.25335 17.5 8.37859 17.4605 8.4837 17.3868C8.58881 17.3132 8.6687 17.2089 8.7125 17.0883L10.1562 13.125H14.2187L15.6602 17.0883C15.7041 17.2093 15.7843 17.3138 15.8899 17.3875C15.9955 17.4612 16.1212 17.5005 16.25 17.5C16.3227 17.4998 16.3949 17.4871 16.4633 17.4625C16.5405 17.4345 16.6115 17.3915 16.6721 17.3361C16.7327 17.2806 16.7818 17.2138 16.8166 17.1393C16.8513 17.0649 16.8711 16.9843 16.8747 16.9022C16.8783 16.8201 16.8656 16.7381 16.8375 16.6609ZM8.46562 5H10.9656C11.1314 5 11.2904 5.06585 11.4076 5.18306C11.5248 5.30027 11.5906 5.45924 11.5906 5.625C11.5906 5.79076 11.5248 5.94973 11.4076 6.06694C11.2904 6.18415 11.1314 6.25 10.9656 6.25H8.46562C8.29986 6.25 8.14089 6.18415 8.02368 6.06694C7.90647 5.94973 7.84062 5.79076 7.84062 5.625C7.84062 5.45924 7.90647 5.30027 8.02368 5.18306C8.14089 5.06585 8.29986 5 8.46562 5ZM8.69297 12.5H6.19297C6.02721 12.5 5.86823 12.4342 5.75102 12.3169C5.63381 12.1997 5.56797 12.0408 5.56797 11.875C5.56797 11.7092 5.63381 11.5503 5.75102 11.4331C5.86823 11.3158 6.02721 11.25 6.19297 11.25H8.69297C8.85873 11.25 9.0177 11.3158 9.13491 11.4331C9.25212 11.5503 9.31797 11.7092 9.31797 11.875C9.31797 12.0408 9.25212 12.1997 9.13491 12.3169C9.0177 12.4342 8.85873 12.5 8.69297 12.5ZM9.82968 9.375H7.32968C7.16392 9.375 7.00495 9.30915 6.88774 9.19194C6.77053 9.07473 6.70468 8.91576 6.70468 8.75C6.70468 8.58424 6.77053 8.42527 6.88774 8.30806C7.00495 8.19085 7.16392 8.125 7.32968 8.125H9.82968C9.99544 8.125 10.1544 8.19085 10.2716 8.30806C10.3888 8.42527 10.4547 8.58424 10.4547 8.75C10.4547 8.91576 10.3888 9.07473 10.2716 9.19194C10.1544 9.30915 9.99544 9.375 9.82968 9.375ZM10.6109 11.875L12.1875 7.53203L13.7664 11.875H10.6109Z" fill="#191F2E"/>
</svg>
