<svg width="20" height="20" viewBox="0 0 20 20" fill="none" xmlns="http://www.w3.org/2000/svg">
<path d="M16.8375 16.6609L12.8523 5.70312L13.5625 3.75H14.375C14.5408 3.75 14.6997 3.68415 14.8169 3.56694C14.9342 3.44973 15 3.29076 15 3.125C15 2.95924 14.9342 2.80027 14.8169 2.68306C14.6997 2.56585 14.5408 2.5 14.375 2.5H6.875C6.70924 2.5 6.55027 2.56585 6.43306 2.68306C6.31585 2.80027 6.25 2.95924 6.25 3.125C6.25 3.29076 6.31585 3.44973 6.43306 3.56694C6.55027 3.68415 6.70924 3.75 6.875 3.75H7.23281L2.5375 16.6609C2.50937 16.7381 2.49674 16.8201 2.50033 16.9022C2.50391 16.9843 2.52365 17.0649 2.55841 17.1393C2.59316 17.2138 2.64226 17.2806 2.70289 17.3361C2.76351 17.3915 2.83448 17.4345 2.91172 17.4625C2.98015 17.4871 3.05229 17.4998 3.125 17.5C3.25335 17.5 3.3786 17.4605 3.48371 17.3868C3.58882 17.3132 3.6687 17.2089 3.7125 17.0883L4.47188 15H8.14375L7.53906 16.6609C7.51093 16.7381 7.4983 16.8201 7.50189 16.9022C7.50548 16.9843 7.52521 17.0649 7.55997 17.1393C7.59473 17.2138 7.64382 17.2806 7.70445 17.3361C7.76507 17.3915 7.83604 17.4345 7.91328 17.4625C7.98122 17.4869 8.05281 17.4996 8.125 17.5C8.25335 17.5 8.37859 17.4605 8.48371 17.3868C8.58882 17.3132 8.6687 17.2089 8.7125 17.0883L10.1563 13.125H14.2188L15.6602 17.0883C15.7041 17.2093 15.7843 17.3138 15.8899 17.3875C15.9955 17.4612 16.1212 17.5005 16.25 17.5C16.3227 17.4998 16.3949 17.4871 16.4633 17.4625C16.5405 17.4345 16.6115 17.3915 16.6721 17.3361C16.7327 17.2806 16.7818 17.2138 16.8166 17.1393C16.8514 17.0649 16.8711 16.9843 16.8747 16.9022C16.8783 16.8201 16.8656 16.7381 16.8375 16.6609ZM9.9625 10H6.29063L7.19922 7.5H10.8711L9.9625 10ZM12.2352 3.75L11.3234 6.25H7.65625L8.5625 3.75H12.2352ZM4.92656 13.75L5.83594 11.25H9.50781L8.59375 13.75H4.92656ZM10.6078 11.875L12.1875 7.53203L13.7664 11.875H10.6078Z" fill="#191F2E"/>
</svg>
