<svg width="20" height="20" viewBox="0 0 20 20" fill="none" xmlns="http://www.w3.org/2000/svg">
<path d="M19.2719 12.2188C19.215 12.3052 19.1375 12.3761 19.0464 12.4252C18.9553 12.4743 18.8535 12.5 18.75 12.5H16.25V15C16.25 15.1658 16.1842 15.3247 16.0669 15.4419C15.9497 15.5592 15.7908 15.625 15.625 15.625C15.4592 15.625 15.3003 15.5592 15.1831 15.4419C15.0658 15.3247 15 15.1658 15 15V12.5H10.625V16.25H12.5C12.6658 16.25 12.8247 16.3158 12.9419 16.4331C13.0592 16.5503 13.125 16.7092 13.125 16.875C13.125 17.0408 13.0592 17.1997 12.9419 17.3169C12.8247 17.4342 12.6658 17.5 12.5 17.5H7.5C7.33424 17.5 7.17527 17.4342 7.05806 17.3169C6.94085 17.1997 6.875 17.0408 6.875 16.875C6.875 16.7092 6.94085 16.5503 7.05806 16.4331C7.17527 16.3158 7.33424 16.25 7.5 16.25H9.375V12.5H1.25C1.14661 12.5 1.04484 12.4743 0.953821 12.4252C0.862801 12.3762 0.78537 12.3053 0.728466 12.219C0.671561 12.1327 0.636962 12.0336 0.627767 11.9306C0.618572 11.8276 0.635068 11.7239 0.675779 11.6289L4.42578 2.87891C4.47393 2.7665 4.554 2.67069 4.65606 2.60334C4.75813 2.53599 4.87771 2.50006 5 2.5H15C15.1223 2.50006 15.2419 2.53599 15.3439 2.60334C15.446 2.67069 15.5261 2.7665 15.5742 2.87891L19.3242 11.6289C19.3649 11.7239 19.3815 11.8275 19.3723 11.9304C19.3632 12.0334 19.3287 12.1324 19.2719 12.2188Z" fill="#191F2E"/>
</svg>
