<svg width="20" height="20" viewBox="0 0 20 20" fill="none" xmlns="http://www.w3.org/2000/svg">
<path d="M18.125 13.125H17.5V5.625C17.5 5.12772 17.3025 4.65081 16.9508 4.29917C16.5992 3.94754 16.1223 3.75 15.625 3.75H4.375C3.87772 3.75 3.40081 3.94754 3.04917 4.29917C2.69754 4.65081 2.5 5.12772 2.5 5.625V13.125H1.875C1.70924 13.125 1.55027 13.1908 1.43306 13.3081C1.31585 13.4253 1.25 13.5842 1.25 13.75V15C1.25 15.4973 1.44754 15.9742 1.79917 16.3258C2.15081 16.6775 2.62772 16.875 3.125 16.875H16.875C17.3723 16.875 17.8492 16.6775 18.2008 16.3258C18.5525 15.9742 18.75 15.4973 18.75 15V13.75C18.75 13.5842 18.6842 13.4253 18.5669 13.3081C18.4497 13.1908 18.2908 13.125 18.125 13.125ZM8.75 5.625H11.25C11.4158 5.625 11.5747 5.69085 11.6919 5.80806C11.8092 5.92527 11.875 6.08424 11.875 6.25C11.875 6.41576 11.8092 6.57473 11.6919 6.69194C11.5747 6.80915 11.4158 6.875 11.25 6.875H8.75C8.58424 6.875 8.42527 6.80915 8.30806 6.69194C8.19085 6.57473 8.125 6.41576 8.125 6.25C8.125 6.08424 8.19085 5.92527 8.30806 5.80806C8.42527 5.69085 8.58424 5.625 8.75 5.625ZM17.5 15C17.5 15.1658 17.4342 15.3247 17.3169 15.4419C17.1997 15.5592 17.0408 15.625 16.875 15.625H3.125C2.95924 15.625 2.80027 15.5592 2.68306 15.4419C2.56585 15.3247 2.5 15.1658 2.5 15V14.375H17.5V15Z" fill="#191F2E"/>
</svg>
