<svg width="20" height="20" viewBox="0 0 20 20" fill="none" xmlns="http://www.w3.org/2000/svg">
<path d="M17.4571 3.13056C17.4481 2.97766 17.3834 2.83336 17.2751 2.72505C17.1668 2.61675 17.0225 2.55199 16.8696 2.54306C10.9219 2.19384 6.15783 3.98447 4.12658 7.34384C3.42249 8.49299 3.07553 9.82536 3.12971 11.172C3.16507 12.0331 3.34027 12.8827 3.64846 13.6876C3.66657 13.7371 3.69692 13.7813 3.73668 13.8159C3.77645 13.8506 3.82433 13.8746 3.87588 13.8857C3.92743 13.8969 3.98096 13.8948 4.03149 13.8797C4.08202 13.8646 4.1279 13.8369 4.16486 13.7993L10.8055 7.05712C10.8636 6.99905 10.9325 6.95299 11.0084 6.92156C11.0842 6.89014 11.1656 6.87396 11.2477 6.87396C11.3298 6.87396 11.4111 6.89014 11.487 6.92156C11.5629 6.95299 11.6318 6.99905 11.6899 7.05712C11.7479 7.11519 11.794 7.18413 11.8254 7.26C11.8568 7.33587 11.873 7.41719 11.873 7.49931C11.873 7.58143 11.8568 7.66275 11.8254 7.73862C11.794 7.81449 11.7479 7.88343 11.6899 7.9415L4.43283 15.3079L3.32424 16.4165C3.20895 16.5287 3.14012 16.6803 3.13143 16.8409C3.12275 17.0016 3.17484 17.1597 3.27736 17.2837C3.33351 17.3487 3.40246 17.4014 3.4799 17.4386C3.55734 17.4758 3.64162 17.4966 3.72747 17.4998C3.81332 17.5029 3.89889 17.4884 3.97885 17.457C4.05881 17.4256 4.13144 17.378 4.19221 17.3173L5.50393 16.0056C6.60861 16.5399 7.72346 16.8313 8.82893 16.8704C8.9159 16.8735 9.00262 16.8751 9.08908 16.8751C10.348 16.8783 11.583 16.5316 12.6563 15.8735C16.0156 13.8423 17.8071 9.079 17.4571 3.13056Z" fill="#191F2E"/>
</svg>
