<svg width="20" height="20" viewBox="0 0 20 20" fill="none" xmlns="http://www.w3.org/2000/svg">
<path d="M17.7672 3.114C17.7538 2.88465 17.6566 2.6682 17.4942 2.50574C17.3317 2.34329 17.1153 2.24614 16.8859 2.23275C13.7922 2.05072 11.0586 2.41556 8.76093 3.31634C6.56249 4.17806 4.86796 5.514 3.85858 7.17962C2.48202 9.45384 2.4789 12.2148 3.82343 14.8507L2.46171 16.2124C2.3745 16.2996 2.30533 16.4032 2.25813 16.5171C2.21094 16.6311 2.18665 16.7532 2.18665 16.8765C2.18665 16.9998 2.21094 17.1219 2.25813 17.2359C2.30533 17.3498 2.3745 17.4534 2.46171 17.5406C2.63783 17.7167 2.8767 17.8156 3.12577 17.8156C3.2491 17.8156 3.37122 17.7913 3.48516 17.7441C3.5991 17.6969 3.70263 17.6278 3.78983 17.5406L5.15155 16.1788C6.45937 16.846 7.79843 17.1827 9.09296 17.1827C10.4082 17.1868 11.699 16.8272 12.8226 16.1437C14.4883 15.1343 15.8242 13.439 16.6859 11.2413C17.5844 8.94212 17.9492 6.20775 17.7672 3.114ZM11.8484 14.5374C10.2789 15.4882 8.43749 15.5601 6.5578 14.7656L13.1625 8.16087C13.2497 8.07367 13.3189 7.97014 13.3661 7.8562C13.4133 7.74226 13.4376 7.62014 13.4376 7.49681C13.4376 7.37348 13.4133 7.25136 13.3661 7.13742C13.3189 7.02348 13.2497 6.91996 13.1625 6.83275C13.0753 6.74554 12.9718 6.67637 12.8578 6.62917C12.7439 6.58198 12.6218 6.55769 12.4984 6.55769C12.3751 6.55769 12.253 6.58198 12.139 6.62917C12.0251 6.67637 11.9216 6.74554 11.8344 6.83275L5.23437 13.4421C4.44218 11.5671 4.51405 9.72103 5.46874 8.1515C7.10233 5.45384 10.9797 3.95462 15.9375 4.06947C16.0453 9.02572 14.5461 12.9038 11.8484 14.5374Z" fill="#191F2E"/>
</svg>
