<svg width="20" height="20" viewBox="0 0 20 20" fill="none" xmlns="http://www.w3.org/2000/svg">
<path d="M18.6438 2.60621C18.4116 2.37401 18.136 2.18981 17.8327 2.06414C17.5293 1.93846 17.2042 1.87378 16.8758 1.87378C16.5475 1.87378 16.2223 1.93846 15.919 2.06414C15.6156 2.18981 15.34 2.37401 15.1079 2.60621C14.8757 2.83837 14.6915 3.11399 14.5658 3.41734C14.4401 3.72069 14.3754 4.04583 14.3754 4.37418C14.3754 4.70254 14.4401 5.02767 14.5658 5.33102C14.6915 5.63437 14.8757 5.91 15.1079 6.14215C15.1305 6.16481 15.1547 6.18668 15.1782 6.20856L13.0977 10.0726C12.4634 9.91794 11.7938 10.016 11.2305 10.3461L9.65396 8.7695C9.96412 8.24526 10.0722 7.62582 9.95796 7.02751C9.8437 6.42921 9.51493 5.8932 9.0334 5.52016C8.55188 5.14712 7.95072 4.96271 7.34284 5.00158C6.73496 5.04044 6.16219 5.29989 5.73208 5.73121C5.49987 5.96337 5.31567 6.23899 5.19 6.54234C5.06433 6.84569 4.99965 7.17083 4.99965 7.49918C4.99965 7.82754 5.06433 8.15267 5.19 8.45602C5.31567 8.75937 5.49987 9.035 5.73208 9.26715C5.75474 9.28981 5.77817 9.31168 5.80161 9.33356L3.72114 13.1984C3.30354 13.0956 2.86648 13.1023 2.45221 13.2178C2.03794 13.3333 1.66048 13.5537 1.3563 13.8578C1.00673 14.2074 0.768681 14.6529 0.672264 15.1378C0.575847 15.6228 0.625389 16.1254 0.814624 16.5822C1.00386 17.039 1.32429 17.4294 1.7354 17.7041C2.14651 17.9787 2.62984 18.1253 3.12427 18.1253C3.6187 18.1253 4.10202 17.9787 4.51313 17.7041C4.92424 17.4294 5.24468 17.039 5.43391 16.5822C5.62315 16.1254 5.67269 15.6228 5.57627 15.1378C5.47986 14.6529 5.24181 14.2074 4.89224 13.8578C4.86958 13.8351 4.84536 13.8132 4.82192 13.7914L6.90239 9.92731C7.09801 9.97522 7.29865 9.99961 7.50005 9.99996C7.94639 10.0005 8.38475 9.88155 8.76958 9.65543L10.3461 11.232C10.1088 11.6348 9.98916 12.0961 10.0008 12.5635C10.0125 13.0309 10.155 13.4857 10.4122 13.8762C10.6693 14.2666 11.0308 14.5772 11.4556 14.7725C11.8804 14.9678 12.3514 15.0401 12.8152 14.9812C13.2791 14.9222 13.717 14.7344 14.0795 14.439C14.4419 14.1436 14.7142 13.7525 14.8655 13.3102C15.0168 12.8678 15.041 12.3918 14.9354 11.9364C14.8298 11.4809 14.5986 11.0642 14.268 10.7336C14.2454 10.7109 14.2219 10.689 14.1985 10.6672L16.279 6.80309C16.4741 6.85066 16.6742 6.87479 16.875 6.87496C17.3694 6.87489 17.8526 6.72825 18.2637 6.45359C18.6747 6.17893 18.9951 5.78858 19.1843 5.33188C19.3735 4.87517 19.4231 4.37262 19.3267 3.88775C19.2304 3.40288 18.9925 2.95745 18.643 2.60778L18.6438 2.60621ZM4.00786 16.5101C3.77331 16.7446 3.45523 16.8762 3.1236 16.8762C2.79197 16.8761 2.47395 16.7443 2.2395 16.5097C2.00506 16.2752 1.87339 15.9571 1.87346 15.6255C1.87353 15.2938 2.00534 14.9758 2.23989 14.7414C2.35603 14.6253 2.4939 14.5332 2.64562 14.4704C2.79734 14.4076 2.95995 14.3753 3.12415 14.3753C3.28836 14.3754 3.45095 14.4077 3.60265 14.4706C3.75434 14.5335 3.89217 14.6256 4.00825 14.7418C4.12434 14.8579 4.21641 14.9958 4.27922 15.1475C4.34203 15.2992 4.37433 15.4618 4.3743 15.626C4.37426 15.7902 4.34188 15.9528 4.27901 16.1045C4.21614 16.2562 4.124 16.394 4.00786 16.5101ZM6.61567 8.38512C6.49957 8.26904 6.40747 8.13123 6.34464 7.97956C6.2818 7.82788 6.24946 7.66531 6.24946 7.50114C6.24946 7.33696 6.2818 7.17439 6.34464 7.02272C6.40747 6.87104 6.49957 6.73323 6.61567 6.61715C6.7905 6.44236 7.01323 6.32334 7.2557 6.27513C7.49817 6.22692 7.74949 6.2517 7.97788 6.34631C8.20627 6.44093 8.40147 6.60115 8.53881 6.8067C8.67615 7.01226 8.74946 7.25392 8.74946 7.50114C8.74946 7.74835 8.67615 7.99001 8.53881 8.19557C8.40147 8.40112 8.20627 8.56134 7.97788 8.65596C7.74949 8.75058 7.49817 8.77535 7.2557 8.72714C7.01323 8.67893 6.7905 8.55991 6.61567 8.38512ZM13.3844 13.3851C13.15 13.6196 12.832 13.7513 12.5004 13.7513C12.1689 13.7513 11.8509 13.6196 11.6165 13.3851C11.382 13.1507 11.2503 12.8327 11.2503 12.5011C11.2503 12.1696 11.382 11.8516 11.6165 11.6172C11.8509 11.3827 12.1689 11.251 12.5004 11.251C12.832 11.251 13.15 11.3827 13.3844 11.6172C13.6189 11.8516 13.7506 12.1696 13.7506 12.5011C13.7506 12.8327 13.6189 13.1507 13.3844 13.3851ZM17.7594 5.26012C17.5247 5.49446 17.2064 5.62595 16.8747 5.62566C16.543 5.62537 16.225 5.49332 15.9907 5.25856C15.7563 5.0238 15.6248 4.70556 15.6251 4.37386C15.6254 4.04215 15.7575 3.72415 15.9922 3.48981C16.1084 3.37372 16.2462 3.28165 16.398 3.21884C16.5497 3.15604 16.7123 3.12373 16.8765 3.12376C17.0407 3.1238 17.2033 3.15618 17.355 3.21905C17.5067 3.28193 17.6445 3.37406 17.7606 3.4902C17.8767 3.60634 17.9688 3.7442 18.0316 3.89592C18.0944 4.04765 18.1267 4.21025 18.1266 4.37446C18.1266 4.53867 18.0942 4.70126 18.0314 4.85295C17.9685 5.00465 17.8763 5.14247 17.7602 5.25856L17.7594 5.26012Z" fill="#191F2E"/>
</svg>
