<svg width="20" height="20" viewBox="0 0 20 20" fill="none" xmlns="http://www.w3.org/2000/svg">
<path d="M16.9898 3.01021C16.5208 2.53957 15.9003 2.25018 15.2383 2.19331C14.5764 2.13644 13.9156 2.31577 13.3732 2.69952C12.8308 3.08327 12.4418 3.64666 12.2751 4.28983C12.1084 4.933 12.1748 5.61443 12.4625 6.21333L6.21247 12.4633C5.68743 12.2127 5.09766 12.1307 4.52415 12.2286C3.95063 12.3265 3.42149 12.5995 3.00935 13.0102C2.64552 13.3751 2.38893 13.8329 2.26758 14.3337C2.14623 14.8345 2.16479 15.359 2.32124 15.8499C2.47768 16.3409 2.76599 16.7794 3.1547 17.1177C3.54341 17.456 4.01757 17.6809 4.52543 17.7681C5.03329 17.8552 5.55533 17.8011 6.03455 17.6117C6.51378 17.4224 6.93177 17.105 7.2429 16.6943C7.55403 16.2835 7.74634 15.7952 7.79884 15.2826C7.85134 14.77 7.76201 14.2528 7.5406 13.7875L13.7906 7.53755C14.3895 7.82525 15.0709 7.89164 15.7141 7.72493C16.3573 7.55823 16.9207 7.1692 17.3044 6.6268C17.6882 6.08441 17.8675 5.42366 17.8106 4.76167C17.7538 4.09969 17.4644 3.47921 16.9937 3.01021H16.9898ZM5.66169 15.6665C5.53045 15.7972 5.3634 15.8862 5.18163 15.9221C4.99986 15.958 4.81153 15.9393 4.64041 15.8682C4.4693 15.7972 4.32307 15.677 4.2202 15.5229C4.11733 15.3688 4.06243 15.1877 4.06243 15.0024C4.06243 14.8171 4.11733 14.636 4.2202 14.4819C4.32307 14.3278 4.4693 14.2076 4.64041 14.1366C4.81153 14.0655 4.99986 14.0468 5.18163 14.0827C5.3634 14.1186 5.53045 14.2075 5.66169 14.3383C5.8376 14.514 5.9365 14.7524 5.93665 15.0011C5.9368 15.2497 5.83817 15.4882 5.66247 15.6641L5.66169 15.6665ZM15.6617 5.66646C15.5746 5.75386 15.4711 5.8232 15.3571 5.87052C15.2432 5.91784 15.121 5.9422 14.9976 5.9422C14.8742 5.9422 14.7521 5.91784 14.6381 5.87052C14.5242 5.8232 14.4207 5.75386 14.3336 5.66646C14.2028 5.53522 14.1138 5.36816 14.0779 5.1864C14.042 5.00463 14.0608 4.81629 14.1318 4.64518C14.2029 4.47406 14.323 4.32784 14.4771 4.22497C14.6312 4.1221 14.8123 4.0672 14.9976 4.0672C15.1829 4.0672 15.364 4.1221 15.5181 4.22497C15.6722 4.32784 15.7924 4.47406 15.8635 4.64518C15.9345 4.81629 15.9533 5.00463 15.9174 5.1864C15.8814 5.36816 15.7925 5.53522 15.6617 5.66646Z" fill="#191F2E"/>
</svg>
