<svg width="20" height="20" viewBox="0 0 20 20" fill="none" xmlns="http://www.w3.org/2000/svg">
<path d="M18.6438 6.14223C18.4118 6.37494 18.1362 6.55949 17.8326 6.68526C17.529 6.81102 17.2036 6.87552 16.875 6.87504C16.6739 6.87493 16.4736 6.8508 16.2782 6.80317L14.1977 10.6672C14.2211 10.6891 14.2446 10.711 14.2672 10.7336C14.5978 11.0643 14.829 11.481 14.9346 11.9364C15.0403 12.3919 15.016 12.8679 14.8647 13.3102C14.7134 13.7526 14.4411 14.1437 14.0787 14.4391C13.7163 14.7345 13.2783 14.9223 12.8145 14.9813C12.3506 15.0402 11.8796 14.9679 11.4548 14.7726C11.03 14.5772 10.6685 14.2667 10.4114 13.8762C10.1542 13.4858 10.0117 13.031 10 12.5636C9.98838 12.0962 10.108 11.6349 10.3454 11.2321L8.7688 9.65551C8.3842 9.88149 7.94613 10.0004 7.50005 10C7.29871 10.0002 7.09808 9.97633 6.90239 9.92895L4.82193 13.7914C4.84536 13.8133 4.86958 13.8352 4.89224 13.8579C5.24181 14.2075 5.47986 14.653 5.57627 15.1379C5.67269 15.6228 5.62315 16.1255 5.43391 16.5823C5.24468 17.039 4.92425 17.4295 4.51313 17.7041C4.10202 17.9788 3.6187 18.1254 3.12427 18.1254C2.62984 18.1254 2.14651 17.9788 1.7354 17.7041C1.32429 17.4295 1.00386 17.039 0.814624 16.5823C0.625389 16.1255 0.575847 15.6228 0.672264 15.1379C0.768681 14.653 1.00673 14.2075 1.3563 13.8579C1.66048 13.5538 2.03794 13.3334 2.45221 13.2179C2.86648 13.1024 3.30354 13.0957 3.72114 13.1985L5.80161 9.33442C5.77818 9.31254 5.75474 9.29067 5.73208 9.26801C5.49987 9.03586 5.31567 8.76023 5.19 8.45688C5.06433 8.15353 4.99965 7.82839 4.99965 7.50004C4.99965 7.17169 5.06433 6.84655 5.19 6.5432C5.31567 6.23985 5.49987 5.96423 5.73208 5.73207C6.16219 5.30075 6.73496 5.0413 7.34284 5.00243C7.95072 4.96357 8.55188 5.14798 9.0334 5.52102C9.51493 5.89406 9.8437 6.43006 9.95796 7.02837C10.0722 7.62668 9.96412 8.24612 9.65396 8.77035L11.2305 10.3469C11.7938 10.0169 12.4634 9.9188 13.0977 10.0735L15.1782 6.20942C15.1547 6.18754 15.1305 6.16567 15.1079 6.14301C14.8757 5.91086 14.6915 5.63523 14.5658 5.33188C14.4401 5.02853 14.3754 4.70339 14.3754 4.37504C14.3754 4.04669 14.4401 3.72155 14.5658 3.4182C14.6915 3.11485 14.8757 2.83923 15.1079 2.60707C15.5768 2.13818 16.2127 1.87476 16.8758 1.87476C17.5389 1.87476 18.1749 2.13818 18.6438 2.60707C19.1127 3.07597 19.3761 3.71192 19.3761 4.37504C19.3761 5.03816 19.1127 5.67412 18.6438 6.14301V6.14223Z" fill="#191F2E"/>
</svg>
