<svg width="20" height="20" viewBox="0 0 20 20" fill="none" xmlns="http://www.w3.org/2000/svg">
<path d="M16.7688 6.76716C16.3763 7.15844 15.8652 7.40858 15.3154 7.47841C14.7657 7.54825 14.2083 7.43384 13.7305 7.15309L7.15313 13.7304C7.39057 14.1332 7.51031 14.5945 7.49875 15.0619C7.48718 15.5293 7.34477 15.9841 7.0877 16.3746C6.83062 16.7652 6.46918 17.0758 6.04443 17.2712C5.61968 17.4666 5.14864 17.539 4.6848 17.4802C4.22097 17.4213 3.78294 17.2336 3.42046 16.9382C3.05798 16.6429 2.78557 16.2519 2.63419 15.8095C2.4828 15.3672 2.4585 14.8912 2.56404 14.4357C2.66958 13.9802 2.90074 13.5635 3.23125 13.2328C3.62363 12.8414 4.13473 12.5912 4.68453 12.5213C5.23433 12.4515 5.79177 12.566 6.26954 12.8468L12.8469 6.2695C12.6094 5.86673 12.4897 5.40544 12.5013 4.93804C12.5128 4.47063 12.6552 4.01583 12.9123 3.6253C13.1694 3.23476 13.5308 2.92415 13.9556 2.72872C14.3803 2.5333 14.8514 2.46091 15.3152 2.51977C15.779 2.57862 16.2171 2.76637 16.5795 3.06169C16.942 3.357 17.2144 3.74805 17.3658 4.19041C17.5172 4.63278 17.5415 5.10873 17.436 5.56421C17.3304 6.0197 17.0993 6.43646 16.7688 6.76716Z" fill="#191F2E"/>
</svg>
