<svg width="20" height="20" viewBox="0 0 20 20" fill="none" xmlns="http://www.w3.org/2000/svg">
<path d="M16.7688 3.23119C16.3386 2.79987 15.7659 2.54042 15.158 2.50156C14.5501 2.46269 13.949 2.6471 13.4674 3.02014C12.9859 3.39318 12.6571 3.92919 12.5429 4.52749C12.4286 5.1258 12.5367 5.74524 12.8469 6.26948L6.26954 12.8468C5.79177 12.5659 5.23433 12.4515 4.68453 12.5213C4.13473 12.5911 3.62363 12.8413 3.23125 13.2328C2.90074 13.5635 2.66958 13.9802 2.56404 14.4357C2.4585 14.8912 2.4828 15.3671 2.63419 15.8095C2.78557 16.2519 3.05798 16.6429 3.42046 16.9382C3.78294 17.2335 4.22097 17.4213 4.6848 17.4801C5.14864 17.539 5.61968 17.4666 6.04443 17.2712C6.46918 17.0758 6.83062 16.7651 7.0877 16.3746C7.34477 15.9841 7.48718 15.5293 7.49875 15.0619C7.51031 14.5945 7.39057 14.1332 7.15313 13.7304L13.7305 7.15307C14.2547 7.46324 14.8741 7.57134 15.4725 7.45708C16.0708 7.34281 16.6068 7.01404 16.9798 6.53252C17.3528 6.05099 17.5373 5.44984 17.4984 4.84196C17.4595 4.23408 17.2001 3.6613 16.7688 3.23119ZM5.8836 15.8874C5.64905 16.122 5.33093 16.2538 4.99922 16.2538C4.66752 16.2538 4.3494 16.122 4.11485 15.8874C3.8803 15.6529 3.74853 15.3348 3.74853 15.0031C3.74853 14.6714 3.8803 14.3532 4.11485 14.1187C4.23092 14.0026 4.36874 13.9105 4.52041 13.8477C4.67209 13.7848 4.83466 13.7525 4.99883 13.7525C5.16301 13.7525 5.32558 13.7848 5.47725 13.8477C5.62893 13.9105 5.76674 14.0026 5.88282 14.1187C6.11693 14.353 6.2485 14.6705 6.24864 15.0017C6.24879 15.3329 6.1175 15.6506 5.8836 15.8851V15.8874ZM15.8836 5.88744C15.7088 6.06223 15.486 6.18125 15.2436 6.22946C15.0011 6.27767 14.7498 6.2529 14.5214 6.15828C14.293 6.06366 14.0978 5.90345 13.9605 5.69789C13.8231 5.49234 13.7498 5.25067 13.7498 5.00346C13.7498 4.75625 13.8231 4.51458 13.9605 4.30903C14.0978 4.10347 14.293 3.94326 14.5214 3.84864C14.7498 3.75402 15.0011 3.72925 15.2436 3.77746C15.486 3.82567 15.7088 3.94469 15.8836 4.11948C16.1169 4.35351 16.248 4.67037 16.2483 5.00079C16.2486 5.33122 16.118 5.64832 15.8852 5.88276L15.8836 5.88744Z" fill="#191F2E"/>
</svg>
