<svg width="20" height="20" viewBox="0 0 20 20" fill="none" xmlns="http://www.w3.org/2000/svg">
<path d="M6.83593 11.8375L11.8359 6.83745C11.9231 6.75025 12.0267 6.68107 12.1406 6.63388C12.2545 6.58668 12.3767 6.56239 12.5 6.56239C12.6233 6.56239 12.7454 6.58668 12.8594 6.63388C12.9733 6.68107 13.0768 6.75025 13.1641 6.83745C13.2513 6.92466 13.3204 7.02819 13.3676 7.14213C13.4148 7.25607 13.4391 7.37819 13.4391 7.50152C13.4391 7.62484 13.4148 7.74697 13.3676 7.86091C13.3204 7.97485 13.2513 8.07837 13.1641 8.16558L8.16406 13.1656C7.98794 13.3417 7.74906 13.4406 7.49999 13.4406C7.25092 13.4406 7.01205 13.3417 6.83593 13.1656C6.65981 12.9895 6.56087 12.7506 6.56087 12.5015C6.56087 12.2524 6.65981 12.0136 6.83593 11.8375ZM17.0703 2.9312C16.1904 2.05325 14.9981 1.56018 13.7551 1.56018C12.512 1.56018 11.3198 2.05325 10.4398 2.9312L8.08671 5.28199C7.91059 5.45811 7.81165 5.69698 7.81165 5.94605C7.81165 6.06938 7.83594 6.1915 7.88313 6.30544C7.93033 6.41938 7.99951 6.5229 8.08671 6.61011C8.17392 6.69732 8.27745 6.76649 8.39139 6.81369C8.50533 6.86088 8.62745 6.88517 8.75077 6.88517C8.99985 6.88517 9.23872 6.78623 9.41484 6.61011L11.7641 4.26167C12.2916 3.73404 13.0071 3.43757 13.7532 3.4375C14.4993 3.43743 15.2149 3.73375 15.7426 4.26128C16.2702 4.78881 16.5667 5.50434 16.5667 6.25046C16.5668 6.99658 16.2705 7.71216 15.743 8.2398L13.3906 10.5875C13.3034 10.6747 13.2342 10.7782 13.187 10.8921C13.1398 11.0061 13.1156 11.1282 13.1156 11.2515C13.1156 11.3748 13.1398 11.497 13.187 11.6109C13.2342 11.7248 13.3034 11.8284 13.3906 11.9156C13.4778 12.0028 13.5814 12.072 13.6953 12.1192C13.8092 12.1664 13.9314 12.1906 14.0547 12.1906C14.178 12.1906 14.3001 12.1664 14.4141 12.1192C14.528 12.072 14.6315 12.0028 14.7187 11.9156L17.0687 9.56714C17.9472 8.68666 18.4403 7.49359 18.4398 6.24986C18.4394 5.00613 17.9454 3.81341 17.0664 2.93355L17.0703 2.9312ZM10.5875 13.3906L8.23827 15.7406C7.97702 16.0018 7.66687 16.209 7.32553 16.3503C6.9842 16.4917 6.61837 16.5644 6.24894 16.5644C5.8795 16.5643 5.51368 16.4915 5.17238 16.3501C4.83107 16.2087 4.52097 16.0014 4.25976 15.7402C3.73223 15.2126 3.4359 14.497 3.43598 13.7508C3.43605 13.0047 3.73251 12.2892 4.26015 11.7617L6.60859 9.41245C6.69579 9.32525 6.76497 9.22172 6.81216 9.10778C6.85936 8.99384 6.88365 8.87172 6.88365 8.74839C6.88365 8.62506 6.85936 8.50294 6.81216 8.389C6.76497 8.27506 6.69579 8.17154 6.60859 8.08433C6.52138 7.99712 6.41785 7.92795 6.30391 7.88075C6.18997 7.83356 6.06785 7.80927 5.94452 7.80927C5.8212 7.80927 5.69908 7.83356 5.58514 7.88075C5.4712 7.92795 5.36767 7.99712 5.28046 8.08433L2.93359 10.4359C2.49822 10.8713 2.15289 11.3882 1.91729 11.9571C1.68169 12.526 1.56045 13.1357 1.56049 13.7514C1.56056 14.9949 2.05462 16.1875 2.93398 17.0668C3.81334 17.946 5.00596 18.4399 6.24949 18.4399C7.49302 18.4398 8.68558 17.9457 9.56484 17.0664L11.9133 14.7171C12.0894 14.541 12.1883 14.3022 12.1883 14.0531C12.1883 13.804 12.0894 13.5651 11.9133 13.389C11.7372 13.2129 11.4983 13.114 11.2492 13.114C11.0001 13.114 10.7613 13.2129 10.5851 13.389L10.5875 13.3906Z" fill="#191F2E"/>
</svg>
