<svg width="20" height="20" viewBox="0 0 20 20" fill="none" xmlns="http://www.w3.org/2000/svg">
<path d="M18.125 6.24995C18.1264 6.82471 18.0139 7.39405 17.794 7.92508C17.5741 8.4561 17.2511 8.93826 16.8437 9.3437L14.4945 11.6921C14.3772 11.8093 14.2182 11.8751 14.0524 11.875C13.8867 11.8749 13.7277 11.809 13.6105 11.6917C13.4934 11.5745 13.4276 11.4155 13.4276 11.2497C13.4277 11.0839 13.4936 10.9249 13.6109 10.8078L15.9601 8.45933C16.2556 8.17033 16.4909 7.82558 16.6522 7.44504C16.8135 7.06451 16.8978 6.65575 16.9 6.24243C16.9023 5.82911 16.8226 5.41945 16.6654 5.03716C16.5083 4.65487 16.2769 4.30755 15.9846 4.01532C15.6923 3.72308 15.345 3.49173 14.9626 3.33466C14.5803 3.17759 14.1707 3.09792 13.7573 3.10027C13.344 3.10262 12.9353 3.18694 12.5548 3.34834C12.1743 3.50975 11.8296 3.74503 11.5406 4.04058L9.19217 6.38823C9.07489 6.50551 8.91583 6.57139 8.74998 6.57139C8.58413 6.57139 8.42507 6.50551 8.30779 6.38823C8.19052 6.27096 8.12463 6.1119 8.12463 5.94605C8.12463 5.78019 8.19052 5.62113 8.30779 5.50386L10.6562 3.1562C11.2681 2.54428 12.0477 2.12755 12.8964 1.95872C13.7451 1.78988 14.6248 1.87652 15.4243 2.20768C16.2237 2.53884 16.907 3.09964 17.3878 3.81917C17.8685 4.53869 18.125 5.38461 18.125 6.24995ZM10.8078 13.6109L8.45935 15.9593C8.17035 16.2548 7.8256 16.49 7.44507 16.6514C7.06454 16.8127 6.65578 16.897 6.24246 16.8992C5.82914 16.9015 5.41948 16.8218 5.03719 16.6646C4.6549 16.5075 4.30758 16.2761 4.01534 15.9838C3.72311 15.6915 3.49175 15.3442 3.33469 14.9618C3.17762 14.5795 3.09795 14.1698 3.1003 13.7565C3.10265 13.3432 3.18697 12.9345 3.34837 12.554C3.50978 12.1735 3.74506 11.8287 4.0406 11.5398L6.38826 9.19214C6.50554 9.07486 6.57142 8.9158 6.57142 8.74995C6.57142 8.5841 6.50554 8.42504 6.38826 8.30776C6.27098 8.19049 6.11193 8.1246 5.94607 8.1246C5.78022 8.1246 5.62116 8.19049 5.50389 8.30776L3.15623 10.6562C2.33572 11.4767 1.87476 12.5896 1.87476 13.75C1.87476 14.9103 2.33572 16.0232 3.15623 16.8437C3.97674 17.6642 5.0896 18.1252 6.24998 18.1252C7.41036 18.1252 8.52322 17.6642 9.34373 16.8437L11.6922 14.4945C11.8093 14.3772 11.8751 14.2182 11.8751 14.0524C11.875 13.8866 11.8091 13.7277 11.6918 13.6105C11.5745 13.4933 11.4155 13.4275 11.2497 13.4276C11.0839 13.4277 10.925 13.4936 10.8078 13.6109Z" fill="#191F2E"/>
</svg>
