<svg width="20" height="20" viewBox="0 0 20 20" fill="none" xmlns="http://www.w3.org/2000/svg">
<path d="M14.893 5.10703C14.425 4.63912 13.7905 4.37586 13.1287 4.37498C12.4669 4.3741 11.8318 4.63567 11.3625 5.10234L10.4523 6.05625C10.3359 6.16505 10.1824 6.22528 10.023 6.22464C9.86372 6.22399 9.71065 6.16252 9.59513 6.05278C9.4796 5.94305 9.41036 5.79334 9.40153 5.63425C9.39271 5.47516 9.44498 5.31871 9.54766 5.19687L10.4633 4.23672C10.4665 4.23314 10.4699 4.22975 10.4734 4.22656C11.1786 3.53276 12.1294 3.14572 13.1187 3.14975C14.1079 3.15378 15.0555 3.54855 15.7551 4.24807C16.4546 4.94759 16.8493 5.89519 16.8534 6.88445C16.8574 7.87371 16.4704 8.82449 15.7766 9.52969C15.7734 9.53327 15.77 9.53666 15.7664 9.53984L14.8063 10.4555C14.6844 10.5581 14.528 10.6104 14.3689 10.6016C14.2098 10.5928 14.0601 10.5235 13.9503 10.408C13.8406 10.2925 13.7791 10.1394 13.7785 9.98008C13.7778 9.82075 13.8381 9.66719 13.9469 9.55078L14.9008 8.64062C15.368 8.17083 15.6296 7.53478 15.6281 6.87221C15.6267 6.20964 15.3623 5.57476 14.893 5.10703ZM9.54766 13.9437L8.6375 14.8977C8.1664 15.3552 7.53418 15.609 6.87749 15.6042C6.22079 15.5994 5.59236 15.3364 5.12799 14.872C4.66363 14.4076 4.40063 13.7792 4.39583 13.1225C4.39103 12.4658 4.64481 11.8336 5.10234 11.3625L6.05625 10.4523C6.16505 10.3359 6.22528 10.1824 6.22464 10.023C6.22399 9.86372 6.16252 9.71065 6.05278 9.59513C5.94305 9.4796 5.79334 9.41036 5.63425 9.40153C5.47516 9.39271 5.31871 9.44498 5.19687 9.54766L4.23359 10.4633C4.23002 10.4665 4.22662 10.4699 4.22344 10.4734C3.52964 11.1786 3.1426 12.1294 3.14663 13.1187C3.15065 14.1079 3.54542 15.0555 4.24494 15.7551C4.94446 16.4546 5.89206 16.8493 6.88132 16.8534C7.87059 16.8574 8.82137 16.4704 9.52656 15.7766C9.53014 15.7734 9.53353 15.77 9.53672 15.7664L10.4523 14.8063C10.5146 14.7481 10.5643 14.6778 10.5984 14.5997C10.6325 14.5216 10.6502 14.4374 10.6506 14.3522C10.6509 14.267 10.6338 14.1826 10.6004 14.1042C10.5669 14.0259 10.5178 13.9552 10.456 13.8965C10.3942 13.8378 10.3211 13.7924 10.2412 13.763C10.1612 13.7336 10.076 13.7209 9.99096 13.7256C9.90589 13.7303 9.82268 13.7524 9.74645 13.7904C9.67021 13.8285 9.60256 13.8817 9.54766 13.9469V13.9437ZM16.25 11.875H14.375C14.2092 11.875 14.0503 11.9408 13.9331 12.0581C13.8158 12.1753 13.75 12.3342 13.75 12.5C13.75 12.6658 13.8158 12.8247 13.9331 12.9419C14.0503 13.0592 14.2092 13.125 14.375 13.125H16.25C16.4158 13.125 16.5747 13.0592 16.6919 12.9419C16.8092 12.8247 16.875 12.6658 16.875 12.5C16.875 12.3342 16.8092 12.1753 16.6919 12.0581C16.5747 11.9408 16.4158 11.875 16.25 11.875ZM3.75 8.125H5.625C5.79076 8.125 5.94973 8.05915 6.06694 7.94194C6.18415 7.82473 6.25 7.66576 6.25 7.5C6.25 7.33424 6.18415 7.17527 6.06694 7.05806C5.94973 6.94085 5.79076 6.875 5.625 6.875H3.75C3.58424 6.875 3.42527 6.94085 3.30806 7.05806C3.19085 7.17527 3.125 7.33424 3.125 7.5C3.125 7.66576 3.19085 7.82473 3.30806 7.94194C3.42527 8.05915 3.58424 8.125 3.75 8.125ZM12.5 13.75C12.3342 13.75 12.1753 13.8158 12.0581 13.9331C11.9408 14.0503 11.875 14.2092 11.875 14.375V16.25C11.875 16.4158 11.9408 16.5747 12.0581 16.6919C12.1753 16.8092 12.3342 16.875 12.5 16.875C12.6658 16.875 12.8247 16.8092 12.9419 16.6919C13.0592 16.5747 13.125 16.4158 13.125 16.25V14.375C13.125 14.2092 13.0592 14.0503 12.9419 13.9331C12.8247 13.8158 12.6658 13.75 12.5 13.75ZM7.5 6.25C7.66576 6.25 7.82473 6.18415 7.94194 6.06694C8.05915 5.94973 8.125 5.79076 8.125 5.625V3.75C8.125 3.58424 8.05915 3.42527 7.94194 3.30806C7.82473 3.19085 7.66576 3.125 7.5 3.125C7.33424 3.125 7.17527 3.19085 7.05806 3.30806C6.94085 3.42527 6.875 3.58424 6.875 3.75V5.625C6.875 5.79076 6.94085 5.94973 7.05806 6.06694C7.17527 6.18415 7.33424 6.25 7.5 6.25Z" fill="#191F2E"/>
</svg>
