<svg width="20" height="20" viewBox="0 0 20 20" fill="none" xmlns="http://www.w3.org/2000/svg">
<path d="M16.25 2.5H3.75C3.41848 2.5 3.10054 2.6317 2.86612 2.86612C2.6317 3.10054 2.5 3.41848 2.5 3.75V16.25C2.5 16.5815 2.6317 16.8995 2.86612 17.1339C3.10054 17.3683 3.41848 17.5 3.75 17.5H16.25C16.5815 17.5 16.8995 17.3683 17.1339 17.1339C17.3683 16.8995 17.5 16.5815 17.5 16.25V3.75C17.5 3.41848 17.3683 3.10054 17.1339 2.86612C16.8995 2.6317 16.5815 2.5 16.25 2.5ZM10.0445 14.8172L9.61797 15.243C8.9705 15.8736 8.1007 16.2239 7.19688 16.2179C6.29306 16.212 5.42794 15.8503 4.78883 15.2112C4.14972 14.5721 3.78804 13.7069 3.78209 12.8031C3.77613 11.8993 4.12639 11.0295 4.75703 10.382L6.63203 8.50703C7.19493 7.9456 7.93474 7.59622 8.72592 7.51819C9.51711 7.44015 10.3109 7.63826 10.9727 8.07891C11.1104 8.17111 11.206 8.31427 11.2382 8.4769C11.2704 8.63953 11.2367 8.80831 11.1445 8.94609C11.0523 9.08388 10.9092 9.1794 10.7465 9.21163C10.5839 9.24386 10.4151 9.21017 10.2773 9.11797C9.85651 8.83698 9.35128 8.71058 8.84771 8.76029C8.34414 8.81001 7.87338 9.03277 7.51562 9.39062L5.64062 11.2656C5.23037 11.6759 4.99989 12.2323 4.99989 12.8125C4.99989 13.3927 5.23037 13.9491 5.64062 14.3594C6.05088 14.7696 6.60731 15.0001 7.1875 15.0001C7.76769 15.0001 8.32412 14.7696 8.73438 14.3594L9.16016 13.9328C9.27743 13.8155 9.43649 13.7497 9.60234 13.7497C9.7682 13.7497 9.92726 13.8155 10.0445 13.9328C10.1618 14.0501 10.2277 14.2091 10.2277 14.375C10.2277 14.5409 10.1618 14.6999 10.0445 14.8172ZM15.243 9.61797L13.368 11.493C12.8051 12.0544 12.0653 12.4038 11.2741 12.4818C10.4829 12.5598 9.68908 12.3617 9.02734 11.9211C8.88956 11.8289 8.79404 11.6857 8.76181 11.5231C8.72957 11.3605 8.76326 11.1917 8.85547 11.0539C8.94767 10.9161 9.09084 10.8206 9.25347 10.7884C9.4161 10.7561 9.58487 10.7898 9.72266 10.882C10.1438 11.1622 10.6488 11.288 11.1522 11.2383C11.6555 11.1887 12.1262 10.9664 12.4844 10.6094L14.3594 8.73438C14.7696 8.32412 15.0001 7.76769 15.0001 7.1875C15.0001 6.60731 14.7696 6.05088 14.3594 5.64062C13.9491 5.23037 13.3927 4.99989 12.8125 4.99989C12.2323 4.99989 11.6759 5.23037 11.2656 5.64062L10.8398 6.06719C10.7226 6.18446 10.5635 6.25035 10.3977 6.25035C10.2318 6.25035 10.0727 6.18446 9.95547 6.06719C9.83819 5.94991 9.77231 5.79085 9.77231 5.625C9.77231 5.45915 9.83819 5.30009 9.95547 5.18281L10.382 4.75703C11.0295 4.12639 11.8993 3.77613 12.8031 3.78209C13.7069 3.78804 14.5721 4.14972 15.2112 4.78883C15.8503 5.42794 16.212 6.29306 16.2179 7.19688C16.2239 8.1007 15.8736 8.9705 15.243 9.61797Z" fill="#191F2E"/>
</svg>
