<svg width="20" height="20" viewBox="0 0 20 20" fill="none" xmlns="http://www.w3.org/2000/svg">
<path d="M16.875 1.5625H3.125C2.7106 1.5625 2.31317 1.72712 2.02015 2.02015C1.72712 2.31317 1.5625 2.7106 1.5625 3.125V16.875C1.5625 17.2894 1.72712 17.6868 2.02015 17.9799C2.31317 18.2729 2.7106 18.4375 3.125 18.4375H16.875C17.2894 18.4375 17.6868 18.2729 17.9799 17.9799C18.2729 17.6868 18.4375 17.2894 18.4375 16.875V3.125C18.4375 2.7106 18.2729 2.31317 17.9799 2.02015C17.6868 1.72712 17.2894 1.5625 16.875 1.5625ZM16.5625 16.5625H3.4375V3.4375H16.5625V16.5625ZM8.75 13.75V9.6875C8.75018 9.49267 8.81106 9.30274 8.92417 9.14411C9.03728 8.98547 9.197 8.86602 9.38113 8.80235C9.56526 8.73868 9.76466 8.73396 9.9516 8.78885C10.1385 8.84373 10.3037 8.95549 10.4242 9.10859C10.9004 8.859 11.4329 8.73648 11.9703 8.75287C12.5077 8.76926 13.0317 8.92402 13.4918 9.20217C13.9519 9.48032 14.3324 9.87246 14.5966 10.3407C14.8608 10.8089 14.9998 11.3374 15 11.875V13.75C15 13.9986 14.9012 14.2371 14.7254 14.4129C14.5496 14.5887 14.3111 14.6875 14.0625 14.6875C13.8139 14.6875 13.5754 14.5887 13.3996 14.4129C13.2238 14.2371 13.125 13.9986 13.125 13.75V11.875C13.125 11.5435 12.9933 11.2255 12.7589 10.9911C12.5245 10.7567 12.2065 10.625 11.875 10.625C11.5435 10.625 11.2255 10.7567 10.9911 10.9911C10.7567 11.2255 10.625 11.5435 10.625 11.875V13.75C10.625 13.9986 10.5262 14.2371 10.3504 14.4129C10.1746 14.5887 9.93614 14.6875 9.6875 14.6875C9.43886 14.6875 9.2004 14.5887 9.02459 14.4129C8.84877 14.2371 8.75 13.9986 8.75 13.75ZM7.5 9.6875V13.75C7.5 13.9986 7.40123 14.2371 7.22541 14.4129C7.0496 14.5887 6.81114 14.6875 6.5625 14.6875C6.31386 14.6875 6.0754 14.5887 5.89959 14.4129C5.72377 14.2371 5.625 13.9986 5.625 13.75V9.6875C5.625 9.43886 5.72377 9.2004 5.89959 9.02459C6.0754 8.84877 6.31386 8.75 6.5625 8.75C6.81114 8.75 7.0496 8.84877 7.22541 9.02459C7.40123 9.2004 7.5 9.43886 7.5 9.6875ZM5.3125 6.25C5.3125 6.00277 5.38581 5.7611 5.52316 5.55554C5.66051 5.34998 5.85574 5.18976 6.08415 5.09515C6.31255 5.00054 6.56389 4.97579 6.80636 5.02402C7.04884 5.07225 7.27157 5.1913 7.44638 5.36612C7.6212 5.54093 7.74025 5.76366 7.78848 6.00614C7.83671 6.24861 7.81196 6.49995 7.71735 6.72835C7.62274 6.95676 7.46252 7.15199 7.25696 7.28934C7.0514 7.42669 6.80973 7.5 6.5625 7.5C6.23098 7.5 5.91304 7.3683 5.67862 7.13388C5.4442 6.89946 5.3125 6.58152 5.3125 6.25Z" fill="#191F2E"/>
</svg>
