<svg width="20" height="20" viewBox="0 0 20 20" fill="none" xmlns="http://www.w3.org/2000/svg">
<path d="M17.5 3.75H2.5C2.16848 3.75 1.85054 3.8817 1.61612 4.11612C1.3817 4.35054 1.25 4.66848 1.25 5V15C1.25 15.3315 1.3817 15.6495 1.61612 15.8839C1.85054 16.1183 2.16848 16.25 2.5 16.25H17.5C17.8315 16.25 18.1495 16.1183 18.3839 15.8839C18.6183 15.6495 18.75 15.3315 18.75 15V5C18.75 4.66848 18.6183 4.35054 18.3839 4.11612C18.1495 3.8817 17.8315 3.75 17.5 3.75ZM8.75 13.125H6.25C5.4212 13.125 4.62634 12.7958 4.04029 12.2097C3.45424 11.6237 3.125 10.8288 3.125 10C3.125 9.1712 3.45424 8.37634 4.04029 7.79029C4.62634 7.20424 5.4212 6.875 6.25 6.875H8.75C8.91576 6.875 9.07473 6.94085 9.19194 7.05806C9.30915 7.17527 9.375 7.33424 9.375 7.5C9.375 7.66576 9.30915 7.82473 9.19194 7.94194C9.07473 8.05915 8.91576 8.125 8.75 8.125H6.25C5.75272 8.125 5.27581 8.32254 4.92417 8.67417C4.57254 9.02581 4.375 9.50272 4.375 10C4.375 10.4973 4.57254 10.9742 4.92417 11.3258C5.27581 11.6775 5.75272 11.875 6.25 11.875H8.75C8.91576 11.875 9.07473 11.9408 9.19194 12.0581C9.30915 12.1753 9.375 12.3342 9.375 12.5C9.375 12.6658 9.30915 12.8247 9.19194 12.9419C9.07473 13.0592 8.91576 13.125 8.75 13.125ZM12.5 9.375C12.6658 9.375 12.8247 9.44085 12.9419 9.55806C13.0592 9.67527 13.125 9.83424 13.125 10C13.125 10.1658 13.0592 10.3247 12.9419 10.4419C12.8247 10.5592 12.6658 10.625 12.5 10.625H7.5C7.33424 10.625 7.17527 10.5592 7.05806 10.4419C6.94085 10.3247 6.875 10.1658 6.875 10C6.875 9.83424 6.94085 9.67527 7.05806 9.55806C7.17527 9.44085 7.33424 9.375 7.5 9.375H12.5ZM13.75 13.125H11.25C11.0842 13.125 10.9253 13.0592 10.8081 12.9419C10.6908 12.8247 10.625 12.6658 10.625 12.5C10.625 12.3342 10.6908 12.1753 10.8081 12.0581C10.9253 11.9408 11.0842 11.875 11.25 11.875H13.75C14.2473 11.875 14.7242 11.6775 15.0758 11.3258C15.4275 10.9742 15.625 10.4973 15.625 10C15.625 9.50272 15.4275 9.02581 15.0758 8.67417C14.7242 8.32254 14.2473 8.125 13.75 8.125H11.25C11.0842 8.125 10.9253 8.05915 10.8081 7.94194C10.6908 7.82473 10.625 7.66576 10.625 7.5C10.625 7.33424 10.6908 7.17527 10.8081 7.05806C10.9253 6.94085 11.0842 6.875 11.25 6.875H13.75C14.5788 6.875 15.3737 7.20424 15.9597 7.79029C16.5458 8.37634 16.875 9.1712 16.875 10C16.875 10.8288 16.5458 11.6237 15.9597 12.2097C15.3737 12.7958 14.5788 13.125 13.75 13.125Z" fill="#191F2E"/>
</svg>
