<svg width="20" height="20" viewBox="0 0 20 20" fill="none" xmlns="http://www.w3.org/2000/svg">
<path d="M10.6539 14.6508C10.7413 14.7379 10.8107 14.8413 10.858 14.9553C10.9053 15.0693 10.9297 15.1914 10.9297 15.3148C10.9297 15.4382 10.9053 15.5604 10.858 15.6743C10.8107 15.7883 10.7413 15.8918 10.6539 15.9789L10.1899 16.4429C9.31051 17.3223 8.11784 17.8163 6.87424 17.8163C5.63064 17.8163 4.43798 17.3223 3.55862 16.4429C2.67926 15.5636 2.18524 14.3709 2.18524 13.1273C2.18524 11.8837 2.67926 10.691 3.55862 9.81169L5.44299 7.9281C6.2879 7.0811 7.42469 6.58921 8.62051 6.55319C9.81633 6.51717 10.9807 6.93974 11.875 7.73435C11.9674 7.81642 12.0426 7.91588 12.0965 8.02705C12.1504 8.13821 12.1819 8.2589 12.1892 8.38223C12.1964 8.50556 12.1793 8.62911 12.1388 8.74582C12.0983 8.86254 12.0352 8.97014 11.9531 9.06247C11.8711 9.15481 11.7716 9.23007 11.6604 9.28397C11.5493 9.33787 11.4286 9.36934 11.3053 9.3766C11.1819 9.38385 11.0584 9.36675 10.9417 9.32625C10.825 9.28576 10.7174 9.22267 10.625 9.1406C10.0887 8.66429 9.39068 8.4109 8.67371 8.43224C7.95674 8.45359 7.27502 8.74807 6.76799 9.25544L4.88518 11.1367C4.35765 11.6642 4.06128 12.3797 4.06128 13.1258C4.06128 13.8718 4.35765 14.5873 4.88518 15.1148C5.41271 15.6423 6.1282 15.9387 6.87424 15.9387C7.62029 15.9387 8.33577 15.6423 8.86331 15.1148L9.32737 14.6508C9.41444 14.5636 9.51783 14.4944 9.63164 14.4473C9.74545 14.4001 9.86745 14.3758 9.99065 14.3758C10.1139 14.3758 10.2358 14.4001 10.3497 14.4473C10.4635 14.4944 10.5669 14.5636 10.6539 14.6508ZM16.4414 3.557C15.5614 2.679 14.369 2.18591 13.1258 2.18591C11.8827 2.18591 10.6903 2.679 9.81018 3.557L9.34612 4.02107C9.17 4.19719 9.07105 4.43606 9.07106 4.68513C9.07106 4.9342 9.17 5.17307 9.34612 5.34919C9.52224 5.52531 9.76111 5.62426 10.0102 5.62426C10.2593 5.62426 10.4981 5.52531 10.6742 5.34919L11.1383 4.88513C11.6658 4.3576 12.3813 4.06123 13.1274 4.06123C13.8734 4.06123 14.5889 4.3576 15.1164 4.88513C15.644 5.41266 15.9403 6.12815 15.9403 6.87419C15.9403 7.62023 15.644 8.33572 15.1164 8.86325L13.2328 10.7476C12.7254 11.2548 12.0433 11.5488 11.3261 11.5696C10.609 11.5904 9.91099 11.3363 9.37502 10.8593C9.28269 10.7773 9.17509 10.7142 9.05837 10.6737C8.94166 10.6332 8.81811 10.6161 8.69478 10.6233C8.57145 10.6306 8.45076 10.6621 8.3396 10.716C8.22844 10.7699 8.12898 10.8451 8.0469 10.9375C7.96482 11.0298 7.90174 11.1374 7.86125 11.2541C7.82075 11.3708 7.80364 11.4944 7.8109 11.6177C7.81815 11.741 7.84963 11.8617 7.90353 11.9729C7.95742 12.0841 8.03269 12.1835 8.12502 12.2656C9.01876 13.06 10.1823 13.4829 11.3776 13.4476C12.5728 13.4123 13.7094 12.9215 14.5547 12.0758L16.4391 10.1922C17.3181 9.3123 17.8121 8.11957 17.8125 6.87585C17.813 5.63212 17.3198 4.43905 16.4414 3.55857V3.557Z" fill="#191F2E"/>
</svg>
