<svg width="20" height="20" viewBox="0 0 20 20" fill="none" xmlns="http://www.w3.org/2000/svg">
<path d="M12.9422 7.05776C13.0003 7.11581 13.0464 7.18474 13.0778 7.26061C13.1093 7.33649 13.1255 7.41781 13.1255 7.49995C13.1255 7.58208 13.1093 7.66341 13.0778 7.73929C13.0464 7.81516 13.0003 7.88409 12.9422 7.94214L7.94217 12.9421C7.8841 13.0002 7.81516 13.0463 7.73929 13.0777C7.66342 13.1091 7.5821 13.1253 7.49998 13.1253C7.41786 13.1253 7.33654 13.1091 7.26067 13.0777C7.1848 13.0463 7.11586 13.0002 7.05779 12.9421C6.99972 12.8841 6.95366 12.8151 6.92223 12.7393C6.89081 12.6634 6.87463 12.5821 6.87463 12.4999C6.87463 12.4178 6.89081 12.3365 6.92223 12.2606C6.95366 12.1848 6.99972 12.1158 7.05779 12.0578L12.0578 7.05776C12.1158 6.99965 12.1848 6.95355 12.2606 6.9221C12.3365 6.89065 12.4178 6.87446 12.5 6.87446C12.5821 6.87446 12.6634 6.89065 12.7393 6.9221C12.8152 6.95355 12.8841 6.99965 12.9422 7.05776ZM16.8437 3.1562C16.4375 2.7499 15.9551 2.4276 15.4243 2.2077C14.8935 1.98781 14.3245 1.87463 13.75 1.87463C13.1754 1.87463 12.6065 1.98781 12.0756 2.2077C11.5448 2.4276 11.0625 2.7499 10.6562 3.1562L8.30779 5.50385C8.19052 5.62113 8.12463 5.78019 8.12463 5.94604C8.12463 6.1119 8.19052 6.27095 8.30779 6.38823C8.42507 6.50551 8.58413 6.57139 8.74998 6.57139C8.91583 6.57139 9.07489 6.50551 9.19217 6.38823L11.5406 4.04448C12.1288 3.46921 12.9201 3.1491 13.7429 3.15363C14.5656 3.15816 15.3533 3.48697 15.9352 4.06868C16.517 4.6504 16.8459 5.43809 16.8506 6.26082C16.8553 7.08355 16.5353 7.87494 15.9601 8.46323L13.6109 10.8117C13.4936 10.9288 13.4277 11.0878 13.4276 11.2536C13.4276 11.4194 13.4934 11.5784 13.6105 11.6957C13.7277 11.8129 13.8867 11.8789 14.0524 11.8789C14.2182 11.879 14.3772 11.8132 14.4945 11.696L16.8437 9.3437C17.25 8.93744 17.5723 8.45512 17.7922 7.92429C18.0121 7.39346 18.1253 6.82452 18.1253 6.24995C18.1253 5.67538 18.0121 5.10643 17.7922 4.57561C17.5723 4.04478 17.25 3.56246 16.8437 3.1562ZM10.8078 13.6109L8.45935 15.9593C8.17035 16.2548 7.8256 16.49 7.44507 16.6514C7.06453 16.8127 6.65578 16.897 6.24246 16.8992C5.82914 16.9015 5.41948 16.8218 5.03719 16.6646C4.6549 16.5075 4.30758 16.2761 4.01534 15.9838C3.72311 15.6915 3.49175 15.3441 3.33469 14.9618C3.17762 14.5795 3.09795 14.1698 3.1003 13.7565C3.10265 13.3432 3.18697 12.9345 3.34837 12.554C3.50978 12.1734 3.74506 11.8287 4.0406 11.5398L6.38826 9.19214C6.50554 9.07486 6.57142 8.9158 6.57142 8.74995C6.57142 8.5841 6.50554 8.42504 6.38826 8.30776C6.27098 8.19049 6.11193 8.1246 5.94607 8.1246C5.78022 8.1246 5.62116 8.19049 5.50388 8.30776L3.15623 10.6562C2.33572 11.4767 1.87476 12.5896 1.87476 13.7499C1.87476 14.9103 2.33572 16.0232 3.15623 16.8437C3.97674 17.6642 5.0896 18.1252 6.24998 18.1252C7.41036 18.1252 8.52322 17.6642 9.34373 16.8437L11.6922 14.4945C11.8093 14.3772 11.8751 14.2182 11.875 14.0524C11.875 13.8866 11.809 13.7277 11.6918 13.6105C11.5745 13.4933 11.4155 13.4275 11.2497 13.4276C11.0839 13.4277 10.925 13.4936 10.8078 13.6109Z" fill="#191F2E"/>
</svg>
