<svg width="20" height="20" viewBox="0 0 20 20" fill="none" xmlns="http://www.w3.org/2000/svg">
<path d="M17.0664 9.56487L14.7164 11.9133C14.5403 12.0894 14.3014 12.1884 14.0523 12.1884C13.8033 12.1884 13.5644 12.0894 13.3883 11.9133C13.2122 11.7372 13.1132 11.4983 13.1132 11.2492C13.1132 11.0002 13.2122 10.7613 13.3883 10.5852L15.7383 8.23597C16.2658 7.70833 16.5621 6.99274 16.5621 6.24663C16.562 5.50051 16.2655 4.78498 15.7379 4.25745C15.2102 3.72992 14.4947 3.4336 13.7485 3.43367C13.0024 3.43374 12.2869 3.73021 11.7594 4.25784L9.41249 6.60862C9.23637 6.78474 8.9975 6.88369 8.74843 6.88369C8.49936 6.88369 8.26049 6.78474 8.08437 6.60862C7.90825 6.4325 7.8093 6.19363 7.8093 5.94456C7.8093 5.69549 7.90825 5.45662 8.08437 5.2805L10.4336 2.93206C11.3129 2.05281 12.5056 1.55889 13.7491 1.55896C14.9926 1.55903 16.1852 2.05309 17.0644 2.93245C17.9437 3.81181 18.4376 5.00443 18.4375 6.24796C18.4375 7.49149 17.9434 8.68406 17.0641 9.56331L17.0664 9.56487ZM10.5875 13.393L8.23827 15.743C7.97702 16.0042 7.66687 16.2114 7.32553 16.3527C6.9842 16.4941 6.61837 16.5668 6.24894 16.5668C5.8795 16.5667 5.51368 16.4939 5.17238 16.3525C4.83107 16.2111 4.52097 16.0039 4.25976 15.7426C3.73223 15.215 3.4359 14.4994 3.43598 13.7533C3.43605 13.0072 3.73251 12.2916 4.26015 11.7641L6.60859 9.41487C6.78471 9.23875 6.88365 8.99988 6.88365 8.75081C6.88365 8.50174 6.78471 8.26287 6.60859 8.08675C6.43247 7.91063 6.1936 7.81168 5.94452 7.81168C5.69545 7.81168 5.45658 7.91063 5.28046 8.08675L2.93359 10.436C2.49822 10.8714 2.15289 11.3883 1.91729 11.9572C1.68169 12.526 1.56045 13.1357 1.56049 13.7515C1.56056 14.995 2.05462 16.1876 2.93398 17.0668C3.81334 17.9461 5.00596 18.44 6.24949 18.4399C7.49302 18.4399 8.68558 17.9458 9.56484 17.0664L11.9133 14.7172C12.0894 14.5411 12.1883 14.3022 12.1883 14.0532C12.1883 13.8041 12.0894 13.5652 11.9133 13.3891C11.7372 13.213 11.4983 13.114 11.2492 13.114C11.0001 13.114 10.7613 13.213 10.5851 13.3891L10.5875 13.393Z" fill="#191F2E"/>
</svg>
