<svg width="20" height="20" viewBox="0 0 20 20" fill="none" xmlns="http://www.w3.org/2000/svg">
<path d="M1.875 10C1.875 10.8288 2.20424 11.6237 2.79029 12.2097C3.37634 12.7958 4.1712 13.125 5 13.125H8.125C8.29076 13.125 8.44973 13.1908 8.56694 13.3081C8.68415 13.4253 8.75 13.5842 8.75 13.75C8.75 13.9158 8.68415 14.0747 8.56694 14.1919C8.44973 14.3092 8.29076 14.375 8.125 14.375H5C3.83968 14.375 2.72688 13.9141 1.90641 13.0936C1.08594 12.2731 0.625 11.1603 0.625 10C0.625 8.83968 1.08594 7.72688 1.90641 6.90641C2.72688 6.08594 3.83968 5.625 5 5.625H8.125C8.29076 5.625 8.44973 5.69085 8.56694 5.80806C8.68415 5.92527 8.75 6.08424 8.75 6.25C8.75 6.41576 8.68415 6.57473 8.56694 6.69194C8.44973 6.80915 8.29076 6.875 8.125 6.875H5C4.1712 6.875 3.37634 7.20424 2.79029 7.79029C2.20424 8.37634 1.875 9.1712 1.875 10ZM15 5.625H11.875C11.7092 5.625 11.5503 5.69085 11.4331 5.80806C11.3158 5.92527 11.25 6.08424 11.25 6.25C11.25 6.41576 11.3158 6.57473 11.4331 6.69194C11.5503 6.80915 11.7092 6.875 11.875 6.875H15C15.8288 6.875 16.6237 7.20424 17.2097 7.79029C17.7958 8.37634 18.125 9.1712 18.125 10C18.125 10.8288 17.7958 11.6237 17.2097 12.2097C16.6237 12.7958 15.8288 13.125 15 13.125H11.875C11.7092 13.125 11.5503 13.1908 11.4331 13.3081C11.3158 13.4253 11.25 13.5842 11.25 13.75C11.25 13.9158 11.3158 14.0747 11.4331 14.1919C11.5503 14.3092 11.7092 14.375 11.875 14.375H15C16.1603 14.375 17.2731 13.9141 18.0936 13.0936C18.9141 12.2731 19.375 11.1603 19.375 10C19.375 8.83968 18.9141 7.72688 18.0936 6.90641C17.2731 6.08594 16.1603 5.625 15 5.625Z" fill="#191F2E"/>
</svg>
