<svg width="20" height="20" viewBox="0 0 20 20" fill="none" xmlns="http://www.w3.org/2000/svg">
<path d="M17.8906 17.3633C17.7612 17.4667 17.596 17.5145 17.4314 17.4962C17.2667 17.4779 17.1161 17.395 17.0125 17.2656C16.9055 17.1305 14.375 13.8953 14.375 7.5C14.375 6.33968 13.9141 5.22688 13.0936 4.40641C12.2731 3.58594 11.1603 3.125 10 3.125C8.8397 3.125 7.7269 3.58594 6.90643 4.40641C6.08596 5.22688 5.62502 6.33968 5.62502 7.5C5.62502 13.8953 3.09612 17.1305 2.98831 17.2656C2.93701 17.3298 2.87357 17.3832 2.80162 17.4229C2.72967 17.4626 2.65061 17.4877 2.56896 17.4968C2.48731 17.5059 2.40467 17.4988 2.32575 17.476C2.24683 17.4531 2.17318 17.415 2.10901 17.3637C2.04484 17.3124 1.99139 17.2489 1.95174 17.177C1.91208 17.105 1.88698 17.026 1.87788 16.9443C1.86877 16.8627 1.87584 16.78 1.89867 16.7011C1.92151 16.6222 1.95966 16.5485 2.01096 16.4844C2.02268 16.4688 2.61174 15.7109 3.19299 14.2391C3.73206 12.875 4.37502 10.5969 4.37502 7.5C4.37502 6.00816 4.96766 4.57742 6.02255 3.52252C7.07744 2.46763 8.50818 1.875 10 1.875C11.4919 1.875 12.9226 2.46763 13.9775 3.52252C15.0324 4.57742 15.625 6.00816 15.625 7.5C15.625 10.5969 16.268 12.875 16.8071 14.2406C17.3914 15.7203 17.9836 16.4781 17.9899 16.4859C18.0929 16.6155 18.1403 16.7806 18.1217 16.9451C18.1031 17.1096 18.02 17.26 17.8906 17.3633ZM7.81252 7.5C7.6271 7.5 7.44585 7.55498 7.29168 7.658C7.13751 7.76101 7.01734 7.90743 6.94639 8.07873C6.87543 8.25004 6.85686 8.43854 6.89304 8.6204C6.92921 8.80225 7.0185 8.9693 7.14961 9.10041C7.28072 9.23152 7.44777 9.32081 7.62963 9.35699C7.81148 9.39316 7.99998 9.37459 8.17129 9.30364C8.3426 9.23268 8.48901 9.11252 8.59203 8.95835C8.69504 8.80418 8.75002 8.62292 8.75002 8.4375C8.75002 8.18886 8.65125 7.9504 8.47544 7.77459C8.29962 7.59877 8.06116 7.5 7.81252 7.5ZM13.125 8.4375C13.125 8.25208 13.07 8.07082 12.967 7.91665C12.864 7.76248 12.7176 7.64232 12.5463 7.57136C12.375 7.50041 12.1865 7.48184 12.0046 7.51801C11.8228 7.55419 11.6557 7.64348 11.5246 7.77459C11.3935 7.9057 11.3042 8.07275 11.268 8.2546C11.2319 8.43646 11.2504 8.62496 11.3214 8.79627C11.3923 8.96757 11.5125 9.11399 11.6667 9.217C11.8208 9.32002 12.0021 9.375 12.1875 9.375C12.4362 9.375 12.6746 9.27623 12.8504 9.10041C13.0263 8.9246 13.125 8.68614 13.125 8.4375ZM7.77971 10.6906C7.63193 10.6204 7.46252 10.611 7.30784 10.6643C7.15317 10.7176 7.02557 10.8295 6.95245 10.9758C6.87932 11.1222 6.8665 11.2914 6.91673 11.4471C6.96696 11.6028 7.07625 11.7326 7.22112 11.8086L9.72112 13.0586C9.80774 13.1023 9.9034 13.125 10.0004 13.125C10.0974 13.125 10.1931 13.1023 10.2797 13.0586L12.7797 11.8086C12.928 11.7344 13.0407 11.6044 13.0931 11.4471C13.1454 11.2898 13.1332 11.1182 13.059 10.9699C12.9848 10.8217 12.8548 10.709 12.6975 10.6566C12.5402 10.6042 12.3686 10.6164 12.2203 10.6906L10 11.8008L7.77971 10.6906ZM10 14.375C9.24789 14.381 8.511 14.5877 7.86549 14.9738C7.21997 15.3599 6.68925 15.9113 6.32815 16.5711C6.28824 16.6429 6.26287 16.7219 6.25348 16.8035C6.24409 16.8851 6.25087 16.9678 6.27343 17.0468C6.29599 17.1258 6.33389 17.1996 6.38497 17.2639C6.43605 17.3283 6.4993 17.382 6.57112 17.4219C6.64293 17.4618 6.72191 17.4872 6.80353 17.4965C6.88515 17.5059 6.96783 17.4992 7.04683 17.4766C7.12583 17.454 7.19962 17.4161 7.26397 17.3651C7.32833 17.314 7.38199 17.2507 7.4219 17.1789C7.67019 16.7105 8.04137 16.3187 8.49559 16.0453C8.94982 15.772 9.46991 15.6276 10 15.6276C10.5301 15.6276 11.0502 15.772 11.5045 16.0453C11.9587 16.3187 12.3299 16.7105 12.5781 17.1789C12.6181 17.2507 12.6717 17.314 12.7361 17.3651C12.8004 17.4161 12.8742 17.454 12.9532 17.4766C13.0322 17.4992 13.1149 17.5059 13.1965 17.4965C13.2781 17.4872 13.3571 17.4618 13.4289 17.4219C13.5007 17.382 13.564 17.3283 13.6151 17.2639C13.6662 17.1996 13.7041 17.1258 13.7266 17.0468C13.7492 16.9678 13.756 16.8851 13.7466 16.8035C13.7372 16.7219 13.7118 16.6429 13.6719 16.5711C13.3108 15.9113 12.7801 15.3599 12.1346 14.9738C11.489 14.5877 10.7522 14.381 10 14.375Z" fill="#191F2E"/>
</svg>
