<svg width="20" height="20" viewBox="0 0 20 20" fill="none" xmlns="http://www.w3.org/2000/svg">
<path d="M18.0852 17.6078C17.9889 17.6849 17.8783 17.7422 17.7598 17.7765C17.6413 17.8107 17.5172 17.8213 17.3946 17.8075C17.272 17.7937 17.1534 17.7558 17.0454 17.6961C16.9375 17.6364 16.8424 17.5559 16.7656 17.4594C16.6555 17.3219 14.0625 14.0031 14.0625 7.5C14.0625 6.42256 13.6345 5.38925 12.8726 4.62738C12.1108 3.86551 11.0775 3.4375 10 3.4375C8.92258 3.4375 7.88927 3.86551 7.1274 4.62738C6.36554 5.38925 5.93752 6.42256 5.93752 7.5C5.93752 14.0031 3.34299 17.3219 3.23284 17.4594C3.07795 17.6539 2.85213 17.779 2.60503 17.8071C2.35794 17.8351 2.10982 17.7639 1.91526 17.609C1.7207 17.4541 1.59563 17.2283 1.56757 16.9812C1.53952 16.7341 1.61077 16.486 1.76565 16.2914C1.7969 16.25 4.06252 13.2859 4.06252 7.5C4.06252 5.92528 4.68808 4.41505 5.80158 3.30155C6.91508 2.18806 8.4253 1.5625 10 1.5625C11.5747 1.5625 13.085 2.18806 14.1985 3.30155C15.312 4.41505 15.9375 5.92528 15.9375 7.5C15.9375 13.2961 18.211 16.2625 18.2344 16.2922C18.3888 16.4866 18.4597 16.7342 18.4318 16.9808C18.4038 17.2275 18.2791 17.4529 18.0852 17.6078ZM8.12502 10C8.37225 10 8.61393 9.92669 8.81949 9.78934C9.02505 9.65199 9.18526 9.45676 9.27987 9.22835C9.37448 8.99995 9.39924 8.74861 9.35101 8.50614C9.30277 8.26366 9.18372 8.04093 9.00891 7.86612C8.83409 7.6913 8.61136 7.57225 8.36889 7.52402C8.12641 7.47579 7.87508 7.50054 7.64667 7.59515C7.41826 7.68976 7.22304 7.84998 7.08569 8.05554C6.94834 8.2611 6.87502 8.50277 6.87502 8.75C6.87502 9.08152 7.00672 9.39946 7.24114 9.63388C7.47556 9.8683 7.7935 10 8.12502 10ZM13.125 8.75C13.125 8.50277 13.0517 8.2611 12.9144 8.05554C12.777 7.84998 12.5818 7.68976 12.3534 7.59515C12.125 7.50054 11.8736 7.47579 11.6312 7.52402C11.3887 7.57225 11.166 7.6913 10.9911 7.86612C10.8163 8.04093 10.6973 8.26366 10.649 8.50614C10.6008 8.74861 10.6256 8.99995 10.7202 9.22835C10.8148 9.45676 10.975 9.65199 11.1806 9.78934C11.3861 9.92669 11.6278 10 11.875 10C12.2065 10 12.5245 9.8683 12.7589 9.63388C12.9933 9.39946 13.125 9.08152 13.125 8.75ZM7.44221 12.7344L9.62971 13.6719C9.74636 13.7218 9.87195 13.7476 9.99885 13.7476C10.1258 13.7476 10.2513 13.7218 10.368 13.6719L12.5555 12.7344C12.7668 12.6259 12.9291 12.4413 13.0095 12.2178C13.09 11.9943 13.0825 11.7486 12.9888 11.5303C12.8951 11.3121 12.7219 11.1375 12.5045 11.042C12.287 10.9465 12.0414 10.937 11.8172 11.0156L9.99924 11.7969L8.18127 11.0156C7.95697 10.9363 7.71088 10.9452 7.49289 11.0405C7.2749 11.1359 7.10132 11.3105 7.00733 11.5291C6.91334 11.7477 6.90597 11.9938 6.98673 12.2176C7.06748 12.4414 7.23031 12.6262 7.44221 12.7344ZM10 15C8.88042 15.0017 7.80236 15.4241 6.97971 16.1836C6.79644 16.3517 6.68748 16.5858 6.67678 16.8343C6.66608 17.0828 6.75454 17.3253 6.92268 17.5086C7.09082 17.6919 7.32488 17.8008 7.57337 17.8115C7.82186 17.8222 8.06441 17.7338 8.24768 17.5656C8.72308 17.1218 9.34924 16.8749 9.99963 16.8749C10.65 16.8749 11.2762 17.1218 11.7516 17.5656C11.8423 17.6489 11.9486 17.7134 12.0643 17.7556C12.18 17.7978 12.3029 17.8168 12.4259 17.8115C12.5489 17.8062 12.6697 17.7768 12.7814 17.7248C12.893 17.6728 12.9933 17.5993 13.0766 17.5086C13.1598 17.4178 13.2244 17.3116 13.2666 17.1959C13.3088 17.0802 13.3278 16.9573 13.3225 16.8343C13.3172 16.7112 13.2877 16.5905 13.2357 16.4788C13.1838 16.3672 13.1103 16.2668 13.0196 16.1836C12.1972 15.4242 11.1194 15.0017 10 15Z" fill="#191F2E"/>
</svg>
