<svg width="20" height="20" viewBox="0 0 20 20" fill="none" xmlns="http://www.w3.org/2000/svg">
<path d="M2.5 5.625V4.375C2.5 4.20924 2.56585 4.05027 2.68306 3.93306C2.80027 3.81585 2.95924 3.75 3.125 3.75H16.875C17.0408 3.75 17.1997 3.81585 17.3169 3.93306C17.4342 4.05027 17.5 4.20924 17.5 4.375V5.625C17.5 5.79076 17.4342 5.94973 17.3169 6.06694C17.1997 6.18415 17.0408 6.25 16.875 6.25H3.125C2.95924 6.25 2.80027 6.18415 2.68306 6.06694C2.56585 5.94973 2.5 5.79076 2.5 5.625ZM3.125 11.25H16.875C17.0408 11.25 17.1997 11.1842 17.3169 11.0669C17.4342 10.9497 17.5 10.7908 17.5 10.625V9.375C17.5 9.20924 17.4342 9.05027 17.3169 8.93306C17.1997 8.81585 17.0408 8.75 16.875 8.75H3.125C2.95924 8.75 2.80027 8.81585 2.68306 8.93306C2.56585 9.05027 2.5 9.20924 2.5 9.375V10.625C2.5 10.7908 2.56585 10.9497 2.68306 11.0669C2.80027 11.1842 2.95924 11.25 3.125 11.25ZM11.875 13.75H3.125C2.95924 13.75 2.80027 13.8158 2.68306 13.9331C2.56585 14.0503 2.5 14.2092 2.5 14.375V15.625C2.5 15.7908 2.56585 15.9497 2.68306 16.0669C2.80027 16.1842 2.95924 16.25 3.125 16.25H11.875C12.0408 16.25 12.1997 16.1842 12.3169 16.0669C12.4342 15.9497 12.5 15.7908 12.5 15.625V14.375C12.5 14.2092 12.4342 14.0503 12.3169 13.9331C12.1997 13.8158 12.0408 13.75 11.875 13.75ZM18.125 14.375H16.875V13.125C16.875 12.9592 16.8092 12.8003 16.6919 12.6831C16.5747 12.5658 16.4158 12.5 16.25 12.5C16.0842 12.5 15.9253 12.5658 15.8081 12.6831C15.6908 12.8003 15.625 12.9592 15.625 13.125V14.375H14.375C14.2092 14.375 14.0503 14.4408 13.9331 14.5581C13.8158 14.6753 13.75 14.8342 13.75 15C13.75 15.1658 13.8158 15.3247 13.9331 15.4419C14.0503 15.5592 14.2092 15.625 14.375 15.625H15.625V16.875C15.625 17.0408 15.6908 17.1997 15.8081 17.3169C15.9253 17.4342 16.0842 17.5 16.25 17.5C16.4158 17.5 16.5747 17.4342 16.6919 17.3169C16.8092 17.1997 16.875 17.0408 16.875 16.875V15.625H18.125C18.2908 15.625 18.4497 15.5592 18.5669 15.4419C18.6842 15.3247 18.75 15.1658 18.75 15C18.75 14.8342 18.6842 14.6753 18.5669 14.5581C18.4497 14.4408 18.2908 14.375 18.125 14.375Z" fill="#191F2E"/>
</svg>
