<svg width="20" height="20" viewBox="0 0 20 20" fill="none" xmlns="http://www.w3.org/2000/svg">
<path d="M2.1875 5C2.1875 4.75136 2.28627 4.5129 2.46209 4.33709C2.6379 4.16127 2.87636 4.0625 3.125 4.0625H16.875C17.1236 4.0625 17.3621 4.16127 17.5379 4.33709C17.7137 4.5129 17.8125 4.75136 17.8125 5C17.8125 5.24864 17.7137 5.4871 17.5379 5.66291C17.3621 5.83873 17.1236 5.9375 16.875 5.9375H3.125C2.87636 5.9375 2.6379 5.83873 2.46209 5.66291C2.28627 5.4871 2.1875 5.24864 2.1875 5ZM3.125 10.9375H16.875C17.1236 10.9375 17.3621 10.8387 17.5379 10.6629C17.7137 10.4871 17.8125 10.2486 17.8125 10C17.8125 9.75136 17.7137 9.5129 17.5379 9.33709C17.3621 9.16127 17.1236 9.0625 16.875 9.0625H3.125C2.87636 9.0625 2.6379 9.16127 2.46209 9.33709C2.28627 9.5129 2.1875 9.75136 2.1875 10C2.1875 10.2486 2.28627 10.4871 2.46209 10.6629C2.6379 10.8387 2.87636 10.9375 3.125 10.9375ZM11.25 14.0625H3.125C2.87636 14.0625 2.6379 14.1613 2.46209 14.3371C2.28627 14.5129 2.1875 14.7514 2.1875 15C2.1875 15.2486 2.28627 15.4871 2.46209 15.6629C2.6379 15.8387 2.87636 15.9375 3.125 15.9375H11.25C11.4986 15.9375 11.7371 15.8387 11.9129 15.6629C12.0887 15.4871 12.1875 15.2486 12.1875 15C12.1875 14.7514 12.0887 14.5129 11.9129 14.3371C11.7371 14.1613 11.4986 14.0625 11.25 14.0625ZM18.125 14.0625H17.1875V13.125C17.1875 12.8764 17.0887 12.6379 16.9129 12.4621C16.7371 12.2863 16.4986 12.1875 16.25 12.1875C16.0014 12.1875 15.7629 12.2863 15.5871 12.4621C15.4113 12.6379 15.3125 12.8764 15.3125 13.125V14.0625H14.375C14.1264 14.0625 13.8879 14.1613 13.7121 14.3371C13.5363 14.5129 13.4375 14.7514 13.4375 15C13.4375 15.2486 13.5363 15.4871 13.7121 15.6629C13.8879 15.8387 14.1264 15.9375 14.375 15.9375H15.3125V16.875C15.3125 17.1236 15.4113 17.3621 15.5871 17.5379C15.7629 17.7137 16.0014 17.8125 16.25 17.8125C16.4986 17.8125 16.7371 17.7137 16.9129 17.5379C17.0887 17.3621 17.1875 17.1236 17.1875 16.875V15.9375H18.125C18.3736 15.9375 18.6121 15.8387 18.7879 15.6629C18.9637 15.4871 19.0625 15.2486 19.0625 15C19.0625 14.7514 18.9637 14.5129 18.7879 14.3371C18.6121 14.1613 18.3736 14.0625 18.125 14.0625Z" fill="#191F2E"/>
</svg>
