<svg width="20" height="20" viewBox="0 0 20 20" fill="none" xmlns="http://www.w3.org/2000/svg">
<path d="M17.8125 9.99999C17.8125 10.2486 17.7137 10.4871 17.5379 10.6629C17.3621 10.8387 17.1236 10.9375 16.875 10.9375H9.06249C8.81385 10.9375 8.5754 10.8387 8.39958 10.6629C8.22377 10.4871 8.12499 10.2486 8.12499 9.99999C8.12499 9.75135 8.22377 9.51289 8.39958 9.33708C8.5754 9.16126 8.81385 9.06249 9.06249 9.06249H16.875C17.1236 9.06249 17.3621 9.16126 17.5379 9.33708C17.7137 9.51289 17.8125 9.75135 17.8125 9.99999ZM9.06249 5.93749H16.875C17.1236 5.93749 17.3621 5.83872 17.5379 5.6629C17.7137 5.48709 17.8125 5.24863 17.8125 4.99999C17.8125 4.75135 17.7137 4.51289 17.5379 4.33708C17.3621 4.16126 17.1236 4.06249 16.875 4.06249H9.06249C8.81385 4.06249 8.5754 4.16126 8.39958 4.33708C8.22377 4.51289 8.12499 4.75135 8.12499 4.99999C8.12499 5.24863 8.22377 5.48709 8.39958 5.6629C8.5754 5.83872 8.81385 5.93749 9.06249 5.93749ZM16.875 14.0625H9.06249C8.81385 14.0625 8.5754 14.1613 8.39958 14.3371C8.22377 14.5129 8.12499 14.7513 8.12499 15C8.12499 15.2486 8.22377 15.4871 8.39958 15.6629C8.5754 15.8387 8.81385 15.9375 9.06249 15.9375H16.875C17.1236 15.9375 17.3621 15.8387 17.5379 15.6629C17.7137 15.4871 17.8125 15.2486 17.8125 15C17.8125 14.7513 17.7137 14.5129 17.5379 14.3371C17.3621 14.1613 17.1236 14.0625 16.875 14.0625ZM3.43749 4.63358V8.12499C3.43749 8.37363 3.53627 8.61209 3.71208 8.7879C3.8879 8.96372 4.12635 9.06249 4.37499 9.06249C4.62363 9.06249 4.86209 8.96372 5.03791 8.7879C5.21372 8.61209 5.31249 8.37363 5.31249 8.12499V3.12499C5.31241 2.96528 5.27152 2.80823 5.19371 2.66876C5.1159 2.52928 5.00375 2.41199 4.8679 2.32802C4.73204 2.24405 4.57699 2.19618 4.41744 2.18895C4.25789 2.18172 4.09914 2.21537 3.95624 2.28671L2.70624 2.91171C2.49933 3.02199 2.34124 3.2058 2.26318 3.42689C2.18511 3.64799 2.19272 3.89031 2.28452 4.10607C2.37631 4.32182 2.54562 4.49535 2.75905 4.59242C2.97249 4.68949 3.21455 4.70306 3.43749 4.63046V4.63358ZM6.5414 12.2008C6.50123 11.9117 6.40301 11.6337 6.25264 11.3836C6.10226 11.1335 5.90285 10.9164 5.6664 10.7453C5.19501 10.4032 4.6096 10.2565 4.03258 10.336C3.45556 10.4155 2.93162 10.715 2.57031 11.1719C2.43166 11.35 2.32174 11.5488 2.24453 11.7609C2.16313 11.9937 2.1767 12.2491 2.28231 12.4719C2.38791 12.6947 2.57705 12.867 2.80874 12.9513C3.04043 13.0357 3.29603 13.0254 3.52017 12.9226C3.74431 12.8199 3.91895 12.6329 4.00624 12.4023C4.01749 12.3742 4.03275 12.3479 4.05156 12.3242C4.11212 12.2509 4.19839 12.2034 4.29276 12.1915C4.38713 12.1796 4.48249 12.2041 4.55937 12.2601C4.5932 12.2835 4.62183 12.3136 4.64347 12.3486C4.66512 12.3835 4.67931 12.4226 4.68515 12.4633C4.69039 12.5015 4.68775 12.5405 4.67741 12.5777C4.66707 12.6149 4.64923 12.6496 4.62499 12.6797L4.61484 12.693L2.37421 15.6891C2.27016 15.8284 2.20691 15.9939 2.19155 16.1672C2.17618 16.3404 2.2093 16.5145 2.28721 16.67C2.36511 16.8254 2.48472 16.9562 2.63268 17.0476C2.78063 17.139 2.95109 17.1874 3.12499 17.1875H5.62499C5.87363 17.1875 6.11209 17.0887 6.28791 16.9129C6.46372 16.7371 6.56249 16.4986 6.56249 16.25C6.56249 16.0013 6.46372 15.7629 6.28791 15.5871C6.11209 15.4113 5.87363 15.3125 5.62499 15.3125H4.99999L6.11562 13.8195C6.29137 13.592 6.41962 13.3314 6.49276 13.0533C6.5659 12.7753 6.58244 12.4854 6.5414 12.2008Z" fill="#191F2E"/>
</svg>
