<svg width="20" height="20" viewBox="0 0 20 20" fill="none" xmlns="http://www.w3.org/2000/svg">
<path d="M2.5 5C2.5 4.83424 2.56585 4.67527 2.68306 4.55806C2.80027 4.44085 2.95924 4.375 3.125 4.375H16.875C17.0408 4.375 17.1997 4.44085 17.3169 4.55806C17.4342 4.67527 17.5 4.83424 17.5 5C17.5 5.16576 17.4342 5.32473 17.3169 5.44194C17.1997 5.55915 17.0408 5.625 16.875 5.625H3.125C2.95924 5.625 2.80027 5.55915 2.68306 5.44194C2.56585 5.32473 2.5 5.16576 2.5 5ZM3.125 10.625H8.75C8.91576 10.625 9.07473 10.5592 9.19194 10.4419C9.30915 10.3247 9.375 10.1658 9.375 10C9.375 9.83424 9.30915 9.67527 9.19194 9.55806C9.07473 9.44085 8.91576 9.375 8.75 9.375H3.125C2.95924 9.375 2.80027 9.44085 2.68306 9.55806C2.56585 9.67527 2.5 9.83424 2.5 10C2.5 10.1658 2.56585 10.3247 2.68306 10.4419C2.80027 10.5592 2.95924 10.625 3.125 10.625ZM10 14.375H3.125C2.95924 14.375 2.80027 14.4408 2.68306 14.5581C2.56585 14.6753 2.5 14.8342 2.5 15C2.5 15.1658 2.56585 15.3247 2.68306 15.4419C2.80027 15.5592 2.95924 15.625 3.125 15.625H10C10.1658 15.625 10.3247 15.5592 10.4419 15.4419C10.5592 15.3247 10.625 15.1658 10.625 15C10.625 14.8342 10.5592 14.6753 10.4419 14.5581C10.3247 14.4408 10.1658 14.375 10 14.375ZM18.5672 14.5578L16.9812 12.9688C17.4076 12.3225 17.5789 11.541 17.4619 10.7757C17.345 10.0104 16.9481 9.31576 16.3482 8.82637C15.7483 8.33697 14.9881 8.08768 14.2149 8.1268C13.4417 8.16592 12.7105 8.49066 12.1631 9.0381C11.6157 9.58554 11.2909 10.3167 11.2518 11.0899C11.2127 11.8631 11.462 12.6233 11.9514 13.2232C12.4408 13.8231 13.1354 14.22 13.9007 14.3369C14.666 14.4539 15.4475 14.2826 16.0938 13.8562L17.6797 15.4422C17.797 15.5595 17.956 15.6253 18.1219 15.6253C18.2877 15.6253 18.4468 15.5595 18.5641 15.4422C18.6813 15.3249 18.7472 15.1659 18.7472 15C18.7472 14.8341 18.6813 14.6751 18.5641 14.5578H18.5672Z" fill="#191F2E"/>
</svg>
