<svg width="20" height="20" viewBox="0 0 20 20" fill="none" xmlns="http://www.w3.org/2000/svg">
<path d="M17.5 10C17.5 10.1658 17.4342 10.3247 17.317 10.4419C17.1997 10.5591 17.0408 10.625 16.875 10.625H10C9.83425 10.625 9.67528 10.5591 9.55807 10.4419C9.44086 10.3247 9.37501 10.1658 9.37501 10C9.37501 9.83424 9.44086 9.67527 9.55807 9.55805C9.67528 9.44084 9.83425 9.375 10 9.375H16.875C17.0408 9.375 17.1997 9.44084 17.317 9.55805C17.4342 9.67527 17.5 9.83424 17.5 10ZM10 5.625H16.875C17.0408 5.625 17.1997 5.55915 17.317 5.44194C17.4342 5.32473 17.5 5.16576 17.5 5C17.5 4.83424 17.4342 4.67527 17.317 4.55805C17.1997 4.44084 17.0408 4.375 16.875 4.375H10C9.83425 4.375 9.67528 4.44084 9.55807 4.55805C9.44086 4.67527 9.37501 4.83424 9.37501 5C9.37501 5.16576 9.44086 5.32473 9.55807 5.44194C9.67528 5.55915 9.83425 5.625 10 5.625ZM16.875 14.375H10C9.83425 14.375 9.67528 14.4408 9.55807 14.5581C9.44086 14.6753 9.37501 14.8342 9.37501 15C9.37501 15.1658 9.44086 15.3247 9.55807 15.4419C9.67528 15.5591 9.83425 15.625 10 15.625H16.875C17.0408 15.625 17.1997 15.5591 17.317 15.4419C17.4342 15.3247 17.5 15.1658 17.5 15C17.5 14.8342 17.4342 14.6753 17.317 14.5581C17.1997 14.4408 17.0408 14.375 16.875 14.375ZM6.43282 3.30781L4.37501 5.3664L3.5672 4.55781C3.44992 4.44053 3.29086 4.37465 3.12501 4.37465C2.95916 4.37465 2.8001 4.44053 2.68282 4.55781C2.56555 4.67508 2.49966 4.83414 2.49966 5C2.49966 5.16585 2.56555 5.32491 2.68282 5.44218L3.93282 6.69218C3.99087 6.75029 4.0598 6.79639 4.13567 6.82785C4.21155 6.8593 4.29288 6.87549 4.37501 6.87549C4.45715 6.87549 4.53848 6.8593 4.61435 6.82785C4.69022 6.79639 4.75915 6.75029 4.8172 6.69218L7.3172 4.19218C7.43447 4.07491 7.50036 3.91585 7.50036 3.75C7.50036 3.58414 7.43447 3.42508 7.3172 3.30781C7.19992 3.19053 7.04086 3.12465 6.87501 3.12465C6.70916 3.12465 6.5501 3.19053 6.43282 3.30781ZM6.43282 8.30781L4.37501 10.3664L3.5672 9.55781C3.44992 9.44053 3.29086 9.37465 3.12501 9.37465C2.95916 9.37465 2.8001 9.44053 2.68282 9.55781C2.56555 9.67508 2.49966 9.83414 2.49966 10C2.49966 10.0821 2.51584 10.1634 2.54727 10.2393C2.57869 10.3152 2.62476 10.3841 2.68282 10.4422L3.93282 11.6922C3.99087 11.7503 4.0598 11.7964 4.13567 11.8278C4.21155 11.8593 4.29288 11.8755 4.37501 11.8755C4.45715 11.8755 4.53848 11.8593 4.61435 11.8278C4.69022 11.7964 4.75915 11.7503 4.8172 11.6922L7.3172 9.19218C7.43447 9.07491 7.50036 8.91585 7.50036 8.75C7.50036 8.58414 7.43447 8.42508 7.3172 8.30781C7.19992 8.19053 7.04086 8.12465 6.87501 8.12465C6.70916 8.12465 6.5501 8.19053 6.43282 8.30781ZM6.43282 13.3078L4.37501 15.3664L3.5672 14.5578C3.50913 14.4997 3.44019 14.4537 3.36432 14.4223C3.28845 14.3908 3.20713 14.3746 3.12501 14.3746C3.04289 14.3746 2.96157 14.3908 2.8857 14.4223C2.80983 14.4537 2.74089 14.4997 2.68282 14.5578C2.62476 14.6159 2.57869 14.6848 2.54727 14.7607C2.51584 14.8366 2.49966 14.9179 2.49966 15C2.49966 15.0821 2.51584 15.1634 2.54727 15.2393C2.57869 15.3152 2.62476 15.3841 2.68282 15.4422L3.93282 16.6922C3.99087 16.7503 4.0598 16.7964 4.13567 16.8278C4.21155 16.8593 4.29288 16.8755 4.37501 16.8755C4.45715 16.8755 4.53848 16.8593 4.61435 16.8278C4.69022 16.7964 4.75915 16.7503 4.8172 16.6922L7.3172 14.1922C7.43447 14.0749 7.50036 13.9158 7.50036 13.75C7.50036 13.5841 7.43447 13.4251 7.3172 13.3078C7.19992 13.1905 7.04086 13.1246 6.87501 13.1246C6.70916 13.1246 6.5501 13.1905 6.43282 13.3078Z" fill="#191F2E"/>
</svg>
