<svg width="20" height="20" viewBox="0 0 20 20" fill="none" xmlns="http://www.w3.org/2000/svg">
<path d="M17.8125 10C17.8125 10.2486 17.7137 10.4871 17.5379 10.6629C17.3621 10.8387 17.1236 10.9375 16.875 10.9375H10C9.75136 10.9375 9.5129 10.8387 9.33708 10.6629C9.16127 10.4871 9.0625 10.2486 9.0625 10C9.0625 9.75136 9.16127 9.5129 9.33708 9.33709C9.5129 9.16127 9.75136 9.0625 10 9.0625H16.875C17.1236 9.0625 17.3621 9.16127 17.5379 9.33709C17.7137 9.5129 17.8125 9.75136 17.8125 10ZM10 5.9375H16.875C17.1236 5.9375 17.3621 5.83873 17.5379 5.66291C17.7137 5.4871 17.8125 5.24864 17.8125 5C17.8125 4.75136 17.7137 4.5129 17.5379 4.33709C17.3621 4.16127 17.1236 4.0625 16.875 4.0625H10C9.75136 4.0625 9.5129 4.16127 9.33708 4.33709C9.16127 4.5129 9.0625 4.75136 9.0625 5C9.0625 5.24864 9.16127 5.4871 9.33708 5.66291C9.5129 5.83873 9.75136 5.9375 10 5.9375ZM16.875 14.0625H10C9.75136 14.0625 9.5129 14.1613 9.33708 14.3371C9.16127 14.5129 9.0625 14.7514 9.0625 15C9.0625 15.2486 9.16127 15.4871 9.33708 15.6629C9.5129 15.8387 9.75136 15.9375 10 15.9375H16.875C17.1236 15.9375 17.3621 15.8387 17.5379 15.6629C17.7137 15.4871 17.8125 15.2486 17.8125 15C17.8125 14.7514 17.7137 14.5129 17.5379 14.3371C17.3621 14.1613 17.1236 14.0625 16.875 14.0625ZM6.21172 3.08672L4.375 4.92187L3.78828 4.33437C3.61216 4.15825 3.37329 4.05931 3.12422 4.05931C2.87514 4.05931 2.63627 4.15825 2.46015 4.33437C2.28403 4.51049 2.18509 4.74937 2.18509 4.99844C2.18509 5.24751 2.28403 5.48638 2.46015 5.6625L3.71015 6.9125C3.79725 6.9999 3.90074 7.06925 4.0147 7.11656C4.12865 7.16388 4.25083 7.18824 4.37422 7.18824C4.4976 7.18824 4.61978 7.16388 4.73373 7.11656C4.84769 7.06925 4.95118 6.9999 5.03828 6.9125L7.53828 4.4125C7.7144 4.23638 7.81334 3.99751 7.81334 3.74844C7.81334 3.49937 7.7144 3.26049 7.53828 3.08437C7.36216 2.90825 7.12329 2.80931 6.87422 2.80931C6.62514 2.80931 6.38627 2.90825 6.21015 3.08437L6.21172 3.08672ZM6.21172 8.08672L4.375 9.92188L3.78828 9.33437C3.61216 9.15825 3.37329 9.05931 3.12422 9.05931C2.87514 9.05931 2.63627 9.15825 2.46015 9.33437C2.28403 9.51049 2.18509 9.74937 2.18509 9.99844C2.18509 10.2475 2.28403 10.4864 2.46015 10.6625L3.71015 11.9125C3.79725 11.9999 3.90074 12.0692 4.0147 12.1166C4.12865 12.1639 4.25083 12.1882 4.37422 12.1882C4.4976 12.1882 4.61978 12.1639 4.73373 12.1166C4.84769 12.0692 4.95118 11.9999 5.03828 11.9125L7.53828 9.4125C7.7144 9.23638 7.81334 8.99751 7.81334 8.74844C7.81334 8.49937 7.7144 8.26049 7.53828 8.08437C7.36216 7.90825 7.12329 7.80931 6.87422 7.80931C6.62514 7.80931 6.38627 7.90825 6.21015 8.08437L6.21172 8.08672ZM6.21172 13.0867L4.375 14.9219L3.78828 14.3344C3.70107 14.2472 3.59754 14.178 3.4836 14.1308C3.36966 14.0836 3.24754 14.0593 3.12422 14.0593C3.00089 14.0593 2.87877 14.0836 2.76483 14.1308C2.65089 14.178 2.54736 14.2472 2.46015 14.3344C2.37295 14.4216 2.30377 14.5251 2.25658 14.639C2.20938 14.753 2.18509 14.8751 2.18509 14.9984C2.18509 15.1218 2.20938 15.2439 2.25658 15.3578C2.30377 15.4718 2.37295 15.5753 2.46015 15.6625L3.71015 16.9125C3.79725 16.9999 3.90074 17.0692 4.0147 17.1166C4.12865 17.1639 4.25083 17.1882 4.37422 17.1882C4.4976 17.1882 4.61978 17.1639 4.73373 17.1166C4.84769 17.0692 4.95118 16.9999 5.03828 16.9125L7.53828 14.4125C7.7144 14.2364 7.81334 13.9975 7.81334 13.7484C7.81334 13.4994 7.7144 13.2605 7.53828 13.0844C7.36216 12.9083 7.12329 12.8093 6.87422 12.8093C6.62514 12.8093 6.38627 12.9083 6.21015 13.0844L6.21172 13.0867Z" fill="#191F2E"/>
</svg>
