<svg width="20" height="20" viewBox="0 0 20 20" fill="none" xmlns="http://www.w3.org/2000/svg">
<path d="M17.5 9.99999C17.5 10.1658 17.4342 10.3247 17.3169 10.4419C17.1997 10.5591 17.0408 10.625 16.875 10.625H8.125C7.95924 10.625 7.80027 10.5591 7.68306 10.4419C7.56585 10.3247 7.5 10.1658 7.5 9.99999C7.5 9.83423 7.56585 9.67526 7.68306 9.55805C7.80027 9.44084 7.95924 9.37499 8.125 9.37499H16.875C17.0408 9.37499 17.1997 9.44084 17.3169 9.55805C17.4342 9.67526 17.5 9.83423 17.5 9.99999ZM8.125 5.62499H16.875C17.0408 5.62499 17.1997 5.55914 17.3169 5.44193C17.4342 5.32472 17.5 5.16575 17.5 4.99999C17.5 4.83423 17.4342 4.67526 17.3169 4.55805C17.1997 4.44084 17.0408 4.37499 16.875 4.37499H8.125C7.95924 4.37499 7.80027 4.44084 7.68306 4.55805C7.56585 4.67526 7.5 4.83423 7.5 4.99999C7.5 5.16575 7.56585 5.32472 7.68306 5.44193C7.80027 5.55914 7.95924 5.62499 8.125 5.62499ZM16.875 14.375H8.125C7.95924 14.375 7.80027 14.4408 7.68306 14.558C7.56585 14.6753 7.5 14.8342 7.5 15C7.5 15.1658 7.56585 15.3247 7.68306 15.4419C7.80027 15.5591 7.95924 15.625 8.125 15.625H16.875C17.0408 15.625 17.1997 15.5591 17.3169 15.4419C17.4342 15.3247 17.5 15.1658 17.5 15C17.5 14.8342 17.4342 14.6753 17.3169 14.558C17.1997 14.4408 17.0408 14.375 16.875 14.375ZM3.40469 4.30936L3.75 4.13593V8.12499C3.75 8.29075 3.81585 8.44972 3.93306 8.56693C4.05027 8.68414 4.20924 8.74999 4.375 8.74999C4.54076 8.74999 4.69974 8.68414 4.81695 8.56693C4.93416 8.44972 5 8.29075 5 8.12499V3.12499C5.00008 3.0184 4.9729 2.91356 4.92103 2.82044C4.86917 2.72732 4.79435 2.64901 4.70369 2.59295C4.61303 2.53689 4.50954 2.50496 4.40306 2.50017C4.29658 2.49539 4.19064 2.51792 4.09532 2.56561L2.84532 3.19061C2.69696 3.26479 2.58415 3.39487 2.5317 3.55222C2.50573 3.63014 2.49536 3.7124 2.50118 3.79432C2.507 3.87625 2.5289 3.95622 2.56563 4.02968C2.60236 4.10314 2.6532 4.16864 2.71524 4.22245C2.77729 4.27626 2.84932 4.31733 2.92724 4.3433C3.08459 4.39575 3.25634 4.38354 3.40469 4.30936ZM6.23204 12.2437C6.19747 11.9962 6.11322 11.7582 5.98433 11.5441C5.85544 11.3299 5.68459 11.1441 5.48204 10.9976C5.07634 10.7031 4.57243 10.5768 4.07575 10.6452C3.57907 10.7136 3.1281 10.9715 2.81719 11.3648C2.69836 11.5174 2.60425 11.6877 2.53829 11.8695C2.50384 11.9478 2.48582 12.0323 2.48533 12.1177C2.48484 12.2032 2.5019 12.2879 2.53545 12.3666C2.56899 12.4452 2.61832 12.5161 2.68037 12.5749C2.74242 12.6337 2.81588 12.6792 2.8962 12.7085C2.97652 12.7378 3.06199 12.7503 3.14734 12.7452C3.23268 12.7402 3.31608 12.7176 3.39237 12.6791C3.46867 12.6405 3.53623 12.5866 3.59089 12.5209C3.64555 12.4552 3.68615 12.3789 3.71016 12.2969C3.73204 12.2369 3.76314 12.1808 3.80235 12.1305C3.9126 11.9931 4.07157 11.9035 4.24619 11.8804C4.42081 11.8572 4.59762 11.9023 4.73985 12.0062C4.80826 12.0546 4.86612 12.1164 4.9099 12.1879C4.95369 12.2593 4.98248 12.3389 4.99454 12.4219C5.00556 12.5015 5.00038 12.5826 4.9793 12.6602C4.95823 12.7378 4.92169 12.8103 4.87188 12.8734C4.8696 12.8761 4.86752 12.879 4.86563 12.882L2.62422 15.8758C2.55477 15.9687 2.51254 16.0791 2.50226 16.1946C2.49199 16.3102 2.51408 16.4263 2.56605 16.53C2.61803 16.6337 2.69784 16.7209 2.79656 16.7819C2.89528 16.8428 3.009 16.875 3.125 16.875H5.625C5.79076 16.875 5.94974 16.8091 6.06695 16.6919C6.18416 16.5747 6.25 16.4158 6.25 16.25C6.25 16.0842 6.18416 15.9253 6.06695 15.808C5.94974 15.6908 5.79076 15.625 5.625 15.625H4.375L5.86563 13.6305C6.01676 13.4358 6.1271 13.2127 6.19005 12.9744C6.25301 12.7362 6.26728 12.4876 6.23204 12.2437Z" fill="#191F2E"/>
</svg>
