<svg width="20" height="20" viewBox="0 0 20 20" fill="none" xmlns="http://www.w3.org/2000/svg">
<path d="M4.375 10C4.375 10.2472 4.30169 10.4889 4.16434 10.6945C4.02699 10.9 3.83176 11.0602 3.60335 11.1548C3.37495 11.2495 3.12361 11.2742 2.88114 11.226C2.63866 11.1778 2.41593 11.0587 2.24112 10.8839C2.0663 10.7091 1.94725 10.4863 1.89902 10.2439C1.85079 10.0014 1.87554 9.75005 1.97015 9.52165C2.06476 9.29324 2.22498 9.09801 2.43054 8.96066C2.6361 8.82331 2.87777 8.75 3.125 8.75C3.45652 8.75 3.77446 8.8817 4.00888 9.11612C4.2433 9.35054 4.375 9.66848 4.375 10ZM3.125 3.75C2.87777 3.75 2.6361 3.82331 2.43054 3.96066C2.22498 4.09801 2.06476 4.29324 1.97015 4.52165C1.87554 4.75005 1.85079 5.00139 1.89902 5.24386C1.94725 5.48634 2.0663 5.70907 2.24112 5.88388C2.41593 6.0587 2.63866 6.17775 2.88114 6.22598C3.12361 6.27421 3.37495 6.24946 3.60335 6.15485C3.83176 6.06024 4.02699 5.90002 4.16434 5.69446C4.30169 5.4889 4.375 5.24723 4.375 5C4.375 4.66848 4.2433 4.35054 4.00888 4.11612C3.77446 3.8817 3.45652 3.75 3.125 3.75ZM3.125 13.75C2.87777 13.75 2.6361 13.8233 2.43054 13.9607C2.22498 14.098 2.06476 14.2932 1.97015 14.5216C1.87554 14.7501 1.85079 15.0014 1.89902 15.2439C1.94725 15.4863 2.0663 15.7091 2.24112 15.8839C2.41593 16.0587 2.63866 16.1778 2.88114 16.226C3.12361 16.2742 3.37495 16.2495 3.60335 16.1549C3.83176 16.0602 4.02699 15.9 4.16434 15.6945C4.30169 15.4889 4.375 15.2472 4.375 15C4.375 14.6685 4.2433 14.3505 4.00888 14.1161C3.77446 13.8817 3.45652 13.75 3.125 13.75ZM16.875 8.75H6.875C6.70924 8.75 6.55027 8.81585 6.43306 8.93306C6.31585 9.05027 6.25 9.20924 6.25 9.375V10.625C6.25 10.7908 6.31585 10.9497 6.43306 11.0669C6.55027 11.1842 6.70924 11.25 6.875 11.25H16.875C17.0408 11.25 17.1997 11.1842 17.3169 11.0669C17.4342 10.9497 17.5 10.7908 17.5 10.625V9.375C17.5 9.20924 17.4342 9.05027 17.3169 8.93306C17.1997 8.81585 17.0408 8.75 16.875 8.75ZM16.875 3.75H6.875C6.70924 3.75 6.55027 3.81585 6.43306 3.93306C6.31585 4.05027 6.25 4.20924 6.25 4.375V5.625C6.25 5.79076 6.31585 5.94973 6.43306 6.06694C6.55027 6.18415 6.70924 6.25 6.875 6.25H16.875C17.0408 6.25 17.1997 6.18415 17.3169 6.06694C17.4342 5.94973 17.5 5.79076 17.5 5.625V4.375C17.5 4.20924 17.4342 4.05027 17.3169 3.93306C17.1997 3.81585 17.0408 3.75 16.875 3.75ZM16.875 13.75H6.875C6.70924 13.75 6.55027 13.8158 6.43306 13.9331C6.31585 14.0503 6.25 14.2092 6.25 14.375V15.625C6.25 15.7908 6.31585 15.9497 6.43306 16.0669C6.55027 16.1842 6.70924 16.25 6.875 16.25H16.875C17.0408 16.25 17.1997 16.1842 17.3169 16.0669C17.4342 15.9497 17.5 15.7908 17.5 15.625V14.375C17.5 14.2092 17.4342 14.0503 17.3169 13.9331C17.1997 13.8158 17.0408 13.75 16.875 13.75Z" fill="#191F2E"/>
</svg>
