<svg width="20" height="20" viewBox="0 0 20 20" fill="none" xmlns="http://www.w3.org/2000/svg">
<path d="M15 6.25C15 6.49864 14.9012 6.7371 14.7254 6.91291C14.5496 7.08873 14.3111 7.1875 14.0625 7.1875H12.8125C12.5639 7.1875 12.3254 7.08873 12.1496 6.91291C11.9738 6.7371 11.875 6.49864 11.875 6.25C11.875 6.00136 11.9738 5.7629 12.1496 5.58709C12.3254 5.41127 12.5639 5.3125 12.8125 5.3125H14.0625C14.3111 5.3125 14.5496 5.41127 14.7254 5.58709C14.9012 5.7629 15 6.00136 15 6.25ZM14.0625 8.4375H12.8125C12.5639 8.4375 12.3254 8.53627 12.1496 8.71209C11.9738 8.8879 11.875 9.12636 11.875 9.375C11.875 9.62364 11.9738 9.8621 12.1496 10.0379C12.3254 10.2137 12.5639 10.3125 12.8125 10.3125H14.0625C14.3111 10.3125 14.5496 10.2137 14.7254 10.0379C14.9012 9.8621 15 9.62364 15 9.375C15 9.12636 14.9012 8.8879 14.7254 8.71209C14.5496 8.53627 14.3111 8.4375 14.0625 8.4375ZM5.9375 7.1875H7.1875C7.43614 7.1875 7.6746 7.08873 7.85041 6.91291C8.02623 6.7371 8.125 6.49864 8.125 6.25C8.125 6.00136 8.02623 5.7629 7.85041 5.58709C7.6746 5.41127 7.43614 5.3125 7.1875 5.3125H5.9375C5.68886 5.3125 5.4504 5.41127 5.27459 5.58709C5.09877 5.7629 5 6.00136 5 6.25C5 6.49864 5.09877 6.7371 5.27459 6.91291C5.4504 7.08873 5.68886 7.1875 5.9375 7.1875ZM7.1875 8.4375H5.9375C5.68886 8.4375 5.4504 8.53627 5.27459 8.71209C5.09877 8.8879 5 9.12636 5 9.375C5 9.62364 5.09877 9.8621 5.27459 10.0379C5.4504 10.2137 5.68886 10.3125 5.9375 10.3125H7.1875C7.43614 10.3125 7.6746 10.2137 7.85041 10.0379C8.02623 9.8621 8.125 9.62364 8.125 9.375C8.125 9.12636 8.02623 8.8879 7.85041 8.71209C7.6746 8.53627 7.43614 8.4375 7.1875 8.4375ZM17.8125 3.75V17.5C17.8125 17.7486 17.7137 17.9871 17.5379 18.1629C17.3621 18.3387 17.1236 18.4375 16.875 18.4375C16.6264 18.4375 16.3879 18.3387 16.2121 18.1629C16.0363 17.9871 15.9375 17.7486 15.9375 17.5V16.5625H10.9375V17.5C10.9375 17.7486 10.8387 17.9871 10.6629 18.1629C10.4871 18.3387 10.2486 18.4375 10 18.4375C9.75136 18.4375 9.5129 18.3387 9.33709 18.1629C9.16127 17.9871 9.0625 17.7486 9.0625 17.5V16.5625H4.0625V17.5C4.0625 17.7486 3.96373 17.9871 3.78791 18.1629C3.6121 18.3387 3.37364 18.4375 3.125 18.4375C2.87636 18.4375 2.6379 18.3387 2.46209 18.1629C2.28627 17.9871 2.1875 17.7486 2.1875 17.5V3.75C2.1875 3.3356 2.35212 2.93817 2.64515 2.64515C2.93817 2.35212 3.3356 2.1875 3.75 2.1875H16.25C16.6644 2.1875 17.0618 2.35212 17.3549 2.64515C17.6479 2.93817 17.8125 3.3356 17.8125 3.75ZM9.0625 14.6875V4.0625H4.0625V14.6875H9.0625ZM10.9375 14.6875H15.9375V4.0625H10.9375V14.6875Z" fill="#191F2E"/>
</svg>
