<svg width="20" height="20" viewBox="0 0 20 20" fill="none" xmlns="http://www.w3.org/2000/svg">
<path d="M16.25 6.25H7.5V4.375C7.5 3.71196 7.76339 3.07607 8.23223 2.60723C8.70107 2.13839 9.33696 1.875 10 1.875C11.2008 1.875 12.2812 2.73438 12.5125 3.87422C12.5468 4.03529 12.6433 4.17629 12.7811 4.26659C12.9188 4.35689 13.0866 4.38919 13.248 4.35645C13.4094 4.32372 13.5514 4.22861 13.643 4.09179C13.7347 3.95497 13.7686 3.7875 13.7375 3.62578C13.3844 1.88672 11.8125 0.625 10 0.625C9.00576 0.626034 8.05253 1.02145 7.34949 1.72449C6.64645 2.42753 6.25103 3.38076 6.25 4.375V6.25H3.75C3.41848 6.25 3.10054 6.3817 2.86612 6.61612C2.6317 6.85054 2.5 7.16848 2.5 7.5V16.25C2.5 16.5815 2.6317 16.8995 2.86612 17.1339C3.10054 17.3683 3.41848 17.5 3.75 17.5H16.25C16.5815 17.5 16.8995 17.3683 17.1339 17.1339C17.3683 16.8995 17.5 16.5815 17.5 16.25V7.5C17.5 7.16848 17.3683 6.85054 17.1339 6.61612C16.8995 6.3817 16.5815 6.25 16.25 6.25ZM16.25 16.25H3.75V7.5H16.25V16.25ZM10.9375 11.875C10.9375 12.0604 10.8825 12.2417 10.7795 12.3958C10.6765 12.55 10.5301 12.6702 10.3588 12.7411C10.1875 12.8121 9.99896 12.8307 9.8171 12.7945C9.63525 12.7583 9.4682 12.669 9.33709 12.5379C9.20598 12.4068 9.11669 12.2398 9.08051 12.0579C9.04434 11.876 9.06291 11.6875 9.13386 11.5162C9.20482 11.3449 9.32498 11.1985 9.47915 11.0955C9.63332 10.9925 9.81458 10.9375 10 10.9375C10.2486 10.9375 10.4871 11.0363 10.6629 11.2121C10.8387 11.3879 10.9375 11.6264 10.9375 11.875Z" fill="#191F2E"/>
</svg>
