<svg width="20" height="20" viewBox="0 0 20 20" fill="none" xmlns="http://www.w3.org/2000/svg">
<path d="M19.375 11.875C19.375 12.0408 19.3091 12.1997 19.1919 12.3169C19.0747 12.4342 18.9157 12.5 18.75 12.5H17.5V13.75C17.5 13.9158 17.4341 14.0747 17.3169 14.1919C17.1997 14.3092 17.0407 14.375 16.875 14.375C16.7092 14.375 16.5503 14.3092 16.433 14.1919C16.3158 14.0747 16.25 13.9158 16.25 13.75V12.5H15C14.8342 12.5 14.6753 12.4342 14.558 12.3169C14.4408 12.1997 14.375 12.0408 14.375 11.875C14.375 11.7092 14.4408 11.5503 14.558 11.4331C14.6753 11.3158 14.8342 11.25 15 11.25H16.25V10C16.25 9.83424 16.3158 9.67527 16.433 9.55806C16.5503 9.44085 16.7092 9.375 16.875 9.375C17.0407 9.375 17.1997 9.44085 17.3169 9.55806C17.4341 9.67527 17.5 9.83424 17.5 10V11.25H18.75C18.9157 11.25 19.0747 11.3158 19.1919 11.4331C19.3091 11.5503 19.375 11.7092 19.375 11.875ZM4.37498 5.625H5.62498V6.875C5.62498 7.04076 5.69083 7.19973 5.80804 7.31694C5.92525 7.43415 6.08422 7.5 6.24998 7.5C6.41574 7.5 6.57471 7.43415 6.69192 7.31694C6.80913 7.19973 6.87498 7.04076 6.87498 6.875V5.625H8.12498C8.29074 5.625 8.44971 5.55915 8.56692 5.44194C8.68413 5.32473 8.74998 5.16576 8.74998 5C8.74998 4.83424 8.68413 4.67527 8.56692 4.55806C8.44971 4.44085 8.29074 4.375 8.12498 4.375H6.87498V3.125C6.87498 2.95924 6.80913 2.80027 6.69192 2.68306C6.57471 2.56585 6.41574 2.5 6.24998 2.5C6.08422 2.5 5.92525 2.56585 5.80804 2.68306C5.69083 2.80027 5.62498 2.95924 5.62498 3.125V4.375H4.37498C4.20922 4.375 4.05025 4.44085 3.93304 4.55806C3.81583 4.67527 3.74998 4.83424 3.74998 5C3.74998 5.16576 3.81583 5.32473 3.93304 5.44194C4.05025 5.55915 4.20922 5.625 4.37498 5.625ZM14.375 15H13.75V14.375C13.75 14.2092 13.6841 14.0503 13.5669 13.9331C13.4497 13.8158 13.2907 13.75 13.125 13.75C12.9592 13.75 12.8003 13.8158 12.683 13.9331C12.5658 14.0503 12.5 14.2092 12.5 14.375V15H11.875C11.7092 15 11.5503 15.0658 11.433 15.1831C11.3158 15.3003 11.25 15.4592 11.25 15.625C11.25 15.7908 11.3158 15.9497 11.433 16.0669C11.5503 16.1842 11.7092 16.25 11.875 16.25H12.5V16.875C12.5 17.0408 12.5658 17.1997 12.683 17.3169C12.8003 17.4342 12.9592 17.5 13.125 17.5C13.2907 17.5 13.4497 17.4342 13.5669 17.3169C13.6841 17.1997 13.75 17.0408 13.75 16.875V16.25H14.375C14.5407 16.25 14.6997 16.1842 14.8169 16.0669C14.9341 15.9497 15 15.7908 15 15.625C15 15.4592 14.9341 15.3003 14.8169 15.1831C14.6997 15.0658 14.5407 15 14.375 15ZM17.1336 6.25L6.24998 17.1336C6.01559 17.3678 5.69777 17.4994 5.36639 17.4994C5.03501 17.4994 4.71719 17.3678 4.48279 17.1336L2.86561 15.518C2.7495 15.4019 2.6574 15.2641 2.59457 15.1124C2.53173 14.9607 2.49939 14.7982 2.49939 14.634C2.49939 14.4698 2.53173 14.3072 2.59457 14.1556C2.6574 14.0039 2.7495 13.8661 2.86561 13.75L13.75 2.86641C13.8661 2.7503 14.0039 2.6582 14.1555 2.59537C14.3072 2.53253 14.4698 2.50019 14.634 2.50019C14.7981 2.50019 14.9607 2.53253 15.1124 2.59537C15.2641 2.6582 15.4019 2.7503 15.518 2.86641L17.1336 4.48203C17.2497 4.59811 17.3418 4.73592 17.4046 4.8876C17.4675 5.03927 17.4998 5.20184 17.4998 5.36602C17.4998 5.53019 17.4675 5.69276 17.4046 5.84444C17.3418 5.99611 17.2497 6.13392 17.1336 6.25ZM16.25 5.36641L14.6336 3.75L12.1336 6.25L13.75 7.86641L16.25 5.36641Z" fill="#191F2E"/>
</svg>
