<svg width="20" height="20" viewBox="0 0 20 20" fill="none" xmlns="http://www.w3.org/2000/svg">
<path d="M16.1719 3.9258C15.5364 3.27718 14.7779 2.76174 13.9409 2.40962C13.1038 2.0575 12.205 1.87576 11.2969 1.87502H11.2711C10.3672 1.8727 9.47174 2.04972 8.63668 2.39584C7.80162 2.74196 7.04352 3.2503 6.40627 3.89143L1.61018 8.75002C1.37799 8.98484 1.24815 9.30201 1.24903 9.63224C1.24991 9.96247 1.38143 10.2789 1.61486 10.5125L3.85393 12.7516C3.96983 12.868 4.10766 12.9604 4.25945 13.0233C4.41125 13.0862 4.574 13.1184 4.7383 13.118H4.74533C4.91083 13.1171 5.0745 13.0834 5.22685 13.0187C5.3792 12.9541 5.51719 12.8598 5.63283 12.7414L10.3906 7.86643C10.623 7.63643 10.9358 7.50605 11.2627 7.50298C11.5896 7.49992 11.9048 7.62441 12.1414 7.85002C12.2584 7.96362 12.3513 8.09952 12.4148 8.24968C12.4783 8.39984 12.511 8.56121 12.511 8.72424C12.5125 8.89775 12.4799 9.06986 12.4149 9.23073C12.3499 9.3916 12.2537 9.53806 12.1321 9.66174L7.26565 14.3656C7.14679 14.4811 7.05206 14.619 6.98696 14.7713C6.92187 14.9237 6.88771 15.0874 6.88648 15.2531C6.88524 15.4188 6.91695 15.583 6.97976 15.7363C7.04258 15.8897 7.13524 16.0289 7.25236 16.1461L9.49143 18.3852C9.72486 18.6172 10.0401 18.7482 10.3692 18.7499C10.6983 18.7517 11.0149 18.624 11.2508 18.3946L16.0789 13.6719C18.7703 10.9766 18.8117 6.60627 16.1719 3.9258ZM4.7383 11.8664L2.50002 9.62815L4.3594 7.74377L6.58752 9.9719L4.7383 11.8664ZM10.3742 17.5L8.13361 15.2617L10.0383 13.4203L12.2656 15.65L10.3742 17.5ZM15.1992 12.7781L13.1594 14.7735L10.9375 12.5531L13.0031 10.5555L13.011 10.5485C13.2506 10.3069 13.44 10.0203 13.5683 9.70522C13.6966 9.39012 13.7613 9.05274 13.7586 8.71252C13.7572 8.38379 13.6898 8.05868 13.5605 7.75647C13.4311 7.45426 13.2424 7.18109 13.0055 6.95315C12.5308 6.50162 11.8987 6.25308 11.2437 6.26037C10.5886 6.26767 9.96217 6.53023 9.49768 6.99221L7.46018 9.07659L5.2344 6.85471L7.29299 4.77268C7.81412 4.24854 8.43408 3.83303 9.11694 3.5502C9.7998 3.26737 10.532 3.12286 11.2711 3.12502H11.2922C12.0352 3.12566 12.7705 3.2744 13.4553 3.56253C14.1401 3.85067 14.7606 4.27243 15.2805 4.80315C17.4414 6.99612 17.4024 10.5766 15.1992 12.7797V12.7781Z" fill="#191F2E"/>
</svg>
