<svg width="20" height="20" viewBox="0 0 20 20" fill="none" xmlns="http://www.w3.org/2000/svg">
<path d="M12.1875 8.74989C12.1875 8.99853 12.0887 9.23699 11.9129 9.41281C11.7371 9.58862 11.4987 9.68739 11.25 9.68739H9.68752V11.2499C9.68752 11.4985 9.58874 11.737 9.41293 11.9128C9.23711 12.0886 8.99866 12.1874 8.75002 12.1874C8.50137 12.1874 8.26292 12.0886 8.0871 11.9128C7.91129 11.737 7.81252 11.4985 7.81252 11.2499V9.68739H6.25002C6.00137 9.68739 5.76292 9.58862 5.5871 9.41281C5.41129 9.23699 5.31252 8.99853 5.31252 8.74989C5.31252 8.50125 5.41129 8.2628 5.5871 8.08698C5.76292 7.91117 6.00137 7.81239 6.25002 7.81239H7.81252V6.24989C7.81252 6.00125 7.91129 5.7628 8.0871 5.58698C8.26292 5.41116 8.50137 5.31239 8.75002 5.31239C8.99866 5.31239 9.23711 5.41116 9.41293 5.58698C9.58874 5.7628 9.68752 6.00125 9.68752 6.24989V7.81239H11.25C11.4987 7.81239 11.7371 7.91117 11.9129 8.08698C12.0887 8.2628 12.1875 8.50125 12.1875 8.74989ZM18.1633 18.1632C18.0762 18.2506 17.9727 18.3199 17.8588 18.3672C17.7448 18.4146 17.6226 18.4389 17.4992 18.4389C17.3758 18.4389 17.2537 18.4146 17.1397 18.3672C17.0258 18.3199 16.9223 18.2506 16.8352 18.1632L13.125 14.453C11.6754 15.5654 9.85688 16.0848 8.03841 15.9057C6.21993 15.7267 4.53765 14.8626 3.33282 13.4888C2.12799 12.115 1.49084 10.3344 1.55061 8.5081C1.61038 6.68181 2.3626 4.94663 3.65467 3.65455C4.94675 2.36247 6.68193 1.61026 8.50822 1.55049C10.3345 1.49072 12.1152 2.12787 13.489 3.3327C14.8628 4.53752 15.7268 6.21981 15.9059 8.03828C16.0849 9.85676 15.5656 11.6753 14.4531 13.1249L18.1672 16.8382C18.3422 17.0145 18.4402 17.253 18.4394 17.5015C18.4387 17.7499 18.3394 17.9879 18.1633 18.1632ZM8.75002 14.0624C9.80073 14.0624 10.8278 13.7508 11.7015 13.1671C12.5751 12.5833 13.256 11.7536 13.6581 10.7829C14.0602 9.81217 14.1654 8.744 13.9604 7.71348C13.7555 6.68295 13.2495 5.73635 12.5065 4.99339C11.7636 4.25042 10.817 3.74446 9.78643 3.53947C8.75591 3.33449 7.68774 3.43969 6.71701 3.84178C5.74628 4.24387 4.91658 4.92479 4.33283 5.79843C3.74909 6.67206 3.43752 7.69918 3.43752 8.74989C3.43917 10.1583 3.99941 11.5086 4.99534 12.5046C5.99127 13.5005 7.34156 14.0607 8.75002 14.0624Z" fill="#191F2E"/>
</svg>
