<svg width="20" height="20" viewBox="0 0 20 20" fill="none" xmlns="http://www.w3.org/2000/svg">
<path d="M18.1633 16.8366L14.4531 13.1249C15.5656 11.6753 16.0849 9.85676 15.9059 8.03828C15.7268 6.21981 14.8628 4.53752 13.489 3.3327C12.1152 2.12787 10.3345 1.49072 8.50822 1.55049C6.68193 1.61026 4.94675 2.36247 3.65467 3.65455C2.3626 4.94663 1.61038 6.68181 1.55061 8.5081C1.49084 10.3344 2.12799 12.115 3.33282 13.4888C4.53765 14.8626 6.21993 15.7267 8.03841 15.9057C9.85688 16.0848 11.6754 15.5654 13.125 14.453L16.8383 18.1671C16.9255 18.2543 17.029 18.3235 17.143 18.3707C17.2569 18.4179 17.379 18.4421 17.5024 18.4421C17.6257 18.4421 17.7478 18.4179 17.8617 18.3707C17.9757 18.3235 18.0792 18.2543 18.1664 18.1671C18.2536 18.0799 18.3228 17.9763 18.37 17.8624C18.4172 17.7485 18.4415 17.6263 18.4415 17.503C18.4415 17.3797 18.4172 17.2576 18.37 17.1436C18.3228 17.0297 18.2536 16.9262 18.1664 16.839L18.1633 16.8366ZM3.43752 8.74989C3.43752 7.69918 3.74909 6.67206 4.33283 5.79843C4.91658 4.92479 5.74628 4.24387 6.71701 3.84178C7.68774 3.43969 8.75591 3.33449 9.78643 3.53947C10.817 3.74446 11.7636 4.25042 12.5065 4.99339C13.2495 5.73635 13.7555 6.68295 13.9604 7.71348C14.1654 8.744 14.0602 9.81217 13.6581 10.7829C13.256 11.7536 12.5751 12.5833 11.7015 13.1671C10.8278 13.7508 9.80073 14.0624 8.75002 14.0624C7.3415 14.0609 5.99108 13.5008 4.99511 12.5048C3.99914 11.5088 3.43896 10.1584 3.43752 8.74989Z" fill="#191F2E"/>
</svg>
