<svg width="20" height="20" viewBox="0 0 20 20" fill="none" xmlns="http://www.w3.org/2000/svg">
<path d="M15.625 3.125H12.5C12.1685 3.125 11.8505 3.2567 11.6161 3.49112C11.3817 3.72554 11.25 4.04348 11.25 4.375V11.25C11.25 11.5815 11.1183 11.8995 10.8839 12.1339C10.6495 12.3683 10.3315 12.5 10 12.5C9.66848 12.5 9.35054 12.3683 9.11612 12.1339C8.8817 11.8995 8.75 11.5815 8.75 11.25V4.375C8.75 4.04348 8.6183 3.72554 8.38388 3.49112C8.14946 3.2567 7.83152 3.125 7.5 3.125H4.375C4.04348 3.125 3.72554 3.2567 3.49112 3.49112C3.2567 3.72554 3.125 4.04348 3.125 4.375V11.25C3.125 13.0734 3.84933 14.822 5.13864 16.1114C6.42795 17.4007 8.17664 18.125 10 18.125H10.0523C13.8141 18.0969 16.875 14.9773 16.875 11.1719V4.375C16.875 4.04348 16.7433 3.72554 16.5089 3.49112C16.2745 3.2567 15.9565 3.125 15.625 3.125ZM15.625 4.375V7.5H12.5V4.375H15.625ZM7.5 4.375V7.5H4.375V4.375H7.5Z" fill="#191F2E"/>
</svg>
