<svg width="20" height="20" viewBox="0 0 20 20" fill="none" xmlns="http://www.w3.org/2000/svg">
<path d="M11.875 8.74993C11.875 8.91569 11.8091 9.07467 11.6919 9.19188C11.5747 9.30909 11.4158 9.37493 11.25 9.37493H9.375V11.2499C9.375 11.4157 9.30915 11.5747 9.19194 11.6919C9.07473 11.8091 8.91576 11.8749 8.75 11.8749C8.58423 11.8749 8.42526 11.8091 8.30805 11.6919C8.19084 11.5747 8.125 11.4157 8.125 11.2499V9.37493H6.25C6.08423 9.37493 5.92526 9.30909 5.80805 9.19188C5.69084 9.07467 5.625 8.91569 5.625 8.74993C5.625 8.58417 5.69084 8.4252 5.80805 8.30799C5.92526 8.19078 6.08423 8.12493 6.25 8.12493H8.125V6.24993C8.125 6.08417 8.19084 5.9252 8.30805 5.80799C8.42526 5.69078 8.58423 5.62493 8.75 5.62493C8.91576 5.62493 9.07473 5.69078 9.19194 5.80799C9.30915 5.9252 9.375 6.08417 9.375 6.24993V8.12493H11.25C11.4158 8.12493 11.5747 8.19078 11.6919 8.30799C11.8091 8.4252 11.875 8.58417 11.875 8.74993ZM17.9422 17.9421C17.8841 18.0002 17.8152 18.0463 17.7393 18.0778C17.6635 18.1092 17.5821 18.1254 17.5 18.1254C17.4179 18.1254 17.3365 18.1092 17.2607 18.0778C17.1848 18.0463 17.1159 18.0002 17.0578 17.9421L13.1469 14.0304C11.7857 15.1642 10.0398 15.7295 8.27244 15.6089C6.50506 15.4882 4.85223 14.6908 3.65779 13.3825C2.46334 12.0743 1.81926 10.3559 1.85951 8.58486C1.89976 6.81382 2.62125 5.12647 3.87389 3.87383C5.12653 2.62118 6.81388 1.89969 8.58492 1.85944C10.356 1.8192 12.0744 2.46328 13.3826 3.65772C14.6909 4.85217 15.4883 6.50499 15.6089 8.27238C15.7296 10.0398 15.1642 11.7856 14.0305 13.1468L17.9422 17.0577C18.0003 17.1158 18.0464 17.1847 18.0778 17.2606C18.1093 17.3365 18.1255 17.4178 18.1255 17.4999C18.1255 17.5821 18.1093 17.6634 18.0778 17.7393C18.0464 17.8151 18.0003 17.8841 17.9422 17.9421ZM8.75 14.3749C9.86252 14.3749 10.9501 14.045 11.8751 13.427C12.8001 12.8089 13.5211 11.9304 13.9468 10.9025C14.3726 9.87469 14.484 8.74369 14.2669 7.65255C14.0499 6.56141 13.5141 5.55913 12.7275 4.77246C11.9408 3.98579 10.9385 3.45006 9.84738 3.23302C8.75624 3.01598 7.62524 3.12737 6.5974 3.55311C5.56957 3.97885 4.69106 4.69982 4.07298 5.62485C3.4549 6.54988 3.125 7.63741 3.125 8.74993C3.12665 10.2413 3.71981 11.6711 4.77435 12.7256C5.82888 13.7801 7.25866 14.3733 8.75 14.3749Z" fill="#191F2E"/>
</svg>
