<svg width="20" height="20" viewBox="0 0 20 20" fill="none" xmlns="http://www.w3.org/2000/svg">
<path d="M16.1719 3.9258C15.5364 3.27718 14.7779 2.76174 13.9409 2.40962C13.1038 2.0575 12.205 1.87576 11.2969 1.87502H11.2711C10.3672 1.8727 9.47174 2.04972 8.63668 2.39584C7.80162 2.74196 7.04352 3.2503 6.40627 3.89143L1.61018 8.75002C1.37799 8.98484 1.24815 9.30201 1.24903 9.63224C1.24991 9.96247 1.38143 10.2789 1.61486 10.5125L3.85393 12.7516C3.96983 12.868 4.10766 12.9604 4.25945 13.0233C4.41125 13.0862 4.574 13.1184 4.7383 13.118H4.74533C4.91083 13.1171 5.0745 13.0834 5.22685 13.0187C5.3792 12.9541 5.51719 12.8598 5.63283 12.7414L10.3906 7.86643C10.623 7.63643 10.9358 7.50605 11.2627 7.50298C11.5896 7.49992 11.9048 7.62441 12.1414 7.85002C12.2584 7.96362 12.3513 8.09952 12.4148 8.24968C12.4783 8.39984 12.511 8.56121 12.511 8.72424C12.5125 8.89775 12.4799 9.06986 12.4149 9.23073C12.3499 9.3916 12.2537 9.53806 12.1321 9.66174L7.26565 14.3656C7.14679 14.4811 7.05206 14.619 6.98696 14.7713C6.92187 14.9237 6.88771 15.0874 6.88648 15.2531C6.88524 15.4188 6.91695 15.583 6.97976 15.7363C7.04258 15.8897 7.13524 16.0289 7.25236 16.1461L9.49143 18.3852C9.72486 18.6172 10.0401 18.7482 10.3692 18.7499C10.6983 18.7517 11.0149 18.624 11.2508 18.3946L16.0789 13.6719C18.7703 10.9766 18.8117 6.60627 16.1719 3.9258ZM4.7383 11.8664L2.50002 9.62815L4.79846 7.29924L7.02346 9.52424L4.7383 11.8664ZM10.3742 17.5L8.13361 15.2617L10.4875 12.986L12.7133 15.211L10.3742 17.5Z" fill="#191F2E"/>
</svg>
