<svg width="20" height="20" viewBox="0 0 20 20" fill="none" xmlns="http://www.w3.org/2000/svg">
<path d="M16.3937 3.70628C15.7294 3.02831 14.9367 2.48954 14.0618 2.12146C13.187 1.75338 12.2475 1.56336 11.2984 1.56253H11.271C10.3256 1.56 9.38913 1.74514 8.51582 2.10723C7.64251 2.46932 6.84976 3.00116 6.18352 3.6719L1.38743 8.52893C1.097 8.82254 0.934626 9.21919 0.935797 9.63217C0.936968 10.0452 1.10159 10.4409 1.39368 10.7328L3.63274 12.9688C3.77761 13.1144 3.94989 13.2298 4.13964 13.3083C4.32939 13.3869 4.53283 13.4271 4.73821 13.4266H4.7468C4.95362 13.4263 5.15831 13.3847 5.34883 13.3042C5.53934 13.2237 5.71184 13.106 5.85618 12.9578L10.6116 8.08362C10.7862 7.91256 11.0204 7.81598 11.2648 7.81423C11.5092 7.81248 11.7448 7.90571 11.9218 8.07424C12.0087 8.15917 12.0776 8.26067 12.1246 8.37271C12.1716 8.48476 12.1956 8.60509 12.1952 8.72659C12.1979 8.99232 12.0951 9.24826 11.9093 9.43831L7.04602 14.1406C6.89731 14.2849 6.77879 14.4574 6.69735 14.6479C6.61591 14.8385 6.57319 15.0433 6.57166 15.2505C6.57014 15.4577 6.60984 15.6631 6.68846 15.8549C6.76708 16.0466 6.88305 16.2207 7.02961 16.3672L9.26868 18.6063C9.56062 18.8961 9.9547 19.0596 10.366 19.0616C10.7774 19.0637 11.1731 18.9041 11.4679 18.6172L16.2929 13.8953L16.2999 13.8883C19.1132 11.0766 19.1546 6.50862 16.3937 3.70628ZM4.73586 11.4227L2.93899 9.62581L4.36008 8.18753L6.14758 9.97503L4.73586 11.4227ZM10.3765 17.0617L8.57961 15.2649L10.0335 13.8586L11.821 15.6453L10.3765 17.0617ZM14.9773 12.5602L13.1624 14.336L11.3827 12.5571L13.2195 10.7813L13.2312 10.7703C13.5002 10.4994 13.7128 10.1778 13.8568 9.8242C14.0008 9.4706 14.0734 9.09197 14.0702 8.71018C14.0691 8.33939 13.9934 7.97261 13.8478 7.6316C13.7022 7.29059 13.4896 6.9823 13.2226 6.72503C12.6899 6.21744 11.9804 5.93743 11.2447 5.94443C10.5089 5.95143 9.80486 6.2449 9.28196 6.76253L9.27415 6.77112L7.45774 8.63206L5.67805 6.85315L7.51399 4.99378C8.00618 4.49879 8.59168 4.10637 9.23659 3.83924C9.88149 3.5721 10.573 3.43556 11.271 3.43753H11.2913C11.9929 3.4384 12.6873 3.57902 13.334 3.85118C13.9807 4.12335 14.5667 4.52159 15.0577 5.02268C17.0976 7.09221 17.0609 10.4727 14.9773 12.5602Z" fill="#191F2E"/>
</svg>
