<svg width="20" height="20" viewBox="0 0 20 20" fill="none" xmlns="http://www.w3.org/2000/svg">
<path d="M17.8844 3.882C17.8095 3.82366 17.7223 3.78314 17.6295 3.76351C17.5366 3.74389 17.4405 3.74566 17.3484 3.76872L12.5727 4.96247L7.77969 2.56559C7.64614 2.49898 7.49317 2.48235 7.34844 2.51872L2.34844 3.76872C2.21323 3.80251 2.09319 3.88053 2.00741 3.99038C1.92163 4.10023 1.87502 4.23559 1.875 4.37497V15.625C1.87501 15.7199 1.89667 15.8137 1.93833 15.899C1.97998 15.9843 2.04054 16.0591 2.1154 16.1175C2.19025 16.176 2.27745 16.2166 2.37035 16.2363C2.46326 16.256 2.55943 16.2542 2.65156 16.2312L7.42734 15.0375L12.2203 17.4343C12.3073 17.4772 12.403 17.4997 12.5 17.5C12.5511 17.4999 12.602 17.4936 12.6516 17.4812L17.6516 16.2312C17.7868 16.1974 17.9068 16.1194 17.9926 16.0096C18.0784 15.8997 18.125 15.7643 18.125 15.625V4.37497C18.125 4.27991 18.1034 4.1861 18.0617 4.10067C18.02 4.01525 17.9593 3.94046 17.8844 3.882ZM8.125 4.1359L11.875 6.0109V15.864L8.125 13.989V4.1359ZM3.125 4.86325L6.875 3.92575V13.8867L3.125 14.8242V4.86325ZM16.875 15.1367L13.125 16.0742V6.11325L16.875 5.17575V15.1367Z" fill="#191F2E"/>
</svg>
