<svg width="20" height="20" viewBox="0 0 20 20" fill="none" xmlns="http://www.w3.org/2000/svg">
<path d="M15.625 17.1875H12.557C12.9617 16.7969 13.3969 16.3508 13.8328 15.8492C16.0273 13.3258 17.1875 10.6539 17.1875 8.125C17.1875 6.21876 16.4302 4.39059 15.0823 3.04267C13.7344 1.69475 11.9062 0.9375 10 0.9375C8.09376 0.9375 6.26559 1.69475 4.91767 3.04267C3.56975 4.39059 2.8125 6.21876 2.8125 8.125C2.8125 12.0312 5.47813 15.3078 7.43594 17.1875H4.375C4.12636 17.1875 3.8879 17.2863 3.71209 17.4621C3.53627 17.6379 3.4375 17.8764 3.4375 18.125C3.4375 18.3736 3.53627 18.6121 3.71209 18.7879C3.8879 18.9637 4.12636 19.0625 4.375 19.0625H15.625C15.8736 19.0625 16.1121 18.9637 16.2879 18.7879C16.4637 18.6121 16.5625 18.3736 16.5625 18.125C16.5625 17.8764 16.4637 17.6379 16.2879 17.4621C16.1121 17.2863 15.8736 17.1875 15.625 17.1875ZM4.6875 8.125C4.6875 6.71604 5.24721 5.36478 6.2435 4.3685C7.23978 3.37221 8.59104 2.8125 10 2.8125C11.409 2.8125 12.7602 3.37221 13.7565 4.3685C14.7528 5.36478 15.3125 6.71604 15.3125 8.125C15.3125 10.7273 13.75 13.0758 12.4453 14.5867C11.7004 15.4424 10.8822 16.2313 10 16.9445C9.1178 16.2313 8.29958 15.4424 7.55469 14.5867C6.25 13.0758 4.6875 10.7273 4.6875 8.125ZM10 11.5625C10.6799 11.5625 11.3445 11.3609 11.9098 10.9832C12.4751 10.6055 12.9157 10.0686 13.1758 9.44047C13.436 8.81235 13.5041 8.12119 13.3714 7.45438C13.2388 6.78757 12.9114 6.17506 12.4307 5.69432C11.9499 5.21358 11.3374 4.88619 10.6706 4.75355C10.0038 4.62091 9.31265 4.68899 8.68453 4.94916C8.0564 5.20934 7.51954 5.64993 7.14182 6.21523C6.76411 6.78052 6.5625 7.44513 6.5625 8.125C6.56353 9.03636 6.92603 9.91011 7.57046 10.5545C8.21489 11.199 9.08864 11.5615 10 11.5625ZM10 6.5625C10.309 6.5625 10.6111 6.65414 10.8681 6.82583C11.125 6.99752 11.3253 7.24155 11.4436 7.52706C11.5618 7.81257 11.5928 8.12673 11.5325 8.42983C11.4722 8.73292 11.3234 9.01133 11.1049 9.22985C10.8863 9.44837 10.6079 9.59719 10.3048 9.65748C10.0017 9.71777 9.68757 9.68682 9.40206 9.56856C9.11655 9.4503 8.87252 9.25003 8.70083 8.99308C8.52914 8.73613 8.4375 8.43403 8.4375 8.125C8.4375 7.7106 8.60212 7.31317 8.89515 7.02015C9.18817 6.72712 9.5856 6.5625 10 6.5625Z" fill="#191F2E"/>
</svg>
