<svg width="20" height="20" viewBox="0 0 20 20" fill="none" xmlns="http://www.w3.org/2000/svg">
<path d="M15.9665 4.03131C14.5855 2.64942 12.7681 1.78914 10.8239 1.59707C8.87979 1.405 6.92918 1.89303 5.30452 2.97798C3.67986 4.06294 2.48169 5.67769 1.91417 7.54706C1.34666 9.41644 1.44492 11.4248 2.19222 13.2298C2.93952 15.0349 4.28961 16.5249 6.01242 17.4461C7.73524 18.3673 9.72417 18.6625 11.6403 18.2816C13.5564 17.9006 15.2812 16.867 16.5206 15.3569C17.7601 13.8468 18.4375 11.9537 18.4376 10.0001C18.4375 7.7616 17.5487 5.61474 15.9665 4.03131ZM8.43755 10.9376H11.5626V12.1876H8.43755V10.9376ZM7.18755 15.9313V14.0626H12.8126V15.9297C11.9332 16.3452 10.9728 16.5607 10.0002 16.561C9.02768 16.5613 8.06714 16.3462 7.18755 15.9313ZM14.6876 14.593V13.7501C14.6876 13.3899 14.5632 13.0407 14.3355 12.7617C14.1077 12.4826 13.7905 12.2908 13.4376 12.2188V10.6251C13.4373 10.2809 13.3234 9.94654 13.1136 9.67376C12.9039 9.40097 12.6099 9.20507 12.2774 9.11646L11.5055 6.34381C11.4141 6.01478 11.2174 5.72476 10.9455 5.51812C10.6736 5.31148 10.3415 5.1996 10.0001 5.1996C9.65856 5.1996 9.32646 5.31148 9.05458 5.51812C8.7827 5.72476 8.586 6.01478 8.49458 6.34381L7.72271 9.11646C7.39019 9.20507 7.09623 9.40097 6.88646 9.67376C6.67668 9.94654 6.56282 10.2809 6.56255 10.6251V12.2204C6.20989 12.2924 5.89289 12.4839 5.66514 12.7626C5.43738 13.0413 5.31284 13.3901 5.31255 13.7501V14.5915C4.40817 13.6684 3.79643 12.499 3.55404 11.2297C3.31164 9.96035 3.44938 8.64774 3.94998 7.45641C4.45059 6.26508 5.29177 5.24805 6.36805 4.53287C7.44434 3.81768 8.70781 3.43617 10.0001 3.43617C11.2923 3.43617 12.5558 3.81768 13.632 4.53287C14.7083 5.24805 15.5495 6.26508 16.0501 7.45641C16.5507 8.64774 16.6885 9.96035 16.4461 11.2297C16.2037 12.499 15.5919 13.6684 14.6876 14.5915V14.593Z" fill="#191F2E"/>
</svg>
