<svg width="20" height="20" viewBox="0 0 20 20" fill="none" xmlns="http://www.w3.org/2000/svg">
<path d="M18.5672 3.56719C18.6547 3.47978 18.7143 3.36837 18.7385 3.24707C18.7626 3.12576 18.7502 3.00002 18.7029 2.88576C18.6555 2.77149 18.5754 2.67384 18.4725 2.60517C18.3696 2.53651 18.2487 2.4999 18.125 2.5H1.875C1.75132 2.4999 1.63038 2.53651 1.52751 2.60517C1.42464 2.67384 1.34446 2.77149 1.29711 2.88576C1.24977 3.00002 1.23739 3.12576 1.26154 3.24707C1.2857 3.36837 1.34531 3.47978 1.43281 3.56719L9.375 11.5086V16.25H6.875C6.70924 16.25 6.55027 16.3158 6.43306 16.4331C6.31585 16.5503 6.25 16.7092 6.25 16.875C6.25 17.0408 6.31585 17.1997 6.43306 17.3169C6.55027 17.4342 6.70924 17.5 6.875 17.5H13.125C13.2908 17.5 13.4497 17.4342 13.5669 17.3169C13.6842 17.1997 13.75 17.0408 13.75 16.875C13.75 16.7092 13.6842 16.5503 13.5669 16.4331C13.4497 16.3158 13.2908 16.25 13.125 16.25H10.625V11.5086L18.5672 3.56719ZM3.38359 3.75H16.6164L15.3664 5H4.63359L3.38359 3.75ZM10 10.3664L5.88359 6.25H14.1164L10 10.3664Z" fill="#191F2E"/>
</svg>
