<svg width="20" height="20" viewBox="0 0 20 20" fill="none" xmlns="http://www.w3.org/2000/svg">
<path d="M16.9531 2.71881C16.7857 2.6038 16.5926 2.53149 16.3908 2.50821C16.189 2.48492 15.9846 2.51136 15.7953 2.58522C14.6992 3.01178 12.4859 3.72741 10 3.72741C7.51406 3.72741 5.3 3.01178 4.20234 2.58522C4.01296 2.5117 3.8085 2.48545 3.60669 2.50875C3.40487 2.53204 3.21177 2.60417 3.04411 2.71889C2.87645 2.83362 2.73928 2.98748 2.64447 3.16715C2.54966 3.34683 2.50007 3.54691 2.5 3.75006V8.1071C2.5 10.9071 3.25391 13.5485 4.62344 15.543C6.04219 17.6102 7.95156 18.7462 10 18.7462C12.0484 18.7462 13.9578 17.6079 15.3766 15.543C16.7461 13.5501 17.5 10.9087 17.5 8.10866V3.75006C17.4996 3.54665 17.4496 3.34639 17.3543 3.16668C17.259 2.98697 17.1213 2.83324 16.9531 2.71881ZM16.25 8.10944C16.25 10.6594 15.5734 13.0493 14.3461 14.8383C13.1672 16.5548 11.6242 17.5001 10 17.5001C8.37578 17.5001 6.83281 16.5548 5.65391 14.8376C4.42656 13.0469 3.75 10.6587 3.75 8.10866V3.75006C4.93047 4.20866 7.31094 4.97741 10 4.97741C12.6891 4.97741 15.0703 4.20866 16.25 3.75006V8.11022V8.10944ZM14.8438 9.58366C14.9542 9.70798 15.0107 9.87108 15.0009 10.0371C14.9911 10.2031 14.9157 10.3584 14.7914 10.4688C14.6671 10.5793 14.504 10.6358 14.338 10.626C14.172 10.6161 14.0167 10.5408 13.9062 10.4165C13.6969 10.1821 13.2148 10.0001 12.8125 10.0001C12.4102 10.0001 11.925 10.1829 11.7188 10.4165C11.6082 10.5408 11.4528 10.6161 11.2867 10.6258C11.1207 10.6356 10.9575 10.579 10.8332 10.4684C10.7089 10.3579 10.6336 10.2025 10.6238 10.0364C10.6141 9.87034 10.6707 9.7072 10.7812 9.58288C11.2273 9.08444 12.0422 8.75006 12.8125 8.75006C13.5828 8.75006 14.3945 9.08444 14.8438 9.58288V9.58366ZM7.1875 10.0001C6.78203 10.0001 6.3 10.1829 6.09375 10.4165C5.98321 10.5408 5.82781 10.6161 5.66174 10.6258C5.49566 10.6356 5.33252 10.579 5.2082 10.4684C5.08388 10.3579 5.00857 10.2025 4.99882 10.0364C4.98908 9.87034 5.04571 9.7072 5.15625 9.58288C5.60547 9.08444 6.42031 8.75006 7.1875 8.75006C7.95469 8.75006 8.76953 9.08444 9.21875 9.58288C9.32929 9.7072 9.38592 9.87034 9.37618 10.0364C9.36643 10.2025 9.29112 10.3579 9.1668 10.4684C9.10524 10.5232 9.0335 10.5652 8.95569 10.5922C8.87787 10.6193 8.79549 10.6307 8.71326 10.6258C8.54719 10.6161 8.39179 10.5408 8.28125 10.4165C8.075 10.1829 7.59297 10.0001 7.1875 10.0001ZM13.1602 13.5305C12.7722 13.9908 12.2884 14.3608 11.7425 14.6146C11.1967 14.8685 10.602 15 10 15C9.39802 15 8.80331 14.8685 8.25746 14.6146C7.7116 14.3608 7.22779 13.9908 6.83984 13.5305C6.78655 13.4681 6.74607 13.3958 6.72072 13.3177C6.69536 13.2396 6.68564 13.1573 6.6921 13.0755C6.69855 12.9937 6.72106 12.9139 6.75834 12.8408C6.79563 12.7677 6.84695 12.7026 6.90938 12.6493C6.9718 12.596 7.04412 12.5555 7.12219 12.5302C7.20027 12.5048 7.28257 12.4951 7.3644 12.5015C7.44623 12.508 7.52599 12.5305 7.59912 12.5678C7.67225 12.6051 7.73733 12.6564 7.79063 12.7188C8.06113 13.0418 8.39914 13.3015 8.78087 13.4797C9.16259 13.6579 9.57873 13.7502 10 13.7502C10.4213 13.7502 10.8374 13.6579 11.2191 13.4797C11.6009 13.3015 11.9389 13.0418 12.2094 12.7188C12.2627 12.6564 12.3277 12.6051 12.4009 12.5678C12.474 12.5305 12.5538 12.508 12.6356 12.5015C12.7174 12.4951 12.7997 12.5048 12.8778 12.5302C12.9559 12.5555 13.0282 12.596 13.0906 12.6493C13.1531 12.7026 13.2044 12.7677 13.2417 12.8408C13.2789 12.9139 13.3014 12.9937 13.3079 13.0755C13.3144 13.1573 13.3046 13.2396 13.2793 13.3177C13.2539 13.3958 13.2135 13.4681 13.1602 13.5305Z" fill="#191F2E"/>
</svg>
