<svg width="20" height="20" viewBox="0 0 20 20" fill="none" xmlns="http://www.w3.org/2000/svg">
<path d="M16.9531 2.71881C16.7857 2.6038 16.5926 2.53149 16.3908 2.50821C16.189 2.48492 15.9846 2.51136 15.7953 2.58522C14.6992 3.01178 12.4859 3.72741 10 3.72741C7.51406 3.72741 5.3 3.01178 4.20234 2.58522C4.01296 2.5117 3.8085 2.48545 3.60669 2.50875C3.40487 2.53204 3.21177 2.60417 3.04411 2.71889C2.87645 2.83362 2.73928 2.98748 2.64447 3.16715C2.54966 3.34683 2.50007 3.54691 2.5 3.75006V8.1071C2.5 10.9071 3.25391 13.5485 4.62344 15.543C6.04219 17.6102 7.95156 18.7462 10 18.7462C12.0484 18.7462 13.9578 17.6079 15.3766 15.543C16.7461 13.5501 17.5 10.9087 17.5 8.10866V3.75006C17.4996 3.54665 17.4496 3.34639 17.3543 3.16668C17.259 2.98697 17.1213 2.83324 16.9531 2.71881ZM6.09375 10.4165C5.98321 10.5408 5.82781 10.6161 5.66174 10.6258C5.49566 10.6356 5.33252 10.579 5.2082 10.4684C5.08388 10.3579 5.00857 10.2025 4.99882 10.0364C4.98908 9.87034 5.04571 9.7072 5.15625 9.58288C5.60547 9.08444 6.42031 8.75006 7.1875 8.75006C7.95469 8.75006 8.76953 9.08444 9.21875 9.58288C9.32929 9.7072 9.38592 9.87034 9.37618 10.0364C9.36643 10.2025 9.29112 10.3579 9.1668 10.4684C9.10524 10.5232 9.0335 10.5652 8.95569 10.5922C8.87787 10.6193 8.79549 10.6307 8.71326 10.6258C8.54719 10.6161 8.39179 10.5408 8.28125 10.4165C8.07188 10.1821 7.58984 10.0001 7.1875 10.0001C6.78516 10.0001 6.3 10.1829 6.09375 10.4165ZM13.1633 14.1555C12.7753 14.6158 12.2915 14.9858 11.7457 15.2396C11.1998 15.4935 10.6051 15.625 10.0031 15.625C9.40115 15.625 8.80643 15.4935 8.26058 15.2396C7.71473 14.9858 7.23091 14.6158 6.84297 14.1555C6.78377 14.0942 6.73773 14.0215 6.70768 13.9417C6.67764 13.862 6.66421 13.7769 6.66824 13.6918C6.67227 13.6067 6.69366 13.5233 6.7311 13.4468C6.76854 13.3702 6.82124 13.3021 6.88596 13.2467C6.95068 13.1912 7.02605 13.1496 7.10744 13.1244C7.18884 13.0992 7.27453 13.0908 7.35926 13.0999C7.44399 13.109 7.52597 13.1354 7.60015 13.1773C7.67433 13.2192 7.73915 13.2759 7.79063 13.3438C8.06113 13.6668 8.39914 13.9265 8.78087 14.1047C9.16259 14.2829 9.57873 14.3752 10 14.3752C10.4213 14.3752 10.8374 14.2829 11.2191 14.1047C11.6009 13.9265 11.9389 13.6668 12.2094 13.3438C12.317 13.2177 12.4703 13.1396 12.6356 13.1265C12.8009 13.1135 12.9645 13.1666 13.0906 13.2743C13.2167 13.3819 13.2949 13.5352 13.3079 13.7005C13.3209 13.8658 13.2678 14.0295 13.1602 14.1555H13.1633ZM14.7922 10.4688C14.731 10.5236 14.6596 10.5657 14.5821 10.5929C14.5047 10.6201 14.4226 10.6317 14.3406 10.6271C14.2586 10.6226 14.1783 10.6019 14.1043 10.5663C14.0303 10.5307 13.9641 10.4808 13.9094 10.4196C13.7 10.1852 13.218 10.0032 12.8156 10.0032C12.4133 10.0032 11.9281 10.186 11.7219 10.4196C11.6669 10.4814 11.6004 10.5317 11.526 10.5677C11.4516 10.6038 11.3708 10.6248 11.2883 10.6296C11.2058 10.6344 11.1231 10.623 11.045 10.5958C10.9669 10.5687 10.895 10.5265 10.8332 10.4715C10.7714 10.4166 10.7211 10.35 10.6851 10.2756C10.649 10.2013 10.628 10.1205 10.6232 10.038C10.6184 9.95545 10.6298 9.87279 10.657 9.7947C10.6841 9.71662 10.7263 9.64464 10.7812 9.58288C11.2273 9.08444 12.0422 8.75006 12.8125 8.75006C13.5828 8.75006 14.3945 9.08444 14.8438 9.58288C14.8988 9.64428 14.9412 9.71599 14.9685 9.79386C14.9957 9.87173 15.0073 9.95423 15.0025 10.0366C14.9977 10.1189 14.9767 10.1995 14.9406 10.2737C14.9045 10.3479 14.854 10.4142 14.7922 10.4688Z" fill="#191F2E"/>
</svg>
