<svg width="20" height="20" viewBox="0 0 20 20" fill="none" xmlns="http://www.w3.org/2000/svg">
<path d="M16.25 2.5H3.75C3.41848 2.5 3.10054 2.6317 2.86612 2.86612C2.6317 3.10054 2.5 3.41848 2.5 3.75V16.25C2.5 16.5815 2.6317 16.8995 2.86612 17.1339C3.10054 17.3683 3.41848 17.5 3.75 17.5H16.25C16.5815 17.5 16.8995 17.3683 17.1339 17.1339C17.3683 16.8995 17.5 16.5815 17.5 16.25V3.75C17.5 3.41848 17.3683 3.10054 17.1339 2.86612C16.8995 2.6317 16.5815 2.5 16.25 2.5ZM11.4328 6.06719C11.3155 5.94991 11.2497 5.79085 11.2497 5.625C11.2497 5.45915 11.3155 5.30009 11.4328 5.18281C11.5501 5.06554 11.7091 4.99965 11.875 4.99965C12.0409 4.99965 12.1999 5.06554 12.3172 5.18281L13.125 5.99141L13.9328 5.18281C14.0501 5.06554 14.2091 4.99965 14.375 4.99965C14.5409 4.99965 14.6999 5.06554 14.8172 5.18281C14.9345 5.30009 15.0003 5.45915 15.0003 5.625C15.0003 5.79085 14.9345 5.94991 14.8172 6.06719L14.0086 6.875L14.8172 7.68281C14.8753 7.74088 14.9213 7.80982 14.9527 7.88569C14.9842 7.96156 15.0003 8.04288 15.0003 8.125C15.0003 8.20712 14.9842 8.28844 14.9527 8.36431C14.9213 8.44018 14.8753 8.50912 14.8172 8.56719C14.7591 8.62526 14.6902 8.67132 14.6143 8.70275C14.5384 8.73417 14.4571 8.75035 14.375 8.75035C14.2929 8.75035 14.2116 8.73417 14.1357 8.70275C14.0598 8.67132 13.9909 8.62526 13.9328 8.56719L13.125 7.75859L12.3172 8.56719C12.1999 8.68446 12.0409 8.75035 11.875 8.75035C11.7091 8.75035 11.5501 8.68446 11.4328 8.56719C11.3155 8.44991 11.2497 8.29085 11.2497 8.125C11.2497 7.95915 11.3155 7.80009 11.4328 7.68281L12.2414 6.875L11.4328 6.06719ZM8.75 13.75H7.5V15C7.5 15.1658 7.43415 15.3247 7.31694 15.4419C7.19973 15.5592 7.04076 15.625 6.875 15.625C6.70924 15.625 6.55027 15.5592 6.43306 15.4419C6.31585 15.3247 6.25 15.1658 6.25 15V13.75H5C4.83424 13.75 4.67527 13.6842 4.55806 13.5669C4.44085 13.4497 4.375 13.2908 4.375 13.125C4.375 12.9592 4.44085 12.8003 4.55806 12.6831C4.67527 12.5658 4.83424 12.5 5 12.5H6.25V11.25C6.25 11.0842 6.31585 10.9253 6.43306 10.8081C6.55027 10.6908 6.70924 10.625 6.875 10.625C7.04076 10.625 7.19973 10.6908 7.31694 10.8081C7.43415 10.9253 7.5 11.0842 7.5 11.25V12.5H8.75C8.91576 12.5 9.07473 12.5658 9.19194 12.6831C9.30915 12.8003 9.375 12.9592 9.375 13.125C9.375 13.2908 9.30915 13.4497 9.19194 13.5669C9.07473 13.6842 8.91576 13.75 8.75 13.75ZM8.75 7.5H5C4.83424 7.5 4.67527 7.43415 4.55806 7.31694C4.44085 7.19973 4.375 7.04076 4.375 6.875C4.375 6.70924 4.44085 6.55027 4.55806 6.43306C4.67527 6.31585 4.83424 6.25 5 6.25H8.75C8.91576 6.25 9.07473 6.31585 9.19194 6.43306C9.30915 6.55027 9.375 6.70924 9.375 6.875C9.375 7.04076 9.30915 7.19973 9.19194 7.31694C9.07473 7.43415 8.91576 7.5 8.75 7.5ZM15 15H11.25C11.0842 15 10.9253 14.9342 10.8081 14.8169C10.6908 14.6997 10.625 14.5408 10.625 14.375C10.625 14.2092 10.6908 14.0503 10.8081 13.9331C10.9253 13.8158 11.0842 13.75 11.25 13.75H15C15.1658 13.75 15.3247 13.8158 15.4419 13.9331C15.5592 14.0503 15.625 14.2092 15.625 14.375C15.625 14.5408 15.5592 14.6997 15.4419 14.8169C15.3247 14.9342 15.1658 15 15 15ZM15 12.5H11.25C11.0842 12.5 10.9253 12.4342 10.8081 12.3169C10.6908 12.1997 10.625 12.0408 10.625 11.875C10.625 11.7092 10.6908 11.5503 10.8081 11.4331C10.9253 11.3158 11.0842 11.25 11.25 11.25H15C15.1658 11.25 15.3247 11.3158 15.4419 11.4331C15.5592 11.5503 15.625 11.7092 15.625 11.875C15.625 12.0408 15.5592 12.1997 15.4419 12.3169C15.3247 12.4342 15.1658 12.5 15 12.5Z" fill="#191F2E"/>
</svg>
