<svg width="20" height="20" viewBox="0 0 20 20" fill="none" xmlns="http://www.w3.org/2000/svg">
<path d="M9.0625 5.62497C9.0625 5.87361 8.96373 6.11206 8.78791 6.28788C8.6121 6.46369 8.37364 6.56247 8.125 6.56247H3.125C2.87636 6.56247 2.6379 6.46369 2.46209 6.28788C2.28627 6.11206 2.1875 5.87361 2.1875 5.62497C2.1875 5.37633 2.28627 5.13787 2.46209 4.96205C2.6379 4.78624 2.87636 4.68747 3.125 4.68747H8.125C8.37364 4.68747 8.6121 4.78624 8.78791 4.96205C8.96373 5.13787 9.0625 5.37633 9.0625 5.62497ZM8.125 13.4375H6.5625V11.875C6.5625 11.6263 6.46373 11.3879 6.28791 11.2121C6.1121 11.0362 5.87364 10.9375 5.625 10.9375C5.37636 10.9375 5.1379 11.0362 4.96209 11.2121C4.78627 11.3879 4.6875 11.6263 4.6875 11.875V13.4375H3.125C2.87636 13.4375 2.6379 13.5362 2.46209 13.7121C2.28627 13.8879 2.1875 14.1263 2.1875 14.375C2.1875 14.6236 2.28627 14.8621 2.46209 15.0379C2.6379 15.2137 2.87636 15.3125 3.125 15.3125H4.6875V16.875C4.6875 17.1236 4.78627 17.3621 4.96209 17.5379C5.1379 17.7137 5.37636 17.8125 5.625 17.8125C5.87364 17.8125 6.1121 17.7137 6.28791 17.5379C6.46373 17.3621 6.5625 17.1236 6.5625 16.875V15.3125H8.125C8.37364 15.3125 8.6121 15.2137 8.78791 15.0379C8.96373 14.8621 9.0625 14.6236 9.0625 14.375C9.0625 14.1263 8.96373 13.8879 8.78791 13.7121C8.6121 13.5362 8.37364 13.4375 8.125 13.4375ZM11.875 13.75H16.875C17.1236 13.75 17.3621 13.6512 17.5379 13.4754C17.7137 13.2996 17.8125 13.0611 17.8125 12.8125C17.8125 12.5638 17.7137 12.3254 17.5379 12.1496C17.3621 11.9737 17.1236 11.875 16.875 11.875H11.875C11.6264 11.875 11.3879 11.9737 11.2121 12.1496C11.0363 12.3254 10.9375 12.5638 10.9375 12.8125C10.9375 13.0611 11.0363 13.2996 11.2121 13.4754C11.3879 13.6512 11.6264 13.75 11.875 13.75ZM16.875 15H11.875C11.6264 15 11.3879 15.0987 11.2121 15.2746C11.0363 15.4504 10.9375 15.6888 10.9375 15.9375C10.9375 16.1861 11.0363 16.4246 11.2121 16.6004C11.3879 16.7762 11.6264 16.875 11.875 16.875H16.875C17.1236 16.875 17.3621 16.7762 17.5379 16.6004C17.7137 16.4246 17.8125 16.1861 17.8125 15.9375C17.8125 15.6888 17.7137 15.4504 17.5379 15.2746C17.3621 15.0987 17.1236 15 16.875 15ZM11.8367 8.16325C11.9238 8.25065 12.0273 8.31999 12.1413 8.36731C12.2552 8.41463 12.3774 8.43899 12.5008 8.43899C12.6242 8.43899 12.7463 8.41463 12.8603 8.36731C12.9743 8.31999 13.0777 8.25065 13.1648 8.16325L14.375 6.95309L15.5867 8.16559C15.7628 8.34171 16.0017 8.44065 16.2508 8.44065C16.4999 8.44065 16.7387 8.34171 16.9148 8.16559C17.091 7.98947 17.1899 7.7506 17.1899 7.50153C17.1899 7.25246 17.091 7.01359 16.9148 6.83747L15.7031 5.62497L16.9156 4.41325C17.0917 4.23713 17.1907 3.99826 17.1907 3.74918C17.1907 3.50011 17.0917 3.26124 16.9156 3.08512C16.7395 2.909 16.5006 2.81006 16.2516 2.81006C16.0025 2.81006 15.7636 2.909 15.5875 3.08512L14.375 4.29684L13.1633 3.08668C12.9872 2.91056 12.7483 2.81162 12.4992 2.81162C12.2501 2.81162 12.0113 2.91056 11.8352 3.08668C11.659 3.26281 11.5601 3.50168 11.5601 3.75075C11.5601 3.99982 11.659 4.23869 11.8352 4.41481L13.0469 5.62497L11.8367 6.83669C11.7496 6.92375 11.6804 7.02715 11.6332 7.14096C11.586 7.25477 11.5618 7.37676 11.5618 7.49997C11.5618 7.62317 11.586 7.74516 11.6332 7.85897C11.6804 7.97278 11.7496 8.07618 11.8367 8.16325Z" fill="#191F2E"/>
</svg>
