<svg width="20" height="20" viewBox="0 0 20 20" fill="none" xmlns="http://www.w3.org/2000/svg">
<path d="M8.75 5.6251C8.75 5.79086 8.68415 5.94983 8.56694 6.06704C8.44973 6.18426 8.29076 6.2501 8.125 6.2501H3.125C2.95924 6.2501 2.80027 6.18426 2.68306 6.06704C2.56585 5.94983 2.5 5.79086 2.5 5.6251C2.5 5.45934 2.56585 5.30037 2.68306 5.18316C2.80027 5.06595 2.95924 5.0001 3.125 5.0001H8.125C8.29076 5.0001 8.44973 5.06595 8.56694 5.18316C8.68415 5.30037 8.75 5.45934 8.75 5.6251ZM8.125 13.7501H6.25V11.8751C6.25 11.7093 6.18415 11.5504 6.06694 11.4332C5.94973 11.316 5.79076 11.2501 5.625 11.2501C5.45924 11.2501 5.30027 11.316 5.18306 11.4332C5.06585 11.5504 5 11.7093 5 11.8751V13.7501H3.125C2.95924 13.7501 2.80027 13.816 2.68306 13.9332C2.56585 14.0504 2.5 14.2093 2.5 14.3751C2.5 14.5409 2.56585 14.6998 2.68306 14.817C2.80027 14.9343 2.95924 15.0001 3.125 15.0001H5V16.8751C5 17.0409 5.06585 17.1998 5.18306 17.317C5.30027 17.4343 5.45924 17.5001 5.625 17.5001C5.79076 17.5001 5.94973 17.4343 6.06694 17.317C6.18415 17.1998 6.25 17.0409 6.25 16.8751V15.0001H8.125C8.29076 15.0001 8.44973 14.9343 8.56694 14.817C8.68415 14.6998 8.75 14.5409 8.75 14.3751C8.75 14.2093 8.68415 14.0504 8.56694 13.9332C8.44973 13.816 8.29076 13.7501 8.125 13.7501ZM11.875 13.7501H16.875C17.0408 13.7501 17.1997 13.6843 17.3169 13.567C17.4342 13.4498 17.5 13.2909 17.5 13.1251C17.5 12.9593 17.4342 12.8004 17.3169 12.6832C17.1997 12.566 17.0408 12.5001 16.875 12.5001H11.875C11.7092 12.5001 11.5503 12.566 11.4331 12.6832C11.3158 12.8004 11.25 12.9593 11.25 13.1251C11.25 13.2909 11.3158 13.4498 11.4331 13.567C11.5503 13.6843 11.7092 13.7501 11.875 13.7501ZM16.875 15.0001H11.875C11.7092 15.0001 11.5503 15.066 11.4331 15.1832C11.3158 15.3004 11.25 15.4593 11.25 15.6251C11.25 15.7909 11.3158 15.9498 11.4331 16.067C11.5503 16.1843 11.7092 16.2501 11.875 16.2501H16.875C17.0408 16.2501 17.1997 16.1843 17.3169 16.067C17.4342 15.9498 17.5 15.7909 17.5 15.6251C17.5 15.4593 17.4342 15.3004 17.3169 15.1832C17.1997 15.066 17.0408 15.0001 16.875 15.0001ZM12.0578 7.94229C12.1159 8.0004 12.1848 8.0465 12.2607 8.07795C12.3365 8.10941 12.4179 8.1256 12.5 8.1256C12.5821 8.1256 12.6635 8.10941 12.7393 8.07795C12.8152 8.0465 12.8841 8.0004 12.9422 7.94229L14.375 6.5087L15.8078 7.94229C15.8659 8.00036 15.9348 8.04642 16.0107 8.07785C16.0866 8.10928 16.1679 8.12545 16.25 8.12545C16.3321 8.12545 16.4134 8.10928 16.4893 8.07785C16.5652 8.04642 16.6341 8.00036 16.6922 7.94229C16.7503 7.88422 16.7963 7.81528 16.8277 7.73941C16.8592 7.66354 16.8753 7.58223 16.8753 7.5001C16.8753 7.41798 16.8592 7.33666 16.8277 7.26079C16.7963 7.18492 16.7503 7.11598 16.6922 7.05792L15.2586 5.6251L16.6922 4.19229C16.8095 4.07502 16.8753 3.91596 16.8753 3.7501C16.8753 3.58425 16.8095 3.42519 16.6922 3.30792C16.5749 3.19064 16.4159 3.12476 16.25 3.12476C16.0841 3.12476 15.9251 3.19064 15.8078 3.30792L14.375 4.74151L12.9422 3.30792C12.8249 3.19064 12.6659 3.12476 12.5 3.12476C12.3341 3.12476 12.1751 3.19064 12.0578 3.30792C11.9405 3.42519 11.8747 3.58425 11.8747 3.7501C11.8747 3.91596 11.9405 4.07502 12.0578 4.19229L13.4914 5.6251L12.0578 7.05792C11.9997 7.11596 11.9536 7.18489 11.9221 7.26077C11.8907 7.33664 11.8745 7.41797 11.8745 7.5001C11.8745 7.58224 11.8907 7.66357 11.9221 7.73944C11.9536 7.81531 11.9997 7.88425 12.0578 7.94229Z" fill="#191F2E"/>
</svg>
