<svg width="20" height="20" viewBox="0 0 20 20" fill="none" xmlns="http://www.w3.org/2000/svg">
<path d="M16.875 7.49993C16.8757 6.34134 16.5836 5.20136 16.0258 4.18589C15.468 3.17041 14.6626 2.31237 13.6844 1.69147C12.7062 1.07057 11.587 0.706936 10.4307 0.634355C9.27438 0.561774 8.11847 0.782595 7.07034 1.27631C6.02221 1.77002 5.11584 2.52062 4.43544 3.45837C3.75503 4.39612 3.32265 5.49062 3.17846 6.64021C3.03426 7.78979 3.18293 8.95717 3.61065 10.0339C4.03837 11.1107 4.73128 12.0619 5.625 12.7992V18.7499C5.62492 18.8565 5.65211 18.9614 5.70397 19.0545C5.75584 19.1476 5.83065 19.2259 5.92131 19.282C6.01197 19.338 6.11546 19.37 6.22195 19.3748C6.32843 19.3795 6.43437 19.357 6.52969 19.3093L10 17.5781L13.4711 19.3132C13.5581 19.3549 13.6535 19.376 13.75 19.3749C13.9158 19.3749 14.0747 19.3091 14.1919 19.1919C14.3092 19.0747 14.375 18.9157 14.375 18.7499V12.7992C15.157 12.1551 15.7867 11.3459 16.2189 10.4297C16.6512 9.51352 16.8752 8.51298 16.875 7.49993ZM4.375 7.49993C4.375 6.38741 4.7049 5.29988 5.32298 4.37485C5.94107 3.44982 6.81957 2.72885 7.84741 2.30311C8.87524 1.87737 10.0062 1.76597 11.0974 1.98301C12.1885 2.20006 13.1908 2.73579 13.9775 3.52246C14.7641 4.30913 15.2999 5.31141 15.5169 6.40255C15.734 7.49369 15.6226 8.62469 15.1968 9.65253C14.7711 10.6804 14.0501 11.5589 13.1251 12.1769C12.2001 12.795 11.1125 13.1249 10 13.1249C8.50867 13.1233 7.07889 12.5301 6.02435 11.4756C4.96982 10.421 4.37666 8.99127 4.375 7.49993ZM5.625 7.49993C5.625 6.63464 5.88159 5.78878 6.36232 5.06931C6.84305 4.34985 7.52633 3.78909 8.32576 3.45796C9.12519 3.12683 10.0049 3.04019 10.8535 3.209C11.7022 3.37781 12.4817 3.79449 13.0936 4.40634C13.7054 5.01819 14.1221 5.79775 14.2909 6.64641C14.4597 7.49508 14.3731 8.37475 14.042 9.17417C13.7108 9.9736 13.1501 10.6569 12.4306 11.1376C11.7112 11.6183 10.8653 11.8749 10 11.8749C8.84006 11.8737 7.72798 11.4124 6.90778 10.5922C6.08758 9.77195 5.62624 8.65987 5.625 7.49993Z" fill="#191F2E"/>
</svg>
