<svg width="20" height="20" viewBox="0 0 20 20" fill="none" xmlns="http://www.w3.org/2000/svg">
<path d="M16.1719 2.1875H3.82812C3.393 2.1875 2.9757 2.36035 2.66803 2.66803C2.36035 2.9757 2.1875 3.393 2.1875 3.82812V7.67266C2.18761 7.98756 2.27836 8.29578 2.44889 8.56052C2.61942 8.82525 2.86254 9.03531 3.14922 9.16563L7.52422 11.1555C6.85088 11.6723 6.35632 12.387 6.10999 13.1992C5.86366 14.0115 5.87794 14.8805 6.15082 15.6843C6.4237 16.488 6.94147 17.1861 7.63143 17.6805C8.32138 18.1748 9.14886 18.4407 9.99766 18.4407C10.8465 18.4407 11.6739 18.1748 12.3639 17.6805C13.0538 17.1861 13.5716 16.488 13.8445 15.6843C14.1174 14.8805 14.1316 14.0115 13.8853 13.1992C13.639 12.387 13.1444 11.6723 12.4711 11.1555L16.8461 9.16563C17.1336 9.036 17.3777 8.82624 17.5491 8.56145C17.7205 8.29666 17.812 7.98808 17.8125 7.67266V3.82812C17.8125 3.393 17.6396 2.9757 17.332 2.66803C17.0243 2.36035 16.607 2.1875 16.1719 2.1875ZM10 10.2203L7.8125 9.22578V4.0625H12.1875V9.22578L10 10.2203ZM4.0625 4.0625H5.9375V8.37344L4.0625 7.52109V4.0625ZM10 16.5625C9.56735 16.5625 9.14442 16.4342 8.78469 16.1938C8.42496 15.9535 8.14458 15.6118 7.97901 15.2121C7.81345 14.8124 7.77013 14.3726 7.85453 13.9482C7.93894 13.5239 8.14728 13.1341 8.4532 12.8282C8.75913 12.5223 9.14891 12.3139 9.57324 12.2295C9.99757 12.1451 10.4374 12.1884 10.8371 12.354C11.2368 12.5196 11.5785 12.8 11.8188 13.1597C12.0592 13.5194 12.1875 13.9424 12.1875 14.375C12.1875 14.9552 11.957 15.5116 11.5468 15.9218C11.1366 16.332 10.5802 16.5625 10 16.5625ZM15.9375 7.52109L14.0625 8.37344V4.0625H15.9375V7.52109Z" fill="#191F2E"/>
</svg>
