<svg width="20" height="20" viewBox="0 0 20 20" fill="none" xmlns="http://www.w3.org/2000/svg">
<path d="M17.1875 7.49994C17.1882 6.29498 16.8859 5.10919 16.3085 4.05159C15.7311 2.99399 14.897 2.09854 13.8831 1.44755C12.8691 0.79657 11.7077 0.410956 10.5058 0.326168C9.30379 0.241379 8.09979 0.460137 7.00447 0.962328C5.90915 1.46452 4.95766 2.23402 4.23749 3.20009C3.51732 4.16615 3.05158 5.29777 2.88311 6.49089C2.71463 7.68402 2.84882 8.90035 3.27333 10.028C3.69784 11.1558 4.39906 12.1586 5.3125 12.9445V18.7499C5.31252 18.9098 5.35339 19.0669 5.43124 19.2065C5.50909 19.3461 5.62133 19.4634 5.7573 19.5474C5.89327 19.6314 6.04845 19.6793 6.20811 19.6864C6.36777 19.6935 6.52661 19.6597 6.66953 19.5882L10 17.9234L13.3313 19.5882C13.4741 19.6596 13.6329 19.6932 13.7924 19.686C13.952 19.6788 14.107 19.6309 14.2429 19.5469C14.3788 19.4629 14.4909 19.3457 14.5687 19.2062C14.6465 19.0667 14.6874 18.9097 14.6875 18.7499V12.9445C15.4718 12.2706 16.1013 11.4353 16.5328 10.4956C16.9643 9.55585 17.1876 8.53399 17.1875 7.49994ZM4.6875 7.49994C4.6875 6.44923 4.99907 5.42211 5.58282 4.54848C6.16656 3.67484 6.99626 2.99392 7.96699 2.59183C8.93773 2.18974 10.0059 2.08454 11.0364 2.28952C12.0669 2.4945 13.0135 3.00047 13.7565 3.74344C14.4995 4.4864 15.0054 5.433 15.2104 6.46353C15.4154 7.49405 15.3102 8.56222 14.9081 9.53295C14.506 10.5037 13.8251 11.3334 12.9515 11.9171C12.0778 12.5009 11.0507 12.8124 10 12.8124C8.59148 12.811 7.24107 12.2508 6.24509 11.2548C5.24912 10.2589 4.68895 8.90846 4.6875 7.49994ZM12.8125 17.2335L10.4188 16.0367C10.2885 15.9715 10.1449 15.9376 9.99922 15.9376C9.85358 15.9376 9.70994 15.9715 9.57969 16.0367L7.1875 17.2328V14.114C8.07693 14.4922 9.0335 14.6871 10 14.6871C10.9665 14.6871 11.9231 14.4922 12.8125 14.114V17.2335ZM10 11.5624C10.8035 11.5624 11.5889 11.3242 12.257 10.8778C12.9251 10.4314 13.4458 9.79692 13.7533 9.05459C14.0607 8.31227 14.1412 7.49544 13.9844 6.70739C13.8277 5.91934 13.4408 5.19547 12.8726 4.62732C12.3045 4.05917 11.5806 3.67225 10.7926 3.5155C10.0045 3.35875 9.18767 3.4392 8.44535 3.74668C7.70302 4.05416 7.06855 4.57486 6.62216 5.24294C6.17576 5.91101 5.9375 6.69646 5.9375 7.49994C5.93874 8.577 6.36715 9.6096 7.12875 10.3712C7.89035 11.1328 8.92294 11.5612 10 11.5624ZM10 5.31244C10.4326 5.31244 10.8556 5.44074 11.2153 5.6811C11.575 5.92147 11.8554 6.26311 12.021 6.66282C12.1866 7.06254 12.2299 7.50237 12.1455 7.9267C12.0611 8.35104 11.8527 8.74081 11.5468 9.04674C11.2409 9.35267 10.8511 9.56101 10.4268 9.64541C10.0024 9.72982 9.56259 9.6865 9.16288 9.52093C8.76317 9.35536 8.42153 9.07499 8.18116 8.71525C7.94079 8.35552 7.8125 7.93259 7.8125 7.49994C7.8125 6.91978 8.04297 6.36338 8.4532 5.95315C8.86344 5.54291 9.41984 5.31244 10 5.31244Z" fill="#191F2E"/>
</svg>
