<svg width="20" height="20" viewBox="0 0 20 20" fill="none" xmlns="http://www.w3.org/2000/svg">
<path d="M16.1719 2.5H3.82812C3.47588 2.5 3.13807 2.63993 2.889 2.889C2.63993 3.13807 2.5 3.47588 2.5 3.82812V7.67266C2.50033 7.92788 2.57419 8.1776 2.71274 8.39194C2.85129 8.60628 3.04867 8.77616 3.28125 8.88125L8.17188 11.1039C7.44773 11.5091 6.87845 12.1431 6.5532 12.9065C6.22794 13.6699 6.16508 14.5197 6.37447 15.3226C6.58386 16.1256 7.05367 16.8364 7.7103 17.3438C8.36694 17.8511 9.17331 18.1264 10.0031 18.1264C10.8329 18.1264 11.6393 17.8511 12.2959 17.3438C12.9526 16.8364 13.4224 16.1256 13.6318 15.3226C13.8412 14.5197 13.7783 13.6699 13.4531 12.9065C13.1278 12.1431 12.5585 11.5091 11.8344 11.1039L16.7188 8.88125C16.9513 8.77616 17.1487 8.60628 17.2873 8.39194C17.4258 8.1776 17.4997 7.92788 17.5 7.67266V3.82812C17.5 3.47588 17.3601 3.13807 17.111 2.889C16.8619 2.63993 16.5241 2.5 16.1719 2.5ZM12.5 3.75V9.42734L10 10.5633L7.5 9.42734V3.75H12.5ZM3.75 7.67266V3.82812C3.75 3.8074 3.75823 3.78753 3.77288 3.77288C3.78753 3.75823 3.8074 3.75 3.82812 3.75H6.25V8.85859L3.79609 7.74375C3.78239 7.73759 3.77075 7.7276 3.76257 7.71499C3.7544 7.70238 3.75003 7.68768 3.75 7.67266ZM10 16.875C9.50555 16.875 9.0222 16.7284 8.61107 16.4537C8.19995 16.179 7.87952 15.7885 7.6903 15.3317C7.50108 14.8749 7.45157 14.3722 7.54804 13.8873C7.6445 13.4023 7.8826 12.9569 8.23223 12.6072C8.58186 12.2576 9.02732 12.0195 9.51227 11.923C9.99723 11.8266 10.4999 11.8761 10.9567 12.0653C11.4135 12.2545 11.804 12.575 12.0787 12.9861C12.3534 13.3972 12.5 13.8805 12.5 14.375C12.5 15.038 12.2366 15.6739 11.7678 16.1428C11.2989 16.6116 10.663 16.875 10 16.875ZM16.25 7.67266C16.25 7.68768 16.2456 7.70238 16.2374 7.71499C16.2293 7.7276 16.2176 7.73759 16.2039 7.74375L13.75 8.85859V3.75H16.1719C16.1926 3.75 16.2125 3.75823 16.2271 3.77288C16.2418 3.78753 16.25 3.8074 16.25 3.82812V7.67266Z" fill="#191F2E"/>
</svg>
