<svg width="20" height="20" viewBox="0 0 20 20" fill="none" xmlns="http://www.w3.org/2000/svg">
<path d="M5.625 5C4.6361 5 3.6694 5.29324 2.84715 5.84265C2.02491 6.39206 1.38404 7.17295 1.0056 8.08658C0.627166 9.00021 0.52815 10.0055 0.721076 10.9755C0.914002 11.9454 1.39021 12.8363 2.08947 13.5355C2.78873 14.2348 3.67965 14.711 4.64955 14.9039C5.61946 15.0969 6.62479 14.9978 7.53842 14.6194C8.45205 14.241 9.23294 13.6001 9.78235 12.7779C10.3318 11.9556 10.625 10.9889 10.625 10C10.6236 8.67436 10.0963 7.40343 9.15894 6.46607C8.22157 5.5287 6.95064 5.00145 5.625 5ZM5.625 13.75C4.88332 13.75 4.1583 13.5301 3.54161 13.118C2.92493 12.706 2.44428 12.1203 2.16045 11.4351C1.87663 10.7498 1.80236 9.99584 1.94706 9.26841C2.09175 8.54098 2.4489 7.8728 2.97335 7.34835C3.4978 6.8239 4.16599 6.46675 4.89341 6.32206C5.62084 6.17736 6.37484 6.25162 7.06007 6.53545C7.74529 6.81928 8.33096 7.29993 8.74301 7.91661C9.15507 8.5333 9.375 9.25832 9.375 10C9.37397 10.9942 8.97855 11.9475 8.27551 12.6505C7.57247 13.3535 6.61925 13.749 5.625 13.75ZM14.375 5C13.9313 5 13.0938 5.21563 12.475 6.66016C12.0883 7.5625 11.875 8.75 11.875 10C11.875 11.25 12.0883 12.4375 12.475 13.3398C13.0938 14.7844 13.9313 15 14.375 15C14.8188 15 15.6563 14.7844 16.275 13.3398C16.6617 12.4375 16.875 11.25 16.875 10C16.875 8.75 16.6617 7.5625 16.275 6.66016C15.6563 5.21563 14.8188 5 14.375 5ZM14.375 13.75C13.9344 13.75 13.125 12.3266 13.125 10C13.125 7.67344 13.9344 6.25 14.375 6.25C14.8156 6.25 15.625 7.67344 15.625 10C15.625 12.3266 14.8156 13.75 14.375 13.75ZM19.375 5.625V14.375C19.375 14.5408 19.3092 14.6997 19.1919 14.8169C19.0747 14.9342 18.9158 15 18.75 15C18.5842 15 18.4253 14.9342 18.3081 14.8169C18.1908 14.6997 18.125 14.5408 18.125 14.375V5.625C18.125 5.45924 18.1908 5.30027 18.3081 5.18306C18.4253 5.06585 18.5842 5 18.75 5C18.9158 5 19.0747 5.06585 19.1919 5.18306C19.3092 5.30027 19.375 5.45924 19.375 5.625Z" fill="#191F2E"/>
</svg>
