<svg width="20" height="20" viewBox="0 0 20 20" fill="none" xmlns="http://www.w3.org/2000/svg">
<path d="M5.3125 4.6875C4.26179 4.6875 3.23467 4.99907 2.36104 5.58282C1.4874 6.16656 0.806483 6.99626 0.404392 7.96699C0.00230182 8.93773 -0.102903 10.0059 0.102081 11.0364C0.307065 12.0669 0.813031 13.0135 1.556 13.7565C2.29896 14.4995 3.24556 15.0054 4.27608 15.2104C5.30661 15.4154 6.37478 15.3102 7.34551 14.9081C8.31624 14.506 9.14594 13.8251 9.72968 12.9515C10.3134 12.0778 10.625 11.0507 10.625 10C10.6236 8.59148 10.0634 7.24107 9.06741 6.24509C8.07143 5.24912 6.72102 4.68895 5.3125 4.6875ZM5.3125 13.4375C4.63263 13.4375 3.96802 13.2359 3.40273 12.8582C2.83744 12.4805 2.39684 11.9436 2.13667 11.3155C1.87649 10.6874 1.80842 9.99619 1.94105 9.32938C2.07369 8.66257 2.40108 8.05006 2.88182 7.56932C3.36257 7.08858 3.97507 6.76119 4.64188 6.62855C5.30869 6.49591 5.99986 6.56399 6.62798 6.82416C7.2561 7.08434 7.79296 7.52493 8.17068 8.09023C8.5484 8.65552 8.75 9.32013 8.75 10C8.74897 10.9114 8.38647 11.7851 7.74204 12.4295C7.09761 13.074 6.22387 13.4365 5.3125 13.4375ZM14.375 4.6875C12.5289 4.6875 11.5625 7.36016 11.5625 10C11.5625 12.6398 12.5289 15.3125 14.375 15.3125C16.2211 15.3125 17.1875 12.6398 17.1875 10C17.1875 7.36016 16.2211 4.6875 14.375 4.6875ZM14.375 13.4273C14.0828 13.2586 13.4375 12.0922 13.4375 10C13.4375 7.90781 14.0828 6.74141 14.375 6.57266C14.6672 6.74141 15.3125 7.90781 15.3125 10C15.3125 12.0922 14.6672 13.2586 14.375 13.4273ZM20 5.625V14.375C20 14.6236 19.9012 14.8621 19.7254 15.0379C19.5496 15.2137 19.3111 15.3125 19.0625 15.3125C18.8139 15.3125 18.5754 15.2137 18.3996 15.0379C18.2238 14.8621 18.125 14.6236 18.125 14.375V5.625C18.125 5.37636 18.2238 5.1379 18.3996 4.96209C18.5754 4.78627 18.8139 4.6875 19.0625 4.6875C19.3111 4.6875 19.5496 4.78627 19.7254 4.96209C19.9012 5.1379 20 5.37636 20 5.625Z" fill="#191F2E"/>
</svg>
