<svg width="20" height="20" viewBox="0 0 20 20" fill="none" xmlns="http://www.w3.org/2000/svg">
<path d="M2.77031 6.77022L16.525 2.55147C16.7112 2.49717 16.9074 2.48693 17.0982 2.52156C17.289 2.55619 17.4692 2.63474 17.6244 2.751C17.7796 2.86725 17.9056 3.01803 17.9925 3.1914C18.0794 3.36477 18.1248 3.55598 18.125 3.7499V14.9999C18.125 15.3314 17.9933 15.6494 17.7589 15.8838C17.5245 16.1182 17.2065 16.2499 16.875 16.2499C16.7555 16.2499 16.6365 16.2328 16.5219 16.1991L10 14.1976V14.9999C10 15.3314 9.8683 15.6494 9.63388 15.8838C9.39946 16.1182 9.08152 16.2499 8.75 16.2499H6.25C5.91848 16.2499 5.60054 16.1182 5.36612 15.8838C5.1317 15.6494 5 15.3314 5 14.9999V12.664L2.77031 11.9804C2.51226 11.9028 2.28594 11.7444 2.12475 11.5285C1.96355 11.3126 1.876 11.0506 1.875 10.7812V7.96865C1.87616 7.69934 1.96379 7.43751 2.12498 7.22176C2.28616 7.006 2.51238 6.84771 2.77031 6.77022ZM6.25 14.9999H8.75V13.814L6.25 13.0468V14.9999ZM3.125 10.7812H3.13359L8.75 12.5062V6.24287L3.13359 7.96865H3.125V10.7812Z" fill="#191F2E"/>
</svg>
