<svg width="20" height="20" viewBox="0 0 20 20" fill="none" xmlns="http://www.w3.org/2000/svg">
<path d="M1.875 9.37503C1.87603 8.38078 2.27145 7.42756 2.97449 6.72452C3.67753 6.02148 4.63076 5.62606 5.625 5.62503H8.73438C8.96172 5.61174 12.9234 5.33284 16.6961 2.16878C16.8783 2.01577 17.1003 1.91793 17.3362 1.88676C17.5721 1.85558 17.8119 1.89236 18.0276 1.99278C18.2433 2.09319 18.4258 2.25307 18.5538 2.45364C18.6817 2.6542 18.7498 2.88712 18.75 3.12503V15.625C18.75 15.863 18.682 16.096 18.5541 16.2967C18.4262 16.4974 18.2437 16.6574 18.0279 16.7579C17.8122 16.8584 17.5723 16.8953 17.3364 16.8641C17.1005 16.833 16.8783 16.7351 16.6961 16.5821C13.7453 14.1071 10.6805 13.3977 9.375 13.1992V15.6774C9.37526 15.8833 9.32462 16.0862 9.22758 16.2679C9.13053 16.4496 8.99009 16.6045 8.81875 16.7188L7.95938 17.2914C7.79327 17.4023 7.60302 17.4718 7.40455 17.494C7.20609 17.5162 7.00519 17.4906 6.81867 17.4192C6.63216 17.3478 6.46546 17.2328 6.33254 17.0837C6.19962 16.9347 6.10434 16.756 6.05469 16.5625L5.13516 13.0969C4.23302 12.9769 3.40517 12.5333 2.80551 11.8487C2.20585 11.1642 1.87519 10.2851 1.875 9.37503ZM17.5 15.6196V3.12503C14.1555 5.93049 10.732 6.64065 9.375 6.81565V11.9313C10.7305 12.1094 14.1531 12.818 17.5 15.6196ZM7.26562 16.2446V16.2532L8.125 15.6805V13.125H6.4375L7.26562 16.2446ZM5.625 11.875H8.125V6.87503H5.625C4.96196 6.87503 4.32607 7.13842 3.85723 7.60726C3.38839 8.0761 3.125 8.71198 3.125 9.37503C3.125 10.0381 3.38839 10.674 3.85723 11.1428C4.32607 11.6116 4.96196 11.875 5.625 11.875Z" fill="#191F2E"/>
</svg>
