<svg width="20" height="20" viewBox="0 0 20 20" fill="none" xmlns="http://www.w3.org/2000/svg">
<path d="M5.65747 5.62503H8.76685C8.99419 5.61174 12.9559 5.33284 16.7286 2.16878C16.9107 2.01577 17.1328 1.91793 17.3687 1.88676C17.6045 1.85558 17.8444 1.89236 18.0601 1.99278C18.2757 2.09319 18.4583 2.25307 18.5863 2.45364C18.7142 2.6542 18.7823 2.88712 18.7825 3.12503V15.625C18.7824 15.863 18.7145 16.096 18.5866 16.2967C18.4587 16.4974 18.2761 16.6574 18.0604 16.7579C17.8447 16.8584 17.6048 16.8953 17.3689 16.8641C17.1329 16.833 16.9108 16.7351 16.7286 16.5821C13.7778 14.1071 10.7129 13.3977 9.40747 13.1992V15.6774C9.40773 15.8833 9.35709 16.0862 9.26005 16.2679C9.163 16.4496 9.02256 16.6045 8.85122 16.7188L7.99185 17.2914C7.82574 17.4023 7.63549 17.4718 7.43702 17.494C7.23856 17.5162 7.03766 17.4906 6.85114 17.4192C6.66463 17.3478 6.49793 17.2328 6.36501 17.0837C6.23209 16.9347 6.13681 16.756 6.08716 16.5625L5.16763 13.0969C4.21705 12.9801 3.34718 12.5041 2.73641 11.7664C2.12565 11.0287 1.82028 10.0852 1.88293 9.12957C1.94558 8.1739 2.37151 7.27841 3.07336 6.62677C3.77521 5.97512 4.69979 5.61671 5.65747 5.62503ZM7.2981 16.2414V16.25L8.15747 15.6774V13.125H6.46997L7.2981 16.2414ZM5.65747 11.875H8.15747V6.87503H5.65747C4.99443 6.87503 4.35855 7.13842 3.88971 7.60726C3.42087 8.0761 3.15747 8.71198 3.15747 9.37503C3.15747 10.0381 3.42087 10.674 3.88971 11.1428C4.35855 11.6116 4.99443 11.875 5.65747 11.875Z" fill="#191F2E"/>
</svg>
