<svg width="20" height="20" viewBox="0 0 20 20" fill="none" xmlns="http://www.w3.org/2000/svg">
<path d="M14.1922 8.3079C14.2503 8.36594 14.2964 8.43487 14.3279 8.51075C14.3593 8.58662 14.3755 8.66795 14.3755 8.75009C14.3755 8.83222 14.3593 8.91355 14.3279 8.98942C14.2964 9.0653 14.2503 9.13423 14.1922 9.19227L11.6922 11.6923C11.6341 11.7504 11.5652 11.7965 11.4893 11.8279C11.4135 11.8594 11.3321 11.8756 11.25 11.8756C11.1679 11.8756 11.0865 11.8594 11.0107 11.8279C10.9348 11.7965 10.8659 11.7504 10.8078 11.6923L8.75 9.63368L6.69219 11.6923C6.57491 11.8095 6.41585 11.8754 6.25 11.8754C6.08415 11.8754 5.92509 11.8095 5.80781 11.6923C5.69054 11.575 5.62465 11.4159 5.62465 11.2501C5.62465 11.0842 5.69054 10.9252 5.80781 10.8079L8.30781 8.3079C8.36586 8.24979 8.43479 8.20369 8.51066 8.17224C8.58654 8.14078 8.66787 8.12459 8.75 8.12459C8.83213 8.12459 8.91346 8.14078 8.98934 8.17224C9.06521 8.20369 9.13414 8.24979 9.19219 8.3079L11.25 10.3665L13.3078 8.3079C13.3659 8.24979 13.4348 8.20369 13.5107 8.17224C13.5865 8.14078 13.6679 8.12459 13.75 8.12459C13.8321 8.12459 13.9135 8.14078 13.9893 8.17224C14.0652 8.20369 14.1341 8.24979 14.1922 8.3079ZM18.125 10.0001C18.1253 11.4028 17.7624 12.7818 17.0717 14.0027C16.381 15.2236 15.3859 16.2449 14.1834 16.9671C12.9808 17.6894 11.6118 18.088 10.2095 18.1242C8.80719 18.1603 7.41942 17.8328 6.18125 17.1735L3.52109 18.0602C3.30085 18.1337 3.0645 18.1444 2.83854 18.091C2.61257 18.0377 2.40593 17.9225 2.24176 17.7583C2.07759 17.5942 1.96239 17.3875 1.90906 17.1615C1.85573 16.9356 1.86639 16.6992 1.93984 16.479L2.82656 13.8188C2.24699 12.7292 1.92328 11.5218 1.88 10.2883C1.83672 9.0549 2.075 7.8278 2.57677 6.70019C3.07854 5.57258 3.8306 4.57411 4.77587 3.78055C5.72114 2.98699 6.83477 2.41921 8.03224 2.1203C9.22971 1.82139 10.4795 1.79922 11.6868 2.05545C12.8942 2.31169 14.0272 2.8396 15.0001 3.59912C15.9729 4.35865 16.7599 5.32981 17.3014 6.43891C17.8428 7.548 18.1245 8.76588 18.125 10.0001ZM16.875 10.0001C16.8747 8.94549 16.6318 7.90511 16.1651 6.95942C15.6983 6.01373 15.0203 5.18808 14.1834 4.54636C13.3466 3.90464 12.3733 3.46405 11.3389 3.25867C10.3045 3.05329 9.23671 3.08863 8.21815 3.36196C7.1996 3.63529 6.25757 4.13927 5.46496 4.83492C4.67235 5.53058 4.0504 6.39925 3.64724 7.37373C3.24407 8.34821 3.07048 9.40238 3.13992 10.4547C3.20935 11.507 3.51994 12.5292 4.04766 13.4423C4.09195 13.5189 4.11945 13.6041 4.12834 13.6922C4.13723 13.7803 4.1273 13.8693 4.09922 13.9532L3.125 16.8751L6.04688 15.9001C6.13089 15.8721 6.21988 15.8623 6.30797 15.8713C6.39605 15.8804 6.48122 15.908 6.55781 15.9524C7.60295 16.5569 8.78885 16.8755 9.99622 16.8762C11.2036 16.8769 12.3898 16.5596 13.4356 15.9562C14.4814 15.3528 15.3499 14.4847 15.9537 13.4392C16.5574 12.3936 16.8752 11.2075 16.875 10.0001Z" fill="#191F2E"/>
</svg>
