<svg width="20" height="20" viewBox="0 0 20 20" fill="none" xmlns="http://www.w3.org/2000/svg">
<path d="M14.4133 9.41317L11.9133 11.9132C11.8262 12.0006 11.7227 12.0699 11.6087 12.1172C11.4948 12.1646 11.3726 12.1889 11.2492 12.1889C11.1258 12.1889 11.0036 12.1646 10.8897 12.1172C10.7757 12.0699 10.6722 12.0006 10.5851 11.9132L8.74998 10.078L6.91326 11.9132C6.73714 12.0893 6.49827 12.1882 6.2492 12.1882C6.00013 12.1882 5.76126 12.0893 5.58514 11.9132C5.40902 11.7371 5.31007 11.4982 5.31007 11.2491C5.31007 11 5.40902 10.7612 5.58514 10.585L8.08514 8.08505C8.17223 7.99765 8.27573 7.9283 8.38968 7.88098C8.50364 7.83366 8.62581 7.80931 8.7492 7.80931C8.87259 7.80931 8.99476 7.83366 9.10872 7.88098C9.22267 7.9283 9.32616 7.99765 9.41326 8.08505L11.25 9.92177L13.0867 8.08427C13.2628 7.90815 13.5017 7.8092 13.7508 7.8092C13.9998 7.8092 14.2387 7.90815 14.4148 8.08427C14.5909 8.26039 14.6899 8.49926 14.6899 8.74833C14.6899 8.9974 14.5909 9.23627 14.4148 9.41239L14.4133 9.41317ZM18.4375 9.99989C18.4378 11.4452 18.0668 12.8663 17.3602 14.1271C16.6535 15.3878 15.6349 16.4459 14.4019 17.1999C13.1689 17.9539 11.7629 18.3786 10.3186 18.4332C8.87434 18.4877 7.44028 18.1704 6.15389 17.5116L3.62029 18.3593C3.34448 18.4522 3.04819 18.4663 2.76481 18.3999C2.48143 18.3335 2.22223 18.1893 2.01642 17.9834C1.81062 17.7776 1.66638 17.5184 1.59998 17.2351C1.53358 16.9517 1.54765 16.6554 1.6406 16.3796L2.48514 13.846C1.90521 12.71 1.59035 11.4574 1.56425 10.1822C1.53815 8.90703 1.80148 7.64254 2.33444 6.48379C2.86739 5.32505 3.65611 4.30221 4.64129 3.49217C5.62647 2.68214 6.78247 2.10599 8.02238 1.80705C9.26229 1.50811 10.5538 1.49416 11.7999 1.76624C13.046 2.03832 14.2142 2.58935 15.2166 3.37791C16.2191 4.16647 17.0297 5.17203 17.5876 6.31899C18.1454 7.46595 18.436 8.72446 18.4375 9.99989ZM16.5625 9.99989C16.5622 8.99325 16.3304 8.00016 15.8849 7.09746C15.4394 6.19476 14.7923 5.40663 13.9935 4.79406C13.1946 4.18149 12.2656 3.7609 11.2783 3.56482C10.2909 3.36874 9.27169 3.40242 8.29943 3.66328C7.32718 3.92413 6.42796 4.40515 5.67135 5.06913C4.91475 5.73311 4.32103 6.56225 3.93613 7.4924C3.55124 8.42255 3.38548 9.42878 3.45169 10.4332C3.5179 11.4377 3.81429 12.4135 4.31795 13.285C4.38463 13.4001 4.42608 13.528 4.43955 13.6602C4.45302 13.7925 4.4382 13.9261 4.39607 14.0522L3.62029 16.3796L5.94764 15.6038C6.04337 15.5719 6.1436 15.5556 6.24451 15.5554C6.40916 15.5557 6.57084 15.5993 6.71326 15.6819C7.71094 16.2592 8.84306 16.5635 9.99572 16.5643C11.1484 16.565 12.2809 16.2622 13.2793 15.6862C14.2777 15.1102 15.1068 14.2814 15.6832 13.2832C16.2595 12.285 16.5628 11.1525 16.5625 9.99989Z" fill="#191F2E"/>
</svg>
