<svg width="20" height="20" viewBox="0 0 20 20" fill="none" xmlns="http://www.w3.org/2000/svg">
<path d="M10 1.875C8.39303 1.875 6.82214 2.35152 5.486 3.24431C4.14985 4.1371 3.10844 5.40605 2.49348 6.8907C1.87852 8.37535 1.71762 10.009 2.03112 11.5851C2.34463 13.1612 3.11846 14.6089 4.25476 15.7452C5.39106 16.8815 6.8388 17.6554 8.4149 17.9689C9.99099 18.2824 11.6247 18.1215 13.1093 17.5065C14.594 16.8916 15.8629 15.8502 16.7557 14.514C17.6485 13.1779 18.125 11.607 18.125 10C18.1227 7.84581 17.266 5.78051 15.7427 4.25727C14.2195 2.73403 12.1542 1.87727 10 1.875ZM15.7211 13.3016C15.2813 14.0047 14.6016 14.375 13.7555 14.375C12.1359 14.375 11.0359 12.3977 9.8711 10.3039C9.0211 8.77578 7.96328 6.875 7.07891 6.875C6.10782 6.875 5 9.13125 5 11.1102C5 11.7555 5.11719 12.282 5.33907 12.6383C5.54688 12.9688 5.83438 13.125 6.24453 13.125C6.71953 13.125 7.30078 12.5781 8.0211 11.4445C8.11247 11.3101 8.25258 11.2166 8.41174 11.1838C8.5709 11.151 8.73658 11.1815 8.87365 11.2688C9.01072 11.356 9.10841 11.4933 9.146 11.6514C9.18359 11.8095 9.15812 11.976 9.075 12.1156C7.8 14.118 6.89219 14.375 6.24453 14.375C5.39844 14.375 4.71875 14.0039 4.27891 13.3016C3.93282 12.7484 3.75 11.9906 3.75 11.1141C3.76378 9.88689 4.05772 8.67908 4.60938 7.58281C5.26094 6.32031 6.13828 5.625 7.07891 5.625C8.69844 5.625 9.79844 7.60234 10.9633 9.69609C11.8133 11.2234 12.8711 13.125 13.7555 13.125C14.1656 13.125 14.4531 12.9688 14.6609 12.6383C14.8828 12.2844 15 11.7555 15 11.1102C15 9.13125 13.8922 6.875 12.9211 6.875C12.6555 6.875 12.3469 7.05547 12.0039 7.4125C11.947 7.4717 11.879 7.51911 11.8038 7.55203C11.7286 7.58495 11.6476 7.60274 11.5656 7.60437C11.4835 7.606 11.4019 7.59145 11.3254 7.56154C11.2489 7.53164 11.1791 7.48697 11.1199 7.43008C11.0607 7.37319 11.0133 7.3052 10.9804 7.22999C10.9475 7.15477 10.9297 7.07381 10.9281 6.99173C10.9264 6.90964 10.941 6.82804 10.9709 6.75158C11.0008 6.67511 11.0455 6.60529 11.1023 6.54609C11.6984 5.92656 12.293 5.625 12.9211 5.625C13.8586 5.625 14.7391 6.32031 15.3914 7.58281C15.9425 8.6779 16.2364 9.88431 16.2508 11.1102C16.25 11.9906 16.0672 12.7484 15.7211 13.3016Z" fill="#191F2E"/>
</svg>
