<svg width="20" height="20" viewBox="0 0 20 20" fill="none" xmlns="http://www.w3.org/2000/svg">
<path d="M18.75 11.6648C18.75 12.9234 18.5023 14 18.0336 14.7773C17.4531 15.7406 16.5492 16.25 15.425 16.25C13.2422 16.25 11.6922 13.3594 10.0516 10.2953C8.72188 7.8125 7.21484 5 5.78125 5C5.04844 5 4.22344 5.78125 3.57422 7.08359C2.88364 8.51311 2.51685 10.0773 2.5 11.6648C2.5 12.6961 2.68594 13.5492 3.0375 14.132C3.38906 14.7148 3.89219 15 4.575 15C5.75625 15 6.98516 13.0828 8.03047 11.207C8.11128 11.062 8.24639 10.955 8.40609 10.9096C8.56579 10.8642 8.73699 10.884 8.88203 10.9648C9.02707 11.0457 9.13407 11.1808 9.17949 11.3405C9.22491 11.5002 9.20503 11.6714 9.12422 11.8164C7.92656 13.9617 6.48984 16.25 4.575 16.25C3.44922 16.25 2.54375 15.7406 1.96641 14.7773C1.49766 13.9961 1.25 12.9234 1.25 11.6648C1.26842 9.88428 1.67977 8.12976 2.45469 6.52656C3.34531 4.73594 4.52656 3.75 5.78125 3.75C7.96406 3.75 9.51328 6.64062 11.1547 9.70469C12.4836 12.1875 13.9906 15 15.425 15C16.1078 15 16.6109 14.7164 16.9625 14.132C17.3141 13.5477 17.5 12.6961 17.5 11.6648C17.4834 10.0774 17.1169 8.51317 16.4266 7.08359C15.7812 5.78125 14.9523 5 14.2188 5C13.5656 5 12.8375 5.58437 11.9914 6.7875C11.9449 6.8563 11.8851 6.91512 11.8155 6.96055C11.746 7.00597 11.6681 7.03708 11.5864 7.05205C11.5047 7.06702 11.4208 7.06556 11.3397 7.04775C11.2586 7.02994 11.1818 6.99614 11.1139 6.94832C11.046 6.9005 10.9883 6.83962 10.9442 6.76924C10.9001 6.69887 10.8704 6.62041 10.857 6.53844C10.8435 6.45648 10.8466 6.37265 10.8659 6.29187C10.8852 6.21109 10.9205 6.13498 10.9695 6.06797C11.6727 5.07266 12.7664 3.75 14.2188 3.75C15.4727 3.75 16.6539 4.73594 17.5445 6.52656C18.3197 8.1297 18.7313 9.88423 18.75 11.6648Z" fill="#191F2E"/>
</svg>
