<svg width="20" height="20" viewBox="0 0 20 20" fill="none" xmlns="http://www.w3.org/2000/svg">
<path d="M17.1133 15.7766L14.9727 9.04844L16.9438 6.88047C17.1075 6.69593 17.1919 6.4543 17.1786 6.20796C17.1653 5.96162 17.0555 5.73044 16.873 5.56452C16.6904 5.39861 16.4498 5.31134 16.2033 5.32164C15.9568 5.33194 15.7244 5.43897 15.5563 5.61954L14.3156 6.9836L13.136 3.27657C13.0362 2.96005 12.8379 2.68367 12.5701 2.48776C12.3022 2.29185 11.9788 2.18665 11.6469 2.18751H8.35236C8.02049 2.18665 7.69704 2.29185 7.42917 2.48776C7.1613 2.68367 6.96304 2.96005 6.8633 3.27657L2.88595 15.7766C2.81149 16.0108 2.79332 16.2592 2.83291 16.5017C2.87251 16.7443 2.96875 16.9741 3.11382 17.1724C3.2589 17.3708 3.44871 17.5321 3.66785 17.6433C3.88699 17.7545 4.12927 17.8125 4.37501 17.8125H15.625C15.8708 17.8125 16.113 17.7545 16.3322 17.6433C16.5513 17.5321 16.7411 17.3708 16.8862 17.1724C17.0313 16.9741 17.1275 16.7443 17.1671 16.5017C17.2067 16.2592 17.1885 16.0108 17.1141 15.7766H17.1133ZM14.0039 12.1875H12.1188L13.5156 10.6516L14.0039 12.1875ZM8.58048 4.06251H11.4188L12.8578 8.58672L9.58517 12.1875H5.99533L8.58048 4.06251ZM4.80236 15.9375L5.39845 14.0625H14.6008L15.1969 15.9375H4.80236Z" fill="#191F2E"/>
</svg>
