<svg width="20" height="20" viewBox="0 0 20 20" fill="none" xmlns="http://www.w3.org/2000/svg">
<path d="M14.6203 8.97188L16.7125 6.67032C16.8216 6.54729 16.8779 6.3862 16.869 6.22198C16.8602 6.05775 16.787 5.90363 16.6653 5.79302C16.5436 5.68241 16.3832 5.62423 16.2188 5.6311C16.0545 5.63796 15.8995 5.70932 15.7875 5.82969L14.182 7.59532L12.8383 3.3711C12.7585 3.11786 12.5998 2.89675 12.3855 2.74004C12.1712 2.58333 11.9124 2.49923 11.6468 2.50001H8.35232C8.08681 2.49923 7.828 2.58333 7.61367 2.74004C7.39933 2.89675 7.2407 3.11786 7.16091 3.3711L3.18357 15.8711C3.12396 16.0585 3.10941 16.2573 3.14108 16.4513C3.17274 16.6454 3.24975 16.8292 3.36583 16.9879C3.48191 17.1467 3.63379 17.2757 3.80914 17.3647C3.98448 17.4537 4.17835 17.5 4.37497 17.5H15.625C15.8216 17.5 16.0155 17.4537 16.1908 17.3647C16.3662 17.2757 16.518 17.1467 16.6341 16.9879C16.7502 16.8292 16.8272 16.6454 16.8589 16.4513C16.8905 16.2573 16.876 16.0585 16.8164 15.8711L14.6203 8.97188ZM14.4312 12.5H11.4125L13.6484 10.0406L14.4312 12.5ZM8.35232 3.75001H11.6468L13.2093 8.66407L9.72341 12.5H5.56794L8.35232 3.75001ZM4.37497 16.25L5.17029 13.75H14.8289L15.625 16.25H4.37497Z" fill="#191F2E"/>
</svg>
