<svg width="20" height="20" viewBox="0 0 20 20" fill="none" xmlns="http://www.w3.org/2000/svg">
<path d="M16.6702 17.3376C16.5476 17.449 16.3856 17.5072 16.2201 17.4993C16.0545 17.4914 15.8989 17.418 15.7874 17.2954L13.7202 15.0219C12.8156 15.6931 11.7458 16.1065 10.6249 16.218V18.1251C10.6249 18.2908 10.5591 18.4498 10.4419 18.567C10.3246 18.6842 10.1657 18.7501 9.99991 18.7501C9.83415 18.7501 9.67518 18.6842 9.55797 18.567C9.44076 18.4498 9.37491 18.2908 9.37491 18.1251V16.2188C7.83401 16.062 6.40598 15.3394 5.36698 14.1907C4.32798 13.0421 3.75182 11.5489 3.74991 10.0001C3.74991 9.83429 3.81576 9.67532 3.93297 9.55811C4.05018 9.4409 4.20915 9.37505 4.37491 9.37505C4.54067 9.37505 4.69964 9.4409 4.81685 9.55811C4.93406 9.67532 4.99991 9.83429 4.99991 10.0001C5.00004 10.9154 5.25141 11.8131 5.72663 12.5953C6.20184 13.3776 6.88267 14.0144 7.69491 14.4364C8.50715 14.8583 9.41963 15.0492 10.3329 14.9883C11.2462 14.9273 12.1252 14.6168 12.8741 14.0907L12.0241 13.1532C11.4578 13.5163 10.8042 13.7204 10.1318 13.7441C9.45947 13.7678 8.79313 13.6101 8.20266 13.2877C7.61218 12.9653 7.11933 12.4899 6.77576 11.9115C6.43219 11.333 6.25056 10.6728 6.24991 10.0001V6.80396L3.28741 3.54536C3.23106 3.48483 3.18728 3.41371 3.15861 3.33613C3.12995 3.25855 3.11697 3.17605 3.12042 3.09342C3.12387 3.01078 3.14369 2.92965 3.17873 2.85473C3.21376 2.77982 3.26332 2.7126 3.32453 2.65697C3.38574 2.60135 3.45738 2.55843 3.5353 2.53069C3.61321 2.50296 3.69586 2.49097 3.77845 2.49541C3.86104 2.49985 3.94192 2.52064 4.01641 2.55658C4.09091 2.59251 4.15753 2.64287 4.21241 2.70474L16.7124 16.4547C16.8239 16.5774 16.882 16.7393 16.8741 16.9049C16.8662 17.0704 16.7929 17.2261 16.6702 17.3376ZM12.6624 10.1415C12.7473 10.2348 12.8584 10.3003 12.9811 10.3293C13.1039 10.3583 13.2326 10.3495 13.3502 10.3041C13.4679 10.2586 13.569 10.1786 13.6404 10.0745C13.7117 9.97048 13.7499 9.84729 13.7499 9.72115V5.00005C13.7499 4.18406 13.4837 3.39035 12.9918 2.73932C12.4998 2.0883 11.809 1.61551 11.024 1.39267C10.239 1.16983 9.40279 1.20911 8.64217 1.50455C7.88154 1.79999 7.23804 2.33547 6.80929 3.02974C6.73742 3.14482 6.70496 3.28016 6.7168 3.41532C6.72863 3.55048 6.78413 3.67812 6.87491 3.77896L12.6624 10.1415ZM15.014 12.6282C15.0905 12.658 15.1721 12.6724 15.2541 12.6707C15.3362 12.669 15.4171 12.6511 15.4923 12.6181C15.5675 12.5851 15.6354 12.5376 15.6922 12.4783C15.749 12.4191 15.7936 12.3492 15.8233 12.2727C16.1063 11.5485 16.251 10.7776 16.2499 10.0001C16.2499 9.83429 16.1841 9.67532 16.0669 9.55811C15.9496 9.4409 15.7907 9.37505 15.6249 9.37505C15.4592 9.37505 15.3002 9.4409 15.183 9.55811C15.0658 9.67532 14.9999 9.83429 14.9999 10.0001C15.001 10.622 14.8854 11.2386 14.6593 11.818C14.6293 11.8945 14.6147 11.9761 14.6164 12.0583C14.618 12.1404 14.6358 12.2214 14.6687 12.2966C14.7016 12.3719 14.7491 12.4399 14.8083 12.4968C14.8676 12.5537 14.9375 12.5983 15.014 12.6282Z" fill="#191F2E"/>
</svg>
