<svg width="20" height="20" viewBox="0 0 20 20" fill="none" xmlns="http://www.w3.org/2000/svg">
<path d="M4.44374 2.49453C4.36141 2.40173 4.26148 2.32618 4.14974 2.27228C4.038 2.21838 3.91668 2.1872 3.79279 2.18053C3.66891 2.17387 3.54494 2.19186 3.42806 2.23346C3.31119 2.27506 3.20373 2.33944 3.11192 2.42288C3.02011 2.50632 2.94577 2.60715 2.89321 2.71952C2.84066 2.8319 2.81093 2.95359 2.80575 3.07755C2.80057 3.2015 2.82004 3.32524 2.86304 3.44161C2.90604 3.55798 2.97171 3.66466 3.05624 3.75547L5.93749 6.925V9.375C5.9369 10.0449 6.10197 10.7045 6.41801 11.2952C6.73406 11.8858 7.19126 12.3892 7.7489 12.7604C8.30655 13.1316 8.94733 13.3591 9.6142 13.4227C10.2811 13.4863 10.9533 13.3841 11.5711 13.125L12.4508 14.093C11.6941 14.4869 10.853 14.6909 9.99999 14.6875C8.59147 14.6861 7.24106 14.1259 6.24509 13.1299C5.24911 12.1339 4.68894 10.7835 4.68749 9.375C4.68749 9.12636 4.58872 8.8879 4.4129 8.71209C4.23709 8.53627 3.99863 8.4375 3.74999 8.4375C3.50135 8.4375 3.26289 8.53627 3.08708 8.71209C2.91126 8.8879 2.81249 9.12636 2.81249 9.375C2.8147 11.1183 3.44947 12.8015 4.59892 14.1122C5.74837 15.4229 7.3344 16.2719 9.06249 16.5016V18.125C9.06249 18.3736 9.16126 18.6121 9.33708 18.7879C9.51289 18.9637 9.75135 19.0625 9.99999 19.0625C10.2486 19.0625 10.4871 18.9637 10.6629 18.7879C10.8387 18.6121 10.9375 18.3736 10.9375 18.125V16.5023C11.9327 16.3752 12.8893 16.0375 13.7437 15.5117L15.5562 17.5055C15.7243 17.686 15.9568 17.7931 16.2033 17.8034C16.4498 17.8137 16.6904 17.7264 16.8729 17.5605C17.0555 17.3946 17.1653 17.1634 17.1786 16.917C17.1918 16.6707 17.1075 16.4291 16.9437 16.2445L4.44374 2.49453ZM9.99999 11.5625C9.41983 11.5625 8.86343 11.332 8.4532 10.9218C8.04296 10.5116 7.81249 9.95516 7.81249 9.375V8.98437L10.1484 11.5539C10.0992 11.5625 10.05 11.5625 9.99999 11.5625ZM7.08358 3.53672C6.99368 3.45211 6.92137 3.35059 6.87081 3.23797C6.82025 3.12535 6.79242 3.00385 6.78894 2.88045C6.78546 2.75704 6.80638 2.63417 6.85051 2.51887C6.89463 2.40358 6.9611 2.29813 7.04609 2.20859C7.60466 1.61699 8.328 1.20674 9.12242 1.03098C9.91684 0.855219 10.7457 0.922052 11.5017 1.22282C12.2577 1.52359 12.906 2.04443 13.3626 2.71788C13.8191 3.39133 14.063 4.18637 14.0625 5V8.79219C14.0625 9.04083 13.9637 9.27928 13.7879 9.4551C13.6121 9.63091 13.3736 9.72969 13.125 9.72969C12.8764 9.72969 12.6379 9.63091 12.4621 9.4551C12.2863 9.27928 12.1875 9.04083 12.1875 8.79219V5C12.1875 4.562 12.056 4.1341 11.81 3.77169C11.564 3.40928 11.2149 3.12906 10.8079 2.96729C10.4009 2.80552 9.95467 2.76967 9.52704 2.86436C9.0994 2.95906 8.71004 3.17995 8.40937 3.49844C8.32485 3.58804 8.22351 3.66012 8.11113 3.71054C7.99875 3.76097 7.87753 3.78875 7.75441 3.7923C7.63128 3.79586 7.50867 3.77512 7.39356 3.73126C7.27846 3.68741 7.17313 3.6213 7.08358 3.53672ZM14.9219 11.3734C15.1804 10.7389 15.3131 10.0602 15.3125 9.375C15.3125 9.12636 15.4113 8.8879 15.5871 8.71209C15.7629 8.53627 16.0014 8.4375 16.25 8.4375C16.4986 8.4375 16.7371 8.53627 16.9129 8.71209C17.0887 8.8879 17.1875 9.12636 17.1875 9.375C17.189 10.3019 17.0101 11.2203 16.6609 12.0789C16.5615 12.3001 16.3802 12.4741 16.1552 12.5644C15.9301 12.6548 15.6789 12.6544 15.4541 12.5634C15.2293 12.4724 15.0486 12.2978 14.9498 12.0764C14.8509 11.855 14.8418 11.6038 14.9242 11.3758L14.9219 11.3734Z" fill="#191F2E"/>
</svg>
