<svg width="20" height="20" viewBox="0 0 20 20" fill="none" xmlns="http://www.w3.org/2000/svg">
<path d="M13.1251 0.937503C12.2903 0.936628 11.4647 1.11203 10.7024 1.45222C9.94005 1.79241 9.25814 2.28974 8.70127 2.91165C8.1444 3.53356 7.72513 4.26605 7.47087 5.06117C7.21662 5.8563 7.13312 6.69616 7.22584 7.52578L1.86803 14.832C1.64508 15.1327 1.53813 15.5037 1.56684 15.8768C1.59554 16.25 1.75797 16.6003 2.02428 16.8633L3.14068 17.9797C3.40368 18.246 3.75396 18.4084 4.12713 18.4371C4.50031 18.4658 4.8713 18.3589 5.17193 18.1359L12.4782 12.7781C13.2798 12.8648 14.0906 12.7872 14.8612 12.5502C15.6319 12.3133 16.3462 11.9218 16.9606 11.3998C17.575 10.8778 18.0767 10.2361 18.435 9.51383C18.7933 8.79159 19.0008 8.00393 19.0448 7.19889C19.0887 6.39385 18.9683 5.58828 18.6908 4.8313C18.4133 4.07432 17.9845 3.38178 17.4306 2.79592C16.8767 2.21006 16.2093 1.74314 15.4691 1.42363C14.7289 1.10412 13.9313 0.938719 13.1251 0.937503ZM17.1876 6.875C17.1884 7.62773 16.9786 8.36567 16.5821 9.00547L10.9954 3.41797C11.6107 3.03915 12.316 2.83132 13.0385 2.81592C13.7609 2.80052 14.4744 2.97811 15.1054 3.33036C15.7363 3.68262 16.2619 4.19679 16.6279 4.81987C16.9939 5.44295 17.1871 6.15238 17.1876 6.875ZM4.27506 16.4617L3.53834 15.725L7.92818 9.73828C8.47147 10.7199 9.28021 11.5286 10.2618 12.0719L4.27506 16.4617ZM9.06256 6.875C9.06164 6.12226 9.27137 5.38428 9.66803 4.74453L15.2547 10.3313C14.6394 10.71 13.9342 10.9179 13.2118 10.9333C12.4894 10.9487 11.776 10.7712 11.1451 10.4191C10.5141 10.0669 9.98855 9.55283 9.62249 8.92986C9.25643 8.30689 9.06314 7.59756 9.06256 6.875Z" fill="#191F2E"/>
</svg>
