<svg width="20" height="20" viewBox="0 0 20 20" fill="none" xmlns="http://www.w3.org/2000/svg">
<path d="M9.0625 8.12489C9.0625 8.37353 8.96373 8.61198 8.78791 8.7878C8.6121 8.96361 8.37364 9.06239 8.125 9.06239H7.8125V11.8749C7.8125 12.1235 7.71373 12.362 7.53791 12.5378C7.3621 12.7136 7.12364 12.8124 6.875 12.8124C6.62636 12.8124 6.3879 12.7136 6.21209 12.5378C6.03627 12.362 5.9375 12.1235 5.9375 11.8749V9.06239H5.625C5.37636 9.06239 5.1379 8.96361 4.96209 8.7878C4.78627 8.61198 4.6875 8.37353 4.6875 8.12489C4.6875 7.87625 4.78627 7.63779 4.96209 7.46197C5.1379 7.28616 5.37636 7.18739 5.625 7.18739H8.125C8.37364 7.18739 8.6121 7.28616 8.78791 7.46197C8.96373 7.63779 9.0625 7.87625 9.0625 8.12489ZM18.75 7.2452V11.8749C18.7509 12.7601 18.4103 13.6116 17.799 14.252C17.1878 14.8923 16.3531 15.2721 15.4688 15.3124C15.0604 16.2174 14.4065 16.9899 13.5814 17.5422C12.7563 18.0946 11.7928 18.4046 10.8005 18.4371C9.80806 18.4696 8.82641 18.2234 7.96687 17.7263C7.10732 17.2293 6.40428 16.5013 5.9375 15.6249H2.8125C2.3981 15.6249 2.00067 15.4603 1.70765 15.1672C1.41462 14.8742 1.25 14.4768 1.25 14.0624V5.93739C1.25 5.52299 1.41462 5.12556 1.70765 4.83253C2.00067 4.53951 2.3981 4.37489 2.8125 4.37489H7.1875C7.18794 3.63849 7.42485 2.92171 7.86334 2.3301C8.30182 1.73848 8.9187 1.30332 9.62312 1.08869C10.3275 0.874069 11.0823 0.891328 11.7761 1.13793C12.47 1.38453 13.0664 1.84744 13.4773 2.45848C13.9796 2.21886 14.5416 2.13359 15.0922 2.21347C15.6429 2.29335 16.1575 2.53479 16.571 2.90723C16.9844 3.27967 17.278 3.76638 17.4148 4.30577C17.5515 4.84515 17.5251 5.41298 17.3391 5.93739H17.4422C17.7889 5.9378 18.1213 6.07572 18.3665 6.32089C18.6117 6.56607 18.7496 6.89847 18.75 7.2452ZM14.0625 4.30379C14.0625 4.32723 14.0625 4.35067 14.0625 4.37489C14.063 4.91779 13.9353 5.45315 13.6898 5.93739H14.6875C14.8398 5.93787 14.9898 5.90126 15.1248 5.83072C15.2597 5.76019 15.3754 5.65785 15.462 5.53255C15.5485 5.40725 15.6032 5.26277 15.6213 5.1116C15.6394 4.96042 15.6205 4.8071 15.5661 4.66489C15.5117 4.52268 15.4234 4.39587 15.309 4.29541C15.1946 4.19495 15.0575 4.12387 14.9094 4.08831C14.7613 4.05276 14.6069 4.05379 14.4593 4.09134C14.3117 4.12888 14.1756 4.2018 14.0625 4.30379ZM9.0625 4.37489H10.9375C11.1567 4.37499 11.3735 4.4214 11.5735 4.51106C11.7736 4.60073 11.9525 4.73163 12.0984 4.8952C12.1571 4.72797 12.1872 4.55209 12.1875 4.37489C12.1875 3.96049 12.0229 3.56306 11.7299 3.27003C11.4368 2.97701 11.0394 2.81239 10.625 2.81239C10.2106 2.81239 9.81317 2.97701 9.52015 3.27003C9.22712 3.56306 9.0625 3.96049 9.0625 4.37489ZM3.125 13.7499H10.625V6.24989H3.125V13.7499ZM14.0625 13.1249V7.81239H12.5V14.0624C12.5 14.4768 12.3354 14.8742 12.0424 15.1672C11.7493 15.4603 11.3519 15.6249 10.9375 15.6249H8.27031C8.75879 16.0842 9.37093 16.3906 10.0313 16.5064C10.6918 16.6222 11.3716 16.5423 11.9872 16.2766C12.6028 16.0109 13.1273 15.571 13.496 15.011C13.8647 14.451 14.0616 13.7954 14.0625 13.1249ZM16.875 7.81239H15.9375V13.1249C15.9375 13.1866 15.9375 13.2475 15.9328 13.3085C16.2126 13.1875 16.4508 12.9873 16.6182 12.7326C16.7857 12.4778 16.8749 12.1797 16.875 11.8749V7.81239Z" fill="#191F2E"/>
</svg>
