<svg width="20" height="20" viewBox="0 0 20 20" fill="none" xmlns="http://www.w3.org/2000/svg">
<path d="M13.1251 1.25C11.6337 1.25145 10.2038 1.84454 9.1492 2.89912C8.09463 3.9537 7.50153 5.3836 7.50008 6.875C7.50065 7.12111 7.51709 7.36694 7.5493 7.61094L2.11883 15.0172C1.94109 15.2576 1.85582 15.5539 1.87863 15.852C1.90144 16.1501 2.0308 16.4301 2.24305 16.6406L3.35946 17.757C3.57001 17.9693 3.84994 18.0986 4.14804 18.1215C4.44614 18.1443 4.7425 18.059 4.98289 17.8812L12.3899 12.4492C12.6336 12.4819 12.8792 12.4989 13.1251 12.5C14.6169 12.5 16.0477 11.9074 17.1026 10.8525C18.1574 9.79758 18.7501 8.36684 18.7501 6.875C18.7501 5.38316 18.1574 3.95242 17.1026 2.89752C16.0477 1.84263 14.6169 1.25 13.1251 1.25ZM17.5001 6.875C17.5012 7.81938 17.1952 8.73852 16.6282 9.49375L10.5071 3.37187C11.1573 2.88624 11.9298 2.59104 12.7382 2.51928C13.5466 2.44751 14.359 2.60201 15.0846 2.96551C15.8102 3.329 16.4204 3.88715 16.847 4.57757C17.2736 5.26798 17.4997 6.06344 17.5001 6.875ZM4.24383 16.875L3.12508 15.7562L7.97977 9.14062C8.54863 10.4249 9.57518 11.4514 10.8595 12.0203L4.24383 16.875ZM8.75008 6.875C8.74884 5.93084 9.05487 5.01192 9.62196 4.25703L15.7423 10.3773C15.0921 10.8627 14.3198 11.1577 13.5116 11.2294C12.7034 11.3011 11.8912 11.1466 11.1657 10.7832C10.4403 10.4198 9.83017 9.8619 9.40358 9.17173C8.97699 8.48156 8.75073 7.68636 8.75008 6.875ZM8.56649 11.4328C8.68361 11.55 8.7494 11.7089 8.7494 11.8746C8.7494 12.0403 8.68361 12.1992 8.56649 12.3164L7.94149 12.9414C7.88403 13.0019 7.81504 13.0503 7.7386 13.0836C7.66215 13.117 7.57979 13.1348 7.49638 13.1359C7.41296 13.1369 7.33018 13.1213 7.2529 13.0899C7.17562 13.0584 7.10542 13.0119 7.04643 12.9529C6.98745 12.8939 6.94086 12.8237 6.90943 12.7464C6.878 12.6691 6.86236 12.5863 6.86343 12.5029C6.86449 12.4195 6.88225 12.3371 6.91565 12.2607C6.94905 12.1843 6.99741 12.1153 7.05789 12.0578L7.68289 11.4328C7.7409 11.3745 7.80984 11.3283 7.88576 11.2967C7.96168 11.2651 8.04308 11.2488 8.12531 11.2487C8.20754 11.2487 8.28897 11.2648 8.36494 11.2963C8.44092 11.3277 8.50994 11.3739 8.56805 11.432L8.56649 11.4328Z" fill="#191F2E"/>
</svg>
