<svg width="20" height="20" viewBox="0 0 20 20" fill="none" xmlns="http://www.w3.org/2000/svg">
<path d="M15.625 1.875H5.625C5.29348 1.875 4.97554 2.0067 4.74112 2.24112C4.5067 2.47554 4.375 2.79348 4.375 3.125V5H3.125C2.79348 5 2.47554 5.1317 2.24112 5.36612C2.0067 5.60054 1.875 5.91848 1.875 6.25V13.75C1.875 14.0815 2.0067 14.3995 2.24112 14.6339C2.47554 14.8683 2.79348 15 3.125 15H4.375V16.875C4.375 17.2065 4.5067 17.5245 4.74112 17.7589C4.97554 17.9933 5.29348 18.125 5.625 18.125H15.625C15.9565 18.125 16.2745 17.9933 16.5089 17.7589C16.7433 17.5245 16.875 17.2065 16.875 16.875V3.125C16.875 2.79348 16.7433 2.47554 16.5089 2.24112C16.2745 2.0067 15.9565 1.875 15.625 1.875ZM12.5 8.125H15.625V11.875H12.5V8.125ZM15.625 6.875H12.5V6.25C12.5 5.91848 12.3683 5.60054 12.1339 5.36612C11.8995 5.1317 11.5815 5 11.25 5V3.125H15.625V6.875ZM5.625 3.125H10V5H5.625V3.125ZM3.125 6.25H11.25V12.4867C11.25 12.4914 11.25 12.4953 11.25 12.5C11.25 12.5047 11.25 12.5086 11.25 12.5133V13.75H3.125V6.25ZM5.625 15H10V16.875H5.625V15ZM11.25 16.875V15C11.5815 15 11.8995 14.8683 12.1339 14.6339C12.3683 14.3995 12.5 14.0815 12.5 13.75V13.125H15.625V16.875H11.25ZM5.14453 11.475L6.37422 10L5.14453 8.525C5.03844 8.39757 4.98732 8.23322 5.00241 8.0681C5.01751 7.90298 5.09757 7.75062 5.225 7.64453C5.35243 7.53844 5.51678 7.48732 5.6819 7.50241C5.84702 7.51751 5.99938 7.59757 6.10547 7.725L7.1875 9.02344L8.26953 7.725C8.32206 7.6619 8.3865 7.60977 8.45918 7.57158C8.53185 7.53339 8.61134 7.50989 8.6931 7.50241C8.77486 7.49494 8.85729 7.50365 8.93568 7.52803C9.01408 7.55242 9.0869 7.592 9.15 7.64453C9.2131 7.69706 9.26523 7.7615 9.30342 7.83418C9.34161 7.90685 9.36511 7.98634 9.37259 8.0681C9.38006 8.14986 9.37135 8.23229 9.34697 8.31068C9.32258 8.38908 9.283 8.4619 9.23047 8.525L8.00078 10L9.23047 11.475C9.33656 11.6024 9.38768 11.7668 9.37259 11.9319C9.35749 12.097 9.27743 12.2494 9.15 12.3555C9.02257 12.4616 8.85822 12.5127 8.6931 12.4976C8.52798 12.4825 8.37562 12.4024 8.26953 12.275L7.1875 10.9766L6.10547 12.275C5.99938 12.4024 5.84702 12.4825 5.6819 12.4976C5.51678 12.5127 5.35243 12.4616 5.225 12.3555C5.09757 12.2494 5.01751 12.097 5.00241 11.9319C4.98732 11.7668 5.03844 11.6024 5.14453 11.475Z" fill="#191F2E"/>
</svg>
