<svg width="20" height="20" viewBox="0 0 20 20" fill="none" xmlns="http://www.w3.org/2000/svg">
<path d="M6.875 7.5C6.38055 7.5 5.8972 7.64662 5.48607 7.92133C5.07495 8.19603 4.75452 8.58648 4.5653 9.04329C4.37608 9.50011 4.32657 10.0028 4.42304 10.4877C4.5195 10.9727 4.7576 11.4181 5.10723 11.7678C5.45686 12.1174 5.90232 12.3555 6.38727 12.452C6.87223 12.5484 7.37489 12.4989 7.83171 12.3097C8.28852 12.1205 8.67897 11.8 8.95367 11.3889C9.22838 10.9778 9.375 10.4945 9.375 10C9.375 9.33696 9.11161 8.70107 8.64277 8.23223C8.17393 7.76339 7.53804 7.5 6.875 7.5ZM6.875 11.25C6.62777 11.25 6.3861 11.1767 6.18054 11.0393C5.97498 10.902 5.81476 10.7068 5.72015 10.4784C5.62554 10.2499 5.60079 9.99861 5.64902 9.75614C5.69725 9.51366 5.8163 9.29093 5.99112 9.11612C6.16593 8.9413 6.38866 8.82225 6.63114 8.77402C6.87361 8.72579 7.12495 8.75054 7.35335 8.84515C7.58176 8.93976 7.77699 9.09998 7.91434 9.30554C8.05169 9.5111 8.125 9.75277 8.125 10C8.125 10.3315 7.9933 10.6495 7.75888 10.8839C7.52446 11.1183 7.20652 11.25 6.875 11.25ZM16.875 8.125H16.25V3.75C16.25 3.41848 16.1183 3.10054 15.8839 2.86612C15.6495 2.6317 15.3315 2.5 15 2.5H8.75C8.41848 2.5 8.10054 2.6317 7.86612 2.86612C7.6317 3.10054 7.5 3.41848 7.5 3.75V5H3.125C2.79348 5 2.47554 5.1317 2.24112 5.36612C2.0067 5.60054 1.875 5.91848 1.875 6.25V13.75C1.875 14.0815 2.0067 14.3995 2.24112 14.6339C2.47554 14.8683 2.79348 15 3.125 15H5.625V16.25C5.625 16.5815 5.7567 16.8995 5.99112 17.1339C6.22554 17.3683 6.54348 17.5 6.875 17.5H16.875C17.2065 17.5 17.5245 17.3683 17.7589 17.1339C17.9933 16.8995 18.125 16.5815 18.125 16.25V9.375C18.125 9.04348 17.9933 8.72554 17.7589 8.49112C17.5245 8.2567 17.2065 8.125 16.875 8.125ZM8.75 3.75H15V9.78437L11.875 12.0414V6.25C11.875 5.91848 11.7433 5.60054 11.5089 5.36612C11.2745 5.1317 10.9565 5 10.625 5H8.75V3.75ZM3.125 13.75V6.25H10.625V13.75H3.125ZM6.875 16.25V15H10.625C10.9565 15 11.2745 14.8683 11.5089 14.6339C11.7433 14.3995 11.875 14.0815 11.875 13.75V13.5836L15.5672 16.25H6.875ZM16.875 15.6523L12.9422 12.8125L16.875 9.97266V15.6523Z" fill="#191F2E"/>
</svg>
