<svg width="20" height="20" viewBox="0 0 20 20" fill="none" xmlns="http://www.w3.org/2000/svg">
<path d="M6.875 11.25C6.62777 11.25 6.3861 11.1767 6.18054 11.0393C5.97498 10.902 5.81476 10.7068 5.72015 10.4784C5.62554 10.2499 5.60079 9.99861 5.64902 9.75614C5.69725 9.51366 5.8163 9.29093 5.99112 9.11612C6.16593 8.9413 6.38866 8.82225 6.63114 8.77402C6.87361 8.72579 7.12495 8.75054 7.35335 8.84515C7.58176 8.93976 7.77699 9.09998 7.91434 9.30554C8.05169 9.5111 8.125 9.75277 8.125 10C8.125 10.3315 7.9933 10.6495 7.75888 10.8839C7.52446 11.1183 7.20652 11.25 6.875 11.25ZM18.125 9.375V16.25C18.1249 16.4198 18.0902 16.5878 18.0231 16.7437C17.9559 16.8997 17.8577 17.0403 17.7344 17.157C17.7166 17.175 17.6978 17.1919 17.6781 17.2078C17.4533 17.397 17.1688 17.5005 16.875 17.5H6.875C6.54348 17.5 6.22554 17.3683 5.99112 17.1339C5.7567 16.8995 5.625 16.5815 5.625 16.25V15H3.125C2.79348 15 2.47554 14.8683 2.24112 14.6339C2.0067 14.3995 1.875 14.0815 1.875 13.75V6.25C1.875 5.91848 2.0067 5.60054 2.24112 5.36612C2.47554 5.1317 2.79348 5 3.125 5H7.5V3.75C7.5 3.41848 7.6317 3.10054 7.86612 2.86612C8.10054 2.6317 8.41848 2.5 8.75 2.5H15C15.3315 2.5 15.6495 2.6317 15.8839 2.86612C16.1183 3.10054 16.25 3.41848 16.25 3.75V8.125H16.875C17.1594 8.12529 17.435 8.22288 17.6562 8.40156L17.6625 8.40703L17.6734 8.41563C17.694 8.43188 17.7133 8.44964 17.7313 8.46875C17.8553 8.58492 17.9542 8.72526 18.0219 8.88112C18.0896 9.03698 18.1247 9.20506 18.125 9.375ZM8.75 5H10.625C10.9565 5 11.2745 5.1317 11.5089 5.36612C11.7433 5.60054 11.875 5.91848 11.875 6.25V12.0414L15 9.78437V3.75H8.75V5ZM6.875 12.5C7.36945 12.5 7.8528 12.3534 8.26393 12.0787C8.67505 11.804 8.99548 11.4135 9.1847 10.9567C9.37392 10.4999 9.42343 9.99723 9.32696 9.51227C9.2305 9.02732 8.9924 8.58186 8.64277 8.23223C8.29314 7.8826 7.84768 7.6445 7.36273 7.54804C6.87777 7.45157 6.37511 7.50108 5.91829 7.6903C5.46148 7.87952 5.07103 8.19995 4.79633 8.61107C4.52162 9.0222 4.375 9.50555 4.375 10C4.375 10.663 4.63839 11.2989 5.10723 11.7678C5.57607 12.2366 6.21196 12.5 6.875 12.5ZM15.5672 16.25L11.875 13.5836V13.75C11.875 14.0815 11.7433 14.3995 11.5089 14.6339C11.2745 14.8683 10.9565 15 10.625 15H6.875V16.25H15.5672ZM16.875 9.97266L12.9422 12.8125L16.875 15.6523V9.97266Z" fill="#191F2E"/>
</svg>
