<svg width="20" height="20" viewBox="0 0 20 20" fill="none" xmlns="http://www.w3.org/2000/svg">
<path d="M16.7124 16.4547L4.21241 2.70474C4.15753 2.64287 4.09091 2.59251 4.01641 2.55658C3.94192 2.52064 3.86104 2.49985 3.77845 2.49541C3.69586 2.49097 3.61321 2.50296 3.5353 2.53069C3.45738 2.55843 3.38574 2.60135 3.32453 2.65697C3.26332 2.7126 3.21376 2.77982 3.17873 2.85473C3.14369 2.92965 3.12387 3.01078 3.12042 3.09342C3.11697 3.17605 3.12995 3.25855 3.15861 3.33613C3.18728 3.41371 3.23106 3.48483 3.28741 3.54536L6.24991 6.80396V10.0001C6.25 10.6731 6.43122 11.3337 6.77457 11.9126C7.11791 12.4915 7.61072 12.9673 8.20129 13.2901C8.79186 13.6129 9.45842 13.7708 10.131 13.7473C10.8037 13.7237 11.4576 13.5196 12.0241 13.1563L12.8741 14.0938C12.125 14.6201 11.2457 14.9306 10.3321 14.9914C9.41857 15.0523 8.50586 14.8611 7.69352 14.4388C6.88118 14.0164 6.2004 13.3792 5.72541 12.5964C5.25042 11.8137 4.99947 10.9156 4.99991 10.0001C4.99991 9.83429 4.93406 9.67532 4.81685 9.55811C4.69964 9.4409 4.54067 9.37505 4.37491 9.37505C4.20915 9.37505 4.05018 9.4409 3.93297 9.55811C3.81576 9.67532 3.74991 9.83429 3.74991 10.0001C3.75182 11.5489 4.32798 13.0421 5.36698 14.1907C6.40598 15.3394 7.83401 16.062 9.37491 16.2188V18.1251C9.37491 18.2908 9.44076 18.4498 9.55797 18.567C9.67518 18.6842 9.83415 18.7501 9.99991 18.7501C10.1657 18.7501 10.3246 18.6842 10.4419 18.567C10.5591 18.4498 10.6249 18.2908 10.6249 18.1251V16.218C11.7458 16.1065 12.8156 15.6931 13.7202 15.0219L15.7874 17.2954C15.8423 17.3572 15.9089 17.4076 15.9834 17.4435C16.0579 17.4795 16.1388 17.5003 16.2214 17.5047C16.304 17.5091 16.3866 17.4971 16.4645 17.4694C16.5424 17.4417 16.6141 17.3988 16.6753 17.3431C16.7365 17.2875 16.7861 17.2203 16.8211 17.1454C16.8561 17.0704 16.876 16.9893 16.8794 16.9067C16.8829 16.8241 16.8699 16.7416 16.8412 16.664C16.8125 16.5864 16.7688 16.5153 16.7124 16.4547ZM9.99991 12.5001C9.33687 12.5001 8.70099 12.2367 8.23215 11.7678C7.76331 11.299 7.49991 10.6631 7.49991 10.0001V8.17896L11.1655 12.2118C10.8062 12.4011 10.4061 12.5001 9.99991 12.5001ZM6.80929 3.02974C7.23804 2.33547 7.88154 1.79999 8.64217 1.50455C9.40279 1.20911 10.239 1.16983 11.024 1.39267C11.809 1.61551 12.4998 2.0883 12.9918 2.73932C13.4837 3.39035 13.7499 4.18406 13.7499 5.00005V9.72115C13.7499 9.88691 13.6841 10.0459 13.5669 10.1631C13.4496 10.2803 13.2907 10.3461 13.1249 10.3461C12.9592 10.3461 12.8002 10.2803 12.683 10.1631C12.5658 10.0459 12.4999 9.88691 12.4999 9.72115V5.00005C12.5002 4.45577 12.3229 3.92625 11.9948 3.49193C11.6668 3.05761 11.206 2.7422 10.6824 2.59362C10.1588 2.44504 9.60096 2.4714 9.0937 2.6687C8.58643 2.86599 8.15741 3.22345 7.87179 3.68677C7.83017 3.75964 7.77431 3.82338 7.70753 3.87419C7.64075 3.925 7.56443 3.96185 7.4831 3.98253C7.40178 4.00321 7.31712 4.0073 7.23418 3.99457C7.15124 3.98183 7.07172 3.95252 7.00035 3.90838C6.92898 3.86425 6.86723 3.8062 6.81878 3.73769C6.77033 3.66917 6.73617 3.59161 6.71834 3.50961C6.70051 3.42761 6.69937 3.34287 6.715 3.26042C6.73062 3.17798 6.76269 3.09952 6.80929 3.02974ZM14.6593 11.818C14.8854 11.2386 15.001 10.622 14.9999 10.0001C14.9999 9.83429 15.0658 9.67532 15.183 9.55811C15.3002 9.4409 15.4592 9.37505 15.6249 9.37505C15.7907 9.37505 15.9496 9.4409 16.0669 9.55811C16.1841 9.67532 16.2499 9.83429 16.2499 10.0001C16.251 10.7776 16.1063 11.5485 15.8233 12.2727C15.7947 12.3508 15.7508 12.4225 15.6942 12.4834C15.6375 12.5443 15.5693 12.5934 15.4934 12.6276C15.4176 12.6618 15.3357 12.6805 15.2525 12.6826C15.1693 12.6848 15.0866 12.6703 15.009 12.64C14.9315 12.6097 14.8609 12.5643 14.8012 12.5063C14.7415 12.4484 14.6939 12.3791 14.6613 12.3026C14.6288 12.226 14.6118 12.1437 14.6115 12.0605C14.6111 11.9773 14.6274 11.8949 14.6593 11.818Z" fill="#191F2E"/>
</svg>
