<svg width="20" height="20" viewBox="0 0 20 20" fill="none" xmlns="http://www.w3.org/2000/svg">
<path d="M17.1297 6.24997H16.5383C16.7593 5.87052 16.8755 5.43912 16.875 4.99997C16.8752 4.57689 16.7681 4.16068 16.5636 3.7903C16.3591 3.41993 16.064 3.1075 15.7058 2.88229C15.3476 2.65708 14.9382 2.52644 14.5158 2.50262C14.0934 2.47879 13.6718 2.56256 13.2906 2.74607C12.9069 2.11964 12.3148 1.64842 11.6182 1.41515C10.9216 1.18188 10.1651 1.20148 9.48148 1.47049C8.79789 1.7395 8.23093 2.24074 7.88014 2.88619C7.52935 3.53164 7.41717 4.28004 7.56328 4.99997H3.125C2.79348 4.99997 2.47554 5.13167 2.24112 5.36609C2.0067 5.60051 1.875 5.91845 1.875 6.24997V13.75C1.875 14.0815 2.0067 14.3994 2.24112 14.6339C2.47554 14.8683 2.79348 15 3.125 15H5.98984C6.36399 15.9238 7.00569 16.7147 7.83258 17.2712C8.65947 17.8277 9.63381 18.1243 10.6305 18.1231C11.6272 18.1218 12.6008 17.8227 13.4263 17.2641C14.2518 16.7056 14.8915 15.913 15.2633 14.9883C16.0436 14.9223 16.7707 14.5657 17.3007 13.9892C17.8307 13.4126 18.1248 12.6581 18.125 11.875V7.24529C18.1246 6.98144 18.0196 6.72852 17.833 6.54195C17.6465 6.35538 17.3935 6.25039 17.1297 6.24997ZM10.625 2.49997C11.0129 2.49995 11.3912 2.62022 11.7079 2.84423C12.0246 3.06823 12.264 3.38494 12.3931 3.7507C12.5223 4.11646 12.5348 4.51327 12.429 4.88645C12.3232 5.25963 12.1043 5.59081 11.8023 5.83435C11.7164 5.59063 11.5571 5.37954 11.3462 5.23011C11.1354 5.08069 10.8834 5.00029 10.625 4.99997H8.85781C8.75784 4.71721 8.72716 4.41459 8.76834 4.11752C8.80952 3.82045 8.92136 3.53758 9.09448 3.29268C9.2676 3.04777 9.49694 2.84797 9.76325 2.71003C10.0296 2.5721 10.3251 2.50007 10.625 2.49997ZM6.875 12.5C6.70924 12.5 6.55027 12.4341 6.43306 12.3169C6.31585 12.1997 6.25 12.0407 6.25 11.875V8.74997H5.625C5.45924 8.74997 5.30027 8.68413 5.18306 8.56692C5.06585 8.4497 5 8.29073 5 8.12497C5 7.95921 5.06585 7.80024 5.18306 7.68303C5.30027 7.56582 5.45924 7.49997 5.625 7.49997H8.125C8.29076 7.49997 8.44973 7.56582 8.56694 7.68303C8.68415 7.80024 8.75 7.95921 8.75 8.12497C8.75 8.29073 8.68415 8.4497 8.56694 8.56692C8.44973 8.68413 8.29076 8.74997 8.125 8.74997H7.5V11.875C7.5 12.0407 7.43415 12.1997 7.31694 12.3169C7.19973 12.4341 7.04076 12.5 6.875 12.5ZM14.375 13.125C14.3747 13.9502 14.1022 14.7524 13.5997 15.407C13.0972 16.0617 12.3928 16.5323 11.5957 16.7459C10.7985 16.9595 9.95317 16.9042 9.19065 16.5886C8.42813 16.2729 7.79104 15.7145 7.37813 15H10.625C10.9565 15 11.2745 14.8683 11.5089 14.6339C11.7433 14.3994 11.875 14.0815 11.875 13.75V7.49997H14.375V13.125ZM14.375 6.24997H13.125C13.3711 5.92246 13.5502 5.54964 13.6521 5.15284C13.754 4.75603 13.7766 4.34304 13.7188 3.93747C13.8832 3.83555 14.0691 3.7732 14.2617 3.75532C14.4544 3.73745 14.6485 3.76453 14.8289 3.83445C15.0093 3.90436 15.171 4.0152 15.3013 4.15824C15.4316 4.30127 15.5269 4.47259 15.5797 4.65872C15.6326 4.84485 15.6415 5.04069 15.6057 5.23084C15.57 5.42099 15.4906 5.60024 15.3738 5.7545C15.257 5.90875 15.106 6.03379 14.9327 6.11977C14.7594 6.20575 14.5685 6.25032 14.375 6.24997ZM16.875 11.875C16.875 12.2678 16.7516 12.6506 16.5223 12.9695C16.2929 13.2884 15.9692 13.5273 15.5969 13.6523C15.6157 13.4772 15.6251 13.3011 15.625 13.125V7.49997H16.875V11.875Z" fill="#191F2E"/>
</svg>
