<svg width="20" height="20" viewBox="0 0 20 20" fill="none" xmlns="http://www.w3.org/2000/svg">
<path d="M10 13.4375C11.0771 13.4363 12.1097 13.0078 12.8713 12.2463C13.6328 11.4847 14.0613 10.4521 14.0625 9.375V5C14.0625 3.92256 13.6345 2.88925 12.8726 2.12738C12.1108 1.36551 11.0774 0.9375 10 0.9375C8.92256 0.9375 7.88925 1.36551 7.12738 2.12738C6.36551 2.88925 5.9375 3.92256 5.9375 5V9.375C5.93874 10.4521 6.36715 11.4847 7.12875 12.2463C7.89035 13.0078 8.92294 13.4363 10 13.4375ZM7.8125 5C7.8125 4.41984 8.04297 3.86344 8.4532 3.4532C8.86344 3.04297 9.41984 2.8125 10 2.8125C10.5802 2.8125 11.1366 3.04297 11.5468 3.4532C11.957 3.86344 12.1875 4.41984 12.1875 5V9.375C12.1875 9.95516 11.957 10.5116 11.5468 10.9218C11.1366 11.332 10.5802 11.5625 10 11.5625C9.41984 11.5625 8.86344 11.332 8.4532 10.9218C8.04297 10.5116 7.8125 9.95516 7.8125 9.375V5ZM10.9375 16.5016V18.125C10.9375 18.3736 10.8387 18.6121 10.6629 18.7879C10.4871 18.9637 10.2486 19.0625 10 19.0625C9.75136 19.0625 9.5129 18.9637 9.33709 18.7879C9.16127 18.6121 9.0625 18.3736 9.0625 18.125V16.5016C7.3344 16.2719 5.74838 15.4229 4.59892 14.1122C3.44947 12.8016 2.81471 11.1183 2.8125 9.375C2.8125 9.12636 2.91127 8.8879 3.08709 8.71209C3.2629 8.53627 3.50136 8.4375 3.75 8.4375C3.99864 8.4375 4.2371 8.53627 4.41291 8.71209C4.58873 8.8879 4.6875 9.12636 4.6875 9.375C4.6875 10.784 5.24721 12.1352 6.2435 13.1315C7.23978 14.1278 8.59104 14.6875 10 14.6875C11.409 14.6875 12.7602 14.1278 13.7565 13.1315C14.7528 12.1352 15.3125 10.784 15.3125 9.375C15.3125 9.12636 15.4113 8.8879 15.5871 8.71209C15.7629 8.53627 16.0014 8.4375 16.25 8.4375C16.4986 8.4375 16.7371 8.53627 16.9129 8.71209C17.0887 8.8879 17.1875 9.12636 17.1875 9.375C17.1853 11.1183 16.5505 12.8016 15.4011 14.1122C14.2516 15.4229 12.6656 16.2719 10.9375 16.5016Z" fill="#191F2E"/>
</svg>
