<svg width="20" height="20" viewBox="0 0 20 20" fill="none" xmlns="http://www.w3.org/2000/svg">
<path d="M13.125 10C13.125 10.6181 12.9417 11.2223 12.5983 11.7362C12.255 12.2501 11.7669 12.6506 11.1959 12.8871C10.6249 13.1236 9.99653 13.1855 9.39034 13.065C8.78415 12.9444 8.22733 12.6467 7.79029 12.2097C7.35325 11.7727 7.05562 11.2158 6.93505 10.6097C6.81447 10.0035 6.87635 9.37513 7.11288 8.80411C7.3494 8.2331 7.74994 7.74504 8.26384 7.40166C8.77775 7.05828 9.38193 6.875 10 6.875C10.8288 6.875 11.6237 7.20424 12.2097 7.79029C12.7958 8.37634 13.125 9.1712 13.125 10ZM19.375 5V15C19.375 15.1658 19.3092 15.3247 19.1919 15.4419C19.0747 15.5592 18.9158 15.625 18.75 15.625H1.25C1.08424 15.625 0.925268 15.5592 0.808058 15.4419C0.690848 15.3247 0.625 15.1658 0.625 15V5C0.625 4.83424 0.690848 4.67527 0.808058 4.55806C0.925268 4.44085 1.08424 4.375 1.25 4.375H18.75C18.9158 4.375 19.0747 4.44085 19.1919 4.55806C19.3092 4.67527 19.375 4.83424 19.375 5ZM18.125 8.62109C17.4153 8.41125 16.7694 8.02719 16.2461 7.50389C15.7228 6.98059 15.3387 6.33468 15.1289 5.625H4.87109C4.66125 6.33468 4.27719 6.98059 3.75389 7.50389C3.23059 8.02719 2.58468 8.41125 1.875 8.62109V11.3789C2.58468 11.5887 3.23059 11.9728 3.75389 12.4961C4.27719 13.0194 4.66125 13.6653 4.87109 14.375H15.1289C15.3387 13.6653 15.7228 13.0194 16.2461 12.4961C16.7694 11.9728 17.4153 11.5887 18.125 11.3789V8.62109Z" fill="#191F2E"/>
</svg>
