<svg width="20" height="20" viewBox="0 0 20 20" fill="none" xmlns="http://www.w3.org/2000/svg">
<path d="M16.25 2.8125H3.75C3.16984 2.8125 2.61344 3.04297 2.2032 3.4532C1.79297 3.86344 1.5625 4.41984 1.5625 5V13.75C1.5625 14.3302 1.79297 14.8866 2.2032 15.2968C2.61344 15.707 3.16984 15.9375 3.75 15.9375H16.25C16.5373 15.9375 16.8217 15.8809 17.0871 15.771C17.3525 15.6611 17.5937 15.4999 17.7968 15.2968C17.9999 15.0937 18.1611 14.8525 18.271 14.5871C18.3809 14.3217 18.4375 14.0373 18.4375 13.75V5C18.4375 4.71273 18.3809 4.42828 18.271 4.16288C18.1611 3.89748 17.9999 3.65633 17.7968 3.4532C17.5937 3.25008 17.3525 3.08895 17.0871 2.97901C16.8217 2.86908 16.5373 2.8125 16.25 2.8125ZM16.5625 13.75C16.5625 13.8329 16.5296 13.9124 16.471 13.971C16.4124 14.0296 16.3329 14.0625 16.25 14.0625H3.75C3.66712 14.0625 3.58763 14.0296 3.52903 13.971C3.47042 13.9124 3.4375 13.8329 3.4375 13.75V5C3.4375 4.91712 3.47042 4.83763 3.52903 4.77903C3.58763 4.72042 3.66712 4.6875 3.75 4.6875H16.25C16.3329 4.6875 16.4124 4.72042 16.471 4.77903C16.5296 4.83763 16.5625 4.91712 16.5625 5V13.75ZM13.4375 17.8125C13.4375 18.0611 13.3387 18.2996 13.1629 18.4754C12.9871 18.6512 12.7486 18.75 12.5 18.75H7.5C7.25136 18.75 7.0129 18.6512 6.83709 18.4754C6.66127 18.2996 6.5625 18.0611 6.5625 17.8125C6.5625 17.5639 6.66127 17.3254 6.83709 17.1496C7.0129 16.9738 7.25136 16.875 7.5 16.875H12.5C12.7486 16.875 12.9871 16.9738 13.1629 17.1496C13.3387 17.3254 13.4375 17.5639 13.4375 17.8125Z" fill="#191F2E"/>
</svg>
