<svg width="20" height="20" viewBox="0 0 20 20" fill="none" xmlns="http://www.w3.org/2000/svg">
<path d="M13.125 9.375C13.125 9.52574 13.0886 9.67424 13.019 9.80793C12.9493 9.94162 12.8485 10.0565 12.725 10.143L9.6 12.3305C9.45951 12.4288 9.29475 12.4867 9.12364 12.4979C8.95254 12.509 8.78164 12.4731 8.62955 12.3939C8.47746 12.3147 8.35 12.1953 8.26104 12.0487C8.17208 11.9021 8.12503 11.734 8.125 11.5625V7.1875C8.12503 7.01603 8.17208 6.84785 8.26104 6.70126C8.35 6.55467 8.47746 6.43529 8.62955 6.3561C8.78164 6.27692 8.95254 6.24096 9.12364 6.25214C9.29475 6.26332 9.45951 6.32122 9.6 6.41953L12.725 8.60703C12.8485 8.69345 12.9493 8.80838 13.019 8.94207C13.0886 9.07576 13.125 9.22426 13.125 9.375ZM18.4375 5V13.75C18.4375 14.0373 18.3809 14.3217 18.271 14.5871C18.1611 14.8525 17.9999 15.0937 17.7968 15.2968C17.5937 15.4999 17.3525 15.6611 17.0871 15.771C16.8217 15.8809 16.5373 15.9375 16.25 15.9375H3.75C3.16984 15.9375 2.61344 15.707 2.2032 15.2968C1.79297 14.8866 1.5625 14.3302 1.5625 13.75V5C1.5625 4.41984 1.79297 3.86344 2.2032 3.4532C2.61344 3.04297 3.16984 2.8125 3.75 2.8125H16.25C16.5373 2.8125 16.8217 2.86908 17.0871 2.97901C17.3525 3.08895 17.5937 3.25008 17.7968 3.4532C17.9999 3.65633 18.1611 3.89748 18.271 4.16288C18.3809 4.42828 18.4375 4.71273 18.4375 5ZM16.5625 5C16.5625 4.91712 16.5296 4.83763 16.471 4.77903C16.4124 4.72042 16.3329 4.6875 16.25 4.6875H3.75C3.66712 4.6875 3.58763 4.72042 3.52903 4.77903C3.47042 4.83763 3.4375 4.91712 3.4375 5V13.75C3.4375 13.8329 3.47042 13.9124 3.52903 13.971C3.58763 14.0296 3.66712 14.0625 3.75 14.0625H16.25C16.3329 14.0625 16.4124 14.0296 16.471 13.971C16.5296 13.9124 16.5625 13.8329 16.5625 13.75V5ZM12.5 16.875H7.5C7.25136 16.875 7.0129 16.9738 6.83709 17.1496C6.66127 17.3254 6.5625 17.5639 6.5625 17.8125C6.5625 18.0611 6.66127 18.2996 6.83709 18.4754C7.0129 18.6512 7.25136 18.75 7.5 18.75H12.5C12.7486 18.75 12.9871 18.6512 13.1629 18.4754C13.3387 18.2996 13.4375 18.0611 13.4375 17.8125C13.4375 17.5639 13.3387 17.3254 13.1629 17.1496C12.9871 16.9738 12.7486 16.875 12.5 16.875Z" fill="#191F2E"/>
</svg>
