<svg width="20" height="20" viewBox="0 0 20 20" fill="none" xmlns="http://www.w3.org/2000/svg">
<path d="M16.25 3.125H3.75C2.71447 3.125 1.875 3.96447 1.875 5V13.75C1.875 14.7855 2.71447 15.625 3.75 15.625H16.25C17.2855 15.625 18.125 14.7855 18.125 13.75V5C18.125 3.96447 17.2855 3.125 16.25 3.125Z" fill="#191F2E"/>
<path d="M12.5 16.875H7.5C7.33424 16.875 7.17527 16.9408 7.05806 17.0581C6.94085 17.1753 6.875 17.3342 6.875 17.5C6.875 17.6658 6.94085 17.8247 7.05806 17.9419C7.17527 18.0592 7.33424 18.125 7.5 18.125H12.5C12.6658 18.125 12.8247 18.0592 12.9419 17.9419C13.0592 17.8247 13.125 17.6658 13.125 17.5C13.125 17.3342 13.0592 17.1753 12.9419 17.0581C12.8247 16.9408 12.6658 16.875 12.5 16.875Z" fill="#191F2E"/>
</svg>
