<svg width="20" height="20" viewBox="0 0 20 20" fill="none" xmlns="http://www.w3.org/2000/svg">
<path d="M18.75 7.5C18.75 7.66576 18.6841 7.82473 18.5669 7.94194C18.4497 8.05915 18.2907 8.125 18.125 8.125H16.875V9.375C16.875 9.54076 16.8091 9.69973 16.6919 9.81694C16.5747 9.93415 16.4157 10 16.25 10C16.0842 10 15.9252 9.93415 15.808 9.81694C15.6908 9.69973 15.625 9.54076 15.625 9.375V8.125H14.375C14.2092 8.125 14.0502 8.05915 13.933 7.94194C13.8158 7.82473 13.75 7.66576 13.75 7.5C13.75 7.33424 13.8158 7.17527 13.933 7.05806C14.0502 6.94085 14.2092 6.875 14.375 6.875H15.625V5.625C15.625 5.45924 15.6908 5.30027 15.808 5.18306C15.9252 5.06585 16.0842 5 16.25 5C16.4157 5 16.5747 5.06585 16.6919 5.18306C16.8091 5.30027 16.875 5.45924 16.875 5.625V6.875H18.125C18.2907 6.875 18.4497 6.94085 18.5669 7.05806C18.6841 7.17527 18.75 7.33424 18.75 7.5ZM11.25 4.375H11.875V5C11.875 5.16576 11.9408 5.32473 12.058 5.44194C12.1752 5.55915 12.3342 5.625 12.5 5.625C12.6657 5.625 12.8247 5.55915 12.9419 5.44194C13.0591 5.32473 13.125 5.16576 13.125 5V4.375H13.75C13.9157 4.375 14.0747 4.30915 14.1919 4.19194C14.3091 4.07473 14.375 3.91576 14.375 3.75C14.375 3.58424 14.3091 3.42527 14.1919 3.30806C14.0747 3.19085 13.9157 3.125 13.75 3.125H13.125V2.5C13.125 2.33424 13.0591 2.17527 12.9419 2.05806C12.8247 1.94085 12.6657 1.875 12.5 1.875C12.3342 1.875 12.1752 1.94085 12.058 2.05806C11.9408 2.17527 11.875 2.33424 11.875 2.5V3.125H11.25C11.0842 3.125 10.9252 3.19085 10.808 3.30806C10.6908 3.42527 10.625 3.58424 10.625 3.75C10.625 3.91576 10.6908 4.07473 10.808 4.19194C10.9252 4.30915 11.0842 4.375 11.25 4.375ZM16.339 11.7445C15.2305 11.9636 14.085 11.9062 13.0039 11.5775C11.9228 11.2487 10.9392 10.6588 10.1402 9.85977C9.34117 9.06074 8.75124 8.07721 8.42252 6.99608C8.0938 5.91496 8.03642 4.76951 8.25544 3.66094C8.2769 3.55215 8.26902 3.43961 8.23263 3.33486C8.19623 3.23012 8.13262 3.13695 8.04833 3.0649C7.96404 2.99285 7.8621 2.94453 7.75296 2.92489C7.64383 2.90525 7.53144 2.91499 7.42731 2.95312C6.24383 3.38588 5.18845 4.10986 4.35866 5.05821C3.52886 6.00655 2.95138 7.14869 2.67956 8.37915C2.40774 9.60961 2.45033 10.8887 2.8034 12.0984C3.15647 13.308 3.80864 14.4092 4.69969 15.3003C5.59074 16.1913 6.69193 16.8435 7.90158 17.1966C9.11124 17.5496 10.3904 17.5922 11.6208 17.3204C12.8513 17.0486 13.9934 16.4711 14.9418 15.6413C15.8901 14.8115 16.6141 13.7561 17.0468 12.5727C17.085 12.4685 17.0947 12.3561 17.0751 12.247C17.0554 12.1379 17.0071 12.0359 16.9351 11.9516C16.863 11.8673 16.7699 11.8037 16.6651 11.7673C16.5604 11.731 16.4478 11.7231 16.339 11.7445Z" fill="#191F2E"/>
</svg>
