<svg width="20" height="20" viewBox="0 0 20 20" fill="none" xmlns="http://www.w3.org/2000/svg">
<path d="M18.4664 10.8907C18.3461 10.7702 18.1953 10.6847 18.0302 10.6434C17.865 10.6021 17.6917 10.6066 17.5289 10.6563C16.3915 10.9997 15.1822 11.0281 14.03 10.7385C12.8777 10.449 11.8255 9.85226 10.9856 9.01198C10.1456 8.1717 9.54931 7.11932 9.26018 5.96693C8.97106 4.81454 8.99994 3.6053 9.34374 2.46803C9.3939 2.30514 9.3987 2.13166 9.35763 1.96625C9.31657 1.80083 9.23118 1.64974 9.11067 1.52923C8.99015 1.40871 8.83906 1.32333 8.67365 1.28226C8.50823 1.24119 8.33475 1.246 8.17187 1.29615C6.46124 1.82193 4.96006 2.87393 3.88202 4.3024C2.93929 5.55544 2.36439 7.0464 2.22183 8.60799C2.07928 10.1696 2.3747 11.74 3.07496 13.143C3.77522 14.546 4.8526 15.7262 6.18622 16.551C7.51983 17.3758 9.05692 17.8127 10.625 17.8126C12.4557 17.8179 14.2377 17.2227 15.6976 16.118C17.1254 15.0389 18.1763 13.5369 18.7008 11.8258C18.7501 11.6634 18.7543 11.4905 18.713 11.3258C18.6717 11.1611 18.5865 11.0107 18.4664 10.8907ZM14.5695 14.6204C13.3059 15.5717 11.7411 16.0346 10.1633 15.9239C8.58542 15.8132 7.10065 15.1363 5.98221 14.0178C4.86376 12.8994 4.1869 11.4146 4.07619 9.83678C3.96548 8.25894 4.42837 6.6942 5.37968 5.43053C5.88025 4.76839 6.50062 4.20606 7.20859 3.77271C7.19452 3.97271 7.18749 4.1735 7.18749 4.37506C7.18997 6.61206 8.07972 8.75673 9.66152 10.3385C11.2433 11.9203 13.388 12.8101 15.625 12.8126C15.8266 12.8126 16.0273 12.8055 16.2273 12.7915C15.7942 13.4996 15.2318 14.12 14.5695 14.6204Z" fill="#191F2E"/>
</svg>
