<svg width="20" height="20" viewBox="0 0 20 20" fill="none" xmlns="http://www.w3.org/2000/svg">
<path d="M16.25 2.81249H13.3063C13.1016 2.0934 12.6682 1.46063 12.0715 1.01008C11.4749 0.559541 10.7476 0.315796 10 0.315796C9.25237 0.315796 8.52511 0.559541 7.92848 1.01008C7.33185 1.46063 6.89837 2.0934 6.69375 2.81249H3.75C3.50136 2.81249 3.2629 2.91126 3.08709 3.08708C2.91127 3.26289 2.8125 3.50135 2.8125 3.74999C2.8125 3.99863 2.91127 4.23709 3.08709 4.4129C3.2629 4.58872 3.50136 4.68749 3.75 4.68749H6.69375C6.8299 5.16927 7.06989 5.6154 7.39687 5.99452C6.575 6.4565 5.89088 7.12888 5.41474 7.94262C4.9386 8.75637 4.6876 9.68218 4.6875 10.625V15.625C4.6875 16.0394 4.85212 16.4368 5.14515 16.7298C5.43817 17.0229 5.8356 17.1875 6.25 17.1875H7.5C7.5 17.8505 7.76339 18.4864 8.23223 18.9553C8.70107 19.4241 9.33696 19.6875 10 19.6875C10.663 19.6875 11.2989 19.4241 11.7678 18.9553C12.2366 18.4864 12.5 17.8505 12.5 17.1875H13.75C14.1644 17.1875 14.5618 17.0229 14.8549 16.7298C15.1479 16.4368 15.3125 16.0394 15.3125 15.625V10.625C15.3121 9.68187 15.0606 8.75585 14.5839 7.94208C14.1072 7.1283 13.4225 6.4561 12.6 5.99452C12.927 5.6154 13.167 5.16927 13.3031 4.68749H16.25C16.4986 4.68749 16.7371 4.58872 16.9129 4.4129C17.0887 4.23709 17.1875 3.99863 17.1875 3.74999C17.1875 3.50135 17.0887 3.26289 16.9129 3.08708C16.7371 2.91126 16.4986 2.81249 16.25 2.81249ZM10.625 17.1875C10.625 17.3532 10.5592 17.5122 10.4419 17.6294C10.3247 17.7466 10.1658 17.8125 10 17.8125C9.83424 17.8125 9.67527 17.7466 9.55806 17.6294C9.44085 17.5122 9.375 17.3532 9.375 17.1875V12.8125C9.375 12.6467 9.44085 12.4878 9.55806 12.3705C9.67527 12.2533 9.83424 12.1875 10 12.1875C10.1658 12.1875 10.3247 12.2533 10.4419 12.3705C10.5592 12.4878 10.625 12.6467 10.625 12.8125V17.1875ZM13.4375 15.3125H12.5V12.8125C12.5 12.1494 12.2366 11.5136 11.7678 11.0447C11.2989 10.5759 10.663 10.3125 10 10.3125C9.33696 10.3125 8.70107 10.5759 8.23223 11.0447C7.76339 11.5136 7.5 12.1494 7.5 12.8125V15.3125H6.5625V10.625C6.5625 9.71331 6.92466 8.83897 7.56932 8.19431C8.21398 7.54965 9.08832 7.18749 10 7.18749C10.9117 7.18749 11.786 7.54965 12.4307 8.19431C13.0753 8.83897 13.4375 9.71331 13.4375 10.625V15.3125ZM8.4375 3.74999C8.4375 3.44096 8.52914 3.13886 8.70083 2.88191C8.87252 2.62496 9.11655 2.42469 9.40206 2.30643C9.68757 2.18817 10.0017 2.15722 10.3048 2.21751C10.6079 2.2778 10.8863 2.42662 11.1049 2.64513C11.3234 2.86365 11.4722 3.14207 11.5325 3.44516C11.5928 3.74826 11.5618 4.06242 11.4436 4.34793C11.3253 4.63344 11.125 4.87747 10.8681 5.04916C10.6111 5.22085 10.309 5.31249 10 5.31249C9.5856 5.31249 9.18817 5.14787 8.89515 4.85484C8.60212 4.56182 8.4375 4.16439 8.4375 3.74999Z" fill="#191F2E"/>
</svg>
