<svg width="20" height="20" viewBox="0 0 20 20" fill="none" xmlns="http://www.w3.org/2000/svg">
<path d="M16.25 3.12496H13.0625C12.9191 2.41853 12.5358 1.78341 11.9777 1.32722C11.4195 0.871033 10.7208 0.621826 10 0.621826C9.27915 0.621826 8.58047 0.871033 8.02234 1.32722C7.46421 1.78341 7.08095 2.41853 6.9375 3.12496H3.75C3.58424 3.12496 3.42527 3.19081 3.30806 3.30802C3.19085 3.42523 3.125 3.5842 3.125 3.74996C3.125 3.91572 3.19085 4.07469 3.30806 4.1919C3.42527 4.30911 3.58424 4.37496 3.75 4.37496H6.9375C7.07299 5.03419 7.41769 5.63207 7.92031 6.07965C7.04981 6.47864 6.312 7.11892 5.79439 7.92456C5.27678 8.73019 5.00108 9.66737 5 10.625V15.625C5 15.9565 5.1317 16.2744 5.36612 16.5088C5.60054 16.7433 5.91848 16.875 6.25 16.875H7.5C7.5 17.538 7.76339 18.1739 8.23223 18.6427C8.70107 19.1116 9.33696 19.375 10 19.375C10.663 19.375 11.2989 19.1116 11.7678 18.6427C12.2366 18.1739 12.5 17.538 12.5 16.875H13.75C14.0815 16.875 14.3995 16.7433 14.6339 16.5088C14.8683 16.2744 15 15.9565 15 15.625V10.625C14.9989 9.66737 14.7232 8.73019 14.2056 7.92456C13.688 7.11892 12.9502 6.47864 12.0797 6.07965C12.5823 5.63207 12.927 5.03419 13.0625 4.37496H16.25C16.4158 4.37496 16.5747 4.30911 16.6919 4.1919C16.8092 4.07469 16.875 3.91572 16.875 3.74996C16.875 3.5842 16.8092 3.42523 16.6919 3.30802C16.5747 3.19081 16.4158 3.12496 16.25 3.12496ZM11.25 16.875C11.25 17.2065 11.1183 17.5244 10.8839 17.7588C10.6495 17.9933 10.3315 18.125 10 18.125C9.66848 18.125 9.35054 17.9933 9.11612 17.7588C8.8817 17.5244 8.75 17.2065 8.75 16.875V13.125C8.75 12.7934 8.8817 12.4755 9.11612 12.2411C9.35054 12.0067 9.66848 11.875 10 11.875C10.3315 11.875 10.6495 12.0067 10.8839 12.2411C11.1183 12.4755 11.25 12.7934 11.25 13.125V16.875ZM13.75 10.625V15.625H12.5V13.125C12.5 12.4619 12.2366 11.826 11.7678 11.3572C11.2989 10.8884 10.663 10.625 10 10.625C9.33696 10.625 8.70107 10.8884 8.23223 11.3572C7.76339 11.826 7.5 12.4619 7.5 13.125V15.625H6.25V10.625C6.25 9.6304 6.64509 8.67657 7.34835 7.97331C8.05161 7.27005 9.00544 6.87496 10 6.87496C10.9946 6.87496 11.9484 7.27005 12.6517 7.97331C13.3549 8.67657 13.75 9.6304 13.75 10.625ZM8.125 3.74996C8.125 3.37912 8.23497 3.01661 8.44099 2.70826C8.64702 2.39992 8.93986 2.1596 9.28247 2.01768C9.62508 1.87577 10.0021 1.83864 10.3658 1.91099C10.7295 1.98333 11.0636 2.16191 11.3258 2.42413C11.588 2.68636 11.7666 3.02045 11.839 3.38416C11.9113 3.74788 11.8742 4.12488 11.7323 4.46749C11.5904 4.8101 11.35 5.10294 11.0417 5.30896C10.7334 5.51499 10.3708 5.62496 10 5.62496C9.50272 5.62496 9.02581 5.42741 8.67417 5.07578C8.32254 4.72415 8.125 4.24724 8.125 3.74996Z" fill="#191F2E"/>
</svg>
