<svg width="20" height="20" viewBox="0 0 20 20" fill="none" xmlns="http://www.w3.org/2000/svg">
<path d="M17.5 10C17.287 9.99994 17.0756 10.0364 16.875 10.1078V10C16.875 6.73594 14.4477 5.12031 12.675 3.94062C11.575 3.20781 10.625 2.57812 10.625 1.875C10.625 1.70924 10.5592 1.55027 10.4419 1.43306C10.3247 1.31585 10.1658 1.25 10 1.25C9.83424 1.25 9.67527 1.31585 9.55806 1.43306C9.44085 1.55027 9.375 1.70924 9.375 1.875C9.375 2.57812 8.425 3.20781 7.325 3.94062C5.55234 5.12031 3.125 6.73594 3.125 10V10.1078C2.84224 10.0078 2.53962 9.97716 2.24255 10.0183C1.94547 10.0595 1.66261 10.1714 1.4177 10.3445C1.1728 10.5176 0.972994 10.7469 0.835061 11.0133C0.697129 11.2796 0.625093 11.5751 0.625 11.875V16.25C0.625 16.4158 0.690848 16.5747 0.808058 16.6919C0.925268 16.8092 1.08424 16.875 1.25 16.875H5.625C5.79076 16.875 5.94973 16.8092 6.06694 16.6919C6.18415 16.5747 6.25 16.4158 6.25 16.25V13.75C6.25 13.4185 6.3817 13.1005 6.61612 12.8661C6.85054 12.6317 7.16848 12.5 7.5 12.5C7.83152 12.5 8.14946 12.6317 8.38388 12.8661C8.6183 13.1005 8.75 13.4185 8.75 13.75V16.25C8.75 16.4158 8.81585 16.5747 8.93306 16.6919C9.05027 16.8092 9.20924 16.875 9.375 16.875H10.625C10.7908 16.875 10.9497 16.8092 11.0669 16.6919C11.1842 16.5747 11.25 16.4158 11.25 16.25V13.75C11.25 13.4185 11.3817 13.1005 11.6161 12.8661C11.8505 12.6317 12.1685 12.5 12.5 12.5C12.8315 12.5 13.1495 12.6317 13.3839 12.8661C13.6183 13.1005 13.75 13.4185 13.75 13.75V16.25C13.75 16.4158 13.8158 16.5747 13.9331 16.6919C14.0503 16.8092 14.2092 16.875 14.375 16.875H18.75C18.9158 16.875 19.0747 16.8092 19.1919 16.6919C19.3092 16.5747 19.375 16.4158 19.375 16.25V11.875C19.375 11.3777 19.1775 10.9008 18.8258 10.5492C18.4742 10.1975 17.9973 10 17.5 10ZM3.125 15.625H1.875V11.875C1.875 11.7092 1.94085 11.5503 2.05806 11.4331C2.17527 11.3158 2.33424 11.25 2.5 11.25C2.66576 11.25 2.82473 11.3158 2.94194 11.4331C3.05915 11.5503 3.125 11.7092 3.125 11.875V15.625ZM18.125 15.625H16.875V11.875C16.875 11.7092 16.9408 11.5503 17.0581 11.4331C17.1753 11.3158 17.3342 11.25 17.5 11.25C17.6658 11.25 17.8247 11.3158 17.9419 11.4331C18.0592 11.5503 18.125 11.7092 18.125 11.875V15.625Z" fill="#191F2E"/>
</svg>
