<svg width="20" height="20" viewBox="0 0 20 20" fill="none" xmlns="http://www.w3.org/2000/svg">
<path d="M17.5 10C17.287 9.99994 17.0756 10.0364 16.875 10.1078V10C16.875 6.73594 14.4477 5.12031 12.675 3.94062C11.575 3.20781 10.625 2.57812 10.625 1.875C10.625 1.70924 10.5592 1.55027 10.4419 1.43306C10.3247 1.31585 10.1658 1.25 10 1.25C9.83424 1.25 9.67527 1.31585 9.55806 1.43306C9.44085 1.55027 9.375 1.70924 9.375 1.875C9.375 2.57812 8.425 3.20781 7.325 3.94062C5.55234 5.12031 3.125 6.73594 3.125 10V10.1078C2.84224 10.0078 2.53962 9.97716 2.24255 10.0183C1.94547 10.0595 1.66261 10.1714 1.4177 10.3445C1.1728 10.5176 0.972994 10.7469 0.835061 11.0133C0.697129 11.2796 0.625093 11.5751 0.625 11.875V16.25C0.625 16.4158 0.690848 16.5747 0.808058 16.6919C0.925268 16.8092 1.08424 16.875 1.25 16.875H6.25C6.41576 16.875 6.57473 16.8092 6.69194 16.6919C6.80915 16.5747 6.875 16.4158 6.875 16.25V13.75C6.875 13.5842 6.94085 13.4253 7.05806 13.3081C7.17527 13.1908 7.33424 13.125 7.5 13.125C7.66576 13.125 7.82473 13.1908 7.94194 13.3081C8.05915 13.4253 8.125 13.5842 8.125 13.75V16.25C8.125 16.4158 8.19085 16.5747 8.30806 16.6919C8.42527 16.8092 8.58424 16.875 8.75 16.875H11.25C11.4158 16.875 11.5747 16.8092 11.6919 16.6919C11.8092 16.5747 11.875 16.4158 11.875 16.25V13.75C11.875 13.5842 11.9408 13.4253 12.0581 13.3081C12.1753 13.1908 12.3342 13.125 12.5 13.125C12.6658 13.125 12.8247 13.1908 12.9419 13.3081C13.0592 13.4253 13.125 13.5842 13.125 13.75V16.25C13.125 16.4158 13.1908 16.5747 13.3081 16.6919C13.4253 16.8092 13.5842 16.875 13.75 16.875H18.75C18.9158 16.875 19.0747 16.8092 19.1919 16.6919C19.3092 16.5747 19.375 16.4158 19.375 16.25V11.875C19.375 11.3777 19.1775 10.9008 18.8258 10.5492C18.4742 10.1975 17.9973 10 17.5 10ZM8.01797 4.98125C8.77344 4.47812 9.50234 3.99062 10 3.41875C10.4953 3.99297 11.2266 4.48047 11.982 4.98125C13.5445 6.02187 15.3008 7.19141 15.5844 9.375H4.4125C4.69922 7.19141 6.45312 6.02187 8.01797 4.98125ZM1.875 11.875C1.875 11.7092 1.94085 11.5503 2.05806 11.4331C2.17527 11.3158 2.33424 11.25 2.5 11.25C2.66576 11.25 2.82473 11.3158 2.94194 11.4331C3.05915 11.5503 3.125 11.7092 3.125 11.875V15.625H1.875V11.875ZM12.5 11.875C12.0027 11.875 11.5258 12.0725 11.1742 12.4242C10.8225 12.7758 10.625 13.2527 10.625 13.75V15.625H9.375V13.75C9.375 13.2527 9.17746 12.7758 8.82583 12.4242C8.47419 12.0725 7.99728 11.875 7.5 11.875C7.00272 11.875 6.52581 12.0725 6.17417 12.4242C5.82254 12.7758 5.625 13.2527 5.625 13.75V15.625H4.375V10.625H15.625V15.625H14.375V13.75C14.375 13.2527 14.1775 12.7758 13.8258 12.4242C13.4742 12.0725 12.9973 11.875 12.5 11.875ZM18.125 15.625H16.875V11.875C16.875 11.7092 16.9408 11.5503 17.0581 11.4331C17.1753 11.3158 17.3342 11.25 17.5 11.25C17.6658 11.25 17.8247 11.3158 17.9419 11.4331C18.0592 11.5503 18.125 11.7092 18.125 11.875V15.625Z" fill="#191F2E"/>
</svg>
