<svg width="20" height="20" viewBox="0 0 20 20" fill="none" xmlns="http://www.w3.org/2000/svg">
<path d="M16.2499 8.75C16.2054 8.75 16.1616 8.75 16.1179 8.75L15.8444 7.82813C15.978 7.81641 16.1132 7.80938 16.2499 7.80938C16.4986 7.80938 16.737 7.7106 16.9128 7.53479C17.0886 7.35897 17.1874 7.12052 17.1874 6.87188C17.1874 6.62324 17.0886 6.38478 16.9128 6.20896C16.737 6.03315 16.4986 5.93438 16.2499 5.93438H15.2835L14.6491 3.79297C14.5911 3.59967 14.4723 3.43026 14.3103 3.30992C14.1482 3.18957 13.9517 3.12472 13.7499 3.125H11.2499C11.0013 3.125 10.7628 3.22377 10.587 3.39959C10.4112 3.5754 10.3124 3.81386 10.3124 4.0625C10.3124 4.31114 10.4112 4.5496 10.587 4.72541C10.7628 4.90123 11.0013 5 11.2499 5H13.0468L13.3249 5.9375H11.8749C10.3562 5.9375 9.11554 6.29844 8.28742 6.98203C8.15115 7.09126 7.98708 7.16024 7.81371 7.18123C7.64034 7.20221 7.46455 7.17435 7.30617 7.10078C6.28039 6.63203 2.8382 5.14766 2.48976 5L2.07804 4.825C2.07804 4.825 1.74992 4.6875 1.56242 4.6875C1.34562 4.68746 1.13552 4.76256 0.967865 4.90002C0.800214 5.03747 0.685383 5.22878 0.642919 5.44137C0.600455 5.65397 0.632984 5.87471 0.734968 6.06602C0.836952 6.25733 1.00209 6.40738 1.20226 6.49063C1.33663 6.54766 4.61398 7.93594 6.53039 8.80781C6.89853 8.97458 7.2981 9.06063 7.70226 9.06016C8.35085 9.06233 8.98001 8.83889 9.48195 8.42813C9.93039 8.05859 10.6991 7.84375 11.6609 7.81563C10.6312 8.82259 9.96131 10.1403 9.7546 11.5656H7.38117C7.15299 10.6819 6.61033 9.9117 5.85491 9.39944C5.09949 8.88718 4.18318 8.66801 3.27773 8.78302C2.37228 8.89802 1.53985 9.33931 0.936489 10.0242C0.333125 10.709 0.000244141 11.5904 0.000244141 12.5031C0.000244141 13.4159 0.333125 14.2972 0.936489 14.9821C1.53985 15.6669 2.37228 16.1082 3.27773 16.2232C4.18318 16.3382 5.09949 16.1191 5.85491 15.6068C6.61033 15.0946 7.15299 14.3244 7.38117 13.4406H10.6249C10.8736 13.4406 11.112 13.3419 11.2878 13.166C11.4636 12.9902 11.5624 12.7518 11.5624 12.5031C11.5627 11.6533 11.794 10.8195 12.2316 10.091C12.6692 9.36246 13.2967 8.76662 14.0468 8.36719L14.3202 9.28906C13.5436 9.75759 12.9631 10.4917 12.6863 11.3554C12.4095 12.2191 12.455 13.1539 12.8146 13.9866C13.1742 14.8193 13.8233 15.4934 14.6418 15.8842C15.4603 16.2749 16.3927 16.3557 17.2663 16.1117C18.1398 15.8677 18.8953 15.3153 19.3929 14.557C19.8904 13.7986 20.0962 12.8856 19.9721 11.9871C19.8481 11.0887 19.4026 10.2656 18.7182 9.67039C18.0338 9.07519 17.1569 8.7482 16.2499 8.75ZM3.74992 13.4375H5.37257C5.1662 13.795 4.84764 14.0743 4.46631 14.2323C4.08497 14.3902 3.66218 14.4179 3.26349 14.3111C2.8648 14.2043 2.5125 13.9689 2.26124 13.6414C2.00997 13.314 1.87377 12.9128 1.87377 12.5C1.87377 12.0872 2.00997 11.686 2.26124 11.3586C2.5125 11.0311 2.8648 10.7957 3.26349 10.6889C3.66218 10.5821 4.08497 10.6098 4.46631 10.7677C4.84764 10.9257 5.1662 11.205 5.37257 11.5625H3.74992C3.50128 11.5625 3.26282 11.6613 3.087 11.8371C2.91119 12.0129 2.81242 12.2514 2.81242 12.5C2.81242 12.7486 2.91119 12.9871 3.087 13.1629C3.26282 13.3387 3.50128 13.4375 3.74992 13.4375ZM16.2499 14.375C15.8836 14.3746 15.5255 14.2669 15.2197 14.0652C14.914 13.8635 14.674 13.5767 14.5294 13.2401C14.3848 12.9036 14.342 12.5321 14.4061 12.1715C14.4703 11.8109 14.6387 11.4769 14.8905 11.2109L15.3507 12.7664C15.4082 12.9603 15.5268 13.1304 15.6888 13.2513C15.8509 13.3723 16.0477 13.4376 16.2499 13.4375C16.3401 13.4373 16.4298 13.4244 16.5163 13.3992C16.6344 13.3643 16.7445 13.3064 16.8402 13.2289C16.936 13.1514 17.0155 13.0558 17.0743 12.9475C17.133 12.8393 17.1699 12.7205 17.1827 12.598C17.1956 12.4755 17.1842 12.3517 17.1491 12.2336L16.6874 10.6773C17.1333 10.785 17.5243 11.0523 17.7864 11.4288C18.0484 11.8053 18.1634 12.2648 18.1095 12.7203C18.0556 13.1758 17.8366 13.5958 17.4939 13.9007C17.1512 14.2057 16.7086 14.3744 16.2499 14.375Z" fill="#191F2E"/>
</svg>
