<svg width="20" height="20" viewBox="0 0 20 20" fill="none" xmlns="http://www.w3.org/2000/svg">
<path d="M12.8125 6.5625C13.307 6.5625 13.7903 6.41588 14.2014 6.14118C14.6126 5.86647 14.933 5.47603 15.1222 5.01921C15.3114 4.56239 15.3609 4.05973 15.2645 3.57478C15.168 3.08982 14.9299 2.64437 14.5803 2.29473C14.2306 1.9451 13.7852 1.707 13.3002 1.61054C12.8153 1.51407 12.3126 1.56358 11.8558 1.7528C11.399 1.94202 11.0085 2.26245 10.7338 2.67358C10.4591 3.0847 10.3125 3.56805 10.3125 4.0625C10.3125 4.72554 10.5759 5.36143 11.0447 5.83027C11.5136 6.29911 12.1495 6.5625 12.8125 6.5625ZM12.8125 3.4375C12.9361 3.4375 13.057 3.47416 13.1597 3.54283C13.2625 3.61151 13.3426 3.70912 13.3899 3.82332C13.4372 3.93753 13.4496 4.06319 13.4255 4.18443C13.4014 4.30567 13.3419 4.41704 13.2545 4.50444C13.167 4.59185 13.0557 4.65138 12.9344 4.67549C12.8132 4.69961 12.6875 4.68723 12.5733 4.63993C12.4591 4.59262 12.3615 4.51251 12.2928 4.40973C12.2242 4.30695 12.1875 4.18611 12.1875 4.0625C12.1875 3.89674 12.2534 3.73777 12.3706 3.62056C12.4878 3.50335 12.6468 3.4375 12.8125 3.4375ZM19.8688 15.1469L15.6063 7.95313C15.4688 7.71897 15.2723 7.52502 15.0363 7.39066C14.8004 7.2563 14.5333 7.18624 14.2617 7.1875C13.9903 7.18622 13.7233 7.25627 13.4875 7.39064C13.2517 7.52501 13.0553 7.71898 12.918 7.95313L11.457 10.418L8.53361 5.45703C8.39555 5.22279 8.19876 5.02863 7.96268 4.89374C7.7266 4.75885 7.45941 4.6879 7.18751 4.6879C6.91562 4.6879 6.64843 4.75885 6.41235 4.89374C6.17627 5.02863 5.97948 5.22279 5.84142 5.45703L0.129701 15.1492C0.0458336 15.2916 0.00109532 15.4536 1.9858e-05 15.6189C-0.0010556 15.7842 0.04157 15.9468 0.123577 16.0902C0.205585 16.2337 0.32406 16.3529 0.466998 16.4359C0.609936 16.5188 0.772257 16.5625 0.937514 16.5625H19.0625C19.228 16.5625 19.3905 16.5186 19.5336 16.4355C19.6766 16.3523 19.7951 16.2328 19.877 16.089C19.9589 15.9452 20.0013 15.7823 19.9998 15.6168C19.9984 15.4513 19.9532 15.2892 19.8688 15.1469ZM7.18751 6.86485L8.48205 9.0625H5.89298L7.18751 6.86485ZM2.57814 14.6875L4.78751 10.9375H9.58751L10.6485 12.7391V12.7445L11.7969 14.6875H2.57814ZM13.9735 14.6875L12.5438 12.2656L14.2625 9.36719L17.4172 14.6875H13.9735Z" fill="#191F2E"/>
</svg>
