<svg width="20" height="20" viewBox="0 0 20 20" fill="none" xmlns="http://www.w3.org/2000/svg">
<path d="M11.25 0.9375H8.75C7.34148 0.938948 5.99107 1.49912 4.99509 2.49509C3.99912 3.49107 3.43895 4.84148 3.4375 6.25V13.75C3.43895 15.1585 3.99912 16.5089 4.99509 17.5049C5.99107 18.5009 7.34148 19.0611 8.75 19.0625H11.25C12.6585 19.0611 14.0089 18.5009 15.0049 17.5049C16.0009 16.5089 16.5611 15.1585 16.5625 13.75V6.25C16.5611 4.84148 16.0009 3.49107 15.0049 2.49509C14.0089 1.49912 12.6585 0.938948 11.25 0.9375ZM14.6875 6.25V7.8125H10.9375V2.8125H11.25C12.1614 2.81353 13.0351 3.17603 13.6795 3.82046C14.324 4.46489 14.6865 5.33864 14.6875 6.25ZM8.75 2.8125H9.0625V7.8125H5.3125V6.25C5.31353 5.33864 5.67603 4.46489 6.32046 3.82046C6.96489 3.17603 7.83864 2.81353 8.75 2.8125ZM11.25 17.1875H8.75C7.83864 17.1865 6.96489 16.824 6.32046 16.1795C5.67603 15.5351 5.31353 14.6614 5.3125 13.75V9.6875H14.6875V13.75C14.6865 14.6614 14.324 15.5351 13.6795 16.1795C13.0351 16.824 12.1614 17.1865 11.25 17.1875Z" fill="#191F2E"/>
</svg>
