<svg width="20" height="20" viewBox="0 0 20 20" fill="none" xmlns="http://www.w3.org/2000/svg">
<path d="M11.25 1.25H8.75C7.42436 1.25145 6.15343 1.7787 5.21607 2.71606C4.2787 3.65343 3.75145 4.92436 3.75 6.25V13.75C3.75145 15.0756 4.2787 16.3466 5.21607 17.2839C6.15343 18.2213 7.42436 18.7486 8.75 18.75H11.25C12.5756 18.7486 13.8466 18.2213 14.7839 17.2839C15.7213 16.3466 16.2486 15.0756 16.25 13.75V6.25C16.2486 4.92436 15.7213 3.65343 14.7839 2.71606C13.8466 1.7787 12.5756 1.25145 11.25 1.25ZM10.625 8.75C10.625 8.91576 10.5592 9.07473 10.4419 9.19194C10.3247 9.30915 10.1658 9.375 10 9.375C9.83424 9.375 9.67527 9.30915 9.55806 9.19194C9.44085 9.07473 9.375 8.91576 9.375 8.75V5C9.375 4.83424 9.44085 4.67527 9.55806 4.55806C9.67527 4.44085 9.83424 4.375 10 4.375C10.1658 4.375 10.3247 4.44085 10.4419 4.55806C10.5592 4.67527 10.625 4.83424 10.625 5V8.75Z" fill="#191F2E"/>
</svg>
