<svg width="20" height="20" viewBox="0 0 20 20" fill="none" xmlns="http://www.w3.org/2000/svg">
<path d="M16.6344 2.0086C16.5599 1.94956 16.4728 1.90853 16.3798 1.88875C16.2868 1.86896 16.1905 1.87094 16.0984 1.89454L6.09844 4.39454C5.96336 4.42831 5.84342 4.50621 5.75765 4.6159C5.67188 4.72558 5.6252 4.86077 5.625 5.00001V13.6016C5.10357 13.2532 4.48065 13.089 3.85524 13.1353C3.22982 13.1815 2.6378 13.4354 2.17323 13.8566C1.70867 14.2779 1.39823 14.8423 1.29124 15.4603C1.18425 16.0782 1.28684 16.7142 1.58273 17.2671C1.87861 17.82 2.3508 18.2582 2.92427 18.512C3.49773 18.7658 4.13957 18.8206 4.74779 18.6678C5.35601 18.515 5.89571 18.1633 6.28113 17.6686C6.66655 17.1739 6.87558 16.5646 6.875 15.9375V8.61329L15.625 6.42579V11.1016C15.1036 10.7532 14.4806 10.589 13.8552 10.6353C13.2298 10.6815 12.6378 10.9354 12.1732 11.3566C11.7087 11.7779 11.3982 12.3423 11.2912 12.9603C11.1842 13.5782 11.2868 14.2142 11.5827 14.7671C11.8786 15.32 12.3508 15.7582 12.9243 16.012C13.4977 16.2658 14.1396 16.3206 14.7478 16.1678C15.356 16.015 15.8957 15.6633 16.2811 15.1686C16.6666 14.6739 16.8756 14.0646 16.875 13.4375V2.50001C16.8748 2.40521 16.853 2.31171 16.8113 2.22658C16.7696 2.14144 16.7091 2.0669 16.6344 2.0086Z" fill="#191F2E"/>
</svg>
