<svg width="20" height="20" viewBox="0 0 20 20" fill="none" xmlns="http://www.w3.org/2000/svg">
<path d="M18.125 4.375C18.125 4.54076 18.0592 4.69973 17.9419 4.81694C17.8247 4.93415 17.6658 5 17.5 5H16.25V6.25C16.25 6.41576 16.1842 6.57473 16.0669 6.69194C15.9497 6.80915 15.7908 6.875 15.625 6.875C15.4592 6.875 15.3003 6.80915 15.1831 6.69194C15.0659 6.57473 15 6.41576 15 6.25V5H13.75C13.5842 5 13.4253 4.93415 13.3081 4.81694C13.1909 4.69973 13.125 4.54076 13.125 4.375C13.125 4.20924 13.1909 4.05027 13.3081 3.93306C13.4253 3.81585 13.5842 3.75 13.75 3.75H15V2.5C15 2.33424 15.0659 2.17527 15.1831 2.05806C15.3003 1.94085 15.4592 1.875 15.625 1.875C15.7908 1.875 15.9497 1.94085 16.0669 2.05806C16.1842 2.17527 16.25 2.33424 16.25 2.5V3.75H17.5C17.6658 3.75 17.8247 3.81585 17.9419 3.93306C18.0592 4.05027 18.125 4.20924 18.125 4.375ZM16.25 8.75C16.0842 8.75 15.9253 8.81585 15.8081 8.93306C15.6909 9.05027 15.625 9.20924 15.625 9.375V11.1C15.1036 10.7516 14.4808 10.5875 13.8554 10.6337C13.2301 10.6798 12.6381 10.9337 12.1735 11.3548C11.709 11.776 11.3984 12.3403 11.2913 12.9581C11.1842 13.576 11.2867 14.2119 11.5824 14.7648C11.8781 15.3178 12.3501 15.7561 12.9234 16.01C13.4967 16.264 14.1384 16.3191 14.7467 16.1666C15.3549 16.014 15.8947 15.6626 16.2803 15.1682C16.6659 14.6737 16.8752 14.0646 16.875 13.4375V9.375C16.875 9.20924 16.8092 9.05027 16.6919 8.93306C16.5747 8.81585 16.4158 8.75 16.25 8.75ZM11.9984 7.91641C12.1191 7.83341 12.2068 7.71066 12.2463 7.56958C12.2857 7.4285 12.2743 7.27806 12.2141 7.14453C12.1916 7.09439 12.1627 7.04738 12.1281 7.00469C11.4699 6.1327 11.1631 5.04526 11.2688 3.95781C11.2831 3.79317 11.2316 3.62956 11.1256 3.50277C11.0196 3.37597 10.8677 3.29633 10.7031 3.28125C10.6347 3.27534 10.5658 3.28088 10.4992 3.29766L6.09844 4.39375C5.96323 4.42755 5.84319 4.50557 5.75741 4.61542C5.67163 4.72526 5.62502 4.86063 5.625 5V13.6C5.10362 13.2516 4.48078 13.0875 3.85543 13.1337C3.23008 13.1798 2.63809 13.4337 2.17352 13.8548C1.70895 14.276 1.39845 14.8403 1.29134 15.4581C1.18423 16.076 1.28666 16.7119 1.58236 17.2648C1.87805 17.8178 2.35006 18.2561 2.92337 18.51C3.49669 18.764 4.13844 18.8191 4.74665 18.6666C5.35487 18.514 5.89467 18.1626 6.28029 17.6682C6.66591 17.1737 6.87523 16.5646 6.875 15.9375V9.23828L11.7828 8.01094C11.86 7.99326 11.9331 7.96119 11.9984 7.91641Z" fill="#191F2E"/>
</svg>
