<svg width="20" height="20" viewBox="0 0 20 20" fill="none" xmlns="http://www.w3.org/2000/svg">
<path d="M18.4375 4.375C18.4375 4.62364 18.3387 4.8621 18.1629 5.03791C17.9871 5.21373 17.7486 5.3125 17.5 5.3125H16.5625V6.25C16.5625 6.49864 16.4637 6.7371 16.2879 6.91291C16.1121 7.08873 15.8736 7.1875 15.625 7.1875C15.3764 7.1875 15.1379 7.08873 14.9621 6.91291C14.7863 6.7371 14.6875 6.49864 14.6875 6.25V5.3125H13.75C13.5014 5.3125 13.2629 5.21373 13.0871 5.03791C12.9113 4.8621 12.8125 4.62364 12.8125 4.375C12.8125 4.12636 12.9113 3.8879 13.0871 3.71209C13.2629 3.53627 13.5014 3.4375 13.75 3.4375H14.6875V2.5C14.6875 2.25136 14.7863 2.0129 14.9621 1.83709C15.1379 1.66127 15.3764 1.5625 15.625 1.5625C15.8736 1.5625 16.1121 1.66127 16.2879 1.83709C16.4637 2.0129 16.5625 2.25136 16.5625 2.5V3.4375H17.5C17.7486 3.4375 17.9871 3.53627 18.1629 3.71209C18.3387 3.8879 18.4375 4.12636 18.4375 4.375ZM17.1875 9.6875V13.4375C17.1877 14.1105 16.9706 14.7655 16.5686 15.3052C16.1665 15.8449 15.601 16.2404 14.9562 16.4328C14.3113 16.6253 13.6215 16.6044 12.9895 16.3733C12.3574 16.1423 11.8168 15.7133 11.4482 15.1503C11.0795 14.5873 10.9024 13.9203 10.9433 13.2486C10.9841 12.5769 11.2407 11.9363 11.6749 11.4221C12.1091 10.9079 12.6977 10.5477 13.3531 10.3949C14.0085 10.2421 14.6957 10.305 15.3125 10.5742V9.6875C15.3125 9.43886 15.4113 9.2004 15.5871 9.02459C15.7629 8.84877 16.0014 8.75 16.25 8.75C16.4986 8.75 16.7371 8.84877 16.9129 9.02459C17.0887 9.2004 17.1875 9.43886 17.1875 9.6875ZM15.3125 13.4375C15.3125 13.1903 15.2392 12.9486 15.1018 12.743C14.9645 12.5375 14.7693 12.3773 14.5409 12.2826C14.3124 12.188 14.0611 12.1633 13.8186 12.2115C13.5762 12.2597 13.3534 12.3788 13.1786 12.5536C13.0038 12.7284 12.8848 12.9512 12.8365 13.1936C12.7883 13.4361 12.813 13.6874 12.9077 13.9159C13.0023 14.1443 13.1625 14.3395 13.368 14.4768C13.5736 14.6142 13.8153 14.6875 14.0625 14.6875C14.394 14.6875 14.712 14.5558 14.9464 14.3214C15.1808 14.087 15.3125 13.769 15.3125 13.4375ZM7.1875 9.48203V15.9375C7.18768 16.6105 6.97061 17.2655 6.56857 17.8052C6.16654 18.3449 5.60103 18.7404 4.95616 18.9328C4.31129 19.1253 3.62153 19.1044 2.98947 18.8733C2.35742 18.6423 1.81684 18.2133 1.44817 17.6503C1.07949 17.0873 0.902409 16.4203 0.943267 15.7486C0.984124 15.0769 1.24074 14.4363 1.67493 13.9221C2.10912 13.4079 2.6977 13.0477 3.3531 12.8949C4.0085 12.7421 4.69571 12.805 5.3125 13.0742V5C5.31253 4.79094 5.38244 4.58789 5.51111 4.42312C5.63979 4.25835 5.81984 4.14132 6.02266 4.09063L10.0852 3.075C10.3247 3.01947 10.5764 3.06024 10.7861 3.18854C10.9959 3.31683 11.1468 3.52238 11.2064 3.76089C11.2661 3.99941 11.2296 4.25181 11.1049 4.4637C10.9802 4.6756 10.7773 4.83004 10.5398 4.89375L7.1875 5.73203V7.54922L11.3352 6.5125C11.5747 6.45697 11.8264 6.49774 12.0361 6.62604C12.2459 6.75433 12.3968 6.95988 12.4564 7.1984C12.5161 7.43691 12.4796 7.68931 12.3549 7.90121C12.2302 8.1131 12.0273 8.26754 11.7898 8.33125L7.1875 9.48203ZM5.3125 15.9375C5.3125 15.6903 5.23919 15.4486 5.10184 15.243C4.96449 15.0375 4.76926 14.8773 4.54086 14.7826C4.31245 14.688 4.06112 14.6633 3.81864 14.7115C3.57616 14.7597 3.35343 14.8788 3.17862 15.0536C3.0038 15.2284 2.88475 15.4512 2.83652 15.6936C2.78829 15.9361 2.81304 16.1874 2.90765 16.4159C3.00226 16.6443 3.16248 16.8395 3.36804 16.9768C3.5736 17.1142 3.81528 17.1875 4.0625 17.1875C4.39402 17.1875 4.71196 17.0558 4.94639 16.8214C5.18081 16.587 5.3125 16.269 5.3125 15.9375Z" fill="#191F2E"/>
</svg>
