<svg width="20" height="20" viewBox="0 0 20 20" fill="none" xmlns="http://www.w3.org/2000/svg">
<path d="M16.6344 2.00699C16.5595 1.94866 16.4723 1.90814 16.3795 1.88851C16.2866 1.86888 16.1905 1.87066 16.0984 1.89371L6.09844 4.39371C5.96323 4.42751 5.84319 4.50553 5.75741 4.61538C5.67163 4.72522 5.62502 4.86059 5.625 4.99996V13.6C5.10362 13.2516 4.48078 13.0875 3.85543 13.1336C3.23008 13.1798 2.63809 13.4336 2.17352 13.8548C1.70895 14.2759 1.39845 14.8402 1.29134 15.4581C1.18423 16.0759 1.28666 16.7118 1.58236 17.2648C1.87805 17.8177 2.35006 18.256 2.92337 18.51C3.49669 18.764 4.13844 18.819 4.74665 18.6665C5.35487 18.514 5.89467 18.1626 6.28029 17.6681C6.66591 17.1737 6.87523 16.5645 6.875 15.9375V5.48824L15.625 3.30074V11.1C15.1036 10.7516 14.4808 10.5875 13.8554 10.6336C13.2301 10.6798 12.6381 10.9336 12.1735 11.3548C11.709 11.7759 11.3984 12.3402 11.2913 12.9581C11.1842 13.5759 11.2867 14.2118 11.5824 14.7648C11.8781 15.3177 12.3501 15.756 12.9234 16.01C13.4967 16.264 14.1384 16.3191 14.7467 16.1665C15.3549 16.014 15.8947 15.6626 16.2803 15.1681C16.6659 14.6737 16.8752 14.0645 16.875 13.4375V2.49996C16.875 2.4049 16.8534 2.31109 16.8117 2.22567C16.77 2.14024 16.7093 2.06545 16.6344 2.00699ZM4.0625 17.5C3.75347 17.5 3.45138 17.4083 3.19443 17.2366C2.93747 17.0649 2.7372 16.8209 2.61894 16.5354C2.50068 16.2499 2.46974 15.9357 2.53003 15.6326C2.59032 15.3295 2.73913 15.0511 2.95765 14.8326C3.17617 14.6141 3.45458 14.4653 3.75768 14.405C4.06077 14.3447 4.37494 14.3756 4.66045 14.4939C4.94596 14.6122 5.18999 14.8124 5.36168 15.0694C5.53337 15.3263 5.625 15.6284 5.625 15.9375C5.625 16.3519 5.46038 16.7493 5.16736 17.0423C4.87433 17.3353 4.4769 17.5 4.0625 17.5ZM14.0625 15C13.7535 15 13.4514 14.9083 13.1944 14.7366C12.9375 14.5649 12.7372 14.3209 12.6189 14.0354C12.5007 13.7499 12.4697 13.4357 12.53 13.1326C12.5903 12.8295 12.7391 12.5511 12.9576 12.3326C13.1762 12.1141 13.4546 11.9653 13.7577 11.905C14.0608 11.8447 14.3749 11.8756 14.6604 11.9939C14.946 12.1122 15.19 12.3124 15.3617 12.5694C15.5334 12.8263 15.625 13.1284 15.625 13.4375C15.625 13.6427 15.5846 13.8458 15.5061 14.0354C15.4275 14.225 15.3124 14.3972 15.1674 14.5423C15.0223 14.6874 14.85 14.8025 14.6604 14.881C14.4709 14.9595 14.2677 15 14.0625 15Z" fill="#191F2E"/>
</svg>
