<svg width="20" height="20" viewBox="0 0 20 20" fill="none" xmlns="http://www.w3.org/2000/svg">
<path d="M16.4297 4.40151L10.1797 2.52651C10.0864 2.4985 9.98781 2.49269 9.89185 2.50955C9.79589 2.52641 9.70521 2.56547 9.62703 2.62361C9.54885 2.68175 9.48535 2.75736 9.44159 2.8444C9.39783 2.93145 9.37503 3.02752 9.375 3.12495V11.5828C8.73493 11.0103 7.91775 10.6748 7.06005 10.6324C6.20235 10.59 5.35608 10.8433 4.6627 11.3499C3.96931 11.8566 3.4708 12.5858 3.2505 13.4158C3.0302 14.2458 3.10144 15.1263 3.45233 15.9101C3.80321 16.6939 4.41248 17.3335 5.1783 17.7221C5.94413 18.1106 6.8201 18.2245 7.65983 18.0448C8.49956 17.8651 9.25217 17.4026 9.79187 16.7346C10.3316 16.0667 10.6257 15.2337 10.625 14.3749V3.96479L16.0703 5.59838C16.1495 5.62418 16.2331 5.63389 16.3161 5.62693C16.3991 5.61997 16.4799 5.5965 16.5537 5.55788C16.6275 5.51926 16.6928 5.46627 16.7458 5.40204C16.7989 5.33781 16.8385 5.26363 16.8625 5.18385C16.8864 5.10407 16.8942 5.02031 16.8853 4.93749C16.8764 4.85467 16.8511 4.77446 16.8108 4.70157C16.7705 4.62869 16.716 4.56459 16.6505 4.51307C16.5851 4.46154 16.51 4.42361 16.4297 4.40151Z" fill="#191F2E"/>
</svg>
