<svg width="20" height="20" viewBox="0 0 20 20" fill="none" xmlns="http://www.w3.org/2000/svg">
<path d="M16.8266 1.76091C16.7143 1.67334 16.5836 1.61249 16.4443 1.58298C16.305 1.55347 16.1608 1.55607 16.0227 1.5906L6.02266 4.0906C5.81984 4.14129 5.63979 4.25833 5.51111 4.42309C5.38244 4.58786 5.31253 4.79091 5.3125 4.99997V13.0742C4.69571 12.805 4.0085 12.7421 3.3531 12.8949C2.6977 13.0477 2.10912 13.4079 1.67493 13.9221C1.24074 14.4362 0.984124 15.0768 0.943267 15.7486C0.902409 16.4203 1.07949 17.0873 1.44817 17.6503C1.81684 18.2133 2.35742 18.6422 2.98947 18.8733C3.62153 19.1044 4.31129 19.1252 4.95616 18.9328C5.60103 18.7403 6.16654 18.3449 6.56857 17.8052C6.97061 17.2655 7.18768 16.6104 7.1875 15.9375V9.482L15.3125 7.45075V10.5758C14.6957 10.3065 14.0084 10.2437 13.3529 10.3965C12.6975 10.5493 12.1089 10.9097 11.6747 11.4239C11.2405 11.9382 10.984 12.5789 10.9432 13.2507C10.9025 13.9225 11.0797 14.5895 11.4486 15.1525C11.8174 15.7155 12.3582 16.1443 12.9904 16.3752C13.6226 16.6061 14.3124 16.6267 14.9573 16.434C15.6021 16.2413 16.1676 15.8456 16.5694 15.3056C16.9712 14.7657 17.188 14.1105 17.1875 13.4375V2.49997C17.1875 2.35745 17.155 2.21681 17.0924 2.08874C17.0299 1.96068 16.9389 1.84856 16.8266 1.76091ZM4.0625 17.1875C3.81528 17.1875 3.5736 17.1142 3.36804 16.9768C3.16248 16.8395 3.00226 16.6442 2.90765 16.4158C2.81304 16.1874 2.78829 15.9361 2.83652 15.6936C2.88475 15.4511 3.0038 15.2284 3.17862 15.0536C3.35343 14.8788 3.57616 14.7597 3.81864 14.7115C4.06112 14.6633 4.31245 14.688 4.54086 14.7826C4.76926 14.8772 4.96449 15.0374 5.10184 15.243C5.23919 15.4486 5.3125 15.6902 5.3125 15.9375C5.3125 16.269 5.18081 16.5869 4.94639 16.8214C4.71196 17.0558 4.39402 17.1875 4.0625 17.1875ZM7.1875 7.54919V5.732L15.3125 3.70075V5.51794L7.1875 7.54919ZM14.0625 14.6875C13.8153 14.6875 13.5736 14.6142 13.368 14.4768C13.1625 14.3395 13.0023 14.1442 12.9077 13.9158C12.813 13.6874 12.7883 13.4361 12.8365 13.1936C12.8848 12.9511 13.0038 12.7284 13.1786 12.5536C13.3534 12.3788 13.5762 12.2597 13.8186 12.2115C14.0611 12.1633 14.3124 12.188 14.5409 12.2826C14.7693 12.3772 14.9645 12.5374 15.1018 12.743C15.2392 12.9486 15.3125 13.1902 15.3125 13.4375C15.3125 13.769 15.1808 14.0869 14.9464 14.3214C14.712 14.5558 14.394 14.6875 14.0625 14.6875Z" fill="#191F2E"/>
</svg>
