<svg width="20" height="20" viewBox="0 0 20 20" fill="none" xmlns="http://www.w3.org/2000/svg">
<path d="M16.5195 4.10232L10.2695 2.22732C10.1296 2.18531 9.98171 2.1766 9.83778 2.20189C9.69384 2.22718 9.55781 2.28576 9.44055 2.37297C9.32328 2.46018 9.22803 2.5736 9.16239 2.70417C9.09675 2.83474 9.06255 2.97884 9.0625 3.12498V10.9547C8.30222 10.4688 7.40184 10.2499 6.50338 10.3325C5.60491 10.415 4.75948 10.7943 4.10044 11.4105C3.44139 12.0267 3.00623 12.8448 2.86359 13.7357C2.72096 14.6266 2.87895 15.5396 3.31267 16.3308C3.74638 17.122 4.43113 17.7462 5.25892 18.1052C6.08671 18.4641 7.01042 18.5372 7.88438 18.313C8.75834 18.0889 9.5328 17.5801 10.0856 16.8671C10.6384 16.154 10.9382 15.2772 10.9375 14.375V4.38514L15.9805 5.89764C16.0985 5.93303 16.2223 5.94484 16.3448 5.93239C16.4674 5.91994 16.5863 5.88348 16.6947 5.82508C16.8032 5.76668 16.8991 5.68749 16.9769 5.59203C17.0548 5.49657 17.113 5.38672 17.1484 5.26873C17.1838 5.15075 17.1956 5.02695 17.1832 4.9044C17.1707 4.78185 17.1343 4.66295 17.0759 4.5545C17.0175 4.44604 16.9383 4.35015 16.8428 4.2723C16.7474 4.19445 16.6375 4.13616 16.5195 4.10076V4.10232ZM6.875 16.5625C6.44236 16.5625 6.01943 16.4342 5.65969 16.1938C5.29996 15.9535 5.01959 15.6118 4.85402 15.2121C4.68845 14.8124 4.64513 14.3726 4.72954 13.9482C4.81394 13.5239 5.02228 13.1341 5.32821 12.8282C5.63414 12.5223 6.02391 12.3139 6.44824 12.2295C6.87258 12.1451 7.31241 12.1884 7.71212 12.354C8.11184 12.5196 8.45348 12.7999 8.69384 13.1597C8.93421 13.5194 9.0625 13.9423 9.0625 14.375C9.0625 14.9551 8.83204 15.5115 8.4218 15.9218C8.01156 16.332 7.45517 16.5625 6.875 16.5625Z" fill="#191F2E"/>
</svg>
