<svg width="20" height="20" viewBox="0 0 20 20" fill="none" xmlns="http://www.w3.org/2000/svg">
<path d="M18.0235 7.37965L4.28212 2.282L4.26259 2.27497C3.98552 2.17911 3.68707 2.16313 3.40135 2.22887C3.11563 2.29462 2.85417 2.43942 2.64685 2.64673C2.43954 2.85405 2.29474 3.1155 2.229 3.40122C2.16326 3.68694 2.17923 3.9854 2.27509 4.26247L2.28212 4.282L7.37978 18.0234C7.48784 18.3274 7.68734 18.5904 7.95087 18.7764C8.21441 18.9625 8.52906 19.0624 8.85165 19.0625H8.87899C9.20853 19.0567 9.52781 18.947 9.79119 18.7488C10.0546 18.5507 10.2486 18.2744 10.3454 17.9593L12.1368 12.1367L17.9595 10.3453C18.2745 10.2495 18.5511 10.0566 18.75 9.7942C18.9489 9.5318 19.0598 9.21328 19.0669 8.88411C19.074 8.55494 18.9769 8.23193 18.7896 7.9612C18.6022 7.69047 18.3341 7.48584 18.0235 7.37653V7.37965ZM11.4274 10.3906C11.183 10.4654 10.9607 10.5991 10.7799 10.7798C10.5992 10.9606 10.4655 11.1829 10.3907 11.4273L8.82821 16.5273L4.28134 4.28122L16.5274 8.82809L11.4274 10.3906Z" fill="#191F2E"/>
</svg>
