<svg width="20" height="20" viewBox="0 0 20 20" fill="none" xmlns="http://www.w3.org/2000/svg">
<path d="M18.75 8.8734C18.7481 9.1375 18.6613 9.39399 18.5025 9.605C18.3437 9.81602 18.1212 9.97037 17.8679 10.0453L11.8867 11.8859L10.0461 17.8671C9.97106 18.1203 9.81668 18.3427 9.60569 18.5015C9.3947 18.6604 9.13827 18.7472 8.8742 18.7492H8.85076C8.59181 18.7516 8.33868 18.6724 8.12733 18.5227C7.91598 18.3731 7.75715 18.1606 7.67342 17.9156L2.57811 4.17262C2.57646 4.16857 2.57515 4.16438 2.5742 4.16012C2.49803 3.93889 2.48548 3.70073 2.53797 3.47272C2.59046 3.24472 2.7059 3.03602 2.87113 2.87038C3.03637 2.70473 3.24478 2.58879 3.47266 2.53573C3.70053 2.48268 3.93873 2.49465 4.16014 2.57027L4.17264 2.57418L17.9164 7.67262C18.1652 7.75768 18.3804 7.92009 18.5303 8.13613C18.6803 8.35217 18.7573 8.61051 18.75 8.8734Z" fill="#191F2E"/>
</svg>
