<svg width="20" height="20" viewBox="0 0 20 20" fill="none" xmlns="http://www.w3.org/2000/svg">
<path d="M14.8172 5.18282C14.8753 5.24087 14.9214 5.3098 14.9529 5.38567C14.9843 5.46155 15.0005 5.54288 15.0005 5.62501C15.0005 5.70715 14.9843 5.78848 14.9529 5.86435C14.9214 5.94022 14.8753 6.00915 14.8172 6.0672L13.5672 7.3172C13.4499 7.43447 13.2909 7.50036 13.125 7.50036C12.9591 7.50036 12.8001 7.43447 12.6828 7.3172C12.5655 7.19992 12.4997 7.04086 12.4997 6.87501C12.4997 6.70916 12.5655 6.5501 12.6828 6.43282L13.9328 5.18282C13.9909 5.12471 14.0598 5.07861 14.1357 5.04716C14.2115 5.01571 14.2929 4.99952 14.375 4.99952C14.4571 4.99952 14.5385 5.01571 14.6143 5.04716C14.6902 5.07861 14.7591 5.12471 14.8172 5.18282ZM17.5 5.62501C17.5012 6.03554 17.4208 6.44222 17.2636 6.82148C17.1065 7.20073 16.8756 7.54502 16.5844 7.83439L14.7094 9.70939C14.6181 9.80078 14.5007 9.86164 14.3734 9.88361C10.3508 10.5742 3.63438 17.2492 3.56719 17.3172C3.44991 17.4344 3.29089 17.5002 3.12512 17.5001C2.95934 17.5 2.80038 17.4341 2.6832 17.3168C2.56603 17.1995 2.50025 17.0405 2.50032 16.8747C2.50039 16.709 2.56632 16.55 2.68359 16.4328C2.8125 16.307 9.42891 9.63126 10.1164 5.62501C10.1384 5.49772 10.1992 5.38036 10.2906 5.28907L12.1656 3.41407C12.6028 2.97708 13.1597 2.67952 13.7659 2.55905C14.3722 2.43858 15.0005 2.50059 15.5715 2.73725C16.1425 2.97392 16.6305 3.3746 16.9738 3.88862C17.3171 4.40264 17.5002 5.00691 17.5 5.62501ZM16.25 5.62501C16.2509 5.2535 16.1414 4.8901 15.9355 4.58091C15.7295 4.27172 15.4363 4.03068 15.0932 3.88839C14.75 3.74609 14.3723 3.70895 14.0079 3.78168C13.6436 3.85441 13.3091 4.03373 13.0469 4.29689L11.3102 6.03829C10.9656 7.69064 9.8336 9.64689 8.5375 11.4625C10.3531 10.1664 12.3094 9.03439 13.9617 8.68986L15.7031 6.95314C15.8776 6.77895 16.0158 6.57187 16.1097 6.34389C16.2036 6.11591 16.2512 5.87156 16.25 5.62501Z" fill="#191F2E"/>
</svg>
