<svg width="20" height="20" viewBox="0 0 20 20" fill="none" xmlns="http://www.w3.org/2000/svg">
<path d="M16.5844 3.41563C15.9983 2.82978 15.2036 2.50067 14.375 2.50067C13.5464 2.50067 12.7516 2.82978 12.1656 3.41563L10.2906 5.29063C10.1992 5.38191 10.1384 5.49927 10.1164 5.62657C9.42891 9.63125 2.8125 16.307 2.68437 16.432C2.5671 16.5492 2.50117 16.7082 2.5011 16.8739C2.50103 17.0397 2.56681 17.1987 2.68398 17.316C2.80115 17.4333 2.96011 17.4992 3.12589 17.4993C3.29167 17.4994 3.45069 17.4336 3.56797 17.3164C3.63515 17.2484 10.3516 10.5734 14.3742 9.88282C14.5015 9.86085 14.6189 9.79999 14.7102 9.7086L16.5852 7.8336C17.171 7.24757 17.5001 6.45286 17.5001 5.62422C17.5001 4.79558 17.171 4.00087 16.5852 3.41485L16.5844 3.41563ZM14.8172 6.06719L13.5672 7.31719C13.4499 7.43447 13.2909 7.50035 13.125 7.50035C12.9591 7.50035 12.8001 7.43447 12.6828 7.31719C12.5655 7.19992 12.4997 7.04086 12.4997 6.875C12.4997 6.70915 12.5655 6.55009 12.6828 6.43282L13.9328 5.18282C14.0501 5.06554 14.2091 4.99966 14.375 4.99966C14.5409 4.99966 14.6999 5.06554 14.8172 5.18282C14.9345 5.30009 15.0003 5.45915 15.0003 5.625C15.0003 5.79086 14.9345 5.94992 14.8172 6.06719Z" fill="#191F2E"/>
</svg>
