<svg width="20" height="20" viewBox="0 0 20 20" fill="none" xmlns="http://www.w3.org/2000/svg">
<path d="M16.8055 3.19454C16.1608 2.55001 15.2866 2.18793 14.375 2.18793C13.4634 2.18793 12.5892 2.55001 11.9445 3.19454L10.0695 5.06954C9.93207 5.20614 9.84083 5.38235 9.80859 5.57344C9.24999 8.82813 4.32109 14.3516 2.46484 16.2094C2.28872 16.3855 2.18977 16.6244 2.18977 16.8734C2.18977 17.1225 2.28872 17.3614 2.46484 17.5375C2.64096 17.7136 2.87983 17.8126 3.1289 17.8126C3.37797 17.8126 3.61684 17.7136 3.79296 17.5375C5.64843 15.6836 11.175 10.75 14.432 10.1938C14.6229 10.1609 14.799 10.0698 14.9359 9.93282L16.8109 8.05782C17.4555 7.41318 17.8175 6.53893 17.8175 5.62735C17.8175 4.71577 17.4555 3.84152 16.8109 3.19688L16.8055 3.19454ZM15.4773 6.72969L13.8039 8.40391C12.6437 8.66251 11.2726 9.29532 9.70468 10.293C10.7023 8.72501 11.3351 7.35391 11.5937 6.19376L13.268 4.52032C13.4121 4.37108 13.5845 4.25205 13.7751 4.17016C13.9658 4.08827 14.1708 4.04517 14.3783 4.04336C14.5857 4.04156 14.7915 4.0811 14.9835 4.15966C15.1755 4.23822 15.35 4.35424 15.4967 4.50095C15.6434 4.64766 15.7594 4.82211 15.838 5.01414C15.9166 5.20617 15.9561 5.41192 15.9543 5.61938C15.9525 5.82685 15.9094 6.03188 15.8275 6.22251C15.7456 6.41314 15.6266 6.58556 15.4773 6.72969Z" fill="#191F2E"/>
</svg>
