<svg width="20" height="20" viewBox="0 0 20 20" fill="none" xmlns="http://www.w3.org/2000/svg">
<path d="M16.875 2.8125H3.125C2.7106 2.8125 2.31317 2.97712 2.02015 3.27015C1.72712 3.56317 1.5625 3.9606 1.5625 4.375V16.875C1.56252 17.0348 1.60339 17.192 1.68124 17.3316C1.75909 17.4711 1.87133 17.5885 2.0073 17.6725C2.14327 17.7565 2.29845 17.8043 2.45811 17.8115C2.61777 17.8186 2.77661 17.7848 2.91953 17.7133L5 16.6734L7.08047 17.7133C7.21072 17.7785 7.35436 17.8124 7.5 17.8124C7.64564 17.8124 7.78928 17.7785 7.91953 17.7133L10 16.6734L12.0805 17.7133C12.2107 17.7785 12.3544 17.8124 12.5 17.8124C12.6456 17.8124 12.7893 17.7785 12.9195 17.7133L15 16.6734L17.0805 17.7133C17.2234 17.7848 17.3822 17.8186 17.5419 17.8115C17.7015 17.8043 17.8567 17.7565 17.9927 17.6725C18.1287 17.5885 18.2409 17.4711 18.3188 17.3316C18.3966 17.192 18.4375 17.0348 18.4375 16.875V4.375C18.4375 3.9606 18.2729 3.56317 17.9799 3.27015C17.6868 2.97712 17.2894 2.8125 16.875 2.8125ZM16.5625 15.3578L15.4195 14.7867C15.2893 14.7215 15.1456 14.6876 15 14.6876C14.8544 14.6876 14.7107 14.7215 14.5805 14.7867L12.5 15.8266L10.4195 14.7867C10.2893 14.7215 10.1456 14.6876 10 14.6876C9.85436 14.6876 9.71072 14.7215 9.58047 14.7867L7.5 15.8266L5.41953 14.7867C5.28928 14.7215 5.14564 14.6876 5 14.6876C4.85436 14.6876 4.71072 14.7215 4.58047 14.7867L3.4375 15.3578V4.6875H16.5625V15.3578ZM10.625 8.4375C10.625 8.18886 10.7238 7.9504 10.8996 7.77459C11.0754 7.59877 11.3139 7.5 11.5625 7.5H14.375C14.6236 7.5 14.8621 7.59877 15.0379 7.77459C15.2137 7.9504 15.3125 8.18886 15.3125 8.4375C15.3125 8.68614 15.2137 8.9246 15.0379 9.10041C14.8621 9.27623 14.6236 9.375 14.375 9.375H11.5625C11.3139 9.375 11.0754 9.27623 10.8996 9.10041C10.7238 8.9246 10.625 8.68614 10.625 8.4375ZM10.625 11.5625C10.625 11.3139 10.7238 11.0754 10.8996 10.8996C11.0754 10.7238 11.3139 10.625 11.5625 10.625H14.375C14.6236 10.625 14.8621 10.7238 15.0379 10.8996C15.2137 11.0754 15.3125 11.3139 15.3125 11.5625C15.3125 11.8111 15.2137 12.0496 15.0379 12.2254C14.8621 12.4012 14.6236 12.5 14.375 12.5H11.5625C11.3139 12.5 11.0754 12.4012 10.8996 12.2254C10.7238 12.0496 10.625 11.8111 10.625 11.5625ZM5.625 13.4375H8.75C8.99864 13.4375 9.2371 13.3387 9.41291 13.1629C9.58873 12.9871 9.6875 12.7486 9.6875 12.5V7.5C9.6875 7.25136 9.58873 7.0129 9.41291 6.83709C9.2371 6.66127 8.99864 6.5625 8.75 6.5625H5.625C5.37636 6.5625 5.1379 6.66127 4.96209 6.83709C4.78627 7.0129 4.6875 7.25136 4.6875 7.5V12.5C4.6875 12.7486 4.78627 12.9871 4.96209 13.1629C5.1379 13.3387 5.37636 13.4375 5.625 13.4375ZM6.5625 8.4375H7.8125V11.5625H6.5625V8.4375Z" fill="#191F2E"/>
</svg>
