<svg width="20" height="20" viewBox="0 0 20 20" fill="none" xmlns="http://www.w3.org/2000/svg">
<path d="M7.1875 8.4375C7.1875 8.18886 7.28627 7.9504 7.46209 7.77459C7.6379 7.59877 7.87636 7.5 8.125 7.5H13.75C13.9986 7.5 14.2371 7.59877 14.4129 7.77459C14.5887 7.9504 14.6875 8.18886 14.6875 8.4375C14.6875 8.68614 14.5887 8.9246 14.4129 9.10041C14.2371 9.27623 13.9986 9.375 13.75 9.375H8.125C7.87636 9.375 7.6379 9.27623 7.46209 9.10041C7.28627 8.9246 7.1875 8.68614 7.1875 8.4375ZM8.125 12.5H13.75C13.9986 12.5 14.2371 12.4012 14.4129 12.2254C14.5887 12.0496 14.6875 11.8111 14.6875 11.5625C14.6875 11.3139 14.5887 11.0754 14.4129 10.8996C14.2371 10.7238 13.9986 10.625 13.75 10.625H8.125C7.87636 10.625 7.6379 10.7238 7.46209 10.8996C7.28627 11.0754 7.1875 11.3139 7.1875 11.5625C7.1875 11.8111 7.28627 12.0496 7.46209 12.2254C7.6379 12.4012 7.87636 12.5 8.125 12.5ZM18.4375 5V14.375C18.4375 14.6623 18.3809 14.9467 18.271 15.2121C18.1611 15.4775 17.9999 15.7187 17.7968 15.9218C17.5937 16.1249 17.3525 16.2861 17.0871 16.396C16.8217 16.5059 16.5373 16.5625 16.25 16.5625H2.8125C2.14946 16.5625 1.51357 16.2991 1.04473 15.8303C0.575892 15.3614 0.3125 14.7255 0.3125 14.0625V6.875C0.3125 6.62636 0.411272 6.3879 0.587087 6.21209C0.762903 6.03627 1.00136 5.9375 1.25 5.9375C1.49864 5.9375 1.7371 6.03627 1.91291 6.21209C2.08873 6.3879 2.1875 6.62636 2.1875 6.875V14.0625C2.1875 14.2283 2.25335 14.3872 2.37056 14.5044C2.48777 14.6217 2.64674 14.6875 2.8125 14.6875C2.97826 14.6875 3.13723 14.6217 3.25444 14.5044C3.37165 14.3872 3.4375 14.2283 3.4375 14.0625V5C3.4375 4.5856 3.60212 4.18817 3.89515 3.89515C4.18817 3.60212 4.5856 3.4375 5 3.4375H16.875C17.2894 3.4375 17.6868 3.60212 17.9799 3.89515C18.2729 4.18817 18.4375 4.5856 18.4375 5ZM16.5625 5.3125H5.3125V14.0625C5.31291 14.2733 5.28666 14.4833 5.23438 14.6875H16.25C16.3329 14.6875 16.4124 14.6546 16.471 14.596C16.5296 14.5374 16.5625 14.4579 16.5625 14.375V5.3125Z" fill="#191F2E"/>
</svg>
