<svg width="20" height="20" viewBox="0 0 20 20" fill="none" xmlns="http://www.w3.org/2000/svg">
<path d="M5.625 8.125H8.125V11.875H5.625V8.125ZM18.125 4.375V16.875C18.1249 16.9815 18.0977 17.0863 18.0457 17.1793C17.9938 17.2723 17.919 17.3505 17.8284 17.4065C17.7377 17.4624 17.6343 17.4943 17.5279 17.499C17.4214 17.5038 17.3156 17.4813 17.2203 17.4336L15 16.3234L12.7797 17.4336C12.6929 17.477 12.5971 17.4997 12.5 17.4997C12.4029 17.4997 12.3071 17.477 12.2203 17.4336L10 16.3234L7.77969 17.4336C7.69286 17.477 7.5971 17.4997 7.5 17.4997C7.4029 17.4997 7.30714 17.477 7.22031 17.4336L5 16.3234L2.77969 17.4336C2.68442 17.4813 2.57856 17.5038 2.47214 17.499C2.36572 17.4943 2.26228 17.4624 2.17165 17.4065C2.08101 17.3505 2.00618 17.2723 1.95426 17.1793C1.90234 17.0863 1.87506 16.9815 1.875 16.875V4.375C1.875 4.04348 2.0067 3.72554 2.24112 3.49112C2.47554 3.2567 2.79348 3.125 3.125 3.125H16.875C17.2065 3.125 17.5245 3.2567 17.7589 3.49112C17.9933 3.72554 18.125 4.04348 18.125 4.375ZM9.375 7.5C9.375 7.33424 9.30915 7.17527 9.19194 7.05806C9.07473 6.94085 8.91576 6.875 8.75 6.875H5C4.83424 6.875 4.67527 6.94085 4.55806 7.05806C4.44085 7.17527 4.375 7.33424 4.375 7.5V12.5C4.375 12.6658 4.44085 12.8247 4.55806 12.9419C4.67527 13.0592 4.83424 13.125 5 13.125H8.75C8.91576 13.125 9.07473 13.0592 9.19194 12.9419C9.30915 12.8247 9.375 12.6658 9.375 12.5V7.5ZM15.625 11.25C15.625 11.0842 15.5592 10.9253 15.4419 10.8081C15.3247 10.6908 15.1658 10.625 15 10.625H11.25C11.0842 10.625 10.9253 10.6908 10.8081 10.8081C10.6908 10.9253 10.625 11.0842 10.625 11.25C10.625 11.4158 10.6908 11.5747 10.8081 11.6919C10.9253 11.8092 11.0842 11.875 11.25 11.875H15C15.1658 11.875 15.3247 11.8092 15.4419 11.6919C15.5592 11.5747 15.625 11.4158 15.625 11.25ZM15.625 8.75C15.625 8.58424 15.5592 8.42527 15.4419 8.30806C15.3247 8.19085 15.1658 8.125 15 8.125H11.25C11.0842 8.125 10.9253 8.19085 10.8081 8.30806C10.6908 8.42527 10.625 8.58424 10.625 8.75C10.625 8.91576 10.6908 9.07473 10.8081 9.19194C10.9253 9.30915 11.0842 9.375 11.25 9.375H15C15.1658 9.375 15.3247 9.30915 15.4419 9.19194C15.5592 9.07473 15.625 8.91576 15.625 8.75Z" fill="#191F2E"/>
</svg>
