<svg width="20" height="20" viewBox="0 0 20 20" fill="none" xmlns="http://www.w3.org/2000/svg">
<path d="M16.6922 10.4422L10.4422 16.6922C10.3841 16.7503 10.3152 16.7963 10.2393 16.8277C10.1634 16.8592 10.0821 16.8754 9.99998 16.8754C9.91786 16.8754 9.83654 16.8592 9.76067 16.8277C9.6848 16.7963 9.61586 16.7503 9.55779 16.6922C9.49972 16.6341 9.45366 16.5652 9.42224 16.4893C9.39081 16.4134 9.37463 16.3321 9.37463 16.25C9.37463 16.1679 9.39081 16.0866 9.42224 16.0107C9.45366 15.9348 9.49972 15.8659 9.55779 15.8078L15.8078 9.55782C15.8659 9.49975 15.9348 9.45368 16.0107 9.42226C16.0865 9.39083 16.1679 9.37466 16.25 9.37466C16.3321 9.37466 16.4134 9.39083 16.4893 9.42226C16.5652 9.45368 16.6341 9.49975 16.6922 9.55782C16.7502 9.61588 16.7963 9.68482 16.8277 9.76069C16.8592 9.83656 16.8753 9.91788 16.8753 10C16.8753 10.0821 16.8592 10.1634 16.8277 10.2393C16.7963 10.3152 16.7502 10.3841 16.6922 10.4422ZM15.4422 2.68282C15.3841 2.62471 15.3152 2.57861 15.2393 2.54715C15.1634 2.5157 15.0821 2.49951 15 2.49951C14.9178 2.49951 14.8365 2.5157 14.7606 2.54715C14.6848 2.57861 14.6158 2.62471 14.5578 2.68282L2.68279 14.5578C2.56552 14.6751 2.49963 14.8342 2.49963 15C2.49963 15.1659 2.56552 15.3249 2.68279 15.4422C2.80007 15.5595 2.95913 15.6254 3.12498 15.6254C3.29083 15.6254 3.44989 15.5595 3.56717 15.4422L15.4422 3.56719C15.5003 3.50915 15.5464 3.44021 15.5778 3.36434C15.6093 3.28847 15.6255 3.20714 15.6255 3.125C15.6255 3.04287 15.6093 2.96154 15.5778 2.88567C15.5464 2.80979 15.5003 2.74086 15.4422 2.68282Z" fill="#191F2E"/>
</svg>
