<svg width="20" height="20" viewBox="0 0 20 20" fill="none" xmlns="http://www.w3.org/2000/svg">
<path d="M16.9132 10.6633L10.6632 16.9133C10.576 17.0005 10.4725 17.0696 10.3586 17.1168C10.2446 17.164 10.1225 17.1883 9.99918 17.1883C9.87586 17.1883 9.75374 17.164 9.6398 17.1168C9.52586 17.0696 9.42233 17.0005 9.33512 16.9133C9.24792 16.826 9.17874 16.7225 9.13155 16.6086C9.08435 16.4946 9.06006 16.3725 9.06006 16.2492C9.06006 16.1259 9.08435 16.0037 9.13155 15.8898C9.17874 15.7759 9.24792 15.6723 9.33512 15.5851L15.5851 9.33513C15.6723 9.24792 15.7759 9.17874 15.8898 9.13155C16.0037 9.08435 16.1259 9.06006 16.2492 9.06006C16.3725 9.06006 16.4946 9.08435 16.6086 9.13155C16.7225 9.17874 16.826 9.24792 16.9132 9.33513C17.0005 9.42233 17.0696 9.52586 17.1168 9.6398C17.164 9.75374 17.1883 9.87586 17.1883 9.99919C17.1883 10.1225 17.164 10.2446 17.1168 10.3586C17.0696 10.4725 17.0005 10.576 16.9132 10.6633ZM15.6632 2.46013C15.5761 2.37273 15.4727 2.30338 15.3587 2.25606C15.2447 2.20874 15.1226 2.18439 14.9992 2.18439C14.8758 2.18439 14.7536 2.20874 14.6397 2.25606C14.5257 2.30338 14.4222 2.37273 14.3351 2.46013L2.46012 14.3351C2.284 14.5112 2.18506 14.7501 2.18506 14.9992C2.18506 15.2483 2.284 15.4871 2.46012 15.6633C2.63624 15.8394 2.87511 15.9383 3.12418 15.9383C3.37326 15.9383 3.61213 15.8394 3.78825 15.6633L15.6632 3.78825C15.7504 3.70118 15.8196 3.59779 15.8667 3.48398C15.9139 3.37017 15.9382 3.24817 15.9382 3.12497C15.9382 3.00177 15.9139 2.87977 15.8667 2.76596C15.8196 2.65215 15.7504 2.54876 15.6632 2.46169V2.46013Z" fill="#191F2E"/>
</svg>
