<svg width="20" height="20" viewBox="0 0 20 20" fill="none" xmlns="http://www.w3.org/2000/svg">
<path d="M13.4375 9.6875C13.4375 9.93614 13.3387 10.1746 13.1629 10.3504C12.9871 10.5262 12.7486 10.625 12.5 10.625H7.5C7.25136 10.625 7.0129 10.5262 6.83709 10.3504C6.66127 10.1746 6.5625 9.93614 6.5625 9.6875C6.5625 9.43886 6.66127 9.2004 6.83709 9.02459C7.0129 8.84877 7.25136 8.75 7.5 8.75H12.5C12.7486 8.75 12.9871 8.84877 13.1629 9.02459C13.3387 9.2004 13.4375 9.43886 13.4375 9.6875ZM12.5 11.875H7.5C7.25136 11.875 7.0129 11.9738 6.83709 12.1496C6.66127 12.3254 6.5625 12.5639 6.5625 12.8125C6.5625 13.0611 6.66127 13.2996 6.83709 13.4754C7.0129 13.6512 7.25136 13.75 7.5 13.75H12.5C12.7486 13.75 12.9871 13.6512 13.1629 13.4754C13.3387 13.2996 13.4375 13.0611 13.4375 12.8125C13.4375 12.5639 13.3387 12.3254 13.1629 12.1496C12.9871 11.9738 12.7486 11.875 12.5 11.875ZM17.1875 3.75V15.625C17.1875 16.3709 16.8912 17.0863 16.3637 17.6137C15.8363 18.1412 15.1209 18.4375 14.375 18.4375H5.625C4.87908 18.4375 4.16371 18.1412 3.63626 17.6137C3.10882 17.0863 2.8125 16.3709 2.8125 15.625V3.75C2.8125 3.3356 2.97712 2.93817 3.27015 2.64515C3.56317 2.35212 3.9606 2.1875 4.375 2.1875H5.625V1.875C5.625 1.62636 5.72377 1.3879 5.89959 1.21209C6.0754 1.03627 6.31386 0.9375 6.5625 0.9375C6.81114 0.9375 7.0496 1.03627 7.22541 1.21209C7.40123 1.3879 7.5 1.62636 7.5 1.875V2.1875H9.0625V1.875C9.0625 1.62636 9.16127 1.3879 9.33709 1.21209C9.5129 1.03627 9.75136 0.9375 10 0.9375C10.2486 0.9375 10.4871 1.03627 10.6629 1.21209C10.8387 1.3879 10.9375 1.62636 10.9375 1.875V2.1875H12.5V1.875C12.5 1.62636 12.5988 1.3879 12.7746 1.21209C12.9504 1.03627 13.1889 0.9375 13.4375 0.9375C13.6861 0.9375 13.9246 1.03627 14.1004 1.21209C14.2762 1.3879 14.375 1.62636 14.375 1.875V2.1875H15.625C16.0394 2.1875 16.4368 2.35212 16.7299 2.64515C17.0229 2.93817 17.1875 3.3356 17.1875 3.75ZM15.3125 4.0625H14.375V4.375C14.375 4.62364 14.2762 4.8621 14.1004 5.03791C13.9246 5.21373 13.6861 5.3125 13.4375 5.3125C13.1889 5.3125 12.9504 5.21373 12.7746 5.03791C12.5988 4.8621 12.5 4.62364 12.5 4.375V4.0625H10.9375V4.375C10.9375 4.62364 10.8387 4.8621 10.6629 5.03791C10.4871 5.21373 10.2486 5.3125 10 5.3125C9.75136 5.3125 9.5129 5.21373 9.33709 5.03791C9.16127 4.8621 9.0625 4.62364 9.0625 4.375V4.0625H7.5V4.375C7.5 4.62364 7.40123 4.8621 7.22541 5.03791C7.0496 5.21373 6.81114 5.3125 6.5625 5.3125C6.31386 5.3125 6.0754 5.21373 5.89959 5.03791C5.72377 4.8621 5.625 4.62364 5.625 4.375V4.0625H4.6875V15.625C4.6875 15.8736 4.78627 16.1121 4.96209 16.2879C5.1379 16.4637 5.37636 16.5625 5.625 16.5625H14.375C14.6236 16.5625 14.8621 16.4637 15.0379 16.2879C15.2137 16.1121 15.3125 15.8736 15.3125 15.625V4.0625Z" fill="#191F2E"/>
</svg>
