<svg width="20" height="20" viewBox="0 0 20 20" fill="none" xmlns="http://www.w3.org/2000/svg">
<path d="M16.25 2.1875H3.75C3.3356 2.1875 2.93817 2.35212 2.64515 2.64515C2.35212 2.93817 2.1875 3.3356 2.1875 3.75V16.25C2.1875 16.6644 2.35212 17.0618 2.64515 17.3549C2.93817 17.6479 3.3356 17.8125 3.75 17.8125H12.2414C12.4467 17.8131 12.65 17.7729 12.8396 17.6943C13.0293 17.6157 13.2014 17.5003 13.3461 17.3547L17.3547 13.3461C17.5003 13.2014 17.6157 13.0293 17.6943 12.8396C17.7729 12.65 17.8131 12.4467 17.8125 12.2414V3.75C17.8125 3.3356 17.6479 2.93817 17.3549 2.64515C17.0618 2.35212 16.6644 2.1875 16.25 2.1875ZM4.0625 4.0625H15.9375V11.25H12.1875C11.9389 11.25 11.7004 11.3488 11.5246 11.5246C11.3488 11.7004 11.25 11.9389 11.25 12.1875V15.9375H4.0625V4.0625ZM13.125 14.9219V13.125H14.9219L13.125 14.9219Z" fill="#191F2E"/>
</svg>
