<svg width="20" height="20" viewBox="0 0 20 20" fill="none" xmlns="http://www.w3.org/2000/svg">
<path d="M8.4375 8.4375C8.4375 8.18886 8.53627 7.9504 8.71209 7.77459C8.8879 7.59877 9.12636 7.5 9.375 7.5H13.75C13.9986 7.5 14.2371 7.59877 14.4129 7.77459C14.5887 7.9504 14.6875 8.18886 14.6875 8.4375C14.6875 8.68614 14.5887 8.9246 14.4129 9.10041C14.2371 9.27623 13.9986 9.375 13.75 9.375H9.375C9.12636 9.375 8.8879 9.27623 8.71209 9.10041C8.53627 8.9246 8.4375 8.68614 8.4375 8.4375ZM13.75 10.625H9.375C9.12636 10.625 8.8879 10.7238 8.71209 10.8996C8.53627 11.0754 8.4375 11.3139 8.4375 11.5625C8.4375 11.8111 8.53627 12.0496 8.71209 12.2254C8.8879 12.4012 9.12636 12.5 9.375 12.5H13.75C13.9986 12.5 14.2371 12.4012 14.4129 12.2254C14.5887 12.0496 14.6875 11.8111 14.6875 11.5625C14.6875 11.3139 14.5887 11.0754 14.4129 10.8996C14.2371 10.7238 13.9986 10.625 13.75 10.625ZM17.8125 3.75V16.25C17.8125 16.6644 17.6479 17.0618 17.3549 17.3549C17.0618 17.6479 16.6644 17.8125 16.25 17.8125H3.75C3.3356 17.8125 2.93817 17.6479 2.64515 17.3549C2.35212 17.0618 2.1875 16.6644 2.1875 16.25V3.75C2.1875 3.3356 2.35212 2.93817 2.64515 2.64515C2.93817 2.35212 3.3356 2.1875 3.75 2.1875H16.25C16.6644 2.1875 17.0618 2.35212 17.3549 2.64515C17.6479 2.93817 17.8125 3.3356 17.8125 3.75ZM4.0625 15.9375H5.3125V4.0625H4.0625V15.9375ZM15.9375 4.0625H7.1875V15.9375H15.9375V4.0625Z" fill="#191F2E"/>
</svg>
