<svg width="20" height="20" viewBox="0 0 20 20" fill="none" xmlns="http://www.w3.org/2000/svg">
<path d="M18.1633 4.33671L15.6633 1.83671C15.5762 1.74931 15.4727 1.67997 15.3587 1.63265C15.2448 1.58533 15.1226 1.56097 14.9992 1.56097C14.8758 1.56097 14.7537 1.58533 14.6397 1.63265C14.5257 1.67997 14.4223 1.74931 14.3352 1.83671L6.83516 9.33671C6.65996 9.51294 6.56189 9.7515 6.5625 10V12.5C6.5625 12.7486 6.66127 12.9871 6.83709 13.1629C7.0129 13.3387 7.25136 13.4375 7.5 13.4375H10C10.1232 13.4376 10.2451 13.4134 10.3589 13.3664C10.4727 13.3193 10.5762 13.2503 10.6633 13.1633L18.1633 5.66328C18.2504 5.57621 18.3196 5.47281 18.3668 5.359C18.414 5.24519 18.4382 5.1232 18.4382 4.99999C18.4382 4.87679 18.414 4.7548 18.3668 4.64099C18.3196 4.52718 18.2504 4.42378 18.1633 4.33671ZM15 3.82812L16.1719 4.99999L15.3125 5.85937L14.1406 4.68749L15 3.82812ZM9.60938 11.5625H8.4375V10.3906L12.8125 6.01562L13.9844 7.1875L9.60938 11.5625ZM17.8125 10.357V16.25C17.8125 16.6644 17.6479 17.0618 17.3549 17.3548C17.0618 17.6479 16.6644 17.8125 16.25 17.8125H3.75C3.3356 17.8125 2.93817 17.6479 2.64515 17.3548C2.35212 17.0618 2.1875 16.6644 2.1875 16.25V3.74999C2.1875 3.33559 2.35212 2.93817 2.64515 2.64514C2.93817 2.35211 3.3356 2.18749 3.75 2.18749H9.64297C9.89161 2.18749 10.1301 2.28627 10.3059 2.46208C10.4817 2.6379 10.5805 2.87635 10.5805 3.12499C10.5805 3.37364 10.4817 3.61209 10.3059 3.78791C10.1301 3.96372 9.89161 4.06249 9.64297 4.06249H4.0625V15.9375H15.9375V10.357C15.9375 10.1084 16.0363 9.86993 16.2121 9.69411C16.3879 9.5183 16.6264 9.41953 16.875 9.41953C17.1236 9.41953 17.3621 9.5183 17.5379 9.69411C17.7137 9.86993 17.8125 10.1084 17.8125 10.357Z" fill="#191F2E"/>
</svg>
