<svg width="20" height="20" viewBox="0 0 20 20" fill="none" xmlns="http://www.w3.org/2000/svg">
<path d="M6.5625 8.4375C6.5625 8.18886 6.66127 7.9504 6.83709 7.77459C7.0129 7.59877 7.25136 7.5 7.5 7.5H12.5C12.7486 7.5 12.9871 7.59877 13.1629 7.77459C13.3387 7.9504 13.4375 8.18886 13.4375 8.4375C13.4375 8.68614 13.3387 8.9246 13.1629 9.10041C12.9871 9.27623 12.7486 9.375 12.5 9.375H7.5C7.25136 9.375 7.0129 9.27623 6.83709 9.10041C6.66127 8.9246 6.5625 8.68614 6.5625 8.4375ZM9.0625 10.625H7.5C7.25136 10.625 7.0129 10.7238 6.83709 10.8996C6.66127 11.0754 6.5625 11.3139 6.5625 11.5625C6.5625 11.8111 6.66127 12.0496 6.83709 12.2254C7.0129 12.4012 7.25136 12.5 7.5 12.5H9.0625C9.31114 12.5 9.5496 12.4012 9.72541 12.2254C9.90123 12.0496 10 11.8111 10 11.5625C10 11.3139 9.90123 11.0754 9.72541 10.8996C9.5496 10.7238 9.31114 10.625 9.0625 10.625ZM17.8125 3.75V12.2414C17.8131 12.4467 17.7729 12.65 17.6943 12.8396C17.6157 13.0293 17.5003 13.2014 17.3547 13.3461L13.3461 17.3547C13.2014 17.5003 13.0293 17.6157 12.8396 17.6943C12.65 17.7729 12.4467 17.8131 12.2414 17.8125H3.75C3.3356 17.8125 2.93817 17.6479 2.64515 17.3549C2.35212 17.0618 2.1875 16.6644 2.1875 16.25V3.75C2.1875 3.3356 2.35212 2.93817 2.64515 2.64515C2.93817 2.35212 3.3356 2.1875 3.75 2.1875H16.25C16.6644 2.1875 17.0618 2.35212 17.3549 2.64515C17.6479 2.93817 17.8125 3.3356 17.8125 3.75ZM4.0625 15.9375H11.25V12.1875C11.25 11.9389 11.3488 11.7004 11.5246 11.5246C11.7004 11.3488 11.9389 11.25 12.1875 11.25H15.9375V4.0625H4.0625V15.9375ZM14.9219 13.125H13.125V14.9219L14.9219 13.125Z" fill="#191F2E"/>
</svg>
