<svg width="20" height="20" viewBox="0 0 20 20" fill="none" xmlns="http://www.w3.org/2000/svg">
<path d="M17.1875 10.3125V16.25C17.1875 16.6644 17.0229 17.0618 16.7299 17.3549C16.4368 17.6479 16.0394 17.8125 15.625 17.8125H3.75C3.3356 17.8125 2.93817 17.6479 2.64515 17.3549C2.35212 17.0618 2.1875 16.6644 2.1875 16.25V4.375C2.1875 3.9606 2.35212 3.56317 2.64515 3.27015C2.93817 2.97712 3.3356 2.8125 3.75 2.8125H9.6875C9.93614 2.8125 10.1746 2.91127 10.3504 3.08709C10.5262 3.2629 10.625 3.50136 10.625 3.75C10.625 3.99864 10.5262 4.2371 10.3504 4.41291C10.1746 4.58873 9.93614 4.6875 9.6875 4.6875H4.0625V15.9375H15.3125V10.3125C15.3125 10.0639 15.4113 9.8254 15.5871 9.64959C15.7629 9.47377 16.0014 9.375 16.25 9.375C16.4986 9.375 16.7371 9.47377 16.9129 9.64959C17.0887 9.8254 17.1875 10.0639 17.1875 10.3125ZM18.4375 4.6875C18.4375 5.30557 18.2542 5.90975 17.9108 6.42366C17.5675 6.93756 17.0794 7.3381 16.5084 7.57462C15.9374 7.81115 15.309 7.87303 14.7028 7.75245C14.0967 7.63188 13.5398 7.33425 13.1028 6.89721C12.6658 6.46017 12.3681 5.90335 12.2475 5.29716C12.127 4.69097 12.1889 4.06263 12.4254 3.49161C12.6619 2.9206 13.0624 2.43254 13.5763 2.08916C14.0902 1.74578 14.6944 1.5625 15.3125 1.5625C16.1413 1.5625 16.9362 1.89174 17.5222 2.47779C18.1083 3.06384 18.4375 3.8587 18.4375 4.6875ZM16.5625 4.6875C16.5625 4.44027 16.4892 4.1986 16.3518 3.99304C16.2145 3.78748 16.0193 3.62726 15.7909 3.53265C15.5624 3.43804 15.3111 3.41329 15.0686 3.46152C14.8262 3.50975 14.6034 3.6288 14.4286 3.80362C14.2538 3.97843 14.1347 4.20116 14.0865 4.44364C14.0383 4.68611 14.063 4.93745 14.1576 5.16585C14.2523 5.39426 14.4125 5.58949 14.618 5.72684C14.8236 5.86419 15.0653 5.9375 15.3125 5.9375C15.644 5.9375 15.962 5.8058 16.1964 5.57138C16.4308 5.33696 16.5625 5.01902 16.5625 4.6875Z" fill="#191F2E"/>
</svg>
