<svg width="20" height="20" viewBox="0 0 20 20" fill="none" xmlns="http://www.w3.org/2000/svg">
<path d="M17.5 3.75C17.5 3.91576 17.4342 4.07473 17.3169 4.19194C17.1997 4.30915 17.0408 4.375 16.875 4.375H15.625V16.25C15.625 16.4158 15.5592 16.5747 15.4419 16.6919C15.3247 16.8092 15.1658 16.875 15 16.875H11.875C11.7633 16.8749 11.6536 16.8448 11.5574 16.788C11.4612 16.7311 11.382 16.6494 11.3281 16.5516L5.625 6.18359V15.625H6.875C7.04076 15.625 7.19973 15.6908 7.31694 15.8081C7.43415 15.9253 7.5 16.0842 7.5 16.25C7.5 16.4158 7.43415 16.5747 7.31694 16.6919C7.19973 16.8092 7.04076 16.875 6.875 16.875H3.125C2.95924 16.875 2.80027 16.8092 2.68306 16.6919C2.56585 16.5747 2.5 16.4158 2.5 16.25C2.5 16.0842 2.56585 15.9253 2.68306 15.8081C2.80027 15.6908 2.95924 15.625 3.125 15.625H4.375V4.375H3.125C2.95924 4.375 2.80027 4.30915 2.68306 4.19194C2.56585 4.07473 2.5 3.91576 2.5 3.75C2.5 3.58424 2.56585 3.42527 2.68306 3.30806C2.80027 3.19085 2.95924 3.125 3.125 3.125H8.125C8.23675 3.1251 8.34642 3.15516 8.4426 3.21204C8.53879 3.26893 8.61796 3.35056 8.67188 3.44844L14.375 13.8164V4.375H13.125C12.9592 4.375 12.8003 4.30915 12.6831 4.19194C12.5658 4.07473 12.5 3.91576 12.5 3.75C12.5 3.58424 12.5658 3.42527 12.6831 3.30806C12.8003 3.19085 12.9592 3.125 13.125 3.125H16.875C17.0408 3.125 17.1997 3.19085 17.3169 3.30806C17.4342 3.42527 17.5 3.58424 17.5 3.75Z" fill="#191F2E"/>
</svg>
