<svg width="20" height="20" viewBox="0 0 20 20" fill="none" xmlns="http://www.w3.org/2000/svg">
<path d="M16.875 2.8125H13.75C13.5014 2.8125 13.2629 2.91127 13.0871 3.08709C12.9113 3.2629 12.8125 3.50136 12.8125 3.75C12.8125 3.99864 12.9113 4.2371 13.0871 4.41291C13.2629 4.58873 13.5014 4.6875 13.75 4.6875H14.375V12.6L9.25859 3.29844C9.17776 3.15136 9.05892 3.02868 8.91449 2.9432C8.77006 2.85773 8.60533 2.81259 8.4375 2.8125H3.125C2.87636 2.8125 2.6379 2.91127 2.46209 3.08709C2.28627 3.2629 2.1875 3.50136 2.1875 3.75C2.1875 3.99864 2.28627 4.2371 2.46209 4.41291C2.6379 4.58873 2.87636 4.6875 3.125 4.6875H3.75V15.3125H3.125C2.87636 15.3125 2.6379 15.4113 2.46209 15.5871C2.28627 15.7629 2.1875 16.0014 2.1875 16.25C2.1875 16.4986 2.28627 16.7371 2.46209 16.9129C2.6379 17.0887 2.87636 17.1875 3.125 17.1875H6.25C6.49864 17.1875 6.7371 17.0887 6.91291 16.9129C7.08873 16.7371 7.1875 16.4986 7.1875 16.25C7.1875 16.0014 7.08873 15.7629 6.91291 15.5871C6.7371 15.4113 6.49864 15.3125 6.25 15.3125H5.625V7.4L10.7414 16.7016C10.8222 16.8486 10.9411 16.9713 11.0855 17.0568C11.2299 17.1423 11.3947 17.1874 11.5625 17.1875H15.3125C15.5611 17.1875 15.7996 17.0887 15.9754 16.9129C16.1512 16.7371 16.25 16.4986 16.25 16.25V4.6875H16.875C17.1236 4.6875 17.3621 4.58873 17.5379 4.41291C17.7137 4.2371 17.8125 3.99864 17.8125 3.75C17.8125 3.50136 17.7137 3.2629 17.5379 3.08709C17.3621 2.91127 17.1236 2.8125 16.875 2.8125ZM6.27344 4.6875H7.88281L13.7266 15.3125H12.1172L6.27344 4.6875Z" fill="#191F2E"/>
</svg>
