<svg width="20" height="20" viewBox="0 0 20 20" fill="none" xmlns="http://www.w3.org/2000/svg">
<path d="M15.625 1.875H4.375C4.04348 1.875 3.72554 2.0067 3.49112 2.24112C3.2567 2.47554 3.125 2.79348 3.125 3.125V16.875C3.125 17.2065 3.2567 17.5245 3.49112 17.7589C3.72554 17.9933 4.04348 18.125 4.375 18.125H15.625C15.9565 18.125 16.2745 17.9933 16.5089 17.7589C16.7433 17.5245 16.875 17.2065 16.875 16.875V3.125C16.875 2.79348 16.7433 2.47554 16.5089 2.24112C16.2745 2.0067 15.9565 1.875 15.625 1.875ZM13.125 11.875H12.5V14.375C12.5 14.5408 12.4342 14.6997 12.3169 14.8169C12.1997 14.9342 12.0408 15 11.875 15C11.7092 15 11.5503 14.9342 11.4331 14.8169C11.3158 14.6997 11.25 14.5408 11.25 14.375V11.875H6.875C6.77257 11.8752 6.67166 11.8502 6.58116 11.8022C6.49066 11.7542 6.41334 11.6847 6.356 11.5998C6.29866 11.5149 6.26307 11.4173 6.25235 11.3154C6.24163 11.2135 6.25612 11.1106 6.29453 11.0156L8.79453 4.76562C8.85669 4.61168 8.97746 4.48872 9.13027 4.42382C9.28309 4.35891 9.45543 4.35737 9.60938 4.41953C9.76332 4.48169 9.88628 4.60246 9.95118 4.75527C10.0161 4.90809 10.0176 5.08043 9.95547 5.23438L7.79844 10.625H11.25V8.125C11.25 7.95924 11.3158 7.80027 11.4331 7.68306C11.5503 7.56585 11.7092 7.5 11.875 7.5C12.0408 7.5 12.1997 7.56585 12.3169 7.68306C12.4342 7.80027 12.5 7.95924 12.5 8.125V10.625H13.125C13.2908 10.625 13.4497 10.6908 13.5669 10.8081C13.6842 10.9253 13.75 11.0842 13.75 11.25C13.75 11.4158 13.6842 11.5747 13.5669 11.6919C13.4497 11.8092 13.2908 11.875 13.125 11.875Z" fill="#191F2E"/>
</svg>
