<svg width="20" height="20" viewBox="0 0 20 20" fill="none" xmlns="http://www.w3.org/2000/svg">
<path d="M10 1.875C8.39303 1.875 6.82214 2.35152 5.486 3.24431C4.14985 4.1371 3.10844 5.40605 2.49348 6.8907C1.87852 8.37535 1.71762 10.009 2.03112 11.5851C2.34463 13.1612 3.11846 14.6089 4.25476 15.7452C5.39106 16.8815 6.8388 17.6554 8.4149 17.9689C9.99099 18.2824 11.6247 18.1215 13.1093 17.5065C14.594 16.8916 15.8629 15.8502 16.7557 14.514C17.6485 13.1779 18.125 11.607 18.125 10C18.1227 7.84581 17.266 5.78051 15.7427 4.25727C14.2195 2.73403 12.1542 1.87727 10 1.875ZM12.4625 7.08828L9.9625 13.9633C9.9187 14.0839 9.83882 14.1882 9.73371 14.2618C9.6286 14.3355 9.50336 14.375 9.375 14.375C9.30226 14.3752 9.23005 14.3625 9.16172 14.3375C9.08457 14.3095 9.01369 14.2666 8.95313 14.2112C8.89257 14.1558 8.84351 14.089 8.80876 14.0146C8.77401 13.9403 8.75425 13.8598 8.7506 13.7778C8.74695 13.6958 8.75949 13.6139 8.7875 13.5367L10.9828 7.5H8.125C7.95924 7.5 7.80027 7.43415 7.68306 7.31694C7.56585 7.19973 7.5 7.04076 7.5 6.875C7.5 6.70924 7.56585 6.55027 7.68306 6.43306C7.80027 6.31585 7.95924 6.25 8.125 6.25H11.875C11.9754 6.25 12.0744 6.2742 12.1635 6.32055C12.2526 6.36691 12.3292 6.43405 12.3868 6.5163C12.4445 6.59854 12.4815 6.69347 12.4946 6.79304C12.5078 6.8926 12.4968 6.99388 12.4625 7.08828Z" fill="#191F2E"/>
</svg>
