<svg width="20" height="20" viewBox="0 0 20 20" fill="none" xmlns="http://www.w3.org/2000/svg">
<path d="M11.25 3.74995V16.2499C11.25 16.4157 11.1842 16.5747 11.067 16.6919C10.9498 16.8091 10.7908 16.8749 10.625 16.8749C10.4593 16.8749 10.3003 16.8091 10.1831 16.6919C10.0659 16.5747 10 16.4157 10 16.2499V4.85386L7.82192 6.16089C7.67978 6.24625 7.50955 6.27166 7.34868 6.23151C7.18781 6.19137 7.04947 6.08896 6.96411 5.94682C6.87874 5.80469 6.85334 5.63446 6.89348 5.47358C6.93363 5.31271 7.03603 5.17438 7.17817 5.08901L10.3032 3.21401C10.398 3.15703 10.5063 3.12624 10.6169 3.12481C10.7276 3.12337 10.8366 3.15133 10.9329 3.20584C11.0292 3.26034 11.1093 3.33943 11.165 3.43503C11.2207 3.53063 11.2501 3.6393 11.25 3.74995Z" fill="#191F2E"/>
</svg>
