<svg width="20" height="20" viewBox="0 0 20 20" fill="none" xmlns="http://www.w3.org/2000/svg">
<path d="M15.625 1.875H4.375C4.04348 1.875 3.72554 2.0067 3.49112 2.24112C3.2567 2.47554 3.125 2.79348 3.125 3.125V16.875C3.125 17.2065 3.2567 17.5245 3.49112 17.7589C3.72554 17.9933 4.04348 18.125 4.375 18.125H15.625C15.9565 18.125 16.2745 17.9933 16.5089 17.7589C16.7433 17.5245 16.875 17.2065 16.875 16.875V3.125C16.875 2.79348 16.7433 2.47554 16.5089 2.24112C16.2745 2.0067 15.9565 1.875 15.625 1.875ZM11.25 14.375C11.25 14.5408 11.1842 14.6997 11.0669 14.8169C10.9497 14.9342 10.7908 15 10.625 15C10.4592 15 10.3003 14.9342 10.1831 14.8169C10.0658 14.6997 10 14.5408 10 14.375V6.63594L8.40469 7.43438C8.33123 7.4711 8.25126 7.493 8.16933 7.49883C8.08741 7.50465 8.00515 7.49428 7.92723 7.46831C7.84932 7.44234 7.77728 7.40127 7.71524 7.34746C7.65319 7.29365 7.60235 7.22815 7.56562 7.15469C7.5289 7.08123 7.507 7.00126 7.50117 6.91933C7.49535 6.83741 7.50572 6.75515 7.53169 6.67723C7.55766 6.59932 7.59873 6.52728 7.65254 6.46524C7.70635 6.40319 7.77185 6.35235 7.84531 6.31562L10.3453 5.06562C10.4406 5.01793 10.5466 4.9954 10.6531 5.00018C10.7595 5.00497 10.863 5.0369 10.9537 5.09296C11.0443 5.14902 11.1192 5.22733 11.171 5.32045C11.2229 5.41357 11.2501 5.51841 11.25 5.625V14.375Z" fill="#191F2E"/>
</svg>
