<svg width="20" height="20" viewBox="0 0 20 20" fill="none" xmlns="http://www.w3.org/2000/svg">
<path d="M15.625 1.875H4.375C4.04348 1.875 3.72554 2.0067 3.49112 2.24112C3.2567 2.47554 3.125 2.79348 3.125 3.125V16.875C3.125 17.2065 3.2567 17.5245 3.49112 17.7589C3.72554 17.9933 4.04348 18.125 4.375 18.125H15.625C15.9565 18.125 16.2745 17.9933 16.5089 17.7589C16.7433 17.5245 16.875 17.2065 16.875 16.875V3.125C16.875 2.79348 16.7433 2.47554 16.5089 2.24112C16.2745 2.0067 15.9565 1.875 15.625 1.875ZM12.9922 10.1266L10.3609 14.6875C10.2781 14.8311 10.1415 14.9359 9.98139 14.9788C9.82125 15.0217 9.65062 14.9993 9.50703 14.9164C9.36344 14.8335 9.25866 14.697 9.21573 14.5369C9.1728 14.3767 9.19524 14.2061 9.27813 14.0625L10.5687 11.8273C10.3808 11.8587 10.1906 11.8746 10 11.875C9.24363 11.8759 8.50803 11.6275 7.90695 11.1684C7.30588 10.7093 6.87281 10.0649 6.67472 9.3349C6.47662 8.60493 6.52453 7.83003 6.81104 7.13001C7.09755 6.43 7.6067 5.84388 8.25976 5.46228C8.91281 5.08067 9.6734 4.92485 10.4239 5.0189C11.1744 5.11294 11.873 5.45163 12.4117 5.98257C12.9504 6.51352 13.2992 7.20715 13.4041 7.95621C13.5091 8.70527 13.3643 9.46804 12.9922 10.1266ZM12.1875 8.4375C12.1875 8.87015 12.0592 9.29308 11.8188 9.65281C11.5785 10.0125 11.2368 10.2929 10.8371 10.4585C10.4374 10.6241 9.99757 10.6674 9.57324 10.583C9.14891 10.4986 8.75913 10.2902 8.4532 9.9843C8.14728 9.67837 7.93894 9.28859 7.85453 8.86426C7.77013 8.43993 7.81345 8.00009 7.97901 7.60038C8.14458 7.20067 8.42496 6.85903 8.78469 6.61866C9.14442 6.37829 9.56735 6.25 10 6.25C10.5802 6.25 11.1366 6.48047 11.5468 6.8907C11.957 7.30094 12.1875 7.85734 12.1875 8.4375Z" fill="#191F2E"/>
</svg>
