<svg width="20" height="20" viewBox="0 0 20 20" fill="none" xmlns="http://www.w3.org/2000/svg">
<path d="M10 1.5625C8.33122 1.5625 6.69992 2.05735 5.31238 2.98448C3.92484 3.9116 2.84338 5.22936 2.20477 6.77111C1.56616 8.31286 1.39907 10.0094 1.72463 11.6461C2.05019 13.2828 2.85379 14.7862 4.03379 15.9662C5.2138 17.1462 6.71721 17.9498 8.35393 18.2754C9.99064 18.6009 11.6871 18.4338 13.2289 17.7952C14.7706 17.1566 16.0884 16.0752 17.0155 14.6876C17.9427 13.3001 18.4375 11.6688 18.4375 10C18.435 7.763 17.5453 5.61833 15.9635 4.03653C14.3817 2.45473 12.237 1.56498 10 1.5625ZM10 16.5625C8.70206 16.5625 7.43327 16.1776 6.35407 15.4565C5.27488 14.7354 4.43374 13.7105 3.93704 12.5114C3.44034 11.3122 3.31038 9.99272 3.5636 8.71972C3.81682 7.44672 4.44183 6.27739 5.35962 5.35961C6.2774 4.44183 7.44672 3.81681 8.71972 3.5636C9.99272 3.31038 11.3122 3.44034 12.5114 3.93704C13.7105 4.43374 14.7354 5.27487 15.4565 6.35407C16.1776 7.43327 16.5625 8.70206 16.5625 10C16.5606 11.7399 15.8686 13.408 14.6383 14.6383C13.408 15.8686 11.7399 16.5606 10 16.5625ZM11.25 6.25V13.75C11.25 13.9986 11.1512 14.2371 10.9754 14.4129C10.7996 14.5887 10.5611 14.6875 10.3125 14.6875C10.0639 14.6875 9.82541 14.5887 9.64959 14.4129C9.47378 14.2371 9.375 13.9986 9.375 13.75V8.00156L8.95782 8.28125C8.75062 8.41925 8.49708 8.46928 8.25299 8.42034C8.0089 8.37141 7.79425 8.22751 7.65625 8.02031C7.51826 7.81311 7.46823 7.55958 7.51716 7.31549C7.5661 7.0714 7.70999 6.85675 7.91719 6.71875L9.79219 5.46875C9.93347 5.37449 10.0977 5.32038 10.2673 5.3122C10.437 5.30401 10.6056 5.34207 10.7553 5.42229C10.905 5.50251 11.0301 5.62189 11.1172 5.76767C11.2044 5.91345 11.2503 6.08017 11.25 6.25Z" fill="#191F2E"/>
</svg>
