<svg width="20" height="20" viewBox="0 0 20 20" fill="none" xmlns="http://www.w3.org/2000/svg">
<path d="M14.6875 7.5C14.6875 6.5729 14.4126 5.66662 13.8975 4.89577C13.3824 4.12491 12.6504 3.5241 11.7938 3.16932C10.9373 2.81453 9.9948 2.7217 9.08552 2.90257C8.17623 3.08344 7.341 3.52988 6.68544 4.18544C6.02988 4.841 5.58344 5.67623 5.40257 6.58552C5.2217 7.4948 5.31453 8.4373 5.66932 9.29383C6.0241 10.1504 6.62491 10.8824 7.39577 11.3975C8.16662 11.9126 9.0729 12.1875 10 12.1875C10.2041 12.1872 10.4079 12.1733 10.6102 12.1461L8.55781 15.7898C8.43577 16.0066 8.40483 16.2629 8.47178 16.5025C8.53874 16.742 8.69811 16.9451 8.91485 17.0672C9.13158 17.1892 9.38791 17.2202 9.62746 17.1532C9.86701 17.0863 10.0701 16.9269 10.1922 16.7102L14.0625 9.83516C14.4729 9.12541 14.6885 8.31985 14.6875 7.5ZM7.1875 7.5C7.1875 6.94374 7.35245 6.39997 7.66149 5.93746C7.97054 5.47495 8.40979 5.11446 8.9237 4.90159C9.43762 4.68872 10.0031 4.63302 10.5487 4.74154C11.0943 4.85006 11.5954 5.11793 11.9887 5.51126C12.3821 5.9046 12.6499 6.40574 12.7585 6.95131C12.867 7.49688 12.8113 8.06238 12.5984 8.5763C12.3855 9.09022 12.0251 9.52947 11.5625 9.83851C11.1 10.1476 10.5563 10.3125 10 10.3125C9.25408 10.3125 8.53871 10.0162 8.01126 9.48874C7.48382 8.96129 7.1875 8.24592 7.1875 7.5Z" fill="#191F2E"/>
</svg>
