<svg width="20" height="20" viewBox="0 0 20 20" fill="none" xmlns="http://www.w3.org/2000/svg">
<path d="M15.625 1.875H4.375C4.04348 1.875 3.72554 2.0067 3.49112 2.24112C3.2567 2.47554 3.125 2.79348 3.125 3.125V16.875C3.125 17.2065 3.2567 17.5245 3.49112 17.7589C3.72554 17.9933 4.04348 18.125 4.375 18.125H15.625C15.9565 18.125 16.2745 17.9933 16.5089 17.7589C16.7433 17.5245 16.875 17.2065 16.875 16.875V3.125C16.875 2.79348 16.7433 2.47554 16.5089 2.24112C16.2745 2.0067 15.9565 1.875 15.625 1.875ZM9.6875 8.125C10.2682 8.12502 10.8393 8.27212 11.3478 8.55259C11.8562 8.83306 12.2853 9.23775 12.595 9.7289C12.9048 10.2201 13.085 10.7817 13.119 11.3613C13.153 11.941 13.0396 12.5198 12.7894 13.0438C12.5392 13.5678 12.1603 14.0198 11.6881 14.3578C11.2159 14.6957 10.6658 14.9086 10.0892 14.9764C9.51248 15.0443 8.92801 14.965 8.39028 14.7459C7.85255 14.5268 7.37908 14.175 7.01406 13.7234C6.91237 13.5943 6.86564 13.4303 6.88399 13.267C6.90233 13.1037 6.98428 12.9541 7.11208 12.8508C7.23988 12.7474 7.40325 12.6986 7.56681 12.7148C7.73036 12.731 7.88094 12.811 7.98594 12.9375C8.2691 13.2879 8.65356 13.5424 9.08678 13.6661C9.52001 13.7898 9.98086 13.7767 10.4064 13.6287C10.8319 13.4806 11.2013 13.2047 11.4641 12.8388C11.727 12.4729 11.8704 12.0347 11.8748 11.5842C11.8792 11.1337 11.7444 10.6928 11.4889 10.3217C11.2333 9.9507 10.8694 9.66764 10.4468 9.51123C10.0243 9.35482 9.5638 9.33269 9.12823 9.44786C8.69266 9.56303 8.30327 9.80988 8.01328 10.1547C7.92545 10.2571 7.80682 10.3284 7.67512 10.3579C7.54342 10.3873 7.40573 10.3733 7.28264 10.318C7.15954 10.2627 7.05765 10.169 6.9922 10.051C6.92675 9.93302 6.90126 9.79699 6.91953 9.66328L7.50938 5.53672C7.53055 5.38829 7.60438 5.25242 7.71739 5.15389C7.8304 5.05536 7.97507 5.00075 8.125 5H12.5C12.6658 5 12.8247 5.06585 12.9419 5.18306C13.0592 5.30027 13.125 5.45924 13.125 5.625C13.125 5.79076 13.0592 5.94973 12.9419 6.06694C12.8247 6.18415 12.6658 6.25 12.5 6.25H8.66719L8.35938 8.39062C8.78009 8.21488 9.23156 8.12459 9.6875 8.125Z" fill="#191F2E"/>
</svg>
