<svg width="20" height="20" viewBox="0 0 20 20" fill="none" xmlns="http://www.w3.org/2000/svg">
<path d="M10 1.875C8.39303 1.875 6.82214 2.35152 5.486 3.24431C4.14985 4.1371 3.10844 5.40605 2.49348 6.8907C1.87852 8.37535 1.71762 10.009 2.03112 11.5851C2.34463 13.1612 3.11846 14.6089 4.25476 15.7452C5.39106 16.8815 6.8388 17.6554 8.4149 17.9689C9.99099 18.2824 11.6247 18.1215 13.1093 17.5065C14.594 16.8916 15.8629 15.8502 16.7557 14.514C17.6485 13.1779 18.125 11.607 18.125 10C18.1227 7.84581 17.266 5.78051 15.7427 4.25727C14.2195 2.73403 12.1542 1.87727 10 1.875ZM10 16.875C8.64026 16.875 7.31105 16.4718 6.18046 15.7164C5.04987 14.9609 4.16868 13.8872 3.64833 12.6309C3.12798 11.3747 2.99183 9.99237 3.2571 8.65875C3.52238 7.32513 4.17716 6.10013 5.13864 5.13864C6.10013 4.17716 7.32514 3.52237 8.65876 3.2571C9.99238 2.99183 11.3747 3.12798 12.631 3.64833C13.8872 4.16868 14.9609 5.04987 15.7164 6.18045C16.4718 7.31104 16.875 8.64025 16.875 10C16.8729 11.8227 16.1479 13.5702 14.8591 14.8591C13.5702 16.1479 11.8227 16.8729 10 16.875ZM11.7039 9.63984C12.0713 9.29769 12.3271 8.85286 12.4381 8.36328C12.5491 7.87369 12.5102 7.36202 12.3263 6.89488C12.1425 6.42775 11.8222 6.02678 11.4073 5.74418C10.9924 5.46158 10.502 5.31044 10 5.31044C9.49799 5.31044 9.0076 5.46158 8.59268 5.74418C8.17777 6.02678 7.85754 6.42775 7.67369 6.89488C7.48984 7.36202 7.45088 7.87369 7.56189 8.36328C7.67291 8.85286 7.92874 9.29769 8.2961 9.63984C7.82786 9.9964 7.48328 10.4909 7.31088 11.0536C7.13848 11.6163 7.14695 12.2189 7.3351 12.7766C7.52325 13.3342 7.8816 13.8188 8.35968 14.1621C8.83776 14.5053 9.41147 14.6899 10 14.6899C10.5885 14.6899 11.1623 14.5053 11.6403 14.1621C12.1184 13.8188 12.4768 13.3342 12.6649 12.7766C12.8531 12.2189 12.8615 11.6163 12.6891 11.0536C12.5167 10.4909 12.1721 9.9964 11.7039 9.63984ZM8.75 7.8125C8.75 7.56527 8.82331 7.3236 8.96067 7.11804C9.09802 6.91248 9.29324 6.75226 9.52165 6.65765C9.75006 6.56304 10.0014 6.53829 10.2439 6.58652C10.4863 6.63475 10.7091 6.7538 10.8839 6.92862C11.0587 7.10343 11.1778 7.32616 11.226 7.56864C11.2742 7.81111 11.2495 8.06245 11.1549 8.29085C11.0602 8.51926 10.9 8.71449 10.6945 8.85184C10.4889 8.98919 10.2472 9.0625 10 9.0625C9.66848 9.0625 9.35054 8.9308 9.11612 8.69638C8.8817 8.46196 8.75 8.14402 8.75 7.8125ZM10 13.4375C9.69097 13.4375 9.38888 13.3459 9.13193 13.1742C8.87497 13.0025 8.6747 12.7585 8.55644 12.4729C8.43818 12.1874 8.40724 11.8733 8.46753 11.5702C8.52782 11.2671 8.67663 10.9887 8.89515 10.7701C9.11367 10.5516 9.39208 10.4028 9.69517 10.3425C9.99827 10.2822 10.3124 10.3132 10.5979 10.4314C10.8835 10.5497 11.1275 10.75 11.2992 11.0069C11.4709 11.2639 11.5625 11.566 11.5625 11.875C11.5625 12.2894 11.3979 12.6868 11.1049 12.9799C10.8118 13.2729 10.4144 13.4375 10 13.4375Z" fill="#191F2E"/>
</svg>
