<svg width="20" height="20" viewBox="0 0 20 20" fill="none" xmlns="http://www.w3.org/2000/svg">
<path d="M16.25 2.1875H3.75C3.3356 2.1875 2.93817 2.35212 2.64515 2.64515C2.35212 2.93817 2.1875 3.3356 2.1875 3.75V16.25C2.1875 16.6644 2.35212 17.0618 2.64515 17.3549C2.93817 17.6479 3.3356 17.8125 3.75 17.8125H16.25C16.6644 17.8125 17.0618 17.6479 17.3549 17.3549C17.6479 17.0618 17.8125 16.6644 17.8125 16.25V3.75C17.8125 3.3356 17.6479 2.93817 17.3549 2.64515C17.0618 2.35212 16.6644 2.1875 16.25 2.1875ZM15.9375 15.9375H4.0625V4.0625H15.9375V15.9375ZM7.65625 8.02031C7.58777 7.91777 7.54019 7.80272 7.51625 7.68176C7.4923 7.5608 7.49245 7.4363 7.51669 7.31539C7.54092 7.19449 7.58878 7.07956 7.6575 6.97718C7.72622 6.87479 7.81447 6.78698 7.91719 6.71875L9.79219 5.46875C9.93346 5.37449 10.0977 5.32038 10.2673 5.3122C10.437 5.30401 10.6056 5.34207 10.7553 5.42229C10.905 5.50251 11.0301 5.62189 11.1172 5.76767C11.2044 5.91345 11.2503 6.08017 11.25 6.25V13.75C11.25 13.9986 11.1512 14.2371 10.9754 14.4129C10.7996 14.5887 10.5611 14.6875 10.3125 14.6875C10.0639 14.6875 9.8254 14.5887 9.64959 14.4129C9.47377 14.2371 9.375 13.9986 9.375 13.75V8.00156L8.95781 8.28125C8.85527 8.34973 8.74022 8.39731 8.61926 8.42125C8.4983 8.4452 8.3738 8.44505 8.25289 8.42081C8.13199 8.39658 8.01706 8.34872 7.91468 8.28C7.81229 8.21128 7.72448 8.12303 7.65625 8.02031Z" fill="#191F2E"/>
</svg>
