<svg width="20" height="20" viewBox="0 0 20 20" fill="none" xmlns="http://www.w3.org/2000/svg">
<path d="M16.25 2.1875H3.75C3.3356 2.1875 2.93817 2.35212 2.64515 2.64515C2.35212 2.93817 2.1875 3.3356 2.1875 3.75V16.25C2.1875 16.6644 2.35212 17.0618 2.64515 17.3549C2.93817 17.6479 3.3356 17.8125 3.75 17.8125H16.25C16.6644 17.8125 17.0618 17.6479 17.3549 17.3549C17.6479 17.0618 17.8125 16.6644 17.8125 16.25V3.75C17.8125 3.3356 17.6479 2.93817 17.3549 2.64515C17.0618 2.35212 16.6644 2.1875 16.25 2.1875ZM15.9375 15.9375H4.0625V4.0625H15.9375V15.9375ZM8.4375 11.1438C8.79666 11.3504 9.19349 11.4832 9.60469 11.5344L8.57031 13.2695C8.50357 13.3753 8.45867 13.4933 8.43824 13.6167C8.41782 13.7401 8.42228 13.8663 8.45138 13.9879C8.48047 14.1096 8.53361 14.2242 8.60765 14.3249C8.6817 14.4257 8.77516 14.5107 8.88254 14.5748C8.98991 14.6389 9.10903 14.6809 9.23288 14.6982C9.35672 14.7156 9.48279 14.708 9.60367 14.676C9.72454 14.6439 9.83777 14.5879 9.9367 14.5114C10.0356 14.4349 10.1182 14.3394 10.1797 14.2305L12.7063 10C13.0153 9.46474 13.1587 8.84986 13.1183 8.23311C13.0779 7.61636 12.8555 7.02544 12.4792 6.53509C12.103 6.04473 11.5898 5.67695 11.0045 5.47827C10.4193 5.27958 9.78822 5.25892 9.1912 5.41888C8.59419 5.57884 8.05802 5.91224 7.65049 6.37693C7.24296 6.84162 6.98239 7.41672 6.90171 8.02951C6.82103 8.64229 6.92388 9.26524 7.19725 9.81957C7.47062 10.3739 7.90223 10.8347 8.4375 11.1438ZM8.91719 7.8125C9.08295 7.52532 9.356 7.31575 9.67628 7.22989C9.99655 7.14404 10.3378 7.18893 10.625 7.35469C10.9122 7.52045 11.1217 7.7935 11.2076 8.11378C11.2935 8.43405 11.2486 8.77532 11.0828 9.0625C10.9125 9.34025 10.6404 9.54051 10.3246 9.62062C10.0088 9.70074 9.67416 9.65437 9.39203 9.49141C9.10989 9.32844 8.90254 9.06175 8.81413 8.74815C8.72573 8.43455 8.76327 8.09883 8.91875 7.8125H8.91719Z" fill="#191F2E"/>
</svg>
