<svg width="20" height="20" viewBox="0 0 20 20" fill="none" xmlns="http://www.w3.org/2000/svg">
<path d="M15.625 1.875H4.375C4.04348 1.875 3.72554 2.0067 3.49112 2.24112C3.2567 2.47554 3.125 2.79348 3.125 3.125V16.875C3.125 17.2065 3.2567 17.5245 3.49112 17.7589C3.72554 17.9933 4.04348 18.125 4.375 18.125H15.625C15.9565 18.125 16.2745 17.9933 16.5089 17.7589C16.7433 17.5245 16.875 17.2065 16.875 16.875V3.125C16.875 2.79348 16.7433 2.47554 16.5089 2.24112C16.2745 2.0067 15.9565 1.875 15.625 1.875ZM10 15C9.39964 14.9997 8.80982 14.8422 8.28926 14.5431C7.76869 14.244 7.33554 13.8138 7.03291 13.2953C6.73027 12.7768 6.56871 12.1881 6.56431 11.5877C6.55991 10.9874 6.71282 10.3963 7.00781 9.87344L9.63906 5.3125C9.72194 5.16891 9.85847 5.06413 10.0186 5.0212C10.1787 4.97827 10.3494 5.00071 10.493 5.08359C10.6366 5.16647 10.7413 5.303 10.7843 5.46314C10.8272 5.62328 10.8048 5.79391 10.7219 5.9375L9.43125 8.17266C9.61922 8.14131 9.80944 8.12537 10 8.125C10.9117 8.125 11.786 8.48716 12.4307 9.13182C13.0753 9.77648 13.4375 10.6508 13.4375 11.5625C13.4375 12.4742 13.0753 13.3485 12.4307 13.9932C11.786 14.6378 10.9117 15 10 15ZM12.1875 11.5625C12.1875 11.9951 12.0592 12.4181 11.8188 12.7778C11.5785 13.1375 11.2368 13.4179 10.8371 13.5835C10.4374 13.7491 9.99757 13.7924 9.57324 13.708C9.14891 13.6236 8.75913 13.4152 8.4532 13.1093C8.14728 12.8034 7.93894 12.4136 7.85453 11.9893C7.77013 11.5649 7.81345 11.1251 7.97901 10.7254C8.14458 10.3257 8.42496 9.98403 8.78469 9.74366C9.14442 9.50329 9.56735 9.375 10 9.375C10.5802 9.375 11.1366 9.60547 11.5468 10.0157C11.957 10.4259 12.1875 10.9823 12.1875 11.5625Z" fill="#191F2E"/>
</svg>
