<svg width="20" height="20" viewBox="0 0 20 20" fill="none" xmlns="http://www.w3.org/2000/svg">
<path d="M10 1.875C8.39303 1.875 6.82214 2.35152 5.486 3.24431C4.14985 4.1371 3.10844 5.40605 2.49348 6.8907C1.87852 8.37535 1.71762 10.009 2.03112 11.5851C2.34463 13.1612 3.11846 14.6089 4.25476 15.7452C5.39106 16.8815 6.8388 17.6554 8.4149 17.9689C9.99099 18.2824 11.6247 18.1215 13.1093 17.5065C14.594 16.8916 15.8629 15.8502 16.7557 14.514C17.6485 13.1779 18.125 11.607 18.125 10C18.1227 7.84581 17.266 5.78051 15.7427 4.25727C14.2195 2.73403 12.1542 1.87727 10 1.875ZM10.9375 13.75C10.9375 13.9158 10.8717 14.0747 10.7544 14.1919C10.6372 14.3092 10.4783 14.375 10.3125 14.375C10.1467 14.375 9.98777 14.3092 9.87056 14.1919C9.75335 14.0747 9.6875 13.9158 9.6875 13.75V7.42188L8.78438 8.02422C8.71605 8.06977 8.63942 8.10142 8.55886 8.11736C8.4783 8.13329 8.39539 8.13321 8.31486 8.1171C8.23434 8.101 8.15777 8.06919 8.08954 8.02349C8.02131 7.9778 7.96274 7.91911 7.91719 7.85078C7.87164 7.78245 7.83999 7.70582 7.82405 7.62526C7.80812 7.5447 7.8082 7.46179 7.82431 7.38127C7.84041 7.30074 7.87222 7.22418 7.91792 7.15594C7.96361 7.08771 8.0223 7.02915 8.09063 6.98359L9.96563 5.73359C10.0595 5.67096 10.1686 5.63491 10.2813 5.62927C10.394 5.62364 10.5061 5.64862 10.6058 5.70157C10.7054 5.75452 10.7889 5.83346 10.8473 5.93002C10.9057 6.02658 10.9369 6.13715 10.9375 6.25V13.75Z" fill="#191F2E"/>
</svg>
