<svg width="20" height="20" viewBox="0 0 20 20" fill="none" xmlns="http://www.w3.org/2000/svg">
<path d="M16.25 2.5H3.75C3.41848 2.5 3.10054 2.6317 2.86612 2.86612C2.6317 3.10054 2.5 3.41848 2.5 3.75V16.25C2.5 16.5815 2.6317 16.8995 2.86612 17.1339C3.10054 17.3683 3.41848 17.5 3.75 17.5H16.25C16.5815 17.5 16.8995 17.3683 17.1339 17.1339C17.3683 16.8995 17.5 16.5815 17.5 16.25V3.75C17.5 3.41848 17.3683 3.10054 17.1339 2.86612C16.8995 2.6317 16.5815 2.5 16.25 2.5ZM16.25 16.25H3.75V3.75H16.25V16.25ZM10 8.75C9.95234 8.75 9.90469 8.75 9.85781 8.75L11.1617 6.57031C11.2038 6.49983 11.2316 6.42175 11.2434 6.34054C11.2553 6.25932 11.2511 6.17656 11.231 6.09698C11.2109 6.01739 11.1753 5.94255 11.1263 5.87671C11.0773 5.81088 11.0158 5.75535 10.9453 5.71328C10.8748 5.67122 10.7968 5.64345 10.7155 5.63156C10.6343 5.61967 10.5516 5.62389 10.472 5.64399C10.3924 5.66408 10.3175 5.69966 10.2517 5.74868C10.1859 5.7977 10.1303 5.8592 10.0883 5.92969L7.57031 10.1484C7.2588 10.684 7.13286 11.3075 7.21205 11.922C7.29123 12.5365 7.57111 13.1076 8.00822 13.5467C8.44533 13.9858 9.0152 14.2683 9.62933 14.3503C10.2435 14.4323 10.8675 14.3091 11.4045 14.0001C11.9414 13.691 12.3613 13.2133 12.599 12.6411C12.8366 12.0689 12.8786 11.4342 12.7184 10.8357C12.5583 10.2371 12.2051 9.70824 11.7135 9.33109C11.2219 8.95395 10.6196 8.74967 10 8.75ZM10 13.125C9.69097 13.125 9.38887 13.0334 9.13192 12.8617C8.87497 12.69 8.6747 12.446 8.55644 12.1604C8.43818 11.8749 8.40723 11.5608 8.46752 11.2577C8.52781 10.9546 8.67663 10.6762 8.89515 10.4576C9.11367 10.2391 9.39208 10.0903 9.69517 10.03C9.99827 9.96973 10.3124 10.0007 10.5979 10.1189C10.8835 10.2372 11.1275 10.4375 11.2992 10.6944C11.4709 10.9514 11.5625 11.2535 11.5625 11.5625C11.5625 11.9769 11.3979 12.3743 11.1049 12.6674C10.8118 12.9604 10.4144 13.125 10 13.125Z" fill="#191F2E"/>
</svg>
