<svg width="20" height="20" viewBox="0 0 20 20" fill="none" xmlns="http://www.w3.org/2000/svg">
<path d="M10 1.5625C8.33122 1.5625 6.69992 2.05735 5.31238 2.98448C3.92484 3.9116 2.84338 5.22936 2.20477 6.77111C1.56616 8.31286 1.39907 10.0094 1.72463 11.6461C2.05019 13.2828 2.85379 14.7862 4.03379 15.9662C5.2138 17.1462 6.71721 17.9498 8.35393 18.2754C9.99064 18.6009 11.6871 18.4338 13.2289 17.7952C14.7706 17.1566 16.0884 16.0752 17.0155 14.6876C17.9427 13.3001 18.4375 11.6688 18.4375 10C18.435 7.763 17.5453 5.61833 15.9635 4.03653C14.3817 2.45473 12.237 1.56498 10 1.5625ZM10 16.5625C8.70206 16.5625 7.43327 16.1776 6.35407 15.4565C5.27488 14.7354 4.43374 13.7105 3.93704 12.5114C3.44034 11.3122 3.31038 9.99272 3.5636 8.71972C3.81682 7.44672 4.44183 6.27739 5.35962 5.35961C6.2774 4.44183 7.44672 3.81681 8.71972 3.5636C9.99272 3.31038 11.3122 3.44034 12.5114 3.93704C13.7105 4.43374 14.7354 5.27487 15.4565 6.35407C16.1776 7.43327 16.5625 8.70206 16.5625 10C16.5606 11.7399 15.8686 13.408 14.6383 14.6383C13.408 15.8686 11.7399 16.5606 10 16.5625ZM11.5625 5.73125C11.1619 5.49996 10.7149 5.36049 10.2538 5.32293C9.79273 5.28537 9.32907 5.35064 8.89628 5.51404C8.46349 5.67743 8.07238 5.93488 7.75117 6.26779C7.42997 6.6007 7.18668 7.00077 7.03887 7.43913C6.89106 7.87748 6.84242 8.34319 6.89645 8.80262C6.95048 9.26206 7.10585 9.70377 7.35133 10.0959C7.5968 10.488 7.92627 10.8207 8.31595 11.07C8.70563 11.3193 9.1458 11.479 9.60469 11.5375L8.57032 13.2695C8.50358 13.3753 8.45867 13.4933 8.43825 13.6167C8.41782 13.7401 8.42229 13.8663 8.45138 13.9879C8.48047 14.1096 8.53361 14.2242 8.60766 14.3249C8.6817 14.4257 8.77517 14.5107 8.88254 14.5748C8.98992 14.6389 9.10903 14.6809 9.23288 14.6982C9.35673 14.7156 9.4828 14.708 9.60367 14.676C9.72454 14.6439 9.83778 14.5879 9.9367 14.5114C10.0356 14.4349 10.1182 14.3394 10.1797 14.2305L12.7063 10C13.1206 9.28225 13.2329 8.42929 13.0184 7.62875C12.8039 6.82821 12.2802 6.14566 11.5625 5.73125ZM11.0828 9.0625C10.9592 9.27658 10.7749 9.44919 10.5532 9.55852C10.3314 9.66785 10.0823 9.70898 9.8372 9.67672C9.5921 9.64446 9.36208 9.54025 9.17621 9.37726C8.99034 9.21428 8.85697 8.99985 8.79296 8.76107C8.72896 8.52229 8.73718 8.2699 8.81661 8.0358C8.89603 7.8017 9.04309 7.59641 9.23918 7.44588C9.43527 7.29535 9.67159 7.20634 9.91826 7.19011C10.1649 7.17388 10.4109 7.23115 10.625 7.35469C10.912 7.52066 11.1212 7.79383 11.2068 8.11411C11.2924 8.43438 11.2472 8.77552 11.0813 9.0625H11.0828Z" fill="#191F2E"/>
</svg>
