<svg width="20" height="20" viewBox="0 0 20 20" fill="none" xmlns="http://www.w3.org/2000/svg">
<path d="M13.75 16.25C13.75 16.4158 13.6842 16.5747 13.5669 16.6919C13.4497 16.8092 13.2908 16.875 13.125 16.875H6.875C6.75893 16.875 6.64515 16.8427 6.54642 16.7817C6.44768 16.7206 6.36789 16.6333 6.31598 16.5295C6.26408 16.4257 6.2421 16.3095 6.25253 16.1939C6.26295 16.0783 6.30536 15.9679 6.375 15.875L11.9953 8.38125C12.1959 8.11935 12.3426 7.82034 12.4271 7.50147C12.5116 7.18259 12.5321 6.85015 12.4875 6.5233C12.4429 6.19645 12.3341 5.88165 12.1673 5.59706C12.0005 5.31247 11.779 5.0637 11.5156 4.8651C11.2522 4.66649 10.9521 4.52198 10.6326 4.43989C10.3131 4.3578 9.98052 4.33975 9.65401 4.38679C9.3275 4.43383 9.01353 4.54502 8.73019 4.71395C8.44686 4.88289 8.19975 5.10622 8.00313 5.3711C7.88558 5.52739 7.78649 5.69674 7.70781 5.87578C7.64141 6.02766 7.51738 6.14694 7.36303 6.20738C7.20868 6.26781 7.03664 6.26446 6.88477 6.19805C6.73289 6.13164 6.61361 6.00762 6.55317 5.85327C6.49274 5.69892 6.49609 5.52688 6.5625 5.375C6.77441 4.88994 7.0866 4.45523 7.47856 4.09947C7.87051 3.74371 8.33334 3.47496 8.83661 3.31089C9.33987 3.14683 9.87217 3.09117 10.3985 3.14757C10.9248 3.20398 11.4332 3.37117 11.8903 3.63815C12.3474 3.90513 12.7427 4.26585 13.0504 4.69659C13.3581 5.12733 13.5711 5.61832 13.6754 6.13728C13.7797 6.65623 13.7729 7.19139 13.6556 7.70755C13.5382 8.22371 13.313 8.70918 12.9945 9.13203L8.125 15.625H13.125C13.2908 15.625 13.4497 15.6909 13.5669 15.8081C13.6842 15.9253 13.75 16.0842 13.75 16.25Z" fill="#191F2E"/>
</svg>
