<svg width="20" height="20" viewBox="0 0 20 20" fill="none" xmlns="http://www.w3.org/2000/svg">
<path d="M12.6906 9.28985C13.3086 8.74359 13.7456 8.02218 13.9437 7.22153C14.1417 6.42088 14.0913 5.57892 13.7993 4.80758C13.5072 4.03624 12.9873 3.37206 12.3087 2.90335C11.63 2.43464 10.8248 2.18359 10 2.18359C9.17522 2.18359 8.36998 2.43464 7.69133 2.90335C7.01268 3.37206 6.49276 4.03624 6.20071 4.80758C5.90866 5.57892 5.85831 6.42088 6.05634 7.22153C6.25438 8.02218 6.69142 8.74359 7.30938 9.28985C6.49323 9.86195 5.88069 10.6793 5.56068 11.6232C5.24067 12.5671 5.22986 13.5885 5.52982 14.5389C5.82977 15.4894 6.42488 16.3196 7.22873 16.9088C8.03257 17.498 9.00331 17.8157 10 17.8157C10.9967 17.8157 11.9674 17.498 12.7713 16.9088C13.5751 16.3196 14.1702 15.4894 14.4702 14.5389C14.7701 13.5885 14.7593 12.5671 14.4393 11.6232C14.1193 10.6793 13.5068 9.86195 12.6906 9.28985ZM7.8125 6.25C7.8125 5.81736 7.94079 5.39443 8.18116 5.03469C8.42153 4.67496 8.76317 4.39459 9.16288 4.22902C9.56259 4.06345 10.0024 4.02013 10.4268 4.10454C10.8511 4.18894 11.2409 4.39728 11.5468 4.70321C11.8527 5.00914 12.0611 5.39891 12.1455 5.82324C12.2299 6.24758 12.1866 6.68741 12.021 7.08712C11.8554 7.48684 11.575 7.82848 11.2153 8.06884C10.8556 8.30921 10.4326 8.4375 10 8.4375C9.41984 8.4375 8.86344 8.20704 8.4532 7.7968C8.04297 7.38657 7.8125 6.83017 7.8125 6.25ZM10 15.9375C9.44374 15.9375 8.89997 15.7726 8.43746 15.4635C7.97495 15.1545 7.61446 14.7152 7.40159 14.2013C7.18872 13.6874 7.13302 13.1219 7.24154 12.5763C7.35006 12.0307 7.61793 11.5296 8.01126 11.1363C8.4046 10.7429 8.90574 10.4751 9.45131 10.3665C9.99688 10.258 10.5624 10.3137 11.0763 10.5266C11.5902 10.7395 12.0295 11.0999 12.3385 11.5625C12.6476 12.025 12.8125 12.5687 12.8125 13.125C12.8125 13.8709 12.5162 14.5863 11.9887 15.1137C11.4613 15.6412 10.7459 15.9375 10 15.9375Z" fill="#191F2E"/>
</svg>
