<svg width="20" height="20" viewBox="0 0 20 20" fill="none" xmlns="http://www.w3.org/2000/svg">
<path d="M13.75 12.5C13.7499 13.3445 13.5055 14.171 13.0461 14.8796C12.5867 15.5882 11.932 16.1488 11.1611 16.4936C10.3902 16.8383 9.53595 16.9526 8.7015 16.8226C7.86706 16.6926 7.08807 16.3239 6.45856 15.7609C6.39429 15.7072 6.34148 15.641 6.30329 15.5664C6.26509 15.4918 6.2423 15.4103 6.23625 15.3267C6.2302 15.2431 6.24103 15.1591 6.26808 15.0798C6.29514 15.0005 6.33787 14.9274 6.39374 14.865C6.44961 14.8025 6.51747 14.7519 6.59329 14.7162C6.66911 14.6805 6.75134 14.6604 6.83509 14.6571C6.91883 14.6538 7.00238 14.6674 7.08077 14.697C7.15916 14.7267 7.23078 14.7718 7.29138 14.8297C7.66897 15.1673 8.12295 15.408 8.61424 15.5312C9.10552 15.6544 9.61938 15.6563 10.1116 15.5368C10.6038 15.4173 11.0595 15.1799 11.4396 14.8451C11.8197 14.5104 12.1127 14.0883 12.2935 13.6151C12.4742 13.142 12.5372 12.632 12.4771 12.1291C12.417 11.6262 12.2355 11.1454 11.9484 10.7282C11.6612 10.311 11.2769 9.96981 10.8286 9.73408C10.3803 9.49836 9.88146 9.37512 9.37497 9.375C9.2589 9.375 9.14512 9.34268 9.04639 9.28166C8.94765 9.22063 8.86786 9.13332 8.81595 9.02951C8.76405 8.92569 8.74207 8.80947 8.7525 8.69387C8.76292 8.57827 8.80533 8.46786 8.87497 8.375L11.875 4.375H6.87497C6.70921 4.375 6.55024 4.30915 6.43303 4.19194C6.31582 4.07473 6.24997 3.91576 6.24997 3.75C6.24997 3.58424 6.31582 3.42527 6.43303 3.30806C6.55024 3.19085 6.70921 3.125 6.87497 3.125H13.125C13.241 3.125 13.3548 3.15732 13.4536 3.21834C13.5523 3.27936 13.6321 3.36668 13.684 3.47049C13.7359 3.57431 13.7579 3.69053 13.7474 3.80613C13.737 3.92173 13.6946 4.03214 13.625 4.125L10.5125 8.275C11.441 8.52637 12.261 9.07621 12.8461 9.83974C13.4311 10.6033 13.7488 11.5381 13.75 12.5Z" fill="#191F2E"/>
</svg>
