<svg width="20" height="20" viewBox="0 0 20 20" fill="none" xmlns="http://www.w3.org/2000/svg">
<path d="M10 1.875C8.39303 1.875 6.82214 2.35152 5.486 3.24431C4.14985 4.1371 3.10844 5.40605 2.49348 6.8907C1.87852 8.37535 1.71762 10.009 2.03112 11.5851C2.34463 13.1612 3.11846 14.6089 4.25476 15.7452C5.39106 16.8815 6.8388 17.6554 8.4149 17.9689C9.99099 18.2824 11.6247 18.1215 13.1093 17.5065C14.594 16.8916 15.8629 15.8502 16.7557 14.514C17.6485 13.1779 18.125 11.607 18.125 10C18.1227 7.84581 17.266 5.78051 15.7427 4.25727C14.2195 2.73403 12.1542 1.87727 10 1.875ZM12.5 11.875H11.875V13.75C11.875 13.9158 11.8092 14.0747 11.6919 14.1919C11.5747 14.3092 11.4158 14.375 11.25 14.375C11.0842 14.375 10.9253 14.3092 10.8081 14.1919C10.6909 14.0747 10.625 13.9158 10.625 13.75V11.875H7.5C7.40097 11.875 7.30334 11.8515 7.21518 11.8064C7.12702 11.7612 7.05085 11.6958 6.99294 11.6155C6.93503 11.5351 6.89704 11.4422 6.88211 11.3443C6.86717 11.2464 6.87571 11.1463 6.90703 11.0523L8.78203 5.42734C8.83446 5.27008 8.9472 5.14008 9.09548 5.06594C9.24375 4.99181 9.41539 4.97961 9.57266 5.03203C9.72992 5.08445 9.85992 5.1972 9.93406 5.34547C10.0082 5.49374 10.0204 5.66539 9.96797 5.82266L8.36719 10.625H10.625V8.75C10.625 8.58424 10.6909 8.42527 10.8081 8.30806C10.9253 8.19085 11.0842 8.125 11.25 8.125C11.4158 8.125 11.5747 8.19085 11.6919 8.30806C11.8092 8.42527 11.875 8.58424 11.875 8.75V10.625H12.5C12.6658 10.625 12.8247 10.6908 12.9419 10.8081C13.0592 10.9253 13.125 11.0842 13.125 11.25C13.125 11.4158 13.0592 11.5747 12.9419 11.6919C12.8247 11.8092 12.6658 11.875 12.5 11.875Z" fill="#191F2E"/>
</svg>
