<svg width="20" height="20" viewBox="0 0 20 20" fill="none" xmlns="http://www.w3.org/2000/svg">
<path d="M11.5625 11.875C11.5625 12.184 11.4709 12.4861 11.2992 12.7431C11.1275 13 10.8835 13.2003 10.5979 13.3186C10.3124 13.4368 9.99827 13.4678 9.69517 13.4075C9.39208 13.3472 9.11367 13.1984 8.89515 12.9799C8.67663 12.7613 8.52782 12.4829 8.46753 12.1798C8.40724 11.8767 8.43818 11.5626 8.55644 11.2771C8.6747 10.9915 8.87497 10.7475 9.13193 10.5758C9.38888 10.4041 9.69097 10.3125 10 10.3125C10.4144 10.3125 10.8118 10.4771 11.1049 10.7701C11.3979 11.0632 11.5625 11.4606 11.5625 11.875ZM10 9.0625C10.2472 9.0625 10.4889 8.98919 10.6945 8.85184C10.9 8.71449 11.0602 8.51926 11.1549 8.29085C11.2495 8.06245 11.2742 7.81111 11.226 7.56864C11.1778 7.32616 11.0587 7.10343 10.8839 6.92862C10.7091 6.7538 10.4863 6.63475 10.2439 6.58652C10.0014 6.53829 9.75006 6.56304 9.52165 6.65765C9.29324 6.75226 9.09802 6.91248 8.96067 7.11804C8.82331 7.3236 8.75 7.56527 8.75 7.8125C8.75 8.14402 8.8817 8.46196 9.11612 8.69638C9.35054 8.9308 9.66848 9.0625 10 9.0625ZM18.125 10C18.125 11.607 17.6485 13.1779 16.7557 14.514C15.8629 15.8502 14.594 16.8916 13.1093 17.5065C11.6247 18.1215 9.99099 18.2824 8.4149 17.9689C6.8388 17.6554 5.39106 16.8815 4.25476 15.7452C3.11846 14.6089 2.34463 13.1612 2.03112 11.5851C1.71762 10.009 1.87852 8.37535 2.49348 6.8907C3.10844 5.40605 4.14985 4.1371 5.486 3.24431C6.82214 2.35152 8.39303 1.875 10 1.875C12.1542 1.87727 14.2195 2.73403 15.7427 4.25727C17.266 5.78051 18.1227 7.84581 18.125 10ZM12.8125 11.875C12.8125 11.4422 12.7125 11.0152 12.5202 10.6275C12.3279 10.2397 12.0485 9.90172 11.7039 9.63984C12.0713 9.29769 12.3271 8.85286 12.4381 8.36328C12.5491 7.87369 12.5102 7.36202 12.3263 6.89488C12.1425 6.42775 11.8222 6.02678 11.4073 5.74418C10.9924 5.46158 10.502 5.31044 10 5.31044C9.49799 5.31044 9.0076 5.46158 8.59268 5.74418C8.17777 6.02678 7.85754 6.42775 7.67369 6.89488C7.48984 7.36202 7.45088 7.87369 7.56189 8.36328C7.67291 8.85286 7.92874 9.29769 8.2961 9.63984C7.91529 9.92982 7.6148 10.3122 7.42305 10.7507C7.2313 11.1893 7.15465 11.6695 7.20036 12.146C7.24606 12.6224 7.4126 13.0794 7.68421 13.4735C7.95583 13.8676 8.32353 14.1858 8.75252 14.3981C9.1815 14.6104 9.65757 14.7098 10.1357 14.6867C10.6137 14.6636 11.078 14.5189 11.4846 14.2662C11.8911 14.0136 12.2264 13.6614 12.4588 13.2429C12.6912 12.8245 12.8129 12.3536 12.8125 11.875Z" fill="#191F2E"/>
</svg>
