<svg width="20" height="20" viewBox="0 0 20 20" fill="none" xmlns="http://www.w3.org/2000/svg">
<path d="M16.25 2.1875H3.75C3.3356 2.1875 2.93817 2.35212 2.64515 2.64515C2.35212 2.93817 2.1875 3.3356 2.1875 3.75V16.25C2.1875 16.6644 2.35212 17.0618 2.64515 17.3549C2.93817 17.6479 3.3356 17.8125 3.75 17.8125H16.25C16.6644 17.8125 17.0618 17.6479 17.3549 17.3549C17.6479 17.0618 17.8125 16.6644 17.8125 16.25V3.75C17.8125 3.3356 17.6479 2.93817 17.3549 2.64515C17.0618 2.35212 16.6644 2.1875 16.25 2.1875ZM15.9375 15.9375H4.0625V4.0625H15.9375V15.9375ZM7.1875 6.875C7.1875 6.62636 7.28627 6.3879 7.46209 6.21209C7.6379 6.03627 7.87636 5.9375 8.125 5.9375H11.875C12.0257 5.93747 12.1742 5.97377 12.3079 6.04333C12.4416 6.11288 12.5565 6.21364 12.643 6.33706C12.7294 6.46048 12.7849 6.60293 12.8046 6.75233C12.8243 6.90173 12.8077 7.05368 12.7563 7.19531L10.2563 14.0703C10.2142 14.186 10.1497 14.2923 10.0666 14.3832C9.98344 14.474 9.88322 14.5475 9.77164 14.5996C9.66007 14.6517 9.53932 14.6813 9.41631 14.6867C9.29329 14.6922 9.17041 14.6733 9.05469 14.6313C8.93896 14.5892 8.83265 14.5247 8.74183 14.4416C8.65101 14.3584 8.57745 14.2582 8.52537 14.1466C8.47328 14.0351 8.44368 13.9143 8.43825 13.7913C8.43283 13.6683 8.45169 13.5454 8.49375 13.4297L10.5367 7.8125H8.125C7.87636 7.8125 7.6379 7.71373 7.46209 7.53791C7.28627 7.3621 7.1875 7.12364 7.1875 6.875Z" fill="#191F2E"/>
</svg>
