<svg width="20" height="20" viewBox="0 0 20 20" fill="none" xmlns="http://www.w3.org/2000/svg">
<path d="M10 5.625C8.88828 5.625 7.96875 6.12812 7.34375 7.07891C6.83828 7.84922 6.5625 8.88672 6.5625 10C6.5625 11.1133 6.84062 12.1508 7.34375 12.9211C7.96875 13.8719 8.88594 14.375 10 14.375C11.1141 14.375 12.0312 13.8719 12.6562 12.9211C13.1617 12.1508 13.4375 11.1133 13.4375 10C13.4375 8.88672 13.1594 7.84922 12.6562 7.07891C12.0312 6.12812 11.1117 5.625 10 5.625ZM10 13.125C8.27344 13.125 7.8125 11.1609 7.8125 10C7.8125 8.83906 8.27344 6.875 10 6.875C11.7266 6.875 12.1875 8.83906 12.1875 10C12.1875 11.1609 11.7266 13.125 10 13.125ZM16.25 2.5H3.75C3.41848 2.5 3.10054 2.6317 2.86612 2.86612C2.6317 3.10054 2.5 3.41848 2.5 3.75V16.25C2.5 16.5815 2.6317 16.8995 2.86612 17.1339C3.10054 17.3683 3.41848 17.5 3.75 17.5H16.25C16.5815 17.5 16.8995 17.3683 17.1339 17.1339C17.3683 16.8995 17.5 16.5815 17.5 16.25V3.75C17.5 3.41848 17.3683 3.10054 17.1339 2.86612C16.8995 2.6317 16.5815 2.5 16.25 2.5ZM16.25 16.25H3.75V3.75H16.25V16.25Z" fill="#191F2E"/>
</svg>
