<svg width="20" height="20" viewBox="0 0 20 20" fill="none" xmlns="http://www.w3.org/2000/svg">
<path d="M16.25 2.1875H3.75C3.3356 2.1875 2.93817 2.35212 2.64515 2.64515C2.35212 2.93817 2.1875 3.3356 2.1875 3.75V16.25C2.1875 16.6644 2.35212 17.0618 2.64515 17.3549C2.93817 17.6479 3.3356 17.8125 3.75 17.8125H16.25C16.6644 17.8125 17.0618 17.6479 17.3549 17.3549C17.6479 17.0618 17.8125 16.6644 17.8125 16.25V3.75C17.8125 3.3356 17.6479 2.93817 17.3549 2.64515C17.0618 2.35212 16.6644 2.1875 16.25 2.1875ZM15.9375 15.9375H4.0625V4.0625H15.9375V15.9375ZM6.73438 11.7914C6.64771 11.669 6.59169 11.5275 6.57102 11.3789C6.55036 11.2303 6.56565 11.0789 6.61562 10.9375L8.49062 5.625C8.57351 5.39045 8.74617 5.19843 8.97062 5.09118C9.19508 4.98393 9.45295 4.97024 9.6875 5.05312C9.92205 5.13601 10.1141 5.30867 10.2213 5.53312C10.3286 5.75758 10.3423 6.01545 10.2594 6.25L8.82812 10.3125H10.3125V9.0625C10.3125 8.81386 10.4113 8.5754 10.5871 8.39959C10.7629 8.22377 11.0014 8.125 11.25 8.125C11.4986 8.125 11.7371 8.22377 11.9129 8.39959C12.0887 8.5754 12.1875 8.81386 12.1875 9.0625V10.3125H12.5C12.7486 10.3125 12.9871 10.4113 13.1629 10.5871C13.3387 10.7629 13.4375 11.0014 13.4375 11.25C13.4375 11.4986 13.3387 11.7371 13.1629 11.9129C12.9871 12.0887 12.7486 12.1875 12.5 12.1875H12.1875V13.75C12.1875 13.9986 12.0887 14.2371 11.9129 14.4129C11.7371 14.5887 11.4986 14.6875 11.25 14.6875C11.0014 14.6875 10.7629 14.5887 10.5871 14.4129C10.4113 14.2371 10.3125 13.9986 10.3125 13.75V12.1875H7.5C7.35 12.1875 7.20219 12.1516 7.06896 12.0827C6.93574 12.0137 6.821 11.9139 6.73438 11.7914Z" fill="#191F2E"/>
</svg>
