<svg width="20" height="20" viewBox="0 0 20 20" fill="none" xmlns="http://www.w3.org/2000/svg">
<path d="M15.625 1.875H4.375C4.04348 1.875 3.72554 2.0067 3.49112 2.24112C3.2567 2.47554 3.125 2.79348 3.125 3.125V16.875C3.125 17.2065 3.2567 17.5245 3.49112 17.7589C3.72554 17.9933 4.04348 18.125 4.375 18.125H15.625C15.9565 18.125 16.2745 17.9933 16.5089 17.7589C16.7433 17.5245 16.875 17.2065 16.875 16.875V3.125C16.875 2.79348 16.7433 2.47554 16.5089 2.24112C16.2745 2.0067 15.9565 1.875 15.625 1.875ZM13.0883 5.83516L9.96328 14.5852C9.9376 14.6648 9.89617 14.7386 9.84145 14.8019C9.78673 14.8653 9.71984 14.917 9.64474 14.9541C9.56964 14.9911 9.48787 15.0126 9.40428 15.0174C9.32069 15.0222 9.23699 15.0102 9.15814 14.982C9.0793 14.9539 9.00691 14.9101 8.94529 14.8535C8.88367 14.7968 8.83406 14.7283 8.79942 14.6521C8.76477 14.5759 8.7458 14.4934 8.74362 14.4097C8.74143 14.3261 8.75609 14.2428 8.78672 14.1648L11.6133 6.25H7.5C7.33424 6.25 7.17527 6.18415 7.05806 6.06694C6.94085 5.94973 6.875 5.79076 6.875 5.625C6.875 5.45924 6.94085 5.30027 7.05806 5.18306C7.17527 5.06585 7.33424 5 7.5 5H12.5C12.6001 5.00005 12.6988 5.02416 12.7876 5.07029C12.8765 5.11642 12.953 5.18322 13.0106 5.26508C13.0683 5.34694 13.1054 5.44144 13.119 5.54065C13.1325 5.63986 13.1219 5.74086 13.0883 5.83516Z" fill="#191F2E"/>
</svg>
