<svg width="20" height="20" viewBox="0 0 20 20" fill="none" xmlns="http://www.w3.org/2000/svg">
<path d="M14.5797 4.76953C13.5047 3.08047 11.9234 2.19141 10 2.19141C8.07656 2.19141 6.49531 3.08047 5.42031 4.76953C4.54453 6.14531 4.0625 8.00312 4.0625 10C4.0625 11.9969 4.54453 13.8539 5.42031 15.2297C6.49531 16.9195 8.07891 17.8125 10 17.8125C11.9211 17.8125 13.5047 16.9195 14.5797 15.2297C15.4555 13.8539 15.9375 11.9969 15.9375 10C15.9375 8.00312 15.4555 6.14531 14.5797 4.76953ZM12.9977 14.2227C12.2742 15.3609 11.2656 15.9375 10 15.9375C8.73438 15.9375 7.72578 15.3609 7.00234 14.2234C6.31562 13.1445 5.9375 11.6445 5.9375 10C5.9375 8.35547 6.31562 6.85547 7.00234 5.77656C7.72578 4.63906 8.73438 4.0625 10 4.0625C11.2656 4.0625 12.2742 4.63906 12.9977 5.77656C13.6844 6.85547 14.0625 8.35938 14.0625 10C14.0625 11.6406 13.6844 13.1445 12.9977 14.2234V14.2227Z" fill="#191F2E"/>
</svg>
