<svg width="20" height="20" viewBox="0 0 20 20" fill="none" xmlns="http://www.w3.org/2000/svg">
<path d="M11.3539 9.21875C11.1995 9.48641 10.9691 9.70227 10.692 9.83902C10.4149 9.97578 10.1034 10.0273 9.79705 9.98704C9.49066 9.9468 9.20308 9.8166 8.97068 9.61292C8.73828 9.40924 8.57149 9.14122 8.49141 8.84275C8.41133 8.54428 8.42156 8.22877 8.52079 7.93611C8.62002 7.64346 8.8038 7.38679 9.0489 7.19858C9.294 7.01037 9.5894 6.89906 9.89775 6.87874C10.2061 6.85841 10.5136 6.92997 10.7812 7.08437C11.14 7.29171 11.4017 7.63305 11.5088 8.0333C11.6159 8.43356 11.5596 8.85997 11.3523 9.21875H11.3539ZM17.5 3.75V16.25C17.5 16.5815 17.3683 16.8995 17.1339 17.1339C16.8995 17.3683 16.5815 17.5 16.25 17.5H3.75C3.41848 17.5 3.10054 17.3683 2.86612 17.1339C2.6317 16.8995 2.5 16.5815 2.5 16.25V3.75C2.5 3.41848 2.6317 3.10054 2.86612 2.86612C3.10054 2.6317 3.41848 2.5 3.75 2.5H16.25C16.5815 2.5 16.8995 2.6317 17.1339 2.86612C17.3683 3.10054 17.5 3.41848 17.5 3.75ZM11.4062 6.00156C11.0328 5.78604 10.6148 5.65927 10.1846 5.63104C9.75434 5.60281 9.32337 5.67387 8.92497 5.83875C8.52657 6.00362 8.17141 6.25788 7.88694 6.58188C7.60247 6.90589 7.39629 7.29096 7.28436 7.70734C7.17242 8.12373 7.15772 8.56027 7.24138 8.98324C7.32505 9.40621 7.50484 9.80429 7.76686 10.1467C8.02889 10.4891 8.36613 10.7667 8.75253 10.958C9.13893 11.1493 9.56415 11.2492 9.99531 11.25C10.0443 11.25 10.0935 11.2484 10.143 11.2453L8.83828 13.4328C8.79585 13.5034 8.76778 13.5817 8.75569 13.6631C8.7436 13.7446 8.74773 13.8276 8.76784 13.9075C8.78795 13.9873 8.82364 14.0624 8.87287 14.1285C8.9221 14.1945 8.98389 14.2501 9.05469 14.2922C9.12527 14.3346 9.20353 14.3627 9.28499 14.3748C9.36646 14.3869 9.4495 14.3827 9.52936 14.3626C9.60922 14.3425 9.68432 14.3068 9.75034 14.2576C9.81636 14.2084 9.872 14.1466 9.91406 14.0758L12.4359 9.84375C12.8079 9.19747 12.9084 8.43006 12.7154 7.7098C12.5223 6.98954 12.0516 6.37522 11.4062 6.00156Z" fill="#191F2E"/>
</svg>
