<svg width="20" height="20" viewBox="0 0 20 20" fill="none" xmlns="http://www.w3.org/2000/svg">
<path d="M12.3187 6.90547C12.8391 7.69688 13.125 8.79609 13.125 10C13.125 11.2039 12.8391 12.3023 12.3187 13.0945C11.7617 13.9445 10.9812 14.375 10 14.375C9.01875 14.375 8.23828 13.9445 7.68125 13.0945C7.16094 12.3023 6.875 11.2039 6.875 10C6.875 8.79609 7.16094 7.69688 7.68125 6.90547C8.23828 6.05547 9.01875 5.625 10 5.625C10.9812 5.625 11.7617 6.05547 12.3187 6.90547ZM16.875 3.125V16.875C16.875 17.2065 16.7433 17.5245 16.5089 17.7589C16.2745 17.9933 15.9565 18.125 15.625 18.125H4.375C4.04348 18.125 3.72554 17.9933 3.49112 17.7589C3.2567 17.5245 3.125 17.2065 3.125 16.875V3.125C3.125 2.79348 3.2567 2.47554 3.49112 2.24112C3.72554 2.0067 4.04348 1.875 4.375 1.875H15.625C15.9565 1.875 16.2745 2.0067 16.5089 2.24112C16.7433 2.47554 16.875 2.79348 16.875 3.125ZM14.375 10C14.375 8.55547 14.0156 7.2125 13.3641 6.21953C12.5719 5.0125 11.4062 4.375 10 4.375C8.59375 4.375 7.42813 5.0125 6.63594 6.21953C5.98438 7.2125 5.625 8.55547 5.625 10C5.625 11.4445 5.98438 12.7875 6.63594 13.7805C7.42813 14.9875 8.59375 15.625 10 15.625C11.4062 15.625 12.5719 14.9875 13.3641 13.7805C14.0156 12.7875 14.375 11.4445 14.375 10Z" fill="#191F2E"/>
</svg>
