<svg width="20" height="20" viewBox="0 0 20 20" fill="none" xmlns="http://www.w3.org/2000/svg">
<path d="M16.25 2.5H3.75C3.41848 2.5 3.10054 2.6317 2.86612 2.86612C2.6317 3.10054 2.5 3.41848 2.5 3.75V16.25C2.5 16.5815 2.6317 16.8995 2.86612 17.1339C3.10054 17.3683 3.41848 17.5 3.75 17.5H16.25C16.5815 17.5 16.8995 17.3683 17.1339 17.1339C17.3683 16.8995 17.5 16.5815 17.5 16.25V3.75C17.5 3.41848 17.3683 3.10054 17.1339 2.86612C16.8995 2.6317 16.5815 2.5 16.25 2.5ZM12.4625 7.08828L9.9625 13.9633C9.9187 14.0839 9.83882 14.1882 9.73371 14.2618C9.62859 14.3355 9.50335 14.375 9.375 14.375C9.30225 14.3752 9.23005 14.3625 9.16172 14.3375C9.08457 14.3095 9.01369 14.2666 8.95312 14.2112C8.89256 14.1558 8.84351 14.089 8.80876 14.0146C8.77401 13.9403 8.75424 13.8598 8.7506 13.7778C8.74695 13.6958 8.75949 13.6139 8.7875 13.5367L10.9828 7.5H8.125C7.95924 7.5 7.80027 7.43415 7.68306 7.31694C7.56585 7.19973 7.5 7.04076 7.5 6.875C7.5 6.70924 7.56585 6.55027 7.68306 6.43306C7.80027 6.31585 7.95924 6.25 8.125 6.25H11.875C11.9754 6.25 12.0744 6.2742 12.1635 6.32055C12.2526 6.36691 12.3292 6.43405 12.3868 6.5163C12.4445 6.59854 12.4814 6.69347 12.4946 6.79304C12.5078 6.8926 12.4968 6.99388 12.4625 7.08828Z" fill="#191F2E"/>
</svg>
