<svg width="20" height="20" viewBox="0 0 20 20" fill="none" xmlns="http://www.w3.org/2000/svg">
<path d="M10 1.875C8.39303 1.875 6.82214 2.35152 5.486 3.24431C4.14985 4.1371 3.10844 5.40605 2.49348 6.8907C1.87852 8.37535 1.71762 10.009 2.03112 11.5851C2.34463 13.1612 3.11846 14.6089 4.25476 15.7452C5.39106 16.8815 6.8388 17.6554 8.4149 17.9689C9.99099 18.2824 11.6247 18.1215 13.1093 17.5065C14.594 16.8916 15.8629 15.8502 16.7557 14.514C17.6485 13.1779 18.125 11.607 18.125 10C18.1227 7.84581 17.266 5.78051 15.7427 4.25727C14.2195 2.73403 12.1542 1.87727 10 1.875ZM10 16.875C8.64026 16.875 7.31105 16.4718 6.18046 15.7164C5.04987 14.9609 4.16868 13.8872 3.64833 12.6309C3.12798 11.3747 2.99183 9.99237 3.2571 8.65875C3.52238 7.32513 4.17716 6.10013 5.13864 5.13864C6.10013 4.17716 7.32514 3.52237 8.65876 3.2571C9.99238 2.99183 11.3747 3.12798 12.631 3.64833C13.8872 4.16868 14.9609 5.04987 15.7164 6.18045C16.4718 7.31104 16.875 8.64025 16.875 10C16.8729 11.8227 16.1479 13.5702 14.8591 14.8591C13.5702 16.1479 11.8227 16.8729 10 16.875ZM10 8.75C9.95235 8.75 9.90469 8.75 9.85782 8.75L11.1617 6.57031C11.2038 6.49983 11.2316 6.42175 11.2434 6.34054C11.2553 6.25932 11.2511 6.17656 11.231 6.09698C11.2109 6.0174 11.1753 5.94255 11.1263 5.87671C11.0773 5.81088 11.0158 5.75535 10.9453 5.71328C10.8748 5.67122 10.7968 5.64345 10.7155 5.63156C10.6343 5.61967 10.5516 5.62389 10.472 5.64399C10.3924 5.66408 10.3176 5.69966 10.2517 5.74868C10.1859 5.7977 10.1303 5.8592 10.0883 5.92969L7.57032 10.1484C7.25881 10.684 7.13286 11.3075 7.21205 11.922C7.29124 12.5365 7.57112 13.1076 8.00823 13.5467C8.44534 13.9858 9.01521 14.2683 9.62934 14.3503C10.2435 14.4323 10.8675 14.3091 11.4045 14.0001C11.9415 13.691 12.3614 13.2133 12.599 12.6411C12.8366 12.0689 12.8786 11.4342 12.7184 10.8357C12.5583 10.2371 12.2051 9.70824 11.7135 9.33109C11.2219 8.95395 10.6196 8.74967 10 8.75ZM10 13.125C9.69097 13.125 9.38888 13.0334 9.13193 12.8617C8.87497 12.69 8.6747 12.446 8.55644 12.1604C8.43818 11.8749 8.40724 11.5608 8.46753 11.2577C8.52782 10.9546 8.67663 10.6762 8.89515 10.4576C9.11367 10.2391 9.39208 10.0903 9.69517 10.03C9.99827 9.96973 10.3124 10.0007 10.5979 10.1189C10.8835 10.2372 11.1275 10.4375 11.2992 10.6944C11.4709 10.9514 11.5625 11.2535 11.5625 11.5625C11.5625 11.9769 11.3979 12.3743 11.1049 12.6674C10.8118 12.9604 10.4144 13.125 10 13.125Z" fill="#191F2E"/>
</svg>
