<svg width="20" height="20" viewBox="0 0 20 20" fill="none" xmlns="http://www.w3.org/2000/svg">
<path d="M10 1.5625C8.33122 1.5625 6.69992 2.05735 5.31238 2.98448C3.92484 3.9116 2.84338 5.22936 2.20477 6.77111C1.56616 8.31286 1.39907 10.0094 1.72463 11.6461C2.05019 13.2828 2.85379 14.7862 4.03379 15.9662C5.2138 17.1462 6.71721 17.9498 8.35393 18.2754C9.99064 18.6009 11.6871 18.4338 13.2289 17.7952C14.7706 17.1566 16.0884 16.0752 17.0155 14.6876C17.9427 13.3001 18.4375 11.6688 18.4375 10C18.435 7.763 17.5453 5.61833 15.9635 4.03653C14.3817 2.45473 12.237 1.56498 10 1.5625ZM10 16.5625C8.70206 16.5625 7.43327 16.1776 6.35407 15.4565C5.27488 14.7354 4.43374 13.7105 3.93704 12.5114C3.44034 11.3122 3.31038 9.99272 3.5636 8.71972C3.81682 7.44672 4.44183 6.27739 5.35962 5.35961C6.2774 4.44183 7.44672 3.81681 8.71972 3.5636C9.99272 3.31038 11.3122 3.44034 12.5114 3.93704C13.7105 4.43374 14.7354 5.27487 15.4565 6.35407C16.1776 7.43327 16.5625 8.70206 16.5625 10C16.5606 11.7399 15.8686 13.408 14.6383 14.6383C13.408 15.8686 11.7399 16.5606 10 16.5625ZM13.4375 11.25C13.4375 11.4986 13.3387 11.7371 13.1629 11.9129C12.9871 12.0887 12.7486 12.1875 12.5 12.1875H12.1875V13.75C12.1875 13.9986 12.0887 14.2371 11.9129 14.4129C11.7371 14.5887 11.4986 14.6875 11.25 14.6875C11.0014 14.6875 10.7629 14.5887 10.5871 14.4129C10.4113 14.2371 10.3125 13.9986 10.3125 13.75V12.1875H7.5C7.34998 12.1876 7.20213 12.1517 7.06887 12.0827C6.93561 12.0138 6.82084 11.9139 6.73419 11.7915C6.64754 11.669 6.59155 11.5275 6.57092 11.3789C6.55029 11.2303 6.56562 11.0789 6.61563 10.9375L8.49063 5.625C8.57351 5.39045 8.74617 5.19843 8.97063 5.09118C9.19508 4.98393 9.45295 4.97024 9.6875 5.05312C9.92205 5.13601 10.1141 5.30867 10.2213 5.53312C10.3286 5.75758 10.3423 6.01545 10.2594 6.25L8.82813 10.3125H10.3125V9.0625C10.3125 8.81386 10.4113 8.5754 10.5871 8.39959C10.7629 8.22377 11.0014 8.125 11.25 8.125C11.4986 8.125 11.7371 8.22377 11.9129 8.39959C12.0887 8.5754 12.1875 8.81386 12.1875 9.0625V10.3125H12.5C12.7486 10.3125 12.9871 10.4113 13.1629 10.5871C13.3387 10.7629 13.4375 11.0014 13.4375 11.25Z" fill="#191F2E"/>
</svg>
