<svg width="20" height="20" viewBox="0 0 20 20" fill="none" xmlns="http://www.w3.org/2000/svg">
<path d="M15.625 1.875H4.375C4.04348 1.875 3.72554 2.0067 3.49112 2.24112C3.2567 2.47554 3.125 2.79348 3.125 3.125V16.875C3.125 17.2065 3.2567 17.5245 3.49112 17.7589C3.72554 17.9933 4.04348 18.125 4.375 18.125H15.625C15.9565 18.125 16.2745 17.9933 16.5089 17.7589C16.7433 17.5245 16.875 17.2065 16.875 16.875V3.125C16.875 2.79348 16.7433 2.47554 16.5089 2.24112C16.2745 2.0067 15.9565 1.875 15.625 1.875ZM12.5 13.75C12.6658 13.75 12.8247 13.8158 12.9419 13.9331C13.0592 14.0503 13.125 14.2092 13.125 14.375C13.125 14.5408 13.0592 14.6997 12.9419 14.8169C12.8247 14.9342 12.6658 15 12.5 15H7.5C7.37766 15 7.25802 14.9641 7.15589 14.8967C7.05377 14.8294 6.97367 14.7335 6.92551 14.621C6.87734 14.5086 6.86325 14.3845 6.88496 14.2641C6.90667 14.1437 6.96324 14.0323 7.04766 13.9437L11.3984 9.375C11.7079 9.00171 11.8607 8.52306 11.8248 8.03952C11.7889 7.55598 11.567 7.10515 11.2058 6.78167C10.8446 6.45819 10.3722 6.2872 9.88762 6.3046C9.40306 6.322 8.94409 6.52644 8.60703 6.875C8.5115 6.97908 8.42839 7.09391 8.35938 7.21719C8.27888 7.36223 8.14406 7.46935 7.98458 7.51499C7.8251 7.56063 7.65402 7.54104 7.50898 7.46055C7.36394 7.38005 7.25682 7.24523 7.21118 7.08575C7.16554 6.92627 7.18513 6.7552 7.26562 6.61016C7.38094 6.40302 7.51932 6.20961 7.67812 6.03359C8.2328 5.41769 9.00942 5.04736 9.83715 5.00406C10.6649 4.96077 11.4759 5.24806 12.0918 5.80273C12.7077 6.35741 13.078 7.13403 13.1213 7.96176C13.1646 8.78948 12.8773 9.6005 12.3227 10.2164L12.3102 10.2289L8.95781 13.75H12.5Z" fill="#191F2E"/>
</svg>
