<svg width="20" height="20" viewBox="0 0 20 20" fill="none" xmlns="http://www.w3.org/2000/svg">
<path d="M10 1.875C8.39303 1.875 6.82214 2.35152 5.486 3.24431C4.14985 4.1371 3.10844 5.40605 2.49348 6.8907C1.87852 8.37535 1.71762 10.009 2.03112 11.5851C2.34463 13.1612 3.11846 14.6089 4.25476 15.7452C5.39106 16.8815 6.8388 17.6554 8.4149 17.9689C9.99099 18.2824 11.6247 18.1215 13.1093 17.5065C14.594 16.8916 15.8629 15.8502 16.7557 14.514C17.6485 13.1779 18.125 11.607 18.125 10C18.1227 7.84581 17.266 5.78051 15.7427 4.25727C14.2195 2.73403 12.1542 1.87727 10 1.875ZM10 16.875C8.64026 16.875 7.31105 16.4718 6.18046 15.7164C5.04987 14.9609 4.16868 13.8872 3.64833 12.6309C3.12798 11.3747 2.99183 9.99237 3.2571 8.65875C3.52238 7.32513 4.17716 6.10013 5.13864 5.13864C6.10013 4.17716 7.32514 3.52237 8.65876 3.2571C9.99238 2.99183 11.3747 3.12798 12.631 3.64833C13.8872 4.16868 14.9609 5.04987 15.7164 6.18045C16.4718 7.31104 16.875 8.64025 16.875 10C16.8729 11.8227 16.1479 13.5702 14.8591 14.8591C13.5702 16.1479 11.8227 16.8729 10 16.875ZM11.9969 9.62969L9.375 13.125H11.875C12.0408 13.125 12.1997 13.1908 12.3169 13.3081C12.4342 13.4253 12.5 13.5842 12.5 13.75C12.5 13.9158 12.4342 14.0747 12.3169 14.1919C12.1997 14.3092 12.0408 14.375 11.875 14.375H8.125C8.00893 14.375 7.89516 14.3427 7.79642 14.2817C7.69769 14.2206 7.61789 14.1333 7.56599 14.0295C7.51408 13.9257 7.49211 13.8095 7.50253 13.6939C7.51295 13.5783 7.55536 13.4679 7.625 13.375L10.9977 8.87813C11.1057 8.73421 11.1813 8.56868 11.2194 8.39284C11.2576 8.217 11.2573 8.035 11.2186 7.85927C11.18 7.68355 11.1038 7.51824 10.9954 7.37465C10.887 7.23106 10.7488 7.11257 10.5904 7.02727C10.432 6.94197 10.257 6.89188 10.0775 6.88042C9.8979 6.86896 9.71798 6.8964 9.54999 6.96086C9.38201 7.02533 9.22993 7.1253 9.10413 7.25394C8.97833 7.38258 8.88179 7.53687 8.8211 7.70625C8.76578 7.86258 8.65062 7.99054 8.50095 8.06196C8.35129 8.13339 8.17938 8.14243 8.02305 8.08711C7.86672 8.03179 7.73877 7.91663 7.66734 7.76696C7.59591 7.6173 7.58687 7.4454 7.64219 7.28906C7.76276 6.94964 7.95525 6.64029 8.20648 6.38217C8.45771 6.12405 8.76174 5.92327 9.09778 5.79357C9.43381 5.66387 9.79391 5.60832 10.1534 5.63071C10.5129 5.65311 10.8633 5.75292 11.1807 5.92332C11.498 6.09372 11.7748 6.33068 11.992 6.61797C12.2093 6.90527 12.3619 7.23613 12.4394 7.58788C12.5169 7.93964 12.5175 8.30399 12.4411 8.656C12.3647 9.008 12.2132 9.33935 11.9969 9.62734V9.62969Z" fill="#191F2E"/>
</svg>
