<svg width="20" height="20" viewBox="0 0 20 20" fill="none" xmlns="http://www.w3.org/2000/svg">
<path d="M10 1.5625C8.33122 1.5625 6.69992 2.05735 5.31238 2.98448C3.92484 3.9116 2.84338 5.22936 2.20477 6.77111C1.56616 8.31286 1.39907 10.0094 1.72463 11.6461C2.05019 13.2828 2.85379 14.7862 4.03379 15.9662C5.2138 17.1462 6.71721 17.9498 8.35393 18.2754C9.99064 18.6009 11.6871 18.4338 13.2289 17.7952C14.7706 17.1566 16.0884 16.0752 17.0155 14.6876C17.9427 13.3001 18.4375 11.6688 18.4375 10C18.435 7.763 17.5453 5.61833 15.9635 4.03653C14.3817 2.45473 12.237 1.56498 10 1.5625ZM10 16.5625C8.70206 16.5625 7.43327 16.1776 6.35407 15.4565C5.27488 14.7354 4.43374 13.7105 3.93704 12.5114C3.44034 11.3122 3.31038 9.99272 3.5636 8.71972C3.81682 7.44672 4.44183 6.27739 5.35962 5.35961C6.2774 4.44183 7.44672 3.81681 8.71972 3.5636C9.99272 3.31038 11.3122 3.44034 12.5114 3.93704C13.7105 4.43374 14.7354 5.27487 15.4565 6.35407C16.1776 7.43327 16.5625 8.70206 16.5625 10C16.5606 11.7399 15.8686 13.408 14.6383 14.6383C13.408 15.8686 11.7399 16.5606 10 16.5625ZM10.3953 8.46328L11.4297 6.73047C11.4964 6.62471 11.5413 6.50666 11.5618 6.38328C11.5822 6.2599 11.5777 6.13368 11.5486 6.01205C11.5195 5.89043 11.4664 5.77585 11.3924 5.67507C11.3183 5.57429 11.2248 5.48934 11.1175 5.42523C11.0101 5.36111 10.891 5.31913 10.7671 5.30175C10.6433 5.28438 10.5172 5.29195 10.3963 5.32404C10.2755 5.35612 10.1622 5.41206 10.0633 5.48857C9.96438 5.56508 9.88176 5.66061 9.82032 5.76953L7.30157 9.98828C6.96324 10.5684 6.82082 11.2421 6.89541 11.9096C6.96999 12.577 7.25761 13.2027 7.71564 13.6938C8.17368 14.185 8.77776 14.5155 9.43838 14.6365C10.099 14.7574 10.781 14.6623 11.3833 14.3652C11.9856 14.0682 12.4762 13.585 12.7824 12.9872C13.0886 12.3895 13.1941 11.709 13.0832 11.0466C12.9723 10.3843 12.651 9.77523 12.1669 9.30978C11.6827 8.84433 11.0615 8.54723 10.3953 8.4625V8.46328ZM10 12.8125C9.75278 12.8125 9.5111 12.7392 9.30554 12.6018C9.09998 12.4645 8.93976 12.2693 8.84515 12.0409C8.75054 11.8124 8.72579 11.5611 8.77402 11.3186C8.82225 11.0762 8.9413 10.8534 9.11612 10.6786C9.29094 10.5038 9.51366 10.3847 9.75614 10.3365C9.99862 10.2883 10.25 10.313 10.4784 10.4076C10.7068 10.5023 10.902 10.6625 11.0393 10.868C11.1767 11.0736 11.25 11.3153 11.25 11.5625C11.25 11.894 11.1183 12.212 10.8839 12.4464C10.6495 12.6808 10.3315 12.8125 10 12.8125Z" fill="#191F2E"/>
</svg>
