<svg width="20" height="20" viewBox="0 0 20 20" fill="none" xmlns="http://www.w3.org/2000/svg">
<path d="M15.625 1.875H4.375C4.04348 1.875 3.72554 2.0067 3.49112 2.24112C3.2567 2.47554 3.125 2.79348 3.125 3.125V16.875C3.125 17.2065 3.2567 17.5245 3.49112 17.7589C3.72554 17.9933 4.04348 18.125 4.375 18.125H15.625C15.9565 18.125 16.2745 17.9933 16.5089 17.7589C16.7433 17.5245 16.875 17.2065 16.875 16.875V3.125C16.875 2.79348 16.7433 2.47554 16.5089 2.24112C16.2745 2.0067 15.9565 1.875 15.625 1.875ZM9.6875 15C9.17475 15.0009 8.66836 14.8866 8.20565 14.6657C7.74295 14.4447 7.33574 14.1227 7.01406 13.7234C6.91237 13.5943 6.86564 13.4303 6.88399 13.267C6.90233 13.1037 6.98428 12.9541 7.11208 12.8508C7.23988 12.7474 7.40325 12.6986 7.56681 12.7148C7.73036 12.731 7.88094 12.811 7.98594 12.9375C8.21406 13.2197 8.5088 13.4407 8.84361 13.5807C9.17842 13.7206 9.54279 13.775 9.90388 13.7391C10.265 13.7031 10.6115 13.5779 10.9121 13.3747C11.2127 13.1715 11.4581 12.8967 11.6261 12.5751C11.7941 12.2534 11.8795 11.895 11.8744 11.5322C11.8694 11.1693 11.7742 10.8134 11.5974 10.4965C11.4206 10.1797 11.1678 9.91172 10.8616 9.71689C10.5555 9.52206 10.2057 9.40645 9.84375 9.38047C9.72903 9.37232 9.61878 9.33267 9.52514 9.26589C9.4315 9.19911 9.3581 9.10778 9.31303 9.00197C9.26796 8.89615 9.25296 8.77995 9.26968 8.66616C9.2864 8.55237 9.3342 8.4454 9.40781 8.35703L11.1641 6.24766H7.5C7.33424 6.24766 7.17527 6.18181 7.05806 6.0646C6.94085 5.94739 6.875 5.78842 6.875 5.62266C6.875 5.4569 6.94085 5.29792 7.05806 5.18071C7.17527 5.0635 7.33424 4.99766 7.5 4.99766H12.5C12.6188 4.99761 12.7351 5.03143 12.8354 5.09514C12.9357 5.15885 13.0157 5.24982 13.0661 5.35739C13.1166 5.46495 13.1353 5.58466 13.1201 5.70249C13.1049 5.82031 13.0565 5.93137 12.9805 6.02266L11.0094 8.3875C11.7441 8.69238 12.3504 9.24264 12.7248 9.94448C13.0992 10.6463 13.2186 11.4563 13.0627 12.2363C12.9068 13.0164 12.4851 13.7182 11.8697 14.2222C11.2542 14.7261 10.483 15.001 9.6875 15Z" fill="#191F2E"/>
</svg>
