<svg width="20" height="20" viewBox="0 0 20 20" fill="none" xmlns="http://www.w3.org/2000/svg">
<path d="M16.25 2.5H3.75C3.41848 2.5 3.10054 2.6317 2.86612 2.86612C2.6317 3.10054 2.5 3.41848 2.5 3.75V16.25C2.5 16.5815 2.6317 16.8995 2.86612 17.1339C3.10054 17.3683 3.41848 17.5 3.75 17.5H16.25C16.5815 17.5 16.8995 17.3683 17.1339 17.1339C17.3683 16.8995 17.5 16.5815 17.5 16.25V3.75C17.5 3.41848 17.3683 3.10054 17.1339 2.86612C16.8995 2.6317 16.5815 2.5 16.25 2.5ZM16.25 16.25H3.75V3.75H16.25V16.25ZM11.7039 9.63984C12.0713 9.29769 12.3271 8.85286 12.4381 8.36328C12.5491 7.87369 12.5102 7.36202 12.3263 6.89488C12.1425 6.42775 11.8222 6.02678 11.4073 5.74418C10.9924 5.46158 10.502 5.31044 10 5.31044C9.49799 5.31044 9.0076 5.46158 8.59268 5.74418C8.17776 6.02678 7.85753 6.42775 7.67368 6.89488C7.48983 7.36202 7.45088 7.87369 7.56189 8.36328C7.6729 8.85286 7.92874 9.29769 8.29609 9.63984C7.82786 9.9964 7.48327 10.4909 7.31087 11.0536C7.13847 11.6163 7.14695 12.2189 7.3351 12.7766C7.52325 13.3342 7.8816 13.8188 8.35968 14.1621C8.83775 14.5053 9.41146 14.6899 10 14.6899C10.5885 14.6899 11.1622 14.5053 11.6403 14.1621C12.1184 13.8188 12.4768 13.3342 12.6649 12.7766C12.8531 12.2189 12.8615 11.6163 12.6891 11.0536C12.5167 10.4909 12.1721 9.9964 11.7039 9.63984ZM8.75 7.8125C8.75 7.56527 8.82331 7.3236 8.96066 7.11804C9.09801 6.91248 9.29324 6.75226 9.52165 6.65765C9.75005 6.56304 10.0014 6.53829 10.2439 6.58652C10.4863 6.63475 10.7091 6.7538 10.8839 6.92862C11.0587 7.10343 11.1778 7.32616 11.226 7.56864C11.2742 7.81111 11.2495 8.06245 11.1549 8.29085C11.0602 8.51926 10.9 8.71449 10.6945 8.85184C10.4889 8.98919 10.2472 9.0625 10 9.0625C9.66848 9.0625 9.35054 8.9308 9.11612 8.69638C8.8817 8.46196 8.75 8.14402 8.75 7.8125ZM10 13.4375C9.69097 13.4375 9.38887 13.3459 9.13192 13.1742C8.87497 13.0025 8.6747 12.7585 8.55644 12.4729C8.43818 12.1874 8.40723 11.8733 8.46752 11.5702C8.52781 11.2671 8.67663 10.9887 8.89515 10.7701C9.11367 10.5516 9.39208 10.4028 9.69517 10.3425C9.99827 10.2822 10.3124 10.3132 10.5979 10.4314C10.8835 10.5497 11.1275 10.75 11.2992 11.0069C11.4709 11.2639 11.5625 11.566 11.5625 11.875C11.5625 12.2894 11.3979 12.6868 11.1049 12.9799C10.8118 13.2729 10.4144 13.4375 10 13.4375Z" fill="#191F2E"/>
</svg>
