<svg width="20" height="20" viewBox="0 0 20 20" fill="none" xmlns="http://www.w3.org/2000/svg">
<path d="M16.25 2.5H3.75C3.41848 2.5 3.10054 2.6317 2.86612 2.86612C2.6317 3.10054 2.5 3.41848 2.5 3.75V16.25C2.5 16.5815 2.6317 16.8995 2.86612 17.1339C3.10054 17.3683 3.41848 17.5 3.75 17.5H16.25C16.5815 17.5 16.8995 17.3683 17.1339 17.1339C17.3683 16.8995 17.5 16.5815 17.5 16.25V3.75C17.5 3.41848 17.3683 3.10054 17.1339 2.86612C16.8995 2.6317 16.5815 2.5 16.25 2.5ZM11.875 13.125C12.0408 13.125 12.1997 13.1908 12.3169 13.3081C12.4342 13.4253 12.5 13.5842 12.5 13.75C12.5 13.9158 12.4342 14.0747 12.3169 14.1919C12.1997 14.3092 12.0408 14.375 11.875 14.375H8.125C8.00893 14.375 7.89515 14.3427 7.79642 14.2817C7.69768 14.2206 7.61789 14.1333 7.56598 14.0295C7.51407 13.9257 7.4921 13.8095 7.50253 13.6939C7.51295 13.5783 7.55536 13.4679 7.625 13.375L10.9977 8.87813C11.1056 8.73421 11.1813 8.56868 11.2194 8.39284C11.2576 8.217 11.2573 8.035 11.2186 7.85927C11.18 7.68355 11.1038 7.51824 10.9954 7.37465C10.887 7.23106 10.7488 7.11257 10.5904 7.02727C10.432 6.94197 10.257 6.89188 10.0775 6.88042C9.89789 6.86896 9.71797 6.8964 9.54999 6.96086C9.38201 7.02533 9.22992 7.1253 9.10412 7.25394C8.97833 7.38258 8.88178 7.53687 8.82109 7.70625C8.76577 7.86258 8.65061 7.99054 8.50095 8.06196C8.35129 8.13339 8.17938 8.14243 8.02305 8.08711C7.86671 8.03179 7.73876 7.91663 7.66734 7.76696C7.59591 7.6173 7.58686 7.4454 7.64219 7.28906C7.76275 6.94964 7.95524 6.64029 8.20647 6.38217C8.4577 6.12405 8.76174 5.92327 9.09778 5.79357C9.43381 5.66387 9.7939 5.60832 10.1534 5.63071C10.5129 5.65311 10.8633 5.75292 11.1807 5.92332C11.498 6.09372 11.7748 6.33068 11.992 6.61797C12.2093 6.90527 12.3619 7.23613 12.4394 7.58788C12.5169 7.93964 12.5175 8.30399 12.4411 8.656C12.3647 9.008 12.2132 9.33935 11.9969 9.62734L9.375 13.125H11.875Z" fill="#191F2E"/>
</svg>
