<svg width="20" height="20" viewBox="0 0 20 20" fill="none" xmlns="http://www.w3.org/2000/svg">
<path d="M10 1.5625C8.33122 1.5625 6.69992 2.05735 5.31238 2.98448C3.92484 3.9116 2.84338 5.22936 2.20477 6.77111C1.56616 8.31286 1.39907 10.0094 1.72463 11.6461C2.05019 13.2828 2.85379 14.7862 4.03379 15.9662C5.2138 17.1462 6.71721 17.9498 8.35393 18.2754C9.99064 18.6009 11.6871 18.4338 13.2289 17.7952C14.7706 17.1566 16.0884 16.0752 17.0155 14.6876C17.9427 13.3001 18.4375 11.6688 18.4375 10C18.435 7.763 17.5453 5.61833 15.9635 4.03653C14.3817 2.45473 12.237 1.56498 10 1.5625ZM10 16.5625C8.70206 16.5625 7.43327 16.1776 6.35407 15.4565C5.27488 14.7354 4.43374 13.7105 3.93704 12.5114C3.44034 11.3122 3.31038 9.99272 3.5636 8.71972C3.81682 7.44672 4.44183 6.27739 5.35962 5.35961C6.2774 4.44183 7.44672 3.81681 8.71972 3.5636C9.99272 3.31038 11.3122 3.44034 12.5114 3.93704C13.7105 4.43374 14.7354 5.27487 15.4565 6.35407C16.1776 7.43327 16.5625 8.70206 16.5625 10C16.5606 11.7399 15.8686 13.408 14.6383 14.6383C13.408 15.8686 11.7399 16.5606 10 16.5625ZM12.1563 9.61641C12.4998 9.20613 12.7192 8.70635 12.7887 8.17573C12.8582 7.64512 12.7748 7.1057 12.5484 6.62081C12.322 6.13591 11.962 5.72567 11.5106 5.43825C11.0592 5.15083 10.5351 4.99815 10 4.99815C9.46486 4.99815 8.94083 5.15083 8.48942 5.43825C8.03802 5.72567 7.67798 6.13591 7.45159 6.62081C7.22519 7.1057 7.14183 7.64512 7.2113 8.17573C7.28076 8.70635 7.50017 9.20613 7.84375 9.61641C7.39178 10.0473 7.07926 10.6036 6.94647 11.2138C6.81369 11.8239 6.86674 12.4599 7.09879 13.0396C7.33084 13.6193 7.73123 14.1162 8.24835 14.4662C8.76546 14.8162 9.37557 15.0033 10 15.0033C10.6244 15.0033 11.2345 14.8162 11.7517 14.4662C12.2688 14.1162 12.6692 13.6193 12.9012 13.0396C13.1333 12.4599 13.1863 11.8239 13.0535 11.2138C12.9208 10.6036 12.6082 10.0473 12.1563 9.61641ZM9.0625 7.8125C9.0625 7.62708 9.11749 7.44582 9.2205 7.29165C9.32351 7.13748 9.46993 7.01732 9.64124 6.94636C9.81254 6.87541 10.001 6.85684 10.1829 6.89301C10.3648 6.92919 10.5318 7.01848 10.6629 7.14959C10.794 7.2807 10.8833 7.44775 10.9195 7.6296C10.9557 7.81146 10.9371 7.99996 10.8661 8.17127C10.7952 8.34257 10.675 8.48899 10.5209 8.592C10.3667 8.69502 10.1854 8.75 10 8.75C9.75136 8.75 9.51291 8.65123 9.33709 8.47541C9.16128 8.2996 9.0625 8.06114 9.0625 7.8125ZM10 13.125C9.75278 13.125 9.5111 13.0517 9.30554 12.9143C9.09998 12.777 8.93976 12.5818 8.84515 12.3534C8.75054 12.1249 8.72579 11.8736 8.77402 11.6311C8.82225 11.3887 8.9413 11.1659 9.11612 10.9911C9.29094 10.8163 9.51366 10.6972 9.75614 10.649C9.99862 10.6008 10.25 10.6255 10.4784 10.7201C10.7068 10.8148 10.902 10.975 11.0393 11.1805C11.1767 11.3861 11.25 11.6278 11.25 11.875C11.25 12.2065 11.1183 12.5245 10.8839 12.7589C10.6495 12.9933 10.3315 13.125 10 13.125Z" fill="#191F2E"/>
</svg>
