<svg width="20" height="20" viewBox="0 0 20 20" fill="none" xmlns="http://www.w3.org/2000/svg">
<path d="M10 1.875C8.39303 1.875 6.82214 2.35152 5.486 3.24431C4.14985 4.1371 3.10844 5.40605 2.49348 6.8907C1.87852 8.37535 1.71762 10.009 2.03112 11.5851C2.34463 13.1612 3.11846 14.6089 4.25476 15.7452C5.39106 16.8815 6.8388 17.6554 8.4149 17.9689C9.99099 18.2824 11.6247 18.1215 13.1093 17.5065C14.594 16.8916 15.8629 15.8502 16.7557 14.514C17.6485 13.1779 18.125 11.607 18.125 10C18.1227 7.84581 17.266 5.78051 15.7427 4.25727C14.2195 2.73403 12.1542 1.87727 10 1.875ZM9.6875 8.75C10.4334 8.75 11.1488 9.04632 11.6762 9.57376C12.2037 10.1012 12.5 10.8166 12.5 11.5625C12.5 12.3084 12.2037 13.0238 11.6762 13.5512C11.1488 14.0787 10.4334 14.375 9.6875 14.375C9.31534 14.3811 8.94574 14.3123 8.60068 14.1728C8.25563 14.0332 7.94216 13.8257 7.67891 13.5625C7.61918 13.5044 7.57166 13.435 7.53916 13.3582C7.50665 13.2815 7.48982 13.1991 7.48964 13.1158C7.48946 13.0324 7.50595 12.9499 7.53813 12.8731C7.57031 12.7962 7.61753 12.7266 7.67702 12.6682C7.7365 12.6099 7.80706 12.564 7.88453 12.5333C7.96199 12.5027 8.04482 12.4878 8.12812 12.4896C8.21142 12.4914 8.29352 12.5098 8.3696 12.5438C8.44567 12.5778 8.51418 12.6266 8.5711 12.6875C8.71852 12.8313 8.89327 12.9441 9.08502 13.0193C9.27676 13.0944 9.48163 13.1304 9.6875 13.125C10.1019 13.125 10.4993 12.9604 10.7924 12.6674C11.0854 12.3743 11.25 11.9769 11.25 11.5625C11.25 11.1481 11.0854 10.7507 10.7924 10.4576C10.4993 10.1646 10.1019 10 9.6875 10C9.48163 9.99465 9.27676 10.0306 9.08502 10.1057C8.89327 10.1809 8.71852 10.2937 8.5711 10.4375C8.47799 10.5324 8.35706 10.595 8.22588 10.6165C8.09471 10.6379 7.96012 10.617 7.84165 10.5567C7.72319 10.4964 7.62703 10.4 7.56714 10.2813C7.50724 10.1626 7.48674 10.028 7.5086 9.89688L8.1336 6.14687C8.158 6.00102 8.23332 5.86855 8.34618 5.773C8.45904 5.67745 8.60213 5.62501 8.75 5.625H11.875C12.0408 5.625 12.1997 5.69085 12.3169 5.80806C12.4342 5.92527 12.5 6.08424 12.5 6.25C12.5 6.41576 12.4342 6.57473 12.3169 6.69194C12.1997 6.80915 12.0408 6.875 11.875 6.875H9.27969L8.95235 8.83906C9.19284 8.77944 9.43973 8.74953 9.6875 8.75Z" fill="#191F2E"/>
</svg>
