<svg width="20" height="20" viewBox="0 0 20 20" fill="none" xmlns="http://www.w3.org/2000/svg">
<path d="M11.5624 3.75007V16.2501C11.5624 16.4987 11.4636 16.7372 11.2878 16.913C11.112 17.0888 10.8735 17.1876 10.6249 17.1876C10.3762 17.1876 10.1378 17.0888 9.96197 16.913C9.78615 16.7372 9.68738 16.4987 9.68738 16.2501V5.40553L7.98191 6.42897C7.76894 6.5515 7.51637 6.58552 7.27856 6.52371C7.04076 6.46189 6.83672 6.30919 6.71037 6.09847C6.58401 5.88774 6.54544 5.63583 6.60294 5.39694C6.66045 5.15806 6.80944 4.9513 7.01785 4.82116L10.1428 2.94616C10.2851 2.86088 10.4474 2.81487 10.6133 2.81282C10.7791 2.81076 10.9425 2.85274 11.0869 2.93448C11.2312 3.01621 11.3512 3.13476 11.4348 3.27805C11.5183 3.42133 11.5623 3.58421 11.5624 3.75007Z" fill="#191F2E"/>
</svg>
