<svg width="20" height="20" viewBox="0 0 20 20" fill="none" xmlns="http://www.w3.org/2000/svg">
<path d="M10 1.875C8.39303 1.875 6.82214 2.35152 5.486 3.24431C4.14985 4.1371 3.10844 5.40605 2.49348 6.8907C1.87852 8.37535 1.71762 10.009 2.03112 11.5851C2.34463 13.1612 3.11846 14.6089 4.25476 15.7452C5.39106 16.8815 6.8388 17.6554 8.4149 17.9689C9.99099 18.2824 11.6247 18.1215 13.1093 17.5065C14.594 16.8916 15.8629 15.8502 16.7557 14.514C17.6485 13.1779 18.125 11.607 18.125 10C18.1227 7.84581 17.266 5.78051 15.7427 4.25727C14.2195 2.73403 12.1542 1.87727 10 1.875ZM10 16.875C8.64026 16.875 7.31105 16.4718 6.18046 15.7164C5.04987 14.9609 4.16868 13.8872 3.64833 12.6309C3.12798 11.3747 2.99183 9.99237 3.2571 8.65875C3.52238 7.32513 4.17716 6.10013 5.13864 5.13864C6.10013 4.17716 7.32514 3.52237 8.65876 3.2571C9.99238 2.99183 11.3747 3.12798 12.631 3.64833C13.8872 4.16868 14.9609 5.04987 15.7164 6.18045C16.4718 7.31104 16.875 8.64025 16.875 10C16.8729 11.8227 16.1479 13.5702 14.8591 14.8591C13.5702 16.1479 11.8227 16.8729 10 16.875ZM11.4063 6.00156C11.0328 5.78604 10.6148 5.65927 10.1846 5.63104C9.75434 5.60281 9.32337 5.67387 8.92497 5.83875C8.52657 6.00362 8.17142 6.25788 7.88694 6.58188C7.60247 6.90589 7.3963 7.29096 7.28436 7.70734C7.17243 8.12373 7.15772 8.56027 7.24138 8.98324C7.32505 9.40621 7.50484 9.80429 7.76686 10.1467C8.02889 10.4891 8.36613 10.7667 8.75254 10.958C9.13894 11.1493 9.56415 11.2492 9.99532 11.25C10.0443 11.25 10.0935 11.2484 10.143 11.2453L8.83828 13.4328C8.79585 13.5034 8.76778 13.5817 8.75569 13.6631C8.7436 13.7446 8.74773 13.8276 8.76784 13.9075C8.78795 13.9873 8.82365 14.0624 8.87288 14.1285C8.9221 14.1945 8.98389 14.2501 9.05469 14.2922C9.12527 14.3346 9.20354 14.3627 9.285 14.3748C9.36646 14.3869 9.44951 14.3827 9.52936 14.3626C9.60922 14.3425 9.68432 14.3068 9.75034 14.2576C9.81636 14.2084 9.872 14.1466 9.91407 14.0758L12.4359 9.84375C12.8079 9.19747 12.9084 8.43006 12.7154 7.7098C12.5223 6.98954 12.0516 6.37522 11.4063 6.00156ZM11.3539 9.21875C11.1995 9.48641 10.9691 9.70227 10.692 9.83902C10.4149 9.97578 10.1034 10.0273 9.79705 9.98704C9.49066 9.9468 9.20308 9.8166 8.97068 9.61292C8.73828 9.40924 8.5715 9.14122 8.49142 8.84275C8.41134 8.54428 8.42156 8.22877 8.52079 7.93611C8.62002 7.64346 8.80381 7.38679 9.0489 7.19858C9.294 7.01037 9.5894 6.89906 9.89776 6.87874C10.2061 6.85841 10.5136 6.92997 10.7813 7.08437C11.14 7.29171 11.4017 7.63305 11.5088 8.0333C11.6159 8.43356 11.5596 8.85997 11.3523 9.21875H11.3539Z" fill="#191F2E"/>
</svg>
