<svg width="20" height="20" viewBox="0 0 20 20" fill="none" xmlns="http://www.w3.org/2000/svg">
<path d="M10 1.875C8.39303 1.875 6.82214 2.35152 5.486 3.24431C4.14985 4.1371 3.10844 5.40605 2.49348 6.8907C1.87852 8.37535 1.71762 10.009 2.03112 11.5851C2.34463 13.1612 3.11846 14.6089 4.25476 15.7452C5.39106 16.8815 6.8388 17.6554 8.4149 17.9689C9.99099 18.2824 11.6247 18.1215 13.1093 17.5065C14.594 16.8916 15.8629 15.8502 16.7557 14.514C17.6485 13.1779 18.125 11.607 18.125 10C18.1227 7.84581 17.266 5.78051 15.7427 4.25727C14.2195 2.73403 12.1542 1.87727 10 1.875ZM9.6875 14.6875C9.31317 14.6887 8.94242 14.6145 8.59735 14.4694C8.25227 14.3243 7.93993 14.1113 7.67891 13.843C7.61784 13.7852 7.56905 13.7157 7.53547 13.6386C7.50188 13.5616 7.48419 13.4785 7.48345 13.3944C7.48272 13.3104 7.49895 13.227 7.53117 13.1494C7.5634 13.0717 7.61096 13.0014 7.67101 12.9425C7.73105 12.8837 7.80236 12.8376 7.88064 12.8069C7.95893 12.7763 8.04259 12.7618 8.12663 12.7642C8.21066 12.7667 8.29334 12.786 8.36971 12.8212C8.44608 12.8563 8.51458 12.9065 8.5711 12.9688C8.75141 13.1527 8.97441 13.2892 9.22024 13.3662C9.46608 13.4431 9.72712 13.4581 9.98013 13.4097C10.2332 13.3614 10.4703 13.2513 10.6705 13.0891C10.8706 12.927 11.0276 12.7179 11.1274 12.4804C11.2272 12.2429 11.2667 11.9845 11.2425 11.728C11.2183 11.4716 11.131 11.2251 10.9885 11.0105C10.846 10.7959 10.6526 10.6199 10.4257 10.4982C10.1987 10.3764 9.9451 10.3126 9.6875 10.3125C9.57317 10.3125 9.46103 10.2811 9.36331 10.2217C9.26557 10.1624 9.186 10.0774 9.13323 9.97596C9.08046 9.87453 9.05652 9.76057 9.06403 9.64648C9.07153 9.53239 9.11019 9.42255 9.17578 9.32891L10.6742 7.1875H8.125C7.95924 7.1875 7.80027 7.12165 7.68306 7.00444C7.56585 6.88723 7.5 6.72826 7.5 6.5625C7.5 6.39674 7.56585 6.23777 7.68306 6.12056C7.80027 6.00335 7.95924 5.9375 8.125 5.9375H11.875C11.9893 5.93753 12.1015 5.96893 12.1992 6.02827C12.2969 6.0876 12.3765 6.17261 12.4293 6.27404C12.482 6.37547 12.506 6.48943 12.4985 6.60352C12.491 6.71761 12.4523 6.82745 12.3867 6.92109L10.7461 9.26484C11.3533 9.50853 11.8566 9.95631 12.1693 10.5311C12.482 11.1059 12.5844 11.7717 12.4591 12.4139C12.3337 13.0561 11.9883 13.6345 11.4824 14.0495C10.9766 14.4645 10.3418 14.6901 9.6875 14.6875Z" fill="#191F2E"/>
</svg>
