<svg width="20" height="20" viewBox="0 0 20 20" fill="none" xmlns="http://www.w3.org/2000/svg">
<path d="M12.1875 10C12.1875 11.1609 11.7266 13.125 10 13.125C8.27344 13.125 7.8125 11.1609 7.8125 10C7.8125 8.83906 8.27344 6.875 10 6.875C11.7266 6.875 12.1875 8.83906 12.1875 10ZM18.125 10C18.125 11.607 17.6485 13.1779 16.7557 14.514C15.8629 15.8502 14.594 16.8916 13.1093 17.5065C11.6247 18.1215 9.99099 18.2824 8.4149 17.9689C6.8388 17.6554 5.39106 16.8815 4.25476 15.7452C3.11846 14.6089 2.34463 13.1612 2.03112 11.5851C1.71762 10.009 1.87852 8.37535 2.49348 6.8907C3.10844 5.40605 4.14985 4.1371 5.486 3.24431C6.82214 2.35152 8.39303 1.875 10 1.875C12.1542 1.87727 14.2195 2.73403 15.7427 4.25727C17.266 5.78051 18.1227 7.84581 18.125 10ZM13.4375 10C13.4375 8.88672 13.1594 7.84922 12.6563 7.07891C12.0313 6.12813 11.1117 5.625 10 5.625C8.88828 5.625 7.96875 6.12813 7.34375 7.07891C6.83828 7.84922 6.5625 8.88672 6.5625 10C6.5625 11.1133 6.84063 12.1508 7.34375 12.9211C7.96875 13.8727 8.88594 14.375 10 14.375C11.1141 14.375 12.0313 13.8727 12.6563 12.9211C13.1594 12.1508 13.4375 11.1133 13.4375 10Z" fill="#191F2E"/>
</svg>
