<svg width="20" height="20" viewBox="0 0 20 20" fill="none" xmlns="http://www.w3.org/2000/svg">
<path d="M14.0227 4.01953L10.2727 16.5195C10.2147 16.7126 10.0961 16.8818 9.93441 17.0021C9.77271 17.1224 9.57655 17.1874 9.375 17.1875C9.28368 17.1876 9.19285 17.1742 9.10547 17.1477C8.86801 17.0755 8.66887 16.912 8.55171 16.6933C8.43455 16.4745 8.40893 16.2181 8.48047 15.9805L11.8648 4.6875H6.875C6.62636 4.6875 6.3879 4.58873 6.21209 4.41291C6.03627 4.2371 5.9375 3.99864 5.9375 3.75C5.9375 3.50136 6.03627 3.2629 6.21209 3.08709C6.3879 2.91127 6.62636 2.8125 6.875 2.8125H13.125C13.2711 2.81254 13.4152 2.84675 13.5458 2.91238C13.6764 2.97802 13.7898 3.07328 13.877 3.19054C13.9642 3.30781 14.0228 3.44384 14.0481 3.58777C14.0734 3.73171 14.0647 3.87956 14.0227 4.01953Z" fill="#191F2E"/>
</svg>
