<svg width="20" height="20" viewBox="0 0 20 20" fill="none" xmlns="http://www.w3.org/2000/svg">
<path d="M14.375 11.8751C14.375 12.0408 14.3092 12.1998 14.192 12.317C14.0748 12.4342 13.9158 12.5001 13.75 12.5001H12.5V16.2501C12.5 16.4158 12.4342 16.5748 12.317 16.692C12.1998 16.8092 12.0408 16.8751 11.875 16.8751C11.7093 16.8751 11.5503 16.8092 11.4331 16.692C11.3159 16.5748 11.25 16.4158 11.25 16.2501V12.5001H5.62504C5.52492 12.5 5.42627 12.4759 5.33741 12.4298C5.24854 12.3837 5.17206 12.3169 5.1144 12.235C5.05675 12.1532 5.0196 12.0586 5.00608 11.9594C4.99257 11.8602 5.00309 11.7592 5.03676 11.6649L8.16176 2.91493C8.22115 2.76382 8.33702 2.64175 8.48483 2.57457C8.63265 2.50739 8.8008 2.50036 8.9537 2.55498C9.1066 2.60961 9.23225 2.72159 9.30404 2.86722C9.37582 3.01285 9.38812 3.18071 9.33832 3.33524L6.51176 11.2501H11.25V7.50009C11.25 7.33433 11.3159 7.17536 11.4331 7.05815C11.5503 6.94094 11.7093 6.87509 11.875 6.87509C12.0408 6.87509 12.1998 6.94094 12.317 7.05815C12.4342 7.17536 12.5 7.33433 12.5 7.50009V11.2501H13.75C13.9158 11.2501 14.0748 11.3159 14.192 11.4331C14.3092 11.5504 14.375 11.7093 14.375 11.8751Z" fill="#191F2E"/>
</svg>
