<svg width="20" height="20" viewBox="0 0 20 20" fill="none" xmlns="http://www.w3.org/2000/svg">
<path d="M12.1523 9.31789C12.8053 8.86023 13.2954 8.20636 13.5514 7.45123C13.8075 6.69609 13.8161 5.87899 13.5762 5.11859C13.3362 4.35819 12.8601 3.69406 12.2171 3.22264C11.574 2.75123 10.7974 2.49707 10 2.49707C9.20264 2.49707 8.42603 2.75123 7.78294 3.22264C7.13986 3.69406 6.66378 4.35819 6.42383 5.11859C6.18388 5.87899 6.19255 6.69609 6.44859 7.45123C6.70463 8.20636 7.19471 8.86023 7.84766 9.31789C7.00616 9.7934 6.34582 10.5342 5.96975 11.4246C5.59367 12.315 5.52304 13.3048 5.76888 14.2396C6.01472 15.1744 6.56319 16.0014 7.32865 16.5916C8.0941 17.1818 9.03345 17.5018 10 17.5018C10.9666 17.5018 11.9059 17.1818 12.6714 16.5916C13.4368 16.0014 13.9853 15.1744 14.2311 14.2396C14.477 13.3048 14.4063 12.315 14.0303 11.4246C13.6542 10.5342 12.9938 9.7934 12.1523 9.31789ZM7.5 6.24992C7.5 5.75547 7.64662 5.27212 7.92133 4.86099C8.19603 4.44987 8.58648 4.12944 9.04329 3.94022C9.50011 3.751 10.0028 3.70149 10.4877 3.79796C10.9727 3.89442 11.4181 4.13252 11.7678 4.48215C12.1174 4.83178 12.3555 5.27724 12.452 5.76219C12.5484 6.24715 12.4989 6.74981 12.3097 7.20663C12.1205 7.66344 11.8 8.05389 11.3889 8.32859C10.9778 8.6033 10.4945 8.74992 10 8.74992C9.33696 8.74992 8.70108 8.48653 8.23223 8.01769C7.76339 7.54884 7.5 6.91296 7.5 6.24992ZM10 16.2499C9.38194 16.2499 8.77775 16.0666 8.26384 15.7233C7.74994 15.3799 7.3494 14.8918 7.11288 14.3208C6.87635 13.7498 6.81447 13.1215 6.93505 12.5153C7.05563 11.9091 7.35325 11.3522 7.79029 10.9152C8.22733 10.4782 8.78415 10.1805 9.39034 10.06C9.99654 9.93938 10.6249 10.0013 11.1959 10.2378C11.7669 10.4743 12.255 10.8749 12.5983 11.3888C12.9417 11.9027 13.125 12.5069 13.125 13.1249C13.125 13.9537 12.7958 14.7486 12.2097 15.3346C11.6237 15.9207 10.8288 16.2499 10 16.2499Z" fill="#191F2E"/>
</svg>
