<svg width="20" height="20" viewBox="0 0 20 20" fill="none" xmlns="http://www.w3.org/2000/svg">
<path d="M5.9375 10C5.9375 10.8035 6.17576 11.589 6.62215 12.257C7.06855 12.9251 7.70302 13.4458 8.44535 13.7533C9.18767 14.0608 10.0045 14.1412 10.7926 13.9845C11.5806 13.8277 12.3045 13.4408 12.8726 12.8727C13.4408 12.3045 13.8277 11.5806 13.9844 10.7926C14.1412 10.0045 14.0607 9.18771 13.7533 8.44538C13.4458 7.70306 12.9251 7.06858 12.257 6.62219C11.5889 6.17579 10.8035 5.93753 10 5.93753C8.92288 5.93857 7.89016 6.36691 7.12852 7.12855C6.36688 7.8902 5.93853 8.92291 5.9375 10ZM12.1875 10C12.1875 10.4327 12.0592 10.8556 11.8188 11.2153C11.5785 11.5751 11.2368 11.8555 10.8371 12.021C10.4374 12.1866 9.99757 12.2299 9.57324 12.1455C9.14891 12.0611 8.75913 11.8528 8.4532 11.5468C8.14728 11.2409 7.93894 10.8511 7.85453 10.4268C7.77013 10.0025 7.81345 9.56263 7.97901 9.16291C8.14458 8.7632 8.42496 8.42156 8.78469 8.18119C9.14442 7.94083 9.56735 7.81253 10 7.81253C10.5802 7.81253 11.1366 8.043 11.5468 8.45324C11.957 8.86347 12.1875 9.41987 12.1875 10ZM17.625 4.89378L10.75 1.1305C10.5202 1.00405 10.2623 0.937744 10 0.937744C9.73775 0.937744 9.47975 1.00405 9.25 1.1305L2.375 4.89378C2.129 5.02838 1.92375 5.22671 1.78079 5.46795C1.63784 5.70919 1.56244 5.98446 1.5625 6.26488V13.7352C1.56244 14.0156 1.63784 14.2909 1.78079 14.5321C1.92375 14.7734 2.129 14.9717 2.375 15.1063L9.25 18.8696C9.47971 18.9962 9.73772 19.0625 10 19.0625C10.2623 19.0625 10.5203 18.9962 10.75 18.8696L17.625 15.1063C17.871 14.9717 18.0762 14.7734 18.2192 14.5321C18.3622 14.2909 18.4376 14.0156 18.4375 13.7352V6.26488C18.4376 5.98446 18.3622 5.70919 18.2192 5.46795C18.0762 5.22671 17.871 5.02838 17.625 4.89378ZM16.5625 13.55L10 17.1438L3.4375 13.55V6.45003L10 2.85628L16.5625 6.45003V13.55Z" fill="#191F2E"/>
</svg>
