<svg width="20" height="20" viewBox="0 0 20 20" fill="none" xmlns="http://www.w3.org/2000/svg">
<path d="M13.4375 10.625C13.623 10.625 13.8042 10.68 13.9584 10.783C14.1126 10.886 14.2327 11.0324 14.3037 11.2037C14.3746 11.375 14.3932 11.5635 14.357 11.7454C14.3209 11.9273 14.2316 12.0943 14.1005 12.2254C13.9693 12.3565 13.8023 12.4458 13.6204 12.482C13.4386 12.5182 13.2501 12.4996 13.0788 12.4286C12.9075 12.3577 12.7611 12.2375 12.658 12.0833C12.555 11.9292 12.5 11.7479 12.5 11.5625C12.5 11.3139 12.5988 11.0754 12.7746 10.8996C12.9505 10.7238 13.1889 10.625 13.4375 10.625ZM14.4235 8.06641L9.28989 5.67109C7.96801 5.8387 6.74865 6.47044 5.84932 7.45363C4.94998 8.43682 4.42916 9.70751 4.37974 11.0391L9.7063 8.19844C9.80153 8.14773 9.90825 8.12254 10.0161 8.12531C10.124 8.12808 10.2292 8.15872 10.3217 8.21425C10.4142 8.26978 10.4908 8.34831 10.5439 8.44219C10.5971 8.53607 10.625 8.64212 10.625 8.75V16.8398C11.7105 16.7223 12.7378 16.2898 13.5805 15.5958C14.4232 14.9017 15.0446 13.9763 15.368 12.9336C15.4183 12.7752 15.5294 12.6432 15.6769 12.5668C15.8245 12.4903 15.9963 12.4755 16.1547 12.5258C16.3131 12.576 16.4451 12.6871 16.5216 12.8347C16.5981 12.9822 16.6128 13.1541 16.5625 13.3125C16.2713 14.232 15.7897 15.0799 15.1493 15.8012C14.5089 16.5224 13.7238 17.1008 12.8452 17.4988C11.9666 17.8967 11.0141 18.1054 10.0495 18.1111C9.08502 18.1169 8.13008 17.9196 7.24679 17.5321C6.36349 17.1447 5.57161 16.5757 4.92261 15.8621C4.27362 15.1486 3.78202 14.3065 3.47979 13.3905C3.17755 12.4745 3.07144 11.5052 3.16834 10.5456C3.26524 9.5859 3.56299 8.65737 4.04224 7.82031C3.47884 7.53428 3.02817 7.06687 2.76287 6.49342C2.49757 5.91998 2.43309 5.2739 2.57983 4.65933C2.72657 4.04476 3.07597 3.4975 3.57173 3.10577C4.06748 2.71404 4.68071 2.50065 5.31255 2.5C5.40378 2.50015 5.49388 2.52014 5.57661 2.55859L14.8149 6.86953C15.2163 6.83587 15.5892 6.64849 15.8557 6.3465C16.1223 6.04451 16.2619 5.65124 16.2455 5.24877C16.2291 4.84629 16.0579 4.46571 15.7676 4.18645C15.4773 3.90719 15.0904 3.75083 14.6875 3.75C14.5218 3.75 14.3628 3.68415 14.2456 3.56694C14.1284 3.44973 14.0625 3.29076 14.0625 3.125C14.0625 2.95924 14.1284 2.80027 14.2456 2.68306C14.3628 2.56585 14.5218 2.5 14.6875 2.5C15.4335 2.5 16.1488 2.79632 16.6763 3.32376C17.2037 3.85121 17.5 4.56658 17.5 5.3125C17.5 6.05842 17.2037 6.77379 16.6763 7.30124C16.1488 7.82868 15.4335 8.125 14.6875 8.125C14.5963 8.12485 14.5062 8.10486 14.4235 8.06641ZM6.87505 15.9242V11.125L4.49302 12.3953C4.79516 13.8378 5.65024 15.1046 6.87505 15.9242ZM9.37505 9.79141L8.12505 10.4586V16.5523C8.52923 16.6959 8.9487 16.7921 9.37505 16.8391V9.79141ZM7.51021 4.84375L5.18521 3.75547C4.83063 3.78531 4.49687 3.93527 4.2391 4.18057C3.98134 4.42586 3.81501 4.75178 3.76764 5.10444C3.72027 5.4571 3.79468 5.81536 3.97858 6.11998C4.16247 6.4246 4.44483 6.65733 4.77896 6.77969C4.82583 6.72422 4.87271 6.66875 4.92271 6.61484C5.63726 5.83305 6.52279 5.22692 7.51021 4.84375Z" fill="#191F2E"/>
</svg>
