<svg width="20" height="20" viewBox="0 0 20 20" fill="none" xmlns="http://www.w3.org/2000/svg">
<path d="M17.7586 6.26876L13.7313 2.24141C13.6156 2.12483 13.4779 2.03241 13.3262 1.96951C13.1746 1.9066 13.0119 1.87448 12.8477 1.87501H7.15235C6.98814 1.87448 6.82546 1.9066 6.67377 1.96951C6.52208 2.03241 6.38441 2.12483 6.26876 2.24141L2.24141 6.26876C2.12483 6.38441 2.03241 6.52208 1.96951 6.67377C1.9066 6.82546 1.87448 6.98814 1.87501 7.15235V12.8477C1.87448 13.0119 1.9066 13.1746 1.96951 13.3262C2.03241 13.4779 2.12483 13.6156 2.24141 13.7313L6.26876 17.7586C6.38441 17.8752 6.52208 17.9676 6.67377 18.0305C6.82546 18.0934 6.98814 18.1255 7.15235 18.125H12.8477C13.0119 18.1255 13.1746 18.0934 13.3262 18.0305C13.4779 17.9676 13.6156 17.8752 13.7313 17.7586L17.7586 13.7313C17.8752 13.6156 17.9676 13.4779 18.0305 13.3262C18.0934 13.1746 18.1255 13.0119 18.125 12.8477V7.15235C18.1255 6.98814 18.0934 6.82546 18.0305 6.67377C17.9676 6.52208 17.8752 6.38441 17.7586 6.26876ZM16.875 12.8477L12.8477 16.875H7.15235L3.12501 12.8477V7.15235L7.15235 3.12501H12.8477L16.875 7.15235V12.8477Z" fill="#191F2E"/>
</svg>
