<svg width="20" height="20" viewBox="0 0 20 20" fill="none" xmlns="http://www.w3.org/2000/svg">
<path d="M17.7586 6.26797L13.732 2.24141C13.4969 2.0077 13.1792 1.87605 12.8477 1.875H7.15234C6.82083 1.87605 6.50309 2.0077 6.26797 2.24141L2.24141 6.26797C2.0077 6.50309 1.87605 6.82083 1.875 7.15234V12.8477C1.87605 13.1792 2.0077 13.4969 2.24141 13.732L6.26797 17.7586C6.50309 17.9923 6.82083 18.1239 7.15234 18.125H12.8477C13.1792 18.1239 13.4969 17.9923 13.732 17.7586L17.7586 13.732C17.9923 13.4969 18.1239 13.1792 18.125 12.8477V7.15234C18.1239 6.82083 17.9923 6.50309 17.7586 6.26797Z" fill="#191F2E"/>
</svg>
