<svg width="20" height="20" viewBox="0 0 20 20" fill="none" xmlns="http://www.w3.org/2000/svg">
<path d="M19.375 10C19.375 10.1658 19.3092 10.3247 19.1919 10.4419C19.0747 10.5592 18.9158 10.625 18.75 10.625H17.4477C17.2988 11.4983 16.846 12.2908 16.1694 12.8627C15.4928 13.4345 14.6359 13.7488 13.75 13.75H10.625V15.625H12.5C13.163 15.625 13.7989 15.8884 14.2678 16.3572C14.7366 16.8261 15 17.462 15 18.125C15 18.2908 14.9342 18.4497 14.8169 18.5669C14.6997 18.6842 14.5408 18.75 14.375 18.75C14.2092 18.75 14.0503 18.6842 13.9331 18.5669C13.8158 18.4497 13.75 18.2908 13.75 18.125C13.75 17.7935 13.6183 17.4755 13.3839 17.2411C13.1495 17.0067 12.8315 16.875 12.5 16.875H10.625V18.125C10.625 18.2908 10.5592 18.4497 10.4419 18.5669C10.3247 18.6842 10.1658 18.75 10 18.75C9.83424 18.75 9.67527 18.6842 9.55806 18.5669C9.44085 18.4497 9.375 18.2908 9.375 18.125V16.875H7.5C7.16848 16.875 6.85054 17.0067 6.61612 17.2411C6.3817 17.4755 6.25 17.7935 6.25 18.125C6.25 18.2908 6.18415 18.4497 6.06694 18.5669C5.94973 18.6842 5.79076 18.75 5.625 18.75C5.45924 18.75 5.30027 18.6842 5.18306 18.5669C5.06585 18.4497 5 18.2908 5 18.125C5 17.462 5.26339 16.8261 5.73223 16.3572C6.20107 15.8884 6.83696 15.625 7.5 15.625H9.375V13.75H6.25C5.36412 13.7488 4.50718 13.4345 3.83056 12.8627C3.15395 12.2908 2.70122 11.4983 2.55234 10.625H1.25C1.08424 10.625 0.925268 10.5592 0.808058 10.4419C0.690848 10.3247 0.625 10.1658 0.625 10C0.625 9.83424 0.690848 9.67527 0.808058 9.55806C0.925268 9.44085 1.08424 9.375 1.25 9.375H3.125C3.29076 9.375 3.44973 9.44085 3.56694 9.55806C3.68415 9.67527 3.75 9.83424 3.75 10C3.75 10.663 4.01339 11.2989 4.48223 11.7678C4.95107 12.2366 5.58696 12.5 6.25 12.5H13.75C14.413 12.5 15.0489 12.2366 15.5178 11.7678C15.9866 11.2989 16.25 10.663 16.25 10C16.25 9.83424 16.3158 9.67527 16.4331 9.55806C16.5503 9.44085 16.7092 9.375 16.875 9.375H18.75C18.9158 9.375 19.0747 9.44085 19.1919 9.55806C19.3092 9.67527 19.375 9.83424 19.375 10ZM5.30547 10.8187C5.18822 10.6835 5.10139 10.5246 5.05084 10.3529C5.0003 10.1812 4.98722 10.0006 5.0125 9.82344L6.08437 2.32344C6.12811 2.02606 6.27703 1.75422 6.50409 1.55726C6.73115 1.3603 7.0213 1.25129 7.32188 1.25H12.6781C12.9787 1.25129 13.2689 1.3603 13.4959 1.55726C13.723 1.75422 13.8719 2.02606 13.9156 2.32344L14.9875 9.82344C15.0128 10.0007 14.9997 10.1814 14.9491 10.3531C14.8985 10.5249 14.8116 10.6838 14.6943 10.8191C14.5769 10.9544 14.4319 11.0628 14.269 11.1372C14.1061 11.2115 13.9291 11.25 13.75 11.25H6.25C6.07085 11.25 5.8938 11.2115 5.73084 11.1371C5.56788 11.0627 5.42281 10.9541 5.30547 10.8187ZM6.25 10H13.75L12.6781 2.5H7.32109L6.25 10Z" fill="#191F2E"/>
</svg>
