<svg width="20" height="20" viewBox="0 0 20 20" fill="none" xmlns="http://www.w3.org/2000/svg">
<path d="M19.6875 9.99999C19.6875 10.2486 19.5887 10.4871 19.4129 10.6629C19.2371 10.8387 18.9986 10.9375 18.75 10.9375H17.7031C17.491 11.8267 16.9856 12.6185 16.2684 13.1854C15.5513 13.7524 14.6642 14.0613 13.75 14.0625H10.9375V15.3125H12.5C13.2459 15.3125 13.9613 15.6088 14.4887 16.1362C15.0162 16.6637 15.3125 17.3791 15.3125 18.125C15.3125 18.3736 15.2137 18.6121 15.0379 18.7879C14.8621 18.9637 14.6236 19.0625 14.375 19.0625C14.1264 19.0625 13.8879 18.9637 13.7121 18.7879C13.5363 18.6121 13.4375 18.3736 13.4375 18.125C13.4375 17.8763 13.3387 17.6379 13.1629 17.4621C12.9871 17.2863 12.7486 17.1875 12.5 17.1875H10.9375V18.125C10.9375 18.3736 10.8387 18.6121 10.6629 18.7879C10.4871 18.9637 10.2486 19.0625 10 19.0625C9.75136 19.0625 9.5129 18.9637 9.33709 18.7879C9.16127 18.6121 9.0625 18.3736 9.0625 18.125V17.1875H7.5C7.25136 17.1875 7.0129 17.2863 6.83709 17.4621C6.66127 17.6379 6.5625 17.8763 6.5625 18.125C6.5625 18.3736 6.46373 18.6121 6.28791 18.7879C6.1121 18.9637 5.87364 19.0625 5.625 19.0625C5.37636 19.0625 5.1379 18.9637 4.96209 18.7879C4.78627 18.6121 4.6875 18.3736 4.6875 18.125C4.6875 17.3791 4.98382 16.6637 5.51126 16.1362C6.03871 15.6088 6.75408 15.3125 7.5 15.3125H9.0625V14.0625H6.25C5.33584 14.0613 4.44871 13.7524 3.73157 13.1854C3.01443 12.6185 2.50905 11.8267 2.29688 10.9375H1.25C1.00136 10.9375 0.762903 10.8387 0.587087 10.6629C0.411272 10.4871 0.3125 10.2486 0.3125 9.99999C0.3125 9.75135 0.411272 9.51289 0.587087 9.33707C0.762903 9.16126 1.00136 9.06249 1.25 9.06249H3.125C3.37364 9.06249 3.6121 9.16126 3.78791 9.33707C3.96373 9.51289 4.0625 9.75135 4.0625 9.99999C4.0625 10.5801 4.29297 11.1365 4.7032 11.5468C5.11344 11.957 5.66984 12.1875 6.25 12.1875H13.75C14.3302 12.1875 14.8866 11.957 15.2968 11.5468C15.707 11.1365 15.9375 10.5801 15.9375 9.99999C15.9375 9.75135 16.0363 9.51289 16.2121 9.33707C16.3879 9.16126 16.6264 9.06249 16.875 9.06249H18.75C18.9986 9.06249 19.2371 9.16126 19.4129 9.33707C19.5887 9.51289 19.6875 9.75135 19.6875 9.99999ZM5.68906 10.3906C5.54304 10.2202 5.43542 10.0204 5.37355 9.80469C5.31167 9.58899 5.29698 9.3625 5.33047 9.14061L6.39062 2.26561C6.44534 1.89522 6.63182 1.557 6.91583 1.31303C7.19984 1.06906 7.56231 0.935723 7.93672 0.937487H12.0633C12.4377 0.935723 12.8002 1.06906 13.0842 1.31303C13.3682 1.557 13.5547 1.89522 13.6094 2.26561L14.6695 9.14061C14.7033 9.36305 14.6886 9.59015 14.6265 9.80638C14.5644 10.0226 14.4563 10.2229 14.3096 10.3935C14.163 10.5641 13.9812 10.701 13.7768 10.7949C13.5723 10.8888 13.35 10.9374 13.125 10.9375H6.875C6.64957 10.9373 6.42686 10.8883 6.22216 10.7939C6.01745 10.6995 5.83559 10.5619 5.68906 10.3906ZM7.23984 9.06249H12.7602L11.7969 2.81249H8.20312L7.23984 9.06249Z" fill="#191F2E"/>
</svg>
