<svg width="20" height="20" viewBox="0 0 20 20" fill="none" xmlns="http://www.w3.org/2000/svg">
<path d="M18.4375 14.375C18.4375 14.6236 18.3387 14.8621 18.1629 15.0379C17.9871 15.2137 17.7486 15.3125 17.5 15.3125H12.5734C12.2831 15.3133 11.9984 15.2328 11.7515 15.0801C11.5046 14.9274 11.3054 14.7086 11.1766 14.4484L7.23281 6.56251H2.5C2.25136 6.56251 2.0129 6.46373 1.83709 6.28792C1.66127 6.1121 1.5625 5.87365 1.5625 5.62501C1.5625 5.37637 1.66127 5.13791 1.83709 4.96209C2.0129 4.78628 2.25136 4.68751 2.5 4.68751H7.42656C7.71687 4.68667 8.0016 4.76717 8.2485 4.91989C8.49539 5.07261 8.69456 5.29144 8.82344 5.55157L12.7672 13.4375H17.5C17.7486 13.4375 17.9871 13.5363 18.1629 13.7121C18.3387 13.8879 18.4375 14.1264 18.4375 14.375ZM11.875 6.56251H17.5C17.7486 6.56251 17.9871 6.46373 18.1629 6.28792C18.3387 6.1121 18.4375 5.87365 18.4375 5.62501C18.4375 5.37637 18.3387 5.13791 18.1629 4.96209C17.9871 4.78628 17.7486 4.68751 17.5 4.68751H11.875C11.6264 4.68751 11.3879 4.78628 11.2121 4.96209C11.0363 5.13791 10.9375 5.37637 10.9375 5.62501C10.9375 5.87365 11.0363 6.1121 11.2121 6.28792C11.3879 6.46373 11.6264 6.56251 11.875 6.56251Z" fill="#191F2E"/>
</svg>
