<svg width="20" height="20" viewBox="0 0 20 20" fill="none" xmlns="http://www.w3.org/2000/svg">
<path d="M19.0625 5.9375H0.9375C0.68886 5.9375 0.450403 6.03627 0.274587 6.21209C0.098772 6.3879 0 6.62636 0 6.875L0 7.1875C0 9.83966 1.05357 12.3832 2.92893 14.2586C4.8043 16.1339 7.34784 17.1875 10 17.1875C12.6522 17.1875 15.1957 16.1339 17.0711 14.2586C18.9464 12.3832 20 9.83966 20 7.1875V6.875C20 6.62636 19.9012 6.3879 19.7254 6.21209C19.5496 6.03627 19.3111 5.9375 19.0625 5.9375ZM5.04062 7.8125H8.37578L6.61484 10.8633C5.74579 10.0646 5.18802 8.98361 5.04062 7.8125ZM10 8.75L11.7922 11.8539C10.6388 12.2987 9.36121 12.2987 8.20781 11.8539L10 8.75ZM13.3852 10.8633L11.6242 7.8125H14.9594C14.812 8.98361 14.2542 10.0646 13.3852 10.8633ZM10 15.3125C7.95399 15.3099 5.98404 14.5367 4.48263 13.1467C2.98121 11.7568 2.05854 9.85224 1.89844 7.8125H3.15391C3.31095 9.51963 4.10012 11.1065 5.36665 12.2619C6.63318 13.4172 8.28566 14.0577 10 14.0577C11.7143 14.0577 13.3668 13.4172 14.6334 12.2619C15.8999 11.1065 16.6891 9.51963 16.8461 7.8125H18.1016C17.9415 9.85224 17.0188 11.7568 15.5174 13.1467C14.016 14.5367 12.046 15.3099 10 15.3125Z" fill="#191F2E"/>
</svg>
