<svg width="20" height="20" viewBox="0 0 20 20" fill="none" xmlns="http://www.w3.org/2000/svg">
<path d="M3.99844 11.368C3.02424 10.0728 2.49825 8.49565 2.5 6.875C2.5 6.76484 2.5 6.65547 2.50703 6.54609C2.51124 6.46609 2.54601 6.39076 2.60416 6.33565C2.66232 6.28055 2.73942 6.24989 2.81953 6.25H8.35938C8.42122 6.24995 8.48168 6.26825 8.53312 6.30259C8.58455 6.33692 8.62465 6.38575 8.64832 6.44288C8.67199 6.50001 8.67818 6.56288 8.6661 6.62353C8.65403 6.68419 8.62422 6.73989 8.58047 6.78359L3.99844 11.368ZM9.375 14.3484V7.75859L4.83047 12.3039C6.06687 13.4852 7.67089 14.2068 9.375 14.3484ZM16.0016 11.368C16.9758 10.0728 17.5018 8.49565 17.5 6.875C17.5 6.76484 17.5 6.65547 17.493 6.54609C17.4888 6.46609 17.454 6.39076 17.3958 6.33565C17.3377 6.28055 17.2606 6.24989 17.1805 6.25H11.6406C11.5788 6.24995 11.5183 6.26825 11.4669 6.30259C11.4154 6.33692 11.3754 6.38575 11.3517 6.44288C11.328 6.50001 11.3218 6.56288 11.3339 6.62353C11.346 6.68419 11.3758 6.73989 11.4195 6.78359L16.0016 11.368ZM19.375 6.25H19.0562C19.0143 6.24997 18.9727 6.25841 18.9341 6.27479C18.8954 6.29117 18.8605 6.31518 18.8313 6.34536C18.8022 6.37555 18.7794 6.4113 18.7643 6.45049C18.7493 6.48967 18.7423 6.53149 18.7437 6.57344C18.7437 6.67344 18.7492 6.77422 18.7492 6.875C18.7274 9.18122 17.796 11.3856 16.1575 13.0087C14.519 14.6318 12.3059 15.5423 9.99961 15.5423C7.69329 15.5423 5.48023 14.6318 3.84173 13.0087C2.20322 11.3856 1.27179 9.18122 1.25 6.875C1.25 6.77422 1.25 6.67344 1.25547 6.57344C1.25694 6.53149 1.24994 6.48967 1.2349 6.45049C1.21985 6.4113 1.19706 6.37555 1.1679 6.34536C1.13873 6.31518 1.10378 6.29117 1.06514 6.27479C1.02649 6.25841 0.984944 6.24997 0.942969 6.25H0.625C0.45924 6.25 0.300269 6.31585 0.183058 6.43306C0.065848 6.55027 0 6.70924 0 6.875C0 9.52717 1.05357 12.0707 2.92893 13.9461C4.8043 15.8214 7.34784 16.875 10 16.875C12.6522 16.875 15.1957 15.8214 17.0711 13.9461C18.9464 12.0707 20 9.52717 20 6.875C20 6.70924 19.9342 6.55027 19.8169 6.43306C19.6997 6.31585 19.5408 6.25 19.375 6.25ZM10.625 7.75859V14.3484C12.3291 14.2068 13.9331 13.4852 15.1695 12.3039L10.625 7.75859Z" fill="#191F2E"/>
</svg>
