<svg width="20" height="20" viewBox="0 0 20 20" fill="none" xmlns="http://www.w3.org/2000/svg">
<path d="M17.625 4.89372L10.75 1.13044C10.5202 1.00399 10.2623 0.937683 10 0.937683C9.73775 0.937683 9.47975 1.00399 9.25 1.13044L2.375 4.89372C2.129 5.02832 1.92375 5.22665 1.78079 5.46789C1.63784 5.70913 1.56244 5.9844 1.5625 6.26482V13.7351C1.56244 14.0155 1.63784 14.2908 1.78079 14.5321C1.92375 14.7733 2.129 14.9716 2.375 15.1062L9.25 18.8695C9.47971 18.9961 9.73772 19.0625 10 19.0625C10.2623 19.0625 10.5203 18.9961 10.75 18.8695L17.625 15.1062C17.871 14.9716 18.0762 14.7733 18.2192 14.5321C18.3622 14.2908 18.4376 14.0155 18.4375 13.7351V6.26482C18.4376 5.9844 18.3622 5.70913 18.2192 5.46789C18.0762 5.22665 17.871 5.02832 17.625 4.89372ZM10 2.857L15.625 5.93747L13.9508 6.85388L8.32578 3.77419L10 2.857ZM10 9.0156L4.375 5.93747L6.37187 4.84372L11.9969 7.92263L10 9.0156ZM3.4375 7.56169L9.0625 10.6398V16.6297L3.4375 13.55V7.56169ZM10.9375 16.6297V10.6398L12.8125 9.61403V11.875C12.8125 12.1236 12.9113 12.3621 13.0871 12.5379C13.2629 12.7137 13.5014 12.8125 13.75 12.8125C13.9986 12.8125 14.2371 12.7137 14.4129 12.5379C14.5887 12.3621 14.6875 12.1236 14.6875 11.875V8.58747L16.5625 7.56169V13.55L10.9375 16.6297Z" fill="#191F2E"/>
</svg>
