<svg width="20" height="20" viewBox="0 0 20 20" fill="none" xmlns="http://www.w3.org/2000/svg">
<path d="M18.0188 1.98128C17.7866 1.74907 17.511 1.56487 17.2076 1.4392C16.9043 1.31352 16.5791 1.24884 16.2508 1.24884C15.9224 1.24884 15.5973 1.31352 15.2939 1.4392C14.9906 1.56487 14.715 1.74907 14.4828 1.98128C14.475 1.98909 14.4672 1.9969 14.4602 2.00549L10.1703 6.78518L9.45313 6.06565C9.27901 5.89144 9.07226 5.75324 8.84471 5.65895C8.61717 5.56466 8.37327 5.51613 8.12696 5.51613C7.88065 5.51613 7.63675 5.56466 7.4092 5.65895C7.18165 5.75324 6.97491 5.89144 6.80079 6.06565L0.809378 12.0578C0.692257 12.175 0.626465 12.3339 0.626465 12.4996C0.626465 12.6653 0.692257 12.8242 0.809378 12.9414L7.05938 19.1914C7.17658 19.3086 7.33549 19.3743 7.50117 19.3743C7.66686 19.3743 7.82577 19.3086 7.94297 19.1914L13.9344 13.2031C14.1086 13.029 14.2468 12.8223 14.3411 12.5947C14.4354 12.3672 14.4839 12.1233 14.4839 11.877C14.4839 11.6307 14.4354 11.3868 14.3411 11.1592C14.2468 10.9317 14.1086 10.7249 13.9344 10.5508L13.2148 9.83206L17.9945 5.54221C18.0032 5.53501 18.0113 5.52718 18.0188 5.51877C18.2512 5.28659 18.4356 5.01087 18.5614 4.70738C18.6872 4.40388 18.752 4.07856 18.752 3.75003C18.752 3.42149 18.6872 3.09617 18.5614 2.79267C18.4356 2.48918 18.2512 2.21346 18.0188 1.98128ZM7.5 17.8664L6.19688 16.5625L7.94219 14.8164C8.05445 14.6983 8.11612 14.5409 8.11403 14.3779C8.11194 14.215 8.04627 14.0593 7.93102 13.944C7.81577 13.8288 7.66006 13.7631 7.49708 13.761C7.33411 13.7589 7.17676 13.8206 7.0586 13.9328L5.3125 15.6782L4.32188 14.6875L6.06719 12.9414C6.17945 12.8233 6.24112 12.6659 6.23903 12.5029C6.23694 12.34 6.17127 12.1843 6.05602 12.069C5.94077 11.9538 5.78506 11.8881 5.62208 11.886C5.45911 11.8839 5.30176 11.9456 5.1836 12.0578L3.4375 13.8032L2.1336 12.5L5.625 9.00862L10.9914 14.375L7.5 17.8664Z" fill="#191F2E"/>
</svg>
