<svg width="20" height="20" viewBox="0 0 20 20" fill="none" xmlns="http://www.w3.org/2000/svg">
<path d="M18.2032 12.6367C18.0923 12.5479 17.9546 12.4996 17.8126 12.4996C17.6706 12.4996 17.5328 12.5479 17.4219 12.6367C17.3485 12.6961 15.6251 14.0961 15.6251 15.9375C15.6251 16.5176 15.8555 17.074 16.2658 17.4843C16.676 17.8945 17.2324 18.125 17.8126 18.125C18.3927 18.125 18.9491 17.8945 19.3594 17.4843C19.7696 17.074 20.0001 16.5176 20.0001 15.9375C20.0001 14.0961 18.2766 12.6961 18.2032 12.6367ZM17.8126 16.875C17.5639 16.875 17.3255 16.7762 17.1496 16.6004C16.9738 16.4246 16.8751 16.1861 16.8751 15.9375C16.8751 15.1422 17.4219 14.4117 17.8126 13.9898C18.2032 14.4133 18.7501 15.1461 18.7501 15.9375C18.7501 16.1861 18.6513 16.4246 18.4755 16.6004C18.2997 16.7762 18.0612 16.875 17.8126 16.875ZM17.9422 9.20545L9.54459 0.807791C9.42739 0.69067 9.26848 0.624878 9.10279 0.624878C8.9371 0.624878 8.77819 0.69067 8.661 0.807791L5.48834 3.98435L3.56646 2.05779C3.44919 1.94062 3.29017 1.87483 3.12439 1.87491C2.95861 1.87498 2.79965 1.94091 2.68248 2.05818C2.56531 2.17546 2.49952 2.33448 2.4996 2.50026C2.49967 2.66603 2.5656 2.82499 2.68287 2.94217L4.60475 4.86404L1.17193 8.29451C0.82033 8.64614 0.622803 9.12303 0.622803 9.62029C0.622803 10.1176 0.82033 10.5944 1.17193 10.9461L7.80396 17.5781C8.15559 17.9297 8.63249 18.1272 9.12975 18.1272C9.627 18.1272 10.1039 17.9297 10.4555 17.5781L17.9422 10.0914C18.0006 10.0333 18.0469 9.96428 18.0785 9.88826C18.1101 9.81225 18.1263 9.73074 18.1263 9.64842C18.1263 9.5661 18.1101 9.48459 18.0785 9.40857C18.0469 9.33255 18.0006 9.26352 17.9422 9.20545ZM9.57115 16.6922C9.45395 16.8093 9.29504 16.8751 9.12936 16.8751C8.96367 16.8751 8.80476 16.8093 8.68756 16.6922L2.05787 10.0625C1.94075 9.94528 1.87496 9.78637 1.87496 9.62068C1.87496 9.45499 1.94075 9.29608 2.05787 9.17888L5.48834 5.74763L7.76334 8.02263C7.51366 8.48496 7.43874 9.02171 7.55226 9.53473C7.66579 10.0478 7.96019 10.5028 8.38162 10.8166C8.80305 11.1304 9.32335 11.2821 9.8474 11.2438C10.3714 11.2055 10.8642 10.9799 11.2356 10.6082C11.6069 10.2365 11.8321 9.74354 11.8699 9.21947C11.9077 8.69539 11.7556 8.17522 11.4414 7.75407C11.1273 7.33292 10.672 7.03892 10.1588 6.92585C9.64572 6.81277 9.10904 6.88817 8.64693 7.13826L6.37271 4.86404L9.10709 2.13357L16.6204 9.64685L9.57115 16.6922ZM9.68756 8.12498C9.90446 8.12533 10.1145 8.20088 10.282 8.33875C10.4494 8.47663 10.5639 8.66829 10.6058 8.8811C10.6478 9.0939 10.6147 9.31467 10.5121 9.50579C10.4095 9.69691 10.2439 9.84655 10.0434 9.92921C9.84282 10.0119 9.61983 10.0225 9.41238 9.95915C9.20493 9.89583 9.02584 9.76255 8.90565 9.58199C8.78545 9.40144 8.73158 9.1848 8.75321 8.96898C8.77484 8.75316 8.87064 8.55152 9.02428 8.39842C9.20037 8.22293 9.43895 8.12458 9.68756 8.12498Z" fill="#191F2E"/>
</svg>
