<svg width="20" height="20" viewBox="0 0 20 20" fill="none" xmlns="http://www.w3.org/2000/svg">
<path d="M20.0001 15.9375C20.0001 16.5176 19.7696 17.074 19.3594 17.4843C18.9491 17.8945 18.3927 18.125 17.8126 18.125C17.2324 18.125 16.676 17.8945 16.2658 17.4843C15.8555 17.074 15.6251 16.5176 15.6251 15.9375C15.6251 14.0961 17.3485 12.6961 17.4219 12.6367C17.5328 12.5479 17.6706 12.4996 17.8126 12.4996C17.9546 12.4996 18.0923 12.5479 18.2032 12.6367C18.2766 12.6961 20.0001 14.0961 20.0001 15.9375ZM10.3508 9.72576C10.4816 9.59452 10.5706 9.42747 10.6065 9.2457C10.6424 9.06393 10.6237 8.8756 10.5526 8.70448C10.4816 8.53337 10.3614 8.38714 10.2073 8.28427C10.0532 8.1814 9.87206 8.1265 9.68678 8.1265C9.5015 8.1265 9.32037 8.1814 9.16627 8.28427C9.01217 8.38714 8.892 8.53337 8.82095 8.70448C8.7499 8.8756 8.73114 9.06393 8.76705 9.2457C8.80296 9.42747 8.89193 9.59452 9.02271 9.72576C9.10981 9.81316 9.2133 9.88251 9.32726 9.92982C9.44121 9.97714 9.56339 10.0015 9.68678 10.0015C9.81016 10.0015 9.93234 9.97714 10.0463 9.92982C10.1602 9.88251 10.2637 9.81316 10.3508 9.72576ZM17.9422 9.20545L9.54459 0.807791C9.42739 0.69067 9.26848 0.624878 9.10279 0.624878C8.9371 0.624878 8.77819 0.69067 8.661 0.807791L5.48834 3.98435L8.64693 7.14217C9.10904 6.89208 9.64572 6.81668 10.1588 6.92975C10.672 7.04283 11.1273 7.33682 11.4414 7.75798C11.7556 8.17913 11.9077 8.6993 11.8699 9.22338C11.8321 9.74745 11.6069 10.2404 11.2356 10.6121C10.8642 10.9838 10.3714 11.2094 9.8474 11.2477C9.32335 11.286 8.80305 11.1343 8.38162 10.8205C7.96019 10.5067 7.66579 10.0517 7.55226 9.53864C7.43874 9.02561 7.51366 8.48887 7.76334 8.02654L4.60475 4.86404L1.17193 8.29451C0.82033 8.64614 0.622803 9.12303 0.622803 9.62029C0.622803 10.1176 0.82033 10.5944 1.17193 10.9461L7.80396 17.5781C8.15559 17.9297 8.63249 18.1272 9.12975 18.1272C9.627 18.1272 10.1039 17.9297 10.4555 17.5781L17.9422 10.0914C18.0006 10.0333 18.0469 9.96428 18.0785 9.88826C18.1101 9.81225 18.1263 9.73074 18.1263 9.64842C18.1263 9.5661 18.1101 9.48459 18.0785 9.40857C18.0469 9.33255 18.0006 9.26352 17.9422 9.20545ZM3.56725 2.05779C3.44997 1.94052 3.29091 1.87463 3.12506 1.87463C2.95921 1.87463 2.80015 1.94052 2.68287 2.05779C2.5656 2.17507 2.49971 2.33413 2.49971 2.49998C2.49971 2.66583 2.5656 2.82489 2.68287 2.94217L4.60475 4.86404L5.48834 3.98435L3.56725 2.05779Z" fill="#191F2E"/>
</svg>
