<svg width="20" height="20" viewBox="0 0 20 20" fill="none" xmlns="http://www.w3.org/2000/svg">
<path d="M19.375 8.125V12.0312C19.3741 12.3026 19.2852 12.5663 19.1219 12.7829C18.9585 12.9995 18.7294 13.1573 18.4688 13.2328L10.625 15.4688V18.125C10.625 18.2908 10.5592 18.4497 10.4419 18.5669C10.3247 18.6842 10.1658 18.75 10 18.75C9.83424 18.75 9.67527 18.6842 9.55806 18.5669C9.44085 18.4497 9.375 18.2908 9.375 18.125V15.4688C9.37594 15.1974 9.46475 14.9337 9.62812 14.7171C9.7915 14.5005 10.0206 14.3427 10.2812 14.2672L18.125 12.0312V8.125H16.875V10C16.875 10.3315 16.7433 10.6495 16.5089 10.8839C16.2745 11.1183 15.9565 11.25 15.625 11.25H3.75C3.41848 11.25 3.10054 11.1183 2.86612 10.8839C2.6317 10.6495 2.5 10.3315 2.5 10V8.125H1.25C1.08424 8.125 0.925268 8.05915 0.808058 7.94194C0.690848 7.82473 0.625 7.66576 0.625 7.5C0.625 7.33424 0.690848 7.17527 0.808058 7.05806C0.925268 6.94085 1.08424 6.875 1.25 6.875H2.5V5C2.5 4.66848 2.6317 4.35054 2.86612 4.11612C3.10054 3.8817 3.41848 3.75 3.75 3.75H15.625C15.9565 3.75 16.2745 3.8817 16.5089 4.11612C16.7433 4.35054 16.875 4.66848 16.875 5V6.875H18.125C18.4565 6.875 18.7745 7.0067 19.0089 7.24112C19.2433 7.47554 19.375 7.79348 19.375 8.125Z" fill="#191F2E"/>
</svg>
