<svg width="20" height="20" viewBox="0 0 20 20" fill="none" xmlns="http://www.w3.org/2000/svg">
<path d="M16.875 1.5625H5.625C4.71364 1.56353 3.83989 1.92603 3.19546 2.57046C2.55103 3.21489 2.18853 4.08864 2.1875 5V10.625C2.1875 11.2052 2.41797 11.7616 2.8282 12.1718C3.23844 12.582 3.79484 12.8125 4.375 12.8125H7.47188L7.1875 16.1719C7.1875 16.1977 7.1875 16.2242 7.1875 16.25C7.1875 16.9959 7.48382 17.7113 8.01126 18.2387C8.53871 18.7662 9.25408 19.0625 10 19.0625C10.7459 19.0625 11.4613 18.7662 11.9887 18.2387C12.5162 17.7113 12.8125 16.9959 12.8125 16.25C12.8125 16.2242 12.8125 16.1977 12.8125 16.1719L12.5312 12.8125H15.625C16.2052 12.8125 16.7616 12.582 17.1718 12.1718C17.582 11.7616 17.8125 11.2052 17.8125 10.625V2.5C17.8125 2.25136 17.7137 2.0129 17.5379 1.83709C17.3621 1.66127 17.1236 1.5625 16.875 1.5625ZM5.625 3.4375H12.5V5.3125C12.5 5.56114 12.5988 5.7996 12.7746 5.97541C12.9504 6.15123 13.1889 6.25 13.4375 6.25C13.6861 6.25 13.9246 6.15123 14.1004 5.97541C14.2762 5.7996 14.375 5.56114 14.375 5.3125V3.4375H15.9375V7.5H4.0625V5C4.0625 4.5856 4.22712 4.18817 4.52015 3.89515C4.81317 3.60212 5.2106 3.4375 5.625 3.4375ZM15.625 10.9375H12.1875C11.9665 10.9376 11.7481 10.9845 11.5466 11.0752C11.3451 11.1659 11.1651 11.2983 11.0185 11.4637C10.872 11.6291 10.7621 11.8237 10.6963 12.0346C10.6305 12.2456 10.6102 12.4681 10.6367 12.6875L10.9367 16.2812C10.9367 16.5299 10.8379 16.7683 10.6621 16.9442C10.4863 17.12 10.2479 17.2188 9.99922 17.2188C9.75058 17.2188 9.51212 17.12 9.33631 16.9442C9.16049 16.7683 9.06172 16.5299 9.06172 16.2812L9.36172 12.6875C9.38822 12.4682 9.36794 12.2459 9.30222 12.035C9.2365 11.8242 9.12683 11.6297 8.98044 11.4643C8.83405 11.2989 8.65427 11.1665 8.45295 11.0757C8.25163 10.9849 8.03335 10.9378 7.8125 10.9375H4.375C4.29212 10.9375 4.21263 10.9046 4.15403 10.846C4.09542 10.7874 4.0625 10.7079 4.0625 10.625V9.375H15.9375V10.625C15.9375 10.7079 15.9046 10.7874 15.846 10.846C15.7874 10.9046 15.7079 10.9375 15.625 10.9375Z" fill="#191F2E"/>
</svg>
