<svg width="20" height="20" viewBox="0 0 20 20" fill="none" xmlns="http://www.w3.org/2000/svg">
<path d="M18.2399 1.76016C17.7124 1.23275 16.9971 0.936462 16.2512 0.936462C15.5053 0.936462 14.7899 1.23275 14.2625 1.76016C14.25 1.77188 14.2391 1.78438 14.2274 1.79688L10.1563 6.32813L9.67032 5.84297C9.46719 5.63982 9.22603 5.47867 8.96062 5.36872C8.6952 5.25878 8.41073 5.20219 8.12345 5.20219C7.83616 5.20219 7.55169 5.25878 7.28627 5.36872C7.02086 5.47867 6.7797 5.63982 6.57657 5.84297L0.587507 11.8367C0.500107 11.9238 0.43076 12.0273 0.383442 12.1413C0.336125 12.2552 0.311768 12.3774 0.311768 12.5008C0.311768 12.6242 0.336125 12.7463 0.383442 12.8603C0.43076 12.9743 0.500107 13.0777 0.587507 13.1648L6.83751 19.4148C6.9246 19.5022 7.0281 19.5716 7.14205 19.6189C7.25601 19.6662 7.37818 19.6906 7.50157 19.6906C7.62496 19.6906 7.74713 19.6662 7.86109 19.6189C7.97504 19.5716 8.07854 19.5022 8.16563 19.4148L14.1578 13.4227C14.361 13.2195 14.5221 12.9784 14.6321 12.713C14.742 12.4475 14.7986 12.1631 14.7986 11.8758C14.7986 11.5885 14.742 11.304 14.6321 11.0386C14.5221 10.7732 14.361 10.532 14.1578 10.3289L13.6719 9.84375L18.2031 5.775C18.2156 5.76328 18.2281 5.75235 18.2399 5.73985C18.5013 5.47864 18.7088 5.16845 18.8503 4.82702C18.9919 4.48559 19.0647 4.11961 19.0647 3.75C19.0647 3.3804 18.9919 3.01441 18.8503 2.67298C18.7088 2.33155 18.5013 2.02136 18.2399 1.76016ZM7.50001 17.4219L6.64063 16.5625L8.16485 15.0375C8.34097 14.8614 8.43991 14.6225 8.43991 14.3734C8.43991 14.1244 8.34097 13.8855 8.16485 13.7094C7.98873 13.5333 7.74986 13.4343 7.50079 13.4343C7.25172 13.4343 7.01285 13.5333 6.83673 13.7094L5.31251 15.2344L4.76563 14.6875L6.28985 13.1625C6.46597 12.9864 6.56491 12.7475 6.56491 12.4984C6.56491 12.2494 6.46597 12.0105 6.28985 11.8344C6.11373 11.6583 5.87486 11.5593 5.62579 11.5593C5.37672 11.5593 5.13785 11.6583 4.96173 11.8344L3.43751 13.3594L2.57813 12.5L5.62501 9.45313L10.5469 14.375L7.50001 17.4219ZM16.9289 4.39688L12.1711 8.66641C12.0135 8.8082 11.8863 8.9806 11.7974 9.1731C11.7085 9.3656 11.6597 9.57418 11.654 9.78613C11.6483 9.99809 11.6858 10.209 11.7643 10.406C11.8427 10.603 11.9604 10.782 12.1102 10.932L12.8289 11.6508C12.858 11.6798 12.881 11.7143 12.8967 11.7522C12.9125 11.7901 12.9206 11.8308 12.9206 11.8719C12.9206 11.9129 12.9125 11.9536 12.8967 11.9915C12.881 12.0295 12.858 12.0639 12.8289 12.093L11.875 13.0469L6.95313 8.125L7.90626 7.17188C7.93528 7.14282 7.96975 7.11977 8.00768 7.10405C8.04562 7.08832 8.08628 7.08023 8.12735 7.08023C8.16842 7.08023 8.20908 7.08832 8.24702 7.10405C8.28496 7.11977 8.31942 7.14282 8.34844 7.17188L9.06251 7.89063C9.21257 8.04043 9.39155 8.15812 9.58855 8.23653C9.78555 8.31495 9.99645 8.35245 10.2084 8.34674C10.4204 8.34104 10.6289 8.29226 10.8214 8.20337C11.0139 8.11448 11.1863 7.98734 11.3281 7.82969L15.5977 3.07188C15.6849 2.98467 15.7884 2.9155 15.9023 2.8683C16.0163 2.8211 16.1384 2.79681 16.2617 2.79681C16.3851 2.79681 16.5072 2.8211 16.6211 2.8683C16.7351 2.9155 16.8386 2.98467 16.9258 3.07188C17.013 3.15908 17.0822 3.26261 17.1294 3.37655C17.1766 3.49049 17.2009 3.61261 17.2009 3.73594C17.2009 3.85927 17.1766 3.98139 17.1294 4.09533C17.0822 4.20927 17.013 4.3128 16.9258 4.4L16.9289 4.39688Z" fill="#191F2E"/>
</svg>
