<svg width="20" height="20" viewBox="0 0 20 20" fill="none" xmlns="http://www.w3.org/2000/svg">
<path d="M18.4375 2.5C18.4375 2.25136 18.3388 2.0129 18.163 1.83709C17.9871 1.66127 17.7487 1.5625 17.5 1.5625C14.0016 1.5625 10.4688 5.35469 8.44536 7.96875C7.7063 7.77792 6.93335 7.75884 6.18577 7.91297C5.43819 8.06709 4.73582 8.39033 4.1325 8.8579C3.52918 9.32548 3.04091 9.92498 2.70513 10.6105C2.36935 11.2959 2.19497 12.0492 2.19536 12.8125C2.19536 13.75 1.95317 14.5867 1.47427 15.2937C1.27317 15.6003 1.02325 15.8719 0.734422 16.0977C0.56603 16.207 0.437622 16.3679 0.36846 16.5564C0.299298 16.7449 0.293111 16.9507 0.350828 17.143C0.409768 17.3375 0.529993 17.5078 0.693584 17.6284C0.857175 17.7491 1.05537 17.8137 1.25864 17.8125H7.19614C7.95872 17.8116 8.71098 17.6362 9.39537 17.2999C10.0798 16.9635 10.6782 16.4751 11.1448 15.872C11.6114 15.2688 11.9339 14.5669 12.0875 13.82C12.2412 13.073 12.2219 12.3009 12.0313 11.5625C14.6477 9.53516 18.4375 6 18.4375 2.5ZM16.3766 3.62422C16.0641 4.63359 15.3493 5.77188 14.2735 6.97656C14.0391 7.24141 13.7922 7.5 13.543 7.74922C13.1629 7.2724 12.7305 6.83974 12.254 6.45937C12.5032 6.21016 12.761 5.96563 13.0258 5.72891C14.2305 4.65234 15.368 3.93984 16.3766 3.62422ZM7.19301 15.9375H3.2813C3.81351 14.9828 4.08662 13.9054 4.07348 12.8125C4.07348 12.1944 4.25676 11.5902 4.60014 11.0763C4.94352 10.5624 5.43158 10.1619 6.0026 9.92538C6.57362 9.68885 7.20195 9.62697 7.80814 9.74755C8.41433 9.86812 8.97115 10.1658 9.40819 10.6028C9.84523 11.0398 10.1429 11.5967 10.2634 12.2028C10.384 12.809 10.3221 13.4374 10.0856 14.0084C9.84908 14.5794 9.44854 15.0675 8.93464 15.4108C8.42074 15.7542 7.81655 15.9375 7.19848 15.9375H7.19301ZM10.1758 8.80312C10.4196 8.49609 10.6875 8.17109 10.975 7.83828C11.4232 8.18006 11.8234 8.58052 12.1649 9.02891C11.8321 9.31641 11.5071 9.58438 11.2 9.82812C10.9099 9.43885 10.5649 9.09361 10.1758 8.80312Z" fill="#191F2E"/>
</svg>
