<svg width="20" height="20" viewBox="0 0 20 20" fill="none" xmlns="http://www.w3.org/2000/svg">
<path d="M18.086 12.7055C17.9197 12.5723 17.713 12.4998 17.5 12.4998C17.287 12.4998 17.0804 12.5723 16.9141 12.7055C16.7188 12.8625 15 14.2969 15 16.25C15 16.913 15.2634 17.5489 15.7323 18.0178C16.2011 18.4866 16.837 18.75 17.5 18.75C18.1631 18.75 18.799 18.4866 19.2678 18.0178C19.7366 17.5489 20 16.913 20 16.25C20 14.2969 18.2813 12.8625 18.086 12.7055ZM17.5 16.875C17.3343 16.875 17.1753 16.8091 17.0581 16.6919C16.9409 16.5747 16.875 16.4158 16.875 16.25C16.875 15.7187 17.1805 15.1844 17.5 14.7789C17.818 15.1828 18.125 15.7164 18.125 16.25C18.125 16.4158 18.0592 16.5747 17.942 16.6919C17.8248 16.8091 17.6658 16.875 17.5 16.875ZM18.1633 8.98437L9.76566 0.586713C9.67856 0.499313 9.57507 0.429966 9.46111 0.382649C9.34716 0.335331 9.22499 0.310974 9.1016 0.310974C8.97821 0.310974 8.85604 0.335331 8.74208 0.382649C8.62813 0.429966 8.52463 0.499313 8.43754 0.586713L5.48832 3.53828L3.78754 1.83671C3.70033 1.74951 3.5968 1.68033 3.48286 1.63314C3.36892 1.58594 3.2468 1.56165 3.12347 1.56165C2.8744 1.56165 2.63553 1.66059 2.45941 1.83671C2.28329 2.01283 2.18435 2.2517 2.18435 2.50078C2.18435 2.74985 2.28329 2.98872 2.45941 3.16484L4.16254 4.86406L0.953161 8.07343C0.750009 8.27656 0.588859 8.51772 0.478913 8.78314C0.368967 9.04855 0.312378 9.33302 0.312378 9.62031C0.312378 9.90759 0.368967 10.1921 0.478913 10.4575C0.588859 10.7229 0.750009 10.9641 0.953161 11.1672L7.58285 17.7969C7.78598 18 8.02714 18.1612 8.29255 18.2711C8.55797 18.3811 8.84244 18.4377 9.12972 18.4377C9.41701 18.4377 9.70148 18.3811 9.96689 18.2711C10.2323 18.1612 10.4735 18 10.6766 17.7969L18.1633 10.3125C18.2507 10.2254 18.3201 10.1219 18.3674 10.008C18.4147 9.894 18.4391 9.77182 18.4391 9.64843C18.4391 9.52504 18.4147 9.40287 18.3674 9.28892C18.3201 9.17496 18.2507 9.07147 18.1633 8.98437ZM9.35082 16.4711C9.32179 16.5001 9.28733 16.5232 9.24939 16.5389C9.21145 16.5546 9.17079 16.5627 9.12972 16.5627C9.08866 16.5627 9.04799 16.5546 9.01005 16.5389C8.97212 16.5232 8.93765 16.5001 8.90863 16.4711L2.27894 9.84375C2.24989 9.81472 2.22684 9.78026 2.21111 9.74232C2.19538 9.70438 2.18729 9.66372 2.18729 9.62265C2.18729 9.58158 2.19538 9.54092 2.21111 9.50298C2.22684 9.46505 2.24989 9.43058 2.27894 9.40156L5.48832 6.18984L7.15003 7.85078C6.86454 8.4495 6.79984 9.12986 6.96738 9.77167C7.13491 10.4135 7.52389 10.9754 8.0656 11.3582C8.6073 11.741 9.26687 11.92 9.92778 11.8636C10.5887 11.8072 11.2084 11.5191 11.6774 11.05C12.1465 10.581 12.4346 9.9613 12.491 9.3004C12.5474 8.63949 12.3684 7.97992 11.9856 7.43821C11.6028 6.89651 11.0409 6.50753 10.399 6.33999C9.75725 6.17246 9.07688 6.23716 8.47816 6.52265L6.81488 4.86406L9.10316 2.57812L16.1719 9.64687L9.35082 16.4711ZM9.68754 8.125C9.87296 8.125 10.0542 8.17998 10.2084 8.28299C10.3626 8.38601 10.4827 8.53242 10.5537 8.70373C10.6246 8.87504 10.6432 9.06354 10.607 9.24539C10.5708 9.42725 10.4816 9.5943 10.3504 9.72541C10.2193 9.85652 10.0523 9.94581 9.87043 9.98198C9.68857 10.0182 9.50008 9.99959 9.32877 9.92863C9.15746 9.85768 9.01105 9.73751 8.90803 9.58334C8.80502 9.42917 8.75004 9.24792 8.75004 9.0625C8.75004 8.81386 8.84881 8.5754 9.02462 8.39958C9.20044 8.22377 9.43889 8.125 9.68754 8.125Z" fill="#191F2E"/>
</svg>
