<svg width="20" height="20" viewBox="0 0 20 20" fill="none" xmlns="http://www.w3.org/2000/svg">
<path d="M16.875 1.875H5.625C4.7962 1.875 4.00134 2.20424 3.41529 2.79029C2.82924 3.37634 2.5 4.1712 2.5 5V10.625C2.5 11.1223 2.69754 11.5992 3.04917 11.9508C3.40081 12.3025 3.87772 12.5 4.375 12.5H8.125L7.50859 16.1461C7.50298 16.1804 7.50011 16.2152 7.5 16.25C7.5 16.913 7.76339 17.5489 8.23223 18.0178C8.70107 18.4866 9.33696 18.75 10 18.75C10.663 18.75 11.2989 18.4866 11.7678 18.0178C12.2366 17.5489 12.5 16.913 12.5 16.25C12.4999 16.2152 12.497 16.1804 12.4914 16.1461L11.875 12.5H15.625C16.1223 12.5 16.5992 12.3025 16.9508 11.9508C17.3025 11.5992 17.5 11.1223 17.5 10.625V2.5C17.5 2.33424 17.4342 2.17527 17.3169 2.05806C17.1997 1.94085 17.0408 1.875 16.875 1.875ZM5.625 3.125H13.75V6.25C13.75 6.41576 13.8158 6.57473 13.9331 6.69194C14.0503 6.80915 14.2092 6.875 14.375 6.875C14.5408 6.875 14.6997 6.80915 14.8169 6.69194C14.9342 6.57473 15 6.41576 15 6.25V3.125H16.25V8.75H3.75V5C3.75 4.50272 3.94754 4.02581 4.29917 3.67417C4.65081 3.32254 5.12772 3.125 5.625 3.125Z" fill="#191F2E"/>
</svg>
