<svg width="20" height="20" viewBox="0 0 20 20" fill="none" xmlns="http://www.w3.org/2000/svg">
<path d="M18.125 6.875H16.875V5C16.875 4.66848 16.7433 4.35054 16.5089 4.11612C16.2745 3.8817 15.9565 3.75 15.625 3.75H3.75C3.41848 3.75 3.10054 3.8817 2.86612 4.11612C2.6317 4.35054 2.5 4.66848 2.5 5V6.875H1.25C1.08424 6.875 0.925268 6.94085 0.808058 7.05806C0.690848 7.17527 0.625 7.33424 0.625 7.5C0.625 7.66576 0.690848 7.82473 0.808058 7.94194C0.925268 8.05915 1.08424 8.125 1.25 8.125H2.5V10C2.5 10.3315 2.6317 10.6495 2.86612 10.8839C3.10054 11.1183 3.41848 11.25 3.75 11.25H15.625C15.9565 11.25 16.2745 11.1183 16.5089 10.8839C16.7433 10.6495 16.875 10.3315 16.875 10V8.125H18.125V12.0312L10.2812 14.2695C10.021 14.3449 9.79216 14.5024 9.62882 14.7185C9.46549 14.9347 9.37645 15.1978 9.375 15.4688V18.125C9.375 18.2908 9.44085 18.4497 9.55806 18.5669C9.67527 18.6842 9.83424 18.75 10 18.75C10.1658 18.75 10.3247 18.6842 10.4419 18.5669C10.5592 18.4497 10.625 18.2908 10.625 18.125V15.4688L18.4688 13.2281C18.7286 13.1529 18.9572 12.9957 19.1205 12.7801C19.2838 12.5644 19.373 12.3018 19.375 12.0312V8.125C19.375 7.79348 19.2433 7.47554 19.0089 7.24112C18.7745 7.0067 18.4565 6.875 18.125 6.875ZM15.625 10H3.75V5H15.625V10Z" fill="#191F2E"/>
</svg>
