<svg width="20" height="20" viewBox="0 0 20 20" fill="none" xmlns="http://www.w3.org/2000/svg">
<path d="M15.9039 3.9844C14.7192 2.81891 13.2164 2.02961 11.5844 1.71571C9.95242 1.4018 8.26406 1.5773 6.73152 2.22013C5.19898 2.86297 3.89064 3.94447 2.97095 5.3287C2.05126 6.71292 1.56125 8.33812 1.5625 10C1.5625 13.4938 3.71875 16.4258 7.1875 17.6516C7.61171 17.8016 8.06571 17.8476 8.51138 17.7858C8.95705 17.724 9.38139 17.5561 9.74876 17.2964C10.1161 17.0366 10.4158 16.6925 10.6227 16.2929C10.8295 15.8933 10.9375 15.45 10.9375 15C10.9375 14.7514 11.0363 14.5129 11.2121 14.3371C11.3879 14.1613 11.6264 14.0625 11.875 14.0625H15.4852C16.1232 14.0655 16.7431 13.8502 17.2419 13.4523C17.7408 13.0544 18.0885 12.4978 18.2273 11.875C18.3722 11.2366 18.4428 10.5836 18.4375 9.92893C18.4298 8.81968 18.2019 7.723 17.7669 6.70255C17.332 5.68209 16.6988 4.75817 15.9039 3.9844ZM16.3992 11.4586C16.3527 11.6659 16.2366 11.851 16.0703 11.9831C15.9041 12.1153 15.6976 12.1866 15.4852 12.1852H11.875C11.1291 12.1852 10.4137 12.4815 9.88626 13.0089C9.35882 13.5364 9.0625 14.2518 9.0625 14.9977C9.06233 15.1476 9.02622 15.2952 8.9572 15.4283C8.88818 15.5613 8.78827 15.6759 8.66583 15.7624C8.5434 15.8489 8.40201 15.9047 8.25354 15.9253C8.10506 15.9458 7.95382 15.9305 7.8125 15.8805C6.51172 15.4211 5.41797 14.6492 4.65 13.6492C3.85222 12.601 3.42567 11.3173 3.4375 10C3.43741 8.27125 4.11948 6.61227 5.33552 5.3835C6.55157 4.15473 8.20336 3.45543 9.93203 3.43752H10C11.7287 3.44456 13.3855 4.13064 14.6131 5.34786C15.8407 6.56507 16.5408 8.21593 16.5625 9.94455C16.5668 10.4549 16.512 10.964 16.3992 11.4617V11.4586ZM11.25 5.93752C11.25 6.18475 11.1767 6.42642 11.0393 6.63199C10.902 6.83755 10.7068 6.99776 10.4784 7.09237C10.2499 7.18698 9.99862 7.21174 9.75614 7.1635C9.51366 7.11527 9.29093 6.99622 9.11612 6.82141C8.9413 6.64659 8.82225 6.42386 8.77402 6.18139C8.72579 5.93891 8.75054 5.68758 8.84515 5.45917C8.93976 5.23076 9.09998 5.03554 9.30554 4.89819C9.5111 4.76083 9.75278 4.68752 10 4.68752C10.3315 4.68752 10.6495 4.81922 10.8839 5.05364C11.1183 5.28806 11.25 5.606 11.25 5.93752ZM7.8125 7.81252C7.8125 8.05975 7.73919 8.30142 7.60184 8.50699C7.46449 8.71255 7.26926 8.87276 7.04086 8.96737C6.81245 9.06198 6.56112 9.08674 6.31864 9.0385C6.07616 8.99027 5.85343 8.87122 5.67862 8.69641C5.5038 8.52159 5.38475 8.29886 5.33652 8.05639C5.28829 7.81391 5.31304 7.56258 5.40765 7.33417C5.50226 7.10576 5.66248 6.91054 5.86804 6.77319C6.0736 6.63583 6.31528 6.56252 6.5625 6.56252C6.89402 6.56252 7.21197 6.69422 7.44639 6.92864C7.68081 7.16306 7.8125 7.481 7.8125 7.81252ZM7.8125 12.1875C7.8125 12.4348 7.73919 12.6764 7.60184 12.882C7.46449 13.0875 7.26926 13.2478 7.04086 13.3424C6.81245 13.437 6.56112 13.4617 6.31864 13.4135C6.07616 13.3653 5.85343 13.2462 5.67862 13.0714C5.5038 12.8966 5.38475 12.6739 5.33652 12.4314C5.28829 12.1889 5.31304 11.9376 5.40765 11.7092C5.50226 11.4808 5.66248 11.2855 5.86804 11.1482C6.0736 11.0108 6.31528 10.9375 6.5625 10.9375C6.89402 10.9375 7.21197 11.0692 7.44639 11.3036C7.68081 11.5381 7.8125 11.856 7.8125 12.1875ZM14.6875 7.81252C14.6875 8.05975 14.6142 8.30142 14.4768 8.50699C14.3395 8.71255 14.1443 8.87276 13.9159 8.96737C13.6874 9.06198 13.4361 9.08674 13.1936 9.0385C12.9512 8.99027 12.7284 8.87122 12.5536 8.69641C12.3788 8.52159 12.2598 8.29886 12.2115 8.05639C12.1633 7.81391 12.188 7.56258 12.2827 7.33417C12.3773 7.10576 12.5375 6.91054 12.743 6.77319C12.9486 6.63583 13.1903 6.56252 13.4375 6.56252C13.769 6.56252 14.087 6.69422 14.3214 6.92864C14.5558 7.16306 14.6875 7.481 14.6875 7.81252Z" fill="#191F2E"/>
</svg>
