<svg width="20" height="20" viewBox="0 0 20 20" fill="none" xmlns="http://www.w3.org/2000/svg">
<path d="M15.6852 4.21016C14.1724 2.71218 12.1289 1.87282 10 1.875H9.91641C7.77604 1.89703 5.73083 2.76276 4.22513 4.28412C2.71943 5.80547 1.87489 7.85953 1.875 10C1.875 13.3594 3.95156 16.1766 7.29375 17.357C7.67071 17.4899 8.07404 17.5305 8.46992 17.4754C8.86581 17.4202 9.24269 17.271 9.56898 17.0401C9.89527 16.8092 10.1614 16.5035 10.3452 16.1485C10.5289 15.7936 10.6249 15.3997 10.625 15C10.625 14.6685 10.7567 14.3505 10.9911 14.1161C11.2255 13.8817 11.5435 13.75 11.875 13.75H15.4852C16.0522 13.7527 16.6032 13.5615 17.0466 13.2079C17.49 12.8543 17.7991 12.3597 17.9227 11.8063C18.0624 11.1912 18.1303 10.562 18.125 9.93125C18.117 8.86365 17.8973 7.80823 17.4785 6.82617C17.0597 5.84411 16.4501 4.95493 15.6852 4.21016ZM6.5625 13.125C6.37708 13.125 6.19582 13.07 6.04165 12.967C5.88748 12.864 5.76732 12.7176 5.69636 12.5463C5.62541 12.375 5.60684 12.1865 5.64301 12.0046C5.67919 11.8228 5.76848 11.6557 5.89959 11.5246C6.0307 11.3935 6.19775 11.3042 6.3796 11.268C6.56146 11.2318 6.74996 11.2504 6.92127 11.3214C7.09257 11.3923 7.23899 11.5125 7.342 11.6667C7.44502 11.8208 7.5 12.0021 7.5 12.1875C7.5 12.4361 7.40123 12.6746 7.22541 12.8504C7.0496 13.0262 6.81114 13.125 6.5625 13.125ZM6.5625 8.75C6.37708 8.75 6.19582 8.69502 6.04165 8.59201C5.88748 8.48899 5.76732 8.34258 5.69636 8.17127C5.62541 7.99996 5.60684 7.81146 5.64301 7.62961C5.67919 7.44775 5.76848 7.2807 5.89959 7.14959C6.0307 7.01848 6.19775 6.92919 6.3796 6.89302C6.56146 6.85684 6.74996 6.87541 6.92127 6.94637C7.09257 7.01732 7.23899 7.13749 7.342 7.29166C7.44502 7.44583 7.5 7.62708 7.5 7.8125C7.5 8.06114 7.40123 8.2996 7.22541 8.47542C7.0496 8.65123 6.81114 8.75 6.5625 8.75ZM10 6.875C9.81458 6.875 9.63332 6.82002 9.47915 6.71701C9.32498 6.61399 9.20482 6.46758 9.13386 6.29627C9.06291 6.12496 9.04434 5.93646 9.08051 5.75461C9.11669 5.57275 9.20598 5.4057 9.33709 5.27459C9.4682 5.14348 9.63525 5.05419 9.8171 5.01802C9.99896 4.98184 10.1875 5.00041 10.3588 5.07137C10.5301 5.14232 10.6765 5.26249 10.7795 5.41666C10.8825 5.57083 10.9375 5.75208 10.9375 5.9375C10.9375 6.18614 10.8387 6.4246 10.6629 6.60042C10.4871 6.77623 10.2486 6.875 10 6.875ZM13.4375 8.75C13.2521 8.75 13.0708 8.69502 12.9167 8.59201C12.7625 8.48899 12.6423 8.34258 12.5714 8.17127C12.5004 7.99996 12.4818 7.81146 12.518 7.62961C12.5542 7.44775 12.6435 7.2807 12.7746 7.14959C12.9057 7.01848 13.0727 6.92919 13.2546 6.89302C13.4365 6.85684 13.625 6.87541 13.7963 6.94637C13.9676 7.01732 14.114 7.13749 14.217 7.29166C14.32 7.44583 14.375 7.62708 14.375 7.8125C14.375 8.06114 14.2762 8.2996 14.1004 8.47542C13.9246 8.65123 13.6861 8.75 13.4375 8.75Z" fill="#191F2E"/>
</svg>
