<svg width="20" height="20" viewBox="0 0 20 20" fill="none" xmlns="http://www.w3.org/2000/svg">
<path d="M18.1249 9.99148C18.1255 10.2142 18.0665 10.433 17.9542 10.6253C17.8418 10.8176 17.6801 10.9764 17.4858 11.0852L4.36787 18.586C4.17939 18.6929 3.96656 18.7494 3.7499 18.7501C3.55009 18.7497 3.35329 18.7014 3.176 18.6092C2.9987 18.5171 2.84608 18.3838 2.73093 18.2205C2.61577 18.0572 2.54143 17.8687 2.51415 17.6708C2.48687 17.4728 2.50743 17.2712 2.57412 17.0829L4.71083 10.8368C4.73189 10.775 4.77177 10.7213 4.82487 10.6834C4.87798 10.6454 4.94164 10.625 5.00693 10.6251H10.6249C10.7106 10.6253 10.7954 10.6078 10.874 10.5739C10.9527 10.5399 11.0235 10.4901 11.0821 10.4276C11.1408 10.3651 11.1859 10.2913 11.2148 10.2106C11.2436 10.1299 11.2556 10.0442 11.2499 9.95866C11.2357 9.79795 11.1614 9.64852 11.0417 9.5403C10.922 9.43209 10.7659 9.37307 10.6046 9.37507H5.0124C4.94721 9.37519 4.88361 9.35491 4.83052 9.31709C4.77743 9.27926 4.73749 9.22578 4.7163 9.16413L2.57255 2.91413C2.48907 2.67464 2.48041 2.41542 2.54774 2.17089C2.61506 1.92637 2.75517 1.7081 2.94947 1.54509C3.14376 1.38207 3.38305 1.28201 3.63556 1.25821C3.88806 1.2344 4.14183 1.28796 4.36318 1.41179L17.4882 8.90319C17.6812 9.01189 17.8419 9.16995 17.9538 9.36117C18.0657 9.5524 18.1247 9.76993 18.1249 9.99148Z" fill="#191F2E"/>
</svg>
