<svg width="20" height="20" viewBox="0 0 20 20" fill="none" xmlns="http://www.w3.org/2000/svg">
<path d="M18.5859 15.6321L11.082 2.5141C10.9733 2.32079 10.815 2.1599 10.6236 2.04793C10.4321 1.93596 10.2143 1.87695 9.99254 1.87695C9.77075 1.87695 9.55295 1.93596 9.3615 2.04793C9.17004 2.1599 9.01183 2.32079 8.90309 2.5141L1.41168 15.6391C1.2876 15.8606 1.23389 16.1146 1.25771 16.3673C1.28153 16.6201 1.38174 16.8596 1.54501 17.054C1.70828 17.2484 1.92687 17.3885 2.17171 17.4556C2.41654 17.5227 2.67601 17.5137 2.91559 17.4297L9.98356 15.0078H9.99137H9.9984L17.0828 17.4297C17.3231 17.5147 17.5837 17.5242 17.8295 17.4569C18.0754 17.3897 18.2948 17.2488 18.4584 17.0533C18.6219 16.8578 18.7218 16.6169 18.7446 16.363C18.7674 16.1092 18.712 15.8544 18.5859 15.6328V15.6321ZM17.4921 16.2446L10.625 13.8953V9.37504C10.625 9.20927 10.5591 9.0503 10.4419 8.93309C10.3247 8.81588 10.1657 8.75004 9.99996 8.75004C9.8342 8.75004 9.67523 8.81588 9.55802 8.93309C9.44081 9.0503 9.37496 9.20927 9.37496 9.37504V13.8891L2.50934 16.2453L2.49996 16.25L9.98903 3.12504L17.5 16.25L17.4921 16.2446Z" fill="#191F2E"/>
</svg>
