<svg width="20" height="20" viewBox="0 0 20 20" fill="none" xmlns="http://www.w3.org/2000/svg">
<path d="M17.6454 8.63122L4.51567 1.13903C4.23866 0.983845 3.92094 0.916737 3.60483 0.946646C3.28872 0.976555 2.98922 1.10206 2.74623 1.30645C2.50323 1.51084 2.32828 1.78441 2.24466 2.09072C2.16104 2.39704 2.17273 2.72156 2.27817 3.02106L4.66958 9.99059L2.27817 16.9789C2.19483 17.2145 2.16922 17.4666 2.20347 17.7141C2.23772 17.9617 2.33085 18.1974 2.47503 18.4015C2.61921 18.6056 2.81024 18.7721 3.0321 18.8871C3.25395 19.0022 3.50016 19.0623 3.75005 19.0625C4.01855 19.0619 4.28242 18.9925 4.51646 18.8609L4.52349 18.8562L17.6485 11.3507C17.8891 11.2145 18.0893 11.0169 18.2286 10.778C18.3679 10.5391 18.4413 10.2675 18.4413 9.99099C18.4413 9.71445 18.3679 9.44288 18.2286 9.20398C18.0893 8.96509 17.8891 8.76744 17.6485 8.63122H17.6454ZM4.31567 16.8148L6.32817 10.9375H10.625C10.8737 10.9375 11.1121 10.8387 11.288 10.6629C11.4638 10.4871 11.5625 10.2486 11.5625 9.99997C11.5625 9.75133 11.4638 9.51287 11.288 9.33706C11.1121 9.16124 10.8737 9.06247 10.625 9.06247H6.33364L4.31646 3.18435L16.2454 9.99138L4.31567 16.8148Z" fill="#191F2E"/>
</svg>
