<svg width="20" height="20" viewBox="0 0 20 20" fill="none" xmlns="http://www.w3.org/2000/svg">
<path d="M18.4532 17.0547C18.2903 17.2496 18.0716 17.3897 17.8265 17.4562C17.5815 17.5227 17.3219 17.5124 17.0829 17.4266L10.8368 15.2891C10.775 15.268 10.7213 15.2282 10.6834 15.1751C10.6454 15.122 10.625 15.0583 10.6251 14.993V9.37504C10.6252 9.28936 10.6078 9.20455 10.5739 9.12589C10.5399 9.04723 10.4901 8.9764 10.4276 8.91778C10.3651 8.85917 10.2912 8.81404 10.2106 8.78518C10.1299 8.75632 10.0441 8.74436 9.95865 8.75004C9.79794 8.76421 9.64851 8.83857 9.54029 8.95823C9.43207 9.07789 9.37306 9.23402 9.37506 9.39535V14.9868C9.37518 15.0519 9.3549 15.1155 9.31708 15.1686C9.27925 15.2217 9.22577 15.2617 9.16412 15.2828L2.91412 17.4266C2.67454 17.5106 2.41507 17.5196 2.17024 17.4525C1.92541 17.3853 1.70682 17.2453 1.54354 17.0509C1.38027 16.8565 1.28006 16.617 1.25625 16.3642C1.23243 16.1115 1.28613 15.8574 1.41022 15.636L8.90631 2.51019C9.01505 2.31689 9.17327 2.15599 9.36472 2.04403C9.55617 1.93206 9.77397 1.87305 9.99576 1.87305C10.2176 1.87305 10.4354 1.93206 10.6268 2.04403C10.8183 2.15599 10.9765 2.31689 11.0852 2.51019L18.586 15.6321C18.7131 15.854 18.7686 16.1098 18.7448 16.3644C18.721 16.6191 18.6192 16.8602 18.4532 17.0547Z" fill="#191F2E"/>
</svg>
