<svg width="20" height="20" viewBox="0 0 20 20" fill="none" xmlns="http://www.w3.org/2000/svg">
<path d="M19.6875 10C19.6861 11.2428 19.1917 12.4342 18.313 13.313C17.4342 14.1917 16.2428 14.6861 15 14.6875H3.4375C2.6087 14.6875 1.81384 14.3583 1.22779 13.7722C0.64174 13.1862 0.3125 12.3913 0.3125 11.5625C0.3125 10.7337 0.64174 9.93884 1.22779 9.35279C1.81384 8.76674 2.6087 8.4375 3.4375 8.4375H14.375C14.6236 8.4375 14.8621 8.53627 15.0379 8.71209C15.2137 8.8879 15.3125 9.12636 15.3125 9.375C15.3125 9.62364 15.2137 9.8621 15.0379 10.0379C14.8621 10.2137 14.6236 10.3125 14.375 10.3125H3.4375C3.10598 10.3125 2.78804 10.4442 2.55362 10.6786C2.3192 10.913 2.1875 11.231 2.1875 11.5625C2.1875 11.894 2.3192 12.212 2.55362 12.4464C2.78804 12.6808 3.10598 12.8125 3.4375 12.8125H15C15.7459 12.8125 16.4613 12.5162 16.9887 11.9887C17.5162 11.4613 17.8125 10.7459 17.8125 10C17.8125 9.25408 17.5162 8.53871 16.9887 8.01126C16.4613 7.48382 15.7459 7.1875 15 7.1875H6.25C6.00136 7.1875 5.7629 7.08873 5.58709 6.91291C5.41127 6.7371 5.3125 6.49864 5.3125 6.25C5.3125 6.00136 5.41127 5.7629 5.58709 5.58709C5.7629 5.41127 6.00136 5.3125 6.25 5.3125H15C16.2428 5.31395 17.4342 5.80827 18.313 6.68704C19.1917 7.5658 19.6861 8.75724 19.6875 10Z" fill="#191F2E"/>
</svg>
