<svg width="20" height="20" viewBox="0 0 20 20" fill="none" xmlns="http://www.w3.org/2000/svg">
<path d="M17.7593 2.24059C17.6021 2.0835 17.4059 1.97116 17.1908 1.91514C16.9758 1.85911 16.7497 1.86142 16.5358 1.92184H16.5241L1.52879 6.47184C1.28469 6.54204 1.06777 6.68493 0.906913 6.88149C0.746054 7.07805 0.64889 7.31895 0.628359 7.57211C0.607828 7.82526 0.664904 8.07867 0.791988 8.29858C0.919072 8.51849 1.11013 8.69447 1.33973 8.80309L8.02879 11.9711L11.1968 18.6601C11.2968 18.8743 11.456 19.0555 11.6556 19.1821C11.8552 19.3088 12.0869 19.3757 12.3233 19.375C12.3593 19.375 12.3952 19.3734 12.4311 19.3703C12.6834 19.3498 12.9234 19.2528 13.1189 19.092C13.3144 18.9313 13.4561 18.7146 13.5249 18.4711L18.0718 3.47574C18.0718 3.47184 18.0718 3.46793 18.0718 3.46403C18.133 3.25072 18.1363 3.02496 18.0813 2.80995C18.0264 2.59493 17.9153 2.39842 17.7593 2.24059ZM12.3304 18.1132L12.3264 18.1242L9.25145 11.6328L12.9421 7.94137C13.0543 7.82321 13.116 7.66586 13.1139 7.50289C13.1118 7.33991 13.0462 7.1842 12.9309 7.06895C12.8157 6.95369 12.6599 6.88802 12.497 6.88594C12.334 6.88385 12.1766 6.94551 12.0585 7.05778L8.36707 10.7484L1.87488 7.6734H1.88582L16.8749 3.12496L12.3304 18.1132Z" fill="#191F2E"/>
</svg>
