<svg width="20" height="20" viewBox="0 0 20 20" fill="none" xmlns="http://www.w3.org/2000/svg">
<path d="M17.9797 2.02031C17.7833 1.82389 17.5381 1.68336 17.2694 1.61319C17.0007 1.54302 16.7181 1.54575 16.4508 1.6211L16.4336 1.62656L1.44062 6.17188C1.13609 6.26017 0.865626 6.43903 0.665157 6.68469C0.464688 6.93035 0.343702 7.23119 0.318268 7.54724C0.292835 7.86329 0.364158 8.1796 0.522764 8.45416C0.68137 8.72871 0.919752 8.94852 1.20625 9.08438L7.79375 12.2094L10.9187 18.7969C11.0435 19.0645 11.2422 19.2908 11.4913 19.4492C11.7405 19.6075 12.0298 19.6913 12.325 19.6906C12.3695 19.6906 12.4148 19.6906 12.4602 19.6852C12.776 19.66 13.0764 19.5385 13.321 19.3372C13.5657 19.1359 13.7427 18.8644 13.8281 18.5594L18.3734 3.56641C18.3757 3.56084 18.3776 3.55509 18.3789 3.54922C18.4543 3.28189 18.457 2.99931 18.3868 2.73058C18.3166 2.46185 18.1761 2.21668 17.9797 2.02031ZM12.2656 17.2594L9.63125 11.6977L13.1664 8.1625C13.3425 7.98638 13.4415 7.74751 13.4415 7.49844C13.4415 7.24937 13.3425 7.0105 13.1664 6.83438C12.9903 6.65826 12.7514 6.55931 12.5023 6.55931C12.2533 6.55931 12.0144 6.65826 11.8383 6.83438L8.30312 10.3695L2.74062 7.73438L16.4062 3.59375L12.2656 17.2594Z" fill="#191F2E"/>
</svg>
