<svg width="20" height="20" viewBox="0 0 20 20" fill="none" xmlns="http://www.w3.org/2000/svg">
<path d="M19.375 10C19.3738 11.1599 18.9124 12.272 18.0922 13.0922C17.272 13.9124 16.1599 14.3738 15 14.375H3.75C2.9212 14.375 2.12634 14.0458 1.54029 13.4597C0.95424 12.8737 0.625 12.0788 0.625 11.25C0.625 10.4212 0.95424 9.62634 1.54029 9.04029C2.12634 8.45424 2.9212 8.125 3.75 8.125H15C15.4973 8.125 15.9742 8.32254 16.3258 8.67417C16.6775 9.02581 16.875 9.50272 16.875 10C16.875 10.4973 16.6775 10.9742 16.3258 11.3258C15.9742 11.6775 15.4973 11.875 15 11.875H6.25C6.08424 11.875 5.92527 11.8092 5.80806 11.6919C5.69085 11.5747 5.625 11.4158 5.625 11.25C5.625 11.0842 5.69085 10.9253 5.80806 10.8081C5.92527 10.6908 6.08424 10.625 6.25 10.625H15C15.1658 10.625 15.3247 10.5592 15.4419 10.4419C15.5592 10.3247 15.625 10.1658 15.625 10C15.625 9.83424 15.5592 9.67527 15.4419 9.55806C15.3247 9.44085 15.1658 9.375 15 9.375H3.75C3.25272 9.375 2.77581 9.57254 2.42417 9.92417C2.07254 10.2758 1.875 10.7527 1.875 11.25C1.875 11.7473 2.07254 12.2242 2.42417 12.5758C2.77581 12.9275 3.25272 13.125 3.75 13.125H15C15.8288 13.125 16.6237 12.7958 17.2097 12.2097C17.7958 11.6237 18.125 10.8288 18.125 10C18.125 9.1712 17.7958 8.37634 17.2097 7.79029C16.6237 7.20424 15.8288 6.875 15 6.875H6.25C6.08424 6.875 5.92527 6.80915 5.80806 6.69194C5.69085 6.57473 5.625 6.41576 5.625 6.25C5.625 6.08424 5.69085 5.92527 5.80806 5.80806C5.92527 5.69085 6.08424 5.625 6.25 5.625H15C16.1599 5.62624 17.272 6.08758 18.0922 6.90778C18.9124 7.72798 19.3738 8.84006 19.375 10Z" fill="#191F2E"/>
</svg>
