<svg width="20" height="20" viewBox="0 0 20 20" fill="none" xmlns="http://www.w3.org/2000/svg">
<path d="M16.6 10.6633L10.1891 17.0695C9.3097 17.9486 8.11716 18.4423 6.87378 18.4421C5.6304 18.4418 4.43803 17.9477 3.55898 17.0683C2.67993 16.189 2.18621 14.9964 2.18643 13.7531C2.18665 12.5097 2.68079 11.3173 3.56015 10.4383L11.2289 2.7906C11.8152 2.20464 12.6102 1.87557 13.4391 1.87579C13.8495 1.8759 14.2559 1.95685 14.6351 2.11401C15.0142 2.27118 15.3587 2.50148 15.6488 2.79178C15.939 3.08207 16.1691 3.42667 16.326 3.80589C16.483 4.18512 16.5637 4.59155 16.5636 5.00198C16.5635 5.41241 16.4826 5.81879 16.3254 6.19794C16.1682 6.57708 15.9379 6.92156 15.6477 7.2117L15.6344 7.2242L8.15 14.4289C8.06125 14.5142 7.95656 14.5813 7.84191 14.6262C7.72725 14.6711 7.60488 14.693 7.48177 14.6906C7.35866 14.6882 7.23722 14.6616 7.1244 14.6122C7.01158 14.5629 6.90957 14.4918 6.82421 14.4031C6.73886 14.3144 6.67181 14.2097 6.62691 14.095C6.58201 13.9804 6.56013 13.858 6.56253 13.7349C6.56492 13.6118 6.59154 13.4903 6.64086 13.3775C6.69019 13.2647 6.76125 13.1627 6.85 13.0773L14.3273 5.88045C14.5611 5.64527 14.6918 5.32689 14.6908 4.99533C14.6897 4.66377 14.557 4.3462 14.3219 4.11248C14.2054 3.99675 14.0673 3.90509 13.9155 3.84274C13.7636 3.78038 13.6009 3.74855 13.4368 3.74905C13.1052 3.75008 12.7876 3.88277 12.5539 4.11795L4.88515 11.7633C4.35772 12.2909 4.0615 13.0064 4.06165 13.7525C4.06172 14.1219 4.13455 14.4877 4.27598 14.8289C4.41741 15.1702 4.62467 15.4802 4.88593 15.7414C5.14719 16.0025 5.45733 16.2097 5.79864 16.351C6.13995 16.4923 6.50575 16.565 6.87516 16.5649C7.6212 16.5647 8.33663 16.2682 8.86406 15.7406L15.275 9.33435C15.3622 9.24715 15.4657 9.17797 15.5797 9.13078C15.6936 9.08358 15.8157 9.05929 15.9391 9.05929C16.0624 9.05929 16.1845 9.08358 16.2984 9.13078C16.4124 9.17797 16.5159 9.24715 16.6031 9.33435C16.6903 9.42156 16.7595 9.52509 16.8067 9.63903C16.8539 9.75297 16.8782 9.87509 16.8782 9.99842C16.8782 10.1217 16.8539 10.2439 16.8067 10.3578C16.7595 10.4717 16.6903 10.5753 16.6031 10.6625L16.6 10.6633Z" fill="#191F2E"/>
</svg>
