<svg width="20" height="20" viewBox="0 0 20 20" fill="none" xmlns="http://www.w3.org/2000/svg">
<path d="M16.3797 9.55781C16.4378 9.61586 16.4839 9.68479 16.5153 9.76066C16.5468 9.83653 16.563 9.91786 16.563 10C16.563 10.0821 16.5468 10.1635 16.5153 10.2393C16.4839 10.3152 16.4378 10.3841 16.3797 10.4422L9.96952 16.8484C9.14891 17.669 8.03595 18.1299 6.8755 18.1298C5.71504 18.1297 4.60215 17.6687 3.78163 16.848C2.96112 16.0274 2.5002 14.9145 2.50027 13.754C2.50035 12.5936 2.96141 11.4807 3.78202 10.6602L11.5367 2.7914C12.1226 2.20492 12.9174 1.8752 13.7464 1.87476C14.5754 1.87432 15.3705 2.2032 15.957 2.78906C16.5435 3.37492 16.8732 4.16976 16.8737 4.99873C16.8741 5.8277 16.5452 6.62289 15.9594 7.20937L8.20312 15.0781C7.85088 15.4304 7.37314 15.6283 6.87499 15.6283C6.37685 15.6283 5.89911 15.4304 5.54687 15.0781C5.19463 14.7259 4.99674 14.2481 4.99674 13.75C4.99674 13.2519 5.19463 12.7741 5.54687 12.4219L12.0547 5.81094C12.1117 5.75012 12.1803 5.70133 12.2564 5.66742C12.3326 5.63351 12.4147 5.61518 12.4981 5.6135C12.5814 5.61183 12.6643 5.62684 12.7417 5.65765C12.8192 5.68847 12.8897 5.73446 12.9491 5.79293C13.0085 5.8514 13.0556 5.92117 13.0876 5.99812C13.1197 6.07507 13.136 6.15765 13.1357 6.24101C13.1353 6.32437 13.1183 6.40681 13.0856 6.48349C13.0529 6.56016 13.0052 6.62953 12.9453 6.6875L6.43671 13.3055C6.37844 13.3633 6.33212 13.432 6.30041 13.5077C6.26869 13.5834 6.2522 13.6646 6.25187 13.7467C6.25155 13.8288 6.26739 13.9102 6.2985 13.9861C6.32961 14.0621 6.37538 14.1312 6.4332 14.1895C6.49101 14.2477 6.55973 14.294 6.63544 14.3258C6.71116 14.3575 6.79237 14.374 6.87446 14.3743C6.95655 14.3746 7.03789 14.3588 7.11385 14.3277C7.18982 14.2965 7.25891 14.2508 7.31718 14.193L15.0726 6.32812C15.4249 5.97661 15.6231 5.49956 15.6236 5.00193C15.6241 4.5043 15.4269 4.02685 15.0754 3.67461C14.7239 3.32237 14.2468 3.12419 13.7492 3.12368C13.2516 3.12317 12.7741 3.32036 12.4219 3.67187L4.66874 11.5375C4.3783 11.8275 4.14781 12.1718 3.99044 12.5509C3.83308 12.93 3.75192 13.3363 3.75159 13.7467C3.75126 14.1572 3.83178 14.5636 3.98854 14.9429C4.1453 15.3223 4.37524 15.667 4.66523 15.9574C4.95521 16.2479 5.29957 16.4784 5.67863 16.6357C6.05769 16.7931 6.46403 16.8742 6.87446 16.8746C7.28489 16.8749 7.69136 16.7944 8.07067 16.6376C8.44998 16.4809 8.7947 16.2509 9.08515 15.9609L15.4961 9.55469C15.6137 9.43798 15.7728 9.37275 15.9385 9.37333C16.1042 9.37392 16.2629 9.44027 16.3797 9.55781Z" fill="#191F2E"/>
</svg>
