<svg width="20" height="20" viewBox="0 0 20 20" fill="none" xmlns="http://www.w3.org/2000/svg">
<path d="M16.875 3.75C16.875 3.91576 16.8092 4.07473 16.6919 4.19194C16.5747 4.30915 16.4158 4.375 16.25 4.375H15V16.25C15 16.4158 14.9342 16.5747 14.8169 16.6919C14.6997 16.8092 14.5408 16.875 14.375 16.875C14.2092 16.875 14.0503 16.8092 13.9331 16.6919C13.8158 16.5747 13.75 16.4158 13.75 16.25V4.375H11.875V16.25C11.875 16.4158 11.8092 16.5747 11.6919 16.6919C11.5747 16.8092 11.4158 16.875 11.25 16.875C11.0842 16.875 10.9253 16.8092 10.8081 16.6919C10.6908 16.5747 10.625 16.4158 10.625 16.25V13.125H7.5C6.17392 13.125 4.90215 12.5982 3.96447 11.6605C3.02678 10.7229 2.5 9.45108 2.5 8.125C2.5 6.79892 3.02678 5.52715 3.96447 4.58947C4.90215 3.65178 6.17392 3.125 7.5 3.125H16.25C16.4158 3.125 16.5747 3.19085 16.6919 3.30806C16.8092 3.42527 16.875 3.58424 16.875 3.75Z" fill="#191F2E"/>
</svg>
