<svg width="20" height="20" viewBox="0 0 20 20" fill="none" xmlns="http://www.w3.org/2000/svg">
<path d="M19.2641 4.88828L14.2016 16.1383C14.1027 16.3578 13.9426 16.5441 13.7404 16.6748C13.5382 16.8055 13.3025 16.875 13.0618 16.875H1.87504C1.66631 16.8749 1.46094 16.8225 1.27766 16.7226C1.09437 16.6228 0.939017 16.4786 0.825759 16.3033C0.712501 16.1279 0.644949 15.9271 0.629266 15.7189C0.613583 15.5108 0.65027 15.302 0.735977 15.1117L5.79848 3.86172C5.89734 3.64219 6.0575 3.45588 6.25971 3.32519C6.46191 3.1945 6.69756 3.12498 6.93832 3.125H18.125C18.3338 3.12499 18.5393 3.17727 18.7227 3.27708C18.9061 3.37689 19.0615 3.52105 19.1749 3.6964C19.2882 3.87174 19.3559 4.07269 19.3716 4.28089C19.3873 4.48908 19.3506 4.6979 19.2649 4.88828H19.2641Z" fill="#191F2E"/>
</svg>
