<svg width="20" height="20" viewBox="0 0 20 20" fill="none" xmlns="http://www.w3.org/2000/svg">
<path d="M19.436 3.52656C19.2948 3.30721 19.1008 3.12686 18.8717 3.00209C18.6427 2.87732 18.3859 2.81212 18.125 2.8125H6.93833C6.63732 2.81246 6.3427 2.89936 6.08991 3.06277C5.83711 3.22617 5.63689 3.45912 5.51333 3.7336L0.450829 14.9836C0.343723 15.2215 0.297902 15.4825 0.317545 15.7426C0.337188 16.0028 0.42167 16.2539 0.563283 16.4731C0.704896 16.6922 0.899131 16.8724 1.12826 16.9972C1.3574 17.122 1.61413 17.1874 1.87505 17.1875H13.0618C13.3628 17.1875 13.6574 17.1006 13.9102 16.9372C14.163 16.7738 14.3632 16.5409 14.4868 16.2664L19.5493 5.01641C19.657 4.77854 19.7031 4.51737 19.6833 4.25699C19.6635 3.9966 19.5785 3.7454 19.436 3.52656ZM12.8594 15.3125H2.35942L7.14067 4.6875H17.6407L12.8594 15.3125Z" fill="#191F2E"/>
</svg>
