<svg width="20" height="20" viewBox="0 0 20 20" fill="none" xmlns="http://www.w3.org/2000/svg">
<path d="M16.25 3.125H7.5C6.17392 3.125 4.90215 3.65178 3.96447 4.58947C3.02678 5.52715 2.5 6.79892 2.5 8.125C2.5 9.45108 3.02678 10.7229 3.96447 11.6605C4.90215 12.5982 6.17392 13.125 7.5 13.125H10.625V16.25C10.625 16.4158 10.6908 16.5747 10.8081 16.6919C10.9253 16.8092 11.0842 16.875 11.25 16.875C11.4158 16.875 11.5747 16.8092 11.6919 16.6919C11.8092 16.5747 11.875 16.4158 11.875 16.25V4.375H13.75V16.25C13.75 16.4158 13.8158 16.5747 13.9331 16.6919C14.0503 16.8092 14.2092 16.875 14.375 16.875C14.5408 16.875 14.6997 16.8092 14.8169 16.6919C14.9342 16.5747 15 16.4158 15 16.25V4.375H16.25C16.4158 4.375 16.5747 4.30915 16.6919 4.19194C16.8092 4.07473 16.875 3.91576 16.875 3.75C16.875 3.58424 16.8092 3.42527 16.6919 3.30806C16.5747 3.19085 16.4158 3.125 16.25 3.125ZM10.625 11.875H7.5C6.50544 11.875 5.55161 11.4799 4.84835 10.7767C4.14509 10.0734 3.75 9.11956 3.75 8.125C3.75 7.13044 4.14509 6.17661 4.84835 5.47335C5.55161 4.77009 6.50544 4.375 7.5 4.375H10.625V11.875Z" fill="#191F2E"/>
</svg>
