<svg width="20" height="20" viewBox="0 0 20 20" fill="none" xmlns="http://www.w3.org/2000/svg">
<path d="M19.1743 3.6961C19.0612 3.5206 18.9059 3.37632 18.7226 3.27653C18.5393 3.17674 18.3338 3.12463 18.125 3.125H6.93832C6.69756 3.12498 6.46191 3.1945 6.25971 3.32519C6.0575 3.45588 5.89734 3.64219 5.79848 3.86172L0.735977 15.1117C0.65027 15.302 0.613583 15.5108 0.629266 15.7189C0.644949 15.9271 0.712501 16.128 0.825759 16.3033C0.939017 16.4786 1.09437 16.6228 1.27766 16.7226C1.46094 16.8225 1.66631 16.8749 1.87504 16.875H13.0618C13.3025 16.875 13.5382 16.8055 13.7404 16.6748C13.9426 16.5441 14.1027 16.3578 14.2016 16.1383L19.2641 4.88828C19.3499 4.69788 19.3866 4.48901 19.371 4.28075C19.3553 4.07249 19.2876 3.87149 19.1743 3.6961ZM13.0618 15.625H1.87504L6.93832 4.375H18.125L13.0618 15.625Z" fill="#191F2E"/>
</svg>
