<svg width="20" height="20" viewBox="0 0 20 20" fill="none" xmlns="http://www.w3.org/2000/svg">
<path d="M18.125 15H15.625V13.125H17.5C17.595 13.125 17.6887 13.1033 17.774 13.0617C17.8594 13.02 17.9341 12.9595 17.9926 12.8846C18.051 12.8097 18.0916 12.7225 18.1113 12.6296C18.131 12.5367 18.1293 12.4406 18.1062 12.3484L15.6062 2.34843C15.5724 2.21328 15.4943 2.09333 15.3845 2.00763C15.2746 1.92192 15.1393 1.87537 15 1.87537C14.8607 1.87537 14.7254 1.92192 14.6155 2.00763C14.5057 2.09333 14.4276 2.21328 14.3938 2.34843L11.8938 12.3484C11.8707 12.4406 11.869 12.5367 11.8887 12.6296C11.9084 12.7225 11.949 12.8097 12.0074 12.8846C12.0659 12.9595 12.1406 13.02 12.226 13.0617C12.3113 13.1033 12.405 13.125 12.5 13.125H14.375V15H9.375V13.75H10C10.1658 13.75 10.3247 13.6841 10.4419 13.5669C10.5592 13.4497 10.625 13.2907 10.625 13.125C10.625 12.9592 10.5592 12.8003 10.4419 12.683C10.3247 12.5658 10.1658 12.5 10 12.5H9.375V11.25H10C10.1658 11.25 10.3247 11.1841 10.4419 11.0669C10.5592 10.9497 10.625 10.7907 10.625 10.625C10.625 10.4592 10.5592 10.3003 10.4419 10.183C10.3247 10.0658 10.1658 9.99999 10 9.99999H3.125C2.95924 9.99999 2.80027 10.0658 2.68306 10.183C2.56585 10.3003 2.5 10.4592 2.5 10.625C2.5 10.7907 2.56585 10.9497 2.68306 11.0669C2.80027 11.1841 2.95924 11.25 3.125 11.25H3.75V12.5H3.125C2.95924 12.5 2.80027 12.5658 2.68306 12.683C2.56585 12.8003 2.5 12.9592 2.5 13.125C2.5 13.2907 2.56585 13.4497 2.68306 13.5669C2.80027 13.6841 2.95924 13.75 3.125 13.75H3.75V15H1.875C1.70924 15 1.55027 15.0658 1.43306 15.183C1.31585 15.3003 1.25 15.4592 1.25 15.625C1.25 15.7907 1.31585 15.9497 1.43306 16.0669C1.55027 16.1841 1.70924 16.25 1.875 16.25H18.125C18.2908 16.25 18.4497 16.1841 18.5669 16.0669C18.6842 15.9497 18.75 15.7907 18.75 15.625C18.75 15.4592 18.6842 15.3003 18.5669 15.183C18.4497 15.0658 18.2908 15 18.125 15ZM15 5.07811L16.6992 11.875H13.3008L15 5.07811ZM5 11.25H8.125V12.5H5V11.25ZM5 13.75H8.125V15H5V13.75ZM9.0625 7.49999C9.49515 7.49999 9.91808 7.37169 10.2778 7.13133C10.6375 6.89096 10.9179 6.54932 11.0835 6.14961C11.2491 5.74989 11.2924 5.31006 11.208 4.88573C11.1236 4.46139 10.9152 4.07162 10.6093 3.76569C10.3034 3.45976 9.91359 3.25143 9.48926 3.16702C9.06493 3.08262 8.62509 3.12594 8.22538 3.2915C7.82567 3.45707 7.48403 3.73745 7.24366 4.09718C7.00329 4.45691 6.875 4.87984 6.875 5.31249C6.875 5.89265 7.10547 6.44905 7.5157 6.85928C7.92594 7.26952 8.48234 7.49999 9.0625 7.49999ZM9.0625 4.37499C9.24792 4.37499 9.42918 4.42997 9.58335 4.53299C9.73752 4.636 9.85768 4.78242 9.92864 4.95372C9.99959 5.12503 10.0182 5.31353 9.98199 5.49539C9.94581 5.67724 9.85652 5.84429 9.72541 5.9754C9.5943 6.10651 9.42725 6.1958 9.2454 6.23197C9.06354 6.26815 8.87504 6.24958 8.70373 6.17863C8.53243 6.10767 8.38601 5.98751 8.283 5.83334C8.17998 5.67916 8.125 5.49791 8.125 5.31249C8.125 5.06385 8.22377 4.82539 8.39959 4.64958C8.5754 4.47376 8.81386 4.37499 9.0625 4.37499Z" fill="#191F2E"/>
</svg>
