<svg width="20" height="20" viewBox="0 0 20 20" fill="none" xmlns="http://www.w3.org/2000/svg">
<path d="M16.875 3.75H3.125C2.79348 3.75 2.47554 3.8817 2.24112 4.11612C2.0067 4.35054 1.875 4.66848 1.875 5V15C1.875 15.3315 2.0067 15.6495 2.24112 15.8839C2.47554 16.1183 2.79348 16.25 3.125 16.25H16.875C17.2065 16.25 17.5245 16.1183 17.7589 15.8839C17.9933 15.6495 18.125 15.3315 18.125 15V5C18.125 4.66848 17.9933 4.35054 17.7589 4.11612C17.5245 3.8817 17.2065 3.75 16.875 3.75ZM5 13.125C5 13.2908 4.93415 13.4497 4.81694 13.5669C4.69973 13.6842 4.54076 13.75 4.375 13.75C4.20924 13.75 4.05027 13.6842 3.93306 13.5669C3.81585 13.4497 3.75 13.2908 3.75 13.125V6.875C3.75 6.70924 3.81585 6.55027 3.93306 6.43306C4.05027 6.31585 4.20924 6.25 4.375 6.25C4.54076 6.25 4.69973 6.31585 4.81694 6.43306C4.93415 6.55027 5 6.70924 5 6.875V13.125ZM10.7266 10.0148L9.76094 10.3273L10.3578 11.1477C10.4061 11.2143 10.4407 11.2899 10.4598 11.37C10.4789 11.4501 10.482 11.5331 10.469 11.6144C10.456 11.6957 10.4271 11.7736 10.3839 11.8437C10.3408 11.9138 10.2843 11.9748 10.2176 12.023C10.1509 12.0713 10.0753 12.106 9.99527 12.1251C9.91518 12.1441 9.83213 12.1473 9.75084 12.1342C9.66955 12.1212 9.59162 12.0923 9.52151 12.0492C9.45139 12.006 9.39046 11.9495 9.34219 11.8828L8.75 11.0633L8.15391 11.8844C8.05642 12.0191 7.90942 12.1095 7.74525 12.1358C7.58109 12.1621 7.4132 12.1221 7.27852 12.0246C7.14384 11.9271 7.0534 11.7801 7.0271 11.616C7.0008 11.4518 7.04079 11.2839 7.13828 11.1492L7.73516 10.3289L6.76953 10.0164C6.69151 9.99076 6.6193 9.94999 6.55703 9.89644C6.49476 9.84288 6.44365 9.77759 6.40662 9.70428C6.33182 9.55623 6.3189 9.38453 6.3707 9.22695C6.39635 9.14893 6.43712 9.07672 6.49067 9.01445C6.54423 8.95218 6.60952 8.90107 6.68283 8.86404C6.83088 8.78924 7.00258 8.77632 7.16016 8.82812L8.125 9.14062V8.125C8.125 7.95924 8.19085 7.80027 8.30806 7.68306C8.42527 7.56585 8.58424 7.5 8.75 7.5C8.91576 7.5 9.07473 7.56585 9.19194 7.68306C9.30915 7.80027 9.375 7.95924 9.375 8.125V9.14062L10.3398 8.82812C10.4179 8.80248 10.5002 8.79245 10.5821 8.79861C10.664 8.80477 10.7439 8.827 10.8172 8.86404C10.8905 8.90107 10.9558 8.95218 11.0093 9.01445C11.0629 9.07672 11.1036 9.14893 11.1293 9.22695C11.1549 9.30498 11.165 9.38729 11.1588 9.46919C11.1527 9.55109 11.1304 9.63097 11.0934 9.70428C11.0563 9.77759 11.0052 9.84288 10.943 9.89644C10.8807 9.94999 10.8085 9.99076 10.7305 10.0164L10.7266 10.0148ZM16.3516 10.0148L15.3859 10.3273L15.9828 11.1477C16.0311 11.2143 16.0657 11.2899 16.0848 11.37C16.1039 11.4501 16.107 11.5331 16.094 11.6144C16.081 11.6957 16.0521 11.7736 16.0089 11.8437C15.9658 11.9138 15.9093 11.9748 15.8426 12.023C15.7759 12.0713 15.7003 12.106 15.6203 12.1251C15.5402 12.1441 15.4571 12.1473 15.3758 12.1342C15.2946 12.1212 15.2166 12.0923 15.1465 12.0492C15.0764 12.006 15.0155 11.9495 14.9672 11.8828L14.375 11.0633L13.7789 11.8844C13.6814 12.0191 13.5344 12.1095 13.3703 12.1358C13.2061 12.1621 13.0382 12.1221 12.9035 12.0246C12.7688 11.9271 12.6784 11.7801 12.6521 11.616C12.6258 11.4518 12.6658 11.2839 12.7633 11.1492L13.3602 10.3289L12.3945 10.0164C12.3165 9.99076 12.2443 9.94999 12.182 9.89644C12.1198 9.84288 12.0687 9.77759 12.0316 9.70428C11.9568 9.55623 11.9439 9.38453 11.9957 9.22695C12.0214 9.14893 12.0621 9.07672 12.1157 9.01445C12.1692 8.95218 12.2345 8.90107 12.3078 8.86404C12.4559 8.78924 12.6276 8.77632 12.7852 8.82812L13.75 9.14062V8.125C13.75 7.95924 13.8158 7.80027 13.9331 7.68306C14.0503 7.56585 14.2092 7.5 14.375 7.5C14.5408 7.5 14.6997 7.56585 14.8169 7.68306C14.9342 7.80027 15 7.95924 15 8.125V9.14062L15.9648 8.82812C16.0429 8.80248 16.1252 8.79245 16.2071 8.79861C16.289 8.80477 16.3689 8.827 16.4422 8.86404C16.5155 8.90107 16.5808 8.95218 16.6343 9.01445C16.6879 9.07672 16.7286 9.14893 16.7543 9.22695C16.7799 9.30498 16.79 9.38729 16.7838 9.46919C16.7777 9.55109 16.7554 9.63097 16.7184 9.70428C16.6813 9.77759 16.6302 9.84288 16.568 9.89644C16.5057 9.94999 16.4335 9.99076 16.3555 10.0164L16.3516 10.0148Z" fill="#191F2E"/>
</svg>
