<svg width="20" height="20" viewBox="0 0 20 20" fill="none" xmlns="http://www.w3.org/2000/svg">
<path d="M15.625 12.8125C15.0436 12.8133 14.4767 12.9939 14.002 13.3296C13.5273 13.6653 13.168 14.1396 12.9734 14.6875H5.625C5.04484 14.6875 4.48844 14.457 4.0782 14.0468C3.66797 13.6366 3.4375 13.0802 3.4375 12.5C3.4375 11.9198 3.66797 11.3634 4.0782 10.9532C4.48844 10.543 5.04484 10.3125 5.625 10.3125H13.125C14.0367 10.3125 14.911 9.95034 15.5557 9.30568C16.2003 8.66102 16.5625 7.78668 16.5625 6.875C16.5625 5.96332 16.2003 5.08898 15.5557 4.44432C14.911 3.79966 14.0367 3.4375 13.125 3.4375H5.625C5.37636 3.4375 5.1379 3.53627 4.96209 3.71209C4.78627 3.8879 4.6875 4.12636 4.6875 4.375C4.6875 4.62364 4.78627 4.8621 4.96209 5.03791C5.1379 5.21373 5.37636 5.3125 5.625 5.3125H13.125C13.5394 5.3125 13.9368 5.47712 14.2299 5.77015C14.5229 6.06317 14.6875 6.4606 14.6875 6.875C14.6875 7.2894 14.5229 7.68683 14.2299 7.97985C13.9368 8.27288 13.5394 8.4375 13.125 8.4375H5.625C4.54756 8.4375 3.51425 8.86551 2.75238 9.62738C1.99051 10.3892 1.5625 11.4226 1.5625 12.5C1.5625 13.5774 1.99051 14.6108 2.75238 15.3726C3.51425 16.1345 4.54756 16.5625 5.625 16.5625H12.9734C13.1453 17.0486 13.4475 17.4782 13.847 17.8041C14.2465 18.1301 14.728 18.34 15.2387 18.4108C15.7494 18.4817 16.2698 18.4107 16.743 18.2058C17.2161 18.0008 17.6238 17.6698 17.9215 17.2488C18.2192 16.8278 18.3954 16.333 18.4309 15.8186C18.4664 15.3042 18.3598 14.7899 18.1228 14.332C17.8857 13.8741 17.5274 13.4902 17.0868 13.2222C16.6463 12.9542 16.1406 12.8125 15.625 12.8125ZM15.625 16.5625C15.4396 16.5625 15.2583 16.5075 15.1042 16.4045C14.95 16.3015 14.8298 16.1551 14.7589 15.9838C14.6879 15.8125 14.6693 15.624 14.7055 15.4421C14.7417 15.2602 14.831 15.0932 14.9621 14.9621C15.0932 14.831 15.2602 14.7417 15.4421 14.7055C15.624 14.6693 15.8125 14.6879 15.9838 14.7589C16.1551 14.8298 16.3015 14.95 16.4045 15.1042C16.5075 15.2583 16.5625 15.4396 16.5625 15.625C16.5625 15.8736 16.4637 16.1121 16.2879 16.2879C16.1121 16.4637 15.8736 16.5625 15.625 16.5625Z" fill="#191F2E"/>
</svg>
