<svg width="20" height="20" viewBox="0 0 20 20" fill="none" xmlns="http://www.w3.org/2000/svg">
<path d="M18.75 8.125C18.75 9.11391 18.4568 10.0806 17.9073 10.9029C17.3579 11.7251 16.577 12.366 15.6634 12.7444C14.7498 13.1228 13.7445 13.2219 12.7745 13.0289C11.8046 12.836 10.9137 12.3598 10.2145 11.6605C9.5152 10.9613 9.039 10.0704 8.84607 9.10045C8.65315 8.13055 8.75216 7.12521 9.1306 6.21158C9.50904 5.29795 10.1499 4.51706 10.9721 3.96765C11.7944 3.41824 12.7611 3.125 13.75 3.125C15.0756 3.12645 16.3466 3.6537 17.2839 4.59106C18.2213 5.52843 18.7486 6.79936 18.75 8.125ZM6.25 3.125H5C4.66848 3.125 4.35054 3.2567 4.11612 3.49112C3.8817 3.72554 3.75 4.04348 3.75 4.375V16.25C3.75 16.5815 3.8817 16.8995 4.11612 17.1339C4.35054 17.3683 4.66848 17.5 5 17.5H6.25C6.58152 17.5 6.89946 17.3683 7.13388 17.1339C7.3683 16.8995 7.5 16.5815 7.5 16.25V4.375C7.5 4.04348 7.3683 3.72554 7.13388 3.49112C6.89946 3.2567 6.58152 3.125 6.25 3.125Z" fill="#191F2E"/>
</svg>
