<svg width="20" height="20" viewBox="0 0 20 20" fill="none" xmlns="http://www.w3.org/2000/svg">
<path d="M13.2812 2.8125C11.8336 2.81182 10.4389 3.3566 9.375 4.33828C9.36541 3.93028 9.19656 3.54222 8.90457 3.25709C8.61258 2.97196 8.22062 2.81239 7.8125 2.8125H5C4.5856 2.8125 4.18817 2.97712 3.89515 3.27015C3.60212 3.56317 3.4375 3.9606 3.4375 4.375V16.25C3.4375 16.6644 3.60212 17.0618 3.89515 17.3549C4.18817 17.6479 4.5856 17.8125 5 17.8125H7.8125C8.2269 17.8125 8.62433 17.6479 8.91735 17.3549C9.21038 17.0618 9.375 16.6644 9.375 16.25V12.8516C10.0677 13.4878 10.9052 13.9454 11.8147 14.1847C12.7243 14.424 13.6786 14.4378 14.5947 14.2249C15.5108 14.0119 16.3611 13.5787 17.0719 12.9627C17.7827 12.3468 18.3324 11.5667 18.6735 10.6902C19.0146 9.81363 19.1366 8.86713 19.0291 7.93276C18.9215 6.99839 18.5877 6.10436 18.0564 5.32823C17.5251 4.5521 16.8125 3.91731 15.9804 3.47892C15.1483 3.04052 14.2218 2.81177 13.2812 2.8125ZM7.5 15.9375H5.3125V4.6875H7.5V15.9375ZM13.2812 12.5C12.5087 12.5 11.7534 12.2709 11.1111 11.8417C10.4687 11.4125 9.968 10.8024 9.67235 10.0886C9.37669 9.37484 9.29933 8.58942 9.45006 7.83168C9.60078 7.07394 9.97281 6.37791 10.5191 5.83162C11.0654 5.28532 11.7614 4.91328 12.5192 4.76256C13.2769 4.61184 14.0623 4.68919 14.7761 4.98485C15.4899 5.2805 16.1 5.78118 16.5292 6.42356C16.9584 7.06594 17.1875 7.82117 17.1875 8.59375C17.1863 9.62937 16.7743 10.6222 16.042 11.3545C15.3097 12.0868 14.3169 12.4988 13.2812 12.5Z" fill="#191F2E"/>
</svg>
