<svg width="20" height="20" viewBox="0 0 20 20" fill="none" xmlns="http://www.w3.org/2000/svg">
<path d="M15.1136 3.125H12.2727C11.9713 3.125 11.6823 3.24572 11.4692 3.46061C11.2561 3.67549 11.1364 3.96694 11.1364 4.27083V15.7292C11.1364 16.0331 11.2561 16.3245 11.4692 16.5394C11.6823 16.7543 11.9713 16.875 12.2727 16.875H15.1136C15.415 16.875 15.7041 16.7543 15.9172 16.5394C16.1303 16.3245 16.25 16.0331 16.25 15.7292V4.27083C16.25 3.96694 16.1303 3.67549 15.9172 3.46061C15.7041 3.24572 15.415 3.125 15.1136 3.125ZM15.1136 15.7292H12.2727V4.27083H15.1136V15.7292ZM7.72727 3.125H4.88636C4.58498 3.125 4.29594 3.24572 4.08283 3.46061C3.86972 3.67549 3.75 3.96694 3.75 4.27083V15.7292C3.75 16.0331 3.86972 16.3245 4.08283 16.5394C4.29594 16.7543 4.58498 16.875 4.88636 16.875H7.72727C8.02866 16.875 8.31769 16.7543 8.5308 16.5394C8.74391 16.3245 8.86364 16.0331 8.86364 15.7292V4.27083C8.86364 3.96694 8.74391 3.67549 8.5308 3.46061C8.31769 3.24572 8.02866 3.125 7.72727 3.125ZM7.72727 15.7292H4.88636V4.27083H7.72727V15.7292Z" fill="#191F2E"/>
</svg>
