<svg width="20" height="20" viewBox="0 0 20 20" fill="none" xmlns="http://www.w3.org/2000/svg">
<path d="M14.8913 3.125H12.1739C11.8136 3.125 11.468 3.26987 11.2132 3.52773C10.9584 3.78559 10.8152 4.13533 10.8152 4.5V15.5C10.8152 15.8647 10.9584 16.2144 11.2132 16.4723C11.468 16.7301 11.8136 16.875 12.1739 16.875H14.8913C15.2517 16.875 15.5972 16.7301 15.852 16.4723C16.1069 16.2144 16.25 15.8647 16.25 15.5V4.5C16.25 4.13533 16.1069 3.78559 15.852 3.52773C15.5972 3.26987 15.2517 3.125 14.8913 3.125ZM14.6196 15.225H12.4457V4.775H14.6196V15.225ZM7.82609 3.125H5.1087C4.74835 3.125 4.40276 3.26987 4.14795 3.52773C3.89315 3.78559 3.75 4.13533 3.75 4.5V15.5C3.75 15.8647 3.89315 16.2144 4.14795 16.4723C4.40276 16.7301 4.74835 16.875 5.1087 16.875H7.82609C8.18644 16.875 8.53202 16.7301 8.78683 16.4723C9.04163 16.2144 9.18478 15.8647 9.18478 15.5V4.5C9.18478 4.13533 9.04163 3.78559 8.78683 3.52773C8.53202 3.26987 8.18644 3.125 7.82609 3.125ZM7.55435 15.225H5.38043V4.775H7.55435V15.225Z" fill="#191F2E"/>
</svg>
