<svg width="20" height="20" viewBox="0 0 20 20" fill="none" xmlns="http://www.w3.org/2000/svg">
<path d="M18.75 8.4375C18.75 8.87015 18.6217 9.29308 18.3813 9.65281C18.141 10.0125 17.7993 10.2929 17.3996 10.4585C16.9999 10.6241 16.5601 10.6674 16.1357 10.583C15.7114 10.4986 15.3216 10.2902 15.0157 9.9843C14.7098 9.67837 14.5014 9.28859 14.417 8.86426C14.3326 8.43993 14.3759 8.00009 14.5415 7.60038C14.7071 7.20067 14.9875 6.85903 15.3472 6.61866C15.7069 6.3783 16.1299 6.25 16.5625 6.25C17.1427 6.25 17.6991 6.48047 18.1093 6.89071C18.5195 7.30094 18.75 7.85734 18.75 8.4375ZM5.625 8.4375C5.625 8.00485 5.49671 7.58192 5.25634 7.22219C5.01598 6.86246 4.67433 6.58208 4.27462 6.41651C3.87491 6.25095 3.43507 6.20763 3.01074 6.29203C2.58641 6.37644 2.19663 6.58478 1.8907 6.89071C1.58478 7.19663 1.37644 7.58641 1.29203 8.01074C1.20763 8.43507 1.25095 8.87491 1.41651 9.27462C1.58208 9.67433 1.86246 10.016 2.22219 10.2563C2.58192 10.4967 3.00485 10.625 3.4375 10.625C4.01766 10.625 4.57406 10.3945 4.9843 9.9843C5.39453 9.57406 5.625 9.01766 5.625 8.4375ZM7.1875 6.875C7.62015 6.875 8.04308 6.74671 8.40281 6.50634C8.76254 6.26598 9.04292 5.92433 9.20849 5.52462C9.37405 5.12491 9.41737 4.68507 9.33297 4.26074C9.24856 3.83641 9.04022 3.44663 8.7343 3.1407C8.42837 2.83478 8.03859 2.62644 7.61426 2.54203C7.18993 2.45763 6.75009 2.50095 6.35038 2.66651C5.95067 2.83208 5.60903 3.11246 5.36866 3.47219C5.1283 3.83192 5 4.25485 5 4.6875C5 5.26766 5.23047 5.82406 5.64071 6.2343C6.05094 6.64453 6.60734 6.875 7.1875 6.875ZM12.8125 6.875C13.2451 6.875 13.6681 6.74671 14.0278 6.50634C14.3875 6.26598 14.6679 5.92433 14.8335 5.52462C14.9991 5.12491 15.0424 4.68507 14.958 4.26074C14.8736 3.83641 14.6652 3.44663 14.3593 3.1407C14.0534 2.83478 13.6636 2.62644 13.2393 2.54203C12.8149 2.45763 12.3751 2.50095 11.9754 2.66651C11.5757 2.83208 11.234 3.11246 10.9937 3.47219C10.7533 3.83192 10.625 4.25485 10.625 4.6875C10.625 5.26766 10.8555 5.82406 11.2657 6.2343C11.6759 6.64453 12.2323 6.875 12.8125 6.875ZM14.6188 11.6297C14.3013 11.4546 14.0215 11.2185 13.7953 10.9351C13.5692 10.6517 13.4011 10.3265 13.3008 9.97813C13.093 9.26348 12.6588 8.63557 12.0636 8.18878C11.4684 7.74199 10.7443 7.50044 10 7.50044C9.25575 7.50044 8.5316 7.74199 7.93638 8.18878C7.34116 8.63557 6.90703 9.26348 6.69922 9.97813C6.49848 10.6792 6.02787 11.272 5.39063 11.6266C4.77931 11.9573 4.29573 12.4825 4.01635 13.1189C3.73698 13.7554 3.67776 14.4668 3.84807 15.1407C4.01837 15.8146 4.40848 16.4124 4.9567 16.8397C5.50491 17.267 6.17993 17.4994 6.875 17.5C7.29153 17.5012 7.70399 17.418 8.0875 17.2555C9.31021 16.7512 10.6828 16.7512 11.9055 17.2555C12.6461 17.5776 13.4826 17.6004 14.2397 17.3193C14.9968 17.0382 15.6156 16.4749 15.9665 15.7475C16.3173 15.0201 16.373 14.1851 16.1217 13.4175C15.8705 12.65 15.3318 12.0096 14.6188 11.6305V11.6297Z" fill="#191F2E"/>
</svg>
