<svg width="20" height="20" viewBox="0 0 20 20" fill="none" xmlns="http://www.w3.org/2000/svg">
<path d="M17.1969 7.30781C16.7774 6.7687 16.2371 6.3357 15.6195 6.04375C15.5665 4.92049 15.083 3.86077 14.2694 3.08454C13.4558 2.3083 12.3745 1.87516 11.25 1.875H6.56249C6.28375 1.87504 6.01302 1.96825 5.79333 2.13982C5.57363 2.31138 5.41759 2.55145 5.34999 2.82187L2.53749 14.0719C2.49143 14.2561 2.48797 14.4485 2.52737 14.6343C2.56677 14.8201 2.648 14.9945 2.76488 15.1442C2.88176 15.2939 3.03123 15.415 3.20192 15.4983C3.37262 15.5817 3.56005 15.625 3.74999 15.625H5.89843L5.66406 16.5719C5.61803 16.756 5.61454 16.9482 5.65385 17.1339C5.69317 17.3196 5.77426 17.4939 5.89096 17.6436C6.00767 17.7933 6.15694 17.9144 6.32743 17.9978C6.49793 18.0812 6.68519 18.1247 6.87499 18.125H9.33593C9.61441 18.1246 9.88478 18.0312 10.1042 17.8597C10.3235 17.6882 10.4793 17.4483 10.5469 17.1781L11.25 14.375H13.75C14.5697 14.375 15.3728 14.1447 16.068 13.7104C16.7631 13.2761 17.3223 12.6552 17.6817 11.9186C18.0412 11.1819 18.1865 10.3591 18.101 9.54391C18.0156 8.72871 17.7028 7.95391 17.1984 7.30781H17.1969ZM3.74999 14.375L6.56249 3.125H11.25C11.9771 3.12479 12.6816 3.37817 13.242 3.84149C13.8025 4.30481 14.1838 4.94906 14.3203 5.66328C14.1312 5.63832 13.9407 5.62553 13.75 5.625H9.37499C9.09612 5.62487 8.8252 5.718 8.60535 5.88958C8.3855 6.06115 8.22934 6.30132 8.16171 6.57188L6.21249 14.375H3.74999ZM16.7789 10.7578C16.6108 11.4339 16.2212 12.0342 15.6723 12.4632C15.1234 12.8922 14.4467 13.1252 13.75 13.125H11.25C10.9712 13.125 10.7005 13.2183 10.4808 13.3898C10.2611 13.5614 10.1051 13.8015 10.0375 14.0719L9.33437 16.875H6.87499L8.43749 10.625H11.25C12.211 10.6253 13.1453 10.3086 13.908 9.72395C14.6707 9.13934 15.2193 8.31947 15.4687 7.39141C15.7509 7.57839 16.001 7.80976 16.2094 8.07656C16.5034 8.44999 16.7077 8.88595 16.8066 9.35082C16.9054 9.81569 16.8962 10.2971 16.7797 10.7578H16.7789Z" fill="#191F2E"/>
</svg>
