<svg width="20" height="20" viewBox="0 0 20 20" fill="none" xmlns="http://www.w3.org/2000/svg">
<path d="M17.443 7.11563C17.032 6.58777 16.5125 6.15431 15.9195 5.84453C15.8181 4.67599 15.2822 3.58794 14.4177 2.79519C13.5532 2.00244 12.4229 1.5626 11.25 1.5625H6.56251C6.21408 1.56255 5.87566 1.67907 5.60105 1.89352C5.32643 2.10797 5.13138 2.40806 5.04688 2.74609L2.23438 13.9961C2.17681 14.2264 2.17248 14.4669 2.22173 14.6991C2.27098 14.9314 2.37251 15.1494 2.51862 15.3365C2.66472 15.5237 2.85155 15.675 3.06492 15.7792C3.27829 15.8833 3.51258 15.9375 3.75001 15.9375H5.49923L5.35938 16.4961C5.30181 16.7264 5.29748 16.9669 5.34673 17.1991C5.39598 17.4314 5.49751 17.6494 5.64362 17.8365C5.78972 18.0237 5.97655 18.175 6.18992 18.2792C6.40329 18.3833 6.63758 18.4375 6.87501 18.4375H9.33595C9.68438 18.4374 10.0228 18.3209 10.2974 18.1065C10.572 17.892 10.7671 17.5919 10.8516 17.2539L11.4945 14.6875H13.75C14.6282 14.6874 15.4887 14.4406 16.2334 13.9753C16.9782 13.51 17.5772 12.8448 17.9623 12.0555C18.3474 11.2663 18.503 10.3848 18.4115 9.51136C18.32 8.63797 17.9849 7.80786 17.4445 7.11563H17.443ZM6.80704 3.4375H11.25C11.6776 3.43627 12.0998 3.53318 12.484 3.72077C12.8683 3.90836 13.2044 4.18162 13.4664 4.51953C13.6552 4.75989 13.8037 5.02927 13.9063 5.31719C13.8547 5.31719 13.8039 5.3125 13.75 5.3125H9.37501C9.02658 5.31255 8.68816 5.42906 8.41355 5.64352C8.13893 5.85797 7.94388 6.15806 7.85938 6.49609L5.96798 14.0625H4.15079L6.80704 3.4375ZM13.8977 7.19141C13.7041 7.73883 13.3455 8.21274 12.8713 8.54784C12.3971 8.88295 11.8307 9.06276 11.25 9.0625H9.15079L9.61954 7.1875H13.75C13.7984 7.1875 13.8484 7.1875 13.8977 7.19141ZM16.4758 10.682C16.3245 11.2905 15.974 11.8308 15.48 12.2169C14.986 12.603 14.377 12.8127 13.75 12.8125H11.25C10.9016 12.8126 10.5632 12.9291 10.2885 13.1435C10.0139 13.358 9.81888 13.6581 9.73438 13.9961L9.09298 16.5625H7.27579L8.68204 10.9375H11.25C12.2017 10.9385 13.1312 10.6493 13.9143 10.1084C14.6974 9.56749 15.2969 8.80064 15.6328 7.91016C16.0112 8.25257 16.2896 8.69119 16.4385 9.1793C16.5873 9.66741 16.601 10.1867 16.4781 10.682H16.4758Z" fill="#191F2E"/>
</svg>
