<svg width="20" height="20" viewBox="0 0 20 20" fill="none" xmlns="http://www.w3.org/2000/svg">
<path d="M10.625 11.2008L14.2188 13.7164C13.2961 14.7671 12.0146 15.4358 10.625 15.5914V11.2008ZM4.375 10C4.3741 10.9415 4.61084 11.8681 5.06328 12.6937L9.375 9.675V4.41094C8.00068 4.56597 6.73146 5.22135 5.80933 6.25212C4.8872 7.28288 4.37665 8.61696 4.375 10ZM9.375 15.5891V11.2008L5.78125 13.7164C6.70425 14.7663 7.98572 15.434 9.375 15.5891ZM10.625 4.41094V9.675L14.9367 12.6937C15.3784 11.8838 15.614 10.9776 15.6229 10.055C15.6318 9.13249 15.4136 8.22193 14.9876 7.40359C14.5616 6.58525 13.9409 5.88425 13.1801 5.36237C12.4193 4.84049 11.5418 4.51375 10.625 4.41094ZM18.125 10C18.125 11.607 17.6485 13.1779 16.7557 14.514C15.8629 15.8502 14.594 16.8916 13.1093 17.5065C11.6247 18.1215 9.99099 18.2824 8.4149 17.9689C6.8388 17.6554 5.39106 16.8815 4.25476 15.7452C3.11846 14.6089 2.34463 13.1612 2.03112 11.5851C1.71762 10.009 1.87852 8.37535 2.49348 6.8907C3.10844 5.40605 4.14985 4.1371 5.486 3.24431C6.82214 2.35152 8.39303 1.875 10 1.875C12.1542 1.87727 14.2195 2.73403 15.7427 4.25727C17.266 5.78051 18.1227 7.84581 18.125 10ZM16.875 10C16.875 8.64025 16.4718 7.31104 15.7164 6.18045C14.9609 5.04987 13.8872 4.16868 12.631 3.64833C11.3747 3.12798 9.99238 2.99183 8.65876 3.2571C7.32514 3.52237 6.10013 4.17716 5.13864 5.13864C4.17716 6.10013 3.52238 7.32513 3.2571 8.65875C2.99183 9.99237 3.12798 11.3747 3.64833 12.6309C4.16868 13.8872 5.04987 14.9609 6.18046 15.7164C7.31105 16.4718 8.64026 16.875 10 16.875C11.8227 16.8729 13.5702 16.1479 14.8591 14.8591C16.1479 13.5702 16.8729 11.8227 16.875 10Z" fill="#191F2E"/>
</svg>
