<svg width="20" height="20" viewBox="0 0 20 20" fill="none" xmlns="http://www.w3.org/2000/svg">
<path d="M10 1.875C8.39303 1.875 6.82214 2.35152 5.486 3.24431C4.14985 4.1371 3.10844 5.40605 2.49348 6.8907C1.87852 8.37535 1.71762 10.009 2.03112 11.5851C2.34463 13.1612 3.11846 14.6089 4.25476 15.7452C5.39106 16.8815 6.8388 17.6554 8.4149 17.9689C9.99099 18.2824 11.6247 18.1215 13.1093 17.5065C14.594 16.8916 15.8629 15.8502 16.7557 14.514C17.6485 13.1779 18.125 11.607 18.125 10C18.1227 7.84581 17.266 5.78051 15.7427 4.25727C14.2195 2.73403 12.1542 1.87727 10 1.875ZM16.875 10C16.8764 11.1981 16.5628 12.3754 15.9656 13.4141L10.625 9.675V3.15391C12.3323 3.31172 13.9192 4.10097 15.0751 5.3672C16.2311 6.63343 16.8729 8.28547 16.875 10ZM9.375 3.15391V9.675L4.03438 13.4141C3.46269 12.4147 3.15113 11.2878 3.12828 10.1367C3.10543 8.98561 3.37203 7.84721 3.90361 6.82596C4.43519 5.80471 5.21473 4.93331 6.17071 4.29172C7.12669 3.65013 8.22848 3.25889 9.375 3.15391ZM4.75313 14.4367L9.375 11.2008V16.8461C7.57749 16.682 5.91699 15.8164 4.75313 14.4367ZM10.625 16.8461V11.2008L15.2469 14.4367C14.083 15.8164 12.4225 16.682 10.625 16.8461Z" fill="#191F2E"/>
</svg>
