<svg width="20" height="20" viewBox="0 0 20 20" fill="none" xmlns="http://www.w3.org/2000/svg">
<path d="M18.75 7.86564C18.7505 7.70143 18.7184 7.53875 18.6555 7.38706C18.5926 7.23537 18.5001 7.0977 18.3836 6.98204L13.0179 1.61564C12.9019 1.49953 12.7641 1.40743 12.6124 1.3446C12.4607 1.28176 12.2981 1.24942 12.134 1.24942C11.9698 1.24942 11.8072 1.28176 11.6555 1.3446C11.5039 1.40743 11.366 1.49953 11.25 1.61564L9.02888 3.83673L4.49763 5.53751C4.29169 5.61431 4.10955 5.74386 3.96942 5.91319C3.8293 6.08252 3.73611 6.28569 3.69919 6.50236L1.88357 17.3969C1.86858 17.4864 1.8733 17.5782 1.89737 17.6657C1.92145 17.7533 1.96431 17.8345 2.02298 17.9038C2.08165 17.9731 2.15471 18.0288 2.23709 18.067C2.31946 18.1052 2.40917 18.125 2.49997 18.125C2.53452 18.1249 2.569 18.122 2.6031 18.1164L13.4968 16.3008C13.7133 16.2647 13.9163 16.1722 14.0857 16.0328C14.2551 15.8933 14.3847 15.7117 14.4617 15.5063L16.1625 10.975L18.3836 8.75001C18.5002 8.63424 18.5927 8.49644 18.6556 8.34461C18.7185 8.19279 18.7506 8.02998 18.75 7.86564ZM13.2914 15.068L4.32185 16.5625L8.02263 12.8617C8.48486 13.1115 9.02155 13.1866 9.53459 13.0733C10.0476 12.9599 10.5027 12.6657 10.8167 12.2444C11.1307 11.8231 11.2825 11.3029 11.2444 10.7789C11.2064 10.2549 10.981 9.76203 10.6095 9.3905C10.238 9.01898 9.74513 8.79359 9.2211 8.75554C8.69706 8.71749 8.17684 8.86933 7.75555 9.18329C7.33426 9.49725 7.04004 9.95235 6.92669 10.4654C6.81335 10.9784 6.88844 11.5151 7.13825 11.9774L3.43747 15.6797L4.932 6.70783L9.21872 5.10079L14.8984 10.7813L13.2914 15.068ZM8.12497 10.9375C8.12497 10.7521 8.17996 10.5708 8.28297 10.4167C8.38598 10.2625 8.5324 10.1423 8.70371 10.0714C8.87501 10.0004 9.06351 9.98185 9.24537 10.018C9.42723 10.0542 9.59427 10.1435 9.72539 10.2746C9.8565 10.4057 9.94579 10.5728 9.98196 10.7546C10.0181 10.9365 9.99957 11.125 9.92861 11.2963C9.85765 11.4676 9.73749 11.614 9.58332 11.717C9.42915 11.82 9.24789 11.875 9.06247 11.875C8.81383 11.875 8.57538 11.7762 8.39956 11.6004C8.22374 11.4246 8.12497 11.1862 8.12497 10.9375ZM15.625 9.74064L10.2586 4.37501L12.1336 2.50001L17.5 7.86564L15.625 9.74064Z" fill="#191F2E"/>
</svg>
