<svg width="20" height="20" viewBox="0 0 20 20" fill="none" xmlns="http://www.w3.org/2000/svg">
<path d="M17.65 9.53984C17.6422 9.525 17.6352 9.51094 17.6266 9.49609L15.3125 5.37891V2.5C15.3125 2.0856 15.1479 1.68817 14.8549 1.39515C14.5619 1.10212 14.1644 0.9375 13.75 0.9375H6.25003C5.83563 0.9375 5.43821 1.10212 5.14518 1.39515C4.85215 1.68817 4.68753 2.0856 4.68753 2.5V5.38047L2.37347 9.49609C2.36473 9.51043 2.3569 9.5253 2.35003 9.54063C2.2223 9.79726 2.16806 10.0842 2.19329 10.3698C2.21852 10.6553 2.32225 10.9283 2.493 11.1586C2.50003 11.1687 2.50707 11.1781 2.51488 11.1875L9.268 19.6477C9.35583 19.7576 9.46726 19.8463 9.59405 19.9073C9.72084 19.9683 9.85973 20 10.0004 20C10.1411 20 10.28 19.9683 10.4068 19.9073C10.5336 19.8463 10.645 19.7576 10.7328 19.6477L17.4852 11.1875C17.493 11.1781 17.5 11.1687 17.5071 11.1586C17.6778 10.9282 17.7815 10.655 17.8067 10.3694C17.832 10.0837 17.7777 9.79662 17.65 9.53984ZM13.4375 2.8125V4.6875H6.56253V2.8125H13.4375ZM10 11.25C9.84552 11.25 9.69447 11.2042 9.566 11.1183C9.43752 11.0325 9.33738 10.9105 9.27825 10.7677C9.21912 10.625 9.20365 10.4679 9.2338 10.3163C9.26394 10.1648 9.33835 10.0256 9.44761 9.91632C9.55687 9.80706 9.69607 9.73266 9.84762 9.70251C9.99917 9.67237 10.1563 9.68784 10.299 9.74697C10.4418 9.8061 10.5638 9.90623 10.6496 10.0347C10.7355 10.1632 10.7813 10.3142 10.7813 10.4688C10.7813 10.676 10.699 10.8747 10.5525 11.0212C10.4059 11.1677 10.2072 11.25 10 11.25ZM10.9375 16.3859V12.9539C11.5194 12.7344 12.0057 12.3178 12.3119 11.7766C12.6181 11.2354 12.7247 10.6039 12.6132 9.99212C12.5017 9.38037 12.179 8.82715 11.7015 8.42883C11.224 8.03051 10.6219 7.81235 10 7.81235C9.3782 7.81235 8.77608 8.03051 8.29856 8.42883C7.82105 8.82715 7.49841 9.38037 7.38687 9.99212C7.27532 10.6039 7.38194 11.2354 7.68814 11.7766C7.99434 12.3178 8.48072 12.7344 9.06253 12.9539V16.3852L4.12738 10.2023L6.17191 6.5625H13.8282L15.8743 10.2023L10.9375 16.3859Z" fill="#191F2E"/>
</svg>
