<svg width="20" height="20" viewBox="0 0 20 20" fill="none" xmlns="http://www.w3.org/2000/svg">
<path d="M17.3695 9.67891C17.3648 9.66875 17.3601 9.65859 17.3547 9.64922L15 5.46094V2.5C15 2.16848 14.8683 1.85054 14.6339 1.61612C14.3994 1.3817 14.0815 1.25 13.75 1.25H6.24997C5.91845 1.25 5.60051 1.3817 5.36609 1.61612C5.13167 1.85054 4.99997 2.16848 4.99997 2.5V5.4625L2.64529 9.64922C2.63982 9.65859 2.63513 9.66875 2.62966 9.67891C2.52765 9.88427 2.48431 10.1138 2.50444 10.3422C2.52457 10.5707 2.60737 10.7891 2.74372 10.9734L2.75232 10.9844L9.50544 19.7563C9.56383 19.832 9.63881 19.8933 9.72461 19.9355C9.81042 19.9776 9.90475 19.9996 10.0004 19.9996C10.096 19.9996 10.1903 19.9776 10.2761 19.9355C10.3619 19.8933 10.4369 19.832 10.4953 19.7563L17.2476 10.9844L17.2562 10.9734C17.3926 10.7891 17.4754 10.5706 17.4954 10.3421C17.5154 10.1137 17.4718 9.88415 17.3695 9.67891ZM13.75 2.5V5H6.24997V2.5H13.75ZM9.99997 11.25C9.81455 11.25 9.6333 11.195 9.47913 11.092C9.32496 10.989 9.20479 10.8426 9.13384 10.6713C9.06288 10.5 9.04431 10.3115 9.08049 10.1296C9.11666 9.94775 9.20595 9.7807 9.33706 9.64959C9.46817 9.51848 9.63522 9.42919 9.81708 9.39301C9.99893 9.35684 10.1874 9.37541 10.3587 9.44636C10.53 9.51732 10.6765 9.63748 10.7795 9.79165C10.8825 9.94582 10.9375 10.1271 10.9375 10.3125C10.9375 10.5611 10.8387 10.7996 10.6629 10.9754C10.4871 11.1512 10.2486 11.25 9.99997 11.25ZM10.625 17.5391V12.4086C11.1285 12.2585 11.5612 11.9321 11.8439 11.4892C12.1266 11.0463 12.2404 10.5164 12.1646 9.99647C12.0887 9.47653 11.8282 9.00127 11.4308 8.65759C11.0333 8.31391 10.5254 8.12478 9.99997 8.12478C9.47453 8.12478 8.96664 8.31391 8.56918 8.65759C8.17172 9.00127 7.91125 9.47653 7.83539 9.99647C7.75953 10.5164 7.87336 11.0463 8.15606 11.4892C8.43876 11.9321 8.87143 12.2585 9.37497 12.4086V17.5383L3.74997 10.2344L5.99138 6.25H14.0093L16.25 10.2344L10.625 17.5391Z" fill="#191F2E"/>
</svg>
