<svg width="20" height="20" viewBox="0 0 20 20" fill="none" xmlns="http://www.w3.org/2000/svg">
<path d="M18.3836 6.98126L13.018 1.61564C12.9019 1.49953 12.7641 1.40743 12.6124 1.3446C12.4608 1.28176 12.2982 1.24942 12.134 1.24942C11.9698 1.24942 11.8073 1.28176 11.6556 1.3446C11.5039 1.40743 11.3661 1.49953 11.25 1.61564L9.02815 3.83751L4.4969 5.53751C4.29101 5.61413 4.10894 5.74365 3.96904 5.91304C3.82914 6.08243 3.73635 6.28569 3.70003 6.50236L2.07737 16.2367C2.06649 16.302 2.07662 16.369 2.10628 16.4282C2.13594 16.4873 2.18361 16.5355 2.24243 16.5659C2.30125 16.5962 2.36817 16.6071 2.43356 16.5969C2.49894 16.5868 2.55942 16.5561 2.60628 16.5094L7.0594 12.0563C6.91831 11.7627 6.85663 11.4373 6.8805 11.1125C6.90955 10.7129 7.06583 10.3331 7.32644 10.0288C7.58705 9.72452 7.93829 9.51169 8.32867 9.42154C8.71904 9.33139 9.12803 9.36866 9.49569 9.52787C9.86334 9.68709 10.1703 9.95989 10.3717 10.3063C10.573 10.6527 10.658 11.0545 10.6144 11.4527C10.5708 11.851 10.4007 12.2248 10.1291 12.5194C9.85754 12.8139 9.49876 13.0138 9.10535 13.0896C8.71193 13.1654 8.30458 13.1132 7.943 12.9406L3.48987 17.3938C3.44315 17.4406 3.4125 17.5011 3.40235 17.5665C3.3922 17.6319 3.40307 17.6988 3.43339 17.7576C3.46371 17.8164 3.51192 17.8641 3.57107 17.8938C3.63022 17.9234 3.69726 17.9335 3.76253 17.9227L13.4977 16.3C13.714 16.264 13.917 16.1717 14.0864 16.0323C14.2557 15.893 14.3855 15.7116 14.4625 15.5063L16.1633 10.9695L18.3836 8.75001C18.4997 8.63394 18.5918 8.49612 18.6547 8.34445C18.7175 8.19277 18.7498 8.0302 18.7498 7.86603C18.7498 7.70185 18.7175 7.53928 18.6547 7.38761C18.5918 7.23593 18.4997 7.09812 18.3836 6.98204V6.98126ZM15.625 9.74064L10.2594 4.37501L12.1344 2.50001L17.5 7.86564L15.625 9.74064Z" fill="#191F2E"/>
</svg>
