<svg width="20" height="20" viewBox="0 0 20 20" fill="none" xmlns="http://www.w3.org/2000/svg">
<path d="M17.7594 5.73203L14.268 2.2414C14.1519 2.1253 14.0141 2.0332 13.8624 1.97036C13.7107 1.90752 13.5482 1.87518 13.384 1.87518C13.2198 1.87518 13.0572 1.90752 12.9056 1.97036C12.7539 2.0332 12.6161 2.1253 12.5 2.2414L2.86641 11.875C2.74983 11.9906 2.65741 12.1283 2.59451 12.28C2.5316 12.4317 2.49948 12.5944 2.50001 12.7586V16.25C2.50001 16.5815 2.6317 16.8995 2.86612 17.1339C3.10054 17.3683 3.41849 17.5 3.75001 17.5H7.24141C7.40563 17.5005 7.5683 17.4684 7.71999 17.4055C7.87168 17.3426 8.00935 17.2502 8.12501 17.1336L14.6617 10.5976L14.9336 11.6836L12.0586 14.5578C11.9413 14.675 11.8754 14.8339 11.8753 14.9997C11.8753 15.1655 11.941 15.3245 12.0582 15.4418C12.1754 15.5591 12.3343 15.625 12.5001 15.6251C12.6659 15.6251 12.8249 15.5594 12.9422 15.4422L16.0672 12.3172C16.1436 12.2409 16.199 12.1461 16.2279 12.042C16.2568 11.938 16.2582 11.8282 16.232 11.7234L15.693 9.5664L17.7594 7.49999C17.8755 7.38392 17.9676 7.24611 18.0304 7.09443C18.0933 6.94275 18.1256 6.78019 18.1256 6.61601C18.1256 6.45183 18.0933 6.28927 18.0304 6.13759C17.9676 5.98591 17.8755 5.8481 17.7594 5.73203ZM15 8.4914L11.5094 4.99999L13.3844 3.12499L16.875 6.6164L15 8.4914Z" fill="#191F2E"/>
</svg>
