<svg width="20" height="20" viewBox="0 0 20 20" fill="none" xmlns="http://www.w3.org/2000/svg">
<path d="M17.9805 5.51094L14.4891 2.02031C14.1961 1.72739 13.7987 1.56284 13.3844 1.56284C12.9701 1.56284 12.5727 1.72739 12.2797 2.02031L2.64532 11.6539C2.49973 11.7986 2.3843 11.9708 2.30571 12.1604C2.22713 12.35 2.18695 12.5533 2.18751 12.7586V16.25C2.18751 16.6644 2.35213 17.0618 2.64515 17.3549C2.93818 17.6479 3.3356 17.8125 3.75001 17.8125H7.24141C7.44668 17.8131 7.65003 17.7729 7.83966 17.6944C8.02929 17.6158 8.20143 17.5003 8.3461 17.3547L14.5539 11.1477L14.8789 12.2328L12.15 14.9617C11.9739 15.1378 11.8749 15.3767 11.8749 15.6258C11.8749 15.8749 11.9739 16.1137 12.15 16.2898C12.3261 16.466 12.565 16.5649 12.8141 16.5649C13.0631 16.5649 13.302 16.466 13.4781 16.2898L16.6031 13.1648C16.7228 13.045 16.8078 12.895 16.8491 12.7308C16.8903 12.5665 16.8863 12.3942 16.8375 12.232L16.0609 9.64375L17.982 7.72266C18.1273 7.57743 18.2426 7.40497 18.3211 7.21516C18.3997 7.02535 18.4401 6.8219 18.4399 6.61647C18.4398 6.41104 18.3991 6.20766 18.3203 6.01796C18.2414 5.82826 18.126 5.65597 17.9805 5.51094ZM5.07813 11.875L10.625 6.32813L13.6719 9.375L8.12501 14.9219L5.07813 11.875ZM4.06251 13.5156L6.48438 15.9375H4.06251V13.5156ZM15 8.04688L11.9531 5L13.3859 3.56719L16.4328 6.61406L15 8.04688Z" fill="#191F2E"/>
</svg>
