<svg width="20" height="20" viewBox="0 0 20 20" fill="none" xmlns="http://www.w3.org/2000/svg">
<path d="M4.21251 2.70468C4.15762 2.64281 4.091 2.59245 4.01651 2.55652C3.94201 2.52058 3.86113 2.49979 3.77854 2.49535C3.69595 2.49091 3.61331 2.5029 3.53539 2.53063C3.45747 2.55837 3.38583 2.60129 3.32462 2.65692C3.26342 2.71254 3.21386 2.77976 3.17882 2.85468C3.14378 2.9296 3.12396 3.01072 3.12051 3.09336C3.11706 3.17599 3.13004 3.25849 3.15871 3.33607C3.18737 3.41365 3.23115 3.48477 3.28751 3.54531L7.05313 7.68593L2.86563 11.875C2.7493 11.9908 2.65708 12.1285 2.59433 12.2802C2.53157 12.4318 2.49951 12.5944 2.50001 12.7586V16.25C2.50001 16.5815 2.6317 16.8995 2.86612 17.1339C3.10054 17.3683 3.41849 17.5 3.75001 17.5H7.24141C7.40562 17.5005 7.5683 17.4684 7.71999 17.4055C7.87168 17.3426 8.00935 17.2502 8.12501 17.1336L12.0625 13.1969L15.7883 17.2953C15.8432 17.3572 15.9098 17.4075 15.9843 17.4435C16.0588 17.4794 16.1397 17.5002 16.2223 17.5046C16.3048 17.5091 16.3875 17.4971 16.4654 17.4694C16.5433 17.4416 16.615 17.3987 16.6762 17.3431C16.7374 17.2874 16.7869 17.2202 16.822 17.1453C16.857 17.0704 16.8768 16.9893 16.8803 16.9066C16.8837 16.824 16.8708 16.7415 16.8421 16.6639C16.8134 16.5863 16.7696 16.5152 16.7133 16.4547L4.21251 2.70468ZM9.13438 9.97968L5.31251 13.8039L4.0086 12.5L7.89532 8.61406L9.13438 9.97968ZM3.75001 14.0086L5.99141 16.25H3.75001V14.0086ZM7.50001 15.9914L6.19688 14.6875L9.97891 10.9055L11.2203 12.2711L7.50001 15.9914ZM17.7594 5.73203L14.268 2.2414C14.1519 2.1253 14.0141 2.0332 13.8624 1.97036C13.7107 1.90752 13.5482 1.87518 13.384 1.87518C13.2198 1.87518 13.0572 1.90752 12.9056 1.97036C12.7539 2.0332 12.6161 2.1253 12.5 2.2414L9.24454 5.49687C9.18652 5.55494 9.14051 5.62387 9.10913 5.69972C9.07775 5.77557 9.06162 5.85686 9.06165 5.93894C9.06173 6.10472 9.12765 6.26368 9.24493 6.38085C9.3622 6.49803 9.52122 6.56381 9.687 6.56374C9.85278 6.56366 10.0117 6.49774 10.1289 6.38046L10.625 5.88359L11.9289 7.18749L11.3281 7.78828C11.2677 7.84574 11.2193 7.91472 11.1859 7.99117C11.1525 8.06761 11.1347 8.14997 11.1337 8.23339C11.1326 8.3168 11.1482 8.39959 11.1797 8.47686C11.2111 8.55414 11.2577 8.62434 11.3167 8.68333C11.3757 8.74232 11.4459 8.7889 11.5231 8.82033C11.6004 8.85176 11.6832 8.8674 11.7666 8.86634C11.85 8.86527 11.9324 8.84751 12.0088 8.81411C12.0853 8.78071 12.1543 8.73235 12.2117 8.67187L12.8125 8.07109L14.1164 9.37499L13.4133 10.0781C13.2958 10.1953 13.2297 10.3543 13.2295 10.5203C13.2292 10.6862 13.2949 10.8454 13.4121 10.9629C13.5293 11.0804 13.6883 11.1465 13.8543 11.1467C14.0202 11.1469 14.1794 11.0812 14.2969 10.9641L17.7594 7.49999C17.8755 7.38392 17.9676 7.24611 18.0304 7.09443C18.0933 6.94275 18.1256 6.78019 18.1256 6.61601C18.1256 6.45183 18.0933 6.28927 18.0304 6.13759C17.9676 5.98591 17.8755 5.8481 17.7594 5.73203ZM15 8.4914L11.5094 4.99999L13.3844 3.12499L16.875 6.6164L15 8.4914Z" fill="#191F2E"/>
</svg>
