<svg width="20" height="20" viewBox="0 0 20 20" fill="none" xmlns="http://www.w3.org/2000/svg">
<path d="M4.44376 2.49453C4.36143 2.40173 4.2615 2.32619 4.14976 2.27229C4.03802 2.21839 3.91669 2.1872 3.79281 2.18054C3.66893 2.17387 3.54496 2.19186 3.42808 2.23346C3.3112 2.27506 3.20374 2.33945 3.11193 2.42288C3.02012 2.50632 2.94578 2.60715 2.89323 2.71953C2.84067 2.83191 2.81094 2.9536 2.80576 3.07755C2.80058 3.2015 2.82006 3.32525 2.86306 3.44162C2.90606 3.55799 2.97172 3.66467 3.05626 3.75547L6.62188 7.67735L2.64532 11.6539C2.49973 11.7986 2.3843 11.9708 2.30571 12.1604C2.22713 12.35 2.18695 12.5533 2.18751 12.7586V16.25C2.18751 16.6644 2.35213 17.0618 2.64515 17.3549C2.93818 17.6479 3.3356 17.8125 3.75001 17.8125H7.24141C7.44668 17.8131 7.65003 17.7729 7.83966 17.6944C8.02929 17.6158 8.20143 17.5003 8.3461 17.3547L12.0516 13.65L15.557 17.5055C15.6394 17.5983 15.7393 17.6738 15.851 17.7277C15.9628 17.7816 16.0841 17.8128 16.208 17.8195C16.3319 17.8261 16.4558 17.8081 16.5727 17.7665C16.6896 17.7249 16.797 17.6606 16.8889 17.5771C16.9807 17.4937 17.055 17.3929 17.1076 17.2805C17.1601 17.1681 17.1899 17.0464 17.195 16.9225C17.2002 16.7985 17.1807 16.6748 17.1377 16.5584C17.0947 16.442 17.0291 16.3353 16.9445 16.2445L4.44376 2.49453ZM8.70547 9.96953L5.31251 13.3594L4.45313 12.5L7.89063 9.06641L8.70547 9.96953ZM4.06251 14.7656L5.23438 15.9375H4.06251V14.7656ZM7.50001 15.5469L6.64063 14.6875L9.97032 11.3578L10.7914 12.2609L7.50001 15.5469ZM17.9805 5.51094L14.4891 2.02031C14.1961 1.72739 13.7987 1.56284 13.3844 1.56284C12.9701 1.56284 12.5727 1.72739 12.2797 2.02031L9.46719 4.83281C9.30749 4.99431 9.21184 5.2083 9.19803 5.43501C9.18421 5.66172 9.25318 5.88574 9.3921 6.06543C9.53102 6.24512 9.73046 6.36827 9.95334 6.41199C10.1762 6.45571 10.4074 6.41702 10.6039 6.30313L11.4906 7.1875C11.3359 7.36668 11.2546 7.59777 11.2632 7.83437C11.2718 8.07097 11.3697 8.29556 11.537 8.46302C11.7044 8.63048 11.9289 8.72842 12.1655 8.73716C12.4021 8.74591 12.6332 8.66481 12.8125 8.51016L13.6719 9.375L13.6297 9.41641C13.5425 9.50361 13.4733 9.60714 13.4261 9.72108C13.3789 9.83502 13.3546 9.95714 13.3546 10.0805C13.3546 10.2038 13.3789 10.3259 13.4261 10.4399C13.4733 10.5538 13.5425 10.6573 13.6297 10.7445C13.7169 10.8317 13.8204 10.9009 13.9344 10.9481C14.0483 10.9953 14.1704 11.0196 14.2938 11.0196C14.4171 11.0196 14.5392 10.9953 14.6531 10.9481C14.7671 10.9009 14.8706 10.8317 14.9578 10.7445L17.9789 7.72344C18.1245 7.5784 18.2401 7.40606 18.319 7.21628C18.3979 7.02651 18.4386 6.82304 18.4387 6.61751C18.4389 6.41199 18.3985 6.20846 18.3198 6.01857C18.2412 5.82869 18.1259 5.65619 17.9805 5.51094ZM15 8.04688L11.9531 5L13.3859 3.56719L16.4328 6.61406L15 8.04688Z" fill="#191F2E"/>
</svg>
