<svg width="20" height="20" viewBox="0 0 20 20" fill="none" xmlns="http://www.w3.org/2000/svg">
<path d="M17.7594 5.73203L14.268 2.24141C14.1519 2.1253 14.0141 2.0332 13.8624 1.97037C13.7107 1.90753 13.5482 1.87519 13.384 1.87519C13.2198 1.87519 13.0572 1.90753 12.9056 1.97037C12.7539 2.0332 12.6161 2.1253 12.5 2.24141L2.86641 11.875C2.74983 11.9907 2.65741 12.1283 2.59451 12.28C2.5316 12.4317 2.49948 12.5944 2.50001 12.7586V16.25C2.50001 16.5815 2.6317 16.8995 2.86612 17.1339C3.10054 17.3683 3.41849 17.5 3.75001 17.5H16.875C17.0408 17.5 17.1997 17.4342 17.3169 17.3169C17.4342 17.1997 17.5 17.0408 17.5 16.875C17.5 16.7092 17.4342 16.5503 17.3169 16.4331C17.1997 16.3159 17.0408 16.25 16.875 16.25H9.00938L17.7594 7.5C17.8755 7.38392 17.9676 7.24611 18.0304 7.09444C18.0933 6.94276 18.1256 6.78019 18.1256 6.61602C18.1256 6.45184 18.0933 6.28927 18.0304 6.1376C17.9676 5.98592 17.8755 5.84811 17.7594 5.73203ZM10.625 5.8836L11.9289 7.1875L5.31251 13.8039L4.0086 12.5L10.625 5.8836ZM3.75001 16.25V14.0086L5.99141 16.25H3.75001ZM7.50001 15.9914L6.19688 14.6875L12.8125 8.0711L14.1164 9.375L7.50001 15.9914ZM15 8.49141L11.5094 5L13.3844 3.125L16.875 6.61641L15 8.49141Z" fill="#191F2E"/>
</svg>
