<svg width="20" height="20" viewBox="0 0 20 20" fill="none" xmlns="http://www.w3.org/2000/svg">
<path d="M17.9797 5.51094L14.4891 2.01953C14.344 1.87437 14.1717 1.75922 13.9821 1.68066C13.7925 1.6021 13.5892 1.56166 13.384 1.56166C13.1787 1.56166 12.9755 1.6021 12.7859 1.68066C12.5963 1.75922 12.424 1.87437 12.2789 2.01953L2.64532 11.6539C2.4997 11.7986 2.38424 11.9707 2.30565 12.1603C2.22707 12.35 2.18691 12.5533 2.18751 12.7586V16.25C2.18751 16.6644 2.35213 17.0618 2.64515 17.3549C2.93818 17.6479 3.33561 17.8125 3.75001 17.8125H7.24141C7.44668 17.8131 7.65001 17.7729 7.83963 17.6943C8.02926 17.6157 8.2014 17.5003 8.3461 17.3547L17.9797 7.72031C18.2726 7.4273 18.4372 7.02994 18.4372 6.61562C18.4372 6.20131 18.2726 5.80395 17.9797 5.51094ZM7.10938 15.9375H4.06251V12.8906L10.625 6.32812L13.6719 9.375L7.10938 15.9375ZM15 8.04687L11.9531 5L13.3859 3.56719L16.4328 6.61406L15 8.04687Z" fill="#191F2E"/>
</svg>
