<svg width="20" height="20" viewBox="0 0 20 20" fill="none" xmlns="http://www.w3.org/2000/svg">
<path d="M17.9805 5.51094L14.4891 2.02031C14.1961 1.72739 13.7987 1.56284 13.3844 1.56284C12.9701 1.56284 12.5727 1.72739 12.2797 2.02031L2.64532 11.6539C2.49973 11.7986 2.3843 11.9708 2.30571 12.1604C2.22713 12.35 2.18695 12.5533 2.18751 12.7586V16.25C2.18751 16.6644 2.35213 17.0618 2.64515 17.3549C2.93818 17.6479 3.3356 17.8125 3.75001 17.8125H16.875C17.1236 17.8125 17.3621 17.7137 17.5379 17.5379C17.7137 17.3621 17.8125 17.1236 17.8125 16.875C17.8125 16.6264 17.7137 16.3879 17.5379 16.2121C17.3621 16.0363 17.1236 15.9375 16.875 15.9375H9.76563L17.9805 7.7211C18.1256 7.576 18.2408 7.40372 18.3193 7.21411C18.3979 7.02449 18.4383 6.82126 18.4383 6.61602C18.4383 6.41077 18.3979 6.20754 18.3193 6.01793C18.2408 5.82832 18.1256 5.65604 17.9805 5.51094ZM10.625 6.32813L11.4844 7.1875L5.93751 12.7344L5.07813 11.875L10.625 6.32813ZM4.06251 15.9375V13.5156L5.27501 14.7273L6.48438 15.9375H4.06251ZM8.12501 14.9219L7.26563 14.0625L12.8125 8.51563L13.6719 9.375L8.12501 14.9219ZM15 8.04688L11.9531 5L13.3859 3.56719L16.4328 6.61406L15 8.04688Z" fill="#191F2E"/>
</svg>
