<svg width="20" height="20" viewBox="0 0 20 20" fill="none" xmlns="http://www.w3.org/2000/svg">
<path d="M15.7453 4.25469C14.2215 2.73094 12.1549 1.87491 9.99998 1.87491C7.84507 1.87491 5.77842 2.73094 4.25466 4.25469C2.73091 5.77845 1.87488 7.8451 1.87488 10C1.87488 12.1549 2.73091 14.2216 4.25466 15.7453C5.77842 17.2691 7.84507 18.1251 9.99998 18.1251C12.1549 18.1251 14.2215 17.2691 15.7453 15.7453C17.269 14.2216 18.1251 12.1549 18.1251 10C18.1251 7.8451 17.269 5.77845 15.7453 4.25469ZM9.99998 13.3492C9.69255 12.9989 9.29313 12.7417 8.84697 12.6068C8.40082 12.4719 7.9258 12.4646 7.47576 12.5859L8.67185 10H11.3281L12.5211 12.5859C12.0715 12.4653 11.5971 12.4728 11.1516 12.6077C10.706 12.7426 10.3071 12.9994 9.99998 13.3492ZM13.125 16.1227C12.3451 16.5197 11.4966 16.7642 10.625 16.843V15C10.625 14.6685 10.7567 14.3505 10.9911 14.1161C11.2255 13.8817 11.5435 13.75 11.875 13.75C12.2065 13.75 12.5244 13.8817 12.7589 14.1161C12.9933 14.3505 13.125 14.6685 13.125 15V16.1227ZM14.8609 14.8617C14.7047 15.018 14.5422 15.1641 14.375 15.3024V13.75C14.3751 13.6596 14.3553 13.5702 14.3172 13.4883L10.5672 5.36329C10.5171 5.25505 10.437 5.1634 10.3365 5.09918C10.236 5.03495 10.1192 5.00082 9.99998 5.00082C9.8807 5.00082 9.76392 5.03495 9.66342 5.09918C9.56292 5.1634 9.48289 5.25505 9.43279 5.36329L5.68279 13.4883C5.6446 13.5702 5.62487 13.6596 5.62498 13.75V15.3024C5.45779 15.1641 5.29529 15.018 5.13904 14.8617C4.17743 13.9003 3.52254 12.6753 3.25717 11.3416C2.9918 10.008 3.12787 8.62558 3.64819 7.36927C4.16851 6.11296 5.04969 5.03916 6.18031 4.28367C7.31092 3.52819 8.64018 3.12495 9.99998 3.12495C11.3598 3.12495 12.689 3.52819 13.8196 4.28367C14.9503 5.03916 15.8314 6.11296 16.3518 7.36927C16.8721 8.62558 17.0082 10.008 16.7428 11.3416C16.4774 12.6753 15.8225 13.9003 14.8609 14.8617Z" fill="#191F2E"/>
</svg>
