<svg width="20" height="20" viewBox="0 0 20 20" fill="none" xmlns="http://www.w3.org/2000/svg">
<path d="M17.9805 5.51094L14.4891 2.02031C14.1961 1.72739 13.7987 1.56283 13.3844 1.56283C12.9701 1.56283 12.5727 1.72739 12.2797 2.02031L2.64532 11.6539C2.49973 11.7986 2.3843 11.9707 2.30571 12.1604C2.22713 12.35 2.18695 12.5533 2.18751 12.7586V16.25C2.18751 16.6644 2.35213 17.0618 2.64515 17.3549C2.93818 17.6479 3.3356 17.8125 3.75001 17.8125H16.875C17.1236 17.8125 17.3621 17.7137 17.5379 17.5379C17.7137 17.3621 17.8125 17.1236 17.8125 16.875C17.8125 16.6264 17.7137 16.3879 17.5379 16.2121C17.3621 16.0363 17.1236 15.9375 16.875 15.9375H9.76563L17.9805 7.72109C18.1256 7.57599 18.2408 7.40372 18.3193 7.2141C18.3979 7.02449 18.4383 6.82126 18.4383 6.61601C18.4383 6.41077 18.3979 6.20754 18.3193 6.01792C18.2408 5.82831 18.1256 5.65604 17.9805 5.51094ZM7.10938 15.9375H4.06251V12.8906L10.625 6.32812L13.6719 9.375L7.10938 15.9375ZM15 8.04687L11.9531 5L13.3859 3.56719L16.4328 6.61406L15 8.04687Z" fill="#191F2E"/>
</svg>
