<svg width="20" height="20" viewBox="0 0 20 20" fill="none" xmlns="http://www.w3.org/2000/svg">
<path d="M4.56876 10.5258L1.77032 8.51563C1.55526 8.36132 1.39473 8.14273 1.31186 7.89134C1.22899 7.63996 1.22806 7.36875 1.30921 7.1168C1.39035 6.86485 1.54938 6.64517 1.76339 6.48939C1.97739 6.33362 2.23532 6.2498 2.50001 6.25001H5.95626L4.56876 10.5258ZM4.15235 15.8594C4.0681 16.1104 4.06706 16.3819 4.1494 16.6336C4.23173 16.8852 4.39305 17.1036 4.60939 17.2563C4.8214 17.4137 5.07849 17.4988 5.34259 17.4988C5.60669 17.4988 5.86377 17.4137 6.07579 17.2563L8.9297 15.2031L5.2297 12.5406L4.15235 15.8594ZM11.1899 1.50469C11.112 1.25022 10.9546 1.0274 10.7408 0.86896C10.5269 0.710515 10.268 0.624783 10.0018 0.624346C9.73572 0.623909 9.47646 0.70879 9.26212 0.866532C9.04779 1.02427 8.88966 1.24657 8.81095 1.50079L7.67579 5.00001H12.3242L11.1899 1.50469ZM12.7297 6.25001H7.27032L5.63439 11.2922L10 14.4336L14.3656 11.2922L12.7297 6.25001ZM18.6859 7.11407C18.6073 6.86179 18.4495 6.64154 18.2359 6.48592C18.0223 6.3303 17.7643 6.24758 17.5 6.25001H14.0438L15.4313 10.5266L18.232 8.51094C18.4481 8.35789 18.609 8.13919 18.6907 7.88737C18.7725 7.63556 18.7708 7.36407 18.6859 7.11329V7.11407ZM14.7703 12.5414L11.0703 15.2031L13.9242 17.2563C14.1377 17.4112 14.3948 17.4947 14.6587 17.4947C14.9225 17.4946 15.1796 17.4111 15.3931 17.2561C15.6065 17.101 15.7655 16.8824 15.8471 16.6315C15.9288 16.3807 15.929 16.1104 15.8477 15.8594L14.7703 12.5414Z" fill="#191F2E"/>
</svg>
