<svg width="20" height="20" viewBox="0 0 20 20" fill="none" xmlns="http://www.w3.org/2000/svg">
<path d="M18.9844 7.01797C18.8833 6.70388 18.6851 6.43 18.4183 6.23582C18.1516 6.04164 17.83 5.93718 17.5 5.9375H12.9571L11.4883 1.41015C11.3899 1.09318 11.1927 0.81597 10.9256 0.618965C10.6584 0.42196 10.3354 0.31547 10.0034 0.315034C9.67153 0.314598 9.34816 0.420238 9.08052 0.616541C8.81288 0.812843 8.61497 1.08954 8.51568 1.40625L7.04302 5.9375H2.50005C2.16964 5.93751 1.84773 6.04227 1.5806 6.23672C1.31346 6.43116 1.11484 6.70529 1.01327 7.0197C0.911707 7.33412 0.912428 7.67264 1.01533 7.98662C1.11823 8.3006 1.31802 8.57388 1.58599 8.76718L5.26568 11.4148L3.85396 15.7664C3.75202 16.0799 3.75187 16.4177 3.85354 16.7313C3.9552 17.045 4.15347 17.3184 4.41997 17.5125C4.68647 17.7066 5.00754 17.8114 5.33724 17.812C5.66694 17.8126 5.98836 17.7088 6.25552 17.5156L10 14.8211L13.7415 17.5125C14.0083 17.7064 14.3298 17.8108 14.6596 17.8109C14.9895 17.8109 15.311 17.7066 15.5779 17.5127C15.8448 17.3189 16.0436 17.0456 16.1457 16.7319C16.2477 16.4182 16.2479 16.0802 16.1461 15.7664L14.7344 11.4148L18.418 8.76484C18.6847 8.57073 18.8832 8.29719 18.9849 7.98339C19.0867 7.6696 19.0865 7.33165 18.9844 7.01797ZM10 2.89921L10.986 5.9375H9.01411L10 2.89921ZM3.47036 7.8125H6.43442L5.87349 9.5414L3.47036 7.8125ZM5.93208 15.4375L6.86411 12.5641L8.39458 13.6656L5.93208 15.4375ZM7.47192 10.6914L8.40942 7.8125H11.5985L12.536 10.6914L10 12.5109L7.47192 10.6914ZM11.6055 13.6656L13.136 12.5641L14.068 15.4375L11.6055 13.6656ZM14.1266 9.5414L13.5657 7.8125H16.5297L14.1266 9.5414Z" fill="#191F2E"/>
</svg>
