<svg width="20" height="20" viewBox="0 0 20 20" fill="none" xmlns="http://www.w3.org/2000/svg">
<path d="M18.686 7.11329C18.6072 6.86115 18.4493 6.64108 18.2357 6.48561C18.0221 6.33014 17.7642 6.24753 17.5 6.25001H12.7344L11.1899 1.50469C11.112 1.25022 10.9546 1.0274 10.7408 0.86896C10.527 0.710515 10.268 0.624783 10.0019 0.624346C9.73575 0.623909 9.47649 0.70879 9.26215 0.866532C9.04782 1.02427 8.88969 1.24657 8.81098 1.50079L7.27035 6.25001H2.50004C2.23515 6.2493 1.97688 6.33276 1.76249 6.48835C1.54811 6.64394 1.38869 6.86362 1.30725 7.11568C1.22581 7.36775 1.22655 7.63917 1.30936 7.89079C1.39217 8.1424 1.55278 8.36121 1.76801 8.51563L5.63207 11.2953L4.15238 15.8594C4.06813 16.1104 4.06709 16.3819 4.14943 16.6336C4.23177 16.8852 4.39308 17.1036 4.60942 17.2563C4.82143 17.4137 5.07852 17.4988 5.34262 17.4988C5.60672 17.4988 5.8638 17.4137 6.07582 17.2563L10 14.4336L13.9243 17.2563C14.1378 17.4112 14.3949 17.4947 14.6587 17.4947C14.9225 17.4946 15.1796 17.4111 15.3931 17.2561C15.6066 17.101 15.7655 16.8824 15.8472 16.6315C15.9288 16.3807 15.929 16.1104 15.8477 15.8594L14.3633 11.2922L18.2297 8.51016C18.446 8.35747 18.6073 8.13905 18.6895 7.88737C18.7717 7.6357 18.7704 7.36421 18.686 7.11329ZM10 1.88672L11.4157 6.25001H8.58441L10 1.88672ZM2.50004 7.50001H6.86488L6.0391 10.0438L2.50004 7.50001ZM5.3391 16.25L6.6977 12.0633L8.92738 13.668L5.3391 16.25ZM7.10238 10.8148L8.17895 7.50001H11.8211L12.8954 10.8109L10 12.8906L7.10238 10.8148ZM14.6563 16.25L11.0704 13.6719L13.3 12.0672L14.6563 16.25ZM13.9586 10.0484L13.1352 7.50001H17.5L13.9586 10.0484Z" fill="#191F2E"/>
</svg>
