<svg width="20" height="20" viewBox="0 0 20 20" fill="none" xmlns="http://www.w3.org/2000/svg">
<path d="M13.068 3.15781C12.9296 2.4454 12.5479 1.80323 11.9882 1.3412C11.4286 0.879166 10.7257 0.625992 10 0.625C9.83424 0.625 9.67527 0.690848 9.55806 0.808058C9.44085 0.925268 9.375 1.08424 9.375 1.25C9.375 1.41576 9.44085 1.57473 9.55806 1.69194C9.67527 1.80915 9.83424 1.875 10 1.875C10.397 1.875 10.7838 2.00103 11.1046 2.23494C11.4254 2.46885 11.6637 2.79855 11.7852 3.17656C10.5959 3.34967 9.50851 3.94485 8.72176 4.85339C7.935 5.76192 7.50135 6.92316 7.5 8.125C7.5 11.7773 5.48828 14.2187 1.52109 15.3906C1.24973 15.4697 1.01319 15.6385 0.850063 15.8693C0.686939 16.1001 0.606866 16.3794 0.622912 16.6616C0.638957 16.9438 0.750174 17.2123 0.938411 17.4231C1.12665 17.634 1.38079 17.7748 1.65938 17.8227C2.83361 18.0257 4.02319 18.1268 5.21484 18.125C8.40078 18.125 11.9461 17.4102 14.3969 15.3547C16.4562 13.6281 17.5 11.1953 17.5 8.125C17.4987 6.89768 17.0465 5.71362 16.2294 4.79784C15.4123 3.88207 14.2872 3.29842 13.068 3.15781ZM12.5 4.375C13.2803 4.37604 14.041 4.62012 14.6762 5.07333C15.3114 5.52654 15.7897 6.16637 16.0445 6.90391L15 7.42187L12.7797 6.31484C12.6929 6.27139 12.5971 6.24877 12.5 6.24877C12.4029 6.24877 12.3071 6.27139 12.2203 6.31484L10 7.42187L8.95547 6.9C9.21108 6.16326 9.68966 5.52434 10.3248 5.07188C10.96 4.61943 11.7202 4.37587 12.5 4.375ZM13.5938 14.3984C12.1875 15.5758 10.1875 16.3719 7.80312 16.7008C5.83275 16.9613 3.83442 16.9244 1.875 16.5914C6.34609 15.2734 8.72109 12.3727 8.75 8.19922L9.72187 8.68515C9.80871 8.72861 9.90447 8.75123 10.0016 8.75123C10.0987 8.75123 10.1944 8.72861 10.2812 8.68515L12.5 7.57266L14.7203 8.68281C14.8071 8.72626 14.9029 8.74888 15 8.74888C15.0971 8.74888 15.1929 8.72626 15.2797 8.68281L16.2492 8.19844C16.2328 10.8469 15.3398 12.9328 13.5938 14.3977V14.3984Z" fill="#191F2E"/>
</svg>
