<svg width="20" height="20" viewBox="0 0 20 20" fill="none" xmlns="http://www.w3.org/2000/svg">
<path d="M13.75 13.4375C13.75 13.6229 13.695 13.8042 13.592 13.9583C13.489 14.1125 13.3426 14.2327 13.1713 14.3036C13 14.3746 12.8115 14.3932 12.6296 14.357C12.4477 14.3208 12.2807 14.2315 12.1496 14.1004C12.0185 13.9693 11.9292 13.8023 11.893 13.6204C11.8568 13.4385 11.8754 13.25 11.9464 13.0787C12.0173 12.9074 12.1375 12.761 12.2917 12.658C12.4458 12.555 12.6271 12.5 12.8125 12.5C13.0611 12.5 13.2996 12.5988 13.4754 12.7746C13.6512 12.9504 13.75 13.1889 13.75 13.4375ZM7.1875 7.5C7.37292 7.5 7.55418 7.44502 7.70835 7.342C7.86252 7.23899 7.98268 7.09257 8.05364 6.92127C8.12459 6.74996 8.14316 6.56146 8.10699 6.3796C8.07081 6.19775 7.98152 6.0307 7.85041 5.89959C7.7193 5.76848 7.55225 5.67919 7.3704 5.64301C7.18854 5.60684 7.00004 5.62541 6.82873 5.69636C6.65743 5.76732 6.51101 5.88748 6.408 6.04165C6.30498 6.19582 6.25 6.37708 6.25 6.5625C6.25 6.81114 6.34877 7.0496 6.52459 7.22541C6.7004 7.40123 6.93886 7.5 7.1875 7.5ZM17.5 3.75V16.25C17.5 16.5815 17.3683 16.8995 17.1339 17.1339C16.8995 17.3683 16.5815 17.5 16.25 17.5H3.75C3.41848 17.5 3.10054 17.3683 2.86612 17.1339C2.6317 16.8995 2.5 16.5815 2.5 16.25V3.75C2.5 3.41848 2.6317 3.10054 2.86612 2.86612C3.10054 2.6317 3.41848 2.5 3.75 2.5H16.25C16.5815 2.5 16.8995 2.6317 17.1339 2.86612C17.3683 3.10054 17.5 3.41848 17.5 3.75ZM5 6.5625C5 6.99515 5.12829 7.41808 5.36866 7.77781C5.60903 8.13754 5.95067 8.41792 6.35038 8.58349C6.75009 8.74905 7.18993 8.79237 7.61426 8.70797C8.03859 8.62356 8.42837 8.41522 8.7343 8.1093C9.04022 7.80337 9.24856 7.41359 9.33297 6.98926C9.41737 6.56493 9.37405 6.12509 9.20849 5.72538C9.04292 5.32567 8.76254 4.98403 8.40281 4.74366C8.04308 4.50329 7.62015 4.375 7.1875 4.375C6.60734 4.375 6.05094 4.60547 5.6407 5.0157C5.23047 5.42594 5 5.98234 5 6.5625ZM15 13.4375C15 13.0049 14.8717 12.5819 14.6313 12.2222C14.391 11.8625 14.0493 11.5821 13.6496 11.4165C13.2499 11.2509 12.8101 11.2076 12.3857 11.292C11.9614 11.3764 11.5716 11.5848 11.2657 11.8907C10.9598 12.1966 10.7514 12.5864 10.667 13.0107C10.5826 13.4351 10.6259 13.8749 10.7915 14.2746C10.9571 14.6743 11.2375 15.016 11.5972 15.2563C11.9569 15.4967 12.3799 15.625 12.8125 15.625C13.3927 15.625 13.9491 15.3945 14.3593 14.9843C14.7695 14.5741 15 14.0177 15 13.4375ZM14.8172 5.18281C14.7591 5.1247 14.6902 5.0786 14.6143 5.04715C14.5385 5.0157 14.4571 4.99951 14.375 4.99951C14.2929 4.99951 14.2115 5.0157 14.1357 5.04715C14.0598 5.0786 13.9909 5.1247 13.9328 5.18281L5.18281 13.9328C5.06554 14.0501 4.99965 14.2091 4.99965 14.375C4.99965 14.5409 5.06554 14.6999 5.18281 14.8172C5.30009 14.9345 5.45915 15.0003 5.625 15.0003C5.79085 15.0003 5.94991 14.9345 6.06719 14.8172L14.8172 6.06719C14.8753 6.00914 14.9214 5.94021 14.9529 5.86434C14.9843 5.78846 15.0005 5.70713 15.0005 5.625C15.0005 5.54287 14.9843 5.46154 14.9529 5.38566C14.9214 5.30979 14.8753 5.24086 14.8172 5.18281Z" fill="#191F2E"/>
</svg>
