<svg width="20" height="20" viewBox="0 0 20 20" fill="none" xmlns="http://www.w3.org/2000/svg">
<path d="M17.2882 10.2609L13.7632 6.26483C13.5115 5.97879 13.2043 5.74687 12.8602 5.58317C12.5162 5.41946 12.1424 5.32737 11.7617 5.31249C12.2156 4.94776 12.5451 4.45115 12.7047 3.89119C12.8643 3.33122 12.8462 2.73552 12.6529 2.18628C12.4596 1.63704 12.1005 1.16135 11.6253 0.824842C11.1501 0.488339 10.5822 0.307617 9.99996 0.307617C9.41768 0.307617 8.84976 0.488339 8.37457 0.824842C7.89938 1.16135 7.54035 1.63704 7.34701 2.18628C7.15368 2.73552 7.13558 3.33122 7.29522 3.89119C7.45485 4.45115 7.78435 4.94776 8.23824 5.31249C7.8575 5.32737 7.48375 5.41946 7.13968 5.58317C6.79561 5.74687 6.48839 5.97879 6.23667 6.26483L2.71167 10.2609C2.37196 10.613 2.18334 11.084 2.18606 11.5732C2.18879 12.0625 2.38264 12.5313 2.72625 12.8796C3.06986 13.2279 3.536 13.4281 4.02518 13.4375C4.51435 13.4468 4.98781 13.2646 5.34449 12.9297L5.87027 12.5086L4.82339 16.4844C4.64058 16.934 4.63922 17.4369 4.81961 17.8875C4.99999 18.3381 5.34806 18.7012 5.79063 18.9004C6.2332 19.0996 6.73578 19.1195 7.19268 18.9558C7.64958 18.7921 8.02521 18.4576 8.24058 18.0226L9.99996 14.9922L11.7593 18.0226C11.9724 18.4536 12.3439 18.7853 12.796 18.9484C13.1367 19.0726 13.506 19.0953 13.8593 19.0138C14.2126 18.9324 14.5347 18.7503 14.7866 18.4895C15.0385 18.2288 15.2094 17.9006 15.2786 17.5447C15.3478 17.1888 15.3123 16.8205 15.1765 16.4844L14.1296 12.5086L14.6554 12.9297C15.0121 13.2646 15.4856 13.4468 15.9747 13.4375C16.4639 13.4281 16.93 13.2279 17.2737 12.8796C17.6173 12.5313 17.8111 12.0625 17.8138 11.5732C17.8166 11.084 17.6279 10.613 17.2882 10.2609ZM9.99996 2.18749C10.1854 2.18749 10.3666 2.24247 10.5208 2.34549C10.675 2.4485 10.7951 2.59492 10.8661 2.76623C10.937 2.93753 10.9556 3.12603 10.9194 3.30789C10.8833 3.48975 10.794 3.65679 10.6629 3.7879C10.5318 3.91902 10.3647 4.0083 10.1829 4.04448C10.001 4.08065 9.8125 4.06209 9.64119 3.99113C9.46988 3.92017 9.32347 3.80001 9.22045 3.64584C9.11744 3.49167 9.06246 3.31041 9.06246 3.12499C9.06246 2.87635 9.16123 2.63789 9.33704 2.46208C9.51286 2.28626 9.75132 2.18749 9.99996 2.18749ZM15.8593 11.4937L13.0843 9.26796C12.9304 9.14458 12.7415 9.07288 12.5445 9.06308C12.3475 9.05327 12.1524 9.10586 11.987 9.21335C11.8216 9.32084 11.6944 9.47776 11.6233 9.66178C11.5523 9.84579 11.5411 10.0475 11.5914 10.2383L13.3804 17.0312C13.3948 17.0849 13.4139 17.1372 13.4375 17.1875C13.4258 17.1608 13.4128 17.1347 13.3984 17.1094L10.8109 12.6562C10.7285 12.5142 10.6102 12.3962 10.4679 12.3143C10.3256 12.2323 10.1642 12.1892 9.99996 12.1892C9.83572 12.1892 9.67436 12.2323 9.53204 12.3143C9.38972 12.3962 9.27143 12.5142 9.18902 12.6562L6.60152 17.1094C6.58715 17.1347 6.57411 17.1608 6.56246 17.1875C6.58566 17.137 6.60473 17.0848 6.61949 17.0312L8.40621 10.2406C8.45646 10.0499 8.44527 9.84814 8.37423 9.66412C8.30319 9.48011 8.17592 9.32319 8.01053 9.21569C7.84513 9.1082 7.65005 9.05562 7.45304 9.06542C7.25603 9.07523 7.06714 9.14692 6.91324 9.2703L4.14058 11.4937C4.11325 11.5149 4.08717 11.5376 4.06246 11.5617C4.07652 11.5484 4.0898 11.5336 4.10308 11.5195L7.64292 7.50468C7.73092 7.40496 7.83913 7.32511 7.96035 7.27042C8.08158 7.21573 8.21306 7.18746 8.34605 7.18749H11.6539C11.7869 7.18746 11.9183 7.21573 12.0396 7.27042C12.1608 7.32511 12.269 7.40496 12.357 7.50468L15.8976 11.5195C15.9109 11.5336 15.9242 11.5484 15.9382 11.5617C15.9133 11.5375 15.8869 11.5149 15.8593 11.4937Z" fill="#191F2E"/>
</svg>
