<svg width="20" height="20" viewBox="0 0 20 20" fill="none" xmlns="http://www.w3.org/2000/svg">
<path d="M18.3906 6.78507C18.3051 6.36511 18.0757 5.98816 17.7419 5.7193C17.4082 5.45044 16.991 5.30653 16.5625 5.31242H11.7648C12.2179 4.94726 12.5466 4.45054 12.7056 3.89073C12.8645 3.33093 12.8459 2.73561 12.6523 2.18683C12.4587 1.63805 12.0996 1.16284 11.6246 0.826704C11.1495 0.490568 10.5819 0.310059 10 0.310059C9.41807 0.310059 8.85046 0.490568 8.37543 0.826704C7.9004 1.16284 7.54133 1.63805 7.34772 2.18683C7.15411 2.73561 7.13549 3.33093 7.29443 3.89073C7.45338 4.45054 7.78205 4.94726 8.23515 5.31242H3.4375C3.01051 5.31348 2.59667 5.46024 2.26442 5.72844C1.93217 5.99664 1.70142 6.3702 1.61032 6.78736C1.51921 7.20452 1.57322 7.64028 1.76341 8.02257C1.9536 8.40486 2.26857 8.71079 2.65625 8.88976L2.67109 8.89679L6.39218 10.5374L4.825 16.4843C4.64512 16.9296 4.64298 17.4269 4.81901 17.8738C4.99504 18.3206 5.33583 18.6829 5.77109 18.8859C6.01866 19.0023 6.28891 19.0626 6.5625 19.0624C6.91161 19.063 7.25396 18.9662 7.551 18.7827C7.84803 18.5993 8.08795 18.3366 8.24375 18.0241L10 14.9929L11.7586 18.0241C11.9743 18.4587 12.3501 18.7928 12.8069 18.9561C13.2638 19.1194 13.7662 19.0992 14.2085 18.8999C14.6508 18.7005 14.9987 18.3374 15.1789 17.887C15.3591 17.4365 15.3577 16.9337 15.175 16.4843L13.6125 10.5351L17.3336 8.89445L17.3484 8.88742C17.7397 8.71311 18.0579 8.40774 18.2482 8.02395C18.4384 7.64017 18.4888 7.20202 18.3906 6.78507ZM10 2.18742C10.1854 2.18742 10.3667 2.2424 10.5208 2.34541C10.675 2.44843 10.7952 2.59485 10.8661 2.76615C10.9371 2.93746 10.9557 3.12596 10.9195 3.30781C10.8833 3.48967 10.794 3.65672 10.6629 3.78783C10.5318 3.91894 10.3647 4.00823 10.1829 4.0444C10.001 4.08058 9.81254 4.06201 9.64123 3.99105C9.46992 3.9201 9.32351 3.79994 9.22049 3.64576C9.11748 3.49159 9.0625 3.31034 9.0625 3.12492C9.0625 2.87628 9.16127 2.63782 9.33708 2.462C9.5129 2.28619 9.75136 2.18742 10 2.18742ZM12.1219 9.14054C11.9182 9.23039 11.7532 9.38976 11.6563 9.59015C11.5594 9.79054 11.5369 10.0189 11.593 10.2343L13.3797 17.0312C13.394 17.0849 13.4131 17.1371 13.4367 17.1874C13.425 17.1624 13.4117 17.1374 13.3977 17.1132L10.8109 12.6562C10.7285 12.5141 10.6102 12.3962 10.4679 12.3142C10.3256 12.2322 10.1642 12.1891 10 12.1891C9.83576 12.1891 9.6744 12.2322 9.53208 12.3142C9.38976 12.3962 9.27147 12.5141 9.18906 12.6562L6.60234 17.1132C6.58828 17.1374 6.575 17.1624 6.56328 17.1874C6.58693 17.1371 6.60602 17.0849 6.62031 17.0312L8.40703 10.2405C8.46306 10.0251 8.44062 9.79679 8.34372 9.5964C8.24682 9.39601 8.08177 9.23664 7.87812 9.14679L3.4375 7.18742H16.5625L12.1219 9.14054Z" fill="#191F2E"/>
</svg>
