<svg width="20" height="20" viewBox="0 0 20 20" fill="none" xmlns="http://www.w3.org/2000/svg">
<path d="M7.81244 2.8125C7.81244 2.37985 7.94074 1.95692 8.1811 1.59719C8.42147 1.23746 8.76311 0.957081 9.16282 0.791515C9.56254 0.625948 10.0024 0.582628 10.4267 0.667033C10.851 0.751438 11.2408 0.959778 11.5467 1.2657C11.8527 1.57163 12.061 1.96141 12.1454 2.38574C12.2298 2.81007 12.1865 3.24991 12.0209 3.64962C11.8554 4.04933 11.575 4.39098 11.2153 4.63134C10.8555 4.87171 10.4326 5 9.99994 5C9.41978 5 8.86338 4.76953 8.45315 4.3593C8.04291 3.94906 7.81244 3.39266 7.81244 2.8125ZM17.7812 7.23203C17.7243 6.95201 17.5713 6.70065 17.3488 6.52136C17.1263 6.34207 16.8482 6.24609 16.5624 6.25H3.43744C3.15246 6.24999 2.87603 6.34735 2.65396 6.52596C2.43189 6.70457 2.27752 6.9537 2.21643 7.23206C2.15535 7.51042 2.19121 7.80129 2.31808 8.05648C2.44495 8.31166 2.65521 8.51584 2.91401 8.63516H2.91869L7.12885 10.4891L5.41635 16.9969C5.28566 17.2959 5.27706 17.6341 5.39238 17.9393C5.5077 18.2446 5.7378 18.4926 6.03354 18.6305C6.19883 18.709 6.37947 18.7498 6.56244 18.75C6.79808 18.7503 7.02902 18.6841 7.22862 18.5588C7.42822 18.4336 7.58836 18.2545 7.69057 18.0422L9.99994 14.0625L12.3109 18.0469C12.4546 18.3393 12.7068 18.564 13.0138 18.6732C13.3208 18.7823 13.6583 18.7673 13.9543 18.6314C14.2504 18.4954 14.4817 18.2492 14.5989 17.9452C14.7162 17.6412 14.7101 17.3035 14.582 17.0039L12.8695 10.4961L17.0882 8.63984C17.35 8.52313 17.5627 8.31842 17.6893 8.06124C17.8159 7.80407 17.8484 7.51069 17.7812 7.23203Z" fill="#191F2E"/>
</svg>
