<svg width="20" height="20" viewBox="0 0 20 20" fill="none" xmlns="http://www.w3.org/2000/svg">
<path d="M10.625 4.0625C10.625 3.62985 10.7533 3.20692 10.9937 2.84719C11.234 2.48746 11.5757 2.20708 11.9754 2.04151C12.3751 1.87595 12.8149 1.83263 13.2393 1.91703C13.6636 2.00144 14.0534 2.20978 14.3593 2.51571C14.6652 2.82163 14.8736 3.21141 14.958 3.63574C15.0424 4.06007 14.9991 4.49991 14.8335 4.89962C14.6679 5.29933 14.3875 5.64098 14.0278 5.88134C13.6681 6.12171 13.2451 6.25 12.8125 6.25C12.2323 6.25 11.6759 6.01953 11.2657 5.6093C10.8555 5.19906 10.625 4.64266 10.625 4.0625ZM18.75 13.75C18.75 14.3681 18.5667 14.9723 18.2233 15.4862C17.88 16.0001 17.3919 16.4006 16.8209 16.6371C16.2499 16.8736 15.6215 16.9355 15.0153 16.815C14.4092 16.6944 13.8523 16.3967 13.4153 15.9597C12.9783 15.5227 12.6806 14.9658 12.56 14.3597C12.4395 13.7535 12.5014 13.1251 12.7379 12.5541C12.9744 11.9831 13.3749 11.495 13.8888 11.1517C14.4027 10.8083 15.0069 10.625 15.625 10.625C16.4538 10.625 17.2487 10.9542 17.8347 11.5403C18.4208 12.1263 18.75 12.9212 18.75 13.75ZM17.5 13.75C17.5 13.3792 17.39 13.0166 17.184 12.7083C16.978 12.4 16.6851 12.1596 16.3425 12.0177C15.9999 11.8758 15.6229 11.8387 15.2592 11.911C14.8955 11.9834 14.5614 12.162 14.2992 12.4242C14.037 12.6864 13.8584 13.0205 13.786 13.3842C13.7137 13.7479 13.7508 14.1249 13.8927 14.4675C14.0346 14.8101 14.275 15.103 14.5833 15.309C14.8916 15.515 15.2542 15.625 15.625 15.625C16.1223 15.625 16.5992 15.4275 16.9508 15.0758C17.3025 14.7242 17.5 14.2473 17.5 13.75ZM15.625 8.75C15.625 8.58424 15.5592 8.42527 15.4419 8.30806C15.3247 8.19085 15.1658 8.125 15 8.125H12.1336L9.81719 5.80781C9.75914 5.7497 9.69021 5.7036 9.61434 5.67215C9.53847 5.6407 9.45714 5.62451 9.375 5.62451C9.29287 5.62451 9.21154 5.6407 9.13566 5.67215C9.05979 5.7036 8.99086 5.7497 8.93281 5.80781L6.43281 8.30781C6.3747 8.36586 6.3286 8.43479 6.29715 8.51066C6.2657 8.58654 6.24951 8.66787 6.24951 8.75C6.24951 8.83214 6.2657 8.91347 6.29715 8.98934C6.3286 9.06521 6.3747 9.13414 6.43281 9.19219L9.375 12.1336V15.625C9.375 15.7908 9.44085 15.9497 9.55806 16.0669C9.67527 16.1842 9.83424 16.25 10 16.25C10.1658 16.25 10.3247 16.1842 10.4419 16.0669C10.5592 15.9497 10.625 15.7908 10.625 15.625V11.875C10.6251 11.7929 10.609 11.7116 10.5776 11.6357C10.5462 11.5598 10.5002 11.4909 10.4422 11.4328L7.75859 8.75L9.375 7.13359L11.4328 9.19219C11.4909 9.25021 11.5598 9.29622 11.6357 9.32759C11.7116 9.35895 11.7929 9.37507 11.875 9.375H15C15.1658 9.375 15.3247 9.30915 15.4419 9.19194C15.5592 9.07473 15.625 8.91576 15.625 8.75ZM7.5 13.75C7.5 14.3681 7.31672 14.9723 6.97334 15.4862C6.62996 16.0001 6.14191 16.4006 5.57089 16.6371C4.99987 16.8736 4.37154 16.9355 3.76534 16.815C3.15915 16.6944 2.60233 16.3967 2.16529 15.9597C1.72825 15.5227 1.43063 14.9658 1.31005 14.3597C1.18947 13.7535 1.25135 13.1251 1.48788 12.5541C1.7244 11.9831 2.12494 11.495 2.63884 11.1517C3.15275 10.8083 3.75693 10.625 4.375 10.625C4.78538 10.625 5.19174 10.7058 5.57089 10.8629C5.95003 11.0199 6.29453 11.2501 6.58471 11.5403C6.87489 11.8305 7.10508 12.175 7.26213 12.5541C7.41917 12.9333 7.5 13.3396 7.5 13.75ZM6.25 13.75C6.25 13.3792 6.14003 13.0166 5.93401 12.7083C5.72798 12.4 5.43514 12.1596 5.09253 12.0177C4.74992 11.8758 4.37292 11.8387 4.00921 11.911C3.64549 11.9834 3.3114 12.162 3.04918 12.4242C2.78695 12.6864 2.60838 13.0205 2.53603 13.3842C2.46368 13.7479 2.50081 14.1249 2.64273 14.4675C2.78464 14.8101 3.02496 15.103 3.33331 15.309C3.64165 15.515 4.00416 15.625 4.375 15.625C4.87228 15.625 5.3492 15.4275 5.70083 15.0758C6.05246 14.7242 6.25 14.2473 6.25 13.75Z" fill="#191F2E"/>
</svg>
