<svg width="20" height="20" viewBox="0 0 20 20" fill="none" xmlns="http://www.w3.org/2000/svg">
<path d="M12.8125 6.25C13.2451 6.25 13.6681 6.12171 14.0278 5.88134C14.3875 5.64098 14.6679 5.29933 14.8335 4.89962C14.9991 4.49991 15.0424 4.06007 14.958 3.63574C14.8736 3.21141 14.6652 2.82163 14.3593 2.51571C14.0534 2.20978 13.6636 2.00144 13.2393 1.91703C12.8149 1.83263 12.3751 1.87595 11.9754 2.04151C11.5757 2.20708 11.234 2.48746 10.9937 2.84719C10.7533 3.20692 10.625 3.62985 10.625 4.0625C10.625 4.64266 10.8555 5.19906 11.2657 5.6093C11.6759 6.01953 12.2323 6.25 12.8125 6.25ZM12.8125 3.125C12.9979 3.125 13.1792 3.17998 13.3333 3.283C13.4875 3.38601 13.6077 3.53243 13.6786 3.70374C13.7496 3.87504 13.7682 4.06354 13.732 4.2454C13.6958 4.42726 13.6065 4.5943 13.4754 4.72541C13.3443 4.85653 13.1773 4.94581 12.9954 4.98199C12.8135 5.01816 12.625 4.9996 12.4537 4.92864C12.2824 4.85768 12.136 4.73752 12.033 4.58335C11.93 4.42918 11.875 4.24792 11.875 4.0625C11.875 3.81386 11.9738 3.5754 12.1496 3.39959C12.3254 3.22377 12.5639 3.125 12.8125 3.125ZM15.625 10.625C15.0069 10.625 14.4027 10.8083 13.8888 11.1517C13.3749 11.495 12.9744 11.9831 12.7379 12.5541C12.5014 13.1251 12.4395 13.7535 12.56 14.3597C12.6806 14.9658 12.9783 15.5227 13.4153 15.9597C13.8523 16.3967 14.4092 16.6944 15.0153 16.815C15.6215 16.9355 16.2499 16.8736 16.8209 16.6371C17.3919 16.4006 17.88 16.0001 18.2233 15.4862C18.5667 14.9723 18.75 14.3681 18.75 13.75C18.75 12.9212 18.4208 12.1263 17.8347 11.5403C17.2487 10.9542 16.4538 10.625 15.625 10.625ZM15.625 15.625C15.2542 15.625 14.8916 15.515 14.5833 15.309C14.275 15.103 14.0346 14.8101 13.8927 14.4675C13.7508 14.1249 13.7137 13.7479 13.786 13.3842C13.8584 13.0205 14.037 12.6864 14.2992 12.4242C14.5614 12.162 14.8955 11.9834 15.2592 11.911C15.6229 11.8387 15.9999 11.8758 16.3425 12.0177C16.6851 12.1596 16.978 12.4 17.184 12.7083C17.39 13.0166 17.5 13.3792 17.5 13.75C17.5 14.2473 17.3025 14.7242 16.9508 15.0758C16.5992 15.4275 16.1223 15.625 15.625 15.625ZM4.375 10.625C3.75693 10.625 3.15275 10.8083 2.63884 11.1517C2.12494 11.495 1.7244 11.9831 1.48788 12.5541C1.25135 13.1251 1.18947 13.7535 1.31005 14.3597C1.43063 14.9658 1.72825 15.5227 2.16529 15.9597C2.60233 16.3967 3.15915 16.6944 3.76534 16.815C4.37154 16.9355 4.99987 16.8736 5.57089 16.6371C6.14191 16.4006 6.62996 16.0001 6.97334 15.4862C7.31672 14.9723 7.5 14.3681 7.5 13.75C7.5 13.3396 7.41917 12.9333 7.26213 12.5541C7.10508 12.175 6.87489 11.8305 6.58471 11.5403C6.29453 11.2501 5.95003 11.0199 5.57089 10.8629C5.19174 10.7058 4.78538 10.625 4.375 10.625ZM4.375 15.625C4.00416 15.625 3.64165 15.515 3.33331 15.309C3.02496 15.103 2.78464 14.8101 2.64273 14.4675C2.50081 14.1249 2.46368 13.7479 2.53603 13.3842C2.60838 13.0205 2.78695 12.6864 3.04918 12.4242C3.3114 12.162 3.64549 11.9834 4.00921 11.911C4.37292 11.8387 4.74992 11.8758 5.09253 12.0177C5.43514 12.1596 5.72798 12.4 5.93401 12.7083C6.14003 13.0166 6.25 13.3792 6.25 13.75C6.25 14.2473 6.05246 14.7242 5.70083 15.0758C5.3492 15.4275 4.87228 15.625 4.375 15.625ZM15 9.375H11.875C11.7929 9.37507 11.7116 9.35895 11.6357 9.32759C11.5598 9.29622 11.4909 9.25021 11.4328 9.19219L9.375 7.13359L7.75859 8.75L10.4422 11.4328C10.5002 11.4909 10.5462 11.5598 10.5776 11.6357C10.609 11.7116 10.6251 11.7929 10.625 11.875V15.625C10.625 15.7908 10.5592 15.9497 10.4419 16.0669C10.3247 16.1842 10.1658 16.25 10 16.25C9.83424 16.25 9.67527 16.1842 9.55806 16.0669C9.44085 15.9497 9.375 15.7908 9.375 15.625V12.1336L6.43281 9.19219C6.3747 9.13414 6.3286 9.06521 6.29715 8.98934C6.2657 8.91347 6.24951 8.83214 6.24951 8.75C6.24951 8.66787 6.2657 8.58654 6.29715 8.51066C6.3286 8.43479 6.3747 8.36586 6.43281 8.30781L8.93281 5.80781C8.99086 5.7497 9.05979 5.7036 9.13566 5.67215C9.21154 5.6407 9.29287 5.62451 9.375 5.62451C9.45714 5.62451 9.53847 5.6407 9.61434 5.67215C9.69021 5.7036 9.75914 5.7497 9.81719 5.80781L12.1336 8.125H15C15.1658 8.125 15.3247 8.19085 15.4419 8.30806C15.5592 8.42527 15.625 8.58424 15.625 8.75C15.625 8.91576 15.5592 9.07473 15.4419 9.19194C15.3247 9.30915 15.1658 9.375 15 9.375Z" fill="#191F2E"/>
</svg>
