<svg width="20" height="20" viewBox="0 0 20 20" fill="none" xmlns="http://www.w3.org/2000/svg">
<path d="M13.125 6.5625C13.6195 6.5625 14.1028 6.41588 14.5139 6.14118C14.925 5.86647 15.2455 5.47603 15.4347 5.01921C15.6239 4.56239 15.6734 4.05973 15.577 3.57478C15.4805 3.08982 15.2424 2.64437 14.8928 2.29473C14.5431 1.9451 14.0977 1.707 13.6127 1.61054C13.1278 1.51407 12.6251 1.56358 12.1683 1.7528C11.7115 1.94202 11.321 2.26245 11.0463 2.67358C10.7716 3.0847 10.625 3.56805 10.625 4.0625C10.625 4.72554 10.8884 5.36143 11.3572 5.83027C11.8261 6.29911 12.462 6.5625 13.125 6.5625ZM13.125 3.4375C13.2486 3.4375 13.3695 3.47416 13.4722 3.54283C13.575 3.61151 13.6551 3.70912 13.7024 3.82332C13.7497 3.93753 13.7621 4.06319 13.738 4.18443C13.7139 4.30567 13.6544 4.41704 13.5669 4.50444C13.4795 4.59185 13.3682 4.65138 13.2469 4.67549C13.1257 4.69961 13 4.68723 12.8858 4.63993C12.7716 4.59262 12.674 4.51251 12.6053 4.40973C12.5367 4.30695 12.5 4.18611 12.5 4.0625C12.5 3.89674 12.5658 3.73777 12.6831 3.62056C12.8003 3.50335 12.9592 3.4375 13.125 3.4375ZM15.7813 10.625C15.1323 10.625 14.4979 10.8174 13.9583 11.178C13.4187 11.5385 12.9981 12.051 12.7498 12.6506C12.5014 13.2501 12.4364 13.9099 12.563 14.5464C12.6897 15.1829 13.0022 15.7676 13.4611 16.2264C13.9199 16.6853 14.5046 16.9978 15.1411 17.1245C15.7776 17.2511 16.4374 17.1861 17.0369 16.9377C17.6365 16.6894 18.149 16.2688 18.5095 15.7292C18.8701 15.1896 19.0625 14.5552 19.0625 13.9063C19.0625 13.036 18.7168 12.2014 18.1014 11.5861C17.4861 10.9707 16.6515 10.625 15.7813 10.625ZM15.7813 15.3125C15.5031 15.3125 15.2312 15.23 15 15.0755C14.7687 14.921 14.5885 14.7014 14.482 14.4444C14.3756 14.1874 14.3478 13.9047 14.402 13.6319C14.4563 13.3591 14.5902 13.1086 14.7869 12.9119C14.9836 12.7152 15.2341 12.5813 15.5069 12.527C15.7797 12.4728 16.0624 12.5006 16.3194 12.607C16.5764 12.7135 16.796 12.8937 16.9505 13.125C17.105 13.3562 17.1875 13.6281 17.1875 13.9063C17.1875 14.2792 17.0393 14.6369 16.7756 14.9006C16.5119 15.1643 16.1542 15.3125 15.7813 15.3125ZM4.21875 10.625C3.56978 10.625 2.93539 10.8174 2.39579 11.178C1.85619 11.5385 1.43562 12.051 1.18727 12.6506C0.938922 13.2501 0.873942 13.9099 1.00055 14.5464C1.12716 15.1829 1.43967 15.7676 1.89856 16.2264C2.35745 16.6853 2.94211 16.9978 3.57861 17.1245C4.21511 17.2511 4.87486 17.1861 5.47443 16.9377C6.074 16.6894 6.58646 16.2688 6.94701 15.7292C7.30756 15.1896 7.5 14.5552 7.5 13.9063C7.5 13.036 7.1543 12.2014 6.53895 11.5861C5.92359 10.9707 5.08899 10.625 4.21875 10.625ZM4.21875 15.3125C3.94062 15.3125 3.66874 15.23 3.43748 15.0755C3.20622 14.921 3.02598 14.7014 2.91955 14.4444C2.81311 14.1874 2.78526 13.9047 2.83952 13.6319C2.89378 13.3591 3.02772 13.1086 3.22438 12.9119C3.42105 12.7152 3.67162 12.5813 3.94441 12.527C4.21719 12.4728 4.49994 12.5006 4.7569 12.607C5.01386 12.7135 5.23348 12.8937 5.38801 13.125C5.54253 13.3562 5.625 13.6281 5.625 13.9063C5.625 14.2792 5.47684 14.6369 5.21312 14.9006C4.9494 15.1643 4.59171 15.3125 4.21875 15.3125ZM14.6875 10H11.875C11.7519 10.0001 11.6299 9.97593 11.5161 9.92888C11.4023 9.88183 11.2988 9.81281 11.2117 9.72578L9.375 7.89063L8.20313 9.0625L10.6656 11.5242C10.8405 11.7006 10.9383 11.9391 10.9375 12.1875V15.9375C10.9375 16.1861 10.8387 16.4246 10.6629 16.6004C10.4871 16.7762 10.2486 16.875 10 16.875C9.75136 16.875 9.5129 16.7762 9.33709 16.6004C9.16127 16.4246 9.0625 16.1861 9.0625 15.9375V12.5781L6.21172 9.72578C6.12432 9.63869 6.05497 9.53519 6.00766 9.42124C5.96034 9.30728 5.93598 9.18511 5.93598 9.06172C5.93598 8.93833 5.96034 8.81616 6.00766 8.7022C6.05497 8.58825 6.12432 8.48475 6.21172 8.39766L8.71172 5.89766C8.79882 5.81026 8.90231 5.74091 9.01626 5.69359C9.13022 5.64628 9.25239 5.62192 9.37578 5.62192C9.49917 5.62192 9.62135 5.64628 9.7353 5.69359C9.84925 5.74091 9.95275 5.81026 10.0398 5.89766L12.2656 8.125H14.6875C14.9361 8.125 15.1746 8.22377 15.3504 8.39959C15.5262 8.5754 15.625 8.81386 15.625 9.0625C15.625 9.31114 15.5262 9.5496 15.3504 9.72541C15.1746 9.90123 14.9361 10 14.6875 10Z" fill="#191F2E"/>
</svg>
