<svg width="20" height="20" viewBox="0 0 20 20" fill="none" xmlns="http://www.w3.org/2000/svg">
<path d="M10 6.5625C10.5563 6.5625 11.1001 6.39755 11.5626 6.08851C12.0251 5.77947 12.3856 5.34022 12.5984 4.8263C12.8113 4.31238 12.867 3.74688 12.7585 3.20131C12.65 2.65574 12.3821 2.1546 11.9888 1.76126C11.5954 1.36793 11.0943 1.10006 10.5487 0.991543C10.0031 0.883022 9.43765 0.938719 8.92373 1.15159C8.40981 1.36446 7.97056 1.72495 7.66152 2.18746C7.35248 2.64997 7.18753 3.19374 7.18753 3.75C7.18753 4.49592 7.48384 5.21129 8.01129 5.73874C8.53873 6.26618 9.25411 6.5625 10 6.5625ZM10 2.8125C10.1854 2.8125 10.3667 2.86748 10.5209 2.9705C10.675 3.07351 10.7952 3.21993 10.8662 3.39124C10.9371 3.56254 10.9557 3.75104 10.9195 3.9329C10.8833 4.11476 10.7941 4.2818 10.6629 4.41291C10.5318 4.54403 10.3648 4.63331 10.1829 4.66949C10.0011 4.70566 9.81257 4.6871 9.64126 4.61614C9.46995 4.54518 9.32354 4.42502 9.22052 4.27085C9.11751 4.11668 9.06253 3.93542 9.06253 3.75C9.06253 3.50136 9.1613 3.2629 9.33711 3.08709C9.51293 2.91127 9.75139 2.8125 10 2.8125ZM18.3039 10.7945C18.2406 10.9002 18.1571 10.9923 18.0582 11.0657C17.9592 11.1391 17.8468 11.1922 17.7273 11.2221C17.6078 11.252 17.4836 11.2581 17.3617 11.2399C17.2399 11.2218 17.1228 11.1798 17.0172 11.1164C16.9922 11.1016 14.4883 9.63828 10.9375 9.40703V11.5164L15.7032 16.875C15.7852 16.9673 15.8483 17.0749 15.8888 17.1917C15.9293 17.3084 15.9464 17.4319 15.9392 17.5552C15.9319 17.6786 15.9004 17.7993 15.8465 17.9104C15.7926 18.0216 15.7174 18.121 15.625 18.2031C15.5327 18.2852 15.4251 18.3483 15.3084 18.3888C15.1917 18.4293 15.0681 18.4464 14.9448 18.4391C14.8215 18.4319 14.7008 18.4004 14.5896 18.3465C14.4784 18.2926 14.379 18.2173 14.2969 18.125L10 13.2883L5.70315 18.125C5.62108 18.2173 5.52162 18.2926 5.41045 18.3465C5.29929 18.4004 5.1786 18.4319 5.05527 18.4391C4.93194 18.4464 4.80839 18.4293 4.69168 18.3888C4.57496 18.3483 4.46736 18.2852 4.37503 18.2031C4.28269 18.121 4.20743 18.0216 4.15353 17.9104C4.09963 17.7993 4.06815 17.6786 4.0609 17.5552C4.05365 17.4319 4.07075 17.3084 4.11125 17.1917C4.15174 17.0749 4.21482 16.9673 4.2969 16.875L9.06253 11.5164V9.40703C5.49065 9.6375 3.0094 11.1008 2.98284 11.1172C2.76963 11.2451 2.51433 11.2831 2.27309 11.2229C2.03186 11.1626 1.82446 11.0089 1.69651 10.7957C1.56856 10.5825 1.53056 10.3272 1.59085 10.086C1.65114 9.84472 1.80479 9.63732 2.018 9.50938C2.15471 9.42656 5.41799 7.5 10 7.5C14.5821 7.5 17.8453 9.42656 17.9821 9.50859C18.1952 9.63647 18.3489 9.84377 18.4093 10.0849C18.4696 10.3261 18.4317 10.5813 18.3039 10.7945Z" fill="#191F2E"/>
</svg>
