<svg width="20" height="20" viewBox="0 0 20 20" fill="none" xmlns="http://www.w3.org/2000/svg">
<path d="M17.5 9.375H2.5V6.02266C2.50004 5.72992 2.60282 5.44649 2.79042 5.22177C2.97802 4.99705 3.23854 4.8453 3.52656 4.79297L16.0266 2.52031C16.2067 2.48759 16.3918 2.49483 16.5688 2.54152C16.7458 2.5882 16.9104 2.6732 17.0509 2.79049C17.1915 2.90779 17.3045 3.05452 17.3821 3.22032C17.4597 3.38612 17.5 3.56694 17.5 3.75V9.375ZM2.5 13.9773C2.50004 14.2701 2.60282 14.5535 2.79042 14.7782C2.97802 15.003 3.23854 15.1547 3.52656 15.207L16.0266 17.4797C16.1003 17.493 16.1751 17.4998 16.25 17.5C16.5815 17.5 16.8995 17.3683 17.1339 17.1339C17.3683 16.8995 17.5 16.5815 17.5 16.25V10.625H2.5V13.9773ZM18.75 9.375H17.5V10.625H18.75C18.9158 10.625 19.0747 10.5592 19.1919 10.4419C19.3092 10.3247 19.375 10.1658 19.375 10C19.375 9.83424 19.3092 9.67527 19.1919 9.55806C19.0747 9.44085 18.9158 9.375 18.75 9.375ZM1.25 9.375C1.08424 9.375 0.925268 9.44085 0.808058 9.55806C0.690848 9.67527 0.625 9.83424 0.625 10C0.625 10.1658 0.690848 10.3247 0.808058 10.4419C0.925268 10.5592 1.08424 10.625 1.25 10.625H2.5V9.375H1.25Z" fill="#191F2E"/>
</svg>
