<svg width="20" height="20" viewBox="0 0 20 20" fill="none" xmlns="http://www.w3.org/2000/svg">
<path d="M11.875 6.5625C12.4312 6.5625 12.975 6.39755 13.4375 6.08851C13.9 5.77947 14.2605 5.34022 14.4734 4.8263C14.6862 4.31238 14.7419 3.74688 14.6334 3.20131C14.5249 2.65574 14.257 2.1546 13.8637 1.76126C13.4704 1.36793 12.9692 1.10006 12.4237 0.991543C11.8781 0.883022 11.3126 0.938719 10.7987 1.15159C10.2847 1.36446 9.8455 1.72495 9.53646 2.18746C9.22741 2.64997 9.06246 3.19374 9.06246 3.75C9.06246 4.49592 9.35878 5.21129 9.88623 5.73874C10.4137 6.26618 11.129 6.5625 11.875 6.5625ZM11.875 2.8125C12.0604 2.8125 12.2416 2.86748 12.3958 2.9705C12.55 3.07351 12.6701 3.21993 12.7411 3.39124C12.8121 3.56254 12.8306 3.75104 12.7944 3.9329C12.7583 4.11476 12.669 4.2818 12.5379 4.41291C12.4068 4.54403 12.2397 4.63331 12.0579 4.66949C11.876 4.70566 11.6875 4.6871 11.5162 4.61614C11.3449 4.54518 11.1985 4.42502 11.0955 4.27085C10.9924 4.11668 10.9375 3.93542 10.9375 3.75C10.9375 3.50136 11.0362 3.2629 11.2121 3.08709C11.3879 2.91127 11.6263 2.8125 11.875 2.8125ZM17.1875 11.5625C17.1875 11.8111 17.0887 12.0496 16.9129 12.2254C16.7371 12.4012 16.4986 12.5 16.25 12.5C13.3593 12.5 11.932 11.057 10.7812 9.89844C10.6476 9.76406 10.5187 9.63281 10.3906 9.50781L9.71637 11.0586L12.4218 12.9867C12.543 13.0737 12.6416 13.1883 12.7095 13.3211C12.7775 13.4538 12.8128 13.6009 12.8125 13.75V18.125C12.8125 18.3736 12.7137 18.6121 12.5379 18.7879C12.3621 18.9637 12.1236 19.0625 11.875 19.0625C11.6263 19.0625 11.3879 18.9637 11.2121 18.7879C11.0362 18.6121 10.9375 18.3736 10.9375 18.125V14.232L8.95543 12.8164L6.48434 18.4984C6.43749 18.6146 6.36784 18.7201 6.27951 18.8089C6.19118 18.8977 6.08596 18.9679 5.97006 19.0153C5.85416 19.0628 5.72993 19.0865 5.60471 19.0851C5.47948 19.0838 5.3558 19.0573 5.24096 19.0074C5.12612 18.9574 5.02246 18.885 4.93609 18.7943C4.84971 18.7036 4.78238 18.5965 4.73807 18.4794C4.69376 18.3623 4.67337 18.2375 4.67809 18.1123C4.68282 17.9872 4.71257 17.8642 4.76559 17.7508L8.67653 8.75625C8.12236 8.79531 7.47132 9.01406 6.7234 9.4125C5.88559 9.87424 5.10364 10.4308 4.39293 11.0711C4.21163 11.2413 3.97014 11.3325 3.72158 11.3247C3.47302 11.3169 3.23776 11.2106 3.06754 11.0293C2.89733 10.848 2.8061 10.6065 2.81394 10.3579C2.82178 10.1094 2.92804 9.87412 3.10934 9.70391C3.31325 9.5125 8.13746 5.04219 11.2414 7.73672C11.5492 8.00391 11.8382 8.29609 12.1179 8.57891C13.1586 9.63125 14.1406 10.625 16.25 10.625C16.4986 10.625 16.7371 10.7238 16.9129 10.8996C17.0887 11.0754 17.1875 11.3139 17.1875 11.5625Z" fill="#191F2E"/>
</svg>
