<svg width="20" height="20" viewBox="0 0 20 20" fill="none" xmlns="http://www.w3.org/2000/svg">
<path d="M18.75 9.0625H17.8125V3.75C17.8124 3.52117 17.7621 3.29515 17.665 3.08791C17.568 2.88068 17.4266 2.69729 17.2509 2.5507C17.0752 2.40412 16.8694 2.29792 16.6481 2.23962C16.4268 2.18131 16.1954 2.17232 15.9703 2.21329L3.47031 4.48594C3.11043 4.55142 2.78492 4.74109 2.5505 5.0219C2.31609 5.30271 2.18763 5.65687 2.1875 6.02266V9.0625H1.25C1.00136 9.0625 0.762903 9.16128 0.587087 9.33709C0.411272 9.51291 0.3125 9.75136 0.3125 10C0.3125 10.2486 0.411272 10.4871 0.587087 10.6629C0.762903 10.8387 1.00136 10.9375 1.25 10.9375H2.1875V13.9773C2.18763 14.3431 2.31609 14.6973 2.5505 14.9781C2.78492 15.2589 3.11043 15.4486 3.47031 15.5141L15.9703 17.7867C16.1954 17.8277 16.4268 17.8187 16.6481 17.7604C16.8694 17.7021 17.0752 17.5959 17.2509 17.4493C17.4266 17.3027 17.568 17.1193 17.665 16.9121C17.7621 16.7049 17.8124 16.4788 17.8125 16.25V10.9375H18.75C18.9986 10.9375 19.2371 10.8387 19.4129 10.6629C19.5887 10.4871 19.6875 10.2486 19.6875 10C19.6875 9.75136 19.5887 9.51291 19.4129 9.33709C19.2371 9.16128 18.9986 9.0625 18.75 9.0625ZM4.0625 6.2836L15.9375 4.125V9.0625H4.0625V6.2836ZM15.9375 15.875L4.0625 13.7164V10.9375H15.9375V15.875Z" fill="#191F2E"/>
</svg>
