<svg width="20" height="20" viewBox="0 0 20 20" fill="none" xmlns="http://www.w3.org/2000/svg">
<path d="M9.37505 4.375C9.37505 3.88055 9.52167 3.3972 9.79637 2.98608C10.0711 2.57495 10.4615 2.25452 10.9183 2.0653C11.3752 1.87608 11.8778 1.82657 12.3628 1.92304C12.8477 2.0195 13.2932 2.2576 13.6428 2.60723C13.9924 2.95687 14.2305 3.40232 14.327 3.88728C14.4235 4.37223 14.374 4.87489 14.1847 5.33171C13.9955 5.78853 13.6751 6.17897 13.264 6.45368C12.8528 6.72838 12.3695 6.875 11.875 6.875C11.212 6.875 10.5761 6.61161 10.1073 6.14277C9.63844 5.67393 9.37505 5.03804 9.37505 4.375ZM17.4438 10.1625C17.41 10.0875 17.3618 10.02 17.3019 9.96366C17.242 9.90735 17.1715 9.86343 17.0946 9.8344C17.0177 9.80537 16.9358 9.7918 16.8536 9.79448C16.7714 9.79716 16.6905 9.81603 16.6157 9.85C16.5961 9.85938 14.529 10.6875 10.9766 8.27266C6.89145 5.49609 4.10161 7.66563 3.98364 7.75938C3.91671 7.80966 3.86055 7.87288 3.81852 7.94528C3.77649 8.01768 3.74943 8.09779 3.73895 8.18085C3.72847 8.26391 3.73479 8.34823 3.75752 8.42881C3.78026 8.50938 3.81895 8.58456 3.8713 8.6499C3.92365 8.71523 3.98859 8.76938 4.06227 8.80913C4.13595 8.84888 4.21686 8.87343 4.30021 8.8813C4.38356 8.88918 4.46764 8.88024 4.54746 8.855C4.62729 8.82976 4.70122 8.78874 4.76489 8.73438C4.7852 8.71797 6.72739 7.21094 9.77036 8.98984C9.43833 10.0328 8.77348 11.4758 7.7977 12.6617C6.3477 14.418 4.58598 15.2055 2.56333 15.0055C2.39829 14.9888 2.23339 15.0384 2.1049 15.1433C1.97641 15.2482 1.89485 15.3998 1.87817 15.5648C1.86149 15.7299 1.91106 15.8948 2.01596 16.0233C2.12086 16.1518 2.27251 16.2333 2.43755 16.25C2.68 16.2746 2.92354 16.2868 3.16723 16.2867C5.3063 16.2867 7.22973 15.3195 8.76333 13.4602C8.80786 13.4063 8.85239 13.3508 8.89536 13.2961C10.4149 13.6945 13.125 14.8672 13.125 18.125C13.125 18.2908 13.1909 18.4497 13.3081 18.5669C13.4253 18.6842 13.5843 18.75 13.75 18.75C13.9158 18.75 14.0748 18.6842 14.192 18.5669C14.3092 18.4497 14.375 18.2908 14.375 18.125C14.375 16.1992 13.5875 14.582 12.0977 13.4484C11.3579 12.9016 10.5309 12.484 9.65161 12.2133C10.1424 11.4165 10.5473 10.5698 10.8594 9.6875C12.9016 10.9445 14.5188 11.25 15.6008 11.25C16.5524 11.25 17.0899 11.0156 17.1375 10.9938C17.2124 10.9594 17.2797 10.9107 17.3356 10.8503C17.3915 10.7898 17.4349 10.719 17.4634 10.6418C17.4918 10.5645 17.5048 10.4824 17.5014 10.4002C17.498 10.3179 17.4785 10.2372 17.4438 10.1625Z" fill="#191F2E"/>
</svg>
