<svg width="20" height="20" viewBox="0 0 20 20" fill="none" xmlns="http://www.w3.org/2000/svg">
<path d="M9.37499 3.75C9.37499 3.25555 9.52161 2.7722 9.79632 2.36108C10.071 1.94995 10.4615 1.62952 10.9183 1.4403C11.3751 1.25108 11.8778 1.20157 12.3627 1.29804C12.8477 1.3945 13.2931 1.6326 13.6428 1.98223C13.9924 2.33187 14.2305 2.77732 14.327 3.26228C14.4234 3.74723 14.3739 4.24989 14.1847 4.70671C13.9955 5.16352 13.675 5.55397 13.2639 5.82868C12.8528 6.10338 12.3694 6.25 11.875 6.25C11.212 6.25 10.5761 5.98661 10.1072 5.51777C9.63838 5.04893 9.37499 4.41304 9.37499 3.75ZM16.25 10.625C14.0125 10.625 12.9836 9.58594 11.8945 8.48672C11.6187 8.20781 11.3336 7.91953 11.0351 7.66016C8.14452 5.14922 3.51796 9.43594 3.32265 9.61953C3.20634 9.73403 3.13943 9.88949 3.13623 10.0527C3.13303 10.2158 3.19378 10.3738 3.30551 10.4928C3.41724 10.6118 3.57108 10.6823 3.73414 10.6893C3.8972 10.6964 4.05655 10.6394 4.17812 10.5305C4.90515 9.87366 5.70518 9.30247 6.56249 8.82813C7.63905 8.25156 8.54608 8.02891 9.27343 8.15781L5.05155 17.8758C4.98563 18.0278 4.98275 18.1997 5.04355 18.3538C5.10434 18.5079 5.22384 18.6316 5.37577 18.6977C5.45426 18.7324 5.53917 18.7502 5.62499 18.75C5.74679 18.7501 5.86596 18.7145 5.96783 18.6478C6.06971 18.581 6.14986 18.4859 6.19843 18.3742L8.82265 12.3375L11.25 14.0719V18.125C11.25 18.2908 11.3158 18.4497 11.433 18.5669C11.5503 18.6842 11.7092 18.75 11.875 18.75C12.0408 18.75 12.1997 18.6842 12.3169 18.5669C12.4341 18.4497 12.5 18.2908 12.5 18.125V13.75C12.5 13.6505 12.4762 13.5525 12.4307 13.464C12.3852 13.3755 12.3192 13.2992 12.2383 13.2414L9.33202 11.1656L10.3812 8.75C10.5875 8.94063 10.7922 9.14609 11.0062 9.3625C12.1133 10.4836 13.4914 11.875 16.25 11.875C16.4158 11.875 16.5747 11.8092 16.6919 11.6919C16.8091 11.5747 16.875 11.4158 16.875 11.25C16.875 11.0842 16.8091 10.9253 16.6919 10.8081C16.5747 10.6908 16.4158 10.625 16.25 10.625Z" fill="#191F2E"/>
</svg>
