<svg width="20" height="20" viewBox="0 0 20 20" fill="none" xmlns="http://www.w3.org/2000/svg">
<path d="M7.81244 2.8125C7.81244 2.37985 7.94074 1.95692 8.1811 1.59719C8.42147 1.23746 8.76311 0.957081 9.16282 0.791515C9.56254 0.625948 10.0024 0.582628 10.4267 0.667033C10.851 0.751438 11.2408 0.959778 11.5467 1.2657C11.8527 1.57163 12.061 1.96141 12.1454 2.38574C12.2298 2.81007 12.1865 3.24991 12.0209 3.64962C11.8554 4.04933 11.575 4.39098 11.2153 4.63134C10.8555 4.87171 10.4326 5 9.99994 5C9.41978 5 8.86338 4.76953 8.45315 4.3593C8.04291 3.94906 7.81244 3.39266 7.81244 2.8125ZM16.8296 10.9984L13.2945 6.99063C13.0892 6.75786 12.8367 6.57143 12.5539 6.44374C12.271 6.31605 11.9642 6.25 11.6538 6.25H8.34604C8.03568 6.25 7.72888 6.31605 7.44601 6.44374C7.16315 6.57143 6.91069 6.75786 6.70541 6.99063L3.17026 10.9984C2.94071 11.2333 2.81281 11.5491 2.81422 11.8775C2.81563 12.2059 2.94623 12.5206 3.17779 12.7535C3.40935 12.9864 3.72326 13.1188 4.05166 13.1221C4.38006 13.1254 4.69657 12.9993 4.93276 12.7711L6.95307 11.1484L5.41401 16.9984C5.28011 17.299 5.27014 17.6403 5.38627 17.9482C5.5024 18.2561 5.73526 18.5058 6.03433 18.6431C6.33339 18.7804 6.67453 18.7942 6.98372 18.6816C7.29291 18.5689 7.54521 18.3389 7.68588 18.0414L9.99994 14.0625L12.3109 18.0469C12.4515 18.3444 12.7039 18.5744 13.013 18.687C13.3222 18.7997 13.6634 18.7858 13.9624 18.6485C14.2615 18.5113 14.4944 18.2616 14.6105 17.9537C14.7266 17.6458 14.7167 17.3045 14.5828 17.0039L13.0468 11.1484L15.0703 12.7711C15.3064 12.9993 15.6229 13.1254 15.9514 13.1221C16.2798 13.1188 16.5937 12.9864 16.8252 12.7535C17.0568 12.5206 17.1874 12.2059 17.1888 11.8775C17.1902 11.5491 17.0623 11.2333 16.8328 10.9984H16.8296Z" fill="#191F2E"/>
</svg>
