<svg width="20" height="20" viewBox="0 0 20 20" fill="none" xmlns="http://www.w3.org/2000/svg">
<path d="M10 6.25C10.4945 6.25 10.9778 6.10338 11.389 5.82868C11.8001 5.55397 12.1205 5.16352 12.3097 4.70671C12.499 4.24989 12.5485 3.74723 12.452 3.26228C12.3555 2.77732 12.1174 2.33187 11.7678 1.98223C11.4182 1.6326 10.9727 1.3945 10.4878 1.29804C10.0028 1.20157 9.50014 1.25108 9.04333 1.4403C8.58651 1.62952 8.19607 1.94995 7.92136 2.36108C7.64666 2.7722 7.50004 3.25555 7.50004 3.75C7.50004 4.41304 7.76343 5.04893 8.23227 5.51777C8.70111 5.98661 9.33699 6.25 10 6.25ZM10 2.5C10.2473 2.5 10.4889 2.57331 10.6945 2.71066C10.9001 2.84802 11.0603 3.04324 11.1549 3.27165C11.2495 3.50005 11.2742 3.75139 11.226 3.99386C11.1778 4.23634 11.0587 4.45907 10.8839 4.63388C10.7091 4.8087 10.4864 4.92775 10.2439 4.97598C10.0014 5.02421 9.75009 4.99946 9.52168 4.90485C9.29327 4.81024 9.09805 4.65003 8.9607 4.44446C8.82335 4.2389 8.75004 3.99723 8.75004 3.75C8.75004 3.41848 8.88173 3.10054 9.11615 2.86612C9.35057 2.6317 9.66851 2.5 10 2.5ZM18.036 10.3219C17.9937 10.3925 17.9379 10.4541 17.8718 10.503C17.8057 10.552 17.7306 10.5875 17.6507 10.6074C17.5709 10.6273 17.4879 10.6312 17.4065 10.6189C17.3252 10.6067 17.247 10.5785 17.1766 10.5359C17.1493 10.5195 14.4336 8.92735 10.6235 8.76484V11.6406L15.4672 17.0883C15.5217 17.1498 15.5635 17.2215 15.5903 17.2992C15.6171 17.377 15.6283 17.4592 15.6233 17.5412C15.6183 17.6233 15.5971 17.7036 15.5611 17.7774C15.5251 17.8513 15.4749 17.9174 15.4133 17.9719C15.3518 18.0264 15.2801 18.0682 15.2024 18.0949C15.1246 18.1217 15.0424 18.1329 14.9604 18.1279C14.8783 18.1229 14.798 18.1018 14.7242 18.0658C14.6503 18.0298 14.5842 17.9795 14.5297 17.918L10 12.8125L5.46879 17.9148C5.41431 17.9764 5.34824 18.0266 5.27435 18.0627C5.20046 18.0987 5.1202 18.1198 5.03815 18.1248C4.9561 18.1298 4.87387 18.1186 4.79615 18.0918C4.71843 18.0651 4.64675 18.0232 4.58519 17.9688C4.52363 17.9143 4.47341 17.8482 4.43739 17.7743C4.40136 17.7004 4.38025 17.6202 4.37524 17.5381C4.37023 17.4561 4.38144 17.3738 4.40821 17.2961C4.43499 17.2184 4.47681 17.1467 4.53129 17.0852L9.37504 11.6406V8.76406C5.54691 8.92656 2.85004 10.5188 2.82191 10.5359C2.7515 10.5792 2.67322 10.6081 2.59158 10.6209C2.50995 10.6337 2.42658 10.6301 2.34631 10.6105C2.26604 10.5909 2.19046 10.5555 2.12395 10.5065C2.05743 10.4575 2.00129 10.3958 1.95878 10.3249C1.91628 10.254 1.88824 10.1755 1.87631 10.0937C1.86437 10.0119 1.86877 9.9286 1.88924 9.84855C1.90971 9.76849 1.94586 9.69329 1.99559 9.62729C2.04531 9.5613 2.10763 9.50582 2.17894 9.46406C2.31254 9.38359 5.50394 7.5 10 7.5C14.4961 7.5 17.6875 9.38359 17.8219 9.46406C17.8923 9.50632 17.9537 9.56203 18.0025 9.62801C18.0514 9.69399 18.0868 9.76896 18.1067 9.84862C18.1265 9.92828 18.1305 10.0111 18.1184 10.0923C18.1063 10.1735 18.0783 10.2515 18.036 10.3219Z" fill="#191F2E"/>
</svg>
