<svg width="20" height="20" viewBox="0 0 20 20" fill="none" xmlns="http://www.w3.org/2000/svg">
<path d="M11.8749 6.875C12.3694 6.875 12.8527 6.72838 13.2639 6.45368C13.675 6.17897 13.9954 5.78853 14.1846 5.33171C14.3739 4.87489 14.4234 4.37223 14.3269 3.88728C14.2304 3.40232 13.9923 2.95687 13.6427 2.60723C13.2931 2.2576 12.8476 2.0195 12.3627 1.92304C11.8777 1.82657 11.3751 1.87608 10.9182 2.0653C10.4614 2.25452 10.071 2.57495 9.79627 2.98608C9.52157 3.3972 9.37495 3.88055 9.37495 4.375C9.37495 5.03804 9.63834 5.67393 10.1072 6.14277C10.576 6.61161 11.2119 6.875 11.8749 6.875ZM11.8749 3.125C12.1222 3.125 12.3638 3.19831 12.5694 3.33566C12.775 3.47302 12.9352 3.66824 13.0298 3.89665C13.1244 4.12505 13.1492 4.37639 13.1009 4.61886C13.0527 4.86134 12.9336 5.08407 12.7588 5.25888C12.584 5.4337 12.3613 5.55275 12.1188 5.60098C11.8763 5.64921 11.625 5.62446 11.3966 5.52985C11.1682 5.43524 10.973 5.27503 10.8356 5.06946C10.6983 4.8639 10.6249 4.62223 10.6249 4.375C10.6249 4.04348 10.7566 3.72554 10.9911 3.49112C11.2255 3.2567 11.5434 3.125 11.8749 3.125ZM17.1335 10.9906C17.0859 11.0125 16.5484 11.2469 15.5968 11.2469C14.5148 11.2469 12.8976 10.9438 10.8554 9.68438C10.5446 10.5668 10.141 11.4137 9.65151 12.2109C10.5308 12.4816 11.3578 12.8992 12.0976 13.4461C13.5874 14.582 14.3749 16.1992 14.3749 18.125C14.3749 18.2908 14.3091 18.4497 14.1919 18.5669C14.0747 18.6842 13.9157 18.75 13.7499 18.75C13.5842 18.75 13.4252 18.6842 13.308 18.5669C13.1908 18.4497 13.1249 18.2908 13.1249 18.125C13.1249 14.8672 10.4148 13.6945 8.89526 13.293C8.85229 13.3477 8.80776 13.4031 8.76323 13.457C7.22885 15.3164 5.3062 16.2836 3.16713 16.2836C2.92349 16.2847 2.67995 16.2735 2.43745 16.25C2.27169 16.2334 2.1193 16.1517 2.01381 16.0227C1.90832 15.8938 1.85837 15.7283 1.87495 15.5625C1.89152 15.3967 1.97327 15.2444 2.1022 15.1389C2.23113 15.0334 2.39669 14.9834 2.56245 15C4.58745 15.2016 6.34916 14.4148 7.79682 12.6563C8.7726 11.4734 9.43745 10.0305 9.76948 8.98438C6.72885 7.21485 4.78666 8.72109 4.76557 8.7375C4.7019 8.79187 4.62796 8.83288 4.54814 8.85812C4.46832 8.88336 4.38424 8.89231 4.30089 8.88443C4.21754 8.87655 4.13663 8.85201 4.06295 8.81225C3.98927 8.7725 3.92433 8.71835 3.87198 8.65302C3.81963 8.58769 3.78094 8.5125 3.7582 8.43193C3.73547 8.35136 3.72915 8.26704 3.73963 8.18398C3.75011 8.10092 3.77717 8.02081 3.8192 7.94841C3.86123 7.876 3.91738 7.81279 3.98432 7.7625C4.10151 7.66875 6.89213 5.49688 10.9773 8.27578C14.5296 10.6906 16.5968 9.8625 16.6164 9.85313C16.6912 9.81777 16.7724 9.79764 16.8551 9.79391C16.9378 9.79018 17.0205 9.80293 17.0982 9.83141C17.176 9.8599 17.2473 9.90355 17.308 9.95983C17.3688 10.0161 17.4177 10.0839 17.4521 10.1593C17.4864 10.2346 17.5054 10.3161 17.5079 10.3988C17.5105 10.4816 17.4966 10.564 17.4671 10.6414C17.4375 10.7187 17.3929 10.7895 17.3357 10.8494C17.2786 10.9094 17.2102 10.9574 17.1343 10.9906H17.1335Z" fill="#191F2E"/>
</svg>
