<svg width="20" height="20" viewBox="0 0 20 20" fill="none" xmlns="http://www.w3.org/2000/svg">
<path d="M12.5001 3.125C12.5001 2.63055 12.3534 2.1472 12.0787 1.73608C11.804 1.32495 11.4136 1.00452 10.9568 0.815302C10.4999 0.626083 9.99728 0.576575 9.51233 0.673038C9.02737 0.769501 8.58192 1.0076 8.23228 1.35723C7.88265 1.70687 7.64455 2.15232 7.54809 2.63728C7.45162 3.12223 7.50113 3.62489 7.69035 4.08171C7.87957 4.53852 8.2 4.92897 8.61113 5.20368C9.02225 5.47838 9.5056 5.625 10.0001 5.625C10.6631 5.625 11.299 5.36161 11.7678 4.89277C12.2367 4.42393 12.5001 3.78804 12.5001 3.125ZM10.0001 4.375C9.75282 4.375 9.51115 4.30169 9.30559 4.16434C9.10003 4.02699 8.93981 3.83176 8.8452 3.60336C8.75059 3.37495 8.72584 3.12361 8.77407 2.88114C8.8223 2.63866 8.94135 2.41593 9.11617 2.24112C9.29098 2.0663 9.51371 1.94725 9.75619 1.89902C9.99866 1.85079 10.25 1.87554 10.4784 1.97015C10.7068 2.06476 10.902 2.22498 11.0394 2.43054C11.1767 2.6361 11.2501 2.87777 11.2501 3.125C11.2501 3.45652 11.1184 3.77446 10.8839 4.00888C10.6495 4.24331 10.3316 4.375 10.0001 4.375ZM17.0579 10.4727L13.529 6.4711C13.2943 6.20514 13.0058 5.99214 12.6825 5.84626C12.3592 5.70039 12.0086 5.62496 11.654 5.625H8.34615C7.99148 5.62496 7.64087 5.70039 7.31759 5.84626C6.99432 5.99214 6.70578 6.20514 6.47115 6.4711L2.94224 10.4727C2.65566 10.7658 2.49574 11.1597 2.49696 11.5697C2.49817 11.9796 2.66043 12.3726 2.94875 12.664C3.23707 12.9554 3.62835 13.1218 4.03823 13.1274C4.44812 13.1329 4.84377 12.9772 5.1399 12.6938L6.41333 11.6719L5.12115 16.5844C4.95 16.962 4.93587 17.3921 5.08187 17.7802C5.22787 18.1682 5.52204 18.4824 5.89966 18.6535C6.27728 18.8247 6.70743 18.8388 7.09547 18.6928C7.48351 18.5468 7.79765 18.2526 7.9688 17.875L10.0001 14.3695L12.0313 17.875C12.2101 18.24 12.524 18.5209 12.9065 18.6582C13.289 18.7955 13.71 18.7784 14.0801 18.6105C14.4501 18.4426 14.7402 18.1371 14.8888 17.7588C15.0374 17.3805 15.0327 16.9593 14.8758 16.5844L13.5868 11.6719L14.8602 12.6938C15.1563 12.9772 15.552 13.1329 15.9619 13.1274C16.3718 13.1218 16.763 12.9554 17.0514 12.664C17.3397 12.3726 17.5019 11.9796 17.5031 11.5697C17.5044 11.1597 17.3444 10.7658 17.0579 10.4727ZM16.1586 11.7828C16.1296 11.8119 16.0952 11.8349 16.0572 11.8506C16.0193 11.8664 15.9786 11.8745 15.9376 11.8745C15.8965 11.8745 15.8558 11.8664 15.8179 11.8506C15.7799 11.8349 15.7455 11.8119 15.7165 11.7828C15.7001 11.7672 15.6836 11.7516 15.6657 11.7375L12.8907 9.5125C12.7883 9.43075 12.6627 9.38326 12.5319 9.37674C12.401 9.37022 12.2714 9.405 12.1613 9.47616C12.0513 9.54733 11.9664 9.65128 11.9187 9.77332C11.871 9.89536 11.8628 10.0293 11.8954 10.1563L13.6829 16.9531C13.6921 16.9894 13.7046 17.0247 13.7204 17.0586C13.7384 17.0959 13.7488 17.1364 13.7511 17.1777C13.7533 17.2191 13.7473 17.2605 13.7335 17.2995C13.7196 17.3385 13.6981 17.3744 13.6702 17.405C13.6423 17.4356 13.6086 17.4604 13.5711 17.4779C13.5336 17.4954 13.4929 17.5053 13.4515 17.5069C13.4102 17.5086 13.3689 17.502 13.33 17.4876C13.2912 17.4731 13.2557 17.4511 13.2254 17.4228C13.1952 17.3945 13.1709 17.3604 13.154 17.3227C13.1463 17.3058 13.1377 17.2893 13.1282 17.2734L10.5407 12.8125C10.4857 12.7178 10.4069 12.6392 10.312 12.5845C10.2171 12.5299 10.1095 12.5011 10.0001 12.5011C9.89056 12.5011 9.78299 12.5299 9.68811 12.5845C9.59323 12.6392 9.51437 12.7178 9.45943 12.8125L6.87505 17.2695C6.86553 17.2854 6.85692 17.3019 6.84927 17.3188C6.83192 17.356 6.80739 17.3894 6.77709 17.4172C6.74679 17.4449 6.71132 17.4664 6.67271 17.4805C6.61459 17.5018 6.55146 17.5053 6.49132 17.4907C6.43118 17.4761 6.37673 17.4439 6.33489 17.3983C6.29305 17.3527 6.26569 17.2957 6.25629 17.2345C6.24689 17.1733 6.25587 17.1108 6.28208 17.0547C6.29783 17.0208 6.31038 16.9855 6.31958 16.9492L8.10474 10.1563C8.1373 10.0293 8.12914 9.89536 8.08141 9.77332C8.03368 9.65128 7.9488 9.54733 7.83877 9.47616C7.72873 9.405 7.59912 9.37022 7.46824 9.37674C7.33736 9.38326 7.21184 9.43075 7.10943 9.5125L4.33443 11.7375C4.31646 11.7516 4.30005 11.7672 4.28365 11.7828C4.25494 11.8131 4.22047 11.8373 4.18226 11.854C4.14406 11.8708 4.10288 11.8797 4.06118 11.8802C4.01947 11.8808 3.97807 11.873 3.93942 11.8573C3.90077 11.8417 3.86565 11.8184 3.83613 11.7889C3.80661 11.7595 3.78328 11.7244 3.76754 11.6858C3.75179 11.6471 3.74393 11.6058 3.74442 11.564C3.74492 11.5223 3.75376 11.4812 3.77043 11.4429C3.78709 11.4047 3.81124 11.3702 3.84146 11.3414C3.85083 11.332 3.85943 11.3227 3.86802 11.3125L7.40865 7.29766C7.526 7.16475 7.67028 7.05833 7.83192 6.98546C7.99355 6.91258 8.16884 6.87493 8.34615 6.875H11.654C11.8313 6.87493 12.0065 6.91258 12.1682 6.98546C12.3298 7.05833 12.4741 7.16475 12.5915 7.29766L16.1321 11.3125C16.1407 11.3227 16.1493 11.332 16.1586 11.3414C16.2171 11.4 16.2499 11.4794 16.2499 11.5621C16.2499 11.6449 16.2171 11.7242 16.1586 11.7828Z" fill="#191F2E"/>
</svg>
