<svg width="20" height="20" viewBox="0 0 20 20" fill="none" xmlns="http://www.w3.org/2000/svg">
<path d="M11.875 7.1875C12.4313 7.1875 12.975 7.02255 13.4376 6.71351C13.9001 6.40447 14.2605 5.96522 14.4734 5.4513C14.6863 4.93738 14.742 4.37188 14.6335 3.82631C14.5249 3.28074 14.2571 2.7796 13.8637 2.38626C13.4704 1.99293 12.9693 1.72506 12.4237 1.61654C11.8781 1.50802 11.3126 1.56372 10.7987 1.77659C10.2848 1.98946 9.84554 2.34995 9.5365 2.81246C9.22746 3.27497 9.06251 3.81874 9.06251 4.375C9.06251 5.12092 9.35883 5.83629 9.88627 6.36374C10.4137 6.89118 11.1291 7.1875 11.875 7.1875ZM11.875 3.4375C12.0604 3.4375 12.2417 3.49248 12.3959 3.5955C12.55 3.69851 12.6702 3.84493 12.7411 4.01624C12.8121 4.18754 12.8307 4.37604 12.7945 4.5579C12.7583 4.73976 12.669 4.9068 12.5379 5.03791C12.4068 5.16903 12.2398 5.25831 12.0579 5.29449C11.876 5.33066 11.6876 5.3121 11.5162 5.24114C11.3449 5.17018 11.1985 5.05002 11.0955 4.89585C10.9925 4.74168 10.9375 4.56042 10.9375 4.375C10.9375 4.12636 11.0363 3.8879 11.2121 3.71209C11.3879 3.53627 11.6264 3.4375 11.875 3.4375ZM17.8125 10.7344C17.8125 10.9139 17.761 11.0896 17.6641 11.2407C17.5671 11.3918 17.4288 11.5119 17.2656 11.5867C16.7268 11.7775 16.1599 11.8773 15.5883 11.882C14.4945 11.882 12.9125 11.5836 10.9188 10.3977C10.6878 10.9616 10.4197 11.5097 10.1164 12.0383C11.9625 12.7211 14.6875 14.3594 14.6875 18.125C14.6875 18.3736 14.5887 18.6121 14.4129 18.7879C14.2371 18.9637 13.9986 19.0625 13.75 19.0625C13.5014 19.0625 13.2629 18.9637 13.0871 18.7879C12.9113 18.6121 12.8125 18.3736 12.8125 18.125C12.8125 16.6648 12.2695 15.5422 11.1516 14.6922C10.4359 14.1453 9.62423 13.8328 9.0086 13.65C8.94532 13.7281 8.88048 13.8063 8.81329 13.8805C7.25079 15.6672 5.31173 16.5961 3.16876 16.5961C2.91437 16.5961 2.66015 16.5833 2.40704 16.5578C2.28385 16.5464 2.16413 16.5108 2.05478 16.4529C1.94543 16.395 1.84862 16.3161 1.76992 16.2207C1.69122 16.1252 1.6322 16.0151 1.59624 15.8967C1.56029 15.7783 1.54813 15.654 1.56045 15.5309C1.57277 15.4078 1.60933 15.2884 1.66803 15.1795C1.72673 15.0706 1.8064 14.9744 1.90246 14.8964C1.99851 14.8184 2.10905 14.7602 2.2277 14.7252C2.34635 14.6901 2.47076 14.6789 2.59376 14.6922C6.6797 15.1 8.64688 11.1047 9.2961 9.39922C6.62501 8.00469 4.9797 9.27969 4.96173 9.29688C4.76699 9.44317 4.52295 9.50794 4.2813 9.47745C4.03964 9.44696 3.81934 9.32362 3.66703 9.13354C3.51472 8.94347 3.44237 8.70157 3.4653 8.45908C3.48822 8.21659 3.60462 7.99254 3.78985 7.83438C3.91251 7.73438 6.87501 5.425 11.1524 8.32969C14.5195 10.6195 16.4727 9.88594 16.5039 9.87344C16.6464 9.81202 16.8019 9.78692 16.9565 9.80042C17.1111 9.81391 17.2599 9.86556 17.3896 9.95074C17.5193 10.0359 17.6259 10.152 17.6997 10.2885C17.7735 10.425 17.8123 10.5776 17.8125 10.7328V10.7344Z" fill="#191F2E"/>
</svg>
