<svg width="20" height="20" viewBox="0 0 20 20" fill="none" xmlns="http://www.w3.org/2000/svg">
<path d="M10 6.875C10.4945 6.875 10.9778 6.72838 11.389 6.45368C11.8001 6.17897 12.1205 5.78853 12.3097 5.33171C12.499 4.8749 12.5485 4.37223 12.452 3.88728C12.3555 3.40232 12.1174 2.95687 11.7678 2.60723C11.4182 2.2576 10.9727 2.0195 10.4878 1.92304C10.0028 1.82657 9.50015 1.87608 9.04333 2.0653C8.58652 2.25452 8.19607 2.57495 7.92137 2.98608C7.64666 3.3972 7.50004 3.88055 7.50004 4.375C7.50004 5.03804 7.76343 5.67393 8.23227 6.14277C8.70112 6.61161 9.337 6.875 10 6.875ZM10 3.125C10.2473 3.125 10.4889 3.19831 10.6945 3.33566C10.9001 3.47302 11.0603 3.66824 11.1549 3.89665C11.2495 4.12505 11.2743 4.37639 11.226 4.61886C11.1778 4.86134 11.0587 5.08407 10.8839 5.25888C10.7091 5.4337 10.4864 5.55275 10.2439 5.60098C10.0014 5.64921 9.75009 5.62446 9.52169 5.52985C9.29328 5.43524 9.09806 5.27503 8.9607 5.06946C8.82335 4.8639 8.75004 4.62223 8.75004 4.375C8.75004 4.04348 8.88174 3.72554 9.11616 3.49112C9.35058 3.2567 9.66852 3.125 10 3.125ZM3.75004 7.5C3.75004 7.25278 3.82335 7.0111 3.9607 6.80554C4.09806 6.59998 4.29328 6.43976 4.52169 6.34515C4.7501 6.25054 5.00143 6.22579 5.2439 6.27402C5.48638 6.32225 5.70911 6.4413 5.88392 6.61612C6.05874 6.79093 6.17779 7.01366 6.22602 7.25614C6.27426 7.49862 6.2495 7.74995 6.15489 7.97836C6.06028 8.20676 5.90007 8.40199 5.6945 8.53934C5.48894 8.67669 5.24727 8.75 5.00004 8.75C4.66852 8.75 4.35058 8.61831 4.11616 8.38388C3.88174 8.14946 3.75004 7.83152 3.75004 7.5ZM17.3625 8.64141C17.2591 8.77087 17.1085 8.85396 16.9439 8.87242C16.7792 8.89088 16.6139 8.84319 16.4844 8.73985C16.3946 8.67031 14.6321 7.35703 11.85 8.7875C11.8282 9.58242 11.7498 10.3748 11.6157 11.1586L14.1493 13.268C14.2459 13.3485 14.3161 13.4562 14.3505 13.5772C14.3849 13.6982 14.382 13.8268 14.3422 13.9461L13.0922 17.6961C13.0398 17.8534 12.9271 17.9834 12.7788 18.0575C12.6305 18.1316 12.4589 18.1438 12.3016 18.0914C12.1443 18.039 12.0143 17.9262 11.9402 17.778C11.8661 17.6297 11.8539 17.458 11.9063 17.3008L13.0211 13.9555L11.2961 12.518C11.1834 12.898 11.0504 13.2717 10.8977 13.6375C9.82348 16.1953 7.89926 17.9055 5.17895 18.7219C5.02155 18.7652 4.85345 18.7452 4.7106 18.6662C4.56775 18.5871 4.46149 18.4554 4.41454 18.299C4.36759 18.1427 4.38369 17.9741 4.45938 17.8295C4.53507 17.6848 4.66435 17.5756 4.81957 17.525C9.5602 16.1023 10.3774 11.8828 10.5555 9.5836C8.43754 10.9281 6.76332 11.25 5.65317 11.25C5.13021 11.2518 4.6107 11.1654 4.11645 10.9945C3.98424 10.9368 3.87609 10.835 3.81035 10.7066C3.74461 10.5782 3.72533 10.4309 3.75578 10.2899C3.78623 10.1489 3.86454 10.0227 3.97741 9.93287C4.09028 9.843 4.23077 9.79495 4.37504 9.79688C4.46437 9.79675 4.55264 9.81622 4.63364 9.85391C4.63364 9.85391 6.72426 10.6883 10.2735 8.27578C14.3586 5.49922 17.1485 7.66875 17.2664 7.7625C17.3305 7.81389 17.3838 7.87739 17.4233 7.94937C17.4628 8.02136 17.4877 8.10042 17.4966 8.18205C17.5055 8.26367 17.4983 8.34624 17.4753 8.42506C17.4523 8.50388 17.414 8.5774 17.3625 8.64141Z" fill="#191F2E"/>
</svg>
