<svg width="20" height="20" viewBox="0 0 20 20" fill="none" xmlns="http://www.w3.org/2000/svg">
<path d="M4.21328 2.70474C4.15839 2.64287 4.09177 2.59251 4.01728 2.55658C3.94278 2.52064 3.8619 2.49985 3.77931 2.49541C3.69672 2.49097 3.61408 2.50296 3.53616 2.53069C3.45824 2.55843 3.3866 2.60135 3.32539 2.65697C3.26419 2.7126 3.21463 2.77982 3.17959 2.85474C3.14455 2.92965 3.12473 3.01078 3.12128 3.09342C3.11783 3.17605 3.13081 3.25855 3.15948 3.33613C3.18814 3.41371 3.23192 3.48483 3.28828 3.54536L5.44375 5.91724C4.12152 6.47262 2.92021 7.28039 1.90703 8.29536C0.344526 9.85786 0.194526 12.1594 1.54062 13.8946C1.70579 14.1059 1.93457 14.2586 2.19315 14.3299C2.45172 14.4012 2.72639 14.3875 2.97656 14.2907L6.80468 12.9336L6.82734 12.9251C7.02045 12.8478 7.19125 12.7237 7.32426 12.5638C7.45727 12.4039 7.54829 12.2134 7.58906 12.0094L8.05 9.70396C8.26906 9.62844 8.49236 9.56584 8.71875 9.51646L15.7898 17.2954C15.8447 17.3572 15.9113 17.4076 15.9858 17.4435C16.0603 17.4795 16.1412 17.5003 16.2238 17.5047C16.3064 17.5091 16.389 17.4971 16.467 17.4694C16.5449 17.4417 16.6165 17.3988 16.6777 17.3431C16.7389 17.2875 16.7885 17.2203 16.8235 17.1454C16.8586 17.0705 16.8784 16.9893 16.8818 16.9067C16.8853 16.8241 16.8723 16.7416 16.8436 16.664C16.815 16.5864 16.7712 16.5153 16.7148 16.4547L4.21328 2.70474ZM7.62734 8.52662C7.42378 8.59915 7.24251 8.72321 7.1012 8.8867C6.9599 9.05019 6.86339 9.24752 6.82109 9.45943L6.36015 11.7641L2.54921 13.1157C2.5414 13.1157 2.53593 13.1258 2.52812 13.129C1.56484 11.8868 1.66874 10.2993 2.79062 9.17896C3.79625 8.17299 5.00827 7.39732 6.34296 6.90552L7.77265 8.47896C7.72421 8.49458 7.67578 8.50943 7.62734 8.52662ZM18.4594 13.8946C18.2942 14.1059 18.0654 14.2586 17.8068 14.3299C17.5483 14.4012 17.2736 14.3875 17.0234 14.2907L16.3008 14.0344C16.2234 14.007 16.1522 13.9646 16.0913 13.9096C16.0303 13.8547 15.9808 13.7882 15.9455 13.7141C15.8742 13.5645 15.8653 13.3926 15.9207 13.2364C15.9481 13.159 15.9906 13.0878 16.0455 13.0269C16.1005 12.9659 16.1669 12.9164 16.241 12.8811C16.3907 12.8098 16.5625 12.8009 16.7187 12.8563L17.4508 13.1157L17.4742 13.1251C18.4352 11.8868 18.3336 10.2993 17.2094 9.17896C15.2047 7.17427 12.375 6.11099 9.44765 6.26411C9.36558 6.26837 9.28346 6.25642 9.20601 6.22895C9.12855 6.20147 9.05726 6.15901 8.99621 6.10398C8.93517 6.04896 8.88556 5.98245 8.85021 5.90825C8.81487 5.83405 8.79449 5.75361 8.79023 5.67154C8.78597 5.58946 8.79792 5.50735 8.8254 5.42989C8.85287 5.35243 8.89534 5.28115 8.95036 5.2201C9.00539 5.15905 9.0719 5.10944 9.1461 5.0741C9.2203 5.03875 9.30073 5.01837 9.38281 5.01411C12.6641 4.84302 15.8383 6.03755 18.093 8.29536C19.6547 9.85708 19.8055 12.1594 18.4594 13.8946Z" fill="#191F2E"/>
</svg>
