<svg width="20" height="20" viewBox="0 0 20 20" fill="none" xmlns="http://www.w3.org/2000/svg">
<path d="M17.5 12.0937L13.8211 10.4453L13.807 10.439C13.568 10.3355 13.3069 10.2936 13.0475 10.3174C12.7881 10.3411 12.5389 10.4297 12.3227 10.575C12.2923 10.5953 12.2631 10.6172 12.2352 10.6406L10.4922 12.125C9.47657 11.5742 8.42735 10.5336 7.87579 9.53043L9.36485 7.76012C9.38897 7.73169 9.41115 7.70168 9.43126 7.67028C9.57249 7.45477 9.65824 7.20769 9.68087 6.95102C9.70349 6.69435 9.6623 6.43607 9.56094 6.19918C9.55854 6.19465 9.55645 6.18995 9.55469 6.18512L7.90626 2.49997C7.77105 2.1917 7.54013 1.93519 7.24772 1.76845C6.95532 1.6017 6.61697 1.53358 6.28282 1.57418C5.14873 1.72316 4.10765 2.27987 3.35402 3.14032C2.60039 4.00077 2.18573 5.10614 2.18751 6.24997C2.18751 12.6257 7.37422 17.8125 13.75 17.8125C14.8938 17.8142 15.9992 17.3996 16.8597 16.646C17.7201 15.8923 18.2768 14.8512 18.4258 13.7172C18.4663 13.383 18.3981 13.0447 18.2314 12.7523C18.0646 12.46 17.8082 12.229 17.5 12.0937ZM13.75 15.9375C11.1817 15.9344 8.71942 14.9127 6.90333 13.0966C5.08725 11.2806 4.06561 8.8183 4.06251 6.24997C4.06061 5.60275 4.28033 4.9744 4.68512 4.4694C5.08992 3.9644 5.6554 3.61319 6.28751 3.47418L7.75782 6.75543L6.26094 8.53668C6.23657 8.5651 6.21412 8.59512 6.19376 8.62653C6.04594 8.85214 5.95903 9.11217 5.94151 9.38133C5.92399 9.65048 5.97644 9.91959 6.09376 10.1625C6.82969 11.6687 8.3461 13.175 9.86797 13.9125C10.1123 14.0283 10.3824 14.0787 10.6521 14.0589C10.9217 14.039 11.1816 13.9495 11.4063 13.7992C11.4365 13.7788 11.4654 13.7566 11.493 13.7328L13.2453 12.2429L16.5266 13.7125C16.3873 14.3446 16.0359 14.91 15.5308 15.3147C15.0257 15.7195 14.3973 15.9393 13.75 15.9375ZM10.9375 5.62497C10.9375 5.37633 11.0363 5.13787 11.2121 4.96205C11.3879 4.78624 11.6264 4.68747 11.875 4.68747H13.4375V3.12497C13.4375 2.87632 13.5363 2.63787 13.7121 2.46205C13.8879 2.28624 14.1264 2.18747 14.375 2.18747C14.6236 2.18747 14.8621 2.28624 15.0379 2.46205C15.2137 2.63787 15.3125 2.87632 15.3125 3.12497V4.68747H16.875C17.1236 4.68747 17.3621 4.78624 17.5379 4.96205C17.7137 5.13787 17.8125 5.37633 17.8125 5.62497C17.8125 5.87361 17.7137 6.11206 17.5379 6.28788C17.3621 6.46369 17.1236 6.56247 16.875 6.56247H15.3125V8.12497C15.3125 8.37361 15.2137 8.61206 15.0379 8.78788C14.8621 8.96369 14.6236 9.06247 14.375 9.06247C14.1264 9.06247 13.8879 8.96369 13.7121 8.78788C13.5363 8.61206 13.4375 8.37361 13.4375 8.12497V6.56247H11.875C11.6264 6.56247 11.3879 6.46369 11.2121 6.28788C11.0363 6.11206 10.9375 5.87361 10.9375 5.62497Z" fill="#191F2E"/>
</svg>
