<svg width="20" height="20" viewBox="0 0 20 20" fill="none" xmlns="http://www.w3.org/2000/svg">
<path d="M16.7116 16.4547C16.768 16.5153 16.8118 16.5864 16.8404 16.664C16.8691 16.7416 16.8821 16.8241 16.8786 16.9067C16.8752 16.9893 16.8554 17.0705 16.8203 17.1454C16.7853 17.2203 16.7357 17.2875 16.6745 17.3431C16.6133 17.3988 16.5417 17.4417 16.4638 17.4694C16.3858 17.4971 16.3032 17.5091 16.2206 17.5047C16.138 17.5003 16.0571 17.4795 15.9826 17.4435C15.9081 17.4076 15.8415 17.3572 15.7866 17.2954L8.71555 9.51646C8.48916 9.56584 8.26586 9.62844 8.0468 9.70396L7.58586 12.0094C7.54509 12.2134 7.45408 12.4039 7.32107 12.5638C7.18806 12.7237 7.01726 12.8478 6.82414 12.9251L6.80149 12.9336L2.97336 14.2907C2.7232 14.3875 2.44853 14.4012 2.18995 14.3299C1.93137 14.2586 1.70259 14.1059 1.53742 13.8946C0.191331 12.1594 0.342112 9.85708 1.90383 8.29536C2.91794 7.28005 4.12033 6.47226 5.44368 5.91724L3.28821 3.54536C3.23185 3.48483 3.18807 3.41371 3.15941 3.33613C3.13074 3.25855 3.11776 3.17605 3.12121 3.09342C3.12466 3.01078 3.14448 2.92965 3.17952 2.85474C3.21456 2.77982 3.26412 2.7126 3.32532 2.65697C3.38653 2.60135 3.45817 2.55843 3.53609 2.53069C3.61401 2.50296 3.69665 2.49097 3.77924 2.49541C3.86183 2.49985 3.94271 2.52064 4.01721 2.55658C4.0917 2.59251 4.15832 2.64287 4.21321 2.70474L16.7116 16.4547ZM18.0929 8.29536C15.8382 6.0399 12.6632 4.84537 9.38274 5.01411C9.26461 5.02032 9.15067 5.05992 9.05416 5.12832C8.95765 5.19671 8.88253 5.29109 8.83753 5.40048C8.79253 5.50987 8.7795 5.62979 8.79995 5.7463C8.8204 5.8628 8.87349 5.97112 8.95305 6.05865L16.0476 13.8633C16.1168 13.9396 16.2037 13.9975 16.3007 14.0321L17.0234 14.2883C17.2735 14.3851 17.5482 14.3989 17.8068 14.3275C18.0654 14.2562 18.2941 14.1036 18.4593 13.8922C19.8054 12.1594 19.6546 9.85708 18.0929 8.29536Z" fill="#191F2E"/>
</svg>
