<svg width="20" height="20" viewBox="0 0 20 20" fill="none" xmlns="http://www.w3.org/2000/svg">
<path d="M18.093 7.04131C13.7062 2.65615 6.29374 2.65615 1.90703 7.04131C0.344526 8.60381 0.194526 10.9077 1.54062 12.6437C1.65762 12.7937 1.80732 12.915 1.97832 12.9984C2.14931 13.0818 2.33709 13.1251 2.52734 13.1249C2.68102 13.125 2.83338 13.0964 2.97656 13.0405L6.80468 11.6835L6.82734 11.6749C7.02055 11.5976 7.19141 11.4733 7.32443 11.3133C7.45744 11.1533 7.5484 10.9626 7.58906 10.7585L8.04999 8.45225C9.30678 8.01779 10.6725 8.01477 11.9312 8.44365L12.4164 10.7679C12.4585 10.9697 12.5498 11.158 12.6823 11.316C12.8148 11.474 12.9843 11.5968 13.1758 11.6733L13.1984 11.6819L17.0266 13.0405C17.2766 13.1374 17.5513 13.1513 17.8098 13.0801C18.0684 13.0089 18.2972 12.8564 18.4625 12.6452C19.8055 10.9077 19.6547 8.60381 18.093 7.04131ZM17.4742 11.8749L17.4508 11.8655L13.6367 10.5116L13.1516 8.18818C13.1075 7.97794 13.0101 7.7826 12.8686 7.62099C12.7271 7.45938 12.5463 7.33695 12.3437 7.26553C10.8154 6.74225 9.15579 6.74583 7.62968 7.27568C7.42554 7.34862 7.24387 7.4734 7.10252 7.63776C6.96117 7.80212 6.86499 8.00042 6.82343 8.21318L6.36249 10.5187L2.54921 11.864C2.5414 11.864 2.53593 11.8741 2.52812 11.8772C1.56484 10.6343 1.66874 9.04678 2.79062 7.92568C4.74374 5.97256 7.37265 4.99365 9.99999 4.99365C12.6273 4.99365 15.2555 5.971 17.2094 7.92568C18.3289 9.04678 18.4375 10.6343 17.4742 11.8749ZM17.4992 15.6249C17.4992 15.7907 17.4334 15.9496 17.3162 16.0668C17.1989 16.1841 17.04 16.2499 16.8742 16.2499H3.12499C2.95923 16.2499 2.80026 16.1841 2.68305 16.0668C2.56584 15.9496 2.49999 15.7907 2.49999 15.6249C2.49999 15.4591 2.56584 15.3002 2.68305 15.183C2.80026 15.0658 2.95923 14.9999 3.12499 14.9999H16.875C17.0408 14.9999 17.1997 15.0658 17.3169 15.183C17.4341 15.3002 17.5 15.4591 17.5 15.6249H17.4992Z" fill="#191F2E"/>
</svg>
