<svg width="20" height="20" viewBox="0 0 20 20" fill="none" xmlns="http://www.w3.org/2000/svg">
<path d="M18.1156 13.6781C17.9763 14.7367 17.4564 15.7084 16.6531 16.4117C15.8497 17.1151 14.8177 17.5019 13.75 17.5C7.54688 17.5 2.50001 12.4531 2.50001 6.24996C2.49809 5.18222 2.88492 4.15029 3.58824 3.34691C4.29155 2.54353 5.26326 2.02364 6.32188 1.88434C6.58958 1.85165 6.86067 1.90642 7.09468 2.04046C7.3287 2.17451 7.51309 2.38064 7.62032 2.62809L9.27032 6.31168C9.27001 6.3148 9.27001 6.31794 9.27032 6.32106C9.35242 6.51047 9.38633 6.71728 9.36901 6.92299C9.3517 7.12871 9.2837 7.32693 9.1711 7.49996C9.15704 7.52106 9.14219 7.54059 9.12657 7.56012L7.50001 9.48825C8.08516 10.6773 9.32891 11.9101 10.5336 12.4968L12.4352 10.8789C12.4538 10.8632 12.4734 10.8486 12.4938 10.8351C12.6667 10.7197 12.8658 10.6492 13.0729 10.6301C13.2799 10.611 13.4885 10.6439 13.6797 10.7257L13.6891 10.7304L17.3688 12.3797C17.6168 12.4864 17.8236 12.6705 17.9582 12.9046C18.0929 13.1387 18.1481 13.41 18.1156 13.6781ZM11.875 6.24996H13.75V8.12496C13.75 8.29072 13.8159 8.4497 13.9331 8.56691C14.0503 8.68412 14.2092 8.74996 14.375 8.74996C14.5408 8.74996 14.6997 8.68412 14.8169 8.56691C14.9342 8.4497 15 8.29072 15 8.12496V6.24996H16.875C17.0408 6.24996 17.1997 6.18412 17.3169 6.06691C17.4342 5.9497 17.5 5.79072 17.5 5.62496C17.5 5.4592 17.4342 5.30023 17.3169 5.18302C17.1997 5.06581 17.0408 4.99996 16.875 4.99996H15V3.12496C15 2.9592 14.9342 2.80023 14.8169 2.68302C14.6997 2.56581 14.5408 2.49996 14.375 2.49996C14.2092 2.49996 14.0503 2.56581 13.9331 2.68302C13.8159 2.80023 13.75 2.9592 13.75 3.12496V4.99996H11.875C11.7092 4.99996 11.5503 5.06581 11.4331 5.18302C11.3159 5.30023 11.25 5.4592 11.25 5.62496C11.25 5.79072 11.3159 5.9497 11.4331 6.06691C11.5503 6.18412 11.7092 6.24996 11.875 6.24996Z" fill="#191F2E"/>
</svg>
