<svg width="20" height="20" viewBox="0 0 20 20" fill="none" xmlns="http://www.w3.org/2000/svg">
<path d="M18.4593 12.6437C18.2941 12.8549 18.0653 13.0074 17.8067 13.0786C17.5481 13.1497 17.2735 13.1359 17.0234 13.039L13.1953 11.6804L13.1726 11.6718C12.9812 11.5952 12.8117 11.4725 12.6792 11.3145C12.5467 11.1565 12.4553 10.9682 12.4133 10.7664L11.9281 8.44214C10.6694 8.01326 9.30364 8.01628 8.04685 8.45073L7.58591 10.757C7.54526 10.9611 7.4543 11.1518 7.32128 11.3118C7.18827 11.4718 7.0174 11.5961 6.82419 11.6734L6.80154 11.682L2.97341 13.039C2.83131 13.095 2.68005 13.1242 2.52732 13.125C2.3372 13.1253 2.1495 13.0823 1.97852 12.9991C1.80753 12.916 1.65776 12.795 1.5406 12.6453C0.194505 10.9093 0.345286 8.60542 1.907 7.04292C6.29372 2.65464 13.7039 2.65464 18.0929 7.04292C19.6547 8.60386 19.8054 10.9078 18.4593 12.6437ZM16.875 15H3.12497C2.95921 15 2.80024 15.0658 2.68303 15.183C2.56582 15.3002 2.49997 15.4592 2.49997 15.625C2.49997 15.7907 2.56582 15.9497 2.68303 16.0669C2.80024 16.1841 2.95921 16.25 3.12497 16.25H16.875C17.0407 16.25 17.1997 16.1841 17.3169 16.0669C17.4341 15.9497 17.5 15.7907 17.5 15.625C17.5 15.4592 17.4341 15.3002 17.3169 15.183C17.1997 15.0658 17.0407 15 16.875 15Z" fill="#191F2E"/>
</svg>
