<svg width="20" height="20" viewBox="0 0 20 20" fill="none" xmlns="http://www.w3.org/2000/svg">
<path d="M12.0578 7.05778L13.4914 5.62496L12.0578 4.19215C11.9405 4.07488 11.8747 3.91582 11.8747 3.74996C11.8747 3.58411 11.9405 3.42505 12.0578 3.30778C12.1751 3.1905 12.3342 3.12462 12.5 3.12462C12.6659 3.12462 12.8249 3.1905 12.9422 3.30778L14.375 4.74137L15.8078 3.30778C15.9251 3.1905 16.0842 3.12462 16.25 3.12462C16.4159 3.12462 16.5749 3.1905 16.6922 3.30778C16.8095 3.42505 16.8754 3.58411 16.8754 3.74996C16.8754 3.91582 16.8095 4.07488 16.6922 4.19215L15.2594 5.62496L16.6922 7.05778C16.7503 7.11585 16.7963 7.18478 16.8278 7.26065C16.8592 7.33652 16.8754 7.41784 16.8754 7.49996C16.8754 7.58209 16.8592 7.6634 16.8278 7.73927C16.7963 7.81515 16.7503 7.88408 16.6922 7.94215C16.6341 8.00022 16.5652 8.04628 16.4893 8.07771C16.4134 8.10914 16.3321 8.12531 16.25 8.12531C16.1679 8.12531 16.0866 8.10914 16.0107 8.07771C15.9348 8.04628 15.8659 8.00022 15.8078 7.94215L14.375 6.50856L12.9422 7.94215C12.8249 8.05943 12.6659 8.12531 12.5 8.12531C12.3342 8.12531 12.1751 8.05943 12.0578 7.94215C11.9405 7.82488 11.8747 7.66582 11.8747 7.49996C11.8747 7.33411 11.9405 7.17505 12.0578 7.05778ZM17.3703 12.3797L13.6899 10.7304L13.6797 10.7257C13.4886 10.644 13.2802 10.6112 13.0733 10.6303C12.8663 10.6494 12.6674 10.7198 12.4945 10.8351C12.4742 10.8486 12.4546 10.8632 12.4359 10.8789L10.5367 12.5C9.33204 11.9148 8.08829 10.6804 7.50313 9.49137L9.12657 7.5609C9.14219 7.54137 9.15704 7.52184 9.1711 7.50075C9.28394 7.32833 9.35239 7.13068 9.37039 6.92541C9.38838 6.72014 9.35534 6.5136 9.27423 6.32418V6.31481L7.62032 2.62809C7.51309 2.38064 7.3287 2.17451 7.09468 2.04046C6.86067 1.90642 6.58958 1.85165 6.32188 1.88434C5.26326 2.02364 4.29155 2.54353 3.58824 3.34691C2.88492 4.15029 2.49809 5.18222 2.50001 6.24996C2.50001 12.4531 7.54688 17.5 13.75 17.5C14.8177 17.5019 15.8497 17.1151 16.6531 16.4117C17.4564 15.7084 17.9763 14.7367 18.1156 13.6781C18.1484 13.4105 18.0937 13.1395 17.9598 12.9055C17.8259 12.6715 17.62 12.487 17.3727 12.3797H17.3703Z" fill="#191F2E"/>
</svg>
