<svg width="20" height="20" viewBox="0 0 20 20" fill="none" xmlns="http://www.w3.org/2000/svg">
<path d="M11.8375 6.83674L13.0469 5.62502L11.8375 4.41252C11.6614 4.2364 11.5624 3.99753 11.5624 3.74846C11.5624 3.62513 11.5867 3.50301 11.6339 3.38907C11.6811 3.27513 11.7503 3.1716 11.8375 3.0844C11.9247 2.99719 12.0282 2.92802 12.1422 2.88082C12.2561 2.83363 12.3782 2.80933 12.5016 2.80933C12.7506 2.80933 12.9895 2.90828 13.1656 3.0844L14.375 4.2969L15.5875 3.0844C15.7636 2.90828 16.0025 2.80933 16.2516 2.80933C16.5006 2.80933 16.7395 2.90828 16.9156 3.0844C17.0918 3.26052 17.1907 3.49939 17.1907 3.74846C17.1907 3.99753 17.0918 4.2364 16.9156 4.41252L15.7031 5.62502L16.9156 6.83674C17.0028 6.92395 17.072 7.02748 17.1192 7.14142C17.1664 7.25536 17.1907 7.37748 17.1907 7.5008C17.1907 7.62413 17.1664 7.74625 17.1192 7.86019C17.072 7.97413 17.0028 8.07766 16.9156 8.16487C16.8284 8.25207 16.7249 8.32125 16.611 8.36844C16.497 8.41564 16.3749 8.43993 16.2516 8.43993C16.1282 8.43993 16.0061 8.41564 15.8922 8.36844C15.7782 8.32125 15.6747 8.25207 15.5875 8.16487L14.375 6.95315L13.1633 8.16487C13.0761 8.25207 12.9726 8.32125 12.8586 8.36844C12.7447 8.41564 12.6226 8.43993 12.4992 8.43993C12.3759 8.43993 12.2538 8.41564 12.1398 8.36844C12.0259 8.32125 11.9224 8.25207 11.8352 8.16487C11.748 8.07766 11.6788 7.97413 11.6316 7.86019C11.5844 7.74625 11.5601 7.62413 11.5601 7.5008C11.5601 7.37748 11.5844 7.25536 11.6316 7.14142C11.6788 7.02748 11.748 6.92395 11.8352 6.83674H11.8375ZM18.4258 13.7172C18.2768 14.8513 17.7201 15.8924 16.8597 16.646C15.9992 17.3996 14.8938 17.8143 13.75 17.8125C7.37422 17.8125 2.18751 12.6258 2.18751 6.25002C2.18573 5.1062 2.60039 4.00083 3.35402 3.14038C4.10765 2.27992 5.14873 1.72322 6.28282 1.57424C6.61696 1.53376 6.95525 1.60194 7.24763 1.76867C7.54001 1.9354 7.77094 2.19184 7.90626 2.50002L9.55547 6.18205C9.55723 6.18688 9.55932 6.19158 9.56172 6.19612C9.66308 6.43301 9.70428 6.69129 9.68165 6.94795C9.65902 7.20462 9.57327 7.45171 9.43204 7.66721C9.41174 7.69848 9.38957 7.72848 9.36563 7.75705L7.87657 9.53127C8.42813 10.5344 9.47813 11.575 10.493 12.1258L12.2359 10.6414C12.2639 10.618 12.2931 10.5961 12.3234 10.5758C12.5397 10.4308 12.7889 10.3423 13.0482 10.3184C13.3075 10.2945 13.5687 10.336 13.8078 10.4391L13.8219 10.4453L17.5 12.0938C17.8082 12.2291 18.0646 12.46 18.2314 12.7524C18.3981 13.0448 18.4663 13.3831 18.4258 13.7172ZM16.5266 13.7125L13.2453 12.243L11.493 13.7328C11.4654 13.7567 11.4365 13.7789 11.4063 13.7992C11.181 13.9486 10.9209 14.037 10.6512 14.0557C10.3816 14.0745 10.1117 14.023 9.86797 13.9063C8.3461 13.1719 6.82969 11.6656 6.09376 10.1563C5.97672 9.9136 5.92443 9.64478 5.94195 9.37593C5.95947 9.10708 6.04622 8.84733 6.19376 8.6219C6.21431 8.59037 6.23675 8.56011 6.26094 8.53127L7.75782 6.75705L6.28751 3.4758C5.65579 3.61502 5.09068 3.96607 4.68596 4.47069C4.28124 4.97531 4.06125 5.60315 4.06251 6.25002C4.06561 8.81836 5.08725 11.2806 6.90333 13.0967C8.71942 14.9128 11.1817 15.9344 13.75 15.9375C14.3973 15.9393 15.0257 15.7196 15.5308 15.3148C16.0359 14.91 16.3873 14.3446 16.5266 13.7125Z" fill="#191F2E"/>
</svg>
