<svg width="20" height="20" viewBox="0 0 20 20" fill="none" xmlns="http://www.w3.org/2000/svg">
<path d="M11.8961 2.96337C11.9173 2.88405 11.954 2.80969 12.0039 2.74453C12.0539 2.67938 12.1162 2.62471 12.1873 2.58364C12.2584 2.54258 12.3369 2.51592 12.4183 2.50521C12.4997 2.49449 12.5824 2.49992 12.6617 2.52118C13.8204 2.82348 14.8775 3.42918 15.7242 4.2759C16.5709 5.12261 17.1766 6.17972 17.4789 7.33837C17.5002 7.41767 17.5056 7.50039 17.4949 7.5818C17.4842 7.6632 17.4575 7.7417 17.4165 7.8128C17.3754 7.8839 17.3207 7.94621 17.2556 7.99618C17.1904 8.04614 17.116 8.08278 17.0367 8.10399C16.9839 8.11786 16.9296 8.12495 16.875 8.12509C16.7374 8.12513 16.6036 8.07974 16.4944 7.99598C16.3852 7.91221 16.3067 7.79474 16.2711 7.66181C16.0247 6.71582 15.5304 5.85268 14.8392 5.16137C14.1481 4.47006 13.285 3.97561 12.3391 3.72899C12.2597 3.70786 12.1852 3.67128 12.12 3.62136C12.0548 3.57143 12 3.50913 11.9589 3.43802C11.9177 3.36691 11.891 3.28838 11.8802 3.20694C11.8695 3.12549 11.8749 3.04273 11.8961 2.96337ZM11.7141 6.22899C12.7914 6.51649 13.4836 7.20946 13.7711 8.28681C13.8067 8.41974 13.8852 8.53721 13.9944 8.62098C14.1036 8.70474 14.2374 8.75013 14.375 8.75009C14.4296 8.74995 14.4839 8.74286 14.5367 8.72899C14.616 8.70778 14.6904 8.67114 14.7556 8.62118C14.8207 8.57121 14.8754 8.5089 14.9165 8.4378C14.9575 8.3667 14.9842 8.2882 14.9949 8.2068C15.0056 8.12539 15.0002 8.04267 14.9789 7.96337C14.5789 6.46649 13.5336 5.42118 12.0367 5.02118C11.9574 4.99999 11.8747 4.99464 11.7933 5.00541C11.712 5.01619 11.6335 5.04289 11.5624 5.08398C11.4914 5.12508 11.4291 5.17977 11.3792 5.24493C11.3293 5.3101 11.2927 5.38445 11.2715 5.46376C11.2503 5.54306 11.2449 5.62577 11.2557 5.70714C11.2665 5.78852 11.2932 5.86698 11.3343 5.93804C11.3754 6.00909 11.4301 6.07136 11.4952 6.12128C11.5604 6.17121 11.6348 6.20781 11.7141 6.22899ZM17.3727 12.3798L13.6922 10.7306L13.682 10.7259C13.491 10.6441 13.2825 10.6114 13.0756 10.6304C12.8687 10.6495 12.6698 10.7199 12.4969 10.8352C12.4765 10.8487 12.457 10.8633 12.4383 10.879L10.5367 12.5001C9.33204 11.9149 8.08829 10.6806 7.50313 9.49149L9.12657 7.56102C9.14219 7.54149 9.15704 7.52196 9.1711 7.50087C9.28394 7.32845 9.35239 7.13081 9.37039 6.92553C9.38838 6.72026 9.35534 6.51372 9.27423 6.3243V6.31493L7.62032 2.62821C7.51309 2.38076 7.3287 2.17463 7.09468 2.04058C6.86067 1.90654 6.58958 1.85177 6.32188 1.88446C5.26326 2.02376 4.29155 2.54366 3.58824 3.34704C2.88492 4.15042 2.49809 5.18234 2.50001 6.25009C2.50001 12.4532 7.54688 17.5001 13.75 17.5001C14.8177 17.502 15.8497 17.1152 16.6531 16.4119C17.4564 15.7085 17.9763 14.7368 18.1156 13.6782C18.1484 13.4106 18.0937 13.1396 17.9598 12.9056C17.8259 12.6716 17.62 12.4871 17.3727 12.3798Z" fill="#191F2E"/>
</svg>
