<svg width="20" height="20" viewBox="0 0 20 20" fill="none" xmlns="http://www.w3.org/2000/svg">
<path d="M12.0578 7.94215C11.9997 7.88411 11.9536 7.81518 11.9222 7.7393C11.8907 7.66343 11.8745 7.5821 11.8745 7.49996C11.8745 7.41783 11.8907 7.3365 11.9222 7.26063C11.9536 7.18475 11.9997 7.11582 12.0578 7.05778L14.7414 4.37496H13.125C12.9592 4.37496 12.8003 4.30912 12.6831 4.19191C12.5659 4.0747 12.5 3.91572 12.5 3.74996C12.5 3.5842 12.5659 3.42523 12.6831 3.30802C12.8003 3.19081 12.9592 3.12496 13.125 3.12496H16.25C16.4158 3.12496 16.5747 3.19081 16.6919 3.30802C16.8092 3.42523 16.875 3.5842 16.875 3.74996V6.87496C16.875 7.04072 16.8092 7.1997 16.6919 7.31691C16.5747 7.43412 16.4158 7.49996 16.25 7.49996C16.0842 7.49996 15.9253 7.43412 15.8081 7.31691C15.6909 7.1997 15.625 7.04072 15.625 6.87496V5.25856L12.9422 7.94215C12.8841 8.00026 12.8152 8.04636 12.7393 8.07781C12.6635 8.10927 12.5821 8.12546 12.5 8.12546C12.4179 8.12546 12.3365 8.10927 12.2607 8.07781C12.1848 8.04636 12.1159 8.00026 12.0578 7.94215ZM17.3703 12.3797L13.6899 10.7304L13.6797 10.7257C13.4886 10.644 13.2802 10.6112 13.0733 10.6303C12.8663 10.6494 12.6674 10.7198 12.4945 10.8351C12.4742 10.8486 12.4546 10.8632 12.4359 10.8789L10.5367 12.5C9.33204 11.9148 8.08829 10.6804 7.50313 9.49137L9.12657 7.5609C9.14219 7.54137 9.15704 7.52184 9.1711 7.50075C9.28394 7.32833 9.35239 7.13068 9.37039 6.92541C9.38838 6.72014 9.35534 6.5136 9.27423 6.32418V6.31481L7.62032 2.62809C7.51309 2.38064 7.3287 2.17451 7.09468 2.04046C6.86067 1.90642 6.58958 1.85165 6.32188 1.88434C5.26326 2.02364 4.29155 2.54353 3.58824 3.34691C2.88492 4.15029 2.49809 5.18222 2.50001 6.24996C2.50001 12.4531 7.54688 17.5 13.75 17.5C14.8177 17.5019 15.8497 17.1151 16.6531 16.4117C17.4564 15.7084 17.9763 14.7367 18.1156 13.6781C18.1484 13.4105 18.0937 13.1395 17.9598 12.9055C17.8259 12.6715 17.62 12.487 17.3727 12.3797H17.3703Z" fill="#191F2E"/>
</svg>
