<svg width="20" height="20" viewBox="0 0 20 20" fill="none" xmlns="http://www.w3.org/2000/svg">
<path d="M17.5 12.0937L13.8211 10.4444L13.807 10.4382C13.5679 10.3351 13.3067 10.2936 13.0474 10.3175C12.7881 10.3414 12.5389 10.4299 12.3227 10.5749C12.2923 10.5952 12.2631 10.6171 12.2352 10.6405L10.4922 12.1249C9.47657 11.5741 8.42735 10.5335 7.87579 9.53037L9.36485 7.76006C9.38879 7.73148 9.41096 7.70148 9.43126 7.67021C9.57249 7.45471 9.65824 7.20762 9.68087 6.95096C9.70349 6.69429 9.6623 6.43601 9.56094 6.19912C9.55854 6.19458 9.55645 6.18988 9.55469 6.18506L7.90626 2.4999C7.77094 2.19172 7.54001 1.93528 7.24763 1.76855C6.95525 1.60182 6.61696 1.53364 6.28282 1.57412C5.14873 1.7231 4.10765 2.2798 3.35402 3.14026C2.60039 4.00071 2.18573 5.10607 2.18751 6.2499C2.18751 12.6257 7.37422 17.8124 13.75 17.8124C14.8938 17.8142 15.9992 17.3995 16.8597 16.6459C17.7201 15.8923 18.2768 14.8512 18.4258 13.7171C18.4663 13.3829 18.3981 13.0447 18.2314 12.7523C18.0646 12.4599 17.8082 12.229 17.5 12.0937ZM13.75 15.9374C11.1817 15.9343 8.71942 14.9127 6.90333 13.0966C5.08725 11.2805 4.06561 8.81823 4.06251 6.2499C4.06072 5.60263 4.28046 4.97424 4.68522 4.46913C5.08999 3.96403 5.6554 3.61264 6.28751 3.47334L7.75782 6.75459L6.26094 8.5374C6.23675 8.56623 6.21431 8.5965 6.19376 8.62803C6.04622 8.85346 5.95947 9.11321 5.94195 9.38206C5.92443 9.65091 5.97672 9.91973 6.09376 10.1624C6.82969 11.6687 8.3461 13.1749 9.86797 13.9124C10.1123 14.0282 10.3824 14.0787 10.6521 14.0588C10.9217 14.039 11.1816 13.9495 11.4063 13.7991C11.4365 13.7787 11.4654 13.7566 11.493 13.7327L13.2453 12.2429L16.5266 13.7124C16.3873 14.3445 16.0359 14.9099 15.5308 15.3147C15.0257 15.7194 14.3973 15.9392 13.75 15.9374Z" fill="#191F2E"/>
</svg>
