<svg width="20" height="20" viewBox="0 0 20 20" fill="none" xmlns="http://www.w3.org/2000/svg">
<path d="M17.3719 12.3797L13.6922 10.7304L13.6828 10.7257C13.4916 10.6439 13.2831 10.611 13.076 10.6301C12.8689 10.6492 12.6699 10.7197 12.4969 10.8351C12.4765 10.8486 12.457 10.8632 12.4383 10.8789L10.5367 12.5C9.33204 11.9148 8.08829 10.6804 7.50313 9.49137L9.12657 7.5609C9.14219 7.54137 9.15704 7.52184 9.1711 7.50075C9.28394 7.32833 9.35239 7.13068 9.37039 6.92541C9.38838 6.72014 9.35534 6.5136 9.27423 6.32418C9.27392 6.32106 9.27392 6.31792 9.27423 6.31481L7.62032 2.62809C7.51309 2.38064 7.3287 2.17451 7.09468 2.04046C6.86067 1.90642 6.58958 1.85165 6.32188 1.88434C5.26326 2.02364 4.29155 2.54353 3.58824 3.34691C2.88492 4.15029 2.49809 5.18222 2.50001 6.24996C2.50001 12.4531 7.54688 17.5 13.75 17.5C14.8177 17.5019 15.8497 17.1151 16.6531 16.4117C17.4564 15.7084 17.9763 14.7367 18.1156 13.6781C18.1483 13.4104 18.0936 13.1393 17.9595 12.9053C17.8255 12.6713 17.6193 12.4869 17.3719 12.3797ZM13.75 16.25C11.0987 16.2471 8.55687 15.1926 6.68214 13.3178C4.8074 11.4431 3.7529 8.90124 3.75001 6.24996C3.74707 5.48706 4.02192 4.74918 4.52324 4.17411C5.02456 3.59904 5.71806 3.22611 6.47423 3.12496C6.47392 3.12808 6.47392 3.13122 6.47423 3.13434L8.11485 6.80621L6.50001 8.73903C6.48362 8.75789 6.46873 8.778 6.45548 8.79918C6.33791 8.97959 6.26894 9.1873 6.25525 9.4022C6.24157 9.61709 6.28362 9.83188 6.37735 10.0257C7.08516 11.4734 8.54376 12.9211 10.007 13.6281C10.2023 13.7209 10.4184 13.7615 10.634 13.7459C10.8497 13.7303 11.0576 13.659 11.2375 13.539C11.2578 13.5255 11.2771 13.5106 11.2953 13.4945L13.1945 11.875L16.8664 13.5203C16.8664 13.5203 16.8727 13.5203 16.875 13.5203C16.7749 14.2774 16.4025 14.9721 15.8273 15.4745C15.2522 15.9769 14.5137 16.2526 13.75 16.25ZM11.25 5.62496C11.25 5.4592 11.3159 5.30023 11.4331 5.18302C11.5503 5.06581 11.7092 4.99996 11.875 4.99996H13.75V3.12496C13.75 2.9592 13.8159 2.80023 13.9331 2.68302C14.0503 2.56581 14.2092 2.49996 14.375 2.49996C14.5408 2.49996 14.6997 2.56581 14.8169 2.68302C14.9342 2.80023 15 2.9592 15 3.12496V4.99996H16.875C17.0408 4.99996 17.1997 5.06581 17.3169 5.18302C17.4342 5.30023 17.5 5.4592 17.5 5.62496C17.5 5.79072 17.4342 5.9497 17.3169 6.06691C17.1997 6.18412 17.0408 6.24996 16.875 6.24996H15V8.12496C15 8.29072 14.9342 8.4497 14.8169 8.56691C14.6997 8.68412 14.5408 8.74996 14.375 8.74996C14.2092 8.74996 14.0503 8.68412 13.9331 8.56691C13.8159 8.4497 13.75 8.29072 13.75 8.12496V6.24996H11.875C11.7092 6.24996 11.5503 6.18412 11.4331 6.06691C11.3159 5.9497 11.25 5.79072 11.25 5.62496Z" fill="#191F2E"/>
</svg>
