<svg width="20" height="20" viewBox="0 0 20 20" fill="none" xmlns="http://www.w3.org/2000/svg">
<path d="M17.1875 7.5C17.1858 5.92579 16.5598 4.41652 15.4466 3.30338C14.3335 2.19024 12.8242 1.56415 11.25 1.5625H5C4.75136 1.5625 4.5129 1.66127 4.33709 1.83709C4.16127 2.0129 4.0625 2.25136 4.0625 2.5V12.5C4.06436 14.2399 4.75636 15.908 5.98667 17.1383C7.21697 18.3686 8.88509 19.0606 10.625 19.0625C10.8736 19.0625 11.1121 18.9637 11.2879 18.7879C11.4637 18.6121 11.5625 18.3736 11.5625 18.125V13.4289C13.0804 13.3472 14.5093 12.6871 15.5555 11.5844C16.6017 10.4817 17.1857 9.02006 17.1875 7.5ZM5.9375 6.07891L9.02188 11.5625H5.9375V6.07891ZM9.6875 8.92109L6.60312 3.4375H9.6875V8.92109ZM6.03281 13.4375H9.6875V17.093C8.78782 16.9073 7.96222 16.4622 7.31272 15.8126C6.66322 15.1629 6.21826 14.3372 6.03281 13.4375ZM11.5625 11.5492V3.45078C12.5798 3.53324 13.5288 3.99559 14.2207 4.74587C14.9126 5.49615 15.2968 6.47938 15.2968 7.5C15.2968 8.52062 14.9126 9.50385 14.2207 10.2541C13.5288 11.0044 12.5798 11.4668 11.5625 11.5492Z" fill="#191F2E"/>
</svg>
