<svg width="20" height="20" viewBox="0 0 20 20" fill="none" xmlns="http://www.w3.org/2000/svg">
<path d="M16.25 2.5H3.75C3.41848 2.5 3.10054 2.6317 2.86612 2.86612C2.6317 3.10054 2.5 3.41848 2.5 3.75V16.25C2.5 16.5815 2.6317 16.8995 2.86612 17.1339C3.10054 17.3683 3.41848 17.5 3.75 17.5H16.25C16.5815 17.5 16.8995 17.3683 17.1339 17.1339C17.3683 16.8995 17.5 16.5815 17.5 16.25V3.75C17.5 3.41848 17.3683 3.10054 17.1339 2.86612C16.8995 2.6317 16.5815 2.5 16.25 2.5ZM13.4375 13.125C13.6861 13.125 13.9246 13.0262 14.1004 12.8504C14.2762 12.6746 14.375 12.4361 14.375 12.1875C14.375 12.0217 14.4408 11.8628 14.5581 11.7456C14.6753 11.6283 14.8342 11.5625 15 11.5625C15.1658 11.5625 15.3247 11.6283 15.4419 11.7456C15.5592 11.8628 15.625 12.0217 15.625 12.1875C15.625 12.7677 15.3945 13.3241 14.9843 13.7343C14.5741 14.1445 14.0177 14.375 13.4375 14.375C12.8573 14.375 12.3009 14.1445 11.8907 13.7343C11.4805 13.3241 11.25 12.7677 11.25 12.1875V7.5H8.75V13.75C8.75 13.9158 8.68415 14.0747 8.56694 14.1919C8.44973 14.3092 8.29076 14.375 8.125 14.375C7.95924 14.375 7.80027 14.3092 7.68306 14.1919C7.56585 14.0747 7.5 13.9158 7.5 13.75V7.5H6.875C6.37772 7.5 5.90081 7.69754 5.54917 8.04917C5.19754 8.40081 5 8.87772 5 9.375C5 9.54076 4.93415 9.69973 4.81694 9.81694C4.69973 9.93415 4.54076 10 4.375 10C4.20924 10 4.05027 9.93415 3.93306 9.81694C3.81585 9.69973 3.75 9.54076 3.75 9.375C3.75 8.5462 4.07924 7.75134 4.66529 7.16529C5.25134 6.57924 6.0462 6.25 6.875 6.25H15C15.1658 6.25 15.3247 6.31585 15.4419 6.43306C15.5592 6.55027 15.625 6.70924 15.625 6.875C15.625 7.04076 15.5592 7.19973 15.4419 7.31694C15.3247 7.43415 15.1658 7.5 15 7.5H12.5V12.1875C12.5 12.4361 12.5988 12.6746 12.7746 12.8504C12.9504 13.0262 13.1889 13.125 13.4375 13.125Z" fill="#191F2E"/>
</svg>
