<svg width="20" height="20" viewBox="0 0 20 20" fill="none" xmlns="http://www.w3.org/2000/svg">
<path d="M16.25 2.5H3.75C3.41848 2.5 3.10054 2.6317 2.86612 2.86612C2.6317 3.10054 2.5 3.41848 2.5 3.75V16.25C2.5 16.5815 2.6317 16.8995 2.86612 17.1339C3.10054 17.3683 3.41848 17.5 3.75 17.5H16.25C16.5815 17.5 16.8995 17.3683 17.1339 17.1339C17.3683 16.8995 17.5 16.5815 17.5 16.25V3.75C17.5 3.41848 17.3683 3.10054 17.1339 2.86612C16.8995 2.6317 16.5815 2.5 16.25 2.5ZM6.25 3.75H8.125V10.625H6.25V3.75ZM8.75 11.875C8.91576 11.875 9.07473 11.8092 9.19194 11.6919C9.30915 11.5747 9.375 11.4158 9.375 11.25V3.75H10.625V11.25C10.625 11.4158 10.6908 11.5747 10.8081 11.6919C10.9253 11.8092 11.0842 11.875 11.25 11.875H11.875V16.25H8.125V11.875H8.75ZM11.875 10.625V3.75H13.75V10.625H11.875ZM3.75 3.75H5V11.25C5 11.4158 5.06585 11.5747 5.18306 11.6919C5.30027 11.8092 5.45924 11.875 5.625 11.875H6.875V16.25H3.75V3.75ZM16.25 16.25H13.125V11.875H14.375C14.5408 11.875 14.6997 11.8092 14.8169 11.6919C14.9342 11.5747 15 11.4158 15 11.25V3.75H16.25V16.25Z" fill="#191F2E"/>
</svg>
