<svg width="20" height="20" viewBox="0 0 20 20" fill="none" xmlns="http://www.w3.org/2000/svg">
<path d="M16.875 3.75H3.125C2.79348 3.75 2.47554 3.8817 2.24112 4.11612C2.0067 4.35054 1.875 4.66848 1.875 5V15C1.875 15.3315 2.0067 15.6495 2.24112 15.8839C2.47554 16.1183 2.79348 16.25 3.125 16.25H16.875C17.2065 16.25 17.5245 16.1183 17.7589 15.8839C17.9933 15.6495 18.125 15.3315 18.125 15V5C18.125 4.66848 17.9933 4.35054 17.7589 4.11612C17.5245 3.8817 17.2065 3.75 16.875 3.75ZM3.125 5H16.875V9.375H11.25C10.9185 9.375 10.6005 9.5067 10.3661 9.74112C10.1317 9.97554 10 10.2935 10 10.625V15H3.125V5ZM16.875 15H11.25V10.625H16.875V15Z" fill="#191F2E"/>
</svg>
