<svg width="20" height="20" viewBox="0 0 20 20" fill="none" xmlns="http://www.w3.org/2000/svg">
<path d="M15.625 9.375C15.625 9.62223 15.5517 9.8639 15.4143 10.0695C15.277 10.275 15.0818 10.4352 14.8534 10.5299C14.6249 10.6245 14.3736 10.6492 14.1311 10.601C13.8887 10.5528 13.6659 10.4337 13.4911 10.2589C13.3163 10.0841 13.1972 9.86134 13.149 9.61886C13.1008 9.37639 13.1255 9.12505 13.2201 8.89665C13.3148 8.66824 13.475 8.47301 13.6805 8.33566C13.8861 8.19831 14.1278 8.125 14.375 8.125C14.7065 8.125 15.0245 8.2567 15.2589 8.49112C15.4933 8.72554 15.625 9.04348 15.625 9.375ZM12.1875 5H9.0625C8.81386 5 8.5754 5.09877 8.39959 5.27459C8.22377 5.4504 8.125 5.68886 8.125 5.9375C8.125 6.18614 8.22377 6.4246 8.39959 6.60041C8.5754 6.77623 8.81386 6.875 9.0625 6.875H12.1875C12.4361 6.875 12.6746 6.77623 12.8504 6.60041C13.0262 6.4246 13.125 6.18614 13.125 5.9375C13.125 5.68886 13.0262 5.4504 12.8504 5.27459C12.6746 5.09877 12.4361 5 12.1875 5ZM20 8.75V11.25C20.0001 11.824 19.7745 12.375 19.3721 12.7842C18.9696 13.1934 18.4223 13.4281 17.8484 13.4375L16.6562 16.7758C16.5478 17.0793 16.3481 17.3418 16.0846 17.5274C15.8211 17.713 15.5067 17.8126 15.1844 17.8125H14.1906C13.8683 17.8126 13.5539 17.713 13.2904 17.5274C13.0269 17.3418 12.8272 17.0793 12.7188 16.7758L12.6406 16.5625H8.60703L8.52891 16.7758C8.42059 17.0789 8.22128 17.3412 7.95825 17.5268C7.69521 17.7123 7.38128 17.8121 7.05937 17.8125H6.06563C5.74332 17.8126 5.42887 17.713 5.16537 17.5274C4.90187 17.3418 4.70221 17.0793 4.59375 16.7758L3.63281 14.0844C2.81145 13.139 2.25248 11.9946 2.01172 10.7656C1.92251 10.9115 1.87521 11.079 1.875 11.25C1.875 11.4986 1.77623 11.7371 1.60041 11.9129C1.4246 12.0887 1.18614 12.1875 0.9375 12.1875C0.68886 12.1875 0.450403 12.0887 0.274587 11.9129C0.098772 11.7371 0 11.4986 0 11.25C0.000886926 10.6607 0.186473 10.0866 0.530655 9.60829C0.874837 9.12999 1.3603 8.77163 1.91875 8.58359C2.1157 6.82602 2.95286 5.20249 4.27048 4.02277C5.58809 2.84305 7.29393 2.18974 9.0625 2.1875H17.1875C17.4361 2.1875 17.6746 2.28627 17.8504 2.46209C18.0262 2.6379 18.125 2.87636 18.125 3.125C18.125 3.37364 18.0262 3.6121 17.8504 3.78791C17.6746 3.96373 17.4361 4.0625 17.1875 4.0625H16.4062C17.1591 4.74788 17.7577 5.58538 18.1625 6.51953L18.1953 6.59766C18.7006 6.68824 19.158 6.95333 19.4878 7.34668C19.8176 7.74003 19.9989 8.23668 20 8.75ZM18.125 8.75C18.125 8.66712 18.0921 8.58763 18.0335 8.52903C17.9749 8.47042 17.8954 8.4375 17.8125 8.4375H17.5266C17.3269 8.43749 17.1325 8.37376 16.9716 8.25558C16.8107 8.13741 16.6918 7.97096 16.632 7.78047C16.2927 6.70192 15.618 5.75978 14.7063 5.0911C13.7945 4.42242 12.6932 4.06208 11.5625 4.0625H9.0625C8.03149 4.06242 7.02273 4.36236 6.15925 4.92572C5.29577 5.48909 4.61487 6.29154 4.1996 7.23522C3.78432 8.1789 3.65262 9.22303 3.82055 10.2403C3.98847 11.2575 4.44877 12.2039 5.14531 12.9641C5.22983 13.0558 5.29494 13.1637 5.33672 13.2812L6.28594 15.9375H6.83906L7.06328 15.3125C7.12784 15.1299 7.24738 14.9718 7.40546 14.8598C7.56354 14.7479 7.75241 14.6877 7.94609 14.6875H13.3039C13.4976 14.6877 13.6865 14.7479 13.8445 14.8598C14.0026 14.9718 14.1222 15.1299 14.1867 15.3125L14.4109 15.9375H14.9641L16.3047 12.1875C16.3692 12.0049 16.4888 11.8468 16.6469 11.7348C16.8049 11.6229 16.9938 11.5627 17.1875 11.5625H17.8125C17.8954 11.5625 17.9749 11.5296 18.0335 11.471C18.0921 11.4124 18.125 11.3329 18.125 11.25V8.75Z" fill="#191F2E"/>
</svg>
