<svg width="20" height="20" viewBox="0 0 20 20" fill="none" xmlns="http://www.w3.org/2000/svg">
<path d="M17.1296 2.87271C16.2904 2.03363 15.1523 1.56226 13.9656 1.56226C12.7789 1.56226 11.6407 2.03363 10.8015 2.87271L2.87261 10.8016C2.03345 11.6408 1.56201 12.7789 1.56201 13.9657C1.56201 15.1524 2.03345 16.2906 2.87261 17.1297C3.71177 17.9689 4.84992 18.4403 6.03667 18.4403C7.22343 18.4403 8.36157 17.9689 9.20074 17.1297L17.1296 9.19849C17.967 8.35888 18.4373 7.22144 18.4373 6.0356C18.4373 4.84977 17.967 3.71233 17.1296 2.87271ZM7.87339 15.8016C7.63596 16.0586 7.34908 16.265 7.02995 16.4084C6.71081 16.5518 6.366 16.6293 6.0162 16.6362C5.66639 16.6431 5.31879 16.5793 4.99424 16.4486C4.66969 16.318 4.37487 16.1231 4.12747 15.8757C3.88007 15.6283 3.68518 15.3335 3.55449 15.0089C3.4238 14.6843 3.36 14.3367 3.36691 13.9869C3.37383 13.6371 3.45132 13.2923 3.59473 12.9732C3.73815 12.6541 3.94453 12.3672 4.20152 12.1297L7.49995 8.82818L11.1718 12.5001L7.87339 15.8016ZM15.8031 7.87271L12.5 11.1719L8.82808 7.50006L12.1304 4.19849C12.6235 3.7429 13.2739 3.49584 13.9451 3.50911C14.6163 3.52238 15.2564 3.79494 15.7311 4.26967C16.2059 4.7444 16.4784 5.38445 16.4917 6.05569C16.5049 6.72693 16.2579 7.37725 15.8023 7.87037L15.8031 7.87271ZM15.0398 5.89928C15.1272 5.98637 15.1965 6.08987 15.2439 6.20382C15.2912 6.31778 15.3155 6.43995 15.3155 6.56334C15.3155 6.68673 15.2912 6.8089 15.2439 6.92286C15.1965 7.03681 15.1272 7.1403 15.0398 7.2274L13.1648 9.1024C13.0776 9.18961 12.9741 9.25878 12.8601 9.30598C12.7462 9.35317 12.6241 9.37746 12.5007 9.37746C12.3774 9.37746 12.2553 9.35317 12.1413 9.30598C12.0274 9.25878 11.9239 9.18961 11.8367 9.1024C11.7495 9.01519 11.6803 8.91167 11.6331 8.79773C11.5859 8.68379 11.5616 8.56167 11.5616 8.43834C11.5616 8.31501 11.5859 8.19289 11.6331 8.07895C11.6803 7.96501 11.7495 7.86148 11.8367 7.77428L13.7117 5.89928C13.7988 5.81188 13.9023 5.74253 14.0162 5.69521C14.1302 5.64789 14.2523 5.62354 14.3757 5.62354C14.4991 5.62354 14.6213 5.64789 14.7353 5.69521C14.8492 5.74253 14.9527 5.81188 15.0398 5.89928Z" fill="#191F2E"/>
</svg>
