<svg width="20" height="20" viewBox="0 0 20 20" fill="none" xmlns="http://www.w3.org/2000/svg">
<path d="M16.9079 3.09367C16.1275 2.31337 15.0692 1.875 13.9657 1.875C12.8621 1.875 11.8038 2.31337 11.0235 3.09367L3.0938 11.0226C2.32981 11.8062 1.90533 12.8593 1.91232 13.9538C1.9193 15.0482 2.3572 16.0958 3.13114 16.8696C3.90508 17.6434 4.95273 18.0812 6.04715 18.088C7.14157 18.0949 8.19462 17.6703 8.97818 16.9062L16.9086 8.97726C17.6877 8.19636 18.1251 7.13833 18.1249 6.03531C18.1248 4.93228 17.6871 3.87437 16.9079 3.09367ZM8.09458 16.0226C7.54872 16.5686 6.80832 16.8753 6.03627 16.8754C5.26422 16.8755 4.52376 16.5688 3.97779 16.023C3.43182 15.4771 3.12505 14.7367 3.12498 13.9647C3.1249 13.1926 3.43153 12.4521 3.9774 11.9062L7.50005 8.38351L11.6172 12.4999L8.09458 16.0226ZM16.0243 8.09367L12.5001 11.6163L8.38443 7.49992L11.9079 3.97726C12.4559 3.44189 13.1929 3.14415 13.959 3.14863C14.7251 3.15311 15.4586 3.45943 16.0004 4.00118C16.5421 4.54292 16.8484 5.27639 16.8529 6.04251C16.8574 6.80864 16.5596 7.54564 16.0243 8.09367ZM14.8188 6.43273C14.8769 6.49078 14.923 6.55971 14.9545 6.63558C14.9859 6.71146 15.0021 6.79279 15.0021 6.87492C15.0021 6.95706 14.9859 7.03838 14.9545 7.11426C14.923 7.19013 14.8769 7.25906 14.8188 7.31711L12.9438 9.19211C12.8857 9.25013 12.8168 9.29614 12.741 9.32752C12.6651 9.3589 12.5838 9.37503 12.5017 9.37499C12.4196 9.37496 12.3384 9.35875 12.2625 9.32731C12.1867 9.29586 12.1178 9.24979 12.0598 9.19172C12.0018 9.13365 11.9558 9.06472 11.9244 8.98887C11.893 8.91302 11.8769 8.83173 11.8769 8.74964C11.877 8.66756 11.8932 8.58628 11.9246 8.51046C11.9561 8.43464 12.0021 8.36575 12.0602 8.30773L13.9352 6.43273C14.0524 6.31561 14.2113 6.24982 14.377 6.24982C14.5427 6.24982 14.7016 6.31561 14.8188 6.43273Z" fill="#191F2E"/>
</svg>
