<svg width="20" height="20" viewBox="0 0 20 20" fill="none" xmlns="http://www.w3.org/2000/svg">
<path d="M16.875 8.75002C16.875 10.5133 16.2578 12.125 15.1383 13.2899C14.093 14.375 12.6758 15 11.25 15C9.85313 15 8.92031 14.5422 8.32578 14.0625L7.48359 17.643C7.45136 17.7802 7.3737 17.9025 7.26322 17.99C7.15274 18.0775 7.01593 18.1251 6.875 18.125C6.82662 18.125 6.7784 18.1195 6.73125 18.1086C6.65104 18.0902 6.57525 18.0561 6.50824 18.0084C6.44122 17.9606 6.38431 17.9 6.34075 17.8302C6.2972 17.7604 6.26787 17.6826 6.25444 17.6014C6.24101 17.5202 6.24375 17.4372 6.2625 17.3571L8.7625 6.73205C8.80042 6.57064 8.9009 6.43091 9.04185 6.34359C9.18279 6.25626 9.35265 6.22851 9.51406 6.26643C9.67547 6.30434 9.81521 6.40483 9.90253 6.54577C9.98985 6.68672 10.0176 6.85658 9.97969 7.01799L8.65938 12.6274C8.90625 12.9688 9.63281 13.75 11.25 13.75C13.4008 13.75 15.625 11.8797 15.625 8.75002C15.6247 7.88741 15.4259 7.03644 15.0442 6.2629C14.6625 5.48936 14.1079 4.81398 13.4235 4.28898C12.739 3.76399 11.943 3.40343 11.097 3.23521C10.2509 3.06699 9.37753 3.0956 8.54431 3.31883C7.71109 3.54207 6.94037 3.95394 6.29175 4.52261C5.64313 5.09128 5.13399 5.80151 4.8037 6.59837C4.4734 7.39524 4.3308 8.25739 4.38692 9.11817C4.44304 9.97895 4.69638 10.8153 5.12734 11.5625C5.20508 11.7057 5.22385 11.8735 5.17965 12.0303C5.13545 12.1871 5.03177 12.3205 4.89071 12.402C4.74964 12.4835 4.58233 12.5066 4.42442 12.4666C4.26651 12.4265 4.13048 12.3264 4.04531 12.1875C3.51831 11.2742 3.20843 10.252 3.13964 9.19982C3.07086 8.14765 3.24502 7.09375 3.64864 6.11964C4.05227 5.14553 4.67454 4.27732 5.46734 3.58214C6.26014 2.88697 7.20222 2.38347 8.22072 2.11058C9.23921 1.83769 10.3068 1.80273 11.341 2.00839C12.3752 2.21406 13.3482 2.65485 14.1848 3.29667C15.0213 3.93848 15.6991 4.76413 16.1656 5.70974C16.6321 6.65536 16.8748 7.6956 16.875 8.75002Z" fill="#191F2E"/>
</svg>
