<svg width="20" height="20" viewBox="0 0 20 20" fill="none" xmlns="http://www.w3.org/2000/svg">
<path d="M17.9422 17.0578L14.1594 13.2758C14.2453 13.25 14.3305 13.2227 14.4148 13.1922C15.5823 12.7669 16.5331 11.8956 17.0584 10.7697C17.5837 9.64375 17.6406 8.35531 17.2164 7.1875C17.1597 7.03182 17.0435 6.90504 16.8933 6.83501C16.7432 6.76499 16.5713 6.75745 16.4156 6.81406L12.9625 8.07031C12.9875 8.02187 13.0125 7.97344 13.0352 7.92344C13.4271 7.08348 13.5613 6.14616 13.4207 5.22997C13.28 4.31379 12.8709 3.45986 12.2451 2.77614C11.6192 2.09241 10.8047 1.60959 9.90446 1.38871C9.00425 1.16782 8.05875 1.21878 7.1875 1.53515C7.11013 1.56293 7.03901 1.60569 6.9782 1.66099C6.91738 1.71629 6.86808 1.78305 6.8331 1.85743C6.79812 1.93181 6.77816 2.01237 6.77435 2.09448C6.77055 2.17658 6.78298 2.25864 6.81093 2.33594L8.06796 5.79062C8.01875 5.76562 7.97031 5.73984 7.92031 5.7125C7.08017 5.32101 6.14282 5.18738 5.22675 5.3285C4.31068 5.46961 3.45701 5.87915 2.77364 6.50533C2.09027 7.13151 1.60788 7.94623 1.38743 8.8465C1.16699 9.74678 1.2184 10.6922 1.53515 11.5633C1.59187 11.719 1.70808 11.8457 1.85824 11.9158C2.0084 11.9858 2.18022 11.9933 2.33593 11.9367L5.78906 10.6797C5.76406 10.7289 5.73906 10.7773 5.7164 10.8273C5.32491 11.6675 5.19128 12.6048 5.3324 13.5209C5.47352 14.437 5.88305 15.2906 6.50923 15.974C7.13541 16.6574 7.95013 17.1398 8.85041 17.3602C9.75069 17.5807 10.6961 17.5293 11.5672 17.2125C11.7229 17.1558 11.8496 17.0396 11.9197 16.8894C11.9897 16.7393 11.9972 16.5674 11.9406 16.4117L10.6844 12.9602C10.7328 12.9844 10.7812 13.0086 10.8312 13.0312C11.3827 13.2895 11.9793 13.4376 12.5875 13.4672L17.0578 17.9383C17.1751 18.0556 17.3341 18.1214 17.5 18.1214C17.6658 18.1214 17.8249 18.0556 17.9422 17.9383C18.0595 17.821 18.1253 17.6619 18.1253 17.4961C18.1253 17.3302 18.0595 17.1712 17.9422 17.0539V17.0578ZM8.51562 15.9273C7.94762 15.6628 7.46274 15.248 7.11341 14.7278C6.76407 14.2076 6.56356 13.6018 6.53356 12.9759C6.50355 12.35 6.6452 11.7279 6.94317 11.1766C7.24115 10.6254 7.68413 10.1661 8.22421 9.84844L10.5367 16.2023C9.85074 16.3193 9.14541 16.2233 8.51562 15.9273ZM11.9062 7.39219C11.6131 8.02533 11.1333 8.55366 10.5312 8.90625L8.21797 2.54922C8.83589 2.44543 9.47043 2.51251 10.053 2.7432C10.6356 2.9739 11.144 3.35943 11.5233 3.85814C11.9027 4.35684 12.1385 4.94974 12.2053 5.57275C12.2721 6.19576 12.1673 6.82518 11.9023 7.39297L11.9062 7.39219Z" fill="#191F2E"/>
</svg>
