<svg width="20" height="20" viewBox="0 0 20 20" fill="none" xmlns="http://www.w3.org/2000/svg">
<path d="M17.9422 17.0578L14.1594 13.2758C14.2453 13.25 14.3305 13.2227 14.4148 13.1922C15.5823 12.7669 16.5331 11.8956 17.0584 10.7697C17.5837 9.64375 17.6406 8.35531 17.2164 7.1875C17.1597 7.03182 17.0435 6.90504 16.8933 6.83501C16.7432 6.76499 16.5713 6.75745 16.4156 6.81406L12.9625 8.07031C12.9875 8.02187 13.0125 7.97344 13.0352 7.92344C13.4271 7.08348 13.5613 6.14616 13.4207 5.22997C13.28 4.31379 12.8709 3.45986 12.2451 2.77614C11.6192 2.09241 10.8047 1.60959 9.90446 1.38871C9.00425 1.16782 8.05875 1.21878 7.1875 1.53515C7.11013 1.56293 7.03901 1.60569 6.9782 1.66099C6.91738 1.71629 6.86808 1.78305 6.8331 1.85743C6.79812 1.93181 6.77816 2.01237 6.77435 2.09448C6.77055 2.17658 6.78298 2.25864 6.81093 2.33594L8.06718 5.78906C8.01875 5.76406 7.97031 5.73906 7.92031 5.7164C7.08017 5.32492 6.14282 5.19129 5.22675 5.3324C4.31068 5.47352 3.45701 5.88305 2.77364 6.50923C2.09027 7.13541 1.60788 7.95013 1.38743 8.85041C1.16699 9.75069 1.2184 10.6961 1.53515 11.5672C1.59187 11.7229 1.70808 11.8496 1.85824 11.9197C2.0084 11.9897 2.18022 11.9972 2.33593 11.9406L5.78906 10.6836C5.76406 10.7328 5.73906 10.7812 5.7164 10.8312C5.32491 11.6714 5.19128 12.6087 5.3324 13.5248C5.47352 14.4409 5.88305 15.2945 6.50923 15.9779C7.13541 16.6613 7.95013 17.1437 8.85041 17.3641C9.75069 17.5846 10.6961 17.5332 11.5672 17.2164C11.7229 17.1597 11.8496 17.0435 11.9197 16.8933C11.9897 16.7432 11.9972 16.5713 11.9406 16.4156L10.6836 12.9625C10.7328 12.9875 10.7812 13.0125 10.8312 13.0352C11.3827 13.2934 11.9793 13.4415 12.5875 13.4711L17.0578 17.9422C17.1751 18.0595 17.3341 18.1253 17.5 18.1253C17.6658 18.1253 17.8249 18.0595 17.9422 17.9422C18.0595 17.8249 18.1253 17.6659 18.1253 17.5C18.1253 17.3341 18.0595 17.1751 17.9422 17.0578ZM10.2398 2.82422C10.8086 3.0885 11.2942 3.50335 11.6441 4.02385C11.994 4.54435 12.1949 5.15065 12.2249 5.77711C12.2549 6.40356 12.1129 7.02629 11.8144 7.57785C11.5159 8.12942 11.0721 8.5888 10.5312 8.90625L8.21797 2.54922C8.90419 2.43227 9.60977 2.52824 10.2398 2.82422ZM2.54921 10.5328C2.41344 9.73909 2.56063 8.92289 2.96509 8.2266C3.36956 7.5303 4.00564 6.99809 4.76237 6.72281C5.51911 6.44753 6.34847 6.44666 7.10579 6.72033C7.8631 6.99401 8.50031 7.52487 8.90625 8.22031L2.54921 10.5328ZM8.51562 15.9273C7.94762 15.6628 7.46274 15.248 7.11341 14.7278C6.76407 14.2076 6.56356 13.6018 6.53356 12.9759C6.50355 12.35 6.6452 11.7279 6.94317 11.1766C7.24115 10.6254 7.68413 10.1661 8.22421 9.84844L10.5367 16.2023C9.85074 16.3193 9.14541 16.2233 8.51562 15.9273ZM12.8562 12.2258H12.8477C12.2437 12.2304 11.6492 12.0763 11.1235 11.7789C10.5978 11.4815 10.1595 11.0513 9.85234 10.5312L16.2062 8.21797C16.2878 8.70731 16.2626 9.20851 16.1324 9.68722C16.0023 10.1659 15.7701 10.6108 15.452 10.9915C15.1338 11.3721 14.7371 11.6795 14.2891 11.8925C13.8411 12.1056 13.3523 12.2192 12.8562 12.2258Z" fill="#191F2E"/>
</svg>
