<svg width="20" height="20" viewBox="0 0 20 20" fill="none" xmlns="http://www.w3.org/2000/svg">
<path d="M18.7141 4.92187C18.6756 4.76188 18.6057 4.61112 18.5084 4.47835C18.4112 4.34558 18.2886 4.23344 18.1477 4.14844C15.69 2.66172 12.8724 1.87579 10 1.87579C7.12763 1.87579 4.31002 2.66172 1.85234 4.14844C1.71184 4.23365 1.58952 4.34573 1.49237 4.47826C1.39523 4.6108 1.32517 4.76119 1.2862 4.92082C1.24724 5.08046 1.24013 5.24622 1.26528 5.4086C1.29044 5.57099 1.34737 5.72682 1.43281 5.86719L8.93281 18.1539C9.04423 18.3376 9.20111 18.4895 9.38832 18.5949C9.57552 18.7003 9.78673 18.7556 10.0016 18.7556C10.2164 18.7556 10.4276 18.7003 10.6148 18.5949C10.802 18.4895 10.9589 18.3376 11.0703 18.1539L18.5703 5.86719C18.6559 5.72706 18.7126 5.5713 18.7373 5.409C18.762 5.24669 18.7541 5.08109 18.7141 4.92187ZM4.96797 9.25781C5.17105 9.06643 5.41428 8.92279 5.67993 8.83737C5.94558 8.75194 6.22695 8.72689 6.50351 8.76404C6.78007 8.80118 7.04486 8.89959 7.27855 9.05208C7.51225 9.20457 7.70896 9.4073 7.85434 9.64549C7.99972 9.88367 8.09011 10.1513 8.11891 10.4289C8.1477 10.7064 8.11418 10.9869 8.0208 11.2499C7.92741 11.5128 7.7765 11.7516 7.57909 11.9488C7.38168 12.146 7.14273 12.2967 6.87969 12.3898L4.96797 9.25781ZM11.8367 14.4883C11.5237 14.1932 11.3218 13.7994 11.2646 13.373C11.2075 12.9466 11.2988 12.5136 11.5231 12.1465C11.7474 11.7794 12.0911 11.5006 12.4966 11.3569C12.902 11.2131 13.3446 11.2132 13.75 11.357L11.8367 14.4883ZM14.4094 10.275C13.7147 9.95969 12.9287 9.90939 12.1995 10.1336C11.4702 10.3578 10.8482 10.841 10.4507 11.4921C10.0531 12.1432 9.90745 12.9172 10.0412 13.6683C10.1749 14.4194 10.5787 15.0956 11.1766 15.5695L10 17.5L7.53906 13.4711C7.94309 13.289 8.30377 13.0231 8.59718 12.691C8.89058 12.3589 9.10999 11.9682 9.24085 11.5448C9.37171 11.1214 9.41102 10.675 9.35617 10.2352C9.30132 9.7955 9.15358 9.37244 8.92273 8.99416C8.69189 8.61588 8.38323 8.29102 8.01724 8.04115C7.65125 7.79127 7.2363 7.6221 6.79993 7.54485C6.36356 7.4676 5.91575 7.48404 5.48622 7.59309C5.05669 7.70214 4.65527 7.9013 4.30859 8.17734L3.8125 7.36406C5.67581 6.22666 7.81659 5.6249 9.99961 5.6249C12.1826 5.6249 14.3234 6.22666 16.1867 7.36406L14.4094 10.275ZM16.8391 6.29609C14.7791 5.03972 12.4129 4.37506 10 4.37506C7.58714 4.37506 5.2209 5.03972 3.16094 6.29609L2.5 5.21641C4.76268 3.84891 7.35618 3.12608 10 3.12608C12.6438 3.12608 15.2373 3.84891 17.5 5.21641L16.8391 6.29609Z" fill="#191F2E"/>
</svg>
