<svg width="20" height="20" viewBox="0 0 20 20" fill="none" xmlns="http://www.w3.org/2000/svg">
<path d="M16.25 2.5H3.75C3.41848 2.5 3.10054 2.6317 2.86612 2.86612C2.6317 3.10054 2.5 3.41848 2.5 3.75V16.25C2.5 16.5815 2.6317 16.8995 2.86612 17.1339C3.10054 17.3683 3.41848 17.5 3.75 17.5H16.25C16.5815 17.5 16.8995 17.3683 17.1339 17.1339C17.3683 16.8995 17.5 16.5815 17.5 16.25V3.75C17.5 3.41848 17.3683 3.10054 17.1339 2.86612C16.8995 2.6317 16.5815 2.5 16.25 2.5ZM14.6336 14.6336C14.5164 14.7507 14.3575 14.8165 14.1918 14.8165C14.0261 14.8165 13.8672 14.7507 13.75 14.6336L5.36641 6.25C5.25414 6.13184 5.19248 5.97449 5.19457 5.81152C5.19666 5.64854 5.26232 5.49283 5.37758 5.37758C5.49283 5.26232 5.64854 5.19666 5.81152 5.19457C5.97449 5.19248 6.13184 5.25414 6.25 5.36641L14.6336 13.75C14.7507 13.8672 14.8165 14.0261 14.8165 14.1918C14.8165 14.3575 14.7507 14.5164 14.6336 14.6336Z" fill="#191F2E"/>
</svg>
