<svg width="20" height="20" viewBox="0 0 20 20" fill="none" xmlns="http://www.w3.org/2000/svg">
<path d="M16.0477 11.8022C15.2984 12.2577 14.4378 12.4972 13.561 12.4944C12.8264 12.4886 12.1001 12.3383 11.4235 12.0522C10.902 12.7884 10.6229 13.6688 10.625 14.571V16.8749C10.6252 16.9606 10.6078 17.0454 10.5738 17.124C10.5399 17.2027 10.4901 17.2735 10.4276 17.3321C10.3651 17.3907 10.2912 17.4359 10.2105 17.4647C10.1299 17.4936 10.0441 17.5056 9.95862 17.4999C9.79798 17.4859 9.64855 17.4117 9.54032 17.2922C9.43209 17.1726 9.37304 17.0166 9.37503 16.8554V15.8835L6.35784 12.8663C5.90932 13.0336 5.43498 13.1211 4.95628 13.1249C4.29727 13.1265 3.6506 12.9462 3.08753 12.6038C1.38519 11.5694 0.468779 9.18895 0.646123 6.23348C0.655052 6.08058 0.719816 5.93628 0.828118 5.82797C0.93642 5.71967 1.08072 5.65491 1.23362 5.64598C4.18909 5.47176 6.56956 6.38504 7.60081 8.08739C8.00598 8.75464 8.18286 9.53567 8.10472 10.3124C8.09986 10.3726 8.07767 10.43 8.04084 10.4779C8.00401 10.5257 7.95411 10.5619 7.89717 10.5819C7.84023 10.602 7.7787 10.6052 7.72 10.591C7.66131 10.5769 7.60797 10.546 7.56644 10.5022L6.06644 8.93192C5.94827 8.81965 5.79093 8.75799 5.62795 8.76008C5.46498 8.76217 5.30926 8.82784 5.19401 8.94309C5.07876 9.05834 5.01309 9.21405 5.011 9.37703C5.00892 9.54 5.07058 9.69735 5.18284 9.81551L9.39222 14.1319C9.3969 14.071 9.40237 14.01 9.40862 13.9499C9.5453 12.7911 10.0566 11.7086 10.8649 10.8671L14.8172 6.69051C14.9345 6.57334 15.0004 6.41438 15.0005 6.2486C15.0006 6.08282 14.9348 5.9238 14.8176 5.80653C14.7004 5.68925 14.5415 5.62332 14.3757 5.62325C14.2099 5.62318 14.0509 5.68896 13.9336 5.80614L10.1055 9.85457C10.0672 9.89516 10.0187 9.92474 9.96507 9.94025C9.91145 9.95575 9.85465 9.95661 9.80058 9.94274C9.74652 9.92886 9.69716 9.90076 9.65763 9.86135C9.6181 9.82194 9.58985 9.77266 9.57581 9.71864C9.2055 8.35301 9.36878 6.99364 10.0758 5.82645C11.4711 3.52332 14.718 2.29051 18.7617 2.52801C18.9146 2.53694 19.0589 2.6017 19.1673 2.71001C19.2756 2.81831 19.3403 2.96261 19.3492 3.11551C19.5836 7.16004 18.3508 10.4069 16.0477 11.8022Z" fill="#191F2E"/>
</svg>
