<svg width="20" height="20" viewBox="0 0 20 20" fill="none" xmlns="http://www.w3.org/2000/svg">
<path d="M17.439 9.04286C17.4795 9.36027 17.4999 9.67992 17.5 9.9999C17.5011 11.4013 17.1094 12.7749 16.3691 13.9648C15.6289 15.1548 14.5699 16.1133 13.3123 16.7316C12.0547 17.35 10.649 17.6033 9.25464 17.4629C7.86031 17.3225 6.53327 16.794 5.4242 15.9374C7.39217 15.4561 9.70702 14.4585 11.8648 13.2186C14.1648 11.8976 16.1062 10.4265 17.439 9.04286ZM19.1492 4.74052C18.5515 3.71005 16.9742 3.47802 14.5789 4.06396C13.4699 3.20649 12.1428 2.67722 10.7481 2.53628C9.35339 2.39533 7.94713 2.64836 6.68905 3.26661C5.43097 3.88487 4.3715 4.84358 3.63101 6.03381C2.89051 7.22405 2.49866 8.59811 2.49998 9.9999C2.50008 10.3214 2.52043 10.6426 2.56092 10.9616C0.39764 13.203 0.42889 14.5311 0.851546 15.2593C1.24998 15.9499 2.08123 16.2499 3.17498 16.2499C3.93438 16.2342 4.68929 16.1293 5.4242 15.9374C5.02123 15.6259 4.65062 15.2746 4.31795 14.889C2.96717 15.114 2.13045 14.9671 1.9328 14.6319C1.81873 14.4358 1.88202 14.0663 2.10623 13.6163C2.32794 13.1949 2.59742 12.8003 2.90936 12.4405C2.90972 12.4382 2.90972 12.4358 2.90936 12.4335V12.4397C3.21941 13.3368 3.69657 14.1671 4.31561 14.8866C5.95155 14.614 8.33827 13.7999 11.2398 12.1327C13.4375 10.8741 15.7812 9.11474 17.093 7.56396C16.7841 6.66562 16.3068 5.83438 15.6867 5.11474L15.6765 5.10302C15.6765 5.10693 15.6836 5.11005 15.6867 5.11474C16.7969 4.93115 17.825 4.94521 18.0695 5.36786C18.1414 5.49052 18.1476 5.67411 18.0812 5.91474C17.9492 6.40771 17.5976 6.97177 17.0945 7.56552C17.2599 8.04542 17.3759 8.54096 17.4406 9.04443C18.4172 8.0288 19.0672 7.06396 19.2883 6.23818C19.4398 5.66474 19.3937 5.16161 19.1492 4.74052Z" fill="#191F2E"/>
</svg>
