<svg width="20" height="20" viewBox="0 0 20 20" fill="none" xmlns="http://www.w3.org/2000/svg">
<path d="M19.4211 4.58362C18.9281 3.7344 17.6242 2.93831 14.2524 3.82503C13.127 3.04843 11.8106 2.59448 10.4457 2.51232C9.0808 2.43017 7.71946 2.72293 6.50903 3.35893C5.29859 3.99492 4.2852 4.94991 3.57855 6.1205C2.8719 7.29109 2.49893 8.63268 2.50001 10C2.50001 10.1875 2.50678 10.3735 2.52032 10.5578C0.0437615 13.036 0.0859492 14.5625 0.581262 15.4164C1.04689 16.2196 1.97657 16.5625 3.17814 16.5625C3.94298 16.5625 4.81876 16.4235 5.75236 16.1789C6.878 16.9544 8.19428 17.4073 9.55878 17.4887C10.9233 17.57 12.284 17.2766 13.4938 16.6403C14.7036 16.004 15.7163 15.049 16.4225 13.8786C17.1286 12.7082 17.5012 11.3669 17.5 10C17.5 9.81175 17.493 9.62581 17.4789 9.44065C18.5969 8.31722 19.343 7.23675 19.5883 6.31565C19.8086 5.50159 19.6188 4.9219 19.4211 4.58362ZM10 4.37503C11.2741 4.37675 12.5099 4.81029 13.5059 5.60487C14.5018 6.39946 15.199 7.50817 15.4836 8.75003C14.375 9.74456 12.8906 10.8274 11.0875 11.8641C9.38907 12.8399 7.68517 13.611 6.15861 14.1024C5.33653 13.3312 4.76512 12.3307 4.51847 11.2309C4.27182 10.131 4.36132 8.98235 4.77534 7.93394C5.18937 6.88553 5.90883 5.98569 6.84043 5.3511C7.77204 4.71652 8.87281 4.37646 10 4.37503ZM2.20236 14.4758C2.1547 14.3922 2.18907 13.8336 3.03595 12.7797C3.29899 13.4364 3.65383 14.0524 4.08986 14.6094C2.74376 14.8133 2.25392 14.5633 2.20236 14.4758ZM10 15.625C9.40108 15.6251 8.80602 15.5291 8.23751 15.3407C9.53921 14.8108 10.8031 14.1924 12.0203 13.4899C13.233 12.7983 14.3964 12.0238 15.5024 11.1719C15.2323 12.4313 14.539 13.5601 13.5378 14.3704C12.5366 15.1807 11.288 15.6235 10 15.625ZM17.7789 5.83206C17.6789 6.2055 17.4031 6.68128 16.9672 7.22268C16.7041 6.56516 16.349 5.94832 15.9125 5.39065C17.1492 5.2055 17.7227 5.39065 17.7992 5.52425C17.8125 5.5469 17.8289 5.6469 17.7789 5.83206Z" fill="#191F2E"/>
</svg>
