<svg width="20" height="20" viewBox="0 0 20 20" fill="none" xmlns="http://www.w3.org/2000/svg">
<path d="M19.6578 3.09759C19.6442 2.8685 19.5471 2.65234 19.3849 2.49007C19.2226 2.32779 19.0064 2.23068 18.7773 2.21712C14.6148 1.97181 11.2617 3.26165 9.80546 5.66556C8.85702 7.22806 8.82421 9.11634 9.6914 10.9234C9.32051 11.3962 9.02435 11.9232 8.81327 12.4859L8.05546 11.7281C8.61718 10.4179 8.55781 9.06321 7.86796 7.92415C6.77577 6.12181 4.28827 5.15618 1.21484 5.33431C0.985748 5.34787 0.76959 5.44498 0.607317 5.60725C0.445044 5.76953 0.347927 5.98569 0.334368 6.21478C0.156243 9.28821 1.12187 11.7757 2.92577 12.8679C3.53758 13.2408 4.24054 13.4373 4.95702 13.4359C5.56788 13.4309 6.17131 13.3014 6.73046 13.0554L8.43749 14.7656V16.8749C8.43749 17.1236 8.53626 17.362 8.71208 17.5378C8.8879 17.7137 9.12635 17.8124 9.37499 17.8124C9.62363 17.8124 9.86209 17.7137 10.0379 17.5378C10.2137 17.362 10.3125 17.1236 10.3125 16.8749V14.571C10.3106 13.733 10.5697 12.9152 11.0539 12.2312C11.8377 12.604 12.6931 12.8023 13.5609 12.8124C14.495 12.8146 15.4114 12.5589 16.2094 12.0734C18.6133 10.6132 19.9031 7.25931 19.6578 3.09759ZM3.89687 11.264C2.8664 10.639 2.24218 9.11868 2.1914 7.19134C4.11874 7.24212 5.63984 7.86712 6.26406 8.89681C6.50816 9.29387 6.60829 9.7628 6.54765 10.2249L5.66249 9.33665C5.48637 9.16053 5.2475 9.06159 4.99843 9.06159C4.74936 9.06159 4.51049 9.16053 4.33437 9.33665C4.15825 9.51277 4.0593 9.75164 4.0593 10.0007C4.0593 10.2498 4.15825 10.4887 4.33437 10.6648L5.2203 11.5507C4.75943 11.6076 4.29287 11.5065 3.89687 11.264ZM15.2383 10.4687C14.4055 10.9726 13.4414 11.0679 12.4406 10.7624L15.3508 7.85306C15.5269 7.67694 15.6258 7.43807 15.6258 7.18899C15.6258 6.93992 15.5269 6.70105 15.3508 6.52493C15.1747 6.34881 14.9358 6.24987 14.6867 6.24987C14.4376 6.24987 14.1988 6.34881 14.0226 6.52493L11.1125 9.43431C10.8101 8.43743 10.9055 7.46946 11.4062 6.64056C12.4039 4.9929 14.7656 4.05696 17.8125 4.06243C17.8234 7.10931 16.8859 9.46712 15.2383 10.4687Z" fill="#191F2E"/>
</svg>
