<svg width="20" height="20" viewBox="0 0 20 20" fill="none" xmlns="http://www.w3.org/2000/svg">
<path d="M19.1492 4.74052C18.5515 3.71005 16.9742 3.47802 14.5789 4.06396C13.4699 3.20649 12.1428 2.67722 10.7481 2.53628C9.35339 2.39533 7.94713 2.64836 6.68905 3.26661C5.43097 3.88487 4.3715 4.84358 3.63101 6.03381C2.89051 7.22405 2.49866 8.59811 2.49998 9.9999C2.50008 10.3214 2.52043 10.6426 2.56092 10.9616C0.39764 13.203 0.42889 14.5311 0.851546 15.2593C1.24998 15.9499 2.08123 16.2499 3.17498 16.2499C3.93438 16.2342 4.68929 16.1293 5.4242 15.9374C6.53327 16.794 7.86031 17.3225 9.25464 17.4629C10.649 17.6033 12.0547 17.35 13.3123 16.7316C14.5699 16.1133 15.6289 15.1548 16.3691 13.9648C17.1094 12.7749 17.5011 11.4013 17.5 9.9999C17.5001 9.67994 17.48 9.36029 17.4398 9.04286C18.4164 8.02724 19.0664 7.0624 19.2875 6.23661C19.4398 5.66474 19.3937 5.16161 19.1492 4.74052ZM9.99998 3.7499C11.4156 3.75135 12.7888 4.23266 13.8956 5.11523C15.0024 5.99781 15.7773 7.22952 16.0937 8.60927C14.7609 9.86396 12.957 11.1507 11.2445 12.1351C9.09217 13.3702 7.22498 14.1405 5.73592 14.5624C4.81879 13.707 4.18043 12.5953 3.90394 11.3721C3.62745 10.1488 3.72564 8.87068 4.18573 7.70401C4.64582 6.53734 5.4465 5.53622 6.48352 4.83097C7.52055 4.12572 8.74587 3.74901 9.99998 3.7499ZM1.9328 14.6319C1.81873 14.4358 1.88202 14.0663 2.10623 13.6163C2.32796 13.1947 2.59772 12.8001 2.91014 12.4405C3.21983 13.3378 3.69702 14.1681 4.31639 14.8874C2.96873 15.114 2.12811 14.9694 1.9328 14.6319ZM9.99998 16.2499C8.94618 16.251 7.90945 15.9837 6.98748 15.4733C8.67974 14.8748 10.3126 14.12 11.8648 13.2186C13.5508 12.2507 15.043 11.2015 16.2453 10.1655C16.2008 11.793 15.5235 13.339 14.3573 14.4751C13.1912 15.6112 11.6281 16.2479 9.99998 16.2499ZM18.0797 5.91318C17.9469 6.40615 17.5961 6.97021 17.093 7.56396C16.7841 6.66562 16.3068 5.83438 15.6867 5.11474C16.7969 4.93115 17.825 4.94521 18.0695 5.36786C18.1398 5.49052 18.1437 5.67411 18.0797 5.91318Z" fill="#191F2E"/>
</svg>
