<svg width="20" height="20" viewBox="0 0 20 20" fill="none" xmlns="http://www.w3.org/2000/svg">
<path d="M19.3461 3.11633C19.3371 2.96343 19.2724 2.81913 19.1641 2.71083C19.0558 2.60252 18.9115 2.53776 18.7586 2.52883C14.7148 2.29446 11.468 3.52414 10.0726 5.82727C9.15076 7.34993 9.15233 9.19914 10.0601 10.9632C9.54342 11.5783 9.16578 12.2979 8.95311 13.0726L7.68201 11.7968C8.29295 10.521 8.26951 9.19133 7.60389 8.08664C6.57264 6.3843 4.19217 5.4718 1.2367 5.64524C1.0838 5.65417 0.939499 5.71893 0.831196 5.82723C0.722894 5.93554 0.658131 6.07984 0.649201 6.23274C0.474983 9.18821 1.38826 11.5687 3.09061 12.5999C3.65238 12.9431 4.29791 13.1248 4.95623 13.1249C5.59522 13.1171 6.22426 12.9657 6.79686 12.682L8.74998 14.6351V16.8749C8.74998 17.0407 8.81583 17.1997 8.93304 17.3169C9.05025 17.4341 9.20922 17.4999 9.37498 17.4999C9.54074 17.4999 9.69971 17.4341 9.81692 17.3169C9.93413 17.1997 9.99998 17.0407 9.99998 16.8749V14.571C9.9972 13.5767 10.3356 12.6116 10.9586 11.8366C11.7624 12.2567 12.654 12.4816 13.5609 12.4929C14.4378 12.4957 15.2984 12.2562 16.0476 11.8007C18.3508 10.407 19.5836 7.16008 19.3461 3.11633ZM3.73514 11.5312C2.5367 10.8054 1.85858 9.08743 1.87498 6.87493C4.08748 6.85618 5.80545 7.53664 6.53123 8.73508C6.91014 9.36008 6.97186 10.089 6.72342 10.8398L4.81639 8.93274C4.69823 8.82048 4.54088 8.75881 4.37791 8.7609C4.21493 8.76299 4.05922 8.82866 3.94396 8.94391C3.82871 9.05916 3.76304 9.21487 3.76096 9.37785C3.75887 9.54082 3.82053 9.69817 3.9328 9.81633L5.83983 11.7234C5.08905 11.9718 4.36092 11.9101 3.73514 11.5312ZM15.4 10.7327C14.3531 11.3663 13.1226 11.4148 11.8726 10.889L16.0672 6.69368C16.1794 6.57551 16.2411 6.41817 16.239 6.25519C16.2369 6.09222 16.1713 5.9365 16.056 5.82125C15.9407 5.706 15.785 5.64033 15.6221 5.63824C15.4591 5.63616 15.3017 5.69782 15.1836 5.81008L10.9883 9.99993C10.4601 8.74993 10.5078 7.51868 11.1445 6.47258C12.2336 4.67571 14.8164 3.67414 18.1234 3.75149C18.1984 7.05774 17.1984 9.64368 15.4 10.7327Z" fill="#191F2E"/>
</svg>
