<svg width="20" height="20" viewBox="0 0 20 20" fill="none" xmlns="http://www.w3.org/2000/svg">
<path d="M17.5865 9.02592L7.35245 2.66983C7.17991 2.56256 6.98229 2.504 6.78001 2.5002C6.57772 2.49639 6.3781 2.54749 6.20176 2.64819C6.02711 2.74734 5.88162 2.89192 5.78025 3.06708C5.67888 3.24224 5.62529 3.44165 5.625 3.6448V16.3555C5.62632 16.6603 5.74677 16.952 5.95988 17.1666C6.17299 17.3812 6.46132 17.5011 6.76148 17.5C6.97099 17.4999 7.17643 17.4413 7.35529 17.3305L17.5865 10.9744C17.7509 10.8727 17.8868 10.7297 17.9812 10.5592C18.0755 10.3887 18.125 10.1964 18.125 10.0009C18.125 9.80536 18.0755 9.61311 17.9812 9.44262C17.8868 9.27213 17.7509 9.12913 17.5865 9.02736V9.02592ZM6.76148 16.3418V3.65418L16.9777 10.0002L6.76148 16.3418Z" fill="#191F2E"/>
</svg>
