<svg width="20" height="20" viewBox="0 0 20 20" fill="none" xmlns="http://www.w3.org/2000/svg">
<path d="M2.5 5C2.5 4.83424 2.56585 4.67527 2.68306 4.55806C2.80027 4.44085 2.95924 4.375 3.125 4.375H16.875C17.0408 4.375 17.1997 4.44085 17.3169 4.55806C17.4342 4.67527 17.5 4.83424 17.5 5C17.5 5.16576 17.4342 5.32473 17.3169 5.44194C17.1997 5.55915 17.0408 5.625 16.875 5.625H3.125C2.95924 5.625 2.80027 5.55915 2.68306 5.44194C2.56585 5.32473 2.5 5.16576 2.5 5ZM3.125 10.625H12.5C12.6658 10.625 12.8247 10.5592 12.9419 10.4419C13.0592 10.3247 13.125 10.1658 13.125 10C13.125 9.83424 13.0592 9.67527 12.9419 9.55806C12.8247 9.44085 12.6658 9.375 12.5 9.375H3.125C2.95924 9.375 2.80027 9.44085 2.68306 9.55806C2.56585 9.67527 2.5 9.83424 2.5 10C2.5 10.1658 2.56585 10.3247 2.68306 10.4419C2.80027 10.5592 2.95924 10.625 3.125 10.625ZM8.75 14.375H3.125C2.95924 14.375 2.80027 14.4408 2.68306 14.5581C2.56585 14.6753 2.5 14.8342 2.5 15C2.5 15.1658 2.56585 15.3247 2.68306 15.4419C2.80027 15.5592 2.95924 15.625 3.125 15.625H8.75C8.91576 15.625 9.07473 15.5592 9.19194 15.4419C9.30915 15.3247 9.375 15.1658 9.375 15C9.375 14.8342 9.30915 14.6753 9.19194 14.5581C9.07473 14.4408 8.91576 14.375 8.75 14.375ZM18.9297 9.08906L15.8047 8.15156C15.7114 8.12355 15.6128 8.11775 15.5168 8.1346C15.4209 8.15146 15.3302 8.19052 15.252 8.24866C15.1739 8.3068 15.1103 8.38241 15.0666 8.46946C15.0228 8.5565 15 8.65257 15 8.75V12.8367C14.5233 12.5615 13.9692 12.4513 13.4235 12.5232C12.8778 12.5951 12.371 12.8451 11.9819 13.2343C11.5928 13.6236 11.343 14.1304 11.2713 14.6761C11.1996 15.2219 11.31 15.776 11.5854 16.2526C11.8608 16.7291 12.2857 17.1015 12.7943 17.3119C13.3029 17.5223 13.8668 17.559 14.3983 17.4163C14.9299 17.2735 15.3995 16.9593 15.7343 16.5224C16.0691 16.0856 16.2504 15.5504 16.25 15V9.58984L18.5703 10.2859C18.6495 10.3117 18.7331 10.3214 18.8161 10.3145C18.8991 10.3075 18.9799 10.284 19.0537 10.2454C19.1275 10.2068 19.1928 10.1538 19.2458 10.0896C19.2989 10.0254 19.3385 9.95118 19.3625 9.8714C19.3864 9.79163 19.3942 9.70787 19.3853 9.62504C19.3764 9.54222 19.3511 9.46201 19.3108 9.38913C19.2705 9.31624 19.216 9.25215 19.1505 9.20062C19.0851 9.14909 19.01 9.11116 18.9297 9.08906Z" fill="#191F2E"/>
</svg>
