<svg width="20" height="20" viewBox="0 0 20 20" fill="none" xmlns="http://www.w3.org/2000/svg">
<path d="M2.5 5C2.5 4.83424 2.56585 4.67527 2.68306 4.55806C2.80027 4.44085 2.95924 4.375 3.125 4.375H16.875C17.0408 4.375 17.1997 4.44085 17.3169 4.55806C17.4342 4.67527 17.5 4.83424 17.5 5C17.5 5.16576 17.4342 5.32473 17.3169 5.44194C17.1997 5.55915 17.0408 5.625 16.875 5.625H3.125C2.95924 5.625 2.80027 5.55915 2.68306 5.44194C2.56585 5.32473 2.5 5.16576 2.5 5ZM3.125 10.625H12.5C12.6658 10.625 12.8247 10.5592 12.9419 10.4419C13.0592 10.3247 13.125 10.1658 13.125 10C13.125 9.83424 13.0592 9.67527 12.9419 9.55806C12.8247 9.44085 12.6658 9.375 12.5 9.375H3.125C2.95924 9.375 2.80027 9.44085 2.68306 9.55806C2.56585 9.67527 2.5 9.83424 2.5 10C2.5 10.1658 2.56585 10.3247 2.68306 10.4419C2.80027 10.5592 2.95924 10.625 3.125 10.625ZM8.75 14.375H3.125C2.95924 14.375 2.80027 14.4408 2.68306 14.5581C2.56585 14.6753 2.5 14.8342 2.5 15C2.5 15.1658 2.56585 15.3247 2.68306 15.4419C2.80027 15.5592 2.95924 15.625 3.125 15.625H8.75C8.91576 15.625 9.07473 15.5592 9.19194 15.4419C9.30915 15.3247 9.375 15.1658 9.375 15C9.375 14.8342 9.30915 14.6753 9.19194 14.5581C9.07473 14.4408 8.91576 14.375 8.75 14.375ZM19.3484 9.86719C19.3248 9.94611 19.2859 10.0196 19.2338 10.0834C19.1817 10.1472 19.1175 10.2001 19.0449 10.239C18.9723 10.2779 18.8927 10.3021 18.8107 10.3102C18.7287 10.3182 18.646 10.31 18.5672 10.2859L16.25 9.58984V15C16.2509 15.5515 16.0697 16.0878 15.7346 16.5257C15.3994 16.9637 14.9291 17.2787 14.3965 17.422C13.864 17.5652 13.2991 17.5287 12.7894 17.318C12.2798 17.1073 11.854 16.7342 11.5781 16.2568C11.3022 15.7793 11.1916 15.2241 11.2636 14.6773C11.3356 14.1306 11.586 13.6229 11.976 13.233C12.3661 12.8432 12.8739 12.593 13.4207 12.5214C13.9675 12.4497 14.5227 12.5606 15 12.8367V8.75C15 8.65257 15.0228 8.5565 15.0666 8.46946C15.1103 8.38241 15.1739 8.3068 15.252 8.24866C15.3302 8.19052 15.4209 8.15146 15.5168 8.1346C15.6128 8.11775 15.7114 8.12355 15.8047 8.15156L18.9297 9.08906C19.0884 9.13676 19.2216 9.24552 19.3002 9.39143C19.3787 9.53735 19.396 9.70847 19.3484 9.86719ZM15 15C15 14.7528 14.9267 14.5111 14.7893 14.3055C14.652 14.1 14.4568 13.9398 14.2284 13.8451C13.9999 13.7505 13.7486 13.7258 13.5061 13.774C13.2637 13.8222 13.0409 13.9413 12.8661 14.1161C12.6913 14.2909 12.5722 14.5137 12.524 14.7561C12.4758 14.9986 12.5005 15.2499 12.5951 15.4784C12.6898 15.7068 12.85 15.902 13.0555 16.0393C13.2611 16.1767 13.5028 16.25 13.75 16.25C14.0815 16.25 14.3995 16.1183 14.6339 15.8839C14.8683 15.6495 15 15.3315 15 15Z" fill="#191F2E"/>
</svg>
