<svg width="20" height="20" viewBox="0 0 20 20" fill="none" xmlns="http://www.w3.org/2000/svg">
<path d="M14.6875 5V15C14.6875 15.2486 14.5887 15.4871 14.4129 15.6629C14.2371 15.8387 13.9986 15.9375 13.75 15.9375C13.5014 15.9375 13.2629 15.8387 13.0871 15.6629C12.9113 15.4871 12.8125 15.2486 12.8125 15V5C12.8125 4.75136 12.9113 4.51291 13.0871 4.33709C13.2629 4.16128 13.5014 4.0625 13.75 4.0625C13.9986 4.0625 14.2371 4.16128 14.4129 4.33709C14.5887 4.51291 14.6875 4.75136 14.6875 5ZM17.5 4.0625C17.2514 4.0625 17.0129 4.16128 16.8371 4.33709C16.6613 4.51291 16.5625 4.75136 16.5625 5V15C16.5625 15.2486 16.6613 15.4871 16.8371 15.6629C17.0129 15.8387 17.2514 15.9375 17.5 15.9375C17.7486 15.9375 17.9871 15.8387 18.1629 15.6629C18.3387 15.4871 18.4375 15.2486 18.4375 15V5C18.4375 4.75136 18.3387 4.51291 18.1629 4.33709C17.9871 4.16128 17.7486 4.0625 17.5 4.0625ZM11.5625 10C11.5631 10.2606 11.4975 10.517 11.3719 10.7454C11.2463 10.9737 11.0649 11.1664 10.8445 11.3055L3.95547 15.693C3.72071 15.843 3.44997 15.9272 3.17154 15.9368C2.89311 15.9464 2.61722 15.881 2.37269 15.7475C2.12815 15.614 1.92396 15.4173 1.78144 15.178C1.63892 14.9386 1.56331 14.6653 1.5625 14.3867V5.61329C1.56331 5.33469 1.63892 5.06143 1.78144 4.82205C1.92396 4.58268 2.12815 4.38597 2.37269 4.25249C2.61722 4.119 2.89311 4.05364 3.17154 4.06324C3.44997 4.07284 3.72071 4.15703 3.95547 4.30704L10.8445 8.69454C11.0649 8.83361 11.2463 9.02634 11.3719 9.25466C11.4975 9.48298 11.5631 9.73943 11.5625 10ZM9.40469 10L3.4375 6.20079V13.7992L9.40469 10Z" fill="#191F2E"/>
</svg>
