<svg width="20" height="20" viewBox="0 0 20 20" fill="none" xmlns="http://www.w3.org/2000/svg">
<path d="M18.125 10C18.1255 10.1959 18.076 10.3885 17.9814 10.5593C17.8868 10.73 17.7503 10.8729 17.5852 10.9742L7.35227 17.3302C7.17975 17.4374 6.98215 17.496 6.77988 17.4998C6.57762 17.5036 6.37802 17.4525 6.2017 17.3518C6.02707 17.2527 5.88159 17.1081 5.78023 16.9329C5.67887 16.7578 5.62529 16.5584 5.625 16.3552V3.64478C5.62529 3.44163 5.67887 3.24222 5.78023 3.06707C5.88159 2.89191 6.02707 2.74733 6.2017 2.64819C6.37802 2.54748 6.57762 2.49639 6.77988 2.5002C6.98215 2.504 7.17975 2.56256 7.35227 2.66982L17.5852 9.02577C17.7503 9.12707 17.8868 9.27002 17.9814 9.44074C18.076 9.61146 18.1255 9.80412 18.125 10Z" fill="#191F2E"/>
</svg>
