<svg width="20" height="20" viewBox="0 0 20 20" fill="none" xmlns="http://www.w3.org/2000/svg">
<path d="M10 1.5625C8.33122 1.5625 6.69992 2.05735 5.31238 2.98448C3.92484 3.9116 2.84338 5.22936 2.20477 6.77111C1.56616 8.31286 1.39907 10.0094 1.72463 11.6461C2.05019 13.2828 2.85379 14.7862 4.03379 15.9662C5.2138 17.1462 6.71721 17.9498 8.35393 18.2754C9.99064 18.6009 11.6871 18.4338 13.2289 17.7952C14.7706 17.1566 16.0884 16.0752 17.0155 14.6876C17.9427 13.3001 18.4375 11.6688 18.4375 10C18.435 7.763 17.5453 5.61833 15.9635 4.03653C14.3817 2.45473 12.237 1.56498 10 1.5625ZM10 16.5625C8.70206 16.5625 7.43327 16.1776 6.35407 15.4565C5.27488 14.7354 4.43374 13.7105 3.93704 12.5114C3.44034 11.3122 3.31038 9.99272 3.5636 8.71972C3.81682 7.44672 4.44183 6.27739 5.35962 5.35961C6.2774 4.44183 7.44672 3.81681 8.71972 3.5636C9.99272 3.31038 11.3122 3.44034 12.5114 3.93704C13.7105 4.43374 14.7354 5.27487 15.4565 6.35407C16.1776 7.43327 16.5625 8.70206 16.5625 10C16.5606 11.7399 15.8686 13.408 14.6383 14.6383C13.408 15.8686 11.7399 16.5606 10 16.5625ZM13.125 10C13.125 10.1507 13.0886 10.2992 13.019 10.4329C12.9493 10.5666 12.8485 10.6815 12.725 10.768L9.6 12.9555C9.45951 13.0538 9.29475 13.1117 9.12365 13.1229C8.95254 13.134 8.78165 13.0981 8.62956 13.0189C8.47747 12.9397 8.35001 12.8203 8.26104 12.6737C8.17208 12.5271 8.12503 12.359 8.125 12.1875V7.8125C8.12503 7.64103 8.17208 7.47285 8.26104 7.32626C8.35001 7.17967 8.47747 7.06029 8.62956 6.9811C8.78165 6.90192 8.95254 6.86596 9.12365 6.87714C9.29475 6.88832 9.45951 6.94622 9.6 7.04453L12.725 9.23203C12.8485 9.31845 12.9493 9.43338 13.019 9.56707C13.0886 9.70076 13.125 9.84926 13.125 10Z" fill="#191F2E"/>
</svg>
