<svg width="20" height="20" viewBox="0 0 20 20" fill="none" xmlns="http://www.w3.org/2000/svg">
<path d="M10.7031 13.1249L11.6031 12.2257C11.7792 12.0496 11.8782 11.8107 11.8782 11.5616C11.8782 11.3126 11.7792 11.0737 11.6031 10.8976C11.427 10.7214 11.1881 10.6225 10.9391 10.6225C10.69 10.6225 10.4511 10.7214 10.275 10.8976L9.37499 11.7968L8.20312 10.6249L9.10312 9.72569C9.27924 9.54957 9.37818 9.3107 9.37818 9.06163C9.37818 8.81256 9.27924 8.57369 9.10312 8.39757C8.927 8.22145 8.68812 8.1225 8.43905 8.1225C8.18998 8.1225 7.95111 8.22145 7.77499 8.39757L6.87499 9.29678L5.66327 8.08663C5.48715 7.91051 5.24828 7.81156 4.99921 7.81156C4.75014 7.81156 4.51127 7.91051 4.33515 8.08663C4.15903 8.26275 4.06008 8.50162 4.06008 8.75069C4.06008 8.99976 4.15903 9.23863 4.33515 9.41475L4.60937 9.68741L3.01093 11.2882C2.48352 11.8156 2.18723 12.531 2.18723 13.2769C2.18723 14.0228 2.48352 14.7381 3.01093 15.2655L3.21015 15.464L1.21171 17.4616C1.03559 17.6377 0.936646 17.8766 0.936646 18.1257C0.936646 18.3748 1.03559 18.6136 1.21171 18.7898C1.38783 18.9659 1.6267 19.0648 1.87577 19.0648C2.12484 19.0648 2.36371 18.9659 2.53983 18.7898L4.53749 16.7913L4.73593 16.9905C5.26398 17.5168 5.97909 17.8123 6.7246 17.8123C7.47011 17.8123 8.18522 17.5168 8.71327 16.9905L10.3125 15.3905L10.5867 15.6655C10.7628 15.8417 11.0017 15.9406 11.2508 15.9406C11.4998 15.9406 11.7387 15.8417 11.9148 15.6655C12.091 15.4894 12.1899 15.2505 12.1899 15.0015C12.1899 14.7524 12.091 14.5135 11.9148 14.3374L10.7031 13.1249ZM7.38593 15.6632C7.29883 15.7506 7.19534 15.8199 7.08138 15.8673C6.96743 15.9146 6.84525 15.9389 6.72187 15.9389C6.59848 15.9389 6.4763 15.9146 6.36235 15.8673C6.24839 15.8199 6.1449 15.7506 6.0578 15.6632L4.33671 13.9398C4.24931 13.8527 4.17996 13.7492 4.13264 13.6352C4.08533 13.5213 4.06097 13.3991 4.06097 13.2757C4.06097 13.1523 4.08533 13.0301 4.13264 12.9162C4.17996 12.8022 4.24931 12.6987 4.33671 12.6116L5.93749 11.0155L8.98437 14.0624L7.38593 15.6632ZM18.7922 1.21007C18.7051 1.12267 18.6016 1.05332 18.4876 1.006C18.3737 0.958683 18.2515 0.934326 18.1281 0.934326C18.0047 0.934326 17.8826 0.958683 17.7686 1.006C17.6546 1.05332 17.5511 1.12267 17.4641 1.21007L15.4641 3.21007L15.2656 3.01085C14.7377 2.4844 14.0225 2.18876 13.2769 2.18876C12.5314 2.18876 11.8162 2.4844 11.2883 3.01085L9.68749 4.60928L9.41327 4.33428C9.23715 4.15816 8.99828 4.05922 8.74921 4.05922C8.50014 4.05922 8.26127 4.15816 8.08515 4.33428C7.90903 4.5104 7.81008 4.74927 7.81008 4.99835C7.81008 5.24742 7.90903 5.48629 8.08515 5.66241L14.3351 11.9124C14.5113 12.0885 14.7501 12.1875 14.9992 12.1875C15.2483 12.1875 15.4872 12.0885 15.6633 11.9124C15.8394 11.7363 15.9383 11.4974 15.9383 11.2483C15.9383 10.9993 15.8394 10.7604 15.6633 10.5843L15.3906 10.3124L16.9914 8.71163C17.5188 8.18419 17.8151 7.46885 17.8151 6.72296C17.8151 5.97707 17.5188 5.26172 16.9914 4.73428L16.7922 4.53585L18.7906 2.53819C18.8776 2.45097 18.9466 2.34745 18.9936 2.23356C19.0406 2.11966 19.0646 1.99763 19.0644 1.87442C19.0642 1.75122 19.0397 1.62927 18.9923 1.51554C18.9449 1.40182 18.8756 1.29854 18.7883 1.21163L18.7922 1.21007ZM15.6672 7.38194L14.0625 8.98428L11.0156 5.93741L12.6164 4.33663C12.7035 4.24923 12.807 4.17988 12.9209 4.13256C13.0349 4.08525 13.1571 4.06089 13.2805 4.06089C13.4038 4.06089 13.526 4.08525 13.64 4.13256C13.7539 4.17988 13.8574 4.24923 13.9445 4.33663L15.668 6.06007C15.7554 6.14716 15.8247 6.25066 15.872 6.36461C15.9193 6.47857 15.9437 6.60074 15.9437 6.72413C15.9437 6.84752 15.9193 6.96969 15.872 7.08365C15.8247 7.1976 15.7554 7.30109 15.668 7.38819L15.6672 7.38194Z" fill="#191F2E"/>
</svg>
