<svg width="20" height="20" viewBox="0 0 20 20" fill="none" xmlns="http://www.w3.org/2000/svg">
<path d="M18.7883 1.21177C18.7012 1.12437 18.5977 1.05503 18.4837 1.00771C18.3698 0.960392 18.2476 0.936035 18.1242 0.936035C18.0008 0.936035 17.8786 0.960392 17.7647 1.00771C17.6507 1.05503 17.5472 1.12437 17.4601 1.21177L13.5891 5.08521L13.3906 4.88599C12.8627 4.35954 12.1475 4.06391 11.4019 4.06391C10.6564 4.06391 9.94122 4.35954 9.41327 4.88599L7.81249 6.48443L7.53827 6.20943C7.45107 6.12222 7.34754 6.05305 7.2336 6.00585C7.11966 5.95866 6.99754 5.93437 6.87421 5.93437C6.62514 5.93437 6.38627 6.03331 6.21015 6.20943C6.12294 6.29664 6.05377 6.40016 6.00657 6.5141C5.95937 6.62805 5.93508 6.75017 5.93508 6.87349C5.93508 7.12257 6.03403 7.36144 6.21015 7.53756L6.48437 7.81256L4.88593 9.41334C4.35852 9.94078 4.06223 10.6561 4.06223 11.402C4.06223 12.1479 4.35852 12.8632 4.88593 13.3907L5.08515 13.5891L1.21171 17.4618C1.03559 17.6379 0.936646 17.8768 0.936646 18.1258C0.936646 18.3749 1.03559 18.6138 1.21171 18.7899C1.38783 18.966 1.6267 19.065 1.87577 19.065C2.12484 19.065 2.36371 18.966 2.53983 18.7899L6.41249 14.9165L6.61093 15.1157C7.13898 15.6419 7.85409 15.9374 8.5996 15.9374C9.34511 15.9374 10.0602 15.6419 10.5883 15.1157L12.1875 13.5157L12.4617 13.7907C12.6378 13.9668 12.8767 14.0657 13.1258 14.0657C13.3748 14.0657 13.6137 13.9668 13.7898 13.7907C13.966 13.6146 14.0649 13.3757 14.0649 13.1266C14.0649 12.8775 13.966 12.6387 13.7898 12.4626L13.5156 12.1876L15.1164 10.5868C15.6438 10.0593 15.9401 9.34399 15.9401 8.5981C15.9401 7.85221 15.6438 7.13687 15.1164 6.60943L14.9172 6.41099L18.7906 2.53834C18.8776 2.45111 18.9466 2.3476 18.9936 2.2337C19.0406 2.11981 19.0646 1.99777 19.0644 1.87457C19.0642 1.75137 19.0397 1.62942 18.9923 1.51569C18.9449 1.40196 18.8756 1.29869 18.7883 1.21177ZM9.26093 13.7899C9.17383 13.8773 9.07034 13.9466 8.95638 13.994C8.84243 14.0413 8.72025 14.0656 8.59687 14.0656C8.47348 14.0656 8.3513 14.0413 8.23735 13.994C8.12339 13.9466 8.0199 13.8773 7.9328 13.7899L6.21171 12.0649C6.12431 11.9778 6.05496 11.8743 6.00764 11.7604C5.96033 11.6464 5.93597 11.5242 5.93597 11.4008C5.93597 11.2774 5.96033 11.1553 6.00764 11.0413C6.05496 10.9274 6.12431 10.8239 6.21171 10.7368L7.81249 9.14068L10.8594 12.1876L9.26093 13.7899ZM13.7922 9.26256L12.1875 10.8594L9.14062 7.81256L10.7414 6.21177C10.8285 6.12437 10.932 6.05503 11.0459 6.00771C11.1599 5.96039 11.2821 5.93604 11.4055 5.93604C11.5288 5.93604 11.651 5.96039 11.765 6.00771C11.8789 6.05503 11.9824 6.12437 12.0695 6.21177L13.793 7.93521C13.8804 8.02231 13.9497 8.1258 13.997 8.23976C14.0443 8.35371 14.0687 8.47589 14.0687 8.59927C14.0687 8.72266 14.0443 8.84484 13.997 8.95879C13.9497 9.07275 13.8804 9.17624 13.793 9.26334L13.7922 9.26256ZM1.61093 7.20396C1.64986 7.08715 1.71141 6.97915 1.79208 6.88614C1.87275 6.79312 1.97095 6.7169 2.08108 6.66184C2.1912 6.60677 2.3111 6.57394 2.43391 6.56522C2.55673 6.5565 2.68006 6.57205 2.79687 6.61099L3.73437 6.92349C3.85404 6.96004 3.96518 7.02017 4.06124 7.10034C4.15731 7.18051 4.23636 7.27911 4.29372 7.39031C4.35109 7.50151 4.38561 7.62307 4.39526 7.74782C4.40491 7.87258 4.38949 7.998 4.3499 8.1167C4.31032 8.2354 4.24737 8.34497 4.16478 8.43896C4.08218 8.53295 3.98161 8.60946 3.86898 8.66397C3.75635 8.71848 3.63395 8.7499 3.509 8.75636C3.38404 8.76283 3.25905 8.74422 3.1414 8.70162L2.2039 8.38912C1.96817 8.31049 1.7733 8.1415 1.66212 7.91927C1.55093 7.69704 1.53252 7.43976 1.61093 7.20396ZM6.61093 2.79693C6.56833 2.67928 6.54972 2.55429 6.55618 2.42933C6.56265 2.30437 6.59406 2.18197 6.64857 2.06935C6.70309 1.95672 6.77959 1.85614 6.87358 1.77355C6.96758 1.69095 7.07715 1.62801 7.19585 1.58842C7.31455 1.54884 7.43997 1.53342 7.56472 1.54307C7.68948 1.55272 7.81104 1.58724 7.92224 1.64461C8.03344 1.70197 8.13203 1.78102 8.2122 1.87708C8.29238 1.97315 8.35251 2.08429 8.38905 2.20396L8.70155 3.14146C8.77296 3.3753 8.7502 3.62779 8.6381 3.84508C8.52601 4.06238 8.33346 4.22728 8.10151 4.30463C7.86957 4.38198 7.61658 4.36565 7.3965 4.25913C7.17642 4.15261 7.00666 3.96433 6.92343 3.73443L6.61093 2.79693ZM18.3891 12.7969C18.3103 13.0327 18.1411 13.2275 17.9187 13.3386C17.6963 13.4496 17.4389 13.4678 17.2031 13.3891L16.2656 13.0766C16.0357 12.9934 15.8474 12.8236 15.7409 12.6035C15.6344 12.3835 15.6181 12.1305 15.6954 11.8985C15.7728 11.6666 15.9377 11.474 16.155 11.3619C16.3723 11.2499 16.6247 11.2271 16.8586 11.2985L17.7961 11.611C17.9129 11.6499 18.0209 11.7115 18.1139 11.7921C18.2069 11.8728 18.2831 11.971 18.3382 12.0811C18.3933 12.1913 18.4261 12.3112 18.4348 12.434C18.4436 12.5568 18.428 12.6801 18.3891 12.7969ZM13.3891 17.204C13.4323 17.3218 13.4514 17.4471 13.4453 17.5724C13.4392 17.6978 13.4081 17.8206 13.3536 17.9337C13.2991 18.0468 13.2225 18.1478 13.1283 18.2307C13.0341 18.3136 12.9242 18.3767 12.8052 18.4164C12.6861 18.4561 12.5603 18.4714 12.4352 18.4615C12.3101 18.4517 12.1882 18.4168 12.0768 18.3589C11.9655 18.3011 11.8668 18.2215 11.7868 18.1248C11.7068 18.0281 11.647 17.9164 11.6109 17.7961L11.2984 16.8586C11.2552 16.7408 11.2361 16.6155 11.2421 16.4902C11.2482 16.3648 11.2794 16.242 11.3339 16.1289C11.3883 16.0158 11.4649 15.9149 11.5591 15.8319C11.6533 15.749 11.7632 15.6859 11.8823 15.6462C12.0014 15.6066 12.1272 15.5912 12.2523 15.6011C12.3774 15.611 12.4993 15.6459 12.6106 15.7037C12.722 15.7615 12.8206 15.8412 12.9007 15.9378C12.9807 16.0345 13.0405 16.1462 13.0766 16.2665L13.3891 17.204Z" fill="#191F2E"/>
</svg>
