<svg width="20" height="20" viewBox="0 0 20 20" fill="none" xmlns="http://www.w3.org/2000/svg">
<path d="M18.7883 4.96168C18.7012 4.87428 18.5977 4.80494 18.4837 4.75762C18.3698 4.7103 18.2476 4.68595 18.1242 4.68595C18.0008 4.68595 17.8786 4.7103 17.7647 4.75762C17.6507 4.80494 17.5472 4.87428 17.4601 4.96168L15 7.42184L12.5781 4.99997L15.0406 2.53825C15.2167 2.36213 15.3157 2.12326 15.3157 1.87418C15.3157 1.62511 15.2167 1.38624 15.0406 1.21012C14.8645 1.034 14.6256 0.935059 14.3766 0.935059C14.1275 0.935059 13.8886 1.034 13.7125 1.21012L11.25 3.67184L9.41327 1.83668C9.32607 1.74948 9.22254 1.6803 9.1086 1.63311C8.99466 1.58591 8.87254 1.56162 8.74921 1.56162C8.50014 1.56162 8.26127 1.66056 8.08515 1.83668C7.90903 2.01281 7.81008 2.25168 7.81008 2.50075C7.81008 2.74982 7.90903 2.98869 8.08515 3.16481L8.35937 3.43747L4.44452 7.35465C4.12527 7.67386 3.87202 8.05283 3.69923 8.46992C3.52645 8.88701 3.43752 9.33405 3.43752 9.78551C3.43752 10.237 3.52645 10.684 3.69923 11.1011C3.87202 11.5182 4.12527 11.8972 4.44452 12.2164L5.45077 13.2226L1.83671 16.8367C1.7495 16.9239 1.68033 17.0274 1.63313 17.1414C1.58594 17.2553 1.56165 17.3774 1.56165 17.5007C1.56165 17.6241 1.58594 17.7462 1.63313 17.8601C1.68033 17.9741 1.7495 18.0776 1.83671 18.1648C2.01283 18.3409 2.2517 18.4399 2.50077 18.4399C2.6241 18.4399 2.74622 18.4156 2.86016 18.3684C2.9741 18.3212 3.07763 18.252 3.16483 18.1648L6.7789 14.5507L7.78515 15.557C8.10435 15.8763 8.48332 16.1295 8.90041 16.3023C9.3175 16.4751 9.76454 16.564 10.216 16.564C10.6675 16.564 11.1145 16.4751 11.5316 16.3023C11.9487 16.1295 12.3277 15.8763 12.6469 15.557L16.5625 11.6406L16.8367 11.9156C16.9239 12.0028 17.0274 12.072 17.1414 12.1192C17.2553 12.1664 17.3774 12.1907 17.5008 12.1907C17.6241 12.1907 17.7462 12.1664 17.8602 12.1192C17.9741 12.072 18.0776 12.0028 18.1648 11.9156C18.252 11.8284 18.3212 11.7249 18.3684 11.6109C18.4156 11.497 18.4399 11.3749 18.4399 11.2515C18.4399 11.1282 18.4156 11.0061 18.3684 10.8921C18.3212 10.7782 18.252 10.6747 18.1648 10.5875L16.3281 8.74997L18.7906 6.28825C18.8776 6.20102 18.9466 6.09751 18.9936 5.98361C19.0406 5.86972 19.0646 5.74768 19.0644 5.62448C19.0642 5.50128 19.0397 5.37933 18.9923 5.2656C18.9449 5.15187 18.8756 5.0486 18.7883 4.96168ZM11.3195 14.2297C11.1744 14.3748 11.0021 14.49 10.8125 14.5685C10.6229 14.6471 10.4197 14.6875 10.2144 14.6875C10.0092 14.6875 9.80597 14.6471 9.61635 14.5685C9.42674 14.49 9.25446 14.3748 9.10936 14.2297L5.7703 10.8906C5.62514 10.7455 5.50999 10.5732 5.43143 10.3836C5.35287 10.194 5.31243 9.99076 5.31243 9.78551C5.31243 9.58027 5.35287 9.37704 5.43143 9.18742C5.50999 8.99781 5.62514 8.82553 5.7703 8.68043L9.68749 4.76559L15.2344 10.3125L11.3195 14.2297Z" fill="#191F2E"/>
</svg>
