<svg width="20" height="20" viewBox="0 0 20 20" fill="none" xmlns="http://www.w3.org/2000/svg">
<path d="M17.5 3.75H14.0625V1.25C14.0625 1.00136 13.9637 0.762903 13.7879 0.587087C13.6121 0.411272 13.3736 0.3125 13.125 0.3125C12.8764 0.3125 12.6379 0.411272 12.4621 0.587087C12.2863 0.762903 12.1875 1.00136 12.1875 1.25V3.75H7.8125V1.25C7.8125 1.00136 7.71373 0.762903 7.53791 0.587087C7.3621 0.411272 7.12364 0.3125 6.875 0.3125C6.62636 0.3125 6.3879 0.411272 6.21209 0.587087C6.03627 0.762903 5.9375 1.00136 5.9375 1.25V3.75H2.54297C1.90625 3.75 1.5625 4.23281 1.5625 4.6875C1.5625 4.93614 1.66127 5.1746 1.83709 5.35041C2.0129 5.52623 2.25136 5.625 2.5 5.625H3.4375V12.8125C3.43853 13.7239 3.80103 14.5976 4.44546 15.242C5.08989 15.8865 5.96364 16.249 6.875 16.25H9.0625V18.75C9.0625 18.9986 9.16127 19.2371 9.33709 19.4129C9.5129 19.5887 9.75136 19.6875 10 19.6875C10.2486 19.6875 10.4871 19.5887 10.6629 19.4129C10.8387 19.2371 10.9375 18.9986 10.9375 18.75V16.25H13.125C14.0364 16.249 14.9101 15.8865 15.5545 15.242C16.199 14.5976 16.5615 13.7239 16.5625 12.8125V5.625H17.5C17.7486 5.625 17.9871 5.52623 18.1629 5.35041C18.3387 5.1746 18.4375 4.93614 18.4375 4.6875C18.4375 4.43886 18.3387 4.2004 18.1629 4.02459C17.9871 3.84877 17.7486 3.75 17.5 3.75ZM14.6875 12.8125C14.6875 13.2269 14.5229 13.6243 14.2299 13.9174C13.9368 14.2104 13.5394 14.375 13.125 14.375H6.875C6.4606 14.375 6.06317 14.2104 5.77015 13.9174C5.47712 13.6243 5.3125 13.2269 5.3125 12.8125V5.625H14.6875V12.8125ZM7.97969 10.5336C7.89394 10.4096 7.83936 10.2667 7.82059 10.1171C7.80182 9.9675 7.81942 9.81557 7.87188 9.67422L8.80938 7.17422C8.85257 7.0589 8.91805 6.95322 9.00209 6.86321C9.08612 6.7732 9.18706 6.70062 9.29914 6.64963C9.41123 6.59863 9.53226 6.5702 9.65533 6.56598C9.77839 6.56175 9.90109 6.58181 10.0164 6.625C10.1317 6.66819 10.2374 6.73368 10.3274 6.81771C10.4174 6.90174 10.49 7.00269 10.541 7.11477C10.592 7.22685 10.6204 7.34788 10.6246 7.47095C10.6289 7.59402 10.6088 7.71671 10.5656 7.83203L10.1031 9.0625H11.25C11.4015 9.06247 11.5507 9.09914 11.6849 9.16937C11.8191 9.23961 11.9343 9.34132 12.0206 9.4658C12.1069 9.59028 12.1618 9.73382 12.1805 9.88413C12.1992 10.0344 12.1813 10.1871 12.1281 10.3289L11.1906 12.8289C11.1034 13.0618 10.9272 13.2505 10.7009 13.3535C10.5888 13.4045 10.4677 13.4329 10.3447 13.4371C10.2216 13.4414 10.0989 13.4213 9.98359 13.3781C9.86828 13.3349 9.7626 13.2695 9.67259 13.1854C9.58258 13.1014 9.51 13.0004 9.459 12.8884C9.356 12.662 9.34714 12.404 9.43438 12.1711L9.89688 10.9375H8.75C8.59852 10.9374 8.44932 10.9006 8.31517 10.8303C8.18101 10.7599 8.0659 10.6581 7.97969 10.5336Z" fill="#191F2E"/>
</svg>
