<svg width="20" height="20" viewBox="0 0 20 20" fill="none" xmlns="http://www.w3.org/2000/svg">
<path d="M16.25 2.5H3.75C3.41848 2.5 3.10054 2.6317 2.86612 2.86612C2.6317 3.10054 2.5 3.41848 2.5 3.75V16.25C2.5 16.5815 2.6317 16.8995 2.86612 17.1339C3.10054 17.3683 3.41848 17.5 3.75 17.5H16.25C16.5815 17.5 16.8995 17.3683 17.1339 17.1339C17.3683 16.8995 17.5 16.5815 17.5 16.25V3.75C17.5 3.41848 17.3683 3.10054 17.1339 2.86612C16.8995 2.6317 16.5815 2.5 16.25 2.5ZM4.375 7.5C4.375 7.33424 4.44085 7.17527 4.55806 7.05806C4.67527 6.94085 4.83424 6.875 5 6.875H6.25V5.625C6.25 5.45924 6.31585 5.30027 6.43306 5.18306C6.55027 5.06585 6.70924 5 6.875 5C7.04076 5 7.19973 5.06585 7.31694 5.18306C7.43415 5.30027 7.5 5.45924 7.5 5.625V6.875H8.75C8.91576 6.875 9.07473 6.94085 9.19194 7.05806C9.30915 7.17527 9.375 7.33424 9.375 7.5C9.375 7.66576 9.30915 7.82473 9.19194 7.94194C9.07473 8.05915 8.91576 8.125 8.75 8.125H7.5V9.375C7.5 9.54076 7.43415 9.69973 7.31694 9.81694C7.19973 9.93415 7.04076 10 6.875 10C6.70924 10 6.55027 9.93415 6.43306 9.81694C6.31585 9.69973 6.25 9.54076 6.25 9.375V8.125H5C4.83424 8.125 4.67527 8.05915 4.55806 7.94194C4.44085 7.82473 4.375 7.66576 4.375 7.5ZM6.25 15C6.12632 15.0001 6.00538 14.9635 5.90251 14.8948C5.79964 14.8262 5.71946 14.7285 5.67211 14.6142C5.62477 14.5 5.61239 14.3742 5.63654 14.2529C5.6607 14.1316 5.72031 14.0202 5.80781 13.9328L13.3078 6.43281C13.3659 6.37474 13.4348 6.32868 13.5107 6.29725C13.5866 6.26583 13.6679 6.24965 13.75 6.24965C13.8321 6.24965 13.9134 6.26583 13.9893 6.29725C14.0652 6.32868 14.1341 6.37474 14.1922 6.43281C14.2503 6.49088 14.2963 6.55982 14.3277 6.63569C14.3592 6.71156 14.3753 6.79288 14.3753 6.875C14.3753 6.95712 14.3592 7.03844 14.3277 7.11431C14.2963 7.19018 14.2503 7.25912 14.1922 7.31719L6.69219 14.8172C6.6341 14.8752 6.56515 14.9212 6.48928 14.9526C6.41341 14.984 6.3321 15.0001 6.25 15ZM15 14.375H11.25C11.0842 14.375 10.9253 14.3092 10.8081 14.1919C10.6908 14.0747 10.625 13.9158 10.625 13.75C10.625 13.5842 10.6908 13.4253 10.8081 13.3081C10.9253 13.1908 11.0842 13.125 11.25 13.125H15C15.1658 13.125 15.3247 13.1908 15.4419 13.3081C15.5592 13.4253 15.625 13.5842 15.625 13.75C15.625 13.9158 15.5592 14.0747 15.4419 14.1919C15.3247 14.3092 15.1658 14.375 15 14.375Z" fill="#191F2E"/>
</svg>
