<svg width="20" height="20" viewBox="0 0 20 20" fill="none" xmlns="http://www.w3.org/2000/svg">
<path d="M10 1.875C8.39303 1.875 6.82214 2.35152 5.486 3.24431C4.14985 4.1371 3.10844 5.40605 2.49348 6.8907C1.87852 8.37535 1.71762 10.009 2.03112 11.5851C2.34463 13.1612 3.11846 14.6089 4.25476 15.7452C5.39106 16.8815 6.8388 17.6554 8.4149 17.9689C9.99099 18.2824 11.6247 18.1215 13.1093 17.5065C14.594 16.8916 15.8629 15.8502 16.7557 14.514C17.6485 13.1779 18.125 11.607 18.125 10C18.1227 7.84581 17.266 5.78051 15.7427 4.25727C14.2195 2.73403 12.1542 1.87727 10 1.875ZM10 13.75C9.25832 13.75 8.5333 13.5301 7.91662 13.118C7.29993 12.706 6.81928 12.1203 6.53546 11.4351C6.25163 10.7498 6.17736 9.99584 6.32206 9.26841C6.46675 8.54098 6.82391 7.8728 7.34835 7.34835C7.8728 6.8239 8.54099 6.46675 9.26841 6.32206C9.99584 6.17736 10.7498 6.25162 11.4351 6.53545C12.1203 6.81928 12.706 7.29993 13.118 7.91661C13.5301 8.5333 13.75 9.25832 13.75 10C13.749 10.9942 13.3535 11.9475 12.6505 12.6505C11.9475 13.3535 10.9942 13.749 10 13.75ZM13.0633 6.05234C12.3569 5.50022 11.5144 5.1493 10.625 5.03672V3.15391C12.012 3.27885 13.3278 3.82394 14.3969 4.71641L13.0633 6.05234ZM9.375 5.04062C8.48556 5.15321 7.64309 5.50413 6.93672 6.05625L5.60313 4.71875C6.67216 3.82629 7.98802 3.28119 9.375 3.15625V5.04062ZM6.05235 6.93672C5.50022 7.64308 5.14931 8.48555 5.03672 9.375H3.15391C3.27885 7.98802 3.82395 6.67216 4.71641 5.60313L6.05235 6.93672ZM5.04063 10.625C5.15321 11.5144 5.50413 12.3569 6.05625 13.0633L4.71875 14.3969C3.82629 13.3278 3.2812 12.012 3.15625 10.625H5.04063ZM6.93672 13.9477C7.64351 14.4984 8.48595 14.8479 9.375 14.9594V16.8461C7.98802 16.7212 6.67216 16.1761 5.60313 15.2836L6.93672 13.9477ZM10.625 14.9594C11.5141 14.8479 12.3565 14.4984 13.0633 13.9477L14.3969 15.2812C13.3278 16.1737 12.012 16.7188 10.625 16.8438V14.9594ZM13.9477 13.0633C14.4984 12.3565 14.8479 11.5141 14.9594 10.625H16.8461C16.7212 12.012 16.1761 13.3278 15.2836 14.3969L13.9477 13.0633ZM14.9594 9.375C14.8479 8.48594 14.4984 7.6435 13.9477 6.93672L15.2813 5.60313C16.1737 6.67216 16.7188 7.98802 16.8438 9.375H14.9594Z" fill="#191F2E"/>
</svg>
