<svg width="20" height="20" viewBox="0 0 20 20" fill="none" xmlns="http://www.w3.org/2000/svg">
<path d="M10 1.5625C8.33122 1.5625 6.69992 2.05735 5.31238 2.98448C3.92484 3.9116 2.84338 5.22936 2.20477 6.77111C1.56616 8.31286 1.39907 10.0094 1.72463 11.6461C2.05019 13.2828 2.85379 14.7862 4.03379 15.9662C5.2138 17.1462 6.71721 17.9498 8.35393 18.2754C9.99064 18.6009 11.6871 18.4338 13.2289 17.7952C14.7706 17.1566 16.0884 16.0752 17.0155 14.6876C17.9427 13.3001 18.4375 11.6688 18.4375 10C18.435 7.763 17.5453 5.61833 15.9635 4.03653C14.3817 2.45473 12.237 1.56498 10 1.5625ZM10 12.8125C9.44374 12.8125 8.89998 12.6475 8.43746 12.3385C7.97495 12.0295 7.61446 11.5902 7.40159 11.0763C7.18872 10.5624 7.13302 9.99688 7.24154 9.45131C7.35007 8.90574 7.61793 8.4046 8.01127 8.01126C8.4046 7.61793 8.90574 7.35006 9.45131 7.24154C9.99688 7.13302 10.5624 7.18872 11.0763 7.40159C11.5902 7.61446 12.0295 7.97495 12.3385 8.43746C12.6476 8.89997 12.8125 9.44374 12.8125 10C12.8125 10.7459 12.5162 11.4613 11.9887 11.9887C11.4613 12.5162 10.7459 12.8125 10 12.8125ZM12.5828 6.09375C12.0838 5.76085 11.5251 5.52765 10.9375 5.40703V3.50547C12.0227 3.66129 13.0513 4.08795 13.9281 4.74609L12.5828 6.09375ZM9.0625 5.40703C8.4749 5.52765 7.91619 5.76085 7.41719 6.09375L6.07188 4.74609C6.94874 4.08795 7.97726 3.66129 9.0625 3.50547V5.40703ZM6.09375 7.41719C5.76085 7.91619 5.52766 8.4749 5.40704 9.0625H3.50547C3.66142 7.97729 4.08807 6.94881 4.7461 6.07188L6.09375 7.41719ZM5.40704 10.9375C5.52766 11.5251 5.76085 12.0838 6.09375 12.5828L4.7461 13.9281C4.08807 13.0512 3.66142 12.0227 3.50547 10.9375H5.40704ZM7.41719 13.9062C7.91619 14.2392 8.4749 14.4723 9.0625 14.593V16.4945C7.97726 16.3387 6.94874 15.912 6.07188 15.2539L7.41719 13.9062ZM10.9375 14.593C11.5251 14.4723 12.0838 14.2392 12.5828 13.9062L13.9281 15.2516C13.0515 15.9105 12.023 16.338 10.9375 16.4945V14.593ZM13.9063 12.5828C14.2392 12.0838 14.4724 11.5251 14.593 10.9375H16.4945C16.3386 12.0227 15.9119 13.0512 15.2539 13.9281L13.9063 12.5828ZM14.593 9.0625C14.4724 8.4749 14.2392 7.91619 13.9063 7.41719L15.2516 6.07188C15.9104 6.94857 16.3379 7.97707 16.4945 9.0625H14.593Z" fill="#191F2E"/>
</svg>
