<svg width="20" height="20" viewBox="0 0 20 20" fill="none" xmlns="http://www.w3.org/2000/svg">
<path d="M18.75 8.75H17.8625L15.7227 5.00469C15.6133 4.8134 15.4554 4.65442 15.2648 4.54384C15.0742 4.43326 14.8578 4.37501 14.6375 4.375H5.3625C5.14217 4.37501 4.92577 4.43326 4.7352 4.54384C4.54463 4.65442 4.38668 4.8134 4.27734 5.00469L2.1375 8.75H1.25C1.08424 8.75 0.925268 8.81585 0.808058 8.93306C0.690848 9.05027 0.625 9.20924 0.625 9.375C0.625 9.54076 0.690848 9.69973 0.808058 9.81694C0.925268 9.93415 1.08424 10 1.25 10H1.875V16.25C1.875 16.5815 2.0067 16.8995 2.24112 17.1339C2.47554 17.3683 2.79348 17.5 3.125 17.5H5C5.33152 17.5 5.64946 17.3683 5.88388 17.1339C6.1183 16.8995 6.25 16.5815 6.25 16.25V15H13.75V16.25C13.75 16.5815 13.8817 16.8995 14.1161 17.1339C14.3505 17.3683 14.6685 17.5 15 17.5H16.875C17.2065 17.5 17.5245 17.3683 17.7589 17.1339C17.9933 16.8995 18.125 16.5815 18.125 16.25V10H18.75C18.9158 10 19.0747 9.93415 19.1919 9.81694C19.3092 9.69973 19.375 9.54076 19.375 9.375C19.375 9.20924 19.3092 9.05027 19.1919 8.93306C19.0747 8.81585 18.9158 8.75 18.75 8.75ZM5.3625 5.625H14.6375L16.4227 8.75H3.57734L5.3625 5.625ZM5 16.25H3.125V15H5V16.25ZM15 16.25V15H16.875V16.25H15ZM16.875 13.75H3.125V10H16.875V13.75ZM4.375 11.875C4.375 11.7092 4.44085 11.5503 4.55806 11.4331C4.67527 11.3158 4.83424 11.25 5 11.25H6.25C6.41576 11.25 6.57473 11.3158 6.69194 11.4331C6.80915 11.5503 6.875 11.7092 6.875 11.875C6.875 12.0408 6.80915 12.1997 6.69194 12.3169C6.57473 12.4342 6.41576 12.5 6.25 12.5H5C4.83424 12.5 4.67527 12.4342 4.55806 12.3169C4.44085 12.1997 4.375 12.0408 4.375 11.875ZM13.125 11.875C13.125 11.7092 13.1908 11.5503 13.3081 11.4331C13.4253 11.3158 13.5842 11.25 13.75 11.25H15C15.1658 11.25 15.3247 11.3158 15.4419 11.4331C15.5592 11.5503 15.625 11.7092 15.625 11.875C15.625 12.0408 15.5592 12.1997 15.4419 12.3169C15.3247 12.4342 15.1658 12.5 15 12.5H13.75C13.5842 12.5 13.4253 12.4342 13.3081 12.3169C13.1908 12.1997 13.125 12.0408 13.125 11.875ZM7.5 2.5C7.5 2.33424 7.56585 2.17527 7.68306 2.05806C7.80027 1.94085 7.95924 1.875 8.125 1.875H11.875C12.0408 1.875 12.1997 1.94085 12.3169 2.05806C12.4342 2.17527 12.5 2.33424 12.5 2.5C12.5 2.66576 12.4342 2.82473 12.3169 2.94194C12.1997 3.05915 12.0408 3.125 11.875 3.125H8.125C7.95924 3.125 7.80027 3.05915 7.68306 2.94194C7.56585 2.82473 7.5 2.66576 7.5 2.5Z" fill="#191F2E"/>
</svg>
