<svg width="20" height="20" viewBox="0 0 20 20" fill="none" xmlns="http://www.w3.org/2000/svg">
<path d="M18.0188 3.85624C17.7866 3.62403 17.511 3.43983 17.2077 3.31416C16.9043 3.18848 16.5792 3.1238 16.2508 3.1238C15.9225 3.1238 15.5973 3.18848 15.294 3.31416C14.9906 3.43983 14.715 3.62403 14.4828 3.85624C14.3255 4.0135 14.1899 4.19112 14.0797 4.38436L11.875 3.7828C11.8818 3.28542 11.7401 2.79732 11.468 2.38093C11.1959 1.96454 10.8057 1.63879 10.3475 1.44535C9.88921 1.25191 9.38366 1.19958 8.89548 1.29504C8.40731 1.3905 7.95871 1.62942 7.60706 1.98124C7.2316 2.35759 6.98562 2.84364 6.90472 3.36907C6.82382 3.89449 6.9122 4.43203 7.15706 4.90389L4.5055 7.29061C4.02442 6.97264 3.44833 6.83048 2.87456 6.88812C2.30078 6.94577 1.76449 7.1997 1.35628 7.60702C0.899852 8.05999 0.635517 8.67142 0.618216 9.31423C0.600914 9.95705 0.831975 10.5818 1.26338 11.0587C1.69478 11.5355 2.29335 11.8278 2.93468 11.8748C3.57601 11.9218 4.21078 11.7198 4.70706 11.3109L10.1758 15.3234C10.0008 15.7617 9.9534 16.2405 10.0391 16.7046C10.1248 17.1687 10.3401 17.599 10.6601 17.9459C10.9801 18.2927 11.3918 18.5419 11.8475 18.6646C12.3032 18.7873 12.7843 18.7785 13.2352 18.6393C13.6861 18.5 14.0884 18.236 14.3955 17.8777C14.7027 17.5194 14.9022 17.0815 14.9709 16.6147C15.0396 16.1478 14.9748 15.671 14.7839 15.2394C14.593 14.8078 14.2839 14.439 13.8922 14.1758L16.0321 8.11405C16.1039 8.1203 16.1758 8.12342 16.2477 8.12342C16.742 8.12335 17.2253 7.97671 17.6363 7.70205C18.0473 7.42739 18.3677 7.03704 18.5569 6.58034C18.7461 6.12363 18.7957 5.62108 18.6994 5.13621C18.603 4.65134 18.3651 4.20591 18.0157 3.85624H18.0188ZM12.7164 13.7617C12.0683 13.7053 11.4237 13.9037 10.9196 14.3148L5.45081 10.3023C5.58334 9.968 5.64258 9.60913 5.62452 9.24995C5.60646 8.89077 5.51152 8.53964 5.34613 8.2203L7.99847 5.83358C8.28381 6.0227 8.60496 6.15121 8.942 6.21113C9.27904 6.27105 9.6248 6.26112 9.95785 6.18194C10.2909 6.10276 10.6041 5.95603 10.8781 5.75083C11.1522 5.54564 11.3811 5.28635 11.5508 4.98905L13.75 5.59061C13.7441 6.0062 13.8418 6.41671 14.0344 6.78502C14.227 7.15332 14.5084 7.4678 14.8532 7.69999L12.7164 13.7617Z" fill="#191F2E"/>
</svg>
