<svg width="20" height="20" viewBox="0 0 20 20" fill="none" xmlns="http://www.w3.org/2000/svg">
<path d="M18.1469 5.57189C17.9975 5.42934 17.8053 5.34009 17.6 5.31798C17.2974 4.45993 16.6932 3.74116 15.8999 3.29558C15.1067 2.85001 14.1785 2.70803 13.2883 2.89611C12.9654 2.30541 12.4896 1.8125 11.9106 1.46911C11.3316 1.12572 10.6708 0.944519 9.99765 0.944519C9.32449 0.944519 8.66374 1.12572 8.08474 1.46911C7.50575 1.8125 7.02986 2.30541 6.70703 2.89611C5.81684 2.70803 4.88864 2.85001 4.09537 3.29558C3.30211 3.74116 2.69789 4.45993 2.39531 5.31798C2.26357 5.33278 2.13646 5.37535 2.02238 5.44288C1.9083 5.51042 1.80984 5.60138 1.7335 5.70976C1.65716 5.81815 1.60467 5.94149 1.5795 6.07165C1.55434 6.20181 1.55706 6.33583 1.5875 6.46486L3.97421 16.6078C4.05384 16.9512 4.24769 17.2574 4.52403 17.4763C4.80036 17.6951 5.14281 17.8137 5.49531 17.8125H14.5047C14.8572 17.8137 15.1996 17.6951 15.476 17.4763C15.7523 17.2574 15.9461 16.9512 16.0258 16.6078L18.4125 6.46486C18.4499 6.30577 18.445 6.13968 18.3985 5.98304C18.3519 5.82641 18.2651 5.68467 18.1469 5.57189ZM5.9375 4.68751C6.24347 4.6865 6.54492 4.76139 6.81484 4.90548C6.94243 4.97333 7.08398 5.01076 7.22843 5.01486C7.37288 5.01895 7.51632 4.9896 7.64755 4.92909C7.77878 4.86858 7.89425 4.77855 7.98493 4.66604C8.07561 4.55352 8.13906 4.42157 8.17031 4.28048C8.26342 3.86469 8.49536 3.49301 8.82795 3.22667C9.16053 2.96032 9.57391 2.8152 10 2.8152C10.4261 2.8152 10.8395 2.96032 11.172 3.22667C11.5046 3.49301 11.7366 3.86469 11.8297 4.28048C11.8609 4.42157 11.9244 4.55352 12.0151 4.66604C12.1057 4.77855 12.2212 4.86858 12.3524 4.92909C12.4837 4.9896 12.6271 5.01895 12.7716 5.01486C12.916 5.01076 13.0576 4.97333 13.1852 4.90548C13.4551 4.76139 13.7565 4.6865 14.0625 4.68751C14.4199 4.68718 14.77 4.789 15.0714 4.98098C15.3729 5.17296 15.6132 5.4471 15.7641 5.77111L13.1758 6.51017L10.5805 5.47267C10.208 5.32268 9.79197 5.32268 9.41953 5.47267L6.82421 6.51017L4.23593 5.77111C4.38679 5.4471 4.6271 5.17296 4.92857 4.98098C5.23004 4.789 5.58009 4.68718 5.9375 4.68751ZM7.90078 8.09923L10 7.25939L12.0992 8.09923L11.0539 15.9375H8.94453L7.90078 8.09923ZM3.77812 7.59064L6.02656 8.23283L7.0539 15.9375H5.74218L3.77812 7.59064ZM14.2578 15.9375H12.9461L13.9734 8.23283L16.2219 7.59064L14.2578 15.9375Z" fill="#191F2E"/>
</svg>
