<svg width="20" height="20" viewBox="0 0 20 20" fill="none" xmlns="http://www.w3.org/2000/svg">
<path d="M17.9313 5.79763C17.8579 5.72863 17.7689 5.67838 17.6719 5.65118C17.5749 5.62397 17.4728 5.62061 17.3742 5.64138C17.2529 5.20511 17.0465 4.79712 16.767 4.44085C16.4875 4.08457 16.1403 3.78703 15.7455 3.56532C15.3506 3.34362 14.9159 3.20211 14.4662 3.14893C14.0164 3.09575 13.5607 3.13195 13.125 3.25545C12.8508 2.65706 12.4105 2.14999 11.8566 1.79448C11.3026 1.43898 10.6582 1.25 10 1.25C9.34178 1.25 8.69739 1.43898 8.14343 1.79448C7.58947 2.14999 7.14922 2.65706 6.875 3.25545C6.43943 3.13179 5.98373 3.0954 5.53406 3.14837C5.08439 3.20134 4.64961 3.34262 4.2547 3.56411C3.85979 3.78559 3.51252 4.08291 3.23285 4.43899C2.95318 4.79507 2.74661 5.20289 2.625 5.63904C2.52233 5.61797 2.41601 5.62306 2.31582 5.65384C2.21563 5.68462 2.12479 5.7401 2.05166 5.81518C1.97852 5.89025 1.92544 5.98252 1.89731 6.08348C1.86917 6.18444 1.86687 6.29086 1.89063 6.39295L4.27813 16.5367C4.34275 16.8109 4.49814 17.0553 4.71908 17.2302C4.94002 17.405 5.21355 17.5001 5.49531 17.5H14.5047C14.7864 17.5001 15.06 17.405 15.2809 17.2302C15.5019 17.0553 15.6572 16.8109 15.7219 16.5367L18.1086 6.39295C18.1335 6.28687 18.1302 6.17612 18.0991 6.0717C18.068 5.96727 18.0101 5.87279 17.9313 5.79763ZM5.49531 16.25L3.35234 7.14373L6.30938 7.98826L7.41094 16.25H5.49531ZM9.53594 5.76248L6.84141 6.8406L3.82813 5.97966C3.91535 5.66411 4.07229 5.37216 4.28738 5.12534C4.50247 4.87852 4.77021 4.68313 5.07087 4.55357C5.37153 4.42401 5.69743 4.36359 6.02455 4.37676C6.35167 4.38993 6.67167 4.47635 6.96094 4.62966C7.04601 4.67479 7.14037 4.69965 7.23664 4.70229C7.3329 4.70494 7.42848 4.6853 7.5159 4.64492C7.60333 4.60453 7.68024 4.54449 7.74063 4.46948C7.80103 4.39446 7.84327 4.30651 7.86406 4.21248C7.97225 3.72687 8.24273 3.29265 8.6309 2.98144C9.01906 2.67024 9.50171 2.50065 9.99922 2.50065C10.4967 2.50065 10.9794 2.67024 11.3675 2.98144C11.7557 3.29265 12.0262 3.72687 12.1344 4.21248C12.1552 4.30651 12.1974 4.39446 12.2578 4.46948C12.3182 4.54449 12.3951 4.60453 12.4825 4.64492C12.57 4.6853 12.6655 4.70494 12.7618 4.70229C12.8581 4.69965 12.9524 4.67479 13.0375 4.62966C13.3268 4.47606 13.647 4.38939 13.9743 4.37607C14.3016 4.36275 14.6277 4.42311 14.9286 4.55269C15.2294 4.68227 15.4973 4.87777 15.7125 5.12475C15.9277 5.37174 16.0847 5.6639 16.1719 5.97966L13.1594 6.83904L10.4648 5.76091C10.1665 5.6421 9.83388 5.64265 9.53594 5.76248ZM14.5047 16.25H12.5891L13.6906 7.98826L16.6477 7.14373L14.5047 16.25Z" fill="#191F2E"/>
</svg>
