<svg width="20" height="20" viewBox="0 0 20 20" fill="none" xmlns="http://www.w3.org/2000/svg">
<path d="M15.625 11.25H9.63282L11.3836 9.49922C12.0166 9.81799 12.714 9.98794 13.4227 9.99609C14.136 9.99798 14.8359 9.80278 15.4453 9.43203C17.2984 8.31016 18.2914 5.71328 18.1016 2.48516C18.0926 2.33225 18.0279 2.18795 17.9196 2.07965C17.8113 1.97135 17.667 1.90659 17.5141 1.89766C14.2859 1.70781 11.6891 2.70078 10.5664 4.55391C9.83594 5.76094 9.81719 7.21875 10.4992 8.61641L9.37501 9.74062L8.4211 8.78672C8.88985 7.75156 8.85626 6.67734 8.31251 5.78047C7.46329 4.375 5.51641 3.62578 3.10391 3.76719C2.95127 3.77628 2.80727 3.84102 2.69914 3.94914C2.59102 4.05726 2.52629 4.20127 2.51719 4.35391C2.37501 6.76562 3.12501 8.7125 4.53126 9.5625C5.00172 9.84976 5.54252 10.0012 6.09376 10C6.59384 9.99504 7.08711 9.88344 7.54063 9.67266L8.49141 10.625L7.86641 11.25H4.37501C4.20924 11.25 4.05027 11.3158 3.93306 11.4331C3.81585 11.5503 3.75001 11.7092 3.75001 11.875C3.75001 12.0408 3.81585 12.1997 3.93306 12.3169C4.05027 12.4342 4.20924 12.5 4.37501 12.5H5.12422L6.15626 17.1461C6.21648 17.4245 6.37062 17.6737 6.59281 17.852C6.815 18.0302 7.09173 18.1266 7.37657 18.125H12.6242C12.909 18.1263 13.1856 18.0298 13.4077 17.8516C13.6298 17.6734 13.784 17.4244 13.8445 17.1461L14.8766 12.5H15.625C15.7908 12.5 15.9497 12.4342 16.0669 12.3169C16.1842 12.1997 16.25 12.0408 16.25 11.875C16.25 11.7092 16.1842 11.5503 16.0669 11.4331C15.9497 11.3158 15.7908 11.25 15.625 11.25Z" fill="#191F2E"/>
</svg>
