<svg width="20" height="20" viewBox="0 0 20 20" fill="none" xmlns="http://www.w3.org/2000/svg">
<path d="M15.625 11.25H10.0781L11.7375 9.58982C12.3278 9.85336 12.9661 9.99219 13.6125 9.99763C14.3565 9.99933 15.0864 9.79548 15.7219 9.40857C17.5969 8.27029 18.6125 5.67498 18.4203 2.4656C18.4067 2.23651 18.3096 2.02036 18.1474 1.85808C17.9851 1.69581 17.7689 1.59869 17.5398 1.58513C14.3297 1.39685 11.7344 2.40467 10.5969 4.28357C9.875 5.4742 9.81562 6.89295 10.4148 8.26795L9.375 9.29685L8.50469 8.42732C8.89062 7.42029 8.81718 6.3867 8.28906 5.50857C7.42187 4.08201 5.47812 3.31248 3.08515 3.45388C2.85593 3.46726 2.63958 3.56429 2.47714 3.72659C2.31471 3.88888 2.21748 4.10514 2.2039 4.33435C2.06328 6.7281 2.8289 8.67341 4.26015 9.53826C4.75421 9.83991 5.32191 9.99941 5.90078 9.9992C6.33691 9.99641 6.76882 9.91352 7.175 9.75466L8.04687 10.625L7.42187 11.25H4.375C4.12636 11.25 3.8879 11.3487 3.71208 11.5246C3.53627 11.7004 3.4375 11.9388 3.4375 12.1875C3.4375 12.4361 3.53627 12.6746 3.71208 12.8504C3.8879 13.0262 4.12636 13.125 4.375 13.125H4.94297L5.85156 17.214C5.92724 17.5618 6.11997 17.873 6.39754 18.0956C6.67511 18.3183 7.02071 18.439 7.37656 18.4375H12.6242C12.9801 18.4391 13.3258 18.3185 13.6034 18.0958C13.881 17.8731 14.0737 17.5618 14.1492 17.214L15.0578 13.125H15.625C15.8736 13.125 16.1121 13.0262 16.2879 12.8504C16.4637 12.6746 16.5625 12.4361 16.5625 12.1875C16.5625 11.9388 16.4637 11.7004 16.2879 11.5246C16.1121 11.3487 15.8736 11.25 15.625 11.25ZM12.1953 5.25467C12.875 4.13201 14.4758 3.47654 16.5625 3.43748C16.525 5.52263 15.8695 7.12341 14.7461 7.80388C14.0094 8.24998 13.1484 8.23201 12.2461 7.75545C11.7664 6.85232 11.7492 5.99138 12.1953 5.25467ZM6.68047 7.92966C6.27187 8.12732 5.74297 8.24216 5.23203 7.93513C4.57031 7.53435 4.15312 6.56951 4.07578 5.32576C5.32031 5.40388 6.28437 5.81951 6.68515 6.48123C6.99297 6.9906 6.875 7.52107 6.68047 7.92966ZM12.3734 16.5625H7.62656L6.86328 13.125H13.1375L12.3734 16.5625Z" fill="#191F2E"/>
</svg>
