<svg width="20" height="20" viewBox="0 0 20 20" fill="none" xmlns="http://www.w3.org/2000/svg">
<path d="M9.0625 10V3.75C9.0625 3.50136 9.16127 3.2629 9.33709 3.08709C9.5129 2.91127 9.75136 2.8125 10 2.8125C10.2486 2.8125 10.4871 2.91127 10.6629 3.08709C10.8387 3.2629 10.9375 3.50136 10.9375 3.75V10C10.9375 10.2486 10.8387 10.4871 10.6629 10.6629C10.4871 10.8387 10.2486 10.9375 10 10.9375C9.75136 10.9375 9.5129 10.8387 9.33709 10.6629C9.16127 10.4871 9.0625 10.2486 9.0625 10ZM14.2617 3.59375C14.0535 3.46557 13.8035 3.42378 13.565 3.47728C13.3265 3.53079 13.1182 3.67535 12.9848 3.88017C12.8513 4.08498 12.8031 4.33383 12.8504 4.57367C12.8978 4.81351 13.037 5.02536 13.2383 5.16406C14.9539 6.27891 15.9375 8.04688 15.9375 10C15.9375 11.5747 15.3119 13.0849 14.1984 14.1984C13.0849 15.3119 11.5747 15.9375 10 15.9375C8.42528 15.9375 6.91505 15.3119 5.80155 14.1984C4.68806 13.0849 4.0625 11.5747 4.0625 10C4.0625 8.04688 5.04609 6.27891 6.76172 5.16016C6.95232 5.01731 7.0814 4.80726 7.12274 4.57268C7.16408 4.33811 7.11459 4.09659 6.9843 3.89718C6.85402 3.69778 6.65272 3.55544 6.42129 3.49909C6.18986 3.44273 5.94566 3.47657 5.73828 3.59375C3.48125 5.06094 2.1875 7.39766 2.1875 10C2.1875 12.072 3.0106 14.0591 4.47573 15.5243C5.94086 16.9894 7.928 17.8125 10 17.8125C12.072 17.8125 14.0591 16.9894 15.5243 15.5243C16.9894 14.0591 17.8125 12.072 17.8125 10C17.8125 7.39766 16.5188 5.06094 14.2617 3.59375Z" fill="#191F2E"/>
</svg>
