<svg width="20" height="20" viewBox="0 0 20 20" fill="none" xmlns="http://www.w3.org/2000/svg">
<path d="M14.7656 14.6875L16.2906 13.1633C16.4667 12.9872 16.5657 12.7483 16.5657 12.4992C16.5657 12.2502 16.4667 12.0113 16.2906 11.8352C16.1145 11.659 15.8756 11.5601 15.6266 11.5601C15.3775 11.5601 15.1386 11.659 14.9625 11.8352L13.4375 13.3594L10.8539 10.7813C11.8758 10.5006 12.761 9.85855 13.3453 8.97442C13.9295 8.0903 14.1729 7.02417 14.0304 5.97409C13.8879 4.924 13.3691 3.96134 12.5703 3.26492C11.7716 2.5685 10.7472 2.18565 9.6875 2.18751H5.625C5.37636 2.18751 5.1379 2.28628 4.96209 2.46209C4.78627 2.63791 4.6875 2.87637 4.6875 3.12501V15C4.6875 15.2486 4.78627 15.4871 4.96209 15.6629C5.1379 15.8387 5.37636 15.9375 5.625 15.9375C5.87364 15.9375 6.1121 15.8387 6.28791 15.6629C6.46373 15.4871 6.5625 15.2486 6.5625 15V10.9375H8.35938L12.1094 14.6875L10.5844 16.2117C10.4972 16.2989 10.428 16.4025 10.3808 16.5164C10.3336 16.6303 10.3093 16.7525 10.3093 16.8758C10.3093 16.9991 10.3336 17.1212 10.3808 17.2352C10.428 17.3491 10.4972 17.4526 10.5844 17.5399C10.7605 17.716 10.9994 17.8149 11.2484 17.8149C11.3718 17.8149 11.4939 17.7906 11.6078 17.7434C11.7218 17.6962 11.8253 17.6271 11.9125 17.5399L13.4375 16.0156L14.9617 17.5406C15.1378 17.7168 15.3767 17.8157 15.6258 17.8157C15.8749 17.8157 16.1137 17.7168 16.2898 17.5406C16.466 17.3645 16.5649 17.1256 16.5649 16.8766C16.5649 16.6275 16.466 16.3886 16.2898 16.2125L14.7656 14.6875ZM6.5625 4.06251H9.6875C10.3505 4.06251 10.9864 4.3259 11.4553 4.79474C11.9241 5.26358 12.1875 5.89947 12.1875 6.56251C12.1875 7.22555 11.9241 7.86143 11.4553 8.33027C10.9864 8.79911 10.3505 9.06251 9.6875 9.06251H6.5625V4.06251Z" fill="#191F2E"/>
</svg>
