<svg width="20" height="20" viewBox="0 0 20 20" fill="none" xmlns="http://www.w3.org/2000/svg">
<path d="M14.3211 14.6875L16.0672 12.9422C16.1845 12.8249 16.2503 12.6659 16.2503 12.5C16.2503 12.3341 16.1845 12.1751 16.0672 12.0578C15.9499 11.9405 15.7909 11.8747 15.625 11.8747C15.4591 11.8747 15.3001 11.9405 15.1828 12.0578L13.4375 13.8039L10.2227 10.5883C11.2427 10.4502 12.1723 9.9301 12.8236 9.13303C13.4749 8.33596 13.7994 7.32137 13.7314 6.29428C13.6635 5.26719 13.2081 4.30419 12.4575 3.59988C11.7068 2.89557 10.7168 2.50246 9.6875 2.5H5.625C5.45924 2.5 5.30027 2.56585 5.18306 2.68306C5.06585 2.80027 5 2.95924 5 3.125V15C5 15.1658 5.06585 15.3247 5.18306 15.4419C5.30027 15.5592 5.45924 15.625 5.625 15.625C5.79076 15.625 5.94973 15.5592 6.06694 15.4419C6.18415 15.3247 6.25 15.1658 6.25 15V10.625H8.49141L12.5539 14.6875L10.8078 16.4328C10.6905 16.5501 10.6247 16.7091 10.6247 16.875C10.6247 17.0409 10.6905 17.1999 10.8078 17.3172C10.9251 17.4345 11.0841 17.5003 11.25 17.5003C11.4159 17.5003 11.5749 17.4345 11.6922 17.3172L13.4375 15.5711L15.1828 17.3172C15.2409 17.3753 15.3098 17.4213 15.3857 17.4527C15.4616 17.4842 15.5429 17.5003 15.625 17.5003C15.7071 17.5003 15.7884 17.4842 15.8643 17.4527C15.9402 17.4213 16.0091 17.3753 16.0672 17.3172C16.1253 17.2591 16.1713 17.1902 16.2027 17.1143C16.2342 17.0384 16.2503 16.9571 16.2503 16.875C16.2503 16.7929 16.2342 16.7116 16.2027 16.6357C16.1713 16.5598 16.1253 16.4909 16.0672 16.4328L14.3211 14.6875ZM6.25 3.75H9.6875C10.4334 3.75 11.1488 4.04632 11.6762 4.57376C12.2037 5.10121 12.5 5.81658 12.5 6.5625C12.5 7.30842 12.2037 8.02379 11.6762 8.55124C11.1488 9.07868 10.4334 9.375 9.6875 9.375H6.25V3.75Z" fill="#191F2E"/>
</svg>
