<svg width="20" height="20" viewBox="0 0 20 20" fill="none" xmlns="http://www.w3.org/2000/svg">
<path d="M16.875 2.8125H10.9375V1.875C10.9375 1.62636 10.8387 1.3879 10.6629 1.21209C10.4871 1.03627 10.2486 0.9375 10 0.9375C9.75136 0.9375 9.5129 1.03627 9.33709 1.21209C9.16127 1.3879 9.0625 1.62636 9.0625 1.875V2.8125H3.125C2.7106 2.8125 2.31317 2.97712 2.02015 3.27015C1.72712 3.56317 1.5625 3.9606 1.5625 4.375V13.75C1.5625 14.1644 1.72712 14.5618 2.02015 14.8549C2.31317 15.1479 2.7106 15.3125 3.125 15.3125H5.54688L4.26562 16.9141C4.11022 17.1082 4.03831 17.3561 4.06571 17.6033C4.09311 17.8505 4.21757 18.0766 4.41172 18.232C4.60587 18.3874 4.85379 18.4593 5.10096 18.4319C5.34813 18.4045 5.57429 18.2801 5.72969 18.0859L7.94844 15.3125H12.0469L14.2656 18.0859C14.3426 18.1821 14.4377 18.2621 14.5456 18.3215C14.6535 18.3808 14.772 18.4184 14.8944 18.4319C15.0167 18.4455 15.1406 18.4348 15.2589 18.4005C15.3771 18.3662 15.4875 18.309 15.5836 18.232C15.6797 18.1551 15.7598 18.06 15.8191 17.9521C15.8785 17.8442 15.916 17.7257 15.9296 17.6033C15.9432 17.4809 15.9325 17.3571 15.8982 17.2388C15.8639 17.1205 15.8066 17.0102 15.7297 16.9141L14.4531 15.3125H16.875C17.2894 15.3125 17.6868 15.1479 17.9799 14.8549C18.2729 14.5618 18.4375 14.1644 18.4375 13.75V4.375C18.4375 3.9606 18.2729 3.56317 17.9799 3.27015C17.6868 2.97712 17.2894 2.8125 16.875 2.8125ZM16.5625 13.4375H3.4375V4.6875H16.5625V13.4375Z" fill="#191F2E"/>
</svg>
