<svg width="20" height="20" viewBox="0 0 20 20" fill="none" xmlns="http://www.w3.org/2000/svg">
<path d="M16.7711 5.3125H15.9375V3.125C15.9375 2.87636 15.8387 2.6379 15.6629 2.46209C15.4871 2.28627 15.2486 2.1875 15 2.1875H5C4.75136 2.1875 4.5129 2.28627 4.33709 2.46209C4.16127 2.6379 4.0625 2.87636 4.0625 3.125V5.3125H3.22891C1.96563 5.3125 0.9375 6.29375 0.9375 7.5V13.75C0.9375 13.9986 1.03627 14.2371 1.21209 14.4129C1.3879 14.5887 1.62636 14.6875 1.875 14.6875H4.0625V16.875C4.0625 17.1236 4.16127 17.3621 4.33709 17.5379C4.5129 17.7137 4.75136 17.8125 5 17.8125H15C15.2486 17.8125 15.4871 17.7137 15.6629 17.5379C15.8387 17.3621 15.9375 17.1236 15.9375 16.875V14.6875H18.125C18.3736 14.6875 18.6121 14.5887 18.7879 14.4129C18.9637 14.2371 19.0625 13.9986 19.0625 13.75V7.5C19.0625 6.29375 18.0344 5.3125 16.7711 5.3125ZM5.9375 4.0625H14.0625V5.3125H5.9375V4.0625ZM14.0625 15.9375H5.9375V13.4375H14.0625V15.9375ZM17.1875 12.8125H15.9375V12.5C15.9375 12.2514 15.8387 12.0129 15.6629 11.8371C15.4871 11.6613 15.2486 11.5625 15 11.5625H5C4.75136 11.5625 4.5129 11.6613 4.33709 11.8371C4.16127 12.0129 4.0625 12.2514 4.0625 12.5V12.8125H2.8125V7.5C2.8125 7.33047 3.00313 7.1875 3.22891 7.1875H16.7711C16.9969 7.1875 17.1875 7.33047 17.1875 7.5V12.8125ZM15.9375 9.375C15.9375 9.62223 15.8642 9.8639 15.7268 10.0695C15.5895 10.275 15.3943 10.4352 15.1659 10.5299C14.9374 10.6245 14.6861 10.6492 14.4436 10.601C14.2012 10.5528 13.9784 10.4337 13.8036 10.2589C13.6288 10.0841 13.5097 9.86134 13.4615 9.61886C13.4133 9.37639 13.438 9.12505 13.5326 8.89665C13.6273 8.66824 13.7875 8.47301 13.993 8.33566C14.1986 8.19831 14.4403 8.125 14.6875 8.125C15.019 8.125 15.337 8.2567 15.5714 8.49112C15.8058 8.72554 15.9375 9.04348 15.9375 9.375Z" fill="#191F2E"/>
</svg>
