<svg width="20" height="20" viewBox="0 0 20 20" fill="none" xmlns="http://www.w3.org/2000/svg">
<path d="M10 1.5625C8.33122 1.5625 6.69992 2.05735 5.31238 2.98448C3.92484 3.9116 2.84338 5.22936 2.20477 6.77111C1.56616 8.31286 1.39907 10.0094 1.72463 11.6461C2.05019 13.2828 2.85379 14.7862 4.03379 15.9662C5.2138 17.1462 6.71721 17.9498 8.35393 18.2754C9.99064 18.6009 11.6871 18.4338 13.2289 17.7952C14.7706 17.1566 16.0884 16.0752 17.0155 14.6876C17.9427 13.3001 18.4375 11.6688 18.4375 10C18.435 7.763 17.5453 5.61833 15.9635 4.03653C14.3817 2.45473 12.237 1.56498 10 1.5625ZM16.5625 10C16.5639 11.4166 16.1046 12.7953 15.2539 13.9281L6.07188 4.74609C7.04716 4.01735 8.20594 3.57427 9.41863 3.46641C10.6313 3.35856 11.8501 3.59017 12.9387 4.13536C14.0273 4.68054 14.9427 5.5178 15.5827 6.55351C16.2227 7.58921 16.5619 8.78252 16.5625 10ZM3.4375 10C3.43615 8.58336 3.89543 7.20468 4.7461 6.07188L13.9281 15.2539C12.9528 15.9827 11.7941 16.4257 10.5814 16.5336C9.36869 16.6414 8.14991 16.4098 7.06132 15.8646C5.97273 15.3195 5.05727 14.4822 4.41729 13.4465C3.77732 12.4108 3.43808 11.2175 3.4375 10Z" fill="#191F2E"/>
</svg>
