<svg width="20" height="20" viewBox="0 0 20 20" fill="none" xmlns="http://www.w3.org/2000/svg">
<path d="M8.125 10V10.625C8.125 10.8736 8.02623 11.1121 7.85041 11.2879C7.6746 11.4637 7.43614 11.5625 7.1875 11.5625C6.93886 11.5625 6.7004 11.4637 6.52459 11.2879C6.34877 11.1121 6.25 10.8736 6.25 10.625V10C6.25 9.75136 6.34877 9.5129 6.52459 9.33709C6.7004 9.16127 6.93886 9.0625 7.1875 9.0625C7.43614 9.0625 7.6746 9.16127 7.85041 9.33709C8.02623 9.5129 8.125 9.75136 8.125 10ZM10 8.75C9.75136 8.75 9.5129 8.84877 9.33709 9.02459C9.16127 9.2004 9.0625 9.43886 9.0625 9.6875V10.625C9.0625 10.8736 9.16127 11.1121 9.33709 11.2879C9.5129 11.4637 9.75136 11.5625 10 11.5625C10.2486 11.5625 10.4871 11.4637 10.6629 11.2879C10.8387 11.1121 10.9375 10.8736 10.9375 10.625V9.6875C10.9375 9.43886 10.8387 9.2004 10.6629 9.02459C10.4871 8.84877 10.2486 8.75 10 8.75ZM12.8125 8.4375C12.5639 8.4375 12.3254 8.53627 12.1496 8.71209C11.9738 8.8879 11.875 9.12636 11.875 9.375V10.625C11.875 10.8736 11.9738 11.1121 12.1496 11.2879C12.3254 11.4637 12.5639 11.5625 12.8125 11.5625C13.0611 11.5625 13.2996 11.4637 13.4754 11.2879C13.6512 11.1121 13.75 10.8736 13.75 10.625V9.375C13.75 9.12636 13.6512 8.8879 13.4754 8.71209C13.2996 8.53627 13.0611 8.4375 12.8125 8.4375ZM17.1875 7.15625V12.8125H17.5C17.7486 12.8125 17.9871 12.9113 18.1629 13.0871C18.3387 13.2629 18.4375 13.5014 18.4375 13.75C18.4375 13.9986 18.3387 14.2371 18.1629 14.4129C17.9871 14.5887 17.7486 14.6875 17.5 14.6875H10.9375V16.5016C11.295 16.7079 11.5743 17.0265 11.7323 17.4078C11.8902 17.7892 11.9179 18.212 11.8111 18.6106C11.7043 19.0093 11.4689 19.3616 11.1414 19.6129C10.814 19.8642 10.4128 20.0004 10 20.0004C9.58725 20.0004 9.18603 19.8642 8.85857 19.6129C8.53111 19.3616 8.29572 19.0093 8.18889 18.6106C8.08206 18.212 8.10977 17.7892 8.26773 17.4078C8.42568 17.0265 8.70505 16.7079 9.0625 16.5016V14.6875H2.5C2.25136 14.6875 2.0129 14.5887 1.83709 14.4129C1.66127 14.2371 1.5625 13.9986 1.5625 13.75C1.5625 13.5014 1.66127 13.2629 1.83709 13.0871C2.0129 12.9113 2.25136 12.8125 2.5 12.8125H2.8125V7.15625C2.45957 7.08421 2.14238 6.89244 1.91459 6.61341C1.68681 6.33437 1.56243 5.9852 1.5625 5.625V3.75C1.5625 3.3356 1.72712 2.93817 2.02015 2.64515C2.31317 2.35212 2.7106 2.1875 3.125 2.1875H16.875C17.2894 2.1875 17.6868 2.35212 17.9799 2.64515C18.2729 2.93817 18.4375 3.3356 18.4375 3.75V5.625C18.4376 5.9852 18.3132 6.33437 18.0854 6.61341C17.8576 6.89244 17.5404 7.08421 17.1875 7.15625ZM3.4375 5.3125H16.5625V4.0625H3.4375V5.3125ZM15.3125 12.8125V7.1875H4.6875V12.8125H15.3125Z" fill="#191F2E"/>
</svg>
