<svg width="20" height="20" viewBox="0 0 20 20" fill="none" xmlns="http://www.w3.org/2000/svg">
<path d="M19.0625 9.99998C19.0625 10.2486 18.9637 10.4871 18.7879 10.6629C18.6121 10.8387 18.3736 10.9375 18.125 10.9375H16.2047L13.3383 16.6695C13.2604 16.8251 13.1407 16.956 12.9927 17.0475C12.8446 17.139 12.674 17.1875 12.5 17.1875H12.4531C12.2713 17.1783 12.0961 17.1163 11.9489 17.0092C11.8017 16.9021 11.6889 16.7545 11.6242 16.5844L7.42188 5.55857L5.22812 10.3906C5.15327 10.5539 5.03306 10.6923 4.88182 10.7892C4.73057 10.8862 4.55465 10.9376 4.375 10.9375H1.875C1.62636 10.9375 1.3879 10.8387 1.21209 10.6629C1.03627 10.4871 0.9375 10.2486 0.9375 9.99998C0.9375 9.75134 1.03627 9.51288 1.21209 9.33707C1.3879 9.16125 1.62636 9.06248 1.875 9.06248H3.77109L6.64688 2.73436C6.72357 2.56615 6.84828 2.42437 7.00533 2.32685C7.16238 2.22933 7.34476 2.18042 7.52953 2.18626C7.7143 2.1921 7.89322 2.25245 8.0438 2.3597C8.19437 2.46695 8.30987 2.61633 8.37578 2.78904L12.6164 13.9187L14.7867 9.57811C14.8649 9.42291 14.9847 9.2925 15.1328 9.20145C15.2808 9.1104 15.4512 9.06228 15.625 9.06248H18.125C18.3736 9.06248 18.6121 9.16125 18.7879 9.33707C18.9637 9.51288 19.0625 9.75134 19.0625 9.99998Z" fill="#191F2E"/>
</svg>
