<svg width="20" height="20" viewBox="0 0 20 20" fill="none" xmlns="http://www.w3.org/2000/svg">
<path d="M18.75 9.99992C18.75 10.1657 18.6842 10.3247 18.5669 10.4419C18.4497 10.5591 18.2908 10.6249 18.125 10.6249H16.0109L13.0594 16.5296C13.0074 16.6334 12.9276 16.7208 12.8288 16.7817C12.73 16.8427 12.6161 16.875 12.5 16.8749H12.4688C12.3475 16.8689 12.2307 16.8278 12.1324 16.7565C12.0342 16.6851 11.9589 16.5868 11.9156 16.4734L7.44922 4.74679L4.94375 10.2585C4.89411 10.3677 4.81409 10.4604 4.71324 10.5253C4.61239 10.5903 4.49497 10.6249 4.375 10.6249H1.875C1.70924 10.6249 1.55027 10.5591 1.43306 10.4419C1.31585 10.3247 1.25 10.1657 1.25 9.99992C1.25 9.83416 1.31585 9.67519 1.43306 9.55798C1.55027 9.44077 1.70924 9.37492 1.875 9.37492H3.97266L6.93125 2.86633C6.98226 2.75401 7.06536 2.6593 7.17009 2.59412C7.27482 2.52895 7.39649 2.49622 7.51979 2.50006C7.64308 2.5039 7.76248 2.54414 7.86295 2.61572C7.96342 2.68729 8.04046 2.78699 8.08438 2.90226L12.5773 14.6991L15.0656 9.7218C15.1174 9.61767 15.1971 9.53004 15.296 9.46876C15.3948 9.40748 15.5087 9.37498 15.625 9.37492H18.125C18.2908 9.37492 18.4497 9.44077 18.5669 9.55798C18.6842 9.67519 18.75 9.83416 18.75 9.99992Z" fill="#191F2E"/>
</svg>
