<svg width="20" height="20" viewBox="0 0 20 20" fill="none" xmlns="http://www.w3.org/2000/svg">
<path d="M4.44375 2.49456C4.36142 2.40176 4.26149 2.32622 4.14975 2.27232C4.03801 2.21842 3.91669 2.18723 3.79281 2.18057C3.66893 2.1739 3.54495 2.19189 3.42808 2.23349C3.3112 2.27509 3.20374 2.33948 3.11193 2.42291C3.02012 2.50635 2.94578 2.60718 2.89322 2.71956C2.84067 2.83194 2.81094 2.95363 2.80576 3.07758C2.80058 3.20153 2.82006 3.32528 2.86305 3.44165C2.90605 3.55802 2.97172 3.6647 3.05625 3.7555L4.6875 5.54691C3.98856 5.7769 3.33846 6.1348 2.77032 6.60238C2.59935 6.73993 2.45927 6.91195 2.3592 7.10724C2.25913 7.30252 2.20132 7.5167 2.18953 7.73581C2.17774 7.95493 2.21223 8.17407 2.29076 8.37897C2.36929 8.58387 2.4901 8.76993 2.64532 8.92503L6.19688 12.4774L3.0875 15.5868C2.91138 15.7629 2.81244 16.0017 2.81244 16.2508C2.81244 16.4999 2.91138 16.7388 3.0875 16.9149C3.26362 17.091 3.50249 17.1899 3.75157 17.1899C4.00064 17.1899 4.23951 17.091 4.41563 16.9149L7.525 13.8047L11.0773 17.3563C11.37 17.6482 11.7664 17.8122 12.1797 17.8125C12.2164 17.8125 12.2531 17.8125 12.2898 17.8086C12.5128 17.7925 12.7298 17.7287 12.926 17.6216C13.1223 17.5144 13.2932 17.3664 13.4273 17.1875C13.7128 16.809 13.9624 16.4046 14.1727 15.9797L15.557 17.5024C15.6394 17.5952 15.7393 17.6707 15.851 17.7246C15.9628 17.7785 16.0841 17.8097 16.208 17.8164C16.3319 17.823 16.4558 17.805 16.5727 17.7634C16.6896 17.7218 16.797 17.6575 16.8889 17.574C16.9807 17.4906 17.055 17.3898 17.1076 17.2774C17.1601 17.165 17.1898 17.0433 17.195 16.9194C17.2002 16.7954 17.1807 16.6717 17.1377 16.5553C17.0947 16.4389 17.0291 16.3322 16.9445 16.2414L4.44375 2.49456ZM12.1383 15.7664L4.225 7.85316C4.84375 7.42191 5.49297 7.19691 6.16485 7.17425L12.7672 14.4399C12.6262 14.9114 12.4141 15.3588 12.1383 15.7664ZM18.6055 8.34456L15.5586 11.4C15.4716 11.4872 15.3684 11.5565 15.2547 11.6038C15.141 11.6511 15.0191 11.6755 14.8959 11.6757C14.7728 11.6758 14.6508 11.6518 14.537 11.6048C14.4231 11.5579 14.3196 11.4889 14.2324 11.402C14.0563 11.2264 13.9572 10.988 13.9568 10.7393C13.9566 10.6162 13.9807 10.4942 14.0276 10.3803C14.0746 10.2665 14.1435 10.163 14.2305 10.0758L17.0578 7.23988L12.7609 2.943L10.2023 5.50785C10.0264 5.68166 9.78882 5.77889 9.54148 5.77835C9.29413 5.7778 9.05702 5.67952 8.8818 5.50493C8.70659 5.33034 8.60748 5.09358 8.60606 4.84623C8.60464 4.59889 8.70103 4.361 8.87422 4.18441L11.6531 1.39613C11.7982 1.25085 11.9706 1.1356 12.1603 1.05697C12.3499 0.978339 12.5533 0.937866 12.7586 0.937866C12.9639 0.937866 13.1673 0.978339 13.3569 1.05697C13.5466 1.1356 13.719 1.25085 13.8641 1.39613L18.6055 6.13675C18.8984 6.42976 19.063 6.82712 19.063 7.24144C19.063 7.65576 18.8984 8.05311 18.6055 8.34613V8.34456Z" fill="#191F2E"/>
</svg>
