<svg width="20" height="20" viewBox="0 0 20 20" fill="none" xmlns="http://www.w3.org/2000/svg">
<path d="M16.875 13.125H16.1492L14.4953 3.75H15C15.1658 3.75 15.3247 3.68415 15.4419 3.56694C15.5592 3.44973 15.625 3.29076 15.625 3.125C15.625 2.95924 15.5592 2.80027 15.4419 2.68306C15.3247 2.56585 15.1658 2.5 15 2.5H5C4.83424 2.5 4.67527 2.56585 4.55806 2.68306C4.44085 2.80027 4.375 2.95924 4.375 3.125C4.375 3.29076 4.44085 3.44973 4.55806 3.56694C4.67527 3.68415 4.83424 3.75 5 3.75H5.50469L3.85078 13.125H3.125C2.95924 13.125 2.80027 13.1908 2.68306 13.3081C2.56585 13.4253 2.5 13.5842 2.5 13.75C2.5 13.9158 2.56585 14.0747 2.68306 14.1919C2.80027 14.3092 2.95924 14.375 3.125 14.375H9.375V18.75C9.375 18.9158 9.44085 19.0747 9.55806 19.1919C9.67527 19.3092 9.83424 19.375 10 19.375C10.1658 19.375 10.3247 19.3092 10.4419 19.1919C10.5592 19.0747 10.625 18.9158 10.625 18.75V14.375H16.875C17.0408 14.375 17.1997 14.3092 17.3169 14.1919C17.4342 14.0747 17.5 13.9158 17.5 13.75C17.5 13.5842 17.4342 13.4253 17.3169 13.3081C17.1997 13.1908 17.0408 13.125 16.875 13.125ZM6.77422 3.75H13.2258L14.8797 13.125H5.12031L6.77422 3.75Z" fill="#191F2E"/>
</svg>
