<svg width="20" height="20" viewBox="0 0 20 20" fill="none" xmlns="http://www.w3.org/2000/svg">
<path d="M18.3844 6.35709L13.643 1.61646C13.5269 1.50036 13.3891 1.40826 13.2374 1.34542C13.0857 1.28259 12.9232 1.25024 12.759 1.25024C12.5948 1.25024 12.4323 1.28259 12.2806 1.34542C12.1289 1.40826 11.9911 1.50036 11.875 1.61646L7.68517 5.81959C6.85236 5.55865 4.9508 5.2438 2.96642 6.84615C2.82964 6.95613 2.71756 7.09369 2.63747 7.24986C2.55737 7.40603 2.51107 7.57732 2.50156 7.75257C2.49205 7.92783 2.51956 8.10312 2.58229 8.26704C2.64502 8.43096 2.74156 8.57983 2.86564 8.70396L6.64064 12.4774L3.30783 15.8079C3.19055 15.9251 3.12467 16.0842 3.12467 16.2501C3.12467 16.4159 3.19055 16.575 3.30783 16.6922C3.4251 16.8095 3.58416 16.8754 3.75001 16.8754C3.91587 16.8754 4.07493 16.8095 4.1922 16.6922L7.52267 13.3594L11.2953 17.1321C11.4113 17.2486 11.5491 17.341 11.7009 17.4041C11.8526 17.4673 12.0153 17.4999 12.1797 17.5001C12.2094 17.5001 12.2383 17.5001 12.268 17.5001C12.4462 17.4877 12.6196 17.4372 12.7765 17.3518C12.9334 17.2665 13.0701 17.1484 13.1774 17.0055C14.7117 14.9665 14.5641 13.3086 14.2078 12.318L18.3852 8.12506C18.5012 8.00893 18.5933 7.87107 18.656 7.71937C18.7188 7.56767 18.7511 7.40509 18.751 7.24091C18.7509 7.07673 18.7185 6.91418 18.6556 6.76253C18.5927 6.61088 18.5005 6.47311 18.3844 6.35709ZM17.5 7.24146L13.0258 11.7305C12.9334 11.8233 12.8725 11.9427 12.8516 12.0719C12.8307 12.2012 12.8509 12.3337 12.9094 12.4508C13.6485 13.9297 12.7688 15.4657 12.1797 16.2493L3.75001 7.81881C4.69376 7.05787 5.59689 6.85709 6.28751 6.85709C6.72574 6.85111 7.16035 6.93707 7.5633 7.10943C7.68085 7.16826 7.81397 7.18853 7.94371 7.16735C8.07345 7.14617 8.19321 7.08463 8.28595 6.99146L12.7594 2.50006L17.5 7.24068V7.24146Z" fill="#191F2E"/>
</svg>
