<svg width="20" height="20" viewBox="0 0 20 20" fill="none" xmlns="http://www.w3.org/2000/svg">
<path d="M18.6055 6.1359L13.8641 1.39527C13.719 1.25 13.5466 1.13475 13.3569 1.05612C13.1673 0.977485 12.9639 0.937012 12.7586 0.937012C12.5533 0.937012 12.3499 0.977485 12.1603 1.05612C11.9706 1.13475 11.7982 1.25 11.6531 1.39527L7.59375 5.46871C6.62266 5.20855 4.72813 5.02183 2.77032 6.60152C2.59935 6.73907 2.45927 6.91109 2.3592 7.10638C2.25913 7.30167 2.20132 7.51584 2.18953 7.73496C2.17774 7.95407 2.21223 8.17321 2.29076 8.37811C2.36929 8.58301 2.4901 8.76907 2.64532 8.92418L6.19688 12.4765L3.0875 15.5859C2.91138 15.762 2.81244 16.0009 2.81244 16.25C2.81244 16.499 2.91138 16.7379 3.0875 16.914C3.26362 17.0901 3.50249 17.1891 3.75157 17.1891C4.00064 17.1891 4.23951 17.0901 4.41563 16.914L7.525 13.8039L11.0773 17.3554C11.37 17.6478 11.7668 17.8122 12.1805 17.8125C12.2164 17.8125 12.2531 17.8125 12.2898 17.8086C12.5128 17.7924 12.7298 17.7287 12.926 17.6215C13.1223 17.5144 13.2932 17.3663 13.4273 17.1875C13.7938 16.7007 14.2867 15.9273 14.5555 15C14.8242 14.0726 14.825 13.2125 14.568 12.3906L18.607 8.33824C18.8976 8.04531 19.0605 7.64935 19.0602 7.23675C19.0599 6.82415 18.8965 6.42841 18.6055 6.1359ZM12.8039 11.5101C12.6652 11.6493 12.5738 11.8286 12.5425 12.0227C12.5112 12.2167 12.5417 12.4156 12.6297 12.5914C12.8977 13.1273 13.1688 14.232 12.1391 15.7671L4.225 7.85387C5.87266 6.71402 7.31328 7.33512 7.42813 7.38512C7.60313 7.47597 7.80286 7.50765 7.99738 7.47539C8.19191 7.44314 8.37073 7.34869 8.50703 7.20621L12.7594 2.9398L17.0563 7.23668L12.8039 11.5101Z" fill="#191F2E"/>
</svg>
