<svg width="20" height="20" viewBox="0 0 20 20" fill="none" xmlns="http://www.w3.org/2000/svg">
<path d="M16.875 12.8125H16.4117L14.8672 4.0625H15C15.2486 4.0625 15.4871 3.96373 15.6629 3.78791C15.8387 3.6121 15.9375 3.37364 15.9375 3.125C15.9375 2.87636 15.8387 2.6379 15.6629 2.46209C15.4871 2.28627 15.2486 2.1875 15 2.1875H5C4.75136 2.1875 4.5129 2.28627 4.33709 2.46209C4.16127 2.6379 4.0625 2.87636 4.0625 3.125C4.0625 3.37364 4.16127 3.6121 4.33709 3.78791C4.5129 3.96373 4.75136 4.0625 5 4.0625H5.13281L3.58828 12.8125H3.125C2.87636 12.8125 2.6379 12.9113 2.46209 13.0871C2.28627 13.2629 2.1875 13.5014 2.1875 13.75C2.1875 13.9986 2.28627 14.2371 2.46209 14.4129C2.6379 14.5887 2.87636 14.6875 3.125 14.6875H9.0625V18.75C9.0625 18.9986 9.16127 19.2371 9.33709 19.4129C9.5129 19.5887 9.75136 19.6875 10 19.6875C10.2486 19.6875 10.4871 19.5887 10.6629 19.4129C10.8387 19.2371 10.9375 18.9986 10.9375 18.75V14.6875H16.875C17.1236 14.6875 17.3621 14.5887 17.5379 14.4129C17.7137 14.2371 17.8125 13.9986 17.8125 13.75C17.8125 13.5014 17.7137 13.2629 17.5379 13.0871C17.3621 12.9113 17.1236 12.8125 16.875 12.8125ZM7.03672 4.0625H12.9633L14.5078 12.8125H5.49219L7.03672 4.0625Z" fill="#191F2E"/>
</svg>
