<svg width="20" height="20" viewBox="0 0 20 20" fill="none" xmlns="http://www.w3.org/2000/svg">
<path d="M18.3852 8.12501L14.2078 12.3164C14.5641 13.3063 14.7117 14.9641 13.1773 17.0039C13.07 17.1473 12.933 17.2659 12.7757 17.3515C12.6183 17.4372 12.4443 17.4878 12.2656 17.5C12.2359 17.5 12.207 17.5 12.1773 17.5C12.0131 17.5 11.8504 17.4677 11.6987 17.4048C11.5469 17.3419 11.4091 17.2498 11.293 17.1336L7.52265 13.3594L4.19218 16.6922C4.07491 16.8095 3.91585 16.8754 3.75 16.8754C3.58414 16.8754 3.42508 16.8095 3.30781 16.6922C3.19053 16.5749 3.12465 16.4159 3.12465 16.25C3.12465 16.0842 3.19053 15.9251 3.30781 15.8078L6.64062 12.4774L2.86718 8.70391C2.74315 8.57973 2.64666 8.43081 2.584 8.26686C2.52134 8.10291 2.4939 7.9276 2.50348 7.75235C2.51306 7.57709 2.55944 7.40582 2.63961 7.24968C2.71977 7.09354 2.83192 6.95603 2.96875 6.8461C4.95468 5.24376 6.85546 5.5586 7.6875 5.81954L11.875 1.61719C11.9911 1.50109 12.1289 1.40899 12.2806 1.34615C12.4322 1.28332 12.5948 1.25098 12.759 1.25098C12.9232 1.25098 13.0857 1.28332 13.2374 1.34615C13.3891 1.40899 13.5269 1.50109 13.643 1.61719L18.3844 6.35782C18.6187 6.59211 18.7504 6.90987 18.7506 7.24125C18.7507 7.57263 18.6193 7.89051 18.3852 8.12501Z" fill="#191F2E"/>
</svg>
