<svg width="20" height="20" viewBox="0 0 20 20" fill="none" xmlns="http://www.w3.org/2000/svg">
<path d="M16.7133 16.4547C16.7696 16.5153 16.8134 16.5864 16.8421 16.664C16.8707 16.7416 16.8837 16.8241 16.8803 16.9067C16.8768 16.9893 16.857 17.0705 16.822 17.1454C16.7869 17.2203 16.7374 17.2875 16.6762 17.3431C16.615 17.3988 16.5433 17.4417 16.4654 17.4694C16.3875 17.4971 16.3048 17.5091 16.2222 17.5047C16.1397 17.5003 16.0588 17.4795 15.9843 17.4435C15.9098 17.4076 15.8432 17.3572 15.7883 17.2954L14.082 15.4204C13.8507 15.9854 13.5466 16.5177 13.1773 17.004C13.07 17.1474 12.933 17.266 12.7757 17.3516C12.6183 17.4372 12.4443 17.4879 12.2656 17.5001C12.2359 17.5001 12.207 17.5001 12.1773 17.5001C12.0131 17.5001 11.8504 17.4677 11.6987 17.4049C11.5469 17.342 11.4091 17.2498 11.293 17.1336L7.52265 13.3594L4.19218 16.6922C4.07491 16.8095 3.91585 16.8754 3.75 16.8754C3.58414 16.8754 3.42508 16.8095 3.30781 16.6922C3.19053 16.575 3.12465 16.4159 3.12465 16.2501C3.12465 16.0842 3.19053 15.9251 3.30781 15.8079L6.64062 12.4774L2.86718 8.70396C2.74315 8.57977 2.64666 8.43086 2.584 8.26691C2.52134 8.10296 2.4939 7.92765 2.50348 7.7524C2.51306 7.57714 2.55944 7.40587 2.63961 7.24973C2.71977 7.09358 2.83192 6.95607 2.96875 6.84615C3.63349 6.29391 4.41993 5.90752 5.26328 5.7188L3.2875 3.54537C3.23114 3.48483 3.18736 3.41371 3.1587 3.33613C3.13003 3.25855 3.11705 3.17605 3.1205 3.09342C3.12395 3.01078 3.14377 2.92966 3.17881 2.85474C3.21385 2.77982 3.26341 2.7126 3.32461 2.65698C3.38582 2.60135 3.45746 2.55843 3.53538 2.5307C3.6133 2.50296 3.69594 2.49097 3.77853 2.49541C3.86112 2.49986 3.942 2.52065 4.0165 2.55658C4.09099 2.59251 4.15761 2.64287 4.2125 2.70474L14.2422 13.7368L16.7133 16.4547ZM18.3844 6.35709L13.643 1.61646C13.5269 1.50036 13.3891 1.40826 13.2374 1.34542C13.0857 1.28259 12.9232 1.25024 12.759 1.25024C12.5948 1.25024 12.4322 1.28259 12.2806 1.34542C12.1289 1.40826 11.9911 1.50036 11.875 1.61646L8.6539 4.84849C8.54134 4.96205 8.47657 5.11443 8.47294 5.27429C8.46931 5.43414 8.52708 5.58931 8.63437 5.70787L13.9914 11.6008C14.0484 11.6636 14.1175 11.7141 14.1946 11.7493C14.2717 11.7844 14.3551 11.8036 14.4398 11.8055H14.4531C14.5353 11.8055 14.6166 11.7893 14.6925 11.7577C14.7684 11.7262 14.8373 11.6801 14.8953 11.6219L18.3844 8.12506C18.5005 8.00898 18.5926 7.87117 18.6554 7.71949C18.7182 7.56782 18.7506 7.40525 18.7506 7.24107C18.7506 7.07689 18.7182 6.91433 18.6554 6.76265C18.5926 6.61097 18.5005 6.47316 18.3844 6.35709Z" fill="#191F2E"/>
</svg>
