<svg width="20" height="20" viewBox="0 0 20 20" fill="none" xmlns="http://www.w3.org/2000/svg">
<path d="M17.3757 12.122C17.242 12.0375 17.089 11.9883 16.9311 11.9789C16.7732 11.9694 16.6155 12.0001 16.4726 12.0681C16.2759 12.1618 16.0582 12.2025 15.8409 12.1861C15.6237 12.1697 15.4145 12.0969 15.2341 11.9747C15.0537 11.8526 14.9084 11.6854 14.8125 11.4898C14.7166 11.2942 14.6735 11.0769 14.6875 10.8595C14.7088 10.5583 14.837 10.2747 15.049 10.0598C15.261 9.84496 15.5429 9.71293 15.8437 9.68759C16.0587 9.67151 16.2742 9.71191 16.4687 9.80478C16.6115 9.87346 16.7694 9.9048 16.9277 9.89589C17.0859 9.88698 17.2393 9.83811 17.3735 9.75383C17.5077 9.66956 17.6184 9.55264 17.6951 9.414C17.7719 9.27535 17.8123 9.11951 17.8125 8.96103V5.62509C17.8125 5.21069 17.6478 4.81327 17.3548 4.52024C17.0618 4.22721 16.6644 4.06259 16.25 4.06259H13.75C13.7493 3.63577 13.6615 3.21357 13.4919 2.82185C13.3224 2.43013 13.0747 2.07714 12.764 1.78447C12.4533 1.49051 12.085 1.26407 11.6825 1.1194C11.2799 0.974727 10.8517 0.914954 10.425 0.943844C9.67203 0.99332 8.96228 1.31302 8.4263 1.84412C7.89031 2.37523 7.56413 3.08202 7.50777 3.83447C7.49996 3.91181 7.49996 3.98447 7.49996 4.06259H4.99996C4.58556 4.06259 4.18813 4.22721 3.8951 4.52024C3.60208 4.81327 3.43746 5.21069 3.43746 5.62509V7.81259C3.01063 7.81329 2.58843 7.90109 2.19672 8.07062C1.805 8.24015 1.452 8.48784 1.15933 8.79853C0.755081 9.22893 0.481038 9.76505 0.368952 10.3448C0.256867 10.9245 0.311325 11.5242 0.526019 12.0742C0.740713 12.6243 1.10686 13.1023 1.58203 13.4528C2.05721 13.8033 2.62197 14.012 3.2109 14.0548C3.28623 14.0613 3.36185 14.0639 3.43746 14.0626V16.2501C3.43746 16.6645 3.60208 17.0619 3.8951 17.3549C4.18813 17.648 4.58556 17.8126 4.99996 17.8126H16.25C16.6644 17.8126 17.0618 17.648 17.3548 17.3549C17.6478 17.0619 17.8125 16.6645 17.8125 16.2501V12.9149C17.8125 12.7566 17.7725 12.6009 17.6962 12.4622C17.6198 12.3236 17.5096 12.2065 17.3757 12.122ZM15.9375 15.9376H5.31246V12.9149C5.31248 12.7567 5.27245 12.6011 5.19611 12.4625C5.11977 12.3239 5.0096 12.2069 4.87586 12.1224C4.74211 12.0378 4.58915 11.9885 4.43122 11.979C4.27329 11.9695 4.11552 12.0002 3.97261 12.0681C3.77702 12.1622 3.56019 12.2034 3.34371 12.1876C3.04364 12.1624 2.76238 12.031 2.55045 11.8171C2.33853 11.6032 2.20982 11.3207 2.18746 11.0204C2.17298 10.803 2.21559 10.5856 2.31106 10.3897C2.40654 10.1938 2.55155 10.0263 2.73173 9.90375C2.91192 9.78121 3.121 9.7079 3.33825 9.69108C3.55551 9.67427 3.77338 9.71454 3.97027 9.80791C4.11327 9.87634 4.27129 9.90739 4.42956 9.89816C4.58782 9.88893 4.74116 9.83971 4.87523 9.75512C5.00931 9.67052 5.11974 9.5533 5.1962 9.41443C5.27267 9.27556 5.31266 9.11956 5.31246 8.96103V5.93759H8.6484C8.80655 5.93748 8.9621 5.89736 9.10058 5.82096C9.23905 5.74457 9.35595 5.63438 9.4404 5.50066C9.52484 5.36694 9.57408 5.21403 9.58354 5.05616C9.593 4.89829 9.56236 4.7406 9.49449 4.59775C9.40038 4.40216 9.35917 4.18532 9.37496 3.96884C9.4 3.66872 9.5313 3.38737 9.74526 3.17541C9.95922 2.96346 10.2418 2.8348 10.5421 2.81259C10.7595 2.79805 10.9769 2.84057 11.1728 2.93594C11.3687 3.03132 11.5363 3.17623 11.6589 3.35632C11.7815 3.53641 11.8549 3.74542 11.8718 3.96263C11.8888 4.17984 11.8486 4.39771 11.7554 4.59463C11.6868 4.73766 11.6556 4.89576 11.6648 5.05414C11.6739 5.21251 11.7231 5.36597 11.8077 5.50016C11.8923 5.63434 12.0096 5.74486 12.1486 5.82137C12.2876 5.89787 12.4437 5.93786 12.6023 5.93759H15.9375V7.81259C15.8593 7.81259 15.7867 7.81259 15.7109 7.82119C14.9048 7.88108 14.1533 8.25098 13.6141 8.85322C13.075 9.45546 12.7902 10.2432 12.8195 11.051C12.8488 11.8587 13.19 12.6237 13.7714 13.1853C14.3528 13.7469 15.1291 14.0613 15.9375 14.0626V15.9376Z" fill="#191F2E"/>
</svg>
