<svg width="20" height="20" viewBox="0 0 20 20" fill="none" xmlns="http://www.w3.org/2000/svg">
<path d="M12.9516 17.5H16.25C16.5815 17.5 16.8995 17.3683 17.1339 17.1339C17.3683 16.8995 17.5 16.5815 17.5 16.25V13.3086C17.4995 13.2061 17.4737 13.1053 17.4251 13.0151C17.3764 12.9249 17.3063 12.848 17.2209 12.7913C17.1356 12.7346 17.0376 12.6997 16.9355 12.6898C16.8335 12.6799 16.7306 12.6952 16.6359 12.7344C16.4145 12.8259 16.1771 12.8728 15.9375 12.8727C14.9039 12.8727 14.0625 12.0055 14.0625 10.9406C14.0625 9.87578 14.9039 9.00859 15.9375 9.00859C16.1771 9.00841 16.4145 9.05539 16.6359 9.14688C16.7311 9.18628 16.8346 9.20155 16.9371 9.19131C17.0396 9.18108 17.138 9.14566 17.2235 9.08821C17.3091 9.03076 17.379 8.95305 17.4273 8.86202C17.4755 8.77098 17.5005 8.66943 17.5 8.56641V5.625C17.5 5.29348 17.3683 4.97554 17.1339 4.74112C16.8995 4.5067 16.5815 4.375 16.25 4.375H13.4203C13.4319 4.27124 13.4377 4.16691 13.4375 4.0625C13.4375 3.31658 13.1412 2.60121 12.6137 2.07376C12.0863 1.54632 11.3709 1.25 10.625 1.25C9.87908 1.25 9.16371 1.54632 8.63626 2.07376C8.10882 2.60121 7.8125 3.31658 7.8125 4.0625C7.81232 4.16691 7.81806 4.27124 7.82969 4.375H5C4.66848 4.375 4.35054 4.5067 4.11612 4.74112C3.8817 4.97554 3.75 5.29348 3.75 5.625V8.14219C3.64624 8.13056 3.54191 8.12482 3.4375 8.125C2.69158 8.125 1.97621 8.42132 1.44876 8.94876C0.921316 9.47621 0.625 10.1916 0.625 10.9375C0.625 11.6834 0.921316 12.3988 1.44876 12.9262C1.97621 13.4537 2.69158 13.75 3.4375 13.75C3.54191 13.7502 3.64624 13.7444 3.75 13.7328V16.25C3.75 16.5815 3.8817 16.8995 4.11612 17.1339C4.35054 17.3683 4.66848 17.5 5 17.5H8.29844" fill="#191F2E"/>
</svg>
