<svg width="20" height="20" viewBox="0 0 20 20" fill="none" xmlns="http://www.w3.org/2000/svg">
<path d="M7.8125 2.8125H4.375C3.9606 2.8125 3.56317 2.97712 3.27015 3.27015C2.97712 3.56317 2.8125 3.9606 2.8125 4.375V7.8125C2.8125 8.2269 2.97712 8.62433 3.27015 8.91735C3.56317 9.21038 3.9606 9.375 4.375 9.375H7.8125C8.2269 9.375 8.62433 9.21038 8.91735 8.91735C9.21038 8.62433 9.375 8.2269 9.375 7.8125V4.375C9.375 3.9606 9.21038 3.56317 8.91735 3.27015C8.62433 2.97712 8.2269 2.8125 7.8125 2.8125ZM7.5 7.5H4.6875V4.6875H7.5V7.5ZM7.8125 10.625H4.375C3.9606 10.625 3.56317 10.7896 3.27015 11.0826C2.97712 11.3757 2.8125 11.7731 2.8125 12.1875V15.625C2.8125 16.0394 2.97712 16.4368 3.27015 16.7299C3.56317 17.0229 3.9606 17.1875 4.375 17.1875H7.8125C8.2269 17.1875 8.62433 17.0229 8.91735 16.7299C9.21038 16.4368 9.375 16.0394 9.375 15.625V12.1875C9.375 11.7731 9.21038 11.3757 8.91735 11.0826C8.62433 10.7896 8.2269 10.625 7.8125 10.625ZM7.5 15.3125H4.6875V12.5H7.5V15.3125ZM15.625 2.8125H12.1875C11.7731 2.8125 11.3757 2.97712 11.0826 3.27015C10.7896 3.56317 10.625 3.9606 10.625 4.375V7.8125C10.625 8.2269 10.7896 8.62433 11.0826 8.91735C11.3757 9.21038 11.7731 9.375 12.1875 9.375H15.625C16.0394 9.375 16.4368 9.21038 16.7299 8.91735C17.0229 8.62433 17.1875 8.2269 17.1875 7.8125V4.375C17.1875 3.9606 17.0229 3.56317 16.7299 3.27015C16.4368 2.97712 16.0394 2.8125 15.625 2.8125ZM15.3125 7.5H12.5V4.6875H15.3125V7.5ZM10.625 13.4375V11.5625C10.625 11.3139 10.7238 11.0754 10.8996 10.8996C11.0754 10.7238 11.3139 10.625 11.5625 10.625C11.8111 10.625 12.0496 10.7238 12.2254 10.8996C12.4012 11.0754 12.5 11.3139 12.5 11.5625V13.4375C12.5 13.6861 12.4012 13.9246 12.2254 14.1004C12.0496 14.2762 11.8111 14.375 11.5625 14.375C11.3139 14.375 11.0754 14.2762 10.8996 14.1004C10.7238 13.9246 10.625 13.6861 10.625 13.4375ZM17.1875 12.8125C17.1875 13.0611 17.0887 13.2996 16.9129 13.4754C16.7371 13.6512 16.4986 13.75 16.25 13.75H15.3125V16.25C15.3125 16.4986 15.2137 16.7371 15.0379 16.9129C14.8621 17.0887 14.6236 17.1875 14.375 17.1875H11.5625C11.3139 17.1875 11.0754 17.0887 10.8996 16.9129C10.7238 16.7371 10.625 16.4986 10.625 16.25C10.625 16.0014 10.7238 15.7629 10.8996 15.5871C11.0754 15.4113 11.3139 15.3125 11.5625 15.3125H13.4375V11.5625C13.4375 11.3139 13.5363 11.0754 13.7121 10.8996C13.8879 10.7238 14.1264 10.625 14.375 10.625C14.6236 10.625 14.8621 10.7238 15.0379 10.8996C15.2137 11.0754 15.3125 11.3139 15.3125 11.5625V11.875H16.25C16.4986 11.875 16.7371 11.9738 16.9129 12.1496C17.0887 12.3254 17.1875 12.5639 17.1875 12.8125Z" fill="#191F2E"/>
</svg>
