<svg width="20" height="20" viewBox="0 0 20 20" fill="none" xmlns="http://www.w3.org/2000/svg">
<path d="M2.1875 5C2.1875 4.75136 2.28627 4.5129 2.46209 4.33709C2.6379 4.16127 2.87636 4.0625 3.125 4.0625H16.875C17.1236 4.0625 17.3621 4.16127 17.5379 4.33709C17.7137 4.5129 17.8125 4.75136 17.8125 5C17.8125 5.24864 17.7137 5.4871 17.5379 5.66291C17.3621 5.83873 17.1236 5.9375 16.875 5.9375H3.125C2.87636 5.9375 2.6379 5.83873 2.46209 5.66291C2.28627 5.4871 2.1875 5.24864 2.1875 5ZM10.3125 9.0625H3.125C2.87636 9.0625 2.6379 9.16127 2.46209 9.33709C2.28627 9.5129 2.1875 9.75136 2.1875 10C2.1875 10.2486 2.28627 10.4871 2.46209 10.6629C2.6379 10.8387 2.87636 10.9375 3.125 10.9375H10.3125C10.5611 10.9375 10.7996 10.8387 10.9754 10.6629C11.1512 10.4871 11.25 10.2486 11.25 10C11.25 9.75136 11.1512 9.5129 10.9754 9.33709C10.7996 9.16127 10.5611 9.0625 10.3125 9.0625ZM10.3125 14.0625H3.125C2.87636 14.0625 2.6379 14.1613 2.46209 14.3371C2.28627 14.5129 2.1875 14.7514 2.1875 15C2.1875 15.2486 2.28627 15.4871 2.46209 15.6629C2.6379 15.8387 2.87636 15.9375 3.125 15.9375H10.3125C10.5611 15.9375 10.7996 15.8387 10.9754 15.6629C11.1512 15.4871 11.25 15.2486 11.25 15C11.25 14.7514 11.1512 14.5129 10.9754 14.3371C10.7996 14.1613 10.5611 14.0625 10.3125 14.0625ZM19.6875 12.5C19.6876 12.6591 19.6471 12.8155 19.5701 12.9546C19.493 13.0938 19.3818 13.211 19.2469 13.2953L14.2469 16.4203C14.1049 16.509 13.9418 16.5581 13.7745 16.5625C13.6072 16.5669 13.4418 16.5264 13.2954 16.4452C13.149 16.3641 13.027 16.2452 12.9421 16.1009C12.8572 15.9567 12.8124 15.7924 12.8125 15.625V9.375C12.8124 9.20762 12.8572 9.04329 12.9421 8.89905C13.027 8.75482 13.149 8.63595 13.2954 8.55478C13.4418 8.47362 13.6072 8.43313 13.7745 8.43751C13.9418 8.44189 14.1049 8.49098 14.2469 8.57969L19.2469 11.7047C19.3818 11.789 19.493 11.9062 19.5701 12.0454C19.6471 12.1845 19.6876 12.3409 19.6875 12.5ZM16.9812 12.5L14.6875 11.0664V13.9336L16.9812 12.5Z" fill="#191F2E"/>
</svg>
