<svg width="20" height="20" viewBox="0 0 20 20" fill="none" xmlns="http://www.w3.org/2000/svg">
<path d="M9.0625 5.625V12.5C9.06147 13.4942 8.66605 14.4475 7.96301 15.1505C7.25997 15.8535 6.30674 16.249 5.3125 16.25C5.14674 16.25 4.98777 16.1842 4.87056 16.0669C4.75335 15.9497 4.6875 15.7908 4.6875 15.625C4.6875 15.4592 4.75335 15.3003 4.87056 15.1831C4.98777 15.0658 5.14674 15 5.3125 15C5.97554 15 6.61143 14.7366 7.08027 14.2678C7.54911 13.7989 7.8125 13.163 7.8125 12.5V11.875H3.125C2.79348 11.875 2.47554 11.7433 2.24112 11.5089C2.0067 11.2745 1.875 10.9565 1.875 10.625V5.625C1.875 5.29348 2.0067 4.97554 2.24112 4.74112C2.47554 4.5067 2.79348 4.375 3.125 4.375H7.8125C8.14402 4.375 8.46196 4.5067 8.69638 4.74112C8.9308 4.97554 9.0625 5.29348 9.0625 5.625ZM16.875 4.375H12.1875C11.856 4.375 11.538 4.5067 11.3036 4.74112C11.0692 4.97554 10.9375 5.29348 10.9375 5.625V10.625C10.9375 10.9565 11.0692 11.2745 11.3036 11.5089C11.538 11.7433 11.856 11.875 12.1875 11.875H16.875V12.5C16.875 13.163 16.6116 13.7989 16.1428 14.2678C15.6739 14.7366 15.038 15 14.375 15C14.2092 15 14.0503 15.0658 13.9331 15.1831C13.8158 15.3003 13.75 15.4592 13.75 15.625C13.75 15.7908 13.8158 15.9497 13.9331 16.0669C14.0503 16.1842 14.2092 16.25 14.375 16.25C15.3692 16.249 16.3225 15.8535 17.0255 15.1505C17.7285 14.4475 18.124 13.4942 18.125 12.5V5.625C18.125 5.29348 17.9933 4.97554 17.7589 4.74112C17.5245 4.5067 17.2065 4.375 16.875 4.375Z" fill="#191F2E"/>
</svg>
