<svg width="20" height="20" viewBox="0 0 20 20" fill="none" xmlns="http://www.w3.org/2000/svg">
<path d="M7.8125 4.0625H3.125C2.7106 4.0625 2.31317 4.22712 2.02015 4.52015C1.72712 4.81317 1.5625 5.2106 1.5625 5.625V10.625C1.5625 11.0394 1.72712 11.4368 2.02015 11.7299C2.31317 12.0229 2.7106 12.1875 3.125 12.1875H7.5V12.5C7.5 13.0802 7.26953 13.6366 6.8593 14.0468C6.44906 14.457 5.89266 14.6875 5.3125 14.6875C5.06386 14.6875 4.8254 14.7863 4.64959 14.9621C4.47377 15.1379 4.375 15.3764 4.375 15.625C4.375 15.8736 4.47377 16.1121 4.64959 16.2879C4.8254 16.4637 5.06386 16.5625 5.3125 16.5625C6.38956 16.5613 7.42215 16.1328 8.18375 15.3713C8.94535 14.6097 9.37376 13.5771 9.375 12.5V5.625C9.375 5.2106 9.21038 4.81317 8.91735 4.52015C8.62433 4.22712 8.2269 4.0625 7.8125 4.0625ZM7.5 10.3125H3.4375V5.9375H7.5V10.3125ZM16.875 4.0625H12.1875C11.7731 4.0625 11.3757 4.22712 11.0826 4.52015C10.7896 4.81317 10.625 5.2106 10.625 5.625V10.625C10.625 11.0394 10.7896 11.4368 11.0826 11.7299C11.3757 12.0229 11.7731 12.1875 12.1875 12.1875H16.5625V12.5C16.5625 13.0802 16.332 13.6366 15.9218 14.0468C15.5116 14.457 14.9552 14.6875 14.375 14.6875C14.1264 14.6875 13.8879 14.7863 13.7121 14.9621C13.5363 15.1379 13.4375 15.3764 13.4375 15.625C13.4375 15.8736 13.5363 16.1121 13.7121 16.2879C13.8879 16.4637 14.1264 16.5625 14.375 16.5625C15.4521 16.5613 16.4847 16.1328 17.2463 15.3713C18.0078 14.6097 18.4363 13.5771 18.4375 12.5V5.625C18.4375 5.2106 18.2729 4.81317 17.9799 4.52015C17.6868 4.22712 17.2894 4.0625 16.875 4.0625ZM16.5625 10.3125H12.5V5.9375H16.5625V10.3125Z" fill="#191F2E"/>
</svg>
