<svg width="20" height="20" viewBox="0 0 20 20" fill="none" xmlns="http://www.w3.org/2000/svg">
<path d="M19.0625 5.62501V7.50001C19.0625 7.74865 18.9637 7.98711 18.7879 8.16293C18.612 8.33874 18.3736 8.43751 18.125 8.43751C17.8763 8.43751 17.6379 8.33874 17.462 8.16293C17.2862 7.98711 17.1875 7.74865 17.1875 7.50001V6.56251H10.025L6.50307 15.9539C6.43604 16.1326 6.31609 16.2865 6.15925 16.3952C6.00241 16.5038 5.81615 16.562 5.62534 16.562C5.43453 16.562 5.24827 16.5038 5.09143 16.3952C4.93459 16.2865 4.81464 16.1326 4.74761 15.9539L0.997606 5.95392C0.953256 5.83842 0.932206 5.71528 0.93567 5.59161C0.939134 5.46794 0.967044 5.34617 1.01779 5.23333C1.06854 5.1205 1.14111 5.01882 1.23134 4.93417C1.32157 4.84951 1.42766 4.78356 1.5435 4.7401C1.65933 4.69664 1.78263 4.67654 1.90627 4.68096C2.02992 4.68537 2.15146 4.71422 2.2639 4.76583C2.37635 4.81745 2.47746 4.89081 2.56142 4.98168C2.64537 5.07256 2.71051 5.17916 2.75307 5.29533L5.62495 12.9516L8.49761 5.29533C8.56467 5.1168 8.68458 4.96298 8.84134 4.85438C8.9981 4.74578 9.18425 4.68757 9.37495 4.68751H18.125C18.3736 4.68751 18.612 4.78628 18.7879 4.9621C18.9637 5.13792 19.0625 5.37637 19.0625 5.62501Z" fill="#191F2E"/>
</svg>
