<svg width="20" height="20" viewBox="0 0 20 20" fill="none" xmlns="http://www.w3.org/2000/svg">
<path d="M18.75 5.62498V7.49998C18.75 7.66574 18.6842 7.82471 18.567 7.94192C18.4498 8.05913 18.2908 8.12498 18.125 8.12498C17.9593 8.12498 17.8003 8.05913 17.6831 7.94192C17.5659 7.82471 17.5 7.66574 17.5 7.49998V6.24998H9.80862L6.21019 15.8445C6.16579 15.9641 6.08585 16.0673 5.9811 16.1401C5.87636 16.213 5.75183 16.252 5.62425 16.252C5.49666 16.252 5.37213 16.213 5.26739 16.1401C5.16265 16.0673 5.08271 15.9641 5.03831 15.8445L1.28831 5.84451C1.25948 5.76757 1.24609 5.68569 1.2489 5.60357C1.25171 5.52145 1.27067 5.44069 1.3047 5.36589C1.33872 5.2911 1.38714 5.22374 1.4472 5.16766C1.50726 5.11157 1.57777 5.06787 1.65472 5.03904C1.73166 5.01021 1.81353 4.99682 1.89566 4.99963C1.97778 5.00245 2.05854 5.0214 2.13334 5.05543C2.20813 5.08945 2.27549 5.13788 2.33157 5.19793C2.38765 5.25799 2.43136 5.3285 2.46019 5.40545L5.62503 13.8453L8.78987 5.40779C8.83418 5.28825 8.91397 5.18511 9.01857 5.11222C9.12316 5.03933 9.24754 5.00016 9.37503 4.99998H18.125C18.2908 4.99998 18.4498 5.06583 18.567 5.18304C18.6842 5.30025 18.75 5.45922 18.75 5.62498Z" fill="#191F2E"/>
</svg>
