<svg width="20" height="20" viewBox="0 0 20 20" fill="none" xmlns="http://www.w3.org/2000/svg">
<path d="M9.06256 10.0001C9.06256 9.81466 9.11755 9.63341 9.22056 9.47924C9.32357 9.32506 9.46999 9.2049 9.6413 9.13395C9.8126 9.06299 10.0011 9.04442 10.183 9.0806C10.3648 9.11677 10.5319 9.20606 10.663 9.33717C10.7941 9.46828 10.8834 9.63533 10.9195 9.81719C10.9557 9.99904 10.9372 10.1875 10.8662 10.3588C10.7952 10.5302 10.6751 10.6766 10.5209 10.7796C10.3667 10.8826 10.1855 10.9376 10.0001 10.9376C9.75142 10.9376 9.51296 10.8388 9.33715 10.663C9.16133 10.4872 9.06256 10.2487 9.06256 10.0001ZM7.62975 10.4415C7.74674 10.3244 7.81249 10.1656 7.81256 10.0001C7.81341 9.61887 7.91348 9.24444 8.10293 8.91363C8.29237 8.58282 8.56467 8.30702 8.89303 8.11336C9.03416 8.02976 9.13677 7.89403 9.17872 7.73545C9.22067 7.57687 9.19859 7.40815 9.11725 7.26571L7.08991 3.75008C7.00304 3.59944 6.8857 3.46858 6.74538 3.36587C6.60507 3.26316 6.44487 3.19085 6.27502 3.15357C6.10517 3.11629 5.92941 3.11486 5.75898 3.14937C5.58854 3.18388 5.42719 3.25357 5.28522 3.35399C4.32417 4.03152 3.52191 4.90988 2.93402 5.92824C2.34613 6.94659 1.98666 8.08058 1.88053 9.25165C1.86488 9.42651 1.88576 9.60272 1.94184 9.76909C1.99792 9.93546 2.08799 10.0883 2.20631 10.2181C2.32296 10.3458 2.46484 10.4479 2.62299 10.518C2.78113 10.588 2.95209 10.6245 3.12506 10.6251H7.18756C7.26972 10.625 7.35106 10.6088 7.42693 10.5773C7.50281 10.5458 7.57173 10.4997 7.62975 10.4415ZM11.9477 12.1235C11.8647 11.98 11.7281 11.8754 11.568 11.8326C11.4079 11.7898 11.2373 11.8124 11.0938 11.8954C10.7611 12.087 10.384 12.1879 10.0001 12.1879C9.61615 12.1879 9.23898 12.087 8.90631 11.8954C8.83522 11.8543 8.75673 11.8277 8.67534 11.817C8.59394 11.8063 8.51123 11.8117 8.43194 11.8329C8.35264 11.8542 8.27831 11.8909 8.21319 11.9409C8.14807 11.9909 8.09343 12.0532 8.05241 12.1243L6.03522 15.6181C5.94836 15.7683 5.89376 15.9351 5.8749 16.1076C5.85603 16.2802 5.87331 16.4548 5.92564 16.6203C5.97797 16.7858 6.0642 16.9386 6.17884 17.069C6.29347 17.1993 6.434 17.3044 6.59147 17.3774C7.6603 17.87 8.82319 18.1251 10.0001 18.1251C11.1769 18.1251 12.3398 17.87 13.4087 17.3774C13.5661 17.3044 13.7067 17.1993 13.8213 17.069C13.9359 16.9386 14.0222 16.7858 14.0745 16.6203C14.1268 16.4548 14.1441 16.2802 14.1252 16.1076C14.1064 15.9351 14.0518 15.7683 13.9649 15.6181L11.9477 12.1235ZM18.1196 9.25165C18.0135 8.08058 17.654 6.94659 17.0661 5.92824C16.4782 4.90988 15.676 4.03152 14.7149 3.35399C14.5729 3.25357 14.4116 3.18388 14.2411 3.14937C14.0707 3.11486 13.895 3.11629 13.7251 3.15357C13.5553 3.19085 13.3951 3.26316 13.2547 3.36587C13.1144 3.46858 12.9971 3.59944 12.9102 3.75008L10.8829 7.26571C10.8003 7.40851 10.7775 7.57816 10.8195 7.73768C10.8615 7.8972 10.9649 8.03364 11.1071 8.11727C11.4194 8.29978 11.6815 8.55688 11.8701 8.86556C12.0587 9.17423 12.1677 9.52485 12.1876 9.88602C12.1876 9.92352 12.1876 9.96415 12.1876 9.99852C12.1876 10.0806 12.2037 10.1619 12.2351 10.2377C12.2665 10.3135 12.3126 10.3824 12.3706 10.4405C12.4287 10.4985 12.4976 10.5445 12.5734 10.5759C12.6492 10.6074 12.7305 10.6235 12.8126 10.6235H16.8751C17.048 10.6229 17.219 10.5865 17.3771 10.5164C17.5353 10.4463 17.6772 10.3442 17.7938 10.2165C17.9119 10.087 18.0019 9.93434 18.058 9.76826C18.114 9.60217 18.135 9.42626 18.1196 9.25165Z" fill="#191F2E"/>
</svg>
