<svg width="20" height="20" viewBox="0 0 20 20" fill="none" xmlns="http://www.w3.org/2000/svg">
<path d="M7.18756 10.6251H3.12506C2.95209 10.6245 2.78113 10.588 2.62299 10.518C2.46484 10.4479 2.32296 10.3458 2.20631 10.2181C2.08799 10.0883 1.99792 9.93546 1.94184 9.76909C1.88576 9.60272 1.86488 9.42651 1.88053 9.25165C1.98666 8.08058 2.34613 6.94659 2.93402 5.92824C3.52191 4.90988 4.32417 4.03152 5.28522 3.35399C5.42719 3.25357 5.58854 3.18388 5.75898 3.14937C5.92941 3.11486 6.10517 3.11629 6.27502 3.15357C6.44487 3.19085 6.60507 3.26316 6.74538 3.36587C6.8857 3.46858 7.00304 3.59944 7.08991 3.75008L9.12116 7.26571C9.16219 7.33681 9.18883 7.41529 9.19953 7.49668C9.21024 7.57807 9.20481 7.66078 9.18355 7.74007C9.1623 7.81936 9.12563 7.89369 9.07565 7.95881C9.02567 8.02394 8.96335 8.07858 8.89225 8.11961C8.82115 8.16065 8.74267 8.18728 8.66127 8.19799C8.57988 8.2087 8.49718 8.20327 8.41789 8.18201C8.3386 8.16075 8.26427 8.12409 8.19914 8.07411C8.13402 8.02413 8.07938 7.96181 8.03834 7.89071L6.00709 4.37508C5.19374 4.94802 4.51471 5.69098 4.01706 6.55246C3.51941 7.41394 3.21504 8.37333 3.12506 9.36415C3.12491 9.36651 3.12532 9.36889 3.12628 9.37106C3.12723 9.37324 3.12869 9.37515 3.13053 9.37665L7.18756 9.37508C7.35332 9.37508 7.51229 9.44093 7.6295 9.55814C7.74671 9.67535 7.81256 9.83432 7.81256 10.0001C7.81256 10.1658 7.74671 10.3248 7.6295 10.442C7.51229 10.5592 7.35332 10.6251 7.18756 10.6251ZM18.1196 9.25165C18.0135 8.08058 17.654 6.94659 17.0661 5.92824C16.4782 4.90988 15.676 4.03152 14.7149 3.35399C14.5729 3.25357 14.4116 3.18388 14.2411 3.14937C14.0707 3.11486 13.895 3.11629 13.7251 3.15357C13.5553 3.19085 13.3951 3.26316 13.2547 3.36587C13.1144 3.46858 12.9971 3.59944 12.9102 3.75008L10.8829 7.26571C10.8418 7.33681 10.8152 7.41529 10.8045 7.49668C10.7938 7.57807 10.7992 7.66078 10.8205 7.74007C10.8634 7.90021 10.9682 8.03673 11.1118 8.11961C11.2554 8.20249 11.426 8.22494 11.5861 8.18201C11.6654 8.16075 11.7398 8.12409 11.8049 8.07411C11.87 8.02413 11.9247 7.96181 11.9657 7.89071L13.9969 4.37508C14.8094 4.94857 15.4876 5.69174 15.9845 6.55317C16.4815 7.4146 16.7853 8.37371 16.8751 9.36415C16.8751 9.36961 16.8751 9.37352 16.8751 9.37508H12.8126C12.6468 9.37508 12.4878 9.44093 12.3706 9.55814C12.2534 9.67535 12.1876 9.83432 12.1876 10.0001C12.1876 10.1658 12.2534 10.3248 12.3706 10.442C12.4878 10.5592 12.6468 10.6251 12.8126 10.6251H16.8751C17.048 10.6245 17.219 10.588 17.3771 10.518C17.5353 10.4479 17.6772 10.3458 17.7938 10.2181C17.9121 10.0883 18.0022 9.93546 18.0583 9.76909C18.1144 9.60272 18.1352 9.42651 18.1196 9.25165ZM11.9477 12.1235C11.9067 12.0524 11.852 11.9901 11.7869 11.9401C11.7218 11.8901 11.6475 11.8535 11.5682 11.8322C11.4889 11.811 11.4062 11.8055 11.3248 11.8162C11.2434 11.8269 11.1649 11.8536 11.0938 11.8946C11.0227 11.9357 10.9604 11.9903 10.9104 12.0554C10.8604 12.1205 10.8238 12.1949 10.8025 12.2742C10.7813 12.3535 10.7758 12.4362 10.7865 12.5175C10.7972 12.5989 10.8239 12.6774 10.8649 12.7485L12.8837 16.2431C11.9795 16.6595 10.9959 16.8751 10.0005 16.8751C9.00502 16.8751 8.0214 16.6595 7.11725 16.2431L9.13522 12.7485C9.17626 12.6774 9.20289 12.5989 9.21359 12.5175C9.2243 12.4362 9.21887 12.3535 9.19761 12.2742C9.17636 12.1949 9.13969 12.1205 9.08971 12.0554C9.03973 11.9903 8.97741 11.9357 8.90631 11.8946C8.83521 11.8536 8.75673 11.8269 8.67534 11.8162C8.59395 11.8055 8.51124 11.811 8.43195 11.8322C8.35266 11.8535 8.27833 11.8901 8.21321 11.9401C8.14808 11.9901 8.09344 12.0524 8.05241 12.1235L6.03522 15.6181C5.94836 15.7683 5.89376 15.9351 5.8749 16.1076C5.85603 16.2802 5.87331 16.4548 5.92564 16.6203C5.97797 16.7858 6.0642 16.9386 6.17884 17.069C6.29347 17.1993 6.434 17.3044 6.59147 17.3774C7.6603 17.87 8.82319 18.1251 10.0001 18.1251C11.1769 18.1251 12.3398 17.87 13.4087 17.3774C13.5661 17.3044 13.7067 17.1993 13.8213 17.069C13.9359 16.9386 14.0222 16.7858 14.0745 16.6203C14.1268 16.4548 14.1441 16.2802 14.1252 16.1076C14.1064 15.9351 14.0518 15.7683 13.9649 15.6181L11.9477 12.1235ZM10.0001 10.9376C10.1855 10.9376 10.3667 10.8826 10.5209 10.7796C10.6751 10.6766 10.7952 10.5302 10.8662 10.3588C10.9372 10.1875 10.9557 9.99904 10.9195 9.81719C10.8834 9.63533 10.7941 9.46828 10.663 9.33717C10.5319 9.20606 10.3648 9.11677 10.183 9.0806C10.0011 9.04442 9.8126 9.06299 9.6413 9.13395C9.46999 9.2049 9.32357 9.32506 9.22056 9.47924C9.11755 9.63341 9.06256 9.81466 9.06256 10.0001C9.06256 10.2487 9.16133 10.4872 9.33715 10.663C9.51296 10.8388 9.75142 10.9376 10.0001 10.9376Z" fill="#191F2E"/>
</svg>
