<svg width="20" height="20" viewBox="0 0 20 20" fill="none" xmlns="http://www.w3.org/2000/svg">
<path d="M10 1.875C8.39303 1.875 6.82214 2.35152 5.486 3.24431C4.14985 4.1371 3.10844 5.40605 2.49348 6.8907C1.87852 8.37535 1.71762 10.009 2.03112 11.5851C2.34463 13.1612 3.11846 14.6089 4.25476 15.7452C5.39106 16.8815 6.8388 17.6554 8.4149 17.9689C9.99099 18.2824 11.6247 18.1215 13.1093 17.5065C14.594 16.8916 15.8629 15.8502 16.7557 14.514C17.6485 13.1779 18.125 11.607 18.125 10C18.1227 7.84581 17.266 5.78051 15.7427 4.25727C14.2195 2.73403 12.1542 1.87727 10 1.875ZM10 16.875C8.64026 16.875 7.31105 16.4718 6.18046 15.7164C5.04987 14.9609 4.16868 13.8872 3.64833 12.6309C3.12798 11.3747 2.99183 9.99237 3.2571 8.65875C3.52238 7.32513 4.17716 6.10013 5.13864 5.13864C6.10013 4.17716 7.32514 3.52237 8.65876 3.2571C9.99238 2.99183 11.3747 3.12798 12.631 3.64833C13.8872 4.16868 14.9609 5.04987 15.7164 6.18045C16.4718 7.31104 16.875 8.64025 16.875 10C16.8729 11.8227 16.1479 13.5702 14.8591 14.8591C13.5702 16.1479 11.8227 16.8729 10 16.875ZM10 5C9.0111 5 8.0444 5.29324 7.22215 5.84265C6.39991 6.39206 5.75904 7.17295 5.38061 8.08658C5.00217 9.00021 4.90315 10.0055 5.09608 10.9755C5.289 11.9454 5.76521 12.8363 6.46447 13.5355C7.16373 14.2348 8.05465 14.711 9.02455 14.9039C9.99446 15.0969 10.9998 14.9978 11.9134 14.6194C12.8271 14.241 13.6079 13.6001 14.1574 12.7779C14.7068 11.9556 15 10.9889 15 10C14.9986 8.67436 14.4713 7.40343 13.5339 6.46606C12.5966 5.5287 11.3256 5.00145 10 5ZM10 13.75C9.25832 13.75 8.5333 13.5301 7.91662 13.118C7.29993 12.706 6.81928 12.1203 6.53546 11.4351C6.25163 10.7498 6.17736 9.99584 6.32206 9.26841C6.46675 8.54098 6.82391 7.8728 7.34835 7.34835C7.8728 6.8239 8.54099 6.46675 9.26841 6.32206C9.99584 6.17736 10.7498 6.25162 11.4351 6.53545C12.1203 6.81928 12.706 7.29993 13.118 7.91661C13.5301 8.5333 13.75 9.25832 13.75 10C13.749 10.9942 13.3535 11.9475 12.6505 12.6505C11.9475 13.3535 10.9942 13.749 10 13.75Z" fill="#191F2E"/>
</svg>
