<svg width="20" height="20" viewBox="0 0 20 20" fill="none" xmlns="http://www.w3.org/2000/svg">
<path d="M19.375 12.5C19.374 13.4942 18.9785 14.4474 18.2755 15.1505C17.5725 15.8535 16.6192 16.2489 15.625 16.25H11.875C10.4961 16.25 9.375 15.0976 9.375 13.6804C9.375 12.2632 10.4961 11.1109 11.875 11.1109C11.9622 11.1109 12.0493 11.1156 12.1359 11.125C12.456 10.3125 13.0496 9.63715 13.8143 9.21549C14.579 8.79382 15.4669 8.65226 16.3248 8.81521C17.1827 8.97817 17.9568 9.43542 18.5137 10.1081C19.0705 10.7808 19.3751 11.6267 19.375 12.5ZM8.75 5.62496C10.5408 5.62136 12.2616 6.32006 13.543 7.57105C13.6626 7.68245 13.8211 7.74257 13.9845 7.73851C14.1479 7.73446 14.3032 7.66655 14.4171 7.54935C14.531 7.43215 14.5945 7.27498 14.5939 7.11153C14.5934 6.94809 14.5288 6.79136 14.4141 6.67496C13.2689 5.5615 11.821 4.81026 10.2512 4.51514C8.68149 4.22002 7.05959 4.39412 5.58824 5.01567C4.1169 5.63722 2.86139 6.67865 1.97864 8.00978C1.09589 9.34092 0.625057 10.9027 0.625 12.5V13.75C0.625 13.9157 0.690848 14.0747 0.808058 14.1919C0.925268 14.3091 1.08424 14.375 1.25 14.375C1.41576 14.375 1.57473 14.3091 1.69194 14.1919C1.80915 14.0747 1.875 13.9157 1.875 13.75V12.5C1.87707 10.6772 2.60206 8.92975 3.89092 7.64088C5.17979 6.35202 6.92727 5.62702 8.75 5.62496ZM8.75 8.12496C9.68125 8.12239 10.5887 8.41929 11.3383 8.97183C11.4035 9.02798 11.4796 9.07005 11.5618 9.09543C11.644 9.1208 11.7306 9.12893 11.8161 9.11929C11.9016 9.10966 11.9842 9.08247 12.0587 9.03944C12.1332 8.9964 12.198 8.93845 12.2491 8.8692C12.3002 8.79995 12.3364 8.7209 12.3555 8.63701C12.3746 8.55311 12.3762 8.46617 12.3601 8.38164C12.3441 8.29711 12.3108 8.2168 12.2622 8.14574C12.2137 8.07469 12.151 8.01442 12.0781 7.96871C11.2402 7.35374 10.2483 6.98297 9.21242 6.89752C8.17657 6.81208 7.13729 7.01531 6.20993 7.48465C5.28256 7.954 4.50337 8.67111 3.95882 9.55641C3.41427 10.4417 3.12565 11.4606 3.125 12.5V13.75C3.125 13.9157 3.19085 14.0747 3.30806 14.1919C3.42527 14.3091 3.58424 14.375 3.75 14.375C3.91576 14.375 4.07473 14.3091 4.19194 14.1919C4.30915 14.0747 4.375 13.9157 4.375 13.75V12.5C4.37624 11.34 4.83758 10.2279 5.65778 9.40774C6.47798 8.58753 7.59006 8.1262 8.75 8.12496ZM9.93828 10.2117C9.95722 10.1318 9.96023 10.049 9.94716 9.96795C9.93409 9.88691 9.90518 9.80925 9.86208 9.73938C9.81899 9.66952 9.76256 9.60883 9.69601 9.56078C9.62946 9.51273 9.55409 9.47825 9.47422 9.45933C9.01504 9.34994 8.53705 9.34599 8.07612 9.44778C7.6152 9.54957 7.18332 9.75445 6.81292 10.047C6.44251 10.3396 6.1432 10.7123 5.93746 11.1372C5.73172 11.562 5.62489 12.0279 5.625 12.5V13.75C5.625 13.9157 5.69085 14.0747 5.80806 14.1919C5.92527 14.3091 6.08424 14.375 6.25 14.375C6.41576 14.375 6.57473 14.3091 6.69194 14.1919C6.80915 14.0747 6.875 13.9157 6.875 13.75V12.5C6.87494 12.2167 6.93906 11.9371 7.06255 11.6821C7.18604 11.4272 7.36569 11.2036 7.58801 11.028C7.81032 10.8525 8.06952 10.7296 8.34615 10.6686C8.62277 10.6075 8.90962 10.61 9.18516 10.6757C9.26508 10.6948 9.34798 10.6979 9.4291 10.6849C9.51023 10.6719 9.58799 10.643 9.65794 10.5999C9.72789 10.5568 9.78866 10.5003 9.83676 10.4337C9.88487 10.3671 9.91936 10.2916 9.93828 10.2117Z" fill="#191F2E"/>
</svg>
