<svg width="20" height="20" viewBox="0 0 20 20" fill="none" xmlns="http://www.w3.org/2000/svg">
<path d="M15.625 8.74996C14.8727 8.75182 14.1382 8.97908 13.5163 9.40242C12.8944 9.82575 12.4136 10.4257 12.1359 11.125C12.0493 11.1156 11.9622 11.1109 11.875 11.1109C10.4961 11.1109 9.375 12.264 9.375 13.6804C9.375 15.0968 10.4961 16.25 11.875 16.25H15.625C16.6196 16.25 17.5734 15.8549 18.2767 15.1516C18.9799 14.4483 19.375 13.4945 19.375 12.5C19.375 11.5054 18.9799 10.5516 18.2767 9.84831C17.5734 9.14505 16.6196 8.74996 15.625 8.74996ZM15.625 15H11.875C11.1859 15 10.625 14.4078 10.625 13.6804C10.625 12.9531 11.1859 12.3609 11.875 12.3609C12.0299 12.3604 12.1834 12.3907 12.3266 12.45C12.4117 12.4848 12.5034 12.5004 12.5953 12.4957C12.6871 12.491 12.7768 12.4661 12.8579 12.4227C12.939 12.3794 13.0096 12.3187 13.0645 12.2449C13.1195 12.1711 13.1575 12.0862 13.1758 11.9961C13.2711 11.5329 13.4958 11.1063 13.8238 10.7657C14.1518 10.4251 14.5697 10.1846 15.0289 10.0719C15.4881 9.95929 15.9699 9.97919 16.4183 10.1293C16.8667 10.2795 17.2633 10.5537 17.5621 10.9202C17.8609 11.2866 18.0496 11.7303 18.1064 12.1997C18.1632 12.6692 18.0857 13.1451 17.8828 13.5722C17.68 13.9994 17.3603 14.3602 16.9606 14.6129C16.561 14.8657 16.0978 14.9999 15.625 15ZM1.875 12.5V13.75C1.875 13.9157 1.80915 14.0747 1.69194 14.1919C1.57473 14.3091 1.41576 14.375 1.25 14.375C1.08424 14.375 0.925268 14.3091 0.808058 14.1919C0.690848 14.0747 0.625 13.9157 0.625 13.75V12.5C0.625057 10.9027 1.09589 9.34092 1.97864 8.00978C2.86139 6.67865 4.1169 5.63722 5.58824 5.01567C7.05959 4.39412 8.68149 4.22002 10.2512 4.51514C11.821 4.81026 13.2689 5.5615 14.4141 6.67496C14.5288 6.79136 14.5934 6.94809 14.5939 7.11153C14.5945 7.27498 14.531 7.43215 14.4171 7.54935C14.3032 7.66655 14.1479 7.73446 13.9845 7.73851C13.8211 7.74257 13.6626 7.68245 13.543 7.57105C12.574 6.62879 11.3488 5.99303 10.0205 5.74326C8.6922 5.49349 7.31974 5.64079 6.0747 6.16673C4.82965 6.69268 3.76725 7.57394 3.0203 8.70036C2.27334 9.82678 1.87498 11.1484 1.875 12.5ZM4.375 12.5V13.75C4.375 13.9157 4.30915 14.0747 4.19194 14.1919C4.07473 14.3091 3.91576 14.375 3.75 14.375C3.58424 14.375 3.42527 14.3091 3.30806 14.1919C3.19085 14.0747 3.125 13.9157 3.125 13.75V12.5C3.12565 11.4606 3.41427 10.4417 3.95882 9.55641C4.50337 8.67111 5.28256 7.954 6.20993 7.48465C7.13729 7.01531 8.17657 6.81208 9.21242 6.89752C10.2483 6.98297 11.2402 7.35374 12.0781 7.96871C12.1466 8.01636 12.2048 8.07724 12.2494 8.14776C12.294 8.21828 12.324 8.297 12.3376 8.37929C12.3513 8.46159 12.3483 8.54578 12.329 8.62692C12.3096 8.70806 12.2741 8.78449 12.2247 8.85172C12.1754 8.91894 12.113 8.9756 12.0414 9.01835C11.9697 9.06111 11.8903 9.08909 11.8077 9.10065C11.7251 9.1122 11.641 9.10711 11.5603 9.08565C11.4797 9.0642 11.4042 9.02683 11.3383 8.97574C10.6866 8.49751 9.9151 8.20919 9.10949 8.14277C8.30387 8.07635 7.4956 8.23442 6.77437 8.59945C6.05313 8.96448 5.44713 9.52219 5.02359 10.2107C4.60006 10.8992 4.37556 11.6916 4.375 12.5ZM9.18516 10.6757C8.90962 10.61 8.62277 10.6075 8.34615 10.6686C8.06952 10.7296 7.81032 10.8525 7.58801 11.028C7.36569 11.2036 7.18604 11.4272 7.06255 11.6821C6.93906 11.9371 6.87494 12.2167 6.875 12.5V13.75C6.875 13.9157 6.80915 14.0747 6.69194 14.1919C6.57473 14.3091 6.41576 14.375 6.25 14.375C6.08424 14.375 5.92527 14.3091 5.80806 14.1919C5.69085 14.0747 5.625 13.9157 5.625 13.75V12.5C5.62489 12.0279 5.73172 11.562 5.93746 11.1372C6.1432 10.7123 6.44251 10.3396 6.81292 10.047C7.18332 9.75445 7.6152 9.54957 8.07612 9.44778C8.53705 9.34599 9.01504 9.34994 9.47422 9.45933C9.55409 9.47831 9.62944 9.51284 9.69597 9.56094C9.76249 9.60904 9.8189 9.66977 9.86195 9.73967C9.90501 9.80957 9.93387 9.88726 9.9469 9.96832C9.95993 10.0494 9.95687 10.1322 9.93789 10.2121C9.91891 10.2919 9.88439 10.3673 9.83628 10.4338C9.78818 10.5003 9.72745 10.5567 9.65755 10.5998C9.58766 10.6429 9.50996 10.6717 9.42891 10.6848C9.34785 10.6978 9.26503 10.6947 9.18516 10.6757Z" fill="#191F2E"/>
</svg>
