<svg width="20" height="20" viewBox="0 0 20 20" fill="none" xmlns="http://www.w3.org/2000/svg">
<path d="M10 3.75C7.51442 3.75269 5.13141 4.74127 3.37384 6.49884C1.61627 8.25641 0.627688 10.6394 0.625 13.125V14.375C0.625 14.5408 0.690848 14.6997 0.808058 14.8169C0.925268 14.9342 1.08424 15 1.25 15H18.75C18.9158 15 19.0747 14.9342 19.1919 14.8169C19.3092 14.6997 19.375 14.5408 19.375 14.375V13.125C19.3723 10.6394 18.3837 8.25641 16.6262 6.49884C14.8686 4.74127 12.4856 3.75269 10 3.75ZM12.5 13.75C12.3342 13.75 12.1753 13.6842 12.0581 13.5669C11.9408 13.4497 11.875 13.2908 11.875 13.125C11.875 12.6277 11.6775 12.1508 11.3258 11.7992C10.9742 11.4475 10.4973 11.25 10 11.25C9.50272 11.25 9.02581 11.4475 8.67417 11.7992C8.32254 12.1508 8.125 12.6277 8.125 13.125C8.125 13.2908 8.05915 13.4497 7.94194 13.5669C7.82473 13.6842 7.66576 13.75 7.5 13.75C7.33424 13.75 7.17527 13.6842 7.05806 13.5669C6.94085 13.4497 6.875 13.2908 6.875 13.125C6.875 12.2962 7.20424 11.5013 7.79029 10.9153C8.37634 10.3292 9.1712 10 10 10C10.8288 10 11.6237 10.3292 12.2097 10.9153C12.7958 11.5013 13.125 12.2962 13.125 13.125C13.125 13.2908 13.0592 13.4497 12.9419 13.5669C12.8247 13.6842 12.6658 13.75 12.5 13.75ZM15 13.75C14.8342 13.75 14.6753 13.6842 14.5581 13.5669C14.4408 13.4497 14.375 13.2908 14.375 13.125C14.375 11.9647 13.9141 10.8519 13.0936 10.0314C12.2731 9.21094 11.1603 8.75 10 8.75C8.83968 8.75 7.72688 9.21094 6.90641 10.0314C6.08594 10.8519 5.625 11.9647 5.625 13.125C5.625 13.2908 5.55915 13.4497 5.44194 13.5669C5.32473 13.6842 5.16576 13.75 5 13.75C4.83424 13.75 4.67527 13.6842 4.55806 13.5669C4.44085 13.4497 4.375 13.2908 4.375 13.125C4.375 11.6332 4.96763 10.2024 6.02252 9.14752C7.07742 8.09263 8.50816 7.5 10 7.5C11.4918 7.5 12.9226 8.09263 13.9775 9.14752C15.0324 10.2024 15.625 11.6332 15.625 13.125C15.625 13.2908 15.5592 13.4497 15.4419 13.5669C15.3247 13.6842 15.1658 13.75 15 13.75ZM17.5 13.75C17.3342 13.75 17.1753 13.6842 17.0581 13.5669C16.9408 13.4497 16.875 13.2908 16.875 13.125C16.875 11.3016 16.1507 9.55295 14.8614 8.26364C13.572 6.97433 11.8234 6.25 10 6.25C8.17664 6.25 6.42795 6.97433 5.13864 8.26364C3.84933 9.55295 3.125 11.3016 3.125 13.125C3.125 13.2908 3.05915 13.4497 2.94194 13.5669C2.82473 13.6842 2.66576 13.75 2.5 13.75C2.33424 13.75 2.17527 13.6842 2.05806 13.5669C1.94085 13.4497 1.875 13.2908 1.875 13.125C1.875 10.9701 2.73102 8.90349 4.25476 7.37976C5.77849 5.85602 7.84512 5 10 5C12.1549 5 14.2215 5.85602 15.7452 7.37976C17.269 8.90349 18.125 10.9701 18.125 13.125C18.125 13.2908 18.0592 13.4497 17.9419 13.5669C17.8247 13.6842 17.6658 13.75 17.5 13.75Z" fill="#191F2E"/>
</svg>
