<svg width="20" height="20" viewBox="0 0 20 20" fill="none" xmlns="http://www.w3.org/2000/svg">
<path d="M16.4671 3.06641L6.29135 1.26953C5.96492 1.21209 5.62903 1.28664 5.35755 1.47681C5.08608 1.66697 4.90124 1.95717 4.8437 2.28359L2.51948 15.4867C2.49105 15.6485 2.49478 15.8142 2.53044 15.9745C2.5661 16.1348 2.633 16.2866 2.72732 16.421C2.82164 16.5554 2.94153 16.67 3.08013 16.7581C3.21873 16.8462 3.37334 16.9061 3.5351 16.9344L13.7109 18.7313C13.8727 18.7598 14.0385 18.7562 14.1989 18.7205C14.3593 18.6849 14.5111 18.6181 14.6457 18.5237C14.7802 18.4294 14.8948 18.3095 14.9829 18.1708C15.0711 18.0321 15.131 17.8775 15.1593 17.7156L17.4835 4.5125C17.5405 4.18596 17.4654 3.85017 17.2748 3.57898C17.0842 3.3078 16.7937 3.12342 16.4671 3.06641ZM13.9265 17.5L3.74995 15.7031L6.07417 2.5L16.2499 4.29688L13.9265 17.5ZM6.97964 4.56406C7.00859 4.40092 7.10114 4.25594 7.23694 4.16101C7.37275 4.06608 7.54069 4.02896 7.70386 4.05781L14.1882 5.20234C14.3423 5.22934 14.4807 5.31315 14.576 5.43723C14.6713 5.5613 14.7166 5.71661 14.703 5.87247C14.6894 6.02833 14.6178 6.1734 14.5023 6.27903C14.3869 6.38466 14.2361 6.44316 14.0796 6.44297C14.043 6.44292 14.0064 6.43978 13.9703 6.43359L7.48589 5.28828C7.32274 5.25933 7.17777 5.16678 7.08283 5.03098C6.9879 4.89517 6.95078 4.72723 6.97964 4.56406ZM6.54682 7.02656C6.56107 6.94571 6.5911 6.86846 6.63521 6.79921C6.67932 6.72997 6.73664 6.6701 6.80389 6.62301C6.87115 6.57593 6.94702 6.54255 7.02717 6.5248C7.10733 6.50704 7.1902 6.50525 7.27104 6.51953L13.7554 7.66484C13.9106 7.6908 14.0503 7.77434 14.1466 7.89878C14.2429 8.02321 14.2887 8.1794 14.2749 8.33614C14.2611 8.49288 14.1887 8.63864 14.0721 8.74432C13.9555 8.85001 13.8034 8.90783 13.646 8.90625C13.6091 8.90632 13.5722 8.90292 13.5359 8.89609L7.05151 7.75156C6.88849 7.72226 6.74377 7.62944 6.64914 7.4935C6.55451 7.35756 6.51771 7.18962 6.54682 7.02656ZM6.11323 9.48828C6.14272 9.32557 6.2355 9.18117 6.37124 9.08672C6.50699 8.99227 6.67463 8.95547 6.83745 8.98438L10.0781 9.55391C10.2321 9.58089 10.3704 9.66465 10.4658 9.78864C10.5611 9.91263 10.6064 10.0678 10.5929 10.2236C10.5793 10.3794 10.5079 10.5245 10.3926 10.6302C10.2774 10.7359 10.1266 10.7945 9.97026 10.7945C9.9336 10.7945 9.89701 10.7914 9.86089 10.7852L6.6187 10.2125C6.4557 10.1834 6.31091 10.0907 6.21614 9.95496C6.12137 9.81917 6.08436 9.65133 6.11323 9.48828Z" fill="#191F2E"/>
</svg>
