<svg width="20" height="20" viewBox="0 0 20 20" fill="none" xmlns="http://www.w3.org/2000/svg">
<path d="M16.4672 3.06641L6.29142 1.26953C5.96498 1.21209 5.62909 1.28664 5.35761 1.47681C5.08614 1.66697 4.90131 1.95717 4.84376 2.28359L2.51954 15.4867C2.49111 15.6485 2.49484 15.8142 2.5305 15.9745C2.56616 16.1348 2.63307 16.2866 2.72738 16.421C2.8217 16.5554 2.94159 16.67 3.08019 16.7581C3.2188 16.8462 3.3734 16.9061 3.53517 16.9344L13.7109 18.7313C13.8728 18.7598 14.0386 18.7562 14.199 18.7205C14.3594 18.6849 14.5112 18.6181 14.6457 18.5237C14.7802 18.4294 14.8949 18.3095 14.983 18.1708C15.0711 18.0321 15.1311 17.8775 15.1594 17.7156L17.4836 4.5125C17.5405 4.18596 17.4655 3.85017 17.2748 3.57898C17.0842 3.3078 16.7937 3.12342 16.4672 3.06641ZM10.5859 10.2781C10.5604 10.4227 10.4848 10.5537 10.3724 10.6481C10.26 10.7425 10.1179 10.7944 9.9711 10.7945C9.93444 10.7945 9.89786 10.7914 9.86173 10.7852L6.61954 10.2125C6.46546 10.1746 6.33156 10.0795 6.245 9.94653C6.15844 9.81354 6.12571 9.65261 6.15343 9.49637C6.18116 9.34014 6.26728 9.2003 6.39431 9.10522C6.52135 9.01014 6.67979 8.96694 6.83751 8.98438L10.0781 9.55391C10.1591 9.56806 10.2364 9.59803 10.3057 9.6421C10.3751 9.68617 10.435 9.74347 10.4822 9.81074C10.5293 9.878 10.5628 9.9539 10.5806 10.0341C10.5984 10.1143 10.6002 10.1972 10.5859 10.2781ZM14.2578 8.38906C14.2323 8.53351 14.1569 8.6644 14.0446 8.75881C13.9323 8.85322 13.7904 8.90513 13.6438 8.90547C13.6068 8.90554 13.5699 8.90214 13.5336 8.89531L7.04923 7.75078C6.88595 7.72188 6.74085 7.6293 6.64584 7.49341C6.55082 7.35752 6.51368 7.18945 6.54259 7.02617C6.57149 6.8629 6.66407 6.71779 6.79996 6.62278C6.93585 6.52777 7.10392 6.49063 7.2672 6.51953L13.7516 7.66484C13.8326 7.67891 13.91 7.70881 13.9794 7.75284C14.0488 7.79687 14.1089 7.85417 14.1561 7.92144C14.2034 7.98871 14.2369 8.06464 14.2547 8.14489C14.2726 8.22513 14.2744 8.3081 14.2602 8.38906H14.2578ZM14.6914 5.92656C14.6659 6.07115 14.5903 6.20213 14.4779 6.29656C14.3655 6.39098 14.2234 6.44282 14.0766 6.44297C14.0399 6.44292 14.0033 6.43978 13.9672 6.43359L7.48282 5.28828C7.40013 5.27611 7.32072 5.24748 7.2493 5.20408C7.17787 5.16068 7.11587 5.1034 7.06697 5.03562C7.01807 4.96784 6.98326 4.89094 6.9646 4.80947C6.94594 4.728 6.94381 4.64361 6.95834 4.5613C6.97287 4.479 7.00376 4.40044 7.04918 4.33028C7.0946 4.26012 7.15363 4.19978 7.22278 4.15284C7.29193 4.1059 7.3698 4.0733 7.45177 4.05698C7.53374 4.04065 7.61815 4.04094 7.70001 4.05781L14.1844 5.20234C14.2654 5.21632 14.343 5.24616 14.4125 5.29015C14.482 5.33414 14.5421 5.39142 14.5894 5.4587C14.6368 5.52598 14.6703 5.60195 14.6882 5.68223C14.7061 5.76252 14.708 5.84555 14.6938 5.92656H14.6914Z" fill="#191F2E"/>
</svg>
