<svg width="20" height="20" viewBox="0 0 20 20" fill="none" xmlns="http://www.w3.org/2000/svg">
<path d="M5.3125 7.8125C5.3125 7.56386 5.41127 7.3254 5.58709 7.14959C5.7629 6.97377 6.00136 6.875 6.25 6.875H13.75C13.9986 6.875 14.2371 6.97377 14.4129 7.14959C14.5887 7.3254 14.6875 7.56386 14.6875 7.8125C14.6875 8.06114 14.5887 8.2996 14.4129 8.47541C14.2371 8.65123 13.9986 8.75 13.75 8.75H6.25C6.00136 8.75 5.7629 8.65123 5.58709 8.47541C5.41127 8.2996 5.3125 8.06114 5.3125 7.8125ZM6.25 11.875H13.75C13.9986 11.875 14.2371 11.7762 14.4129 11.6004C14.5887 11.4246 14.6875 11.1861 14.6875 10.9375C14.6875 10.6889 14.5887 10.4504 14.4129 10.2746C14.2371 10.0988 13.9986 10 13.75 10H6.25C6.00136 10 5.7629 10.0988 5.58709 10.2746C5.41127 10.4504 5.3125 10.6889 5.3125 10.9375C5.3125 11.1861 5.41127 11.4246 5.58709 11.6004C5.7629 11.7762 6.00136 11.875 6.25 11.875ZM18.4375 4.375V16.25C18.4375 16.4098 18.3966 16.567 18.3188 16.7066C18.2409 16.8461 18.1287 16.9635 17.9927 17.0475C17.8567 17.1315 17.7015 17.1793 17.5419 17.1865C17.3822 17.1936 17.2234 17.1598 17.0805 17.0883L15 16.0484L12.9195 17.0883C12.7893 17.1535 12.6456 17.1874 12.5 17.1874C12.3544 17.1874 12.2107 17.1535 12.0805 17.0883L10 16.0484L7.91953 17.0883C7.78928 17.1535 7.64564 17.1874 7.5 17.1874C7.35436 17.1874 7.21072 17.1535 7.08047 17.0883L5 16.0484L2.91953 17.0883C2.77661 17.1598 2.61777 17.1936 2.45811 17.1865C2.29845 17.1793 2.14327 17.1315 2.0073 17.0475C1.87133 16.9635 1.75909 16.8461 1.68124 16.7066C1.60339 16.567 1.56252 16.4098 1.5625 16.25V4.375C1.5625 3.9606 1.72712 3.56317 2.02015 3.27015C2.31317 2.97712 2.7106 2.8125 3.125 2.8125H16.875C17.2894 2.8125 17.6868 2.97712 17.9799 3.27015C18.2729 3.56317 18.4375 3.9606 18.4375 4.375ZM16.5625 4.6875H3.4375V14.7328L4.58047 14.1617C4.71072 14.0965 4.85436 14.0626 5 14.0626C5.14564 14.0626 5.28928 14.0965 5.41953 14.1617L7.5 15.2016L9.58047 14.1617C9.71072 14.0965 9.85436 14.0626 10 14.0626C10.1456 14.0626 10.2893 14.0965 10.4195 14.1617L12.5 15.2016L14.5805 14.1617C14.7107 14.0965 14.8544 14.0626 15 14.0626C15.1456 14.0626 15.2893 14.0965 15.4195 14.1617L16.5625 14.7328V4.6875Z" fill="#191F2E"/>
</svg>
