<svg width="20" height="20" viewBox="0 0 20 20" fill="none" xmlns="http://www.w3.org/2000/svg">
<path d="M16.875 2.8125H3.125C2.7106 2.8125 2.31317 2.97712 2.02015 3.27015C1.72712 3.56317 1.5625 3.9606 1.5625 4.375V16.25C1.56252 16.4098 1.60339 16.567 1.68124 16.7066C1.75909 16.8461 1.87133 16.9635 2.0073 17.0475C2.14327 17.1315 2.29845 17.1793 2.45811 17.1865C2.61777 17.1936 2.77661 17.1598 2.91953 17.0883L5 16.0484L7.08047 17.0883C7.21072 17.1535 7.35436 17.1874 7.5 17.1874C7.64564 17.1874 7.78928 17.1535 7.91953 17.0883L10 16.0484L12.0805 17.0883C12.2107 17.1535 12.3544 17.1874 12.5 17.1874C12.6456 17.1874 12.7893 17.1535 12.9195 17.0883L15 16.0484L17.0805 17.0883C17.2234 17.1598 17.3822 17.1936 17.5419 17.1865C17.7015 17.1793 17.8567 17.1315 17.9927 17.0475C18.1287 16.9635 18.2409 16.8461 18.3188 16.7066C18.3966 16.567 18.4375 16.4098 18.4375 16.25V4.375C18.4375 3.9606 18.2729 3.56317 17.9799 3.27015C17.6868 2.97712 17.2894 2.8125 16.875 2.8125ZM16.5625 14.7328L15.4195 14.1617C15.2893 14.0965 15.1456 14.0626 15 14.0626C14.8544 14.0626 14.7107 14.0965 14.5805 14.1617L12.5 15.2016L10.4195 14.1617C10.2893 14.0965 10.1456 14.0626 10 14.0626C9.85436 14.0626 9.71072 14.0965 9.58047 14.1617L7.5 15.2016L5.41953 14.1617C5.28928 14.0965 5.14564 14.0626 5 14.0626C4.85436 14.0626 4.71072 14.0965 4.58047 14.1617L3.4375 14.7328V4.6875H16.5625V14.7328ZM7.46172 10.5867L8.67188 9.375L7.46172 8.16328C7.37451 8.07608 7.30534 7.97255 7.25814 7.85861C7.21095 7.74467 7.18666 7.62255 7.18666 7.49922C7.18666 7.25015 7.2856 7.01128 7.46172 6.83516C7.63784 6.65904 7.87671 6.56009 8.12578 6.56009C8.37485 6.56009 8.61372 6.65904 8.78984 6.83516L10 8.04688L11.2117 6.83438C11.3878 6.65825 11.6267 6.55931 11.8758 6.55931C12.1249 6.55931 12.3637 6.65825 12.5398 6.83438C12.716 7.0105 12.8149 7.24937 12.8149 7.49844C12.8149 7.74751 12.716 7.98638 12.5398 8.1625L11.3281 9.375L12.5406 10.5867C12.7167 10.7628 12.8157 11.0017 12.8157 11.2508C12.8157 11.4999 12.7167 11.7387 12.5406 11.9148C12.3645 12.091 12.1256 12.1899 11.8766 12.1899C11.6275 12.1899 11.3886 12.091 11.2125 11.9148L10 10.7031L8.78828 11.9156C8.61216 12.0917 8.37329 12.1907 8.12422 12.1907C7.87515 12.1907 7.63628 12.0917 7.46016 11.9156C7.28404 11.7395 7.18509 11.5006 7.18509 11.2516C7.18509 11.0025 7.28404 10.7636 7.46016 10.5875L7.46172 10.5867Z" fill="#191F2E"/>
</svg>
