<svg width="20" height="20" viewBox="0 0 20 20" fill="none" xmlns="http://www.w3.org/2000/svg">
<path d="M16.875 3.125H3.125C2.79348 3.125 2.47554 3.2567 2.24112 3.49112C2.0067 3.72554 1.875 4.04348 1.875 4.375V16.25C1.87506 16.3565 1.90234 16.4613 1.95426 16.5543C2.00618 16.6473 2.08101 16.7255 2.17165 16.7815C2.26228 16.8374 2.36572 16.8693 2.47214 16.874C2.57856 16.8788 2.68442 16.8563 2.77969 16.8086L5 15.6984L7.22031 16.8086C7.30714 16.852 7.4029 16.8747 7.5 16.8747C7.5971 16.8747 7.69286 16.852 7.77969 16.8086L10 15.6984L12.2203 16.8086C12.3071 16.852 12.4029 16.8747 12.5 16.8747C12.5971 16.8747 12.6929 16.852 12.7797 16.8086L15 15.6984L17.2203 16.8086C17.3156 16.8563 17.4214 16.8788 17.5279 16.874C17.6343 16.8693 17.7377 16.8374 17.8284 16.7815C17.919 16.7255 17.9938 16.6473 18.0457 16.5543C18.0977 16.4613 18.1249 16.3565 18.125 16.25V4.375C18.125 4.04348 17.9933 3.72554 17.7589 3.49112C17.5245 3.2567 17.2065 3.125 16.875 3.125ZM12.3172 10.8078C12.3753 10.8659 12.4213 10.9348 12.4527 11.0107C12.4842 11.0866 12.5003 11.1679 12.5003 11.25C12.5003 11.3321 12.4842 11.4134 12.4527 11.4893C12.4213 11.5652 12.3753 11.6341 12.3172 11.6922C12.2591 11.7503 12.1902 11.7963 12.1143 11.8277C12.0384 11.8592 11.9571 11.8753 11.875 11.8753C11.7929 11.8753 11.7116 11.8592 11.6357 11.8277C11.5598 11.7963 11.4909 11.7503 11.4328 11.6922L10 10.2586L8.56719 11.6922C8.50912 11.7503 8.44018 11.7963 8.36431 11.8277C8.28844 11.8592 8.20712 11.8753 8.125 11.8753C8.04288 11.8753 7.96156 11.8592 7.88569 11.8277C7.80982 11.7963 7.74088 11.7503 7.68281 11.6922C7.62474 11.6341 7.57868 11.5652 7.54725 11.4893C7.51583 11.4134 7.49965 11.3321 7.49965 11.25C7.49965 11.1679 7.51583 11.0866 7.54725 11.0107C7.57868 10.9348 7.62474 10.8659 7.68281 10.8078L9.11641 9.375L7.68281 7.94219C7.56554 7.82491 7.49965 7.66585 7.49965 7.5C7.49965 7.33415 7.56554 7.17509 7.68281 7.05781C7.80009 6.94054 7.95915 6.87465 8.125 6.87465C8.29085 6.87465 8.44991 6.94054 8.56719 7.05781L10 8.49141L11.4328 7.05781C11.4909 6.99974 11.5598 6.95368 11.6357 6.92225C11.7116 6.89083 11.7929 6.87465 11.875 6.87465C11.9571 6.87465 12.0384 6.89083 12.1143 6.92225C12.1902 6.95368 12.2591 6.99974 12.3172 7.05781C12.3753 7.11588 12.4213 7.18482 12.4527 7.26069C12.4842 7.33656 12.5003 7.41788 12.5003 7.5C12.5003 7.58212 12.4842 7.66344 12.4527 7.73931C12.4213 7.81518 12.3753 7.88412 12.3172 7.94219L10.8836 9.375L12.3172 10.8078Z" fill="#191F2E"/>
</svg>
