<svg width="20" height="20" viewBox="0 0 20 20" fill="none" xmlns="http://www.w3.org/2000/svg">
<path d="M10 1.875C8.39303 1.875 6.82214 2.35152 5.486 3.24431C4.14985 4.1371 3.10844 5.40605 2.49348 6.8907C1.87852 8.37535 1.71762 10.009 2.03112 11.5851C2.34463 13.1612 3.11846 14.6089 4.25476 15.7452C5.39106 16.8815 6.8388 17.6554 8.4149 17.9689C9.99099 18.2824 11.6247 18.1215 13.1093 17.5065C14.594 16.8916 15.8629 15.8502 16.7557 14.514C17.6485 13.1779 18.125 11.607 18.125 10C18.1227 7.84581 17.266 5.78051 15.7427 4.25727C14.2195 2.73403 12.1542 1.87727 10 1.875ZM10 16.875C8.64026 16.875 7.31105 16.4718 6.18046 15.7164C5.04987 14.9609 4.16868 13.8872 3.64833 12.6309C3.12798 11.3747 2.99183 9.99237 3.2571 8.65875C3.52238 7.32513 4.17716 6.10013 5.13864 5.13864C6.10013 4.17716 7.32514 3.52237 8.65876 3.2571C9.99238 2.99183 11.3747 3.12798 12.631 3.64833C13.8872 4.16868 14.9609 5.04987 15.7164 6.18045C16.4718 7.31104 16.875 8.64025 16.875 10C16.8729 11.8227 16.1479 13.5702 14.8591 14.8591C13.5702 16.1479 11.8227 16.8729 10 16.875ZM10 4.375C8.88748 4.375 7.79995 4.7049 6.87492 5.32298C5.94989 5.94107 5.22892 6.81957 4.80318 7.84741C4.37744 8.87524 4.26604 10.0062 4.48309 11.0974C4.70013 12.1885 5.23586 13.1908 6.02253 13.9775C6.8092 14.7641 7.81148 15.2999 8.90262 15.5169C9.99376 15.734 11.1248 15.6226 12.1526 15.1968C13.1804 14.7711 14.0589 14.0501 14.677 13.1251C15.2951 12.2001 15.625 11.1125 15.625 10C15.6233 8.50867 15.0302 7.07889 13.9757 6.02435C12.9211 4.96982 11.4913 4.37665 10 4.375ZM10 14.375C9.13471 14.375 8.28885 14.1184 7.56938 13.6377C6.84992 13.1569 6.28916 12.4737 5.95803 11.6742C5.6269 10.8748 5.54026 9.99515 5.70907 9.14648C5.87788 8.29781 6.29456 7.51826 6.90641 6.90641C7.51827 6.29455 8.29782 5.87787 9.14648 5.70906C9.99515 5.54025 10.8748 5.62689 11.6742 5.95803C12.4737 6.28916 13.157 6.84992 13.6377 7.56938C14.1184 8.28885 14.375 9.13471 14.375 10C14.3738 11.1599 13.9124 12.272 13.0922 13.0922C12.272 13.9124 11.1599 14.3738 10 14.375Z" fill="#191F2E"/>
</svg>
