<svg width="20" height="20" viewBox="0 0 20 20" fill="none" xmlns="http://www.w3.org/2000/svg">
<path d="M7.8125 16.2499C7.8125 16.4986 7.71373 16.737 7.53792 16.9128C7.3621 17.0886 7.12364 17.1874 6.875 17.1874H3.125C2.74114 17.1872 2.3641 17.0859 2.03177 16.8938C1.69943 16.7017 1.42349 16.4255 1.23167 16.093C1.03985 15.7605 0.938901 15.3834 0.938965 14.9995C0.939029 14.6157 1.0401 14.2386 1.23203 13.9062L3.53282 9.93116L3.16094 10.0304C3.04112 10.0651 2.91558 10.0756 2.79166 10.0612C2.66775 10.0467 2.54796 10.0077 2.4393 9.94645C2.33065 9.88515 2.23533 9.80278 2.15892 9.70417C2.08251 9.60556 2.02655 9.49269 1.99431 9.37218C1.96208 9.25166 1.95422 9.12593 1.9712 9.00234C1.98818 8.87875 2.02965 8.75979 2.09319 8.65244C2.15673 8.54508 2.24106 8.45148 2.34123 8.37713C2.44141 8.30278 2.55541 8.24917 2.67657 8.21945L5.23672 7.53429C5.47676 7.47009 5.73247 7.5038 5.94766 7.62802C6.16285 7.75225 6.31993 7.95682 6.38438 8.19679L7.0711 10.7569C7.10702 10.877 7.11848 11.0031 7.10483 11.1277C7.09117 11.2523 7.05266 11.3729 6.99158 11.4824C6.9305 11.5919 6.84809 11.688 6.74923 11.765C6.65036 11.8421 6.53704 11.8985 6.41597 11.931C6.29491 11.9635 6.16856 11.9714 6.04439 11.9542C5.92022 11.937 5.80076 11.8951 5.69308 11.831C5.58539 11.7668 5.49166 11.6817 5.41744 11.5807C5.34321 11.4797 5.29 11.3648 5.26094 11.2429L5.1625 10.8593L2.85782 14.8437C2.83053 14.8909 2.81609 14.9445 2.81594 14.9991C2.81579 15.0536 2.82992 15.1073 2.85695 15.1547C2.88397 15.2021 2.92293 15.2416 2.96996 15.2693C3.01699 15.2969 3.07044 15.3118 3.125 15.3124H6.875C7.12364 15.3124 7.3621 15.4112 7.53792 15.587C7.71373 15.7628 7.8125 16.0013 7.8125 16.2499ZM10 2.81241C10.055 2.8114 10.1093 2.82541 10.1569 2.85295C10.2045 2.88048 10.2437 2.92049 10.2703 2.96866L12.5711 6.94288L12.2 6.84366C12.0795 6.80697 11.9529 6.79493 11.8276 6.80826C11.7024 6.82159 11.5811 6.86001 11.4711 6.92124C11.361 6.98248 11.2644 7.06526 11.1871 7.16465C11.1097 7.26403 11.0532 7.37799 11.0208 7.49971C10.9885 7.62143 10.981 7.74842 10.9988 7.87311C11.0166 7.99779 11.0594 8.1176 11.1245 8.22539C11.1896 8.33318 11.2758 8.42674 11.3779 8.50048C11.48 8.57423 11.596 8.62664 11.7188 8.6546L14.2789 9.34132C14.5189 9.40552 14.7747 9.37181 14.9898 9.24759C15.205 9.12336 15.3621 8.91879 15.4266 8.67882L16.1094 6.1171C16.1738 5.87675 16.1401 5.62064 16.0157 5.40512C15.9542 5.29841 15.8722 5.20487 15.7744 5.12985C15.6767 5.05482 15.5651 4.99979 15.4461 4.96788C15.2057 4.90344 14.9496 4.93712 14.7341 5.06151C14.5186 5.1859 14.3613 5.39081 14.2969 5.63116L14.1945 6.01085L11.893 2.03116C11.7008 1.69931 11.4247 1.42381 11.0925 1.23228C10.7602 1.04076 10.3835 0.939941 10 0.939941C9.61651 0.939941 9.23976 1.04076 8.90752 1.23228C8.57528 1.42381 8.29922 1.69931 8.10704 2.03116L6.29766 5.15616C6.23129 5.26288 6.18705 5.38186 6.16758 5.50602C6.14811 5.63018 6.1538 5.75698 6.18432 5.8789C6.21483 6.00081 6.26955 6.11535 6.34521 6.2157C6.42088 6.31604 6.51595 6.40015 6.62476 6.46302C6.73358 6.5259 6.85393 6.56625 6.97866 6.58168C7.10339 6.59711 7.22994 6.5873 7.3508 6.55284C7.47166 6.51839 7.58436 6.45998 7.6822 6.3811C7.78003 6.30222 7.86101 6.20447 7.92032 6.09366L9.72969 2.96866C9.75627 2.92049 9.79548 2.88048 9.84312 2.85295C9.89075 2.82541 9.94499 2.8114 10 2.81241ZM18.7648 13.9062L16.957 10.7812C16.8977 10.6704 16.8168 10.5726 16.7189 10.4937C16.6211 10.4148 16.5084 10.3564 16.3875 10.322C16.2667 10.2875 16.1401 10.2777 16.0154 10.2932C15.8907 10.3086 15.7703 10.3489 15.6615 10.4118C15.5527 10.4747 15.4576 10.5588 15.3819 10.6591C15.3063 10.7595 15.2516 10.874 15.221 10.9959C15.1905 11.1178 15.1848 11.2446 15.2043 11.3688C15.2238 11.493 15.268 11.6119 15.3344 11.7187L17.1422 14.8437C17.1696 14.8911 17.184 14.945 17.1841 14.9998C17.1841 15.0547 17.1697 15.1085 17.1423 15.156C17.1149 15.2035 17.0755 15.243 17.028 15.2704C16.9806 15.2979 16.9267 15.3124 16.8719 15.3124H12.2656L12.5398 15.0382C12.6271 14.951 12.6962 14.8475 12.7434 14.7335C12.7906 14.6196 12.8149 14.4975 12.8149 14.3741C12.8149 14.2508 12.7906 14.1287 12.7434 14.0147C12.6962 13.9008 12.6271 13.7973 12.5398 13.7101C12.4526 13.6229 12.3491 13.5537 12.2352 13.5065C12.1212 13.4593 11.9991 13.435 11.8758 13.435C11.7525 13.435 11.6303 13.4593 11.5164 13.5065C11.4025 13.5537 11.2989 13.6229 11.2117 13.7101L9.33672 15.5851C9.24932 15.6722 9.17998 15.7757 9.13266 15.8896C9.08534 16.0036 9.06098 16.1257 9.06098 16.2491C9.06098 16.3725 9.08534 16.4947 9.13266 16.6087C9.17998 16.7226 9.24932 16.8261 9.33672 16.9132L11.2117 18.7882C11.2989 18.8754 11.4025 18.9446 11.5164 18.9918C11.6303 19.039 11.7525 19.0633 11.8758 19.0633C11.9991 19.0633 12.1212 19.039 12.2352 18.9918C12.3491 18.9446 12.4526 18.8754 12.5398 18.7882C12.6271 18.701 12.6962 18.5975 12.7434 18.4835C12.7906 18.3696 12.8149 18.2475 12.8149 18.1241C12.8149 18.0008 12.7906 17.8787 12.7434 17.7647C12.6962 17.6508 12.6271 17.5473 12.5398 17.4601L12.2656 17.1874H16.875C17.2589 17.1872 17.6359 17.0859 17.9682 16.8938C18.3006 16.7017 18.5765 16.4255 18.7683 16.093C18.9602 15.7605 19.0611 15.3834 19.061 14.9995C19.061 14.6157 18.9599 14.2386 18.768 13.9062H18.7648Z" fill="#191F2E"/>
</svg>
