<svg width="20" height="20" viewBox="0 0 20 20" fill="none" xmlns="http://www.w3.org/2000/svg">
<path d="M7.50002 16.25C7.50002 16.4157 7.43417 16.5747 7.31696 16.6919C7.19975 16.8091 7.04078 16.875 6.87502 16.875H3.12502C2.79598 16.8748 2.4728 16.788 2.18792 16.6233C1.90304 16.4587 1.66651 16.222 1.50208 15.937C1.33765 15.652 1.25111 15.3287 1.25116 14.9997C1.25121 14.6707 1.33784 14.3474 1.50236 14.0625L3.68986 10.289L2.61017 9.66404C2.50197 9.60273 2.41452 9.51054 2.35901 9.39925C2.3035 9.28796 2.28245 9.16264 2.29856 9.03933C2.31467 8.91601 2.3672 8.8003 2.44943 8.70701C2.53166 8.61371 2.63986 8.54707 2.76017 8.5156L5.32033 7.83045C5.39964 7.80919 5.48236 7.80376 5.56376 7.81448C5.64517 7.82519 5.72366 7.85184 5.79476 7.89291C5.86586 7.93397 5.92818 7.98864 5.97814 8.0538C6.0281 8.11895 6.06474 8.19332 6.08596 8.27264L6.77268 10.8328C6.80473 10.9522 6.80064 11.0785 6.76091 11.1956C6.72118 11.3127 6.64761 11.4154 6.5495 11.4907C6.45138 11.5659 6.33315 11.6104 6.20975 11.6185C6.08635 11.6265 5.96333 11.5978 5.85627 11.5359L4.77189 10.9109L2.58674 14.6875C2.53201 14.7823 2.50313 14.8898 2.503 14.9992C2.50287 15.1087 2.53149 15.2163 2.58599 15.3112C2.64049 15.4061 2.71897 15.4851 2.81356 15.5401C2.90816 15.5952 3.01556 15.6245 3.12502 15.625H6.87502C7.04078 15.625 7.19975 15.6908 7.31696 15.808C7.43417 15.9252 7.50002 16.0842 7.50002 16.25ZM10 2.49998C10.1099 2.49888 10.218 2.5273 10.3131 2.58227C10.4082 2.63724 10.4868 2.71675 10.5406 2.81248L12.7281 6.58592L11.6485 7.21092C11.5423 7.27288 11.4567 7.36479 11.4025 7.47513C11.3483 7.58547 11.3279 7.70935 11.3437 7.83126C11.3595 7.95318 11.411 8.06771 11.4916 8.16053C11.5722 8.25335 11.6784 8.32034 11.7969 8.3531L14.3578 9.03982C14.4106 9.05369 14.465 9.06078 14.5196 9.06092C14.657 9.06079 14.7907 9.01532 14.8997 8.93157C15.0087 8.84782 15.0871 8.73044 15.1227 8.59764L15.8094 6.03592C15.8413 5.91659 15.8371 5.79047 15.7974 5.67351C15.7577 5.55654 15.6842 5.45396 15.5863 5.37873C15.4883 5.3035 15.3702 5.25898 15.247 5.2508C15.1237 5.24263 15.0008 5.27116 14.8938 5.33279L13.8086 5.95779L11.6227 2.18748C11.458 1.90298 11.2213 1.66678 10.9365 1.50259C10.6517 1.33839 10.3288 1.25195 10 1.25195C9.67127 1.25195 9.34831 1.33839 9.06351 1.50259C8.77871 1.66678 8.54208 1.90298 8.37736 2.18748L6.56799 5.31248C6.49025 5.45564 6.47148 5.62351 6.51568 5.7803C6.55988 5.9371 6.66356 6.07045 6.80463 6.15193C6.94569 6.23342 7.113 6.2566 7.27091 6.21654C7.42882 6.17648 7.56485 6.07635 7.65002 5.93748L9.45939 2.81248C9.51326 2.71675 9.59185 2.63724 9.68696 2.58227C9.78206 2.5273 9.89018 2.49888 10 2.49998ZM18.4945 14.0625L16.6867 10.9375C16.6003 10.8014 16.4646 10.7041 16.308 10.6657C16.1514 10.6274 15.9861 10.651 15.8465 10.7317C15.7069 10.8123 15.604 10.9438 15.559 11.0986C15.5141 11.2535 15.5308 11.4196 15.6055 11.5625L17.4133 14.6875C17.468 14.7823 17.4969 14.8898 17.497 14.9992C17.4972 15.1087 17.4686 15.2163 17.414 15.3112C17.3595 15.4061 17.2811 15.4851 17.1865 15.5401C17.0919 15.5952 16.9845 15.6245 16.875 15.625H12.5V14.375C12.5001 14.2513 12.4635 14.1304 12.3948 14.0275C12.3262 13.9246 12.2285 13.8444 12.1143 13.7971C12 13.7497 11.8743 13.7374 11.753 13.7615C11.6316 13.7857 11.5202 13.8453 11.4328 13.9328L9.55783 15.8078C9.49972 15.8658 9.45362 15.9348 9.42217 16.0106C9.39072 16.0865 9.37453 16.1678 9.37453 16.25C9.37453 16.3321 9.39072 16.4134 9.42217 16.4893C9.45362 16.5652 9.49972 16.6341 9.55783 16.6922L11.4328 18.5672C11.5202 18.6547 11.6316 18.7143 11.753 18.7384C11.8743 18.7626 12 18.7502 12.1143 18.7029C12.2285 18.6555 12.3262 18.5753 12.3948 18.4725C12.4635 18.3696 12.5001 18.2487 12.5 18.125V16.875H16.875C17.2041 16.8748 17.5272 16.788 17.8121 16.6233C18.097 16.4587 18.3335 16.222 18.498 15.937C18.6624 15.652 18.7489 15.3287 18.7489 14.9997C18.7488 14.6707 18.6622 14.3474 18.4977 14.0625H18.4945Z" fill="#191F2E"/>
</svg>
