<svg width="20" height="20" viewBox="0 0 20 20" fill="none" xmlns="http://www.w3.org/2000/svg">
<path d="M7.49999 16.25C7.49999 16.4157 7.43414 16.5747 7.31693 16.6919C7.19972 16.8091 7.04075 16.875 6.87499 16.875H3.12499C2.79595 16.8748 2.47277 16.788 2.18789 16.6233C1.90301 16.4587 1.66648 16.222 1.50205 15.937C1.33762 15.652 1.25108 15.3287 1.25113 14.9997C1.25118 14.6707 1.33781 14.3474 1.50233 14.0625L4.18124 9.43357L3.08358 9.72654C3.00407 9.74778 2.92115 9.75315 2.83957 9.74234C2.75798 9.73153 2.67932 9.70476 2.60808 9.66356C2.46421 9.58034 2.35928 9.44337 2.31639 9.28279C2.2735 9.12221 2.29616 8.95117 2.37938 8.80729C2.4626 8.66342 2.59956 8.55849 2.76014 8.5156L5.3203 7.83045C5.39961 7.80919 5.48233 7.80376 5.56373 7.81447C5.64514 7.82519 5.72363 7.85184 5.79473 7.89291C5.86583 7.93397 5.92814 7.98864 5.97811 8.0538C6.02807 8.11895 6.06471 8.19332 6.08593 8.27263L6.77264 10.8328C6.79434 10.9125 6.80002 10.9956 6.78938 11.0775C6.77874 11.1594 6.75198 11.2384 6.71065 11.3098C6.66932 11.3813 6.61423 11.4439 6.54857 11.494C6.48291 11.544 6.40798 11.5806 6.32811 11.6015C6.27505 11.6154 6.22045 11.6224 6.16561 11.6226C6.02812 11.6225 5.89451 11.577 5.78548 11.4933C5.67644 11.4095 5.59806 11.2922 5.56249 11.1594L5.26561 10.0539L2.58671 14.6875C2.53198 14.7823 2.5031 14.8898 2.50297 14.9992C2.50284 15.1087 2.53145 15.2163 2.58596 15.3112C2.64046 15.4061 2.71894 15.4851 2.81353 15.5401C2.90813 15.5952 3.01553 15.6245 3.12499 15.625H6.87499C7.04075 15.625 7.19972 15.6908 7.31693 15.808C7.43414 15.9252 7.49999 16.0842 7.49999 16.25ZM18.4945 14.0625L16.6867 10.9375C16.6002 10.8014 16.4645 10.7041 16.308 10.6657C16.1514 10.6274 15.986 10.651 15.8465 10.7317C15.7069 10.8123 15.6039 10.9438 15.559 11.0986C15.5141 11.2535 15.5307 11.4196 15.6055 11.5625L17.4133 14.6875C17.468 14.7823 17.4969 14.8898 17.497 14.9992C17.4971 15.1087 17.4685 15.2163 17.414 15.3112C17.3595 15.4061 17.281 15.4851 17.1864 15.5401C17.0918 15.5952 16.9844 15.6245 16.875 15.625H11.5086L12.3164 14.8172C12.4337 14.7 12.4996 14.541 12.4997 14.3753C12.4997 14.2095 12.434 14.0505 12.3168 13.9332C12.1996 13.8159 12.0407 13.75 11.8749 13.7499C11.7091 13.7498 11.5501 13.8156 11.4328 13.9328L9.5578 15.8078C9.49969 15.8658 9.45359 15.9348 9.42214 16.0106C9.39069 16.0865 9.3745 16.1678 9.3745 16.25C9.3745 16.3321 9.39069 16.4134 9.42214 16.4893C9.45359 16.5652 9.49969 16.6341 9.5578 16.6922L11.4328 18.5672C11.4909 18.6252 11.5598 18.6712 11.6356 18.7026C11.7115 18.734 11.7928 18.7501 11.8749 18.75C11.957 18.75 12.0382 18.7338 12.1141 18.7024C12.1899 18.6709 12.2588 18.6248 12.3168 18.5668C12.3748 18.5087 12.4208 18.4398 12.4522 18.3639C12.4836 18.2881 12.4997 18.2068 12.4997 18.1247C12.4996 18.0426 12.4834 17.9613 12.452 17.8855C12.4205 17.8097 12.3745 17.7408 12.3164 17.6828L11.5086 16.875H16.875C17.204 16.8748 17.5272 16.788 17.8121 16.6233C18.097 16.4587 18.3335 16.222 18.4979 15.937C18.6624 15.652 18.7489 15.3287 18.7488 14.9997C18.7488 14.6707 18.6622 14.3474 18.4976 14.0625H18.4945ZM9.99999 2.49998C10.1098 2.49888 10.218 2.5273 10.3131 2.58227C10.4082 2.63724 10.4867 2.71675 10.5406 2.81248L13.2195 7.44138L12.1195 7.14607C11.9614 7.10895 11.795 7.13486 11.6556 7.21832C11.5163 7.30177 11.4149 7.4362 11.3729 7.59313C11.331 7.75006 11.3518 7.91716 11.4309 8.05903C11.51 8.20089 11.6413 8.30636 11.7969 8.3531L14.3578 9.03982C14.4106 9.05369 14.4649 9.06078 14.5195 9.06092C14.657 9.06079 14.7906 9.01532 14.8997 8.93157C15.0087 8.84781 15.0871 8.73044 15.1226 8.59763L15.8094 6.03592C15.8329 5.95594 15.8403 5.87205 15.8309 5.78919C15.8216 5.70633 15.7958 5.62618 15.755 5.55346C15.7142 5.48073 15.6593 5.41691 15.5934 5.36573C15.5276 5.31456 15.4522 5.27708 15.3716 5.2555C15.2911 5.23392 15.207 5.22867 15.1244 5.24007C15.0418 5.25146 14.9624 5.27927 14.8907 5.32186C14.819 5.36444 14.7565 5.42094 14.707 5.48803C14.6575 5.55511 14.6219 5.63143 14.6023 5.71248L14.3055 6.81951L11.6226 2.18748C11.4579 1.90298 11.2213 1.66678 10.9365 1.50259C10.6517 1.33839 10.3287 1.25195 9.99999 1.25195C9.67124 1.25195 9.34828 1.33839 9.06348 1.50259C8.77868 1.66678 8.54205 1.90298 8.37733 2.18748L6.56796 5.31248C6.49022 5.45564 6.47145 5.6235 6.51565 5.7803C6.55985 5.9371 6.66353 6.07045 6.8046 6.15193C6.94566 6.23341 7.11297 6.2566 7.27088 6.21654C7.42879 6.17648 7.56482 6.07635 7.64999 5.93748L9.45936 2.81248C9.51323 2.71675 9.59182 2.63724 9.68692 2.58227C9.78203 2.5273 9.89015 2.49888 9.99999 2.49998Z" fill="#191F2E"/>
</svg>
