<svg width="20" height="20" viewBox="0 0 20 20" fill="none" xmlns="http://www.w3.org/2000/svg">
<path d="M19.6875 8.125C19.6872 7.60446 19.5425 7.09422 19.2694 6.65106C18.9964 6.2079 18.6057 5.84922 18.1408 5.61494C17.676 5.38066 17.1553 5.27997 16.6366 5.3241C16.1179 5.36822 15.6217 5.55541 15.2031 5.86484C13.9182 5.23351 12.5255 4.8505 11.0984 4.73593L11.3953 2.9539L12.6195 3.15781C12.7642 3.54438 13.0324 3.87239 13.3826 4.09098C13.7327 4.30957 14.1452 4.40652 14.556 4.36678C14.9669 4.32705 15.3531 4.15285 15.6549 3.87122C15.9566 3.58959 16.157 3.21625 16.225 2.80912C16.2929 2.40199 16.2246 1.98381 16.0307 1.61946C15.8367 1.2551 15.5279 0.964924 15.1523 0.793936C14.7766 0.622948 14.355 0.580705 13.9528 0.673757C13.5507 0.76681 13.1905 0.989958 12.9281 1.30859L10.7812 0.949997C10.6598 0.929396 10.5354 0.932944 10.4153 0.960439C10.2952 0.987934 10.1817 1.03884 10.0813 1.11023C9.98085 1.18163 9.89548 1.27212 9.83006 1.37654C9.76464 1.48095 9.72045 1.59724 9.7 1.71875L9.20156 4.71172C7.61563 4.81406 6.09375 5.21093 4.79688 5.86484C4.23136 5.45076 3.53161 5.26276 2.83471 5.33767C2.13782 5.41259 1.49401 5.74501 1.02942 6.26983C0.564832 6.79464 0.312946 7.47402 0.323111 8.17485C0.333276 8.87569 0.604761 9.54747 1.08438 10.0586C0.98689 10.4482 0.937563 10.8483 0.937501 11.25C0.937501 13.0695 1.92578 14.7555 3.72109 15.9984C5.41094 17.168 7.64063 17.8125 10 17.8125C12.3594 17.8125 14.5891 17.168 16.2789 15.9984C18.0742 14.7555 19.0625 13.0695 19.0625 11.25C19.0624 10.8483 19.0131 10.4482 18.9156 10.0586C19.4097 9.53583 19.6858 8.84429 19.6875 8.125ZM17.3508 8.93281C17.1547 9.04764 17.007 9.22976 16.9352 9.44531C16.8633 9.66087 16.8722 9.89518 16.9602 10.1047C17.1079 10.4686 17.1851 10.8573 17.1875 11.25C17.1875 12.4359 16.4844 13.5742 15.2117 14.457C13.832 15.4117 11.9813 15.9375 10 15.9375C8.01875 15.9375 6.17188 15.4117 4.78828 14.457C3.51563 13.5742 2.8125 12.4359 2.8125 11.25C2.81362 10.8582 2.88891 10.4701 3.03438 10.1062C3.1228 9.89737 3.1325 9.66352 3.06168 9.44804C2.99086 9.23256 2.84432 9.05006 2.64922 8.93437C2.52859 8.86393 2.42523 8.76742 2.3467 8.6519C2.26816 8.53638 2.21643 8.40477 2.19529 8.26669C2.17415 8.12861 2.18413 7.98755 2.22451 7.85383C2.26489 7.7201 2.33463 7.59709 2.42866 7.49378C2.52268 7.39047 2.6386 7.30948 2.76795 7.25673C2.89729 7.20398 3.03679 7.18079 3.17625 7.18888C3.3157 7.19696 3.45159 7.23611 3.57397 7.30345C3.69635 7.3708 3.80214 7.46464 3.88359 7.57812C4.02215 7.76821 4.2271 7.89927 4.45778 7.94529C4.68846 7.99131 4.92802 7.94893 5.12891 7.82656L5.14609 7.8164C6.47969 7.00625 8.20313 6.5625 10 6.5625C11.7969 6.5625 13.5156 7.00703 14.8508 7.8125L14.868 7.82265C15.0687 7.94634 15.3086 7.98987 15.54 7.94455C15.7714 7.89923 15.9772 7.7684 16.1164 7.57812C16.2024 7.45708 16.3162 7.35844 16.4482 7.29047C16.5802 7.2225 16.7265 7.18718 16.875 7.1875C17.0807 7.18749 17.2807 7.25513 17.4441 7.37998C17.6076 7.50484 17.7254 7.67998 17.7795 7.87843C17.8336 8.07687 17.8209 8.28759 17.7435 8.47813C17.666 8.66866 17.528 8.82843 17.3508 8.93281ZM6.875 11.5625C6.56597 11.5625 6.26387 11.4709 6.00692 11.2992C5.74997 11.1275 5.5497 10.8834 5.43144 10.5979C5.31318 10.3124 5.28223 9.99826 5.34252 9.69517C5.40281 9.39207 5.55163 9.11366 5.77015 8.89514C5.98867 8.67662 6.26708 8.52781 6.57017 8.46752C6.87327 8.40723 7.18743 8.43817 7.47294 8.55643C7.75845 8.6747 8.00248 8.87497 8.17417 9.13192C8.34586 9.38887 8.4375 9.69096 8.4375 10C8.4375 10.4144 8.27288 10.8118 7.97986 11.1049C7.68683 11.3979 7.2894 11.5625 6.875 11.5625ZM14.6875 10C14.6875 10.309 14.5959 10.6111 14.4242 10.8681C14.2525 11.125 14.0085 11.3253 13.7229 11.4436C13.4374 11.5618 13.1233 11.5928 12.8202 11.5325C12.5171 11.4722 12.2387 11.3234 12.0201 11.1049C11.8016 10.8863 11.6528 10.6079 11.5925 10.3048C11.5322 10.0017 11.5632 9.68756 11.6814 9.40205C11.7997 9.11654 12 8.87251 12.2569 8.70082C12.5139 8.52913 12.816 8.4375 13.125 8.4375C13.5394 8.4375 13.9368 8.60212 14.2299 8.89514C14.5229 9.18817 14.6875 9.5856 14.6875 10ZM13.0844 13.1656C13.1205 13.2836 13.133 13.4076 13.1211 13.5304C13.1092 13.6532 13.0732 13.7724 13.0152 13.8813C12.9571 13.9902 12.8781 14.0865 12.7827 14.1648C12.6874 14.2431 12.5775 14.3018 12.4594 14.3375C10.8526 14.809 9.14426 14.809 7.5375 14.3375C7.29922 14.265 7.09951 14.1008 6.9823 13.881C6.86509 13.6612 6.83998 13.4039 6.9125 13.1656C6.98502 12.9273 7.14923 12.7276 7.369 12.6104C7.58877 12.4932 7.8461 12.4681 8.08438 12.5406C9.33476 12.9025 10.6621 12.9025 11.9125 12.5406C12.0305 12.5045 12.1544 12.492 12.2772 12.5039C12.4001 12.5158 12.5193 12.5518 12.6282 12.6098C12.7371 12.6679 12.8334 12.7469 12.9117 12.8422C12.99 12.9376 13.0487 13.0475 13.0844 13.1656Z" fill="#191F2E"/>
</svg>
