<svg width="20" height="20" viewBox="0 0 20 20" fill="none" xmlns="http://www.w3.org/2000/svg">
<path d="M19.375 8.12499C19.3749 7.64591 19.2372 7.17696 18.9781 6.77394C18.7191 6.37092 18.3498 6.05081 17.914 5.8517C17.4783 5.6526 16.9945 5.58288 16.5203 5.65086C16.0461 5.71884 15.6013 5.92165 15.2391 6.23514C13.9305 5.53983 12.3672 5.11952 10.7344 5.02186L11.1399 2.5867L12.5242 2.7992C12.5945 3.2359 12.8168 3.6337 13.152 3.92231C13.4872 4.21092 13.9136 4.37174 14.3559 4.37636C14.7982 4.38098 15.2278 4.2291 15.569 3.94755C15.9101 3.66601 16.1407 3.27294 16.22 2.8378C16.2994 2.40267 16.2223 1.9535 16.0025 1.56968C15.7827 1.18585 15.4343 0.892092 15.0189 0.740314C14.6034 0.588537 14.1477 0.588514 13.7322 0.740252C13.3168 0.891989 12.9683 1.18572 12.7485 1.56952L10.7172 1.25702C10.5547 1.23196 10.3889 1.27195 10.2557 1.36832C10.1224 1.46469 10.0326 1.60968 10.0055 1.77186L9.46878 5.01249C7.76253 5.08592 6.12346 5.51092 4.76096 6.23514C4.26339 5.81481 3.62141 5.60526 2.97167 5.65111C2.32193 5.69696 1.71574 5.99458 1.28212 6.48063C0.848508 6.96668 0.621711 7.60277 0.650006 8.25351C0.678301 8.90425 0.959453 9.51825 1.43362 9.96483C1.3121 10.3824 1.25029 10.8151 1.25003 11.25C1.25003 12.9633 2.18753 14.5586 3.89924 15.7414C5.53753 16.875 7.70393 17.5 10 17.5C12.2961 17.5 14.4625 16.875 16.1008 15.7414C17.8125 14.5586 18.75 12.9633 18.75 11.25C18.7498 10.8151 18.688 10.3824 18.5664 9.96483C18.8206 9.73031 19.0236 9.44586 19.1627 9.12928C19.3018 8.81269 19.3741 8.47079 19.375 8.12499ZM14.375 1.87499C14.4986 1.87499 14.6195 1.91164 14.7223 1.98032C14.825 2.04899 14.9051 2.1466 14.9524 2.26081C14.9998 2.37501 15.0121 2.50068 14.988 2.62192C14.9639 2.74316 14.9044 2.85452 14.817 2.94193C14.7296 3.02934 14.6182 3.08886 14.497 3.11298C14.3757 3.13709 14.2501 3.12472 14.1358 3.07741C14.0216 3.03011 13.924 2.95 13.8554 2.84722C13.7867 2.74444 13.75 2.6236 13.75 2.49999C13.75 2.33423 13.8159 2.17525 13.9331 2.05804C14.0503 1.94083 14.2093 1.87499 14.375 1.87499ZM5.62503 9.99999C5.62503 9.75276 5.69834 9.51108 5.83569 9.30552C5.97304 9.09996 6.16826 8.93975 6.39667 8.84514C6.62508 8.75053 6.87641 8.72577 7.11889 8.774C7.36136 8.82224 7.58409 8.94129 7.75891 9.1161C7.93372 9.29092 8.05278 9.51365 8.10101 9.75612C8.14924 9.9986 8.12449 10.2499 8.02988 10.4783C7.93527 10.7067 7.77505 10.902 7.56949 11.0393C7.36393 11.1767 7.12225 11.25 6.87503 11.25C6.54351 11.25 6.22556 11.1183 5.99114 10.8839C5.75672 10.6494 5.62503 10.3315 5.62503 9.99999ZM12.793 14.3023C11.933 14.7594 10.9739 14.9984 10 14.9984C9.02611 14.9984 8.06707 14.7594 7.20706 14.3023C7.13452 14.2639 7.07028 14.2115 7.01799 14.1482C6.96569 14.0849 6.92638 14.0119 6.9023 13.9334C6.87821 13.8549 6.86983 13.7724 6.87761 13.6907C6.8854 13.609 6.90921 13.5296 6.94768 13.457C6.98616 13.3845 7.03854 13.3202 7.10184 13.2679C7.16514 13.2157 7.23813 13.1763 7.31662 13.1523C7.39511 13.1282 7.47758 13.1198 7.55932 13.1276C7.64106 13.1354 7.72046 13.1592 7.79299 13.1976C8.47255 13.5589 9.2304 13.7479 10 13.7479C10.7696 13.7479 11.5275 13.5589 12.2071 13.1976C12.2796 13.1592 12.359 13.1354 12.4407 13.1276C12.5225 13.1198 12.6049 13.1282 12.6834 13.1523C12.7619 13.1763 12.8349 13.2157 12.8982 13.2679C12.9615 13.3202 13.0139 13.3845 13.0524 13.457C13.0908 13.5296 13.1147 13.609 13.1224 13.6907C13.1302 13.7724 13.1218 13.8549 13.0978 13.9334C13.0737 14.0119 13.0344 14.0849 12.9821 14.1482C12.9298 14.2115 12.8655 14.2639 12.793 14.3023ZM13.125 11.25C12.8778 11.25 12.6361 11.1767 12.4306 11.0393C12.225 10.902 12.0648 10.7067 11.9702 10.4783C11.8756 10.2499 11.8508 9.9986 11.899 9.75612C11.9473 9.51365 12.0663 9.29092 12.2411 9.1161C12.416 8.94129 12.6387 8.82224 12.8812 8.774C13.1236 8.72577 13.375 8.75053 13.6034 8.84514C13.8318 8.93975 14.027 9.09996 14.1644 9.30552C14.3017 9.51108 14.375 9.75276 14.375 9.99999C14.375 10.3315 14.2433 10.6494 14.0089 10.8839C13.7745 11.1183 13.4565 11.25 13.125 11.25Z" fill="#191F2E"/>
</svg>
