<svg width="20" height="20" viewBox="0 0 20 20" fill="none" xmlns="http://www.w3.org/2000/svg">
<path d="M19.375 8.12499C19.3749 7.64591 19.2371 7.17696 18.9781 6.77394C18.7191 6.37092 18.3497 6.05081 17.914 5.8517C17.4782 5.6526 16.9945 5.58288 16.5202 5.65086C16.046 5.71884 15.6013 5.92165 15.239 6.23514C13.9304 5.53983 12.3672 5.11952 10.7343 5.02186L11.1398 2.5867L12.5242 2.7992C12.5944 3.2359 12.8168 3.6337 13.1519 3.92231C13.4871 4.21092 13.9135 4.37174 14.3558 4.37636C14.7981 4.38098 15.2278 4.2291 15.5689 3.94755C15.91 3.66601 16.1406 3.27294 16.22 2.8378C16.2993 2.40267 16.2223 1.9535 16.0025 1.56968C15.7827 1.18585 15.4342 0.892092 15.0188 0.740314C14.6034 0.588537 14.1476 0.588514 13.7322 0.740252C13.3167 0.891989 12.9682 1.18572 12.7484 1.56952L10.7172 1.25702C10.5546 1.23196 10.3888 1.27195 10.2556 1.36832C10.1224 1.46469 10.0325 1.60968 10.0054 1.77186L9.46871 5.01249C7.76246 5.08592 6.1234 5.51092 4.7609 6.23514C4.26333 5.81481 3.62135 5.60526 2.97161 5.65111C2.32187 5.69696 1.71568 5.99458 1.28206 6.48063C0.848447 6.96668 0.62165 7.60277 0.649945 8.25351C0.67824 8.90425 0.959392 9.51825 1.43356 9.96483C1.31204 10.3824 1.25023 10.8151 1.24996 11.25C1.24996 12.9633 2.18746 14.5586 3.89918 15.7414C5.53746 16.875 7.70387 17.5 9.99996 17.5C12.2961 17.5 14.4625 16.875 16.1007 15.7414C17.8125 14.5586 18.75 12.9633 18.75 11.25C18.7497 10.8151 18.6879 10.3824 18.5664 9.96483C18.8205 9.73031 19.0235 9.44586 19.1626 9.12928C19.3018 8.81269 19.3741 8.47079 19.375 8.12499ZM14.375 1.87499C14.4986 1.87499 14.6194 1.91164 14.7222 1.98032C14.825 2.04899 14.9051 2.1466 14.9524 2.26081C14.9997 2.37501 15.0121 2.50068 14.988 2.62192C14.9638 2.74316 14.9043 2.85452 14.8169 2.94193C14.7295 3.02934 14.6181 3.08886 14.4969 3.11298C14.3757 3.13709 14.25 3.12472 14.1358 3.07741C14.0216 3.03011 13.924 2.95 13.8553 2.84722C13.7866 2.74444 13.75 2.6236 13.75 2.49999C13.75 2.33423 13.8158 2.17525 13.933 2.05804C14.0502 1.94083 14.2092 1.87499 14.375 1.87499ZM17.5101 9.20155C17.38 9.27863 17.2823 9.40028 17.235 9.54394C17.1877 9.6876 17.1942 9.84352 17.2531 9.9828C17.4154 10.3856 17.4992 10.8157 17.5 11.25C17.5 12.5414 16.7507 13.7711 15.3906 14.7133C13.9586 15.7031 12.0445 16.25 9.99996 16.25C7.95543 16.25 6.04137 15.7031 4.60934 14.7133C3.24918 13.7711 2.49996 12.5414 2.49996 11.25C2.50101 10.8172 2.58426 10.3885 2.74528 9.9867C2.80434 9.8476 2.81101 9.69181 2.76404 9.54818C2.71707 9.40454 2.61965 9.28279 2.48981 9.20545C2.33083 9.11067 2.19488 8.98176 2.09178 8.82804C1.98869 8.67432 1.92101 8.49962 1.89365 8.31656C1.8663 8.1335 1.87993 7.94665 1.93358 7.7695C1.98722 7.59235 2.07954 7.42933 2.20386 7.2922C2.32819 7.15508 2.48141 7.04727 2.65247 6.97657C2.82353 6.90587 3.00815 6.87404 3.19301 6.88338C3.37786 6.89273 3.55834 6.943 3.7214 7.03059C3.88446 7.11817 4.02604 7.24087 4.1359 7.38983C4.22658 7.51439 4.36007 7.60107 4.51075 7.63322C4.66143 7.66538 4.81868 7.64074 4.95231 7.56405L4.98043 7.54686C6.36325 6.71092 8.1445 6.24999 9.99996 6.24999C11.8539 6.24999 13.6351 6.71092 15.0179 7.54686L15.0507 7.56639C15.1842 7.64151 15.3406 7.66503 15.4902 7.63248C15.6398 7.59993 15.7723 7.51359 15.8625 7.38983C15.9717 7.23963 16.113 7.11565 16.2761 7.02689C16.4392 6.93814 16.62 6.88685 16.8055 6.87674C16.9909 6.86663 17.1762 6.89797 17.348 6.96847C17.5198 7.03897 17.6738 7.14686 17.7987 7.2843C17.9235 7.42175 18.0162 7.58529 18.07 7.76304C18.1237 7.94079 18.1372 8.12829 18.1094 8.3119C18.0816 8.49551 18.0133 8.67062 17.9094 8.82451C17.8054 8.9784 17.6685 9.1072 17.5086 9.20155H17.5101ZM6.87496 11.25C6.62774 11.25 6.38606 11.1767 6.1805 11.0393C5.97494 10.902 5.81472 10.7067 5.72012 10.4783C5.62551 10.2499 5.60075 9.9986 5.64898 9.75612C5.69721 9.51365 5.81627 9.29092 5.99108 9.1161C6.1659 8.94129 6.38863 8.82224 6.6311 8.774C6.87358 8.72577 7.12491 8.75053 7.35332 8.84514C7.58173 8.93975 7.77695 9.09996 7.9143 9.30552C8.05165 9.51108 8.12496 9.75276 8.12496 9.99999C8.12496 10.3315 7.99327 10.6494 7.75885 10.8839C7.52443 11.1183 7.20649 11.25 6.87496 11.25ZM14.375 9.99999C14.375 10.2472 14.3017 10.4889 14.1643 10.6944C14.0269 10.9 13.8317 11.0602 13.6033 11.1548C13.3749 11.2494 13.1236 11.2742 12.8811 11.226C12.6386 11.1777 12.4159 11.0587 12.2411 10.8839C12.0663 10.7091 11.9472 10.4863 11.899 10.2438C11.8508 10.0014 11.8755 9.75004 11.9701 9.52163C12.0647 9.29322 12.2249 9.098 12.4305 8.96065C12.6361 8.8233 12.8777 8.74999 13.125 8.74999C13.4565 8.74999 13.7744 8.88168 14.0088 9.1161C14.2433 9.35052 14.375 9.66847 14.375 9.99999ZM13.0523 13.457C13.0908 13.5295 13.1146 13.6089 13.1224 13.6907C13.1303 13.7724 13.1219 13.8549 13.0978 13.9334C13.0737 14.0119 13.0344 14.0849 12.9821 14.1482C12.9298 14.2115 12.8655 14.2639 12.7929 14.3023C11.9329 14.7594 10.9739 14.9984 9.99996 14.9984C9.02605 14.9984 8.06701 14.7594 7.207 14.3023C7.13446 14.2639 7.07021 14.2115 7.01792 14.1482C6.96563 14.0849 6.92632 14.0119 6.90224 13.9334C6.87815 13.8549 6.86976 13.7724 6.87755 13.6907C6.88534 13.609 6.90915 13.5296 6.94762 13.457C6.98609 13.3845 7.03848 13.3202 7.10178 13.2679C7.16508 13.2157 7.23806 13.1763 7.31656 13.1523C7.39505 13.1282 7.47752 13.1198 7.55926 13.1276C7.641 13.1354 7.7204 13.1592 7.79293 13.1976C8.47249 13.5589 9.23034 13.7479 9.99996 13.7479C10.7696 13.7479 11.5274 13.5589 12.207 13.1976C12.2795 13.1591 12.3589 13.1353 12.4407 13.1275C12.5224 13.1197 12.6049 13.1281 12.6834 13.1522C12.7619 13.1763 12.8349 13.2156 12.8982 13.2679C12.9615 13.3202 13.0139 13.3845 13.0523 13.457Z" fill="#191F2E"/>
</svg>
