<svg width="20" height="20" viewBox="0 0 20 20" fill="none" xmlns="http://www.w3.org/2000/svg">
<path d="M10 1.5625C8.33122 1.5625 6.69992 2.05735 5.31238 2.98448C3.92484 3.9116 2.84338 5.22936 2.20477 6.77111C1.56616 8.31286 1.39907 10.0094 1.72463 11.6461C2.05019 13.2828 2.85379 14.7862 4.03379 15.9662C5.2138 17.1462 6.71721 17.9498 8.35393 18.2754C9.99064 18.6009 11.6871 18.4338 13.2289 17.7952C14.7706 17.1566 16.0884 16.0752 17.0155 14.6876C17.9427 13.3001 18.4375 11.6688 18.4375 10C18.435 7.763 17.5453 5.61833 15.9635 4.03653C14.3817 2.45473 12.237 1.56498 10 1.5625ZM10 16.5625C8.70206 16.5625 7.43327 16.1776 6.35407 15.4565C5.27488 14.7354 4.43374 13.7105 3.93704 12.5114C3.44034 11.3122 3.31038 9.99272 3.5636 8.71972C3.81682 7.44672 4.44183 6.27739 5.35962 5.35961C6.2774 4.44183 7.44672 3.81681 8.71972 3.5636C9.99272 3.31038 11.3122 3.44034 12.5114 3.93704C13.7105 4.43374 14.7354 5.27487 15.4565 6.35407C16.1776 7.43327 16.5625 8.70206 16.5625 10C16.5606 11.7399 15.8686 13.408 14.6383 14.6383C13.408 15.8686 11.7399 16.5606 10 16.5625ZM14.0625 7.8125V12.1875C14.0625 12.363 14.0132 12.535 13.9203 12.6839C13.8273 12.8328 13.6945 12.9526 13.5368 13.0297C13.3791 13.1068 13.2029 13.1381 13.0283 13.12C12.8537 13.1019 12.6877 13.0351 12.5492 12.9273L9.73672 10.7398C9.71953 10.7266 9.70391 10.7117 9.6875 10.6969V12.1875C9.6875 12.363 9.63822 12.535 9.54528 12.6839C9.45234 12.8328 9.31946 12.9526 9.16177 13.0297C9.00408 13.1068 8.82792 13.1381 8.65333 13.12C8.47874 13.1019 8.31274 13.0351 8.17422 12.9273L5.36172 10.7398C5.24909 10.6522 5.15797 10.54 5.09528 10.4118C5.0326 10.2836 5.00002 10.1427 5.00002 10C5.00002 9.85728 5.0326 9.71645 5.09528 9.58823C5.15797 9.46002 5.24909 9.34781 5.36172 9.26016L8.17422 7.07266C8.31274 6.96486 8.47874 6.89811 8.65333 6.88001C8.82792 6.86191 9.00408 6.89318 9.16177 6.97028C9.31946 7.04737 9.45234 7.16718 9.54528 7.31608C9.63822 7.46498 9.6875 7.63698 9.6875 7.8125V9.30313C9.70391 9.28828 9.71953 9.27344 9.73672 9.26016L12.5492 7.07266C12.6877 6.96486 12.8537 6.89811 13.0283 6.88001C13.2029 6.86191 13.3791 6.89318 13.5368 6.97028C13.6945 7.04737 13.8273 7.16718 13.9203 7.31608C14.0132 7.46498 14.0625 7.63698 14.0625 7.8125Z" fill="#191F2E"/>
</svg>
