<svg width="20" height="20" viewBox="0 0 20 20" fill="none" xmlns="http://www.w3.org/2000/svg">
<path d="M10 1.875C8.39303 1.875 6.82214 2.35152 5.486 3.24431C4.14985 4.1371 3.10844 5.40605 2.49348 6.8907C1.87852 8.37535 1.71762 10.009 2.03112 11.5851C2.34463 13.1612 3.11846 14.6089 4.25476 15.7452C5.39106 16.8815 6.8388 17.6554 8.4149 17.9689C9.99099 18.2824 11.6247 18.1215 13.1093 17.5065C14.594 16.8916 15.8629 15.8502 16.7557 14.514C17.6485 13.1779 18.125 11.607 18.125 10C18.1227 7.84581 17.266 5.78051 15.7427 4.25727C14.2195 2.73403 12.1542 1.87727 10 1.875ZM10 16.875C8.64026 16.875 7.31105 16.4718 6.18046 15.7164C5.04987 14.9609 4.16868 13.8872 3.64833 12.6309C3.12798 11.3747 2.99183 9.99237 3.2571 8.65875C3.52238 7.32513 4.17716 6.10013 5.13864 5.13864C6.10013 4.17716 7.32514 3.52237 8.65876 3.2571C9.99238 2.99183 11.3747 3.12798 12.631 3.64833C13.8872 4.16868 14.9609 5.04987 15.7164 6.18045C16.4718 7.31104 16.875 8.64025 16.875 10C16.8729 11.8227 16.1479 13.5702 14.8591 14.8591C13.5702 16.1479 11.8227 16.8729 10 16.875ZM14.0445 6.95312C13.9449 6.8997 13.8326 6.87432 13.7196 6.87969C13.6067 6.88505 13.4973 6.92097 13.4031 6.98359L9.65313 9.48359C9.5674 9.54065 9.4971 9.618 9.44847 9.70877C9.39984 9.79955 9.37439 9.90093 9.37439 10.0039C9.37439 10.1069 9.39984 10.2083 9.44847 10.299C9.4971 10.3898 9.5674 10.4672 9.65313 10.5242L13.4031 13.0242C13.5063 13.0912 13.627 13.1263 13.75 13.125C13.9158 13.125 14.0747 13.0592 14.1919 12.9419C14.3092 12.8247 14.375 12.6658 14.375 12.5V7.5C14.3742 7.38755 14.3431 7.27739 14.2849 7.18114C14.2268 7.08489 14.1437 7.00612 14.0445 6.95312ZM13.125 11.332L11.1266 10L13.125 8.67188V11.332ZM9.04453 6.95312C8.94487 6.8997 8.83257 6.87432 8.71962 6.87969C8.60667 6.88505 8.49728 6.92097 8.40313 6.98359L4.65313 9.48359C4.5674 9.54065 4.4971 9.618 4.44847 9.70877C4.39984 9.79955 4.37439 9.90093 4.37439 10.0039C4.37439 10.1069 4.39984 10.2083 4.44847 10.299C4.4971 10.3898 4.5674 10.4672 4.65313 10.5242L8.40313 13.0242C8.50631 13.0912 8.62698 13.1263 8.75 13.125C8.91576 13.125 9.07474 13.0592 9.19195 12.9419C9.30916 12.8247 9.375 12.6658 9.375 12.5V7.5C9.37422 7.38755 9.3431 7.27739 9.28494 7.18114C9.22678 7.08489 9.14372 7.00612 9.04453 6.95312ZM8.125 11.332L6.12657 10L8.125 8.67188V11.332Z" fill="#191F2E"/>
</svg>
