<svg width="20" height="20" viewBox="0 0 20 20" fill="none" xmlns="http://www.w3.org/2000/svg">
<path d="M18.5843 15.8172C18.3675 15.939 18.1113 15.9697 17.8719 15.9026C17.6325 15.8355 17.4295 15.6761 17.3077 15.4594L11.953 5.9375H10.9374V6.25C10.9374 6.49864 10.8386 6.7371 10.6628 6.91291C10.487 7.08873 10.2485 7.1875 9.99989 7.1875C9.75125 7.1875 9.51279 7.08873 9.33698 6.91291C9.16116 6.7371 9.06239 6.49864 9.06239 6.25V5.9375H8.04677L2.69208 15.4594C2.63244 15.568 2.55186 15.6637 2.45501 15.7409C2.35816 15.8182 2.24696 15.8755 2.12783 15.9095C2.0087 15.9435 1.88401 15.9536 1.76097 15.9392C1.63792 15.9247 1.51896 15.886 1.41096 15.8253C1.30297 15.7646 1.20807 15.6831 1.13177 15.5855C1.05546 15.4878 0.999264 15.3761 0.966415 15.2566C0.933566 15.1372 0.92472 15.0124 0.94039 14.8895C0.956059 14.7666 0.995932 14.648 1.0577 14.5406L5.89677 5.9375H1.87489C1.62625 5.9375 1.38779 5.83873 1.21198 5.66291C1.03616 5.4871 0.937391 5.24864 0.937391 5C0.937391 4.75136 1.03616 4.5129 1.21198 4.33709C1.38779 4.16127 1.62625 4.0625 1.87489 4.0625H18.1249C18.3735 4.0625 18.612 4.16127 18.7878 4.33709C18.9636 4.5129 19.0624 4.75136 19.0624 5C19.0624 5.24864 18.9636 5.4871 18.7878 5.66291C18.612 5.83873 18.3735 5.9375 18.1249 5.9375H14.103L18.9421 14.5406C19.0639 14.7574 19.0946 15.0136 19.0275 15.253C18.9604 15.4924 18.801 15.6953 18.5843 15.8172ZM9.99989 8.4375C9.75125 8.4375 9.51279 8.53627 9.33698 8.71209C9.16116 8.8879 9.06239 9.12636 9.06239 9.375V10.625C9.06239 10.8736 9.16116 11.1121 9.33698 11.2879C9.51279 11.4637 9.75125 11.5625 9.99989 11.5625C10.2485 11.5625 10.487 11.4637 10.6628 11.2879C10.8386 11.1121 10.9374 10.8736 10.9374 10.625V9.375C10.9374 9.12636 10.8386 8.8879 10.6628 8.71209C10.487 8.53627 10.2485 8.4375 9.99989 8.4375ZM9.99989 12.8125C9.75125 12.8125 9.51279 12.9113 9.33698 13.0871C9.16116 13.2629 9.06239 13.5014 9.06239 13.75V15C9.06239 15.2486 9.16116 15.4871 9.33698 15.6629C9.51279 15.8387 9.75125 15.9375 9.99989 15.9375C10.2485 15.9375 10.487 15.8387 10.6628 15.6629C10.8386 15.4871 10.9374 15.2486 10.9374 15V13.75C10.9374 13.5014 10.8386 13.2629 10.6628 13.0871C10.487 12.9113 10.2485 12.8125 9.99989 12.8125Z" fill="#191F2E"/>
</svg>
