<svg width="20" height="20" viewBox="0 0 20 20" fill="none" xmlns="http://www.w3.org/2000/svg">
<path d="M18.6718 14.6938L13.5687 5.62502H18.1C18.2622 5.62859 18.4197 5.57024 18.5404 5.46183C18.6612 5.35343 18.7361 5.2031 18.75 5.04143C18.7556 4.95593 18.7437 4.87019 18.7148 4.78951C18.686 4.70884 18.6408 4.63496 18.5822 4.57247C18.5236 4.50997 18.4528 4.46019 18.3741 4.42623C18.2954 4.39226 18.2106 4.37483 18.125 4.37502H1.89606C1.73449 4.37245 1.57797 4.43125 1.45806 4.53956C1.33815 4.64787 1.26379 4.79762 1.24996 4.95861C1.24429 5.04411 1.25625 5.12985 1.28511 5.21052C1.31396 5.2912 1.3591 5.36508 1.41771 5.42757C1.47632 5.49007 1.54716 5.53985 1.62582 5.57381C1.70448 5.60778 1.78928 5.62521 1.87496 5.62502H6.43121L1.32809 14.6938C1.26258 14.8102 1.23611 14.9446 1.25256 15.0772C1.26901 15.2098 1.32751 15.3336 1.41949 15.4305C1.48037 15.493 1.55331 15.5425 1.63389 15.5759C1.71447 15.6093 1.80101 15.626 1.88824 15.625H9.06246C9.14534 15.625 9.22483 15.5921 9.28343 15.5335C9.34204 15.4749 9.37496 15.3954 9.37496 15.3125V13.7711C9.37279 13.6098 9.43177 13.4537 9.54004 13.3341C9.64831 13.2145 9.79784 13.1404 9.95856 13.1266C10.044 13.1209 10.1298 13.1329 10.2105 13.1617C10.2911 13.1906 10.365 13.2357 10.4275 13.2943C10.49 13.3529 10.5398 13.4238 10.5738 13.5024C10.6077 13.5811 10.6252 13.6659 10.625 13.7516V15.3141C10.625 15.397 10.6579 15.4764 10.7165 15.5351C10.7751 15.5937 10.8546 15.6266 10.9375 15.6266H18.107C18.1942 15.6276 18.2808 15.6109 18.3613 15.5775C18.4419 15.544 18.5149 15.4945 18.5757 15.4321C18.6688 15.3356 18.7284 15.2117 18.7457 15.0788C18.763 14.9458 18.7371 14.8109 18.6718 14.6938ZM10.625 10.9375C10.625 11.1033 10.5591 11.2623 10.4419 11.3795C10.3247 11.4967 10.1657 11.5625 9.99996 11.5625C9.8342 11.5625 9.67523 11.4967 9.55802 11.3795C9.44081 11.2623 9.37496 11.1033 9.37496 10.9375V9.68752C9.37496 9.52176 9.44081 9.36279 9.55802 9.24558C9.67523 9.12837 9.8342 9.06252 9.99996 9.06252C10.1657 9.06252 10.3247 9.12837 10.4419 9.24558C10.5591 9.36279 10.625 9.52176 10.625 9.68752V10.9375ZM10.625 6.87502C10.625 7.04078 10.5591 7.19975 10.4419 7.31696C10.3247 7.43417 10.1657 7.50002 9.99996 7.50002C9.8342 7.50002 9.67523 7.43417 9.55802 7.31696C9.44081 7.19975 9.37496 7.04078 9.37496 6.87502V6.25002C9.37496 6.08426 9.44081 5.92529 9.55802 5.80808C9.67523 5.69087 9.8342 5.62502 9.99996 5.62502C10.1657 5.62502 10.3247 5.69087 10.4419 5.80808C10.5591 5.92529 10.625 6.08426 10.625 6.25002V6.87502Z" fill="#191F2E"/>
</svg>
