<svg width="20" height="20" viewBox="0 0 20 20" fill="none" xmlns="http://www.w3.org/2000/svg">
<path d="M15.625 3.4375H10.9375V1.25C10.9375 1.00136 10.8387 0.762903 10.6629 0.587087C10.4871 0.411272 10.2486 0.3125 10 0.3125C9.75136 0.3125 9.5129 0.411272 9.33709 0.587087C9.16127 0.762903 9.0625 1.00136 9.0625 1.25V3.4375H4.375C3.62908 3.4375 2.91371 3.73382 2.38626 4.26126C1.85882 4.78871 1.5625 5.50408 1.5625 6.25V15C1.5625 15.7459 1.85882 16.4613 2.38626 16.9887C2.91371 17.5162 3.62908 17.8125 4.375 17.8125H15.625C16.3709 17.8125 17.0863 17.5162 17.6137 16.9887C18.1412 16.4613 18.4375 15.7459 18.4375 15V6.25C18.4375 5.50408 18.1412 4.78871 17.6137 4.26126C17.0863 3.73382 16.3709 3.4375 15.625 3.4375ZM16.5625 15C16.5625 15.2486 16.4637 15.4871 16.2879 15.6629C16.1121 15.8387 15.8736 15.9375 15.625 15.9375H4.375C4.12636 15.9375 3.8879 15.8387 3.71209 15.6629C3.53627 15.4871 3.4375 15.2486 3.4375 15V6.25C3.4375 6.00136 3.53627 5.7629 3.71209 5.58709C3.8879 5.41127 4.12636 5.3125 4.375 5.3125H15.625C15.8736 5.3125 16.1121 5.41127 16.2879 5.58709C16.4637 5.7629 16.5625 6.00136 16.5625 6.25V15ZM12.8125 10H7.1875C6.52446 10 5.88857 10.2634 5.41973 10.7322C4.95089 11.2011 4.6875 11.837 4.6875 12.5C4.6875 13.163 4.95089 13.7989 5.41973 14.2678C5.88857 14.7366 6.52446 15 7.1875 15H12.8125C13.4755 15 14.1114 14.7366 14.5803 14.2678C15.0491 13.7989 15.3125 13.163 15.3125 12.5C15.3125 11.837 15.0491 11.2011 14.5803 10.7322C14.1114 10.2634 13.4755 10 12.8125 10ZM10.625 11.875V13.125H9.375V11.875H10.625ZM6.5625 12.5C6.5625 12.3342 6.62835 12.1753 6.74556 12.0581C6.86277 11.9408 7.02174 11.875 7.1875 11.875H7.5V13.125H7.1875C7.02174 13.125 6.86277 13.0592 6.74556 12.9419C6.62835 12.8247 6.5625 12.6658 6.5625 12.5ZM12.8125 13.125H12.5V11.875H12.8125C12.9783 11.875 13.1372 11.9408 13.2544 12.0581C13.3717 12.1753 13.4375 12.3342 13.4375 12.5C13.4375 12.6658 13.3717 12.8247 13.2544 12.9419C13.1372 13.0592 12.9783 13.125 12.8125 13.125ZM5.3125 7.8125C5.3125 7.56527 5.38581 7.3236 5.52316 7.11804C5.66051 6.91248 5.85574 6.75226 6.08415 6.65765C6.31255 6.56304 6.56389 6.53829 6.80636 6.58652C7.04884 6.63475 7.27157 6.7538 7.44638 6.92862C7.6212 7.10343 7.74025 7.32616 7.78848 7.56864C7.83671 7.81111 7.81196 8.06245 7.71735 8.29085C7.62274 8.51926 7.46252 8.71449 7.25696 8.85184C7.0514 8.98919 6.80973 9.0625 6.5625 9.0625C6.23098 9.0625 5.91304 8.9308 5.67862 8.69638C5.4442 8.46196 5.3125 8.14402 5.3125 7.8125ZM12.1875 7.8125C12.1875 7.56527 12.2608 7.3236 12.3982 7.11804C12.5355 6.91248 12.7307 6.75226 12.9591 6.65765C13.1876 6.56304 13.4389 6.53829 13.6814 6.58652C13.9238 6.63475 14.1466 6.7538 14.3214 6.92862C14.4962 7.10343 14.6153 7.32616 14.6635 7.56864C14.7117 7.81111 14.687 8.06245 14.5924 8.29085C14.4977 8.51926 14.3375 8.71449 14.132 8.85184C13.9264 8.98919 13.6847 9.0625 13.4375 9.0625C13.106 9.0625 12.788 8.9308 12.5536 8.69638C12.3192 8.46196 12.1875 8.14402 12.1875 7.8125Z" fill="#191F2E"/>
</svg>
