<svg width="20" height="20" viewBox="0 0 20 20" fill="none" xmlns="http://www.w3.org/2000/svg">
<path d="M8.10714 14.5266C8.07668 14.6477 7.31496 17.5 3.12511 17.5C2.95935 17.5 2.80038 17.4341 2.68317 17.3169C2.56596 17.1997 2.50011 17.0408 2.50011 16.875C2.50011 12.6852 5.35246 11.9234 5.47355 11.893C5.63444 11.8528 5.80471 11.8781 5.9469 11.9635C6.08909 12.0488 6.19156 12.1872 6.23175 12.348C6.27195 12.5089 6.24659 12.6792 6.16124 12.8214C6.0759 12.9636 5.93757 13.066 5.77668 13.1062C5.70636 13.1258 4.02511 13.6172 3.7798 16.2203C6.38293 15.975 6.87511 14.2969 6.89543 14.2187C6.93687 14.0581 7.04044 13.9204 7.18336 13.8361C7.32629 13.7518 7.49685 13.7277 7.65754 13.7691C7.81822 13.8106 7.95586 13.9142 8.04018 14.0571C8.1245 14.2 8.14858 14.3706 8.10714 14.5312V14.5266ZM15.3728 9.26093L15.0001 9.63359V14.1906C15.001 14.3554 14.9692 14.5187 14.9064 14.6711C14.8437 14.8235 14.7512 14.9618 14.6345 15.0781L11.9532 17.7578C11.8376 17.8743 11.7001 17.9667 11.5486 18.0297C11.397 18.0927 11.2345 18.1251 11.0704 18.125C10.935 18.125 10.8004 18.1031 10.672 18.0602C10.4514 17.9872 10.2557 17.854 10.1069 17.6756C9.95803 17.4973 9.86206 17.2808 9.8298 17.0508L9.41027 14.0437L5.95636 10.5898L2.9509 10.1703C2.72054 10.138 2.50377 10.0421 2.32496 9.89327C2.14616 9.74448 2.01242 9.54875 1.93879 9.3281C1.86516 9.10745 1.85456 8.87063 1.90817 8.64428C1.96179 8.41794 2.07751 8.21104 2.2423 8.04687L4.92199 5.36562C5.0383 5.24889 5.17666 5.15645 5.32902 5.09368C5.48138 5.03091 5.64471 4.99907 5.80949 5H10.3665L10.7392 4.62734C12.8236 2.54375 15.3345 2.4539 16.3181 2.5125C16.6228 2.53102 16.9103 2.66043 17.1261 2.87631C17.342 3.0922 17.4714 3.37963 17.49 3.68437C17.547 4.66484 17.4571 7.17656 15.3736 9.26093H15.3728ZM9.11652 6.25H5.80949L3.12511 8.93281L6.02746 9.3375L9.11652 6.25ZM13.7501 10.8836L10.6618 13.9719L11.0681 16.875L13.7501 14.1906V10.8836Z" fill="#191F2E"/>
</svg>
