<svg width="20" height="20" viewBox="0 0 20 20" fill="none" xmlns="http://www.w3.org/2000/svg">
<path d="M17.8008 3.66331C17.7775 3.28264 17.6158 2.92365 17.3461 2.65397C17.0764 2.3843 16.7174 2.22256 16.3368 2.19925C15.311 2.13909 12.6922 2.23206 10.518 4.4055L10.2344 4.68753H5.80941C5.60413 4.68684 5.40076 4.72696 5.21112 4.80556C5.02148 4.88415 4.84935 4.99965 4.70473 5.14534L2.02113 7.82737C1.81569 8.03272 1.67156 8.29127 1.60491 8.57399C1.53827 8.85671 1.55175 9.15241 1.64385 9.4279C1.73595 9.70338 1.90302 9.94774 2.12629 10.1335C2.34957 10.3193 2.62022 10.4392 2.90785 10.4797L5.80941 10.8844L9.11566 14.1907L9.52113 17.0953C9.56063 17.3834 9.6802 17.6546 9.86624 17.8781C10.0523 18.1016 10.2973 18.2683 10.5735 18.3594C10.7341 18.412 10.9021 18.4384 11.0711 18.4375C11.2759 18.4374 11.4786 18.3968 11.6677 18.3181C11.8567 18.2394 12.0283 18.1242 12.1727 17.9789L14.8555 15.2953C15.001 15.1506 15.1163 14.9784 15.1948 14.7888C15.2732 14.5992 15.3132 14.3959 15.3125 14.1907V9.76565L15.5938 9.48519C17.768 7.30784 17.861 4.68753 17.8008 3.66331ZM5.93754 6.56253H8.35941L5.91801 9.00628L3.79066 8.7094L5.93754 6.56253ZM11.8438 5.73206C12.3787 5.19269 13.017 4.76681 13.7205 4.47994C14.4239 4.19307 15.178 4.0511 15.9375 4.06253C15.9494 4.82236 15.8076 5.57675 15.5205 6.28038C15.2335 6.98401 14.8072 7.62235 14.2672 8.15706L10 12.4219L7.57816 10L11.8438 5.73206ZM13.4375 14.0625L11.2899 16.2102L10.993 14.0828L13.4375 11.6407V14.0625ZM7.83832 15.7516C7.16176 16.6914 5.79379 17.8125 3.12504 17.8125C2.8764 17.8125 2.63794 17.7138 2.46213 17.5379C2.28631 17.3621 2.18754 17.1237 2.18754 16.875C2.18754 14.2071 3.30863 12.8391 4.24926 12.1617C4.45135 12.0283 4.69723 11.9783 4.93539 12.0221C5.17355 12.066 5.38551 12.2002 5.52688 12.3968C5.66825 12.5935 5.72807 12.8371 5.69379 13.0769C5.65951 13.3166 5.53381 13.5337 5.34301 13.6828C4.87426 14.0196 4.33598 14.6594 4.13832 15.8602C5.3391 15.6625 5.97895 15.1227 6.31566 14.6555C6.38522 14.5501 6.47536 14.4599 6.58065 14.3902C6.68594 14.3205 6.80423 14.2728 6.92841 14.2499C7.05259 14.2271 7.18011 14.2296 7.30332 14.2572C7.42652 14.2849 7.54287 14.3371 7.64539 14.4108C7.7479 14.4845 7.83447 14.5782 7.8999 14.6862C7.96532 14.7942 8.00826 14.9143 8.02614 15.0393C8.04401 15.1643 8.03645 15.2916 8.0039 15.4136C7.97136 15.5356 7.91451 15.6498 7.83676 15.7492L7.83832 15.7516Z" fill="#191F2E"/>
</svg>
