<svg width="20" height="20" viewBox="0 0 20 20" fill="none" xmlns="http://www.w3.org/2000/svg">
<path d="M12.1875 17.5C12.1875 17.7486 12.0888 17.9871 11.913 18.1629C11.7371 18.3387 11.4987 18.4375 11.25 18.4375H8.75005C8.50141 18.4375 8.26295 18.3387 8.08714 18.1629C7.91132 17.9871 7.81255 17.7486 7.81255 17.5C7.81255 17.2513 7.91132 17.0129 8.08714 16.8371C8.26295 16.6612 8.50141 16.5625 8.75005 16.5625H11.25C11.4987 16.5625 11.7371 16.6612 11.913 16.8371C12.0888 17.0129 12.1875 17.2513 12.1875 17.5ZM10 9.06247C10.2473 9.06247 10.489 8.98916 10.6945 8.85181C10.9001 8.71446 11.0603 8.51923 11.1549 8.29083C11.2495 8.06242 11.2743 7.81109 11.226 7.56861C11.1778 7.32613 11.0587 7.1034 10.8839 6.92859C10.7091 6.75377 10.4864 6.63472 10.2439 6.58649C10.0014 6.53826 9.7501 6.56301 9.5217 6.65762C9.29329 6.75223 9.09806 6.91245 8.96071 7.11801C8.82336 7.32357 8.75005 7.56525 8.75005 7.81247C8.75005 8.14399 8.88175 8.46194 9.11617 8.69636C9.35059 8.93078 9.66853 9.06247 10 9.06247ZM17.7758 12.2422L16.8102 16.5883C16.7534 16.8477 16.6311 17.0882 16.4549 17.2869C16.2788 17.4856 16.0547 17.6359 15.804 17.7234C15.636 17.7824 15.4593 17.8125 15.2813 17.8125C14.9329 17.8122 14.5947 17.6947 14.3211 17.4789L12.279 15.9375H7.72114L5.67896 17.4797C5.40531 17.6952 5.06713 17.8124 4.7188 17.8125C4.54075 17.8123 4.36403 17.7819 4.19614 17.7226C3.94543 17.6351 3.72132 17.4848 3.54517 17.2861C3.36903 17.0874 3.24671 16.8469 3.18989 16.5875L2.22427 12.2422C2.17307 12.0089 2.17573 11.7671 2.23205 11.5351C2.28836 11.303 2.39686 11.0869 2.54927 10.9031L4.72349 8.29372C4.80666 7.31605 5.0344 6.35613 5.39927 5.44528C6.43599 2.84763 8.28989 1.21872 9.04302 0.639035C9.31691 0.426813 9.65356 0.311646 10 0.311646C10.3465 0.311646 10.6832 0.426813 10.9571 0.639035C11.7071 1.21872 13.5641 2.84763 14.6008 5.44528C14.9657 6.35613 15.1934 7.31605 15.2766 8.29372L17.4508 10.9031C17.6032 11.0869 17.7117 11.303 17.7681 11.5351C17.8244 11.7671 17.827 12.0089 17.7758 12.2422ZM7.95239 14.0625H12.0477C13.5719 11.2734 13.8446 8.61091 12.8594 6.1406C12.0625 4.1406 10.6407 2.80466 10 2.27497C9.35942 2.80466 7.93755 4.1406 7.14067 6.1406C6.15474 8.61091 6.42817 11.2734 7.95239 14.0625ZM6.19067 14.7437C5.56734 13.5852 5.12173 12.3395 4.8688 11.0484L4.08755 11.9859L4.91411 15.7078L6.19067 14.7437ZM15.9118 11.9851L15.1305 11.0476C14.8776 12.3387 14.432 13.5844 13.8086 14.7429L15.0844 15.7062L15.9118 11.9851Z" fill="#191F2E"/>
</svg>
