<svg width="20" height="20" viewBox="0 0 20 20" fill="none" xmlns="http://www.w3.org/2000/svg">
<path d="M11.8751 17.5C11.8751 17.6658 11.8092 17.8247 11.692 17.9419C11.5748 18.0592 11.4158 18.125 11.2501 18.125H8.75006C8.5843 18.125 8.42533 18.0592 8.30812 17.9419C8.19091 17.8247 8.12506 17.6658 8.12506 17.5C8.12506 17.3342 8.19091 17.1753 8.30812 17.0581C8.42533 16.9408 8.5843 16.875 8.75006 16.875H11.2501C11.4158 16.875 11.5748 16.9408 11.692 17.0581C11.8092 17.1753 11.8751 17.3342 11.8751 17.5ZM17.4704 12.1742L16.5047 16.5203C16.4589 16.7267 16.3615 16.9181 16.2216 17.0766C16.0817 17.2351 15.9039 17.3555 15.7048 17.4266C15.5057 17.4977 15.2919 17.5172 15.0832 17.4831C14.8746 17.4491 14.678 17.3627 14.5118 17.232L12.3837 15.625H7.61803L5.48834 17.232C5.32216 17.3627 5.12555 17.4491 4.9169 17.4831C4.70825 17.5172 4.49437 17.4977 4.29528 17.4266C4.09619 17.3555 3.91838 17.2351 3.77848 17.0766C3.63859 16.9181 3.54118 16.7267 3.49537 16.5203L2.52975 12.1742C2.48879 11.9877 2.49086 11.7943 2.5358 11.6087C2.58074 11.4231 2.66737 11.2502 2.78912 11.1031L5.02037 8.42656C5.09526 7.44292 5.32108 6.47666 5.6899 5.56172C6.69772 3.03515 8.5024 1.45 9.23444 0.885935C9.45354 0.716157 9.72287 0.624023 10.0001 0.624023C10.2772 0.624023 10.5466 0.716157 10.7657 0.885935C11.4954 1.45 13.3024 3.03515 14.3102 5.56172C14.679 6.47666 14.9049 7.44292 14.9797 8.42656L17.211 11.1031C17.3327 11.2502 17.4194 11.4231 17.4643 11.6087C17.5093 11.7943 17.5113 11.9877 17.4704 12.1742ZM6.59303 14.8305C5.75397 13.3029 5.24459 11.801 5.0649 10.325L3.75006 11.9031L4.71569 16.25L4.72975 16.2398L6.59303 14.8305ZM10.9376 7.8125C10.9376 7.62708 10.8826 7.44582 10.7796 7.29165C10.6765 7.13748 10.5301 7.01732 10.3588 6.94636C10.1875 6.8754 9.99902 6.85684 9.81716 6.89301C9.63531 6.92919 9.46826 7.01847 9.33715 7.14959C9.20604 7.2807 9.11675 7.44774 9.08057 7.6296C9.0444 7.81146 9.06297 7.99996 9.13392 8.17126C9.20488 8.34257 9.32504 8.48899 9.47921 8.592C9.63338 8.69501 9.81464 8.75 10.0001 8.75C10.2487 8.75 10.4872 8.65123 10.663 8.47541C10.8388 8.2996 10.9376 8.06114 10.9376 7.8125ZM16.2501 11.9031L14.9352 10.325C14.7571 11.7979 14.2477 13.3003 13.4071 14.832L15.2704 16.2383L15.2844 16.2484L16.2501 11.9031Z" fill="#191F2E"/>
</svg>
