<svg width="20" height="20" viewBox="0 0 20 20" fill="none" xmlns="http://www.w3.org/2000/svg">
<path d="M16.25 2.5H3.75C3.41848 2.5 3.10054 2.6317 2.86612 2.86612C2.6317 3.10054 2.5 3.41848 2.5 3.75V16.25C2.5 16.5815 2.6317 16.8995 2.86612 17.1339C3.10054 17.3683 3.41848 17.5 3.75 17.5H16.25C16.5815 17.5 16.8995 17.3683 17.1339 17.1339C17.3683 16.8995 17.5 16.5815 17.5 16.25V3.75C17.5 3.41848 17.3683 3.10054 17.1339 2.86612C16.8995 2.6317 16.5815 2.5 16.25 2.5ZM5.9375 15C5.75208 15 5.57082 14.945 5.41665 14.842C5.26248 14.739 5.14232 14.5926 5.07136 14.4213C5.00041 14.25 4.98184 14.0615 5.01801 13.8796C5.05419 13.6977 5.14348 13.5307 5.27459 13.3996C5.4057 13.2685 5.57275 13.1792 5.7546 13.143C5.93646 13.1068 6.12496 13.1254 6.29627 13.1964C6.46757 13.2673 6.61399 13.3875 6.717 13.5417C6.82002 13.6958 6.875 13.8771 6.875 14.0625C6.875 14.3111 6.77623 14.5496 6.60041 14.7254C6.4246 14.9012 6.18614 15 5.9375 15ZM10.625 15C10.4592 15 10.3003 14.9342 10.1831 14.8169C10.0658 14.6997 10 14.5408 10 14.375C9.99876 13.2151 9.53742 12.103 8.71722 11.2828C7.89702 10.4626 6.78494 10.0012 5.625 10C5.45924 10 5.30027 9.93415 5.18306 9.81694C5.06585 9.69973 5 9.54076 5 9.375C5 9.20924 5.06585 9.05027 5.18306 8.93306C5.30027 8.81585 5.45924 8.75 5.625 8.75C7.11633 8.75165 8.54611 9.34482 9.60065 10.3994C10.6552 11.4539 11.2483 12.8837 11.25 14.375C11.25 14.5408 11.1842 14.6997 11.0669 14.8169C10.9497 14.9342 10.7908 15 10.625 15ZM14.375 15C14.2092 15 14.0503 14.9342 13.9331 14.8169C13.8158 14.6997 13.75 14.5408 13.75 14.375C13.7477 12.2208 12.891 10.1555 11.3677 8.63227C9.84449 7.10903 7.77919 6.25227 5.625 6.25C5.45924 6.25 5.30027 6.18415 5.18306 6.06694C5.06585 5.94973 5 5.79076 5 5.625C5 5.45924 5.06585 5.30027 5.18306 5.18306C5.30027 5.06585 5.45924 5 5.625 5C8.11058 5.00269 10.4936 5.99127 12.2512 7.74884C14.0087 9.50641 14.9973 11.8894 15 14.375C15 14.5408 14.9342 14.6997 14.8169 14.8169C14.6997 14.9342 14.5408 15 14.375 15Z" fill="#191F2E"/>
</svg>
