<svg width="20" height="20" viewBox="0 0 20 20" fill="none" xmlns="http://www.w3.org/2000/svg">
<path d="M16.875 15.625C16.875 15.7908 16.8092 15.9497 16.6919 16.0669C16.5747 16.1842 16.4158 16.25 16.25 16.25C16.0842 16.25 15.9253 16.1842 15.8081 16.0669C15.6908 15.9497 15.625 15.7908 15.625 15.625C15.625 9.42188 10.5781 4.375 4.375 4.375C4.20924 4.375 4.05027 4.30915 3.93306 4.19194C3.81585 4.07473 3.75 3.91576 3.75 3.75C3.75 3.58424 3.81585 3.42527 3.93306 3.30806C4.05027 3.19085 4.20924 3.125 4.375 3.125C11.2672 3.125 16.875 8.73281 16.875 15.625ZM4.375 8.75C4.20924 8.75 4.05027 8.81585 3.93306 8.93306C3.81585 9.05027 3.75 9.20924 3.75 9.375C3.75 9.54076 3.81585 9.69973 3.93306 9.81694C4.05027 9.93415 4.20924 10 4.375 10C5.86634 10.0017 7.29612 10.5948 8.35065 11.6494C9.40518 12.7039 9.99835 14.1337 10 15.625C10 15.7908 10.0658 15.9497 10.1831 16.0669C10.3003 16.1842 10.4592 16.25 10.625 16.25C10.7908 16.25 10.9497 16.1842 11.0669 16.0669C11.1842 15.9497 11.25 15.7908 11.25 15.625C11.2479 13.8023 10.5229 12.0548 9.23408 10.7659C7.94521 9.47706 6.19773 8.75207 4.375 8.75ZM4.6875 14.375C4.50208 14.375 4.32082 14.43 4.16665 14.533C4.01248 14.636 3.89232 14.7824 3.82136 14.9537C3.75041 15.125 3.73184 15.3135 3.76801 15.4954C3.80419 15.6773 3.89348 15.8443 4.02459 15.9754C4.1557 16.1065 4.32275 16.1958 4.5046 16.232C4.68646 16.2682 4.87496 16.2496 5.04627 16.1786C5.21757 16.1077 5.36399 15.9875 5.467 15.8333C5.57002 15.6792 5.625 15.4979 5.625 15.3125C5.625 15.0639 5.52623 14.8254 5.35041 14.6496C5.1746 14.4738 4.93614 14.375 4.6875 14.375Z" fill="#191F2E"/>
</svg>
