<svg width="20" height="20" viewBox="0 0 20 20" fill="none" xmlns="http://www.w3.org/2000/svg">
<path d="M7.72734 12.2727C8.25132 12.7938 8.66673 13.4136 8.94955 14.0963C9.23237 14.7791 9.37698 15.5111 9.375 16.25C9.375 16.4158 9.30915 16.5748 9.19194 16.692C9.07473 16.8092 8.91576 16.875 8.75 16.875C8.58424 16.875 8.42527 16.8092 8.30806 16.692C8.19085 16.5748 8.125 16.4158 8.125 16.25C8.125 15.0897 7.66406 13.9769 6.84359 13.1565C6.02312 12.336 4.91032 11.875 3.75 11.875C3.58424 11.875 3.42527 11.8092 3.30806 11.692C3.19085 11.5748 3.125 11.4158 3.125 11.25C3.125 11.0843 3.19085 10.9253 3.30806 10.8081C3.42527 10.6909 3.58424 10.625 3.75 10.625C4.48897 10.6231 5.22099 10.7677 5.90371 11.0505C6.58642 11.3333 7.20625 11.7487 7.72734 12.2727ZM3.75 6.87505C3.58424 6.87505 3.42527 6.9409 3.30806 7.05811C3.19085 7.17532 3.125 7.33429 3.125 7.50005C3.125 7.66581 3.19085 7.82478 3.30806 7.94199C3.42527 8.0592 3.58424 8.12505 3.75 8.12505C4.81699 8.12505 5.87353 8.33521 6.8593 8.74353C7.84507 9.15184 8.74077 9.75033 9.49524 10.5048C10.2497 11.2593 10.8482 12.155 11.2565 13.1407C11.6648 14.1265 11.875 15.1831 11.875 16.25C11.875 16.4158 11.9408 16.5748 12.0581 16.692C12.1753 16.8092 12.3342 16.875 12.5 16.875C12.6658 16.875 12.8247 16.8092 12.9419 16.692C13.0592 16.5748 13.125 16.4158 13.125 16.25C13.125 13.7636 12.1373 11.3791 10.3791 9.62092C8.62097 7.86277 6.23641 6.87505 3.75 6.87505ZM13.0305 6.96958C11.8146 5.74697 10.3683 4.77765 8.77532 4.11774C7.18233 3.45783 5.47427 3.12042 3.75 3.12505C3.58424 3.12505 3.42527 3.1909 3.30806 3.30811C3.19085 3.42532 3.125 3.58429 3.125 3.75005C3.125 3.91581 3.19085 4.07478 3.30806 4.19199C3.42527 4.3092 3.58424 4.37505 3.75 4.37505C5.31008 4.37077 6.85551 4.67598 8.29684 5.273C9.73817 5.87002 11.0468 6.747 12.1469 7.85317C13.253 8.95328 14.13 10.2619 14.727 11.7032C15.3241 13.1445 15.6293 14.69 15.625 16.25C15.625 16.4158 15.6908 16.5748 15.8081 16.692C15.9253 16.8092 16.0842 16.875 16.25 16.875C16.4158 16.875 16.5747 16.8092 16.6919 16.692C16.8092 16.5748 16.875 16.4158 16.875 16.25C16.8796 14.5258 16.5422 12.8177 15.8823 11.2247C15.2224 9.63173 14.2531 8.18545 13.0305 6.96958ZM4.0625 15C3.87708 15 3.69582 15.055 3.54165 15.158C3.38748 15.2611 3.26732 15.4075 3.19636 15.5788C3.12541 15.7501 3.10684 15.9386 3.14301 16.1204C3.17919 16.3023 3.26848 16.4693 3.39959 16.6005C3.5307 16.7316 3.69775 16.8209 3.8796 16.857C4.06146 16.8932 4.24996 16.8746 4.42127 16.8037C4.59257 16.7327 4.73899 16.6126 4.842 16.4584C4.94502 16.3042 5 16.123 5 15.9375C5 15.6889 4.90123 15.4504 4.72541 15.2746C4.5496 15.0988 4.31114 15 4.0625 15Z" fill="#191F2E"/>
</svg>
