<svg width="20" height="20" viewBox="0 0 20 20" fill="none" xmlns="http://www.w3.org/2000/svg">
<path d="M15.625 0.9375C15.3764 0.9375 15.1379 1.03627 14.9621 1.21209C14.7863 1.3879 14.6875 1.62636 14.6875 1.875V2.8125H12.8125V1.875C12.8125 1.62636 12.7137 1.3879 12.5379 1.21209C12.3621 1.03627 12.1236 0.9375 11.875 0.9375C11.6264 0.9375 11.3879 1.03627 11.2121 1.21209C11.0363 1.3879 10.9375 1.62636 10.9375 1.875V2.8125H9.0625V1.875C9.0625 1.62636 8.96373 1.3879 8.78791 1.21209C8.6121 1.03627 8.37364 0.9375 8.125 0.9375C7.87636 0.9375 7.6379 1.03627 7.46209 1.21209C7.28627 1.3879 7.1875 1.62636 7.1875 1.875V2.8125H5.3125V1.875C5.3125 1.62636 5.21373 1.3879 5.03791 1.21209C4.8621 1.03627 4.62364 0.9375 4.375 0.9375C4.12636 0.9375 3.8879 1.03627 3.71209 1.21209C3.53627 1.3879 3.4375 1.62636 3.4375 1.875V18.125C3.4375 18.3736 3.53627 18.6121 3.71209 18.7879C3.8879 18.9637 4.12636 19.0625 4.375 19.0625C4.62364 19.0625 4.8621 18.9637 5.03791 18.7879C5.21373 18.6121 5.3125 18.3736 5.3125 18.125V17.1875H7.1875V18.125C7.1875 18.3736 7.28627 18.6121 7.46209 18.7879C7.6379 18.9637 7.87636 19.0625 8.125 19.0625C8.37364 19.0625 8.6121 18.9637 8.78791 18.7879C8.96373 18.6121 9.0625 18.3736 9.0625 18.125V17.1875H10.9375V18.125C10.9375 18.3736 11.0363 18.6121 11.2121 18.7879C11.3879 18.9637 11.6264 19.0625 11.875 19.0625C12.1236 19.0625 12.3621 18.9637 12.5379 18.7879C12.7137 18.6121 12.8125 18.3736 12.8125 18.125V17.1875H14.6875V18.125C14.6875 18.3736 14.7863 18.6121 14.9621 18.7879C15.1379 18.9637 15.3764 19.0625 15.625 19.0625C15.8736 19.0625 16.1121 18.9637 16.2879 18.7879C16.4637 18.6121 16.5625 18.3736 16.5625 18.125V1.875C16.5625 1.62636 16.4637 1.3879 16.2879 1.21209C16.1121 1.03627 15.8736 0.9375 15.625 0.9375ZM5.3125 4.6875H14.6875V15.3125H5.3125V4.6875ZM10 14.0625C10.1619 14.0625 10.3211 14.0205 10.462 13.9407C10.6028 13.8609 10.7207 13.7459 10.8039 13.607L12.6789 10.482C12.7662 10.3364 12.8123 10.1698 12.8123 10C12.8123 9.83021 12.7662 9.6636 12.6789 9.51797L10.8039 6.39297C10.7206 6.25414 10.6028 6.13925 10.4619 6.05949C10.321 5.97972 10.1619 5.9378 10 5.9378C9.83811 5.9378 9.67897 5.97972 9.53809 6.05949C9.39721 6.13925 9.27939 6.25414 9.19609 6.39297L7.32109 9.51797C7.23379 9.6636 7.18768 9.83021 7.18768 10C7.18768 10.1698 7.23379 10.3364 7.32109 10.482L9.19609 13.607C9.27935 13.7459 9.39716 13.8609 9.53804 13.9407C9.67892 14.0205 9.83808 14.0625 10 14.0625ZM10 8.69688L10.7812 10L10 11.3031L9.21875 10L10 8.69688Z" fill="#191F2E"/>
</svg>
