<svg width="20" height="20" viewBox="0 0 20 20" fill="none" xmlns="http://www.w3.org/2000/svg">
<path d="M15.625 1.25C15.4592 1.25 15.3003 1.31585 15.1831 1.43306C15.0658 1.55027 15 1.70924 15 1.875V3.125H12.5V1.875C12.5 1.70924 12.4342 1.55027 12.3169 1.43306C12.1997 1.31585 12.0408 1.25 11.875 1.25C11.7092 1.25 11.5503 1.31585 11.4331 1.43306C11.3158 1.55027 11.25 1.70924 11.25 1.875V3.125H8.75V1.875C8.75 1.70924 8.68415 1.55027 8.56694 1.43306C8.44973 1.31585 8.29076 1.25 8.125 1.25C7.95924 1.25 7.80027 1.31585 7.68306 1.43306C7.56585 1.55027 7.5 1.70924 7.5 1.875V3.125H5V1.875C5 1.70924 4.93415 1.55027 4.81694 1.43306C4.69973 1.31585 4.54076 1.25 4.375 1.25C4.20924 1.25 4.05027 1.31585 3.93306 1.43306C3.81585 1.55027 3.75 1.70924 3.75 1.875V18.125C3.75 18.2908 3.81585 18.4497 3.93306 18.5669C4.05027 18.6842 4.20924 18.75 4.375 18.75C4.54076 18.75 4.69973 18.6842 4.81694 18.5669C4.93415 18.4497 5 18.2908 5 18.125V16.875H7.5V18.125C7.5 18.2908 7.56585 18.4497 7.68306 18.5669C7.80027 18.6842 7.95924 18.75 8.125 18.75C8.29076 18.75 8.44973 18.6842 8.56694 18.5669C8.68415 18.4497 8.75 18.2908 8.75 18.125V16.875H11.25V18.125C11.25 18.2908 11.3158 18.4497 11.4331 18.5669C11.5503 18.6842 11.7092 18.75 11.875 18.75C12.0408 18.75 12.1997 18.6842 12.3169 18.5669C12.4342 18.4497 12.5 18.2908 12.5 18.125V16.875H15V18.125C15 18.2908 15.0658 18.4497 15.1831 18.5669C15.3003 18.6842 15.4592 18.75 15.625 18.75C15.7908 18.75 15.9497 18.6842 16.0669 18.5669C16.1842 18.4497 16.25 18.2908 16.25 18.125V1.875C16.25 1.70924 16.1842 1.55027 16.0669 1.43306C15.9497 1.31585 15.7908 1.25 15.625 1.25ZM5 4.375H15V15.625H5V4.375ZM9.46406 13.4469L7.58906 10.3219C7.53066 10.2247 7.49981 10.1134 7.49981 10C7.49981 9.8866 7.53066 9.77533 7.58906 9.67812L9.46406 6.55312C9.51959 6.46058 9.59814 6.38398 9.69206 6.3308C9.78598 6.27763 9.89207 6.24968 10 6.24968C10.1079 6.24968 10.214 6.27763 10.3079 6.3308C10.4019 6.38398 10.4804 6.46058 10.5359 6.55312L12.4109 9.67812C12.4693 9.77533 12.5002 9.8866 12.5002 10C12.5002 10.1134 12.4693 10.2247 12.4109 10.3219L10.5359 13.4469C10.4804 13.5394 10.4019 13.616 10.3079 13.6692C10.214 13.7224 10.1079 13.7503 10 13.7503C9.89207 13.7503 9.78598 13.7224 9.69206 13.6692C9.59814 13.616 9.51959 13.5394 9.46406 13.4469Z" fill="#191F2E"/>
</svg>
