<svg width="20" height="20" viewBox="0 0 20 20" fill="none" xmlns="http://www.w3.org/2000/svg">
<path d="M18.7055 10.3906L16.2055 4.14062C16.1587 4.02504 16.0785 3.92609 15.975 3.85648C15.8716 3.78687 15.7497 3.74978 15.625 3.75C15.5795 3.75069 15.5342 3.75619 15.4898 3.76641L10.625 4.84375V3.125C10.625 2.95924 10.5591 2.80027 10.4419 2.68306C10.3247 2.56585 10.1658 2.5 10 2.5C9.83424 2.5 9.67526 2.56585 9.55805 2.68306C9.44084 2.80027 9.375 2.95924 9.375 3.125V5.12344L4.23984 6.26641C4.14084 6.28801 4.04857 6.33336 3.971 6.39855C3.89342 6.46375 3.83286 6.54682 3.79453 6.64062L1.29453 12.8906C1.26462 12.9651 1.2495 13.0447 1.25 13.125C1.25 14.9461 3.16718 15.625 4.375 15.625C5.58281 15.625 7.5 14.9461 7.5 13.125C7.5005 13.0447 7.48537 12.9651 7.45546 12.8906L5.22812 7.32578L9.375 6.40625V16.25H8.125C7.95924 16.25 7.80026 16.3158 7.68305 16.4331C7.56584 16.5503 7.5 16.7092 7.5 16.875C7.5 17.0408 7.56584 17.1997 7.68305 17.3169C7.80026 17.4342 7.95924 17.5 8.125 17.5H11.875C12.0408 17.5 12.1997 17.4342 12.3169 17.3169C12.4341 17.1997 12.5 17.0408 12.5 16.875C12.5 16.7092 12.4341 16.5503 12.3169 16.4331C12.1997 16.3158 12.0408 16.25 11.875 16.25H10.625V6.12656L14.6094 5.24219L12.5445 10.3906C12.5146 10.4651 12.4995 10.5447 12.5 10.625C12.5 12.4461 14.4172 13.125 15.625 13.125C16.8328 13.125 18.75 12.4461 18.75 10.625C18.7505 10.5447 18.7354 10.4651 18.7055 10.3906ZM6.20546 13.125H2.54843L4.375 8.55781L6.20546 13.125ZM13.8023 10.625L15.625 6.05781L17.4516 10.625H13.8023Z" fill="#191F2E"/>
</svg>
