<svg width="20" height="20" viewBox="0 0 20 20" fill="none" xmlns="http://www.w3.org/2000/svg">
<path d="M17.8125 3.125V6.25C17.8125 6.49864 17.7137 6.7371 17.5379 6.91291C17.3621 7.08873 17.1236 7.1875 16.875 7.1875C16.6264 7.1875 16.3879 7.08873 16.2121 6.91291C16.0363 6.7371 15.9375 6.49864 15.9375 6.25V4.0625H13.75C13.5014 4.0625 13.2629 3.96373 13.0871 3.78791C12.9113 3.6121 12.8125 3.37364 12.8125 3.125C12.8125 2.87636 12.9113 2.6379 13.0871 2.46209C13.2629 2.28627 13.5014 2.1875 13.75 2.1875H16.875C17.1236 2.1875 17.3621 2.28627 17.5379 2.46209C17.7137 2.6379 17.8125 2.87636 17.8125 3.125ZM6.25 15.9375H4.0625V13.75C4.0625 13.5014 3.96373 13.2629 3.78791 13.0871C3.6121 12.9113 3.37364 12.8125 3.125 12.8125C2.87636 12.8125 2.6379 12.9113 2.46209 13.0871C2.28627 13.2629 2.1875 13.5014 2.1875 13.75V16.875C2.1875 17.1236 2.28627 17.3621 2.46209 17.5379C2.6379 17.7137 2.87636 17.8125 3.125 17.8125H6.25C6.49864 17.8125 6.7371 17.7137 6.91291 17.5379C7.08873 17.3621 7.1875 17.1236 7.1875 16.875C7.1875 16.6264 7.08873 16.3879 6.91291 16.2121C6.7371 16.0363 6.49864 15.9375 6.25 15.9375ZM16.875 12.8125C16.6264 12.8125 16.3879 12.9113 16.2121 13.0871C16.0363 13.2629 15.9375 13.5014 15.9375 13.75V15.9375H13.75C13.5014 15.9375 13.2629 16.0363 13.0871 16.2121C12.9113 16.3879 12.8125 16.6264 12.8125 16.875C12.8125 17.1236 12.9113 17.3621 13.0871 17.5379C13.2629 17.7137 13.5014 17.8125 13.75 17.8125H16.875C17.1236 17.8125 17.3621 17.7137 17.5379 17.5379C17.7137 17.3621 17.8125 17.1236 17.8125 16.875V13.75C17.8125 13.5014 17.7137 13.2629 17.5379 13.0871C17.3621 12.9113 17.1236 12.8125 16.875 12.8125ZM3.125 7.1875C3.37364 7.1875 3.6121 7.08873 3.78791 6.91291C3.96373 6.7371 4.0625 6.49864 4.0625 6.25V4.0625H6.25C6.49864 4.0625 6.7371 3.96373 6.91291 3.78791C7.08873 3.6121 7.1875 3.37364 7.1875 3.125C7.1875 2.87636 7.08873 2.6379 6.91291 2.46209C6.7371 2.28627 6.49864 2.1875 6.25 2.1875H3.125C2.87636 2.1875 2.6379 2.28627 2.46209 2.46209C2.28627 2.6379 2.1875 2.87636 2.1875 3.125V6.25C2.1875 6.49864 2.28627 6.7371 2.46209 6.91291C2.6379 7.08873 2.87636 7.1875 3.125 7.1875ZM12.8125 14.375H7.1875C6.7731 14.375 6.37567 14.2104 6.08265 13.9174C5.78962 13.6243 5.625 13.2269 5.625 12.8125V7.1875C5.625 6.7731 5.78962 6.37567 6.08265 6.08265C6.37567 5.78962 6.7731 5.625 7.1875 5.625H12.8125C13.2269 5.625 13.6243 5.78962 13.9174 6.08265C14.2104 6.37567 14.375 6.7731 14.375 7.1875V12.8125C14.375 13.2269 14.2104 13.6243 13.9174 13.9174C13.6243 14.2104 13.2269 14.375 12.8125 14.375ZM12.5 7.5H7.5V12.5H12.5V7.5Z" fill="#191F2E"/>
</svg>
