<svg width="20" height="20" viewBox="0 0 20 20" fill="none" xmlns="http://www.w3.org/2000/svg">
<path d="M18.6547 14.3586L7.67816 6.84768C7.76741 6.55254 7.81269 6.24586 7.81253 5.93753C7.81262 5.23054 7.57298 4.54443 7.13275 3.99123C6.69252 3.43804 6.07772 3.05047 5.38877 2.89183C4.69982 2.73319 3.97743 2.81284 3.3396 3.11779C2.70177 3.42274 2.18619 3.93496 1.87707 4.57078C1.56796 5.2066 1.48357 5.92845 1.6377 6.61843C1.79183 7.3084 2.17537 7.92572 2.72567 8.36957C3.27597 8.81341 3.9605 9.05753 4.66747 9.06207C5.37444 9.06661 6.06205 8.83129 6.618 8.39456L8.96175 10.0008L6.618 11.6071C6.1445 11.235 5.57359 11.0077 4.97396 10.9525C4.37433 10.8973 3.77151 11.0165 3.23803 11.2958C2.70454 11.5751 2.2631 12.0025 1.96682 12.5268C1.67054 13.051 1.53202 13.6497 1.56794 14.2508C1.60386 14.8519 1.81269 15.4298 2.1693 15.915C2.5259 16.4002 3.01511 16.7721 3.57806 16.9858C4.14101 17.1996 4.75373 17.2462 5.34252 17.1199C5.9313 16.9937 6.47108 16.7 6.89691 16.2742C7.18833 15.9845 7.41933 15.6399 7.57651 15.2602C7.73369 14.8805 7.81391 14.4734 7.81253 14.0625C7.81276 13.7539 7.76748 13.447 7.67816 13.1516L10.625 11.136L17.5953 15.9063C17.697 15.9758 17.8113 16.0247 17.9318 16.0501C18.0523 16.0755 18.1766 16.0768 18.2977 16.0542C18.4187 16.0315 18.5341 15.9852 18.6373 15.9179C18.7404 15.8507 18.8293 15.7638 18.8989 15.6621C18.9684 15.5605 19.0173 15.4462 19.0427 15.3257C19.068 15.2052 19.0694 15.0809 19.0468 14.9598C19.0241 14.8388 18.9778 14.7234 18.9105 14.6202C18.8433 14.5171 18.7563 14.4282 18.6547 14.3586ZM5.57113 14.9477C5.36661 15.1521 5.09757 15.2792 4.80982 15.3075C4.52207 15.3358 4.23342 15.2635 3.99302 15.1028C3.75262 14.9422 3.57535 14.7031 3.49139 14.4265C3.40743 14.1498 3.42199 13.8526 3.53257 13.5854C3.64316 13.3183 3.84294 13.0977 4.09788 12.9613C4.35283 12.8249 4.64717 12.7811 4.93077 12.8374C5.21438 12.8937 5.46971 13.0465 5.65328 13.2699C5.83685 13.4933 5.93731 13.7734 5.93753 14.0625C5.93766 14.2269 5.90537 14.3897 5.84249 14.5416C5.77962 14.6935 5.6874 14.8315 5.57113 14.9477ZM3.80394 6.82034C3.62904 6.64556 3.50991 6.42283 3.46161 6.18033C3.41331 5.93783 3.43802 5.68646 3.53261 5.458C3.62719 5.22954 3.78741 5.03427 3.99299 4.89689C4.19856 4.7595 4.44027 4.68617 4.68753 4.68617C4.93479 4.68617 5.1765 4.7595 5.38208 4.89689C5.58766 5.03427 5.74788 5.22954 5.84246 5.458C5.93705 5.68646 5.96175 5.93783 5.91345 6.18033C5.86516 6.42283 5.74602 6.64556 5.57113 6.82034C5.33673 7.05458 5.01891 7.18617 4.68753 7.18617C4.35615 7.18617 4.03834 7.05458 3.80394 6.82034ZM12.618 8.63596C12.5485 8.53434 12.4997 8.42003 12.4743 8.29954C12.449 8.17906 12.4477 8.05476 12.4704 7.93375C12.4931 7.81275 12.5394 7.6974 12.6067 7.59429C12.674 7.49119 12.7609 7.40234 12.8625 7.33284L17.5953 4.09378C17.8006 3.95329 18.0532 3.90009 18.2977 3.94588C18.5421 3.99166 18.7584 4.13268 18.8989 4.33792C19.0393 4.54315 19.0925 4.79578 19.0468 5.04024C19.001 5.28469 18.86 5.50095 18.6547 5.64143L13.9211 8.88049C13.8195 8.95001 13.7052 8.99882 13.5847 9.02415C13.4642 9.04948 13.3399 9.05084 13.2189 9.02813C13.0979 9.00542 12.9826 8.9591 12.8795 8.89181C12.7763 8.82452 12.6875 8.73759 12.618 8.63596Z" fill="#191F2E"/>
</svg>
