<svg width="20" height="20" viewBox="0 0 20 20" fill="none" xmlns="http://www.w3.org/2000/svg">
<path d="M12.3227 8.8383C12.2762 8.77051 12.2436 8.69423 12.2267 8.61381C12.2097 8.5334 12.2088 8.45044 12.224 8.36967C12.2392 8.28891 12.2701 8.21193 12.3151 8.14313C12.36 8.07434 12.4181 8.01509 12.486 7.96877L17.7719 4.35158C17.9088 4.26688 18.0731 4.23827 18.2306 4.27173C18.3881 4.30519 18.5266 4.39813 18.6172 4.53118C18.7079 4.66423 18.7437 4.82714 18.7172 4.98594C18.6907 5.14474 18.604 5.2872 18.475 5.38361L13.1883 9.0008C13.0847 9.07224 12.9618 9.11039 12.836 9.11018C12.7348 9.10979 12.6352 9.08484 12.5458 9.03749C12.4564 8.99013 12.3798 8.92178 12.3227 8.8383ZM18.6407 15.486C18.547 15.6227 18.4028 15.7166 18.2399 15.7471C18.077 15.7776 17.9087 15.7421 17.7719 15.6485L10.625 10.7578L7.30393 13.0297C7.55733 13.6732 7.56475 14.3875 7.32478 15.0361C7.08481 15.6847 6.61428 16.2222 6.00309 16.5458C5.39189 16.8694 4.68289 16.9565 4.01156 16.7904C3.34022 16.6243 2.75361 16.2167 2.36381 15.6454C1.97402 15.0741 1.80837 14.3793 1.89851 13.6936C1.98866 13.0079 2.32828 12.3795 2.85248 11.9284C3.37668 11.4773 4.04871 11.2351 4.74017 11.2482C5.43163 11.2613 6.09403 11.5286 6.60081 11.9992L9.518 10L6.5969 8.0008C6.09183 8.46897 5.43202 8.7347 4.74346 8.74726C4.05489 8.75981 3.38583 8.51831 2.86403 8.06887C2.34223 7.61943 2.00425 6.99353 1.91464 6.31071C1.82502 5.62789 1.99005 4.93599 2.37821 4.36712C2.76637 3.79825 3.35046 3.39229 4.01894 3.22674C4.68742 3.0612 5.39346 3.14768 6.00223 3.46966C6.611 3.79165 7.07984 4.32658 7.31923 4.97231C7.55863 5.61804 7.55179 6.32932 7.30003 6.97033L18.4719 14.6164C18.5402 14.6623 18.5988 14.7213 18.6443 14.7899C18.6897 14.8584 18.7212 14.9353 18.7369 15.0161C18.7526 15.0969 18.7522 15.18 18.7356 15.2606C18.7191 15.3413 18.6868 15.4178 18.6407 15.486ZM6.25003 14.0625C6.2501 13.701 6.12483 13.3507 5.89556 13.0712C5.66629 12.7917 5.3472 12.6004 4.99266 12.5298C4.63812 12.4592 4.27008 12.5137 3.95123 12.684C3.63239 12.8544 3.38247 13.13 3.24407 13.464C3.10567 13.7979 3.08735 14.1695 3.19223 14.5155C3.2971 14.8614 3.51869 15.1603 3.81923 15.3612C4.11977 15.5621 4.48067 15.6526 4.84043 15.6172C5.20019 15.5818 5.53656 15.4228 5.79221 15.1672C5.93784 15.0225 6.05329 14.8504 6.13188 14.6608C6.21047 14.4711 6.25063 14.2678 6.25003 14.0625ZM5.79221 7.04142C6.01078 6.82292 6.15964 6.54451 6.21997 6.24141C6.2803 5.9383 6.24938 5.62411 6.13113 5.33857C6.01289 5.05303 5.81262 4.80898 5.55565 4.63727C5.29869 4.46555 4.99658 4.3739 4.68753 4.3739C4.37847 4.3739 4.07636 4.46555 3.8194 4.63727C3.56244 4.80898 3.36217 5.05303 3.24392 5.33857C3.12567 5.62411 3.09476 5.9383 3.15508 6.24141C3.21541 6.54451 3.36427 6.82292 3.58284 7.04142C3.72713 7.18788 3.8991 7.30418 4.08875 7.38356C4.2784 7.46294 4.48194 7.50382 4.68753 7.50382C4.89312 7.50382 5.09666 7.46294 5.2863 7.38356C5.47595 7.30418 5.64792 7.18788 5.79221 7.04142Z" fill="#191F2E"/>
</svg>
