<svg width="20" height="20" viewBox="0 0 20 20" fill="none" xmlns="http://www.w3.org/2000/svg">
<path d="M16.5626 10.3125H16.5095L15.4641 7.17891L14.0141 2.82891C13.952 2.64222 13.8327 2.47982 13.6731 2.36471C13.5136 2.24959 13.3218 2.18759 13.1251 2.1875H10.6251C10.3764 2.1875 10.138 2.28627 9.96217 2.46209C9.78635 2.6379 9.68758 2.87636 9.68758 3.125C9.68758 3.37364 9.78635 3.6121 9.96217 3.78791C10.138 3.96373 10.3764 4.0625 10.6251 4.0625H12.4493L13.5251 7.28906L9.2282 12.8125H6.50008C6.3514 12.0813 5.94601 11.4275 5.3572 10.9692C4.7684 10.5109 4.03505 10.2784 3.28975 10.3137C2.54444 10.3491 1.83638 10.6499 1.29358 11.1619C0.750783 11.6738 0.409075 12.3631 0.330241 13.105C0.251408 13.847 0.440652 14.5927 0.863757 15.2073C1.28686 15.8218 1.9159 16.2648 2.63714 16.4559C3.35838 16.6471 4.12421 16.5739 4.79617 16.2495C5.46813 15.9252 6.00186 15.3711 6.30086 14.6875H9.68758C9.8303 14.6875 9.97113 14.6549 10.0993 14.5922C10.2276 14.5295 10.3398 14.4384 10.4274 14.3258L14.2376 9.42734L14.7313 10.9117C14.1298 11.35 13.7044 11.9886 13.5317 12.7125C13.3591 13.4365 13.4505 14.1983 13.7895 14.8609C14.1285 15.5235 14.6929 16.0433 15.381 16.3269C16.0692 16.6104 16.8359 16.639 17.5433 16.4075C18.2507 16.1761 18.8522 15.6997 19.2397 15.0642C19.6271 14.4288 19.775 13.6759 19.6568 12.941C19.5385 12.2062 19.1619 11.5377 18.5947 11.0558C18.0274 10.574 17.3069 10.3104 16.5626 10.3125ZM3.43758 14.6875C3.19035 14.6875 2.94868 14.6142 2.74312 14.4768C2.53755 14.3395 2.37734 14.1443 2.28273 13.9159C2.18812 13.6874 2.16337 13.4361 2.2116 13.1936C2.25983 12.9512 2.37888 12.7284 2.5537 12.5536C2.72851 12.3788 2.95124 12.2597 3.19372 12.2115C3.43619 12.1633 3.68753 12.188 3.91593 12.2826C4.14434 12.3773 4.33956 12.5375 4.47692 12.743C4.61427 12.9486 4.68758 13.1903 4.68758 13.4375C4.68758 13.769 4.55588 14.087 4.32146 14.3214C4.08704 14.5558 3.7691 14.6875 3.43758 14.6875ZM16.5626 14.6875C16.3154 14.6875 16.0737 14.6142 15.8681 14.4768C15.6626 14.3395 15.5023 14.1443 15.4077 13.9159C15.3131 13.6874 15.2884 13.4361 15.3366 13.1936C15.3848 12.9512 15.5039 12.7284 15.6787 12.5536C15.8535 12.3788 16.0762 12.2597 16.3187 12.2115C16.5612 12.1633 16.8125 12.188 17.0409 12.2826C17.2693 12.3773 17.4646 12.5375 17.6019 12.743C17.7393 12.9486 17.8126 13.1903 17.8126 13.4375C17.8126 13.769 17.6809 14.087 17.4465 14.3214C17.212 14.5558 16.8941 14.6875 16.5626 14.6875Z" fill="#191F2E"/>
</svg>
