<svg width="20" height="20" viewBox="0 0 20 20" fill="none" xmlns="http://www.w3.org/2000/svg">
<path d="M18.125 4.6875V15.3125C18.125 15.7269 17.9604 16.1243 17.6674 16.4174C17.3743 16.7104 16.9769 16.875 16.5625 16.875H13.4375C13.1889 16.875 12.9504 16.7762 12.7746 16.6004C12.5988 16.4246 12.5 16.1861 12.5 15.9375C12.5 15.6889 12.5988 15.4504 12.7746 15.2746C12.9504 15.0988 13.1889 15 13.4375 15H16.25V5H3.75V5.3125C3.75 5.56114 3.65123 5.7996 3.47541 5.97541C3.2996 6.15123 3.06114 6.25 2.8125 6.25C2.56386 6.25 2.3254 6.15123 2.14959 5.97541C1.97377 5.7996 1.875 5.56114 1.875 5.3125V4.6875C1.875 4.2731 2.03962 3.87567 2.33265 3.58265C2.62567 3.28962 3.0231 3.125 3.4375 3.125H16.5625C16.9769 3.125 17.3743 3.28962 17.6674 3.58265C17.9604 3.87567 18.125 4.2731 18.125 4.6875ZM2.8125 13.75C2.56386 13.75 2.3254 13.8488 2.14959 14.0246C1.97377 14.2004 1.875 14.4389 1.875 14.6875C1.875 14.9361 1.97377 15.1746 2.14959 15.3504C2.3254 15.5262 2.56386 15.625 2.8125 15.625C2.89538 15.625 2.97487 15.6579 3.03347 15.7165C3.09208 15.7751 3.125 15.8546 3.125 15.9375C3.125 16.1861 3.22377 16.4246 3.39959 16.6004C3.5754 16.7762 3.81386 16.875 4.0625 16.875C4.31114 16.875 4.5496 16.7762 4.72541 16.6004C4.90123 16.4246 5 16.1861 5 15.9375C5 15.3573 4.76953 14.8009 4.3593 14.3907C3.94906 13.9805 3.39266 13.75 2.8125 13.75ZM2.8125 10.625C2.56386 10.625 2.3254 10.7238 2.14959 10.8996C1.97377 11.0754 1.875 11.3139 1.875 11.5625C1.875 11.8111 1.97377 12.0496 2.14959 12.2254C2.3254 12.4012 2.56386 12.5 2.8125 12.5C3.72386 12.501 4.59761 12.8635 5.24204 13.508C5.88647 14.1524 6.24897 15.0261 6.25 15.9375C6.25 16.1861 6.34877 16.4246 6.52459 16.6004C6.7004 16.7762 6.93886 16.875 7.1875 16.875C7.43614 16.875 7.6746 16.7762 7.85041 16.6004C8.02623 16.4246 8.125 16.1861 8.125 15.9375C8.12355 14.529 7.56338 13.1786 6.56741 12.1826C5.57143 11.1866 4.22102 10.6264 2.8125 10.625ZM2.8125 7.5C2.56386 7.5 2.3254 7.59877 2.14959 7.77459C1.97377 7.9504 1.875 8.18886 1.875 8.4375C1.875 8.68614 1.97377 8.9246 2.14959 9.10041C2.3254 9.27623 2.56386 9.375 2.8125 9.375C4.55241 9.37686 6.22053 10.0689 7.45083 11.2992C8.68114 12.5295 9.37314 14.1976 9.375 15.9375C9.375 16.1861 9.47377 16.4246 9.64959 16.6004C9.8254 16.7762 10.0639 16.875 10.3125 16.875C10.5611 16.875 10.7996 16.7762 10.9754 16.6004C11.1512 16.4246 11.25 16.1861 11.25 15.9375C11.2475 13.7005 10.3578 11.5558 8.77597 9.97403C7.19417 8.39223 5.0495 7.50248 2.8125 7.5Z" fill="#191F2E"/>
</svg>
