<svg width="20" height="20" viewBox="0 0 20 20" fill="none" xmlns="http://www.w3.org/2000/svg">
<path d="M10 10C10.6826 10.003 11.3603 10.1159 12.007 10.3344C11.8406 12.0992 10.7289 13.75 8.75 13.75C7.51562 13.75 6.87031 12.9023 6.87031 12.0641C6.87031 11.5492 7.10469 11.068 7.53906 10.7086C8.09531 10.2453 8.94688 10 10 10ZM17.5 3.75V16.25C17.5 16.5815 17.3683 16.8995 17.1339 17.1339C16.8995 17.3683 16.5815 17.5 16.25 17.5H3.75C3.41848 17.5 3.10054 17.3683 2.86612 17.1339C2.6317 16.8995 2.5 16.5815 2.5 16.25V3.75C2.5 3.41848 2.6317 3.10054 2.86612 2.86612C3.10054 2.6317 3.41848 2.5 3.75 2.5H16.25C16.5815 2.5 16.8995 2.6317 17.1339 2.86612C17.3683 3.10054 17.5 3.41848 17.5 3.75ZM16.0852 11.4523C15.2748 10.6279 14.3192 9.96025 13.2664 9.48281C13.1961 8.36172 12.8172 7.33125 12.1812 6.54922C11.3578 5.53594 10.1711 5 8.75 5C5.97187 5 3.95937 7.6375 3.875 7.75C3.77534 7.8825 3.73239 8.04917 3.75561 8.21334C3.77884 8.37751 3.86632 8.52573 3.99883 8.62539C4.13133 8.72505 4.298 8.768 4.46217 8.74478C4.62634 8.72155 4.77456 8.63407 4.87422 8.50156C4.89141 8.47891 6.60234 6.25 8.75 6.25C9.79688 6.25 10.625 6.61562 11.2109 7.3375C11.5933 7.82436 11.8479 8.39907 11.9516 9.00938C11.3151 8.83821 10.659 8.75101 10 8.75C8.65078 8.75 7.52266 9.09531 6.73906 9.74844C6.01563 10.3492 5.62031 11.1719 5.62031 12.0641C5.62031 13.4875 6.71875 15 8.75 15C9.40685 15.0074 10.0563 14.8613 10.6468 14.5733C11.2372 14.2854 11.7522 13.8635 12.1508 13.3414C12.7045 12.6124 13.0663 11.756 13.2031 10.8508C13.9252 11.2338 14.5868 11.7213 15.1664 12.2977C15.2213 12.3605 15.2881 12.4116 15.3631 12.4482C15.438 12.4848 15.5195 12.506 15.6028 12.5105C15.6861 12.5151 15.7694 12.503 15.8479 12.4749C15.9264 12.4467 15.9985 12.4032 16.0599 12.3468C16.1213 12.2904 16.1708 12.2222 16.2055 12.1464C16.2402 12.0706 16.2593 11.9886 16.2618 11.9052C16.2643 11.8219 16.2501 11.7389 16.22 11.6611C16.19 11.5833 16.1446 11.5123 16.0867 11.4523H16.0852Z" fill="#191F2E"/>
</svg>
