<svg width="20" height="20" viewBox="0 0 20 20" fill="none" xmlns="http://www.w3.org/2000/svg">
<path d="M19.2133 12.0805C19.1102 11.9664 17.3313 10.032 14.4477 8.91172C14.3133 7.47266 13.7868 6.16406 12.9313 5.16797C11.7868 3.82813 10.1235 3.125 8.12505 3.125C4.10005 3.125 1.47583 6.73281 1.36645 6.88672C1.27692 7.02162 1.24324 7.18601 1.2725 7.34526C1.30176 7.5045 1.39167 7.64618 1.52331 7.74045C1.65494 7.83472 1.81803 7.87423 1.97821 7.85066C2.1384 7.82708 2.28318 7.74226 2.38208 7.61406C2.4063 7.58203 4.75083 4.375 8.12505 4.375C9.7477 4.375 11.0829 4.93047 11.9852 5.98203C12.5649 6.65703 12.9571 7.52031 13.1313 8.48203C12.2263 8.24571 11.2948 8.12573 10.3594 8.125C8.32348 8.125 6.61489 8.65703 5.41723 9.66328C4.35786 10.5539 3.75005 11.7969 3.75005 13.0664C3.74522 13.5595 3.83854 14.0487 4.02458 14.5054C4.21061 14.962 4.48563 15.3772 4.83364 15.7266C5.58833 16.4781 6.6352 16.875 7.85942 16.875C11.9071 16.875 14.2016 13.5836 14.4602 10.2797C15.8888 10.9147 17.1869 11.8099 18.2883 12.9195C18.3434 12.9804 18.41 13.0298 18.4841 13.0649C18.5583 13.1 18.6387 13.1202 18.7207 13.1242C18.8027 13.1283 18.8846 13.1162 18.9619 13.0886C19.0392 13.0609 19.1103 13.0184 19.1711 12.9633C19.232 12.9082 19.2814 12.8417 19.3165 12.7675C19.3516 12.6933 19.3718 12.6129 19.3759 12.5309C19.3799 12.449 19.3678 12.367 19.3402 12.2897C19.3126 12.2124 19.27 12.1413 19.2149 12.0805H19.2133ZM11.8336 13.7711C11.1438 14.6164 9.89536 15.625 7.85942 15.625C5.88442 15.625 5.00005 14.3398 5.00005 13.0664C5.00005 11.2883 6.67739 9.375 10.3594 9.375C11.3341 9.37793 12.3027 9.52752 13.2329 9.81875C13.1977 11.2844 12.6922 12.7172 11.8336 13.7711Z" fill="#191F2E"/>
</svg>
