<svg width="20" height="20" viewBox="0 0 20 20" fill="none" xmlns="http://www.w3.org/2000/svg">
<path d="M17.25 13.25C17.1418 13.1689 17.0102 13.125 16.875 13.125H16.25V5C16.25 4.33696 15.9866 3.70107 15.5178 3.23223C15.0489 2.76339 14.413 2.5 13.75 2.5H3.125C2.46196 2.5 1.82607 2.76339 1.35723 3.23223C0.888392 3.70107 0.625 4.33696 0.625 5C0.625 6.06328 1.41016 6.68281 1.5 6.75C1.60789 6.8317 1.73967 6.87563 1.875 6.875C2.00526 6.87464 2.13215 6.8336 2.23794 6.7576C2.34373 6.6816 2.42314 6.57444 2.46505 6.45111C2.50696 6.32778 2.5093 6.19443 2.47172 6.06971C2.43414 5.94499 2.35854 5.83512 2.25547 5.75547C2.25234 5.75156 1.875 5.44844 1.875 5C1.875 4.66848 2.0067 4.35054 2.24112 4.11612C2.47554 3.8817 2.79348 3.75 3.125 3.75C3.45652 3.75 3.77446 3.8817 4.00888 4.11612C4.2433 4.35054 4.375 4.66848 4.375 5V15C4.375 15.663 4.63839 16.2989 5.10723 16.7678C5.57607 17.2366 6.21196 17.5 6.875 17.5H15.625C16.288 17.5 16.9239 17.2366 17.3928 16.7678C17.8616 16.2989 18.125 15.663 18.125 15C18.125 13.9367 17.3438 13.3172 17.25 13.25ZM8.125 7.5H13.125C13.2908 7.5 13.4497 7.56585 13.5669 7.68306C13.6842 7.80027 13.75 7.95924 13.75 8.125C13.75 8.29076 13.6842 8.44973 13.5669 8.56694C13.4497 8.68415 13.2908 8.75 13.125 8.75H8.125C7.95924 8.75 7.80027 8.68415 7.68306 8.56694C7.56585 8.44973 7.5 8.29076 7.5 8.125C7.5 7.95924 7.56585 7.80027 7.68306 7.68306C7.80027 7.56585 7.95924 7.5 8.125 7.5ZM7.5 10.625C7.5 10.4592 7.56585 10.3003 7.68306 10.1831C7.80027 10.0658 7.95924 10 8.125 10H13.125C13.2908 10 13.4497 10.0658 13.5669 10.1831C13.6842 10.3003 13.75 10.4592 13.75 10.625C13.75 10.7908 13.6842 10.9497 13.5669 11.0669C13.4497 11.1842 13.2908 11.25 13.125 11.25H8.125C7.95924 11.25 7.80027 11.1842 7.68306 11.0669C7.56585 10.9497 7.5 10.7908 7.5 10.625ZM15.625 16.25H8.41484C8.63496 15.8702 8.7506 15.4389 8.75 15C8.75016 14.7881 8.71829 14.5774 8.65547 14.375H16.6242C16.7794 14.5471 16.8687 14.7684 16.8766 15C16.8766 15.1643 16.8442 15.327 16.7813 15.4787C16.7183 15.6305 16.6261 15.7683 16.5099 15.8844C16.3937 16.0005 16.2557 16.0926 16.1038 16.1553C15.952 16.218 15.7893 16.2502 15.625 16.25Z" fill="#191F2E"/>
</svg>
