<svg width="20" height="20" viewBox="0 0 20 20" fill="none" xmlns="http://www.w3.org/2000/svg">
<path d="M7.1875 7.1875C7.1875 6.93886 7.28627 6.7004 7.46209 6.52459C7.6379 6.34877 7.87636 6.25 8.125 6.25H12.8125C13.0611 6.25 13.2996 6.34877 13.4754 6.52459C13.6512 6.7004 13.75 6.93886 13.75 7.1875C13.75 7.43614 13.6512 7.6746 13.4754 7.85041C13.2996 8.02623 13.0611 8.125 12.8125 8.125H8.125C7.87636 8.125 7.6379 8.02623 7.46209 7.85041C7.28627 7.6746 7.1875 7.43614 7.1875 7.1875ZM8.125 11.25H12.8125C13.0611 11.25 13.2996 11.1512 13.4754 10.9754C13.6512 10.7996 13.75 10.5611 13.75 10.3125C13.75 10.0639 13.6512 9.8254 13.4754 9.64959C13.2996 9.47377 13.0611 9.375 12.8125 9.375H8.125C7.87636 9.375 7.6379 9.47377 7.46209 9.64959C7.28627 9.8254 7.1875 10.0639 7.1875 10.3125C7.1875 10.5611 7.28627 10.7996 7.46209 10.9754C7.6379 11.1512 7.87636 11.25 8.125 11.25ZM18.4375 15C18.4375 15.7459 18.1412 16.4613 17.6137 16.9887C17.0863 17.5162 16.3709 17.8125 15.625 17.8125H6.875C6.12908 17.8125 5.41371 17.5162 4.88626 16.9887C4.35882 16.4613 4.0625 15.7459 4.0625 15V5C4.0625 4.75136 3.96373 4.5129 3.78791 4.33709C3.6121 4.16127 3.37364 4.0625 3.125 4.0625C2.87636 4.0625 2.6379 4.16127 2.46209 4.33709C2.28627 4.5129 2.1875 4.75136 2.1875 5C2.1875 5.29141 2.44922 5.50859 2.45156 5.51094L2.4375 5.5C2.54067 5.572 2.6283 5.66402 2.69516 5.77059C2.76202 5.87717 2.80674 5.99611 2.82667 6.12033C2.8466 6.24455 2.84132 6.37151 2.81115 6.49365C2.78098 6.61579 2.72653 6.7306 2.65105 6.83125C2.57558 6.93191 2.48061 7.01634 2.37182 7.07952C2.26302 7.1427 2.14263 7.18334 2.0178 7.19901C1.89297 7.21469 1.76626 7.20507 1.64522 7.17075C1.52419 7.13643 1.4113 7.07809 1.31328 6.99922C1.21016 6.92344 0.3125 6.21484 0.3125 5C0.3125 4.25408 0.608816 3.53871 1.13626 3.01126C1.66371 2.48382 2.37908 2.1875 3.125 2.1875H13.75C14.4959 2.1875 15.2113 2.48382 15.7387 3.01126C16.2662 3.53871 16.5625 4.25408 16.5625 5V12.8125H16.875C17.0778 12.8125 17.2752 12.8783 17.4375 13C17.5398 13.0766 18.4375 13.7852 18.4375 15ZM7.23594 13.4531C7.29821 13.2666 7.41757 13.1044 7.57712 12.9894C7.73668 12.8744 7.92834 12.8125 8.125 12.8125H14.6875V5C14.6875 4.75136 14.5887 4.5129 14.4129 4.33709C14.2371 4.16127 13.9986 4.0625 13.75 4.0625H5.77656C5.88323 4.36355 5.93765 4.68061 5.9375 5V15C5.9375 15.2486 6.03627 15.4871 6.21209 15.6629C6.3879 15.8387 6.62636 15.9375 6.875 15.9375C7.12364 15.9375 7.3621 15.8387 7.53791 15.6629C7.71373 15.4871 7.8125 15.2486 7.8125 15C7.8125 14.7203 7.56484 14.5016 7.5625 14.5C7.40506 14.3819 7.2888 14.2172 7.23019 14.0293C7.17157 13.8414 7.17358 13.6398 7.23594 13.4531ZM16.5625 15C16.5597 14.8889 16.5262 14.7807 16.4656 14.6875H9.66875C9.68241 14.7911 9.68919 14.8955 9.68906 15C9.68928 15.3194 9.63485 15.6365 9.52812 15.9375H15.625C15.8736 15.9375 16.1121 15.8387 16.2879 15.6629C16.4637 15.4871 16.5625 15.2486 16.5625 15Z" fill="#191F2E"/>
</svg>
