<svg width="20" height="20" viewBox="0 0 20 20" fill="none" xmlns="http://www.w3.org/2000/svg">
<path d="M17.8711 7.81641C17.5961 7.52969 17.3125 7.23359 17.2195 7.00938C17.1367 6.80938 17.1305 6.39766 17.125 6.03516C17.1133 5.25391 17.0984 4.28203 16.4078 3.59219C15.7172 2.90234 14.7461 2.88906 13.9648 2.875C13.6023 2.86953 13.1906 2.86328 12.9906 2.78047C12.7664 2.6875 12.4703 2.40391 12.1836 2.12891C11.6305 1.59844 10.9414 0.9375 10 0.9375C9.05859 0.9375 8.36953 1.59844 7.81641 2.12891C7.52969 2.40391 7.23359 2.6875 7.00938 2.78047C6.80938 2.86328 6.39766 2.86953 6.03516 2.875C5.25391 2.89062 4.28203 2.90156 3.59375 3.59375C2.90547 4.28594 2.89062 5.25391 2.875 6.03516C2.86953 6.39766 2.86328 6.80938 2.78047 7.00938C2.6875 7.23359 2.40391 7.52969 2.12891 7.81641C1.59844 8.36953 0.9375 9.0625 0.9375 10C0.9375 10.9375 1.59844 11.6305 2.12891 12.1875C2.40391 12.4742 2.6875 12.7703 2.78047 12.9945C2.86328 13.1945 2.86953 13.6062 2.875 13.9688C2.88672 14.75 2.90156 15.7219 3.59219 16.4117C4.28281 17.1016 5.25391 17.1148 6.03516 17.1289C6.39766 17.1344 6.80938 17.1406 7.00938 17.2234C7.23359 17.3164 7.52969 17.6 7.81641 17.875C8.36953 18.4016 9.0625 19.0625 10 19.0625C10.9375 19.0625 11.6305 18.4016 12.1836 17.8711C12.4703 17.5961 12.7664 17.3125 12.9906 17.2195C13.1906 17.1367 13.6023 17.1305 13.9648 17.125C14.7461 17.1133 15.718 17.0984 16.4078 16.4078C17.0977 15.7172 17.1109 14.7461 17.125 13.9648C17.1305 13.6023 17.1367 13.1906 17.2195 12.9906C17.3125 12.7664 17.5961 12.4703 17.8711 12.1836C18.4016 11.6305 19.0625 10.9414 19.0625 10C19.0625 9.05859 18.4016 8.36953 17.8711 7.81641ZM16.518 10.8859C16.1414 11.2766 15.7148 11.7234 15.4867 12.2734C15.2672 12.8047 15.2586 13.3797 15.2523 13.9367C15.2461 14.3555 15.2375 14.9297 15.0844 15.082C14.9313 15.2344 14.3578 15.2437 13.9391 15.25C13.382 15.2586 12.807 15.2672 12.2758 15.4844C11.7289 15.7117 11.2805 16.1383 10.8883 16.5148C10.6078 16.7844 10.1875 17.1875 10 17.1875C9.8125 17.1875 9.39219 16.7844 9.11406 16.518C8.72344 16.1414 8.27656 15.7148 7.72656 15.4867C7.19531 15.2672 6.62031 15.2586 6.06328 15.2523C5.64453 15.2461 5.07031 15.2375 4.91797 15.0844C4.76562 14.9313 4.75625 14.3578 4.75 13.9391C4.74141 13.382 4.73281 12.807 4.51562 12.2758C4.2875 11.7289 3.86094 11.2812 3.48438 10.8883C3.21562 10.6078 2.8125 10.1875 2.8125 10C2.8125 9.8125 3.21563 9.39219 3.48203 9.11406C3.85859 8.72344 4.28516 8.27656 4.51328 7.72656C4.73281 7.19531 4.74141 6.62031 4.74766 6.06328C4.75625 5.64453 4.76562 5.07031 4.92188 4.92188C5.07812 4.77344 5.64844 4.76016 6.06719 4.75391C6.62422 4.74531 7.19922 4.73672 7.73047 4.51953C8.27734 4.29219 8.72578 3.86562 9.11797 3.48906C9.39219 3.21563 9.8125 2.8125 10 2.8125C10.1875 2.8125 10.6078 3.21563 10.8859 3.48203C11.2766 3.85859 11.7234 4.28516 12.2734 4.51328C12.8047 4.73281 13.3797 4.74141 13.9367 4.74766C14.3555 4.75391 14.9297 4.7625 15.082 4.91562C15.2344 5.06875 15.2437 5.64219 15.25 6.06094C15.2586 6.61797 15.2672 7.19297 15.4844 7.72422C15.7125 8.27109 16.1391 8.71875 16.5156 9.11172C16.782 9.38984 17.1852 9.81016 17.1852 9.99766C17.1852 10.1852 16.7844 10.6078 16.518 10.8859Z" fill="#191F2E"/>
</svg>
