<svg width="20" height="20" viewBox="0 0 20 20" fill="none" xmlns="http://www.w3.org/2000/svg">
<path d="M17.6453 8.03281C17.3508 7.725 17.0461 7.40781 16.9312 7.12891C16.825 6.87344 16.8187 6.45 16.8125 6.03984C16.8008 5.27734 16.7883 4.41328 16.1875 3.8125C15.5867 3.21172 14.7227 3.19922 13.9602 3.1875C13.55 3.18125 13.1266 3.175 12.8711 3.06875C12.593 2.95391 12.275 2.64922 11.9672 2.35469C11.4281 1.83672 10.8156 1.25 10 1.25C9.18437 1.25 8.57266 1.83672 8.03281 2.35469C7.725 2.64922 7.40781 2.95391 7.12891 3.06875C6.875 3.175 6.45 3.18125 6.03984 3.1875C5.27734 3.19922 4.41328 3.21172 3.8125 3.8125C3.21172 4.41328 3.20312 5.27734 3.1875 6.03984C3.18125 6.45 3.175 6.87344 3.06875 7.12891C2.95391 7.40703 2.64922 7.725 2.35469 8.03281C1.83672 8.57188 1.25 9.18437 1.25 10C1.25 10.8156 1.83672 11.4273 2.35469 11.9672C2.64922 12.275 2.95391 12.5922 3.06875 12.8711C3.175 13.1266 3.18125 13.55 3.1875 13.9602C3.19922 14.7227 3.21172 15.5867 3.8125 16.1875C4.41328 16.7883 5.27734 16.8008 6.03984 16.8125C6.45 16.8187 6.87344 16.825 7.12891 16.9312C7.40703 17.0461 7.725 17.3508 8.03281 17.6453C8.57188 18.1633 9.18437 18.75 10 18.75C10.8156 18.75 11.4273 18.1633 11.9672 17.6453C12.275 17.3508 12.5922 17.0461 12.8711 16.9312C13.1266 16.825 13.55 16.8187 13.9602 16.8125C14.7227 16.8008 15.5867 16.7883 16.1875 16.1875C16.7883 15.5867 16.8008 14.7227 16.8125 13.9602C16.8187 13.55 16.825 13.1266 16.9312 12.8711C17.0461 12.593 17.3508 12.275 17.6453 11.9672C18.1633 11.4281 18.75 10.8156 18.75 10C18.75 9.18437 18.1633 8.57266 17.6453 8.03281ZM10 15C9.81458 15 9.63332 14.945 9.47915 14.842C9.32498 14.739 9.20482 14.5926 9.13386 14.4213C9.06291 14.25 9.04434 14.0615 9.08051 13.8796C9.11669 13.6977 9.20598 13.5307 9.33709 13.3996C9.4682 13.2685 9.63525 13.1792 9.8171 13.143C9.99896 13.1068 10.1875 13.1254 10.3588 13.1964C10.5301 13.2673 10.6765 13.3875 10.7795 13.5417C10.8825 13.6958 10.9375 13.8771 10.9375 14.0625C10.9375 14.3111 10.8387 14.5496 10.6629 14.7254C10.4871 14.9012 10.2486 15 10 15ZM10.625 11.1938V11.25C10.625 11.4158 10.5592 11.5747 10.4419 11.6919C10.3247 11.8092 10.1658 11.875 10 11.875C9.83424 11.875 9.67527 11.8092 9.55806 11.6919C9.44085 11.5747 9.375 11.4158 9.375 11.25V10.625C9.375 10.4592 9.44085 10.3003 9.55806 10.1831C9.67527 10.0658 9.83424 10 10 10C11.0336 10 11.875 9.29688 11.875 8.4375C11.875 7.57812 11.0336 6.875 10 6.875C8.96641 6.875 8.125 7.57812 8.125 8.4375V8.75C8.125 8.91576 8.05915 9.07473 7.94194 9.19194C7.82473 9.30915 7.66576 9.375 7.5 9.375C7.33424 9.375 7.17527 9.30915 7.05806 9.19194C6.94085 9.07473 6.875 8.91576 6.875 8.75V8.4375C6.875 6.88672 8.27656 5.625 10 5.625C11.7234 5.625 13.125 6.88672 13.125 8.4375C13.125 9.79531 12.05 10.932 10.625 11.1938Z" fill="#191F2E"/>
</svg>
