<svg width="20" height="20" viewBox="0 0 20 20" fill="none" xmlns="http://www.w3.org/2000/svg">
<path d="M17.6453 8.03281C17.3508 7.725 17.0461 7.40781 16.9312 7.12891C16.825 6.87344 16.8187 6.45 16.8125 6.03984C16.8008 5.27734 16.7883 4.41328 16.1875 3.8125C15.5867 3.21172 14.7227 3.19922 13.9602 3.1875C13.55 3.18125 13.1266 3.175 12.8711 3.06875C12.593 2.95391 12.275 2.64922 11.9672 2.35469C11.4281 1.83672 10.8156 1.25 10 1.25C9.18437 1.25 8.57266 1.83672 8.03281 2.35469C7.725 2.64922 7.40781 2.95391 7.12891 3.06875C6.875 3.175 6.45 3.18125 6.03984 3.1875C5.27734 3.19922 4.41328 3.21172 3.8125 3.8125C3.21172 4.41328 3.20312 5.27734 3.1875 6.03984C3.18125 6.45 3.175 6.87344 3.06875 7.12891C2.95391 7.40703 2.64922 7.725 2.35469 8.03281C1.83672 8.57188 1.25 9.18437 1.25 10C1.25 10.8156 1.83672 11.4273 2.35469 11.9672C2.64922 12.275 2.95391 12.5922 3.06875 12.8711C3.175 13.1266 3.18125 13.55 3.1875 13.9602C3.19922 14.7227 3.21172 15.5867 3.8125 16.1875C4.41328 16.7883 5.27734 16.8008 6.03984 16.8125C6.45 16.8187 6.87344 16.825 7.12891 16.9312C7.40703 17.0461 7.725 17.3508 8.03281 17.6453C8.57188 18.1633 9.18437 18.75 10 18.75C10.8156 18.75 11.4273 18.1633 11.9672 17.6453C12.275 17.3508 12.5922 17.0461 12.8711 16.9312C13.1266 16.825 13.55 16.8187 13.9602 16.8125C14.7227 16.8008 15.5867 16.7883 16.1875 16.1875C16.7883 15.5867 16.8008 14.7227 16.8125 13.9602C16.8187 13.55 16.825 13.1266 16.9312 12.8711C17.0461 12.593 17.3508 12.275 17.6453 11.9672C18.1633 11.4281 18.75 10.8156 18.75 10C18.75 9.18437 18.1633 8.57266 17.6453 8.03281ZM16.743 11.1023C16.3687 11.493 15.9812 11.8969 15.7758 12.393C15.5789 12.8695 15.5703 13.4141 15.5625 13.9414C15.5547 14.4883 15.5461 15.0609 15.3031 15.3031C15.0602 15.5453 14.4914 15.5547 13.9414 15.5625C13.4141 15.5703 12.8695 15.5789 12.393 15.7758C11.8969 15.9812 11.493 16.3687 11.1023 16.743C10.7117 17.1172 10.3125 17.5 10 17.5C9.6875 17.5 9.28516 17.1156 8.89766 16.743C8.51016 16.3703 8.10313 15.9812 7.60703 15.7758C7.13047 15.5789 6.58594 15.5703 6.05859 15.5625C5.51172 15.5547 4.93906 15.5461 4.69687 15.3031C4.45469 15.0602 4.44531 14.4914 4.4375 13.9414C4.42969 13.4141 4.42109 12.8695 4.22422 12.393C4.01875 11.8969 3.63125 11.493 3.25703 11.1023C2.88281 10.7117 2.5 10.3125 2.5 10C2.5 9.6875 2.88437 9.28516 3.25703 8.89766C3.62969 8.51016 4.01875 8.10313 4.22422 7.60703C4.42109 7.13047 4.42969 6.58594 4.4375 6.05859C4.44531 5.51172 4.45391 4.93906 4.69687 4.69687C4.93984 4.45469 5.50859 4.44531 6.05859 4.4375C6.58594 4.42969 7.13047 4.42109 7.60703 4.22422C8.10313 4.01875 8.50703 3.63125 8.89766 3.25703C9.28828 2.88281 9.6875 2.5 10 2.5C10.3125 2.5 10.7148 2.88437 11.1023 3.25703C11.4898 3.62969 11.8969 4.01875 12.393 4.22422C12.8695 4.42109 13.4141 4.42969 13.9414 4.4375C14.4883 4.44531 15.0609 4.45391 15.3031 4.69687C15.5453 4.93984 15.5547 5.50859 15.5625 6.05859C15.5703 6.58594 15.5789 7.13047 15.7758 7.60703C15.9812 8.10313 16.3687 8.50703 16.743 8.89766C17.1172 9.28828 17.5 9.6875 17.5 10C17.5 10.3125 17.1156 10.7148 16.743 11.1023ZM9.375 10.625V6.25C9.375 6.08424 9.44085 5.92527 9.55806 5.80806C9.67527 5.69085 9.83424 5.625 10 5.625C10.1658 5.625 10.3247 5.69085 10.4419 5.80806C10.5592 5.92527 10.625 6.08424 10.625 6.25V10.625C10.625 10.7908 10.5592 10.9497 10.4419 11.0669C10.3247 11.1842 10.1658 11.25 10 11.25C9.83424 11.25 9.67527 11.1842 9.55806 11.0669C9.44085 10.9497 9.375 10.7908 9.375 10.625ZM10.9375 13.4375C10.9375 13.6229 10.8825 13.8042 10.7795 13.9583C10.6765 14.1125 10.5301 14.2327 10.3588 14.3036C10.1875 14.3746 9.99896 14.3932 9.8171 14.357C9.63525 14.3208 9.4682 14.2315 9.33709 14.1004C9.20598 13.9693 9.11669 13.8023 9.08051 13.6204C9.04434 13.4385 9.06291 13.25 9.13386 13.0787C9.20482 12.9074 9.32498 12.761 9.47915 12.658C9.63332 12.555 9.81458 12.5 10 12.5C10.2486 12.5 10.4871 12.5988 10.6629 12.7746C10.8387 12.9504 10.9375 13.1889 10.9375 13.4375Z" fill="#191F2E"/>
</svg>
