<svg width="20" height="20" viewBox="0 0 20 20" fill="none" xmlns="http://www.w3.org/2000/svg">
<path d="M11.875 16.875C11.875 17.0408 11.8092 17.1997 11.6919 17.3169C11.5747 17.4342 11.4158 17.5 11.25 17.5H8.75C8.58424 17.5 8.42527 17.4342 8.30806 17.3169C8.19085 17.1997 8.125 17.0408 8.125 16.875C8.125 16.7092 8.19085 16.5503 8.30806 16.4331C8.42527 16.3158 8.58424 16.25 8.75 16.25H11.25C11.4158 16.25 11.5747 16.3158 11.6919 16.4331C11.8092 16.5503 11.875 16.7092 11.875 16.875ZM3.125 11.875C3.29076 11.875 3.44973 11.8092 3.56694 11.6919C3.68415 11.5747 3.75 11.4158 3.75 11.25V8.75C3.75 8.58424 3.68415 8.42527 3.56694 8.30806C3.44973 8.19085 3.29076 8.125 3.125 8.125C2.95924 8.125 2.80027 8.19085 2.68306 8.30806C2.56585 8.42527 2.5 8.58424 2.5 8.75V11.25C2.5 11.4158 2.56585 11.5747 2.68306 11.6919C2.80027 11.8092 2.95924 11.875 3.125 11.875ZM5.625 16.25H3.75V14.375C3.75 14.2092 3.68415 14.0503 3.56694 13.9331C3.44973 13.8158 3.29076 13.75 3.125 13.75C2.95924 13.75 2.80027 13.8158 2.68306 13.9331C2.56585 14.0503 2.5 14.2092 2.5 14.375V16.25C2.5 16.5815 2.6317 16.8995 2.86612 17.1339C3.10054 17.3683 3.41848 17.5 3.75 17.5H5.625C5.79076 17.5 5.94973 17.4342 6.06694 17.3169C6.18415 17.1997 6.25 17.0408 6.25 16.875C6.25 16.7092 6.18415 16.5503 6.06694 16.4331C5.94973 16.3158 5.79076 16.25 5.625 16.25ZM17.5 3.75C17.5 3.41848 17.3683 3.10054 17.1339 2.86612C16.8995 2.6317 16.5815 2.5 16.25 2.5H3.75C3.44216 2.49993 3.1453 2.61438 2.91719 2.82109C2.88162 2.84938 2.84938 2.88162 2.82109 2.91719C2.61438 3.1453 2.49993 3.44216 2.5 3.75V5.625C2.5 5.79076 2.56585 5.94973 2.68306 6.06694C2.80027 6.18415 2.95924 6.25 3.125 6.25C3.29076 6.25 3.44973 6.18415 3.56694 6.06694C3.68415 5.94973 3.75 5.79076 3.75 5.625V4.63359L15.3664 16.25H14.375C14.2092 16.25 14.0503 16.3158 13.9331 16.4331C13.8158 16.5503 13.75 16.7092 13.75 16.875C13.75 17.0408 13.8158 17.1997 13.9331 17.3169C14.0503 17.4342 14.2092 17.5 14.375 17.5H16.25C16.5577 17.5 16.8544 17.3859 17.0828 17.1797C17.1006 17.1653 17.1176 17.15 17.1336 17.1336C17.1499 17.1178 17.1651 17.1008 17.1789 17.0828C17.3856 16.8547 17.5001 16.5578 17.5 16.25V3.75Z" fill="#191F2E"/>
</svg>
