<svg width="20" height="20" viewBox="0 0 20 20" fill="none" xmlns="http://www.w3.org/2000/svg">
<path d="M16.25 2.5H3.75C3.41848 2.5 3.10054 2.6317 2.86612 2.86612C2.6317 3.10054 2.5 3.41848 2.5 3.75V16.25C2.5 16.5815 2.6317 16.8995 2.86612 17.1339C3.10054 17.3683 3.41848 17.5 3.75 17.5H16.25C16.5815 17.5 16.8995 17.3683 17.1339 17.1339C17.3683 16.8995 17.5 16.5815 17.5 16.25V3.75C17.5 3.41848 17.3683 3.10054 17.1339 2.86612C16.8995 2.6317 16.5815 2.5 16.25 2.5ZM4.375 5.625C4.375 5.29348 4.5067 4.97554 4.74112 4.74112C4.97554 4.5067 5.29348 4.375 5.625 4.375H7.5C7.66576 4.375 7.82473 4.44085 7.94194 4.55806C8.05915 4.67527 8.125 4.83424 8.125 5C8.125 5.16576 8.05915 5.32473 7.94194 5.44194C7.82473 5.55915 7.66576 5.625 7.5 5.625H5.625V7.5C5.625 7.66576 5.55915 7.82473 5.44194 7.94194C5.32473 8.05915 5.16576 8.125 5 8.125C4.83424 8.125 4.67527 8.05915 4.55806 7.94194C4.44085 7.82473 4.375 7.66576 4.375 7.5V5.625ZM8.75 14.375H5.625C5.29348 14.375 4.97554 14.2433 4.74112 14.0089C4.5067 13.7745 4.375 13.4565 4.375 13.125V10.625C4.375 10.4592 4.44085 10.3003 4.55806 10.1831C4.67527 10.0658 4.83424 10 5 10C5.16576 10 5.32473 10.0658 5.44194 10.1831C5.55915 10.3003 5.625 10.4592 5.625 10.625V13.125H8.75C8.91576 13.125 9.07473 13.1908 9.19194 13.3081C9.30915 13.4253 9.375 13.5842 9.375 13.75C9.375 13.9158 9.30915 14.0747 9.19194 14.1919C9.07473 14.3092 8.91576 14.375 8.75 14.375ZM10 5C10 4.83424 10.0658 4.67527 10.1831 4.55806C10.3003 4.44085 10.4592 4.375 10.625 4.375H13.125C13.4565 4.375 13.7745 4.5067 14.0089 4.74112C14.2433 4.97554 14.375 5.29348 14.375 5.625V8.75C14.375 8.91576 14.3092 9.07473 14.1919 9.19194C14.0747 9.30915 13.9158 9.375 13.75 9.375C13.5842 9.375 13.4253 9.30915 13.3081 9.19194C13.1908 9.07473 13.125 8.91576 13.125 8.75V5.625H10.625C10.4592 5.625 10.3003 5.55915 10.1831 5.44194C10.0658 5.32473 10 5.16576 10 5ZM15.625 14.375H14.375V15.625C14.375 15.7908 14.3092 15.9497 14.1919 16.0669C14.0747 16.1842 13.9158 16.25 13.75 16.25C13.5842 16.25 13.4253 16.1842 13.3081 16.0669C13.1908 15.9497 13.125 15.7908 13.125 15.625V14.375H11.875C11.7092 14.375 11.5503 14.3092 11.4331 14.1919C11.3158 14.0747 11.25 13.9158 11.25 13.75C11.25 13.5842 11.3158 13.4253 11.4331 13.3081C11.5503 13.1908 11.7092 13.125 11.875 13.125H13.125V11.875C13.125 11.7092 13.1908 11.5503 13.3081 11.4331C13.4253 11.3158 13.5842 11.25 13.75 11.25C13.9158 11.25 14.0747 11.3158 14.1919 11.4331C14.3092 11.5503 14.375 11.7092 14.375 11.875V13.125H15.625C15.7908 13.125 15.9497 13.1908 16.0669 13.3081C16.1842 13.4253 16.25 13.5842 16.25 13.75C16.25 13.9158 16.1842 14.0747 16.0669 14.1919C15.9497 14.3092 15.7908 14.375 15.625 14.375Z" fill="#191F2E"/>
</svg>
