<svg width="20" height="20" viewBox="0 0 20 20" fill="none" xmlns="http://www.w3.org/2000/svg">
<path d="M12.1875 16.875C12.1875 17.1236 12.0887 17.3621 11.9129 17.5379C11.7371 17.7137 11.4986 17.8125 11.25 17.8125H8.75C8.50136 17.8125 8.2629 17.7137 8.08709 17.5379C7.91127 17.3621 7.8125 17.1236 7.8125 16.875C7.8125 16.6264 7.91127 16.3879 8.08709 16.2121C8.2629 16.0363 8.50136 15.9375 8.75 15.9375H11.25C11.4986 15.9375 11.7371 16.0363 11.9129 16.2121C12.0887 16.3879 12.1875 16.6264 12.1875 16.875ZM3.125 12.1875C3.37364 12.1875 3.6121 12.0887 3.78791 11.9129C3.96373 11.7371 4.0625 11.4986 4.0625 11.25V8.75C4.0625 8.50136 3.96373 8.2629 3.78791 8.08709C3.6121 7.91127 3.37364 7.8125 3.125 7.8125C2.87636 7.8125 2.6379 7.91127 2.46209 8.08709C2.28627 8.2629 2.1875 8.50136 2.1875 8.75V11.25C2.1875 11.4986 2.28627 11.7371 2.46209 11.9129C2.6379 12.0887 2.87636 12.1875 3.125 12.1875ZM5.625 15.9375H4.0625V14.375C4.0625 14.1264 3.96373 13.8879 3.78791 13.7121C3.6121 13.5363 3.37364 13.4375 3.125 13.4375C2.87636 13.4375 2.6379 13.5363 2.46209 13.7121C2.28627 13.8879 2.1875 14.1264 2.1875 14.375V16.25C2.1875 16.6644 2.35212 17.0618 2.64515 17.3549C2.93817 17.6479 3.3356 17.8125 3.75 17.8125H5.625C5.87364 17.8125 6.1121 17.7137 6.28791 17.5379C6.46373 17.3621 6.5625 17.1236 6.5625 16.875C6.5625 16.6264 6.46373 16.3879 6.28791 16.2121C6.1121 16.0363 5.87364 15.9375 5.625 15.9375ZM17.8125 3.75V16.25C17.8125 16.6644 17.6479 17.0618 17.3549 17.3549C17.0618 17.6479 16.6644 17.8125 16.25 17.8125H14.375C14.1264 17.8125 13.8879 17.7137 13.7121 17.5379C13.5363 17.3621 13.4375 17.1236 13.4375 16.875C13.4375 16.6264 13.5363 16.3879 13.7121 16.2121C13.8879 16.0363 14.1264 15.9375 14.375 15.9375H14.6094L4.0625 5.39062V5.625C4.0625 5.87364 3.96373 6.1121 3.78791 6.28791C3.6121 6.46373 3.37364 6.5625 3.125 6.5625C2.87636 6.5625 2.6379 6.46373 2.46209 6.28791C2.28627 6.1121 2.1875 5.87364 2.1875 5.625V3.75C2.1875 3.3356 2.35212 2.93817 2.64515 2.64515C2.93817 2.35212 3.3356 2.1875 3.75 2.1875H16.25C16.6644 2.1875 17.0618 2.35212 17.3549 2.64515C17.6479 2.93817 17.8125 3.3356 17.8125 3.75ZM15.9375 4.0625H5.39062L15.9375 14.6094V4.0625Z" fill="#191F2E"/>
</svg>
