<svg width="20" height="20" viewBox="0 0 20 20" fill="none" xmlns="http://www.w3.org/2000/svg">
<path d="M8.125 3.125C8.125 2.95924 8.19085 2.80027 8.30806 2.68306C8.42527 2.56585 8.58424 2.5 8.75 2.5H11.25C11.4158 2.5 11.5747 2.56585 11.6919 2.68306C11.8092 2.80027 11.875 2.95924 11.875 3.125C11.875 3.29076 11.8092 3.44973 11.6919 3.56694C11.5747 3.68415 11.4158 3.75 11.25 3.75H8.75C8.58424 3.75 8.42527 3.68415 8.30806 3.56694C8.19085 3.44973 8.125 3.29076 8.125 3.125ZM11.25 16.25H8.75C8.58424 16.25 8.42527 16.3158 8.30806 16.4331C8.19085 16.5503 8.125 16.7092 8.125 16.875C8.125 17.0408 8.19085 17.1997 8.30806 17.3169C8.42527 17.4342 8.58424 17.5 8.75 17.5H11.25C11.4158 17.5 11.5747 17.4342 11.6919 17.3169C11.8092 17.1997 11.875 17.0408 11.875 16.875C11.875 16.7092 11.8092 16.5503 11.6919 16.4331C11.5747 16.3158 11.4158 16.25 11.25 16.25ZM16.25 2.5H14.375C14.2092 2.5 14.0503 2.56585 13.9331 2.68306C13.8158 2.80027 13.75 2.95924 13.75 3.125C13.75 3.29076 13.8158 3.44973 13.9331 3.56694C14.0503 3.68415 14.2092 3.75 14.375 3.75H16.25V5.625C16.25 5.79076 16.3158 5.94973 16.4331 6.06694C16.5503 6.18415 16.7092 6.25 16.875 6.25C17.0408 6.25 17.1997 6.18415 17.3169 6.06694C17.4342 5.94973 17.5 5.79076 17.5 5.625V3.75C17.5 3.41848 17.3683 3.10054 17.1339 2.86612C16.8995 2.6317 16.5815 2.5 16.25 2.5ZM16.875 8.125C16.7092 8.125 16.5503 8.19085 16.4331 8.30806C16.3158 8.42527 16.25 8.58424 16.25 8.75V11.25C16.25 11.4158 16.3158 11.5747 16.4331 11.6919C16.5503 11.8092 16.7092 11.875 16.875 11.875C17.0408 11.875 17.1997 11.8092 17.3169 11.6919C17.4342 11.5747 17.5 11.4158 17.5 11.25V8.75C17.5 8.58424 17.4342 8.42527 17.3169 8.30806C17.1997 8.19085 17.0408 8.125 16.875 8.125ZM16.875 13.75C16.7092 13.75 16.5503 13.8158 16.4331 13.9331C16.3158 14.0503 16.25 14.2092 16.25 14.375V16.25H14.375C14.2092 16.25 14.0503 16.3158 13.9331 16.4331C13.8158 16.5503 13.75 16.7092 13.75 16.875C13.75 17.0408 13.8158 17.1997 13.9331 17.3169C14.0503 17.4342 14.2092 17.5 14.375 17.5H16.25C16.5815 17.5 16.8995 17.3683 17.1339 17.1339C17.3683 16.8995 17.5 16.5815 17.5 16.25V14.375C17.5 14.2092 17.4342 14.0503 17.3169 13.9331C17.1997 13.8158 17.0408 13.75 16.875 13.75ZM3.125 11.875C3.29076 11.875 3.44973 11.8092 3.56694 11.6919C3.68415 11.5747 3.75 11.4158 3.75 11.25V8.75C3.75 8.58424 3.68415 8.42527 3.56694 8.30806C3.44973 8.19085 3.29076 8.125 3.125 8.125C2.95924 8.125 2.80027 8.19085 2.68306 8.30806C2.56585 8.42527 2.5 8.58424 2.5 8.75V11.25C2.5 11.4158 2.56585 11.5747 2.68306 11.6919C2.80027 11.8092 2.95924 11.875 3.125 11.875ZM5.625 16.25H3.75V14.375C3.75 14.2092 3.68415 14.0503 3.56694 13.9331C3.44973 13.8158 3.29076 13.75 3.125 13.75C2.95924 13.75 2.80027 13.8158 2.68306 13.9331C2.56585 14.0503 2.5 14.2092 2.5 14.375V16.25C2.5 16.5815 2.6317 16.8995 2.86612 17.1339C3.10054 17.3683 3.41848 17.5 3.75 17.5H5.625C5.79076 17.5 5.94973 17.4342 6.06694 17.3169C6.18415 17.1997 6.25 17.0408 6.25 16.875C6.25 16.7092 6.18415 16.5503 6.06694 16.4331C5.94973 16.3158 5.79076 16.25 5.625 16.25ZM3.125 6.25C3.29076 6.25 3.44973 6.18415 3.56694 6.06694C3.68415 5.94973 3.75 5.79076 3.75 5.625V3.75H5.625C5.79076 3.75 5.94973 3.68415 6.06694 3.56694C6.18415 3.44973 6.25 3.29076 6.25 3.125C6.25 2.95924 6.18415 2.80027 6.06694 2.68306C5.94973 2.56585 5.79076 2.5 5.625 2.5H3.75C3.41848 2.5 3.10054 2.6317 2.86612 2.86612C2.6317 3.10054 2.5 3.41848 2.5 3.75V5.625C2.5 5.79076 2.56585 5.94973 2.68306 6.06694C2.80027 6.18415 2.95924 6.25 3.125 6.25ZM13.75 14.375H6.25C6.08424 14.375 5.92527 14.3092 5.80806 14.1919C5.69085 14.0747 5.625 13.9158 5.625 13.75V6.25C5.625 6.08424 5.69085 5.92527 5.80806 5.80806C5.92527 5.69085 6.08424 5.625 6.25 5.625H13.75C13.9158 5.625 14.0747 5.69085 14.1919 5.80806C14.3092 5.92527 14.375 6.08424 14.375 6.25V13.75C14.375 13.9158 14.3092 14.0747 14.1919 14.1919C14.0747 14.3092 13.9158 14.375 13.75 14.375ZM13.125 6.875H6.875V13.125H13.125V6.875Z" fill="#191F2E"/>
</svg>
