<svg width="20" height="20" viewBox="0 0 20 20" fill="none" xmlns="http://www.w3.org/2000/svg">
<path d="M5 16.875C5 17.0408 4.93415 17.1997 4.81694 17.3169C4.69973 17.4342 4.54076 17.5 4.375 17.5H3.75C3.41848 17.5 3.10054 17.3683 2.86612 17.1339C2.6317 16.8995 2.5 16.5815 2.5 16.25V15.625C2.5 15.4592 2.56585 15.3003 2.68306 15.1831C2.80027 15.0658 2.95924 15 3.125 15C3.29076 15 3.44973 15.0658 3.56694 15.1831C3.68415 15.3003 3.75 15.4592 3.75 15.625V16.25H4.375C4.54076 16.25 4.69973 16.3158 4.81694 16.4331C4.93415 16.5503 5 16.7092 5 16.875ZM8.75 16.25H7.5C7.33424 16.25 7.17527 16.3158 7.05806 16.4331C6.94085 16.5503 6.875 16.7092 6.875 16.875C6.875 17.0408 6.94085 17.1997 7.05806 17.3169C7.17527 17.4342 7.33424 17.5 7.5 17.5H8.75C8.91576 17.5 9.07473 17.4342 9.19194 17.3169C9.30915 17.1997 9.375 17.0408 9.375 16.875C9.375 16.7092 9.30915 16.5503 9.19194 16.4331C9.07473 16.3158 8.91576 16.25 8.75 16.25ZM3.125 13.125C3.29076 13.125 3.44973 13.0592 3.56694 12.9419C3.68415 12.8247 3.75 12.6658 3.75 12.5V11.25C3.75 11.0842 3.68415 10.9253 3.56694 10.8081C3.44973 10.6908 3.29076 10.625 3.125 10.625C2.95924 10.625 2.80027 10.6908 2.68306 10.8081C2.56585 10.9253 2.5 11.0842 2.5 11.25V12.5C2.5 12.6658 2.56585 12.8247 2.68306 12.9419C2.80027 13.0592 2.95924 13.125 3.125 13.125ZM13.125 15C12.9592 15 12.8003 15.0658 12.6831 15.1831C12.5658 15.3003 12.5 15.4592 12.5 15.625V16.25H11.875C11.7092 16.25 11.5503 16.3158 11.4331 16.4331C11.3158 16.5503 11.25 16.7092 11.25 16.875C11.25 17.0408 11.3158 17.1997 11.4331 17.3169C11.5503 17.4342 11.7092 17.5 11.875 17.5H12.5C12.8315 17.5 13.1495 17.3683 13.3839 17.1339C13.6183 16.8995 13.75 16.5815 13.75 16.25V15.625C13.75 15.4592 13.6842 15.3003 13.5669 15.1831C13.4497 15.0658 13.2908 15 13.125 15ZM13.125 8.75C13.2908 8.75 13.4497 8.68415 13.5669 8.56694C13.6842 8.44973 13.75 8.29076 13.75 8.125V7.5C13.75 7.16848 13.6183 6.85054 13.3839 6.61612C13.1495 6.3817 12.8315 6.25 12.5 6.25H11.875C11.7092 6.25 11.5503 6.31585 11.4331 6.43306C11.3158 6.55027 11.25 6.70924 11.25 6.875C11.25 7.04076 11.3158 7.19973 11.4331 7.31694C11.5503 7.43415 11.7092 7.5 11.875 7.5H12.5V8.125C12.5 8.29076 12.5658 8.44973 12.6831 8.56694C12.8003 8.68415 12.9592 8.75 13.125 8.75ZM4.375 6.25H3.75C3.41848 6.25 3.10054 6.3817 2.86612 6.61612C2.6317 6.85054 2.5 7.16848 2.5 7.5V8.125C2.5 8.29076 2.56585 8.44973 2.68306 8.56694C2.80027 8.68415 2.95924 8.75 3.125 8.75C3.29076 8.75 3.44973 8.68415 3.56694 8.56694C3.68415 8.44973 3.75 8.29076 3.75 8.125V7.5H4.375C4.54076 7.5 4.69973 7.43415 4.81694 7.31694C4.93415 7.19973 5 7.04076 5 6.875C5 6.70924 4.93415 6.55027 4.81694 6.43306C4.69973 6.31585 4.54076 6.25 4.375 6.25ZM16.25 2.5H7.5C7.16848 2.5 6.85054 2.6317 6.61612 2.86612C6.3817 3.10054 6.25 3.41848 6.25 3.75V6.875C6.24911 6.88931 6.24911 6.90366 6.25 6.91797C6.2609 7.07617 6.33153 7.22432 6.44758 7.33239C6.56363 7.44046 6.71642 7.50038 6.875 7.5H8.75C8.91576 7.5 9.07473 7.43415 9.19194 7.31694C9.30915 7.19973 9.375 7.04076 9.375 6.875C9.375 6.70924 9.30915 6.55027 9.19194 6.43306C9.07473 6.31585 8.91576 6.25 8.75 6.25H7.5V3.75H16.25V12.5H13.75V11.25C13.75 11.0842 13.6842 10.9253 13.5669 10.8081C13.4497 10.6908 13.2908 10.625 13.125 10.625C12.9592 10.625 12.8003 10.6908 12.6831 10.8081C12.5658 10.9253 12.5 11.0842 12.5 11.25V13.125C12.5 13.2908 12.5658 13.4497 12.6831 13.5669C12.8003 13.6842 12.9592 13.75 13.125 13.75H16.25C16.5815 13.75 16.8995 13.6183 17.1339 13.3839C17.3683 13.1495 17.5 12.8315 17.5 12.5V3.75C17.5 3.41848 17.3683 3.10054 17.1339 2.86612C16.8995 2.6317 16.5815 2.5 16.25 2.5Z" fill="#191F2E"/>
</svg>
