<svg width="20" height="20" viewBox="0 0 20 20" fill="none" xmlns="http://www.w3.org/2000/svg">
<path d="M16.25 2.5H3.75C3.41848 2.5 3.10054 2.6317 2.86612 2.86612C2.6317 3.10054 2.5 3.41848 2.5 3.75V16.25C2.5 16.5815 2.6317 16.8995 2.86612 17.1339C3.10054 17.3683 3.41848 17.5 3.75 17.5H16.25C16.5815 17.5 16.8995 17.3683 17.1339 17.1339C17.3683 16.8995 17.5 16.5815 17.5 16.25V3.75C17.5 3.41848 17.3683 3.10054 17.1339 2.86612C16.8995 2.6317 16.5815 2.5 16.25 2.5ZM11.875 4.375H14.375C14.7065 4.375 15.0245 4.5067 15.2589 4.74112C15.4933 4.97554 15.625 5.29348 15.625 5.625V8.125C15.625 8.29076 15.5592 8.44973 15.4419 8.56694C15.3247 8.68415 15.1658 8.75 15 8.75C14.8342 8.75 14.6753 8.68415 14.5581 8.56694C14.4408 8.44973 14.375 8.29076 14.375 8.125V5.625H11.875C11.7092 5.625 11.5503 5.55915 11.4331 5.44194C11.3158 5.32473 11.25 5.16576 11.25 5C11.25 4.83424 11.3158 4.67527 11.4331 4.55806C11.5503 4.44085 11.7092 4.375 11.875 4.375ZM8.125 15.625H5.625C5.29348 15.625 4.97554 15.4933 4.74112 15.2589C4.5067 15.0245 4.375 14.7065 4.375 14.375V11.875C4.375 11.7092 4.44085 11.5503 4.55806 11.4331C4.67527 11.3158 4.83424 11.25 5 11.25C5.16576 11.25 5.32473 11.3158 5.44194 11.4331C5.55915 11.5503 5.625 11.7092 5.625 11.875V14.375H8.125C8.29076 14.375 8.44973 14.4408 8.56694 14.5581C8.68415 14.6753 8.75 14.8342 8.75 15C8.75 15.1658 8.68415 15.3247 8.56694 15.4419C8.44973 15.5592 8.29076 15.625 8.125 15.625ZM16.0672 16.0672C16.0091 16.1253 15.9402 16.1714 15.8643 16.2029C15.7885 16.2343 15.7071 16.2505 15.625 16.2505C15.5429 16.2505 15.4615 16.2343 15.3857 16.2029C15.3098 16.1714 15.2409 16.1253 15.1828 16.0672L14.7414 15.625H11.875C11.7092 15.625 11.5503 15.5592 11.4331 15.4419C11.3158 15.3247 11.25 15.1658 11.25 15C11.25 14.8342 11.3158 14.6753 11.4331 14.5581C11.5503 14.4408 11.7092 14.375 11.875 14.375H13.4914L5.625 6.50859V8.125C5.625 8.29076 5.55915 8.44973 5.44194 8.56694C5.32473 8.68415 5.16576 8.75 5 8.75C4.83424 8.75 4.67527 8.68415 4.55806 8.56694C4.44085 8.44973 4.375 8.29076 4.375 8.125V5.25859L3.93281 4.81719C3.81554 4.69991 3.74965 4.54085 3.74965 4.375C3.74965 4.20915 3.81554 4.05009 3.93281 3.93281C4.05009 3.81554 4.20915 3.74965 4.375 3.74965C4.54085 3.74965 4.69991 3.81554 4.81719 3.93281L5.44219 4.55781L16.0672 15.1828C16.1253 15.2409 16.1714 15.3098 16.2029 15.3857C16.2343 15.4615 16.2505 15.5429 16.2505 15.625C16.2505 15.7071 16.2343 15.7885 16.2029 15.8643C16.1714 15.9402 16.1253 16.0091 16.0672 16.0672Z" fill="#191F2E"/>
</svg>
