<svg width="20" height="20" viewBox="0 0 20 20" fill="none" xmlns="http://www.w3.org/2000/svg">
<path d="M7.8125 3.12502C7.8125 2.87638 7.91127 2.63792 8.08709 2.46211C8.2629 2.28629 8.50136 2.18752 8.75 2.18752H11.25C11.4986 2.18752 11.7371 2.28629 11.9129 2.46211C12.0887 2.63792 12.1875 2.87638 12.1875 3.12502C12.1875 3.37366 12.0887 3.61212 11.9129 3.78793C11.7371 3.96375 11.4986 4.06252 11.25 4.06252H8.75C8.50136 4.06252 8.2629 3.96375 8.08709 3.78793C7.91127 3.61212 7.8125 3.37366 7.8125 3.12502ZM11.25 15.9375H8.75C8.50136 15.9375 8.2629 16.0363 8.08709 16.2121C7.91127 16.3879 7.8125 16.6264 7.8125 16.875C7.8125 17.1237 7.91127 17.3621 8.08709 17.5379C8.2629 17.7137 8.50136 17.8125 8.75 17.8125H11.25C11.4986 17.8125 11.7371 17.7137 11.9129 17.5379C12.0887 17.3621 12.1875 17.1237 12.1875 16.875C12.1875 16.6264 12.0887 16.3879 11.9129 16.2121C11.7371 16.0363 11.4986 15.9375 11.25 15.9375ZM16.25 2.18752H14.375C14.1264 2.18752 13.8879 2.28629 13.7121 2.46211C13.5363 2.63792 13.4375 2.87638 13.4375 3.12502C13.4375 3.37366 13.5363 3.61212 13.7121 3.78793C13.8879 3.96375 14.1264 4.06252 14.375 4.06252H15.9375V5.62502C15.9375 5.87366 16.0363 6.11211 16.2121 6.28793C16.3879 6.46375 16.6264 6.56252 16.875 6.56252C17.1236 6.56252 17.3621 6.46375 17.5379 6.28793C17.7137 6.11211 17.8125 5.87366 17.8125 5.62502V3.75002C17.8125 3.33562 17.6479 2.93819 17.3549 2.64516C17.0618 2.35214 16.6644 2.18752 16.25 2.18752ZM16.875 7.81252C16.6264 7.81252 16.3879 7.91129 16.2121 8.0871C16.0363 8.26292 15.9375 8.50138 15.9375 8.75002V11.25C15.9375 11.4987 16.0363 11.7371 16.2121 11.9129C16.3879 12.0887 16.6264 12.1875 16.875 12.1875C17.1236 12.1875 17.3621 12.0887 17.5379 11.9129C17.7137 11.7371 17.8125 11.4987 17.8125 11.25V8.75002C17.8125 8.50138 17.7137 8.26292 17.5379 8.0871C17.3621 7.91129 17.1236 7.81252 16.875 7.81252ZM3.125 12.1875C3.37364 12.1875 3.6121 12.0887 3.78791 11.9129C3.96373 11.7371 4.0625 11.4987 4.0625 11.25V8.75002C4.0625 8.50138 3.96373 8.26292 3.78791 8.0871C3.6121 7.91129 3.37364 7.81252 3.125 7.81252C2.87636 7.81252 2.6379 7.91129 2.46209 8.0871C2.28627 8.26292 2.1875 8.50138 2.1875 8.75002V11.25C2.1875 11.4987 2.28627 11.7371 2.46209 11.9129C2.6379 12.0887 2.87636 12.1875 3.125 12.1875ZM5.625 15.9375H4.0625V14.375C4.0625 14.1264 3.96373 13.8879 3.78791 13.7121C3.6121 13.5363 3.37364 13.4375 3.125 13.4375C2.87636 13.4375 2.6379 13.5363 2.46209 13.7121C2.28627 13.8879 2.1875 14.1264 2.1875 14.375V16.25C2.1875 16.6644 2.35212 17.0618 2.64515 17.3549C2.93817 17.6479 3.3356 17.8125 3.75 17.8125H5.625C5.87364 17.8125 6.1121 17.7137 6.28791 17.5379C6.46373 17.3621 6.5625 17.1237 6.5625 16.875C6.5625 16.6264 6.46373 16.3879 6.28791 16.2121C6.1121 16.0363 5.87364 15.9375 5.625 15.9375ZM4.44375 2.49455C4.36142 2.40174 4.26149 2.3262 4.14975 2.2723C4.03801 2.2184 3.91668 2.18722 3.7928 2.18055C3.66892 2.17389 3.54495 2.19188 3.42807 2.23348C3.3112 2.27508 3.20374 2.33946 3.11193 2.4229C3.02012 2.50634 2.94578 2.60716 2.89322 2.71954C2.84067 2.83192 2.81094 2.95361 2.80576 3.07756C2.80058 3.20152 2.82005 3.32526 2.86305 3.44163C2.90605 3.558 2.97172 3.66468 3.05625 3.75549L15.5562 17.5055C15.7243 17.6861 15.9568 17.7931 16.2033 17.8034C16.4498 17.8137 16.6904 17.7264 16.873 17.5605C17.0555 17.3946 17.1653 17.1634 17.1786 16.9171C17.1918 16.6707 17.1075 16.4291 16.9438 16.2445L4.44375 2.49455Z" fill="#191F2E"/>
</svg>
