<svg width="20" height="20" viewBox="0 0 20 20" fill="none" xmlns="http://www.w3.org/2000/svg">
<path d="M5.625 8.75H11.25V14.375H5.625V8.75ZM17.5 3.75V16.25C17.5 16.5815 17.3683 16.8995 17.1339 17.1339C16.8995 17.3683 16.5815 17.5 16.25 17.5H3.75C3.41848 17.5 3.10054 17.3683 2.86612 17.1339C2.6317 16.8995 2.5 16.5815 2.5 16.25V3.75C2.5 3.41848 2.6317 3.10054 2.86612 2.86612C3.10054 2.6317 3.41848 2.5 3.75 2.5H16.25C16.5815 2.5 16.8995 2.6317 17.1339 2.86612C17.3683 3.10054 17.5 3.41848 17.5 3.75ZM7.5 5.625C7.5 5.79076 7.56585 5.94973 7.68306 6.06694C7.80027 6.18415 7.95924 6.25 8.125 6.25C8.29076 6.25 8.44973 6.18415 8.56694 6.06694C8.68415 5.94973 8.75 5.79076 8.75 5.625H10C10.1658 5.625 10.3247 5.55915 10.4419 5.44194C10.5592 5.32473 10.625 5.16576 10.625 5C10.625 4.83424 10.5592 4.67527 10.4419 4.55806C10.3247 4.44085 10.1658 4.375 10 4.375H8.75C8.41848 4.375 8.10054 4.5067 7.86612 4.74112C7.6317 4.97554 7.5 5.29348 7.5 5.625ZM12.5 8.75C12.5 8.41848 12.3683 8.10054 12.1339 7.86612C11.8995 7.6317 11.5815 7.5 11.25 7.5H5.625C5.29348 7.5 4.97554 7.6317 4.74112 7.86612C4.5067 8.10054 4.375 8.41848 4.375 8.75V14.375C4.375 14.7065 4.5067 15.0245 4.74112 15.2589C4.97554 15.4933 5.29348 15.625 5.625 15.625H11.25C11.5815 15.625 11.8995 15.4933 12.1339 15.2589C12.3683 15.0245 12.5 14.7065 12.5 14.375V8.75ZM15.625 10C15.625 9.83424 15.5592 9.67527 15.4419 9.55806C15.3247 9.44085 15.1658 9.375 15 9.375C14.8342 9.375 14.6753 9.44085 14.5581 9.55806C14.4408 9.67527 14.375 9.83424 14.375 10V11.25C14.2092 11.25 14.0503 11.3158 13.9331 11.4331C13.8158 11.5503 13.75 11.7092 13.75 11.875C13.75 12.0408 13.8158 12.1997 13.9331 12.3169C14.0503 12.4342 14.2092 12.5 14.375 12.5C14.7065 12.5 15.0245 12.3683 15.2589 12.1339C15.4933 11.8995 15.625 11.5815 15.625 11.25V10ZM15.625 5.625C15.625 5.29348 15.4933 4.97554 15.2589 4.74112C15.0245 4.5067 14.7065 4.375 14.375 4.375H13.125C12.9592 4.375 12.8003 4.44085 12.6831 4.55806C12.5658 4.67527 12.5 4.83424 12.5 5C12.5 5.16576 12.5658 5.32473 12.6831 5.44194C12.8003 5.55915 12.9592 5.625 13.125 5.625H14.375V6.875C14.375 7.04076 14.4408 7.19973 14.5581 7.31694C14.6753 7.43415 14.8342 7.5 15 7.5C15.1658 7.5 15.3247 7.43415 15.4419 7.31694C15.5592 7.19973 15.625 7.04076 15.625 6.875V5.625Z" fill="#191F2E"/>
</svg>
