<svg width="20" height="20" viewBox="0 0 20 20" fill="none" xmlns="http://www.w3.org/2000/svg">
<path d="M5.3125 16.875C5.3125 17.1236 5.21373 17.3621 5.03791 17.5379C4.8621 17.7137 4.62364 17.8125 4.375 17.8125H3.75C3.3356 17.8125 2.93817 17.6479 2.64515 17.3549C2.35212 17.0618 2.1875 16.6644 2.1875 16.25V15.625C2.1875 15.3764 2.28627 15.1379 2.46209 14.9621C2.6379 14.7863 2.87636 14.6875 3.125 14.6875C3.37364 14.6875 3.6121 14.7863 3.78791 14.9621C3.96373 15.1379 4.0625 15.3764 4.0625 15.625V15.9375H4.375C4.62364 15.9375 4.8621 16.0363 5.03791 16.2121C5.21373 16.3879 5.3125 16.6264 5.3125 16.875ZM8.75 15.9375H7.5C7.25136 15.9375 7.0129 16.0363 6.83709 16.2121C6.66127 16.3879 6.5625 16.6264 6.5625 16.875C6.5625 17.1236 6.66127 17.3621 6.83709 17.5379C7.0129 17.7137 7.25136 17.8125 7.5 17.8125H8.75C8.99864 17.8125 9.2371 17.7137 9.41291 17.5379C9.58873 17.3621 9.6875 17.1236 9.6875 16.875C9.6875 16.6264 9.58873 16.3879 9.41291 16.2121C9.2371 16.0363 8.99864 15.9375 8.75 15.9375ZM3.125 13.4375C3.37364 13.4375 3.6121 13.3387 3.78791 13.1629C3.96373 12.9871 4.0625 12.7486 4.0625 12.5V11.25C4.0625 11.0014 3.96373 10.7629 3.78791 10.5871C3.6121 10.4113 3.37364 10.3125 3.125 10.3125C2.87636 10.3125 2.6379 10.4113 2.46209 10.5871C2.28627 10.7629 2.1875 11.0014 2.1875 11.25V12.5C2.1875 12.7486 2.28627 12.9871 2.46209 13.1629C2.6379 13.3387 2.87636 13.4375 3.125 13.4375ZM13.125 14.6875C12.8764 14.6875 12.6379 14.7863 12.4621 14.9621C12.2863 15.1379 12.1875 15.3764 12.1875 15.625V15.9375H11.875C11.6264 15.9375 11.3879 16.0363 11.2121 16.2121C11.0363 16.3879 10.9375 16.6264 10.9375 16.875C10.9375 17.1236 11.0363 17.3621 11.2121 17.5379C11.3879 17.7137 11.6264 17.8125 11.875 17.8125H12.5C12.9144 17.8125 13.3118 17.6479 13.6049 17.3549C13.8979 17.0618 14.0625 16.6644 14.0625 16.25V15.625C14.0625 15.3764 13.9637 15.1379 13.7879 14.9621C13.6121 14.7863 13.3736 14.6875 13.125 14.6875ZM13.125 9.0625C13.3736 9.0625 13.6121 8.96373 13.7879 8.78791C13.9637 8.6121 14.0625 8.37364 14.0625 8.125V7.5C14.0625 7.0856 13.8979 6.68817 13.6049 6.39515C13.3118 6.10212 12.9144 5.9375 12.5 5.9375H11.875C11.6264 5.9375 11.3879 6.03627 11.2121 6.21209C11.0363 6.3879 10.9375 6.62636 10.9375 6.875C10.9375 7.12364 11.0363 7.3621 11.2121 7.53791C11.3879 7.71373 11.6264 7.8125 11.875 7.8125H12.1875V8.125C12.1875 8.37364 12.2863 8.6121 12.4621 8.78791C12.6379 8.96373 12.8764 9.0625 13.125 9.0625ZM4.375 5.9375H3.75C3.3356 5.9375 2.93817 6.10212 2.64515 6.39515C2.35212 6.68817 2.1875 7.0856 2.1875 7.5V8.125C2.1875 8.37364 2.28627 8.6121 2.46209 8.78791C2.6379 8.96373 2.87636 9.0625 3.125 9.0625C3.37364 9.0625 3.6121 8.96373 3.78791 8.78791C3.96373 8.6121 4.0625 8.37364 4.0625 8.125V7.8125H4.375C4.62364 7.8125 4.8621 7.71373 5.03791 7.53791C5.21373 7.3621 5.3125 7.12364 5.3125 6.875C5.3125 6.62636 5.21373 6.3879 5.03791 6.21209C4.8621 6.03627 4.62364 5.9375 4.375 5.9375ZM16.25 2.1875H7.8125C7.3981 2.1875 7.00067 2.35212 6.70765 2.64515C6.41462 2.93817 6.25 3.3356 6.25 3.75V6.875C6.24914 6.89061 6.24914 6.90626 6.25 6.92188C6.26204 7.1623 6.3661 7.38889 6.54063 7.55469C6.71515 7.72049 6.94677 7.8128 7.1875 7.8125H8.75C8.99864 7.8125 9.2371 7.71373 9.41291 7.53791C9.58873 7.3621 9.6875 7.12364 9.6875 6.875C9.6875 6.62636 9.58873 6.3879 9.41291 6.21209C9.2371 6.03627 8.99864 5.9375 8.75 5.9375H8.125V4.0625H15.9375V11.875H14.0625V11.25C14.0625 11.0014 13.9637 10.7629 13.7879 10.5871C13.6121 10.4113 13.3736 10.3125 13.125 10.3125C12.8764 10.3125 12.6379 10.4113 12.4621 10.5871C12.2863 10.7629 12.1875 11.0014 12.1875 11.25V12.8125C12.1875 13.0611 12.2863 13.2996 12.4621 13.4754C12.6379 13.6512 12.8764 13.75 13.125 13.75H16.25C16.6644 13.75 17.0618 13.5854 17.3549 13.2924C17.6479 12.9993 17.8125 12.6019 17.8125 12.1875V3.75C17.8125 3.3356 17.6479 2.93817 17.3549 2.64515C17.0618 2.35212 16.6644 2.1875 16.25 2.1875Z" fill="#191F2E"/>
</svg>
