<svg width="20" height="20" viewBox="0 0 20 20" fill="none" xmlns="http://www.w3.org/2000/svg">
<path d="M7.8125 3.125C7.8125 2.87636 7.91127 2.6379 8.08709 2.46209C8.2629 2.28627 8.50136 2.1875 8.75 2.1875H11.25C11.4986 2.1875 11.7371 2.28627 11.9129 2.46209C12.0887 2.6379 12.1875 2.87636 12.1875 3.125C12.1875 3.37364 12.0887 3.6121 11.9129 3.78791C11.7371 3.96373 11.4986 4.0625 11.25 4.0625H8.75C8.50136 4.0625 8.2629 3.96373 8.08709 3.78791C7.91127 3.6121 7.8125 3.37364 7.8125 3.125ZM11.25 15.9375H8.75C8.50136 15.9375 8.2629 16.0363 8.08709 16.2121C7.91127 16.3879 7.8125 16.6264 7.8125 16.875C7.8125 17.1236 7.91127 17.3621 8.08709 17.5379C8.2629 17.7137 8.50136 17.8125 8.75 17.8125H11.25C11.4986 17.8125 11.7371 17.7137 11.9129 17.5379C12.0887 17.3621 12.1875 17.1236 12.1875 16.875C12.1875 16.6264 12.0887 16.3879 11.9129 16.2121C11.7371 16.0363 11.4986 15.9375 11.25 15.9375ZM16.25 2.1875H14.375C14.1264 2.1875 13.8879 2.28627 13.7121 2.46209C13.5363 2.6379 13.4375 2.87636 13.4375 3.125C13.4375 3.37364 13.5363 3.6121 13.7121 3.78791C13.8879 3.96373 14.1264 4.0625 14.375 4.0625H15.9375V5.625C15.9375 5.87364 16.0363 6.1121 16.2121 6.28791C16.3879 6.46373 16.6264 6.5625 16.875 6.5625C17.1236 6.5625 17.3621 6.46373 17.5379 6.28791C17.7137 6.1121 17.8125 5.87364 17.8125 5.625V3.75C17.8125 3.3356 17.6479 2.93817 17.3549 2.64515C17.0618 2.35212 16.6644 2.1875 16.25 2.1875ZM16.875 7.8125C16.6264 7.8125 16.3879 7.91127 16.2121 8.08709C16.0363 8.2629 15.9375 8.50136 15.9375 8.75V11.25C15.9375 11.4986 16.0363 11.7371 16.2121 11.9129C16.3879 12.0887 16.6264 12.1875 16.875 12.1875C17.1236 12.1875 17.3621 12.0887 17.5379 11.9129C17.7137 11.7371 17.8125 11.4986 17.8125 11.25V8.75C17.8125 8.50136 17.7137 8.2629 17.5379 8.08709C17.3621 7.91127 17.1236 7.8125 16.875 7.8125ZM16.875 13.4375C16.6264 13.4375 16.3879 13.5363 16.2121 13.7121C16.0363 13.8879 15.9375 14.1264 15.9375 14.375V15.9375H14.375C14.1264 15.9375 13.8879 16.0363 13.7121 16.2121C13.5363 16.3879 13.4375 16.6264 13.4375 16.875C13.4375 17.1236 13.5363 17.3621 13.7121 17.5379C13.8879 17.7137 14.1264 17.8125 14.375 17.8125H16.25C16.6644 17.8125 17.0618 17.6479 17.3549 17.3549C17.6479 17.0618 17.8125 16.6644 17.8125 16.25V14.375C17.8125 14.1264 17.7137 13.8879 17.5379 13.7121C17.3621 13.5363 17.1236 13.4375 16.875 13.4375ZM3.125 12.1875C3.37364 12.1875 3.6121 12.0887 3.78791 11.9129C3.96373 11.7371 4.0625 11.4986 4.0625 11.25V8.75C4.0625 8.50136 3.96373 8.2629 3.78791 8.08709C3.6121 7.91127 3.37364 7.8125 3.125 7.8125C2.87636 7.8125 2.6379 7.91127 2.46209 8.08709C2.28627 8.2629 2.1875 8.50136 2.1875 8.75V11.25C2.1875 11.4986 2.28627 11.7371 2.46209 11.9129C2.6379 12.0887 2.87636 12.1875 3.125 12.1875ZM5.625 15.9375H4.0625V14.375C4.0625 14.1264 3.96373 13.8879 3.78791 13.7121C3.6121 13.5363 3.37364 13.4375 3.125 13.4375C2.87636 13.4375 2.6379 13.5363 2.46209 13.7121C2.28627 13.8879 2.1875 14.1264 2.1875 14.375V16.25C2.1875 16.6644 2.35212 17.0618 2.64515 17.3549C2.93817 17.6479 3.3356 17.8125 3.75 17.8125H5.625C5.87364 17.8125 6.1121 17.7137 6.28791 17.5379C6.46373 17.3621 6.5625 17.1236 6.5625 16.875C6.5625 16.6264 6.46373 16.3879 6.28791 16.2121C6.1121 16.0363 5.87364 15.9375 5.625 15.9375ZM3.125 6.5625C3.37364 6.5625 3.6121 6.46373 3.78791 6.28791C3.96373 6.1121 4.0625 5.87364 4.0625 5.625V4.0625H5.625C5.87364 4.0625 6.1121 3.96373 6.28791 3.78791C6.46373 3.6121 6.5625 3.37364 6.5625 3.125C6.5625 2.87636 6.46373 2.6379 6.28791 2.46209C6.1121 2.28627 5.87364 2.1875 5.625 2.1875H3.75C3.3356 2.1875 2.93817 2.35212 2.64515 2.64515C2.35212 2.93817 2.1875 3.3356 2.1875 3.75V5.625C2.1875 5.87364 2.28627 6.1121 2.46209 6.28791C2.6379 6.46373 2.87636 6.5625 3.125 6.5625ZM6.25 5.3125H13.75C13.9986 5.3125 14.2371 5.41127 14.4129 5.58709C14.5887 5.7629 14.6875 6.00136 14.6875 6.25V13.75C14.6875 13.9986 14.5887 14.2371 14.4129 14.4129C14.2371 14.5887 13.9986 14.6875 13.75 14.6875H6.25C6.00136 14.6875 5.7629 14.5887 5.58709 14.4129C5.41127 14.2371 5.3125 13.9986 5.3125 13.75V6.25C5.3125 6.00136 5.41127 5.7629 5.58709 5.58709C5.7629 5.41127 6.00136 5.3125 6.25 5.3125ZM7.1875 12.8125H12.8125V7.1875H7.1875V12.8125Z" fill="#191F2E"/>
</svg>
