<svg width="20" height="20" viewBox="0 0 20 20" fill="none" xmlns="http://www.w3.org/2000/svg">
<path d="M5.59301 4.80235C5.55155 4.67787 5.47197 4.5696 5.36554 4.49288C5.25912 4.41615 5.13125 4.37486 5.00005 4.37486C4.86885 4.37486 4.74098 4.41615 4.63455 4.49288C4.52812 4.5696 4.44854 4.67787 4.40708 4.80235L1.28208 14.1773C1.25076 14.2713 1.24221 14.3714 1.25715 14.4693C1.27208 14.5672 1.31007 14.6601 1.36798 14.7405C1.42589 14.8208 1.50207 14.8862 1.59023 14.9314C1.67839 14.9765 1.77601 15 1.87505 15H8.12505C8.22408 15 8.32171 14.9765 8.40987 14.9314C8.49803 14.8862 8.5742 14.8208 8.63211 14.7405C8.69002 14.6601 8.72801 14.5672 8.74294 14.4693C8.75788 14.3714 8.74934 14.2713 8.71801 14.1773L5.59301 4.80235ZM2.74223 13.75L5.00005 6.97656L7.25786 13.75H2.74223ZM16.25 5.9375C16.25 5.13402 16.0118 4.34857 15.5654 3.6805C15.119 3.01242 14.4845 2.49172 13.7422 2.18424C12.9999 1.87676 12.183 1.79631 11.395 1.95306C10.6069 2.10981 9.88308 2.49673 9.31493 3.06488C8.74677 3.63303 8.35986 4.3569 8.20311 5.14495C8.04635 5.93299 8.12681 6.74983 8.43429 7.49215C8.74177 8.23448 9.26247 8.86895 9.93054 9.31535C10.5986 9.76174 11.3841 10 12.1875 10C13.2646 9.99876 14.2972 9.57035 15.0588 8.80875C15.8204 8.04716 16.2488 7.01456 16.25 5.9375ZM9.37505 5.9375C9.37505 5.38124 9.54 4.83747 9.84904 4.37496C10.1581 3.91245 10.5973 3.55196 11.1112 3.33909C11.6252 3.12622 12.1907 3.07052 12.7362 3.17904C13.2818 3.28756 13.7829 3.55543 14.1763 3.94876C14.5696 4.3421 14.8375 4.84324 14.946 5.38881C15.0545 5.93438 14.9988 6.49988 14.786 7.0138C14.5731 7.52772 14.2126 7.96697 13.7501 8.27601C13.2876 8.58505 12.7438 8.75 12.1875 8.75C11.4416 8.75 10.7263 8.45369 10.1988 7.92624C9.67136 7.39879 9.37505 6.68342 9.37505 5.9375ZM17.5 11.25H10.625C10.4593 11.25 10.3003 11.3158 10.1831 11.4331C10.0659 11.5503 10 11.7092 10 11.875V16.25C10 16.4158 10.0659 16.5747 10.1831 16.6919C10.3003 16.8092 10.4593 16.875 10.625 16.875H17.5C17.6658 16.875 17.8248 16.8092 17.942 16.6919C18.0592 16.5747 18.125 16.4158 18.125 16.25V11.875C18.125 11.7092 18.0592 11.5503 17.942 11.4331C17.8248 11.3158 17.6658 11.25 17.5 11.25ZM16.875 15.625H11.25V12.5H16.875V15.625Z" fill="#191F2E"/>
</svg>
