<svg width="20" height="20" viewBox="0 0 20 20" fill="none" xmlns="http://www.w3.org/2000/svg">
<path d="M5.58511 4.73047C5.52744 4.53698 5.40884 4.36728 5.24696 4.24662C5.08509 4.12595 4.88858 4.06077 4.68668 4.06077C4.48477 4.06077 4.28827 4.12595 4.12639 4.24662C3.96451 4.36728 3.84591 4.53698 3.78824 4.73047L0.975738 14.1055C0.933685 14.2456 0.924997 14.3936 0.950368 14.5376C0.975739 14.6817 1.03447 14.8178 1.12185 14.9351C1.20924 15.0524 1.32286 15.1476 1.45363 15.2131C1.5844 15.2787 1.72869 15.3127 1.87496 15.3125H7.49996C7.6461 15.3125 7.7902 15.2783 7.92077 15.2126C8.05134 15.147 8.16476 15.0517 8.25197 14.9345C8.33918 14.8172 8.39776 14.6812 8.42305 14.5372C8.44834 14.3933 8.43963 14.2454 8.39761 14.1055L5.58511 4.73047ZM3.13511 13.4375L4.68746 8.2625L6.2398 13.4375H3.13511ZM16.5625 5.78125C16.5625 4.94686 16.315 4.13121 15.8515 3.43744C15.3879 2.74367 14.729 2.20294 13.9582 1.88364C13.1873 1.56433 12.339 1.48078 11.5207 1.64356C10.7023 1.80635 9.9506 2.20814 9.3606 2.79815C8.7706 3.38815 8.3688 4.13986 8.20602 4.95821C8.04324 5.77657 8.12678 6.62482 8.44609 7.3957C8.7654 8.16657 9.30613 8.82545 9.9999 9.28901C10.6937 9.75258 11.5093 10 12.3437 10C13.4622 9.99876 14.5345 9.55389 15.3254 8.76299C16.1163 7.97209 16.5612 6.89975 16.5625 5.78125ZM9.99996 5.78125C9.99996 5.3177 10.1374 4.86456 10.3949 4.47913C10.6525 4.09371 11.0185 3.7933 11.4468 3.61591C11.8751 3.43852 12.3463 3.3921 12.8009 3.48254C13.2556 3.57297 13.6732 3.79619 14.001 4.12397C14.3288 4.45175 14.552 4.86937 14.6424 5.32401C14.7329 5.77865 14.6864 6.2499 14.509 6.67817C14.3317 7.10643 14.0313 7.47247 13.6458 7.73001C13.2604 7.98754 12.8073 8.125 12.3437 8.125C11.7221 8.125 11.126 7.87807 10.6864 7.43853C10.2469 6.99899 9.99996 6.40285 9.99996 5.78125ZM17.5 11.25H10.625C10.3763 11.25 10.1379 11.3488 9.96204 11.5246C9.78623 11.7004 9.68746 11.9389 9.68746 12.1875V16.25C9.68746 16.4986 9.78623 16.7371 9.96204 16.9129C10.1379 17.0887 10.3763 17.1875 10.625 17.1875H17.5C17.7486 17.1875 17.9871 17.0887 18.1629 16.9129C18.3387 16.7371 18.4375 16.4986 18.4375 16.25V12.1875C18.4375 11.9389 18.3387 11.7004 18.1629 11.5246C17.9871 11.3488 17.7486 11.25 17.5 11.25ZM16.5625 15.3125H11.5625V13.125H16.5625V15.3125Z" fill="#191F2E"/>
</svg>
