<svg width="20" height="20" viewBox="0 0 20 20" fill="none" xmlns="http://www.w3.org/2000/svg">
<path d="M18.5671 9.19219L12.3171 15.4422C12.2297 15.5297 12.1183 15.5893 11.997 15.6135C11.8757 15.6376 11.75 15.6252 11.6357 15.5779C11.5214 15.5305 11.4238 15.4504 11.3551 15.3475C11.2865 15.2446 11.2499 15.1237 11.25 15V11.893C6.78901 12.1461 3.73042 15.0391 2.87183 15.9555C2.73701 16.0995 2.56021 16.1972 2.36659 16.2349C2.17298 16.2726 1.97241 16.2483 1.79343 16.1653C1.61446 16.0824 1.46619 15.9452 1.36974 15.7731C1.27328 15.6011 1.23355 15.403 1.2562 15.207C1.54605 12.6867 2.92651 10.2625 5.1437 8.38125C6.98511 6.81875 9.22339 5.82735 11.25 5.65391V2.5C11.2499 2.37632 11.2865 2.25539 11.3551 2.15252C11.4238 2.04964 11.5214 1.96946 11.6357 1.92211C11.75 1.87477 11.8757 1.86239 11.997 1.88655C12.1183 1.9107 12.2297 1.97031 12.3171 2.05782L18.5671 8.30782C18.6252 8.36586 18.6713 8.43479 18.7028 8.51067C18.7343 8.58654 18.7504 8.66787 18.7504 8.75C18.7504 8.83214 18.7343 8.91347 18.7028 8.98934C18.6713 9.06522 18.6252 9.13415 18.5671 9.19219Z" fill="#191F2E"/>
</svg>
