<svg width="20" height="20" viewBox="0 0 20 20" fill="none" xmlns="http://www.w3.org/2000/svg">
<path d="M13.75 12.1875C12.9128 12.1861 12.1042 12.4919 11.4774 13.0469L8.28909 11C8.48699 10.348 8.48699 9.65196 8.28909 8.99998L11.4774 6.9531C12.098 7.49849 12.8948 7.80112 13.721 7.80519C14.5471 7.80925 15.3469 7.51448 15.9728 6.97522C16.5988 6.43597 17.0086 5.68859 17.1268 4.87091C17.245 4.05323 17.0636 3.22039 16.616 2.52595C16.1684 1.83151 15.4849 1.32231 14.6914 1.09224C13.8979 0.862169 13.0479 0.926746 12.2983 1.27406C11.5487 1.62138 10.9499 2.22801 10.6124 2.9821C10.2749 3.73619 10.2214 4.58688 10.4617 5.37732L7.27268 7.42185C6.77676 6.98357 6.16485 6.69778 5.51045 6.5988C4.85606 6.49981 4.187 6.59184 3.58363 6.86384C2.98027 7.13583 2.46825 7.57622 2.10907 8.13212C1.7499 8.68802 1.55884 9.33579 1.55884 9.99763C1.55884 10.6595 1.7499 11.3072 2.10907 11.8631C2.46825 12.419 2.98027 12.8594 3.58363 13.1314C4.187 13.4034 4.85606 13.4955 5.51045 13.3965C6.16485 13.2975 6.77676 13.0117 7.27268 12.5734L10.461 14.625C10.2506 15.3168 10.2638 16.0574 10.4986 16.7413C10.7335 17.4253 11.178 18.0177 11.769 18.4344C12.36 18.8511 13.0674 19.0708 13.7905 19.0622C14.5136 19.0537 15.2155 18.8173 15.7965 18.3867C16.3775 17.9562 16.8079 17.3534 17.0265 16.6641C17.2451 15.9748 17.2407 15.2341 17.014 14.5474C16.7873 13.8607 16.3499 13.263 15.7639 12.8393C15.1779 12.4156 14.4732 12.1875 13.75 12.1875ZM13.75 2.81248C14.0591 2.81248 14.3612 2.90411 14.6181 3.0758C14.8751 3.24749 15.0753 3.49152 15.1936 3.77703C15.3119 4.06254 15.3428 4.37671 15.2825 4.6798C15.2222 4.9829 15.0734 5.26131 14.8549 5.47983C14.6364 5.69835 14.358 5.84716 14.0549 5.90745C13.7518 5.96774 13.4376 5.9368 13.1521 5.81854C12.8666 5.70028 12.6225 5.50001 12.4509 5.24305C12.2792 4.9861 12.1875 4.68401 12.1875 4.37498C12.1875 3.96058 12.3521 3.56315 12.6452 3.27012C12.9382 2.9771 13.3356 2.81248 13.75 2.81248ZM5.00003 11.5625C4.691 11.5625 4.3889 11.4708 4.13195 11.2991C3.875 11.1275 3.67473 10.8834 3.55647 10.5979C3.43821 10.3124 3.40726 9.99824 3.46755 9.69515C3.52784 9.39205 3.67666 9.11364 3.89517 8.89512C4.11369 8.6766 4.39211 8.52779 4.6952 8.4675C4.9983 8.40721 5.31246 8.43815 5.59797 8.55641C5.88348 8.67468 6.12751 8.87495 6.2992 9.1319C6.47089 9.38885 6.56253 9.69094 6.56253 9.99998C6.56253 10.4144 6.39791 10.8118 6.10488 11.1048C5.81186 11.3979 5.41443 11.5625 5.00003 11.5625ZM13.75 17.1875C13.441 17.1875 13.1389 17.0958 12.882 16.9241C12.625 16.7525 12.4247 16.5084 12.3065 16.2229C12.1882 15.9374 12.1573 15.6232 12.2176 15.3201C12.2778 15.0171 12.4267 14.7386 12.6452 14.5201C12.8637 14.3016 13.1421 14.1528 13.4452 14.0925C13.7483 14.0322 14.0625 14.0632 14.348 14.1814C14.6335 14.2997 14.8775 14.4999 15.0492 14.7569C15.2209 15.0138 15.3125 15.3159 15.3125 15.625C15.3125 16.0394 15.1479 16.4368 14.8549 16.7298C14.5619 17.0229 14.1644 17.1875 13.75 17.1875Z" fill="#191F2E"/>
</svg>
