<svg width="20" height="20" viewBox="0 0 20 20" fill="none" xmlns="http://www.w3.org/2000/svg">
<path d="M17.9422 8.56717L14.1922 12.3172C14.0749 12.4344 13.9159 12.5003 13.75 12.5003C13.5841 12.5003 13.4251 12.4344 13.3078 12.3172C13.1905 12.1999 13.1247 12.0408 13.1247 11.875C13.1247 11.7091 13.1905 11.5501 13.3078 11.4328L15.9914 8.74998H12.8906C11.3661 8.74956 9.88475 9.25585 8.67941 10.1892C7.47407 11.1226 6.61315 12.4302 6.23203 13.9062C6.19059 14.0668 6.08706 14.2044 5.94421 14.2886C5.80136 14.3728 5.63089 14.3969 5.47031 14.3555C5.30973 14.314 5.17219 14.2105 5.08795 14.0676C5.0037 13.9248 4.97965 13.7543 5.02109 13.5937C5.47079 11.8488 6.48809 10.3031 7.91281 9.19985C9.33752 8.09662 11.0887 7.49861 12.8906 7.49998H15.993L13.3078 4.81717C13.2497 4.7591 13.2037 4.69016 13.1723 4.61429C13.1408 4.53842 13.1247 4.4571 13.1247 4.37498C13.1247 4.29286 13.1408 4.21154 13.1723 4.13567C13.2037 4.0598 13.2497 3.99086 13.3078 3.93279C13.4251 3.81552 13.5841 3.74963 13.75 3.74963C13.8321 3.74963 13.9134 3.76581 13.9893 3.79724C14.0652 3.82866 14.1341 3.87472 14.1922 3.93279L17.9422 7.68279C18.0003 7.74084 18.0464 7.80977 18.0779 7.88564C18.1093 7.96152 18.1255 8.04285 18.1255 8.12498C18.1255 8.20712 18.1093 8.28844 18.0779 8.36432C18.0464 8.44019 18.0003 8.50912 17.9422 8.56717ZM15 16.25H3.125V6.87498C3.125 6.70922 3.05915 6.55025 2.94194 6.43304C2.82473 6.31583 2.66576 6.24998 2.5 6.24998C2.33424 6.24998 2.17527 6.31583 2.05806 6.43304C1.94085 6.55025 1.875 6.70922 1.875 6.87498V16.25C1.875 16.5815 2.0067 16.8994 2.24112 17.1339C2.47554 17.3683 2.79348 17.5 3.125 17.5H15C15.1658 17.5 15.3247 17.4341 15.4419 17.3169C15.5592 17.1997 15.625 17.0407 15.625 16.875C15.625 16.7092 15.5592 16.5503 15.4419 16.433C15.3247 16.3158 15.1658 16.25 15 16.25Z" fill="#191F2E"/>
</svg>
