<svg width="20" height="20" viewBox="0 0 20 20" fill="none" xmlns="http://www.w3.org/2000/svg">
<path d="M16.25 2.8125H3.75C3.3356 2.8125 2.93817 2.97712 2.64515 3.27015C2.35212 3.56317 2.1875 3.9606 2.1875 4.375V8.96875C2.1875 16.1844 8.28906 18.5781 9.51172 18.9828C9.8283 19.089 10.1709 19.089 10.4875 18.9828C11.7109 18.5766 17.8125 16.1844 17.8125 8.96875V4.375C17.8125 3.9606 17.6479 3.56317 17.3549 3.27015C17.0618 2.97712 16.6644 2.8125 16.25 2.8125ZM15.9375 8.96875C15.9375 14.7148 11.2094 16.7438 10 17.1719C8.79141 16.7484 4.0625 14.7195 4.0625 8.97266V4.6875H15.9375V8.96875ZM9.0625 10.3125V7.5C9.0625 7.25136 9.16127 7.0129 9.33709 6.83709C9.5129 6.66127 9.75136 6.5625 10 6.5625C10.2486 6.5625 10.4871 6.66127 10.6629 6.83709C10.8387 7.0129 10.9375 7.25136 10.9375 7.5V10.3125C10.9375 10.5611 10.8387 10.7996 10.6629 10.9754C10.4871 11.1512 10.2486 11.25 10 11.25C9.75136 11.25 9.5129 11.1512 9.33709 10.9754C9.16127 10.7996 9.0625 10.5611 9.0625 10.3125ZM8.75 13.4375C8.75 13.1903 8.82331 12.9486 8.96066 12.743C9.09801 12.5375 9.29324 12.3773 9.52165 12.2826C9.75005 12.188 10.0014 12.1633 10.2439 12.2115C10.4863 12.2597 10.7091 12.3788 10.8839 12.5536C11.0587 12.7284 11.1778 12.9512 11.226 13.1936C11.2742 13.4361 11.2495 13.6874 11.1549 13.9159C11.0602 14.1443 10.9 14.3395 10.6945 14.4768C10.4889 14.6142 10.2472 14.6875 10 14.6875C9.66848 14.6875 9.35054 14.5558 9.11612 14.3214C8.8817 14.087 8.75 13.769 8.75 13.4375Z" fill="#191F2E"/>
</svg>
