<svg width="20" height="20" viewBox="0 0 20 20" fill="none" xmlns="http://www.w3.org/2000/svg">
<path d="M16.25 3.125H3.75C3.41848 3.125 3.10054 3.2567 2.86612 3.49112C2.6317 3.72554 2.5 4.04348 2.5 4.375V8.96641C2.5 15.968 8.42344 18.2898 9.60938 18.6836C9.86258 18.7703 10.1374 18.7703 10.3906 18.6836C11.5781 18.2891 17.5 15.9672 17.5 8.96563V4.375C17.5 4.04348 17.3683 3.72554 17.1339 3.49112C16.8995 3.2567 16.5815 3.125 16.25 3.125ZM16.25 8.96797C16.25 9.10625 16.25 9.24141 16.2414 9.375H10.625V4.375H16.25V8.96797ZM3.75 4.375H9.375V9.375H3.75859C3.75313 9.24141 3.75 9.10625 3.75 8.96797V4.375ZM3.88594 10.625H9.375V17.2594C7.8375 16.6062 4.58828 14.7594 3.88594 10.625ZM10.625 17.2586V10.625H16.1141C15.4117 14.757 12.1656 16.6047 10.625 17.2586Z" fill="#191F2E"/>
</svg>
