<svg width="20" height="20" viewBox="0 0 20 20" fill="none" xmlns="http://www.w3.org/2000/svg">
<path d="M16.25 3.125H3.75C3.41848 3.125 3.10054 3.2567 2.86612 3.49112C2.6317 3.72554 2.5 4.04348 2.5 4.375V8.96641C2.5 15.968 8.42344 18.2898 9.60938 18.6836C9.86258 18.7703 10.1374 18.7703 10.3906 18.6836C11.5781 18.2891 17.5 15.9672 17.5 8.96563V4.375C17.5 4.04348 17.3683 3.72554 17.1339 3.49112C16.8995 3.2567 16.5815 3.125 16.25 3.125ZM3.80156 10H10V4.375H16.25V8.96641C16.2503 9.31107 16.2331 9.65552 16.1984 9.99844H10V17.4984C9.00469 17.1664 4.34297 15.3328 3.80156 10Z" fill="#191F2E"/>
</svg>
