<svg width="20" height="20" viewBox="0 0 20 20" fill="none" xmlns="http://www.w3.org/2000/svg">
<path d="M6.00469 9.02734C6.05037 8.91299 6.11814 8.80875 6.20412 8.72059C6.2901 8.63243 6.39261 8.56207 6.50579 8.51353C6.61896 8.465 6.74059 8.43923 6.86373 8.43772C6.98687 8.4362 7.1091 8.45896 7.22344 8.50469L9.0625 9.24062V7.5C9.0625 7.25136 9.16127 7.0129 9.33709 6.83709C9.5129 6.66127 9.75136 6.5625 10 6.5625C10.2486 6.5625 10.4871 6.66127 10.6629 6.83709C10.8387 7.0129 10.9375 7.25136 10.9375 7.5V9.24062L12.7766 8.50469C13.0069 8.41454 13.2636 8.4191 13.4906 8.51736C13.7176 8.61562 13.8966 8.79963 13.9885 9.02928C14.0805 9.25893 14.0779 9.51561 13.9814 9.74339C13.885 9.97116 13.7024 10.1516 13.4734 10.2453L11.4844 11.0414L12.625 12.5625C12.6989 12.661 12.7526 12.7731 12.7832 12.8923C12.8137 13.0116 12.8205 13.1357 12.8031 13.2576C12.7857 13.3795 12.7444 13.4967 12.6817 13.6026C12.619 13.7086 12.536 13.8011 12.4375 13.875C12.339 13.9489 12.2269 14.0026 12.1077 14.0332C11.9884 14.0637 11.8643 14.0705 11.7424 14.0531C11.6205 14.0357 11.5033 13.9944 11.3974 13.9317C11.2914 13.869 11.1989 13.786 11.125 13.6875L10 12.1875L8.875 13.6875C8.80113 13.786 8.70859 13.869 8.60265 13.9317C8.49671 13.9944 8.37946 14.0357 8.25758 14.0531C8.13571 14.0705 8.01159 14.0637 7.89233 14.0332C7.77307 14.0026 7.66099 13.9489 7.5625 13.875C7.46401 13.8011 7.38103 13.7086 7.31831 13.6026C7.25558 13.4967 7.21433 13.3795 7.19692 13.2576C7.17951 13.1357 7.18628 13.0116 7.21683 12.8923C7.24739 12.7731 7.30113 12.661 7.375 12.5625L8.51562 11.0414L6.52656 10.2453C6.29594 10.1529 6.11143 9.9727 6.01358 9.74432C5.91573 9.51595 5.91253 9.25807 6.00469 9.02734ZM17.8125 4.375V8.96875C17.8125 16.1844 11.7109 18.5781 10.4875 18.9828C10.1709 19.089 9.8283 19.089 9.51172 18.9828C8.28906 18.5766 2.1875 16.1844 2.1875 8.96875V4.375C2.1875 3.9606 2.35212 3.56317 2.64515 3.27015C2.93817 2.97712 3.3356 2.8125 3.75 2.8125H16.25C16.6644 2.8125 17.0618 2.97712 17.3549 3.27015C17.6479 3.56317 17.8125 3.9606 17.8125 4.375ZM15.9375 4.6875H4.0625V8.96875C4.0625 14.7156 8.79141 16.7445 10 17.1719C11.2094 16.7477 15.9375 14.7188 15.9375 8.97266V4.6875Z" fill="#191F2E"/>
</svg>
