<svg width="20" height="20" viewBox="0 0 20 20" fill="none" xmlns="http://www.w3.org/2000/svg">
<path d="M16.25 3.125H3.75C3.41848 3.125 3.10054 3.2567 2.86612 3.49112C2.6317 3.72554 2.5 4.04348 2.5 4.375V8.96641C2.5 15.968 8.42344 18.2898 9.60938 18.6836C9.86258 18.7703 10.1374 18.7703 10.3906 18.6836C11.5781 18.2891 17.5 15.9672 17.5 8.96563V4.375C17.5 4.04348 17.3683 3.72554 17.1339 3.49112C16.8995 3.2567 16.5815 3.125 16.25 3.125ZM9.375 7.5C9.375 7.33424 9.44085 7.17527 9.55806 7.05806C9.67527 6.94085 9.83424 6.875 10 6.875C10.1658 6.875 10.3247 6.94085 10.4419 7.05806C10.5592 7.17527 10.625 7.33424 10.625 7.5V10.625C10.625 10.7908 10.5592 10.9497 10.4419 11.0669C10.3247 11.1842 10.1658 11.25 10 11.25C9.83424 11.25 9.67527 11.1842 9.55806 11.0669C9.44085 10.9497 9.375 10.7908 9.375 10.625V7.5ZM10 14.375C9.81458 14.375 9.63332 14.32 9.47915 14.217C9.32498 14.114 9.20482 13.9676 9.13386 13.7963C9.06291 13.625 9.04434 13.4365 9.08051 13.2546C9.11669 13.0727 9.20598 12.9057 9.33709 12.7746C9.4682 12.6435 9.63525 12.5542 9.8171 12.518C9.99896 12.4818 10.1875 12.5004 10.3588 12.5714C10.5301 12.6423 10.6765 12.7625 10.7795 12.9167C10.8825 13.0708 10.9375 13.2521 10.9375 13.4375C10.9375 13.6861 10.8387 13.9246 10.6629 14.1004C10.4871 14.2762 10.2486 14.375 10 14.375Z" fill="#191F2E"/>
</svg>
