<svg width="20" height="20" viewBox="0 0 20 20" fill="none" xmlns="http://www.w3.org/2000/svg">
<path d="M16.25 2.8125H3.75C3.3356 2.8125 2.93817 2.97712 2.64515 3.27015C2.35212 3.56317 2.1875 3.9606 2.1875 4.375V8.96875C2.1875 16.1844 8.28906 18.5781 9.51172 18.9828C9.8283 19.089 10.1709 19.089 10.4875 18.9828C11.7109 18.5766 17.8125 16.1844 17.8125 8.96875V4.375C17.8125 3.9606 17.6479 3.56317 17.3549 3.27015C17.0618 2.97712 16.6644 2.8125 16.25 2.8125ZM15.9375 8.96875C15.9375 14.7148 11.2094 16.7438 10 17.1719C8.79141 16.7484 4.0625 14.7195 4.0625 8.97266V4.6875H15.9375V8.96875ZM6.5625 10C6.5625 9.75136 6.66127 9.5129 6.83709 9.33709C7.0129 9.16127 7.25136 9.0625 7.5 9.0625H9.0625V7.5C9.0625 7.25136 9.16127 7.0129 9.33709 6.83709C9.5129 6.66127 9.75136 6.5625 10 6.5625C10.2486 6.5625 10.4871 6.66127 10.6629 6.83709C10.8387 7.0129 10.9375 7.25136 10.9375 7.5V9.0625H12.5C12.7486 9.0625 12.9871 9.16127 13.1629 9.33709C13.3387 9.5129 13.4375 9.75136 13.4375 10C13.4375 10.2486 13.3387 10.4871 13.1629 10.6629C12.9871 10.8387 12.7486 10.9375 12.5 10.9375H10.9375V12.5C10.9375 12.7486 10.8387 12.9871 10.6629 13.1629C10.4871 13.3387 10.2486 13.4375 10 13.4375C9.75136 13.4375 9.5129 13.3387 9.33709 13.1629C9.16127 12.9871 9.0625 12.7486 9.0625 12.5V10.9375H7.5C7.25136 10.9375 7.0129 10.8387 6.83709 10.6629C6.66127 10.4871 6.5625 10.2486 6.5625 10Z" fill="#191F2E"/>
</svg>
