<svg width="20" height="20" viewBox="0 0 20 20" fill="none" xmlns="http://www.w3.org/2000/svg">
<path d="M16.25 3.125H3.75C3.41848 3.125 3.10054 3.2567 2.86612 3.49112C2.6317 3.72554 2.5 4.04348 2.5 4.375V8.96641C2.5 15.9672 8.42344 18.2898 9.60938 18.6844C9.86267 18.7705 10.1373 18.7705 10.3906 18.6844C11.5781 18.2898 17.5 15.9672 17.5 8.96641V4.375C17.5 4.04348 17.3683 3.72554 17.1339 3.49112C16.8995 3.2567 16.5815 3.125 16.25 3.125ZM16.25 8.96797C16.25 10.3461 15.9875 11.5172 15.5688 12.5102L10.3586 8.86328C10.2535 8.78966 10.1283 8.75018 10 8.75018C9.87169 8.75018 9.74649 8.78966 9.64141 8.86328L4.43125 12.5102C4.0125 11.5172 3.75 10.3461 3.75 8.96797V4.375H16.25V8.96797Z" fill="#191F2E"/>
</svg>
