<svg width="20" height="20" viewBox="0 0 20 20" fill="none" xmlns="http://www.w3.org/2000/svg">
<path d="M17.8125 4.37492V8.96867C17.8216 10.2132 17.6163 11.4501 17.2055 12.6249C17.164 12.7409 17.1001 12.8475 17.0175 12.9387C16.9348 13.03 16.835 13.1041 16.7237 13.1567C16.6124 13.2094 16.4919 13.2396 16.3689 13.2457C16.2459 13.2518 16.123 13.2336 16.007 13.1921C15.8911 13.1507 15.7845 13.0868 15.6932 13.0041C15.602 12.9215 15.5279 12.8216 15.4752 12.7104C15.4226 12.5991 15.3923 12.4785 15.3863 12.3555C15.3802 12.2326 15.3984 12.1096 15.4398 11.9937C15.7784 11.0214 15.9467 9.99812 15.9375 8.96867V4.68742H8.54141C8.29277 4.68742 8.05431 4.58865 7.87849 4.41283C7.70268 4.23702 7.60391 3.99856 7.60391 3.74992C7.60391 3.50128 7.70268 3.26282 7.87849 3.08701C8.05431 2.91119 8.29277 2.81242 8.54141 2.81242H16.25C16.6644 2.81242 17.0618 2.97704 17.3549 3.27007C17.6479 3.56309 17.8125 3.96052 17.8125 4.37492ZM16.9438 16.2445C17.0266 16.3356 17.0907 16.4421 17.1324 16.558C17.174 16.6738 17.1925 16.7968 17.1866 16.9198C17.1808 17.0428 17.1508 17.1634 17.0983 17.2748C17.0459 17.3862 16.972 17.4862 16.8809 17.5691C16.7898 17.6519 16.6832 17.716 16.5674 17.7577C16.4515 17.7993 16.3285 17.8178 16.2055 17.812C16.0825 17.8061 15.9619 17.7761 15.8505 17.7236C15.7391 17.6712 15.6391 17.5973 15.5562 17.5062L14.6391 16.4968C13.4409 17.6026 12.0276 18.4494 10.4875 18.9843C10.1709 19.0905 9.8283 19.0905 9.51172 18.9843C8.28906 18.5765 2.1875 16.1843 2.1875 8.96867V4.37492C2.1875 4.13235 2.24398 3.89311 2.35246 3.67615C2.46094 3.45919 2.61844 3.27046 2.8125 3.12492C2.81222 2.93567 2.86922 2.75077 2.97601 2.59453C3.08279 2.43829 3.23437 2.31803 3.41079 2.24955C3.58722 2.18108 3.78024 2.1676 3.96446 2.2109C4.14869 2.25419 4.31551 2.35222 4.44297 2.49211L16.9438 16.2445ZM13.3781 15.1101L4.0625 4.86242V8.96867C4.0625 14.7155 8.79141 16.7445 10 17.1718C11.2532 16.7186 12.4021 16.0174 13.3781 15.1101Z" fill="#191F2E"/>
</svg>
