<svg width="20" height="20" viewBox="0 0 20 20" fill="none" xmlns="http://www.w3.org/2000/svg">
<path d="M16.25 2.8125H3.75C3.3356 2.8125 2.93817 2.97712 2.64515 3.27015C2.35212 3.56317 2.1875 3.9606 2.1875 4.375V8.96875C2.1875 16.1844 8.28906 18.5781 9.5125 18.9828C9.82882 19.089 10.1712 19.089 10.4875 18.9828C11.7109 18.5766 17.8125 16.1844 17.8125 8.96875V4.375C17.8125 3.9606 17.6479 3.56317 17.3549 3.27015C17.0618 2.97712 16.6644 2.8125 16.25 2.8125ZM4.0625 4.6875H15.9375V8.96875C15.9473 10.0105 15.7727 11.0457 15.4219 12.0266L10.5375 8.60703C10.3799 8.49678 10.1923 8.43765 10 8.43765C9.8077 8.43765 9.62005 8.49678 9.4625 8.60703L4.57812 12.0266C4.22729 11.0457 4.05273 10.0105 4.0625 8.96875V4.6875ZM10 17.168C9.21328 16.8922 6.93281 15.9344 5.43828 13.7133L10 10.5195L14.5617 13.7133C13.0672 15.9375 10.7867 16.8922 10 17.168Z" fill="#191F2E"/>
</svg>
