<svg width="20" height="20" viewBox="0 0 20 20" fill="none" xmlns="http://www.w3.org/2000/svg">
<path d="M16.25 3.125H3.75C3.41848 3.125 3.10054 3.2567 2.86612 3.49112C2.6317 3.72554 2.5 4.04348 2.5 4.375V8.96641C2.5 15.968 8.42344 18.2898 9.60938 18.6836C9.86258 18.7703 10.1374 18.7703 10.3906 18.6836C11.5781 18.2891 17.5 15.9672 17.5 8.96563V4.375C17.5 4.04348 17.3683 3.72554 17.1339 3.49112C16.8995 3.2567 16.5815 3.125 16.25 3.125ZM16.25 8.96797C16.25 15.0945 11.0672 17.1414 10 17.4977C8.94297 17.1461 3.75 15.1008 3.75 8.96797V4.375H16.25V8.96797ZM9.375 10.625V7.5C9.375 7.33424 9.44085 7.17527 9.55806 7.05806C9.67527 6.94085 9.83424 6.875 10 6.875C10.1658 6.875 10.3247 6.94085 10.4419 7.05806C10.5592 7.17527 10.625 7.33424 10.625 7.5V10.625C10.625 10.7908 10.5592 10.9497 10.4419 11.0669C10.3247 11.1842 10.1658 11.25 10 11.25C9.83424 11.25 9.67527 11.1842 9.55806 11.0669C9.44085 10.9497 9.375 10.7908 9.375 10.625ZM9.0625 13.4375C9.0625 13.2521 9.11748 13.0708 9.2205 12.9167C9.32351 12.7625 9.46993 12.6423 9.64123 12.5714C9.81254 12.5004 10.001 12.4818 10.1829 12.518C10.3648 12.5542 10.5318 12.6435 10.6629 12.7746C10.794 12.9057 10.8833 13.0727 10.9195 13.2546C10.9557 13.4365 10.9371 13.625 10.8661 13.7963C10.7952 13.9676 10.675 14.114 10.5208 14.217C10.3667 14.32 10.1854 14.375 10 14.375C9.75136 14.375 9.5129 14.2762 9.33709 14.1004C9.16127 13.9246 9.0625 13.6861 9.0625 13.4375Z" fill="#191F2E"/>
</svg>
