<svg width="20" height="20" viewBox="0 0 20 20" fill="none" xmlns="http://www.w3.org/2000/svg">
<path d="M15.625 3.75H14.0086L12.9422 2.68281C12.8255 2.56708 12.6682 2.50149 12.5039 2.5H7.5C7.4179 2.49994 7.33659 2.51605 7.26072 2.54741C7.18485 2.57878 7.1159 2.62479 7.05781 2.68281L5.99141 3.75H4.375C4.04348 3.75 3.72554 3.8817 3.49112 4.11612C3.2567 4.35054 3.125 4.66848 3.125 5V16.875C3.125 17.2065 3.2567 17.5245 3.49112 17.7589C3.72554 17.9933 4.04348 18.125 4.375 18.125H15.625C15.9565 18.125 16.2745 17.9933 16.5089 17.7589C16.7433 17.5245 16.875 17.2065 16.875 16.875V5C16.875 4.66848 16.7433 4.35054 16.5089 4.11612C16.2745 3.8817 15.9565 3.75 15.625 3.75ZM12.5969 4.10625L13.125 4.63359V8.75L10.8258 6.7625L12.5969 4.10625ZM6.875 4.63359L7.40313 4.10625L9.17422 6.7625L6.875 8.75V4.63359ZM9.375 16.875H4.375V5H5.625V8.75C5.62353 8.98787 5.69061 9.22113 5.81821 9.42188C5.94581 9.62263 6.12854 9.78238 6.34453 9.88203C6.51065 9.95954 6.69169 9.9998 6.875 10C7.16661 9.99947 7.44872 9.89631 7.67188 9.70859C7.6751 9.70641 7.67799 9.70378 7.68047 9.70078L9.375 8.24063V16.875ZM8.67188 3.75H11.3359L10 5.74844L8.67188 3.75ZM15.625 16.875H10.625V8.24063L12.3164 9.70156C12.3189 9.70457 12.3218 9.7072 12.325 9.70937C12.5491 9.8975 12.8324 10.0004 13.125 10C13.3095 9.99952 13.4917 9.95845 13.6586 9.87969C13.8736 9.77975 14.0555 9.62017 14.1825 9.41991C14.3095 9.21965 14.3763 8.98713 14.375 8.75V5H15.625V16.875Z" fill="#191F2E"/>
</svg>
