<svg width="20" height="20" viewBox="0 0 20 20" fill="none" xmlns="http://www.w3.org/2000/svg">
<path d="M18.7008 5.47658C18.6386 5.28266 18.5202 5.11156 18.3607 4.98499C18.2012 4.85842 18.0077 4.78208 17.8047 4.76564L14.8969 4.51955L13.7625 1.87502C13.6824 1.68962 13.5498 1.53172 13.3811 1.42078C13.2123 1.30985 13.0148 1.25073 12.8129 1.25073C12.6109 1.25073 12.4134 1.30985 12.2447 1.42078C12.0759 1.53172 11.9433 1.68962 11.8633 1.87502L10.7289 4.52033L7.82029 4.76564C7.61833 4.78187 7.42569 4.85754 7.26668 4.98311C7.10767 5.10869 6.98941 5.27854 6.92681 5.47125C6.86422 5.66396 6.8601 5.87088 6.91497 6.06593C6.96985 6.26097 7.08125 6.4354 7.23514 6.56721L9.43514 8.44221L8.77654 11.2336C8.73024 11.4293 8.74259 11.6342 8.81206 11.8229C8.88153 12.0116 9.00504 12.1756 9.16717 12.2945C9.33121 12.415 9.52712 12.4845 9.73041 12.4942C9.9337 12.5039 10.1353 12.4535 10.3101 12.3492L12.8101 10.8649L15.3101 12.3492C15.4849 12.4535 15.6866 12.5039 15.8899 12.4942C16.0932 12.4845 16.2891 12.415 16.4531 12.2945C16.6153 12.1757 16.7389 12.0117 16.8084 11.823C16.8778 11.6343 16.8901 11.4293 16.8437 11.2336L16.1851 8.44221L18.3844 6.56721C18.5391 6.43716 18.6518 6.26409 18.7082 6.06994C18.7645 5.87578 18.7619 5.66927 18.7008 5.47658ZM15.2742 7.58596C15.1302 7.70792 15.0229 7.86741 14.9642 8.04671C14.9054 8.226 14.8975 8.41807 14.9414 8.60158L15.5125 11.0235L13.3422 9.73361C13.182 9.63811 12.999 9.5877 12.8125 9.5877C12.626 9.5877 12.443 9.63811 12.2828 9.73361L10.1125 11.0156L10.6836 8.59377C10.7281 8.41035 10.7206 8.21816 10.6619 8.03876C10.6033 7.85937 10.4958 7.69986 10.3515 7.57814L8.45623 5.96721L10.9633 5.75471C11.1493 5.73909 11.3276 5.6731 11.479 5.56382C11.6304 5.45453 11.7492 5.30608 11.8226 5.13439L12.8125 2.83127L13.8 5.13439C13.8735 5.30598 13.9924 5.45434 14.1437 5.56361C14.2951 5.67287 14.4733 5.73893 14.6594 5.75471L17.1664 5.96721L15.2742 7.58596ZM6.69217 9.81721L2.31717 14.1922C2.19989 14.3095 2.04083 14.3754 1.87498 14.3754C1.70913 14.3754 1.55007 14.3095 1.43279 14.1922C1.31552 14.0749 1.24963 13.9159 1.24963 13.75C1.24963 13.5842 1.31552 13.4251 1.43279 13.3078L5.80779 8.93283C5.92507 8.81556 6.08413 8.74967 6.24998 8.74967C6.41583 8.74967 6.57489 8.81556 6.69217 8.93283C6.80944 9.05011 6.87533 9.20917 6.87533 9.37502C6.87533 9.54087 6.80944 9.69993 6.69217 9.81721ZM7.94217 14.1922L3.56717 18.5672C3.5091 18.6253 3.44016 18.6713 3.36429 18.7028C3.28842 18.7342 3.2071 18.7504 3.12498 18.7504C3.04286 18.7504 2.96154 18.7342 2.88567 18.7028C2.8098 18.6713 2.74086 18.6253 2.68279 18.5672C2.62472 18.5091 2.57866 18.4402 2.54724 18.3643C2.51581 18.2885 2.49963 18.2071 2.49963 18.125C2.49963 18.0429 2.51581 17.9616 2.54724 17.8857C2.57866 17.8098 2.62472 17.7409 2.68279 17.6828L7.05779 13.3078C7.17507 13.1906 7.33413 13.1247 7.49998 13.1247C7.66583 13.1247 7.82489 13.1906 7.94217 13.3078C8.05944 13.4251 8.12533 13.5842 8.12533 13.75C8.12533 13.9159 8.05944 14.0749 7.94217 14.1922ZM13.5672 13.3078C13.6253 13.3659 13.6714 13.4348 13.7028 13.5107C13.7343 13.5866 13.7505 13.6679 13.7505 13.75C13.7505 13.8322 13.7343 13.9135 13.7028 13.9894C13.6714 14.0652 13.6253 14.1342 13.5672 14.1922L9.19217 18.5672C9.1341 18.6253 9.06516 18.6713 8.98929 18.7028C8.91342 18.7342 8.8321 18.7504 8.74998 18.7504C8.66786 18.7504 8.58654 18.7342 8.51067 18.7028C8.4348 18.6713 8.36586 18.6253 8.30779 18.5672C8.24972 18.5091 8.20366 18.4402 8.17224 18.3643C8.14081 18.2885 8.12463 18.2071 8.12463 18.125C8.12463 18.0429 8.14081 17.9616 8.17224 17.8857C8.20366 17.8098 8.24972 17.7409 8.30779 17.6828L12.6828 13.3078C12.7408 13.2497 12.8098 13.2036 12.8856 13.1722C12.9615 13.1407 13.0428 13.1245 13.125 13.1245C13.2071 13.1245 13.2884 13.1407 13.3643 13.1722C13.4402 13.2036 13.5091 13.2497 13.5672 13.3078Z" fill="#191F2E"/>
</svg>
