<svg width="20" height="20" viewBox="0 0 20 20" fill="none" xmlns="http://www.w3.org/2000/svg">
<path d="M18.3898 6.56799L16.1906 8.44299L16.8492 11.2344C16.8956 11.4301 16.8833 11.635 16.8138 11.8237C16.7443 12.0125 16.6208 12.1765 16.4586 12.2953C16.2945 12.4158 16.0986 12.4852 15.8953 12.495C15.692 12.5047 15.4904 12.4543 15.3156 12.35L12.8156 10.8656L10.3156 12.35C10.1408 12.4543 9.93917 12.5047 9.73588 12.495C9.53259 12.4852 9.33668 12.4158 9.17264 12.2953C9.01051 12.1764 8.887 12.0124 8.81753 11.8237C8.74806 11.635 8.73571 11.4301 8.78201 11.2344L9.44061 8.44299L7.24061 6.56799C7.08666 6.43658 6.97502 6.26256 6.91976 6.06784C6.86451 5.87312 6.86809 5.6664 6.93006 5.47371C6.99204 5.28102 7.10963 5.11098 7.26804 4.98498C7.42646 4.85898 7.6186 4.78267 7.82029 4.76564L10.7289 4.51955L11.8633 1.87502C11.9433 1.68962 12.0759 1.53172 12.2447 1.42078C12.4134 1.30985 12.6109 1.25073 12.8129 1.25073C13.0148 1.25073 13.2123 1.30985 13.3811 1.42078C13.5498 1.53172 13.6824 1.68962 13.7625 1.87502L14.8969 4.52111L17.8047 4.76564C18.0068 4.78151 18.1997 4.85698 18.359 4.98251C18.5183 5.10805 18.6367 5.278 18.6993 5.47086C18.762 5.66373 18.766 5.87084 18.7109 6.06599C18.6558 6.26115 18.5441 6.43558 18.3898 6.56721V6.56799ZM6.69217 8.93283C6.63412 8.87472 6.56519 8.82862 6.48932 8.79717C6.41344 8.76572 6.33212 8.74953 6.24998 8.74953C6.16785 8.74953 6.08652 8.76572 6.01064 8.79717C5.93477 8.82862 5.86584 8.87472 5.80779 8.93283L1.43279 13.3078C1.31552 13.4251 1.24963 13.5842 1.24963 13.75C1.24963 13.9159 1.31552 14.0749 1.43279 14.1922C1.55007 14.3095 1.70913 14.3754 1.87498 14.3754C2.04083 14.3754 2.19989 14.3095 2.31717 14.1922L6.69217 9.81721C6.75028 9.75916 6.79638 9.69023 6.82783 9.61436C6.85928 9.53848 6.87547 9.45715 6.87547 9.37502C6.87547 9.29288 6.85928 9.21155 6.82783 9.13568C6.79638 9.05981 6.75028 8.99088 6.69217 8.93283ZM7.94217 13.3078C7.88412 13.2497 7.81519 13.2036 7.73932 13.1722C7.66344 13.1407 7.58212 13.1245 7.49998 13.1245C7.41785 13.1245 7.33652 13.1407 7.26064 13.1722C7.18477 13.2036 7.11584 13.2497 7.05779 13.3078L2.68279 17.6828C2.62472 17.7409 2.57866 17.8098 2.54724 17.8857C2.51581 17.9616 2.49963 18.0429 2.49963 18.125C2.49963 18.2071 2.51581 18.2885 2.54724 18.3643C2.57866 18.4402 2.62472 18.5091 2.68279 18.5672C2.80007 18.6845 2.95913 18.7504 3.12498 18.7504C3.2071 18.7504 3.28842 18.7342 3.36429 18.7028C3.44016 18.6713 3.5091 18.6253 3.56717 18.5672L7.94217 14.1922C8.00028 14.1342 8.04638 14.0652 8.07783 13.9894C8.10928 13.9135 8.12547 13.8322 8.12547 13.75C8.12547 13.6679 8.10928 13.5866 8.07783 13.5107C8.04638 13.4348 8.00028 13.3659 7.94217 13.3078ZM12.6836 13.3078L8.30857 17.6828C8.1913 17.8001 8.12542 17.9592 8.12542 18.125C8.12542 18.2909 8.1913 18.4499 8.30857 18.5672C8.42585 18.6845 8.58491 18.7504 8.75076 18.7504C8.91662 18.7504 9.07567 18.6845 9.19295 18.5672L13.568 14.1922C13.6852 14.075 13.7512 13.9161 13.7512 13.7503C13.7513 13.5845 13.6855 13.4255 13.5683 13.3082C13.4512 13.1909 13.2922 13.125 13.1264 13.1249C12.9607 13.1249 12.8016 13.1907 12.6844 13.3078H12.6836Z" fill="#191F2E"/>
</svg>
