<svg width="20" height="20" viewBox="0 0 20 20" fill="none" xmlns="http://www.w3.org/2000/svg">
<path d="M16.875 2.8125H3.125C2.7106 2.8125 2.31317 2.97712 2.02015 3.27015C1.72712 3.56317 1.5625 3.9606 1.5625 4.375V15.625C1.5625 16.0394 1.72712 16.4368 2.02015 16.7299C2.31317 17.0229 2.7106 17.1875 3.125 17.1875H16.875C17.2894 17.1875 17.6868 17.0229 17.9799 16.7299C18.2729 16.4368 18.4375 16.0394 18.4375 15.625V4.375C18.4375 3.9606 18.2729 3.56317 17.9799 3.27015C17.6868 2.97712 17.2894 2.8125 16.875 2.8125ZM16.5625 4.6875V5.9375H3.4375V4.6875H16.5625ZM3.4375 15.3125V7.8125H16.5625V15.3125H3.4375ZM14.0625 9.6875C14.0625 10.7649 13.6345 11.7983 12.8726 12.5601C12.1108 13.322 11.0774 13.75 10 13.75C8.92256 13.75 7.88925 13.322 7.12738 12.5601C6.36551 11.7983 5.9375 10.7649 5.9375 9.6875C5.9375 9.43886 6.03627 9.2004 6.21209 9.02459C6.3879 8.84877 6.62636 8.75 6.875 8.75C7.12364 8.75 7.3621 8.84877 7.53791 9.02459C7.71373 9.2004 7.8125 9.43886 7.8125 9.6875C7.8125 10.2677 8.04297 10.8241 8.4532 11.2343C8.86344 11.6445 9.41984 11.875 10 11.875C10.5802 11.875 11.1366 11.6445 11.5468 11.2343C11.957 10.8241 12.1875 10.2677 12.1875 9.6875C12.1875 9.43886 12.2863 9.2004 12.4621 9.02459C12.6379 8.84877 12.8764 8.75 13.125 8.75C13.3736 8.75 13.6121 8.84877 13.7879 9.02459C13.9637 9.2004 14.0625 9.43886 14.0625 9.6875Z" fill="#191F2E"/>
</svg>
