<svg width="20" height="20" viewBox="0 0 20 20" fill="none" xmlns="http://www.w3.org/2000/svg">
<path d="M17.3547 4.59922C17.296 4.52901 17.2226 4.47254 17.1398 4.4338C17.0569 4.39506 16.9665 4.37498 16.875 4.375H4.27187L3.88984 2.27656C3.83752 1.98854 3.68577 1.72802 3.46105 1.54042C3.23632 1.35282 2.95289 1.25004 2.66016 1.25H1.25C1.08424 1.25 0.925268 1.31585 0.808058 1.43306C0.690848 1.55027 0.625 1.70924 0.625 1.875C0.625 2.04076 0.690848 2.19973 0.808058 2.31694C0.925268 2.43415 1.08424 2.5 1.25 2.5H2.65625L4.65312 13.4602C4.71195 13.7852 4.85559 14.0889 5.06953 14.3406C4.77425 14.6164 4.56113 14.9686 4.45379 15.3581C4.34646 15.7477 4.3491 16.1593 4.46143 16.5474C4.57376 16.9355 4.79138 17.2849 5.09018 17.5569C5.38897 17.8289 5.75725 18.0128 6.15418 18.0883C6.55112 18.1637 6.9612 18.1278 7.33894 17.9844C7.71669 17.841 8.04735 17.5958 8.29425 17.276C8.54115 16.9562 8.69465 16.5742 8.73773 16.1725C8.7808 15.7707 8.71177 15.3649 8.53828 15H12.0867C11.9469 15.2927 11.8745 15.6131 11.875 15.9375C11.875 16.3701 12.0033 16.7931 12.2437 17.1528C12.484 17.5125 12.8257 17.7929 13.2254 17.9585C13.6251 18.1241 14.0649 18.1674 14.4893 18.083C14.9136 17.9986 15.3034 17.7902 15.6093 17.4843C15.9152 17.1784 16.1236 16.7886 16.208 16.3643C16.2924 15.9399 16.2491 15.5001 16.0835 15.1004C15.9179 14.7007 15.6375 14.359 15.2778 14.1187C14.9181 13.8783 14.4951 13.75 14.0625 13.75H6.49766C6.35129 13.75 6.20957 13.6986 6.09721 13.6048C5.98485 13.511 5.90898 13.3807 5.88281 13.2367L5.63516 11.875H14.6977C15.1368 11.8749 15.5619 11.7208 15.899 11.4394C16.2361 11.158 16.4637 10.7672 16.5422 10.3352L17.4922 5.11172C17.5083 5.02144 17.5043 4.92872 17.4805 4.84015C17.4568 4.75158 17.4138 4.66933 17.3547 4.59922ZM14.0625 15C14.2479 15 14.4292 15.055 14.5833 15.158C14.7375 15.261 14.8577 15.4074 14.9286 15.5787C14.9996 15.75 15.0182 15.9385 14.982 16.1204C14.9458 16.3023 14.8565 16.4693 14.7254 16.6004C14.5943 16.7315 14.4273 16.8208 14.2454 16.857C14.0635 16.8932 13.875 16.8746 13.7037 16.8036C13.5324 16.7327 13.386 16.6125 13.283 16.4583C13.18 16.3042 13.125 16.1229 13.125 15.9375C13.125 15.6889 13.2238 15.4504 13.3996 15.2746C13.5754 15.0988 13.8139 15 14.0625 15ZM6.5625 15C6.74792 15 6.92918 15.055 7.08335 15.158C7.23752 15.261 7.35768 15.4074 7.42864 15.5787C7.49959 15.75 7.51816 15.9385 7.48199 16.1204C7.44581 16.3023 7.35652 16.4693 7.22541 16.6004C7.0943 16.7315 6.92725 16.8208 6.7454 16.857C6.56354 16.8932 6.37504 16.8746 6.20373 16.8036C6.03243 16.7327 5.88601 16.6125 5.783 16.4583C5.67998 16.3042 5.625 16.1229 5.625 15.9375C5.625 15.6889 5.72377 15.4504 5.89959 15.2746C6.0754 15.0988 6.31386 15 6.5625 15Z" fill="#191F2E"/>
</svg>
