<svg width="20" height="20" viewBox="0 0 20 20" fill="none" xmlns="http://www.w3.org/2000/svg">
<path d="M16.875 3.125H3.125C2.79348 3.125 2.47554 3.2567 2.24112 3.49112C2.0067 3.72554 1.875 4.04348 1.875 4.375V15.625C1.875 15.9565 2.0067 16.2745 2.24112 16.5089C2.47554 16.7433 2.79348 16.875 3.125 16.875H16.875C17.2065 16.875 17.5245 16.7433 17.7589 16.5089C17.9933 16.2745 18.125 15.9565 18.125 15.625V4.375C18.125 4.04348 17.9933 3.72554 17.7589 3.49112C17.5245 3.2567 17.2065 3.125 16.875 3.125ZM10 12.5C9.00576 12.499 8.05253 12.1035 7.34949 11.4005C6.64645 10.6975 6.25103 9.74424 6.25 8.75C6.25 8.58424 6.31585 8.42527 6.43306 8.30806C6.55027 8.19085 6.70924 8.125 6.875 8.125C7.04076 8.125 7.19973 8.19085 7.31694 8.30806C7.43415 8.42527 7.5 8.58424 7.5 8.75C7.5 9.41304 7.76339 10.0489 8.23223 10.5178C8.70107 10.9866 9.33696 11.25 10 11.25C10.663 11.25 11.2989 10.9866 11.7678 10.5178C12.2366 10.0489 12.5 9.41304 12.5 8.75C12.5 8.58424 12.5658 8.42527 12.6831 8.30806C12.8003 8.19085 12.9592 8.125 13.125 8.125C13.2908 8.125 13.4497 8.19085 13.5669 8.30806C13.6842 8.42527 13.75 8.58424 13.75 8.75C13.749 9.74424 13.3535 10.6975 12.6505 11.4005C11.9475 12.1035 10.9942 12.499 10 12.5ZM3.125 5.625V4.375H16.875V5.625H3.125Z" fill="#191F2E"/>
</svg>
