<svg width="20" height="20" viewBox="0 0 20 20" fill="none" xmlns="http://www.w3.org/2000/svg">
<path d="M5.3125 18.4375C5.3125 18.6847 5.23919 18.9264 5.10184 19.132C4.96449 19.3375 4.76926 19.4977 4.54085 19.5924C4.31245 19.687 4.06111 19.7117 3.81864 19.6635C3.57616 19.6153 3.35343 19.4962 3.17862 19.3214C3.0038 19.1466 2.88475 18.9238 2.83652 18.6814C2.78829 18.4389 2.81304 18.1876 2.90765 17.9592C3.00226 17.7307 3.16248 17.5355 3.36804 17.3982C3.5736 17.2608 3.81527 17.1875 4.0625 17.1875C4.39402 17.1875 4.71196 17.3192 4.94638 17.5536C5.1808 17.788 5.3125 18.106 5.3125 18.4375ZM6.5625 14.6875C6.31527 14.6875 6.0736 14.7608 5.86804 14.8982C5.66248 15.0355 5.50226 15.2307 5.40765 15.4592C5.31304 15.6876 5.28829 15.9389 5.33652 16.1814C5.38475 16.4238 5.5038 16.6466 5.67862 16.8214C5.85343 16.9962 6.07616 17.1153 6.31864 17.1635C6.56111 17.2117 6.81245 17.187 7.04085 17.0924C7.26926 16.9977 7.46449 16.8375 7.60184 16.632C7.73919 16.4264 7.8125 16.1847 7.8125 15.9375C7.8125 15.606 7.6808 15.288 7.44638 15.0536C7.21196 14.8192 6.89402 14.6875 6.5625 14.6875ZM1.5625 14.6875C1.31527 14.6875 1.0736 14.7608 0.868038 14.8982C0.662476 15.0355 0.502261 15.2307 0.407651 15.4592C0.313042 15.6876 0.288287 15.9389 0.336519 16.1814C0.38475 16.4238 0.503801 16.6466 0.678617 16.8214C0.853433 16.9962 1.07616 17.1153 1.31864 17.1635C1.56111 17.2117 1.81245 17.187 2.04085 17.0924C2.26926 16.9977 2.46449 16.8375 2.60184 16.632C2.73919 16.4264 2.8125 16.1847 2.8125 15.9375C2.8125 15.606 2.6808 15.288 2.44638 15.0536C2.21196 14.8192 1.89402 14.6875 1.5625 14.6875ZM4.0625 14.6875C4.30973 14.6875 4.5514 14.6142 4.75696 14.4768C4.96252 14.3395 5.12274 14.1443 5.21735 13.9159C5.31196 13.6875 5.33671 13.4361 5.28848 13.1936C5.24025 12.9512 5.1212 12.7284 4.94638 12.5536C4.77157 12.3788 4.54884 12.2598 4.30636 12.2115C4.06389 12.1633 3.81255 12.188 3.58415 12.2827C3.35574 12.3773 3.16052 12.5375 3.02316 12.743C2.88581 12.9486 2.8125 13.1903 2.8125 13.4375C2.8125 13.769 2.9442 14.087 3.17862 14.3214C3.41304 14.5558 3.73098 14.6875 4.0625 14.6875ZM20 3.12501C20 3.37365 19.9012 3.6121 19.7254 3.78792C19.5496 3.96373 19.3111 4.06251 19.0625 4.06251H17.2656L15.2492 6.07735L13.5734 15.8852C13.5255 16.1678 13.4007 16.4319 13.2128 16.6484C13.0248 16.8649 12.7809 17.0255 12.5077 17.1126C12.2346 17.1997 11.9427 17.21 11.6641 17.1423C11.3855 17.0747 11.1309 16.9316 10.9281 16.7289L3.27188 9.07266C3.06867 8.86976 2.92531 8.61478 2.85754 8.33572C2.78977 8.05667 2.80021 7.76434 2.88772 7.49083C2.97523 7.21733 3.13642 6.97323 3.35359 6.78534C3.57076 6.59745 3.8355 6.47305 4.11875 6.42579L13.9234 4.75079L16.0289 2.64532C16.1736 2.49973 16.3457 2.3843 16.5354 2.30571C16.725 2.22713 16.9283 2.18695 17.1336 2.18751H19.0625C19.3111 2.18751 19.5496 2.28628 19.7254 2.46209C19.9012 2.63791 20 2.87637 20 3.12501ZM13.2281 6.77188L5.025 8.17344L11.8273 14.9758L13.2281 6.77188Z" fill="#191F2E"/>
</svg>
