<svg width="20" height="20" viewBox="0 0 20 20" fill="none" xmlns="http://www.w3.org/2000/svg">
<path d="M10.625 9.0625C10.625 8.87708 10.68 8.69582 10.783 8.54165C10.886 8.38748 11.0324 8.26732 11.2037 8.19636C11.375 8.12541 11.5635 8.10684 11.7454 8.14301C11.9273 8.17919 12.0943 8.26848 12.2254 8.39959C12.3565 8.5307 12.4458 8.69775 12.482 8.8796C12.5182 9.06146 12.4996 9.24996 12.4286 9.42127C12.3577 9.59257 12.2375 9.73899 12.0833 9.842C11.9292 9.94502 11.7479 10 11.5625 10C11.3139 10 11.0754 9.90123 10.8996 9.72541C10.7238 9.5496 10.625 9.31114 10.625 9.0625ZM18.75 4.6875C18.7498 5.10423 18.6306 5.51224 18.4064 5.8635C18.1822 6.21478 17.8623 6.49469 17.4844 6.67031C17.3762 8.25072 16.6726 9.73126 15.5155 10.8132C14.3585 11.8952 12.8341 12.498 11.25 12.5H8.75C8.50136 12.5 8.2629 12.5988 8.08709 12.7746C7.91127 12.9504 7.8125 13.1889 7.8125 13.4375C7.8125 13.6861 7.91127 13.9246 8.08709 14.1004C8.2629 14.2762 8.50136 14.375 8.75 14.375H13.125C13.2908 14.375 13.4497 14.4408 13.5669 14.5581C13.6842 14.6753 13.75 14.8342 13.75 15C13.75 15.1658 13.6842 15.3247 13.5669 15.4419C13.4497 15.5592 13.2908 15.625 13.125 15.625H9.375V16.875H11.875C12.0408 16.875 12.1997 16.9408 12.3169 17.0581C12.4342 17.1753 12.5 17.3342 12.5 17.5C12.5 17.6658 12.4342 17.8247 12.3169 17.9419C12.1997 18.0592 12.0408 18.125 11.875 18.125H7.5C5.8424 18.125 4.25269 17.4665 3.08058 16.2944C1.90848 15.1223 1.25 13.5326 1.25 11.875C1.25 10.2174 1.90848 8.62769 3.08058 7.45558C4.25269 6.28348 5.8424 5.625 7.5 5.625H16.5625C16.8111 5.625 17.0496 5.52623 17.2254 5.35041C17.4012 5.1746 17.5 4.93614 17.5 4.6875C17.5 4.43886 17.4012 4.2004 17.2254 4.02459C17.0496 3.84877 16.8111 3.75 16.5625 3.75H10C9.50272 3.75 9.02581 3.55246 8.67417 3.20083C8.32254 2.84919 8.125 2.37228 8.125 1.875C8.125 1.70924 8.19085 1.55027 8.30806 1.43306C8.42527 1.31585 8.58424 1.25 8.75 1.25C8.91576 1.25 9.07473 1.31585 9.19194 1.43306C9.30915 1.55027 9.375 1.70924 9.375 1.875C9.375 2.04076 9.44085 2.19973 9.55806 2.31694C9.67527 2.43415 9.83424 2.5 10 2.5H16.5625C17.1427 2.5 17.6991 2.73047 18.1093 3.1407C18.5195 3.55094 18.75 4.10734 18.75 4.6875ZM6.69688 14.2344C6.64917 14.1676 6.58878 14.1108 6.51914 14.0674C6.44951 14.0239 6.37199 13.9946 6.29103 13.9811C6.21007 13.9676 6.12725 13.9702 6.04728 13.9888C5.96732 14.0073 5.89179 14.0414 5.825 14.0891L4.625 14.9484C4.49842 15.0478 4.41506 15.1922 4.39227 15.3515C4.36948 15.5108 4.40902 15.6728 4.50265 15.8037C4.59628 15.9345 4.7368 16.0243 4.89493 16.0542C5.05306 16.084 5.21663 16.0518 5.35156 15.9641L6.55156 15.1047C6.68601 15.0084 6.77679 14.8627 6.80403 14.6996C6.83126 14.5364 6.79273 14.3691 6.69688 14.2344ZM6.57969 11.4516L3.55859 10.0781C3.48355 10.0416 3.40194 10.0204 3.31858 10.0159C3.23523 10.0114 3.15181 10.0236 3.07326 10.0519C2.99471 10.0801 2.92262 10.1238 2.86124 10.1804C2.79985 10.237 2.75043 10.3053 2.71588 10.3813C2.68133 10.4573 2.66235 10.5394 2.66006 10.6229C2.65778 10.7063 2.67224 10.7894 2.70258 10.8672C2.73292 10.9449 2.77854 11.0158 2.83673 11.0757C2.89492 11.1355 2.96452 11.1831 3.04141 11.2156L6.0625 12.5898C6.13734 12.6237 6.21811 12.6425 6.30021 12.6451C6.3823 12.6477 6.46411 12.6341 6.54095 12.6051C6.61778 12.5761 6.68815 12.5322 6.74802 12.4759C6.80788 12.4197 6.85608 12.3522 6.88984 12.2773C6.95788 12.1267 6.96343 11.9552 6.9053 11.8004C6.84718 11.6456 6.73009 11.5202 6.57969 11.4516ZM16.2109 6.875H9.375V11.25H11.25C12.4674 11.2485 13.6426 10.8035 14.5557 9.9983C15.4688 9.19305 16.0573 8.08271 16.2109 6.875Z" fill="#191F2E"/>
</svg>
