<svg width="20" height="20" viewBox="0 0 20 20" fill="none" xmlns="http://www.w3.org/2000/svg">
<path d="M10.625 9.0625C10.625 8.87708 10.68 8.69582 10.783 8.54165C10.886 8.38748 11.0324 8.26732 11.2037 8.19636C11.375 8.12541 11.5635 8.10684 11.7454 8.14301C11.9273 8.17919 12.0943 8.26848 12.2254 8.39959C12.3565 8.5307 12.4458 8.69775 12.482 8.8796C12.5182 9.06146 12.4996 9.24996 12.4286 9.42127C12.3577 9.59257 12.2375 9.73899 12.0833 9.842C11.9292 9.94502 11.7479 10 11.5625 10C11.3139 10 11.0754 9.90123 10.8996 9.72541C10.7238 9.5496 10.625 9.31114 10.625 9.0625ZM17.4844 6.67031C17.3762 8.25072 16.6726 9.73126 15.5155 10.8132C14.3585 11.8952 12.8341 12.498 11.25 12.5H8.75C8.50136 12.5 8.2629 12.5988 8.08709 12.7746C7.91127 12.9504 7.8125 13.1889 7.8125 13.4375C7.8125 13.6861 7.91127 13.9246 8.08709 14.1004C8.2629 14.2762 8.50136 14.375 8.75 14.375H13.125C13.2908 14.375 13.4497 14.4408 13.5669 14.5581C13.6842 14.6753 13.75 14.8342 13.75 15C13.75 15.1658 13.6842 15.3247 13.5669 15.4419C13.4497 15.5592 13.2908 15.625 13.125 15.625H9.375V16.875H11.875C12.0408 16.875 12.1997 16.9408 12.3169 17.0581C12.4342 17.1753 12.5 17.3342 12.5 17.5C12.5 17.6658 12.4342 17.8247 12.3169 17.9419C12.1997 18.0592 12.0408 18.125 11.875 18.125H7.5C5.8424 18.125 4.25269 17.4665 3.08058 16.2944C1.90848 15.1223 1.25 13.5326 1.25 11.875C1.25 10.2174 1.90848 8.62769 3.08058 7.45558C4.25269 6.28348 5.8424 5.625 7.5 5.625H16.5625C16.8111 5.625 17.0496 5.52623 17.2254 5.35041C17.4012 5.1746 17.5 4.93614 17.5 4.6875C17.5 4.43886 17.4012 4.2004 17.2254 4.02459C17.0496 3.84877 16.8111 3.75 16.5625 3.75H10C9.50272 3.75 9.02581 3.55246 8.67417 3.20083C8.32254 2.84919 8.125 2.37228 8.125 1.875C8.125 1.70924 8.19085 1.55027 8.30806 1.43306C8.42527 1.31585 8.58424 1.25 8.75 1.25C8.91576 1.25 9.07473 1.31585 9.19194 1.43306C9.30915 1.55027 9.375 1.70924 9.375 1.875C9.375 2.04076 9.44085 2.19973 9.55806 2.31694C9.67527 2.43415 9.83424 2.5 10 2.5H16.5625C17.0603 2.50046 17.543 2.67068 17.931 2.98256C18.319 3.29443 18.589 3.72929 18.6964 4.21534C18.8038 4.70138 18.7423 5.20954 18.5219 5.65588C18.3016 6.10223 17.9356 6.46007 17.4844 6.67031ZM3.96875 15.4133L6.56406 13.5594C6.56406 13.5195 6.56406 13.4812 6.56406 13.4375C6.56361 13.2401 6.58989 13.0435 6.64219 12.8531L2.57812 11.0055C2.43679 11.7981 2.48976 12.6132 2.73251 13.3809C2.97525 14.1486 3.40052 14.846 3.97187 15.4133H3.96875ZM7.01562 14.7727L5.00938 16.2078C5.76641 16.6455 6.62555 16.8756 7.5 16.875H8.125V15.5336C7.6859 15.4016 7.29909 15.1355 7.01875 14.7727H7.01562ZM8.125 11.3414V6.875H7.5C6.54101 6.87608 5.60251 7.15261 4.79616 7.67171C3.98982 8.19081 3.34956 8.93062 2.95156 9.80313L7.31641 11.7867C7.55119 11.5825 7.82686 11.4306 8.125 11.3414ZM16.2109 6.875H9.375V11.25H11.25C12.4674 11.2485 13.6426 10.8035 14.5557 9.9983C15.4688 9.19305 16.0573 8.08271 16.2109 6.875Z" fill="#191F2E"/>
</svg>
