<svg width="20" height="20" viewBox="0 0 20 20" fill="none" xmlns="http://www.w3.org/2000/svg">
<path d="M19.0625 4.6875C19.0625 4.02446 18.7991 3.38857 18.3303 2.91973C17.8614 2.45089 17.2255 2.1875 16.5625 2.1875H10C9.91712 2.1875 9.83764 2.15458 9.77903 2.09597C9.72043 2.03737 9.6875 1.95788 9.6875 1.875C9.6875 1.62636 9.58873 1.3879 9.41291 1.21209C9.2371 1.03627 8.99864 0.9375 8.75 0.9375C8.50136 0.9375 8.2629 1.03627 8.08709 1.21209C7.91127 1.3879 7.8125 1.62636 7.8125 1.875C7.8125 2.45516 8.04297 3.01156 8.45321 3.4218C8.86344 3.83203 9.41984 4.0625 10 4.0625H16.5625C16.7283 4.0625 16.8872 4.12835 17.0044 4.24556C17.1217 4.36277 17.1875 4.52174 17.1875 4.6875C17.1875 4.85326 17.1217 5.01223 17.0044 5.12944C16.8872 5.24665 16.7283 5.3125 16.5625 5.3125H7.57031C3.93985 5.3125 0.964064 8.23437 0.937501 11.8258C0.931007 12.6917 1.09596 13.5504 1.42284 14.3523C1.74973 15.1541 2.23209 15.8834 2.84212 16.498C3.45216 17.1126 4.1778 17.6004 4.97722 17.9333C5.77664 18.2662 6.63404 18.4375 7.5 18.4375H11.875C12.1236 18.4375 12.3621 18.3387 12.5379 18.1629C12.7137 17.9871 12.8125 17.7486 12.8125 17.5C12.8125 17.2514 12.7137 17.0129 12.5379 16.8371C12.3621 16.6613 12.1236 16.5625 11.875 16.5625H9.6875V15.3125H13.125C13.3736 15.3125 13.6121 15.2137 13.7879 15.0379C13.9637 14.8621 14.0625 14.6236 14.0625 14.375C14.0625 14.1264 13.9637 13.8879 13.7879 13.7121C13.6121 13.5363 13.3736 13.4375 13.125 13.4375H8.75C8.58424 13.4375 8.42527 13.3717 8.30806 13.2544C8.19085 13.1372 8.125 12.9783 8.125 12.8125C8.125 12.6467 8.19085 12.4878 8.30806 12.3706C8.42527 12.2533 8.58424 12.1875 8.75 12.1875H11.875C13.3419 12.1857 14.7563 11.6416 15.8463 10.6599C16.9363 9.67823 17.6249 8.32824 17.7797 6.86953C18.1684 6.65289 18.4921 6.33645 18.7177 5.95286C18.9432 5.56928 19.0622 5.13246 19.0625 4.6875ZM7.57031 7.1875H7.8125V10.4953C7.42842 10.6516 7.08893 10.9004 6.82422 11.2195L3.38672 9.65703C3.79974 8.9091 4.40567 8.28553 5.14143 7.85122C5.8772 7.4169 6.71592 7.18771 7.57031 7.1875ZM2.8125 11.8391C2.8125 11.7133 2.8211 11.5883 2.83203 11.4648L6.25938 13.0227C6.2685 13.1355 6.28573 13.2475 6.31094 13.3578L4.0086 15C3.22769 14.1336 2.80079 13.0054 2.8125 11.8391ZM7.5 16.5625C6.84818 16.5635 6.20337 16.428 5.60703 16.1648L7.37735 14.9008C7.51464 14.991 7.66038 15.0677 7.8125 15.1297V16.5625H7.5ZM11.875 10.3125H9.6875V7.1875H15.8281C15.6161 8.07676 15.1107 8.8687 14.3936 9.43563C13.6764 10.0026 12.7892 10.3115 11.875 10.3125Z" fill="#191F2E"/>
</svg>
