<svg width="20" height="20" viewBox="0 0 20 20" fill="none" xmlns="http://www.w3.org/2000/svg">
<path d="M18.7883 13.7117C18.8757 13.7988 18.945 13.9023 18.9923 14.0163C19.0397 14.1302 19.064 14.2524 19.064 14.3758C19.064 14.4992 19.0397 14.6213 18.9923 14.7353C18.945 14.8492 18.8757 14.9527 18.7883 15.0398L16.9133 16.9148C16.7372 17.091 16.4983 17.1899 16.2492 17.1899C16.0001 17.1899 15.7613 17.091 15.5852 16.9148C15.409 16.7387 15.3101 16.4998 15.3101 16.2508C15.3101 16.0017 15.409 15.7628 15.5852 15.5867L15.8594 15.3125H13.4469C13.1981 15.3125 12.9528 15.2531 12.7316 15.1392C12.5104 15.0254 12.3196 14.8603 12.175 14.6578L6.39219 6.56249H2.5C2.25136 6.56249 2.0129 6.46372 1.83709 6.2879C1.66127 6.11209 1.5625 5.87363 1.5625 5.62499C1.5625 5.37635 1.66127 5.13789 1.83709 4.96208C2.0129 4.78626 2.25136 4.68749 2.5 4.68749H6.55313C6.80181 4.6877 7.04688 4.74711 7.26804 4.86082C7.48921 4.97453 7.68013 5.13926 7.825 5.3414L13.6063 13.4375H15.8594L15.5844 13.1633C15.4083 12.9872 15.3093 12.7483 15.3093 12.4992C15.3093 12.2501 15.4083 12.0113 15.5844 11.8351C15.7605 11.659 15.9994 11.5601 16.2484 11.5601C16.4975 11.5601 16.7364 11.659 16.9125 11.8351L18.7883 13.7117ZM8.625 11.925C8.52482 11.8534 8.41152 11.8023 8.29158 11.7745C8.17163 11.7467 8.04739 11.7429 7.92595 11.7631C7.80451 11.7834 7.68824 11.8273 7.58379 11.8925C7.47934 11.9577 7.38875 12.0428 7.31719 12.143L6.39219 13.4375H2.5C2.25136 13.4375 2.0129 13.5363 1.83709 13.7121C1.66127 13.8879 1.5625 14.1264 1.5625 14.375C1.5625 14.6236 1.66127 14.8621 1.83709 15.0379C2.0129 15.2137 2.25136 15.3125 2.5 15.3125H6.55313C6.80194 15.3125 7.04716 15.2531 7.26838 15.1392C7.48961 15.0254 7.68044 14.8603 7.825 14.6578L8.84063 13.2328C8.98539 13.0308 9.044 12.7795 9.00357 12.5343C8.96313 12.289 8.82697 12.0699 8.625 11.925ZM11.375 8.07499C11.4752 8.14655 11.5885 8.19768 11.7084 8.22546C11.8284 8.25323 11.9526 8.25711 12.0741 8.23687C12.1955 8.21663 12.3118 8.17267 12.4162 8.10749C12.5207 8.04232 12.6113 7.95721 12.6828 7.85702L13.6078 6.56249H15.8594L15.5844 6.83671C15.4083 7.01283 15.3093 7.2517 15.3093 7.50077C15.3093 7.74984 15.4083 7.98871 15.5844 8.16483C15.7605 8.34095 15.9994 8.4399 16.2484 8.4399C16.4975 8.4399 16.7364 8.34095 16.9125 8.16483L18.7875 6.28983C18.8749 6.20274 18.9442 6.09924 18.9916 5.98529C19.0389 5.87133 19.0632 5.74916 19.0632 5.62577C19.0632 5.50238 19.0389 5.38021 18.9916 5.26625C18.9442 5.1523 18.8749 5.04881 18.7875 4.96171L16.9125 3.08671C16.7364 2.91059 16.4975 2.81165 16.2484 2.81165C15.9994 2.81165 15.7605 2.91059 15.5844 3.08671C15.4083 3.26283 15.3093 3.5017 15.3093 3.75077C15.3093 3.99984 15.4083 4.23871 15.5844 4.41483L15.8594 4.68749H13.4469C13.1982 4.6877 12.9531 4.74711 12.732 4.86082C12.5108 4.97453 12.3199 5.13926 12.175 5.3414L11.1594 6.76718C11.0146 6.96922 10.956 7.22048 10.9964 7.46572C11.0369 7.71097 11.173 7.93012 11.375 8.07499Z" fill="#191F2E"/>
</svg>
