<svg width="20" height="20" viewBox="0 0 20 20" fill="none" xmlns="http://www.w3.org/2000/svg">
<path d="M18.7883 13.7117C18.8757 13.7988 18.945 13.9023 18.9923 14.0163C19.0397 14.1302 19.064 14.2524 19.064 14.3758C19.064 14.4992 19.0397 14.6213 18.9923 14.7353C18.945 14.8492 18.8757 14.9527 18.7883 15.0398L16.9133 16.9148C16.7372 17.091 16.4983 17.1899 16.2492 17.1899C16.0001 17.1899 15.7613 17.091 15.5852 16.9148C15.409 16.7387 15.3101 16.4998 15.3101 16.2508C15.3101 16.0017 15.409 15.7628 15.5852 15.5867L15.8594 15.3125H15.6961C14.7511 15.3114 13.8199 15.0854 12.9796 14.6529C12.1394 14.2205 11.4142 13.5942 10.8641 12.8258L7.60781 8.26405C7.2315 7.7382 6.73531 7.30956 6.16035 7.01366C5.58539 6.71775 4.9482 6.5631 4.30156 6.56249H2.5C2.25136 6.56249 2.0129 6.46372 1.83709 6.2879C1.66127 6.11209 1.5625 5.87363 1.5625 5.62499C1.5625 5.37635 1.66127 5.13789 1.83709 4.96208C2.0129 4.78626 2.25136 4.68749 2.5 4.68749H4.30156C5.24657 4.68853 6.17775 4.91463 7.01802 5.34706C7.85829 5.77949 8.58349 6.40582 9.13359 7.17421L12.3922 11.7359C12.7685 12.2618 13.2647 12.6904 13.8397 12.9863C14.4146 13.2822 15.0518 13.4369 15.6984 13.4375H15.8594L15.5844 13.1633C15.4083 12.9872 15.3093 12.7483 15.3093 12.4992C15.3093 12.2501 15.4083 12.0113 15.5844 11.8351C15.7605 11.659 15.9994 11.5601 16.2484 11.5601C16.4975 11.5601 16.7364 11.659 16.9125 11.8351L18.7883 13.7117ZM11.318 8.03827C11.5051 8.20192 11.7495 8.28455 11.9976 8.268C12.2456 8.25144 12.4769 8.13705 12.6406 7.94999C13.022 7.51412 13.4921 7.16483 14.0195 6.92553C14.5469 6.68622 15.1193 6.56245 15.6984 6.56249H15.8594L15.5844 6.83671C15.4083 7.01283 15.3093 7.2517 15.3093 7.50077C15.3093 7.74984 15.4083 7.98871 15.5844 8.16483C15.7605 8.34095 15.9994 8.4399 16.2484 8.4399C16.4975 8.4399 16.7364 8.34095 16.9125 8.16483L18.7875 6.28983C18.8749 6.20274 18.9442 6.09924 18.9916 5.98529C19.0389 5.87133 19.0632 5.74916 19.0632 5.62577C19.0632 5.50238 19.0389 5.38021 18.9916 5.26625C18.9442 5.1523 18.8749 5.04881 18.7875 4.96171L16.9125 3.08671C16.7364 2.91059 16.4975 2.81165 16.2484 2.81165C15.9994 2.81165 15.7605 2.91059 15.5844 3.08671C15.4083 3.26283 15.3093 3.5017 15.3093 3.75077C15.3093 3.99984 15.4083 4.23871 15.5844 4.41483L15.8594 4.68749H15.6961C14.8495 4.6879 14.0127 4.86935 13.242 5.21969C12.4712 5.57003 11.7843 6.08114 11.2273 6.71874C11.065 6.90599 10.9833 7.14993 11.0003 7.39721C11.0173 7.64449 11.1315 7.87498 11.318 8.03827ZM8.68203 11.9617C8.49491 11.7981 8.25046 11.7154 8.00242 11.732C7.75439 11.7485 7.52309 11.8629 7.35938 12.05C6.97804 12.4859 6.50792 12.8352 5.98053 13.0745C5.45315 13.3138 4.8807 13.4375 4.30156 13.4375H2.5C2.25136 13.4375 2.0129 13.5363 1.83709 13.7121C1.66127 13.8879 1.5625 14.1264 1.5625 14.375C1.5625 14.6236 1.66127 14.8621 1.83709 15.0379C2.0129 15.2137 2.25136 15.3125 2.5 15.3125H4.30156C5.14819 15.3121 5.98494 15.1306 6.75568 14.7803C7.52642 14.43 8.21332 13.9188 8.77031 13.2812C8.93299 13.0943 9.01503 12.8505 8.99848 12.6033C8.98194 12.356 8.86816 12.1253 8.68203 11.9617Z" fill="#191F2E"/>
</svg>
