<svg width="20" height="20" viewBox="0 0 20 20" fill="none" xmlns="http://www.w3.org/2000/svg">
<path d="M16.8751 3.75V6.875C16.8751 7.04076 16.8093 7.19973 16.692 7.31694C16.5748 7.43415 16.4159 7.5 16.2501 7.5C16.0843 7.5 15.9254 7.43415 15.8082 7.31694C15.691 7.19973 15.6251 7.04076 15.6251 6.875V5.25859L12.2095 8.67187C12.0899 8.77426 11.9361 8.82777 11.7788 8.82169C11.6215 8.81562 11.4723 8.75041 11.361 8.6391C11.2497 8.52779 11.1845 8.37858 11.1784 8.22128C11.1723 8.06398 11.2258 7.91018 11.3282 7.79062L14.7415 4.375H13.1251C12.9593 4.375 12.8004 4.30915 12.6832 4.19194C12.566 4.07473 12.5001 3.91576 12.5001 3.75C12.5001 3.58424 12.566 3.42527 12.6832 3.30805C12.8004 3.19084 12.9593 3.125 13.1251 3.125H16.2501C16.4159 3.125 16.5748 3.19084 16.692 3.30805C16.8093 3.42527 16.8751 3.58424 16.8751 3.75ZM16.2501 12.5C16.0843 12.5 15.9254 12.5658 15.8082 12.6831C15.691 12.8003 15.6251 12.9592 15.6251 13.125V14.7414L4.19229 3.30781C4.07502 3.19053 3.91596 3.12465 3.7501 3.12465C3.58425 3.12465 3.42519 3.19053 3.30792 3.30781C3.19064 3.42508 3.12476 3.58414 3.12476 3.75C3.12476 3.91585 3.19064 4.07491 3.30792 4.19218L14.7415 15.625H13.1251C12.9593 15.625 12.8004 15.6908 12.6832 15.8081C12.566 15.9253 12.5001 16.0842 12.5001 16.25C12.5001 16.4158 12.566 16.5747 12.6832 16.6919C12.8004 16.8091 12.9593 16.875 13.1251 16.875H16.2501C16.4159 16.875 16.5748 16.8091 16.692 16.6919C16.8093 16.5747 16.8751 16.4158 16.8751 16.25V13.125C16.8751 12.9592 16.8093 12.8003 16.692 12.6831C16.5748 12.5658 16.4159 12.5 16.2501 12.5ZM7.79073 11.3281L3.30792 15.8078C3.19064 15.9251 3.12476 16.0841 3.12476 16.25C3.12476 16.4158 3.19064 16.5749 3.30792 16.6922C3.42519 16.8095 3.58425 16.8753 3.7501 16.8753C3.91596 16.8753 4.07502 16.8095 4.19229 16.6922L8.67198 12.2094C8.77437 12.0898 8.82787 11.936 8.8218 11.7787C8.81572 11.6214 8.75051 11.4722 8.63921 11.3609C8.5279 11.2496 8.37868 11.1844 8.22139 11.1783C8.06409 11.1722 7.91029 11.2257 7.79073 11.3281Z" fill="#191F2E"/>
</svg>
