<svg width="20" height="20" viewBox="0 0 20 20" fill="none" xmlns="http://www.w3.org/2000/svg">
<path d="M18.5672 13.9328C18.6253 13.9909 18.6714 14.0598 18.7029 14.1357C18.7343 14.2115 18.7505 14.2929 18.7505 14.375C18.7505 14.4571 18.7343 14.5385 18.7029 14.6143C18.6714 14.6902 18.6253 14.7591 18.5672 14.8172L16.6922 16.6922C16.6048 16.7797 16.4934 16.8393 16.3721 16.8635C16.2508 16.8876 16.125 16.8752 16.0108 16.8279C15.8965 16.7805 15.7988 16.7004 15.7302 16.5975C15.6615 16.4946 15.6249 16.3737 15.625 16.25V15H13.4469C13.2482 14.9998 13.0524 14.9521 12.8758 14.8611C12.6991 14.7701 12.5467 14.6383 12.4313 14.4766L6.55313 6.25H2.5C2.33424 6.25 2.17527 6.18416 2.05806 6.06695C1.94085 5.94974 1.875 5.79076 1.875 5.625C1.875 5.45924 1.94085 5.30027 2.05806 5.18306C2.17527 5.06585 2.33424 5 2.5 5H6.55313C6.75183 5.00025 6.94762 5.04786 7.12424 5.13889C7.30087 5.22992 7.45325 5.36175 7.56875 5.52344L13.4469 13.75H15.625V12.5C15.6249 12.3763 15.6615 12.2554 15.7302 12.1525C15.7988 12.0496 15.8965 11.9695 16.0108 11.9221C16.125 11.8748 16.2508 11.8624 16.3721 11.8865C16.4934 11.9107 16.6048 11.9703 16.6922 12.0578L18.5672 13.9328ZM11.1719 8.35938C11.2387 8.40709 11.3142 8.44117 11.3942 8.45969C11.4741 8.47821 11.5569 8.48079 11.6379 8.4673C11.7189 8.45381 11.7964 8.4245 11.866 8.38105C11.9357 8.3376 11.996 8.28086 12.0438 8.21407L13.45 6.25157H15.625V7.5C15.6249 7.62369 15.6615 7.74462 15.7302 7.84749C15.7988 7.95036 15.8965 8.03055 16.0108 8.07789C16.125 8.12524 16.2508 8.13762 16.3721 8.11346C16.4934 8.0893 16.6048 8.0297 16.6922 7.94219L18.5672 6.06719C18.6253 6.00915 18.6714 5.94022 18.7029 5.86434C18.7343 5.78847 18.7505 5.70714 18.7505 5.625C18.7505 5.54287 18.7343 5.46154 18.7029 5.38567C18.6714 5.30979 18.6253 5.24086 18.5672 5.18282L16.6922 3.30782C16.6048 3.22031 16.4934 3.1607 16.3721 3.13655C16.2508 3.11239 16.125 3.12477 16.0108 3.17211C15.8965 3.21946 15.7988 3.29964 15.7302 3.40252C15.6615 3.50539 15.6249 3.62632 15.625 3.75V5H13.4469C13.2482 5.00025 13.0524 5.04786 12.8758 5.13889C12.6991 5.22992 12.5467 5.36175 12.4313 5.52344L11.0273 7.48594C10.9794 7.55274 10.945 7.62834 10.9263 7.70843C10.9076 7.78852 10.9049 7.87152 10.9183 7.95266C10.9317 8.03381 10.961 8.1115 11.0046 8.18129C11.0481 8.25109 11.1049 8.3116 11.1719 8.35938ZM8.82813 11.6406C8.76134 11.5929 8.6858 11.5588 8.60584 11.5403C8.52588 11.5218 8.44305 11.5192 8.36209 11.5327C8.28113 11.5462 8.20362 11.5755 8.13399 11.619C8.06435 11.6624 8.00396 11.7192 7.95625 11.7859L6.55313 13.75H2.5C2.33424 13.75 2.17527 13.8159 2.05806 13.9331C1.94085 14.0503 1.875 14.2092 1.875 14.375C1.875 14.5408 1.94085 14.6997 2.05806 14.8169C2.17527 14.9342 2.33424 15 2.5 15H6.55313C6.75183 14.9998 6.94762 14.9521 7.12424 14.8611C7.30087 14.7701 7.45325 14.6383 7.56875 14.4766L8.97109 12.5141C9.01917 12.4474 9.0536 12.3718 9.07244 12.2918C9.09127 12.2118 9.09413 12.1288 9.08085 12.0477C9.06756 11.9665 9.03841 11.8888 8.99504 11.819C8.95167 11.7491 8.89495 11.6885 8.82813 11.6406Z" fill="#191F2E"/>
</svg>
