<svg width="20" height="20" viewBox="0 0 20 20" fill="none" xmlns="http://www.w3.org/2000/svg">
<path d="M18.5672 13.9328C18.6253 13.9909 18.6714 14.0598 18.7029 14.1357C18.7343 14.2115 18.7505 14.2929 18.7505 14.375C18.7505 14.4571 18.7343 14.5385 18.7029 14.6143C18.6714 14.6902 18.6253 14.7592 18.5672 14.8172L16.6922 16.6922C16.5749 16.8095 16.4159 16.8754 16.25 16.8754C16.0841 16.8754 15.9251 16.8095 15.8078 16.6922C15.6905 16.5749 15.6247 16.4159 15.6247 16.25C15.6247 16.0842 15.6905 15.9251 15.8078 15.8078L16.6164 15H15.6984C14.8032 14.9993 13.921 14.7852 13.125 14.3756C12.329 13.966 11.6421 13.3726 11.1211 12.6445L7.86172 8.08204C7.45649 7.51583 6.92219 7.05432 6.30307 6.73573C5.68395 6.41714 4.99784 6.25063 4.30156 6.25001H2.5C2.33424 6.25001 2.17527 6.18416 2.05806 6.06695C1.94085 5.94974 1.875 5.79077 1.875 5.62501C1.875 5.45925 1.94085 5.30028 2.05806 5.18307C2.17527 5.06586 2.33424 5.00001 2.5 5.00001H4.30156C5.19679 5.00076 6.07895 5.21481 6.87497 5.62443C7.67098 6.03405 8.35793 6.62746 8.87891 7.35548L12.1383 11.918C12.5435 12.4842 13.0778 12.9457 13.6969 13.2643C14.316 13.5829 15.0022 13.7494 15.6984 13.75H16.6164L15.8078 12.9422C15.6905 12.8249 15.6247 12.6659 15.6247 12.5C15.6247 12.3342 15.6905 12.1751 15.8078 12.0578C15.9251 11.9405 16.0841 11.8747 16.25 11.8747C16.4159 11.8747 16.5749 11.9405 16.6922 12.0578L18.5672 13.9328ZM11.1719 8.35939C11.2387 8.4071 11.3142 8.44118 11.3942 8.4597C11.4741 8.47821 11.5569 8.4808 11.6379 8.46731C11.7189 8.45381 11.7964 8.4245 11.866 8.38105C11.9357 8.3376 11.996 8.28087 12.0438 8.21407L12.1375 8.08361C12.5426 7.517 13.077 7.05512 13.6963 6.73624C14.3155 6.41737 15.0019 6.25069 15.6984 6.25001H16.6164L15.8078 7.05782C15.6905 7.1751 15.6247 7.33416 15.6247 7.50001C15.6247 7.66586 15.6905 7.82492 15.8078 7.9422C15.9251 8.05947 16.0841 8.12536 16.25 8.12536C16.4159 8.12536 16.5749 8.05947 16.6922 7.9422L18.5672 6.0672C18.6253 6.00915 18.6714 5.94022 18.7029 5.86435C18.7343 5.78848 18.7505 5.70715 18.7505 5.62501C18.7505 5.54288 18.7343 5.46155 18.7029 5.38567C18.6714 5.3098 18.6253 5.24087 18.5672 5.18282L16.6922 3.30782C16.5749 3.19055 16.4159 3.12466 16.25 3.12466C16.0841 3.12466 15.9251 3.19055 15.8078 3.30782C15.6905 3.4251 15.6247 3.58416 15.6247 3.75001C15.6247 3.91586 15.6905 4.07492 15.8078 4.1922L16.6164 5.00001H15.6984C14.8032 5.00076 13.921 5.21481 13.125 5.62443C12.329 6.03405 11.6421 6.62746 11.1211 7.35548L11.0273 7.48595C10.9794 7.55274 10.945 7.62835 10.9263 7.70844C10.9076 7.78853 10.9049 7.87153 10.9183 7.95267C10.9317 8.03381 10.961 8.11151 11.0046 8.1813C11.0481 8.25109 11.1049 8.31161 11.1719 8.35939ZM8.82813 11.6406C8.76134 11.5929 8.6858 11.5588 8.60584 11.5403C8.52588 11.5218 8.44305 11.5192 8.36209 11.5327C8.28113 11.5462 8.20362 11.5755 8.13399 11.619C8.06435 11.6624 8.00396 11.7192 7.95625 11.7859L7.8625 11.9164C7.45736 12.483 6.92301 12.9449 6.30374 13.2638C5.68447 13.5827 4.99811 13.7493 4.30156 13.75H2.5C2.33424 13.75 2.17527 13.8159 2.05806 13.9331C1.94085 14.0503 1.875 14.2093 1.875 14.375C1.875 14.5408 1.94085 14.6997 2.05806 14.817C2.17527 14.9342 2.33424 15 2.5 15H4.30156C5.19679 14.9993 6.07895 14.7852 6.87497 14.3756C7.67098 13.966 8.35793 13.3726 8.87891 12.6445L8.97266 12.5141C9.02065 12.4473 9.05498 12.3717 9.0737 12.2916C9.09241 12.2115 9.09513 12.1285 9.0817 12.0474C9.06827 11.9662 9.03896 11.8885 8.99545 11.8187C8.95194 11.7489 8.89507 11.6884 8.82813 11.6406Z" fill="#191F2E"/>
</svg>
