<svg width="20" height="20" viewBox="0 0 20 20" fill="none" xmlns="http://www.w3.org/2000/svg">
<path d="M16.8751 3.75V6.875C16.8752 6.99868 16.8386 7.11961 16.7699 7.22249C16.7013 7.32536 16.6036 7.40554 16.4893 7.45289C16.3751 7.50023 16.2493 7.51261 16.128 7.48845C16.0067 7.4643 15.8953 7.40469 15.8079 7.31718L14.6876 6.19609L12.2095 8.67187C12.0899 8.77426 11.9361 8.82777 11.7788 8.82169C11.6215 8.81562 11.4723 8.75041 11.361 8.6391C11.2497 8.52779 11.1845 8.37858 11.1784 8.22128C11.1723 8.06398 11.2258 7.91018 11.3282 7.79062L13.804 5.3125L12.6829 4.19218C12.5954 4.10477 12.5358 3.99337 12.5116 3.87206C12.4875 3.75076 12.4999 3.62502 12.5472 3.51075C12.5946 3.39649 12.6747 3.29884 12.7776 3.23017C12.8805 3.1615 13.0014 3.1249 13.1251 3.125H16.2501C16.4159 3.125 16.5748 3.19084 16.692 3.30805C16.8093 3.42527 16.8751 3.58424 16.8751 3.75ZM16.4892 12.5477C16.375 12.5003 16.2493 12.4878 16.128 12.5119C16.0068 12.5359 15.8954 12.5954 15.8079 12.6828L14.6876 13.8039L4.19229 3.30781C4.07502 3.19053 3.91596 3.12465 3.7501 3.12465C3.58425 3.12465 3.42519 3.19053 3.30792 3.30781C3.19064 3.42508 3.12476 3.58414 3.12476 3.75C3.12476 3.91585 3.19064 4.07491 3.30792 4.19218L13.804 14.6875L12.6829 15.8078C12.5954 15.8952 12.5358 16.0066 12.5116 16.1279C12.4875 16.2492 12.4999 16.375 12.5472 16.4892C12.5946 16.6035 12.6747 16.7012 12.7776 16.7698C12.8805 16.8385 13.0014 16.8751 13.1251 16.875H16.2501C16.4159 16.875 16.5748 16.8091 16.692 16.6919C16.8093 16.5747 16.8751 16.4158 16.8751 16.25V13.125C16.8751 13.0014 16.8384 12.8806 16.7697 12.7778C16.701 12.675 16.6034 12.5949 16.4892 12.5477ZM7.79073 11.3281L3.30792 15.8078C3.19064 15.9251 3.12476 16.0841 3.12476 16.25C3.12476 16.4158 3.19064 16.5749 3.30792 16.6922C3.42519 16.8095 3.58425 16.8753 3.7501 16.8753C3.91596 16.8753 4.07502 16.8095 4.19229 16.6922L8.67198 12.2094C8.77437 12.0898 8.82787 11.936 8.8218 11.7787C8.81572 11.6214 8.75051 11.4722 8.63921 11.3609C8.5279 11.2496 8.37868 11.1844 8.22139 11.1783C8.06409 11.1722 7.91029 11.2257 7.79073 11.3281Z" fill="#191F2E"/>
</svg>
