<svg width="20" height="20" viewBox="0 0 20 20" fill="none" xmlns="http://www.w3.org/2000/svg">
<path d="M18.5672 13.9328C18.6253 13.9909 18.6714 14.0598 18.7029 14.1357C18.7343 14.2115 18.7505 14.2929 18.7505 14.375C18.7505 14.4571 18.7343 14.5385 18.7029 14.6143C18.6714 14.6902 18.6253 14.7591 18.5672 14.8172L16.6922 16.6922C16.6048 16.7797 16.4934 16.8393 16.3721 16.8635C16.2508 16.8876 16.125 16.8752 16.0108 16.8279C15.8965 16.7805 15.7988 16.7004 15.7302 16.5975C15.6615 16.4946 15.6249 16.3737 15.625 16.25V15C14.7423 14.9876 13.8749 14.7681 13.0926 14.3591C12.3103 13.9501 11.635 13.3631 11.1211 12.6453L7.86172 8.08282C7.45657 7.51646 6.92231 7.0548 6.30319 6.73607C5.68407 6.41734 4.99791 6.25071 4.30156 6.25H2.5C2.33424 6.25 2.17527 6.18416 2.05806 6.06695C1.94085 5.94974 1.875 5.79076 1.875 5.625C1.875 5.45924 1.94085 5.30027 2.05806 5.18306C2.17527 5.06585 2.33424 5 2.5 5H4.30156C5.19679 5.00075 6.07895 5.2148 6.87497 5.62442C7.67098 6.03405 8.35793 6.62745 8.87891 7.35547L12.1383 11.918C12.5361 12.4743 13.0587 12.9298 13.6642 13.2479C14.2696 13.566 14.9412 13.738 15.625 13.75V12.5C15.6249 12.3763 15.6615 12.2554 15.7302 12.1525C15.7988 12.0496 15.8965 11.9695 16.0108 11.9221C16.125 11.8748 16.2508 11.8624 16.3721 11.8865C16.4934 11.9107 16.6048 11.9703 16.6922 12.0578L18.5672 13.9328ZM11.1719 8.35938C11.2387 8.40709 11.3142 8.44117 11.3942 8.45969C11.4741 8.47821 11.5569 8.48079 11.6379 8.4673C11.7189 8.45381 11.7964 8.4245 11.866 8.38105C11.9357 8.3376 11.996 8.28086 12.0438 8.21407L12.1375 8.0836C12.5353 7.52687 13.0579 7.07105 13.6635 6.75264C14.2691 6.43423 14.9409 6.26209 15.625 6.25V7.5C15.6249 7.62369 15.6615 7.74462 15.7302 7.84749C15.7988 7.95036 15.8965 8.03055 16.0108 8.07789C16.125 8.12524 16.2508 8.13762 16.3721 8.11346C16.4934 8.0893 16.6048 8.0297 16.6922 7.94219L18.5672 6.06719C18.6253 6.00915 18.6714 5.94022 18.7029 5.86434C18.7343 5.78847 18.7505 5.70714 18.7505 5.625C18.7505 5.54287 18.7343 5.46154 18.7029 5.38567C18.6714 5.30979 18.6253 5.24086 18.5672 5.18282L16.6922 3.30782C16.6048 3.22031 16.4934 3.1607 16.3721 3.13655C16.2508 3.11239 16.125 3.12477 16.0108 3.17211C15.8965 3.21946 15.7988 3.29964 15.7302 3.40252C15.6615 3.50539 15.6249 3.62632 15.625 3.75V5C14.7423 5.0124 13.8749 5.23194 13.0926 5.64093C12.3103 6.04993 11.635 6.63694 11.1211 7.35469L11.0273 7.48516C10.9792 7.55198 10.9448 7.62765 10.926 7.70782C10.9072 7.78798 10.9045 7.87107 10.9179 7.95231C10.9313 8.03354 10.9607 8.11133 11.0043 8.18118C11.0479 8.25104 11.1048 8.3116 11.1719 8.35938ZM8.82813 11.6406C8.76134 11.5929 8.6858 11.5588 8.60584 11.5403C8.52588 11.5218 8.44305 11.5192 8.36209 11.5327C8.28113 11.5462 8.20362 11.5755 8.13399 11.619C8.06435 11.6624 8.00396 11.7192 7.95625 11.7859L7.8625 11.9164C7.45736 12.483 6.92301 12.9449 6.30374 13.2638C5.68447 13.5826 4.99811 13.7493 4.30156 13.75H2.5C2.33424 13.75 2.17527 13.8159 2.05806 13.9331C1.94085 14.0503 1.875 14.2092 1.875 14.375C1.875 14.5408 1.94085 14.6997 2.05806 14.8169C2.17527 14.9342 2.33424 15 2.5 15H4.30156C5.19679 14.9993 6.07895 14.7852 6.87497 14.3756C7.67098 13.966 8.35793 13.3726 8.87891 12.6445L8.97266 12.5141C9.02065 12.4473 9.05498 12.3717 9.0737 12.2916C9.09241 12.2115 9.09513 12.1285 9.0817 12.0473C9.06827 11.9662 9.03896 11.8885 8.99545 11.8187C8.95194 11.7489 8.89507 11.6884 8.82813 11.6406Z" fill="#191F2E"/>
</svg>
