<svg width="20" height="20" viewBox="0 0 20 20" fill="none" xmlns="http://www.w3.org/2000/svg">
<path d="M14.375 5.625V4.375H6.30081L10.4883 9.60938C10.5771 9.72023 10.6254 9.858 10.6254 10C10.6254 10.142 10.5771 10.2798 10.4883 10.3906L6.30081 15.625H14.375V14.375C14.375 14.2092 14.4409 14.0503 14.5581 13.9331C14.6753 13.8158 14.8343 13.75 15 13.75C15.1658 13.75 15.3248 13.8158 15.442 13.9331C15.5592 14.0503 15.625 14.2092 15.625 14.375V16.25C15.625 16.4158 15.5592 16.5747 15.442 16.6919C15.3248 16.8092 15.1658 16.875 15 16.875H5.00003C4.88224 16.8751 4.76684 16.8419 4.66711 16.7792C4.56738 16.7165 4.48739 16.627 4.43635 16.5208C4.38532 16.4147 4.36532 16.2962 4.37866 16.1792C4.39199 16.0622 4.43813 15.9513 4.51174 15.8594L9.19924 10L4.51174 4.14063C4.43813 4.04868 4.39199 3.93781 4.37866 3.82078C4.36532 3.70376 4.38532 3.58534 4.43635 3.47919C4.48739 3.37304 4.56738 3.28347 4.66711 3.2208C4.76684 3.15814 4.88224 3.12493 5.00003 3.125H15C15.1658 3.125 15.3248 3.19085 15.442 3.30806C15.5592 3.42527 15.625 3.58424 15.625 3.75V5.625C15.625 5.79076 15.5592 5.94973 15.442 6.06694C15.3248 6.18415 15.1658 6.25 15 6.25C14.8343 6.25 14.6753 6.18415 14.5581 6.06694C14.4409 5.94973 14.375 5.79076 14.375 5.625Z" fill="#191F2E"/>
</svg>
