<svg width="20" height="20" viewBox="0 0 20 20" fill="none" xmlns="http://www.w3.org/2000/svg">
<path d="M19.2188 9.16797L16.4062 12.293C16.3472 12.3586 16.2749 12.411 16.1941 12.4467C16.1133 12.4824 16.0258 12.5006 15.9375 12.5H10.625V17.5C10.625 17.6658 10.5592 17.8247 10.4419 17.9419C10.3247 18.0592 10.1658 18.125 10 18.125C9.83424 18.125 9.67527 18.0592 9.55806 17.9419C9.44085 17.8247 9.375 17.6658 9.375 17.5V12.5H3.125C2.79348 12.5 2.47554 12.3683 2.24112 12.1339C2.0067 11.8995 1.875 11.5815 1.875 11.25V6.25C1.875 5.91848 2.0067 5.60054 2.24112 5.36612C2.47554 5.1317 2.79348 5 3.125 5H9.375V2.5C9.375 2.33424 9.44085 2.17527 9.55806 2.05806C9.67527 1.94085 9.83424 1.875 10 1.875C10.1658 1.875 10.3247 1.94085 10.4419 2.05806C10.5592 2.17527 10.625 2.33424 10.625 2.5V5H15.9375C16.0258 4.99943 16.1133 5.01758 16.1941 5.05327C16.2749 5.08895 16.3472 5.14136 16.4062 5.20703L19.2188 8.33203C19.322 8.44678 19.3791 8.59566 19.3791 8.75C19.3791 8.90434 19.322 9.05322 19.2188 9.16797Z" fill="#191F2E"/>
</svg>
