<svg width="20" height="20" viewBox="0 0 20 20" fill="none" xmlns="http://www.w3.org/2000/svg">
<path d="M11.0672 10.4422L7.94219 13.5672C7.85478 13.6547 7.74337 13.7143 7.62207 13.7385C7.50076 13.7626 7.37502 13.7502 7.26076 13.7029C7.14649 13.6555 7.04884 13.5754 6.98018 13.4725C6.91151 13.3696 6.8749 13.2487 6.875 13.125V10.625H1.875C1.70924 10.625 1.55027 10.5592 1.43306 10.4419C1.31585 10.3247 1.25 10.1658 1.25 10C1.25 9.83424 1.31585 9.67527 1.43306 9.55806C1.55027 9.44085 1.70924 9.375 1.875 9.375H6.875V6.875C6.8749 6.75132 6.91151 6.63038 6.98018 6.52751C7.04884 6.42464 7.14649 6.34446 7.26076 6.29711C7.37502 6.24977 7.50076 6.23739 7.62207 6.26154C7.74337 6.2857 7.85478 6.34531 7.94219 6.43281L11.0672 9.55781C11.1253 9.61586 11.1714 9.68479 11.2029 9.76066C11.2343 9.83654 11.2505 9.91787 11.2505 10C11.2505 10.0821 11.2343 10.1635 11.2029 10.2393C11.1714 10.3152 11.1253 10.3841 11.0672 10.4422ZM15 2.5H10.625C10.4592 2.5 10.3003 2.56585 10.1831 2.68306C10.0658 2.80027 10 2.95924 10 3.125C10 3.29076 10.0658 3.44973 10.1831 3.56694C10.3003 3.68415 10.4592 3.75 10.625 3.75H15V16.25H10.625C10.4592 16.25 10.3003 16.3158 10.1831 16.4331C10.0658 16.5503 10 16.7092 10 16.875C10 17.0408 10.0658 17.1997 10.1831 17.3169C10.3003 17.4342 10.4592 17.5 10.625 17.5H15C15.3315 17.5 15.6495 17.3683 15.8839 17.1339C16.1183 16.8995 16.25 16.5815 16.25 16.25V3.75C16.25 3.41848 16.1183 3.10054 15.8839 2.86612C15.6495 2.6317 15.3315 2.5 15 2.5Z" fill="#191F2E"/>
</svg>
