<svg width="20" height="20" viewBox="0 0 20 20" fill="none" xmlns="http://www.w3.org/2000/svg">
<path d="M18.125 12.8125H5.49606C5.66793 12.4672 5.84059 12.114 6.0109 11.7554C6.02965 11.7172 6.04762 11.6773 6.06559 11.6414C7.12496 11.5164 8.31403 10.7617 9.62184 9.38357C10.0382 10.3258 10.7211 11.3265 11.782 11.5273C12.1922 11.6054 12.8359 11.589 13.5711 11.0734C13.8291 10.8892 14.0669 10.6781 14.2804 10.4437C14.9312 11.039 16.0836 11.5625 18.125 11.5625C18.3736 11.5625 18.6121 11.4637 18.7879 11.2879C18.9637 11.1121 19.0625 10.8736 19.0625 10.625C19.0625 10.3763 18.9637 10.1379 18.7879 9.96206C18.6121 9.78625 18.3736 9.68748 18.125 9.68748C15.5734 9.68748 15.3273 8.78044 15.3125 8.7031C15.3015 8.49082 15.2188 8.28855 15.0778 8.12948C14.9367 7.97042 14.7459 7.86399 14.5364 7.82766C14.327 7.79133 14.1114 7.82726 13.9251 7.92954C13.7387 8.03183 13.5927 8.1944 13.5109 8.3906C12.7789 9.47888 12.2922 9.71873 12.1312 9.68748C11.7476 9.61482 11.1586 8.46091 10.9187 7.31326C10.8806 7.12775 10.7871 6.95814 10.6507 6.82677C10.5143 6.6954 10.3413 6.60843 10.1545 6.57731C9.96766 6.54618 9.7758 6.57237 9.60416 6.65242C9.43252 6.73247 9.28915 6.86263 9.19293 7.02576C8.41168 7.99294 7.74293 8.66091 7.18668 9.09607C8.85153 4.9406 8.52653 3.43044 8.08278 2.64529C7.69215 1.95232 6.98903 1.56873 6.10153 1.56482H6.07653C4.67028 1.57498 3.54293 2.86638 3.05074 5.02341C2.78121 6.20544 2.73824 7.51404 2.93668 8.61248C3.14293 9.76013 3.58746 10.6179 4.23434 11.1297C3.95543 11.7062 3.67184 12.2726 3.39449 12.8125H1.87496C1.62632 12.8125 1.38787 12.9112 1.21205 13.0871C1.03624 13.2629 0.937463 13.5013 0.937463 13.75C0.937463 13.9986 1.03624 14.2371 1.21205 14.4129C1.38787 14.5887 1.62632 14.6875 1.87496 14.6875H2.39684C1.64059 16.0679 1.08121 17 1.06871 17.0164C1.00524 17.1219 0.96318 17.2389 0.944928 17.3607C0.926675 17.4824 0.93259 17.6066 0.962335 17.7261C0.99208 17.8456 1.04507 17.958 1.11828 18.057C1.1915 18.156 1.28349 18.2397 1.38903 18.3031C1.53545 18.392 1.70367 18.4385 1.87496 18.4375C2.03674 18.4376 2.19579 18.3959 2.33666 18.3163C2.47753 18.2368 2.59542 18.1222 2.67887 17.9836C2.72731 17.9015 3.53278 16.5625 4.53121 14.6875H18.125C18.3736 14.6875 18.6121 14.5887 18.7879 14.4129C18.9637 14.2371 19.0625 13.9986 19.0625 13.75C19.0625 13.5013 18.9637 13.2629 18.7879 13.0871C18.6121 12.9112 18.3736 12.8125 18.125 12.8125ZM15.3125 8.74998C15.3125 8.73591 15.3125 8.72185 15.3125 8.70779C15.3137 8.72183 15.3137 8.73594 15.3125 8.74998ZM4.87809 5.43826C5.13824 4.29685 5.65934 3.43748 6.09371 3.43748C6.38043 3.43748 6.42574 3.5156 6.45309 3.5656C6.56481 3.76404 6.96481 4.90076 5.09215 9.2531C4.94157 8.94608 4.83681 8.61864 4.78121 8.28123C4.62968 7.3362 4.66258 6.37077 4.87809 5.43826Z" fill="#191F2E"/>
</svg>
