<svg width="20" height="20" viewBox="0 0 20 20" fill="none" xmlns="http://www.w3.org/2000/svg">
<path d="M19.4469 8.125L16.6344 5C16.5467 4.90192 16.4393 4.82341 16.3192 4.76957C16.1991 4.71573 16.0691 4.68777 15.9375 4.6875H10.9375V2.5C10.9375 2.25136 10.8387 2.0129 10.6629 1.83709C10.4871 1.66127 10.2486 1.5625 10 1.5625C9.75136 1.5625 9.5129 1.66127 9.33709 1.83709C9.16127 2.0129 9.0625 2.25136 9.0625 2.5V4.6875H3.125C2.7106 4.6875 2.31317 4.85212 2.02015 5.14515C1.72712 5.43817 1.5625 5.8356 1.5625 6.25V11.25C1.5625 11.4552 1.60292 11.6584 1.68144 11.8479C1.75996 12.0375 1.87505 12.2098 2.02015 12.3549C2.16524 12.4999 2.33749 12.615 2.52706 12.6936C2.71663 12.7721 2.91981 12.8125 3.125 12.8125H9.0625V17.5C9.0625 17.7486 9.16127 17.9871 9.33709 18.1629C9.5129 18.3387 9.75136 18.4375 10 18.4375C10.2486 18.4375 10.4871 18.3387 10.6629 18.1629C10.8387 17.9871 10.9375 17.7486 10.9375 17.5V12.8125H15.9375C16.0691 12.8122 16.1991 12.7843 16.3192 12.7304C16.4393 12.6766 16.5467 12.5981 16.6344 12.5L19.4469 9.375C19.6006 9.20312 19.6856 8.9806 19.6856 8.75C19.6856 8.5194 19.6006 8.29688 19.4469 8.125ZM15.5203 10.9375H3.4375V6.5625H15.5203L17.4891 8.75L15.5203 10.9375Z" fill="#191F2E"/>
</svg>
