<svg width="20" height="20" viewBox="0 0 20 20" fill="none" xmlns="http://www.w3.org/2000/svg">
<path d="M19.2188 8.33203L16.4062 5.20703C16.3472 5.14136 16.2749 5.08895 16.1941 5.05327C16.1133 5.01758 16.0258 4.99943 15.9375 5H10.625V2.5C10.625 2.33424 10.5592 2.17527 10.4419 2.05806C10.3247 1.94085 10.1658 1.875 10 1.875C9.83424 1.875 9.67527 1.94085 9.55806 2.05806C9.44085 2.17527 9.375 2.33424 9.375 2.5V5H3.125C2.79348 5 2.47554 5.1317 2.24112 5.36612C2.0067 5.60054 1.875 5.91848 1.875 6.25V11.25C1.875 11.5815 2.0067 11.8995 2.24112 12.1339C2.47554 12.3683 2.79348 12.5 3.125 12.5H9.375V17.5C9.375 17.6658 9.44085 17.8247 9.55806 17.9419C9.67527 18.0592 9.83424 18.125 10 18.125C10.1658 18.125 10.3247 18.0592 10.4419 17.9419C10.5592 17.8247 10.625 17.6658 10.625 17.5V12.5H15.9375C16.0252 12.5 16.1119 12.4816 16.1919 12.4459C16.272 12.4103 16.3437 12.3581 16.4023 12.293L19.2148 9.16797C19.3186 9.0537 19.3764 8.90509 19.3771 8.75075C19.3778 8.59641 19.3214 8.44726 19.2188 8.33203ZM15.6594 11.25H3.125V6.25H15.6594L17.9094 8.75L15.6594 11.25Z" fill="#191F2E"/>
</svg>
