<svg width="20" height="20" viewBox="0 0 20 20" fill="none" xmlns="http://www.w3.org/2000/svg">
<path d="M18.125 13.125H4.98908C5.19689 12.7156 5.40548 12.2945 5.61408 11.8664C6.78126 11.9953 8.16251 11.1789 9.73439 9.42734C9.78126 9.55703 9.83361 9.69062 9.89064 9.82578C10.3992 11.0172 11.0555 11.6961 11.8438 11.8453C12.6516 12.0016 13.4516 11.593 14.2719 10.6094C14.8047 11.2398 15.8985 11.875 18.125 11.875C18.2908 11.875 18.4497 11.8092 18.567 11.6919C18.6842 11.5747 18.75 11.4158 18.75 11.25C18.75 11.0842 18.6842 10.9253 18.567 10.8081C18.4497 10.6908 18.2908 10.625 18.125 10.625C15.732 10.625 15.0352 9.79766 15 9.35781C14.9962 9.21242 14.9418 9.07291 14.8462 8.96331C14.7506 8.85371 14.6198 8.78089 14.4762 8.75738C14.3327 8.73388 14.1855 8.76116 14.0599 8.83454C13.9343 8.90792 13.8383 9.02279 13.7883 9.15937C12.8375 10.5852 12.2742 10.6547 12.0695 10.6172C11.4188 10.4945 10.8133 8.98203 10.6094 7.99922C10.5827 7.8751 10.5189 7.76204 10.4263 7.6751C10.3338 7.58816 10.217 7.53146 10.0915 7.51255C9.96593 7.49363 9.8376 7.5134 9.72357 7.56921C9.60954 7.62503 9.51521 7.71425 9.45314 7.825C7.90626 9.74844 6.86876 10.4031 6.21798 10.5703C6.88126 9.09531 7.37658 7.80078 7.69376 6.71094C8.22658 4.87969 8.26564 3.59922 7.81173 2.79687C7.57736 2.37812 7.08595 1.87891 6.10001 1.875H6.08048C4.83048 1.88359 3.84611 3.07031 3.37579 5.13281C3.09533 6.36016 3.04923 7.72578 3.24845 8.88281C3.44767 10.0398 3.86251 10.8758 4.46329 11.3742C4.17267 11.9781 3.87501 12.568 3.58595 13.1266H1.87501C1.70925 13.1266 1.55028 13.1924 1.43307 13.3096C1.31586 13.4268 1.25001 13.5858 1.25001 13.7516C1.25001 13.9173 1.31586 14.0763 1.43307 14.1935C1.55028 14.3107 1.70925 14.3766 1.87501 14.3766H2.92267C2.03829 16.0172 1.35079 17.1609 1.33986 17.1797C1.2953 17.2501 1.26526 17.3286 1.2515 17.4108C1.23775 17.493 1.24055 17.577 1.25975 17.6581C1.27895 17.7391 1.31416 17.8155 1.36331 17.8828C1.41246 17.95 1.47456 18.0068 1.54596 18.0497C1.61735 18.0926 1.69661 18.1208 1.77906 18.1327C1.86151 18.1445 1.9455 18.1397 2.02609 18.1187C2.10668 18.0976 2.18224 18.0606 2.24833 18.0099C2.31442 17.9592 2.36971 17.8958 2.41095 17.8234C2.42267 17.8031 3.29142 16.3555 4.34064 14.3766H18.125C18.2908 14.3766 18.4497 14.3107 18.567 14.1935C18.6842 14.0763 18.75 13.9173 18.75 13.7516C18.75 13.5858 18.6842 13.4268 18.567 13.3096C18.4497 13.1924 18.2908 13.1266 18.125 13.1266V13.125ZM15 9.375V9.35859C15.0005 9.36405 15.0005 9.36954 15 9.375Z" fill="#191F2E"/>
</svg>
