<svg width="20" height="20" viewBox="0 0 20 20" fill="none" xmlns="http://www.w3.org/2000/svg">
<path d="M16.6922 6.43281L12.3172 2.05781C12.2591 1.99979 12.1902 1.95378 12.1143 1.92241C12.0384 1.89105 11.9571 1.87494 11.875 1.875H4.375C4.04348 1.875 3.72554 2.0067 3.49112 2.24112C3.2567 2.47554 3.125 2.79348 3.125 3.125V16.875C3.125 17.2065 3.2567 17.5245 3.49112 17.7589C3.72554 17.9933 4.04348 18.125 4.375 18.125H15.625C15.9565 18.125 16.2745 17.9933 16.5089 17.7589C16.7433 17.5245 16.875 17.2065 16.875 16.875V6.875C16.8751 6.7929 16.859 6.71159 16.8276 6.63572C16.7962 6.55985 16.7502 6.4909 16.6922 6.43281ZM15.625 16.875H4.375V3.125H11.6164L15.625 7.13359V16.875ZM14.375 9.375V15C14.375 15.1658 14.3092 15.3247 14.1919 15.4419C14.0747 15.5592 13.9158 15.625 13.75 15.625H12.1875C12.1046 15.625 12.0251 15.5921 11.9665 15.5335C11.9079 15.4749 11.875 15.3954 11.875 15.3125V11.875C11.8752 11.7893 11.8578 11.7045 11.8238 11.6259C11.7898 11.5472 11.74 11.4764 11.6776 11.4177C11.6151 11.3591 11.5412 11.314 11.4605 11.2851C11.3798 11.2563 11.2941 11.2443 11.2086 11.25C11.0479 11.2638 10.8983 11.338 10.7901 11.4575C10.6818 11.5771 10.6228 11.7332 10.625 11.8945V15.3125C10.625 15.3954 10.5921 15.4749 10.5335 15.5335C10.4749 15.5921 10.3954 15.625 10.3125 15.625H9.6875C9.60462 15.625 9.52513 15.5921 9.46653 15.5335C9.40792 15.4749 9.375 15.3954 9.375 15.3125V11.875C9.37519 11.7893 9.35776 11.7045 9.32379 11.6259C9.28983 11.5472 9.24005 11.4764 9.17755 11.4177C9.11506 11.3591 9.04118 11.314 8.96051 11.2851C8.87983 11.2563 8.79409 11.2443 8.70859 11.25C8.54788 11.2638 8.39835 11.338 8.29008 11.4575C8.18181 11.5771 8.12283 11.7332 8.125 11.8945V15.3125C8.125 15.3954 8.09208 15.4749 8.03347 15.5335C7.97487 15.5921 7.89538 15.625 7.8125 15.625H6.25C6.08424 15.625 5.92527 15.5592 5.80806 15.4419C5.69085 15.3247 5.625 15.1658 5.625 15V9.375C5.625 9.20924 5.69085 9.05027 5.80806 8.93306C5.92527 8.81585 6.08424 8.75 6.25 8.75H13.75C13.9158 8.75 14.0747 8.81585 14.1919 8.93306C14.3092 9.05027 14.375 9.20924 14.375 9.375Z" fill="#191F2E"/>
</svg>
