<svg width="20" height="20" viewBox="0 0 20 20" fill="none" xmlns="http://www.w3.org/2000/svg">
<path d="M16.6922 6.43281L12.3172 2.05781C12.2591 1.99979 12.1902 1.95378 12.1143 1.92241C12.0384 1.89105 11.9571 1.87494 11.875 1.875H4.375C4.04348 1.875 3.72554 2.0067 3.49112 2.24112C3.2567 2.47554 3.125 2.79348 3.125 3.125V16.875C3.125 17.2065 3.2567 17.5245 3.49112 17.7589C3.72554 17.9933 4.04348 18.125 4.375 18.125H15.625C15.9565 18.125 16.2745 17.9933 16.5089 17.7589C16.7433 17.5245 16.875 17.2065 16.875 16.875V6.875C16.8751 6.7929 16.859 6.71159 16.8276 6.63572C16.7962 6.55985 16.7502 6.4909 16.6922 6.43281ZM15.625 16.875H4.375V3.125H11.6164L15.625 7.13359V16.875ZM13.75 8.75H6.25C6.08424 8.75 5.92527 8.81585 5.80806 8.93306C5.69085 9.05027 5.625 9.20924 5.625 9.375V15C5.625 15.1658 5.69085 15.3247 5.80806 15.4419C5.92527 15.5592 6.08424 15.625 6.25 15.625H13.75C13.9158 15.625 14.0747 15.5592 14.1919 15.4419C14.3092 15.3247 14.375 15.1658 14.375 15V9.375C14.375 9.20924 14.3092 9.05027 14.1919 8.93306C14.0747 8.81585 13.9158 8.75 13.75 8.75ZM13.125 14.375H11.875V11.875C11.875 11.7092 11.8092 11.5503 11.6919 11.4331C11.5747 11.3158 11.4158 11.25 11.25 11.25C11.0842 11.25 10.9253 11.3158 10.8081 11.4331C10.6908 11.5503 10.625 11.7092 10.625 11.875V14.375H9.375V11.875C9.375 11.7092 9.30915 11.5503 9.19194 11.4331C9.07473 11.3158 8.91576 11.25 8.75 11.25C8.58424 11.25 8.42527 11.3158 8.30806 11.4331C8.19085 11.5503 8.125 11.7092 8.125 11.875V14.375H6.875V10H13.125V14.375Z" fill="#191F2E"/>
</svg>
