<svg width="20" height="20" viewBox="0 0 20 20" fill="none" xmlns="http://www.w3.org/2000/svg">
<path d="M9.0625 1.5625V0.9375C9.0625 0.68886 9.16127 0.450403 9.33709 0.274587C9.5129 0.098772 9.75136 0 10 0C10.2486 0 10.4871 0.098772 10.6629 0.274587C10.8387 0.450403 10.9375 0.68886 10.9375 0.9375V1.5625C10.9375 1.81114 10.8387 2.0496 10.6629 2.22541C10.4871 2.40123 10.2486 2.5 10 2.5C9.75136 2.5 9.5129 2.40123 9.33709 2.22541C9.16127 2.0496 9.0625 1.81114 9.0625 1.5625ZM15.625 4.375C15.7482 4.3751 15.8701 4.35093 15.9839 4.30388C16.0977 4.25683 16.2012 4.18781 16.2883 4.10078L16.9133 3.47578C17.0005 3.38858 17.0697 3.28505 17.1169 3.17111C17.1641 3.05717 17.1883 2.93505 17.1883 2.81172C17.1883 2.68839 17.1641 2.56627 17.1169 2.45233C17.0697 2.33839 17.0005 2.23486 16.9133 2.14766C16.8261 2.06045 16.7225 1.99127 16.6086 1.94408C16.4947 1.89688 16.3725 1.87259 16.2492 1.87259C16.1259 1.87259 16.0038 1.89688 15.8898 1.94408C15.7759 1.99127 15.6724 2.06045 15.5852 2.14766L14.9602 2.77266C14.8283 2.90378 14.7383 3.07117 14.7019 3.25354C14.6654 3.43591 14.6839 3.62501 14.7552 3.7968C14.8265 3.96858 14.9472 4.11528 15.1021 4.21824C15.257 4.3212 15.439 4.37577 15.625 4.375ZM3.71172 4.10078C3.88784 4.2769 4.12671 4.37584 4.37578 4.37584C4.62485 4.37584 4.86372 4.2769 5.03984 4.10078C5.21596 3.92466 5.31491 3.68579 5.31491 3.43672C5.31491 3.18765 5.21596 2.94878 5.03984 2.77266L4.41484 2.14766C4.23872 1.97154 3.99985 1.87259 3.75078 1.87259C3.50171 1.87259 3.26284 1.97154 3.08672 2.14766C2.9106 2.32378 2.81166 2.56265 2.81166 2.81172C2.81166 3.06079 2.9106 3.29966 3.08672 3.47578L3.71172 4.10078ZM18.4375 13.75V15.625C18.4375 16.0394 18.2729 16.4368 17.9799 16.7299C17.6868 17.0229 17.2894 17.1875 16.875 17.1875H3.125C2.7106 17.1875 2.31317 17.0229 2.02015 16.7299C1.72712 16.4368 1.5625 16.0394 1.5625 15.625V13.75C1.56243 13.3898 1.68681 13.0406 1.91459 12.7616C2.14238 12.4826 2.45957 12.2908 2.8125 12.2188V10.9375C2.8125 9.03126 3.56975 7.20309 4.91767 5.85517C6.26559 4.50725 8.09376 3.75 10 3.75H10.0555C13.9844 3.77969 17.1875 7.03906 17.1875 11.0156V12.2188C17.5404 12.2908 17.8576 12.4826 18.0854 12.7616C18.3132 13.0406 18.4376 13.3898 18.4375 13.75ZM4.6875 10.9375V12.1875H15.3125V11.0156C15.3125 8.06484 12.9477 5.64687 10.0406 5.625H10C8.59104 5.625 7.23978 6.18471 6.2435 7.181C5.24721 8.17728 4.6875 9.52854 4.6875 10.9375ZM16.5625 14.0625H3.4375V15.3125H16.5625V14.0625ZM10.6562 8.85C10.9925 8.95563 11.2982 9.14093 11.5474 9.39013C11.7966 9.63932 11.9819 9.94504 12.0875 10.2812C12.1621 10.5185 12.3279 10.7164 12.5484 10.8314C12.7689 10.9464 13.026 10.9691 13.2633 10.8945C13.5005 10.8199 13.6984 10.6542 13.8134 10.4337C13.9284 10.2132 13.9512 9.95599 13.8766 9.71875C13.6803 9.09488 13.3363 8.52762 12.8739 8.06517C12.4114 7.60272 11.8442 7.25875 11.2203 7.0625C10.9831 6.98791 10.7259 7.01062 10.5054 7.12563C10.2849 7.24064 10.1191 7.43854 10.0445 7.67578C9.96994 7.91303 9.99265 8.17019 10.1077 8.39069C10.2227 8.61119 10.4206 8.77697 10.6578 8.85156L10.6562 8.85Z" fill="#191F2E"/>
</svg>
