<svg width="20" height="20" viewBox="0 0 20 20" fill="none" xmlns="http://www.w3.org/2000/svg">
<path d="M19.4531 7.50781L15.0781 2.50781C14.9904 2.40753 14.8824 2.32709 14.7611 2.27185C14.6399 2.21662 14.5083 2.18786 14.375 2.1875H5.62503C5.4918 2.18786 5.36017 2.21662 5.23893 2.27185C5.11769 2.32709 5.00961 2.40753 4.9219 2.50781L0.5469 7.50781C0.393966 7.68263 0.311372 7.908 0.315125 8.14024C0.318878 8.37248 0.40871 8.59506 0.567213 8.76484L9.31721 18.1398C9.40492 18.2338 9.511 18.3086 9.62887 18.3598C9.74673 18.411 9.87387 18.4374 10.0024 18.4374C10.1309 18.4374 10.258 18.411 10.3759 18.3598C10.4937 18.3086 10.5998 18.2338 10.6875 18.1398L19.4375 8.76484C19.5954 8.59447 19.6844 8.37157 19.6873 8.13933C19.6901 7.9071 19.6067 7.68205 19.4531 7.50781ZM16.6836 7.1875H14.2188L11.875 4.0625H13.9492L16.6836 7.1875ZM5.61565 9.0625L7.27112 13.2031L3.40706 9.0625H5.61565ZM12.3657 9.0625L10 14.9758L7.6344 9.0625H12.3657ZM8.12503 7.1875L10 4.6875L11.875 7.1875H8.12503ZM14.3844 9.0625H16.593L12.7289 13.2031L14.3844 9.0625ZM6.05081 4.0625H8.12503L5.78128 7.1875H3.31643L6.05081 4.0625Z" fill="#191F2E"/>
</svg>
