<svg width="20" height="20" viewBox="0 0 20 20" fill="none" xmlns="http://www.w3.org/2000/svg">
<path d="M19.2187 7.71328L14.8437 2.71328C14.7852 2.64647 14.7132 2.59289 14.6324 2.55612C14.5515 2.51934 14.4638 2.50021 14.375 2.5H5.625C5.5362 2.50021 5.44846 2.51934 5.36763 2.55612C5.28681 2.59289 5.21474 2.64647 5.15625 2.71328L0.781246 7.71328C0.679182 7.82981 0.624028 7.98009 0.626482 8.13498C0.628936 8.28987 0.688822 8.43832 0.794527 8.55156L9.54453 17.9266C9.60301 17.9893 9.67376 18.0392 9.75238 18.0734C9.83101 18.1076 9.91583 18.1252 10.0016 18.1252C10.0873 18.1252 10.1721 18.1076 10.2507 18.0734C10.3294 18.0392 10.4001 17.9893 10.4586 17.9266L19.2086 8.55156C19.3139 8.43793 19.3732 8.28926 19.3751 8.13438C19.3769 7.97949 19.3212 7.82943 19.2187 7.71328ZM17.3727 7.5H14.0625L11.25 3.75H14.0914L17.3727 7.5ZM5.82656 8.75L8.18046 14.6352L2.68828 8.75H5.82656ZM14.1734 8.75H17.3117L11.8195 14.6352L14.1734 8.75ZM5.90859 3.75H8.75L5.9375 7.5H2.62734L5.90859 3.75Z" fill="#191F2E"/>
</svg>
