<svg width="20" height="20" viewBox="0 0 20 20" fill="none" xmlns="http://www.w3.org/2000/svg">
<path d="M15.6102 2.65625C15.4149 2.54807 15.1943 2.49413 14.9712 2.50004C14.7481 2.50595 14.5306 2.57149 14.3414 2.68984L5 8.53359V3.125C5 2.95924 4.93415 2.80027 4.81694 2.68306C4.69973 2.56585 4.54076 2.5 4.375 2.5C4.20924 2.5 4.05027 2.56585 3.93306 2.68306C3.81585 2.80027 3.75 2.95924 3.75 3.125V16.875C3.75 17.0408 3.81585 17.1997 3.93306 17.3169C4.05027 17.4342 4.20924 17.5 4.375 17.5C4.54076 17.5 4.69973 17.4342 4.81694 17.3169C4.93415 17.1997 5 17.0408 5 16.875V11.4664L14.3414 17.3086C14.5295 17.4267 14.7458 17.4924 14.9678 17.4988C15.1899 17.5052 15.4096 17.4522 15.6042 17.3452C15.7989 17.2382 15.9614 17.0811 16.0749 16.8902C16.1885 16.6993 16.2489 16.4815 16.25 16.2594V3.74063C16.25 3.51919 16.1906 3.30182 16.0781 3.11111C15.9655 2.9204 15.804 2.76334 15.6102 2.65625ZM15 16.25L5.0125 10L15 3.75547V16.25Z" fill="#191F2E"/>
</svg>
