<svg width="20" height="20" viewBox="0 0 20 20" fill="none" xmlns="http://www.w3.org/2000/svg">
<path d="M15.625 2.1875C15.3764 2.1875 15.1379 2.28627 14.9621 2.46209C14.7863 2.6379 14.6875 2.87636 14.6875 3.125V7.96875L5.82422 2.42188C5.58822 2.27534 5.31743 2.19436 5.03973 2.1873C4.76202 2.18023 4.48746 2.24732 4.24432 2.38167C4.00117 2.51602 3.79824 2.71275 3.65643 2.95162C3.51461 3.19048 3.43904 3.46284 3.4375 3.74063V16.2594C3.43904 16.5372 3.51461 16.8095 3.65643 17.0484C3.79824 17.2872 4.00117 17.484 4.24432 17.6183C4.48746 17.7527 4.76202 17.8198 5.03973 17.8127C5.31743 17.8056 5.58822 17.7247 5.82422 17.5781L14.6875 12.0313V16.875C14.6875 17.1236 14.7863 17.3621 14.9621 17.5379C15.1379 17.7137 15.3764 17.8125 15.625 17.8125C15.8736 17.8125 16.1121 17.7137 16.2879 17.5379C16.4637 17.3621 16.5625 17.1236 16.5625 16.875V3.125C16.5625 2.87636 16.4637 2.6379 16.2879 2.46209C16.1121 2.28627 15.8736 2.1875 15.625 2.1875ZM5.3125 15.682V4.31797L14.3984 10L5.3125 15.682Z" fill="#191F2E"/>
</svg>
