<svg width="20" height="20" viewBox="0 0 20 20" fill="none" xmlns="http://www.w3.org/2000/svg">
<path d="M10 1.875C8.39303 1.875 6.82214 2.35152 5.486 3.24431C4.14985 4.1371 3.10844 5.40605 2.49348 6.8907C1.87852 8.37535 1.71762 10.009 2.03112 11.5851C2.34463 13.1612 3.11846 14.6089 4.25476 15.7452C5.39106 16.8815 6.8388 17.6554 8.4149 17.9689C9.99099 18.2824 11.6247 18.1215 13.1093 17.5065C14.594 16.8916 15.8629 15.8502 16.7557 14.514C17.6485 13.1779 18.125 11.607 18.125 10C18.1227 7.84581 17.266 5.78051 15.7427 4.25727C14.2195 2.73403 12.1542 1.87727 10 1.875ZM13.125 13.125C13.125 13.2908 13.0592 13.4497 12.9419 13.5669C12.8247 13.6842 12.6658 13.75 12.5 13.75C12.3342 13.75 12.1753 13.6842 12.0581 13.5669C11.9409 13.4497 11.875 13.2908 11.875 13.125V10.768L7.86329 13.6336C7.76984 13.7003 7.65981 13.7401 7.54527 13.7484C7.43074 13.7567 7.31612 13.7333 7.21401 13.6807C7.1119 13.6282 7.02624 13.5485 6.96644 13.4505C6.90664 13.3525 6.875 13.2398 6.875 13.125V6.875C6.875 6.76016 6.90664 6.64754 6.96644 6.54951C7.02624 6.45147 7.1119 6.3718 7.21401 6.31926C7.31612 6.26671 7.43074 6.24331 7.54527 6.25163C7.65981 6.25994 7.76984 6.29966 7.86329 6.36641L11.875 9.23203V6.875C11.875 6.70924 11.9409 6.55027 12.0581 6.43306C12.1753 6.31585 12.3342 6.25 12.5 6.25C12.6658 6.25 12.8247 6.31585 12.9419 6.43306C13.0592 6.55027 13.125 6.70924 13.125 6.875V13.125Z" fill="#191F2E"/>
</svg>
