<svg width="20" height="20" viewBox="0 0 20 20" fill="none" xmlns="http://www.w3.org/2000/svg">
<path d="M16.25 3.74063V16.2594C16.2477 16.481 16.1865 16.698 16.0726 16.8882C15.9588 17.0783 15.7965 17.2348 15.6022 17.3416C15.408 17.4484 15.1889 17.5016 14.9674 17.4958C14.7458 17.49 14.5298 17.4254 14.3414 17.3086L5 11.4664V16.875C5 17.0408 4.93415 17.1997 4.81694 17.3169C4.69973 17.4342 4.54076 17.5 4.375 17.5C4.20924 17.5 4.05027 17.4342 3.93306 17.3169C3.81585 17.1997 3.75 17.0408 3.75 16.875V3.125C3.75 2.95924 3.81585 2.80027 3.93306 2.68306C4.05027 2.56585 4.20924 2.5 4.375 2.5C4.54076 2.5 4.69973 2.56585 4.81694 2.68306C4.93415 2.80027 5 2.95924 5 3.125V8.53359L14.3414 2.69141C14.5295 2.57331 14.7458 2.50765 14.9678 2.50121C15.1899 2.49478 15.4096 2.54781 15.6042 2.65481C15.7989 2.76182 15.9614 2.91891 16.0749 3.10981C16.1885 3.30072 16.2489 3.51851 16.25 3.74063Z" fill="#191F2E"/>
</svg>
