<svg width="20" height="20" viewBox="0 0 20 20" fill="none" xmlns="http://www.w3.org/2000/svg">
<path d="M10 1.875C8.39303 1.875 6.82214 2.35152 5.486 3.24431C4.14985 4.1371 3.10844 5.40605 2.49348 6.8907C1.87852 8.37535 1.71762 10.009 2.03112 11.5851C2.34463 13.1612 3.11846 14.6089 4.25476 15.7452C5.39106 16.8815 6.8388 17.6554 8.4149 17.9689C9.99099 18.2824 11.6247 18.1215 13.1093 17.5065C14.594 16.8916 15.8629 15.8502 16.7557 14.514C17.6485 13.1779 18.125 11.607 18.125 10C18.1227 7.84581 17.266 5.78051 15.7427 4.25727C14.2195 2.73403 12.1542 1.87727 10 1.875ZM10 16.875C8.64026 16.875 7.31105 16.4718 6.18046 15.7164C5.04987 14.9609 4.16868 13.8872 3.64833 12.6309C3.12798 11.3747 2.99183 9.99237 3.2571 8.65875C3.52238 7.32513 4.17716 6.10013 5.13864 5.13864C6.10013 4.17716 7.32514 3.52237 8.65876 3.2571C9.99238 2.99183 11.3747 3.12798 12.631 3.64833C13.8872 4.16868 14.9609 5.04987 15.7164 6.18045C16.4718 7.31104 16.875 8.64025 16.875 10C16.8729 11.8227 16.1479 13.5702 14.8591 14.8591C13.5702 16.1479 11.8227 16.8729 10 16.875ZM12.8031 6.32812C12.7055 6.27409 12.5952 6.24719 12.4836 6.25021C12.372 6.25324 12.2633 6.28607 12.1688 6.34531L8.125 8.87266V6.875C8.125 6.70924 8.05916 6.55027 7.94195 6.43306C7.82474 6.31585 7.66576 6.25 7.5 6.25C7.33424 6.25 7.17527 6.31585 7.05806 6.43306C6.94085 6.55027 6.875 6.70924 6.875 6.875V13.125C6.875 13.2908 6.94085 13.4497 7.05806 13.5669C7.17527 13.6842 7.33424 13.75 7.5 13.75C7.66576 13.75 7.82474 13.6842 7.94195 13.5669C8.05916 13.4497 8.125 13.2908 8.125 13.125V11.1273L12.1688 13.6547C12.2633 13.7138 12.372 13.7465 12.4835 13.7495C12.595 13.7524 12.7053 13.7255 12.8028 13.6714C12.9004 13.6174 12.9817 13.5382 13.0384 13.4421C13.095 13.346 13.1249 13.2365 13.125 13.125V6.875C13.1251 6.76341 13.0952 6.65384 13.0386 6.55767C12.982 6.46151 12.9007 6.38225 12.8031 6.32812ZM11.875 11.9977L8.67891 10L11.875 8.00234V11.9977Z" fill="#191F2E"/>
</svg>
