<svg width="20" height="20" viewBox="0 0 20 20" fill="none" xmlns="http://www.w3.org/2000/svg">
<path d="M16.25 3.125V16.875C16.25 17.0408 16.1842 17.1997 16.0669 17.3169C15.9497 17.4342 15.7908 17.5 15.625 17.5C15.4592 17.5 15.3003 17.4342 15.1831 17.3169C15.0658 17.1997 15 17.0408 15 16.875V11.4664L5.65859 17.3086C5.47047 17.4267 5.2542 17.4924 5.03217 17.4988C4.81014 17.5052 4.59043 17.4522 4.39579 17.3452C4.20114 17.2382 4.03863 17.0811 3.92509 16.8902C3.81155 16.6993 3.7511 16.4815 3.75 16.2594V3.74063C3.7511 3.51851 3.81155 3.30072 3.92509 3.10981C4.03863 2.91891 4.20114 2.76182 4.39579 2.65481C4.59043 2.54781 4.81014 2.49478 5.03217 2.50121C5.2542 2.50765 5.47047 2.57331 5.65859 2.69141L15 8.53359V3.125C15 2.95924 15.0658 2.80027 15.1831 2.68306C15.3003 2.56585 15.4592 2.5 15.625 2.5C15.7908 2.5 15.9497 2.56585 16.0669 2.68306C16.1842 2.80027 16.25 2.95924 16.25 3.125Z" fill="#191F2E"/>
</svg>
