<svg width="20" height="20" viewBox="0 0 20 20" fill="none" xmlns="http://www.w3.org/2000/svg">
<path d="M10 1.875C8.39303 1.875 6.82214 2.35152 5.486 3.24431C4.14985 4.1371 3.10844 5.40605 2.49348 6.8907C1.87852 8.37535 1.71762 10.009 2.03112 11.5851C2.34463 13.1612 3.11846 14.6089 4.25476 15.7452C5.39106 16.8815 6.8388 17.6554 8.4149 17.9689C9.99099 18.2824 11.6247 18.1215 13.1093 17.5065C14.594 16.8916 15.8629 15.8502 16.7557 14.514C17.6485 13.1779 18.125 11.607 18.125 10C18.1227 7.84581 17.266 5.78051 15.7427 4.25727C14.2195 2.73403 12.1542 1.87727 10 1.875ZM10 16.875C8.64026 16.875 7.31105 16.4718 6.18046 15.7164C5.04987 14.9609 4.16868 13.8872 3.64833 12.6309C3.12798 11.3747 2.99183 9.99237 3.2571 8.65875C3.52238 7.32513 4.17716 6.10013 5.13864 5.13864C6.10013 4.17716 7.32514 3.52237 8.65876 3.2571C9.99238 2.99183 11.3747 3.12798 12.631 3.64833C13.8872 4.16868 14.9609 5.04987 15.7164 6.18045C16.4718 7.31104 16.875 8.64025 16.875 10C16.8729 11.8227 16.1479 13.5702 14.8591 14.8591C13.5702 16.1479 11.8227 16.8729 10 16.875ZM12.5 6.25C12.3342 6.25 12.1753 6.31585 12.0581 6.43306C11.9409 6.55027 11.875 6.70924 11.875 6.875V8.87266L7.83125 6.34531C7.73667 6.2862 7.62799 6.25347 7.51649 6.25053C7.40499 6.24759 7.29473 6.27454 7.19716 6.32858C7.09959 6.38263 7.01826 6.4618 6.96161 6.55789C6.90496 6.65397 6.87506 6.76346 6.875 6.875V13.125C6.87506 13.2365 6.90496 13.346 6.96161 13.4421C7.01826 13.5382 7.09959 13.6174 7.19716 13.6714C7.29473 13.7255 7.40499 13.7524 7.51649 13.7495C7.62799 13.7465 7.73667 13.7138 7.83125 13.6547L11.875 11.1273V13.125C11.875 13.2908 11.9409 13.4497 12.0581 13.5669C12.1753 13.6842 12.3342 13.75 12.5 13.75C12.6658 13.75 12.8247 13.6842 12.9419 13.5669C13.0592 13.4497 13.125 13.2908 13.125 13.125V6.875C13.125 6.70924 13.0592 6.55027 12.9419 6.43306C12.8247 6.31585 12.6658 6.25 12.5 6.25ZM8.125 11.9977V8.00234L11.3211 10L8.125 11.9977Z" fill="#191F2E"/>
</svg>
