<svg width="20" height="20" viewBox="0 0 20 20" fill="none" xmlns="http://www.w3.org/2000/svg">
<path d="M15.625 2.5C15.4592 2.5 15.3003 2.56585 15.1831 2.68306C15.0658 2.80027 15 2.95924 15 3.125V8.53359L5.65859 2.69141C5.47047 2.57331 5.2542 2.50765 5.03217 2.50121C4.81014 2.49478 4.59043 2.54781 4.39579 2.65481C4.20114 2.76182 4.03863 2.91891 3.92509 3.10981C3.81155 3.30072 3.7511 3.51851 3.75 3.74063V16.2594C3.75233 16.481 3.81355 16.698 3.92737 16.8882C4.0412 17.0783 4.20354 17.2348 4.39776 17.3416C4.59197 17.4484 4.81109 17.5016 5.03264 17.4958C5.2542 17.49 5.47023 17.4254 5.65859 17.3086L15 11.4664V16.875C15 17.0408 15.0658 17.1997 15.1831 17.3169C15.3003 17.4342 15.4592 17.5 15.625 17.5C15.7908 17.5 15.9497 17.4342 16.0669 17.3169C16.1842 17.1997 16.25 17.0408 16.25 16.875V3.125C16.25 2.95924 16.1842 2.80027 16.0669 2.68306C15.9497 2.56585 15.7908 2.5 15.625 2.5ZM5 16.2445V3.75391L14.9875 10.0039L5 16.2445Z" fill="#191F2E"/>
</svg>
