<svg width="20" height="20" viewBox="0 0 20 20" fill="none" xmlns="http://www.w3.org/2000/svg">
<path d="M9.0625 10.3125C9.0625 10.6833 8.95253 11.0459 8.74651 11.3542C8.54048 11.6625 8.24764 11.9029 7.90503 12.0448C7.56242 12.1867 7.18542 12.2238 6.82171 12.1515C6.45799 12.0791 6.1239 11.9005 5.86167 11.6383C5.59945 11.3761 5.42087 11.042 5.34853 10.6783C5.27618 10.3146 5.31331 9.93758 5.45523 9.59497C5.59714 9.25236 5.83746 8.95952 6.14581 8.75349C6.45415 8.54747 6.81666 8.4375 7.1875 8.4375C7.68478 8.4375 8.16169 8.63504 8.51333 8.98667C8.86496 9.33831 9.0625 9.81522 9.0625 10.3125ZM12.8125 8.4375C12.4417 8.4375 12.0791 8.54747 11.7708 8.75349C11.4625 8.95952 11.2221 9.25236 11.0802 9.59497C10.9383 9.93758 10.9012 10.3146 10.9735 10.6783C11.0459 11.042 11.2245 11.3761 11.4867 11.6383C11.7489 11.9005 12.083 12.0791 12.4467 12.1515C12.8104 12.2238 13.1874 12.1867 13.53 12.0448C13.8726 11.9029 14.1655 11.6625 14.3715 11.3542C14.5775 11.0459 14.6875 10.6833 14.6875 10.3125C14.6875 9.81522 14.49 9.33831 14.1383 8.98667C13.7867 8.63504 13.3098 8.4375 12.8125 8.4375ZM18.4375 9.0625C18.4375 11.3945 17.418 13.5766 15.625 15.1188V16.875C15.625 17.2894 15.4604 17.6868 15.1674 17.9799C14.8743 18.2729 14.4769 18.4375 14.0625 18.4375H5.9375C5.5231 18.4375 5.12567 18.2729 4.83265 17.9799C4.53962 17.6868 4.375 17.2894 4.375 16.875V15.1188C2.57812 13.5766 1.5625 11.3945 1.5625 9.0625C1.5625 4.58203 5.34766 0.9375 10 0.9375C14.6523 0.9375 18.4375 4.58203 18.4375 9.0625ZM16.5625 9.0625C16.5625 5.61641 13.6187 2.8125 10 2.8125C6.38125 2.8125 3.4375 5.61641 3.4375 9.0625C3.4375 10.9617 4.32891 12.7344 5.88359 13.9297C5.99761 14.0173 6.08995 14.1299 6.15348 14.2589C6.21702 14.3878 6.25004 14.5297 6.25 14.6734V16.5625H7.5V15C7.5 14.7514 7.59877 14.5129 7.77459 14.3371C7.9504 14.1613 8.18886 14.0625 8.4375 14.0625C8.68614 14.0625 8.9246 14.1613 9.10041 14.3371C9.27623 14.5129 9.375 14.7514 9.375 15V16.5625H10.625V15C10.625 14.7514 10.7238 14.5129 10.8996 14.3371C11.0754 14.1613 11.3139 14.0625 11.5625 14.0625C11.8111 14.0625 12.0496 14.1613 12.2254 14.3371C12.4012 14.5129 12.5 14.7514 12.5 15V16.5625H13.75V14.6734C13.7501 14.5298 13.7832 14.3881 13.8467 14.2593C13.9102 14.1305 14.0025 14.018 14.1164 13.9305C15.6711 12.7344 16.5625 10.9617 16.5625 9.0625Z" fill="#191F2E"/>
</svg>
