<svg width="20" height="20" viewBox="0 0 20 20" fill="none" xmlns="http://www.w3.org/2000/svg">
<path d="M10 1.25C5.51953 1.25 1.875 4.75469 1.875 9.0625C1.875 11.7266 3.30234 14.2188 5.625 15.6469V16.875C5.625 17.2065 5.7567 17.5245 5.99112 17.7589C6.22554 17.9933 6.54348 18.125 6.875 18.125H7.5C7.58288 18.125 7.66237 18.0921 7.72097 18.0335C7.77958 17.9749 7.8125 17.8954 7.8125 17.8125V15.6461C7.81033 15.4848 7.86931 15.3287 7.97758 15.2091C8.08585 15.0895 8.23538 15.0154 8.39609 15.0016C8.48159 14.9959 8.56733 15.0078 8.64801 15.0367C8.72868 15.0656 8.80256 15.1107 8.86505 15.1693C8.92755 15.2279 8.97733 15.2988 9.01129 15.3774C9.04526 15.4561 9.06269 15.5409 9.0625 15.6266V17.8141C9.0625 17.8969 9.09542 17.9764 9.15403 18.035C9.21263 18.0936 9.29212 18.1266 9.375 18.1266H10.625C10.7079 18.1266 10.7874 18.0936 10.846 18.035C10.9046 17.9764 10.9375 17.8969 10.9375 17.8141V15.6461C10.9353 15.4848 10.9943 15.3287 11.1026 15.2091C11.2108 15.0895 11.3604 15.0154 11.5211 15.0016C11.6066 14.9959 11.6923 15.0078 11.773 15.0367C11.8537 15.0656 11.9276 15.1107 11.9901 15.1693C12.0525 15.2279 12.1023 15.2988 12.1363 15.3774C12.1703 15.4561 12.1877 15.5409 12.1875 15.6266V17.8141C12.1875 17.8969 12.2204 17.9764 12.279 18.035C12.3376 18.0936 12.4171 18.1266 12.5 18.1266H13.125C13.4565 18.1266 13.7745 17.9949 14.0089 17.7604C14.2433 17.526 14.375 17.2081 14.375 16.8766V15.6469C16.6977 14.2188 18.125 11.7266 18.125 9.0625C18.125 4.75469 14.4805 1.25 10 1.25ZM7.1875 11.875C6.87847 11.875 6.57637 11.7834 6.31942 11.6117C6.06247 11.44 5.8622 11.196 5.74394 10.9104C5.62568 10.6249 5.59473 10.3108 5.65502 10.0077C5.71531 9.70458 5.86413 9.42617 6.08265 9.20765C6.30117 8.98913 6.57958 8.84031 6.88267 8.78002C7.18577 8.71973 7.49993 8.75068 7.78544 8.86894C8.07095 8.9872 8.31498 9.18747 8.48667 9.44442C8.65836 9.70137 8.75 10.0035 8.75 10.3125C8.75 10.7269 8.58538 11.1243 8.29235 11.4174C7.99933 11.7104 7.6019 11.875 7.1875 11.875ZM12.8125 11.875C12.5035 11.875 12.2014 11.7834 11.9444 11.6117C11.6875 11.44 11.4872 11.196 11.3689 10.9104C11.2507 10.6249 11.2197 10.3108 11.28 10.0077C11.3403 9.70458 11.4891 9.42617 11.7076 9.20765C11.9262 8.98913 12.2046 8.84031 12.5077 8.78002C12.8108 8.71973 13.1249 8.75068 13.4104 8.86894C13.696 8.9872 13.94 9.18747 14.1117 9.44442C14.2834 9.70137 14.375 10.0035 14.375 10.3125C14.375 10.7269 14.2104 11.1243 13.9174 11.4174C13.6243 11.7104 13.2269 11.875 12.8125 11.875Z" fill="#191F2E"/>
</svg>
