<svg width="20" height="20" viewBox="0 0 20 20" fill="none" xmlns="http://www.w3.org/2000/svg">
<path d="M18.4375 8.125C18.4375 7.67506 18.3295 7.2317 18.1227 6.83212C17.9158 6.43255 17.6161 6.08843 17.2488 5.82867C16.8814 5.5689 16.4571 5.40107 16.0114 5.33926C15.5657 5.27744 15.1117 5.32346 14.6875 5.47344V4.375C14.687 3.83229 14.5295 3.30131 14.234 2.84611C13.9385 2.39091 13.5176 2.03093 13.022 1.80959C12.5265 1.58826 11.9775 1.51502 11.4413 1.59871C10.9051 1.6824 10.4045 1.91944 10 2.28125C9.53462 1.86558 8.94421 1.61647 8.32171 1.57315C7.69922 1.52983 7.08 1.69475 6.56152 2.04195C6.04304 2.38916 5.65475 2.89893 5.45777 3.49102C5.26078 4.0831 5.2663 4.72389 5.47344 5.3125H4.375C3.83229 5.313 3.30131 5.4705 2.84611 5.76602C2.39091 6.06154 2.03093 6.48244 1.80959 6.97797C1.58826 7.4735 1.51502 8.02249 1.59871 8.55871C1.6824 9.09493 1.91944 9.59549 2.28125 10C1.86558 10.4654 1.61647 11.0558 1.57315 11.6783C1.52983 12.3008 1.69475 12.92 2.04195 13.4385C2.38916 13.957 2.89893 14.3453 3.49102 14.5422C4.0831 14.7392 4.72389 14.7337 5.3125 14.5266V15.625C5.313 16.1677 5.4705 16.6987 5.76602 17.1539C6.06154 17.6091 6.48244 17.9691 6.97797 18.1904C7.4735 18.4117 8.02249 18.485 8.55871 18.4013C9.09493 18.3176 9.59549 18.0806 10 17.7188C10.4654 18.1344 11.0558 18.3835 11.6783 18.4269C12.3008 18.4702 12.92 18.3053 13.4385 17.9581C13.957 17.6108 14.3453 17.1011 14.5422 16.509C14.7392 15.9169 14.7337 15.2761 14.5266 14.6875H15.625C16.1677 14.687 16.6987 14.5295 17.1539 14.234C17.6091 13.9385 17.9691 13.5176 18.1904 13.022C18.4117 12.5265 18.485 11.9775 18.4013 11.4413C18.3176 10.9051 18.0806 10.4045 17.7188 10C18.182 9.48544 18.4381 8.8174 18.4375 8.125ZM15.625 7.1875C15.8736 7.1875 16.1121 7.28627 16.2879 7.46209C16.4637 7.63791 16.5625 7.87636 16.5625 8.125C16.5625 8.37364 16.4637 8.6121 16.2879 8.78792C16.1121 8.96373 15.8736 9.0625 15.625 9.0625H14.6875V8.125C14.6875 7.87636 14.7863 7.63791 14.9621 7.46209C15.1379 7.28627 15.3764 7.1875 15.625 7.1875ZM11.875 3.4375C12.1236 3.4375 12.3621 3.53627 12.5379 3.71209C12.7137 3.88791 12.8125 4.12636 12.8125 4.375V8.125C12.8125 8.37364 12.7137 8.6121 12.5379 8.78792C12.3621 8.96373 12.1236 9.0625 11.875 9.0625H10.9375V4.375C10.9375 4.12636 11.0363 3.88791 11.2121 3.71209C11.3879 3.53627 11.6264 3.4375 11.875 3.4375ZM7.1875 4.375C7.1875 4.12636 7.28627 3.88791 7.46209 3.71209C7.63791 3.53627 7.87636 3.4375 8.125 3.4375C8.37364 3.4375 8.6121 3.53627 8.78792 3.71209C8.96373 3.88791 9.0625 4.12636 9.0625 4.375V5.3125H8.125C7.87636 5.3125 7.63791 5.21373 7.46209 5.03791C7.28627 4.8621 7.1875 4.62364 7.1875 4.375ZM4.375 7.1875H8.125C8.37364 7.1875 8.6121 7.28627 8.78792 7.46209C8.96373 7.63791 9.0625 7.87636 9.0625 8.125V9.0625H4.375C4.12636 9.0625 3.88791 8.96373 3.71209 8.78792C3.53627 8.6121 3.4375 8.37364 3.4375 8.125C3.4375 7.87636 3.53627 7.63791 3.71209 7.46209C3.88791 7.28627 4.12636 7.1875 4.375 7.1875ZM4.375 12.8125C4.12636 12.8125 3.88791 12.7137 3.71209 12.5379C3.53627 12.3621 3.4375 12.1236 3.4375 11.875C3.4375 11.6264 3.53627 11.3879 3.71209 11.2121C3.88791 11.0363 4.12636 10.9375 4.375 10.9375H5.3125V11.875C5.3125 12.1236 5.21373 12.3621 5.03791 12.5379C4.8621 12.7137 4.62364 12.8125 4.375 12.8125ZM8.125 16.5625C7.87636 16.5625 7.63791 16.4637 7.46209 16.2879C7.28627 16.1121 7.1875 15.8736 7.1875 15.625V11.875C7.1875 11.6264 7.28627 11.3879 7.46209 11.2121C7.63791 11.0363 7.87636 10.9375 8.125 10.9375H9.0625V15.625C9.0625 15.8736 8.96373 16.1121 8.78792 16.2879C8.6121 16.4637 8.37364 16.5625 8.125 16.5625ZM12.8125 15.625C12.8125 15.8736 12.7137 16.1121 12.5379 16.2879C12.3621 16.4637 12.1236 16.5625 11.875 16.5625C11.6264 16.5625 11.3879 16.4637 11.2121 16.2879C11.0363 16.1121 10.9375 15.8736 10.9375 15.625V14.6875H11.875C12.1236 14.6875 12.3621 14.7863 12.5379 14.9621C12.7137 15.1379 12.8125 15.3764 12.8125 15.625ZM15.625 12.8125H11.875C11.6264 12.8125 11.3879 12.7137 11.2121 12.5379C11.0363 12.3621 10.9375 12.1236 10.9375 11.875V10.9375H15.625C15.8736 10.9375 16.1121 11.0363 16.2879 11.2121C16.4637 11.3879 16.5625 11.6264 16.5625 11.875C16.5625 12.1236 16.4637 12.3621 16.2879 12.5379C16.1121 12.7137 15.8736 12.8125 15.625 12.8125Z" fill="#191F2E"/>
</svg>
