<svg width="20" height="20" viewBox="0 0 20 20" fill="none" xmlns="http://www.w3.org/2000/svg">
<path d="M15 3.75H5C4.66848 3.75 4.35054 3.8817 4.11612 4.11612C3.8817 4.35054 3.75 4.66848 3.75 5V15C3.75 15.3315 3.8817 15.6495 4.11612 15.8839C4.35054 16.1183 4.66848 16.25 5 16.25H15C15.3315 16.25 15.6495 16.1183 15.8839 15.8839C16.1183 15.6495 16.25 15.3315 16.25 15V5C16.25 4.66848 16.1183 4.35054 15.8839 4.11612C15.6495 3.8817 15.3315 3.75 15 3.75ZM15 15H5V5H15V15ZM18.75 4.375V15.625C18.75 15.7908 18.6842 15.9497 18.5669 16.0669C18.4497 16.1842 18.2908 16.25 18.125 16.25C17.9592 16.25 17.8003 16.1842 17.6831 16.0669C17.5658 15.9497 17.5 15.7908 17.5 15.625V4.375C17.5 4.20924 17.5658 4.05027 17.6831 3.93306C17.8003 3.81585 17.9592 3.75 18.125 3.75C18.2908 3.75 18.4497 3.81585 18.5669 3.93306C18.6842 4.05027 18.75 4.20924 18.75 4.375ZM2.5 4.375V15.625C2.5 15.7908 2.43415 15.9497 2.31694 16.0669C2.19973 16.1842 2.04076 16.25 1.875 16.25C1.70924 16.25 1.55027 16.1842 1.43306 16.0669C1.31585 15.9497 1.25 15.7908 1.25 15.625V4.375C1.25 4.20924 1.31585 4.05027 1.43306 3.93306C1.55027 3.81585 1.70924 3.75 1.875 3.75C2.04076 3.75 2.19973 3.81585 2.31694 3.93306C2.43415 4.05027 2.5 4.20924 2.5 4.375Z" fill="#191F2E"/>
</svg>
