<svg width="20" height="20" viewBox="0 0 20 20" fill="none" xmlns="http://www.w3.org/2000/svg">
<path d="M5.3125 7.97344V3.125C5.3125 2.87636 5.21372 2.6379 5.03791 2.46209C4.86209 2.28627 4.62364 2.1875 4.375 2.1875C4.12636 2.1875 3.8879 2.28627 3.71208 2.46209C3.53627 2.6379 3.4375 2.87636 3.4375 3.125V7.97344C2.88921 8.16734 2.41452 8.52645 2.07877 9.00131C1.74303 9.47617 1.56274 10.0434 1.56274 10.625C1.56274 11.2066 1.74303 11.7738 2.07877 12.2487C2.41452 12.7236 2.88921 13.0827 3.4375 13.2766V16.875C3.4375 17.1236 3.53627 17.3621 3.71208 17.5379C3.8879 17.7137 4.12636 17.8125 4.375 17.8125C4.62364 17.8125 4.86209 17.7137 5.03791 17.5379C5.21372 17.3621 5.3125 17.1236 5.3125 16.875V13.2766C5.86078 13.0827 6.33548 12.7236 6.67122 12.2487C7.00696 11.7738 7.18725 11.2066 7.18725 10.625C7.18725 10.0434 7.00696 9.47617 6.67122 9.00131C6.33548 8.52645 5.86078 8.16734 5.3125 7.97344ZM4.375 11.5625C4.18958 11.5625 4.00832 11.5075 3.85415 11.4045C3.69998 11.3015 3.57982 11.1551 3.50886 10.9838C3.4379 10.8125 3.41934 10.624 3.45551 10.4421C3.49168 10.2602 3.58097 10.0932 3.71208 9.96209C3.84319 9.83098 4.01024 9.74169 4.1921 9.70551C4.37396 9.66934 4.56246 9.68791 4.73376 9.75886C4.90507 9.82982 5.05148 9.94998 5.1545 10.1042C5.25751 10.2583 5.3125 10.4396 5.3125 10.625C5.3125 10.8736 5.21372 11.1121 5.03791 11.2879C4.86209 11.4637 4.62364 11.5625 4.375 11.5625ZM12.8125 6.875C12.8117 6.29359 12.631 5.72667 12.2954 5.25196C11.9597 4.77725 11.4854 4.41799 10.9375 4.22344V3.125C10.9375 2.87636 10.8387 2.6379 10.6629 2.46209C10.4871 2.28627 10.2486 2.1875 10 2.1875C9.75136 2.1875 9.5129 2.28627 9.33708 2.46209C9.16127 2.6379 9.0625 2.87636 9.0625 3.125V4.22344C8.51421 4.41734 8.03952 4.77645 7.70377 5.25131C7.36803 5.72617 7.18774 6.29344 7.18774 6.875C7.18774 7.45656 7.36803 8.02383 7.70377 8.49869C8.03952 8.97355 8.51421 9.33266 9.0625 9.52656V16.875C9.0625 17.1236 9.16127 17.3621 9.33708 17.5379C9.5129 17.7137 9.75136 17.8125 10 17.8125C10.2486 17.8125 10.4871 17.7137 10.6629 17.5379C10.8387 17.3621 10.9375 17.1236 10.9375 16.875V9.52656C11.4854 9.33201 11.9597 8.97275 12.2954 8.49804C12.631 8.02333 12.8117 7.45641 12.8125 6.875ZM10 7.8125C9.81458 7.8125 9.63332 7.75752 9.47915 7.6545C9.32498 7.55149 9.20482 7.40507 9.13386 7.23377C9.0629 7.06246 9.04434 6.87396 9.08051 6.6921C9.11668 6.51025 9.20597 6.3432 9.33708 6.21209C9.46819 6.08098 9.63524 5.99169 9.8171 5.95551C9.99896 5.91934 10.1875 5.93791 10.3588 6.00886C10.5301 6.07982 10.6765 6.19998 10.7795 6.35415C10.8825 6.50832 10.9375 6.68958 10.9375 6.875C10.9375 7.12364 10.8387 7.3621 10.6629 7.53791C10.4871 7.71373 10.2486 7.8125 10 7.8125ZM18.4375 13.125C18.4367 12.5436 18.256 11.9767 17.9204 11.502C17.5847 11.0273 17.1104 10.668 16.5625 10.4734V3.125C16.5625 2.87636 16.4637 2.6379 16.2879 2.46209C16.1121 2.28627 15.8736 2.1875 15.625 2.1875C15.3764 2.1875 15.1379 2.28627 14.9621 2.46209C14.7863 2.6379 14.6875 2.87636 14.6875 3.125V10.4734C14.1392 10.6673 13.6645 11.0264 13.3288 11.5013C12.993 11.9762 12.8127 12.5434 12.8127 13.125C12.8127 13.7066 12.993 14.2738 13.3288 14.7487C13.6645 15.2236 14.1392 15.5827 14.6875 15.7766V16.875C14.6875 17.1236 14.7863 17.3621 14.9621 17.5379C15.1379 17.7137 15.3764 17.8125 15.625 17.8125C15.8736 17.8125 16.1121 17.7137 16.2879 17.5379C16.4637 17.3621 16.5625 17.1236 16.5625 16.875V15.7766C17.1104 15.582 17.5847 15.2227 17.9204 14.748C18.256 14.2733 18.4367 13.7064 18.4375 13.125ZM15.625 14.0625C15.4396 14.0625 15.2583 14.0075 15.1041 13.9045C14.95 13.8015 14.8298 13.6551 14.7589 13.4838C14.6879 13.3125 14.6693 13.124 14.7055 12.9421C14.7417 12.7602 14.831 12.5932 14.9621 12.4621C15.0932 12.331 15.2602 12.2417 15.4421 12.2055C15.624 12.1693 15.8125 12.1879 15.9838 12.2589C16.1551 12.3298 16.3015 12.45 16.4045 12.6042C16.5075 12.7583 16.5625 12.9396 16.5625 13.125C16.5625 13.3736 16.4637 13.6121 16.2879 13.7879C16.1121 13.9637 15.8736 14.0625 15.625 14.0625Z" fill="#191F2E"/>
</svg>
