<svg width="20" height="20" viewBox="0 0 20 20" fill="none" xmlns="http://www.w3.org/2000/svg">
<path d="M16.25 5V15C16.25 15.3315 16.1183 15.6495 15.8839 15.8839C15.6495 16.1183 15.3315 16.25 15 16.25H5C4.66848 16.25 4.35054 16.1183 4.11612 15.8839C3.8817 15.6495 3.75 15.3315 3.75 15V5C3.75 4.66848 3.8817 4.35054 4.11612 4.11612C4.35054 3.8817 4.66848 3.75 5 3.75H15C15.3315 3.75 15.6495 3.8817 15.8839 4.11612C16.1183 4.35054 16.25 4.66848 16.25 5ZM18.125 3.75C17.9592 3.75 17.8003 3.81585 17.6831 3.93306C17.5658 4.05027 17.5 4.20924 17.5 4.375V15.625C17.5 15.7908 17.5658 15.9497 17.6831 16.0669C17.8003 16.1842 17.9592 16.25 18.125 16.25C18.2908 16.25 18.4497 16.1842 18.5669 16.0669C18.6842 15.9497 18.75 15.7908 18.75 15.625V4.375C18.75 4.20924 18.6842 4.05027 18.5669 3.93306C18.4497 3.81585 18.2908 3.75 18.125 3.75ZM1.875 3.75C1.70924 3.75 1.55027 3.81585 1.43306 3.93306C1.31585 4.05027 1.25 4.20924 1.25 4.375V15.625C1.25 15.7908 1.31585 15.9497 1.43306 16.0669C1.55027 16.1842 1.70924 16.25 1.875 16.25C2.04076 16.25 2.19973 16.1842 2.31694 16.0669C2.43415 15.9497 2.5 15.7908 2.5 15.625V4.375C2.5 4.20924 2.43415 4.05027 2.31694 3.93306C2.19973 3.81585 2.04076 3.75 1.875 3.75Z" fill="#191F2E"/>
</svg>
