<svg width="20" height="20" viewBox="0 0 20 20" fill="none" xmlns="http://www.w3.org/2000/svg">
<path d="M14.375 3.4375H5.625C5.2106 3.4375 4.81317 3.60212 4.52015 3.89515C4.22712 4.18817 4.0625 4.5856 4.0625 5V15C4.0625 15.4144 4.22712 15.8118 4.52015 16.1049C4.81317 16.3979 5.2106 16.5625 5.625 16.5625H14.375C14.7894 16.5625 15.1868 16.3979 15.4799 16.1049C15.7729 15.8118 15.9375 15.4144 15.9375 15V5C15.9375 4.5856 15.7729 4.18817 15.4799 3.89515C15.1868 3.60212 14.7894 3.4375 14.375 3.4375ZM14.0625 14.6875H5.9375V5.3125H14.0625V14.6875ZM19.0625 4.375V15.625C19.0625 15.8736 18.9637 16.1121 18.7879 16.2879C18.6121 16.4637 18.3736 16.5625 18.125 16.5625C17.8764 16.5625 17.6379 16.4637 17.4621 16.2879C17.2863 16.1121 17.1875 15.8736 17.1875 15.625V4.375C17.1875 4.12636 17.2863 3.8879 17.4621 3.71209C17.6379 3.53627 17.8764 3.4375 18.125 3.4375C18.3736 3.4375 18.6121 3.53627 18.7879 3.71209C18.9637 3.8879 19.0625 4.12636 19.0625 4.375ZM2.8125 4.375V15.625C2.8125 15.8736 2.71373 16.1121 2.53791 16.2879C2.3621 16.4637 2.12364 16.5625 1.875 16.5625C1.62636 16.5625 1.3879 16.4637 1.21209 16.2879C1.03627 16.1121 0.9375 15.8736 0.9375 15.625V4.375C0.9375 4.12636 1.03627 3.8879 1.21209 3.71209C1.3879 3.53627 1.62636 3.4375 1.875 3.4375C2.12364 3.4375 2.3621 3.53627 2.53791 3.71209C2.71373 3.8879 2.8125 4.12636 2.8125 4.375Z" fill="#191F2E"/>
</svg>
