<svg width="20" height="20" viewBox="0 0 20 20" fill="none" xmlns="http://www.w3.org/2000/svg">
<path d="M10 1.875C8.39303 1.875 6.82214 2.35152 5.486 3.24431C4.14985 4.1371 3.10844 5.40605 2.49348 6.8907C1.87852 8.37535 1.71762 10.009 2.03112 11.5851C2.34463 13.1612 3.11846 14.6089 4.25476 15.7452C5.39106 16.8815 6.8388 17.6554 8.4149 17.9689C9.99099 18.2824 11.6247 18.1215 13.1093 17.5065C14.594 16.8916 15.8629 15.8502 16.7557 14.514C17.6485 13.1779 18.125 11.607 18.125 10C18.1227 7.84581 17.266 5.78051 15.7427 4.25727C14.2195 2.73403 12.1542 1.87727 10 1.875ZM10 16.875C8.64026 16.875 7.31105 16.4718 6.18046 15.7164C5.04987 14.9609 4.16868 13.8872 3.64833 12.6309C3.12798 11.3747 2.99183 9.99237 3.2571 8.65875C3.52238 7.32513 4.17716 6.10013 5.13864 5.13864C6.10013 4.17716 7.32514 3.52237 8.65876 3.2571C9.99238 2.99183 11.3747 3.12798 12.631 3.64833C13.8872 4.16868 14.9609 5.04987 15.7164 6.18045C16.4718 7.31104 16.875 8.64025 16.875 10C16.8729 11.8227 16.1479 13.5702 14.8591 14.8591C13.5702 16.1479 11.8227 16.8729 10 16.875ZM8.125 8.4375C8.125 8.62292 8.07002 8.80418 7.96701 8.95835C7.86399 9.11252 7.71758 9.23268 7.54627 9.30364C7.37496 9.37459 7.18646 9.39316 7.00461 9.35699C6.82275 9.32081 6.6557 9.23152 6.52459 9.10041C6.39348 8.9693 6.30419 8.80225 6.26802 8.6204C6.23184 8.43854 6.25041 8.25004 6.32137 8.07873C6.39232 7.90743 6.51249 7.76101 6.66666 7.658C6.82083 7.55498 7.00208 7.5 7.1875 7.5C7.43614 7.5 7.6746 7.59877 7.85042 7.77459C8.02623 7.9504 8.125 8.18886 8.125 8.4375ZM13.75 8.4375C13.75 8.62292 13.695 8.80418 13.592 8.95835C13.489 9.11252 13.3426 9.23268 13.1713 9.30364C13 9.37459 12.8115 9.39316 12.6296 9.35699C12.4477 9.32081 12.2807 9.23152 12.1496 9.10041C12.0185 8.9693 11.9292 8.80225 11.893 8.6204C11.8568 8.43854 11.8754 8.25004 11.9464 8.07873C12.0173 7.90743 12.1375 7.76101 12.2917 7.658C12.4458 7.55498 12.6271 7.5 12.8125 7.5C13.0611 7.5 13.2996 7.59877 13.4754 7.77459C13.6512 7.9504 13.75 8.18886 13.75 8.4375Z" fill="#191F2E"/>
</svg>
