<svg width="20" height="20" viewBox="0 0 20 20" fill="none" xmlns="http://www.w3.org/2000/svg">
<path d="M7.1875 11.875C7.00208 11.875 6.82083 11.82 6.66666 11.717C6.51249 11.614 6.39232 11.4676 6.32137 11.2963C6.25041 11.125 6.23184 10.9365 6.26802 10.7546C6.30419 10.5727 6.39348 10.4057 6.52459 10.2746C6.6557 10.1435 6.82275 10.0542 7.00461 10.018C7.18646 9.98184 7.37496 10.0004 7.54627 10.0714C7.71758 10.1423 7.86399 10.2625 7.96701 10.4167C8.07002 10.5708 8.125 10.7521 8.125 10.9375C8.125 11.1861 8.02623 11.4246 7.85042 11.6004C7.6746 11.7762 7.43614 11.875 7.1875 11.875ZM12.8125 10C12.6271 10 12.4458 10.055 12.2917 10.158C12.1375 10.261 12.0173 10.4074 11.9464 10.5787C11.8754 10.75 11.8568 10.9385 11.893 11.1204C11.9292 11.3023 12.0185 11.4693 12.1496 11.6004C12.2807 11.7315 12.4477 11.8208 12.6296 11.857C12.8115 11.8932 13 11.8746 13.1713 11.8036C13.3426 11.7327 13.489 11.6125 13.592 11.4583C13.695 11.3042 13.75 11.1229 13.75 10.9375C13.75 10.6889 13.6512 10.4504 13.4754 10.2746C13.2996 10.0988 13.0611 10 12.8125 10ZM18.125 10C18.125 11.607 17.6485 13.1779 16.7557 14.514C15.8629 15.8502 14.594 16.8916 13.1093 17.5065C11.6247 18.1215 9.99099 18.2824 8.4149 17.9689C6.8388 17.6554 5.39106 16.8815 4.25476 15.7452C3.11846 14.6089 2.34463 13.1612 2.03112 11.5851C1.71762 10.009 1.87852 8.37535 2.49348 6.8907C3.10844 5.40605 4.14985 4.1371 5.486 3.24431C6.82214 2.35152 8.39303 1.875 10 1.875C12.1542 1.87727 14.2195 2.73403 15.7427 4.25727C17.266 5.78051 18.1227 7.84581 18.125 10ZM16.875 10C16.875 8.64025 16.4718 7.31104 15.7164 6.18045C14.9609 5.04987 13.8872 4.16868 12.631 3.64833C11.3747 3.12798 9.99238 2.99183 8.65876 3.2571C7.32514 3.52237 6.10013 4.17716 5.13864 5.13864C4.17716 6.10013 3.52238 7.32513 3.2571 8.65875C2.99183 9.99237 3.12798 11.3747 3.64833 12.6309C4.16868 13.8872 5.04987 14.9609 6.18046 15.7164C7.31105 16.4718 8.64026 16.875 10 16.875C11.8227 16.8729 13.5702 16.1479 14.8591 14.8591C16.1479 13.5702 16.8729 11.8227 16.875 10ZM13.4031 6.35469L10 8.62422L6.59688 6.35859C6.45888 6.2666 6.28999 6.23319 6.12736 6.26571C5.96474 6.29824 5.82169 6.39404 5.72969 6.53203C5.63769 6.67003 5.60428 6.83892 5.63681 7.00154C5.66934 7.16417 5.76513 7.30722 5.90313 7.39922L9.65313 9.89922C9.75583 9.96774 9.87654 10.0043 10 10.0043C10.1235 10.0043 10.2442 9.96774 10.3469 9.89922L14.0969 7.39922C14.2349 7.30722 14.3307 7.16417 14.3632 7.00154C14.3957 6.83892 14.3623 6.67003 14.2703 6.53203C14.1783 6.39404 14.0353 6.29824 13.8726 6.26571C13.71 6.23319 13.5411 6.2666 13.4031 6.35859V6.35469ZM12.2211 13.8547C11.5625 13.4164 10.9328 13.125 10 13.125C9.06719 13.125 8.4375 13.4164 7.77891 13.8547C7.64407 13.9478 7.5512 14.0902 7.5203 14.2511C7.4894 14.412 7.52294 14.5787 7.6137 14.7151C7.70445 14.8515 7.84517 14.9469 8.00553 14.9806C8.1659 15.0143 8.33309 14.9837 8.4711 14.8953C8.97891 14.5578 9.375 14.375 10 14.375C10.625 14.375 11.0211 14.5578 11.5289 14.8953C11.5972 14.9425 11.6742 14.9756 11.7554 14.9927C11.8366 15.0097 11.9204 15.0105 12.0019 14.9948C12.0835 14.9792 12.161 14.9475 12.2301 14.9015C12.2992 14.8555 12.3585 14.7963 12.4045 14.7272C12.4504 14.6581 12.4822 14.5805 12.4979 14.499C12.5135 14.4175 12.5128 14.3337 12.4957 14.2525C12.4787 14.1713 12.4456 14.0943 12.3984 14.026C12.3513 13.9577 12.291 13.8994 12.2211 13.8547Z" fill="#191F2E"/>
</svg>
