<svg width="20" height="20" viewBox="0 0 20 20" fill="none" xmlns="http://www.w3.org/2000/svg">
<path d="M10 1.875C8.39303 1.875 6.82214 2.35152 5.486 3.24431C4.14985 4.1371 3.10844 5.40605 2.49348 6.8907C1.87852 8.37535 1.71762 10.009 2.03112 11.5851C2.34463 13.1612 3.11846 14.6089 4.25476 15.7452C5.39106 16.8815 6.8388 17.6554 8.4149 17.9689C9.99099 18.2824 11.6247 18.1215 13.1093 17.5065C14.594 16.8916 15.8629 15.8502 16.7557 14.514C17.6485 13.1779 18.125 11.607 18.125 10C18.1227 7.84581 17.266 5.78051 15.7427 4.25727C14.2195 2.73403 12.1542 1.87727 10 1.875ZM10 16.875C8.64026 16.875 7.31105 16.4718 6.18046 15.7164C5.04987 14.9609 4.16868 13.8872 3.64833 12.6309C3.12798 11.3747 2.99183 9.99237 3.2571 8.65875C3.52238 7.32513 4.17716 6.10013 5.13864 5.13864C6.10013 4.17716 7.32514 3.52237 8.65876 3.2571C9.99238 2.99183 11.3747 3.12798 12.631 3.64833C13.8872 4.16868 14.9609 5.04987 15.7164 6.18045C16.4718 7.31104 16.875 8.64025 16.875 10C16.8729 11.8227 16.1479 13.5702 14.8591 14.8591C13.5702 16.1479 11.8227 16.8729 10 16.875ZM14.1922 12.6828C14.2503 12.7409 14.2963 12.8098 14.3277 12.8857C14.3592 12.9616 14.3754 13.0429 14.3754 13.125C14.3754 13.2071 14.3592 13.2884 14.3277 13.3643C14.2963 13.4402 14.2503 13.5091 14.1922 13.5672C14.1341 13.6253 14.0652 13.6713 13.9893 13.7027C13.9134 13.7342 13.8321 13.7503 13.75 13.7503C13.6679 13.7503 13.5866 13.7342 13.5107 13.7027C13.4348 13.6713 13.3659 13.6253 13.3078 13.5672L12.5 12.7586L11.6922 13.5672C11.6341 13.6253 11.5652 13.6714 11.4893 13.7029C11.4135 13.7343 11.3321 13.7505 11.25 13.7505C11.1679 13.7505 11.0865 13.7343 11.0107 13.7029C10.9348 13.6714 10.8659 13.6253 10.8078 13.5672L10 12.7586L9.19219 13.5672C9.13415 13.6253 9.06522 13.6714 8.98934 13.7029C8.91347 13.7343 8.83214 13.7505 8.75 13.7505C8.66787 13.7505 8.58654 13.7343 8.51067 13.7029C8.43479 13.6714 8.36586 13.6253 8.30782 13.5672L7.5 12.7586L6.69219 13.5672C6.57492 13.6845 6.41586 13.7503 6.25 13.7503C6.08415 13.7503 5.92509 13.6845 5.80782 13.5672C5.69054 13.4499 5.62466 13.2909 5.62466 13.125C5.62466 12.9591 5.69054 12.8001 5.80782 12.6828L7.05782 11.4328C7.11586 11.3747 7.18479 11.3286 7.26067 11.2971C7.33654 11.2657 7.41787 11.2495 7.5 11.2495C7.58214 11.2495 7.66347 11.2657 7.73934 11.2971C7.81522 11.3286 7.88415 11.3747 7.94219 11.4328L8.75 12.2414L9.55782 11.4328C9.61586 11.3747 9.68479 11.3286 9.76067 11.2971C9.83654 11.2657 9.91787 11.2495 10 11.2495C10.0821 11.2495 10.1635 11.2657 10.2393 11.2971C10.3152 11.3286 10.3841 11.3747 10.4422 11.4328L11.25 12.2414L12.0578 11.4328C12.1159 11.3747 12.1848 11.3286 12.2607 11.2971C12.3365 11.2657 12.4179 11.2495 12.5 11.2495C12.5821 11.2495 12.6635 11.2657 12.7393 11.2971C12.8152 11.3286 12.8841 11.3747 12.9422 11.4328L14.1922 12.6828ZM6.25 8.4375C6.25 8.25208 6.30499 8.07082 6.408 7.91665C6.51101 7.76248 6.65743 7.64232 6.82874 7.57136C7.00004 7.50041 7.18854 7.48184 7.3704 7.51801C7.55226 7.55419 7.7193 7.64348 7.85042 7.77459C7.98153 7.9057 8.07082 8.07275 8.10699 8.2546C8.14316 8.43646 8.1246 8.62496 8.05364 8.79627C7.98268 8.96757 7.86252 9.11399 7.70835 9.217C7.55418 9.32002 7.37292 9.375 7.1875 9.375C6.93886 9.375 6.70041 9.27623 6.52459 9.10041C6.34878 8.9246 6.25 8.68614 6.25 8.4375ZM11.875 8.4375C11.875 8.25208 11.93 8.07082 12.033 7.91665C12.136 7.76248 12.2824 7.64232 12.4537 7.57136C12.625 7.50041 12.8135 7.48184 12.9954 7.51801C13.1773 7.55419 13.3443 7.64348 13.4754 7.77459C13.6065 7.9057 13.6958 8.07275 13.732 8.2546C13.7682 8.43646 13.7496 8.62496 13.6786 8.79627C13.6077 8.96757 13.4875 9.11399 13.3334 9.217C13.1792 9.32002 12.9979 9.375 12.8125 9.375C12.5639 9.375 12.3254 9.27623 12.1496 9.10041C11.9738 8.9246 11.875 8.68614 11.875 8.4375Z" fill="#191F2E"/>
</svg>
