<svg width="20" height="20" viewBox="0 0 20 20" fill="none" xmlns="http://www.w3.org/2000/svg">
<path d="M7.1875 12.1875C6.94028 12.1875 6.6986 12.1142 6.49304 11.9768C6.28748 11.8395 6.12726 11.6443 6.03265 11.4159C5.93805 11.1874 5.91329 10.9361 5.96152 10.6936C6.00975 10.4512 6.12881 10.2284 6.30362 10.0536C6.47844 9.8788 6.70116 9.75975 6.94364 9.71152C7.18612 9.66329 7.43745 9.68804 7.66586 9.78265C7.89427 9.87726 8.08949 10.0375 8.22684 10.243C8.36419 10.4486 8.4375 10.6903 8.4375 10.9375C8.4375 11.269 8.30581 11.587 8.07139 11.8214C7.83697 12.0558 7.51902 12.1875 7.1875 12.1875ZM12.8125 9.6875C12.5653 9.6875 12.3236 9.76081 12.118 9.89816C11.9125 10.0355 11.7523 10.2307 11.6577 10.4591C11.563 10.6876 11.5383 10.9389 11.5865 11.1814C11.6348 11.4238 11.7538 11.6466 11.9286 11.8214C12.1034 11.9962 12.3262 12.1153 12.5686 12.1635C12.8111 12.2117 13.0625 12.187 13.2909 12.0924C13.5193 11.9977 13.7145 11.8375 13.8518 11.632C13.9892 11.4264 14.0625 11.1847 14.0625 10.9375C14.0625 10.606 13.9308 10.288 13.6964 10.0536C13.462 9.8192 13.144 9.6875 12.8125 9.6875ZM18.4375 10C18.4375 11.6688 17.9427 13.3001 17.0155 14.6876C16.0884 16.0752 14.7706 17.1566 13.2289 17.7952C11.6871 18.4338 9.99064 18.6009 8.35393 18.2754C6.71721 17.9498 5.2138 17.1462 4.03379 15.9662C2.85379 14.7862 2.05019 13.2828 1.72463 11.6461C1.39907 10.0094 1.56616 8.31286 2.20477 6.77111C2.84338 5.22936 3.92484 3.9116 5.31238 2.98448C6.69992 2.05735 8.33122 1.5625 10 1.5625C12.237 1.56498 14.3817 2.45473 15.9635 4.03653C17.5453 5.61833 18.435 7.763 18.4375 10ZM16.5625 10C16.5625 8.70206 16.1776 7.43327 15.4565 6.35407C14.7354 5.27487 13.7105 4.43374 12.5114 3.93704C11.3122 3.44034 9.99272 3.31038 8.71972 3.5636C7.44672 3.81681 6.2774 4.44183 5.35962 5.35961C4.44183 6.27739 3.81682 7.44672 3.5636 8.71972C3.31038 9.99272 3.44034 11.3122 3.93704 12.5114C4.43374 13.7105 5.27488 14.7354 6.35407 15.4565C7.43327 16.1776 8.70206 16.5625 10 16.5625C11.7399 16.5606 13.408 15.8686 14.6383 14.6383C15.8686 13.408 16.5606 11.7399 16.5625 10ZM6.66719 7.96875L9.47969 9.84375C9.63375 9.94654 9.8148 10.0014 10 10.0014C10.1852 10.0014 10.3663 9.94654 10.5203 9.84375L13.3328 7.96875C13.54 7.83075 13.6839 7.6161 13.7328 7.37201C13.7818 7.12792 13.7317 6.87439 13.5938 6.66719C13.4558 6.45999 13.2411 6.31609 12.997 6.26716C12.7529 6.21822 12.4994 6.26825 12.2922 6.40625L10 7.93594L7.70782 6.40625C7.50062 6.26825 7.24708 6.21822 7.00299 6.26716C6.7589 6.31609 6.54425 6.45999 6.40625 6.66719C6.26826 6.87439 6.21823 7.12792 6.26716 7.37201C6.3161 7.6161 6.45999 7.83075 6.66719 7.96875ZM12.0313 13.0562C11.4161 12.6927 10.7146 12.5009 10 12.5009C9.28542 12.5009 8.58393 12.6927 7.96875 13.0562C7.85672 13.1149 7.75769 13.1955 7.67764 13.2934C7.59759 13.3913 7.53816 13.5043 7.50293 13.6257C7.4677 13.7472 7.4574 13.8745 7.47265 14C7.4879 14.1255 7.52837 14.2467 7.59165 14.3561C7.65493 14.4656 7.73969 14.5611 7.84085 14.637C7.942 14.7128 8.05746 14.7675 8.18027 14.7975C8.30307 14.8276 8.4307 14.8325 8.55546 14.812C8.68023 14.7915 8.79955 14.746 8.90625 14.6781C9.23641 14.4792 9.61456 14.3741 10 14.3741C10.3854 14.3741 10.7636 14.4792 11.0938 14.6781C11.2005 14.746 11.3198 14.7915 11.4445 14.812C11.5693 14.8325 11.6969 14.8276 11.8197 14.7975C11.9425 14.7675 12.058 14.7128 12.1592 14.637C12.2603 14.5611 12.3451 14.4656 12.4084 14.3561C12.4716 14.2467 12.5121 14.1255 12.5274 14C12.5426 13.8745 12.5323 13.7472 12.4971 13.6257C12.4618 13.5043 12.4024 13.3913 12.3224 13.2934C12.2423 13.1955 12.1433 13.1149 12.0313 13.0562Z" fill="#191F2E"/>
</svg>
