<svg width="20" height="20" viewBox="0 0 20 20" fill="none" xmlns="http://www.w3.org/2000/svg">
<path d="M14.4133 13.7883C14.3262 13.8757 14.2227 13.945 14.1087 13.9923C13.9948 14.0397 13.8726 14.064 13.7492 14.064C13.6258 14.064 13.5037 14.0397 13.3897 13.9923C13.2758 13.945 13.1723 13.8757 13.0852 13.7883L12.5 13.2031L11.9133 13.7906C11.8262 13.878 11.7227 13.9474 11.6087 13.9947C11.4948 14.042 11.3726 14.0664 11.2492 14.0664C11.1258 14.0664 11.0037 14.042 10.8897 13.9947C10.7758 13.9474 10.6723 13.878 10.5852 13.7906L10 13.2031L9.41328 13.7906C9.32619 13.878 9.22269 13.9474 9.10874 13.9947C8.99478 14.042 8.87261 14.0664 8.74922 14.0664C8.62583 14.0664 8.50366 14.042 8.3897 13.9947C8.27575 13.9474 8.17226 13.878 8.08516 13.7906L7.5 13.2031L6.91328 13.7906C6.73716 13.9667 6.49829 14.0657 6.24922 14.0657C6.00015 14.0657 5.76128 13.9667 5.58516 13.7906C5.40904 13.6145 5.3101 13.3756 5.3101 13.1266C5.3101 12.8775 5.40904 12.6386 5.58516 12.4625L6.83516 11.2125C6.92226 11.1251 7.02575 11.0558 7.1397 11.0084C7.25366 10.9611 7.37583 10.9368 7.49922 10.9368C7.62261 10.9368 7.74478 10.9611 7.85874 11.0084C7.97269 11.0558 8.07619 11.1251 8.16328 11.2125L8.75 11.7969L9.33672 11.2094C9.42382 11.122 9.52731 11.0526 9.64127 11.0053C9.75522 10.958 9.8774 10.9336 10.0008 10.9336C10.1242 10.9336 10.2463 10.958 10.3603 11.0053C10.4743 11.0526 10.5778 11.122 10.6648 11.2094L11.25 11.7969L11.8367 11.2094C11.9238 11.122 12.0273 11.0526 12.1413 11.0053C12.2552 10.958 12.3774 10.9336 12.5008 10.9336C12.6242 10.9336 12.7463 10.958 12.8603 11.0053C12.9743 11.0526 13.0778 11.122 13.1648 11.2094L14.4148 12.4594C14.5023 12.5466 14.5716 12.6502 14.6188 12.7643C14.6661 12.8784 14.6903 13.0007 14.6902 13.1242C14.6901 13.2476 14.6655 13.3699 14.618 13.4838C14.5705 13.5978 14.5009 13.7013 14.4133 13.7883ZM18.4375 10C18.4375 11.6688 17.9427 13.3001 17.0155 14.6876C16.0884 16.0752 14.7706 17.1566 13.2289 17.7952C11.6871 18.4338 9.99064 18.6009 8.35393 18.2754C6.71721 17.9498 5.2138 17.1462 4.03379 15.9662C2.85379 14.7862 2.05019 13.2828 1.72463 11.6461C1.39907 10.0094 1.56616 8.31286 2.20477 6.77111C2.84338 5.22936 3.92484 3.9116 5.31238 2.98448C6.69992 2.05735 8.33122 1.5625 10 1.5625C12.237 1.56498 14.3817 2.45473 15.9635 4.03653C17.5453 5.61833 18.435 7.763 18.4375 10ZM16.5625 10C16.5625 8.70206 16.1776 7.43327 15.4565 6.35407C14.7354 5.27487 13.7105 4.43374 12.5114 3.93704C11.3122 3.44034 9.99272 3.31038 8.71972 3.5636C7.44672 3.81681 6.2774 4.44183 5.35962 5.35961C4.44183 6.27739 3.81682 7.44672 3.5636 8.71972C3.31038 9.99272 3.44034 11.3122 3.93704 12.5114C4.43374 13.7105 5.27488 14.7354 6.35407 15.4565C7.43327 16.1776 8.70206 16.5625 10 16.5625C11.7399 16.5606 13.408 15.8686 14.6383 14.6383C15.8686 13.408 16.5606 11.7399 16.5625 10ZM7.1875 9.6875C7.43473 9.6875 7.6764 9.61419 7.88197 9.47684C8.08753 9.33949 8.24774 9.14426 8.34235 8.91585C8.43696 8.68745 8.46172 8.43611 8.41349 8.19364C8.36525 7.95116 8.2462 7.72843 8.07139 7.55362C7.89657 7.3788 7.67384 7.25975 7.43137 7.21152C7.18889 7.16329 6.93756 7.18804 6.70915 7.28265C6.48074 7.37726 6.28552 7.53748 6.14817 7.74304C6.01082 7.9486 5.9375 8.19027 5.9375 8.4375C5.9375 8.76902 6.0692 9.08696 6.30362 9.32138C6.53804 9.5558 6.85598 9.6875 7.1875 9.6875ZM12.8125 9.6875C13.0597 9.6875 13.3014 9.61419 13.507 9.47684C13.7125 9.33949 13.8727 9.14426 13.9674 8.91585C14.062 8.68745 14.0867 8.43611 14.0385 8.19364C13.9903 7.95116 13.8712 7.72843 13.6964 7.55362C13.5216 7.3788 13.2988 7.25975 13.0564 7.21152C12.8139 7.16329 12.5626 7.18804 12.3341 7.28265C12.1057 7.37726 11.9105 7.53748 11.7732 7.74304C11.6358 7.9486 11.5625 8.19027 11.5625 8.4375C11.5625 8.76902 11.6942 9.08696 11.9286 9.32138C12.163 9.5558 12.481 9.6875 12.8125 9.6875Z" fill="#191F2E"/>
</svg>
