<svg width="20" height="20" viewBox="0 0 20 20" fill="none" xmlns="http://www.w3.org/2000/svg">
<path d="M10 1.5625C8.33122 1.5625 6.69992 2.05735 5.31238 2.98448C3.92484 3.9116 2.84338 5.22936 2.20477 6.77111C1.56616 8.31286 1.39907 10.0094 1.72463 11.6461C2.05019 13.2828 2.85379 14.7862 4.03379 15.9662C5.2138 17.1462 6.71721 17.9498 8.35393 18.2754C9.99064 18.6009 11.6871 18.4338 13.2289 17.7952C14.7706 17.1566 16.0884 16.0752 17.0155 14.6876C17.9427 13.3001 18.4375 11.6688 18.4375 10C18.435 7.763 17.5453 5.61833 15.9635 4.03653C14.3817 2.45473 12.237 1.56498 10 1.5625ZM10 16.5625C8.70206 16.5625 7.43327 16.1776 6.35407 15.4565C5.27488 14.7354 4.43374 13.7105 3.93704 12.5114C3.44034 11.3122 3.31038 9.99272 3.5636 8.71972C3.81682 7.44672 4.44183 6.27739 5.35962 5.35961C6.2774 4.44183 7.44672 3.81681 8.71972 3.5636C9.99272 3.31038 11.3122 3.44034 12.5114 3.93704C13.7105 4.43374 14.7354 5.27487 15.4565 6.35407C16.1776 7.43327 16.5625 8.70206 16.5625 10C16.5606 11.7399 15.8686 13.408 14.6383 14.6383C13.408 15.8686 11.7399 16.5606 10 16.5625ZM14.7258 9.33672C14.9019 9.51284 15.0008 9.75171 15.0008 10.0008C15.0008 10.2499 14.9019 10.4887 14.7258 10.6648C14.5497 10.841 14.3108 10.9399 14.0617 10.9399C13.8127 10.9399 13.5738 10.841 13.3977 10.6648L12.8125 10.0781L12.2258 10.6656C12.0497 10.8417 11.8108 10.9407 11.5617 10.9407C11.3127 10.9407 11.0738 10.8417 10.8977 10.6656C10.7215 10.4895 10.6226 10.2506 10.6226 10.0016C10.6226 9.75249 10.7215 9.51362 10.8977 9.3375L11.4844 8.75L10.8969 8.16328C10.7208 7.98716 10.6218 7.74829 10.6218 7.49922C10.6218 7.25015 10.7208 7.01128 10.8969 6.83516C11.073 6.65904 11.3119 6.56009 11.5609 6.56009C11.81 6.56009 12.0489 6.65904 12.225 6.83516L12.8125 7.42188L13.3992 6.83438C13.4864 6.74717 13.59 6.67799 13.7039 6.6308C13.8178 6.5836 13.94 6.55931 14.0633 6.55931C14.1866 6.55931 14.3087 6.5836 14.4227 6.6308C14.5366 6.67799 14.6401 6.74717 14.7273 6.83438C14.8146 6.92158 14.8837 7.02511 14.9309 7.13905C14.9781 7.25299 15.0024 7.37511 15.0024 7.49844C15.0024 7.62177 14.9781 7.74389 14.9309 7.85783C14.8837 7.97177 14.8146 8.07529 14.7273 8.1625L14.1406 8.75L14.7258 9.33672ZM9.10078 10.6648C9.01369 10.7522 8.91019 10.8216 8.79624 10.8689C8.68228 10.9162 8.56011 10.9406 8.43672 10.9406C8.31333 10.9406 8.19116 10.9162 8.0772 10.8689C7.96325 10.8216 7.85976 10.7522 7.77266 10.6648L7.1875 10.0781L6.60078 10.6656C6.42466 10.8417 6.18579 10.9407 5.93672 10.9407C5.68765 10.9407 5.44878 10.8417 5.27266 10.6656C5.09654 10.4895 4.9976 10.2506 4.9976 10.0016C4.9976 9.87823 5.02189 9.75611 5.06908 9.64217C5.11628 9.52823 5.18545 9.42471 5.27266 9.3375L5.85938 8.75L5.27188 8.16328C5.09576 7.98716 4.99682 7.74829 4.99682 7.49922C4.99682 7.25015 5.09576 7.01128 5.27188 6.83516C5.448 6.65904 5.68687 6.56009 5.93594 6.56009C6.18501 6.56009 6.42388 6.65904 6.6 6.83516L7.1875 7.42188L7.77422 6.83438C7.95034 6.65826 8.18921 6.55931 8.43828 6.55931C8.68736 6.55931 8.92623 6.65826 9.10235 6.83438C9.27847 7.0105 9.37741 7.24937 9.37741 7.49844C9.37741 7.74751 9.27847 7.98638 9.10235 8.1625L8.51563 8.75L9.10313 9.33672C9.19014 9.42394 9.25911 9.52746 9.30609 9.64135C9.35306 9.75525 9.37713 9.87728 9.37691 10.0005C9.3767 10.1237 9.3522 10.2456 9.30482 10.3594C9.25744 10.4731 9.1881 10.5764 9.10078 10.6633V10.6648ZM11.25 14.0625C11.25 14.3097 11.1767 14.5514 11.0393 14.757C10.902 14.9625 10.7068 15.1227 10.4784 15.2174C10.25 15.312 9.99862 15.3367 9.75614 15.2885C9.51366 15.2403 9.29094 15.1212 9.11612 14.9464C8.9413 14.7716 8.82225 14.5488 8.77402 14.3064C8.72579 14.0639 8.75054 13.8126 8.84515 13.5841C8.93976 13.3557 9.09998 13.1605 9.30554 13.0232C9.5111 12.8858 9.75278 12.8125 10 12.8125C10.3315 12.8125 10.6495 12.9442 10.8839 13.1786C11.1183 13.413 11.25 13.731 11.25 14.0625Z" fill="#191F2E"/>
</svg>
