<svg width="20" height="20" viewBox="0 0 20 20" fill="none" xmlns="http://www.w3.org/2000/svg">
<path d="M10 1.875C8.39303 1.875 6.82214 2.35152 5.486 3.24431C4.14985 4.1371 3.10844 5.40605 2.49348 6.8907C1.87852 8.37535 1.71762 10.009 2.03112 11.5851C2.34463 13.1612 3.11846 14.6089 4.25476 15.7452C5.39106 16.8815 6.8388 17.6554 8.4149 17.9689C9.99099 18.2824 11.6247 18.1215 13.1093 17.5065C14.594 16.8916 15.8629 15.8502 16.7557 14.514C17.6485 13.1779 18.125 11.607 18.125 10C18.1223 7.84594 17.2654 5.78088 15.7423 4.25773C14.2191 2.73457 12.1541 1.87769 10 1.875ZM8.56719 9.55781C8.68447 9.67509 8.75035 9.83415 8.75035 10C8.75035 10.1659 8.68447 10.3249 8.56719 10.4422C8.44992 10.5595 8.29086 10.6253 8.125 10.6253C7.95915 10.6253 7.80009 10.5595 7.68282 10.4422L6.875 9.63359L6.06719 10.4422C5.94992 10.5595 5.79086 10.6253 5.625 10.6253C5.45915 10.6253 5.30009 10.5595 5.18282 10.4422C5.06554 10.3249 4.99966 10.1659 4.99966 10C4.99966 9.83415 5.06554 9.67509 5.18282 9.55781L5.99141 8.75L5.18282 7.94219C5.06554 7.82491 4.99966 7.66585 4.99966 7.5C4.99966 7.33415 5.06554 7.17509 5.18282 7.05781C5.30009 6.94054 5.45915 6.87465 5.625 6.87465C5.79086 6.87465 5.94992 6.94054 6.06719 7.05781L6.875 7.86641L7.68282 7.05781C7.80009 6.94054 7.95915 6.87465 8.125 6.87465C8.29086 6.87465 8.44992 6.94054 8.56719 7.05781C8.68447 7.17509 8.75035 7.33415 8.75035 7.5C8.75035 7.66585 8.68447 7.82491 8.56719 7.94219L7.7586 8.75L8.56719 9.55781ZM10 15C9.81458 15 9.63333 14.945 9.47916 14.842C9.32499 14.739 9.20482 14.5926 9.13387 14.4213C9.06291 14.25 9.04434 14.0615 9.08052 13.8796C9.11669 13.6977 9.20598 13.5307 9.33709 13.3996C9.4682 13.2685 9.63525 13.1792 9.81711 13.143C9.99896 13.1068 10.1875 13.1254 10.3588 13.1964C10.5301 13.2673 10.6765 13.3875 10.7795 13.5417C10.8825 13.6958 10.9375 13.8771 10.9375 14.0625C10.9375 14.3111 10.8387 14.5496 10.6629 14.7254C10.4871 14.9012 10.2486 15 10 15ZM14.8172 9.55781C14.8753 9.61588 14.9213 9.68482 14.9527 9.76069C14.9842 9.83656 15.0004 9.91788 15.0004 10C15.0004 10.0821 14.9842 10.1634 14.9527 10.2393C14.9213 10.3152 14.8753 10.3841 14.8172 10.4422C14.7591 10.5003 14.6902 10.5463 14.6143 10.5777C14.5384 10.6092 14.4571 10.6253 14.375 10.6253C14.2929 10.6253 14.2116 10.6092 14.1357 10.5777C14.0598 10.5463 13.9909 10.5003 13.9328 10.4422L13.125 9.63359L12.3172 10.4422C12.1999 10.5595 12.0409 10.6253 11.875 10.6253C11.7092 10.6253 11.5501 10.5595 11.4328 10.4422C11.3155 10.3249 11.2497 10.1659 11.2497 10C11.2497 9.83415 11.3155 9.67509 11.4328 9.55781L12.2414 8.75L11.4328 7.94219C11.3155 7.82491 11.2497 7.66585 11.2497 7.5C11.2497 7.33415 11.3155 7.17509 11.4328 7.05781C11.5501 6.94054 11.7092 6.87465 11.875 6.87465C12.0409 6.87465 12.1999 6.94054 12.3172 7.05781L13.125 7.86641L13.9328 7.05781C13.9909 6.99974 14.0598 6.95368 14.1357 6.92225C14.2116 6.89083 14.2929 6.87465 14.375 6.87465C14.4571 6.87465 14.5384 6.89083 14.6143 6.92225C14.6902 6.95368 14.7591 6.99974 14.8172 7.05781C14.8753 7.11588 14.9213 7.18482 14.9527 7.26069C14.9842 7.33656 15.0004 7.41788 15.0004 7.5C15.0004 7.58212 14.9842 7.66344 14.9527 7.73931C14.9213 7.81518 14.8753 7.88412 14.8172 7.94219L14.0086 8.75L14.8172 9.55781Z" fill="#191F2E"/>
</svg>
