<svg width="20" height="20" viewBox="0 0 20 20" fill="none" xmlns="http://www.w3.org/2000/svg">
<path d="M10 1.875C8.83148 1.87589 7.67689 2.12883 6.615 2.61655C5.55312 3.10428 4.60893 3.81531 3.84685 4.70115C3.08478 5.58699 2.52274 6.62679 2.19909 7.74961C1.87544 8.87243 1.79779 10.0518 1.97144 11.2074C2.14509 12.363 2.56595 13.4675 3.20531 14.4456C3.84467 15.4237 4.68749 16.2524 5.67627 16.8751C6.66504 17.4978 7.77651 17.9 8.93484 18.054C10.0932 18.2081 11.2711 18.1106 12.3883 17.768C12.4858 17.738 12.5744 17.6843 12.6461 17.6117L17.6125 12.6453C17.685 12.5732 17.7386 12.4844 17.7688 12.3867C18.1407 11.1715 18.2226 9.88594 18.0079 8.63331C17.7932 7.38067 17.2879 6.1958 16.5325 5.17374C15.7772 4.15167 14.7928 3.32088 13.6583 2.74801C12.5238 2.17514 11.2709 1.87614 10 1.875ZM7.18751 7.5C7.37293 7.5 7.55419 7.55498 7.70836 7.658C7.86253 7.76101 7.98269 7.90743 8.05365 8.07873C8.12461 8.25004 8.14317 8.43854 8.107 8.6204C8.07083 8.80225 7.98154 8.9693 7.85043 9.10041C7.71931 9.23152 7.55227 9.32081 7.37041 9.35699C7.18855 9.39316 7.00005 9.37459 6.82875 9.30364C6.65744 9.23268 6.51102 9.11252 6.40801 8.95835C6.305 8.80418 6.25001 8.62292 6.25001 8.4375C6.25001 8.18886 6.34879 7.9504 6.5246 7.77459C6.70042 7.59877 6.93887 7.5 7.18751 7.5ZM13.6656 12.1875C12.8617 13.5773 11.5258 14.375 10 14.375C8.47423 14.375 7.13829 13.5781 6.33439 12.1875C6.28917 12.1164 6.2588 12.0368 6.24512 11.9536C6.23144 11.8705 6.23473 11.7854 6.25478 11.7035C6.27484 11.6216 6.31124 11.5447 6.36182 11.4772C6.41239 11.4098 6.47608 11.3533 6.54906 11.3111C6.62204 11.2689 6.70279 11.2419 6.78647 11.2318C6.87015 11.2216 6.95502 11.2285 7.03597 11.252C7.11693 11.2754 7.1923 11.3151 7.25754 11.3684C7.32279 11.4218 7.37657 11.4878 7.41564 11.5625C7.99923 12.5711 8.91642 13.125 10 13.125C11.0836 13.125 12.0008 12.5703 12.5844 11.5625C12.6235 11.4878 12.6772 11.4218 12.7425 11.3684C12.8077 11.3151 12.8831 11.2754 12.9641 11.252C13.045 11.2285 13.1299 11.2216 13.2136 11.2318C13.2972 11.2419 13.378 11.2689 13.451 11.3111C13.5239 11.3533 13.5876 11.4098 13.6382 11.4772C13.6888 11.5447 13.7252 11.6216 13.7452 11.7035C13.7653 11.7854 13.7686 11.8705 13.7549 11.9536C13.7412 12.0368 13.7109 12.1164 13.6656 12.1875ZM12.8125 9.375C12.6271 9.375 12.4458 9.32002 12.2917 9.217C12.1375 9.11399 12.0173 8.96757 11.9464 8.79627C11.8754 8.62496 11.8569 8.43646 11.893 8.2546C11.9292 8.07275 12.0185 7.9057 12.1496 7.77459C12.2807 7.64348 12.4478 7.55419 12.6296 7.51801C12.8115 7.48184 13 7.50041 13.1713 7.57136C13.3426 7.64232 13.489 7.76248 13.592 7.91665C13.695 8.07082 13.75 8.25208 13.75 8.4375C13.75 8.68614 13.6512 8.9246 13.4754 9.10041C13.2996 9.27623 13.0612 9.375 12.8125 9.375Z" fill="#191F2E"/>
</svg>
