<svg width="20" height="20" viewBox="0 0 20 20" fill="none" xmlns="http://www.w3.org/2000/svg">
<path d="M10 1.875C8.39303 1.875 6.82214 2.35152 5.486 3.24431C4.14985 4.1371 3.10844 5.40605 2.49348 6.8907C1.87852 8.37535 1.71762 10.009 2.03112 11.5851C2.34463 13.1612 3.11846 14.6089 4.25476 15.7452C5.39106 16.8815 6.8388 17.6554 8.4149 17.9689C9.99099 18.2824 11.6247 18.1215 13.1093 17.5065C14.594 16.8916 15.8629 15.8502 16.7557 14.514C17.6485 13.1779 18.125 11.607 18.125 10C18.1227 7.84581 17.266 5.78051 15.7427 4.25727C14.2195 2.73403 12.1542 1.87727 10 1.875ZM7.1875 7.5C7.37292 7.5 7.55418 7.55498 7.70835 7.658C7.86252 7.76101 7.98268 7.90743 8.05364 8.07873C8.1246 8.25004 8.14316 8.43854 8.10699 8.6204C8.07082 8.80225 7.98153 8.9693 7.85042 9.10041C7.7193 9.23152 7.55226 9.32081 7.3704 9.35699C7.18854 9.39316 7.00004 9.37459 6.82874 9.30364C6.65743 9.23268 6.51101 9.11252 6.408 8.95835C6.30499 8.80418 6.25 8.62292 6.25 8.4375C6.25 8.18886 6.34878 7.9504 6.52459 7.77459C6.70041 7.59877 6.93886 7.5 7.1875 7.5ZM13.6656 12.1875C12.8617 13.5773 11.5258 14.375 10 14.375C8.47422 14.375 7.13829 13.5781 6.33438 12.1875C6.28916 12.1164 6.25879 12.0368 6.24511 11.9536C6.23143 11.8705 6.23472 11.7854 6.25477 11.7035C6.27483 11.6216 6.31123 11.5447 6.36181 11.4772C6.41238 11.4098 6.47607 11.3533 6.54905 11.3111C6.62203 11.2689 6.70278 11.2419 6.78646 11.2318C6.87014 11.2216 6.95501 11.2285 7.03596 11.252C7.11692 11.2754 7.19229 11.3151 7.25753 11.3684C7.32278 11.4218 7.37656 11.4878 7.41563 11.5625C7.99922 12.5711 8.91641 13.125 10 13.125C11.0836 13.125 12.0008 12.5703 12.5844 11.5625C12.6235 11.4878 12.6772 11.4218 12.7425 11.3684C12.8077 11.3151 12.8831 11.2754 12.964 11.252C13.045 11.2285 13.1299 11.2216 13.2135 11.2318C13.2972 11.2419 13.378 11.2689 13.451 11.3111C13.5239 11.3533 13.5876 11.4098 13.6382 11.4772C13.6888 11.5447 13.7252 11.6216 13.7452 11.7035C13.7653 11.7854 13.7686 11.8705 13.7549 11.9536C13.7412 12.0368 13.7108 12.1164 13.6656 12.1875ZM12.8125 9.375C12.6271 9.375 12.4458 9.32002 12.2917 9.217C12.1375 9.11399 12.0173 8.96757 11.9464 8.79627C11.8754 8.62496 11.8568 8.43646 11.893 8.2546C11.9292 8.07275 12.0185 7.9057 12.1496 7.77459C12.2807 7.64348 12.4477 7.55419 12.6296 7.51801C12.8115 7.48184 13 7.50041 13.1713 7.57136C13.3426 7.64232 13.489 7.76248 13.592 7.91665C13.695 8.07082 13.75 8.25208 13.75 8.4375C13.75 8.68614 13.6512 8.9246 13.4754 9.10041C13.2996 9.27623 13.0611 9.375 12.8125 9.375Z" fill="#191F2E"/>
</svg>
