<svg width="20" height="20" viewBox="0 0 20 20" fill="none" xmlns="http://www.w3.org/2000/svg">
<path d="M10 1.875C8.39303 1.875 6.82214 2.35152 5.486 3.24431C4.14985 4.1371 3.10844 5.40605 2.49348 6.8907C1.87852 8.37535 1.71762 10.009 2.03112 11.5851C2.34463 13.1612 3.11846 14.6089 4.25476 15.7452C5.39106 16.8815 6.8388 17.6554 8.4149 17.9689C9.99099 18.2824 11.6247 18.1215 13.1093 17.5065C14.594 16.8916 15.8629 15.8502 16.7557 14.514C17.6485 13.1779 18.125 11.607 18.125 10C18.1227 7.84581 17.266 5.78051 15.7427 4.25727C14.2195 2.73403 12.1542 1.87727 10 1.875ZM6.25 10.9375C6.25 10.7521 6.30499 10.5708 6.408 10.4167C6.51101 10.2625 6.65743 10.1423 6.82874 10.0714C7.00004 10.0004 7.18854 9.98184 7.3704 10.018C7.55226 10.0542 7.7193 10.1435 7.85042 10.2746C7.98153 10.4057 8.07082 10.5727 8.10699 10.7546C8.14316 10.9365 8.1246 11.125 8.05364 11.2963C7.98268 11.4676 7.86252 11.614 7.70835 11.717C7.55418 11.82 7.37292 11.875 7.1875 11.875C6.93886 11.875 6.70041 11.7762 6.52459 11.6004C6.34878 11.4246 6.25 11.1861 6.25 10.9375ZM12.3953 14.7211C12.3035 14.8591 12.1607 14.9549 11.9982 14.9876C11.8357 15.0203 11.6669 14.9871 11.5289 14.8953C11.0211 14.5578 10.625 14.375 10 14.375C9.375 14.375 8.97891 14.5578 8.4711 14.8953C8.33309 14.9837 8.1659 15.0143 8.00553 14.9806C7.84517 14.9469 7.70445 14.8515 7.6137 14.7151C7.52294 14.5787 7.4894 14.412 7.5203 14.2511C7.5512 14.0902 7.64407 13.9478 7.77891 13.8547C8.4375 13.4164 9.06719 13.125 10 13.125C10.9328 13.125 11.5625 13.4164 12.2211 13.8547C12.3591 13.9465 12.4549 14.0893 12.4876 14.2518C12.5203 14.4143 12.4871 14.5831 12.3953 14.7211ZM12.8125 11.875C12.6271 11.875 12.4458 11.82 12.2917 11.717C12.1375 11.614 12.0173 11.4676 11.9464 11.2963C11.8754 11.125 11.8568 10.9365 11.893 10.7546C11.9292 10.5727 12.0185 10.4057 12.1496 10.2746C12.2807 10.1435 12.4477 10.0542 12.6296 10.018C12.8115 9.98184 13 10.0004 13.1713 10.0714C13.3426 10.1423 13.489 10.2625 13.592 10.4167C13.695 10.5708 13.75 10.7521 13.75 10.9375C13.75 11.1861 13.6512 11.4246 13.4754 11.6004C13.2996 11.7762 13.0611 11.875 12.8125 11.875ZM14.0969 7.39531L10.3469 9.89531C10.2442 9.96384 10.1235 10.0004 10 10.0004C9.87654 10.0004 9.75583 9.96384 9.65313 9.89531L5.90313 7.39531C5.8348 7.34976 5.77611 7.2912 5.73042 7.22296C5.68472 7.15473 5.65291 7.07816 5.63681 6.99764C5.6207 6.91711 5.62062 6.8342 5.63655 6.75364C5.65249 6.67309 5.68414 6.59645 5.72969 6.52812C5.82169 6.39013 5.96474 6.29433 6.12736 6.26181C6.20789 6.2457 6.2908 6.24561 6.37136 6.26155C6.45192 6.27749 6.52855 6.30913 6.59688 6.35469L10 8.62422L13.4031 6.35859C13.4715 6.31304 13.5481 6.28139 13.6286 6.26546C13.7092 6.24952 13.7921 6.24961 13.8726 6.26571C13.9532 6.28182 14.0297 6.31363 14.098 6.35932C14.1662 6.40502 14.2248 6.4637 14.2703 6.53203C14.3159 6.60036 14.3475 6.67699 14.3635 6.75755C14.3794 6.83811 14.3793 6.92102 14.3632 7.00154C14.3471 7.08207 14.3153 7.15864 14.2696 7.22687C14.2239 7.2951 14.1652 7.35367 14.0969 7.39922V7.39531Z" fill="#191F2E"/>
</svg>
