<svg width="20" height="20" viewBox="0 0 20 20" fill="none" xmlns="http://www.w3.org/2000/svg">
<path d="M9.99997 1.5625C8.7866 1.56357 7.58774 1.82634 6.48515 2.33287C5.38257 2.8394 4.4022 3.57778 3.61093 4.49764C2.81965 5.4175 2.23608 6.49721 1.90002 7.66311C1.56396 8.82902 1.48332 10.0537 1.66359 11.2536C1.84387 12.4535 2.28082 13.6004 2.94464 14.6161C3.60847 15.6318 4.48354 16.4923 5.51019 17.139C6.53683 17.7858 7.69089 18.2035 8.89364 18.3637C10.0964 18.5238 11.3195 18.4227 12.4797 18.0672C12.6272 18.0224 12.7613 17.9419 12.8703 17.8328L17.8367 12.8664C17.9456 12.7573 18.0261 12.6232 18.0711 12.4758C18.4571 11.2137 18.5418 9.8786 18.3186 8.57779C18.0953 7.27697 17.5702 6.04661 16.7854 4.98545C16.0006 3.92428 14.9779 3.06187 13.7995 2.46742C12.6211 1.87297 11.3198 1.56304 9.99997 1.5625ZM16.3375 11.7117L11.7125 16.3367C10.3191 16.7116 8.84085 16.6161 7.5073 16.0649C6.17375 15.5137 5.05943 14.5377 4.33731 13.2885C3.61519 12.0392 3.32565 10.5865 3.51363 9.15579C3.70161 7.72511 4.35659 6.3965 5.37692 5.37617C6.39726 4.35584 7.72587 3.70085 9.15654 3.51287C10.5872 3.32489 12.0399 3.61443 13.2892 4.33656C14.5385 5.05868 15.5145 6.17299 16.0656 7.50655C16.6168 8.8401 16.7124 10.3183 16.3375 11.7117ZM5.93747 8.4375C5.93747 8.19027 6.01078 7.9486 6.14814 7.74304C6.28549 7.53748 6.48071 7.37726 6.70912 7.28265C6.93753 7.18804 7.18886 7.16329 7.43134 7.21152C7.67381 7.25975 7.89654 7.3788 8.07136 7.55362C8.24617 7.72843 8.36522 7.95116 8.41345 8.19364C8.46169 8.43611 8.43693 8.68745 8.34232 8.91585C8.24771 9.14426 8.0875 9.33949 7.88194 9.47684C7.67637 9.61419 7.4347 9.6875 7.18747 9.6875C6.85595 9.6875 6.53801 9.5558 6.30359 9.32138C6.06917 9.08696 5.93747 8.76902 5.93747 8.4375ZM14.0625 8.4375C14.0625 8.68473 13.9892 8.9264 13.8518 9.13196C13.7145 9.33752 13.5192 9.49774 13.2908 9.59235C13.0624 9.68696 12.8111 9.71171 12.5686 9.66348C12.3261 9.61525 12.1034 9.4962 11.9286 9.32138C11.7538 9.14657 11.6347 8.92384 11.5865 8.68136C11.5383 8.43889 11.563 8.18755 11.6576 7.95915C11.7522 7.73074 11.9124 7.53551 12.118 7.39816C12.3236 7.26081 12.5652 7.1875 12.8125 7.1875C13.144 7.1875 13.4619 7.3192 13.6964 7.55362C13.9308 7.78804 14.0625 8.10598 14.0625 8.4375ZM13.9367 12.3438C13.0773 13.8328 11.6406 14.6875 9.99997 14.6875C8.35935 14.6875 6.92497 13.8336 6.06325 12.3438C5.94429 12.1288 5.91447 11.8757 5.98019 11.639C6.04592 11.4023 6.20194 11.2008 6.4147 11.078C6.62745 10.9551 6.87993 10.9207 7.11781 10.9821C7.35569 11.0435 7.55997 11.1958 7.68669 11.4062C7.9906 11.932 8.69528 12.8125 9.99997 12.8125C11.3047 12.8125 12.0093 11.9312 12.3133 11.4062C12.3736 11.2973 12.455 11.2014 12.5528 11.1242C12.6505 11.0471 12.7627 10.9902 12.8827 10.9569C13.0027 10.9235 13.1282 10.9145 13.2517 10.9302C13.3753 10.9459 13.4945 10.9861 13.6024 11.0483C13.7102 11.1106 13.8046 11.1938 13.8799 11.2929C13.9553 11.3921 14.0101 11.5053 14.0413 11.6259C14.0724 11.7465 14.0792 11.8721 14.0612 11.9954C14.0433 12.1186 14.0009 12.237 13.9367 12.3438Z" fill="#191F2E"/>
</svg>
