<svg width="20" height="20" viewBox="0 0 20 20" fill="none" xmlns="http://www.w3.org/2000/svg">
<path d="M13.9367 12.3438C13.0773 13.8328 11.6406 14.6875 10 14.6875C8.35938 14.6875 6.925 13.8336 6.06329 12.3438C5.94433 12.1288 5.9145 11.8757 5.98023 11.639C6.04595 11.4023 6.20197 11.2008 6.41473 11.078C6.62748 10.9551 6.87996 10.9207 7.11784 10.9821C7.35572 11.0435 7.56 11.1958 7.68672 11.4062C7.99063 11.932 8.69532 12.8125 10 12.8125C11.3047 12.8125 12.0094 11.9312 12.3133 11.4062C12.3736 11.2973 12.455 11.2014 12.5528 11.1242C12.6506 11.0471 12.7627 10.9902 12.8827 10.9569C13.0028 10.9235 13.1282 10.9145 13.2518 10.9302C13.3753 10.9459 13.4945 10.9861 13.6024 11.0483C13.7102 11.1106 13.8046 11.1938 13.88 11.2929C13.9553 11.3921 14.0102 11.5053 14.0413 11.6259C14.0724 11.7465 14.0792 11.8721 14.0613 11.9954C14.0433 12.1186 14.001 12.237 13.9367 12.3438ZM18.4375 10C18.4375 11.6688 17.9427 13.3001 17.0155 14.6876C16.0884 16.0752 14.7706 17.1566 13.2289 17.7952C11.6871 18.4338 9.99064 18.6009 8.35393 18.2754C6.71721 17.9498 5.2138 17.1462 4.03379 15.9662C2.85379 14.7862 2.05019 13.2828 1.72463 11.6461C1.39907 10.0094 1.56616 8.31286 2.20477 6.77111C2.84338 5.22936 3.92484 3.9116 5.31238 2.98448C6.69992 2.05735 8.33122 1.5625 10 1.5625C12.237 1.56498 14.3817 2.45473 15.9635 4.03653C17.5453 5.61833 18.435 7.763 18.4375 10ZM16.5625 10C16.5625 8.70206 16.1776 7.43327 15.4565 6.35407C14.7354 5.27487 13.7105 4.43374 12.5114 3.93704C11.3122 3.44034 9.99272 3.31038 8.71972 3.5636C7.44672 3.81681 6.2774 4.44183 5.35962 5.35961C4.44183 6.27739 3.81682 7.44672 3.5636 8.71972C3.31038 9.99272 3.44034 11.3122 3.93704 12.5114C4.43374 13.7105 5.27488 14.7354 6.35407 15.4565C7.43327 16.1776 8.70206 16.5625 10 16.5625C11.7399 16.5606 13.408 15.8686 14.6383 14.6383C15.8686 13.408 16.5606 11.7399 16.5625 10ZM7.1875 9.6875C7.43473 9.6875 7.6764 9.61419 7.88197 9.47684C8.08753 9.33949 8.24774 9.14426 8.34235 8.91585C8.43696 8.68745 8.46172 8.43611 8.41349 8.19364C8.36525 7.95116 8.2462 7.72843 8.07139 7.55362C7.89657 7.3788 7.67384 7.25975 7.43137 7.21152C7.18889 7.16329 6.93756 7.18804 6.70915 7.28265C6.48074 7.37726 6.28552 7.53748 6.14817 7.74304C6.01082 7.9486 5.9375 8.19027 5.9375 8.4375C5.9375 8.76902 6.0692 9.08696 6.30362 9.32138C6.53804 9.5558 6.85598 9.6875 7.1875 9.6875ZM12.8125 7.1875C12.5653 7.1875 12.3236 7.26081 12.118 7.39816C11.9125 7.53551 11.7523 7.73074 11.6577 7.95915C11.563 8.18755 11.5383 8.43889 11.5865 8.68136C11.6348 8.92384 11.7538 9.14657 11.9286 9.32138C12.1034 9.4962 12.3262 9.61525 12.5686 9.66348C12.8111 9.71171 13.0625 9.68696 13.2909 9.59235C13.5193 9.49774 13.7145 9.33752 13.8518 9.13196C13.9892 8.9264 14.0625 8.68473 14.0625 8.4375C14.0625 8.10598 13.9308 7.78804 13.6964 7.55362C13.462 7.3192 13.144 7.1875 12.8125 7.1875Z" fill="#191F2E"/>
</svg>
