<svg width="20" height="20" viewBox="0 0 20 20" fill="none" xmlns="http://www.w3.org/2000/svg">
<path d="M10 1.875C8.39303 1.875 6.82214 2.35152 5.486 3.24431C4.14985 4.1371 3.10844 5.40605 2.49348 6.8907C1.87852 8.37535 1.71762 10.009 2.03112 11.5851C2.34463 13.1612 3.11846 14.6089 4.25476 15.7452C5.39106 16.8815 6.8388 17.6554 8.4149 17.9689C9.99099 18.2824 11.6247 18.1215 13.1093 17.5065C14.594 16.8916 15.8629 15.8502 16.7557 14.514C17.6485 13.1779 18.125 11.607 18.125 10C18.1227 7.84581 17.266 5.78051 15.7427 4.25727C14.2195 2.73403 12.1542 1.87727 10 1.875ZM12.8125 7.5C12.9979 7.5 13.1792 7.55498 13.3334 7.658C13.4875 7.76101 13.6077 7.90743 13.6786 8.07873C13.7496 8.25004 13.7682 8.43854 13.732 8.6204C13.6958 8.80225 13.6065 8.9693 13.4754 9.10041C13.3443 9.23152 13.1773 9.32081 12.9954 9.35699C12.8135 9.39316 12.625 9.37459 12.4537 9.30364C12.2824 9.23268 12.136 9.11252 12.033 8.95835C11.93 8.80418 11.875 8.62292 11.875 8.4375C11.875 8.18886 11.9738 7.9504 12.1496 7.77459C12.3254 7.59877 12.5639 7.5 12.8125 7.5ZM7.1875 7.5C7.37292 7.5 7.55418 7.55498 7.70835 7.658C7.86252 7.76101 7.98268 7.90743 8.05364 8.07873C8.1246 8.25004 8.14316 8.43854 8.10699 8.6204C8.07082 8.80225 7.98153 8.9693 7.85042 9.10041C7.7193 9.23152 7.55226 9.32081 7.3704 9.35699C7.18854 9.39316 7.00004 9.37459 6.82874 9.30364C6.65743 9.23268 6.51101 9.11252 6.408 8.95835C6.30499 8.80418 6.25 8.62292 6.25 8.4375C6.25 8.18886 6.34878 7.9504 6.52459 7.77459C6.70041 7.59877 6.93886 7.5 7.1875 7.5ZM14.1922 13.5672C14.1341 13.6253 14.0652 13.6714 13.9893 13.7029C13.9135 13.7343 13.8321 13.7505 13.75 13.7505C13.6679 13.7505 13.5865 13.7343 13.5107 13.7029C13.4348 13.6714 13.3659 13.6253 13.3078 13.5672L12.5 12.7586L11.6922 13.5672C11.6341 13.6253 11.5652 13.6714 11.4893 13.7029C11.4135 13.7343 11.3321 13.7505 11.25 13.7505C11.1679 13.7505 11.0865 13.7343 11.0107 13.7029C10.9348 13.6714 10.8659 13.6253 10.8078 13.5672L10 12.7586L9.19219 13.5672C9.13415 13.6253 9.06522 13.6714 8.98934 13.7029C8.91347 13.7343 8.83214 13.7505 8.75 13.7505C8.66787 13.7505 8.58654 13.7343 8.51067 13.7029C8.43479 13.6714 8.36586 13.6253 8.30782 13.5672L7.5 12.7586L6.69219 13.5672C6.57492 13.6845 6.41586 13.7503 6.25 13.7503C6.08415 13.7503 5.92509 13.6845 5.80782 13.5672C5.69054 13.4499 5.62466 13.2909 5.62466 13.125C5.62466 12.9591 5.69054 12.8001 5.80782 12.6828L7.05782 11.4328C7.11586 11.3747 7.18479 11.3286 7.26067 11.2971C7.33654 11.2657 7.41787 11.2495 7.5 11.2495C7.58214 11.2495 7.66347 11.2657 7.73934 11.2971C7.81522 11.3286 7.88415 11.3747 7.94219 11.4328L8.75 12.2414L9.55782 11.4328C9.61586 11.3747 9.68479 11.3286 9.76067 11.2971C9.83654 11.2657 9.91787 11.2495 10 11.2495C10.0821 11.2495 10.1635 11.2657 10.2393 11.2971C10.3152 11.3286 10.3841 11.3747 10.4422 11.4328L11.25 12.2414L12.0578 11.4328C12.1159 11.3747 12.1848 11.3286 12.2607 11.2971C12.3365 11.2657 12.4179 11.2495 12.5 11.2495C12.5821 11.2495 12.6635 11.2657 12.7393 11.2971C12.8152 11.3286 12.8841 11.3747 12.9422 11.4328L14.1922 12.6828C14.2503 12.7409 14.2964 12.8098 14.3279 12.8857C14.3593 12.9615 14.3755 13.0429 14.3755 13.125C14.3755 13.2071 14.3593 13.2885 14.3279 13.3643C14.2964 13.4402 14.2503 13.5091 14.1922 13.5672Z" fill="#191F2E"/>
</svg>
