<svg width="20" height="20" viewBox="0 0 20 20" fill="none" xmlns="http://www.w3.org/2000/svg">
<path d="M10 1.875C8.39303 1.875 6.82214 2.35152 5.486 3.24431C4.14985 4.1371 3.10844 5.40605 2.49348 6.8907C1.87852 8.37535 1.71762 10.009 2.03112 11.5851C2.34463 13.1612 3.11846 14.6089 4.25476 15.7452C5.39106 16.8815 6.8388 17.6554 8.4149 17.9689C9.99099 18.2824 11.6247 18.1215 13.1093 17.5065C14.594 16.8916 15.8629 15.8502 16.7557 14.514C17.6485 13.1779 18.125 11.607 18.125 10C18.1227 7.84581 17.266 5.78051 15.7427 4.25727C14.2195 2.73403 12.1542 1.87727 10 1.875ZM10 16.875C8.64026 16.875 7.31105 16.4718 6.18046 15.7164C5.04987 14.9609 4.16868 13.8872 3.64833 12.6309C3.12798 11.3747 2.99183 9.99237 3.2571 8.65875C3.52238 7.32513 4.17716 6.10013 5.13864 5.13864C6.10013 4.17716 7.32514 3.52237 8.65876 3.2571C9.99238 2.99183 11.3747 3.12798 12.631 3.64833C13.8872 4.16868 14.9609 5.04987 15.7164 6.18045C16.4718 7.31104 16.875 8.64025 16.875 10C16.8729 11.8227 16.1479 13.5702 14.8591 14.8591C13.5702 16.1479 11.8227 16.8729 10 16.875ZM6.25 8.4375C6.25 8.25208 6.30499 8.07082 6.408 7.91665C6.51101 7.76248 6.65743 7.64232 6.82874 7.57136C7.00004 7.50041 7.18854 7.48184 7.3704 7.51801C7.55226 7.55419 7.7193 7.64348 7.85042 7.77459C7.98153 7.9057 8.07082 8.07275 8.10699 8.2546C8.14316 8.43646 8.1246 8.62496 8.05364 8.79627C7.98268 8.96757 7.86252 9.11399 7.70835 9.217C7.55418 9.32002 7.37292 9.375 7.1875 9.375C6.93886 9.375 6.70041 9.27623 6.52459 9.10041C6.34878 8.9246 6.25 8.68614 6.25 8.4375ZM13.75 8.4375C13.75 8.62292 13.695 8.80418 13.592 8.95835C13.489 9.11252 13.3426 9.23268 13.1713 9.30364C13 9.37459 12.8115 9.39316 12.6296 9.35699C12.4477 9.32081 12.2807 9.23152 12.1496 9.10041C12.0185 8.9693 11.9292 8.80225 11.893 8.6204C11.8568 8.43854 11.8754 8.25004 11.9464 8.07873C12.0173 7.90743 12.1375 7.76101 12.2917 7.658C12.4458 7.55498 12.6271 7.5 12.8125 7.5C13.0611 7.5 13.2996 7.59877 13.4754 7.77459C13.6512 7.9504 13.75 8.18886 13.75 8.4375ZM13.6656 13.4375C13.7108 13.5086 13.7412 13.5882 13.7549 13.6714C13.7686 13.7545 13.7653 13.8396 13.7452 13.9215C13.7252 14.0034 13.6888 14.0803 13.6382 14.1478C13.5876 14.2152 13.5239 14.2717 13.451 14.3139C13.378 14.3561 13.2972 14.3831 13.2135 14.3932C13.1299 14.4034 13.045 14.3965 12.964 14.373C12.8831 14.3496 12.8077 14.3099 12.7425 14.2566C12.6772 14.2032 12.6235 14.1372 12.5844 14.0625C12.0008 13.0539 11.0836 12.5 10 12.5C8.91641 12.5 7.99922 13.0547 7.41563 14.0625C7.37656 14.1372 7.32278 14.2032 7.25753 14.2566C7.19229 14.3099 7.11692 14.3496 7.03596 14.373C6.95501 14.3965 6.87014 14.4034 6.78646 14.3932C6.70278 14.3831 6.62203 14.3561 6.54905 14.3139C6.47607 14.2717 6.41238 14.2152 6.36181 14.1478C6.31123 14.0803 6.27483 14.0034 6.25477 13.9215C6.23472 13.8396 6.23143 13.7545 6.24511 13.6714C6.25879 13.5882 6.28916 13.5086 6.33438 13.4375C7.13829 12.0477 8.47422 11.25 10 11.25C11.5258 11.25 12.8617 12.0469 13.6656 13.4375Z" fill="#191F2E"/>
</svg>
