<svg width="20" height="20" viewBox="0 0 20 20" fill="none" xmlns="http://www.w3.org/2000/svg">
<path d="M10 1.5625C8.33122 1.5625 6.69992 2.05735 5.31238 2.98448C3.92484 3.9116 2.84338 5.22936 2.20477 6.77111C1.56616 8.31286 1.39907 10.0094 1.72463 11.6461C2.05019 13.2828 2.85379 14.7862 4.03379 15.9662C5.2138 17.1462 6.71721 17.9498 8.35393 18.2754C9.99064 18.6009 11.6871 18.4338 13.2289 17.7952C14.7706 17.1566 16.0884 16.0752 17.0155 14.6876C17.9427 13.3001 18.4375 11.6688 18.4375 10C18.435 7.763 17.5453 5.61833 15.9635 4.03653C14.3817 2.45473 12.237 1.56498 10 1.5625ZM10 16.5625C8.70206 16.5625 7.43327 16.1776 6.35407 15.4565C5.27488 14.7354 4.43374 13.7105 3.93704 12.5114C3.44034 11.3122 3.31038 9.99272 3.5636 8.71972C3.81682 7.44672 4.44183 6.27739 5.35962 5.35961C6.2774 4.44183 7.44672 3.81681 8.71972 3.5636C9.99272 3.31038 11.3122 3.44034 12.5114 3.93704C13.7105 4.43374 14.7354 5.27487 15.4565 6.35407C16.1776 7.43327 16.5625 8.70206 16.5625 10C16.5606 11.7399 15.8686 13.408 14.6383 14.6383C13.408 15.8686 11.7399 16.5606 10 16.5625ZM14.0625 12.5C14.0625 12.7486 13.9637 12.9871 13.7879 13.1629C13.6121 13.3387 13.3736 13.4375 13.125 13.4375H6.875C6.62636 13.4375 6.38791 13.3387 6.21209 13.1629C6.03628 12.9871 5.9375 12.7486 5.9375 12.5C5.9375 12.2514 6.03628 12.0129 6.21209 11.8371C6.38791 11.6613 6.62636 11.5625 6.875 11.5625H13.125C13.3736 11.5625 13.6121 11.6613 13.7879 11.8371C13.9637 12.0129 14.0625 12.2514 14.0625 12.5ZM5.9375 8.4375C5.9375 8.19027 6.01082 7.9486 6.14817 7.74304C6.28552 7.53748 6.48074 7.37726 6.70915 7.28265C6.93756 7.18804 7.18889 7.16329 7.43137 7.21152C7.67384 7.25975 7.89657 7.3788 8.07139 7.55362C8.2462 7.72843 8.36525 7.95116 8.41349 8.19364C8.46172 8.43611 8.43696 8.68745 8.34235 8.91585C8.24774 9.14426 8.08753 9.33949 7.88197 9.47684C7.6764 9.61419 7.43473 9.6875 7.1875 9.6875C6.85598 9.6875 6.53804 9.5558 6.30362 9.32138C6.0692 9.08696 5.9375 8.76902 5.9375 8.4375ZM14.0625 8.4375C14.0625 8.68473 13.9892 8.9264 13.8518 9.13196C13.7145 9.33752 13.5193 9.49774 13.2909 9.59235C13.0625 9.68696 12.8111 9.71171 12.5686 9.66348C12.3262 9.61525 12.1034 9.4962 11.9286 9.32138C11.7538 9.14657 11.6348 8.92384 11.5865 8.68136C11.5383 8.43889 11.563 8.18755 11.6577 7.95915C11.7523 7.73074 11.9125 7.53551 12.118 7.39816C12.3236 7.26081 12.5653 7.1875 12.8125 7.1875C13.144 7.1875 13.462 7.3192 13.6964 7.55362C13.9308 7.78804 14.0625 8.10598 14.0625 8.4375Z" fill="#191F2E"/>
</svg>
