<svg width="20" height="20" viewBox="0 0 20 20" fill="none" xmlns="http://www.w3.org/2000/svg">
<path d="M19.9844 12.7288V12.7046C19.9179 12.0467 19.6628 11.422 19.2498 10.9057C18.8368 10.3893 18.2834 10.0031 17.6562 9.79369L13.2328 8.21557L13.2141 8.20853C13.009 8.14019 12.8204 8.03006 12.6601 7.8851C12.4998 7.74013 12.3714 7.5635 12.2828 7.36635L10.4734 3.12494L10.4688 3.11244C10.3067 2.75214 10.0146 2.46632 9.65087 2.31219C9.28713 2.15806 8.87859 2.14699 8.50703 2.28119L2.59141 4.43197C2.2903 4.54221 2.03023 4.74211 1.84626 5.00474C1.66228 5.26736 1.56325 5.58007 1.5625 5.90072V14.9999C1.5625 15.4143 1.72712 15.8118 2.02015 16.1048C2.31317 16.3978 2.7106 16.5624 3.125 16.5624H18.4375C18.8519 16.5624 19.2493 16.3978 19.5424 16.1048C19.8354 15.8118 20 15.4143 20 14.9999V13.0515C20 12.9429 19.9945 12.8359 19.9844 12.7288ZM8.86953 4.14447L9.33828 5.23822L8.11719 5.68119C7.99904 5.72135 7.8901 5.78468 7.79675 5.86749C7.7034 5.95029 7.62752 6.0509 7.57356 6.16341C7.5196 6.27592 7.48865 6.39807 7.48251 6.5227C7.47637 6.64734 7.49517 6.77194 7.53782 6.88921C7.58046 7.00648 7.64608 7.11405 7.73084 7.20563C7.8156 7.29721 7.91779 7.37094 8.03142 7.42251C8.14505 7.47408 8.26783 7.50245 8.39256 7.50595C8.51729 7.50946 8.64147 7.48802 8.75781 7.44291L10.0781 6.964L10.4328 7.79447L9.37031 8.1851C9.16589 8.26202 8.99474 8.40791 8.88641 8.59758C8.77808 8.78724 8.73938 9.00878 8.77699 9.22393C8.81459 9.43909 8.92614 9.63437 9.09238 9.77605C9.25861 9.91773 9.4691 9.99691 9.6875 9.99994C9.79681 10.0001 9.90527 9.98077 10.0078 9.94291L11.5367 9.38744C11.8571 9.64992 12.2224 9.85215 12.6148 9.98432L17.0383 11.5624L17.0563 11.5687C17.253 11.6339 17.4347 11.7377 17.5906 11.8742H3.4375V6.11947L8.86953 4.14447ZM3.4375 14.6874V13.7499H18.125V14.6874H3.4375Z" fill="#191F2E"/>
</svg>
