<svg width="20" height="20" viewBox="0 0 20 20" fill="none" xmlns="http://www.w3.org/2000/svg">
<path d="M16.5625 11.5625C16.0652 11.5625 15.5883 11.365 15.2367 11.0134C14.885 10.6617 14.6875 10.1848 14.6875 9.68755V7.47739C14.6848 7.08519 14.5358 6.70813 14.2696 6.4201C14.0034 6.13207 13.6392 5.95385 13.2484 5.92036C11.5195 5.7813 10.3961 4.68755 10.3172 3.07036C10.2984 2.68273 10.1361 2.31596 9.86172 2.04145L9.21875 1.39848C8.93126 1.10836 8.54119 0.942951 8.13279 0.937982C7.72438 0.933012 7.3304 1.08888 7.03594 1.37192L7.01875 1.38911L2.01875 6.3977C1.72583 6.69071 1.56127 7.08807 1.56127 7.50239C1.56127 7.91671 1.72583 8.31407 2.01875 8.60708L2.02891 8.61723L10.4102 16.736C10.5546 16.8797 10.726 16.9935 10.9145 17.071C11.1029 17.1485 11.3048 17.1881 11.5086 17.1875H18.4375C18.8519 17.1875 19.2493 17.0229 19.5424 16.7299C19.8354 16.4369 20 16.0394 20 15.625V15C20 14.0884 19.6378 13.214 18.9932 12.5694C18.3485 11.9247 17.4742 11.5625 16.5625 11.5625ZM18.125 15.3125H11.6359L3.57031 7.50005L8.11484 2.94536L8.45156 3.2813C8.62187 5.67661 10.3477 7.43911 12.8125 7.75786V8.43755H11.5625C11.3139 8.43755 11.0754 8.53632 10.8996 8.71213C10.7238 8.88795 10.625 9.12641 10.625 9.37505C10.625 9.62369 10.7238 9.86214 10.8996 10.038C11.0754 10.2138 11.3139 10.3125 11.5625 10.3125H12.8656C12.9203 10.6364 13.0175 10.9516 13.1547 11.25H12.1875C11.9389 11.25 11.7004 11.3488 11.5246 11.5246C11.3488 11.7004 11.25 11.9389 11.25 12.1875C11.25 12.4362 11.3488 12.6746 11.5246 12.8505C11.7004 13.0263 11.9389 13.125 12.1875 13.125H15.0656C15.5376 13.3316 16.0473 13.438 16.5625 13.4375C16.9769 13.4375 17.3743 13.6022 17.6674 13.8952C17.9604 14.1882 18.125 14.5856 18.125 15V15.3125ZM4.0625 14.375H2.1875C1.93886 14.375 1.7004 14.2763 1.52459 14.1005C1.34877 13.9246 1.25 13.6862 1.25 13.4375C1.25 13.1889 1.34877 12.9504 1.52459 12.7746C1.7004 12.5988 1.93886 12.5 2.1875 12.5H4.0625C4.31114 12.5 4.5496 12.5988 4.72541 12.7746C4.90123 12.9504 5 13.1889 5 13.4375C5 13.6862 4.90123 13.9246 4.72541 14.1005C4.5496 14.2763 4.31114 14.375 4.0625 14.375ZM8.125 16.25C8.125 16.4987 8.02623 16.7371 7.85041 16.913C7.6746 17.0888 7.43614 17.1875 7.1875 17.1875H3.4375C3.18886 17.1875 2.9504 17.0888 2.77459 16.913C2.59877 16.7371 2.5 16.4987 2.5 16.25C2.5 16.0014 2.59877 15.7629 2.77459 15.5871C2.9504 15.4113 3.18886 15.3125 3.4375 15.3125H7.1875C7.43614 15.3125 7.6746 15.4113 7.85041 15.5871C8.02623 15.7629 8.125 16.0014 8.125 16.25Z" fill="#191F2E"/>
</svg>
