<svg width="20" height="20" viewBox="0 0 20 20" fill="none" xmlns="http://www.w3.org/2000/svg">
<path d="M17.8633 10.0868L15.6711 9.35628C15.6046 9.33312 15.5322 9.33312 15.4656 9.35628L12.0883 10.5844C12.02 10.6101 11.9479 10.6238 11.875 10.625C11.7382 10.625 11.6051 10.58 11.4963 10.497C11.3875 10.414 11.3089 10.2976 11.2727 10.1657C11.2332 10.0109 11.2532 9.84699 11.3287 9.70626C11.4042 9.56553 11.5297 9.45822 11.6805 9.4055L13.125 8.8805C13.1638 8.86652 13.1973 8.84078 13.2208 8.80688C13.2443 8.77297 13.2567 8.73258 13.2562 8.69133C13.2556 8.65008 13.2423 8.61001 13.2179 8.57671C13.1936 8.5434 13.1595 8.51851 13.1203 8.5055C12.8642 8.42003 12.6297 8.2801 12.4328 8.09534C12.3908 8.05394 12.3378 8.0253 12.2802 8.01271C12.2225 8.00013 12.1625 8.00413 12.107 8.02425L10.2148 8.71175C10.1338 8.74116 10.0476 8.75348 9.96153 8.74794C9.87549 8.74241 9.79154 8.71914 9.71493 8.67959C9.63833 8.64004 9.57074 8.58507 9.51641 8.51814C9.46207 8.4512 9.42217 8.37375 9.39922 8.29066C9.35977 8.1359 9.37977 7.97199 9.45527 7.83126C9.53077 7.69053 9.65628 7.58322 9.80703 7.5305L11.4062 6.94769C11.4463 6.93317 11.4829 6.91063 11.5139 6.88145C11.5448 6.85227 11.5695 6.81707 11.5864 6.77801C11.6033 6.73895 11.6121 6.69684 11.6121 6.65428C11.6122 6.61172 11.6035 6.5696 11.5867 6.5305L11.3477 5.97113C11.3163 5.89752 11.2579 5.83876 11.1845 5.80693C11.1111 5.77509 11.0283 5.77263 10.9531 5.80003L8.96094 6.52425C8.8799 6.55366 8.79365 6.56598 8.70762 6.56044C8.62159 6.55491 8.53763 6.53164 8.46103 6.49209C8.38443 6.45254 8.31683 6.39757 8.2625 6.33064C8.20817 6.2637 8.16827 6.18625 8.14531 6.10316C8.10587 5.9484 8.12587 5.78449 8.20137 5.64376C8.27686 5.50303 8.40238 5.39572 8.55313 5.343L10.4281 4.66097C10.468 4.64644 10.5046 4.62393 10.5355 4.5948C10.5664 4.56568 10.5911 4.53056 10.6079 4.49159C10.6248 4.45262 10.6336 4.41062 10.6337 4.36814C10.6338 4.32567 10.6253 4.28362 10.6086 4.24456L10.1867 3.25003C10.1867 3.25003 10.1867 3.24456 10.1867 3.24222C10.0576 2.9526 9.82323 2.72288 9.53109 2.59959C9.23895 2.47629 8.91086 2.46863 8.61328 2.57816L2.69766 4.72581C2.45682 4.81402 2.24883 4.97396 2.10173 5.18407C1.95463 5.39417 1.87549 5.64433 1.875 5.90081V15C1.875 15.3316 2.0067 15.6495 2.24112 15.8839C2.47554 16.1183 2.79348 16.25 3.125 16.25H18.75C19.0815 16.25 19.3995 16.1183 19.6339 15.8839C19.8683 15.6495 20 15.3316 20 15V13.0516C20 12.3957 19.7937 11.7564 19.4102 11.2243C19.0267 10.6921 18.4855 10.2942 17.8633 10.0868ZM18.75 15H3.125V13.75H18.75V15Z" fill="#191F2E"/>
</svg>
