<svg width="20" height="20" viewBox="0 0 20 20" fill="none" xmlns="http://www.w3.org/2000/svg">
<path d="M8.125 16.25C8.125 16.4158 8.05915 16.5748 7.94194 16.692C7.82473 16.8092 7.66576 16.875 7.5 16.875H3.75C3.58424 16.875 3.42527 16.8092 3.30806 16.692C3.19085 16.5748 3.125 16.4158 3.125 16.25C3.125 16.0843 3.19085 15.9253 3.30806 15.8081C3.42527 15.6909 3.58424 15.625 3.75 15.625H7.5C7.66576 15.625 7.82473 15.6909 7.94194 15.8081C8.05915 15.9253 8.125 16.0843 8.125 16.25ZM5.625 13.75C5.625 13.5843 5.55915 13.4253 5.44194 13.3081C5.32473 13.1909 5.16576 13.125 5 13.125H2.5C2.33424 13.125 2.17527 13.1909 2.05806 13.3081C1.94085 13.4253 1.875 13.5843 1.875 13.75C1.875 13.9158 1.94085 14.0748 2.05806 14.192C2.17527 14.3092 2.33424 14.375 2.5 14.375H5C5.16576 14.375 5.32473 14.3092 5.44194 14.192C5.55915 14.0748 5.625 13.9158 5.625 13.75ZM20 15V15.625C20 15.9566 19.8683 16.2745 19.6339 16.5089C19.3995 16.7433 19.0815 16.875 18.75 16.875H11.5086C11.179 16.8757 10.8627 16.7456 10.6289 16.5133L2.24844 8.39222L2.24141 8.38519C2.00716 8.15079 1.87558 7.83297 1.87558 7.5016C1.87558 7.17022 2.00716 6.8524 2.24141 6.618L7.24141 1.60863L7.25312 1.59769C7.48849 1.37094 7.8037 1.24602 8.1305 1.24997C8.4573 1.25392 8.76939 1.38642 8.99922 1.61878L9.64062 2.26566C9.86005 2.48539 9.98983 2.77892 10.0047 3.0891C10.093 4.8766 11.3328 6.08206 13.232 6.23519C13.5432 6.26193 13.8331 6.40418 14.0446 6.63393C14.2561 6.86368 14.374 7.16429 14.375 7.4766V9.37503C14.375 10.0381 14.6384 10.674 15.1072 11.1428C15.5761 11.6116 16.212 11.875 16.875 11.875C17.7038 11.875 18.4987 12.2043 19.0847 12.7903C19.6708 13.3764 20 14.1712 20 15ZM18.75 15C18.75 14.5028 18.5525 14.0258 18.2008 13.6742C17.8492 13.3226 17.3723 13.125 16.875 13.125C16.1385 13.1259 15.4183 12.9084 14.8055 12.5H12.5C12.3342 12.5 12.1753 12.4342 12.0581 12.317C11.9408 12.1998 11.875 12.0408 11.875 11.875C11.875 11.7093 11.9408 11.5503 12.0581 11.4331C12.1753 11.3159 12.3342 11.25 12.5 11.25H13.6297C13.4054 10.8638 13.2524 10.4404 13.1781 10H11.875C11.7092 10 11.5503 9.93419 11.4331 9.81697C11.3158 9.69977 11.25 9.54079 11.25 9.37503C11.25 9.20927 11.3158 9.0503 11.4331 8.93309C11.5503 8.81588 11.7092 8.75003 11.875 8.75003H13.125V7.4766C11.9195 7.37816 10.8687 6.92972 10.0875 6.17972C9.27578 5.39847 8.81563 4.35081 8.75938 3.14613L8.11484 2.50003L3.125 7.50003L11.5016 15.6172L11.5086 15.6235H18.75V15Z" fill="#191F2E"/>
</svg>
