<svg width="20" height="20" viewBox="0 0 20 20" fill="none" xmlns="http://www.w3.org/2000/svg">
<path d="M20 15.6571C19.9934 15.9836 19.8586 16.2944 19.6247 16.5223C19.3908 16.7502 19.0766 16.8769 18.75 16.875H11.5086C11.179 16.8757 10.8627 16.7456 10.6289 16.5133L2.24844 8.39222L2.24141 8.38519C2.00716 8.15079 1.87558 7.83297 1.87558 7.5016C1.87558 7.17022 2.00716 6.8524 2.24141 6.618L7.24141 1.60863L7.25312 1.59769C7.48849 1.37094 7.8037 1.24602 8.1305 1.24997C8.4573 1.25392 8.76939 1.38642 8.99922 1.61878L9.64062 2.26566C9.86005 2.48539 9.98983 2.77892 10.0047 3.0891C10.093 4.87269 11.3258 6.07816 13.2227 6.23441C13.5348 6.26119 13.8257 6.40326 14.0388 6.63292C14.2518 6.86258 14.3717 7.16335 14.375 7.4766V8.43753C14.375 8.52041 14.3421 8.5999 14.2835 8.6585C14.2249 8.71711 14.1454 8.75003 14.0625 8.75003H11.875C11.7893 8.74985 11.7045 8.76728 11.6259 8.80124C11.5472 8.83521 11.4764 8.88498 11.4177 8.94748C11.3591 9.00997 11.314 9.08385 11.2851 9.16453C11.2563 9.2452 11.2443 9.33095 11.25 9.41644C11.264 9.57709 11.3382 9.72651 11.4577 9.83474C11.5773 9.94298 11.7333 10.002 11.8945 10H14.082C14.1592 9.99954 14.2338 10.0276 14.2914 10.0788C14.3491 10.13 14.3859 10.2007 14.3945 10.2774C14.4153 10.4677 14.4583 10.6549 14.5227 10.8352C14.5388 10.8822 14.5435 10.9323 14.5364 10.9815C14.5293 11.0306 14.5106 11.0774 14.4818 11.1179C14.453 11.1584 14.4149 11.1914 14.3708 11.2142C14.3267 11.2371 14.2778 11.2491 14.2281 11.2493H12.5C12.4143 11.2491 12.3295 11.2665 12.2509 11.3005C12.1722 11.3344 12.1014 11.3842 12.0427 11.4467C11.9841 11.5092 11.939 11.5831 11.9101 11.6637C11.8813 11.7444 11.8693 11.8302 11.875 11.9157C11.8888 12.0764 11.963 12.2259 12.0825 12.3342C12.2021 12.4424 12.3582 12.5014 12.5195 12.4993H16.875C17.2882 12.4992 17.6972 12.5811 18.0785 12.7402C18.4598 12.8993 18.8058 13.1324 19.0964 13.4261C19.387 13.7198 19.6165 14.0682 19.7716 14.4511C19.9267 14.834 20.0043 15.2439 20 15.6571ZM5.625 13.75C5.625 13.5843 5.55915 13.4253 5.44194 13.3081C5.32473 13.1909 5.16576 13.125 5 13.125H2.5C2.33424 13.125 2.17527 13.1909 2.05806 13.3081C1.94085 13.4253 1.875 13.5843 1.875 13.75C1.875 13.9158 1.94085 14.0748 2.05806 14.192C2.17527 14.3092 2.33424 14.375 2.5 14.375H5C5.16576 14.375 5.32473 14.3092 5.44194 14.192C5.55915 14.0748 5.625 13.9158 5.625 13.75ZM7.5 15.625H3.75C3.58424 15.625 3.42527 15.6909 3.30806 15.8081C3.19085 15.9253 3.125 16.0843 3.125 16.25C3.125 16.4158 3.19085 16.5748 3.30806 16.692C3.42527 16.8092 3.58424 16.875 3.75 16.875H7.5C7.66576 16.875 7.82473 16.8092 7.94194 16.692C8.05915 16.5748 8.125 16.4158 8.125 16.25C8.125 16.0843 8.05915 15.9253 7.94194 15.8081C7.82473 15.6909 7.66576 15.625 7.5 15.625Z" fill="#191F2E"/>
</svg>
