<svg width="20" height="20" viewBox="0 0 20 20" fill="none" xmlns="http://www.w3.org/2000/svg">
<path d="M17.7852 11.6516C17.8443 11.893 17.8052 12.148 17.6765 12.3605C17.5477 12.5731 17.3398 12.7258 17.0984 12.7852L15.4836 13.182L15.9055 14.757C15.9699 14.9972 15.9363 15.2531 15.8121 15.4685C15.6878 15.6838 15.4831 15.841 15.243 15.9055C15.0028 15.9699 14.7469 15.9363 14.5315 15.8121C14.3162 15.6878 14.159 15.4831 14.0945 15.243L13.525 13.118L10.9375 11.6235V14.6094L12.5375 16.2094C12.6247 16.2966 12.6939 16.4001 12.7411 16.5141C12.7883 16.628 12.8126 16.7501 12.8126 16.8735C12.8126 16.9968 12.7883 17.1189 12.7411 17.2328C12.6939 17.3468 12.6247 17.4503 12.5375 17.5375C12.4503 17.6247 12.3468 17.6939 12.2328 17.7411C12.1189 17.7883 11.9968 17.8126 11.8734 17.8126C11.7501 17.8126 11.628 17.7883 11.514 17.7411C11.4001 17.6939 11.2966 17.6247 11.2094 17.5375L10 16.3281L8.78828 17.5406C8.70107 17.6278 8.59754 17.697 8.4836 17.7442C8.36966 17.7914 8.24754 17.8157 8.12422 17.8157C8.00089 17.8157 7.87877 17.7914 7.76483 17.7442C7.65089 17.697 7.54736 17.6278 7.46015 17.5406C7.37295 17.4534 7.30377 17.3499 7.25658 17.236C7.20938 17.122 7.18509 16.9999 7.18509 16.8766C7.18509 16.7533 7.20938 16.6311 7.25658 16.5172C7.30377 16.4032 7.37295 16.2997 7.46015 16.2125L9.0625 14.6094V11.6235L6.475 13.118L5.90547 15.243C5.84103 15.4831 5.68383 15.6878 5.46846 15.8121C5.25308 15.9363 4.99717 15.9699 4.75703 15.9055C4.51688 15.841 4.31217 15.6838 4.18793 15.4685C4.06369 15.2531 4.03009 14.9972 4.09453 14.757L4.5164 13.182L2.90156 12.7852C2.77926 12.7585 2.66354 12.7076 2.56122 12.6355C2.4589 12.5634 2.37206 12.4716 2.30581 12.3653C2.23957 12.2591 2.19526 12.1407 2.17551 12.0171C2.15575 11.8935 2.16095 11.7672 2.19079 11.6457C2.22063 11.5241 2.27452 11.4098 2.34927 11.3094C2.42401 11.2089 2.51811 11.1245 2.626 11.0611C2.7339 10.9976 2.85341 10.9564 2.97749 10.9399C3.10156 10.9234 3.22769 10.9319 3.34843 10.9649L5.52734 11.5L8.125 10L5.52734 8.50002L3.34843 9.03517C3.27535 9.05338 3.20031 9.06256 3.125 9.06252C2.89614 9.062 2.67538 8.97779 2.50432 8.82577C2.33326 8.67374 2.22372 8.46439 2.19634 8.23718C2.16896 8.00997 2.22563 7.78059 2.35568 7.59228C2.48572 7.40397 2.68016 7.26973 2.90234 7.21486L4.51718 6.81798L4.09531 5.24298C4.03087 5.00284 4.06447 4.74693 4.18871 4.53156C4.31295 4.31618 4.51766 4.15899 4.75781 4.09455C4.99795 4.03011 5.25386 4.0637 5.46924 4.18795C5.68461 4.31219 5.84181 4.5169 5.90625 4.75705L6.47578 6.88205L9.0625 8.3758V5.39064L7.4625 3.78751C7.37529 3.70031 7.30612 3.59678 7.25892 3.48284C7.21172 3.3689 7.18743 3.24678 7.18743 3.12345C7.18743 2.87438 7.28638 2.63551 7.4625 2.45939C7.63862 2.28327 7.87749 2.18433 8.12656 2.18433C8.24989 2.18433 8.37201 2.20862 8.48595 2.25581C8.59989 2.30301 8.70342 2.37218 8.79062 2.45939L10 3.67189L11.2117 2.45939C11.2989 2.37218 11.4024 2.30301 11.5164 2.25581C11.6303 2.20862 11.7524 2.18433 11.8758 2.18433C11.9991 2.18433 12.1212 2.20862 12.2352 2.25581C12.3491 2.30301 12.4526 2.37218 12.5398 2.45939C12.627 2.5466 12.6962 2.65012 12.7434 2.76406C12.7906 2.878 12.8149 3.00012 12.8149 3.12345C12.8149 3.24678 12.7906 3.3689 12.7434 3.48284C12.6962 3.59678 12.627 3.70031 12.5398 3.78751L10.9375 5.39064V8.37814L13.525 6.88439L14.0945 4.75939C14.159 4.51924 14.3162 4.31453 14.5315 4.19029C14.7469 4.06605 15.0028 4.03245 15.243 4.09689C15.4831 4.16133 15.6878 4.31853 15.8121 4.5339C15.9363 4.74927 15.9699 5.00518 15.9055 5.24533L15.4836 6.82033L17.0984 7.2172C17.3186 7.2739 17.5106 7.40867 17.6388 7.59641C17.767 7.78415 17.8226 8.01208 17.7953 8.23777C17.768 8.46345 17.6596 8.67152 17.4903 8.82324C17.321 8.97496 17.1023 9.05999 16.875 9.06252C16.7994 9.06263 16.7241 9.05344 16.6508 9.03517L14.4719 8.50002L11.875 10L14.4727 11.5L16.6516 10.9649C16.8929 10.9057 17.1479 10.9448 17.3605 11.0736C17.5731 11.2023 17.7258 11.4102 17.7852 11.6516Z" fill="#191F2E"/>
</svg>
