<svg width="20" height="20" viewBox="0 0 20 20" fill="none" xmlns="http://www.w3.org/2000/svg">
<path d="M17.482 11.7259C17.5016 11.8056 17.5053 11.8884 17.4929 11.9696C17.4805 12.0507 17.4523 12.1286 17.4098 12.1988C17.3672 12.2691 17.3113 12.3302 17.2452 12.3788C17.179 12.4275 17.1039 12.4626 17.0242 12.4821L15.0992 12.9509L15.6039 14.8345C15.6251 14.9138 15.6306 14.9965 15.6198 15.0779C15.6091 15.1593 15.5825 15.2378 15.5414 15.3089C15.5004 15.38 15.4457 15.4423 15.3805 15.4923C15.3154 15.5423 15.241 15.5789 15.1617 15.6001C15.1091 15.6153 15.0547 15.6237 15 15.6251C14.8625 15.625 14.7289 15.5795 14.6198 15.4958C14.5108 15.412 14.4324 15.2946 14.3968 15.1618L13.7937 12.9118L10.625 11.0829V14.7415L12.3172 16.4329C12.3752 16.491 12.4213 16.5599 12.4527 16.6358C12.4841 16.7117 12.5003 16.793 12.5003 16.8751C12.5003 16.9572 12.4841 17.0385 12.4527 17.1144C12.4213 17.1903 12.3752 17.2592 12.3172 17.3173C12.2591 17.3754 12.1902 17.4214 12.1143 17.4528C12.0384 17.4843 11.9571 17.5005 11.875 17.5005C11.7928 17.5005 11.7115 17.4843 11.6357 17.4528C11.5598 17.4214 11.4909 17.3754 11.4328 17.3173L9.99997 15.8837L8.56716 17.3173C8.50909 17.3754 8.44015 17.4214 8.36428 17.4528C8.28841 17.4843 8.20709 17.5005 8.12497 17.5005C8.04285 17.5005 7.96153 17.4843 7.88566 17.4528C7.80979 17.4214 7.74085 17.3754 7.68278 17.3173C7.62471 17.2592 7.57865 17.1903 7.54722 17.1144C7.5158 17.0385 7.49962 16.9572 7.49962 16.8751C7.49962 16.793 7.5158 16.7117 7.54722 16.6358C7.57865 16.5599 7.62471 16.491 7.68278 16.4329L9.37497 14.7415V11.0829L6.207 12.9118L5.60388 15.1618C5.56827 15.2948 5.48977 15.4122 5.38058 15.496C5.27138 15.5798 5.13759 15.6251 4.99997 15.6251C4.94513 15.625 4.89052 15.6179 4.83747 15.604C4.75815 15.5828 4.68379 15.5462 4.61863 15.4962C4.55348 15.4462 4.49881 15.3839 4.45774 15.3128C4.41668 15.2417 4.39003 15.1632 4.37931 15.0818C4.36859 15.0004 4.37402 14.9177 4.39528 14.8384L4.89997 12.9548L2.97497 12.486C2.81398 12.4465 2.6753 12.3446 2.58944 12.2027C2.50358 12.0609 2.47758 11.8908 2.51716 11.7298C2.55673 11.5688 2.65864 11.4301 2.80047 11.3443C2.94229 11.2584 3.11241 11.2324 3.27341 11.272L5.57419 11.8368L8.74997 10.0001L5.57497 8.16729L3.27419 8.73213C3.22537 8.74422 3.17526 8.75025 3.12497 8.7501C2.97215 8.75021 2.82459 8.69432 2.71018 8.593C2.59577 8.49169 2.52245 8.35196 2.50407 8.20025C2.4857 8.04854 2.52355 7.89535 2.61046 7.76965C2.69737 7.64395 2.82732 7.55445 2.97575 7.51807L4.90075 7.04932L4.39606 5.16182C4.35317 5.00166 4.37567 4.83101 4.45859 4.68743C4.54152 4.54385 4.67809 4.43909 4.83825 4.3962C4.99842 4.35331 5.16906 4.3758 5.31264 4.45872C5.45623 4.54165 5.56099 4.67822 5.60388 4.83838L6.207 7.08838L9.37497 8.91729V5.2587L7.68278 3.56729C7.56551 3.45002 7.49962 3.29096 7.49962 3.1251C7.49962 3.04298 7.5158 2.96166 7.54722 2.88579C7.57865 2.80992 7.62471 2.74098 7.68278 2.68292C7.74085 2.62485 7.80979 2.57878 7.88566 2.54736C7.96153 2.51593 8.04285 2.49976 8.12497 2.49976C8.29082 2.49976 8.44988 2.56564 8.56716 2.68292L9.99997 4.11651L11.4328 2.68292C11.5501 2.56564 11.7091 2.49976 11.875 2.49976C12.0408 2.49976 12.1999 2.56564 12.3172 2.68292C12.4344 2.80019 12.5003 2.95925 12.5003 3.1251C12.5003 3.29096 12.4344 3.45002 12.3172 3.56729L10.625 5.2587V8.91729L13.7929 7.08838L14.3961 4.83838C14.439 4.67822 14.5437 4.54165 14.6873 4.45872C14.8309 4.3758 15.0015 4.35331 15.1617 4.3962C15.3219 4.43909 15.4584 4.54385 15.5413 4.68743C15.6243 4.83101 15.6468 5.00166 15.6039 5.16182L15.0992 7.04542L17.0242 7.51417C17.1768 7.54675 17.3116 7.63521 17.4023 7.76217C17.4929 7.88914 17.5328 8.04541 17.5142 8.2003C17.4955 8.35518 17.4195 8.49747 17.3012 8.59921C17.183 8.70094 17.0309 8.75477 16.875 8.7501C16.8247 8.75025 16.7746 8.74422 16.7258 8.73213L14.425 8.16729L11.25 10.0001L14.425 11.8329L16.7258 11.2681C16.8055 11.2485 16.8883 11.2447 16.9694 11.2571C17.0506 11.2695 17.1285 11.2978 17.1987 11.3403C17.2689 11.3828 17.3301 11.4388 17.3787 11.5049C17.4273 11.5711 17.4624 11.6462 17.482 11.7259Z" fill="#191F2E"/>
</svg>
