<svg width="20" height="20" viewBox="0 0 20 20" fill="none" xmlns="http://www.w3.org/2000/svg">
<path d="M10 1.875C8.39303 1.875 6.82214 2.35152 5.486 3.24431C4.14985 4.1371 3.10844 5.40605 2.49348 6.8907C1.87852 8.37535 1.71762 10.009 2.03112 11.5851C2.34463 13.1612 3.11846 14.6089 4.25476 15.7452C5.39106 16.8815 6.8388 17.6554 8.4149 17.9689C9.99099 18.2824 11.6247 18.1215 13.1093 17.5065C14.594 16.8916 15.8629 15.8502 16.7557 14.514C17.6485 13.1779 18.125 11.607 18.125 10C18.1227 7.84581 17.266 5.78051 15.7427 4.25727C14.2195 2.73403 12.1542 1.87727 10 1.875ZM10.625 4.95156L12.5617 3.61953C13.6706 4.0662 14.6445 4.79302 15.3883 5.72891L14.7633 7.83359C14.7477 7.83359 14.7313 7.84141 14.7156 7.84688L12.9328 8.42578C12.9061 8.43433 12.88 8.44478 12.8547 8.45703L10.625 6.92344C10.625 6.90781 10.625 6.89141 10.625 6.875V5C10.625 4.98359 10.625 4.96719 10.625 4.95156ZM7.44063 3.61953L9.375 4.95156C9.375 4.96719 9.375 4.98359 9.375 5V6.875C9.375 6.89141 9.375 6.90781 9.375 6.92344L7.14375 8.46016C7.11848 8.4479 7.09238 8.43746 7.06563 8.42891L5.28282 7.85C5.26719 7.84453 5.25079 7.84062 5.23516 7.83672L4.61016 5.73203C5.35463 4.79446 6.33 4.0665 7.44063 3.61953ZM6.425 13.7047H4.21094C3.56284 12.697 3.19129 11.5366 3.1336 10.3398L4.85235 9.02109C4.86713 9.02763 4.88226 9.03337 4.89766 9.03828L6.68125 9.61797C6.7051 9.62517 6.72936 9.63091 6.75391 9.63516L7.59688 12.0898C7.58516 12.1039 7.57344 12.118 7.5625 12.1328L6.46094 13.6492C6.44797 13.667 6.43597 13.6856 6.425 13.7047ZM11.7727 16.6406C10.6111 16.95 9.38887 16.95 8.22735 16.6406L7.44141 14.4219C7.45157 14.4094 7.4625 14.3977 7.47188 14.3844L8.57422 12.8672C8.58719 12.8496 8.59919 12.8314 8.61016 12.8125H11.3898C11.4008 12.8314 11.4128 12.8496 11.4258 12.8672L12.5281 14.3844C12.5375 14.3977 12.5484 14.4094 12.5586 14.4219L11.7727 16.6406ZM13.575 13.7023C13.564 13.6832 13.552 13.6647 13.5391 13.6469L12.4367 12.1328C12.4258 12.118 12.4141 12.1039 12.4023 12.0898L13.2453 9.63516C13.2699 9.63091 13.2941 9.62517 13.318 9.61797L15.1016 9.03828C15.117 9.03337 15.1321 9.02763 15.1469 9.02109L16.8656 10.3398C16.8079 11.5366 16.4364 12.697 15.7883 13.7047L13.575 13.7023Z" fill="#191F2E"/>
</svg>
