<svg width="20" height="20" viewBox="0 0 20 20" fill="none" xmlns="http://www.w3.org/2000/svg">
<path d="M2.8125 10.0001C2.8125 9.75142 2.91127 9.51296 3.08709 9.33714C3.2629 9.16133 3.50136 9.06256 3.75 9.06256H9.0625C9.31114 9.06256 9.5496 9.16133 9.72541 9.33714C9.90123 9.51296 10 9.75142 10 10.0001C10 10.2487 9.90123 10.4872 9.72541 10.663C9.5496 10.8388 9.31114 10.9376 9.0625 10.9376H3.75C3.50136 10.9376 3.2629 10.8388 3.08709 10.663C2.91127 10.4872 2.8125 10.2487 2.8125 10.0001ZM3.75 5.93756H7.8125C8.06114 5.93756 8.2996 5.83878 8.47541 5.66297C8.65123 5.48715 8.75 5.2487 8.75 5.00006C8.75 4.75142 8.65123 4.51296 8.47541 4.33714C8.2996 4.16133 8.06114 4.06256 7.8125 4.06256H3.75C3.50136 4.06256 3.2629 4.16133 3.08709 4.33714C2.91127 4.51296 2.8125 4.75142 2.8125 5.00006C2.8125 5.2487 2.91127 5.48715 3.08709 5.66297C3.2629 5.83878 3.50136 5.93756 3.75 5.93756ZM14.0625 14.0626H3.75C3.50136 14.0626 3.2629 14.1613 3.08709 14.3371C2.91127 14.513 2.8125 14.7514 2.8125 15.0001C2.8125 15.2487 2.91127 15.4872 3.08709 15.663C3.2629 15.8388 3.50136 15.9376 3.75 15.9376H14.0625C14.3111 15.9376 14.5496 15.8388 14.7254 15.663C14.9012 15.4872 15 15.2487 15 15.0001C15 14.7514 14.9012 14.513 14.7254 14.3371C14.5496 14.1613 14.3111 14.0626 14.0625 14.0626ZM18.1633 6.21177L15.0383 3.08677C14.9512 2.99937 14.8477 2.93003 14.7337 2.88271C14.6198 2.83539 14.4976 2.81104 14.3742 2.81104C14.2508 2.81104 14.1287 2.83539 14.0147 2.88271C13.9007 2.93003 13.7973 2.99937 13.7102 3.08677L10.5852 6.21177C10.409 6.38789 10.3101 6.62677 10.3101 6.87584C10.3101 7.12491 10.409 7.36378 10.5852 7.5399C10.7613 7.71602 11.0001 7.81496 11.2492 7.81496C11.4983 7.81496 11.7372 7.71602 11.9133 7.5399L13.4375 6.01568V11.2501C13.4375 11.4987 13.5363 11.7372 13.7121 11.913C13.8879 12.0888 14.1264 12.1876 14.375 12.1876C14.6236 12.1876 14.8621 12.0888 15.0379 11.913C15.2137 11.7372 15.3125 11.4987 15.3125 11.2501V6.01568L16.8367 7.54068C16.9239 7.62789 17.0275 7.69706 17.1414 7.74426C17.2553 7.79145 17.3775 7.81574 17.5008 7.81574C17.6241 7.81574 17.7462 7.79145 17.8602 7.74426C17.9741 7.69706 18.0776 7.62789 18.1648 7.54068C18.252 7.45347 18.3212 7.34995 18.3684 7.23601C18.4156 7.12207 18.4399 6.99995 18.4399 6.87662C18.4399 6.75329 18.4156 6.63117 18.3684 6.51723C18.3212 6.40329 18.252 6.29976 18.1648 6.21256L18.1633 6.21177Z" fill="#191F2E"/>
</svg>
