<svg width="20" height="20" viewBox="0 0 20 20" fill="none" xmlns="http://www.w3.org/2000/svg">
<path d="M1.875 9.375V13.125C1.875 13.2908 1.80915 13.4497 1.69194 13.5669C1.57473 13.6842 1.41576 13.75 1.25 13.75C1.08424 13.75 0.925268 13.6842 0.808058 13.5669C0.690848 13.4497 0.625 13.2908 0.625 13.125V9.375C0.625 9.20924 0.690848 9.05027 0.808058 8.93306C0.925268 8.81585 1.08424 8.75 1.25 8.75C1.41576 8.75 1.57473 8.81585 1.69194 8.93306C1.80915 9.05027 1.875 9.20924 1.875 9.375ZM3.75 6.875C3.58424 6.875 3.42527 6.94085 3.30806 7.05806C3.19085 7.17527 3.125 7.33424 3.125 7.5V15C3.125 15.1658 3.19085 15.3247 3.30806 15.4419C3.42527 15.5592 3.58424 15.625 3.75 15.625C3.91576 15.625 4.07473 15.5592 4.19194 15.4419C4.30915 15.3247 4.375 15.1658 4.375 15V7.5C4.375 7.33424 4.30915 7.17527 4.19194 7.05806C4.07473 6.94085 3.91576 6.875 3.75 6.875ZM6.25 6.25C6.08424 6.25 5.92527 6.31585 5.80806 6.43306C5.69085 6.55027 5.625 6.70924 5.625 6.875V15C5.625 15.1658 5.69085 15.3247 5.80806 15.4419C5.92527 15.5592 6.08424 15.625 6.25 15.625C6.41576 15.625 6.57473 15.5592 6.69194 15.4419C6.80915 15.3247 6.875 15.1658 6.875 15V6.875C6.875 6.70924 6.80915 6.55027 6.69194 6.43306C6.57473 6.31585 6.41576 6.25 6.25 6.25ZM8.75 3.75C8.58424 3.75 8.42527 3.81585 8.30806 3.93306C8.19085 4.05027 8.125 4.20924 8.125 4.375V15C8.125 15.1658 8.19085 15.3247 8.30806 15.4419C8.42527 15.5592 8.58424 15.625 8.75 15.625C8.91576 15.625 9.07473 15.5592 9.19194 15.4419C9.30915 15.3247 9.375 15.1658 9.375 15V4.375C9.375 4.20924 9.30915 4.05027 9.19194 3.93306C9.07473 3.81585 8.91576 3.75 8.75 3.75ZM17.4094 8.30781C17.1579 6.85669 16.4021 5.54098 15.2752 4.59276C14.1483 3.64454 12.7227 3.12473 11.25 3.125C11.0842 3.125 10.9253 3.19085 10.8081 3.30806C10.6908 3.42527 10.625 3.58424 10.625 3.75V15C10.625 15.1658 10.6908 15.3247 10.8081 15.4419C10.9253 15.5592 11.0842 15.625 11.25 15.625H16.25C17.1433 15.6257 18.0076 15.3074 18.6871 14.7275C19.3666 14.1476 19.8168 13.3442 19.9566 12.4619C20.0964 11.5795 19.9166 10.6763 19.4496 9.91472C18.9827 9.15317 18.2592 8.58333 17.4094 8.30781Z" fill="#191F2E"/>
</svg>
