<svg width="20" height="20" viewBox="0 0 20 20" fill="none" xmlns="http://www.w3.org/2000/svg">
<path d="M18.125 10.625C18.1247 11.3882 17.9248 12.1382 17.545 12.8003C17.1653 13.4623 16.6189 14.0136 15.9602 14.3992C15.3015 14.7848 14.5533 14.9913 13.7901 14.9983C13.0268 15.0053 12.275 14.8125 11.6094 14.439L12.4734 17.3203C12.5014 17.4136 12.5073 17.5122 12.4904 17.6081C12.4735 17.7041 12.4345 17.7948 12.3763 17.8729C12.3182 17.9511 12.2426 18.0146 12.1555 18.0584C12.0685 18.1021 11.9724 18.1249 11.875 18.125H8.125C8.02757 18.1249 7.9315 18.1021 7.84446 18.0584C7.75741 18.0146 7.6818 17.9511 7.62366 17.8729C7.56552 17.7948 7.52646 17.7041 7.5096 17.6081C7.49275 17.5122 7.49855 17.4136 7.52656 17.3203L8.39062 14.439C7.72495 14.8125 6.97316 15.0053 6.20992 14.9983C5.44667 14.9913 4.69854 14.7848 4.03982 14.3992C3.38111 14.0136 2.83473 13.4623 2.45497 12.8003C2.0752 12.1382 1.87526 11.3882 1.875 10.625C1.875 8.12496 3.25391 5.71558 5.85938 3.65074C7.05557 2.70738 8.36493 1.91715 9.75703 1.29839C9.83319 1.26629 9.91501 1.24976 9.99766 1.24976C10.0803 1.24976 10.1621 1.26629 10.2383 1.29839C11.632 1.9168 12.943 2.70705 14.1406 3.65074C16.7461 5.71558 18.125 8.12496 18.125 10.625Z" fill="#191F2E"/>
</svg>
