<svg width="20" height="20" viewBox="0 0 20 20" fill="none" xmlns="http://www.w3.org/2000/svg">
<path d="M10.4195 1.03673C10.2893 0.971555 10.1456 0.937622 10 0.937622C9.85436 0.937622 9.71072 0.971555 9.58047 1.03673C9.25312 1.20001 1.5625 5.10939 1.5625 10.625C1.5624 11.3035 1.70959 11.9739 1.9939 12.5899C2.2782 13.2059 2.69285 13.7529 3.20919 14.193C3.72553 14.6332 4.33126 14.956 4.98454 15.1391C5.63782 15.3223 6.32308 15.3615 6.99297 15.2539L6.58047 17.3164C6.55331 17.4524 6.55666 17.5928 6.59029 17.7273C6.62392 17.8619 6.68699 17.9873 6.77495 18.0946C6.86291 18.2018 6.97357 18.2882 7.09895 18.3475C7.22433 18.4068 7.3613 18.4375 7.5 18.4375H12.5C12.6387 18.4375 12.7757 18.4068 12.9011 18.3475C13.0264 18.2882 13.1371 18.2018 13.225 18.0946C13.313 17.9873 13.3761 17.8619 13.4097 17.7273C13.4433 17.5928 13.4467 17.4524 13.4195 17.3164L13.007 15.2539C13.6769 15.3615 14.3622 15.3223 15.0155 15.1391C15.6687 14.956 16.2745 14.6332 16.7908 14.193C17.3072 13.7529 17.7218 13.2059 18.0061 12.5899C18.2904 11.9739 18.4376 11.3035 18.4375 10.625C18.4375 5.10939 10.7469 1.20001 10.4195 1.03673ZM13.75 13.4375C13.2226 13.4382 12.7056 13.2901 12.2586 13.0102C12.1034 12.9129 11.9231 12.8632 11.74 12.8673C11.5569 12.8713 11.3789 12.9289 11.2282 13.033C11.0774 13.137 10.9605 13.2829 10.8917 13.4527C10.823 13.6225 10.8055 13.8087 10.8414 13.9883L11.3562 16.5625H8.64375L9.15859 13.9883C9.19449 13.8087 9.17699 13.6225 9.10826 13.4527C9.03952 13.2829 8.92255 13.137 8.77181 13.033C8.62106 12.9289 8.44314 12.8713 8.26002 12.8673C8.0769 12.8632 7.89661 12.9129 7.74141 13.0102C7.31565 13.2765 6.82635 13.4239 6.32435 13.4372C5.82235 13.4505 5.32595 13.3291 4.88671 13.0857C4.44747 12.8422 4.08142 12.4857 3.82657 12.0529C3.57173 11.6202 3.43738 11.1272 3.4375 10.625C3.4375 8.41486 5.27891 6.41017 6.82344 5.11798C7.81486 4.29819 8.878 3.56921 10 2.93986C11.1221 3.56903 12.1853 4.29802 13.1766 5.11798C14.7211 6.41017 16.5625 8.41486 16.5625 10.625C16.5625 11.3709 16.2662 12.0863 15.7387 12.6137C15.2113 13.1412 14.4959 13.4375 13.75 13.4375Z" fill="#191F2E"/>
</svg>
