<svg width="20" height="20" viewBox="0 0 20 20" fill="none" xmlns="http://www.w3.org/2000/svg">
<path d="M10.2797 1.31644C10.1929 1.27299 10.0971 1.25037 10 1.25037C9.9029 1.25037 9.80714 1.27299 9.72031 1.31644C9.4 1.4766 1.875 5.30003 1.875 10.625C1.87472 11.3215 2.0407 12.0079 2.35916 12.6273C2.67762 13.2467 3.13935 13.7811 3.70595 14.1861C4.27255 14.5911 4.92764 14.8549 5.61676 14.9557C6.30588 15.0566 7.00911 14.9914 7.66797 14.7657L6.90156 17.3203C6.87355 17.4137 6.86775 17.5122 6.8846 17.6082C6.90146 17.7041 6.94052 17.7948 6.99866 17.873C7.0568 17.9512 7.13241 18.0147 7.21946 18.0584C7.3065 18.1022 7.40257 18.125 7.5 18.125H12.5C12.5974 18.125 12.6935 18.1022 12.7805 18.0584C12.8676 18.0147 12.9432 17.9512 13.0013 17.873C13.0595 17.7948 13.0985 17.7041 13.1154 17.6082C13.1323 17.5122 13.1264 17.4137 13.0984 17.3203L12.332 14.7657C12.9909 14.9914 13.6941 15.0566 14.3832 14.9557C15.0724 14.8549 15.7275 14.5911 16.2941 14.1861C16.8607 13.7811 17.3224 13.2467 17.6408 12.6273C17.9593 12.0079 18.1253 11.3215 18.125 10.625C18.125 5.30003 10.6 1.4766 10.2797 1.31644ZM13.75 13.75C12.9949 13.7501 12.2653 13.4767 11.6961 12.9805C11.5939 12.8914 11.4656 12.838 11.3304 12.8282C11.1953 12.8184 11.0606 12.8528 10.9466 12.9263C10.8327 12.9997 10.7458 13.1082 10.6989 13.2354C10.652 13.3625 10.6477 13.5015 10.6867 13.6313L11.6602 16.875H8.33984L9.31328 13.6313C9.35226 13.5015 9.34798 13.3625 9.3011 13.2354C9.25421 13.1082 9.16726 12.9997 9.05335 12.9263C8.93944 12.8528 8.80475 12.8184 8.66957 12.8282C8.53439 12.838 8.40605 12.8914 8.30391 12.9805C7.85175 13.3748 7.29565 13.6306 6.70202 13.7174C6.10839 13.8042 5.50233 13.7183 4.95622 13.4699C4.41011 13.2215 3.94704 12.8212 3.62232 12.3167C3.2976 11.8122 3.12495 11.225 3.125 10.625C3.125 8.29066 5.03203 6.20706 6.63203 4.87035C7.6809 4.00449 8.80847 3.23865 10 2.58285C11.1915 3.23865 12.3191 4.00449 13.368 4.87035C16.2664 7.29222 16.875 9.33675 16.875 10.625C16.875 11.4538 16.5458 12.2487 15.9597 12.8347C15.3737 13.4208 14.5788 13.75 13.75 13.75Z" fill="#191F2E"/>
</svg>
