<svg width="20" height="20" viewBox="0 0 20 20" fill="none" xmlns="http://www.w3.org/2000/svg">
<path d="M15.5469 9.78984L11.6492 8.35391L10.2101 4.45312C10.1 4.15451 9.90103 3.89684 9.63994 3.71484C9.37885 3.53284 9.06824 3.43526 8.74998 3.43526C8.43172 3.43526 8.12111 3.53284 7.86002 3.71484C7.59894 3.89684 7.39993 4.15451 7.28983 4.45312L5.85389 8.35391L1.95311 9.78984C1.6545 9.89995 1.39682 10.099 1.21482 10.36C1.03282 10.6211 0.935242 10.9317 0.935242 11.25C0.935242 11.5683 1.03282 11.8789 1.21482 12.14C1.39682 12.401 1.6545 12.6001 1.95311 12.7102L5.85076 14.1461L7.28983 18.0469C7.39993 18.3455 7.59894 18.6032 7.86002 18.7852C8.12111 18.9672 8.43172 19.0647 8.74998 19.0647C9.06824 19.0647 9.37885 18.9672 9.63994 18.7852C9.90103 18.6032 10.1 18.3455 10.2101 18.0469L11.6461 14.1492L15.5469 12.7102C15.8455 12.6001 16.1031 12.401 16.2851 12.14C16.4671 11.8789 16.5647 11.5683 16.5647 11.25C16.5647 10.9317 16.4671 10.6211 16.2851 10.36C16.1031 10.099 15.8455 9.89995 15.5469 9.78984ZM10.8594 12.4383C10.6481 12.516 10.4562 12.6387 10.2971 12.7979C10.1379 12.957 10.0152 13.1489 9.93748 13.3602L8.74998 16.5844L7.5617 13.3594C7.48397 13.1483 7.36136 12.9567 7.20233 12.7977C7.0433 12.6386 6.85165 12.516 6.64061 12.4383L3.41561 11.25L6.64061 10.0617C6.85165 9.98399 7.0433 9.86138 7.20233 9.70235C7.36136 9.54332 7.48397 9.35167 7.5617 9.14062L8.74998 5.91563L9.93826 9.14062C10.016 9.35189 10.1387 9.54375 10.2978 9.70292C10.457 9.86209 10.6489 9.98478 10.8601 10.0625L14.0844 11.25L10.8594 12.4383ZM10.9375 3.125C10.9375 2.87636 11.0363 2.6379 11.2121 2.46209C11.3879 2.28627 11.6263 2.1875 11.875 2.1875H12.8125V1.25C12.8125 1.00136 12.9113 0.762903 13.0871 0.587087C13.2629 0.411272 13.5013 0.3125 13.75 0.3125C13.9986 0.3125 14.2371 0.411272 14.4129 0.587087C14.5887 0.762903 14.6875 1.00136 14.6875 1.25V2.1875H15.625C15.8736 2.1875 16.1121 2.28627 16.2879 2.46209C16.4637 2.6379 16.5625 2.87636 16.5625 3.125C16.5625 3.37364 16.4637 3.6121 16.2879 3.78791C16.1121 3.96373 15.8736 4.0625 15.625 4.0625H14.6875V5C14.6875 5.24864 14.5887 5.4871 14.4129 5.66291C14.2371 5.83873 13.9986 5.9375 13.75 5.9375C13.5013 5.9375 13.2629 5.83873 13.0871 5.66291C12.9113 5.4871 12.8125 5.24864 12.8125 5V4.0625H11.875C11.6263 4.0625 11.3879 3.96373 11.2121 3.78791C11.0363 3.6121 10.9375 3.37364 10.9375 3.125ZM19.6875 6.875C19.6875 7.12364 19.5887 7.3621 19.4129 7.53791C19.2371 7.71373 18.9986 7.8125 18.75 7.8125H18.4375V8.125C18.4375 8.37364 18.3387 8.6121 18.1629 8.78791C17.9871 8.96373 17.7486 9.0625 17.5 9.0625C17.2513 9.0625 17.0129 8.96373 16.8371 8.78791C16.6613 8.6121 16.5625 8.37364 16.5625 8.125V7.8125H16.25C16.0013 7.8125 15.7629 7.71373 15.5871 7.53791C15.4113 7.3621 15.3125 7.12364 15.3125 6.875C15.3125 6.62636 15.4113 6.3879 15.5871 6.21209C15.7629 6.03627 16.0013 5.9375 16.25 5.9375H16.5625V5.625C16.5625 5.37636 16.6613 5.1379 16.8371 4.96209C17.0129 4.78627 17.2513 4.6875 17.5 4.6875C17.7486 4.6875 17.9871 4.78627 18.1629 4.96209C18.3387 5.1379 18.4375 5.37636 18.4375 5.625V5.9375H18.75C18.9986 5.9375 19.2371 6.03627 19.4129 6.21209C19.5887 6.3879 19.6875 6.62636 19.6875 6.875Z" fill="#191F2E"/>
</svg>
