<svg width="20" height="20" viewBox="0 0 20 20" fill="none" xmlns="http://www.w3.org/2000/svg">
<path d="M12.1492 1.93828C12.0441 1.88706 11.9268 1.86636 11.8105 1.87851C11.6942 1.89066 11.5836 1.93519 11.4914 2.00703L6.03516 6.25H2.5C2.16848 6.25 1.85054 6.38169 1.61612 6.61611C1.3817 6.85053 1.25 7.16848 1.25 7.5V12.5C1.25 12.8315 1.3817 13.1495 1.61612 13.3839C1.85054 13.6183 2.16848 13.75 2.5 13.75H6.03516L11.4914 17.993C11.5837 18.0647 11.6944 18.1092 11.8107 18.1212C11.927 18.1332 12.0444 18.1124 12.1495 18.061C12.2545 18.0097 12.3431 17.9299 12.405 17.8307C12.467 17.7315 12.4999 17.6169 12.5 17.5V2.5C12.5 2.38291 12.4671 2.26817 12.4051 2.16886C12.3431 2.06954 12.2544 1.98965 12.1492 1.93828ZM2.5 7.5H5.625V12.5H2.5V7.5ZM11.25 16.2219L6.875 12.8195V7.18046L11.25 3.77812V16.2219ZM15.4688 7.93437C15.9715 8.50505 16.2488 9.23947 16.2488 10C16.2488 10.7605 15.9715 11.4949 15.4688 12.0656C15.3583 12.187 15.2046 12.26 15.0408 12.269C14.877 12.278 14.7162 12.2223 14.5932 12.1138C14.4701 12.0053 14.3947 11.8527 14.3831 11.6891C14.3715 11.5254 14.4247 11.3638 14.5312 11.2391C14.8327 10.8967 14.999 10.4562 14.999 10C14.999 9.54383 14.8327 9.1033 14.5312 8.76093C14.4247 8.63618 14.3715 8.47454 14.3831 8.3109C14.3947 8.14725 14.4701 7.99473 14.5932 7.88623C14.7162 7.77774 14.877 7.72198 15.0408 7.73098C15.2046 7.73999 15.3583 7.81304 15.4688 7.93437ZM19.375 10C19.3759 11.5377 18.8092 13.0215 17.7836 14.1672C17.6723 14.2877 17.518 14.3595 17.3542 14.3673C17.1903 14.375 17.03 14.3181 16.9077 14.2087C16.7855 14.0993 16.7112 13.9462 16.7008 13.7825C16.6905 13.6188 16.7449 13.4575 16.8523 13.3336C17.6722 12.4169 18.1254 11.2302 18.1254 10.0004C18.1254 8.77056 17.6722 7.58387 16.8523 6.66718C16.7961 6.60629 16.7525 6.53481 16.7241 6.45691C16.6957 6.37901 16.6831 6.29623 16.687 6.21341C16.691 6.13059 16.7113 6.04938 16.7469 5.97451C16.7826 5.89964 16.8327 5.8326 16.8945 5.7773C16.9563 5.722 17.0284 5.67955 17.1068 5.65241C17.1851 5.62527 17.2681 5.61399 17.3508 5.61923C17.4336 5.62447 17.5145 5.64612 17.5888 5.68292C17.6631 5.71972 17.7293 5.77094 17.7836 5.83359C18.8095 6.97876 19.3762 8.46251 19.375 10Z" fill="#191F2E"/>
</svg>
