<svg width="20" height="20" viewBox="0 0 20 20" fill="none" xmlns="http://www.w3.org/2000/svg">
<path d="M16.25 9.99999C16.2506 10.7613 15.9727 11.4965 15.4688 12.0672C15.3583 12.1885 15.2046 12.2616 15.0408 12.2706C14.877 12.2796 14.7162 12.2238 14.5932 12.1153C14.4701 12.0068 14.3947 11.8543 14.3831 11.6906C14.3715 11.527 14.4247 11.3654 14.5312 11.2406C14.8327 10.8982 14.999 10.4577 14.999 10.0016C14.999 9.54538 14.8327 9.10486 14.5312 8.76249C14.4247 8.63774 14.3715 8.4761 14.3831 8.31246C14.3947 8.14881 14.4701 7.99628 14.5932 7.88779C14.7162 7.77929 14.877 7.72353 15.0408 7.73254C15.2046 7.74155 15.3583 7.8146 15.4688 7.93593C15.9715 8.50603 16.2493 9.23985 16.25 9.99999ZM12.5 2.49999V17.5C12.4999 17.6169 12.467 17.7315 12.405 17.8307C12.3431 17.9299 12.2545 18.0097 12.1495 18.061C12.0444 18.1124 11.927 18.1332 11.8107 18.1212C11.6944 18.1092 11.5837 18.0647 11.4914 17.993L6.03516 13.75H2.5C2.16848 13.75 1.85054 13.6183 1.61612 13.3839C1.3817 13.1495 1.25 12.8315 1.25 12.5V7.49999C1.25 7.16847 1.3817 6.85053 1.61612 6.61611C1.85054 6.38169 2.16848 6.24999 2.5 6.24999H6.03516L11.4914 2.00702C11.5837 1.93524 11.6944 1.89081 11.8107 1.87878C11.927 1.86674 12.0444 1.88759 12.1495 1.93894C12.2545 1.9903 12.3431 2.0701 12.405 2.16928C12.467 2.26846 12.4999 2.38304 12.5 2.49999ZM5.625 7.49999H2.5V12.5H5.625V7.49999Z" fill="#191F2E"/>
</svg>
