<svg width="20" height="20" viewBox="0 0 20 20" fill="none" xmlns="http://www.w3.org/2000/svg">
<path d="M12.5 2.50002V17.5C12.4999 17.617 12.467 17.7315 12.405 17.8307C12.3431 17.9299 12.2545 18.0097 12.1495 18.0611C12.0444 18.1124 11.927 18.1333 11.8107 18.1212C11.6944 18.1092 11.5837 18.0648 11.4914 17.993L6.03516 13.75H2.5C2.16848 13.75 1.85054 13.6183 1.61612 13.3839C1.3817 13.1495 1.25 12.8315 1.25 12.5V7.50002C1.25 7.1685 1.3817 6.85056 1.61612 6.61614C1.85054 6.38172 2.16848 6.25002 2.5 6.25002H6.03516L11.4914 2.00705C11.5837 1.93527 11.6944 1.89084 11.8107 1.87881C11.927 1.86677 12.0444 1.88762 12.1495 1.93897C12.2545 1.99033 12.3431 2.07013 12.405 2.16931C12.467 2.26849 12.4999 2.38307 12.5 2.50002ZM15 7.50002C14.8342 7.50002 14.6753 7.56587 14.5581 7.68308C14.4408 7.80029 14.375 7.95926 14.375 8.12502V11.875C14.375 12.0408 14.4408 12.1998 14.5581 12.317C14.6753 12.4342 14.8342 12.5 15 12.5C15.1658 12.5 15.3247 12.4342 15.4419 12.317C15.5592 12.1998 15.625 12.0408 15.625 11.875V8.12502C15.625 7.95926 15.5592 7.80029 15.4419 7.68308C15.3247 7.56587 15.1658 7.50002 15 7.50002ZM17.5 6.25002C17.3342 6.25002 17.1753 6.31587 17.0581 6.43308C16.9408 6.55029 16.875 6.70926 16.875 6.87502V13.125C16.875 13.2908 16.9408 13.4498 17.0581 13.567C17.1753 13.6842 17.3342 13.75 17.5 13.75C17.6658 13.75 17.8247 13.6842 17.9419 13.567C18.0592 13.4498 18.125 13.2908 18.125 13.125V6.87502C18.125 6.70926 18.0592 6.55029 17.9419 6.43308C17.8247 6.31587 17.6658 6.25002 17.5 6.25002Z" fill="#191F2E"/>
</svg>
