<svg width="20" height="20" viewBox="0 0 20 20" fill="none" xmlns="http://www.w3.org/2000/svg">
<path d="M12.15 1.93827C12.0448 1.88689 11.9273 1.8661 11.8109 1.87826C11.6944 1.89041 11.5837 1.93503 11.4914 2.00702L6.03516 6.24999H2.5C2.16848 6.24999 1.85054 6.38168 1.61612 6.6161C1.3817 6.85052 1.25 7.16847 1.25 7.49999V12.5C1.25 12.8315 1.3817 13.1494 1.61612 13.3839C1.85054 13.6183 2.16848 13.75 2.5 13.75H6.03516L11.4914 17.993C11.6009 18.0787 11.736 18.1252 11.875 18.125C12.0408 18.125 12.1997 18.0591 12.3169 17.9419C12.4342 17.8247 12.5 17.6657 12.5 17.5V2.49999C12.5001 2.38298 12.4673 2.2683 12.4055 2.169C12.3436 2.06969 12.2551 1.98975 12.15 1.93827Z" fill="#191F2E"/>
</svg>
