<svg width="20" height="20" viewBox="0 0 20 20" fill="none" xmlns="http://www.w3.org/2000/svg">
<path d="M14.375 11.875V8.12502C14.375 7.95926 14.4408 7.80029 14.5581 7.68308C14.6753 7.56587 14.8342 7.50002 15 7.50002C15.1658 7.50002 15.3247 7.56587 15.4419 7.68308C15.5592 7.80029 15.625 7.95926 15.625 8.12502V11.875C15.625 12.0408 15.5592 12.1998 15.4419 12.317C15.3247 12.4342 15.1658 12.5 15 12.5C14.8342 12.5 14.6753 12.4342 14.5581 12.317C14.4408 12.1998 14.375 12.0408 14.375 11.875ZM17.5 6.25002C17.3342 6.25002 17.1753 6.31587 17.0581 6.43308C16.9408 6.55029 16.875 6.70926 16.875 6.87502V13.125C16.875 13.2908 16.9408 13.4498 17.0581 13.567C17.1753 13.6842 17.3342 13.75 17.5 13.75C17.6658 13.75 17.8247 13.6842 17.9419 13.567C18.0592 13.4498 18.125 13.2908 18.125 13.125V6.87502C18.125 6.70926 18.0592 6.55029 17.9419 6.43308C17.8247 6.31587 17.6658 6.25002 17.5 6.25002ZM4.2125 2.70471C4.15761 2.64284 4.09099 2.59248 4.0165 2.55654C3.94201 2.52061 3.86112 2.49982 3.77854 2.49538C3.69595 2.49093 3.6133 2.50293 3.53538 2.53066C3.45746 2.55839 3.38582 2.60132 3.32462 2.65694C3.26341 2.71257 3.21385 2.77978 3.17881 2.8547C3.14378 2.92962 3.12396 3.01075 3.1205 3.09338C3.11705 3.17602 3.13004 3.25852 3.1587 3.3361C3.18737 3.41368 3.23115 3.4848 3.2875 3.54533L5.74609 6.25002H2.5C2.16848 6.25002 1.85054 6.38172 1.61612 6.61614C1.3817 6.85056 1.25 7.1685 1.25 7.50002V12.5C1.25 12.8315 1.3817 13.1495 1.61612 13.3839C1.85054 13.6183 2.16848 13.75 2.5 13.75H6.03516L11.4914 17.993C11.5837 18.0648 11.6944 18.1092 11.8107 18.1212C11.927 18.1333 12.0444 18.1124 12.1495 18.0611C12.2545 18.0097 12.3431 17.9299 12.405 17.8307C12.467 17.7315 12.4999 17.617 12.5 17.5V13.6789L15.7875 17.2953C15.8424 17.3572 15.909 17.4076 15.9835 17.4435C16.058 17.4794 16.1389 17.5002 16.2215 17.5047C16.3041 17.5091 16.3867 17.4971 16.4646 17.4694C16.5425 17.4416 16.6142 17.3987 16.6754 17.3431C16.7366 17.2875 16.7861 17.2203 16.8212 17.1453C16.8562 17.0704 16.876 16.9893 16.8795 16.9067C16.8829 16.824 16.87 16.7415 16.8413 16.6639C16.8126 16.5864 16.7689 16.5152 16.7125 16.4547L4.2125 2.70471ZM11.4125 8.76643C11.4973 8.85977 11.6085 8.92526 11.7312 8.95428C11.854 8.9833 11.9827 8.9745 12.1003 8.92902C12.218 8.88354 12.3191 8.80353 12.3905 8.69949C12.4618 8.59545 12.5 8.47226 12.5 8.34611V2.50002C12.4999 2.38307 12.467 2.26849 12.405 2.16931C12.3431 2.07013 12.2545 1.99033 12.1495 1.93897C12.0444 1.88762 11.927 1.86677 11.8107 1.87881C11.6944 1.89084 11.5837 1.93527 11.4914 2.00705L8.37812 4.42893C8.31015 4.48184 8.25384 4.54824 8.21275 4.62395C8.17165 4.69966 8.14665 4.78305 8.13932 4.86888C8.13198 4.95472 8.14247 5.04114 8.17012 5.12273C8.19777 5.20431 8.24199 5.2793 8.3 5.34299L11.4125 8.76643Z" fill="#191F2E"/>
</svg>
