<svg width="20" height="20" viewBox="0 0 20 20" fill="none" xmlns="http://www.w3.org/2000/svg">
<path d="M4.2125 2.70471C4.15761 2.64284 4.09099 2.59248 4.0165 2.55655C3.94201 2.52062 3.86112 2.49983 3.77854 2.49538C3.69595 2.49094 3.6133 2.50293 3.53538 2.53067C3.45746 2.5584 3.38582 2.60132 3.32462 2.65695C3.26341 2.71257 3.21385 2.77979 3.17881 2.85471C3.14378 2.92963 3.12396 3.01076 3.1205 3.09339C3.11705 3.17603 3.13004 3.25852 3.1587 3.3361C3.18737 3.41368 3.23115 3.4848 3.2875 3.54534L5.74609 6.25003H2.5C2.16848 6.25003 1.85054 6.38172 1.61612 6.61614C1.3817 6.85056 1.25 7.16851 1.25 7.50003V12.5C1.25 12.8315 1.3817 13.1495 1.61612 13.3839C1.85054 13.6183 2.16848 13.75 2.5 13.75H6.03516L11.4914 17.993C11.5837 18.0648 11.6944 18.1092 11.8107 18.1212C11.927 18.1333 12.0444 18.1124 12.1495 18.0611C12.2545 18.0097 12.3431 17.9299 12.405 17.8307C12.467 17.7316 12.4999 17.617 12.5 17.5V13.6789L15.7875 17.2953C15.8424 17.3572 15.909 17.4076 15.9835 17.4435C16.058 17.4794 16.1389 17.5002 16.2215 17.5047C16.3041 17.5091 16.3867 17.4971 16.4646 17.4694C16.5425 17.4417 16.6142 17.3987 16.6754 17.3431C16.7366 17.2875 16.7861 17.2203 16.8212 17.1453C16.8562 17.0704 16.876 16.9893 16.8795 16.9067C16.8829 16.824 16.87 16.7415 16.8413 16.6639C16.8126 16.5864 16.7689 16.5153 16.7125 16.4547L4.2125 2.70471ZM2.5 7.50003H5.625V12.5H2.5V7.50003ZM11.25 16.2219L6.875 12.8196V7.49143L11.25 12.3039V16.2219ZM14.5312 11.2399C14.8327 10.8975 14.999 10.457 14.999 10.0008C14.999 9.54464 14.8327 9.10412 14.5312 8.76175C14.4738 8.70071 14.4293 8.62875 14.4002 8.55015C14.3712 8.47154 14.3582 8.3879 14.3621 8.30419C14.3661 8.22048 14.3868 8.13842 14.4231 8.06288C14.4594 7.98734 14.5105 7.91987 14.5733 7.86448C14.6362 7.80909 14.7096 7.76691 14.7891 7.74045C14.8686 7.71399 14.9527 7.70379 15.0362 7.71046C15.1197 7.71713 15.2011 7.74053 15.2754 7.77927C15.3497 7.81801 15.4155 7.8713 15.4688 7.93596C15.9715 8.50665 16.2488 9.24107 16.2488 10.0016C16.2488 10.7621 15.9715 11.4965 15.4688 12.0672C15.4144 12.1288 15.3485 12.179 15.2748 12.2151C15.201 12.2512 15.1209 12.2724 15.0389 12.2775C14.957 12.2826 14.8749 12.2715 14.7972 12.2449C14.7195 12.2183 14.6479 12.1766 14.5863 12.1223C14.5248 12.068 14.4745 12.0021 14.4384 11.9283C14.4024 11.8546 14.3811 11.7744 14.376 11.6925C14.3709 11.6105 14.382 11.5284 14.4086 11.4507C14.4353 11.3731 14.4769 11.3014 14.5312 11.2399ZM8.26875 5.30237C8.2183 5.23759 8.18111 5.16351 8.15931 5.08435C8.1375 5.00519 8.1315 4.92251 8.14166 4.84104C8.15182 4.75956 8.17793 4.68089 8.2185 4.60951C8.25908 4.53812 8.31332 4.47544 8.37812 4.42503L11.4914 2.00315C11.584 1.93117 11.695 1.88669 11.8117 1.8748C11.9283 1.86291 12.046 1.88409 12.1512 1.93592C12.2564 1.98775 12.3449 2.06814 12.4066 2.1679C12.4683 2.26765 12.5006 2.38275 12.5 2.50003V8.34612C12.5 8.51188 12.4342 8.67085 12.3169 8.78806C12.1997 8.90527 12.0408 8.97112 11.875 8.97112C11.7092 8.97112 11.5503 8.90527 11.4331 8.78806C11.3158 8.67085 11.25 8.51188 11.25 8.34612V3.77815L9.14531 5.41878C9.01405 5.51999 8.84796 5.56491 8.68357 5.54367C8.51919 5.52242 8.36997 5.43675 8.26875 5.3055V5.30237ZM19.375 10C19.3759 11.5377 18.8092 13.0216 17.7836 14.1672C17.6723 14.2877 17.518 14.3596 17.3542 14.3673C17.1903 14.3751 17.03 14.3181 16.9077 14.2087C16.7855 14.0993 16.7112 13.9462 16.7008 13.7825C16.6905 13.6188 16.7449 13.4576 16.8523 13.3336C17.6722 12.4169 18.1254 11.2302 18.1254 10.0004C18.1254 8.77059 17.6722 7.5839 16.8523 6.66721C16.7961 6.60632 16.7525 6.53484 16.7241 6.45694C16.6957 6.37904 16.6831 6.29626 16.687 6.21345C16.691 6.13063 16.7113 6.04941 16.7469 5.97454C16.7826 5.89967 16.8327 5.83263 16.8945 5.77733C16.9563 5.72203 17.0284 5.67958 17.1068 5.65244C17.1851 5.6253 17.2681 5.61402 17.3508 5.61926C17.4336 5.6245 17.5145 5.64615 17.5888 5.68295C17.6631 5.71975 17.7293 5.77097 17.7836 5.83362C18.8095 6.97879 19.3762 8.46254 19.375 10Z" fill="#191F2E"/>
</svg>
