<svg width="20" height="20" viewBox="0 0 20 20" fill="none" xmlns="http://www.w3.org/2000/svg">
<path d="M12.2867 1.6578C12.129 1.58071 11.9529 1.54943 11.7783 1.56753C11.6037 1.58562 11.4377 1.65236 11.2992 1.76014L5.92812 5.93749H2.5C2.0856 5.93749 1.68817 6.10211 1.39515 6.39513C1.10212 6.68816 0.9375 7.08559 0.9375 7.49999V12.5C0.9375 12.9144 1.10212 13.3118 1.39515 13.6048C1.68817 13.8979 2.0856 14.0625 2.5 14.0625H5.92812L11.2992 18.2398C11.4377 18.3476 11.6037 18.4144 11.7783 18.4325C11.9529 18.4506 12.1291 18.4193 12.2868 18.3422C12.4445 18.2651 12.5773 18.1453 12.6703 17.9964C12.7632 17.8475 12.8125 17.6755 12.8125 17.5V2.49999C12.8125 2.32446 12.7632 2.15247 12.6702 2.00358C12.5773 1.85469 12.4444 1.73488 12.2867 1.6578ZM2.8125 7.81249H5.3125V12.1875H2.8125V7.81249ZM10.9375 15.5828L7.1875 12.6664V7.33358L10.9375 4.41717V15.5828ZM16.5625 9.99999C16.5626 10.8374 16.257 11.6461 15.7031 12.2742C15.6217 12.3665 15.5228 12.4419 15.4122 12.4961C15.3016 12.5502 15.1814 12.582 15.0586 12.5897C14.9357 12.5974 14.8125 12.5808 14.696 12.5409C14.5795 12.501 14.472 12.4385 14.3797 12.357C14.2874 12.2756 14.212 12.1767 14.1578 12.0661C14.1037 11.9555 14.0719 11.8353 14.0642 11.7125C14.0565 11.5896 14.0731 11.4664 14.113 11.3499C14.1529 11.2334 14.2154 11.1259 14.2969 11.0336C14.548 10.7483 14.6866 10.3812 14.6866 10.0012C14.6866 9.62108 14.548 9.25403 14.2969 8.96874C14.1408 8.78114 14.064 8.54006 14.0828 8.29674C14.1017 8.05341 14.2146 7.82703 14.3977 7.66568C14.5809 7.50434 14.8197 7.42077 15.0634 7.43272C15.3072 7.44466 15.5367 7.5512 15.7031 7.72967C16.2565 8.35652 16.5621 9.16381 16.5625 9.99999ZM19.6875 9.99999C19.6885 11.6144 19.0934 13.1723 18.0164 14.375C17.8506 14.5603 17.618 14.6722 17.3698 14.6861C17.1215 14.6999 16.8779 14.6146 16.6926 14.4488C16.5072 14.2831 16.3953 14.0505 16.3815 13.8022C16.3676 13.5539 16.453 13.3103 16.6187 13.125C17.3874 12.2656 17.8124 11.153 17.8124 9.99999C17.8124 8.84697 17.3874 7.7344 16.6187 6.87499C16.5333 6.78383 16.467 6.67652 16.4236 6.55936C16.3802 6.4422 16.3607 6.31755 16.3662 6.19274C16.3717 6.06793 16.4021 5.94547 16.4555 5.83256C16.509 5.71966 16.5845 5.61858 16.6776 5.53527C16.7707 5.45196 16.8795 5.3881 16.9977 5.34744C17.1158 5.30678 17.2409 5.29014 17.3655 5.29849C17.4902 5.30685 17.6119 5.34004 17.7235 5.39611C17.8352 5.45218 17.9345 5.52999 18.0156 5.62499C19.0929 6.82754 19.6882 8.38548 19.6875 9.99999Z" fill="#191F2E"/>
</svg>
