<svg width="20" height="20" viewBox="0 0 20 20" fill="none" xmlns="http://www.w3.org/2000/svg">
<path d="M12.2867 1.6578C12.129 1.58071 11.9529 1.54943 11.7783 1.56753C11.6037 1.58562 11.4377 1.65236 11.2992 1.76014L5.92812 5.93749H2.5C2.0856 5.93749 1.68817 6.10211 1.39515 6.39513C1.10212 6.68816 0.9375 7.08559 0.9375 7.49999V12.5C0.9375 12.9144 1.10212 13.3118 1.39515 13.6048C1.68817 13.8979 2.0856 14.0625 2.5 14.0625H5.92812L11.2992 18.2398C11.4377 18.3476 11.6037 18.4144 11.7783 18.4325C11.9529 18.4506 12.1291 18.4193 12.2868 18.3422C12.4445 18.2651 12.5773 18.1453 12.6703 17.9964C12.7632 17.8475 12.8125 17.6755 12.8125 17.5V2.49999C12.8125 2.32446 12.7632 2.15247 12.6702 2.00358C12.5773 1.85469 12.4444 1.73488 12.2867 1.6578ZM2.8125 7.81249H5.3125V12.1875H2.8125V7.81249ZM10.9375 15.5828L7.1875 12.6664V7.33358L10.9375 4.41717V15.5828ZM16.5625 9.99999C16.5626 10.8374 16.257 11.6461 15.7031 12.2742C15.5386 12.4607 15.3067 12.5742 15.0586 12.5897C14.8104 12.6052 14.5662 12.5215 14.3797 12.357C14.1932 12.1925 14.0797 11.9606 14.0642 11.7125C14.0487 11.4643 14.1324 11.2201 14.2969 11.0336C14.5482 10.7482 14.6869 10.381 14.6869 10.0008C14.6869 9.62051 14.5482 9.2533 14.2969 8.96795C14.1433 8.78006 14.0686 8.53992 14.0884 8.29806C14.1082 8.05619 14.2211 7.83144 14.4032 7.67106C14.5853 7.51069 14.8226 7.42719 15.065 7.43812C15.3074 7.44905 15.5362 7.55356 15.7031 7.72967C16.2565 8.35652 16.5621 9.16381 16.5625 9.99999Z" fill="#191F2E"/>
</svg>
