<svg width="20" height="20" viewBox="0 0 20 20" fill="none" xmlns="http://www.w3.org/2000/svg">
<path d="M12.1492 1.93828C12.0441 1.88706 11.9268 1.86636 11.8105 1.87851C11.6942 1.89066 11.5836 1.93519 11.4914 2.00703L6.03516 6.25H2.5C2.16848 6.25 1.85054 6.38169 1.61612 6.61611C1.3817 6.85053 1.25 7.16848 1.25 7.5V12.5C1.25 12.8315 1.3817 13.1495 1.61612 13.3839C1.85054 13.6183 2.16848 13.75 2.5 13.75H6.03516L11.4914 17.993C11.5837 18.0647 11.6944 18.1092 11.8107 18.1212C11.927 18.1332 12.0444 18.1124 12.1495 18.061C12.2545 18.0097 12.3431 17.9299 12.405 17.8307C12.467 17.7315 12.4999 17.6169 12.5 17.5V2.5C12.5 2.38291 12.4671 2.26817 12.4051 2.16886C12.3431 2.06954 12.2544 1.98965 12.1492 1.93828ZM2.5 7.5H5.625V12.5H2.5V7.5Z" fill="#191F2E"/>
</svg>
