<svg width="20" height="20" viewBox="0 0 20 20" fill="none" xmlns="http://www.w3.org/2000/svg">
<path d="M4.44375 2.49455C4.36142 2.40174 4.26149 2.3262 4.14975 2.2723C4.03801 2.2184 3.91668 2.18721 3.7928 2.18055C3.66892 2.17389 3.54495 2.19187 3.42807 2.23348C3.3112 2.27508 3.20374 2.33946 3.11193 2.4229C3.02012 2.50633 2.94578 2.60716 2.89322 2.71954C2.84067 2.83192 2.81094 2.95361 2.80576 3.07756C2.80058 3.20151 2.82005 3.32526 2.86305 3.44163C2.90605 3.558 2.97172 3.66468 3.05625 3.75548L5.03984 5.93751H2.5C2.0856 5.93751 1.68817 6.10213 1.39515 6.39516C1.10212 6.68819 0.9375 7.08561 0.9375 7.50001V12.5C0.9375 12.9144 1.10212 13.3118 1.39515 13.6049C1.68817 13.8979 2.0856 14.0625 2.5 14.0625H5.92812L11.2992 18.2399C11.4377 18.3477 11.6037 18.4144 11.7783 18.4325C11.9529 18.4506 12.1291 18.4193 12.2868 18.3422C12.4445 18.2651 12.5773 18.1453 12.6703 17.9964C12.7632 17.8475 12.8125 17.6755 12.8125 17.5V14.4875L15.5562 17.5055C15.7243 17.686 15.9568 17.7931 16.2033 17.8034C16.4498 17.8137 16.6904 17.7264 16.873 17.5605C17.0555 17.3946 17.1653 17.1634 17.1786 16.9171C17.1918 16.6707 17.1075 16.4291 16.9438 16.2445L4.44375 2.49455ZM2.8125 7.81251H5.3125V12.1875H2.8125V7.81251ZM10.9375 15.5828L7.1875 12.6664V8.30001L10.9375 12.4219V15.5828ZM8.51562 5.11408C8.44006 5.01687 8.38437 4.90573 8.35176 4.78701C8.31915 4.66828 8.31024 4.54429 8.32555 4.42212C8.34085 4.29995 8.38008 4.18199 8.44098 4.07498C8.50187 3.96797 8.58325 3.87401 8.68047 3.79845L11.2984 1.76173C11.4368 1.65378 11.6028 1.58686 11.7774 1.56858C11.9519 1.55029 12.1281 1.58139 12.2859 1.65832C12.4437 1.73525 12.5767 1.85493 12.6698 2.00373C12.7629 2.15254 12.8123 2.32449 12.8125 2.50001V7.4172C12.8125 7.66584 12.7137 7.9043 12.5379 8.08011C12.3621 8.25593 12.1236 8.3547 11.875 8.3547C11.6264 8.3547 11.3879 8.25593 11.2121 8.08011C11.0363 7.9043 10.9375 7.66584 10.9375 7.4172V4.4172L9.83203 5.27658C9.73485 5.35231 9.62369 5.40814 9.50492 5.44089C9.38614 5.47363 9.26208 5.48264 9.13982 5.4674C9.01756 5.45217 8.89951 5.41298 8.7924 5.35209C8.6853 5.29119 8.59125 5.20978 8.51562 5.11251V5.11408ZM14.2969 8.96955C14.1433 8.78165 14.0686 8.54151 14.0884 8.29965C14.1082 8.05778 14.2211 7.83303 14.4032 7.67266C14.5853 7.51228 14.8226 7.42878 15.065 7.43971C15.3074 7.45064 15.5362 7.55515 15.7031 7.73126C16.1695 8.26141 16.4614 8.92233 16.5389 9.62417C16.6165 10.326 16.4761 11.0347 16.1367 11.6539C16.0101 11.8579 15.81 12.0055 15.5778 12.0664C15.3455 12.1272 15.0988 12.0966 14.8884 11.9809C14.678 11.8652 14.5201 11.6732 14.4471 11.4445C14.3741 11.2158 14.3916 10.9678 14.4961 10.7516C14.6231 10.5215 14.689 10.2628 14.6875 10C14.6871 9.61994 14.5483 9.25304 14.2969 8.96798V8.96955ZM19.6875 10C19.6865 11.5201 19.1589 12.993 18.1945 14.168C18.1168 14.2646 18.0207 14.3449 17.9118 14.4042C17.8028 14.4635 17.6832 14.5005 17.5598 14.5132C17.4364 14.5259 17.3118 14.514 17.193 14.4782C17.0743 14.4423 16.9639 14.3833 16.8681 14.3045C16.7723 14.2257 16.6932 14.1287 16.6352 14.019C16.5772 13.9094 16.5415 13.7894 16.5302 13.6659C16.5189 13.5423 16.5323 13.4178 16.5695 13.2995C16.6067 13.1812 16.667 13.0714 16.7469 12.9766C17.4577 12.1119 17.8355 11.0213 17.8122 9.90223C17.7888 8.78313 17.3658 7.70932 16.6195 6.87501C16.5341 6.78386 16.4677 6.67655 16.4244 6.55939C16.381 6.44222 16.3615 6.31758 16.367 6.19277C16.3725 6.06795 16.4028 5.9455 16.4563 5.83259C16.5098 5.71969 16.5853 5.61861 16.6784 5.5353C16.7715 5.45199 16.8803 5.38813 16.9984 5.34747C17.1166 5.30681 17.2416 5.29016 17.3663 5.29852C17.4909 5.30688 17.6127 5.34007 17.7243 5.39614C17.836 5.4522 17.9353 5.53002 18.0164 5.62501C19.0934 6.82768 19.6885 8.38561 19.6875 10Z" fill="#191F2E"/>
</svg>
