<svg width="20" height="20" viewBox="0 0 20 20" fill="none" xmlns="http://www.w3.org/2000/svg">
<path d="M15 1.875H5C4.66848 1.875 4.35054 2.0067 4.11612 2.24112C3.8817 2.47554 3.75 2.79348 3.75 3.125V16.875C3.75 17.2065 3.8817 17.5245 4.11612 17.7589C4.35054 17.9933 4.66848 18.125 5 18.125H15C15.3315 18.125 15.6495 17.9933 15.8839 17.7589C16.1183 17.5245 16.25 17.2065 16.25 16.875V3.125C16.25 2.79348 16.1183 2.47554 15.8839 2.24112C15.6495 2.0067 15.3315 1.875 15 1.875ZM15 16.875H5V3.125H15V16.875ZM9.0625 5.9375C9.0625 5.75208 9.11748 5.57082 9.2205 5.41665C9.32351 5.26248 9.46993 5.14232 9.64123 5.07136C9.81254 5.00041 10.001 4.98184 10.1829 5.01801C10.3648 5.05419 10.5318 5.14348 10.6629 5.27459C10.794 5.4057 10.8833 5.57275 10.9195 5.7546C10.9557 5.93646 10.9371 6.12496 10.8661 6.29627C10.7952 6.46757 10.675 6.61399 10.5208 6.717C10.3667 6.82002 10.1854 6.875 10 6.875C9.75136 6.875 9.5129 6.77623 9.33709 6.60041C9.16127 6.4246 9.0625 6.18614 9.0625 5.9375ZM10 15C10.6181 15 11.2223 14.8167 11.7362 14.4733C12.2501 14.13 12.6506 13.6419 12.8871 13.0709C13.1236 12.4999 13.1855 11.8715 13.065 11.2653C12.9444 10.6592 12.6467 10.1023 12.2097 9.66529C11.7727 9.22825 11.2158 8.93062 10.6097 8.81005C10.0035 8.68947 9.37513 8.75135 8.80411 8.98788C8.2331 9.2244 7.74504 9.62494 7.40166 10.1388C7.05828 10.6527 6.875 11.2569 6.875 11.875C6.875 12.2854 6.95583 12.6917 7.11288 13.0709C7.26992 13.45 7.50011 13.7945 7.79029 14.0847C8.37634 14.6708 9.1712 15 10 15ZM10 10C10.3708 10 10.7334 10.11 11.0417 10.316C11.35 10.522 11.5904 10.8149 11.7323 11.1575C11.8742 11.5001 11.9113 11.8771 11.839 12.2408C11.7666 12.6045 11.588 12.9386 11.3258 13.2008C11.0636 13.463 10.7295 13.6416 10.3658 13.714C10.0021 13.7863 9.62508 13.7492 9.28247 13.6073C8.93986 13.4654 8.64702 13.225 8.44099 12.9167C8.23497 12.6084 8.125 12.2458 8.125 11.875C8.125 11.3777 8.32254 10.9008 8.67417 10.5492C9.02581 10.1975 9.50272 10 10 10Z" fill="#191F2E"/>
</svg>
