<svg width="20" height="20" viewBox="0 0 20 20" fill="none" xmlns="http://www.w3.org/2000/svg">
<path d="M15 1.5625H5C4.5856 1.5625 4.18817 1.72712 3.89515 2.02015C3.60212 2.31317 3.4375 2.7106 3.4375 3.125V16.875C3.4375 17.2894 3.60212 17.6868 3.89515 17.9799C4.18817 18.2729 4.5856 18.4375 5 18.4375H15C15.4144 18.4375 15.8118 18.2729 16.1049 17.9799C16.3979 17.6868 16.5625 17.2894 16.5625 16.875V3.125C16.5625 2.7106 16.3979 2.31317 16.1049 2.02015C15.8118 1.72712 15.4144 1.5625 15 1.5625ZM14.6875 16.5625H5.3125V3.4375H14.6875V16.5625ZM8.75 5.9375C8.75 5.69027 8.82331 5.4486 8.96066 5.24304C9.09801 5.03748 9.29324 4.87726 9.52165 4.78265C9.75005 4.68804 10.0014 4.66329 10.2439 4.71152C10.4863 4.75975 10.7091 4.8788 10.8839 5.05362C11.0587 5.22843 11.1778 5.45116 11.226 5.69364C11.2742 5.93611 11.2495 6.18745 11.1548 6.41585C11.0602 6.64426 10.9 6.83949 10.6945 6.97684C10.4889 7.11419 10.2472 7.1875 10 7.1875C9.66848 7.1875 9.35054 7.0558 9.11612 6.82138C8.8817 6.58696 8.75 6.26902 8.75 5.9375ZM10 15.3125C10.6799 15.3125 11.3445 15.1109 11.9098 14.7332C12.4751 14.3555 12.9157 13.8186 13.1758 13.1905C13.436 12.5624 13.5041 11.8712 13.3714 11.2044C13.2388 10.5376 12.9114 9.92506 12.4307 9.44432C11.9499 8.96358 11.3374 8.63619 10.6706 8.50355C10.0038 8.37091 9.31265 8.43899 8.68453 8.69916C8.0564 8.95934 7.51954 9.39993 7.14182 9.96523C6.76411 10.5305 6.5625 11.1951 6.5625 11.875C6.56353 12.7864 6.92603 13.6601 7.57046 14.3045C8.21489 14.949 9.08864 15.3115 10 15.3125ZM10 10.3125C10.309 10.3125 10.6111 10.4041 10.8681 10.5758C11.125 10.7475 11.3253 10.9915 11.4436 11.2771C11.5618 11.5626 11.5928 11.8767 11.5325 12.1798C11.4722 12.4829 11.3234 12.7613 11.1049 12.9799C10.8863 13.1984 10.6079 13.3472 10.3048 13.4075C10.0017 13.4678 9.68757 13.4368 9.40206 13.3186C9.11655 13.2003 8.87252 13 8.70083 12.7431C8.52914 12.4861 8.4375 12.184 8.4375 11.875C8.4375 11.4606 8.60212 11.0632 8.89515 10.7701C9.18817 10.4771 9.5856 10.3125 10 10.3125Z" fill="#191F2E"/>
</svg>
