<svg width="20" height="20" viewBox="0 0 20 20" fill="none" xmlns="http://www.w3.org/2000/svg">
<path d="M18.1249 10.3125C18.1264 12.3448 17.3634 14.3034 15.9874 15.7992C15.7328 16.0765 15.2906 15.7531 15.4851 15.4312C16.1914 14.2645 16.564 12.9263 16.5624 11.5625C16.5604 9.90549 15.9012 8.31698 14.7296 7.14532C13.5579 5.97367 11.9694 5.31452 10.3124 5.31246C8.9868 5.3139 7.71587 5.84115 6.77851 6.77852C5.84114 7.71589 5.31389 8.98682 5.31244 10.3125C5.31347 11.3067 5.70889 12.2599 6.41193 12.963C7.11497 13.666 8.0682 14.0614 9.06244 14.0625C9.72548 14.0625 10.3614 13.7991 10.8302 13.3302C11.299 12.8614 11.5624 12.2255 11.5624 11.5625C11.5636 11.5411 11.5636 11.5197 11.5624 11.4984C11.5467 11.1869 11.4151 10.8926 11.1936 10.6732C10.972 10.4538 10.6764 10.3251 10.3648 10.3125C10.1991 10.3028 10.0361 10.3575 9.90983 10.4653C9.78358 10.573 9.7039 10.7254 9.68744 10.8906C9.68098 10.9765 9.69235 11.0629 9.72086 11.1442C9.74936 11.2255 9.79437 11.3001 9.85306 11.3631C9.91176 11.4262 9.98286 11.4765 10.0619 11.5108C10.141 11.5451 10.2263 11.5627 10.3124 11.5625C10.3124 11.894 10.1807 12.2119 9.94632 12.4463C9.7119 12.6808 9.39396 12.8125 9.06244 12.8125C8.3994 12.8125 7.76351 12.5491 7.29467 12.0802C6.82583 11.6114 6.56244 10.9755 6.56244 10.3125C6.56347 9.31821 6.95889 8.36499 7.66193 7.66195C8.36497 6.95891 9.3182 6.56349 10.3124 6.56246C11.6381 6.5639 12.909 7.09115 13.8464 8.02852C14.7837 8.96589 15.311 10.2368 15.3124 11.5625C15.3104 13.2194 14.6512 14.8079 13.4796 15.9796C12.3079 17.1512 10.7194 17.8104 9.06244 17.8125C3.26869 17.8125 1.81478 12.457 1.87494 10.0929C1.99213 5.76011 5.54213 2.25308 9.87572 2.18746C10.9528 2.17225 12.0221 2.37111 13.0217 2.7725C14.0213 3.17389 14.9312 3.76981 15.6986 4.52568C16.4661 5.28155 17.0757 6.18232 17.4922 7.1757C17.9087 8.16908 18.1238 9.23529 18.1249 10.3125Z" fill="#191F2E"/>
</svg>
