<svg width="20" height="20" viewBox="0 0 20 20" fill="none" xmlns="http://www.w3.org/2000/svg">
<path d="M19.375 11.25C19.375 11.4158 19.3092 11.5747 19.1919 11.6919C19.0747 11.8092 18.9158 11.875 18.75 11.875C18.5842 11.875 18.4253 11.8092 18.3081 11.6919C18.1908 11.5747 18.125 11.4158 18.125 11.25C18.1227 9.26157 17.3318 7.35524 15.9258 5.94921C14.5198 4.54318 12.6134 3.75227 10.625 3.75C8.80227 3.75207 7.05479 4.47706 5.76592 5.76592C4.47706 7.05479 3.75207 8.80227 3.75 10.625C3.75186 12.282 4.41094 13.8707 5.58264 15.0424C6.75434 16.2141 8.34297 16.8731 10 16.875C11.4913 16.8733 12.9211 16.2802 13.9756 15.2256C15.0302 14.1711 15.6233 12.7413 15.625 11.25C15.6236 9.92436 15.0963 8.65343 14.1589 7.71606C13.2216 6.7787 11.9506 6.25145 10.625 6.25C9.46506 6.25124 8.35298 6.71258 7.53278 7.53278C6.71258 8.35298 6.25124 9.46506 6.25 10.625C6.25103 11.6192 6.64645 12.5725 7.34949 13.2755C8.05253 13.9785 9.00576 14.374 10 14.375C10.4104 14.375 10.8167 14.2942 11.1959 14.1371C11.575 13.9801 11.9195 13.7499 12.2097 13.4597C12.4999 13.1695 12.7301 12.825 12.8871 12.4459C13.0442 12.0667 13.125 11.6604 13.125 11.25C13.125 10.587 12.8616 9.95107 12.3928 9.48223C11.9239 9.01339 11.288 8.75 10.625 8.75C10.1277 8.75 9.65081 8.94754 9.29917 9.29917C8.94754 9.65081 8.75 10.1277 8.75 10.625C8.75 10.9565 8.8817 11.2745 9.11612 11.5089C9.35054 11.7433 9.66848 11.875 10 11.875C10.1658 11.875 10.3247 11.8092 10.4419 11.6919C10.5592 11.5747 10.625 11.4158 10.625 11.25C10.4592 11.25 10.3003 11.1842 10.1831 11.0669C10.0658 10.9497 10 10.7908 10 10.625C10 10.4592 10.0658 10.3003 10.1831 10.1831C10.3003 10.0658 10.4592 10 10.625 10C10.9565 10 11.2745 10.1317 11.5089 10.3661C11.7433 10.6005 11.875 10.9185 11.875 11.25C11.875 11.7473 11.6775 12.2242 11.3258 12.5758C10.9742 12.9275 10.4973 13.125 10 13.125C9.33696 13.125 8.70107 12.8616 8.23223 12.3928C7.76339 11.9239 7.5 11.288 7.5 10.625C7.5 9.7962 7.82924 9.00134 8.41529 8.41529C9.00134 7.82924 9.7962 7.5 10.625 7.5C11.6192 7.50103 12.5725 7.89645 13.2755 8.59949C13.9785 9.30253 14.374 10.2558 14.375 11.25C14.3738 12.4099 13.9124 13.522 13.0922 14.3422C12.272 15.1624 11.1599 15.6238 10 15.625C8.67436 15.6236 7.40343 15.0963 6.46606 14.1589C5.5287 13.2216 5.00145 11.9506 5 10.625C5.00165 9.13367 5.59482 7.70389 6.64935 6.64935C7.70389 5.59482 9.13367 5.00165 10.625 5C12.282 5.00186 13.8707 5.66094 15.0424 6.83264C16.2141 8.00434 16.8731 9.59297 16.875 11.25C16.8729 13.0727 16.1479 14.8202 14.8591 16.1091C13.5702 17.3979 11.8227 18.1229 10 18.125C8.01157 18.1227 6.10524 17.3318 4.69921 15.9258C3.29318 14.5198 2.50227 12.6134 2.5 10.625C2.50227 8.47081 3.35903 6.40551 4.88227 4.88227C6.40551 3.35903 8.47081 2.50227 10.625 2.5C12.9449 2.50248 15.169 3.42515 16.8094 5.06556C18.4498 6.70596 19.3725 8.93012 19.375 11.25Z" fill="#191F2E"/>
</svg>
