<svg width="20" height="20" viewBox="0 0 20 20" fill="none" xmlns="http://www.w3.org/2000/svg">
<path d="M17.1875 11.875C17.1875 12.1236 17.0887 12.3621 16.9129 12.5379C16.7371 12.7137 16.4986 12.8125 16.25 12.8125H10.9375V15.8594L11.8367 14.9594C12.0128 14.7833 12.2517 14.6843 12.5008 14.6843C12.7499 14.6843 12.9887 14.7833 13.1648 14.9594C13.341 15.1355 13.4399 15.3744 13.4399 15.6234C13.4399 15.8725 13.341 16.1114 13.1648 16.2875L10.6648 18.7875C10.5777 18.8749 10.4743 18.9443 10.3603 18.9916C10.2463 19.0389 10.1242 19.0632 10.0008 19.0632C9.87739 19.0632 9.75522 19.0389 9.64126 18.9916C9.52731 18.9443 9.42382 18.8749 9.33672 18.7875L6.83672 16.2875C6.74951 16.2003 6.68034 16.0968 6.63314 15.9828C6.58595 15.8689 6.56165 15.7468 6.56165 15.6234C6.56165 15.5001 6.58595 15.378 6.63314 15.2641C6.68034 15.1501 6.74951 15.0466 6.83672 14.9594C6.92392 14.8722 7.02745 14.803 7.14139 14.7558C7.25533 14.7086 7.37745 14.6843 7.50078 14.6843C7.62411 14.6843 7.74623 14.7086 7.86017 14.7558C7.97411 14.803 8.07764 14.8722 8.16484 14.9594L9.0625 15.8594V12.8125H3.75C3.50136 12.8125 3.2629 12.7137 3.08709 12.5379C2.91127 12.3621 2.8125 12.1236 2.8125 11.875C2.8125 11.6264 2.91127 11.3879 3.08709 11.2121C3.2629 11.0363 3.50136 10.9375 3.75 10.9375H16.25C16.4986 10.9375 16.7371 11.0363 16.9129 11.2121C17.0887 11.3879 17.1875 11.6264 17.1875 11.875ZM3.75 9.06251H16.25C16.4986 9.06251 16.7371 8.96373 16.9129 8.78792C17.0887 8.6121 17.1875 8.37365 17.1875 8.12501C17.1875 7.87637 17.0887 7.63791 16.9129 7.46209C16.7371 7.28628 16.4986 7.18751 16.25 7.18751H10.9375V4.14063L11.8367 5.04063C11.9239 5.12784 12.0275 5.19701 12.1414 5.24421C12.2553 5.2914 12.3775 5.3157 12.5008 5.3157C12.6241 5.3157 12.7462 5.2914 12.8602 5.24421C12.9741 5.19701 13.0776 5.12784 13.1648 5.04063C13.252 4.95343 13.3212 4.8499 13.3684 4.73596C13.4156 4.62202 13.4399 4.4999 13.4399 4.37657C13.4399 4.25324 13.4156 4.13112 13.3684 4.01718C13.3212 3.90324 13.252 3.79971 13.1648 3.71251L10.6648 1.21251C10.5777 1.12511 10.4743 1.05576 10.3603 1.00844C10.2463 0.961125 10.1242 0.936768 10.0008 0.936768C9.87739 0.936768 9.75522 0.961125 9.64126 1.00844C9.52731 1.05576 9.42382 1.12511 9.33672 1.21251L6.83672 3.71251C6.6606 3.88863 6.56165 4.1275 6.56165 4.37657C6.56165 4.62564 6.6606 4.86451 6.83672 5.04063C7.01284 5.21675 7.25171 5.3157 7.50078 5.3157C7.74985 5.3157 7.98872 5.21675 8.16484 5.04063L9.0625 4.14063V7.18751H3.75C3.50136 7.18751 3.2629 7.28628 3.08709 7.46209C2.91127 7.63791 2.8125 7.87637 2.8125 8.12501C2.8125 8.37365 2.91127 8.6121 3.08709 8.78792C3.2629 8.96373 3.50136 9.06251 3.75 9.06251Z" fill="#191F2E"/>
</svg>
