<svg width="20" height="20" viewBox="0 0 20 20" fill="none" xmlns="http://www.w3.org/2000/svg">
<path d="M9.06251 3.75V16.25C9.06251 16.4986 8.96373 16.7371 8.78792 16.9129C8.6121 17.0887 8.37365 17.1875 8.12501 17.1875C7.87637 17.1875 7.63791 17.0887 7.46209 16.9129C7.28628 16.7371 7.18751 16.4986 7.18751 16.25V10.9375H4.14063L5.04063 11.8367C5.21675 12.0128 5.3157 12.2517 5.3157 12.5008C5.3157 12.7499 5.21675 12.9887 5.04063 13.1648C4.86451 13.341 4.62564 13.4399 4.37657 13.4399C4.1275 13.4399 3.88863 13.341 3.71251 13.1648L1.21251 10.6648C1.12511 10.5777 1.05576 10.4743 1.00844 10.3603C0.961125 10.2463 0.936768 10.1242 0.936768 10.0008C0.936768 9.87739 0.961125 9.75522 1.00844 9.64126C1.05576 9.52731 1.12511 9.42382 1.21251 9.33672L3.71251 6.83672C3.88863 6.6606 4.1275 6.56165 4.37657 6.56165C4.4999 6.56165 4.62202 6.58595 4.73596 6.63314C4.8499 6.68034 4.95343 6.74951 5.04063 6.83672C5.12784 6.92392 5.19701 7.02745 5.24421 7.14139C5.2914 7.25533 5.3157 7.37745 5.3157 7.50078C5.3157 7.62411 5.2914 7.74623 5.24421 7.86017C5.19701 7.97411 5.12784 8.07764 5.04063 8.16484L4.14063 9.0625H7.18751V3.75C7.18751 3.50136 7.28628 3.2629 7.46209 3.08709C7.63791 2.91127 7.87637 2.8125 8.12501 2.8125C8.37365 2.8125 8.6121 2.91127 8.78792 3.08709C8.96373 3.2629 9.06251 3.50136 9.06251 3.75ZM18.7883 9.33672L16.2883 6.83672C16.1122 6.6606 15.8733 6.56165 15.6242 6.56165C15.3752 6.56165 15.1363 6.6606 14.9602 6.83672C14.784 7.01284 14.6851 7.25171 14.6851 7.50078C14.6851 7.74985 14.784 7.98872 14.9602 8.16484L15.8594 9.0625H12.8125V3.75C12.8125 3.50136 12.7137 3.2629 12.5379 3.08709C12.3621 2.91127 12.1236 2.8125 11.875 2.8125C11.6264 2.8125 11.3879 2.91127 11.2121 3.08709C11.0363 3.2629 10.9375 3.50136 10.9375 3.75V16.25C10.9375 16.4986 11.0363 16.7371 11.2121 16.9129C11.3879 17.0887 11.6264 17.1875 11.875 17.1875C12.1236 17.1875 12.3621 17.0887 12.5379 16.9129C12.7137 16.7371 12.8125 16.4986 12.8125 16.25V10.9375H15.8594L14.9594 11.8367C14.7833 12.0128 14.6843 12.2517 14.6843 12.5008C14.6843 12.7499 14.7833 12.9887 14.9594 13.1648C15.1355 13.341 15.3744 13.4399 15.6234 13.4399C15.8725 13.4399 16.1114 13.341 16.2875 13.1648L18.7875 10.6648C18.875 10.5778 18.9444 10.4743 18.9918 10.3604C19.0391 10.2465 19.0636 10.1243 19.0636 10.0009C19.0637 9.87755 19.0394 9.75537 18.9922 9.64138C18.9449 9.5274 18.8756 9.42387 18.7883 9.33672Z" fill="#191F2E"/>
</svg>
