<svg width="20" height="20" viewBox="0 0 20 20" fill="none" xmlns="http://www.w3.org/2000/svg">
<path d="M16.875 11.875C16.875 12.0408 16.8092 12.1997 16.6919 12.3169C16.5747 12.4342 16.4158 12.5 16.25 12.5H10.625V16.6164L12.0578 15.1828C12.1751 15.0655 12.3341 14.9997 12.5 14.9997C12.6659 14.9997 12.8249 15.0655 12.9422 15.1828C13.0595 15.3001 13.1253 15.4592 13.1253 15.625C13.1253 15.7909 13.0595 15.9499 12.9422 16.0672L10.4422 18.5672C10.3841 18.6253 10.3152 18.6714 10.2393 18.7029C10.1635 18.7343 10.0821 18.7505 10 18.7505C9.91787 18.7505 9.83654 18.7343 9.76066 18.7029C9.68479 18.6714 9.61586 18.6253 9.55781 18.5672L7.05781 16.0672C6.94054 15.9499 6.87465 15.7909 6.87465 15.625C6.87465 15.4592 6.94054 15.3001 7.05781 15.1828C7.17509 15.0655 7.33415 14.9997 7.5 14.9997C7.66585 14.9997 7.82491 15.0655 7.94219 15.1828L9.375 16.6164V12.5H3.75C3.58424 12.5 3.42527 12.4342 3.30806 12.3169C3.19085 12.1997 3.125 12.0408 3.125 11.875C3.125 11.7092 3.19085 11.5503 3.30806 11.4331C3.42527 11.3159 3.58424 11.25 3.75 11.25H16.25C16.4158 11.25 16.5747 11.3159 16.6919 11.4331C16.8092 11.5503 16.875 11.7092 16.875 11.875ZM3.75 8.75H16.25C16.4158 8.75 16.5747 8.68416 16.6919 8.56695C16.8092 8.44973 16.875 8.29076 16.875 8.125C16.875 7.95924 16.8092 7.80027 16.6919 7.68306C16.5747 7.56585 16.4158 7.5 16.25 7.5H10.625V3.3836L12.0578 4.81719C12.1751 4.93447 12.3341 5.00035 12.5 5.00035C12.6659 5.00035 12.8249 4.93447 12.9422 4.81719C13.0595 4.69992 13.1253 4.54086 13.1253 4.375C13.1253 4.20915 13.0595 4.05009 12.9422 3.93282L10.4422 1.43282C10.3841 1.37471 10.3152 1.32861 10.2393 1.29715C10.1635 1.2657 10.0821 1.24951 10 1.24951C9.91787 1.24951 9.83654 1.2657 9.76066 1.29715C9.68479 1.32861 9.61586 1.37471 9.55781 1.43282L7.05781 3.93282C6.94054 4.05009 6.87465 4.20915 6.87465 4.375C6.87465 4.54086 6.94054 4.69992 7.05781 4.81719C7.17509 4.93447 7.33415 5.00035 7.5 5.00035C7.66585 5.00035 7.82491 4.93447 7.94219 4.81719L9.375 3.3836V7.5H3.75C3.58424 7.5 3.42527 7.56585 3.30806 7.68306C3.19085 7.80027 3.125 7.95924 3.125 8.125C3.125 8.29076 3.19085 8.44973 3.30806 8.56695C3.42527 8.68416 3.58424 8.75 3.75 8.75Z" fill="#191F2E"/>
</svg>
