<svg width="20" height="20" viewBox="0 0 20 20" fill="none" xmlns="http://www.w3.org/2000/svg">
<path d="M10 1.5625C8.33122 1.5625 6.69992 2.05735 5.31238 2.98448C3.92484 3.9116 2.84338 5.22936 2.20477 6.77111C1.56616 8.31286 1.39907 10.0094 1.72463 11.6461C2.05019 13.2828 2.85379 14.7862 4.03379 15.9662C5.2138 17.1462 6.71721 17.9498 8.35393 18.2754C9.99064 18.6009 11.6871 18.4338 13.2289 17.7952C14.7706 17.1566 16.0884 16.0752 17.0155 14.6876C17.9427 13.3001 18.4375 11.6688 18.4375 10C18.435 7.763 17.5453 5.61833 15.9635 4.03653C14.3817 2.45473 12.237 1.56498 10 1.5625ZM10 16.5625C8.70206 16.5625 7.43327 16.1776 6.35407 15.4565C5.27488 14.7354 4.43374 13.7105 3.93704 12.5114C3.44034 11.3122 3.31038 9.99272 3.5636 8.71972C3.81682 7.44672 4.44183 6.27739 5.35962 5.35961C6.2774 4.44183 7.44672 3.81681 8.71972 3.5636C9.99272 3.31038 11.3122 3.44034 12.5114 3.93704C13.7105 4.43374 14.7354 5.27487 15.4565 6.35407C16.1776 7.43327 16.5625 8.70206 16.5625 10C16.5606 11.7399 15.8686 13.408 14.6383 14.6383C13.408 15.8686 11.7399 16.5606 10 16.5625ZM15.2023 9.97188C15.1443 10.0805 15.0655 10.1766 14.9703 10.2547C14.8752 10.3329 14.7656 10.3915 14.6477 10.4272C14.5299 10.463 14.4062 10.4752 14.2837 10.4632C14.1612 10.4511 14.0422 10.4151 13.9336 10.357C12.7236 9.70941 11.3724 9.37056 10 9.37056C8.62759 9.37056 7.27641 9.70941 6.06641 10.357C5.93089 10.4305 5.77915 10.4689 5.625 10.4688C5.41606 10.4687 5.21312 10.3989 5.0484 10.2703C4.88369 10.1418 4.76663 9.96187 4.71583 9.7592C4.66503 9.55652 4.68339 9.34269 4.76799 9.15164C4.8526 8.96059 4.9986 8.80328 5.18282 8.70469C6.6643 7.91148 8.31875 7.49644 9.99922 7.49644C11.6797 7.49644 13.3341 7.91148 14.8156 8.70469C15.0348 8.82158 15.1987 9.02068 15.2712 9.25827C15.3437 9.49586 15.3189 9.75252 15.2023 9.97188ZM13.9523 12.7844C13.8948 12.8933 13.8163 12.9899 13.7215 13.0685C13.6266 13.1471 13.5171 13.2063 13.3993 13.2426C13.2816 13.2788 13.1578 13.2915 13.0351 13.28C12.9125 13.2684 12.7933 13.2327 12.6844 13.175C11.8583 12.7343 10.9363 12.5037 10 12.5037C9.06368 12.5038 8.14175 12.7343 7.31563 13.175C7.09668 13.2868 6.84256 13.3082 6.60802 13.2344C6.37348 13.1607 6.17729 12.9978 6.06172 12.7808C5.94615 12.5638 5.92045 12.3101 5.99015 12.0743C6.05986 11.8385 6.21939 11.6396 6.43438 11.5203C7.53178 10.9351 8.75634 10.6291 10 10.6291C11.2437 10.6291 12.4682 10.9351 13.5656 11.5203C13.784 11.6372 13.9472 11.8357 14.0197 12.0726C14.0921 12.3094 14.0679 12.5653 13.9523 12.7844Z" fill="#191F2E"/>
</svg>
