<svg width="20" height="20" viewBox="0 0 20 20" fill="none" xmlns="http://www.w3.org/2000/svg">
<path d="M10 1.875C8.39303 1.875 6.82214 2.35152 5.486 3.24431C4.14985 4.1371 3.10844 5.40605 2.49348 6.8907C1.87852 8.37535 1.71762 10.009 2.03112 11.5851C2.34463 13.1612 3.11846 14.6089 4.25476 15.7452C5.39106 16.8815 6.8388 17.6554 8.4149 17.9689C9.99099 18.2824 11.6247 18.1215 13.1093 17.5065C14.594 16.8916 15.8629 15.8502 16.7557 14.514C17.6485 13.1779 18.125 11.607 18.125 10C18.1227 7.84581 17.266 5.78051 15.7427 4.25727C14.2195 2.73403 12.1542 1.87727 10 1.875ZM12.4273 13.2609C12.3498 13.4074 12.2173 13.5171 12.0589 13.5659C11.9006 13.6147 11.7293 13.5986 11.5828 13.5211C11.0962 13.2595 10.5524 13.1226 10 13.1226C9.44758 13.1226 8.90377 13.2595 8.41719 13.5211C8.2711 13.5945 8.10204 13.6078 7.94628 13.5581C7.79051 13.5083 7.66045 13.3995 7.58399 13.2549C7.50753 13.1104 7.49076 12.9417 7.53728 12.7849C7.5838 12.6281 7.68989 12.4958 7.83282 12.4164C8.50059 12.0632 9.24457 11.8786 10 11.8786C10.7554 11.8786 11.4994 12.0632 12.1672 12.4164C12.3137 12.4939 12.4233 12.6264 12.4721 12.7848C12.5209 12.9432 12.5048 13.1144 12.4273 13.2609ZM13.6773 11.0734C13.5994 11.2197 13.4666 11.329 13.3081 11.3774C13.1496 11.4257 12.9783 11.4091 12.832 11.3312C11.9606 10.8669 10.9882 10.6241 10.0008 10.6241C9.01332 10.6241 8.04102 10.8669 7.16953 11.3312C7.02357 11.4058 6.85416 11.42 6.6978 11.3709C6.54144 11.3217 6.41064 11.2131 6.3336 11.0684C6.25655 10.9238 6.23942 10.7546 6.28588 10.5975C6.33235 10.4403 6.43871 10.3076 6.58204 10.2281C7.63422 9.66703 8.80834 9.37354 10.0008 9.37354C11.1932 9.37354 12.3673 9.66703 13.4195 10.2281C13.4921 10.2668 13.5563 10.3194 13.6085 10.3829C13.6607 10.4464 13.6999 10.5196 13.7238 10.5982C13.7476 10.6769 13.7558 10.7595 13.7477 10.8413C13.7396 10.9231 13.7154 11.0025 13.6766 11.075L13.6773 11.0734ZM14.9273 8.88594C14.8887 8.9584 14.8361 9.02253 14.7727 9.07466C14.7092 9.1268 14.6361 9.16592 14.5576 9.18979C14.479 9.21366 14.3965 9.22182 14.3148 9.21378C14.233 9.20575 14.1537 9.18168 14.0813 9.14297C12.8262 8.47074 11.4245 8.11899 10.0008 8.11899C8.57705 8.11899 7.17536 8.47074 5.92032 9.14297C5.77403 9.22108 5.60271 9.23789 5.44404 9.18968C5.28536 9.14148 5.15234 9.03222 5.07422 8.88594C4.99611 8.73965 4.9793 8.56833 5.02751 8.40966C5.07571 8.25098 5.18497 8.11796 5.33125 8.03984C6.76765 7.27111 8.37162 6.86889 10.0008 6.86889C11.63 6.86889 13.2339 7.27111 14.6703 8.03984C14.7429 8.07856 14.8071 8.13123 14.8593 8.19483C14.9115 8.25843 14.9507 8.33171 14.9745 8.41046C14.9983 8.48921 15.0063 8.57189 14.9981 8.65376C14.9899 8.73562 14.9656 8.81505 14.9266 8.8875L14.9273 8.88594Z" fill="#191F2E"/>
</svg>
