<svg width="20" height="20" viewBox="0 0 20 20" fill="none" xmlns="http://www.w3.org/2000/svg">
<path d="M9.375 3.4375V16.5625C9.375 16.6454 9.34208 16.7249 9.28347 16.7835C9.22487 16.8421 9.14538 16.875 9.0625 16.875H4.375C4.04348 16.875 3.72554 16.7433 3.49112 16.5089C3.2567 16.2745 3.125 15.9565 3.125 15.625V4.375C3.125 4.04348 3.2567 3.72554 3.49112 3.49112C3.72554 3.2567 4.04348 3.125 4.375 3.125H9.0625C9.14538 3.125 9.22487 3.15792 9.28347 3.21653C9.34208 3.27513 9.375 3.35462 9.375 3.4375ZM15.625 3.125H10.9375C10.8546 3.125 10.7751 3.15792 10.7165 3.21653C10.6579 3.27513 10.625 3.35462 10.625 3.4375V16.5625C10.625 16.6454 10.6579 16.7249 10.7165 16.7835C10.7751 16.8421 10.8546 16.875 10.9375 16.875H15.625C15.9565 16.875 16.2745 16.7433 16.5089 16.5089C16.7433 16.2745 16.875 15.9565 16.875 15.625V4.375C16.875 4.04348 16.7433 3.72554 16.5089 3.49112C16.2745 3.2567 15.9565 3.125 15.625 3.125Z" fill="#191F2E"/>
</svg>
