<svg width="20" height="20" viewBox="0 0 20 20" fill="none" xmlns="http://www.w3.org/2000/svg">
<path d="M16.25 2.1875H3.75C3.3356 2.1875 2.93817 2.35212 2.64515 2.64515C2.35212 2.93817 2.1875 3.3356 2.1875 3.75V16.25C2.1875 16.6644 2.35212 17.0618 2.64515 17.3549C2.93817 17.6479 3.3356 17.8125 3.75 17.8125H16.25C16.6644 17.8125 17.0618 17.6479 17.3549 17.3549C17.6479 17.0618 17.8125 16.6644 17.8125 16.25V3.75C17.8125 3.3356 17.6479 2.93817 17.3549 2.64515C17.0618 2.35212 16.6644 2.1875 16.25 2.1875ZM15.9375 15.9375H4.0625V4.0625H15.9375V15.9375ZM7.5 13.4375H12.5C12.7486 13.4375 12.9871 13.3387 13.1629 13.1629C13.3387 12.9871 13.4375 12.7486 13.4375 12.5V7.5C13.4375 7.25136 13.3387 7.0129 13.1629 6.83709C12.9871 6.66127 12.7486 6.5625 12.5 6.5625H7.5C7.25136 6.5625 7.0129 6.66127 6.83709 6.83709C6.66127 7.0129 6.5625 7.25136 6.5625 7.5V12.5C6.5625 12.7486 6.66127 12.9871 6.83709 13.1629C7.0129 13.3387 7.25136 13.4375 7.5 13.4375ZM8.4375 8.4375H11.5625V11.5625H8.4375V8.4375Z" fill="#191F2E"/>
</svg>
