<svg width="20" height="20" viewBox="0 0 20 20" fill="none" xmlns="http://www.w3.org/2000/svg">
<path d="M16.25 2.5H3.75C3.41848 2.5 3.10054 2.6317 2.86612 2.86612C2.6317 3.10054 2.5 3.41848 2.5 3.75V16.25C2.5 16.5815 2.6317 16.8995 2.86612 17.1339C3.10054 17.3683 3.41848 17.5 3.75 17.5H16.25C16.5815 17.5 16.8995 17.3683 17.1339 17.1339C17.3683 16.8995 17.5 16.5815 17.5 16.25V3.75C17.5 3.41848 17.3683 3.10054 17.1339 2.86612C16.8995 2.6317 16.5815 2.5 16.25 2.5ZM16.25 16.25H3.75V3.75H16.25V16.25ZM12.5 6.875H7.5C7.33424 6.875 7.17527 6.94085 7.05806 7.05806C6.94085 7.17527 6.875 7.33424 6.875 7.5V12.5C6.875 12.6658 6.94085 12.8247 7.05806 12.9419C7.17527 13.0592 7.33424 13.125 7.5 13.125H12.5C12.6658 13.125 12.8247 13.0592 12.9419 12.9419C13.0592 12.8247 13.125 12.6658 13.125 12.5V7.5C13.125 7.33424 13.0592 7.17527 12.9419 7.05806C12.8247 6.94085 12.6658 6.875 12.5 6.875ZM11.875 11.875H8.125V8.125H11.875V11.875Z" fill="#191F2E"/>
</svg>
