<svg width="20" height="20" viewBox="0 0 20 20" fill="none" xmlns="http://www.w3.org/2000/svg">
<path d="M7.8125 2.8125H4.375C3.9606 2.8125 3.56317 2.97712 3.27015 3.27015C2.97712 3.56317 2.8125 3.9606 2.8125 4.375V7.8125C2.8125 8.2269 2.97712 8.62433 3.27015 8.91735C3.56317 9.21038 3.9606 9.375 4.375 9.375H7.8125C8.2269 9.375 8.62433 9.21038 8.91735 8.91735C9.21038 8.62433 9.375 8.2269 9.375 7.8125V4.375C9.375 3.9606 9.21038 3.56317 8.91735 3.27015C8.62433 2.97712 8.2269 2.8125 7.8125 2.8125ZM7.5 7.5H4.6875V4.6875H7.5V7.5ZM15.625 2.8125H12.1875C11.7731 2.8125 11.3757 2.97712 11.0826 3.27015C10.7896 3.56317 10.625 3.9606 10.625 4.375V7.8125C10.625 8.2269 10.7896 8.62433 11.0826 8.91735C11.3757 9.21038 11.7731 9.375 12.1875 9.375H15.625C16.0394 9.375 16.4368 9.21038 16.7299 8.91735C17.0229 8.62433 17.1875 8.2269 17.1875 7.8125V4.375C17.1875 3.9606 17.0229 3.56317 16.7299 3.27015C16.4368 2.97712 16.0394 2.8125 15.625 2.8125ZM15.3125 7.5H12.5V4.6875H15.3125V7.5ZM7.8125 10.625H4.375C3.9606 10.625 3.56317 10.7896 3.27015 11.0826C2.97712 11.3757 2.8125 11.7731 2.8125 12.1875V15.625C2.8125 16.0394 2.97712 16.4368 3.27015 16.7299C3.56317 17.0229 3.9606 17.1875 4.375 17.1875H7.8125C8.2269 17.1875 8.62433 17.0229 8.91735 16.7299C9.21038 16.4368 9.375 16.0394 9.375 15.625V12.1875C9.375 11.7731 9.21038 11.3757 8.91735 11.0826C8.62433 10.7896 8.2269 10.625 7.8125 10.625ZM7.5 15.3125H4.6875V12.5H7.5V15.3125ZM15.625 10.625H12.1875C11.7731 10.625 11.3757 10.7896 11.0826 11.0826C10.7896 11.3757 10.625 11.7731 10.625 12.1875V15.625C10.625 16.0394 10.7896 16.4368 11.0826 16.7299C11.3757 17.0229 11.7731 17.1875 12.1875 17.1875H15.625C16.0394 17.1875 16.4368 17.0229 16.7299 16.7299C17.0229 16.4368 17.1875 16.0394 17.1875 15.625V12.1875C17.1875 11.7731 17.0229 11.3757 16.7299 11.0826C16.4368 10.7896 16.0394 10.625 15.625 10.625ZM15.3125 15.3125H12.5V12.5H15.3125V15.3125Z" fill="#191F2E"/>
</svg>
