<svg width="20" height="20" viewBox="0 0 20 20" fill="none" xmlns="http://www.w3.org/2000/svg">
<path d="M16.875 4.375V9.0625C16.875 9.14538 16.8421 9.22487 16.7835 9.28347C16.7249 9.34208 16.6454 9.375 16.5625 9.375H3.4375C3.35462 9.375 3.27513 9.34208 3.21653 9.28347C3.15792 9.22487 3.125 9.14538 3.125 9.0625V4.375C3.125 4.04348 3.2567 3.72554 3.49112 3.49112C3.72554 3.2567 4.04348 3.125 4.375 3.125H15.625C15.9565 3.125 16.2745 3.2567 16.5089 3.49112C16.7433 3.72554 16.875 4.04348 16.875 4.375ZM16.5625 10.625H3.4375C3.35462 10.625 3.27513 10.6579 3.21653 10.7165C3.15792 10.7751 3.125 10.8546 3.125 10.9375V15.625C3.125 15.9565 3.2567 16.2745 3.49112 16.5089C3.72554 16.7433 4.04348 16.875 4.375 16.875H15.625C15.9565 16.875 16.2745 16.7433 16.5089 16.5089C16.7433 16.2745 16.875 15.9565 16.875 15.625V10.9375C16.875 10.8546 16.8421 10.7751 16.7835 10.7165C16.7249 10.6579 16.6454 10.625 16.5625 10.625Z" fill="#191F2E"/>
</svg>
