<svg width="20" height="20" viewBox="0 0 20 20" fill="none" xmlns="http://www.w3.org/2000/svg">
<path d="M16.875 11.882V16.875C16.875 17.0407 16.8092 17.1997 16.6919 17.3169C16.5747 17.4341 16.4158 17.5 16.25 17.5H3.75C3.58424 17.5 3.42527 17.4341 3.30806 17.3169C3.19085 17.1997 3.125 17.0407 3.125 16.875V11.882C3.125 11.7162 3.19085 11.5573 3.30806 11.4401C3.42527 11.3228 3.58424 11.257 3.75 11.257C3.91576 11.257 4.07473 11.3228 4.19194 11.4401C4.30915 11.5573 4.375 11.7162 4.375 11.882V16.25H15.625V11.882C15.625 11.7162 15.6908 11.5573 15.8081 11.4401C15.9253 11.3228 16.0842 11.257 16.25 11.257C16.4158 11.257 16.5747 11.3228 16.6919 11.4401C16.8092 11.5573 16.875 11.7162 16.875 11.882ZM6.875 14.382H13.125C13.2908 14.382 13.4497 14.3161 13.5669 14.1989C13.6842 14.0817 13.75 13.9228 13.75 13.757C13.75 13.5912 13.6842 13.4323 13.5669 13.3151C13.4497 13.1978 13.2908 13.132 13.125 13.132H6.875C6.70924 13.132 6.55027 13.1978 6.43306 13.3151C6.31585 13.4323 6.25 13.5912 6.25 13.757C6.25 13.9228 6.31585 14.0817 6.43306 14.1989C6.55027 14.3161 6.70924 14.382 6.875 14.382ZM7.25625 10.2414L13.293 11.857C13.3459 11.8715 13.4006 11.8788 13.4555 11.8789C13.6062 11.8777 13.7515 11.822 13.8644 11.7222C13.9774 11.6223 14.0505 11.485 14.0701 11.3355C14.0898 11.1861 14.0548 11.0345 13.9716 10.9088C13.8884 10.7831 13.7625 10.6917 13.6172 10.6515L7.57812 9.03199C7.49658 9.00187 7.40965 8.98909 7.32288 8.99447C7.23612 8.99985 7.15143 9.02327 7.07423 9.06323C6.99703 9.1032 6.92901 9.15883 6.87453 9.22657C6.82005 9.29431 6.7803 9.37267 6.75782 9.45665C6.73534 9.54062 6.73062 9.62836 6.74397 9.71426C6.75732 9.80016 6.78845 9.88233 6.83536 9.95552C6.88226 10.0287 6.94393 10.0913 7.0164 10.1393C7.08887 10.1873 7.17056 10.2197 7.25625 10.2343V10.2414ZM8.69766 6.34059L14.1102 9.46559C14.1813 9.50664 14.2597 9.53329 14.3411 9.544C14.4225 9.55472 14.5052 9.54929 14.5845 9.52803C14.6638 9.50677 14.7382 9.4701 14.8033 9.42011C14.8684 9.37012 14.923 9.30779 14.9641 9.23668C15.0465 9.09324 15.0687 8.92297 15.0258 8.7632C14.9829 8.60343 14.8783 8.46719 14.7352 8.38434L9.32266 5.25543C9.25152 5.21021 9.17197 5.17984 9.0888 5.16616C9.00562 5.15248 8.92054 5.15577 8.83867 5.17582C8.75679 5.19588 8.67982 5.23229 8.61238 5.28286C8.54495 5.33343 8.48844 5.39712 8.44625 5.4701C8.40407 5.54308 8.37708 5.62384 8.36692 5.70751C8.35676 5.79119 8.36362 5.87606 8.38711 5.95702C8.41059 6.03797 8.45021 6.11334 8.50358 6.17859C8.55695 6.24383 8.62297 6.29761 8.69766 6.33668V6.34059ZM15.5203 7.35621C15.5784 7.41438 15.6473 7.46055 15.7232 7.49207C15.7992 7.52359 15.8805 7.53985 15.9627 7.53992C16.0449 7.54 16.1263 7.52388 16.2023 7.49249C16.2783 7.4611 16.3473 7.41506 16.4055 7.35699C16.4636 7.29892 16.5098 7.22997 16.5413 7.15406C16.5728 7.07815 16.5891 6.99677 16.5892 6.91458C16.5893 6.83238 16.5731 6.75098 16.5417 6.67501C16.5104 6.59905 16.4643 6.53001 16.4062 6.47184L11.9867 2.05777C11.8687 1.9454 11.7114 1.8836 11.5484 1.88554C11.3854 1.88748 11.2296 1.95302 11.1143 2.06817C10.9989 2.18332 10.9331 2.33897 10.9309 2.50195C10.9287 2.66492 10.9902 2.82232 11.1023 2.94059L15.5203 7.35621Z" fill="#191F2E"/>
</svg>
