<svg width="20" height="20" viewBox="0 0 20 20" fill="none" xmlns="http://www.w3.org/2000/svg">
<path d="M18.3094 13.2813C18.4334 13.4961 18.4672 13.7514 18.4033 13.9911C18.3395 14.2308 18.1832 14.4355 17.9688 14.5602L10.4688 18.9352C10.3253 19.0189 10.1622 19.0631 9.99613 19.0631C9.83004 19.0631 9.66692 19.0189 9.52348 18.9352L2.02348 14.5602C1.80861 14.4349 1.6523 14.2295 1.58893 13.989C1.52557 13.7485 1.56033 13.4926 1.68559 13.2778C1.81084 13.0629 2.01632 12.9066 2.25682 12.8432C2.49732 12.7799 2.75314 12.8146 2.96801 12.9399L9.99926 17.0399L17.0313 12.9399C17.2462 12.8162 17.5013 12.7827 17.7408 12.8467C17.9804 12.9107 18.1848 13.0669 18.3094 13.2813ZM17.0313 9.18988L10 13.2899L2.9727 9.18988C2.75844 9.07484 2.50786 9.04756 2.27387 9.1138C2.03987 9.18004 1.84078 9.33461 1.71861 9.54488C1.59644 9.75516 1.56076 10.0047 1.6191 10.2408C1.67744 10.4768 1.82524 10.681 2.03129 10.8102L9.53129 15.1852C9.67473 15.2689 9.83785 15.3131 10.0039 15.3131C10.17 15.3131 10.3332 15.2689 10.4766 15.1852L17.9766 10.8102C18.1915 10.6848 18.3477 10.4793 18.411 10.2387C18.4743 9.99811 18.4395 9.74224 18.3141 9.52738C18.1887 9.31251 17.9832 9.15624 17.7426 9.09295C17.502 9.02965 17.2462 9.06452 17.0313 9.18988ZM1.56254 6.25003C1.56285 6.08576 1.60631 5.92446 1.68858 5.78227C1.77084 5.64009 1.88903 5.52201 2.03129 5.43988L9.53129 1.06488C9.67489 0.981602 9.83794 0.937744 10.0039 0.937744C10.1699 0.937744 10.333 0.981602 10.4766 1.06488L17.9766 5.43988C18.1183 5.52239 18.2359 5.64063 18.3176 5.78279C18.3993 5.92495 18.4423 6.08606 18.4423 6.25003C18.4423 6.41401 18.3993 6.57512 18.3176 6.71728C18.2359 6.85944 18.1183 6.97768 17.9766 7.06019L10.4766 11.4352C10.3332 11.5189 10.17 11.5631 10.0039 11.5631C9.83785 11.5631 9.67473 11.5189 9.53129 11.4352L2.03129 7.06019C1.88903 6.97806 1.77084 6.85998 1.68858 6.7178C1.60631 6.57561 1.56285 6.4143 1.56254 6.25003ZM4.36098 6.25003L10 9.53988L15.6391 6.25003L10 2.96019L4.36098 6.25003Z" fill="#191F2E"/>
</svg>
