<svg width="20" height="20" viewBox="0 0 20 20" fill="none" xmlns="http://www.w3.org/2000/svg">
<path d="M17.1875 13.2101L10 17.4015L2.8125 13.2101C2.67019 13.1393 2.50623 13.1253 2.35399 13.1711C2.20175 13.2169 2.07267 13.3189 1.99303 13.4565C1.91338 13.5941 1.88916 13.7569 1.92529 13.9117C1.96142 14.0665 2.05519 14.2017 2.1875 14.2898L9.6875 18.6648C9.78307 18.7206 9.89172 18.7499 10.0023 18.7499C10.113 18.7499 10.2216 18.7206 10.3172 18.6648L17.8172 14.2898C17.8892 14.2491 17.9524 14.1944 18.0032 14.129C18.0539 14.0636 18.0912 13.9888 18.1128 13.9089C18.1344 13.829 18.1399 13.7456 18.129 13.6636C18.1181 13.5815 18.091 13.5025 18.0493 13.431C18.0076 13.3595 17.9521 13.297 17.8861 13.2471C17.82 13.1972 17.7447 13.161 17.6646 13.1404C17.5844 13.1199 17.5009 13.1155 17.419 13.1274C17.3371 13.1394 17.2584 13.1675 17.1875 13.2101Z" fill="#191F2E"/>
<path d="M17.1875 9.46013L10 13.6515L2.8125 9.46013C2.67019 9.38928 2.50623 9.37532 2.35399 9.42109C2.20175 9.46686 2.07267 9.56892 1.99303 9.7065C1.91338 9.84409 1.88916 10.0069 1.92529 10.1617C1.96142 10.3165 2.05519 10.4517 2.1875 10.5398L9.6875 14.9148C9.78307 14.9706 9.89172 14.9999 10.0023 14.9999C10.113 14.9999 10.2216 14.9706 10.3172 14.9148L17.8172 10.5398C17.8892 10.4991 17.9524 10.4444 18.0032 10.379C18.0539 10.3136 18.0912 10.2388 18.1128 10.1589C18.1344 10.079 18.1399 9.99563 18.129 9.91358C18.1181 9.83154 18.091 9.75247 18.0493 9.68098C18.0076 9.60948 17.9521 9.54698 17.8861 9.4971C17.82 9.44722 17.7447 9.41096 17.6646 9.39041C17.5844 9.36987 17.5009 9.36545 17.419 9.37742C17.3371 9.38939 17.2584 9.4175 17.1875 9.46013Z" fill="#191F2E"/>
<path d="M2.18749 6.7899L9.68749 11.1649C9.78306 11.2206 9.89171 11.25 10.0023 11.25C10.113 11.25 10.2216 11.2206 10.3172 11.1649L17.8172 6.7899C17.9115 6.73486 17.9898 6.65605 18.0442 6.56133C18.0986 6.46661 18.1272 6.35929 18.1272 6.25006C18.1272 6.14083 18.0986 6.03351 18.0442 5.93879C17.9898 5.84407 17.9115 5.76526 17.8172 5.71022L10.3172 1.33522C10.2216 1.27949 10.113 1.25012 10.0023 1.25012C9.89171 1.25012 9.78306 1.27949 9.68749 1.33522L2.18749 5.71022C2.09314 5.76526 2.01487 5.84407 1.96047 5.93879C1.90607 6.03351 1.87744 6.14083 1.87744 6.25006C1.87744 6.35929 1.90607 6.46661 1.96047 6.56133C2.01487 6.65605 2.09314 6.73486 2.18749 6.7899Z" fill="#191F2E"/>
</svg>
