<svg width="20" height="20" viewBox="0 0 20 20" fill="none" xmlns="http://www.w3.org/2000/svg">
<path d="M0.785123 8.62661L9.53512 13.6266C9.67671 13.7074 9.83693 13.75 9.99997 13.75C10.163 13.75 10.3232 13.7074 10.4648 13.6266L19.2148 8.62661C19.3583 8.54462 19.4777 8.42614 19.5606 8.28317C19.6436 8.14021 19.6873 7.97785 19.6873 7.81254C19.6873 7.64724 19.6436 7.48488 19.5606 7.34191C19.4777 7.19895 19.3583 7.08047 19.2148 6.99848L10.4648 1.99848C10.3232 1.91764 10.163 1.87512 9.99997 1.87512C9.83693 1.87512 9.67671 1.91764 9.53512 1.99848L0.785123 6.99848C0.641586 7.08047 0.522278 7.19895 0.439295 7.34191C0.356313 7.48488 0.312606 7.64724 0.312606 7.81254C0.312606 7.97785 0.356313 8.14021 0.439295 8.28317C0.522278 8.42614 0.641586 8.54462 0.785123 8.62661ZM10.0039 3.89223L16.8601 7.81254L9.99997 11.7329L3.13981 7.81254L10.0039 3.89223ZM19.5679 11.0977C19.6912 11.3136 19.7237 11.5696 19.6582 11.8095C19.5927 12.0493 19.4346 12.2533 19.2187 12.3766L10.4687 17.3766C10.3271 17.4574 10.1669 17.5 10.0039 17.5C9.84084 17.5 9.68061 17.4574 9.53903 17.3766L0.78903 12.3766C0.680552 12.3164 0.585104 12.2352 0.50822 12.1379C0.431337 12.0405 0.374546 11.9288 0.34114 11.8093C0.307735 11.6899 0.298378 11.5649 0.313614 11.4418C0.32885 11.3187 0.368374 11.1998 0.429896 11.092C0.491419 10.9843 0.573715 10.8898 0.672014 10.8141C0.770314 10.7384 0.882661 10.683 1.00254 10.651C1.12243 10.6191 1.24746 10.6112 1.3704 10.628C1.49333 10.6447 1.61173 10.6857 1.71872 10.7485L9.99997 15.4829L18.2812 10.7485C18.3883 10.6868 18.5065 10.647 18.629 10.6312C18.7516 10.6153 18.876 10.6239 18.9952 10.6564C19.1144 10.6888 19.2261 10.7445 19.3237 10.8203C19.4213 10.896 19.503 10.9903 19.564 11.0977H19.5679Z" fill="#191F2E"/>
</svg>
