<svg width="20" height="20" viewBox="0 0 20 20" fill="none" xmlns="http://www.w3.org/2000/svg">
<path d="M17.1875 11.8493V16.875C17.1875 17.1237 17.0887 17.3621 16.9129 17.538C16.7371 17.7138 16.4986 17.8125 16.25 17.8125H3.75C3.50136 17.8125 3.2629 17.7138 3.08709 17.538C2.91127 17.3621 2.8125 17.1237 2.8125 16.875V11.8493C2.8125 11.6006 2.91127 11.3622 3.08709 11.1864C3.2629 11.0105 3.50136 10.9118 3.75 10.9118C3.99864 10.9118 4.2371 11.0105 4.41291 11.1864C4.58873 11.3622 4.6875 11.6006 4.6875 11.8493V15.9297H15.3125V11.8493C15.3125 11.6006 15.4113 11.3622 15.5871 11.1864C15.7629 11.0105 16.0014 10.9118 16.25 10.9118C16.4986 10.9118 16.7371 11.0105 16.9129 11.1864C17.0887 11.3622 17.1875 11.6006 17.1875 11.8493ZM6.875 14.3602H13.125C13.3701 14.3531 13.6028 14.2508 13.7736 14.075C13.9445 13.8991 14.0401 13.6636 14.0401 13.4184C14.0401 13.1732 13.9445 12.9377 13.7736 12.7618C13.6028 12.586 13.3701 12.4837 13.125 12.4766H6.875C6.62992 12.4837 6.39724 12.586 6.22638 12.7618C6.05552 12.9377 5.95994 13.1732 5.95994 13.4184C5.95994 13.6636 6.05552 13.8991 6.22638 14.075C6.39724 14.2508 6.62992 14.3531 6.875 14.3602ZM7.51562 8.82817L13.3883 10.9758C13.623 11.0609 13.882 11.0492 14.1081 10.9433C14.3343 10.8375 14.5091 10.6461 14.5941 10.4114C14.6792 10.1766 14.6675 9.91768 14.5617 9.69154C14.4558 9.4654 14.2644 9.29057 14.0297 9.20551L8.15703 7.05864C7.92238 6.97358 7.66355 6.98523 7.43748 7.09101C7.21141 7.19679 7.03662 7.38805 6.95156 7.6227C6.86651 7.85735 6.87815 8.11619 6.98393 8.34226C7.08972 8.56833 7.28097 8.74311 7.51562 8.82817ZM10 3.85083L14.7883 7.8852C14.9787 8.04487 15.2248 8.12238 15.4724 8.1007C15.72 8.07902 15.9488 7.95992 16.1086 7.76958C16.2689 7.57792 16.3468 7.33055 16.3251 7.08163C16.3034 6.83271 16.184 6.60252 15.993 6.44145L11.2063 2.40786C11.1119 2.32872 11.0028 2.26896 10.8854 2.23198C10.7679 2.195 10.6443 2.18153 10.5216 2.19234C10.3989 2.20315 10.2795 2.23803 10.1703 2.29498C10.0611 2.35193 9.96424 2.42984 9.88516 2.52426C9.72543 2.71581 9.64788 2.96272 9.66939 3.21119C9.6909 3.45967 9.80973 3.68958 10 3.85083Z" fill="#191F2E"/>
</svg>
