<svg width="20" height="20" viewBox="0 0 20 20" fill="none" xmlns="http://www.w3.org/2000/svg">
<path d="M18.0398 13.4376C18.1224 13.5808 18.1448 13.7509 18.1022 13.9107C18.0596 14.0704 17.9554 14.2068 17.8125 14.2899L10.3125 18.6649C10.2169 18.7206 10.1083 18.75 9.99766 18.75C9.88703 18.75 9.77838 18.7206 9.68281 18.6649L2.18281 14.2899C2.04195 14.2053 1.94009 14.0685 1.8993 13.9093C1.8585 13.7501 1.88205 13.5813 1.96484 13.4393C2.04764 13.2974 2.18301 13.1937 2.34166 13.1508C2.50031 13.108 2.66946 13.1293 2.8125 13.2102L10 17.4016L17.1875 13.2102C17.3308 13.1277 17.5009 13.1052 17.6606 13.1479C17.8204 13.1905 17.9567 13.2946 18.0398 13.4376ZM17.1875 9.46022L10 13.6516L2.8125 9.46022C2.67019 9.38936 2.50623 9.3754 2.35399 9.42117C2.20175 9.46694 2.07267 9.569 1.99303 9.70659C1.91338 9.84417 1.88916 10.0069 1.92529 10.1617C1.96142 10.3166 2.05518 10.4518 2.1875 10.5399L9.6875 14.9149C9.78307 14.9706 9.89171 15 10.0023 15C10.113 15 10.2216 14.9706 10.3172 14.9149L17.8172 10.5399C17.8892 10.4991 17.9524 10.4445 18.0032 10.3791C18.0539 10.3137 18.0912 10.2389 18.1128 10.159C18.1344 10.0791 18.1399 9.99571 18.129 9.91367C18.1181 9.83162 18.091 9.75256 18.0493 9.68106C18.0076 9.60957 17.9521 9.54706 17.8861 9.49718C17.82 9.44731 17.7447 9.41104 17.6646 9.39049C17.5844 9.36995 17.5009 9.36553 17.419 9.3775C17.3371 9.38947 17.2584 9.41759 17.1875 9.46022ZM1.875 6.25006C1.87525 6.14059 1.90425 6.03311 1.95909 5.93837C2.01393 5.84363 2.0927 5.76495 2.1875 5.71022L9.6875 1.33522C9.78307 1.27949 9.89171 1.25012 10.0023 1.25012C10.113 1.25012 10.2216 1.27949 10.3172 1.33522L17.8172 5.71022C17.9115 5.76526 17.9898 5.84407 18.0442 5.93879C18.0986 6.03351 18.1272 6.14083 18.1272 6.25006C18.1272 6.35929 18.0986 6.46661 18.0442 6.56133C17.9898 6.65605 17.9115 6.73486 17.8172 6.7899L10.3172 11.1649C10.2216 11.2206 10.113 11.25 10.0023 11.25C9.89171 11.25 9.78307 11.2206 9.6875 11.1649L2.1875 6.7899C2.0927 6.73517 2.01393 6.65649 1.95909 6.56175C1.90425 6.46701 1.87525 6.35953 1.875 6.25006ZM3.74063 6.25006L10 9.90162L16.2594 6.25006L10 2.5985L3.74063 6.25006Z" fill="#191F2E"/>
</svg>
