<svg width="20" height="20" viewBox="0 0 20 20" fill="none" xmlns="http://www.w3.org/2000/svg">
<path d="M0.937539 8.67186L9.68754 13.6719C9.78199 13.7259 9.8889 13.7543 9.99769 13.7543C10.1065 13.7543 10.2134 13.7259 10.3079 13.6719L19.0579 8.67186C19.1537 8.61724 19.2333 8.53824 19.2887 8.44288C19.3441 8.34751 19.3733 8.23919 19.3733 8.1289C19.3733 8.01861 19.3441 7.91028 19.2887 7.81492C19.2333 7.71955 19.1537 7.64055 19.0579 7.58593L10.3079 2.58593C10.2134 2.53194 10.1065 2.50354 9.99769 2.50354C9.8889 2.50354 9.78199 2.53194 9.68754 2.58593L0.937539 7.58593C0.841723 7.64055 0.762069 7.71955 0.706662 7.81492C0.651255 7.91028 0.62207 8.01861 0.62207 8.1289C0.62207 8.23919 0.651255 8.34751 0.706662 8.44288C0.762069 8.53824 0.841723 8.61724 0.937539 8.67186Z" fill="#191F2E"/>
<path d="M18.4375 10.707L9.99999 15.5305L1.5625 10.707C1.49093 10.666 1.41199 10.6394 1.33017 10.6289C1.24836 10.6184 1.16527 10.6241 1.08565 10.6457C1.00603 10.6672 0.931441 10.7043 0.866141 10.7547C0.800842 10.8051 0.746111 10.8679 0.705073 10.9394C0.664035 11.011 0.637494 11.09 0.626964 11.1718C0.616435 11.2536 0.622124 11.3367 0.643706 11.4163C0.665289 11.4959 0.702342 11.5705 0.75275 11.6358C0.803159 11.7011 0.865935 11.7558 0.937495 11.7969L9.68749 16.7969C9.78195 16.8509 9.88886 16.8793 9.99765 16.8793C10.1064 16.8793 10.2134 16.8509 10.3078 16.7969L19.0578 11.7969C19.1291 11.7561 19.1917 11.7018 19.242 11.6368C19.2923 11.5719 19.3293 11.4977 19.3509 11.4185C19.3725 11.3393 19.3783 11.2566 19.368 11.1751C19.3576 11.0937 19.3314 11.015 19.2906 10.9437C19.2499 10.8724 19.1955 10.8099 19.1306 10.7596C19.0657 10.7093 18.9915 10.6723 18.9123 10.6507C18.8331 10.629 18.7504 10.6232 18.6689 10.6336C18.5874 10.6439 18.5088 10.6702 18.4375 10.7109V10.707Z" fill="#191F2E"/>
</svg>
