<svg width="20" height="20" viewBox="0 0 20 20" fill="none" xmlns="http://www.w3.org/2000/svg">
<path d="M15.625 1.5625H4.375C3.9606 1.5625 3.56317 1.72712 3.27015 2.02015C2.97712 2.31317 2.8125 2.7106 2.8125 3.125V16.875C2.8125 17.2894 2.97712 17.6868 3.27015 17.9799C3.56317 18.2729 3.9606 18.4375 4.375 18.4375H15.625C16.0394 18.4375 16.4368 18.2729 16.7299 17.9799C17.0229 17.6868 17.1875 17.2894 17.1875 16.875V3.125C17.1875 2.7106 17.0229 2.31317 16.7299 2.02015C16.4368 1.72712 16.0394 1.5625 15.625 1.5625ZM11.875 11.5625H15.3125V12.8125H9.0625V11.5625H11.875ZM12.8125 9.6875V8.4375H15.3125V9.6875H12.8125ZM15.3125 3.4375V6.5625H11.875C11.6264 6.5625 11.3879 6.66127 11.2121 6.83709C11.0363 7.0129 10.9375 7.25136 10.9375 7.5V9.6875H8.125C7.87636 9.6875 7.6379 9.78627 7.46209 9.96209C7.28627 10.1379 7.1875 10.3764 7.1875 10.625V12.8125H4.6875V3.4375H15.3125ZM4.6875 16.5625V14.6875H15.3125V16.5625H4.6875Z" fill="#191F2E"/>
</svg>
