<svg width="20" height="20" viewBox="0 0 20 20" fill="none" xmlns="http://www.w3.org/2000/svg">
<path d="M17.8125 17.5C17.8125 17.7486 17.7137 17.9871 17.5379 18.1629C17.3621 18.3387 17.1236 18.4375 16.875 18.4375H3.125C2.87636 18.4375 2.6379 18.3387 2.46209 18.1629C2.28627 17.9871 2.1875 17.7486 2.1875 17.5C2.1875 17.2514 2.28627 17.0129 2.46209 16.8371C2.6379 16.6613 2.87636 16.5625 3.125 16.5625H16.875C17.1236 16.5625 17.3621 16.6613 17.5379 16.8371C17.7137 17.0129 17.8125 17.2514 17.8125 17.5ZM17.8125 11.25V13.75C17.8125 14.1644 17.6479 14.5618 17.3549 14.8549C17.0618 15.1479 16.6644 15.3125 16.25 15.3125H3.75C3.3356 15.3125 2.93817 15.1479 2.64515 14.8549C2.35212 14.5618 2.1875 14.1644 2.1875 13.75V11.25C2.1875 10.8356 2.35212 10.4382 2.64515 10.1451C2.93817 9.85212 3.3356 9.6875 3.75 9.6875H7.77188L6.62578 4.33906C6.53797 3.92909 6.54292 3.50468 6.64029 3.09687C6.73765 2.68906 6.92496 2.30818 7.18851 1.9821C7.45206 1.65602 7.78517 1.39298 8.16348 1.21224C8.5418 1.03151 8.95573 0.937634 9.375 0.9375H10.625C11.0443 0.937518 11.4584 1.0313 11.8368 1.21199C12.2152 1.39268 12.5484 1.6557 12.812 1.9818C13.0757 2.30789 13.263 2.68881 13.3604 3.09668C13.4579 3.50454 13.4628 3.92903 13.375 4.33906L12.2281 9.6875H16.25C16.6644 9.6875 17.0618 9.85212 17.3549 10.1451C17.6479 10.4382 17.8125 10.8356 17.8125 11.25ZM9.6875 9.6875H10.3125L11.5422 3.94609C11.5714 3.80939 11.5697 3.66788 11.5372 3.53192C11.5047 3.39596 11.4422 3.26899 11.3542 3.16031C11.2663 3.05164 11.1552 2.964 11.029 2.90382C10.9028 2.84364 10.7648 2.81244 10.625 2.8125H9.375C9.23527 2.81255 9.09732 2.84384 8.97124 2.90407C8.84516 2.9643 8.73414 3.05196 8.64629 3.16062C8.55845 3.26928 8.496 3.39621 8.46353 3.53211C8.43105 3.66801 8.42937 3.80946 8.45859 3.94609L9.6875 9.6875ZM15.9375 11.5625H4.0625V13.4375H15.9375V11.5625Z" fill="#191F2E"/>
</svg>
