<svg width="20" height="20" viewBox="0 0 20 20" fill="none" xmlns="http://www.w3.org/2000/svg">
<path d="M18.75 9.99996C18.752 10.2563 18.6741 10.5069 18.5271 10.7169C18.38 10.927 18.1713 11.086 17.9297 11.1718L12.9735 12.9742L11.1719 17.9296C11.0831 18.1689 10.9232 18.3752 10.7137 18.5209C10.5042 18.6666 10.2552 18.7447 10 18.7447C9.74485 18.7447 9.49579 18.6666 9.2863 18.5209C9.07682 18.3752 8.91694 18.1689 8.82814 17.9296L7.0258 12.9687L2.07033 11.1718C1.83111 11.083 1.62479 10.9232 1.4791 10.7137C1.3334 10.5042 1.25531 10.2551 1.25531 9.99996C1.25531 9.74479 1.3334 9.49573 1.4791 9.28624C1.62479 9.07676 1.83111 8.91687 2.07033 8.82808L7.03127 7.02574L8.82814 2.07027C8.91694 1.83105 9.07682 1.62473 9.2863 1.47904C9.49579 1.33334 9.74485 1.25525 10 1.25525C10.2552 1.25525 10.5042 1.33334 10.7137 1.47904C10.9232 1.62473 11.0831 1.83105 11.1719 2.07027L12.9742 7.03121L17.9297 8.82808C18.1713 8.91396 18.38 9.07296 18.5271 9.28298C18.6741 9.493 18.752 9.7436 18.75 9.99996Z" fill="#191F2E"/>
</svg>
