<svg width="20" height="20" viewBox="0 0 20 20" fill="none" xmlns="http://www.w3.org/2000/svg">
<path d="M18.9844 7.50392C18.8894 7.21277 18.711 6.95595 18.4712 6.76538C18.2315 6.57481 17.941 6.4589 17.636 6.43204L13.1828 6.04689L11.4406 1.89532C11.3208 1.613 11.1205 1.37219 10.8648 1.20291C10.609 1.03363 10.3091 0.943359 10.0024 0.943359C9.69566 0.943359 9.39573 1.03363 9.13997 1.20291C8.88421 1.37219 8.68393 1.613 8.56408 1.89532L6.81955 6.04689L2.36643 6.43204C2.0597 6.45744 1.7673 6.57286 1.52593 6.76382C1.28455 6.95477 1.10495 7.21276 1.00965 7.50541C0.91435 7.79807 0.907605 8.11235 0.990257 8.40882C1.07291 8.70529 1.24128 8.97075 1.47424 9.17189L4.85861 12.125L3.84299 16.5188C3.77334 16.818 3.79342 17.131 3.90073 17.4189C4.00804 17.7067 4.19782 17.9565 4.44633 18.1371C4.69484 18.3177 4.99107 18.421 5.29798 18.4341C5.60489 18.4472 5.90886 18.3696 6.1719 18.211L10 15.8859L13.8281 18.211C14.0912 18.3694 14.395 18.4468 14.7018 18.4335C15.0086 18.4203 15.3046 18.3169 15.553 18.1364C15.8014 17.9559 15.9911 17.7062 16.0983 17.4185C16.2056 17.1308 16.2258 16.8178 16.1563 16.5188L15.1406 12.125L18.525 9.17189C18.7574 8.97002 18.9249 8.70402 19.0066 8.40728C19.0884 8.11054 19.0806 7.79628 18.9844 7.50392ZM13.7696 10.8336C13.5553 11.02 13.3959 11.2613 13.3085 11.5315C13.2211 11.8017 13.209 12.0906 13.2735 12.3672L14.1633 16.2203L10.8086 14.1828C10.565 14.0345 10.2853 13.956 10 13.956C9.71478 13.956 9.43505 14.0345 9.19143 14.1828L5.83674 16.2203L6.72658 12.3672C6.79107 12.0906 6.77896 11.8017 6.69155 11.5315C6.60414 11.2613 6.44474 11.02 6.23049 10.8336L3.25471 8.23751L7.1719 7.89845C7.45555 7.87416 7.72712 7.77253 7.95702 7.60461C8.18692 7.43669 8.36636 7.20893 8.4758 6.94611L10 3.31407L11.5242 6.94611C11.6337 7.20893 11.8131 7.43669 12.043 7.60461C12.2729 7.77253 12.5445 7.87416 12.8281 7.89845L16.7453 8.23751L13.7696 10.8336Z" fill="#191F2E"/>
</svg>
