<svg width="20" height="20" viewBox="0 0 20 20" fill="none" xmlns="http://www.w3.org/2000/svg">
<path d="M12.3016 15.2906C11.3258 14.7936 10.5065 14.0363 9.93425 13.1026C9.362 12.1689 9.05914 11.0951 9.05914 10C9.05914 8.90489 9.362 7.83111 9.93425 6.89741C10.5065 5.9637 11.3258 5.20645 12.3016 4.70938C12.4554 4.63078 12.5844 4.51123 12.6746 4.36393C12.7647 4.21663 12.8124 4.0473 12.8124 3.87461C12.8124 3.70192 12.7647 3.53259 12.6746 3.38529C12.5844 3.23799 12.4554 3.11844 12.3016 3.03984C11.1106 2.43264 9.78368 2.14122 8.44783 2.19347C7.11198 2.24572 5.81189 2.63989 4.67194 3.33827C3.53198 4.03665 2.59031 5.01587 1.93702 6.18225C1.28373 7.34862 0.940674 8.66313 0.940674 10C0.940674 11.3369 1.28373 12.6514 1.93702 13.8178C2.59031 14.9841 3.53198 15.9634 4.67194 16.6617C5.81189 17.3601 7.11198 17.7543 8.44783 17.8065C9.78368 17.8588 11.1106 17.5674 12.3016 16.9602C12.4554 16.8816 12.5844 16.762 12.6746 16.6147C12.7647 16.4674 12.8124 16.2981 12.8124 16.1254C12.8124 15.9527 12.7647 15.7834 12.6746 15.6361C12.5844 15.4888 12.4554 15.3692 12.3016 15.2906ZM8.75005 15.9375C7.17532 15.9375 5.6651 15.3119 4.5516 14.1984C3.4381 13.085 2.81254 11.5747 2.81254 10C2.81254 8.42528 3.4381 6.91505 4.5516 5.80155C5.6651 4.68806 7.17532 4.0625 8.75005 4.0625C9.10548 4.06219 9.46025 4.0933 9.8102 4.15547C8.98538 4.88943 8.32526 5.78967 7.87323 6.79699C7.4212 7.80431 7.1875 8.89591 7.1875 10C7.1875 11.1041 7.4212 12.1957 7.87323 13.203C8.32526 14.2103 8.98538 15.1106 9.8102 15.8445C9.46025 15.9067 9.10548 15.9378 8.75005 15.9375ZM19.4336 9.14063L17.5368 8.32031L17.3711 6.17813C17.3568 5.99175 17.2871 5.8139 17.171 5.66743C17.0549 5.52095 16.8976 5.41254 16.7194 5.3561C16.5412 5.29967 16.3502 5.2978 16.1709 5.35072C15.9917 5.40365 15.8323 5.50896 15.7133 5.65313L14.3852 7.26094L12.4118 6.77266C12.2327 6.72849 12.0446 6.73812 11.871 6.80034C11.6973 6.86257 11.5459 6.97462 11.4357 7.12248C11.3254 7.27034 11.2612 7.44743 11.2512 7.63159C11.2411 7.81575 11.2855 7.9988 11.379 8.15781L12.4641 10L11.3797 11.8422C11.2863 12.0012 11.2418 12.1843 11.2519 12.3684C11.262 12.5526 11.3262 12.7297 11.4365 12.8775C11.5467 13.0254 11.6981 13.1374 11.8717 13.1997C12.0454 13.2619 12.2335 13.2715 12.4125 13.2273L14.386 12.7391L15.7141 14.3469C15.8021 14.4535 15.9126 14.5393 16.0377 14.5982C16.1628 14.6571 16.2993 14.6876 16.4375 14.6875C16.5335 14.6876 16.6289 14.6729 16.7204 14.6438C16.8985 14.5873 17.0557 14.4789 17.1718 14.3325C17.2879 14.186 17.3576 14.0082 17.3719 13.8219L17.5375 11.6797L19.4336 10.8594C19.6009 10.7864 19.7433 10.6663 19.8432 10.5136C19.9432 10.361 19.9965 10.1825 19.9965 10C19.9965 9.81752 19.9432 9.63901 19.8432 9.48636C19.7433 9.33371 19.6009 9.21355 19.4336 9.14063ZM16.2743 10.1836C16.1175 10.2512 15.9822 10.3604 15.8829 10.4993C15.7836 10.6383 15.7242 10.8016 15.711 10.9719L15.6805 11.3625L15.4563 11.0938C15.3684 10.9873 15.258 10.9015 15.1331 10.8426C15.0081 10.7837 14.8717 10.7532 14.7336 10.7531C14.6578 10.7529 14.5822 10.7621 14.5086 10.7805L14.1266 10.875L14.361 10.4789C14.4459 10.3347 14.4907 10.1705 14.4907 10.0031C14.4907 9.8358 14.4459 9.67152 14.361 9.52734L14.1266 9.13125L14.5086 9.22578C14.68 9.2682 14.8598 9.26137 15.0275 9.20609C15.1951 9.1508 15.3438 9.04931 15.4563 8.91328L15.6805 8.64141L15.711 9.03203C15.7242 9.20226 15.7836 9.36566 15.8829 9.50458C15.9822 9.6435 16.1175 9.75267 16.2743 9.82031L16.6961 10.0023L16.2743 10.1836Z" fill="#191F2E"/>
</svg>
