<svg width="20" height="20" viewBox="0 0 20 20" fill="none" xmlns="http://www.w3.org/2000/svg">
<path d="M18.3204 8.9359L17.9118 9.29684C17.8515 9.35795 17.7792 9.40598 17.6995 9.43793C17.6198 9.46987 17.5344 9.48505 17.4486 9.48251C17.3627 9.47997 17.2783 9.45977 17.2006 9.42317C17.123 9.38658 17.0537 9.33436 16.9971 9.26979C16.9404 9.20522 16.8977 9.12968 16.8716 9.04787C16.8455 8.96607 16.8365 8.87976 16.8453 8.79434C16.854 8.70891 16.8802 8.62619 16.9223 8.55135C16.9644 8.47651 17.0215 8.41115 17.09 8.35934L17.4985 8.00231C17.4985 8.00231 17.4985 8.00231 17.4985 7.99684L16.8212 7.93825C16.7391 7.93122 16.6592 7.90809 16.5861 7.87019C16.513 7.83229 16.448 7.78035 16.3949 7.71735C16.3419 7.65434 16.3017 7.5815 16.2768 7.50298C16.2519 7.42446 16.2427 7.34181 16.2497 7.25973C16.2567 7.17766 16.2799 7.09777 16.3178 7.02463C16.3557 6.95149 16.4076 6.88653 16.4706 6.83346C16.5336 6.7804 16.6065 6.74026 16.685 6.71534C16.7635 6.69043 16.8462 6.68122 16.9282 6.68825L17.6079 6.74684C17.8534 6.7673 18.0873 6.85983 18.2804 7.0128C18.4734 7.16577 18.617 7.37237 18.693 7.60665C18.7691 7.84093 18.7742 8.09246 18.7078 8.32964C18.6413 8.56683 18.5063 8.7791 18.3196 8.93981L18.3204 8.9359ZM13.5782 12.2953L13.8017 13.2648C13.8201 13.3448 13.8542 13.4203 13.9018 13.4872C13.9495 13.554 14.0099 13.6107 14.0795 13.6542C14.1491 13.6977 14.2266 13.7271 14.3075 13.7406C14.3885 13.7542 14.4713 13.7516 14.5513 13.7332C14.6313 13.7147 14.7068 13.6807 14.7736 13.633C14.8404 13.5853 14.8972 13.525 14.9407 13.4554C14.9842 13.3858 15.0136 13.3083 15.0271 13.2273C15.0406 13.1464 15.0381 13.0635 15.0196 12.9836L14.797 12.0093L15.411 11.4734C15.536 11.3644 15.6125 11.2103 15.6238 11.0448C15.6351 10.8794 15.5802 10.7163 15.4712 10.5914C15.3622 10.4664 15.2081 10.3899 15.0426 10.3786C14.8772 10.3673 14.7141 10.4222 14.5892 10.5312L13.9751 11.0679C13.8034 11.2172 13.6756 11.4106 13.6057 11.6272C13.5357 11.8437 13.5263 12.0753 13.5782 12.2968V12.2953ZM10.6251 3.99606V14.4382L10.6462 14.45L11.5743 15.014C11.7161 15.1 11.8178 15.2388 11.8572 15.3998C11.8966 15.5608 11.8705 15.7309 11.7845 15.8726C11.6985 16.0143 11.5597 16.1161 11.3987 16.1555C11.2377 16.1949 11.0676 16.1688 10.9259 16.0828L10.0001 15.5187L6.01574 17.9406C5.80524 18.0674 5.56203 18.1294 5.3165 18.1188C5.07097 18.1082 4.83401 18.0254 4.63526 17.8809C4.43651 17.7363 4.28479 17.5364 4.19905 17.306C4.11332 17.0757 4.09738 16.8252 4.15324 16.5859L5.20402 12.0156L1.6798 8.9359C1.49314 8.7752 1.35811 8.56292 1.29168 8.32574C1.22525 8.08855 1.23037 7.83703 1.30641 7.60274C1.38245 7.36846 1.526 7.16186 1.71906 7.00889C1.91211 6.85592 2.14606 6.7634 2.39152 6.74293L7.03683 6.34137L8.85011 2.01637C8.9448 1.78943 9.10452 1.59558 9.30916 1.45923C9.5138 1.32288 9.75421 1.25012 10.0001 1.25012C10.246 1.25012 10.4864 1.32288 10.6911 1.45923C10.8957 1.59558 11.0554 1.78943 11.1501 2.01637L12.9689 6.34137L13.8079 6.41403C13.9737 6.42833 14.127 6.50788 14.2341 6.6352C14.3412 6.76252 14.3933 6.92717 14.379 7.09293C14.3647 7.2587 14.2852 7.41199 14.1578 7.51909C14.0305 7.62619 13.8659 7.67833 13.7001 7.66403L12.8595 7.59137C12.6328 7.57139 12.4158 7.48988 12.232 7.35565C12.0482 7.22141 11.9045 7.03954 11.8165 6.82965L10.6251 3.99606ZM9.35402 14.4531L9.37511 14.4414V3.99606L8.18761 6.82575C8.09958 7.03563 7.95592 7.2175 7.77212 7.35174C7.58832 7.48598 7.37136 7.56748 7.14464 7.58747L2.50011 7.98825C2.49989 7.99085 2.49989 7.99346 2.50011 7.99606L6.02589 11.0695C6.19724 11.2188 6.32466 11.4119 6.39445 11.6281C6.46424 11.8444 6.47376 12.0756 6.42199 12.2968L5.36574 16.8703L9.35402 14.4531ZM15.597 15.4882C15.5785 15.4083 15.5444 15.3327 15.4967 15.2659C15.449 15.1991 15.3885 15.1424 15.3189 15.0989C15.2493 15.0555 15.1717 15.0262 15.0908 15.0127C15.0098 14.9992 14.927 15.0018 14.847 15.0203C14.767 15.0388 14.6915 15.0729 14.6247 15.1206C14.5579 15.1683 14.5011 15.2287 14.4577 15.2984C14.4142 15.368 14.3849 15.4455 14.3714 15.5265C14.3579 15.6075 14.3605 15.6903 14.379 15.7703L14.6368 16.875L13.7626 16.3437C13.6924 16.3011 13.6146 16.2727 13.5334 16.2602C13.4523 16.2476 13.3694 16.2512 13.2897 16.2707C13.2099 16.2902 13.1348 16.3252 13.0685 16.3737C13.0023 16.4222 12.9463 16.4833 12.9036 16.5535C12.861 16.6237 12.8326 16.7015 12.8201 16.7827C12.8076 16.8638 12.8111 16.9467 12.8306 17.0264C12.8501 17.1062 12.8851 17.1813 12.9336 17.2476C12.9821 17.3138 13.0432 17.3698 13.1134 17.4125L13.9907 17.9453C14.2012 18.0721 14.4444 18.1341 14.69 18.1235C14.9355 18.1129 15.1725 18.0301 15.3712 17.8855C15.57 17.741 15.7217 17.541 15.8074 17.3107C15.8932 17.0804 15.9091 16.8299 15.8532 16.5906L15.597 15.4882Z" fill="#191F2E"/>
</svg>
