<svg width="20" height="20" viewBox="0 0 20 20" fill="none" xmlns="http://www.w3.org/2000/svg">
<path d="M12.5 16.125C12.5001 16.2403 12.4683 16.3533 12.4082 16.4516C12.3481 16.5499 12.262 16.6296 12.1594 16.6821C11.1046 17.2233 9.9355 17.5038 8.75 17.5C6.76088 17.5 4.85322 16.7099 3.4467 15.3033C2.04018 13.8968 1.25 11.9892 1.25 10C1.25 8.01091 2.04018 6.10326 3.4467 4.69674C4.85322 3.29021 6.76088 2.50004 8.75 2.50004C9.9355 2.49628 11.1046 2.77678 12.1594 3.31801C12.262 3.37038 12.3481 3.45008 12.4082 3.54831C12.4683 3.64654 12.5002 3.75947 12.5002 3.87465C12.5002 3.98982 12.4683 4.10276 12.4082 4.20098C12.3481 4.29921 12.262 4.37891 12.1594 4.43129C11.1324 4.95458 10.2701 5.75168 9.66787 6.73446C9.06563 7.71724 8.7469 8.84741 8.7469 10C8.7469 11.1527 9.06563 12.2828 9.66787 13.2656C10.2701 14.2484 11.1324 15.0455 12.1594 15.5688C12.2619 15.6212 12.3479 15.7008 12.408 15.799C12.4681 15.8971 12.4999 16.0099 12.5 16.125ZM19.6227 9.42582L17.5523 8.53285L17.3719 6.2016C17.3621 6.07753 17.3155 5.95921 17.2381 5.86179C17.1606 5.76437 17.0559 5.69229 16.9372 5.65478C16.8185 5.61727 16.6914 5.61603 16.572 5.65124C16.4526 5.68644 16.3465 5.75648 16.2672 5.85238L14.8148 7.61097L12.65 7.07582C12.5306 7.04644 12.4053 7.05291 12.2896 7.09442C12.1739 7.13593 12.073 7.21064 11.9995 7.3092C11.926 7.40776 11.8833 7.52579 11.8766 7.64853C11.8698 7.77127 11.8995 7.89326 11.9617 7.99926L13.1391 10L11.9617 12.0008C11.8995 12.1068 11.8698 12.2288 11.8766 12.3515C11.8833 12.4743 11.926 12.5923 11.9995 12.6909C12.073 12.7894 12.1739 12.8641 12.2896 12.9057C12.4053 12.9472 12.5306 12.9536 12.65 12.9243L14.8148 12.3891L16.2672 14.1477C16.3465 14.2436 16.4526 14.3136 16.572 14.3488C16.6914 14.384 16.8185 14.3828 16.9372 14.3453C17.0559 14.3078 17.1606 14.2357 17.2381 14.1383C17.3155 14.0409 17.3621 13.9225 17.3719 13.7985L17.5523 11.4672L19.6227 10.5743C19.7349 10.526 19.8306 10.4459 19.8978 10.3438C19.9651 10.2418 20.0009 10.1222 20.0009 10C20.0009 9.87783 19.9651 9.7583 19.8978 9.65624C19.8306 9.55418 19.7349 9.47407 19.6227 9.42582Z" fill="#191F2E"/>
</svg>
