<svg width="20" height="20" viewBox="0 0 20 20" fill="none" xmlns="http://www.w3.org/2000/svg">
<path d="M17.9297 8.82808L12.9742 7.03121L11.1719 2.07027C11.0831 1.83105 10.9232 1.62473 10.7137 1.47904C10.5042 1.33334 10.2552 1.25525 10 1.25525C9.74485 1.25525 9.49579 1.33334 9.2863 1.47904C9.07682 1.62473 8.91694 1.83105 8.82814 2.07027L7.03127 7.02574L2.07033 8.82808C1.83111 8.91687 1.62479 9.07676 1.4791 9.28624C1.3334 9.49573 1.25531 9.74479 1.25531 9.99996C1.25531 10.2551 1.3334 10.5042 1.4791 10.7137C1.62479 10.9232 1.83111 11.083 2.07033 11.1718L7.0258 12.9687L8.82814 17.9296C8.91694 18.1689 9.07682 18.3752 9.2863 18.5209C9.49579 18.6666 9.74485 18.7447 10 18.7447C10.2552 18.7447 10.5042 18.6666 10.7137 18.5209C10.9232 18.3752 11.0831 18.1689 11.1719 17.9296L12.9742 12.9734L17.9297 11.1718C18.1689 11.083 18.3752 10.9232 18.5209 10.7137C18.6666 10.5042 18.7447 10.2551 18.7447 9.99996C18.7447 9.74479 18.6666 9.49573 18.5209 9.28624C18.3752 9.07676 18.1689 8.91687 17.9297 8.82808ZM12.5445 11.7968C12.3735 11.8593 12.2182 11.9583 12.0895 12.0871C11.9608 12.2158 11.8617 12.3711 11.7992 12.5421L10 17.4921L8.20314 12.5445C8.14072 12.3728 8.04143 12.2169 7.91226 12.0877C7.78308 11.9585 7.62717 11.8592 7.45548 11.7968L2.50783 9.99996L7.45548 8.20308C7.62717 8.14066 7.78308 8.04137 7.91226 7.9122C8.04143 7.78302 8.14072 7.62711 8.20314 7.45542L10 2.50777L11.7969 7.45542C11.8593 7.62644 11.9584 7.78174 12.0871 7.91048C12.2159 8.03922 12.3712 8.13828 12.5422 8.20074L17.4899 9.99761L12.5445 11.7968Z" fill="#191F2E"/>
</svg>
