<svg width="20" height="20" viewBox="0 0 20 20" fill="none" xmlns="http://www.w3.org/2000/svg">
<path d="M18.6876 7.60075C18.6119 7.36745 18.4693 7.16158 18.2774 7.00877C18.0856 6.85597 17.853 6.76297 17.6087 6.74137L12.9689 6.34137L11.1501 2.01637C11.0554 1.78943 10.8957 1.59558 10.6911 1.45923C10.4864 1.32288 10.246 1.25012 10.0001 1.25012C9.75421 1.25012 9.5138 1.32288 9.30916 1.45923C9.10452 1.59558 8.9448 1.78943 8.85011 2.01637L7.03683 6.34137L2.39152 6.74293C2.14606 6.7634 1.91211 6.85592 1.71906 7.00889C1.526 7.16186 1.38245 7.36846 1.30641 7.60274C1.23037 7.83703 1.22525 8.08855 1.29168 8.32574C1.35811 8.56292 1.49314 8.7752 1.6798 8.9359L5.20402 12.0156L4.14777 16.589C4.09192 16.8284 4.10785 17.0788 4.19359 17.3092C4.27932 17.5395 4.43105 17.7394 4.62979 17.884C4.82854 18.0285 5.0655 18.1113 5.31103 18.1219C5.55656 18.1326 5.79978 18.0706 6.01027 17.9437L9.99464 15.5218L13.9876 17.9437C14.1981 18.0706 14.4413 18.1326 14.6869 18.1219C14.9324 18.1113 15.1693 18.0285 15.3681 17.884C15.5668 17.7394 15.7186 17.5395 15.8043 17.3092C15.89 17.0788 15.906 16.8284 15.8501 16.589L14.7946 12.0109L18.3181 8.9359C18.5045 8.77459 18.639 8.56176 18.7047 8.3242C18.7705 8.08664 18.7645 7.83494 18.6876 7.60075ZM17.4985 7.99137L13.9751 11.0664C13.8036 11.2155 13.6761 11.4086 13.6061 11.6249C13.5362 11.8412 13.5266 12.0724 13.5782 12.2937L14.6368 16.875L10.647 14.4531C10.4523 14.3345 10.2288 14.2718 10.0009 14.2718V2.507L11.8134 6.82575C11.9014 7.03564 12.0451 7.21751 12.2289 7.35174C12.4127 7.48598 12.6296 7.56748 12.8564 7.58747L17.5001 7.98903C17.5001 7.98903 17.5001 7.99372 17.5001 7.9945L17.4985 7.99137Z" fill="#191F2E"/>
</svg>
