<svg width="20" height="20" viewBox="0 0 20 20" fill="none" xmlns="http://www.w3.org/2000/svg">
<path d="M12.1594 15.5688C11.1324 15.0455 10.2701 14.2484 9.66787 13.2656C9.06563 12.2828 8.7469 11.1527 8.7469 10C8.7469 8.84741 9.06563 7.71724 9.66787 6.73446C10.2701 5.75168 11.1324 4.95458 12.1594 4.43129C12.262 4.37891 12.3481 4.29921 12.4082 4.20098C12.4683 4.10276 12.5002 3.98982 12.5002 3.87465C12.5002 3.75947 12.4683 3.64654 12.4082 3.54831C12.3481 3.45008 12.262 3.37038 12.1594 3.31801C11.1046 2.77678 9.9355 2.49628 8.75 2.50004C6.76088 2.50004 4.85322 3.29021 3.4467 4.69674C2.04018 6.10326 1.25 8.01091 1.25 10C1.25 11.9892 2.04018 13.8968 3.4467 15.3033C4.85322 16.7099 6.76088 17.5 8.75 17.5C9.9355 17.5038 11.1046 17.2233 12.1594 16.6821C12.262 16.6297 12.3481 16.55 12.4082 16.4518C12.4683 16.3535 12.5002 16.2406 12.5002 16.1254C12.5002 16.0103 12.4683 15.8973 12.4082 15.7991C12.3481 15.7009 12.262 15.6212 12.1594 15.5688ZM8.75 16.25C7.85548 16.2485 6.97171 16.055 6.15842 15.6825C5.34512 15.31 4.62126 14.7673 4.03574 14.0911C3.45022 13.4148 3.01668 12.6207 2.76443 11.7625C2.51218 10.9043 2.44709 10.0019 2.57357 9.11638C2.70004 8.23085 3.01513 7.38278 3.49753 6.62948C3.97994 5.87619 4.61843 5.23522 5.36985 4.7499C6.12127 4.26457 6.96811 3.9462 7.85316 3.8163C8.7382 3.6864 9.64081 3.74799 10.5 3.99691C9.56847 4.69617 8.81244 5.60262 8.29176 6.64454C7.77107 7.68646 7.5 8.83526 7.5 10C7.5 11.1648 7.77107 12.3136 8.29176 13.3555C8.81244 14.3975 9.56847 15.3039 10.5 16.0032C9.93134 16.1681 9.34209 16.2512 8.75 16.25ZM19.6227 9.42582L17.5523 8.53285L17.3719 6.2016C17.3621 6.07753 17.3155 5.95921 17.2381 5.86179C17.1606 5.76437 17.0559 5.69229 16.9372 5.65478C16.8185 5.61727 16.6914 5.61603 16.572 5.65124C16.4526 5.68644 16.3465 5.75648 16.2672 5.85238L14.8148 7.61097L12.65 7.07582C12.5306 7.04644 12.4053 7.05291 12.2896 7.09442C12.1739 7.13593 12.073 7.21064 11.9995 7.3092C11.926 7.40776 11.8833 7.52579 11.8766 7.64853C11.8698 7.77127 11.8995 7.89326 11.9617 7.99926L13.1391 10L11.9617 12.0008C11.8995 12.1068 11.8698 12.2288 11.8766 12.3515C11.8833 12.4743 11.926 12.5923 11.9995 12.6909C12.073 12.7894 12.1739 12.8641 12.2896 12.9057C12.4053 12.9472 12.5306 12.9536 12.65 12.9243L14.8148 12.3891L16.2672 14.1477C16.3465 14.2436 16.4526 14.3136 16.572 14.3488C16.6914 14.384 16.8185 14.3828 16.9372 14.3453C17.0559 14.3078 17.1606 14.2357 17.2381 14.1383C17.3155 14.0409 17.3621 13.9225 17.3719 13.7985L17.5523 11.4672L19.6227 10.5743C19.7349 10.526 19.8306 10.4459 19.8978 10.3438C19.9651 10.2418 20.0009 10.1222 20.0009 10C20.0009 9.87783 19.9651 9.7583 19.8978 9.65624C19.8306 9.55418 19.7349 9.47407 19.6227 9.42582ZM16.7102 10.4688C16.6057 10.514 16.5156 10.5868 16.4495 10.6795C16.3834 10.7721 16.3439 10.8811 16.3352 10.9946L16.2453 12.1578L15.5281 11.2899C15.4695 11.2188 15.3959 11.1616 15.3126 11.1223C15.2292 11.083 15.1382 11.0626 15.0461 11.0625C14.9956 11.0627 14.9452 11.0688 14.8961 11.0805L13.793 11.3539L14.4031 10.3172C14.4597 10.2211 14.4896 10.1116 14.4896 10C14.4896 9.88849 14.4597 9.77897 14.4031 9.68285L13.793 8.64613L14.8961 8.91957C15.0105 8.94778 15.1305 8.94309 15.2423 8.90605C15.3541 8.869 15.4532 8.80111 15.5281 8.71019L16.2453 7.84222L16.3352 9.00551C16.3439 9.11898 16.3834 9.22793 16.4495 9.32058C16.5156 9.41324 16.6057 9.4861 16.7102 9.53129L17.7977 10L16.7102 10.4688Z" fill="#191F2E"/>
</svg>
