<svg width="20" height="20" viewBox="0 0 20 20" fill="none" xmlns="http://www.w3.org/2000/svg">
<path d="M11.25 11.25C11.25 11.4972 11.1767 11.7389 11.0393 11.9445C10.902 12.15 10.7068 12.3102 10.4784 12.4049C10.25 12.4995 9.99862 12.5242 9.75614 12.476C9.51366 12.4278 9.29094 12.3087 9.11612 12.1339C8.9413 11.9591 8.82225 11.7363 8.77402 11.4939C8.72579 11.2514 8.75054 11.0001 8.84515 10.7716C8.93976 10.5432 9.09998 10.348 9.30554 10.2107C9.5111 10.0733 9.75278 10 10 10C10.3315 10 10.6495 10.1317 10.8839 10.3661C11.1183 10.6005 11.25 10.9185 11.25 11.25ZM18.4375 10C18.4375 11.6688 17.9427 13.3001 17.0155 14.6876C16.0884 16.0752 14.7706 17.1566 13.2289 17.7952C11.6871 18.4338 9.99064 18.6009 8.35393 18.2754C6.71721 17.9498 5.2138 17.1462 4.03379 15.9662C2.85379 14.7862 2.05019 13.2828 1.72463 11.6461C1.39907 10.0094 1.56616 8.31286 2.20477 6.77111C2.84338 5.22936 3.92484 3.9116 5.31238 2.98448C6.69992 2.05735 8.33122 1.5625 10 1.5625C12.237 1.56498 14.3817 2.45473 15.9635 4.03653C17.5453 5.61833 18.435 7.763 18.4375 10ZM12.9336 12.1875H16.1859C16.2477 12.0148 16.3023 11.8383 16.3492 11.6594C14.6547 9.99559 12.3748 9.06343 10 9.06343C7.62522 9.06343 5.34532 9.99559 3.65078 11.6594C3.69766 11.8385 3.75209 12.0146 3.81407 12.1875H7.06641C7.38455 12.1883 7.69491 12.286 7.95627 12.4674C8.21763 12.6488 8.41762 12.9054 8.52969 13.2031L9.78438 16.557C9.85625 16.557 9.92735 16.5625 10 16.5625C10.0727 16.5625 10.1422 16.5625 10.2125 16.557L11.4703 13.1977C11.5835 12.9011 11.7839 12.6457 12.0451 12.4654C12.3064 12.285 12.6161 12.1881 12.9336 12.1875ZM3.46954 9.35391C5.35623 7.94729 7.64667 7.18744 10 7.18744C12.3533 7.18744 14.6438 7.94729 16.5305 9.35391C16.3698 7.73349 15.6124 6.23068 14.4055 5.13754C13.1986 4.0444 11.6284 3.43901 10 3.43901C8.37164 3.43901 6.80143 4.0444 5.59452 5.13754C4.38762 6.23068 3.63023 7.73349 3.46954 9.35391ZM7.61641 16.1125L6.85 14.0625H4.85157C5.57559 14.9784 6.52966 15.6858 7.61641 16.1125ZM15.1484 14.0625H13.15L12.3813 16.1133C13.4691 15.6871 14.4242 14.9793 15.1484 14.0625Z" fill="#191F2E"/>
</svg>
