<svg width="20" height="20" viewBox="0 0 20 20" fill="none" xmlns="http://www.w3.org/2000/svg">
<path d="M19.6875 4.375C19.6875 4.62364 19.5887 4.8621 19.4129 5.03791C19.2371 5.21373 18.9986 5.3125 18.75 5.3125H15.3125V8.125C15.3125 8.37364 15.2137 8.6121 15.0379 8.78791C14.8621 8.96373 14.6236 9.0625 14.375 9.0625H10.9375V11.875C10.9375 12.1236 10.8387 12.3621 10.6629 12.5379C10.4871 12.7137 10.2486 12.8125 10 12.8125H6.5625V15.625C6.5625 15.8736 6.46373 16.1121 6.28791 16.2879C6.1121 16.4637 5.87364 16.5625 5.625 16.5625H1.25C1.00136 16.5625 0.762903 16.4637 0.587087 16.2879C0.411272 16.1121 0.3125 15.8736 0.3125 15.625C0.3125 15.3764 0.411272 15.1379 0.587087 14.9621C0.762903 14.7863 1.00136 14.6875 1.25 14.6875H4.6875V11.875C4.6875 11.6264 4.78627 11.3879 4.96209 11.2121C5.1379 11.0363 5.37636 10.9375 5.625 10.9375H9.0625V8.125C9.0625 7.87636 9.16127 7.6379 9.33709 7.46209C9.5129 7.28627 9.75136 7.1875 10 7.1875H13.4375V4.375C13.4375 4.12636 13.5363 3.8879 13.7121 3.71209C13.8879 3.53627 14.1264 3.4375 14.375 3.4375H18.75C18.9986 3.4375 19.2371 3.53627 19.4129 3.71209C19.5887 3.8879 19.6875 4.12636 19.6875 4.375Z" fill="#191F2E"/>
</svg>
