<svg width="20" height="20" viewBox="0 0 20 20" fill="none" xmlns="http://www.w3.org/2000/svg">
<path d="M18.125 11.875C18.125 11.4072 17.9938 10.9487 17.7462 10.5518C17.4986 10.1548 17.1446 9.83533 16.7244 9.62959C16.3043 9.42385 15.8348 9.34013 15.3694 9.38795C14.9041 9.43578 14.4614 9.61322 14.0919 9.90012C13.7224 10.187 13.4407 10.5718 13.2791 11.0108C13.1174 11.4498 13.0821 11.9254 13.1773 12.3835C13.2725 12.8415 13.4942 13.2636 13.8174 13.6019C14.1406 13.9402 14.5522 14.1809 15.0055 14.2969C15.002 14.3228 15.0002 14.3489 15 14.375C15 15.038 14.7366 15.6739 14.2678 16.1428C13.7989 16.6116 13.163 16.875 12.5 16.875H10.625C9.96196 16.875 9.32607 16.6116 8.85723 16.1428C8.38839 15.6739 8.125 15.038 8.125 14.375V11.2094C10.5836 10.8969 12.5 8.75078 12.5 6.18516V3.125C12.5 2.79348 12.3683 2.47554 12.1339 2.24112C11.8995 2.0067 11.5815 1.875 11.25 1.875H10C9.83424 1.875 9.67527 1.94085 9.55806 2.05806C9.44085 2.17527 9.375 2.33424 9.375 2.5C9.375 2.66576 9.44085 2.82473 9.55806 2.94194C9.67527 3.05915 9.83424 3.125 10 3.125H11.25V6.18516C11.25 8.26172 9.58984 9.97344 7.55 10C7.05335 10.0066 6.56034 9.91452 6.09958 9.72903C5.63882 9.54354 5.2195 9.26837 4.86597 8.91949C4.51243 8.5706 4.23173 8.15497 4.04016 7.69671C3.84858 7.23845 3.74996 6.74669 3.75 6.25V3.125H5C5.16576 3.125 5.32473 3.05915 5.44194 2.94194C5.55915 2.82473 5.625 2.66576 5.625 2.5C5.625 2.33424 5.55915 2.17527 5.44194 2.05806C5.32473 1.94085 5.16576 1.875 5 1.875H3.75C3.41848 1.875 3.10054 2.0067 2.86612 2.24112C2.6317 2.47554 2.5 2.79348 2.5 3.125V6.25C2.50015 7.46773 2.9447 8.64355 3.75021 9.5568C4.55572 10.47 5.66682 11.0579 6.875 11.2102V14.375C6.87603 15.3692 7.27145 16.3225 7.97449 17.0255C8.67753 17.7285 9.63076 18.124 10.625 18.125H12.5C13.4942 18.124 14.4475 17.7285 15.1505 17.0255C15.8535 16.3225 16.249 15.3692 16.25 14.375C16.2498 14.3489 16.248 14.3228 16.2445 14.2969C16.7824 14.1593 17.2592 13.8466 17.5996 13.4081C17.9401 12.9696 18.125 12.4302 18.125 11.875ZM15.625 12.5C15.5014 12.5 15.3805 12.4633 15.2778 12.3947C15.175 12.326 15.0949 12.2284 15.0476 12.1142C15.0003 12 14.9879 11.8743 15.012 11.7531C15.0361 11.6318 15.0956 11.5205 15.1831 11.4331C15.2705 11.3456 15.3818 11.2861 15.5031 11.262C15.6243 11.2379 15.75 11.2503 15.8642 11.2976C15.9784 11.3449 16.076 11.425 16.1447 11.5278C16.2133 11.6305 16.25 11.7514 16.25 11.875C16.25 12.0408 16.1842 12.1997 16.0669 12.3169C15.9497 12.4342 15.7908 12.5 15.625 12.5Z" fill="#191F2E"/>
</svg>
