<svg width="20" height="20" viewBox="0 0 20 20" fill="none" xmlns="http://www.w3.org/2000/svg">
<path d="M18.75 11.875C18.7501 11.2996 18.5914 10.7354 18.2914 10.2444C17.9913 9.7535 17.5615 9.35494 17.0494 9.09268C16.5372 8.83043 15.9626 8.71465 15.3889 8.75812C14.8152 8.80159 14.2646 9.00261 13.7978 9.33904C13.331 9.67547 12.9662 10.1342 12.7435 10.6648C12.5208 11.1953 12.449 11.777 12.5358 12.3458C12.6226 12.9146 12.8648 13.4484 13.2357 13.8883C13.6065 14.3282 14.0916 14.6572 14.6375 14.8391C14.5315 15.3272 14.2617 15.7644 13.8728 16.0779C13.484 16.3914 12.9995 16.5625 12.5 16.5625H10.625C10.0448 16.5625 9.48844 16.332 9.0782 15.9218C8.66797 15.5116 8.4375 14.9552 8.4375 14.375V11.4766C10.9164 11.025 12.8125 8.81328 12.8125 6.18516V3.125C12.8125 2.91981 12.7721 2.71663 12.6936 2.52706C12.615 2.33749 12.4999 2.16524 12.3549 2.02015C12.2098 1.87505 12.0375 1.75996 11.8479 1.68144C11.6584 1.60292 11.4552 1.5625 11.25 1.5625H10C9.75136 1.5625 9.5129 1.66127 9.33709 1.83709C9.16127 2.0129 9.0625 2.25136 9.0625 2.5C9.0625 2.74864 9.16127 2.9871 9.33709 3.16291C9.5129 3.33873 9.75136 3.4375 10 3.4375H10.9375V6.18516C10.9375 8.09141 9.41641 9.66328 7.54609 9.6875C7.09081 9.69361 6.63885 9.6092 6.21646 9.43919C5.79407 9.26917 5.40966 9.01693 5.08556 8.69712C4.76146 8.37731 4.50413 7.9963 4.3285 7.57621C4.15288 7.15612 4.06246 6.70532 4.0625 6.25V3.4375H5C5.24864 3.4375 5.4871 3.33873 5.66291 3.16291C5.83873 2.9871 5.9375 2.74864 5.9375 2.5C5.9375 2.25136 5.83873 2.0129 5.66291 1.83709C5.4871 1.66127 5.24864 1.5625 5 1.5625H3.75C3.3356 1.5625 2.93817 1.72712 2.64515 2.02015C2.35212 2.31317 2.1875 2.7106 2.1875 3.125V6.25C2.18755 7.49633 2.62579 8.70296 3.42557 9.65884C4.22534 10.6147 5.33573 11.259 6.5625 11.4789V14.375C6.56374 15.4521 6.99215 16.4847 7.75375 17.2463C8.51535 18.0078 9.54794 18.4363 10.625 18.4375H12.5C13.4921 18.4363 14.4495 18.0726 15.1921 17.4147C15.9347 16.7569 16.4112 15.8503 16.532 14.8656C17.1731 14.6701 17.7346 14.2741 18.1338 13.7358C18.5331 13.1975 18.749 12.5452 18.75 11.875ZM15.625 13.125C15.3778 13.125 15.1361 13.0517 14.9305 12.9143C14.725 12.777 14.5648 12.5818 14.4701 12.3534C14.3755 12.1249 14.3508 11.8736 14.399 11.6311C14.4472 11.3887 14.5663 11.1659 14.7411 10.9911C14.9159 10.8163 15.1387 10.6972 15.3811 10.649C15.6236 10.6008 15.8749 10.6255 16.1034 10.7201C16.3318 10.8148 16.527 10.975 16.6643 11.1805C16.8017 11.3861 16.875 11.6278 16.875 11.875C16.875 12.2065 16.7433 12.5245 16.5089 12.7589C16.2745 12.9933 15.9565 13.125 15.625 13.125Z" fill="#191F2E"/>
</svg>
