<svg width="20" height="20" viewBox="0 0 20 20" fill="none" xmlns="http://www.w3.org/2000/svg">
<path d="M13.125 2.5H6.875C5.71506 2.50124 4.60298 2.96258 3.78278 3.78278C2.96258 4.60298 2.50124 5.71506 2.5 6.875V13.125C2.50124 14.2849 2.96258 15.397 3.78278 16.2172C4.60298 17.0374 5.71506 17.4988 6.875 17.5H10.625C10.6922 17.4999 10.7589 17.4891 10.8227 17.468C12.8719 16.7844 16.7844 12.8719 17.468 10.8227C17.4891 10.7589 17.4999 10.6922 17.5 10.625V6.875C17.4988 5.71506 17.0374 4.60298 16.2172 3.78278C15.397 2.96258 14.2849 2.50124 13.125 2.5ZM10.625 16.2047V13.75C10.625 12.9212 10.9542 12.1263 11.5403 11.5403C12.1263 10.9542 12.9212 10.625 13.75 10.625H16.2047C15.4812 12.3086 12.3086 15.4812 10.625 16.2047Z" fill="#191F2E"/>
</svg>
