<svg width="20" height="20" viewBox="0 0 20 20" fill="none" xmlns="http://www.w3.org/2000/svg">
<path d="M13.125 2.1875H6.875C5.63224 2.18895 4.4408 2.68327 3.56204 3.56204C2.68327 4.4408 2.18895 5.63224 2.1875 6.875V13.125C2.18895 14.3678 2.68327 15.5592 3.56204 16.438C4.4408 17.3167 5.63224 17.8111 6.875 17.8125H10.625C10.7257 17.8125 10.8257 17.7961 10.9211 17.7641C13.0797 17.0445 17.0445 13.0766 17.7641 10.9211C17.7961 10.8257 17.8125 10.7257 17.8125 10.625V6.875C17.8111 5.63224 17.3167 4.4408 16.438 3.56204C15.5592 2.68327 14.3678 2.18895 13.125 2.1875ZM4.0625 13.125V6.875C4.0625 6.12908 4.35882 5.41371 4.88626 4.88626C5.41371 4.35882 6.12908 4.0625 6.875 4.0625H13.125C13.8709 4.0625 14.5863 4.35882 15.1137 4.88626C15.6412 5.41371 15.9375 6.12908 15.9375 6.875V9.6875H14.375C13.1322 9.68895 11.9408 10.1833 11.062 11.062C10.1833 11.9408 9.68895 13.1322 9.6875 14.375V15.9375H6.875C6.12908 15.9375 5.41371 15.6412 4.88626 15.1137C4.35882 14.5863 4.0625 13.8709 4.0625 13.125ZM11.5625 15.2836V14.375C11.5625 13.6291 11.8588 12.9137 12.3863 12.3863C12.9137 11.8588 13.6291 11.5625 14.375 11.5625H15.2836C14.375 12.8211 12.8211 14.375 11.5625 15.2836Z" fill="#191F2E"/>
</svg>
