<svg width="20" height="20" viewBox="0 0 20 20" fill="none" xmlns="http://www.w3.org/2000/svg">
<path d="M15.9375 5V3.125C15.9375 2.7106 15.7729 2.31317 15.4798 2.02015C15.1868 1.72712 14.7894 1.5625 14.375 1.5625H5.62499C5.21059 1.5625 4.81316 1.72712 4.52014 2.02015C4.22711 2.31317 4.06249 2.7106 4.06249 3.125V5C4.06249 5.4144 4.22711 5.81183 4.52014 6.10485C4.81316 6.39788 5.21059 6.5625 5.62499 6.5625H5.78124L4.07421 17.3539C4.05182 17.4769 4.05423 17.6031 4.08131 17.7251C4.1084 17.8471 4.1596 17.9624 4.23192 18.0644C4.30424 18.1663 4.39621 18.2528 4.50242 18.3186C4.60864 18.3845 4.72695 18.4285 4.8504 18.4479C4.97385 18.4674 5.09996 18.462 5.22129 18.4321C5.34263 18.4021 5.45675 18.3482 5.55694 18.2735C5.65714 18.1988 5.74138 18.1048 5.80472 17.997C5.86806 17.8893 5.90922 17.77 5.92577 17.6461L6.49218 14.0625H13.5078L14.0742 17.6461C14.0908 17.77 14.1319 17.8893 14.1953 17.997C14.2586 18.1048 14.3429 18.1988 14.443 18.2735C14.5432 18.3482 14.6574 18.4021 14.7787 18.4321C14.9 18.462 15.0261 18.4674 15.1496 18.4479C15.273 18.4285 15.3914 18.3845 15.4976 18.3186C15.6038 18.2528 15.6957 18.1663 15.7681 18.0644C15.8404 17.9624 15.8916 17.8471 15.9187 17.7251C15.9458 17.6031 15.9482 17.4769 15.9258 17.3539L14.2187 6.5625H14.375C14.7894 6.5625 15.1868 6.39788 15.4798 6.10485C15.7729 5.81183 15.9375 5.4144 15.9375 5ZM5.93749 3.4375H14.0625V4.6875H5.93749V3.4375ZM13.2117 12.1875H6.78827L7.67577 6.5625H12.3242L13.2117 12.1875Z" fill="#191F2E"/>
</svg>
