<svg width="20" height="20" viewBox="0 0 20 20" fill="none" xmlns="http://www.w3.org/2000/svg">
<path d="M14.9409 3.75H5.0591C4.71207 3.75054 4.37941 3.88864 4.13402 4.13402C3.88864 4.37941 3.75054 4.71207 3.75 5.0591V14.9409C3.75054 15.2879 3.88864 15.6206 4.13402 15.866C4.37941 16.1114 4.71207 16.2495 5.0591 16.25H14.9409C15.2879 16.2495 15.6206 16.1114 15.866 15.866C16.1114 15.6206 16.2495 15.2879 16.25 14.9409V5.0591C16.2495 4.71207 16.1114 4.37941 15.866 4.13402C15.6206 3.88864 15.2879 3.75054 14.9409 3.75ZM14.6196 14.6196H5.38043V5.38043H14.6196V14.6196Z" fill="#191F2E"/>
</svg>
