<svg width="20" height="20" viewBox="0 0 20 20" fill="none" xmlns="http://www.w3.org/2000/svg">
<path d="M15.1655 3.75H4.83452C4.547 3.75038 4.27137 3.86476 4.06806 4.06806C3.86476 4.27137 3.75038 4.547 3.75 4.83452V15.1655C3.75038 15.453 3.86476 15.7286 4.06806 15.9319C4.27137 16.1352 4.547 16.2496 4.83452 16.25H15.1655C15.453 16.2496 15.7286 16.1352 15.9319 15.9319C16.1352 15.7286 16.2496 15.453 16.25 15.1655V4.83452C16.2496 4.547 16.1352 4.27137 15.9319 4.06806C15.7286 3.86476 15.453 3.75038 15.1655 3.75ZM15.1136 15.1136H4.88636V4.88636H15.1136V15.1136Z" fill="#191F2E"/>
</svg>
