<svg width="20" height="20" viewBox="0 0 20 20" fill="none" xmlns="http://www.w3.org/2000/svg">
<path d="M18.4375 7.5C18.4381 7.41288 18.4265 7.32611 18.4031 7.24219L17.2812 3.32109C17.1872 2.99546 16.9903 2.70903 16.7199 2.50468C16.4495 2.30033 16.1202 2.18905 15.7812 2.1875H4.21875C3.87982 2.18905 3.55051 2.30033 3.28011 2.50468C3.00971 2.70903 2.81276 2.99546 2.71875 3.32109L1.59844 7.24219C1.57453 7.32604 1.56243 7.41281 1.5625 7.5V8.75C1.56242 9.25658 1.67445 9.7569 1.89057 10.2151C2.10668 10.6732 2.42152 11.0779 2.8125 11.4V16.25C2.8125 16.6644 2.97712 17.0618 3.27015 17.3549C3.56317 17.6479 3.9606 17.8125 4.375 17.8125H15.625C16.0394 17.8125 16.4368 17.6479 16.7299 17.3549C17.0229 17.0618 17.1875 16.6644 17.1875 16.25V11.4C17.5785 11.0779 17.8933 10.6732 18.1094 10.2151C18.3255 9.7569 18.4376 9.25658 18.4375 8.75V7.5ZM16.5625 8.75C16.5625 9.1644 16.3979 9.56183 16.1049 9.85485C15.8118 10.1479 15.4144 10.3125 15 10.3125C14.5856 10.3125 14.1882 10.1479 13.8951 9.85485C13.6021 9.56183 13.4375 9.1644 13.4375 8.75V8.4375H16.5625V8.75ZM3.4375 8.75V8.4375H6.5625V8.75C6.5625 9.1644 6.39788 9.56183 6.10485 9.85485C5.81183 10.1479 5.4144 10.3125 5 10.3125C4.5856 10.3125 4.18817 10.1479 3.89515 9.85485C3.60212 9.56183 3.4375 9.1644 3.4375 8.75ZM8.4375 8.4375H11.5625V8.75C11.5625 9.1644 11.3979 9.56183 11.1049 9.85485C10.8118 10.1479 10.4144 10.3125 10 10.3125C9.5856 10.3125 9.18817 10.1479 8.89515 9.85485C8.60212 9.56183 8.4375 9.1644 8.4375 8.75V8.4375ZM4.45703 4.0625H15.5469L16.2609 6.5625H3.74297L4.45703 4.0625ZM15.3125 15.9375H4.6875V12.1727C4.79063 12.182 4.89453 12.1875 5 12.1875C5.46855 12.1877 5.93215 12.0917 6.36215 11.9056C6.79215 11.7195 7.17941 11.4472 7.5 11.1055C7.82067 11.4471 8.20794 11.7193 8.63793 11.9055C9.06791 12.0916 9.53147 12.1876 10 12.1876C10.4685 12.1876 10.9321 12.0916 11.3621 11.9055C11.7921 11.7193 12.1793 11.4471 12.5 11.1055C12.8206 11.4472 13.2079 11.7195 13.6379 11.9056C14.0679 12.0917 14.5315 12.1877 15 12.1875C15.1055 12.1875 15.2094 12.182 15.3125 12.1727V15.9375Z" fill="#191F2E"/>
</svg>
