<svg width="20" height="20" viewBox="0 0 20 20" fill="none" xmlns="http://www.w3.org/2000/svg">
<path d="M18.125 7.5C18.1253 7.44189 18.1174 7.38403 18.1016 7.32812L16.9805 3.40625C16.9051 3.14603 16.7476 2.91716 16.5315 2.75382C16.3153 2.59049 16.0522 2.50145 15.7812 2.5H4.21875C3.94784 2.50145 3.68467 2.59049 3.46853 2.75382C3.25239 2.91716 3.09488 3.14603 3.01953 3.40625L1.89922 7.32812C1.88308 7.38399 1.87493 7.44185 1.875 7.5V8.75C1.875 9.23514 1.98795 9.71362 2.20492 10.1475C2.42188 10.5815 2.73689 10.9589 3.125 11.25V16.25C3.125 16.5815 3.2567 16.8995 3.49112 17.1339C3.72554 17.3683 4.04348 17.5 4.375 17.5H15.625C15.9565 17.5 16.2745 17.3683 16.5089 17.1339C16.7433 16.8995 16.875 16.5815 16.875 16.25V11.25C17.2631 10.9589 17.5781 10.5815 17.7951 10.1475C18.012 9.71362 18.125 9.23514 18.125 8.75V7.5ZM6.875 8.75C6.87489 9.07243 6.79163 9.38938 6.63327 9.67023C6.47492 9.95109 6.24681 10.1864 5.97099 10.3533C5.69516 10.5203 5.38094 10.6133 5.05867 10.6234C4.7364 10.6335 4.41698 10.5603 4.13125 10.4109C4.08777 10.3771 4.03995 10.3492 3.98906 10.3281C3.72428 10.1586 3.50637 9.92524 3.35538 9.64947C3.20439 9.3737 3.12517 9.0644 3.125 8.75V8.125H6.875V8.75ZM11.875 8.75C11.875 9.24728 11.6775 9.72419 11.3258 10.0758C10.9742 10.4275 10.4973 10.625 10 10.625C9.50272 10.625 9.02581 10.4275 8.67418 10.0758C8.32254 9.72419 8.125 9.24728 8.125 8.75V8.125H11.875V8.75ZM16.875 8.75C16.8747 9.06447 16.7954 9.37382 16.6443 9.6496C16.4931 9.92537 16.2751 10.1587 16.0102 10.3281C15.9599 10.3493 15.9127 10.3769 15.8695 10.4102C15.5838 10.5597 15.2644 10.633 14.9421 10.6231C14.6198 10.6131 14.3055 10.5202 14.0296 10.3533C13.7536 10.1864 13.5254 9.95115 13.367 9.6703C13.2085 9.38944 13.1252 9.07247 13.125 8.75V8.125H16.875V8.75Z" fill="#191F2E"/>
</svg>
