<svg width="20" height="20" viewBox="0 0 20 20" fill="none" xmlns="http://www.w3.org/2000/svg">
<path d="M8.125 14.6875C8.125 15.2438 7.96005 15.7875 7.65101 16.25C7.34197 16.7126 6.90272 17.073 6.3888 17.2859C5.87488 17.4988 5.30938 17.5545 4.76381 17.446C4.21824 17.3374 3.7171 17.0696 3.32377 16.6762C2.93043 16.2829 2.66257 15.7818 2.55404 15.2362C2.44552 14.6906 2.50122 14.1251 2.71409 13.6112C2.92696 13.0973 3.28745 12.658 3.74996 12.349C4.21248 12.04 4.75624 11.875 5.3125 11.875C6.05842 11.875 6.7738 12.1713 7.30124 12.6988C7.82869 13.2262 8.125 13.9416 8.125 14.6875ZM2.68282 9.19219C2.74086 9.2503 2.80979 9.2964 2.88567 9.32785C2.96154 9.3593 3.04287 9.37549 3.125 9.37549C3.20714 9.37549 3.28847 9.3593 3.36434 9.32785C3.44021 9.2964 3.50915 9.2503 3.56719 9.19219L4.6875 8.07109L5.80782 9.19219C5.92509 9.30946 6.08415 9.37535 6.25 9.37535C6.41586 9.37535 6.57492 9.30946 6.69219 9.19219C6.80947 9.07491 6.87535 8.91585 6.87535 8.75C6.87535 8.58415 6.80947 8.42509 6.69219 8.30781L5.5711 7.1875L6.69219 6.06719C6.80947 5.94991 6.87535 5.79085 6.87535 5.625C6.87535 5.45915 6.80947 5.30009 6.69219 5.18281C6.57492 5.06554 6.41586 4.99965 6.25 4.99965C6.08415 4.99965 5.92509 5.06554 5.80782 5.18281L4.6875 6.30391L3.56719 5.18281C3.44992 5.06554 3.29086 4.99965 3.125 4.99965C2.95915 4.99965 2.80009 5.06554 2.68282 5.18281C2.56554 5.30009 2.49966 5.45915 2.49966 5.625C2.49966 5.79085 2.56554 5.94991 2.68282 6.06719L3.80391 7.1875L2.68282 8.30781C2.62471 8.36586 2.57861 8.43479 2.54715 8.51066C2.5157 8.58654 2.49951 8.66787 2.49951 8.75C2.49951 8.83213 2.5157 8.91346 2.54715 8.98934C2.57861 9.06521 2.62471 9.13414 2.68282 9.19219ZM16.1984 14.6875L17.3195 13.5672C17.4368 13.4499 17.5027 13.2909 17.5027 13.125C17.5027 12.9591 17.4368 12.8001 17.3195 12.6828C17.2023 12.5655 17.0432 12.4997 16.8773 12.4997C16.7115 12.4997 16.5524 12.5655 16.4352 12.6828L15.3125 13.8039L14.1922 12.6828C14.0749 12.5655 13.9159 12.4997 13.75 12.4997C13.5842 12.4997 13.4251 12.5655 13.3078 12.6828C13.1905 12.8001 13.1247 12.9591 13.1247 13.125C13.1247 13.2909 13.1905 13.4499 13.3078 13.5672L14.4289 14.6875L13.3078 15.8078C13.1905 15.9251 13.1247 16.0841 13.1247 16.25C13.1247 16.4159 13.1905 16.5749 13.3078 16.6922C13.4251 16.8095 13.5842 16.8753 13.75 16.8753C13.9159 16.8753 14.0749 16.8095 14.1922 16.6922L15.3125 15.5711L16.4328 16.6922C16.4909 16.7503 16.5598 16.7963 16.6357 16.8277C16.7116 16.8592 16.7929 16.8753 16.875 16.8753C16.9571 16.8753 17.0384 16.8592 17.1143 16.8277C17.1902 16.7963 17.2591 16.7503 17.3172 16.6922C17.3753 16.6341 17.4213 16.5652 17.4527 16.4893C17.4842 16.4134 17.5004 16.3321 17.5004 16.25C17.5004 16.1679 17.4842 16.0866 17.4527 16.0107C17.4213 15.9348 17.3753 15.8659 17.3172 15.8078L16.1984 14.6875ZM12.3172 3.93281L12.1336 3.75H13.75C13.9158 3.75 14.0747 3.68415 14.1919 3.56694C14.3092 3.44973 14.375 3.29076 14.375 3.125C14.375 2.95924 14.3092 2.80027 14.1919 2.68306C14.0747 2.56585 13.9158 2.5 13.75 2.5H10.625C10.4592 2.5 10.3003 2.56585 10.1831 2.68306C10.0659 2.80027 10 2.95924 10 3.125V6.25C10 6.41576 10.0659 6.57473 10.1831 6.69194C10.3003 6.80915 10.4592 6.875 10.625 6.875C10.7908 6.875 10.9497 6.80915 11.0669 6.69194C11.1842 6.57473 11.25 6.41576 11.25 6.25V4.63359L11.4328 4.81719C12.8336 6.21797 12.8313 7.58281 12.582 8.48125C12.2195 9.79141 11.0695 10.9633 9.84766 11.2688C9.6997 11.3058 9.5704 11.3957 9.48414 11.5216C9.39788 11.6474 9.3606 11.8004 9.37933 11.9517C9.39806 12.1031 9.47151 12.2424 9.58583 12.3434C9.70016 12.4444 9.84747 12.5001 10 12.5C10.0527 12.5003 10.1051 12.494 10.1563 12.4812C11.8133 12.0672 13.3086 10.5594 13.7914 8.81484C14.2641 7.09219 13.7422 5.35859 12.3172 3.93281Z" fill="#191F2E"/>
</svg>
