<svg width="20" height="20" viewBox="0 0 20 20" fill="none" xmlns="http://www.w3.org/2000/svg">
<path d="M5.62499 11.25C5.00692 11.25 4.40274 11.4333 3.88883 11.7767C3.37493 12.12 2.97439 12.6081 2.73787 13.1791C2.50134 13.7501 2.43946 14.3785 2.56004 14.9847C2.68062 15.5908 2.97824 16.1477 3.41528 16.5847C3.85232 17.0217 4.40914 17.3194 5.01533 17.44C5.62152 17.5605 6.24986 17.4986 6.82088 17.2621C7.39189 17.0256 7.87995 16.6251 8.22333 16.1112C8.56671 15.5973 8.74999 14.9931 8.74999 14.375C8.74999 13.9646 8.66916 13.5583 8.51211 13.1791C8.35507 12.8 8.12488 12.4555 7.8347 12.1653C7.54452 11.8751 7.20002 11.6449 6.82088 11.4879C6.44173 11.3308 6.03537 11.25 5.62499 11.25ZM5.62499 15.625C5.37776 15.625 5.13609 15.5517 4.93053 15.4143C4.72497 15.277 4.56475 15.0818 4.47014 14.8534C4.37553 14.6249 4.35078 14.3736 4.39901 14.1311C4.44724 13.8887 4.56629 13.6659 4.74111 13.4911C4.91592 13.3163 5.13865 13.1972 5.38113 13.149C5.6236 13.1008 5.87494 13.1255 6.10334 13.2201C6.33175 13.3148 6.52698 13.475 6.66433 13.6805C6.80168 13.8861 6.87499 14.1278 6.87499 14.375C6.87499 14.7065 6.74329 15.0245 6.50887 15.2589C6.27445 15.4933 5.95651 15.625 5.62499 15.625ZM3.12499 10C2.93946 10.0001 2.75806 9.94524 2.60376 9.84224C2.44945 9.73923 2.32917 9.59276 2.25816 9.42137C2.18714 9.24997 2.16857 9.06135 2.20481 8.8794C2.24104 8.69745 2.33045 8.53033 2.46171 8.39922L3.35937 7.5L2.46171 6.60078C2.28559 6.42466 2.18665 6.18579 2.18665 5.93672C2.18665 5.81339 2.21094 5.69127 2.25813 5.57733C2.30533 5.46339 2.3745 5.35986 2.46171 5.27266C2.54892 5.18545 2.65244 5.11627 2.76638 5.06908C2.88032 5.02188 3.00244 4.99759 3.12577 4.99759C3.37484 4.99759 3.61371 5.09654 3.78983 5.27266L4.68749 6.17188L5.58671 5.27422C5.76283 5.0981 6.0017 4.99916 6.25077 4.99916C6.49984 4.99916 6.73871 5.0981 6.91483 5.27422C7.09095 5.45034 7.1899 5.68921 7.1899 5.93828C7.1899 6.18735 7.09095 6.42622 6.91483 6.60234L6.01562 7.5L6.91562 8.39922C7.09174 8.57534 7.19068 8.81421 7.19068 9.06328C7.19068 9.31235 7.09174 9.55122 6.91562 9.72734C6.73949 9.90346 6.50062 10.0024 6.25155 10.0024C6.00248 10.0024 5.76361 9.90346 5.58749 9.72734L4.68749 8.82812L3.78827 9.72578C3.70114 9.81281 3.59772 9.88183 3.48391 9.92888C3.3701 9.97593 3.24814 10.0001 3.12499 10ZM17.5383 15.8992C17.7144 16.0753 17.8133 16.3142 17.8133 16.5633C17.8133 16.8124 17.7144 17.0512 17.5383 17.2273C17.3622 17.4035 17.1233 17.5024 16.8742 17.5024C16.6251 17.5024 16.3863 17.4035 16.2101 17.2273L15.3125 16.3281L14.4133 17.2281C14.2372 17.4042 13.9983 17.5032 13.7492 17.5032C13.5001 17.5032 13.2613 17.4042 13.0851 17.2281C12.909 17.052 12.8101 16.8131 12.8101 16.5641C12.8101 16.315 12.909 16.0761 13.0851 15.9L13.9844 15L13.0844 14.1008C12.9082 13.9247 12.8093 13.6858 12.8093 13.4367C12.8093 13.1876 12.9082 12.9488 13.0844 12.7727C13.2605 12.5965 13.4994 12.4976 13.7484 12.4976C13.9975 12.4976 14.2364 12.5965 14.4125 12.7727L15.3125 13.6719L16.2117 12.7719C16.3878 12.5958 16.6267 12.4968 16.8758 12.4968C17.1248 12.4968 17.3637 12.5958 17.5398 12.7719C17.716 12.948 17.8149 13.1869 17.8149 13.4359C17.8149 13.685 17.716 13.9239 17.5398 14.1L16.6406 15L17.5383 15.8992ZM14.1476 8.66328C13.7406 10.4602 12.325 12.0641 10.625 12.6648C10.3905 12.7477 10.1328 12.7341 9.90839 12.6269C9.68401 12.5197 9.51139 12.3278 9.42851 12.0934C9.34563 11.8589 9.35927 11.6011 9.46645 11.3768C9.57362 11.1524 9.76554 10.9798 9.99999 10.8969C11.0992 10.5062 12.0523 9.41953 12.318 8.24844C12.5031 7.43125 12.3492 6.62031 11.8742 5.8625V6.56563C11.8742 6.81427 11.7754 7.05272 11.5996 7.22854C11.4238 7.40435 11.1854 7.50313 10.9367 7.50313C10.6881 7.50313 10.4496 7.40435 10.2738 7.22854C10.098 7.05272 9.99921 6.81427 9.99921 6.56563V3.4375C9.99921 3.18886 10.098 2.9504 10.2738 2.77459C10.4496 2.59877 10.6881 2.5 10.9367 2.5H14.0617C14.3104 2.5 14.5488 2.59877 14.7246 2.77459C14.9004 2.9504 14.9992 3.18886 14.9992 3.4375C14.9992 3.68614 14.9004 3.9246 14.7246 4.10041C14.5488 4.27623 14.3104 4.375 14.0617 4.375H13.125C14.1226 5.67266 14.4859 7.16875 14.1476 8.66328Z" fill="#191F2E"/>
</svg>
