<svg width="20" height="20" viewBox="0 0 20 20" fill="none" xmlns="http://www.w3.org/2000/svg">
<path d="M16.25 2.1875H3.75C3.3356 2.1875 2.93817 2.35212 2.64515 2.64515C2.35212 2.93817 2.1875 3.3356 2.1875 3.75V16.25C2.1875 16.6644 2.35212 17.0618 2.64515 17.3549C2.93817 17.6479 3.3356 17.8125 3.75 17.8125H16.25C16.6644 17.8125 17.0618 17.6479 17.3549 17.3549C17.6479 17.0618 17.8125 16.6644 17.8125 16.25V3.75C17.8125 3.3356 17.6479 2.93817 17.3549 2.64515C17.0618 2.35212 16.6644 2.1875 16.25 2.1875ZM15.9375 15.9375H4.0625V4.0625H15.9375V15.9375ZM11.5625 11.875C11.5625 11.3773 11.0711 11.1469 9.6875 10.7484C8.42656 10.3852 6.70078 9.88906 6.70078 8.125C6.70078 6.52187 8.11875 5.3125 9.99922 5.3125C11.3461 5.3125 12.5039 5.94844 13.0219 6.97187C13.0795 7.0819 13.1146 7.20227 13.1253 7.32599C13.136 7.44972 13.122 7.57433 13.0841 7.6926C13.0463 7.81087 12.9853 7.92044 12.9047 8.01494C12.8241 8.10944 12.7256 8.18698 12.6148 8.24308C12.504 8.29918 12.3831 8.3327 12.2593 8.34171C12.1354 8.35071 12.011 8.33502 11.8933 8.29554C11.7755 8.25606 11.6668 8.19359 11.5734 8.11174C11.48 8.02989 11.4038 7.9303 11.3492 7.81875C11.1562 7.43516 10.625 7.1875 10 7.1875C9.20156 7.1875 8.57656 7.59922 8.57656 8.125C8.57656 8.21016 8.57656 8.29766 8.83281 8.45078C9.15937 8.64453 9.69219 8.79844 10.2078 8.94687C10.8914 9.14375 11.5984 9.34766 12.1906 9.71719C13.2211 10.3602 13.4406 11.2453 13.4406 11.875C13.4406 13.4523 11.9305 14.6875 10.0031 14.6875C8.34219 14.6875 6.92031 13.7227 6.62266 12.3922C6.57084 12.1505 6.61658 11.8981 6.74992 11.69C6.88326 11.4818 7.09341 11.3348 7.33463 11.2808C7.57586 11.2268 7.82864 11.2703 8.03796 11.4018C8.24729 11.5333 8.39622 11.7421 8.45234 11.9828C8.53906 12.382 9.15703 12.8125 10 12.8125C10.7375 12.8125 11.5625 12.4117 11.5625 11.875Z" fill="#191F2E"/>
</svg>
