<svg width="20" height="20" viewBox="0 0 20 20" fill="none" xmlns="http://www.w3.org/2000/svg">
<path d="M17.796 4.11088L10.296 1.61088C10.1039 1.54605 9.89589 1.54605 9.70382 1.61088L2.20381 4.11088C2.02486 4.17015 1.86793 4.282 1.7535 4.43182C1.63908 4.58164 1.57249 4.76248 1.56241 4.95073C1.56155 4.96712 1.56155 4.98355 1.56241 4.99995V11.2499C1.56241 11.4986 1.66118 11.737 1.837 11.9129C2.01281 12.0887 2.25127 12.1874 2.49991 12.1874C2.74855 12.1874 2.98701 12.0887 3.16282 11.9129C3.33864 11.737 3.43741 11.4986 3.43741 11.2499V6.30073L5.28975 6.91791C4.71488 8.0183 4.54404 9.28543 4.80698 10.4988C5.06992 11.7121 5.74998 12.7948 6.72882 13.5585C5.4479 14.1902 4.36384 15.1597 3.59366 16.3624C3.5243 16.4655 3.47613 16.5814 3.45193 16.7032C3.42774 16.8251 3.42801 16.9506 3.45273 17.0723C3.47745 17.1941 3.52612 17.3097 3.59593 17.4125C3.66573 17.5153 3.75526 17.6032 3.85933 17.671C3.96339 17.7389 4.07991 17.7854 4.20211 17.8079C4.3243 17.8303 4.44975 17.8282 4.57114 17.8018C4.69253 17.7753 4.80745 17.725 4.90923 17.6537C5.011 17.5825 5.09759 17.4917 5.16397 17.3867C6.27882 15.671 8.04678 14.6874 9.99991 14.6874C11.953 14.6874 13.721 15.671 14.8398 17.3867C14.9061 17.4917 14.9927 17.5825 15.0945 17.6537C15.1963 17.725 15.3112 17.7753 15.4326 17.8018C15.554 17.8282 15.6794 17.8303 15.8016 17.8079C15.9238 17.7854 16.0403 17.7389 16.1444 17.671C16.2485 17.6032 16.338 17.5153 16.4078 17.4125C16.4776 17.3097 16.5263 17.1941 16.551 17.0723C16.5757 16.9506 16.576 16.8251 16.5518 16.7032C16.5276 16.5814 16.4794 16.4655 16.4101 16.3624C15.6391 15.1583 14.5537 14.1879 13.271 13.5562C14.2498 12.7925 14.9299 11.7098 15.1928 10.4964C15.4558 9.28309 15.2849 8.01596 14.7101 6.91557L17.796 5.88666C17.9824 5.82429 18.1445 5.70489 18.2594 5.54535C18.3743 5.3858 18.4361 5.19419 18.4361 4.9976C18.4361 4.80101 18.3743 4.6094 18.2594 4.44986C18.1445 4.29031 17.9824 4.17091 17.796 4.10854V4.11088ZM9.99991 3.48588L14.5351 4.99995L9.99991 6.51166L5.46866 4.99995L9.99991 3.48588ZM13.4374 9.37495C13.4375 9.90888 13.3132 10.4355 13.0744 10.913C12.8356 11.3906 12.4889 11.806 12.0616 12.1262C11.6344 12.4464 11.1384 12.6627 10.613 12.758C10.0877 12.8532 9.54734 12.8247 9.03488 12.6749C8.52242 12.525 8.05192 12.2577 7.66068 11.8944C7.26945 11.5311 6.96823 11.0816 6.78091 10.5816C6.59358 10.0816 6.52531 9.54483 6.58149 9.01387C6.63768 8.4829 6.81678 7.97232 7.1046 7.5226L9.70382 8.38901C9.89593 8.45361 10.1039 8.45361 10.296 8.38901L12.8952 7.5226C13.2497 8.07533 13.4379 8.7183 13.4374 9.37495Z" fill="#191F2E"/>
</svg>
