<svg width="20" height="20" viewBox="0 0 20 20" fill="none" xmlns="http://www.w3.org/2000/svg">
<path d="M13.9062 6.09375C13.6547 4.94302 13.0981 3.8812 12.2948 3.01971C11.4915 2.15822 10.4712 1.52881 9.34084 1.19752C8.21049 0.866235 7.01181 0.845286 5.87058 1.13687C4.72934 1.42846 3.68763 2.02183 2.85473 2.85473C2.02183 3.68763 1.42846 4.72934 1.13687 5.87058C0.845286 7.01181 0.866235 8.21049 1.19752 9.34084C1.52881 10.4712 2.15822 11.4915 3.01971 12.2948C3.8812 13.0981 4.94302 13.6547 6.09375 13.9062C6.34528 15.057 6.90189 16.1188 7.70517 16.9803C8.50846 17.8418 9.5288 18.4712 10.6592 18.8025C11.7895 19.1338 12.9882 19.1547 14.1294 18.8631C15.2706 18.5715 16.3124 17.9782 17.1453 17.1453C17.9782 16.3124 18.5715 15.2706 18.8631 14.1294C19.1547 12.9882 19.1338 11.7895 18.8025 10.6592C18.4712 9.5288 17.8418 8.50846 16.9803 7.70517C16.1188 6.90189 15.057 6.34528 13.9062 6.09375ZM17.1875 12.5C17.1871 12.6736 17.1772 12.847 17.1578 13.0195L13.7203 9.58203C13.8841 9.09124 13.989 8.58272 14.0328 8.06718C14.9555 8.38437 15.7558 8.98235 16.3216 9.77729C16.8873 10.5722 17.1901 11.5243 17.1875 12.5ZM2.8125 7.5C2.8125 6.5729 3.08741 5.66662 3.60248 4.89576C4.11755 4.1249 4.84964 3.5241 5.70617 3.16931C6.5627 2.81452 7.5052 2.7217 8.41448 2.90256C9.32377 3.08343 10.159 3.52987 10.8146 4.18543C11.4701 4.84099 11.9166 5.67622 12.0974 6.58551C12.2783 7.4948 12.1855 8.43729 11.8307 9.29382C11.4759 10.1504 10.8751 10.8824 10.1042 11.3975C9.33337 11.9126 8.4271 12.1875 7.5 12.1875C6.25724 12.186 5.06579 11.6917 4.18703 10.813C3.30827 9.9342 2.81394 8.74275 2.8125 7.5ZM8.06875 14.0359C8.58429 13.9921 9.0928 13.8872 9.58359 13.7234L13.0211 17.1609C12.848 17.1793 12.674 17.1882 12.5 17.1875C11.5249 17.19 10.5735 16.8875 9.77893 16.3224C8.98434 15.7573 8.38637 14.9578 8.06875 14.0359ZM14.9852 16.4719L11.3344 12.8211C11.9047 12.4081 12.4058 11.9071 12.8187 11.3367L16.4695 14.9875C16.0924 15.5874 15.585 16.0947 14.9852 16.4719Z" fill="#191F2E"/>
</svg>
