<svg width="20" height="20" viewBox="0 0 20 20" fill="none" xmlns="http://www.w3.org/2000/svg">
<path d="M13.6429 6.35541C13.4347 5.23619 12.9248 4.19509 12.1682 3.34448C11.4116 2.49387 10.4371 1.86607 9.34978 1.52883C8.26247 1.19159 7.1037 1.15773 5.99855 1.4309C4.8934 1.70407 3.88385 2.2739 3.07887 3.07887C2.2739 3.88385 1.70407 4.8934 1.4309 5.99855C1.15773 7.1037 1.19159 8.26247 1.52883 9.34978C1.86607 10.4371 2.49387 11.4116 3.34448 12.1682C4.19509 12.9248 5.23619 13.4347 6.35541 13.6429C6.56358 14.7621 7.07348 15.8032 7.83008 16.6538C8.58668 17.5044 9.56123 18.1322 10.6485 18.4695C11.7359 18.8067 12.8946 18.8406 13.9998 18.5674C15.1049 18.2942 16.1145 17.7244 16.9194 16.9194C17.7244 16.1145 18.2942 15.1049 18.5674 13.9998C18.8406 12.8946 18.8067 11.7359 18.4695 10.6485C18.1322 9.56123 17.5044 8.58668 16.6538 7.83008C15.8032 7.07348 14.7621 6.56358 13.6429 6.35541ZM7.49994 12.4999C6.51103 12.4999 5.54433 12.2067 4.72209 11.6573C3.89984 11.1079 3.25898 10.327 2.88054 9.41336C2.5021 8.49973 2.40309 7.49439 2.59601 6.52449C2.78894 5.55458 3.26514 4.66367 3.96441 3.96441C4.66367 3.26514 5.55458 2.78894 6.52449 2.59601C7.49439 2.40309 8.49973 2.5021 9.41336 2.88054C10.327 3.25898 11.1079 3.89984 11.6573 4.72209C12.2067 5.54433 12.4999 6.51103 12.4999 7.49994C12.4985 8.82558 11.9712 10.0965 11.0339 11.0339C10.0965 11.9712 8.82558 12.4985 7.49994 12.4999Z" fill="#191F2E"/>
</svg>
