<svg width="20" height="20" viewBox="0 0 20 20" fill="none" xmlns="http://www.w3.org/2000/svg">
<path d="M17.5 12.5V7.5C17.5 7.33424 17.4342 7.17527 17.3169 7.05806C17.1997 6.94085 17.0408 6.875 16.875 6.875H13.125V3.125C13.125 2.95924 13.0592 2.80027 12.9419 2.68306C12.8247 2.56585 12.6658 2.5 12.5 2.5H3.125C2.95924 2.5 2.80027 2.56585 2.68306 2.68306C2.56585 2.80027 2.5 2.95924 2.5 3.125V12.5C2.5 12.6658 2.56585 12.8247 2.68306 12.9419C2.80027 13.0592 2.95924 13.125 3.125 13.125H6.875V16.875C6.875 17.0408 6.94085 17.1997 7.05806 17.3169C7.17527 17.4342 7.33424 17.5 7.5 17.5H16.875C17.0408 17.5 17.1997 17.4342 17.3169 17.3169C17.4342 17.1997 17.5 17.0408 17.5 16.875V12.5ZM12.7586 16.25L9.63359 13.125H12.2414L15.3664 16.25H12.7586ZM13.125 12.2414V9.63359L16.25 12.7586V15.3664L13.125 12.2414ZM16.25 10.9914L13.3836 8.125H16.25V10.9914ZM3.75 3.75H11.875V8.125V11.875H3.75V3.75ZM8.125 13.3836L10.9914 16.25H8.125V13.3836Z" fill="#191F2E"/>
</svg>
