<svg width="20" height="20" viewBox="0 0 20 20" fill="none" xmlns="http://www.w3.org/2000/svg">
<path d="M13.6429 6.35541C13.4347 5.23619 12.9248 4.19509 12.1682 3.34448C11.4116 2.49387 10.4371 1.86607 9.34978 1.52883C8.26247 1.19159 7.1037 1.15773 5.99855 1.4309C4.8934 1.70407 3.88385 2.2739 3.07887 3.07887C2.2739 3.88385 1.70407 4.8934 1.4309 5.99855C1.15773 7.1037 1.19159 8.26247 1.52883 9.34978C1.86607 10.4371 2.49387 11.4116 3.34448 12.1682C4.19509 12.9248 5.23619 13.4347 6.35541 13.6429C6.56358 14.7621 7.07348 15.8032 7.83008 16.6538C8.58668 17.5044 9.56123 18.1322 10.6485 18.4695C11.7359 18.8067 12.8946 18.8406 13.9998 18.5674C15.1049 18.2942 16.1145 17.7244 16.9194 16.9194C17.7244 16.1145 18.2942 15.1049 18.5674 13.9998C18.8406 12.8946 18.8067 11.7359 18.4695 10.6485C18.1322 9.56123 17.5044 8.58668 16.6538 7.83008C15.8032 7.07348 14.7621 6.56358 13.6429 6.35541ZM17.4999 12.4999C17.4999 12.6187 17.4945 12.7343 17.4859 12.8523L13.5796 8.94603C13.681 8.52317 13.7381 8.09089 13.7499 7.65619C14.8249 7.9311 15.7774 8.55678 16.4567 9.43413C17.1359 10.3115 17.5031 11.3904 17.4999 12.4999ZM11.4531 12.3367L15.5632 16.4476C15.1783 16.7469 14.7516 16.9882 14.2968 17.164L10.2453 13.1124C10.6761 12.9008 11.0814 12.6405 11.4531 12.3367ZM12.3367 11.4531C12.6404 11.0819 12.9007 10.6772 13.1124 10.2468L17.164 14.2968C16.9881 14.7511 16.7467 15.1772 16.4476 15.5617L12.3367 11.4531ZM2.49994 7.49994C2.49994 6.51103 2.79318 5.54433 3.34259 4.72209C3.892 3.89984 4.67289 3.25898 5.58652 2.88054C6.50015 2.5021 7.50549 2.40309 8.47539 2.59601C9.4453 2.78894 10.3362 3.26514 11.0355 3.96441C11.7347 4.66367 12.2109 5.55458 12.4039 6.52449C12.5968 7.49439 12.4978 8.49973 12.1193 9.41336C11.7409 10.327 11.1 11.1079 10.2778 11.6573C9.45554 12.2067 8.48885 12.4999 7.49994 12.4999C6.1743 12.4985 4.90337 11.9712 3.966 11.0339C3.02864 10.0965 2.50139 8.82558 2.49994 7.49994ZM7.65619 13.7499C8.09049 13.7393 8.5225 13.6836 8.94525 13.5835L12.8515 17.4898C12.7351 17.4984 12.6171 17.5038 12.4992 17.5038C11.3892 17.5066 10.3101 17.1388 9.43284 16.4588C8.55557 15.7788 7.93033 14.8255 7.65619 13.7499Z" fill="#191F2E"/>
</svg>
