<svg width="20" height="20" viewBox="0 0 20 20" fill="none" xmlns="http://www.w3.org/2000/svg">
<path d="M17.5 3.4375H2.5C2.0856 3.4375 1.68817 3.60212 1.39515 3.89515C1.10212 4.18817 0.9375 4.5856 0.9375 5V15C0.9375 15.4144 1.10212 15.8118 1.39515 16.1049C1.68817 16.3979 2.0856 16.5625 2.5 16.5625H17.5C17.9144 16.5625 18.3118 16.3979 18.6049 16.1049C18.8979 15.8118 19.0625 15.4144 19.0625 15V5C19.0625 4.5856 18.8979 4.18817 18.6049 3.89515C18.3118 3.60212 17.9144 3.4375 17.5 3.4375ZM17.1875 14.6875H2.8125V5.3125H17.1875V14.6875ZM3.75 10C3.75 9.75136 3.84877 9.5129 4.02459 9.33709C4.2004 9.16127 4.43886 9.0625 4.6875 9.0625H5.9375C6.18614 9.0625 6.4246 9.16127 6.60041 9.33709C6.77623 9.5129 6.875 9.75136 6.875 10C6.875 10.2486 6.77623 10.4871 6.60041 10.6629C6.4246 10.8387 6.18614 10.9375 5.9375 10.9375H4.6875C4.43886 10.9375 4.2004 10.8387 4.02459 10.6629C3.84877 10.4871 3.75 10.2486 3.75 10ZM8.125 10C8.125 9.75136 8.22377 9.5129 8.39959 9.33709C8.5754 9.16127 8.81386 9.0625 9.0625 9.0625H15.3125C15.5611 9.0625 15.7996 9.16127 15.9754 9.33709C16.1512 9.5129 16.25 9.75136 16.25 10C16.25 10.2486 16.1512 10.4871 15.9754 10.6629C15.7996 10.8387 15.5611 10.9375 15.3125 10.9375H9.0625C8.81386 10.9375 8.5754 10.8387 8.39959 10.6629C8.22377 10.4871 8.125 10.2486 8.125 10ZM3.75 12.8125C3.75 12.5639 3.84877 12.3254 4.02459 12.1496C4.2004 11.9738 4.43886 11.875 4.6875 11.875H10.9375C11.1861 11.875 11.4246 11.9738 11.6004 12.1496C11.7762 12.3254 11.875 12.5639 11.875 12.8125C11.875 13.0611 11.7762 13.2996 11.6004 13.4754C11.4246 13.6512 11.1861 13.75 10.9375 13.75H4.6875C4.43886 13.75 4.2004 13.6512 4.02459 13.4754C3.84877 13.2996 3.75 13.0611 3.75 12.8125ZM16.25 12.8125C16.25 13.0611 16.1512 13.2996 15.9754 13.4754C15.7996 13.6512 15.5611 13.75 15.3125 13.75H14.0625C13.8139 13.75 13.5754 13.6512 13.3996 13.4754C13.2238 13.2996 13.125 13.0611 13.125 12.8125C13.125 12.5639 13.2238 12.3254 13.3996 12.1496C13.5754 11.9738 13.8139 11.875 14.0625 11.875H15.3125C15.5611 11.875 15.7996 11.9738 15.9754 12.1496C16.1512 12.3254 16.25 12.5639 16.25 12.8125Z" fill="#191F2E"/>
</svg>
