<svg width="20" height="20" viewBox="0 0 20 20" fill="none" xmlns="http://www.w3.org/2000/svg">
<path d="M9.0625 7.5V13.75C9.0625 13.9986 8.96373 14.2371 8.78791 14.4129C8.6121 14.5887 8.37364 14.6875 8.125 14.6875C7.87636 14.6875 7.6379 14.5887 7.46209 14.4129C7.28627 14.2371 7.1875 13.9986 7.1875 13.75V7.5C7.1875 7.25136 7.28627 7.0129 7.46209 6.83709C7.6379 6.66127 7.87636 6.5625 8.125 6.5625C8.37364 6.5625 8.6121 6.66127 8.78791 6.83709C8.96373 7.0129 9.0625 7.25136 9.0625 7.5ZM10.9375 7.5V13.75C10.9375 13.9986 11.0363 14.2371 11.2121 14.4129C11.3879 14.5887 11.6264 14.6875 11.875 14.6875C12.1236 14.6875 12.3621 14.5887 12.5379 14.4129C12.7137 14.2371 12.8125 13.9986 12.8125 13.75V7.5C12.8125 7.25136 12.7137 7.0129 12.5379 6.83709C12.3621 6.66127 12.1236 6.5625 11.875 6.5625C11.6264 6.5625 11.3879 6.66127 11.2121 6.83709C11.0363 7.0129 10.9375 7.25136 10.9375 7.5ZM16.5625 5V16.25C16.5625 16.6644 16.3979 17.0618 16.1049 17.3549C15.8118 17.6479 15.4144 17.8125 15 17.8125H14.0625V18.75C14.0625 18.9986 13.9637 19.2371 13.7879 19.4129C13.6121 19.5887 13.3736 19.6875 13.125 19.6875C12.8764 19.6875 12.6379 19.5887 12.4621 19.4129C12.2863 19.2371 12.1875 18.9986 12.1875 18.75V17.8125H7.8125V18.75C7.8125 18.9986 7.71373 19.2371 7.53791 19.4129C7.3621 19.5887 7.12364 19.6875 6.875 19.6875C6.62636 19.6875 6.3879 19.5887 6.21209 19.4129C6.03627 19.2371 5.9375 18.9986 5.9375 18.75V17.8125H5C4.5856 17.8125 4.18817 17.6479 3.89515 17.3549C3.60212 17.0618 3.4375 16.6644 3.4375 16.25V5C3.4375 4.5856 3.60212 4.18817 3.89515 3.89515C4.18817 3.60212 4.5856 3.4375 5 3.4375H6.5625V2.1875C6.5625 1.60734 6.79297 1.05094 7.2032 0.640704C7.61344 0.230468 8.16984 0 8.75 0L11.25 0C11.8302 0 12.3866 0.230468 12.7968 0.640704C13.207 1.05094 13.4375 1.60734 13.4375 2.1875V3.4375H15C15.4144 3.4375 15.8118 3.60212 16.1049 3.89515C16.3979 4.18817 16.5625 4.5856 16.5625 5ZM8.4375 3.4375H11.5625V2.1875C11.5625 2.10462 11.5296 2.02513 11.471 1.96653C11.4124 1.90792 11.3329 1.875 11.25 1.875H8.75C8.66712 1.875 8.58763 1.90792 8.52903 1.96653C8.47042 2.02513 8.4375 2.10462 8.4375 2.1875V3.4375ZM14.6875 5.3125H5.3125V15.9375H14.6875V5.3125Z" fill="#191F2E"/>
</svg>
