<svg width="20" height="20" viewBox="0 0 20 20" fill="none" xmlns="http://www.w3.org/2000/svg">
<path d="M16.875 3.75H14.0625V3.125C14.0625 2.54484 13.832 1.98844 13.4218 1.5782C13.0116 1.16797 12.4552 0.9375 11.875 0.9375H8.125C7.54484 0.9375 6.98844 1.16797 6.5782 1.5782C6.16797 1.98844 5.9375 2.54484 5.9375 3.125V3.75H3.125C2.7106 3.75 2.31317 3.91462 2.02015 4.20765C1.72712 4.50067 1.5625 4.8981 1.5625 5.3125V15.3125C1.5625 15.7269 1.72712 16.1243 2.02015 16.4174C2.31317 16.7104 2.7106 16.875 3.125 16.875H16.875C17.2894 16.875 17.6868 16.7104 17.9799 16.4174C18.2729 16.1243 18.4375 15.7269 18.4375 15.3125V5.3125C18.4375 4.8981 18.2729 4.50067 17.9799 4.20765C17.6868 3.91462 17.2894 3.75 16.875 3.75ZM7.8125 3.125C7.8125 3.04212 7.84542 2.96263 7.90403 2.90403C7.96263 2.84542 8.04212 2.8125 8.125 2.8125H11.875C11.9579 2.8125 12.0374 2.84542 12.096 2.90403C12.1546 2.96263 12.1875 3.04212 12.1875 3.125V3.75H7.8125V3.125ZM16.5625 5.625V10.625H3.4375V5.625H16.5625ZM3.4375 15V12.5H16.5625V15H3.4375Z" fill="#191F2E"/>
</svg>
