<svg width="20" height="20" viewBox="0 0 20 20" fill="none" xmlns="http://www.w3.org/2000/svg">
<path d="M8.125 6.875V14.375C8.125 14.5408 8.05915 14.6997 7.94194 14.8169C7.82473 14.9342 7.66576 15 7.5 15C7.33424 15 7.17527 14.9342 7.05806 14.8169C6.94085 14.6997 6.875 14.5408 6.875 14.375V6.875C6.875 6.70924 6.94085 6.55027 7.05806 6.43306C7.17527 6.31585 7.33424 6.25 7.5 6.25C7.66576 6.25 7.82473 6.31585 7.94194 6.43306C8.05915 6.55027 8.125 6.70924 8.125 6.875ZM10 6.25C9.83424 6.25 9.67527 6.31585 9.55806 6.43306C9.44085 6.55027 9.375 6.70924 9.375 6.875V14.375C9.375 14.5408 9.44085 14.6997 9.55806 14.8169C9.67527 14.9342 9.83424 15 10 15C10.1658 15 10.3247 14.9342 10.4419 14.8169C10.5592 14.6997 10.625 14.5408 10.625 14.375V6.875C10.625 6.70924 10.5592 6.55027 10.4419 6.43306C10.3247 6.31585 10.1658 6.25 10 6.25ZM12.5 6.25C12.3342 6.25 12.1753 6.31585 12.0581 6.43306C11.9408 6.55027 11.875 6.70924 11.875 6.875V14.375C11.875 14.5408 11.9408 14.6997 12.0581 14.8169C12.1753 14.9342 12.3342 15 12.5 15C12.6658 15 12.8247 14.9342 12.9419 14.8169C13.0592 14.6997 13.125 14.5408 13.125 14.375V6.875C13.125 6.70924 13.0592 6.55027 12.9419 6.43306C12.8247 6.31585 12.6658 6.25 12.5 6.25ZM16.25 5V16.25C16.25 16.5815 16.1183 16.8995 15.8839 17.1339C15.6495 17.3683 15.3315 17.5 15 17.5H13.75V18.75C13.75 18.9158 13.6842 19.0747 13.5669 19.1919C13.4497 19.3092 13.2908 19.375 13.125 19.375C12.9592 19.375 12.8003 19.3092 12.6831 19.1919C12.5658 19.0747 12.5 18.9158 12.5 18.75V17.5H7.5V18.75C7.5 18.9158 7.43415 19.0747 7.31694 19.1919C7.19973 19.3092 7.04076 19.375 6.875 19.375C6.70924 19.375 6.55027 19.3092 6.43306 19.1919C6.31585 19.0747 6.25 18.9158 6.25 18.75V17.5H5C4.66848 17.5 4.35054 17.3683 4.11612 17.1339C3.8817 16.8995 3.75 16.5815 3.75 16.25V5C3.75 4.66848 3.8817 4.35054 4.11612 4.11612C4.35054 3.8817 4.66848 3.75 5 3.75H6.875V1.875C6.875 1.37772 7.07254 0.900805 7.42417 0.549175C7.77581 0.197544 8.25272 0 8.75 0L11.25 0C11.7473 0 12.2242 0.197544 12.5758 0.549175C12.9275 0.900805 13.125 1.37772 13.125 1.875V3.75H15C15.3315 3.75 15.6495 3.8817 15.8839 4.11612C16.1183 4.35054 16.25 4.66848 16.25 5ZM8.125 3.75H11.875V1.875C11.875 1.70924 11.8092 1.55027 11.6919 1.43306C11.5747 1.31585 11.4158 1.25 11.25 1.25H8.75C8.58424 1.25 8.42527 1.31585 8.30806 1.43306C8.19085 1.55027 8.125 1.70924 8.125 1.875V3.75ZM15 16.25V5H5V16.25H15Z" fill="#191F2E"/>
</svg>
