<svg width="20" height="20" viewBox="0 0 20 20" fill="none" xmlns="http://www.w3.org/2000/svg">
<path d="M18.75 11.875H15.5898C15.6129 11.6675 15.6246 11.4589 15.625 11.25C15.625 9.75819 15.0324 8.32745 13.9775 7.27256C12.9226 6.21767 11.4918 5.62503 10 5.62503C8.50816 5.62503 7.07742 6.21767 6.02252 7.27256C4.96763 8.32745 4.375 9.75819 4.375 11.25C4.37535 11.4589 4.38709 11.6675 4.41016 11.875H1.25C1.08424 11.875 0.925268 11.9409 0.808058 12.0581C0.690848 12.1753 0.625 12.3343 0.625 12.5C0.625 12.6658 0.690848 12.8248 0.808058 12.942C0.925268 13.0592 1.08424 13.125 1.25 13.125H18.75C18.9158 13.125 19.0747 13.0592 19.1919 12.942C19.3092 12.8248 19.375 12.6658 19.375 12.5C19.375 12.3343 19.3092 12.1753 19.1919 12.0581C19.0747 11.9409 18.9158 11.875 18.75 11.875ZM5.625 11.25C5.62385 10.6484 5.74681 10.053 5.98618 9.50103C6.22555 8.94906 6.57619 8.45239 7.01619 8.04207C7.45619 7.63175 7.97609 7.31659 8.54341 7.11628C9.11072 6.91598 9.71325 6.83483 10.3133 6.87792C10.9134 6.92102 11.4982 7.08741 12.0311 7.36672C12.5639 7.64603 13.0335 8.03224 13.4103 8.50121C13.7872 8.97019 14.0633 9.51186 14.2213 10.0924C14.3794 10.6729 14.416 11.2797 14.3289 11.875H5.67109C5.64084 11.6681 5.62544 11.4592 5.625 11.25ZM16.875 15.625C16.875 15.7908 16.8092 15.9498 16.6919 16.067C16.5747 16.1842 16.4158 16.25 16.25 16.25H3.75C3.58424 16.25 3.42527 16.1842 3.30806 16.067C3.19085 15.9498 3.125 15.7908 3.125 15.625C3.125 15.4593 3.19085 15.3003 3.30806 15.1831C3.42527 15.0659 3.58424 15 3.75 15H16.25C16.4158 15 16.5747 15.0659 16.6919 15.1831C16.8092 15.3003 16.875 15.4593 16.875 15.625ZM5.69062 3.40472C5.61645 3.25637 5.60424 3.08462 5.65669 2.92727C5.70914 2.76991 5.82196 2.63984 5.97031 2.56566C6.11867 2.49148 6.29041 2.47928 6.44777 2.53173C6.60512 2.58418 6.7352 2.69699 6.80938 2.84535L7.43438 4.09535C7.4711 4.16881 7.493 4.24878 7.49883 4.3307C7.50465 4.41262 7.49428 4.49489 7.46831 4.5728C7.44234 4.65072 7.40127 4.72275 7.34746 4.7848C7.29365 4.84684 7.22815 4.89768 7.15469 4.93441C7.08123 4.97114 7.00126 4.99304 6.91933 4.99886C6.83741 5.00468 6.75515 4.99431 6.67723 4.96834C6.59932 4.94237 6.52728 4.90131 6.46524 4.8475C6.40319 4.79368 6.35235 4.72818 6.31562 4.65472L5.69062 3.40472ZM1.31563 7.22035C1.35238 7.14692 1.40325 7.08145 1.46532 7.02769C1.52739 6.97393 1.59944 6.93293 1.67736 6.90703C1.75529 6.88113 1.83755 6.87084 1.91945 6.87674C2.00135 6.88264 2.08129 6.90463 2.15469 6.94144L3.40469 7.56644C3.55294 7.64062 3.66565 7.77065 3.71803 7.92793C3.77041 8.08521 3.75816 8.25686 3.68398 8.40511C3.60981 8.55336 3.47977 8.66608 3.32249 8.71846C3.16521 8.77083 2.99356 8.75859 2.84531 8.68441L1.59531 8.05941C1.52182 8.02272 1.45628 7.9719 1.40244 7.90987C1.34859 7.84783 1.30751 7.77578 1.28154 7.69786C1.25556 7.61993 1.2452 7.53764 1.25105 7.45571C1.2569 7.37377 1.27884 7.29379 1.31563 7.22035ZM16.3156 8.40472C16.2416 8.25646 16.2295 8.08487 16.2819 7.92767C16.3344 7.77047 16.4471 7.64054 16.5953 7.56644L17.8453 6.94144C17.9187 6.90471 17.9986 6.8828 18.0805 6.87696C18.1624 6.87112 18.2446 6.88146 18.3225 6.90739C18.4004 6.93333 18.4724 6.97435 18.5344 7.02811C18.5964 7.08188 18.6473 7.14733 18.684 7.22074C18.7207 7.29414 18.7426 7.37407 18.7485 7.45594C18.7543 7.53782 18.744 7.62004 18.718 7.69792C18.6921 7.7758 18.6511 7.8478 18.5973 7.90983C18.5435 7.97185 18.4781 8.02268 18.4047 8.05941L17.1547 8.68441C17.0812 8.72119 17.0013 8.74314 16.9193 8.74898C16.8374 8.75483 16.7551 8.74447 16.6772 8.7185C16.5992 8.69252 16.5272 8.65144 16.4652 8.5976C16.4031 8.54376 16.3523 8.47822 16.3156 8.40472ZM12.5656 4.09535L13.1906 2.84535C13.2648 2.69699 13.3949 2.58418 13.5522 2.53173C13.7096 2.47928 13.8813 2.49148 14.0297 2.56566C14.178 2.63984 14.2909 2.76991 14.3433 2.92727C14.3958 3.08462 14.3836 3.25637 14.3094 3.40472L13.6844 4.65472C13.6102 4.80308 13.4801 4.91589 13.3228 4.96834C13.1654 5.02079 12.9937 5.00859 12.8453 4.93441C12.697 4.86023 12.5841 4.73016 12.5317 4.5728C12.4792 4.41545 12.4914 4.2437 12.5656 4.09535Z" fill="#191F2E"/>
</svg>
