<svg width="20" height="20" viewBox="0 0 20 20" fill="none" xmlns="http://www.w3.org/2000/svg">
<path d="M19.375 12.5C19.375 12.6658 19.3092 12.8248 19.1919 12.942C19.0747 13.0592 18.9158 13.125 18.75 13.125H1.25C1.08424 13.125 0.925268 13.0592 0.808058 12.942C0.690848 12.8248 0.625 12.6658 0.625 12.5C0.625 12.3343 0.690848 12.1753 0.808058 12.0581C0.925268 11.9409 1.08424 11.875 1.25 11.875H4.41016C4.38709 11.6675 4.37535 11.4589 4.375 11.25C4.375 9.75819 4.96763 8.32745 6.02252 7.27256C7.07742 6.21767 8.50816 5.62503 10 5.62503C11.4918 5.62503 12.9226 6.21767 13.9775 7.27256C15.0324 8.32745 15.625 9.75819 15.625 11.25C15.6246 11.4589 15.6129 11.6675 15.5898 11.875H18.75C18.9158 11.875 19.0747 11.9409 19.1919 12.0581C19.3092 12.1753 19.375 12.3343 19.375 12.5ZM16.25 15H3.75C3.58424 15 3.42527 15.0659 3.30806 15.1831C3.19085 15.3003 3.125 15.4593 3.125 15.625C3.125 15.7908 3.19085 15.9498 3.30806 16.067C3.42527 16.1842 3.58424 16.25 3.75 16.25H16.25C16.4158 16.25 16.5747 16.1842 16.6919 16.067C16.8092 15.9498 16.875 15.7908 16.875 15.625C16.875 15.4593 16.8092 15.3003 16.6919 15.1831C16.5747 15.0659 16.4158 15 16.25 15ZM6.31562 4.65472C6.35235 4.72818 6.40319 4.79368 6.46524 4.8475C6.52728 4.90131 6.59932 4.94237 6.67723 4.96834C6.75515 4.99431 6.83741 5.00468 6.91933 4.99886C7.00126 4.99304 7.08123 4.97114 7.15469 4.93441C7.22815 4.89768 7.29365 4.84684 7.34746 4.7848C7.40127 4.72275 7.44234 4.65072 7.46831 4.5728C7.49428 4.49489 7.50465 4.41262 7.49883 4.3307C7.493 4.24878 7.4711 4.16881 7.43438 4.09535L6.80938 2.84535C6.7352 2.69699 6.60512 2.58418 6.44777 2.53173C6.29041 2.47928 6.11867 2.49148 5.97031 2.56566C5.82196 2.63984 5.70914 2.76991 5.65669 2.92727C5.60424 3.08462 5.61645 3.25637 5.69062 3.40472L6.31562 4.65472ZM1.59531 8.05941L2.84531 8.68441C2.99356 8.75859 3.16521 8.77083 3.32249 8.71846C3.47977 8.66608 3.60981 8.55336 3.68398 8.40511C3.75816 8.25686 3.77041 8.08521 3.71803 7.92793C3.66565 7.77065 3.55294 7.64062 3.40469 7.56644L2.15469 6.94144C2.08128 6.90471 2.00136 6.8828 1.91948 6.87696C1.83761 6.87112 1.75539 6.88146 1.67751 6.90739C1.59963 6.93333 1.52762 6.97435 1.4656 7.02811C1.40357 7.08188 1.35274 7.14733 1.31602 7.22074C1.27929 7.29414 1.25738 7.37407 1.25153 7.45594C1.24569 7.53782 1.25603 7.62004 1.28197 7.69792C1.3079 7.7758 1.34892 7.8478 1.40269 7.90983C1.45645 7.97185 1.52191 8.02268 1.59531 8.05941ZM16.875 8.75003C16.9718 8.75005 17.0673 8.72759 17.1539 8.68441L18.4039 8.05941C18.4773 8.02268 18.5428 7.97185 18.5965 7.90983C18.6503 7.8478 18.6913 7.7758 18.7172 7.69792C18.7432 7.62004 18.7535 7.53782 18.7477 7.45594C18.7418 7.37407 18.7199 7.29414 18.6832 7.22074C18.6465 7.14733 18.5956 7.08188 18.5336 7.02811C18.4716 6.97435 18.3996 6.93333 18.3217 6.90739C18.2438 6.88146 18.1616 6.87112 18.0797 6.87696C17.9979 6.8828 17.9179 6.90471 17.8445 6.94144L16.5945 7.56644C16.4688 7.62956 16.368 7.73328 16.3085 7.86081C16.249 7.98834 16.2343 8.13222 16.2667 8.26915C16.2992 8.40608 16.3769 8.52805 16.4873 8.61532C16.5977 8.7026 16.7343 8.75006 16.875 8.75003ZM12.8453 4.93441C12.9188 4.97119 12.9987 4.99314 13.0807 4.99899C13.1626 5.00483 13.2449 4.99448 13.3228 4.9685C13.4008 4.94252 13.4728 4.90144 13.5348 4.8476C13.5969 4.79376 13.6477 4.72822 13.6844 4.65472L14.3094 3.40472C14.3836 3.25637 14.3958 3.08462 14.3433 2.92727C14.2909 2.76991 14.178 2.63984 14.0297 2.56566C13.8813 2.49148 13.7096 2.47928 13.5522 2.53173C13.3949 2.58418 13.2648 2.69699 13.1906 2.84535L12.5656 4.09535C12.5288 4.16879 12.5069 4.24877 12.501 4.33071C12.4952 4.41264 12.5056 4.49493 12.5315 4.57286C12.5575 4.65078 12.5986 4.72283 12.6524 4.78487C12.7063 4.8469 12.7718 4.89772 12.8453 4.93441Z" fill="#191F2E"/>
</svg>
