<svg width="20" height="20" viewBox="0 0 20 20" fill="none" xmlns="http://www.w3.org/2000/svg">
<path d="M15.625 2.8125C15.3764 2.8125 15.1379 2.91127 14.9621 3.08709C14.7863 3.2629 14.6875 3.50136 14.6875 3.75C14.6875 3.99864 14.7863 4.2371 14.9621 4.41291C15.1379 4.58873 15.3764 4.6875 15.625 4.6875C15.8736 4.6875 16.1121 4.78627 16.2879 4.96209C16.4637 5.1379 16.5625 5.37636 16.5625 5.625V9.6875H3.4375V5.625C3.4375 5.37636 3.53627 5.1379 3.71209 4.96209C3.8879 4.78627 4.12636 4.6875 4.375 4.6875C4.62364 4.6875 4.8621 4.58873 5.03791 4.41291C5.21373 4.2371 5.3125 3.99864 5.3125 3.75C5.3125 3.50136 5.21373 3.2629 5.03791 3.08709C4.8621 2.91127 4.62364 2.8125 4.375 2.8125C3.62908 2.8125 2.91371 3.10882 2.38626 3.63626C1.85882 4.16371 1.5625 4.87908 1.5625 5.625V12.8125C1.5625 13.8071 1.95759 14.7609 2.66085 15.4642C3.36411 16.1674 4.31794 16.5625 5.3125 16.5625C6.30706 16.5625 7.26089 16.1674 7.96415 15.4642C8.66741 14.7609 9.0625 13.8071 9.0625 12.8125V11.5625H10.9375V12.8125C10.9375 13.8071 11.3326 14.7609 12.0358 15.4642C12.7391 16.1674 13.6929 16.5625 14.6875 16.5625C15.6821 16.5625 16.6359 16.1674 17.3392 15.4642C18.0424 14.7609 18.4375 13.8071 18.4375 12.8125V5.625C18.4375 4.87908 18.1412 4.16371 17.6137 3.63626C17.0863 3.10882 16.3709 2.8125 15.625 2.8125ZM16.4984 13.2977L14.7656 11.5625H16.5625V12.8125C16.5624 12.9763 16.5409 13.1394 16.4984 13.2977ZM3.4375 12.8125V12.2656L5.79766 14.6258C5.51969 14.7002 5.22831 14.7097 4.94608 14.6535C4.66386 14.5972 4.39837 14.4768 4.17017 14.3015C3.94197 14.1262 3.75719 13.9007 3.63014 13.6425C3.50309 13.3843 3.43717 13.1003 3.4375 12.8125ZM7.1875 12.8125C7.18743 12.9763 7.16589 13.1394 7.12344 13.2977L5.39062 11.5625H7.1875V12.8125ZM12.8125 12.8125V12.2656L15.1727 14.6258C14.8947 14.7002 14.6033 14.7097 14.3211 14.6535C14.0389 14.5972 13.7734 14.4768 13.5452 14.3015C13.317 14.1262 13.1322 13.9007 13.0051 13.6425C12.8781 13.3843 12.8122 13.1003 12.8125 12.8125Z" fill="#191F2E"/>
</svg>
