<svg width="20" height="20" viewBox="0 0 20 20" fill="none" xmlns="http://www.w3.org/2000/svg">
<path d="M15.625 3.125C15.4592 3.125 15.3003 3.19085 15.1831 3.30806C15.0658 3.42527 15 3.58424 15 3.75C15 3.91576 15.0658 4.07473 15.1831 4.19194C15.3003 4.30915 15.4592 4.375 15.625 4.375C15.9565 4.375 16.2745 4.5067 16.5089 4.74112C16.7433 4.97554 16.875 5.29348 16.875 5.625V10H3.125V5.625C3.125 5.29348 3.2567 4.97554 3.49112 4.74112C3.72554 4.5067 4.04348 4.375 4.375 4.375C4.54076 4.375 4.69973 4.30915 4.81694 4.19194C4.93415 4.07473 5 3.91576 5 3.75C5 3.58424 4.93415 3.42527 4.81694 3.30806C4.69973 3.19085 4.54076 3.125 4.375 3.125C3.71196 3.125 3.07607 3.38839 2.60723 3.85723C2.13839 4.32607 1.875 4.96196 1.875 5.625V12.8125C1.875 13.7242 2.23716 14.5985 2.88182 15.2432C3.52648 15.8878 4.40082 16.25 5.3125 16.25C6.22418 16.25 7.09852 15.8878 7.74318 15.2432C8.38784 14.5985 8.75 13.7242 8.75 12.8125V11.25H11.25V12.8125C11.25 13.7242 11.6122 14.5985 12.2568 15.2432C12.9015 15.8878 13.7758 16.25 14.6875 16.25C15.5992 16.25 16.4735 15.8878 17.1182 15.2432C17.7628 14.5985 18.125 13.7242 18.125 12.8125V5.625C18.125 4.96196 17.8616 4.32607 17.3928 3.85723C16.9239 3.38839 16.288 3.125 15.625 3.125ZM16.6117 13.8523L14.0086 11.25H16.875V12.8125C16.8756 13.1757 16.785 13.5332 16.6117 13.8523ZM3.125 12.8125V11.5086L6.35234 14.7367C6.01914 14.9167 5.64491 15.0072 5.26627 14.9992C4.88763 14.9912 4.51756 14.885 4.19226 14.6911C3.86697 14.4971 3.5976 14.222 3.41052 13.8927C3.22344 13.5634 3.12506 13.1912 3.125 12.8125ZM7.5 12.8125C7.50056 13.1757 7.41004 13.5332 7.23672 13.8523L4.63359 11.25H7.5V12.8125ZM12.5 12.8125V11.5086L15.7273 14.7367C15.3941 14.9167 15.0199 15.0072 14.6413 14.9992C14.2626 14.9912 13.8926 14.885 13.5673 14.6911C13.242 14.4971 12.9726 14.222 12.7855 13.8927C12.5984 13.5634 12.5001 13.1912 12.5 12.8125Z" fill="#191F2E"/>
</svg>
