<svg width="20" height="20" viewBox="0 0 20 20" fill="none" xmlns="http://www.w3.org/2000/svg">
<path d="M17.5 3.75V11.875C17.5 12.2065 17.3683 12.5245 17.1339 12.7589C16.8995 12.9933 16.5815 13.125 16.25 13.125H8.75V14.375C8.7501 14.4987 8.71349 14.6196 8.64482 14.7225C8.57616 14.8254 8.47851 14.9055 8.36424 14.9529C8.24998 15.0002 8.12424 15.0126 8.00293 14.9885C7.88163 14.9643 7.77022 14.9047 7.68281 14.8172L5.80781 12.9422C5.7497 12.8841 5.7036 12.8152 5.67215 12.7393C5.6407 12.6635 5.62451 12.5821 5.62451 12.5C5.62451 12.4179 5.6407 12.3365 5.67215 12.2607C5.7036 12.1848 5.7497 12.1159 5.80781 12.0578L7.68281 10.1828C7.77022 10.0953 7.88163 10.0357 8.00293 10.0115C8.12424 9.98739 8.24998 9.99977 8.36424 10.0471C8.47851 10.0945 8.57616 10.1746 8.64482 10.2775C8.71349 10.3804 8.7501 10.5013 8.75 10.625V11.875H16.25V3.75H7.5V4.375C7.5 4.54076 7.43415 4.69973 7.31694 4.81694C7.19973 4.93415 7.04076 5 6.875 5C6.70924 5 6.55027 4.93415 6.43306 4.81694C6.31585 4.69973 6.25 4.54076 6.25 4.375V3.75C6.25 3.41848 6.3817 3.10054 6.61612 2.86612C6.85054 2.6317 7.16848 2.5 7.5 2.5H16.25C16.5815 2.5 16.8995 2.6317 17.1339 2.86612C17.3683 3.10054 17.5 3.41848 17.5 3.75ZM13.125 15C12.9592 15 12.8003 15.0658 12.6831 15.1831C12.5658 15.3003 12.5 15.4592 12.5 15.625V16.25H3.75V8.125H11.25V9.375C11.2499 9.49868 11.2865 9.61962 11.3552 9.72249C11.4238 9.82536 11.5215 9.90554 11.6358 9.95289C11.75 10.0002 11.8758 10.0126 11.9971 9.98846C12.1184 9.9643 12.2298 9.9047 12.3172 9.81719L14.1922 7.94219C14.2503 7.88414 14.2964 7.81521 14.3279 7.73934C14.3593 7.66346 14.3755 7.58213 14.3755 7.5C14.3755 7.41787 14.3593 7.33654 14.3279 7.26066C14.2964 7.18479 14.2503 7.11586 14.1922 7.05781L12.3172 5.18281C12.2298 5.09531 12.1184 5.0357 11.9971 5.01154C11.8758 4.98739 11.75 4.99977 11.6358 5.04711C11.5215 5.09446 11.4238 5.17464 11.3552 5.27751C11.2865 5.38038 11.2499 5.50132 11.25 5.625V6.875H3.75C3.41848 6.875 3.10054 7.0067 2.86612 7.24112C2.6317 7.47554 2.5 7.79348 2.5 8.125V16.25C2.5 16.5815 2.6317 16.8995 2.86612 17.1339C3.10054 17.3683 3.41848 17.5 3.75 17.5H12.5C12.8315 17.5 13.1495 17.3683 13.3839 17.1339C13.6183 16.8995 13.75 16.5815 13.75 16.25V15.625C13.75 15.4592 13.6842 15.3003 13.5669 15.1831C13.4497 15.0658 13.2908 15 13.125 15Z" fill="#191F2E"/>
</svg>
