<svg width="20" height="20" viewBox="0 0 20 20" fill="none" xmlns="http://www.w3.org/2000/svg">
<path d="M6.25005 14.0626C6.25005 14.248 6.19507 14.4292 6.09206 14.5834C5.98904 14.7376 5.84263 14.8577 5.67132 14.9287C5.50001 14.9997 5.31151 15.0182 5.12966 14.982C4.9478 14.9459 4.78075 14.8566 4.64964 14.7255C4.51853 14.5944 4.42924 14.4273 4.39307 14.2455C4.35689 14.0636 4.37546 13.8751 4.44642 13.7038C4.51737 13.5325 4.63754 13.3861 4.79171 13.2831C4.94588 13.18 5.12713 13.1251 5.31255 13.1251C5.56119 13.1251 5.79965 13.2238 5.97547 13.3996C6.15128 13.5755 6.25005 13.8139 6.25005 14.0626ZM18.1251 12.2024V16.2501C18.1251 16.5816 17.9934 16.8995 17.7589 17.1339C17.5245 17.3684 17.2066 17.5001 16.8751 17.5001H5.31255C5.10464 17.5002 4.8971 17.4824 4.69224 17.4469C3.79851 17.2839 3.00567 16.7737 2.48701 16.0278C1.96834 15.2819 1.76602 14.3611 1.92427 13.4665L3.8774 2.28444C3.90516 2.12286 3.96455 1.96836 4.05217 1.82979C4.13978 1.69122 4.2539 1.57132 4.38796 1.47696C4.52203 1.38259 4.67341 1.31563 4.83341 1.27992C4.99342 1.2442 5.1589 1.24042 5.32037 1.26881L9.59693 2.03131C9.92233 2.08995 10.2112 2.27513 10.4004 2.5463C10.5896 2.81748 10.6636 3.15255 10.6063 3.47819L9.66255 8.86881L14.9602 6.95319C15.2708 6.84102 15.6131 6.85628 15.9124 6.99562C16.2117 7.13497 16.4438 7.38709 16.5579 7.69694L18.0469 11.7727C18.0948 11.9111 18.1211 12.056 18.1251 12.2024ZM7.42193 14.443L9.37505 3.261L5.11412 2.50006L3.16099 13.6798C3.05902 14.2484 3.18614 14.8343 3.51458 15.3095C3.84303 15.7848 4.34615 16.1108 4.91412 16.2165C5.19215 16.2663 5.47733 16.2604 5.75307 16.1992C6.02882 16.1379 6.28963 16.0224 6.52037 15.8594C6.757 15.6949 6.95856 15.4849 7.11333 15.2417C7.2681 14.9986 7.373 14.7271 7.42193 14.443ZM8.49849 15.2344L16.8751 12.1962L15.3844 8.12506L9.41412 10.2891L8.65005 14.6579C8.61609 14.854 8.56538 15.0469 8.49849 15.2344ZM16.8751 13.5251L9.35474 16.2501H16.8751V13.5251Z" fill="#191F2E"/>
</svg>
