<svg width="20" height="20" viewBox="0 0 20 20" fill="none" xmlns="http://www.w3.org/2000/svg">
<path d="M1.875 13.125C1.875 12.9592 1.94085 12.8003 2.05806 12.6831C2.17527 12.5658 2.33424 12.5 2.5 12.5C3.62656 12.5 4.23359 12.9047 4.72187 13.2297C5.15625 13.5203 5.50156 13.75 6.25 13.75C6.99844 13.75 7.34375 13.5203 7.77812 13.2297C8.26562 12.9047 8.87187 12.5 9.99922 12.5C11.1266 12.5 11.7336 12.9047 12.2211 13.2297C12.657 13.5203 13.0023 13.75 13.75 13.75C14.4977 13.75 14.8438 13.5203 15.2781 13.2297C15.7664 12.9047 16.3719 12.5 17.5 12.5C17.6658 12.5 17.8247 12.5658 17.9419 12.6831C18.0592 12.8003 18.125 12.9592 18.125 13.125C18.125 13.2908 18.0592 13.4497 17.9419 13.5669C17.8247 13.6842 17.6658 13.75 17.5 13.75C16.7516 13.75 16.4062 13.9797 15.9719 14.2703C15.4836 14.5953 14.8781 15 13.75 15C12.6219 15 12.0156 14.5953 11.5281 14.2703C11.0938 13.9797 10.7477 13.75 10 13.75C9.25234 13.75 8.90625 13.9797 8.47188 14.2703C7.98438 14.5953 7.37813 15 6.25078 15C5.12344 15 4.51719 14.5953 4.02891 14.2703C3.59375 13.9797 3.24844 13.75 2.5 13.75C2.33424 13.75 2.17527 13.6842 2.05806 13.5669C1.94085 13.4497 1.875 13.2908 1.875 13.125ZM17.5 15.625C16.3734 15.625 15.7664 16.0297 15.2781 16.3547C14.8438 16.6453 14.4984 16.875 13.75 16.875C13.0016 16.875 12.6562 16.6453 12.2211 16.3547C11.7336 16.0297 11.1273 15.625 9.99922 15.625C8.87109 15.625 8.26562 16.0297 7.77812 16.3547C7.34375 16.6453 6.99766 16.875 6.25 16.875C5.50234 16.875 5.15625 16.6453 4.72187 16.3547C4.23359 16.0297 3.62656 15.625 2.5 15.625C2.33424 15.625 2.17527 15.6908 2.05806 15.8081C1.94085 15.9253 1.875 16.0842 1.875 16.25C1.875 16.4158 1.94085 16.5747 2.05806 16.6919C2.17527 16.8092 2.33424 16.875 2.5 16.875C3.24844 16.875 3.59375 17.1047 4.02813 17.3953C4.51641 17.7203 5.12188 18.125 6.25 18.125C7.37813 18.125 7.98359 17.7203 8.47109 17.3953C8.90703 17.1047 9.25234 16.875 9.99922 16.875C10.7461 16.875 11.093 17.1047 11.5281 17.3953C12.0156 17.7203 12.6219 18.125 13.75 18.125C14.8781 18.125 15.4836 17.7203 15.9719 17.3953C16.407 17.1047 16.7531 16.875 17.5 16.875C17.6658 16.875 17.8247 16.8092 17.9419 16.6919C18.0592 16.5747 18.125 16.4158 18.125 16.25C18.125 16.0842 18.0592 15.9253 17.9419 15.8081C17.8247 15.6908 17.6658 15.625 17.5 15.625ZM6.25 11.0461V2.5C6.25 2.33424 6.31585 2.17527 6.43306 2.05806C6.55027 1.94085 6.70924 1.875 6.875 1.875C7.04076 1.875 7.19973 1.94085 7.31694 2.05806C7.43415 2.17527 7.5 2.33424 7.5 2.5V3.125H12.5V2.5C12.5 2.33424 12.5658 2.17527 12.6831 2.05806C12.8003 1.94085 12.9592 1.875 13.125 1.875C13.2908 1.875 13.4497 1.94085 13.5669 2.05806C13.6842 2.17527 13.75 2.33424 13.75 2.5V11.1945C13.75 11.3603 13.6842 11.5193 13.5669 11.6365C13.4497 11.7537 13.2908 11.8195 13.125 11.8195C12.9592 11.8195 12.8003 11.7537 12.6831 11.6365C12.5658 11.5193 12.5 11.3603 12.5 11.1945V10.625H7.5V11.0461C7.5 11.2119 7.43415 11.3708 7.31694 11.488C7.19973 11.6052 7.04076 11.6711 6.875 11.6711C6.70924 11.6711 6.55027 11.6052 6.43306 11.488C6.31585 11.3708 6.25 11.2119 6.25 11.0461ZM7.5 5.625C7.5 5.79076 7.56585 5.94973 7.68306 6.06694C7.80027 6.18415 7.95924 6.25 8.125 6.25H11.875C12.0408 6.25 12.1997 6.18415 12.3169 6.06694C12.4342 5.94973 12.5 5.79076 12.5 5.625C12.5 5.45924 12.4342 5.30027 12.3169 5.18306C12.1997 5.06585 12.0408 5 11.875 5H8.125C7.95924 5 7.80027 5.06585 7.68306 5.18306C7.56585 5.30027 7.5 5.45924 7.5 5.625ZM7.5 8.125C7.5 8.29076 7.56585 8.44973 7.68306 8.56694C7.80027 8.68415 7.95924 8.75 8.125 8.75H11.875C12.0408 8.75 12.1997 8.68415 12.3169 8.56694C12.4342 8.44973 12.5 8.29076 12.5 8.125C12.5 7.95924 12.4342 7.80027 12.3169 7.68306C12.1997 7.56585 12.0408 7.5 11.875 7.5H8.125C7.95924 7.5 7.80027 7.56585 7.68306 7.68306C7.56585 7.80027 7.5 7.95924 7.5 8.125Z" fill="#191F2E"/>
</svg>
