<svg width="20" height="20" viewBox="0 0 20 20" fill="none" xmlns="http://www.w3.org/2000/svg">
<path d="M16.875 2.1875H11.875C11.7315 2.18749 11.5898 2.22045 11.461 2.28384C11.3322 2.34723 11.2196 2.43936 11.1321 2.55313L6.34847 8.77187L5.84691 8.27031C5.70181 8.12515 5.52953 8.01 5.33992 7.93144C5.15031 7.85288 4.94707 7.81244 4.74183 7.81244C4.53659 7.81244 4.33335 7.85288 4.14374 7.93144C3.95413 8.01 3.78185 8.12515 3.63675 8.27031L2.33285 9.57422C2.18769 9.71932 2.07254 9.8916 1.99397 10.0812C1.91541 10.2708 1.87498 10.4741 1.87498 10.6793C1.87498 10.8845 1.91541 11.0878 1.99397 11.2774C2.07254 11.467 2.18769 11.6393 2.33285 11.7844L3.51566 12.9688L1.8641 14.6227C1.57117 14.9157 1.40662 15.313 1.40662 15.7273C1.40662 16.1417 1.57117 16.539 1.8641 16.832L3.168 18.1359C3.46101 18.4289 3.85837 18.5934 4.27269 18.5934C4.68701 18.5934 5.08436 18.4289 5.37738 18.1359L7.03128 16.4844L8.21644 17.6688C8.36154 17.8139 8.53382 17.9291 8.72343 18.0076C8.91304 18.0862 9.11627 18.1266 9.32152 18.1266C9.52676 18.1266 9.72999 18.0862 9.91961 18.0076C10.1092 17.9291 10.2815 17.8139 10.4266 17.6688L11.7305 16.3648C11.8758 16.2197 11.991 16.0474 12.0697 15.8577C12.1483 15.668 12.1888 15.4647 12.1888 15.2594C12.1888 15.054 12.1483 14.8507 12.0697 14.661C11.991 14.4713 11.8758 14.299 11.7305 14.1539L11.2289 13.6531L17.4477 8.86953C17.5615 8.78171 17.6536 8.66889 17.7169 8.53979C17.7802 8.41069 17.8129 8.26877 17.8125 8.125V3.125C17.8125 2.87636 17.7138 2.6379 17.5379 2.46209C17.3621 2.28627 17.1237 2.1875 16.875 2.1875ZM4.27269 16.5891L3.41331 15.7297L4.84378 14.2969L5.70316 15.1562L4.27269 16.5891ZM9.32034 16.1203L3.87894 10.6797L4.74222 9.82031L10.1836 15.2617L9.32034 16.1203ZM15.9375 7.66328L9.89144 12.3141L9.45316 11.875L13.1649 8.16406C13.341 7.98794 13.4399 7.74907 13.4399 7.5C13.4399 7.25093 13.341 7.01206 13.1649 6.83594C12.9888 6.65982 12.7499 6.56087 12.5008 6.56087C12.2517 6.56087 12.0129 6.65982 11.8368 6.83594L8.12503 10.5469L7.68519 10.107L12.3368 4.0625H15.9375V7.66328Z" fill="#191F2E"/>
</svg>
