<svg width="20" height="20" viewBox="0 0 20 20" fill="none" xmlns="http://www.w3.org/2000/svg">
<path d="M16.25 4.48281V2.5C16.25 2.33424 16.1842 2.17527 16.0669 2.05806C15.9497 1.94085 15.7908 1.875 15.625 1.875C15.4592 1.875 15.3003 1.94085 15.1831 2.05806C15.0658 2.17527 15 2.33424 15 2.5V4.48281C14.6345 4.61203 14.3181 4.85134 14.0942 5.16781C13.8704 5.48428 13.7501 5.86236 13.75 6.25V9.54766L10.625 7.7625V5.625C10.625 5.45924 10.5592 5.30027 10.4419 5.18306C10.3247 5.06585 10.1658 5 10 5C9.83424 5 9.67527 5.06585 9.55806 5.18306C9.44085 5.30027 9.375 5.45924 9.375 5.625V7.7625L6.25 9.54766V6.25C6.24988 5.86236 6.12962 5.48428 5.90576 5.16781C5.68191 4.85134 5.36547 4.61203 5 4.48281V2.5C5 2.33424 4.93415 2.17527 4.81694 2.05806C4.69973 1.94085 4.54076 1.875 4.375 1.875C4.20924 1.875 4.05027 1.94085 3.93306 2.05806C3.81585 2.17527 3.75 2.33424 3.75 2.5V4.48281C3.38453 4.61203 3.06809 4.85134 2.84424 5.16781C2.62038 5.48428 2.50012 5.86236 2.5 6.25V16.875C2.5 17.0408 2.56585 17.1997 2.68306 17.3169C2.80027 17.4342 2.95924 17.5 3.125 17.5H8.125C8.29076 17.5 8.44973 17.4342 8.56694 17.3169C8.68415 17.1997 8.75 17.0408 8.75 16.875V13.75C8.75 13.4185 8.8817 13.1005 9.11612 12.8661C9.35054 12.6317 9.66848 12.5 10 12.5C10.3315 12.5 10.6495 12.6317 10.8839 12.8661C11.1183 13.1005 11.25 13.4185 11.25 13.75V16.875C11.25 17.0408 11.3158 17.1997 11.4331 17.3169C11.5503 17.4342 11.7092 17.5 11.875 17.5H16.875C17.0408 17.5 17.1997 17.4342 17.3169 17.3169C17.4342 17.1997 17.5 17.0408 17.5 16.875V6.25C17.4999 5.86236 17.3796 5.48428 17.1558 5.16781C16.9319 4.85134 16.6155 4.61203 16.25 4.48281ZM5 16.25H3.75V8.75H5V16.25ZM16.25 16.25H15V8.75H16.25V16.25Z" fill="#191F2E"/>
</svg>
