<svg width="20" height="20" viewBox="0 0 20 20" fill="none" xmlns="http://www.w3.org/2000/svg">
<path d="M16.25 4.48281V2.5C16.25 2.33424 16.1842 2.17527 16.0669 2.05806C15.9497 1.94085 15.7908 1.875 15.625 1.875C15.4592 1.875 15.3003 1.94085 15.1831 2.05806C15.0658 2.17527 15 2.33424 15 2.5V4.48281C14.6345 4.61203 14.3181 4.85134 14.0942 5.16781C13.8704 5.48428 13.7501 5.86236 13.75 6.25V9.54766L10.625 7.7625V5.625C10.625 5.45924 10.5592 5.30027 10.4419 5.18306C10.3247 5.06585 10.1658 5 10 5C9.83424 5 9.67527 5.06585 9.55806 5.18306C9.44085 5.30027 9.375 5.45924 9.375 5.625V7.7625L6.25 9.54766V6.25C6.24988 5.86236 6.12962 5.48428 5.90576 5.16781C5.68191 4.85134 5.36547 4.61203 5 4.48281V2.5C5 2.33424 4.93415 2.17527 4.81694 2.05806C4.69973 1.94085 4.54076 1.875 4.375 1.875C4.20924 1.875 4.05027 1.94085 3.93306 2.05806C3.81585 2.17527 3.75 2.33424 3.75 2.5V4.48281C3.38453 4.61203 3.06809 4.85134 2.84424 5.16781C2.62038 5.48428 2.50012 5.86236 2.5 6.25V16.875C2.5 17.0408 2.56585 17.1997 2.68306 17.3169C2.80027 17.4342 2.95924 17.5 3.125 17.5H8.75C8.91576 17.5 9.07473 17.4342 9.19194 17.3169C9.30915 17.1997 9.375 17.0408 9.375 16.875V13.75C9.375 13.5842 9.44085 13.4253 9.55806 13.3081C9.67527 13.1908 9.83424 13.125 10 13.125C10.1658 13.125 10.3247 13.1908 10.4419 13.3081C10.5592 13.4253 10.625 13.5842 10.625 13.75V16.875C10.625 17.0408 10.6908 17.1997 10.8081 17.3169C10.9253 17.4342 11.0842 17.5 11.25 17.5H16.875C17.0408 17.5 17.1997 17.4342 17.3169 17.3169C17.4342 17.1997 17.5 17.0408 17.5 16.875V6.25C17.4999 5.86236 17.3796 5.48428 17.1558 5.16781C16.9319 4.85134 16.6155 4.61203 16.25 4.48281ZM15.625 5.625C15.7908 5.625 15.9497 5.69085 16.0669 5.80806C16.1842 5.92527 16.25 6.08424 16.25 6.25V8.125H15V6.25C15 6.08424 15.0658 5.92527 15.1831 5.80806C15.3003 5.69085 15.4592 5.625 15.625 5.625ZM4.375 5.625C4.54076 5.625 4.69973 5.69085 4.81694 5.80806C4.93415 5.92527 5 6.08424 5 6.25V8.125H3.75V6.25C3.75 6.08424 3.81585 5.92527 3.93306 5.80806C4.05027 5.69085 4.20924 5.625 4.375 5.625ZM3.75 9.375H5V16.25H3.75V9.375ZM10 11.875C9.50272 11.875 9.02581 12.0725 8.67417 12.4242C8.32254 12.7758 8.125 13.2527 8.125 13.75V16.25H6.25V10.9875L10 8.84453L13.75 10.9875V16.25H11.875V13.75C11.875 13.2527 11.6775 12.7758 11.3258 12.4242C10.9742 12.0725 10.4973 11.875 10 11.875ZM15 16.25V9.375H16.25V16.25H15Z" fill="#191F2E"/>
</svg>
