<svg width="20" height="20" viewBox="0 0 20 20" fill="none" xmlns="http://www.w3.org/2000/svg">
<path d="M18.5672 5.18292L14.8172 1.43292C14.7591 1.37485 14.6902 1.32878 14.6143 1.29736C14.5384 1.26593 14.4571 1.24976 14.375 1.24976C14.2929 1.24976 14.2115 1.26593 14.1357 1.29736C14.0598 1.32878 13.9909 1.37485 13.9328 1.43292C13.8747 1.49098 13.8287 1.55992 13.7972 1.63579C13.7658 1.71166 13.7496 1.79298 13.7496 1.8751C13.7496 1.95723 13.7658 2.03854 13.7972 2.11441C13.8287 2.19028 13.8747 2.25922 13.9328 2.31729L15.3664 3.7501L13.125 5.99151L10.4422 3.30792C10.3249 3.19064 10.1658 3.12476 9.99998 3.12476C9.83413 3.12476 9.67507 3.19064 9.55779 3.30792C9.44052 3.42519 9.37463 3.58425 9.37463 3.7501C9.37463 3.91596 9.44052 4.07502 9.55779 4.19229L10.0539 4.6876L3.49139 11.2501C3.37481 11.3658 3.28238 11.5034 3.21948 11.6551C3.15658 11.8068 3.12446 11.9695 3.12498 12.1337V15.9915L1.43279 17.6829C1.37472 17.741 1.32866 17.8099 1.29724 17.8858C1.26581 17.9617 1.24963 18.043 1.24963 18.1251C1.24963 18.2072 1.26581 18.2885 1.29724 18.3644C1.32866 18.4403 1.37472 18.5092 1.43279 18.5673C1.55007 18.6846 1.70913 18.7505 1.87498 18.7505C1.9571 18.7505 2.03842 18.7343 2.11429 18.7029C2.19016 18.6714 2.2591 18.6254 2.31717 18.5673L4.00858 16.8751H7.86639C8.0306 16.8756 8.19328 16.8435 8.34497 16.7806C8.49666 16.7177 8.63433 16.6253 8.74998 16.5087L15.3125 9.9462L15.8078 10.4423C15.8659 10.5004 15.9348 10.5464 16.0107 10.5778C16.0865 10.6093 16.1679 10.6255 16.25 10.6255C16.3321 10.6255 16.4134 10.6093 16.4893 10.5778C16.5652 10.5464 16.6341 10.5004 16.6922 10.4423C16.7502 10.3842 16.7963 10.3153 16.8277 10.2394C16.8592 10.1635 16.8753 10.0822 16.8753 10.0001C16.8753 9.91798 16.8592 9.83666 16.8277 9.76079C16.7963 9.68492 16.7502 9.61598 16.6922 9.55792L14.0086 6.8751L16.25 4.6337L17.6828 6.06729C17.8001 6.18457 17.9591 6.25045 18.125 6.25045C18.2908 6.25045 18.4499 6.18457 18.5672 6.06729C18.6844 5.95002 18.7503 5.79096 18.7503 5.6251C18.7503 5.45925 18.6844 5.30019 18.5672 5.18292ZM7.86639 15.6251H4.37498V12.1337L5.78123 10.7274L7.37029 12.3173C7.42836 12.3754 7.4973 12.4214 7.57317 12.4528C7.64904 12.4843 7.73036 12.5005 7.81248 12.5005C7.8946 12.5005 7.97592 12.4843 8.05179 12.4528C8.12766 12.4214 8.1966 12.3754 8.25467 12.3173C8.31274 12.2592 8.3588 12.1903 8.39023 12.1144C8.42165 12.0385 8.43783 11.9572 8.43783 11.8751C8.43783 11.793 8.42165 11.7117 8.39023 11.6358C8.3588 11.5599 8.31274 11.491 8.25467 11.4329L6.66482 9.84385L7.65623 8.85245L9.24529 10.4423C9.36257 10.5596 9.52163 10.6255 9.68748 10.6255C9.85333 10.6255 10.0124 10.5596 10.1297 10.4423C10.2469 10.325 10.3128 10.166 10.3128 10.0001C10.3128 9.83425 10.2469 9.67519 10.1297 9.55792L8.53982 7.96885L10.9375 5.5712L14.4289 9.0626L7.86639 15.6251Z" fill="#191F2E"/>
</svg>
