<svg width="20" height="20" viewBox="0 0 20 20" fill="none" xmlns="http://www.w3.org/2000/svg">
<path d="M18.7883 4.96183L15.0383 1.21183C14.8622 1.03571 14.6233 0.936768 14.3742 0.936768C14.1251 0.936768 13.8863 1.03571 13.7101 1.21183C13.534 1.38795 13.4351 1.62682 13.4351 1.87589C13.4351 2.12497 13.534 2.36384 13.7101 2.53996L14.9219 3.75011L13.125 5.54699L10.6633 3.08683C10.5761 2.99963 10.4725 2.93045 10.3586 2.88325C10.2447 2.83606 10.1225 2.81177 9.99921 2.81177C9.87588 2.81177 9.75376 2.83606 9.63982 2.88325C9.52588 2.93045 9.42235 2.99963 9.33515 3.08683C9.24794 3.17404 9.17877 3.27757 9.13157 3.39151C9.08437 3.50545 9.06008 3.62757 9.06008 3.75089C9.06008 3.87422 9.08437 3.99634 9.13157 4.11028C9.17877 4.22422 9.24794 4.32775 9.33515 4.41496L9.60937 4.68761L3.2703 11.029C3.12471 11.1737 3.00928 11.3459 2.9307 11.5355C2.85211 11.7251 2.81193 11.9284 2.81249 12.1337V15.8595L1.21171 17.4618C1.03559 17.638 0.936646 17.8768 0.936646 18.1259C0.936646 18.375 1.03559 18.6138 1.21171 18.79C1.38783 18.9661 1.6267 19.065 1.87577 19.065C2.12484 19.065 2.36371 18.9661 2.53983 18.79L4.14062 17.1876H7.86874C8.074 17.1882 8.27734 17.148 8.46696 17.0694C8.65658 16.9908 8.82873 16.8754 8.97343 16.7298L15.3125 10.3907L15.5867 10.6657C15.7628 10.8419 16.0017 10.9408 16.2508 10.9408C16.4998 10.9408 16.7387 10.8419 16.9148 10.6657C17.091 10.4896 17.1899 10.2507 17.1899 10.0017C17.1899 9.7526 17.091 9.51373 16.9148 9.33761L14.4531 6.87511L16.25 5.07824L17.4617 6.29074C17.6378 6.46686 17.8767 6.5658 18.1258 6.5658C18.3748 6.5658 18.6137 6.46686 18.7898 6.29074C18.966 6.11462 19.0649 5.87575 19.0649 5.62667C19.0649 5.3776 18.966 5.13873 18.7898 4.96261L18.7883 4.96183ZM7.73437 15.3126H4.68749V12.2657L5.78124 11.172L7.14921 12.5407C7.32533 12.7169 7.5642 12.8158 7.81327 12.8158C8.06234 12.8158 8.30121 12.7169 8.47733 12.5407C8.65345 12.3646 8.7524 12.1257 8.7524 11.8767C8.7524 11.6276 8.65345 11.3887 8.47733 11.2126L7.10937 9.84386L7.96874 8.98449L9.33671 10.3532C9.51283 10.5294 9.7517 10.6283 10.0008 10.6283C10.2498 10.6283 10.4887 10.5294 10.6648 10.3532C10.841 10.1771 10.9399 9.93825 10.9399 9.68917C10.9399 9.4401 10.841 9.20123 10.6648 9.02511L9.29687 7.65636L10.9375 6.01574L13.9844 9.06261L7.73437 15.3126Z" fill="#191F2E"/>
</svg>
