<svg width="20" height="20" viewBox="0 0 20 20" fill="none" xmlns="http://www.w3.org/2000/svg">
<path d="M18.5672 6.06245C18.5091 6.12056 18.4402 6.16666 18.3643 6.19811C18.2884 6.22957 18.2071 6.24575 18.125 6.24575C18.0428 6.24575 17.9615 6.22957 17.8856 6.19811C17.8098 6.16666 17.7408 6.12056 17.6828 6.06245L16.25 4.62886L14.0078 6.87495L16.6914 9.55854C16.8087 9.67582 16.8745 9.83488 16.8745 10.0007C16.8745 10.1666 16.8087 10.3256 16.6914 10.4429C16.5741 10.5602 16.415 10.6261 16.2492 10.6261C16.0833 10.6261 15.9243 10.5602 15.807 10.4429L15.3125 9.94292L8.74998 16.5054C8.63385 16.6224 8.49571 16.7153 8.34353 16.7788C8.19135 16.8422 8.02813 16.8749 7.86326 16.8749H4.00466L2.31248 18.5671C2.2517 18.628 2.17902 18.6756 2.09899 18.7071C2.01895 18.7386 1.93328 18.7532 1.84734 18.7501C1.76139 18.7469 1.67702 18.726 1.59951 18.6888C1.52199 18.6515 1.453 18.5987 1.39685 18.5335C1.2946 18.4094 1.24275 18.2513 1.25158 18.0907C1.2604 17.93 1.32927 17.7786 1.44451 17.6664L3.12029 15.9898V12.1312C3.12106 11.8006 3.25281 11.4837 3.48669 11.2499L4.67263 10.064C4.70166 10.035 4.73612 10.0119 4.77406 9.99618C4.81199 9.98045 4.85266 9.97236 4.89373 9.97236C4.93479 9.97236 4.97546 9.98045 5.01339 9.99618C5.05133 10.0119 5.0858 10.035 5.11482 10.064L7.36716 12.3148C7.42523 12.3729 7.49417 12.4189 7.57004 12.4504C7.64591 12.4818 7.72723 12.498 7.80935 12.498C7.89147 12.498 7.97279 12.4818 8.04866 12.4504C8.12453 12.4189 8.19347 12.3729 8.25154 12.3148C8.30961 12.2567 8.35567 12.1878 8.3871 12.1119C8.41852 12.036 8.4347 11.9547 8.4347 11.8726C8.4347 11.7905 8.41852 11.7092 8.3871 11.6333C8.35567 11.5574 8.30961 11.4885 8.25154 11.4304L5.99841 9.17729C5.96936 9.14827 5.94631 9.11381 5.93058 9.07587C5.91486 9.03793 5.90676 8.99727 5.90676 8.9562C5.90676 8.91513 5.91486 8.87447 5.93058 8.83653C5.94631 8.79859 5.96936 8.76413 5.99841 8.73511L6.85779 7.87573C6.88681 7.84668 6.92128 7.82363 6.95921 7.8079C6.99715 7.79217 7.03782 7.78408 7.07888 7.78408C7.11995 7.78408 7.16061 7.79217 7.19855 7.8079C7.23649 7.82363 7.27095 7.84668 7.29998 7.87573L9.5531 10.1289C9.61117 10.1869 9.68011 10.233 9.75598 10.2644C9.83185 10.2958 9.91317 10.312 9.99529 10.312C10.0774 10.312 10.1587 10.2958 10.2346 10.2644C10.3105 10.233 10.3794 10.1869 10.4375 10.1289C10.4955 10.0708 10.5416 10.0018 10.573 9.92598C10.6045 9.85011 10.6206 9.76879 10.6206 9.68667C10.6206 9.60455 10.6045 9.52323 10.573 9.44736C10.5416 9.37149 10.4955 9.30255 10.4375 9.24448L8.1867 6.98901C8.15764 6.95999 8.13459 6.92552 8.11886 6.88759C8.10314 6.84965 8.09504 6.80899 8.09504 6.76792C8.09504 6.72685 8.10314 6.68619 8.11886 6.64825C8.13459 6.61031 8.15764 6.57585 8.1867 6.54682L10.0515 4.68276L9.55544 4.18667C9.49622 4.12746 9.4495 4.05696 9.41805 3.97935C9.38661 3.90174 9.37108 3.81859 9.37239 3.73486C9.3737 3.65113 9.39183 3.56852 9.42569 3.49193C9.45955 3.41534 9.50846 3.34633 9.56951 3.28901C9.69312 3.17877 9.85456 3.12055 10.0201 3.12652C10.1856 3.13248 10.3424 3.20218 10.4578 3.32104L13.125 5.98667L15.3664 3.74448L13.932 2.31089C13.8727 2.25173 13.826 2.18127 13.7944 2.10369C13.7629 2.0261 13.7473 1.94298 13.7486 1.85925C13.7498 1.77552 13.7679 1.69289 13.8017 1.61627C13.8354 1.53965 13.8843 1.4706 13.9453 1.41323C14.069 1.30294 14.2306 1.24469 14.3963 1.25066C14.5619 1.25663 14.7189 1.32635 14.8344 1.44526L18.5672 5.17807C18.6253 5.23612 18.6714 5.30505 18.7028 5.38093C18.7343 5.4568 18.7505 5.53813 18.7505 5.62026C18.7505 5.7024 18.7343 5.78373 18.7028 5.8596C18.6714 5.93547 18.6253 6.0044 18.5672 6.06245Z" fill="#191F2E"/>
</svg>
