<svg width="20" height="20" viewBox="0 0 20 20" fill="none" xmlns="http://www.w3.org/2000/svg">
<path d="M19.343 4.78281L15.2992 2.57812C15.2076 2.52743 15.1047 2.50057 15 2.5H12.5C12.3342 2.5 12.1753 2.56585 12.0581 2.68306C11.9408 2.80027 11.875 2.95924 11.875 3.125C11.875 3.62228 11.6775 4.09919 11.3258 4.45083C10.9742 4.80246 10.4973 5 10 5C9.50272 5 9.0258 4.80246 8.67417 4.45083C8.32254 4.09919 8.125 3.62228 8.125 3.125C8.125 2.95924 8.05915 2.80027 7.94194 2.68306C7.82473 2.56585 7.66576 2.5 7.5 2.5H5C4.89503 2.50043 4.79185 2.5273 4.7 2.57812L0.657031 4.78281C0.368828 4.93512 0.152785 5.1955 0.056273 5.50686C-0.0402391 5.81821 -0.00934293 6.15514 0.142187 6.44375L1.64766 9.31953C1.75712 9.52629 1.9212 9.69906 2.12204 9.81904C2.32288 9.93902 2.55278 10.0016 2.78672 10H4.375V16.25C4.375 16.5815 4.5067 16.8995 4.74112 17.1339C4.97554 17.3683 5.29348 17.5 5.625 17.5H14.375C14.7065 17.5 15.0245 17.3683 15.2589 17.1339C15.4933 16.8995 15.625 16.5815 15.625 16.25V10H17.2141C17.448 10.0016 17.6779 9.93902 17.8787 9.81904C18.0796 9.69906 18.2437 9.52629 18.3531 9.31953L19.8586 6.44375C20.0101 6.15504 20.0408 5.81805 19.9442 5.50668C19.8475 5.19531 19.6313 4.93498 19.343 4.78281ZM2.78672 8.75C2.77517 8.75055 2.76381 8.74694 2.75469 8.73984L1.25703 5.87969L4.375 4.17812V8.75H2.78672ZM14.375 16.25H5.625V3.75H6.9375C7.0817 4.45559 7.46517 5.08972 8.02307 5.54514C8.58097 6.00055 9.27904 6.2493 9.99922 6.2493C10.7194 6.2493 11.4175 6.00055 11.9754 5.54514C12.5333 5.08972 12.9167 4.45559 13.0609 3.75H14.375V16.25ZM17.2461 8.73906C17.2418 8.74296 17.2367 8.74594 17.2312 8.74782C17.2257 8.7497 17.2199 8.75044 17.2141 8.75H15.625V4.17812L18.7437 5.87969L17.2461 8.73906Z" fill="#191F2E"/>
</svg>
