<svg width="20" height="20" viewBox="0 0 20 20" fill="none" xmlns="http://www.w3.org/2000/svg">
<path d="M19.9602 12.8555V12.8508C19.9605 12.8485 19.9605 12.8461 19.9602 12.8438L18.2188 7.05082C18.1236 6.72823 17.9263 6.44526 17.6565 6.24449C17.3867 6.04371 17.059 5.93599 16.7227 5.93754H15.9375C15.6889 5.93754 15.4504 6.03631 15.2746 6.21213C15.0988 6.38794 15 6.6264 15 6.87504C15 7.12368 15.0988 7.36214 15.2746 7.53795C15.4504 7.71377 15.6889 7.81254 15.9375 7.81254H16.4898L17.8023 12.1875H15.3852L13.8438 7.05082C13.7486 6.72823 13.5513 6.44526 13.2815 6.24449C13.0117 6.04371 12.684 5.93599 12.3477 5.93754H11.5625C11.3139 5.93754 11.0754 6.03631 10.8996 6.21213C10.7238 6.38794 10.625 6.6264 10.625 6.87504C10.625 7.12368 10.7238 7.36214 10.8996 7.53795C11.0754 7.71377 11.3139 7.81254 11.5625 7.81254H12.1148L13.4273 12.1875H11.0102L9.46875 7.05082C9.37363 6.72823 9.17632 6.44526 8.90651 6.24449C8.6367 6.04371 8.30898 5.93599 7.97266 5.93754H3.28126C2.94427 5.93514 2.61567 6.04247 2.34506 6.24331C2.07446 6.44415 1.87656 6.72759 1.78126 7.05082L0.042974 12.8438C0.0426081 12.8461 0.0426081 12.8485 0.042974 12.8508V12.8555C0.0378999 12.8714 0.0337266 12.8876 0.030474 12.9039C-0.00291765 13.0415 -0.0047115 13.1849 0.0252271 13.3233C0.0551657 13.4617 0.116059 13.5915 0.203337 13.703C0.290615 13.8144 0.40201 13.9047 0.529163 13.967C0.656315 14.0293 0.795922 14.0619 0.937505 14.0625H19.0625C19.2086 14.0625 19.3528 14.0283 19.4833 13.9627C19.6139 13.897 19.7273 13.8018 19.8145 13.6845C19.9017 13.5672 19.9603 13.4312 19.9856 13.2873C20.0109 13.1433 20.0022 12.9955 19.9602 12.8555ZM3.51016 7.81254H7.73985L9.05235 12.1875H2.19766L3.51016 7.81254Z" fill="#191F2E"/>
</svg>
