<svg width="20" height="20" viewBox="0 0 20 20" fill="none" xmlns="http://www.w3.org/2000/svg">
<path d="M20.0001 13.125C20.0001 13.2908 19.9343 13.4498 19.8171 13.567C19.6999 13.6842 19.5409 13.75 19.3751 13.75H0.62513C0.527704 13.75 0.431633 13.7272 0.344587 13.6835C0.25754 13.6397 0.18193 13.5762 0.12379 13.498C0.0656506 13.4198 0.0265925 13.3291 0.00973366 13.2332C-0.00712515 13.1372 -0.00131773 13.0387 0.0266923 12.9454V12.9414L1.7681 7.14067C1.84431 6.88191 2.00273 6.65502 2.21939 6.49433C2.43604 6.33363 2.69914 6.24788 2.96888 6.25004H9.53919C9.80826 6.24873 10.0705 6.33487 10.2863 6.4955C10.5022 6.65614 10.66 6.88256 10.7361 7.14067L12.3439 12.5H14.7892L13.2892 7.50004H12.5001C12.3344 7.50004 12.1754 7.43419 12.0582 7.31698C11.941 7.19977 11.8751 7.0408 11.8751 6.87504C11.8751 6.70928 11.941 6.55031 12.0582 6.4331C12.1754 6.31589 12.3344 6.25004 12.5001 6.25004H13.2853C13.5544 6.24873 13.8166 6.33487 14.0324 6.4955C14.2483 6.65614 14.4061 6.88256 14.4822 7.14067L16.0939 12.5H18.5392L17.0392 7.50004H16.2501C16.0844 7.50004 15.9254 7.43419 15.8082 7.31698C15.691 7.19977 15.6251 7.0408 15.6251 6.87504C15.6251 6.70928 15.691 6.55031 15.8082 6.4331C15.9254 6.31589 16.0844 6.25004 16.2501 6.25004H17.0353C17.3044 6.24873 17.5666 6.33487 17.7824 6.4955C17.9983 6.65614 18.1561 6.88256 18.2322 7.14067L19.9712 12.9368C19.9716 12.9388 19.9716 12.9409 19.9712 12.943C19.9898 13.0019 19.9995 13.0633 20.0001 13.125Z" fill="#191F2E"/>
</svg>
