<svg width="20" height="20" viewBox="0 0 20 20" fill="none" xmlns="http://www.w3.org/2000/svg">
<path d="M19.9734 12.9454C19.9738 12.9433 19.9738 12.9412 19.9734 12.9391L18.232 7.14067C18.156 6.88256 17.9982 6.65614 17.7823 6.4955C17.5664 6.33487 17.3042 6.24873 17.0352 6.25004H16.25C16.0842 6.25004 15.9253 6.31589 15.8081 6.4331C15.6908 6.55031 15.625 6.70928 15.625 6.87504C15.625 7.0408 15.6908 7.19977 15.8081 7.31698C15.9253 7.43419 16.0842 7.50004 16.25 7.50004H17.0352L18.5352 12.5H16.0938L14.482 7.14067C14.406 6.88256 14.2482 6.65614 14.0323 6.4955C13.8164 6.33487 13.5542 6.24873 13.2852 6.25004H12.5C12.3342 6.25004 12.1753 6.31589 12.0581 6.4331C11.9408 6.55031 11.875 6.70928 11.875 6.87504C11.875 7.0408 11.9408 7.19977 12.0581 7.31698C12.1753 7.43419 12.3342 7.50004 12.5 7.50004H13.2852L14.7852 12.5H12.3438L10.732 7.14067C10.656 6.88256 10.4982 6.65614 10.2823 6.4955C10.0664 6.33487 9.80423 6.24873 9.53516 6.25004H2.96875C2.69901 6.24788 2.43591 6.33363 2.21926 6.49433C2.0026 6.65502 1.84418 6.88191 1.76797 7.14067L0.0289063 12.9375V12.9414C0.0289063 12.9414 0.0289063 12.9454 0.0289063 12.9477C0.0108845 13.0051 0.00115099 13.0649 0 13.125C0 13.2908 0.065848 13.4498 0.183058 13.567C0.300269 13.6842 0.45924 13.75 0.625 13.75H19.375C19.4724 13.75 19.5685 13.7272 19.6555 13.6835C19.7426 13.6397 19.8182 13.5762 19.8763 13.498C19.9345 13.4198 19.9735 13.3291 19.9904 13.2332C20.0073 13.1372 20.0014 13.0387 19.9734 12.9454ZM2.96875 7.50004H9.53906L11.0391 12.5H1.46484L2.96875 7.50004Z" fill="#191F2E"/>
</svg>
