<svg width="20" height="20" viewBox="0 0 20 20" fill="none" xmlns="http://www.w3.org/2000/svg">
<path d="M18.5391 10.6938L15.2062 15.6938C15.0921 15.8649 14.9374 16.0052 14.756 16.1022C14.5747 16.1992 14.3721 16.25 14.1664 16.25H1.87499C1.76097 16.25 1.64912 16.2188 1.55155 16.1598C1.45398 16.1008 1.37442 16.0162 1.32147 15.9152C1.26852 15.8142 1.24421 15.7007 1.25116 15.5869C1.25812 15.4731 1.29608 15.3633 1.36093 15.2695L4.99999 10L1.36093 4.73047C1.29608 4.63668 1.25812 4.52694 1.25116 4.41313C1.24421 4.29932 1.26852 4.18577 1.32147 4.08478C1.37442 3.98379 1.45398 3.89922 1.55155 3.84021C1.64912 3.7812 1.76097 3.75 1.87499 3.75H14.1664C14.3721 3.74999 14.5747 3.80076 14.756 3.89779C14.9374 3.99483 15.0921 4.13513 15.2062 4.30625L18.5391 9.30625C18.6761 9.51166 18.7492 9.75307 18.7492 10C18.7492 10.2469 18.6761 10.4883 18.5391 10.6938Z" fill="#191F2E"/>
</svg>
