<svg width="20" height="20" viewBox="0 0 20 20" fill="none" xmlns="http://www.w3.org/2000/svg">
<path d="M18.5391 9.30625L15.2063 4.30625C15.0921 4.13513 14.9374 3.99483 14.756 3.89779C14.5747 3.80076 14.3721 3.74999 14.1664 3.75H1.875C1.76098 3.75 1.64912 3.7812 1.55156 3.84021C1.45399 3.89922 1.37442 3.98379 1.32148 4.08478C1.26853 4.18577 1.24422 4.29932 1.25117 4.41313C1.25813 4.52694 1.29609 4.63668 1.36094 4.73047L5 10L1.36094 15.2695C1.29609 15.3633 1.25813 15.4731 1.25117 15.5869C1.24422 15.7007 1.26853 15.8142 1.32148 15.9152C1.37442 16.0162 1.45399 16.1008 1.55156 16.1598C1.64912 16.2188 1.76098 16.25 1.875 16.25H14.1664C14.3721 16.25 14.5747 16.1992 14.756 16.1022C14.9374 16.0052 15.0921 15.8649 15.2063 15.6938L18.5391 10.6938C18.6761 10.4883 18.7493 10.2469 18.7493 10C18.7493 9.75307 18.6761 9.51166 18.5391 9.30625ZM14.1641 15H3.06641L6.03516 10.7031L6.04141 10.6953C6.17846 10.4899 6.25159 10.2485 6.25159 10.0016C6.25159 9.75463 6.17846 9.51323 6.04141 9.30781L6.03516 9.3L3.06641 5.00313H14.1664L17.5 10L14.1641 15Z" fill="#191F2E"/>
</svg>
