<svg width="20" height="20" viewBox="0 0 20 20" fill="none" xmlns="http://www.w3.org/2000/svg">
<path d="M17.3336 6.49682C18.2009 8.31073 18.3655 10.3816 17.7958 12.3098C17.226 14.2379 15.9622 15.8867 14.2482 16.9378C12.5343 17.989 10.4918 18.368 8.51483 18.0017C6.53789 17.6355 4.76669 16.5499 3.54307 14.9545C2.31946 13.3592 1.73017 11.3671 1.88894 9.36278C2.04771 7.35848 2.94328 5.48402 4.40282 4.1012C5.86235 2.71837 7.78237 1.92519 9.79233 1.87475C11.8023 1.82432 13.7597 2.52019 15.2867 3.82807L17.0578 2.05619C17.1751 1.93892 17.3342 1.87303 17.5 1.87303C17.6659 1.87303 17.8249 1.93892 17.9422 2.05619C18.0595 2.17347 18.1254 2.33253 18.1254 2.49838C18.1254 2.66423 18.0595 2.82329 17.9422 2.94057L10.4422 10.4406C10.3249 10.5578 10.1659 10.6237 10 10.6237C9.83416 10.6237 9.6751 10.5578 9.55782 10.4406C9.44055 10.3233 9.37466 10.1642 9.37466 9.99838C9.37466 9.83253 9.44055 9.67347 9.55782 9.55619L11.7234 7.39057C11.1365 7.00241 10.4358 6.82369 9.73467 6.88334C9.03355 6.94299 8.37308 7.23752 7.86018 7.71926C7.34727 8.20099 7.01197 8.84173 6.90854 9.53774C6.8051 10.2338 6.9396 10.9443 7.29026 11.5544C7.64091 12.1644 8.18719 12.6383 8.84067 12.8993C9.49415 13.1602 10.2166 13.193 10.891 12.9923C11.5654 12.7915 12.1524 12.3691 12.5568 11.7933C12.9613 11.2175 13.1595 10.522 13.1195 9.81948C13.1149 9.7374 13.1265 9.65522 13.1537 9.57762C13.1808 9.50003 13.223 9.42854 13.2777 9.36724C13.3325 9.30594 13.3988 9.25602 13.4729 9.22035C13.5469 9.18467 13.6273 9.16394 13.7094 9.15932C13.8751 9.15 14.0378 9.2069 14.1616 9.31752C14.2229 9.37229 14.2728 9.4386 14.3085 9.51266C14.3442 9.58672 14.3649 9.66709 14.3695 9.74916C14.4265 10.7435 14.1425 11.7276 13.5645 12.5386C12.9864 13.3497 12.1489 13.9393 11.1904 14.2099C10.2318 14.4805 9.20968 14.4159 8.29281 14.0269C7.37595 13.6379 6.61927 12.9476 6.14783 12.0703C5.6764 11.1929 5.51844 10.181 5.70006 9.20168C5.88167 8.22239 6.39199 7.33438 7.14668 6.68442C7.90136 6.03446 8.85523 5.66146 9.85062 5.62706C10.846 5.59267 11.8234 5.89894 12.6211 6.49526L14.3984 4.71791C13.0959 3.6365 11.4398 3.07445 9.74818 3.13969C8.05652 3.20494 6.44862 3.89288 5.23328 5.0714C4.01794 6.24992 3.28087 7.83591 3.16364 9.52476C3.0464 11.2136 3.55726 12.8862 4.5981 14.2214C5.63894 15.5565 7.13637 16.46 8.80279 16.7584C10.4692 17.0567 12.1871 16.7289 13.6265 15.8378C15.0659 14.9468 16.1254 13.5553 16.6014 11.9307C17.0774 10.3061 16.9364 8.56287 16.2055 7.03588C16.134 6.88628 16.1249 6.71442 16.1801 6.55809C16.2353 6.40176 16.3504 6.27377 16.5 6.20229C16.6496 6.1308 16.8215 6.12168 16.9778 6.17691C17.1341 6.23215 17.2621 6.34722 17.3336 6.49682Z" fill="#191F2E"/>
</svg>
