<svg width="20" height="20" viewBox="0 0 20 20" fill="none" xmlns="http://www.w3.org/2000/svg">
<path d="M18.75 8.75001H17.8625L15.7227 5.00469C15.6133 4.81341 15.4554 4.65443 15.2648 4.54385C15.0742 4.43327 14.8578 4.37502 14.6375 4.37501H12.9234L11.9859 2.03594C11.8939 1.80372 11.7341 1.60456 11.5273 1.46439C11.3205 1.32422 11.0764 1.24952 10.8266 1.25001H9.17344C8.92337 1.24921 8.67885 1.32376 8.47177 1.46395C8.26469 1.60414 8.10465 1.80347 8.0125 2.03594L7.07656 4.37501H5.3625C5.14217 4.37502 4.92577 4.43327 4.7352 4.54385C4.54463 4.65443 4.38668 4.81341 4.27734 5.00469L2.1375 8.75001H1.25C1.08424 8.75001 0.925268 8.81585 0.808058 8.93306C0.690848 9.05028 0.625 9.20925 0.625 9.37501C0.625 9.54077 0.690848 9.69974 0.808058 9.81695C0.925268 9.93416 1.08424 10 1.25 10H1.875V16.25C1.875 16.5815 2.0067 16.8995 2.24112 17.1339C2.47554 17.3683 2.79348 17.5 3.125 17.5H5C5.33152 17.5 5.64946 17.3683 5.88388 17.1339C6.1183 16.8995 6.25 16.5815 6.25 16.25V15H13.75V16.25C13.75 16.5815 13.8817 16.8995 14.1161 17.1339C14.3505 17.3683 14.6685 17.5 15 17.5H16.875C17.2065 17.5 17.5245 17.3683 17.7589 17.1339C17.9933 16.8995 18.125 16.5815 18.125 16.25V10H18.75C18.9158 10 19.0747 9.93416 19.1919 9.81695C19.3092 9.69974 19.375 9.54077 19.375 9.37501C19.375 9.20925 19.3092 9.05028 19.1919 8.93306C19.0747 8.81585 18.9158 8.75001 18.75 8.75001ZM9.17344 2.50001H10.8266L11.5766 4.37501H8.42344L9.17344 2.50001ZM5.3625 5.62501H14.6375L16.4227 8.75001H3.57734L5.3625 5.62501ZM5 16.25H3.125V15H5V16.25ZM15 16.25V15H16.875V16.25H15ZM16.875 13.75H3.125V10H16.875V13.75ZM4.375 11.875C4.375 11.7092 4.44085 11.5503 4.55806 11.4331C4.67527 11.3159 4.83424 11.25 5 11.25H6.25C6.41576 11.25 6.57473 11.3159 6.69194 11.4331C6.80915 11.5503 6.875 11.7092 6.875 11.875C6.875 12.0408 6.80915 12.1997 6.69194 12.3169C6.57473 12.4342 6.41576 12.5 6.25 12.5H5C4.83424 12.5 4.67527 12.4342 4.55806 12.3169C4.44085 12.1997 4.375 12.0408 4.375 11.875ZM13.125 11.875C13.125 11.7092 13.1908 11.5503 13.3081 11.4331C13.4253 11.3159 13.5842 11.25 13.75 11.25H15C15.1658 11.25 15.3247 11.3159 15.4419 11.4331C15.5592 11.5503 15.625 11.7092 15.625 11.875C15.625 12.0408 15.5592 12.1997 15.4419 12.3169C15.3247 12.4342 15.1658 12.5 15 12.5H13.75C13.5842 12.5 13.4253 12.4342 13.3081 12.3169C13.1908 12.1997 13.125 12.0408 13.125 11.875Z" fill="#191F2E"/>
</svg>
