<svg width="20" height="20" viewBox="0 0 20 20" fill="none" xmlns="http://www.w3.org/2000/svg">
<path d="M19.0625 8.74999H18.3242L15.9734 5.09218C15.8322 4.87174 15.6377 4.69047 15.4079 4.56511C15.1781 4.43975 14.9204 4.37437 14.6586 4.37499H13.1344L12.275 2.23203C12.16 1.94186 11.9604 1.69301 11.7021 1.51787C11.4437 1.34272 11.1387 1.24938 10.8266 1.24999H9.17344C8.86093 1.24891 8.55535 1.34203 8.29655 1.51721C8.03776 1.69238 7.83776 1.94149 7.72266 2.23203L6.86562 4.37499H5.34141C5.07952 4.37431 4.82171 4.43975 4.59186 4.56526C4.36201 4.69077 4.16757 4.87228 4.02656 5.09296L1.67578 8.74999H0.9375C0.68886 8.74999 0.450403 8.84877 0.274587 9.02458C0.098772 9.2004 0 9.43885 0 9.68749C0 9.93613 0.098772 10.1746 0.274587 10.3504C0.450403 10.5262 0.68886 10.625 0.9375 10.625H1.25V15.9375C1.25 16.3519 1.41462 16.7493 1.70765 17.0423C2.00067 17.3354 2.3981 17.5 2.8125 17.5H4.6875C5.1019 17.5 5.49933 17.3354 5.79235 17.0423C6.08538 16.7493 6.25 16.3519 6.25 15.9375V14.375H13.75V15.9375C13.75 16.3519 13.9146 16.7493 14.2076 17.0423C14.5007 17.3354 14.8981 17.5 15.3125 17.5H17.1875C17.6019 17.5 17.9993 17.3354 18.2924 17.0423C18.5854 16.7493 18.75 16.3519 18.75 15.9375V10.625H19.0625C19.3111 10.625 19.5496 10.5262 19.7254 10.3504C19.9012 10.1746 20 9.93613 20 9.68749C20 9.43885 19.9012 9.2004 19.7254 9.02458C19.5496 8.84877 19.3111 8.74999 19.0625 8.74999ZM9.38438 3.12499H10.6156L11.1156 4.37499H8.88437L9.38438 3.12499ZM5.51172 6.24999H14.4883L16.0938 8.74999H3.90625L5.51172 6.24999ZM4.375 15.625H3.125V14.375H4.375V15.625ZM15.625 15.625V14.375H16.875V15.625H15.625ZM16.875 12.5H3.125V10.625H16.875V12.5Z" fill="#191F2E"/>
</svg>
