<svg width="20" height="20" viewBox="0 0 20 20" fill="none" xmlns="http://www.w3.org/2000/svg">
<path d="M16.875 4.99998H11.5086L14.1922 2.31717C14.3095 2.19989 14.3753 2.04083 14.3753 1.87498C14.3753 1.70913 14.3095 1.55007 14.1922 1.43279C14.0749 1.31552 13.9159 1.24963 13.75 1.24963C13.5841 1.24963 13.4251 1.31552 13.3078 1.43279L10 4.74139L6.69219 1.43279C6.63412 1.37472 6.56518 1.32866 6.48931 1.29724C6.41344 1.26581 6.33212 1.24963 6.25 1.24963C6.16788 1.24963 6.08656 1.26581 6.01069 1.29724C5.93482 1.32866 5.86588 1.37472 5.80781 1.43279C5.69054 1.55007 5.62465 1.70913 5.62465 1.87498C5.62465 2.04083 5.69054 2.19989 5.80781 2.31717L8.49141 4.99998H3.125C2.79348 4.99998 2.47554 5.13168 2.24112 5.3661C2.0067 5.60052 1.875 5.91846 1.875 6.24998V15.625C1.875 15.9565 2.0067 16.2744 2.24112 16.5089C2.47554 16.7433 2.79348 16.875 3.125 16.875H16.875C17.2065 16.875 17.5245 16.7433 17.7589 16.5089C17.9933 16.2744 18.125 15.9565 18.125 15.625V6.24998C18.125 5.91846 17.9933 5.60052 17.7589 5.3661C17.5245 5.13168 17.2065 4.99998 16.875 4.99998ZM3.125 6.24998H11.25V15.625H3.125V6.24998ZM16.875 15.625H12.5V6.24998H16.875V15.625ZM15.625 9.06248C15.625 9.2479 15.57 9.42916 15.467 9.58333C15.364 9.7375 15.2176 9.85766 15.0463 9.92862C14.875 9.99958 14.6865 10.0181 14.5046 9.98197C14.3227 9.94579 14.1557 9.85651 14.0246 9.72539C13.8935 9.59428 13.8042 9.42724 13.768 9.24538C13.7318 9.06352 13.7504 8.87502 13.8214 8.70372C13.8923 8.53241 14.0125 8.38599 14.1667 8.28298C14.3208 8.17996 14.5021 8.12498 14.6875 8.12498C14.9361 8.12498 15.1746 8.22375 15.3504 8.39957C15.5262 8.57538 15.625 8.81384 15.625 9.06248ZM15.625 12.8125C15.625 12.9979 15.57 13.1792 15.467 13.3333C15.364 13.4875 15.2176 13.6077 15.0463 13.6786C14.875 13.7496 14.6865 13.7681 14.5046 13.732C14.3227 13.6958 14.1557 13.6065 14.0246 13.4754C13.8935 13.3443 13.8042 13.1772 13.768 12.9954C13.7318 12.8135 13.7504 12.625 13.8214 12.4537C13.8923 12.2824 14.0125 12.136 14.1667 12.033C14.3208 11.93 14.5021 11.875 14.6875 11.875C14.9361 11.875 15.1746 11.9738 15.3504 12.1496C15.5262 12.3254 15.625 12.5638 15.625 12.8125Z" fill="#191F2E"/>
</svg>
