<svg width="20" height="20" viewBox="0 0 20 20" fill="none" xmlns="http://www.w3.org/2000/svg">
<path d="M16.875 4.68752H12.2656L14.4156 2.53751C14.5917 2.36139 14.6907 2.12252 14.6907 1.87345C14.6907 1.62438 14.5917 1.38551 14.4156 1.20939C14.2395 1.03327 14.0006 0.934326 13.7516 0.934326C13.5025 0.934326 13.2636 1.03327 13.0875 1.20939L10 4.29689L6.91328 1.21173C6.73716 1.03561 6.49829 0.93667 6.24922 0.93667C6.00015 0.93667 5.76128 1.03561 5.58516 1.21173C5.40904 1.38785 5.31009 1.62672 5.31009 1.8758C5.31009 2.12487 5.40904 2.36374 5.58516 2.53986L7.73438 4.68752H3.125C2.7106 4.68752 2.31317 4.85214 2.02015 5.14516C1.72712 5.43819 1.5625 5.83561 1.5625 6.25002V15.625C1.5625 16.0394 1.72712 16.4368 2.02015 16.7299C2.31317 17.0229 2.7106 17.1875 3.125 17.1875H16.875C17.2894 17.1875 17.6868 17.0229 17.9799 16.7299C18.2729 16.4368 18.4375 16.0394 18.4375 15.625V6.25002C18.4375 5.83561 18.2729 5.43819 17.9799 5.14516C17.6868 4.85214 17.2894 4.68752 16.875 4.68752ZM16.5625 15.3125H3.4375V6.56252H16.5625V15.3125Z" fill="#191F2E"/>
</svg>
