<svg width="20" height="20" viewBox="0 0 20 20" fill="none" xmlns="http://www.w3.org/2000/svg">
<path d="M16.875 4.68752H12.2656L14.4156 2.53751C14.5917 2.36139 14.6907 2.12252 14.6907 1.87345C14.6907 1.62438 14.5917 1.38551 14.4156 1.20939C14.2395 1.03327 14.0006 0.934326 13.7516 0.934326C13.5025 0.934326 13.2636 1.03327 13.0875 1.20939L10 4.29689L6.91328 1.21173C6.73716 1.03561 6.49829 0.93667 6.24922 0.93667C6.00015 0.93667 5.76128 1.03561 5.58516 1.21173C5.40904 1.38785 5.31009 1.62672 5.31009 1.8758C5.31009 2.12487 5.40904 2.36374 5.58516 2.53986L7.73438 4.68752H3.125C2.7106 4.68752 2.31317 4.85214 2.02015 5.14516C1.72712 5.43819 1.5625 5.83561 1.5625 6.25002V15.625C1.5625 16.0394 1.72712 16.4368 2.02015 16.7299C2.31317 17.0229 2.7106 17.1875 3.125 17.1875H16.875C17.2894 17.1875 17.6868 17.0229 17.9799 16.7299C18.2729 16.4368 18.4375 16.0394 18.4375 15.625V6.25002C18.4375 5.83561 18.2729 5.43819 17.9799 5.14516C17.6868 4.85214 17.2894 4.68752 16.875 4.68752ZM3.4375 6.56252H10V15.3125H3.4375V6.56252ZM16.5625 15.3125H11.875V6.56252H16.5625V15.3125ZM13.125 9.06252C13.125 8.81529 13.1983 8.57361 13.3357 8.36805C13.473 8.16249 13.6682 8.00227 13.8966 7.90767C14.1251 7.81306 14.3764 7.7883 14.6189 7.83653C14.8613 7.88476 15.0841 8.00382 15.2589 8.17863C15.4337 8.35345 15.5528 8.57618 15.601 8.81865C15.6492 9.06113 15.6245 9.31246 15.5299 9.54087C15.4352 9.76928 15.275 9.9645 15.0695 10.1019C14.8639 10.2392 14.6222 10.3125 14.375 10.3125C14.0435 10.3125 13.7255 10.1808 13.4911 9.9464C13.2567 9.71198 13.125 9.39404 13.125 9.06252ZM15.625 12.8125C15.625 13.0597 15.5517 13.3014 15.4143 13.507C15.277 13.7125 15.0818 13.8728 14.8534 13.9674C14.6249 14.062 14.3736 14.0867 14.1311 14.0385C13.8887 13.9903 13.6659 13.8712 13.4911 13.6964C13.3163 13.5216 13.1972 13.2989 13.149 13.0564C13.1008 12.8139 13.1255 12.5626 13.2201 12.3342C13.3148 12.1058 13.475 11.9105 13.6805 11.7732C13.8861 11.6358 14.1278 11.5625 14.375 11.5625C14.7065 11.5625 15.0245 11.6942 15.2589 11.9286C15.4933 12.1631 15.625 12.481 15.625 12.8125Z" fill="#191F2E"/>
</svg>
