<svg width="20" height="20" viewBox="0 0 20 20" fill="none" xmlns="http://www.w3.org/2000/svg">
<path d="M18.125 6.24998V15.625C18.125 15.9565 17.9933 16.2744 17.7589 16.5089C17.5245 16.7433 17.2065 16.875 16.875 16.875H3.125C2.79348 16.875 2.47554 16.7433 2.24112 16.5089C2.0067 16.2744 1.875 15.9565 1.875 15.625V6.24998C1.875 5.91846 2.0067 5.60052 2.24112 5.3661C2.47554 5.13168 2.79348 4.99998 3.125 4.99998H8.49141L5.80781 2.31717C5.69054 2.19989 5.62465 2.04083 5.62465 1.87498C5.62465 1.79286 5.64083 1.71154 5.67225 1.63567C5.70368 1.5598 5.74974 1.49086 5.80781 1.43279C5.86588 1.37472 5.93482 1.32866 6.01069 1.29724C6.08656 1.26581 6.16788 1.24963 6.25 1.24963C6.41585 1.24963 6.57491 1.31552 6.69219 1.43279L10 4.74139L13.3078 1.43279C13.4251 1.31552 13.5841 1.24963 13.75 1.24963C13.9159 1.24963 14.0749 1.31552 14.1922 1.43279C14.3095 1.55007 14.3753 1.70913 14.3753 1.87498C14.3753 2.04083 14.3095 2.19989 14.1922 2.31717L11.5086 4.99998H16.875C17.2065 4.99998 17.5245 5.13168 17.7589 5.3661C17.9933 5.60052 18.125 5.91846 18.125 6.24998Z" fill="#191F2E"/>
</svg>
