<svg width="20" height="20" viewBox="0 0 20 20" fill="none" xmlns="http://www.w3.org/2000/svg">
<path d="M18.7102 1.80935C18.5702 1.68869 18.4 1.60848 18.2179 1.57737C18.0358 1.54626 17.8486 1.56542 17.6766 1.63279L1.84375 7.82888C1.55638 7.9408 1.31313 8.14303 1.1506 8.40512C0.988076 8.66721 0.915067 8.975 0.942558 9.28217C0.97005 9.58933 1.09656 9.87926 1.30304 10.1083C1.50953 10.3374 1.78482 10.4932 2.0875 10.5523L5.9375 11.3078V15.625C5.93749 15.9365 6.03058 16.2408 6.20481 16.499C6.37905 16.7572 6.62648 16.9575 6.91534 17.074C7.2042 17.1906 7.5213 17.2181 7.82594 17.1531C8.13057 17.0882 8.40883 16.9336 8.625 16.7094L10.3961 14.8726L13.3086 17.4219C13.5118 17.6005 13.7578 17.7234 14.0227 17.7784C14.2876 17.8334 14.5623 17.8187 14.8198 17.7357C15.0773 17.6527 15.3089 17.5042 15.4918 17.3049C15.6747 17.1055 15.8027 16.8621 15.8633 16.5984L19.0367 2.80545C19.078 2.62541 19.0694 2.43753 19.0119 2.26201C18.9543 2.0865 18.85 1.93 18.7102 1.80935ZM11.5164 6.05623L6.65781 9.53826L3.96796 9.01091L11.5164 6.05623ZM7.8125 14.8484V12.6054L8.98437 13.6328L7.8125 14.8484ZM14.1531 15.6703L8.38125 10.6101L16.6867 4.65857L14.1531 15.6703Z" fill="#191F2E"/>
</svg>
