<svg width="20" height="20" viewBox="0 0 20 20" fill="none" xmlns="http://www.w3.org/2000/svg">
<path d="M1.93833 9.01638C2.15651 7.21452 2.9723 5.53777 4.25536 4.254C5.53842 2.97024 7.21472 2.15353 9.01646 1.93435C9.05912 1.92926 9.10238 1.93302 9.14352 1.9454C9.18467 1.95778 9.22282 1.97851 9.25559 2.00629C9.28837 2.03408 9.31506 2.06833 9.334 2.1069C9.35294 2.14546 9.36372 2.18752 9.36568 2.23045C9.40432 3.17738 9.24636 4.12206 8.90175 5.00491C8.55715 5.88776 8.03337 6.68965 7.36345 7.36001C6.69353 8.03037 5.89199 8.55467 5.00936 8.89986C4.12674 9.24504 3.18217 9.40362 2.23521 9.3656C2.19222 9.36375 2.15007 9.35305 2.11141 9.33415C2.07275 9.31526 2.03841 9.28858 2.01054 9.2558C1.98267 9.22301 1.96187 9.18482 1.94944 9.14363C1.93702 9.10243 1.93324 9.05911 1.93833 9.01638ZM17.7618 10.6336C17.6743 10.6336 17.5876 10.6281 17.5001 10.6281C16.5746 10.6269 15.6585 10.8129 14.8069 11.1749C13.9552 11.5369 13.1855 12.0674 12.5442 12.7345C11.9028 13.4017 11.403 14.1916 11.0748 15.0569C10.7466 15.9221 10.5968 16.8449 10.6344 17.7695C10.6364 17.8124 10.6472 17.8545 10.6661 17.8931C10.685 17.9316 10.7117 17.9659 10.7445 17.9937C10.7773 18.0214 10.8154 18.0422 10.8566 18.0546C10.8977 18.0669 10.941 18.0707 10.9836 18.0656C12.7855 17.8464 14.4619 17.0296 15.745 15.7456C17.028 14.4617 17.8438 12.7848 18.0618 10.9828C18.0669 10.9398 18.063 10.8962 18.0504 10.8548C18.0378 10.8134 18.0167 10.7751 17.9885 10.7423C17.9603 10.7094 17.9256 10.6828 17.8865 10.6641C17.8475 10.6454 17.805 10.635 17.7618 10.6336ZM11.7547 11.7547C12.5075 10.9979 13.4029 10.3979 14.3891 9.9894C15.3752 9.58093 16.4326 9.37209 17.5001 9.37498C17.5782 9.37498 17.661 9.37498 17.7415 9.37498C17.7863 9.37659 17.8309 9.36853 17.8723 9.35137C17.9137 9.3342 17.951 9.30833 17.9815 9.2755C18.012 9.24267 18.0351 9.20365 18.0493 9.1611C18.0634 9.11855 18.0682 9.07345 18.0633 9.02888C17.8479 7.22042 17.0307 5.53692 15.7429 4.24903C14.4552 2.96115 12.7718 2.1437 10.9633 1.9281C10.9188 1.92325 10.8737 1.92805 10.8311 1.94217C10.7886 1.95629 10.7495 1.9794 10.7167 2.00994C10.6839 2.04047 10.658 2.07771 10.6408 2.11913C10.6237 2.16055 10.6156 2.20517 10.6172 2.24998C10.6528 3.3579 10.4606 4.46133 10.0526 5.49201C9.64466 6.52269 9.02955 7.45871 8.24536 8.24216C7.49286 8.99953 6.5976 9.6001 5.61141 10.0091C4.62522 10.4181 3.56769 10.6275 2.50005 10.625C2.42193 10.625 2.33911 10.625 2.25864 10.625C2.21384 10.6234 2.16921 10.6314 2.12779 10.6486C2.08638 10.6658 2.04914 10.6916 2.0186 10.7245C1.98807 10.7573 1.96496 10.7963 1.95084 10.8389C1.93672 10.8814 1.93192 10.9265 1.93677 10.9711C2.15217 12.7795 2.96943 14.463 4.25718 15.7509C5.54492 17.0388 7.22833 17.8563 9.03677 18.0719C9.08134 18.0767 9.12643 18.0719 9.16898 18.0578C9.21154 18.0437 9.25055 18.0205 9.28338 17.99C9.31621 17.9595 9.34209 17.9222 9.35925 17.8808C9.37642 17.8394 9.38447 17.7948 9.38286 17.75C9.3469 16.6415 9.53886 15.5375 9.94684 14.5063C10.3548 13.475 10.9702 12.5385 11.7547 11.7547Z" fill="#191F2E"/>
</svg>
