<svg width="20" height="20" viewBox="0 0 20 20" fill="none" xmlns="http://www.w3.org/2000/svg">
<path d="M19.922 15.2445L14.922 3.99453C14.8482 3.82835 14.7277 3.68721 14.5751 3.58831C14.4225 3.4894 14.2444 3.43701 14.0626 3.4375H5.93761C5.75973 3.43769 5.58558 3.48847 5.43549 3.58392C5.28539 3.67937 5.16555 3.81555 5.08995 3.97657C5.08651 3.98238 5.08338 3.98838 5.08058 3.99453L5.07823 4.00782L0.078235 15.2445C0.0147671 15.3875 -0.0119371 15.544 0.00055412 15.6999C0.0130453 15.8558 0.064335 16.0061 0.149753 16.1371C0.23517 16.2681 0.352002 16.3756 0.489608 16.4499C0.627214 16.5242 0.781223 16.5629 0.93761 16.5625H19.0626C19.219 16.5629 19.373 16.5242 19.5106 16.4499C19.6482 16.3756 19.765 16.2681 19.8505 16.1371C19.9359 16.0061 19.9872 15.8558 19.9997 15.6999C20.0122 15.544 19.9855 15.3875 19.922 15.2445ZM5.00011 8.79297V14.6875H2.3798L5.00011 8.79297ZM6.87511 14.6875V8.79297L9.49542 14.6875H6.87511ZM11.547 14.6875L7.38058 5.3125H13.4532L17.6204 14.6875H11.547Z" fill="#191F2E"/>
</svg>
