<svg width="20" height="20" viewBox="0 0 20 20" fill="none" xmlns="http://www.w3.org/2000/svg">
<path d="M19.9461 15.3711L14.9461 4.12109C14.897 4.01064 14.8169 3.91679 14.7155 3.85092C14.6142 3.78506 14.4959 3.75 14.375 3.75H5.62499C5.50411 3.75 5.38582 3.78506 5.28446 3.85092C5.18309 3.91679 5.10301 4.01064 5.0539 4.12109V4.13047L0.0538989 15.3711C0.011593 15.4663 -0.00626539 15.5705 0.00194631 15.6743C0.010158 15.7781 0.0441795 15.8782 0.10092 15.9655C0.15766 16.0529 0.23532 16.1246 0.326844 16.1743C0.418368 16.224 0.520855 16.25 0.624993 16.25H19.375C19.4791 16.25 19.5816 16.224 19.6731 16.1743C19.7647 16.1246 19.8423 16.0529 19.8991 15.9655C19.9558 15.8782 19.9898 15.7781 19.998 15.6743C20.0062 15.5705 19.9884 15.4663 19.9461 15.3711ZM4.99999 15H1.58671L4.99999 7.32031V15ZM6.24999 15V7.32031L9.66327 15H6.24999Z" fill="#191F2E"/>
</svg>
