<svg width="20" height="20" viewBox="0 0 20 20" fill="none" xmlns="http://www.w3.org/2000/svg">
<path d="M16.875 3.125H3.125C2.79348 3.125 2.47554 3.2567 2.24112 3.49112C2.0067 3.72554 1.875 4.04348 1.875 4.375V15.625C1.875 15.9565 2.0067 16.2745 2.24112 16.5089C2.47554 16.7433 2.79348 16.875 3.125 16.875H16.875C17.2065 16.875 17.5245 16.7433 17.7589 16.5089C17.9933 16.2745 18.125 15.9565 18.125 15.625V4.375C18.125 4.04348 17.9933 3.72554 17.7589 3.49112C17.5245 3.2567 17.2065 3.125 16.875 3.125ZM9.76562 10.4883L6.64062 12.9883C6.5765 13.0396 6.5029 13.0777 6.42403 13.1006C6.34516 13.1235 6.26256 13.1305 6.18095 13.1215C6.09933 13.1124 6.0203 13.0874 5.94837 13.0477C5.87644 13.0081 5.81302 12.9547 5.76172 12.8906C5.71042 12.8265 5.67226 12.7529 5.6494 12.674C5.62655 12.5952 5.61945 12.5126 5.62852 12.4309C5.63759 12.3493 5.66264 12.2703 5.70225 12.1984C5.74186 12.1264 5.79525 12.063 5.85938 12.0117L8.37422 10L5.85938 7.98828C5.79525 7.93698 5.74186 7.87356 5.70225 7.80163C5.66264 7.7297 5.63759 7.65067 5.62852 7.56905C5.61945 7.48744 5.62655 7.40484 5.6494 7.32597C5.67226 7.2471 5.71042 7.1735 5.76172 7.10938C5.81302 7.04525 5.87644 6.99186 5.94837 6.95225C6.0203 6.91264 6.09933 6.88759 6.18095 6.87852C6.26256 6.86945 6.34516 6.87655 6.42403 6.8994C6.5029 6.92226 6.5765 6.96042 6.64062 7.01172L9.76562 9.51172C9.8389 9.57027 9.89806 9.64456 9.93872 9.72908C9.97938 9.81361 10.0005 9.9062 10.0005 10C10.0005 10.0938 9.97938 10.1864 9.93872 10.2709C9.89806 10.3554 9.8389 10.4297 9.76562 10.4883ZM13.75 13.125H10.625C10.4592 13.125 10.3003 13.0592 10.1831 12.9419C10.0658 12.8247 10 12.6658 10 12.5C10 12.3342 10.0658 12.1753 10.1831 12.0581C10.3003 11.9408 10.4592 11.875 10.625 11.875H13.75C13.9158 11.875 14.0747 11.9408 14.1919 12.0581C14.3092 12.1753 14.375 12.3342 14.375 12.5C14.375 12.6658 14.3092 12.8247 14.1919 12.9419C14.0747 13.0592 13.9158 13.125 13.75 13.125Z" fill="#191F2E"/>
</svg>
