<svg width="20" height="20" viewBox="0 0 20 20" fill="none" xmlns="http://www.w3.org/2000/svg">
<path d="M16.875 3.125H3.125C2.79348 3.125 2.47554 3.2567 2.24112 3.49112C2.0067 3.72554 1.875 4.04348 1.875 4.375V15.625C1.875 15.9565 2.0067 16.2745 2.24112 16.5089C2.47554 16.7433 2.79348 16.875 3.125 16.875H16.875C17.2065 16.875 17.5245 16.7433 17.7589 16.5089C17.9933 16.2745 18.125 15.9565 18.125 15.625V4.375C18.125 4.04348 17.9933 3.72554 17.7589 3.49112C17.5245 3.2567 17.2065 3.125 16.875 3.125ZM6.06719 13.5672C5.94991 13.6845 5.79085 13.7503 5.625 13.7503C5.45915 13.7503 5.30009 13.6845 5.18281 13.5672C5.06554 13.4499 4.99965 13.2909 4.99965 13.125C4.99965 12.9591 5.06554 12.8001 5.18281 12.6828L7.86641 10L5.18281 7.31719C5.06554 7.19991 4.99965 7.04085 4.99965 6.875C4.99965 6.70915 5.06554 6.55009 5.18281 6.43281C5.30009 6.31554 5.45915 6.24965 5.625 6.24965C5.79085 6.24965 5.94991 6.31554 6.06719 6.43281L9.19219 9.55781C9.2503 9.61586 9.2964 9.68479 9.32785 9.76066C9.3593 9.83654 9.37549 9.91787 9.37549 10C9.37549 10.0821 9.3593 10.1635 9.32785 10.2393C9.2964 10.3152 9.2503 10.3841 9.19219 10.4422L6.06719 13.5672ZM15 13.75H10C9.83424 13.75 9.67527 13.6842 9.55806 13.5669C9.44085 13.4497 9.375 13.2908 9.375 13.125C9.375 12.9592 9.44085 12.8003 9.55806 12.6831C9.67527 12.5658 9.83424 12.5 10 12.5H15C15.1658 12.5 15.3247 12.5658 15.4419 12.6831C15.5592 12.8003 15.625 12.9592 15.625 13.125C15.625 13.2908 15.5592 13.4497 15.4419 13.5669C15.3247 13.6842 15.1658 13.75 15 13.75Z" fill="#191F2E"/>
</svg>
