<svg width="20" height="20" viewBox="0 0 20 20" fill="none" xmlns="http://www.w3.org/2000/svg">
<path d="M5.66406 11.768L7.87422 10L5.66406 8.23203C5.56793 8.15509 5.4879 8.05996 5.42853 7.95208C5.36916 7.8442 5.33162 7.72569 5.31806 7.6033C5.30449 7.48092 5.31516 7.35706 5.34946 7.2388C5.38376 7.12054 5.44102 7.01019 5.51797 6.91406C5.59491 6.81793 5.69004 6.7379 5.79792 6.67853C5.9058 6.61916 6.02431 6.58162 6.1467 6.56806C6.26908 6.55449 6.39294 6.56516 6.5112 6.59946C6.62946 6.63376 6.73981 6.69102 6.83594 6.76797L9.96094 9.26797C10.0707 9.3558 10.1593 9.4672 10.2202 9.59391C10.2811 9.72062 10.3127 9.85941 10.3127 10C10.3127 10.1406 10.2811 10.2794 10.2202 10.4061C10.1593 10.5328 10.0707 10.6442 9.96094 10.732L6.83594 13.232C6.64179 13.3874 6.39386 13.4593 6.1467 13.4319C5.89953 13.4045 5.67337 13.2801 5.51797 13.0859C5.36257 12.8918 5.29066 12.6439 5.31806 12.3967C5.34545 12.1495 5.46992 11.9234 5.66406 11.768ZM11.25 13.4375H13.75C13.9986 13.4375 14.2371 13.3387 14.4129 13.1629C14.5887 12.9871 14.6875 12.7486 14.6875 12.5C14.6875 12.2514 14.5887 12.0129 14.4129 11.8371C14.2371 11.6613 13.9986 11.5625 13.75 11.5625H11.25C11.0014 11.5625 10.7629 11.6613 10.5871 11.8371C10.4113 12.0129 10.3125 12.2514 10.3125 12.5C10.3125 12.7486 10.4113 12.9871 10.5871 13.1629C10.7629 13.3387 11.0014 13.4375 11.25 13.4375ZM18.4375 4.375V15.625C18.4375 16.0394 18.2729 16.4368 17.9799 16.7299C17.6868 17.0229 17.2894 17.1875 16.875 17.1875H3.125C2.7106 17.1875 2.31317 17.0229 2.02015 16.7299C1.72712 16.4368 1.5625 16.0394 1.5625 15.625V4.375C1.5625 3.9606 1.72712 3.56317 2.02015 3.27015C2.31317 2.97712 2.7106 2.8125 3.125 2.8125H16.875C17.2894 2.8125 17.6868 2.97712 17.9799 3.27015C18.2729 3.56317 18.4375 3.9606 18.4375 4.375ZM16.5625 4.6875H3.4375V15.3125H16.5625V4.6875Z" fill="#191F2E"/>
</svg>
