<svg width="20" height="20" viewBox="0 0 20 20" fill="none" xmlns="http://www.w3.org/2000/svg">
<path d="M9.37508 10.7032L3.75008 15.7032C3.5636 15.869 3.31891 15.9539 3.06983 15.9392C2.82076 15.9246 2.58771 15.8116 2.42195 15.6251C2.25619 15.4386 2.1713 15.1939 2.18595 14.9448C2.2006 14.6958 2.3136 14.4627 2.50008 14.297L7.3368 10.0001L2.50008 5.7032C2.3136 5.53744 2.2006 5.30439 2.18595 5.05532C2.1713 4.80625 2.25619 4.56156 2.42195 4.37508C2.58771 4.1886 2.82076 4.0756 3.06983 4.06095C3.31891 4.0463 3.5636 4.13119 3.75008 4.29695L9.37508 9.29695C9.47483 9.38493 9.55473 9.49313 9.60945 9.61435C9.66418 9.73558 9.69248 9.86707 9.69248 10.0001C9.69248 10.1331 9.66418 10.2646 9.60945 10.3858C9.55473 10.507 9.47483 10.6152 9.37508 10.7032ZM16.8751 14.0626H9.37508C9.12644 14.0626 8.88798 14.1613 8.71216 14.3372C8.53635 14.513 8.43758 14.7514 8.43758 15.0001C8.43758 15.2487 8.53635 15.4872 8.71216 15.663C8.88798 15.8388 9.12644 15.9376 9.37508 15.9376H16.8751C17.1237 15.9376 17.3622 15.8388 17.538 15.663C17.7138 15.4872 17.8126 15.2487 17.8126 15.0001C17.8126 14.7514 17.7138 14.513 17.538 14.3372C17.3622 14.1613 17.1237 14.0626 16.8751 14.0626Z" fill="#191F2E"/>
</svg>
