<svg width="20" height="20" viewBox="0 0 20 20" fill="none" xmlns="http://www.w3.org/2000/svg">
<path d="M9.16474 10.4687L3.53974 15.4687C3.47818 15.5233 3.40649 15.5651 3.32875 15.592C3.25101 15.6188 3.16875 15.63 3.08667 15.6251C3.00458 15.6201 2.92428 15.599 2.85034 15.563C2.77641 15.527 2.71029 15.4768 2.65576 15.4152C2.60123 15.3537 2.55936 15.282 2.53253 15.2042C2.50571 15.1265 2.49447 15.0442 2.49944 14.9622C2.5044 14.8801 2.52549 14.7998 2.5615 14.7258C2.5975 14.6519 2.64772 14.5858 2.70927 14.5312L7.8124 10L2.71005 5.46874C2.6485 5.41422 2.59828 5.3481 2.56228 5.27416C2.52627 5.20022 2.50519 5.11992 2.50022 5.03784C2.49525 4.95575 2.50649 4.87349 2.53332 4.79575C2.56014 4.71801 2.60201 4.64632 2.65654 4.58476C2.71107 4.5232 2.77719 4.47299 2.85112 4.43699C2.92506 4.40098 3.00536 4.37989 3.08745 4.37492C3.16953 4.36995 3.25179 4.3812 3.32953 4.40802C3.40727 4.43484 3.47897 4.47672 3.54052 4.53124L9.16552 9.53125C9.23203 9.5899 9.28529 9.66203 9.32177 9.74285C9.35826 9.82367 9.37712 9.91132 9.37712 10C9.37712 10.0887 9.35826 10.1763 9.32177 10.2571C9.28529 10.338 9.23203 10.4101 9.16552 10.4687H9.16474ZM16.8749 14.375H9.3749C9.20914 14.375 9.05017 14.4408 8.93296 14.5581C8.81575 14.6753 8.7499 14.8342 8.7499 15C8.7499 15.1658 8.81575 15.3247 8.93296 15.4419C9.05017 15.5591 9.20914 15.625 9.3749 15.625H16.8749C17.0407 15.625 17.1996 15.5591 17.3168 15.4419C17.4341 15.3247 17.4999 15.1658 17.4999 15C17.4999 14.8342 17.4341 14.6753 17.3168 14.5581C17.1996 14.4408 17.0407 14.375 16.8749 14.375Z" fill="#191F2E"/>
</svg>
