<svg width="20" height="20" viewBox="0 0 20 20" fill="none" xmlns="http://www.w3.org/2000/svg">
<path d="M16.25 2.5H3.75C3.41848 2.5 3.10054 2.6317 2.86612 2.86612C2.6317 3.10054 2.5 3.41848 2.5 3.75V16.25C2.5 16.5815 2.6317 16.8995 2.86612 17.1339C3.10054 17.3683 3.41848 17.5 3.75 17.5H16.25C16.5815 17.5 16.8995 17.3683 17.1339 17.1339C17.3683 16.8995 17.5 16.5815 17.5 16.25V3.75C17.5 3.41848 17.3683 3.10054 17.1339 2.86612C16.8995 2.6317 16.5815 2.5 16.25 2.5ZM10 12.5C10 12.6658 9.93415 12.8247 9.81694 12.9419C9.69973 13.0592 9.54076 13.125 9.375 13.125C9.20924 13.125 9.05027 13.0592 8.93306 12.9419C8.81585 12.8247 8.75 12.6658 8.75 12.5V10H5.625V12.5C5.625 12.6658 5.55915 12.8247 5.44194 12.9419C5.32473 13.0592 5.16576 13.125 5 13.125C4.83424 13.125 4.67527 13.0592 4.55806 12.9419C4.44085 12.8247 4.375 12.6658 4.375 12.5V6.25C4.375 6.08424 4.44085 5.92527 4.55806 5.80806C4.67527 5.69085 4.83424 5.625 5 5.625C5.16576 5.625 5.32473 5.69085 5.44194 5.80806C5.55915 5.92527 5.625 6.08424 5.625 6.25V8.75H8.75V6.25C8.75 6.08424 8.81585 5.92527 8.93306 5.80806C9.05027 5.69085 9.20924 5.625 9.375 5.625C9.54076 5.625 9.69973 5.69085 9.81694 5.80806C9.93415 5.92527 10 6.08424 10 6.25V12.5ZM15 14.375H11.875C11.7589 14.375 11.6452 14.3427 11.5464 14.2817C11.4477 14.2206 11.3679 14.1333 11.316 14.0295C11.2641 13.9257 11.2421 13.8095 11.2525 13.6939C11.2629 13.5783 11.3054 13.4679 11.375 13.375L14.1875 9.625C14.2643 9.52698 14.3208 9.41464 14.3538 9.29454C14.3867 9.17444 14.3953 9.04898 14.3792 8.9255C14.3631 8.80201 14.3226 8.68297 14.26 8.57533C14.1974 8.46768 14.1139 8.37359 14.0145 8.29855C13.9152 8.22351 13.8018 8.16901 13.6811 8.13826C13.5605 8.1075 13.4349 8.1011 13.3117 8.11941C13.1885 8.13773 13.0702 8.18041 12.9637 8.24495C12.8572 8.30949 12.7647 8.3946 12.6914 8.49531C12.5985 8.60498 12.5298 8.73304 12.4898 8.87109C12.4742 8.9522 12.4427 9.02941 12.3971 9.09826C12.3514 9.16711 12.2926 9.22622 12.224 9.2722C12.1554 9.31817 12.0783 9.35008 11.9973 9.3661C11.9162 9.38211 11.8328 9.3819 11.7519 9.36548C11.6709 9.34907 11.594 9.31677 11.5257 9.27045C11.4573 9.22413 11.3987 9.16472 11.3534 9.09565C11.3082 9.02657 11.277 8.94921 11.2618 8.86802C11.2466 8.78683 11.2476 8.70344 11.2648 8.62266C11.3306 8.29955 11.4681 7.99535 11.6673 7.73254C11.8664 7.46972 12.122 7.25501 12.4153 7.10426C12.7085 6.95352 13.0319 6.87059 13.3615 6.86161C13.6911 6.85264 14.0185 6.91784 14.3195 7.0524C14.6206 7.18696 14.8875 7.38744 15.1006 7.63903C15.3138 7.89062 15.4676 8.18688 15.5509 8.50593C15.6341 8.82497 15.6446 9.15865 15.5816 9.4823C15.5186 9.80595 15.3836 10.1113 15.1867 10.3758L13.125 13.125H15C15.1658 13.125 15.3247 13.1908 15.4419 13.3081C15.5592 13.4253 15.625 13.5842 15.625 13.75C15.625 13.9158 15.5592 14.0747 15.4419 14.1919C15.3247 14.3092 15.1658 14.375 15 14.375Z" fill="#191F2E"/>
</svg>
