<svg width="20" height="20" viewBox="0 0 20 20" fill="none" xmlns="http://www.w3.org/2000/svg">
<path d="M15.625 17.5C15.625 17.6658 15.5592 17.8247 15.4419 17.9419C15.3247 18.0592 15.1658 18.125 15 18.125H5C4.83424 18.125 4.67527 18.0592 4.55806 17.9419C4.44085 17.8247 4.375 17.6658 4.375 17.5C4.375 17.3342 4.44085 17.1753 4.55806 17.0581C4.67527 16.9408 4.83424 16.875 5 16.875H15C15.1658 16.875 15.3247 16.9408 15.4419 17.0581C15.5592 17.1753 15.625 17.3342 15.625 17.5ZM10 15.625C11.3256 15.6236 12.5966 15.0963 13.5339 14.1589C14.4713 13.2216 14.9986 11.9506 15 10.625V4.375C15 4.20924 14.9342 4.05027 14.8169 3.93306C14.6997 3.81585 14.5408 3.75 14.375 3.75C14.2092 3.75 14.0503 3.81585 13.9331 3.93306C13.8158 4.05027 13.75 4.20924 13.75 4.375V10.625C13.75 11.6196 13.3549 12.5734 12.6517 13.2767C11.9484 13.9799 10.9946 14.375 10 14.375C9.00544 14.375 8.05161 13.9799 7.34835 13.2767C6.64509 12.5734 6.25 11.6196 6.25 10.625V4.375C6.25 4.20924 6.18415 4.05027 6.06694 3.93306C5.94973 3.81585 5.79076 3.75 5.625 3.75C5.45924 3.75 5.30027 3.81585 5.18306 3.93306C5.06585 4.05027 5 4.20924 5 4.375V10.625C5.00145 11.9506 5.5287 13.2216 6.46606 14.1589C7.40343 15.0963 8.67436 15.6236 10 15.625Z" fill="#191F2E"/>
</svg>
