<svg width="20" height="20" viewBox="0 0 20 20" fill="none" xmlns="http://www.w3.org/2000/svg">
<path d="M13.8344 8.94219C14.2851 8.39321 14.5707 7.72751 14.6578 7.02256C14.745 6.3176 14.6301 5.6024 14.3266 4.96019C14.0231 4.31797 13.5434 3.77517 12.9434 3.39496C12.3435 3.01474 11.6478 2.81275 10.9375 2.8125H5.625C5.37636 2.8125 5.1379 2.91127 4.96209 3.08709C4.78627 3.2629 4.6875 3.50136 4.6875 3.75V15.625C4.6875 15.8736 4.78627 16.1121 4.96209 16.2879C5.1379 16.4637 5.37636 16.5625 5.625 16.5625H11.875C12.776 16.5621 13.6514 16.2622 14.3633 15.7099C15.0753 15.1576 15.5834 14.3843 15.8078 13.5117C16.0322 12.639 15.9601 11.7165 15.6028 10.8893C15.2456 10.0621 14.6235 9.37715 13.8344 8.94219ZM6.5625 4.6875H10.9375C11.4348 4.6875 11.9117 4.88504 12.2633 5.23667C12.615 5.58831 12.8125 6.06522 12.8125 6.5625C12.8125 7.05978 12.615 7.53669 12.2633 7.88833C11.9117 8.23996 11.4348 8.4375 10.9375 8.4375H6.5625V4.6875ZM11.875 14.6875H6.5625V10.3125H11.875C12.4552 10.3125 13.0116 10.543 13.4218 10.9532C13.832 11.3634 14.0625 11.9198 14.0625 12.5C14.0625 13.0802 13.832 13.6366 13.4218 14.0468C13.0116 14.457 12.4552 14.6875 11.875 14.6875Z" fill="#191F2E"/>
</svg>
