<svg width="20" height="20" viewBox="0 0 20 20" fill="none" xmlns="http://www.w3.org/2000/svg">
<path d="M17.5 5V5.625C17.5 5.79076 17.4342 5.94973 17.3169 6.06694C17.1997 6.18415 17.0408 6.25 16.875 6.25H3.125C2.95924 6.25 2.80027 6.18415 2.68306 6.06694C2.56585 5.94973 2.5 5.79076 2.5 5.625V5C2.5 4.83424 2.56585 4.67527 2.68306 4.55806C2.80027 4.44085 2.95924 4.375 3.125 4.375H16.875C17.0408 4.375 17.1997 4.44085 17.3169 4.55806C17.4342 4.67527 17.5 4.83424 17.5 5ZM15 9.375C15.1658 9.375 15.3247 9.30915 15.4419 9.19194C15.5592 9.07473 15.625 8.91576 15.625 8.75V8.125C15.625 7.95924 15.5592 7.80027 15.4419 7.68306C15.3247 7.56585 15.1658 7.5 15 7.5H5C4.83424 7.5 4.67527 7.56585 4.55806 7.68306C4.44085 7.80027 4.375 7.95924 4.375 8.125V8.75C4.375 8.91576 4.44085 9.07473 4.55806 9.19194C4.67527 9.30915 4.83424 9.375 5 9.375H15ZM16.875 10.625H3.125C2.95924 10.625 2.80027 10.6908 2.68306 10.8081C2.56585 10.9253 2.5 11.0842 2.5 11.25V11.875C2.5 12.0408 2.56585 12.1997 2.68306 12.3169C2.80027 12.4342 2.95924 12.5 3.125 12.5H16.875C17.0408 12.5 17.1997 12.4342 17.3169 12.3169C17.4342 12.1997 17.5 12.0408 17.5 11.875V11.25C17.5 11.0842 17.4342 10.9253 17.3169 10.8081C17.1997 10.6908 17.0408 10.625 16.875 10.625ZM15 13.75H5C4.83424 13.75 4.67527 13.8158 4.55806 13.9331C4.44085 14.0503 4.375 14.2092 4.375 14.375V15C4.375 15.1658 4.44085 15.3247 4.55806 15.4419C4.67527 15.5592 4.83424 15.625 5 15.625H15C15.1658 15.625 15.3247 15.5592 15.4419 15.4419C15.5592 15.3247 15.625 15.1658 15.625 15V14.375C15.625 14.2092 15.5592 14.0503 15.4419 13.9331C15.3247 13.8158 15.1658 13.75 15 13.75Z" fill="#191F2E"/>
</svg>
