<svg width="20" height="20" viewBox="0 0 20 20" fill="none" xmlns="http://www.w3.org/2000/svg">
<path d="M6.81562 4.10863C6.76515 4.00126 6.68516 3.91047 6.58499 3.84687C6.48483 3.78328 6.36864 3.74951 6.25 3.74951C6.13135 3.74951 6.01516 3.78328 5.915 3.84687C5.81484 3.91047 5.73484 4.00126 5.68437 4.10863L0.684371 14.7336C0.649437 14.8079 0.629476 14.8883 0.625627 14.9703C0.621777 15.0523 0.634116 15.1343 0.661937 15.2115C0.718125 15.3675 0.833967 15.4947 0.98398 15.5653C1.13399 15.6358 1.30589 15.6439 1.46185 15.5877C1.61781 15.5315 1.74507 15.4157 1.81562 15.2657L3.11718 12.5H9.38281L10.6844 15.2657C10.7193 15.3399 10.7685 15.4066 10.8292 15.4619C10.8899 15.5171 10.9609 15.5599 11.0381 15.5877C11.1154 15.6155 11.1973 15.6279 11.2793 15.624C11.3613 15.6202 11.4417 15.6002 11.516 15.5653C11.5903 15.5303 11.657 15.4811 11.7122 15.4204C11.7675 15.3597 11.8102 15.2887 11.8381 15.2115C11.8659 15.1343 11.8782 15.0523 11.8744 14.9703C11.8705 14.8883 11.8506 14.8079 11.8156 14.7336L6.81562 4.10863ZM3.70546 11.25L6.25 5.843L8.79453 11.25H3.70546ZM15.625 7.50004C14.6281 7.50004 13.8492 7.77113 13.3102 8.30629C13.1973 8.42394 13.1349 8.58103 13.1362 8.74406C13.1375 8.90708 13.2025 9.06314 13.3173 9.17892C13.4321 9.29471 13.5875 9.36107 13.7505 9.36385C13.9136 9.36663 14.0712 9.3056 14.1898 9.19379C14.4867 8.89925 14.9711 8.75004 15.625 8.75004C16.6586 8.75004 17.5 9.45316 17.5 10.3125V10.5641C16.9454 10.193 16.2923 9.99656 15.625 10C13.9016 10 12.5 11.2618 12.5 12.8125C12.5 14.3633 13.9016 15.625 15.625 15.625C16.2926 15.628 16.9457 15.4307 17.5 15.0586C17.5078 15.2244 17.5811 15.3803 17.7038 15.492C17.8265 15.6037 17.9885 15.6621 18.1543 15.6543C18.3201 15.6466 18.4759 15.5733 18.5877 15.4506C18.6994 15.3279 18.7578 15.1658 18.75 15V10.3125C18.75 8.76175 17.3484 7.50004 15.625 7.50004ZM15.625 14.375C14.5914 14.375 13.75 13.6719 13.75 12.8125C13.75 11.9532 14.5914 11.25 15.625 11.25C16.6586 11.25 17.5 11.9532 17.5 12.8125C17.5 13.6719 16.6586 14.375 15.625 14.375Z" fill="#191F2E"/>
</svg>
