<svg width="20" height="20" viewBox="0 0 20 20" fill="none" xmlns="http://www.w3.org/2000/svg">
<path d="M2.5 5C2.5 4.83424 2.56585 4.67527 2.68306 4.55806C2.80027 4.44085 2.95924 4.375 3.125 4.375H16.875C17.0408 4.375 17.1997 4.44085 17.3169 4.55806C17.4342 4.67527 17.5 4.83424 17.5 5C17.5 5.16576 17.4342 5.32473 17.3169 5.44194C17.1997 5.55915 17.0408 5.625 16.875 5.625H3.125C2.95924 5.625 2.80027 5.55915 2.68306 5.44194C2.56585 5.32473 2.5 5.16576 2.5 5ZM5 7.5C4.83424 7.5 4.67527 7.56585 4.55806 7.68306C4.44085 7.80027 4.375 7.95924 4.375 8.125C4.375 8.29076 4.44085 8.44973 4.55806 8.56694C4.67527 8.68415 4.83424 8.75 5 8.75H15C15.1658 8.75 15.3247 8.68415 15.4419 8.56694C15.5592 8.44973 15.625 8.29076 15.625 8.125C15.625 7.95924 15.5592 7.80027 15.4419 7.68306C15.3247 7.56585 15.1658 7.5 15 7.5H5ZM16.875 10.625H3.125C2.95924 10.625 2.80027 10.6908 2.68306 10.8081C2.56585 10.9253 2.5 11.0842 2.5 11.25C2.5 11.4158 2.56585 11.5747 2.68306 11.6919C2.80027 11.8092 2.95924 11.875 3.125 11.875H16.875C17.0408 11.875 17.1997 11.8092 17.3169 11.6919C17.4342 11.5747 17.5 11.4158 17.5 11.25C17.5 11.0842 17.4342 10.9253 17.3169 10.8081C17.1997 10.6908 17.0408 10.625 16.875 10.625ZM15 13.75H5C4.83424 13.75 4.67527 13.8158 4.55806 13.9331C4.44085 14.0503 4.375 14.2092 4.375 14.375C4.375 14.5408 4.44085 14.6997 4.55806 14.8169C4.67527 14.9342 4.83424 15 5 15H15C15.1658 15 15.3247 14.9342 15.4419 14.8169C15.5592 14.6997 15.625 14.5408 15.625 14.375C15.625 14.2092 15.5592 14.0503 15.4419 13.9331C15.3247 13.8158 15.1658 13.75 15 13.75Z" fill="#191F2E"/>
</svg>
