<svg width="20" height="20" viewBox="0 0 20 20" fill="none" xmlns="http://www.w3.org/2000/svg">
<path d="M16.25 2.5H3.75C3.41848 2.5 3.10054 2.6317 2.86612 2.86612C2.6317 3.10054 2.5 3.41848 2.5 3.75V16.25C2.5 16.5815 2.6317 16.8995 2.86612 17.1339C3.10054 17.3683 3.41848 17.5 3.75 17.5H16.25C16.5815 17.5 16.8995 17.3683 17.1339 17.1339C17.3683 16.8995 17.5 16.5815 17.5 16.25V3.75C17.5 3.41848 17.3683 3.10054 17.1339 2.86612C16.8995 2.6317 16.5815 2.5 16.25 2.5ZM10 12.5C10 12.6658 9.93415 12.8247 9.81694 12.9419C9.69973 13.0592 9.54076 13.125 9.375 13.125C9.20924 13.125 9.05027 13.0592 8.93306 12.9419C8.81585 12.8247 8.75 12.6658 8.75 12.5V10H5.625V12.5C5.625 12.6658 5.55915 12.8247 5.44194 12.9419C5.32473 13.0592 5.16576 13.125 5 13.125C4.83424 13.125 4.67527 13.0592 4.55806 12.9419C4.44085 12.8247 4.375 12.6658 4.375 12.5V6.25C4.375 6.08424 4.44085 5.92527 4.55806 5.80806C4.67527 5.69085 4.83424 5.625 5 5.625C5.16576 5.625 5.32473 5.69085 5.44194 5.80806C5.55915 5.92527 5.625 6.08424 5.625 6.25V8.75H8.75V6.25C8.75 6.08424 8.81585 5.92527 8.93306 5.80806C9.05027 5.69085 9.20924 5.625 9.375 5.625C9.54076 5.625 9.69973 5.69085 9.81694 5.80806C9.93415 5.92527 10 6.08424 10 6.25V12.5ZM13.125 14.375C12.5099 14.3751 11.9163 14.1484 11.4578 13.7383C11.3343 13.6276 11.2598 13.4725 11.2508 13.3069C11.2417 13.1413 11.2987 12.979 11.4094 12.8555C11.52 12.732 11.6752 12.6575 11.8407 12.6484C12.0063 12.6393 12.1687 12.6964 12.2922 12.807C12.4433 12.942 12.6249 13.0383 12.8214 13.0875C13.0179 13.1368 13.2235 13.1375 13.4204 13.0896C13.6172 13.0418 13.7995 12.9468 13.9515 12.8128C14.1036 12.6789 14.2207 12.51 14.293 12.3207C14.3652 12.1314 14.3904 11.9274 14.3663 11.7263C14.3422 11.5251 14.2695 11.3328 14.1546 11.1659C14.0397 10.9991 13.8859 10.8627 13.7065 10.7684C13.5272 10.6742 13.3276 10.625 13.125 10.625C13.0089 10.625 12.8952 10.5927 12.7964 10.5317C12.6977 10.4706 12.6179 10.3833 12.566 10.2795C12.5141 10.1757 12.4921 10.0595 12.5025 9.94387C12.5129 9.82827 12.5554 9.71786 12.625 9.625L13.75 8.125H11.875C11.7092 8.125 11.5503 8.05915 11.4331 7.94194C11.3158 7.82473 11.25 7.66576 11.25 7.5C11.25 7.33424 11.3158 7.17527 11.4331 7.05806C11.5503 6.94085 11.7092 6.875 11.875 6.875H15C15.1161 6.875 15.2298 6.90732 15.3286 6.96834C15.4273 7.02937 15.5071 7.11668 15.559 7.22049C15.6109 7.32431 15.6329 7.44053 15.6225 7.55613C15.6121 7.67173 15.5696 7.78214 15.5 7.875L14.1945 9.61563C14.7076 9.85863 15.1226 10.269 15.3715 10.7793C15.6203 11.2895 15.688 11.8693 15.5635 12.4231C15.4391 12.977 15.1298 13.472 14.6866 13.8268C14.2434 14.1815 13.6927 14.3749 13.125 14.375Z" fill="#191F2E"/>
</svg>
