<svg width="20" height="20" viewBox="0 0 20 20" fill="none" xmlns="http://www.w3.org/2000/svg">
<path d="M16.25 2.5H3.75C3.41848 2.5 3.10054 2.6317 2.86612 2.86612C2.6317 3.10054 2.5 3.41848 2.5 3.75V16.25C2.5 16.5815 2.6317 16.8995 2.86612 17.1339C3.10054 17.3683 3.41848 17.5 3.75 17.5H16.25C16.5815 17.5 16.8995 17.3683 17.1339 17.1339C17.3683 16.8995 17.5 16.5815 17.5 16.25V3.75C17.5 3.41848 17.3683 3.10054 17.1339 2.86612C16.8995 2.6317 16.5815 2.5 16.25 2.5ZM13.75 6.25H12.0031L9.32422 13.75H10.625C10.7908 13.75 10.9497 13.8158 11.0669 13.9331C11.1842 14.0503 11.25 14.2092 11.25 14.375C11.25 14.5408 11.1842 14.6997 11.0669 14.8169C10.9497 14.9342 10.7908 15 10.625 15H6.25C6.08424 15 5.92527 14.9342 5.80806 14.8169C5.69085 14.6997 5.625 14.5408 5.625 14.375C5.625 14.2092 5.69085 14.0503 5.80806 13.9331C5.92527 13.8158 6.08424 13.75 6.25 13.75H7.99687L10.6758 6.25H9.375C9.20924 6.25 9.05027 6.18415 8.93306 6.06694C8.81585 5.94973 8.75 5.79076 8.75 5.625C8.75 5.45924 8.81585 5.30027 8.93306 5.18306C9.05027 5.06585 9.20924 5 9.375 5H13.75C13.9158 5 14.0747 5.06585 14.1919 5.18306C14.3092 5.30027 14.375 5.45924 14.375 5.625C14.375 5.79076 14.3092 5.94973 14.1919 6.06694C14.0747 6.18415 13.9158 6.25 13.75 6.25Z" fill="#191F2E"/>
</svg>
