<svg width="20" height="20" viewBox="0 0 20 20" fill="none" xmlns="http://www.w3.org/2000/svg">
<path d="M16.25 2.5H3.75C3.41848 2.5 3.10054 2.6317 2.86612 2.86612C2.6317 3.10054 2.5 3.41848 2.5 3.75V16.25C2.5 16.5815 2.6317 16.8995 2.86612 17.1339C3.10054 17.3683 3.41848 17.5 3.75 17.5H16.25C16.5815 17.5 16.8995 17.3683 17.1339 17.1339C17.3683 16.8995 17.5 16.5815 17.5 16.25V3.75C17.5 3.41848 17.3683 3.10054 17.1339 2.86612C16.8995 2.6317 16.5815 2.5 16.25 2.5ZM9.375 12.5C9.375 12.6658 9.30915 12.8247 9.19194 12.9419C9.07473 13.0592 8.91576 13.125 8.75 13.125C8.58424 13.125 8.42527 13.0592 8.30806 12.9419C8.19085 12.8247 8.125 12.6658 8.125 12.5V10H5.625V12.5C5.625 12.6658 5.55915 12.8247 5.44194 12.9419C5.32473 13.0592 5.16576 13.125 5 13.125C4.83424 13.125 4.67527 13.0592 4.55806 12.9419C4.44085 12.8247 4.375 12.6658 4.375 12.5V6.25C4.375 6.08424 4.44085 5.92527 4.55806 5.80806C4.67527 5.69085 4.83424 5.625 5 5.625C5.16576 5.625 5.32473 5.69085 5.44194 5.80806C5.55915 5.92527 5.625 6.08424 5.625 6.25V8.75H8.125V6.25C8.125 6.08424 8.19085 5.92527 8.30806 5.80806C8.42527 5.69085 8.58424 5.625 8.75 5.625C8.91576 5.625 9.07473 5.69085 9.19194 5.80806C9.30915 5.92527 9.375 6.08424 9.375 6.25V12.5ZM15.625 12.5H15V13.75C15 13.9158 14.9342 14.0747 14.8169 14.1919C14.6997 14.3092 14.5408 14.375 14.375 14.375C14.2092 14.375 14.0503 14.3092 13.9331 14.1919C13.8158 14.0747 13.75 13.9158 13.75 13.75V12.5H11.25C11.149 12.5 11.0495 12.4755 10.9601 12.4287C10.8706 12.3818 10.7938 12.314 10.7363 12.231C10.6788 12.1479 10.6422 12.0522 10.6298 11.952C10.6173 11.8518 10.6294 11.75 10.6648 11.6555L12.5398 6.65547C12.5981 6.50007 12.7156 6.37416 12.8667 6.30545C13.0177 6.23673 13.1899 6.23084 13.3453 6.28906C13.5007 6.34729 13.6266 6.46486 13.6953 6.61591C13.764 6.76697 13.7699 6.93913 13.7117 7.09453L12.1492 11.25H13.75V9.375C13.75 9.20924 13.8158 9.05027 13.9331 8.93306C14.0503 8.81585 14.2092 8.75 14.375 8.75C14.5408 8.75 14.6997 8.81585 14.8169 8.93306C14.9342 9.05027 15 9.20924 15 9.375V11.25H15.625C15.7908 11.25 15.9497 11.3158 16.0669 11.4331C16.1842 11.5503 16.25 11.7092 16.25 11.875C16.25 12.0408 16.1842 12.1997 16.0669 12.3169C15.9497 12.4342 15.7908 12.5 15.625 12.5Z" fill="#191F2E"/>
</svg>
