<svg width="20" height="20" viewBox="0 0 20 20" fill="none" xmlns="http://www.w3.org/2000/svg">
<path d="M15.625 12.1875C15.625 12.6953 15.0523 13.125 14.375 13.125C13.6977 13.125 13.125 12.6953 13.125 12.1875C13.125 11.6797 13.6977 11.25 14.375 11.25C15.0523 11.25 15.625 11.6797 15.625 12.1875ZM5.75078 10.625H8.62422L7.1875 7.22891L5.75078 10.625ZM18.125 4.375V15.625C18.125 15.9565 17.9933 16.2745 17.7589 16.5089C17.5245 16.7433 17.2065 16.875 16.875 16.875H3.125C2.79348 16.875 2.47554 16.7433 2.24112 16.5089C2.0067 16.2745 1.875 15.9565 1.875 15.625V4.375C1.875 4.04348 2.0067 3.72554 2.24112 3.49112C2.47554 3.2567 2.79348 3.125 3.125 3.125H16.875C17.2065 3.125 17.5245 3.2567 17.7589 3.49112C17.9933 3.72554 18.125 4.04348 18.125 4.375ZM11.2008 13.5063L7.76328 5.38125C7.71548 5.26804 7.63537 5.17143 7.53296 5.10351C7.43055 5.03558 7.31039 4.99936 7.1875 4.99936C7.06461 4.99936 6.94445 5.03558 6.84204 5.10351C6.73963 5.17143 6.65952 5.26804 6.61172 5.38125L3.17422 13.5063C3.10957 13.659 3.10824 13.8311 3.1705 13.9848C3.23277 14.1385 3.35354 14.2611 3.50625 14.3258C3.65896 14.3904 3.83109 14.3918 3.98478 14.3295C4.13847 14.2672 4.26113 14.1465 4.32578 13.9937L5.22187 11.875H9.15313L10.0492 13.9937C10.1139 14.1465 10.2365 14.2672 10.3902 14.3295C10.5439 14.3918 10.716 14.3904 10.8687 14.3258C11.0215 14.2611 11.1422 14.1385 11.2045 13.9848C11.2668 13.8311 11.2654 13.659 11.2008 13.5063ZM16.875 10.3125C16.875 9.10625 15.7531 8.125 14.375 8.125C13.7919 8.12069 13.2229 8.30362 12.7516 8.64687C12.6186 8.74592 12.5305 8.8937 12.5066 9.05772C12.4826 9.22175 12.5248 9.38857 12.6238 9.52148C12.7229 9.6544 12.8707 9.74253 13.0347 9.76649C13.1987 9.79044 13.3655 9.74826 13.4984 9.64922C13.7539 9.46666 14.061 9.37057 14.375 9.375C15.0437 9.375 15.6094 9.79375 15.625 10.2937C15.2373 10.0987 14.809 9.99802 14.375 10C12.9969 10 11.875 10.9812 11.875 12.1875C11.875 13.3938 12.9969 14.375 14.375 14.375C14.8369 14.3771 15.2918 14.2627 15.6977 14.0422C15.7629 14.1655 15.8676 14.2634 15.995 14.3203C16.1224 14.3772 16.2651 14.3899 16.4005 14.3563C16.536 14.3227 16.6562 14.2448 16.7422 14.1349C16.8282 14.025 16.8749 13.8895 16.875 13.75V10.3125Z" fill="#191F2E"/>
</svg>
