<svg width="20" height="20" viewBox="0 0 20 20" fill="none" xmlns="http://www.w3.org/2000/svg">
<path d="M15.9375 4.375C15.9375 4.62364 15.8387 4.8621 15.6629 5.03791C15.4871 5.21373 15.2486 5.3125 15 5.3125H12.5508L9.42578 14.6875H11.25C11.4986 14.6875 11.7371 14.7863 11.9129 14.9621C12.0887 15.1379 12.1875 15.3764 12.1875 15.625C12.1875 15.8736 12.0887 16.1121 11.9129 16.2879C11.7371 16.4637 11.4986 16.5625 11.25 16.5625H5C4.75136 16.5625 4.5129 16.4637 4.33709 16.2879C4.16127 16.1121 4.0625 15.8736 4.0625 15.625C4.0625 15.3764 4.16127 15.1379 4.33709 14.9621C4.5129 14.7863 4.75136 14.6875 5 14.6875H7.44922L10.5742 5.3125H8.75C8.50136 5.3125 8.2629 5.21373 8.08709 5.03791C7.91127 4.8621 7.8125 4.62364 7.8125 4.375C7.8125 4.12636 7.91127 3.8879 8.08709 3.71209C8.2629 3.53627 8.50136 3.4375 8.75 3.4375H15C15.2486 3.4375 15.4871 3.53627 15.6629 3.71209C15.8387 3.8879 15.9375 4.12636 15.9375 4.375Z" fill="#191F2E"/>
</svg>
