<svg width="20" height="20" viewBox="0 0 20 20" fill="none" xmlns="http://www.w3.org/2000/svg">
<path d="M11.875 4.375V13.75C11.875 13.9158 11.8092 14.0747 11.6919 14.1919C11.5747 14.3092 11.4158 14.375 11.25 14.375C11.0842 14.375 10.9253 14.3092 10.8081 14.1919C10.6908 14.0747 10.625 13.9158 10.625 13.75V9.6875H3.75V13.75C3.75 13.9158 3.68415 14.0747 3.56694 14.1919C3.44973 14.3092 3.29076 14.375 3.125 14.375C2.95924 14.375 2.80027 14.3092 2.68306 14.1919C2.56585 14.0747 2.5 13.9158 2.5 13.75V4.375C2.5 4.20924 2.56585 4.05027 2.68306 3.93306C2.80027 3.81585 2.95924 3.75 3.125 3.75C3.29076 3.75 3.44973 3.81585 3.56694 3.93306C3.68415 4.05027 3.75 4.20924 3.75 4.375V8.4375H10.625V4.375C10.625 4.20924 10.6908 4.05027 10.8081 3.93306C10.9253 3.81585 11.0842 3.75 11.25 3.75C11.4158 3.75 11.5747 3.81585 11.6919 3.93306C11.8092 4.05027 11.875 4.20924 11.875 4.375ZM16.5625 11.25C16.3147 11.2495 16.0678 11.2794 15.8273 11.3391L16.1547 9.375H18.75C18.9158 9.375 19.0747 9.30915 19.1919 9.19194C19.3092 9.07473 19.375 8.91576 19.375 8.75C19.375 8.58424 19.3092 8.42527 19.1919 8.30806C19.0747 8.19085 18.9158 8.125 18.75 8.125H15.625C15.4771 8.12501 15.334 8.17745 15.2212 8.273C15.1083 8.36855 15.033 8.50102 15.0086 8.64687L14.3836 12.3969C14.3617 12.528 14.3822 12.6626 14.4421 12.7813C14.502 12.9 14.5982 12.9964 14.7166 13.0567C14.8351 13.117 14.9697 13.1379 15.1009 13.1165C15.2321 13.095 15.353 13.0324 15.4461 12.9375C15.5935 12.7937 15.7683 12.6809 15.96 12.6057C16.1518 12.5306 16.3566 12.4946 16.5625 12.5C16.9769 12.5 17.3743 12.6646 17.6674 12.9576C17.9604 13.2507 18.125 13.6481 18.125 14.0625C18.125 14.4769 17.9604 14.8743 17.6674 15.1674C17.3743 15.4604 16.9769 15.625 16.5625 15.625C16.3566 15.6304 16.1518 15.5944 15.96 15.5193C15.7683 15.4441 15.5935 15.3313 15.4461 15.1875C15.3892 15.1266 15.3207 15.0778 15.2446 15.0438C15.1685 15.0098 15.0864 14.9914 15.0031 14.9896C14.9198 14.9878 14.837 15.0027 14.7595 15.0333C14.6821 15.064 14.6115 15.1099 14.552 15.1682C14.4925 15.2266 14.4453 15.2962 14.4131 15.3731C14.3809 15.4499 14.3645 15.5324 14.3646 15.6158C14.3648 15.6991 14.3816 15.7815 14.4142 15.8582C14.4467 15.935 14.4942 16.0044 14.5539 16.0625C14.8172 16.3257 15.1306 16.5332 15.4757 16.6728C15.8207 16.8123 16.1903 16.8811 16.5625 16.875C17.3084 16.875 18.0238 16.5787 18.5512 16.0512C19.0787 15.5238 19.375 14.8084 19.375 14.0625C19.375 13.3166 19.0787 12.6012 18.5512 12.0738C18.0238 11.5463 17.3084 11.25 16.5625 11.25Z" fill="#191F2E"/>
</svg>
