<svg width="20" height="20" viewBox="0 0 20 20" fill="none" xmlns="http://www.w3.org/2000/svg">
<path d="M8.75 2.8125C8.50136 2.8125 8.2629 2.91127 8.08709 3.08709C7.91127 3.2629 7.8125 3.50136 7.8125 3.75V4.6875H1.875C1.66981 4.6875 1.46663 4.72792 1.27706 4.80644C1.08749 4.88496 0.915237 5.00005 0.770146 5.14515C0.47712 5.43817 0.3125 5.8356 0.3125 6.25V13.75C0.3125 14.1644 0.47712 14.5618 0.770146 14.8549C0.915237 14.9999 1.08749 15.115 1.27706 15.1936C1.46663 15.2721 1.66981 15.3125 1.875 15.3125H7.8125V16.25C7.8125 16.4986 7.91127 16.7371 8.08709 16.9129C8.2629 17.0887 8.50136 17.1875 8.75 17.1875C8.99864 17.1875 9.2371 17.0887 9.41291 16.9129C9.58873 16.7371 9.6875 16.4986 9.6875 16.25V3.75C9.6875 3.50136 9.58873 3.2629 9.41291 3.08709C9.2371 2.91127 8.99864 2.8125 8.75 2.8125ZM2.1875 13.4375V6.5625H7.8125V13.4375H2.1875ZM19.6875 6.25V13.75C19.6875 14.1644 19.5229 14.5618 19.2299 14.8549C18.9368 15.1479 18.5394 15.3125 18.125 15.3125H11.875C11.6264 15.3125 11.3879 15.2137 11.2121 15.0379C11.0363 14.8621 10.9375 14.6236 10.9375 14.375C10.9375 14.1264 11.0363 13.8879 11.2121 13.7121C11.3879 13.5363 11.6264 13.4375 11.875 13.4375H17.8125V6.5625H11.875C11.6264 6.5625 11.3879 6.46373 11.2121 6.28791C11.0363 6.1121 10.9375 5.87364 10.9375 5.625C10.9375 5.37636 11.0363 5.1379 11.2121 4.96209C11.3879 4.78627 11.6264 4.6875 11.875 4.6875H18.125C18.5394 4.6875 18.9368 4.85212 19.2299 5.14515C19.5229 5.43817 19.6875 5.8356 19.6875 6.25ZM6.875 8.75C6.875 8.99864 6.77623 9.2371 6.60041 9.41291C6.4246 9.58873 6.18614 9.6875 5.9375 9.6875V11.25C5.9375 11.4986 5.83873 11.7371 5.66291 11.9129C5.4871 12.0887 5.24864 12.1875 5 12.1875C4.75136 12.1875 4.5129 12.0887 4.33709 11.9129C4.16127 11.7371 4.0625 11.4986 4.0625 11.25V9.6875C3.81386 9.6875 3.5754 9.58873 3.39959 9.41291C3.22377 9.2371 3.125 8.99864 3.125 8.75C3.125 8.50136 3.22377 8.2629 3.39959 8.08709C3.5754 7.91127 3.81386 7.8125 4.0625 7.8125H5.9375C6.18614 7.8125 6.4246 7.91127 6.60041 8.08709C6.77623 8.2629 6.875 8.50136 6.875 8.75Z" fill="#191F2E"/>
</svg>
