<svg width="20" height="20" viewBox="0 0 20 20" fill="none" xmlns="http://www.w3.org/2000/svg">
<path d="M13.3187 9.03906C13.8124 8.56386 14.1528 7.95195 14.2962 7.2819C14.4396 6.61184 14.3795 5.91422 14.1236 5.27858C13.8676 4.64295 13.4276 4.0983 12.8599 3.71457C12.2922 3.33084 11.6227 3.12553 10.9375 3.125H5.625C5.45924 3.125 5.30027 3.19085 5.18306 3.30806C5.06585 3.42527 5 3.58424 5 3.75V15.625C5 15.7908 5.06585 15.9497 5.18306 16.0669C5.30027 16.1842 5.45924 16.25 5.625 16.25H11.875C12.7418 16.25 13.5818 15.9497 14.2522 15.4003C14.9225 14.8508 15.3819 14.0861 15.552 13.2362C15.7222 12.3863 15.5927 11.5037 15.1855 10.7385C14.7784 9.97329 14.1187 9.37277 13.3187 9.03906ZM6.25 4.375H10.9375C11.5177 4.375 12.0741 4.60547 12.4843 5.0157C12.8945 5.42594 13.125 5.98234 13.125 6.5625C13.125 7.14266 12.8945 7.69906 12.4843 8.1093C12.0741 8.51953 11.5177 8.75 10.9375 8.75H6.25V4.375ZM11.875 15H6.25V10H11.875C12.538 10 13.1739 10.2634 13.6428 10.7322C14.1116 11.2011 14.375 11.837 14.375 12.5C14.375 13.163 14.1116 13.7989 13.6428 14.2678C13.1739 14.7366 12.538 15 11.875 15Z" fill="#191F2E"/>
</svg>
