<svg width="20" height="20" viewBox="0 0 20 20" fill="none" xmlns="http://www.w3.org/2000/svg">
<path d="M13.125 12.1875C13.125 12.6019 12.9604 12.9993 12.6674 13.2924C12.3743 13.5854 11.9769 13.75 11.5625 13.75H7.5V10.625H11.5625C11.9769 10.625 12.3743 10.7896 12.6674 11.0826C12.9604 11.3757 13.125 11.7731 13.125 12.1875ZM17.5 3.75V16.25C17.5 16.5815 17.3683 16.8995 17.1339 17.1339C16.8995 17.3683 16.5815 17.5 16.25 17.5H3.75C3.41848 17.5 3.10054 17.3683 2.86612 17.1339C2.6317 16.8995 2.5 16.5815 2.5 16.25V3.75C2.5 3.41848 2.6317 3.10054 2.86612 2.86612C3.10054 2.6317 3.41848 2.5 3.75 2.5H16.25C16.5815 2.5 16.8995 2.6317 17.1339 2.86612C17.3683 3.10054 17.5 3.41848 17.5 3.75ZM14.375 12.1875C14.3746 11.6942 14.2445 11.2096 13.9977 10.7824C13.7508 10.3553 13.396 10.0006 12.9688 9.75391C13.3486 9.35573 13.6033 8.85487 13.7013 8.31335C13.7993 7.77184 13.7363 7.21347 13.5201 6.70742C13.3039 6.20137 12.9439 5.76987 12.4849 5.46638C12.0258 5.16288 11.4878 5.00073 10.9375 5H6.875C6.70924 5 6.55027 5.06585 6.43306 5.18306C6.31585 5.30027 6.25 5.45924 6.25 5.625V14.375C6.25 14.5408 6.31585 14.6997 6.43306 14.8169C6.55027 14.9342 6.70924 15 6.875 15H11.5625C12.3084 15 13.0238 14.7037 13.5512 14.1762C14.0787 13.6488 14.375 12.9334 14.375 12.1875ZM12.5 7.8125C12.5 7.3981 12.3354 7.00067 12.0424 6.70765C11.7493 6.41462 11.3519 6.25 10.9375 6.25H7.5V9.375H10.9375C11.3519 9.375 11.7493 9.21038 12.0424 8.91735C12.3354 8.62433 12.5 8.2269 12.5 7.8125Z" fill="#191F2E"/>
</svg>
