<svg width="20" height="20" viewBox="0 0 20 20" fill="none" xmlns="http://www.w3.org/2000/svg">
<path d="M11.875 4.375V13.75C11.875 13.9158 11.8092 14.0747 11.6919 14.1919C11.5747 14.3092 11.4158 14.375 11.25 14.375C11.0842 14.375 10.9253 14.3092 10.8081 14.1919C10.6908 14.0747 10.625 13.9158 10.625 13.75V9.6875H3.75V13.75C3.75 13.9158 3.68415 14.0747 3.56694 14.1919C3.44973 14.3092 3.29076 14.375 3.125 14.375C2.95924 14.375 2.80027 14.3092 2.68306 14.1919C2.56585 14.0747 2.5 13.9158 2.5 13.75V4.375C2.5 4.20924 2.56585 4.05027 2.68306 3.93306C2.80027 3.81585 2.95924 3.75 3.125 3.75C3.29076 3.75 3.44973 3.81585 3.56694 3.93306C3.68415 4.05027 3.75 4.20924 3.75 4.375V8.4375H10.625V4.375C10.625 4.20924 10.6908 4.05027 10.8081 3.93306C10.9253 3.81585 11.0842 3.75 11.25 3.75C11.4158 3.75 11.5747 3.81585 11.6919 3.93306C11.8092 4.05027 11.875 4.20924 11.875 4.375ZM18.75 15.625H16.25L18.8711 12.1297C19.0878 11.8417 19.2397 11.5104 19.3164 11.1582C19.3931 10.8061 19.3928 10.4415 19.3154 10.0896C19.238 9.73757 19.0855 9.40647 18.8682 9.11895C18.6509 8.83144 18.374 8.59429 18.0565 8.42378C17.739 8.25327 17.3884 8.15342 17.0287 8.13106C16.669 8.10871 16.3088 8.1644 15.9726 8.29429C15.6364 8.42419 15.3323 8.62523 15.0811 8.88364C14.8299 9.14204 14.6375 9.45171 14.5172 9.79141C14.4881 9.86914 14.4748 9.95189 14.4781 10.0348C14.4813 10.1178 14.5011 10.1992 14.5362 10.2744C14.5712 10.3496 14.6209 10.4171 14.6824 10.4729C14.7438 10.5287 14.8157 10.5717 14.894 10.5994C14.9722 10.6271 15.0552 10.639 15.138 10.6343C15.2209 10.6296 15.302 10.6084 15.3766 10.572C15.4512 10.5356 15.5178 10.4848 15.5725 10.4224C15.6272 10.36 15.669 10.2873 15.6953 10.2086C15.7385 10.0881 15.7996 9.97488 15.8766 9.87266C15.9741 9.73812 16.0975 9.62437 16.2395 9.53808C16.3815 9.45178 16.5392 9.39466 16.7036 9.37006C16.8679 9.34546 17.0355 9.35387 17.1965 9.3948C17.3576 9.43573 17.5089 9.50836 17.6415 9.60844C17.7742 9.70853 17.8855 9.83405 17.9691 9.97768C18.0526 10.1213 18.1067 10.2801 18.1282 10.4449C18.1496 10.6097 18.138 10.7771 18.094 10.9373C18.05 11.0976 17.9745 11.2474 17.8719 11.3781L14.5 15.875C14.4304 15.9679 14.3879 16.0783 14.3775 16.1939C14.3671 16.3095 14.3891 16.4257 14.441 16.5295C14.4929 16.6333 14.5727 16.7206 14.6714 16.7817C14.7702 16.8427 14.8839 16.875 15 16.875H18.75C18.9158 16.875 19.0747 16.8092 19.1919 16.6919C19.3092 16.5747 19.375 16.4158 19.375 16.25C19.375 16.0842 19.3092 15.9253 19.1919 15.8081C19.0747 15.6908 18.9158 15.625 18.75 15.625Z" fill="#191F2E"/>
</svg>
