<svg width="20" height="20" viewBox="0 0 20 20" fill="none" xmlns="http://www.w3.org/2000/svg">
<path d="M16.25 2.5H3.75C3.41848 2.5 3.10054 2.6317 2.86612 2.86612C2.6317 3.10054 2.5 3.41848 2.5 3.75V16.25C2.5 16.5815 2.6317 16.8995 2.86612 17.1339C3.10054 17.3683 3.41848 17.5 3.75 17.5H16.25C16.5815 17.5 16.8995 17.3683 17.1339 17.1339C17.3683 16.8995 17.5 16.5815 17.5 16.25V3.75C17.5 3.41848 17.3683 3.10054 17.1339 2.86612C16.8995 2.6317 16.5815 2.5 16.25 2.5ZM6.46172 7.38906C6.71875 5.98203 8.17031 5 10 5C11.4219 5 12.6242 5.57891 13.2172 6.54922C13.26 6.61929 13.2885 6.6971 13.3012 6.77821C13.314 6.85933 13.3106 6.94215 13.2913 7.02195C13.272 7.10175 13.2371 7.17696 13.1888 7.24331C13.1404 7.30965 13.0794 7.36581 13.0094 7.40859C12.9393 7.45138 12.8615 7.47994 12.7804 7.49265C12.6993 7.50536 12.6164 7.50197 12.5366 7.48267C12.4568 7.46337 12.3816 7.42855 12.3153 7.38018C12.2489 7.33181 12.1928 7.27085 12.15 7.20078C11.7922 6.61406 10.968 6.25 10 6.25C8.80469 6.25 7.83359 6.82266 7.69141 7.61094C7.66543 7.75496 7.58974 7.8853 7.47752 7.97924C7.36531 8.07318 7.22369 8.12476 7.07734 8.125C7.03987 8.12507 7.00247 8.12168 6.96563 8.11484C6.80259 8.08537 6.65793 7.99236 6.56344 7.85626C6.46895 7.72017 6.43236 7.55212 6.46172 7.38906ZM15 10.625H13.1477C13.5445 11.0474 13.7606 11.6081 13.75 12.1875C13.75 13.7648 12.1031 15 10 15C8.13359 15 6.57578 14.0016 6.29453 12.625C6.27546 12.5436 6.27291 12.4592 6.28703 12.3769C6.30115 12.2945 6.33165 12.2157 6.37673 12.1454C6.4218 12.075 6.48054 12.0143 6.54947 11.967C6.61839 11.9198 6.6961 11.8868 6.778 11.8701C6.85989 11.8533 6.94431 11.8532 7.02626 11.8697C7.10821 11.8862 7.18602 11.9189 7.25508 11.966C7.32415 12.0131 7.38307 12.0735 7.42836 12.1438C7.47365 12.214 7.50438 12.2927 7.51875 12.375C7.675 13.1461 8.76875 13.75 10 13.75C11.3555 13.75 12.5 13.0344 12.5 12.1875C12.5 11.4734 11.9719 11.0602 10.4906 10.625H5C4.83424 10.625 4.67527 10.5592 4.55806 10.4419C4.44085 10.3247 4.375 10.1658 4.375 10C4.375 9.83424 4.44085 9.67527 4.55806 9.55806C4.67527 9.44085 4.83424 9.375 5 9.375H15C15.1658 9.375 15.3247 9.44085 15.4419 9.55806C15.5592 9.67527 15.625 9.83424 15.625 10C15.625 10.1658 15.5592 10.3247 15.4419 10.4419C15.3247 10.5592 15.1658 10.625 15 10.625Z" fill="#191F2E"/>
</svg>
