<svg width="20" height="20" viewBox="0 0 20 20" fill="none" xmlns="http://www.w3.org/2000/svg">
<path d="M16.9578 10.9633L17.9922 9.23047C18.0589 9.12471 18.1038 9.00666 18.1243 8.88328C18.1447 8.7599 18.1402 8.63368 18.1111 8.51205C18.082 8.39043 18.0289 8.27585 17.9548 8.17507C17.8808 8.07429 17.7873 7.98934 17.68 7.92523C17.5726 7.86111 17.4535 7.81913 17.3296 7.80175C17.2058 7.78438 17.0797 7.79195 16.9588 7.82404C16.838 7.85612 16.7247 7.91206 16.6258 7.98857C16.5269 8.06508 16.4443 8.16061 16.3828 8.26953L13.8633 12.4883C13.8562 12.5 13.85 12.5125 13.8438 12.525C13.5142 13.1081 13.3807 13.7817 13.463 14.4465C13.5452 15.1112 13.8389 15.7319 14.3007 16.2171C14.7625 16.7023 15.368 17.0263 16.0278 17.1412C16.6877 17.2562 17.3671 17.1561 17.9658 16.8557C18.5644 16.5554 19.0508 16.0705 19.353 15.4728C19.6553 14.8751 19.7575 14.196 19.6446 13.5358C19.5316 12.8756 19.2096 12.2691 18.7258 11.8058C18.2421 11.3425 17.6223 11.0468 16.9578 10.9625V10.9633ZM16.5625 15.3125C16.3153 15.3125 16.0736 15.2392 15.868 15.1018C15.6625 14.9645 15.5023 14.7693 15.4076 14.5409C15.313 14.3124 15.2883 14.0611 15.3365 13.8186C15.3847 13.5762 15.5038 13.3534 15.6786 13.1786C15.8534 13.0038 16.0762 12.8847 16.3186 12.8365C16.5611 12.7883 16.8124 12.813 17.0409 12.9076C17.2693 13.0023 17.4645 13.1625 17.6018 13.368C17.7392 13.5736 17.8125 13.8153 17.8125 14.0625C17.8125 14.394 17.6808 14.712 17.4464 14.9464C17.212 15.1808 16.894 15.3125 16.5625 15.3125ZM12.1875 4.375V13.75C12.1875 13.9986 12.0887 14.2371 11.9129 14.4129C11.7371 14.5887 11.4986 14.6875 11.25 14.6875C11.0014 14.6875 10.7629 14.5887 10.5871 14.4129C10.4113 14.2371 10.3125 13.9986 10.3125 13.75V10H4.0625V13.75C4.0625 13.9986 3.96373 14.2371 3.78791 14.4129C3.6121 14.5887 3.37364 14.6875 3.125 14.6875C2.87636 14.6875 2.6379 14.5887 2.46209 14.4129C2.28627 14.2371 2.1875 13.9986 2.1875 13.75V4.375C2.1875 4.12636 2.28627 3.8879 2.46209 3.71209C2.6379 3.53627 2.87636 3.4375 3.125 3.4375C3.37364 3.4375 3.6121 3.53627 3.78791 3.71209C3.96373 3.8879 4.0625 4.12636 4.0625 4.375V8.125H10.3125V4.375C10.3125 4.12636 10.4113 3.8879 10.5871 3.71209C10.7629 3.53627 11.0014 3.4375 11.25 3.4375C11.4986 3.4375 11.7371 3.53627 11.9129 3.71209C12.0887 3.8879 12.1875 4.12636 12.1875 4.375Z" fill="#191F2E"/>
</svg>
