<svg width="20" height="20" viewBox="0 0 20 20" fill="none" xmlns="http://www.w3.org/2000/svg">
<path d="M17.5 10.0001C17.5 10.1659 17.4342 10.3248 17.3169 10.442C17.1997 10.5593 17.0408 10.6251 16.875 10.6251H8.75C8.58424 10.6251 8.42527 10.5593 8.30806 10.442C8.19085 10.3248 8.125 10.1659 8.125 10.0001C8.125 9.83434 8.19085 9.67537 8.30806 9.55816C8.42527 9.44095 8.58424 9.3751 8.75 9.3751H16.875C17.0408 9.3751 17.1997 9.44095 17.3169 9.55816C17.4342 9.67537 17.5 9.83434 17.5 10.0001ZM8.75 5.6251H16.875C17.0408 5.6251 17.1997 5.55926 17.3169 5.44204C17.4342 5.32483 17.5 5.16586 17.5 5.0001C17.5 4.83434 17.4342 4.67537 17.3169 4.55816C17.1997 4.44095 17.0408 4.3751 16.875 4.3751H8.75C8.58424 4.3751 8.42527 4.44095 8.30806 4.55816C8.19085 4.67537 8.125 4.83434 8.125 5.0001C8.125 5.16586 8.19085 5.32483 8.30806 5.44204C8.42527 5.55926 8.58424 5.6251 8.75 5.6251ZM16.875 14.3751H3.125C2.95924 14.3751 2.80027 14.441 2.68306 14.5582C2.56585 14.6754 2.5 14.8343 2.5 15.0001C2.5 15.1659 2.56585 15.3248 2.68306 15.442C2.80027 15.5593 2.95924 15.6251 3.125 15.6251H16.875C17.0408 15.6251 17.1997 15.5593 17.3169 15.442C17.4342 15.3248 17.5 15.1659 17.5 15.0001C17.5 14.8343 17.4342 14.6754 17.3169 14.5582C17.1997 14.441 17.0408 14.3751 16.875 14.3751ZM2.68282 11.0673C2.74086 11.1254 2.80979 11.1715 2.88567 11.203C2.96154 11.2344 3.04287 11.2506 3.125 11.2506C3.20714 11.2506 3.28847 11.2344 3.36434 11.203C3.44021 11.1715 3.50915 11.1254 3.56719 11.0673L6.69219 7.94229C6.7503 7.88425 6.7964 7.81531 6.82785 7.73944C6.85931 7.66357 6.87549 7.58224 6.87549 7.5001C6.87549 7.41797 6.85931 7.33664 6.82785 7.26077C6.7964 7.18489 6.7503 7.11596 6.69219 7.05792L3.56719 3.93292C3.44992 3.81564 3.29086 3.74976 3.125 3.74976C2.95915 3.74976 2.80009 3.81564 2.68282 3.93292C2.56554 4.05019 2.49966 4.20925 2.49966 4.3751C2.49966 4.54096 2.56554 4.70002 2.68282 4.81729L5.36641 7.5001L2.68282 10.1829C2.62471 10.241 2.57861 10.3099 2.54715 10.3858C2.5157 10.4616 2.49951 10.543 2.49951 10.6251C2.49951 10.7072 2.5157 10.7886 2.54715 10.8644C2.57861 10.9403 2.62471 11.0092 2.68282 11.0673Z" fill="#191F2E"/>
</svg>
