<svg width="20" height="20" viewBox="0 0 20 20" fill="none" xmlns="http://www.w3.org/2000/svg">
<path d="M17.8125 10C17.8125 10.2486 17.7137 10.4871 17.5379 10.6629C17.3621 10.8387 17.1236 10.9375 16.875 10.9375H14.5203C15.046 11.5435 15.3283 12.3229 15.3125 13.125C15.3125 14.2539 14.7023 15.3375 13.6383 16.0977C12.6563 16.8008 11.3625 17.1875 10 17.1875C8.6375 17.1875 7.34375 16.8008 6.36172 16.0977C5.29766 15.3375 4.6875 14.2539 4.6875 13.125C4.6875 12.8764 4.78627 12.6379 4.96209 12.4621C5.1379 12.2863 5.37636 12.1875 5.625 12.1875C5.87364 12.1875 6.1121 12.2863 6.28791 12.4621C6.46373 12.6379 6.5625 12.8764 6.5625 13.125C6.5625 14.3109 8.13672 15.3125 10 15.3125C11.8633 15.3125 13.4375 14.3109 13.4375 13.125C13.4375 12.1281 12.7109 11.5484 10.6758 10.9375H3.125C2.87636 10.9375 2.6379 10.8387 2.46209 10.6629C2.28627 10.4871 2.1875 10.2486 2.1875 10C2.1875 9.75136 2.28627 9.5129 2.46209 9.33709C2.6379 9.16127 2.87636 9.0625 3.125 9.0625H16.875C17.1236 9.0625 17.3621 9.16127 17.5379 9.33709C17.7137 9.5129 17.8125 9.75136 17.8125 10ZM5.86797 7.8125C6.11661 7.8125 6.35507 7.71373 6.53088 7.53791C6.7067 7.3621 6.80547 7.12364 6.80547 6.875C6.80547 5.625 8.17891 4.6875 10 4.6875C11.3562 4.6875 12.4508 5.20703 12.9281 6.07656C13.0544 6.28155 13.2546 6.43013 13.4874 6.49151C13.7202 6.55289 13.9676 6.52238 14.1785 6.40629C14.3894 6.29019 14.5476 6.09742 14.6202 5.86791C14.6929 5.6384 14.6744 5.38974 14.5687 5.17344C13.7602 3.69531 12.0508 2.8125 10 2.8125C7.10938 2.8125 4.93047 4.55859 4.93047 6.875C4.93047 7.12364 5.02924 7.3621 5.20506 7.53791C5.38087 7.71373 5.61933 7.8125 5.86797 7.8125Z" fill="#191F2E"/>
</svg>
