<svg width="20" height="20" viewBox="0 0 20 20" fill="none" xmlns="http://www.w3.org/2000/svg">
<path d="M19.375 6.25V13.75C19.375 14.0815 19.2433 14.3995 19.0089 14.6339C18.7745 14.8683 18.4565 15 18.125 15H11.25C11.0842 15 10.9253 14.9342 10.8081 14.8169C10.6908 14.6997 10.625 14.5408 10.625 14.375V5.625C10.625 5.45924 10.6908 5.30027 10.8081 5.18306C10.9253 5.06585 11.0842 5 11.25 5H18.125C18.4565 5 18.7745 5.1317 19.0089 5.36612C19.2433 5.60054 19.375 5.91848 19.375 6.25ZM9.375 3.75V16.25C9.375 16.4158 9.30915 16.5747 9.19194 16.6919C9.07473 16.8092 8.91576 16.875 8.75 16.875C8.58424 16.875 8.42527 16.8092 8.30806 16.6919C8.19085 16.5747 8.125 16.4158 8.125 16.25V15H1.875C1.54348 15 1.22554 14.8683 0.991117 14.6339C0.756696 14.3995 0.625 14.0815 0.625 13.75V6.25C0.625 5.91848 0.756696 5.60054 0.991117 5.36612C1.22554 5.1317 1.54348 5 1.875 5H8.125V3.75C8.125 3.58424 8.19085 3.42527 8.30806 3.30806C8.42527 3.19085 8.58424 3.125 8.75 3.125C8.91576 3.125 9.07473 3.19085 9.19194 3.30806C9.30915 3.42527 9.375 3.58424 9.375 3.75ZM6.875 8.75C6.875 8.58424 6.80915 8.42527 6.69194 8.30806C6.57473 8.19085 6.41576 8.125 6.25 8.125H3.75C3.58424 8.125 3.42527 8.19085 3.30806 8.30806C3.19085 8.42527 3.125 8.58424 3.125 8.75C3.125 8.91576 3.19085 9.07473 3.30806 9.19194C3.42527 9.30915 3.58424 9.375 3.75 9.375H4.375V11.25C4.375 11.4158 4.44085 11.5747 4.55806 11.6919C4.67527 11.8092 4.83424 11.875 5 11.875C5.16576 11.875 5.32473 11.8092 5.44194 11.6919C5.55915 11.5747 5.625 11.4158 5.625 11.25V9.375H6.25C6.41576 9.375 6.57473 9.30915 6.69194 9.19194C6.80915 9.07473 6.875 8.91576 6.875 8.75Z" fill="#191F2E"/>
</svg>
