<svg width="20" height="20" viewBox="0 0 20 20" fill="none" xmlns="http://www.w3.org/2000/svg">
<path d="M11.6195 9.375H8.38047L10 5.86641L11.6195 9.375ZM16.875 2.5V17.5C16.875 17.6658 16.8092 17.8247 16.6919 17.9419C16.5747 18.0592 16.4158 18.125 16.25 18.125H3.75C3.58424 18.125 3.42527 18.0592 3.30806 17.9419C3.19085 17.8247 3.125 17.6658 3.125 17.5V2.5C3.125 2.33424 3.19085 2.17527 3.30806 2.05806C3.42527 1.94085 3.58424 1.875 3.75 1.875H16.25C16.4158 1.875 16.5747 1.94085 16.6919 2.05806C16.8092 2.17527 16.875 2.33424 16.875 2.5ZM5.98828 13.0672C6.13872 13.1365 6.31053 13.1433 6.46595 13.086C6.62137 13.0287 6.7477 12.9121 6.81719 12.7617L7.80391 10.625H12.1961L13.1828 12.7617C13.2556 12.9067 13.3819 13.0176 13.535 13.0712C13.688 13.1247 13.8559 13.1167 14.0032 13.0487C14.1505 12.9808 14.2656 12.8583 14.3241 12.707C14.3827 12.5558 14.3802 12.3877 14.3172 12.2383L10.5672 4.11328C10.5171 4.00504 10.4371 3.9134 10.3366 3.84917C10.2361 3.78494 10.1193 3.75081 10 3.75081C9.88073 3.75081 9.76395 3.78494 9.66344 3.84917C9.56294 3.9134 9.48291 4.00504 9.43281 4.11328L5.68281 12.2383C5.61349 12.3887 5.60673 12.5605 5.66401 12.716C5.72128 12.8714 5.83792 12.9977 5.98828 13.0672ZM15.625 15C15.625 14.8342 15.5592 14.6753 15.4419 14.5581C15.3247 14.4408 15.1658 14.375 15 14.375H5C4.83424 14.375 4.67527 14.4408 4.55806 14.5581C4.44085 14.6753 4.375 14.8342 4.375 15C4.375 15.1658 4.44085 15.3247 4.55806 15.4419C4.67527 15.5592 4.83424 15.625 5 15.625H15C15.1658 15.625 15.3247 15.5592 15.4419 15.4419C15.5592 15.3247 15.625 15.1658 15.625 15Z" fill="#191F2E"/>
</svg>
