<svg width="20" height="20" viewBox="0 0 20 20" fill="none" xmlns="http://www.w3.org/2000/svg">
<path d="M17.5 5V5.625C17.5 5.79076 17.4342 5.94973 17.3169 6.06694C17.1997 6.18415 17.0408 6.25 16.875 6.25H3.125C2.95924 6.25 2.80027 6.18415 2.68306 6.06694C2.56585 5.94973 2.5 5.79076 2.5 5.625V5C2.5 4.83424 2.56585 4.67527 2.68306 4.55806C2.80027 4.44085 2.95924 4.375 3.125 4.375H16.875C17.0408 4.375 17.1997 4.44085 17.3169 4.55806C17.4342 4.67527 17.5 4.83424 17.5 5ZM16.875 7.5H3.125C2.95924 7.5 2.80027 7.56585 2.68306 7.68306C2.56585 7.80027 2.5 7.95924 2.5 8.125V8.75C2.5 8.91576 2.56585 9.07473 2.68306 9.19194C2.80027 9.30915 2.95924 9.375 3.125 9.375H16.875C17.0408 9.375 17.1997 9.30915 17.3169 9.19194C17.4342 9.07473 17.5 8.91576 17.5 8.75V8.125C17.5 7.95924 17.4342 7.80027 17.3169 7.68306C17.1997 7.56585 17.0408 7.5 16.875 7.5ZM16.875 10.625H3.125C2.95924 10.625 2.80027 10.6908 2.68306 10.8081C2.56585 10.9253 2.5 11.0842 2.5 11.25V11.875C2.5 12.0408 2.56585 12.1997 2.68306 12.3169C2.80027 12.4342 2.95924 12.5 3.125 12.5H16.875C17.0408 12.5 17.1997 12.4342 17.3169 12.3169C17.4342 12.1997 17.5 12.0408 17.5 11.875V11.25C17.5 11.0842 17.4342 10.9253 17.3169 10.8081C17.1997 10.6908 17.0408 10.625 16.875 10.625ZM16.875 13.75H3.125C2.95924 13.75 2.80027 13.8158 2.68306 13.9331C2.56585 14.0503 2.5 14.2092 2.5 14.375V15C2.5 15.1658 2.56585 15.3247 2.68306 15.4419C2.80027 15.5592 2.95924 15.625 3.125 15.625H16.875C17.0408 15.625 17.1997 15.5592 17.3169 15.4419C17.4342 15.3247 17.5 15.1658 17.5 15V14.375C17.5 14.2092 17.4342 14.0503 17.3169 13.9331C17.1997 13.8158 17.0408 13.75 16.875 13.75Z" fill="#191F2E"/>
</svg>
