<svg width="20" height="20" viewBox="0 0 20 20" fill="none" xmlns="http://www.w3.org/2000/svg">
<path d="M17.5 10C17.5 10.1658 17.4342 10.3247 17.3169 10.4419C17.1997 10.5592 17.0408 10.625 16.875 10.625H8.75C8.58424 10.625 8.42527 10.5592 8.30806 10.4419C8.19085 10.3247 8.125 10.1658 8.125 10C8.125 9.83424 8.19085 9.67527 8.30806 9.55806C8.42527 9.44085 8.58424 9.375 8.75 9.375H16.875C17.0408 9.375 17.1997 9.44085 17.3169 9.55806C17.4342 9.67527 17.5 9.83424 17.5 10ZM8.75 5.625H16.875C17.0408 5.625 17.1997 5.55916 17.3169 5.44195C17.4342 5.32474 17.5 5.16576 17.5 5C17.5 4.83424 17.4342 4.67527 17.3169 4.55806C17.1997 4.44085 17.0408 4.375 16.875 4.375H8.75C8.58424 4.375 8.42527 4.44085 8.30806 4.55806C8.19085 4.67527 8.125 4.83424 8.125 5C8.125 5.16576 8.19085 5.32474 8.30806 5.44195C8.42527 5.55916 8.58424 5.625 8.75 5.625ZM16.875 14.375H3.125C2.95924 14.375 2.80027 14.4409 2.68306 14.5581C2.56585 14.6753 2.5 14.8342 2.5 15C2.5 15.1658 2.56585 15.3247 2.68306 15.4419C2.80027 15.5592 2.95924 15.625 3.125 15.625H16.875C17.0408 15.625 17.1997 15.5592 17.3169 15.4419C17.4342 15.3247 17.5 15.1658 17.5 15C17.5 14.8342 17.4342 14.6753 17.3169 14.5581C17.1997 14.4409 17.0408 14.375 16.875 14.375ZM5.625 11.25C5.79076 11.25 5.94973 11.1842 6.06695 11.0669C6.18416 10.9497 6.25 10.7908 6.25 10.625V4.375C6.2501 4.25132 6.2135 4.13039 6.14483 4.02752C6.07616 3.92464 5.97851 3.84446 5.86425 3.79711C5.74998 3.74977 5.62424 3.73739 5.50294 3.76155C5.38163 3.7857 5.27023 3.84531 5.18282 3.93282L2.05782 7.05782C1.99971 7.11586 1.95361 7.18479 1.92215 7.26067C1.8907 7.33654 1.87451 7.41787 1.87451 7.5C1.87451 7.58214 1.8907 7.66347 1.92215 7.73934C1.95361 7.81522 1.99971 7.88415 2.05782 7.94219L5.18282 11.0672C5.2409 11.1252 5.30985 11.1712 5.38572 11.2026C5.46159 11.234 5.5429 11.2501 5.625 11.25Z" fill="#191F2E"/>
</svg>
