<svg width="20" height="20" viewBox="0 0 20 20" fill="none" xmlns="http://www.w3.org/2000/svg">
<path d="M4.73359 13.6907C4.80787 13.7257 4.88831 13.7457 4.97033 13.7496C5.05235 13.7535 5.13434 13.7412 5.21161 13.7135C5.28888 13.6857 5.35992 13.6429 5.42066 13.5877C5.4814 13.5324 5.53066 13.4657 5.56562 13.3914L6.86719 10.625H13.1328L14.4344 13.3914C14.4694 13.4657 14.5186 13.5324 14.5794 13.5876C14.6401 13.6429 14.7112 13.6856 14.7884 13.7134C14.8657 13.7412 14.9477 13.7535 15.0297 13.7496C15.1117 13.7457 15.1921 13.7256 15.2664 13.6907C15.3407 13.6557 15.4073 13.6064 15.4626 13.5457C15.5178 13.4849 15.5605 13.4139 15.5883 13.3366C15.6161 13.2594 15.6284 13.1774 15.6245 13.0954C15.6206 13.0134 15.6006 12.9329 15.5656 12.8586L10.5656 2.23363C10.5152 2.12626 10.4352 2.03547 10.335 1.97187C10.2348 1.90828 10.1186 1.87451 10 1.87451C9.88136 1.87451 9.76516 1.90828 9.665 1.97187C9.56484 2.03547 9.48485 2.12626 9.43438 2.23363L4.43437 12.8586C4.39936 12.9329 4.37932 13.0133 4.37541 13.0954C4.3715 13.1774 4.38379 13.2594 4.41158 13.3366C4.43937 13.4139 4.48211 13.485 4.53736 13.5457C4.59261 13.6064 4.65929 13.6557 4.73359 13.6907ZM10 3.968L12.5445 9.37504H7.45547L10 3.968ZM17.5 16.875C17.5 17.0408 17.4342 17.1998 17.3169 17.317C17.1997 17.4342 17.0408 17.5 16.875 17.5H3.125C2.95924 17.5 2.80027 17.4342 2.68306 17.317C2.56585 17.1998 2.5 17.0408 2.5 16.875C2.5 16.7093 2.56585 16.5503 2.68306 16.4331C2.80027 16.3159 2.95924 16.25 3.125 16.25H16.875C17.0408 16.25 17.1997 16.3159 17.3169 16.4331C17.4342 16.5503 17.5 16.7093 17.5 16.875Z" fill="#191F2E"/>
</svg>
