<svg width="20" height="20" viewBox="0 0 20 20" fill="none" xmlns="http://www.w3.org/2000/svg">
<path d="M9.375 5C9.375 5.24864 9.27623 5.4871 9.10041 5.66291C8.9246 5.83873 8.68614 5.9375 8.4375 5.9375H3.125C2.87636 5.9375 2.6379 5.83873 2.46209 5.66291C2.28627 5.4871 2.1875 5.24864 2.1875 5C2.1875 4.75136 2.28627 4.5129 2.46209 4.33709C2.6379 4.16127 2.87636 4.0625 3.125 4.0625H8.4375C8.68614 4.0625 8.9246 4.16127 9.10041 4.33709C9.27623 4.5129 9.375 4.75136 9.375 5ZM8.4375 7.1875H3.125C2.87636 7.1875 2.6379 7.28627 2.46209 7.46209C2.28627 7.6379 2.1875 7.87636 2.1875 8.125C2.1875 8.37364 2.28627 8.6121 2.46209 8.78791C2.6379 8.96373 2.87636 9.0625 3.125 9.0625H8.4375C8.68614 9.0625 8.9246 8.96373 9.10041 8.78791C9.27623 8.6121 9.375 8.37364 9.375 8.125C9.375 7.87636 9.27623 7.6379 9.10041 7.46209C8.9246 7.28627 8.68614 7.1875 8.4375 7.1875ZM8.4375 10.3125H3.125C2.87636 10.3125 2.6379 10.4113 2.46209 10.5871C2.28627 10.7629 2.1875 11.0014 2.1875 11.25C2.1875 11.4986 2.28627 11.7371 2.46209 11.9129C2.6379 12.0887 2.87636 12.1875 3.125 12.1875H8.4375C8.68614 12.1875 8.9246 12.0887 9.10041 11.9129C9.27623 11.7371 9.375 11.4986 9.375 11.25C9.375 11.0014 9.27623 10.7629 9.10041 10.5871C8.9246 10.4113 8.68614 10.3125 8.4375 10.3125ZM8.4375 13.4375H3.125C2.87636 13.4375 2.6379 13.5363 2.46209 13.7121C2.28627 13.8879 2.1875 14.1264 2.1875 14.375C2.1875 14.6236 2.28627 14.8621 2.46209 15.0379C2.6379 15.2137 2.87636 15.3125 3.125 15.3125H8.4375C8.68614 15.3125 8.9246 15.2137 9.10041 15.0379C9.27623 14.8621 9.375 14.6236 9.375 14.375C9.375 14.1264 9.27623 13.8879 9.10041 13.7121C8.9246 13.5363 8.68614 13.4375 8.4375 13.4375ZM11.5625 5.9375H16.875C17.1236 5.9375 17.3621 5.83873 17.5379 5.66291C17.7137 5.4871 17.8125 5.24864 17.8125 5C17.8125 4.75136 17.7137 4.5129 17.5379 4.33709C17.3621 4.16127 17.1236 4.0625 16.875 4.0625H11.5625C11.3139 4.0625 11.0754 4.16127 10.8996 4.33709C10.7238 4.5129 10.625 4.75136 10.625 5C10.625 5.24864 10.7238 5.4871 10.8996 5.66291C11.0754 5.83873 11.3139 5.9375 11.5625 5.9375ZM16.875 7.1875H11.5625C11.3139 7.1875 11.0754 7.28627 10.8996 7.46209C10.7238 7.6379 10.625 7.87636 10.625 8.125C10.625 8.37364 10.7238 8.6121 10.8996 8.78791C11.0754 8.96373 11.3139 9.0625 11.5625 9.0625H16.875C17.1236 9.0625 17.3621 8.96373 17.5379 8.78791C17.7137 8.6121 17.8125 8.37364 17.8125 8.125C17.8125 7.87636 17.7137 7.6379 17.5379 7.46209C17.3621 7.28627 17.1236 7.1875 16.875 7.1875ZM16.875 10.3125H11.5625C11.3139 10.3125 11.0754 10.4113 10.8996 10.5871C10.7238 10.7629 10.625 11.0014 10.625 11.25C10.625 11.4986 10.7238 11.7371 10.8996 11.9129C11.0754 12.0887 11.3139 12.1875 11.5625 12.1875H16.875C17.1236 12.1875 17.3621 12.0887 17.5379 11.9129C17.7137 11.7371 17.8125 11.4986 17.8125 11.25C17.8125 11.0014 17.7137 10.7629 17.5379 10.5871C17.3621 10.4113 17.1236 10.3125 16.875 10.3125ZM16.875 13.4375H11.5625C11.3139 13.4375 11.0754 13.5363 10.8996 13.7121C10.7238 13.8879 10.625 14.1264 10.625 14.375C10.625 14.6236 10.7238 14.8621 10.8996 15.0379C11.0754 15.2137 11.3139 15.3125 11.5625 15.3125H16.875C17.1236 15.3125 17.3621 15.2137 17.5379 15.0379C17.7137 14.8621 17.8125 14.6236 17.8125 14.375C17.8125 14.1264 17.7137 13.8879 17.5379 13.7121C17.3621 13.5363 17.1236 13.4375 16.875 13.4375Z" fill="#191F2E"/>
</svg>
