<svg width="20" height="20" viewBox="0 0 20 20" fill="none" xmlns="http://www.w3.org/2000/svg">
<path d="M8.75 3.125C8.58424 3.125 8.42527 3.19085 8.30806 3.30806C8.19085 3.42527 8.125 3.58424 8.125 3.75V5H1.875C1.54348 5 1.22554 5.1317 0.991117 5.36612C0.756696 5.60054 0.625 5.91848 0.625 6.25V13.75C0.625 14.0815 0.756696 14.3995 0.991117 14.6339C1.22554 14.8683 1.54348 15 1.875 15H8.125V16.25C8.125 16.4158 8.19085 16.5747 8.30806 16.6919C8.42527 16.8092 8.58424 16.875 8.75 16.875C8.91576 16.875 9.07473 16.8092 9.19194 16.6919C9.30915 16.5747 9.375 16.4158 9.375 16.25V3.75C9.375 3.58424 9.30915 3.42527 9.19194 3.30806C9.07473 3.19085 8.91576 3.125 8.75 3.125ZM1.875 13.75V6.25H8.125V13.75H1.875ZM19.375 6.25V13.75C19.375 14.0815 19.2433 14.3995 19.0089 14.6339C18.7745 14.8683 18.4565 15 18.125 15H11.25C11.0842 15 10.9253 14.9342 10.8081 14.8169C10.6908 14.6997 10.625 14.5408 10.625 14.375C10.625 14.2092 10.6908 14.0503 10.8081 13.9331C10.9253 13.8158 11.0842 13.75 11.25 13.75H18.125V6.25H11.25C11.0842 6.25 10.9253 6.18415 10.8081 6.06694C10.6908 5.94973 10.625 5.79076 10.625 5.625C10.625 5.45924 10.6908 5.30027 10.8081 5.18306C10.9253 5.06585 11.0842 5 11.25 5H18.125C18.4565 5 18.7745 5.1317 19.0089 5.36612C19.2433 5.60054 19.375 5.91848 19.375 6.25ZM6.875 8.75C6.875 8.91576 6.80915 9.07473 6.69194 9.19194C6.57473 9.30915 6.41576 9.375 6.25 9.375H5.625V11.25C5.625 11.4158 5.55915 11.5747 5.44194 11.6919C5.32473 11.8092 5.16576 11.875 5 11.875C4.83424 11.875 4.67527 11.8092 4.55806 11.6919C4.44085 11.5747 4.375 11.4158 4.375 11.25V9.375H3.75C3.58424 9.375 3.42527 9.30915 3.30806 9.19194C3.19085 9.07473 3.125 8.91576 3.125 8.75C3.125 8.58424 3.19085 8.42527 3.30806 8.30806C3.42527 8.19085 3.58424 8.125 3.75 8.125H6.25C6.41576 8.125 6.57473 8.19085 6.69194 8.30806C6.80915 8.42527 6.875 8.58424 6.875 8.75Z" fill="#191F2E"/>
</svg>
