<svg width="20" height="20" viewBox="0 0 20 20" fill="none" xmlns="http://www.w3.org/2000/svg">
<path d="M11.875 4.375V13.75C11.875 13.9158 11.8092 14.0747 11.6919 14.1919C11.5747 14.3092 11.4158 14.375 11.25 14.375C11.0842 14.375 10.9253 14.3092 10.8081 14.1919C10.6908 14.0747 10.625 13.9158 10.625 13.75V9.6875H3.75V13.75C3.75 13.9158 3.68415 14.0747 3.56694 14.1919C3.44973 14.3092 3.29076 14.375 3.125 14.375C2.95924 14.375 2.80027 14.3092 2.68306 14.1919C2.56585 14.0747 2.5 13.9158 2.5 13.75V4.375C2.5 4.20924 2.56585 4.05027 2.68306 3.93306C2.80027 3.81585 2.95924 3.75 3.125 3.75C3.29076 3.75 3.44973 3.81585 3.56694 3.93306C3.68415 4.05027 3.75 4.20924 3.75 4.375V8.4375H10.625V4.375C10.625 4.20924 10.6908 4.05027 10.8081 3.93306C10.9253 3.81585 11.0842 3.75 11.25 3.75C11.4158 3.75 11.5747 3.81585 11.6919 3.93306C11.8092 4.05027 11.875 4.20924 11.875 4.375ZM17.7945 8.20312C17.6949 8.1497 17.5826 8.12432 17.4696 8.12969C17.3567 8.13505 17.2473 8.17097 17.1531 8.23359L15.2781 9.48359C15.2098 9.52915 15.1511 9.58771 15.1054 9.65594C15.0597 9.72418 15.0279 9.80074 15.0118 9.88127C14.9957 9.96179 14.9956 10.0447 15.0115 10.1253C15.0275 10.2058 15.0591 10.2825 15.1047 10.3508C15.1502 10.4191 15.2088 10.4778 15.277 10.5235C15.3453 10.5692 15.4218 10.601 15.5024 10.6171C15.5829 10.6332 15.6658 10.6333 15.7464 10.6174C15.8269 10.6014 15.9035 10.5698 15.9719 10.5242L16.875 9.92188V16.25C16.875 16.4158 16.9408 16.5747 17.0581 16.6919C17.1753 16.8092 17.3342 16.875 17.5 16.875C17.6658 16.875 17.8247 16.8092 17.9419 16.6919C18.0592 16.5747 18.125 16.4158 18.125 16.25V8.75C18.1242 8.63755 18.0931 8.52739 18.0349 8.43114C17.9768 8.33489 17.8937 8.25612 17.7945 8.20312Z" fill="#191F2E"/>
</svg>
