<svg width="20" height="20" viewBox="0 0 20 20" fill="none" xmlns="http://www.w3.org/2000/svg">
<path d="M19.6875 14.0625C19.6875 14.8913 19.3583 15.6862 18.7722 16.2722C18.1862 16.8583 17.3913 17.1875 16.5625 17.1875C16.1487 17.1937 15.7379 17.1167 15.3545 16.961C14.971 16.8053 14.6228 16.5741 14.3305 16.2812C14.2443 16.1933 14.1763 16.0893 14.1303 15.9751C14.0843 15.8609 14.0613 15.7387 14.0625 15.6156C14.0638 15.4925 14.0892 15.3708 14.1375 15.2576C14.1857 15.1443 14.2558 15.0416 14.3438 14.9555C14.4317 14.8693 14.5357 14.8013 14.6499 14.7553C14.7641 14.7093 14.8863 14.6863 15.0094 14.6875C15.1325 14.6888 15.2542 14.7142 15.3674 14.7625C15.4807 14.8107 15.5834 14.8808 15.6695 14.9688C15.7873 15.0836 15.9272 15.1732 16.0807 15.2323C16.2342 15.2914 16.3981 15.3187 16.5625 15.3125C16.894 15.3125 17.212 15.1808 17.4464 14.9464C17.6808 14.712 17.8125 14.394 17.8125 14.0625C17.8125 13.731 17.6808 13.413 17.4464 13.1786C17.212 12.9442 16.894 12.8125 16.5625 12.8125C16.3981 12.8063 16.2342 12.8336 16.0807 12.8927C15.9272 12.9518 15.7873 13.0414 15.6695 13.1562C15.5299 13.2991 15.3482 13.3936 15.1511 13.4259C14.9539 13.4583 14.7516 13.4268 14.5736 13.3361C14.3956 13.2454 14.2513 13.1002 14.1616 12.9217C14.0719 12.7432 14.0415 12.5407 14.075 12.3438L14.7 8.59375C14.7369 8.37519 14.8501 8.1768 15.0195 8.03377C15.1888 7.89075 15.4033 7.81236 15.625 7.8125H18.75C18.9986 7.8125 19.2371 7.91127 19.4129 8.08709C19.5887 8.2629 19.6875 8.50136 19.6875 8.75C19.6875 8.99864 19.5887 9.2371 19.4129 9.41291C19.2371 9.58873 18.9986 9.6875 18.75 9.6875H16.4195L16.2078 10.9555C16.3257 10.9436 16.444 10.9376 16.5625 10.9375C17.3913 10.9375 18.1862 11.2667 18.7722 11.8528C19.3583 12.4388 19.6875 13.2337 19.6875 14.0625ZM11.25 3.4375C11.0014 3.4375 10.7629 3.53627 10.5871 3.71209C10.4113 3.8879 10.3125 4.12636 10.3125 4.375V8.125H4.0625V4.375C4.0625 4.12636 3.96373 3.8879 3.78791 3.71209C3.6121 3.53627 3.37364 3.4375 3.125 3.4375C2.87636 3.4375 2.6379 3.53627 2.46209 3.71209C2.28627 3.8879 2.1875 4.12636 2.1875 4.375V13.75C2.1875 13.9986 2.28627 14.2371 2.46209 14.4129C2.6379 14.5887 2.87636 14.6875 3.125 14.6875C3.37364 14.6875 3.6121 14.5887 3.78791 14.4129C3.96373 14.2371 4.0625 13.9986 4.0625 13.75V10H10.3125V13.75C10.3125 13.9986 10.4113 14.2371 10.5871 14.4129C10.7629 14.5887 11.0014 14.6875 11.25 14.6875C11.4986 14.6875 11.7371 14.5887 11.9129 14.4129C12.0887 14.2371 12.1875 13.9986 12.1875 13.75V4.375C12.1875 4.12636 12.0887 3.8879 11.9129 3.71209C11.7371 3.53627 11.4986 3.4375 11.25 3.4375Z" fill="#191F2E"/>
</svg>
