<svg width="20" height="20" viewBox="0 0 20 20" fill="none" xmlns="http://www.w3.org/2000/svg">
<path d="M2.1875 5C2.1875 4.75136 2.28627 4.5129 2.46209 4.33709C2.6379 4.16127 2.87636 4.0625 3.125 4.0625H16.875C17.1236 4.0625 17.3621 4.16127 17.5379 4.33709C17.7137 4.5129 17.8125 4.75136 17.8125 5C17.8125 5.24864 17.7137 5.4871 17.5379 5.66291C17.3621 5.83873 17.1236 5.9375 16.875 5.9375H3.125C2.87636 5.9375 2.6379 5.83873 2.46209 5.66291C2.28627 5.4871 2.1875 5.24864 2.1875 5ZM16.875 7.1875H6.875C6.62636 7.1875 6.3879 7.28627 6.21209 7.46209C6.03627 7.6379 5.9375 7.87636 5.9375 8.125C5.9375 8.37364 6.03627 8.6121 6.21209 8.78791C6.3879 8.96373 6.62636 9.0625 6.875 9.0625H16.875C17.1236 9.0625 17.3621 8.96373 17.5379 8.78791C17.7137 8.6121 17.8125 8.37364 17.8125 8.125C17.8125 7.87636 17.7137 7.6379 17.5379 7.46209C17.3621 7.28627 17.1236 7.1875 16.875 7.1875ZM16.875 10.3125H3.125C2.87636 10.3125 2.6379 10.4113 2.46209 10.5871C2.28627 10.7629 2.1875 11.0014 2.1875 11.25C2.1875 11.4986 2.28627 11.7371 2.46209 11.9129C2.6379 12.0887 2.87636 12.1875 3.125 12.1875H16.875C17.1236 12.1875 17.3621 12.0887 17.5379 11.9129C17.7137 11.7371 17.8125 11.4986 17.8125 11.25C17.8125 11.0014 17.7137 10.7629 17.5379 10.5871C17.3621 10.4113 17.1236 10.3125 16.875 10.3125ZM16.875 13.4375H6.875C6.62636 13.4375 6.3879 13.5363 6.21209 13.7121C6.03627 13.8879 5.9375 14.1264 5.9375 14.375C5.9375 14.6236 6.03627 14.8621 6.21209 15.0379C6.3879 15.2137 6.62636 15.3125 6.875 15.3125H16.875C17.1236 15.3125 17.3621 15.2137 17.5379 15.0379C17.7137 14.8621 17.8125 14.6236 17.8125 14.375C17.8125 14.1264 17.7137 13.8879 17.5379 13.7121C17.3621 13.5363 17.1236 13.4375 16.875 13.4375Z" fill="#191F2E"/>
</svg>
