<svg width="20" height="20" viewBox="0 0 20 20" fill="none" xmlns="http://www.w3.org/2000/svg">
<path d="M9.375 14.375V15C9.375 15.1658 9.30915 15.3247 9.19194 15.4419C9.07473 15.5592 8.91576 15.625 8.75 15.625H3.125C2.95924 15.625 2.80027 15.5592 2.68306 15.4419C2.56585 15.3247 2.5 15.1658 2.5 15V14.375C2.5 14.2092 2.56585 14.0503 2.68306 13.9331C2.80027 13.8158 2.95924 13.75 3.125 13.75H8.75C8.91576 13.75 9.07473 13.8158 9.19194 13.9331C9.30915 14.0503 9.375 14.2092 9.375 14.375ZM8.75 7.5H3.125C2.95924 7.5 2.80027 7.56585 2.68306 7.68306C2.56585 7.80027 2.5 7.95924 2.5 8.125V8.75C2.5 8.91576 2.56585 9.07473 2.68306 9.19194C2.80027 9.30915 2.95924 9.375 3.125 9.375H8.75C8.91576 9.375 9.07473 9.30915 9.19194 9.19194C9.30915 9.07473 9.375 8.91576 9.375 8.75V8.125C9.375 7.95924 9.30915 7.80027 9.19194 7.68306C9.07473 7.56585 8.91576 7.5 8.75 7.5ZM8.75 10.625H3.125C2.95924 10.625 2.80027 10.6908 2.68306 10.8081C2.56585 10.9253 2.5 11.0842 2.5 11.25V11.875C2.5 12.0408 2.56585 12.1997 2.68306 12.3169C2.80027 12.4342 2.95924 12.5 3.125 12.5H8.75C8.91576 12.5 9.07473 12.4342 9.19194 12.3169C9.30915 12.1997 9.375 12.0408 9.375 11.875V11.25C9.375 11.0842 9.30915 10.9253 9.19194 10.8081C9.07473 10.6908 8.91576 10.625 8.75 10.625ZM8.75 4.375H3.125C2.95924 4.375 2.80027 4.44085 2.68306 4.55806C2.56585 4.67527 2.5 4.83424 2.5 5V5.625C2.5 5.79076 2.56585 5.94973 2.68306 6.06694C2.80027 6.18415 2.95924 6.25 3.125 6.25H8.75C8.91576 6.25 9.07473 6.18415 9.19194 6.06694C9.30915 5.94973 9.375 5.79076 9.375 5.625V5C9.375 4.83424 9.30915 4.67527 9.19194 4.55806C9.07473 4.44085 8.91576 4.375 8.75 4.375ZM16.875 7.5H11.25C11.0842 7.5 10.9253 7.56585 10.8081 7.68306C10.6908 7.80027 10.625 7.95924 10.625 8.125V8.75C10.625 8.91576 10.6908 9.07473 10.8081 9.19194C10.9253 9.30915 11.0842 9.375 11.25 9.375H16.875C17.0408 9.375 17.1997 9.30915 17.3169 9.19194C17.4342 9.07473 17.5 8.91576 17.5 8.75V8.125C17.5 7.95924 17.4342 7.80027 17.3169 7.68306C17.1997 7.56585 17.0408 7.5 16.875 7.5ZM16.875 13.75H11.25C11.0842 13.75 10.9253 13.8158 10.8081 13.9331C10.6908 14.0503 10.625 14.2092 10.625 14.375V15C10.625 15.1658 10.6908 15.3247 10.8081 15.4419C10.9253 15.5592 11.0842 15.625 11.25 15.625H16.875C17.0408 15.625 17.1997 15.5592 17.3169 15.4419C17.4342 15.3247 17.5 15.1658 17.5 15V14.375C17.5 14.2092 17.4342 14.0503 17.3169 13.9331C17.1997 13.8158 17.0408 13.75 16.875 13.75ZM16.875 4.375H11.25C11.0842 4.375 10.9253 4.44085 10.8081 4.55806C10.6908 4.67527 10.625 4.83424 10.625 5V5.625C10.625 5.79076 10.6908 5.94973 10.8081 6.06694C10.9253 6.18415 11.0842 6.25 11.25 6.25H16.875C17.0408 6.25 17.1997 6.18415 17.3169 6.06694C17.4342 5.94973 17.5 5.79076 17.5 5.625V5C17.5 4.83424 17.4342 4.67527 17.3169 4.55806C17.1997 4.44085 17.0408 4.375 16.875 4.375ZM16.875 10.625H11.25C11.0842 10.625 10.9253 10.6908 10.8081 10.8081C10.6908 10.9253 10.625 11.0842 10.625 11.25V11.875C10.625 12.0408 10.6908 12.1997 10.8081 12.3169C10.9253 12.4342 11.0842 12.5 11.25 12.5H16.875C17.0408 12.5 17.1997 12.4342 17.3169 12.3169C17.4342 12.1997 17.5 12.0408 17.5 11.875V11.25C17.5 11.0842 17.4342 10.9253 17.3169 10.8081C17.1997 10.6908 17.0408 10.625 16.875 10.625Z" fill="#191F2E"/>
</svg>
