<svg width="20" height="20" viewBox="0 0 20 20" fill="none" xmlns="http://www.w3.org/2000/svg">
<path d="M17.5 10C17.5 10.1658 17.4342 10.3247 17.3169 10.4419C17.1997 10.5592 17.0408 10.625 16.875 10.625H13.7445C14.4625 11.1805 15 11.9688 15 13.125C15 14.1672 14.4531 15.1328 13.457 15.843C12.5258 16.5086 11.2977 16.875 10 16.875C8.70234 16.875 7.47422 16.5086 6.54297 15.843C5.54688 15.1328 5 14.1672 5 13.125C5 12.9592 5.06585 12.8003 5.18306 12.6831C5.30027 12.5658 5.45924 12.5 5.625 12.5C5.79076 12.5 5.94973 12.5658 6.06694 12.6831C6.18415 12.8003 6.25 12.9592 6.25 13.125C6.25 14.4805 7.96875 15.625 10 15.625C12.0312 15.625 13.75 14.4805 13.75 13.125C13.75 11.9648 12.9266 11.2828 10.7211 10.625H3.125C2.95924 10.625 2.80027 10.5592 2.68306 10.4419C2.56585 10.3247 2.5 10.1658 2.5 10C2.5 9.83424 2.56585 9.67527 2.68306 9.55806C2.80027 9.44085 2.95924 9.375 3.125 9.375H16.875C17.0408 9.375 17.1997 9.44085 17.3169 9.55806C17.4342 9.67527 17.5 9.83424 17.5 10ZM5.96328 8.125C6.06209 8.12509 6.1595 8.10176 6.24754 8.05691C6.33558 8.01206 6.41174 7.94698 6.46976 7.867C6.52777 7.78703 6.566 7.69444 6.58131 7.59683C6.59662 7.49922 6.58857 7.39937 6.55781 7.30547C6.51308 7.16643 6.49118 7.02105 6.49297 6.875C6.49297 5.45 8.00078 4.375 10 4.375C11.4719 4.375 12.6687 4.95469 13.2031 5.92578C13.2875 6.06177 13.4209 6.1602 13.5758 6.20076C13.7306 6.24132 13.8951 6.22093 14.0353 6.14379C14.1756 6.06666 14.2809 5.93865 14.3296 5.78617C14.3782 5.63368 14.3665 5.46834 14.2969 5.32422C13.5414 3.94688 11.9352 3.125 10 3.125C7.28828 3.125 5.24297 4.73672 5.24297 6.875C5.24164 7.15314 5.28436 7.42975 5.36953 7.69453C5.41052 7.81969 5.49001 7.9287 5.59663 8.00601C5.70326 8.08331 5.83158 8.12496 5.96328 8.125Z" fill="#191F2E"/>
</svg>
