<svg width="20" height="20" viewBox="0 0 20 20" fill="none" xmlns="http://www.w3.org/2000/svg">
<path d="M16.25 2.5H3.75C3.41848 2.5 3.10054 2.6317 2.86612 2.86612C2.6317 3.10054 2.5 3.41848 2.5 3.75V16.25C2.5 16.5815 2.6317 16.8995 2.86612 17.1339C3.10054 17.3683 3.41848 17.5 3.75 17.5H16.25C16.5815 17.5 16.8995 17.3683 17.1339 17.1339C17.3683 16.8995 17.5 16.5815 17.5 16.25V3.75C17.5 3.41848 17.3683 3.10054 17.1339 2.86612C16.8995 2.6317 16.5815 2.5 16.25 2.5ZM11.25 12.5C11.25 12.6658 11.1842 12.8247 11.0669 12.9419C10.9497 13.0592 10.7908 13.125 10.625 13.125C10.4592 13.125 10.3003 13.0592 10.1831 12.9419C10.0658 12.8247 10 12.6658 10 12.5V10H5.625V12.5C5.625 12.6658 5.55915 12.8247 5.44194 12.9419C5.32473 13.0592 5.16576 13.125 5 13.125C4.83424 13.125 4.67527 13.0592 4.55806 12.9419C4.44085 12.8247 4.375 12.6658 4.375 12.5V6.25C4.375 6.08424 4.44085 5.92527 4.55806 5.80806C4.67527 5.69085 4.83424 5.625 5 5.625C5.16576 5.625 5.32473 5.69085 5.44194 5.80806C5.55915 5.92527 5.625 6.08424 5.625 6.25V8.75H10V6.25C10 6.08424 10.0658 5.92527 10.1831 5.80806C10.3003 5.69085 10.4592 5.625 10.625 5.625C10.7908 5.625 10.9497 5.69085 11.0669 5.80806C11.1842 5.92527 11.25 6.08424 11.25 6.25V12.5ZM15.625 13.75C15.625 13.9158 15.5592 14.0747 15.4419 14.1919C15.3247 14.3092 15.1658 14.375 15 14.375C14.8342 14.375 14.6753 14.3092 14.5581 14.1919C14.4408 14.0747 14.375 13.9158 14.375 13.75V8.67188L13.4719 9.27422C13.4035 9.31977 13.3269 9.35142 13.2464 9.36736C13.1658 9.38329 13.0829 9.38321 13.0024 9.3671C12.9218 9.351 12.8453 9.31919 12.777 9.27349C12.7088 9.2278 12.6502 9.16911 12.6047 9.10078C12.5591 9.03245 12.5275 8.95582 12.5115 8.87526C12.4956 8.7947 12.4957 8.71179 12.5118 8.63127C12.5279 8.55074 12.5597 8.47418 12.6054 8.40594C12.6511 8.33771 12.7098 8.27915 12.7781 8.23359L14.6531 6.98359C14.747 6.92096 14.8561 6.88491 14.9688 6.87927C15.0815 6.87364 15.1936 6.89862 15.2933 6.95157C15.3929 7.00452 15.4764 7.08346 15.5348 7.18002C15.5932 7.27658 15.6244 7.38715 15.625 7.5V13.75Z" fill="#191F2E"/>
</svg>
