<svg width="20" height="20" viewBox="0 0 20 20" fill="none" xmlns="http://www.w3.org/2000/svg">
<path d="M11.875 4.375V13.75C11.875 13.9158 11.8092 14.0747 11.6919 14.1919C11.5747 14.3092 11.4158 14.375 11.25 14.375C11.0842 14.375 10.9253 14.3092 10.8081 14.1919C10.6908 14.0747 10.625 13.9158 10.625 13.75V9.6875H3.75V13.75C3.75 13.9158 3.68415 14.0747 3.56694 14.1919C3.44973 14.3092 3.29076 14.375 3.125 14.375C2.95924 14.375 2.80027 14.3092 2.68306 14.1919C2.56585 14.0747 2.5 13.9158 2.5 13.75V4.375C2.5 4.20924 2.56585 4.05027 2.68306 3.93306C2.80027 3.81585 2.95924 3.75 3.125 3.75C3.29076 3.75 3.44973 3.81585 3.56694 3.93306C3.68415 4.05027 3.75 4.20924 3.75 4.375V8.4375H10.625V4.375C10.625 4.20924 10.6908 4.05027 10.8081 3.93306C10.9253 3.81585 11.0842 3.75 11.25 3.75C11.4158 3.75 11.5747 3.81585 11.6919 3.93306C11.8092 4.05027 11.875 4.20924 11.875 4.375ZM17.6188 11.4555L19.2594 9.11172C19.3257 9.01822 19.3651 8.90828 19.3731 8.79392C19.3812 8.67955 19.3576 8.56518 19.305 8.4633C19.2525 8.36143 19.1729 8.27598 19.075 8.21632C18.9771 8.15665 18.8646 8.12506 18.75 8.125H15C14.8342 8.125 14.6753 8.19085 14.5581 8.30806C14.4408 8.42527 14.375 8.58424 14.375 8.75C14.375 8.91576 14.4408 9.07473 14.5581 9.19194C14.6753 9.30915 14.8342 9.375 15 9.375H17.5492L16.0508 11.5164C15.9852 11.61 15.9465 11.7199 15.939 11.834C15.9315 11.9481 15.9555 12.062 16.0082 12.1635C16.061 12.2649 16.1406 12.3499 16.2383 12.4092C16.336 12.4686 16.4482 12.5 16.5625 12.5C16.8201 12.5001 17.0737 12.5639 17.3007 12.6857C17.5276 12.8074 17.721 12.9834 17.8635 13.198C18.006 13.4126 18.0933 13.6591 18.1175 13.9155C18.1417 14.172 18.1022 14.4304 18.0024 14.6679C17.9026 14.9054 17.7456 15.1145 17.5455 15.2766C17.3453 15.4388 17.1081 15.5489 16.8551 15.5972C16.6021 15.6456 16.3411 15.6306 16.0952 15.5537C15.8494 15.4767 15.6264 15.3402 15.4461 15.1562C15.3896 15.094 15.3211 15.0438 15.2447 15.0087C15.1683 14.9735 15.0857 14.9542 15.0016 14.9517C14.9176 14.9493 14.8339 14.9638 14.7556 14.9944C14.6774 15.0251 14.6061 15.0712 14.546 15.13C14.486 15.1889 14.4384 15.2592 14.4062 15.3369C14.3739 15.4145 14.3577 15.4979 14.3584 15.5819C14.3592 15.666 14.3769 15.7491 14.4105 15.8261C14.444 15.9032 14.4928 15.9727 14.5539 16.0305C14.9449 16.4294 15.4459 16.7029 15.9929 16.816C16.5399 16.9291 17.1082 16.8768 17.6254 16.6657C18.1426 16.4546 18.5852 16.0943 18.8968 15.6306C19.2084 15.167 19.3749 14.6211 19.375 14.0625C19.3743 13.5026 19.2069 12.9557 18.8942 12.4914C18.5814 12.027 18.1373 11.6664 17.6188 11.4555Z" fill="#191F2E"/>
</svg>
