<svg width="20" height="20" viewBox="0 0 20 20" fill="none" xmlns="http://www.w3.org/2000/svg">
<path d="M16.25 2.5H3.75C3.41848 2.5 3.10054 2.6317 2.86612 2.86612C2.6317 3.10054 2.5 3.41848 2.5 3.75V16.25C2.5 16.5815 2.6317 16.8995 2.86612 17.1339C3.10054 17.3683 3.41848 17.5 3.75 17.5H16.25C16.5815 17.5 16.8995 17.3683 17.1339 17.1339C17.3683 16.8995 17.5 16.5815 17.5 16.25V3.75C17.5 3.41848 17.3683 3.10054 17.1339 2.86612C16.8995 2.6317 16.5815 2.5 16.25 2.5ZM10 12.5C10 12.6658 9.93415 12.8247 9.81694 12.9419C9.69973 13.0592 9.54076 13.125 9.375 13.125C9.20924 13.125 9.05027 13.0592 8.93306 12.9419C8.81585 12.8247 8.75 12.6658 8.75 12.5V10H5.625V12.5C5.625 12.6658 5.55915 12.8247 5.44194 12.9419C5.32473 13.0592 5.16576 13.125 5 13.125C4.83424 13.125 4.67527 13.0592 4.55806 12.9419C4.44085 12.8247 4.375 12.6658 4.375 12.5V6.25C4.375 6.08424 4.44085 5.92527 4.55806 5.80806C4.67527 5.69085 4.83424 5.625 5 5.625C5.16576 5.625 5.32473 5.69085 5.44194 5.80806C5.55915 5.92527 5.625 6.08424 5.625 6.25V8.75H8.75V6.25C8.75 6.08424 8.81585 5.92527 8.93306 5.80806C9.05027 5.69085 9.20924 5.625 9.375 5.625C9.54076 5.625 9.69973 5.69085 9.81694 5.80806C9.93415 5.92527 10 6.08424 10 6.25V12.5ZM13.125 9.375C13.5302 9.37506 13.9294 9.47364 14.288 9.66222C14.6467 9.85081 14.9542 10.1238 15.1839 10.4576C15.4137 10.7914 15.5589 11.176 15.6069 11.5784C15.655 11.9808 15.6046 12.3888 15.4599 12.7673C15.3153 13.1459 15.0808 13.4836 14.7767 13.7514C14.4725 14.0191 14.1078 14.209 13.714 14.3045C13.3202 14.4001 12.9091 14.3984 12.5161 14.2998C12.123 14.2012 11.7598 14.0085 11.4578 13.7383C11.3373 13.6269 11.2655 13.4727 11.2577 13.3089C11.25 13.145 11.3069 12.9847 11.4163 12.8624C11.5257 12.7402 11.6788 12.6659 11.8425 12.6555C12.0062 12.6452 12.1675 12.6996 12.2914 12.807C12.4718 12.9661 12.6943 13.0698 12.9322 13.1056C13.1701 13.1414 13.4132 13.1078 13.6325 13.0088C13.8518 12.9099 14.0378 12.7497 14.1683 12.5476C14.2988 12.3455 14.3682 12.1101 14.3682 11.8695C14.3682 11.629 14.2988 11.3935 14.1683 11.1914C14.0378 10.9893 13.8518 10.8292 13.6325 10.7302C13.4132 10.6313 13.1701 10.5977 12.9322 10.6334C12.6943 10.6692 12.4718 10.7729 12.2914 10.932C12.1933 11.0201 12.0698 11.0749 11.9387 11.0885C11.8075 11.1022 11.6754 11.074 11.5613 11.008C11.4471 10.9421 11.3567 10.8417 11.3031 10.7213C11.2494 10.6008 11.2352 10.4665 11.2625 10.3375L11.8875 7.36875C11.9176 7.22873 11.9948 7.10329 12.1063 7.01341C12.2178 6.92353 12.3568 6.87467 12.5 6.875H15C15.1658 6.875 15.3247 6.94085 15.4419 7.05806C15.5592 7.17527 15.625 7.33424 15.625 7.5C15.625 7.66576 15.5592 7.82473 15.4419 7.94194C15.3247 8.05915 15.1658 8.125 15 8.125H13.007L12.7344 9.40391C12.8637 9.38469 12.9943 9.37503 13.125 9.375Z" fill="#191F2E"/>
</svg>
