<svg width="20" height="20" viewBox="0 0 20 20" fill="none" xmlns="http://www.w3.org/2000/svg">
<path d="M17.5 10C17.5 10.1658 17.4342 10.3247 17.3169 10.4419C17.1997 10.5592 17.0408 10.625 16.875 10.625H8.75C8.58424 10.625 8.42527 10.5592 8.30806 10.4419C8.19085 10.3247 8.125 10.1658 8.125 10C8.125 9.83424 8.19085 9.67527 8.30806 9.55806C8.42527 9.44085 8.58424 9.375 8.75 9.375H16.875C17.0408 9.375 17.1997 9.44085 17.3169 9.55806C17.4342 9.67527 17.5 9.83424 17.5 10ZM8.75 5.625H16.875C17.0408 5.625 17.1997 5.55916 17.3169 5.44195C17.4342 5.32474 17.5 5.16576 17.5 5C17.5 4.83424 17.4342 4.67527 17.3169 4.55806C17.1997 4.44085 17.0408 4.375 16.875 4.375H8.75C8.58424 4.375 8.42527 4.44085 8.30806 4.55806C8.19085 4.67527 8.125 4.83424 8.125 5C8.125 5.16576 8.19085 5.32474 8.30806 5.44195C8.42527 5.55916 8.58424 5.625 8.75 5.625ZM16.875 14.375H3.125C2.95924 14.375 2.80027 14.4409 2.68306 14.5581C2.56585 14.6753 2.5 14.8342 2.5 15C2.5 15.1658 2.56585 15.3247 2.68306 15.4419C2.80027 15.5592 2.95924 15.625 3.125 15.625H16.875C17.0408 15.625 17.1997 15.5592 17.3169 15.4419C17.4342 15.3247 17.5 15.1658 17.5 15C17.5 14.8342 17.4342 14.6753 17.3169 14.5581C17.1997 14.4409 17.0408 14.375 16.875 14.375ZM2.88594 11.2023C3.00013 11.2497 3.1258 11.2622 3.24706 11.2381C3.36833 11.2141 3.47973 11.1546 3.56719 11.0672L6.69219 7.94219C6.7503 7.88415 6.7964 7.81522 6.82785 7.73934C6.8593 7.66347 6.87549 7.58214 6.87549 7.5C6.87549 7.41787 6.8593 7.33654 6.82785 7.26067C6.7964 7.18479 6.7503 7.11586 6.69219 7.05782L3.56719 3.93282C3.47978 3.84531 3.36837 3.7857 3.24707 3.76155C3.12576 3.73739 3.00002 3.74977 2.88576 3.79711C2.77149 3.84446 2.67384 3.92464 2.60517 4.02752C2.53651 4.13039 2.4999 4.25132 2.5 4.375V10.625C2.50003 10.7486 2.53671 10.8694 2.6054 10.9722C2.6741 11.075 2.77173 11.1551 2.88594 11.2023Z" fill="#191F2E"/>
</svg>
