<svg width="20" height="20" viewBox="0 0 20 20" fill="none" xmlns="http://www.w3.org/2000/svg">
<path d="M17.5 10.0001C17.5 10.1659 17.4342 10.3248 17.3169 10.442C17.1997 10.5593 17.0408 10.6251 16.875 10.6251H8.75C8.58424 10.6251 8.42527 10.5593 8.30806 10.442C8.19085 10.3248 8.125 10.1659 8.125 10.0001C8.125 9.83434 8.19085 9.67537 8.30806 9.55816C8.42527 9.44095 8.58424 9.3751 8.75 9.3751H16.875C17.0408 9.3751 17.1997 9.44095 17.3169 9.55816C17.4342 9.67537 17.5 9.83434 17.5 10.0001ZM8.75 5.6251H16.875C17.0408 5.6251 17.1997 5.55926 17.3169 5.44204C17.4342 5.32483 17.5 5.16586 17.5 5.0001C17.5 4.83434 17.4342 4.67537 17.3169 4.55816C17.1997 4.44095 17.0408 4.3751 16.875 4.3751H8.75C8.58424 4.3751 8.42527 4.44095 8.30806 4.55816C8.19085 4.67537 8.125 4.83434 8.125 5.0001C8.125 5.16586 8.19085 5.32483 8.30806 5.44204C8.42527 5.55926 8.58424 5.6251 8.75 5.6251ZM16.875 14.3751H3.125C2.95924 14.3751 2.80027 14.441 2.68306 14.5582C2.56585 14.6754 2.5 14.8343 2.5 15.0001C2.5 15.1659 2.56585 15.3248 2.68306 15.442C2.80027 15.5593 2.95924 15.6251 3.125 15.6251H16.875C17.0408 15.6251 17.1997 15.5593 17.3169 15.442C17.4342 15.3248 17.5 15.1659 17.5 15.0001C17.5 14.8343 17.4342 14.6754 17.3169 14.5582C17.1997 14.441 17.0408 14.3751 16.875 14.3751ZM5.625 11.2501C5.74869 11.2502 5.86962 11.2136 5.97249 11.1449C6.07536 11.0763 6.15555 10.9786 6.20289 10.8643C6.25024 10.7501 6.26262 10.6243 6.23846 10.503C6.2143 10.3817 6.1547 10.2703 6.06719 10.1829L3.3836 7.5001L6.06719 4.81729C6.18447 4.70002 6.25035 4.54096 6.25035 4.3751C6.25035 4.20925 6.18447 4.05019 6.06719 3.93292C5.94992 3.81564 5.79086 3.74976 5.625 3.74976C5.45915 3.74976 5.30009 3.81564 5.18282 3.93292L2.05782 7.05792C1.99971 7.11596 1.95361 7.18489 1.92215 7.26077C1.8907 7.33664 1.87451 7.41797 1.87451 7.5001C1.87451 7.58224 1.8907 7.66357 1.92215 7.73944C1.95361 7.81531 1.99971 7.88425 2.05782 7.94229L5.18282 11.0673C5.2409 11.1253 5.30985 11.1713 5.38572 11.2027C5.46159 11.2341 5.5429 11.2502 5.625 11.2501Z" fill="#191F2E"/>
</svg>
