<svg width="20" height="20" viewBox="0 0 20 20" fill="none" xmlns="http://www.w3.org/2000/svg">
<path d="M17.8125 9.99997C17.8125 10.2486 17.7137 10.4871 17.5379 10.6629C17.3621 10.8387 17.1236 10.9375 16.875 10.9375H9.37501C9.12637 10.9375 8.88791 10.8387 8.71209 10.6629C8.53628 10.4871 8.43751 10.2486 8.43751 9.99997C8.43751 9.75133 8.53628 9.51287 8.71209 9.33705C8.88791 9.16124 9.12637 9.06247 9.37501 9.06247H16.875C17.1236 9.06247 17.3621 9.16124 17.5379 9.33705C17.7137 9.51287 17.8125 9.75133 17.8125 9.99997ZM9.37501 5.93747H16.875C17.1236 5.93747 17.3621 5.83869 17.5379 5.66288C17.7137 5.48706 17.8125 5.24861 17.8125 4.99997C17.8125 4.75133 17.7137 4.51287 17.5379 4.33705C17.3621 4.16124 17.1236 4.06247 16.875 4.06247H9.37501C9.12637 4.06247 8.88791 4.16124 8.71209 4.33705C8.53628 4.51287 8.43751 4.75133 8.43751 4.99997C8.43751 5.24861 8.53628 5.48706 8.71209 5.66288C8.88791 5.83869 9.12637 5.93747 9.37501 5.93747ZM16.875 14.0625H3.12501C2.87637 14.0625 2.63791 14.1612 2.46209 14.3371C2.28628 14.5129 2.18751 14.7513 2.18751 15C2.18751 15.2486 2.28628 15.4871 2.46209 15.6629C2.63791 15.8387 2.87637 15.9375 3.12501 15.9375H16.875C17.1236 15.9375 17.3621 15.8387 17.5379 15.6629C17.7137 15.4871 17.8125 15.2486 17.8125 15C17.8125 14.7513 17.7137 14.5129 17.5379 14.3371C17.3621 14.1612 17.1236 14.0625 16.875 14.0625ZM2.46172 11.2882C2.54882 11.3756 2.65231 11.445 2.76627 11.4923C2.88022 11.5396 3.0024 11.564 3.12579 11.564C3.24917 11.564 3.37135 11.5396 3.4853 11.4923C3.59926 11.445 3.70275 11.3756 3.78985 11.2882L6.91485 8.16325C7.00225 8.07615 7.0716 7.97266 7.11891 7.8587C7.16623 7.74475 7.19059 7.62257 7.19059 7.49918C7.19059 7.3758 7.16623 7.25362 7.11891 7.13967C7.0716 7.02571 7.00225 6.92222 6.91485 6.83512L3.78985 3.71012C3.70264 3.62292 3.59912 3.55374 3.48518 3.50655C3.37124 3.45935 3.24911 3.43506 3.12579 3.43506C3.00246 3.43506 2.88034 3.45935 2.7664 3.50655C2.65246 3.55374 2.54893 3.62292 2.46172 3.71012C2.2856 3.88624 2.18666 4.12511 2.18666 4.37418C2.18666 4.62326 2.2856 4.86213 2.46172 5.03825L4.92188 7.49997L2.46172 9.96169C2.37456 10.0488 2.30541 10.1521 2.25823 10.266C2.21105 10.3798 2.18677 10.5018 2.18677 10.625C2.18677 10.7482 2.21105 10.8702 2.25823 10.984C2.30541 11.0978 2.37456 11.2012 2.46172 11.2882Z" fill="#191F2E"/>
</svg>
