<svg width="20" height="20" viewBox="0 0 20 20" fill="none" xmlns="http://www.w3.org/2000/svg">
<path d="M16.25 2.5H3.75C3.41848 2.5 3.10054 2.6317 2.86612 2.86612C2.6317 3.10054 2.5 3.41848 2.5 3.75V16.25C2.5 16.5815 2.6317 16.8995 2.86612 17.1339C3.10054 17.3683 3.41848 17.5 3.75 17.5H16.25C16.5815 17.5 16.8995 17.3683 17.1339 17.1339C17.3683 16.8995 17.5 16.5815 17.5 16.25V3.75C17.5 3.41848 17.3683 3.10054 17.1339 2.86612C16.8995 2.6317 16.5815 2.5 16.25 2.5ZM14.375 13.75C14.375 13.9158 14.3092 14.0747 14.1919 14.1919C14.0747 14.3092 13.9158 14.375 13.75 14.375C13.5842 14.375 13.4253 14.3092 13.3081 14.1919C13.1908 14.0747 13.125 13.9158 13.125 13.75V10.625H6.875V13.75C6.875 13.9158 6.80915 14.0747 6.69194 14.1919C6.57473 14.3092 6.41576 14.375 6.25 14.375C6.08424 14.375 5.92527 14.3092 5.80806 14.1919C5.69085 14.0747 5.625 13.9158 5.625 13.75V6.25C5.625 6.08424 5.69085 5.92527 5.80806 5.80806C5.92527 5.69085 6.08424 5.625 6.25 5.625C6.41576 5.625 6.57473 5.69085 6.69194 5.80806C6.80915 5.92527 6.875 6.08424 6.875 6.25V9.375H13.125V6.25C13.125 6.08424 13.1908 5.92527 13.3081 5.80806C13.4253 5.69085 13.5842 5.625 13.75 5.625C13.9158 5.625 14.0747 5.69085 14.1919 5.80806C14.3092 5.92527 14.375 6.08424 14.375 6.25V13.75Z" fill="#191F2E"/>
</svg>
