<svg width="20" height="20" viewBox="0 0 20 20" fill="none" xmlns="http://www.w3.org/2000/svg">
<path d="M20 13.75C20 13.9986 19.9012 14.2371 19.7254 14.4129C19.5496 14.5887 19.3111 14.6875 19.0625 14.6875V16.25C19.0625 16.4986 18.9637 16.7371 18.7879 16.9129C18.6121 17.0887 18.3736 17.1875 18.125 17.1875C17.8764 17.1875 17.6379 17.0887 17.4621 16.9129C17.2863 16.7371 17.1875 16.4986 17.1875 16.25V14.6875H14.375C14.2265 14.6874 14.0802 14.6521 13.948 14.5844C13.8159 14.5167 13.7017 14.4186 13.6149 14.2981C13.5281 14.1777 13.4711 14.0383 13.4487 13.8916C13.4263 13.7448 13.439 13.5948 13.4859 13.4539L15.3609 7.82891C15.4449 7.60009 15.6147 7.41297 15.8343 7.30722C16.0539 7.20147 16.306 7.1854 16.5373 7.26241C16.7685 7.33943 16.9607 7.50347 17.073 7.71977C17.1854 7.93608 17.2091 8.18762 17.1391 8.42109L15.6758 12.8125H17.1875V11.25C17.1875 11.0014 17.2863 10.7629 17.4621 10.5871C17.6379 10.4113 17.8764 10.3125 18.125 10.3125C18.3736 10.3125 18.6121 10.4113 18.7879 10.5871C18.9637 10.7629 19.0625 11.0014 19.0625 11.25V12.8125C19.3111 12.8125 19.5496 12.9113 19.7254 13.0871C19.9012 13.2629 20 13.5014 20 13.75ZM11.25 3.4375C11.0014 3.4375 10.7629 3.53627 10.5871 3.71209C10.4113 3.8879 10.3125 4.12636 10.3125 4.375V8.125H4.0625V4.375C4.0625 4.12636 3.96373 3.8879 3.78791 3.71209C3.6121 3.53627 3.37364 3.4375 3.125 3.4375C2.87636 3.4375 2.6379 3.53627 2.46209 3.71209C2.28627 3.8879 2.1875 4.12636 2.1875 4.375V13.75C2.1875 13.9986 2.28627 14.2371 2.46209 14.4129C2.6379 14.5887 2.87636 14.6875 3.125 14.6875C3.37364 14.6875 3.6121 14.5887 3.78791 14.4129C3.96373 14.2371 4.0625 13.9986 4.0625 13.75V10H10.3125V13.75C10.3125 13.9986 10.4113 14.2371 10.5871 14.4129C10.7629 14.5887 11.0014 14.6875 11.25 14.6875C11.4986 14.6875 11.7371 14.5887 11.9129 14.4129C12.0887 14.2371 12.1875 13.9986 12.1875 13.75V4.375C12.1875 4.12636 12.0887 3.8879 11.9129 3.71209C11.7371 3.53627 11.4986 3.4375 11.25 3.4375Z" fill="#191F2E"/>
</svg>
