<svg width="20" height="20" viewBox="0 0 20 20" fill="none" xmlns="http://www.w3.org/2000/svg">
<path d="M15.9375 17.5C15.9375 17.7486 15.8387 17.9871 15.6629 18.1629C15.4871 18.3387 15.2486 18.4375 15 18.4375H5C4.75136 18.4375 4.5129 18.3387 4.33709 18.1629C4.16127 17.9871 4.0625 17.7486 4.0625 17.5C4.0625 17.2514 4.16127 17.0129 4.33709 16.8371C4.5129 16.6613 4.75136 16.5625 5 16.5625H15C15.2486 16.5625 15.4871 16.6613 15.6629 16.8371C15.8387 17.0129 15.9375 17.2514 15.9375 17.5ZM10 15.3125C11.4085 15.3111 12.7589 14.7509 13.7549 13.7549C14.7509 12.7589 15.3111 11.4085 15.3125 10V4.375C15.3125 4.12636 15.2137 3.8879 15.0379 3.71209C14.8621 3.53627 14.6236 3.4375 14.375 3.4375C14.1264 3.4375 13.8879 3.53627 13.7121 3.71209C13.5363 3.8879 13.4375 4.12636 13.4375 4.375V10C13.4375 10.9117 13.0753 11.786 12.4307 12.4307C11.786 13.0753 10.9117 13.4375 10 13.4375C9.08832 13.4375 8.21398 13.0753 7.56932 12.4307C6.92466 11.786 6.5625 10.9117 6.5625 10V4.375C6.5625 4.12636 6.46373 3.8879 6.28791 3.71209C6.1121 3.53627 5.87364 3.4375 5.625 3.4375C5.37636 3.4375 5.1379 3.53627 4.96209 3.71209C4.78627 3.8879 4.6875 4.12636 4.6875 4.375V10C4.68895 11.4085 5.24912 12.7589 6.24509 13.7549C7.24107 14.7509 8.59148 15.3111 10 15.3125Z" fill="#191F2E"/>
</svg>
