<svg width="20" height="20" viewBox="0 0 20 20" fill="none" xmlns="http://www.w3.org/2000/svg">
<path d="M16.5625 4.375V15.625C16.5625 15.8736 16.4637 16.1121 16.2879 16.2879C16.1121 16.4637 15.8736 16.5625 15.625 16.5625C15.3764 16.5625 15.1379 16.4637 14.9621 16.2879C14.7863 16.1121 14.6875 15.8736 14.6875 15.625V10.9375H5.3125V15.625C5.3125 15.8736 5.21373 16.1121 5.03791 16.2879C4.8621 16.4637 4.62364 16.5625 4.375 16.5625C4.12636 16.5625 3.8879 16.4637 3.71209 16.2879C3.53627 16.1121 3.4375 15.8736 3.4375 15.625V4.375C3.4375 4.12636 3.53627 3.8879 3.71209 3.71209C3.8879 3.53627 4.12636 3.4375 4.375 3.4375C4.62364 3.4375 4.8621 3.53627 5.03791 3.71209C5.21373 3.8879 5.3125 4.12636 5.3125 4.375V9.0625H14.6875V4.375C14.6875 4.12636 14.7863 3.8879 14.9621 3.71209C15.1379 3.53627 15.3764 3.4375 15.625 3.4375C15.8736 3.4375 16.1121 3.53627 16.2879 3.71209C16.4637 3.8879 16.5625 4.12636 16.5625 4.375Z" fill="#191F2E"/>
</svg>
