<svg width="20" height="20" viewBox="0 0 20 20" fill="none" xmlns="http://www.w3.org/2000/svg">
<path d="M2.1875 5C2.1875 4.75136 2.28627 4.5129 2.46209 4.33709C2.6379 4.16127 2.87636 4.0625 3.125 4.0625H16.875C17.1236 4.0625 17.3621 4.16127 17.5379 4.33709C17.7137 4.5129 17.8125 4.75136 17.8125 5C17.8125 5.24864 17.7137 5.4871 17.5379 5.66291C17.3621 5.83873 17.1236 5.9375 16.875 5.9375H3.125C2.87636 5.9375 2.6379 5.83873 2.46209 5.66291C2.28627 5.4871 2.1875 5.24864 2.1875 5ZM5 7.1875C4.75136 7.1875 4.5129 7.28627 4.33709 7.46209C4.16127 7.6379 4.0625 7.87636 4.0625 8.125C4.0625 8.37364 4.16127 8.6121 4.33709 8.78791C4.5129 8.96373 4.75136 9.0625 5 9.0625H15C15.2486 9.0625 15.4871 8.96373 15.6629 8.78791C15.8387 8.6121 15.9375 8.37364 15.9375 8.125C15.9375 7.87636 15.8387 7.6379 15.6629 7.46209C15.4871 7.28627 15.2486 7.1875 15 7.1875H5ZM16.875 10.3125H3.125C2.87636 10.3125 2.6379 10.4113 2.46209 10.5871C2.28627 10.7629 2.1875 11.0014 2.1875 11.25C2.1875 11.4986 2.28627 11.7371 2.46209 11.9129C2.6379 12.0887 2.87636 12.1875 3.125 12.1875H16.875C17.1236 12.1875 17.3621 12.0887 17.5379 11.9129C17.7137 11.7371 17.8125 11.4986 17.8125 11.25C17.8125 11.0014 17.7137 10.7629 17.5379 10.5871C17.3621 10.4113 17.1236 10.3125 16.875 10.3125ZM15 13.4375H5C4.75136 13.4375 4.5129 13.5363 4.33709 13.7121C4.16127 13.8879 4.0625 14.1264 4.0625 14.375C4.0625 14.6236 4.16127 14.8621 4.33709 15.0379C4.5129 15.2137 4.75136 15.3125 5 15.3125H15C15.2486 15.3125 15.4871 15.2137 15.6629 15.0379C15.8387 14.8621 15.9375 14.6236 15.9375 14.375C15.9375 14.1264 15.8387 13.8879 15.6629 13.7121C15.4871 13.5363 15.2486 13.4375 15 13.4375Z" fill="#191F2E"/>
</svg>
