<svg width="20" height="20" viewBox="0 0 20 20" fill="none" xmlns="http://www.w3.org/2000/svg">
<path d="M14.0625 11.7727V4.375C14.0625 3.29756 13.6345 2.26425 12.8726 1.50238C12.1108 0.740512 11.0774 0.3125 10 0.3125C8.92256 0.3125 7.88925 0.740512 7.12738 1.50238C6.36551 2.26425 5.9375 3.29756 5.9375 4.375V11.7727C5.40142 12.5198 5.08177 13.4004 5.01371 14.3174C4.94566 15.2345 5.13182 16.1525 5.55174 16.9707C5.97166 17.7888 6.60906 18.4752 7.39385 18.9545C8.17864 19.4339 9.08042 19.6875 10 19.6875C10.9196 19.6875 11.8214 19.4339 12.6062 18.9545C13.3909 18.4752 14.0283 17.7888 14.4483 16.9707C14.8682 16.1525 15.0543 15.2345 14.9863 14.3174C14.9182 13.4004 14.5986 12.5198 14.0625 11.7727ZM10 17.8125C9.40791 17.8125 8.828 17.6443 8.32779 17.3275C7.82759 17.0107 7.42769 16.5583 7.17465 16.023C6.92161 15.4877 6.82585 14.8915 6.89853 14.3039C6.97121 13.7163 7.20933 13.1614 7.58516 12.7039C7.73175 12.5338 7.81243 12.3167 7.8125 12.0922V4.375C7.8125 3.79484 8.04297 3.23844 8.45321 2.8282C8.86344 2.41797 9.41984 2.1875 10 2.1875C10.5802 2.1875 11.1366 2.41797 11.5468 2.8282C11.957 3.23844 12.1875 3.79484 12.1875 4.375V12.0914C12.1873 12.3106 12.2639 12.5228 12.4039 12.6914C12.783 13.148 13.0242 13.7031 13.0993 14.2917C13.1745 14.8803 13.0805 15.4782 12.8283 16.0154C12.5762 16.5526 12.1763 17.0069 11.6754 17.3251C11.1745 17.6433 10.5934 17.8124 10 17.8125ZM11.875 14.6875C11.8751 15.0166 11.7885 15.34 11.624 15.6251C11.4594 15.9102 11.2228 16.1469 10.9377 16.3115C10.6527 16.4761 10.3294 16.5628 10.0002 16.5629C9.67108 16.5629 9.34772 16.4763 9.06266 16.3117C8.77759 16.1472 8.54087 15.9105 8.37627 15.6255C8.21168 15.3404 8.12502 15.0171 8.125 14.688C8.12499 14.3588 8.21162 14.0355 8.37618 13.7504C8.54075 13.4653 8.77745 13.2286 9.0625 13.0641V7.1875C9.0625 6.93886 9.16127 6.7004 9.33709 6.52459C9.5129 6.34877 9.75136 6.25 10 6.25C10.2486 6.25 10.4871 6.34877 10.6629 6.52459C10.8387 6.7004 10.9375 6.93886 10.9375 7.1875V13.0641C11.2225 13.2286 11.4591 13.4652 11.6237 13.7502C11.7883 14.0352 11.8749 14.3584 11.875 14.6875Z" fill="#191F2E"/>
</svg>
