<svg width="20" height="20" viewBox="0 0 20 20" fill="none" xmlns="http://www.w3.org/2000/svg">
<path d="M16.5625 4.375C16.1299 4.375 15.7069 4.50329 15.3472 4.74366C14.9875 4.98403 14.7071 5.32567 14.5415 5.72538C14.3759 6.12509 14.3326 6.56493 14.417 6.98926C14.5014 7.41359 14.7098 7.80337 15.0157 8.1093C15.3216 8.41522 15.7114 8.62356 16.1357 8.70797C16.5601 8.79237 16.9999 8.74905 17.3996 8.58349C17.7993 8.41792 18.141 8.13754 18.3813 7.77781C18.6217 7.41808 18.75 6.99515 18.75 6.5625C18.75 5.98234 18.5195 5.42594 18.1093 5.0157C17.6991 4.60547 17.1427 4.375 16.5625 4.375ZM16.5625 7.5C16.3771 7.5 16.1958 7.44502 16.0417 7.342C15.8875 7.23899 15.7673 7.09257 15.6964 6.92127C15.6254 6.74996 15.6068 6.56146 15.643 6.3796C15.6792 6.19775 15.7685 6.0307 15.8996 5.89959C16.0307 5.76848 16.1977 5.67919 16.3796 5.64301C16.5615 5.60684 16.75 5.62541 16.9213 5.69636C17.0926 5.76732 17.239 5.88748 17.342 6.04165C17.445 6.19582 17.5 6.37708 17.5 6.5625C17.5 6.81114 17.4012 7.0496 17.2254 7.22541C17.0496 7.40123 16.8111 7.5 16.5625 7.5ZM10 11.9531V6.875C10 6.70924 9.93415 6.55027 9.81694 6.43306C9.69973 6.31585 9.54076 6.25 9.375 6.25C9.20924 6.25 9.05027 6.31585 8.93306 6.43306C8.81585 6.55027 8.75 6.70924 8.75 6.875V11.9531C8.16084 12.1052 7.64738 12.467 7.30587 12.9706C6.96437 13.4742 6.81825 14.0851 6.89493 14.6888C6.9716 15.2924 7.26579 15.8473 7.72235 16.2496C8.17892 16.6518 8.76652 16.8737 9.375 16.8737C9.98348 16.8737 10.5711 16.6518 11.0276 16.2496C11.4842 15.8473 11.7784 15.2924 11.8551 14.6888C11.9317 14.0851 11.7856 13.4742 11.4441 12.9706C11.1026 12.467 10.5892 12.1052 10 11.9531ZM9.375 15.625C9.12777 15.625 8.8861 15.5517 8.68054 15.4143C8.47498 15.277 8.31476 15.0818 8.22015 14.8534C8.12554 14.6249 8.10079 14.3736 8.14902 14.1311C8.19725 13.8887 8.3163 13.6659 8.49112 13.4911C8.66593 13.3163 8.88866 13.1972 9.13114 13.149C9.37361 13.1008 9.62495 13.1255 9.85335 13.2201C10.0818 13.3148 10.277 13.475 10.4143 13.6805C10.5517 13.8861 10.625 14.1278 10.625 14.375C10.625 14.7065 10.4933 15.0245 10.2589 15.2589C10.0245 15.4933 9.70652 15.625 9.375 15.625ZM12.5 10.4688V3.75C12.5 2.9212 12.1708 2.12634 11.5847 1.54029C10.9987 0.95424 10.2038 0.625 9.375 0.625C8.5462 0.625 7.75134 0.95424 7.16529 1.54029C6.57924 2.12634 6.25 2.9212 6.25 3.75V10.4688C5.44134 11.1162 4.85375 11.9988 4.56841 12.9947C4.28308 13.9905 4.3141 15.0504 4.65718 16.0278C5.00027 17.0053 5.63848 17.852 6.48361 18.4511C7.32875 19.0501 8.33909 19.3719 9.375 19.3719C10.4109 19.3719 11.4212 19.0501 12.2664 18.4511C13.1115 17.852 13.7497 17.0053 14.0928 16.0278C14.4359 15.0504 14.4669 13.9905 14.1816 12.9947C13.8963 11.9988 13.3087 11.1162 12.5 10.4688ZM9.375 18.125C8.57652 18.1251 7.79886 17.8703 7.15525 17.3977C6.51163 16.9251 6.03567 16.2594 5.79665 15.4975C5.55763 14.7357 5.56803 13.9174 5.82634 13.1619C6.08466 12.4063 6.57739 11.7529 7.23281 11.2969C7.31575 11.239 7.38339 11.1618 7.42993 11.072C7.47647 10.9822 7.50051 10.8824 7.5 10.7812V3.75C7.5 3.25272 7.69754 2.77581 8.04917 2.42417C8.40081 2.07254 8.87772 1.875 9.375 1.875C9.87228 1.875 10.3492 2.07254 10.7008 2.42417C11.0525 2.77581 11.25 3.25272 11.25 3.75V10.7812C11.25 10.8819 11.2743 10.981 11.3208 11.0702C11.3673 11.1595 11.4347 11.2361 11.5172 11.2937C12.174 11.7493 12.668 12.4029 12.9272 13.159C13.1864 13.9152 13.1972 14.7344 12.958 15.4971C12.7188 16.2598 12.2422 16.9261 11.5976 17.3989C10.9531 17.8716 10.1743 18.126 9.375 18.125Z" fill="#191F2E"/>
</svg>
