<svg width="20" height="20" viewBox="0 0 20 20" fill="none" xmlns="http://www.w3.org/2000/svg">
<path d="M13.6031 6.46953C13.462 6.26481 13.408 6.01243 13.453 5.76791C13.498 5.52338 13.6383 5.30673 13.843 5.16563C14.7695 4.52656 16.168 4.52656 17.0945 5.16563C17.3781 5.36094 17.9344 5.36094 18.218 5.16563C18.4227 5.02692 18.674 4.97476 18.9171 5.02049C19.1601 5.06622 19.3753 5.20614 19.5156 5.40977C19.656 5.61341 19.7102 5.86426 19.6664 6.10768C19.6227 6.3511 19.4845 6.56737 19.282 6.70937C18.7976 7.02245 18.2331 7.18899 17.6563 7.18899C17.0794 7.18899 16.5149 7.02245 16.0305 6.70937C15.7469 6.51406 15.1906 6.51406 14.907 6.70937C14.7023 6.85047 14.4499 6.90447 14.2054 6.85949C13.9609 6.81451 13.7442 6.67424 13.6031 6.46953ZM18.218 8.29063C17.9344 8.48594 17.3781 8.48594 17.0945 8.29063C16.168 7.65156 14.7695 7.65156 13.843 8.29063C13.7405 8.36003 13.6528 8.44903 13.5849 8.5525C13.517 8.65597 13.4703 8.77186 13.4474 8.89348C13.4245 9.0151 13.4259 9.14005 13.4516 9.26112C13.4772 9.38218 13.5266 9.49697 13.5968 9.59887C13.6671 9.70077 13.7568 9.78775 13.8608 9.8548C13.9648 9.92185 14.0811 9.96764 14.2029 9.98953C14.3247 10.0114 14.4496 10.009 14.5705 9.98236C14.6913 9.95573 14.8057 9.90543 14.907 9.83437C15.1906 9.63906 15.7469 9.63906 16.0305 9.83437C16.5149 10.1474 17.0794 10.314 17.6563 10.314C18.2331 10.314 18.7976 10.1474 19.282 9.83437C19.4845 9.69237 19.6227 9.4761 19.6664 9.23268C19.7102 8.98926 19.656 8.73841 19.5156 8.53477C19.3753 8.33114 19.1601 8.19122 18.9171 8.14549C18.674 8.09976 18.4227 8.15192 18.218 8.29063ZM12.5 11.7727C13.0361 12.5198 13.3557 13.4004 13.4238 14.3174C13.4918 15.2345 13.3057 16.1525 12.8858 16.9707C12.4658 17.7888 11.8284 18.4752 11.0437 18.9545C10.2589 19.4339 9.35709 19.6875 8.4375 19.6875C7.51792 19.6875 6.61614 19.4339 5.83135 18.9545C5.04656 18.4752 4.40916 17.7888 3.98924 16.9707C3.56932 16.1525 3.38316 15.2345 3.45121 14.3174C3.51927 13.4004 3.83892 12.5198 4.375 11.7727V4.375C4.375 3.29756 4.80301 2.26425 5.56488 1.50238C6.32675 0.740512 7.36006 0.3125 8.4375 0.3125C9.51494 0.3125 10.5483 0.740512 11.3101 1.50238C12.072 2.26425 12.5 3.29756 12.5 4.375V11.7727ZM11.5625 14.6875C11.5624 13.9584 11.3073 13.2523 10.8414 12.6914C10.7014 12.5228 10.6248 12.3106 10.625 12.0914V4.375C10.625 3.79484 10.3945 3.23844 9.9843 2.8282C9.57406 2.41797 9.01766 2.1875 8.4375 2.1875C7.85734 2.1875 7.30094 2.41797 6.89071 2.8282C6.48047 3.23844 6.25 3.79484 6.25 4.375V12.0922C6.24993 12.3167 6.16925 12.5338 6.02266 12.7039C5.70468 13.091 5.48443 13.549 5.3805 14.039C5.27656 14.5291 5.29197 15.037 5.42544 15.5199C5.5589 16.0028 5.80651 16.4465 6.14738 16.8136C6.48825 17.1808 6.9124 17.4606 7.38406 17.6295C7.85572 17.7983 8.36107 17.8514 8.85751 17.784C9.35395 17.7167 9.82693 17.531 10.2366 17.2426C10.6462 16.9541 10.9805 16.5715 11.2113 16.1268C11.442 15.6821 11.5625 15.1885 11.5625 14.6875ZM9.375 13.0641V4.375C9.375 4.12636 9.27623 3.8879 9.10041 3.71209C8.9246 3.53627 8.68614 3.4375 8.4375 3.4375C8.18886 3.4375 7.9504 3.53627 7.77459 3.71209C7.59877 3.8879 7.5 4.12636 7.5 4.375V13.0641C7.14255 13.2704 6.86318 13.589 6.70523 13.9703C6.54727 14.3517 6.51956 14.7745 6.62639 15.1731C6.73322 15.5718 6.96862 15.9241 7.29607 16.1754C7.62353 16.4267 8.02475 16.5629 8.4375 16.5629C8.85025 16.5629 9.25147 16.4267 9.57893 16.1754C9.90639 15.9241 10.1418 15.5718 10.2486 15.1731C10.3554 14.7745 10.3277 14.3517 10.1698 13.9703C10.0118 13.589 9.73246 13.2704 9.375 13.0641Z" fill="#191F2E"/>
</svg>
