<svg width="20" height="20" viewBox="0 0 20 20" fill="none" xmlns="http://www.w3.org/2000/svg">
<path d="M12.5 11.4125V3.125C12.5 2.46196 12.2366 1.82607 11.7678 1.35723C11.2989 0.888392 10.663 0.625 10 0.625C9.33696 0.625 8.70107 0.888392 8.23223 1.35723C7.76339 1.82607 7.5 2.46196 7.5 3.125V11.4125C6.73563 11.9447 6.16108 12.707 5.85995 13.5884C5.55883 14.4698 5.54685 15.4243 5.82577 16.313C6.10469 17.2016 6.65994 17.9781 7.41071 18.5294C8.16148 19.0806 9.06859 19.3779 10 19.3779C10.9314 19.3779 11.8385 19.0806 12.5893 18.5294C13.3401 17.9781 13.8953 17.2016 14.1742 16.313C14.4531 15.4243 14.4412 14.4698 14.14 13.5884C13.8389 12.707 13.2644 11.9447 12.5 11.4125ZM10 1.875C10.3315 1.875 10.6495 2.0067 10.8839 2.24112C11.1183 2.47554 11.25 2.79348 11.25 3.125V6.25H8.75V3.125C8.75 2.79348 8.8817 2.47554 9.11612 2.24112C9.35054 2.0067 9.66848 1.875 10 1.875Z" fill="#191F2E"/>
</svg>
