<svg width="20" height="20" viewBox="0 0 20 20" fill="none" xmlns="http://www.w3.org/2000/svg">
<path d="M19.2297 6.36875L18.0797 6.74297L18.7906 7.72109C18.9368 7.92229 18.9971 8.17331 18.9582 8.41893C18.9193 8.66456 18.7844 8.88468 18.5832 9.03086C18.382 9.17704 18.131 9.23731 17.8854 9.19841C17.6397 9.15951 17.4196 9.02463 17.2734 8.82344L16.5625 7.84531L15.8516 8.82344C15.7054 9.02463 15.4853 9.15951 15.2396 9.19841C14.994 9.23731 14.743 9.17704 14.5418 9.03086C14.3406 8.88468 14.2057 8.66456 14.1668 8.41893C14.1279 8.17331 14.1882 7.92229 14.3344 7.72109L15.0453 6.74297L13.8953 6.36875C13.7755 6.33303 13.664 6.27371 13.5675 6.19427C13.4709 6.11484 13.3912 6.01689 13.3331 5.90619C13.275 5.7955 13.2396 5.67429 13.229 5.54971C13.2184 5.42513 13.2328 5.29969 13.2715 5.18078C13.3101 5.06186 13.3721 4.95187 13.4538 4.85727C13.5356 4.76268 13.6354 4.68539 13.7475 4.62997C13.8596 4.57454 13.9816 4.54209 14.1064 4.53453C14.2312 4.52697 14.3563 4.54445 14.4742 4.58594L15.625 4.95937V3.75C15.625 3.50136 15.7238 3.2629 15.8996 3.08709C16.0754 2.91127 16.3139 2.8125 16.5625 2.8125C16.8111 2.8125 17.0496 2.91127 17.2254 3.08709C17.4012 3.2629 17.5 3.50136 17.5 3.75V4.95937L18.6508 4.58594C18.7687 4.54445 18.8938 4.52697 19.0186 4.53453C19.1434 4.54209 19.2654 4.57454 19.3775 4.62997C19.4896 4.68539 19.5894 4.76268 19.6712 4.85727C19.7529 4.95187 19.8149 5.06186 19.8536 5.18078C19.8922 5.29969 19.9066 5.42513 19.896 5.54971C19.8854 5.67429 19.85 5.7955 19.7919 5.90619C19.7338 6.01689 19.6541 6.11484 19.5575 6.19427C19.461 6.27371 19.3495 6.33303 19.2297 6.36875ZM12.5 11.7727C13.0361 12.5198 13.3557 13.4004 13.4238 14.3174C13.4918 15.2345 13.3057 16.1525 12.8858 16.9707C12.4658 17.7888 11.8284 18.4752 11.0437 18.9545C10.2589 19.4339 9.35709 19.6875 8.4375 19.6875C7.51792 19.6875 6.61614 19.4339 5.83135 18.9545C5.04656 18.4752 4.40916 17.7888 3.98924 16.9707C3.56932 16.1525 3.38316 15.2345 3.45121 14.3174C3.51927 13.4004 3.83892 12.5198 4.375 11.7727V4.375C4.375 3.29756 4.80301 2.26425 5.56488 1.50238C6.32675 0.740512 7.36006 0.3125 8.4375 0.3125C9.51494 0.3125 10.5483 0.740512 11.3101 1.50238C12.072 2.26425 12.5 3.29756 12.5 4.375V11.7727ZM11.5625 14.6875C11.5624 13.9584 11.3073 13.2523 10.8414 12.6914C10.7014 12.5228 10.6248 12.3106 10.625 12.0914V4.375C10.625 3.79484 10.3945 3.23844 9.9843 2.8282C9.57406 2.41797 9.01766 2.1875 8.4375 2.1875C7.85734 2.1875 7.30094 2.41797 6.89071 2.8282C6.48047 3.23844 6.25 3.79484 6.25 4.375V12.0922C6.24993 12.3167 6.16925 12.5338 6.02266 12.7039C5.70468 13.091 5.48443 13.549 5.3805 14.039C5.27656 14.5291 5.29197 15.037 5.42544 15.5199C5.5589 16.0028 5.80651 16.4465 6.14738 16.8136C6.48825 17.1808 6.9124 17.4606 7.38406 17.6295C7.85572 17.7983 8.36107 17.8514 8.85751 17.784C9.35395 17.7167 9.82693 17.531 10.2366 17.2426C10.6462 16.9541 10.9805 16.5715 11.2113 16.1268C11.442 15.6821 11.5625 15.1885 11.5625 14.6875ZM9.375 13.0641V9.375C9.375 9.12636 9.27623 8.8879 9.10041 8.71209C8.9246 8.53627 8.68614 8.4375 8.4375 8.4375C8.18886 8.4375 7.9504 8.53627 7.77459 8.71209C7.59877 8.8879 7.5 9.12636 7.5 9.375V13.0641C7.14255 13.2704 6.86318 13.589 6.70523 13.9703C6.54727 14.3517 6.51956 14.7745 6.62639 15.1731C6.73322 15.5718 6.96862 15.9241 7.29607 16.1754C7.62353 16.4267 8.02475 16.5629 8.4375 16.5629C8.85025 16.5629 9.25147 16.4267 9.57893 16.1754C9.90639 15.9241 10.1418 15.5718 10.2486 15.1731C10.3554 14.7745 10.3277 14.3517 10.1698 13.9703C10.0118 13.589 9.73246 13.2704 9.375 13.0641Z" fill="#191F2E"/>
</svg>
