<svg width="20" height="20" viewBox="0 0 20 20" fill="none" xmlns="http://www.w3.org/2000/svg">
<path d="M13.8602 6.29219C13.7663 6.15572 13.7304 5.98756 13.7605 5.82467C13.7905 5.66177 13.8839 5.51746 14.0203 5.42344C14.8328 4.8625 16.1047 4.8625 16.9172 5.42344C17.3078 5.69453 18.0016 5.69453 18.3953 5.42344C18.5318 5.33674 18.6965 5.30629 18.8549 5.33846C19.0133 5.37064 19.1531 5.46296 19.2449 5.59601C19.3367 5.72907 19.3734 5.89253 19.3473 6.05206C19.3211 6.21159 19.2342 6.35478 19.1047 6.45156C18.6715 6.72607 18.1691 6.87181 17.6562 6.87181C17.1434 6.87181 16.641 6.72607 16.2078 6.45156C15.8172 6.18047 15.1234 6.18047 14.7297 6.45156C14.6621 6.4982 14.5861 6.53108 14.5058 6.54831C14.4255 6.56555 14.3427 6.5668 14.2619 6.552C14.1812 6.5372 14.1041 6.50664 14.0352 6.46206C13.9663 6.41748 13.9068 6.35976 13.8602 6.29219ZM18.3953 7.92344C18.0047 8.19453 17.3109 8.19453 16.9172 7.92344C16.1047 7.3625 14.8328 7.3625 14.0203 7.92344C13.9494 7.96852 13.8882 8.02746 13.8406 8.09673C13.7929 8.16599 13.7597 8.24416 13.743 8.32655C13.7263 8.40893 13.7263 8.49385 13.7432 8.57622C13.76 8.65858 13.7933 8.7367 13.8411 8.8059C13.8888 8.8751 13.95 8.93395 14.021 8.97894C14.0921 9.02393 14.1714 9.05413 14.2544 9.06773C14.3374 9.08133 14.4222 9.07805 14.5039 9.05809C14.5855 9.03813 14.6623 9.0019 14.7297 8.95156C15.1203 8.68047 15.8141 8.68047 16.2078 8.95156C16.641 9.22607 17.1434 9.37181 17.6562 9.37181C18.1691 9.37181 18.6715 9.22607 19.1047 8.95156C19.2342 8.85478 19.3211 8.71159 19.3473 8.55206C19.3734 8.39253 19.3367 8.22907 19.2449 8.09601C19.1531 7.96296 19.0133 7.87064 18.8549 7.83846C18.6965 7.80629 18.5318 7.83674 18.3953 7.92344ZM13.75 15C13.7505 15.7524 13.5569 16.4922 13.188 17.148C12.8191 17.8037 12.2873 18.3532 11.644 18.7435C11.0007 19.1337 10.2676 19.3514 9.51563 19.3756C8.76362 19.3998 8.01808 19.2296 7.35103 18.8815C6.68399 18.5335 6.11798 18.0192 5.7077 17.3885C5.29741 16.7578 5.05672 16.032 5.00886 15.2811C4.961 14.5302 5.1076 13.7797 5.4345 13.102C5.7614 12.4244 6.25754 11.8424 6.875 11.4125V3.125C6.875 2.46196 7.13839 1.82607 7.60723 1.35723C8.07607 0.888392 8.71196 0.625 9.375 0.625C10.038 0.625 10.6739 0.888392 11.1428 1.35723C11.6116 1.82607 11.875 2.46196 11.875 3.125V11.4125C12.4534 11.8152 12.9259 12.3517 13.2524 12.9764C13.5788 13.601 13.7495 14.2952 13.75 15ZM10.625 3.125C10.625 2.79348 10.4933 2.47554 10.2589 2.24112C10.0245 2.0067 9.70652 1.875 9.375 1.875C9.04348 1.875 8.72554 2.0067 8.49112 2.24112C8.2567 2.47554 8.125 2.79348 8.125 3.125V6.25H10.625V3.125Z" fill="#191F2E"/>
</svg>
