<svg width="20" height="20" viewBox="0 0 20 20" fill="none" xmlns="http://www.w3.org/2000/svg">
<path d="M13.8602 6.29219C13.7663 6.15572 13.7304 5.98756 13.7605 5.82467C13.7905 5.66177 13.8839 5.51746 14.0203 5.42344C14.8328 4.8625 16.1047 4.8625 16.9172 5.42344C17.3078 5.69453 18.0016 5.69453 18.3953 5.42344C18.5318 5.33674 18.6965 5.30629 18.8549 5.33846C19.0133 5.37064 19.1531 5.46296 19.2449 5.59601C19.3367 5.72907 19.3734 5.89253 19.3473 6.05206C19.3211 6.21159 19.2342 6.35478 19.1047 6.45156C18.6715 6.72607 18.1691 6.87181 17.6562 6.87181C17.1434 6.87181 16.641 6.72607 16.2078 6.45156C15.8172 6.18047 15.1234 6.18047 14.7297 6.45156C14.6621 6.4982 14.5861 6.53108 14.5058 6.54831C14.4255 6.56555 14.3427 6.5668 14.2619 6.552C14.1812 6.5372 14.1041 6.50664 14.0352 6.46206C13.9663 6.41748 13.9068 6.35976 13.8602 6.29219ZM18.3953 7.92344C18.0047 8.19453 17.3109 8.19453 16.9172 7.92344C16.1047 7.3625 14.8328 7.3625 14.0203 7.92344C13.9494 7.96852 13.8882 8.02746 13.8406 8.09673C13.7929 8.16599 13.7597 8.24416 13.743 8.32655C13.7263 8.40893 13.7263 8.49385 13.7432 8.57622C13.76 8.65858 13.7933 8.7367 13.8411 8.8059C13.8888 8.8751 13.95 8.93395 14.021 8.97894C14.0921 9.02393 14.1714 9.05413 14.2544 9.06773C14.3374 9.08133 14.4222 9.07805 14.5039 9.05809C14.5855 9.03813 14.6623 9.0019 14.7297 8.95156C15.1203 8.68047 15.8141 8.68047 16.2078 8.95156C16.641 9.22607 17.1434 9.37181 17.6562 9.37181C18.1691 9.37181 18.6715 9.22607 19.1047 8.95156C19.2342 8.85478 19.3211 8.71159 19.3473 8.55206C19.3734 8.39253 19.3367 8.22907 19.2449 8.09601C19.1531 7.96296 19.0133 7.87064 18.8549 7.83846C18.6965 7.80629 18.5318 7.83674 18.3953 7.92344ZM11.875 14.375C11.8748 14.8425 11.7434 15.3006 11.4959 15.6973C11.2484 16.0939 10.8946 16.4132 10.4748 16.6189C10.0549 16.8245 9.58577 16.9083 9.12067 16.8608C8.65556 16.8132 8.21312 16.6362 7.84357 16.3498C7.47403 16.0634 7.1922 15.6791 7.03009 15.2406C6.86798 14.802 6.83209 14.3268 6.92649 13.8689C7.0209 13.411 7.24181 12.9888 7.56414 12.6501C7.88648 12.3115 8.29732 12.07 8.75 11.9531V3.75C8.75 3.58424 8.81585 3.42527 8.93306 3.30806C9.05027 3.19085 9.20924 3.125 9.375 3.125C9.54076 3.125 9.69973 3.19085 9.81694 3.30806C9.93415 3.42527 10 3.58424 10 3.75V11.9531C10.5365 12.0925 11.0115 12.4058 11.3508 12.8441C11.6901 13.2823 11.8745 13.8207 11.875 14.375ZM10.625 14.375C10.625 14.1278 10.5517 13.8861 10.4143 13.6805C10.277 13.475 10.0818 13.3148 9.85335 13.2201C9.62495 13.1255 9.37361 13.1008 9.13114 13.149C8.88866 13.1972 8.66593 13.3163 8.49112 13.4911C8.3163 13.6659 8.19725 13.8887 8.14902 14.1311C8.10079 14.3736 8.12554 14.6249 8.22015 14.8534C8.31476 15.0818 8.47498 15.277 8.68054 15.4143C8.8861 15.5517 9.12777 15.625 9.375 15.625C9.70652 15.625 10.0245 15.4933 10.2589 15.2589C10.4933 15.0245 10.625 14.7065 10.625 14.375ZM14.375 14.375C14.3745 15.2205 14.1596 16.052 13.7504 16.7918C13.3412 17.5316 12.7511 18.1556 12.0352 18.6055C11.3194 19.0553 10.5011 19.3162 9.65702 19.3639C8.81291 19.4116 7.9705 19.2445 7.20853 18.8781C6.44656 18.5118 5.78993 17.9582 5.30002 17.2692C4.81011 16.5802 4.50292 15.7781 4.40717 14.9381C4.31142 14.0981 4.43024 13.2475 4.75252 12.4659C5.0748 11.6843 5.59002 10.9972 6.25 10.4688V3.75C6.25 2.9212 6.57924 2.12634 7.16529 1.54029C7.75134 0.95424 8.5462 0.625 9.375 0.625C10.2038 0.625 10.9987 0.95424 11.5847 1.54029C12.1708 2.12634 12.5 2.9212 12.5 3.75V10.4688C13.0852 10.9378 13.5575 11.5324 13.882 12.2085C14.2065 12.8846 14.375 13.625 14.375 14.375ZM13.125 14.375C13.1245 13.7704 12.9781 13.1749 12.6982 12.639C12.4183 12.1031 12.0131 11.6427 11.5172 11.2969C11.4343 11.239 11.3666 11.1618 11.3201 11.072C11.2735 10.9822 11.2495 10.8824 11.25 10.7812V3.75C11.25 3.25272 11.0525 2.77581 10.7008 2.42417C10.3492 2.07254 9.87228 1.875 9.375 1.875C8.87772 1.875 8.40081 2.07254 8.04918 2.42417C7.69754 2.77581 7.5 3.25272 7.5 3.75V10.7812C7.50001 10.8819 7.47572 10.981 7.42921 11.0702C7.38269 11.1595 7.31532 11.2361 7.23281 11.2937C6.70366 11.662 6.27838 12.1605 5.99805 12.7411C5.71773 13.3217 5.59181 13.9647 5.63246 14.6081C5.67312 15.2515 5.87897 15.8736 6.23014 16.4143C6.58131 16.955 7.06594 17.396 7.63725 17.6947C8.20855 17.9935 8.84723 18.1399 9.49162 18.1198C10.136 18.0998 10.7644 17.914 11.316 17.5803C11.8676 17.2466 12.3239 16.7763 12.6408 16.2148C12.9576 15.6534 13.1244 15.0197 13.125 14.375Z" fill="#191F2E"/>
</svg>
