<svg width="20" height="20" viewBox="0 0 20 20" fill="none" xmlns="http://www.w3.org/2000/svg">
<path d="M16.5625 4.0625C16.068 4.0625 15.5847 4.20912 15.1736 4.48383C14.7625 4.75853 14.442 5.14898 14.2528 5.60579C14.0636 6.06261 14.0141 6.56527 14.1105 7.05023C14.207 7.53518 14.4451 7.98064 14.7947 8.33027C15.1444 8.6799 15.5898 8.918 16.0748 9.01446C16.5597 9.11093 17.0624 9.06142 17.5192 8.8722C17.976 8.68298 18.3665 8.36255 18.6412 7.95143C18.9159 7.5403 19.0625 7.05695 19.0625 6.5625C19.0625 5.89946 18.7991 5.26357 18.3303 4.79473C17.8614 4.32589 17.2255 4.0625 16.5625 4.0625ZM16.5625 7.1875C16.4389 7.1875 16.3181 7.15084 16.2153 7.08217C16.1125 7.01349 16.0324 6.91588 15.9851 6.80168C15.9378 6.68747 15.9254 6.56181 15.9495 6.44057C15.9736 6.31933 16.0332 6.20797 16.1206 6.12056C16.208 6.03315 16.3193 5.97362 16.4406 5.94951C16.5618 5.92539 16.6875 5.93777 16.8017 5.98507C16.9159 6.03238 17.0135 6.11249 17.0822 6.21527C17.1508 6.31805 17.1875 6.43889 17.1875 6.5625C17.1875 6.72826 17.1217 6.88723 17.0044 7.00444C16.8872 7.12165 16.7283 7.1875 16.5625 7.1875ZM12.5 4.375C12.5 3.29756 12.072 2.26425 11.3101 1.50238C10.5483 0.740512 9.51494 0.3125 8.4375 0.3125C7.36006 0.3125 6.32675 0.740512 5.56488 1.50238C4.80301 2.26425 4.375 3.29756 4.375 4.375V11.7727C3.83892 12.5198 3.51927 13.4004 3.45121 14.3174C3.38316 15.2345 3.56932 16.1525 3.98924 16.9707C4.40916 17.7888 5.04656 18.4752 5.83135 18.9545C6.61614 19.4339 7.51792 19.6875 8.4375 19.6875C9.35709 19.6875 10.2589 19.4339 11.0437 18.9545C11.8284 18.4752 12.4658 17.7888 12.8858 16.9707C13.3057 16.1525 13.4918 15.2345 13.4238 14.3174C13.3557 13.4004 13.0361 12.5198 12.5 11.7727V4.375ZM8.4375 17.8125C7.84541 17.8125 7.26549 17.6443 6.76529 17.3275C6.26509 17.0107 5.86518 16.5583 5.61215 16.023C5.35911 15.4877 5.26335 14.8915 5.33603 14.3039C5.40871 13.7163 5.64683 13.1614 6.02266 12.7039C6.16925 12.5338 6.24993 12.3167 6.25 12.0922V4.375C6.25 3.79484 6.48047 3.23844 6.89071 2.8282C7.30094 2.41797 7.85734 2.1875 8.4375 2.1875C9.01766 2.1875 9.57406 2.41797 9.9843 2.8282C10.3945 3.23844 10.625 3.79484 10.625 4.375V12.0914C10.6248 12.3106 10.7014 12.5228 10.8414 12.6914C11.2205 13.148 11.4617 13.7031 11.5368 14.2917C11.612 14.8803 11.518 15.4782 11.2658 16.0154C11.0137 16.5526 10.6138 17.0069 10.1129 17.3251C9.61204 17.6433 9.03092 17.8124 8.4375 17.8125ZM10.3125 14.6875C10.3126 15.0166 10.226 15.34 10.0615 15.6251C9.89693 15.9102 9.66026 16.1469 9.37524 16.3115C9.09021 16.4761 8.76687 16.5628 8.43773 16.5629C8.10858 16.5629 7.78522 16.4763 7.50016 16.3117C7.21509 16.1472 6.97837 15.9105 6.81377 15.6255C6.64918 15.3404 6.56252 15.0171 6.5625 14.688C6.56249 14.3588 6.64912 14.0355 6.81368 13.7504C6.97825 13.4653 7.21495 13.2286 7.5 13.0641V7.1875C7.5 6.93886 7.59877 6.7004 7.77459 6.52459C7.9504 6.34877 8.18886 6.25 8.4375 6.25C8.68614 6.25 8.9246 6.34877 9.10041 6.52459C9.27623 6.7004 9.375 6.93886 9.375 7.1875V13.0641C9.65999 13.2286 9.89665 13.4652 10.0612 13.7502C10.2258 14.0352 10.3124 14.3584 10.3125 14.6875Z" fill="#191F2E"/>
</svg>
