<svg width="20" height="20" viewBox="0 0 20 20" fill="none" xmlns="http://www.w3.org/2000/svg">
<path d="M16.5625 4.375C16.1299 4.375 15.7069 4.50329 15.3472 4.74366C14.9875 4.98403 14.7071 5.32567 14.5415 5.72538C14.3759 6.12509 14.3326 6.56493 14.417 6.98926C14.5014 7.41359 14.7098 7.80337 15.0157 8.1093C15.3216 8.41522 15.7114 8.62356 16.1357 8.70797C16.5601 8.79237 16.9999 8.74905 17.3996 8.58349C17.7993 8.41792 18.141 8.13754 18.3813 7.77781C18.6217 7.41808 18.75 6.99515 18.75 6.5625C18.75 5.98234 18.5195 5.42594 18.1093 5.0157C17.6991 4.60547 17.1427 4.375 16.5625 4.375ZM16.5625 7.5C16.3771 7.5 16.1958 7.44502 16.0417 7.342C15.8875 7.23899 15.7673 7.09257 15.6964 6.92127C15.6254 6.74996 15.6068 6.56146 15.643 6.3796C15.6792 6.19775 15.7685 6.0307 15.8996 5.89959C16.0307 5.76848 16.1977 5.67919 16.3796 5.64301C16.5615 5.60684 16.75 5.62541 16.9213 5.69636C17.0926 5.76732 17.239 5.88748 17.342 6.04165C17.445 6.19582 17.5 6.37708 17.5 6.5625C17.5 6.81114 17.4012 7.0496 17.2254 7.22541C17.0496 7.40123 16.8111 7.5 16.5625 7.5ZM11.875 11.4125V3.125C11.875 2.46196 11.6116 1.82607 11.1428 1.35723C10.6739 0.888392 10.038 0.625 9.375 0.625C8.71196 0.625 8.07607 0.888392 7.60723 1.35723C7.13839 1.82607 6.875 2.46196 6.875 3.125V11.4125C6.11063 11.9447 5.53608 12.707 5.23495 13.5884C4.93383 14.4698 4.92185 15.4243 5.20077 16.313C5.47969 17.2016 6.03494 17.9781 6.78571 18.5294C7.53648 19.0806 8.44359 19.3779 9.375 19.3779C10.3064 19.3779 11.2135 19.0806 11.9643 18.5294C12.7151 17.9781 13.2703 17.2016 13.5492 16.313C13.8281 15.4243 13.8162 14.4698 13.515 13.5884C13.2139 12.707 12.6394 11.9447 11.875 11.4125ZM10.625 6.25H8.125V3.125C8.125 2.79348 8.2567 2.47554 8.49112 2.24112C8.72554 2.0067 9.04348 1.875 9.375 1.875C9.70652 1.875 10.0245 2.0067 10.2589 2.24112C10.4933 2.47554 10.625 2.79348 10.625 3.125V6.25Z" fill="#191F2E"/>
</svg>
