<svg width="20" height="20" viewBox="0 0 20 20" fill="none" xmlns="http://www.w3.org/2000/svg">
<path d="M19.4461 6.07188L17.8836 6.57891L18.8477 7.90703C18.8986 7.97323 18.9358 8.04897 18.9569 8.12977C18.9781 8.21058 18.9829 8.29481 18.971 8.37748C18.959 8.46016 18.9306 8.53961 18.8875 8.61113C18.8443 8.68265 18.7873 8.74479 18.7197 8.79389C18.6521 8.84298 18.5754 8.87803 18.494 8.89696C18.4126 8.91589 18.3283 8.91832 18.246 8.90411C18.1637 8.88989 18.0851 8.85932 18.0148 8.8142C17.9445 8.76908 17.8839 8.71032 17.8367 8.64141L16.875 7.31328L15.9109 8.64141C15.8117 8.77039 15.666 8.85556 15.5049 8.87881C15.3438 8.90205 15.18 8.86154 15.0483 8.76588C14.9166 8.67022 14.8275 8.52696 14.7998 8.36657C14.7721 8.20618 14.808 8.04132 14.9 7.90703L15.8641 6.57891L14.3016 6.07188C14.1439 6.0207 14.013 5.90898 13.9377 5.76129C13.8624 5.61361 13.8488 5.44205 13.9 5.28438C13.9512 5.1267 14.0629 4.9958 14.2106 4.9205C14.3583 4.84519 14.5298 4.83163 14.6875 4.88281L16.25 5.39062V3.75C16.25 3.58424 16.3158 3.42527 16.4331 3.30806C16.5503 3.19085 16.7092 3.125 16.875 3.125C17.0408 3.125 17.1997 3.19085 17.3169 3.30806C17.4342 3.42527 17.5 3.58424 17.5 3.75V5.39062L19.0625 4.88359C19.2202 4.83231 19.3918 4.84577 19.5395 4.921C19.6873 4.99624 19.7991 5.12709 19.8504 5.28477C19.9017 5.44244 19.8882 5.61404 19.813 5.7618C19.7377 5.90955 19.6069 6.02137 19.4492 6.07266L19.4461 6.07188ZM11.875 14.375C11.8748 14.8425 11.7434 15.3006 11.4959 15.6973C11.2484 16.0939 10.8946 16.4132 10.4748 16.6189C10.0549 16.8245 9.58577 16.9083 9.12067 16.8608C8.65556 16.8132 8.21312 16.6362 7.84357 16.3498C7.47403 16.0634 7.1922 15.6791 7.03009 15.2406C6.86798 14.802 6.83209 14.3268 6.92649 13.8689C7.0209 13.411 7.24181 12.9888 7.56414 12.6501C7.88648 12.3115 8.29732 12.07 8.75 11.9531V9.375C8.75 9.20924 8.81585 9.05027 8.93306 8.93306C9.05027 8.81585 9.20924 8.75 9.375 8.75C9.54076 8.75 9.69973 8.81585 9.81694 8.93306C9.93415 9.05027 10 9.20924 10 9.375V11.9531C10.5365 12.0925 11.0115 12.4058 11.3508 12.8441C11.6901 13.2823 11.8745 13.8207 11.875 14.375ZM10.625 14.375C10.625 14.1278 10.5517 13.8861 10.4143 13.6805C10.277 13.475 10.0818 13.3148 9.85335 13.2201C9.62495 13.1255 9.37361 13.1008 9.13114 13.149C8.88866 13.1972 8.66593 13.3163 8.49112 13.4911C8.3163 13.6659 8.19725 13.8887 8.14902 14.1311C8.10079 14.3736 8.12554 14.6249 8.22015 14.8534C8.31476 15.0818 8.47498 15.277 8.68054 15.4143C8.8861 15.5517 9.12777 15.625 9.375 15.625C9.70652 15.625 10.0245 15.4933 10.2589 15.2589C10.4933 15.0245 10.625 14.7065 10.625 14.375ZM14.375 14.375C14.3745 15.2205 14.1596 16.052 13.7504 16.7918C13.3412 17.5316 12.7511 18.1556 12.0352 18.6055C11.3194 19.0553 10.5011 19.3162 9.65702 19.3639C8.81291 19.4116 7.9705 19.2445 7.20853 18.8781C6.44656 18.5118 5.78993 17.9582 5.30002 17.2692C4.81011 16.5802 4.50292 15.7781 4.40717 14.9381C4.31142 14.0981 4.43024 13.2475 4.75252 12.4659C5.0748 11.6843 5.59002 10.9972 6.25 10.4688V3.75C6.25 2.9212 6.57924 2.12634 7.16529 1.54029C7.75134 0.95424 8.5462 0.625 9.375 0.625C10.2038 0.625 10.9987 0.95424 11.5847 1.54029C12.1708 2.12634 12.5 2.9212 12.5 3.75V10.4688C13.0852 10.9378 13.5575 11.5324 13.882 12.2085C14.2065 12.8846 14.375 13.625 14.375 14.375ZM13.125 14.375C13.1245 13.7704 12.9781 13.1749 12.6982 12.639C12.4183 12.1031 12.0131 11.6427 11.5172 11.2969C11.4343 11.239 11.3666 11.1618 11.3201 11.072C11.2735 10.9822 11.2495 10.8824 11.25 10.7812V3.75C11.25 3.25272 11.0525 2.77581 10.7008 2.42417C10.3492 2.07254 9.87228 1.875 9.375 1.875C8.87772 1.875 8.40081 2.07254 8.04918 2.42417C7.69754 2.77581 7.5 3.25272 7.5 3.75V10.7812C7.50001 10.8819 7.47572 10.981 7.42921 11.0702C7.38269 11.1595 7.31532 11.2361 7.23281 11.2937C6.70366 11.662 6.27838 12.1605 5.99805 12.7411C5.71773 13.3217 5.59181 13.9647 5.63246 14.6081C5.67312 15.2515 5.87897 15.8736 6.23014 16.4143C6.58131 16.955 7.06594 17.396 7.63725 17.6947C8.20855 17.9935 8.84723 18.1399 9.49162 18.1198C10.136 18.0998 10.7644 17.914 11.316 17.5803C11.8676 17.2466 12.3239 16.7763 12.6408 16.2148C12.9576 15.6534 13.1244 15.0197 13.125 14.375Z" fill="#191F2E"/>
</svg>
