<svg width="20" height="20" viewBox="0 0 20 20" fill="none" xmlns="http://www.w3.org/2000/svg">
<path d="M17.8125 8.46875C18.1653 8.39674 18.4824 8.20508 18.7102 7.92621C18.9379 7.64733 19.0624 7.29835 19.0625 6.93828V5C19.0625 4.5856 18.8979 4.18817 18.6049 3.89515C18.3118 3.60212 17.9144 3.4375 17.5 3.4375H2.5C2.0856 3.4375 1.68817 3.60212 1.39515 3.89515C1.10212 4.18817 0.9375 4.5856 0.9375 5V6.93828C0.937607 7.29835 1.06207 7.64733 1.28984 7.92621C1.51761 8.20508 1.8347 8.39674 2.1875 8.46875C2.54072 8.54047 2.85827 8.7321 3.08637 9.01117C3.31446 9.29024 3.43907 9.63958 3.43907 10C3.43907 10.3604 3.31446 10.7098 3.08637 10.9888C2.85827 11.2679 2.54072 11.4595 2.1875 11.5312C1.8347 11.6033 1.51761 11.7949 1.28984 12.0738C1.06207 12.3527 0.937607 12.7016 0.9375 13.0617V15C0.9375 15.4144 1.10212 15.8118 1.39515 16.1049C1.68817 16.3979 2.0856 16.5625 2.5 16.5625H17.5C17.9144 16.5625 18.3118 16.3979 18.6049 16.1049C18.8979 15.8118 19.0625 15.4144 19.0625 15V13.0617C19.0624 12.7016 18.9379 12.3527 18.7102 12.0738C18.4824 11.7949 18.1653 11.6033 17.8125 11.5312C17.4593 11.4595 17.1417 11.2679 16.9136 10.9888C16.6855 10.7098 16.5609 10.3604 16.5609 10C16.5609 9.63958 16.6855 9.29024 16.9136 9.01117C17.1417 8.7321 17.4593 8.54047 17.8125 8.46875ZM2.8125 13.3078C3.53287 13.1041 4.16706 12.6708 4.61869 12.0738C5.07032 11.4768 5.3147 10.7486 5.3147 10C5.3147 9.25139 5.07032 8.52323 4.61869 7.9262C4.16706 7.32916 3.53287 6.89588 2.8125 6.69219V5.3125H6.5625V14.6875H2.8125V13.3078ZM17.1875 13.3078V14.6875H8.4375V5.3125H17.1875V6.69219C16.4671 6.89588 15.8329 7.32916 15.3813 7.9262C14.9297 8.52323 14.6853 9.25139 14.6853 10C14.6853 10.7486 14.9297 11.4768 15.3813 12.0738C15.8329 12.6708 16.4671 13.1041 17.1875 13.3078Z" fill="#191F2E"/>
</svg>
