<svg width="20" height="20" viewBox="0 0 20 20" fill="none" xmlns="http://www.w3.org/2000/svg">
<path d="M19.8172 7.05782L16.6922 3.93282C16.6341 3.87471 16.5652 3.82861 16.4893 3.79715C16.4135 3.7657 16.3321 3.74951 16.25 3.74951C16.1679 3.74951 16.0865 3.7657 16.0107 3.79715C15.9348 3.82861 15.8659 3.87471 15.8078 3.93282L13.125 6.61641L10.4422 3.93282C10.3841 3.87471 10.3152 3.82861 10.2393 3.79715C10.1635 3.7657 10.0821 3.74951 10 3.74951C9.91787 3.74951 9.83654 3.7657 9.76067 3.79715C9.68479 3.82861 9.61586 3.87471 9.55782 3.93282L6.875 6.61641L4.19219 3.93282C4.13415 3.87471 4.06522 3.82861 3.98934 3.79715C3.91347 3.7657 3.83214 3.74951 3.75 3.74951C3.66787 3.74951 3.58654 3.7657 3.51067 3.79715C3.43479 3.82861 3.36586 3.87471 3.30782 3.93282L0.182816 7.05782C0.124706 7.11586 0.0786062 7.18479 0.0471536 7.26067C0.0157009 7.33654 -0.000488281 7.41787 -0.000488281 7.5C-0.000488281 7.58214 0.0157009 7.66347 0.0471536 7.73934C0.0786062 7.81522 0.124706 7.88415 0.182816 7.94219L3.30782 11.0672C3.36586 11.1253 3.43479 11.1714 3.51067 11.2029C3.58654 11.2343 3.66787 11.2505 3.75 11.2505C3.83214 11.2505 3.91347 11.2343 3.98934 11.2029C4.06522 11.1714 4.13415 11.1253 4.19219 11.0672L6.875 8.3836L9.11641 10.625L6.43282 13.3078C6.37471 13.3659 6.32861 13.4348 6.29715 13.5107C6.2657 13.5865 6.24951 13.6679 6.24951 13.75C6.24951 13.8321 6.2657 13.9135 6.29715 13.9893C6.32861 14.0652 6.37471 14.1341 6.43282 14.1922L9.55782 17.3172C9.61586 17.3753 9.68479 17.4214 9.76067 17.4529C9.83654 17.4843 9.91787 17.5005 10 17.5005C10.0821 17.5005 10.1635 17.4843 10.2393 17.4529C10.3152 17.4214 10.3841 17.3753 10.4422 17.3172L13.5672 14.1922C13.6253 14.1341 13.6714 14.0652 13.7029 13.9893C13.7343 13.9135 13.7505 13.8321 13.7505 13.75C13.7505 13.6679 13.7343 13.5865 13.7029 13.5107C13.6714 13.4348 13.6253 13.3659 13.5672 13.3078L10.8836 10.625L13.125 8.3836L15.8078 11.0672C15.8659 11.1253 15.9348 11.1714 16.0107 11.2029C16.0865 11.2343 16.1679 11.2505 16.25 11.2505C16.3321 11.2505 16.4135 11.2343 16.4893 11.2029C16.5652 11.1714 16.6341 11.1253 16.6922 11.0672L19.8172 7.94219C19.8753 7.88415 19.9214 7.81522 19.9529 7.73934C19.9843 7.66347 20.0005 7.58214 20.0005 7.5C20.0005 7.41787 19.9843 7.33654 19.9529 7.26067C19.9214 7.18479 19.8753 7.11586 19.8172 7.05782ZM3.75 9.74141L1.5086 7.5L3.75 5.2586L5.99141 7.5L3.75 9.74141ZM10 15.9914L7.7586 13.75L10 11.5086L12.2414 13.75L10 15.9914ZM10 9.74141L7.7586 7.5L10 5.2586L12.2414 7.5L10 9.74141ZM16.25 9.74141L14.0086 7.5L16.25 5.2586L18.4914 7.5L16.25 9.74141Z" fill="#191F2E"/>
</svg>
