<svg width="20" height="20" viewBox="0 0 20 20" fill="none" xmlns="http://www.w3.org/2000/svg">
<path d="M19.7258 6.83671L16.757 3.86796C16.6699 3.78056 16.5664 3.71122 16.4525 3.6639C16.3385 3.61658 16.2163 3.59222 16.0929 3.59222C15.9696 3.59222 15.8474 3.61658 15.7334 3.6639C15.6195 3.71122 15.516 3.78056 15.4289 3.86796L13.125 6.17187L10.6633 3.71171C10.5762 3.62431 10.4727 3.55497 10.3587 3.50765C10.2448 3.46033 10.1226 3.43597 9.99919 3.43597C9.8758 3.43597 9.75363 3.46033 9.63967 3.50765C9.52572 3.55497 9.42222 3.62431 9.33513 3.71171L6.87497 6.17187L4.5695 3.86796C4.4824 3.78056 4.37891 3.71122 4.26496 3.6639C4.151 3.61658 4.02883 3.59222 3.90544 3.59222C3.78205 3.59222 3.65988 3.61658 3.54592 3.6639C3.43197 3.71122 3.32847 3.78056 3.24138 3.86796L0.272626 6.83671C0.185227 6.92381 0.115879 7.0273 0.0685619 7.14126C0.0212444 7.25521 -0.00311279 7.37739 -0.00311279 7.50078C-0.00311279 7.62416 0.0212444 7.74634 0.0685619 7.86029C0.115879 7.97425 0.185227 8.07774 0.272626 8.16484L3.24138 11.1336C3.32847 11.221 3.43197 11.2903 3.54592 11.3377C3.65988 11.385 3.78205 11.4093 3.90544 11.4093C4.02883 11.4093 4.151 11.385 4.26496 11.3377C4.37891 11.2903 4.4824 11.221 4.5695 11.1336L6.87497 8.82812L8.67184 10.625L6.21169 13.0867C6.12429 13.1738 6.05494 13.2773 6.00762 13.3913C5.96031 13.5052 5.93595 13.6274 5.93595 13.7508C5.93595 13.8742 5.96031 13.9963 6.00762 14.1103C6.05494 14.2242 6.12429 14.3277 6.21169 14.4148L9.33669 17.5398C9.42379 17.6272 9.52728 17.6966 9.64123 17.7439C9.75519 17.7912 9.87736 17.8156 10.0008 17.8156C10.1241 17.8156 10.2463 17.7912 10.3603 17.7439C10.4742 17.6966 10.5777 17.6272 10.6648 17.5398L13.7898 14.4148C13.8772 14.3277 13.9466 14.2242 13.9939 14.1103C14.0412 13.9963 14.0656 13.8742 14.0656 13.7508C14.0656 13.6274 14.0412 13.5052 13.9939 13.3913C13.9466 13.2773 13.8772 13.1738 13.7898 13.0867L11.3281 10.625L13.125 8.82812L15.4304 11.1344C15.5175 11.2218 15.621 11.2911 15.735 11.3384C15.8489 11.3858 15.9711 11.4101 16.0945 11.4101C16.2179 11.4101 16.3401 11.3858 16.454 11.3384C16.568 11.2911 16.6715 11.2218 16.7586 11.1344L19.7273 8.16562C19.8147 8.07841 19.8841 7.97478 19.9313 7.8607C19.9786 7.74662 20.0028 7.62432 20.0027 7.50084C20.0025 7.37736 19.978 7.25512 19.9305 7.14115C19.8829 7.02718 19.8134 6.92372 19.7258 6.83671ZM3.90622 9.14062L2.2656 7.49999L3.90622 5.85937L5.54684 7.49999L3.90622 9.14062ZM9.99997 15.5469L8.20309 13.75L9.99997 11.9531L11.7968 13.75L9.99997 15.5469ZM9.99997 9.29687L8.20309 7.49999L9.99997 5.70312L11.7968 7.49999L9.99997 9.29687ZM16.0937 9.14062L14.4531 7.49999L16.0937 5.85937L17.7343 7.49999L16.0937 9.14062Z" fill="#191F2E"/>
</svg>
