<svg width="20" height="20" viewBox="0 0 20 20" fill="none" xmlns="http://www.w3.org/2000/svg">
<path d="M19.8172 7.94219L17.0047 10.7547C16.9466 10.8128 16.8777 10.8589 16.8018 10.8904C16.726 10.9218 16.6446 10.938 16.5625 10.938C16.4804 10.938 16.399 10.9218 16.3232 10.8904C16.2473 10.8589 16.1784 10.8128 16.1203 10.7547L13.3078 7.94219L13.2813 7.9125L13.2547 7.94219L10.5711 10.625L13.2547 13.3078C13.3128 13.3659 13.3589 13.4348 13.3904 13.5107C13.4218 13.5865 13.438 13.6679 13.438 13.75C13.438 13.8321 13.4218 13.9135 13.3904 13.9893C13.3589 14.0652 13.3128 14.1341 13.2547 14.1922L10.4422 17.0047C10.3841 17.0628 10.3152 17.1089 10.2393 17.1404C10.1635 17.1718 10.0821 17.188 10 17.188C9.91787 17.188 9.83654 17.1718 9.76067 17.1404C9.68479 17.1089 9.61586 17.0628 9.55782 17.0047L6.74532 14.1922C6.68721 14.1341 6.64111 14.0652 6.60965 13.9893C6.5782 13.9135 6.56201 13.8321 6.56201 13.75C6.56201 13.6679 6.5782 13.5865 6.60965 13.5107C6.64111 13.4348 6.68721 13.3659 6.74532 13.3078L9.42891 10.625L6.74532 7.94219L6.71875 7.9125L6.69219 7.94219L3.87969 10.7547C3.82165 10.8128 3.75271 10.8589 3.67684 10.8904C3.60097 10.9218 3.51964 10.938 3.4375 10.938C3.35537 10.938 3.27404 10.9218 3.19817 10.8904C3.12229 10.8589 3.05336 10.8128 2.99532 10.7547L0.182816 7.94219C0.124706 7.88415 0.0786062 7.81521 0.0471536 7.73934C0.0157009 7.66347 -0.000488281 7.58214 -0.000488281 7.5C-0.000488281 7.41787 0.0157009 7.33654 0.0471536 7.26067C0.0786062 7.18479 0.124706 7.11586 0.182816 7.05782L2.99532 4.24532C3.05336 4.18721 3.12229 4.14111 3.19817 4.10965C3.27404 4.0782 3.35537 4.06201 3.4375 4.06201C3.51964 4.06201 3.60097 4.0782 3.67684 4.10965C3.75271 4.14111 3.82165 4.18721 3.87969 4.24532L6.69219 7.05782L6.71875 7.0875L6.74532 7.05782L9.55782 4.24532C9.61586 4.18721 9.68479 4.14111 9.76067 4.10965C9.83654 4.0782 9.91787 4.06201 10 4.06201C10.0821 4.06201 10.1635 4.0782 10.2393 4.10965C10.3152 4.14111 10.3841 4.18721 10.4422 4.24532L13.2547 7.05782L13.2813 7.0875L13.3078 7.05782L16.1203 4.24532C16.1784 4.18721 16.2473 4.14111 16.3232 4.10965C16.399 4.0782 16.4804 4.06201 16.5625 4.06201C16.6446 4.06201 16.726 4.0782 16.8018 4.10965C16.8777 4.14111 16.9466 4.18721 17.0047 4.24532L19.8172 7.05782C19.8753 7.11586 19.9214 7.18479 19.9529 7.26067C19.9843 7.33654 20.0005 7.41787 20.0005 7.5C20.0005 7.58214 19.9843 7.66347 19.9529 7.73934C19.9214 7.81521 19.8753 7.88415 19.8172 7.94219Z" fill="#191F2E"/>
</svg>
