<svg width="20" height="20" viewBox="0 0 20 20" fill="none" xmlns="http://www.w3.org/2000/svg">
<path d="M17.5 5.3125C16.5886 5.31147 15.7149 4.94897 15.0705 4.30454C14.426 3.66011 14.0635 2.78636 14.0625 1.875C14.0625 1.62636 13.9637 1.3879 13.7879 1.21209C13.6121 1.03627 13.3736 0.9375 13.125 0.9375H10C9.75136 0.9375 9.5129 1.03627 9.33709 1.21209C9.16127 1.3879 9.0625 1.62636 9.0625 1.875V12.1875C9.06235 12.4112 9.00218 12.6307 8.88827 12.8232C8.77435 13.0158 8.61087 13.1742 8.41486 13.282C8.21886 13.3898 7.99752 13.443 7.77394 13.4361C7.55036 13.4292 7.33272 13.3624 7.14374 13.2427C6.95476 13.1231 6.80135 12.9549 6.69952 12.7557C6.5977 12.5565 6.55118 12.3337 6.56483 12.1104C6.57848 11.8871 6.65179 11.6716 6.77711 11.4863C6.90244 11.3011 7.07519 11.1528 7.27734 11.057C7.4375 10.9809 7.5728 10.861 7.66752 10.7111C7.76225 10.5612 7.81252 10.3875 7.8125 10.2102V6.875C7.81245 6.73803 7.78238 6.60273 7.72441 6.47862C7.66644 6.35452 7.58198 6.24463 7.47698 6.15668C7.37197 6.06872 7.24897 6.00485 7.11662 5.96955C6.98427 5.93425 6.8458 5.92837 6.71094 5.95234C5.26698 6.21648 3.9636 6.98445 3.03281 8.11953C2.08498 9.26352 1.56511 10.7019 1.5625 12.1875C1.5625 13.8451 2.22098 15.4348 3.39308 16.6069C4.56519 17.779 6.1549 18.4375 7.8125 18.4375C9.4701 18.4375 11.0598 17.779 12.2319 16.6069C13.404 15.4348 14.0625 13.8451 14.0625 12.1875V9.58359C15.1441 10.0663 16.3156 10.3147 17.5 10.3125C17.7486 10.3125 17.9871 10.2137 18.1629 10.0379C18.3387 9.8621 18.4375 9.62364 18.4375 9.375V6.25C18.4375 6.00136 18.3387 5.7629 18.1629 5.58709C17.9871 5.41127 17.7486 5.3125 17.5 5.3125ZM16.5625 8.37109C15.5186 8.22342 14.5265 7.82361 13.6719 7.20625C13.5317 7.1056 13.3665 7.04558 13.1944 7.03279C13.0224 7.02001 12.8501 7.05497 12.6966 7.13381C12.5432 7.21265 12.4144 7.33232 12.3246 7.47963C12.2347 7.62695 12.1873 7.7962 12.1875 7.96875V12.1875C12.1875 13.3478 11.7266 14.4606 10.9061 15.2811C10.0856 16.1016 8.97282 16.5625 7.8125 16.5625C6.65218 16.5625 5.53938 16.1016 4.71891 15.2811C3.89844 14.4606 3.4375 13.3478 3.4375 12.1875C3.44039 11.3504 3.67564 10.5306 4.11705 9.8194C4.55846 9.10818 5.18869 8.53349 5.9375 8.15938V9.6875C5.51136 10.0071 5.17399 10.4303 4.95742 10.917C4.74086 11.4037 4.65229 11.9376 4.70013 12.4681C4.74796 12.9987 4.93062 13.5082 5.23075 13.9482C5.53088 14.3883 5.93852 14.7444 6.41496 14.9826C6.8914 15.2208 7.42082 15.3333 7.95296 15.3093C8.4851 15.2854 9.00229 15.1258 9.45541 14.8458C9.90853 14.5657 10.2825 14.1745 10.5419 13.7093C10.8013 13.244 10.9375 12.7202 10.9375 12.1875V2.8125H12.2703C12.4639 3.87974 12.9786 4.86249 13.7455 5.62946C14.5125 6.39643 15.4953 6.91109 16.5625 7.10469V8.37109Z" fill="#191F2E"/>
</svg>
