<svg width="20" height="20" viewBox="0 0 20 20" fill="none" xmlns="http://www.w3.org/2000/svg">
<path d="M18.9147 16.3695L11.1132 4.18203L12.6647 1.76015C12.7994 1.55067 12.8454 1.29627 12.7925 1.05291C12.7396 0.809557 12.5922 0.597177 12.3827 0.462497C12.1732 0.327817 11.9188 0.281868 11.6755 0.334759C11.4321 0.38765 11.2197 0.535049 11.085 0.744528L9.99989 2.44062L8.91473 0.744528C8.78067 0.535049 8.56889 0.387403 8.32597 0.334073C8.08305 0.280742 7.8289 0.326095 7.61942 0.460153C7.40994 0.594212 7.2623 0.805995 7.20896 1.04891C7.15563 1.29183 7.20099 1.54599 7.33504 1.75547L8.88661 4.17734L1.08504 16.3648C0.993099 16.5066 0.941172 16.6706 0.934758 16.8394C0.928344 17.0083 0.96768 17.1757 1.04861 17.324C1.12953 17.4723 1.24904 17.596 1.39449 17.682C1.53994 17.768 1.70592 17.8131 1.87489 17.8125H18.1249C18.2931 17.8125 18.4583 17.7673 18.603 17.6816C18.7478 17.5958 18.8668 17.4727 18.9475 17.3251C19.0283 17.1776 19.0679 17.011 19.0621 16.8428C19.0563 16.6747 19.0054 16.5112 18.9147 16.3695ZM7.51317 15.9375L9.99989 12.0516L12.4866 15.9375H7.51317ZM14.7132 15.9375L10.7897 9.80703C10.705 9.67444 10.5882 9.56533 10.4501 9.48975C10.3121 9.41417 10.1573 9.37456 9.99989 9.37456C9.84252 9.37456 9.68768 9.41417 9.54964 9.48975C9.41161 9.56533 9.29482 9.67444 9.21004 9.80703L5.28661 15.9375H3.58817L9.99989 5.91875L16.4116 15.9375H14.7132Z" fill="#191F2E"/>
</svg>
