<svg width="20" height="20" viewBox="0 0 20 20" fill="none" xmlns="http://www.w3.org/2000/svg">
<path d="M18.6516 16.5383L10.7422 4.17969L12.4016 1.58672C12.4458 1.51757 12.476 1.44039 12.4904 1.35958C12.5047 1.27877 12.5031 1.19592 12.4855 1.11576C12.4678 1.0356 12.4346 0.95969 12.3876 0.892375C12.3407 0.825061 12.2809 0.767655 12.2117 0.723437C12.1426 0.679218 12.0654 0.649052 11.9846 0.634662C11.9038 0.620272 11.8209 0.621938 11.7408 0.639567C11.6606 0.657196 11.5847 0.690441 11.5174 0.737405C11.4501 0.784369 11.3927 0.844131 11.3485 0.91328L10 3.02031L8.65158 0.910937C8.56228 0.771283 8.42116 0.672826 8.25926 0.637223C8.09736 0.601621 7.92796 0.631789 7.7883 0.721093C7.64865 0.810396 7.55019 0.951519 7.51459 1.11342C7.47899 1.27531 7.50916 1.44472 7.59846 1.58437L9.25783 4.17969L1.34846 16.5383C1.28806 16.6327 1.25417 16.7417 1.25036 16.8537C1.24655 16.9658 1.27295 17.0768 1.32679 17.1752C1.38064 17.2735 1.45994 17.3555 1.5564 17.4127C1.65285 17.4698 1.76291 17.5 1.87502 17.5H18.125C18.2371 17.5 18.3472 17.4698 18.4436 17.4127C18.5401 17.3555 18.6194 17.2735 18.6732 17.1752C18.7271 17.0768 18.7535 16.9658 18.7497 16.8537C18.7459 16.7417 18.712 16.6327 18.6516 16.5383ZM6.74221 16.25L10 11.1594L13.2578 16.25H6.74221ZM14.7422 16.25L10.5235 9.66328C10.4669 9.57489 10.3891 9.50215 10.2971 9.45176C10.205 9.40138 10.1018 9.37497 9.9969 9.37497C9.89198 9.37497 9.78876 9.40138 9.69673 9.45176C9.60471 9.50215 9.52685 9.57489 9.47033 9.66328L5.25783 16.25H3.01721L10 5.33906L16.9828 16.25H14.7422Z" fill="#191F2E"/>
</svg>
