<svg width="20" height="20" viewBox="0 0 20 20" fill="none" xmlns="http://www.w3.org/2000/svg">
<path d="M13.75 4.0625H6.25C4.67528 4.0625 3.16505 4.68806 2.05155 5.80155C0.938056 6.91505 0.3125 8.42528 0.3125 10C0.3125 11.5747 0.938056 13.0849 2.05155 14.1984C3.16505 15.3119 4.67528 15.9375 6.25 15.9375H13.75C15.3247 15.9375 16.8349 15.3119 17.9484 14.1984C19.0619 13.0849 19.6875 11.5747 19.6875 10C19.6875 8.42528 19.0619 6.91505 17.9484 5.80155C16.8349 4.68806 15.3247 4.0625 13.75 4.0625ZM13.75 14.0625H6.25C5.17256 14.0625 4.13925 13.6345 3.37738 12.8726C2.61551 12.1108 2.1875 11.0774 2.1875 10C2.1875 8.92256 2.61551 7.88925 3.37738 7.12738C4.13925 6.36551 5.17256 5.9375 6.25 5.9375H13.75C14.8274 5.9375 15.8608 6.36551 16.6226 7.12738C17.3845 7.88925 17.8125 8.92256 17.8125 10C17.8125 11.0774 17.3845 12.1108 16.6226 12.8726C15.8608 13.6345 14.8274 14.0625 13.75 14.0625ZM6.25 7.1875C5.69374 7.1875 5.14997 7.35245 4.68746 7.66149C4.22495 7.97053 3.86446 8.40979 3.65159 8.9237C3.43872 9.43762 3.38302 10.0031 3.49154 10.5487C3.60006 11.0943 3.86793 11.5954 4.26126 11.9887C4.6546 12.3821 5.15574 12.6499 5.70131 12.7585C6.24688 12.867 6.81238 12.8113 7.3263 12.5984C7.84021 12.3855 8.27947 12.0251 8.58851 11.5625C8.89755 11.1 9.0625 10.5563 9.0625 10C9.0625 9.25408 8.76618 8.53871 8.23874 8.01126C7.71129 7.48382 6.99592 7.1875 6.25 7.1875ZM6.25 10.9375C6.06458 10.9375 5.88332 10.8825 5.72915 10.7795C5.57498 10.6765 5.45482 10.5301 5.38386 10.3588C5.31291 10.1875 5.29434 9.99896 5.33051 9.8171C5.36669 9.63525 5.45598 9.4682 5.58709 9.33709C5.7182 9.20598 5.88525 9.11669 6.0671 9.08051C6.24896 9.04434 6.43746 9.06291 6.60877 9.13386C6.78007 9.20482 6.92649 9.32498 7.0295 9.47915C7.13252 9.63332 7.1875 9.81458 7.1875 10C7.1875 10.2486 7.08873 10.4871 6.91291 10.6629C6.7371 10.8387 6.49864 10.9375 6.25 10.9375Z" fill="#191F2E"/>
</svg>
