<svg width="20" height="20" viewBox="0 0 20 20" fill="none" xmlns="http://www.w3.org/2000/svg">
<path d="M13.75 4.375H6.25C4.75816 4.375 3.32742 4.96763 2.27252 6.02252C1.21763 7.07742 0.625 8.50816 0.625 10C0.625 11.4918 1.21763 12.9226 2.27252 13.9775C3.32742 15.0324 4.75816 15.625 6.25 15.625H13.75C15.2418 15.625 16.6726 15.0324 17.7275 13.9775C18.7824 12.9226 19.375 11.4918 19.375 10C19.375 8.50816 18.7824 7.07742 17.7275 6.02252C16.6726 4.96763 15.2418 4.375 13.75 4.375ZM13.75 13.125C13.1319 13.125 12.5277 12.9417 12.0138 12.5983C11.4999 12.255 11.0994 11.7669 10.8629 11.1959C10.6264 10.6249 10.5645 9.99653 10.685 9.39034C10.8056 8.78415 11.1033 8.22733 11.5403 7.79029C11.9773 7.35325 12.5342 7.05562 13.1403 6.93505C13.7465 6.81447 14.3749 6.87635 14.9459 7.11288C15.5169 7.3494 16.005 7.74994 16.3483 8.26384C16.6917 8.77775 16.875 9.38193 16.875 10C16.875 10.8288 16.5458 11.6237 15.9597 12.2097C15.3737 12.7958 14.5788 13.125 13.75 13.125Z" fill="#191F2E"/>
</svg>
