<svg width="20" height="20" viewBox="0 0 20 20" fill="none" xmlns="http://www.w3.org/2000/svg">
<path d="M13.75 4.375H6.25C4.75816 4.375 3.32742 4.96763 2.27252 6.02252C1.21763 7.07742 0.625 8.50816 0.625 10C0.625 11.4918 1.21763 12.9226 2.27252 13.9775C3.32742 15.0324 4.75816 15.625 6.25 15.625H13.75C15.2418 15.625 16.6726 15.0324 17.7275 13.9775C18.7824 12.9226 19.375 11.4918 19.375 10C19.375 8.50816 18.7824 7.07742 17.7275 6.02252C16.6726 4.96763 15.2418 4.375 13.75 4.375ZM13.75 14.375H6.25C5.08968 14.375 3.97688 13.9141 3.15641 13.0936C2.33594 12.2731 1.875 11.1603 1.875 10C1.875 8.83968 2.33594 7.72688 3.15641 6.90641C3.97688 6.08594 5.08968 5.625 6.25 5.625H13.75C14.9103 5.625 16.0231 6.08594 16.8436 6.90641C17.6641 7.72688 18.125 8.83968 18.125 10C18.125 11.1603 17.6641 12.2731 16.8436 13.0936C16.0231 13.9141 14.9103 14.375 13.75 14.375ZM6.25 6.875C5.63193 6.875 5.02775 7.05828 4.51384 7.40166C3.99994 7.74504 3.5994 8.2331 3.36288 8.80411C3.12635 9.37513 3.06447 10.0035 3.18505 10.6097C3.30562 11.2158 3.60325 11.7727 4.04029 12.2097C4.47733 12.6467 5.03415 12.9444 5.64034 13.065C6.24653 13.1855 6.87487 13.1236 7.44589 12.8871C8.0169 12.6506 8.50496 12.2501 8.84834 11.7362C9.19172 11.2223 9.375 10.6181 9.375 10C9.375 9.1712 9.04576 8.37634 8.45971 7.79029C7.87366 7.20424 7.0788 6.875 6.25 6.875ZM6.25 11.875C5.87916 11.875 5.51665 11.765 5.20831 11.559C4.89996 11.353 4.65964 11.0601 4.51773 10.7175C4.37581 10.3749 4.33868 9.99792 4.41103 9.63421C4.48338 9.27049 4.66195 8.9364 4.92417 8.67417C5.1864 8.41195 5.52049 8.23337 5.88421 8.16103C6.24792 8.08868 6.62492 8.12581 6.96753 8.26773C7.31014 8.40964 7.60298 8.64996 7.80901 8.95831C8.01503 9.26665 8.125 9.62916 8.125 10C8.125 10.4973 7.92746 10.9742 7.57583 11.3258C7.22419 11.6775 6.74728 11.875 6.25 11.875Z" fill="#191F2E"/>
</svg>
