<svg width="20" height="20" viewBox="0 0 20 20" fill="none" xmlns="http://www.w3.org/2000/svg">
<path d="M6.25 9.375C6.25 9.62223 6.17669 9.8639 6.03934 10.0695C5.90199 10.275 5.70676 10.4352 5.47835 10.5299C5.24995 10.6245 4.99861 10.6492 4.75614 10.601C4.51366 10.5528 4.29093 10.4337 4.11612 10.2589C3.9413 10.0841 3.82225 9.86134 3.77402 9.61886C3.72579 9.37639 3.75054 9.12505 3.84515 8.89665C3.93976 8.66824 4.09998 8.47301 4.30554 8.33566C4.5111 8.19831 4.75277 8.125 5 8.125C5.33152 8.125 5.64946 8.2567 5.88388 8.49112C6.1183 8.72554 6.25 9.04348 6.25 9.375ZM19.0625 9.375V16.25C19.0625 16.6644 18.8979 17.0618 18.6049 17.3549C18.3118 17.6479 17.9144 17.8125 17.5 17.8125H8.75C8.3356 17.8125 7.93817 17.6479 7.64515 17.3549C7.35212 17.0618 7.1875 16.6644 7.1875 16.25V15.4992C6.5625 16.1773 5.81719 16.5625 5 16.5625C2.68359 16.5625 0.9375 13.4727 0.9375 9.375C0.9375 5.27734 2.68359 2.1875 5 2.1875H15C17.3164 2.1875 19.0625 5.27734 19.0625 9.375ZM7.1875 9.375C7.1875 7.87031 6.88984 6.4125 6.37109 5.375C5.96016 4.55313 5.44766 4.0625 5 4.0625C4.55234 4.0625 4.03984 4.55313 3.62891 5.375C3.11016 6.4125 2.8125 7.87031 2.8125 9.375C2.8125 10.8797 3.11016 12.3375 3.62891 13.375C4.03984 14.1969 4.55234 14.6875 5 14.6875C5.44766 14.6875 5.96016 14.1969 6.37109 13.375C6.88984 12.3375 7.1875 10.8797 7.1875 9.375ZM17.1875 15.9375V10.3125H16.5625C16.3139 10.3125 16.0754 10.2137 15.8996 10.0379C15.7238 9.8621 15.625 9.62364 15.625 9.375C15.625 9.12636 15.7238 8.8879 15.8996 8.71209C16.0754 8.53627 16.3139 8.4375 16.5625 8.4375H17.1484C17.0523 7.27734 16.7812 6.19453 16.3711 5.375C15.9609 4.55547 15.4477 4.0625 15 4.0625H7.79219C8.46484 5.16484 8.91328 6.68437 9.03125 8.4375H9.6875C9.93614 8.4375 10.1746 8.53627 10.3504 8.71209C10.5262 8.8879 10.625 9.12636 10.625 9.375C10.625 9.62364 10.5262 9.8621 10.3504 10.0379C10.1746 10.2137 9.93614 10.3125 9.6875 10.3125H9.0625V15.9375H17.1875ZM13.4375 8.4375H12.8125C12.5639 8.4375 12.3254 8.53627 12.1496 8.71209C11.9738 8.8879 11.875 9.12636 11.875 9.375C11.875 9.62364 11.9738 9.8621 12.1496 10.0379C12.3254 10.2137 12.5639 10.3125 12.8125 10.3125H13.4375C13.6861 10.3125 13.9246 10.2137 14.1004 10.0379C14.2762 9.8621 14.375 9.62364 14.375 9.375C14.375 9.12636 14.2762 8.8879 14.1004 8.71209C13.9246 8.53627 13.6861 8.4375 13.4375 8.4375Z" fill="#191F2E"/>
</svg>
