<svg width="20" height="20" viewBox="0 0 20 20" fill="none" xmlns="http://www.w3.org/2000/svg">
<path d="M4.68752 6.875H15.3125C15.3954 6.875 15.4749 6.84208 15.5335 6.78347C15.5921 6.72487 15.625 6.64538 15.625 6.5625V3.125C15.625 2.79348 15.4933 2.47554 15.2589 2.24112C15.0245 2.0067 14.7065 1.875 14.375 1.875H5.62502C5.2935 1.875 4.97555 2.0067 4.74113 2.24112C4.50671 2.47554 4.37502 2.79348 4.37502 3.125V6.5625C4.37502 6.64538 4.40794 6.72487 4.46655 6.78347C4.52515 6.84208 4.60464 6.875 4.68752 6.875ZM6.87502 3.75H8.10392C8.26543 3.74761 8.42186 3.80648 8.54173 3.91475C8.66159 4.02302 8.73601 4.17267 8.75002 4.33359C8.75569 4.41909 8.74373 4.50483 8.71487 4.5855C8.68602 4.66618 8.64088 4.74006 8.58227 4.80255C8.52366 4.86505 8.45282 4.91483 8.37416 4.94879C8.2955 4.98276 8.2107 5.00019 8.12502 5H6.89611C6.7346 5.00238 6.57818 4.94352 6.45831 4.83525C6.33844 4.72697 6.26402 4.57733 6.25002 4.41641C6.24434 4.33091 6.2563 4.24517 6.28516 4.16449C6.31402 4.08382 6.35915 4.00994 6.41777 3.94745C6.47638 3.88495 6.54722 3.83517 6.62587 3.80121C6.70453 3.76724 6.78934 3.74981 6.87502 3.75ZM17.5 8.75469C17.5006 8.67222 17.4849 8.59044 17.4538 8.51407C17.4227 8.4377 17.3767 8.36825 17.3186 8.30971C17.2605 8.25118 17.1914 8.20472 17.1153 8.17302C17.0391 8.14132 16.9575 8.125 16.875 8.125H3.12502C3.04255 8.125 2.96089 8.14132 2.88475 8.17302C2.80862 8.20472 2.73951 8.25118 2.68141 8.30971C2.62331 8.36825 2.57737 8.4377 2.54624 8.51407C2.51511 8.59044 2.4994 8.67222 2.50002 8.75469C2.50198 10.1257 2.8793 11.4699 3.59105 12.6416C4.3028 13.8134 5.3218 14.7679 6.53752 15.4016L6.26642 17.2977C6.22551 17.565 6.27008 17.8384 6.39377 18.0789C6.49939 18.281 6.65831 18.4504 6.85331 18.5687C7.0483 18.687 7.27195 18.7497 7.50002 18.75H12.4735C12.7449 18.7537 13.0107 18.6717 13.2328 18.5156C13.4174 18.3821 13.5619 18.2007 13.6509 17.991C13.7398 17.7813 13.7698 17.5513 13.7375 17.3258L13.4625 15.4039C14.6786 14.77 15.6978 13.8152 16.4096 12.643C17.1214 11.4708 17.4985 10.126 17.5 8.75469ZM7.50002 17.5L7.72892 15.8984C9.20671 16.3672 10.7933 16.3672 12.2711 15.8984L12.5 17.5H7.50002Z" fill="#191F2E"/>
</svg>
