<svg width="20" height="20" viewBox="0 0 20 20" fill="none" xmlns="http://www.w3.org/2000/svg">
<path d="M14.375 9.375C14.375 9.54076 14.3092 9.69973 14.1919 9.81694C14.0747 9.93415 13.9158 10 13.75 10H12.5C12.3342 10 12.1753 9.93415 12.0581 9.81694C11.9408 9.69973 11.875 9.54076 11.875 9.375C11.875 9.20924 11.9408 9.05027 12.0581 8.93306C12.1753 8.81585 12.3342 8.75 12.5 8.75H13.75C13.9158 8.75 14.0747 8.81585 14.1919 8.93306C14.3092 9.05027 14.375 9.20924 14.375 9.375ZM18.75 9.375V16.25C18.75 16.5815 18.6183 16.8995 18.3839 17.1339C18.1495 17.3683 17.8315 17.5 17.5 17.5H8.75C8.41848 17.5 8.10054 17.3683 7.86612 17.1339C7.6317 16.8995 7.5 16.5815 7.5 16.25V14.5586C6.82578 15.6539 5.95156 16.25 5 16.25C3.91641 16.25 2.93281 15.4773 2.23125 14.0742C1.59844 12.8125 1.25 11.1398 1.25 9.375C1.25 7.61016 1.59844 5.94141 2.23125 4.67578C2.93281 3.27266 3.91641 2.5 5 2.5H15C16.0836 2.5 17.0672 3.27266 17.7687 4.67578C18.4016 5.94141 18.75 7.61016 18.75 9.375ZM5.9375 9.375C5.9375 9.18958 5.88252 9.00832 5.7795 8.85415C5.67649 8.69998 5.53007 8.57982 5.35877 8.50886C5.18746 8.43791 4.99896 8.41934 4.8171 8.45551C4.63525 8.49169 4.4682 8.58098 4.33709 8.71209C4.20598 8.8432 4.11669 9.01025 4.08051 9.1921C4.04434 9.37396 4.06291 9.56246 4.13386 9.73377C4.20482 9.90507 4.32498 10.0515 4.47915 10.1545C4.63332 10.2575 4.81458 10.3125 5 10.3125C5.24864 10.3125 5.4871 10.2137 5.66291 10.0379C5.83873 9.8621 5.9375 9.62364 5.9375 9.375ZM17.5 10H16.25C16.0842 10 15.9253 9.93415 15.8081 9.81694C15.6908 9.69973 15.625 9.54076 15.625 9.375C15.625 9.20924 15.6908 9.05027 15.8081 8.93306C15.9253 8.81585 16.0842 8.75 16.25 8.75H17.4836C17.3312 5.77344 16.1062 3.75 15 3.75H7.19688C7.41634 4.03982 7.60782 4.3498 7.76875 4.67578C8.32656 5.79141 8.6625 7.21953 8.73516 8.75H10C10.1658 8.75 10.3247 8.81585 10.4419 8.93306C10.5592 9.05027 10.625 9.20924 10.625 9.375C10.625 9.54076 10.5592 9.69973 10.4419 9.81694C10.3247 9.93415 10.1658 10 10 10H8.75V16.25H17.5V10Z" fill="#191F2E"/>
</svg>
