<svg width="20" height="20" viewBox="0 0 20 20" fill="none" xmlns="http://www.w3.org/2000/svg">
<path d="M17.5 5H14.0625V4.375C14.0625 3.79484 13.832 3.23844 13.4218 2.8282C13.0116 2.41797 12.4552 2.1875 11.875 2.1875H8.125C7.54484 2.1875 6.98844 2.41797 6.5782 2.8282C6.16797 3.23844 5.9375 3.79484 5.9375 4.375V5H2.5C2.0856 5 1.68817 5.16462 1.39515 5.45765C1.10212 5.75067 0.9375 6.1481 0.9375 6.5625V15C0.9375 15.4144 1.10212 15.8118 1.39515 16.1049C1.68817 16.3979 2.0856 16.5625 2.5 16.5625H17.5C17.9144 16.5625 18.3118 16.3979 18.6049 16.1049C18.8979 15.8118 19.0625 15.4144 19.0625 15V6.5625C19.0625 6.1481 18.8979 5.75067 18.6049 5.45765C18.3118 5.16462 17.9144 5 17.5 5ZM7.8125 4.375C7.8125 4.29212 7.84542 4.21263 7.90403 4.15403C7.96263 4.09542 8.04212 4.0625 8.125 4.0625H11.875C11.9579 4.0625 12.0374 4.09542 12.096 4.15403C12.1546 4.21263 12.1875 4.29212 12.1875 4.375V5H7.8125V4.375ZM17.1875 6.875V9.375H15.3125V9.0625C15.3125 8.81386 15.2137 8.5754 15.0379 8.39959C14.8621 8.22377 14.6236 8.125 14.375 8.125C14.1264 8.125 13.8879 8.22377 13.7121 8.39959C13.5363 8.5754 13.4375 8.81386 13.4375 9.0625V9.375H6.5625V9.0625C6.5625 8.81386 6.46373 8.5754 6.28791 8.39959C6.1121 8.22377 5.87364 8.125 5.625 8.125C5.37636 8.125 5.1379 8.22377 4.96209 8.39959C4.78627 8.5754 4.6875 8.81386 4.6875 9.0625V9.375H2.8125V6.875H17.1875ZM2.8125 14.6875V11.25H4.6875V11.5625C4.6875 11.8111 4.78627 12.0496 4.96209 12.2254C5.1379 12.4012 5.37636 12.5 5.625 12.5C5.87364 12.5 6.1121 12.4012 6.28791 12.2254C6.46373 12.0496 6.5625 11.8111 6.5625 11.5625V11.25H13.4375V11.5625C13.4375 11.8111 13.5363 12.0496 13.7121 12.2254C13.8879 12.4012 14.1264 12.5 14.375 12.5C14.6236 12.5 14.8621 12.4012 15.0379 12.2254C15.2137 12.0496 15.3125 11.8111 15.3125 11.5625V11.25H17.1875V14.6875H2.8125Z" fill="#191F2E"/>
</svg>
