<svg width="20" height="20" viewBox="0 0 20 20" fill="none" xmlns="http://www.w3.org/2000/svg">
<path d="M17.5 5H13.75V4.375C13.75 3.87772 13.5525 3.40081 13.2008 3.04917C12.8492 2.69754 12.3723 2.5 11.875 2.5H8.125C7.62772 2.5 7.15081 2.69754 6.79917 3.04917C6.44754 3.40081 6.25 3.87772 6.25 4.375V5H2.5C2.16848 5 1.85054 5.1317 1.61612 5.36612C1.3817 5.60054 1.25 5.91848 1.25 6.25V8.4375C1.25 8.52038 1.28292 8.59987 1.34153 8.65847C1.40013 8.71708 1.47962 8.75 1.5625 8.75H5V7.52109C4.99743 7.35953 5.05623 7.20301 5.16454 7.0831C5.27285 6.96319 5.4226 6.88882 5.58359 6.875C5.66909 6.86932 5.75483 6.88129 5.83551 6.91014C5.91618 6.939 5.99006 6.98414 6.05255 7.04275C6.11505 7.10136 6.16483 7.1722 6.19879 7.25086C6.23276 7.32952 6.25019 7.41432 6.25 7.5V8.75H13.75V7.52109C13.7474 7.35953 13.8062 7.20301 13.9145 7.0831C14.0228 6.96319 14.1726 6.88882 14.3336 6.875C14.4191 6.86932 14.5048 6.88129 14.5855 6.91014C14.6662 6.939 14.7401 6.98414 14.8026 7.04275C14.865 7.10136 14.9148 7.1722 14.9488 7.25086C14.9828 7.32952 15.0002 7.41432 15 7.5V8.75H18.4375C18.5204 8.75 18.5999 8.71708 18.6585 8.65847C18.7171 8.59987 18.75 8.52038 18.75 8.4375V6.25C18.75 5.91848 18.6183 5.60054 18.3839 5.36612C18.1495 5.1317 17.8315 5 17.5 5ZM12.5 5H7.5V4.375C7.5 4.20924 7.56585 4.05027 7.68306 3.93306C7.80027 3.81585 7.95924 3.75 8.125 3.75H11.875C12.0408 3.75 12.1997 3.81585 12.3169 3.93306C12.4342 4.05027 12.5 4.20924 12.5 4.375V5ZM18.75 10.3125V15C18.75 15.3315 18.6183 15.6495 18.3839 15.8839C18.1495 16.1183 17.8315 16.25 17.5 16.25H2.5C2.16848 16.25 1.85054 16.1183 1.61612 15.8839C1.3817 15.6495 1.25 15.3315 1.25 15V10.3125C1.25 10.2296 1.28292 10.1501 1.34153 10.0915C1.40013 10.0329 1.47962 10 1.5625 10H5V11.25C4.99981 11.3357 5.01724 11.4205 5.05121 11.4991C5.08517 11.5778 5.13495 11.6486 5.19745 11.7073C5.25994 11.7659 5.33382 11.811 5.41449 11.8399C5.49517 11.8687 5.58091 11.8807 5.66641 11.875C5.8274 11.8612 5.97715 11.7868 6.08546 11.6669C6.19377 11.547 6.25257 11.3905 6.25 11.2289V10H13.75V11.25C13.7498 11.3357 13.7672 11.4205 13.8012 11.4991C13.8352 11.5778 13.885 11.6486 13.9474 11.7073C14.0099 11.7659 14.0838 11.811 14.1645 11.8399C14.2452 11.8687 14.3309 11.8807 14.4164 11.875C14.5771 11.8612 14.7267 11.787 14.8349 11.6675C14.9432 11.5479 15.0022 11.3918 15 11.2305V10H18.4375C18.5204 10 18.5999 10.0329 18.6585 10.0915C18.7171 10.1501 18.75 10.2296 18.75 10.3125Z" fill="#191F2E"/>
</svg>
