<svg width="20" height="20" viewBox="0 0 20 20" fill="none" xmlns="http://www.w3.org/2000/svg">
<path d="M13.125 1.875H6.875C5.71805 1.87499 4.60821 2.33324 3.78829 3.14949C2.96838 3.96575 2.50516 5.07353 2.5 6.23047C2.5 9.56797 3.125 12.1211 3.64844 13.6742C4.32969 15.6898 5.25937 17.2281 6.19844 17.893C6.40606 18.043 6.65554 18.1242 6.91172 18.125C7.22839 18.1241 7.53305 18.0037 7.7648 17.7879C7.99655 17.5721 8.1383 17.2767 8.16172 16.9609C8.22813 16.0609 8.55234 13.1242 10 13.1242C11.4477 13.1242 11.7719 16.0609 11.8383 16.9609C11.8548 17.1828 11.9298 17.3964 12.0558 17.5797C12.1818 17.7631 12.3542 17.9097 12.5555 18.0047C12.7539 18.0999 12.9744 18.1399 13.1936 18.1205C13.4129 18.1012 13.6229 18.0231 13.8016 17.8945C14.7391 17.2281 15.6703 15.6898 16.3516 13.6758C16.875 12.1211 17.5 9.56797 17.5 6.23047C17.4948 5.07353 17.0316 3.96575 16.2117 3.14949C15.3918 2.33324 14.2819 1.87499 13.125 1.875ZM13.3594 6.29453C13.4356 6.32531 13.5049 6.37079 13.5635 6.42838C13.6221 6.48597 13.6688 6.55453 13.7009 6.63016C13.733 6.70579 13.7499 6.787 13.7506 6.86916C13.7513 6.95131 13.7359 7.03281 13.7051 7.10898C13.6743 7.18516 13.6288 7.25453 13.5712 7.31313C13.5136 7.37173 13.4451 7.41841 13.3694 7.45051C13.2938 7.48262 13.2126 7.49951 13.1305 7.50022C13.0483 7.50094 12.9668 7.48547 12.8906 7.45469L10 6.29766L7.10938 7.45469C7.0332 7.48547 6.9517 7.50094 6.86955 7.50022C6.78739 7.49951 6.70618 7.48262 6.63055 7.45051C6.55492 7.41841 6.48636 7.37173 6.42877 7.31313C6.37118 7.25453 6.3257 7.18516 6.29492 7.10898C6.26414 7.03281 6.24867 6.95131 6.24939 6.86916C6.2501 6.787 6.26699 6.70579 6.29909 6.63016C6.3312 6.55453 6.37788 6.48597 6.43648 6.42838C6.49508 6.37079 6.56445 6.32531 6.64062 6.29453L8.31719 5.625L6.64062 4.95469C6.56445 4.92391 6.49508 4.87843 6.43648 4.82084C6.37788 4.76325 6.3312 4.69469 6.29909 4.61906C6.26699 4.54343 6.2501 4.46222 6.24939 4.38006C6.24867 4.2979 6.26414 4.21641 6.29492 4.14023C6.3257 4.06406 6.37118 3.99469 6.42877 3.93609C6.48636 3.87749 6.55492 3.83081 6.63055 3.7987C6.70618 3.7666 6.78739 3.74971 6.86955 3.749C6.9517 3.74828 7.0332 3.76375 7.10938 3.79453L10 4.95156L12.8906 3.79453C12.9668 3.76375 13.0483 3.74828 13.1305 3.749C13.2126 3.74971 13.2938 3.7666 13.3694 3.7987C13.4451 3.83081 13.5136 3.87749 13.5712 3.93609C13.6288 3.99469 13.6743 4.06406 13.7051 4.14023C13.7359 4.21641 13.7513 4.2979 13.7506 4.38006C13.7499 4.46222 13.733 4.54343 13.7009 4.61906C13.6688 4.69469 13.6221 4.76325 13.5635 4.82084C13.5049 4.87843 13.4356 4.92391 13.3594 4.95469L11.6828 5.625L13.3594 6.29453Z" fill="#191F2E"/>
</svg>
