<svg width="20" height="20" viewBox="0 0 20 20" fill="none" xmlns="http://www.w3.org/2000/svg">
<path d="M18.4375 5.42188C18.319 5.28883 18.1736 5.18243 18.0109 5.10971C17.8482 5.03699 17.6719 4.9996 17.4937 5H13.75C13.75 4.00544 13.3549 3.05161 12.6516 2.34835C11.9484 1.64509 10.9946 1.25 10 1.25C9.00543 1.25 8.05161 1.64509 7.34835 2.34835C6.64508 3.05161 6.25 4.00544 6.25 5H2.50625C2.32911 5.00048 2.15406 5.0383 1.99252 5.11099C1.83098 5.18368 1.68658 5.28961 1.56875 5.42188C1.45189 5.55365 1.36421 5.70862 1.31143 5.87665C1.25865 6.04467 1.24198 6.22195 1.2625 6.39687L2.37656 15.7719C2.41269 16.0773 2.56018 16.3587 2.7908 16.5623C3.02142 16.7658 3.31898 16.8771 3.62656 16.875H16.3805C16.688 16.8771 16.9856 16.7658 17.2162 16.5623C17.4468 16.3587 17.5943 16.0773 17.6305 15.7719L18.7445 6.39687C18.7649 6.2219 18.7481 6.04458 18.6952 5.87656C18.6423 5.70853 18.5545 5.55358 18.4375 5.42188ZM10 2.5C10.663 2.5 11.2989 2.76339 11.7678 3.23223C12.2366 3.70107 12.5 4.33696 12.5 5H7.5C7.5 4.33696 7.76339 3.70107 8.23223 3.23223C8.70107 2.76339 9.33696 2.5 10 2.5Z" fill="#191F2E"/>
</svg>
