<svg width="20" height="20" viewBox="0 0 20 20" fill="none" xmlns="http://www.w3.org/2000/svg">
<path d="M18.6719 5.21474C18.5247 5.04925 18.3442 4.91672 18.1423 4.82584C17.9403 4.73496 17.7215 4.68778 17.5 4.6874H14.0492C13.9668 3.67011 13.5044 2.72113 12.7541 2.02921C12.0038 1.33729 11.0206 0.953125 9.99999 0.953125C8.97937 0.953125 7.99614 1.33729 7.24586 2.02921C6.49559 2.72113 6.03324 3.67011 5.95078 4.6874H2.50624C2.28504 4.68653 2.06618 4.73264 1.86413 4.82267C1.66207 4.91271 1.48144 5.04462 1.33418 5.20968C1.18692 5.37474 1.07638 5.56919 1.00988 5.78016C0.943385 5.99113 0.922439 6.21382 0.948432 6.43349L2.06171 15.8085C2.10777 16.1891 2.29174 16.5396 2.57882 16.7937C2.86589 17.0478 3.23615 17.1879 3.61953 17.1874H16.3805C16.7638 17.1879 17.1341 17.0478 17.4212 16.7937C17.7082 16.5396 17.8922 16.1891 17.9383 15.8085L19.0516 6.43349C19.0776 6.21506 19.0573 5.99359 18.9919 5.78357C18.9264 5.57355 18.8174 5.37971 18.6719 5.21474ZM9.99999 2.8124C10.526 2.81245 11.0343 3.00202 11.4319 3.34637C11.8295 3.69073 12.0897 4.16681 12.1648 4.6874H7.83515C7.91029 4.16681 8.17049 3.69073 8.56808 3.34637C8.96566 3.00202 9.47401 2.81245 9.99999 2.8124ZM16.1086 15.3124H3.8914L2.85156 6.5624H5.93749V8.1249C5.93749 8.37354 6.03627 8.61199 6.21208 8.78781C6.3879 8.96362 6.62635 9.0624 6.87499 9.0624C7.12364 9.0624 7.36209 8.96362 7.53791 8.78781C7.71372 8.61199 7.81249 8.37354 7.81249 8.1249V6.5624H12.1875V8.1249C12.1875 8.37354 12.2863 8.61199 12.4621 8.78781C12.6379 8.96362 12.8764 9.0624 13.125 9.0624C13.3736 9.0624 13.6121 8.96362 13.7879 8.78781C13.9637 8.61199 14.0625 8.37354 14.0625 8.1249V6.5624H17.1484L16.1086 15.3124Z" fill="#191F2E"/>
</svg>
