<svg width="20" height="20" viewBox="0 0 20 20" fill="none" xmlns="http://www.w3.org/2000/svg">
<path d="M10 1.875C8.39303 1.875 6.82214 2.35152 5.48599 3.24431C4.14984 4.1371 3.10844 5.40605 2.49348 6.8907C1.87852 8.37535 1.71761 10.009 2.03112 11.5851C2.34462 13.1612 3.11846 14.6089 4.25476 15.7452C5.39106 16.8815 6.8388 17.6554 8.41489 17.9689C9.99099 18.2824 11.6247 18.1215 13.1093 17.5065C14.594 16.8916 15.8629 15.8502 16.7557 14.514C17.6485 13.1779 18.125 11.607 18.125 10C18.1227 7.84581 17.266 5.78051 15.7427 4.25727C14.2195 2.73403 12.1542 1.87727 10 1.875ZM10 16.875C8.64025 16.875 7.31104 16.4718 6.18045 15.7164C5.04987 14.9609 4.16868 13.8872 3.64833 12.6309C3.12798 11.3747 2.99183 9.99237 3.2571 8.65875C3.52237 7.32513 4.17715 6.10013 5.13864 5.13864C6.10013 4.17716 7.32513 3.52237 8.65875 3.2571C9.99237 2.99183 11.3747 3.12798 12.6309 3.64833C13.8872 4.16868 14.9609 5.04987 15.7164 6.18045C16.4718 7.31104 16.875 8.64025 16.875 10C16.8729 11.8227 16.1479 13.5702 14.8591 14.8591C13.5702 16.1479 11.8227 16.8729 10 16.875ZM11.8039 10.9539C12.295 10.6909 12.6842 10.2715 12.9097 9.76209C13.1352 9.25271 13.1842 8.6826 13.0487 8.14224C12.9133 7.60188 12.6013 7.12223 12.1622 6.77942C11.7231 6.43661 11.1821 6.25028 10.625 6.25H8.125C7.95924 6.25 7.80027 6.31585 7.68306 6.43306C7.56585 6.55027 7.5 6.70924 7.5 6.875V13.125C7.5 13.2908 7.56585 13.4497 7.68306 13.5669C7.80027 13.6842 7.95924 13.75 8.125 13.75C8.29076 13.75 8.44973 13.6842 8.56694 13.5669C8.68415 13.4497 8.75 13.2908 8.75 13.125V11.25H10.4992L11.9836 13.4719C12.0756 13.6099 12.2186 13.7057 12.3813 13.7382C12.5439 13.7707 12.7128 13.7373 12.8508 13.6453C12.9888 13.5533 13.0846 13.4103 13.1171 13.2476C13.1496 13.085 13.1162 12.9161 13.0242 12.7781L11.8039 10.9539ZM8.75 7.5H10.625C10.9565 7.5 11.2745 7.6317 11.5089 7.86612C11.7433 8.10054 11.875 8.41848 11.875 8.75C11.875 9.08152 11.7433 9.39946 11.5089 9.63388C11.2745 9.8683 10.9565 10 10.625 10H8.75V7.5Z" fill="#191F2E"/>
</svg>
