<svg width="20" height="20" viewBox="0 0 20 20" fill="none" xmlns="http://www.w3.org/2000/svg">
<path d="M10 1.5625C8.33122 1.5625 6.69992 2.05735 5.31238 2.98448C3.92484 3.9116 2.84338 5.22936 2.20477 6.77111C1.56616 8.31286 1.39907 10.0094 1.72463 11.6461C2.05019 13.2828 2.85379 14.7862 4.03379 15.9662C5.2138 17.1462 6.71721 17.9498 8.35393 18.2754C9.99064 18.6009 11.6871 18.4338 13.2289 17.7952C14.7706 17.1566 16.0884 16.0752 17.0155 14.6876C17.9427 13.3001 18.4375 11.6688 18.4375 10C18.435 7.763 17.5453 5.61833 15.9635 4.03653C14.3817 2.45473 12.237 1.56498 10 1.5625ZM10 16.5625C8.70206 16.5625 7.43327 16.1776 6.35407 15.4565C5.27488 14.7354 4.43374 13.7105 3.93704 12.5114C3.44034 11.3122 3.31038 9.99272 3.5636 8.71972C3.81682 7.44672 4.44183 6.27739 5.35962 5.35961C6.2774 4.44183 7.44672 3.81681 8.71972 3.5636C9.99272 3.31038 11.3122 3.44034 12.5114 3.93704C13.7105 4.43374 14.7354 5.27487 15.4565 6.35407C16.1776 7.43327 16.5625 8.70206 16.5625 10C16.5606 11.7399 15.8686 13.408 14.6383 14.6383C13.408 15.8686 11.7399 16.5606 10 16.5625ZM12.2422 11.0484C12.7301 10.7044 13.0958 10.214 13.2865 9.64822C13.4772 9.08248 13.4829 8.47073 13.3028 7.90154C13.1227 7.33234 12.7661 6.83522 12.2847 6.48213C11.8033 6.12903 11.222 5.93829 10.625 5.9375H8.125C7.87636 5.9375 7.63791 6.03627 7.46209 6.21209C7.28628 6.3879 7.1875 6.62636 7.1875 6.875V13.125C7.1875 13.3736 7.28628 13.6121 7.46209 13.7879C7.63791 13.9637 7.87636 14.0625 8.125 14.0625C8.37364 14.0625 8.6121 13.9637 8.78792 13.7879C8.96373 13.6121 9.0625 13.3736 9.0625 13.125V11.5625H10.3313L11.7188 13.6453C11.8567 13.8525 12.0714 13.9964 12.3155 14.0453C12.5596 14.0943 12.8131 14.0442 13.0203 13.9062C13.2275 13.7683 13.3714 13.5536 13.4203 13.3095C13.4693 13.0654 13.4192 12.8119 13.2813 12.6047L12.2422 11.0484ZM9.0625 7.8125H10.625C10.8736 7.8125 11.1121 7.91127 11.2879 8.08709C11.4637 8.2629 11.5625 8.50136 11.5625 8.75C11.5625 8.99864 11.4637 9.2371 11.2879 9.41291C11.1121 9.58873 10.8736 9.6875 10.625 9.6875H9.0625V7.8125Z" fill="#191F2E"/>
</svg>
