<svg width="20" height="20" viewBox="0 0 20 20" fill="none" xmlns="http://www.w3.org/2000/svg">
<path d="M10 1.875C8.39303 1.875 6.82214 2.35152 5.486 3.24431C4.14985 4.1371 3.10844 5.40605 2.49348 6.8907C1.87852 8.37535 1.71762 10.009 2.03112 11.5851C2.34463 13.1612 3.11846 14.6089 4.25476 15.7452C5.39106 16.8815 6.8388 17.6554 8.4149 17.9689C9.99099 18.2824 11.6247 18.1215 13.1093 17.5065C14.594 16.8916 15.8629 15.8502 16.7557 14.514C17.6485 13.1779 18.125 11.607 18.125 10C18.1227 7.84581 17.266 5.78051 15.7427 4.25727C14.2195 2.73403 12.1542 1.87727 10 1.875ZM8.125 8.75H7.5V11.875C7.5 12.0408 7.43416 12.1997 7.31695 12.3169C7.19974 12.4342 7.04076 12.5 6.875 12.5C6.70924 12.5 6.55027 12.4342 6.43306 12.3169C6.31585 12.1997 6.25 12.0408 6.25 11.875V8.75H5.625C5.45924 8.75 5.30027 8.68415 5.18306 8.56694C5.06585 8.44973 5 8.29076 5 8.125C5 7.95924 5.06585 7.80027 5.18306 7.68306C5.30027 7.56585 5.45924 7.5 5.625 7.5H8.125C8.29076 7.5 8.44974 7.56585 8.56695 7.68306C8.68416 7.80027 8.75 7.95924 8.75 8.125C8.75 8.29076 8.68416 8.44973 8.56695 8.56694C8.44974 8.68415 8.29076 8.75 8.125 8.75ZM15 11.875C15 12.0408 14.9342 12.1997 14.8169 12.3169C14.6997 12.4342 14.5408 12.5 14.375 12.5C14.2092 12.5 14.0503 12.4342 13.9331 12.3169C13.8159 12.1997 13.75 12.0408 13.75 11.875V9.78828L12.6563 11.0383C12.5976 11.1048 12.5255 11.158 12.4447 11.1945C12.3638 11.231 12.2762 11.2499 12.1875 11.2499C12.0988 11.2499 12.0112 11.231 11.9304 11.1945C11.8495 11.158 11.7774 11.1048 11.7188 11.0383L10.625 9.78828V11.875C10.625 12.0408 10.5592 12.1997 10.4419 12.3169C10.3247 12.4342 10.1658 12.5 10 12.5C9.83424 12.5 9.67527 12.4342 9.55806 12.3169C9.44085 12.1997 9.375 12.0408 9.375 11.875V8.125C9.37534 7.99819 9.41425 7.87449 9.48655 7.77031C9.55886 7.66614 9.66114 7.58642 9.77982 7.54175C9.89849 7.49707 10.028 7.48956 10.151 7.52019C10.2741 7.55083 10.3849 7.61818 10.4688 7.71328L12.1875 9.67578L13.9063 7.71328C13.9901 7.61818 14.101 7.55083 14.224 7.52019C14.3471 7.48956 14.4765 7.49707 14.5952 7.54175C14.7139 7.58642 14.8162 7.66614 14.8885 7.77031C14.9608 7.87449 14.9997 7.99819 15 8.125V11.875Z" fill="#191F2E"/>
</svg>
