<svg width="20" height="20" viewBox="0 0 20 20" fill="none" xmlns="http://www.w3.org/2000/svg">
<path d="M10 1.5625C8.33122 1.5625 6.69992 2.05735 5.31238 2.98448C3.92484 3.9116 2.84338 5.22936 2.20477 6.77111C1.56616 8.31286 1.39907 10.0094 1.72463 11.6461C2.05019 13.2828 2.85379 14.7862 4.03379 15.9662C5.2138 17.1462 6.71721 17.9498 8.35393 18.2754C9.99064 18.6009 11.6871 18.4338 13.2289 17.7952C14.7706 17.1566 16.0884 16.0752 17.0155 14.6876C17.9427 13.3001 18.4375 11.6688 18.4375 10C18.435 7.763 17.5453 5.61833 15.9635 4.03653C14.3817 2.45473 12.237 1.56498 10 1.5625ZM10 16.5625C8.70206 16.5625 7.43327 16.1776 6.35407 15.4565C5.27488 14.7354 4.43374 13.7105 3.93704 12.5114C3.44034 11.3122 3.31038 9.99272 3.5636 8.71972C3.81682 7.44672 4.44183 6.27739 5.35962 5.35961C6.2774 4.44183 7.44672 3.81681 8.71972 3.5636C9.99272 3.31038 11.3122 3.44034 12.5114 3.93704C13.7105 4.43374 14.7354 5.27487 15.4565 6.35407C16.1776 7.43327 16.5625 8.70206 16.5625 10C16.5606 11.7399 15.8686 13.408 14.6383 14.6383C13.408 15.8686 11.7399 16.5606 10 16.5625ZM15 8.4375V11.5625C15 11.8111 14.9012 12.0496 14.7254 12.2254C14.5496 12.4012 14.3111 12.5 14.0625 12.5C13.8139 12.5 13.5754 12.4012 13.3996 12.2254C13.2238 12.0496 13.125 11.8111 13.125 11.5625V10.4758L12.4852 11.0227C12.3152 11.1683 12.0988 11.2484 11.875 11.2484C11.6512 11.2484 11.4348 11.1683 11.2648 11.0227L10.625 10.4758V11.5625C10.625 11.8111 10.5262 12.0496 10.3504 12.2254C10.1746 12.4012 9.93614 12.5 9.6875 12.5C9.43886 12.5 9.20041 12.4012 9.02459 12.2254C8.84878 12.0496 8.75 11.8111 8.75 11.5625V9.375H7.8125V11.5625C7.8125 11.8111 7.71373 12.0496 7.53792 12.2254C7.3621 12.4012 7.12364 12.5 6.875 12.5C6.62636 12.5 6.38791 12.4012 6.21209 12.2254C6.03628 12.0496 5.9375 11.8111 5.9375 11.5625V9.375H5.625C5.37636 9.375 5.13791 9.27623 4.96209 9.10041C4.78628 8.9246 4.6875 8.68614 4.6875 8.4375C4.6875 8.18886 4.78628 7.9504 4.96209 7.77459C5.13791 7.59877 5.37636 7.5 5.625 7.5H9.6875C9.91132 7.50001 10.1277 7.5801 10.2977 7.72578L11.875 9.07812L13.4523 7.72578C13.5885 7.60909 13.7552 7.53388 13.9328 7.50907C14.1103 7.48426 14.2913 7.51089 14.4542 7.5858C14.6171 7.66071 14.7551 7.78076 14.8518 7.93172C14.9486 8.08267 15 8.25821 15 8.4375Z" fill="#191F2E"/>
</svg>
