<svg width="20" height="20" viewBox="0 0 20 20" fill="none" xmlns="http://www.w3.org/2000/svg">
<path d="M11.875 8.75C11.875 9.08152 11.7433 9.39946 11.5089 9.63388C11.2745 9.8683 10.9565 10 10.625 10H8.75V7.5H10.625C10.9565 7.5 11.2745 7.6317 11.5089 7.86612C11.7433 8.10054 11.875 8.41848 11.875 8.75ZM18.125 10C18.125 11.607 17.6485 13.1779 16.7557 14.514C15.8629 15.8502 14.594 16.8916 13.1093 17.5065C11.6247 18.1215 9.99099 18.2824 8.4149 17.9689C6.8388 17.6554 5.39106 16.8815 4.25476 15.7452C3.11846 14.6089 2.34463 13.1612 2.03112 11.5851C1.71762 10.009 1.87852 8.37535 2.49348 6.8907C3.10844 5.40605 4.14985 4.1371 5.486 3.24431C6.82214 2.35152 8.39303 1.875 10 1.875C12.1542 1.87727 14.2195 2.73403 15.7427 4.25727C17.266 5.78051 18.1227 7.84581 18.125 10ZM16.875 10C16.875 8.64025 16.4718 7.31104 15.7164 6.18045C14.9609 5.04987 13.8872 4.16868 12.631 3.64833C11.3747 3.12798 9.99238 2.99183 8.65876 3.2571C7.32514 3.52237 6.10013 4.17716 5.13864 5.13864C4.17716 6.10013 3.52238 7.32513 3.2571 8.65875C2.99183 9.99237 3.12798 11.3747 3.64833 12.6309C4.16868 13.8872 5.04987 14.9609 6.18046 15.7164C7.31105 16.4718 8.64026 16.875 10 16.875C11.8227 16.8729 13.5702 16.1479 14.8591 14.8591C16.1479 13.5702 16.8729 11.8227 16.875 10ZM15.625 10C15.625 11.1125 15.2951 12.2001 14.677 13.1251C14.0589 14.0501 13.1804 14.7711 12.1526 15.1968C11.1248 15.6226 9.99376 15.734 8.90262 15.5169C7.81148 15.2999 6.8092 14.7641 6.02253 13.9775C5.23586 13.1908 4.70013 12.1885 4.48309 11.0974C4.26604 10.0062 4.37744 8.87524 4.80318 7.84741C5.22892 6.81957 5.94989 5.94107 6.87492 5.32298C7.79995 4.7049 8.88748 4.375 10 4.375C11.4913 4.37665 12.9211 4.96982 13.9757 6.02435C15.0302 7.07889 15.6233 8.50867 15.625 10ZM13.0203 12.7781L11.8039 10.9539C12.295 10.6909 12.6842 10.2715 12.9097 9.76209C13.1352 9.25271 13.1842 8.6826 13.0487 8.14224C12.9133 7.60188 12.6013 7.12223 12.1622 6.77942C11.7231 6.43661 11.1821 6.25028 10.625 6.25H8.125C7.95924 6.25 7.80027 6.31585 7.68306 6.43306C7.56585 6.55027 7.5 6.70924 7.5 6.875V13.125C7.5 13.2908 7.56585 13.4497 7.68306 13.5669C7.80027 13.6842 7.95924 13.75 8.125 13.75C8.29076 13.75 8.44974 13.6842 8.56695 13.5669C8.68416 13.4497 8.75 13.2908 8.75 13.125V11.25H10.4992L11.9836 13.4719C12.0756 13.6099 12.2186 13.7057 12.3813 13.7382C12.5439 13.7707 12.7128 13.7373 12.8508 13.6453C12.9888 13.5533 13.0846 13.4103 13.1171 13.2476C13.1496 13.085 13.1162 12.9161 13.0242 12.7781H13.0203Z" fill="#191F2E"/>
</svg>
