<svg width="20" height="20" viewBox="0 0 20 20" fill="none" xmlns="http://www.w3.org/2000/svg">
<path d="M10 4.375C9.50555 4.375 9.0222 4.52162 8.61107 4.79633C8.19995 5.07103 7.87952 5.46148 7.6903 5.91829C7.50108 6.37511 7.45157 6.87777 7.54804 7.36273C7.6445 7.84768 7.8826 8.29314 8.23223 8.64277C8.58186 8.9924 9.02732 9.2305 9.51227 9.32696C9.99723 9.42343 10.4999 9.37392 10.9567 9.1847C11.4135 8.99548 11.804 8.67505 12.0787 8.26393C12.3534 7.8528 12.5 7.36945 12.5 6.875C12.5 6.21196 12.2366 5.57607 11.7678 5.10723C11.2989 4.63839 10.663 4.375 10 4.375ZM10 8.125C9.75277 8.125 9.5111 8.05169 9.30554 7.91434C9.09998 7.77699 8.93976 7.58176 8.84515 7.35335C8.75054 7.12495 8.72579 6.87361 8.77402 6.63114C8.82225 6.38866 8.9413 6.16593 9.11612 5.99112C9.29093 5.8163 9.51366 5.69725 9.75614 5.64902C9.99861 5.60079 10.2499 5.62554 10.4784 5.72015C10.7068 5.81476 10.902 5.97498 11.0393 6.18054C11.1767 6.3861 11.25 6.62777 11.25 6.875C11.25 7.20652 11.1183 7.52446 10.8839 7.75888C10.6495 7.9933 10.3315 8.125 10 8.125ZM10 10.625C9.50555 10.625 9.0222 10.7716 8.61107 11.0463C8.19995 11.321 7.87952 11.7115 7.6903 12.1683C7.50108 12.6251 7.45157 13.1278 7.54804 13.6127C7.6445 14.0977 7.8826 14.5431 8.23223 14.8928C8.58186 15.2424 9.02732 15.4805 9.51227 15.577C9.99723 15.6734 10.4999 15.6239 10.9567 15.4347C11.4135 15.2455 11.804 14.925 12.0787 14.5139C12.3534 14.1028 12.5 13.6195 12.5 13.125C12.5 12.462 12.2366 11.8261 11.7678 11.3572C11.2989 10.8884 10.663 10.625 10 10.625ZM10 14.375C9.75277 14.375 9.5111 14.3017 9.30554 14.1643C9.09998 14.027 8.93976 13.8318 8.84515 13.6034C8.75054 13.3749 8.72579 13.1236 8.77402 12.8811C8.82225 12.6387 8.9413 12.4159 9.11612 12.2411C9.29093 12.0663 9.51366 11.9472 9.75614 11.899C9.99861 11.8508 10.2499 11.8755 10.4784 11.9701C10.7068 12.0648 10.902 12.225 11.0393 12.4305C11.1767 12.6361 11.25 12.8778 11.25 13.125C11.25 13.4565 11.1183 13.7745 10.8839 14.0089C10.6495 14.2433 10.3315 14.375 10 14.375ZM16.875 11.25H15.625V6.25H16.875C17.0408 6.25 17.1997 6.18415 17.3169 6.06694C17.4342 5.94973 17.5 5.79076 17.5 5.625C17.5 5.45924 17.4342 5.30027 17.3169 5.18306C17.1997 5.06585 17.0408 5 16.875 5H15.625V3.125C15.625 2.79348 15.4933 2.47554 15.2589 2.24112C15.0245 2.0067 14.7065 1.875 14.375 1.875H5.625C5.29348 1.875 4.97554 2.0067 4.74112 2.24112C4.5067 2.47554 4.375 2.79348 4.375 3.125V5H3.125C2.95924 5 2.80027 5.06585 2.68306 5.18306C2.56585 5.30027 2.5 5.45924 2.5 5.625C2.5 5.79076 2.56585 5.94973 2.68306 6.06694C2.80027 6.18415 2.95924 6.25 3.125 6.25H4.375V11.25H3.125C2.95924 11.25 2.80027 11.3158 2.68306 11.4331C2.56585 11.5503 2.5 11.7092 2.5 11.875C2.5 12.0408 2.56585 12.1997 2.68306 12.3169C2.80027 12.4342 2.95924 12.5 3.125 12.5H4.375V16.875C4.375 17.2065 4.5067 17.5245 4.74112 17.7589C4.97554 17.9933 5.29348 18.125 5.625 18.125H14.375C14.7065 18.125 15.0245 17.9933 15.2589 17.7589C15.4933 17.5245 15.625 17.2065 15.625 16.875V12.5H16.875C17.0408 12.5 17.1997 12.4342 17.3169 12.3169C17.4342 12.1997 17.5 12.0408 17.5 11.875C17.5 11.7092 17.4342 11.5503 17.3169 11.4331C17.1997 11.3158 17.0408 11.25 16.875 11.25ZM14.375 16.875H5.625V3.125H14.375V16.875Z" fill="#191F2E"/>
</svg>
