<svg width="20" height="20" viewBox="0 0 20 20" fill="none" xmlns="http://www.w3.org/2000/svg">
<path d="M18.125 15.9375H16.9164L12.2812 2.61172C12.1747 2.30524 11.9753 2.03956 11.7108 1.85154C11.4464 1.66352 11.1299 1.5625 10.8055 1.5625H9.19453C8.87005 1.5625 8.55362 1.66352 8.28916 1.85154C8.0247 2.03956 7.82534 2.30524 7.71875 2.61172L3.08359 15.9375H1.875C1.62636 15.9375 1.3879 16.0363 1.21209 16.2121C1.03627 16.3879 0.9375 16.6264 0.9375 16.875C0.9375 17.1236 1.03627 17.3621 1.21209 17.5379C1.3879 17.7137 1.62636 17.8125 1.875 17.8125H18.125C18.3736 17.8125 18.6121 17.7137 18.7879 17.5379C18.9637 17.3621 19.0625 17.1236 19.0625 16.875C19.0625 16.6264 18.9637 16.3879 18.7879 16.2121C18.6121 16.0363 18.3736 15.9375 18.125 15.9375ZM7.67734 8.4375H12.3227L13.4094 11.5625H6.59062L7.67734 8.4375ZM9.41641 3.4375H10.5836L11.6703 6.5625H8.32969L9.41641 3.4375ZM5.9375 13.4375H14.0625L14.932 15.9375H5.06875L5.9375 13.4375Z" fill="#191F2E"/>
</svg>
