<svg width="20" height="20" viewBox="0 0 20 20" fill="none" xmlns="http://www.w3.org/2000/svg">
<path d="M18.9961 9.08516L10.9149 1.00391C10.7948 0.883762 10.6521 0.788459 10.4952 0.723438C10.3382 0.658416 10.17 0.62495 10 0.62495C9.83015 0.62495 9.66191 0.658416 9.50494 0.723438C9.34797 0.788459 9.20534 0.883762 9.08521 1.00391L1.00395 9.08516C0.883812 9.20529 0.788509 9.34792 0.723487 9.50489C0.658466 9.66186 0.625 9.8301 0.625 10C0.625 10.1699 0.658466 10.3381 0.723487 10.4951C0.788509 10.6521 0.883812 10.7947 1.00395 10.9148L9.08521 18.9961C9.20534 19.1162 9.34797 19.2115 9.50494 19.2766C9.66191 19.3416 9.83015 19.375 10 19.375C10.17 19.375 10.3382 19.3416 10.4952 19.2766C10.6521 19.2115 10.7948 19.1162 10.9149 18.9961L18.9961 10.9148C19.1163 10.7947 19.2116 10.6521 19.2766 10.4951C19.3416 10.3381 19.3751 10.1699 19.3751 10C19.3751 9.8301 19.3416 9.66186 19.2766 9.50489C19.2116 9.34792 19.1163 9.20529 18.9961 9.08516ZM18.1125 10.0305L10.0313 18.1125C10.0229 18.1205 10.0117 18.125 10 18.125C9.98841 18.125 9.97722 18.1205 9.9688 18.1125L1.88755 10.0305C1.87963 10.0223 1.87519 10.0114 1.87519 10C1.87519 9.98862 1.87963 9.97769 1.88755 9.96953L9.9688 1.8875C9.97722 1.87947 9.98841 1.875 10 1.875C10.0117 1.875 10.0229 1.87947 10.0313 1.8875L18.1125 9.96953C18.1205 9.97769 18.1249 9.98862 18.1249 10C18.1249 10.0114 18.1205 10.0223 18.1125 10.0305ZM13.5672 8.93672C13.6253 8.99476 13.6714 9.06369 13.7029 9.13957C13.7344 9.21544 13.7505 9.29677 13.7505 9.37891C13.7505 9.46104 13.7344 9.54237 13.7029 9.61824C13.6714 9.69412 13.6253 9.76305 13.5672 9.82109L11.6922 11.6961C11.575 11.8134 11.4159 11.8793 11.25 11.8793C11.0842 11.8793 10.9251 11.8134 10.8079 11.6961C10.6906 11.5788 10.6247 11.4198 10.6247 11.2539C10.6247 11.0881 10.6906 10.929 10.8079 10.8117L11.6165 10H8.75005C8.41853 10 8.10059 10.1317 7.86617 10.3661C7.63175 10.6005 7.50005 10.9185 7.50005 11.25V11.875C7.50005 12.0408 7.4342 12.1997 7.31699 12.3169C7.19978 12.4342 7.04081 12.5 6.87505 12.5C6.70929 12.5 6.55032 12.4342 6.43311 12.3169C6.3159 12.1997 6.25005 12.0408 6.25005 11.875V11.25C6.25005 10.587 6.51344 9.95107 6.98228 9.48223C7.45112 9.01339 8.08701 8.75 8.75005 8.75H11.6165L10.8079 7.94219C10.6906 7.82491 10.6247 7.66585 10.6247 7.5C10.6247 7.33415 10.6906 7.17509 10.8079 7.05781C10.9251 6.94054 11.0842 6.87465 11.25 6.87465C11.4159 6.87465 11.575 6.94054 11.6922 7.05781L13.5672 8.93672Z" fill="#191F2E"/>
</svg>
