<svg width="20" height="20" viewBox="0 0 20 20" fill="none" xmlns="http://www.w3.org/2000/svg">
<path d="M18.125 16.25H16.6945L11.9859 2.71484C11.9008 2.4696 11.7413 2.25697 11.5298 2.10647C11.3182 1.95597 11.0651 1.87507 10.8055 1.875H9.19453C8.93501 1.87501 8.68193 1.9558 8.4704 2.10615C8.25887 2.2565 8.09938 2.46897 8.01406 2.71406L3.30547 16.25H1.875C1.70924 16.25 1.55027 16.3158 1.43306 16.4331C1.31585 16.5503 1.25 16.7092 1.25 16.875C1.25 17.0408 1.31585 17.1997 1.43306 17.3169C1.55027 17.4342 1.70924 17.5 1.875 17.5H18.125C18.2908 17.5 18.4497 17.4342 18.5669 17.3169C18.6842 17.1997 18.75 17.0408 18.75 16.875C18.75 16.7092 18.6842 16.5503 18.5669 16.4331C18.4497 16.3158 18.2908 16.25 18.125 16.25ZM7.45547 8.125H12.5445L13.8492 11.875H6.15078L7.45547 8.125ZM9.19453 3.125H10.8055L12.1094 6.875H7.89062L9.19453 3.125ZM5.71641 13.125H14.2836L15.3711 16.25H4.62891L5.71641 13.125Z" fill="#191F2E"/>
</svg>
