<svg width="20" height="20" viewBox="0 0 20 20" fill="none" xmlns="http://www.w3.org/2000/svg">
<path d="M14.375 1.875H5.625C4.96196 1.875 4.32607 2.13839 3.85723 2.60723C3.38839 3.07607 3.125 3.71196 3.125 4.375V14.375C3.125 15.038 3.38839 15.6739 3.85723 16.1428C4.32607 16.6116 4.96196 16.875 5.625 16.875H6.25L5.125 18.375C5.07575 18.4407 5.03992 18.5154 5.01955 18.5949C4.99918 18.6744 4.99467 18.7571 5.00628 18.8384C5.01789 18.9196 5.04539 18.9978 5.0872 19.0684C5.12902 19.1391 5.18434 19.2008 5.25 19.25C5.31566 19.2992 5.39038 19.3351 5.46989 19.3554C5.5494 19.3758 5.63214 19.3803 5.71339 19.3687C5.79464 19.3571 5.87281 19.3296 5.94343 19.2878C6.01406 19.246 6.07575 19.1907 6.125 19.125L7.8125 16.875H12.1875L13.875 19.125C13.9745 19.2576 14.1225 19.3453 14.2866 19.3687C14.4507 19.3922 14.6174 19.3495 14.75 19.25C14.8826 19.1505 14.9703 19.0025 14.9937 18.8384C15.0172 18.6743 14.9745 18.5076 14.875 18.375L13.75 16.875H14.375C15.038 16.875 15.6739 16.6116 16.1428 16.1428C16.6116 15.6739 16.875 15.038 16.875 14.375V4.375C16.875 3.71196 16.6116 3.07607 16.1428 2.60723C15.6739 2.13839 15.038 1.875 14.375 1.875ZM6.5625 14.375C6.37708 14.375 6.19582 14.32 6.04165 14.217C5.88748 14.114 5.76732 13.9676 5.69636 13.7963C5.62541 13.625 5.60684 13.4365 5.64301 13.2546C5.67919 13.0727 5.76848 12.9057 5.89959 12.7746C6.0307 12.6435 6.19775 12.5542 6.3796 12.518C6.56146 12.4818 6.74996 12.5004 6.92127 12.5714C7.09257 12.6423 7.23899 12.7625 7.342 12.9167C7.44502 13.0708 7.5 13.2521 7.5 13.4375C7.5 13.6861 7.40123 13.9246 7.22541 14.1004C7.0496 14.2762 6.81114 14.375 6.5625 14.375ZM9.375 9.375H4.375V6.25H9.375V9.375ZM13.4375 14.375C13.2521 14.375 13.0708 14.32 12.9167 14.217C12.7625 14.114 12.6423 13.9676 12.5714 13.7963C12.5004 13.625 12.4818 13.4365 12.518 13.2546C12.5542 13.0727 12.6435 12.9057 12.7746 12.7746C12.9057 12.6435 13.0727 12.5542 13.2546 12.518C13.4365 12.4818 13.625 12.5004 13.7963 12.5714C13.9676 12.6423 14.114 12.7625 14.217 12.9167C14.32 13.0708 14.375 13.2521 14.375 13.4375C14.375 13.6861 14.2762 13.9246 14.1004 14.1004C13.9246 14.2762 13.6861 14.375 13.4375 14.375ZM15.625 9.375H10.625V6.25H15.625V9.375Z" fill="#191F2E"/>
</svg>
