<svg width="20" height="20" viewBox="0 0 20 20" fill="none" xmlns="http://www.w3.org/2000/svg">
<path d="M14.375 1.5625H5.625C4.87908 1.5625 4.16371 1.85882 3.63626 2.38626C3.10882 2.91371 2.8125 3.62908 2.8125 4.375V14.375C2.8125 15.1209 3.10882 15.8363 3.63626 16.3637C4.16371 16.8912 4.87908 17.1875 5.625 17.1875L4.875 18.1875C4.72582 18.3864 4.66176 18.6364 4.69692 18.8826C4.73209 19.1287 4.86359 19.3508 5.0625 19.5C5.26141 19.6492 5.51144 19.7132 5.75758 19.6781C6.00372 19.6429 6.22582 19.5114 6.375 19.3125L7.96875 17.1875H12.0312L13.625 19.3125C13.7742 19.5114 13.9963 19.6429 14.2424 19.6781C14.4886 19.7132 14.7386 19.6492 14.9375 19.5C15.1364 19.3508 15.2679 19.1287 15.3031 18.8826C15.3382 18.6364 15.2742 18.3864 15.125 18.1875L14.375 17.1875C15.1209 17.1875 15.8363 16.8912 16.3637 16.3637C16.8912 15.8363 17.1875 15.1209 17.1875 14.375V4.375C17.1875 3.62908 16.8912 2.91371 16.3637 2.38626C15.8363 1.85882 15.1209 1.5625 14.375 1.5625ZM5.625 3.4375H14.375C14.6236 3.4375 14.8621 3.53627 15.0379 3.71209C15.2137 3.8879 15.3125 4.12636 15.3125 4.375V9.0625H4.6875V4.375C4.6875 4.12636 4.78627 3.8879 4.96209 3.71209C5.1379 3.53627 5.37636 3.4375 5.625 3.4375ZM14.375 15.3125H5.625C5.37636 15.3125 5.1379 15.2137 4.96209 15.0379C4.78627 14.8621 4.6875 14.6236 4.6875 14.375V10.9375H15.3125V14.375C15.3125 14.6236 15.2137 14.8621 15.0379 15.0379C14.8621 15.2137 14.6236 15.3125 14.375 15.3125ZM8.125 13.125C8.125 13.3722 8.05169 13.6139 7.91434 13.8195C7.77699 14.025 7.58176 14.1852 7.35335 14.2799C7.12495 14.3745 6.87361 14.3992 6.63114 14.351C6.38866 14.3028 6.16593 14.1837 5.99112 14.0089C5.8163 13.8341 5.69725 13.6113 5.64902 13.3689C5.60079 13.1264 5.62554 12.8751 5.72015 12.6466C5.81476 12.4182 5.97498 12.223 6.18054 12.0857C6.3861 11.9483 6.62777 11.875 6.875 11.875C7.20652 11.875 7.52446 12.0067 7.75888 12.2411C7.9933 12.4755 8.125 12.7935 8.125 13.125ZM14.375 13.125C14.375 13.3722 14.3017 13.6139 14.1643 13.8195C14.027 14.025 13.8318 14.1852 13.6034 14.2799C13.3749 14.3745 13.1236 14.3992 12.8811 14.351C12.6387 14.3028 12.4159 14.1837 12.2411 14.0089C12.0663 13.8341 11.9472 13.6113 11.899 13.3689C11.8508 13.1264 11.8755 12.8751 11.9701 12.6466C12.0648 12.4182 12.225 12.223 12.4305 12.0857C12.6361 11.9483 12.8778 11.875 13.125 11.875C13.4565 11.875 13.7745 12.0067 14.0089 12.2411C14.2433 12.4755 14.375 12.7935 14.375 13.125Z" fill="#191F2E"/>
</svg>
