<svg width="20" height="20" viewBox="0 0 20 20" fill="none" xmlns="http://www.w3.org/2000/svg">
<path d="M13.1251 6.875C13.1251 7.04076 13.0592 7.19973 12.942 7.31694C12.8248 7.43415 12.6658 7.5 12.5001 7.5H7.50006C7.3343 7.5 7.17533 7.43415 7.05812 7.31694C6.94091 7.19973 6.87506 7.04076 6.87506 6.875C6.87506 6.70924 6.94091 6.55027 7.05812 6.43306C7.17533 6.31585 7.3343 6.25 7.50006 6.25H12.5001C12.6658 6.25 12.8248 6.31585 12.942 6.43306C13.0592 6.55027 13.1251 6.70924 13.1251 6.875ZM17.4782 9.53906L15.729 15.9539C15.6568 16.2185 15.4996 16.452 15.2816 16.6185C15.0637 16.7849 14.797 16.8751 14.5227 16.875H13.7501L14.8751 18.375C14.9243 18.4407 14.9601 18.5154 14.9805 18.5949C15.0009 18.6744 15.0054 18.7571 14.9938 18.8384C14.9822 18.9196 14.9547 18.9978 14.9129 19.0684C14.871 19.1391 14.8157 19.2008 14.7501 19.25C14.6844 19.2992 14.6097 19.3351 14.5302 19.3554C14.4507 19.3758 14.3679 19.3803 14.2867 19.3687C14.2054 19.3571 14.1273 19.3296 14.0566 19.2878C13.986 19.246 13.9243 19.1907 13.8751 19.125L12.1876 16.875H7.81256L6.12506 19.125C6.07582 19.1907 6.01412 19.246 5.9435 19.2878C5.87287 19.3296 5.7947 19.3571 5.71345 19.3687C5.6322 19.3803 5.54946 19.3758 5.46995 19.3554C5.39044 19.3351 5.31572 19.2992 5.25006 19.25C5.1844 19.2008 5.12908 19.1391 5.08727 19.0684C5.04545 18.9978 5.01795 18.9196 5.00634 18.8384C4.99474 18.7571 4.99925 18.6744 5.01962 18.5949C5.03999 18.5154 5.07582 18.4407 5.12506 18.375L6.25006 16.875H5.47741C5.20314 16.8751 4.93647 16.7849 4.71849 16.6185C4.50051 16.452 4.34332 16.2185 4.27116 15.9539L2.52194 9.53906C2.49301 9.4316 2.49301 9.3184 2.52194 9.21094L4.27116 2.79609C4.34332 2.53149 4.50051 2.29797 4.71849 2.13152C4.93647 1.96507 5.20314 1.87493 5.47741 1.875H14.5227C14.797 1.87493 15.0637 1.96507 15.2816 2.13152C15.4996 2.29797 15.6568 2.53149 15.729 2.79609L17.4782 9.21094C17.5071 9.3184 17.5071 9.4316 17.4782 9.53906ZM10.6251 11.875C10.6251 11.7092 10.5592 11.5503 10.442 11.4331C10.3248 11.3158 10.1658 11.25 10.0001 11.25C9.8343 11.25 9.67533 11.3158 9.55812 11.4331C9.44091 11.5503 9.37506 11.7092 9.37506 11.875V15C9.37506 15.1658 9.44091 15.3247 9.55812 15.4419C9.67533 15.5592 9.8343 15.625 10.0001 15.625C10.1658 15.625 10.3248 15.5592 10.442 15.4419C10.5592 15.3247 10.6251 15.1658 10.6251 15V11.875ZM16.0938 8.88203L14.5227 3.125H5.47741L3.90631 8.88203L10.0001 9.98984L16.0938 8.88203Z" fill="#191F2E"/>
</svg>
