<svg width="20" height="20" viewBox="0 0 20 20" fill="none" xmlns="http://www.w3.org/2000/svg">
<path d="M14.375 3.75H10.625V1.875H13.125C13.2908 1.875 13.4497 1.80915 13.5669 1.69194C13.6842 1.57473 13.75 1.41576 13.75 1.25C13.75 1.08424 13.6842 0.925268 13.5669 0.808058C13.4497 0.690848 13.2908 0.625 13.125 0.625H6.875C6.70924 0.625 6.55027 0.690848 6.43306 0.808058C6.31585 0.925268 6.25 1.08424 6.25 1.25C6.25 1.41576 6.31585 1.57473 6.43306 1.69194C6.55027 1.80915 6.70924 1.875 6.875 1.875H9.375V3.75H5.625C4.96196 3.75 4.32607 4.01339 3.85723 4.48223C3.38839 4.95107 3.125 5.58696 3.125 6.25V14.375C3.125 15.038 3.38839 15.6739 3.85723 16.1428C4.32607 16.6116 4.96196 16.875 5.625 16.875H6.25L5.125 18.375C5.07575 18.4407 5.03992 18.5154 5.01955 18.5949C4.99918 18.6744 4.99467 18.7571 5.00628 18.8384C5.01789 18.9196 5.04539 18.9978 5.0872 19.0684C5.12902 19.1391 5.18434 19.2008 5.25 19.25C5.31566 19.2992 5.39038 19.3351 5.46989 19.3554C5.5494 19.3758 5.63214 19.3803 5.71339 19.3687C5.79464 19.3571 5.87281 19.3296 5.94343 19.2878C6.01406 19.246 6.07575 19.1907 6.125 19.125L7.8125 16.875H12.1875L13.875 19.125C13.9745 19.2576 14.1225 19.3453 14.2866 19.3687C14.4507 19.3922 14.6174 19.3495 14.75 19.25C14.8826 19.1505 14.9703 19.0025 14.9937 18.8384C15.0172 18.6743 14.9745 18.5076 14.875 18.375L13.75 16.875H14.375C15.038 16.875 15.6739 16.6116 16.1428 16.1428C16.6116 15.6739 16.875 15.038 16.875 14.375V6.25C16.875 5.58696 16.6116 4.95107 16.1428 4.48223C15.6739 4.01339 15.038 3.75 14.375 3.75ZM14.375 15.625H5.625C5.29348 15.625 4.97554 15.4933 4.74112 15.2589C4.5067 15.0245 4.375 14.7065 4.375 14.375V10H15.625V14.375C15.625 14.7065 15.4933 15.0245 15.2589 15.2589C15.0245 15.4933 14.7065 15.625 14.375 15.625ZM7.5 13.4375C7.5 13.6229 7.44502 13.8042 7.342 13.9583C7.23899 14.1125 7.09257 14.2327 6.92127 14.3036C6.74996 14.3746 6.56146 14.3932 6.3796 14.357C6.19775 14.3208 6.0307 14.2315 5.89959 14.1004C5.76848 13.9693 5.67919 13.8023 5.64301 13.6204C5.60684 13.4385 5.62541 13.25 5.69636 13.0787C5.76732 12.9074 5.88748 12.761 6.04165 12.658C6.19582 12.555 6.37708 12.5 6.5625 12.5C6.81114 12.5 7.0496 12.5988 7.22541 12.7746C7.40123 12.9504 7.5 13.1889 7.5 13.4375ZM14.375 13.4375C14.375 13.6229 14.32 13.8042 14.217 13.9583C14.114 14.1125 13.9676 14.2327 13.7963 14.3036C13.625 14.3746 13.4365 14.3932 13.2546 14.357C13.0727 14.3208 12.9057 14.2315 12.7746 14.1004C12.6435 13.9693 12.5542 13.8023 12.518 13.6204C12.4818 13.4385 12.5004 13.25 12.5714 13.0787C12.6423 12.9074 12.7625 12.761 12.9167 12.658C13.0708 12.555 13.2521 12.5 13.4375 12.5C13.6861 12.5 13.9246 12.5988 14.1004 12.7746C14.2762 12.9504 14.375 13.1889 14.375 13.4375Z" fill="#191F2E"/>
</svg>
