<svg width="20" height="20" viewBox="0 0 20 20" fill="none" xmlns="http://www.w3.org/2000/svg">
<path d="M18.6836 16.5953L14.3086 7.84531C14.2567 7.74151 14.1769 7.65422 14.0782 7.59321C13.9794 7.5322 13.8657 7.49989 13.7496 7.49989C13.6336 7.49989 13.5198 7.5322 13.4211 7.59321C13.3223 7.65422 13.2425 7.74151 13.1906 7.84531L11.4945 11.2383C10.1651 11.1635 8.88593 10.7043 7.8125 9.91641C9.07194 8.57145 9.83504 6.83719 9.97578 5H11.875C12.0408 5 12.1997 4.93415 12.3169 4.81694C12.4342 4.69973 12.5 4.54076 12.5 4.375C12.5 4.20924 12.4342 4.05027 12.3169 3.93306C12.1997 3.81585 12.0408 3.75 11.875 3.75H7.5V2.5C7.5 2.33424 7.43415 2.17527 7.31694 2.05806C7.19973 1.94085 7.04076 1.875 6.875 1.875C6.70924 1.875 6.55027 1.94085 6.43306 2.05806C6.31585 2.17527 6.25 2.33424 6.25 2.5V3.75H1.875C1.70924 3.75 1.55027 3.81585 1.43306 3.93306C1.31585 4.05027 1.25 4.20924 1.25 4.375C1.25 4.54076 1.31585 4.69973 1.43306 4.81694C1.55027 4.93415 1.70924 5 1.875 5H8.72109C8.58189 6.53176 7.93168 7.97222 6.875 9.08984C6.21653 8.39505 5.71088 7.57005 5.39062 6.66797C5.36429 6.58926 5.32255 6.51659 5.26782 6.45419C5.2131 6.39179 5.1465 6.34092 5.07191 6.30453C4.99731 6.26815 4.91622 6.24699 4.83336 6.24228C4.7505 6.23758 4.66753 6.24942 4.5893 6.27713C4.51106 6.30483 4.43913 6.34784 4.37769 6.40364C4.31626 6.45944 4.26656 6.52692 4.23148 6.60214C4.1964 6.67736 4.17666 6.75881 4.1734 6.84174C4.17014 6.92467 4.18343 7.00742 4.2125 7.08516C4.58537 8.13974 5.17271 9.10562 5.9375 9.92188C4.75997 10.7872 3.33627 11.2526 1.875 11.25C1.70924 11.25 1.55027 11.3158 1.43306 11.4331C1.31585 11.5503 1.25 11.7092 1.25 11.875C1.25 12.0408 1.31585 12.1997 1.43306 12.3169C1.55027 12.4342 1.70924 12.5 1.875 12.5C3.68796 12.502 5.44896 11.8945 6.875 10.775C8.03873 11.6843 9.42793 12.2598 10.8938 12.4398L8.81562 16.5953C8.74145 16.7436 8.7292 16.9152 8.78158 17.0725C8.83396 17.2298 8.94667 17.3598 9.09492 17.434C9.24317 17.5082 9.41482 17.5204 9.5721 17.468C9.72938 17.4157 9.85942 17.3029 9.93359 17.1547L11.0109 15H16.4883L17.5656 17.1547C17.6176 17.2585 17.6974 17.3458 17.7962 17.4068C17.895 17.4678 18.0089 17.5001 18.125 17.5C18.2315 17.4999 18.3363 17.4727 18.4293 17.4207C18.5223 17.3688 18.6005 17.294 18.6565 17.2034C18.7124 17.1127 18.7443 17.0093 18.749 16.9029C18.7538 16.7964 18.7313 16.6906 18.6836 16.5953ZM11.6359 13.75L13.75 9.52266L15.8633 13.75H11.6359Z" fill="#191F2E"/>
</svg>
