<svg width="20" height="20" viewBox="0 0 20 20" fill="none" xmlns="http://www.w3.org/2000/svg">
<path d="M12.5 10.1477L13.6766 12.5H11.3234L11.8203 11.5078L12.5 10.1477ZM17.5 3.75V16.25C17.5 16.5815 17.3683 16.8995 17.1339 17.1339C16.8995 17.3683 16.5815 17.5 16.25 17.5H3.75C3.41848 17.5 3.10054 17.3683 2.86612 17.1339C2.6317 16.8995 2.5 16.5815 2.5 16.25V3.75C2.5 3.41848 2.6317 3.10054 2.86612 2.86612C3.10054 2.6317 3.41848 2.5 3.75 2.5H16.25C16.5815 2.5 16.8995 2.6317 17.1339 2.86612C17.3683 3.10054 17.5 3.41848 17.5 3.75ZM16.1844 14.7203L13.0594 8.47031C13.0075 8.36631 12.9277 8.27881 12.8289 8.21766C12.7301 8.1565 12.6162 8.1241 12.5 8.1241C12.3838 8.1241 12.2699 8.1565 12.1711 8.21766C12.0723 8.27881 11.9925 8.36631 11.9406 8.47031L10.9109 10.5312C10.2486 10.4015 9.62044 10.1355 9.06641 9.75C9.92995 8.77236 10.4643 7.54796 10.5938 6.25H11.875C12.0408 6.25 12.1997 6.18415 12.3169 6.06694C12.4342 5.94973 12.5 5.79076 12.5 5.625C12.5 5.45924 12.4342 5.30027 12.3169 5.18306C12.1997 5.06585 12.0408 5 11.875 5H8.75V4.375C8.75 4.20924 8.68415 4.05027 8.56694 3.93306C8.44973 3.81585 8.29076 3.75 8.125 3.75C7.95924 3.75 7.80027 3.81585 7.68306 3.93306C7.56585 4.05027 7.5 4.20924 7.5 4.375V5H4.375C4.20924 5 4.05027 5.06585 3.93306 5.18306C3.81585 5.30027 3.75 5.45924 3.75 5.625C3.75 5.79076 3.81585 5.94973 3.93306 6.06694C4.05027 6.18415 4.20924 6.25 4.375 6.25H9.33438C9.21039 7.23615 8.79409 8.16262 8.13906 8.91016C7.86157 8.58621 7.62538 8.22905 7.43594 7.84688C7.35918 7.70373 7.2297 7.5961 7.07495 7.54677C6.9202 7.49744 6.75232 7.51029 6.60688 7.58261C6.46144 7.65492 6.34987 7.78101 6.29579 7.93417C6.24172 8.08733 6.24939 8.25553 6.31719 8.40312C6.5564 8.8855 6.85565 9.33568 7.20781 9.74297C6.37536 10.3185 5.38705 10.6263 4.375 10.625C4.20924 10.625 4.05027 10.6908 3.93306 10.8081C3.81585 10.9253 3.75 11.0842 3.75 11.25C3.75 11.4158 3.81585 11.5747 3.93306 11.6919C4.05027 11.8092 4.20924 11.875 4.375 11.875C5.73182 11.8764 7.05185 11.4339 8.13359 10.6148C8.78813 11.1151 9.53695 11.4781 10.3352 11.682L8.81562 14.7203C8.74145 14.8687 8.72924 15.0404 8.78169 15.1978C8.83414 15.3551 8.94696 15.4852 9.09531 15.5594C9.24367 15.6336 9.41541 15.6458 9.57277 15.5933C9.73012 15.5409 9.8602 15.428 9.93438 15.2797L10.6984 13.75H14.3016L15.0656 15.2797C15.1024 15.3531 15.1532 15.4186 15.2152 15.4725C15.2773 15.5263 15.3493 15.5673 15.4272 15.5933C15.5051 15.6193 15.5874 15.6296 15.6693 15.6238C15.7513 15.618 15.8312 15.5961 15.9047 15.5594C15.9781 15.5226 16.0436 15.4718 16.0975 15.4098C16.1513 15.3477 16.1923 15.2757 16.2183 15.1978C16.2443 15.1199 16.2546 15.0376 16.2488 14.9557C16.243 14.8737 16.2211 14.7938 16.1844 14.7203Z" fill="#191F2E"/>
</svg>
