<svg width="20" height="20" viewBox="0 0 20 20" fill="none" xmlns="http://www.w3.org/2000/svg">
<path d="M18.9633 16.4555L14.5883 7.70547C14.5104 7.54987 14.3907 7.41903 14.2426 7.32759C14.0946 7.23615 13.924 7.18772 13.75 7.18772C13.576 7.18772 13.4054 7.23615 13.2574 7.32759C13.1093 7.41903 12.9896 7.54987 12.9117 7.70547L11.3086 10.9086C10.2286 10.8142 9.18861 10.4543 8.28125 9.86094C9.38387 8.57866 10.0736 6.99333 10.2602 5.3125H11.875C12.1236 5.3125 12.3621 5.21373 12.5379 5.03791C12.7137 4.8621 12.8125 4.62364 12.8125 4.375C12.8125 4.12636 12.7137 3.8879 12.5379 3.71209C12.3621 3.53627 12.1236 3.4375 11.875 3.4375H7.8125V2.5C7.8125 2.25136 7.71373 2.0129 7.53791 1.83709C7.3621 1.66127 7.12364 1.5625 6.875 1.5625C6.62636 1.5625 6.3879 1.66127 6.21209 1.83709C6.03627 2.0129 5.9375 2.25136 5.9375 2.5V3.4375H1.875C1.62636 3.4375 1.3879 3.53627 1.21209 3.71209C1.03627 3.8879 0.9375 4.12636 0.9375 4.375C0.9375 4.62364 1.03627 4.8621 1.21209 5.03791C1.3879 5.21373 1.62636 5.3125 1.875 5.3125H8.36953C8.19367 6.53434 7.67552 7.68143 6.875 8.62109C6.48435 8.16395 6.15838 7.65528 5.90625 7.10938C5.85687 6.99456 5.78502 6.89078 5.69495 6.80413C5.60487 6.71749 5.49838 6.64973 5.38173 6.60484C5.26508 6.55995 5.14064 6.53884 5.01571 6.54275C4.89079 6.54666 4.76791 6.57551 4.6543 6.6276C4.54068 6.67969 4.43863 6.75397 4.35415 6.84608C4.26967 6.93819 4.20445 7.04626 4.16234 7.16394C4.12023 7.28161 4.10208 7.40652 4.10895 7.53132C4.11582 7.65612 4.14757 7.77828 4.20234 7.89062C4.53029 8.60385 4.95657 9.26759 5.46875 9.8625C4.40184 10.5648 3.1523 10.9385 1.875 10.9375C1.62636 10.9375 1.3879 11.0363 1.21209 11.2121C1.03627 11.3879 0.9375 11.6264 0.9375 11.875C0.9375 12.1236 1.03627 12.3621 1.21209 12.5379C1.3879 12.7137 1.62636 12.8125 1.875 12.8125C3.67503 12.814 5.42788 12.2369 6.875 11.1664C7.92445 11.9387 9.13797 12.4584 10.4211 12.6852L8.53594 16.4555C8.47735 16.5659 8.44143 16.6869 8.43031 16.8115C8.4192 16.936 8.4331 17.0615 8.4712 17.1806C8.5093 17.2996 8.57083 17.4099 8.65217 17.5048C8.73351 17.5998 8.83302 17.6775 8.94484 17.7334C9.05666 17.7893 9.17853 17.8223 9.30329 17.8304C9.42804 17.8385 9.55316 17.8216 9.67128 17.7806C9.78939 17.7396 9.89812 17.6755 9.99107 17.5919C10.084 17.5082 10.1593 17.4069 10.2125 17.2937L11.2039 15.3125H16.2953L17.2859 17.2937C17.341 17.4039 17.4172 17.5021 17.5102 17.5828C17.6032 17.6635 17.7112 17.7251 17.828 17.764C17.9448 17.803 18.0681 17.8185 18.1909 17.8098C18.3137 17.8011 18.4336 17.7683 18.5438 17.7133C18.6539 17.6582 18.7521 17.582 18.8328 17.489C18.9135 17.396 18.9751 17.2881 19.014 17.1713C19.053 17.0545 19.0685 16.9311 19.0598 16.8083C19.0511 16.6855 19.0183 16.5656 18.9633 16.4555ZM12.1414 13.4375L13.75 10.2211L15.3578 13.4375H12.1414Z" fill="#191F2E"/>
</svg>
