<svg width="20" height="20" viewBox="0 0 20 20" fill="none" xmlns="http://www.w3.org/2000/svg">
<path d="M16.25 2.5H3.75C3.41848 2.5 3.10054 2.6317 2.86612 2.86612C2.6317 3.10054 2.5 3.41848 2.5 3.75V16.25C2.5 16.5815 2.6317 16.8995 2.86612 17.1339C3.10054 17.3683 3.41848 17.5 3.75 17.5H16.25C16.5815 17.5 16.8995 17.3683 17.1339 17.1339C17.3683 16.8995 17.5 16.5815 17.5 16.25V3.75C17.5 3.41848 17.3683 3.10054 17.1339 2.86612C16.8995 2.6317 16.5815 2.5 16.25 2.5ZM16.25 3.75V11.875H14.0078C13.8437 11.8746 13.6812 11.9068 13.5297 11.9697C13.3781 12.0325 13.2406 12.1249 13.125 12.2414L11.6164 13.75H8.38359L6.875 12.2414C6.75935 12.1248 6.62168 12.0324 6.46999 11.9695C6.3183 11.9066 6.15562 11.8745 5.99141 11.875H3.75V3.75H16.25ZM16.25 16.25H3.75V13.125H5.99141L7.5 14.6336C7.61565 14.7502 7.75332 14.8426 7.90501 14.9055C8.0567 14.9684 8.21938 15.0005 8.38359 15H11.6164C11.7806 15.0005 11.9433 14.9684 12.095 14.9055C12.2467 14.8426 12.3843 14.7502 12.5 14.6336L14.0086 13.125H16.25V16.25Z" fill="#191F2E"/>
</svg>
