<svg width="20" height="20" viewBox="0 0 20 20" fill="none" xmlns="http://www.w3.org/2000/svg">
<path d="M15.7172 4.65859C15.2278 3.55043 14.4268 2.60839 13.4118 1.94709C12.3968 1.28578 11.2115 0.933716 10 0.933716C8.78859 0.933716 7.60326 1.28578 6.58824 1.94709C5.57323 2.60839 4.77228 3.55043 4.28283 4.65859C3.28426 5.14609 2.44186 5.90304 1.85073 6.84398C1.2596 7.78493 0.943296 8.87239 0.937521 9.98359C0.928928 13.1867 3.52346 15.8547 6.71877 15.9359C7.52004 15.9576 8.31738 15.8165 9.06252 15.5211V18.125C9.06252 18.3736 9.16129 18.6121 9.33711 18.7879C9.51292 18.9637 9.75138 19.0625 10 19.0625C10.2487 19.0625 10.4871 18.9637 10.6629 18.7879C10.8387 18.6121 10.9375 18.3736 10.9375 18.125V15.5211C11.6338 15.797 12.3761 15.9383 13.125 15.9375H13.2813C16.4797 15.8594 19.0742 13.1859 19.0625 9.98515C19.057 8.87368 18.7409 7.78589 18.1497 6.84465C17.5586 5.9034 16.716 5.14621 15.7172 4.65859ZM13.2305 14.0625C12.419 14.0851 11.6197 13.8618 10.9375 13.4219V10.5797L14.1696 8.96328C14.2815 8.90928 14.3815 8.83358 14.4639 8.74056C14.5463 8.64755 14.6094 8.53909 14.6495 8.42148C14.6896 8.30388 14.7059 8.17947 14.6975 8.0555C14.6891 7.93153 14.6561 7.81046 14.6005 7.69934C14.5449 7.58823 14.4678 7.48927 14.3736 7.40823C14.2794 7.3272 14.17 7.26569 14.0518 7.2273C13.9337 7.1889 13.809 7.17438 13.6852 7.18458C13.5614 7.19478 13.4408 7.2295 13.3305 7.28671L10.9375 8.48281V6.87499C10.9375 6.62635 10.8387 6.3879 10.6629 6.21208C10.4871 6.03627 10.2487 5.93749 10 5.93749C9.75138 5.93749 9.51292 6.03627 9.33711 6.21208C9.16129 6.3879 9.06252 6.62635 9.06252 6.87499V10.3578L6.66955 9.16171C6.44773 9.05469 6.19271 9.03925 5.9596 9.11874C5.72649 9.19822 5.53402 9.36625 5.42379 9.5865C5.31357 9.80674 5.29444 10.0615 5.37054 10.2958C5.44664 10.53 5.61186 10.7249 5.83049 10.8383L9.06252 12.4547V13.4219C8.38047 13.8622 7.58104 14.0855 6.76955 14.0625C5.85195 14.0392 4.96928 13.7059 4.26534 13.1168C3.56141 12.5278 3.07771 11.7177 2.89307 10.8185C2.70842 9.91939 2.83371 8.98423 3.24852 8.16541C3.66332 7.34659 4.3432 6.69238 5.17736 6.30937C5.53214 6.1459 5.81282 5.85546 5.96408 5.49531C6.29705 4.69954 6.85783 4.01997 7.57593 3.54201C8.29403 3.06405 9.1374 2.80904 10 2.80904C10.8626 2.80904 11.706 3.06405 12.4241 3.54201C13.1422 4.01997 13.703 4.69954 14.036 5.49531C14.1872 5.85546 14.4679 6.1459 14.8227 6.30937C15.6568 6.69238 16.3367 7.34659 16.7515 8.16541C17.1663 8.98423 17.2916 9.91939 17.107 10.8185C16.9223 11.7177 16.4386 12.5278 15.7347 13.1168C15.0308 13.7059 14.1481 14.0392 13.2305 14.0625Z" fill="#191F2E"/>
</svg>
