<svg width="20" height="20" viewBox="0 0 20 20" fill="none" xmlns="http://www.w3.org/2000/svg">
<path d="M18.8039 3.94296C18.2859 3.38891 17.6597 2.94719 16.9639 2.6452C16.2682 2.34321 15.5178 2.18738 14.7594 2.18738C14.0009 2.18738 13.2505 2.34321 12.5548 2.6452C11.8591 2.94719 11.2328 3.38891 10.7148 3.94296C10.4474 4.22426 10.208 4.53091 9.99998 4.85858C9.79196 4.53091 9.55255 4.22426 9.28514 3.94296C8.76717 3.38891 8.1409 2.94719 7.44516 2.6452C6.74943 2.34321 5.99906 2.18738 5.24061 2.18738C4.48215 2.18738 3.73179 2.34321 3.03605 2.6452C2.34031 2.94719 1.71404 3.38891 1.19607 3.94296C1.09204 4.05217 1.01589 4.18488 0.974088 4.32981C0.932292 4.47474 0.926083 4.62762 0.955989 4.77546C0.985895 4.92331 1.05103 5.06175 1.14587 5.17904C1.24071 5.29634 1.36245 5.38901 1.50076 5.44921L5.15623 7.04061C3.84722 7.59552 2.78288 8.60486 2.15936 9.88262C1.53584 11.1604 1.39517 12.6204 1.76326 13.9937C1.80345 14.142 1.87946 14.2782 1.98462 14.3902C2.08977 14.5022 2.22084 14.5866 2.3663 14.6361C2.51175 14.6856 2.66714 14.6985 2.81878 14.6738C2.97042 14.6491 3.11366 14.5876 3.23592 14.4945L9.06248 10.0586V17.5C9.06248 17.7486 9.16125 17.9871 9.33707 18.1629C9.51288 18.3387 9.75134 18.4375 9.99998 18.4375C10.2486 18.4375 10.4871 18.3387 10.6629 18.1629C10.8387 17.9871 10.9375 17.7486 10.9375 17.5V10.0586L16.7609 14.4953C16.8832 14.5884 17.0264 14.6499 17.1781 14.6746C17.3297 14.6993 17.4851 14.6863 17.6305 14.6369C17.776 14.5874 17.9071 14.503 18.0122 14.391C18.1174 14.2789 18.1934 14.1428 18.2336 13.9945C18.6017 12.6212 18.461 11.1612 17.8375 9.8834C17.214 8.60564 16.1496 7.5963 14.8406 7.04139L18.4992 5.44999C18.6375 5.3898 18.7592 5.29712 18.8541 5.17983C18.9489 5.06253 19.0141 4.92409 19.044 4.77624C19.0739 4.6284 19.0677 4.47552 19.0259 4.33059C18.9841 4.18566 18.9079 4.05295 18.8039 3.94374V3.94296ZM5.24061 4.06249C5.74466 4.0637 6.2431 4.16833 6.7051 4.3699C7.16709 4.57147 7.58281 4.86569 7.92654 5.23436C8.29281 5.61994 8.58046 6.07317 8.77342 6.56874L3.74998 4.3828C4.21844 4.17129 4.72661 4.06209 5.24061 4.06249ZM3.46795 11.9648C3.57115 11.1676 3.9098 10.4193 4.44059 9.81558C4.97139 9.21186 5.67019 8.78019 6.44764 8.57577C6.79328 8.48397 7.14939 8.43749 7.50701 8.43749C7.68994 8.43701 7.87267 8.44928 8.05389 8.47421L3.46795 11.9648ZM16.0156 10.4539C16.2866 10.9179 16.4611 11.4318 16.5289 11.9648L11.9531 8.47343C12.4887 8.40104 13.0334 8.43583 13.5554 8.57577C14.069 8.71135 14.5507 8.94706 14.9729 9.26937C15.3951 9.59168 15.7495 9.99423 16.0156 10.4539ZM11.2265 6.56874C11.4195 6.07317 11.7071 5.61994 12.0734 5.23436C12.4171 4.86569 12.8329 4.57147 13.2949 4.3699C13.7569 4.16833 14.2553 4.0637 14.7594 4.06249C15.2733 4.06209 15.7815 4.17129 16.25 4.3828L11.2265 6.56874Z" fill="#191F2E"/>
</svg>
