<svg width="20" height="20" viewBox="0 0 20 20" fill="none" xmlns="http://www.w3.org/2000/svg">
<path d="M18.7375 4.71326C18.7176 4.81184 18.6741 4.90415 18.6109 4.98236C18.5476 5.06057 18.4664 5.12235 18.3742 5.16248L13.9844 7.07419C15.4127 7.45608 16.631 8.38924 17.3719 9.66873C17.7436 10.303 17.9848 11.0051 18.0814 11.7338C18.178 12.4626 18.128 13.2033 17.9344 13.9125C17.9076 14.0113 17.857 14.102 17.7869 14.1767C17.7169 14.2514 17.6296 14.3077 17.5327 14.3407C17.4358 14.3737 17.3323 14.3824 17.2312 14.3661C17.1301 14.3497 17.0347 14.3088 16.9531 14.2469L10.625 9.4281V17.5C10.625 17.6657 10.5592 17.8247 10.4419 17.9419C10.3247 18.0591 10.1658 18.125 10 18.125C9.83424 18.125 9.67527 18.0591 9.55806 17.9419C9.44085 17.8247 9.375 17.6657 9.375 17.5V9.4281L3.04687 14.2469C2.96533 14.3089 2.86978 14.35 2.76862 14.3665C2.66746 14.3829 2.56381 14.3743 2.46679 14.3412C2.36978 14.3082 2.28237 14.2518 2.21228 14.177C2.14218 14.1023 2.09155 14.0114 2.06484 13.9125C1.87123 13.2033 1.82126 12.4626 1.91785 11.7338C2.01445 11.0051 2.25566 10.303 2.62734 9.66873C3.36835 8.38907 4.58702 7.45589 6.01562 7.07419L1.62578 5.16248C1.53362 5.12233 1.45251 5.06056 1.38931 4.98238C1.32612 4.90421 1.28271 4.81194 1.26278 4.71342C1.24284 4.6149 1.24697 4.51302 1.2748 4.41642C1.30263 4.31983 1.35335 4.23138 1.42266 4.15857C1.91136 3.63515 2.50247 3.2178 3.15927 2.93246C3.81607 2.64712 4.52452 2.49988 5.24062 2.49988C5.95673 2.49988 6.66518 2.64712 7.32198 2.93246C7.97878 3.2178 8.56989 3.63515 9.05859 4.15857C9.43358 4.55369 9.74935 5.00105 9.99609 5.48669C10.244 5.0008 10.5611 4.55343 10.9375 4.15857C11.4262 3.63515 12.0173 3.2178 12.6741 2.93246C13.3309 2.64712 14.0394 2.49988 14.7555 2.49988C15.4716 2.49988 16.18 2.64712 16.8368 2.93246C17.4936 3.2178 18.0847 3.63515 18.5734 4.15857C18.6435 4.23097 18.6949 4.31921 18.7235 4.41579C18.7521 4.51237 18.7569 4.61442 18.7375 4.71326Z" fill="#191F2E"/>
</svg>
