<svg width="20" height="20" viewBox="0 0 20 20" fill="none" xmlns="http://www.w3.org/2000/svg">
<path d="M10 14.6781C10 14.6781 10 14.6781 9.99536 14.6781C9.79503 14.8115 9.58626 14.9318 9.37036 15.0383V18.125C9.37036 18.2907 9.43621 18.4497 9.55342 18.5669C9.67063 18.6841 9.8296 18.75 9.99536 18.75C10.1611 18.75 10.3201 18.6841 10.4373 18.5669C10.5545 18.4497 10.6204 18.2907 10.6204 18.125V15.0383C10.4045 14.9318 10.1957 14.8115 9.99536 14.6781H10Z" fill="#191F2E"/>
<path d="M15.4766 4.8906C15.0245 3.81111 14.2634 2.8893 13.289 2.241C12.3146 1.5927 11.1704 1.24683 10 1.24683C8.82967 1.24683 7.68542 1.5927 6.71103 2.241C5.73664 2.8893 4.97558 3.81111 4.52346 4.8906C3.55058 5.34134 2.72611 6.05971 2.14644 6.96173C1.56676 7.86375 1.25584 8.91215 1.25002 9.98435C1.24143 13.0172 3.70002 15.5469 6.72971 15.625C7.64621 15.6489 8.55457 15.4474 9.37502 15.0383V12.2609L5.97033 10.5594C5.82198 10.4852 5.70917 10.3551 5.65672 10.1977C5.60426 10.0404 5.61647 9.86865 5.69065 9.72029C5.76482 9.57193 5.8949 9.45912 6.05225 9.40667C6.20961 9.35422 6.38135 9.36642 6.52971 9.4406L9.37502 10.864V6.87498C9.37502 6.70922 9.44087 6.55025 9.55808 6.43304C9.67529 6.31583 9.83426 6.24998 10 6.24998C10.1658 6.24998 10.3248 6.31583 10.442 6.43304C10.5592 6.55025 10.625 6.70922 10.625 6.87498V8.98904L13.4703 7.5656C13.5438 7.52887 13.6238 7.50697 13.7057 7.50115C13.7876 7.49533 13.8699 7.5057 13.9478 7.53167C14.0257 7.55764 14.0977 7.59871 14.1598 7.65252C14.2218 7.70633 14.2727 7.77183 14.3094 7.84529C14.3461 7.91875 14.368 7.99872 14.3738 8.08064C14.3797 8.16257 14.3693 8.24483 14.3433 8.32275C14.3174 8.40066 14.2763 8.4727 14.2225 8.53474C14.1687 8.59679 14.1032 8.64762 14.0297 8.68435L10.625 10.3859V15.0383C11.4014 15.4255 12.2574 15.6263 13.125 15.625H13.2703C16.3 15.5469 18.7586 13.0187 18.75 9.98592C18.7448 8.91338 18.4341 7.86453 17.8544 6.96215C17.2747 6.05978 16.4499 5.34122 15.4766 4.8906Z" fill="#191F2E"/>
</svg>
