<svg width="20" height="20" viewBox="0 0 20 20" fill="none" xmlns="http://www.w3.org/2000/svg">
<path d="M18.0617 15.2742C18.0104 15.3794 17.9305 15.4681 17.8312 15.5301C17.7318 15.5921 17.6171 15.625 17.5 15.625H10.625V18.75C10.625 18.9157 10.5592 19.0747 10.442 19.1919C10.3248 19.3091 10.1658 19.375 10 19.375C9.83426 19.375 9.67529 19.3091 9.55808 19.1919C9.44087 19.0747 9.37502 18.9157 9.37502 18.75V15.625H2.50002C2.38307 15.6249 2.26849 15.592 2.16931 15.53C2.07013 15.468 1.99033 15.3795 1.93897 15.2744C1.88762 15.1693 1.86677 15.052 1.87881 14.9356C1.89084 14.8193 1.93527 14.7087 2.00705 14.6164L5.6008 9.99996H3.75002C3.63328 9.99997 3.51887 9.96728 3.41975 9.90561C3.32063 9.84393 3.24077 9.75572 3.18921 9.65098C3.13765 9.54624 3.11646 9.42915 3.12804 9.31298C3.13961 9.19682 3.18349 9.08622 3.25471 8.99371L9.50471 0.868708C9.56308 0.79285 9.6381 0.731415 9.72398 0.689139C9.80986 0.646863 9.9043 0.624878 10 0.624878C10.0957 0.624878 10.1902 0.646863 10.2761 0.689139C10.3619 0.731415 10.437 0.79285 10.4953 0.868708L16.7453 8.99371C16.8165 9.08622 16.8604 9.19682 16.872 9.31298C16.8836 9.42915 16.8624 9.54624 16.8108 9.65098C16.7593 9.75572 16.6794 9.84393 16.5803 9.90561C16.4812 9.96728 16.3668 9.99997 16.25 9.99996H14.4031L17.993 14.6164C18.0648 14.7086 18.1094 14.8191 18.1215 14.9354C18.1337 15.0517 18.113 15.1691 18.0617 15.2742Z" fill="#191F2E"/>
</svg>
