<svg width="20" height="20" viewBox="0 0 20 20" fill="none" xmlns="http://www.w3.org/2000/svg">
<path d="M15.4766 4.8906C15.0245 3.81111 14.2634 2.8893 13.289 2.241C12.3146 1.5927 11.1704 1.24683 10 1.24683C8.82967 1.24683 7.68542 1.5927 6.71103 2.241C5.73664 2.8893 4.97558 3.81111 4.52346 4.8906C3.55046 5.34118 2.72589 6.05952 2.14619 6.96157C1.5665 7.86363 1.25565 8.9121 1.25002 9.98435C1.24143 13.0172 3.70002 15.5469 6.72971 15.625C7.64621 15.6489 8.55457 15.4474 9.37502 15.0383V18.125C9.37502 18.2907 9.44087 18.4497 9.55808 18.5669C9.67529 18.6841 9.83426 18.75 10 18.75C10.1658 18.75 10.3248 18.6841 10.442 18.5669C10.5592 18.4497 10.625 18.2907 10.625 18.125V15.0383C11.4014 15.4255 12.2574 15.6263 13.125 15.625H13.2703C16.3 15.5469 18.7586 13.0187 18.75 9.98592C18.7448 8.91338 18.4341 7.86453 17.8544 6.96215C17.2747 6.05978 16.4499 5.34122 15.4766 4.8906ZM13.2383 14.375C12.3357 14.4002 11.4477 14.1435 10.6977 13.6406C10.6732 13.625 10.649 13.6101 10.625 13.5961V10.3859L14.0297 8.68435C14.1032 8.64762 14.1687 8.59679 14.2225 8.53474C14.2763 8.4727 14.3174 8.40066 14.3433 8.32275C14.3693 8.24483 14.3797 8.16257 14.3738 8.08064C14.368 7.99872 14.3461 7.91875 14.3094 7.84529C14.2727 7.77183 14.2218 7.70633 14.1598 7.65252C14.0977 7.59871 14.0257 7.55764 13.9478 7.53167C13.8699 7.5057 13.7876 7.49533 13.7057 7.50115C13.6238 7.50697 13.5438 7.52887 13.4703 7.5656L10.625 8.98904V6.87498C10.625 6.70922 10.5592 6.55025 10.442 6.43304C10.3248 6.31583 10.1658 6.24998 10 6.24998C9.83426 6.24998 9.67529 6.31583 9.55808 6.43304C9.44087 6.55025 9.37502 6.70922 9.37502 6.87498V10.864L6.52971 9.4406C6.38135 9.36642 6.20961 9.35422 6.05225 9.40667C5.8949 9.45912 5.76482 9.57193 5.69065 9.72029C5.61647 9.86865 5.60426 10.0404 5.65672 10.1977C5.70917 10.3551 5.82198 10.4852 5.97033 10.5594L9.37502 12.2609V13.5937C9.35054 13.6078 9.32632 13.6226 9.30237 13.6383C8.55246 14.1415 7.66455 14.399 6.76174 14.375C5.77364 14.3503 4.82301 13.9917 4.06472 13.3577C3.30643 12.7237 2.78517 11.8517 2.58586 10.8836C2.38655 9.91544 2.52093 8.90837 2.96712 8.0264C3.4133 7.14442 4.14499 6.43953 5.04299 6.02654C5.327 5.89641 5.55155 5.66405 5.6719 5.37576C6.02865 4.52315 6.62949 3.79504 7.39888 3.28294C8.16827 2.77084 9.07188 2.49762 9.99612 2.49762C10.9204 2.49762 11.824 2.77084 12.5934 3.28294C13.3627 3.79504 13.9636 4.52315 14.3203 5.37576C14.4407 5.66405 14.6652 5.89641 14.9492 6.02654C15.8472 6.43953 16.5789 7.14442 17.0251 8.0264C17.4713 8.90837 17.6057 9.91544 17.4064 10.8836C17.2071 11.8517 16.6858 12.7237 15.9275 13.3577C15.1692 13.9917 14.2186 14.3503 13.2305 14.375H13.2383Z" fill="#191F2E"/>
</svg>
