<svg width="20" height="20" viewBox="0 0 20 20" fill="none" xmlns="http://www.w3.org/2000/svg">
<path d="M18.5773 4.15857C18.0886 3.63515 17.4975 3.2178 16.8407 2.93246C16.1839 2.64712 15.4755 2.49988 14.7594 2.49988C14.0433 2.49988 13.3348 2.64712 12.678 2.93246C12.0212 3.2178 11.4301 3.63515 10.9414 4.15857C10.565 4.55343 10.2479 5.0008 10 5.48669C9.75326 5.00105 9.43748 4.55369 9.0625 4.15857C8.57379 3.63515 7.98268 3.2178 7.32588 2.93246C6.66909 2.64712 5.96063 2.49988 5.24453 2.49988C4.52843 2.49988 3.81997 2.64712 3.16318 2.93246C2.50638 3.2178 1.91527 3.63515 1.42656 4.15857C1.35726 4.23138 1.30654 4.31983 1.27871 4.41642C1.25087 4.51302 1.24675 4.6149 1.26669 4.71342C1.28662 4.81194 1.33003 4.90421 1.39322 4.98238C1.45641 5.06056 1.53753 5.12233 1.62969 5.16248L6.01562 7.07419C4.58731 7.45608 3.36895 8.38924 2.62812 9.66873C2.25644 10.303 2.01523 11.0051 1.91863 11.7338C1.82204 12.4626 1.87201 13.2033 2.06562 13.9125C2.09239 14.0113 2.14301 14.102 2.21305 14.1767C2.28309 14.2514 2.3704 14.3077 2.4673 14.3407C2.5642 14.3737 2.66773 14.3824 2.76879 14.3661C2.86985 14.3497 2.96534 14.3088 3.04687 14.2469L9.375 9.4281V17.5C9.375 17.6657 9.44085 17.8247 9.55806 17.9419C9.67527 18.0591 9.83424 18.125 10 18.125C10.1658 18.125 10.3247 18.0591 10.4419 17.9419C10.5592 17.8247 10.625 17.6657 10.625 17.5V9.4281L16.9531 14.2469C17.0347 14.3089 17.1302 14.35 17.2314 14.3665C17.3325 14.3829 17.4362 14.3743 17.5332 14.3412C17.6302 14.3082 17.7176 14.2518 17.7877 14.177C17.8578 14.1023 17.9084 14.0114 17.9352 13.9125C18.1288 13.2033 18.1787 12.4626 18.0821 11.7338C17.9856 11.0051 17.7443 10.303 17.3727 9.66873C16.6316 8.38907 15.413 7.45589 13.9844 7.07419L18.3766 5.16248C18.4687 5.12233 18.5498 5.06056 18.613 4.98238C18.6762 4.90421 18.7196 4.81194 18.7396 4.71342C18.7595 4.6149 18.7554 4.51302 18.7275 4.41642C18.6997 4.31983 18.649 4.23138 18.5797 4.15857H18.5773ZM5.24062 3.74998C5.78717 3.7512 6.32765 3.86457 6.82862 4.08308C7.32959 4.30158 7.78039 4.62056 8.15312 5.02029C8.71006 5.60639 9.09542 6.33414 9.26719 7.12419L3.04687 4.41638C3.69603 3.98198 4.45953 3.75005 5.24062 3.74998ZM3.125 12.6172C3.09515 11.804 3.29759 10.9991 3.70859 10.2969C3.99589 9.80104 4.37852 9.36703 4.83443 9.01987C5.29034 8.67271 5.81048 8.41928 6.36484 8.27419C6.73768 8.17473 7.12194 8.12456 7.50781 8.12498C7.93744 8.12494 8.36471 8.18838 8.77578 8.31326L3.125 12.6172ZM16.2891 10.2969C16.7009 10.9989 16.9041 11.8038 16.875 12.6172L11.2266 8.31248C12.171 8.02729 13.1839 8.06791 14.1025 8.42781C15.0211 8.78771 15.792 9.44598 16.2914 10.2969H16.2891ZM10.7328 7.12419C10.9046 6.33414 11.2899 5.60639 11.8469 5.02029C12.2196 4.62056 12.6704 4.30158 13.1714 4.08308C13.6723 3.86457 14.2128 3.7512 14.7594 3.74998C15.5405 3.75005 16.304 3.98198 16.9531 4.41638L10.7328 7.12419Z" fill="#191F2E"/>
</svg>
