<svg width="20" height="20" viewBox="0 0 20 20" fill="none" xmlns="http://www.w3.org/2000/svg">
<path d="M17.9938 14.6164L14.4 9.99996H16.25C16.3668 9.99997 16.4812 9.96728 16.5803 9.90561C16.6794 9.84393 16.7593 9.75572 16.8108 9.65098C16.8624 9.54624 16.8836 9.42915 16.872 9.31298C16.8604 9.19682 16.8166 9.08622 16.7453 8.99371L10.4953 0.868708C10.437 0.79285 10.3619 0.731415 10.2761 0.689139C10.1902 0.646863 10.0957 0.624878 10 0.624878C9.90431 0.624878 9.80987 0.646863 9.72399 0.689139C9.63811 0.731415 9.56309 0.79285 9.50471 0.868708L3.25471 8.99371C3.1835 9.08622 3.13962 9.19682 3.12805 9.31298C3.11647 9.42915 3.13766 9.54624 3.18922 9.65098C3.24077 9.75572 3.32064 9.84393 3.41975 9.90561C3.51887 9.96728 3.63328 9.99997 3.75003 9.99996H5.5969L2.00315 14.6164C1.93117 14.709 1.88669 14.8199 1.8748 14.9366C1.86291 15.0533 1.88409 15.171 1.93592 15.2762C1.98775 15.3814 2.06814 15.4699 2.1679 15.5316C2.26765 15.5932 2.38275 15.6256 2.50003 15.625H9.37503V18.75C9.37503 18.9157 9.44088 19.0747 9.55809 19.1919C9.6753 19.3091 9.83427 19.375 10 19.375C10.1658 19.375 10.3248 19.3091 10.442 19.1919C10.5592 19.0747 10.625 18.9157 10.625 18.75V15.625H17.5C17.617 15.625 17.7317 15.5922 17.831 15.5303C17.9303 15.4684 18.0102 15.3799 18.0617 15.2748C18.1131 15.1697 18.134 15.0522 18.122 14.9358C18.11 14.8194 18.0656 14.7087 17.9938 14.6164ZM3.77815 14.375L7.3719 9.75855C7.44389 9.66596 7.48836 9.55498 7.50025 9.4383C7.51214 9.32162 7.49096 9.20395 7.43913 9.09875C7.3873 8.99354 7.30691 8.90503 7.20716 8.84336C7.1074 8.78168 6.99231 8.74931 6.87503 8.74996H5.01956L10 2.27496L14.9805 8.74996H13.125C13.0081 8.75005 12.8935 8.78294 12.7943 8.84491C12.6951 8.90688 12.6153 8.99544 12.564 9.10051C12.5126 9.20558 12.4918 9.32295 12.5038 9.43927C12.5158 9.5556 12.5603 9.66622 12.6321 9.75855L16.2219 14.375H3.77815Z" fill="#191F2E"/>
</svg>
