<svg width="20" height="20" viewBox="0 0 20 20" fill="none" xmlns="http://www.w3.org/2000/svg">
<path d="M13.125 9.0625H16.875C17.2894 9.0625 17.6868 8.89788 17.9799 8.60485C18.2729 8.31183 18.4375 7.9144 18.4375 7.5V3.75C18.4375 3.3356 18.2729 2.93817 17.9799 2.64515C17.6868 2.35212 17.2894 2.1875 16.875 2.1875H13.125C12.7106 2.1875 12.3132 2.35212 12.0201 2.64515C11.7271 2.93817 11.5625 3.3356 11.5625 3.75V4.6875H11.25C10.5041 4.6875 9.78871 4.98382 9.26126 5.51126C8.73382 6.03871 8.4375 6.75408 8.4375 7.5V9.0625H6.5625V8.75C6.5625 8.3356 6.39788 7.93817 6.10485 7.64515C5.81183 7.35212 5.4144 7.1875 5 7.1875H2.5C2.0856 7.1875 1.68817 7.35212 1.39515 7.64515C1.10212 7.93817 0.9375 8.3356 0.9375 8.75V11.25C0.9375 11.4552 0.977915 11.6584 1.05644 11.8479C1.13496 12.0375 1.25005 12.2098 1.39515 12.3549C1.54024 12.4999 1.71249 12.615 1.90206 12.6936C2.09163 12.7721 2.29481 12.8125 2.5 12.8125H5C5.20519 12.8125 5.40837 12.7721 5.59794 12.6936C5.78751 12.615 5.95976 12.4999 6.10485 12.3549C6.24995 12.2098 6.36504 12.0375 6.44356 11.8479C6.52208 11.6584 6.5625 11.4552 6.5625 11.25V10.9375H8.4375V12.5C8.4375 13.2459 8.73382 13.9613 9.26126 14.4887C9.78871 15.0162 10.5041 15.3125 11.25 15.3125H11.5625V16.25C11.5625 16.6644 11.7271 17.0618 12.0201 17.3549C12.3132 17.6479 12.7106 17.8125 13.125 17.8125H16.875C17.2894 17.8125 17.6868 17.6479 17.9799 17.3549C18.2729 17.0618 18.4375 16.6644 18.4375 16.25V12.5C18.4375 12.0856 18.2729 11.6882 17.9799 11.3951C17.6868 11.1021 17.2894 10.9375 16.875 10.9375H13.125C12.7106 10.9375 12.3132 11.1021 12.0201 11.3951C11.7271 11.6882 11.5625 12.0856 11.5625 12.5V13.4375H11.25C11.0014 13.4375 10.7629 13.3387 10.5871 13.1629C10.4113 12.9871 10.3125 12.7486 10.3125 12.5V7.5C10.3125 7.25136 10.4113 7.0129 10.5871 6.83709C10.7629 6.66127 11.0014 6.5625 11.25 6.5625H11.5625V7.5C11.5625 7.9144 11.7271 8.31183 12.0201 8.60485C12.3132 8.89788 12.7106 9.0625 13.125 9.0625ZM4.6875 10.9375H2.8125V9.0625H4.6875V10.9375ZM13.4375 12.8125H16.5625V15.9375H13.4375V12.8125ZM13.4375 4.0625H16.5625V7.1875H13.4375V4.0625Z" fill="#191F2E"/>
</svg>
