<svg width="20" height="20" viewBox="0 0 20 20" fill="none" xmlns="http://www.w3.org/2000/svg">
<path d="M18.75 4.375V9.375C18.75 9.54076 18.6841 9.69973 18.5669 9.81694C18.4497 9.93415 18.2907 10 18.125 10C17.9592 10 17.8002 9.93415 17.683 9.81694C17.5658 9.69973 17.5 9.54076 17.5 9.375V5.88359L11.0672 12.3172C11.0091 12.3753 10.9402 12.4214 10.8643 12.4529C10.7884 12.4843 10.7071 12.5005 10.625 12.5005C10.5428 12.5005 10.4615 12.4843 10.3856 12.4529C10.3098 12.4214 10.2408 12.3753 10.1828 12.3172L7.49998 9.63359L2.31717 14.8172C2.19989 14.9345 2.04083 15.0003 1.87498 15.0003C1.70913 15.0003 1.55007 14.9345 1.43279 14.8172C1.31552 14.6999 1.24963 14.5409 1.24963 14.375C1.24963 14.2091 1.31552 14.0501 1.43279 13.9328L7.05779 8.30781C7.11584 8.2497 7.18477 8.2036 7.26064 8.17215C7.33652 8.1407 7.41785 8.12451 7.49998 8.12451C7.58212 8.12451 7.66344 8.1407 7.73932 8.17215C7.81519 8.2036 7.88412 8.2497 7.94217 8.30781L10.625 10.9914L16.6164 5H13.125C12.9592 5 12.8002 4.93415 12.683 4.81694C12.5658 4.69973 12.5 4.54076 12.5 4.375C12.5 4.20924 12.5658 4.05027 12.683 3.93306C12.8002 3.81585 12.9592 3.75 13.125 3.75H18.125C18.2907 3.75 18.4497 3.81585 18.5669 3.93306C18.6841 4.05027 18.75 4.20924 18.75 4.375Z" fill="#191F2E"/>
</svg>
