<svg width="20" height="20" viewBox="0 0 20 20" fill="none" xmlns="http://www.w3.org/2000/svg">
<path d="M18.7501 4.375V9.375C18.7502 9.49868 18.7136 9.61962 18.6449 9.72249C18.5763 9.82536 18.4786 9.90554 18.3643 9.95289C18.2501 10.0002 18.1243 10.0126 18.003 9.98846C17.8817 9.9643 17.7703 9.9047 17.6829 9.81719L15.6251 7.75859L11.0673 12.3172C11.0092 12.3753 10.9403 12.4214 10.8644 12.4529C10.7886 12.4843 10.7072 12.5005 10.6251 12.5005C10.543 12.5005 10.4616 12.4843 10.3858 12.4529C10.3099 12.4214 10.241 12.3753 10.1829 12.3172L7.5001 9.63359L2.31729 14.8172C2.20002 14.9345 2.04096 15.0003 1.8751 15.0003C1.70925 15.0003 1.55019 14.9345 1.43292 14.8172C1.31564 14.6999 1.24976 14.5409 1.24976 14.375C1.24976 14.2091 1.31564 14.0501 1.43292 13.9328L7.05792 8.30781C7.11596 8.2497 7.18489 8.2036 7.26077 8.17215C7.33664 8.1407 7.41797 8.12451 7.5001 8.12451C7.58224 8.12451 7.66357 8.1407 7.73944 8.17215C7.81531 8.2036 7.88424 8.2497 7.94229 8.30781L10.6251 10.9914L14.7415 6.875L12.6829 4.81719C12.5954 4.72978 12.5358 4.61837 12.5116 4.49707C12.4875 4.37576 12.4999 4.25002 12.5472 4.13576C12.5946 4.02149 12.6747 3.92384 12.7776 3.85517C12.8805 3.78651 13.0014 3.7499 13.1251 3.75H18.1251C18.2909 3.75 18.4498 3.81585 18.567 3.93306C18.6843 4.05027 18.7501 4.20924 18.7501 4.375Z" fill="#191F2E"/>
</svg>
