<svg width="20" height="20" viewBox="0 0 20 20" fill="none" xmlns="http://www.w3.org/2000/svg">
<path d="M18.75 10.625V15.625C18.75 15.7907 18.6841 15.9497 18.5669 16.0669C18.4497 16.1841 18.2907 16.25 18.125 16.25H13.125C12.9592 16.25 12.8002 16.1841 12.683 16.0669C12.5658 15.9497 12.5 15.7907 12.5 15.625C12.5 15.4592 12.5658 15.3003 12.683 15.183C12.8002 15.0658 12.9592 15 13.125 15H16.6164L10.625 9.00857L7.94217 11.6922C7.88412 11.7503 7.81519 11.7964 7.73932 11.8278C7.66344 11.8593 7.58212 11.8755 7.49998 11.8755C7.41785 11.8755 7.33652 11.8593 7.26064 11.8278C7.18477 11.7964 7.11584 11.7503 7.05779 11.6922L1.43279 6.06717C1.31552 5.94989 1.24963 5.79083 1.24963 5.62498C1.24963 5.45913 1.31552 5.30007 1.43279 5.18279C1.55007 5.06552 1.70913 4.99963 1.87498 4.99963C2.04083 4.99963 2.19989 5.06552 2.31717 5.18279L7.49998 10.3664L10.1828 7.68279C10.2408 7.62468 10.3098 7.57858 10.3856 7.54713C10.4615 7.51568 10.5428 7.49949 10.625 7.49949C10.7071 7.49949 10.7884 7.51568 10.8643 7.54713C10.9402 7.57858 11.0091 7.62468 11.0672 7.68279L17.5 14.1164V10.625C17.5 10.4592 17.5658 10.3002 17.683 10.183C17.8002 10.0658 17.9592 9.99998 18.125 9.99998C18.2907 9.99998 18.4497 10.0658 18.5669 10.183C18.6841 10.3002 18.75 10.4592 18.75 10.625Z" fill="#191F2E"/>
</svg>
