<svg width="20" height="20" viewBox="0 0 20 20" fill="none" xmlns="http://www.w3.org/2000/svg">
<path d="M18.7501 10.625V15.625C18.7501 15.7907 18.6843 15.9497 18.567 16.0669C18.4498 16.1841 18.2909 16.25 18.1251 16.25H13.1251C13.0014 16.2501 12.8805 16.2135 12.7776 16.1448C12.6747 16.0761 12.5946 15.9785 12.5472 15.8642C12.4999 15.75 12.4875 15.6242 12.5116 15.5029C12.5358 15.3816 12.5954 15.2702 12.6829 15.1828L14.7415 13.125L10.6251 9.00857L7.94229 11.6922C7.88424 11.7503 7.81531 11.7964 7.73944 11.8278C7.66357 11.8593 7.58224 11.8755 7.5001 11.8755C7.41797 11.8755 7.33664 11.8593 7.26077 11.8278C7.18489 11.7964 7.11596 11.7503 7.05792 11.6922L1.43292 6.06717C1.31564 5.94989 1.24976 5.79083 1.24976 5.62498C1.24976 5.45913 1.31564 5.30007 1.43292 5.18279C1.55019 5.06552 1.70925 4.99963 1.8751 4.99963C2.04096 4.99963 2.20002 5.06552 2.31729 5.18279L7.5001 10.3664L10.1829 7.68279C10.241 7.62468 10.3099 7.57858 10.3858 7.54713C10.4616 7.51568 10.543 7.49949 10.6251 7.49949C10.7072 7.49949 10.7886 7.51568 10.8644 7.54713C10.9403 7.57858 11.0092 7.62468 11.0673 7.68279L15.6251 12.2414L17.6829 10.1828C17.7703 10.0953 17.8817 10.0357 18.003 10.0115C18.1243 9.98737 18.2501 9.99975 18.3643 10.0471C18.4786 10.0944 18.5763 10.1746 18.6449 10.2775C18.7136 10.3804 18.7502 10.5013 18.7501 10.625Z" fill="#191F2E"/>
</svg>
