<svg width="20" height="20" viewBox="0 0 20 20" fill="none" xmlns="http://www.w3.org/2000/svg">
<path d="M18.5 14.6946L11.668 2.82974C11.4972 2.53906 11.2535 2.29803 10.9609 2.13057C10.6684 1.9631 10.3371 1.875 9.99998 1.875C9.66287 1.875 9.33161 1.9631 9.03904 2.13057C8.74647 2.29803 8.50274 2.53906 8.33202 2.82974L1.49998 14.6946C1.33571 14.9757 1.24915 15.2955 1.24915 15.6211C1.24915 15.9468 1.33571 16.2665 1.49998 16.5477C1.66846 16.8402 1.91176 17.0826 2.20489 17.2499C2.49802 17.4173 2.83042 17.5036 3.16795 17.5001H16.832C17.1693 17.5034 17.5014 17.4169 17.7942 17.2496C18.087 17.0822 18.3301 16.84 18.4984 16.5477C18.6629 16.2667 18.7498 15.947 18.75 15.6214C18.7503 15.2957 18.664 14.9759 18.5 14.6946ZM17.4164 15.9219C17.3568 16.0235 17.2713 16.1075 17.1686 16.1651C17.0659 16.2228 16.9498 16.2521 16.832 16.2501H3.16795C3.0502 16.2521 2.93402 16.2228 2.83133 16.1651C2.72865 16.1075 2.64314 16.0235 2.58358 15.9219C2.52963 15.8306 2.50117 15.7264 2.50117 15.6204C2.50117 15.5143 2.52963 15.4101 2.58358 15.3188L9.41561 3.45396C9.47637 3.35284 9.56227 3.26917 9.66494 3.21108C9.76762 3.153 9.88358 3.12247 10.0015 3.12247C10.1195 3.12247 10.2355 3.153 10.3381 3.21108C10.4408 3.26917 10.5267 3.35284 10.5875 3.45396L17.4195 15.3188C17.473 15.4104 17.5009 15.5147 17.5004 15.6208C17.4998 15.7269 17.4708 15.8309 17.4164 15.9219Z" fill="#191F2E"/>
</svg>
