<svg width="20" height="20" viewBox="0 0 20 20" fill="none" xmlns="http://www.w3.org/2000/svg">
<path d="M18.7704 14.5391L11.9383 2.67421C11.7404 2.33578 11.4574 2.05507 11.1173 1.85998C10.7773 1.6649 10.3921 1.56226 10 1.56226C9.60801 1.56226 9.22281 1.6649 8.88276 1.85998C8.5427 2.05507 8.25966 2.33578 8.06177 2.67421L1.22974 14.5391C1.03772 14.8675 0.936523 15.2411 0.936523 15.6215C0.936523 16.0019 1.03772 16.3755 1.22974 16.7039C1.42543 17.044 1.70809 17.3259 2.04871 17.5208C2.38933 17.7156 2.77564 17.8163 3.16802 17.8125H16.8321C17.2242 17.816 17.6102 17.7152 17.9505 17.5204C18.2908 17.3256 18.5732 17.0438 18.7688 16.7039C18.9611 16.3756 19.0625 16.0021 19.0628 15.6217C19.0631 15.2413 18.9621 14.8676 18.7704 14.5391ZM17.1454 15.7656C17.1136 15.8198 17.0678 15.8643 17.0128 15.8946C16.9578 15.9248 16.8956 15.9397 16.8329 15.9375H3.16802C3.10528 15.9397 3.04312 15.9248 2.98811 15.8946C2.9331 15.8643 2.88729 15.8198 2.85552 15.7656C2.82857 15.7218 2.8143 15.6714 2.8143 15.6199C2.8143 15.5685 2.82857 15.518 2.85552 15.4742L9.68755 3.60937C9.72112 3.55695 9.76734 3.51382 9.82195 3.48394C9.87656 3.45407 9.9378 3.43841 10 3.43841C10.0623 3.43841 10.1235 3.45407 10.1782 3.48394C10.2328 3.51382 10.279 3.55695 10.3125 3.60937L17.1446 15.4742C17.1716 15.518 17.1861 15.5684 17.1862 15.6198C17.1863 15.6713 17.1722 15.7217 17.1454 15.7656Z" fill="#191F2E"/>
</svg>
