<svg width="20" height="20" viewBox="0 0 20 20" fill="none" xmlns="http://www.w3.org/2000/svg">
<path d="M18.4984 16.5477C18.3301 16.84 18.087 17.0822 17.7942 17.2496C17.5014 17.4169 17.1693 17.5034 16.832 17.5001H3.16798C2.83071 17.5034 2.49864 17.4169 2.2058 17.2496C1.91297 17.0822 1.66992 16.84 1.50157 16.5477C1.3373 16.2665 1.25073 15.9468 1.25073 15.6211C1.25073 15.2955 1.3373 14.9757 1.50157 14.6946L8.33204 2.82974C8.50276 2.53906 8.74649 2.29803 9.03907 2.13057C9.33164 1.9631 9.6629 1.875 10 1.875C10.3371 1.875 10.6684 1.9631 10.9609 2.13057C11.2535 2.29803 11.4973 2.53906 11.668 2.82974L18.5 14.6946C18.664 14.9759 18.7503 15.2957 18.7501 15.6214C18.7498 15.947 18.663 16.2667 18.4984 16.5477Z" fill="#191F2E"/>
</svg>
