<svg width="20" height="20" viewBox="0 0 20 20" fill="none" xmlns="http://www.w3.org/2000/svg">
<path d="M19.3297 9.14062L18.2359 6.40625C18.1431 6.1749 17.983 5.97674 17.7763 5.83745C17.5696 5.69815 17.3258 5.62414 17.0766 5.625H14.375V5C14.375 4.83424 14.3092 4.67527 14.1919 4.55806C14.0747 4.44085 13.9158 4.375 13.75 4.375H1.875C1.54348 4.375 1.22554 4.5067 0.991117 4.74112C0.756696 4.97554 0.625 5.29348 0.625 5.625V14.375C0.625 14.7065 0.756696 15.0245 0.991117 15.2589C1.22554 15.4933 1.54348 15.625 1.875 15.625H3.20312C3.34081 16.1628 3.65356 16.6394 4.09207 16.9798C4.53057 17.3202 5.06989 17.5049 5.625 17.5049C6.18011 17.5049 6.71943 17.3202 7.15793 16.9798C7.59644 16.6394 7.90919 16.1628 8.04688 15.625H11.9531C12.0908 16.1628 12.4036 16.6394 12.8421 16.9798C13.2806 17.3202 13.8199 17.5049 14.375 17.5049C14.9301 17.5049 15.4694 17.3202 15.9079 16.9798C16.3464 16.6394 16.6592 16.1628 16.7969 15.625H18.125C18.4565 15.625 18.7745 15.4933 19.0089 15.2589C19.2433 15.0245 19.375 14.7065 19.375 14.375V9.375C19.3752 9.29468 19.3598 9.21508 19.3297 9.14062ZM14.375 6.875H17.0766L17.8266 8.75H14.375V6.875ZM1.875 5.625H13.125V10.625H1.875V5.625ZM5.625 16.25C5.37777 16.25 5.1361 16.1767 4.93054 16.0393C4.72498 15.902 4.56476 15.7068 4.47015 15.4784C4.37554 15.2499 4.35079 14.9986 4.39902 14.7561C4.44725 14.5137 4.5663 14.2909 4.74112 14.1161C4.91593 13.9413 5.13866 13.8222 5.38114 13.774C5.62361 13.7258 5.87495 13.7505 6.10335 13.8451C6.33176 13.9398 6.52699 14.1 6.66434 14.3055C6.80169 14.5111 6.875 14.7528 6.875 15C6.875 15.3315 6.7433 15.6495 6.50888 15.8839C6.27446 16.1183 5.95652 16.25 5.625 16.25ZM11.9531 14.375H8.04688C7.90919 13.8372 7.59644 13.3606 7.15793 13.0202C6.71943 12.6798 6.18011 12.4951 5.625 12.4951C5.06989 12.4951 4.53057 12.6798 4.09207 13.0202C3.65356 13.3606 3.34081 13.8372 3.20312 14.375H1.875V11.875H13.125V12.8367C12.8376 13.0028 12.586 13.2243 12.3849 13.4884C12.1837 13.7525 12.037 14.0538 11.9531 14.375ZM14.375 16.25C14.1278 16.25 13.8861 16.1767 13.6805 16.0393C13.475 15.902 13.3148 15.7068 13.2201 15.4784C13.1255 15.2499 13.1008 14.9986 13.149 14.7561C13.1972 14.5137 13.3163 14.2909 13.4911 14.1161C13.6659 13.9413 13.8887 13.8222 14.1311 13.774C14.3736 13.7258 14.6249 13.7505 14.8534 13.8451C15.0818 13.9398 15.277 14.1 15.4143 14.3055C15.5517 14.5111 15.625 14.7528 15.625 15C15.625 15.3315 15.4933 15.6495 15.2589 15.8839C15.0245 16.1183 14.7065 16.25 14.375 16.25ZM18.125 14.375H16.7969C16.6575 13.8385 16.3442 13.3635 15.9059 13.0242C15.4677 12.6849 14.9293 12.5005 14.375 12.5V10H18.125V14.375Z" fill="#191F2E"/>
</svg>
