<svg width="20" height="20" viewBox="0 0 20 20" fill="none" xmlns="http://www.w3.org/2000/svg">
<path d="M19.6203 9.02656L18.5266 6.29219C18.4112 6.00215 18.2112 5.75357 17.9526 5.57883C17.694 5.40408 17.3887 5.31128 17.0766 5.3125H14.6875V5C14.6875 4.75136 14.5887 4.5129 14.4129 4.33709C14.2371 4.16127 13.9986 4.0625 13.75 4.0625H1.875C1.66981 4.0625 1.46663 4.10292 1.27706 4.18144C1.08749 4.25996 0.915237 4.37505 0.770146 4.52015C0.47712 4.81317 0.3125 5.2106 0.3125 5.625V14.375C0.3125 14.7894 0.47712 15.1868 0.770146 15.4799C0.915237 15.6249 1.08749 15.74 1.27706 15.8186C1.46663 15.8971 1.66981 15.9375 1.875 15.9375H2.97344C3.16734 16.4858 3.52645 16.9605 4.00131 17.2962C4.47617 17.632 5.04344 17.8123 5.625 17.8123C6.20656 17.8123 6.77383 17.632 7.24869 17.2962C7.72355 16.9605 8.08266 16.4858 8.27656 15.9375H11.7234C11.9173 16.4858 12.2764 16.9605 12.7513 17.2962C13.2262 17.632 13.7934 17.8123 14.375 17.8123C14.9566 17.8123 15.5238 17.632 15.9987 17.2962C16.4736 16.9605 16.8327 16.4858 17.0266 15.9375H18.125C18.5394 15.9375 18.9368 15.7729 19.2299 15.4799C19.5229 15.1868 19.6875 14.7894 19.6875 14.375V9.375C19.6774 9.25682 19.6548 9.14004 19.6203 9.02656ZM14.6875 7.1875H16.8656L17.3656 8.4375H14.6875V7.1875ZM5.625 15.9375C5.43958 15.9375 5.25832 15.8825 5.10415 15.7795C4.94998 15.6765 4.82982 15.5301 4.75886 15.3588C4.68791 15.1875 4.66934 14.999 4.70551 14.8171C4.74169 14.6352 4.83098 14.4682 4.96209 14.3371C5.0932 14.206 5.26025 14.1167 5.4421 14.0805C5.62396 14.0443 5.81246 14.0629 5.98377 14.1339C6.15507 14.2048 6.30149 14.325 6.4045 14.4792C6.50752 14.6333 6.5625 14.8146 6.5625 15C6.5625 15.2486 6.46373 15.4871 6.28791 15.6629C6.1121 15.8387 5.87364 15.9375 5.625 15.9375ZM12.8125 12.6625C12.3092 13.0008 11.9275 13.4914 11.7234 14.0625H8.27656C8.08266 13.5142 7.72355 13.0395 7.24869 12.7038C6.77383 12.368 6.20656 12.1877 5.625 12.1877C5.04344 12.1877 4.47617 12.368 4.00131 12.7038C3.52645 13.0395 3.16734 13.5142 2.97344 14.0625H2.1875V10.9375H12.8125V12.6625ZM12.8125 9.0625H2.1875V5.9375H12.8125V9.0625ZM14.375 15.9375C14.1896 15.9375 14.0083 15.8825 13.8542 15.7795C13.7 15.6765 13.5798 15.5301 13.5089 15.3588C13.4379 15.1875 13.4193 14.999 13.4555 14.8171C13.4917 14.6352 13.581 14.4682 13.7121 14.3371C13.8432 14.206 14.0102 14.1167 14.1921 14.0805C14.374 14.0443 14.5625 14.0629 14.7338 14.1339C14.9051 14.2048 15.0515 14.325 15.1545 14.4792C15.2575 14.6333 15.3125 14.8146 15.3125 15C15.3125 15.2486 15.2137 15.4871 15.0379 15.6629C14.8621 15.8387 14.6236 15.9375 14.375 15.9375ZM17.8125 14.0625H17.0266C16.8497 13.565 16.5366 13.1272 16.1231 12.7988C15.7096 12.4705 15.2122 12.2649 14.6875 12.2055V10.3125H17.8125V14.0625Z" fill="#191F2E"/>
</svg>
