<svg width="20" height="20" viewBox="0 0 20 20" fill="none" xmlns="http://www.w3.org/2000/svg">
<path d="M16.25 2.1875H3.75C3.3356 2.1875 2.93817 2.35212 2.64515 2.64515C2.35212 2.93817 2.1875 3.3356 2.1875 3.75V15C2.1875 15.4144 2.35212 15.8118 2.64515 16.1049C2.93817 16.3979 3.3356 16.5625 3.75 16.5625H4.6875V18.75C4.68751 18.9282 4.73828 19.1026 4.83388 19.253C4.92948 19.4033 5.06593 19.5233 5.22727 19.5989C5.38861 19.6745 5.56814 19.7025 5.74484 19.6798C5.92155 19.657 6.0881 19.5843 6.225 19.4703L9.71406 16.5625H12.8984C13.2641 16.5621 13.6181 16.4339 13.8992 16.2L17.25 13.4078C17.4264 13.2614 17.5682 13.0779 17.6655 12.8703C17.7627 12.6627 17.8129 12.4362 17.8125 12.207V3.75C17.8125 3.3356 17.6479 2.93817 17.3549 2.64515C17.0618 2.35212 16.6644 2.1875 16.25 2.1875ZM15.9375 12.0609L12.7859 14.6875H9.60156C9.23589 14.6879 8.88187 14.8161 8.60078 15.05L6.5625 16.7484V15.625C6.5625 15.3764 6.46373 15.1379 6.28791 14.9621C6.1121 14.7863 5.87364 14.6875 5.625 14.6875H4.0625V4.0625H15.9375V12.0609ZM12.1875 10.625V6.875C12.1875 6.62636 12.2863 6.3879 12.4621 6.21209C12.6379 6.03627 12.8764 5.9375 13.125 5.9375C13.3736 5.9375 13.6121 6.03627 13.7879 6.21209C13.9637 6.3879 14.0625 6.62636 14.0625 6.875V10.625C14.0625 10.8736 13.9637 11.1121 13.7879 11.2879C13.6121 11.4637 13.3736 11.5625 13.125 11.5625C12.8764 11.5625 12.6379 11.4637 12.4621 11.2879C12.2863 11.1121 12.1875 10.8736 12.1875 10.625ZM8.4375 10.625V6.875C8.4375 6.62636 8.53627 6.3879 8.71209 6.21209C8.8879 6.03627 9.12636 5.9375 9.375 5.9375C9.62364 5.9375 9.8621 6.03627 10.0379 6.21209C10.2137 6.3879 10.3125 6.62636 10.3125 6.875V10.625C10.3125 10.8736 10.2137 11.1121 10.0379 11.2879C9.8621 11.4637 9.62364 11.5625 9.375 11.5625C9.12636 11.5625 8.8879 11.4637 8.71209 11.2879C8.53627 11.1121 8.4375 10.8736 8.4375 10.625Z" fill="#191F2E"/>
</svg>
