<svg width="20" height="20" viewBox="0 0 20 20" fill="none" xmlns="http://www.w3.org/2000/svg">
<path d="M19.057 9.86717C18.9096 8.17295 18.2901 6.55399 17.269 5.19406C16.2478 3.83413 14.8659 2.7877 13.2801 2.17355C11.6942 1.5594 9.96793 1.40212 8.2972 1.71958C6.62646 2.03704 5.07819 2.81651 3.8281 3.96952C2.1576 5.50225 1.12557 7.60786 0.93748 9.86717C0.919045 10.0832 0.945791 10.3008 1.01602 10.506C1.08624 10.7112 1.19841 10.8995 1.34538 11.0589C1.49235 11.2184 1.67091 11.3455 1.86969 11.4322C2.06847 11.5189 2.28312 11.5633 2.49998 11.5625H9.06248V15.625C9.06248 16.3709 9.3588 17.0863 9.88624 17.6137C10.4137 18.1412 11.1291 18.4375 11.875 18.4375C12.6209 18.4375 13.3363 18.1412 13.8637 17.6137C14.3912 17.0863 14.6875 16.3709 14.6875 15.625C14.6875 15.3763 14.5887 15.1379 14.4129 14.9621C14.2371 14.7863 13.9986 14.6875 13.75 14.6875C13.5013 14.6875 13.2629 14.7863 13.0871 14.9621C12.9113 15.1379 12.8125 15.3763 12.8125 15.625C12.8125 15.8736 12.7137 16.1121 12.5379 16.2879C12.3621 16.4637 12.1236 16.5625 11.875 16.5625C11.6263 16.5625 11.3879 16.4637 11.2121 16.2879C11.0363 16.1121 10.9375 15.8736 10.9375 15.625V11.5625H17.5C17.7168 11.5633 17.9315 11.5189 18.1303 11.4322C18.3291 11.3455 18.5076 11.2184 18.6546 11.0589C18.8015 10.8995 18.9137 10.7112 18.9839 10.506C19.0542 10.3008 19.0809 10.0832 19.0625 9.86717H19.057ZM2.84685 9.68748C3.0247 8.37912 3.5578 7.14454 4.3882 6.11795C5.2186 5.09137 6.31453 4.31206 7.55685 3.86474C8.79917 3.41742 10.1403 3.31922 11.4346 3.5808C12.7288 3.84239 13.9266 4.45374 14.8976 5.34842C16.1359 6.48489 16.9344 8.02107 17.1531 9.68748H2.84685Z" fill="#191F2E"/>
</svg>
