<svg width="20" height="20" viewBox="0 0 20 20" fill="none" xmlns="http://www.w3.org/2000/svg">
<path d="M18.4188 10.846C18.3018 10.9732 18.1598 11.0747 18.0017 11.1443C17.8436 11.2138 17.6728 11.2498 17.5 11.25H10.625V15.625C10.625 15.9565 10.7567 16.2744 10.9911 16.5088C11.2256 16.7433 11.5435 16.875 11.875 16.875C12.2065 16.875 12.5245 16.7433 12.7589 16.5088C12.9933 16.2744 13.125 15.9565 13.125 15.625C13.125 15.4592 13.1909 15.3002 13.3081 15.183C13.4253 15.0658 13.5843 15 13.75 15C13.9158 15 14.0747 15.0658 14.192 15.183C14.3092 15.3002 14.375 15.4592 14.375 15.625C14.375 16.288 14.1116 16.9239 13.6428 17.3927C13.1739 17.8616 12.5381 18.125 11.875 18.125C11.212 18.125 10.5761 17.8616 10.1072 17.3927C9.63841 16.9239 9.37501 16.288 9.37501 15.625V11.25H2.50001C2.32645 11.2506 2.15466 11.2151 1.99558 11.1457C1.8365 11.0763 1.69361 10.9745 1.57603 10.8468C1.45844 10.7192 1.36872 10.5684 1.31259 10.4042C1.25646 10.24 1.23515 10.0658 1.25001 9.89292C1.39326 8.25766 1.99184 6.69526 2.97788 5.38288C3.96391 4.0705 5.29794 3.06067 6.82869 2.46789C8.35945 1.87511 10.0257 1.7231 11.6384 2.02911C13.2512 2.33511 14.7459 3.08688 15.9531 4.19917C17.5675 5.67838 18.566 7.71106 18.75 9.89292C18.7636 10.0661 18.7412 10.2401 18.6842 10.4042C18.6271 10.5682 18.5368 10.7187 18.4188 10.846Z" fill="#191F2E"/>
</svg>
