<svg width="20" height="20" viewBox="0 0 20 20" fill="none" xmlns="http://www.w3.org/2000/svg">
<path d="M18.75 9.89296C18.6073 8.25695 18.0089 6.69369 17.0226 5.38061C16.0364 4.06753 14.7018 3.05721 13.1703 2.46431C11.6388 1.87141 9.97185 1.71968 8.35851 2.02634C6.74518 2.333 5.25011 3.08577 4.04298 4.19921C2.43147 5.67968 1.43584 7.7122 1.25392 9.89296C1.23909 10.0656 1.26029 10.2394 1.31619 10.4033C1.37208 10.5673 1.46145 10.7178 1.57861 10.8454C1.69578 10.973 1.83819 11.0749 1.9968 11.1445C2.15542 11.2142 2.32678 11.2501 2.50001 11.25H9.37501V15.625C9.37501 16.288 9.63841 16.9239 10.1072 17.3928C10.5761 17.8616 11.212 18.125 11.875 18.125C12.5381 18.125 13.1739 17.8616 13.6428 17.3928C14.1116 16.9239 14.375 16.288 14.375 15.625C14.375 15.4592 14.3092 15.3003 14.192 15.183C14.0747 15.0658 13.9158 15 13.75 15C13.5843 15 13.4253 15.0658 13.3081 15.183C13.1909 15.3003 13.125 15.4592 13.125 15.625C13.125 15.9565 12.9933 16.2745 12.7589 16.5089C12.5245 16.7433 12.2065 16.875 11.875 16.875C11.5435 16.875 11.2256 16.7433 10.9911 16.5089C10.7567 16.2745 10.625 15.9565 10.625 15.625V11.25H17.5C17.6736 11.2506 17.8454 11.2151 18.0044 11.1457C18.1635 11.0763 18.3064 10.9745 18.424 10.8469C18.5416 10.7192 18.6313 10.5685 18.6874 10.4042C18.7436 10.24 18.7649 10.0659 18.75 9.89296ZM2.50001 9.99999C2.62319 8.59776 3.13677 7.25809 3.98251 6.13287C4.82825 5.00764 5.97232 4.14186 7.28503 3.6337C8.59773 3.12554 10.0265 2.99531 11.4095 3.25779C12.7924 3.52027 14.0742 4.16495 15.1094 5.11874C16.4928 6.38652 17.3466 8.12983 17.5 9.99999H2.50001Z" fill="#191F2E"/>
</svg>
