<svg width="20" height="20" viewBox="0 0 20 20" fill="none" xmlns="http://www.w3.org/2000/svg">
<path d="M18.75 9.89298C18.5623 7.70288 17.5588 5.6632 15.9381 4.17816C14.3175 2.69312 12.1981 1.8711 10 1.87501C7.80256 1.87208 5.68415 2.69454 4.06435 4.17948C2.44456 5.66443 1.44153 7.70355 1.25392 9.89298C1.23909 10.0656 1.26029 10.2394 1.31619 10.4033C1.37208 10.5673 1.46145 10.7179 1.57861 10.8455C1.69578 10.9731 1.83819 11.0749 1.9968 11.1446C2.15542 11.2142 2.32678 11.2501 2.50001 11.25H9.37501V15.625C9.37501 16.2881 9.63841 16.9239 10.1072 17.3928C10.5761 17.8616 11.212 18.125 11.875 18.125C12.5381 18.125 13.1739 17.8616 13.6428 17.3928C14.1116 16.9239 14.375 16.2881 14.375 15.625C14.375 15.4593 14.3092 15.3003 14.192 15.1831C14.0747 15.0659 13.9158 15 13.75 15C13.5843 15 13.4253 15.0659 13.3081 15.1831C13.1909 15.3003 13.125 15.4593 13.125 15.625C13.125 15.9565 12.9933 16.2745 12.7589 16.5089C12.5245 16.7433 12.2065 16.875 11.875 16.875C11.5435 16.875 11.2256 16.7433 10.9911 16.5089C10.7567 16.2745 10.625 15.9565 10.625 15.625V11.25H17.5C17.6736 11.2507 17.8454 11.2151 18.0044 11.1457C18.1635 11.0763 18.3064 10.9746 18.424 10.8469C18.5416 10.7192 18.6313 10.5685 18.6874 10.4043C18.7436 10.24 18.7649 10.0659 18.75 9.89298ZM2.50001 10C2.63853 8.39 3.29256 6.86757 4.36499 5.65876C5.43743 4.44995 6.87109 3.6192 8.45314 3.28986C7.53751 4.53126 6.39454 6.72736 6.26329 10H2.50001ZM13.7367 10C13.6055 6.72736 12.4625 4.53126 11.5492 3.28595C13.1319 3.61501 14.566 4.44625 15.6382 5.65598C16.7104 6.86572 17.3634 8.38929 17.5 10H13.7367Z" fill="#191F2E"/>
</svg>
