<svg width="20" height="20" viewBox="0 0 20 20" fill="none" xmlns="http://www.w3.org/2000/svg">
<path d="M5.80781 6.06719C5.7497 6.00915 5.7036 5.94022 5.67215 5.86434C5.6407 5.78847 5.62451 5.70714 5.62451 5.625C5.62451 5.54287 5.6407 5.46154 5.67215 5.38567C5.7036 5.30979 5.7497 5.24086 5.80781 5.18282L9.55781 1.43282C9.61586 1.37471 9.68479 1.32861 9.76066 1.29715C9.83654 1.2657 9.91787 1.24951 10 1.24951C10.0821 1.24951 10.1635 1.2657 10.2393 1.29715C10.3152 1.32861 10.3841 1.37471 10.4422 1.43282L14.1922 5.18282C14.3095 5.30009 14.3753 5.45915 14.3753 5.625C14.3753 5.79086 14.3095 5.94992 14.1922 6.06719C14.0749 6.18447 13.9159 6.25035 13.75 6.25035C13.5841 6.25035 13.4251 6.18447 13.3078 6.06719L10.625 3.3836V10C10.625 10.1658 10.5592 10.3247 10.4419 10.4419C10.3247 10.5592 10.1658 10.625 10 10.625C9.83424 10.625 9.67527 10.5592 9.55806 10.4419C9.44085 10.3247 9.375 10.1658 9.375 10V3.3836L6.69219 6.06719C6.63414 6.1253 6.56521 6.1714 6.48934 6.20285C6.41346 6.23431 6.33213 6.25049 6.25 6.25049C6.16787 6.25049 6.08654 6.23431 6.01066 6.20285C5.93479 6.1714 5.86586 6.1253 5.80781 6.06719ZM18.75 10.625V15.625C18.75 15.9565 18.6183 16.2745 18.3839 16.5089C18.1495 16.7433 17.8315 16.875 17.5 16.875H2.5C2.16848 16.875 1.85054 16.7433 1.61612 16.5089C1.3817 16.2745 1.25 15.9565 1.25 15.625V10.625C1.25 10.2935 1.3817 9.97554 1.61612 9.74112C1.85054 9.5067 2.16848 9.375 2.5 9.375H7.8125C7.89538 9.375 7.97487 9.40793 8.03347 9.46653C8.09208 9.52514 8.125 9.60462 8.125 9.6875V9.95782C8.125 11.0086 8.98438 11.8945 10.0359 11.875C10.527 11.8656 10.9947 11.6639 11.3386 11.3133C11.6825 10.9627 11.8751 10.4911 11.875 10V9.6875C11.875 9.60462 11.9079 9.52514 11.9665 9.46653C12.0251 9.40793 12.1046 9.375 12.1875 9.375H17.5C17.8315 9.375 18.1495 9.5067 18.3839 9.74112C18.6183 9.97554 18.75 10.2935 18.75 10.625ZM15.625 13.125C15.625 12.9396 15.57 12.7583 15.467 12.6042C15.364 12.45 15.2176 12.3298 15.0463 12.2589C14.875 12.1879 14.6865 12.1693 14.5046 12.2055C14.3227 12.2417 14.1557 12.331 14.0246 12.4621C13.8935 12.5932 13.8042 12.7602 13.768 12.9421C13.7318 13.124 13.7504 13.3125 13.8214 13.4838C13.8923 13.6551 14.0125 13.8015 14.1667 13.9045C14.3208 14.0075 14.5021 14.0625 14.6875 14.0625C14.9361 14.0625 15.1746 13.9637 15.3504 13.7879C15.5262 13.6121 15.625 13.3736 15.625 13.125Z" fill="#191F2E"/>
</svg>
