<svg width="20" height="20" viewBox="0 0 20 20" fill="none" xmlns="http://www.w3.org/2000/svg">
<path d="M17.5 11.875V16.25C17.5 16.5815 17.3683 16.8995 17.1339 17.1339C16.8995 17.3683 16.5815 17.5 16.25 17.5H3.75C3.41848 17.5 3.10054 17.3683 2.86612 17.1339C2.6317 16.8995 2.5 16.5815 2.5 16.25V11.875C2.5 11.7092 2.56585 11.5503 2.68306 11.4331C2.80027 11.3159 2.95924 11.25 3.125 11.25C3.29076 11.25 3.44973 11.3159 3.56694 11.4331C3.68415 11.5503 3.75 11.7092 3.75 11.875V16.25H16.25V11.875C16.25 11.7092 16.3158 11.5503 16.4331 11.4331C16.5503 11.3159 16.7092 11.25 16.875 11.25C17.0408 11.25 17.1997 11.3159 17.3169 11.4331C17.4342 11.5503 17.5 11.7092 17.5 11.875ZM6.875 6.875H9.375V11.875C9.375 12.0408 9.44085 12.1997 9.55806 12.3169C9.67527 12.4342 9.83424 12.5 10 12.5C10.1658 12.5 10.3247 12.4342 10.4419 12.3169C10.5592 12.1997 10.625 12.0408 10.625 11.875V6.875H13.125C13.2487 6.8751 13.3696 6.8385 13.4725 6.76983C13.5754 6.70116 13.6555 6.60351 13.7029 6.48925C13.7502 6.37498 13.7626 6.24924 13.7385 6.12794C13.7143 6.00663 13.6547 5.89523 13.5672 5.80782L10.4422 2.68282C10.3841 2.62471 10.3152 2.57861 10.2393 2.54715C10.1635 2.5157 10.0821 2.49951 10 2.49951C9.91787 2.49951 9.83654 2.5157 9.76066 2.54715C9.68479 2.57861 9.61586 2.62471 9.55781 2.68282L6.43281 5.80782C6.34531 5.89523 6.2857 6.00663 6.26154 6.12794C6.23739 6.24924 6.24977 6.37498 6.29711 6.48925C6.34446 6.60351 6.42464 6.70116 6.52751 6.76983C6.63038 6.8385 6.75132 6.8751 6.875 6.875Z" fill="#191F2E"/>
</svg>
