<svg width="20" height="20" viewBox="0 0 20 20" fill="none" xmlns="http://www.w3.org/2000/svg">
<path d="M14.6875 14.375C14.4403 14.375 14.1986 14.3017 13.993 14.1643C13.7875 14.027 13.6273 13.8318 13.5326 13.6034C13.438 13.375 13.4133 13.1236 13.4615 12.8811C13.5097 12.6387 13.6288 12.4159 13.8036 12.2411C13.9784 12.0663 14.2012 11.9473 14.4436 11.899C14.6861 11.8508 14.9374 11.8755 15.1659 11.9702C15.3943 12.0648 15.5895 12.225 15.7268 12.4305C15.8642 12.6361 15.9375 12.8778 15.9375 13.125C15.9375 13.4565 15.8058 13.7745 15.5714 14.0089C15.337 14.2433 15.019 14.375 14.6875 14.375ZM17.5 9.06251H14.0625C13.8139 9.06251 13.5754 9.16128 13.3996 9.33709C13.2238 9.51291 13.125 9.75137 13.125 10C13.125 10.2486 13.2238 10.4871 13.3996 10.6629C13.5754 10.8387 13.8139 10.9375 14.0625 10.9375H17.1875V15.3125H2.8125V10.9375H5.9375C6.18614 10.9375 6.4246 10.8387 6.60041 10.6629C6.77623 10.4871 6.875 10.2486 6.875 10C6.875 9.75137 6.77623 9.51291 6.60041 9.33709C6.4246 9.16128 6.18614 9.06251 5.9375 9.06251H2.5C2.0856 9.06251 1.68817 9.22713 1.39515 9.52015C1.10212 9.81318 0.9375 10.2106 0.9375 10.625V15.625C0.9375 16.0394 1.10212 16.4368 1.39515 16.7299C1.68817 17.0229 2.0856 17.1875 2.5 17.1875H17.5C17.9144 17.1875 18.3118 17.0229 18.6049 16.7299C18.8979 16.4368 19.0625 16.0394 19.0625 15.625V10.625C19.0625 10.2106 18.8979 9.81318 18.6049 9.52015C18.3118 9.22713 17.9144 9.06251 17.5 9.06251ZM6.91328 6.28829L9.0625 4.14063V10C9.0625 10.2486 9.16127 10.4871 9.33709 10.6629C9.5129 10.8387 9.75136 10.9375 10 10.9375C10.2486 10.9375 10.4871 10.8387 10.6629 10.6629C10.8387 10.4871 10.9375 10.2486 10.9375 10V4.14063L13.0867 6.29063C13.1739 6.37784 13.2775 6.44701 13.3914 6.49421C13.5053 6.5414 13.6275 6.5657 13.7508 6.5657C13.8741 6.5657 13.9962 6.5414 14.1102 6.49421C14.2241 6.44701 14.3276 6.37784 14.4148 6.29063C14.502 6.20343 14.5712 6.0999 14.6184 5.98596C14.6656 5.87202 14.6899 5.7499 14.6899 5.62657C14.6899 5.50324 14.6656 5.38112 14.6184 5.26718C14.5712 5.15324 14.502 5.04971 14.4148 4.96251L10.6648 1.21251C10.5777 1.12511 10.4743 1.05576 10.3603 1.00844C10.2463 0.961125 10.1242 0.936768 10.0008 0.936768C9.87739 0.936768 9.75522 0.961125 9.64126 1.00844C9.52731 1.05576 9.42382 1.12511 9.33672 1.21251L5.58672 4.96251C5.49951 5.04971 5.43034 5.15324 5.38314 5.26718C5.33595 5.38112 5.31166 5.50324 5.31166 5.62657C5.31166 5.87564 5.4106 6.11451 5.58672 6.29063C5.76284 6.46675 6.00171 6.5657 6.25078 6.5657C6.49985 6.5657 6.73872 6.46675 6.91484 6.29063L6.91328 6.28829Z" fill="#191F2E"/>
</svg>
