<svg width="20" height="20" viewBox="0 0 20 20" fill="none" xmlns="http://www.w3.org/2000/svg">
<path d="M19.6875 10C19.6875 10.0515 19.6749 10.1021 19.6506 10.1475C19.6263 10.1929 19.5912 10.2316 19.5484 10.2602L15.7984 12.7602C15.7514 12.7916 15.6966 12.8096 15.6401 12.8123C15.5836 12.8151 15.5274 12.8024 15.4775 12.7757C15.4276 12.749 15.3859 12.7092 15.3569 12.6607C15.3278 12.6121 15.3125 12.5566 15.3125 12.5V10.625H5.625V14.375H8.4375V13.75C8.4375 13.5014 8.53627 13.2629 8.71209 13.0871C8.8879 12.9113 9.12636 12.8125 9.375 12.8125H11.875C12.1236 12.8125 12.3621 12.9113 12.5379 13.0871C12.7137 13.2629 12.8125 13.5014 12.8125 13.75V16.25C12.8125 16.4986 12.7137 16.7371 12.5379 16.9129C12.3621 17.0887 12.1236 17.1875 11.875 17.1875H9.375C9.12636 17.1875 8.8879 17.0887 8.71209 16.9129C8.53627 16.7371 8.4375 16.4986 8.4375 16.25V15.625H5.625C5.29348 15.625 4.97554 15.4933 4.74112 15.2589C4.5067 15.0245 4.375 14.7065 4.375 14.375V10.625H0.625C0.45924 10.625 0.300269 10.5592 0.183058 10.4419C0.065848 10.3247 0 10.1658 0 10C0 9.83425 0.065848 9.67527 0.183058 9.55806C0.300269 9.44085 0.45924 9.37501 0.625 9.37501H4.375V5.62501C4.375 5.29348 4.5067 4.97554 4.74112 4.74112C4.97554 4.5067 5.29348 4.37501 5.625 4.37501H8.52891C8.67903 3.87147 9.00539 3.43879 9.44831 3.15609C9.89122 2.87339 10.4211 2.75956 10.941 2.83542C11.461 2.91128 11.9362 3.17175 12.2799 3.56921C12.6236 3.96667 12.8127 4.47456 12.8127 5.00001C12.8127 5.52545 12.6236 6.03334 12.2799 6.4308C11.9362 6.82826 11.461 7.08873 10.941 7.16459C10.4211 7.24045 9.89122 7.12662 9.44831 6.84392C9.00539 6.56122 8.67903 6.12855 8.52891 5.62501H5.625V9.37501H15.3125V7.50001C15.3125 7.44342 15.3278 7.38788 15.3569 7.33932C15.3859 7.29076 15.4276 7.25101 15.4775 7.2243C15.5274 7.19759 15.5836 7.18493 15.6401 7.18767C15.6966 7.19041 15.7514 7.20844 15.7984 7.23985L19.5484 9.73985C19.5912 9.76841 19.6263 9.8071 19.6506 9.85249C19.6749 9.89787 19.6875 9.94854 19.6875 10Z" fill="#191F2E"/>
</svg>
