<svg width="20" height="20" viewBox="0 0 20 20" fill="none" xmlns="http://www.w3.org/2000/svg">
<path d="M2.125 9.87503C2.19066 9.92428 2.26538 9.96011 2.34489 9.98048C2.4244 10.0009 2.50714 10.0054 2.58839 9.99375C2.66964 9.98215 2.74781 9.95465 2.81843 9.91283C2.88906 9.87101 2.95075 9.8157 3 9.75003C3.37841 9.24549 3.86909 8.83597 4.43319 8.55392C4.99729 8.27187 5.61932 8.12503 6.25 8.12503C6.88068 8.12503 7.5027 8.27187 8.0668 8.55392C8.63091 8.83597 9.12159 9.24549 9.5 9.75003C9.59957 9.88252 9.74769 9.97004 9.91178 9.99333C10.0759 10.0166 10.2425 9.97379 10.375 9.87425C10.4222 9.83912 10.4641 9.79727 10.4992 9.75003C10.8776 9.24549 11.3683 8.83597 11.9324 8.55392C12.4965 8.27187 13.1185 8.12503 13.7492 8.12503C14.3799 8.12503 15.0019 8.27187 15.566 8.55392C16.1301 8.83597 16.6208 9.24549 16.9992 9.75003C17.0988 9.88264 17.2469 9.97027 17.4111 9.99364C17.5753 10.017 17.742 9.9742 17.8746 9.87464C18.0072 9.77508 18.0948 9.62692 18.1182 9.46276C18.1416 9.29859 18.0988 9.13186 17.9992 8.99925C17.446 8.25759 16.7083 7.67365 15.8594 7.3055C16.3248 6.88061 16.6508 6.32495 16.7947 5.71144C16.9387 5.09793 16.8938 4.45524 16.6659 3.86771C16.438 3.28018 16.0379 2.77527 15.5179 2.41923C14.998 2.0632 14.3825 1.87268 13.7523 1.87268C13.1222 1.87268 12.5067 2.0632 11.9868 2.41923C11.4668 2.77527 11.0667 3.28018 10.8388 3.86771C10.6109 4.45524 10.566 5.09793 10.7099 5.71144C10.8539 6.32495 11.1799 6.88061 11.6453 7.3055C11.0324 7.57054 10.4756 7.94997 10.0047 8.42347C9.53381 7.94997 8.977 7.57054 8.36406 7.3055C8.82944 6.88061 9.1555 6.32495 9.29943 5.71144C9.44336 5.09793 9.39845 4.45524 9.17058 3.86771C8.94272 3.28018 8.54255 2.77527 8.0226 2.41923C7.50265 2.0632 6.8872 1.87268 6.25703 1.87268C5.62686 1.87268 5.01142 2.0632 4.49146 2.41923C3.97151 2.77527 3.57134 3.28018 3.34348 3.86771C3.11562 4.45524 3.0707 5.09793 3.21464 5.71144C3.35857 6.32495 3.68462 6.88061 4.15 7.3055C3.29738 7.67245 2.55602 8.25676 2 9.00003C1.95075 9.0657 1.91492 9.14041 1.89455 9.21992C1.87418 9.29943 1.86967 9.38217 1.88128 9.46342C1.89289 9.54467 1.92039 9.62284 1.9622 9.69347C2.00402 9.76409 2.05934 9.82579 2.125 9.87503ZM13.75 3.12503C14.1208 3.12503 14.4834 3.235 14.7917 3.44103C15.1 3.64706 15.3404 3.93989 15.4823 4.2825C15.6242 4.62511 15.6613 5.00211 15.589 5.36583C15.5166 5.72954 15.338 6.06364 15.0758 6.32586C14.8136 6.58808 14.4795 6.76666 14.1158 6.83901C13.7521 6.91135 13.3751 6.87422 13.0325 6.73231C12.6899 6.59039 12.397 6.35007 12.191 6.04173C11.985 5.73339 11.875 5.37087 11.875 5.00003C11.875 4.50275 12.0725 4.02584 12.4242 3.67421C12.7758 3.32258 13.2527 3.12503 13.75 3.12503ZM6.25 3.12503C6.62084 3.12503 6.98335 3.235 7.29169 3.44103C7.60004 3.64706 7.84036 3.93989 7.98227 4.2825C8.12419 4.62511 8.16132 5.00211 8.08897 5.36583C8.01663 5.72954 7.83805 6.06364 7.57583 6.32586C7.3136 6.58808 6.97951 6.76666 6.61579 6.83901C6.25208 6.91135 5.87508 6.87422 5.53247 6.73231C5.18986 6.59039 4.89702 6.35007 4.69099 6.04173C4.48497 5.73339 4.375 5.37087 4.375 5.00003C4.375 4.50275 4.57254 4.02584 4.92417 3.67421C5.27581 3.32258 5.75272 3.12503 6.25 3.12503ZM15.8594 15.4305C16.3248 15.0056 16.6508 14.4499 16.7947 13.8364C16.9387 13.2229 16.8938 12.5802 16.6659 11.9927C16.438 11.4052 16.0379 10.9003 15.5179 10.5442C14.998 10.1882 14.3825 9.99768 13.7523 9.99768C13.1222 9.99768 12.5067 10.1882 11.9868 10.5442C11.4668 10.9003 11.0667 11.4052 10.8388 11.9927C10.6109 12.5802 10.566 13.2229 10.7099 13.8364C10.8539 14.4499 11.1799 15.0056 11.6453 15.4305C11.0324 15.6955 10.4756 16.075 10.0047 16.5485C9.53381 16.075 8.977 15.6955 8.36406 15.4305C8.82944 15.0056 9.1555 14.4499 9.29943 13.8364C9.44336 13.2229 9.39845 12.5802 9.17058 11.9927C8.94272 11.4052 8.54255 10.9003 8.0226 10.5442C7.50265 10.1882 6.8872 9.99768 6.25703 9.99768C5.62686 9.99768 5.01142 10.1882 4.49146 10.5442C3.97151 10.9003 3.57134 11.4052 3.34348 11.9927C3.11562 12.5802 3.0707 13.2229 3.21464 13.8364C3.35857 14.4499 3.68462 15.0056 4.15 15.4305C3.29738 15.7975 2.55602 16.3818 2 17.125C1.95075 17.1907 1.91492 17.2654 1.89455 17.3449C1.87418 17.4244 1.86967 17.5072 1.88128 17.5884C1.89289 17.6697 1.92039 17.7478 1.9622 17.8185C2.00402 17.8891 2.05934 17.9508 2.125 18C2.19066 18.0493 2.26538 18.0851 2.34489 18.1055C2.4244 18.1258 2.50714 18.1304 2.58839 18.1188C2.66964 18.1071 2.74781 18.0796 2.81843 18.0378C2.88906 17.996 2.95075 17.9407 3 17.875C3.37841 17.3705 3.86909 16.961 4.43319 16.6789C4.99729 16.3969 5.61932 16.25 6.25 16.25C6.88068 16.25 7.5027 16.3969 8.0668 16.6789C8.63091 16.961 9.12159 17.3705 9.5 17.875C9.59957 18.0075 9.74769 18.095 9.91178 18.1183C10.0759 18.1416 10.2425 18.0988 10.375 17.9993C10.4222 17.9641 10.4641 17.9223 10.4992 17.875C10.8776 17.3705 11.3683 16.961 11.9324 16.6789C12.4965 16.3969 13.1185 16.25 13.7492 16.25C14.3799 16.25 15.0019 16.3969 15.566 16.6789C16.1301 16.961 16.6208 17.3705 16.9992 17.875C17.0988 18.0076 17.2469 18.0953 17.4111 18.1186C17.5753 18.142 17.742 18.0992 17.8746 17.9996C18.0072 17.9001 18.0948 17.7519 18.1182 17.5878C18.1416 17.4236 18.0988 17.2569 17.9992 17.1243C17.446 16.3826 16.7083 15.7986 15.8594 15.4305ZM6.25 11.25C6.62084 11.25 6.98335 11.36 7.29169 11.566C7.60004 11.7721 7.84036 12.0649 7.98227 12.4075C8.12419 12.7501 8.16132 13.1271 8.08897 13.4908C8.01663 13.8545 7.83805 14.1886 7.57583 14.4509C7.3136 14.7131 6.97951 14.8917 6.61579 14.964C6.25208 15.0364 5.87508 14.9992 5.53247 14.8573C5.18986 14.7154 4.89702 14.4751 4.69099 14.1667C4.48497 13.8584 4.375 13.4959 4.375 13.125C4.375 12.6278 4.57254 12.1508 4.92417 11.7992C5.27581 11.4476 5.75272 11.25 6.25 11.25ZM13.75 11.25C14.1208 11.25 14.4834 11.36 14.7917 11.566C15.1 11.7721 15.3404 12.0649 15.4823 12.4075C15.6242 12.7501 15.6613 13.1271 15.589 13.4908C15.5166 13.8545 15.338 14.1886 15.0758 14.4509C14.8136 14.7131 14.4795 14.8917 14.1158 14.964C13.7521 15.0364 13.3751 14.9992 13.0325 14.8573C12.6899 14.7154 12.397 14.4751 12.191 14.1667C11.985 13.8584 11.875 13.4959 11.875 13.125C11.875 12.6278 12.0725 12.1508 12.4242 11.7992C12.7758 11.4476 13.2527 11.25 13.75 11.25Z" fill="#191F2E"/>
</svg>
