<svg width="20" height="20" viewBox="0 0 20 20" fill="none" xmlns="http://www.w3.org/2000/svg">
<path d="M16.875 3.125H3.125C2.79348 3.125 2.47554 3.2567 2.24112 3.49112C2.0067 3.72554 1.875 4.04348 1.875 4.375V15.625C1.875 15.9565 2.0067 16.2745 2.24112 16.5089C2.47554 16.7433 2.79348 16.875 3.125 16.875H16.875C17.2065 16.875 17.5245 16.7433 17.7589 16.5089C17.9933 16.2745 18.125 15.9565 18.125 15.625V4.375C18.125 4.04348 17.9933 3.72554 17.7589 3.49112C17.5245 3.2567 17.2065 3.125 16.875 3.125ZM7.5 9.375C7.5 8.88055 7.64662 8.3972 7.92133 7.98607C8.19603 7.57495 8.58648 7.25452 9.04329 7.0653C9.50011 6.87608 10.0028 6.82657 10.4877 6.92304C10.9727 7.0195 11.4181 7.2576 11.7678 7.60723C12.1174 7.95686 12.3555 8.40232 12.452 8.88727C12.5484 9.37223 12.4989 9.87489 12.3097 10.3317C12.1205 10.7885 11.8 11.179 11.3889 11.4537C10.9778 11.7284 10.4945 11.875 10 11.875C9.33696 11.875 8.70107 11.6116 8.23223 11.1428C7.76339 10.6739 7.5 10.038 7.5 9.375ZM5.66953 15.625C6.10833 14.8647 6.73954 14.2334 7.4997 13.7945C8.25987 13.3555 9.1222 13.1244 10 13.1244C10.8778 13.1244 11.7401 13.3555 12.5003 13.7945C13.2605 14.2334 13.8917 14.8647 14.3305 15.625H5.66953ZM16.875 15.625H15.7289C15.0692 14.1184 13.8431 12.9318 12.3156 12.3219C12.9291 11.8402 13.3772 11.1793 13.5974 10.431C13.8177 9.68273 13.7991 8.88442 13.5443 8.14721C13.2895 7.41001 12.8111 6.77061 12.1759 6.31803C11.5406 5.86545 10.78 5.62223 10 5.62223C9.22 5.62223 8.45942 5.86545 7.82415 6.31803C7.18888 6.77061 6.71054 7.41001 6.45573 8.14721C6.20093 8.88442 6.18234 9.68273 6.40257 10.431C6.62279 11.1793 7.07085 11.8402 7.68437 12.3219C6.15692 12.9318 4.93082 14.1184 4.27109 15.625H3.125V4.375H16.875V15.625Z" fill="#191F2E"/>
</svg>
