<svg width="20" height="20" viewBox="0 0 20 20" fill="none" xmlns="http://www.w3.org/2000/svg">
<path d="M16.875 2.8125H3.125C2.7106 2.8125 2.31317 2.97712 2.02015 3.27015C1.72712 3.56317 1.5625 3.9606 1.5625 4.375V15.625C1.5625 16.0394 1.72712 16.4368 2.02015 16.7299C2.31317 17.0229 2.7106 17.1875 3.125 17.1875H16.875C17.2894 17.1875 17.6868 17.0229 17.9799 16.7299C18.2729 16.4368 18.4375 16.0394 18.4375 15.625V4.375C18.4375 3.9606 18.2729 3.56317 17.9799 3.27015C17.6868 2.97712 17.2894 2.8125 16.875 2.8125ZM7.8125 10C7.8125 9.56735 7.94079 9.14442 8.18116 8.78469C8.42153 8.42496 8.76317 8.14458 9.16288 7.97901C9.56259 7.81345 10.0024 7.77013 10.4268 7.85453C10.8511 7.93894 11.2409 8.14728 11.5468 8.4532C11.8527 8.75913 12.0611 9.14891 12.1455 9.57324C12.2299 9.99757 12.1866 10.4374 12.021 10.8371C11.8554 11.2368 11.575 11.5785 11.2153 11.8188C10.8556 12.0592 10.4326 12.1875 10 12.1875C9.41984 12.1875 8.86344 11.957 8.4532 11.5468C8.04297 11.1366 7.8125 10.5802 7.8125 10ZM10 14.0625C11.184 14.0587 12.325 14.5056 13.1914 15.3125H6.80859C7.67502 14.5056 8.81605 14.0587 10 14.0625ZM16.5625 15.3125H15.5906C14.9435 14.2517 14.0067 13.3978 12.8906 12.8516C13.4537 12.2814 13.8355 11.5575 13.9881 10.7708C14.1408 9.98417 14.0573 9.16996 13.7484 8.43062C13.4394 7.69127 12.9187 7.05981 12.2517 6.61567C11.5847 6.17153 10.8013 5.93456 10 5.93456C9.19869 5.93456 8.41527 6.17153 7.74831 6.61567C7.08134 7.05981 6.56062 7.69127 6.25165 8.43062C5.94267 9.16996 5.85925 9.98417 6.01187 10.7708C6.16449 11.5575 6.54634 12.2814 7.10938 12.8516C5.99326 13.3978 5.05649 14.2517 4.40937 15.3125H3.4375V4.6875H16.5625V15.3125Z" fill="#191F2E"/>
</svg>
