<svg width="20" height="20" viewBox="0 0 20 20" fill="none" xmlns="http://www.w3.org/2000/svg">
<path d="M11.875 6.24997C11.875 6.00133 11.9737 5.76287 12.1495 5.58706C12.3254 5.41124 12.5638 5.31247 12.8125 5.31247H19.0625C19.3111 5.31247 19.5496 5.41124 19.7254 5.58706C19.9012 5.76287 20 6.00133 20 6.24997C20 6.49861 19.9012 6.73707 19.7254 6.91288C19.5496 7.0887 19.3111 7.18747 19.0625 7.18747H12.8125C12.5638 7.18747 12.3254 7.0887 12.1495 6.91288C11.9737 6.73707 11.875 6.49861 11.875 6.24997ZM19.0625 9.06247H12.8125C12.5638 9.06247 12.3254 9.16124 12.1495 9.33706C11.9737 9.51288 11.875 9.75133 11.875 9.99997C11.875 10.2486 11.9737 10.4871 12.1495 10.6629C12.3254 10.8387 12.5638 10.9375 12.8125 10.9375H19.0625C19.3111 10.9375 19.5496 10.8387 19.7254 10.6629C19.9012 10.4871 20 10.2486 20 9.99997C20 9.75133 19.9012 9.51288 19.7254 9.33706C19.5496 9.16124 19.3111 9.06247 19.0625 9.06247ZM19.0625 12.8125H14.6875C14.4388 12.8125 14.2004 12.9112 14.0245 13.0871C13.8487 13.2629 13.75 13.5013 13.75 13.75C13.75 13.9986 13.8487 14.2371 14.0245 14.4129C14.2004 14.5887 14.4388 14.6875 14.6875 14.6875H19.0625C19.3111 14.6875 19.5496 14.5887 19.7254 14.4129C19.9012 14.2371 20 13.9986 20 13.75C20 13.5013 19.9012 13.2629 19.7254 13.0871C19.5496 12.9112 19.3111 12.8125 19.0625 12.8125ZM12.1578 14.7656C12.1885 14.8848 12.1955 15.0089 12.1784 15.1308C12.1612 15.2528 12.1201 15.3701 12.0576 15.4762C11.9951 15.5822 11.9123 15.6749 11.8139 15.749C11.7155 15.823 11.6035 15.877 11.4843 15.9078C11.3651 15.9386 11.241 15.9456 11.1191 15.9284C10.9972 15.9112 10.8798 15.8702 10.7738 15.8076C10.6677 15.7451 10.575 15.6623 10.5009 15.5639C10.4269 15.4655 10.3729 15.3536 10.3421 15.2343C9.89527 13.4976 8.13589 12.1875 6.24996 12.1875C4.36402 12.1875 2.60465 13.4968 2.15777 15.2343C2.12699 15.3536 2.07303 15.4655 1.99898 15.5639C1.92492 15.6623 1.83221 15.7451 1.72615 15.8076C1.62009 15.8702 1.50275 15.9112 1.38083 15.9284C1.25891 15.9456 1.1348 15.9386 1.01558 15.9078C0.896367 15.877 0.784381 15.823 0.686018 15.749C0.587656 15.6749 0.504843 15.5822 0.442309 15.4762C0.379774 15.3701 0.338743 15.2528 0.321557 15.1308C0.30437 15.0089 0.311366 14.8848 0.342145 14.7656C0.762457 13.1328 1.91168 11.7843 3.39761 11.0156C2.82353 10.4498 2.43071 9.72609 2.26914 8.93644C2.10756 8.14679 2.18454 7.32692 2.49026 6.58114C2.79599 5.83536 3.31665 5.19737 3.98601 4.74835C4.65536 4.29933 5.44316 4.05957 6.24918 4.05957C7.05519 4.05957 7.84299 4.29933 8.51234 4.74835C9.1817 5.19737 9.70236 5.83536 10.0081 6.58114C10.3138 7.32692 10.3908 8.14679 10.2292 8.93644C10.0676 9.72609 9.67482 10.4498 9.10074 11.0156C10.5882 11.7851 11.7375 13.1336 12.1578 14.7656ZM6.24996 10.3125C6.6826 10.3125 7.10553 10.1842 7.46527 9.94381C7.825 9.70345 8.10538 9.36181 8.27094 8.96209C8.43651 8.56238 8.47983 8.12255 8.39542 7.69821C8.31102 7.27388 8.10268 6.8841 7.79675 6.57818C7.49083 6.27225 7.10105 6.06391 6.67672 5.9795C6.25238 5.8951 5.81255 5.93842 5.41284 6.10399C5.01312 6.26955 4.67148 6.54993 4.43112 6.90966C4.19075 7.26939 4.06246 7.69233 4.06246 8.12497C4.06246 8.41224 4.11904 8.69669 4.22897 8.96209C4.3389 9.22749 4.50003 9.46864 4.70316 9.67177C5.1134 10.082 5.6698 10.3125 6.24996 10.3125Z" fill="#191F2E"/>
</svg>
