<svg width="20" height="20" viewBox="0 0 20 20" fill="none" xmlns="http://www.w3.org/2000/svg">
<path d="M13.125 4.37501C13.125 4.20925 13.1908 4.05028 13.308 3.93307C13.4252 3.81586 13.5842 3.75001 13.75 3.75001H15V2.50001C15 2.33425 15.0658 2.17528 15.183 2.05807C15.3002 1.94086 15.4592 1.87501 15.625 1.87501C15.7907 1.87501 15.9497 1.94086 16.0669 2.05807C16.1841 2.17528 16.25 2.33425 16.25 2.50001V3.75001H17.5C17.6657 3.75001 17.8247 3.81586 17.9419 3.93307C18.0591 4.05028 18.125 4.20925 18.125 4.37501C18.125 4.54077 18.0591 4.69974 17.9419 4.81695C17.8247 4.93416 17.6657 5.00001 17.5 5.00001H16.25V6.25001C16.25 6.41577 16.1841 6.57474 16.0669 6.69195C15.9497 6.80916 15.7907 6.87501 15.625 6.87501C15.4592 6.87501 15.3002 6.80916 15.183 6.69195C15.0658 6.57474 15 6.41577 15 6.25001V5.00001H13.75C13.5842 5.00001 13.4252 4.93416 13.308 4.81695C13.1908 4.69974 13.125 4.54077 13.125 4.37501ZM18.0125 8.64688C18.298 10.3442 18.0367 12.0883 17.2664 13.6275C16.496 15.1666 15.2565 16.4211 13.7267 17.2099C12.1969 17.9986 10.456 18.2807 8.75538 18.0156C7.05477 17.7504 5.48243 16.9516 4.26539 15.7346C3.04834 14.5175 2.24957 12.9452 1.98439 11.2446C1.71922 9.54397 2.00137 7.80309 2.7901 6.27329C3.57884 4.74348 4.83334 3.50393 6.37249 2.73358C7.91163 1.96324 9.65577 1.70197 11.3531 1.98751C11.5153 2.0162 11.6597 2.10779 11.7547 2.24236C11.8498 2.37693 11.8879 2.54359 11.8607 2.70609C11.8335 2.86859 11.7432 3.01378 11.6096 3.11008C11.4759 3.20638 11.3096 3.246 11.1468 3.22032C10.161 3.05448 9.15087 3.10546 8.18674 3.3697C7.22261 3.63394 6.32764 4.10511 5.56412 4.7504C4.80059 5.39569 4.18685 6.19961 3.76561 7.10622C3.34437 8.01282 3.12575 9.00032 3.12496 10C3.12348 11.683 3.74203 13.3075 4.86246 14.5633C5.55951 13.5532 6.53966 12.7717 7.67965 12.3172C7.06729 11.8349 6.62045 11.1737 6.40127 10.4257C6.18208 9.67767 6.20145 8.87992 6.45667 8.1434C6.71189 7.40688 7.19028 6.7682 7.82532 6.31617C8.46036 5.86415 9.22047 5.62124 9.99996 5.62124C10.7794 5.62124 11.5396 5.86415 12.1746 6.31617C12.8096 6.7682 13.288 7.40688 13.5433 8.1434C13.7985 8.87992 13.8178 9.67767 13.5987 10.4257C13.3795 11.1737 12.9326 11.8349 12.3203 12.3172C13.4603 12.7717 14.4404 13.5532 15.1375 14.5633C16.2579 13.3075 16.8764 11.683 16.875 10C16.875 9.61574 16.8431 9.23213 16.7796 8.85313C16.7653 8.77183 16.7671 8.68849 16.7852 8.60791C16.8032 8.52734 16.837 8.45113 16.8846 8.3837C16.9322 8.31626 16.9928 8.25893 17.0627 8.21502C17.1326 8.17111 17.2105 8.14149 17.292 8.12786C17.3734 8.11424 17.4567 8.11688 17.5371 8.13565C17.6175 8.15441 17.6934 8.18892 17.7604 8.23717C17.8274 8.28543 17.8842 8.34649 17.9274 8.41681C17.9707 8.48713 17.9996 8.56533 18.0125 8.64688ZM9.99996 11.875C10.4944 11.875 10.9778 11.7284 11.3889 11.4537C11.8 11.179 12.1204 10.7885 12.3097 10.3317C12.4989 9.8749 12.5484 9.37224 12.4519 8.88728C12.3555 8.40233 12.1174 7.95687 11.7677 7.60724C11.4181 7.25761 10.9726 7.01951 10.4877 6.92305C10.0027 6.82658 9.50007 6.87609 9.04325 7.06531C8.58644 7.25453 8.19599 7.57496 7.92129 7.98608C7.64658 8.39721 7.49996 8.88056 7.49996 9.37501C7.49996 10.0381 7.76335 10.6739 8.23219 11.1428C8.70103 11.6116 9.33692 11.875 9.99996 11.875ZM9.99996 16.875C11.526 16.8765 13.0088 16.3678 14.2125 15.4297C13.7603 14.7226 13.1375 14.1406 12.4013 13.7376C11.6651 13.3345 10.8393 13.1232 9.99996 13.1232C9.16064 13.1232 8.33483 13.3345 7.59865 13.7376C6.86246 14.1406 6.2396 14.7226 5.78746 15.4297C6.99113 16.3678 8.4739 16.8765 9.99996 16.875Z" fill="#191F2E"/>
</svg>
