<svg width="20" height="20" viewBox="0 0 20 20" fill="none" xmlns="http://www.w3.org/2000/svg">
<path d="M19.8172 10.4422L17.9422 12.3172C17.8841 12.3753 17.8152 12.4214 17.7393 12.4528C17.6634 12.4843 17.5821 12.5005 17.5 12.5005C17.4178 12.5005 17.3365 12.4843 17.2606 12.4528C17.1848 12.4214 17.1158 12.3753 17.0578 12.3172L15.1828 10.4422C15.0655 10.3249 14.9996 10.1658 14.9996 9.99998C14.9996 9.83413 15.0655 9.67507 15.1828 9.55779C15.3001 9.44052 15.4591 9.37463 15.625 9.37463C15.7908 9.37463 15.9499 9.44052 16.0672 9.55779L16.875 10.3664V9.99998C16.8757 8.54422 16.4143 7.12581 15.5573 5.94908C14.7002 4.77235 13.4918 3.89804 12.106 3.4521C10.7202 3.00616 9.22866 3.01161 7.84618 3.46767C6.46371 3.92373 5.26168 4.80686 4.41326 5.98982C4.3165 6.1245 4.1702 6.21523 4.00654 6.24204C3.84289 6.26885 3.67529 6.22956 3.54061 6.13279C3.40593 6.03603 3.3152 5.88973 3.28839 5.72607C3.26158 5.56242 3.30088 5.39482 3.39764 5.26014C4.40036 3.86211 5.82098 2.81845 7.45484 2.27953C9.08871 1.7406 10.8515 1.73422 12.4892 2.2613C14.1269 2.78838 15.555 3.82172 16.5679 5.21246C17.5807 6.60319 18.1259 8.27953 18.125 9.99998V10.3664L18.9328 9.55779C19.0501 9.44052 19.2091 9.37463 19.375 9.37463C19.5408 9.37463 19.6999 9.44052 19.8172 9.55779C19.9344 9.67507 20.0003 9.83413 20.0003 9.99998C20.0003 10.1658 19.9344 10.3249 19.8172 10.4422ZM16.6 14.739C15.597 16.136 14.1766 17.1787 12.5432 17.717C10.9099 18.2553 9.14785 18.2615 7.51079 17.7346C5.87372 17.2077 4.44605 16.175 3.43329 14.7851C2.42053 13.3952 1.87491 11.7197 1.87498 9.99998V9.63357L1.06717 10.4422C0.949893 10.5594 0.790834 10.6253 0.624981 10.6253C0.459129 10.6253 0.300069 10.5594 0.182794 10.4422C0.0655184 10.3249 -0.000366211 10.1658 -0.000366211 9.99998C-0.000366211 9.83413 0.0655184 9.67507 0.182794 9.55779L2.05779 7.68279C2.11584 7.62468 2.18477 7.57858 2.26064 7.54713C2.33652 7.51568 2.41785 7.49949 2.49998 7.49949C2.58212 7.49949 2.66345 7.51568 2.73932 7.54713C2.81519 7.57858 2.88412 7.62468 2.94217 7.68279L4.81717 9.55779C4.93444 9.67507 5.00033 9.83413 5.00033 9.99998C5.00033 10.1658 4.93444 10.3249 4.81717 10.4422C4.69989 10.5594 4.54083 10.6253 4.37498 10.6253C4.20913 10.6253 4.05007 10.5594 3.93279 10.4422L3.12498 9.63357V9.99998C3.1235 11.6829 3.74205 13.3075 4.86248 14.5633C5.55954 13.5532 6.53968 12.7717 7.67967 12.3172C7.06731 11.8349 6.62047 11.1737 6.40129 10.4257C6.1821 9.67764 6.20147 8.8799 6.45669 8.14338C6.71191 7.40686 7.19031 6.76817 7.82534 6.31614C8.46038 5.86412 9.22049 5.62121 9.99998 5.62121C10.7795 5.62121 11.5396 5.86412 12.1746 6.31614C12.8097 6.76817 13.2881 7.40686 13.5433 8.14338C13.7985 8.8799 13.8179 9.67764 13.5987 10.4257C13.3795 11.1737 12.9327 11.8349 12.3203 12.3172C13.4613 12.7718 14.4422 13.5542 15.139 14.5656C15.2971 14.3881 15.446 14.2027 15.5851 14.0101C15.6819 13.8755 15.8282 13.7847 15.9919 13.7579C16.1555 13.7311 16.3231 13.7704 16.4578 13.8672C16.5925 13.9639 16.6832 14.1102 16.71 14.2739C16.7368 14.4375 16.6975 14.6051 16.6008 14.7398L16.6 14.739ZM9.99998 11.875C10.4944 11.875 10.9778 11.7284 11.3889 11.4537C11.8 11.179 12.1205 10.7885 12.3097 10.3317C12.4989 9.87487 12.5484 9.37221 12.4519 8.88725C12.3555 8.4023 12.1174 7.95684 11.7677 7.60721C11.4181 7.25758 10.9727 7.01948 10.4877 6.92302C10.0028 6.82655 9.50009 6.87606 9.04327 7.06528C8.58646 7.2545 8.19601 7.57493 7.92131 7.98606C7.6466 8.39718 7.49998 8.88053 7.49998 9.37498C7.49998 10.038 7.76337 10.6739 8.23221 11.1427C8.70106 11.6116 9.33694 11.875 9.99998 11.875ZM9.99998 16.875C11.5253 16.873 13.0069 16.3649 14.2125 15.4304C13.7603 14.7233 13.1375 14.1414 12.4013 13.7383C11.6651 13.3352 10.8393 13.1239 9.99998 13.1239C9.16067 13.1239 8.33485 13.3352 7.59867 13.7383C6.86249 14.1414 6.23962 14.7233 5.78748 15.4304C6.99125 16.3683 8.47401 16.8767 9.99998 16.875Z" fill="#191F2E"/>
</svg>
