<svg width="20" height="20" viewBox="0 0 20 20" fill="none" xmlns="http://www.w3.org/2000/svg">
<path d="M11.9141 12.2289C12.8336 11.506 13.5049 10.5144 13.8346 9.39216C14.1642 8.26992 14.1358 7.07283 13.7533 5.96748C13.3708 4.86213 12.6533 3.9035 11.7005 3.225C10.7478 2.5465 9.60721 2.18188 8.43756 2.18188C7.2679 2.18188 6.12734 2.5465 5.17459 3.225C4.22184 3.9035 3.50429 4.86213 3.12181 5.96748C2.73932 7.07283 2.71093 8.26992 3.04057 9.39216C3.37021 10.5144 4.04149 11.506 4.961 12.2289C3.48218 12.8321 2.17545 13.7915 1.15709 15.0219C0.99713 15.2123 0.919366 15.4584 0.940903 15.7062C0.962441 15.9539 1.08152 16.183 1.27193 16.343C1.46235 16.5029 1.70851 16.5807 1.95626 16.5591C2.20402 16.5376 2.43307 16.4185 2.59303 16.2281C4.10475 14.4289 6.18053 13.4375 8.43756 13.4375C11.3282 13.4375 13.2126 14.9547 14.2821 16.2281C14.442 16.4185 14.6711 16.5376 14.9189 16.5591C15.1666 16.5807 15.4128 16.5029 15.6032 16.343C15.7936 16.183 15.9127 15.9539 15.9342 15.7062C15.9558 15.4584 15.878 15.2123 15.718 15.0219C14.6997 13.7915 13.3929 12.8321 11.9141 12.2289ZM4.68756 7.81248C4.68756 7.0708 4.90749 6.34578 5.31955 5.7291C5.7316 5.11241 6.31727 4.63176 7.0025 4.34794C7.68772 4.06411 8.44172 3.98985 9.16915 4.13454C9.89658 4.27923 10.5648 4.63639 11.0892 5.16083C11.6137 5.68528 11.9708 6.35347 12.1155 7.0809C12.2602 7.80832 12.1859 8.56232 11.9021 9.24755C11.6183 9.93277 11.1376 10.5184 10.5209 10.9305C9.90426 11.3426 9.17924 11.5625 8.43756 11.5625C7.44331 11.5615 6.49009 11.166 5.78705 10.463C5.08401 9.75996 4.68859 8.80673 4.68756 7.81248ZM18.9633 11.0336L18.7047 11.118L18.861 11.3383C18.9374 11.4376 18.9932 11.5512 19.0249 11.6724C19.0567 11.7936 19.0638 11.9199 19.0459 12.0439C19.0281 12.168 18.9855 12.2871 18.9207 12.3944C18.856 12.5017 18.7704 12.5949 18.669 12.6685C18.5677 12.7422 18.4526 12.7948 18.3305 12.8232C18.2085 12.8516 18.082 12.8552 17.9585 12.8339C17.835 12.8126 17.7171 12.7667 17.6117 12.699C17.5062 12.6313 17.4154 12.5432 17.3446 12.4398L17.1876 12.2195L17.0313 12.4398C16.9605 12.5432 16.8697 12.6313 16.7642 12.699C16.6588 12.7667 16.5409 12.8126 16.4174 12.8339C16.2939 12.8552 16.1674 12.8516 16.0454 12.8232C15.9233 12.7948 15.8082 12.7422 15.7069 12.6685C15.6055 12.5949 15.5199 12.5017 15.4552 12.3944C15.3904 12.2871 15.3478 12.168 15.33 12.0439C15.3121 11.9199 15.3192 11.7936 15.351 11.6724C15.3827 11.5512 15.4385 11.4376 15.5149 11.3383L15.6712 11.118L15.4126 11.0336C15.1803 10.9534 14.9889 10.7852 14.8794 10.5653C14.7699 10.3453 14.7511 10.0912 14.8271 9.85756C14.9031 9.62392 15.0677 9.42944 15.2856 9.31596C15.5035 9.20247 15.7573 9.17907 15.9922 9.25077L16.2508 9.33436V9.06248C16.2508 8.81384 16.3496 8.57539 16.5254 8.39957C16.7012 8.22376 16.9397 8.12498 17.1883 8.12498C17.437 8.12498 17.6754 8.22376 17.8513 8.39957C18.0271 8.57539 18.1258 8.81384 18.1258 9.06248V9.33436L18.3844 9.25077C18.6194 9.17907 18.8732 9.20247 19.0911 9.31596C19.309 9.42944 19.4736 9.62392 19.5496 9.85756C19.6256 10.0912 19.6068 10.3453 19.4973 10.5653C19.3878 10.7852 19.1963 10.9534 18.9641 11.0336H18.9633Z" fill="#191F2E"/>
</svg>
