<svg width="20" height="20" viewBox="0 0 20 20" fill="none" xmlns="http://www.w3.org/2000/svg">
<path d="M17.832 4.92734L17.4679 4.71719C17.5106 4.49106 17.5106 4.25894 17.4679 4.03281L17.832 3.82266C17.9756 3.73978 18.0804 3.60325 18.1233 3.44311C18.1662 3.28297 18.1438 3.11234 18.0609 2.96875C17.978 2.82516 17.8415 2.72038 17.6814 2.67745C17.5212 2.63452 17.3506 2.65696 17.207 2.73984L16.8421 2.95078C16.6675 2.80098 16.4668 2.68471 16.25 2.60781V2.1875C16.25 2.02174 16.1841 1.86277 16.0669 1.74556C15.9497 1.62835 15.7907 1.5625 15.625 1.5625C15.4592 1.5625 15.3002 1.62835 15.183 1.74556C15.0658 1.86277 15 2.02174 15 2.1875V2.60781C14.7831 2.68471 14.5824 2.80098 14.4078 2.95078L14.0429 2.73984C13.9718 2.69881 13.8933 2.67217 13.812 2.66147C13.7306 2.65076 13.6479 2.65619 13.5686 2.67745C13.4893 2.6987 13.4149 2.73537 13.3498 2.78535C13.2847 2.83533 13.2301 2.89765 13.189 2.96875C13.148 3.03985 13.1214 3.11833 13.1106 3.19972C13.0999 3.28112 13.1054 3.36382 13.1266 3.44311C13.1479 3.5224 13.1845 3.59673 13.2345 3.66186C13.2845 3.72698 13.3468 3.78162 13.4179 3.82266L13.782 4.03281C13.7393 4.25894 13.7393 4.49106 13.782 4.71719L13.4179 4.92734C13.2987 4.9961 13.2055 5.10229 13.1528 5.22943C13.1001 5.35657 13.0909 5.49755 13.1265 5.63049C13.1621 5.76343 13.2406 5.8809 13.3498 5.96466C13.459 6.04843 13.5928 6.0938 13.7304 6.09375C13.8402 6.09409 13.948 6.06524 14.0429 6.01016L14.4078 5.79922C14.5824 5.94902 14.7831 6.06529 15 6.14219V6.5625C15 6.72826 15.0658 6.88723 15.183 7.00444C15.3002 7.12165 15.4592 7.1875 15.625 7.1875C15.7907 7.1875 15.9497 7.12165 16.0669 7.00444C16.1841 6.88723 16.25 6.72826 16.25 6.5625V6.14219C16.4668 6.06529 16.6675 5.94902 16.8421 5.79922L17.207 6.01016C17.3019 6.06524 17.4098 6.09409 17.5195 6.09375C17.6571 6.0938 17.7909 6.04843 17.9001 5.96466C18.0093 5.8809 18.0878 5.76343 18.1234 5.63049C18.1591 5.49755 18.1498 5.35657 18.0971 5.22943C18.0444 5.10229 17.9512 4.9961 17.832 4.92734ZM15 4.375C15 4.25139 15.0366 4.13055 15.1053 4.02777C15.174 3.92499 15.2716 3.84488 15.3858 3.79758C15.5 3.75027 15.6257 3.73789 15.7469 3.76201C15.8681 3.78612 15.9795 3.84565 16.0669 3.93306C16.1543 4.02047 16.2138 4.13183 16.238 4.25307C16.2621 4.37431 16.2497 4.49997 16.2024 4.61418C16.1551 4.72838 16.075 4.82599 15.9722 4.89467C15.8694 4.96334 15.7486 5 15.625 5C15.4592 5 15.3002 4.93415 15.183 4.81694C15.0658 4.69973 15 4.54076 15 4.375ZM17.2929 8.13359C17.1295 8.16095 16.9835 8.25213 16.8873 8.38706C16.791 8.522 16.7523 8.68964 16.7796 8.85313C16.8431 9.23212 16.875 9.61573 16.875 10C16.8764 11.683 16.2579 13.3075 15.1375 14.5633C14.4404 13.5532 13.4603 12.7717 12.3203 12.3172C12.9326 11.8349 13.3795 11.1737 13.5987 10.4257C13.8178 9.67766 13.7985 8.87992 13.5433 8.1434C13.288 7.40687 12.8096 6.76819 12.1746 6.31616C11.5396 5.86414 10.7794 5.62123 9.99996 5.62123C9.22047 5.62123 8.46036 5.86414 7.82532 6.31616C7.19028 6.76819 6.71189 7.40687 6.45667 8.1434C6.20145 8.87992 6.18208 9.67766 6.40127 10.4257C6.62045 11.1737 7.06729 11.8349 7.67965 12.3172C6.53966 12.7717 5.55951 13.5532 4.86246 14.5633C3.98333 13.5726 3.40908 12.3491 3.20874 11.0399C3.00841 9.73063 3.19052 8.39139 3.73319 7.18318C4.27586 5.97497 5.15597 4.94923 6.26771 4.2293C7.37945 3.50937 8.67548 3.1259 9.99996 3.125C10.3842 3.12494 10.7678 3.15682 11.1468 3.22031C11.3096 3.24599 11.4759 3.20637 11.6096 3.11007C11.7432 3.01377 11.8335 2.86858 11.8607 2.70608C11.8879 2.54358 11.8498 2.37692 11.7547 2.24235C11.6597 2.10778 11.5153 2.01619 11.3531 1.9875C9.65577 1.70196 7.91163 1.96323 6.37249 2.73357C4.83334 3.50392 3.57884 4.74348 2.7901 6.27328C2.00137 7.80308 1.71922 9.54397 1.98439 11.2446C2.24957 12.9452 3.04834 14.5175 4.26539 15.7346C5.48243 16.9516 7.05477 17.7504 8.75538 18.0156C10.456 18.2807 12.1969 17.9986 13.7267 17.2099C15.2565 16.4211 16.496 15.1666 17.2664 13.6275C18.0367 12.0883 18.298 10.3442 18.0125 8.64687C17.9851 8.4834 17.8939 8.33748 17.759 8.24122C17.6241 8.14497 17.4564 8.10625 17.2929 8.13359ZM7.49996 9.375C7.49996 8.88055 7.64658 8.3972 7.92129 7.98607C8.19599 7.57495 8.58644 7.25452 9.04325 7.0653C9.50007 6.87608 10.0027 6.82657 10.4877 6.92304C10.9726 7.0195 11.4181 7.2576 11.7677 7.60723C12.1174 7.95686 12.3555 8.40232 12.4519 8.88727C12.5484 9.37223 12.4989 9.87489 12.3097 10.3317C12.1204 10.7885 11.8 11.179 11.3889 11.4537C10.9778 11.7284 10.4944 11.875 9.99996 11.875C9.33692 11.875 8.70103 11.6116 8.23219 11.1428C7.76335 10.6739 7.49996 10.038 7.49996 9.375ZM5.78746 15.4297C6.2396 14.7226 6.86246 14.1406 7.59865 13.7375C8.33483 13.3345 9.16064 13.1232 9.99996 13.1232C10.8393 13.1232 11.6651 13.3345 12.4013 13.7375C13.1375 14.1406 13.7603 14.7226 14.2125 15.4297C13.008 16.3664 11.5258 16.8749 9.99996 16.8749C8.47416 16.8749 6.99189 16.3664 5.78746 15.4297Z" fill="#191F2E"/>
</svg>
