<svg width="20" height="20" viewBox="0 0 20 20" fill="none" xmlns="http://www.w3.org/2000/svg">
<path d="M20 10.625C20 10.7907 19.9342 10.9497 19.817 11.0669C19.6998 11.1841 19.5408 11.25 19.375 11.25H15.625C15.4593 11.25 15.3003 11.1841 15.1831 11.0669C15.0659 10.9497 15 10.7907 15 10.625C15 10.4592 15.0659 10.3002 15.1831 10.183C15.3003 10.0658 15.4593 9.99995 15.625 9.99995H19.375C19.5408 9.99995 19.6998 10.0658 19.817 10.183C19.9342 10.3002 20 10.4592 20 10.625ZM15.4789 15.2226C15.5857 15.3496 15.6375 15.5138 15.6232 15.6791C15.6088 15.8444 15.5294 15.9971 15.4024 16.1039C15.2754 16.2106 15.1112 16.2624 14.9459 16.2481C14.7806 16.2337 14.6278 16.1543 14.5211 16.0273C12.9493 14.1554 10.7883 13.125 8.43754 13.125C6.08676 13.125 3.92582 14.1554 2.35395 16.0273C2.24724 16.1542 2.09449 16.2335 1.92929 16.2478C1.7641 16.2621 1.6 16.2102 1.47309 16.1035C1.34618 15.9968 1.26686 15.844 1.25257 15.6788C1.23829 15.5136 1.29021 15.3495 1.39692 15.2226C2.5641 13.8335 4.01567 12.8468 5.62895 12.3187C4.64918 11.7085 3.89482 10.7957 3.47999 9.7186C3.06516 8.64146 3.01242 7.45852 3.32977 6.34874C3.64711 5.23897 4.31727 4.26273 5.23885 3.56775C6.16042 2.87276 7.28328 2.49683 8.43754 2.49683C9.5918 2.49683 10.7147 2.87276 11.6362 3.56775C12.5578 4.26273 13.228 5.23897 13.5453 6.34874C13.8627 7.45852 13.8099 8.64146 13.3951 9.7186C12.9803 10.7957 12.2259 11.7085 11.2461 12.3187C12.8594 12.8468 14.311 13.8335 15.4789 15.2226ZM8.43754 11.875C9.24103 11.875 10.0265 11.6367 10.6945 11.1903C11.3626 10.7439 11.8833 10.1094 12.1908 9.3671C12.4983 8.62478 12.5787 7.80794 12.422 7.0199C12.2652 6.23185 11.8783 5.50798 11.3102 4.93983C10.742 4.37168 10.0181 3.98476 9.2301 3.82801C8.44205 3.67126 7.62522 3.75171 6.88289 4.05919C6.14057 4.36667 5.50609 4.88737 5.0597 5.55545C4.6133 6.22352 4.37504 7.00896 4.37504 7.81245C4.37628 8.88951 4.80469 9.9221 5.56629 10.6837C6.32789 11.4453 7.36048 11.8737 8.43754 11.875Z" fill="#191F2E"/>
</svg>
