<svg width="20" height="20" viewBox="0 0 20 20" fill="none" xmlns="http://www.w3.org/2000/svg">
<path d="M11.2499 6.24996C11.2499 6.0842 11.3158 5.92523 11.433 5.80801C11.5502 5.6908 11.7092 5.62496 11.8749 5.62496H19.3749C19.5407 5.62496 19.6997 5.6908 19.8169 5.80801C19.9341 5.92523 19.9999 6.0842 19.9999 6.24996C19.9999 6.41572 19.9341 6.57469 19.8169 6.6919C19.6997 6.80911 19.5407 6.87496 19.3749 6.87496H11.8749C11.7092 6.87496 11.5502 6.80911 11.433 6.6919C11.3158 6.57469 11.2499 6.41572 11.2499 6.24996ZM19.3749 9.37496H11.8749C11.7092 9.37496 11.5502 9.4408 11.433 9.55801C11.3158 9.67522 11.2499 9.8342 11.2499 9.99996C11.2499 10.1657 11.3158 10.3247 11.433 10.4419C11.5502 10.5591 11.7092 10.625 11.8749 10.625H19.3749C19.5407 10.625 19.6997 10.5591 19.8169 10.4419C19.9341 10.3247 19.9999 10.1657 19.9999 9.99996C19.9999 9.8342 19.9341 9.67522 19.8169 9.55801C19.6997 9.4408 19.5407 9.37496 19.3749 9.37496ZM19.3749 13.125H13.7499C13.5842 13.125 13.4252 13.1908 13.308 13.308C13.1908 13.4252 13.1249 13.5842 13.1249 13.75C13.1249 13.9157 13.1908 14.0747 13.308 14.1919C13.4252 14.3091 13.5842 14.375 13.7499 14.375H19.3749C19.5407 14.375 19.6997 14.3091 19.8169 14.1919C19.9341 14.0747 19.9999 13.9157 19.9999 13.75C19.9999 13.5842 19.9341 13.4252 19.8169 13.308C19.6997 13.1908 19.5407 13.125 19.3749 13.125ZM8.53823 11.0937C9.15852 10.6159 9.61371 9.95601 9.83996 9.20646C10.0662 8.45691 10.0522 7.65534 9.79984 6.91417C9.54749 6.17299 9.06948 5.52939 8.43285 5.07363C7.79622 4.61787 7.0329 4.3728 6.24995 4.3728C5.467 4.3728 4.70368 4.61787 4.06705 5.07363C3.43042 5.52939 2.95241 6.17299 2.70006 6.91417C2.44771 7.65534 2.43368 8.45691 2.65994 9.20646C2.88619 9.95601 3.34138 10.6159 3.96167 11.0937C2.35073 11.7757 1.0812 13.1484 0.64448 14.8437C0.620627 14.9361 0.618242 15.0327 0.637507 15.1262C0.656773 15.2196 0.697177 15.3074 0.755624 15.3828C0.814071 15.4582 0.889009 15.5193 0.974694 15.5612C1.06038 15.6032 1.15454 15.625 1.24995 15.625H11.2499C11.3454 15.625 11.4395 15.6032 11.5252 15.5612C11.6109 15.5193 11.6858 15.4582 11.7443 15.3828C11.8027 15.3074 11.8431 15.2196 11.8624 15.1262C11.8817 15.0327 11.8793 14.9361 11.8554 14.8437C11.4187 13.1476 10.1492 11.775 8.53823 11.0937Z" fill="#191F2E"/>
</svg>
