<svg width="20" height="20" viewBox="0 0 20 20" fill="none" xmlns="http://www.w3.org/2000/svg">
<path d="M17.8125 3.75V5.9375C17.8125 6.18614 17.7137 6.4246 17.5379 6.60041C17.3621 6.77623 17.1236 6.875 16.875 6.875C16.6264 6.875 16.3879 6.77623 16.2121 6.60041C16.0363 6.4246 15.9375 6.18614 15.9375 5.9375V4.0625H14.0625C13.8139 4.0625 13.5754 3.96373 13.3996 3.78791C13.2238 3.6121 13.125 3.37364 13.125 3.125C13.125 2.87636 13.2238 2.6379 13.3996 2.46209C13.5754 2.28627 13.8139 2.1875 14.0625 2.1875H16.25C16.6644 2.1875 17.0618 2.35212 17.3549 2.64515C17.6479 2.93817 17.8125 3.3356 17.8125 3.75ZM16.875 13.125C16.6264 13.125 16.3879 13.2238 16.2121 13.3996C16.0363 13.5754 15.9375 13.8139 15.9375 14.0625V15.9375H14.0625C13.8139 15.9375 13.5754 16.0363 13.3996 16.2121C13.2238 16.3879 13.125 16.6264 13.125 16.875C13.125 17.1236 13.2238 17.3621 13.3996 17.5379C13.5754 17.7137 13.8139 17.8125 14.0625 17.8125H16.25C16.6644 17.8125 17.0618 17.6479 17.3549 17.3549C17.6479 17.0618 17.8125 16.6644 17.8125 16.25V14.0625C17.8125 13.8139 17.7137 13.5754 17.5379 13.3996C17.3621 13.2238 17.1236 13.125 16.875 13.125ZM5.9375 15.9375H4.0625V14.0625C4.0625 13.8139 3.96373 13.5754 3.78791 13.3996C3.6121 13.2238 3.37364 13.125 3.125 13.125C2.87636 13.125 2.6379 13.2238 2.46209 13.3996C2.28627 13.5754 2.1875 13.8139 2.1875 14.0625V16.25C2.1875 16.6644 2.35212 17.0618 2.64515 17.3549C2.93817 17.6479 3.3356 17.8125 3.75 17.8125H5.9375C6.18614 17.8125 6.4246 17.7137 6.60041 17.5379C6.77623 17.3621 6.875 17.1236 6.875 16.875C6.875 16.6264 6.77623 16.3879 6.60041 16.2121C6.4246 16.0363 6.18614 15.9375 5.9375 15.9375ZM3.125 6.875C3.37364 6.875 3.6121 6.77623 3.78791 6.60041C3.96373 6.4246 4.0625 6.18614 4.0625 5.9375V4.0625H5.9375C6.18614 4.0625 6.4246 3.96373 6.60041 3.78791C6.77623 3.6121 6.875 3.37364 6.875 3.125C6.875 2.87636 6.77623 2.6379 6.60041 2.46209C6.4246 2.28627 6.18614 2.1875 5.9375 2.1875H3.75C3.3356 2.1875 2.93817 2.35212 2.64515 2.64515C2.35212 2.93817 2.1875 3.3356 2.1875 3.75V5.9375C2.1875 6.18614 2.28627 6.4246 2.46209 6.60041C2.6379 6.77623 2.87636 6.875 3.125 6.875ZM13.75 14.0625C13.6045 14.0626 13.461 14.0288 13.3309 13.9639C13.2007 13.8989 13.0874 13.8046 13 13.6883C12.6507 13.2222 12.1977 12.844 11.6769 12.5834C11.156 12.3229 10.5816 12.1872 9.99922 12.1872C9.41683 12.1872 8.84244 12.3229 8.32159 12.5834C7.80073 12.844 7.34771 13.2222 6.99844 13.6883C6.84725 13.8819 6.62608 14.0085 6.38252 14.0407C6.13896 14.073 5.89248 14.0083 5.69611 13.8607C5.49973 13.7131 5.36916 13.4942 5.33249 13.2513C5.29581 13.0084 5.35596 12.7607 5.5 12.5617C5.99725 11.8966 6.63539 11.3497 7.36875 10.9602C6.94727 10.4591 6.67763 9.84819 6.59156 9.19916C6.50548 8.55013 6.60655 7.89001 6.88286 7.29646C7.15918 6.70291 7.59926 6.20061 8.15133 5.84866C8.7034 5.4967 9.3445 5.30973 9.99922 5.30973C10.6539 5.30973 11.295 5.4967 11.8471 5.84866C12.3992 6.20061 12.8393 6.70291 13.1156 7.29646C13.3919 7.89001 13.493 8.55013 13.4069 9.19916C13.3208 9.84819 13.0512 10.4591 12.6297 10.9602C13.363 11.3497 14.0012 11.8966 14.4984 12.5617C14.603 12.7009 14.6668 12.8664 14.6826 13.0398C14.6985 13.2132 14.6657 13.3876 14.588 13.5434C14.5103 13.6992 14.3907 13.8303 14.2427 13.922C14.0947 14.0137 13.9241 14.0623 13.75 14.0625ZM10 10.3125C10.309 10.3125 10.6111 10.2209 10.8681 10.0492C11.125 9.87748 11.3253 9.63345 11.4436 9.34794C11.5618 9.06243 11.5928 8.74827 11.5325 8.44517C11.4722 8.14208 11.3234 7.86367 11.1049 7.64515C10.8863 7.42663 10.6079 7.27781 10.3048 7.21752C10.0017 7.15723 9.68757 7.18818 9.40206 7.30644C9.11655 7.4247 8.87252 7.62497 8.70083 7.88192C8.52914 8.13887 8.4375 8.44097 8.4375 8.75C8.4375 9.1644 8.60212 9.56183 8.89515 9.85485C9.18817 10.1479 9.5856 10.3125 10 10.3125Z" fill="#191F2E"/>
</svg>
