<svg width="20" height="20" viewBox="0 0 20 20" fill="none" xmlns="http://www.w3.org/2000/svg">
<path d="M13.125 4.37501C13.125 4.20925 13.1908 4.05028 13.308 3.93307C13.4252 3.81586 13.5842 3.75001 13.75 3.75001H17.5C17.6657 3.75001 17.8247 3.81586 17.9419 3.93307C18.0591 4.05028 18.125 4.20925 18.125 4.37501C18.125 4.54077 18.0591 4.69974 17.9419 4.81695C17.8247 4.93416 17.6657 5.00001 17.5 5.00001H13.75C13.5842 5.00001 13.4252 4.93416 13.308 4.81695C13.1908 4.69974 13.125 4.54077 13.125 4.37501ZM17.2929 8.1336C17.1295 8.16096 16.9835 8.25213 16.8873 8.38707C16.791 8.52201 16.7523 8.68965 16.7796 8.85313C16.8431 9.23213 16.875 9.61574 16.875 10C16.8764 11.683 16.2579 13.3075 15.1375 14.5633C14.6828 13.9044 14.1057 13.3392 13.4375 12.8984C13.3804 12.8606 13.3125 12.8426 13.2442 12.8471C13.1759 12.8516 13.1109 12.8784 13.0593 12.9234C12.2102 13.6582 11.1248 14.0626 10.0019 14.0626C8.87901 14.0626 7.79365 13.6582 6.94449 12.9234C6.8926 12.8775 6.82691 12.8501 6.75775 12.8456C6.68859 12.8411 6.6199 12.8597 6.56246 12.8984C5.89321 13.3387 5.3152 13.904 4.86012 14.5633C3.98086 13.5725 3.40656 12.3488 3.20631 11.0393C3.00606 9.72985 3.18837 8.39042 3.73133 7.18212C4.27428 5.97382 5.15475 4.94811 6.26684 4.22836C7.37893 3.5086 8.67528 3.12546 9.99996 3.12501C10.3842 3.12495 10.7678 3.15683 11.1468 3.22032C11.3096 3.246 11.4759 3.20638 11.6096 3.11008C11.7432 3.01378 11.8335 2.86859 11.8607 2.70609C11.8879 2.54359 11.8498 2.37693 11.7547 2.24236C11.6597 2.10779 11.5153 2.0162 11.3531 1.98751C9.65577 1.70197 7.91163 1.96324 6.37249 2.73358C4.83334 3.50393 3.57884 4.74348 2.7901 6.27329C2.00137 7.80309 1.71922 9.54397 1.98439 11.2446C2.24957 12.9452 3.04834 14.5175 4.26539 15.7346C5.48243 16.9516 7.05477 17.7504 8.75538 18.0156C10.456 18.2807 12.1969 17.9986 13.7267 17.2099C15.2565 16.4211 16.496 15.1666 17.2664 13.6275C18.0367 12.0883 18.298 10.3442 18.0125 8.64688C17.9851 8.48341 17.8939 8.33749 17.759 8.24123C17.6241 8.14498 17.4564 8.10626 17.2929 8.1336ZM6.56246 9.37501C6.56246 10.0549 6.76407 10.7195 7.14178 11.2848C7.5195 11.8501 8.05636 12.2907 8.68449 12.5508C9.31261 12.811 10.0038 12.8791 10.6706 12.7465C11.3374 12.6138 11.9499 12.2864 12.4306 11.8057C12.9114 11.3249 13.2388 10.7124 13.3714 10.0456C13.504 9.37882 13.436 8.68766 13.1758 8.05953C12.9156 7.43141 12.475 6.89455 11.9097 6.51683C11.3444 6.13911 10.6798 5.93751 9.99996 5.93751C9.08828 5.93751 8.21394 6.29967 7.56928 6.94433C6.92462 7.58899 6.56246 8.46333 6.56246 9.37501Z" fill="#191F2E"/>
</svg>
