<svg width="20" height="20" viewBox="0 0 20 20" fill="none" xmlns="http://www.w3.org/2000/svg">
<path d="M20 10.625C20 10.7907 19.9341 10.9497 19.8169 11.0669C19.6997 11.1841 19.5407 11.25 19.375 11.25H18.125V12.5C18.125 12.6657 18.0591 12.8247 17.9419 12.9419C17.8247 13.0591 17.6657 13.125 17.5 13.125C17.3342 13.125 17.1753 13.0591 17.058 12.9419C16.9408 12.8247 16.875 12.6657 16.875 12.5V11.25H15.625C15.4592 11.25 15.3003 11.1841 15.183 11.0669C15.0658 10.9497 15 10.7907 15 10.625C15 10.4592 15.0658 10.3002 15.183 10.183C15.3003 10.0658 15.4592 9.99995 15.625 9.99995H16.875V8.74995C16.875 8.58419 16.9408 8.42522 17.058 8.30801C17.1753 8.1908 17.3342 8.12495 17.5 8.12495C17.6657 8.12495 17.8247 8.1908 17.9419 8.30801C18.0591 8.42522 18.125 8.58419 18.125 8.74995V9.99995H19.375C19.5407 9.99995 19.6997 10.0658 19.8169 10.183C19.9341 10.3002 20 10.4592 20 10.625ZM11.25 12.3187C12.2297 11.7085 12.9841 10.7957 13.3989 9.7186C13.8138 8.64146 13.8665 7.45852 13.5492 6.34874C13.2318 5.23897 12.5617 4.26273 11.6401 3.56775C10.7185 2.87276 9.59565 2.49683 8.44139 2.49683C7.28713 2.49683 6.16428 2.87276 5.2427 3.56775C4.32112 4.26273 3.65096 5.23897 3.33362 6.34874C3.01627 7.45852 3.06901 8.64146 3.48384 9.7186C3.89867 10.7957 4.65304 11.7085 5.6328 12.3187C4.01952 12.8468 2.56795 13.8335 1.40077 15.2226C1.32435 15.3134 1.27538 15.4241 1.25959 15.5418C1.24379 15.6594 1.26182 15.7791 1.31157 15.8869C1.36131 15.9947 1.44072 16.086 1.54049 16.1503C1.64027 16.2146 1.75629 16.2492 1.87499 16.25H15C15.1191 16.2501 15.2357 16.2162 15.3362 16.1522C15.4367 16.0883 15.5168 15.997 15.5671 15.889C15.6174 15.7811 15.6358 15.661 15.6202 15.5429C15.6046 15.4249 15.5556 15.3137 15.4789 15.2226C14.3109 13.8335 12.8594 12.8468 11.25 12.3187Z" fill="#191F2E"/>
</svg>
