<svg width="20" height="20" viewBox="0 0 20 20" fill="none" xmlns="http://www.w3.org/2000/svg">
<path d="M12.8125 4.37502C12.8125 4.12638 12.9113 3.88793 13.0871 3.71211C13.2629 3.53629 13.5014 3.43752 13.75 3.43752H17.5C17.7487 3.43752 17.9871 3.53629 18.163 3.71211C18.3388 3.88793 18.4375 4.12638 18.4375 4.37502C18.4375 4.62366 18.3388 4.86212 18.163 5.03794C17.9871 5.21375 17.7487 5.31252 17.5 5.31252H13.75C13.5014 5.31252 13.2629 5.21375 13.0871 5.03794C12.9113 4.86212 12.8125 4.62366 12.8125 4.37502ZM18.3211 8.59377C18.6172 10.3557 18.3457 12.1661 17.5459 13.7637C16.746 15.3613 15.4592 16.6633 13.8711 17.4819C12.2831 18.3005 10.476 18.5933 8.7107 18.318C6.94542 18.0426 5.3133 17.2134 4.04997 15.9501C2.78664 14.6868 1.95745 13.0546 1.68212 11.2894C1.40678 9.52409 1.69954 7.71698 2.51813 6.12893C3.33672 4.54087 4.63879 3.25403 6.23637 2.45417C7.83395 1.65432 9.64438 1.38284 11.4063 1.67893C11.6515 1.72037 11.8702 1.85753 12.0143 2.06023C12.1584 2.26293 12.2161 2.51457 12.1747 2.75979C12.1332 3.00501 11.9961 3.22373 11.7934 3.36782C11.5907 3.51192 11.339 3.56959 11.0938 3.52815C10.7323 3.46781 10.3665 3.4375 10 3.43752C8.7681 3.43669 7.56084 3.78289 6.51655 4.43646C5.47227 5.09003 4.6332 6.02455 4.09548 7.13294C3.55775 8.24133 3.34311 9.47878 3.47615 10.7035C3.60919 11.9283 4.08452 13.0908 4.8477 14.0578C5.45535 13.285 6.22986 12.6595 7.11333 12.2281C6.55029 11.658 6.16844 10.934 6.01582 10.1474C5.8632 9.36076 5.94662 8.54655 6.2556 7.8072C6.56457 7.06785 7.08529 6.43639 7.75226 5.99226C8.41922 5.54812 9.20264 5.31114 10.004 5.31114C10.8053 5.31114 11.5887 5.54812 12.2556 5.99226C12.9226 6.43639 13.4433 7.06785 13.7523 7.8072C14.0613 8.54655 14.1447 9.36076 13.9921 10.1474C13.8395 10.934 13.4576 11.658 12.8946 12.2281C13.7782 12.6592 14.5528 13.2847 15.1602 14.0578C16.072 12.9021 16.5662 11.4721 16.5625 10C16.5625 9.63357 16.5322 9.26774 16.4719 8.90627C16.4305 8.66105 16.4882 8.40941 16.6322 8.20671C16.7763 8.00401 16.9951 7.86685 17.2403 7.82541C17.4855 7.78397 17.7371 7.84164 17.9398 7.98574C18.1425 8.12984 18.2797 8.34855 18.3211 8.59377ZM10 11.5625C10.4327 11.5625 10.8556 11.4342 11.2154 11.1939C11.5751 10.9535 11.8555 10.6119 12.021 10.2121C12.1866 9.81243 12.2299 9.3726 12.1455 8.94826C12.0611 8.52393 11.8528 8.13415 11.5468 7.82823C11.2409 7.5223 10.8511 7.31396 10.4268 7.22955C10.0025 7.14515 9.56264 7.18847 9.16292 7.35404C8.76321 7.5196 8.42157 7.79998 8.1812 8.15971C7.94084 8.51945 7.81254 8.94238 7.81254 9.37502C7.81254 9.95518 8.04301 10.5116 8.45325 10.9218C8.86348 11.3321 9.41988 11.5625 10 11.5625ZM10 16.5625C11.3558 16.5635 12.6783 16.1422 13.7836 15.3571C13.3484 14.762 12.779 14.2779 12.1216 13.9443C11.4641 13.6106 10.7373 13.4367 10 13.4367C9.2628 13.4367 8.53594 13.6106 7.87853 13.9443C7.22111 14.2779 6.65167 14.762 6.21645 15.3571C7.3218 16.1422 8.64424 16.5635 10 16.5625Z" fill="#191F2E"/>
</svg>
