<svg width="20" height="20" viewBox="0 0 20 20" fill="none" xmlns="http://www.w3.org/2000/svg">
<path d="M18 17.1242C18.0699 17.2171 18.1125 17.3276 18.123 17.4433C18.1336 17.559 18.1116 17.6754 18.0597 17.7794C18.0078 17.8833 17.9279 17.9707 17.829 18.0318C17.7301 18.0928 17.6162 18.1251 17.5 18.125H2.5C2.38393 18.125 2.27015 18.0927 2.17142 18.0317C2.07268 17.9707 1.99289 17.8833 1.94098 17.7795C1.88908 17.6757 1.8671 17.5595 1.87753 17.4439C1.88795 17.3283 1.93036 17.2179 2 17.125C2.55343 16.383 3.29142 15.7988 4.14063 15.4305C3.67514 15.0056 3.34898 14.45 3.20496 13.8365C3.06094 13.2229 3.10579 12.5802 3.33362 11.9926C3.56145 11.405 3.96161 10.9 4.48159 10.5439C5.00157 10.1879 5.61705 9.99731 6.24727 9.99731C6.87748 9.99731 7.49297 10.1879 8.01294 10.5439C8.53292 10.9 8.93308 11.405 9.16091 11.9926C9.38874 12.5802 9.43359 13.2229 9.28957 13.8365C9.14555 14.45 8.81939 15.0056 8.35391 15.4305C8.96658 15.6953 9.52333 16.0742 9.99453 16.5469C10.4657 16.0742 11.0225 15.6953 11.6352 15.4305C11.1697 15.0056 10.8435 14.45 10.6995 13.8365C10.5555 13.2229 10.6003 12.5802 10.8281 11.9926C11.056 11.405 11.4561 10.9 11.9761 10.5439C12.4961 10.1879 13.1116 9.99731 13.7418 9.99731C14.372 9.99731 14.9875 10.1879 15.5075 10.5439C16.0274 10.9 16.4276 11.405 16.6554 11.9926C16.8833 12.5802 16.9281 13.2229 16.7841 13.8365C16.6401 14.45 16.3139 15.0056 15.8484 15.4305C16.7016 15.7969 17.4435 16.381 18 17.1242ZM2.125 9.87502C2.19066 9.92427 2.26538 9.9601 2.34489 9.98047C2.4244 10.0008 2.50714 10.0054 2.58839 9.99374C2.66964 9.98214 2.74781 9.95464 2.81843 9.91282C2.88906 9.871 2.95075 9.81569 3 9.75002C3.37841 9.24548 3.86909 8.83596 4.4332 8.55391C4.9973 8.27186 5.61932 8.12502 6.25 8.12502C6.88068 8.12502 7.5027 8.27186 8.0668 8.55391C8.63091 8.83596 9.12159 9.24548 9.5 9.75002C9.55822 9.82765 9.63371 9.89065 9.72049 9.93404C9.80728 9.97743 9.90297 10 10 10C10.097 10 10.1927 9.97743 10.2795 9.93404C10.3663 9.89065 10.4418 9.82765 10.5 9.75002C10.8784 9.24548 11.3691 8.83596 11.9332 8.55391C12.4973 8.27186 13.1193 8.12502 13.75 8.12502C14.3807 8.12502 15.0027 8.27186 15.5668 8.55391C16.1309 8.83596 16.6216 9.24548 17 9.75002C17.0493 9.81569 17.111 9.87099 17.1817 9.91279C17.2524 9.95459 17.3306 9.98206 17.4119 9.99363C17.4932 10.0052 17.5759 10.0006 17.6555 9.98023C17.735 9.95981 17.8097 9.92393 17.8754 9.87463C17.9411 9.82534 17.9964 9.76359 18.0382 9.69292C18.08 9.62225 18.1074 9.54403 18.119 9.46275C18.1306 9.38146 18.126 9.29869 18.1056 9.21916C18.0852 9.13963 18.0493 9.0649 18 8.99924C17.4466 8.25747 16.7085 7.67352 15.8594 7.30549C16.3249 6.88065 16.651 6.325 16.795 5.71146C16.9391 5.09792 16.8942 4.45518 16.6664 3.86759C16.4386 3.28 16.0384 2.77502 15.5184 2.41894C14.9984 2.06286 14.3829 1.87231 13.7527 1.87231C13.1225 1.87231 12.507 2.06286 11.9871 2.41894C11.4671 2.77502 11.0669 3.28 10.8391 3.86759C10.6113 4.45518 10.5664 5.09792 10.7104 5.71146C10.8544 6.325 11.1806 6.88065 11.6461 7.30549C11.0334 7.57032 10.4767 7.94918 10.0055 8.4219C9.53427 7.94918 8.97751 7.57032 8.36484 7.30549C8.83033 6.88065 9.15649 6.325 9.30051 5.71146C9.44453 5.09792 9.39968 4.45518 9.17185 3.86759C8.94402 3.28 8.54386 2.77502 8.02388 2.41894C7.5039 2.06286 6.88842 1.87231 6.2582 1.87231C5.62799 1.87231 5.0125 2.06286 4.49253 2.41894C3.97255 2.77502 3.57239 3.28 3.34456 3.86759C3.11673 4.45518 3.07188 5.09792 3.2159 5.71146C3.35992 6.325 3.68608 6.88065 4.15156 7.30549C3.29838 7.67221 2.55645 8.25654 2 9.00002C1.95075 9.06569 1.91492 9.1404 1.89455 9.21991C1.87418 9.29942 1.86967 9.38216 1.88128 9.46341C1.89289 9.54466 1.92039 9.62283 1.9622 9.69346C2.00402 9.76408 2.05934 9.82578 2.125 9.87502Z" fill="#191F2E"/>
</svg>
