<svg width="20" height="20" viewBox="0 0 20 20" fill="none" xmlns="http://www.w3.org/2000/svg">
<path d="M11.25 12.3187C12.2297 11.7085 12.9841 10.7957 13.3989 9.7186C13.8137 8.64146 13.8665 7.45852 13.5491 6.34874C13.2318 5.23897 12.5616 4.26273 11.6401 3.56775C10.7185 2.87276 9.59562 2.49683 8.44136 2.49683C7.2871 2.49683 6.16424 2.87276 5.24267 3.56775C4.32109 4.26273 3.65093 5.23897 3.33359 6.34874C3.01624 7.45852 3.06898 8.64146 3.48381 9.7186C3.89864 10.7957 4.653 11.7085 5.63277 12.3187C4.01949 12.8468 2.56792 13.8335 1.40074 15.2226C1.34605 15.2851 1.30438 15.358 1.27816 15.4368C1.25194 15.5156 1.2417 15.5989 1.24804 15.6817C1.25437 15.7645 1.27716 15.8453 1.31507 15.9192C1.35297 15.9931 1.40524 16.0588 1.4688 16.1122C1.53236 16.1657 1.60595 16.206 1.68527 16.2307C1.76458 16.2555 1.84803 16.2641 1.93072 16.2562C2.01342 16.2483 2.09371 16.224 2.1669 16.1847C2.24009 16.1454 2.30471 16.0919 2.35699 16.0273C3.92574 14.1554 6.08667 13.125 8.43745 13.125C10.7882 13.125 12.9492 14.1554 14.521 16.0273C14.6278 16.1543 14.7806 16.2337 14.9458 16.2481C15.1111 16.2624 15.2753 16.2106 15.4023 16.1039C15.5293 15.9971 15.6087 15.8444 15.6231 15.6791C15.6375 15.5138 15.5856 15.3496 15.4789 15.2226C14.3109 13.8335 12.8593 12.8468 11.25 12.3187ZM4.37495 7.81245C4.37495 7.00896 4.61322 6.22352 5.05961 5.55545C5.506 4.88737 6.14048 4.36667 6.8828 4.05919C7.62513 3.75171 8.44196 3.67126 9.23001 3.82801C10.0181 3.98476 10.7419 4.37168 11.3101 4.93983C11.8782 5.50798 12.2651 6.23185 12.4219 7.0199C12.5786 7.80794 12.4982 8.62478 12.1907 9.3671C11.8832 10.1094 11.3625 10.7439 10.6945 11.1903C10.0264 11.6367 9.24094 11.875 8.43745 11.875C7.36039 11.8737 6.3278 11.4453 5.5662 10.6837C4.80461 9.9221 4.3762 8.88951 4.37495 7.81245ZM19.082 11.1773L18.7179 10.9671C18.7606 10.741 18.7606 10.5089 18.7179 10.2828L19.082 10.0726C19.2256 9.98973 19.3304 9.8532 19.3733 9.69306C19.4162 9.53292 19.3938 9.36229 19.3109 9.2187C19.228 9.07511 19.0915 8.97033 18.9313 8.9274C18.7712 8.88447 18.6006 8.90691 18.457 8.98979L18.0921 9.20073C17.9175 9.05093 17.7168 8.93466 17.5 8.85776V8.43745C17.5 8.27169 17.4341 8.11272 17.3169 7.99551C17.1997 7.8783 17.0407 7.81245 16.875 7.81245C16.7092 7.81245 16.5502 7.8783 16.433 7.99551C16.3158 8.11272 16.25 8.27169 16.25 8.43745V8.85776C16.0331 8.93466 15.8324 9.05093 15.6578 9.20073L15.2929 8.98979C15.2218 8.94876 15.1433 8.92212 15.0619 8.91142C14.9806 8.90071 14.8979 8.90614 14.8186 8.9274C14.7393 8.94865 14.6649 8.98532 14.5998 9.0353C14.5347 9.08528 14.4801 9.1476 14.439 9.2187C14.398 9.2898 14.3713 9.36828 14.3606 9.44968C14.3499 9.53107 14.3554 9.61377 14.3766 9.69306C14.3979 9.77235 14.4345 9.84668 14.4845 9.91181C14.5345 9.97693 14.5968 10.0316 14.6679 10.0726L15.032 10.2828C14.9893 10.5089 14.9893 10.741 15.032 10.9671L14.6679 11.1773C14.5243 11.2602 14.4195 11.3967 14.3766 11.5568C14.3337 11.717 14.3561 11.8876 14.439 12.0312C14.5219 12.1748 14.6584 12.2796 14.8186 12.3225C14.9787 12.3654 15.1493 12.343 15.2929 12.2601L15.6578 12.0492C15.8324 12.199 16.0331 12.3152 16.25 12.3921V12.8125C16.25 12.9782 16.3158 13.1372 16.433 13.2544C16.5502 13.3716 16.7092 13.4375 16.875 13.4375C17.0407 13.4375 17.1997 13.3716 17.3169 13.2544C17.4341 13.1372 17.5 12.9782 17.5 12.8125V12.3921C17.7168 12.3152 17.9175 12.199 18.0921 12.0492L18.457 12.2601C18.5519 12.3152 18.6597 12.344 18.7695 12.3437C18.9071 12.3438 19.0409 12.2984 19.1501 12.2146C19.2593 12.1309 19.3378 12.0134 19.3734 11.8804C19.4091 11.7475 19.3998 11.6065 19.3471 11.4794C19.2944 11.3522 19.2012 11.2461 19.082 11.1773ZM16.25 10.625C16.25 10.5013 16.2866 10.3805 16.3553 10.2777C16.424 10.1749 16.5216 10.0948 16.6358 10.0475C16.75 10.0002 16.8756 9.98784 16.9969 10.012C17.1181 10.0361 17.2295 10.0956 17.3169 10.183C17.4043 10.2704 17.4638 10.3818 17.4879 10.503C17.5121 10.6243 17.4997 10.7499 17.4524 10.8641C17.4051 10.9783 17.325 11.0759 17.2222 11.1446C17.1194 11.2133 16.9986 11.25 16.875 11.25C16.7092 11.25 16.5502 11.1841 16.433 11.0669C16.3158 10.9497 16.25 10.7907 16.25 10.625Z" fill="#191F2E"/>
</svg>
