<svg width="20" height="20" viewBox="0 0 20 20" fill="none" xmlns="http://www.w3.org/2000/svg">
<path d="M10 1.5625C8.33122 1.5625 6.69992 2.05735 5.31238 2.98448C3.92484 3.9116 2.84338 5.22936 2.20477 6.77111C1.56616 8.31286 1.39907 10.0094 1.72463 11.6461C2.05019 13.2828 2.85379 14.7862 4.03379 15.9662C5.2138 17.1462 6.71721 17.9498 8.35393 18.2754C9.99064 18.6009 11.6871 18.4338 13.2289 17.7952C14.7706 17.1566 16.0884 16.0752 17.0155 14.6876C17.9427 13.3001 18.4375 11.6688 18.4375 10C18.435 7.763 17.5453 5.61833 15.9635 4.03653C14.3817 2.45473 12.237 1.56498 10 1.5625ZM6.21641 15.357C6.65163 14.7619 7.22107 14.2779 7.87849 13.9442C8.5359 13.6106 9.26276 13.4367 10 13.4367C10.7373 13.4367 11.4641 13.6106 12.1215 13.9442C12.7789 14.2779 13.3484 14.7619 13.7836 15.357C12.6778 16.1412 11.3556 16.5625 10 16.5625C8.64436 16.5625 7.32221 16.1412 6.21641 15.357ZM7.8125 9.375C7.8125 8.94235 7.9408 8.51942 8.18116 8.15969C8.42153 7.79996 8.76317 7.51958 9.16288 7.35401C9.5626 7.18845 10.0024 7.14513 10.4268 7.22953C10.8511 7.31394 11.2409 7.52228 11.5468 7.8282C11.8527 8.13413 12.0611 8.52391 12.1455 8.94824C12.2299 9.37257 12.1866 9.81241 12.021 10.2121C11.8554 10.6118 11.575 10.9535 11.2153 11.1938C10.8556 11.4342 10.4327 11.5625 10 11.5625C9.41984 11.5625 8.86344 11.332 8.45321 10.9218C8.04297 10.5116 7.8125 9.95516 7.8125 9.375ZM15.1563 14.0578C14.5486 13.2849 13.7741 12.6595 12.8906 12.2281C13.4537 11.658 13.8355 10.934 13.9881 10.1474C14.1408 9.36074 14.0573 8.54653 13.7484 7.80718C13.4394 7.06783 12.9187 6.43637 12.2517 5.99223C11.5847 5.5481 10.8013 5.31112 10 5.31112C9.19869 5.31112 8.41528 5.5481 7.74831 5.99223C7.08135 6.43637 6.56062 7.06783 6.25165 7.80718C5.94267 8.54653 5.85925 9.36074 6.01187 10.1474C6.16449 10.934 6.54634 11.658 7.10938 12.2281C6.22592 12.6595 5.4514 13.2849 4.84375 14.0578C4.08051 13.0903 3.60512 11.9274 3.472 10.7022C3.33888 9.47711 3.55341 8.23925 4.09104 7.13037C4.62867 6.02148 5.46767 5.08639 6.51199 4.43212C7.55631 3.77786 8.76375 3.43086 9.9961 3.43086C11.2284 3.43086 12.4359 3.77786 13.4802 4.43212C14.5245 5.08639 15.3635 6.02148 15.9012 7.13037C16.4388 8.23925 16.6533 9.47711 16.5202 10.7022C16.3871 11.9274 15.9117 13.0903 15.1484 14.0578H15.1563Z" fill="#191F2E"/>
</svg>
