<svg width="20" height="20" viewBox="0 0 20 20" fill="none" xmlns="http://www.w3.org/2000/svg">
<path d="M13.4375 9.375C13.4375 10.0549 13.2359 10.7195 12.8582 11.2848C12.4805 11.8501 11.9436 12.2907 11.3155 12.5508C10.6874 12.811 9.99619 12.8791 9.32938 12.7464C8.66257 12.6138 8.05006 12.2864 7.56932 11.8057C7.08858 11.3249 6.76119 10.7124 6.62855 10.0456C6.49591 9.37881 6.56399 8.68765 6.82416 8.05953C7.08434 7.4314 7.52493 6.89454 8.09023 6.51682C8.65552 6.13911 9.32013 5.9375 10 5.9375C10.9117 5.9375 11.786 6.29966 12.4307 6.94432C13.0753 7.58898 13.4375 8.46332 13.4375 9.375ZM17.5 3.75V16.25C17.5 16.5815 17.3683 16.8995 17.1339 17.1339C16.8995 17.3683 16.5815 17.5 16.25 17.5H3.75C3.41848 17.5 3.10054 17.3683 2.86612 17.1339C2.6317 16.8995 2.5 16.5815 2.5 16.25V3.75C2.5 3.41848 2.6317 3.10054 2.86612 2.86612C3.10054 2.6317 3.41848 2.5 3.75 2.5H16.25C16.5815 2.5 16.8995 2.6317 17.1339 2.86612C17.3683 3.10054 17.5 3.41848 17.5 3.75ZM16.25 16.25V3.75H3.75V16.25H4.03672C4.40875 15.0761 5.11688 14.0372 6.07344 13.2617C6.23385 13.1326 6.39948 13.0122 6.57031 12.9008C6.62723 12.8636 6.69471 12.846 6.76252 12.8507C6.83034 12.8553 6.89478 12.882 6.94609 12.9266C7.79485 13.6593 8.87874 14.0624 10 14.0624C11.1213 14.0624 12.2052 13.6593 13.0539 12.9266C13.1052 12.882 13.1697 12.8553 13.2375 12.8507C13.3053 12.846 13.3728 12.8636 13.4297 12.9008C13.6005 13.0128 13.7661 13.1331 13.9266 13.2617C14.8831 14.0372 15.5912 15.0761 15.9633 16.25H16.25Z" fill="#191F2E"/>
</svg>
