<svg width="20" height="20" viewBox="0 0 20 20" fill="none" xmlns="http://www.w3.org/2000/svg">
<path d="M13.2477 3.60234C13.3246 3.36595 13.4922 3.16978 13.7137 3.05698C13.9352 2.94417 14.1925 2.92395 14.4289 3.00078L14.6875 3.08438V2.8125C14.6875 2.56386 14.7863 2.3254 14.9621 2.14959C15.1379 1.97377 15.3764 1.875 15.625 1.875C15.8736 1.875 16.1121 1.97377 16.2879 2.14959C16.4637 2.3254 16.5625 2.56386 16.5625 2.8125V3.08438L16.8211 3.00078C16.9388 2.96012 17.0635 2.94332 17.1878 2.95137C17.3121 2.95941 17.4335 2.99215 17.545 3.04766C17.6565 3.10316 17.7558 3.18033 17.8372 3.27466C17.9185 3.36898 17.9802 3.47857 18.0187 3.59701C18.0573 3.71546 18.0718 3.8404 18.0615 3.96452C18.0512 4.08864 18.0162 4.20947 17.9587 4.31994C17.9011 4.43041 17.8222 4.52831 17.7264 4.60791C17.6306 4.68752 17.5199 4.74724 17.4008 4.78359L17.1422 4.86797L17.2984 5.08828C17.3749 5.18758 17.4306 5.30119 17.4624 5.42239C17.4941 5.5436 17.5013 5.66994 17.4834 5.79396C17.4655 5.91797 17.4229 6.03714 17.3582 6.14443C17.2935 6.25171 17.2079 6.34492 17.1065 6.41857C17.0051 6.49221 16.89 6.54478 16.768 6.57318C16.6459 6.60157 16.5194 6.60522 16.396 6.5839C16.2725 6.56257 16.1545 6.51672 16.0491 6.44904C15.9436 6.38135 15.8528 6.29322 15.782 6.18984L15.625 5.97031L15.4688 6.18984C15.3979 6.29322 15.3071 6.38135 15.2017 6.44904C15.0962 6.51672 14.9783 6.56257 14.8548 6.5839C14.7314 6.60522 14.6049 6.60157 14.4828 6.57318C14.3608 6.54478 14.2457 6.49221 14.1443 6.41857C14.0429 6.34492 13.9573 6.25171 13.8926 6.14443C13.8279 6.03714 13.7853 5.91797 13.7674 5.79396C13.7495 5.66994 13.7566 5.5436 13.7884 5.42239C13.8202 5.30119 13.8759 5.18758 13.9523 5.08828L14.1086 4.86797L13.85 4.78359C13.7329 4.74559 13.6244 4.68489 13.5307 4.60496C13.4371 4.52503 13.3601 4.42743 13.3042 4.31774C13.2482 4.20804 13.2144 4.08841 13.2047 3.96566C13.1951 3.84291 13.2096 3.71946 13.2477 3.60234ZM18.4375 10C18.4375 11.6688 17.9427 13.3001 17.0155 14.6876C16.0884 16.0752 14.7706 17.1566 13.2289 17.7952C11.6871 18.4338 9.99064 18.6009 8.35393 18.2754C6.71721 17.9498 5.2138 17.1462 4.03379 15.9662C2.85378 14.7862 2.05019 13.2828 1.72463 11.6461C1.39907 10.0094 1.56616 8.31286 2.20477 6.77111C2.84338 5.22936 3.92484 3.9116 5.31238 2.98448C6.69992 2.05735 8.33122 1.5625 10 1.5625C10.4712 1.5624 10.9415 1.60134 11.4063 1.67891C11.6515 1.72035 11.8702 1.8575 12.0143 2.0602C12.1584 2.2629 12.2161 2.51454 12.1746 2.75977C12.1332 3.00499 11.996 3.2237 11.7933 3.3678C11.5906 3.51189 11.339 3.56957 11.0938 3.52813C10.7323 3.46779 10.3665 3.43748 10 3.4375C8.76806 3.43667 7.56079 3.78287 6.51651 4.43644C5.47223 5.09001 4.63316 6.02452 4.09544 7.13292C3.55771 8.24131 3.34307 9.47876 3.47611 10.7035C3.60915 11.9282 4.08448 13.0907 4.84766 14.0578C5.45531 13.2849 6.22982 12.6595 7.11328 12.2281C6.55025 11.658 6.1684 10.934 6.01578 10.1474C5.86316 9.36074 5.94658 8.54653 6.25556 7.80718C6.56453 7.06783 7.08525 6.43637 7.75222 5.99223C8.41918 5.5481 9.2026 5.31112 10.0039 5.31112C10.8052 5.31112 11.5886 5.5481 12.2556 5.99223C12.9226 6.43637 13.4433 7.06783 13.7523 7.80718C14.0612 8.54653 14.1447 9.36074 13.992 10.1474C13.8394 10.934 13.4576 11.658 12.8945 12.2281C13.778 12.6595 14.5525 13.2849 15.1602 14.0578C16.0717 12.902 16.5659 11.472 16.5625 10C16.5625 9.63354 16.5321 9.26772 16.4719 8.90625C16.4304 8.66103 16.4881 8.40939 16.6322 8.20669C16.7763 8.00399 16.995 7.86683 17.2402 7.82539C17.4855 7.78395 17.7371 7.84162 17.9398 7.98572C18.1425 8.12981 18.2797 8.34853 18.3211 8.59375C18.3987 9.05847 18.4377 9.52884 18.4375 10ZM10 11.5625C10.4326 11.5625 10.8556 11.4342 11.2153 11.1938C11.575 10.9535 11.8554 10.6118 12.021 10.2121C12.1866 9.81241 12.2299 9.37257 12.1455 8.94824C12.0611 8.52391 11.8527 8.13413 11.5468 7.8282C11.2409 7.52228 10.8511 7.31394 10.4268 7.22953C10.0024 7.14513 9.5626 7.18845 9.16288 7.35401C8.76317 7.51958 8.42153 7.79996 8.18116 8.15969C7.9408 8.51942 7.8125 8.94235 7.8125 9.375C7.8125 9.95516 8.04297 10.5116 8.45321 10.9218C8.86344 11.332 9.41984 11.5625 10 11.5625ZM10 16.5625C11.3558 16.5635 12.6782 16.1421 13.7836 15.357C13.3484 14.7619 12.7789 14.2779 12.1215 13.9442C11.4641 13.6106 10.7373 13.4367 10 13.4367C9.26275 13.4367 8.5359 13.6106 7.87848 13.9442C7.22107 14.2779 6.65162 14.7619 6.21641 15.357C7.32176 16.1421 8.6442 16.5635 10 16.5625Z" fill="#191F2E"/>
</svg>
