<svg width="20" height="20" viewBox="0 0 20 20" fill="none" xmlns="http://www.w3.org/2000/svg">
<path d="M11.25 6.24996C11.25 6.0842 11.3158 5.92523 11.433 5.80801C11.5503 5.6908 11.7092 5.62496 11.875 5.62496H19.375C19.5408 5.62496 19.6997 5.6908 19.8169 5.80801C19.9341 5.92523 20 6.0842 20 6.24996C20 6.41572 19.9341 6.57469 19.8169 6.6919C19.6997 6.80911 19.5408 6.87496 19.375 6.87496H11.875C11.7092 6.87496 11.5503 6.80911 11.433 6.6919C11.3158 6.57469 11.25 6.41572 11.25 6.24996ZM19.375 9.37496H11.875C11.7092 9.37496 11.5503 9.4408 11.433 9.55801C11.3158 9.67522 11.25 9.8342 11.25 9.99996C11.25 10.1657 11.3158 10.3247 11.433 10.4419C11.5503 10.5591 11.7092 10.625 11.875 10.625H19.375C19.5408 10.625 19.6997 10.5591 19.8169 10.4419C19.9341 10.3247 20 10.1657 20 9.99996C20 9.8342 19.9341 9.67522 19.8169 9.55801C19.6997 9.4408 19.5408 9.37496 19.375 9.37496ZM19.375 13.125H13.75C13.5842 13.125 13.4253 13.1908 13.308 13.308C13.1908 13.4252 13.125 13.5842 13.125 13.75C13.125 13.9157 13.1908 14.0747 13.308 14.1919C13.4253 14.3091 13.5842 14.375 13.75 14.375H19.375C19.5408 14.375 19.6997 14.3091 19.8169 14.1919C19.9341 14.0747 20 13.9157 20 13.75C20 13.5842 19.9341 13.4252 19.8169 13.308C19.6997 13.1908 19.5408 13.125 19.375 13.125ZM11.8555 14.8437C11.8759 14.9232 11.8805 15.006 11.8689 15.0873C11.8573 15.1685 11.8299 15.2467 11.7881 15.3174C11.7463 15.3881 11.691 15.4498 11.6254 15.4991C11.5597 15.5484 11.485 15.5842 11.4055 15.6046C11.3545 15.6184 11.302 15.6252 11.2492 15.625C11.1106 15.625 10.9759 15.579 10.8663 15.4942C10.7567 15.4093 10.6784 15.2904 10.6437 15.1562C10.1625 13.2859 8.27343 11.875 6.24921 11.875C4.22499 11.875 2.33593 13.2851 1.85468 15.1562C1.81324 15.3168 1.7097 15.4543 1.56685 15.5386C1.424 15.6228 1.25354 15.6469 1.09296 15.6054C0.932378 15.564 0.794837 15.4605 0.710592 15.3176C0.626347 15.1748 0.602299 15.0043 0.643739 14.8437C1.08046 13.1476 2.34999 11.7742 3.96093 11.0937C3.34064 10.6159 2.88545 9.95601 2.6592 9.20646C2.43294 8.45691 2.44697 7.65534 2.69932 6.91417C2.95167 6.17299 3.42968 5.52939 4.06631 5.07363C4.70294 4.61787 5.46625 4.3728 6.24921 4.3728C7.03216 4.3728 7.79548 4.61787 8.43211 5.07363C9.06874 5.52939 9.54675 6.17299 9.7991 6.91417C10.0514 7.65534 10.0655 8.45691 9.83922 9.20646C9.61297 9.95601 9.15778 10.6159 8.53749 11.0937C10.1492 11.7742 11.4187 13.1476 11.8555 14.8437ZM6.24999 10.625C6.74444 10.625 7.22779 10.4783 7.63892 10.2036C8.05004 9.92893 8.37047 9.53848 8.55969 9.08167C8.74891 8.62485 8.79842 8.12218 8.70195 7.63723C8.60549 7.15228 8.36739 6.70682 8.01776 6.35719C7.66813 6.00756 7.22267 5.76946 6.73772 5.67299C6.25276 5.57653 5.7501 5.62604 5.29328 5.81526C4.83647 6.00448 4.44602 6.32491 4.17132 6.73603C3.89661 7.14715 3.74999 7.6305 3.74999 8.12496C3.74999 8.788 4.01338 9.42388 4.48222 9.89272C4.95106 10.3616 5.58695 10.625 6.24999 10.625Z" fill="#191F2E"/>
</svg>
