<svg width="20" height="20" viewBox="0 0 20 20" fill="none" xmlns="http://www.w3.org/2000/svg">
<path d="M19.7742 8.76406L16.2141 4.61641C16.0676 4.44257 15.8848 4.3029 15.6785 4.20721C15.4723 4.11152 15.2477 4.06213 15.0203 4.0625H2.5C2.0856 4.0625 1.68817 4.22712 1.39515 4.52015C1.10212 4.81317 0.9375 5.2106 0.9375 5.625V14.375C0.9375 14.7894 1.10212 15.1868 1.39515 15.4799C1.68817 15.7729 2.0856 15.9375 2.5 15.9375H3.59844C3.79234 16.4858 4.15145 16.9605 4.62631 17.2962C5.10117 17.632 5.66844 17.8123 6.25 17.8123C6.83156 17.8123 7.39883 17.632 7.87369 17.2962C8.34855 16.9605 8.70766 16.4858 8.90156 15.9375H12.0359C12.2298 16.4858 12.5889 16.9605 13.0638 17.2962C13.5387 17.632 14.1059 17.8123 14.6875 17.8123C15.2691 17.8123 15.8363 17.632 16.3112 17.2962C16.7861 16.9605 17.1452 16.4858 17.3391 15.9375H18.4375C18.8519 15.9375 19.2493 15.7729 19.5424 15.4799C19.8354 15.1868 20 14.7894 20 14.375V9.375C19.9998 9.15098 19.9198 8.93436 19.7742 8.76406ZM17.0227 8.4375H13.75V5.9375H14.8766L17.0227 8.4375ZM8.125 8.4375V5.9375H11.875V8.4375H8.125ZM6.25 5.9375V8.4375H2.8125V5.9375H6.25ZM6.25 15.9375C6.06458 15.9375 5.88332 15.8825 5.72915 15.7795C5.57498 15.6765 5.45482 15.5301 5.38386 15.3588C5.31291 15.1875 5.29434 14.999 5.33051 14.8171C5.36669 14.6352 5.45598 14.4682 5.58709 14.3371C5.7182 14.206 5.88525 14.1167 6.0671 14.0805C6.24896 14.0443 6.43746 14.0629 6.60877 14.1339C6.78007 14.2048 6.92649 14.325 7.0295 14.4792C7.13252 14.6333 7.1875 14.8146 7.1875 15C7.1875 15.2486 7.08873 15.4871 6.91291 15.6629C6.7371 15.8387 6.49864 15.9375 6.25 15.9375ZM14.6875 15.9375C14.5021 15.9375 14.3208 15.8825 14.1667 15.7795C14.0125 15.6765 13.8923 15.5301 13.8214 15.3588C13.7504 15.1875 13.7318 14.999 13.768 14.8171C13.8042 14.6352 13.8935 14.4682 14.0246 14.3371C14.1557 14.206 14.3227 14.1167 14.5046 14.0805C14.6865 14.0443 14.875 14.0629 15.0463 14.1339C15.2176 14.2048 15.364 14.325 15.467 14.4792C15.57 14.6333 15.625 14.8146 15.625 15C15.625 15.2486 15.5262 15.4871 15.3504 15.6629C15.1746 15.8387 14.9361 15.9375 14.6875 15.9375ZM17.3391 14.0625C17.1452 13.5142 16.7861 13.0395 16.3112 12.7038C15.8363 12.368 15.2691 12.1878 14.6875 12.1878C14.1059 12.1878 13.5387 12.368 13.0638 12.7038C12.5889 13.0395 12.2298 13.5142 12.0359 14.0625H8.90156C8.70766 13.5142 8.34855 13.0395 7.87369 12.7038C7.39883 12.368 6.83156 12.1878 6.25 12.1878C5.66844 12.1878 5.10117 12.368 4.62631 12.7038C4.15145 13.0395 3.79234 13.5142 3.59844 14.0625H2.8125V10.3125H18.125V14.0625H17.3391Z" fill="#191F2E"/>
</svg>
