<svg width="20" height="20" viewBox="0 0 20 20" fill="none" xmlns="http://www.w3.org/2000/svg">
<path d="M19.8492 8.96797L16.2914 4.82266C16.1741 4.68249 16.0274 4.56976 15.8618 4.49241C15.6962 4.41507 15.5156 4.37499 15.3328 4.375H2.5C2.16848 4.375 1.85054 4.5067 1.61612 4.74112C1.3817 4.97554 1.25 5.29348 1.25 5.625V14.375C1.25 14.7065 1.3817 15.0245 1.61612 15.2589C1.85054 15.4933 2.16848 15.625 2.5 15.625H3.82812C3.96581 16.1628 4.27856 16.6394 4.71707 16.9798C5.15557 17.3202 5.69489 17.5049 6.25 17.5049C6.80511 17.5049 7.34443 17.3202 7.78293 16.9798C8.22144 16.6394 8.53419 16.1628 8.67188 15.625H12.5781C12.7158 16.1628 13.0286 16.6394 13.4671 16.9798C13.9056 17.3202 14.4449 17.5049 15 17.5049C15.5551 17.5049 16.0944 17.3202 16.5329 16.9798C16.9714 16.6394 17.2842 16.1628 17.4219 15.625H18.75C19.0815 15.625 19.3995 15.4933 19.6339 15.2589C19.8683 15.0245 20 14.7065 20 14.375V9.375C20 9.22567 19.9465 9.08128 19.8492 8.96797ZM18.0148 8.75H13.75V5.625H15.3328L18.0148 8.75ZM8.125 8.75V5.625H12.5V8.75H8.125ZM6.875 5.625V8.75H2.5V5.625H6.875ZM6.25 16.25C6.00277 16.25 5.7611 16.1767 5.55554 16.0393C5.34998 15.902 5.18976 15.7068 5.09515 15.4784C5.00054 15.2499 4.97579 14.9986 5.02402 14.7561C5.07225 14.5137 5.1913 14.2909 5.36612 14.1161C5.54093 13.9413 5.76366 13.8222 6.00614 13.774C6.24861 13.7258 6.49995 13.7505 6.72835 13.8451C6.95676 13.9398 7.15199 14.1 7.28934 14.3055C7.42669 14.5111 7.5 14.7528 7.5 15C7.5 15.3315 7.3683 15.6495 7.13388 15.8839C6.89946 16.1183 6.58152 16.25 6.25 16.25ZM15 16.25C14.7528 16.25 14.5111 16.1767 14.3055 16.0393C14.1 15.902 13.9398 15.7068 13.8451 15.4784C13.7505 15.2499 13.7258 14.9986 13.774 14.7561C13.8222 14.5137 13.9413 14.2909 14.1161 14.1161C14.2909 13.9413 14.5137 13.8222 14.7561 13.774C14.9986 13.7258 15.2499 13.7505 15.4784 13.8451C15.7068 13.9398 15.902 14.1 16.0393 14.3055C16.1767 14.5111 16.25 14.7528 16.25 15C16.25 15.3315 16.1183 15.6495 15.8839 15.8839C15.6495 16.1183 15.3315 16.25 15 16.25ZM17.4219 14.375C17.2842 13.8372 16.9714 13.3606 16.5329 13.0202C16.0944 12.6798 15.5551 12.4951 15 12.4951C14.4449 12.4951 13.9056 12.6798 13.4671 13.0202C13.0286 13.3606 12.7158 13.8372 12.5781 14.375H8.67188C8.53419 13.8372 8.22144 13.3606 7.78293 13.0202C7.34443 12.6798 6.80511 12.4951 6.25 12.4951C5.69489 12.4951 5.15557 12.6798 4.71707 13.0202C4.27856 13.3606 3.96581 13.8372 3.82812 14.375H2.5V10H18.75V14.375H17.4219Z" fill="#191F2E"/>
</svg>
