<svg width="20" height="20" viewBox="0 0 20 20" fill="none" xmlns="http://www.w3.org/2000/svg">
<path d="M16.875 2.8125H3.125C2.7106 2.8125 2.31317 2.97712 2.02015 3.27015C1.72712 3.56317 1.5625 3.9606 1.5625 4.375V15C1.5625 15.4144 1.72712 15.8118 2.02015 16.1049C2.31317 16.3979 2.7106 16.5625 3.125 16.5625H4.0625V17.5C4.0625 17.7486 4.16127 17.9871 4.33709 18.1629C4.5129 18.3387 4.75136 18.4375 5 18.4375C5.24864 18.4375 5.4871 18.3387 5.66291 18.1629C5.83873 17.9871 5.9375 17.7486 5.9375 17.5V16.5625H14.0625V17.5C14.0625 17.7486 14.1613 17.9871 14.3371 18.1629C14.5129 18.3387 14.7514 18.4375 15 18.4375C15.2486 18.4375 15.4871 18.3387 15.6629 18.1629C15.8387 17.9871 15.9375 17.7486 15.9375 17.5V16.5625H16.875C17.2894 16.5625 17.6868 16.3979 17.9799 16.1049C18.2729 15.8118 18.4375 15.4144 18.4375 15V4.375C18.4375 3.9606 18.2729 3.56317 17.9799 3.27015C17.6868 2.97712 17.2894 2.8125 16.875 2.8125ZM3.4375 14.6875V4.6875H16.5625V9.0625H14.8688C14.6425 8.26426 14.1351 7.57479 13.4403 7.12133C12.7455 6.66786 11.9101 6.48101 11.0883 6.59523C10.2665 6.70946 9.51376 7.11707 8.96895 7.74284C8.42415 8.3686 8.12406 9.1703 8.12406 10C8.12406 10.8297 8.42415 11.6314 8.96895 12.2572C9.51376 12.8829 10.2665 13.2905 11.0883 13.4048C11.9101 13.519 12.7455 13.3321 13.4403 12.8787C14.1351 12.4252 14.6425 11.7357 14.8688 10.9375H16.5625V14.6875H3.4375ZM13.125 10C13.125 10.309 13.0334 10.6111 12.8617 10.8681C12.69 11.125 12.446 11.3253 12.1604 11.4436C11.8749 11.5618 11.5608 11.5928 11.2577 11.5325C10.9546 11.4722 10.6762 11.3234 10.4576 11.1049C10.2391 10.8863 10.0903 10.6079 10.03 10.3048C9.96973 10.0017 10.0007 9.68757 10.1189 9.40206C10.2372 9.11655 10.4375 8.87252 10.6944 8.70083C10.9514 8.52914 11.2535 8.4375 11.5625 8.4375C11.9769 8.4375 12.3743 8.60212 12.6674 8.89515C12.9604 9.18817 13.125 9.5856 13.125 10Z" fill="#191F2E"/>
</svg>
