<svg width="20" height="20" viewBox="0 0 20 20" fill="none" xmlns="http://www.w3.org/2000/svg">
<path d="M12.5 2.5H7.5C7.00272 2.5 6.52581 2.69754 6.17417 3.04917C5.82254 3.40081 5.625 3.87772 5.625 4.375V15.625C5.625 16.1223 5.82254 16.5992 6.17417 16.9508C6.52581 17.3025 7.00272 17.5 7.5 17.5H12.5C12.9973 17.5 13.4742 17.3025 13.8258 16.9508C14.1775 16.5992 14.375 16.1223 14.375 15.625V4.375C14.375 3.87772 14.1775 3.40081 13.8258 3.04917C13.4742 2.69754 12.9973 2.5 12.5 2.5ZM13.125 15.625C13.125 15.7908 13.0592 15.9497 12.9419 16.0669C12.8247 16.1842 12.6658 16.25 12.5 16.25H7.5C7.33424 16.25 7.17527 16.1842 7.05806 16.0669C6.94085 15.9497 6.875 15.7908 6.875 15.625V4.375C6.875 4.20924 6.94085 4.05027 7.05806 3.93306C7.17527 3.81585 7.33424 3.75 7.5 3.75H12.5C12.6658 3.75 12.8247 3.81585 12.9419 3.93306C13.0592 4.05027 13.125 4.20924 13.125 4.375V15.625ZM16.875 6.875V13.125C16.875 13.2908 16.8092 13.4497 16.6919 13.5669C16.5747 13.6842 16.4158 13.75 16.25 13.75C16.0842 13.75 15.9253 13.6842 15.8081 13.5669C15.6908 13.4497 15.625 13.2908 15.625 13.125V6.875C15.625 6.70924 15.6908 6.55027 15.8081 6.43306C15.9253 6.31585 16.0842 6.25 16.25 6.25C16.4158 6.25 16.5747 6.31585 16.6919 6.43306C16.8092 6.55027 16.875 6.70924 16.875 6.875ZM19.375 8.125V11.875C19.375 12.0408 19.3092 12.1997 19.1919 12.3169C19.0747 12.4342 18.9158 12.5 18.75 12.5C18.5842 12.5 18.4253 12.4342 18.3081 12.3169C18.1908 12.1997 18.125 12.0408 18.125 11.875V8.125C18.125 7.95924 18.1908 7.80027 18.3081 7.68306C18.4253 7.56585 18.5842 7.5 18.75 7.5C18.9158 7.5 19.0747 7.56585 19.1919 7.68306C19.3092 7.80027 19.375 7.95924 19.375 8.125ZM4.375 6.875V13.125C4.375 13.2908 4.30915 13.4497 4.19194 13.5669C4.07473 13.6842 3.91576 13.75 3.75 13.75C3.58424 13.75 3.42527 13.6842 3.30806 13.5669C3.19085 13.4497 3.125 13.2908 3.125 13.125V6.875C3.125 6.70924 3.19085 6.55027 3.30806 6.43306C3.42527 6.31585 3.58424 6.25 3.75 6.25C3.91576 6.25 4.07473 6.31585 4.19194 6.43306C4.30915 6.55027 4.375 6.70924 4.375 6.875ZM1.875 8.125V11.875C1.875 12.0408 1.80915 12.1997 1.69194 12.3169C1.57473 12.4342 1.41576 12.5 1.25 12.5C1.08424 12.5 0.925268 12.4342 0.808058 12.3169C0.690848 12.1997 0.625 12.0408 0.625 11.875V8.125C0.625 7.95924 0.690848 7.80027 0.808058 7.68306C0.925268 7.56585 1.08424 7.5 1.25 7.5C1.41576 7.5 1.57473 7.56585 1.69194 7.68306C1.80915 7.80027 1.875 7.95924 1.875 8.125Z" fill="#191F2E"/>
</svg>
