<svg width="20" height="20" viewBox="0 0 20 20" fill="none" xmlns="http://www.w3.org/2000/svg">
<path d="M12.8125 2.1875H7.1875C6.60734 2.1875 6.05094 2.41797 5.6407 2.8282C5.23047 3.23844 5 3.79484 5 4.375V15.625C5 16.2052 5.23047 16.7616 5.6407 17.1718C6.05094 17.582 6.60734 17.8125 7.1875 17.8125H12.8125C13.3927 17.8125 13.9491 17.582 14.3593 17.1718C14.7695 16.7616 15 16.2052 15 15.625V4.375C15 3.79484 14.7695 3.23844 14.3593 2.8282C13.9491 2.41797 13.3927 2.1875 12.8125 2.1875ZM13.125 15.625C13.125 15.7079 13.0921 15.7874 13.0335 15.846C12.9749 15.9046 12.8954 15.9375 12.8125 15.9375H7.1875C7.10462 15.9375 7.02513 15.9046 6.96653 15.846C6.90792 15.7874 6.875 15.7079 6.875 15.625V4.375C6.875 4.29212 6.90792 4.21263 6.96653 4.15403C7.02513 4.09542 7.10462 4.0625 7.1875 4.0625H12.8125C12.8954 4.0625 12.9749 4.09542 13.0335 4.15403C13.0921 4.21263 13.125 4.29212 13.125 4.375V15.625ZM18.125 7.8125V12.1875C18.125 12.4361 18.0262 12.6746 17.8504 12.8504C17.6746 13.0262 17.4361 13.125 17.1875 13.125C16.9389 13.125 16.7004 13.0262 16.5246 12.8504C16.3488 12.6746 16.25 12.4361 16.25 12.1875V7.8125C16.25 7.56386 16.3488 7.3254 16.5246 7.14959C16.7004 6.97377 16.9389 6.875 17.1875 6.875C17.4361 6.875 17.6746 6.97377 17.8504 7.14959C18.0262 7.3254 18.125 7.56386 18.125 7.8125ZM3.75 7.8125V12.1875C3.75 12.4361 3.65123 12.6746 3.47541 12.8504C3.2996 13.0262 3.06114 13.125 2.8125 13.125C2.56386 13.125 2.3254 13.0262 2.14959 12.8504C1.97377 12.6746 1.875 12.4361 1.875 12.1875V7.8125C1.875 7.56386 1.97377 7.3254 2.14959 7.14959C2.3254 6.97377 2.56386 6.875 2.8125 6.875C3.06114 6.875 3.2996 6.97377 3.47541 7.14959C3.65123 7.3254 3.75 7.56386 3.75 7.8125Z" fill="#191F2E"/>
</svg>
