<svg width="20" height="20" viewBox="0 0 20 20" fill="none" xmlns="http://www.w3.org/2000/svg">
<path d="M12.5 2.5H7.5C6.46447 2.5 5.625 3.33947 5.625 4.375V15.625C5.625 16.6605 6.46447 17.5 7.5 17.5H12.5C13.5355 17.5 14.375 16.6605 14.375 15.625V4.375C14.375 3.33947 13.5355 2.5 12.5 2.5Z" fill="#191F2E"/>
<path d="M16.25 6.25C16.0842 6.25 15.9253 6.31585 15.8081 6.43306C15.6908 6.55027 15.625 6.70924 15.625 6.875V13.125C15.625 13.2908 15.6908 13.4497 15.8081 13.5669C15.9253 13.6842 16.0842 13.75 16.25 13.75C16.4158 13.75 16.5747 13.6842 16.6919 13.5669C16.8092 13.4497 16.875 13.2908 16.875 13.125V6.875C16.875 6.70924 16.8092 6.55027 16.6919 6.43306C16.5747 6.31585 16.4158 6.25 16.25 6.25Z" fill="#191F2E"/>
<path d="M18.75 7.5C18.5842 7.5 18.4253 7.56585 18.3081 7.68306C18.1908 7.80027 18.125 7.95924 18.125 8.125V11.875C18.125 12.0408 18.1908 12.1997 18.3081 12.3169C18.4253 12.4342 18.5842 12.5 18.75 12.5C18.9158 12.5 19.0747 12.4342 19.1919 12.3169C19.3092 12.1997 19.375 12.0408 19.375 11.875V8.125C19.375 7.95924 19.3092 7.80027 19.1919 7.68306C19.0747 7.56585 18.9158 7.5 18.75 7.5Z" fill="#191F2E"/>
<path d="M3.75 6.25C3.58424 6.25 3.42527 6.31585 3.30806 6.43306C3.19085 6.55027 3.125 6.70924 3.125 6.875V13.125C3.125 13.2908 3.19085 13.4497 3.30806 13.5669C3.42527 13.6842 3.58424 13.75 3.75 13.75C3.91576 13.75 4.07473 13.6842 4.19194 13.5669C4.30915 13.4497 4.375 13.2908 4.375 13.125V6.875C4.375 6.70924 4.30915 6.55027 4.19194 6.43306C4.07473 6.31585 3.91576 6.25 3.75 6.25Z" fill="#191F2E"/>
<path d="M1.25 7.5C1.08424 7.5 0.925268 7.56585 0.808058 7.68306C0.690848 7.80027 0.625 7.95924 0.625 8.125V11.875C0.625 12.0408 0.690848 12.1997 0.808058 12.3169C0.925268 12.4342 1.08424 12.5 1.25 12.5C1.41576 12.5 1.57473 12.4342 1.69194 12.3169C1.80915 12.1997 1.875 12.0408 1.875 11.875V8.125C1.875 7.95924 1.80915 7.80027 1.69194 7.68306C1.57473 7.56585 1.41576 7.5 1.25 7.5Z" fill="#191F2E"/>
</svg>
