<svg width="20" height="20" viewBox="0 0 20 20" fill="none" xmlns="http://www.w3.org/2000/svg">
<path d="M19.4883 5.41484C19.334 5.33639 19.1611 5.30217 18.9886 5.31596C18.8161 5.32975 18.6508 5.39101 18.5109 5.49297L16.5625 6.90859V5.625C16.5625 5.2106 16.3979 4.81317 16.1049 4.52015C15.8118 4.22712 15.4144 4.0625 15 4.0625H2.5C2.0856 4.0625 1.68817 4.22712 1.39515 4.52015C1.10212 4.81317 0.9375 5.2106 0.9375 5.625V14.375C0.9375 14.7894 1.10212 15.1868 1.39515 15.4799C1.68817 15.7729 2.0856 15.9375 2.5 15.9375H15C15.4144 15.9375 15.8118 15.7729 16.1049 15.4799C16.3979 15.1868 16.5625 14.7894 16.5625 14.375V13.0914L18.5109 14.5086C18.6508 14.6104 18.8161 14.6715 18.9886 14.6851C19.1611 14.6987 19.3339 14.6644 19.4881 14.5859C19.6422 14.5073 19.7716 14.3877 19.862 14.2402C19.9523 14.0926 20.0001 13.923 20 13.75V6.25C20 6.07715 19.9522 5.90767 19.8619 5.76028C19.7716 5.6129 19.6423 5.49335 19.4883 5.41484ZM14.6875 14.0625H2.8125V5.9375H14.6875V14.0625ZM18.125 11.9086L16.5625 10.7727V9.22734L18.125 8.09141V11.9086Z" fill="#191F2E"/>
</svg>
