<svg width="20" height="20" viewBox="0 0 20 20" fill="none" xmlns="http://www.w3.org/2000/svg">
<path d="M16.875 2.8125H3.125C2.7106 2.8125 2.31317 2.97712 2.02015 3.27015C1.72712 3.56317 1.5625 3.9606 1.5625 4.375V15.625C1.5625 16.0394 1.72712 16.4368 2.02015 16.7299C2.31317 17.0229 2.7106 17.1875 3.125 17.1875H16.875C17.2894 17.1875 17.6868 17.0229 17.9799 16.7299C18.2729 16.4368 18.4375 16.0394 18.4375 15.625V4.375C18.4375 3.9606 18.2729 3.56317 17.9799 3.27015C17.6868 2.97712 17.2894 2.8125 16.875 2.8125ZM16.5625 15.3125H3.4375V4.6875H16.5625V15.3125ZM6.36172 12.9727C7.34375 13.6758 8.6375 14.0625 10 14.0625C11.3625 14.0625 12.6563 13.6758 13.6383 12.9727C14.7023 12.2125 15.3125 11.1289 15.3125 10C15.3125 8.87109 14.7023 7.7875 13.6383 7.03125C12.6563 6.32812 11.3625 5.9375 10 5.9375C8.6375 5.9375 7.34375 6.32812 6.36172 7.03125C5.29766 7.7875 4.6875 8.87109 4.6875 10C4.6875 11.1289 5.29766 12.2125 6.36172 12.9727ZM10 7.8125C11.8633 7.8125 13.4375 8.81406 13.4375 10C13.4375 11.1859 11.8633 12.1875 10 12.1875C8.13672 12.1875 6.5625 11.1859 6.5625 10C6.5625 8.81406 8.13672 7.8125 10 7.8125Z" fill="#191F2E"/>
</svg>
