<svg width="20" height="20" viewBox="0 0 20 20" fill="none" xmlns="http://www.w3.org/2000/svg">
<path d="M16.875 3.125H3.125C2.79348 3.125 2.47554 3.2567 2.24112 3.49112C2.0067 3.72554 1.875 4.04348 1.875 4.375V15.625C1.875 15.9565 2.0067 16.2745 2.24112 16.5089C2.47554 16.7433 2.79348 16.875 3.125 16.875H16.875C17.2065 16.875 17.5245 16.7433 17.7589 16.5089C17.9933 16.2745 18.125 15.9565 18.125 15.625V4.375C18.125 4.04348 17.9933 3.72554 17.7589 3.49112C17.5245 3.2567 17.2065 3.125 16.875 3.125ZM16.875 15.625H3.125V4.375H16.875V15.625ZM13.9102 6.84844C12.8586 6.05938 11.4695 5.625 10 5.625C8.53047 5.625 7.14141 6.05938 6.09375 6.84844C4.98359 7.67734 4.375 8.79688 4.375 10C4.375 11.2031 4.98359 12.3227 6.09375 13.1516C7.14141 13.9406 8.53047 14.375 10 14.375C11.4695 14.375 12.8586 13.9406 13.9102 13.1516C15.0164 12.3227 15.625 11.2031 15.625 10C15.625 8.79688 15.0164 7.67734 13.9102 6.84844ZM10 13.125C7.5875 13.125 5.625 11.7234 5.625 10C5.625 8.27656 7.5875 6.875 10 6.875C12.4125 6.875 14.375 8.27656 14.375 10C14.375 11.7234 12.4125 13.125 10 13.125Z" fill="#191F2E"/>
</svg>
