<svg width="20" height="20" viewBox="0 0 20 20" fill="none" xmlns="http://www.w3.org/2000/svg">
<path d="M10 1.875C8.39303 1.875 6.82214 2.35152 5.486 3.24431C4.14985 4.1371 3.10844 5.40605 2.49348 6.8907C1.87852 8.37535 1.71762 10.009 2.03112 11.5851C2.34463 13.1612 3.11846 14.6089 4.25476 15.7452C5.39106 16.8815 6.8388 17.6554 8.4149 17.9689C9.99099 18.2824 11.6247 18.1215 13.1093 17.5065C14.594 16.8916 15.8629 15.8502 16.7557 14.514C17.6485 13.1779 18.125 11.607 18.125 10C18.1227 7.84581 17.266 5.78051 15.7427 4.25727C14.2195 2.73403 12.1542 1.87727 10 1.875ZM10 16.875C8.64026 16.875 7.31105 16.4718 6.18046 15.7164C5.04987 14.9609 4.16868 13.8872 3.64833 12.6309C3.12798 11.3747 2.99183 9.99237 3.2571 8.65875C3.52238 7.32513 4.17716 6.10013 5.13864 5.13864C6.10013 4.17716 7.32514 3.52237 8.65876 3.2571C9.99238 2.99183 11.3747 3.12798 12.631 3.64833C13.8872 4.16868 14.9609 5.04987 15.7164 6.18045C16.4718 7.31104 16.875 8.64025 16.875 10C16.8729 11.8227 16.1479 13.5702 14.8591 14.8591C13.5702 16.1479 11.8227 16.8729 10 16.875ZM10 5.625C8.84006 5.62624 7.72798 6.08758 6.90778 6.90778C6.08758 7.72798 5.62624 8.84006 5.625 10C5.625 10.1658 5.55916 10.3247 5.44195 10.4419C5.32473 10.5592 5.16576 10.625 5 10.625C4.83424 10.625 4.67527 10.5592 4.55806 10.4419C4.44085 10.3247 4.375 10.1658 4.375 10C4.37666 8.50867 4.96982 7.07889 6.02436 6.02435C7.07889 4.96982 8.50867 4.37665 10 4.375C10.1658 4.375 10.3247 4.44085 10.4419 4.55806C10.5592 4.67527 10.625 4.83424 10.625 5C10.625 5.16576 10.5592 5.32473 10.4419 5.44194C10.3247 5.55915 10.1658 5.625 10 5.625ZM15.625 10C15.6233 11.4913 15.0302 12.9211 13.9757 13.9756C12.9211 15.0302 11.4913 15.6233 10 15.625C9.83424 15.625 9.67527 15.5592 9.55806 15.4419C9.44085 15.3247 9.375 15.1658 9.375 15C9.375 14.8342 9.44085 14.6753 9.55806 14.5581C9.67527 14.4408 9.83424 14.375 10 14.375C11.1599 14.3738 12.272 13.9124 13.0922 13.0922C13.9124 12.272 14.3738 11.1599 14.375 10C14.375 9.83424 14.4409 9.67527 14.5581 9.55806C14.6753 9.44085 14.8342 9.375 15 9.375C15.1658 9.375 15.3247 9.44085 15.4419 9.55806C15.5592 9.67527 15.625 9.83424 15.625 10ZM12.5 10C12.5 9.50555 12.3534 9.0222 12.0787 8.61107C11.804 8.19995 11.4135 7.87952 10.9567 7.6903C10.4999 7.50108 9.99723 7.45157 9.51228 7.54804C9.02733 7.6445 8.58187 7.8826 8.23224 8.23223C7.88261 8.58186 7.6445 9.02732 7.54804 9.51227C7.45158 9.99723 7.50109 10.4999 7.6903 10.9567C7.87952 11.4135 8.19996 11.804 8.61108 12.0787C9.0222 12.3534 9.50555 12.5 10 12.5C10.663 12.5 11.2989 12.2366 11.7678 11.7678C12.2366 11.2989 12.5 10.663 12.5 10ZM8.75 10C8.75 9.75277 8.82331 9.5111 8.96067 9.30554C9.09802 9.09998 9.29324 8.93976 9.52165 8.84515C9.75006 8.75054 10.0014 8.72579 10.2439 8.77402C10.4863 8.82225 10.7091 8.9413 10.8839 9.11612C11.0587 9.29093 11.1778 9.51366 11.226 9.75614C11.2742 9.99861 11.2495 10.2499 11.1549 10.4784C11.0602 10.7068 10.9 10.902 10.6945 11.0393C10.4889 11.1767 10.2472 11.25 10 11.25C9.66848 11.25 9.35054 11.1183 9.11612 10.8839C8.8817 10.6495 8.75 10.3315 8.75 10Z" fill="#191F2E"/>
</svg>
