<svg width="20" height="20" viewBox="0 0 20 20" fill="none" xmlns="http://www.w3.org/2000/svg">
<path d="M10 1.5625C8.33122 1.5625 6.69992 2.05735 5.31238 2.98448C3.92484 3.9116 2.84338 5.22936 2.20477 6.77111C1.56616 8.31286 1.39907 10.0094 1.72463 11.6461C2.05019 13.2828 2.85379 14.7862 4.03379 15.9662C5.2138 17.1462 6.71721 17.9498 8.35393 18.2754C9.99064 18.6009 11.6871 18.4338 13.2289 17.7952C14.7706 17.1566 16.0884 16.0752 17.0155 14.6876C17.9427 13.3001 18.4375 11.6688 18.4375 10C18.435 7.763 17.5453 5.61833 15.9635 4.03653C14.3817 2.45473 12.237 1.56498 10 1.5625ZM10 16.5625C8.70206 16.5625 7.43327 16.1776 6.35407 15.4565C5.27488 14.7354 4.43374 13.7105 3.93704 12.5114C3.44034 11.3122 3.31038 9.99272 3.5636 8.71972C3.81682 7.44672 4.44183 6.27739 5.35962 5.35961C6.2774 4.44183 7.44672 3.81681 8.71972 3.5636C9.99272 3.31038 11.3122 3.44034 12.5114 3.93704C13.7105 4.43374 14.7354 5.27487 15.4565 6.35407C16.1776 7.43327 16.5625 8.70206 16.5625 10C16.5606 11.7399 15.8686 13.408 14.6383 14.6383C13.408 15.8686 11.7399 16.5606 10 16.5625ZM10 6.875C9.1712 6.875 8.37635 7.20424 7.79029 7.79029C7.20424 8.37634 6.875 9.1712 6.875 10C6.875 10.2486 6.77623 10.4871 6.60042 10.6629C6.4246 10.8387 6.18614 10.9375 5.9375 10.9375C5.68886 10.9375 5.45041 10.8387 5.27459 10.6629C5.09878 10.4871 5 10.2486 5 10C5.00145 8.67436 5.5287 7.40343 6.46607 6.46606C7.40344 5.5287 8.67437 5.00145 10 5C10.2486 5 10.4871 5.09877 10.6629 5.27459C10.8387 5.4504 10.9375 5.68886 10.9375 5.9375C10.9375 6.18614 10.8387 6.4246 10.6629 6.60041C10.4871 6.77623 10.2486 6.875 10 6.875ZM15 10C14.9986 11.3256 14.4713 12.5966 13.5339 13.5339C12.5966 14.4713 11.3256 14.9986 10 15C9.75136 15 9.51291 14.9012 9.33709 14.7254C9.16128 14.5496 9.0625 14.3111 9.0625 14.0625C9.0625 13.8139 9.16128 13.5754 9.33709 13.3996C9.51291 13.2238 9.75136 13.125 10 13.125C10.8288 13.125 11.6237 12.7958 12.2097 12.2097C12.7958 11.6237 13.125 10.8288 13.125 10C13.125 9.75136 13.2238 9.5129 13.3996 9.33709C13.5754 9.16127 13.8139 9.0625 14.0625 9.0625C14.3111 9.0625 14.5496 9.16127 14.7254 9.33709C14.9012 9.5129 15 9.75136 15 10ZM10 11.5625C9.69097 11.5625 9.38888 11.4709 9.13193 11.2992C8.87497 11.1275 8.6747 10.8835 8.55644 10.5979C8.43818 10.3124 8.40724 9.99827 8.46753 9.69517C8.52782 9.39208 8.67663 9.11367 8.89515 8.89515C9.11367 8.67663 9.39208 8.52781 9.69518 8.46752C9.99827 8.40723 10.3124 8.43818 10.5979 8.55644C10.8835 8.6747 11.1275 8.87497 11.2992 9.13192C11.4709 9.38887 11.5625 9.69097 11.5625 10C11.5625 10.4144 11.3979 10.8118 11.1049 11.1049C10.8118 11.3979 10.4144 11.5625 10 11.5625Z" fill="#191F2E"/>
</svg>
