<svg width="20" height="20" viewBox="0 0 20 20" fill="none" xmlns="http://www.w3.org/2000/svg">
<path d="M9.61875 7.85312L7.5875 12.8531C7.51736 13.026 7.39722 13.1741 7.24246 13.2783C7.08769 13.3826 6.90534 13.4382 6.71875 13.4382C6.53216 13.4382 6.34981 13.3826 6.19504 13.2783C6.04028 13.1741 5.92014 13.026 5.85 12.8531L3.81875 7.85312C3.73292 7.62423 3.73989 7.37086 3.83817 7.14704C3.93645 6.92321 4.11828 6.74662 4.34488 6.65492C4.57149 6.56321 4.82495 6.56365 5.05124 6.65613C5.27753 6.74862 5.45874 6.92583 5.55625 7.15L6.71875 10.0094L7.88125 7.14688C7.97876 6.92271 8.15997 6.74549 8.38626 6.65301C8.61255 6.56053 8.86601 6.56009 9.09262 6.65179C9.31922 6.74349 9.50105 6.92008 9.59933 7.14391C9.69761 7.36774 9.70458 7.62111 9.61875 7.85V7.85312ZM20 10C19.9981 11.7399 19.3061 13.408 18.0758 14.6383C16.8455 15.8686 15.1774 16.5606 13.4375 16.5625H6.5625C4.82202 16.5625 3.15282 15.8711 1.92211 14.6404C0.691404 13.4097 0 11.7405 0 10C0 8.25952 0.691404 6.59032 1.92211 5.35961C3.15282 4.1289 4.82202 3.4375 6.5625 3.4375H13.4375C15.1774 3.43936 16.8455 4.13136 18.0758 5.36167C19.3061 6.59197 19.9981 8.26009 20 10ZM18.125 10C18.1236 8.75724 17.6292 7.5658 16.7505 6.68704C15.8717 5.80827 14.6803 5.31395 13.4375 5.3125H6.5625C5.3193 5.3125 4.12701 5.80636 3.24794 6.68544C2.36886 7.56451 1.875 8.7568 1.875 10C1.875 11.2432 2.36886 12.4355 3.24794 13.3146C4.12701 14.1936 5.3193 14.6875 6.5625 14.6875H13.4375C14.6803 14.6861 15.8717 14.1917 16.7505 13.313C17.6292 12.4342 18.1236 11.2428 18.125 10ZM14.8438 10.8781L15.5047 12.0352C15.566 12.1423 15.6056 12.2604 15.6212 12.3828C15.6369 12.5052 15.6283 12.6295 15.5959 12.7486C15.5635 12.8677 15.508 12.9792 15.4325 13.0769C15.357 13.1745 15.263 13.2563 15.1559 13.3176C15.0487 13.3789 14.9306 13.4185 14.8082 13.4341C14.6858 13.4498 14.5615 13.4412 14.4424 13.4088C14.3233 13.3764 14.2118 13.3208 14.1142 13.2453C14.0165 13.1698 13.9347 13.0759 13.8734 12.9688L13.0719 11.5625H12.5V12.5C12.5 12.7486 12.4012 12.9871 12.2254 13.1629C12.0496 13.3387 11.8111 13.4375 11.5625 13.4375C11.3139 13.4375 11.0754 13.3387 10.8996 13.1629C10.7238 12.9871 10.625 12.7486 10.625 12.5V7.5C10.625 7.25136 10.7238 7.0129 10.8996 6.83709C11.0754 6.66127 11.3139 6.5625 11.5625 6.5625H13.125C13.6253 6.56247 14.1141 6.71255 14.5282 6.99333C14.9423 7.27412 15.2626 7.6727 15.4478 8.1375C15.6329 8.60231 15.6743 9.11197 15.5666 9.60056C15.4589 10.0892 15.2071 10.5342 14.8438 10.8781ZM12.5 9.6875H13.125C13.2908 9.6875 13.4497 9.62165 13.5669 9.50444C13.6842 9.38723 13.75 9.22826 13.75 9.0625C13.75 8.89674 13.6842 8.73777 13.5669 8.62056C13.4497 8.50335 13.2908 8.4375 13.125 8.4375H12.5V9.6875Z" fill="#191F2E"/>
</svg>
