<svg width="20" height="20" viewBox="0 0 20 20" fill="none" xmlns="http://www.w3.org/2000/svg">
<path d="M13.75 9.0625C13.75 9.31114 13.6512 9.5496 13.4754 9.72541C13.2996 9.90123 13.0611 10 12.8125 10H11.875V8.125H12.8125C13.0611 8.125 13.2996 8.22377 13.4754 8.39959C13.6512 8.5754 13.75 8.81386 13.75 9.0625ZM20 10C19.9981 11.657 19.3391 13.2457 18.1674 14.4174C16.9957 15.5891 15.407 16.2481 13.75 16.25H6.25C4.5924 16.25 3.00269 15.5915 1.83058 14.4194C0.65848 13.2473 0 11.6576 0 10C0 8.3424 0.65848 6.75269 1.83058 5.58058C3.00269 4.40848 4.5924 3.75 6.25 3.75H13.75C15.407 3.75186 16.9957 4.41094 18.1674 5.58264C19.3391 6.75434 19.9981 8.34297 20 10ZM9.29688 6.92109C9.14333 6.85906 8.97144 6.8605 8.81895 6.92509C8.66647 6.98969 8.54585 7.11217 8.48359 7.26562L7.03125 10.8391L5.57891 7.26562C5.55033 7.18656 5.5061 7.11407 5.44886 7.0525C5.39162 6.99093 5.32254 6.94154 5.24577 6.90728C5.16899 6.87303 5.0861 6.85461 5.00204 6.85314C4.91798 6.85167 4.83449 6.86718 4.75657 6.89873C4.67864 6.93027 4.60788 6.97722 4.54852 7.03675C4.48916 7.09629 4.44243 7.16718 4.41111 7.2452C4.37979 7.32322 4.36453 7.40675 4.36624 7.49081C4.36796 7.57486 4.38661 7.6577 4.42109 7.73438L6.45234 12.7344C6.49919 12.8495 6.57928 12.948 6.6824 13.0174C6.78552 13.0868 6.90697 13.1238 7.03125 13.1238C7.15553 13.1238 7.27698 13.0868 7.3801 13.0174C7.48322 12.948 7.56331 12.8495 7.61016 12.7344L9.64141 7.73438C9.70344 7.58083 9.702 7.40894 9.63741 7.25645C9.57281 7.10397 9.45033 6.98335 9.29688 6.92109ZM14.1273 10.8086C14.4932 10.5325 14.7631 10.1485 14.8989 9.71077C15.0347 9.27304 15.0296 8.8037 14.8843 8.36902C14.739 7.93434 14.4609 7.55628 14.0891 7.2882C13.7174 7.02013 13.2708 6.8756 12.8125 6.875H11.25C11.0842 6.875 10.9253 6.94085 10.8081 7.05806C10.6908 7.17527 10.625 7.33424 10.625 7.5V12.5C10.625 12.6658 10.6908 12.8247 10.8081 12.9419C10.9253 13.0592 11.0842 13.125 11.25 13.125C11.4158 13.125 11.5747 13.0592 11.6919 12.9419C11.8092 12.8247 11.875 12.6658 11.875 12.5V11.25H12.8125C12.8547 11.25 12.8969 11.25 12.9383 11.2461L13.832 12.8086C13.9144 12.9531 14.0508 13.059 14.2112 13.103C14.3717 13.1469 14.543 13.1253 14.6875 13.043C14.832 12.9606 14.9379 12.8242 14.9819 12.6638C15.0258 12.5033 15.0042 12.332 14.9219 12.1875L14.1273 10.8086Z" fill="#191F2E"/>
</svg>
