<svg width="20" height="20" viewBox="0 0 20 20" fill="none" xmlns="http://www.w3.org/2000/svg">
<path d="M9.64141 7.73438L7.61016 12.7344C7.56331 12.8495 7.48322 12.948 7.3801 13.0174C7.27698 13.0868 7.15553 13.1238 7.03125 13.1238C6.90697 13.1238 6.78552 13.0868 6.6824 13.0174C6.57928 12.948 6.49919 12.8495 6.45234 12.7344L4.42109 7.73438C4.38661 7.6577 4.36796 7.57486 4.36624 7.49081C4.36453 7.40675 4.37979 7.32322 4.41111 7.2452C4.44243 7.16718 4.48916 7.09629 4.54852 7.03675C4.60788 6.97722 4.67864 6.93027 4.75657 6.89873C4.83449 6.86718 4.91798 6.85167 5.00204 6.85314C5.0861 6.85461 5.16899 6.87303 5.24577 6.90728C5.32254 6.94154 5.39162 6.99093 5.44886 7.0525C5.5061 7.11407 5.55033 7.18656 5.57891 7.26562L7.03125 10.8391L8.48359 7.26562C8.51217 7.18656 8.5564 7.11407 8.61364 7.0525C8.67088 6.99093 8.73996 6.94154 8.81673 6.90728C8.89351 6.87303 8.9764 6.85461 9.06046 6.85314C9.14452 6.85167 9.22801 6.86718 9.30593 6.89873C9.38386 6.93027 9.45462 6.97722 9.51398 7.03675C9.57334 7.09629 9.62007 7.16718 9.65139 7.2452C9.68272 7.32322 9.69797 7.40675 9.69626 7.49081C9.69454 7.57486 9.67589 7.6577 9.64141 7.73438ZM20 10C19.9981 11.657 19.3391 13.2457 18.1674 14.4174C16.9957 15.5891 15.407 16.2481 13.75 16.25H6.25C4.5924 16.25 3.00269 15.5915 1.83058 14.4194C0.65848 13.2473 0 11.6576 0 10C0 8.3424 0.65848 6.75269 1.83058 5.58058C3.00269 4.40848 4.5924 3.75 6.25 3.75H13.75C15.407 3.75186 16.9957 4.41094 18.1674 5.58264C19.3391 6.75434 19.9981 8.34297 20 10ZM18.75 10C18.7486 8.67436 18.2213 7.40343 17.2839 6.46606C16.3466 5.5287 15.0756 5.00145 13.75 5H6.25C4.92392 5 3.65215 5.52678 2.71447 6.46447C1.77678 7.40215 1.25 8.67392 1.25 10C1.25 11.3261 1.77678 12.5979 2.71447 13.5355C3.65215 14.4732 4.92392 15 6.25 15H13.75C15.0756 14.9986 16.3466 14.4713 17.2839 13.5339C18.2213 12.5966 18.7486 11.3256 18.75 10ZM14.1281 10.8086L14.9219 12.1875C15.0041 12.3315 15.0258 12.5023 14.9822 12.6623C14.9385 12.8223 14.8331 12.9584 14.6891 13.0406C14.5451 13.1229 14.3743 13.1446 14.2143 13.1009C14.0543 13.0572 13.9182 12.9518 13.8359 12.8078L12.9422 11.2453C12.9008 11.2453 12.8586 11.2492 12.8164 11.2492H11.875V12.4992C11.875 12.665 11.8092 12.8239 11.6919 12.9412C11.5747 13.0584 11.4158 13.1242 11.25 13.1242C11.0842 13.1242 10.9253 13.0584 10.8081 12.9412C10.6908 12.8239 10.625 12.665 10.625 12.4992V7.5C10.625 7.33424 10.6908 7.17527 10.8081 7.05806C10.9253 6.94085 11.0842 6.875 11.25 6.875H12.8125C13.2709 6.87543 13.7176 7.01985 14.0894 7.28786C14.4613 7.55587 14.7396 7.93393 14.885 8.36865C15.0304 8.80337 15.0355 9.27277 14.8997 9.71058C14.7639 10.1484 14.494 10.5325 14.1281 10.8086ZM11.875 10H12.8125C13.0611 10 13.2996 9.90123 13.4754 9.72541C13.6512 9.5496 13.75 9.31114 13.75 9.0625C13.75 8.81386 13.6512 8.5754 13.4754 8.39959C13.2996 8.22377 13.0611 8.125 12.8125 8.125H11.875V10Z" fill="#191F2E"/>
</svg>
