<svg width="20" height="20" viewBox="0 0 20 20" fill="none" xmlns="http://www.w3.org/2000/svg">
<path d="M15.6249 5.625C14.7562 5.6258 13.9073 5.88523 13.1865 6.37023C12.4658 6.85522 11.9057 7.54382 11.5777 8.34828C11.2497 9.15274 11.1687 10.0366 11.3449 10.8873C11.5211 11.738 11.9466 12.517 12.5671 13.125H7.43272C8.1572 12.4152 8.61253 11.4757 8.72084 10.4672C8.82915 9.45871 8.5837 8.44394 8.02647 7.59645C7.46925 6.74895 6.63488 6.1214 5.66608 5.82112C4.69727 5.52085 3.65424 5.56651 2.71539 5.95031C1.77653 6.3341 1.0002 7.03217 0.51917 7.92512C0.0381436 8.81807 -0.117683 9.85041 0.078344 10.8456C0.274371 11.8407 0.810072 12.7368 1.59381 13.3806C2.37755 14.0244 3.36064 14.3759 4.37491 14.375H15.6249C16.7852 14.375 17.898 13.9141 18.7185 13.0936C19.539 12.2731 19.9999 11.1603 19.9999 10C19.9999 8.83968 19.539 7.72688 18.7185 6.90641C17.898 6.08594 16.7852 5.625 15.6249 5.625ZM1.24991 10C1.24991 9.38193 1.43319 8.77775 1.77657 8.26384C2.11995 7.74994 2.608 7.3494 3.17902 7.11288C3.75004 6.87635 4.37838 6.81447 4.98457 6.93505C5.59076 7.05562 6.14758 7.35325 6.58462 7.79029C7.02166 8.22733 7.31928 8.78415 7.43986 9.39034C7.56044 9.99653 7.49856 10.6249 7.26203 11.1959C7.02551 11.7669 6.62497 12.255 6.11106 12.5983C5.59716 12.9417 4.99297 13.125 4.37491 13.125C3.54611 13.125 2.75125 12.7958 2.1652 12.2097C1.57915 11.6237 1.24991 10.8288 1.24991 10ZM15.6249 13.125C15.0068 13.125 14.4027 12.9417 13.8888 12.5983C13.3748 12.255 12.9743 11.7669 12.7378 11.1959C12.5013 10.6249 12.4394 9.99653 12.56 9.39034C12.6805 8.78415 12.9782 8.22733 13.4152 7.79029C13.8522 7.35325 14.4091 7.05562 15.0153 6.93505C15.6214 6.81447 16.2498 6.87635 16.8208 7.11288C17.3918 7.3494 17.8799 7.74994 18.2233 8.26384C18.5666 8.77775 18.7499 9.38193 18.7499 10C18.7499 10.8288 18.4207 11.6237 17.8346 12.2097C17.2486 12.7958 16.4537 13.125 15.6249 13.125Z" fill="#191F2E"/>
</svg>
