<svg width="20" height="20" viewBox="0 0 20 20" fill="none" xmlns="http://www.w3.org/2000/svg">
<path d="M15.6249 5.625C14.7562 5.6258 13.9073 5.88523 13.1865 6.37023C12.4658 6.85522 11.9057 7.54382 11.5777 8.34828C11.2497 9.15274 11.1687 10.0366 11.3449 10.8873C11.5211 11.738 11.9466 12.517 12.5671 13.125H7.43272C8.1572 12.4152 8.61253 11.4757 8.72084 10.4672C8.82915 9.45871 8.5837 8.44394 8.02647 7.59645C7.46925 6.74895 6.63488 6.1214 5.66608 5.82112C4.69727 5.52085 3.65424 5.56651 2.71539 5.95031C1.77653 6.3341 1.0002 7.03217 0.51917 7.92512C0.0381436 8.81807 -0.117683 9.85041 0.078344 10.8456C0.274371 11.8407 0.810072 12.7368 1.59381 13.3806C2.37755 14.0244 3.36064 14.3759 4.37491 14.375H15.6249C16.7852 14.375 17.898 13.9141 18.7185 13.0936C19.539 12.2731 19.9999 11.1603 19.9999 10C19.9999 8.83968 19.539 7.72688 18.7185 6.90641C17.898 6.08594 16.7852 5.625 15.6249 5.625ZM4.37491 13.125C3.75684 13.125 3.15266 12.9417 2.63875 12.5983C2.12485 12.255 1.72431 11.7669 1.48778 11.1959C1.25126 10.6249 1.18938 9.99653 1.30995 9.39034C1.43053 8.78415 1.72816 8.22733 2.1652 7.79029C2.60224 7.35325 3.15906 7.05562 3.76525 6.93505C4.37144 6.81447 4.99977 6.87635 5.57079 7.11288C6.14181 7.3494 6.62987 7.74994 6.97325 8.26384C7.31663 8.77775 7.49991 9.38193 7.49991 10C7.49991 10.4104 7.41908 10.8167 7.26203 11.1959C7.10499 11.575 6.8748 11.9195 6.58462 12.2097C6.29443 12.4999 5.94994 12.7301 5.57079 12.8871C5.19165 13.0442 4.78529 13.125 4.37491 13.125ZM15.6249 13.125C15.0068 13.125 14.4027 12.9417 13.8888 12.5983C13.3748 12.255 12.9743 11.7669 12.7378 11.1959C12.5013 10.6249 12.4394 9.99653 12.56 9.39034C12.6805 8.78415 12.9782 8.22733 13.4152 7.79029C13.8522 7.35325 14.4091 7.05562 15.0153 6.93505C15.6214 6.81447 16.2498 6.87635 16.8208 7.11288C17.3918 7.3494 17.8799 7.74994 18.2233 8.26384C18.5666 8.77775 18.7499 9.38193 18.7499 10C18.7499 10.8288 18.4207 11.6237 17.8346 12.2097C17.2486 12.7958 16.4537 13.125 15.6249 13.125ZM17.4999 10C17.4999 10.3708 17.3899 10.7334 17.1839 11.0417C16.9779 11.35 16.6851 11.5904 16.3424 11.7323C15.9998 11.8742 15.6228 11.9113 15.2591 11.839C14.8954 11.7666 14.5613 11.588 14.2991 11.3258C14.0369 11.0636 13.8583 10.7295 13.7859 10.3658C13.7136 10.0021 13.7507 9.62508 13.8926 9.28247C14.0345 8.93986 14.2749 8.64702 14.5832 8.44099C14.8916 8.23497 15.2541 8.125 15.6249 8.125C16.1222 8.125 16.5991 8.32254 16.9507 8.67417C17.3024 9.02581 17.4999 9.50272 17.4999 10ZM6.24991 10C6.24991 10.3708 6.13994 10.7334 5.93391 11.0417C5.72789 11.35 5.43505 11.5904 5.09244 11.7323C4.74983 11.8742 4.37283 11.9113 4.00911 11.839C3.6454 11.7666 3.31131 11.588 3.04908 11.3258C2.78686 11.0636 2.60828 10.7295 2.53594 10.3658C2.46359 10.0021 2.50072 9.62508 2.64263 9.28247C2.78455 8.93986 3.02487 8.64702 3.33321 8.44099C3.64156 8.23497 4.00407 8.125 4.37491 8.125C4.87219 8.125 5.3491 8.32254 5.70073 8.67417C6.05236 9.02581 6.24991 9.50272 6.24991 10Z" fill="#191F2E"/>
</svg>
