<svg width="20" height="20" viewBox="0 0 20 20" fill="none" xmlns="http://www.w3.org/2000/svg">
<path d="M10 1.875C8.39303 1.875 6.82214 2.35152 5.486 3.24431C4.14985 4.1371 3.10844 5.40605 2.49348 6.8907C1.87852 8.37535 1.71762 10.009 2.03112 11.5851C2.34463 13.1612 3.11846 14.6089 4.25476 15.7452C5.39106 16.8815 6.8388 17.6554 8.4149 17.9689C9.99099 18.2824 11.6247 18.1215 13.1093 17.5065C14.594 16.8916 15.8629 15.8502 16.7557 14.514C17.6485 13.1779 18.125 11.607 18.125 10C18.1227 7.84581 17.266 5.78051 15.7427 4.25727C14.2195 2.73403 12.1542 1.87727 10 1.875ZM16.3859 12.5453C15.3195 13.2764 14.0684 13.6919 12.7765 13.7441C11.4845 13.7964 10.2041 13.4832 9.08204 12.8406L10.3609 10.625H16.8453C16.7863 11.284 16.6316 11.9309 16.3859 12.5453ZM7.11875 3.75859C7.71897 3.48061 8.35634 3.29113 9.01094 3.19609C10.1772 3.75445 11.1624 4.63039 11.8534 5.72335C12.5443 6.8163 12.913 8.08196 12.9172 9.375H10.3609L7.11875 3.75859ZM16.8461 9.375H14.1695C14.1656 8.21598 13.9142 7.07116 13.4322 6.01715C12.9501 4.96314 12.2485 4.02424 11.3742 3.26328C12.821 3.56082 14.1338 4.31547 15.119 5.4159C16.1042 6.51633 16.7097 7.90428 16.8461 9.375ZM6.03672 4.38516L7.37422 6.70156C6.37239 7.28419 5.5066 8.07413 4.83481 9.0185C4.16302 9.96286 3.70074 11.0398 3.47891 12.1773C3.01094 10.7761 3.00703 9.2614 3.46777 7.85779C3.92851 6.45418 4.82936 5.23644 6.03672 4.38516ZM4.60157 14.2523C4.5028 12.9639 4.76916 11.6737 5.37011 10.5297C5.97106 9.38567 6.88226 8.4342 7.99922 7.78438L9.27813 10L6.03672 15.6148C5.49556 15.2317 5.01224 14.7729 4.60157 14.2523ZM10 16.875C9.00492 16.876 8.02161 16.6598 7.11875 16.2414L8.45704 13.9234C9.46148 14.4986 10.577 14.8531 11.7292 14.9631C12.8814 15.0732 14.0439 14.9363 15.1391 14.5617C14.4951 15.2892 13.704 15.8717 12.8181 16.2704C11.9321 16.6692 10.9716 16.8753 10 16.875Z" fill="#191F2E"/>
</svg>
