<svg width="20" height="20" viewBox="0 0 20 20" fill="none" xmlns="http://www.w3.org/2000/svg">
<path d="M10 1.5625C8.33122 1.5625 6.69992 2.05735 5.31238 2.98448C3.92484 3.9116 2.84338 5.22936 2.20477 6.77111C1.56616 8.31286 1.39907 10.0094 1.72463 11.6461C2.05019 13.2828 2.85379 14.7862 4.03379 15.9662C5.2138 17.1462 6.71721 17.9498 8.35393 18.2754C9.99064 18.6009 11.6871 18.4338 13.2289 17.7952C14.7706 17.1566 16.0884 16.0752 17.0155 14.6876C17.9427 13.3001 18.4375 11.6688 18.4375 10C18.435 7.763 17.5453 5.61833 15.9635 4.03653C14.3817 2.45473 12.237 1.56498 10 1.5625ZM7.56485 3.90625C8.0155 3.72429 8.48509 3.59327 8.96485 3.51562C10.0085 4.03428 10.8952 4.8215 11.5338 5.79637C12.1724 6.77123 12.5399 7.89857 12.5984 9.0625H10.5414L7.56485 3.90625ZM10.5414 10.9375H16.4945C16.4252 11.4185 16.3023 11.8901 16.1281 12.3438C15.1576 12.9869 14.0334 13.3605 12.871 13.4263C11.7085 13.492 10.5494 13.2476 9.5125 12.718L10.5414 10.9375ZM16.4945 9.0625H14.4758C14.4229 7.69563 14.0367 6.36242 13.3508 5.17891C13.0931 4.73246 12.7952 4.3104 12.4609 3.91797C13.5233 4.34958 14.4544 5.05138 15.1619 5.95378C15.8695 6.85617 16.3289 7.92783 16.4945 9.0625ZM5.94297 4.84766L6.95313 6.59297C5.79593 7.32213 4.83445 8.32304 4.15235 9.50859C3.89444 9.95671 3.67792 10.4274 3.50547 10.9148C3.34317 9.77856 3.483 8.61957 3.91089 7.55449C4.33879 6.48942 5.03966 5.55582 5.94297 4.84766ZM4.90547 14.1305C4.83418 12.9689 5.07307 11.8093 5.59763 10.7704C6.12219 9.7316 6.91357 8.85095 7.89063 8.21875L8.91719 10L5.94297 15.1562C5.56038 14.8536 5.21243 14.5096 4.90547 14.1305ZM7.56172 16.0922L8.5711 14.3445C9.78217 14.9828 11.131 15.3152 12.5 15.3125C13.0133 15.3124 13.5255 15.2658 14.0305 15.1734C13.1279 15.8799 12.0555 16.3368 10.9207 16.4983C9.78599 16.6598 8.62871 16.5203 7.56485 16.0938L7.56172 16.0922Z" fill="#191F2E"/>
</svg>
