<svg width="20" height="20" viewBox="0 0 20 20" fill="none" xmlns="http://www.w3.org/2000/svg">
<path d="M10.625 7.1875H17.8125C17.8954 7.1875 17.9749 7.15458 18.0335 7.09597C18.0921 7.03737 18.125 6.95788 18.125 6.875V4.375C18.125 4.20924 18.0592 4.05027 17.9419 3.93306C17.8247 3.81585 17.6658 3.75 17.5 3.75H10.9375C10.8546 3.75 10.7751 3.78292 10.7165 3.84153C10.6579 3.90013 10.625 3.97962 10.625 4.0625V7.1875Z" fill="#191F2E"/>
<path d="M14.375 11.875H17.8125C17.8954 11.875 17.9749 11.8421 18.0335 11.7835C18.0921 11.7249 18.125 11.6454 18.125 11.5625V8.75C18.125 8.66712 18.0921 8.58763 18.0335 8.52903C17.9749 8.47042 17.8954 8.4375 17.8125 8.4375H14.375V11.875Z" fill="#191F2E"/>
<path d="M13.125 8.4375H6.875V11.875H13.125V8.4375Z" fill="#191F2E"/>
<path d="M5.625 8.4375H2.1875C2.10462 8.4375 2.02513 8.47042 1.96653 8.52903C1.90792 8.58763 1.875 8.66712 1.875 8.75V11.5625C1.875 11.6454 1.90792 11.7249 1.96653 11.7835C2.02513 11.8421 2.10462 11.875 2.1875 11.875H5.625V8.4375Z" fill="#191F2E"/>
<path d="M10.625 13.125V15.9375C10.625 16.0204 10.6579 16.0999 10.7165 16.1585C10.7751 16.2171 10.8546 16.25 10.9375 16.25H17.5C17.6658 16.25 17.8247 16.1842 17.9419 16.0669C18.0592 15.9497 18.125 15.7908 18.125 15.625V13.4375C18.125 13.3546 18.0921 13.2751 18.0335 13.2165C17.9749 13.1579 17.8954 13.125 17.8125 13.125H10.625Z" fill="#191F2E"/>
<path d="M9.375 7.1875V4.0625C9.375 3.97962 9.34208 3.90013 9.28347 3.84153C9.22487 3.78292 9.14538 3.75 9.0625 3.75H2.5C2.33424 3.75 2.17527 3.81585 2.05806 3.93306C1.94085 4.05027 1.875 4.20924 1.875 4.375V6.875C1.875 6.95788 1.90792 7.03737 1.96653 7.09597C2.02513 7.15458 2.10462 7.1875 2.1875 7.1875H9.375Z" fill="#191F2E"/>
<path d="M9.375 13.125H2.1875C2.10462 13.125 2.02513 13.1579 1.96653 13.2165C1.90792 13.2751 1.875 13.3546 1.875 13.4375V15.625C1.875 15.7908 1.94085 15.9497 2.05806 16.0669C2.17527 16.1842 2.33424 16.25 2.5 16.25H9.0625C9.14538 16.25 9.22487 16.2171 9.28347 16.1585C9.34208 16.0999 9.375 16.0204 9.375 15.9375V13.125Z" fill="#191F2E"/>
</svg>
