<svg width="20" height="20" viewBox="0 0 20 20" fill="none" xmlns="http://www.w3.org/2000/svg">
<path d="M9.06251 10.3125V6.25001C9.06251 6.00137 9.16128 5.76291 9.33709 5.58709C9.51291 5.41128 9.75137 5.31251 10 5.31251C10.2486 5.31251 10.4871 5.41128 10.6629 5.58709C10.8387 5.76291 10.9375 6.00137 10.9375 6.25001V10.3125C10.9375 10.5611 10.8387 10.7996 10.6629 10.9754C10.4871 11.1512 10.2486 11.25 10 11.25C9.75137 11.25 9.51291 11.1512 9.33709 10.9754C9.16128 10.7996 9.06251 10.5611 9.06251 10.3125ZM18.4375 7.15235V12.8477C18.4381 13.0529 18.3979 13.2563 18.3193 13.4459C18.2407 13.6355 18.1253 13.8077 17.9797 13.9524L13.9523 17.9797C13.8077 18.1253 13.6355 18.2408 13.4459 18.3194C13.2563 18.3979 13.0529 18.4381 12.8477 18.4375H7.15235C6.94708 18.4381 6.74373 18.3979 6.5541 18.3194C6.36447 18.2408 6.19233 18.1253 6.04766 17.9797L2.02032 13.9524C1.87473 13.8077 1.7593 13.6355 1.68071 13.4459C1.60213 13.2563 1.56195 13.0529 1.56251 12.8477V7.15235C1.56195 6.94709 1.60213 6.74375 1.68071 6.55413C1.7593 6.36451 1.87473 6.19236 2.02032 6.04766L6.04766 2.02032C6.19233 1.8747 6.36447 1.75924 6.5541 1.68065C6.74373 1.60207 6.94708 1.56191 7.15235 1.56251H12.8477C13.0529 1.56191 13.2563 1.60207 13.4459 1.68065C13.6355 1.75924 13.8077 1.8747 13.9523 2.02032L17.9797 6.04766C18.1253 6.19236 18.2407 6.36451 18.3193 6.55413C18.3979 6.74375 18.4381 6.94709 18.4375 7.15235ZM16.5625 7.28204L12.718 3.43751H7.28204L3.43751 7.28204V12.718L7.28204 16.5625H12.718L16.5625 12.718V7.28204ZM10 12.1875C9.75278 12.1875 9.5111 12.2608 9.30554 12.3982C9.09998 12.5355 8.93977 12.7307 8.84516 12.9592C8.75055 13.1876 8.72579 13.4389 8.77402 13.6814C8.82226 13.9238 8.94131 14.1466 9.11612 14.3214C9.29094 14.4962 9.51367 14.6153 9.75614 14.6635C9.99862 14.7117 10.25 14.687 10.4784 14.5924C10.7068 14.4977 10.902 14.3375 11.0393 14.132C11.1767 13.9264 11.25 13.6847 11.25 13.4375C11.25 13.106 11.1183 12.788 10.8839 12.5536C10.6495 12.3192 10.3315 12.1875 10 12.1875Z" fill="#191F2E"/>
</svg>
