<svg width="20" height="20" viewBox="0 0 20 20" fill="none" xmlns="http://www.w3.org/2000/svg">
<path d="M18.3853 9.11867L10.8814 1.61398C10.6472 1.38117 10.3303 1.25049 10.0001 1.25049C9.66988 1.25049 9.35307 1.38117 9.11886 1.61398L1.61886 9.11867C1.38605 9.35287 1.25537 9.66968 1.25537 9.99992C1.25537 10.3301 1.38605 10.647 1.61886 10.8812L9.12277 18.3859C9.35697 18.6187 9.67379 18.7493 10.004 18.7493C10.3343 18.7493 10.6511 18.6187 10.8853 18.3859L18.3892 10.8812C18.622 10.647 18.7527 10.3301 18.7527 9.99992C18.7527 9.66968 18.622 9.35287 18.3892 9.11867H18.3853ZM9.37511 6.24992C9.37511 6.08416 9.44096 5.92519 9.55817 5.80797C9.67538 5.69076 9.83435 5.62492 10.0001 5.62492C10.1659 5.62492 10.3248 5.69076 10.4421 5.80797C10.5593 5.92519 10.6251 6.08416 10.6251 6.24992V10.6249C10.6251 10.7907 10.5593 10.9496 10.4421 11.0669C10.3248 11.1841 10.1659 11.2499 10.0001 11.2499C9.83435 11.2499 9.67538 11.1841 9.55817 11.0669C9.44096 10.9496 9.37511 10.7907 9.37511 10.6249V6.24992ZM10.0001 14.3749C9.81469 14.3749 9.63344 14.3199 9.47927 14.2169C9.32509 14.1139 9.20493 13.9675 9.13398 13.7962C9.06302 13.6249 9.04445 13.4364 9.08063 13.2545C9.1168 13.0727 9.20609 12.9056 9.3372 12.7745C9.46831 12.6434 9.63536 12.5541 9.81721 12.5179C9.99907 12.4818 10.1876 12.5003 10.3589 12.5713C10.5302 12.6422 10.6766 12.7624 10.7796 12.9166C10.8826 13.0707 10.9376 13.252 10.9376 13.4374C10.9376 13.6861 10.8388 13.9245 10.663 14.1003C10.4872 14.2761 10.2488 14.3749 10.0001 14.3749Z" fill="#191F2E"/>
</svg>
