<svg width="20" height="20" viewBox="0 0 20 20" fill="none" xmlns="http://www.w3.org/2000/svg">
<path d="M18.5001 14.6946L11.6681 2.82974C11.4973 2.53906 11.2536 2.29803 10.961 2.13057C10.6685 1.9631 10.3372 1.875 10.0001 1.875C9.66299 1.875 9.33174 1.9631 9.03916 2.13057C8.74659 2.29803 8.50286 2.53906 8.33214 2.82974L1.50011 14.6946C1.33584 14.9757 1.24927 15.2955 1.24927 15.6211C1.24927 15.9468 1.33584 16.2665 1.50011 16.5477C1.66865 16.8401 1.91196 17.0825 2.20508 17.2498C2.49819 17.4172 2.83056 17.5036 3.16807 17.5001H16.8321C17.1694 17.5033 17.5014 17.4168 17.7942 17.2494C18.0871 17.0821 18.3301 16.8399 18.4985 16.5477C18.663 16.2667 18.7499 15.947 18.7502 15.6214C18.7504 15.2957 18.6641 14.9759 18.5001 14.6946ZM17.4165 15.9219C17.357 16.0235 17.2714 16.1075 17.1688 16.1651C17.0661 16.2228 16.9499 16.2521 16.8321 16.2501H3.16807C3.05032 16.2521 2.93415 16.2228 2.83146 16.1651C2.72877 16.1075 2.64326 16.0235 2.5837 15.9219C2.52975 15.8306 2.50129 15.7264 2.50129 15.6204C2.50129 15.5143 2.52975 15.4101 2.5837 15.3188L9.41573 3.45396C9.47649 3.35284 9.56239 3.26917 9.66506 3.21108C9.76774 3.153 9.8837 3.12247 10.0017 3.12247C10.1196 3.12247 10.2356 3.153 10.3383 3.21108C10.4409 3.26917 10.5268 3.35284 10.5876 3.45396L17.4196 15.3188C17.4731 15.4104 17.501 15.5147 17.5005 15.6208C17.4999 15.7269 17.4709 15.8309 17.4165 15.9219ZM9.37511 11.2501V8.12505C9.37511 7.95929 9.44095 7.80032 9.55816 7.68311C9.67537 7.5659 9.83434 7.50005 10.0001 7.50005C10.1659 7.50005 10.3248 7.5659 10.442 7.68311C10.5593 7.80032 10.6251 7.95929 10.6251 8.12505V11.2501C10.6251 11.4158 10.5593 11.5748 10.442 11.692C10.3248 11.8092 10.1659 11.8751 10.0001 11.8751C9.83434 11.8751 9.67537 11.8092 9.55816 11.692C9.44095 11.5748 9.37511 11.4158 9.37511 11.2501ZM10.9376 14.0626C10.9376 14.248 10.8826 14.4292 10.7796 14.5834C10.6766 14.7376 10.5302 14.8577 10.3589 14.9287C10.1876 14.9996 9.99907 15.0182 9.81721 14.982C9.63535 14.9459 9.4683 14.8566 9.33719 14.7255C9.20608 14.5944 9.11679 14.4273 9.08062 14.2454C9.04445 14.0636 9.06301 13.8751 9.13397 13.7038C9.20493 13.5325 9.32509 13.3861 9.47926 13.283C9.63343 13.18 9.81469 13.1251 10.0001 13.1251C10.2487 13.1251 10.4872 13.2238 10.663 13.3996C10.8388 13.5755 10.9376 13.8139 10.9376 14.0626Z" fill="#191F2E"/>
</svg>
