<svg width="20" height="20" viewBox="0 0 20 20" fill="none" xmlns="http://www.w3.org/2000/svg">
<path d="M10.0001 5.62492C10.1659 5.62492 10.3248 5.69076 10.4421 5.80797C10.5593 5.92519 10.6251 6.08416 10.6251 6.24992V10.6249C10.6251 10.7907 10.5593 10.9496 10.4421 11.0669C10.3248 11.1841 10.1659 11.2499 10.0001 11.2499C9.83435 11.2499 9.67538 11.1841 9.55817 11.0669C9.44096 10.9496 9.37511 10.7907 9.37511 10.6249V6.24992C9.37511 6.08416 9.44096 5.92519 9.55817 5.80797C9.67538 5.69076 9.83435 5.62492 10.0001 5.62492ZM9.06261 13.4374C9.06261 13.6228 9.1176 13.8041 9.22061 13.9583C9.32362 14.1124 9.47004 14.2326 9.64135 14.3036C9.81265 14.3745 10.0012 14.3931 10.183 14.3569C10.3649 14.3207 10.5319 14.2314 10.663 14.1003C10.7941 13.9692 10.8834 13.8022 10.9196 13.6203C10.9558 13.4385 10.9372 13.25 10.8662 13.0787C10.7953 12.9073 10.6751 12.7609 10.521 12.6579C10.3668 12.5549 10.1855 12.4999 10.0001 12.4999C9.75147 12.4999 9.51301 12.5987 9.3372 12.7745C9.16138 12.9503 9.06261 13.1888 9.06261 13.4374ZM18.7501 9.99992C18.7506 10.1636 18.7186 10.3258 18.6559 10.4771C18.5933 10.6283 18.5013 10.7657 18.3853 10.8812L10.8814 18.3859C10.6472 18.6187 10.3303 18.7493 10.0001 18.7493C9.66988 18.7493 9.35307 18.6187 9.11886 18.3859L1.61886 10.8812C1.38605 10.647 1.25537 10.3301 1.25537 9.99992C1.25537 9.66968 1.38605 9.35287 1.61886 9.11867L9.12277 1.61398C9.35697 1.38117 9.67379 1.25049 10.004 1.25049C10.3343 1.25049 10.6511 1.38117 10.8853 1.61398L18.3892 9.11867C18.5045 9.23447 18.5958 9.37196 18.6577 9.52321C18.7197 9.67446 18.7511 9.83647 18.7501 9.99992ZM17.5001 9.99992L10.0001 2.49992L2.50011 9.99992L10.0001 17.4999L17.5001 9.99992Z" fill="#191F2E"/>
</svg>
