<svg width="20" height="20" viewBox="0 0 20 20" fill="none" xmlns="http://www.w3.org/2000/svg">
<path d="M13.6952 4.96328L13.2077 2.27734C13.1556 1.98918 13.0039 1.72848 12.7792 1.54072C12.5544 1.35297 12.2709 1.25008 11.9781 1.25H8.02181C7.72896 1.25008 7.44544 1.35297 7.2207 1.54072C6.99596 1.72848 6.84428 1.98918 6.79212 2.27734L6.30462 4.96328C5.51285 5.54292 4.86889 6.30106 4.42499 7.17618C3.98109 8.0513 3.74976 9.01874 3.74976 10C3.74976 10.9813 3.98109 11.9487 4.42499 12.8238C4.86889 13.6989 5.51285 14.4571 6.30462 15.0367L6.79212 17.7227C6.84428 18.0108 6.99596 18.2715 7.2207 18.4593C7.44544 18.647 7.72896 18.7499 8.02181 18.75H11.9781C12.2709 18.7499 12.5544 18.647 12.7792 18.4593C13.0039 18.2715 13.1556 18.0108 13.2077 17.7227L13.6952 15.0367C14.487 14.4571 15.131 13.6989 15.5749 12.8238C16.0188 11.9487 16.2501 10.9813 16.2501 10C16.2501 9.01874 16.0188 8.0513 15.5749 7.17618C15.131 6.30106 14.487 5.54292 13.6952 4.96328ZM8.02181 2.5H11.9781L12.2835 4.18359C10.816 3.60549 9.18385 3.60549 7.71634 4.18359L8.02181 2.5ZM11.9781 17.5H8.02181L7.71634 15.8164C9.18385 16.3945 10.816 16.3945 12.2835 15.8164L11.9781 17.5ZM13.1249 10.625H9.99993C9.83417 10.625 9.6752 10.5592 9.55799 10.4419C9.44078 10.3247 9.37493 10.1658 9.37493 10V6.875C9.37493 6.70924 9.44078 6.55027 9.55799 6.43306C9.6752 6.31585 9.83417 6.25 9.99993 6.25C10.1657 6.25 10.3247 6.31585 10.4419 6.43306C10.5591 6.55027 10.6249 6.70924 10.6249 6.875V9.375H13.1249C13.2907 9.375 13.4497 9.44085 13.5669 9.55806C13.6841 9.67527 13.7499 9.83424 13.7499 10C13.7499 10.1658 13.6841 10.3247 13.5669 10.4419C13.4497 10.5592 13.2907 10.625 13.1249 10.625Z" fill="#191F2E"/>
</svg>
