<svg width="20" height="20" viewBox="0 0 20 20" fill="none" xmlns="http://www.w3.org/2000/svg">
<path d="M16.2499 10C16.2499 9.099 16.0547 8.2087 15.6777 7.39035C15.3008 6.57199 14.751 5.845 14.0663 5.25938L13.5155 2.22109C13.4502 1.86093 13.2605 1.53514 12.9795 1.30055C12.6985 1.06597 12.3441 0.937478 11.978 0.9375H8.02179C7.65575 0.937478 7.30132 1.06597 7.02033 1.30055C6.73934 1.53514 6.54963 1.86093 6.48429 2.22109L5.93741 5.25938C5.25262 5.84495 4.70282 6.57193 4.32584 7.39029C3.94887 8.20866 3.75366 9.09898 3.75366 10C3.75366 10.901 3.94887 11.7913 4.32584 12.6097C4.70282 13.4281 5.25262 14.1551 5.93741 14.7406L6.48429 17.7789C6.54963 18.1391 6.73934 18.4649 7.02033 18.6994C7.30132 18.934 7.65575 19.0625 8.02179 19.0625H11.978C12.3441 19.0625 12.6985 18.934 12.9795 18.6994C13.2605 18.4649 13.4502 18.1391 13.5155 17.7789L14.0663 14.7406C14.751 14.155 15.3008 13.428 15.6777 12.6097C16.0547 11.7913 16.2499 10.901 16.2499 10ZM8.28116 2.8125H11.7187L11.9452 4.0625C10.6825 3.64794 9.3204 3.64794 8.05773 4.0625L8.28116 2.8125ZM11.7187 17.1875H8.28116L8.0546 15.9375C9.31728 16.3521 10.6794 16.3521 11.9421 15.9375L11.7187 17.1875ZM9.99991 14.375C9.13462 14.375 8.28876 14.1184 7.56929 13.6377C6.84983 13.1569 6.28907 12.4737 5.95794 11.6742C5.62681 10.8748 5.54017 9.99515 5.70898 9.14648C5.87779 8.29781 6.29447 7.51826 6.90632 6.90641C7.51818 6.29455 8.29773 5.87787 9.14639 5.70906C9.99506 5.54025 10.8747 5.62689 11.6742 5.95803C12.4736 6.28916 13.1569 6.84992 13.6376 7.56938C14.1183 8.28885 14.3749 9.13471 14.3749 10C14.3737 11.1599 13.9123 12.272 13.0921 13.0922C12.2719 13.9124 11.1599 14.3738 9.99991 14.375ZM13.1249 10C13.1249 10.2486 13.0261 10.4871 12.8503 10.6629C12.6745 10.8387 12.4361 10.9375 12.1874 10.9375H9.99991C9.75127 10.9375 9.51282 10.8387 9.337 10.6629C9.16118 10.4871 9.06241 10.2486 9.06241 10V7.8125C9.06241 7.56386 9.16118 7.3254 9.337 7.14959C9.51282 6.97377 9.75127 6.875 9.99991 6.875C10.2486 6.875 10.487 6.97377 10.6628 7.14959C10.8386 7.3254 10.9374 7.56386 10.9374 7.8125V9.0625H12.1874C12.4361 9.0625 12.6745 9.16127 12.8503 9.33709C13.0261 9.5129 13.1249 9.75136 13.1249 10Z" fill="#191F2E"/>
</svg>
