<svg width="20" height="20" viewBox="0 0 20 20" fill="none" xmlns="http://www.w3.org/2000/svg">
<path d="M18.4524 10.532L10.3274 15.532C10.2327 15.5902 10.1242 15.6221 10.0131 15.6245C9.90195 15.6268 9.79222 15.5994 9.69519 15.5452C9.59816 15.491 9.51734 15.4119 9.46106 15.3161C9.40478 15.2202 9.37508 15.1111 9.37501 15V6.11873L2.20235 10.532C2.06148 10.6125 1.89484 10.635 1.73765 10.5949C1.58046 10.5547 1.44504 10.455 1.36002 10.3168C1.27501 10.1787 1.24705 10.0128 1.28207 9.85442C1.31708 9.69601 1.41233 9.55742 1.54767 9.46795L9.67267 4.46795C9.76735 4.40974 9.87584 4.37782 9.98695 4.3755C10.0981 4.37318 10.2078 4.40053 10.3048 4.45474C10.4019 4.50894 10.4827 4.58804 10.539 4.68388C10.5952 4.77972 10.6249 4.88883 10.625 4.99998V13.8812L17.7977 9.46795C17.9385 9.38747 18.1052 9.36493 18.2624 9.40508C18.4196 9.44524 18.555 9.54494 18.64 9.68312C18.725 9.8213 18.753 9.98712 18.718 10.1455C18.6829 10.3039 18.5877 10.4425 18.4524 10.532Z" fill="#191F2E"/>
</svg>
