<svg width="20" height="20" viewBox="0 0 20 20" fill="none" xmlns="http://www.w3.org/2000/svg">
<path d="M18.6164 10.7985L10.4914 15.7985C10.3494 15.8859 10.1866 15.9339 10.0198 15.9374C9.85304 15.9409 9.68836 15.8999 9.54274 15.8185C9.39713 15.7371 9.27586 15.6184 9.19144 15.4745C9.10703 15.3306 9.06254 15.1669 9.06254 15V6.67739L2.36645 10.7985C2.15469 10.9288 1.89983 10.9697 1.65794 10.9121C1.41605 10.8545 1.20694 10.7032 1.07661 10.4915C0.946277 10.2797 0.905407 10.0248 0.962987 9.78294C1.02057 9.54105 1.17188 9.33194 1.38364 9.20161L9.50864 4.20161C9.65069 4.11418 9.8135 4.06623 9.98027 4.06271C10.147 4.05919 10.3117 4.10023 10.4573 4.1816C10.603 4.26297 10.7242 4.38171 10.8086 4.52558C10.8931 4.66945 10.9376 4.83324 10.9375 5.00005V13.3227L17.6336 9.20161C17.7385 9.13708 17.855 9.09383 17.9766 9.07433C18.0982 9.05484 18.2224 9.05948 18.3421 9.08799C18.4619 9.1165 18.5749 9.16832 18.6747 9.2405C18.7744 9.31267 18.8589 9.40379 18.9235 9.50864C18.988 9.61349 19.0313 9.73003 19.0508 9.8516C19.0703 9.97316 19.0656 10.0974 19.0371 10.2172C19.0086 10.3369 18.9568 10.4499 18.8846 10.5497C18.8124 10.6494 18.7213 10.734 18.6164 10.7985Z" fill="#191F2E"/>
</svg>
