<svg width="20" height="20" viewBox="0 0 20 20" fill="none" xmlns="http://www.w3.org/2000/svg">
<path d="M18.6906 10.2656C16.9718 13.9219 15.4562 15.625 13.9093 15.625C11.9484 15.625 10.7273 13.0219 9.43434 10.2656C8.41402 8.09062 7.25777 5.625 6.09371 5.625C4.81246 5.625 3.25699 8.53203 2.44371 10.2656C2.37135 10.4125 2.24424 10.5251 2.08972 10.5793C1.93519 10.6334 1.76559 10.6247 1.61739 10.5551C1.46918 10.4855 1.3542 10.3606 1.29718 10.2071C1.24016 10.0536 1.24565 9.88386 1.31246 9.73438C3.02418 6.07812 4.54371 4.375 6.09371 4.375C8.05465 4.375 9.27574 6.97813 10.5687 9.73438C11.5859 11.9094 12.7421 14.375 13.9062 14.375C15.1875 14.375 16.7429 11.468 17.5562 9.73438C17.6286 9.5875 17.7557 9.47488 17.9102 9.42074C18.0647 9.3666 18.2343 9.37526 18.3825 9.44486C18.5307 9.51446 18.6457 9.63944 18.7027 9.79292C18.7598 9.94641 18.7543 10.1161 18.6875 10.2656H18.6906Z" fill="#191F2E"/>
</svg>
