<svg width="20" height="20" viewBox="0 0 20 20" fill="none" xmlns="http://www.w3.org/2000/svg">
<path d="M19.0625 10V14.375C19.0625 14.6236 18.9637 14.8621 18.7879 15.0379C18.6121 15.2137 18.3736 15.3125 18.125 15.3125H10C9.75136 15.3125 9.5129 15.2137 9.33709 15.0379C9.16127 14.8621 9.0625 14.6236 9.0625 14.375V6.5625H2.8125V10C2.8125 10.2486 2.71373 10.4871 2.53791 10.6629C2.3621 10.8387 2.12364 10.9375 1.875 10.9375C1.62636 10.9375 1.3879 10.8387 1.21209 10.6629C1.03627 10.4871 0.9375 10.2486 0.9375 10V5.625C0.9375 5.37636 1.03627 5.1379 1.21209 4.96209C1.3879 4.78627 1.62636 4.6875 1.875 4.6875H10C10.2486 4.6875 10.4871 4.78627 10.6629 4.96209C10.8387 5.1379 10.9375 5.37636 10.9375 5.625V13.4375H17.1875V10C17.1875 9.75136 17.2863 9.5129 17.4621 9.33709C17.6379 9.16127 17.8764 9.0625 18.125 9.0625C18.3736 9.0625 18.6121 9.16127 18.7879 9.33709C18.9637 9.5129 19.0625 9.75136 19.0625 10Z" fill="#191F2E"/>
</svg>
