<svg width="20" height="20" viewBox="0 0 20 20" fill="none" xmlns="http://www.w3.org/2000/svg">
<path d="M18.8851 10.5469L14.8226 16.1719C14.7357 16.2922 14.6215 16.3903 14.4894 16.4578C14.3572 16.5254 14.2109 16.5607 14.0625 16.5607C13.914 16.5607 13.7677 16.5254 13.6356 16.4578C13.5034 16.3903 13.3892 16.2922 13.3023 16.1719L5.93747 5.97657L2.63513 10.5469C2.56602 10.6533 2.47604 10.7446 2.37063 10.8152C2.26522 10.8858 2.14657 10.9343 2.02187 10.9577C1.89718 10.9811 1.76902 10.9789 1.64518 10.9514C1.52133 10.9238 1.40437 10.8714 1.30138 10.7973C1.19839 10.7232 1.11151 10.629 1.046 10.5203C0.980492 10.4117 0.937721 10.2908 0.920279 10.1652C0.902836 10.0395 0.911084 9.91159 0.944522 9.7892C0.977961 9.66681 1.03589 9.55248 1.11481 9.45313L5.17731 3.82813C5.26419 3.70778 5.37841 3.60977 5.51056 3.54217C5.64272 3.47458 5.78903 3.43933 5.93747 3.43933C6.08591 3.43933 6.23223 3.47458 6.36438 3.54217C6.49653 3.60977 6.61075 3.70778 6.69763 3.82813L14.0625 14.0234L17.3648 9.45313C17.4339 9.34673 17.5239 9.25545 17.6293 9.18484C17.7347 9.11423 17.8534 9.06575 17.9781 9.04234C18.1028 9.01893 18.2309 9.02107 18.3548 9.04863C18.4786 9.0762 18.5956 9.12862 18.6986 9.20272C18.8016 9.27681 18.8884 9.37104 18.9539 9.4797C19.0194 9.58836 19.0622 9.70918 19.0797 9.83485C19.0971 9.96052 19.0889 10.0884 19.0554 10.2108C19.022 10.3332 18.964 10.4475 18.8851 10.5469Z" fill="#191F2E"/>
</svg>
