<svg width="20" height="20" viewBox="0 0 20 20" fill="none" xmlns="http://www.w3.org/2000/svg">
<path d="M18.9735 10.3984C17.1767 14.2266 15.6142 15.9375 13.9095 15.9375C11.7501 15.9375 10.4876 13.2469 9.15166 10.3984C8.59384 9.20156 8.01025 7.96875 7.41572 7.08828C6.90556 6.33516 6.44775 5.9375 6.09384 5.9375C5.7954 5.9375 4.66884 6.25938 2.72744 10.3984C2.62176 10.6236 2.43099 10.7975 2.19708 10.8819C2.08126 10.9238 1.95834 10.9424 1.83533 10.9367C1.71232 10.931 1.59164 10.9012 1.48017 10.8488C1.25505 10.7432 1.08112 10.5524 0.996658 10.3185C0.912193 10.0846 0.924108 9.82669 1.02978 9.60156C2.82665 5.77344 4.38915 4.0625 6.09384 4.0625C8.25322 4.0625 9.51572 6.75313 10.8517 9.60156C11.4134 10.7984 11.9931 12.0352 12.5876 12.9117C13.0977 13.6648 13.5556 14.0625 13.9157 14.0625C14.2142 14.0625 15.3407 13.7406 17.2821 9.60156C17.3878 9.37644 17.5786 9.20251 17.8125 9.11805C18.0464 9.03359 18.3043 9.0455 18.5294 9.15117C18.7545 9.25684 18.9284 9.44762 19.0129 9.68153C19.0974 9.91543 19.0855 10.1733 18.9798 10.3984H18.9735Z" fill="#191F2E"/>
</svg>
