<svg width="20" height="20" viewBox="0 0 20 20" fill="none" xmlns="http://www.w3.org/2000/svg">
<path d="M2.18749 5.62499C2.18739 5.50184 2.21156 5.37988 2.25861 5.26607C2.30566 5.15226 2.37468 5.04884 2.46171 4.96171C2.81328 4.63753 3.21145 4.36787 3.64296 4.16171C4.65001 3.6742 5.7562 3.42633 6.87499 3.43749C8.40858 3.43749 9.53124 4.18515 10.5203 4.84374C11.3992 5.42968 12.1609 5.93749 13.125 5.93749C15.1641 5.93749 16.1781 4.99453 16.2203 4.95468C16.306 4.86858 16.4081 4.80056 16.5205 4.75466C16.633 4.70877 16.7535 4.68592 16.875 4.68749C17.0605 4.68735 17.2419 4.74225 17.3962 4.84526C17.5505 4.94826 17.6708 5.09473 17.7418 5.26613C17.8128 5.43753 17.8314 5.62614 17.7952 5.80809C17.7589 5.99005 17.6695 6.15716 17.5383 6.28828C17.1867 6.61246 16.7885 6.88212 16.357 7.08828C15.35 7.57578 14.2438 7.82366 13.125 7.81249C11.5914 7.81249 10.4687 7.06484 9.47968 6.40624C8.60077 5.82031 7.83905 5.31249 6.87499 5.31249C4.83593 5.31249 3.82812 6.24999 3.78827 6.28828C3.65716 6.41954 3.49004 6.50894 3.30809 6.54518C3.12614 6.58141 2.93752 6.56285 2.76612 6.49183C2.59473 6.42081 2.44826 6.30053 2.34525 6.14623C2.24225 5.99192 2.18734 5.81052 2.18749 5.62499ZM16.875 13.4375C16.7535 13.4359 16.633 13.4588 16.5205 13.5047C16.4081 13.5506 16.306 13.6186 16.2203 13.7047C16.1781 13.7445 15.1641 14.6875 13.125 14.6875C12.1586 14.6875 11.3992 14.1812 10.5203 13.5937C9.53046 12.9336 8.41093 12.1875 6.87499 12.1875C5.7562 12.1763 4.65001 12.4242 3.64296 12.9117C3.21145 13.1179 2.81328 13.3875 2.46171 13.7117C2.28559 13.8878 2.18665 14.1267 2.18665 14.3758C2.18665 14.6248 2.28559 14.8637 2.46171 15.0398C2.63783 15.216 2.8767 15.3149 3.12577 15.3149C3.37484 15.3149 3.61371 15.216 3.78983 15.0398C3.82812 15 4.83593 14.0625 6.87499 14.0625C7.8414 14.0625 8.60077 14.5687 9.47968 15.1562C10.4695 15.8164 11.5891 16.5625 13.125 16.5625C14.2438 16.5737 15.35 16.3258 16.357 15.8383C16.7885 15.6321 17.1867 15.3625 17.5383 15.0383C17.6695 14.9072 17.7589 14.74 17.7952 14.5581C17.8314 14.3761 17.8128 14.1875 17.7418 14.0161C17.6708 13.8447 17.5505 13.6983 17.3962 13.5953C17.2419 13.4923 17.0605 13.4373 16.875 13.4375ZM16.875 9.06249C16.7535 9.06092 16.633 9.08377 16.5205 9.12966C16.4081 9.17556 16.306 9.24358 16.2203 9.32968C16.1781 9.36953 15.1641 10.3125 13.125 10.3125C12.1586 10.3125 11.3992 9.80624 10.5203 9.21874C9.53046 8.55859 8.41093 7.81249 6.87499 7.81249C5.7562 7.80133 4.65001 8.0492 3.64296 8.53671C3.21145 8.74287 2.81328 9.01253 2.46171 9.33671C2.28559 9.51283 2.18665 9.7517 2.18665 10.0008C2.18665 10.2498 2.28559 10.4887 2.46171 10.6648C2.63783 10.841 2.8767 10.9399 3.12577 10.9399C3.37484 10.9399 3.61371 10.841 3.78983 10.6648C3.82812 10.625 4.83593 9.68749 6.87499 9.68749C7.8414 9.68749 8.60077 10.1937 9.47968 10.7812C10.4695 11.4414 11.5891 12.1875 13.125 12.1875C14.2438 12.1987 15.35 11.9508 16.357 11.4633C16.7885 11.2571 17.1867 10.9875 17.5383 10.6633C17.6695 10.5322 17.7589 10.365 17.7952 10.1831C17.8314 10.0011 17.8128 9.81253 17.7418 9.64113C17.6708 9.46973 17.5505 9.32326 17.3962 9.22026C17.2419 9.11725 17.0605 9.06235 16.875 9.06249Z" fill="#191F2E"/>
</svg>
