<svg width="20" height="20" viewBox="0 0 20 20" fill="none" xmlns="http://www.w3.org/2000/svg">
<path d="M18.6313 10.3657L14.5688 15.9907C14.5109 16.0713 14.4347 16.137 14.3464 16.1823C14.2581 16.2277 14.1603 16.2513 14.061 16.2513C13.9617 16.2513 13.8639 16.2277 13.7756 16.1823C13.6873 16.137 13.611 16.0713 13.5532 15.9907L5.93756 5.44222L2.38209 10.3641C2.33408 10.4308 2.2734 10.4874 2.20352 10.5306C2.13364 10.5738 2.05593 10.6029 1.97482 10.6161C1.89371 10.6293 1.8108 10.6264 1.73082 10.6075C1.65083 10.5887 1.57534 10.5543 1.50865 10.5063C1.44197 10.4583 1.38539 10.3976 1.34215 10.3277C1.29892 10.2578 1.26987 10.1801 1.25667 10.099C1.24346 10.0179 1.24636 9.93499 1.2652 9.855C1.28404 9.77502 1.31845 9.69953 1.36647 9.63284L5.42897 4.00784C5.48683 3.92719 5.56307 3.86149 5.65138 3.81616C5.73969 3.77083 5.83752 3.74719 5.93678 3.74719C6.03604 3.74719 6.13387 3.77083 6.22218 3.81616C6.31049 3.86149 6.38673 3.92719 6.44459 4.00784L14.0626 14.5547L17.618 9.63284C17.666 9.56616 17.7267 9.50958 17.7966 9.46634C17.8665 9.42311 17.9442 9.39406 18.0253 9.38085C18.1064 9.36765 18.1893 9.37055 18.2693 9.38939C18.3493 9.40823 18.4248 9.44264 18.4915 9.49065C18.5582 9.53867 18.6147 9.59935 18.658 9.66923C18.7012 9.73911 18.7303 9.81682 18.7435 9.89792C18.7567 9.97903 18.7538 10.0619 18.7349 10.1419C18.7161 10.2219 18.6817 10.2974 18.6337 10.3641L18.6313 10.3657Z" fill="#191F2E"/>
</svg>
