<svg width="20" height="20" viewBox="0 0 20 20" fill="none" xmlns="http://www.w3.org/2000/svg">
<path d="M16.875 3.125H3.125C2.79348 3.125 2.47554 3.2567 2.24112 3.49112C2.0067 3.72554 1.875 4.04348 1.875 4.375V15.625C1.875 15.9565 2.0067 16.2745 2.24112 16.5089C2.47554 16.7433 2.79348 16.875 3.125 16.875H16.875C17.2065 16.875 17.5245 16.7433 17.7589 16.5089C17.9933 16.2745 18.125 15.9565 18.125 15.625V4.375C18.125 4.04348 17.9933 3.72554 17.7589 3.49112C17.5245 3.2567 17.2065 3.125 16.875 3.125ZM16.1055 10.4L12.9805 14.15C12.9218 14.2205 12.8483 14.2771 12.7653 14.316C12.6823 14.3549 12.5917 14.375 12.5 14.375H12.4664C12.3693 14.3698 12.2747 14.3421 12.1902 14.2939C12.1057 14.2458 12.0336 14.1786 11.9797 14.0977L7.44844 7.29375L4.85547 10.4C4.74938 10.5274 4.59702 10.6075 4.4319 10.6226C4.26678 10.6377 4.10243 10.5866 3.975 10.4805C3.84757 10.3744 3.76751 10.222 3.75241 10.0569C3.73732 9.89178 3.78844 9.72743 3.89453 9.6L7.01953 5.85C7.08176 5.77515 7.16061 5.71588 7.2498 5.67689C7.33899 5.63791 7.43605 5.62029 7.53325 5.62545C7.63045 5.63061 7.7251 5.6584 7.80966 5.70661C7.89422 5.75482 7.96636 5.82211 8.02031 5.90312L12.5555 12.707L15.1445 9.6C15.1971 9.5369 15.2615 9.48477 15.3342 9.44658C15.4069 9.40839 15.4863 9.38489 15.5681 9.37741C15.6499 9.36994 15.7323 9.37865 15.8107 9.40303C15.8891 9.42742 15.9619 9.467 16.025 9.51953C16.0881 9.57206 16.1402 9.6365 16.1784 9.70918C16.2166 9.78185 16.2401 9.86134 16.2476 9.9431C16.2551 10.0249 16.2464 10.1073 16.222 10.1857C16.1976 10.2641 16.158 10.3369 16.1055 10.4Z" fill="#191F2E"/>
</svg>
