<svg width="20" height="20" viewBox="0 0 20 20" fill="none" xmlns="http://www.w3.org/2000/svg">
<path d="M16.875 3.125H3.125C2.79348 3.125 2.47554 3.2567 2.24112 3.49112C2.0067 3.72554 1.875 4.04348 1.875 4.375V15.625C1.875 15.9565 2.0067 16.2745 2.24112 16.5089C2.47554 16.7433 2.79348 16.875 3.125 16.875H16.875C17.2065 16.875 17.5245 16.7433 17.7589 16.5089C17.9933 16.2745 18.125 15.9565 18.125 15.625V4.375C18.125 4.04348 17.9933 3.72554 17.7589 3.49112C17.5245 3.2567 17.2065 3.125 16.875 3.125ZM16.5016 10.2688C15.1984 13.0031 14.075 14.2188 12.857 14.2188C11.3195 14.2188 10.4047 12.3 9.43594 10.2688C8.75 8.82812 7.89062 7.03125 7.14297 7.03125C6.85078 7.03125 6.02031 7.34375 4.62656 10.2688C4.55283 10.4143 4.42513 10.5252 4.27074 10.5778C4.11634 10.6305 3.94748 10.6206 3.80022 10.5505C3.65296 10.4803 3.53896 10.3554 3.48258 10.2023C3.42619 10.0492 3.43188 9.88018 3.49844 9.73125C4.80156 6.99922 5.925 5.78125 7.14297 5.78125C8.68047 5.78125 9.59531 7.7 10.5641 9.73125C11.25 11.1719 12.1094 12.9688 12.857 12.9688C13.1492 12.9688 13.9797 12.6562 15.3734 9.73125C15.4074 9.65515 15.4563 9.58661 15.5172 9.52969C15.5781 9.47276 15.6498 9.42859 15.728 9.39978C15.8062 9.37096 15.8894 9.35809 15.9727 9.36191C16.056 9.36573 16.1376 9.38617 16.2129 9.42202C16.2881 9.45788 16.3555 9.50842 16.4109 9.57068C16.4663 9.63295 16.5087 9.70567 16.5356 9.78456C16.5625 9.86346 16.5734 9.94695 16.5675 10.0301C16.5617 10.1133 16.5392 10.1944 16.5016 10.2688Z" fill="#191F2E"/>
</svg>
