<svg width="20" height="20" viewBox="0 0 20 20" fill="none" xmlns="http://www.w3.org/2000/svg">
<path d="M12.5 8.12504C12.5 8.6195 12.3534 9.10285 12.0787 9.51397C11.804 9.92509 11.4135 10.2455 10.9567 10.4347C10.4999 10.624 9.99723 10.6735 9.51227 10.577C9.02732 10.4805 8.58186 10.2424 8.23223 9.89281C7.8826 9.54318 7.6445 9.09772 7.54804 8.61277C7.45157 8.12782 7.50108 7.62515 7.6903 7.16833C7.87952 6.71152 8.19995 6.32107 8.61107 6.04637C9.0222 5.77167 9.50555 5.62504 10 5.62504C10.663 5.62504 11.2989 5.88844 11.7678 6.35728C12.2366 6.82612 12.5 7.462 12.5 8.12504ZM18.125 16.25C18.125 16.4158 18.0592 16.5748 17.9419 16.692C17.8247 16.8092 17.6658 16.875 17.5 16.875H2.5C2.33424 16.875 2.17527 16.8092 2.05806 16.692C1.94085 16.5748 1.875 16.4158 1.875 16.25C1.875 16.0843 1.94085 15.9253 2.05806 15.8081C2.17527 15.6909 2.33424 15.625 2.5 15.625H9.375V14.3438C7.7796 14.1835 6.30685 13.4161 5.26135 12.2004C4.21584 10.9847 3.67756 9.41365 3.75784 7.81223C3.83811 6.2108 4.53079 4.70149 5.69263 3.59643C6.85446 2.49138 8.39656 1.87512 10 1.87512C11.6034 1.87512 13.1455 2.49138 14.3074 3.59643C15.4692 4.70149 16.1619 6.2108 16.2422 7.81223C16.3224 9.41365 15.7842 10.9847 14.7387 12.2004C13.6931 13.4161 12.2204 14.1835 10.625 14.3438V15.625H17.5C17.6658 15.625 17.8247 15.6909 17.9419 15.8081C18.0592 15.9253 18.125 16.0843 18.125 16.25ZM10 11.875C10.7417 11.875 11.4667 11.6551 12.0834 11.2431C12.7001 10.831 13.1807 10.2453 13.4645 9.56011C13.7484 8.87488 13.8226 8.12088 13.6779 7.39345C13.5333 6.66603 13.1761 5.99784 12.6517 5.47339C12.1272 4.94895 11.459 4.59179 10.7316 4.4471C10.0042 4.3024 9.25016 4.37667 8.56494 4.6605C7.87971 4.94432 7.29404 5.42497 6.88199 6.04165C6.46993 6.65834 6.25 7.38336 6.25 8.12504C6.25103 9.11929 6.64645 10.0725 7.34949 10.7756C8.05253 11.4786 9.00576 11.874 10 11.875Z" fill="#191F2E"/>
</svg>
