<svg width="20" height="20" viewBox="0 0 20 20" fill="none" xmlns="http://www.w3.org/2000/svg">
<path d="M16.9438 16.2445L4.44375 2.49449C4.36142 2.40169 4.26149 2.32615 4.14975 2.27225C4.03801 2.21835 3.91668 2.18716 3.7928 2.1805C3.66892 2.17383 3.54495 2.19182 3.42807 2.23342C3.3112 2.27502 3.20374 2.33941 3.11193 2.42284C3.02012 2.50628 2.94578 2.60711 2.89322 2.71949C2.84067 2.83186 2.81094 2.95356 2.80576 3.07751C2.80058 3.20146 2.82005 3.32521 2.86305 3.44158C2.90605 3.55795 2.97172 3.66463 3.05625 3.75543L4.21328 5.02809C3.71581 5.95779 3.44968 6.99367 3.43744 8.04803C3.4252 9.10239 3.6672 10.1442 4.14295 11.0852C4.6187 12.0262 5.31419 12.8387 6.17054 13.4539C7.02689 14.0691 8.01887 14.4689 9.0625 14.6195V15.3125H2.5C2.25136 15.3125 2.0129 15.4112 1.83709 15.5871C1.66127 15.7629 1.5625 16.0013 1.5625 16.25C1.5625 16.4986 1.66127 16.7371 1.83709 16.9129C2.0129 17.0887 2.25136 17.1875 2.5 17.1875H15.2672L15.5562 17.5054C15.7243 17.686 15.9568 17.793 16.2033 17.8033C16.4498 17.8136 16.6904 17.7264 16.873 17.5604C17.0555 17.3945 17.1653 17.1633 17.1786 16.917C17.1918 16.6707 17.1075 16.429 16.9438 16.2445ZM5.3125 8.12496C5.31188 7.58465 5.40492 7.04833 5.5875 6.53981L6.59609 7.64918C6.52806 8.13602 6.56523 8.63179 6.70509 9.10305C6.84496 9.5743 7.08428 10.0101 7.4069 10.381C7.72951 10.7519 8.12793 11.0493 8.57526 11.2531C9.02259 11.4569 9.50843 11.5624 10 11.5625C10.05 11.5625 10.1 11.5625 10.15 11.5586L11.1578 12.6671C10.4658 12.8435 9.74258 12.8595 9.04345 12.7138C8.34431 12.568 7.68772 12.2645 7.1238 11.8263C6.55988 11.3881 6.10354 10.8268 5.78962 10.1853C5.4757 9.54384 5.31251 8.83913 5.3125 8.12496ZM10.9375 15.3125V14.6195C11.4856 14.5404 12.0216 14.3927 12.5328 14.1796L13.5625 15.3125H10.9375ZM6.94453 3.30856C6.89651 3.19519 6.8713 3.07347 6.87032 2.95036C6.86934 2.82725 6.89263 2.70515 6.93884 2.59103C6.98505 2.47692 7.05329 2.37302 7.13965 2.28528C7.22602 2.19754 7.32882 2.12766 7.44219 2.07965C8.69466 1.54894 10.0811 1.42054 11.4097 1.71221C12.7384 2.00389 13.9435 2.70122 14.8585 3.70776C15.7735 4.7143 16.3531 5.9803 16.5172 7.33064C16.6812 8.68098 16.4216 10.0489 15.7742 11.2453C15.6938 11.394 15.5746 11.5181 15.4294 11.6046C15.2842 11.6911 15.1183 11.7368 14.9492 11.7367C14.7936 11.737 14.6405 11.698 14.5039 11.6234C14.2854 11.505 14.1228 11.3047 14.0519 11.0665C13.981 10.8283 14.0076 10.5717 14.1258 10.3531C14.5884 9.49847 14.7739 8.52122 14.6567 7.55653C14.5396 6.59184 14.1255 5.68742 13.4717 4.9684C12.818 4.24938 11.957 3.7513 11.0078 3.54309C10.0586 3.33488 9.0681 3.42683 8.17344 3.80621C8.06007 3.85423 7.93835 3.87945 7.81524 3.88042C7.69213 3.8814 7.57003 3.85812 7.45591 3.8119C7.3418 3.76569 7.2379 3.69746 7.15016 3.61109C7.06242 3.52473 6.99254 3.42192 6.94453 3.30856ZM13.4375 8.09684C13.4385 8.21995 13.4153 8.34206 13.3691 8.4562C13.323 8.57034 13.2548 8.67427 13.1684 8.76205C13.0821 8.84983 12.9793 8.91975 12.866 8.96781C12.7526 9.01587 12.6309 9.04113 12.5078 9.04215H12.5C12.2526 9.04216 12.0152 8.94435 11.8396 8.77005C11.6639 8.59576 11.5644 8.3591 11.5625 8.11168C11.5594 7.72735 11.4147 7.35767 11.1561 7.0733C10.8975 6.78894 10.5432 6.60985 10.1609 6.57027C10.0362 6.5608 9.9146 6.52645 9.80334 6.46926C9.69207 6.41207 9.59338 6.33318 9.51307 6.23725C9.43277 6.14132 9.37247 6.03029 9.33575 5.9107C9.29902 5.79111 9.2866 5.66537 9.29922 5.54091C9.31183 5.41644 9.34924 5.29576 9.40922 5.18597C9.4692 5.07618 9.55056 4.97951 9.64848 4.90165C9.7464 4.82379 9.85892 4.76632 9.9794 4.73262C10.0999 4.69892 10.2259 4.68968 10.35 4.70543C11.1924 4.79023 11.9737 5.18346 12.5436 5.80951C13.1136 6.43556 13.4319 7.25023 13.4375 8.09684Z" fill="#191F2E"/>
</svg>
