<svg width="20" height="20" viewBox="0 0 20 20" fill="none" xmlns="http://www.w3.org/2000/svg">
<path d="M13.125 8.12505C13.125 7.50698 12.9417 6.9028 12.5983 6.38889C12.255 5.87499 11.7669 5.47445 11.1959 5.23793C10.6249 5.0014 9.99653 4.93952 9.39034 5.06009C8.78415 5.18067 8.22733 5.4783 7.79029 5.91534C7.35325 6.35238 7.05562 6.9092 6.93505 7.51539C6.81447 8.12158 6.87635 8.74992 7.11288 9.32093C7.3494 9.89195 7.74994 10.38 8.26384 10.7234C8.77775 11.0668 9.38193 11.25 10 11.25C10.8288 11.25 11.6237 10.9208 12.2097 10.3348C12.7958 9.74871 13.125 8.95385 13.125 8.12505ZM8.75 8.12505C8.75 7.87782 8.82331 7.63615 8.96066 7.43059C9.09801 7.22502 9.29324 7.06481 9.52165 6.9702C9.75005 6.87559 10.0014 6.85084 10.2439 6.89907C10.4863 6.9473 10.7091 7.06635 10.8839 7.24117C11.0587 7.41598 11.1778 7.63871 11.226 7.88119C11.2742 8.12366 11.2495 8.375 11.1549 8.6034C11.0602 8.83181 10.9 9.02703 10.6945 9.16439C10.4889 9.30174 10.2472 9.37505 10 9.37505C9.66848 9.37505 9.35054 9.24335 9.11612 9.00893C8.8817 8.77451 8.75 8.45657 8.75 8.12505ZM17.5 15.3125H10.9375V14.6196C12.5796 14.3826 14.071 13.5324 15.1115 12.2401C16.152 10.9478 16.6645 9.3093 16.5457 7.65443C16.4268 5.99956 15.6856 4.45111 14.4711 3.32072C13.2567 2.19032 11.6591 1.56189 10 1.56189C8.34087 1.56189 6.74332 2.19032 5.52885 3.32072C4.31439 4.45111 3.57316 5.99956 3.45435 7.65443C3.33553 9.3093 3.84795 10.9478 4.88847 12.2401C5.929 13.5324 7.42039 14.3826 9.0625 14.6196V15.3125H2.5C2.25136 15.3125 2.0129 15.4113 1.83709 15.5871C1.66127 15.763 1.5625 16.0014 1.5625 16.25C1.5625 16.4987 1.66127 16.7371 1.83709 16.913C2.0129 17.0888 2.25136 17.1875 2.5 17.1875H17.5C17.7486 17.1875 17.9871 17.0888 18.1629 16.913C18.3387 16.7371 18.4375 16.4987 18.4375 16.25C18.4375 16.0014 18.3387 15.763 18.1629 15.5871C17.9871 15.4113 17.7486 15.3125 17.5 15.3125ZM5.3125 8.12505C5.3125 7.19795 5.58742 6.29167 6.10249 5.52081C6.61756 4.74996 7.34964 4.14915 8.20617 3.79436C9.0627 3.43958 10.0052 3.34675 10.9145 3.52762C11.8238 3.70849 12.659 4.15493 13.3146 4.81049C13.9701 5.46604 14.4166 6.30128 14.5974 7.21056C14.7783 8.11985 14.6855 9.06235 14.3307 9.91888C13.9759 10.7754 13.3751 11.5075 12.6042 12.0226C11.8334 12.5376 10.9271 12.8125 10 12.8125C8.75724 12.8111 7.5658 12.3168 6.68704 11.438C5.80827 10.5592 5.31395 9.36781 5.3125 8.12505Z" fill="#191F2E"/>
</svg>
