<svg width="20" height="20" viewBox="0 0 20 20" fill="none" xmlns="http://www.w3.org/2000/svg">
<path d="M16.7125 16.4547L12.3438 11.65L4.2125 2.70472C4.15761 2.64285 4.09099 2.59248 4.0165 2.55655C3.94201 2.52062 3.86112 2.49983 3.77854 2.49538C3.69595 2.49094 3.6133 2.50293 3.53538 2.53067C3.45746 2.5584 3.38582 2.60132 3.32462 2.65695C3.26341 2.71257 3.21385 2.77979 3.17881 2.85471C3.14378 2.92963 3.12396 3.01076 3.1205 3.09339C3.11705 3.17603 3.13004 3.25852 3.1587 3.33611C3.18737 3.41369 3.23115 3.4848 3.2875 3.54534L4.59531 4.9844C4.06986 5.88848 3.77964 6.90996 3.75124 7.95526C3.72284 9.00056 3.95717 10.0363 4.43276 10.9676C4.90835 11.8988 5.61 12.6959 6.47344 13.2858C7.33689 13.8756 8.33454 14.2394 9.375 14.3438V15.625H2.5C2.33424 15.625 2.17527 15.6909 2.05806 15.8081C1.94085 15.9253 1.875 16.0843 1.875 16.25C1.875 16.4158 1.94085 16.5748 2.05806 16.692C2.17527 16.8092 2.33424 16.875 2.5 16.875H15.4055L15.7875 17.2953C15.8424 17.3572 15.909 17.4076 15.9835 17.4435C16.058 17.4794 16.1389 17.5002 16.2215 17.5047C16.3041 17.5091 16.3867 17.4971 16.4646 17.4694C16.5425 17.4417 16.6142 17.3987 16.6754 17.3431C16.7366 17.2875 16.7861 17.2203 16.8212 17.1453C16.8562 17.0704 16.876 16.9893 16.8795 16.9067C16.8829 16.824 16.87 16.7415 16.8413 16.664C16.8126 16.5864 16.7689 16.5153 16.7125 16.4547ZM6.25 8.12503C6.25065 7.74228 6.30966 7.36186 6.425 6.9969L7.5 8.1805C7.51352 8.78283 7.74411 9.36002 8.14933 9.80587C8.55456 10.2517 9.10716 10.5362 9.70547 10.6071L10.7812 11.7922C10.2348 11.9086 9.66922 11.9014 9.12589 11.7712C8.58256 11.641 8.07519 11.391 7.64088 11.0395C7.20657 10.688 6.85629 10.2439 6.61565 9.73964C6.37501 9.2354 6.25008 8.68375 6.25 8.12503ZM10.625 15.625V14.343C11.3128 14.2743 11.9845 14.0919 12.6125 13.8032L14.2688 15.625H10.625ZM6.7625 3.65159C6.69952 3.58207 6.65299 3.49926 6.62638 3.40931C6.59976 3.31936 6.59373 3.22457 6.60874 3.13198C6.62374 3.03938 6.6594 2.95135 6.71307 2.87441C6.76674 2.79747 6.83703 2.7336 6.91875 2.68753C8.15279 1.98686 9.58854 1.72701 10.9899 1.95071C12.3912 2.17441 13.6747 2.86833 14.6293 3.91836C15.5839 4.9684 16.1527 6.31202 16.2422 7.72828C16.3317 9.14453 15.9366 10.5491 15.1219 11.711C15.068 11.7877 14.9976 11.8514 14.9157 11.8973C14.8339 11.9431 14.7428 11.97 14.6492 11.9758H14.6102C14.5231 11.9758 14.4369 11.9576 14.3573 11.9223C14.2776 11.8871 14.2062 11.8356 14.1477 11.7711L13.2812 10.8172C13.1904 10.7174 13.1343 10.5909 13.1213 10.4565C13.1084 10.3222 13.1393 10.1872 13.2094 10.0719C13.6303 9.38013 13.816 8.5707 13.7387 7.76463C13.6614 6.95857 13.3252 6.19918 12.7805 5.60003C12.2358 5.00087 11.5117 4.59414 10.7166 4.44064C9.92155 4.28714 9.09814 4.39514 8.36953 4.74847C8.24794 4.80864 8.11007 4.82762 7.97674 4.80253C7.84342 4.77744 7.72187 4.70965 7.63047 4.6094L6.7625 3.65159ZM10 5.62503C10.663 5.62503 11.2989 5.88842 11.7678 6.35726C12.2366 6.8261 12.5 7.46199 12.5 8.12503C12.4997 8.21767 12.4948 8.31023 12.4852 8.40237C12.472 8.52207 12.4246 8.63542 12.3486 8.7288C12.2726 8.82218 12.1712 8.89162 12.0566 8.92875C11.9421 8.96589 11.8193 8.96915 11.7029 8.93813C11.5866 8.90712 11.4816 8.84316 11.4008 8.75393L9.50703 6.67034C9.42613 6.58133 9.37263 6.47087 9.35295 6.35221C9.33327 6.23356 9.34825 6.11174 9.39609 6.00138C9.44392 5.89102 9.52259 5.79681 9.62264 5.73006C9.7227 5.6633 9.83989 5.62683 9.96016 5.62503H10Z" fill="#191F2E"/>
</svg>
