<svg width="20" height="20" viewBox="0 0 20 20" fill="none" xmlns="http://www.w3.org/2000/svg">
<path d="M3.91788 13.1251L6.9585 7.85714L6.7835 7.55401C6.52191 7.11514 6.35276 6.62743 6.28644 6.12083C6.22011 5.61423 6.25801 5.09942 6.39781 4.60799C6.5376 4.11657 6.77634 3.65889 7.09938 3.26305C7.42242 2.86721 7.82294 2.54156 8.27636 2.30607C8.72978 2.07059 9.22654 1.93025 9.73615 1.89366C10.2458 1.85707 10.7575 1.92501 11.2399 2.0933C11.7223 2.26159 12.1652 2.52668 12.5415 2.87231C12.9178 3.21794 13.2195 3.63682 13.428 4.10323C13.4935 4.24564 13.5043 4.40715 13.4583 4.55699C13.4123 4.70683 13.3129 4.83452 13.1788 4.91573C13.1026 4.95998 13.0179 4.98761 12.9303 4.99682C12.8426 5.00603 12.7541 4.9966 12.6703 4.96916C12.5866 4.94171 12.5096 4.89687 12.4444 4.83758C12.3792 4.77828 12.3273 4.70588 12.2921 4.62511C12.1542 4.31335 11.9539 4.0331 11.7037 3.80158C11.4534 3.57007 11.1585 3.39217 10.837 3.27884C10.5155 3.16551 10.1742 3.11914 9.83405 3.14257C9.49395 3.166 9.16223 3.25874 8.85929 3.41509C8.55635 3.57145 8.28859 3.78811 8.07247 4.05175C7.85635 4.3154 7.69643 4.62046 7.60255 4.94819C7.50866 5.27592 7.4828 5.61938 7.52655 5.95747C7.5703 6.29556 7.68273 6.62113 7.85694 6.91417C7.85947 6.91726 7.86157 6.92068 7.86319 6.92433L8.94366 8.79464C8.99851 8.88965 9.02739 8.99743 9.02739 9.10714C9.02739 9.21685 8.99851 9.32463 8.94366 9.41964L6.08272 14.3751C5.91478 14.6578 5.64219 14.863 5.32402 14.9461C5.00586 15.0293 4.66775 14.9837 4.38296 14.8193C4.09818 14.6548 3.88966 14.3848 3.80261 14.0677C3.71555 13.7505 3.75696 13.4119 3.91788 13.1251ZM14.9335 10.0001H13.9694L11.0827 5.00011C10.9148 4.71737 10.6422 4.51221 10.324 4.42907C10.0059 4.34593 9.66775 4.39152 9.38296 4.55596C9.09818 4.7204 8.88966 4.99043 8.80261 5.30755C8.71555 5.62467 8.75696 5.96332 8.91788 6.25011L11.6241 10.9376C11.6789 11.0325 11.7577 11.1114 11.8526 11.1662C11.9475 11.2211 12.0551 11.25 12.1648 11.2501H14.9483C16.346 11.2501 17.5226 12.3939 17.4999 13.7915C17.4891 14.4432 17.2243 15.0649 16.7618 15.5241C16.2994 15.9834 15.6759 16.2439 15.0241 16.2501C14.8644 16.2482 14.7098 16.3057 14.5902 16.4116C14.4706 16.5175 14.3947 16.664 14.3772 16.8228C14.37 16.9091 14.3808 16.9961 14.4089 17.078C14.4371 17.16 14.4819 17.2353 14.5407 17.2989C14.5995 17.3626 14.6709 17.4134 14.7503 17.4481C14.8298 17.4827 14.9156 17.5004 15.0022 17.5001C15.5007 17.4997 15.9941 17.4 16.4537 17.2068C16.9132 17.0136 17.3297 16.7309 17.6787 16.375C18.0278 16.0192 18.3025 15.5974 18.4868 15.1342C18.6712 14.6711 18.7614 14.1758 18.7523 13.6775C18.7101 11.6243 16.9905 10.0001 14.9366 10.0001H14.9335ZM16.2499 13.69C16.2187 13.0173 15.639 12.5001 14.9663 12.5001H8.96944C8.8597 12.5001 8.7519 12.529 8.65686 12.5838C8.56182 12.6387 8.4829 12.7176 8.42803 12.8126L7.16553 15.0001C6.99513 15.294 6.76663 15.55 6.49398 15.7526C6.22133 15.9552 5.91026 16.1001 5.57974 16.1785C5.24923 16.2569 4.90621 16.2671 4.57162 16.2085C4.23703 16.1499 3.9179 16.0237 3.63369 15.8377C3.34948 15.6516 3.10617 15.4096 2.9186 15.1264C2.73102 14.8432 2.60313 14.5248 2.54273 14.1905C2.48232 13.8563 2.49066 13.5132 2.56725 13.1823C2.64384 12.8513 2.78707 12.5395 2.98819 12.2657C3.08533 12.1392 3.1318 11.9811 3.1185 11.8221C3.10521 11.6632 3.03312 11.515 2.91631 11.4064C2.85174 11.3488 2.77592 11.3053 2.69367 11.2786C2.61141 11.2519 2.5245 11.2425 2.43844 11.2511C2.35237 11.2597 2.26903 11.286 2.19368 11.3285C2.11833 11.371 2.05261 11.4286 2.00069 11.4978C1.51859 12.1366 1.2553 12.9139 1.24991 13.7142C1.24249 14.5423 1.5094 15.3496 2.009 16.01C2.5086 16.6705 3.21278 17.147 4.01166 17.3653C4.81055 17.5835 5.65919 17.5311 6.42518 17.2163C7.19117 16.9015 7.83141 16.342 8.246 15.6251L8.60694 15.0001H14.9999C15.1692 15.0003 15.3369 14.9661 15.4926 14.8995C15.6483 14.833 15.7889 14.7355 15.9058 14.613C16.0227 14.4905 16.1134 14.3455 16.1726 14.1868C16.2318 14.0281 16.2581 13.8591 16.2499 13.69Z" fill="#191F2E"/>
</svg>
