<svg width="20" height="20" viewBox="0 0 20 20" fill="none" xmlns="http://www.w3.org/2000/svg">
<path d="M13.9187 14.3751H8.69684C8.60224 14.9349 8.38178 15.4659 8.05206 15.9281C7.72235 16.3902 7.29199 16.7715 6.79346 17.0431C6.29492 17.3148 5.74122 17.4697 5.17411 17.4961C4.60699 17.5226 4.04127 17.42 3.5196 17.196C2.99793 16.9719 2.53393 16.6324 2.1626 16.2029C1.79127 15.7735 1.5223 15.2653 1.37597 14.7168C1.22964 14.1682 1.20977 13.5936 1.31786 13.0362C1.42596 12.4789 1.65919 11.9534 1.99997 11.4993C2.04927 11.4336 2.11101 11.3783 2.18168 11.3365C2.25236 11.2947 2.33057 11.2673 2.41186 11.2557C2.49314 11.2441 2.57591 11.2487 2.65544 11.2691C2.73497 11.2895 2.8097 11.3254 2.87536 11.3747C2.94102 11.424 2.99633 11.4857 3.03813 11.5564C3.07992 11.6271 3.10739 11.7053 3.11896 11.7866C3.13053 11.8679 3.12598 11.9506 3.10556 12.0301C3.08515 12.1097 3.04927 12.1844 2.99997 12.2501C2.67383 12.682 2.4982 13.2089 2.49997 13.7501C2.49997 14.4131 2.76336 15.049 3.2322 15.5178C3.70104 15.9867 4.33693 16.2501 4.99997 16.2501C5.66301 16.2501 6.2989 15.9867 6.76774 15.5178C7.23658 15.049 7.49997 14.4131 7.49997 13.7501C7.49997 13.5843 7.56582 13.4253 7.68303 13.3081C7.80024 13.1909 7.95921 13.1251 8.12497 13.1251H13.9187C14.0563 12.8868 14.2687 12.7005 14.5229 12.5952C14.7771 12.4899 15.059 12.4714 15.3248 12.5427C15.5906 12.6139 15.8254 12.7708 15.9929 12.9891C16.1605 13.2074 16.2513 13.4749 16.2513 13.7501C16.2513 14.0252 16.1605 14.2927 15.9929 14.511C15.8254 14.7293 15.5906 14.8863 15.3248 14.9575C15.059 15.0287 14.7771 15.0102 14.5229 14.9049C14.2687 14.7996 14.0563 14.6134 13.9187 14.3751ZM4.99997 15.0001C5.21647 15.0001 5.42928 14.944 5.61755 14.8371C5.80582 14.7302 5.96311 14.5763 6.074 14.3903C6.18489 14.2044 6.24558 13.9928 6.25013 13.7764C6.25469 13.5599 6.20294 13.346 6.09997 13.1555L8.8945 8.61335C8.98123 8.47222 9.00839 8.30244 8.97001 8.1413C8.93163 7.98016 8.83085 7.84085 8.68981 7.75397C8.35575 7.54832 8.07478 7.26694 7.86961 6.93258C7.66444 6.59823 7.54083 6.22028 7.50878 5.8293C7.47673 5.43833 7.53714 5.0453 7.68512 4.68199C7.8331 4.31869 8.0645 3.9953 8.3606 3.73799C8.65671 3.48068 9.00922 3.29666 9.38962 3.20082C9.77001 3.10497 10.1676 3.09999 10.5503 3.18628C10.933 3.27256 11.29 3.44769 11.5925 3.6975C11.8949 3.94732 12.1343 4.2648 12.2914 4.62429C12.3577 4.77627 12.4816 4.89568 12.636 4.95627C12.7903 5.01685 12.9624 5.01364 13.1144 4.94733C13.2664 4.88103 13.3858 4.75707 13.4464 4.60271C13.507 4.44836 13.5038 4.27627 13.4375 4.12429C13.2123 3.60962 12.8744 3.15211 12.4488 2.78555C12.0231 2.419 11.5205 2.15276 10.9781 2.00651C10.4357 1.86026 9.8674 1.83774 9.31515 1.9406C8.76289 2.04346 8.2408 2.26909 7.78744 2.6008C7.33408 2.93252 6.96104 3.36185 6.69588 3.85708C6.43071 4.35231 6.2802 4.90079 6.25545 5.462C6.2307 6.02321 6.33236 6.58281 6.55291 7.09946C6.77345 7.61611 7.10725 8.07661 7.52966 8.44694L5.03434 12.5001C5.02262 12.5001 5.01169 12.5001 4.99997 12.5001C4.66845 12.5001 4.35051 12.6318 4.11609 12.8662C3.88166 13.1006 3.74997 13.4185 3.74997 13.7501C3.74997 14.0816 3.88166 14.3995 4.11609 14.634C4.35051 14.8684 4.66845 15.0001 4.99997 15.0001ZM15 10.0001C14.5181 10.0001 14.0407 10.0927 13.5937 10.2727L11.1 6.21882C11.2299 5.97802 11.2773 5.70123 11.2348 5.43091C11.1923 5.1606 11.0623 4.9117 10.8647 4.72241C10.6671 4.53312 10.4128 4.4139 10.1409 4.38304C9.86906 4.35218 9.59455 4.4114 9.35956 4.55159C9.12457 4.69178 8.94207 4.90522 8.84007 5.15913C8.73807 5.41305 8.72221 5.69341 8.79492 5.95721C8.86763 6.22101 9.0249 6.45366 9.24258 6.61947C9.46026 6.78527 9.72633 6.87506 9.99997 6.87507H10.0343L12.8297 11.418C12.9167 11.5589 13.056 11.6596 13.2172 11.6978C13.3783 11.736 13.548 11.7087 13.689 11.6219C14.0181 11.4191 14.3897 11.2953 14.7747 11.2603C15.1596 11.2253 15.5475 11.2801 15.9077 11.4203C16.2679 11.5605 16.5907 11.7823 16.8508 12.0684C17.1108 12.3544 17.301 12.6968 17.4063 13.0687C17.5116 13.4407 17.5293 13.8319 17.4579 14.2118C17.3865 14.5917 17.228 14.9499 16.9948 15.2582C16.7616 15.5665 16.4601 15.8165 16.114 15.9886C15.7678 16.1607 15.3865 16.2502 15 16.2501C14.8342 16.2501 14.6752 16.3159 14.558 16.4331C14.4408 16.5503 14.375 16.7093 14.375 16.8751C14.375 17.0408 14.4408 17.1998 14.558 17.317C14.6752 17.4342 14.8342 17.5001 15 17.5001C15.9945 17.5001 16.9484 17.105 17.6516 16.4017C18.3549 15.6985 18.75 14.7446 18.75 13.7501C18.75 12.7555 18.3549 11.8017 17.6516 11.0984C16.9484 10.3952 15.9945 10.0001 15 10.0001Z" fill="#191F2E"/>
</svg>
