<svg width="20" height="20" viewBox="0 0 20 20" fill="none" xmlns="http://www.w3.org/2000/svg">
<path d="M14.6546 11.3156L12.1546 10.0656C12.0562 10.0166 11.9466 9.99438 11.8369 10.0012C11.7271 10.0081 11.6212 10.0438 11.5296 10.1047L10.382 10.8703C9.85514 10.5807 9.42159 10.1471 9.13197 9.62031L9.8976 8.47266C9.95851 8.38112 9.99419 8.27514 10.0011 8.1654C10.0079 8.05567 9.9857 7.94606 9.93666 7.84766L8.68666 5.34766C8.63485 5.24302 8.55477 5.155 8.45549 5.09355C8.35621 5.0321 8.2417 4.9997 8.12494 5C7.29614 5 6.50128 5.32924 5.91523 5.91529C5.32918 6.50134 4.99994 7.2962 4.99994 8.125C5.00201 9.94773 5.727 11.6952 7.01587 12.9841C8.30473 14.2729 10.0522 14.9979 11.8749 15C12.2853 15 12.6917 14.9192 13.0708 14.7621C13.45 14.6051 13.7945 14.3749 14.0847 14.0847C14.3748 13.7945 14.605 13.45 14.7621 13.0709C14.9191 12.6917 14.9999 12.2854 14.9999 11.875C15 11.7589 14.9678 11.645 14.9068 11.5462C14.8458 11.4474 14.7585 11.3676 14.6546 11.3156ZM11.8749 13.75C10.3836 13.7483 8.95383 13.1552 7.89929 12.1006C6.84476 11.0461 6.2516 9.61633 6.24994 8.125C6.24982 7.6915 6.39991 7.27135 6.67468 6.93605C6.94944 6.60075 7.3319 6.37101 7.75697 6.28594L8.65385 8.08281L7.89057 9.21875C7.83353 9.30431 7.79848 9.40262 7.78853 9.50496C7.77859 9.60731 7.79404 9.71053 7.83354 9.80547C8.28071 10.8683 9.1262 11.7138 10.189 12.1609C10.2842 12.2022 10.3882 12.2191 10.4916 12.2101C10.595 12.2011 10.6945 12.1665 10.7812 12.1094L11.9226 11.3484L13.7195 12.2453C13.6337 12.6709 13.403 13.0535 13.0666 13.3279C12.7302 13.6023 12.3091 13.7515 11.8749 13.75ZM9.99994 1.875C8.59718 1.87469 7.21824 2.23757 5.99733 2.9283C4.77642 3.61904 3.75514 4.6141 3.03289 5.81664C2.31064 7.01918 1.91204 8.38822 1.87587 9.79052C1.8397 11.1928 2.16721 12.5806 2.8265 13.8188L1.93979 16.4789C1.86634 16.6992 1.85568 16.9355 1.909 17.1615C1.96233 17.3874 2.07753 17.5941 2.2417 17.7582C2.40587 17.9224 2.61252 18.0376 2.83848 18.0909C3.06444 18.1443 3.30079 18.1336 3.52104 18.0602L6.18119 17.1734C7.27086 17.753 8.47823 18.0767 9.71168 18.12C10.9451 18.1633 12.1722 17.925 13.2998 17.4232C14.4274 16.9215 15.4259 16.1694 16.2195 15.2241C17.013 14.2789 17.5808 13.1652 17.8797 11.9678C18.1786 10.7703 18.2008 9.52047 17.9446 8.31315C17.6883 7.10584 17.1604 5.97276 16.4009 4.99993C15.6414 4.02711 14.6702 3.24009 13.5611 2.69864C12.452 2.15718 11.2341 1.87551 9.99994 1.875ZM9.99994 16.875C8.79133 16.8758 7.60392 16.5575 6.55775 15.9523C6.48116 15.9079 6.396 15.8803 6.30791 15.8713C6.21983 15.8622 6.13083 15.872 6.04682 15.9L3.12494 16.875L4.09916 13.9531C4.12724 13.8692 4.13717 13.7802 4.12828 13.6921C4.11939 13.604 4.09189 13.5188 4.0476 13.4422C3.28976 12.132 2.9855 10.6083 3.182 9.10747C3.3785 7.60667 4.06478 6.21267 5.13439 5.14171C6.20399 4.07076 7.59712 3.38271 9.09767 3.18431C10.5982 2.98592 12.1223 3.28826 13.4335 4.04444C14.7447 4.80062 15.7697 5.96837 16.3494 7.36652C16.9292 8.76468 17.0314 10.3151 16.6401 11.7773C16.2488 13.2394 15.386 14.5316 14.1854 15.4533C12.9848 16.375 11.5135 16.8748 9.99994 16.875Z" fill="#191F2E"/>
</svg>
