<svg width="20" height="20" viewBox="0 0 20 20" fill="none" xmlns="http://www.w3.org/2000/svg">
<path d="M13.7501 6.5625C14.3063 6.5625 14.8501 6.39755 15.3126 6.08851C15.7751 5.77947 16.1356 5.34022 16.3485 4.8263C16.5613 4.31238 16.617 3.74688 16.5085 3.20131C16.4 2.65574 16.1321 2.1546 15.7388 1.76126C15.3455 1.36793 14.8443 1.10006 14.2987 0.991543C13.7532 0.883022 13.1877 0.938719 12.6738 1.15159C12.1598 1.36446 11.7206 1.72495 11.4115 2.18746C11.1025 2.64997 10.9376 3.19374 10.9376 3.75C10.9376 4.49592 11.2339 5.21129 11.7613 5.73874C12.2888 6.26618 13.0041 6.5625 13.7501 6.5625ZM13.7501 2.8125C13.9355 2.8125 14.1167 2.86748 14.2709 2.9705C14.4251 3.07351 14.5452 3.21993 14.6162 3.39124C14.6871 3.56254 14.7057 3.75104 14.6695 3.9329C14.6334 4.11476 14.5441 4.2818 14.413 4.41291C14.2819 4.54403 14.1148 4.63331 13.933 4.66949C13.7511 4.70566 13.5626 4.6871 13.3913 4.61614C13.22 4.54518 13.0736 4.42502 12.9706 4.27085C12.8675 4.11668 12.8126 3.93542 12.8126 3.75C12.8126 3.50136 12.9113 3.2629 13.0871 3.08709C13.263 2.91127 13.5014 2.8125 13.7501 2.8125ZM16.0376 10.343C16.126 10.4506 16.1893 10.5765 16.223 10.7116C16.2566 10.8468 16.2597 10.9877 16.2321 11.1242L14.9821 17.3742C14.939 17.5863 14.8239 17.7768 14.6563 17.9137C14.4887 18.0505 14.2789 18.1252 14.0626 18.125C14.0007 18.1252 13.9389 18.1192 13.8782 18.107C13.7574 18.0829 13.6426 18.0353 13.5402 17.9668C13.4379 17.8983 13.35 17.8104 13.2817 17.7079C13.2133 17.6055 13.1659 17.4906 13.1419 17.3698C13.118 17.249 13.1181 17.1247 13.1422 17.0039L14.1688 11.875H9.68755C9.52294 11.8751 9.3612 11.8319 9.21859 11.7496C9.07599 11.6674 8.95756 11.549 8.8752 11.4065C8.79285 11.264 8.74948 11.1023 8.74945 10.9377C8.74943 10.773 8.79275 10.6113 8.87505 10.4688L10.2751 8.03125C9.26195 7.57082 8.13996 7.40396 7.03671 7.54967C5.93346 7.69538 4.89326 8.1478 4.03443 8.85547C3.84188 9.00406 3.59911 9.07201 3.3574 9.04496C3.11568 9.0179 2.89394 8.89797 2.739 8.71048C2.58407 8.52299 2.50806 8.28263 2.52703 8.04015C2.546 7.79767 2.65847 7.57205 2.84068 7.41094C4.12373 6.35228 5.71119 5.73078 7.37196 5.63692C9.03273 5.54305 10.6801 5.98172 12.0743 6.88906C12.2743 7.01984 12.4168 7.22205 12.4727 7.45438C12.5286 7.68671 12.4937 7.93162 12.3751 8.13906L11.3079 10H15.3126C15.4512 9.99998 15.5882 10.0307 15.7136 10.09C15.839 10.1494 15.9496 10.2357 16.0376 10.343ZM12.7977 13.8211C12.7255 14.7581 12.3907 15.6557 11.8316 16.4111C11.2726 17.1665 10.512 17.749 9.63708 18.092C8.76214 18.4349 7.80827 18.5243 6.88484 18.35C5.96141 18.1756 5.1058 17.7445 4.41614 17.1062C3.72647 16.4679 3.23066 15.6481 2.98556 14.7409C2.74046 13.8336 2.75599 12.8757 3.03037 11.9769C3.30475 11.0781 3.82687 10.2748 4.53687 9.65918C5.24686 9.04353 6.11599 8.64042 7.04459 8.49609C7.29033 8.45818 7.54106 8.51943 7.74164 8.66638C7.94221 8.81334 8.0762 9.03395 8.11412 9.27969C8.15203 9.52543 8.09078 9.77617 7.94383 9.97674C7.79688 10.1773 7.57626 10.3113 7.33052 10.3492C6.75038 10.4398 6.20749 10.692 5.76407 11.0769C5.32066 11.4618 4.99465 11.9638 4.82341 12.5255C4.65217 13.0871 4.64264 13.6856 4.79589 14.2525C4.94915 14.8193 5.259 15.3315 5.68993 15.7303C6.12086 16.1291 6.65544 16.3985 7.2324 16.5075C7.80936 16.6165 8.40536 16.5608 8.9521 16.3466C9.49884 16.1325 9.9742 15.7687 10.3237 15.2969C10.6732 14.8251 10.8827 14.2643 10.9282 13.6789C10.9365 13.5554 10.9692 13.4348 11.0244 13.3239C11.0796 13.2131 11.1562 13.1144 11.2498 13.0333C11.3433 12.9523 11.452 12.8905 11.5696 12.8517C11.6871 12.8129 11.8112 12.7978 11.9347 12.8072C12.0581 12.8165 12.1784 12.8503 12.2888 12.9064C12.3991 12.9626 12.4972 13.04 12.5775 13.1343C12.6577 13.2286 12.7185 13.3378 12.7563 13.4557C12.7941 13.5735 12.8082 13.6977 12.7977 13.8211Z" fill="#191F2E"/>
</svg>
