<svg width="20" height="20" viewBox="0 0 20 20" fill="none" xmlns="http://www.w3.org/2000/svg">
<path d="M19.5726 15.5929L17.6976 16.2179C17.555 16.2657 17.3999 16.2603 17.2608 16.2029C17.1217 16.1455 17.0081 16.0399 16.9406 15.9054L14.6133 11.25H8.12499C7.95923 11.25 7.80026 11.1841 7.68305 11.0669C7.56584 10.9497 7.49999 10.7907 7.49999 10.625V8.30776C6.49326 8.6083 5.6283 9.26107 5.06321 10.1468C4.49811 11.0325 4.27061 12.092 4.4223 13.1316C4.57399 14.1712 5.09472 15.1215 5.88933 15.8089C6.68395 16.4962 7.69936 16.8746 8.74999 16.875C10.7742 16.875 12.6633 15.4648 13.1445 13.5937C13.165 13.5142 13.201 13.4395 13.2504 13.3739C13.2998 13.3083 13.3616 13.253 13.4323 13.2113C13.5031 13.1696 13.5813 13.1422 13.6626 13.1308C13.744 13.1193 13.8267 13.124 13.9062 13.1445C13.9857 13.165 14.0604 13.201 14.126 13.2504C14.1917 13.2998 14.2469 13.3616 14.2886 13.4323C14.3303 13.503 14.3577 13.5813 14.3692 13.6626C14.3806 13.7439 14.376 13.8267 14.3555 13.9062C13.7258 16.3515 11.3687 18.125 8.74999 18.125C7.36763 18.1241 6.03397 17.6143 5.00357 16.6928C3.97316 15.7713 3.31816 14.5026 3.16359 13.1289C3.00901 11.7552 3.36568 10.3727 4.16553 9.24528C4.96537 8.11782 6.15238 7.32436 7.49999 7.01636V5.53198C6.99645 5.38186 6.56377 5.0555 6.28107 4.61258C5.99837 4.16967 5.88455 3.6398 5.9604 3.11986C6.03626 2.59992 6.29674 2.12466 6.6942 1.78098C7.09166 1.4373 7.59955 1.24817 8.12499 1.24817C8.65043 1.24817 9.15832 1.4373 9.55578 1.78098C9.95324 2.12466 10.2137 2.59992 10.2896 3.11986C10.3654 3.6398 10.2516 4.16967 9.9689 4.61258C9.68621 5.0555 9.25353 5.38186 8.74999 5.53198V6.87495H13.125C13.2907 6.87495 13.4497 6.9408 13.5669 7.05801C13.6841 7.17522 13.75 7.33419 13.75 7.49995C13.75 7.66571 13.6841 7.82468 13.5669 7.94189C13.4497 8.0591 13.2907 8.12495 13.125 8.12495H8.74999V9.99995H15C15.116 10 15.2296 10.0323 15.3283 10.0933C15.4269 10.1543 15.5067 10.2415 15.5586 10.3453L17.8164 14.8609L19.1773 14.407C19.3346 14.3546 19.5062 14.3668 19.6545 14.4409C19.8028 14.515 19.9155 14.645 19.968 14.8023C20.0204 14.9596 20.0082 15.1312 19.934 15.2795C19.8599 15.4277 19.7299 15.5405 19.5726 15.5929Z" fill="#191F2E"/>
</svg>
