<svg width="20" height="20" viewBox="0 0 20 20" fill="none" xmlns="http://www.w3.org/2000/svg">
<path d="M11.25 3.75C11.25 3.25555 11.3966 2.7722 11.6713 2.36108C11.946 1.94995 12.3364 1.62952 12.7932 1.4403C13.2501 1.25108 13.7527 1.20157 14.2377 1.29804C14.7226 1.3945 15.1681 1.6326 15.5177 1.98223C15.8674 2.33187 16.1055 2.77732 16.2019 3.26228C16.2984 3.74723 16.2489 4.24989 16.0597 4.70671C15.8704 5.16352 15.55 5.55397 15.1389 5.82868C14.7278 6.10338 14.2444 6.25 13.75 6.25C13.0869 6.25 12.451 5.98661 11.9822 5.51777C11.5133 5.04893 11.25 4.41304 11.25 3.75ZM12.5 12.5C12.3342 12.5 12.1752 12.5658 12.058 12.6831C11.9408 12.8003 11.875 12.9592 11.875 13.125C11.875 13.8667 11.655 14.5917 11.243 15.2084C10.8309 15.8251 10.2452 16.3057 9.56002 16.5896C8.87479 16.8734 8.12079 16.9476 7.39336 16.8029C6.66594 16.6583 5.99775 16.3011 5.4733 15.7767C4.94886 15.2522 4.5917 14.584 4.44701 13.8566C4.30231 13.1292 4.37658 12.3752 4.6604 11.6899C4.94423 11.0047 5.42488 10.419 6.04156 10.007C6.65825 9.59494 7.38327 9.375 8.12495 9.375C8.29071 9.375 8.44968 9.30915 8.56689 9.19194C8.6841 9.07473 8.74995 8.91576 8.74995 8.75C8.74995 8.58424 8.6841 8.42527 8.56689 8.30806C8.44968 8.19085 8.29071 8.125 8.12495 8.125C7.13605 8.125 6.16935 8.41825 5.3471 8.96765C4.52486 9.51706 3.88399 10.298 3.50556 11.2116C3.12712 12.1252 3.0281 13.1305 3.22103 14.1005C3.41395 15.0704 3.89016 15.9613 4.58942 16.6605C5.28868 17.3598 6.1796 17.836 7.1495 18.0289C8.11941 18.2219 9.12474 18.1228 10.0384 17.7444C10.952 17.366 11.7329 16.7251 12.2823 15.9029C12.8317 15.0806 13.125 14.1139 13.125 13.125C13.125 12.9592 13.0591 12.8003 12.9419 12.6831C12.8247 12.5658 12.6657 12.5 12.5 12.5ZM15.625 10H11.0796L12.4171 7.67344C12.4967 7.53494 12.5203 7.37122 12.4829 7.2159C12.4456 7.06059 12.3502 6.92546 12.2164 6.83828C10.8775 5.96789 9.2958 5.54756 7.7015 5.63848C6.10719 5.72939 4.58352 6.32681 3.3523 7.34375C3.28563 7.39483 3.22994 7.45883 3.18855 7.53192C3.14717 7.605 3.12094 7.68568 3.11144 7.76913C3.10193 7.85258 3.10934 7.93709 3.13323 8.01762C3.15712 8.09814 3.19699 8.17302 3.25046 8.23779C3.30394 8.30255 3.36992 8.35588 3.44446 8.39458C3.519 8.43327 3.60058 8.45655 3.68432 8.46301C3.76806 8.46948 3.85225 8.45899 3.93185 8.4322C4.01145 8.4054 4.08483 8.36283 4.14761 8.30703C5.09647 7.52547 6.25453 7.04072 7.4772 6.91332C8.69988 6.78591 9.933 7.02148 11.0226 7.59063L9.45777 10.3125C9.40287 10.4076 9.37399 10.5154 9.37403 10.6252C9.37407 10.735 9.40303 10.8429 9.458 10.9379C9.51296 11.0329 9.59199 11.1118 9.68713 11.1666C9.78227 11.2214 9.89016 11.2502 9.99995 11.25H14.8625L13.7625 16.7523C13.73 16.9148 13.7634 17.0834 13.8552 17.2213C13.9471 17.3591 14.0899 17.4549 14.2523 17.4875C14.2927 17.4958 14.3337 17.5 14.375 17.5C14.5192 17.4997 14.659 17.4496 14.7705 17.358C14.882 17.2664 14.9584 17.1391 14.9867 16.9977L16.2367 10.7477C16.2548 10.6571 16.2526 10.5636 16.2303 10.4739C16.208 10.3843 16.166 10.3007 16.1075 10.2292C16.049 10.1577 15.9754 10.1001 15.892 10.0604C15.8085 10.0208 15.7173 10.0002 15.625 10Z" fill="#191F2E"/>
</svg>
