<svg width="20" height="20" viewBox="0 0 20 20" fill="none" xmlns="http://www.w3.org/2000/svg">
<path d="M19.9328 14.6515C19.8404 14.4207 19.6601 14.2361 19.4315 14.1382C19.203 14.0403 18.9449 14.0373 18.7141 14.1297L17.9524 14.4343L15.8383 10.2054C15.7604 10.0498 15.6408 9.91891 15.4927 9.82743C15.3447 9.73595 15.1741 9.68749 15 9.68747H9.06252V8.43747H13.125C13.3737 8.43747 13.6121 8.33869 13.7879 8.16288C13.9637 7.98706 14.0625 7.74861 14.0625 7.49997C14.0625 7.25133 13.9637 7.01287 13.7879 6.83705C13.6121 6.66124 13.3737 6.56247 13.125 6.56247H9.06252V6.40153C9.68803 6.18038 10.2152 5.74521 10.5509 5.17295C10.8866 4.60069 11.0092 3.92818 10.897 3.27428C10.7848 2.62038 10.4451 2.02719 9.93783 1.59955C9.43057 1.17192 8.78848 0.937378 8.12502 0.937378C7.46156 0.937378 6.81947 1.17192 6.31221 1.59955C5.80496 2.02719 5.46522 2.62038 5.35302 3.27428C5.24083 3.92818 5.36342 4.60069 5.69912 5.17295C6.03481 5.74521 6.56201 6.18038 7.18752 6.40153V6.77262C6.19677 7.04307 5.29311 7.56588 4.56481 8.28997C3.83652 9.01407 3.30849 9.91469 3.03231 10.9039C2.75614 11.893 2.74126 12.9369 2.98912 13.9336C3.23699 14.9302 3.73912 15.8455 4.44648 16.5901C5.15384 17.3346 6.04223 17.883 7.02486 18.1816C8.0075 18.4802 9.05079 18.5188 10.0528 18.2936C11.0548 18.0684 11.9813 17.5872 12.7417 16.897C13.5022 16.2067 14.0706 15.331 14.3914 14.3554C14.4299 14.2385 14.445 14.1151 14.4357 13.9923C14.4265 13.8695 14.3932 13.7498 14.3377 13.6399C14.2822 13.53 14.2056 13.4321 14.1123 13.3517C14.019 13.2714 13.9107 13.2103 13.7938 13.1718C13.6768 13.1334 13.5534 13.1183 13.4306 13.1275C13.3079 13.1367 13.1881 13.17 13.0782 13.2255C12.9683 13.281 12.8704 13.3576 12.7901 13.451C12.7098 13.5443 12.6487 13.6525 12.6102 13.7695C12.3974 14.4159 12.0257 14.9985 11.5291 15.4638C11.0326 15.9291 10.4271 16.2622 9.76824 16.4326C9.10939 16.6029 8.41831 16.605 7.75844 16.4387C7.09857 16.2724 6.49104 15.943 5.99165 15.4807C5.49225 15.0185 5.11698 14.4381 4.90028 13.7931C4.68359 13.148 4.63241 12.4588 4.75146 11.7888C4.8705 11.1187 5.15595 10.4894 5.58159 9.95841C6.00724 9.42745 6.55945 9.01192 7.18752 8.74997V10.625C7.18752 10.8736 7.28629 11.1121 7.46211 11.2879C7.63792 11.4637 7.87638 11.5625 8.12502 11.5625H14.4203L16.661 16.0445C16.7662 16.2548 16.9466 16.4178 17.1664 16.5013C17.3862 16.5848 17.6294 16.5827 17.8477 16.4953L19.4102 15.8703C19.5245 15.8246 19.6288 15.7568 19.7169 15.6708C19.8051 15.5849 19.8755 15.4824 19.924 15.3692C19.9725 15.256 19.9983 15.1344 19.9998 15.0112C20.0013 14.8881 19.9786 14.7659 19.9328 14.6515ZM8.12502 2.81247C8.31044 2.81247 8.4917 2.86745 8.64587 2.97046C8.80004 3.07348 8.9202 3.21989 8.99116 3.3912C9.06211 3.56251 9.08068 3.75101 9.04451 3.93286C9.00833 4.11472 8.91904 4.28177 8.78793 4.41288C8.65682 4.54399 8.48978 4.63328 8.30792 4.66945C8.12606 4.70563 7.93756 4.68706 7.76625 4.6161C7.59495 4.54515 7.44853 4.42498 7.34552 4.27081C7.2425 4.11664 7.18752 3.93539 7.18752 3.74997C7.18752 3.50133 7.28629 3.26287 7.46211 3.08705C7.63792 2.91124 7.87638 2.81247 8.12502 2.81247Z" fill="#191F2E"/>
</svg>
