<svg width="20" height="20" viewBox="0 0 20 20" fill="none" xmlns="http://www.w3.org/2000/svg">
<path d="M10.9375 15.9375C10.9375 16.123 10.8825 16.3042 10.7795 16.4584C10.6765 16.6126 10.5301 16.7327 10.3588 16.8037C10.1874 16.8746 9.99895 16.8932 9.81709 16.857C9.63524 16.8208 9.46819 16.7316 9.33708 16.6004C9.20597 16.4693 9.11668 16.3023 9.0805 16.1204C9.04433 15.9386 9.0629 15.7501 9.13385 15.5788C9.20481 15.4075 9.32497 15.261 9.47914 15.158C9.63332 15.055 9.81457 15 9.99999 15C10.2486 15 10.4871 15.0988 10.6629 15.2746C10.8387 15.4504 10.9375 15.6889 10.9375 15.9375ZM18.5219 6.79691C16.1191 4.82611 13.1076 3.74902 9.99999 3.74902C6.89239 3.74902 3.88085 4.82611 1.47812 6.79691C1.41466 6.84903 1.36209 6.91314 1.32341 6.98557C1.28473 7.058 1.2607 7.13735 1.25268 7.21907C1.24467 7.30079 1.25282 7.3833 1.27669 7.46186C1.30056 7.54043 1.33967 7.61353 1.39179 7.67699C1.44391 7.74044 1.50801 7.79301 1.58045 7.83169C1.65288 7.87037 1.73222 7.89441 1.81395 7.90242C1.97899 7.91861 2.14371 7.86858 2.27187 7.76332C4.45093 5.97637 7.18192 4.99979 9.99999 4.99979C12.8181 4.99979 15.549 5.97637 17.7281 7.76332C17.8563 7.86858 18.021 7.91861 18.186 7.90242C18.3511 7.88623 18.5029 7.80514 18.6082 7.67699C18.7135 7.54884 18.7635 7.38412 18.7473 7.21907C18.7311 7.05402 18.65 6.90217 18.5219 6.79691ZM16.0156 9.59144C14.3042 8.23646 12.1852 7.49921 10.0023 7.49921C7.81943 7.49921 5.70051 8.23646 3.98905 9.59144C3.85914 9.69442 3.77545 9.84479 3.75641 10.0095C3.73736 10.1741 3.78451 10.3397 3.88749 10.4696C3.99047 10.5995 4.14084 10.6832 4.30552 10.7022C4.4702 10.7213 4.6357 10.6741 4.76562 10.5711C6.25613 9.39131 8.10138 8.74938 10.0023 8.74938C11.9033 8.74938 13.7485 9.39131 15.2391 10.5711C15.3034 10.6221 15.3771 10.66 15.4561 10.6825C15.535 10.7049 15.6176 10.7117 15.6992 10.7022C15.7807 10.6928 15.8596 10.6674 15.9313 10.6275C16.003 10.5876 16.0662 10.5339 16.1172 10.4696C16.1682 10.4052 16.206 10.3315 16.2285 10.2526C16.251 10.1736 16.2577 10.091 16.2483 10.0095C16.2389 9.92792 16.2135 9.84904 16.1735 9.77731C16.1336 9.70559 16.08 9.64243 16.0156 9.59144ZM13.4953 12.3852C12.4801 11.6474 11.2573 11.25 10.0023 11.25C8.74734 11.25 7.52457 11.6474 6.50937 12.3852C6.37531 12.4828 6.28551 12.6296 6.25972 12.7934C6.23393 12.9572 6.27427 13.1246 6.37187 13.2586C6.46946 13.3927 6.61631 13.4825 6.78011 13.5083C6.94391 13.5341 7.11124 13.4937 7.2453 13.3961C8.04649 12.8135 9.01168 12.4996 10.0023 12.4996C10.993 12.4996 11.9582 12.8135 12.7594 13.3961C12.8257 13.4445 12.901 13.4792 12.9808 13.4985C13.0606 13.5177 13.1435 13.521 13.2246 13.5083C13.3057 13.4955 13.3835 13.4669 13.4535 13.4241C13.5236 13.3812 13.5845 13.325 13.6328 13.2586C13.6811 13.1923 13.7159 13.117 13.7351 13.0372C13.7544 12.9574 13.7577 12.8745 13.7449 12.7934C13.7322 12.7123 13.7036 12.6345 13.6607 12.5645C13.6179 12.4944 13.5617 12.4335 13.4953 12.3852Z" fill="#191F2E"/>
</svg>
