<svg width="20" height="20" viewBox="0 0 20 20" fill="none" xmlns="http://www.w3.org/2000/svg">
<path d="M10.9375 15.9375C10.9375 16.1229 10.8825 16.3042 10.7795 16.4583C10.6765 16.6125 10.5301 16.7327 10.3588 16.8036C10.1875 16.8746 9.99896 16.8932 9.8171 16.857C9.63525 16.8208 9.4682 16.7315 9.33709 16.6004C9.20598 16.4693 9.11669 16.3023 9.08051 16.1204C9.04434 15.9385 9.06291 15.75 9.13386 15.5787C9.20482 15.4074 9.32498 15.261 9.47915 15.158C9.63332 15.055 9.81458 15 10 15C10.2486 15 10.4871 15.0988 10.6629 15.2746C10.8387 15.4504 10.9375 15.6889 10.9375 15.9375Z" fill="#191F2E"/>
</svg>
