<svg width="20" height="20" viewBox="0 0 20 20" fill="none" xmlns="http://www.w3.org/2000/svg">
<path d="M16.7125 16.4548C16.7688 16.5153 16.8126 16.5865 16.8413 16.664C16.87 16.7416 16.8829 16.8241 16.8795 16.9067C16.876 16.9894 16.8562 17.0705 16.8212 17.1454C16.7861 17.2203 16.7366 17.2876 16.6754 17.3432C16.6142 17.3988 16.5425 17.4417 16.4646 17.4695C16.3867 17.4972 16.304 17.5092 16.2215 17.5048C16.1389 17.5003 16.058 17.4795 15.9835 17.4436C15.909 17.4077 15.8424 17.3573 15.7875 17.2954L13.157 14.4048L10.9617 17.0517C10.8444 17.1927 10.6973 17.306 10.531 17.3835C10.3648 17.4611 10.1834 17.5009 9.99999 17.5001C9.81636 17.5006 9.6349 17.4604 9.46863 17.3825C9.30236 17.3045 9.15539 17.1908 9.03827 17.0493L0.91015 7.25011C0.803172 7.1223 0.723455 6.97397 0.675895 6.81423C0.628336 6.65449 0.613938 6.48671 0.633587 6.32121C0.653136 6.15529 0.705891 5.99501 0.788706 5.84991C0.871521 5.70482 0.982701 5.57788 1.11562 5.47667C1.90405 4.87958 2.7508 4.36368 3.64296 3.93683L3.28749 3.54621C3.17592 3.42354 3.11764 3.26158 3.12547 3.09595C3.13331 2.93032 3.20663 2.77458 3.32929 2.663C3.45195 2.55143 3.61392 2.49315 3.77955 2.50098C3.94518 2.50882 4.10092 2.58214 4.21249 2.7048L16.7125 16.4548ZM19.3687 6.32121C19.3492 6.15529 19.2964 5.99501 19.2136 5.84991C19.1308 5.70482 19.0196 5.57788 18.8867 5.47667C16.3326 3.53376 13.209 2.48753 9.99999 2.50011C9.07314 2.4999 8.1483 2.58621 7.23749 2.75792C7.12826 2.77852 7.02649 2.82788 6.94268 2.90091C6.85887 2.97394 6.79606 3.068 6.76072 3.17339C6.72537 3.27878 6.71878 3.39169 6.74161 3.50049C6.76445 3.60928 6.81588 3.71001 6.89062 3.7923L14.2852 11.9267C14.3437 11.9911 14.4151 12.0426 14.4948 12.0779C14.5744 12.1131 14.6606 12.1314 14.7477 12.1314H14.7656C14.8554 12.1295 14.9438 12.1083 15.0247 12.0692C15.1056 12.0301 15.1771 11.974 15.2344 11.9048L19.0898 7.25011C19.1968 7.1223 19.2765 6.97397 19.3241 6.81423C19.3717 6.65449 19.386 6.48671 19.3664 6.32121H19.3687Z" fill="#191F2E"/>
</svg>
