<svg width="20" height="20" viewBox="0 0 20 20" fill="none" xmlns="http://www.w3.org/2000/svg">
<path d="M11.25 15.9374C11.25 16.1846 11.1767 16.4263 11.0394 16.6318C10.902 16.8374 10.7068 16.9976 10.4784 17.0922C10.25 17.1868 9.99863 17.2116 9.75616 17.1634C9.51368 17.1151 9.29095 16.9961 9.11614 16.8213C8.94132 16.6464 8.82227 16.4237 8.77404 16.1812C8.72581 15.9388 8.75056 15.6874 8.84517 15.459C8.93978 15.2306 9.1 15.0354 9.30556 14.898C9.51112 14.7607 9.75279 14.6874 10 14.6874C10.3315 14.6874 10.6495 14.8191 10.8839 15.0535C11.1183 15.2879 11.25 15.6059 11.25 15.9374ZM18.7196 6.55535C16.261 4.53899 13.1797 3.43701 10 3.43701C6.82039 3.43701 3.73902 4.53899 1.28049 6.55535C1.18533 6.63347 1.1065 6.72958 1.04848 6.83817C0.990463 6.94677 0.954404 7.06572 0.942362 7.18825C0.930319 7.31078 0.942529 7.43449 0.978293 7.5523C1.01406 7.67011 1.07268 7.77972 1.1508 7.87488C1.22893 7.97004 1.32503 8.04887 1.43363 8.10689C1.54222 8.16491 1.66118 8.20096 1.78371 8.21301C1.90624 8.22505 2.02994 8.21284 2.14775 8.17708C2.26556 8.14131 2.37518 8.08269 2.47033 8.00457C4.59349 6.26358 7.25433 5.31213 10 5.31213C12.7457 5.31213 15.4066 6.26358 17.5297 8.00457C17.6249 8.08269 17.7345 8.14131 17.8523 8.17708C17.9701 8.21284 18.0938 8.22505 18.2163 8.21301C18.3389 8.20096 18.4578 8.16491 18.5664 8.10689C18.675 8.04887 18.7711 7.97004 18.8492 7.87488C18.9274 7.77972 18.986 7.67011 19.0217 7.5523C19.0575 7.43449 19.0697 7.31078 19.0577 7.18825C19.0456 7.06572 19.0096 6.94677 18.9516 6.83817C18.8935 6.72958 18.8147 6.63347 18.7196 6.55535ZM16.2071 9.34675C14.4404 7.94817 12.2532 7.18721 10 7.18721C7.7468 7.18721 5.55962 7.94817 3.79299 9.34675C3.60298 9.50271 3.48183 9.72707 3.45563 9.97148C3.42943 10.2159 3.50028 10.4608 3.65291 10.6535C3.80555 10.8462 4.02776 10.9712 4.27169 11.0017C4.51561 11.0321 4.76174 10.9655 4.95705 10.8163C6.3924 9.68006 8.16939 9.06185 10 9.06185C11.8307 9.06185 13.6076 9.68006 15.043 10.8163C15.2383 10.9655 15.4844 11.0321 15.7284 11.0017C15.9723 10.9712 16.1945 10.8462 16.3471 10.6535C16.4998 10.4608 16.5706 10.2159 16.5444 9.97148C16.5182 9.72707 16.3971 9.50271 16.2071 9.34675ZM13.6774 12.1327C12.6086 11.3558 11.3213 10.9373 10 10.9373C8.67874 10.9373 7.3914 11.3558 6.32268 12.1327C6.12169 12.2792 5.98713 12.4995 5.9486 12.7452C5.91007 12.9909 5.97072 13.2419 6.11721 13.4428C6.2637 13.6438 6.48403 13.7784 6.72973 13.8169C6.97543 13.8555 7.22638 13.7948 7.42736 13.6483C8.17503 13.1048 9.07565 12.812 10 12.812C10.9244 12.812 11.825 13.1048 12.5727 13.6483C12.6722 13.7209 12.785 13.7731 12.9047 13.802C13.0244 13.8309 13.1487 13.836 13.2703 13.8169C13.392 13.7978 13.5087 13.755 13.6138 13.6908C13.7189 13.6266 13.8103 13.5424 13.8828 13.4428C13.9554 13.3433 14.0076 13.2305 14.0365 13.1108C14.0655 12.9911 14.0705 12.8669 14.0514 12.7452C14.0324 12.6236 13.9895 12.5068 13.9253 12.4017C13.8611 12.2967 13.7769 12.2052 13.6774 12.1327Z" fill="#191F2E"/>
</svg>
