<svg width="20" height="20" viewBox="0 0 20 20" fill="none" xmlns="http://www.w3.org/2000/svg">
<path d="M16.9438 16.2445C17.0283 16.3354 17.094 16.442 17.137 16.5584C17.18 16.6748 17.1994 16.7985 17.1943 16.9225C17.1891 17.0464 17.1593 17.1681 17.1068 17.2805C17.0542 17.3929 16.9799 17.4937 16.8881 17.5771C16.7963 17.6606 16.6888 17.725 16.5719 17.7666C16.4551 17.8082 16.3311 17.8261 16.2072 17.8195C16.0833 17.8128 15.962 17.7816 15.8503 17.7277C15.7385 17.6738 15.6386 17.5983 15.5563 17.5055L11.5453 13.0938C10.8667 12.838 10.1351 12.7549 9.41637 12.8517C8.69762 12.9485 8.01417 13.2223 7.42736 13.6485C7.22637 13.7949 6.97543 13.8556 6.72973 13.8171C6.48402 13.7785 6.26369 13.644 6.1172 13.443C5.97071 13.242 5.91006 12.9911 5.94859 12.7454C5.98713 12.4997 6.12169 12.2793 6.32267 12.1328C7.27909 11.4343 8.41558 11.0244 9.59767 10.9516L8.08673 9.28908C6.94553 9.56643 5.87786 10.0875 4.95705 10.8164C4.76173 10.9657 4.51561 11.0323 4.27168 11.0018C4.02775 10.9714 3.80554 10.8464 3.65291 10.6537C3.50027 10.461 3.42942 10.216 3.45562 9.97162C3.48182 9.7272 3.60297 9.50285 3.79298 9.34689C4.66322 8.65846 5.64159 8.11911 6.6883 7.7508L5.33595 6.26642C4.30281 6.70737 3.33788 7.29349 2.47033 8.00705C2.27784 8.16483 2.03055 8.23969 1.78287 8.21515C1.53519 8.19061 1.30741 8.06868 1.14962 7.87619C0.99184 7.6837 0.916986 7.43642 0.941527 7.18874C0.966067 6.94106 1.08799 6.71327 1.28048 6.55549C2.11951 5.86648 3.0374 5.27956 4.01486 4.80705L3.05626 3.75549C2.97173 3.66468 2.90606 3.558 2.86307 3.44163C2.82007 3.32526 2.80059 3.20152 2.80577 3.07756C2.81095 2.95361 2.84068 2.83192 2.89324 2.71954C2.94579 2.60716 3.02013 2.50634 3.11194 2.4229C3.20375 2.33946 3.31121 2.27508 3.42809 2.23348C3.54496 2.19188 3.66894 2.17389 3.79282 2.18055C3.9167 2.18722 4.03802 2.2184 4.14976 2.2723C4.2615 2.3262 4.36143 2.40174 4.44376 2.49455L16.9438 16.2445ZM10 14.6875C9.75279 14.6875 9.51111 14.7608 9.30555 14.8982C9.09999 15.0355 8.93977 15.2308 8.84516 15.4592C8.75056 15.6876 8.7258 15.9389 8.77403 16.1814C8.82226 16.4239 8.94131 16.6466 9.11613 16.8214C9.29095 16.9962 9.51367 17.1153 9.75615 17.1635C9.99863 17.2117 10.25 17.187 10.4784 17.0924C10.7068 16.9978 10.902 16.8375 11.0394 16.632C11.1767 16.4264 11.25 16.1847 11.25 15.9375C11.25 15.606 11.1183 15.2881 10.8839 15.0536C10.6495 14.8192 10.3315 14.6875 10 14.6875ZM15.043 10.8164C15.2383 10.9657 15.4844 11.0323 15.7283 11.0018C15.9723 10.9714 16.1945 10.8464 16.3471 10.6537C16.4998 10.461 16.5706 10.216 16.5444 9.97162C16.5182 9.7272 16.3971 9.50285 16.207 9.34689C15.3294 8.64961 14.3402 8.10575 13.2813 7.7383C13.0475 7.66113 12.7928 7.67899 12.5721 7.78803C12.3514 7.89707 12.1824 8.08853 12.1017 8.32108C12.021 8.55363 12.035 8.8086 12.1406 9.03093C12.2463 9.25327 12.4351 9.42512 12.6664 9.50939C13.5265 9.80832 14.3299 10.2502 15.043 10.8164ZM18.7195 6.55549C16.2599 4.54114 13.1792 3.43954 10 3.43752C9.6922 3.43752 9.38048 3.44767 9.07345 3.46799C8.95034 3.47614 8.83004 3.50847 8.71941 3.56312C8.60879 3.61777 8.51002 3.69367 8.42873 3.78649C8.34744 3.87931 8.28523 3.98724 8.24566 4.1041C8.20608 4.22097 8.1899 4.34448 8.19806 4.4676C8.20622 4.59071 8.23854 4.71101 8.29319 4.82163C8.34784 4.93226 8.42374 5.03103 8.51657 5.11232C8.60939 5.1936 8.71731 5.25581 8.83418 5.29539C8.95104 5.33497 9.07456 5.35114 9.19767 5.34299C9.4633 5.32502 9.73361 5.31642 10 5.31642C12.7454 5.3179 15.4057 6.26909 17.5297 8.00861C17.6249 8.08674 17.7345 8.14536 17.8523 8.18112C17.9701 8.21688 18.0938 8.22909 18.2163 8.21705C18.3389 8.20501 18.4578 8.16895 18.5664 8.11093C18.675 8.05292 18.7711 7.97408 18.8492 7.87892C18.9274 7.78377 18.986 7.67415 19.0217 7.55634C19.0575 7.43853 19.0697 7.31483 19.0577 7.1923C19.0456 7.06977 19.0096 6.95081 18.9516 6.84222C18.8935 6.73362 18.8147 6.63752 18.7195 6.55939V6.55549Z" fill="#191F2E"/>
</svg>
