<svg width="20" height="20" viewBox="0 0 20 20" fill="none" xmlns="http://www.w3.org/2000/svg">
<path d="M17.9422 7.68267C18.0002 7.74074 18.0463 7.80968 18.0777 7.88555C18.1092 7.96142 18.1253 8.04274 18.1253 8.12486C18.1253 8.20698 18.1092 8.2883 18.0777 8.36417C18.0463 8.44004 18.0002 8.50898 17.9422 8.56705C17.8841 8.62512 17.8152 8.67118 17.7393 8.70261C17.6634 8.73403 17.5821 8.75021 17.5 8.75021C17.4179 8.75021 17.3366 8.73403 17.2607 8.70261C17.1848 8.67118 17.1159 8.62512 17.0578 8.56705L15.625 7.13345L14.1922 8.56705C14.0749 8.68432 13.9158 8.75021 13.75 8.75021C13.5841 8.75021 13.4251 8.68432 13.3078 8.56705C13.1905 8.44977 13.1246 8.29071 13.1246 8.12486C13.1246 7.95901 13.1905 7.79995 13.3078 7.68267L14.7414 6.24986L13.3078 4.81705C13.2497 4.75898 13.2037 4.69004 13.1722 4.61417C13.1408 4.5383 13.1246 4.45698 13.1246 4.37486C13.1246 4.29274 13.1408 4.21142 13.1722 4.13555C13.2037 4.05968 13.2497 3.99074 13.3078 3.93267C13.4251 3.8154 13.5841 3.74951 13.75 3.74951C13.8321 3.74951 13.9134 3.76569 13.9893 3.79711C14.0652 3.82854 14.1341 3.8746 14.1922 3.93267L15.625 5.36627L17.0578 3.93267C17.1159 3.8746 17.1848 3.82854 17.2607 3.79711C17.3366 3.76569 17.4179 3.74951 17.5 3.74951C17.5821 3.74951 17.6634 3.76569 17.7393 3.79711C17.8152 3.82854 17.8841 3.8746 17.9422 3.93267C18.0002 3.99074 18.0463 4.05968 18.0777 4.13555C18.1092 4.21142 18.1253 4.29274 18.1253 4.37486C18.1253 4.45698 18.1092 4.5383 18.0777 4.61417C18.0463 4.69004 18.0002 4.75898 17.9422 4.81705L16.5086 6.24986L17.9422 7.68267ZM9.99999 14.9999C9.81457 14.9999 9.63332 15.0548 9.47914 15.1579C9.32497 15.2609 9.20481 15.4073 9.13385 15.5786C9.0629 15.7499 9.04433 15.9384 9.0805 16.1203C9.11668 16.3021 9.20597 16.4692 9.33708 16.6003C9.46819 16.7314 9.63524 16.8207 9.81709 16.8568C9.99895 16.893 10.1875 16.8745 10.3588 16.8035C10.5301 16.7325 10.6765 16.6124 10.7795 16.4582C10.8825 16.304 10.9375 16.1228 10.9375 15.9374C10.9375 15.6887 10.8387 15.4503 10.6629 15.2744C10.4871 15.0986 10.2486 14.9999 9.99999 14.9999ZM13.493 12.385C12.4778 11.6472 11.255 11.2498 9.99999 11.2498C8.74499 11.2498 7.52223 11.6472 6.50702 12.385C6.37296 12.4826 6.28316 12.6295 6.25738 12.7933C6.23159 12.9571 6.27193 13.1244 6.36952 13.2585C6.46711 13.3925 6.61396 13.4823 6.77776 13.5081C6.94157 13.5339 7.1089 13.4935 7.24296 13.396C8.04414 12.8133 9.00933 12.4994 9.99999 12.4994C10.9906 12.4994 11.9558 12.8133 12.757 13.396C12.8234 13.4443 12.8986 13.479 12.9785 13.4983C13.0583 13.5175 13.1411 13.5209 13.2222 13.5081C13.3033 13.4953 13.3811 13.4667 13.4512 13.4239C13.5212 13.381 13.5821 13.3248 13.6305 13.2585C13.6788 13.1921 13.7136 13.1168 13.7328 13.037C13.752 12.9572 13.7554 12.8744 13.7426 12.7933C13.7298 12.7122 13.7012 12.6344 13.6584 12.5643C13.6156 12.4943 13.5593 12.4333 13.493 12.385ZM11.1898 5.05689C11.2727 5.06714 11.3567 5.06069 11.4371 5.03792C11.5174 5.01515 11.5923 4.97652 11.6574 4.92432C11.7226 4.87211 11.7766 4.80738 11.8163 4.73395C11.856 4.66053 11.8806 4.57989 11.8887 4.4968C11.8967 4.41371 11.888 4.32985 11.8631 4.25017C11.8382 4.17049 11.7976 4.09661 11.7437 4.03289C11.6898 3.96916 11.6236 3.91689 11.5491 3.87914C11.4747 3.8414 11.3934 3.81896 11.3101 3.81314C10.8781 3.77095 10.4367 3.74986 9.99999 3.74986C6.89291 3.75183 3.88212 4.8283 1.47812 6.79673C1.41466 6.84885 1.36209 6.91296 1.32341 6.98539C1.28473 7.05783 1.2607 7.13717 1.25268 7.21889C1.24467 7.30062 1.25282 7.38312 1.27669 7.46169C1.30056 7.54026 1.33967 7.61336 1.39179 7.67681C1.44391 7.74027 1.50801 7.79284 1.58045 7.83152C1.65288 7.8702 1.73222 7.89423 1.81395 7.90225C1.97899 7.91844 2.14371 7.8684 2.27187 7.76314C4.45177 5.97771 7.18223 5.0014 9.99999 4.99986C10.3969 4.99986 10.7969 5.01939 11.1898 5.05689ZM11.1648 8.82798C11.3282 8.84881 11.4932 8.80431 11.6239 8.70416C11.7547 8.60401 11.8406 8.45631 11.863 8.29316C11.8855 8.13001 11.8426 7.96459 11.7438 7.83287C11.6449 7.70114 11.4981 7.61376 11.3351 7.5897C10.8927 7.5292 10.4466 7.49918 9.99999 7.49986C7.81507 7.49128 5.69274 8.22914 3.98437 9.59127C3.88375 9.67232 3.81072 9.78257 3.77534 9.90683C3.73996 10.0311 3.74396 10.1633 3.78679 10.2852C3.82962 10.4071 3.90918 10.5127 4.01451 10.5875C4.11985 10.6623 4.24579 10.7027 4.37499 10.703C4.51683 10.704 4.65472 10.6563 4.76562 10.5678C6.25258 9.38365 8.09912 8.74232 9.99999 8.74986C10.3896 8.74922 10.7788 8.77533 11.1648 8.82798Z" fill="#191F2E"/>
</svg>
