<svg width="20" height="20" viewBox="0 0 20 20" fill="none" xmlns="http://www.w3.org/2000/svg">
<path d="M11.25 15.9375C11.25 16.1847 11.1767 16.4264 11.0394 16.6319C10.902 16.8375 10.7068 16.9977 10.4784 17.0923C10.25 17.1869 9.99863 17.2117 9.75616 17.1634C9.51368 17.1152 9.29095 16.9962 9.11614 16.8213C8.94132 16.6465 8.82227 16.4238 8.77404 16.1813C8.72581 15.9389 8.75056 15.6875 8.84517 15.4591C8.93978 15.2307 9.1 15.0355 9.30556 14.8981C9.51112 14.7608 9.75279 14.6875 10 14.6875C10.3315 14.6875 10.6495 14.8192 10.8839 15.0536C11.1183 15.288 11.25 15.6059 11.25 15.9375ZM16.9531 6.24997L18.1656 5.03825C18.3418 4.86213 18.4407 4.62326 18.4407 4.37418C18.4407 4.12511 18.3418 3.88624 18.1656 3.71012C17.9895 3.534 17.7507 3.43506 17.5016 3.43506C17.2525 3.43506 17.0136 3.534 16.8375 3.71012L15.625 4.92184L14.4133 3.71168C14.2372 3.53556 13.9983 3.43662 13.7492 3.43662C13.5002 3.43662 13.2613 3.53556 13.0852 3.71168C12.9091 3.8878 12.8101 4.12668 12.8101 4.37575C12.8101 4.62482 12.9091 4.86369 13.0852 5.03981L14.2969 6.24997L13.0867 7.46169C12.9106 7.63781 12.8117 7.87668 12.8117 8.12575C12.8117 8.37482 12.9106 8.61369 13.0867 8.78981C13.2629 8.96593 13.5017 9.06487 13.7508 9.06487C13.9999 9.06487 14.2387 8.96593 14.4149 8.78981L15.625 7.57809L16.8367 8.79059C16.9239 8.8778 17.0275 8.94697 17.1414 8.99417C17.2554 9.04136 17.3775 9.06565 17.5008 9.06565C17.6241 9.06565 17.7463 9.04136 17.8602 8.99417C17.9741 8.94697 18.0777 8.8778 18.1649 8.79059C18.2521 8.70338 18.3212 8.59986 18.3684 8.48592C18.4156 8.37198 18.4399 8.24986 18.4399 8.12653C18.4399 8.0032 18.4156 7.88108 18.3684 7.76714C18.3212 7.6532 18.2521 7.54967 18.1649 7.46247L16.9531 6.24997ZM13.6797 12.1328C12.6113 11.3555 11.324 10.9367 10.0028 10.9367C8.68149 10.9367 7.39422 11.3555 6.3258 12.1328C6.12482 12.2792 5.99022 12.4994 5.95161 12.745C5.913 12.9907 5.97356 13.2416 6.11994 13.4425C6.26633 13.6435 6.48656 13.7781 6.73219 13.8167C6.97782 13.8553 7.22872 13.7948 7.42971 13.6484C8.17745 13.1047 9.07822 12.8118 10.0028 12.8118C10.9273 12.8118 11.8281 13.1047 12.5758 13.6484C12.7768 13.7948 13.0277 13.8553 13.2733 13.8167C13.5189 13.7781 13.7392 13.6435 13.8856 13.4425C14.032 13.2416 14.0925 12.9907 14.0539 12.745C14.0153 12.4994 13.8807 12.2792 13.6797 12.1328ZM10.2899 5.31247H10.3133C10.5619 5.31537 10.8016 5.21938 10.9794 5.04561C11.1573 4.87185 11.2588 4.63454 11.2617 4.3859C11.2646 4.13726 11.1687 3.89765 10.9949 3.71979C10.8211 3.54192 10.5838 3.44037 10.3352 3.43747C10.2235 3.43747 10.1117 3.43747 10 3.43747C6.82073 3.4391 3.73994 4.54075 1.28049 6.55544C1.18533 6.63356 1.1065 6.72966 1.04848 6.83826C0.990463 6.94685 0.954404 7.06581 0.942362 7.18834C0.930319 7.31087 0.942529 7.43457 0.978293 7.55238C1.01406 7.6702 1.07268 7.77981 1.1508 7.87497C1.22893 7.97012 1.32503 8.04896 1.43363 8.10698C1.54222 8.16499 1.66118 8.20105 1.78371 8.21309C1.90624 8.22514 2.02994 8.21293 2.14775 8.17716C2.26556 8.1414 2.37518 8.08278 2.47033 8.00465C4.59429 6.26513 7.25463 5.31394 10 5.31247C10.0969 5.31247 10.1938 5.31247 10.2899 5.31247ZM10.2805 9.06247C10.5291 9.07096 10.771 8.98034 10.9528 8.81053C11.1346 8.64072 11.2415 8.40564 11.25 8.157C11.2585 7.90836 11.1679 7.66653 10.9981 7.4847C10.8283 7.30288 10.5932 7.19596 10.3446 7.18747C10.2344 7.18747 10.1149 7.18747 10 7.18747C7.74543 7.17911 5.55558 7.94094 3.79299 9.34684C3.60298 9.5028 3.48183 9.72715 3.45563 9.97157C3.42943 10.216 3.50028 10.4609 3.65291 10.6536C3.80555 10.8463 4.02776 10.9713 4.27169 11.0018C4.51561 11.0322 4.76174 10.9656 4.95705 10.8164C6.3891 9.67422 8.16829 9.05544 10 9.06247C10.0938 9.06247 10.1883 9.06247 10.2805 9.06715V9.06247Z" fill="#191F2E"/>
</svg>
