<svg width="20" height="20" viewBox="0 0 20 20" fill="none" xmlns="http://www.w3.org/2000/svg">
<path d="M11.25 15.9375C11.25 16.1847 11.1767 16.4264 11.0393 16.632C10.902 16.8375 10.7068 16.9977 10.4784 17.0923C10.2499 17.187 9.99861 17.2117 9.75614 17.1635C9.51366 17.1153 9.29093 16.9962 9.11612 16.8214C8.9413 16.6466 8.82225 16.4238 8.77402 16.1814C8.72579 15.9389 8.75054 15.6876 8.84515 15.4591C8.93976 15.2307 9.09998 15.0355 9.30554 14.8982C9.5111 14.7608 9.75277 14.6875 10 14.6875C10.3315 14.6875 10.6495 14.8192 10.8839 15.0536C11.1183 15.288 11.25 15.606 11.25 15.9375Z" fill="#191F2E"/>
</svg>
