<svg width="20" height="20" viewBox="0 0 20 20" fill="none" xmlns="http://www.w3.org/2000/svg">
<path d="M16.7125 16.4549C16.7688 16.5154 16.8126 16.5865 16.8413 16.6641C16.8699 16.7417 16.8829 16.8242 16.8795 16.9068C16.876 16.9894 16.8562 17.0706 16.8212 17.1455C16.7861 17.2204 16.7366 17.2876 16.6754 17.3433C16.6142 17.3989 16.5425 17.4418 16.4646 17.4695C16.3867 17.4973 16.304 17.5093 16.2214 17.5048C16.1389 17.5004 16.058 17.4796 15.9835 17.4437C15.909 17.4077 15.8424 17.3574 15.7875 17.2955L11.725 12.8306C10.9903 12.5391 10.1939 12.4382 9.40971 12.537C8.62555 12.6359 7.87911 12.9315 7.23983 13.3963C7.17361 13.4463 7.09809 13.4827 7.01767 13.5032C6.93726 13.5237 6.85355 13.5281 6.77145 13.5159C6.68935 13.5037 6.61049 13.4754 6.53947 13.4324C6.46846 13.3894 6.40672 13.3328 6.35784 13.2657C6.30897 13.1986 6.27395 13.1224 6.25482 13.0417C6.23569 12.9609 6.23285 12.8771 6.24644 12.7953C6.26004 12.7134 6.2898 12.635 6.334 12.5648C6.37821 12.4945 6.43596 12.4338 6.50389 12.3861C7.51832 11.6444 8.74331 11.2464 9.99998 11.2502C10.1 11.2502 10.1992 11.2502 10.2984 11.258L8.19529 8.94471C6.94336 9.21936 5.77045 9.77562 4.76561 10.5713C4.70117 10.6226 4.62722 10.6607 4.54802 10.6833C4.46881 10.7059 4.38592 10.7127 4.30409 10.7032C4.22227 10.6937 4.14313 10.6681 4.07123 10.6279C3.99933 10.5877 3.93609 10.5337 3.88514 10.4689C3.78212 10.3394 3.73472 10.1742 3.75332 10.0097C3.77192 9.84526 3.85501 9.69487 3.98436 9.59158C4.95303 8.82538 6.05901 8.25105 7.24295 7.89939L5.41951 5.8908C4.2815 6.35301 3.22021 6.9852 2.27186 7.7658C2.20825 7.81792 2.135 7.857 2.05628 7.88081C1.97757 7.90462 1.89494 7.91269 1.81311 7.90456C1.73128 7.89644 1.65185 7.87227 1.57935 7.83345C1.50686 7.79463 1.44272 7.74191 1.39061 7.6783C1.33849 7.61469 1.29941 7.54144 1.2756 7.46273C1.25179 7.38401 1.24372 7.30138 1.25184 7.21955C1.26825 7.05429 1.34964 6.90231 1.47811 6.79705C2.40684 6.03462 3.43372 5.40032 4.53123 4.91111L3.28748 3.54549C3.23113 3.48495 3.18735 3.41383 3.15868 3.33625C3.13002 3.25867 3.11703 3.17617 3.12049 3.09354C3.12394 3.0109 3.14376 2.92978 3.1788 2.85486C3.21383 2.77994 3.26339 2.71272 3.3246 2.6571C3.38581 2.60147 3.45745 2.55855 3.53536 2.53081C3.61328 2.50308 3.69593 2.49109 3.77852 2.49553C3.8611 2.49997 3.94199 2.52077 4.01648 2.5567C4.09097 2.59263 4.15759 2.64299 4.21248 2.70486L16.7125 16.4549ZM9.99998 15.0002C9.81456 15.0002 9.63331 15.0552 9.47913 15.1582C9.32496 15.2612 9.2048 15.4076 9.13384 15.5789C9.06289 15.7502 9.04432 15.9387 9.0805 16.1206C9.11667 16.3024 9.20596 16.4695 9.33707 16.6006C9.46818 16.7317 9.63523 16.821 9.81708 16.8572C9.99894 16.8933 10.1874 16.8748 10.3587 16.8038C10.5301 16.7329 10.6765 16.6127 10.7795 16.4585C10.8825 16.3043 10.9375 16.1231 10.9375 15.9377C10.9375 15.689 10.8387 15.4506 10.6629 15.2748C10.4871 15.0989 10.2486 15.0002 9.99998 15.0002ZM18.5219 6.79705C17.1046 5.63637 15.4654 4.77718 13.7045 4.27208C11.9437 3.76698 10.0982 3.6266 8.28123 3.85955C8.19834 3.86801 8.11798 3.89296 8.04487 3.93293C7.97177 3.9729 7.90739 4.02708 7.85553 4.09229C7.80367 4.1575 7.76537 4.23243 7.74288 4.31266C7.7204 4.39289 7.71418 4.4768 7.7246 4.55947C7.73502 4.64213 7.76186 4.72188 7.80355 4.79402C7.84523 4.86616 7.90092 4.92924 7.96734 4.97955C8.03376 5.02985 8.10957 5.06637 8.19031 5.08695C8.27105 5.10753 8.35508 5.11176 8.43748 5.09939C8.9557 5.03336 9.47758 5.00022 9.99998 5.00017C12.8177 5.00172 15.5482 5.97802 17.7281 7.76346C17.8563 7.86871 18.021 7.91875 18.186 7.90256C18.3511 7.88637 18.5029 7.80528 18.6082 7.67713C18.7134 7.54897 18.7635 7.38426 18.7473 7.21921C18.7311 7.05416 18.65 6.90231 18.5219 6.79705ZM15.2344 10.5713C15.2987 10.6223 15.3724 10.6601 15.4514 10.6826C15.5303 10.7051 15.6129 10.7118 15.6945 10.7024C15.776 10.6929 15.8549 10.6675 15.9266 10.6276C15.9983 10.5877 16.0615 10.534 16.1125 10.4697C16.1635 10.4054 16.2013 10.3316 16.2238 10.2527C16.2463 10.1738 16.253 10.0912 16.2436 10.0096C16.2342 9.92806 16.2088 9.84917 16.1688 9.77745C16.1289 9.70572 16.0753 9.64256 16.0109 9.59158C14.8289 8.65612 13.4452 8.00881 11.9695 7.70096C11.8883 7.68228 11.8042 7.68004 11.7221 7.69435C11.64 7.70867 11.5616 7.73926 11.4915 7.78433C11.4214 7.8294 11.361 7.88803 11.3139 7.95677C11.2668 8.02552 11.2339 8.10299 11.2172 8.18463C11.2004 8.26627 11.2002 8.35044 11.2165 8.43217C11.2328 8.5139 11.2652 8.59155 11.312 8.66055C11.3587 8.72955 11.4188 8.7885 11.4886 8.83395C11.5585 8.87939 11.6367 8.91041 11.7187 8.92517C13.0025 9.1935 14.2062 9.75708 15.2344 10.5713Z" fill="#191F2E"/>
</svg>
