<svg width="20" height="20" viewBox="0 0 20 20" fill="none" xmlns="http://www.w3.org/2000/svg">
<path d="M11.25 15.9377C11.25 16.1849 11.1767 16.4266 11.0393 16.6321C10.902 16.8377 10.7068 16.9979 10.4783 17.0925C10.2499 17.1871 9.9986 17.2119 9.75613 17.1636C9.51365 17.1154 9.29092 16.9964 9.11611 16.8216C8.94129 16.6467 8.82224 16.424 8.77401 16.1815C8.72578 15.9391 8.75053 15.6877 8.84514 15.4593C8.93975 15.2309 9.09997 15.0357 9.30553 14.8983C9.51109 14.761 9.75276 14.6877 9.99999 14.6877C10.3315 14.6877 10.6495 14.8194 10.8839 15.0538C11.1183 15.2882 11.25 15.6061 11.25 15.9377ZM16.207 9.34704C14.4404 7.94846 12.2532 7.1875 9.99999 7.1875C7.74677 7.1875 5.55959 7.94846 3.79296 9.34704C3.60295 9.503 3.4818 9.72735 3.4556 9.97177C3.4294 10.2162 3.50025 10.4611 3.65288 10.6538C3.80552 10.8465 4.02773 10.9715 4.27166 11.002C4.51558 11.0324 4.76171 10.9658 4.95702 10.8166C6.39237 9.68035 8.16936 9.06214 9.99999 9.06214C11.8306 9.06214 13.6076 9.68035 15.043 10.8166C15.2383 10.9658 15.4844 11.0324 15.7283 11.002C15.9723 10.9715 16.1945 10.8465 16.3471 10.6538C16.4997 10.4611 16.5706 10.2162 16.5444 9.97177C16.5182 9.72735 16.397 9.503 16.207 9.34704ZM13.6773 12.133C12.6086 11.3561 11.3213 10.9376 9.99999 10.9376C8.67871 10.9376 7.39137 11.3561 6.32265 12.133C6.12166 12.2795 5.9871 12.4998 5.94857 12.7455C5.91004 12.9912 5.97069 13.2422 6.11718 13.4431C6.26367 13.6441 6.484 13.7787 6.7297 13.8172C6.9754 13.8557 7.22635 13.7951 7.42733 13.6486C8.175 13.105 9.07562 12.8123 9.99999 12.8123C10.9244 12.8123 11.825 13.105 12.5726 13.6486C12.6722 13.7211 12.785 13.7734 12.9047 13.8023C13.0244 13.8312 13.1486 13.8363 13.2703 13.8172C13.3919 13.7981 13.5086 13.7553 13.6137 13.6911C13.7188 13.6269 13.8103 13.5427 13.8828 13.4431C13.9553 13.3436 14.0076 13.2308 14.0365 13.1111C14.0654 12.9914 14.0705 12.8672 14.0514 12.7455C14.0323 12.6238 13.9895 12.5071 13.9253 12.402C13.8611 12.2969 13.7769 12.2055 13.6773 12.133Z" fill="#191F2E"/>
</svg>
