<svg width="20" height="20" viewBox="0 0 20 20" fill="none" xmlns="http://www.w3.org/2000/svg">
<path d="M11.25 15.9375C11.25 16.1847 11.1767 16.4264 11.0393 16.6319C10.902 16.8375 10.7068 16.9977 10.4783 17.0923C10.2499 17.1869 9.99861 17.2117 9.75613 17.1634C9.51365 17.1152 9.29093 16.9962 9.11611 16.8213C8.94129 16.6465 8.82224 16.4238 8.77401 16.1813C8.72578 15.9388 8.75053 15.6875 8.84514 15.4591C8.93975 15.2307 9.09997 15.0355 9.30553 14.8981C9.51109 14.7608 9.75277 14.6875 9.99999 14.6875C10.3315 14.6875 10.6495 14.8192 10.8839 15.0536C11.1183 15.288 11.25 15.6059 11.25 15.9375ZM13.6766 12.1328C12.6082 11.3556 11.3211 10.937 9.99999 10.937C8.6789 10.937 7.39178 11.3556 6.32343 12.1328C6.12245 12.2792 5.98785 12.4994 5.94924 12.745C5.91063 12.9906 5.97118 13.2415 6.11757 13.4425C6.26396 13.6435 6.48419 13.7781 6.72982 13.8167C6.97545 13.8553 7.22635 13.7948 7.42734 13.6484C8.175 13.1048 9.07562 12.812 9.99999 12.812C10.9244 12.812 11.825 13.1048 12.5726 13.6484C12.7736 13.7948 13.0245 13.8553 13.2702 13.8167C13.5158 13.7781 13.736 13.6435 13.8824 13.4425C14.0288 13.2415 14.0894 12.9906 14.0507 12.745C14.0121 12.4994 13.8775 12.2792 13.6766 12.1328Z" fill="#191F2E"/>
</svg>
