<svg width="20" height="20" viewBox="0 0 20 20" fill="none" xmlns="http://www.w3.org/2000/svg">
<path d="M1.875 8.125C1.62636 8.125 1.3879 8.02623 1.21209 7.85041C1.03627 7.6746 0.9375 7.43614 0.9375 7.1875C0.9375 6.93886 1.03627 6.7004 1.21209 6.52459C1.3879 6.34877 1.62636 6.25 1.875 6.25H9.375C9.62364 6.25 9.8621 6.15123 10.0379 5.97541C10.2137 5.7996 10.3125 5.56114 10.3125 5.3125C10.3125 5.06386 10.2137 4.8254 10.0379 4.64959C9.8621 4.47377 9.62364 4.375 9.375 4.375C9.07311 4.38379 8.78614 4.50825 8.57344 4.72266C8.39558 4.88479 8.16219 4.97232 7.92157 4.96712C7.68096 4.96192 7.45157 4.86438 7.28089 4.6947C7.11021 4.52503 7.01132 4.29621 7.0047 4.05564C6.99808 3.81506 7.08423 3.58115 7.24531 3.40234C7.81063 2.83573 8.57469 2.51199 9.375 2.5C10.1209 2.5 10.8363 2.79632 11.3637 3.32376C11.8912 3.85121 12.1875 4.56658 12.1875 5.3125C12.1875 6.05842 11.8912 6.77379 11.3637 7.30124C10.8363 7.82868 10.1209 8.125 9.375 8.125H1.875ZM16.25 5.3125C15.4486 5.32368 14.6833 5.64748 14.1172 6.21484C13.9561 6.39365 13.87 6.62756 13.8766 6.86814C13.8832 7.10871 13.9821 7.33753 14.1528 7.5072C14.3234 7.67688 14.5528 7.77442 14.7934 7.77962C15.0341 7.78482 15.2675 7.69729 15.4453 7.53516C15.6588 7.32001 15.947 7.19549 16.25 7.1875C16.4986 7.1875 16.7371 7.28627 16.9129 7.46209C17.0887 7.6379 17.1875 7.87636 17.1875 8.125C17.1875 8.37364 17.0887 8.6121 16.9129 8.78791C16.7371 8.96373 16.4986 9.0625 16.25 9.0625H2.5C2.25136 9.0625 2.0129 9.16127 1.83709 9.33709C1.66127 9.5129 1.5625 9.75136 1.5625 10C1.5625 10.2486 1.66127 10.4871 1.83709 10.6629C2.0129 10.8387 2.25136 10.9375 2.5 10.9375H16.25C16.9959 10.9375 17.7113 10.6412 18.2387 10.1137C18.7662 9.58629 19.0625 8.87092 19.0625 8.125C19.0625 7.37908 18.7662 6.66371 18.2387 6.13626C17.7113 5.60882 16.9959 5.3125 16.25 5.3125ZM11.875 11.875H3.125C2.87636 11.875 2.6379 11.9738 2.46209 12.1496C2.28627 12.3254 2.1875 12.5639 2.1875 12.8125C2.1875 13.0611 2.28627 13.2996 2.46209 13.4754C2.6379 13.6512 2.87636 13.75 3.125 13.75H11.875C12.1236 13.75 12.3621 13.8488 12.5379 14.0246C12.7137 14.2004 12.8125 14.4389 12.8125 14.6875C12.8125 14.9361 12.7137 15.1746 12.5379 15.3504C12.3621 15.5262 12.1236 15.625 11.875 15.625C11.5729 15.6161 11.2857 15.4917 11.0727 15.2773C10.9877 15.183 10.8844 15.1069 10.7691 15.0537C10.6538 15.0004 10.5289 14.9712 10.4019 14.9677C10.275 14.9642 10.1486 14.9865 10.0306 15.0333C9.91254 15.0801 9.80523 15.1504 9.71517 15.24C9.62511 15.3295 9.55418 15.4364 9.50668 15.5542C9.45918 15.6719 9.4361 15.7981 9.43884 15.9251C9.44159 16.0521 9.4701 16.1772 9.52265 16.2928C9.5752 16.4084 9.65068 16.5121 9.74453 16.5977C10.31 17.1645 11.0744 17.4882 11.875 17.5C12.6209 17.5 13.3363 17.2037 13.8637 16.6762C14.3912 16.1488 14.6875 15.4334 14.6875 14.6875C14.6875 13.9416 14.3912 13.2262 13.8637 12.6988C13.3363 12.1713 12.6209 11.875 11.875 11.875Z" fill="#191F2E"/>
</svg>
