<svg width="20" height="20" viewBox="0 0 20 20" fill="none" xmlns="http://www.w3.org/2000/svg">
<path d="M8.75 11.25V15.2844C8.75 15.4501 8.68415 15.6091 8.56694 15.7263C8.44973 15.8435 8.29076 15.9094 8.125 15.9094C8.08754 15.9091 8.05017 15.9057 8.01328 15.8992L3.01328 14.9898C2.86927 14.9637 2.73901 14.8878 2.64521 14.7755C2.55141 14.6631 2.50002 14.5214 2.5 14.375V11.25C2.5 11.0842 2.56585 10.9253 2.68306 10.8081C2.80027 10.6909 2.95924 10.625 3.125 10.625H8.125C8.29076 10.625 8.44973 10.6909 8.56694 10.8081C8.68415 10.9253 8.75 11.0842 8.75 11.25ZM8.52578 4.23594C8.45548 4.17724 8.37313 4.1347 8.28457 4.11135C8.196 4.08799 8.10339 4.08439 8.01328 4.10079L3.01328 5.01016C2.86927 5.03632 2.73901 5.1122 2.64521 5.22456C2.55141 5.33692 2.50002 5.47864 2.5 5.62501V8.75001C2.5 8.91577 2.56585 9.07474 2.68306 9.19195C2.80027 9.30916 2.95924 9.37501 3.125 9.37501H8.125C8.29076 9.37501 8.44973 9.30916 8.56694 9.19195C8.68415 9.07474 8.75 8.91577 8.75 8.75001V4.71563C8.75002 4.62414 8.72994 4.53376 8.6912 4.45087C8.65246 4.36798 8.59599 4.29461 8.52578 4.23594ZM16.875 10.625H10.625C10.4592 10.625 10.3003 10.6909 10.1831 10.8081C10.0658 10.9253 10 11.0842 10 11.25V15.7383C9.99984 15.8848 10.0511 16.0267 10.145 16.1392C10.2388 16.2517 10.3691 16.3277 10.5133 16.3539L16.7633 17.4898C16.8001 17.4967 16.8375 17.5001 16.875 17.5C17.0408 17.5 17.1997 17.4342 17.3169 17.3169C17.4342 17.1997 17.5 17.0408 17.5 16.875V11.25C17.5 11.0842 17.4342 10.9253 17.3169 10.8081C17.1997 10.6909 17.0408 10.625 16.875 10.625ZM17.2758 2.64532C17.2055 2.58661 17.1231 2.54408 17.0346 2.52072C16.946 2.49737 16.8534 2.49376 16.7633 2.51016L10.5133 3.64688C10.3693 3.67304 10.239 3.74892 10.1452 3.86128C10.0514 3.97364 10 4.11536 10 4.26172V8.75001C10 8.91577 10.0658 9.07474 10.1831 9.19195C10.3003 9.30916 10.4592 9.37501 10.625 9.37501H16.875C17.0408 9.37501 17.1997 9.30916 17.3169 9.19195C17.4342 9.07474 17.5 8.91577 17.5 8.75001V3.12501C17.5 3.03351 17.4799 2.94313 17.4412 2.86024C17.4025 2.77736 17.346 2.70399 17.2758 2.64532Z" fill="#191F2E"/>
</svg>
