<svg width="20" height="20" viewBox="0 0 20 20" fill="none" xmlns="http://www.w3.org/2000/svg">
<path d="M9.37503 8.125H1.87503C1.78935 8.12519 1.70455 8.10776 1.62589 8.07379C1.54723 8.03982 1.47639 7.99005 1.41778 7.92755C1.35917 7.86506 1.31403 7.79118 1.28517 7.7105C1.25632 7.62983 1.24435 7.54408 1.25003 7.45859C1.26385 7.2976 1.33822 7.14785 1.45813 7.03954C1.57804 6.93123 1.73456 6.87243 1.89612 6.875H8.75003C8.83571 6.87519 8.92051 6.85776 8.99917 6.82379C9.07783 6.78982 9.14867 6.74005 9.20728 6.67755C9.26589 6.61506 9.31103 6.54118 9.33989 6.4605C9.36874 6.37983 9.38071 6.29408 9.37503 6.20859C9.36121 6.0476 9.28684 5.89785 9.16693 5.78954C9.04702 5.68123 8.8905 5.62243 8.72894 5.625H7.21019C7.16504 5.62548 7.12033 5.61617 7.07913 5.59771C7.03792 5.57925 7.00121 5.55208 6.97151 5.51808C6.94181 5.48408 6.91983 5.44404 6.90709 5.40073C6.89435 5.35741 6.89114 5.31186 6.89769 5.26719C6.96625 4.79307 7.16959 4.34864 7.4835 3.98678C7.79741 3.62493 8.20867 3.36087 8.66835 3.22605C9.12803 3.09123 9.61677 3.09132 10.0764 3.2263C10.536 3.36129 10.9472 3.62549 11.261 3.98746C11.5748 4.34943 11.7779 4.79393 11.8463 5.26807C11.9147 5.7422 11.8455 6.226 11.6468 6.6619C11.4481 7.0978 11.1283 7.46743 10.7256 7.72681C10.3229 7.9862 9.85407 8.12441 9.37503 8.125ZM18.7438 7.94609C18.6998 7.33102 18.43 6.75391 17.9863 6.32567C17.5427 5.89743 16.9564 5.64827 16.3401 5.62608C15.7239 5.60388 15.1212 5.81023 14.6478 6.20544C14.1745 6.60066 13.8639 7.15687 13.7758 7.76719C13.7693 7.81186 13.7725 7.85741 13.7852 7.90073C13.798 7.94404 13.8199 7.98408 13.8496 8.01808C13.8793 8.05208 13.916 8.07925 13.9573 8.09771C13.9985 8.11617 14.0432 8.12548 14.0883 8.125H15.6071C15.7684 8.12283 15.9245 8.18181 16.0441 8.29008C16.1636 8.39835 16.2378 8.54788 16.2516 8.70859C16.2573 8.79408 16.2453 8.87983 16.2165 8.9605C16.1876 9.04118 16.1425 9.11506 16.0838 9.17755C16.0252 9.24005 15.9544 9.28982 15.8757 9.32379C15.7971 9.35776 15.7123 9.37519 15.6266 9.375H2.52112C2.35956 9.37243 2.20304 9.43123 2.08313 9.53954C1.96322 9.64785 1.88885 9.7976 1.87503 9.95859C1.86935 10.0441 1.88132 10.1298 1.91017 10.2105C1.93903 10.2912 1.98417 10.3651 2.04278 10.4276C2.10139 10.49 2.17223 10.5398 2.25089 10.5738C2.32955 10.6078 2.41435 10.6252 2.50003 10.625H16.25C16.5934 10.625 16.9331 10.5543 17.248 10.4172C17.5628 10.2802 17.8461 10.0797 18.0801 9.8284C18.314 9.57705 18.4937 9.2802 18.6079 8.95635C18.7221 8.6325 18.7684 8.2886 18.7438 7.94609ZM11.875 11.875H3.14612C2.98456 11.8724 2.82804 11.9312 2.70813 12.0395C2.58822 12.1478 2.51385 12.2976 2.50003 12.4586C2.49435 12.5441 2.50632 12.6298 2.53517 12.7105C2.56403 12.7912 2.60917 12.8651 2.66778 12.9276C2.72639 12.99 2.79723 13.0398 2.87589 13.0738C2.95455 13.1078 3.03935 13.1252 3.12503 13.125H11.2289C11.3902 13.1228 11.5464 13.1818 11.6659 13.2901C11.7855 13.3983 11.8597 13.5479 11.8735 13.7086C11.8791 13.7941 11.8672 13.8798 11.8383 13.9605C11.8095 14.0412 11.7643 14.1151 11.7057 14.1776C11.6471 14.24 11.5763 14.2898 11.4976 14.3238C11.419 14.3578 11.3341 14.3752 11.2485 14.375H9.71019C9.66504 14.3745 9.62033 14.3838 9.57913 14.4023C9.53792 14.4207 9.50121 14.4479 9.47151 14.4819C9.44181 14.5159 9.41983 14.556 9.40709 14.5993C9.39435 14.6426 9.39114 14.6881 9.39769 14.7328C9.46625 15.2069 9.66959 15.6514 9.9835 16.0132C10.2974 16.3751 10.7087 16.6391 11.1684 16.7739C11.628 16.9088 12.1168 16.9087 12.5764 16.7737C13.036 16.6387 13.4472 16.3745 13.761 16.0125C14.0748 15.6506 14.2779 15.2061 14.3463 14.7319C14.4147 14.2578 14.3455 13.774 14.1468 13.3381C13.9481 12.9022 13.6283 12.5326 13.2256 12.2732C12.8229 12.0138 12.3541 11.8756 11.875 11.875Z" fill="#191F2E"/>
</svg>
