<svg width="20" height="20" viewBox="0 0 20 20" fill="none" xmlns="http://www.w3.org/2000/svg">
<path d="M16.0414 7.47422L14.3406 1.69844C14.3025 1.56903 14.2236 1.45543 14.1156 1.37461C14.0076 1.29378 13.8763 1.25007 13.7414 1.25H6.25859C6.12369 1.25007 5.99244 1.29378 5.88443 1.37461C5.77643 1.45543 5.69748 1.56903 5.65937 1.69844L3.95859 7.47422C3.69175 8.35949 3.67778 9.30175 3.91827 10.1945C4.15876 11.0873 4.64412 11.8951 5.31953 12.5266C6.43061 13.5684 7.85809 14.2088 9.375 14.3461V17.5H6.875C6.70924 17.5 6.55026 17.5658 6.43305 17.6831C6.31584 17.8003 6.25 17.9592 6.25 18.125C6.25 18.2908 6.31584 18.4497 6.43305 18.5669C6.55026 18.6842 6.70924 18.75 6.875 18.75H13.125C13.2908 18.75 13.4497 18.6842 13.5669 18.5669C13.6841 18.4497 13.75 18.2908 13.75 18.125C13.75 17.9592 13.6841 17.8003 13.5669 17.6831C13.4497 17.5658 13.2908 17.5 13.125 17.5H10.625V14.3461C12.1419 14.2089 13.5694 13.5685 14.6805 12.5266C15.3557 11.895 15.841 11.0872 16.0815 10.1945C16.3219 9.30172 16.3081 8.35951 16.0414 7.47422ZM6.72578 2.5H13.2742L14.8437 7.82734C14.8508 7.85078 14.857 7.87422 14.8633 7.89766C13.1898 8.49766 11.3055 7.77266 10.2828 7.25469C8.31484 6.25859 6.75234 6.13203 5.6 6.32266L6.72578 2.5Z" fill="#191F2E"/>
</svg>
