<svg width="20" height="20" viewBox="0 0 20 20" fill="none" xmlns="http://www.w3.org/2000/svg">
<path d="M17.7156 5.39052C17.6777 5.29681 17.6176 5.2137 17.5406 5.14831C17.4635 5.08292 17.3717 5.03721 17.273 5.01508C17.1744 4.99296 17.0719 4.99509 16.9742 5.02129C16.8766 5.04749 16.7868 5.09698 16.7125 5.16552L13.5641 8.07098L12.218 7.78192L11.9289 6.43583L14.8344 3.28739C14.9029 3.21309 14.9524 3.12327 14.9786 3.02564C15.0048 2.92801 15.0069 2.82549 14.9848 2.72685C14.9627 2.62822 14.917 2.53642 14.8516 2.45934C14.7862 2.38225 14.7031 2.32218 14.6094 2.28427C13.7554 1.93882 12.8297 1.80839 11.9135 1.90444C10.9974 2.00048 10.1188 2.32006 9.35507 2.83509C8.59132 3.35012 7.96574 4.04484 7.53331 4.85821C7.10087 5.67158 6.87482 6.57871 6.875 7.49989C6.87399 8.27777 7.03357 9.04747 7.34375 9.76083L2.63984 13.828C2.62812 13.8374 2.61719 13.8483 2.60625 13.8585C2.13735 14.3274 1.87393 14.9633 1.87393 15.6265C1.87393 15.9548 1.9386 16.2799 2.06425 16.5833C2.18991 16.8866 2.37408 17.1622 2.60625 17.3944C2.83842 17.6266 3.11405 17.8108 3.4174 17.9364C3.72075 18.0621 4.04588 18.1267 4.37422 18.1267C5.03733 18.1267 5.67329 17.8633 6.14219 17.3944C6.15234 17.3843 6.16328 17.3725 6.17266 17.3616L10.2391 12.6561C11.0956 13.0322 12.0325 13.1886 12.9648 13.1113C13.8971 13.034 14.7953 12.7254 15.5783 12.2135C16.3613 11.7015 17.0042 11.0024 17.4489 10.1794C17.8935 9.35632 18.1259 8.43537 18.125 7.49989C18.1262 6.77691 17.9872 6.06056 17.7156 5.39052ZM12.5 11.8749C11.7602 11.8739 11.0327 11.6857 10.3852 11.328C10.2597 11.2587 10.1142 11.2346 9.97315 11.2598C9.83205 11.285 9.7039 11.3579 9.61015 11.4663L5.24297 16.5241C5.00664 16.7486 4.69195 16.872 4.366 16.8678C4.04005 16.8636 3.72862 16.7323 3.49812 16.5018C3.26762 16.2713 3.13628 15.9598 3.13211 15.6339C3.12793 15.3079 3.25126 14.9932 3.47578 14.7569L8.52969 10.3905C8.63829 10.2967 8.71131 10.1684 8.73649 10.0272C8.76167 9.8859 8.73748 9.74027 8.66797 9.61474C8.26955 8.89414 8.08258 8.07574 8.12854 7.25363C8.1745 6.43151 8.45153 5.63905 8.92778 4.96735C9.40403 4.29566 10.0602 3.772 10.8208 3.45657C11.5813 3.14114 12.4155 3.04676 13.2273 3.18427L10.7898 5.82567C10.722 5.89925 10.6729 5.98803 10.6465 6.08455C10.6201 6.18108 10.6173 6.28252 10.6383 6.38036L11.0805 8.43739C11.1058 8.55504 11.1645 8.66289 11.2496 8.74798C11.3347 8.83307 11.4425 8.89179 11.5602 8.91708L13.6187 9.35927C13.7166 9.38025 13.818 9.37744 13.9146 9.35106C14.0111 9.32469 14.0999 9.27553 14.1734 9.2077L16.8148 6.7702C16.9201 7.39755 16.8875 8.04031 16.7192 8.65378C16.551 9.26724 16.2511 9.83669 15.8404 10.3225C15.4298 10.8083 14.9182 11.1989 14.3414 11.467C13.7645 11.735 13.1361 11.8742 12.5 11.8749Z" fill="#191F2E"/>
</svg>
