<svg width="20" height="20" viewBox="0 0 20 20" fill="none" xmlns="http://www.w3.org/2000/svg">
<path d="M18.0055 5.27336C17.9486 5.1328 17.8585 5.00814 17.7429 4.91005C17.6272 4.81197 17.4895 4.74339 17.3416 4.71021C17.1936 4.67702 17.0399 4.68022 16.8934 4.71952C16.747 4.75882 16.6122 4.83306 16.5008 4.93586L13.4711 7.7343L12.4805 7.5218L12.2656 6.52883L15.0617 3.49914C15.1645 3.38769 15.2388 3.25296 15.2781 3.10652C15.3174 2.96007 15.3206 2.80628 15.2874 2.65833C15.2542 2.51038 15.1856 2.37269 15.0875 2.25706C14.9894 2.14143 14.8648 2.05132 14.7242 1.99445C13.6479 1.55899 12.4675 1.44865 11.3291 1.67709C10.1908 1.90554 9.14435 2.46273 8.31936 3.27973C7.49438 4.09674 6.92704 5.13769 6.68754 6.2738C6.44804 7.4099 6.5469 8.59129 6.97188 9.6718L2.43516 13.5937C2.41797 13.6085 2.40079 13.6241 2.38516 13.6405C1.86481 14.1694 1.57453 14.8825 1.57755 15.6245C1.58057 16.3664 1.87665 17.0771 2.40129 17.6018C2.92593 18.1264 3.63663 18.4225 4.37858 18.4255C5.12053 18.4285 5.83361 18.1382 6.36251 17.6179C6.37891 17.6023 6.39454 17.5851 6.40938 17.5679L10.3281 13.0312C11.4092 13.457 12.5915 13.5562 13.7284 13.3166C14.8653 13.077 15.907 12.5091 16.7243 11.6832C17.5416 10.8574 18.0986 9.80985 18.3264 8.67047C18.5541 7.5311 18.4425 6.34994 18.0055 5.27336ZM12.5 11.5624C11.8135 11.5625 11.1381 11.3888 10.5367 11.0577C10.3486 10.954 10.1305 10.9181 9.91906 10.9559C9.70759 10.9937 9.51552 11.103 9.37501 11.2655L5.01641 16.3085C4.84029 16.4846 4.60142 16.5836 4.35235 16.5836C4.10328 16.5836 3.86441 16.4846 3.68829 16.3085C3.51217 16.1324 3.41322 15.8935 3.41322 15.6445C3.41322 15.3954 3.51217 15.1565 3.68829 14.9804L8.73438 10.6249C8.89713 10.4842 9.00653 10.2918 9.04422 10.08C9.08192 9.86819 9.04562 9.64986 8.94141 9.46164C8.60028 8.84302 8.42636 8.14613 8.43682 7.43976C8.44728 6.73339 8.64176 6.04196 9.00107 5.43371C9.36037 4.82546 9.87207 4.32142 10.4857 3.97134C11.0993 3.62125 11.7936 3.43722 12.5 3.43742H12.5695L10.5602 5.61477C10.4584 5.72512 10.3847 5.8583 10.3451 6.00308C10.3056 6.14787 10.3013 6.30004 10.3328 6.4468L10.775 8.50539C10.8129 8.68186 10.901 8.84363 11.0287 8.97127C11.1563 9.09891 11.3181 9.18699 11.4945 9.22492L13.5531 9.66711C13.6999 9.69859 13.8521 9.69437 13.9968 9.6548C14.1416 9.61524 14.2748 9.5415 14.3852 9.43976L16.5625 7.43117C16.5625 7.45461 16.5625 7.47726 16.5625 7.5007C16.5611 8.57763 16.1326 9.61002 15.371 10.3714C14.6094 11.1329 13.5769 11.5612 12.5 11.5624Z" fill="#191F2E"/>
</svg>
