<svg width="20" height="20" viewBox="0 0 20 20" fill="none" xmlns="http://www.w3.org/2000/svg">
<path d="M18.125 7.50009C18.1259 8.43557 17.8936 9.35651 17.4489 10.1795C17.0042 11.0026 16.3613 11.7017 15.5783 12.2137C14.7953 12.7256 13.8971 13.0342 12.9648 13.1115C12.0325 13.1888 11.0956 13.0324 10.2391 12.6563L6.17188 17.361C6.1625 17.372 6.15156 17.3837 6.14141 17.3938C5.67251 17.8627 5.03656 18.1262 4.37344 18.1262C3.71032 18.1262 3.07436 17.8627 2.60547 17.3938C2.13658 16.9249 1.87315 16.289 1.87315 15.6259C1.87315 14.9628 2.13658 14.3268 2.60547 13.8579C2.61641 13.8477 2.62735 13.8368 2.63906 13.8274L7.34375 9.76103C6.92224 8.79681 6.77938 7.73377 6.93137 6.69249C7.08336 5.6512 7.52412 4.67335 8.20365 3.86985C8.88318 3.06635 9.77429 2.46936 10.7759 2.14661C11.7775 1.82386 12.8495 1.78825 13.8703 2.04384C13.9755 2.07021 14.0721 2.12353 14.1505 2.19853C14.2289 2.27354 14.2864 2.36765 14.3173 2.47162C14.3483 2.57559 14.3517 2.68583 14.3272 2.7915C14.3026 2.89718 14.251 2.99464 14.1773 3.07431L11.25 6.25009L11.6922 8.30868L13.75 8.75009L16.9258 5.81884C17.0055 5.7452 17.1029 5.69357 17.2086 5.66903C17.3143 5.64448 17.4245 5.64786 17.5285 5.67884C17.6324 5.70982 17.7266 5.76732 17.8016 5.84571C17.8766 5.92409 17.9299 6.02064 17.9563 6.12587C18.0684 6.57533 18.1251 7.03684 18.125 7.50009Z" fill="#191F2E"/>
</svg>
