<svg width="20" height="20" viewBox="0 0 20 20" fill="none" xmlns="http://www.w3.org/2000/svg">
<path d="M16.25 2.5H3.75C3.41848 2.5 3.10054 2.6317 2.86612 2.86612C2.6317 3.10054 2.5 3.41848 2.5 3.75V16.25C2.5 16.5815 2.6317 16.8995 2.86612 17.1339C3.10054 17.3683 3.41848 17.5 3.75 17.5H16.25C16.5815 17.5 16.8995 17.3683 17.1339 17.1339C17.3683 16.8995 17.5 16.5815 17.5 16.25V3.75C17.5 3.41848 17.3683 3.10054 17.1339 2.86612C16.8995 2.6317 16.5815 2.5 16.25 2.5ZM14.1922 13.3078C14.2503 13.3659 14.2963 13.4348 14.3277 13.5107C14.3592 13.5866 14.3753 13.6679 14.3753 13.75C14.3753 13.8321 14.3592 13.9134 14.3277 13.9893C14.2963 14.0652 14.2503 14.1341 14.1922 14.1922C14.1341 14.2503 14.0652 14.2963 13.9893 14.3277C13.9134 14.3592 13.8321 14.3753 13.75 14.3753C13.6679 14.3753 13.5866 14.3592 13.5107 14.3277C13.4348 14.2963 13.3659 14.2503 13.3078 14.1922L10 10.8836L6.69219 14.1922C6.57491 14.3095 6.41585 14.3753 6.25 14.3753C6.08415 14.3753 5.92509 14.3095 5.80781 14.1922C5.69054 14.0749 5.62465 13.9159 5.62465 13.75C5.62465 13.5841 5.69054 13.4251 5.80781 13.3078L9.11641 10L5.80781 6.69219C5.69054 6.57491 5.62465 6.41585 5.62465 6.25C5.62465 6.08415 5.69054 5.92509 5.80781 5.80781C5.92509 5.69054 6.08415 5.62465 6.25 5.62465C6.41585 5.62465 6.57491 5.69054 6.69219 5.80781L10 9.11641L13.3078 5.80781C13.4251 5.69054 13.5841 5.62465 13.75 5.62465C13.9159 5.62465 14.0749 5.69054 14.1922 5.80781C14.3095 5.92509 14.3753 6.08415 14.3753 6.25C14.3753 6.41585 14.3095 6.57491 14.1922 6.69219L10.8836 10L14.1922 13.3078Z" fill="#191F2E"/>
</svg>
