<svg width="20" height="20" viewBox="0 0 20 20" fill="none" xmlns="http://www.w3.org/2000/svg">
<path d="M10 1.5625C8.33122 1.5625 6.69992 2.05735 5.31238 2.98448C3.92484 3.9116 2.84338 5.22936 2.20477 6.77111C1.56616 8.31286 1.39907 10.0094 1.72463 11.6461C2.05019 13.2828 2.85379 14.7862 4.03379 15.9662C5.2138 17.1462 6.71721 17.9498 8.35393 18.2754C9.99064 18.6009 11.6871 18.4338 13.2289 17.7952C14.7706 17.1566 16.0884 16.0752 17.0155 14.6876C17.9427 13.3001 18.4375 11.6688 18.4375 10C18.435 7.763 17.5453 5.61833 15.9635 4.03653C14.3817 2.45473 12.237 1.56498 10 1.5625ZM3.4375 10C3.43937 8.26009 4.13137 6.59197 5.36167 5.36167C6.59198 4.13136 8.26009 3.43936 10 3.4375C10.7459 3.4375 11.4613 3.73382 11.9887 4.26126C12.5162 4.78871 12.8125 5.50408 12.8125 6.25C12.8125 6.99592 12.5162 7.71129 11.9887 8.23874C11.4613 8.76618 10.7459 9.0625 10 9.0625C9.30557 9.06248 8.61981 9.21675 7.99229 9.51416C7.36477 9.81157 6.81117 10.2447 6.3715 10.7822C5.93184 11.3197 5.6171 11.9482 5.45003 12.6223C5.28296 13.2963 5.26774 13.999 5.40547 14.6797C4.78215 14.0702 4.28696 13.3422 3.949 12.5385C3.61104 11.7349 3.43714 10.8718 3.4375 10ZM10 16.5625C9.25408 16.5625 8.53871 16.2662 8.01127 15.7387C7.48382 15.2113 7.1875 14.4959 7.1875 13.75C7.1875 13.0041 7.48382 12.2887 8.01127 11.7613C8.53871 11.2338 9.25408 10.9375 10 10.9375C10.6944 10.9375 11.3802 10.7833 12.0077 10.4858C12.6352 10.1884 13.1888 9.7553 13.6285 9.21778C14.0682 8.68026 14.3829 8.05176 14.55 7.37772C14.717 6.70369 14.7323 6.00095 14.5945 5.32031C15.5254 6.23231 16.1635 7.40098 16.4273 8.67718C16.6911 9.95339 16.5687 11.2793 16.0757 12.4856C15.5827 13.6919 14.7414 14.724 13.6593 15.4501C12.5771 16.1763 11.3032 16.5635 10 16.5625ZM11.25 13.75C11.25 13.9972 11.1767 14.2389 11.0393 14.4445C10.902 14.65 10.7068 14.8102 10.4784 14.9049C10.25 14.9995 9.99862 15.0242 9.75614 14.976C9.51366 14.9278 9.29094 14.8087 9.11612 14.6339C8.9413 14.4591 8.82225 14.2363 8.77402 13.9939C8.72579 13.7514 8.75054 13.5001 8.84515 13.2716C8.93976 13.0432 9.09998 12.848 9.30554 12.7107C9.5111 12.5733 9.75278 12.5 10 12.5C10.3315 12.5 10.6495 12.6317 10.8839 12.8661C11.1183 13.1005 11.25 13.4185 11.25 13.75ZM8.75 6.25C8.75 6.00277 8.82331 5.7611 8.96067 5.55554C9.09802 5.34998 9.29324 5.18976 9.52165 5.09515C9.75006 5.00054 10.0014 4.97579 10.2439 5.02402C10.4863 5.07225 10.7091 5.1913 10.8839 5.36612C11.0587 5.54093 11.1778 5.76366 11.226 6.00614C11.2742 6.24861 11.2495 6.49995 11.1549 6.72835C11.0602 6.95676 10.9 7.15199 10.6945 7.28934C10.4889 7.42669 10.2472 7.5 10 7.5C9.66848 7.5 9.35054 7.3683 9.11612 7.13388C8.8817 6.89946 8.75 6.58152 8.75 6.25Z" fill="#191F2E"/>
</svg>
