<svg width="20" height="20" viewBox="0 0 20 20" fill="none" xmlns="http://www.w3.org/2000/svg">
<path d="M10.9375 6.25C10.9375 6.43542 10.8825 6.61668 10.7795 6.77085C10.6765 6.92502 10.5301 7.04518 10.3588 7.11614C10.1875 7.18709 9.99896 7.20566 9.81711 7.16949C9.63525 7.13331 9.4682 7.04402 9.33709 6.91291C9.20598 6.7818 9.11669 6.61475 9.08052 6.4329C9.04434 6.25104 9.06291 6.06254 9.13387 5.89123C9.20482 5.71993 9.32499 5.57351 9.47916 5.4705C9.63333 5.36748 9.81458 5.3125 10 5.3125C10.2486 5.3125 10.4871 5.41127 10.6629 5.58709C10.8387 5.7629 10.9375 6.00136 10.9375 6.25ZM18.125 10C18.125 11.607 17.6485 13.1779 16.7557 14.514C15.8629 15.8502 14.594 16.8916 13.1093 17.5065C11.6247 18.1215 9.99099 18.2824 8.4149 17.9689C6.8388 17.6554 5.39106 16.8815 4.25476 15.7452C3.11846 14.6089 2.34463 13.1612 2.03112 11.5851C1.71762 10.009 1.87852 8.37535 2.49348 6.8907C3.10844 5.40605 4.14985 4.1371 5.486 3.24431C6.82214 2.35152 8.39303 1.875 10 1.875C12.1542 1.87727 14.2195 2.73403 15.7427 4.25727C17.266 5.78051 18.1227 7.84581 18.125 10ZM10.9375 13.75C10.9375 13.5646 10.8825 13.3833 10.7795 13.2292C10.6765 13.075 10.5301 12.9548 10.3588 12.8839C10.1875 12.8129 9.99896 12.7943 9.81711 12.8305C9.63525 12.8667 9.4682 12.956 9.33709 13.0871C9.20598 13.2182 9.11669 13.3852 9.08052 13.5671C9.04434 13.749 9.06291 13.9375 9.13387 14.1088C9.20482 14.2801 9.32499 14.4265 9.47916 14.5295C9.63333 14.6325 9.81458 14.6875 10 14.6875C10.2486 14.6875 10.4871 14.5887 10.6629 14.4129C10.8387 14.2371 10.9375 13.9986 10.9375 13.75ZM13.4375 6.5625C13.4365 5.65114 13.074 4.77739 12.4295 4.13296C11.7851 3.48853 10.9114 3.12603 10 3.125C8.5101 3.12592 7.06081 3.61082 5.87034 4.5067C4.67987 5.40258 3.81264 6.66094 3.39923 8.09234C2.98581 9.52374 3.04858 11.0507 3.57809 12.4433C4.10759 13.836 5.07517 15.0189 6.33516 15.8141C6.03927 15.1949 5.90507 14.5108 5.94508 13.8257C5.98508 13.1406 6.198 12.4768 6.56395 11.8962C6.9299 11.3156 7.43696 10.8372 8.03782 10.5057C8.63867 10.1741 9.31373 10.0001 10 10C10.9114 9.99897 11.7851 9.63647 12.4295 8.99204C13.074 8.34761 13.4365 7.47386 13.4375 6.5625Z" fill="#191F2E"/>
</svg>
