<svg width="20" height="20" viewBox="0 0 20 20" fill="none" xmlns="http://www.w3.org/2000/svg">
<path d="M18.307 5.43125C18.2334 5.14324 18.0924 4.87686 17.8955 4.65409C17.6987 4.43132 17.4517 4.25854 17.175 4.15C14.4969 3.11563 10.2344 3.125 10 3.125C9.76562 3.125 5.50312 3.11563 2.825 4.15C2.54825 4.25854 2.30128 4.43132 2.10445 4.65409C1.90762 4.87686 1.76658 5.14324 1.69297 5.43125C1.49063 6.21094 1.25 7.63594 1.25 10C1.25 12.3641 1.49063 13.7891 1.69297 14.5688C1.76647 14.8569 1.90746 15.1234 2.1043 15.3464C2.30113 15.5693 2.54816 15.7422 2.825 15.8508C5.39062 16.8406 9.40625 16.875 9.94844 16.875H10.0516C10.5938 16.875 14.6117 16.8406 17.175 15.8508C17.4518 15.7422 17.6989 15.5693 17.8957 15.3464C18.0925 15.1234 18.2335 14.8569 18.307 14.5688C18.5094 13.7875 18.75 12.3641 18.75 10C18.75 7.63594 18.5094 6.21094 18.307 5.43125ZM12.6734 10.2602L8.92344 12.7602C8.87636 12.7916 8.82165 12.8096 8.76512 12.8123C8.7086 12.8151 8.65239 12.8024 8.6025 12.7757C8.55262 12.749 8.51091 12.7092 8.48185 12.6607C8.45279 12.6121 8.43746 12.5566 8.4375 12.5V7.5C8.43746 7.44341 8.45279 7.38788 8.48185 7.33932C8.51091 7.29076 8.55262 7.25101 8.6025 7.2243C8.65239 7.19759 8.7086 7.18493 8.76512 7.18767C8.82165 7.1904 8.87636 7.20844 8.92344 7.23985L12.6734 9.73985C12.7163 9.76837 12.7515 9.80705 12.7758 9.85244C12.8001 9.89782 12.8128 9.94851 12.8128 10C12.8128 10.0515 12.8001 10.1022 12.7758 10.1476C12.7515 10.193 12.7163 10.2316 12.6734 10.2602Z" fill="#191F2E"/>
</svg>
