<svg width="20" height="20" viewBox="0 0 20 20" fill="none" xmlns="http://www.w3.org/2000/svg">
<path d="M13.3195 9.21172L8.94453 6.39922C8.80293 6.30817 8.63943 6.25693 8.47119 6.25088C8.30296 6.24483 8.13619 6.2842 7.98842 6.36484C7.84065 6.44548 7.71731 6.56442 7.63137 6.70918C7.54543 6.85393 7.50005 7.01916 7.5 7.1875V12.8125C7.50005 12.9808 7.54543 13.1461 7.63137 13.2908C7.71731 13.4356 7.84065 13.5545 7.98842 13.6352C8.13619 13.7158 8.30296 13.7552 8.47119 13.7491C8.63943 13.7431 8.80293 13.6918 8.94453 13.6008L13.3195 10.7883C13.4514 10.7034 13.5599 10.5867 13.6351 10.449C13.7102 10.3113 13.7496 10.1569 13.7496 10C13.7496 9.84312 13.7102 9.68875 13.6351 9.55102C13.5599 9.4133 13.4514 9.29664 13.3195 9.21172ZM9.375 11.0938V8.90625L11.0789 10L9.375 11.0938ZM18.6102 5.35156C18.5239 5.01539 18.3589 4.70452 18.129 4.44455C17.899 4.18458 17.6106 3.98294 17.2875 3.85625C14.5625 2.80547 10.257 2.8125 10 2.8125C9.74297 2.8125 5.4375 2.80547 2.7125 3.85781C2.38937 3.98451 2.10096 4.18614 1.87101 4.44611C1.64106 4.70608 1.47614 5.01695 1.38984 5.35313C1.18359 6.15 0.9375 7.60313 0.9375 10C0.9375 12.3969 1.18359 13.85 1.38984 14.6469C1.47614 14.9831 1.64106 15.2939 1.87101 15.5539C2.10096 15.8139 2.38937 16.0155 2.7125 16.1422C5.32891 17.1523 9.40312 17.1875 9.95078 17.1875H10.0492C10.5961 17.1875 14.6711 17.1523 17.2875 16.1422C17.6106 16.0155 17.899 15.8139 18.129 15.5539C18.3589 15.2939 18.5239 14.9831 18.6102 14.6469C18.8164 13.85 19.0625 12.3969 19.0625 10C19.0625 7.60313 18.8164 6.15 18.6102 5.35313V5.35156ZM16.7969 14.1766C16.7856 14.2245 16.7632 14.2691 16.7314 14.3067C16.6996 14.3443 16.6594 14.3738 16.6141 14.393C14.2797 15.2938 10.3336 15.3125 10.025 15.3125H9.99453C9.95312 15.3125 5.80391 15.3258 3.38828 14.393C3.34248 14.3741 3.30181 14.3447 3.26962 14.3071C3.23742 14.2695 3.21463 14.2247 3.20312 14.1766C3.05625 13.6109 2.8125 12.3156 2.8125 10C2.8125 7.68438 3.05859 6.38906 3.20312 5.82344C3.2144 5.77552 3.23683 5.73094 3.2686 5.69333C3.30037 5.65572 3.34057 5.62615 3.38594 5.60703C5.80391 4.67422 9.95234 4.6875 9.99375 4.6875H10.0055C10.0477 4.6875 14.1961 4.67422 16.6117 5.60703C16.6575 5.62585 16.6982 5.65529 16.7304 5.69292C16.7626 5.73054 16.7854 5.77528 16.7969 5.82344C16.9438 6.38906 17.1875 7.68438 17.1875 10C17.1875 12.3156 16.9414 13.6109 16.7969 14.1766Z" fill="#191F2E"/>
</svg>
